<svg width="255" height="484" viewBox="0 0 255 484" fill="none" xmlns="http://www.w3.org/2000/svg">
<rect width="4" height="28" transform="translate(23 36)" fill="#F3F3F3"/>
<rect width="4" height="28" transform="translate(63 100)" fill="#F3F3F3"/>
<rect width="4" height="28" transform="translate(38 164)" fill="#F3F3F3"/>
<rect width="4" height="28" transform="translate(82 228)" fill="#F3F3F3"/>
<rect width="4" height="28" transform="translate(55 292)" fill="#F3F3F3"/>
<rect width="4" height="28" transform="translate(24 356)" fill="#F3F3F3"/>
<rect width="4" height="28" transform="translate(38 420)" fill="#F3F3F3"/>
<g filter="url(#filter0_d_3994_54901)">
<rect x="4" y="4" width="75" height="28" rx="14" fill="white"/>
<rect x="4.5" y="4.5" width="74" height="27" rx="13.5" stroke="#E2E2E2"/>
<path fill-rule="evenodd" clip-rule="evenodd" d="M15.7275 12.21C14.442 12.21 13.4 13.252 13.4 14.5374V21.4542C13.4 22.7396 14.442 23.7816 15.7275 23.7816H24.2717C25.5571 23.7816 26.5991 22.7396 26.5991 21.4542V14.5374C26.5991 13.252 25.5571 12.21 24.2717 12.21H15.7275ZM14.8 14.5342C14.8 14.5353 14.8 14.5364 14.8 14.5374V21.4542C14.8 21.9664 15.2152 22.3816 15.7275 22.3816H24.2717C24.7839 22.3816 25.1991 21.9664 25.1991 21.4542V14.5374C25.1991 14.5363 25.1991 14.5353 25.1991 14.5342L20.4633 18.7235C20.1985 18.9578 19.8006 18.9578 19.5357 18.7235L14.8 14.5342ZM24.1309 13.61H15.8682L19.9995 17.2646L24.1309 13.61Z" fill="black"/>
<path d="M33.036 23V13.2H39.098V14.166H34.212V17.582H38.678V18.534H34.212V22.034H39.098V23H33.036ZM40.8683 23V16.056H41.9323L42.0163 17.064C42.2403 16.6907 42.539 16.4013 42.9123 16.196C43.2857 15.9907 43.7057 15.888 44.1723 15.888C44.723 15.888 45.1943 16 45.5863 16.224C45.9877 16.448 46.2957 16.7887 46.5103 17.246C46.753 16.826 47.0843 16.4947 47.5043 16.252C47.9337 16.0093 48.3957 15.888 48.8903 15.888C49.721 15.888 50.3837 16.14 50.8783 16.644C51.373 17.1387 51.6203 17.904 51.6203 18.94V23H50.4583V19.066C50.4583 18.3473 50.3137 17.806 50.0243 17.442C49.735 17.078 49.3197 16.896 48.7783 16.896C48.2183 16.896 47.7517 17.1153 47.3783 17.554C47.0143 17.9833 46.8323 18.5993 46.8323 19.402V23H45.6563V19.066C45.6563 18.3473 45.5117 17.806 45.2223 17.442C44.933 17.078 44.5177 16.896 43.9763 16.896C43.4257 16.896 42.9637 17.1153 42.5903 17.554C42.2263 17.9833 42.0443 18.5993 42.0443 19.402V23H40.8683ZM55.7018 23.168C55.1231 23.168 54.6424 23.07 54.2598 22.874C53.8771 22.678 53.5924 22.4167 53.4058 22.09C53.2191 21.7633 53.1258 21.4087 53.1258 21.026C53.1258 20.3167 53.3964 19.7707 53.9378 19.388C54.4791 19.0053 55.2164 18.814 56.1498 18.814H58.0258V18.73C58.0258 18.1233 57.8671 17.666 57.5498 17.358C57.2324 17.0407 56.8078 16.882 56.2758 16.882C55.8184 16.882 55.4218 16.9987 55.0858 17.232C54.7591 17.456 54.5538 17.7873 54.4698 18.226H53.2658C53.3124 17.722 53.4804 17.2973 53.7698 16.952C54.0684 16.6067 54.4371 16.3453 54.8758 16.168C55.3144 15.9813 55.7811 15.888 56.2758 15.888C57.2464 15.888 57.9744 16.1493 58.4598 16.672C58.9544 17.1853 59.2018 17.8713 59.2018 18.73V23H58.1518L58.0818 21.754C57.8858 22.146 57.5964 22.482 57.2138 22.762C56.8404 23.0327 56.3364 23.168 55.7018 23.168ZM55.8838 22.174C56.3318 22.174 56.7144 22.0573 57.0318 21.824C57.3584 21.5907 57.6058 21.2873 57.7738 20.914C57.9418 20.5407 58.0258 20.1487 58.0258 19.738V19.724H56.2478C55.5571 19.724 55.0671 19.8453 54.7778 20.088C54.4978 20.3213 54.3578 20.6153 54.3578 20.97C54.3578 21.334 54.4884 21.628 54.7498 21.852C55.0204 22.0667 55.3984 22.174 55.8838 22.174ZM61.68 14.516C61.4467 14.516 61.2507 14.4413 61.092 14.292C60.9427 14.1333 60.868 13.9373 60.868 13.704C60.868 13.48 60.9427 13.2933 61.092 13.144C61.2507 12.9947 61.4467 12.92 61.68 12.92C61.904 12.92 62.0953 12.9947 62.254 13.144C62.4127 13.2933 62.492 13.48 62.492 13.704C62.492 13.9373 62.4127 14.1333 62.254 14.292C62.0953 14.4413 61.904 14.516 61.68 14.516ZM61.092 23V16.056H62.268V23H61.092ZM64.3156 23V12.92H65.4916V23H64.3156Z" fill="black"/>
</g>
<path fill-rule="evenodd" clip-rule="evenodd" d="M103 10C98.5817 10 95 13.5817 95 18C95 22.4183 98.5817 26 103 26C107.418 26 111 22.4183 111 18C111 13.5817 107.418 10 103 10ZM96.5 18C96.5 14.4101 99.4101 11.5 103 11.5C106.59 11.5 109.5 14.4101 109.5 18C109.5 21.5899 106.59 24.5 103 24.5C99.4101 24.5 96.5 21.5899 96.5 18ZM105.901 16.1233C106.107 15.764 105.983 15.3056 105.623 15.0995C105.264 14.8933 104.806 15.0175 104.599 15.3767L102.306 19.374C102.205 19.5495 101.949 19.5389 101.863 19.3558L101.429 18.4314C101.253 18.0564 100.806 17.8951 100.431 18.071C100.056 18.247 99.8951 18.6936 100.071 19.0686L100.505 19.993C101.106 21.275 102.902 21.3488 103.607 20.1206L105.901 16.1233Z" fill="#0A6A4A"/>
<g filter="url(#filter1_d_3994_54901)">
<rect x="4" y="68" width="135" height="28" rx="14" fill="white"/>
<rect x="4.5" y="68.5" width="134" height="27" rx="13.5" stroke="#E2E2E2"/>
<g clip-path="url(#clip0_3994_54901)">
<path d="M17.2143 75.5H14.6818C14.0291 75.5 13.5 76.0291 13.5 76.6818C13.5 83.2088 18.7912 88.5 25.3182 88.5C25.9709 88.5 26.5 87.9709 26.5 87.3182V84.7857L23.7143 82.9286L22.2698 84.373C22.0189 84.6239 21.644 84.7019 21.3288 84.5391C20.7942 84.2629 19.9266 83.744 19.0714 82.9286C18.1959 82.0937 17.6828 81.1941 17.4254 80.6497C17.2811 80.3447 17.3646 79.9925 17.6032 79.7539L19.0714 78.2857L17.2143 75.5Z" stroke="black" stroke-width="1.3" stroke-linecap="round" stroke-linejoin="round"/>
</g>
<path d="M33.036 87V77.2H36.256C37.0213 77.2 37.6513 77.326 38.146 77.578C38.6407 77.83 39.0047 78.1707 39.238 78.6C39.4807 79.0293 39.602 79.5147 39.602 80.056C39.602 80.588 39.4853 81.0687 39.252 81.498C39.0187 81.9273 38.6547 82.2727 38.16 82.534C37.6653 82.786 37.0307 82.912 36.256 82.912H34.212V87H33.036ZM34.212 81.918H36.228C37.012 81.918 37.5673 81.7547 37.894 81.428C38.23 81.092 38.398 80.6347 38.398 80.056C38.398 79.468 38.23 79.0107 37.894 78.684C37.5673 78.348 37.012 78.18 36.228 78.18H34.212V81.918ZM41.0734 87V76.92H42.2494V81.246C42.4828 80.8167 42.8141 80.4853 43.2434 80.252C43.6728 80.0093 44.1394 79.888 44.6434 79.888C45.4461 79.888 46.0901 80.14 46.5754 80.644C47.0608 81.1387 47.3034 81.904 47.3034 82.94V87H46.1414V83.066C46.1414 81.6193 45.5581 80.896 44.3914 80.896C43.7848 80.896 43.2761 81.1153 42.8654 81.554C42.4548 81.9833 42.2494 82.5993 42.2494 83.402V87H41.0734ZM52.2491 87.168C51.5958 87.168 51.0078 87.0187 50.4851 86.72C49.9625 86.4213 49.5471 86.0013 49.2391 85.46C48.9405 84.9093 48.7911 84.2653 48.7911 83.528C48.7911 82.7907 48.9451 82.1513 49.2531 81.61C49.5611 81.0593 49.9765 80.6347 50.4991 80.336C51.0311 80.0373 51.6238 79.888 52.2771 79.888C52.9305 79.888 53.5185 80.0373 54.0411 80.336C54.5638 80.6347 54.9745 81.0593 55.2731 81.61C55.5811 82.1513 55.7351 82.7907 55.7351 83.528C55.7351 84.2653 55.5811 84.9093 55.2731 85.46C54.9651 86.0013 54.5451 86.4213 54.0131 86.72C53.4905 87.0187 52.9025 87.168 52.2491 87.168ZM52.2491 86.16C52.6505 86.16 53.0238 86.062 53.3691 85.866C53.7145 85.67 53.9945 85.376 54.2091 84.984C54.4238 84.592 54.5311 84.1067 54.5311 83.528C54.5311 82.9493 54.4238 82.464 54.2091 82.072C54.0038 81.68 53.7285 81.386 53.3831 81.19C53.0378 80.994 52.6691 80.896 52.2771 80.896C51.8758 80.896 51.5025 80.994 51.1571 81.19C50.8118 81.386 50.5318 81.68 50.3171 82.072C50.1025 82.464 49.9951 82.9493 49.9951 83.528C49.9951 84.1067 50.1025 84.592 50.3171 84.984C50.5318 85.376 50.8071 85.67 51.1431 85.866C51.4885 86.062 51.8571 86.16 52.2491 86.16ZM57.3703 87V80.056H58.4343L58.5043 81.302C58.7283 80.8633 59.0503 80.518 59.4703 80.266C59.8903 80.014 60.3663 79.888 60.8983 79.888C61.7196 79.888 62.373 80.14 62.8583 80.644C63.353 81.1387 63.6003 81.904 63.6003 82.94V87H62.4243V83.066C62.4243 81.6193 61.827 80.896 60.6323 80.896C60.035 80.896 59.5356 81.1153 59.1343 81.554C58.7423 81.9833 58.5463 82.5993 58.5463 83.402V87H57.3703ZM68.504 87.168C67.8413 87.168 67.2533 87.0187 66.74 86.72C66.2267 86.412 65.8207 85.9873 65.522 85.446C65.2327 84.9047 65.088 84.2653 65.088 83.528C65.088 82.8 65.2327 82.1653 65.522 81.624C65.8113 81.0733 66.2127 80.6487 66.726 80.35C67.2487 80.042 67.8507 79.888 68.532 79.888C69.204 79.888 69.7827 80.042 70.268 80.35C70.7627 80.6487 71.1407 81.0453 71.402 81.54C71.6633 82.0347 71.794 82.5667 71.794 83.136C71.794 83.2387 71.7893 83.3413 71.78 83.444C71.78 83.5467 71.78 83.6633 71.78 83.794H66.25C66.278 84.326 66.3993 84.7693 66.614 85.124C66.838 85.4693 67.1133 85.7307 67.44 85.908C67.776 86.0853 68.1307 86.174 68.504 86.174C68.9893 86.174 69.3953 86.062 69.722 85.838C70.0487 85.614 70.2867 85.3107 70.436 84.928H71.598C71.4113 85.572 71.052 86.1087 70.52 86.538C69.9973 86.958 69.3253 87.168 68.504 87.168ZM68.504 80.882C67.944 80.882 67.4447 81.0547 67.006 81.4C66.5767 81.736 66.3293 82.2307 66.264 82.884H70.632C70.604 82.2587 70.3893 81.7687 69.988 81.414C69.5867 81.0593 69.092 80.882 68.504 80.882ZM77.0578 87V80.056H78.1218L78.1918 81.302C78.4158 80.8633 78.7378 80.518 79.1578 80.266C79.5778 80.014 80.0538 79.888 80.5858 79.888C81.4071 79.888 82.0605 80.14 82.5458 80.644C83.0405 81.1387 83.2878 81.904 83.2878 82.94V87H82.1118V83.066C82.1118 81.6193 81.5145 80.896 80.3198 80.896C79.7225 80.896 79.2231 81.1153 78.8218 81.554C78.4298 81.9833 78.2338 82.5993 78.2338 83.402V87H77.0578ZM87.6035 87.168C86.7822 87.168 86.1288 86.9207 85.6435 86.426C85.1582 85.922 84.9155 85.152 84.9155 84.116V80.056H86.0915V83.99C86.0915 85.4367 86.6842 86.16 87.8695 86.16C88.4762 86.16 88.9755 85.9453 89.3675 85.516C89.7688 85.0773 89.9695 84.4567 89.9695 83.654V80.056H91.1455V87H90.0815L89.9975 85.754C89.7828 86.1927 89.4608 86.538 89.0315 86.79C88.6115 87.042 88.1355 87.168 87.6035 87.168ZM93.0812 87V80.056H94.1452L94.2292 81.064C94.4532 80.6907 94.7519 80.4013 95.1252 80.196C95.4986 79.9907 95.9186 79.888 96.3852 79.888C96.9359 79.888 97.4072 80 97.7992 80.224C98.2006 80.448 98.5086 80.7887 98.7232 81.246C98.9659 80.826 99.2972 80.4947 99.7172 80.252C100.147 80.0093 100.609 79.888 101.103 79.888C101.934 79.888 102.597 80.14 103.091 80.644C103.586 81.1387 103.833 81.904 103.833 82.94V87H102.671V83.066C102.671 82.3473 102.527 81.806 102.237 81.442C101.948 81.078 101.533 80.896 100.991 80.896C100.431 80.896 99.9646 81.1153 99.5912 81.554C99.2272 81.9833 99.0452 82.5993 99.0452 83.402V87H97.8692V83.066C97.8692 82.3473 97.7246 81.806 97.4352 81.442C97.1459 81.078 96.7306 80.896 96.1892 80.896C95.6386 80.896 95.1766 81.1153 94.8032 81.554C94.4392 81.9833 94.2572 82.5993 94.2572 83.402V87H93.0812ZM109.315 87.168C108.745 87.168 108.237 87.0513 107.789 86.818C107.35 86.5847 107.014 86.258 106.781 85.838L106.669 87H105.605V76.92H106.781V81.204C107.005 80.868 107.322 80.5647 107.733 80.294C108.153 80.0233 108.685 79.888 109.329 79.888C110.019 79.888 110.621 80.0467 111.135 80.364C111.648 80.6813 112.045 81.1153 112.325 81.666C112.614 82.2167 112.759 82.842 112.759 83.542C112.759 84.242 112.614 84.8673 112.325 85.418C112.045 85.9593 111.643 86.3887 111.121 86.706C110.607 87.014 110.005 87.168 109.315 87.168ZM109.189 86.146C109.655 86.146 110.066 86.0387 110.421 85.824C110.775 85.6 111.055 85.292 111.261 84.9C111.466 84.508 111.569 84.0507 111.569 83.528C111.569 83.0053 111.466 82.548 111.261 82.156C111.055 81.764 110.775 81.4607 110.421 81.246C110.066 81.022 109.655 80.91 109.189 80.91C108.722 80.91 108.311 81.022 107.957 81.246C107.602 81.4607 107.322 81.764 107.117 82.156C106.911 82.548 106.809 83.0053 106.809 83.528C106.809 84.0507 106.911 84.508 107.117 84.9C107.322 85.292 107.602 85.6 107.957 85.824C108.311 86.0387 108.722 86.146 109.189 86.146ZM117.518 87.168C116.855 87.168 116.267 87.0187 115.754 86.72C115.24 86.412 114.834 85.9873 114.536 85.446C114.246 84.9047 114.102 84.2653 114.102 83.528C114.102 82.8 114.246 82.1653 114.536 81.624C114.825 81.0733 115.226 80.6487 115.74 80.35C116.262 80.042 116.864 79.888 117.546 79.888C118.218 79.888 118.796 80.042 119.282 80.35C119.776 80.6487 120.154 81.0453 120.416 81.54C120.677 82.0347 120.808 82.5667 120.808 83.136C120.808 83.2387 120.803 83.3413 120.794 83.444C120.794 83.5467 120.794 83.6633 120.794 83.794H115.264C115.292 84.326 115.413 84.7693 115.628 85.124C115.852 85.4693 116.127 85.7307 116.454 85.908C116.79 86.0853 117.144 86.174 117.518 86.174C118.003 86.174 118.409 86.062 118.736 85.838C119.062 85.614 119.3 85.3107 119.45 84.928H120.612C120.425 85.572 120.066 86.1087 119.534 86.538C119.011 86.958 118.339 87.168 117.518 87.168ZM117.518 80.882C116.958 80.882 116.458 81.0547 116.02 81.4C115.59 81.736 115.343 82.2307 115.278 82.884H119.646C119.618 82.2587 119.403 81.7687 119.002 81.414C118.6 81.0593 118.106 80.882 117.518 80.882ZM122.366 87V80.056H123.43L123.528 81.386C123.743 80.9287 124.07 80.5647 124.508 80.294C124.947 80.0233 125.488 79.888 126.132 79.888V81.12H125.81C125.4 81.12 125.022 81.1947 124.676 81.344C124.331 81.484 124.056 81.7267 123.85 82.072C123.645 82.4173 123.542 82.8933 123.542 83.5V87H122.366Z" fill="black"/>
</g>
<path fill-rule="evenodd" clip-rule="evenodd" d="M163 74C158.582 74 155 77.5817 155 82C155 86.4183 158.582 90 163 90C167.418 90 171 86.4183 171 82C171 77.5817 167.418 74 163 74ZM156.5 82C156.5 78.4101 159.41 75.5 163 75.5C166.59 75.5 169.5 78.4101 169.5 82C169.5 85.5899 166.59 88.5 163 88.5C159.41 88.5 156.5 85.5899 156.5 82ZM165.901 80.1233C166.107 79.764 165.983 79.3056 165.623 79.0995C165.264 78.8933 164.806 79.0175 164.599 79.3767L162.306 83.374C162.205 83.5495 161.949 83.5389 161.863 83.3558L161.429 82.4314C161.253 82.0564 160.806 81.8951 160.431 82.071C160.056 82.247 159.895 82.6936 160.071 83.0686L160.505 83.993C161.106 85.275 162.902 85.3488 163.607 84.1206L165.901 80.1233Z" fill="#0A6A4A"/>
<g filter="url(#filter2_d_3994_54901)">
<rect x="4" y="132" width="78" height="28" rx="14" fill="white"/>
<rect x="4.5" y="132.5" width="77" height="27" rx="13.5" stroke="#E2E2E2"/>
<g clip-path="url(#clip1_3994_54901)">
<path fill-rule="evenodd" clip-rule="evenodd" d="M20.0464 139.86C16.6297 139.86 13.86 142.63 13.86 146.046C13.86 147.542 14.3907 148.913 15.2741 149.983C16.48 148.736 18.1727 147.958 20.0463 147.958C21.92 147.958 23.6127 148.736 24.8186 149.983C25.702 148.914 26.2327 147.542 26.2327 146.046C26.2327 142.63 23.463 139.86 20.0464 139.86ZM23.8114 150.955C22.8585 149.97 21.5241 149.358 20.0463 149.358C18.5686 149.358 17.2342 149.97 16.2813 150.955C17.3242 151.756 18.6297 152.233 20.0464 152.233C21.463 152.233 22.7685 151.756 23.8114 150.955ZM12.46 146.046C12.46 141.856 15.8565 138.46 20.0464 138.46C24.2362 138.46 27.6327 141.856 27.6327 146.046C27.6327 150.236 24.2362 153.633 20.0464 153.633C15.8565 153.633 12.46 150.236 12.46 146.046ZM20.0464 142.709C19.2526 142.709 18.6092 143.353 18.6092 144.147C18.6092 144.94 19.2526 145.584 20.0464 145.584C20.8401 145.584 21.4835 144.94 21.4835 144.147C21.4835 143.353 20.8401 142.709 20.0464 142.709ZM17.2092 144.147C17.2092 142.58 18.4794 141.309 20.0464 141.309C21.6133 141.309 22.8835 142.58 22.8835 144.147C22.8835 145.714 21.6133 146.984 20.0464 146.984C18.4794 146.984 17.2092 145.714 17.2092 144.147Z" fill="black"/>
</g>
<path d="M33.036 151V141.2H34.212L39.434 149.054V141.2H40.61V151H39.434L34.212 143.146V151H33.036ZM44.9283 151.168C44.3497 151.168 43.869 151.07 43.4863 150.874C43.1037 150.678 42.819 150.417 42.6323 150.09C42.4457 149.763 42.3523 149.409 42.3523 149.026C42.3523 148.317 42.623 147.771 43.1643 147.388C43.7057 147.005 44.443 146.814 45.3763 146.814H47.2523V146.73C47.2523 146.123 47.0937 145.666 46.7763 145.358C46.459 145.041 46.0343 144.882 45.5023 144.882C45.045 144.882 44.6483 144.999 44.3123 145.232C43.9857 145.456 43.7803 145.787 43.6963 146.226H42.4923C42.539 145.722 42.707 145.297 42.9963 144.952C43.295 144.607 43.6637 144.345 44.1023 144.168C44.541 143.981 45.0077 143.888 45.5023 143.888C46.473 143.888 47.201 144.149 47.6863 144.672C48.181 145.185 48.4283 145.871 48.4283 146.73V151H47.3783L47.3083 149.754C47.1123 150.146 46.823 150.482 46.4403 150.762C46.067 151.033 45.563 151.168 44.9283 151.168ZM45.1103 150.174C45.5583 150.174 45.941 150.057 46.2583 149.824C46.585 149.591 46.8323 149.287 47.0003 148.914C47.1683 148.541 47.2523 148.149 47.2523 147.738V147.724H45.4743C44.7837 147.724 44.2937 147.845 44.0043 148.088C43.7243 148.321 43.5843 148.615 43.5843 148.97C43.5843 149.334 43.715 149.628 43.9763 149.852C44.247 150.067 44.625 150.174 45.1103 150.174ZM50.1926 151V144.056H51.2566L51.3406 145.064C51.5646 144.691 51.8632 144.401 52.2366 144.196C52.6099 143.991 53.0299 143.888 53.4966 143.888C54.0472 143.888 54.5186 144 54.9106 144.224C55.3119 144.448 55.6199 144.789 55.8346 145.246C56.0772 144.826 56.4086 144.495 56.8286 144.252C57.2579 144.009 57.7199 143.888 58.2146 143.888C59.0452 143.888 59.7079 144.14 60.2026 144.644C60.6972 145.139 60.9446 145.904 60.9446 146.94V151H59.7826V147.066C59.7826 146.347 59.6379 145.806 59.3486 145.442C59.0592 145.078 58.6439 144.896 58.1026 144.896C57.5426 144.896 57.0759 145.115 56.7026 145.554C56.3386 145.983 56.1566 146.599 56.1566 147.402V151H54.9806V147.066C54.9806 146.347 54.8359 145.806 54.5466 145.442C54.2572 145.078 53.8419 144.896 53.3006 144.896C52.7499 144.896 52.2879 145.115 51.9146 145.554C51.5506 145.983 51.3686 146.599 51.3686 147.402V151H50.1926ZM65.838 151.168C65.1753 151.168 64.5873 151.019 64.074 150.72C63.5607 150.412 63.1547 149.987 62.856 149.446C62.5667 148.905 62.422 148.265 62.422 147.528C62.422 146.8 62.5667 146.165 62.856 145.624C63.1453 145.073 63.5467 144.649 64.06 144.35C64.5827 144.042 65.1847 143.888 65.866 143.888C66.538 143.888 67.1167 144.042 67.602 144.35C68.0967 144.649 68.4747 145.045 68.736 145.54C68.9973 146.035 69.128 146.567 69.128 147.136C69.128 147.239 69.1233 147.341 69.114 147.444C69.114 147.547 69.114 147.663 69.114 147.794H63.584C63.612 148.326 63.7333 148.769 63.948 149.124C64.172 149.469 64.4473 149.731 64.774 149.908C65.11 150.085 65.4647 150.174 65.838 150.174C66.3233 150.174 66.7293 150.062 67.056 149.838C67.3827 149.614 67.6207 149.311 67.77 148.928H68.932C68.7453 149.572 68.386 150.109 67.854 150.538C67.3313 150.958 66.6593 151.168 65.838 151.168ZM65.838 144.882C65.278 144.882 64.7787 145.055 64.34 145.4C63.9107 145.736 63.6633 146.231 63.598 146.884H67.966C67.938 146.259 67.7233 145.769 67.322 145.414C66.9207 145.059 66.426 144.882 65.838 144.882Z" fill="black"/>
</g>
<path fill-rule="evenodd" clip-rule="evenodd" d="M106 138C101.582 138 98 141.582 98 146C98 150.418 101.582 154 106 154C110.418 154 114 150.418 114 146C114 141.582 110.418 138 106 138ZM99.5 146C99.5 142.41 102.41 139.5 106 139.5C109.59 139.5 112.5 142.41 112.5 146C112.5 149.59 109.59 152.5 106 152.5C102.41 152.5 99.5 149.59 99.5 146ZM108.901 144.123C109.107 143.764 108.983 143.306 108.623 143.099C108.264 142.893 107.806 143.017 107.599 143.377L105.306 147.374C105.205 147.549 104.949 147.539 104.863 147.356L104.429 146.431C104.253 146.056 103.806 145.895 103.431 146.071C103.056 146.247 102.895 146.694 103.071 147.069L103.505 147.993C104.106 149.275 105.902 149.349 106.607 148.121L108.901 144.123Z" fill="#0A6A4A"/>
<g filter="url(#filter3_d_3994_54901)">
<rect x="4" y="196" width="122" height="28" rx="14" fill="white"/>
<rect x="4.5" y="196.5" width="121" height="27" rx="13.5" stroke="#E2E2E2"/>
<g clip-path="url(#clip2_3994_54901)">
<path fill-rule="evenodd" clip-rule="evenodd" d="M18.725 203.65C18.725 203.263 18.4116 202.95 18.025 202.95C17.6384 202.95 17.325 203.263 17.325 203.65V205.575H14.525C14.1384 205.575 13.825 205.888 13.825 206.275V214.023C13.29 214.473 12.95 215.147 12.95 215.9V216.337C12.95 216.724 13.2634 217.037 13.65 217.037H26.3375C26.7241 217.037 27.0375 216.724 27.0375 216.337V215.9C27.0375 215.147 26.6975 214.473 26.1625 214.023V206.275C26.1625 205.888 25.8491 205.575 25.4625 205.575H22.6625V203.65C22.6625 203.263 22.3491 202.95 21.9625 202.95C21.5759 202.95 21.2625 203.263 21.2625 203.65V205.575H18.725V203.65ZM24.7625 210.793V213.456C24.7047 213.452 24.6463 213.45 24.5875 213.45H15.4C15.3412 213.45 15.2828 213.452 15.225 213.456V211.08C15.5149 211.15 15.8813 211.224 16.3028 211.276C17.3568 211.408 18.7932 211.413 20.2407 210.867C21.4045 210.429 22.5932 210.423 23.5113 210.538C23.9672 210.595 24.3469 210.68 24.6102 210.75C24.6666 210.765 24.7175 210.78 24.7625 210.793ZM24.7625 209.345V206.975H15.225V209.632C15.27 209.645 15.3209 209.66 15.3773 209.675C15.6406 209.745 16.0203 209.83 16.4762 209.887C17.3943 210.002 18.583 209.996 19.7468 209.557C21.1943 209.012 22.6307 209.017 23.6847 209.149C24.1062 209.201 24.4726 209.275 24.7625 209.345ZM14.3831 215.637H25.6044C25.4879 215.185 25.0768 214.85 24.5875 214.85H15.4C14.9107 214.85 14.4996 215.185 14.3831 215.637Z" fill="black"/>
</g>
<path d="M33.036 215V205.2H36.046C37.7727 205.2 39.042 205.639 39.854 206.516C40.6753 207.393 41.086 208.597 41.086 210.128C41.086 211.631 40.6753 212.821 39.854 213.698C39.042 214.566 37.7727 215 36.046 215H33.036ZM34.212 214.02H36.018C36.97 214.02 37.726 213.866 38.286 213.558C38.8553 213.241 39.2613 212.793 39.504 212.214C39.7467 211.626 39.868 210.931 39.868 210.128C39.868 209.307 39.7467 208.602 39.504 208.014C39.2613 207.426 38.8553 206.973 38.286 206.656C37.726 206.339 36.97 206.18 36.018 206.18H34.212V214.02ZM45.024 215.168C44.4454 215.168 43.9647 215.07 43.582 214.874C43.1994 214.678 42.9147 214.417 42.728 214.09C42.5414 213.763 42.448 213.409 42.448 213.026C42.448 212.317 42.7187 211.771 43.26 211.388C43.8014 211.005 44.5387 210.814 45.472 210.814H47.348V210.73C47.348 210.123 47.1894 209.666 46.872 209.358C46.5547 209.041 46.13 208.882 45.598 208.882C45.1407 208.882 44.744 208.999 44.408 209.232C44.0814 209.456 43.876 209.787 43.792 210.226H42.588C42.6347 209.722 42.8027 209.297 43.092 208.952C43.3907 208.607 43.7594 208.345 44.198 208.168C44.6367 207.981 45.1034 207.888 45.598 207.888C46.5687 207.888 47.2967 208.149 47.782 208.672C48.2767 209.185 48.524 209.871 48.524 210.73V215H47.474L47.404 213.754C47.208 214.146 46.9187 214.482 46.536 214.762C46.1627 215.033 45.6587 215.168 45.024 215.168ZM45.206 214.174C45.654 214.174 46.0367 214.057 46.354 213.824C46.6807 213.591 46.928 213.287 47.096 212.914C47.264 212.541 47.348 212.149 47.348 211.738V211.724H45.57C44.8794 211.724 44.3894 211.845 44.1 212.088C43.82 212.321 43.68 212.615 43.68 212.97C43.68 213.334 43.8107 213.628 44.072 213.852C44.3427 214.067 44.7207 214.174 45.206 214.174ZM52.8409 215C52.2062 215 51.7069 214.846 51.3429 214.538C50.9789 214.23 50.7969 213.675 50.7969 212.872V209.05H49.5929V208.056H50.7969L50.9509 206.39H51.9729V208.056H54.0169V209.05H51.9729V212.872C51.9729 213.311 52.0615 213.609 52.2389 213.768C52.4162 213.917 52.7289 213.992 53.1769 213.992H53.9049V215H52.8409ZM58.4415 215.168C57.7788 215.168 57.1908 215.019 56.6775 214.72C56.1642 214.412 55.7582 213.987 55.4595 213.446C55.1702 212.905 55.0255 212.265 55.0255 211.528C55.0255 210.8 55.1702 210.165 55.4595 209.624C55.7488 209.073 56.1502 208.649 56.6635 208.35C57.1862 208.042 57.7882 207.888 58.4695 207.888C59.1415 207.888 59.7202 208.042 60.2055 208.35C60.7002 208.649 61.0782 209.045 61.3395 209.54C61.6008 210.035 61.7315 210.567 61.7315 211.136C61.7315 211.239 61.7268 211.341 61.7175 211.444C61.7175 211.547 61.7175 211.663 61.7175 211.794H56.1875C56.2155 212.326 56.3368 212.769 56.5515 213.124C56.7755 213.469 57.0508 213.731 57.3775 213.908C57.7135 214.085 58.0682 214.174 58.4415 214.174C58.9268 214.174 59.3328 214.062 59.6595 213.838C59.9862 213.614 60.2242 213.311 60.3735 212.928H61.5355C61.3488 213.572 60.9895 214.109 60.4575 214.538C59.9348 214.958 59.2628 215.168 58.4415 215.168ZM58.4415 208.882C57.8815 208.882 57.3822 209.055 56.9435 209.4C56.5142 209.736 56.2668 210.231 56.2015 210.884H60.5695C60.5415 210.259 60.3268 209.769 59.9255 209.414C59.5242 209.059 59.0295 208.882 58.4415 208.882ZM70.1593 215.168C69.506 215.168 68.918 215.019 68.3953 214.72C67.8726 214.421 67.4573 214.001 67.1493 213.46C66.8506 212.909 66.7013 212.265 66.7013 211.528C66.7013 210.791 66.8553 210.151 67.1633 209.61C67.4713 209.059 67.8866 208.635 68.4093 208.336C68.9413 208.037 69.534 207.888 70.1873 207.888C70.8406 207.888 71.4286 208.037 71.9513 208.336C72.474 208.635 72.8846 209.059 73.1833 209.61C73.4913 210.151 73.6453 210.791 73.6453 211.528C73.6453 212.265 73.4913 212.909 73.1833 213.46C72.8753 214.001 72.4553 214.421 71.9233 214.72C71.4006 215.019 70.8126 215.168 70.1593 215.168ZM70.1593 214.16C70.5606 214.16 70.934 214.062 71.2793 213.866C71.6246 213.67 71.9046 213.376 72.1193 212.984C72.334 212.592 72.4413 212.107 72.4413 211.528C72.4413 210.949 72.334 210.464 72.1193 210.072C71.914 209.68 71.6386 209.386 71.2933 209.19C70.948 208.994 70.5793 208.896 70.1873 208.896C69.786 208.896 69.4126 208.994 69.0673 209.19C68.722 209.386 68.442 209.68 68.2273 210.072C68.0126 210.464 67.9053 210.949 67.9053 211.528C67.9053 212.107 68.0126 212.592 68.2273 212.984C68.442 213.376 68.7173 213.67 69.0533 213.866C69.3986 214.062 69.7673 214.16 70.1593 214.16ZM75.6585 215V209.05H74.6085V208.056H75.6585V206.852C75.6585 206.18 75.8265 205.69 76.1625 205.382C76.4985 205.074 76.9885 204.92 77.6325 204.92H78.3325V205.928H77.8145C77.4598 205.928 77.2078 206.003 77.0585 206.152C76.9091 206.292 76.8345 206.535 76.8345 206.88V208.056H78.5425V209.05H76.8345V215H75.6585ZM87.3576 215.168C86.7883 215.168 86.2796 215.051 85.8316 214.818C85.393 214.585 85.057 214.258 84.8236 213.838L84.7116 215H83.6476V204.92H84.8236V209.204C85.0476 208.868 85.365 208.565 85.7756 208.294C86.1956 208.023 86.7276 207.888 87.3716 207.888C88.0623 207.888 88.6643 208.047 89.1776 208.364C89.691 208.681 90.0876 209.115 90.3676 209.666C90.657 210.217 90.8016 210.842 90.8016 211.542C90.8016 212.242 90.657 212.867 90.3676 213.418C90.0876 213.959 89.6863 214.389 89.1636 214.706C88.6503 215.014 88.0483 215.168 87.3576 215.168ZM87.2316 214.146C87.6983 214.146 88.109 214.039 88.4636 213.824C88.8183 213.6 89.0983 213.292 89.3036 212.9C89.509 212.508 89.6116 212.051 89.6116 211.528C89.6116 211.005 89.509 210.548 89.3036 210.156C89.0983 209.764 88.8183 209.461 88.4636 209.246C88.109 209.022 87.6983 208.91 87.2316 208.91C86.765 208.91 86.3543 209.022 85.9996 209.246C85.645 209.461 85.365 209.764 85.1596 210.156C84.9543 210.548 84.8516 211.005 84.8516 211.528C84.8516 212.051 84.9543 212.508 85.1596 212.9C85.365 213.292 85.645 213.6 85.9996 213.824C86.3543 214.039 86.765 214.146 87.2316 214.146ZM93.1527 206.516C92.9193 206.516 92.7233 206.441 92.5647 206.292C92.4153 206.133 92.3407 205.937 92.3407 205.704C92.3407 205.48 92.4153 205.293 92.5647 205.144C92.7233 204.995 92.9193 204.92 93.1527 204.92C93.3767 204.92 93.568 204.995 93.7267 205.144C93.8853 205.293 93.9647 205.48 93.9647 205.704C93.9647 205.937 93.8853 206.133 93.7267 206.292C93.568 206.441 93.3767 206.516 93.1527 206.516ZM92.5647 215V208.056H93.7407V215H92.5647ZM95.7883 215V208.056H96.8523L96.9503 209.386C97.1649 208.929 97.4916 208.565 97.9303 208.294C98.3689 208.023 98.9103 207.888 99.5543 207.888V209.12H99.2323C98.8216 209.12 98.4436 209.195 98.0983 209.344C97.7529 209.484 97.4776 209.727 97.2723 210.072C97.0669 210.417 96.9643 210.893 96.9643 211.5V215H95.7883ZM103.618 215C102.984 215 102.484 214.846 102.12 214.538C101.756 214.23 101.574 213.675 101.574 212.872V209.05H100.37V208.056H101.574L101.728 206.39H102.75V208.056H104.794V209.05H102.75V212.872C102.75 213.311 102.839 213.609 103.016 213.768C103.194 213.917 103.506 213.992 103.954 213.992H104.682V215H103.618ZM106.288 215V204.92H107.464V209.246C107.698 208.817 108.029 208.485 108.458 208.252C108.888 208.009 109.354 207.888 109.858 207.888C110.661 207.888 111.305 208.14 111.79 208.644C112.276 209.139 112.518 209.904 112.518 210.94V215H111.356V211.066C111.356 209.619 110.773 208.896 109.606 208.896C109 208.896 108.491 209.115 108.08 209.554C107.67 209.983 107.464 210.599 107.464 211.402V215H106.288Z" fill="black"/>
</g>
<path fill-rule="evenodd" clip-rule="evenodd" d="M150 202C145.582 202 142 205.582 142 210C142 214.418 145.582 218 150 218C154.418 218 158 214.418 158 210C158 205.582 154.418 202 150 202ZM143.5 210C143.5 206.41 146.41 203.5 150 203.5C153.59 203.5 156.5 206.41 156.5 210C156.5 213.59 153.59 216.5 150 216.5C146.41 216.5 143.5 213.59 143.5 210ZM152.901 208.123C153.107 207.764 152.983 207.306 152.623 207.099C152.264 206.893 151.806 207.017 151.599 207.377L149.306 211.374C149.205 211.549 148.949 211.539 148.863 211.356L148.429 210.431C148.253 210.056 147.806 209.895 147.431 210.071C147.056 210.247 146.895 210.694 147.071 211.069L147.505 211.993C148.106 213.275 149.902 213.349 150.607 212.121L152.901 208.123Z" fill="#0A6A4A"/>
<g filter="url(#filter4_d_3994_54901)">
<rect x="4" y="260" width="94" height="28" rx="14" fill="white"/>
<rect x="4.5" y="260.5" width="93" height="27" rx="13.5" stroke="#E2E2E2"/>
<g clip-path="url(#clip3_3994_54901)">
<path fill-rule="evenodd" clip-rule="evenodd" d="M13.3975 268.625C13.3975 267.175 14.5728 266 16.0225 266H23.9913C25.441 266 26.6163 267.175 26.6163 268.625V279.594H26.8038C27.218 279.594 27.5538 279.93 27.5538 280.344C27.5538 280.758 27.218 281.094 26.8038 281.094H25.8663H22.1163H17.8975H14.1475H13.21C12.7958 281.094 12.46 280.758 12.46 280.344C12.46 279.93 12.7958 279.594 13.21 279.594H13.3975V268.625ZM18.6475 279.594H21.3663V277.062C21.3663 276.441 20.8626 275.938 20.2413 275.938H19.7725C19.1512 275.938 18.6475 276.441 18.6475 277.062V279.594ZM22.8663 279.594V277.062C22.8663 275.613 21.691 274.438 20.2413 274.438H19.7725C18.3228 274.438 17.1475 275.613 17.1475 277.062V279.594H14.8975V268.625C14.8975 268.004 15.4012 267.5 16.0225 267.5H23.9913C24.6126 267.5 25.1163 268.004 25.1163 268.625V279.594H22.8663ZM18.1319 271.703C18.1491 271.703 18.1631 271.689 18.1631 271.672C18.1631 271.655 18.1491 271.641 18.1319 271.641C18.1146 271.641 18.1006 271.655 18.1006 271.672C18.1006 271.689 18.1146 271.703 18.1319 271.703ZM17.1631 271.672C17.1631 271.137 17.5969 270.703 18.1319 270.703C18.6669 270.703 19.1006 271.137 19.1006 271.672C19.1006 272.207 18.6669 272.641 18.1319 272.641C17.5969 272.641 17.1631 272.207 17.1631 271.672ZM21.9131 271.672C21.9131 271.689 21.8991 271.703 21.8819 271.703C21.8646 271.703 21.8506 271.689 21.8506 271.672C21.8506 271.655 21.8646 271.641 21.8819 271.641C21.8991 271.641 21.9131 271.655 21.9131 271.672ZM21.8819 270.703C21.3469 270.703 20.9131 271.137 20.9131 271.672C20.9131 272.207 21.3469 272.641 21.8819 272.641C22.4169 272.641 22.8506 272.207 22.8506 271.672C22.8506 271.137 22.4169 270.703 21.8819 270.703Z" fill="black"/>
</g>
<path d="M32.42 279L36.032 269.2H37.278L40.876 279H39.63L38.734 276.48H34.562L33.652 279H32.42ZM34.912 275.528H38.384L36.648 270.684L34.912 275.528ZM45.0301 279.168C44.3394 279.168 43.7327 279.009 43.2101 278.692C42.6967 278.375 42.2954 277.941 42.0061 277.39C41.7261 276.839 41.5861 276.214 41.5861 275.514C41.5861 274.814 41.7307 274.193 42.0201 273.652C42.3094 273.101 42.7107 272.672 43.2241 272.364C43.7374 272.047 44.3441 271.888 45.0441 271.888C45.6134 271.888 46.1174 272.005 46.5561 272.238C46.9947 272.471 47.3354 272.798 47.5781 273.218V268.92H48.7541V279H47.6901L47.5781 277.852C47.3541 278.188 47.0321 278.491 46.6121 278.762C46.1921 279.033 45.6647 279.168 45.0301 279.168ZM45.1561 278.146C45.6227 278.146 46.0334 278.039 46.3881 277.824C46.7521 277.6 47.0321 277.292 47.2281 276.9C47.4334 276.508 47.5361 276.051 47.5361 275.528C47.5361 275.005 47.4334 274.548 47.2281 274.156C47.0321 273.764 46.7521 273.461 46.3881 273.246C46.0334 273.022 45.6227 272.91 45.1561 272.91C44.6987 272.91 44.2881 273.022 43.9241 273.246C43.5694 273.461 43.2894 273.764 43.0841 274.156C42.8881 274.548 42.7901 275.005 42.7901 275.528C42.7901 276.051 42.8881 276.508 43.0841 276.9C43.2894 277.292 43.5694 277.6 43.9241 277.824C44.2881 278.039 44.6987 278.146 45.1561 278.146ZM53.8211 279.168C53.1304 279.168 52.5237 279.009 52.0011 278.692C51.4877 278.375 51.0864 277.941 50.7971 277.39C50.5171 276.839 50.3771 276.214 50.3771 275.514C50.3771 274.814 50.5217 274.193 50.8111 273.652C51.1004 273.101 51.5017 272.672 52.0151 272.364C52.5284 272.047 53.1351 271.888 53.8351 271.888C54.4044 271.888 54.9084 272.005 55.3471 272.238C55.7857 272.471 56.1264 272.798 56.3691 273.218V268.92H57.5451V279H56.4811L56.3691 277.852C56.1451 278.188 55.8231 278.491 55.4031 278.762C54.9831 279.033 54.4557 279.168 53.8211 279.168ZM53.9471 278.146C54.4137 278.146 54.8244 278.039 55.1791 277.824C55.5431 277.6 55.8231 277.292 56.0191 276.9C56.2244 276.508 56.3271 276.051 56.3271 275.528C56.3271 275.005 56.2244 274.548 56.0191 274.156C55.8231 273.764 55.5431 273.461 55.1791 273.246C54.8244 273.022 54.4137 272.91 53.9471 272.91C53.4897 272.91 53.0791 273.022 52.7151 273.246C52.3604 273.461 52.0804 273.764 51.8751 274.156C51.6791 274.548 51.5811 275.005 51.5811 275.528C51.5811 276.051 51.6791 276.508 51.8751 276.9C52.0804 277.292 52.3604 277.6 52.7151 277.824C53.0791 278.039 53.4897 278.146 53.9471 278.146ZM59.4621 279V272.056H60.5261L60.6241 273.386C60.8388 272.929 61.1654 272.565 61.6041 272.294C62.0428 272.023 62.5841 271.888 63.2281 271.888V273.12H62.9061C62.4954 273.12 62.1174 273.195 61.7721 273.344C61.4268 273.484 61.1514 273.727 60.9461 274.072C60.7408 274.417 60.6381 274.893 60.6381 275.5V279H59.4621ZM67.4103 279.168C66.7476 279.168 66.1596 279.019 65.6463 278.72C65.1329 278.412 64.7269 277.987 64.4283 277.446C64.1389 276.905 63.9943 276.265 63.9943 275.528C63.9943 274.8 64.1389 274.165 64.4283 273.624C64.7176 273.073 65.1189 272.649 65.6323 272.35C66.1549 272.042 66.7569 271.888 67.4383 271.888C68.1103 271.888 68.6889 272.042 69.1743 272.35C69.6689 272.649 70.0469 273.045 70.3083 273.54C70.5696 274.035 70.7003 274.567 70.7003 275.136C70.7003 275.239 70.6956 275.341 70.6863 275.444C70.6863 275.547 70.6863 275.663 70.6863 275.794H65.1563C65.1843 276.326 65.3056 276.769 65.5203 277.124C65.7443 277.469 66.0196 277.731 66.3463 277.908C66.6823 278.085 67.0369 278.174 67.4103 278.174C67.8956 278.174 68.3016 278.062 68.6283 277.838C68.9549 277.614 69.1929 277.311 69.3423 276.928H70.5043C70.3176 277.572 69.9583 278.109 69.4263 278.538C68.9036 278.958 68.2316 279.168 67.4103 279.168ZM67.4103 272.882C66.8503 272.882 66.3509 273.055 65.9123 273.4C65.4829 273.736 65.2356 274.231 65.1703 274.884H69.5383C69.5103 274.259 69.2956 273.769 68.8943 273.414C68.4929 273.059 67.9983 272.882 67.4103 272.882ZM74.919 279.168C74.0883 279.168 73.3976 278.958 72.847 278.538C72.2963 278.118 71.9743 277.549 71.881 276.83H73.085C73.1596 277.194 73.351 277.511 73.659 277.782C73.9763 278.043 74.401 278.174 74.933 278.174C75.4276 278.174 75.7916 278.071 76.025 277.866C76.2583 277.651 76.375 277.399 76.375 277.11C76.375 276.69 76.221 276.41 75.913 276.27C75.6143 276.13 75.1896 276.004 74.639 275.892C74.2656 275.817 73.8923 275.71 73.519 275.57C73.1456 275.43 72.833 275.234 72.581 274.982C72.329 274.721 72.203 274.38 72.203 273.96C72.203 273.353 72.427 272.859 72.875 272.476C73.3323 272.084 73.9483 271.888 74.723 271.888C75.4603 271.888 76.0623 272.075 76.529 272.448C77.005 272.812 77.2803 273.335 77.355 274.016H76.193C76.1463 273.661 75.9923 273.386 75.731 273.19C75.479 272.985 75.1383 272.882 74.709 272.882C74.289 272.882 73.9623 272.971 73.729 273.148C73.505 273.325 73.393 273.559 73.393 273.848C73.393 274.128 73.5376 274.347 73.827 274.506C74.1256 274.665 74.527 274.8 75.031 274.912C75.4603 275.005 75.8663 275.122 76.249 275.262C76.641 275.393 76.9583 275.593 77.201 275.864C77.453 276.125 77.579 276.508 77.579 277.012C77.5883 277.637 77.3503 278.155 76.865 278.566C76.389 278.967 75.7403 279.168 74.919 279.168ZM81.919 279.168C81.0883 279.168 80.3976 278.958 79.847 278.538C79.2963 278.118 78.9743 277.549 78.881 276.83H80.085C80.1596 277.194 80.351 277.511 80.659 277.782C80.9763 278.043 81.401 278.174 81.933 278.174C82.4276 278.174 82.7916 278.071 83.025 277.866C83.2583 277.651 83.375 277.399 83.375 277.11C83.375 276.69 83.221 276.41 82.913 276.27C82.6143 276.13 82.1896 276.004 81.639 275.892C81.2656 275.817 80.8923 275.71 80.519 275.57C80.1456 275.43 79.833 275.234 79.581 274.982C79.329 274.721 79.203 274.38 79.203 273.96C79.203 273.353 79.427 272.859 79.875 272.476C80.3323 272.084 80.9483 271.888 81.723 271.888C82.4603 271.888 83.0623 272.075 83.529 272.448C84.005 272.812 84.2803 273.335 84.355 274.016H83.193C83.1463 273.661 82.9923 273.386 82.731 273.19C82.479 272.985 82.1383 272.882 81.709 272.882C81.289 272.882 80.9623 272.971 80.729 273.148C80.505 273.325 80.393 273.559 80.393 273.848C80.393 274.128 80.5376 274.347 80.827 274.506C81.1256 274.665 81.527 274.8 82.031 274.912C82.4603 275.005 82.8663 275.122 83.249 275.262C83.641 275.393 83.9583 275.593 84.201 275.864C84.453 276.125 84.579 276.508 84.579 277.012C84.5883 277.637 84.3503 278.155 83.865 278.566C83.389 278.967 82.7403 279.168 81.919 279.168Z" fill="black"/>
</g>
<path fill-rule="evenodd" clip-rule="evenodd" d="M122 266C117.582 266 114 269.582 114 274C114 278.418 117.582 282 122 282C126.418 282 130 278.418 130 274C130 269.582 126.418 266 122 266ZM115.5 274C115.5 270.41 118.41 267.5 122 267.5C125.59 267.5 128.5 270.41 128.5 274C128.5 277.59 125.59 280.5 122 280.5C118.41 280.5 115.5 277.59 115.5 274ZM124.901 272.123C125.107 271.764 124.983 271.306 124.623 271.099C124.264 270.893 123.806 271.017 123.599 271.377L121.306 275.374C121.205 275.549 120.949 275.539 120.863 275.356L120.429 274.431C120.253 274.056 119.806 273.895 119.431 274.071C119.056 274.247 118.895 274.694 119.071 275.069L119.505 275.993C120.106 277.275 121.902 277.349 122.607 276.121L124.901 272.123Z" fill="#0A6A4A"/>
<g filter="url(#filter5_d_3994_54901)">
<rect x="4" y="324" width="192" height="28" rx="14" fill="white"/>
<rect x="4.5" y="324.5" width="191" height="27" rx="13.5" stroke="#E2E2E2"/>
<path fill-rule="evenodd" clip-rule="evenodd" d="M14.9 333.083C14.9 332.463 15.4027 331.96 16.0228 331.96H20.8912V335.424C20.8912 335.838 21.227 336.174 21.6412 336.174H25.105V342.915C25.105 343.535 24.6023 344.038 23.9822 344.038H16.0228C15.4027 344.038 14.9 343.535 14.9 342.915V333.083ZM24.2784 334.674L22.3912 332.787V334.674H24.2784ZM16.0228 330.46C14.5743 330.46 13.4 331.634 13.4 333.083V342.915C13.4 344.363 14.5743 345.538 16.0228 345.538H23.9822C25.4307 345.538 26.605 344.363 26.605 342.915V335.19C26.605 334.991 26.526 334.8 26.3853 334.659L22.4056 330.68C22.265 330.539 22.0742 330.46 21.8753 330.46H16.0228ZM17.1456 341.042C17.1456 340.628 17.4814 340.292 17.8956 340.292H22.1094C22.5236 340.292 22.8594 340.628 22.8594 341.042C22.8594 341.456 22.5236 341.792 22.1094 341.792H17.8956C17.4814 341.792 17.1456 341.456 17.1456 341.042ZM17.8956 337.483C17.4814 337.483 17.1456 337.819 17.1456 338.233C17.1456 338.647 17.4814 338.983 17.8956 338.983H22.1094C22.5236 338.983 22.8594 338.647 22.8594 338.233C22.8594 337.819 22.5236 337.483 22.1094 337.483H17.8956Z" fill="black"/>
<path d="M36.158 343.168C35.4393 343.168 34.814 343.037 34.282 342.776C33.75 342.515 33.3393 342.151 33.05 341.684C32.7607 341.217 32.616 340.676 32.616 340.06H33.848C33.848 340.443 33.9367 340.797 34.114 341.124C34.2913 341.441 34.548 341.698 34.884 341.894C35.2293 342.081 35.654 342.174 36.158 342.174C36.8207 342.174 37.334 342.015 37.698 341.698C38.062 341.381 38.244 340.984 38.244 340.508C38.244 340.116 38.16 339.803 37.992 339.57C37.824 339.327 37.5953 339.131 37.306 338.982C37.026 338.833 36.6993 338.702 36.326 338.59C35.962 338.478 35.5793 338.352 35.178 338.212C34.422 337.951 33.862 337.629 33.498 337.246C33.134 336.854 32.952 336.345 32.952 335.72C32.9427 335.197 33.064 334.735 33.316 334.334C33.568 333.923 33.9227 333.606 34.38 333.382C34.8467 333.149 35.3973 333.032 36.032 333.032C36.6573 333.032 37.1987 333.149 37.656 333.382C38.1227 333.615 38.482 333.937 38.734 334.348C38.9953 334.759 39.1307 335.225 39.14 335.748H37.908C37.908 335.477 37.838 335.211 37.698 334.95C37.558 334.679 37.3433 334.46 37.054 334.292C36.774 334.124 36.4193 334.04 35.99 334.04C35.458 334.031 35.0193 334.166 34.674 334.446C34.338 334.726 34.17 335.113 34.17 335.608C34.17 336.028 34.2867 336.35 34.52 336.574C34.7627 336.798 35.0987 336.985 35.528 337.134C35.9573 337.274 36.452 337.437 37.012 337.624C37.4787 337.792 37.8987 337.988 38.272 338.212C38.6453 338.436 38.9347 338.725 39.14 339.08C39.3547 339.435 39.462 339.887 39.462 340.438C39.462 340.905 39.3407 341.348 39.098 341.768C38.8553 342.179 38.4867 342.515 37.992 342.776C37.5067 343.037 36.8953 343.168 36.158 343.168ZM44.2238 343.168C43.5704 343.168 42.9824 343.019 42.4598 342.72C41.9371 342.421 41.5218 342.001 41.2138 341.46C40.9151 340.909 40.7658 340.265 40.7658 339.528C40.7658 338.791 40.9198 338.151 41.2278 337.61C41.5358 337.059 41.9511 336.635 42.4738 336.336C43.0058 336.037 43.5984 335.888 44.2518 335.888C44.9051 335.888 45.4931 336.037 46.0158 336.336C46.5384 336.635 46.9491 337.059 47.2478 337.61C47.5558 338.151 47.7098 338.791 47.7098 339.528C47.7098 340.265 47.5558 340.909 47.2478 341.46C46.9398 342.001 46.5198 342.421 45.9878 342.72C45.4651 343.019 44.8771 343.168 44.2238 343.168ZM44.2238 342.16C44.6251 342.16 44.9984 342.062 45.3438 341.866C45.6891 341.67 45.9691 341.376 46.1838 340.984C46.3984 340.592 46.5058 340.107 46.5058 339.528C46.5058 338.949 46.3984 338.464 46.1838 338.072C45.9784 337.68 45.7031 337.386 45.3578 337.19C45.0124 336.994 44.6438 336.896 44.2518 336.896C43.8504 336.896 43.4771 336.994 43.1318 337.19C42.7864 337.386 42.5064 337.68 42.2918 338.072C42.0771 338.464 41.9698 338.949 41.9698 339.528C41.9698 340.107 42.0771 340.592 42.2918 340.984C42.5064 341.376 42.7818 341.67 43.1178 341.866C43.4631 342.062 43.8318 342.16 44.2238 342.16ZM52.5369 343.168C51.8742 343.168 51.2769 343.019 50.7449 342.72C50.2222 342.412 49.8069 341.987 49.4989 341.446C49.2002 340.895 49.0509 340.256 49.0509 339.528C49.0509 338.8 49.2002 338.165 49.4989 337.624C49.8069 337.073 50.2222 336.649 50.7449 336.35C51.2769 336.042 51.8742 335.888 52.5369 335.888C53.3582 335.888 54.0489 336.103 54.6089 336.532C55.1782 336.961 55.5376 337.535 55.6869 338.254H54.4829C54.3896 337.825 54.1609 337.493 53.7969 337.26C53.4329 337.017 53.0082 336.896 52.5229 336.896C52.1309 336.896 51.7622 336.994 51.4169 337.19C51.0716 337.386 50.7916 337.68 50.5769 338.072C50.3622 338.464 50.2549 338.949 50.2549 339.528C50.2549 340.107 50.3622 340.592 50.5769 340.984C50.7916 341.376 51.0716 341.675 51.4169 341.88C51.7622 342.076 52.1309 342.174 52.5229 342.174C53.0082 342.174 53.4329 342.057 53.7969 341.824C54.1609 341.581 54.3896 341.241 54.4829 340.802H55.6869C55.5469 341.502 55.1922 342.071 54.6229 342.51C54.0536 342.949 53.3582 343.168 52.5369 343.168ZM58.0433 334.516C57.8099 334.516 57.6139 334.441 57.4553 334.292C57.3059 334.133 57.2313 333.937 57.2313 333.704C57.2313 333.48 57.3059 333.293 57.4553 333.144C57.6139 332.995 57.8099 332.92 58.0433 332.92C58.2673 332.92 58.4586 332.995 58.6173 333.144C58.7759 333.293 58.8553 333.48 58.8553 333.704C58.8553 333.937 58.7759 334.133 58.6173 334.292C58.4586 334.441 58.2673 334.516 58.0433 334.516ZM57.4553 343V336.056H58.6313V343H57.4553ZM62.9889 343.168C62.4102 343.168 61.9296 343.07 61.5469 342.874C61.1642 342.678 60.8796 342.417 60.6929 342.09C60.5062 341.763 60.4129 341.409 60.4129 341.026C60.4129 340.317 60.6836 339.771 61.2249 339.388C61.7662 339.005 62.5036 338.814 63.4369 338.814H65.3129V338.73C65.3129 338.123 65.1542 337.666 64.8369 337.358C64.5196 337.041 64.0949 336.882 63.5629 336.882C63.1056 336.882 62.7089 336.999 62.3729 337.232C62.0462 337.456 61.8409 337.787 61.7569 338.226H60.5529C60.5996 337.722 60.7676 337.297 61.0569 336.952C61.3556 336.607 61.7242 336.345 62.1629 336.168C62.6016 335.981 63.0682 335.888 63.5629 335.888C64.5336 335.888 65.2616 336.149 65.7469 336.672C66.2416 337.185 66.4889 337.871 66.4889 338.73V343H65.4389L65.3689 341.754C65.1729 342.146 64.8836 342.482 64.5009 342.762C64.1276 343.033 63.6236 343.168 62.9889 343.168ZM63.1709 342.174C63.6189 342.174 64.0016 342.057 64.3189 341.824C64.6456 341.591 64.8929 341.287 65.0609 340.914C65.2289 340.541 65.3129 340.149 65.3129 339.738V339.724H63.5349C62.8442 339.724 62.3542 339.845 62.0649 340.088C61.7849 340.321 61.6449 340.615 61.6449 340.97C61.6449 341.334 61.7756 341.628 62.0369 341.852C62.3076 342.067 62.6856 342.174 63.1709 342.174ZM68.2531 343V332.92H69.4291V343H68.2531ZM78.2537 343.168C77.535 343.168 76.9097 343.037 76.3777 342.776C75.8457 342.515 75.435 342.151 75.1457 341.684C74.8564 341.217 74.7117 340.676 74.7117 340.06H75.9437C75.9437 340.443 76.0324 340.797 76.2097 341.124C76.387 341.441 76.6437 341.698 76.9797 341.894C77.325 342.081 77.7497 342.174 78.2537 342.174C78.9164 342.174 79.4297 342.015 79.7937 341.698C80.1577 341.381 80.3397 340.984 80.3397 340.508C80.3397 340.116 80.2557 339.803 80.0877 339.57C79.9197 339.327 79.691 339.131 79.4017 338.982C79.1217 338.833 78.795 338.702 78.4217 338.59C78.0577 338.478 77.675 338.352 77.2737 338.212C76.5177 337.951 75.9577 337.629 75.5937 337.246C75.2297 336.854 75.0477 336.345 75.0477 335.72C75.0384 335.197 75.1597 334.735 75.4117 334.334C75.6637 333.923 76.0184 333.606 76.4757 333.382C76.9424 333.149 77.493 333.032 78.1277 333.032C78.753 333.032 79.2944 333.149 79.7517 333.382C80.2184 333.615 80.5777 333.937 80.8297 334.348C81.091 334.759 81.2264 335.225 81.2357 335.748H80.0037C80.0037 335.477 79.9337 335.211 79.7937 334.95C79.6537 334.679 79.439 334.46 79.1497 334.292C78.8697 334.124 78.515 334.04 78.0857 334.04C77.5537 334.031 77.115 334.166 76.7697 334.446C76.4337 334.726 76.2657 335.113 76.2657 335.608C76.2657 336.028 76.3824 336.35 76.6157 336.574C76.8584 336.798 77.1944 336.985 77.6237 337.134C78.053 337.274 78.5477 337.437 79.1077 337.624C79.5744 337.792 79.9944 337.988 80.3677 338.212C80.741 338.436 81.0304 338.725 81.2357 339.08C81.4504 339.435 81.5577 339.887 81.5577 340.438C81.5577 340.905 81.4364 341.348 81.1937 341.768C80.951 342.179 80.5824 342.515 80.0877 342.776C79.6024 343.037 78.991 343.168 78.2537 343.168ZM86.2775 343.168C85.6148 343.168 85.0268 343.019 84.5135 342.72C84.0001 342.412 83.5941 341.987 83.2955 341.446C83.0061 340.905 82.8615 340.265 82.8615 339.528C82.8615 338.8 83.0061 338.165 83.2955 337.624C83.5848 337.073 83.9861 336.649 84.4995 336.35C85.0221 336.042 85.6241 335.888 86.3055 335.888C86.9775 335.888 87.5561 336.042 88.0415 336.35C88.5361 336.649 88.9141 337.045 89.1755 337.54C89.4368 338.035 89.5675 338.567 89.5675 339.136C89.5675 339.239 89.5628 339.341 89.5535 339.444C89.5535 339.547 89.5535 339.663 89.5535 339.794H84.0235C84.0515 340.326 84.1728 340.769 84.3875 341.124C84.6115 341.469 84.8868 341.731 85.2135 341.908C85.5495 342.085 85.9041 342.174 86.2775 342.174C86.7628 342.174 87.1688 342.062 87.4955 341.838C87.8221 341.614 88.0601 341.311 88.2095 340.928H89.3715C89.1848 341.572 88.8255 342.109 88.2935 342.538C87.7708 342.958 87.0988 343.168 86.2775 343.168ZM86.2775 336.882C85.7175 336.882 85.2181 337.055 84.7795 337.4C84.3501 337.736 84.1028 338.231 84.0375 338.884H88.4055C88.3775 338.259 88.1628 337.769 87.7615 337.414C87.3601 337.059 86.8655 336.882 86.2775 336.882ZM94.3182 343.168C93.6555 343.168 93.0582 343.019 92.5262 342.72C92.0035 342.412 91.5882 341.987 91.2802 341.446C90.9815 340.895 90.8322 340.256 90.8322 339.528C90.8322 338.8 90.9815 338.165 91.2802 337.624C91.5882 337.073 92.0035 336.649 92.5262 336.35C93.0582 336.042 93.6555 335.888 94.3182 335.888C95.1395 335.888 95.8302 336.103 96.3902 336.532C96.9595 336.961 97.3188 337.535 97.4682 338.254H96.2642C96.1708 337.825 95.9422 337.493 95.5782 337.26C95.2142 337.017 94.7895 336.896 94.3042 336.896C93.9122 336.896 93.5435 336.994 93.1982 337.19C92.8528 337.386 92.5728 337.68 92.3582 338.072C92.1435 338.464 92.0362 338.949 92.0362 339.528C92.0362 340.107 92.1435 340.592 92.3582 340.984C92.5728 341.376 92.8528 341.675 93.1982 341.88C93.5435 342.076 93.9122 342.174 94.3042 342.174C94.7895 342.174 95.2142 342.057 95.5782 341.824C95.9422 341.581 96.1708 341.241 96.2642 340.802H97.4682C97.3282 341.502 96.9735 342.071 96.4042 342.51C95.8348 342.949 95.1395 343.168 94.3182 343.168ZM101.645 343.168C100.823 343.168 100.17 342.921 99.6845 342.426C99.1992 341.922 98.9565 341.152 98.9565 340.116V336.056H100.133V339.99C100.133 341.437 100.725 342.16 101.911 342.16C102.517 342.16 103.017 341.945 103.409 341.516C103.81 341.077 104.011 340.457 104.011 339.654V336.056H105.187V343H104.123L104.039 341.754C103.824 342.193 103.502 342.538 103.073 342.79C102.653 343.042 102.177 343.168 101.645 343.168ZM107.122 343V336.056H108.186L108.284 337.386C108.499 336.929 108.826 336.565 109.264 336.294C109.703 336.023 110.244 335.888 110.888 335.888V337.12H110.566C110.156 337.12 109.778 337.195 109.432 337.344C109.087 337.484 108.812 337.727 108.606 338.072C108.401 338.417 108.298 338.893 108.298 339.5V343H107.122ZM112.922 334.516C112.689 334.516 112.493 334.441 112.334 334.292C112.185 334.133 112.11 333.937 112.11 333.704C112.11 333.48 112.185 333.293 112.334 333.144C112.493 332.995 112.689 332.92 112.922 332.92C113.146 332.92 113.338 332.995 113.496 333.144C113.655 333.293 113.734 333.48 113.734 333.704C113.734 333.937 113.655 334.133 113.496 334.292C113.338 334.441 113.146 334.516 112.922 334.516ZM112.334 343V336.056H113.51V343H112.334ZM118.302 343C117.667 343 117.168 342.846 116.804 342.538C116.44 342.23 116.258 341.675 116.258 340.872V337.05H115.054V336.056H116.258L116.412 334.39H117.434V336.056H119.478V337.05H117.434V340.872C117.434 341.311 117.522 341.609 117.7 341.768C117.877 341.917 118.19 341.992 118.638 341.992H119.366V343H118.302ZM121.728 346.08L123.45 342.328H123.044L120.286 336.056H121.56L123.856 341.46L126.292 336.056H127.51L122.96 346.08H121.728ZM132.526 343V333.2H133.702L138.924 341.054V333.2H140.1V343H138.924L133.702 335.146V343H132.526ZM144.643 343.168C143.821 343.168 143.168 342.921 142.683 342.426C142.197 341.922 141.955 341.152 141.955 340.116V336.056H143.131V339.99C143.131 341.437 143.723 342.16 144.909 342.16C145.515 342.16 146.015 341.945 146.407 341.516C146.808 341.077 147.009 340.457 147.009 339.654V336.056H148.185V343H147.121L147.037 341.754C146.822 342.193 146.5 342.538 146.071 342.79C145.651 343.042 145.175 343.168 144.643 343.168ZM150.12 343V336.056H151.184L151.268 337.064C151.492 336.691 151.791 336.401 152.164 336.196C152.538 335.991 152.958 335.888 153.424 335.888C153.975 335.888 154.446 336 154.838 336.224C155.24 336.448 155.548 336.789 155.762 337.246C156.005 336.826 156.336 336.495 156.756 336.252C157.186 336.009 157.648 335.888 158.142 335.888C158.973 335.888 159.636 336.14 160.13 336.644C160.625 337.139 160.872 337.904 160.872 338.94V343H159.71V339.066C159.71 338.347 159.566 337.806 159.276 337.442C158.987 337.078 158.572 336.896 158.03 336.896C157.47 336.896 157.004 337.115 156.63 337.554C156.266 337.983 156.084 338.599 156.084 339.402V343H154.908V339.066C154.908 338.347 154.764 337.806 154.474 337.442C154.185 337.078 153.77 336.896 153.228 336.896C152.678 336.896 152.216 337.115 151.842 337.554C151.478 337.983 151.296 338.599 151.296 339.402V343H150.12ZM166.354 343.168C165.784 343.168 165.276 343.051 164.828 342.818C164.389 342.585 164.053 342.258 163.82 341.838L163.708 343H162.644V332.92H163.82V337.204C164.044 336.868 164.361 336.565 164.772 336.294C165.192 336.023 165.724 335.888 166.368 335.888C167.058 335.888 167.66 336.047 168.174 336.364C168.687 336.681 169.084 337.115 169.364 337.666C169.653 338.217 169.798 338.842 169.798 339.542C169.798 340.242 169.653 340.867 169.364 341.418C169.084 341.959 168.682 342.389 168.16 342.706C167.646 343.014 167.044 343.168 166.354 343.168ZM166.228 342.146C166.694 342.146 167.105 342.039 167.46 341.824C167.814 341.6 168.094 341.292 168.3 340.9C168.505 340.508 168.608 340.051 168.608 339.528C168.608 339.005 168.505 338.548 168.3 338.156C168.094 337.764 167.814 337.461 167.46 337.246C167.105 337.022 166.694 336.91 166.228 336.91C165.761 336.91 165.35 337.022 164.996 337.246C164.641 337.461 164.361 337.764 164.156 338.156C163.95 338.548 163.848 339.005 163.848 339.528C163.848 340.051 163.95 340.508 164.156 340.9C164.361 341.292 164.641 341.6 164.996 341.824C165.35 342.039 165.761 342.146 166.228 342.146ZM174.557 343.168C173.894 343.168 173.306 343.019 172.793 342.72C172.279 342.412 171.873 341.987 171.575 341.446C171.285 340.905 171.141 340.265 171.141 339.528C171.141 338.8 171.285 338.165 171.575 337.624C171.864 337.073 172.265 336.649 172.779 336.35C173.301 336.042 173.903 335.888 174.585 335.888C175.257 335.888 175.835 336.042 176.321 336.35C176.815 336.649 177.193 337.045 177.455 337.54C177.716 338.035 177.847 338.567 177.847 339.136C177.847 339.239 177.842 339.341 177.833 339.444C177.833 339.547 177.833 339.663 177.833 339.794H172.303C172.331 340.326 172.452 340.769 172.667 341.124C172.891 341.469 173.166 341.731 173.493 341.908C173.829 342.085 174.183 342.174 174.557 342.174C175.042 342.174 175.448 342.062 175.775 341.838C176.101 341.614 176.339 341.311 176.489 340.928H177.651C177.464 341.572 177.105 342.109 176.573 342.538C176.05 342.958 175.378 343.168 174.557 343.168ZM174.557 336.882C173.997 336.882 173.497 337.055 173.059 337.4C172.629 337.736 172.382 338.231 172.317 338.884H176.685C176.657 338.259 176.442 337.769 176.041 337.414C175.639 337.059 175.145 336.882 174.557 336.882ZM179.405 343V336.056H180.469L180.567 337.386C180.782 336.929 181.109 336.565 181.547 336.294C181.986 336.023 182.527 335.888 183.171 335.888V337.12H182.849C182.439 337.12 182.061 337.195 181.715 337.344C181.37 337.484 181.095 337.727 180.889 338.072C180.684 338.417 180.581 338.893 180.581 339.5V343H179.405Z" fill="black"/>
</g>
<path fill-rule="evenodd" clip-rule="evenodd" d="M220 330C215.582 330 212 333.582 212 338C212 342.418 215.582 346 220 346C224.418 346 228 342.418 228 338C228 333.582 224.418 330 220 330ZM213.5 338C213.5 334.41 216.41 331.5 220 331.5C223.59 331.5 226.5 334.41 226.5 338C226.5 341.59 223.59 344.5 220 344.5C216.41 344.5 213.5 341.59 213.5 338ZM222.901 336.123C223.107 335.764 222.983 335.306 222.623 335.099C222.264 334.893 221.806 335.017 221.599 335.377L219.306 339.374C219.205 339.549 218.949 339.539 218.863 339.356L218.429 338.431C218.253 338.056 217.806 337.895 217.431 338.071C217.056 338.247 216.895 338.694 217.071 339.069L217.505 339.993C218.106 341.275 219.902 341.349 220.607 340.121L222.901 336.123Z" fill="#0A6A4A"/>
<g filter="url(#filter6_d_3994_54901)">
<rect x="4" y="388" width="76" height="28" rx="14" fill="white"/>
<rect x="4.5" y="388.5" width="75" height="27" rx="13.5" stroke="#E2E2E2"/>
<ellipse cx="18.4353" cy="400.142" rx="0.782364" ry="0.782371" fill="black"/>
<ellipse cx="21.5647" cy="400.142" rx="0.782364" ry="0.782371" fill="black"/>
<path d="M17.6529 403.467C17.6529 403.467 18.2397 404.641 20 404.641C21.7603 404.641 22.3471 403.467 22.3471 403.467" stroke="black" stroke-width="1.09531" stroke-linecap="round"/>
<rect x="14.9146" y="395.741" width="10.1707" height="12.5178" rx="2.34709" stroke="black" stroke-width="1.4"/>
<path d="M36.158 407.168C35.4393 407.168 34.814 407.037 34.282 406.776C33.75 406.515 33.3393 406.151 33.05 405.684C32.7607 405.217 32.616 404.676 32.616 404.06H33.848C33.848 404.443 33.9367 404.797 34.114 405.124C34.2913 405.441 34.548 405.698 34.884 405.894C35.2293 406.081 35.654 406.174 36.158 406.174C36.8207 406.174 37.334 406.015 37.698 405.698C38.062 405.381 38.244 404.984 38.244 404.508C38.244 404.116 38.16 403.803 37.992 403.57C37.824 403.327 37.5953 403.131 37.306 402.982C37.026 402.833 36.6993 402.702 36.326 402.59C35.962 402.478 35.5793 402.352 35.178 402.212C34.422 401.951 33.862 401.629 33.498 401.246C33.134 400.854 32.952 400.345 32.952 399.72C32.9427 399.197 33.064 398.735 33.316 398.334C33.568 397.923 33.9227 397.606 34.38 397.382C34.8467 397.149 35.3973 397.032 36.032 397.032C36.6573 397.032 37.1987 397.149 37.656 397.382C38.1227 397.615 38.482 397.937 38.734 398.348C38.9953 398.759 39.1307 399.225 39.14 399.748H37.908C37.908 399.477 37.838 399.211 37.698 398.95C37.558 398.679 37.3433 398.46 37.054 398.292C36.774 398.124 36.4193 398.04 35.99 398.04C35.458 398.031 35.0193 398.166 34.674 398.446C34.338 398.726 34.17 399.113 34.17 399.608C34.17 400.028 34.2867 400.35 34.52 400.574C34.7627 400.798 35.0987 400.985 35.528 401.134C35.9573 401.274 36.452 401.437 37.012 401.624C37.4787 401.792 37.8987 401.988 38.272 402.212C38.6453 402.436 38.9347 402.725 39.14 403.08C39.3547 403.435 39.462 403.887 39.462 404.438C39.462 404.905 39.3407 405.348 39.098 405.768C38.8553 406.179 38.4867 406.515 37.992 406.776C37.5067 407.037 36.8953 407.168 36.158 407.168ZM44.1818 407.168C43.5191 407.168 42.9311 407.019 42.4178 406.72C41.9044 406.412 41.4984 405.987 41.1998 405.446C40.9104 404.905 40.7658 404.265 40.7658 403.528C40.7658 402.8 40.9104 402.165 41.1998 401.624C41.4891 401.073 41.8904 400.649 42.4038 400.35C42.9264 400.042 43.5284 399.888 44.2097 399.888C44.8818 399.888 45.4604 400.042 45.9458 400.35C46.4404 400.649 46.8184 401.045 47.0798 401.54C47.3411 402.035 47.4718 402.567 47.4718 403.136C47.4718 403.239 47.4671 403.341 47.4578 403.444C47.4578 403.547 47.4578 403.663 47.4578 403.794H41.9278C41.9558 404.326 42.0771 404.769 42.2918 405.124C42.5158 405.469 42.7911 405.731 43.1178 405.908C43.4538 406.085 43.8084 406.174 44.1818 406.174C44.6671 406.174 45.0731 406.062 45.3998 405.838C45.7264 405.614 45.9644 405.311 46.1138 404.928H47.2758C47.0891 405.572 46.7298 406.109 46.1978 406.538C45.6751 406.958 45.0031 407.168 44.1818 407.168ZM44.1818 400.882C43.6218 400.882 43.1224 401.055 42.6838 401.4C42.2544 401.736 42.0071 402.231 41.9417 402.884H46.3098C46.2818 402.259 46.0671 401.769 45.6658 401.414C45.2644 401.059 44.7698 400.882 44.1818 400.882ZM49.0305 407V396.92H50.2065V407H49.0305ZM52.512 407V401.05H51.462V400.056H52.512V398.852C52.512 398.18 52.68 397.69 53.016 397.382C53.352 397.074 53.842 396.92 54.486 396.92H55.186V397.928H54.668C54.3133 397.928 54.0613 398.003 53.912 398.152C53.7626 398.292 53.688 398.535 53.688 398.88V400.056H55.396V401.05H53.688V407H52.512ZM57.5101 398.516C57.2767 398.516 57.0807 398.441 56.9221 398.292C56.7727 398.133 56.6981 397.937 56.6981 397.704C56.6981 397.48 56.7727 397.293 56.9221 397.144C57.0807 396.995 57.2767 396.92 57.5101 396.92C57.7341 396.92 57.9254 396.995 58.0841 397.144C58.2427 397.293 58.3221 397.48 58.3221 397.704C58.3221 397.937 58.2427 398.133 58.0841 398.292C57.9254 398.441 57.7341 398.516 57.5101 398.516ZM56.9221 407V400.056H58.0981V407H56.9221ZM63.2677 407.168C62.605 407.168 62.017 407.019 61.5037 406.72C60.9904 406.412 60.5844 405.987 60.2857 405.446C59.9964 404.905 59.8517 404.265 59.8517 403.528C59.8517 402.8 59.9964 402.165 60.2857 401.624C60.575 401.073 60.9764 400.649 61.4897 400.35C62.0124 400.042 62.6144 399.888 63.2957 399.888C63.9677 399.888 64.5464 400.042 65.0317 400.35C65.5264 400.649 65.9044 401.045 66.1657 401.54C66.427 402.035 66.5577 402.567 66.5577 403.136C66.5577 403.239 66.553 403.341 66.5437 403.444C66.5437 403.547 66.5437 403.663 66.5437 403.794H61.0137C61.0417 404.326 61.163 404.769 61.3777 405.124C61.6017 405.469 61.877 405.731 62.2037 405.908C62.5397 406.085 62.8944 406.174 63.2677 406.174C63.753 406.174 64.159 406.062 64.4857 405.838C64.8124 405.614 65.0504 405.311 65.1997 404.928H66.3617C66.175 405.572 65.8157 406.109 65.2837 406.538C64.761 406.958 64.089 407.168 63.2677 407.168ZM63.2677 400.882C62.7077 400.882 62.2084 401.055 61.7697 401.4C61.3404 401.736 61.093 402.231 61.0277 402.884H65.3957C65.3677 402.259 65.153 401.769 64.7517 401.414C64.3504 401.059 63.8557 400.882 63.2677 400.882Z" fill="black"/>
</g>
<path fill-rule="evenodd" clip-rule="evenodd" d="M104 394C99.5817 394 96 397.582 96 402C96 406.418 99.5817 410 104 410C108.418 410 112 406.418 112 402C112 397.582 108.418 394 104 394ZM97.5 402C97.5 398.41 100.41 395.5 104 395.5C107.59 395.5 110.5 398.41 110.5 402C110.5 405.59 107.59 408.5 104 408.5C100.41 408.5 97.5 405.59 97.5 402ZM106.901 400.123C107.107 399.764 106.983 399.306 106.623 399.099C106.264 398.893 105.806 399.017 105.599 399.377L103.306 403.374C103.205 403.549 102.949 403.539 102.863 403.356L102.429 402.431C102.253 402.056 101.806 401.895 101.431 402.071C101.056 402.247 100.895 402.694 101.071 403.069L101.505 403.993C102.106 405.275 103.902 405.349 104.607 404.121L106.901 400.123Z" fill="#0A6A4A"/>
<g filter="url(#filter7_d_3994_54901)">
<rect x="4" y="452" width="137" height="28" rx="14" fill="white"/>
<rect x="4.5" y="452.5" width="136" height="27" rx="13.5" stroke="#E2E2E2"/>
<path fill-rule="evenodd" clip-rule="evenodd" d="M15.974 461.314C16.0524 460.844 16.4589 460.5 16.9352 460.5H23.0669C23.5433 460.5 23.9498 460.844 24.0281 461.314L24.5046 464.173H15.4975L15.974 461.314ZM16.9352 459C15.7256 459 14.6933 459.874 14.4945 461.068L13.8798 464.755C13.3418 465.209 13 465.889 13 466.648V469.665C13 470.556 13.7218 471.278 14.6122 471.278H14.7244V472.252C14.7244 472.666 15.0602 473.002 15.4744 473.002C15.8886 473.002 16.2244 472.666 16.2244 472.252V471.278H23.7775V472.252C23.7775 472.666 24.1133 473.002 24.5275 473.002C24.9417 473.002 25.2775 472.666 25.2775 472.252V471.278H25.3899C26.2803 471.278 27.0021 470.556 27.0021 469.665V466.648C27.0021 465.889 26.6604 465.209 26.1223 464.755L25.5077 461.068C25.3088 459.874 24.2765 459 23.0669 459H16.9352ZM14.5 466.648C14.5 466.109 14.9363 465.673 15.4744 465.673H24.5277C25.0659 465.673 25.5021 466.109 25.5021 466.648V469.665C25.5021 469.727 25.4519 469.778 25.3899 469.778H14.6122C14.5502 469.778 14.5 469.727 14.5 469.665V466.648ZM16.621 467.725C16.621 467.763 16.5902 467.794 16.5521 467.794C16.5141 467.794 16.4832 467.763 16.4832 467.725C16.4832 467.687 16.5141 467.656 16.5521 467.656C16.5902 467.656 16.621 467.687 16.621 467.725ZM16.5521 466.794C16.0379 466.794 15.621 467.211 15.621 467.725C15.621 468.24 16.0379 468.656 16.5521 468.656C17.0664 468.656 17.4832 468.24 17.4832 467.725C17.4832 467.211 17.0664 466.794 16.5521 466.794ZM23.4498 467.794C23.4878 467.794 23.5187 467.763 23.5187 467.725C23.5187 467.687 23.4878 467.656 23.4498 467.656C23.4117 467.656 23.3809 467.687 23.3809 467.725C23.3809 467.763 23.4117 467.794 23.4498 467.794ZM22.5187 467.725C22.5187 467.211 22.9355 466.794 23.4498 466.794C23.964 466.794 24.3809 467.211 24.3809 467.725C24.3809 468.24 23.964 468.656 23.4498 468.656C22.9355 468.656 22.5187 468.24 22.5187 467.725Z" fill="black"/>
<path d="M33.036 471V461.2H36.046C37.7727 461.2 39.042 461.639 39.854 462.516C40.6753 463.393 41.086 464.597 41.086 466.128C41.086 467.631 40.6753 468.821 39.854 469.698C39.042 470.566 37.7727 471 36.046 471H33.036ZM34.212 470.02H36.018C36.97 470.02 37.726 469.866 38.286 469.558C38.8553 469.241 39.2613 468.793 39.504 468.214C39.7467 467.626 39.868 466.931 39.868 466.128C39.868 465.307 39.7467 464.602 39.504 464.014C39.2613 463.426 38.8553 462.973 38.286 462.656C37.726 462.339 36.97 462.18 36.018 462.18H34.212V470.02ZM42.714 471V464.056H43.778L43.876 465.386C44.0907 464.929 44.4174 464.565 44.856 464.294C45.2947 464.023 45.836 463.888 46.48 463.888V465.12H46.158C45.7474 465.12 45.3694 465.195 45.024 465.344C44.6787 465.484 44.4034 465.727 44.198 466.072C43.9927 466.417 43.89 466.893 43.89 467.5V471H42.714ZM48.514 462.516C48.2807 462.516 48.0847 462.441 47.926 462.292C47.7767 462.133 47.702 461.937 47.702 461.704C47.702 461.48 47.7767 461.293 47.926 461.144C48.0847 460.995 48.2807 460.92 48.514 460.92C48.738 460.92 48.9293 460.995 49.088 461.144C49.2467 461.293 49.326 461.48 49.326 461.704C49.326 461.937 49.2467 462.133 49.088 462.292C48.9293 462.441 48.738 462.516 48.514 462.516ZM47.926 471V464.056H49.102V471H47.926ZM53.1516 471L50.5196 464.056H51.7516L53.8376 469.866L55.9376 464.056H57.1416L54.5096 471H53.1516ZM61.2169 471.168C60.5542 471.168 59.9662 471.019 59.4529 470.72C58.9396 470.412 58.5336 469.987 58.2349 469.446C57.9456 468.905 57.8009 468.265 57.8009 467.528C57.8009 466.8 57.9456 466.165 58.2349 465.624C58.5242 465.073 58.9256 464.649 59.4389 464.35C59.9616 464.042 60.5636 463.888 61.2449 463.888C61.9169 463.888 62.4956 464.042 62.9809 464.35C63.4756 464.649 63.8536 465.045 64.1149 465.54C64.3762 466.035 64.5069 466.567 64.5069 467.136C64.5069 467.239 64.5022 467.341 64.4929 467.444C64.4929 467.547 64.4929 467.663 64.4929 467.794H58.9629C58.9909 468.326 59.1122 468.769 59.3269 469.124C59.5509 469.469 59.8262 469.731 60.1529 469.908C60.4889 470.085 60.8436 470.174 61.2169 470.174C61.7022 470.174 62.1082 470.062 62.4349 469.838C62.7616 469.614 62.9996 469.311 63.1489 468.928H64.3109C64.1242 469.572 63.7649 470.109 63.2329 470.538C62.7102 470.958 62.0382 471.168 61.2169 471.168ZM61.2169 464.882C60.6569 464.882 60.1576 465.055 59.7189 465.4C59.2896 465.736 59.0422 466.231 58.9769 466.884H63.3449C63.3169 466.259 63.1022 465.769 62.7009 465.414C62.2996 465.059 61.8049 464.882 61.2169 464.882ZM66.0656 471V464.056H67.1296L67.2276 465.386C67.4423 464.929 67.7689 464.565 68.2076 464.294C68.6463 464.023 69.1876 463.888 69.8316 463.888V465.12H69.5096C69.0989 465.12 68.7209 465.195 68.3756 465.344C68.0303 465.484 67.7549 465.727 67.5496 466.072C67.3443 466.417 67.2416 466.893 67.2416 467.5V471H66.0656ZM70.8855 463.188L70.7035 460.43H71.8655L71.6975 463.188H70.8855ZM76.0127 471.168C75.1821 471.168 74.4914 470.958 73.9407 470.538C73.3901 470.118 73.0681 469.549 72.9747 468.83H74.1787C74.2534 469.194 74.4447 469.511 74.7527 469.782C75.0701 470.043 75.4947 470.174 76.0267 470.174C76.5214 470.174 76.8854 470.071 77.1187 469.866C77.3521 469.651 77.4687 469.399 77.4687 469.11C77.4687 468.69 77.3147 468.41 77.0067 468.27C76.7081 468.13 76.2834 468.004 75.7327 467.892C75.3594 467.817 74.9861 467.71 74.6127 467.57C74.2394 467.43 73.9267 467.234 73.6747 466.982C73.4227 466.721 73.2967 466.38 73.2967 465.96C73.2967 465.353 73.5207 464.859 73.9687 464.476C74.4261 464.084 75.0421 463.888 75.8167 463.888C76.5541 463.888 77.1561 464.075 77.6227 464.448C78.0987 464.812 78.3741 465.335 78.4487 466.016H77.2867C77.2401 465.661 77.0861 465.386 76.8247 465.19C76.5727 464.985 76.2321 464.882 75.8027 464.882C75.3827 464.882 75.0561 464.971 74.8227 465.148C74.5987 465.325 74.4867 465.559 74.4867 465.848C74.4867 466.128 74.6314 466.347 74.9207 466.506C75.2194 466.665 75.6207 466.8 76.1247 466.912C76.5541 467.005 76.9601 467.122 77.3427 467.262C77.7347 467.393 78.0521 467.593 78.2947 467.864C78.5467 468.125 78.6727 468.508 78.6727 469.012C78.6821 469.637 78.4441 470.155 77.9587 470.566C77.4827 470.967 76.8341 471.168 76.0127 471.168ZM84.0578 471V460.92H85.2338V471H84.0578ZM87.8753 462.516C87.642 462.516 87.446 462.441 87.2873 462.292C87.138 462.133 87.0633 461.937 87.0633 461.704C87.0633 461.48 87.138 461.293 87.2873 461.144C87.446 460.995 87.642 460.92 87.8753 460.92C88.0993 460.92 88.2906 460.995 88.4493 461.144C88.608 461.293 88.6873 461.48 88.6873 461.704C88.6873 461.937 88.608 462.133 88.4493 462.292C88.2906 462.441 88.0993 462.516 87.8753 462.516ZM87.2873 471V464.056H88.4633V471H87.2873ZM93.7029 471.168C93.0403 471.168 92.4429 471.019 91.9109 470.72C91.3883 470.412 90.9729 469.987 90.6649 469.446C90.3663 468.895 90.2169 468.256 90.2169 467.528C90.2169 466.8 90.3663 466.165 90.6649 465.624C90.9729 465.073 91.3883 464.649 91.9109 464.35C92.4429 464.042 93.0403 463.888 93.7029 463.888C94.5243 463.888 95.2149 464.103 95.7749 464.532C96.3443 464.961 96.7036 465.535 96.8529 466.254H95.6489C95.5556 465.825 95.3269 465.493 94.9629 465.26C94.5989 465.017 94.1743 464.896 93.6889 464.896C93.2969 464.896 92.9283 464.994 92.5829 465.19C92.2376 465.386 91.9576 465.68 91.7429 466.072C91.5283 466.464 91.4209 466.949 91.4209 467.528C91.4209 468.107 91.5283 468.592 91.7429 468.984C91.9576 469.376 92.2376 469.675 92.5829 469.88C92.9283 470.076 93.2969 470.174 93.6889 470.174C94.1743 470.174 94.5989 470.057 94.9629 469.824C95.3269 469.581 95.5556 469.241 95.6489 468.802H96.8529C96.7129 469.502 96.3583 470.071 95.7889 470.51C95.2196 470.949 94.5243 471.168 93.7029 471.168ZM101.617 471.168C100.955 471.168 100.367 471.019 99.8533 470.72C99.34 470.412 98.934 469.987 98.6353 469.446C98.346 468.905 98.2013 468.265 98.2013 467.528C98.2013 466.8 98.346 466.165 98.6353 465.624C98.9246 465.073 99.326 464.649 99.8393 464.35C100.362 464.042 100.964 463.888 101.645 463.888C102.317 463.888 102.896 464.042 103.381 464.35C103.876 464.649 104.254 465.045 104.515 465.54C104.777 466.035 104.907 466.567 104.907 467.136C104.907 467.239 104.903 467.341 104.893 467.444C104.893 467.547 104.893 467.663 104.893 467.794H99.3633C99.3913 468.326 99.5126 468.769 99.7273 469.124C99.9513 469.469 100.227 469.731 100.553 469.908C100.889 470.085 101.244 470.174 101.617 470.174C102.103 470.174 102.509 470.062 102.835 469.838C103.162 469.614 103.4 469.311 103.549 468.928H104.711C104.525 469.572 104.165 470.109 103.633 470.538C103.111 470.958 102.439 471.168 101.617 471.168ZM101.617 464.882C101.057 464.882 100.558 465.055 100.119 465.4C99.69 465.736 99.4426 466.231 99.3773 466.884H103.745C103.717 466.259 103.503 465.769 103.101 465.414C102.7 465.059 102.205 464.882 101.617 464.882ZM106.466 471V464.056H107.53L107.6 465.302C107.824 464.863 108.146 464.518 108.566 464.266C108.986 464.014 109.462 463.888 109.994 463.888C110.815 463.888 111.469 464.14 111.954 464.644C112.449 465.139 112.696 465.904 112.696 466.94V471H111.52V467.066C111.52 465.619 110.923 464.896 109.728 464.896C109.131 464.896 108.631 465.115 108.23 465.554C107.838 465.983 107.642 466.599 107.642 467.402V471H106.466ZM117.138 471.168C116.307 471.168 115.616 470.958 115.066 470.538C114.515 470.118 114.193 469.549 114.1 468.83H115.304C115.378 469.194 115.57 469.511 115.878 469.782C116.195 470.043 116.62 470.174 117.152 470.174C117.646 470.174 118.01 470.071 118.244 469.866C118.477 469.651 118.594 469.399 118.594 469.11C118.594 468.69 118.44 468.41 118.132 468.27C117.833 468.13 117.408 468.004 116.858 467.892C116.484 467.817 116.111 467.71 115.738 467.57C115.364 467.43 115.052 467.234 114.8 466.982C114.548 466.721 114.422 466.38 114.422 465.96C114.422 465.353 114.646 464.859 115.094 464.476C115.551 464.084 116.167 463.888 116.942 463.888C117.679 463.888 118.281 464.075 118.748 464.448C119.224 464.812 119.499 465.335 119.574 466.016H118.412C118.365 465.661 118.211 465.386 117.95 465.19C117.698 464.985 117.357 464.882 116.928 464.882C116.508 464.882 116.181 464.971 115.948 465.148C115.724 465.325 115.612 465.559 115.612 465.848C115.612 466.128 115.756 466.347 116.046 466.506C116.344 466.665 116.746 466.8 117.25 466.912C117.679 467.005 118.085 467.122 118.468 467.262C118.86 467.393 119.177 467.593 119.42 467.864C119.672 468.125 119.798 468.508 119.798 469.012C119.807 469.637 119.569 470.155 119.084 470.566C118.608 470.967 117.959 471.168 117.138 471.168ZM124.6 471.168C123.937 471.168 123.349 471.019 122.836 470.72C122.322 470.412 121.916 469.987 121.618 469.446C121.328 468.905 121.184 468.265 121.184 467.528C121.184 466.8 121.328 466.165 121.618 465.624C121.907 465.073 122.308 464.649 122.822 464.35C123.344 464.042 123.946 463.888 124.628 463.888C125.3 463.888 125.878 464.042 126.364 464.35C126.858 464.649 127.236 465.045 127.498 465.54C127.759 466.035 127.89 466.567 127.89 467.136C127.89 467.239 127.885 467.341 127.876 467.444C127.876 467.547 127.876 467.663 127.876 467.794H122.346C122.374 468.326 122.495 468.769 122.71 469.124C122.934 469.469 123.209 469.731 123.536 469.908C123.872 470.085 124.226 470.174 124.6 470.174C125.085 470.174 125.491 470.062 125.818 469.838C126.144 469.614 126.382 469.311 126.532 468.928H127.694C127.507 469.572 127.148 470.109 126.616 470.538C126.093 470.958 125.421 471.168 124.6 471.168ZM124.6 464.882C124.04 464.882 123.54 465.055 123.102 465.4C122.672 465.736 122.425 466.231 122.36 466.884H126.728C126.7 466.259 126.485 465.769 126.084 465.414C125.682 465.059 125.188 464.882 124.6 464.882Z" fill="black"/>
</g>
<path fill-rule="evenodd" clip-rule="evenodd" d="M165 458C160.582 458 157 461.582 157 466C157 470.418 160.582 474 165 474C169.418 474 173 470.418 173 466C173 461.582 169.418 458 165 458ZM158.5 466C158.5 462.41 161.41 459.5 165 459.5C168.59 459.5 171.5 462.41 171.5 466C171.5 469.59 168.59 472.5 165 472.5C161.41 472.5 158.5 469.59 158.5 466ZM167.901 464.123C168.107 463.764 167.983 463.306 167.623 463.099C167.264 462.893 166.806 463.017 166.599 463.377L164.306 467.374C164.205 467.549 163.949 467.539 163.863 467.356L163.429 466.431C163.253 466.056 162.806 465.895 162.431 466.071C162.056 466.247 161.895 466.694 162.071 467.069L162.505 467.993C163.106 469.275 164.902 469.349 165.607 468.121L167.901 464.123Z" fill="#0A6A4A"/>
<defs>
<filter id="filter0_d_3994_54901" x="0" y="0" width="83" height="36" filterUnits="userSpaceOnUse" color-interpolation-filters="sRGB">
<feFlood flood-opacity="0" result="BackgroundImageFix"/>
<feColorMatrix in="SourceAlpha" type="matrix" values="0 0 0 0 0 0 0 0 0 0 0 0 0 0 0 0 0 0 127 0" result="hardAlpha"/>
<feMorphology radius="4" operator="dilate" in="SourceAlpha" result="effect1_dropShadow_3994_54901"/>
<feOffset/>
<feComposite in2="hardAlpha" operator="out"/>
<feColorMatrix type="matrix" values="0 0 0 0 0.608333 0 0 0 0 0.608333 0 0 0 0 0.608333 0 0 0 0.12 0"/>
<feBlend mode="normal" in2="BackgroundImageFix" result="effect1_dropShadow_3994_54901"/>
<feBlend mode="normal" in="SourceGraphic" in2="effect1_dropShadow_3994_54901" result="shape"/>
</filter>
<filter id="filter1_d_3994_54901" x="0" y="64" width="143" height="36" filterUnits="userSpaceOnUse" color-interpolation-filters="sRGB">
<feFlood flood-opacity="0" result="BackgroundImageFix"/>
<feColorMatrix in="SourceAlpha" type="matrix" values="0 0 0 0 0 0 0 0 0 0 0 0 0 0 0 0 0 0 127 0" result="hardAlpha"/>
<feMorphology radius="4" operator="dilate" in="SourceAlpha" result="effect1_dropShadow_3994_54901"/>
<feOffset/>
<feComposite in2="hardAlpha" operator="out"/>
<feColorMatrix type="matrix" values="0 0 0 0 0.608333 0 0 0 0 0.608333 0 0 0 0 0.608333 0 0 0 0.12 0"/>
<feBlend mode="normal" in2="BackgroundImageFix" result="effect1_dropShadow_3994_54901"/>
<feBlend mode="normal" in="SourceGraphic" in2="effect1_dropShadow_3994_54901" result="shape"/>
</filter>
<filter id="filter2_d_3994_54901" x="0" y="128" width="86" height="36" filterUnits="userSpaceOnUse" color-interpolation-filters="sRGB">
<feFlood flood-opacity="0" result="BackgroundImageFix"/>
<feColorMatrix in="SourceAlpha" type="matrix" values="0 0 0 0 0 0 0 0 0 0 0 0 0 0 0 0 0 0 127 0" result="hardAlpha"/>
<feMorphology radius="4" operator="dilate" in="SourceAlpha" result="effect1_dropShadow_3994_54901"/>
<feOffset/>
<feComposite in2="hardAlpha" operator="out"/>
<feColorMatrix type="matrix" values="0 0 0 0 0.608333 0 0 0 0 0.608333 0 0 0 0 0.608333 0 0 0 0.12 0"/>
<feBlend mode="normal" in2="BackgroundImageFix" result="effect1_dropShadow_3994_54901"/>
<feBlend mode="normal" in="SourceGraphic" in2="effect1_dropShadow_3994_54901" result="shape"/>
</filter>
<filter id="filter3_d_3994_54901" x="0" y="192" width="130" height="36" filterUnits="userSpaceOnUse" color-interpolation-filters="sRGB">
<feFlood flood-opacity="0" result="BackgroundImageFix"/>
<feColorMatrix in="SourceAlpha" type="matrix" values="0 0 0 0 0 0 0 0 0 0 0 0 0 0 0 0 0 0 127 0" result="hardAlpha"/>
<feMorphology radius="4" operator="dilate" in="SourceAlpha" result="effect1_dropShadow_3994_54901"/>
<feOffset/>
<feComposite in2="hardAlpha" operator="out"/>
<feColorMatrix type="matrix" values="0 0 0 0 0.608333 0 0 0 0 0.608333 0 0 0 0 0.608333 0 0 0 0.12 0"/>
<feBlend mode="normal" in2="BackgroundImageFix" result="effect1_dropShadow_3994_54901"/>
<feBlend mode="normal" in="SourceGraphic" in2="effect1_dropShadow_3994_54901" result="shape"/>
</filter>
<filter id="filter4_d_3994_54901" x="0" y="256" width="102" height="36" filterUnits="userSpaceOnUse" color-interpolation-filters="sRGB">
<feFlood flood-opacity="0" result="BackgroundImageFix"/>
<feColorMatrix in="SourceAlpha" type="matrix" values="0 0 0 0 0 0 0 0 0 0 0 0 0 0 0 0 0 0 127 0" result="hardAlpha"/>
<feMorphology radius="4" operator="dilate" in="SourceAlpha" result="effect1_dropShadow_3994_54901"/>
<feOffset/>
<feComposite in2="hardAlpha" operator="out"/>
<feColorMatrix type="matrix" values="0 0 0 0 0.608333 0 0 0 0 0.608333 0 0 0 0 0.608333 0 0 0 0.12 0"/>
<feBlend mode="normal" in2="BackgroundImageFix" result="effect1_dropShadow_3994_54901"/>
<feBlend mode="normal" in="SourceGraphic" in2="effect1_dropShadow_3994_54901" result="shape"/>
</filter>
<filter id="filter5_d_3994_54901" x="0" y="320" width="200" height="36" filterUnits="userSpaceOnUse" color-interpolation-filters="sRGB">
<feFlood flood-opacity="0" result="BackgroundImageFix"/>
<feColorMatrix in="SourceAlpha" type="matrix" values="0 0 0 0 0 0 0 0 0 0 0 0 0 0 0 0 0 0 127 0" result="hardAlpha"/>
<feMorphology radius="4" operator="dilate" in="SourceAlpha" result="effect1_dropShadow_3994_54901"/>
<feOffset/>
<feComposite in2="hardAlpha" operator="out"/>
<feColorMatrix type="matrix" values="0 0 0 0 0.608333 0 0 0 0 0.608333 0 0 0 0 0.608333 0 0 0 0.12 0"/>
<feBlend mode="normal" in2="BackgroundImageFix" result="effect1_dropShadow_3994_54901"/>
<feBlend mode="normal" in="SourceGraphic" in2="effect1_dropShadow_3994_54901" result="shape"/>
</filter>
<filter id="filter6_d_3994_54901" x="0" y="384" width="84" height="36" filterUnits="userSpaceOnUse" color-interpolation-filters="sRGB">
<feFlood flood-opacity="0" result="BackgroundImageFix"/>
<feColorMatrix in="SourceAlpha" type="matrix" values="0 0 0 0 0 0 0 0 0 0 0 0 0 0 0 0 0 0 127 0" result="hardAlpha"/>
<feMorphology radius="4" operator="dilate" in="SourceAlpha" result="effect1_dropShadow_3994_54901"/>
<feOffset/>
<feComposite in2="hardAlpha" operator="out"/>
<feColorMatrix type="matrix" values="0 0 0 0 0.608333 0 0 0 0 0.608333 0 0 0 0 0.608333 0 0 0 0.12 0"/>
<feBlend mode="normal" in2="BackgroundImageFix" result="effect1_dropShadow_3994_54901"/>
<feBlend mode="normal" in="SourceGraphic" in2="effect1_dropShadow_3994_54901" result="shape"/>
</filter>
<filter id="filter7_d_3994_54901" x="0" y="448" width="145" height="36" filterUnits="userSpaceOnUse" color-interpolation-filters="sRGB">
<feFlood flood-opacity="0" result="BackgroundImageFix"/>
<feColorMatrix in="SourceAlpha" type="matrix" values="0 0 0 0 0 0 0 0 0 0 0 0 0 0 0 0 0 0 127 0" result="hardAlpha"/>
<feMorphology radius="4" operator="dilate" in="SourceAlpha" result="effect1_dropShadow_3994_54901"/>
<feOffset/>
<feComposite in2="hardAlpha" operator="out"/>
<feColorMatrix type="matrix" values="0 0 0 0 0.608333 0 0 0 0 0.608333 0 0 0 0 0.608333 0 0 0 0.12 0"/>
<feBlend mode="normal" in2="BackgroundImageFix" result="effect1_dropShadow_3994_54901"/>
<feBlend mode="normal" in="SourceGraphic" in2="effect1_dropShadow_3994_54901" result="shape"/>
</filter>
<clipPath id="clip0_3994_54901">
<rect width="16" height="16" fill="white" transform="translate(12 74)"/>
</clipPath>
<clipPath id="clip1_3994_54901">
<rect width="16" height="16" fill="white" transform="translate(12 138)"/>
</clipPath>
<clipPath id="clip2_3994_54901">
<rect width="16" height="16" fill="white" transform="translate(12 202)"/>
</clipPath>
<clipPath id="clip3_3994_54901">
<rect width="16" height="16" fill="white" transform="translate(12 266)"/>
</clipPath>
</defs>
</svg>
