<svg width="48" height="48" viewBox="0 0 48 48" fill="none" xmlns="http://www.w3.org/2000/svg">
<g filter="url(#filter0_d_3670_71446)">
<rect x="4" y="4" width="40" height="40" rx="8" fill="#9B85EB" fill-opacity="0.06"/>
<path fill-rule="evenodd" clip-rule="evenodd" d="M17.5309 19C17.5668 19.0423 17.6361 19.1105 17.7675 19.2019C18.0601 19.4055 18.5263 19.6245 19.1534 19.8248C20.3989 20.2224 22.1332 20.5 24 20.5C25.8668 20.5 27.6011 20.2224 28.8466 19.8248C29.4737 19.6245 29.9399 19.4055 30.2325 19.2019C30.3639 19.1105 30.4332 19.0423 30.4691 19C30.4332 18.9577 30.3639 18.8895 30.2325 18.7981C29.9399 18.5945 29.4737 18.3755 28.8466 18.1752C27.6011 17.7776 25.8668 17.5 24 17.5C22.1332 17.5 20.3989 17.7776 19.1534 18.1752C18.5263 18.3755 18.0601 18.5945 17.7675 18.7981C17.6361 18.8895 17.5668 18.9577 17.5309 19ZM18.6971 16.7463C20.1101 16.2951 22.0008 16 24 16C25.9992 16 27.8899 16.2951 29.3029 16.7463C30.005 16.9705 30.6265 17.2449 31.0891 17.5668C31.5108 17.8601 32 18.3345 32 19V24V29C32 29.6655 31.5108 30.1399 31.0891 30.4332C30.6265 30.7551 30.005 31.0295 29.3029 31.2537C27.8899 31.7049 25.9992 32 24 32C22.0008 32 20.1101 31.7049 18.6971 31.2537C17.995 31.0295 17.3735 30.7551 16.9109 30.4332C16.4892 30.1399 16 29.6655 16 29V24V19C16 18.3345 16.4892 17.8601 16.9109 17.5668C17.3735 17.2449 17.995 16.9705 18.6971 16.7463ZM17.5 20.778V23.9585C17.5162 23.9846 17.576 24.0687 17.7675 24.2019C18.0601 24.4055 18.5263 24.6245 19.1534 24.8247C20.3989 25.2224 22.1332 25.5 24 25.5C25.8668 25.5 27.6011 25.2224 28.8466 24.8247C29.4737 24.6245 29.9399 24.4055 30.2325 24.2019C30.424 24.0687 30.4838 23.9846 30.5 23.9585V20.778C30.1446 20.9555 29.7393 21.1143 29.3029 21.2537C27.8899 21.7049 25.9992 22 24 22C22.0008 22 20.1101 21.7049 18.6971 21.2537C18.2607 21.1143 17.8554 20.9555 17.5 20.778ZM30.5 25.778C30.1446 25.9555 29.7393 26.1143 29.3029 26.2537C27.8899 26.7049 25.9992 27 24 27C22.0008 27 20.1101 26.7049 18.6971 26.2537C18.2607 26.1143 17.8554 25.9555 17.5 25.778V28.9585C17.5162 28.9846 17.576 29.0687 17.7675 29.2019C18.0601 29.4055 18.5263 29.6245 19.1534 29.8247C20.3989 30.2224 22.1332 30.5 24 30.5C25.8668 30.5 27.6011 30.2224 28.8466 29.8247C29.4737 29.6245 29.9399 29.4055 30.2325 29.2019C30.424 29.0687 30.4838 28.9846 30.5 28.9585V25.778Z" fill="#9B85EB"/>
<rect x="4.75" y="4.75" width="38.5" height="38.5" rx="7.25" stroke="#9B85EB" stroke-width="1.5"/>
</g>
<defs>
<filter id="filter0_d_3670_71446" x="0" y="0" width="48" height="48" filterUnits="userSpaceOnUse" color-interpolation-filters="sRGB">
<feFlood flood-opacity="0" result="BackgroundImageFix"/>
<feColorMatrix in="SourceAlpha" type="matrix" values="0 0 0 0 0 0 0 0 0 0 0 0 0 0 0 0 0 0 127 0" result="hardAlpha"/>
<feMorphology radius="4" operator="dilate" in="SourceAlpha" result="effect1_dropShadow_3670_71446"/>
<feOffset/>
<feColorMatrix type="matrix" values="0 0 0 0 1 0 0 0 0 1 0 0 0 0 1 0 0 0 0.05 0"/>
<feBlend mode="normal" in2="BackgroundImageFix" result="effect1_dropShadow_3670_71446"/>
<feBlend mode="normal" in="SourceGraphic" in2="effect1_dropShadow_3670_71446" result="shape"/>
</filter>
</defs>
</svg>
