<svg width="394" height="66" viewBox="0 0 394 66" fill="none" xmlns="http://www.w3.org/2000/svg">
<path d="M1 7C1 3.68629 3.68629 1 7 1H394V65H7.00001C3.6863 65 1 62.3137 1 59V7Z" fill="url(#paint0_linear_3341_65649)" fill-opacity="0.1"/>
<path d="M25.2299 44.213H23.2139C22.8779 44.213 22.5349 44.192 22.1849 44.15C21.8349 44.122 21.4919 44.059 21.1559 43.961C20.8339 43.863 20.5189 43.716 20.2109 43.52C19.9169 43.338 19.6649 43.107 19.4549 42.827C19.2589 42.547 19.1259 42.232 19.0559 41.882C18.9859 41.546 18.9509 41.21 18.9509 40.874C18.9509 40.608 18.9719 40.356 19.0139 40.118C19.0699 39.866 19.1469 39.628 19.2449 39.404C19.3569 39.166 19.4899 38.949 19.6439 38.753C19.7979 38.543 19.9519 38.34 20.1059 38.144C20.2599 37.934 20.3859 37.71 20.4839 37.472C20.5959 37.234 20.6519 36.989 20.6519 36.737C20.6519 36.513 20.6099 36.289 20.5259 36.065C20.4559 35.841 20.3439 35.645 20.1899 35.477C20.0359 35.309 19.8539 35.169 19.6439 35.057C19.4339 34.945 19.2169 34.861 18.9929 34.805C18.7689 34.735 18.5379 34.693 18.2999 34.679C18.0759 34.651 17.8449 34.637 17.6069 34.637H17.2079V33.083H17.6069C17.8449 33.083 18.0759 33.076 18.2999 33.062C18.5379 33.034 18.7689 32.992 18.9929 32.936C19.2169 32.866 19.4339 32.775 19.6439 32.663C19.8539 32.551 20.0359 32.411 20.1899 32.243C20.3439 32.075 20.4559 31.879 20.5259 31.655C20.6099 31.431 20.6519 31.207 20.6519 30.983C20.6519 30.731 20.5959 30.486 20.4839 30.248C20.3859 30.01 20.2599 29.793 20.1059 29.597C19.9519 29.387 19.7979 29.184 19.6439 28.988C19.4899 28.778 19.3569 28.561 19.2449 28.337C19.1469 28.099 19.0699 27.861 19.0139 27.623C18.9719 27.371 18.9509 27.112 18.9509 26.846C18.9509 26.51 18.9859 26.174 19.0559 25.838C19.1259 25.488 19.2589 25.173 19.4549 24.893C19.6649 24.613 19.9169 24.382 20.2109 24.2C20.5189 24.004 20.8339 23.857 21.1559 23.759C21.4919 23.661 21.8349 23.598 22.1849 23.57C22.5349 23.528 22.8779 23.507 23.2139 23.507H25.2299V25.061H23.2139C23.0179 25.061 22.8219 25.068 22.6259 25.082C22.4299 25.096 22.2339 25.131 22.0379 25.187C21.8559 25.229 21.6739 25.299 21.4919 25.397C21.3099 25.481 21.1559 25.6 21.0299 25.754C20.9039 25.908 20.8129 26.083 20.7569 26.279C20.7149 26.461 20.6939 26.65 20.6939 26.846C20.6939 27.112 20.7429 27.364 20.8409 27.602C20.9529 27.826 21.0859 28.043 21.2399 28.253C21.3939 28.449 21.5479 28.652 21.7019 28.862C21.8559 29.058 21.9819 29.275 22.0799 29.513C22.1919 29.737 22.2689 29.975 22.3109 30.227C22.3669 30.479 22.3949 30.731 22.3949 30.983C22.3949 31.305 22.3459 31.627 22.2479 31.949C22.1639 32.257 22.0169 32.537 21.8069 32.789C21.5969 33.041 21.3519 33.258 21.0719 33.44C20.8059 33.608 20.5189 33.748 20.2109 33.86C20.5189 33.972 20.8059 34.119 21.0719 34.301C21.3519 34.469 21.5969 34.679 21.8069 34.931C22.0169 35.183 22.1639 35.47 22.2479 35.792C22.3459 36.1 22.3949 36.415 22.3949 36.737C22.3949 36.989 22.3669 37.241 22.3109 37.493C22.2689 37.745 22.1919 37.99 22.0799 38.228C21.9819 38.452 21.8559 38.669 21.7019 38.879C21.5479 39.075 21.3939 39.278 21.2399 39.488C21.0859 39.684 20.9529 39.901 20.8409 40.139C20.7429 40.363 20.6939 40.608 20.6939 40.874C20.6939 41.07 20.7149 41.259 20.7569 41.441C20.8129 41.637 20.9039 41.812 21.0299 41.966C21.1559 42.12 21.3099 42.239 21.4919 42.323C21.6739 42.421 21.8559 42.491 22.0379 42.533C22.2339 42.589 22.4299 42.624 22.6259 42.638C22.8219 42.652 23.0179 42.659 23.2139 42.659H25.2299V44.213ZM37.8217 44.213H35.8057C35.4697 44.213 35.1267 44.192 34.7767 44.15C34.4267 44.122 34.0837 44.059 33.7477 43.961C33.4257 43.863 33.1107 43.716 32.8027 43.52C32.5087 43.338 32.2567 43.107 32.0467 42.827C31.8507 42.547 31.7177 42.232 31.6477 41.882C31.5777 41.546 31.5427 41.21 31.5427 40.874C31.5427 40.608 31.5637 40.356 31.6057 40.118C31.6617 39.866 31.7387 39.628 31.8367 39.404C31.9487 39.166 32.0817 38.949 32.2357 38.753C32.3897 38.543 32.5437 38.34 32.6977 38.144C32.8517 37.934 32.9777 37.71 33.0757 37.472C33.1877 37.234 33.2437 36.989 33.2437 36.737C33.2437 36.513 33.2017 36.289 33.1177 36.065C33.0477 35.841 32.9357 35.645 32.7817 35.477C32.6277 35.309 32.4457 35.169 32.2357 35.057C32.0257 34.945 31.8087 34.861 31.5847 34.805C31.3607 34.735 31.1297 34.693 30.8917 34.679C30.6677 34.651 30.4367 34.637 30.1987 34.637H29.7997V33.083H30.1987C30.4367 33.083 30.6677 33.076 30.8917 33.062C31.1297 33.034 31.3607 32.992 31.5847 32.936C31.8087 32.866 32.0257 32.775 32.2357 32.663C32.4457 32.551 32.6277 32.411 32.7817 32.243C32.9357 32.075 33.0477 31.879 33.1177 31.655C33.2017 31.431 33.2437 31.207 33.2437 30.983C33.2437 30.731 33.1877 30.486 33.0757 30.248C32.9777 30.01 32.8517 29.793 32.6977 29.597C32.5437 29.387 32.3897 29.184 32.2357 28.988C32.0817 28.778 31.9487 28.561 31.8367 28.337C31.7387 28.099 31.6617 27.861 31.6057 27.623C31.5637 27.371 31.5427 27.112 31.5427 26.846C31.5427 26.51 31.5777 26.174 31.6477 25.838C31.7177 25.488 31.8507 25.173 32.0467 24.893C32.2567 24.613 32.5087 24.382 32.8027 24.2C33.1107 24.004 33.4257 23.857 33.7477 23.759C34.0837 23.661 34.4267 23.598 34.7767 23.57C35.1267 23.528 35.4697 23.507 35.8057 23.507H37.8217V25.061H35.8057C35.6097 25.061 35.4137 25.068 35.2177 25.082C35.0217 25.096 34.8257 25.131 34.6297 25.187C34.4477 25.229 34.2657 25.299 34.0837 25.397C33.9017 25.481 33.7477 25.6 33.6217 25.754C33.4957 25.908 33.4047 26.083 33.3487 26.279C33.3067 26.461 33.2857 26.65 33.2857 26.846C33.2857 27.112 33.3347 27.364 33.4327 27.602C33.5447 27.826 33.6777 28.043 33.8317 28.253C33.9857 28.449 34.1397 28.652 34.2937 28.862C34.4477 29.058 34.5737 29.275 34.6717 29.513C34.7837 29.737 34.8607 29.975 34.9027 30.227C34.9587 30.479 34.9867 30.731 34.9867 30.983C34.9867 31.305 34.9377 31.627 34.8397 31.949C34.7557 32.257 34.6087 32.537 34.3987 32.789C34.1887 33.041 33.9437 33.258 33.6637 33.44C33.3977 33.608 33.1107 33.748 32.8027 33.86C33.1107 33.972 33.3977 34.119 33.6637 34.301C33.9437 34.469 34.1887 34.679 34.3987 34.931C34.6087 35.183 34.7557 35.47 34.8397 35.792C34.9377 36.1 34.9867 36.415 34.9867 36.737C34.9867 36.989 34.9587 37.241 34.9027 37.493C34.8607 37.745 34.7837 37.99 34.6717 38.228C34.5737 38.452 34.4477 38.669 34.2937 38.879C34.1397 39.075 33.9857 39.278 33.8317 39.488C33.6777 39.684 33.5447 39.901 33.4327 40.139C33.3347 40.363 33.2857 40.608 33.2857 40.874C33.2857 41.07 33.3067 41.259 33.3487 41.441C33.4047 41.637 33.4957 41.812 33.6217 41.966C33.7477 42.12 33.9017 42.239 34.0837 42.323C34.2657 42.421 34.4477 42.491 34.6297 42.533C34.8257 42.589 35.0217 42.624 35.2177 42.638C35.4137 42.652 35.6097 42.659 35.8057 42.659H37.8217V44.213ZM57.6293 41V31.529H54.5423V29.996H57.6293V28.82C57.6293 28.526 57.6503 28.239 57.6923 27.959C57.7483 27.665 57.8393 27.385 57.9653 27.119C58.0913 26.853 58.2593 26.615 58.4693 26.405C58.6793 26.195 58.9173 26.027 59.1833 25.901C59.4493 25.775 59.7223 25.691 60.0023 25.649C60.2963 25.593 60.5903 25.565 60.8843 25.565H63.4463V27.098H60.8843C60.6603 27.098 60.4433 27.14 60.2333 27.224C60.0373 27.308 59.8693 27.434 59.7293 27.602C59.5893 27.77 59.4913 27.959 59.4353 28.169C59.3933 28.379 59.3723 28.596 59.3723 28.82V29.996H63.4463V31.55H59.3723V41H57.6293ZM67.1341 45.431V29.996H68.8771V32.012C69.0171 31.676 69.1991 31.368 69.4231 31.088C69.6471 30.794 69.9061 30.549 70.2001 30.353C70.5081 30.157 70.8371 30.024 71.1871 29.954C71.5511 29.87 71.9081 29.828 72.2581 29.828C72.6501 29.828 73.0281 29.87 73.3921 29.954C73.7701 30.038 74.1201 30.185 74.4421 30.395C74.7641 30.605 75.0441 30.864 75.2821 31.172C75.5201 31.48 75.7091 31.816 75.8491 32.18C75.9891 32.53 76.0801 32.894 76.1221 33.272C76.1781 33.65 76.2061 34.028 76.2061 34.406V36.59C76.2061 36.968 76.1781 37.346 76.1221 37.724C76.0801 38.102 75.9891 38.473 75.8491 38.837C75.7091 39.187 75.5201 39.516 75.2821 39.824C75.0441 40.132 74.7641 40.391 74.4421 40.601C74.1201 40.811 73.7701 40.958 73.3921 41.042C73.0281 41.126 72.6501 41.168 72.2581 41.168C71.9081 41.168 71.5511 41.126 71.1871 41.042C70.8371 40.972 70.5081 40.839 70.2001 40.643C69.9061 40.447 69.6471 40.209 69.4231 39.929C69.1991 39.635 69.0171 39.32 68.8771 38.984V45.431H67.1341ZM71.6071 39.635C71.8731 39.635 72.1321 39.607 72.3841 39.551C72.6501 39.495 72.8951 39.404 73.1191 39.278C73.3571 39.152 73.5671 38.991 73.7491 38.795C73.9311 38.585 74.0711 38.361 74.1691 38.123C74.2811 37.885 74.3581 37.64 74.4001 37.388C74.4421 37.122 74.4631 36.856 74.4631 36.59V34.406C74.4631 34.14 74.4421 33.881 74.4001 33.629C74.3581 33.363 74.2811 33.111 74.1691 32.873C74.0711 32.635 73.9311 32.418 73.7491 32.222C73.5671 32.012 73.3571 31.844 73.1191 31.718C72.8951 31.592 72.6501 31.501 72.3841 31.445C72.1321 31.389 71.8731 31.361 71.6071 31.361C71.3411 31.361 71.0821 31.389 70.8301 31.445C70.5781 31.501 70.3401 31.599 70.1161 31.739C69.8921 31.865 69.6961 32.033 69.5281 32.243C69.3601 32.439 69.2271 32.656 69.1291 32.894C69.0311 33.132 68.9611 33.384 68.9191 33.65C68.8911 33.902 68.8771 34.154 68.8771 34.406V36.59C68.8771 36.842 68.8911 37.101 68.9191 37.367C68.9611 37.619 69.0311 37.864 69.1291 38.102C69.2271 38.34 69.3601 38.564 69.5281 38.774C69.6961 38.97 69.8921 39.138 70.1161 39.278C70.3401 39.404 70.5781 39.495 70.8301 39.551C71.0821 39.607 71.3411 39.635 71.6071 39.635ZM79.7259 42.533V41H88.6299V42.533H79.7259ZM92.5487 41V39.446H96.0767V31.55H92.8847V29.996H97.7987V39.446H100.991V41H92.5487ZM96.7697 28.148C96.5877 28.148 96.4127 28.127 96.2447 28.085C96.0767 28.029 95.9297 27.938 95.8037 27.812C95.6777 27.686 95.5867 27.539 95.5307 27.371C95.4887 27.203 95.4677 27.028 95.4677 26.846C95.4677 26.664 95.4887 26.489 95.5307 26.321C95.5867 26.153 95.6777 26.006 95.8037 25.88C95.9297 25.754 96.0767 25.663 96.2447 25.607C96.4127 25.551 96.5877 25.523 96.7697 25.523C96.9517 25.523 97.1267 25.551 97.2947 25.607C97.4627 25.663 97.6097 25.754 97.7357 25.88C97.8617 26.006 97.9527 26.153 98.0087 26.321C98.0647 26.489 98.0927 26.664 98.0927 26.846C98.0927 27.028 98.0647 27.203 98.0087 27.371C97.9527 27.539 97.8617 27.686 97.7357 27.812C97.6097 27.938 97.4627 28.029 97.2947 28.085C97.1267 28.127 96.9517 28.148 96.7697 28.148ZM108.69 41.168C108.298 41.168 107.913 41.126 107.535 41.042C107.171 40.958 106.828 40.811 106.506 40.601C106.184 40.391 105.904 40.132 105.666 39.824C105.428 39.516 105.239 39.187 105.099 38.837C104.959 38.473 104.861 38.102 104.805 37.724C104.763 37.346 104.742 36.968 104.742 36.59V34.406C104.742 34.028 104.763 33.65 104.805 33.272C104.861 32.894 104.959 32.53 105.099 32.18C105.239 31.816 105.428 31.48 105.666 31.172C105.904 30.864 106.184 30.605 106.506 30.395C106.828 30.185 107.171 30.038 107.535 29.954C107.913 29.87 108.298 29.828 108.69 29.828C109.04 29.828 109.39 29.87 109.74 29.954C110.104 30.024 110.433 30.157 110.727 30.353C111.035 30.549 111.301 30.794 111.525 31.088C111.749 31.368 111.931 31.676 112.071 32.012V25.565H113.814V41H112.071V38.984C111.931 39.32 111.749 39.635 111.525 39.929C111.301 40.209 111.035 40.447 110.727 40.643C110.433 40.839 110.104 40.972 109.74 41.042C109.39 41.126 109.04 41.168 108.69 41.168ZM109.341 39.635C109.607 39.635 109.866 39.607 110.118 39.551C110.37 39.495 110.608 39.404 110.832 39.278C111.056 39.138 111.252 38.97 111.42 38.774C111.588 38.564 111.721 38.34 111.819 38.102C111.917 37.864 111.98 37.619 112.008 37.367C112.05 37.101 112.071 36.842 112.071 36.59V34.406C112.071 34.154 112.05 33.902 112.008 33.65C111.98 33.384 111.917 33.132 111.819 32.894C111.721 32.656 111.588 32.439 111.42 32.243C111.252 32.033 111.056 31.865 110.832 31.739C110.608 31.599 110.37 31.501 110.118 31.445C109.866 31.389 109.607 31.361 109.341 31.361C109.075 31.361 108.809 31.389 108.543 31.445C108.291 31.501 108.046 31.592 107.808 31.718C107.584 31.844 107.381 32.012 107.199 32.222C107.017 32.418 106.87 32.635 106.758 32.873C106.66 33.111 106.59 33.363 106.548 33.629C106.506 33.881 106.485 34.14 106.485 34.406V36.59C106.485 36.856 106.506 37.122 106.548 37.388C106.59 37.64 106.66 37.885 106.758 38.123C106.87 38.361 107.017 38.585 107.199 38.795C107.381 38.991 107.584 39.152 107.808 39.278C108.046 39.404 108.291 39.495 108.543 39.551C108.809 39.607 109.075 39.635 109.341 39.635ZM117.501 42.533V41H126.405V42.533H117.501ZM134.524 41.168C134.146 41.168 133.768 41.14 133.39 41.084C133.012 41.042 132.641 40.951 132.277 40.811C131.927 40.671 131.598 40.489 131.29 40.265C130.996 40.027 130.737 39.754 130.513 39.446C130.303 39.124 130.142 38.781 130.03 38.417C129.932 38.039 129.883 37.661 129.883 37.283C129.883 37.283 129.883 37.276 129.883 37.262C129.883 37.248 129.883 37.241 129.883 37.241H131.626C131.626 37.241 131.626 37.248 131.626 37.262C131.626 37.612 131.703 37.955 131.857 38.291C132.011 38.613 132.228 38.879 132.508 39.089C132.802 39.285 133.124 39.425 133.474 39.509C133.824 39.579 134.174 39.614 134.524 39.614C134.888 39.614 135.245 39.572 135.595 39.488C135.959 39.404 136.281 39.25 136.561 39.026C136.841 38.788 137.058 38.501 137.212 38.165C137.366 37.829 137.443 37.479 137.443 37.115C137.443 36.737 137.352 36.373 137.17 36.023C136.988 35.673 136.75 35.379 136.456 35.141C136.162 34.889 135.833 34.693 135.469 34.553C135.119 34.399 134.762 34.259 134.398 34.133C134.048 34.007 133.698 33.874 133.348 33.734C132.998 33.58 132.662 33.405 132.34 33.209C132.018 32.999 131.717 32.761 131.437 32.495C131.157 32.229 130.912 31.935 130.702 31.613C130.506 31.291 130.352 30.948 130.24 30.584C130.142 30.206 130.093 29.828 130.093 29.45C130.093 29.072 130.142 28.701 130.24 28.337C130.338 27.959 130.478 27.609 130.66 27.287C130.856 26.951 131.101 26.657 131.395 26.405C131.689 26.153 132.004 25.95 132.34 25.796C132.69 25.642 133.054 25.537 133.432 25.481C133.81 25.425 134.188 25.397 134.566 25.397C134.944 25.397 135.315 25.425 135.679 25.481C136.043 25.537 136.393 25.635 136.729 25.775C137.079 25.915 137.401 26.104 137.695 26.342C137.989 26.566 138.234 26.832 138.43 27.14C138.64 27.448 138.794 27.784 138.892 28.148C138.99 28.512 139.039 28.876 139.039 29.24C139.039 29.254 139.039 29.268 139.039 29.282C139.039 29.282 139.039 29.289 139.039 29.303H137.296C137.296 29.289 137.296 29.275 137.296 29.261C137.296 28.925 137.226 28.603 137.086 28.295C136.946 27.973 136.743 27.707 136.477 27.497C136.211 27.287 135.91 27.147 135.574 27.077C135.238 26.993 134.902 26.951 134.566 26.951C134.216 26.951 133.866 27 133.516 27.098C133.18 27.182 132.879 27.343 132.613 27.581C132.361 27.805 132.165 28.085 132.025 28.421C131.885 28.757 131.815 29.1 131.815 29.45C131.815 29.828 131.906 30.192 132.088 30.542C132.27 30.892 132.501 31.193 132.781 31.445C133.075 31.683 133.397 31.879 133.747 32.033C134.111 32.173 134.475 32.306 134.839 32.432C135.203 32.558 135.56 32.698 135.91 32.852C136.26 32.992 136.596 33.167 136.918 33.377C137.24 33.573 137.541 33.804 137.821 34.07C138.101 34.336 138.339 34.63 138.535 34.952C138.745 35.274 138.899 35.617 138.997 35.981C139.109 36.345 139.165 36.723 139.165 37.115C139.165 37.493 139.109 37.871 138.997 38.249C138.899 38.627 138.745 38.984 138.535 39.32C138.339 39.642 138.087 39.929 137.779 40.181C137.471 40.433 137.135 40.636 136.771 40.79C136.421 40.93 136.05 41.028 135.658 41.084C135.28 41.14 134.902 41.168 134.524 41.168ZM144.134 41V29.996H145.877V32.285C145.989 31.949 146.136 31.627 146.318 31.319C146.514 31.011 146.745 30.745 147.011 30.521C147.277 30.283 147.578 30.108 147.914 29.996C148.264 29.884 148.614 29.828 148.964 29.828C149.258 29.828 149.552 29.863 149.846 29.933C150.14 29.989 150.406 30.101 150.644 30.269C150.882 30.437 151.085 30.647 151.253 30.899C151.435 31.137 151.568 31.396 151.652 31.676C151.75 31.956 151.813 32.243 151.841 32.537C151.883 32.831 151.904 33.125 151.904 33.419H150.161C150.161 33.181 150.14 32.943 150.098 32.705C150.056 32.453 149.972 32.222 149.846 32.012C149.72 31.802 149.545 31.648 149.321 31.55C149.097 31.438 148.859 31.382 148.607 31.382C148.313 31.382 148.019 31.424 147.725 31.508C147.445 31.592 147.193 31.732 146.969 31.928C146.759 32.124 146.577 32.355 146.423 32.621C146.283 32.873 146.171 33.139 146.087 33.419C146.003 33.699 145.947 33.986 145.919 34.28C145.891 34.574 145.877 34.868 145.877 35.162V41H144.134ZM159.057 41.168C158.665 41.168 158.28 41.126 157.902 41.042C157.538 40.958 157.195 40.811 156.873 40.601C156.551 40.391 156.271 40.132 156.033 39.824C155.795 39.516 155.606 39.187 155.466 38.837C155.326 38.473 155.228 38.102 155.172 37.724C155.13 37.346 155.109 36.968 155.109 36.59V34.406C155.109 34.028 155.13 33.65 155.172 33.272C155.228 32.894 155.326 32.53 155.466 32.18C155.606 31.816 155.795 31.48 156.033 31.172C156.271 30.864 156.551 30.605 156.873 30.395C157.195 30.185 157.538 30.038 157.902 29.954C158.28 29.87 158.665 29.828 159.057 29.828C159.407 29.828 159.757 29.87 160.107 29.954C160.471 30.024 160.8 30.157 161.094 30.353C161.402 30.549 161.668 30.794 161.892 31.088C162.116 31.368 162.298 31.676 162.438 32.012V25.565H164.181V41H162.438V38.984C162.298 39.32 162.116 39.635 161.892 39.929C161.668 40.209 161.402 40.447 161.094 40.643C160.8 40.839 160.471 40.972 160.107 41.042C159.757 41.126 159.407 41.168 159.057 41.168ZM159.708 39.635C159.974 39.635 160.233 39.607 160.485 39.551C160.737 39.495 160.975 39.404 161.199 39.278C161.423 39.138 161.619 38.97 161.787 38.774C161.955 38.564 162.088 38.34 162.186 38.102C162.284 37.864 162.347 37.619 162.375 37.367C162.417 37.101 162.438 36.842 162.438 36.59V34.406C162.438 34.154 162.417 33.902 162.375 33.65C162.347 33.384 162.284 33.132 162.186 32.894C162.088 32.656 161.955 32.439 161.787 32.243C161.619 32.033 161.423 31.865 161.199 31.739C160.975 31.599 160.737 31.501 160.485 31.445C160.233 31.389 159.974 31.361 159.708 31.361C159.442 31.361 159.176 31.389 158.91 31.445C158.658 31.501 158.413 31.592 158.175 31.718C157.951 31.844 157.748 32.012 157.566 32.222C157.384 32.418 157.237 32.635 157.125 32.873C157.027 33.111 156.957 33.363 156.915 33.629C156.873 33.881 156.852 34.14 156.852 34.406V36.59C156.852 36.856 156.873 37.122 156.915 37.388C156.957 37.64 157.027 37.885 157.125 38.123C157.237 38.361 157.384 38.585 157.566 38.795C157.748 38.991 157.951 39.152 158.175 39.278C158.413 39.404 158.658 39.495 158.91 39.551C159.176 39.607 159.442 39.635 159.708 39.635ZM173.203 41V38.207H175.996V41H173.203ZM183.526 41V38.207H186.319V41H183.526ZM193.85 41V38.207H196.643V41H193.85ZM210.075 41.168C209.697 41.168 209.319 41.14 208.941 41.084C208.563 41.042 208.192 40.951 207.828 40.811C207.478 40.671 207.149 40.489 206.841 40.265C206.547 40.027 206.288 39.754 206.064 39.446C205.854 39.124 205.693 38.781 205.581 38.417C205.483 38.039 205.434 37.661 205.434 37.283C205.434 37.283 205.434 37.276 205.434 37.262C205.434 37.248 205.434 37.241 205.434 37.241H207.177C207.177 37.241 207.177 37.248 207.177 37.262C207.177 37.612 207.254 37.955 207.408 38.291C207.562 38.613 207.779 38.879 208.059 39.089C208.353 39.285 208.675 39.425 209.025 39.509C209.375 39.579 209.725 39.614 210.075 39.614C210.439 39.614 210.796 39.572 211.146 39.488C211.51 39.404 211.832 39.25 212.112 39.026C212.392 38.788 212.609 38.501 212.763 38.165C212.917 37.829 212.994 37.479 212.994 37.115C212.994 36.737 212.903 36.373 212.721 36.023C212.539 35.673 212.301 35.379 212.007 35.141C211.713 34.889 211.384 34.693 211.02 34.553C210.67 34.399 210.313 34.259 209.949 34.133C209.599 34.007 209.249 33.874 208.899 33.734C208.549 33.58 208.213 33.405 207.891 33.209C207.569 32.999 207.268 32.761 206.988 32.495C206.708 32.229 206.463 31.935 206.253 31.613C206.057 31.291 205.903 30.948 205.791 30.584C205.693 30.206 205.644 29.828 205.644 29.45C205.644 29.072 205.693 28.701 205.791 28.337C205.889 27.959 206.029 27.609 206.211 27.287C206.407 26.951 206.652 26.657 206.946 26.405C207.24 26.153 207.555 25.95 207.891 25.796C208.241 25.642 208.605 25.537 208.983 25.481C209.361 25.425 209.739 25.397 210.117 25.397C210.495 25.397 210.866 25.425 211.23 25.481C211.594 25.537 211.944 25.635 212.28 25.775C212.63 25.915 212.952 26.104 213.246 26.342C213.54 26.566 213.785 26.832 213.981 27.14C214.191 27.448 214.345 27.784 214.443 28.148C214.541 28.512 214.59 28.876 214.59 29.24C214.59 29.254 214.59 29.268 214.59 29.282C214.59 29.282 214.59 29.289 214.59 29.303H212.847C212.847 29.289 212.847 29.275 212.847 29.261C212.847 28.925 212.777 28.603 212.637 28.295C212.497 27.973 212.294 27.707 212.028 27.497C211.762 27.287 211.461 27.147 211.125 27.077C210.789 26.993 210.453 26.951 210.117 26.951C209.767 26.951 209.417 27 209.067 27.098C208.731 27.182 208.43 27.343 208.164 27.581C207.912 27.805 207.716 28.085 207.576 28.421C207.436 28.757 207.366 29.1 207.366 29.45C207.366 29.828 207.457 30.192 207.639 30.542C207.821 30.892 208.052 31.193 208.332 31.445C208.626 31.683 208.948 31.879 209.298 32.033C209.662 32.173 210.026 32.306 210.39 32.432C210.754 32.558 211.111 32.698 211.461 32.852C211.811 32.992 212.147 33.167 212.469 33.377C212.791 33.573 213.092 33.804 213.372 34.07C213.652 34.336 213.89 34.63 214.086 34.952C214.296 35.274 214.45 35.617 214.548 35.981C214.66 36.345 214.716 36.723 214.716 37.115C214.716 37.493 214.66 37.871 214.548 38.249C214.45 38.627 214.296 38.984 214.086 39.32C213.89 39.642 213.638 39.929 213.33 40.181C213.022 40.433 212.686 40.636 212.322 40.79C211.972 40.93 211.601 41.028 211.209 41.084C210.831 41.14 210.453 41.168 210.075 41.168ZM223.276 44.465L222.457 41.168C222.065 41.154 221.673 41.105 221.281 41.021C220.889 40.951 220.518 40.825 220.168 40.643C219.832 40.461 219.517 40.23 219.223 39.95C218.943 39.656 218.712 39.334 218.53 38.984C218.362 38.634 218.243 38.263 218.173 37.871C218.103 37.479 218.068 37.087 218.068 36.695V29.87C218.068 29.464 218.103 29.058 218.173 28.652C218.257 28.246 218.39 27.868 218.572 27.518C218.768 27.154 219.013 26.832 219.307 26.552C219.615 26.258 219.951 26.027 220.315 25.859C220.693 25.691 221.078 25.565 221.47 25.481C221.876 25.383 222.282 25.334 222.688 25.334C223.094 25.334 223.493 25.383 223.885 25.481C224.291 25.565 224.676 25.691 225.04 25.859C225.418 26.027 225.754 26.258 226.048 26.552C226.356 26.832 226.601 27.154 226.783 27.518C226.979 27.868 227.112 28.246 227.182 28.652C227.266 29.058 227.308 29.464 227.308 29.87V36.695C227.308 37.017 227.287 37.339 227.245 37.661C227.203 37.983 227.119 38.298 226.993 38.606C226.881 38.9 226.734 39.18 226.552 39.446C226.37 39.712 226.153 39.95 225.901 40.16C225.663 40.37 225.397 40.545 225.103 40.685C224.809 40.825 224.508 40.93 224.2 41L225.019 44.465H223.276ZM222.688 39.614C222.954 39.614 223.213 39.593 223.465 39.551C223.717 39.509 223.955 39.432 224.179 39.32C224.417 39.194 224.627 39.04 224.809 38.858C225.005 38.662 225.159 38.452 225.271 38.228C225.383 37.99 225.46 37.745 225.502 37.493C225.544 37.227 225.565 36.961 225.565 36.695V29.87C225.565 29.604 225.544 29.345 225.502 29.093C225.46 28.827 225.376 28.582 225.25 28.358C225.138 28.12 224.991 27.903 224.809 27.707C224.627 27.511 224.417 27.357 224.179 27.245C223.941 27.133 223.689 27.056 223.423 27.014C223.171 26.958 222.912 26.93 222.646 26.93C222.394 26.93 222.135 26.958 221.869 27.014C221.617 27.07 221.379 27.161 221.155 27.287C220.931 27.399 220.728 27.553 220.546 27.749C220.364 27.931 220.217 28.141 220.105 28.379C219.993 28.603 219.916 28.841 219.874 29.093C219.832 29.345 219.811 29.604 219.811 29.87V36.695C219.811 36.961 219.832 37.227 219.874 37.493C219.916 37.745 219.993 37.99 220.105 38.228C220.217 38.452 220.364 38.662 220.546 38.858C220.742 39.04 220.952 39.194 221.176 39.32C221.414 39.432 221.659 39.509 221.911 39.551C222.163 39.593 222.422 39.614 222.688 39.614ZM237.988 45.431V38.984C237.848 39.32 237.666 39.635 237.442 39.929C237.218 40.209 236.952 40.447 236.644 40.643C236.35 40.839 236.021 40.972 235.657 41.042C235.307 41.126 234.957 41.168 234.607 41.168C234.215 41.168 233.83 41.126 233.452 41.042C233.088 40.958 232.745 40.811 232.423 40.601C232.101 40.391 231.821 40.132 231.583 39.824C231.345 39.516 231.156 39.187 231.016 38.837C230.876 38.473 230.778 38.102 230.722 37.724C230.68 37.346 230.659 36.968 230.659 36.59V34.406C230.659 34.028 230.68 33.65 230.722 33.272C230.778 32.894 230.876 32.53 231.016 32.18C231.156 31.816 231.345 31.48 231.583 31.172C231.821 30.864 232.101 30.605 232.423 30.395C232.745 30.185 233.088 30.038 233.452 29.954C233.83 29.87 234.215 29.828 234.607 29.828C234.957 29.828 235.307 29.87 235.657 29.954C236.021 30.024 236.35 30.157 236.644 30.353C236.952 30.549 237.218 30.794 237.442 31.088C237.666 31.368 237.848 31.676 237.988 32.012V29.996H239.731V45.431H237.988ZM235.258 39.635C235.524 39.635 235.783 39.607 236.035 39.551C236.287 39.495 236.525 39.404 236.749 39.278C236.973 39.138 237.169 38.97 237.337 38.774C237.505 38.564 237.638 38.34 237.736 38.102C237.834 37.864 237.897 37.619 237.925 37.367C237.967 37.101 237.988 36.842 237.988 36.59V34.406C237.988 34.154 237.967 33.902 237.925 33.65C237.897 33.384 237.834 33.132 237.736 32.894C237.638 32.656 237.505 32.439 237.337 32.243C237.169 32.033 236.973 31.865 236.749 31.739C236.525 31.599 236.287 31.501 236.035 31.445C235.783 31.389 235.524 31.361 235.258 31.361C234.992 31.361 234.726 31.389 234.46 31.445C234.208 31.501 233.963 31.592 233.725 31.718C233.501 31.844 233.298 32.012 233.116 32.222C232.934 32.418 232.787 32.635 232.675 32.873C232.577 33.111 232.507 33.363 232.465 33.629C232.423 33.881 232.402 34.14 232.402 34.406V36.59C232.402 36.856 232.423 37.122 232.465 37.388C232.507 37.64 232.577 37.885 232.675 38.123C232.787 38.361 232.934 38.585 233.116 38.795C233.298 38.991 233.501 39.152 233.725 39.278C233.963 39.404 234.208 39.495 234.46 39.551C234.726 39.607 234.992 39.635 235.258 39.635ZM246.485 41V38.207H249.278V41H246.485ZM256.242 41V39.446H259.77V31.55H256.578V29.996H261.492V39.446H264.684V41H256.242ZM260.463 28.148C260.281 28.148 260.106 28.127 259.938 28.085C259.77 28.029 259.623 27.938 259.497 27.812C259.371 27.686 259.28 27.539 259.224 27.371C259.182 27.203 259.161 27.028 259.161 26.846C259.161 26.664 259.182 26.489 259.224 26.321C259.28 26.153 259.371 26.006 259.497 25.88C259.623 25.754 259.77 25.663 259.938 25.607C260.106 25.551 260.281 25.523 260.463 25.523C260.645 25.523 260.82 25.551 260.988 25.607C261.156 25.663 261.303 25.754 261.429 25.88C261.555 26.006 261.646 26.153 261.702 26.321C261.758 26.489 261.786 26.664 261.786 26.846C261.786 27.028 261.758 27.203 261.702 27.371C261.646 27.539 261.555 27.686 261.429 27.812C261.303 27.938 261.156 28.029 260.988 28.085C260.82 28.127 260.645 28.148 260.463 28.148ZM272.383 41.168C271.991 41.168 271.606 41.126 271.228 41.042C270.864 40.958 270.521 40.811 270.199 40.601C269.877 40.391 269.597 40.132 269.359 39.824C269.121 39.516 268.932 39.187 268.792 38.837C268.652 38.473 268.554 38.102 268.498 37.724C268.456 37.346 268.435 36.968 268.435 36.59V34.406C268.435 34.028 268.456 33.65 268.498 33.272C268.554 32.894 268.652 32.53 268.792 32.18C268.932 31.816 269.121 31.48 269.359 31.172C269.597 30.864 269.877 30.605 270.199 30.395C270.521 30.185 270.864 30.038 271.228 29.954C271.606 29.87 271.991 29.828 272.383 29.828C272.733 29.828 273.083 29.87 273.433 29.954C273.797 30.024 274.126 30.157 274.42 30.353C274.728 30.549 274.994 30.794 275.218 31.088C275.442 31.368 275.624 31.676 275.764 32.012V25.565H277.507V41H275.764V38.984C275.624 39.32 275.442 39.635 275.218 39.929C274.994 40.209 274.728 40.447 274.42 40.643C274.126 40.839 273.797 40.972 273.433 41.042C273.083 41.126 272.733 41.168 272.383 41.168ZM273.034 39.635C273.3 39.635 273.559 39.607 273.811 39.551C274.063 39.495 274.301 39.404 274.525 39.278C274.749 39.138 274.945 38.97 275.113 38.774C275.281 38.564 275.414 38.34 275.512 38.102C275.61 37.864 275.673 37.619 275.701 37.367C275.743 37.101 275.764 36.842 275.764 36.59V34.406C275.764 34.154 275.743 33.902 275.701 33.65C275.673 33.384 275.61 33.132 275.512 32.894C275.414 32.656 275.281 32.439 275.113 32.243C274.945 32.033 274.749 31.865 274.525 31.739C274.301 31.599 274.063 31.501 273.811 31.445C273.559 31.389 273.3 31.361 273.034 31.361C272.768 31.361 272.502 31.389 272.236 31.445C271.984 31.501 271.739 31.592 271.501 31.718C271.277 31.844 271.074 32.012 270.892 32.222C270.71 32.418 270.563 32.635 270.451 32.873C270.353 33.111 270.283 33.363 270.241 33.629C270.199 33.881 270.178 34.14 270.178 34.406V36.59C270.178 36.856 270.199 37.122 270.241 37.388C270.283 37.64 270.353 37.885 270.451 38.123C270.563 38.361 270.71 38.585 270.892 38.795C271.074 38.991 271.277 39.152 271.501 39.278C271.739 39.404 271.984 39.495 272.236 39.551C272.502 39.607 272.768 39.635 273.034 39.635ZM284.261 41V38.207H287.054V41H284.261ZM298.217 41.168C297.867 41.168 297.517 41.147 297.167 41.105C296.831 41.077 296.495 41.014 296.159 40.916C295.837 40.804 295.522 40.664 295.214 40.496C294.92 40.314 294.661 40.09 294.437 39.824C294.213 39.558 294.038 39.264 293.912 38.942C293.8 38.606 293.744 38.27 293.744 37.934C293.744 37.92 293.744 37.913 293.744 37.913H295.487C295.487 38.109 295.529 38.305 295.613 38.501C295.697 38.683 295.809 38.844 295.949 38.984C296.103 39.11 296.271 39.215 296.453 39.299C296.635 39.383 296.824 39.453 297.02 39.509C297.216 39.551 297.412 39.579 297.608 39.593C297.804 39.607 298.007 39.614 298.217 39.614C298.413 39.614 298.609 39.607 298.805 39.593C299.001 39.579 299.19 39.551 299.372 39.509C299.568 39.467 299.757 39.411 299.939 39.341C300.135 39.257 300.303 39.152 300.443 39.026C300.597 38.9 300.723 38.746 300.821 38.564C300.919 38.382 300.968 38.193 300.968 37.997C300.968 37.787 300.912 37.591 300.8 37.409C300.688 37.213 300.541 37.059 300.359 36.947C300.177 36.835 299.981 36.751 299.771 36.695C299.575 36.639 299.372 36.597 299.162 36.569H299.141C298.763 36.499 298.385 36.429 298.007 36.359C297.643 36.275 297.272 36.184 296.894 36.086C296.53 35.974 296.173 35.841 295.823 35.687C295.473 35.519 295.151 35.309 294.857 35.057C294.577 34.791 294.353 34.483 294.185 34.133C294.031 33.769 293.954 33.391 293.954 32.999C293.954 32.677 294.01 32.355 294.122 32.033C294.248 31.711 294.416 31.424 294.626 31.172C294.836 30.906 295.081 30.689 295.361 30.521C295.655 30.339 295.963 30.199 296.285 30.101C296.607 29.989 296.936 29.919 297.272 29.891C297.608 29.849 297.937 29.828 298.259 29.828C298.595 29.828 298.931 29.849 299.267 29.891C299.603 29.919 299.925 29.989 300.233 30.101C300.555 30.199 300.856 30.339 301.136 30.521C301.43 30.703 301.682 30.927 301.892 31.193C302.116 31.445 302.284 31.732 302.396 32.054C302.508 32.376 302.564 32.698 302.564 33.02C302.564 33.034 302.564 33.041 302.564 33.041H300.821C300.821 32.761 300.73 32.502 300.548 32.264C300.38 32.012 300.17 31.823 299.918 31.697C299.666 31.571 299.4 31.487 299.12 31.445C298.84 31.403 298.553 31.382 298.259 31.382C298.077 31.382 297.888 31.389 297.692 31.403C297.51 31.417 297.328 31.445 297.146 31.487C296.964 31.529 296.782 31.592 296.6 31.676C296.432 31.76 296.278 31.865 296.138 31.991C295.998 32.117 295.886 32.271 295.802 32.453C295.718 32.621 295.676 32.803 295.676 32.999C295.676 33.209 295.732 33.412 295.844 33.608C295.956 33.79 296.096 33.937 296.264 34.049C296.446 34.161 296.635 34.245 296.831 34.301C297.041 34.357 297.251 34.399 297.461 34.427H297.503C297.881 34.497 298.252 34.574 298.616 34.658C298.994 34.728 299.365 34.819 299.729 34.931C300.107 35.029 300.471 35.162 300.821 35.33C301.171 35.484 301.486 35.694 301.766 35.96C302.046 36.212 302.27 36.52 302.438 36.884C302.606 37.234 302.69 37.598 302.69 37.976C302.69 38.326 302.627 38.662 302.501 38.984C302.375 39.306 302.2 39.6 301.976 39.866C301.752 40.118 301.486 40.335 301.178 40.517C300.884 40.685 300.569 40.818 300.233 40.916C299.911 41.014 299.575 41.077 299.225 41.105C298.889 41.147 298.553 41.168 298.217 41.168ZM310.809 41.168C310.459 41.168 310.109 41.147 309.759 41.105C309.423 41.077 309.087 41.014 308.751 40.916C308.429 40.804 308.114 40.664 307.806 40.496C307.512 40.314 307.253 40.09 307.029 39.824C306.805 39.558 306.63 39.264 306.504 38.942C306.392 38.606 306.336 38.27 306.336 37.934C306.336 37.92 306.336 37.913 306.336 37.913H308.079C308.079 38.109 308.121 38.305 308.205 38.501C308.289 38.683 308.401 38.844 308.541 38.984C308.695 39.11 308.863 39.215 309.045 39.299C309.227 39.383 309.416 39.453 309.612 39.509C309.808 39.551 310.004 39.579 310.2 39.593C310.396 39.607 310.599 39.614 310.809 39.614C311.005 39.614 311.201 39.607 311.397 39.593C311.593 39.579 311.782 39.551 311.964 39.509C312.16 39.467 312.349 39.411 312.531 39.341C312.727 39.257 312.895 39.152 313.035 39.026C313.189 38.9 313.315 38.746 313.413 38.564C313.511 38.382 313.56 38.193 313.56 37.997C313.56 37.787 313.504 37.591 313.392 37.409C313.28 37.213 313.133 37.059 312.951 36.947C312.769 36.835 312.573 36.751 312.363 36.695C312.167 36.639 311.964 36.597 311.754 36.569H311.733C311.355 36.499 310.977 36.429 310.599 36.359C310.235 36.275 309.864 36.184 309.486 36.086C309.122 35.974 308.765 35.841 308.415 35.687C308.065 35.519 307.743 35.309 307.449 35.057C307.169 34.791 306.945 34.483 306.777 34.133C306.623 33.769 306.546 33.391 306.546 32.999C306.546 32.677 306.602 32.355 306.714 32.033C306.84 31.711 307.008 31.424 307.218 31.172C307.428 30.906 307.673 30.689 307.953 30.521C308.247 30.339 308.555 30.199 308.877 30.101C309.199 29.989 309.528 29.919 309.864 29.891C310.2 29.849 310.529 29.828 310.851 29.828C311.187 29.828 311.523 29.849 311.859 29.891C312.195 29.919 312.517 29.989 312.825 30.101C313.147 30.199 313.448 30.339 313.728 30.521C314.022 30.703 314.274 30.927 314.484 31.193C314.708 31.445 314.876 31.732 314.988 32.054C315.1 32.376 315.156 32.698 315.156 33.02C315.156 33.034 315.156 33.041 315.156 33.041H313.413C313.413 32.761 313.322 32.502 313.14 32.264C312.972 32.012 312.762 31.823 312.51 31.697C312.258 31.571 311.992 31.487 311.712 31.445C311.432 31.403 311.145 31.382 310.851 31.382C310.669 31.382 310.48 31.389 310.284 31.403C310.102 31.417 309.92 31.445 309.738 31.487C309.556 31.529 309.374 31.592 309.192 31.676C309.024 31.76 308.87 31.865 308.73 31.991C308.59 32.117 308.478 32.271 308.394 32.453C308.31 32.621 308.268 32.803 308.268 32.999C308.268 33.209 308.324 33.412 308.436 33.608C308.548 33.79 308.688 33.937 308.856 34.049C309.038 34.161 309.227 34.245 309.423 34.301C309.633 34.357 309.843 34.399 310.053 34.427H310.095C310.473 34.497 310.844 34.574 311.208 34.658C311.586 34.728 311.957 34.819 312.321 34.931C312.699 35.029 313.063 35.162 313.413 35.33C313.763 35.484 314.078 35.694 314.358 35.96C314.638 36.212 314.862 36.52 315.03 36.884C315.198 37.234 315.282 37.598 315.282 37.976C315.282 38.326 315.219 38.662 315.093 38.984C314.967 39.306 314.792 39.6 314.568 39.866C314.344 40.118 314.078 40.335 313.77 40.517C313.476 40.685 313.161 40.818 312.825 40.916C312.503 41.014 312.167 41.077 311.817 41.105C311.481 41.147 311.145 41.168 310.809 41.168ZM318.97 41V29.996H320.713V32.012C320.853 31.676 321.035 31.368 321.259 31.088C321.483 30.794 321.742 30.556 322.036 30.374C322.33 30.178 322.652 30.038 323.002 29.954C323.366 29.87 323.73 29.828 324.094 29.828C324.458 29.828 324.822 29.877 325.186 29.975C325.564 30.059 325.907 30.206 326.215 30.416C326.523 30.626 326.789 30.892 327.013 31.214C327.237 31.522 327.412 31.851 327.538 32.201C327.664 32.551 327.748 32.915 327.79 33.293C327.846 33.657 327.874 34.028 327.874 34.406V41H326.131V34.406C326.131 34.154 326.11 33.902 326.068 33.65C326.04 33.384 325.977 33.132 325.879 32.894C325.781 32.656 325.648 32.439 325.48 32.243C325.312 32.033 325.116 31.865 324.892 31.739C324.682 31.599 324.444 31.501 324.178 31.445C323.926 31.389 323.674 31.361 323.422 31.361C323.17 31.361 322.911 31.389 322.645 31.445C322.393 31.501 322.155 31.599 321.931 31.739C321.721 31.865 321.532 32.033 321.364 32.243C321.196 32.439 321.063 32.656 320.965 32.894C320.867 33.132 320.797 33.384 320.755 33.65C320.727 33.902 320.713 34.154 320.713 34.406V41H318.97ZM335.993 41H334.019L336.728 36.569C336.924 36.247 337.127 35.925 337.337 35.603C337.547 35.267 337.757 34.931 337.967 34.595C337.659 34.749 337.33 34.854 336.98 34.91C336.644 34.966 336.308 34.994 335.972 34.994C335.552 34.994 335.132 34.952 334.712 34.868C334.306 34.784 333.914 34.644 333.536 34.448C333.172 34.252 332.843 34 332.549 33.692C332.269 33.37 332.038 33.02 331.856 32.642C331.688 32.264 331.569 31.865 331.499 31.445C331.429 31.025 331.394 30.612 331.394 30.206C331.394 29.772 331.429 29.352 331.499 28.946C331.569 28.526 331.688 28.127 331.856 27.749C332.038 27.357 332.276 27.007 332.57 26.699C332.864 26.391 333.193 26.139 333.557 25.943C333.935 25.733 334.334 25.593 334.754 25.523C335.174 25.439 335.594 25.397 336.014 25.397C336.462 25.397 336.903 25.446 337.337 25.544C337.771 25.642 338.177 25.81 338.555 26.048C338.933 26.272 339.255 26.559 339.521 26.909C339.801 27.259 340.025 27.644 340.193 28.064C340.361 28.47 340.473 28.897 340.529 29.345C340.599 29.779 340.634 30.22 340.634 30.668C340.634 31.27 340.571 31.872 340.445 32.474C340.319 33.062 340.144 33.636 339.92 34.196C339.696 34.742 339.43 35.281 339.122 35.813C338.828 36.331 338.527 36.849 338.219 37.367L338.198 37.388L335.993 41ZM336.014 33.44C336.42 33.44 336.819 33.37 337.211 33.23C337.617 33.076 337.946 32.838 338.198 32.516C338.464 32.194 338.646 31.83 338.744 31.424C338.842 31.018 338.891 30.612 338.891 30.206C338.891 29.786 338.842 29.373 338.744 28.967C338.646 28.561 338.464 28.197 338.198 27.875C337.946 27.553 337.617 27.322 337.211 27.182C336.819 27.028 336.42 26.951 336.014 26.951C335.608 26.951 335.202 27.028 334.796 27.182C334.404 27.322 334.075 27.553 333.809 27.875C333.557 28.197 333.382 28.561 333.284 28.967C333.186 29.373 333.137 29.779 333.137 30.185C333.137 30.605 333.186 31.018 333.284 31.424C333.382 31.83 333.557 32.194 333.809 32.516C334.075 32.838 334.404 33.076 334.796 33.23C335.188 33.37 335.594 33.44 336.014 33.44ZM357.186 44.213V42.659H359.202C359.398 42.659 359.594 42.652 359.79 42.638C359.986 42.624 360.175 42.589 360.357 42.533C360.553 42.491 360.742 42.421 360.924 42.323C361.106 42.239 361.26 42.12 361.386 41.966C361.512 41.812 361.596 41.637 361.638 41.441C361.694 41.259 361.722 41.07 361.722 40.874C361.722 40.608 361.666 40.363 361.554 40.139C361.456 39.901 361.33 39.684 361.176 39.488C361.022 39.278 360.868 39.075 360.714 38.879C360.56 38.669 360.427 38.452 360.315 38.228C360.217 37.99 360.14 37.745 360.084 37.493C360.042 37.241 360.021 36.989 360.021 36.737C360.021 36.415 360.063 36.1 360.147 35.792C360.245 35.47 360.399 35.183 360.609 34.931C360.819 34.679 361.057 34.469 361.323 34.301C361.603 34.119 361.897 33.972 362.205 33.86C361.897 33.748 361.603 33.608 361.323 33.44C361.057 33.258 360.819 33.041 360.609 32.789C360.399 32.537 360.245 32.257 360.147 31.949C360.063 31.627 360.021 31.305 360.021 30.983C360.021 30.731 360.042 30.479 360.084 30.227C360.14 29.975 360.217 29.737 360.315 29.513C360.427 29.275 360.56 29.058 360.714 28.862C360.868 28.652 361.022 28.449 361.176 28.253C361.33 28.043 361.456 27.826 361.554 27.602C361.666 27.364 361.722 27.112 361.722 26.846C361.722 26.65 361.694 26.461 361.638 26.279C361.596 26.083 361.512 25.908 361.386 25.754C361.26 25.6 361.106 25.481 360.924 25.397C360.742 25.299 360.553 25.229 360.357 25.187C360.175 25.131 359.986 25.096 359.79 25.082C359.594 25.068 359.398 25.061 359.202 25.061H357.186V23.507H359.202C359.538 23.507 359.881 23.528 360.231 23.57C360.581 23.598 360.917 23.661 361.239 23.759C361.575 23.857 361.89 24.004 362.184 24.2C362.492 24.382 362.744 24.613 362.94 24.893C363.15 25.173 363.29 25.488 363.36 25.838C363.43 26.174 363.465 26.51 363.465 26.846C363.465 27.112 363.437 27.371 363.381 27.623C363.339 27.861 363.262 28.099 363.15 28.337C363.052 28.561 362.926 28.778 362.772 28.988C362.618 29.184 362.464 29.387 362.31 29.597C362.156 29.793 362.023 30.01 361.911 30.248C361.813 30.486 361.764 30.731 361.764 30.983C361.764 31.207 361.799 31.431 361.869 31.655C361.953 31.879 362.072 32.075 362.226 32.243C362.38 32.411 362.562 32.551 362.772 32.663C362.982 32.775 363.199 32.866 363.423 32.936C363.647 32.992 363.871 33.034 364.095 33.062C364.333 33.076 364.571 33.083 364.809 33.083H365.208V34.637H364.809C364.571 34.637 364.333 34.651 364.095 34.679C363.871 34.693 363.647 34.735 363.423 34.805C363.199 34.861 362.982 34.945 362.772 35.057C362.562 35.169 362.38 35.309 362.226 35.477C362.072 35.645 361.953 35.841 361.869 36.065C361.799 36.289 361.764 36.513 361.764 36.737C361.764 36.989 361.813 37.234 361.911 37.472C362.023 37.71 362.156 37.934 362.31 38.144C362.464 38.34 362.618 38.543 362.772 38.753C362.926 38.949 363.052 39.166 363.15 39.404C363.262 39.628 363.339 39.866 363.381 40.118C363.437 40.356 363.465 40.608 363.465 40.874C363.465 41.21 363.43 41.546 363.36 41.882C363.29 42.232 363.15 42.547 362.94 42.827C362.744 43.107 362.492 43.338 362.184 43.52C361.89 43.716 361.575 43.863 361.239 43.961C360.917 44.059 360.581 44.122 360.231 44.15C359.881 44.192 359.538 44.213 359.202 44.213H357.186ZM369.778 44.213V42.659H371.794C371.99 42.659 372.186 42.652 372.382 42.638C372.578 42.624 372.767 42.589 372.949 42.533C373.145 42.491 373.334 42.421 373.516 42.323C373.698 42.239 373.852 42.12 373.978 41.966C374.104 41.812 374.188 41.637 374.23 41.441C374.286 41.259 374.314 41.07 374.314 40.874C374.314 40.608 374.258 40.363 374.146 40.139C374.048 39.901 373.922 39.684 373.768 39.488C373.614 39.278 373.46 39.075 373.306 38.879C373.152 38.669 373.019 38.452 372.907 38.228C372.809 37.99 372.732 37.745 372.676 37.493C372.634 37.241 372.613 36.989 372.613 36.737C372.613 36.415 372.655 36.1 372.739 35.792C372.837 35.47 372.991 35.183 373.201 34.931C373.411 34.679 373.649 34.469 373.915 34.301C374.195 34.119 374.489 33.972 374.797 33.86C374.489 33.748 374.195 33.608 373.915 33.44C373.649 33.258 373.411 33.041 373.201 32.789C372.991 32.537 372.837 32.257 372.739 31.949C372.655 31.627 372.613 31.305 372.613 30.983C372.613 30.731 372.634 30.479 372.676 30.227C372.732 29.975 372.809 29.737 372.907 29.513C373.019 29.275 373.152 29.058 373.306 28.862C373.46 28.652 373.614 28.449 373.768 28.253C373.922 28.043 374.048 27.826 374.146 27.602C374.258 27.364 374.314 27.112 374.314 26.846C374.314 26.65 374.286 26.461 374.23 26.279C374.188 26.083 374.104 25.908 373.978 25.754C373.852 25.6 373.698 25.481 373.516 25.397C373.334 25.299 373.145 25.229 372.949 25.187C372.767 25.131 372.578 25.096 372.382 25.082C372.186 25.068 371.99 25.061 371.794 25.061H369.778V23.507H371.794C372.13 23.507 372.473 23.528 372.823 23.57C373.173 23.598 373.509 23.661 373.831 23.759C374.167 23.857 374.482 24.004 374.776 24.2C375.084 24.382 375.336 24.613 375.532 24.893C375.742 25.173 375.882 25.488 375.952 25.838C376.022 26.174 376.057 26.51 376.057 26.846C376.057 27.112 376.029 27.371 375.973 27.623C375.931 27.861 375.854 28.099 375.742 28.337C375.644 28.561 375.518 28.778 375.364 28.988C375.21 29.184 375.056 29.387 374.902 29.597C374.748 29.793 374.615 30.01 374.503 30.248C374.405 30.486 374.356 30.731 374.356 30.983C374.356 31.207 374.391 31.431 374.461 31.655C374.545 31.879 374.664 32.075 374.818 32.243C374.972 32.411 375.154 32.551 375.364 32.663C375.574 32.775 375.791 32.866 376.015 32.936C376.239 32.992 376.463 33.034 376.687 33.062C376.925 33.076 377.163 33.083 377.401 33.083H377.8V34.637H377.401C377.163 34.637 376.925 34.651 376.687 34.679C376.463 34.693 376.239 34.735 376.015 34.805C375.791 34.861 375.574 34.945 375.364 35.057C375.154 35.169 374.972 35.309 374.818 35.477C374.664 35.645 374.545 35.841 374.461 36.065C374.391 36.289 374.356 36.513 374.356 36.737C374.356 36.989 374.405 37.234 374.503 37.472C374.615 37.71 374.748 37.934 374.902 38.144C375.056 38.34 375.21 38.543 375.364 38.753C375.518 38.949 375.644 39.166 375.742 39.404C375.854 39.628 375.931 39.866 375.973 40.118C376.029 40.356 376.057 40.608 376.057 40.874C376.057 41.21 376.022 41.546 375.952 41.882C375.882 42.232 375.742 42.547 375.532 42.827C375.336 43.107 375.084 43.338 374.776 43.52C374.482 43.716 374.167 43.863 373.831 43.961C373.509 44.059 373.173 44.122 372.823 44.15C372.473 44.192 372.13 44.213 371.794 44.213H369.778Z" fill="white"/>
<path d="M0.5 7C0.5 3.41015 3.41015 0.5 7 0.5H394V1.5H7C3.96243 1.5 1.5 3.96243 1.5 7H0.5ZM394 65.5H7C3.41015 65.5 0.5 62.5899 0.5 59H1.5C1.5 62.0376 3.96243 64.5 7 64.5H394V65.5ZM7 65.5C3.41015 65.5 0.5 62.5899 0.5 59V7C0.5 3.41015 3.41015 0.5 7 0.5V1.5C3.96243 1.5 1.5 3.96243 1.5 7V59C1.5 62.0376 3.96243 64.5 7 64.5V65.5ZM394 1V65V1Z" fill="url(#paint1_linear_3341_65649)" fill-opacity="0.7" style="mix-blend-mode:hard-light"/>
<defs>
<linearGradient id="paint0_linear_3341_65649" x1="1" y1="32.9759" x2="394" y2="32.976" gradientUnits="userSpaceOnUse">
<stop stop-color="white"/>
<stop offset="1" stop-color="white" stop-opacity="0"/>
</linearGradient>
<linearGradient id="paint1_linear_3341_65649" x1="1" y1="33.0001" x2="384.942" y2="33.0005" gradientUnits="userSpaceOnUse">
<stop stop-color="white"/>
<stop offset="1" stop-color="white" stop-opacity="0"/>
</linearGradient>
</defs>
</svg>
