<svg width="393" height="64" viewBox="0 0 393 64" fill="none" xmlns="http://www.w3.org/2000/svg">
<path d="M0 0H387C390.314 0 393 2.68629 393 6V58C393 61.3137 390.314 64 387 64H0V0Z" fill="url(#paint0_linear_3341_65651)" fill-opacity="0.1"/>
<path d="M133.314 40V26.56L130.521 28.597L129.492 27.358L133.314 24.565H135.036V40H133.314ZM141.685 40V39.979C141.685 39.573 141.692 39.174 141.706 38.782C141.72 38.376 141.762 37.977 141.832 37.585C141.902 37.193 142 36.808 142.126 36.43C142.266 36.052 142.441 35.695 142.651 35.359C142.861 35.009 143.092 34.687 143.344 34.393C143.61 34.085 143.897 33.805 144.205 33.553C144.513 33.301 144.835 33.07 145.171 32.86C145.521 32.636 145.871 32.433 146.221 32.251C146.571 32.055 146.914 31.852 147.25 31.642C147.586 31.418 147.88 31.159 148.132 30.865C148.398 30.557 148.594 30.214 148.72 29.836C148.86 29.444 148.93 29.045 148.93 28.639C148.93 28.275 148.874 27.918 148.762 27.568C148.65 27.204 148.461 26.896 148.195 26.644C147.929 26.392 147.614 26.217 147.25 26.119C146.886 26.007 146.522 25.951 146.158 25.951C145.808 25.951 145.465 25.993 145.129 26.077C144.793 26.147 144.492 26.287 144.226 26.497C143.96 26.693 143.75 26.952 143.596 27.274C143.456 27.596 143.386 27.925 143.386 28.261C143.386 28.275 143.386 28.289 143.386 28.303H141.643C141.643 28.289 141.643 28.282 141.643 28.282C141.643 28.268 141.643 28.254 141.643 28.24C141.643 27.862 141.692 27.498 141.79 27.148C141.902 26.784 142.056 26.448 142.252 26.14C142.462 25.818 142.714 25.545 143.008 25.321C143.302 25.083 143.617 24.894 143.953 24.754C144.303 24.614 144.66 24.523 145.024 24.481C145.402 24.425 145.78 24.397 146.158 24.397C146.55 24.397 146.942 24.432 147.334 24.502C147.726 24.558 148.097 24.67 148.447 24.838C148.811 24.992 149.14 25.202 149.434 25.468C149.728 25.734 149.966 26.042 150.148 26.392C150.344 26.728 150.477 27.092 150.547 27.484C150.631 27.862 150.673 28.247 150.673 28.639C150.673 29.073 150.617 29.5 150.505 29.92C150.407 30.326 150.246 30.711 150.022 31.075C149.798 31.439 149.525 31.768 149.203 32.062C148.895 32.356 148.559 32.622 148.195 32.86C147.845 33.098 147.481 33.322 147.103 33.532C146.739 33.742 146.382 33.973 146.032 34.225C145.696 34.477 145.374 34.757 145.066 35.065C144.772 35.373 144.513 35.709 144.289 36.073C144.065 36.423 143.883 36.801 143.743 37.207C143.617 37.613 143.533 38.026 143.491 38.446H150.589V40H141.685ZM158.771 40C158.393 40 158.015 39.972 157.637 39.916C157.273 39.86 156.916 39.762 156.566 39.622C156.23 39.482 155.915 39.3 155.621 39.076C155.327 38.838 155.075 38.565 154.865 38.257C154.655 37.949 154.494 37.613 154.382 37.249C154.284 36.885 154.235 36.514 154.235 36.136H155.978C155.978 36.486 156.055 36.822 156.209 37.144C156.363 37.452 156.573 37.711 156.839 37.921C157.105 38.117 157.406 38.257 157.742 38.341C158.092 38.411 158.435 38.446 158.771 38.446C159.163 38.446 159.548 38.383 159.926 38.257C160.318 38.117 160.64 37.9 160.892 37.606C161.158 37.298 161.34 36.955 161.438 36.577C161.55 36.185 161.606 35.786 161.606 35.38C161.606 35.114 161.585 34.848 161.543 34.582C161.515 34.316 161.445 34.064 161.333 33.826C161.221 33.574 161.074 33.35 160.892 33.154C160.71 32.944 160.5 32.776 160.262 32.65C160.038 32.51 159.793 32.412 159.527 32.356C159.261 32.3 158.995 32.272 158.729 32.272H156.503V30.739L160.871 26.098H154.277V24.565H162.95V26.098L158.582 30.739H158.729C159.149 30.739 159.562 30.774 159.968 30.844C160.374 30.914 160.759 31.047 161.123 31.243C161.501 31.425 161.837 31.67 162.131 31.978C162.439 32.272 162.684 32.608 162.866 32.986C163.048 33.35 163.174 33.742 163.244 34.162C163.314 34.568 163.349 34.981 163.349 35.401C163.349 35.807 163.314 36.213 163.244 36.619C163.174 37.025 163.048 37.417 162.866 37.795C162.684 38.159 162.446 38.488 162.152 38.782C161.858 39.076 161.529 39.321 161.165 39.517C160.801 39.699 160.409 39.825 159.989 39.895C159.583 39.965 159.177 40 158.771 40ZM166.869 33.637V32.083H175.773V33.637H166.869ZM183.681 40V26.56L180.888 28.597L179.859 27.358L183.681 24.565H185.403V40H183.681ZM192.052 40V39.979C192.052 39.573 192.059 39.174 192.073 38.782C192.087 38.376 192.129 37.977 192.199 37.585C192.269 37.193 192.367 36.808 192.493 36.43C192.633 36.052 192.808 35.695 193.018 35.359C193.228 35.009 193.459 34.687 193.711 34.393C193.977 34.085 194.264 33.805 194.572 33.553C194.88 33.301 195.202 33.07 195.538 32.86C195.888 32.636 196.238 32.433 196.588 32.251C196.938 32.055 197.281 31.852 197.617 31.642C197.953 31.418 198.247 31.159 198.499 30.865C198.765 30.557 198.961 30.214 199.087 29.836C199.227 29.444 199.297 29.045 199.297 28.639C199.297 28.275 199.241 27.918 199.129 27.568C199.017 27.204 198.828 26.896 198.562 26.644C198.296 26.392 197.981 26.217 197.617 26.119C197.253 26.007 196.889 25.951 196.525 25.951C196.175 25.951 195.832 25.993 195.496 26.077C195.16 26.147 194.859 26.287 194.593 26.497C194.327 26.693 194.117 26.952 193.963 27.274C193.823 27.596 193.753 27.925 193.753 28.261C193.753 28.275 193.753 28.289 193.753 28.303H192.01C192.01 28.289 192.01 28.282 192.01 28.282C192.01 28.268 192.01 28.254 192.01 28.24C192.01 27.862 192.059 27.498 192.157 27.148C192.269 26.784 192.423 26.448 192.619 26.14C192.829 25.818 193.081 25.545 193.375 25.321C193.669 25.083 193.984 24.894 194.32 24.754C194.67 24.614 195.027 24.523 195.391 24.481C195.769 24.425 196.147 24.397 196.525 24.397C196.917 24.397 197.309 24.432 197.701 24.502C198.093 24.558 198.464 24.67 198.814 24.838C199.178 24.992 199.507 25.202 199.801 25.468C200.095 25.734 200.333 26.042 200.515 26.392C200.711 26.728 200.844 27.092 200.914 27.484C200.998 27.862 201.04 28.247 201.04 28.639C201.04 29.073 200.984 29.5 200.872 29.92C200.774 30.326 200.613 30.711 200.389 31.075C200.165 31.439 199.892 31.768 199.57 32.062C199.262 32.356 198.926 32.622 198.562 32.86C198.212 33.098 197.848 33.322 197.47 33.532C197.106 33.742 196.749 33.973 196.399 34.225C196.063 34.477 195.741 34.757 195.433 35.065C195.139 35.373 194.88 35.709 194.656 36.073C194.432 36.423 194.25 36.801 194.11 37.207C193.984 37.613 193.9 38.026 193.858 38.446H200.956V40H192.052ZM204.644 33.637V32.083H213.548V33.637H204.644ZM221.457 40V26.56L218.664 28.597L217.635 27.358L221.457 24.565H223.179V40H221.457ZM229.827 40V39.979C229.827 39.573 229.834 39.174 229.848 38.782C229.862 38.376 229.904 37.977 229.974 37.585C230.044 37.193 230.142 36.808 230.268 36.43C230.408 36.052 230.583 35.695 230.793 35.359C231.003 35.009 231.234 34.687 231.486 34.393C231.752 34.085 232.039 33.805 232.347 33.553C232.655 33.301 232.977 33.07 233.313 32.86C233.663 32.636 234.013 32.433 234.363 32.251C234.713 32.055 235.056 31.852 235.392 31.642C235.728 31.418 236.022 31.159 236.274 30.865C236.54 30.557 236.736 30.214 236.862 29.836C237.002 29.444 237.072 29.045 237.072 28.639C237.072 28.275 237.016 27.918 236.904 27.568C236.792 27.204 236.603 26.896 236.337 26.644C236.071 26.392 235.756 26.217 235.392 26.119C235.028 26.007 234.664 25.951 234.3 25.951C233.95 25.951 233.607 25.993 233.271 26.077C232.935 26.147 232.634 26.287 232.368 26.497C232.102 26.693 231.892 26.952 231.738 27.274C231.598 27.596 231.528 27.925 231.528 28.261C231.528 28.275 231.528 28.289 231.528 28.303H229.785C229.785 28.289 229.785 28.282 229.785 28.282C229.785 28.268 229.785 28.254 229.785 28.24C229.785 27.862 229.834 27.498 229.932 27.148C230.044 26.784 230.198 26.448 230.394 26.14C230.604 25.818 230.856 25.545 231.15 25.321C231.444 25.083 231.759 24.894 232.095 24.754C232.445 24.614 232.802 24.523 233.166 24.481C233.544 24.425 233.922 24.397 234.3 24.397C234.692 24.397 235.084 24.432 235.476 24.502C235.868 24.558 236.239 24.67 236.589 24.838C236.953 24.992 237.282 25.202 237.576 25.468C237.87 25.734 238.108 26.042 238.29 26.392C238.486 26.728 238.619 27.092 238.689 27.484C238.773 27.862 238.815 28.247 238.815 28.639C238.815 29.073 238.759 29.5 238.647 29.92C238.549 30.326 238.388 30.711 238.164 31.075C237.94 31.439 237.667 31.768 237.345 32.062C237.037 32.356 236.701 32.622 236.337 32.86C235.987 33.098 235.623 33.322 235.245 33.532C234.881 33.742 234.524 33.973 234.174 34.225C233.838 34.477 233.516 34.757 233.208 35.065C232.914 35.373 232.655 35.709 232.431 36.073C232.207 36.423 232.025 36.801 231.885 37.207C231.759 37.613 231.675 38.026 231.633 38.446H238.731V40H229.827ZM246.913 40C246.535 40 246.157 39.972 245.779 39.916C245.415 39.86 245.058 39.762 244.708 39.622C244.372 39.482 244.057 39.3 243.763 39.076C243.469 38.838 243.217 38.565 243.007 38.257C242.797 37.949 242.636 37.613 242.524 37.249C242.426 36.885 242.377 36.514 242.377 36.136H244.12C244.12 36.486 244.197 36.822 244.351 37.144C244.505 37.452 244.715 37.711 244.981 37.921C245.247 38.117 245.548 38.257 245.884 38.341C246.234 38.411 246.577 38.446 246.913 38.446C247.305 38.446 247.69 38.383 248.068 38.257C248.46 38.117 248.782 37.9 249.034 37.606C249.3 37.298 249.482 36.955 249.58 36.577C249.692 36.185 249.748 35.786 249.748 35.38C249.748 35.114 249.727 34.848 249.685 34.582C249.657 34.316 249.587 34.064 249.475 33.826C249.363 33.574 249.216 33.35 249.034 33.154C248.852 32.944 248.642 32.776 248.404 32.65C248.18 32.51 247.935 32.412 247.669 32.356C247.403 32.3 247.137 32.272 246.871 32.272H244.645V30.739L249.013 26.098H242.419V24.565H251.092V26.098L246.724 30.739H246.871C247.291 30.739 247.704 30.774 248.11 30.844C248.516 30.914 248.901 31.047 249.265 31.243C249.643 31.425 249.979 31.67 250.273 31.978C250.581 32.272 250.826 32.608 251.008 32.986C251.19 33.35 251.316 33.742 251.386 34.162C251.456 34.568 251.491 34.981 251.491 35.401C251.491 35.807 251.456 36.213 251.386 36.619C251.316 37.025 251.19 37.417 251.008 37.795C250.826 38.159 250.588 38.488 250.294 38.782C250 39.076 249.671 39.321 249.307 39.517C248.943 39.699 248.551 39.825 248.131 39.895C247.725 39.965 247.319 40 246.913 40ZM260.597 40V35.947H254.843V34.414L258.077 28.786L260.492 24.565H262.445L262.004 25.342L256.796 34.414H260.597V30.718H262.34V34.414H263.915V35.947H262.34V40H260.597Z" fill="white"/>
<path d="M0.5 0.5H387C390.038 0.5 392.5 2.96243 392.5 6V58C392.5 61.0376 390.038 63.5 387 63.5H0.5V0.5Z" stroke="url(#paint1_linear_3341_65651)" stroke-opacity="0.7" style="mix-blend-mode:hard-light"/>
<defs>
<linearGradient id="paint0_linear_3341_65651" x1="396.86" y1="25.2614" x2="1.01365e-07" y2="25.2614" gradientUnits="userSpaceOnUse">
<stop stop-color="white"/>
<stop offset="1" stop-color="white" stop-opacity="0"/>
</linearGradient>
<linearGradient id="paint1_linear_3341_65651" x1="387.425" y1="5.00038" x2="-0.0161205" y2="2.57208" gradientUnits="userSpaceOnUse">
<stop stop-color="white"/>
<stop offset="1" stop-color="white" stop-opacity="0"/>
</linearGradient>
</defs>
</svg>
