<svg width="1200" height="112" viewBox="0 0 1200 112" fill="none" xmlns="http://www.w3.org/2000/svg">
<path d="M24 30C24 26.6863 26.6863 24 30 24H522V88H30C26.6863 88 24 85.3137 24 82V30Z" fill="url(#paint0_linear_3341_65648)" fill-opacity="0.1"/>
<path d="M100.73 67.213H98.7139C98.3779 67.213 98.0349 67.192 97.6849 67.15C97.3349 67.122 96.9919 67.059 96.6559 66.961C96.3339 66.863 96.0189 66.716 95.7109 66.52C95.4169 66.338 95.1649 66.107 94.9549 65.827C94.7589 65.547 94.6259 65.232 94.5559 64.882C94.4859 64.546 94.4509 64.21 94.4509 63.874C94.4509 63.608 94.4719 63.356 94.5139 63.118C94.5699 62.866 94.6469 62.628 94.7449 62.404C94.8569 62.166 94.9899 61.949 95.1439 61.753C95.2979 61.543 95.4519 61.34 95.6059 61.144C95.7599 60.934 95.8859 60.71 95.9839 60.472C96.0959 60.234 96.1519 59.989 96.1519 59.737C96.1519 59.513 96.1099 59.289 96.0259 59.065C95.9559 58.841 95.8439 58.645 95.6899 58.477C95.5359 58.309 95.3539 58.169 95.1439 58.057C94.9339 57.945 94.7169 57.861 94.4929 57.805C94.2689 57.735 94.0379 57.693 93.7999 57.679C93.5759 57.651 93.3449 57.637 93.1069 57.637H92.7079V56.083H93.1069C93.3449 56.083 93.5759 56.076 93.7999 56.062C94.0379 56.034 94.2689 55.992 94.4929 55.936C94.7169 55.866 94.9339 55.775 95.1439 55.663C95.3539 55.551 95.5359 55.411 95.6899 55.243C95.8439 55.075 95.9559 54.879 96.0259 54.655C96.1099 54.431 96.1519 54.207 96.1519 53.983C96.1519 53.731 96.0959 53.486 95.9839 53.248C95.8859 53.01 95.7599 52.793 95.6059 52.597C95.4519 52.387 95.2979 52.184 95.1439 51.988C94.9899 51.778 94.8569 51.561 94.7449 51.337C94.6469 51.099 94.5699 50.861 94.5139 50.623C94.4719 50.371 94.4509 50.112 94.4509 49.846C94.4509 49.51 94.4859 49.174 94.5559 48.838C94.6259 48.488 94.7589 48.173 94.9549 47.893C95.1649 47.613 95.4169 47.382 95.7109 47.2C96.0189 47.004 96.3339 46.857 96.6559 46.759C96.9919 46.661 97.3349 46.598 97.6849 46.57C98.0349 46.528 98.3779 46.507 98.7139 46.507H100.73V48.061H98.7139C98.5179 48.061 98.3219 48.068 98.1259 48.082C97.9299 48.096 97.7339 48.131 97.5379 48.187C97.3559 48.229 97.1739 48.299 96.9919 48.397C96.8099 48.481 96.6559 48.6 96.5299 48.754C96.4039 48.908 96.3129 49.083 96.2569 49.279C96.2149 49.461 96.1939 49.65 96.1939 49.846C96.1939 50.112 96.2429 50.364 96.3409 50.602C96.4529 50.826 96.5859 51.043 96.7399 51.253C96.8939 51.449 97.0479 51.652 97.2019 51.862C97.3559 52.058 97.4819 52.275 97.5799 52.513C97.6919 52.737 97.7689 52.975 97.8109 53.227C97.8669 53.479 97.8949 53.731 97.8949 53.983C97.8949 54.305 97.8459 54.627 97.7479 54.949C97.6639 55.257 97.5169 55.537 97.3069 55.789C97.0969 56.041 96.8519 56.258 96.5719 56.44C96.3059 56.608 96.0189 56.748 95.7109 56.86C96.0189 56.972 96.3059 57.119 96.5719 57.301C96.8519 57.469 97.0969 57.679 97.3069 57.931C97.5169 58.183 97.6639 58.47 97.7479 58.792C97.8459 59.1 97.8949 59.415 97.8949 59.737C97.8949 59.989 97.8669 60.241 97.8109 60.493C97.7689 60.745 97.6919 60.99 97.5799 61.228C97.4819 61.452 97.3559 61.669 97.2019 61.879C97.0479 62.075 96.8939 62.278 96.7399 62.488C96.5859 62.684 96.4529 62.901 96.3409 63.139C96.2429 63.363 96.1939 63.608 96.1939 63.874C96.1939 64.07 96.2149 64.259 96.2569 64.441C96.3129 64.637 96.4039 64.812 96.5299 64.966C96.6559 65.12 96.8099 65.239 96.9919 65.323C97.1739 65.421 97.3559 65.491 97.5379 65.533C97.7339 65.589 97.9299 65.624 98.1259 65.638C98.3219 65.652 98.5179 65.659 98.7139 65.659H100.73V67.213ZM113.322 67.213H111.306C110.97 67.213 110.627 67.192 110.277 67.15C109.927 67.122 109.584 67.059 109.248 66.961C108.926 66.863 108.611 66.716 108.303 66.52C108.009 66.338 107.757 66.107 107.547 65.827C107.351 65.547 107.218 65.232 107.148 64.882C107.078 64.546 107.043 64.21 107.043 63.874C107.043 63.608 107.064 63.356 107.106 63.118C107.162 62.866 107.239 62.628 107.337 62.404C107.449 62.166 107.582 61.949 107.736 61.753C107.89 61.543 108.044 61.34 108.198 61.144C108.352 60.934 108.478 60.71 108.576 60.472C108.688 60.234 108.744 59.989 108.744 59.737C108.744 59.513 108.702 59.289 108.618 59.065C108.548 58.841 108.436 58.645 108.282 58.477C108.128 58.309 107.946 58.169 107.736 58.057C107.526 57.945 107.309 57.861 107.085 57.805C106.861 57.735 106.63 57.693 106.392 57.679C106.168 57.651 105.937 57.637 105.699 57.637H105.3V56.083H105.699C105.937 56.083 106.168 56.076 106.392 56.062C106.63 56.034 106.861 55.992 107.085 55.936C107.309 55.866 107.526 55.775 107.736 55.663C107.946 55.551 108.128 55.411 108.282 55.243C108.436 55.075 108.548 54.879 108.618 54.655C108.702 54.431 108.744 54.207 108.744 53.983C108.744 53.731 108.688 53.486 108.576 53.248C108.478 53.01 108.352 52.793 108.198 52.597C108.044 52.387 107.89 52.184 107.736 51.988C107.582 51.778 107.449 51.561 107.337 51.337C107.239 51.099 107.162 50.861 107.106 50.623C107.064 50.371 107.043 50.112 107.043 49.846C107.043 49.51 107.078 49.174 107.148 48.838C107.218 48.488 107.351 48.173 107.547 47.893C107.757 47.613 108.009 47.382 108.303 47.2C108.611 47.004 108.926 46.857 109.248 46.759C109.584 46.661 109.927 46.598 110.277 46.57C110.627 46.528 110.97 46.507 111.306 46.507H113.322V48.061H111.306C111.11 48.061 110.914 48.068 110.718 48.082C110.522 48.096 110.326 48.131 110.13 48.187C109.948 48.229 109.766 48.299 109.584 48.397C109.402 48.481 109.248 48.6 109.122 48.754C108.996 48.908 108.905 49.083 108.849 49.279C108.807 49.461 108.786 49.65 108.786 49.846C108.786 50.112 108.835 50.364 108.933 50.602C109.045 50.826 109.178 51.043 109.332 51.253C109.486 51.449 109.64 51.652 109.794 51.862C109.948 52.058 110.074 52.275 110.172 52.513C110.284 52.737 110.361 52.975 110.403 53.227C110.459 53.479 110.487 53.731 110.487 53.983C110.487 54.305 110.438 54.627 110.34 54.949C110.256 55.257 110.109 55.537 109.899 55.789C109.689 56.041 109.444 56.258 109.164 56.44C108.898 56.608 108.611 56.748 108.303 56.86C108.611 56.972 108.898 57.119 109.164 57.301C109.444 57.469 109.689 57.679 109.899 57.931C110.109 58.183 110.256 58.47 110.34 58.792C110.438 59.1 110.487 59.415 110.487 59.737C110.487 59.989 110.459 60.241 110.403 60.493C110.361 60.745 110.284 60.99 110.172 61.228C110.074 61.452 109.948 61.669 109.794 61.879C109.64 62.075 109.486 62.278 109.332 62.488C109.178 62.684 109.045 62.901 108.933 63.139C108.835 63.363 108.786 63.608 108.786 63.874C108.786 64.07 108.807 64.259 108.849 64.441C108.905 64.637 108.996 64.812 109.122 64.966C109.248 65.12 109.402 65.239 109.584 65.323C109.766 65.421 109.948 65.491 110.13 65.533C110.326 65.589 110.522 65.624 110.718 65.638C110.914 65.652 111.11 65.659 111.306 65.659H113.322V67.213ZM133.129 64V54.529H130.042V52.996H133.129V51.82C133.129 51.526 133.15 51.239 133.192 50.959C133.248 50.665 133.339 50.385 133.465 50.119C133.591 49.853 133.759 49.615 133.969 49.405C134.179 49.195 134.417 49.027 134.683 48.901C134.949 48.775 135.222 48.691 135.502 48.649C135.796 48.593 136.09 48.565 136.384 48.565H138.946V50.098H136.384C136.16 50.098 135.943 50.14 135.733 50.224C135.537 50.308 135.369 50.434 135.229 50.602C135.089 50.77 134.991 50.959 134.935 51.169C134.893 51.379 134.872 51.596 134.872 51.82V52.996H138.946V54.55H134.872V64H133.129ZM142.634 68.431V52.996H144.377V55.012C144.517 54.676 144.699 54.368 144.923 54.088C145.147 53.794 145.406 53.549 145.7 53.353C146.008 53.157 146.337 53.024 146.687 52.954C147.051 52.87 147.408 52.828 147.758 52.828C148.15 52.828 148.528 52.87 148.892 52.954C149.27 53.038 149.62 53.185 149.942 53.395C150.264 53.605 150.544 53.864 150.782 54.172C151.02 54.48 151.209 54.816 151.349 55.18C151.489 55.53 151.58 55.894 151.622 56.272C151.678 56.65 151.706 57.028 151.706 57.406V59.59C151.706 59.968 151.678 60.346 151.622 60.724C151.58 61.102 151.489 61.473 151.349 61.837C151.209 62.187 151.02 62.516 150.782 62.824C150.544 63.132 150.264 63.391 149.942 63.601C149.62 63.811 149.27 63.958 148.892 64.042C148.528 64.126 148.15 64.168 147.758 64.168C147.408 64.168 147.051 64.126 146.687 64.042C146.337 63.972 146.008 63.839 145.7 63.643C145.406 63.447 145.147 63.209 144.923 62.929C144.699 62.635 144.517 62.32 144.377 61.984V68.431H142.634ZM147.107 62.635C147.373 62.635 147.632 62.607 147.884 62.551C148.15 62.495 148.395 62.404 148.619 62.278C148.857 62.152 149.067 61.991 149.249 61.795C149.431 61.585 149.571 61.361 149.669 61.123C149.781 60.885 149.858 60.64 149.9 60.388C149.942 60.122 149.963 59.856 149.963 59.59V57.406C149.963 57.14 149.942 56.881 149.9 56.629C149.858 56.363 149.781 56.111 149.669 55.873C149.571 55.635 149.431 55.418 149.249 55.222C149.067 55.012 148.857 54.844 148.619 54.718C148.395 54.592 148.15 54.501 147.884 54.445C147.632 54.389 147.373 54.361 147.107 54.361C146.841 54.361 146.582 54.389 146.33 54.445C146.078 54.501 145.84 54.599 145.616 54.739C145.392 54.865 145.196 55.033 145.028 55.243C144.86 55.439 144.727 55.656 144.629 55.894C144.531 56.132 144.461 56.384 144.419 56.65C144.391 56.902 144.377 57.154 144.377 57.406V59.59C144.377 59.842 144.391 60.101 144.419 60.367C144.461 60.619 144.531 60.864 144.629 61.102C144.727 61.34 144.86 61.564 145.028 61.774C145.196 61.97 145.392 62.138 145.616 62.278C145.84 62.404 146.078 62.495 146.33 62.551C146.582 62.607 146.841 62.635 147.107 62.635ZM155.226 65.533V64H164.13V65.533H155.226ZM168.049 64V62.446H171.577V54.55H168.385V52.996H173.299V62.446H176.491V64H168.049ZM172.27 51.148C172.088 51.148 171.913 51.127 171.745 51.085C171.577 51.029 171.43 50.938 171.304 50.812C171.178 50.686 171.087 50.539 171.031 50.371C170.989 50.203 170.968 50.028 170.968 49.846C170.968 49.664 170.989 49.489 171.031 49.321C171.087 49.153 171.178 49.006 171.304 48.88C171.43 48.754 171.577 48.663 171.745 48.607C171.913 48.551 172.088 48.523 172.27 48.523C172.452 48.523 172.627 48.551 172.795 48.607C172.963 48.663 173.11 48.754 173.236 48.88C173.362 49.006 173.453 49.153 173.509 49.321C173.565 49.489 173.593 49.664 173.593 49.846C173.593 50.028 173.565 50.203 173.509 50.371C173.453 50.539 173.362 50.686 173.236 50.812C173.11 50.938 172.963 51.029 172.795 51.085C172.627 51.127 172.452 51.148 172.27 51.148ZM184.19 64.168C183.798 64.168 183.413 64.126 183.035 64.042C182.671 63.958 182.328 63.811 182.006 63.601C181.684 63.391 181.404 63.132 181.166 62.824C180.928 62.516 180.739 62.187 180.599 61.837C180.459 61.473 180.361 61.102 180.305 60.724C180.263 60.346 180.242 59.968 180.242 59.59V57.406C180.242 57.028 180.263 56.65 180.305 56.272C180.361 55.894 180.459 55.53 180.599 55.18C180.739 54.816 180.928 54.48 181.166 54.172C181.404 53.864 181.684 53.605 182.006 53.395C182.328 53.185 182.671 53.038 183.035 52.954C183.413 52.87 183.798 52.828 184.19 52.828C184.54 52.828 184.89 52.87 185.24 52.954C185.604 53.024 185.933 53.157 186.227 53.353C186.535 53.549 186.801 53.794 187.025 54.088C187.249 54.368 187.431 54.676 187.571 55.012V48.565H189.314V64H187.571V61.984C187.431 62.32 187.249 62.635 187.025 62.929C186.801 63.209 186.535 63.447 186.227 63.643C185.933 63.839 185.604 63.972 185.24 64.042C184.89 64.126 184.54 64.168 184.19 64.168ZM184.841 62.635C185.107 62.635 185.366 62.607 185.618 62.551C185.87 62.495 186.108 62.404 186.332 62.278C186.556 62.138 186.752 61.97 186.92 61.774C187.088 61.564 187.221 61.34 187.319 61.102C187.417 60.864 187.48 60.619 187.508 60.367C187.55 60.101 187.571 59.842 187.571 59.59V57.406C187.571 57.154 187.55 56.902 187.508 56.65C187.48 56.384 187.417 56.132 187.319 55.894C187.221 55.656 187.088 55.439 186.92 55.243C186.752 55.033 186.556 54.865 186.332 54.739C186.108 54.599 185.87 54.501 185.618 54.445C185.366 54.389 185.107 54.361 184.841 54.361C184.575 54.361 184.309 54.389 184.043 54.445C183.791 54.501 183.546 54.592 183.308 54.718C183.084 54.844 182.881 55.012 182.699 55.222C182.517 55.418 182.37 55.635 182.258 55.873C182.16 56.111 182.09 56.363 182.048 56.629C182.006 56.881 181.985 57.14 181.985 57.406V59.59C181.985 59.856 182.006 60.122 182.048 60.388C182.09 60.64 182.16 60.885 182.258 61.123C182.37 61.361 182.517 61.585 182.699 61.795C182.881 61.991 183.084 62.152 183.308 62.278C183.546 62.404 183.791 62.495 184.043 62.551C184.309 62.607 184.575 62.635 184.841 62.635ZM193.001 65.533V64H201.905V65.533H193.001ZM210.024 64.168C209.646 64.168 209.268 64.14 208.89 64.084C208.512 64.042 208.141 63.951 207.777 63.811C207.427 63.671 207.098 63.489 206.79 63.265C206.496 63.027 206.237 62.754 206.013 62.446C205.803 62.124 205.642 61.781 205.53 61.417C205.432 61.039 205.383 60.661 205.383 60.283C205.383 60.283 205.383 60.276 205.383 60.262C205.383 60.248 205.383 60.241 205.383 60.241H207.126C207.126 60.241 207.126 60.248 207.126 60.262C207.126 60.612 207.203 60.955 207.357 61.291C207.511 61.613 207.728 61.879 208.008 62.089C208.302 62.285 208.624 62.425 208.974 62.509C209.324 62.579 209.674 62.614 210.024 62.614C210.388 62.614 210.745 62.572 211.095 62.488C211.459 62.404 211.781 62.25 212.061 62.026C212.341 61.788 212.558 61.501 212.712 61.165C212.866 60.829 212.943 60.479 212.943 60.115C212.943 59.737 212.852 59.373 212.67 59.023C212.488 58.673 212.25 58.379 211.956 58.141C211.662 57.889 211.333 57.693 210.969 57.553C210.619 57.399 210.262 57.259 209.898 57.133C209.548 57.007 209.198 56.874 208.848 56.734C208.498 56.58 208.162 56.405 207.84 56.209C207.518 55.999 207.217 55.761 206.937 55.495C206.657 55.229 206.412 54.935 206.202 54.613C206.006 54.291 205.852 53.948 205.74 53.584C205.642 53.206 205.593 52.828 205.593 52.45C205.593 52.072 205.642 51.701 205.74 51.337C205.838 50.959 205.978 50.609 206.16 50.287C206.356 49.951 206.601 49.657 206.895 49.405C207.189 49.153 207.504 48.95 207.84 48.796C208.19 48.642 208.554 48.537 208.932 48.481C209.31 48.425 209.688 48.397 210.066 48.397C210.444 48.397 210.815 48.425 211.179 48.481C211.543 48.537 211.893 48.635 212.229 48.775C212.579 48.915 212.901 49.104 213.195 49.342C213.489 49.566 213.734 49.832 213.93 50.14C214.14 50.448 214.294 50.784 214.392 51.148C214.49 51.512 214.539 51.876 214.539 52.24C214.539 52.254 214.539 52.268 214.539 52.282C214.539 52.282 214.539 52.289 214.539 52.303H212.796C212.796 52.289 212.796 52.275 212.796 52.261C212.796 51.925 212.726 51.603 212.586 51.295C212.446 50.973 212.243 50.707 211.977 50.497C211.711 50.287 211.41 50.147 211.074 50.077C210.738 49.993 210.402 49.951 210.066 49.951C209.716 49.951 209.366 50 209.016 50.098C208.68 50.182 208.379 50.343 208.113 50.581C207.861 50.805 207.665 51.085 207.525 51.421C207.385 51.757 207.315 52.1 207.315 52.45C207.315 52.828 207.406 53.192 207.588 53.542C207.77 53.892 208.001 54.193 208.281 54.445C208.575 54.683 208.897 54.879 209.247 55.033C209.611 55.173 209.975 55.306 210.339 55.432C210.703 55.558 211.06 55.698 211.41 55.852C211.76 55.992 212.096 56.167 212.418 56.377C212.74 56.573 213.041 56.804 213.321 57.07C213.601 57.336 213.839 57.63 214.035 57.952C214.245 58.274 214.399 58.617 214.497 58.981C214.609 59.345 214.665 59.723 214.665 60.115C214.665 60.493 214.609 60.871 214.497 61.249C214.399 61.627 214.245 61.984 214.035 62.32C213.839 62.642 213.587 62.929 213.279 63.181C212.971 63.433 212.635 63.636 212.271 63.79C211.921 63.93 211.55 64.028 211.158 64.084C210.78 64.14 210.402 64.168 210.024 64.168ZM219.634 64V52.996H221.377V55.285C221.489 54.949 221.636 54.627 221.818 54.319C222.014 54.011 222.245 53.745 222.511 53.521C222.777 53.283 223.078 53.108 223.414 52.996C223.764 52.884 224.114 52.828 224.464 52.828C224.758 52.828 225.052 52.863 225.346 52.933C225.64 52.989 225.906 53.101 226.144 53.269C226.382 53.437 226.585 53.647 226.753 53.899C226.935 54.137 227.068 54.396 227.152 54.676C227.25 54.956 227.313 55.243 227.341 55.537C227.383 55.831 227.404 56.125 227.404 56.419H225.661C225.661 56.181 225.64 55.943 225.598 55.705C225.556 55.453 225.472 55.222 225.346 55.012C225.22 54.802 225.045 54.648 224.821 54.55C224.597 54.438 224.359 54.382 224.107 54.382C223.813 54.382 223.519 54.424 223.225 54.508C222.945 54.592 222.693 54.732 222.469 54.928C222.259 55.124 222.077 55.355 221.923 55.621C221.783 55.873 221.671 56.139 221.587 56.419C221.503 56.699 221.447 56.986 221.419 57.28C221.391 57.574 221.377 57.868 221.377 58.162V64H219.634ZM234.557 64.168C234.165 64.168 233.78 64.126 233.402 64.042C233.038 63.958 232.695 63.811 232.373 63.601C232.051 63.391 231.771 63.132 231.533 62.824C231.295 62.516 231.106 62.187 230.966 61.837C230.826 61.473 230.728 61.102 230.672 60.724C230.63 60.346 230.609 59.968 230.609 59.59V57.406C230.609 57.028 230.63 56.65 230.672 56.272C230.728 55.894 230.826 55.53 230.966 55.18C231.106 54.816 231.295 54.48 231.533 54.172C231.771 53.864 232.051 53.605 232.373 53.395C232.695 53.185 233.038 53.038 233.402 52.954C233.78 52.87 234.165 52.828 234.557 52.828C234.907 52.828 235.257 52.87 235.607 52.954C235.971 53.024 236.3 53.157 236.594 53.353C236.902 53.549 237.168 53.794 237.392 54.088C237.616 54.368 237.798 54.676 237.938 55.012V48.565H239.681V64H237.938V61.984C237.798 62.32 237.616 62.635 237.392 62.929C237.168 63.209 236.902 63.447 236.594 63.643C236.3 63.839 235.971 63.972 235.607 64.042C235.257 64.126 234.907 64.168 234.557 64.168ZM235.208 62.635C235.474 62.635 235.733 62.607 235.985 62.551C236.237 62.495 236.475 62.404 236.699 62.278C236.923 62.138 237.119 61.97 237.287 61.774C237.455 61.564 237.588 61.34 237.686 61.102C237.784 60.864 237.847 60.619 237.875 60.367C237.917 60.101 237.938 59.842 237.938 59.59V57.406C237.938 57.154 237.917 56.902 237.875 56.65C237.847 56.384 237.784 56.132 237.686 55.894C237.588 55.656 237.455 55.439 237.287 55.243C237.119 55.033 236.923 54.865 236.699 54.739C236.475 54.599 236.237 54.501 235.985 54.445C235.733 54.389 235.474 54.361 235.208 54.361C234.942 54.361 234.676 54.389 234.41 54.445C234.158 54.501 233.913 54.592 233.675 54.718C233.451 54.844 233.248 55.012 233.066 55.222C232.884 55.418 232.737 55.635 232.625 55.873C232.527 56.111 232.457 56.363 232.415 56.629C232.373 56.881 232.352 57.14 232.352 57.406V59.59C232.352 59.856 232.373 60.122 232.415 60.388C232.457 60.64 232.527 60.885 232.625 61.123C232.737 61.361 232.884 61.585 233.066 61.795C233.248 61.991 233.451 62.152 233.675 62.278C233.913 62.404 234.158 62.495 234.41 62.551C234.676 62.607 234.942 62.635 235.208 62.635ZM248.703 64V61.207H251.496V64H248.703ZM259.026 64V61.207H261.819V64H259.026ZM269.35 64V61.207H272.143V64H269.35ZM285.575 64.168C285.197 64.168 284.819 64.14 284.441 64.084C284.063 64.042 283.692 63.951 283.328 63.811C282.978 63.671 282.649 63.489 282.341 63.265C282.047 63.027 281.788 62.754 281.564 62.446C281.354 62.124 281.193 61.781 281.081 61.417C280.983 61.039 280.934 60.661 280.934 60.283C280.934 60.283 280.934 60.276 280.934 60.262C280.934 60.248 280.934 60.241 280.934 60.241H282.677C282.677 60.241 282.677 60.248 282.677 60.262C282.677 60.612 282.754 60.955 282.908 61.291C283.062 61.613 283.279 61.879 283.559 62.089C283.853 62.285 284.175 62.425 284.525 62.509C284.875 62.579 285.225 62.614 285.575 62.614C285.939 62.614 286.296 62.572 286.646 62.488C287.01 62.404 287.332 62.25 287.612 62.026C287.892 61.788 288.109 61.501 288.263 61.165C288.417 60.829 288.494 60.479 288.494 60.115C288.494 59.737 288.403 59.373 288.221 59.023C288.039 58.673 287.801 58.379 287.507 58.141C287.213 57.889 286.884 57.693 286.52 57.553C286.17 57.399 285.813 57.259 285.449 57.133C285.099 57.007 284.749 56.874 284.399 56.734C284.049 56.58 283.713 56.405 283.391 56.209C283.069 55.999 282.768 55.761 282.488 55.495C282.208 55.229 281.963 54.935 281.753 54.613C281.557 54.291 281.403 53.948 281.291 53.584C281.193 53.206 281.144 52.828 281.144 52.45C281.144 52.072 281.193 51.701 281.291 51.337C281.389 50.959 281.529 50.609 281.711 50.287C281.907 49.951 282.152 49.657 282.446 49.405C282.74 49.153 283.055 48.95 283.391 48.796C283.741 48.642 284.105 48.537 284.483 48.481C284.861 48.425 285.239 48.397 285.617 48.397C285.995 48.397 286.366 48.425 286.73 48.481C287.094 48.537 287.444 48.635 287.78 48.775C288.13 48.915 288.452 49.104 288.746 49.342C289.04 49.566 289.285 49.832 289.481 50.14C289.691 50.448 289.845 50.784 289.943 51.148C290.041 51.512 290.09 51.876 290.09 52.24C290.09 52.254 290.09 52.268 290.09 52.282C290.09 52.282 290.09 52.289 290.09 52.303H288.347C288.347 52.289 288.347 52.275 288.347 52.261C288.347 51.925 288.277 51.603 288.137 51.295C287.997 50.973 287.794 50.707 287.528 50.497C287.262 50.287 286.961 50.147 286.625 50.077C286.289 49.993 285.953 49.951 285.617 49.951C285.267 49.951 284.917 50 284.567 50.098C284.231 50.182 283.93 50.343 283.664 50.581C283.412 50.805 283.216 51.085 283.076 51.421C282.936 51.757 282.866 52.1 282.866 52.45C282.866 52.828 282.957 53.192 283.139 53.542C283.321 53.892 283.552 54.193 283.832 54.445C284.126 54.683 284.448 54.879 284.798 55.033C285.162 55.173 285.526 55.306 285.89 55.432C286.254 55.558 286.611 55.698 286.961 55.852C287.311 55.992 287.647 56.167 287.969 56.377C288.291 56.573 288.592 56.804 288.872 57.07C289.152 57.336 289.39 57.63 289.586 57.952C289.796 58.274 289.95 58.617 290.048 58.981C290.16 59.345 290.216 59.723 290.216 60.115C290.216 60.493 290.16 60.871 290.048 61.249C289.95 61.627 289.796 61.984 289.586 62.32C289.39 62.642 289.138 62.929 288.83 63.181C288.522 63.433 288.186 63.636 287.822 63.79C287.472 63.93 287.101 64.028 286.709 64.084C286.331 64.14 285.953 64.168 285.575 64.168ZM298.776 67.465L297.957 64.168C297.565 64.154 297.173 64.105 296.781 64.021C296.389 63.951 296.018 63.825 295.668 63.643C295.332 63.461 295.017 63.23 294.723 62.95C294.443 62.656 294.212 62.334 294.03 61.984C293.862 61.634 293.743 61.263 293.673 60.871C293.603 60.479 293.568 60.087 293.568 59.695V52.87C293.568 52.464 293.603 52.058 293.673 51.652C293.757 51.246 293.89 50.868 294.072 50.518C294.268 50.154 294.513 49.832 294.807 49.552C295.115 49.258 295.451 49.027 295.815 48.859C296.193 48.691 296.578 48.565 296.97 48.481C297.376 48.383 297.782 48.334 298.188 48.334C298.594 48.334 298.993 48.383 299.385 48.481C299.791 48.565 300.176 48.691 300.54 48.859C300.918 49.027 301.254 49.258 301.548 49.552C301.856 49.832 302.101 50.154 302.283 50.518C302.479 50.868 302.612 51.246 302.682 51.652C302.766 52.058 302.808 52.464 302.808 52.87V59.695C302.808 60.017 302.787 60.339 302.745 60.661C302.703 60.983 302.619 61.298 302.493 61.606C302.381 61.9 302.234 62.18 302.052 62.446C301.87 62.712 301.653 62.95 301.401 63.16C301.163 63.37 300.897 63.545 300.603 63.685C300.309 63.825 300.008 63.93 299.7 64L300.519 67.465H298.776ZM298.188 62.614C298.454 62.614 298.713 62.593 298.965 62.551C299.217 62.509 299.455 62.432 299.679 62.32C299.917 62.194 300.127 62.04 300.309 61.858C300.505 61.662 300.659 61.452 300.771 61.228C300.883 60.99 300.96 60.745 301.002 60.493C301.044 60.227 301.065 59.961 301.065 59.695V52.87C301.065 52.604 301.044 52.345 301.002 52.093C300.96 51.827 300.876 51.582 300.75 51.358C300.638 51.12 300.491 50.903 300.309 50.707C300.127 50.511 299.917 50.357 299.679 50.245C299.441 50.133 299.189 50.056 298.923 50.014C298.671 49.958 298.412 49.93 298.146 49.93C297.894 49.93 297.635 49.958 297.369 50.014C297.117 50.07 296.879 50.161 296.655 50.287C296.431 50.399 296.228 50.553 296.046 50.749C295.864 50.931 295.717 51.141 295.605 51.379C295.493 51.603 295.416 51.841 295.374 52.093C295.332 52.345 295.311 52.604 295.311 52.87V59.695C295.311 59.961 295.332 60.227 295.374 60.493C295.416 60.745 295.493 60.99 295.605 61.228C295.717 61.452 295.864 61.662 296.046 61.858C296.242 62.04 296.452 62.194 296.676 62.32C296.914 62.432 297.159 62.509 297.411 62.551C297.663 62.593 297.922 62.614 298.188 62.614ZM313.488 68.431V61.984C313.348 62.32 313.166 62.635 312.942 62.929C312.718 63.209 312.452 63.447 312.144 63.643C311.85 63.839 311.521 63.972 311.157 64.042C310.807 64.126 310.457 64.168 310.107 64.168C309.715 64.168 309.33 64.126 308.952 64.042C308.588 63.958 308.245 63.811 307.923 63.601C307.601 63.391 307.321 63.132 307.083 62.824C306.845 62.516 306.656 62.187 306.516 61.837C306.376 61.473 306.278 61.102 306.222 60.724C306.18 60.346 306.159 59.968 306.159 59.59V57.406C306.159 57.028 306.18 56.65 306.222 56.272C306.278 55.894 306.376 55.53 306.516 55.18C306.656 54.816 306.845 54.48 307.083 54.172C307.321 53.864 307.601 53.605 307.923 53.395C308.245 53.185 308.588 53.038 308.952 52.954C309.33 52.87 309.715 52.828 310.107 52.828C310.457 52.828 310.807 52.87 311.157 52.954C311.521 53.024 311.85 53.157 312.144 53.353C312.452 53.549 312.718 53.794 312.942 54.088C313.166 54.368 313.348 54.676 313.488 55.012V52.996H315.231V68.431H313.488ZM310.758 62.635C311.024 62.635 311.283 62.607 311.535 62.551C311.787 62.495 312.025 62.404 312.249 62.278C312.473 62.138 312.669 61.97 312.837 61.774C313.005 61.564 313.138 61.34 313.236 61.102C313.334 60.864 313.397 60.619 313.425 60.367C313.467 60.101 313.488 59.842 313.488 59.59V57.406C313.488 57.154 313.467 56.902 313.425 56.65C313.397 56.384 313.334 56.132 313.236 55.894C313.138 55.656 313.005 55.439 312.837 55.243C312.669 55.033 312.473 54.865 312.249 54.739C312.025 54.599 311.787 54.501 311.535 54.445C311.283 54.389 311.024 54.361 310.758 54.361C310.492 54.361 310.226 54.389 309.96 54.445C309.708 54.501 309.463 54.592 309.225 54.718C309.001 54.844 308.798 55.012 308.616 55.222C308.434 55.418 308.287 55.635 308.175 55.873C308.077 56.111 308.007 56.363 307.965 56.629C307.923 56.881 307.902 57.14 307.902 57.406V59.59C307.902 59.856 307.923 60.122 307.965 60.388C308.007 60.64 308.077 60.885 308.175 61.123C308.287 61.361 308.434 61.585 308.616 61.795C308.798 61.991 309.001 62.152 309.225 62.278C309.463 62.404 309.708 62.495 309.96 62.551C310.226 62.607 310.492 62.635 310.758 62.635ZM321.985 64V61.207H324.778V64H321.985ZM331.742 64V62.446H335.27V54.55H332.078V52.996H336.992V62.446H340.184V64H331.742ZM335.963 51.148C335.781 51.148 335.606 51.127 335.438 51.085C335.27 51.029 335.123 50.938 334.997 50.812C334.871 50.686 334.78 50.539 334.724 50.371C334.682 50.203 334.661 50.028 334.661 49.846C334.661 49.664 334.682 49.489 334.724 49.321C334.78 49.153 334.871 49.006 334.997 48.88C335.123 48.754 335.27 48.663 335.438 48.607C335.606 48.551 335.781 48.523 335.963 48.523C336.145 48.523 336.32 48.551 336.488 48.607C336.656 48.663 336.803 48.754 336.929 48.88C337.055 49.006 337.146 49.153 337.202 49.321C337.258 49.489 337.286 49.664 337.286 49.846C337.286 50.028 337.258 50.203 337.202 50.371C337.146 50.539 337.055 50.686 336.929 50.812C336.803 50.938 336.656 51.029 336.488 51.085C336.32 51.127 336.145 51.148 335.963 51.148ZM347.883 64.168C347.491 64.168 347.106 64.126 346.728 64.042C346.364 63.958 346.021 63.811 345.699 63.601C345.377 63.391 345.097 63.132 344.859 62.824C344.621 62.516 344.432 62.187 344.292 61.837C344.152 61.473 344.054 61.102 343.998 60.724C343.956 60.346 343.935 59.968 343.935 59.59V57.406C343.935 57.028 343.956 56.65 343.998 56.272C344.054 55.894 344.152 55.53 344.292 55.18C344.432 54.816 344.621 54.48 344.859 54.172C345.097 53.864 345.377 53.605 345.699 53.395C346.021 53.185 346.364 53.038 346.728 52.954C347.106 52.87 347.491 52.828 347.883 52.828C348.233 52.828 348.583 52.87 348.933 52.954C349.297 53.024 349.626 53.157 349.92 53.353C350.228 53.549 350.494 53.794 350.718 54.088C350.942 54.368 351.124 54.676 351.264 55.012V48.565H353.007V64H351.264V61.984C351.124 62.32 350.942 62.635 350.718 62.929C350.494 63.209 350.228 63.447 349.92 63.643C349.626 63.839 349.297 63.972 348.933 64.042C348.583 64.126 348.233 64.168 347.883 64.168ZM348.534 62.635C348.8 62.635 349.059 62.607 349.311 62.551C349.563 62.495 349.801 62.404 350.025 62.278C350.249 62.138 350.445 61.97 350.613 61.774C350.781 61.564 350.914 61.34 351.012 61.102C351.11 60.864 351.173 60.619 351.201 60.367C351.243 60.101 351.264 59.842 351.264 59.59V57.406C351.264 57.154 351.243 56.902 351.201 56.65C351.173 56.384 351.11 56.132 351.012 55.894C350.914 55.656 350.781 55.439 350.613 55.243C350.445 55.033 350.249 54.865 350.025 54.739C349.801 54.599 349.563 54.501 349.311 54.445C349.059 54.389 348.8 54.361 348.534 54.361C348.268 54.361 348.002 54.389 347.736 54.445C347.484 54.501 347.239 54.592 347.001 54.718C346.777 54.844 346.574 55.012 346.392 55.222C346.21 55.418 346.063 55.635 345.951 55.873C345.853 56.111 345.783 56.363 345.741 56.629C345.699 56.881 345.678 57.14 345.678 57.406V59.59C345.678 59.856 345.699 60.122 345.741 60.388C345.783 60.64 345.853 60.885 345.951 61.123C346.063 61.361 346.21 61.585 346.392 61.795C346.574 61.991 346.777 62.152 347.001 62.278C347.239 62.404 347.484 62.495 347.736 62.551C348.002 62.607 348.268 62.635 348.534 62.635ZM359.761 64V61.207H362.554V64H359.761ZM373.717 64.168C373.367 64.168 373.017 64.147 372.667 64.105C372.331 64.077 371.995 64.014 371.659 63.916C371.337 63.804 371.022 63.664 370.714 63.496C370.42 63.314 370.161 63.09 369.937 62.824C369.713 62.558 369.538 62.264 369.412 61.942C369.3 61.606 369.244 61.27 369.244 60.934C369.244 60.92 369.244 60.913 369.244 60.913H370.987C370.987 61.109 371.029 61.305 371.113 61.501C371.197 61.683 371.309 61.844 371.449 61.984C371.603 62.11 371.771 62.215 371.953 62.299C372.135 62.383 372.324 62.453 372.52 62.509C372.716 62.551 372.912 62.579 373.108 62.593C373.304 62.607 373.507 62.614 373.717 62.614C373.913 62.614 374.109 62.607 374.305 62.593C374.501 62.579 374.69 62.551 374.872 62.509C375.068 62.467 375.257 62.411 375.439 62.341C375.635 62.257 375.803 62.152 375.943 62.026C376.097 61.9 376.223 61.746 376.321 61.564C376.419 61.382 376.468 61.193 376.468 60.997C376.468 60.787 376.412 60.591 376.3 60.409C376.188 60.213 376.041 60.059 375.859 59.947C375.677 59.835 375.481 59.751 375.271 59.695C375.075 59.639 374.872 59.597 374.662 59.569H374.641C374.263 59.499 373.885 59.429 373.507 59.359C373.143 59.275 372.772 59.184 372.394 59.086C372.03 58.974 371.673 58.841 371.323 58.687C370.973 58.519 370.651 58.309 370.357 58.057C370.077 57.791 369.853 57.483 369.685 57.133C369.531 56.769 369.454 56.391 369.454 55.999C369.454 55.677 369.51 55.355 369.622 55.033C369.748 54.711 369.916 54.424 370.126 54.172C370.336 53.906 370.581 53.689 370.861 53.521C371.155 53.339 371.463 53.199 371.785 53.101C372.107 52.989 372.436 52.919 372.772 52.891C373.108 52.849 373.437 52.828 373.759 52.828C374.095 52.828 374.431 52.849 374.767 52.891C375.103 52.919 375.425 52.989 375.733 53.101C376.055 53.199 376.356 53.339 376.636 53.521C376.93 53.703 377.182 53.927 377.392 54.193C377.616 54.445 377.784 54.732 377.896 55.054C378.008 55.376 378.064 55.698 378.064 56.02C378.064 56.034 378.064 56.041 378.064 56.041H376.321C376.321 55.761 376.23 55.502 376.048 55.264C375.88 55.012 375.67 54.823 375.418 54.697C375.166 54.571 374.9 54.487 374.62 54.445C374.34 54.403 374.053 54.382 373.759 54.382C373.577 54.382 373.388 54.389 373.192 54.403C373.01 54.417 372.828 54.445 372.646 54.487C372.464 54.529 372.282 54.592 372.1 54.676C371.932 54.76 371.778 54.865 371.638 54.991C371.498 55.117 371.386 55.271 371.302 55.453C371.218 55.621 371.176 55.803 371.176 55.999C371.176 56.209 371.232 56.412 371.344 56.608C371.456 56.79 371.596 56.937 371.764 57.049C371.946 57.161 372.135 57.245 372.331 57.301C372.541 57.357 372.751 57.399 372.961 57.427H373.003C373.381 57.497 373.752 57.574 374.116 57.658C374.494 57.728 374.865 57.819 375.229 57.931C375.607 58.029 375.971 58.162 376.321 58.33C376.671 58.484 376.986 58.694 377.266 58.96C377.546 59.212 377.77 59.52 377.938 59.884C378.106 60.234 378.19 60.598 378.19 60.976C378.19 61.326 378.127 61.662 378.001 61.984C377.875 62.306 377.7 62.6 377.476 62.866C377.252 63.118 376.986 63.335 376.678 63.517C376.384 63.685 376.069 63.818 375.733 63.916C375.411 64.014 375.075 64.077 374.725 64.105C374.389 64.147 374.053 64.168 373.717 64.168ZM386.309 64.168C385.959 64.168 385.609 64.147 385.259 64.105C384.923 64.077 384.587 64.014 384.251 63.916C383.929 63.804 383.614 63.664 383.306 63.496C383.012 63.314 382.753 63.09 382.529 62.824C382.305 62.558 382.13 62.264 382.004 61.942C381.892 61.606 381.836 61.27 381.836 60.934C381.836 60.92 381.836 60.913 381.836 60.913H383.579C383.579 61.109 383.621 61.305 383.705 61.501C383.789 61.683 383.901 61.844 384.041 61.984C384.195 62.11 384.363 62.215 384.545 62.299C384.727 62.383 384.916 62.453 385.112 62.509C385.308 62.551 385.504 62.579 385.7 62.593C385.896 62.607 386.099 62.614 386.309 62.614C386.505 62.614 386.701 62.607 386.897 62.593C387.093 62.579 387.282 62.551 387.464 62.509C387.66 62.467 387.849 62.411 388.031 62.341C388.227 62.257 388.395 62.152 388.535 62.026C388.689 61.9 388.815 61.746 388.913 61.564C389.011 61.382 389.06 61.193 389.06 60.997C389.06 60.787 389.004 60.591 388.892 60.409C388.78 60.213 388.633 60.059 388.451 59.947C388.269 59.835 388.073 59.751 387.863 59.695C387.667 59.639 387.464 59.597 387.254 59.569H387.233C386.855 59.499 386.477 59.429 386.099 59.359C385.735 59.275 385.364 59.184 384.986 59.086C384.622 58.974 384.265 58.841 383.915 58.687C383.565 58.519 383.243 58.309 382.949 58.057C382.669 57.791 382.445 57.483 382.277 57.133C382.123 56.769 382.046 56.391 382.046 55.999C382.046 55.677 382.102 55.355 382.214 55.033C382.34 54.711 382.508 54.424 382.718 54.172C382.928 53.906 383.173 53.689 383.453 53.521C383.747 53.339 384.055 53.199 384.377 53.101C384.699 52.989 385.028 52.919 385.364 52.891C385.7 52.849 386.029 52.828 386.351 52.828C386.687 52.828 387.023 52.849 387.359 52.891C387.695 52.919 388.017 52.989 388.325 53.101C388.647 53.199 388.948 53.339 389.228 53.521C389.522 53.703 389.774 53.927 389.984 54.193C390.208 54.445 390.376 54.732 390.488 55.054C390.6 55.376 390.656 55.698 390.656 56.02C390.656 56.034 390.656 56.041 390.656 56.041H388.913C388.913 55.761 388.822 55.502 388.64 55.264C388.472 55.012 388.262 54.823 388.01 54.697C387.758 54.571 387.492 54.487 387.212 54.445C386.932 54.403 386.645 54.382 386.351 54.382C386.169 54.382 385.98 54.389 385.784 54.403C385.602 54.417 385.42 54.445 385.238 54.487C385.056 54.529 384.874 54.592 384.692 54.676C384.524 54.76 384.37 54.865 384.23 54.991C384.09 55.117 383.978 55.271 383.894 55.453C383.81 55.621 383.768 55.803 383.768 55.999C383.768 56.209 383.824 56.412 383.936 56.608C384.048 56.79 384.188 56.937 384.356 57.049C384.538 57.161 384.727 57.245 384.923 57.301C385.133 57.357 385.343 57.399 385.553 57.427H385.595C385.973 57.497 386.344 57.574 386.708 57.658C387.086 57.728 387.457 57.819 387.821 57.931C388.199 58.029 388.563 58.162 388.913 58.33C389.263 58.484 389.578 58.694 389.858 58.96C390.138 59.212 390.362 59.52 390.53 59.884C390.698 60.234 390.782 60.598 390.782 60.976C390.782 61.326 390.719 61.662 390.593 61.984C390.467 62.306 390.292 62.6 390.068 62.866C389.844 63.118 389.578 63.335 389.27 63.517C388.976 63.685 388.661 63.818 388.325 63.916C388.003 64.014 387.667 64.077 387.317 64.105C386.981 64.147 386.645 64.168 386.309 64.168ZM394.47 64V52.996H396.213V55.012C396.353 54.676 396.535 54.368 396.759 54.088C396.983 53.794 397.242 53.556 397.536 53.374C397.83 53.178 398.152 53.038 398.502 52.954C398.866 52.87 399.23 52.828 399.594 52.828C399.958 52.828 400.322 52.877 400.686 52.975C401.064 53.059 401.407 53.206 401.715 53.416C402.023 53.626 402.289 53.892 402.513 54.214C402.737 54.522 402.912 54.851 403.038 55.201C403.164 55.551 403.248 55.915 403.29 56.293C403.346 56.657 403.374 57.028 403.374 57.406V64H401.631V57.406C401.631 57.154 401.61 56.902 401.568 56.65C401.54 56.384 401.477 56.132 401.379 55.894C401.281 55.656 401.148 55.439 400.98 55.243C400.812 55.033 400.616 54.865 400.392 54.739C400.182 54.599 399.944 54.501 399.678 54.445C399.426 54.389 399.174 54.361 398.922 54.361C398.67 54.361 398.411 54.389 398.145 54.445C397.893 54.501 397.655 54.599 397.431 54.739C397.221 54.865 397.032 55.033 396.864 55.243C396.696 55.439 396.563 55.656 396.465 55.894C396.367 56.132 396.297 56.384 396.255 56.65C396.227 56.902 396.213 57.154 396.213 57.406V64H394.47ZM411.493 64H409.519L412.228 59.569C412.424 59.247 412.627 58.925 412.837 58.603C413.047 58.267 413.257 57.931 413.467 57.595C413.159 57.749 412.83 57.854 412.48 57.91C412.144 57.966 411.808 57.994 411.472 57.994C411.052 57.994 410.632 57.952 410.212 57.868C409.806 57.784 409.414 57.644 409.036 57.448C408.672 57.252 408.343 57 408.049 56.692C407.769 56.37 407.538 56.02 407.356 55.642C407.188 55.264 407.069 54.865 406.999 54.445C406.929 54.025 406.894 53.612 406.894 53.206C406.894 52.772 406.929 52.352 406.999 51.946C407.069 51.526 407.188 51.127 407.356 50.749C407.538 50.357 407.776 50.007 408.07 49.699C408.364 49.391 408.693 49.139 409.057 48.943C409.435 48.733 409.834 48.593 410.254 48.523C410.674 48.439 411.094 48.397 411.514 48.397C411.962 48.397 412.403 48.446 412.837 48.544C413.271 48.642 413.677 48.81 414.055 49.048C414.433 49.272 414.755 49.559 415.021 49.909C415.301 50.259 415.525 50.644 415.693 51.064C415.861 51.47 415.973 51.897 416.029 52.345C416.099 52.779 416.134 53.22 416.134 53.668C416.134 54.27 416.071 54.872 415.945 55.474C415.819 56.062 415.644 56.636 415.42 57.196C415.196 57.742 414.93 58.281 414.622 58.813C414.328 59.331 414.027 59.849 413.719 60.367L413.698 60.388L411.493 64ZM411.514 56.44C411.92 56.44 412.319 56.37 412.711 56.23C413.117 56.076 413.446 55.838 413.698 55.516C413.964 55.194 414.146 54.83 414.244 54.424C414.342 54.018 414.391 53.612 414.391 53.206C414.391 52.786 414.342 52.373 414.244 51.967C414.146 51.561 413.964 51.197 413.698 50.875C413.446 50.553 413.117 50.322 412.711 50.182C412.319 50.028 411.92 49.951 411.514 49.951C411.108 49.951 410.702 50.028 410.296 50.182C409.904 50.322 409.575 50.553 409.309 50.875C409.057 51.197 408.882 51.561 408.784 51.967C408.686 52.373 408.637 52.779 408.637 53.185C408.637 53.605 408.686 54.018 408.784 54.424C408.882 54.83 409.057 55.194 409.309 55.516C409.575 55.838 409.904 56.076 410.296 56.23C410.688 56.37 411.094 56.44 411.514 56.44ZM432.686 67.213V65.659H434.702C434.898 65.659 435.094 65.652 435.29 65.638C435.486 65.624 435.675 65.589 435.857 65.533C436.053 65.491 436.242 65.421 436.424 65.323C436.606 65.239 436.76 65.12 436.886 64.966C437.012 64.812 437.096 64.637 437.138 64.441C437.194 64.259 437.222 64.07 437.222 63.874C437.222 63.608 437.166 63.363 437.054 63.139C436.956 62.901 436.83 62.684 436.676 62.488C436.522 62.278 436.368 62.075 436.214 61.879C436.06 61.669 435.927 61.452 435.815 61.228C435.717 60.99 435.64 60.745 435.584 60.493C435.542 60.241 435.521 59.989 435.521 59.737C435.521 59.415 435.563 59.1 435.647 58.792C435.745 58.47 435.899 58.183 436.109 57.931C436.319 57.679 436.557 57.469 436.823 57.301C437.103 57.119 437.397 56.972 437.705 56.86C437.397 56.748 437.103 56.608 436.823 56.44C436.557 56.258 436.319 56.041 436.109 55.789C435.899 55.537 435.745 55.257 435.647 54.949C435.563 54.627 435.521 54.305 435.521 53.983C435.521 53.731 435.542 53.479 435.584 53.227C435.64 52.975 435.717 52.737 435.815 52.513C435.927 52.275 436.06 52.058 436.214 51.862C436.368 51.652 436.522 51.449 436.676 51.253C436.83 51.043 436.956 50.826 437.054 50.602C437.166 50.364 437.222 50.112 437.222 49.846C437.222 49.65 437.194 49.461 437.138 49.279C437.096 49.083 437.012 48.908 436.886 48.754C436.76 48.6 436.606 48.481 436.424 48.397C436.242 48.299 436.053 48.229 435.857 48.187C435.675 48.131 435.486 48.096 435.29 48.082C435.094 48.068 434.898 48.061 434.702 48.061H432.686V46.507H434.702C435.038 46.507 435.381 46.528 435.731 46.57C436.081 46.598 436.417 46.661 436.739 46.759C437.075 46.857 437.39 47.004 437.684 47.2C437.992 47.382 438.244 47.613 438.44 47.893C438.65 48.173 438.79 48.488 438.86 48.838C438.93 49.174 438.965 49.51 438.965 49.846C438.965 50.112 438.937 50.371 438.881 50.623C438.839 50.861 438.762 51.099 438.65 51.337C438.552 51.561 438.426 51.778 438.272 51.988C438.118 52.184 437.964 52.387 437.81 52.597C437.656 52.793 437.523 53.01 437.411 53.248C437.313 53.486 437.264 53.731 437.264 53.983C437.264 54.207 437.299 54.431 437.369 54.655C437.453 54.879 437.572 55.075 437.726 55.243C437.88 55.411 438.062 55.551 438.272 55.663C438.482 55.775 438.699 55.866 438.923 55.936C439.147 55.992 439.371 56.034 439.595 56.062C439.833 56.076 440.071 56.083 440.309 56.083H440.708V57.637H440.309C440.071 57.637 439.833 57.651 439.595 57.679C439.371 57.693 439.147 57.735 438.923 57.805C438.699 57.861 438.482 57.945 438.272 58.057C438.062 58.169 437.88 58.309 437.726 58.477C437.572 58.645 437.453 58.841 437.369 59.065C437.299 59.289 437.264 59.513 437.264 59.737C437.264 59.989 437.313 60.234 437.411 60.472C437.523 60.71 437.656 60.934 437.81 61.144C437.964 61.34 438.118 61.543 438.272 61.753C438.426 61.949 438.552 62.166 438.65 62.404C438.762 62.628 438.839 62.866 438.881 63.118C438.937 63.356 438.965 63.608 438.965 63.874C438.965 64.21 438.93 64.546 438.86 64.882C438.79 65.232 438.65 65.547 438.44 65.827C438.244 66.107 437.992 66.338 437.684 66.52C437.39 66.716 437.075 66.863 436.739 66.961C436.417 67.059 436.081 67.122 435.731 67.15C435.381 67.192 435.038 67.213 434.702 67.213H432.686ZM445.278 67.213V65.659H447.294C447.49 65.659 447.686 65.652 447.882 65.638C448.078 65.624 448.267 65.589 448.449 65.533C448.645 65.491 448.834 65.421 449.016 65.323C449.198 65.239 449.352 65.12 449.478 64.966C449.604 64.812 449.688 64.637 449.73 64.441C449.786 64.259 449.814 64.07 449.814 63.874C449.814 63.608 449.758 63.363 449.646 63.139C449.548 62.901 449.422 62.684 449.268 62.488C449.114 62.278 448.96 62.075 448.806 61.879C448.652 61.669 448.519 61.452 448.407 61.228C448.309 60.99 448.232 60.745 448.176 60.493C448.134 60.241 448.113 59.989 448.113 59.737C448.113 59.415 448.155 59.1 448.239 58.792C448.337 58.47 448.491 58.183 448.701 57.931C448.911 57.679 449.149 57.469 449.415 57.301C449.695 57.119 449.989 56.972 450.297 56.86C449.989 56.748 449.695 56.608 449.415 56.44C449.149 56.258 448.911 56.041 448.701 55.789C448.491 55.537 448.337 55.257 448.239 54.949C448.155 54.627 448.113 54.305 448.113 53.983C448.113 53.731 448.134 53.479 448.176 53.227C448.232 52.975 448.309 52.737 448.407 52.513C448.519 52.275 448.652 52.058 448.806 51.862C448.96 51.652 449.114 51.449 449.268 51.253C449.422 51.043 449.548 50.826 449.646 50.602C449.758 50.364 449.814 50.112 449.814 49.846C449.814 49.65 449.786 49.461 449.73 49.279C449.688 49.083 449.604 48.908 449.478 48.754C449.352 48.6 449.198 48.481 449.016 48.397C448.834 48.299 448.645 48.229 448.449 48.187C448.267 48.131 448.078 48.096 447.882 48.082C447.686 48.068 447.49 48.061 447.294 48.061H445.278V46.507H447.294C447.63 46.507 447.973 46.528 448.323 46.57C448.673 46.598 449.009 46.661 449.331 46.759C449.667 46.857 449.982 47.004 450.276 47.2C450.584 47.382 450.836 47.613 451.032 47.893C451.242 48.173 451.382 48.488 451.452 48.838C451.522 49.174 451.557 49.51 451.557 49.846C451.557 50.112 451.529 50.371 451.473 50.623C451.431 50.861 451.354 51.099 451.242 51.337C451.144 51.561 451.018 51.778 450.864 51.988C450.71 52.184 450.556 52.387 450.402 52.597C450.248 52.793 450.115 53.01 450.003 53.248C449.905 53.486 449.856 53.731 449.856 53.983C449.856 54.207 449.891 54.431 449.961 54.655C450.045 54.879 450.164 55.075 450.318 55.243C450.472 55.411 450.654 55.551 450.864 55.663C451.074 55.775 451.291 55.866 451.515 55.936C451.739 55.992 451.963 56.034 452.187 56.062C452.425 56.076 452.663 56.083 452.901 56.083H453.3V57.637H452.901C452.663 57.637 452.425 57.651 452.187 57.679C451.963 57.693 451.739 57.735 451.515 57.805C451.291 57.861 451.074 57.945 450.864 58.057C450.654 58.169 450.472 58.309 450.318 58.477C450.164 58.645 450.045 58.841 449.961 59.065C449.891 59.289 449.856 59.513 449.856 59.737C449.856 59.989 449.905 60.234 450.003 60.472C450.115 60.71 450.248 60.934 450.402 61.144C450.556 61.34 450.71 61.543 450.864 61.753C451.018 61.949 451.144 62.166 451.242 62.404C451.354 62.628 451.431 62.866 451.473 63.118C451.529 63.356 451.557 63.608 451.557 63.874C451.557 64.21 451.522 64.546 451.452 64.882C451.382 65.232 451.242 65.547 451.032 65.827C450.836 66.107 450.584 66.338 450.276 66.52C449.982 66.716 449.667 66.863 449.331 66.961C449.009 67.059 448.673 67.122 448.323 67.15C447.973 67.192 447.63 67.213 447.294 67.213H445.278Z" fill="white"/>
<path d="M23.5 30C23.5 26.4101 26.4101 23.5 30 23.5H522V24.5H30C26.9624 24.5 24.5 26.9624 24.5 30H23.5ZM522 88.5H30C26.4101 88.5 23.5 85.5899 23.5 82H24.5C24.5 85.0376 26.9624 87.5 30 87.5H522V88.5ZM30 88.5C26.4101 88.5 23.5 85.5899 23.5 82V30C23.5 26.4101 26.4101 23.5 30 23.5V24.5C26.9624 24.5 24.5 26.9624 24.5 30V82C24.5 85.0376 26.9624 87.5 30 87.5V88.5ZM522 24V88V24Z" fill="url(#paint1_linear_3341_65648)" fill-opacity="0.7" style="mix-blend-mode:hard-light"/>
<path d="M678 24H1170C1173.31 24 1176 26.6863 1176 30V82C1176 85.3137 1173.31 88 1170 88H678V24Z" fill="url(#paint2_linear_3341_65648)" fill-opacity="0.1"/>
<path d="M863.814 64V50.56L861.021 52.597L859.992 51.358L863.814 48.565H865.536V64H863.814ZM872.185 64V63.979C872.185 63.573 872.192 63.174 872.206 62.782C872.22 62.376 872.262 61.977 872.332 61.585C872.402 61.193 872.5 60.808 872.626 60.43C872.766 60.052 872.941 59.695 873.151 59.359C873.361 59.009 873.592 58.687 873.844 58.393C874.11 58.085 874.397 57.805 874.705 57.553C875.013 57.301 875.335 57.07 875.671 56.86C876.021 56.636 876.371 56.433 876.721 56.251C877.071 56.055 877.414 55.852 877.75 55.642C878.086 55.418 878.38 55.159 878.632 54.865C878.898 54.557 879.094 54.214 879.22 53.836C879.36 53.444 879.43 53.045 879.43 52.639C879.43 52.275 879.374 51.918 879.262 51.568C879.15 51.204 878.961 50.896 878.695 50.644C878.429 50.392 878.114 50.217 877.75 50.119C877.386 50.007 877.022 49.951 876.658 49.951C876.308 49.951 875.965 49.993 875.629 50.077C875.293 50.147 874.992 50.287 874.726 50.497C874.46 50.693 874.25 50.952 874.096 51.274C873.956 51.596 873.886 51.925 873.886 52.261C873.886 52.275 873.886 52.289 873.886 52.303H872.143C872.143 52.289 872.143 52.282 872.143 52.282C872.143 52.268 872.143 52.254 872.143 52.24C872.143 51.862 872.192 51.498 872.29 51.148C872.402 50.784 872.556 50.448 872.752 50.14C872.962 49.818 873.214 49.545 873.508 49.321C873.802 49.083 874.117 48.894 874.453 48.754C874.803 48.614 875.16 48.523 875.524 48.481C875.902 48.425 876.28 48.397 876.658 48.397C877.05 48.397 877.442 48.432 877.834 48.502C878.226 48.558 878.597 48.67 878.947 48.838C879.311 48.992 879.64 49.202 879.934 49.468C880.228 49.734 880.466 50.042 880.648 50.392C880.844 50.728 880.977 51.092 881.047 51.484C881.131 51.862 881.173 52.247 881.173 52.639C881.173 53.073 881.117 53.5 881.005 53.92C880.907 54.326 880.746 54.711 880.522 55.075C880.298 55.439 880.025 55.768 879.703 56.062C879.395 56.356 879.059 56.622 878.695 56.86C878.345 57.098 877.981 57.322 877.603 57.532C877.239 57.742 876.882 57.973 876.532 58.225C876.196 58.477 875.874 58.757 875.566 59.065C875.272 59.373 875.013 59.709 874.789 60.073C874.565 60.423 874.383 60.801 874.243 61.207C874.117 61.613 874.033 62.026 873.991 62.446H881.089V64H872.185ZM889.271 64C888.893 64 888.515 63.972 888.137 63.916C887.773 63.86 887.416 63.762 887.066 63.622C886.73 63.482 886.415 63.3 886.121 63.076C885.827 62.838 885.575 62.565 885.365 62.257C885.155 61.949 884.994 61.613 884.882 61.249C884.784 60.885 884.735 60.514 884.735 60.136H886.478C886.478 60.486 886.555 60.822 886.709 61.144C886.863 61.452 887.073 61.711 887.339 61.921C887.605 62.117 887.906 62.257 888.242 62.341C888.592 62.411 888.935 62.446 889.271 62.446C889.663 62.446 890.048 62.383 890.426 62.257C890.818 62.117 891.14 61.9 891.392 61.606C891.658 61.298 891.84 60.955 891.938 60.577C892.05 60.185 892.106 59.786 892.106 59.38C892.106 59.114 892.085 58.848 892.043 58.582C892.015 58.316 891.945 58.064 891.833 57.826C891.721 57.574 891.574 57.35 891.392 57.154C891.21 56.944 891 56.776 890.762 56.65C890.538 56.51 890.293 56.412 890.027 56.356C889.761 56.3 889.495 56.272 889.229 56.272H887.003V54.739L891.371 50.098H884.777V48.565H893.45V50.098L889.082 54.739H889.229C889.649 54.739 890.062 54.774 890.468 54.844C890.874 54.914 891.259 55.047 891.623 55.243C892.001 55.425 892.337 55.67 892.631 55.978C892.939 56.272 893.184 56.608 893.366 56.986C893.548 57.35 893.674 57.742 893.744 58.162C893.814 58.568 893.849 58.981 893.849 59.401C893.849 59.807 893.814 60.213 893.744 60.619C893.674 61.025 893.548 61.417 893.366 61.795C893.184 62.159 892.946 62.488 892.652 62.782C892.358 63.076 892.029 63.321 891.665 63.517C891.301 63.699 890.909 63.825 890.489 63.895C890.083 63.965 889.677 64 889.271 64ZM897.369 57.637V56.083H906.273V57.637H897.369ZM914.181 64V50.56L911.388 52.597L910.359 51.358L914.181 48.565H915.903V64H914.181ZM922.552 64V63.979C922.552 63.573 922.559 63.174 922.573 62.782C922.587 62.376 922.629 61.977 922.699 61.585C922.769 61.193 922.867 60.808 922.993 60.43C923.133 60.052 923.308 59.695 923.518 59.359C923.728 59.009 923.959 58.687 924.211 58.393C924.477 58.085 924.764 57.805 925.072 57.553C925.38 57.301 925.702 57.07 926.038 56.86C926.388 56.636 926.738 56.433 927.088 56.251C927.438 56.055 927.781 55.852 928.117 55.642C928.453 55.418 928.747 55.159 928.999 54.865C929.265 54.557 929.461 54.214 929.587 53.836C929.727 53.444 929.797 53.045 929.797 52.639C929.797 52.275 929.741 51.918 929.629 51.568C929.517 51.204 929.328 50.896 929.062 50.644C928.796 50.392 928.481 50.217 928.117 50.119C927.753 50.007 927.389 49.951 927.025 49.951C926.675 49.951 926.332 49.993 925.996 50.077C925.66 50.147 925.359 50.287 925.093 50.497C924.827 50.693 924.617 50.952 924.463 51.274C924.323 51.596 924.253 51.925 924.253 52.261C924.253 52.275 924.253 52.289 924.253 52.303H922.51C922.51 52.289 922.51 52.282 922.51 52.282C922.51 52.268 922.51 52.254 922.51 52.24C922.51 51.862 922.559 51.498 922.657 51.148C922.769 50.784 922.923 50.448 923.119 50.14C923.329 49.818 923.581 49.545 923.875 49.321C924.169 49.083 924.484 48.894 924.82 48.754C925.17 48.614 925.527 48.523 925.891 48.481C926.269 48.425 926.647 48.397 927.025 48.397C927.417 48.397 927.809 48.432 928.201 48.502C928.593 48.558 928.964 48.67 929.314 48.838C929.678 48.992 930.007 49.202 930.301 49.468C930.595 49.734 930.833 50.042 931.015 50.392C931.211 50.728 931.344 51.092 931.414 51.484C931.498 51.862 931.54 52.247 931.54 52.639C931.54 53.073 931.484 53.5 931.372 53.92C931.274 54.326 931.113 54.711 930.889 55.075C930.665 55.439 930.392 55.768 930.07 56.062C929.762 56.356 929.426 56.622 929.062 56.86C928.712 57.098 928.348 57.322 927.97 57.532C927.606 57.742 927.249 57.973 926.899 58.225C926.563 58.477 926.241 58.757 925.933 59.065C925.639 59.373 925.38 59.709 925.156 60.073C924.932 60.423 924.75 60.801 924.61 61.207C924.484 61.613 924.4 62.026 924.358 62.446H931.456V64H922.552ZM935.144 57.637V56.083H944.048V57.637H935.144ZM951.957 64V50.56L949.164 52.597L948.135 51.358L951.957 48.565H953.679V64H951.957ZM960.327 64V63.979C960.327 63.573 960.334 63.174 960.348 62.782C960.362 62.376 960.404 61.977 960.474 61.585C960.544 61.193 960.642 60.808 960.768 60.43C960.908 60.052 961.083 59.695 961.293 59.359C961.503 59.009 961.734 58.687 961.986 58.393C962.252 58.085 962.539 57.805 962.847 57.553C963.155 57.301 963.477 57.07 963.813 56.86C964.163 56.636 964.513 56.433 964.863 56.251C965.213 56.055 965.556 55.852 965.892 55.642C966.228 55.418 966.522 55.159 966.774 54.865C967.04 54.557 967.236 54.214 967.362 53.836C967.502 53.444 967.572 53.045 967.572 52.639C967.572 52.275 967.516 51.918 967.404 51.568C967.292 51.204 967.103 50.896 966.837 50.644C966.571 50.392 966.256 50.217 965.892 50.119C965.528 50.007 965.164 49.951 964.8 49.951C964.45 49.951 964.107 49.993 963.771 50.077C963.435 50.147 963.134 50.287 962.868 50.497C962.602 50.693 962.392 50.952 962.238 51.274C962.098 51.596 962.028 51.925 962.028 52.261C962.028 52.275 962.028 52.289 962.028 52.303H960.285C960.285 52.289 960.285 52.282 960.285 52.282C960.285 52.268 960.285 52.254 960.285 52.24C960.285 51.862 960.334 51.498 960.432 51.148C960.544 50.784 960.698 50.448 960.894 50.14C961.104 49.818 961.356 49.545 961.65 49.321C961.944 49.083 962.259 48.894 962.595 48.754C962.945 48.614 963.302 48.523 963.666 48.481C964.044 48.425 964.422 48.397 964.8 48.397C965.192 48.397 965.584 48.432 965.976 48.502C966.368 48.558 966.739 48.67 967.089 48.838C967.453 48.992 967.782 49.202 968.076 49.468C968.37 49.734 968.608 50.042 968.79 50.392C968.986 50.728 969.119 51.092 969.189 51.484C969.273 51.862 969.315 52.247 969.315 52.639C969.315 53.073 969.259 53.5 969.147 53.92C969.049 54.326 968.888 54.711 968.664 55.075C968.44 55.439 968.167 55.768 967.845 56.062C967.537 56.356 967.201 56.622 966.837 56.86C966.487 57.098 966.123 57.322 965.745 57.532C965.381 57.742 965.024 57.973 964.674 58.225C964.338 58.477 964.016 58.757 963.708 59.065C963.414 59.373 963.155 59.709 962.931 60.073C962.707 60.423 962.525 60.801 962.385 61.207C962.259 61.613 962.175 62.026 962.133 62.446H969.231V64H960.327ZM977.413 64C977.035 64 976.657 63.972 976.279 63.916C975.915 63.86 975.558 63.762 975.208 63.622C974.872 63.482 974.557 63.3 974.263 63.076C973.969 62.838 973.717 62.565 973.507 62.257C973.297 61.949 973.136 61.613 973.024 61.249C972.926 60.885 972.877 60.514 972.877 60.136H974.62C974.62 60.486 974.697 60.822 974.851 61.144C975.005 61.452 975.215 61.711 975.481 61.921C975.747 62.117 976.048 62.257 976.384 62.341C976.734 62.411 977.077 62.446 977.413 62.446C977.805 62.446 978.19 62.383 978.568 62.257C978.96 62.117 979.282 61.9 979.534 61.606C979.8 61.298 979.982 60.955 980.08 60.577C980.192 60.185 980.248 59.786 980.248 59.38C980.248 59.114 980.227 58.848 980.185 58.582C980.157 58.316 980.087 58.064 979.975 57.826C979.863 57.574 979.716 57.35 979.534 57.154C979.352 56.944 979.142 56.776 978.904 56.65C978.68 56.51 978.435 56.412 978.169 56.356C977.903 56.3 977.637 56.272 977.371 56.272H975.145V54.739L979.513 50.098H972.919V48.565H981.592V50.098L977.224 54.739H977.371C977.791 54.739 978.204 54.774 978.61 54.844C979.016 54.914 979.401 55.047 979.765 55.243C980.143 55.425 980.479 55.67 980.773 55.978C981.081 56.272 981.326 56.608 981.508 56.986C981.69 57.35 981.816 57.742 981.886 58.162C981.956 58.568 981.991 58.981 981.991 59.401C981.991 59.807 981.956 60.213 981.886 60.619C981.816 61.025 981.69 61.417 981.508 61.795C981.326 62.159 981.088 62.488 980.794 62.782C980.5 63.076 980.171 63.321 979.807 63.517C979.443 63.699 979.051 63.825 978.631 63.895C978.225 63.965 977.819 64 977.413 64ZM991.097 64V59.947H985.343V58.414L988.577 52.786L990.992 48.565H992.945L992.504 49.342L987.296 58.414H991.097V54.718H992.84V58.414H994.415V59.947H992.84V64H991.097Z" fill="white"/>
<path d="M678.5 24.5H1170C1173.04 24.5 1175.5 26.9624 1175.5 30V82C1175.5 85.0376 1173.04 87.5 1170 87.5H678.5V24.5Z" stroke="url(#paint3_linear_3341_65648)" stroke-opacity="0.7" style="mix-blend-mode:hard-light"/>
<rect x="0.5" y="0.5" width="1199" height="111" rx="11.5" stroke="url(#paint4_radial_3341_65648)" stroke-opacity="0.3" style="mix-blend-mode:hard-light"/>
<defs>
<linearGradient id="paint0_linear_3341_65648" x1="24" y1="55.9759" x2="522" y2="55.976" gradientUnits="userSpaceOnUse">
<stop stop-color="white"/>
<stop offset="1" stop-color="white" stop-opacity="0"/>
</linearGradient>
<linearGradient id="paint1_linear_3341_65648" x1="24" y1="56.0001" x2="510.521" y2="56.0007" gradientUnits="userSpaceOnUse">
<stop stop-color="white"/>
<stop offset="1" stop-color="white" stop-opacity="0"/>
</linearGradient>
<linearGradient id="paint2_linear_3341_65648" x1="1180.89" y1="49.2614" x2="678" y2="49.2614" gradientUnits="userSpaceOnUse">
<stop stop-color="white"/>
<stop offset="1" stop-color="white" stop-opacity="0"/>
</linearGradient>
<linearGradient id="paint3_linear_3341_65648" x1="1168.94" y1="29.0004" x2="677.991" y2="25.1013" gradientUnits="userSpaceOnUse">
<stop stop-color="white"/>
<stop offset="1" stop-color="white" stop-opacity="0"/>
</linearGradient>
<radialGradient id="paint4_radial_3341_65648" cx="0" cy="0" r="1" gradientUnits="userSpaceOnUse" gradientTransform="translate(1200 -0.088149) rotate(179.996) scale(1200 28627.8)">
<stop stop-color="white"/>
<stop offset="0.431751" stop-color="white" stop-opacity="0"/>
<stop offset="0.559465" stop-color="white" stop-opacity="0"/>
<stop offset="1" stop-color="white"/>
</radialGradient>
</defs>
</svg>
