<svg width="24" height="24" viewBox="0 0 24 24" fill="none" xmlns="http://www.w3.org/2000/svg">
<path fill-rule="evenodd" clip-rule="evenodd" d="M11.7841 4.54918C11.9206 4.48361 12.0794 4.48361 12.2159 4.54918L19.2224 7.91661C19.4106 8.00708 19.5226 8.19976 19.4961 8.40691C19.2533 10.3064 17.7767 19.5268 12 19.5268C6.22331 19.5268 4.74675 10.3064 4.50386 8.40691C4.47737 8.19976 4.5894 8.00708 4.77763 7.91661L11.7841 4.54918ZM14.6599 12.9873H13.4455C12.6068 12.9873 11.9271 13.6675 11.9271 14.5067V15.722H9.8015V8.42932H14.6599V9.80869C14.4813 9.70505 14.2741 9.64471 14.0526 9.64471C13.3819 9.64471 12.8381 10.189 12.8381 10.8603C12.8381 11.5315 13.3819 12.0757 14.0526 12.0757C14.2741 12.0757 14.4813 12.0153 14.6599 11.9117V12.9873Z" fill="black"/>
</svg>
