<svg width="20" height="20" viewBox="0 0 20 20" fill="none">
<path d="M2.1875 16.5625H17.8125C18.5029 16.5625 19.0625 16.0029 19.0625 15.3125V4.6875C19.0625 3.99714 18.5029 3.4375 17.8125 3.4375H10H6.09375H2.1875C1.49714 3.4375 0.9375 3.99714 0.9375 4.6875V15.3125C0.9375 16.0029 1.49714 16.5625 2.1875 16.5625Z" stroke="black" stroke-width="1.5" stroke-linecap="round" stroke-linejoin="round"/>
<path d="M4.30283 15.7581C4.8455 13.855 6.04146 11.6956 7.42961 11.6956C8.81775 11.6956 10.0137 13.855 10.5564 15.7581M7.42966 11.0706C8.63778 11.0706 9.61716 10.0912 9.61716 8.88306C9.61716 7.67493 8.63778 6.69556 7.42966 6.69556C6.22153 6.69556 5.24216 7.67493 5.24216 8.88306C5.24216 10.0912 6.22153 11.0706 7.42966 11.0706Z" stroke="black" stroke-width="1.5" stroke-linecap="round" stroke-linejoin="round"/>
<path d="M14.2452 5.59525L14.9615 6.21846L15.7752 5.72911L15.9234 6.667L16.8613 6.81517L16.3719 7.62888L16.9952 8.34525L16.0972 8.65404L16.1142 9.6034L15.2279 9.26278L14.6306 10.0009L14.1706 9.17028L13.2386 9.35182L13.4201 8.41982L12.5895 7.9598L13.3276 7.36253L12.987 6.47622L13.9364 6.49315L14.2452 5.59525Z" stroke="black" stroke-linejoin="round"/>
</svg>
