<svg width="24" height="24" viewBox="0 0 24 24" fill="none" xmlns="http://www.w3.org/2000/svg">
<path d="M13.0418 5.12498L13.8752 5.95831M13.8752 5.95831L18.0418 10.125M13.8752 5.95831L5.12515 14.7083C3.97456 15.8589 3.97455 17.7244 5.12515 18.875C6.27575 20.0256 8.14123 20.0256 9.29182 18.875L18.0418 10.125M18.0418 10.125L18.8752 10.9583M7.61535 12.625H15.1121M18.6665 6.99998V6.99165M18.0418 4.08331C18.0418 4.42849 17.762 4.70831 17.4168 4.70831C17.0717 4.70831 16.7918 4.42849 16.7918 4.08331C16.7918 3.73814 17.0717 3.45831 17.4168 3.45831C17.762 3.45831 18.0418 3.73814 18.0418 4.08331ZM18.8748 6.99998C18.8748 7.11504 18.7816 7.20831 18.6665 7.20831C18.5514 7.20831 18.4582 7.11504 18.4582 6.99998C18.4582 6.88492 18.5514 6.79165 18.6665 6.79165C18.7816 6.79165 18.8748 6.88492 18.8748 6.99998Z" stroke="black" stroke-width="1.5" stroke-linecap="round" stroke-linejoin="round"/>
</svg>
