<svg width="24" height="24" viewBox="0 0 24 24" fill="none" xmlns="http://www.w3.org/2000/svg">
<path d="M18.0415 12.8333C13.8294 13.1979 11.5311 15.4962 11.1665 19.7083C10.7865 15.4307 8.50018 13.3101 4.2915 12.8333C8.5667 12.3402 10.6734 10.2335 11.1665 5.95831C11.6433 10.167 13.7639 12.4533 18.0415 12.8333Z" stroke="black" stroke-width="1.5" stroke-linecap="round" stroke-linejoin="round"/>
<path d="M18.4917 3.04901C18.4777 2.92624 18.374 2.83344 18.2504 2.83331C18.1268 2.83319 18.0228 2.92578 18.0087 3.04852C17.9167 3.84666 17.678 4.4079 17.2931 4.79286C16.9081 5.17784 16.3468 5.41647 15.5487 5.50852C15.426 5.52268 15.3333 5.62667 15.3335 5.75023C15.3337 5.87379 15.4264 5.97759 15.5492 5.99149C16.3342 6.08041 16.9073 6.31894 17.3014 6.70592C17.6941 7.09146 17.9377 7.65256 18.0081 8.4451C18.0192 8.57061 18.1244 8.66679 18.2504 8.66665C18.3764 8.66651 18.4814 8.57009 18.4923 8.44456C18.5598 7.66506 18.8032 7.09214 19.1977 6.69756C19.5923 6.30299 20.1652 6.05961 20.9447 5.99213C21.0702 5.98126 21.1667 5.87626 21.1668 5.75026C21.167 5.62425 21.0708 5.51903 20.9452 5.50788C20.1527 5.43748 19.5917 5.19386 19.2061 4.80124C18.8191 4.40712 18.5806 3.83396 18.4917 3.04901Z" fill="black"/>
</svg>
