<svg width="16" height="16" viewBox="0 0 16 16" fill="none">
<path fill-rule="evenodd" clip-rule="evenodd" d="M12.1364 5.13637C12.4878 4.7849 12.4878 4.21505 12.1364 3.86358C11.7849 3.51211 11.2151 3.51211 10.8636 3.86358L7.99998 6.72718L5.13637 3.86358C4.7849 3.51211 4.21505 3.51211 3.86358 3.86358C3.51211 4.21505 3.51211 4.7849 3.86358 5.13637L6.72718 7.99998L3.86358 10.8636C3.51211 11.2151 3.51211 11.7849 3.86358 12.1364C4.21505 12.4878 4.7849 12.4878 5.13637 12.1364L7.99998 9.27277L10.8636 12.1364C11.2151 12.4878 11.7849 12.4878 12.1364 12.1364C12.4878 11.7849 12.4878 11.2151 12.1364 10.8636L9.27277 7.99998L12.1364 5.13637Z" fill="black"/>
</svg>
