<svg width="24" height="24" viewBox="0 0 24 24" fill="none" xmlns="http://www.w3.org/2000/svg">
<path d="M13.8708 4.52034L12.9567 8.18216C12.8823 8.48043 12.6496 8.71347 12.3515 8.78847L9.8761 9.41119C9.64144 9.47022 9.44403 9.62833 9.33517 9.84443L9.11685 10.2778C8.88343 10.7412 8.28789 10.8809 7.87276 10.5697L5.12509 8.5098M13.8708 4.52034C13.2718 4.37097 12.6451 4.29169 11.9998 4.29169C8.9989 4.29169 6.39848 6.00656 5.12509 8.5098M13.8708 4.52034C17.2239 5.35639 19.7082 8.38809 19.7082 12C19.7082 16.2572 16.257 19.7084 11.9998 19.7084C7.74265 19.7084 4.2915 16.2572 4.2915 12C4.2915 10.7438 4.59202 9.55771 5.12509 8.5098M11.7549 15.7956L10.7153 14.2362C10.4946 13.9052 10.5387 13.4644 10.8204 13.1836L10.9936 13.0111C11.1628 12.8424 11.3963 12.7546 11.6348 12.7698L12.6542 12.8349C12.8014 12.8443 12.9434 12.8925 13.0659 12.9749L14.7273 14.0913C15.0752 14.325 15.1953 14.7808 15.0078 15.1556L14.7326 15.706C14.5914 15.9884 14.3029 16.1667 13.9873 16.1667H12.4483C12.1697 16.1667 11.9094 16.0274 11.7549 15.7956Z" stroke="black" stroke-width="1.5" stroke-linecap="round" stroke-linejoin="round"/>
</svg>
