<svg width="24" height="24" viewBox="0 0 24 24" fill="none" xmlns="http://www.w3.org/2000/svg">
<path d="M19.7082 12C19.7082 16.2572 16.257 19.7084 11.9998 19.7084C7.74265 19.7084 4.2915 16.2572 4.2915 12C4.2915 7.74283 7.74265 4.29169 11.9998 4.29169C16.257 4.29169 19.7082 7.74283 19.7082 12Z" stroke="black" stroke-width="1.5" stroke-linejoin="round"/>
<path d="M14.2134 9.27521L10.793 10.2081C10.5083 10.2857 10.2859 10.5081 10.2082 10.7928L9.2754 14.2132C9.19056 14.5243 9.47597 14.8097 9.78701 14.7249L13.2075 13.792C13.4921 13.7144 13.7145 13.4919 13.7922 13.2073L14.725 9.78683C14.8099 9.47579 14.5245 9.19038 14.2134 9.27521Z" stroke="black" stroke-width="1.5" stroke-linejoin="round"/>
</svg>
