<svg width="24" height="24" viewBox="0 0 24 24" fill="none">
<path fill-rule="evenodd" clip-rule="evenodd" d="M12.3793 5.10298C12.1451 4.96567 11.8549 4.96567 11.6207 5.10298L4.37071 9.35298C4.14108 9.48759 4 9.73382 4 10C4 10.2662 4.14108 10.5124 4.37071 10.647L6.67874 12L4.37071 13.353C4.14108 13.4876 4 13.7338 4 14C4 14.2662 4.14108 14.5124 4.37071 14.647L11.6207 18.897C11.8549 19.0343 12.1451 19.0343 12.3793 18.897L19.6293 14.647C19.8589 14.5124 20 14.2662 20 14C20 13.7338 19.8589 13.4876 19.6293 13.353L17.3213 12L19.6293 10.647C19.8589 10.5124 20 10.2662 20 10C20 9.73382 19.8589 9.48759 19.6293 9.35298L12.3793 5.10298ZM15.8382 12.8694L12.3793 14.897C12.1451 15.0343 11.8549 15.0343 11.6207 14.897L8.16178 12.8694L6.23304 14L12 17.3806L17.767 14L15.8382 12.8694ZM12 13.3806L6.23304 10L12 6.61937L17.767 10L12 13.3806Z" fill="black"/>
</svg>
