<svg width="24" height="24" viewBox="0 0 24 24" fill="none" xmlns="http://www.w3.org/2000/svg">
<g clip-path="url(#clip0_1139_162)">
<path d="M10.7217 4.78775C10.3113 4.84388 10.0241 5.22208 10.0802 5.63247C10.1364 6.04286 10.5145 6.33005 10.9249 6.27392L10.7217 4.78775ZM20.6323 10.7416L20.0002 11.1453L20.0002 11.1453L20.6323 10.7416ZM19.1792 14.0057C18.921 14.3296 18.9743 14.8015 19.2982 15.0596C19.6221 15.3178 20.0939 15.2646 20.3521 14.9407L19.1792 14.0057ZM20.6325 13.258L21.2646 13.6617V13.6617L20.6325 13.258ZM4.10953 3.04902C3.81663 2.75612 3.34176 2.75612 3.04887 3.04902C2.75597 3.34191 2.75597 3.81678 3.04887 4.10968L4.10953 3.04902ZM19.8902 20.951C20.1831 21.2439 20.658 21.2439 20.9509 20.951C21.2438 20.6581 21.2438 20.1833 20.9509 19.8904L19.8902 20.951ZM3.36731 10.7418L3.99941 11.1455L3.36731 10.7418ZM7.39754 7.61647C7.74456 7.3903 7.84252 6.92564 7.61636 6.57862C7.39019 6.23161 6.92553 6.13364 6.57851 6.35981L7.39754 7.61647ZM3.36788 13.2591L3.99995 12.8554H3.99995L3.36788 13.2591ZM17.4212 17.6402C17.7682 17.414 17.8662 16.9493 17.64 16.6023C17.4139 16.2553 16.9492 16.1573 16.6022 16.3835L17.4212 17.6402ZM10.9249 6.27392C14.1547 5.83217 17.6003 7.38739 20.0002 11.1453L21.2644 10.3379C18.6042 6.17243 14.6253 4.25383 10.7217 4.78775L10.9249 6.27392ZM20.3521 14.9407C20.6707 14.5409 20.9754 14.1145 21.2646 13.6617L20.0004 12.8544C19.7386 13.2644 19.4642 13.6481 19.1792 14.0057L20.3521 14.9407ZM20.0002 11.1453C20.3332 11.6666 20.3333 12.3332 20.0004 12.8544L21.2646 13.6617C21.912 12.648 21.9117 11.3514 21.2644 10.3379L20.0002 11.1453ZM11.9999 14.0569C10.8639 14.0569 9.94298 13.136 9.94298 12H8.44298C8.44298 13.9644 10.0355 15.5569 11.9999 15.5569V14.0569ZM3.04887 4.10968L9.48477 10.5456L10.5454 9.48492L4.10953 3.04902L3.04887 4.10968ZM9.94298 12C9.94298 11.4318 10.1724 10.9186 10.5454 10.5456L9.48477 9.48492C8.84192 10.1278 8.44298 11.018 8.44298 12H9.94298ZM9.48477 10.5456L13.4543 14.5151L14.515 13.4545L10.5454 9.48492L9.48477 10.5456ZM13.4543 14.5151L19.8902 20.951L20.9509 19.8904L14.515 13.4545L13.4543 14.5151ZM13.4543 13.4545C13.0813 13.8275 12.5681 14.0569 11.9999 14.0569V15.5569C12.9819 15.5569 13.8721 15.158 14.515 14.5151L13.4543 13.4545ZM3.04887 4.10968L19.8902 20.951L20.9509 19.8904L4.10953 3.04902L3.04887 4.10968ZM3.99941 11.1455C4.98617 9.60036 6.15059 8.42917 7.39754 7.61647L6.57851 6.35981C5.13579 7.3001 3.8252 8.63137 2.73521 10.3382L3.99941 11.1455ZM2.73581 13.6628C4.5562 16.5129 6.9929 18.315 9.61825 18.9945C12.247 19.675 15.007 19.2136 17.4212 17.6402L16.6022 16.3835C14.5263 17.7364 12.198 18.1128 9.99412 17.5424C7.78686 16.971 5.64669 15.4336 3.99995 12.8554L2.73581 13.6628ZM2.73521 10.3382C2.08772 11.352 2.0886 12.6496 2.73581 13.6628L3.99995 12.8554C3.66685 12.3339 3.6667 11.6665 3.99941 11.1455L2.73521 10.3382Z" fill="black"/>
</g>
<defs>
<clipPath id="clip0_1139_162">
<rect width="20" height="20" fill="white" transform="translate(2 2)"/>
</clipPath>
</defs>
</svg>
