<svg width="24" height="24" viewBox="0 0 24 24" fill="none" xmlns="http://www.w3.org/2000/svg">
<path d="M9.91667 15.3334H14.0833M14.0833 10.75C14.0833 11.9006 13.1506 12.8334 12 12.8334C10.8494 12.8334 9.91667 11.9006 9.91667 10.75C9.91667 9.59943 10.8494 8.66669 12 8.66669C13.1506 8.66669 14.0833 9.59943 14.0833 10.75ZM6.58333 19.0834H17.4167C17.8769 19.0834 18.25 18.7103 18.25 18.25V5.75002C18.25 5.28979 17.8769 4.91669 17.4167 4.91669H6.58333C6.1231 4.91669 5.75 5.28979 5.75 5.75002V18.25C5.75 18.7103 6.1231 19.0834 6.58333 19.0834Z" stroke="black" stroke-width="1.5" stroke-linecap="round" stroke-linejoin="round"/>
</svg>
