<svg width="24" height="24" viewBox="0 0 24 24" fill="none" xmlns="http://www.w3.org/2000/svg">
<path d="M19.7082 8.45973L17.3889 5.44971C17.2312 5.24495 16.9873 5.125 16.7288 5.125H7.27087C7.01238 5.125 6.76852 5.24495 6.61075 5.44971L4.2915 8.45973M19.7082 8.45973V9.29342C19.7082 10.0341 19.3773 10.6997 18.8517 11.1577M19.7082 8.45973H4.2915M4.2915 8.45973V9.29342C4.2915 10.0341 4.62232 10.6997 5.14799 11.1577M18.8517 11.1577C18.3971 11.5537 17.7968 11.7945 17.1388 11.7945C15.7197 11.7945 14.5693 10.6747 14.5693 9.29342M18.8517 11.1577V18.0417C18.8517 18.5019 18.4786 18.875 18.0183 18.875H5.98132C5.52108 18.875 5.14799 18.5019 5.14799 18.0417V11.1577M5.14799 11.1577C5.60257 11.5537 6.20287 11.7945 6.86095 11.7945C8.28001 11.7945 9.43039 10.6747 9.43039 9.29342M14.5693 9.29342V8.45973M14.5693 9.29342C14.5693 10.6747 13.4189 11.7945 11.9998 11.7945C10.5808 11.7945 9.43039 10.6747 9.43039 9.29342M9.43039 9.29342V8.45973M13.7128 18.875L13.7128 16.3739C13.7128 15.4531 12.9459 14.7066 11.9998 14.7066C11.0538 14.7066 10.2869 15.4531 10.2869 16.3739L10.2869 18.875" stroke="black" stroke-width="1.5" stroke-linecap="round" stroke-linejoin="round"/>
</svg>
