<svg width="24" height="24" viewBox="0 0 24 24" fill="none" xmlns="http://www.w3.org/2000/svg">
<path fill-rule="evenodd" clip-rule="evenodd" d="M17.022 4.36101C17.2724 4.1106 17.6784 4.1106 17.9288 4.36101L20.0662 6.49842C20.3166 6.74883 20.3166 7.15483 20.0662 7.40524L6.38682 21.0846C6.13641 21.335 5.73041 21.335 5.48 21.0846L3.34259 18.9472C3.09218 18.6968 3.09218 18.2908 3.34259 18.0404L17.022 4.36101ZM14.5349 8.66175L15.7655 9.89233L18.706 6.95183L17.4754 5.72125L14.5349 8.66175ZM14.8586 10.7992L13.6281 9.56858L4.70283 18.4938L5.93341 19.7244L14.8586 10.7992Z" fill="black"/>
<path d="M9.93075 4.20507C9.97212 4.18438 10.0057 4.15084 10.0263 4.10948L10.6583 2.84563C10.737 2.68809 10.9618 2.68809 11.0406 2.84563L11.6725 4.10948C11.6932 4.15084 11.7268 4.18438 11.7681 4.20507L13.032 4.83699C13.1895 4.91576 13.1895 5.14057 13.032 5.21934L11.7681 5.85127C11.7268 5.87195 11.6932 5.90549 11.6725 5.94685L11.0406 7.2107C10.9618 7.36824 10.737 7.36824 10.6583 7.2107L10.0263 5.94685C10.0057 5.90549 9.97212 5.87195 9.93075 5.85127L8.66691 5.21934C8.50937 5.14057 8.50937 4.91576 8.66691 4.83699L9.93075 4.20507Z" fill="black"/>
<path d="M17.6254 13.6096C17.6668 13.589 17.7003 13.5554 17.721 13.5141L18.3529 12.2502C18.4317 12.0927 18.6565 12.0927 18.7353 12.2502L19.3672 13.5141C19.3879 13.5554 19.4214 13.589 19.4628 13.6096L20.7266 14.2416C20.8842 14.3203 20.8842 14.5452 20.7266 14.6239L19.4628 15.2558C19.4214 15.2765 19.3879 15.3101 19.3672 15.3514L18.7353 16.6153C18.6565 16.7728 18.4317 16.7728 18.3529 16.6153L17.721 15.3514C17.7003 15.3101 17.6668 15.2765 17.6254 15.2558L16.3616 14.6239C16.204 14.5452 16.204 14.3203 16.3616 14.2416L17.6254 13.6096Z" fill="black"/>
<path d="M5.65595 8.47988C5.69731 8.45919 5.73085 8.42565 5.75153 8.38429L6.38346 7.12044C6.46223 6.9629 6.68704 6.9629 6.76581 7.12044L7.39773 8.38429C7.41841 8.42565 7.45195 8.45919 7.49332 8.47988L8.75717 9.1118C8.9147 9.19057 8.9147 9.41538 8.75717 9.49415L7.49332 10.1261C7.45195 10.1468 7.41841 10.1803 7.39773 10.2217L6.76581 11.4855C6.68704 11.643 6.46223 11.643 6.38346 11.4855L5.75153 10.2217C5.73085 10.1803 5.69731 10.1468 5.65595 10.1261L4.3921 9.49415C4.23456 9.41538 4.23456 9.19057 4.3921 9.1118L5.65595 8.47988Z" fill="black"/>
</svg>
