<svg width="24" height="24" viewBox="0 0 24 24" fill="none" xmlns="http://www.w3.org/2000/svg">
<path fill-rule="evenodd" clip-rule="evenodd" d="M17.6498 4.51271C16.9662 3.8291 15.8579 3.8291 15.1743 4.51271L5.22018 14.4668C5.12156 14.5654 5.05239 14.6896 5.02045 14.8253L4.01995 19.0775C3.96046 19.3303 4.03602 19.5959 4.21968 19.7796C4.40335 19.9632 4.66896 20.0388 4.92179 19.9793L9.17391 18.9788C9.30967 18.9469 9.43384 18.8777 9.53246 18.7791L19.4865 8.82498C20.1702 8.14137 20.1702 7.03302 19.4865 6.34941L17.6498 4.51271ZM16.2349 5.57337C16.3328 5.47554 16.4914 5.47554 16.5892 5.57337L18.4259 7.41007C18.5237 7.50789 18.5237 7.6665 18.4259 7.76432L18.9562 8.29465L18.4259 7.76432L17.1233 9.06687L14.9324 6.87592L16.2349 5.57337L15.7046 5.04304L16.2349 5.57337ZM13.8717 7.93658L6.43171 15.3766L5.75757 18.2417L8.62266 17.5675L16.0627 10.1275L13.8717 7.93658Z" fill="black"/>
</svg>
