<svg width="24" height="24" viewBox="0 0 24 24" fill="none" xmlns="http://www.w3.org/2000/svg">
<path fill-rule="evenodd" clip-rule="evenodd" d="M5.875 7.83331C5.875 7.21199 6.37868 6.70831 7 6.70831H16.8438C17.4651 6.70831 17.9688 7.21199 17.9688 7.83331V9.42706H5.875V7.83331ZM5.875 10.9271V15.8021C5.875 16.4234 6.37867 16.9271 7 16.9271H16.8438C17.4651 16.9271 17.9688 16.4234 17.9688 15.8021V10.9271H5.875ZM7 5.20831C5.55025 5.20831 4.375 6.38357 4.375 7.83331V15.8021C4.375 17.2518 5.55026 18.4271 7 18.4271H16.8438C18.2935 18.4271 19.4688 17.2518 19.4688 15.8021V7.83331C19.4688 6.38357 18.2935 5.20831 16.8438 5.20831H7ZM7.1875 13.9271C7.1875 13.5129 7.52329 13.1771 7.9375 13.1771H10.2812C10.6955 13.1771 11.0312 13.5129 11.0312 13.9271C11.0312 14.3413 10.6955 14.6771 10.2812 14.6771H7.9375C7.52329 14.6771 7.1875 14.3413 7.1875 13.9271ZM15.4375 13.1771C15.0233 13.1771 14.6875 13.5129 14.6875 13.9271C14.6875 14.3413 15.0233 14.6771 15.4375 14.6771H15.9062C16.3205 14.6771 16.6562 14.3413 16.6562 13.9271C16.6562 13.5129 16.3205 13.1771 15.9062 13.1771H15.4375Z" fill="black"/>
</svg>
