<svg width="24" height="24" viewBox="0 0 24 24" fill="none" xmlns="http://www.w3.org/2000/svg">
<path d="M17.8333 9.49995V16.1666M14.5 16.1666V9.49995M6.16667 9.49995V16.1666M9.5 16.1666V9.49995M4.96066 7.60295L11.6273 4.26962C11.8619 4.15232 12.1381 4.15232 12.3727 4.26962L19.0393 7.60296C19.3217 7.74412 19.5 8.03267 19.5 8.34831V8.66662C19.5 9.12685 19.1269 9.49995 18.6667 9.49995H5.33333C4.8731 9.49995 4.5 9.12685 4.5 8.66662V8.34831C4.5 8.03267 4.67833 7.74412 4.96066 7.60295ZM5.65619 18.6666H18.3438C18.9126 18.6666 19.3142 18.1094 19.1344 17.5698L18.8566 16.7364C18.7432 16.3961 18.4247 16.1666 18.066 16.1666H5.93397C5.57527 16.1666 5.25682 16.3961 5.1434 16.7364L4.86562 17.5698C4.68575 18.1094 5.08739 18.6666 5.65619 18.6666Z" stroke="black" stroke-width="1.5" stroke-linecap="square"/>
</svg>
