<svg width="24" height="24" viewBox="0 0 24 24" fill="none" xmlns="http://www.w3.org/2000/svg">
<path d="M14.4998 17V16.132C14.4998 15.8103 14.6878 15.5218 14.9648 15.3581C14.9786 15.3499 14.9924 15.3417 15.0062 15.3333C16.7002 14.3126 17.8332 12.4553 17.8332 10.3333C17.8332 7.11168 15.2215 4.5 11.9998 4.5C8.77818 4.5 6.1665 7.11168 6.1665 10.3333C6.1665 12.4553 7.29949 14.3126 8.99351 15.3333C9.0073 15.3417 9.02111 15.3499 9.03496 15.3581C9.31187 15.5218 9.49984 15.8103 9.49984 16.132V17M14.4998 17V17.8333C14.4998 19.2141 13.3806 20.3333 11.9998 20.3333C10.6191 20.3333 9.49984 19.2141 9.49984 17.8333V17M14.4998 17H9.49984" stroke="black" stroke-width="1.5" stroke-linejoin="round"/>
</svg>
