<svg width="24" height="24" viewBox="0 0 24 24" fill="none" xmlns="http://www.w3.org/2000/svg">
<path d="M9.70833 5.125H6.45833C5.99162 5.125 5.75827 5.125 5.58001 5.21582C5.42321 5.29572 5.29572 5.42321 5.21582 5.58001C5.125 5.75827 5.125 5.99162 5.125 6.45833V17.5417C5.125 18.0084 5.125 18.2418 5.21582 18.42C5.29572 18.5768 5.42321 18.7043 5.58001 18.7842C5.75827 18.875 5.99162 18.875 6.45833 18.875H17.5417C18.0084 18.875 18.2418 18.875 18.42 18.7842C18.5768 18.7043 18.7043 18.5768 18.7842 18.42C18.875 18.2418 18.875 18.0084 18.875 17.5417V14.2917M13.4583 5.125H18.875M18.875 5.125V10.5417M18.875 5.125L11.1667 12.8333" stroke="black" stroke-width="1.25" stroke-linecap="round" stroke-linejoin="round"/>
<path d="M9.70833 5.125H6.45833C5.99162 5.125 5.75827 5.125 5.58001 5.21582C5.42321 5.29572 5.29572 5.42321 5.21582 5.58001C5.125 5.75827 5.125 5.99162 5.125 6.45833V17.5417C5.125 18.0084 5.125 18.2418 5.21582 18.42C5.29572 18.5768 5.42321 18.7043 5.58001 18.7842C5.75827 18.875 5.99162 18.875 6.45833 18.875H17.5417C18.0084 18.875 18.2418 18.875 18.42 18.7842C18.5768 18.7043 18.7043 18.5768 18.7842 18.42C18.875 18.2418 18.875 18.0084 18.875 17.5417V14.2917M13.4583 5.125H18.875M18.875 5.125V10.5417M18.875 5.125L11.1667 12.8333" stroke="black" stroke-width="1.5" stroke-linecap="round" stroke-linejoin="round"/>
</svg>
