<svg width="24" height="24" viewBox="0 0 24 24" fill="none">
<path fill-rule="evenodd" clip-rule="evenodd" d="M3.75 6.72136C3.75 6.44998 3.97 6.22998 4.24138 6.22998H12H19.7586C20.03 6.22998 20.25 6.44998 20.25 6.72136V17.2731C20.25 17.5445 20.03 17.7645 19.7586 17.7645H12.6535C12.3651 16.8298 11.9295 15.8412 11.3799 15.0502C11.0962 14.6418 10.7437 14.2324 10.3263 13.9259C11.2171 13.4253 11.819 12.4712 11.819 11.3765C11.819 9.76253 10.5106 8.45412 8.89655 8.45412C7.28255 8.45412 5.97414 9.76253 5.97414 11.3765C5.97414 12.4712 6.57597 13.4252 7.4668 13.9259C7.04928 14.2324 6.69683 14.6418 6.41309 15.0502C5.86355 15.8412 5.42788 16.8298 5.1395 17.7645H4.24138C3.97 17.7645 3.75 17.5445 3.75 17.2731V6.72136ZM10.148 15.9061C10.5105 16.4278 10.8292 17.088 11.0725 17.7645H6.72051C6.96384 17.088 7.28248 16.4278 7.64496 15.9061C8.15323 15.1745 8.599 14.9196 8.8965 14.9196C9.19401 14.9196 9.63978 15.1745 10.148 15.9061ZM4.24138 4.72998C3.14157 4.72998 2.25 5.62155 2.25 6.72136V17.2731C2.25 18.3729 3.14157 19.2645 4.24138 19.2645H19.7586C20.8584 19.2645 21.75 18.3729 21.75 17.2731V6.72136C21.75 5.62155 20.8584 4.72998 19.7586 4.72998H12H4.24138ZM7.47414 11.3765C7.47414 10.591 8.11097 9.95412 8.89655 9.95412C9.68213 9.95412 10.319 10.591 10.319 11.3765C10.319 12.1621 9.68213 12.7989 8.89655 12.7989C8.11097 12.7989 7.47414 12.1621 7.47414 11.3765ZM15.4138 9.6955C14.9996 9.6955 14.6638 10.0313 14.6638 10.4455C14.6638 10.8597 14.9996 11.1955 15.4138 11.1955H17.2759C17.6901 11.1955 18.0259 10.8597 18.0259 10.4455C18.0259 10.0313 17.6901 9.6955 17.2759 9.6955H15.4138ZM15.4138 13.4196C14.9996 13.4196 14.6638 13.7554 14.6638 14.1696C14.6638 14.5838 14.9996 14.9196 15.4138 14.9196H17.2759C17.6901 14.9196 18.0259 14.5838 18.0259 14.1696C18.0259 13.7554 17.6901 13.4196 17.2759 13.4196H15.4138Z" fill="black"/>
</svg>
