<svg width="24" height="24" viewBox="0 0 24 24" fill="none" xmlns="http://www.w3.org/2000/svg">
<path fill-rule="evenodd" clip-rule="evenodd" d="M9.97931 18.5484L10.5071 12.9113H10.4591C10.0364 12.9114 9.68679 12.7586 9.36508 12.4803C9.04333 12.2021 8.82981 11.8166 8.76283 11.3931L9.75927 10.7394V10.7312C9.75924 10.2857 9.92872 9.85735 10.2323 9.53554C10.536 9.21371 10.9503 9.02332 11.3889 9.00403V9.00222H11.6852V7.94976C11.8952 7.94977 12.0985 8.02527 12.259 8.16288C12.4194 8.30049 12.5266 8.49131 12.5616 8.70151H12.5741V7.94976C12.732 7.94977 12.887 7.99246 13.0233 8.07344C13.1595 8.15443 13.2721 8.27079 13.3493 8.41055C13.4266 8.55033 13.4657 8.70843 13.4628 8.86866C13.4599 9.02888 13.4149 9.18542 13.3326 9.32215C13.6002 9.49965 13.82 9.74208 13.9722 10.0275C14.1242 10.3129 14.2038 10.6323 14.2037 10.9567V17.76C14.2037 17.8598 14.2427 17.9554 14.3122 18.0258C14.3817 18.0964 14.4759 18.1359 14.574 18.1359H15.0133C14.3964 18.4537 13.7243 18.6769 13.0154 18.7869C16.2154 18.2907 18.6668 15.4854 18.6668 12.0991C18.6668 8.36249 15.682 5.33337 12.0001 5.33337C8.31826 5.33337 5.3335 8.36249 5.3335 12.0991C5.3335 15.1208 7.28535 17.6798 9.97931 18.5484ZM10.7634 10.9047C10.7253 10.9434 10.7038 10.9959 10.7037 11.0507L10.685 11.2576H11.0924C11.2005 11.2576 11.3041 11.214 11.3805 11.1365C11.4569 11.0589 11.4999 10.9537 11.4999 10.844H10.9073C10.8533 10.8441 10.8016 10.8659 10.7634 10.9047Z" fill="black"/>
</svg>
