<svg width="24" height="24" viewBox="0 0 24 24" fill="none" xmlns="http://www.w3.org/2000/svg">
<path d="M18.0604 17.4239L14.9363 12.8534H12.0146L15.5148 17.9735C15.6016 18.1181 15.7173 18.2628 15.862 18.3495C16.0066 18.4363 16.1802 18.4653 16.3537 18.4653H17.6265C18.234 18.4363 18.4365 17.9735 18.0604 17.4239Z" fill="black"/>
<path d="M9.0639 12.8245L5.93977 17.4239C5.56371 18.0024 5.7662 18.4363 6.37367 18.4363H7.64647C7.82003 18.4363 7.9936 18.4074 8.13823 18.3206C8.28287 18.2338 8.39857 18.1181 8.48536 17.9446L11.9855 12.8245H9.0639Z" fill="black"/>
<path d="M18.0604 6.57617L14.9363 11.1467H12.0146L15.5148 6.02655C15.6016 5.88192 15.7173 5.73728 15.862 5.6505C16.0066 5.56372 16.1802 5.53479 16.3537 5.53479H17.6265C18.234 5.56372 18.4075 6.02655 18.0604 6.57617Z" fill="black"/>
<path d="M9.0639 11.1756L5.93977 6.57617C5.56371 5.99763 5.7662 5.56372 6.37367 5.56372H7.64647C7.82003 5.56372 7.9936 5.59265 8.13823 5.67943C8.28287 5.76621 8.39857 5.88192 8.48536 6.05548L11.9855 11.1756H9.0639Z" fill="black"/>
</svg>
