<svg width="24" height="24" viewBox="0 0 24 24" fill="none" xmlns="http://www.w3.org/2000/svg">
<path d="M8.25 6.79165C8.25 5.98623 8.90292 5.33331 9.70833 5.33331C10.5138 5.33331 11.1667 5.98623 11.1667 6.79165C11.1667 7.59706 10.5138 8.24998 9.70833 8.24998C8.90292 8.24998 8.25 7.59706 8.25 6.79165Z" fill="black"/>
<path d="M12.8335 6.79165C12.8335 5.98623 13.4864 5.33331 14.2918 5.33331C15.0972 5.33331 15.7502 5.98623 15.7502 6.79165C15.7502 7.59706 15.0972 8.24998 14.2918 8.24998C13.4864 8.24998 12.8335 7.59706 12.8335 6.79165Z" fill="black"/>
<path d="M8.25 17.2083C8.25 16.4029 8.90292 15.75 9.70833 15.75C10.5138 15.75 11.1667 16.4029 11.1667 17.2083C11.1667 18.0138 10.5138 18.6667 9.70833 18.6667C8.90292 18.6667 8.25 18.0138 8.25 17.2083Z" fill="black"/>
<path d="M12.8335 17.2083C12.8335 16.4029 13.4864 15.75 14.2918 15.75C15.0972 15.75 15.7502 16.4029 15.7502 17.2083C15.7502 18.0138 15.0972 18.6667 14.2918 18.6667C13.4864 18.6667 12.8335 18.0138 12.8335 17.2083Z" fill="black"/>
<path d="M8.25 11.9166C8.25 11.1112 8.90292 10.4583 9.70833 10.4583C10.5138 10.4583 11.1667 11.1112 11.1667 11.9166V12C11.1667 12.8054 10.5138 13.4583 9.70833 13.4583C8.90292 13.4583 8.25 12.8054 8.25 12V11.9166Z" fill="black"/>
<path d="M12.8335 11.9166C12.8335 11.1112 13.4864 10.4583 14.2918 10.4583C15.0972 10.4583 15.7502 11.1112 15.7502 11.9166V12C15.7502 12.8054 15.0972 13.4583 14.2918 13.4583C13.4864 13.4583 12.8335 12.8054 12.8335 12V11.9166Z" fill="black"/>
</svg>
