<svg width="24" height="24" viewBox="0 0 24 24" fill="none" xmlns="http://www.w3.org/2000/svg">
<path d="M4.48534 18.1253L4.82583 17.4571L4.82583 17.4571L4.48534 18.1253ZM4.09688 17.7369L3.42863 18.0774L3.42863 18.0774L4.09688 17.7369ZM19.9031 17.7369L19.2349 17.3964H19.2349L19.9031 17.7369ZM19.5147 18.1253L19.8552 18.7936L19.5147 18.1253ZM19.9031 6.26311L19.2349 6.6036L19.2349 6.60361L19.9031 6.26311ZM19.5147 5.87465L19.8552 5.2064L19.8552 5.2064L19.5147 5.87465ZM4.09688 6.26311L3.42863 5.92262V5.92262L4.09688 6.26311ZM4.48534 5.87465L4.14485 5.2064H4.14485L4.48534 5.87465ZM12.5629 12.4283L13.0378 13.0088H13.0378L12.5629 12.4283ZM11.4371 12.4283L10.9622 13.0088L10.9622 13.0088L11.4371 12.4283ZM19.25 7.19999V16.8H20.75V7.19999H19.25ZM18.5778 17.4722H5.42222V18.9722H18.5778V17.4722ZM4.75 16.8V7.19999H3.25V16.8H4.75ZM5.42222 6.52777H18.5778V5.02777H5.42222V6.52777ZM5.42222 17.4722C5.16093 17.4722 5.01007 17.4716 4.89948 17.4626C4.79763 17.4543 4.79756 17.4427 4.82583 17.4571L4.14485 18.7936C4.36327 18.9049 4.58272 18.9417 4.77733 18.9576C4.96318 18.9728 5.18569 18.9722 5.42222 18.9722V17.4722ZM3.25 16.8C3.25 17.0365 3.24942 17.259 3.2646 17.4449C3.2805 17.6395 3.31734 17.8589 3.42863 18.0774L4.76514 17.3964C4.77955 17.4247 4.76794 17.4246 4.75962 17.3227C4.75058 17.2121 4.75 17.0613 4.75 16.8H3.25ZM4.82583 17.4571C4.7997 17.4438 4.77845 17.4225 4.76514 17.3964L3.42863 18.0774C3.58575 18.3857 3.83647 18.6365 4.14485 18.7936L4.82583 17.4571ZM19.25 16.8C19.25 17.0613 19.2494 17.2121 19.2404 17.3227C19.2321 17.4246 19.2205 17.4247 19.2349 17.3964L20.5714 18.0774C20.6827 17.8589 20.7195 17.6395 20.7354 17.4449C20.7506 17.259 20.75 17.0365 20.75 16.8H19.25ZM18.5778 18.9722C18.8143 18.9722 19.0368 18.9728 19.2227 18.9576C19.4173 18.9417 19.6367 18.9049 19.8552 18.7936L19.1742 17.4571C19.2024 17.4427 19.2024 17.4543 19.1005 17.4626C18.9899 17.4716 18.8391 17.4722 18.5778 17.4722V18.9722ZM19.2349 17.3964C19.2215 17.4225 19.2003 17.4438 19.1742 17.4571L19.8552 18.7936C20.1635 18.6365 20.4142 18.3857 20.5714 18.0774L19.2349 17.3964ZM20.75 7.19999C20.75 6.96346 20.7506 6.74095 20.7354 6.5551C20.7195 6.36049 20.6827 6.14104 20.5714 5.92262L19.2349 6.60361C19.2205 6.57533 19.2321 6.5754 19.2404 6.67725C19.2494 6.78785 19.25 6.93871 19.25 7.19999H20.75ZM18.5778 6.52777C18.8391 6.52777 18.9899 6.52835 19.1005 6.53739C19.2024 6.54571 19.2024 6.55732 19.1742 6.54291L19.8552 5.2064C19.6367 5.09511 19.4173 5.05827 19.2227 5.04237C19.0368 5.02719 18.8143 5.02777 18.5778 5.02777V6.52777ZM20.5714 5.92262C20.4142 5.61424 20.1635 5.36352 19.8552 5.2064L19.1742 6.54291C19.2003 6.55622 19.2215 6.57747 19.2349 6.6036L20.5714 5.92262ZM4.75 7.19999C4.75 6.93871 4.75058 6.78785 4.75962 6.67725C4.76794 6.5754 4.77955 6.57533 4.76514 6.60361L3.42863 5.92262C3.31734 6.14104 3.2805 6.36049 3.2646 6.5551C3.24942 6.74095 3.25 6.96346 3.25 7.19999H4.75ZM5.42222 5.02777C5.18569 5.02777 4.96318 5.02719 4.77733 5.04237C4.58272 5.05827 4.36327 5.09511 4.14485 5.2064L4.82583 6.54291C4.79756 6.55732 4.79763 6.54571 4.89948 6.53739C5.01007 6.52835 5.16093 6.52777 5.42222 6.52777V5.02777ZM4.76514 6.60361C4.77845 6.57747 4.7997 6.55622 4.82583 6.54291L4.14485 5.2064C3.83647 5.36353 3.58575 5.61424 3.42863 5.92262L4.76514 6.60361ZM19.5251 5.76296L12.088 11.8479L13.0378 13.0088L20.4749 6.9239L19.5251 5.76296ZM11.9121 11.8479L4.47493 5.76296L3.52507 6.9239L10.9622 13.0088L11.9121 11.8479ZM12.088 11.8479C12.0368 11.8897 11.9632 11.8897 11.912 11.8479L10.9622 13.0088C11.5659 13.5028 12.4341 13.5028 13.0378 13.0088L12.088 11.8479Z" fill="black"/>
</svg>
