<svg width="24" height="24" viewBox="0 0 24 24" fill="none">
<path fill-rule="evenodd" clip-rule="evenodd" d="M12 5.5C8.41015 5.5 5.5 8.41015 5.5 12C5.5 13.5662 6.0539 15.0029 6.97649 16.1251C8.24783 14.8154 10.029 14 12 14C13.971 14 15.7522 14.8154 17.0235 16.1251C17.9461 15.0029 18.5 13.5662 18.5 12C18.5 8.41015 15.5899 5.5 12 5.5ZM15.9443 17.1669C14.9442 16.1378 13.5468 15.5 12 15.5C10.4531 15.5 9.05584 16.1378 8.05569 17.1669C9.14954 18.0032 10.5168 18.5 12 18.5C13.4832 18.5 14.8505 18.0032 15.9443 17.1669ZM4 12C4 7.58172 7.58172 4 12 4C16.4183 4 20 7.58172 20 12C20 16.4183 16.4183 20 12 20C7.58172 20 4 16.4183 4 12ZM12 8.5C11.1716 8.5 10.5 9.17157 10.5 10C10.5 10.8284 11.1716 11.5 12 11.5C12.8284 11.5 13.5 10.8284 13.5 10C13.5 9.17157 12.8284 8.5 12 8.5ZM9 10C9 8.34315 10.3431 7 12 7C13.6569 7 15 8.34315 15 10C15 11.6569 13.6569 13 12 13C10.3431 13 9 11.6569 9 10Z" fill="black"/>
</svg>
