<svg width="24" height="24" viewBox="0 0 24 24" fill="none" xmlns="http://www.w3.org/2000/svg">
<path d="M3.66683 10.75L6.75057 6.50982C6.90739 6.29419 7.15791 6.16663 7.42451 6.16663H16.5675C16.8387 6.16663 17.093 6.29863 17.2491 6.52047L20.3335 10.9047M3.66683 10.75H2.8335M3.66683 10.75V17C3.66683 17.4602 4.03993 17.8333 4.50016 17.8333H6.16683C6.62706 17.8333 7.00016 17.4602 7.00016 17V16.1666H17.0002V17C17.0002 17.4602 17.3732 17.8333 17.8335 17.8333H19.5002C19.9604 17.8333 20.3335 17.4602 20.3335 17V10.9047M20.3335 10.9047H21.1668M7.00016 12.8333H8.66683M15.3335 12.8333H17.0002" stroke="black" stroke-width="1.5" stroke-linecap="round" stroke-linejoin="round"/>
</svg>
