<svg width="24" height="24" viewBox="0 0 24 24" fill="none" xmlns="http://www.w3.org/2000/svg">
<path d="M15.125 7.625C15.125 9.35089 13.7259 10.75 12 10.75C10.2741 10.75 8.875 9.35089 8.875 7.625C8.875 5.89911 10.2741 4.5 12 4.5C13.7259 4.5 15.125 5.89911 15.125 7.625Z" stroke="black" stroke-width="1.5"/>
<path d="M10.5415 15.5417C10.5415 17.2676 9.1424 18.6667 7.4165 18.6667C5.69061 18.6667 4.2915 17.2676 4.2915 15.5417C4.2915 13.8158 5.69061 12.4167 7.4165 12.4167C9.1424 12.4167 10.5415 13.8158 10.5415 15.5417Z" stroke="black" stroke-width="1.5"/>
<path d="M19.7085 15.5417C19.7085 17.2676 18.3094 18.6667 16.5835 18.6667C14.8576 18.6667 13.4585 17.2676 13.4585 15.5417C13.4585 13.8158 14.8576 12.4167 16.5835 12.4167C18.3094 12.4167 19.7085 13.8158 19.7085 15.5417Z" stroke="black" stroke-width="1.5"/>
</svg>
