<svg width="24" height="28" viewBox="0 0 24 28" fill="none" xmlns="http://www.w3.org/2000/svg">
<g filter="url(#filter0_d_1293_21145)">
<path fill-rule="evenodd" clip-rule="evenodd" d="M6.15901 6.15901C6.58097 5.73705 7.15326 5.5 7.75 5.5H16.25C16.8467 5.5 17.419 5.73705 17.841 6.15901C18.2629 6.58097 18.5 7.15326 18.5 7.75V16.25C18.5 16.8467 18.2629 17.419 17.841 17.841C17.419 18.2629 16.8467 18.5 16.25 18.5H7.75C7.15326 18.5 6.58097 18.2629 6.15901 17.841C5.73705 17.419 5.5 16.8467 5.5 16.25V7.75C5.5 7.15326 5.73705 6.58097 6.15901 6.15901ZM7.75 4C6.75544 4 5.80161 4.39509 5.09835 5.09835C4.39509 5.80161 4 6.75544 4 7.75V16.25C4 17.2446 4.39509 18.1984 5.09835 18.9017C5.80161 19.6049 6.75544 20 7.75 20H16.25C17.2446 20 18.1984 19.6049 18.9017 18.9017C19.6049 18.1984 20 17.2446 20 16.25V7.75C20 6.75544 19.6049 5.80161 18.9017 5.09835C18.1984 4.39509 17.2446 4 16.25 4H7.75ZM8.75 7C8.28587 7 7.84075 7.18438 7.51256 7.51256C7.18438 7.84075 7 8.28587 7 8.75V10.25C7 10.6642 7.33579 11 7.75 11C8.16421 11 8.5 10.6642 8.5 10.25V8.75C8.5 8.6837 8.52634 8.62011 8.57322 8.57322C8.62011 8.52634 8.6837 8.5 8.75 8.5H10.25C10.6642 8.5 11 8.16421 11 7.75C11 7.33579 10.6642 7 10.25 7H8.75ZM13.75 7C13.3358 7 13 7.33579 13 7.75C13 8.16421 13.3358 8.5 13.75 8.5H15.25C15.3163 8.5 15.3799 8.52634 15.4268 8.57322C15.4737 8.62011 15.5 8.6837 15.5 8.75V10.25C15.5 10.6642 15.8358 11 16.25 11C16.6642 11 17 10.6642 17 10.25V8.75C17 8.28587 16.8156 7.84075 16.4874 7.51256C16.1592 7.18438 15.7141 7 15.25 7H13.75ZM8.5 13.75C8.5 13.3358 8.16421 13 7.75 13C7.33579 13 7 13.3358 7 13.75V15.25C7 15.7141 7.18438 16.1592 7.51256 16.4874C7.84075 16.8156 8.28587 17 8.75 17H10.25C10.6642 17 11 16.6642 11 16.25C11 15.8358 10.6642 15.5 10.25 15.5H8.75C8.6837 15.5 8.62011 15.4737 8.57322 15.4268C8.52634 15.3799 8.5 15.3163 8.5 15.25V13.75ZM17 13.75C17 13.3358 16.6642 13 16.25 13C15.8358 13 15.5 13.3358 15.5 13.75V15.25C15.5 15.3163 15.4737 15.3799 15.4268 15.4268C15.3799 15.4737 15.3163 15.5 15.25 15.5H13.75C13.3358 15.5 13 15.8358 13 16.25C13 16.6642 13.3358 17 13.75 17H15.25C15.7141 17 16.1592 16.8156 16.4874 16.4874C16.8156 16.1592 17 15.7141 17 15.25V13.75Z" fill="black"/>
</g>
<defs>
<filter id="filter0_d_1293_21145" x="-4" y="0" width="32" height="32" filterUnits="userSpaceOnUse" color-interpolation-filters="sRGB">
<feFlood flood-opacity="0" result="BackgroundImageFix"/>
<feColorMatrix in="SourceAlpha" type="matrix" values="0 0 0 0 0 0 0 0 0 0 0 0 0 0 0 0 0 0 127 0" result="hardAlpha"/>
<feOffset dy="4"/>
<feGaussianBlur stdDeviation="2"/>
<feComposite in2="hardAlpha" operator="out"/>
<feColorMatrix type="matrix" values="0 0 0 0 0 0 0 0 0 0 0 0 0 0 0 0 0 0 0.25 0"/>
<feBlend mode="normal" in2="BackgroundImageFix" result="effect1_dropShadow_1293_21145"/>
<feBlend mode="normal" in="SourceGraphic" in2="effect1_dropShadow_1293_21145" result="shape"/>
</filter>
</defs>
</svg>
