<svg width="24" height="24" viewBox="0 0 24 24" fill="none" xmlns="http://www.w3.org/2000/svg">
<path d="M7.19561 18.0877C7.35374 17.7069 7.4992 17.3196 7.63148 16.9262M14.0197 19.5015C14.2486 18.8561 14.4516 18.1984 14.6275 17.5298C14.7871 16.9231 14.9244 16.3074 15.0385 15.6837M18.4079 16.3772C18.7212 14.6889 18.8849 12.9481 18.8849 11.169C18.8849 7.37079 15.8058 4.29169 12.0076 4.29169C10.9283 4.29169 9.90713 4.54029 8.99815 4.98335M4.71826 14.6288C4.9875 13.5196 5.1302 12.361 5.1302 11.169C5.1302 9.67296 5.60792 8.28845 6.41913 7.15973M12.0079 11.169C12.0079 13.5421 11.6233 15.8253 10.9131 17.9598C10.7303 18.5089 10.526 19.0484 10.3011 19.5769M8.31928 14.1779C8.48344 13.1994 8.56889 12.1942 8.56889 11.169C8.56889 9.26992 10.1084 7.73037 12.0076 7.73037C13.9067 7.73037 15.4462 9.26992 15.4462 11.169C15.4462 11.6991 15.4297 12.2254 15.3971 12.7472" stroke="black" stroke-width="1.5" stroke-linecap="round" stroke-linejoin="round"/>
</svg>
