<svg width="24" height="24" viewBox="0 0 24 24" fill="none" xmlns="http://www.w3.org/2000/svg">
<path d="M11.8756 13.0428C8.77579 13.0965 6.51861 15.1814 5.89158 17.9714C5.78391 18.4505 6.17292 18.875 6.66397 18.875H11.5819M11.8756 13.0428C11.9164 13.042 11.9574 13.0417 11.9986 13.0417C12.292 13.0417 12.5781 13.0598 12.8561 13.0949M11.8756 13.0428C11.3338 13.0522 10.8181 13.1236 10.332 13.25M12.8561 13.0949C13.1342 13.1299 13.4043 13.182 13.6656 13.25M12.8561 13.0949C13.4411 13.1687 13.9906 13.3177 14.4986 13.5317M14.2903 17.5L16.1236 18.875L18.8736 14.2917M15.1236 7.41669C15.1236 9.14258 13.7245 10.5417 11.9986 10.5417C10.2727 10.5417 8.87362 9.14258 8.87362 7.41669C8.87362 5.6908 10.2727 4.29169 11.9986 4.29169C13.7245 4.29169 15.1236 5.6908 15.1236 7.41669Z" stroke="black" stroke-width="1.5" stroke-linecap="round" stroke-linejoin="round"/>
</svg>
