<svg width="24" height="24" viewBox="0 0 24 24" fill="none" xmlns="http://www.w3.org/2000/svg">
<path d="M17.4165 6.58335L14.3881 9.61178M9.60725 14.3926L6.58317 17.4167M6.58317 6.58335L9.60725 9.60744M14.3881 14.3883L17.4165 17.4167M19.7082 12C19.7082 16.2572 16.257 19.7084 11.9998 19.7084C7.74265 19.7084 4.2915 16.2572 4.2915 12C4.2915 7.74283 7.74265 4.29169 11.9998 4.29169C16.257 4.29169 19.7082 7.74283 19.7082 12ZM15.5415 12C15.5415 13.956 13.9558 15.5417 11.9998 15.5417C10.0438 15.5417 8.45817 13.956 8.45817 12C8.45817 10.044 10.0438 8.45835 11.9998 8.45835C13.9558 8.45835 15.5415 10.044 15.5415 12Z" stroke="black" stroke-width="1.5"/>
</svg>
