<svg width="24" height="24" viewBox="0 0 24 24" fill="none" xmlns="http://www.w3.org/2000/svg">
<path d="M8.875 5.125H5.95833C5.4981 5.125 5.125 5.4981 5.125 5.95833V8.875M5.125 15.125V18.0417C5.125 18.5019 5.4981 18.875 5.95833 18.875H8.875M15.125 5.125H18.0417C18.5019 5.125 18.875 5.4981 18.875 5.95833V8.875M18.875 15.125V18.0417C18.875 18.5019 18.5019 18.875 18.0417 18.875H15.125M12.2083 9.29167V11.1667C12.2083 12.0166 11.5722 12.7179 10.75 12.8204M8.45833 9.29167V10.5417M15.5417 9.29167V10.5417M9.5 15.0811C10.2354 15.5065 11.0892 15.75 12 15.75C12.9107 15.75 13.7646 15.5065 14.5 15.0811" stroke="black" stroke-width="1.5" stroke-linecap="round" stroke-linejoin="round"/>
</svg>
