<svg width="24" height="24" viewBox="0 0 24 24" fill="none" xmlns="http://www.w3.org/2000/svg">
<path fill-rule="evenodd" clip-rule="evenodd" d="M5.47461 4.54541C5.47461 4.09412 5.84082 3.72827 6.29199 3.72827H16.5063C18.0322 3.72827 19.269 4.96521 19.269 6.49103V16.7054C19.269 18.2313 18.0322 19.4681 16.5063 19.4681H6.29199C5.84082 19.4681 5.47461 19.1023 5.47461 18.651V4.54541ZM7.10938 5.36255V17.8339H16.5063C17.1294 17.8339 17.6348 17.3286 17.6348 16.7054V6.49103C17.6348 5.8678 17.1294 5.36255 16.5063 5.36255H7.10938ZM12.3716 8.42859C11.6074 8.42859 10.9878 9.04822 10.9878 9.8125C10.9878 10.5768 11.6074 11.1965 12.3716 11.1965C13.1362 11.1965 13.7559 10.5768 13.7559 9.8125C13.7559 9.04822 13.1362 8.42859 12.3716 8.42859ZM9.73779 9.8125C9.73779 8.35785 10.917 7.17859 12.3716 7.17859C13.8262 7.17859 15.0059 8.35785 15.0059 9.8125C15.0059 11.2672 13.8262 12.4465 12.3716 12.4465C10.917 12.4465 9.73779 11.2672 9.73779 9.8125ZM10.3628 13.875C10.0176 13.875 9.73779 14.1548 9.73779 14.5C9.73779 14.8452 10.0176 15.125 10.3628 15.125H14.3809C14.7256 15.125 15.0059 14.8452 15.0059 14.5C15.0059 14.3267 14.9351 14.1699 14.8213 14.0566C14.708 13.9444 14.5522 13.875 14.3809 13.875H10.3628Z" fill="black"/>
</svg>
