<svg width="24" height="24" viewBox="0 0 24 24" fill="none">
<path fill-rule="evenodd" clip-rule="evenodd" d="M16.9029 8.36641C17.2544 8.01494 17.2544 7.44509 16.9029 7.09362C16.5515 6.74215 15.9816 6.74215 15.6301 7.09362L11.9982 10.7255L8.36635 7.09362C8.01488 6.74215 7.44503 6.74215 7.09356 7.09362C6.74209 7.44509 6.74209 8.01494 7.09356 8.36641L10.7255 11.9983L7.09356 15.6302C6.74209 15.9817 6.74209 16.5515 7.09356 16.903C7.44503 17.2545 8.01488 17.2545 8.36635 16.903L11.9982 13.2711L15.6301 16.903C15.9816 17.2545 16.5515 17.2545 16.9029 16.903C17.2544 16.5515 17.2544 15.9817 16.9029 15.6302L13.271 11.9983L16.9029 8.36641Z" fill="black"/>
</svg>
