<svg width="36" height="55" viewBox="0 0 36 55" fill="none" xmlns="http://www.w3.org/2000/svg">
<g clip-path="url(#clip0_5070_6154)">
<path d="M16.9477 14.4479C17.1243 14.4479 17.2964 14.5766 17.4582 14.5641C17.6302 14.5504 17.7898 14.4638 17.955 14.4376C18.1202 14.4114 18.2729 14.3328 18.4416 14.2952C18.5999 14.2598 18.7754 14.2735 18.9452 14.2291C19.1127 14.1858 19.2597 14.0809 19.4215 14.0331C19.5833 13.9852 19.7486 13.9374 19.9058 13.8815C20.0631 13.8257 20.2374 13.7949 20.3901 13.7231C20.5428 13.6513 20.6966 13.575 20.8391 13.4838C20.9815 13.3927 21.1707 13.3528 21.2994 13.2389C21.4236 13.1283 21.5182 12.9711 21.6276 12.8343C21.7301 12.7067 21.8635 12.5814 21.9523 12.4275C22.0355 12.2817 22.0219 12.0845 22.0936 11.9341C22.1654 11.7837 22.2623 11.6447 22.325 11.4897C22.3876 11.3348 22.4514 11.1798 22.5039 11.0214C22.5563 10.863 22.5893 10.6978 22.6326 10.5371C22.6759 10.3753 22.6725 10.2044 22.7067 10.0414C22.7409 9.87733 22.7682 9.71552 22.7933 9.5503C22.8184 9.38507 22.9437 9.23238 22.9608 9.06601C22.9779 8.89964 22.8662 8.72416 22.8742 8.55666C22.8822 8.38915 22.938 8.2262 22.938 8.05869C22.938 7.93791 22.8936 7.78863 22.8981 7.63138C22.9015 7.4935 22.979 7.34879 22.9847 7.20749C22.9904 7.05594 22.9756 6.9078 22.9802 6.78018C22.9904 6.53177 22.8036 6.38363 23.0166 6.38477C23.2297 6.38591 23.0941 6.52949 23.1044 6.77904C23.1101 6.90666 23.052 7.05594 23.0565 7.20749C23.0622 7.34993 23.0565 7.49578 23.0611 7.6348C23.0656 7.79319 23.0873 7.94019 23.0884 8.06097C23.0884 8.22734 23.0075 8.39826 23.0166 8.56577C23.0258 8.73328 23.1454 8.89167 23.1625 9.05803C23.1796 9.2244 23.1124 9.40216 23.1374 9.56739C23.1625 9.73262 23.2252 9.89329 23.2594 10.0574C23.2935 10.2215 23.387 10.3707 23.4303 10.5314C23.4736 10.6932 23.4383 10.879 23.4918 11.0373C23.5454 11.1957 23.6741 11.3268 23.7368 11.4817C23.7995 11.6367 23.8006 11.8202 23.8735 11.9706C23.9465 12.121 24.1254 12.2144 24.2086 12.3603C24.2963 12.5153 24.3328 12.6885 24.4353 12.8161C24.5447 12.9528 24.6131 13.1306 24.7373 13.2411C24.8615 13.3517 25.0267 13.4394 25.1692 13.5306C25.3116 13.6217 25.5007 13.632 25.6569 13.7049C25.813 13.7778 25.9611 13.8462 26.124 13.9043C26.287 13.9624 26.4408 14.0205 26.6061 14.0695C26.7713 14.1185 26.9445 14.1117 27.1109 14.155C27.2818 14.1994 27.4219 14.3294 27.5803 14.3647C27.749 14.4023 27.9142 14.433 28.0783 14.4593C28.2424 14.4855 28.4167 14.4251 28.5888 14.4387C28.7506 14.4513 28.9135 14.49 29.089 14.49C28.9124 14.49 28.7506 14.5892 28.5876 14.6017C28.4156 14.6154 28.2344 14.506 28.0692 14.5322C27.9039 14.5584 27.7524 14.6632 27.5837 14.7008C27.4254 14.7362 27.2715 14.8125 27.1017 14.8558C26.9342 14.8991 26.769 14.9356 26.6072 14.9823C26.4454 15.029 26.2859 15.0962 26.1275 15.1532C25.9691 15.2102 25.8084 15.2672 25.6557 15.3378C25.503 15.4085 25.3253 15.4415 25.1817 15.5327C25.0381 15.6238 24.9413 15.772 24.8125 15.8859C24.6883 15.9964 24.4911 16.0454 24.3806 16.1822C24.2781 16.3098 24.1823 16.4625 24.0946 16.6175C24.0114 16.7633 23.9841 16.9399 23.9123 17.0904C23.8405 17.2408 23.7767 17.3957 23.714 17.5507C23.6513 17.7057 23.6012 17.8652 23.5488 18.0236C23.4964 18.182 23.42 18.3335 23.3767 18.4954C23.3334 18.6572 23.3072 18.8235 23.273 18.9865C23.2388 19.1506 23.1728 19.309 23.1465 19.4742C23.1203 19.6394 23.1238 19.8103 23.1067 19.9767C23.0896 20.1431 23.0975 20.3117 23.0884 20.4792C23.0805 20.6467 23.1249 20.8142 23.1249 20.9806C23.1249 21.1014 23.0315 21.2472 23.0269 21.4056C23.0235 21.5435 23.0269 21.6905 23.0223 21.8318C23.0166 21.9834 22.9699 22.1281 22.9642 22.2568C22.954 22.5052 22.9562 22.6887 22.9562 22.6887C22.946 22.4756 22.9745 22.5098 22.9642 22.2614C22.9585 22.1338 23.0166 21.9845 23.0109 21.8329C23.0052 21.6905 22.9152 21.5469 22.9118 21.409C22.9072 21.2507 22.9779 21.1014 22.9779 20.9817C22.9779 20.8154 22.9733 20.6467 22.9642 20.4792C22.9551 20.3117 22.9882 20.1396 22.9722 19.9733C22.9562 19.8069 22.897 19.644 22.8708 19.4776C22.8457 19.3124 22.783 19.1528 22.7489 18.9888C22.7147 18.8247 22.7033 18.6549 22.66 18.4942C22.6167 18.3324 22.5312 18.1831 22.4777 18.0247C22.4241 17.8664 22.4252 17.6863 22.3637 17.5313C22.3022 17.3764 22.2179 17.2271 22.1461 17.0767C22.0743 16.9263 21.9204 16.8192 21.8373 16.6733C21.7495 16.5183 21.7051 16.3485 21.6025 16.2209C21.4931 16.0842 21.4065 15.9258 21.2823 15.8141C21.1536 15.7002 20.9986 15.6124 20.8562 15.5213C20.7137 15.4301 20.5485 15.372 20.3935 15.3002C20.2385 15.2284 20.1018 15.1122 19.9389 15.0541C19.7759 14.996 19.6004 14.9925 19.4352 14.9447C19.27 14.8968 19.1253 14.7886 18.9589 14.7453C18.788 14.7008 18.6056 14.7384 18.4473 14.7031C18.2786 14.6655 18.1191 14.6131 17.9538 14.5869C17.7886 14.5607 17.6177 14.5983 17.4456 14.5846C17.2838 14.5721 17.1197 14.449 16.9431 14.449L16.9477 14.4479Z" fill="black"/>
<path d="M16.9477 14.4479C17.1243 14.4479 17.2964 14.5766 17.4582 14.5641C17.6302 14.5504 17.7898 14.4638 17.955 14.4376C18.1202 14.4114 18.2729 14.3328 18.4416 14.2952C18.5999 14.2598 18.7754 14.2735 18.9452 14.2291C19.1127 14.1858 19.2597 14.0809 19.4215 14.0331C19.5833 13.9852 19.7486 13.9374 19.9058 13.8815C20.0631 13.8257 20.2374 13.7949 20.3901 13.7231C20.5428 13.6513 20.6966 13.575 20.8391 13.4838C20.9815 13.3927 21.1707 13.3528 21.2994 13.2389C21.4236 13.1283 21.5182 12.9711 21.6276 12.8343C21.7301 12.7067 21.8635 12.5814 21.9523 12.4275C22.0355 12.2817 22.0219 12.0845 22.0936 11.9341C22.1654 11.7837 22.2623 11.6447 22.325 11.4897C22.3876 11.3348 22.4514 11.1798 22.5039 11.0214C22.5563 10.863 22.5893 10.6978 22.6326 10.5371C22.6759 10.3753 22.6725 10.2044 22.7067 10.0414C22.7409 9.87733 22.7682 9.71552 22.7933 9.5503C22.8184 9.38507 22.9437 9.23238 22.9608 9.06601C22.9779 8.89964 22.8662 8.72416 22.8742 8.55666C22.8822 8.38915 22.938 8.2262 22.938 8.05869C22.938 7.93791 22.8936 7.78863 22.8981 7.63138C22.9015 7.4935 22.979 7.34879 22.9847 7.20749C22.9904 7.05594 22.9756 6.9078 22.9802 6.78018C22.9904 6.53177 22.8036 6.38363 23.0166 6.38477C23.2297 6.38591 23.0941 6.52949 23.1044 6.77904C23.1101 6.90666 23.052 7.05594 23.0565 7.20749C23.0622 7.34993 23.0565 7.49578 23.0611 7.6348C23.0656 7.79319 23.0873 7.94019 23.0884 8.06097C23.0884 8.22734 23.0075 8.39826 23.0166 8.56577C23.0258 8.73328 23.1454 8.89167 23.1625 9.05803C23.1796 9.2244 23.1124 9.40216 23.1374 9.56739C23.1625 9.73262 23.2252 9.89329 23.2594 10.0574C23.2935 10.2215 23.387 10.3707 23.4303 10.5314C23.4736 10.6932 23.4383 10.879 23.4918 11.0373C23.5454 11.1957 23.6741 11.3268 23.7368 11.4817C23.7995 11.6367 23.8006 11.8202 23.8735 11.9706C23.9465 12.121 24.1254 12.2144 24.2086 12.3603C24.2963 12.5153 24.3328 12.6885 24.4353 12.8161C24.5447 12.9528 24.6131 13.1306 24.7373 13.2411C24.8615 13.3517 25.0267 13.4394 25.1692 13.5306C25.3116 13.6217 25.5007 13.632 25.6569 13.7049C25.813 13.7778 25.9611 13.8462 26.124 13.9043C26.287 13.9624 26.4408 14.0205 26.6061 14.0695C26.7713 14.1185 26.9445 14.1117 27.1109 14.155C27.2818 14.1994 27.4219 14.3294 27.5803 14.3647C27.749 14.4023 27.9142 14.433 28.0783 14.4593C28.2424 14.4855 28.4167 14.4251 28.5888 14.4387C28.7506 14.4513 28.9135 14.49 29.089 14.49C28.9124 14.49 28.7506 14.5892 28.5876 14.6017C28.4156 14.6154 28.2344 14.506 28.0692 14.5322C27.9039 14.5584 27.7524 14.6632 27.5837 14.7008C27.4254 14.7362 27.2715 14.8125 27.1017 14.8558C26.9342 14.8991 26.769 14.9356 26.6072 14.9823C26.4454 15.029 26.2859 15.0962 26.1275 15.1532C25.9691 15.2102 25.8084 15.2672 25.6557 15.3378C25.503 15.4085 25.3253 15.4415 25.1817 15.5327C25.0381 15.6238 24.9413 15.772 24.8125 15.8859C24.6883 15.9964 24.4911 16.0454 24.3806 16.1822C24.2781 16.3098 24.1823 16.4625 24.0946 16.6175C24.0114 16.7633 23.9841 16.9399 23.9123 17.0904C23.8405 17.2408 23.7767 17.3957 23.714 17.5507C23.6513 17.7057 23.6012 17.8652 23.5488 18.0236C23.4964 18.182 23.42 18.3335 23.3767 18.4954C23.3334 18.6572 23.3072 18.8235 23.273 18.9865C23.2388 19.1506 23.1728 19.309 23.1465 19.4742C23.1203 19.6394 23.1238 19.8103 23.1067 19.9767C23.0896 20.1431 23.0975 20.3117 23.0884 20.4792C23.0805 20.6467 23.1249 20.8142 23.1249 20.9806C23.1249 21.1014 23.0315 21.2472 23.0269 21.4056C23.0235 21.5435 23.0269 21.6905 23.0223 21.8318C23.0166 21.9834 22.9699 22.1281 22.9642 22.2568C22.954 22.5052 22.9562 22.6887 22.9562 22.6887C22.946 22.4756 22.9745 22.5098 22.9642 22.2614C22.9585 22.1338 23.0166 21.9845 23.0109 21.8329C23.0052 21.6905 22.9152 21.5469 22.9118 21.409C22.9072 21.2507 22.9779 21.1014 22.9779 20.9817C22.9779 20.8154 22.9733 20.6467 22.9642 20.4792C22.9551 20.3117 22.9882 20.1396 22.9722 19.9733C22.9562 19.8069 22.897 19.644 22.8708 19.4776C22.8457 19.3124 22.783 19.1528 22.7489 18.9888C22.7147 18.8247 22.7033 18.6549 22.66 18.4942C22.6167 18.3324 22.5312 18.1831 22.4777 18.0247C22.4241 17.8664 22.4252 17.6863 22.3637 17.5313C22.3022 17.3764 22.2179 17.2271 22.1461 17.0767C22.0743 16.9263 21.9204 16.8192 21.8373 16.6733C21.7495 16.5183 21.7051 16.3485 21.6025 16.2209C21.4931 16.0842 21.4065 15.9258 21.2823 15.8141C21.1536 15.7002 20.9986 15.6124 20.8562 15.5213C20.7137 15.4301 20.5485 15.372 20.3935 15.3002C20.2385 15.2284 20.1018 15.1122 19.9389 15.0541C19.7759 14.996 19.6004 14.9925 19.4352 14.9447C19.27 14.8968 19.1253 14.7886 18.9589 14.7453C18.788 14.7008 18.6056 14.7384 18.4473 14.7031C18.2786 14.6655 18.1191 14.6131 17.9538 14.5869C17.7886 14.5607 17.6177 14.5983 17.4456 14.5846C17.2838 14.5721 17.1197 14.449 16.9431 14.449L16.9477 14.4479Z" stroke="black" stroke-width="0.683699" stroke-linecap="round" stroke-linejoin="round"/>
<path d="M27.0301 30.884C27.1896 30.884 27.3401 30.8555 27.4848 30.8407C27.6363 30.8247 27.7856 30.8065 27.9349 30.7757C28.0841 30.745 28.2038 30.639 28.3576 30.5991C28.5149 30.5581 28.6869 30.5775 28.8362 30.5308C28.9855 30.484 29.1439 30.4282 29.2875 30.3644C29.431 30.3006 29.6122 30.2721 29.7444 30.1821C29.8766 30.092 29.9472 29.9223 30.0578 29.8015C30.1615 29.6887 30.2469 29.5588 30.3312 29.4118C30.4156 29.2648 30.4452 29.0973 30.5124 28.9423C30.5808 28.7885 30.7084 28.6597 30.7608 28.5002C30.8144 28.3406 30.852 28.1754 30.8907 28.0125C30.9295 27.8495 31.0309 27.6945 31.0571 27.5282C31.0833 27.3618 31.0514 27.1852 31.0639 27.0177C31.0765 26.849 31.0434 26.6793 31.0434 26.5117C31.0434 26.3602 31.0457 26.1425 31.0525 25.9386C31.0639 25.6389 30.8189 25.3016 31.105 25.3027C31.391 25.3039 31.0685 25.6423 31.0799 25.942C31.0879 26.146 31.0913 26.3613 31.0913 26.5129C31.0913 26.6804 31.1631 26.8479 31.1756 27.0165C31.1881 27.184 31.2656 27.3413 31.2918 27.5077C31.318 27.674 31.3226 27.8393 31.3625 28.0033C31.4012 28.1674 31.4685 28.3178 31.522 28.4774C31.5756 28.6369 31.5573 28.8215 31.6257 28.9753C31.6941 29.1292 31.7852 29.2716 31.8684 29.4186C31.9516 29.5656 32.0564 29.6841 32.159 29.7958C32.2707 29.9166 32.4017 29.9975 32.5316 30.0863C32.6615 30.1752 32.7971 30.2493 32.9441 30.3154C33.0911 30.3815 33.2381 30.4191 33.3942 30.4681C33.5503 30.5171 33.6882 30.5877 33.8454 30.6288C34.0004 30.6686 34.1246 30.794 34.2671 30.8236C34.4163 30.8544 34.577 30.8111 34.7286 30.827C34.8801 30.843 35.0214 30.8065 35.1809 30.8065C35.0214 30.8065 34.8756 30.8874 34.732 30.9034C34.5804 30.9193 34.4289 30.8977 34.2785 30.9284C34.128 30.9592 34.0061 31.0492 33.8523 31.0891C33.695 31.1301 33.5344 31.1449 33.384 31.1917C33.2335 31.2384 33.0797 31.2931 32.935 31.3569C32.7903 31.4207 32.6057 31.4332 32.4746 31.5233C32.3436 31.6133 32.2103 31.7215 32.0986 31.8423C31.9949 31.9551 31.9106 32.1044 31.8263 32.2514C31.7419 32.3984 31.726 32.5784 31.6576 32.7323C31.5892 32.8861 31.4787 33.024 31.4263 33.1846C31.3739 33.3453 31.375 33.5208 31.3363 33.6849C31.2975 33.849 31.2109 34.0039 31.1847 34.1703C31.1597 34.3367 31.2394 34.5144 31.2257 34.6819C31.2121 34.8495 31.1802 35.0135 31.1802 35.1822C31.1802 35.3337 31.0936 35.5491 31.0856 35.7531C31.0742 36.0528 31.3898 36.3331 31.1038 36.3331C30.8178 36.3331 31.056 36.055 31.0446 35.7565C31.0366 35.5525 31.0993 35.3349 31.0993 35.1833C31.0993 35.0158 31.0104 34.8506 30.9978 34.6831C30.9853 34.5156 31.0742 34.3355 31.048 34.1692C31.0218 34.0028 31.0024 33.8296 30.9625 33.6655C30.9226 33.5014 30.8406 33.3453 30.787 33.1858C30.7335 33.0263 30.6959 32.8553 30.6275 32.7015C30.5591 32.5477 30.4623 32.4018 30.3791 32.2548C30.2959 32.1078 30.1478 32.0155 30.0452 31.9027C29.9336 31.7819 29.8219 31.6748 29.692 31.5859C29.5621 31.497 29.4538 31.3501 29.3057 31.2851C29.1576 31.2201 28.9764 31.2532 28.8214 31.2042C28.6664 31.1552 28.5285 31.0743 28.3713 31.0344C28.2163 30.9945 28.0557 31.0344 27.9144 31.0048C27.7651 30.974 27.6283 30.9205 27.4768 30.9045C27.3252 30.8886 27.1874 30.8863 27.0278 30.8863L27.0301 30.884Z" fill="black"/>
<path d="M27.0301 30.884C27.1896 30.884 27.3401 30.8555 27.4848 30.8407C27.6363 30.8247 27.7856 30.8065 27.9349 30.7757C28.0841 30.745 28.2038 30.639 28.3576 30.5991C28.5149 30.5581 28.6869 30.5775 28.8362 30.5308C28.9855 30.484 29.1439 30.4282 29.2875 30.3644C29.431 30.3006 29.6122 30.2721 29.7444 30.1821C29.8766 30.092 29.9472 29.9223 30.0578 29.8015C30.1615 29.6887 30.2469 29.5588 30.3312 29.4118C30.4156 29.2648 30.4452 29.0973 30.5124 28.9423C30.5808 28.7885 30.7084 28.6597 30.7608 28.5002C30.8144 28.3406 30.852 28.1754 30.8907 28.0125C30.9295 27.8495 31.0309 27.6945 31.0571 27.5282C31.0833 27.3618 31.0514 27.1852 31.0639 27.0177C31.0765 26.849 31.0434 26.6793 31.0434 26.5117C31.0434 26.3602 31.0457 26.1425 31.0525 25.9386C31.0639 25.6389 30.8189 25.3016 31.105 25.3027C31.391 25.3039 31.0685 25.6423 31.0799 25.942C31.0879 26.146 31.0913 26.3613 31.0913 26.5129C31.0913 26.6804 31.1631 26.8479 31.1756 27.0165C31.1881 27.184 31.2656 27.3413 31.2918 27.5077C31.318 27.674 31.3226 27.8393 31.3625 28.0033C31.4012 28.1674 31.4685 28.3178 31.522 28.4774C31.5756 28.6369 31.5573 28.8215 31.6257 28.9753C31.6941 29.1292 31.7852 29.2716 31.8684 29.4186C31.9516 29.5656 32.0564 29.6841 32.159 29.7958C32.2707 29.9166 32.4017 29.9975 32.5316 30.0863C32.6615 30.1752 32.7971 30.2493 32.9441 30.3154C33.0911 30.3815 33.2381 30.4191 33.3942 30.4681C33.5503 30.5171 33.6882 30.5877 33.8454 30.6288C34.0004 30.6686 34.1246 30.794 34.2671 30.8236C34.4163 30.8544 34.577 30.8111 34.7286 30.827C34.8801 30.843 35.0214 30.8065 35.1809 30.8065C35.0214 30.8065 34.8756 30.8874 34.732 30.9034C34.5804 30.9193 34.4289 30.8977 34.2785 30.9284C34.128 30.9592 34.0061 31.0492 33.8523 31.0891C33.695 31.1301 33.5344 31.1449 33.384 31.1917C33.2335 31.2384 33.0797 31.2931 32.935 31.3569C32.7903 31.4207 32.6057 31.4332 32.4746 31.5233C32.3436 31.6133 32.2103 31.7215 32.0986 31.8423C31.9949 31.9551 31.9106 32.1044 31.8263 32.2514C31.7419 32.3984 31.726 32.5784 31.6576 32.7323C31.5892 32.8861 31.4787 33.024 31.4263 33.1846C31.3739 33.3453 31.375 33.5208 31.3363 33.6849C31.2975 33.849 31.2109 34.0039 31.1847 34.1703C31.1597 34.3367 31.2394 34.5144 31.2257 34.6819C31.2121 34.8495 31.1802 35.0135 31.1802 35.1822C31.1802 35.3337 31.0936 35.5491 31.0856 35.7531C31.0742 36.0528 31.3898 36.3331 31.1038 36.3331C30.8178 36.3331 31.056 36.055 31.0446 35.7565C31.0366 35.5525 31.0993 35.3349 31.0993 35.1833C31.0993 35.0158 31.0104 34.8506 30.9978 34.6831C30.9853 34.5156 31.0742 34.3355 31.048 34.1692C31.0218 34.0028 31.0024 33.8296 30.9625 33.6655C30.9226 33.5014 30.8406 33.3453 30.787 33.1858C30.7335 33.0263 30.6959 32.8553 30.6275 32.7015C30.5591 32.5477 30.4623 32.4018 30.3791 32.2548C30.2959 32.1078 30.1478 32.0155 30.0452 31.9027C29.9336 31.7819 29.8219 31.6748 29.692 31.5859C29.5621 31.497 29.4538 31.3501 29.3057 31.2851C29.1576 31.2201 28.9764 31.2532 28.8214 31.2042C28.6664 31.1552 28.5285 31.0743 28.3713 31.0344C28.2163 30.9945 28.0557 31.0344 27.9144 31.0048C27.7651 30.974 27.6283 30.9205 27.4768 30.9045C27.3252 30.8886 27.1874 30.8863 27.0278 30.8863L27.0301 30.884Z" stroke="black" stroke-width="0.683699" stroke-linecap="round" stroke-linejoin="round"/>
<path d="M17.8581 37.5055C17.6975 37.5055 17.5516 37.5033 17.3841 37.4964C17.2166 37.4896 17.0594 37.4508 16.893 37.436C16.7266 37.4212 16.5728 37.3597 16.4087 37.338C16.2446 37.3164 16.0794 37.3278 15.9164 37.3004C15.7535 37.2731 15.5769 37.3141 15.4162 37.2788C15.2555 37.2435 15.1074 37.1432 14.9501 37.0999C14.7929 37.0566 14.6277 37.0156 14.4761 36.9631C14.3154 36.9084 14.1354 36.9119 13.9895 36.8492C13.8312 36.782 13.6762 36.709 13.5394 36.6327C13.3902 36.5484 13.3241 36.3524 13.1976 36.2578C13.0609 36.1564 12.8626 36.1393 12.7498 36.0276C12.6301 35.9091 12.5139 35.7849 12.417 35.6561C12.3202 35.5274 12.2598 35.3599 12.18 35.2197C12.1003 35.0796 12.0957 34.8972 12.0296 34.748C11.9635 34.5975 11.8746 34.4608 11.8188 34.3058C11.763 34.1509 11.6547 34.0153 11.6057 33.8591C11.5567 33.703 11.4986 33.5492 11.4496 33.3931C11.4006 33.2358 11.3243 33.09 11.2718 32.9362C11.2217 32.7903 11.2137 32.6217 11.1681 32.4621C11.1248 32.3128 11.0998 32.1522 11.0599 31.9927C11.02 31.8331 11.0531 31.669 11.0189 31.5095C10.9847 31.35 10.9186 31.2064 10.8878 31.0457C10.8582 30.8908 10.7374 30.7483 10.7101 30.5877C10.6827 30.427 10.7135 30.2629 10.6896 30.1022C10.6656 29.9416 10.6007 29.7923 10.5802 29.6316C10.5597 29.4732 10.5494 29.3126 10.53 29.1519C10.5107 28.9935 10.4867 28.834 10.4696 28.6733C10.4525 28.5138 10.5426 28.344 10.5278 28.1833C10.5129 28.0226 10.3785 27.8745 10.3648 27.715C10.3511 27.5554 10.3363 27.3948 10.3238 27.2341C10.3112 27.0734 10.3147 26.9116 10.3044 26.7521C10.2942 26.5926 10.2759 26.4308 10.2668 26.2712C10.2577 26.1094 10.3534 25.9431 10.3454 25.7847C10.3375 25.6229 10.2349 25.4667 10.2281 25.3084C10.2212 25.15 10.2326 24.9847 10.2281 24.8263C10.2212 24.6634 10.1711 24.5039 10.1665 24.3466C10.162 24.1894 10.2007 24.0207 10.1962 23.8635C10.1916 23.7062 10.2862 23.5364 10.2828 23.3792C10.2793 23.214 10.211 23.0544 10.2087 22.8995C10.2064 22.732 10.1665 22.5724 10.1654 22.4186C10.1643 22.2488 10.2372 22.0881 10.2372 21.9366C10.2372 21.7622 10.1665 21.6016 10.1665 21.4557C10.1665 21.2711 10.2691 21.1104 10.2702 20.9748C10.2736 20.6672 10.1449 20.4951 10.1449 20.4951C10.1506 20.7356 10.2406 20.666 10.2429 20.9748C10.244 21.1104 10.1734 21.2723 10.1745 21.4557C10.1745 21.6027 10.1574 21.7634 10.1563 21.9366C10.1563 22.0881 10.244 22.2488 10.2417 22.4186C10.2406 22.5724 10.2269 22.7331 10.2246 22.8995C10.2224 23.0544 10.1529 23.214 10.1494 23.3792C10.146 23.5353 10.2452 23.6982 10.2406 23.8623C10.236 24.0196 10.1677 24.178 10.162 24.3409C10.1563 24.5039 10.1084 24.6577 10.1016 24.8207C10.0959 24.979 10.1403 25.1409 10.1335 25.3038C10.1266 25.4667 10.097 25.6217 10.0879 25.7835C10.0788 25.9453 10.0549 26.1014 10.0446 26.2633C10.0343 26.4251 10.0776 26.5857 10.0674 26.7475C10.0571 26.9094 9.96256 27.0609 9.95003 27.2216C9.93749 27.3822 9.93521 27.5418 9.92154 27.7024C9.90786 27.8631 9.92496 28.0249 9.91014 28.1844C9.89533 28.344 9.85773 28.5024 9.84063 28.6608C9.82354 28.8191 9.87368 28.9889 9.85431 29.1473C9.83494 29.3057 9.72668 29.4561 9.70617 29.6134C9.68566 29.7706 9.74378 29.9438 9.72099 30.1011C9.6982 30.2583 9.69364 30.4247 9.66743 30.5808C9.64008 30.7415 9.65034 30.9078 9.62185 31.0628C9.59336 31.2178 9.47599 31.3648 9.44181 31.5186C9.40762 31.6725 9.32216 31.8229 9.28456 31.9756C9.24468 32.1351 9.22644 32.2946 9.18314 32.445C9.13756 32.6046 9.10224 32.7595 9.0521 32.9065C8.99855 33.0604 8.92448 33.2096 8.87548 33.3669C8.82648 33.5241 8.82648 33.6951 8.77748 33.8512C8.72848 34.0073 8.7319 34.1828 8.67607 34.3366C8.62023 34.4904 8.45273 34.5998 8.38663 34.7502C8.32054 34.9006 8.27952 35.0568 8.19748 35.2003C8.11543 35.3439 8.0596 35.4977 7.95932 35.6311C7.85905 35.7644 7.74624 35.8749 7.62659 35.9934C7.51378 36.1051 7.42604 36.2589 7.2893 36.3603C7.16281 36.4538 7.0238 36.5552 6.87452 36.6384C6.73778 36.7147 6.54976 36.7136 6.39137 36.7808C6.24552 36.8435 6.07801 36.8606 5.91734 36.9153C5.76465 36.9666 5.63361 37.0999 5.4718 37.1443C5.30999 37.1888 5.13907 37.1614 4.97612 37.1967C4.81317 37.2321 4.65478 37.2583 4.49183 37.2868C4.32888 37.3152 4.17049 37.3551 4.0064 37.3768C3.84232 37.3984 3.68165 37.4508 3.5187 37.4645C3.35575 37.4782 3.18369 37.4121 3.02188 37.4189C2.86007 37.4258 2.73586 37.501 2.5752 37.4998C2.73586 37.4998 2.85779 37.4839 3.0253 37.4919C3.1928 37.4998 3.3455 37.5978 3.51186 37.6127C3.67823 37.6275 3.84915 37.542 4.01324 37.5637C4.17733 37.5853 4.33686 37.6377 4.49867 37.6662C4.66048 37.6947 4.83596 37.6708 4.99663 37.7061C5.1573 37.7414 5.30201 37.8576 5.45926 37.9009C5.61652 37.9442 5.79428 37.9488 5.94697 38.0012C6.10764 38.0559 6.2797 38.0798 6.42556 38.1425C6.58395 38.2098 6.69448 38.3647 6.83122 38.4422C6.98049 38.5265 7.14344 38.5755 7.26993 38.669C7.40667 38.7704 7.56392 38.849 7.67673 38.9607C7.79638 39.0792 7.8807 39.2319 7.97756 39.3606C8.07441 39.4894 8.1086 39.6683 8.1895 39.8096C8.27041 39.9509 8.31029 40.1104 8.37638 40.2597C8.44247 40.409 8.57009 40.5332 8.62593 40.687C8.68176 40.8409 8.7752 40.9844 8.8242 41.1394C8.8732 41.2944 8.93587 41.4482 8.98487 41.6043C9.03387 41.7604 8.98715 41.9484 9.04071 42.1023C9.09084 42.2481 9.12617 42.4031 9.17175 42.5626C9.21505 42.7119 9.28 42.86 9.31988 43.0196C9.35977 43.1791 9.46574 43.3113 9.49992 43.472C9.53297 43.6258 9.55006 43.7876 9.57969 43.9471C9.60932 44.1067 9.64008 44.2605 9.66629 44.4212C9.6925 44.5818 9.73238 44.7345 9.75631 44.8952C9.78024 45.0559 9.73352 45.2211 9.75631 45.3818C9.7791 45.5424 9.74833 45.7042 9.76657 45.8649C9.78594 46.0233 9.82582 46.1794 9.84291 46.3401C9.86001 46.5007 9.97965 46.6489 9.99561 46.8084C10.0116 46.9679 10.0013 47.1309 10.015 47.2904C10.0287 47.4511 9.97054 47.6163 9.98193 47.7758C9.99333 47.9354 10.1153 48.0892 10.1266 48.2487C10.138 48.4083 10.0446 48.5769 10.0549 48.7364C10.064 48.8982 10.1232 49.0555 10.1312 49.215C10.1392 49.3745 10.0708 49.5409 10.0788 49.6993C10.0868 49.8577 10.1335 50.0206 10.1392 50.179C10.146 50.342 10.1164 50.5038 10.1221 50.661C10.1278 50.8183 10.236 50.9824 10.2406 51.1396C10.2452 51.2969 10.1734 51.4667 10.1756 51.6228C10.1791 51.788 10.1608 51.9487 10.1631 52.1048C10.1654 52.2723 10.2474 52.4318 10.2486 52.5857C10.2497 52.7554 10.1848 52.9161 10.1848 53.0677C10.1848 53.242 10.1574 53.4027 10.1574 53.5485C10.1574 53.7331 10.203 53.8949 10.2019 54.0294C10.1984 54.3371 10.4468 54.5627 10.2064 54.5547C9.96598 54.5479 10.2554 54.3359 10.252 54.0283C10.2509 53.8927 10.1529 53.732 10.1517 53.5485C10.1517 53.4015 10.203 53.2409 10.2041 53.0665C10.2041 52.915 10.1882 52.7543 10.1893 52.5857C10.1905 52.4318 10.211 52.2712 10.2132 52.1048C10.2155 51.9498 10.1984 51.7891 10.2019 51.6228C10.2053 51.4667 10.2554 51.3071 10.26 51.1431C10.2645 50.979 10.1654 50.8229 10.1711 50.6588C10.1768 50.4947 10.3135 50.3454 10.3204 50.1825C10.3272 50.0195 10.3112 49.8634 10.3192 49.7004C10.3261 49.5421 10.3477 49.3825 10.3557 49.2207C10.3637 49.0589 10.3454 48.9005 10.3557 48.7387C10.3648 48.5792 10.3169 48.4151 10.3283 48.2544C10.3386 48.0949 10.4355 47.9411 10.448 47.7804C10.4605 47.6197 10.4343 47.4579 10.448 47.2972C10.4617 47.1366 10.5072 46.9805 10.5232 46.8209C10.538 46.6603 10.5767 46.5042 10.5938 46.3446C10.6109 46.1851 10.6018 46.0221 10.6212 45.8638C10.6406 45.7054 10.546 45.5287 10.5676 45.3715C10.5893 45.2142 10.6975 45.0638 10.7215 44.9066C10.7454 44.7493 10.8035 44.5932 10.8297 44.4371C10.8571 44.2764 10.7807 44.0998 10.8103 43.9448C10.84 43.7899 10.8685 43.6246 10.9026 43.4708C10.9368 43.317 11.0907 43.1814 11.1294 43.0287C11.1693 42.8692 11.2092 42.7153 11.2525 42.5661C11.2981 42.4065 11.2958 42.239 11.3471 42.0932C11.4006 41.9393 11.4348 41.7775 11.4838 41.6203C11.5328 41.463 11.5579 41.3001 11.6069 41.144C11.6559 40.9878 11.6992 40.8283 11.755 40.6733C11.8108 40.5184 11.8553 40.3566 11.9225 40.2073C11.9886 40.058 12.1698 39.9669 12.2518 39.8233C12.3339 39.6797 12.327 39.4848 12.4273 39.3515C12.5242 39.2239 12.6335 39.0917 12.7521 38.9744C12.8649 38.8627 13.0438 38.8182 13.1805 38.7157C13.307 38.6222 13.4175 38.4935 13.5668 38.4092C13.7035 38.3328 13.8448 38.2394 14.0032 38.171C14.1491 38.1083 14.3132 38.0662 14.4738 38.0115C14.6265 37.9602 14.8088 38.0001 14.9718 37.9556C15.1347 37.9112 15.2635 37.7745 15.4265 37.738C15.5894 37.7015 15.7467 37.6537 15.9096 37.6252C16.0725 37.5967 16.2492 37.6651 16.4121 37.6434C16.5751 37.6218 16.73 37.5044 16.893 37.4896C17.0559 37.4748 17.228 37.4998 17.3898 37.4919C17.5516 37.4839 17.7043 37.4998 17.865 37.501L17.8581 37.5055Z" fill="black"/>
<path d="M17.8581 37.5055C17.6975 37.5055 17.5516 37.5033 17.3841 37.4964C17.2166 37.4896 17.0594 37.4508 16.893 37.436C16.7266 37.4212 16.5728 37.3597 16.4087 37.338C16.2446 37.3164 16.0794 37.3278 15.9164 37.3004C15.7535 37.2731 15.5769 37.3141 15.4162 37.2788C15.2555 37.2435 15.1074 37.1432 14.9501 37.0999C14.7929 37.0566 14.6277 37.0156 14.4761 36.9631C14.3154 36.9084 14.1354 36.9119 13.9895 36.8492C13.8312 36.782 13.6762 36.709 13.5394 36.6327C13.3902 36.5484 13.3241 36.3524 13.1976 36.2578C13.0609 36.1564 12.8626 36.1393 12.7498 36.0276C12.6301 35.9091 12.5139 35.7849 12.417 35.6561C12.3202 35.5274 12.2598 35.3599 12.18 35.2197C12.1003 35.0796 12.0957 34.8972 12.0296 34.748C11.9635 34.5975 11.8746 34.4608 11.8188 34.3058C11.763 34.1509 11.6547 34.0153 11.6057 33.8591C11.5567 33.703 11.4986 33.5492 11.4496 33.3931C11.4006 33.2358 11.3243 33.09 11.2718 32.9362C11.2217 32.7903 11.2137 32.6217 11.1681 32.4621C11.1248 32.3128 11.0998 32.1522 11.0599 31.9927C11.02 31.8331 11.0531 31.669 11.0189 31.5095C10.9847 31.35 10.9186 31.2064 10.8878 31.0457C10.8582 30.8908 10.7374 30.7483 10.7101 30.5877C10.6827 30.427 10.7135 30.2629 10.6896 30.1022C10.6656 29.9416 10.6007 29.7923 10.5802 29.6316C10.5597 29.4732 10.5494 29.3126 10.53 29.1519C10.5107 28.9935 10.4867 28.834 10.4696 28.6733C10.4525 28.5138 10.5426 28.344 10.5278 28.1833C10.5129 28.0226 10.3785 27.8745 10.3648 27.715C10.3511 27.5554 10.3363 27.3948 10.3238 27.2341C10.3112 27.0734 10.3147 26.9116 10.3044 26.7521C10.2942 26.5926 10.2759 26.4308 10.2668 26.2712C10.2577 26.1094 10.3534 25.9431 10.3454 25.7847C10.3375 25.6229 10.2349 25.4667 10.2281 25.3084C10.2212 25.15 10.2326 24.9847 10.2281 24.8263C10.2212 24.6634 10.1711 24.5039 10.1665 24.3466C10.162 24.1894 10.2007 24.0207 10.1962 23.8635C10.1916 23.7062 10.2862 23.5364 10.2828 23.3792C10.2793 23.214 10.211 23.0544 10.2087 22.8995C10.2064 22.732 10.1665 22.5724 10.1654 22.4186C10.1643 22.2488 10.2372 22.0881 10.2372 21.9366C10.2372 21.7622 10.1665 21.6016 10.1665 21.4557C10.1665 21.2711 10.2691 21.1104 10.2702 20.9748C10.2736 20.6672 10.1449 20.4951 10.1449 20.4951C10.1506 20.7356 10.2406 20.666 10.2429 20.9748C10.244 21.1104 10.1734 21.2723 10.1745 21.4557C10.1745 21.6027 10.1574 21.7634 10.1563 21.9366C10.1563 22.0881 10.244 22.2488 10.2417 22.4186C10.2406 22.5724 10.2269 22.7331 10.2246 22.8995C10.2224 23.0544 10.1529 23.214 10.1494 23.3792C10.146 23.5353 10.2452 23.6982 10.2406 23.8623C10.236 24.0196 10.1677 24.178 10.162 24.3409C10.1563 24.5039 10.1084 24.6577 10.1016 24.8207C10.0959 24.979 10.1403 25.1409 10.1335 25.3038C10.1266 25.4667 10.097 25.6217 10.0879 25.7835C10.0788 25.9453 10.0549 26.1014 10.0446 26.2633C10.0343 26.4251 10.0776 26.5857 10.0674 26.7475C10.0571 26.9094 9.96256 27.0609 9.95003 27.2216C9.93749 27.3822 9.93521 27.5418 9.92154 27.7024C9.90786 27.8631 9.92496 28.0249 9.91014 28.1844C9.89533 28.344 9.85773 28.5024 9.84063 28.6608C9.82354 28.8191 9.87368 28.9889 9.85431 29.1473C9.83494 29.3057 9.72668 29.4561 9.70617 29.6134C9.68566 29.7706 9.74378 29.9438 9.72099 30.1011C9.6982 30.2583 9.69364 30.4247 9.66743 30.5808C9.64008 30.7415 9.65034 30.9078 9.62185 31.0628C9.59336 31.2178 9.47599 31.3648 9.44181 31.5186C9.40762 31.6725 9.32216 31.8229 9.28456 31.9756C9.24468 32.1351 9.22644 32.2946 9.18314 32.445C9.13756 32.6046 9.10224 32.7595 9.0521 32.9065C8.99855 33.0604 8.92448 33.2096 8.87548 33.3669C8.82648 33.5241 8.82648 33.6951 8.77748 33.8512C8.72848 34.0073 8.7319 34.1828 8.67607 34.3366C8.62023 34.4904 8.45273 34.5998 8.38663 34.7502C8.32054 34.9006 8.27952 35.0568 8.19748 35.2003C8.11543 35.3439 8.0596 35.4977 7.95932 35.6311C7.85905 35.7644 7.74624 35.8749 7.62659 35.9934C7.51378 36.1051 7.42604 36.2589 7.2893 36.3603C7.16281 36.4538 7.0238 36.5552 6.87452 36.6384C6.73778 36.7147 6.54976 36.7136 6.39137 36.7808C6.24552 36.8435 6.07801 36.8606 5.91734 36.9153C5.76465 36.9666 5.63361 37.0999 5.4718 37.1443C5.30999 37.1888 5.13907 37.1614 4.97612 37.1967C4.81317 37.2321 4.65478 37.2583 4.49183 37.2868C4.32888 37.3152 4.17049 37.3551 4.0064 37.3768C3.84232 37.3984 3.68165 37.4508 3.5187 37.4645C3.35575 37.4782 3.18369 37.4121 3.02188 37.4189C2.86007 37.4258 2.73586 37.501 2.5752 37.4998C2.73586 37.4998 2.85779 37.4839 3.0253 37.4919C3.1928 37.4998 3.3455 37.5978 3.51186 37.6127C3.67823 37.6275 3.84915 37.542 4.01324 37.5637C4.17733 37.5853 4.33686 37.6377 4.49867 37.6662C4.66048 37.6947 4.83596 37.6708 4.99663 37.7061C5.1573 37.7414 5.30201 37.8576 5.45926 37.9009C5.61652 37.9442 5.79428 37.9488 5.94697 38.0012C6.10764 38.0559 6.2797 38.0798 6.42556 38.1425C6.58395 38.2098 6.69448 38.3647 6.83122 38.4422C6.98049 38.5265 7.14344 38.5755 7.26993 38.669C7.40667 38.7704 7.56392 38.849 7.67673 38.9607C7.79638 39.0792 7.8807 39.2319 7.97756 39.3606C8.07441 39.4894 8.1086 39.6683 8.1895 39.8096C8.27041 39.9509 8.31029 40.1104 8.37638 40.2597C8.44247 40.409 8.57009 40.5332 8.62593 40.687C8.68176 40.8409 8.7752 40.9844 8.8242 41.1394C8.8732 41.2944 8.93587 41.4482 8.98487 41.6043C9.03387 41.7604 8.98715 41.9484 9.04071 42.1023C9.09084 42.2481 9.12617 42.4031 9.17175 42.5626C9.21505 42.7119 9.28 42.86 9.31988 43.0196C9.35977 43.1791 9.46574 43.3113 9.49992 43.472C9.53297 43.6258 9.55006 43.7876 9.57969 43.9471C9.60932 44.1067 9.64008 44.2605 9.66629 44.4212C9.6925 44.5818 9.73238 44.7345 9.75631 44.8952C9.78024 45.0559 9.73352 45.2211 9.75631 45.3818C9.7791 45.5424 9.74833 45.7042 9.76657 45.8649C9.78594 46.0233 9.82582 46.1794 9.84291 46.3401C9.86001 46.5007 9.97965 46.6489 9.99561 46.8084C10.0116 46.9679 10.0013 47.1309 10.015 47.2904C10.0287 47.4511 9.97054 47.6163 9.98193 47.7758C9.99333 47.9354 10.1153 48.0892 10.1266 48.2487C10.138 48.4083 10.0446 48.5769 10.0549 48.7364C10.064 48.8982 10.1232 49.0555 10.1312 49.215C10.1392 49.3745 10.0708 49.5409 10.0788 49.6993C10.0868 49.8577 10.1335 50.0206 10.1392 50.179C10.146 50.342 10.1164 50.5038 10.1221 50.661C10.1278 50.8183 10.236 50.9824 10.2406 51.1396C10.2452 51.2969 10.1734 51.4667 10.1756 51.6228C10.1791 51.788 10.1608 51.9487 10.1631 52.1048C10.1654 52.2723 10.2474 52.4318 10.2486 52.5857C10.2497 52.7554 10.1848 52.9161 10.1848 53.0677C10.1848 53.242 10.1574 53.4027 10.1574 53.5485C10.1574 53.7331 10.203 53.8949 10.2019 54.0294C10.1984 54.3371 10.4468 54.5627 10.2064 54.5547C9.96598 54.5479 10.2554 54.3359 10.252 54.0283C10.2509 53.8927 10.1529 53.732 10.1517 53.5485C10.1517 53.4015 10.203 53.2409 10.2041 53.0665C10.2041 52.915 10.1882 52.7543 10.1893 52.5857C10.1905 52.4318 10.211 52.2712 10.2132 52.1048C10.2155 51.9498 10.1984 51.7891 10.2019 51.6228C10.2053 51.4667 10.2554 51.3071 10.26 51.1431C10.2645 50.979 10.1654 50.8229 10.1711 50.6588C10.1768 50.4947 10.3135 50.3454 10.3204 50.1825C10.3272 50.0195 10.3112 49.8634 10.3192 49.7004C10.3261 49.5421 10.3477 49.3825 10.3557 49.2207C10.3637 49.0589 10.3454 48.9005 10.3557 48.7387C10.3648 48.5792 10.3169 48.4151 10.3283 48.2544C10.3386 48.0949 10.4355 47.9411 10.448 47.7804C10.4605 47.6197 10.4343 47.4579 10.448 47.2972C10.4617 47.1366 10.5072 46.9805 10.5232 46.8209C10.538 46.6603 10.5767 46.5042 10.5938 46.3446C10.6109 46.1851 10.6018 46.0221 10.6212 45.8638C10.6406 45.7054 10.546 45.5287 10.5676 45.3715C10.5893 45.2142 10.6975 45.0638 10.7215 44.9066C10.7454 44.7493 10.8035 44.5932 10.8297 44.4371C10.8571 44.2764 10.7807 44.0998 10.8103 43.9448C10.84 43.7899 10.8685 43.6246 10.9026 43.4708C10.9368 43.317 11.0907 43.1814 11.1294 43.0287C11.1693 42.8692 11.2092 42.7153 11.2525 42.5661C11.2981 42.4065 11.2958 42.239 11.3471 42.0932C11.4006 41.9393 11.4348 41.7775 11.4838 41.6203C11.5328 41.463 11.5579 41.3001 11.6069 41.144C11.6559 40.9878 11.6992 40.8283 11.755 40.6733C11.8108 40.5184 11.8553 40.3566 11.9225 40.2073C11.9886 40.058 12.1698 39.9669 12.2518 39.8233C12.3339 39.6797 12.327 39.4848 12.4273 39.3515C12.5242 39.2239 12.6335 39.0917 12.7521 38.9744C12.8649 38.8627 13.0438 38.8182 13.1805 38.7157C13.307 38.6222 13.4175 38.4935 13.5668 38.4092C13.7035 38.3328 13.8448 38.2394 14.0032 38.171C14.1491 38.1083 14.3132 38.0662 14.4738 38.0115C14.6265 37.9602 14.8088 38.0001 14.9718 37.9556C15.1347 37.9112 15.2635 37.7745 15.4265 37.738C15.5894 37.7015 15.7467 37.6537 15.9096 37.6252C16.0725 37.5967 16.2492 37.6651 16.4121 37.6434C16.5751 37.6218 16.73 37.5044 16.893 37.4896C17.0559 37.4748 17.228 37.4998 17.3898 37.4919C17.5516 37.4839 17.7043 37.4998 17.865 37.501L17.8581 37.5055Z" stroke="black" stroke-width="0.683699" stroke-linecap="round" stroke-linejoin="round"/>
<path d="M14.7827 12.4176C14.9593 12.4176 15.1303 12.5053 15.2921 12.4928C15.4641 12.4791 15.6214 12.3857 15.7866 12.3583C15.9518 12.331 16.1091 12.2786 16.2766 12.241C16.435 12.2056 16.6264 12.2808 16.7962 12.2364C16.9637 12.1931 17.1278 12.1407 17.2896 12.0928C17.4514 12.045 17.5893 11.9037 17.7477 11.8467C17.9061 11.7897 18.0713 11.7396 18.224 11.6678C18.3767 11.596 18.5066 11.4843 18.6502 11.392C18.7937 11.2997 18.9875 11.2781 19.1162 11.163C19.245 11.0479 19.3213 10.8918 19.4307 10.7551C19.5333 10.6274 19.694 10.526 19.7817 10.3711C19.8649 10.2252 19.8763 10.0406 19.9481 9.89018C20.0198 9.73977 20.1076 9.59505 20.1703 9.44008C20.2329 9.28511 20.2364 9.10963 20.2899 8.95124C20.3435 8.79285 20.4289 8.64585 20.4722 8.48404C20.5155 8.32223 20.5076 8.15017 20.5417 7.98722C20.5759 7.82313 20.7263 7.6807 20.7525 7.51547C20.7776 7.35024 20.6887 7.16906 20.7058 7.00269C20.7229 6.83633 20.8437 6.6768 20.8528 6.51043C20.8608 6.34293 20.7742 6.172 20.7742 6.00563C20.7742 5.88485 20.8391 5.73899 20.8426 5.5806C20.846 5.44272 20.83 5.29573 20.8357 5.15329C20.8414 5.00174 20.8266 4.8536 20.8323 4.72598C20.8426 4.47757 20.6432 4.33969 20.8562 4.34083C21.0693 4.34197 20.8209 4.47985 20.8323 4.72826C20.838 4.85588 20.8711 5.00174 20.8768 5.15215C20.8824 5.29459 20.9132 5.4393 20.9166 5.57832C20.9212 5.73671 20.9064 5.88485 20.9064 6.00449C20.9064 6.17086 20.8505 6.34179 20.8585 6.50929C20.8665 6.6768 20.8916 6.84544 20.9075 7.01181C20.9235 7.17818 20.9349 7.3491 20.9599 7.51433C20.985 7.67956 21.0796 7.83453 21.1138 7.99862C21.1479 8.1627 21.1377 8.33819 21.181 8.49999C21.2243 8.6618 21.2642 8.82817 21.3166 8.98656C21.369 9.14495 21.4408 9.30106 21.5035 9.45603C21.5661 9.61101 21.6596 9.75458 21.7325 9.90614C21.8054 10.0577 21.8385 10.232 21.9217 10.3767C22.0094 10.5317 22.1359 10.6616 22.2385 10.7892C22.3478 10.926 22.5097 11.0103 22.6339 11.1208C22.7581 11.2314 22.9062 11.3214 23.0486 11.4126C23.1911 11.5037 23.346 11.563 23.5022 11.6359C23.6583 11.7088 23.7882 11.8239 23.95 11.882C24.1118 11.9401 24.2542 12.0461 24.4206 12.094C24.587 12.1418 24.7624 12.1339 24.9288 12.1772C25.0997 12.2216 25.2627 12.2569 25.4222 12.2934C25.5909 12.331 25.7481 12.4005 25.9133 12.4267C26.0786 12.4529 26.2563 12.3663 26.4272 12.38C26.5891 12.3925 26.7509 12.5372 26.9275 12.5372C26.7509 12.5372 26.5788 12.413 26.417 12.4256C26.2449 12.4392 26.0786 12.4848 25.9133 12.511C25.7481 12.5372 25.5886 12.5976 25.4211 12.6352C25.2627 12.6706 25.1031 12.7253 24.9322 12.7686C24.7647 12.8119 24.5961 12.8381 24.4343 12.8848C24.2725 12.9315 24.0958 12.9588 23.9374 13.0158C23.7791 13.0728 23.6036 13.1161 23.4509 13.1879C23.2982 13.2597 23.2093 13.4557 23.0657 13.5468C22.9221 13.638 22.7205 13.6482 22.5917 13.7633C22.4675 13.8739 22.406 14.0505 22.2966 14.1872C22.194 14.3149 22.0709 14.4334 21.9832 14.5883C21.9 14.7342 21.875 14.9074 21.802 15.0578C21.7291 15.2082 21.5673 15.3199 21.5046 15.4749C21.4419 15.6298 21.361 15.7825 21.3086 15.9409C21.2562 16.0993 21.3052 16.2896 21.2608 16.4514C21.2175 16.6132 21.1696 16.7716 21.1354 16.9357C21.1012 17.0998 21.0568 17.2605 21.0317 17.4257C21.0067 17.5909 20.9178 17.7493 20.9007 17.9157C20.8836 18.082 20.9953 18.2587 20.9861 18.425C20.977 18.5914 20.8893 18.7566 20.8893 18.923C20.8893 19.0438 20.8562 19.1896 20.8517 19.3469C20.8483 19.4848 20.8824 19.6317 20.8768 19.7742C20.8711 19.9257 20.8984 20.0739 20.8927 20.2026C20.8824 20.451 20.8813 20.6265 20.8813 20.6265C20.8711 20.4134 20.8061 20.4522 20.7958 20.2038C20.7901 20.0762 20.8471 19.9269 20.8414 19.7753C20.8357 19.6329 20.8141 19.4882 20.8107 19.3492C20.8061 19.1908 20.7924 19.0438 20.7924 18.923C20.7924 18.7566 20.7537 18.5914 20.7446 18.4239C20.7355 18.2564 20.7389 18.0911 20.7218 17.9236C20.7047 17.7561 20.7309 17.5852 20.7058 17.42C20.6808 17.2548 20.6454 17.0895 20.6112 16.9266C20.5771 16.7636 20.5497 16.5961 20.5064 16.4343C20.4631 16.2725 20.3321 16.138 20.2797 15.9797C20.2272 15.8213 20.2284 15.6435 20.1657 15.4885C20.103 15.3336 20.0768 15.1604 20.005 15.0099C19.9332 14.8595 19.8056 14.7353 19.7224 14.5895C19.6347 14.4345 19.5754 14.2659 19.4729 14.1382C19.3635 14.0015 19.196 13.924 19.0706 13.8135C18.9453 13.7029 18.812 13.5958 18.6684 13.5047C18.5248 13.4135 18.3607 13.3713 18.2058 13.2984C18.0508 13.2255 17.9209 13.1093 17.7579 13.0511C17.595 12.993 17.432 12.9634 17.2657 12.9144C17.0993 12.8654 16.9523 12.7743 16.786 12.731C16.615 12.6865 16.4578 12.6204 16.2994 12.584C16.1307 12.5464 15.9632 12.519 15.798 12.4928C15.6328 12.4666 15.4573 12.5167 15.2864 12.5031C15.1246 12.4905 14.9593 12.4108 14.7827 12.4108V12.4176Z" fill="white"/>
<path d="M14.7827 12.4176C14.9593 12.4176 15.1303 12.5053 15.2921 12.4928C15.4641 12.4791 15.6214 12.3857 15.7866 12.3583C15.9518 12.331 16.1091 12.2786 16.2766 12.241C16.435 12.2056 16.6264 12.2808 16.7962 12.2364C16.9637 12.1931 17.1278 12.1407 17.2896 12.0928C17.4514 12.045 17.5893 11.9037 17.7477 11.8467C17.9061 11.7897 18.0713 11.7396 18.224 11.6678C18.3767 11.596 18.5066 11.4843 18.6502 11.392C18.7937 11.2997 18.9875 11.2781 19.1162 11.163C19.245 11.0479 19.3213 10.8918 19.4307 10.7551C19.5333 10.6274 19.694 10.526 19.7817 10.3711C19.8649 10.2252 19.8763 10.0406 19.9481 9.89018C20.0198 9.73977 20.1076 9.59505 20.1703 9.44008C20.2329 9.28511 20.2364 9.10963 20.2899 8.95124C20.3435 8.79285 20.4289 8.64585 20.4722 8.48404C20.5155 8.32223 20.5076 8.15017 20.5417 7.98722C20.5759 7.82313 20.7263 7.6807 20.7525 7.51547C20.7776 7.35024 20.6887 7.16906 20.7058 7.00269C20.7229 6.83633 20.8437 6.6768 20.8528 6.51043C20.8608 6.34293 20.7742 6.172 20.7742 6.00563C20.7742 5.88485 20.8391 5.73899 20.8426 5.5806C20.846 5.44272 20.83 5.29573 20.8357 5.15329C20.8414 5.00174 20.8266 4.8536 20.8323 4.72598C20.8426 4.47757 20.6432 4.33969 20.8562 4.34083C21.0693 4.34197 20.8209 4.47985 20.8323 4.72826C20.838 4.85588 20.8711 5.00174 20.8768 5.15215C20.8824 5.29459 20.9132 5.4393 20.9166 5.57832C20.9212 5.73671 20.9064 5.88485 20.9064 6.00449C20.9064 6.17086 20.8505 6.34179 20.8585 6.50929C20.8665 6.6768 20.8916 6.84544 20.9075 7.01181C20.9235 7.17818 20.9349 7.3491 20.9599 7.51433C20.985 7.67956 21.0796 7.83453 21.1138 7.99862C21.1479 8.1627 21.1377 8.33819 21.181 8.49999C21.2243 8.6618 21.2642 8.82817 21.3166 8.98656C21.369 9.14495 21.4408 9.30106 21.5035 9.45603C21.5661 9.61101 21.6596 9.75458 21.7325 9.90614C21.8054 10.0577 21.8385 10.232 21.9217 10.3767C22.0094 10.5317 22.1359 10.6616 22.2385 10.7892C22.3478 10.926 22.5097 11.0103 22.6339 11.1208C22.7581 11.2314 22.9062 11.3214 23.0486 11.4126C23.1911 11.5037 23.346 11.563 23.5022 11.6359C23.6583 11.7088 23.7882 11.8239 23.95 11.882C24.1118 11.9401 24.2542 12.0461 24.4206 12.094C24.587 12.1418 24.7624 12.1339 24.9288 12.1772C25.0997 12.2216 25.2627 12.2569 25.4222 12.2934C25.5909 12.331 25.7481 12.4005 25.9133 12.4267C26.0786 12.4529 26.2563 12.3663 26.4272 12.38C26.5891 12.3925 26.7509 12.5372 26.9275 12.5372C26.7509 12.5372 26.5788 12.413 26.417 12.4256C26.2449 12.4392 26.0786 12.4848 25.9133 12.511C25.7481 12.5372 25.5886 12.5976 25.4211 12.6352C25.2627 12.6706 25.1031 12.7253 24.9322 12.7686C24.7647 12.8119 24.5961 12.8381 24.4343 12.8848C24.2725 12.9315 24.0958 12.9588 23.9374 13.0158C23.7791 13.0728 23.6036 13.1161 23.4509 13.1879C23.2982 13.2597 23.2093 13.4557 23.0657 13.5468C22.9221 13.638 22.7205 13.6482 22.5917 13.7633C22.4675 13.8739 22.406 14.0505 22.2966 14.1872C22.194 14.3149 22.0709 14.4334 21.9832 14.5883C21.9 14.7342 21.875 14.9074 21.802 15.0578C21.7291 15.2082 21.5673 15.3199 21.5046 15.4749C21.4419 15.6298 21.361 15.7825 21.3086 15.9409C21.2562 16.0993 21.3052 16.2896 21.2608 16.4514C21.2175 16.6132 21.1696 16.7716 21.1354 16.9357C21.1012 17.0998 21.0568 17.2605 21.0317 17.4257C21.0067 17.5909 20.9178 17.7493 20.9007 17.9157C20.8836 18.082 20.9953 18.2587 20.9861 18.425C20.977 18.5914 20.8893 18.7566 20.8893 18.923C20.8893 19.0438 20.8562 19.1896 20.8517 19.3469C20.8483 19.4848 20.8824 19.6317 20.8768 19.7742C20.8711 19.9257 20.8984 20.0739 20.8927 20.2026C20.8824 20.451 20.8813 20.6265 20.8813 20.6265C20.8711 20.4134 20.8061 20.4522 20.7958 20.2038C20.7901 20.0762 20.8471 19.9269 20.8414 19.7753C20.8357 19.6329 20.8141 19.4882 20.8107 19.3492C20.8061 19.1908 20.7924 19.0438 20.7924 18.923C20.7924 18.7566 20.7537 18.5914 20.7446 18.4239C20.7355 18.2564 20.7389 18.0911 20.7218 17.9236C20.7047 17.7561 20.7309 17.5852 20.7058 17.42C20.6808 17.2548 20.6454 17.0895 20.6112 16.9266C20.5771 16.7636 20.5497 16.5961 20.5064 16.4343C20.4631 16.2725 20.3321 16.138 20.2797 15.9797C20.2272 15.8213 20.2284 15.6435 20.1657 15.4885C20.103 15.3336 20.0768 15.1604 20.005 15.0099C19.9332 14.8595 19.8056 14.7353 19.7224 14.5895C19.6347 14.4345 19.5754 14.2659 19.4729 14.1382C19.3635 14.0015 19.196 13.924 19.0706 13.8135C18.9453 13.7029 18.812 13.5958 18.6684 13.5047C18.5248 13.4135 18.3607 13.3713 18.2058 13.2984C18.0508 13.2255 17.9209 13.1093 17.7579 13.0511C17.595 12.993 17.432 12.9634 17.2657 12.9144C17.0993 12.8654 16.9523 12.7743 16.786 12.731C16.615 12.6865 16.4578 12.6204 16.2994 12.584C16.1307 12.5464 15.9632 12.519 15.798 12.4928C15.6328 12.4666 15.4573 12.5167 15.2864 12.5031C15.1246 12.4905 14.9593 12.4108 14.7827 12.4108V12.4176Z" stroke="black" stroke-width="0.683699" stroke-linecap="round" stroke-linejoin="round"/>
<path d="M24.865 28.7793C25.0245 28.7793 25.1749 28.8021 25.3185 28.7862C25.4701 28.7702 25.6171 28.7463 25.7663 28.7155C25.9156 28.6847 26.0626 28.6893 26.2176 28.6494C26.3748 28.6084 26.5047 28.4774 26.6551 28.4306C26.8056 28.3839 26.9719 28.3623 27.1155 28.2985C27.2591 28.2346 27.4403 28.2119 27.5724 28.123C27.7046 28.0341 27.7753 27.8677 27.8858 27.7458C27.9895 27.633 28.1297 27.5361 28.214 27.3891C28.2983 27.2421 28.3006 27.0564 28.3678 26.9026C28.435 26.7487 28.5604 26.6166 28.6139 26.457C28.6675 26.2975 28.6219 26.1118 28.6607 25.9477C28.6994 25.7836 28.7814 25.632 28.8065 25.4657C28.8316 25.2993 28.8532 25.1329 28.8658 24.9654C28.8783 24.7979 28.8361 24.6293 28.8361 24.4618C28.8361 24.3102 28.9387 24.0949 28.9467 23.8909C28.9581 23.5912 28.655 23.2938 28.941 23.2949C29.227 23.2961 29.023 23.5878 29.0333 23.8875C29.0412 24.0914 29.0504 24.3102 29.0515 24.4618C29.0515 24.6293 28.9364 24.8013 28.949 24.97C28.9615 25.1375 28.9649 25.3118 28.9911 25.4782C29.0173 25.6446 29.0652 25.8121 29.1039 25.975C29.1427 26.138 29.2338 26.2907 29.2862 26.4502C29.3398 26.6097 29.4617 26.7408 29.5301 26.8946C29.5985 27.0484 29.5757 27.2478 29.6589 27.3937C29.7432 27.5407 29.8788 27.6444 29.9825 27.7572C30.0941 27.878 30.2503 27.9281 30.3813 28.017C30.5123 28.1059 30.6365 28.1925 30.7847 28.2574C30.9328 28.3224 31.0604 28.4181 31.2154 28.4671C31.3704 28.5161 31.5265 28.5298 31.6849 28.5708C31.8399 28.6107 31.9652 28.7292 32.1076 28.7577C32.2569 28.7884 32.4176 28.7326 32.568 28.7497C32.7184 28.7668 32.8574 28.8431 33.017 28.8431C32.8574 28.8431 32.7104 28.8272 32.5669 28.8431C32.4153 28.8591 32.274 28.899 32.1247 28.9286C31.9755 28.9582 31.8239 28.9275 31.6689 28.9673C31.5117 29.0084 31.3784 29.1257 31.2279 29.1725C31.0775 29.2192 30.918 29.2534 30.7744 29.3172C30.6308 29.381 30.4987 29.4676 30.3665 29.5576C30.2343 29.6476 30.1135 29.7354 30.0018 29.8573C29.8982 29.9701 29.8081 30.092 29.7238 30.2402C29.6406 30.3872 29.5859 30.5433 29.5187 30.6971C29.4515 30.8509 29.3033 30.974 29.2498 31.1335C29.1962 31.2931 29.1279 31.4537 29.088 31.6178C29.0481 31.7819 29.088 31.9631 29.0618 32.1295C29.0367 32.2958 29.0675 32.4667 29.0538 32.6342C29.0412 32.8029 28.9672 32.967 28.9672 33.1345C28.9672 33.286 28.9467 33.5014 28.9387 33.7054C28.9273 34.0051 29.227 34.282 28.941 34.282C28.655 34.282 29.0014 34.0028 28.99 33.7031C28.982 33.4991 28.9 33.2849 28.8988 33.1333C28.8988 32.9658 28.8293 32.8018 28.8168 32.6342C28.8042 32.4667 28.9125 32.2844 28.8874 32.1181C28.8623 31.9517 28.6994 31.8127 28.6607 31.6486C28.6219 31.4845 28.6401 31.3079 28.5877 31.1483C28.5353 30.9888 28.5239 30.8099 28.4555 30.6561C28.3872 30.5022 28.2926 30.3564 28.2094 30.2105C28.1262 30.0647 28.0111 29.945 27.9074 29.8322C27.7958 29.7114 27.6385 29.6579 27.5086 29.569C27.3787 29.4801 27.2716 29.3468 27.1246 29.2818C26.9776 29.2169 26.8318 29.1531 26.6768 29.1052C26.5218 29.0574 26.376 28.9958 26.2187 28.9548C26.0637 28.9149 25.9236 28.85 25.7811 28.8215C25.6319 28.7907 25.4712 28.8374 25.3196 28.8215C25.1681 28.8055 25.0268 28.7805 24.8673 28.7805L24.865 28.7793Z" fill="white"/>
<path d="M24.865 28.7793C25.0245 28.7793 25.1749 28.8021 25.3185 28.7862C25.4701 28.7702 25.6171 28.7463 25.7663 28.7155C25.9156 28.6847 26.0626 28.6893 26.2176 28.6494C26.3748 28.6084 26.5047 28.4774 26.6551 28.4306C26.8056 28.3839 26.9719 28.3623 27.1155 28.2985C27.2591 28.2346 27.4403 28.2119 27.5724 28.123C27.7046 28.0341 27.7753 27.8677 27.8858 27.7458C27.9895 27.633 28.1297 27.5361 28.214 27.3891C28.2983 27.2421 28.3006 27.0564 28.3678 26.9026C28.435 26.7487 28.5604 26.6166 28.6139 26.457C28.6675 26.2975 28.6219 26.1118 28.6607 25.9477C28.6994 25.7836 28.7814 25.632 28.8065 25.4657C28.8316 25.2993 28.8532 25.1329 28.8658 24.9654C28.8783 24.7979 28.8361 24.6293 28.8361 24.4618C28.8361 24.3102 28.9387 24.0949 28.9467 23.8909C28.9581 23.5912 28.655 23.2938 28.941 23.2949C29.227 23.2961 29.023 23.5878 29.0333 23.8875C29.0412 24.0914 29.0504 24.3102 29.0515 24.4618C29.0515 24.6293 28.9364 24.8013 28.949 24.97C28.9615 25.1375 28.9649 25.3118 28.9911 25.4782C29.0173 25.6446 29.0652 25.8121 29.1039 25.975C29.1427 26.138 29.2338 26.2907 29.2862 26.4502C29.3398 26.6097 29.4617 26.7408 29.5301 26.8946C29.5985 27.0484 29.5757 27.2478 29.6589 27.3937C29.7432 27.5407 29.8788 27.6444 29.9825 27.7572C30.0941 27.878 30.2503 27.9281 30.3813 28.017C30.5123 28.1059 30.6365 28.1925 30.7847 28.2574C30.9328 28.3224 31.0604 28.4181 31.2154 28.4671C31.3704 28.5161 31.5265 28.5298 31.6849 28.5708C31.8399 28.6107 31.9652 28.7292 32.1076 28.7577C32.2569 28.7884 32.4176 28.7326 32.568 28.7497C32.7184 28.7668 32.8574 28.8431 33.017 28.8431C32.8574 28.8431 32.7104 28.8272 32.5669 28.8431C32.4153 28.8591 32.274 28.899 32.1247 28.9286C31.9755 28.9582 31.8239 28.9275 31.6689 28.9673C31.5117 29.0084 31.3784 29.1257 31.2279 29.1725C31.0775 29.2192 30.918 29.2534 30.7744 29.3172C30.6308 29.381 30.4987 29.4676 30.3665 29.5576C30.2343 29.6476 30.1135 29.7354 30.0018 29.8573C29.8982 29.9701 29.8081 30.092 29.7238 30.2402C29.6406 30.3872 29.5859 30.5433 29.5187 30.6971C29.4515 30.8509 29.3033 30.974 29.2498 31.1335C29.1962 31.2931 29.1279 31.4537 29.088 31.6178C29.0481 31.7819 29.088 31.9631 29.0618 32.1295C29.0367 32.2958 29.0675 32.4667 29.0538 32.6342C29.0412 32.8029 28.9672 32.967 28.9672 33.1345C28.9672 33.286 28.9467 33.5014 28.9387 33.7054C28.9273 34.0051 29.227 34.282 28.941 34.282C28.655 34.282 29.0014 34.0028 28.99 33.7031C28.982 33.4991 28.9 33.2849 28.8988 33.1333C28.8988 32.9658 28.8293 32.8018 28.8168 32.6342C28.8042 32.4667 28.9125 32.2844 28.8874 32.1181C28.8623 31.9517 28.6994 31.8127 28.6607 31.6486C28.6219 31.4845 28.6401 31.3079 28.5877 31.1483C28.5353 30.9888 28.5239 30.8099 28.4555 30.6561C28.3872 30.5022 28.2926 30.3564 28.2094 30.2105C28.1262 30.0647 28.0111 29.945 27.9074 29.8322C27.7958 29.7114 27.6385 29.6579 27.5086 29.569C27.3787 29.4801 27.2716 29.3468 27.1246 29.2818C26.9776 29.2169 26.8318 29.1531 26.6768 29.1052C26.5218 29.0574 26.376 28.9958 26.2187 28.9548C26.0637 28.9149 25.9236 28.85 25.7811 28.8215C25.6319 28.7907 25.4712 28.8374 25.3196 28.8215C25.1681 28.8055 25.0268 28.7805 24.8673 28.7805L24.865 28.7793Z" stroke="black" stroke-width="0.683699" stroke-linecap="round" stroke-linejoin="round"/>
<path d="M15.7148 35.4537C15.5542 35.4537 15.3855 35.4992 15.2169 35.4913C15.0482 35.4833 14.8978 35.3614 14.7315 35.3465C14.5651 35.3317 14.3919 35.4309 14.2278 35.4092C14.0637 35.3876 13.9201 35.2417 13.7583 35.2132C13.5965 35.1847 13.4336 35.1654 13.274 35.1312C13.1145 35.097 12.9493 35.0708 12.7932 35.0275C12.6371 34.9842 12.4764 34.9318 12.3237 34.8805C12.163 34.8258 11.9818 34.8372 11.836 34.7745C11.6776 34.7073 11.5112 34.6606 11.3745 34.5831C11.2252 34.4988 11.1386 34.329 11.0133 34.2355C10.8765 34.1341 10.7637 34.0236 10.6521 33.9108C10.5324 33.7923 10.3809 33.7114 10.284 33.5826C10.1837 33.4504 10.0971 33.3091 10.0174 33.1678C9.93759 33.0265 9.88517 32.867 9.81908 32.7177C9.75299 32.5673 9.7359 32.3998 9.6812 32.246C9.62651 32.0921 9.54788 31.9463 9.49888 31.7902C9.44988 31.6341 9.30745 31.5064 9.25845 31.3503C9.20945 31.1931 9.20603 31.0233 9.15248 30.8695C9.10234 30.7236 9.09094 30.5584 9.04422 30.3988C9.00092 30.2496 8.91318 30.106 8.87444 29.9465C8.83683 29.7949 8.89267 29.6172 8.85848 29.4565C8.8243 29.2958 8.75479 29.1545 8.72402 28.9938C8.6944 28.8389 8.61805 28.6896 8.5907 28.5289C8.56335 28.3683 8.59868 28.2053 8.57475 28.0446C8.55082 27.884 8.49271 27.7336 8.47105 27.574C8.4494 27.4145 8.48359 27.2504 8.46536 27.0897C8.44713 26.9291 8.41636 26.7741 8.39927 26.6134C8.38217 26.4528 8.26936 26.3046 8.25455 26.144C8.23974 25.9844 8.31494 25.8158 8.30127 25.6563C8.2876 25.4967 8.17707 25.344 8.16567 25.1834C8.15314 25.0227 8.20213 24.8575 8.19074 24.6979C8.17934 24.5373 8.13718 24.3789 8.12693 24.2194C8.11781 24.0575 8.14174 23.8957 8.13262 23.7362C8.12351 23.5767 8.18618 23.4103 8.1782 23.2519C8.17023 23.0935 8.13718 22.9306 8.13035 22.7722C8.12351 22.6092 8.03349 22.452 8.02893 22.2936C8.02437 22.1352 8.07679 21.9677 8.07223 21.8105C8.06767 21.6464 8.10186 21.4846 8.09958 21.3284C8.09616 21.1632 8.03577 21.0037 8.03349 20.8487C8.03121 20.6812 8.10869 20.5205 8.10642 20.3667C8.10528 20.1969 8.02095 20.0374 8.02095 19.8858C8.02095 19.7115 8.00614 19.5508 8.00728 19.405C8.00728 19.2204 7.97196 19.0586 7.97309 18.923C7.97651 18.6153 7.80217 18.3726 8.0426 18.3806C8.28304 18.3885 8.10983 18.6164 8.11325 18.9241C8.11439 19.0597 8.11553 19.2215 8.11553 19.405C8.11553 19.552 8.00044 19.7126 8.00044 19.887C8.00044 20.0385 8.11667 20.1992 8.11553 20.369C8.11439 20.5228 7.98221 20.6812 7.97993 20.8487C7.97765 21.0037 8.05058 21.1655 8.04716 21.3307C8.04374 21.4868 7.97423 21.6464 7.96968 21.8105C7.96512 21.9745 8.05514 22.1306 8.04944 22.2936C8.04374 22.4565 7.96284 22.6092 7.95714 22.7722C7.95144 22.9351 8.01184 23.0935 8.005 23.2565C7.99816 23.4194 7.99588 23.5767 7.98791 23.7385C7.97993 23.9003 7.88307 24.053 7.87396 24.2148C7.86484 24.3766 7.92182 24.5384 7.91156 24.6991C7.90131 24.8597 7.88763 25.0193 7.87624 25.1799C7.86484 25.3406 7.85801 25.5013 7.84433 25.6608C7.83066 25.8203 7.85003 25.9844 7.83408 26.144C7.81812 26.3035 7.77368 26.4619 7.75659 26.6214C7.7395 26.7821 7.72354 26.9416 7.70417 27.1011C7.6848 27.2607 7.60618 27.4134 7.58453 27.5718C7.56288 27.7301 7.60162 27.8999 7.57769 28.0572C7.55376 28.2144 7.48995 28.3705 7.46374 28.5267C7.43639 28.6873 7.37828 28.84 7.34865 28.995C7.31902 29.15 7.35891 29.3277 7.32472 29.4816C7.29054 29.6354 7.20052 29.7869 7.16177 29.9385C7.12189 30.098 7.09454 30.2564 7.05124 30.4068C7.00566 30.5664 6.98287 30.7282 6.93273 30.874C6.87918 31.0278 6.87348 31.1976 6.82448 31.3549C6.77548 31.5121 6.65698 31.6455 6.60684 31.8016C6.5567 31.9577 6.44617 32.091 6.39033 32.246C6.3345 32.4009 6.3835 32.5958 6.3174 32.7451C6.25131 32.8943 6.18522 33.0505 6.10318 33.1929C6.02114 33.3353 5.83084 33.4026 5.73056 33.5347C5.63029 33.6669 5.62345 33.8709 5.5038 33.9894C5.39099 34.1011 5.21209 34.1489 5.07649 34.2504C4.95001 34.3438 4.85999 34.5113 4.70957 34.5945C4.57283 34.6708 4.36431 34.6241 4.20592 34.6913C4.06006 34.754 3.94383 34.9101 3.78202 34.9648C3.62933 35.0161 3.44929 34.9933 3.28748 35.0377C3.12567 35.0822 2.98551 35.1813 2.82256 35.2166C2.65962 35.252 2.48755 35.2189 2.3246 35.2474C2.16166 35.2759 2.00896 35.3659 1.84602 35.3876C1.68307 35.4092 1.5167 35.4309 1.35375 35.4445C1.1908 35.4582 1.01988 35.4445 0.858071 35.4514C0.696262 35.4582 0.503687 35.4537 0.343018 35.4525C0.503687 35.4525 0.691704 35.3876 0.86035 35.3955C1.029 35.4035 1.18511 35.4651 1.35147 35.4799C1.51784 35.4947 1.68649 35.4559 1.85057 35.4765C2.01466 35.497 2.16394 35.6177 2.32574 35.6462C2.48755 35.6747 2.6505 35.7044 2.81003 35.7397C2.96956 35.775 3.13821 35.7932 3.29546 35.8365C3.45271 35.8798 3.59287 35.9972 3.74556 36.0485C3.90623 36.1032 4.10792 36.0382 4.25377 36.1009C4.41216 36.1681 4.54321 36.2855 4.67881 36.363C4.82808 36.4473 4.98533 36.5111 5.11182 36.6046C5.24856 36.706 5.37504 36.8188 5.48785 36.9304C5.6075 37.049 5.69752 37.1925 5.79438 37.3202C5.89465 37.4523 5.98581 37.5914 6.06558 37.7315C6.14534 37.8717 6.20915 38.0278 6.27524 38.1771C6.34133 38.3263 6.44959 38.4631 6.50428 38.6169C6.55898 38.7707 6.5077 38.9622 6.5567 39.1183C6.6057 39.2744 6.71509 39.4123 6.76409 39.5684C6.81309 39.7245 6.85867 39.8829 6.91108 40.0367C6.96122 40.1826 7.02275 40.333 7.06947 40.4914C7.11277 40.6407 7.07631 40.8161 7.11505 40.9757C7.1538 41.1352 7.21875 41.2754 7.25293 41.436C7.28712 41.5967 7.39423 41.7323 7.425 41.8918C7.45576 42.0514 7.40107 42.22 7.42728 42.3807C7.45348 42.5368 7.53097 42.6872 7.5549 42.8479C7.57883 43.0051 7.65062 43.1578 7.67113 43.3185C7.69164 43.4791 7.64036 43.6455 7.65973 43.805C7.6791 43.9646 7.63125 44.1298 7.64834 44.2905C7.66543 44.4511 7.79305 44.5981 7.80901 44.7577C7.82496 44.9172 7.86142 45.0756 7.8751 45.2362C7.88877 45.3969 7.77368 45.5667 7.78508 45.7262C7.79647 45.8858 7.84433 46.0442 7.85459 46.2037C7.86484 46.3632 7.94233 46.5205 7.95144 46.68C7.96056 46.8395 7.88991 47.0059 7.89789 47.1654C7.90586 47.3249 7.88991 47.489 7.89789 47.6474C7.90586 47.8058 8.02437 47.9653 8.03007 48.1237C8.03577 48.2821 8.01184 48.4485 8.01754 48.6069C8.02323 48.7653 8.04602 48.9305 8.05058 49.0877C8.05514 49.2518 8.07223 49.4125 8.07565 49.5698C8.07907 49.735 8.06198 49.8968 8.06425 50.0518C8.06653 50.2193 8.08249 50.3799 8.08363 50.5338C8.08477 50.7036 8.07793 50.8642 8.07907 51.0158C8.07907 51.1901 7.98791 51.3508 7.98677 51.4966C7.98677 51.6812 8.09958 51.8431 8.09844 51.9787C8.09502 52.2863 8.27392 52.5302 8.03349 52.5222C7.79305 52.5154 8.01412 52.2852 8.0107 51.9775C8.00956 51.8419 8.03919 51.6812 8.03919 51.4966C8.03919 51.3497 8.03919 51.189 8.04032 51.0158C8.04032 50.8642 8.07109 50.7047 8.07223 50.5349C8.07337 50.3811 8.04033 50.2204 8.0426 50.054C8.04488 49.8991 7.96626 49.7361 7.96968 49.5709C7.9731 49.4148 7.98449 49.2541 7.98905 49.09C7.99361 48.9328 8.01981 48.7733 8.02551 48.6092C8.03121 48.4451 8.09502 48.2935 8.10072 48.1306C8.10642 47.9676 8.12351 47.8127 8.13149 47.6497C8.13946 47.4868 8.12123 47.3295 8.13035 47.1677C8.13832 47.0082 8.11553 46.8464 8.12579 46.6846C8.1349 46.525 8.17365 46.3666 8.18504 46.206C8.19644 46.0453 8.23632 45.888 8.24885 45.7274C8.26139 45.5667 8.27278 45.4072 8.28646 45.2476C8.30013 45.0881 8.26936 44.924 8.28532 44.7634C8.30127 44.6027 8.26253 44.4375 8.27962 44.2779C8.29671 44.1184 8.41294 43.968 8.43117 43.8096C8.4494 43.6512 8.51322 43.4951 8.53373 43.3378C8.55424 43.1806 8.46536 43.0028 8.48929 42.8456C8.51322 42.6849 8.62489 42.5402 8.6511 42.3829C8.67844 42.2223 8.68642 42.0616 8.71491 41.9055C8.7434 41.7494 8.81974 41.5967 8.85279 41.4429C8.88583 41.289 8.8186 41.1022 8.85735 40.9495C8.89723 40.7899 8.91546 40.6258 8.9599 40.4766C9.00548 40.317 9.16273 40.1985 9.21401 40.0515C9.26756 39.8977 9.30859 39.737 9.35758 39.5798C9.40658 39.4225 9.47495 39.2733 9.52395 39.1171C9.57295 38.961 9.51484 38.7685 9.56953 38.6135C9.62423 38.4585 9.79287 38.3503 9.8601 38.201C9.92733 38.0517 9.88289 37.8466 9.96494 37.703C10.0447 37.5617 10.1951 37.4603 10.2954 37.327C10.3922 37.1994 10.4618 37.0376 10.5814 36.9191C10.6942 36.8074 10.8184 36.69 10.9552 36.5886C11.0816 36.4952 11.2526 36.4507 11.4018 36.3664C11.5386 36.2901 11.7141 36.2798 11.8725 36.2126C12.0183 36.1499 12.1243 35.963 12.285 35.9083C12.4376 35.857 12.6063 35.8331 12.7681 35.7887C12.9299 35.7442 13.0849 35.693 13.2478 35.6565C13.4108 35.62 13.5806 35.6348 13.7435 35.6064C13.9065 35.5779 14.0797 35.628 14.2426 35.6064C14.4056 35.5847 14.5594 35.4571 14.7223 35.4434C14.8853 35.4297 15.0551 35.3978 15.2169 35.391C15.3787 35.3842 15.5553 35.4457 15.716 35.4468L15.7148 35.4537Z" fill="white"/>
<path d="M15.7148 35.4537C15.5542 35.4537 15.3855 35.4992 15.2169 35.4913C15.0482 35.4833 14.8978 35.3614 14.7315 35.3465C14.5651 35.3317 14.3919 35.4309 14.2278 35.4092C14.0637 35.3876 13.9201 35.2417 13.7583 35.2132C13.5965 35.1847 13.4336 35.1654 13.274 35.1312C13.1145 35.097 12.9493 35.0708 12.7932 35.0275C12.6371 34.9842 12.4764 34.9318 12.3237 34.8805C12.163 34.8258 11.9818 34.8372 11.836 34.7745C11.6776 34.7073 11.5112 34.6606 11.3745 34.5831C11.2252 34.4988 11.1386 34.329 11.0133 34.2355C10.8765 34.1341 10.7637 34.0236 10.6521 33.9108C10.5324 33.7923 10.3809 33.7114 10.284 33.5826C10.1837 33.4504 10.0971 33.3091 10.0174 33.1678C9.93759 33.0265 9.88517 32.867 9.81908 32.7177C9.75299 32.5673 9.7359 32.3998 9.6812 32.246C9.62651 32.0921 9.54788 31.9463 9.49888 31.7902C9.44988 31.6341 9.30745 31.5064 9.25845 31.3503C9.20945 31.1931 9.20603 31.0233 9.15248 30.8695C9.10234 30.7236 9.09094 30.5584 9.04422 30.3988C9.00092 30.2496 8.91318 30.106 8.87444 29.9465C8.83683 29.7949 8.89267 29.6172 8.85848 29.4565C8.8243 29.2958 8.75479 29.1545 8.72402 28.9938C8.6944 28.8389 8.61805 28.6896 8.5907 28.5289C8.56335 28.3683 8.59868 28.2053 8.57475 28.0446C8.55082 27.884 8.49271 27.7336 8.47105 27.574C8.4494 27.4145 8.48359 27.2504 8.46536 27.0897C8.44713 26.9291 8.41636 26.7741 8.39927 26.6134C8.38217 26.4528 8.26936 26.3046 8.25455 26.144C8.23974 25.9844 8.31494 25.8158 8.30127 25.6563C8.2876 25.4967 8.17707 25.344 8.16567 25.1834C8.15314 25.0227 8.20213 24.8575 8.19074 24.6979C8.17934 24.5373 8.13718 24.3789 8.12693 24.2194C8.11781 24.0575 8.14174 23.8957 8.13262 23.7362C8.12351 23.5767 8.18618 23.4103 8.1782 23.2519C8.17023 23.0935 8.13718 22.9306 8.13035 22.7722C8.12351 22.6092 8.03349 22.452 8.02893 22.2936C8.02437 22.1352 8.07679 21.9677 8.07223 21.8105C8.06767 21.6464 8.10186 21.4846 8.09958 21.3284C8.09616 21.1632 8.03577 21.0037 8.03349 20.8487C8.03121 20.6812 8.10869 20.5205 8.10642 20.3667C8.10528 20.1969 8.02095 20.0374 8.02095 19.8858C8.02095 19.7115 8.00614 19.5508 8.00728 19.405C8.00728 19.2204 7.97196 19.0586 7.97309 18.923C7.97651 18.6153 7.80217 18.3726 8.0426 18.3806C8.28304 18.3885 8.10983 18.6164 8.11325 18.9241C8.11439 19.0597 8.11553 19.2215 8.11553 19.405C8.11553 19.552 8.00044 19.7126 8.00044 19.887C8.00044 20.0385 8.11667 20.1992 8.11553 20.369C8.11439 20.5228 7.98221 20.6812 7.97993 20.8487C7.97765 21.0037 8.05058 21.1655 8.04716 21.3307C8.04374 21.4868 7.97423 21.6464 7.96968 21.8105C7.96512 21.9745 8.05514 22.1306 8.04944 22.2936C8.04374 22.4565 7.96284 22.6092 7.95714 22.7722C7.95144 22.9351 8.01184 23.0935 8.005 23.2565C7.99816 23.4194 7.99588 23.5767 7.98791 23.7385C7.97993 23.9003 7.88307 24.053 7.87396 24.2148C7.86484 24.3766 7.92182 24.5384 7.91156 24.6991C7.90131 24.8597 7.88763 25.0193 7.87624 25.1799C7.86484 25.3406 7.85801 25.5013 7.84433 25.6608C7.83066 25.8203 7.85003 25.9844 7.83408 26.144C7.81812 26.3035 7.77368 26.4619 7.75659 26.6214C7.7395 26.7821 7.72354 26.9416 7.70417 27.1011C7.6848 27.2607 7.60618 27.4134 7.58453 27.5718C7.56288 27.7301 7.60162 27.8999 7.57769 28.0572C7.55376 28.2144 7.48995 28.3705 7.46374 28.5267C7.43639 28.6873 7.37828 28.84 7.34865 28.995C7.31902 29.15 7.35891 29.3277 7.32472 29.4816C7.29054 29.6354 7.20052 29.7869 7.16177 29.9385C7.12189 30.098 7.09454 30.2564 7.05124 30.4068C7.00566 30.5664 6.98287 30.7282 6.93273 30.874C6.87918 31.0278 6.87348 31.1976 6.82448 31.3549C6.77548 31.5121 6.65698 31.6455 6.60684 31.8016C6.5567 31.9577 6.44617 32.091 6.39033 32.246C6.3345 32.4009 6.3835 32.5958 6.3174 32.7451C6.25131 32.8943 6.18522 33.0505 6.10318 33.1929C6.02114 33.3353 5.83084 33.4026 5.73056 33.5347C5.63029 33.6669 5.62345 33.8709 5.5038 33.9894C5.39099 34.1011 5.21209 34.1489 5.07649 34.2504C4.95001 34.3438 4.85999 34.5113 4.70957 34.5945C4.57283 34.6708 4.36431 34.6241 4.20592 34.6913C4.06006 34.754 3.94383 34.9101 3.78202 34.9648C3.62933 35.0161 3.44929 34.9933 3.28748 35.0377C3.12567 35.0822 2.98551 35.1813 2.82256 35.2166C2.65962 35.252 2.48755 35.2189 2.3246 35.2474C2.16166 35.2759 2.00896 35.3659 1.84602 35.3876C1.68307 35.4092 1.5167 35.4309 1.35375 35.4445C1.1908 35.4582 1.01988 35.4445 0.858071 35.4514C0.696262 35.4582 0.503687 35.4537 0.343018 35.4525C0.503687 35.4525 0.691704 35.3876 0.86035 35.3955C1.029 35.4035 1.18511 35.4651 1.35147 35.4799C1.51784 35.4947 1.68649 35.4559 1.85057 35.4765C2.01466 35.497 2.16394 35.6177 2.32574 35.6462C2.48755 35.6747 2.6505 35.7044 2.81003 35.7397C2.96956 35.775 3.13821 35.7932 3.29546 35.8365C3.45271 35.8798 3.59287 35.9972 3.74556 36.0485C3.90623 36.1032 4.10792 36.0382 4.25377 36.1009C4.41216 36.1681 4.54321 36.2855 4.67881 36.363C4.82808 36.4473 4.98533 36.5111 5.11182 36.6046C5.24856 36.706 5.37504 36.8188 5.48785 36.9304C5.6075 37.049 5.69752 37.1925 5.79438 37.3202C5.89465 37.4523 5.98581 37.5914 6.06558 37.7315C6.14534 37.8717 6.20915 38.0278 6.27524 38.1771C6.34133 38.3263 6.44959 38.4631 6.50428 38.6169C6.55898 38.7707 6.5077 38.9622 6.5567 39.1183C6.6057 39.2744 6.71509 39.4123 6.76409 39.5684C6.81309 39.7245 6.85867 39.8829 6.91108 40.0367C6.96122 40.1826 7.02275 40.333 7.06947 40.4914C7.11277 40.6407 7.07631 40.8161 7.11505 40.9757C7.1538 41.1352 7.21875 41.2754 7.25293 41.436C7.28712 41.5967 7.39423 41.7323 7.425 41.8918C7.45576 42.0514 7.40107 42.22 7.42728 42.3807C7.45348 42.5368 7.53097 42.6872 7.5549 42.8479C7.57883 43.0051 7.65062 43.1578 7.67113 43.3185C7.69164 43.4791 7.64036 43.6455 7.65973 43.805C7.6791 43.9646 7.63125 44.1298 7.64834 44.2905C7.66543 44.4511 7.79305 44.5981 7.80901 44.7577C7.82496 44.9172 7.86142 45.0756 7.8751 45.2362C7.88877 45.3969 7.77368 45.5667 7.78508 45.7262C7.79647 45.8858 7.84433 46.0442 7.85459 46.2037C7.86484 46.3632 7.94233 46.5205 7.95144 46.68C7.96056 46.8395 7.88991 47.0059 7.89789 47.1654C7.90586 47.3249 7.88991 47.489 7.89789 47.6474C7.90586 47.8058 8.02437 47.9653 8.03007 48.1237C8.03577 48.2821 8.01184 48.4485 8.01754 48.6069C8.02323 48.7653 8.04602 48.9305 8.05058 49.0877C8.05514 49.2518 8.07223 49.4125 8.07565 49.5698C8.07907 49.735 8.06198 49.8968 8.06425 50.0518C8.06653 50.2193 8.08249 50.3799 8.08363 50.5338C8.08477 50.7036 8.07793 50.8642 8.07907 51.0158C8.07907 51.1901 7.98791 51.3508 7.98677 51.4966C7.98677 51.6812 8.09958 51.8431 8.09844 51.9787C8.09502 52.2863 8.27392 52.5302 8.03349 52.5222C7.79305 52.5154 8.01412 52.2852 8.0107 51.9775C8.00956 51.8419 8.03919 51.6812 8.03919 51.4966C8.03919 51.3497 8.03919 51.189 8.04032 51.0158C8.04032 50.8642 8.07109 50.7047 8.07223 50.5349C8.07337 50.3811 8.04033 50.2204 8.0426 50.054C8.04488 49.8991 7.96626 49.7361 7.96968 49.5709C7.9731 49.4148 7.98449 49.2541 7.98905 49.09C7.99361 48.9328 8.01981 48.7733 8.02551 48.6092C8.03121 48.4451 8.09502 48.2935 8.10072 48.1306C8.10642 47.9676 8.12351 47.8127 8.13149 47.6497C8.13946 47.4868 8.12123 47.3295 8.13035 47.1677C8.13832 47.0082 8.11553 46.8464 8.12579 46.6846C8.1349 46.525 8.17365 46.3666 8.18504 46.206C8.19644 46.0453 8.23632 45.888 8.24885 45.7274C8.26139 45.5667 8.27278 45.4072 8.28646 45.2476C8.30013 45.0881 8.26936 44.924 8.28532 44.7634C8.30127 44.6027 8.26253 44.4375 8.27962 44.2779C8.29671 44.1184 8.41294 43.968 8.43117 43.8096C8.4494 43.6512 8.51322 43.4951 8.53373 43.3378C8.55424 43.1806 8.46536 43.0028 8.48929 42.8456C8.51322 42.6849 8.62489 42.5402 8.6511 42.3829C8.67844 42.2223 8.68642 42.0616 8.71491 41.9055C8.7434 41.7494 8.81974 41.5967 8.85279 41.4429C8.88583 41.289 8.8186 41.1022 8.85735 40.9495C8.89723 40.7899 8.91546 40.6258 8.9599 40.4766C9.00548 40.317 9.16273 40.1985 9.21401 40.0515C9.26756 39.8977 9.30859 39.737 9.35758 39.5798C9.40658 39.4225 9.47495 39.2733 9.52395 39.1171C9.57295 38.961 9.51484 38.7685 9.56953 38.6135C9.62423 38.4585 9.79287 38.3503 9.8601 38.201C9.92733 38.0517 9.88289 37.8466 9.96494 37.703C10.0447 37.5617 10.1951 37.4603 10.2954 37.327C10.3922 37.1994 10.4618 37.0376 10.5814 36.9191C10.6942 36.8074 10.8184 36.69 10.9552 36.5886C11.0816 36.4952 11.2526 36.4507 11.4018 36.3664C11.5386 36.2901 11.7141 36.2798 11.8725 36.2126C12.0183 36.1499 12.1243 35.963 12.285 35.9083C12.4376 35.857 12.6063 35.8331 12.7681 35.7887C12.9299 35.7442 13.0849 35.693 13.2478 35.6565C13.4108 35.62 13.5806 35.6348 13.7435 35.6064C13.9065 35.5779 14.0797 35.628 14.2426 35.6064C14.4056 35.5847 14.5594 35.4571 14.7223 35.4434C14.8853 35.4297 15.0551 35.3978 15.2169 35.391C15.3787 35.3842 15.5553 35.4457 15.716 35.4468L15.7148 35.4537Z" stroke="black" stroke-width="0.683699" stroke-linecap="round" stroke-linejoin="round"/>
</g>
<defs>
<clipPath id="clip0_5070_6154">
<rect width="35.5227" height="50.9014" fill="white" transform="translate(0 4)"/>
</clipPath>
</defs>
</svg>
