<svg width="97" height="20" viewBox="0 0 97 20" fill="none" xmlns="http://www.w3.org/2000/svg">
<path d="M23.3325 2.38379H30.8844V4.20483H25.4218L25.4213 7.82035H30.439V9.64189L25.4213 9.64139V14.8826L23.332 14.8821" fill="#0E1438"/>
<path d="M39.0433 10.3829C39.0433 8.65095 37.9541 7.43676 36.3648 7.43676C34.7579 7.43676 33.6864 8.65095 33.6864 10.3829C33.6864 12.1149 34.7579 13.3291 36.3648 13.3291C37.9541 13.3296 39.0433 12.1149 39.0433 10.3829ZM31.7227 10.3829C31.7227 7.68678 33.651 5.74023 36.3648 5.74023C39.061 5.74073 41.0075 7.68678 41.0075 10.3829C41.007 13.079 39.061 15.0251 36.3648 15.0251C33.6505 15.0251 31.7222 13.079 31.7227 10.3829Z" fill="#0E1438"/>
<path d="M49.3851 10.3834C49.3851 8.65095 48.2959 7.43725 46.7067 7.43725C45.0997 7.43725 44.0282 8.65095 44.0282 10.3834C44.0282 12.1149 45.0997 13.3296 46.7067 13.3296C48.2959 13.3296 49.3851 12.1154 49.3851 10.3834ZM42.0645 10.3834C42.0645 7.68678 43.9928 5.74072 46.7067 5.74072C49.4028 5.74072 51.3489 7.68727 51.3489 10.3834C51.3489 13.0795 49.4028 15.0256 46.7067 15.0256C43.9923 15.0256 42.064 13.079 42.0645 10.3834Z" fill="#0E1438"/>
<path d="M66.6582 10.3839C66.6582 8.59828 65.6222 7.43774 64.0511 7.43774C62.4801 7.43724 61.4441 8.59828 61.4441 10.3834C61.4441 12.1513 62.4801 13.33 64.0511 13.33C65.6222 13.33 66.6582 12.1513 66.6582 10.3839ZM59.6221 5.88394H61.5691V7.02677C62.0692 6.29491 63.1224 5.74121 64.3725 5.74121C67.0332 5.74121 68.6047 7.66955 68.6047 10.3839C68.6033 13.0977 66.9614 15.0261 64.2652 15.0261C63.1756 15.0261 62.1223 14.5615 61.5691 13.8473V18.1327H59.6221" fill="#0E1438"/>
<path d="M77.265 5.88432H79.2115L79.21 14.8832H77.265V5.88432ZM76.9785 3.13454C76.9785 2.4204 77.514 1.8667 78.2286 1.8667C78.9605 1.8667 79.5152 2.4204 79.5152 3.13454C79.5152 3.83097 78.9605 4.38417 78.2286 4.38417C77.514 4.38417 76.9785 3.83097 76.9785 3.13454Z" fill="#0E1438"/>
<path d="M81.5527 5.88443H83.4993V7.38458C84.1056 6.42041 85.1412 5.7417 86.4632 5.7417C88.3733 5.7417 89.7125 7.00954 89.7125 8.9556V14.8838H87.766L87.7669 9.40249C87.7669 8.27689 87.0705 7.49138 85.9277 7.49138C84.4093 7.49138 83.4993 8.77694 83.4993 10.9376L83.4983 14.8838H81.5527" fill="#0E1438"/>
<path d="M75.7844 5.86277C75.526 5.78206 75.1908 5.7417 74.896 5.7417C73.8073 5.74121 72.6291 6.52721 72.1467 7.59867V5.88443L70.2002 5.88394V14.8833H72.1467V11.5267C72.1467 8.7415 73.3073 7.56274 74.6288 7.56274C75.0373 7.56274 75.463 7.63362 75.7844 7.77536" fill="#0E1438"/>
<path d="M57.7355 13.0653C57.3964 13.2257 56.9352 13.2942 56.5961 13.2942C55.8643 13.2942 55.3642 12.8295 55.3642 11.9367V7.54458H57.7291V5.88398L55.3642 5.88349V3.20557H53.4187V5.88349H51.8467V7.54408L53.4187 7.54458V12.044C53.4187 14.0974 54.686 15.0256 56.382 15.0256C56.8344 15.0256 57.3359 14.9493 57.7355 14.8322" fill="#0E1438"/>
<path d="M96.6101 13.0663C96.2709 13.2267 95.8088 13.2951 95.4697 13.2951C94.7378 13.2951 94.2373 12.8305 94.2373 11.9377L94.2388 7.54555H96.6022V5.88496L94.2388 5.88446V3.20654H92.2922V5.88446H90.7207V7.54506L92.2922 7.54555V12.045C92.2922 14.0984 93.5596 15.0266 95.2556 15.0266C95.7079 15.0266 96.2094 14.9503 96.6101 14.8332" fill="#0E1438"/>
<path d="M10 12.4998H13.3335V9.55064C12.8428 9.83463 12.2748 10 11.667 10C9.82578 10 8.3335 8.50773 8.3335 6.6665C8.3335 4.82577 9.82578 3.33301 11.667 3.33301C12.2748 3.33301 12.8428 3.49887 13.3335 3.78285V0H0V20H5.83375V16.6665C5.83375 14.3656 7.69909 12.4998 10 12.4998Z" fill="#0E1438"/>
</svg>
