<svg width="34" height="34" viewBox="0 0 34 34" fill="none" xmlns="http://www.w3.org/2000/svg">
<g clip-path="url(#clip0_17_24657)">
<mask id="mask0_17_24657" style="mask-type:luminance" maskUnits="userSpaceOnUse" x="0" y="0" width="34" height="34">
<path d="M33.8247 6.35862L6.54883 0.00476074L0.194965 27.2807L27.4709 33.6345L33.8247 6.35862Z" fill="white"/>
</mask>
<g mask="url(#mask0_17_24657)">
<path d="M14.7063 13.5874C15.1722 13.5162 15.9194 13.7801 16.056 14.3511C16.1272 14.817 16.1587 15.4534 16.1785 15.3682C16.258 15.0272 16.4168 14.3453 16.5815 14.0242C16.7263 13.7884 16.9563 13.5724 17.3171 13.5666C17.5927 13.5409 17.8484 13.6004 18.1041 13.66C18.34 13.8048 18.556 14.0349 18.6867 14.2451C18.9086 14.8359 18.6504 15.944 18.6703 15.8587C18.8151 15.6229 18.9938 14.8558 19.2437 14.5545C19.3686 14.4039 19.7493 14.3128 19.9396 14.2673C20.2152 14.2417 20.5561 14.3211 20.792 14.4659C20.9625 14.5056 21.2439 14.8407 21.2894 15.0311C21.4003 15.3265 21.287 16.1987 21.2928 16.5595C21.2729 16.6447 21.4574 16.2384 21.6875 16.0224C22.1476 15.5904 23.3806 15.6979 23.1879 16.9111C23.0489 17.5078 23.0687 17.4225 22.9694 17.8487C22.8702 18.2749 22.8106 18.5306 22.7312 18.8716C22.6517 19.2125 22.3878 19.9598 22.2231 20.2809C22.0783 20.5167 21.6836 21.0538 21.3485 21.3352C21.3485 21.3352 20.1726 22.1396 19.9683 22.6312C19.7639 23.1228 19.7639 23.1228 19.6845 23.4637C19.605 23.8047 19.591 24.2507 19.591 24.2507C19.591 24.2507 18.8892 24.1771 18.5681 24.0124C18.2471 23.8478 17.9599 23.1518 17.9342 22.8763C17.8233 22.5809 17.5676 22.5213 17.3375 22.7373C17.0876 23.0385 16.5225 23.5359 16.2667 23.4763C15.6502 23.4226 14.4768 23.0594 13.6244 22.8608C13.6244 22.8608 13.9934 22.0482 13.7319 21.6278C13.5357 21.3125 13.2088 20.787 13.0127 20.4718L12.5095 19.5458C12.3332 19.1453 11.8358 18.5801 11.8838 17.6028C11.892 16.7959 11.9913 16.3697 12.2412 16.0685C12.4911 15.7673 12.957 15.6961 13.1274 15.7358C13.2979 15.7755 13.7241 15.8748 13.8747 15.9997C14.0253 16.1247 14.0907 16.2297 14.2215 16.4399C14.3324 16.7354 14.3779 16.9257 14.3721 16.5649C14.3464 16.2893 14.2355 15.9939 14.2297 15.6331C14.2239 15.2723 14.0675 14.7865 14.1866 14.2751C13.7604 14.1758 13.9648 13.6843 14.7063 13.5874Z" fill="white"/>
</g>
<mask id="mask1_17_24657" style="mask-type:luminance" maskUnits="userSpaceOnUse" x="0" y="0" width="34" height="34">
<path d="M33.8247 6.35862L6.54883 0.00476074L0.194965 27.2807L27.4709 33.6345L33.8247 6.35862Z" fill="white"/>
</mask>
<g mask="url(#mask1_17_24657)">
<path d="M14.7063 13.5874C15.1722 13.5162 15.9194 13.7801 16.056 14.3511C16.1272 14.817 16.1587 15.4534 16.1785 15.3682C16.258 15.0272 16.4168 14.3453 16.5815 14.0242C16.7263 13.7884 16.9563 13.5724 17.3171 13.5666C17.5927 13.5409 17.8484 13.6004 18.1041 13.66C18.34 13.8048 18.556 14.0349 18.6867 14.2451C18.9086 14.8359 18.6504 15.944 18.6703 15.8587C18.8151 15.6229 18.9938 14.8558 19.2437 14.5545C19.3686 14.4039 19.7493 14.3128 19.9396 14.2673C20.2152 14.2417 20.5561 14.3211 20.792 14.4659C20.9625 14.5056 21.2439 14.8407 21.2894 15.0311C21.4003 15.3265 21.287 16.1987 21.2928 16.5595C21.2729 16.6447 21.4574 16.2384 21.6875 16.0224C22.1476 15.5904 23.3806 15.6979 23.1879 16.9111C23.0489 17.5078 23.0687 17.4225 22.9694 17.8487C22.8702 18.2749 22.8106 18.5306 22.7312 18.8716C22.6517 19.2125 22.3878 19.9598 22.2231 20.2809C22.0783 20.5167 21.6836 21.0538 21.3485 21.3352C21.3485 21.3352 20.1726 22.1396 19.9683 22.6312C19.7639 23.1228 19.7639 23.1228 19.6845 23.4637C19.605 23.8047 19.591 24.2507 19.591 24.2507C19.591 24.2507 18.8892 24.1771 18.5681 24.0124C18.2471 23.8478 17.9599 23.1518 17.9342 22.8763C17.8233 22.5809 17.5676 22.5213 17.3375 22.7373C17.0876 23.0385 16.5225 23.5359 16.2667 23.4763C15.6502 23.4226 14.4768 23.0594 13.6244 22.8608C13.6244 22.8608 13.9934 22.0482 13.7319 21.6278C13.5357 21.3125 13.2088 20.787 13.0127 20.4718L12.5095 19.5458C12.3332 19.1453 11.8358 18.5801 11.8838 17.6028C11.892 16.7959 11.9913 16.3697 12.2412 16.0685C12.4911 15.7673 12.957 15.6961 13.1274 15.7358C13.2979 15.7755 13.7241 15.8748 13.8747 15.9997C14.0253 16.1247 14.0907 16.2297 14.2215 16.4399C14.3324 16.7354 14.3779 16.9257 14.3721 16.5649C14.3464 16.2893 14.2355 15.9939 14.2297 15.6331C14.2239 15.2723 14.0675 14.7865 14.1866 14.2751C13.7604 14.1758 13.9648 13.6843 14.7063 13.5874Z" stroke="black" stroke-width="0.656395" stroke-linejoin="round"/>
</g>
<mask id="mask2_17_24657" style="mask-type:luminance" maskUnits="userSpaceOnUse" x="0" y="0" width="34" height="34">
<path d="M33.8247 6.35862L6.54883 0.00476074L0.194965 27.2807L27.4709 33.6345L33.8247 6.35862Z" fill="white"/>
</mask>
<g mask="url(#mask2_17_24657)">
<path d="M19.1433 21.5406L19.8184 18.6426" stroke="black" stroke-width="0.656395" stroke-linecap="round"/>
</g>
<mask id="mask3_17_24657" style="mask-type:luminance" maskUnits="userSpaceOnUse" x="0" y="0" width="34" height="34">
<path d="M33.8247 6.35862L6.54883 0.00476074L0.194965 27.2807L27.4709 33.6345L33.8247 6.35862Z" fill="white"/>
</mask>
<g mask="url(#mask3_17_24657)">
<path d="M17.4375 21.1435L18.0273 18.2256" stroke="black" stroke-width="0.656395" stroke-linecap="round"/>
</g>
<mask id="mask4_17_24657" style="mask-type:luminance" maskUnits="userSpaceOnUse" x="0" y="0" width="34" height="34">
<path d="M33.8247 6.35862L6.54883 0.00476074L0.194965 27.2807L27.4709 33.6345L33.8247 6.35862Z" fill="white"/>
</mask>
<g mask="url(#mask4_17_24657)">
<path d="M16.4102 17.8483L15.7351 20.7463" stroke="black" stroke-width="0.656395" stroke-linecap="round"/>
</g>
</g>
<defs>
<clipPath id="clip0_17_24657">
<rect width="28.0062" height="28.0062" fill="white" transform="translate(6.54297 0.00488281) rotate(13.1131)"/>
</clipPath>
</defs>
</svg>
