<svg width="16" height="16" viewBox="0 0 16 16" fill="none" xmlns="http://www.w3.org/2000/svg">
<g clip-path="url(#clip0_318_35)">
<path d="M6.16667 2.5H3.56667C3.1933 2.5 3.00661 2.5 2.86401 2.57266C2.73857 2.63658 2.63658 2.73857 2.57266 2.86401C2.5 3.00661 2.5 3.1933 2.5 3.56667V12.4333C2.5 12.8067 2.5 12.9934 2.57266 13.136C2.63658 13.2615 2.73857 13.3634 2.86401 13.4273C3.00661 13.5 3.1933 13.5 3.56667 13.5H12.4333C12.8067 13.5 12.9934 13.5 13.136 13.4273C13.2615 13.3634 13.3634 13.2615 13.4273 13.136C13.5 12.9934 13.5 12.8067 13.5 12.4333V9.83333M9.16667 2.5H13.5M13.5 2.5V6.83333M13.5 2.5L7.33333 8.66667" stroke="black" stroke-width="1.5" stroke-linecap="round" stroke-linejoin="round"/>
<path d="M6.16667 2.5H3.56667C3.1933 2.5 3.00661 2.5 2.86401 2.57266C2.73857 2.63658 2.63658 2.73857 2.57266 2.86401C2.5 3.00661 2.5 3.1933 2.5 3.56667V12.4333C2.5 12.8067 2.5 12.9934 2.57266 13.136C2.63658 13.2615 2.73857 13.3634 2.86401 13.4273C3.00661 13.5 3.1933 13.5 3.56667 13.5H12.4333C12.8067 13.5 12.9934 13.5 13.136 13.4273C13.2615 13.3634 13.3634 13.2615 13.4273 13.136C13.5 12.9934 13.5 12.8067 13.5 12.4333V9.83333M9.16667 2.5H13.5M13.5 2.5V6.83333M13.5 2.5L7.33333 8.66667" stroke="black" stroke-width="1.25" stroke-linecap="round" stroke-linejoin="round"/>
</g>
<defs>
<clipPath id="clip0_318_35">
<rect width="16" height="16" fill="white"/>
</clipPath>
</defs>
</svg>
