<svg width="16" height="16" viewBox="0 0 16 16" fill="none" xmlns="http://www.w3.org/2000/svg">
<g clip-path="url(#clip0_38_44)">
<path d="M14.4476 5.89145C14.7558 5.73613 14.8798 5.36032 14.7245 5.05206C14.5692 4.7438 14.1934 4.61982 13.8851 4.77514L14.4476 5.89145ZM2.11424 4.77514C1.80598 4.61982 1.43018 4.7438 1.27486 5.05206C1.11954 5.36032 1.24352 5.73612 1.55178 5.89144L2.11424 4.77514ZM8.29964 8.28929L8.58088 8.84744L8.29964 8.28929ZM7.69968 8.28929L7.41845 8.84744L7.69968 8.28929ZM13.5413 3.83329V12.1666H14.7913V3.83329H13.5413ZM13.4997 12.2083H2.49967V13.4583H13.4997V12.2083ZM2.45801 12.1666V3.83329H1.20801V12.1666H2.45801ZM2.49967 3.79163H13.4997V2.54163H2.49967V3.79163ZM13.8851 4.77514L8.01841 7.73114L8.58088 8.84744L14.4476 5.89145L13.8851 4.77514ZM7.98092 7.73114L2.11424 4.77514L1.55178 5.89144L7.41845 8.84744L7.98092 7.73114ZM2.45801 3.83329C2.45801 3.81028 2.47666 3.79163 2.49967 3.79163V2.54163C1.78631 2.54163 1.20801 3.11993 1.20801 3.83329H2.45801ZM2.49967 12.2083C2.47666 12.2083 2.45801 12.1896 2.45801 12.1666H1.20801C1.20801 12.88 1.78631 13.4583 2.49967 13.4583V12.2083ZM13.5413 12.1666C13.5413 12.1896 13.5227 12.2083 13.4997 12.2083V13.4583C14.213 13.4583 14.7913 12.88 14.7913 12.1666H13.5413ZM8.01841 7.73114C8.00662 7.73708 7.99271 7.73708 7.98092 7.73114L7.41845 8.84744C7.78403 9.03165 8.21529 9.03165 8.58088 8.84744L8.01841 7.73114ZM14.7913 3.83329C14.7913 3.11993 14.213 2.54163 13.4997 2.54163V3.79163C13.5227 3.79163 13.5413 3.81028 13.5413 3.83329H14.7913Z" fill="black"/>
</g>
<defs>
<clipPath id="clip0_38_44">
<rect width="16" height="16" fill="white"/>
</clipPath>
</defs>
</svg>
