<svg width="16" height="16" viewBox="0 0 16 16" fill="none" xmlns="http://www.w3.org/2000/svg">
<g clip-path="url(#clip0_1431_48)">
<path d="M8.50016 7.16665V2.49998C8.50016 2.13179 8.79863 1.83331 9.16683 1.83331H12.1668C12.535 1.83331 12.8335 2.13179 12.8335 2.49998V7.16665M8.50016 4.49998H10.1668M3.16683 7.16665V4.16806C3.16683 4.05773 3.19421 3.94913 3.24652 3.85199L4.17546 2.12681C4.2728 1.94604 4.46152 1.83331 4.66683 1.83331C4.87214 1.83331 5.06086 1.94604 5.1582 2.12681L6.08714 3.85199C6.13945 3.94913 6.16683 4.05773 6.16683 4.16806V7.16665M1.8335 7.16665H14.1668V12.8333C14.1668 13.2015 13.8684 13.5 13.5002 13.5H2.50016C2.13198 13.5 1.8335 13.2015 1.8335 12.8333V7.16665Z" stroke="black" stroke-width="1.25" stroke-linecap="round" stroke-linejoin="round"/>
</g>
<defs>
<clipPath id="clip0_1431_48">
<rect width="16" height="16" fill="white"/>
</clipPath>
</defs>
</svg>
