<svg width="16" height="16" viewBox="0 0 16 16" fill="none" xmlns="http://www.w3.org/2000/svg">
<g clip-path="url(#clip0_144_28)">
<path d="M7.16683 7.33334H8.00016V10.8333M14.1668 8.00001C14.1668 11.4057 11.4059 14.1667 8.00016 14.1667C4.59441 14.1667 1.8335 11.4057 1.8335 8.00001C1.8335 4.59426 4.59441 1.83334 8.00016 1.83334C11.4059 1.83334 14.1668 4.59426 14.1668 8.00001Z" stroke="black" stroke-width="1.25" stroke-linecap="round" stroke-linejoin="round"/>
<path d="M8.00016 4.5C7.77003 4.5 7.5835 4.68655 7.5835 4.91667C7.5835 5.14679 7.77003 5.33333 8.00016 5.33333C8.2303 5.33333 8.41683 5.14679 8.41683 4.91667C8.41683 4.68655 8.2303 4.5 8.00016 4.5Z" fill="black" stroke="black" stroke-width="0.7"/>
</g>
<defs>
<clipPath id="clip0_144_28">
<rect width="16" height="16" fill="white"/>
</clipPath>
</defs>
</svg>
