<svg width="16" height="16" viewBox="0 0 16 16" fill="none" xmlns="http://www.w3.org/2000/svg">
<path fill-rule="evenodd" clip-rule="evenodd" d="M8.00065 1.1014C6.49126 1.1014 5.10001 1.30253 4.06545 1.64411C3.55138 1.81384 3.092 2.02905 2.74871 2.29703C2.41283 2.55921 2.10146 2.94432 2.10146 3.45102V6.42006V9.31404V12.5491C2.10146 13.0558 2.41284 13.4409 2.74871 13.7031C3.092 13.971 3.55138 14.1862 4.06545 14.356C5.10001 14.6976 6.49126 14.8987 8.00065 14.8987C8.41035 14.8987 8.81134 14.8839 9.19885 14.8554C8.85962 14.5226 8.57943 14.1298 8.37547 13.6942C8.25189 13.6972 8.1269 13.6987 8.00065 13.6987C6.58339 13.6987 5.32505 13.5081 4.44167 13.2165C3.99678 13.0696 3.68011 12.9078 3.48709 12.7571C3.32537 12.6309 3.30377 12.5576 3.30146 12.5464V10.8108C3.53454 10.9277 3.79228 11.0308 4.06546 11.121C5.10001 11.4625 6.49126 11.6636 8.00065 11.6636C8.00508 11.6636 8.00952 11.6636 8.01395 11.6636C8.04918 11.2405 8.15027 10.8361 8.30694 10.4606C8.20574 10.4626 8.10361 10.4636 8.00065 10.4636C6.58339 10.4636 5.32504 10.2731 4.44167 9.98145C3.99678 9.83457 3.68011 9.67278 3.4871 9.52211C3.32535 9.39585 3.30377 9.32253 3.30146 9.31131V7.91678C3.53454 8.03375 3.79228 8.13679 4.06545 8.22698C5.10001 8.56855 6.49126 8.76966 8.00065 8.76966C8.61876 8.76966 9.21706 8.73594 9.77916 8.67265C10.4145 8.24776 11.1783 8 12 8C12.1571 8 12.3121 8.00906 12.4646 8.02669C12.5454 7.99151 12.6239 7.95489 12.6998 7.91678V8.06102C13.1271 8.1364 13.5309 8.2796 13.8998 8.47909V6.42006V3.45102C13.8998 2.94433 13.5885 2.55922 13.2526 2.29703C12.9093 2.02905 12.4499 1.81384 11.9359 1.64411C10.9013 1.30253 9.51006 1.1014 8.00065 1.1014ZM3.4871 3.24296C3.33518 3.36154 3.30691 3.43343 3.30213 3.45102C3.30691 3.46862 3.33518 3.5405 3.4871 3.65909C3.68011 3.80976 3.99678 3.97156 4.44168 4.11845C5.32505 4.41011 6.58339 4.60065 8.00065 4.60065C9.41793 4.60065 10.6763 4.41011 11.5596 4.11845C12.0045 3.97156 12.3212 3.80976 12.5142 3.6591C12.6661 3.5405 12.6944 3.46862 12.6992 3.45102C12.6944 3.43343 12.6661 3.36154 12.5142 3.24295C12.3212 3.09229 12.0045 2.93049 11.5596 2.7836C10.6763 2.49194 9.41793 2.3014 8.00065 2.3014C6.58339 2.3014 5.32505 2.49194 4.44167 2.7836C3.99678 2.93049 3.68011 3.09229 3.4871 3.24296ZM11.9359 5.25794C12.209 5.16775 12.4668 5.06471 12.6998 4.94774V6.41734C12.6975 6.42856 12.676 6.50188 12.5142 6.62814C12.3212 6.77881 12.0045 6.9406 11.5596 7.08748C10.6763 7.37914 9.41793 7.56966 8.00065 7.56966C6.58339 7.56966 5.32504 7.37914 4.44167 7.08748C3.99678 6.9406 3.68011 6.77881 3.4871 6.62814C3.32535 6.50188 3.30377 6.42856 3.30146 6.41734V4.94774C3.53454 5.06471 3.79227 5.16775 4.06545 5.25794C5.10001 5.59952 6.49126 5.80065 8.00065 5.80065C9.51006 5.80065 10.9013 5.59952 11.9359 5.25794Z" fill="black"/>
<path d="M13.4828 11C13.4828 11 12.4185 12.1531 11.8866 13.4828L11 12.4185" stroke="black" stroke-width="1.2" stroke-linecap="round" stroke-linejoin="round"/>
</svg>
