<svg width="16" height="16" viewBox="0 0 16 16" fill="none" xmlns="http://www.w3.org/2000/svg">
<g clip-path="url(#clip0_1433_82)">
<path d="M2.5 4.33333V11.5C2.5 12.6046 3.39543 13.5 4.5 13.5H12.8333C13.2015 13.5 13.5 13.2015 13.5 12.8333V6.5C13.5 6.13181 13.2015 5.83333 12.8333 5.83333H10.8333M2.5 4.33333C2.5 5.16176 3.17157 5.83333 4 5.83333H10.8333M2.5 4.33333C2.5 3.32081 3.32081 2.5 4.33333 2.5H10.3125C10.6001 2.5 10.8333 2.73319 10.8333 3.02083V5.83333" stroke="black" stroke-width="1.25" stroke-linecap="square" stroke-linejoin="round"/>
<path d="M10.3335 10.1667C10.6096 10.1667 10.8335 9.94279 10.8335 9.66666C10.8335 9.39052 10.6096 9.16666 10.3335 9.16666C10.0574 9.16666 9.8335 9.39052 9.8335 9.66666C9.8335 9.94279 10.0574 10.1667 10.3335 10.1667Z" fill="black" stroke="black" stroke-width="1.5" stroke-linejoin="round"/>
</g>
<defs>
<clipPath id="clip0_1433_82">
<rect width="16" height="16" fill="white"/>
</clipPath>
</defs>
</svg>
