<svg width="16" height="16" viewBox="0 0 16 16" fill="none" xmlns="http://www.w3.org/2000/svg">
<g clip-path="url(#clip0_75_50)">
<path d="M1.3335 7.99993L0.774344 7.72069C0.686547 7.8965 0.686547 8.10336 0.774344 8.27916L1.3335 7.99993ZM14.6668 8L15.226 8.27924C15.3138 8.10343 15.3138 7.89657 15.226 7.72076L14.6668 8ZM1.89265 8.27916C3.42229 5.21617 5.7619 3.79164 8.00016 3.79166C10.2384 3.79167 12.578 5.21624 14.1077 8.27924L15.226 7.72076C13.5373 4.33936 10.8194 2.54168 8.00017 2.54166C5.18091 2.54164 2.463 4.33928 0.774344 7.72069L1.89265 8.27916ZM0.774344 8.27916C2.463 11.6606 5.1809 13.4583 8.00016 13.4583C10.8194 13.4583 13.5373 11.6607 15.226 8.27924L14.1077 7.72076C12.578 10.7838 10.2384 12.2083 8.00017 12.2083C5.76191 12.2083 3.42229 10.7837 1.89265 7.72069L0.774344 8.27916ZM9.54183 7.99999C9.54183 8.85143 8.8516 9.54166 8.00016 9.54166V10.7917C9.54196 10.7917 10.7918 9.54178 10.7918 7.99999H9.54183ZM8.00016 9.54166C7.14872 9.54166 6.4585 8.85143 6.4585 7.99999H5.2085C5.2085 9.54178 6.45837 10.7917 8.00016 10.7917V9.54166ZM6.4585 7.99999C6.4585 7.14855 7.14872 6.45832 8.00016 6.45832V5.20832C6.45837 5.20832 5.2085 6.45819 5.2085 7.99999H6.4585ZM8.00016 6.45832C8.8516 6.45832 9.54183 7.14855 9.54183 7.99999H10.7918C10.7918 6.45819 9.54196 5.20832 8.00016 5.20832V6.45832Z" fill="black"/>
</g>
<defs>
<clipPath id="clip0_75_50">
<rect width="16" height="16" fill="white"/>
</clipPath>
</defs>
</svg>
