<svg width="16" height="16" viewBox="0 0 16 16" fill="none" xmlns="http://www.w3.org/2000/svg">
<g clip-path="url(#clip0_154_45)">
<path d="M3.16683 10.3333V13.5C3.16683 13.8682 3.46531 14.1666 3.8335 14.1666H12.1668C12.535 14.1666 12.8335 13.8682 12.8335 13.5V10.3333M8.00016 4.8333C7.6159 4.83357 7.23156 4.68712 6.93843 4.39396C6.35264 3.80817 6.35264 2.85842 6.93843 2.27264L7.9991 1.21198L9.05976 2.27264C9.64556 2.85842 9.64556 3.80817 9.05976 4.39396C8.7671 4.68658 8.3837 4.83302 8.00016 4.8333ZM8.00016 4.8333V6.49996M8.00016 6.49996H3.50016C3.13198 6.49996 2.8335 6.79845 2.8335 7.16665V9.43751C2.8335 9.68151 2.96676 9.90598 3.18093 10.0228L4.33182 10.6506C4.53936 10.7638 4.79134 10.7586 4.99406 10.637L5.9905 10.0391C6.20162 9.91245 6.46537 9.91245 6.6765 10.0391L7.65716 10.6275C7.8683 10.7542 8.13203 10.7542 8.34316 10.6275L9.32383 10.0391C9.53496 9.91245 9.7987 9.91245 10.0098 10.0391L11.0063 10.637C11.209 10.7586 11.461 10.7638 11.6685 10.6506L12.8194 10.0228C13.0336 9.90598 13.1668 9.68151 13.1668 9.43751V7.16665C13.1668 6.79845 12.8684 6.49996 12.5002 6.49996H8.00016Z" stroke="black" stroke-width="1.25" stroke-linecap="round" stroke-linejoin="round"/>
</g>
<defs>
<clipPath id="clip0_154_45">
<rect width="16" height="16" fill="white"/>
</clipPath>
</defs>
</svg>
