<svg width="16" height="16" viewBox="0 0 16 16" fill="none" xmlns="http://www.w3.org/2000/svg">
<g clip-path="url(#clip0_418_78)">
<path d="M6.16683 10.8333H9.8335M10.0002 6.99999C10.0002 8.10459 9.10476 8.99999 8.00016 8.99999C6.89556 8.99999 6.00016 8.10459 6.00016 6.99999C6.00016 5.89542 6.89556 4.99999 8.00016 4.99999C9.10476 4.99999 10.0002 5.89542 10.0002 6.99999ZM3.50016 13.8333H12.5002C12.8684 13.8333 13.1668 13.5349 13.1668 13.1667V2.83332C13.1668 2.46514 12.8684 2.16666 12.5002 2.16666H3.50016C3.13198 2.16666 2.8335 2.46514 2.8335 2.83332V13.1667C2.8335 13.5349 3.13198 13.8333 3.50016 13.8333Z" stroke="black" stroke-width="1.25" stroke-linecap="round" stroke-linejoin="round"/>
</g>
<defs>
<clipPath id="clip0_418_78">
<rect width="16" height="16" fill="white"/>
</clipPath>
</defs>
</svg>
