<svg width="16" height="16" viewBox="0 0 16 16" fill="none" xmlns="http://www.w3.org/2000/svg">
<g clip-path="url(#clip0_303_39)">
<path d="M5.19785 8L2.20518 9.48913C1.7096 9.73567 1.7096 10.4475 2.20518 10.6941L7.70463 13.4305C7.8909 13.5232 8.10943 13.5232 8.2957 13.4305L13.7952 10.6941C14.2907 10.4475 14.2907 9.73567 13.7952 9.48913L10.8025 8M5.19785 8L2.20518 6.5109C1.7096 6.26431 1.7096 5.55254 2.20518 5.30595L7.70463 2.56952C7.8909 2.47683 8.10943 2.47683 8.2957 2.56951L13.7952 5.30595C14.2907 5.55254 14.2907 6.26431 13.7952 6.5109L10.8025 8M5.19785 8L7.70463 9.24733C7.8909 9.34 8.10943 9.34 8.2957 9.24733L10.8025 8" stroke="black" stroke-width="1.25" stroke-linecap="square" stroke-linejoin="round"/>
</g>
<defs>
<clipPath id="clip0_303_39">
<rect width="16" height="16" fill="white"/>
</clipPath>
</defs>
</svg>
