<svg width="16" height="16" viewBox="0 0 16 16" fill="none" xmlns="http://www.w3.org/2000/svg">
<g clip-path="url(#clip0_1456_32)">
<path d="M10.5 4.5C10.5 5.88071 9.38073 7 8 7C6.61929 7 5.5 5.88071 5.5 4.5C5.5 3.11929 6.61929 2 8 2C9.38073 2 10.5 3.11929 10.5 4.5Z" stroke="black" stroke-width="1.25"/>
<path d="M6.8335 10.8333C6.8335 12.2141 5.71421 13.3333 4.3335 13.3333C2.95278 13.3333 1.8335 12.2141 1.8335 10.8333C1.8335 9.45261 2.95278 8.33334 4.3335 8.33334C5.71421 8.33334 6.8335 9.45261 6.8335 10.8333Z" stroke="black" stroke-width="1.25"/>
<path d="M14.1665 10.8333C14.1665 12.2141 13.0472 13.3333 11.6665 13.3333C10.2858 13.3333 9.1665 12.2141 9.1665 10.8333C9.1665 9.45261 10.2858 8.33334 11.6665 8.33334C13.0472 8.33334 14.1665 9.45261 14.1665 10.8333Z" stroke="black" stroke-width="1.25"/>
</g>
<defs>
<clipPath id="clip0_1456_32">
<rect width="16" height="16" fill="white"/>
</clipPath>
</defs>
</svg>
