<svg width="16" height="16" viewBox="0 0 16 16" fill="none" xmlns="http://www.w3.org/2000/svg">
<g clip-path="url(#clip0_419_47)">
<g clip-path="url(#clip1_419_47)">
<path d="M1.5 7.16669L3.80417 3.48002C3.92599 3.2851 4.13964 3.16669 4.3695 3.16669H11.6305C11.8603 3.16669 12.074 3.2851 12.1959 3.48002L14.5 7.16669M1.5 7.16669H0.5M1.5 7.16669V12.1667C1.5 12.5349 1.79848 12.8334 2.16667 12.8334H3.16667C3.53485 12.8334 3.83333 12.5349 3.83333 12.1667V11.4524H12.1667V12.1667C12.1667 12.5349 12.4651 12.8334 12.8333 12.8334H13.8333C14.2015 12.8334 14.5 12.5349 14.5 12.1667V7.16669M14.5 7.16669H15.5M3.83333 8.69049H5.16667M10.8333 8.69049H12.1667" stroke="black" stroke-width="1.25" stroke-linecap="round" stroke-linejoin="round"/>
</g>
</g>
<defs>
<clipPath id="clip0_419_47">
<rect width="16" height="16" fill="white"/>
</clipPath>
<clipPath id="clip1_419_47">
<rect width="16" height="16" fill="white"/>
</clipPath>
</defs>
</svg>
