<svg width="16" height="16" viewBox="0 0 16 16" fill="none" xmlns="http://www.w3.org/2000/svg">
<g clip-path="url(#clip0_112_39)">
<path d="M8.00016 8.66668C8.36836 8.66668 8.66683 8.36821 8.66683 8.00001C8.66683 7.63181 8.36836 7.33334 8.00016 7.33334C7.63196 7.33334 7.3335 7.63181 7.3335 8.00001C7.3335 8.36821 7.63196 8.66668 8.00016 8.66668Z" stroke="black" stroke-width="1.33333" stroke-linecap="round" stroke-linejoin="round"/>
<path d="M12.0002 8.66668C12.3684 8.66668 12.6668 8.36821 12.6668 8.00001C12.6668 7.63181 12.3684 7.33334 12.0002 7.33334C11.632 7.33334 11.3335 7.63181 11.3335 8.00001C11.3335 8.36821 11.632 8.66668 12.0002 8.66668Z" stroke="black" stroke-width="1.33333" stroke-linecap="round" stroke-linejoin="round"/>
<path d="M4.00016 8.66668C4.36835 8.66668 4.66683 8.36821 4.66683 8.00001C4.66683 7.63181 4.36835 7.33334 4.00016 7.33334C3.63198 7.33334 3.3335 7.63181 3.3335 8.00001C3.3335 8.36821 3.63198 8.66668 4.00016 8.66668Z" stroke="black" stroke-width="1.33333" stroke-linecap="round" stroke-linejoin="round"/>
</g>
<defs>
<clipPath id="clip0_112_39">
<rect width="16" height="16" fill="white"/>
</clipPath>
</defs>
</svg>
