<svg width="16" height="16" viewBox="0 0 16 16" fill="none">
<path fill-rule="evenodd" clip-rule="evenodd" d="M2.90002 3.08282C2.90002 2.46272 3.40272 1.96002 4.02282 1.96002H8.89122V5.42381C8.89122 5.83803 9.227 6.17381 9.64122 6.17381H13.105V12.915C13.105 13.5351 12.6023 14.0378 11.9822 14.0378H4.02282C3.40272 14.0378 2.90002 13.5351 2.90002 12.915V3.08282ZM12.2784 4.67381L10.3912 2.78658V4.67381H12.2784ZM4.02282 0.460022C2.57429 0.460022 1.40002 1.63429 1.40002 3.08282V12.915C1.40002 14.3635 2.57429 15.5378 4.02282 15.5378H11.9822C13.4307 15.5378 14.605 14.3635 14.605 12.915V5.18972C14.605 4.99081 14.526 4.80004 14.3853 4.65939L10.4056 0.679692C10.265 0.53904 10.0742 0.460022 9.87532 0.460022H4.02282ZM5.14562 11.0422C5.14562 10.628 5.48141 10.2922 5.89562 10.2922H10.1094C10.5236 10.2922 10.8594 10.628 10.8594 11.0422C10.8594 11.4564 10.5236 11.7922 10.1094 11.7922H5.89562C5.48141 11.7922 5.14562 11.4564 5.14562 11.0422ZM5.89562 7.48302C5.48141 7.48302 5.14562 7.8188 5.14562 8.23302C5.14562 8.64723 5.48141 8.98302 5.89562 8.98302H10.1094C10.5236 8.98302 10.8594 8.64723 10.8594 8.23302C10.8594 7.8188 10.5236 7.48302 10.1094 7.48302H5.89562Z" fill="black"/>
</svg>
