<svg width="16" height="16" viewBox="0 0 16 16" fill="none" xmlns="http://www.w3.org/2000/svg">
<g clip-path="url(#clip0_517_169)">
<path d="M5.14448 10.4948L8.09329 13.4437C8.45276 13.8031 9.06609 13.6442 9.20576 13.1554L10.4866 8.67246C10.5344 8.50512 10.6458 8.36312 10.7968 8.27679L13.3033 6.84452C13.685 6.62643 13.7548 6.10512 13.444 5.79429L9.84502 2.19533C9.53416 1.8845 9.01289 1.95431 8.79476 2.33598L7.36249 4.84246C7.27616 4.99356 7.13416 5.1049 6.96682 5.15272L2.4839 6.43354C1.99513 6.5732 1.8362 7.18652 2.19564 7.54599L5.14448 10.4948ZM5.14448 10.4948L5.14938 10.4899M5.14448 10.4948L2.06114 13.5781" stroke="black" stroke-width="1.25" stroke-linecap="round" stroke-linejoin="round"/>
</g>
<defs>
<clipPath id="clip0_517_169">
<rect width="16" height="16" fill="white"/>
</clipPath>
</defs>
</svg>
