<svg width="16" height="16" viewBox="0 0 16 16" fill="none" xmlns="http://www.w3.org/2000/svg">
<g clip-path="url(#clip0_424_146)">
<path d="M2.5 5.33333V3.16667C2.5 2.79848 2.79848 2.5 3.16667 2.5H5.33333M2.5 10.6667V12.8333C2.5 13.2015 2.79848 13.5 3.16667 13.5H5.33333M10.6667 2.5H12.8333C13.2015 2.5 13.5 2.79848 13.5 3.16667V5.33333M13.5 10.6667V12.8333C13.5 13.2015 13.2015 13.5 12.8333 13.5H10.6667M6.5 10.1667H9.5C9.8682 10.1667 10.1667 9.8682 10.1667 9.5V6.5C10.1667 6.13181 9.8682 5.83333 9.5 5.83333H6.5C6.13181 5.83333 5.83333 6.13181 5.83333 6.5V9.5C5.83333 9.8682 6.13181 10.1667 6.5 10.1667Z" stroke="black" stroke-width="1.25" stroke-linecap="round" stroke-linejoin="round"/>
</g>
<defs>
<clipPath id="clip0_424_146">
<rect width="16" height="16" fill="white"/>
</clipPath>
</defs>
</svg>
