<svg width="16" height="16" viewBox="0 0 16 16" fill="none" xmlns="http://www.w3.org/2000/svg">
<g clip-path="url(#clip0_424_147)">
<g clip-path="url(#clip1_424_147)">
<path d="M7.99897 2.19388V1.17838M3.8934 12.1057L3.17533 12.8238M7.99897 14.8218V13.8063M12.8224 3.17644L12.1043 3.89452M13.8048 8.00006H14.8204M12.1043 12.1057L12.8224 12.8238M1.17725 8.00006H2.19275M3.17528 3.1764L3.89335 3.89448M10.4738 5.5252C11.8406 6.89206 11.8406 9.10812 10.4738 10.4749C9.1069 11.8418 6.89083 11.8418 5.52399 10.4749C4.15715 9.10812 4.15715 6.89206 5.52399 5.5252C6.89083 4.15836 9.1069 4.15836 10.4738 5.5252Z" stroke="black" stroke-width="1.25" stroke-linecap="round" stroke-linejoin="round"/>
</g>
</g>
<defs>
<clipPath id="clip0_424_147">
<rect width="16" height="16" fill="white"/>
</clipPath>
<clipPath id="clip1_424_147">
<rect width="16" height="16" fill="white"/>
</clipPath>
</defs>
</svg>
