<svg width="16" height="16" viewBox="0 0 16 16" fill="none" xmlns="http://www.w3.org/2000/svg">
<g clip-path="url(#clip0_158_278)">
<path d="M12.3335 3.66668L9.91076 6.08942M6.0861 9.91408L3.66683 12.3333M3.66683 3.66668L6.0861 6.08594M9.91076 9.91061L12.3335 12.3333M14.1668 8.00001C14.1668 11.4057 11.4059 14.1667 8.00016 14.1667C4.59441 14.1667 1.8335 11.4057 1.8335 8.00001C1.8335 4.59426 4.59441 1.83334 8.00016 1.83334C11.4059 1.83334 14.1668 4.59426 14.1668 8.00001ZM10.8335 8.00001C10.8335 9.56481 9.56496 10.8333 8.00016 10.8333C6.43536 10.8333 5.16683 9.56481 5.16683 8.00001C5.16683 6.4352 6.43536 5.16668 8.00016 5.16668C9.56496 5.16668 10.8335 6.4352 10.8335 8.00001Z" stroke="black" stroke-width="1.25"/>
</g>
<defs>
<clipPath id="clip0_158_278">
<rect width="16" height="16" fill="white"/>
</clipPath>
</defs>
</svg>
