<svg width="16" height="16" viewBox="0 0 16 16" fill="none" xmlns="http://www.w3.org/2000/svg">
<g clip-path="url(#clip0_101_121)">
<path d="M3.90481 12.6105C4.78054 11.3312 6.22152 10.5 8.00016 10.5C9.77883 10.5 11.2198 11.3312 12.0955 12.6105M3.90481 12.6105C4.9939 13.5786 6.42836 14.1667 8.00016 14.1667C9.57196 14.1667 11.0064 13.5786 12.0955 12.6105M3.90481 12.6105C2.63407 11.4809 1.8335 9.83394 1.8335 8.00001C1.8335 4.59426 4.59441 1.83334 8.00016 1.83334C11.4059 1.83334 14.1668 4.59426 14.1668 8.00001C14.1668 9.83394 13.3662 11.4809 12.0955 12.6105M10.1668 6.66668C10.1668 7.86328 9.19676 8.83334 8.00016 8.83334C6.80356 8.83334 5.8335 7.86328 5.8335 6.66668C5.8335 5.47006 6.80356 4.50001 8.00016 4.50001C9.19676 4.50001 10.1668 5.47006 10.1668 6.66668Z" stroke="black" stroke-width="1.25" stroke-linejoin="round"/>
</g>
<defs>
<clipPath id="clip0_101_121">
<rect width="16" height="16" fill="white"/>
</clipPath>
</defs>
</svg>
