<svg width="16" height="16" viewBox="0 0 16 16" fill="none" xmlns="http://www.w3.org/2000/svg">
<g clip-path="url(#clip0_1816_31)">
<path d="M13.6668 3.66667V12.3333C13.6668 12.7015 13.3684 13 13.0002 13H3.00016C2.63198 13 2.3335 12.7015 2.3335 12.3333L2.3335 3.66667C2.3335 3.29847 2.63198 3 3.00016 3H13.0002C13.3684 3 13.6668 3.29847 13.6668 3.66667Z" stroke="black" stroke-width="1.25" stroke-linecap="round" stroke-linejoin="round"/>
<path d="M6.3335 10.6667H9.66683M9.66683 7.00001C9.66683 7.92048 8.92063 8.66668 8.00016 8.66668C7.0797 8.66668 6.3335 7.92048 6.3335 7.00001C6.3335 6.07954 7.0797 5.33334 8.00016 5.33334C8.92063 5.33334 9.66683 6.07954 9.66683 7.00001Z" stroke="black" stroke-width="1.25" stroke-linecap="round" stroke-linejoin="round"/>
</g>
<defs>
<clipPath id="clip0_1816_31">
<rect width="16" height="16" fill="white"/>
</clipPath>
</defs>
</svg>
