<svg width="16" height="16" viewBox="0 0 16 16" fill="none" xmlns="http://www.w3.org/2000/svg">
<g clip-path="url(#clip0_330_48)">
<path d="M5.5 2.5H3.16667C2.79848 2.5 2.5 2.79848 2.5 3.16667V5.5M2.5 10.5V12.8333C2.5 13.2015 2.79848 13.5 3.16667 13.5H5.5M10.5 2.5H12.8333C13.2015 2.5 13.5 2.79848 13.5 3.16667V5.5M13.5 10.5V12.8333C13.5 13.2015 13.2015 13.5 12.8333 13.5H10.5M8.16667 5.83333V7.33333C8.16667 8.01327 7.65773 8.57433 7 8.65633M5.16667 5.83333V6.83333M10.8333 5.83333V6.83333M6 10.4649C6.58835 10.8052 7.2714 11 8 11C8.7286 11 9.41167 10.8052 10 10.4649" stroke="black" stroke-width="1.25" stroke-linecap="round" stroke-linejoin="round"/>
</g>
<defs>
<clipPath id="clip0_330_48">
<rect width="16" height="16" fill="white"/>
</clipPath>
</defs>
</svg>
