<svg width="16" height="16" viewBox="0 0 16 16" fill="none" xmlns="http://www.w3.org/2000/svg">
<g clip-path="url(#clip0_1459_83)">
<path d="M6.50016 6.16668V5.83334C6.50016 5.46516 6.79863 5.16668 7.16683 5.16668H8.8335C9.2017 5.16668 9.50016 5.46516 9.50016 5.83334V6.64322C9.50016 6.86614 9.38876 7.07428 9.2033 7.19794L8.29703 7.80208C8.11156 7.92574 8.00016 8.13388 8.00016 8.35681V8.83334M8.00016 10.6667V10.66M14.1668 8.00001C14.1668 11.4057 11.4059 14.1667 8.00016 14.1667C4.59441 14.1667 1.8335 11.4057 1.8335 8.00001C1.8335 4.59426 4.59441 1.83334 8.00016 1.83334C11.4059 1.83334 14.1668 4.59426 14.1668 8.00001ZM8.16683 10.6667C8.16683 10.7587 8.09223 10.8333 8.00016 10.8333C7.9081 10.8333 7.8335 10.7587 7.8335 10.6667C7.8335 10.5746 7.9081 10.5 8.00016 10.5C8.09223 10.5 8.16683 10.5746 8.16683 10.6667Z" stroke="black" stroke-width="1.25" stroke-linecap="round" stroke-linejoin="round"/>
</g>
<defs>
<clipPath id="clip0_1459_83">
<rect width="16" height="16" fill="white"/>
</clipPath>
</defs>
</svg>
