<svg width="16" height="16" viewBox="0 0 16 16" fill="none" xmlns="http://www.w3.org/2000/svg">
<path fill-rule="evenodd" clip-rule="evenodd" d="M1.44999 3.77335C1.44999 3.61575 1.57988 3.48002 1.74999 3.48002H4.87499H7.99999H14.25C14.4201 3.48002 14.55 3.61575 14.55 3.77335V12.2167C14.55 12.3743 14.4201 12.51 14.25 12.51H1.74999C1.57988 12.51 1.44999 12.3743 1.44999 12.2167V3.77335ZM1.74999 2.08002C0.815526 2.08002 0.0499878 2.83374 0.0499878 3.77335V12.2167C0.0499878 13.1563 0.815525 13.91 1.74999 13.91H14.25C15.1844 13.91 15.95 13.1563 15.95 12.2167V3.77335C15.95 2.83374 15.1844 2.08002 14.25 2.08002H7.99999H4.87499H1.74999ZM6.73125 6.6875C6.73125 5.98679 7.29929 5.41875 8 5.41875C8.70071 5.41875 9.26875 5.98679 9.26875 6.6875C9.26875 7.38821 8.70071 7.95625 8 7.95625C7.29929 7.95625 6.73125 7.38821 6.73125 6.6875ZM8 4.01875C6.52609 4.01875 5.33125 5.21359 5.33125 6.6875C5.33125 8.16141 6.52609 9.35625 8 9.35625C9.47391 9.35625 10.6687 8.16141 10.6687 6.6875C10.6687 5.21359 9.47391 4.01875 8 4.01875ZM6.03125 10C5.64465 10 5.33125 10.3134 5.33125 10.7C5.33125 11.0866 5.64465 11.4 6.03125 11.4H9.96875C10.3553 11.4 10.6687 11.0866 10.6687 10.7C10.6687 10.3134 10.3553 10 9.96875 10H6.03125Z" fill="black"/>
</svg>
