<svg width="16" height="16" viewBox="0 0 16 16" fill="none" xmlns="http://www.w3.org/2000/svg">
<g clip-path="url(#clip0_1006_102)">
<path d="M12.8335 6.16664V11.5M10.1668 11.5V6.16664M3.16683 6.16664V11.5M5.8335 11.5V6.16664M13.0196 11.5H2.98067C2.69372 11.5 2.43896 11.6836 2.34822 11.9558L2.12599 12.6225C1.9821 13.0542 2.30341 13.5 2.75845 13.5H13.2419C13.6969 13.5 14.0182 13.0542 13.8744 12.6225L13.6521 11.9558C13.5614 11.6836 13.3066 11.5 13.0196 11.5ZM13.5002 6.16664H2.50016C2.13198 6.16664 1.8335 5.86816 1.8335 5.49997V5.19214C1.8335 4.94062 1.97505 4.71051 2.19955 4.59709L7.69956 1.81851C7.88856 1.72301 8.11176 1.72301 8.30076 1.81851L13.8008 4.59709C14.0253 4.71051 14.1668 4.94062 14.1668 5.19214V5.49997C14.1668 5.86816 13.8684 6.16664 13.5002 6.16664Z" stroke="black" stroke-width="1.25" stroke-linecap="square" stroke-linejoin="round"/>
</g>
<defs>
<clipPath id="clip0_1006_102">
<rect width="16" height="16" fill="white"/>
</clipPath>
</defs>
</svg>
