<svg width="16" height="16" viewBox="0 0 16 16" fill="none" xmlns="http://www.w3.org/2000/svg">
<g clip-path="url(#clip0_1995_388)">
<path d="M8.00016 3.33333C8.36836 3.33333 8.66683 3.03485 8.66683 2.66667C8.66683 2.29848 8.36836 2 8.00016 2C7.63196 2 7.3335 2.29848 7.3335 2.66667C7.3335 3.03485 7.63196 3.33333 8.00016 3.33333Z" stroke="black" stroke-width="1.33333" stroke-linecap="round" stroke-linejoin="round"/>
<path d="M8.00016 8.66668C8.36836 8.66668 8.66683 8.36821 8.66683 8.00001C8.66683 7.63181 8.36836 7.33334 8.00016 7.33334C7.63196 7.33334 7.3335 7.63181 7.3335 8.00001C7.3335 8.36821 7.63196 8.66668 8.00016 8.66668Z" stroke="black" stroke-width="1.33333" stroke-linecap="round" stroke-linejoin="round"/>
<path d="M8.00016 14C8.36836 14 8.66683 13.7015 8.66683 13.3333C8.66683 12.9651 8.36836 12.6667 8.00016 12.6667C7.63196 12.6667 7.3335 12.9651 7.3335 13.3333C7.3335 13.7015 7.63196 14 8.00016 14Z" stroke="black" stroke-width="1.33333" stroke-linecap="round" stroke-linejoin="round"/>
</g>
<defs>
<clipPath id="clip0_1995_388">
<rect width="16" height="16" fill="white"/>
</clipPath>
</defs>
</svg>
