<svg width="16" height="16" viewBox="0 0 16 16" fill="none" xmlns="http://www.w3.org/2000/svg">
<g clip-path="url(#clip0_1139_163)">
<path d="M7.07696 2.77126C6.73496 2.81804 6.49564 3.1332 6.54242 3.4752C6.5892 3.81719 6.90436 4.05651 7.24635 4.00973L7.07696 2.77126ZM14.3319 7.39687L14.8689 7.0772L14.8689 7.0772L14.3319 7.39687ZM13.0446 9.37263C12.8295 9.64255 12.8739 10.0358 13.1438 10.2509C13.4137 10.4661 13.8069 10.4217 14.0221 10.1518L13.0446 9.37263ZM14.332 8.60286L14.8691 8.92252L14.8691 8.92252L14.332 8.60286ZM2.44193 1.55806C2.19786 1.31398 1.80213 1.31398 1.55805 1.55806C1.31397 1.80214 1.31397 2.19786 1.55805 2.44194L2.44193 1.55806ZM6.58578 6.58579L7.02772 6.14384L6.58578 6.58579ZM13.558 14.4419C13.8021 14.686 14.1979 14.686 14.4419 14.4419C14.686 14.1979 14.686 13.8021 14.4419 13.5581L13.558 14.4419ZM1.66803 7.39705L1.13096 7.07738L1.13096 7.07738L1.66803 7.39705ZM4.77015 4.95248C5.05934 4.76401 5.14098 4.37679 4.9525 4.08761C4.76403 3.79843 4.37681 3.71679 4.08763 3.90527L4.77015 4.95248ZM1.66873 8.60416L2.20576 8.28443L1.66873 8.60416ZM11.9124 12.0947C12.2015 11.9062 12.2832 11.519 12.0947 11.2298C11.9062 10.9406 11.519 10.859 11.2298 11.0475L11.9124 12.0947ZM7.24635 4.00973C9.58212 3.69026 12.0954 4.86145 13.7948 7.71654L14.8689 7.0772C12.9609 3.87161 9.99681 2.3719 7.07696 2.77126L7.24635 4.00973ZM14.0221 10.1518C14.3227 9.77468 14.6058 9.36477 14.8691 8.92252L13.7949 8.2832C13.5596 8.67859 13.3085 9.04158 13.0446 9.37263L14.0221 10.1518ZM13.7948 7.71654C13.8989 7.89135 13.8989 8.1086 13.7949 8.2832L14.8691 8.92252C15.2076 8.35374 15.2074 7.64575 14.8689 7.0772L13.7948 7.71654ZM7.99999 9.375C7.2406 9.375 6.62499 8.75939 6.62499 8H5.37499C5.37499 9.44975 6.55024 10.625 7.99999 10.625V9.375ZM1.55805 2.44194L6.14384 7.02773L7.02772 6.14384L2.44193 1.55806L1.55805 2.44194ZM6.62499 8C6.62499 7.62013 6.77821 7.27724 7.02772 7.02773L6.14384 6.14384C5.66949 6.61819 5.37499 7.2753 5.37499 8H6.62499ZM6.14384 7.02773L8.97226 9.85616L9.85615 8.97227L7.02772 6.14384L6.14384 7.02773ZM8.97226 9.85616L13.558 14.4419L14.4419 13.5581L9.85615 8.97227L8.97226 9.85616ZM8.97226 8.97227C8.72275 9.22178 8.37986 9.375 7.99999 9.375V10.625C8.72469 10.625 9.3818 10.3305 9.85615 9.85616L8.97226 8.97227ZM1.55805 2.44194L13.558 14.4419L14.4419 13.5581L2.44193 1.55806L1.55805 2.44194ZM2.20509 7.71671C2.93692 6.48716 3.82092 5.57115 4.77015 4.95248L4.08763 3.90527C2.96156 4.63918 1.94962 5.70195 1.13096 7.07738L2.20509 7.71671ZM1.13171 8.92389C2.42563 11.0972 4.20347 12.4894 6.14002 13.0337C8.07989 13.5788 10.1282 13.2575 11.9124 12.0947L11.2298 11.0475C9.73533 12.0215 8.05742 12.2741 6.47821 11.8303C4.89569 11.3855 3.36165 10.2259 2.20576 8.28443L1.13171 8.92389ZM1.13096 7.07738C0.792098 7.64671 0.793526 8.35587 1.13171 8.92389L2.20576 8.28443C2.10139 8.10913 2.1015 7.89076 2.20509 7.71671L1.13096 7.07738Z" fill="black"/>
</g>
<defs>
<clipPath id="clip0_1139_163">
<rect width="16" height="16" fill="white"/>
</clipPath>
</defs>
</svg>
