<svg width="16" height="16" viewBox="0 0 16 16" fill="none" xmlns="http://www.w3.org/2000/svg">
<g clip-path="url(#clip0_412_50)">
<path d="M3.8335 14.1667L3.20979 14.2069C3.23101 14.5358 3.50394 14.7917 3.8335 14.7917V14.1667ZM12.1668 14.1667V14.7917C12.4964 14.7917 12.7693 14.5358 12.7905 14.2069L12.1668 14.1667ZM1.8335 3.20834C1.48832 3.20834 1.2085 3.48817 1.2085 3.83334C1.2085 4.17852 1.48832 4.45834 1.8335 4.45834V3.20834ZM14.1668 4.45834C14.512 4.45834 14.7918 4.17852 14.7918 3.83334C14.7918 3.48817 14.512 3.20834 14.1668 3.20834V4.45834ZM7.12516 7.16668C7.12516 6.8215 6.84534 6.54168 6.50016 6.54168C6.15498 6.54168 5.87516 6.8215 5.87516 7.16668H7.12516ZM5.87516 10.8333C5.87516 11.1785 6.15498 11.4583 6.50016 11.4583C6.84534 11.4583 7.12516 11.1785 7.12516 10.8333H5.87516ZM10.1252 7.16668C10.1252 6.8215 9.84534 6.54168 9.50016 6.54168C9.15499 6.54168 8.87516 6.8215 8.87516 7.16668H10.1252ZM8.87516 10.8333C8.87516 11.1785 9.15499 11.4583 9.50016 11.4583C9.84534 11.4583 10.1252 11.1785 10.1252 10.8333H8.87516ZM9.97756 3.98913C10.0636 4.32341 10.4043 4.52466 10.7386 4.43862C11.0729 4.35258 11.2741 4.01184 11.1881 3.67756L9.97756 3.98913ZM2.54313 3.87358L3.20979 14.2069L4.4572 14.1264L3.79053 3.7931L2.54313 3.87358ZM3.8335 14.7917H12.1668V13.5417H3.8335V14.7917ZM12.7905 14.2069L13.4572 3.87358L12.2098 3.7931L11.5431 14.1264L12.7905 14.2069ZM12.8335 3.20834H3.16683V4.45834H12.8335V3.20834ZM1.8335 4.45834H3.16683V3.20834H1.8335V4.45834ZM12.8335 4.45834H14.1668V3.20834H12.8335V4.45834ZM5.87516 7.16668V10.8333H7.12516V7.16668H5.87516ZM8.87516 7.16668V10.8333H10.1252V7.16668H8.87516ZM8.00018 2.45834C8.95065 2.45834 9.75088 3.10841 9.97756 3.98913L11.1881 3.67756C10.8227 2.25797 9.53482 1.20834 8.00018 1.20834V2.45834ZM6.02279 3.98913C6.24948 3.10841 7.0497 2.45834 8.00018 2.45834V1.20834C6.46553 1.20834 5.17762 2.25797 4.81225 3.67756L6.02279 3.98913Z" fill="black"/>
</g>
<defs>
<clipPath id="clip0_412_50">
<rect width="16" height="16" fill="white"/>
</clipPath>
</defs>
</svg>
