<svg width="16" height="16" viewBox="0 0 16 16" fill="none" xmlns="http://www.w3.org/2000/svg">
<g clip-path="url(#clip0_521_47)">
<g clip-path="url(#clip1_521_47)">
<path d="M2.5 5.81076C2.5 5.62504 2.5 5.53218 2.52336 5.44627C2.54406 5.37016 2.57811 5.29832 2.62391 5.2341C2.6756 5.16162 2.74747 5.10282 2.89121 4.98521L7.32453 1.35794C7.5652 1.16104 7.68553 1.0626 7.8194 1.02492C7.93753 0.991692 8.06247 0.991692 8.1806 1.02492C8.31447 1.0626 8.4348 1.16104 8.67547 1.35794L13.1088 4.98521C13.2525 5.10282 13.3244 5.16162 13.3761 5.2341C13.4219 5.29832 13.4559 5.37016 13.4767 5.44627C13.5 5.53218 13.5 5.62504 13.5 5.81076V12.072C13.5 12.4453 13.5 12.632 13.4273 12.7746C13.3634 12.9 13.2615 13.002 13.136 13.066C12.9934 13.1386 12.8067 13.1386 12.4333 13.1386H3.56667C3.1933 13.1386 3.00661 13.1386 2.86401 13.066C2.73857 13.002 2.63658 12.9 2.57266 12.7746C2.5 12.632 2.5 12.4453 2.5 12.072V5.81076Z" stroke="black" stroke-width="1.25" stroke-linejoin="round"/>
</g>
</g>
<defs>
<clipPath id="clip0_521_47">
<rect width="16" height="16" fill="white"/>
</clipPath>
<clipPath id="clip1_521_47">
<rect width="16" height="16" fill="white"/>
</clipPath>
</defs>
</svg>
