<svg width="16" height="16" viewBox="0 0 16 16" fill="none" xmlns="http://www.w3.org/2000/svg">
<g clip-path="url(#clip0_1308_53)">
<path d="M2.66667 9.47367L4.56325 8.05473C5.10758 7.69187 5.83477 7.77753 6.27991 8.25687C7.27487 9.3284 8.4284 10.3025 10 10.3025C11.4485 10.3025 12.4083 9.76567 13.3333 8.84067M3.16667 13.5H12.8333C13.2015 13.5 13.5 13.2015 13.5 12.8333V3.16667C13.5 2.79848 13.2015 2.5 12.8333 2.5H3.16667C2.79848 2.5 2.5 2.79848 2.5 3.16667V12.8333C2.5 13.2015 2.79848 13.5 3.16667 13.5ZM11.5 5.83333C11.5 6.56971 10.9031 7.16667 10.1667 7.16667C9.43027 7.16667 8.83333 6.56971 8.83333 5.83333C8.83333 5.09695 9.43027 4.5 10.1667 4.5C10.9031 4.5 11.5 5.09695 11.5 5.83333Z" stroke="black" stroke-width="1.25" stroke-linecap="round"/>
</g>
<defs>
<clipPath id="clip0_1308_53">
<rect width="16" height="16" fill="white"/>
</clipPath>
</defs>
</svg>
