<svg width="16" height="16" viewBox="0 0 16 16" fill="none" xmlns="http://www.w3.org/2000/svg">
<g clip-path="url(#clip0_52_30)">
<path d="M6.12176 2.86853C6.00883 2.64267 5.77799 2.5 5.52548 2.5H3.16667C2.79848 2.5 2.5 2.79848 2.5 3.16667V3.875C2.5 9.19073 6.80927 13.5 12.125 13.5H12.8333C13.2015 13.5 13.5 13.2015 13.5 12.8333V10.4745C13.5 10.222 13.3573 9.99113 13.1315 9.87827L11.1798 8.9024C10.9231 8.77407 10.6131 8.82433 10.4102 9.02727L10.0296 9.40793C9.841 9.59647 9.55673 9.65693 9.31473 9.54487C7.9656 8.92013 7.07987 8.0344 6.45514 6.68527C6.34307 6.44329 6.40352 6.15898 6.59209 5.97041L6.97273 5.58977C7.17567 5.38686 7.22593 5.07688 7.0976 4.82022L6.12176 2.86853Z" stroke="black" stroke-width="1.25" stroke-linejoin="round"/>
</g>
<defs>
<clipPath id="clip0_52_30">
<rect width="16" height="16" fill="white"/>
</clipPath>
</defs>
</svg>
