<svg width="16" height="16" viewBox="0 0 16 16" fill="none" xmlns="http://www.w3.org/2000/svg">
<g clip-path="url(#clip0_225_54)">
<path d="M6.38952 14.4707V10.0374H5.0136V8.00001H6.38952V7.12221C6.38952 4.85297 7.41616 3.80223 9.64283 3.80223C10.0644 3.80223 10.7921 3.88482 11.091 3.96742V5.81297C10.9336 5.79705 10.6588 5.7889 10.3202 5.7889C9.2269 5.7889 8.80543 6.20223 8.80543 7.27961V8.00001H10.9844L10.611 10.0371H8.80843V14.6185C12.1093 14.2186 14.6668 11.408 14.6668 8.00001C14.6668 4.31816 11.682 1.33334 8.00016 1.33334C4.31831 1.33334 1.3335 4.31816 1.3335 8.00001C1.3335 11.1266 3.48558 13.7502 6.38952 14.4707Z" fill="black"/>
</g>
<defs>
<clipPath id="clip0_225_54">
<rect width="16" height="16" fill="white"/>
</clipPath>
</defs>
</svg>
