<svg width="16" height="16" viewBox="0 0 16 16" fill="none">
<g clip-path="url(#clip0_338_159)">
<path fill-rule="evenodd" clip-rule="evenodd" d="M8.93659 2.94723C8.55114 2.17775 7.453 2.17755 7.06727 2.94689L2.47406 12.108C2.1255 12.8032 2.63095 13.622 3.40864 13.622H12.5908C13.3684 13.622 13.8738 12.8035 13.5256 12.1083L8.93659 2.94723ZM5.81576 2.31941C6.71804 0.519832 9.28672 0.520299 10.1883 2.32021L14.7773 11.4813C15.5919 13.1074 14.4095 15.022 12.5908 15.022H3.40864C1.58954 15.022 0.407234 13.1067 1.22256 11.4805L5.81576 2.31941ZM7.99915 5.34925C8.49621 5.34925 8.89915 5.75219 8.89915 6.24925V7.99471C8.89915 8.49177 8.49621 8.89471 7.99915 8.89471C7.5021 8.89471 7.09915 8.49177 7.09915 7.99471V6.24925C7.09915 5.75219 7.5021 5.34925 7.99915 5.34925ZM8.01278 11.4856C8.01278 11.4867 8.01248 11.4888 8.01153 11.4911C8.0107 11.493 8.00969 11.4944 8.00879 11.4953C8.00788 11.4962 8.00655 11.4972 8.00459 11.498C8.00234 11.499 8.0002 11.4993 7.99915 11.4993C7.9981 11.4993 7.99596 11.499 7.9937 11.498C7.99175 11.4972 7.99041 11.4962 7.98951 11.4953C7.9886 11.4944 7.9876 11.493 7.98677 11.4911C7.98582 11.4888 7.98551 11.4867 7.98551 11.4856C7.98551 11.485 7.98563 11.4839 7.98596 11.4826C7.98615 11.4819 7.98641 11.481 7.98677 11.4802C7.98722 11.4791 7.98772 11.4783 7.98822 11.4775C7.98865 11.4769 7.98909 11.4764 7.98951 11.476C7.99041 11.4751 7.99175 11.4741 7.9937 11.4733C7.99596 11.4723 7.9981 11.472 7.99915 11.472C7.99988 11.472 8.00114 11.4721 8.0026 11.4726C8.00324 11.4727 8.00391 11.473 8.00459 11.4733C8.00531 11.4736 8.00594 11.4739 8.00649 11.4742C8.00746 11.4748 8.00821 11.4754 8.00879 11.476C8.00969 11.4769 8.0107 11.4782 8.01153 11.4802C8.01248 11.4824 8.01278 11.4846 8.01278 11.4856ZM7.99915 10.5993C7.50962 10.5993 7.11278 10.9961 7.11278 11.4856C7.11278 11.9752 7.50962 12.372 7.99915 12.372C8.48867 12.372 8.88551 11.9752 8.88551 11.4856C8.88551 10.9961 8.48867 10.5993 7.99915 10.5993Z" fill="black"/>
</g>
<defs>
<clipPath id="clip0_338_159">
<rect width="16" height="16" fill="white"/>
</clipPath>
</defs>
</svg>
