<svg width="16" height="16" viewBox="0 0 16 16" fill="none" xmlns="http://www.w3.org/2000/svg">
<path fill-rule="evenodd" clip-rule="evenodd" d="M2.37549 4.33657C2.37549 3.72963 2.86751 3.23761 3.47445 3.23761H12.5252C13.1322 3.23761 13.6242 3.72962 13.6242 4.33657V5.84143H2.37549V4.33657ZM2.37549 7.14143V11.6634C2.37549 12.2704 2.8675 12.7624 3.47445 12.7624H12.5252C13.1322 12.7624 13.6242 12.2704 13.6242 11.6634V7.14143H2.37549ZM3.47445 1.98761C2.17715 1.98761 1.12549 3.03927 1.12549 4.33657V11.6634C1.12549 12.9607 2.17716 14.0124 3.47445 14.0124H12.5252C13.8226 14.0124 14.8742 12.9607 14.8742 11.6634V4.33657C14.8742 3.03928 13.8226 1.98761 12.5252 1.98761H3.47445ZM3.68645 9.93947C3.68645 9.58048 3.97747 9.28947 4.33645 9.28947H6.4914C6.85039 9.28947 7.1414 9.58048 7.1414 9.93947C7.1414 10.2985 6.85039 10.5895 6.4914 10.5895H4.33645C3.97747 10.5895 3.68645 10.2985 3.68645 9.93947ZM11.2322 9.28947C10.8733 9.28947 10.5822 9.58048 10.5822 9.93947C10.5822 10.2985 10.8733 10.5895 11.2322 10.5895H11.6629C12.0218 10.5895 12.3129 10.2985 12.3129 9.93947C12.3129 9.58048 12.0218 9.28947 11.6629 9.28947H11.2322Z" fill="black"/>
</svg>
