<svg width="16" height="16" viewBox="0 0 16 16" fill="none" xmlns="http://www.w3.org/2000/svg">
<g clip-path="url(#clip0_1275_653)">
<path fill-rule="evenodd" clip-rule="evenodd" d="M1.31376 8.88945C1.15547 9.02479 0.95397 9.08397 0.63175 9.08397H0.498045V7.46889H0.63175C0.95397 7.46889 1.14774 7.52409 1.31376 7.66616C1.48512 7.81298 1.5881 8.03947 1.5881 8.27373C1.5881 8.50913 1.48512 8.74368 1.31376 8.88945ZM0.731562 7.05518H0V9.49786H0.727102C1.11404 9.49786 1.39335 9.40975 1.63816 9.21532C1.92896 8.98505 2.10152 8.63735 2.10152 8.27714C2.10152 7.55604 1.53855 7.05518 0.731562 7.05518Z" fill="#201D1C"/>
<path fill-rule="evenodd" clip-rule="evenodd" d="M2.33105 7.05518H2.82712V9.49786H2.33105V7.05518Z" fill="#201D1C"/>
<path fill-rule="evenodd" clip-rule="evenodd" d="M4.04522 7.99141C3.74579 7.88633 3.65827 7.81633 3.65827 7.68431C3.65827 7.53085 3.81468 7.41448 4.02975 7.41448C4.17882 7.41448 4.30162 7.47158 4.43246 7.61109L4.69144 7.28597C4.47745 7.10577 4.22134 7.01453 3.94214 7.01453C3.49037 7.01453 3.14605 7.31527 3.14605 7.71295C3.14605 8.05059 3.30612 8.22188 3.77325 8.38454C3.9685 8.4495 4.06771 8.49389 4.11797 8.52396C4.21748 8.58551 4.26703 8.67371 4.26703 8.77567C4.26703 8.97437 4.1025 9.12042 3.88009 9.12042C3.64331 9.12042 3.45172 9.00699 3.33705 8.79397L3.01611 9.0914C3.24556 9.41311 3.5206 9.55689 3.89952 9.55689C4.4163 9.55689 4.78044 9.2258 4.78044 8.75424C4.78044 8.36566 4.61155 8.18954 4.04522 7.99141Z" fill="#201D1C"/>
<path fill-rule="evenodd" clip-rule="evenodd" d="M4.93701 8.27716C4.93701 8.9955 5.52625 9.55214 6.28477 9.55214C6.49865 9.55214 6.68202 9.51173 6.9078 9.40978V8.8484C6.70828 9.04027 6.53315 9.11595 6.30657 9.11595C5.80535 9.11595 5.45032 8.76892 5.45032 8.27374C5.45032 7.80588 5.81685 7.43524 6.28477 7.43524C6.52086 7.43524 6.70124 7.51528 6.9078 7.71V7.14928C6.68965 7.04372 6.51065 7 6.29498 7C5.54082 7 4.93701 7.56754 4.93701 8.27716Z" fill="#201D1C"/>
<path fill-rule="evenodd" clip-rule="evenodd" d="M10.9412 8.69511L10.2605 7.05518H9.71777L10.7999 9.55951H11.0668L12.17 7.05518H11.6315L10.9412 8.69511Z" fill="#201D1C"/>
<path fill-rule="evenodd" clip-rule="evenodd" d="M12.3955 9.49786H13.8072V9.08397H12.8936V8.42462H13.7725V8.01082H12.8936V7.46888H13.8072V7.05518H12.3955V9.49786Z" fill="#201D1C"/>
<path fill-rule="evenodd" clip-rule="evenodd" d="M14.7794 8.17843H14.6349V7.4396H14.7875C15.0985 7.4396 15.2651 7.56451 15.2651 7.80247C15.2651 8.04698 15.0985 8.17843 14.7794 8.17843ZM15.7778 7.77589C15.7778 7.31846 15.4499 7.05518 14.8751 7.05518H14.1357V9.49786H14.6349V8.51576H14.6996L15.3874 9.49786H15.9998L15.1967 8.46834C15.572 8.39493 15.7778 8.14967 15.7778 7.77589Z" fill="#201D1C"/>
<path fill-rule="evenodd" clip-rule="evenodd" d="M9.78778 8.28283C9.78778 8.98609 9.1923 9.5561 8.45707 9.5561C7.72204 9.5561 7.12646 8.98609 7.12646 8.28283C7.12646 7.57947 7.72204 7.00937 8.45707 7.00937C9.1923 7.00937 9.78778 7.57947 9.78778 8.28283Z" fill="url(#paint0_linear_1275_653)"/>
<path fill-rule="evenodd" clip-rule="evenodd" d="M9.78778 8.28283C9.78778 8.98609 9.1923 9.5561 8.45707 9.5561C7.72204 9.5561 7.12646 8.98609 7.12646 8.28283C7.12646 7.57947 7.72204 7.00937 8.45707 7.00937C9.1923 7.00937 9.78778 7.57947 9.78778 8.28283Z" fill="url(#paint1_radial_1275_653)"/>
</g>
<defs>
<linearGradient id="paint0_linear_1275_653" x1="7.64069" y1="7.25" x2="9.29694" y2="9.25" gradientUnits="userSpaceOnUse">
<stop stop-color="#E6772F"/>
<stop offset="1" stop-color="#EA9D2C"/>
</linearGradient>
<radialGradient id="paint1_radial_1275_653" cx="0" cy="0" r="1" gradientUnits="userSpaceOnUse" gradientTransform="translate(8.75006 8.8125) rotate(-128.1) scale(1.74728 1.82589)">
<stop stop-color="#EA9D2C" stop-opacity="0"/>
<stop offset="0.328125" stop-color="#DF7624" stop-opacity="0"/>
<stop offset="0.760188" stop-color="#BF4B23" stop-opacity="0.75"/>
<stop offset="1" stop-color="#7D3017"/>
</radialGradient>
<clipPath id="clip0_1275_653">
<rect width="16" height="16" fill="white"/>
</clipPath>
</defs>
</svg>
