<svg width="16" height="16" viewBox="0 0 16 16" fill="none" xmlns="http://www.w3.org/2000/svg">
<g clip-path="url(#clip0_354_43)">
<path d="M6.66667 3.68219C7.01184 3.68219 7.29167 3.40237 7.29167 3.05719C7.29167 2.71201 7.01184 2.43219 6.66667 2.43219V3.68219ZM13.2917 9.05719C13.2917 8.71201 13.0118 8.43219 12.6667 8.43219C12.3215 8.43219 12.0417 8.71201 12.0417 9.05719H13.2917ZM2.36401 13.6512L2.64775 13.0943L2.64775 13.0943L2.36401 13.6512ZM2.07266 13.3599L1.51578 13.6436L1.51578 13.6436L2.07266 13.3599ZM12.3027 13.6512L12.0189 13.0943L12.0189 13.0943L12.3027 13.6512ZM12.594 13.3599L12.0371 13.0761L12.0371 13.0761L12.594 13.3599ZM2.07266 3.4212L1.51578 3.13745L1.51578 3.13745L2.07266 3.4212ZM2.36401 3.12985L2.08026 2.57297L2.08026 2.57297L2.36401 3.12985ZM8 5.72386L7.55806 5.28192C7.44085 5.39913 7.375 5.5581 7.375 5.72386H8ZM8 7.72386H7.375C7.375 8.06904 7.65482 8.34886 8 8.34886V7.72386ZM10 7.72386V8.34886C10.1658 8.34886 10.3247 8.28301 10.4419 8.1658L10 7.72386ZM11.5286 2.19526L11.9705 2.6372L11.9705 2.6372L11.5286 2.19526ZM12.4714 2.19526L12.0295 2.6372L12.0295 2.6372L12.4714 2.19526ZM13.5286 3.25245L13.0867 3.69439L13.0867 3.6944L13.5286 3.25245ZM13.5286 4.19526L13.9705 4.6372L13.9705 4.6372L13.5286 4.19526ZM11.6 13.0989H3.06667V14.3489H11.6V13.0989ZM2.625 12.6572V4.12386H1.375V12.6572H2.625ZM3.06667 3.68219H6.66667V2.43219H3.06667V3.68219ZM12.0417 9.05719V12.6572H13.2917V9.05719H12.0417ZM3.06667 13.0989C2.86967 13.0989 2.75951 13.0984 2.6797 13.0919C2.60718 13.0859 2.61626 13.0783 2.64775 13.0943L2.08026 14.2081C2.25436 14.2968 2.42809 14.3255 2.57791 14.3377C2.72043 14.3493 2.8903 14.3489 3.06667 14.3489V13.0989ZM1.375 12.6572C1.375 12.8336 1.37451 13.0034 1.38616 13.146C1.3984 13.2958 1.42708 13.4695 1.51578 13.6436L2.62954 13.0761C2.64559 13.1076 2.63793 13.1167 2.63201 13.0442C2.62549 12.9643 2.625 12.8542 2.625 12.6572H1.375ZM2.64775 13.0943C2.63991 13.0903 2.63354 13.0839 2.62954 13.0761L1.51578 13.6436C1.63962 13.8866 1.83722 14.0842 2.08026 14.2081L2.64775 13.0943ZM11.6 14.3489C11.7764 14.3489 11.9462 14.3493 12.0888 14.3377C12.2386 14.3255 12.4123 14.2968 12.5864 14.2081L12.0189 13.0943C12.0504 13.0783 12.0595 13.0859 11.987 13.0919C11.9072 13.0984 11.797 13.0989 11.6 13.0989V14.3489ZM12.0417 12.6572C12.0417 12.8542 12.0412 12.9643 12.0347 13.0442C12.0287 13.1167 12.0211 13.1076 12.0371 13.0761L13.1509 13.6436C13.2396 13.4695 13.2683 13.2958 13.2805 13.146C13.2922 13.0034 13.2917 12.8336 13.2917 12.6572H12.0417ZM12.5864 14.2081C12.8294 14.0842 13.027 13.8866 13.1509 13.6436L12.0371 13.0761C12.0331 13.0839 12.0268 13.0903 12.0189 13.0943L12.5864 14.2081ZM2.625 4.12386C2.625 3.92686 2.62549 3.8167 2.63201 3.73689C2.63793 3.66437 2.64559 3.67345 2.62954 3.70494L1.51578 3.13745C1.42708 3.31155 1.3984 3.48528 1.38616 3.6351C1.37451 3.77762 1.375 3.94749 1.375 4.12386H2.625ZM3.06667 2.43219C2.8903 2.43219 2.72043 2.4317 2.57791 2.44335C2.42809 2.45559 2.25436 2.48427 2.08026 2.57297L2.64775 3.68673C2.61626 3.70278 2.60718 3.69512 2.6797 3.6892C2.75951 3.68268 2.86967 3.68219 3.06667 3.68219V2.43219ZM2.62954 3.70494C2.63354 3.6971 2.63991 3.69073 2.64775 3.68673L2.08026 2.57297C1.83722 2.69681 1.63962 2.89441 1.51578 3.13745L2.62954 3.70494ZM7.375 5.72386V7.72386H8.625V5.72386H7.375ZM8 8.34886H10V7.09886H8V8.34886ZM8.44194 6.1658L11.9705 2.6372L11.0867 1.75332L7.55806 5.28192L8.44194 6.1658ZM12.0295 2.6372L13.0867 3.69439L13.9705 2.81051L12.9133 1.75332L12.0295 2.6372ZM13.0867 3.75332L9.55806 7.28192L10.4419 8.1658L13.9705 4.6372L13.0867 3.75332ZM13.0867 3.6944C13.1029 3.71067 13.1029 3.73705 13.0867 3.75332L13.9705 4.6372C14.475 4.13278 14.475 3.31494 13.9705 2.81051L13.0867 3.6944ZM11.9705 2.6372C11.9868 2.62093 12.0132 2.62093 12.0295 2.6372L12.9133 1.75332C12.4089 1.24889 11.5911 1.24889 11.0867 1.75332L11.9705 2.6372Z" fill="black"/>
</g>
<defs>
<clipPath id="clip0_354_43">
<rect width="16" height="16" fill="white"/>
</clipPath>
</defs>
</svg>
