<svg width="16" height="16" viewBox="0 0 16 16" fill="none" xmlns="http://www.w3.org/2000/svg">
<g clip-path="url(#clip0_1578_64)">
<path d="M8.625 13.9167C8.97019 13.9167 9.25 13.6368 9.25 13.2917C9.25 12.9465 8.97019 12.6667 8.625 12.6667C8.27981 12.6667 8 12.9465 8 13.2917C8 13.6368 8.27981 13.9167 8.625 13.9167Z" fill="black"/>
<path d="M13.9165 7.29166C13.9165 6.94647 13.6367 6.66666 13.2915 6.66666C12.9463 6.66666 12.6665 6.94647 12.6665 7.29166C12.6665 7.63685 12.9463 7.91666 13.2915 7.91666C13.6367 7.91666 13.9165 7.63685 13.9165 7.29166Z" fill="black"/>
<path d="M13.2236 9.50632C13.5225 9.67891 13.6248 10.0611 13.4523 10.36C13.2797 10.6589 12.8976 10.7612 12.5987 10.5887C12.2998 10.4161 12.1974 10.034 12.3699 9.73509C12.5425 9.4362 12.9247 9.33378 13.2236 9.50632Z" fill="black"/>
<path d="M11.5156 12.7848C11.8145 12.6123 11.9169 12.2301 11.7443 11.9312C11.5717 11.6323 11.1896 11.5299 10.8907 11.7025C10.5918 11.875 10.4894 12.2572 10.662 12.5561C10.8345 12.855 11.2167 12.9574 11.5156 12.7848Z" fill="black"/>
<path d="M12.5551 5.25538C12.2563 5.42794 11.8741 5.32554 11.7015 5.02665C11.5289 4.72777 11.6314 4.34559 11.9302 4.17303C12.2291 4.00047 12.6113 4.10287 12.7839 4.40176C12.9564 4.70064 12.854 5.08282 12.5551 5.25538Z" fill="black"/>
<path d="M6.16667 9.83333V13.5H2.5M6 13.1251C3.95132 12.325 2.5 10.332 2.5 8C2.5 4.96243 4.96243 2.5 8 2.5C8.76913 2.5 9.5014 2.65789 10.1662 2.94301" stroke="black" stroke-width="1.25" stroke-linecap="round" stroke-linejoin="round"/>
</g>
<defs>
<clipPath id="clip0_1578_64">
<rect width="16" height="16" fill="white"/>
</clipPath>
</defs>
</svg>
