<svg width="16" height="16" viewBox="0 0 16 16" fill="none" xmlns="http://www.w3.org/2000/svg">
<g clip-path="url(#clip0_1564_3641)">
<path fill-rule="evenodd" clip-rule="evenodd" d="M11.3904 2C11.9111 1.4793 12.7553 1.4793 13.276 2L13.9999 2.72385C14.5206 3.24455 14.5206 4.08877 13.9999 4.60947L4.60938 14C4.08868 14.5207 3.24446 14.5207 2.72376 14L1.9999 13.2761C1.4792 12.7554 1.4792 11.9112 1.9999 11.3905L11.3904 2ZM10.776 4.49999L11.4999 5.22385L13.0571 3.66666L12.3332 2.9428L10.776 4.49999ZM10.5571 6.16666L9.83323 5.4428L2.94271 12.3333L3.66657 13.0572L10.5571 6.16666Z" fill="black"/>
<path d="M6.56719 1.38302C6.63169 1.35076 6.684 1.29846 6.71626 1.23395L7.03509 0.59628C7.15793 0.350597 7.50853 0.350597 7.63138 0.59628L7.95021 1.23395C7.98246 1.29846 8.03477 1.35076 8.09928 1.38302L8.73695 1.70185C8.98263 1.82469 8.98263 2.1753 8.73695 2.29814L8.09928 2.61697C8.03477 2.64923 7.98246 2.70153 7.95021 2.76604L7.63138 3.40371C7.50853 3.64939 7.15793 3.64939 7.03509 3.40371L6.71626 2.76604C6.684 2.70153 6.63169 2.64923 6.56719 2.61697L5.92952 2.29814C5.68383 2.1753 5.68384 1.82469 5.92952 1.70185L6.56719 1.38302Z" fill="black"/>
<path d="M12.5672 8.71635C12.6317 8.6841 12.684 8.63179 12.7163 8.56728L13.0351 7.92961C13.1579 7.68393 13.5085 7.68393 13.6314 7.92961L13.9502 8.56728C13.9825 8.63179 14.0348 8.6841 14.0993 8.71635L14.7369 9.03519C14.9826 9.15803 14.9826 9.50863 14.7369 9.63147L14.0993 9.9503C14.0348 9.98256 13.9825 10.0349 13.9502 10.0994L13.6314 10.737C13.5085 10.9827 13.1579 10.9827 13.0351 10.737L12.7163 10.0994C12.684 10.0349 12.6317 9.98256 12.5672 9.9503L11.9295 9.63147C11.6838 9.50863 11.6838 9.15803 11.9295 9.03519L12.5672 8.71635Z" fill="black"/>
<path d="M3.23385 4.71635C3.29836 4.6841 3.35067 4.63179 3.38292 4.56728L3.70176 3.92961C3.8246 3.68393 4.1752 3.68393 4.29804 3.92961L4.61688 4.56728C4.64913 4.63179 4.70144 4.6841 4.76595 4.71635L5.40361 5.03519C5.6493 5.15803 5.6493 5.50863 5.40361 5.63147L4.76595 5.9503C4.70144 5.98256 4.64913 6.03487 4.61688 6.09938L4.29804 6.73704C4.1752 6.98273 3.8246 6.98273 3.70176 6.73704L3.38292 6.09938C3.35067 6.03487 3.29836 5.98256 3.23385 5.9503L2.59618 5.63147C2.3505 5.50863 2.3505 5.15803 2.59618 5.03519L3.23385 4.71635Z" fill="black"/>
</g>
<defs>
<clipPath id="clip0_1564_3641">
<rect width="16" height="16" fill="white"/>
</clipPath>
</defs>
</svg>
