<svg width="16" height="16" viewBox="0 0 16 16" fill="none" xmlns="http://www.w3.org/2000/svg">
<path d="M6.5296 1.00039L9.87366 1.00092C10.0276 1.00092 10.1223 1.00579 10.1577 1.01553C10.4773 1.10305 10.4874 1.58309 10.1607 1.68364C10.1232 1.69515 10.0616 1.70084 9.97562 1.70072C9.11169 1.69978 8.24771 1.70043 7.38366 1.70266C7.19241 1.70315 7.00121 1.70262 6.81004 1.7021C6.51556 1.70129 6.22113 1.70048 5.92664 1.70337C5.8791 1.69562 5.83378 1.68218 5.7907 1.66304C5.52145 1.54277 5.54152 1.13669 5.80338 1.03015C5.84576 1.01289 5.90851 1.00373 5.99162 1.00268C6.17089 1.00021 6.35021 0.999449 6.5296 1.00039Z" fill="#4389EE"/>
<path fill-rule="evenodd" clip-rule="evenodd" d="M2.75761 6.42685C2.75761 5.29574 2.75761 4.73018 2.94597 4.28536C3.18701 3.71612 3.64011 3.26302 4.20935 3.02197C4.65418 2.83362 5.21973 2.83362 6.35084 2.83362H9.66415C10.7953 2.83362 11.3608 2.83362 11.8056 3.02197C12.3749 3.26302 12.828 3.71612 13.069 4.28536C13.2574 4.73018 13.2574 5.29574 13.2574 6.42685V9.73755C13.2574 10.8687 13.2574 11.4342 13.069 11.879C12.828 12.4483 12.3749 12.9014 11.8056 13.1424C11.3608 13.3308 10.7953 13.3308 9.66415 13.3308H6.35084C5.21973 13.3308 4.65418 13.3308 4.20935 13.1424C3.64011 12.9014 3.18701 12.4483 2.94597 11.879C2.75761 11.4342 2.75761 10.8687 2.75761 9.73755V6.42685ZM9.08158 5.07702C9.03486 5.20041 8.9673 5.338 8.8789 5.48979C8.66981 5.84868 8.46137 6.20809 8.25358 6.56803L7.02689 8.68541L7.02644 8.68658L7.02632 8.68763L7.02689 8.68982C7.02727 8.69049 7.02781 8.69103 7.02846 8.6914C7.02911 8.69177 7.02984 8.69195 7.03059 8.69193C7.46813 8.69029 7.90221 8.69134 8.33282 8.6951C8.42369 8.69592 8.49683 8.70408 8.55224 8.71958C8.93683 8.82788 9.15995 9.23149 9.01854 9.61133C9.01668 9.61643 9.01329 9.62084 9.00885 9.62393C9.0044 9.62702 8.99911 9.62865 8.99371 9.62859C7.61048 9.62665 6.2246 9.62594 4.83907 9.62788C4.70912 9.62806 4.56648 9.61274 4.45818 9.53983C4.22961 9.38663 4.18893 9.10223 4.349 8.87894C4.45501 8.75979 4.59307 8.69892 4.76318 8.69633C5.15458 8.69046 5.54358 8.68876 5.93017 8.69123C5.93359 8.69123 5.93695 8.69034 5.93991 8.68864C5.94288 8.68694 5.94535 8.68449 5.94707 8.68154L7.16847 6.57455L7.45463 6.08518C7.45767 6.07999 7.45856 6.07386 7.4571 6.06809C7.45404 6.05635 7.44847 6.04385 7.44037 6.03059C7.2989 5.79814 7.14629 5.53253 6.98252 5.23375C6.9291 5.13631 6.91079 5.032 6.92758 4.92083C6.99044 4.6271 7.29474 4.45963 7.56892 4.58255C7.74156 4.66018 7.85728 4.87558 7.95107 5.05017C7.9655 5.07702 7.97961 5.10329 7.99313 5.12756C7.99417 5.12942 7.9957 5.13097 7.99755 5.13203C7.9994 5.13309 8.0015 5.13363 8.00363 5.1336C8.00576 5.13356 8.00784 5.13295 8.00965 5.13182C8.01146 5.1307 8.01293 5.12911 8.01391 5.12721L8.01715 5.12087C8.09041 4.97766 8.17632 4.8097 8.28633 4.69032C8.52107 4.43586 8.94634 4.52866 9.05852 4.85268C9.07695 4.90598 9.08463 4.98076 9.08158 5.07702ZM8.8944 6.67933L9.79689 8.23514C9.88024 8.38141 9.96354 8.52534 10.0468 8.66692C10.0624 8.69338 10.0703 8.69301 10.0921 8.69199L10.1031 8.69158C10.3377 8.68618 10.7177 8.68747 11.2432 8.69545C11.5281 8.69985 11.776 8.90043 11.7468 9.20279C11.7368 9.30692 11.6948 9.39767 11.6207 9.47503C11.485 9.61699 11.3408 9.6204 11.1281 9.62543L11.1139 9.62577C10.9472 9.62964 10.7806 9.63005 10.614 9.627C10.6132 9.62698 10.6124 9.62711 10.6117 9.62736L10.6108 9.6278C10.6098 9.62834 10.6089 9.62914 10.6084 9.63011C10.608 9.63071 10.6078 9.63137 10.6076 9.63206L10.6075 9.6333C10.6075 9.63443 10.6078 9.63554 10.6083 9.63651L11.0174 10.3502C11.1733 10.5703 11.1741 10.8702 10.9449 11.0402C10.745 11.1884 10.4366 11.1511 10.2926 10.9349C10.1788 10.764 10.0776 10.588 9.97558 10.4106L9.93741 10.3442L8.5489 7.95056C8.28123 7.48943 8.27119 7.02101 8.51878 6.54532C8.56246 6.46537 8.61476 6.39235 8.67569 6.32625C8.67662 6.32525 8.67778 6.32448 8.67906 6.324C8.68034 6.32351 8.68171 6.32333 8.68307 6.32347C8.68442 6.32361 8.68571 6.32406 8.68685 6.32479C8.68798 6.32551 8.68892 6.3265 8.6896 6.32766L8.8944 6.67933ZM5.78471 10.8259C5.89366 10.6391 6.0019 10.4525 6.10943 10.2662L6.1929 10.1241C6.19584 10.1193 6.19543 10.1148 6.19167 10.1106C5.95124 9.83926 5.65117 9.74992 5.29147 9.84254C5.2859 9.84393 5.28067 9.84645 5.2761 9.84993C5.27153 9.85341 5.26771 9.85779 5.26488 9.86279L4.98418 10.3504C4.86056 10.5512 4.81988 10.7685 4.96868 10.9537C5.12576 11.149 5.3936 11.1881 5.60228 11.043C5.67271 10.994 5.74509 10.8942 5.78471 10.8259Z" fill="#4389EE"/>
<path d="M1.13824 4.14054C1.1009 4.41349 1.35272 4.616 1.61017 4.5158C1.7217 4.47236 1.78991 4.39987 1.8148 4.29832C2.09814 3.1426 2.89022 2.25314 4.02938 1.89073C4.06705 1.87878 4.10612 1.86916 4.14517 1.85955C4.30236 1.82083 4.45933 1.78218 4.52421 1.5919C4.61807 1.31613 4.36344 1.08773 4.09507 1.15025C2.76272 1.46053 1.70016 2.42976 1.25129 3.72583C1.1893 3.90475 1.15162 4.04298 1.13824 4.14054Z" fill="#4389EE"/>
<path d="M13.3014 1.78032C14.0092 2.29382 14.5001 2.96774 14.7741 3.80208C14.8563 4.05249 14.9704 4.40116 14.6349 4.52249C14.4578 4.58659 14.2335 4.49009 14.1861 4.29339C14.0147 3.58355 13.6426 2.96298 13.0814 2.49492C12.6826 2.16632 12.2306 1.94233 11.7255 1.82294C11.4703 1.76271 11.3807 1.46247 11.5385 1.26277C11.6528 1.11802 11.807 1.12366 11.984 1.16874C12.4596 1.29024 12.8987 1.4941 13.3014 1.78032Z" fill="#4389EE"/>
<path d="M14.6445 5.59844H14.6557C14.8459 5.59844 15 5.75258 15 5.94271V10.0563C15 10.2465 14.8459 10.4006 14.6557 10.4006H14.6445C14.4543 10.4006 14.3002 10.2465 14.3002 10.0563V5.94271C14.3002 5.75258 14.4543 5.59844 14.6445 5.59844Z" fill="#4389EE"/>
<path d="M1.35554 5.60073H1.34427C1.15413 5.60073 1 5.75486 1 5.945V10.0586C1 10.2487 1.15413 10.4029 1.34427 10.4029H1.35554C1.54567 10.4029 1.69981 10.2487 1.69981 10.0586V5.945C1.69981 5.75486 1.54567 5.60073 1.35554 5.60073Z" fill="#4389EE"/>
<path d="M4.26658 14.1773C3.10505 13.9003 2.20309 13.0422 1.86446 11.8962C1.85927 11.8757 1.85447 11.8555 1.84978 11.8357C1.82176 11.7179 1.79734 11.6151 1.71636 11.5501C1.41488 11.3078 1.05934 11.572 1.15232 11.9335C1.25141 12.3193 1.39193 12.6694 1.5739 12.9839C2.11839 13.9172 3.01718 14.5959 4.07041 14.8463C4.58144 14.9678 4.72197 14.2858 4.26658 14.1773Z" fill="#4389EE"/>
<path d="M11.5306 14.7269C11.4302 14.5937 11.4314 14.4513 11.5343 14.2997C11.5939 14.2118 11.689 14.1883 11.7841 14.1648C11.8054 14.1595 11.8268 14.1543 11.8477 14.1483C13.0518 13.8029 13.9012 12.9001 14.19 11.69C14.1989 11.6523 14.237 11.5884 14.2725 11.5588C14.425 11.4318 14.5767 11.4222 14.7274 11.5301C14.8442 11.6135 14.8878 11.7546 14.8575 11.8911C14.5363 13.3398 13.3753 14.4973 11.9419 14.8431C11.7732 14.8838 11.6357 14.8662 11.5306 14.7269Z" fill="#4389EE"/>
<path d="M9.96259 14.3004C8.72592 14.3007 7.48914 14.3005 6.25224 14.3001C6.22358 14.3003 6.19344 14.2997 6.16248 14.2992C5.93057 14.2951 5.65267 14.2902 5.60544 14.5802C5.56582 14.8231 5.72607 15.0013 5.97384 15.0013C7.30982 15.0003 8.64492 15 9.97914 15.0004C10.0917 15.0004 10.192 14.9916 10.2702 14.9287C10.478 14.7616 10.4363 14.411 10.1732 14.3219C10.1308 14.3075 10.0606 14.3003 9.96259 14.3004Z" fill="#4389EE"/>
</svg>
