<svg width="16" height="16" viewBox="0 0 16 16" fill="none">
<path d="M12.6012 4.00027C12.4414 4.00503 12.2898 4.07179 12.1784 4.18642L5.84918 10.5157L3.8243 8.4908C3.76764 8.43179 3.69977 8.38467 3.62467 8.35221C3.54957 8.31975 3.46875 8.30261 3.38695 8.30177C3.30514 8.30094 3.22399 8.31644 3.14824 8.34736C3.0725 8.37829 3.00369 8.42401 2.94584 8.48186C2.88799 8.53971 2.84226 8.60852 2.81134 8.68427C2.78042 8.76001 2.76492 8.84116 2.76575 8.92297C2.76658 9.00478 2.78373 9.0856 2.81619 9.1607C2.84864 9.2358 2.89576 9.30366 2.95478 9.36032L5.41442 11.82C5.52974 11.9352 5.68613 12 5.84918 12C6.01224 12 6.16862 11.9352 6.28394 11.82L13.048 5.05595C13.1368 4.96957 13.1975 4.85837 13.2221 4.73691C13.2467 4.61546 13.234 4.48941 13.1857 4.37529C13.1374 4.26117 13.0557 4.16431 12.9514 4.09739C12.8471 4.03047 12.7251 3.99661 12.6012 4.00027Z" fill="black"/>
</svg>
