<svg width="16" height="16" viewBox="0 0 16 16" fill="none" xmlns="http://www.w3.org/2000/svg">
<g clip-path="url(#clip0_240_106)">
<path d="M9.88596 9.88561C8.84456 10.927 7.15616 10.927 6.11475 9.88561M12.3606 3.63952C14.7689 6.04776 14.7689 9.95228 12.3606 12.3605C9.95243 14.7687 6.0479 14.7687 3.63968 12.3605C1.23144 9.95228 1.23144 6.04774 3.63968 3.63952C6.04791 1.23128 9.95243 1.23128 12.3606 3.63952ZM6.50016 6.33334C6.50016 6.60948 6.35092 6.83334 6.16683 6.83334C5.98274 6.83334 5.8335 6.60948 5.8335 6.33334C5.8335 6.0572 5.98274 5.83334 6.16683 5.83334C6.35092 5.83334 6.50016 6.0572 6.50016 6.33334ZM10.1668 6.33334C10.1668 6.60948 10.0176 6.83334 9.8335 6.83334C9.64943 6.83334 9.50016 6.60948 9.50016 6.33334C9.50016 6.0572 9.64943 5.83334 9.8335 5.83334C10.0176 5.83334 10.1668 6.0572 10.1668 6.33334Z" stroke="black" stroke-width="1.25" stroke-linecap="round" stroke-linejoin="round"/>
<rect x="9" y="6" width="1.5" height="1" fill="black"/>
<rect x="5.5" y="6" width="1.5" height="1" fill="black"/>
</g>
<defs>
<clipPath id="clip0_240_106">
<rect width="16" height="16" fill="white"/>
</clipPath>
</defs>
</svg>
