<svg width="16" height="16" viewBox="0 0 16 16" fill="none" xmlns="http://www.w3.org/2000/svg">
<g clip-path="url(#clip0_1275_629)">
<path fill-rule="evenodd" clip-rule="evenodd" d="M2.66122 7.98084L2.09119 6.59179L1.52441 7.98084H2.66122ZM8.1287 9.48433L8.12554 6.75542L6.91789 9.48433H6.18664L4.97584 6.75301V9.48433H3.28191L2.9619 8.70715H1.22783L0.904555 9.48433H0L1.49141 6H2.7288L4.14527 9.29894V6H5.50457L6.59452 8.3637L7.59576 6H8.98238V9.48433H8.1287ZM10.3079 8.77136V8.07794H12.1363V7.36686H10.3079V6.73324H12.3959L13.3069 7.74888L12.3555 8.77136H10.3079ZM15.9507 9.49767H14.8685L13.843 8.34393L12.7772 9.49767H9.47825V6.0125H12.828L13.8526 7.15489L14.912 6.0125H16L14.3815 7.75508L15.9507 9.49767Z" fill="#002663"/>
</g>
<defs>
<clipPath id="clip0_1275_629">
<rect width="16" height="16" fill="white"/>
</clipPath>
</defs>
</svg>
