<svg width="16" height="16" viewBox="0 0 16 16" fill="none" xmlns="http://www.w3.org/2000/svg">
<g clip-path="url(#clip0_1275_669)">
<path fill-rule="evenodd" clip-rule="evenodd" d="M15.2108 3.00301L11.2707 3.00198C11.2702 3.00198 11.2696 3.00198 11.2696 3.00198C11.2666 3.00198 11.2636 3.00253 11.2606 3.00253C10.7194 3.01925 10.0452 3.45688 9.92242 3.99652L8.0591 12.3077C7.93631 12.8524 8.27034 13.2956 8.8077 13.3037H12.947C13.4761 13.2773 13.9903 12.8447 14.111 12.3112L15.9744 4C16.0992 3.44978 15.7571 3.00301 15.2108 3.00301Z" fill="#01798A"/>
<path fill-rule="evenodd" clip-rule="evenodd" d="M8.05922 12.3077L9.92255 3.9965C10.0453 3.45686 10.7195 3.01923 11.2608 3.00252L9.69418 3.00149L6.87167 3.00095C6.32888 3.01214 5.64594 3.45284 5.52321 3.9965L3.65933 12.3077C3.5361 12.8524 3.87061 13.2956 4.40763 13.3037H8.80783C8.27047 13.2956 7.93644 12.8524 8.05922 12.3077Z" fill="#024381"/>
<path fill-rule="evenodd" clip-rule="evenodd" d="M3.65911 12.3077L5.52299 3.99651C5.64572 3.45285 6.32866 3.01215 6.87145 3.00096L3.25564 3C2.70982 3 2.01001 3.44575 1.88527 3.99651L0.0213898 12.3077C0.0100471 12.3584 0.0037544 12.4081 0 12.4568V12.6109C0.0364869 13.008 0.337293 13.2971 0.769688 13.3037H4.40742C3.87039 13.2956 3.53588 12.8524 3.65911 12.3077Z" fill="#DD0228"/>
<path fill-rule="evenodd" clip-rule="evenodd" d="M6.94785 9.05709H7.01628C7.07916 9.05709 7.12146 9.03582 7.14129 8.99371L7.3191 8.72546H7.79527L7.69598 8.90189H8.26691L8.19449 9.17223H7.51512C7.43688 9.29089 7.34056 9.34668 7.22475 9.34007H6.87089L6.94785 9.05709ZM6.86966 9.44454H8.1205L8.04076 9.7382H7.53772L7.46097 10.0217H7.95047L7.87074 10.3153H7.38123L7.26752 10.7341C7.23936 10.8041 7.27639 10.8356 7.37798 10.8285H7.77692L7.70301 11.1014H6.93708C6.79189 11.1014 6.74209 11.0176 6.78763 10.8498L6.93302 10.3153H6.62012L6.6996 10.0217H7.01255L7.08924 9.7382H6.79013L6.86966 9.44454ZM8.86613 8.72343L8.84643 8.89534C8.84643 8.89534 9.08238 8.71677 9.29668 8.71677H10.0885L9.78571 9.82179C9.7606 9.94812 9.65291 10.0109 9.46271 10.0109H8.56519L8.35496 10.7869C8.34285 10.8285 8.35997 10.8498 8.40525 10.8498H8.58184L8.51693 11.0906H8.06797C7.89564 11.0906 7.82396 11.0384 7.85239 10.9335L8.44647 8.72343H8.86613ZM9.53669 9.0358H8.82991L8.74537 9.33397C8.74537 9.33397 8.86308 9.2483 9.05978 9.24524C9.25593 9.24214 9.47983 9.24524 9.47983 9.24524L9.53669 9.0358ZM9.28063 9.72751C9.33289 9.73466 9.36213 9.71381 9.36564 9.66462L9.4089 9.50744H8.70104L8.64168 9.72751H9.28063ZM8.80318 10.0845H9.2112L9.20361 10.2625H9.31225C9.36714 10.2625 9.39435 10.2448 9.39435 10.2098L9.4265 10.0947H9.76561L9.72033 10.2625C9.68202 10.4025 9.58049 10.4755 9.41547 10.4826H9.19813L9.19712 10.7869C9.19312 10.8356 9.23685 10.8604 9.32687 10.8604H9.53115L9.46522 11.1013H8.97524C8.83791 11.1079 8.77056 11.0419 8.77198 10.902L8.80318 10.0845Z" fill="white"/>
<path fill-rule="evenodd" clip-rule="evenodd" d="M3.85861 7.25117C3.80327 7.52452 3.67499 7.73446 3.476 7.88355C3.27882 8.03012 3.02449 8.10363 2.71311 8.10363C2.42008 8.10363 2.20525 8.02857 2.06816 7.87796C1.97308 7.77095 1.92578 7.63504 1.92578 7.47073C1.92578 7.40279 1.93385 7.32977 1.94995 7.25117L2.28171 5.63855H2.78278L2.45553 7.23291C2.44546 7.27704 2.44144 7.31812 2.44197 7.35514C2.44144 7.43681 2.46156 7.50373 2.5023 7.55594C2.56166 7.63355 2.65801 7.67207 2.79208 7.67207C2.94626 7.67207 3.07329 7.63406 3.17189 7.55746C3.27051 7.4814 3.33489 7.3734 3.36382 7.23291L3.69209 5.63855H4.19062L3.85861 7.25117Z" fill="white"/>
<path fill-rule="evenodd" clip-rule="evenodd" d="M5.96336 6.61679H6.35578L6.04839 8.05601H5.65674L5.96336 6.61679ZM6.08689 6.09244H6.4828L6.40885 6.44178H6.01296L6.08689 6.09244Z" fill="white"/>
<path fill-rule="evenodd" clip-rule="evenodd" d="M6.70281 7.94643C6.60017 7.84755 6.54835 7.71417 6.54785 7.5448C6.54785 7.51588 6.5496 7.48293 6.5534 7.4469C6.55719 7.41038 6.56197 7.37488 6.56874 7.34194C6.61527 7.10817 6.71439 6.92256 6.86706 6.78562C7.01949 6.6482 7.20339 6.57922 7.4187 6.57922C7.59502 6.57922 7.73486 6.62893 7.83727 6.72832C7.93961 6.82824 7.99092 6.9631 7.99092 7.13456C7.99092 7.16393 7.98868 7.19791 7.98489 7.23442C7.98036 7.27145 7.97487 7.30695 7.96851 7.34194C7.92303 7.57217 7.82421 7.75575 7.67151 7.89016C7.51881 8.02556 7.33544 8.09296 7.12163 8.09296C6.94456 8.09296 6.80519 8.0443 6.70281 7.94643ZM7.45064 7.66143C7.51982 7.58587 7.56936 7.47124 7.59955 7.31863C7.60408 7.2948 7.60808 7.26994 7.61058 7.24509C7.61309 7.22073 7.6141 7.19792 7.6141 7.17713C7.6141 7.08837 7.5917 7.01943 7.54669 6.97073C7.50195 6.92153 7.43832 6.89722 7.35608 6.89722C7.24738 6.89722 7.15885 6.93571 7.08947 7.01282C7.01948 7.08992 6.96993 7.20655 6.93873 7.36173C6.93447 7.38555 6.93095 7.40941 6.9277 7.43273C6.92519 7.45655 6.92445 7.47887 6.92492 7.49914C6.92492 7.58739 6.94733 7.65536 6.99234 7.70352C7.03708 7.75171 7.10043 7.77553 7.18375 7.77553C7.29293 7.77553 7.38146 7.7375 7.45064 7.66143Z" fill="white"/>
<path fill-rule="evenodd" clip-rule="evenodd" d="M10.5372 9.06921L10.6319 8.73351H11.1103L11.0896 8.8567C11.0896 8.8567 11.3341 8.73351 11.5101 8.73351C11.6863 8.73351 12.1017 8.73351 12.1017 8.73351L12.0077 9.06921H11.9146L11.4684 10.6525H11.5615L11.4729 10.9669H11.3799L11.3411 11.1033H10.8778L10.9165 10.9669H10.0024L10.0915 10.6525H10.1831L10.6298 9.06921H10.5372ZM11.0534 9.06923L10.9316 9.49772C10.9316 9.49772 11.14 9.41713 11.3195 9.39431C11.3592 9.24468 11.411 9.06923 11.411 9.06923L11.0534 9.06923ZM10.8753 9.69855L10.7531 10.1474C10.7531 10.1474 10.984 10.0327 11.1424 10.0231C11.1882 9.84964 11.234 9.69855 11.234 9.69855L10.8753 9.69855ZM10.9648 10.6525L11.0564 10.3269H10.6993L10.6072 10.6525H10.9648ZM12.1219 8.71274H12.5717L12.5907 8.88003C12.5878 8.92262 12.6129 8.94296 12.6662 8.94296H12.7457L12.6653 9.22641H12.3347C12.2085 9.233 12.1435 9.18436 12.1375 9.07934L12.1219 8.71274ZM11.9901 9.32076H13.447L13.3615 9.62505H12.8976L12.8181 9.90797H13.2815L13.1955 10.2118H12.6793L12.5626 10.3898H12.8152L12.8735 10.7463C12.8805 10.7818 12.9117 10.799 12.965 10.799H13.0435L12.9611 11.0926H12.6833C12.5394 11.0997 12.4651 11.0511 12.459 10.9461L12.392 10.6205L12.1622 10.9669C12.1078 11.0647 12.0243 11.1104 11.9117 11.1033H11.4875L11.57 10.8096H11.7024C11.7567 10.8096 11.8019 10.7853 11.8427 10.7361L12.2024 10.2118H11.7386L11.8245 9.90797H12.3277L12.4077 9.62505H11.9041L11.9901 9.32076Z" fill="white"/>
<path fill-rule="evenodd" clip-rule="evenodd" d="M4.32016 6.61626H4.67406L4.63358 6.82417L4.68437 6.76485C4.79909 6.64112 4.93843 6.57974 5.10294 6.57974C5.25185 6.57974 5.35925 6.62338 5.42667 6.71109C5.49306 6.79883 5.51117 6.92004 5.47976 7.07573L5.28479 8.05649H4.92108L5.09715 7.16752C5.11529 7.07573 5.11027 7.00726 5.08229 6.96312C5.05466 6.91901 5.00181 6.89723 4.9256 6.89723C4.83204 6.89723 4.7533 6.9266 4.68916 6.98494C4.62475 7.04377 4.58226 7.12543 4.56137 7.22937L4.39914 8.05649H4.03467L4.32016 6.61626Z" fill="white"/>
<path fill-rule="evenodd" clip-rule="evenodd" d="M8.37869 6.61626H8.73289L8.69269 6.82417L8.74291 6.76485C8.85771 6.64112 8.99755 6.57974 9.16155 6.57974C9.31046 6.57974 9.41808 6.62338 9.48495 6.71109C9.55095 6.79883 9.57003 6.92004 9.53782 7.07573L9.34362 8.05649H8.97941L9.15553 7.16752C9.1736 7.07573 9.16859 7.00726 9.14091 6.96312C9.11221 6.91901 9.06036 6.89723 8.98448 6.89723C8.89087 6.89723 8.81243 6.9266 8.74751 6.98494C8.68308 7.04377 8.64037 7.12543 8.62026 7.22937L8.45728 8.05649H8.09326L8.37869 6.61626" fill="white"/>
<path fill-rule="evenodd" clip-rule="evenodd" d="M10.1297 5.72372H11.158C11.3557 5.72372 11.5086 5.76889 11.6138 5.85759C11.7184 5.94739 11.7708 6.0762 11.7708 6.24405V6.2491C11.7708 6.28103 11.7687 6.31706 11.7657 6.35609C11.7606 6.39464 11.7541 6.43367 11.7456 6.47426C11.7003 6.69639 11.5951 6.87491 11.4327 7.0103C11.2696 7.14519 11.0765 7.21316 10.8542 7.21316H10.3027L10.1322 8.0565H9.65479L10.1297 5.72372ZM10.3867 6.80747H10.8441C10.9633 6.80747 11.0578 6.77954 11.1268 6.72429C11.1952 6.6685 11.2405 6.58332 11.2656 6.46771C11.2696 6.44635 11.2721 6.42711 11.2752 6.40937C11.2767 6.39265 11.2787 6.37587 11.2787 6.3597C11.2787 6.277 11.2496 6.21716 11.1912 6.17964C11.1328 6.14156 11.0413 6.12335 10.9145 6.12335H10.5261L10.3867 6.80747Z" fill="white"/>
<path fill-rule="evenodd" clip-rule="evenodd" d="M13.9078 8.33489C13.7569 8.65841 13.6131 8.84702 13.5286 8.93476C13.444 9.02152 13.2765 9.22336 12.873 9.20811L12.9078 8.96117C13.2473 8.85569 13.4309 8.38047 13.5356 8.17004L13.4108 6.62028L13.6734 6.61673H13.8938L13.9174 7.58889L14.3304 6.61673H14.7485L13.9078 8.33489Z" fill="white"/>
<path fill-rule="evenodd" clip-rule="evenodd" d="M12.7387 6.73391L12.5726 6.84905C12.3991 6.71214 12.2406 6.62743 11.9348 6.77043C11.5182 6.96515 11.1701 8.45865 12.3171 7.96673L12.3825 8.04482L12.8338 8.05649L13.1301 6.69942L12.7387 6.73391ZM12.4821 7.47583C12.4096 7.69137 12.2477 7.83386 12.121 7.79329C11.9942 7.75374 11.9489 7.54579 12.0223 7.32977C12.0948 7.11373 12.2578 6.97175 12.3835 7.01232C12.5103 7.05187 12.556 7.25978 12.4821 7.47583Z" fill="white"/>
</g>
<defs>
<clipPath id="clip0_1275_669">
<rect width="16" height="16" fill="white"/>
</clipPath>
</defs>
</svg>
