<svg width="16" height="16" viewBox="0 0 16 16" fill="none" xmlns="http://www.w3.org/2000/svg">
<g clip-path="url(#clip0_233_55)">
<path d="M8.00016 4.91668V4.23149M8.00016 11.0833V11.7685M9.48396 5.94446C9.18776 5.53485 8.63423 5.25927 8.00016 5.25927H7.80983C6.9689 5.25927 6.2872 5.80464 6.2872 6.47738V6.52967C6.2872 7.01088 6.62704 7.45074 7.16503 7.66594L8.8353 8.33408C9.3733 8.54928 9.7131 8.98914 9.7131 9.47034C9.7131 10.1719 9.00216 10.7407 8.1251 10.7407H8.00016C7.3661 10.7407 6.81256 10.4651 6.51636 10.0555M14.1668 8.00001C14.1668 11.4057 11.4059 14.1667 8.00016 14.1667C4.59441 14.1667 1.8335 11.4057 1.8335 8.00001C1.8335 4.59426 4.59441 1.83334 8.00016 1.83334C11.4059 1.83334 14.1668 4.59426 14.1668 8.00001Z" stroke="black" stroke-width="1.25" stroke-linecap="round" stroke-linejoin="round"/>
</g>
<defs>
<clipPath id="clip0_233_55">
<rect width="16" height="16" fill="white"/>
</clipPath>
</defs>
</svg>
