<svg width="16" height="16" viewBox="0 0 16 16" fill="none" xmlns="http://www.w3.org/2000/svg">
<g clip-path="url(#clip0_1612_74)">
<path fill-rule="evenodd" clip-rule="evenodd" d="M1.90605 1.65624C1.90605 1.31106 2.18588 1.03124 2.53105 1.03124H11.7186C13.0302 1.03124 14.0936 2.09456 14.0936 3.40624V12.5937C14.0936 13.9054 13.0302 14.9687 11.7186 14.9687H2.53105C2.18588 14.9687 1.90605 14.6889 1.90605 14.3437V1.65624ZM3.15605 2.28124V13.7187H11.7186C12.3399 13.7187 12.8436 13.2151 12.8436 12.5937V3.40624C12.8436 2.78492 12.3399 2.28124 11.7186 2.28124H3.15605ZM7.4998 4.90624C6.75767 4.90624 6.15605 5.50786 6.15605 6.24999C6.15605 6.99212 6.75767 7.59374 7.4998 7.59374C8.24194 7.59374 8.84355 6.99212 8.84355 6.24999C8.84355 5.50786 8.24194 4.90624 7.4998 4.90624ZM4.90605 6.24999C4.90605 4.8175 6.06732 3.65624 7.4998 3.65624C8.93229 3.65624 10.0936 4.8175 10.0936 6.24999C10.0936 7.68248 8.93229 8.84374 7.4998 8.84374C6.06732 8.84374 4.90605 7.68248 4.90605 6.24999ZM5.53105 10.2187C5.18588 10.2187 4.90605 10.4986 4.90605 10.8437C4.90605 11.1889 5.18588 11.4687 5.53105 11.4687H9.46855C9.81373 11.4687 10.0936 11.1889 10.0936 10.8437C10.0936 10.4986 9.81373 10.2187 9.46855 10.2187H5.53105Z" fill="black"/>
</g>
<defs>
<clipPath id="clip0_1612_74">
<rect width="16" height="16" fill="white"/>
</clipPath>
</defs>
</svg>
