<svg fill="none" height="209" viewBox="0 0 1136 209" width="1136" xmlns="http://www.w3.org/2000/svg" xmlns:xlink="http://www.w3.org/1999/xlink"><clipPath id="a"><rect height="209" rx="12" width="1136"/></clipPath><clipPath id="b"><rect height="209" rx="6" width="1136"/></clipPath><clipPath id="c"><path d="m0 39h320v40h-320z"/></clipPath><clipPath id="d"><path d="m320 39h220v40h-220z"/></clipPath><clipPath id="e"><path d="m540 39h232v40h-232z"/></clipPath><clipPath id="f"><path d="m772 39h232v40h-232z"/></clipPath><clipPath id="g"><path d="m0 78h320v44h-320z"/></clipPath><clipPath id="h"><path d="m320 78h220v44h-220z"/></clipPath><clipPath id="i"><path d="m540 78h232v44h-232z"/></clipPath><clipPath id="j"><path d="m772 78h232v44h-232z"/></clipPath><clipPath id="k"><path d="m0 122h320v44h-320z"/></clipPath><clipPath id="l"><path d="m320 122h220v44h-220z"/></clipPath><clipPath id="m"><path d="m540 122h232v44h-232z"/></clipPath><clipPath id="n"><path d="m772 122h232v44h-232z"/></clipPath><mask id="o" fill="#fff"><path d="m0 0h1136v40h-1136z" fill="#fff"/></mask><mask id="p" fill="#fff"><path d="m0 39h1136v40h-1136z" fill="#fff"/></mask><mask id="q" fill="#fff"><path d="m0 78h1136v44h-1136z" fill="#fff"/></mask><mask id="r" fill="#fff"><path d="m0 122h1136v44h-1136z" fill="#fff"/></mask><mask id="s" fill="#fff"><path d="m0 165h1136v44h-1136z" fill="#fff"/></mask><g clip-path="url(#a)"><g clip-path="url(#b)"><rect fill="#fff" height="209" rx="6" width="1136"/><path d="m0 0h1136v40h-1136z" fill="#f7f7f7"/><path d="m1136 39h-1136v2h1136z" fill="#e2e2e2" mask="url(#o)"/><path clip-rule="evenodd" d="m22.5 14.75c0-.6904.5596-1.25 1.25-1.25h5.25v3.75c0 .4142.3358.75.75.75h3.75v7.25c0 .6904-.5596 1.25-1.25 1.25h-8.5c-.6904 0-1.25-.5596-1.25-1.25zm10.1893 1.75-2.1893-2.1893v2.1893zm-8.9393-4.5c-1.5188 0-2.75 1.2312-2.75 2.75v10.5c0 1.5188 1.2312 2.75 2.75 2.75h8.5c1.5188 0 2.75-1.2312 2.75-2.75v-8.25c0-.1989-.079-.3897-.2197-.5303l-4.25-4.25c-.1406-.1407-.3314-.2197-.5303-.2197zm1.25 11.25c0-.4142.3358-.75.75-.75h4.5c.4142 0 .75.3358.75.75s-.3358.75-.75.75h-4.5c-.4142 0-.75-.3358-.75-.75zm.75-3.75c-.4142 0-.75.3358-.75.75s.3358.75.75.75h4.5c.4142 0 .75-.3358.75-.75s-.3358-.75-.75-.75z" fill="#000" fill-rule="evenodd"/><path d="m45.065 25v-10.5h3.405c1.23 0 2.24.215 3.03.645.8.43 1.39 1.04 1.77 1.83.39.78.585 1.71.585 2.79 0 1.07-.195 2-.585 2.79-.38.78-.97 1.385-1.77 1.815-.79.42-1.8.63-3.03.63zm1.59-1.35h1.755c.95 0 1.7-.155 2.25-.465.56-.31.96-.755 1.2-1.335.25-.58.375-1.275.375-2.085s-.125-1.51-.375-2.1c-.24-.59-.64-1.04-1.2-1.35-.55-.32-1.3-.48-2.25-.48h-1.755zm12.3769 1.53c-.71 0-1.35-.16-1.92-.48-.56-.33-1.005-.785-1.335-1.365-.33-.59-.495-1.275-.495-2.055s.165-1.46.495-2.04c.34-.59.795-1.045 1.365-1.365.57-.33 1.205-.495 1.905-.495.71 0 1.345.165 1.905.495.57.32 1.02.775 1.35 1.365.34.58.51 1.26.51 2.04s-.17 1.465-.51 2.055c-.33.58-.78 1.035-1.35 1.365-.57.32-1.21.48-1.92.48zm0-1.365c.38 0 .73-.095 1.05-.285.33-.19.595-.47.795-.84.2-.38.3-.85.3-1.41s-.1-1.025-.3-1.395c-.19-.38-.45-.665-.78-.855-.32-.19-.67-.285-1.05-.285s-.735.095-1.065.285c-.32.19-.58.475-.78.855-.2.37-.3.835-.3 1.395s.1 1.03.3 1.41c.2.37.46.65.78.84s.67.285 1.05.285zm9.0245 1.365c-.73 0-1.385-.165-1.965-.495-.57-.33-1.02-.785-1.35-1.365-.32-.59-.48-1.27-.48-2.04s.16-1.445.48-2.025c.33-.59.78-1.05 1.35-1.38.58-.33 1.235-.495 1.965-.495.92 0 1.69.24 2.31.72.63.48 1.035 1.13 1.215 1.95h-1.665c-.1-.41-.32-.73-.66-.96s-.74-.345-1.2-.345c-.39 0-.75.1-1.08.3-.33.19-.595.475-.795.855-.2.37-.3.83-.3 1.38s.1 1.015.3 1.395c.2.37.465.655.795.855s.69.3 1.08.3c.46 0 .86-.115 1.2-.345s.56-.555.66-.975h1.665c-.17.8-.57 1.445-1.2 1.935s-1.405.735-2.325.735zm7.9944 0c-.9 0-1.61-.28-2.13-.84-.51-.56-.765-1.395-.765-2.505v-4.275h1.59v4.11c0 1.44.59 2.16 1.77 2.16.59 0 1.075-.21 1.455-.63s.57-1.02.57-1.8v-3.84h1.59v7.44h-1.41l-.12-1.305c-.23.46-.57.825-1.02 1.095-.44.26-.95.39-1.53.39zm6.1026-.18v-7.44h1.41l.135 1.05c.24-.38.555-.68.945-.9.4-.22.86-.33 1.38-.33 1.18 0 2 .465 2.46 1.395.27-.43.63-.77 1.08-1.02.46-.25.955-.375 1.485-.375.93 0 1.66.28 2.19.84s.795 1.395.795 2.505v4.275h-1.59v-4.11c0-1.44-.55-2.16-1.65-2.16-.56 0-1.02.21-1.38.63-.35.42-.525 1.02-.525 1.8v3.84h-1.59v-4.11c0-1.44-.555-2.16-1.665-2.16-.55 0-1.005.21-1.365.63-.35.42-.525 1.02-.525 1.8v3.84zm17.2203.18c-.73 0-1.38-.16-1.95-.48-.56-.33-1-.785-1.32-1.365s-.48-1.255-.48-2.025c0-.78.155-1.465.465-2.055.32-.59.76-1.05 1.32-1.38.57-.33 1.23-.495 1.98-.495.7303 0 1.3653.165 1.9053.495.54.32.96.75 1.26 1.29s.45 1.135.45 1.785c0 .1-.005.21-.015.33 0 .11-.005.235-.015.375h-5.7903c.05.72.285 1.27.705 1.65.43.37.925.555 1.485.555.45 0 .8253-.1 1.1253-.3.31-.21.54-.49.69-.84h1.59c-.2.7-.6 1.285-1.2 1.755-.59.47-1.325.705-2.2053.705zm0-6.495c-.53 0-1 .16-1.41.48-.41.31-.66.78-.75 1.41h4.2003c-.03-.58-.235-1.04-.615-1.38s-.8553-.51-1.4253-.51zm5.2793 6.315v-7.44h1.41l.12 1.305c.23-.46.565-.82 1.005-1.08.45-.27.965-.405 1.545-.405.9 0 1.605.28 2.115.84.52.56.78 1.395.78 2.505v4.275h-1.575v-4.11c0-1.44-.59-2.16-1.77-2.16-.59 0-1.08.21-1.47.63-.38.42-.57 1.02-.57 1.8v3.84zm11.968 0c-.73 0-1.31-.175-1.74-.525-.43-.36-.645-.995-.645-1.905v-3.675h-1.275v-1.335h1.275l.195-1.89h1.395v1.89h2.1v1.335h-2.1v3.675c0 .41.085.695.255.855.18.15.485.225.915.225h.855v1.35zm5.915.18c-.94 0-1.715-.23-2.325-.69s-.96-1.07-1.05-1.83h1.605c.08.34.27.635.57.885.3.24.695.36 1.185.36.48 0 .83-.1 1.05-.3s.33-.43.33-.69c0-.38-.155-.635-.465-.765-.3-.14-.72-.265-1.26-.375-.42-.09-.84-.21-1.26-.36-.41-.15-.755-.36-1.035-.63-.27-.28-.405-.655-.405-1.125 0-.65.25-1.19.75-1.62.5-.44 1.2-.66 2.1-.66.83 0 1.5.2 2.01.6.52.4.825.965.915 1.695h-1.53c-.05-.32-.2-.57-.45-.75-.24-.18-.565-.27-.975-.27-.4 0-.71.085-.93.255-.22.16-.33.37-.33.63s.15.465.45.615c.31.15.715.285 1.215.405.5.11.96.24 1.38.39.43.14.775.35 1.035.63s.39.69.39 1.23c.01.68-.255 1.245-.795 1.695-.53.45-1.255.675-2.175.675z" fill="#000"/><path d="m0 39h1136v40h-1136z" fill="#fff"/><path d="m0 40h1136v-2h-1136z" fill="#e2e2e2" mask="url(#p)"/><g clip-path="url(#c)"><path d="m23.996 63.144c-.6 0-1.144-.116-1.632-.348-.48-.24-.864-.604-1.152-1.092-.28-.488-.42-1.108-.42-1.86v-5.244h1.272v5.256c0 .736.176 1.276.528 1.62s.828.516 1.428.516c.592 0 1.064-.172 1.416-.516s.528-.884.528-1.62v-5.256h1.272v5.244c0 .752-.148 1.372-.444 1.86-.288.488-.68.852-1.176 1.092-.488.232-1.028.348-1.62.348zm4.8716-.144v-8.4h2.94c.656 0 1.2.112 1.632.336.432.216.752.516.96.9.216.376.324.804.324 1.284 0 .456-.104.876-.312 1.26-.2.376-.516.676-.948.9s-.984.336-1.656.336h-1.668v3.384zm1.272-4.428h1.608c.6 0 1.028-.128 1.284-.384.264-.264.396-.62.396-1.068 0-.464-.132-.824-.396-1.08-.256-.264-.684-.396-1.284-.396h-1.608zm5.8413 4.428v-8.4h1.272v7.392h3.816v1.008zm9.5596.144c-.832 0-1.56-.184-2.184-.552s-1.112-.876-1.464-1.524c-.352-.656-.528-1.412-.528-2.268s.176-1.608.528-2.256c.352-.656.84-1.168 1.464-1.536s1.352-.552 2.184-.552 1.56.184 2.184.552 1.108.88 1.452 1.536c.352.648.528 1.4.528 2.256s-.176 1.612-.528 2.268c-.344.648-.828 1.156-1.452 1.524s-1.352.552-2.184.552zm0-1.14c.576 0 1.076-.128 1.5-.384.432-.256.768-.624 1.008-1.104s.36-1.052.36-1.716-.12-1.236-.36-1.716-.576-.848-1.008-1.104c-.424-.256-.924-.384-1.5-.384s-1.08.128-1.512.384-.768.624-1.008 1.104c-.232.48-.348 1.052-.348 1.716s.116 1.236.348 1.716c.24.48.576.848 1.008 1.104s.936.384 1.512.384zm4.4668.996 3.096-8.4h1.392l3.072 8.4h-1.344l-.72-2.052h-3.432l-.72 2.052zm2.424-3.06h2.712l-1.356-3.828zm6.3074 3.06v-8.4h2.724c.984 0 1.792.172 2.424.516.64.344 1.112.832 1.416 1.464.312.624.468 1.368.468 2.232 0 .856-.156 1.6-.468 2.232-.304.624-.776 1.108-1.416 1.452-.632.336-1.44.504-2.424.504zm1.272-1.08h1.404c.76 0 1.36-.124 1.8-.372.448-.248.768-.604.96-1.068.2-.464.3-1.02.3-1.668s-.1-1.208-.3-1.68c-.192-.472-.512-.832-.96-1.08-.44-.256-1.04-.384-1.8-.384h-1.404zm7.1655 1.08v-8.4h5.34v1.032h-4.068v2.616h3.708v1.008h-3.708v2.712h4.068v1.032zm6.8555 0v-8.4h2.724c.984 0 1.792.172 2.424.516.64.344 1.112.832 1.416 1.464.312.624.468 1.368.468 2.232 0 .856-.156 1.6-.468 2.232-.304.624-.776 1.108-1.416 1.452-.632.336-1.44.504-2.424.504zm1.272-1.08h1.404c.76 0 1.36-.124 1.8-.372.448-.248.768-.604.96-1.068.2-.464.3-1.02.3-1.668s-.1-1.208-.3-1.68c-.192-.472-.512-.832-.96-1.08-.44-.256-1.04-.384-1.8-.384h-1.404zm10.1889 1.08v-8.4h2.724c.984 0 1.792.172 2.424.516.64.344 1.112.832 1.416 1.464.312.624.468 1.368.468 2.232 0 .856-.156 1.6-.468 2.232-.304.624-.776 1.108-1.416 1.452-.632.336-1.44.504-2.424.504zm1.272-1.08h1.404c.76 0 1.36-.124 1.8-.372.448-.248.768-.604.96-1.068.2-.464.3-1.02.3-1.668s-.1-1.208-.3-1.68c-.192-.472-.512-.832-.96-1.08-.44-.256-1.04-.384-1.8-.384h-1.404zm11.0415 1.224c-.832 0-1.56-.184-2.184-.552s-1.112-.876-1.464-1.524c-.352-.656-.528-1.412-.528-2.268s.176-1.608.528-2.256c.352-.656.84-1.168 1.464-1.536s1.352-.552 2.184-.552 1.56.184 2.184.552c.6239.368 1.1079.88 1.4519 1.536.352.648.528 1.4.528 2.256s-.176 1.612-.528 2.268c-.344.648-.828 1.156-1.4519 1.524-.624.368-1.352.552-2.184.552zm0-1.14c.576 0 1.076-.128 1.5-.384.432-.256.7679-.624 1.0079-1.104s.36-1.052.36-1.716-.12-1.236-.36-1.716-.5759-.848-1.0079-1.104c-.424-.256-.924-.384-1.5-.384s-1.08.128-1.512.384-.768.624-1.008 1.104c-.232.48-.348 1.052-.348 1.716s.116 1.236.348 1.716c.24.48.576.848 1.008 1.104s.936.384 1.512.384zm9.3249 1.14c-.832 0-1.552-.18-2.16-.54-.6-.368-1.064-.876-1.392-1.524-.328-.656-.492-1.412-.492-2.268 0-.864.164-1.62.492-2.268.328-.656.792-1.168 1.392-1.536.608-.368 1.328-.552 2.16-.552.984 0 1.788.24 2.412.72s1.02 1.152 1.188 2.016h-1.416c-.112-.488-.352-.876-.72-1.164s-.86-.432-1.476-.432c-.84 0-1.504.288-1.992.864-.488.568-.732 1.352-.732 2.352 0 .992.244 1.772.732 2.34s1.152.852 1.992.852c.616 0 1.108-.136 1.476-.408s.608-.644.72-1.116h1.416c-.168.832-.564 1.484-1.188 1.956s-1.428.708-2.412.708zm8.142 0c-.6 0-1.144-.116-1.632-.348-.48-.24-.864-.604-1.152-1.092-.28-.488-.42-1.108-.42-1.86v-5.244h1.272v5.256c0 .736.176 1.276.528 1.62s.828.516 1.428.516c.592 0 1.064-.172 1.416-.516s.528-.884.528-1.62v-5.256h1.272v5.244c0 .752-.148 1.372-.444 1.86-.288.488-.68.852-1.176 1.092-.488.232-1.028.348-1.62.348zm4.872-.144v-8.4h1.5l2.844 5.592 2.832-5.592h1.5v8.4h-1.272v-6.204l-2.568 5.004h-.984l-2.58-4.992v6.192zm10.383 0v-8.4h5.34v1.032h-4.068v2.616h3.708v1.008h-3.708v2.712h4.068v1.032zm6.855 0v-8.4h1.272l4.212 6.324v-6.324h1.272v8.4h-1.272l-4.212-6.324v6.324zm10.429 0v-7.368h-2.484v-1.032h6.228v1.032h-2.472v7.368zm7.011 1.74c-.448-.432-.852-.94-1.212-1.524-.352-.576-.636-1.216-.852-1.92-.208-.712-.312-1.476-.312-2.292s.104-1.576.312-2.28c.216-.712.5-1.356.852-1.932.36-.584.764-1.092 1.212-1.524h1.272v.12c-.72.744-1.3 1.596-1.74 2.556-.432.96-.648 1.98-.648 3.06s.216 2.1.648 3.06c.44.96 1.024 1.812 1.752 2.556v.12zm5.324-1.596c-.616 0-1.156-.108-1.62-.324s-.828-.524-1.092-.924c-.256-.4-.388-.876-.396-1.428h1.344c.008.448.164.828.468 1.14s.732.468 1.284.468c.488 0 .868-.116 1.14-.348.28-.24.42-.544.42-.912 0-.296-.068-.536-.204-.72-.128-.184-.308-.336-.54-.456-.224-.12-.484-.228-.78-.324s-.608-.2-.936-.312c-.648-.216-1.136-.496-1.464-.84-.32-.344-.48-.796-.48-1.356-.008-.472.1-.884.324-1.236.232-.352.552-.624.96-.816.416-.2.9-.3 1.452-.3.544 0 1.02.1 1.428.3.416.2.74.48.972.84.232.352.352.764.36 1.236h-1.344c0-.216-.056-.42-.168-.612-.112-.2-.276-.364-.492-.492s-.48-.192-.792-.192c-.4-.008-.732.092-.996.3-.256.208-.384.496-.384.864 0 .328.096.58.288.756s.456.324.792.444c.336.112.72.244 1.152.396.416.136.788.3 1.116.492s.588.444.78.756c.2.312.3.708.3 1.188 0 .424-.108.82-.324 1.188-.216.36-.54.656-.972.888-.432.224-.964.336-1.596.336zm3.851 1.596v-.12c.72-.744 1.3-1.596 1.74-2.556s.66-1.98.66-3.06-.22-2.1-.66-3.06c-.432-.96-1.008-1.812-1.728-2.556v-.12h1.272c.44.432.84.94 1.2 1.524.36.576.644 1.22.852 1.932.216.704.324 1.464.324 2.28s-.108 1.58-.324 2.292c-.208.704-.492 1.344-.852 1.92-.36.584-.76 1.092-1.2 1.524z" fill="#707070"/></g><g clip-path="url(#d)"><path d="m343.624 63.144c-.616 0-1.156-.108-1.62-.324s-.828-.524-1.092-.924c-.256-.4-.388-.876-.396-1.428h1.344c.008.448.164.828.468 1.14s.732.468 1.284.468c.488 0 .868-.116 1.14-.348.28-.24.42-.544.42-.912 0-.296-.068-.536-.204-.72-.128-.184-.308-.336-.54-.456-.224-.12-.484-.228-.78-.324s-.608-.2-.936-.312c-.648-.216-1.136-.496-1.464-.84-.32-.344-.48-.796-.48-1.356-.008-.472.1-.884.324-1.236.232-.352.552-.624.96-.816.416-.2.9-.3 1.452-.3.544 0 1.02.1 1.428.3.416.2.74.48.972.84.232.352.352.764.36 1.236h-1.344c0-.216-.056-.42-.168-.612-.112-.2-.276-.364-.492-.492s-.48-.192-.792-.192c-.4-.008-.732.092-.996.3-.256.208-.384.496-.384.864 0 .328.096.58.288.756s.456.324.792.444c.336.112.72.244 1.152.396.416.136.788.3 1.116.492s.588.444.78.756c.2.312.3.708.3 1.188 0 .424-.108.82-.324 1.188-.216.36-.54.656-.972.888-.432.224-.964.336-1.596.336zm6.098-.144v-7.368h-2.484v-1.032h6.228v1.032h-2.472v7.368zm3.481 0 3.096-8.4h1.392l3.072 8.4h-1.344l-.72-2.052h-3.432l-.72 2.052zm2.424-3.06h2.712l-1.356-3.828zm7.361 3.06v-7.368h-2.484v-1.032h6.228v1.032h-2.472v7.368zm8.078.144c-.6 0-1.144-.116-1.632-.348-.48-.24-.864-.604-1.152-1.092-.28-.488-.42-1.108-.42-1.86v-5.244h1.272v5.256c0 .736.176 1.276.528 1.62s.828.516 1.428.516c.592 0 1.064-.172 1.416-.516s.528-.884.528-1.62v-5.256h1.272v5.244c0 .752-.148 1.372-.444 1.86-.288.488-.68.852-1.176 1.092-.488.232-1.028.348-1.62.348zm7.644 0c-.616 0-1.156-.108-1.62-.324s-.828-.524-1.092-.924c-.256-.4-.388-.876-.396-1.428h1.344c.008.448.164.828.468 1.14s.732.468 1.284.468c.488 0 .868-.116 1.14-.348.28-.24.42-.544.42-.912 0-.296-.068-.536-.204-.72-.128-.184-.308-.336-.54-.456-.224-.12-.484-.228-.78-.324s-.608-.2-.936-.312c-.648-.216-1.136-.496-1.464-.84-.32-.344-.48-.796-.48-1.356-.008-.472.1-.884.324-1.236.232-.352.552-.624.96-.816.416-.2.9-.3 1.452-.3.544 0 1.02.1 1.428.3.416.2.74.48.972.84.232.352.352.764.36 1.236h-1.344c0-.216-.056-.42-.168-.612-.112-.2-.276-.364-.492-.492s-.48-.192-.792-.192c-.4-.008-.732.092-.996.3-.256.208-.384.496-.384.864 0 .328.096.58.288.756s.456.324.792.444c.336.112.72.244 1.152.396.416.136.788.3 1.116.492s.588.444.78.756c.2.312.3.708.3 1.188 0 .424-.108.82-.324 1.188-.216.36-.54.656-.972.888-.432.224-.964.336-1.596.336z" fill="#707070"/></g><g clip-path="url(#e)"><path d="m563.996 63.144c-.6 0-1.144-.116-1.632-.348-.48-.24-.864-.604-1.152-1.092-.28-.488-.42-1.108-.42-1.86v-5.244h1.272v5.256c0 .736.176 1.276.528 1.62s.828.516 1.428.516c.592 0 1.064-.172 1.416-.516s.528-.884.528-1.62v-5.256h1.272v5.244c0 .752-.148 1.372-.444 1.86-.288.488-.68.852-1.176 1.092-.488.232-1.028.348-1.62.348zm4.872-.144v-8.4h2.94c.656 0 1.2.112 1.632.336.432.216.752.516.96.9.216.376.324.804.324 1.284 0 .456-.104.876-.312 1.26-.2.376-.516.676-.948.9s-.984.336-1.656.336h-1.668v3.384zm1.272-4.428h1.608c.6 0 1.028-.128 1.284-.384.264-.264.396-.62.396-1.068 0-.464-.132-.824-.396-1.08-.256-.264-.684-.396-1.284-.396h-1.608zm5.841 4.428v-8.4h1.272v7.392h3.816v1.008zm9.56.144c-.832 0-1.56-.184-2.184-.552s-1.112-.876-1.464-1.524c-.352-.656-.528-1.412-.528-2.268s.176-1.608.528-2.256c.352-.656.84-1.168 1.464-1.536s1.352-.552 2.184-.552 1.56.184 2.184.552 1.108.88 1.452 1.536c.352.648.528 1.4.528 2.256s-.176 1.612-.528 2.268c-.344.648-.828 1.156-1.452 1.524s-1.352.552-2.184.552zm0-1.14c.576 0 1.076-.128 1.5-.384.432-.256.768-.624 1.008-1.104s.36-1.052.36-1.716-.12-1.236-.36-1.716-.576-.848-1.008-1.104c-.424-.256-.924-.384-1.5-.384s-1.08.128-1.512.384-.768.624-1.008 1.104c-.232.48-.348 1.052-.348 1.716s.116 1.236.348 1.716c.24.48.576.848 1.008 1.104s.936.384 1.512.384zm4.466.996 3.096-8.4h1.392l3.072 8.4h-1.344l-.72-2.052h-3.432l-.72 2.052zm2.424-3.06h2.712l-1.356-3.828zm6.308 3.06v-8.4h2.724c.984 0 1.792.172 2.424.516.64.344 1.112.832 1.416 1.464.312.624.468 1.368.468 2.232 0 .856-.156 1.6-.468 2.232-.304.624-.776 1.108-1.416 1.452-.632.336-1.44.504-2.424.504zm1.272-1.08h1.404c.76 0 1.36-.124 1.8-.372.448-.248.768-.604.96-1.068.2-.464.3-1.02.3-1.668s-.1-1.208-.3-1.68c-.192-.472-.512-.832-.96-1.08-.44-.256-1.04-.384-1.8-.384h-1.404zm7.165 1.08v-8.4h5.34v1.032h-4.068v2.616h3.708v1.008h-3.708v2.712h4.068v1.032zm6.856 0v-8.4h2.724c.984 0 1.792.172 2.424.516.64.344 1.112.832 1.416 1.464.312.624.468 1.368.468 2.232 0 .856-.156 1.6-.468 2.232-.304.624-.776 1.108-1.416 1.452-.632.336-1.44.504-2.424.504zm1.272-1.08h1.404c.76 0 1.36-.124 1.8-.372.448-.248.768-.604.96-1.068.2-.464.3-1.02.3-1.668s-.1-1.208-.3-1.68c-.192-.472-.512-.832-.96-1.08-.44-.256-1.04-.384-1.8-.384h-1.404zm10.189 1.08v-8.4h3.168c.872 0 1.532.204 1.98.612s.672.92.672 1.536c0 .536-.144.964-.432 1.284-.288.312-.636.524-1.044.636.32.064.604.192.852.384.256.192.456.432.6.72s.216.6.216.936c0 .432-.108.824-.324 1.176-.208.344-.516.616-.924.816s-.908.3-1.5.3zm1.272-4.8h1.74c.488 0 .86-.112 1.116-.336.256-.232.384-.548.384-.948 0-.392-.128-.704-.384-.936-.248-.232-.628-.348-1.14-.348h-1.716zm0 3.756h1.824c.512 0 .908-.12 1.188-.36.288-.24.432-.576.432-1.008s-.148-.772-.444-1.02c-.296-.256-.696-.384-1.2-.384h-1.8zm7.907 1.044v-3.096l-2.784-5.304h1.44l1.98 4.056 1.968-4.056h1.428l-2.76 5.304v3.096z" fill="#707070"/></g><g clip-path="url(#f)"><path d="m795.624 63.144c-.616 0-1.156-.108-1.62-.324s-.828-.524-1.092-.924c-.256-.4-.388-.876-.396-1.428h1.344c.008.448.164.828.468 1.14s.732.468 1.284.468c.488 0 .868-.116 1.14-.348.28-.24.42-.544.42-.912 0-.296-.068-.536-.204-.72-.128-.184-.308-.336-.54-.456-.224-.12-.484-.228-.78-.324s-.608-.2-.936-.312c-.648-.216-1.136-.496-1.464-.84-.32-.344-.48-.796-.48-1.356-.008-.472.1-.884.324-1.236.232-.352.552-.624.96-.816.416-.2.9-.3 1.452-.3.544 0 1.02.1 1.428.3.416.2.74.48.972.84.232.352.352.764.36 1.236h-1.344c0-.216-.056-.42-.168-.612-.112-.2-.276-.364-.492-.492s-.48-.192-.792-.192c-.4-.008-.732.092-.996.3-.256.208-.384.496-.384.864 0 .328.096.58.288.756s.456.324.792.444c.336.112.72.244 1.152.396.416.136.788.3 1.116.492s.588.444.78.756c.2.312.3.708.3 1.188 0 .424-.108.82-.324 1.188-.216.36-.54.656-.972.888-.432.224-.964.336-1.596.336zm4.283-.144v-8.4h5.34v1.032h-4.068v2.616h3.708v1.008h-3.708v2.712h4.068v1.032zm9.627.144c-.616 0-1.156-.108-1.62-.324s-.828-.524-1.092-.924c-.256-.4-.388-.876-.396-1.428h1.344c.008.448.164.828.468 1.14s.732.468 1.284.468c.488 0 .868-.116 1.14-.348.28-.24.42-.544.42-.912 0-.296-.068-.536-.204-.72-.128-.184-.308-.336-.54-.456-.224-.12-.484-.228-.78-.324s-.608-.2-.936-.312c-.648-.216-1.136-.496-1.464-.84-.32-.344-.48-.796-.48-1.356-.008-.472.1-.884.324-1.236.232-.352.552-.624.96-.816.416-.2.9-.3 1.452-.3.544 0 1.02.1 1.428.3.416.2.74.48.972.84.232.352.352.764.36 1.236h-1.344c0-.216-.056-.42-.168-.612-.112-.2-.276-.364-.492-.492s-.48-.192-.792-.192c-.4-.008-.732.092-.996.3-.256.208-.384.496-.384.864 0 .328.096.58.288.756s.456.324.792.444c.336.112.72.244 1.152.396.416.136.788.3 1.116.492s.588.444.78.756c.2.312.3.708.3 1.188 0 .424-.108.82-.324 1.188-.216.36-.54.656-.972.888-.432.224-.964.336-1.596.336zm7.055 0c-.616 0-1.156-.108-1.62-.324s-.828-.524-1.092-.924c-.256-.4-.388-.876-.396-1.428h1.344c.008.448.164.828.468 1.14s.732.468 1.284.468c.488 0 .868-.116 1.14-.348.28-.24.42-.544.42-.912 0-.296-.068-.536-.204-.72-.128-.184-.308-.336-.54-.456-.224-.12-.484-.228-.78-.324s-.608-.2-.936-.312c-.648-.216-1.136-.496-1.464-.84-.32-.344-.48-.796-.48-1.356-.008-.472.1-.884.324-1.236.232-.352.552-.624.96-.816.416-.2.9-.3 1.452-.3.544 0 1.02.1 1.428.3.416.2.74.48.972.84.232.352.352.764.36 1.236h-1.344c0-.216-.056-.42-.168-.612-.112-.2-.276-.364-.492-.492s-.48-.192-.792-.192c-.4-.008-.732.092-.996.3-.256.208-.384.496-.384.864 0 .328.096.58.288.756s.456.324.792.444c.336.112.72.244 1.152.396.416.136.788.3 1.116.492s.588.444.78.756c.2.312.3.708.3 1.188 0 .424-.108.82-.324 1.188-.216.36-.54.656-.972.888-.432.224-.964.336-1.596.336zm4.283-.144v-8.4h1.272v8.4zm6.852.144c-.832 0-1.56-.184-2.184-.552s-1.112-.876-1.464-1.524c-.352-.656-.528-1.412-.528-2.268s.176-1.608.528-2.256c.352-.656.84-1.168 1.464-1.536s1.352-.552 2.184-.552 1.56.184 2.184.552 1.108.88 1.452 1.536c.352.648.528 1.4.528 2.256s-.176 1.612-.528 2.268c-.344.648-.828 1.156-1.452 1.524s-1.352.552-2.184.552zm0-1.14c.576 0 1.076-.128 1.5-.384.432-.256.768-.624 1.008-1.104s.36-1.052.36-1.716-.12-1.236-.36-1.716-.576-.848-1.008-1.104c-.424-.256-.924-.384-1.5-.384s-1.08.128-1.512.384-.768.624-1.008 1.104c-.232.48-.348 1.052-.348 1.716s.116 1.236.348 1.716c.24.48.576.848 1.008 1.104s.936.384 1.512.384zm5.581.996v-8.4h1.272l4.212 6.324v-6.324h1.272v8.4h-1.272l-4.212-6.324v6.324zm11.485 0v-8.4h2.724c.984 0 1.792.172 2.424.516.64.344 1.112.832 1.416 1.464.312.624.468 1.368.468 2.232 0 .856-.156 1.6-.468 2.232-.304.624-.776 1.108-1.416 1.452-.632.336-1.44.504-2.424.504zm1.272-1.08h1.403c.761 0 1.361-.124 1.801-.372.448-.248.768-.604.96-1.068.2-.464.3-1.02.3-1.668s-.1-1.208-.3-1.68c-.192-.472-.512-.832-.96-1.08-.44-.256-1.04-.384-1.801-.384h-1.403zm6.051 1.08 3.096-8.4h1.392l3.072 8.4h-1.344l-.72-2.052h-3.432l-.72 2.052zm2.424-3.06h2.712l-1.356-3.828zm7.361 3.06v-7.368h-2.484v-1.032h6.228v1.032h-2.472v7.368zm4.934 0v-8.4h5.34v1.032h-4.068v2.616h3.708v1.008h-3.708v2.712h4.068v1.032z" fill="#707070"/></g><path d="m0 0h1136v88h-1136z" fill="#fff" transform="translate(0 78)"/><path d="m0 79h1136v-2h-1136z" fill="#e2e2e2" mask="url(#q)"/><g clip-path="url(#g)"><path d="m21.11 105v-10.5h3.225c1.85 0 3.21.47 4.08 1.41.88.94 1.32 2.23 1.32 3.87 0 1.61-.44 2.885-1.32 3.825-.87.93-2.23 1.395-4.08 1.395zm1.26-1.05h1.935c1.02 0 1.83-.165 2.43-.495.61-.34 1.045-.82 1.305-1.44.26-.63.39-1.375.39-2.235 0-.88-.13-1.635-.39-2.265s-.695-1.115-1.305-1.455c-.6-.34-1.41-.51-2.43-.51h-1.935zm9.1093 1.05v-7.44h1.14l.105 1.425c.23-.49.58-.88 1.05-1.17s1.05-.435 1.74-.435v1.32h-.345c-.44 0-.845.08-1.215.24-.37.15-.665.41-.885.78s-.33.88-.33 1.53v3.75zm6.2143-9.09c-.25 0-.46-.08-.63-.24-.16-.17-.24-.38-.24-.63 0-.24.08-.44.24-.6.17-.16.38-.24.63-.24.24 0 .445.08.615.24s.255.36.255.6c0 .25-.085.46-.255.63-.17.16-.375.24-.615.24zm-.63 9.09v-7.44h1.26v7.44zm5.5988 0-2.82-7.44h1.32l2.235 6.225 2.25-6.225h1.29l-2.82 7.44zm8.6414.18c-.71 0-1.34-.16-1.89-.48-.55-.33-.985-.785-1.305-1.365-.31-.58-.465-1.265-.465-2.055 0-.78.155-1.46.465-2.04.31-.59.74-1.045 1.29-1.365.56-.33 1.205-.495 1.935-.495.72 0 1.34.165 1.86.495.53.32.935.745 1.215 1.275s.42 1.1.42 1.71c0 .11-.005.22-.015.33v.375h-5.925c.03.57.16 1.045.39 1.425.24.37.535.65.885.84.36.19.74.285 1.14.285.52 0 .955-.12 1.305-.36s.605-.565.765-.975h1.245c-.2.69-.585 1.265-1.155 1.725-.56.45-1.28.675-2.16.675zm0-6.735c-.6 0-1.135.185-1.605.555-.46.36-.725.89-.795 1.59h4.68c-.03-.67-.26-1.195-.69-1.575s-.96-.57-1.59-.57zm5.1951 6.555v-7.44h1.14l.105 1.425c.23-.49.58-.88 1.05-1.17s1.05-.435 1.74-.435v1.32h-.345c-.44 0-.845.08-1.215.24-.37.15-.665.41-.885.78s-.33.88-.33 1.53v3.75zm5.1642-8.37-.195-2.955h1.245l-.18 2.955zm5.4934 8.55c-.89 0-1.63-.225-2.22-.675s-.935-1.06-1.035-1.83h1.29c.08.39.285.73.615 1.02.34.28.795.42 1.365.42.53 0 .92-.11 1.17-.33.25-.23.375-.5.375-.81 0-.45-.165-.75-.495-.9-.32-.15-.775-.285-1.365-.405-.4-.08-.8-.195-1.2-.345s-.735-.36-1.005-.63c-.27-.28-.405-.645-.405-1.095 0-.65.24-1.18.72-1.59.49-.42 1.15-.63 1.98-.63.79 0 1.435.2 1.935.6.51.39.805.95.885 1.68h-1.245c-.05-.38-.215-.675-.495-.885-.27-.22-.635-.33-1.095-.33-.45 0-.8.095-1.05.285-.24.19-.36.44-.36.75 0 .3.155.535.465.705.32.17.75.315 1.29.435.46.1.895.225 1.305.375.42.14.76.355 1.02.645.27.28.405.69.405 1.23.01.67-.245 1.225-.765 1.665-.51.43-1.205.645-2.085.645zm8.6197-.18v-10.8h1.26v10.8zm4.0902-9.09c-.25 0-.46-.08-.63-.24-.16-.17-.24-.38-.24-.63 0-.24.08-.44.24-.6.17-.16.38-.24.63-.24.24 0 .445.08.615.24s.255.36.255.6c0 .25-.085.46-.255.63-.17.16-.375.24-.615.24zm-.63 9.09v-7.44h1.26v7.44zm6.8739.18c-.71 0-1.35-.16-1.92-.48-.56-.33-1.005-.785-1.335-1.365-.32-.59-.48-1.275-.48-2.055s.16-1.46.48-2.04c.33-.59.775-1.045 1.335-1.365.57-.33 1.21-.495 1.92-.495.88 0 1.62.23 2.22.69.61.46.995 1.075 1.155 1.845h-1.29c-.1-.46-.345-.815-.735-1.065-.39-.26-.845-.39-1.365-.39-.42 0-.815.105-1.185.315s-.67.525-.9.945-.345.94-.345 1.56.115 1.14.345 1.56.53.74.9.96c.37.21.765.315 1.185.315.52 0 .975-.125 1.365-.375.39-.26.635-.625.735-1.095h1.29c-.15.75-.53 1.36-1.14 1.83s-1.355.705-2.235.705zm8.4797 0c-.71 0-1.34-.16-1.89-.48-.55-.33-.985-.785-1.305-1.365-.31-.58-.465-1.265-.465-2.055 0-.78.155-1.46.465-2.04.31-.59.74-1.045 1.29-1.365.56-.33 1.205-.495 1.935-.495.72 0 1.34.165 1.86.495.53.32.935.745 1.215 1.275s.42 1.1.42 1.71c0 .11-.005.22-.015.33v.375h-5.925c.03.57.16 1.045.39 1.425.24.37.535.65.885.84.36.19.74.285 1.14.285.52 0 .955-.12 1.305-.36s.605-.565.765-.975h1.245c-.2.69-.585 1.265-1.155 1.725-.56.45-1.28.675-2.16.675zm0-6.735c-.6 0-1.135.185-1.605.555-.46.36-.725.89-.795 1.59h4.68c-.03-.67-.26-1.195-.69-1.575s-.96-.57-1.59-.57zm5.195 6.555v-7.44h1.14l.075 1.335c.24-.47.585-.84 1.035-1.11s.96-.405 1.53-.405c.88 0 1.58.27 2.1.81.53.53.795 1.35.795 2.46v4.35h-1.26v-4.215c0-1.55-.64-2.325-1.92-2.325-.64 0-1.175.235-1.605.705-.42.46-.63 1.12-.63 1.98v3.855zm11.434.18c-.89 0-1.63-.225-2.22-.675s-.935-1.06-1.035-1.83h1.29c.08.39.285.73.615 1.02.34.28.795.42 1.365.42.53 0 .92-.11 1.17-.33.25-.23.375-.5.375-.81 0-.45-.165-.75-.495-.9-.32-.15-.775-.285-1.365-.405-.4-.08-.8-.195-1.2-.345s-.735-.36-1.005-.63c-.27-.28-.405-.645-.405-1.095 0-.65.24-1.18.72-1.59.49-.42 1.15-.63 1.98-.63.79 0 1.435.2 1.935.6.51.39.805.95.885 1.68h-1.245c-.05-.38-.215-.675-.495-.885-.27-.22-.635-.33-1.095-.33-.45 0-.8.095-1.05.285-.24.19-.36.44-.36.75 0 .3.155.535.465.705.32.17.75.315 1.29.435.46.1.895.225 1.305.375.42.14.76.355 1.02.645.27.28.405.69.405 1.23.01.67-.245 1.225-.765 1.665-.51.43-1.205.645-2.085.645zm7.995 0c-.71 0-1.34-.16-1.89-.48-.55-.33-.985-.785-1.305-1.365-.31-.58-.465-1.265-.465-2.055 0-.78.155-1.46.465-2.04.31-.59.74-1.045 1.29-1.365.56-.33 1.205-.495 1.935-.495.72 0 1.34.165 1.86.495.53.32.935.745 1.215 1.275s.42 1.1.42 1.71c0 .11-.005.22-.015.33v.375h-5.925c.03.57.16 1.045.39 1.425.24.37.535.65.885.84.36.19.74.285 1.14.285.52 0 .955-.12 1.305-.36s.605-.565.765-.975h1.245c-.2.69-.585 1.265-1.155 1.725-.56.45-1.28.675-2.16.675zm0-6.735c-.6 0-1.135.185-1.605.555-.46.36-.725.89-.795 1.59h4.68c-.03-.67-.26-1.195-.69-1.575s-.96-.57-1.59-.57zm12.345 6.735c-.72 0-1.355-.13-1.905-.39-.54-.27-.965-.64-1.275-1.11-.3-.48-.45-1.045-.45-1.695 0-.71.205-1.34.615-1.89.42-.56 1.025-1 1.815-1.32-.34-.37-.585-.72-.735-1.05-.15-.34-.225-.705-.225-1.095 0-.67.235-1.22.705-1.65.48-.44 1.135-.66 1.965-.66.54 0 1.01.105 1.41.315.4.2.71.48.93.84s.32.77.3 1.23h-1.245c.01-.45-.13-.79-.42-1.02-.28-.23-.605-.345-.975-.345-.45 0-.8.12-1.05.36s-.375.545-.375.915c0 .32.085.63.255.93.18.3.445.635.795 1.005l3.315 3.345c.29-.42.605-.925.945-1.515l.465-.81h1.335l-.66 1.17c-.44.79-.86 1.45-1.26 1.98l2.265 2.28h-1.59l-1.395-1.41c-.53.57-1.08.98-1.65 1.23-.57.24-1.205.36-1.905.36zm-2.37-3.24c0 .62.22 1.135.66 1.545s1.015.615 1.725.615c.53 0 1.01-.1 1.44-.3.44-.21.87-.55 1.29-1.02l-3.18-3.225c-.66.26-1.15.59-1.47.99-.31.4-.465.865-.465 1.395zm17.566 3.24c-.77 0-1.44-.14-2.01-.42s-1.01-.67-1.32-1.17-.465-1.08-.465-1.74h1.32c0 .41.095.79.285 1.14.19.34.465.615.825.825.37.2.825.3 1.365.3.71 0 1.26-.17 1.65-.51s.585-.765.585-1.275c0-.42-.09-.755-.27-1.005-.18-.26-.425-.47-.735-.63-.3-.16-.65-.3-1.05-.42-.39-.12-.8-.255-1.23-.405-.81-.28-1.41-.625-1.8-1.035-.39-.42-.585-.965-.585-1.635-.01-.56.12-1.055.39-1.485.27-.44.65-.78 1.14-1.02.5-.25 1.09-.375 1.77-.375.67 0 1.25.125 1.74.375.5.25.885.595 1.155 1.035.28.44.425.94.435 1.5h-1.32c0-.29-.075-.575-.225-.855-.15-.29-.38-.525-.69-.705-.3-.18-.68-.27-1.14-.27-.57-.01-1.04.135-1.41.435-.36.3-.54.715-.54 1.245 0 .45.125.795.375 1.035.26.24.62.44 1.08.6.46.15.99.325 1.59.525.5.18.95.39 1.35.63s.71.55.93.93c.23.38.345.865.345 1.455 0 .5-.13.975-.39 1.425-.26.44-.655.8-1.185 1.08-.52.28-1.175.42-1.965.42zm8.597 0c-.71 0-1.34-.16-1.89-.48-.55-.33-.985-.785-1.305-1.365-.31-.58-.465-1.265-.465-2.055 0-.78.155-1.46.465-2.04.31-.59.74-1.045 1.29-1.365.56-.33 1.205-.495 1.935-.495.72 0 1.34.165 1.86.495.53.32.935.745 1.215 1.275s.42 1.1.42 1.71c0 .11-.005.22-.015.33v.375h-5.925c.03.57.16 1.045.39 1.425.24.37.535.65.885.84.36.19.74.285 1.14.285.52 0 .955-.12 1.305-.36s.605-.565.765-.975h1.245c-.2.69-.585 1.265-1.155 1.725-.56.45-1.28.675-2.16.675zm0-6.735c-.6 0-1.135.185-1.605.555-.46.36-.725.89-.795 1.59h4.68c-.03-.67-.26-1.195-.69-1.575s-.96-.57-1.59-.57zm5.195 6.555v-10.8h1.26v10.8zm3.73 0v-6.375h-1.125v-1.065h1.125v-1.29c0-.72.18-1.245.54-1.575s.885-.495 1.575-.495h.75v1.08h-.555c-.38 0-.65.08-.81.24-.16.15-.24.41-.24.78v1.26h1.83v1.065h-1.83v6.375zm5.355-9.09c-.25 0-.46-.08-.63-.24-.16-.17-.24-.38-.24-.63 0-.24.08-.44.24-.6.17-.16.38-.24.63-.24.24 0 .445.08.615.24s.255.36.255.6c0 .25-.085.46-.255.63-.17.16-.375.24-.615.24zm-.63 9.09v-7.44h1.26v7.44zm6.799.18c-.71 0-1.34-.16-1.89-.48-.55-.33-.985-.785-1.305-1.365-.31-.58-.465-1.265-.465-2.055 0-.78.155-1.46.465-2.04.31-.59.74-1.045 1.29-1.365.56-.33 1.205-.495 1.935-.495.72 0 1.34.165 1.86.495.53.32.935.745 1.215 1.275s.42 1.1.42 1.71c0 .11-.005.22-.015.33v.375h-5.925c.03.57.16 1.045.39 1.425.24.37.535.65.885.84.36.19.74.285 1.14.285.52 0 .955-.12 1.305-.36s.605-.565.765-.975h1.245c-.2.69-.585 1.265-1.155 1.725-.56.45-1.28.675-2.16.675zm0-6.735c-.6 0-1.135.185-1.605.555-.46.36-.725.89-.795 1.59h4.68c-.03-.67-.26-1.195-.69-1.575s-.96-.57-1.59-.57z" fill="#000"/></g><g clip-path="url(#h)"><rect fill="#e9f5f1" height="24" rx="12" width="129" x="340" y="88"/><path d="m352.595 104.156c-.65 0-1.239-.126-1.768-.377-.52-.26-.936-.654-1.248-1.183-.303-.529-.455-1.2-.455-2.015v-5.681h1.378v5.694c0 .797.191 1.382.572 1.755s.897.559 1.547.559c.641 0 1.153-.186 1.534-.559s.572-.958.572-1.755v-5.694h1.378v5.681c0 .815-.16 1.486-.481 2.015-.312.529-.737.923-1.274 1.183-.529.251-1.114.377-1.755.377zm5.226 2.704v-9.308h1.235l.143 1.001c.208-.3033.494-.572.858-.806s.832-.351 1.404-.351c.624 0 1.174.1473 1.651.442.476.2947.849.6977 1.118 1.209.277.5113.416 1.092.416 1.742s-.139 1.231-.416 1.742c-.269.503-.642.901-1.118 1.196-.477.286-1.032.429-1.664.429-.503 0-.949-.1-1.339-.299-.382-.199-.685-.481-.91-.845v3.848zm3.393-3.9c.589 0 1.074-.199 1.456-.598.381-.407.572-.936.572-1.586 0-.425-.087-.8017-.26-1.131-.174-.3293-.412-.585-.715-.767-.304-.1907-.655-.286-1.053-.286-.59 0-1.075.2037-1.456.611-.373.4073-.559.932-.559 1.573 0 .65.186 1.179.559 1.586.381.399.866.598 1.456.598zm4.922 1.04v-9.36h1.378v9.36zm6.139.156c-.615 0-1.17-.139-1.664-.416-.485-.286-.871-.68-1.157-1.183-.286-.511-.429-1.105-.429-1.781s.143-1.2653.429-1.768c.295-.5113.689-.9057 1.183-1.183.494-.286 1.045-.429 1.651-.429.616 0 1.166.143 1.651.429.494.2773.884.6717 1.17 1.183.295.5027.442 1.092.442 1.768s-.147 1.27-.442 1.781c-.286.503-.676.897-1.17 1.183-.494.277-1.048.416-1.664.416zm0-1.183c.33 0 .633-.082.91-.247.286-.165.516-.407.689-.728.174-.329.26-.737.26-1.222s-.086-.8883-.26-1.209c-.164-.3293-.39-.5763-.676-.741-.277-.1647-.58-.247-.91-.247-.329 0-.637.0823-.923.247-.277.1647-.502.4117-.676.741-.173.3207-.26.724-.26 1.209s.087.893.26 1.222c.174.321.399.563.676.728.278.165.581.247.91.247zm6.95 1.183c-.546 0-.996-.091-1.352-.273-.355-.182-.619-.42-.793-.715-.173-.303-.26-.633-.26-.988 0-.624.243-1.118.728-1.482.486-.364 1.179-.546 2.08-.546h1.69v-.117c0-.5027-.138-.8797-.416-1.131-.268-.2513-.619-.377-1.053-.377-.381 0-.715.0953-1.001.286-.277.182-.446.455-.507.819h-1.378c.044-.468.2-.8667.468-1.196.278-.338.624-.5937 1.04-.767.425-.182.889-.273 1.391-.273.902 0 1.599.2383 2.093.715.494.468.741 1.1093.741 1.924v3.965h-1.196l-.117-1.105c-.182.355-.446.654-.793.897-.346.243-.801.364-1.365.364zm.273-1.118c.373 0 .685-.087.936-.26.26-.182.46-.42.598-.715.148-.295.239-.62.273-.975h-1.534c-.546 0-.936.095-1.17.286-.225.191-.338.429-.338.715 0 .295.109.529.325.702.226.165.529.247.91.247zm7.743 1.118c-.624 0-1.174-.147-1.651-.442s-.849-.698-1.118-1.209-.403-1.092-.403-1.742.134-1.2263.403-1.729c.269-.5113.641-.91 1.118-1.196.485-.2947 1.04-.442 1.664-.442.511 0 .958.0997 1.339.299.39.1993.693.481.91.845v-3.9h1.378v9.36h-1.235l-.143-1.001c-.208.303-.494.572-.858.806s-.832.351-1.404.351zm.247-1.196c.589 0 1.07-.204 1.443-.611.381-.407.572-.932.572-1.573 0-.65-.191-1.1743-.572-1.573-.373-.4073-.854-.611-1.443-.611s-1.075.2037-1.456.611c-.381.3987-.572.923-.572 1.573 0 .425.087.802.26 1.131s.412.589.715.78c.312.182.663.273 1.053.273zm10.98 1.196c-.815 0-1.486-.199-2.015-.598s-.832-.927-.91-1.586h1.391c.069.295.234.55.494.767.26.208.602.312 1.027.312.416 0 .719-.087.91-.26s.286-.373.286-.598c0-.329-.134-.55-.403-.663-.26-.121-.624-.23-1.092-.325-.364-.078-.728-.182-1.092-.312-.355-.13-.654-.312-.897-.546-.234-.243-.351-.5677-.351-.975 0-.5633.217-1.0313.65-1.404.433-.3813 1.04-.572 1.82-.572.719 0 1.3.1733 1.742.52.451.3467.715.8363.793 1.469h-1.326c-.043-.2773-.173-.494-.39-.65-.208-.156-.49-.234-.845-.234-.347 0-.615.0737-.806.221-.191.1387-.286.3207-.286.546s.13.403.39.533c.269.13.62.247 1.053.351.433.095.832.208 1.196.338.373.121.672.303.897.546s.338.598.338 1.066c.009.589-.221 1.079-.689 1.469-.459.39-1.088.585-1.885.585zm6.457 0c-.78 0-1.395-.243-1.846-.728-.442-.485-.663-1.209-.663-2.171v-3.705h1.378v3.562c0 1.248.512 1.872 1.534 1.872.512 0 .932-.182 1.261-.546.33-.364.494-.884.494-1.56v-3.328h1.378v6.448h-1.222l-.104-1.131c-.199.399-.494.715-.884.949-.381.225-.823.338-1.326.338zm8.344 0c-.632 0-1.2-.143-1.703-.429-.494-.286-.884-.68-1.17-1.183-.277-.511-.416-1.101-.416-1.768s.139-1.2523.416-1.755c.286-.5113.676-.91 1.17-1.196.503-.286 1.071-.429 1.703-.429.798 0 1.465.208 2.002.624.546.416.897.9793 1.053 1.69h-1.443c-.086-.3553-.277-.6327-.572-.832-.294-.1993-.641-.299-1.04-.299-.338 0-.65.0867-.936.26-.286.1647-.515.4117-.689.741-.173.3207-.26.719-.26 1.196s.087.88.26 1.209c.174.321.403.568.689.741s.598.26.936.26c.399 0 .746-.1 1.04-.299.295-.199.486-.481.572-.845h1.443c-.147.693-.494 1.252-1.04 1.677s-1.217.637-2.015.637zm7.605 0c-.633 0-1.201-.143-1.703-.429-.494-.286-.884-.68-1.17-1.183-.278-.511-.416-1.101-.416-1.768s.138-1.2523.416-1.755c.286-.5113.676-.91 1.17-1.196.502-.286 1.07-.429 1.703-.429.797 0 1.464.208 2.002.624.546.416.897.9793 1.053 1.69h-1.443c-.087-.3553-.278-.6327-.572-.832-.295-.1993-.642-.299-1.04-.299-.338 0-.65.0867-.936.26-.286.1647-.516.4117-.689.741-.174.3207-.26.719-.26 1.196s.086.88.26 1.209c.173.321.403.568.689.741s.598.26.936.26c.398 0 .745-.1 1.04-.299.294-.199.485-.481.572-.845h1.443c-.148.693-.494 1.252-1.04 1.677s-1.218.637-2.015.637zm7.565 0c-.632 0-1.196-.139-1.69-.416-.485-.286-.866-.68-1.144-1.183-.277-.503-.416-1.088-.416-1.755 0-.676.135-1.2697.403-1.781.278-.5113.659-.91 1.144-1.196.494-.286 1.066-.429 1.716-.429.633 0 1.183.143 1.651.429.468.2773.832.65 1.092 1.118s.39.9837.39 1.547c0 .087-.004.182-.013.286 0 .095-.004.204-.013.325h-5.018c.044.624.247 1.101.611 1.43.373.321.802.481 1.287.481.39 0 .715-.087.975-.26.269-.182.468-.425.598-.728h1.378c-.173.607-.52 1.114-1.04 1.521-.511.407-1.148.611-1.911.611zm0-5.629c-.459 0-.866.1387-1.222.416-.355.2687-.572.676-.65 1.222h3.64c-.026-.5027-.203-.9013-.533-1.196-.329-.2947-.741-.442-1.235-.442zm7.15 5.629c-.815 0-1.486-.199-2.015-.598s-.832-.927-.91-1.586h1.391c.069.295.234.55.494.767.26.208.602.312 1.027.312.416 0 .719-.087.91-.26s.286-.373.286-.598c0-.329-.134-.55-.403-.663-.26-.121-.624-.23-1.092-.325-.364-.078-.728-.182-1.092-.312-.355-.13-.654-.312-.897-.546-.234-.243-.351-.5677-.351-.975 0-.5633.217-1.0313.65-1.404.433-.3813 1.04-.572 1.82-.572.719 0 1.3.1733 1.742.52.451.3467.715.8363.793 1.469h-1.326c-.043-.2773-.173-.494-.39-.65-.208-.156-.49-.234-.845-.234-.347 0-.615.0737-.806.221-.191.1387-.286.3207-.286.546s.13.403.39.533c.269.13.62.247 1.053.351.433.095.832.208 1.196.338.373.121.672.303.897.546s.338.598.338 1.066c.009.589-.221 1.079-.689 1.469-.459.39-1.088.585-1.885.585zm6.652 0c-.814 0-1.486-.199-2.015-.598-.528-.399-.832-.927-.91-1.586h1.391c.07.295.234.55.494.767.26.208.603.312 1.027.312.416 0 .72-.087.91-.26.191-.173.286-.373.286-.598 0-.329-.134-.55-.403-.663-.26-.121-.624-.23-1.092-.325-.364-.078-.728-.182-1.092-.312-.355-.13-.654-.312-.897-.546-.234-.243-.351-.5677-.351-.975 0-.5633.217-1.0313.65-1.404.434-.3813 1.04-.572 1.82-.572.72 0 1.3.1733 1.742.52.451.3467.715.8363.793 1.469h-1.326c-.043-.2773-.173-.494-.39-.65-.208-.156-.489-.234-.845-.234-.346 0-.615.0737-.806.221-.19.1387-.286.3207-.286.546s.13.403.39.533c.269.13.62.247 1.053.351.434.095.832.208 1.196.338.373.121.672.303.897.546.226.243.338.598.338 1.066.009.589-.221 1.079-.689 1.469-.459.39-1.087.585-1.885.585zm4.404-.156v-5.291h-.923v-1.157h.923v-.936c0-.702.173-1.2047.52-1.508.355-.312.853-.468 1.495-.468h.676v1.17h-.468c-.304 0-.52.065-.65.195-.13.1213-.195.3293-.195.624v.923h1.482v1.157h-1.482v5.291zm6.548.156c-.78 0-1.395-.243-1.846-.728-.442-.485-.663-1.209-.663-2.171v-3.705h1.378v3.562c0 1.248.511 1.872 1.534 1.872.511 0 .932-.182 1.261-.546s.494-.884.494-1.56v-3.328h1.378v6.448h-1.222l-.104-1.131c-.199.399-.494.715-.884.949-.381.225-.823.338-1.326.338zm5.289-.156v-9.36h1.378v9.36z" fill="#0a6a4a"/></g><g clip-path="url(#i)"><path d="m564.905 105.18c-.72 0-1.375-.14-1.965-.42-.58-.29-1.045-.735-1.395-1.335s-.525-1.365-.525-2.295v-6.63h1.26v6.645c0 1.02.245 1.76.735 2.22s1.13.69 1.92.69 1.425-.23 1.905-.69.72-1.2.72-2.22v-6.645h1.26v6.63c0 .93-.175 1.695-.525 2.295s-.82 1.045-1.41 1.335c-.59.28-1.25.42-1.98.42zm8.824 0c-.89 0-1.63-.225-2.22-.675s-.935-1.06-1.035-1.83h1.29c.08.39.285.73.615 1.02.34.28.795.42 1.365.42.53 0 .92-.11 1.17-.33.25-.23.375-.5.375-.81 0-.45-.165-.75-.495-.9-.32-.15-.775-.285-1.365-.405-.4-.08-.8-.195-1.2-.345s-.735-.36-1.005-.63c-.27-.28-.405-.645-.405-1.095 0-.65.24-1.18.72-1.59.49-.42 1.15-.63 1.98-.63.79 0 1.435.2 1.935.6.51.39.805.95.885 1.68h-1.245c-.05-.38-.215-.675-.495-.885-.27-.22-.635-.33-1.095-.33-.45 0-.8.095-1.05.285-.24.19-.36.44-.36.75 0 .3.155.535.465.705.32.17.75.315 1.29.435.46.1.895.225 1.305.375.42.14.76.355 1.02.645.27.28.405.69.405 1.23.01.67-.245 1.225-.765 1.665-.51.43-1.205.645-2.085.645zm7.995 0c-.71 0-1.34-.16-1.89-.48-.55-.33-.985-.785-1.305-1.365-.31-.58-.465-1.265-.465-2.055 0-.78.155-1.46.465-2.04.31-.59.74-1.045 1.29-1.365.56-.33 1.205-.495 1.935-.495.72 0 1.34.165 1.86.495.53.32.935.745 1.215 1.275s.42 1.1.42 1.71c0 .11-.005.22-.015.33v.375h-5.925c.03.57.16 1.045.39 1.425.24.37.535.65.885.84.36.19.74.285 1.14.285.52 0 .955-.12 1.305-.36s.605-.565.765-.975h1.245c-.2.69-.585 1.265-1.155 1.725-.56.45-1.28.675-2.16.675zm0-6.735c-.6 0-1.135.185-1.605.555-.46.36-.725.89-.795 1.59h4.68c-.03-.67-.26-1.195-.69-1.575s-.96-.57-1.59-.57zm5.195 6.555v-7.44h1.14l.105 1.425c.23-.49.58-.88 1.05-1.17s1.05-.435 1.74-.435v1.32h-.345c-.44 0-.845.08-1.215.24-.37.15-.665.41-.885.78s-.33.88-.33 1.53v3.75z" fill="#000"/></g><g clip-path="url(#j)"><path d="m797.205 105.18c-.93 0-1.735-.225-2.415-.675-.67-.46-1.185-1.095-1.545-1.905-.36-.82-.54-1.77-.54-2.85s.18-2.025.54-2.835c.36-.82.875-1.455 1.545-1.905.68-.46 1.485-.69 2.415-.69s1.73.23 2.4.69c.67.45 1.185 1.085 1.545 1.905.36.81.54 1.755.54 2.835s-.18 2.03-.54 2.85c-.36.81-.875 1.445-1.545 1.905-.67.45-1.47.675-2.4.675zm0-1.11c.61 0 1.155-.17 1.635-.51.49-.35.87-.845 1.14-1.485.28-.65.42-1.425.42-2.325s-.14-1.67-.42-2.31c-.27-.64-.65-1.13-1.14-1.47-.48-.35-1.025-.525-1.635-.525-.62 0-1.17.175-1.65.525-.48.34-.86.83-1.14 1.47s-.42 1.41-.42 2.31.14 1.675.42 2.325c.28.64.66 1.135 1.14 1.485.48.34 1.03.51 1.65.51zm9.875 1.11c-.72 0-1.345-.13-1.875-.39s-.955-.615-1.275-1.065c-.31-.46-.5-.98-.57-1.56h1.23c.12.58.4 1.05.84 1.41.44.35.995.525 1.665.525.5 0 .93-.115 1.29-.345.36-.24.635-.56.825-.96.2-.4.3-.845.3-1.335 0-.78-.22-1.41-.66-1.89s-1.01-.72-1.71-.72c-.58 0-1.075.13-1.485.39s-.71.6-.9 1.02h-1.2l.9-5.76h5.505v1.095h-4.53l-.615 3.195c.24-.29.57-.53.99-.72.43-.19.92-.285 1.47-.285.69 0 1.29.16 1.8.48.52.32.925.755 1.215 1.305s.435 1.175.435 1.875c0 .67-.145 1.29-.435 1.86-.28.57-.695 1.025-1.245 1.365-.54.34-1.195.51-1.965.51zm4.471 1.245 3.765-12.885h1.245l-3.765 12.885zm10.351-1.245c-.93 0-1.735-.225-2.415-.675-.67-.46-1.185-1.095-1.545-1.905-.36-.82-.54-1.77-.54-2.85s.18-2.025.54-2.835c.36-.82.875-1.455 1.545-1.905.68-.46 1.485-.69 2.415-.69s1.73.23 2.4.69c.67.45 1.185 1.085 1.545 1.905.36.81.54 1.755.54 2.835s-.18 2.03-.54 2.85c-.36.81-.875 1.445-1.545 1.905-.67.45-1.47.675-2.4.675zm0-1.11c.61 0 1.155-.17 1.635-.51.49-.35.87-.845 1.14-1.485.28-.65.42-1.425.42-2.325s-.14-1.67-.42-2.31c-.27-.64-.65-1.13-1.14-1.47-.48-.35-1.025-.525-1.635-.525-.62 0-1.17.175-1.65.525-.48.34-.86.83-1.14 1.47s-.42 1.41-.42 2.31.14 1.675.42 2.325c.28.64.66 1.135 1.14 1.485.48.34 1.03.51 1.65.51zm9.576 1.11c-.67 0-1.275-.12-1.815-.36-.54-.25-.975-.62-1.305-1.11-.32-.49-.49-1.1-.51-1.83h1.275c.01.6.22 1.12.63 1.56.41.43.985.645 1.725.645s1.295-.205 1.665-.615c.38-.41.57-.905.57-1.485 0-.49-.12-.89-.36-1.2-.23-.31-.545-.54-.945-.69-.39-.15-.82-.225-1.29-.225h-.78v-1.065h.78c.68 0 1.21-.155 1.59-.465.39-.31.585-.745.585-1.305 0-.47-.155-.855-.465-1.155-.3-.31-.75-.465-1.35-.465-.58 0-1.045.175-1.395.525-.35.34-.545.77-.585 1.29h-1.275c.03-.57.18-1.075.45-1.515.28-.44.66-.78 1.14-1.02.48-.25 1.035-.375 1.665-.375.68 0 1.245.12 1.695.36.46.24.805.56 1.035.96.24.4.36.84.36 1.32 0 .53-.145 1.015-.435 1.455-.29.43-.725.72-1.305.87.62.13 1.135.425 1.545.885s.615 1.065.615 1.815c0 .58-.135 1.115-.405 1.605-.26.48-.65.865-1.17 1.155s-1.165.435-1.935.435zm4.155 1.245 3.765-12.885h1.245l-3.765 12.885zm6.384-1.425v-.885c.71-.56 1.38-1.125 2.01-1.695.64-.58 1.205-1.15 1.695-1.71.5-.56.89-1.11 1.17-1.65.29-.54.435-1.06.435-1.56 0-.37-.065-.715-.195-1.035-.12-.32-.32-.575-.6-.765-.28-.2-.66-.3-1.14-.3-.46 0-.845.105-1.155.315-.31.2-.545.47-.705.81-.15.34-.225.705-.225 1.095h-1.215c0-.69.145-1.28.435-1.77.29-.5.685-.88 1.185-1.14s1.065-.39 1.695-.39c.93 0 1.69.265 2.28.795.6.52.9 1.3.9 2.34 0 .62-.155 1.235-.465 1.845-.31.6-.705 1.185-1.185 1.755-.48.56-.995 1.085-1.545 1.575-.54.49-1.045.93-1.515 1.32h5.07v1.05zm8.584 0v-.885c.71-.56 1.38-1.125 2.01-1.695.64-.58 1.205-1.15 1.695-1.71.5-.56.89-1.11 1.17-1.65.29-.54.435-1.06.435-1.56 0-.37-.065-.715-.195-1.035-.12-.32-.32-.575-.6-.765-.28-.2-.66-.3-1.14-.3-.46 0-.845.105-1.155.315-.31.2-.545.47-.705.81-.15.34-.225.705-.225 1.095h-1.215c0-.69.145-1.28.435-1.77.29-.5.685-.88 1.185-1.14s1.065-.39 1.695-.39c.93 0 1.69.265 2.28.795.6.52.9 1.3.9 2.34 0 .62-.155 1.235-.465 1.845-.31.6-.705 1.185-1.185 1.755-.48.56-.995 1.085-1.545 1.575-.54.49-1.045.93-1.515 1.32h5.07v1.05zm7.669 1.785.87-3.315h1.305l-1.305 3.315zm8.751-1.785v-9.09l-1.695.375v-.87l2.115-.915h.855v10.5zm4.526 0v-9.09l-1.695.375v-.87l2.115-.915h.855v10.5zm3.852.075c-.25 0-.46-.08-.63-.24-.16-.17-.24-.375-.24-.615s.08-.44.24-.6c.17-.17.38-.255.63-.255.24 0 .44.085.6.255.17.16.255.36.255.6s-.085.445-.255.615c-.16.16-.36.24-.6.24zm0-5.985c-.25 0-.46-.08-.63-.24-.16-.17-.24-.375-.24-.615s.08-.44.24-.6c.17-.17.38-.255.63-.255.24 0 .44.085.6.255.17.16.255.36.255.6s-.085.445-.255.615c-.16.16-.36.24-.6.24zm2.463 5.91v-.885c.71-.56 1.38-1.125 2.01-1.695.64-.58 1.205-1.15 1.695-1.71.5-.56.89-1.11 1.17-1.65.29-.54.435-1.06.435-1.56 0-.37-.065-.715-.195-1.035-.12-.32-.32-.575-.6-.765-.28-.2-.66-.3-1.14-.3-.46 0-.845.105-1.155.315-.31.2-.545.47-.705.81-.15.34-.225.705-.225 1.095h-1.215c0-.69.145-1.28.435-1.77.29-.5.685-.88 1.185-1.14s1.065-.39 1.695-.39c.93 0 1.69.265 2.28.795.6.52.9 1.3.9 2.34 0 .62-.155 1.235-.465 1.845-.31.6-.705 1.185-1.185 1.755-.48.56-.995 1.085-1.545 1.575-.54.49-1.045.93-1.515 1.32h5.07v1.05zm13.255 0v-2.25h-5.325v-.975l5.1-7.275h1.47v7.14h1.56v1.11h-1.56v2.25zm-3.93-3.36h3.99v-5.745zm10.657 3.54c-.62 0-1.135-.105-1.545-.315s-.715-.49-.915-.84-.3-.73-.3-1.14c0-.76.29-1.345.87-1.755s1.37-.615 2.37-.615h2.01v-.09c0-.65-.17-1.14-.51-1.47-.34-.34-.795-.51-1.365-.51-.49 0-.915.125-1.275.375-.35.24-.57.595-.66 1.065h-1.29c.05-.54.23-.995.54-1.365.32-.37.715-.65 1.185-.84.47-.2.97-.3 1.5-.3 1.04 0 1.82.28 2.34.84.53.55.795 1.285.795 2.205v4.575h-1.125l-.075-1.335c-.21.42-.52.78-.93 1.08-.4.29-.94.435-1.62.435zm.195-1.065c.48 0 .89-.125 1.23-.375.35-.25.615-.575.795-.975s.27-.82.27-1.26v-.015h-1.905c-.74 0-1.265.13-1.575.39-.3.25-.45.565-.45.945 0 .39.14.705.42.945.29.23.695.345 1.215.345zm5.445.885v-7.44h1.14l.09 1.08c.24-.4.56-.71.96-.93s.85-.33 1.35-.33c.59 0 1.095.12 1.515.36.43.24.76.605.99 1.095.26-.45.615-.805 1.065-1.065.46-.26.955-.39 1.485-.39.89 0 1.6.27 2.13.81.53.53.795 1.35.795 2.46v4.35h-1.245v-4.215c0-.77-.155-1.35-.465-1.74s-.755-.585-1.335-.585c-.6 0-1.1.235-1.5.705-.39.46-.585 1.12-.585 1.98v3.855h-1.26v-4.215c0-.77-.155-1.35-.465-1.74s-.755-.585-1.335-.585c-.59 0-1.085.235-1.485.705-.39.46-.585 1.12-.585 1.98v3.855z" fill="#000"/></g><path clip-rule="evenodd" d="m1048.43 94.7472c.44-.4546 1.21-.8972 2.57-.8972s2.13.4426 2.57.8972c.37.3822.57.8944.66 1.5413.09.5642.08 1.163.08 1.8037v.0224h-6.62c0-.0075 0-.0149 0-.0224-.01-.6407-.01-1.2395.07-1.8037.1-.6469.3-1.1591.67-1.5413zm-2.14 3.3674c-.01-.6344-.01-1.3525.09-2.0291.12-.8067.39-1.6435 1.05-2.3161.73-.7486 1.86-1.3194 3.57-1.3194 1.7 0 2.84.5708 3.57 1.3194.66.6726.93 1.5094 1.05 2.3161.1.6766.1 1.3947.09 2.0291h.25c.9 0 1.64.7361 1.64 1.6441v5.1923c0 1.43-1.16 2.588-2.59 2.588h-8.02c-1.43 0-2.59-1.158-2.59-2.588v-5.1923c0-.908.73-1.6441 1.64-1.6441zm-.49 1.6441c0-.1348.11-.2441.24-.2441h9.92c.13 0 .24.1093.24.2441v5.1923c0 .656-.53 1.188-1.19 1.188h-8.02c-.66 0-1.19-.532-1.19-1.188z" fill="#000" fill-rule="evenodd"/><path d="m1069.67 101.805c-.32 0-.62-.08-.9-.24-.27-.16-.48-.375-.64-.645-.16-.28-.24-.585-.24-.915 0-.34.08-.645.24-.915.16-.28.37-.5.64-.66.28-.16.58-.24.9-.24.34 0 .65.08.92.24.28.16.5.38.66.66.16.27.24.575.24.915 0 .33-.08.635-.24.915-.16.27-.38.485-.66.645-.27.16-.58.24-.92.24zm5.38 0c-.32 0-.62-.08-.9-.24-.27-.16-.49-.375-.65-.645-.16-.28-.24-.585-.24-.915 0-.34.08-.645.24-.915.16-.28.38-.5.65-.66.28-.16.58-.24.9-.24.34 0 .64.08.91.24.28.16.5.38.66.66.16.27.24.575.24.915 0 .33-.08.635-.24.915-.16.27-.38.485-.66.645-.27.16-.57.24-.91.24zm5.37 0c-.32 0-.62-.08-.9-.24-.27-.16-.48-.375-.64-.645-.16-.28-.24-.585-.24-.915 0-.34.08-.645.24-.915.16-.28.37-.5.64-.66.28-.16.58-.24.9-.24.34 0 .65.08.92.24.28.16.5.38.66.66.16.27.24.575.24.915 0 .33-.08.635-.24.915-.16.27-.38.485-.66.645-.27.16-.58.24-.92.24zm5.38 0c-.32 0-.62-.08-.9-.24-.27-.16-.49-.375-.65-.645-.16-.28-.24-.585-.24-.915 0-.34.08-.645.24-.915.16-.28.38-.5.65-.66.28-.16.58-.24.9-.24.34 0 .64.08.91.24.28.16.5.38.66.66.16.27.24.575.24.915 0 .33-.08.635-.24.915-.16.27-.38.485-.66.645-.27.16-.57.24-.91.24zm5.37 0c-.32 0-.62-.08-.9-.24-.27-.16-.48-.375-.64-.645-.16-.28-.24-.585-.24-.915 0-.34.08-.645.24-.915.16-.28.37-.5.64-.66.28-.16.58-.24.9-.24.34 0 .65.08.92.24.28.16.5.38.66.66.16.27.24.575.24.915 0 .33-.08.635-.24.915-.16.27-.38.485-.66.645-.27.16-.58.24-.92.24zm5.38 0c-.32 0-.62-.08-.9-.24-.27-.16-.49-.375-.65-.645-.16-.28-.24-.585-.24-.915 0-.34.08-.645.24-.915.16-.28.38-.5.65-.66.28-.16.58-.24.9-.24.34 0 .64.08.91.24.28.16.5.38.66.66.16.27.24.575.24.915 0 .33-.08.635-.24.915-.16.27-.38.485-.66.645-.27.16-.57.24-.91.24zm5.38 0c-.32 0-.62-.08-.9-.24-.27-.16-.49-.375-.65-.645-.16-.28-.24-.585-.24-.915 0-.34.08-.645.24-.915.16-.28.38-.5.65-.66.28-.16.58-.24.9-.24.34 0 .64.08.91.24.28.16.5.38.66.66.16.27.24.575.24.915 0 .33-.08.635-.24.915-.16.27-.38.485-.66.645-.27.16-.57.24-.91.24zm5.37 0c-.32 0-.62-.08-.9-.24-.27-.16-.48-.375-.64-.645-.16-.28-.24-.585-.24-.915 0-.34.08-.645.24-.915.16-.28.37-.5.64-.66.28-.16.58-.24.9-.24.34 0 .65.08.92.24.28.16.5.38.66.66.16.27.24.575.24.915 0 .33-.08.635-.24.915-.16.27-.38.485-.66.645-.27.16-.58.24-.92.24zm5.38 0c-.32 0-.62-.08-.9-.24-.27-.16-.49-.375-.65-.645-.16-.28-.24-.585-.24-.915 0-.34.08-.645.24-.915.16-.28.38-.5.65-.66.28-.16.58-.24.9-.24.34 0 .64.08.91.24.28.16.5.38.66.66.16.27.24.575.24.915 0 .33-.08.635-.24.915-.16.27-.38.485-.66.645-.27.16-.57.24-.91.24z" fill="#000"/><path d="m0 123h1136v-2h-1136z" fill="#e2e2e2" mask="url(#r)"/><g clip-path="url(#k)"><path d="m24.41 149.18c-.74 0-1.39-.17-1.95-.51-.55-.34-.98-.805-1.29-1.395-.3-.59-.45-1.26-.45-2.01s.155-1.415.465-1.995c.31-.59.74-1.05 1.29-1.38.55-.34 1.2-.51 1.95-.51.61 0 1.15.125 1.62.375s.835.6 1.095 1.05v-4.605h1.26v10.8h-1.14l-.12-1.23c-.24.36-.585.685-1.035.975s-1.015.435-1.695.435zm.135-1.095c.5 0 .94-.115 1.32-.345.39-.24.69-.57.9-.99.22-.42.33-.91.33-1.47s-.11-1.05-.33-1.47c-.21-.42-.51-.745-.9-.975-.38-.24-.82-.36-1.32-.36-.49 0-.93.12-1.32.36-.38.23-.68.555-.9.975-.21.42-.315.91-.315 1.47s.105 1.05.315 1.47c.22.42.52.75.9.99.39.23.83.345 1.32.345zm9.2989 1.095c-.7 0-1.33-.16-1.89-.48s-1.005-.77-1.335-1.35c-.32-.59-.48-1.28-.48-2.07s.165-1.475.495-2.055c.33-.59.775-1.045 1.335-1.365.57-.32 1.205-.48 1.905-.48s1.33.16 1.89.48 1 .775 1.32 1.365c.33.58.495 1.265.495 2.055s-.165 1.48-.495 2.07c-.33.58-.78 1.03-1.35 1.35-.56.32-1.19.48-1.89.48zm0-1.08c.43 0 .83-.105 1.2-.315s.67-.525.9-.945.345-.94.345-1.56-.115-1.14-.345-1.56c-.22-.42-.515-.735-.885-.945s-.765-.315-1.185-.315c-.43 0-.83.105-1.2.315s-.67.525-.9.945-.345.94-.345 1.56.115 1.14.345 1.56.525.735.885.945c.37.21.765.315 1.185.315zm8.907 1.08c-.71 0-1.35-.16-1.92-.48-.56-.33-1.005-.785-1.335-1.365-.32-.59-.48-1.275-.48-2.055s.16-1.46.48-2.04c.33-.59.775-1.045 1.335-1.365.57-.33 1.21-.495 1.92-.495.88 0 1.62.23 2.22.69.61.46.995 1.075 1.155 1.845h-1.29c-.1-.46-.345-.815-.735-1.065-.39-.26-.845-.39-1.365-.39-.42 0-.815.105-1.185.315s-.67.525-.9.945-.345.94-.345 1.56.115 1.14.345 1.56.53.74.9.96c.37.21.765.315 1.185.315.52 0 .975-.125 1.365-.375.39-.26.635-.625.735-1.095h1.29c-.15.75-.53 1.36-1.14 1.83s-1.355.705-2.235.705zm7.8497 0c-.88 0-1.58-.265-2.1-.795-.52-.54-.78-1.365-.78-2.475v-4.35h1.26v4.215c0 1.55.635 2.325 1.905 2.325.65 0 1.185-.23 1.605-.69.43-.47.645-1.135.645-1.995v-3.855h1.26v7.44h-1.14l-.09-1.335c-.23.47-.575.84-1.035 1.11-.45.27-.96.405-1.53.405zm5.869-.18v-7.44h1.14l.09 1.08c.24-.4.56-.71.96-.93s.85-.33 1.35-.33c.59 0 1.095.12 1.515.36.43.24.76.605.99 1.095.26-.45.615-.805 1.065-1.065.46-.26.955-.39 1.485-.39.89 0 1.6.27 2.13.81.53.53.795 1.35.795 2.46v4.35h-1.245v-4.215c0-.77-.155-1.35-.465-1.74s-.755-.585-1.335-.585c-.6 0-1.1.235-1.5.705-.39.46-.585 1.12-.585 1.98v3.855h-1.26v-4.215c0-.77-.155-1.35-.465-1.74s-.755-.585-1.335-.585c-.59 0-1.085.235-1.485.705-.39.46-.585 1.12-.585 1.98v3.855zm16.7629.18c-.71 0-1.34-.16-1.89-.48-.55-.33-.985-.785-1.305-1.365-.31-.58-.465-1.265-.465-2.055 0-.78.155-1.46.465-2.04.31-.59.74-1.045 1.29-1.365.56-.33 1.205-.495 1.935-.495.72 0 1.34.165 1.86.495.53.32.935.745 1.215 1.275s.42 1.1.42 1.71c0 .11-.005.22-.015.33v.375h-5.925c.03.57.16 1.045.39 1.425.24.37.535.65.885.84.36.19.74.285 1.14.285.52 0 .955-.12 1.305-.36s.605-.565.765-.975h1.245c-.2.69-.585 1.265-1.155 1.725-.56.45-1.28.675-2.16.675zm0-6.735c-.6 0-1.135.185-1.605.555-.46.36-.725.89-.795 1.59h4.68c-.03-.67-.26-1.195-.69-1.575s-.96-.57-1.59-.57zm5.1951 6.555v-7.44h1.14l.075 1.335c.24-.47.585-.84 1.035-1.11s.96-.405 1.53-.405c.88 0 1.58.27 2.1.81.53.53.795 1.35.795 2.46v4.35h-1.26v-4.215c0-1.55-.64-2.325-1.92-2.325-.64 0-1.175.235-1.605.705-.42.46-.63 1.12-.63 1.98v3.855zm11.524 0c-.68 0-1.215-.165-1.605-.495s-.585-.925-.585-1.785v-4.095h-1.29v-1.065h1.29l.165-1.785h1.095v1.785h2.19v1.065h-2.19v4.095c0 .47.095.79.285.96.19.16.525.24 1.005.24h.78v1.08zm3.2957.075c-.25 0-.46-.08-.63-.24-.16-.17-.24-.375-.24-.615s.08-.44.24-.6c.17-.17.38-.255.63-.255.24 0 .44.085.6.255.17.16.255.36.255.6s-.085.445-.255.615c-.16.16-.36.24-.6.24zm5.9147.105c-.71 0-1.35-.16-1.92-.48-.56-.33-1.005-.785-1.335-1.365-.32-.59-.48-1.275-.48-2.055s.16-1.46.48-2.04c.33-.59.775-1.045 1.335-1.365.57-.33 1.21-.495 1.92-.495.88 0 1.62.23 2.22.69.61.46.995 1.075 1.155 1.845h-1.29c-.1-.46-.345-.815-.735-1.065-.39-.26-.845-.39-1.365-.39-.42 0-.815.105-1.185.315s-.67.525-.9.945-.345.94-.345 1.56.115 1.14.345 1.56.53.74.9.96c.37.21.765.315 1.185.315.52 0 .975-.125 1.365-.375.39-.26.635-.625.735-1.095h1.29c-.15.75-.53 1.36-1.14 1.83s-1.355.705-2.235.705zm7.85 0c-.88 0-1.58-.265-2.1-.795-.52-.54-.78-1.365-.78-2.475v-4.35h1.26v4.215c0 1.55.635 2.325 1.905 2.325.65 0 1.185-.23 1.605-.69.43-.47.645-1.135.645-1.995v-3.855h1.26v7.44h-1.14l-.09-1.335c-.23.47-.575.84-1.035 1.11-.45.27-.96.405-1.53.405zm8.719 0c-.89 0-1.63-.225-2.22-.675s-.935-1.06-1.035-1.83h1.29c.08.39.285.73.615 1.02.34.28.795.42 1.365.42.53 0 .92-.11 1.17-.33.25-.23.375-.5.375-.81 0-.45-.165-.75-.495-.9-.32-.15-.775-.285-1.365-.405-.4-.08-.8-.195-1.2-.345s-.735-.36-1.005-.63c-.27-.28-.405-.645-.405-1.095 0-.65.24-1.18.72-1.59.49-.42 1.15-.63 1.98-.63.79 0 1.435.2 1.935.6.51.39.805.95.885 1.68h-1.245c-.05-.38-.215-.675-.495-.885-.27-.22-.635-.33-1.095-.33-.45 0-.8.095-1.05.285-.24.19-.36.44-.36.75 0 .3.155.535.465.705.32.17.75.315 1.29.435.46.1.895.225 1.305.375.42.14.76.355 1.02.645.27.28.405.69.405 1.23.01.67-.245 1.225-.765 1.665-.51.43-1.205.645-2.085.645zm7.253-.18c-.68 0-1.215-.165-1.605-.495s-.585-.925-.585-1.785v-4.095h-1.29v-1.065h1.29l.165-1.785h1.095v1.785h2.19v1.065h-2.19v4.095c0 .47.095.79.285.96.19.16.525.24 1.005.24h.78v1.08zm6.045.18c-.7 0-1.33-.16-1.89-.48s-1.005-.77-1.335-1.35c-.32-.59-.48-1.28-.48-2.07s.165-1.475.495-2.055c.33-.59.775-1.045 1.335-1.365.57-.32 1.205-.48 1.905-.48s1.33.16 1.89.48 1 .775 1.32 1.365c.33.58.495 1.265.495 2.055s-.165 1.48-.495 2.07c-.33.58-.78 1.03-1.35 1.35-.56.32-1.19.48-1.89.48zm0-1.08c.43 0 .83-.105 1.2-.315s.67-.525.9-.945.345-.94.345-1.56-.115-1.14-.345-1.56c-.22-.42-.515-.735-.885-.945s-.765-.315-1.185-.315c-.43 0-.83.105-1.2.315s-.67.525-.9.945-.345.94-.345 1.56.115 1.14.345 1.56.525.735.885.945c.37.21.765.315 1.185.315zm5.487.9v-7.44h1.14l.09 1.08c.24-.4.56-.71.96-.93s.85-.33 1.35-.33c.59 0 1.095.12 1.515.36.43.24.76.605.99 1.095.26-.45.615-.805 1.065-1.065.46-.26.955-.39 1.485-.39.89 0 1.6.27 2.13.81.53.53.795 1.35.795 2.46v4.35h-1.245v-4.215c0-.77-.155-1.35-.465-1.74s-.755-.585-1.335-.585c-.6 0-1.1.235-1.5.705-.39.46-.585 1.12-.585 1.98v3.855h-1.26v-4.215c0-.77-.155-1.35-.465-1.74s-.755-.585-1.335-.585c-.59 0-1.085.235-1.485.705-.39.46-.585 1.12-.585 1.98v3.855zm13.853.075c-.25 0-.46-.08-.63-.24-.16-.17-.24-.375-.24-.615s.08-.44.24-.6c.17-.17.38-.255.63-.255.24 0 .44.085.6.255.17.16.255.36.255.6s-.085.445-.255.615c-.16.16-.36.24-.6.24z" fill="#707070"/><path d="m153.579 149.18c-.88 0-1.58-.265-2.1-.795-.52-.54-.78-1.365-.78-2.475v-4.35h1.26v4.215c0 1.55.635 2.325 1.905 2.325.65 0 1.185-.23 1.605-.69.43-.47.645-1.135.645-1.995v-3.855h1.26v7.44h-1.14l-.09-1.335c-.23.47-.575.84-1.035 1.11-.45.27-.96.405-1.53.405zm8.809-.18c-.68 0-1.215-.165-1.605-.495s-.585-.925-.585-1.785v-4.095h-1.29v-1.065h1.29l.165-1.785h1.095v1.785h2.19v1.065h-2.19v4.095c0 .47.095.79.285.96.19.16.525.24 1.005.24h.78v1.08zm3.626-9.09c-.25 0-.46-.08-.63-.24-.16-.17-.24-.38-.24-.63 0-.24.08-.44.24-.6.17-.16.38-.24.63-.24.24 0 .445.08.615.24s.255.36.255.6c0 .25-.085.46-.255.63-.17.16-.375.24-.615.24zm-.63 9.09v-7.44h1.26v7.44zm3.454 0v-10.8h1.26v10.8zm4.09-9.09c-.25 0-.46-.08-.63-.24-.16-.17-.24-.38-.24-.63 0-.24.08-.44.24-.6.17-.16.38-.24.63-.24.24 0 .445.08.615.24s.255.36.255.6c0 .25-.085.46-.255.63-.17.16-.375.24-.615.24zm-.63 9.09v-7.44h1.26v7.44zm6.394 0c-.68 0-1.215-.165-1.605-.495s-.585-.925-.585-1.785v-4.095h-1.29v-1.065h1.29l.165-1.785h1.095v1.785h2.19v1.065h-2.19v4.095c0 .47.095.79.285.96.19.16.525.24 1.005.24h.78v1.08zm3.671 3.3 1.845-4.02h-.435l-2.955-6.72h1.365l2.46 5.79 2.61-5.79h1.305l-4.875 10.74zm7.375-1.575v-1.185h7.86v1.185zm13.749-1.545c-.61 0-1.155-.125-1.635-.375-.47-.25-.83-.6-1.08-1.05l-.12 1.245h-1.14v-10.8h1.26v4.59c.24-.36.58-.685 1.02-.975.45-.29 1.02-.435 1.71-.435.74 0 1.385.17 1.935.51s.975.805 1.275 1.395c.31.59.465 1.26.465 2.01s-.155 1.42-.465 2.01c-.3.58-.73 1.04-1.29 1.38-.55.33-1.195.495-1.935.495zm-.135-1.095c.5 0 .94-.115 1.32-.345.38-.24.68-.57.9-.99s.33-.91.33-1.47-.11-1.05-.33-1.47-.52-.745-.9-.975c-.38-.24-.82-.36-1.32-.36s-.94.12-1.32.36c-.38.23-.68.555-.9.975s-.33.91-.33 1.47.11 1.05.33 1.47.52.75.9.99c.38.23.82.345 1.32.345zm6.344-8.175c-.25 0-.46-.08-.63-.24-.16-.17-.24-.38-.24-.63 0-.24.08-.44.24-.6.17-.16.38-.24.63-.24.24 0 .445.08.615.24s.255.36.255.6c0 .25-.085.46-.255.63-.17.16-.375.24-.615.24zm-.63 9.09v-7.44h1.26v7.44zm3.453 0v-10.8h1.26v10.8zm3.326 0v-10.8h1.26v10.8z" fill="#000"/></g><g clip-path="url(#l)"><rect fill="#fff2f0" height="24" rx="12" width="115" x="340" y="132"/><path d="m349.349 148v-9.1h3.133c.72 0 1.309.121 1.768.364.468.243.815.572 1.04.988.226.407.338.862.338 1.365 0 .563-.151 1.075-.455 1.534-.294.459-.758.789-1.391.988l1.937 3.861h-1.599l-1.768-3.666h-1.625v3.666zm1.378-4.706h1.677c.624 0 1.079-.152 1.365-.455.295-.303.442-.698.442-1.183s-.143-.871-.429-1.157c-.286-.295-.749-.442-1.391-.442h-1.664zm9.102 4.862c-.633 0-1.196-.139-1.69-.416-.485-.286-.867-.68-1.144-1.183s-.416-1.088-.416-1.755c0-.676.134-1.27.403-1.781.277-.511.659-.91 1.144-1.196.494-.286 1.066-.429 1.716-.429.633 0 1.183.143 1.651.429.468.277.832.65 1.092 1.118s.39.984.39 1.547c0 .087-.004.182-.013.286 0 .095-.004.204-.013.325h-5.018c.043.624.247 1.101.611 1.43.373.321.802.481 1.287.481.39 0 .715-.087.975-.26.269-.182.468-.425.598-.728h1.378c-.173.607-.52 1.114-1.04 1.521-.511.407-1.148.611-1.911.611zm0-5.629c-.459 0-.867.139-1.222.416-.355.269-.572.676-.65 1.222h3.64c-.026-.503-.204-.901-.533-1.196s-.741-.442-1.235-.442zm6.129 5.473-2.418-6.448h1.443l1.794 5.135 1.794-5.135h1.43l-2.405 6.448zm5.955-7.67c-.26 0-.476-.078-.65-.234-.164-.165-.247-.368-.247-.611s.083-.442.247-.598c.174-.165.39-.247.65-.247s.473.082.637.247c.174.156.26.355.26.598s-.086.446-.26.611c-.164.156-.377.234-.637.234zm-.689 7.67v-6.448h1.378v6.448zm6.213.156c-.632 0-1.196-.139-1.69-.416-.485-.286-.866-.68-1.144-1.183-.277-.503-.416-1.088-.416-1.755 0-.676.135-1.27.403-1.781.278-.511.659-.91 1.144-1.196.494-.286 1.066-.429 1.716-.429.633 0 1.183.143 1.651.429.468.277.832.65 1.092 1.118s.39.984.39 1.547c0 .087-.004.182-.013.286 0 .095-.004.204-.013.325h-5.018c.044.624.247 1.101.611 1.43.373.321.802.481 1.287.481.39 0 .715-.087.975-.26.269-.182.468-.425.598-.728h1.378c-.173.607-.52 1.114-1.04 1.521-.511.407-1.148.611-1.911.611zm0-5.629c-.459 0-.866.139-1.222.416-.355.269-.572.676-.65 1.222h3.64c-.026-.503-.203-.901-.533-1.196-.329-.295-.741-.442-1.235-.442zm5.609 5.473-1.898-6.448h1.378l1.248 4.862 1.404-4.862h1.534l1.404 4.862 1.248-4.862h1.378l-1.898 6.448h-1.417l-1.482-5.07-1.482 5.07zm12.107 0v-6.448h1.235l.117 1.222c.225-.425.537-.758.936-1.001.407-.251.897-.377 1.469-.377v1.443h-.377c-.382 0-.724.065-1.027.195-.295.121-.533.334-.715.637-.174.295-.26.706-.26 1.235v3.094zm7.776.156c-.632 0-1.196-.139-1.69-.416-.485-.286-.866-.68-1.144-1.183-.277-.503-.416-1.088-.416-1.755 0-.676.135-1.27.403-1.781.278-.511.659-.91 1.144-1.196.494-.286 1.066-.429 1.716-.429.633 0 1.183.143 1.651.429.468.277.832.65 1.092 1.118s.39.984.39 1.547c0 .087-.004.182-.013.286 0 .095-.004.204-.013.325h-5.018c.044.624.247 1.101.611 1.43.373.321.802.481 1.287.481.39 0 .715-.087.975-.26.269-.182.468-.425.598-.728h1.378c-.173.607-.52 1.114-1.04 1.521-.511.407-1.148.611-1.911.611zm0-5.629c-.459 0-.866.139-1.222.416-.355.269-.572.676-.65 1.222h3.64c-.026-.503-.203-.901-.533-1.196-.329-.295-.741-.442-1.235-.442zm9.776 8.333v-3.861c-.208.303-.494.572-.858.806s-.832.351-1.404.351c-.624 0-1.174-.147-1.651-.442-.476-.295-.849-.698-1.118-1.209-.268-.511-.403-1.092-.403-1.742s.135-1.226.403-1.729c.269-.511.642-.91 1.118-1.196.486-.295 1.04-.442 1.664-.442.512 0 .958.1 1.339.299.39.199.694.481.91.845l.143-.988h1.235v9.308zm-2.015-3.9c.59 0 1.071-.204 1.443-.611.382-.407.572-.932.572-1.573 0-.65-.19-1.174-.572-1.573-.372-.407-.853-.611-1.443-.611-.589 0-1.074.204-1.456.611-.381.399-.572.923-.572 1.573 0 .425.087.802.26 1.131.174.329.412.589.715.78.312.182.663.273 1.053.273zm7.51 1.196c-.78 0-1.396-.243-1.846-.728-.442-.485-.663-1.209-.663-2.171v-3.705h1.378v3.562c0 1.248.511 1.872 1.534 1.872.511 0 .931-.182 1.261-.546.329-.364.494-.884.494-1.56v-3.328h1.378v6.448h-1.222l-.104-1.131c-.2.399-.494.715-.884.949-.382.225-.824.338-1.326.338zm6.069-7.826c-.26 0-.477-.078-.65-.234-.165-.165-.247-.368-.247-.611s.082-.442.247-.598c.173-.165.39-.247.65-.247s.472.082.637.247c.173.156.26.355.26.598s-.087.446-.26.611c-.165.156-.377.234-.637.234zm-.689 7.67v-6.448h1.378v6.448zm3.197 0v-6.448h1.235l.117 1.222c.225-.425.537-.758.936-1.001.407-.251.897-.377 1.469-.377v1.443h-.377c-.382 0-.724.065-1.027.195-.295.121-.533.334-.715.637-.174.295-.26.706-.26 1.235v3.094zm7.777.156c-.633 0-1.196-.139-1.69-.416-.486-.286-.867-.68-1.144-1.183-.278-.503-.416-1.088-.416-1.755 0-.676.134-1.27.403-1.781.277-.511.658-.91 1.144-1.196.494-.286 1.066-.429 1.716-.429.632 0 1.183.143 1.651.429.468.277.832.65 1.092 1.118s.39.984.39 1.547c0 .087-.005.182-.013.286 0 .095-.005.204-.013.325h-5.018c.043.624.247 1.101.611 1.43.372.321.801.481 1.287.481.39 0 .715-.087.975-.26.268-.182.468-.425.598-.728h1.378c-.174.607-.52 1.114-1.04 1.521-.512.407-1.149.611-1.911.611zm0-5.629c-.46 0-.867.139-1.222.416-.356.269-.572.676-.65 1.222h3.64c-.026-.503-.204-.901-.533-1.196-.33-.295-.741-.442-1.235-.442zm7.513 5.629c-.624 0-1.174-.147-1.651-.442-.476-.295-.849-.698-1.118-1.209-.268-.511-.403-1.092-.403-1.742s.135-1.226.403-1.729c.269-.511.642-.91 1.118-1.196.486-.295 1.04-.442 1.664-.442.512 0 .958.1 1.339.299.39.199.694.481.91.845v-3.9h1.378v9.36h-1.235l-.143-1.001c-.208.303-.494.572-.858.806s-.832.351-1.404.351zm.247-1.196c.59 0 1.071-.204 1.443-.611.382-.407.572-.932.572-1.573 0-.65-.19-1.174-.572-1.573-.372-.407-.853-.611-1.443-.611-.589 0-1.074.204-1.456.611-.381.399-.572.923-.572 1.573 0 .425.087.802.26 1.131.174.329.412.589.715.78.312.182.663.273 1.053.273z" fill="#991008"/></g><g clip-path="url(#m)"><path d="m564.905 149.18c-.72 0-1.375-.14-1.965-.42-.58-.29-1.045-.735-1.395-1.335s-.525-1.365-.525-2.295v-6.63h1.26v6.645c0 1.02.245 1.76.735 2.22s1.13.69 1.92.69 1.425-.23 1.905-.69.72-1.2.72-2.22v-6.645h1.26v6.63c0 .93-.175 1.695-.525 2.295s-.82 1.045-1.41 1.335c-.59.28-1.25.42-1.98.42zm8.824 0c-.89 0-1.63-.225-2.22-.675s-.935-1.06-1.035-1.83h1.29c.08.39.285.73.615 1.02.34.28.795.42 1.365.42.53 0 .92-.11 1.17-.33.25-.23.375-.5.375-.81 0-.45-.165-.75-.495-.9-.32-.15-.775-.285-1.365-.405-.4-.08-.8-.195-1.2-.345s-.735-.36-1.005-.63c-.27-.28-.405-.645-.405-1.095 0-.65.24-1.18.72-1.59.49-.42 1.15-.63 1.98-.63.79 0 1.435.2 1.935.6.51.39.805.95.885 1.68h-1.245c-.05-.38-.215-.675-.495-.885-.27-.22-.635-.33-1.095-.33-.45 0-.8.095-1.05.285-.24.19-.36.44-.36.75 0 .3.155.535.465.705.32.17.75.315 1.29.435.46.1.895.225 1.305.375.42.14.76.355 1.02.645.27.28.405.69.405 1.23.01.67-.245 1.225-.765 1.665-.51.43-1.205.645-2.085.645zm7.995 0c-.71 0-1.34-.16-1.89-.48-.55-.33-.985-.785-1.305-1.365-.31-.58-.465-1.265-.465-2.055 0-.78.155-1.46.465-2.04.31-.59.74-1.045 1.29-1.365.56-.33 1.205-.495 1.935-.495.72 0 1.34.165 1.86.495.53.32.935.745 1.215 1.275s.42 1.1.42 1.71c0 .11-.005.22-.015.33v.375h-5.925c.03.57.16 1.045.39 1.425.24.37.535.65.885.84.36.19.74.285 1.14.285.52 0 .955-.12 1.305-.36s.605-.565.765-.975h1.245c-.2.69-.585 1.265-1.155 1.725-.56.45-1.28.675-2.16.675zm0-6.735c-.6 0-1.135.185-1.605.555-.46.36-.725.89-.795 1.59h4.68c-.03-.67-.26-1.195-.69-1.575s-.96-.57-1.59-.57zm5.195 6.555v-7.44h1.14l.105 1.425c.23-.49.58-.88 1.05-1.17s1.05-.435 1.74-.435v1.32h-.345c-.44 0-.845.08-1.215.24-.37.15-.665.41-.885.78s-.33.88-.33 1.53v3.75z" fill="#000"/></g><g clip-path="url(#n)"><path d="m797.205 149.18c-.93 0-1.735-.225-2.415-.675-.67-.46-1.185-1.095-1.545-1.905-.36-.82-.54-1.77-.54-2.85s.18-2.025.54-2.835c.36-.82.875-1.455 1.545-1.905.68-.46 1.485-.69 2.415-.69s1.73.23 2.4.69c.67.45 1.185 1.085 1.545 1.905.36.81.54 1.755.54 2.835s-.18 2.03-.54 2.85c-.36.81-.875 1.445-1.545 1.905-.67.45-1.47.675-2.4.675zm0-1.11c.61 0 1.155-.17 1.635-.51.49-.35.87-.845 1.14-1.485.28-.65.42-1.425.42-2.325s-.14-1.67-.42-2.31c-.27-.64-.65-1.13-1.14-1.47-.48-.35-1.025-.525-1.635-.525-.62 0-1.17.175-1.65.525-.48.34-.86.83-1.14 1.47s-.42 1.41-.42 2.31.14 1.675.42 2.325c.28.64.66 1.135 1.14 1.485.48.34 1.03.51 1.65.51zm9.875 1.11c-.72 0-1.345-.13-1.875-.39s-.955-.615-1.275-1.065c-.31-.46-.5-.98-.57-1.56h1.23c.12.58.4 1.05.84 1.41.44.35.995.525 1.665.525.5 0 .93-.115 1.29-.345.36-.24.635-.56.825-.96.2-.4.3-.845.3-1.335 0-.78-.22-1.41-.66-1.89s-1.01-.72-1.71-.72c-.58 0-1.075.13-1.485.39s-.71.6-.9 1.02h-1.2l.9-5.76h5.505v1.095h-4.53l-.615 3.195c.24-.29.57-.53.99-.72.43-.19.92-.285 1.47-.285.69 0 1.29.16 1.8.48.52.32.925.755 1.215 1.305s.435 1.175.435 1.875c0 .67-.145 1.29-.435 1.86-.28.57-.695 1.025-1.245 1.365-.54.34-1.195.51-1.965.51zm4.471 1.245 3.765-12.885h1.245l-3.765 12.885zm10.351-1.245c-.93 0-1.735-.225-2.415-.675-.67-.46-1.185-1.095-1.545-1.905-.36-.82-.54-1.77-.54-2.85s.18-2.025.54-2.835c.36-.82.875-1.455 1.545-1.905.68-.46 1.485-.69 2.415-.69s1.73.23 2.4.69c.67.45 1.185 1.085 1.545 1.905.36.81.54 1.755.54 2.835s-.18 2.03-.54 2.85c-.36.81-.875 1.445-1.545 1.905-.67.45-1.47.675-2.4.675zm0-1.11c.61 0 1.155-.17 1.635-.51.49-.35.87-.845 1.14-1.485.28-.65.42-1.425.42-2.325s-.14-1.67-.42-2.31c-.27-.64-.65-1.13-1.14-1.47-.48-.35-1.025-.525-1.635-.525-.62 0-1.17.175-1.65.525-.48.34-.86.83-1.14 1.47s-.42 1.41-.42 2.31.14 1.675.42 2.325c.28.64.66 1.135 1.14 1.485.48.34 1.03.51 1.65.51zm9.576 1.11c-.67 0-1.275-.12-1.815-.36-.54-.25-.975-.62-1.305-1.11-.32-.49-.49-1.1-.51-1.83h1.275c.01.6.22 1.12.63 1.56.41.43.985.645 1.725.645s1.295-.205 1.665-.615c.38-.41.57-.905.57-1.485 0-.49-.12-.89-.36-1.2-.23-.31-.545-.54-.945-.69-.39-.15-.82-.225-1.29-.225h-.78v-1.065h.78c.68 0 1.21-.155 1.59-.465.39-.31.585-.745.585-1.305 0-.47-.155-.855-.465-1.155-.3-.31-.75-.465-1.35-.465-.58 0-1.045.175-1.395.525-.35.34-.545.77-.585 1.29h-1.275c.03-.57.18-1.075.45-1.515.28-.44.66-.78 1.14-1.02.48-.25 1.035-.375 1.665-.375.68 0 1.245.12 1.695.36.46.24.805.56 1.035.96.24.4.36.84.36 1.32 0 .53-.145 1.015-.435 1.455-.29.43-.725.72-1.305.87.62.13 1.135.425 1.545.885s.615 1.065.615 1.815c0 .58-.135 1.115-.405 1.605-.26.48-.65.865-1.17 1.155s-1.165.435-1.935.435zm4.155 1.245 3.765-12.885h1.245l-3.765 12.885zm6.384-1.425v-.885c.71-.56 1.38-1.125 2.01-1.695.64-.58 1.205-1.15 1.695-1.71.5-.56.89-1.11 1.17-1.65.29-.54.435-1.06.435-1.56 0-.37-.065-.715-.195-1.035-.12-.32-.32-.575-.6-.765-.28-.2-.66-.3-1.14-.3-.46 0-.845.105-1.155.315-.31.2-.545.47-.705.81-.15.34-.225.705-.225 1.095h-1.215c0-.69.145-1.28.435-1.77.29-.5.685-.88 1.185-1.14s1.065-.39 1.695-.39c.93 0 1.69.265 2.28.795.6.52.9 1.3.9 2.34 0 .62-.155 1.235-.465 1.845-.31.6-.705 1.185-1.185 1.755-.48.56-.995 1.085-1.545 1.575-.54.49-1.045.93-1.515 1.32h5.07v1.05zm8.584 0v-.885c.71-.56 1.38-1.125 2.01-1.695.64-.58 1.205-1.15 1.695-1.71.5-.56.89-1.11 1.17-1.65.29-.54.435-1.06.435-1.56 0-.37-.065-.715-.195-1.035-.12-.32-.32-.575-.6-.765-.28-.2-.66-.3-1.14-.3-.46 0-.845.105-1.155.315-.31.2-.545.47-.705.81-.15.34-.225.705-.225 1.095h-1.215c0-.69.145-1.28.435-1.77.29-.5.685-.88 1.185-1.14s1.065-.39 1.695-.39c.93 0 1.69.265 2.28.795.6.52.9 1.3.9 2.34 0 .62-.155 1.235-.465 1.845-.31.6-.705 1.185-1.185 1.755-.48.56-.995 1.085-1.545 1.575-.54.49-1.045.93-1.515 1.32h5.07v1.05zm7.669 1.785.87-3.315h1.305l-1.305 3.315zm8.751-1.785v-9.09l-1.695.375v-.87l2.115-.915h.855v10.5zm4.526 0v-9.09l-1.695.375v-.87l2.115-.915h.855v10.5zm3.852.075c-.25 0-.46-.08-.63-.24-.16-.17-.24-.375-.24-.615s.08-.44.24-.6c.17-.17.38-.255.63-.255.24 0 .44.085.6.255.17.16.255.36.255.6s-.085.445-.255.615c-.16.16-.36.24-.6.24zm0-5.985c-.25 0-.46-.08-.63-.24-.16-.17-.24-.375-.24-.615s.08-.44.24-.6c.17-.17.38-.255.63-.255.24 0 .44.085.6.255.17.16.255.36.255.6s-.085.445-.255.615c-.16.16-.36.24-.6.24zm2.463 5.91v-.885c.71-.56 1.38-1.125 2.01-1.695.64-.58 1.205-1.15 1.695-1.71.5-.56.89-1.11 1.17-1.65.29-.54.435-1.06.435-1.56 0-.37-.065-.715-.195-1.035-.12-.32-.32-.575-.6-.765-.28-.2-.66-.3-1.14-.3-.46 0-.845.105-1.155.315-.31.2-.545.47-.705.81-.15.34-.225.705-.225 1.095h-1.215c0-.69.145-1.28.435-1.77.29-.5.685-.88 1.185-1.14s1.065-.39 1.695-.39c.93 0 1.69.265 2.28.795.6.52.9 1.3.9 2.34 0 .62-.155 1.235-.465 1.845-.31.6-.705 1.185-1.185 1.755-.48.56-.995 1.085-1.545 1.575-.54.49-1.045.93-1.515 1.32h5.07v1.05zm13.255 0v-2.25h-5.325v-.975l5.1-7.275h1.47v7.14h1.56v1.11h-1.56v2.25zm-3.93-3.36h3.99v-5.745zm10.657 3.54c-.62 0-1.135-.105-1.545-.315s-.715-.49-.915-.84-.3-.73-.3-1.14c0-.76.29-1.345.87-1.755s1.37-.615 2.37-.615h2.01v-.09c0-.65-.17-1.14-.51-1.47-.34-.34-.795-.51-1.365-.51-.49 0-.915.125-1.275.375-.35.24-.57.595-.66 1.065h-1.29c.05-.54.23-.995.54-1.365.32-.37.715-.65 1.185-.84.47-.2.97-.3 1.5-.3 1.04 0 1.82.28 2.34.84.53.55.795 1.285.795 2.205v4.575h-1.125l-.075-1.335c-.21.42-.52.78-.93 1.08-.4.29-.94.435-1.62.435zm.195-1.065c.48 0 .89-.125 1.23-.375.35-.25.615-.575.795-.975s.27-.82.27-1.26v-.015h-1.905c-.74 0-1.265.13-1.575.39-.3.25-.45.565-.45.945 0 .39.14.705.42.945.29.23.695.345 1.215.345zm5.445.885v-7.44h1.14l.09 1.08c.24-.4.56-.71.96-.93s.85-.33 1.35-.33c.59 0 1.095.12 1.515.36.43.24.76.605.99 1.095.26-.45.615-.805 1.065-1.065.46-.26.955-.39 1.485-.39.89 0 1.6.27 2.13.81.53.53.795 1.35.795 2.46v4.35h-1.245v-4.215c0-.77-.155-1.35-.465-1.74s-.755-.585-1.335-.585c-.6 0-1.1.235-1.5.705-.39.46-.585 1.12-.585 1.98v3.855h-1.26v-4.215c0-.77-.155-1.35-.465-1.74s-.755-.585-1.335-.585c-.59 0-1.085.235-1.485.705-.39.46-.585 1.12-.585 1.98v3.855z" fill="#000"/></g><path clip-rule="evenodd" d="m1048.43 138.747c.44-.454 1.21-.897 2.57-.897s2.13.443 2.57.897c.37.382.57.895.66 1.542.09.564.08 1.163.08 1.803v.023h-6.62c0-.008 0-.015 0-.023-.01-.64-.01-1.239.07-1.803.1-.647.3-1.16.67-1.542zm-2.14 3.368c-.01-.635-.01-1.353.09-2.029.12-.807.39-1.644 1.05-2.317.73-.748 1.86-1.319 3.57-1.319 1.7 0 2.84.571 3.57 1.319.66.673.93 1.51 1.05 2.317.1.676.1 1.394.09 2.029h.25c.9 0 1.64.736 1.64 1.644v5.192c0 1.43-1.16 2.588-2.59 2.588h-8.02c-1.43 0-2.59-1.158-2.59-2.588v-5.192c0-.908.73-1.644 1.64-1.644zm-.49 1.644c0-.135.11-.244.24-.244h9.92c.13 0 .24.109.24.244v5.192c0 .656-.53 1.188-1.19 1.188h-8.02c-.66 0-1.19-.532-1.19-1.188z" fill="#000" fill-rule="evenodd"/><path d="m1069.67 145.805c-.32 0-.62-.08-.9-.24-.27-.16-.48-.375-.64-.645-.16-.28-.24-.585-.24-.915 0-.34.08-.645.24-.915.16-.28.37-.5.64-.66.28-.16.58-.24.9-.24.34 0 .65.08.92.24.28.16.5.38.66.66.16.27.24.575.24.915 0 .33-.08.635-.24.915-.16.27-.38.485-.66.645-.27.16-.58.24-.92.24zm5.38 0c-.32 0-.62-.08-.9-.24-.27-.16-.49-.375-.65-.645-.16-.28-.24-.585-.24-.915 0-.34.08-.645.24-.915.16-.28.38-.5.65-.66.28-.16.58-.24.9-.24.34 0 .64.08.91.24.28.16.5.38.66.66.16.27.24.575.24.915 0 .33-.08.635-.24.915-.16.27-.38.485-.66.645-.27.16-.57.24-.91.24zm5.37 0c-.32 0-.62-.08-.9-.24-.27-.16-.48-.375-.64-.645-.16-.28-.24-.585-.24-.915 0-.34.08-.645.24-.915.16-.28.37-.5.64-.66.28-.16.58-.24.9-.24.34 0 .65.08.92.24.28.16.5.38.66.66.16.27.24.575.24.915 0 .33-.08.635-.24.915-.16.27-.38.485-.66.645-.27.16-.58.24-.92.24zm5.38 0c-.32 0-.62-.08-.9-.24-.27-.16-.49-.375-.65-.645-.16-.28-.24-.585-.24-.915 0-.34.08-.645.24-.915.16-.28.38-.5.65-.66.28-.16.58-.24.9-.24.34 0 .64.08.91.24.28.16.5.38.66.66.16.27.24.575.24.915 0 .33-.08.635-.24.915-.16.27-.38.485-.66.645-.27.16-.57.24-.91.24zm5.37 0c-.32 0-.62-.08-.9-.24-.27-.16-.48-.375-.64-.645-.16-.28-.24-.585-.24-.915 0-.34.08-.645.24-.915.16-.28.37-.5.64-.66.28-.16.58-.24.9-.24.34 0 .65.08.92.24.28.16.5.38.66.66.16.27.24.575.24.915 0 .33-.08.635-.24.915-.16.27-.38.485-.66.645-.27.16-.58.24-.92.24zm5.38 0c-.32 0-.62-.08-.9-.24-.27-.16-.49-.375-.65-.645-.16-.28-.24-.585-.24-.915 0-.34.08-.645.24-.915.16-.28.38-.5.65-.66.28-.16.58-.24.9-.24.34 0 .64.08.91.24.28.16.5.38.66.66.16.27.24.575.24.915 0 .33-.08.635-.24.915-.16.27-.38.485-.66.645-.27.16-.57.24-.91.24zm5.38 0c-.32 0-.62-.08-.9-.24-.27-.16-.49-.375-.65-.645-.16-.28-.24-.585-.24-.915 0-.34.08-.645.24-.915.16-.28.38-.5.65-.66.28-.16.58-.24.9-.24.34 0 .64.08.91.24.28.16.5.38.66.66.16.27.24.575.24.915 0 .33-.08.635-.24.915-.16.27-.38.485-.66.645-.27.16-.57.24-.91.24zm5.37 0c-.32 0-.62-.08-.9-.24-.27-.16-.48-.375-.64-.645-.16-.28-.24-.585-.24-.915 0-.34.08-.645.24-.915.16-.28.37-.5.64-.66.28-.16.58-.24.9-.24.34 0 .65.08.92.24.28.16.5.38.66.66.16.27.24.575.24.915 0 .33-.08.635-.24.915-.16.27-.38.485-.66.645-.27.16-.58.24-.92.24zm5.38 0c-.32 0-.62-.08-.9-.24-.27-.16-.49-.375-.65-.645-.16-.28-.24-.585-.24-.915 0-.34.08-.645.24-.915.16-.28.38-.5.65-.66.28-.16.58-.24.9-.24.34 0 .64.08.91.24.28.16.5.38.66.66.16.27.24.575.24.915 0 .33-.08.635-.24.915-.16.27-.38.485-.66.645-.27.16-.57.24-.91.24z" fill="#000"/><path d="m0 166h1136v-2h-1136z" fill="#e2e2e2" mask="url(#s)"/><path d="m20.855 192v-1.14c.68-.54 1.33-1.085 1.95-1.635s1.17-1.09 1.65-1.62c.49-.54.875-1.065 1.155-1.575.28-.52.42-1.02.42-1.5 0-.32-.055-.62-.165-.9-.11-.29-.29-.52-.54-.69-.25-.18-.585-.27-1.005-.27-.63 0-1.105.2-1.425.6-.31.4-.46.88-.45 1.44h-1.545c.01-.74.165-1.36.465-1.86.31-.5.72-.88 1.23-1.14.52-.26 1.105-.39 1.755-.39.99 0 1.78.28 2.37.84.6.55.9 1.32.9 2.31 0 .59-.145 1.175-.435 1.755-.28.58-.65 1.14-1.11 1.68-.45.53-.935 1.03-1.455 1.5s-1.015.895-1.485 1.275h4.8v1.32zm44.4176 0v-7.44h1.425l.135 1.41c.26-.49.62-.875 1.08-1.155.47-.29 1.035-.435 1.695-.435v1.665h-.435c-.44 0-.835.075-1.185.225-.34.14-.615.385-.825.735-.2.34-.3.815-.3 1.425v3.57zm6.5982-8.85c-.3 0-.55-.09-.75-.27-.19-.19-.285-.425-.285-.705s.095-.51.285-.69c.2-.19.45-.285.75-.285s.545.095.735.285c.2.18.3.41.3.69s-.1.515-.3.705c-.19.18-.435.27-.735.27zm-.795 8.85v-7.44h1.59v7.44zm6.659.18c-.94 0-1.715-.23-2.325-.69s-.96-1.07-1.05-1.83h1.605c.08.34.27.635.57.885.3.24.695.36 1.185.36.48 0 .83-.1 1.05-.3s.33-.43.33-.69c0-.38-.155-.635-.465-.765-.3-.14-.72-.265-1.26-.375-.42-.09-.84-.21-1.26-.36-.41-.15-.755-.36-1.035-.63-.27-.28-.405-.655-.405-1.125 0-.65.25-1.19.75-1.62.5-.44 1.2-.66 2.1-.66.83 0 1.5.2 2.01.6.52.4.825.965.915 1.695h-1.53c-.05-.32-.2-.57-.45-.75-.24-.18-.565-.27-.975-.27-.4 0-.71.085-.93.255-.22.16-.33.37-.33.63s.15.465.45.615c.31.15.715.285 1.215.405.5.11.96.24 1.38.39.43.14.775.35 1.035.63s.39.69.39 1.23c.01.68-.255 1.245-.795 1.695-.53.45-1.255.675-2.175.675zm4.7057-.18v-10.8h1.59v6.435l2.85-3.075h1.905l-3.165 3.375 3.63 4.065h-2.01l-3.21-3.81v3.81zm14.7913.18c-.94 0-1.715-.23-2.325-.69s-.96-1.07-1.05-1.83h1.605c.08.34.27.635.57.885.3.24.695.36 1.185.36.48 0 .83-.1 1.05-.3s.33-.43.33-.69c0-.38-.155-.635-.465-.765-.3-.14-.72-.265-1.26-.375-.42-.09-.84-.21-1.26-.36-.41-.15-.755-.36-1.035-.63-.27-.28-.405-.655-.405-1.125 0-.65.25-1.19.75-1.62.5-.44 1.2-.66 2.1-.66.83 0 1.5.2 2.01.6.52.4.825.965.915 1.695h-1.53c-.05-.32-.2-.57-.45-.75-.24-.18-.565-.27-.975-.27-.4 0-.71.085-.93.255-.22.16-.33.37-.33.63s.15.465.45.615c.31.15.715.285 1.215.405.5.11.96.24 1.38.39.43.14.775.35 1.035.63.2602.28.3902.69.3902 1.23.01.68-.2552 1.245-.7952 1.695-.53.45-1.255.675-2.175.675zm5.6062-9.03c-.3 0-.55-.09-.75-.27-.19-.19-.285-.425-.285-.705s.095-.51.285-.69c.2-.19.45-.285.75-.285s.545.095.735.285c.2.18.3.41.3.69s-.1.515-.3.705c-.19.18-.435.27-.735.27zm-.795 8.85v-7.44h1.59v7.44zm6.734-2.28c-.39 0-.75-.045-1.08-.135l-.645.63c.11.07.245.13.405.18s.385.095.675.135.685.08 1.185.12c.99.09 1.705.33 2.145.72.44.38.66.89.66 1.53 0 .44-.12.855-.36 1.245-.23.4-.595.72-1.095.96-.49.25-1.12.375-1.89.375-1.04 0-1.885-.2-2.535-.6-.64-.39-.96-.985-.96-1.785 0-.31.08-.62.24-.93.17-.3.435-.585.795-.855-.21-.09-.395-.185-.555-.285-.15-.11-.285-.22-.405-.33v-.36l1.29-1.32c-.58-.5-.87-1.155-.87-1.965 0-.49.115-.935.345-1.335.24-.41.585-.735 1.035-.975s.99-.36 1.62-.36c.42 0 .81.06 1.17.18h2.775v1.05l-1.32.075c.24.41.36.865.36 1.365s-.12.95-.36 1.35c-.23.4-.57.72-1.02.96-.44.24-.975.36-1.605.36zm0-1.245c.46 0 .83-.12 1.11-.36.29-.25.435-.6.435-1.05 0-.46-.145-.81-.435-1.05-.28-.24-.65-.36-1.11-.36-.47 0-.85.12-1.14.36-.28.24-.42.59-.42 1.05 0 .45.14.8.42 1.05.29.24.67.36 1.14.36zm-1.995 4.47c0 .43.19.75.57.96.38.22.855.33 1.425.33.55 0 .995-.12 1.335-.36.34-.23.51-.54.51-.93 0-.29-.115-.54-.345-.75-.23-.2-.665-.325-1.305-.375-.48-.03-.905-.075-1.275-.135-.35.19-.59.395-.72.615s-.195.435-.195.645zm7.358-.945v-7.44h1.41l.12 1.305c.23-.46.565-.82 1.005-1.08.45-.27.965-.405 1.545-.405.9 0 1.605.28 2.115.84.52.56.78 1.395.78 2.505v4.275h-1.575v-4.11c0-1.44-.59-2.16-1.77-2.16-.59 0-1.08.21-1.47.63-.38.42-.57 1.02-.57 1.8v3.84zm11.367.18c-.63 0-1.15-.105-1.56-.315s-.715-.485-.915-.825c-.2-.35-.3-.73-.3-1.14 0-.72.28-1.29.84-1.71s1.36-.63 2.4-.63h1.95v-.135c0-.58-.16-1.015-.48-1.305-.31-.29-.715-.435-1.215-.435-.44 0-.825.11-1.155.33-.32.21-.515.525-.585.945h-1.59c.05-.54.23-1 .54-1.38.32-.39.72-.685 1.2-.885.49-.21 1.025-.315 1.605-.315 1.04 0 1.845.275 2.415.825.57.54.855 1.28.855 2.22v4.575h-1.38l-.135-1.275c-.21.41-.515.755-.915 1.035s-.925.42-1.575.42zm.315-1.29c.43 0 .79-.1 1.08-.3.3-.21.53-.485.69-.825.17-.34.275-.715.315-1.125h-1.77c-.63 0-1.08.11-1.35.33-.26.22-.39.495-.39.825 0 .34.125.61.375.81.26.19.61.285 1.05.285zm5.544 1.11v-10.8h1.59v10.8zm6.574.18c-.94 0-1.715-.23-2.325-.69s-.96-1.07-1.05-1.83h1.605c.08.34.27.635.57.885.3.24.695.36 1.185.36.48 0 .83-.1 1.05-.3s.33-.43.33-.69c0-.38-.155-.635-.465-.765-.3-.14-.72-.265-1.26-.375-.42-.09-.84-.21-1.26-.36-.41-.15-.755-.36-1.035-.63-.27-.28-.405-.655-.405-1.125 0-.65.25-1.19.75-1.62.5-.44 1.2-.66 2.1-.66.83 0 1.5.2 2.01.6.52.4.825.965.915 1.695h-1.53c-.05-.32-.2-.57-.45-.75-.24-.18-.565-.27-.975-.27-.4 0-.71.085-.93.255-.22.16-.33.37-.33.63s.15.465.45.615c.31.15.715.285 1.215.405.5.11.96.24 1.38.39.43.14.775.35 1.035.63s.39.69.39 1.23c.01.68-.255 1.245-.795 1.695-.53.45-1.255.675-2.175.675z" fill="#000"/><path d="m33.4283 192v-10.5h1.59v9.24h4.77v1.26zm11.169.18c-.71 0-1.35-.16-1.92-.48-.56-.33-1.005-.785-1.335-1.365-.33-.59-.495-1.275-.495-2.055s.165-1.46.495-2.04c.34-.59.795-1.045 1.365-1.365.57-.33 1.205-.495 1.905-.495.71 0 1.345.165 1.905.495.57.32 1.02.775 1.35 1.365.34.58.51 1.26.51 2.04s-.17 1.465-.51 2.055c-.33.58-.78 1.035-1.35 1.365-.57.32-1.21.48-1.92.48zm0-1.365c.38 0 .73-.095 1.05-.285.33-.19.595-.47.795-.84.2-.38.3-.85.3-1.41s-.1-1.025-.3-1.395c-.19-.38-.45-.665-.78-.855-.32-.19-.67-.285-1.05-.285s-.735.095-1.065.285c-.32.19-.58.475-.78.855-.2.37-.3.835-.3 1.395s.1 1.03.3 1.41c.2.37.46.65.78.84s.67.285 1.05.285zm6.7062 1.185-2.19-7.44h1.59l1.44 5.61 1.62-5.61h1.77l1.62 5.61 1.44-5.61h1.59l-2.19 7.44h-1.635l-1.71-5.85-1.71 5.85z" fill="#0a57b5"/><path d="m1042.53 192.18c-.77 0-1.44-.135-2.02-.405s-1.04-.655-1.37-1.155c-.32-.5-.48-1.095-.49-1.785h1.68c.01.56.2 1.035.58 1.425s.92.585 1.61.585c.61 0 1.08-.145 1.42-.435.35-.3.53-.68.53-1.14 0-.37-.09-.67-.26-.9-.16-.23-.38-.42-.67-.57-.28-.15-.61-.285-.98-.405s-.76-.25-1.17-.39c-.81-.27-1.42-.62-1.83-1.05-.4-.43-.6-.995-.6-1.695-.01-.59.13-1.105.41-1.545.29-.44.69-.78 1.2-1.02.52-.25 1.12-.375 1.81-.375.68 0 1.28.125 1.79.375.52.25.92.6 1.21 1.05.29.44.44.955.45 1.545h-1.68c0-.27-.07-.525-.21-.765-.14-.25-.34-.455-.61-.615s-.6-.24-.99-.24c-.5-.01-.92.115-1.25.375-.32.26-.48.62-.48 1.08 0 .41.12.725.36.945s.57.405.99.555c.42.14.9.305 1.44.495.52.17.99.375 1.4.615s.73.555.97.945c.25.39.38.885.38 1.485 0 .53-.14 1.025-.41 1.485-.27.45-.67.82-1.21 1.11-.54.28-1.21.42-2 .42zm8.77 0c-.73 0-1.38-.16-1.95-.48-.56-.33-1-.785-1.32-1.365s-.48-1.255-.48-2.025c0-.78.16-1.465.47-2.055.32-.59.76-1.05 1.32-1.38.57-.33 1.23-.495 1.98-.495.73 0 1.36.165 1.9.495.54.32.96.75 1.26 1.29s.45 1.135.45 1.785c0 .1 0 .21-.01.33 0 .11-.01.235-.02.375h-5.79c.05.72.29 1.27.71 1.65.43.37.92.555 1.48.555.45 0 .83-.1 1.13-.3.31-.21.54-.49.69-.84h1.59c-.2.7-.6 1.285-1.2 1.755-.59.47-1.33.705-2.21.705zm0-6.495c-.53 0-1 .16-1.41.48-.41.31-.66.78-.75 1.41h4.2c-.03-.58-.23-1.04-.61-1.38s-.86-.51-1.43-.51zm8.76 6.495c-.73 0-1.38-.16-1.95-.48-.56-.33-1-.785-1.32-1.365s-.48-1.255-.48-2.025c0-.78.16-1.465.47-2.055.32-.59.76-1.05 1.32-1.38.57-.33 1.23-.495 1.98-.495.73 0 1.36.165 1.9.495.54.32.96.75 1.26 1.29s.45 1.135.45 1.785c0 .1 0 .21-.01.33 0 .11-.01.235-.02.375h-5.79c.05.72.29 1.27.71 1.65.43.37.92.555 1.48.555.45 0 .83-.1 1.13-.3.31-.21.54-.49.69-.84h1.59c-.2.7-.6 1.285-1.2 1.755-.59.47-1.33.705-2.21.705zm0-6.495c-.53 0-1 .16-1.41.48-.41.31-.66.78-.75 1.41h4.2c-.03-.58-.23-1.04-.61-1.38s-.86-.51-1.43-.51zm12.45 6.495c-.72 0-1.35-.17-1.9-.51s-.98-.805-1.29-1.395-.47-1.26-.47-2.01.16-1.415.47-1.995c.31-.59.74-1.05 1.29-1.38.56-.34 1.2-.51 1.92-.51.59 0 1.1.115 1.54.345.45.23.8.555 1.05.975v-4.5h1.59v10.8h-1.42l-.17-1.155c-.24.35-.57.66-.99.93s-.96.405-1.62.405zm.29-1.38c.68 0 1.23-.235 1.66-.705.44-.47.66-1.075.66-1.815 0-.75-.22-1.355-.66-1.815-.43-.47-.98-.705-1.66-.705s-1.24.235-1.68.705c-.44.46-.66 1.065-.66 1.815 0 .49.1.925.3 1.305s.47.68.82.9c.36.21.77.315 1.22.315zm9.4 1.38c-.73 0-1.38-.16-1.95-.48-.56-.33-1-.785-1.32-1.365s-.48-1.255-.48-2.025c0-.78.15-1.465.46-2.055.32-.59.76-1.05 1.32-1.38.57-.33 1.23-.495 1.98-.495.73 0 1.37.165 1.91.495.54.32.96.75 1.26 1.29s.45 1.135.45 1.785c0 .1-.01.21-.02.33 0 .11 0 .235-.01.375h-5.79c.05.72.28 1.27.7 1.65.43.37.93.555 1.49.555.45 0 .82-.1 1.12-.3.31-.21.54-.49.69-.84h1.59c-.2.7-.6 1.285-1.2 1.755-.59.47-1.32.705-2.2.705zm0-6.495c-.53 0-1 .16-1.41.48-.41.31-.66.78-.75 1.41h4.2c-.03-.58-.24-1.04-.62-1.38s-.85-.51-1.42-.51zm8.21 6.315c-.73 0-1.31-.175-1.74-.525-.43-.36-.65-.995-.65-1.905v-3.675h-1.27v-1.335h1.27l.2-1.89h1.39v1.89h2.1v1.335h-2.1v3.675c0 .41.09.695.26.855.18.15.48.225.91.225h.86v1.35zm5.46.18c-.63 0-1.15-.105-1.56-.315s-.71-.485-.91-.825c-.2-.35-.3-.73-.3-1.14 0-.72.28-1.29.84-1.71s1.36-.63 2.4-.63h1.95v-.135c0-.58-.16-1.015-.48-1.305-.31-.29-.72-.435-1.22-.435-.44 0-.82.11-1.15.33-.32.21-.52.525-.59.945h-1.59c.05-.54.23-1 .54-1.38.32-.39.72-.685 1.2-.885.49-.21 1.03-.315 1.61-.315 1.04 0 1.84.275 2.41.825.57.54.86 1.28.86 2.22v4.575h-1.38l-.14-1.275c-.21.41-.51.755-.91 1.035s-.93.42-1.58.42zm.32-1.29c.43 0 .79-.1 1.08-.3.3-.21.53-.485.69-.825.17-.34.27-.715.31-1.125h-1.77c-.63 0-1.08.11-1.35.33-.26.22-.39.495-.39.825 0 .34.13.61.38.81.26.19.61.285 1.05.285zm6.44-7.74c-.3 0-.55-.09-.75-.27-.19-.19-.29-.425-.29-.705s.1-.51.29-.69c.2-.19.45-.285.75-.285s.54.095.73.285c.2.18.3.41.3.69s-.1.515-.3.705c-.19.18-.43.27-.73.27zm-.8 8.85v-7.44h1.59v7.44zm3.69 0v-10.8h1.59v10.8zm6.58.18c-.94 0-1.72-.23-2.33-.69s-.96-1.07-1.05-1.83h1.61c.08.34.27.635.57.885.3.24.69.36 1.18.36.48 0 .83-.1 1.05-.3s.33-.43.33-.69c0-.38-.15-.635-.46-.765-.3-.14-.72-.265-1.26-.375-.42-.09-.84-.21-1.26-.36-.41-.15-.76-.36-1.04-.63-.27-.28-.4-.655-.4-1.125 0-.65.25-1.19.75-1.62.5-.44 1.2-.66 2.1-.66.83 0 1.5.2 2.01.6.52.4.82.965.91 1.695h-1.53c-.05-.32-.2-.57-.45-.75-.24-.18-.56-.27-.97-.27-.4 0-.71.085-.93.255-.22.16-.33.37-.33.63s.15.465.45.615c.31.15.71.285 1.21.405.5.11.96.24 1.38.39.43.14.78.35 1.04.63s.39.69.39 1.23c.01.68-.26 1.245-.8 1.695-.53.45-1.25.675-2.17.675z" fill="#4a24db"/></g></g></svg>