<svg width="82" height="80" viewBox="0 0 82 80" fill="none" xmlns="http://www.w3.org/2000/svg">
<path d="M9.84424 28.6142C11.6458 28.6142 12.5975 27.6074 12.5975 25.8622L12.5975 17.9418C12.5975 14.4515 14.4671 12.6728 17.8661 12.6728L26.0919 12.6728C27.8935 12.6728 28.8792 11.6995 28.8792 9.95431C28.8792 8.20914 27.8935 7.26944 26.092 7.26944L17.7982 7.26945C10.694 7.26946 7.12499 10.7262 7.12498 17.6398L7.12497 25.8622C7.12497 27.6074 8.11071 28.6142 9.84424 28.6142ZM70.9261 28.6141C72.7277 28.6141 73.6793 27.6073 73.6793 25.8621L73.6793 17.6397C73.6793 10.7261 70.1102 7.26938 63.0062 7.26939L54.6783 7.2694C52.9108 7.2694 51.9251 8.20911 51.9251 9.95428C51.9251 11.6994 52.9108 12.6727 54.6783 12.6727L62.9042 12.6727C66.2693 12.6727 68.2066 14.4514 68.2066 17.9418L68.2066 25.8621C68.2066 27.6073 69.1923 28.6141 70.9261 28.6141ZM17.7981 72.9483L26.0919 72.9483C27.8934 72.9483 28.8791 71.975 28.8791 70.2632C28.8791 68.5181 27.8934 67.5449 26.0919 67.5449L17.8661 67.5449C14.467 67.5449 12.5975 65.7661 12.5975 62.2758L12.5975 54.3554C12.5975 52.5766 11.6117 51.6034 9.84421 51.6034C8.07668 51.6034 7.12493 52.5766 7.12493 54.3554L7.12492 62.5442C7.12491 69.4914 10.694 72.9483 17.7981 72.9483ZM54.6782 72.9482L63.0061 72.9482C70.1101 72.9482 73.6792 69.4576 73.6792 62.5441L73.6792 54.3553C73.6792 52.5765 72.6935 51.6033 70.926 51.6033C69.1585 51.6033 68.2066 52.5765 68.2066 54.3553L68.2066 62.2757C68.2066 65.766 66.2692 67.5448 62.9041 67.5448L54.6782 67.5448C52.9107 67.5448 51.925 68.5181 51.925 70.2632C51.925 71.975 52.9107 72.9482 54.6782 72.9482Z" fill="black" fill-opacity="0.85"/>
<path d="M27.4497 37.8435C29.0473 37.8435 30.203 36.7359 30.203 35.125L30.203 30.5607C30.203 28.9498 29.0473 27.8423 27.4497 27.8423C25.8522 27.8423 24.7305 28.9498 24.7305 30.5607L24.7305 35.125C24.7305 36.7359 25.8522 37.8435 27.4497 37.8435ZM37.681 45.7638C37.749 45.7638 37.8509 45.7638 37.9529 45.7638C41.386 45.7638 43.2557 43.918 43.2557 40.5283L43.2557 29.9566C43.2557 28.6477 42.3719 27.8087 41.0801 27.8087C39.7205 27.8087 38.8367 28.6477 38.8367 29.9566L38.8367 40.8304C38.8367 41.1659 38.6327 41.3338 38.3268 41.3338L37.1372 41.3338C35.9135 41.3338 34.9617 42.2735 34.9617 43.4815C34.9617 44.9249 35.9475 45.7638 37.681 45.7638ZM53.249 37.8434C54.8126 37.8434 55.934 36.7359 55.934 35.125L55.934 30.5607C55.934 28.9497 54.8126 27.8422 53.2491 27.8422C51.6173 27.8423 50.4955 28.9497 50.4955 30.5607L50.4955 35.125C50.4955 36.7359 51.6173 37.8434 53.249 37.8434ZM40.1963 57.0404C44.3092 57.0404 48.4561 55.2949 51.4133 52.3752C51.8212 52.0061 52.0252 51.4356 52.0252 50.7644C52.0252 49.4891 51.0736 48.5828 49.8157 48.5828C49.17 48.5828 48.6942 48.8179 48.0482 49.4891C46.1787 51.4019 43.2215 52.7109 40.1963 52.7109C37.3411 52.7109 34.3499 51.4693 32.3784 49.4891C31.8346 48.9856 31.3927 48.5829 30.5769 48.5829C29.3192 48.5829 28.3675 49.4891 28.3675 50.7645C28.3675 51.3349 28.5714 51.8717 29.0133 52.3419C31.7666 55.4293 36.0834 57.0404 40.1963 57.0404Z" fill="black" fill-opacity="0.85"/>
</svg>
