<svg width="97" height="94" viewBox="0 0 97 94" fill="none" xmlns="http://www.w3.org/2000/svg">
<path d="M10.1074 51.3916C11.2056 51.2948 11.927 50.3478 11.8963 49.0937C11.7611 45.3597 12.0262 41.4906 13.2484 36.6142C13.5601 35.323 12.9983 34.4699 11.9466 34.173C10.5825 33.773 9.65691 34.4567 9.31898 35.5222C8.15597 39.4204 7.46867 44.2272 7.8181 49.4008C7.91989 50.67 8.93069 51.5085 10.1074 51.3916ZM12.9899 30.1391C13.9388 30.7443 15.3512 30.5676 16.1324 29.3396C25.2135 14.7608 40.5718 9.80746 54.4721 12.7621C60.8002 14.1071 65.5088 16.4287 69.232 19.7148C70.2914 20.6737 71.6423 20.9609 72.4219 19.9159C73.252 18.8083 72.7761 17.9 72.0065 17.1495C67.3119 12.6664 62.0982 10.2741 55.3077 8.83076C39.2388 5.41522 22.8649 10.7763 12.6677 26.5853C11.6192 28.1968 12.0335 29.5689 12.9899 30.1391ZM84.2274 58.5983C85.3651 58.8401 86.3767 58.1013 86.5312 56.85C87.9678 42.224 85.1218 32.1906 78.4165 23.3546C77.5795 22.2228 76.2755 22.2392 75.522 22.8127C74.6896 23.4062 74.3724 24.5495 75.2376 25.7239C80.8682 33.6711 84.1764 43.1057 82.6766 56.1044C82.5728 57.2927 83.0898 58.3564 84.2274 58.5983Z" fill="black" fill-opacity="0.85"/>
<path d="M12.0662 62.4477C12.5477 63.5038 13.8464 64.0365 15.021 63.4056C18.0357 61.8085 20.0467 58.6408 20.8077 55.0604C21.8373 50.2167 20.2265 47.3063 21.5098 41.2689C24.4345 27.5092 38.4563 18.5298 52.3921 21.4919C69.2079 25.0663 77.1635 40.955 72.939 61.0051C71.2752 68.8328 68.7808 74.0989 66.7865 77.0136C66.0929 78.0033 66.2733 79.2525 67.0932 79.9403C67.9993 80.5731 69.4602 80.5166 70.133 79.4492C72.3106 76.0231 75.1374 70.2406 76.9279 61.8165C81.6806 39.4572 72.4255 21.6412 53.2278 17.5607C37.0878 14.13 20.9079 24.5218 17.5281 40.4225C16.3046 46.1788 17.6805 50.5436 16.9402 54.2016C16.4328 56.5885 15.059 58.6813 13.0822 59.7653C12.0798 60.2859 11.6691 61.5191 12.0662 62.4477Z" fill="black" fill-opacity="0.85"/>
<path d="M30.7232 53.3521C30.3418 50.7762 29.5258 47.4478 30.3912 43.3762C32.3759 34.0392 41.2793 28.3376 50.7357 30.3476C54.3619 31.1184 55.4175 31.7463 58.2609 33.9282C59.2584 34.6539 60.3209 34.5495 60.8763 33.8605C61.6182 32.9909 61.5876 31.7371 60.5282 30.7782C58.4729 28.9105 55.0984 27.1293 51.5788 26.3812C39.9182 23.9027 28.8212 31.0091 26.374 42.5223C25.4339 46.9448 25.8817 50.782 26.4918 54.0301C26.7432 55.2944 27.6904 56.0825 29.0822 55.828C30.2382 55.6338 30.868 54.5937 30.7232 53.3521Z" fill="black" fill-opacity="0.85"/>
<path d="M19.0691 70.7598C21.9834 69.9851 26.544 66.185 28.3079 62.7814C28.8012 61.8588 28.5927 60.5672 27.5652 59.9818C26.6444 59.4194 25.4511 59.7894 24.8213 60.8295C23.2048 63.7144 21.0415 65.6758 18.0377 66.8717C16.5713 67.4771 16.1622 68.5276 16.3817 69.418C16.6218 70.3861 17.655 71.1193 19.0691 70.7598ZM62.8403 39.8181C65.2365 45.5003 65.4883 52.7077 63.7275 60.9915C61.8474 69.8368 57.583 77.6621 52.6931 81.612C51.8744 82.3186 51.5494 83.4967 52.1677 84.4351C52.8564 85.3888 54.3215 85.6634 55.234 84.8667C60.8022 79.9971 65.6012 71.4052 67.6679 61.6822C69.9285 51.0469 68.9605 44.2374 66.8075 38.4602C66.2996 37.1783 65.1299 36.5627 64.0224 36.8776C62.872 37.2201 62.2763 38.4509 62.8403 39.8181Z" fill="black" fill-opacity="0.85"/>
<path d="M25.5519 76.9797C32.367 73.5859 37.1334 66.8948 38.8362 58.7087C40.1138 52.5232 38.6873 48.2213 39.4036 44.8516C40.3437 40.4288 44.1344 38.1529 48.7559 39.1352C55.8664 40.6466 56.4758 49.1409 54.6747 58.6634C52.6669 69.683 46.68 78.0956 40.4487 81.5403C39.4461 82.0608 39.0371 83.1115 39.4193 84.1097C39.8935 85.2011 41.2425 85.6712 42.3458 85.0252C48.9514 81.2198 55.9718 71.2656 58.4673 59.1761C60.9385 47.3745 59.5459 37.3198 49.5916 35.2039C42.9792 33.7984 36.9703 37.0704 35.5676 43.6692C34.7246 47.6356 35.8205 52.9683 34.819 57.8548C33.3773 64.8123 29.4184 70.5012 23.7199 73.3618C22.5958 73.9302 22.2149 75.0232 22.6327 76.029C23.1629 77.2056 24.4204 77.583 25.5519 76.9797Z" fill="black" fill-opacity="0.85"/>
<path d="M33.2699 81.5553C36.5038 80.1513 40.965 76.2936 43.271 72.0879C43.6841 71.3687 43.7825 70.0323 42.727 69.4041C41.6075 68.7263 40.4497 69.1038 39.9357 69.9484C37.1229 74.2665 34.2938 76.5635 31.524 77.8824C30.486 78.3955 29.991 79.5007 30.4014 80.5417C30.7612 81.6457 32.1179 82.0806 33.2699 81.5553ZM47.036 64.3401C49.0385 59.8132 49.9383 53.6575 49.3154 48.0223C49.1291 46.6254 48.2176 45.8445 47.041 45.9614C45.9355 46.0931 45.094 46.9049 45.2239 48.2165C45.7773 53.6537 44.9951 58.7337 43.237 62.9826C42.7999 63.99 43.0102 65.0986 44.2171 65.5389C45.31 65.991 46.5184 65.5509 47.036 64.3401Z" fill="black" fill-opacity="0.85"/>
</svg>
