<svg width="81" height="61" viewBox="0 0 81 61" fill="none" xmlns="http://www.w3.org/2000/svg">
<path d="M62.425 54.9542C71.8957 54.9542 79.2968 48.0236 79.2968 39.3994C79.2968 32.8137 75.502 27.1062 69.3867 24.5346C69.4497 10.548 59.3829 0.449951 46.5567 0.449951C38.058 0.449951 32.0055 4.9972 28.2422 10.4852C20.5276 8.22731 12.123 14.0917 11.9662 22.8725C4.87882 24.0015 0.457031 30.3363 0.457031 37.9883C0.457031 47.208 8.51663 54.9542 19.2418 54.9542L62.425 54.9542ZM62.425 49.9051L19.2418 49.9051C11.339 49.9051 5.50605 44.3855 5.50605 37.9883C5.50605 31.7161 9.30064 26.7298 15.949 26.7298C16.3881 26.7298 16.5449 26.5103 16.5449 26.1026C16.5449 16.4437 23.5068 13.5899 29.9357 15.691C30.312 15.8165 30.5315 15.7224 30.7197 15.3774C33.7616 9.9521 38.4344 5.49897 46.5567 5.49897C56.8428 5.49897 63.9616 13.6526 64.4947 22.9666C64.5888 24.4092 64.4947 26.1026 64.3691 27.5766C64.338 27.9843 64.4947 28.2038 64.871 28.2979C70.5785 29.5523 74.2477 33.7231 74.2477 39.3994C74.2477 45.2324 69.1048 49.9051 62.425 49.9051Z" fill="black" fill-opacity="0.85"/>
<path d="M57.0919 31.3398C57.0919 26.134 52.921 21.9944 47.7778 21.9944C43.8578 21.9944 40.4082 24.3151 38.9972 27.9843L24.5713 27.9843C24.2264 27.9843 23.9441 28.0784 23.6305 28.3919L21.2158 30.8381C20.9335 31.0889 20.9022 31.5593 21.2158 31.8416L25.7944 36.4829C26.108 36.7966 26.5784 36.7966 26.8606 36.4829L29.7144 33.5979L33.6658 37.5805C33.9166 37.8628 34.3556 37.8313 34.6693 37.5179L38.6208 33.629C40.4397 38.1451 43.7637 40.6537 47.7778 40.6537C52.921 40.6537 57.0919 36.5144 57.0919 31.3398ZM52.6073 31.3085C52.6073 32.8766 51.3215 34.1621 49.7537 34.1621C48.1231 34.1621 46.8373 32.8766 46.8373 31.3085C46.8373 29.7404 48.1231 28.4547 49.7537 28.4547C51.3215 28.4547 52.6073 29.7091 52.6073 31.3085Z" fill="black" fill-opacity="0.85"/>
</svg>
