<svg width="229" height="48" viewBox="0 0 229 48" fill="none" xmlns="http://www.w3.org/2000/svg">
<path d="M55.2751 9.54025H73.1653V13.9108H60.2245L60.2234 22.588H72.1102V26.9597L60.2234 26.9585V39.5373L55.2739 39.5361" fill="black"/>
<path d="M92.492 28.7386C92.492 24.5819 89.9118 21.6678 86.147 21.6678C82.3402 21.6678 79.8019 24.5819 79.8019 28.7386C79.8019 32.8953 82.3402 35.8093 86.147 35.8093C89.9118 35.8105 92.492 32.8953 92.492 28.7386ZM75.1498 28.7386C75.1498 22.2679 79.718 17.5962 86.147 17.5962C92.534 17.5973 97.1453 22.2679 97.1453 28.7386C97.1442 35.2093 92.534 39.8798 86.147 39.8798C79.7168 39.8798 75.1486 35.2093 75.1498 28.7386Z" fill="black"/>
<path d="M116.991 28.7398C116.991 24.5819 114.411 21.669 110.646 21.669C106.839 21.669 104.301 24.5819 104.301 28.7398C104.301 32.8953 106.839 35.8106 110.646 35.8106C114.411 35.8106 116.991 32.8965 116.991 28.7398ZM99.6486 28.7398C99.6486 22.2679 104.217 17.5973 110.646 17.5973C117.033 17.5973 121.643 22.2691 121.643 28.7398C121.643 35.2105 117.033 39.881 110.646 39.881C104.216 39.881 99.6474 35.2093 99.6486 28.7398Z" fill="black"/>
<path d="M157.912 28.741C157.912 24.4555 155.458 21.6702 151.736 21.6702C148.014 21.669 145.56 24.4555 145.56 28.7398C145.56 32.9827 148.014 35.8117 151.736 35.8117C155.458 35.8117 157.912 32.9827 157.912 28.741ZM141.244 17.9411H145.856V20.6839C147.041 18.9274 149.536 17.5985 152.497 17.5985C158.8 17.5985 162.523 22.2265 162.523 28.741C162.52 35.2542 158.63 39.8822 152.243 39.8822C149.662 39.8822 147.167 38.7671 145.856 37.0532V47.3381H141.244" fill="black"/>
<path d="M183.038 17.9423H187.649L187.646 39.5397H183.038V17.9423ZM182.36 11.3428C182.36 9.62886 183.628 8.29999 185.321 8.29999C187.055 8.29999 188.369 9.62886 188.369 11.3428C188.369 13.0142 187.055 14.3419 185.321 14.3419C183.628 14.3419 182.36 13.0142 182.36 11.3428Z" fill="black"/>
<path d="M193.195 17.9422H197.806V21.5426C199.242 19.2286 201.696 17.5997 204.827 17.5997C209.352 17.5997 212.525 20.6425 212.525 25.313V39.5408H207.914L207.916 26.3856C207.916 23.6841 206.266 21.7989 203.559 21.7989C199.962 21.7989 197.806 24.8843 197.806 30.0698L197.804 39.5408H193.195" fill="black"/>
<path d="M179.531 17.8903C178.919 17.6966 178.125 17.5997 177.426 17.5997C174.847 17.5985 172.056 19.4849 170.913 22.0564V17.9422L166.302 17.9411V39.5396H170.913V31.4837C170.913 24.7992 173.663 21.9702 176.793 21.9702C177.761 21.9702 178.77 22.1403 179.531 22.4805" fill="black"/>
<path d="M136.773 35.1762C135.97 35.5613 134.878 35.7255 134.074 35.7255C132.341 35.7255 131.156 34.6104 131.156 32.4677V21.9265H136.758V17.9411L131.156 17.9399V11.5129H126.547V17.9399H122.823V21.9253L126.547 21.9265V32.7252C126.547 37.6532 129.549 39.881 133.567 39.881C134.639 39.881 135.827 39.6979 136.773 39.4168" fill="black"/>
<path d="M228.867 35.1786C228.063 35.5637 226.969 35.7279 226.165 35.7279C224.431 35.7279 223.246 34.6128 223.246 32.4701L223.249 21.9289H228.848V17.9434L223.249 17.9423V11.5153H218.638V17.9423H214.915V21.9277L218.638 21.9289V32.7276C218.638 37.6556 221.64 39.8834 225.658 39.8834C226.73 39.8834 227.918 39.7003 228.867 39.4192" fill="black"/>
<path d="M23.6897 29.9994H31.5866V22.9215C30.4242 23.6031 29.0787 24 27.6387 24C23.2769 24 19.7418 20.4185 19.7418 15.9996C19.7418 11.5818 23.2769 7.99921 27.6387 7.99921C29.0787 7.99921 30.4242 8.39728 31.5866 9.07885V0H0V48H13.8199V39.9996C13.8199 34.4774 18.2389 29.9994 23.6897 29.9994Z" fill="black"/>
</svg>
