<svg width="97" height="20" viewBox="0 0 97 20" fill="none" xmlns="http://www.w3.org/2000/svg">
<path d="M23.333 4.01678H30.8849V5.83782H25.4223L25.4218 9.45334H30.4395V11.2749L25.4218 11.2744V16.5156L23.3325 16.5151" fill="black"/>
<path d="M39.0433 12.0161C39.0433 10.2841 37.9541 9.06994 36.3649 9.06994C34.758 9.06994 33.6865 10.2841 33.6865 12.0161C33.6865 13.7481 34.758 14.9623 36.3649 14.9623C37.9541 14.9628 39.0433 13.7481 39.0433 12.0161ZM31.7227 12.0161C31.7227 9.31996 33.6511 7.37341 36.3649 7.37341C39.061 7.37391 41.0076 9.31996 41.0076 12.0161C41.0071 14.7122 39.061 16.6583 36.3649 16.6583C33.6506 16.6583 31.7222 14.7122 31.7227 12.0161Z" fill="black"/>
<path d="M49.3848 12.0166C49.3848 10.2841 48.2956 9.07043 46.7064 9.07043C45.0994 9.07043 44.028 10.2841 44.028 12.0166C44.028 13.7481 45.0994 14.9628 46.7064 14.9628C48.2956 14.9628 49.3848 13.7486 49.3848 12.0166ZM42.0642 12.0166C42.0642 9.31996 43.9925 7.3739 46.7064 7.3739C49.4025 7.3739 51.3486 9.32045 51.3486 12.0166C51.3486 14.7127 49.4025 16.6588 46.7064 16.6588C43.992 16.6588 42.0637 14.7122 42.0642 12.0166Z" fill="black"/>
<path d="M66.6587 12.0171C66.6587 10.2315 65.6227 9.07092 64.0517 9.07092C62.4807 9.07042 61.4446 10.2315 61.4446 12.0166C61.4446 13.7845 62.4807 14.9632 64.0517 14.9632C65.6227 14.9632 66.6587 13.7845 66.6587 12.0171ZM59.6226 7.51712H61.5696V8.65995C62.0697 7.92809 63.1229 7.37439 64.3731 7.37439C67.0338 7.37439 68.6053 9.30273 68.6053 12.0171C68.6038 14.7309 66.9619 16.6593 64.2658 16.6593C63.1761 16.6593 62.1228 16.1947 61.5696 15.4805V19.7659H59.6226" fill="black"/>
<path d="M77.265 7.51762H79.2115L79.2101 16.5166H77.265V7.51762ZM76.9785 4.76784C76.9785 4.0537 77.514 3.5 78.2287 3.5C78.9605 3.5 79.5152 4.0537 79.5152 4.76784C79.5152 5.46427 78.9605 6.01747 78.2287 6.01747C77.514 6.01747 76.9785 5.46427 76.9785 4.76784Z" fill="black"/>
<path d="M81.5522 7.51761H83.4988V9.01776C84.1051 8.05359 85.1407 7.37488 86.4626 7.37488C88.3728 7.37488 89.712 8.64272 89.712 10.5888V16.517H87.7654L87.7664 11.0357C87.7664 9.91007 87.07 9.12456 85.9272 9.12456C84.4088 9.12456 83.4988 10.4101 83.4988 12.5708L83.4978 16.517H81.5522" fill="black"/>
<path d="M75.7844 7.49595C75.526 7.41524 75.1909 7.37488 74.8961 7.37488C73.8074 7.37439 72.6291 8.16039 72.1468 9.23185V7.51761L70.2002 7.51712V16.5165H72.1468V13.1599C72.1468 10.3747 73.3073 9.19592 74.6288 9.19592C75.0373 9.19592 75.463 9.2668 75.7844 9.40854" fill="black"/>
<path d="M57.7355 14.6985C57.3964 14.8589 56.9352 14.9273 56.5961 14.9273C55.8643 14.9273 55.3642 14.4627 55.3642 13.5699V9.17776H57.7291V7.51716L55.3642 7.51667V4.83875H53.4187V7.51667H51.8467V9.17726L53.4187 9.17776V13.6772C53.4187 15.7306 54.686 16.6588 56.382 16.6588C56.8344 16.6588 57.3359 16.5825 57.7355 16.4654" fill="black"/>
<path d="M96.6105 14.6994C96.2714 14.8598 95.8093 14.9283 95.4702 14.9283C94.7383 14.9283 94.2378 14.4637 94.2378 13.5709L94.2392 9.17867H96.6026V7.51808L94.2392 7.51758V4.83966H92.2927V7.51758H90.7212V9.17818L92.2927 9.17867V13.6782C92.2927 15.7315 93.56 16.6597 95.2561 16.6597C95.7084 16.6597 96.2099 16.5835 96.6105 16.4663" fill="black"/>
<path d="M10 12.4998H13.3335V9.55064C12.8428 9.83463 12.2748 10 11.667 10C9.82578 10 8.3335 8.50773 8.3335 6.6665C8.3335 4.82577 9.82578 3.33301 11.667 3.33301C12.2748 3.33301 12.8428 3.49887 13.3335 3.78285V0H0V20H5.83375V16.6665C5.83375 14.3656 7.69909 12.4998 10 12.4998Z" fill="black"/>
</svg>
