<svg width="277" height="68" viewBox="0 0 277 68" fill="none" xmlns="http://www.w3.org/2000/svg">
<g clip-path="url(#clip0_5349_1265)">
<path d="M20.488 43.4883H13.0791V51.3602H20.488V43.4883Z" fill="black"/>
<path d="M31.1393 33.2998H23.7305V51.3588H31.1393V33.2998Z" fill="black"/>
<path d="M41.7877 22.6499H34.3789V51.359H41.7877V22.6499Z" fill="black"/>
<path d="M52.4373 11.999H45.0283V51.3585H52.4373V11.999Z" fill="black"/>
<path d="M20.489 33.2998H13.0801V36.5411H20.489V33.2998Z" fill="black"/>
<path d="M31.1393 22.6499H13.0801V27.0489H31.1393V22.6499Z" fill="black"/>
<path d="M20.488 11.999H13.0791V17.0926H20.488V11.999Z" fill="black"/>
<path d="M41.7897 11.999H23.7305V17.0926H41.7897V11.999Z" fill="black"/>
<path d="M60.5449 32.0028C60.5449 22.6506 66.4151 15.5171 75.7303 15.5171C79.3373 15.5171 82.2803 16.5224 84.4531 18.1958C86.989 20.1461 88.4898 23.0123 88.8515 26.2797H82.2617C81.7182 23.1647 79.3671 21.0783 75.7231 21.0783C70.0222 21.0783 67.3038 25.8316 67.3038 32.0028C67.3038 38.174 70.5804 42.883 75.7671 42.883C79.4699 42.883 82.056 40.6423 82.4452 37.3804H88.9617C88.7779 40.2159 87.5512 42.9343 85.4279 44.9327C83.2241 47.0118 80.153 48.3195 75.7746 48.3195C66.8484 48.3195 60.5449 41.4725 60.5449 32.0028Z" fill="black"/>
<path d="M108.296 36.3728C108.296 32.0162 106.291 29.0555 102.72 29.0555C99.1495 29.0555 97.1513 32.0162 97.1513 36.3728C97.1513 40.7292 99.1129 43.6457 102.72 43.6457C106.327 43.6457 108.296 40.729 108.296 36.3728ZM90.8701 36.3728C90.8701 29.6212 95.6823 24.4272 102.728 24.4272C109.773 24.4272 114.578 29.6214 114.578 36.3728C114.578 43.1239 109.781 48.3181 102.728 48.3181C95.6748 48.3181 90.8701 43.1239 90.8701 36.3728Z" fill="black"/>
<path d="M117.296 25.045H123.254V28.1158H123.386C124.65 25.9999 126.847 24.4204 129.998 24.4204C132.878 24.4204 135.163 25.9999 136.272 28.3875H136.36C137.94 25.8749 140.328 24.4204 143.2 24.4204C148.019 24.4204 150.686 27.572 150.686 32.5311V47.6503H144.493V33.5888C144.493 31.0544 143.259 29.7172 141.062 29.7172C138.587 29.7172 137.088 31.6494 137.088 34.5955V47.6504H130.895V33.589C130.895 31.0547 129.66 29.7175 127.464 29.7175C125.069 29.7175 123.49 31.6497 123.49 34.5956V47.6506H117.296L117.296 25.045Z" fill="black"/>
<path d="M170.608 36.557C170.608 32.3473 169.117 29.4234 165.517 29.4234C161.917 29.4234 160.36 32.5679 160.36 36.557C160.36 40.5462 162.233 43.2425 165.723 43.2425C168.713 43.2425 170.608 40.7591 170.608 36.557ZM154.313 25.045H160.272V27.8514H160.404C161.873 25.8605 164.004 24.4204 167.089 24.4204C173.084 24.4204 176.89 29.3573 176.89 36.3659C176.89 43.3744 172.93 48.3188 167.097 48.3188C163.967 48.3188 161.895 47.0626 160.595 45.1305H160.507V55.0628H154.313V25.045Z" fill="black"/>
<path d="M195.949 36.3728C195.949 32.0162 193.943 29.0555 190.373 29.0555C186.802 29.0555 184.804 32.0162 184.804 36.3728C184.804 40.7292 186.765 43.6457 190.373 43.6457C193.979 43.6457 195.949 40.729 195.949 36.3728ZM178.522 36.3728C178.522 29.6212 183.335 24.4272 190.38 24.4272C197.426 24.4272 202.23 29.6214 202.23 36.3728C202.23 43.1239 197.433 48.3181 190.38 48.3181C183.327 48.3181 178.522 43.1239 178.522 36.3728Z" fill="black"/>
<path d="M203.542 40.3329H209.302C209.677 42.8749 211.469 44.0138 214.107 44.0138C216.743 44.0138 218.148 43.0366 218.148 41.4717C218.148 39.334 215.306 39.1063 212.234 38.5111C208.202 37.73 204.195 36.645 204.195 31.6494C204.195 26.6539 208.31 24.4204 213.497 24.4204C219.52 24.4204 222.849 27.3443 223.276 31.8699H217.654C217.391 29.5116 215.878 28.674 213.416 28.674C211.175 28.674 209.662 29.5189 209.662 31.1131C209.662 32.9939 212.585 33.1775 215.745 33.8164C219.565 34.588 223.834 35.6384 223.834 41.0088C223.834 45.615 219.874 48.3185 214.188 48.3185C207.612 48.3185 203.872 45.1672 203.542 40.3329Z" fill="black"/>
<path d="M241.639 33.9047C241.447 31.0691 239.588 29.1294 236.922 29.1294C233.821 29.1294 232.302 30.9956 231.779 33.9047H241.639ZM225.602 36.3218C225.602 29.6146 230.17 24.4204 236.827 24.4204C240.595 24.4204 243.45 25.9135 245.336 28.4564C247.15 30.8351 248.074 34.1697 248.067 38.0704H231.699C232.14 41.4793 234.035 43.5951 237.356 43.5951C239.619 43.5951 240.963 42.5738 241.616 40.9063H247.708C247.245 43.0748 245.958 45.0744 243.947 46.444C242.24 47.6078 240.049 48.3115 237.378 48.3115C229.892 48.3115 225.602 43.0809 225.602 36.3218Z" fill="black"/>
<path d="M256.74 28.6447H256.873C258.276 26.066 259.87 24.7656 262.529 24.7656C263.191 24.7656 263.595 24.8096 263.939 24.9418V30.3416H263.799C259.796 29.9081 256.975 31.9943 256.975 36.7771V47.6502H250.781V25.045H256.74V28.6447Z" fill="black"/>
</g>
<defs>
<clipPath id="clip0_5349_1265">
<rect width="253" height="43.0638" fill="white" transform="translate(12 12)"/>
</clipPath>
</defs>
</svg>
