<svg fill="none" height="56" viewBox="0 0 56 56" width="56" xmlns="http://www.w3.org/2000/svg"><g stroke="#000"><path d="m41.215 35.7075-8.9138-4.4846-.1471-.074-.0525.1561-3.1249 9.2875-14.1671-7.1298 8.0155-22.5174v-.0002c.2053-.5782.8714-.8416 1.4179-.5633l13.1085 6.7035z" fill="#fff" stroke-width=".285739"/><g stroke-linecap="round" stroke-linejoin="round"><g stroke-width="1.14296"><path d="m27.4138 45.6975c.0342-.0972-.0286-.12.0028-.2172.0314-.0971.0915-.08.1229-.1771.0314-.0972.1029-.0743.1343-.1715.0314-.0971.0314-.0971.0657-.1971s.0114-.1058.0429-.2029c.0314-.0972.0771-.0829.1114-.18.0343-.0972-.0629-.1286-.0314-.2258.0314-.0971-.0086-.1114.0228-.2086.0315-.0971.04-.0942.0715-.1943.0314-.1.0885-.08.12-.1771.0314-.0972.0543-.0914.0886-.1886.0342-.0972.0057-.1057.04-.2057.0342-.1-.0286-.1172.0057-.2172s.0285-.1.0628-.1972c.0343-.0971.1343-.0657.1658-.1628.0314-.0972.0485-.0915.0828-.1915s-.08-.1371-.0485-.2343c.0314-.0971.1542-.0571.1857-.1571.0314-.1-.0829-.1372-.0486-.2343.0343-.0972.0029-.1086.0372-.2058.0342-.0971.0857-.08.12-.1771.0343-.0972.0457-.0943.08-.1943s.0428-.0943.0771-.1943.06-.0915.0915-.1886c.0314-.0972.0771-.0829.1114-.1829s.0429-.0943.0771-.1914c.0343-.0972-.1057-.1429-.0714-.2401.0343-.0971.1772-.0485.2086-.1457.0314-.0971-.0086-.1114.0257-.2086.0343-.0971 0-.1086.0343-.2029.0343-.0942.0343-.0971.0686-.1943.0343-.0971 0-.1085.0314-.2057.0314-.0971.0286-.0971.06-.1943.0314-.0971.1457-.06.1772-.1571.0314-.0972 0-.1086.0343-.2029s-.0515-.1257-.02-.2229c.0314-.0971.0285-.1.06-.1943.0314-.0943.0657-.0857.0971-.1829.0314-.0971-.0314-.12 0-.2171.0314-.0972.1657-.0515.1972-.1486.0314-.0972.0457-.0915.08-.1886.0343-.0972-.1315-.1514-.1-.2486.0314-.0971.1-.0743.1314-.1714.0314-.0972.1257-.0658.1572-.1629.0314-.0972-.0372-.12-.0057-.2172.0314-.0971.0742-.0828.1057-.18.0314-.0971.0257-.1.0571-.1971.0315-.0972-.0828-.1372-.0485-.2344.0342-.0971.1485-.0571.1828-.1543.0343-.0971-.0771-.1342-.0457-.2314.0314-.0971.0314-.0972.0629-.1943.0314-.0972.18-.0486.2143-.1457.0343-.0972-.0829-.1372-.0486-.2343.0343-.0972-.0229-.1172.0086-.2143.0314-.0972.1428-.06.1743-.1572.0314-.0971-.0629-.1286-.0315-.2257.0315-.0972.1029-.0743.1343-.1715.0315-.0971-.0457-.1228-.0114-.22.0343-.0971.0343-.0971.0686-.1943.0343-.0971.1686-.0514.2-.1486.0314-.0971.0457-.0914.08-.1886.0343-.0971-.0286-.1171.0029-.2143.0314-.0971.0943-.0771.1285-.1743.0343-.0971.0172-.1028.0486-.2.0315-.0971-.0857-.1371-.0514-.2343.0343-.0971.0657-.0857.1-.1829.0343-.0971.1314-.0628.1629-.16.0314-.0971-.0972-.14-.0629-.2371.0343-.0972.12-.0658.1514-.1629.0315-.0972-.0114-.1115.0201-.2086.0314-.0972.0542-.0886.0857-.1857.0314-.0972 0-.1086.0314-.2058.0314-.0971.04-.0943.0743-.1914.0343-.0972.1486-.0572.1829-.1543.0343-.0972-.0458-.1229-.0115-.22.0343-.0972-.0628-.1286-.0314-.2258.0314-.0971.1657-.0514.1972-.1514.0314-.1.0285-.1.06-.1972.0314-.0971-.0829-.1371-.0486-.2343.0343-.0971.0286-.1.06-.1971.0314-.0972.1629-.0543.1943-.1515.0314-.0971-.1057-.1428-.0743-.24.0314-.0971.04-.0943.0743-.1914.0343-.0972.1514-.0572.1829-.1543.0314-.0972.0457-.0915.0771-.1886.0315-.0972.0143-.1029.0486-.2.0343-.0972.0543-.0886.0886-.1858.0343-.0971-.0257-.1171.0086-.2143.0342-.0971-.0372-.12-.0058-.2171.0315-.0972.02-.1.0515-.1972.0314-.0971.1428-.06.1771-.1571.0343-.0972-.0143-.1143.0172-.2115.0314-.0971.0971-.0771.1286-.1743.0314-.0971-.0486-.1257-.0172-.2229.0314-.0971.0714-.0857.1057-.1828.0343-.0972.0686-.0858.1-.1829.0315-.0972-.0057-.1115.0258-.2086.0314-.0972.0114-.1057.0428-.2029.0315-.0971.14-.06.1743-.1571.0343-.0972-.1143-.1458-.08-.2429.0343-.0972.1429-.06.1743-.1572.0314-.0971-.04-.1228-.0086-.22.0315-.0971.1229-.0657.1572-.1657s-.0743-.1343-.04-.2315c.0343-.0971-.0143-.1143.02-.2114.0343-.0972.1-.0743.1314-.1743.0315-.1.0629-.0886.0972-.1857.0343-.0972 0-.1086.0314-.2058.0315-.0971.1315-.0657.1629-.1628.0314-.0972-.1343-.1543-.1029-.2515.0315-.0972.0543-.0914.0857-.1886.0315-.0971.1572-.0571.1915-.1543.0343-.0971-.0943-.14-.06-.2371.0343-.0972.1371-.0629.1714-.1601.0343-.0971.04-.0943.0743-.1914.0343-.0972-.0914-.14-.0571-.2372.0343-.0971.0971-.0743.1314-.1714.0343-.0972 0-.1086.0314-.2057.0315-.0972.1486-.0572.1829-.1543.0343-.0972.0515-.0915.0857-.1886.0343-.0972-.0314-.12 0-.2172.0315-.0971.0772-.0829.1115-.18.0343-.0972-.0372-.12-.0029-.22s.0086-.1058.0429-.2029c.0343-.0972.04-.0972.0714-.1943.0314-.0972.0229-.1.0572-.2s.08-.0829.1114-.18c.0314-.0972-.0571-.1286-.0257-.2286s.1771-.0486.2114-.1486-.0371-.12-.0028-.22-.0057-.1115.0257-.2086c.0314-.0972.0914-.08.1229-.1772.0314-.0971.0685-.0857.1028-.1857s-.0771-.1372-.0457-.2343c.0314-.0972.0314-.1.0657-.1972"/><path d="m29.0253 40.8656c-.0609-.0305-.1219-.0609-.1828-.0914-.0915-.0457-.02-.1886-.1115-.2343-.0914-.0457-.0971-.0343-.1886-.08-.0914-.0457-.1257.0228-.2171-.0229-.0915-.0457-.0772-.0714-.1686-.1171-.0915-.0458-.0886-.0486-.18-.0915-.0915-.0428-.1229.0229-.2143-.0228-.0915-.0458-.0658-.0915-.1572-.1372s-.1171.0057-.2057-.0371c-.0886-.0429-.0372-.1486-.1286-.1943-.0914-.0458-.0829-.06-.1743-.1058-.0914-.0457-.0772-.0743-.1657-.1171-.0886-.0429-.1258.0228-.2143-.0229-.0886-.0457-.06-.1057-.1515-.1514-.0914-.0457-.0943-.04-.1857-.0857-.0914-.0458-.1429.06-.2343.0143-.0915-.0458-.1057-.0172-.1972-.0629-.0914-.0457-.0914-.0457-.1829-.0914-.0914-.0458-.0485-.1315-.1371-.1772s-.1343.0429-.2257-.0029c-.0915-.0457-.0886-.0514-.1801-.0971-.0914-.0457-.0285-.1686-.12-.2143-.0914-.0457-.1228.0171-.2143-.0286-.0914-.0457-.0971-.0371-.1886-.0829-.0914-.0457-.1285.0315-.22-.0171-.0914-.0486-.02-.1886-.1114-.2343-.0915-.0457-.14.0486-.2315.0029-.0914-.0458-.04-.1458-.1314-.1915s-.1229.0171-.2143-.0286-.0686-.0885-.16-.1343c-.0915-.0457-.1172.0057-.2086-.04s-.0429-.14-.1343-.1857-.1143 0-.2029-.0457-.1457.0628-.2371.0171c-.0915-.0457-.02-.1857-.1115-.2314-.0914-.0457-.1429.0571-.2343.0114s-.0343-.1629-.1257-.2086-.1315.0343-.2229-.0114-.0514-.1257-.1429-.1715c-.0914-.0457-.1743.1201-.2657.0743-.0914-.0457-.0943-.0428-.1857-.0885-.0915-.0458-.0572-.1172-.1486-.1629s-.1029-.0257-.1943-.0714c-.0914-.0458-.0314-.1658-.1229-.2115-.0914-.0457-.14.0514-.2314.0057-.0915-.0457-.0657-.0971-.1572-.1428-.0914-.0458-.1029-.0229-.1943-.0686s-.0771-.0743-.1686-.12c-.0914-.0458-.0743-.0772-.1657-.1258-.0914-.0485-.1257.02-.2172-.0257-.0914-.0457-.1314.0343-.2228-.0114-.0915-.0457-.0143-.2029-.1058-.2486-.0914-.0457-.1314.0314-.2228-.0143-.0915-.0457-.1343.04-.2258-.0057-.0914-.0457-.0371-.1543-.1286-.2-.0914-.0457-.1028-.0257-.1943-.0715-.0914-.0457-.1171.0029-.2085-.0428-.0915-.0457-.0343-.1572-.1286-.2029s-.1658.1-.2572.0543-.02-.1857-.1114-.2314c-.0915-.0458-.1086-.0115-.2001-.0572-.0914-.0457-.1342.04-.2257-.0057-.0914-.0457-.0514-.1286-.1429-.1743-.0914-.0457-.0628-.1029-.1543-.1514-.0914-.0486-.0971-.0343-.1885-.0801-.0915-.0457-.1229.0143-.2143-.0342-.0915-.0486-.0543-.1172-.1458-.1629-.0914-.0457-.0943-.04-.1857-.0886s-.1543.08-.2486.0314c-.0943-.0485-.0943-.0428-.1857-.0885-.0915-.0458-.0715-.0886-.1629-.1343-.0914-.0458-.06-.1115-.1514-.1572-.0915-.0457-.1601.0914-.2543.0457-.0943-.0457-.0658-.1-.1572-.1457s-.06-.1114-.1514-.1572c-.0915-.0457-.0915-.0457-.1858-.0914s-.1228.0143-.2171-.0314-.1143-.0057-.2058-.0515c-.0914-.0457-.0657-.1028-.1571-.1485"/><path d="m41.3692 36.0536c-.0914-.0457-.0457-.1343-.1371-.18s-.0857-.0572-.1772-.1029c-.0914-.0457-.08-.0657-.1714-.1114s-.0829-.0657-.1743-.1115c-.0914-.0457-.16.0886-.2515.0429-.0914-.0457-.0885-.0486-.18-.0943-.0914-.0457-.0886-.0514-.18-.0971-.0914-.0458-.0486-.1343-.14-.1801-.0914-.0457-.0943-.0428-.1857-.0885-.0915-.0458-.0829-.0658-.1743-.1115-.0915-.0457-.1486.0657-.2401.02-.0914-.0457-.0342-.16-.1257-.2057-.0914-.0457-.1028-.0229-.1943-.0714-.0914-.0486-.1314.0371-.2229-.0115-.0914-.0485-.0457-.1371-.1371-.1828-.0915-.0458-.0972-.0315-.1886-.08-.0914-.0486-.0572-.1143-.1486-.1629s-.1629.0971-.2543.0514-.08-.0657-.1714-.1143c-.0915-.0486-.0515-.1286-.1429-.1743s-.0914-.0486-.1829-.0971c-.0914-.0486-.1028-.0229-.1943-.0715-.0914-.0485-.0886-.0543-.18-.1s-.0686-.0886-.1629-.1343-.1171.0029-.2086-.0428c-.0914-.0458-.0628-.1058-.1543-.1515-.0914-.0457-.0857-.06-.1771-.1057-.0915-.0457-.1543.08-.2458.0314-.0914-.0485-.0742-.08-.1657-.1257-.0914-.0457-.1086-.0114-.2-.0571-.0914-.0458-.0971-.0343-.1886-.08-.0914-.0458-.0743-.0772-.1657-.1229s-.0914-.0457-.1829-.0943c-.0914-.0486-.0457-.14-.1371-.1857-.0915-.0458-.1372.0457-.2315 0-.0943-.0458-.1257.0228-.2172-.0258-.0914-.0485-.0028-.22-.0971-.2657s-.1029-.02-.1972-.0686c-.0943-.0485-.1485.0686-.24.02-.0914-.0485-.1-.0314-.1914-.0771-.0915-.0457-.0429-.1429-.1372-.1886s-.1057-.02-.1971-.0657c-.0915-.0457-.0886-.0543-.1801-.1-.0914-.0457-.1228.0143-.2171-.0315-.0943-.0457-.04-.1485-.1315-.1943-.0914-.0457-.1343.0372-.2257-.0085-.0914-.0458-.0371-.1543-.1314-.2029s-.1486.0629-.2401.0143c-.0914-.0486-.0342-.1629-.1257-.2115-.0914-.0485-.1028-.0257-.1971-.0714"/><path d="m42.0636 39.4854c-.02-.1-.0143-.1029-.0343-.2029s0-.1057-.0229-.2057c-.0228-.1.0115-.1057-.0085-.2086-.02-.1028.0228-.1086 0-.2114-.0229-.1029-.1658-.0715-.1858-.1743-.02-.1029.0943-.1229.0743-.2258-.02-.1028-.0514-.0943-.0714-.1971-.02-.1029-.0972-.0857-.1172-.1858-.02-.1.1658-.1371.1458-.24-.02-.1028-.0572-.0943-.0772-.1943s-.0714-.0914-.0914-.1914-.0772-.0886-.0972-.1915c-.02-.1028.06-.1171.04-.2171s-.1485-.0743-.1685-.1772c-.0201-.1029.0085-.1086-.0115-.2086s0-.1057-.02-.2057.0457-.1143.0257-.2172c-.02-.1028-.1171-.0828-.1371-.1828-.02-.1001.0257-.1115.0057-.2115s.0514-.1143.0314-.2172c-.02-.1028-.1514-.0742-.1714-.1771s.0514-.1143.0314-.2172c-.02-.1028.0114-.1057-.0086-.2086-.02-.1028-.0857-.0885-.1057-.1885-.02-.1001.0086-.1058-.0143-.2086-.0228-.1029.0172-.1086-.0057-.2086-.0228-.1-.0086-.1029-.0286-.2029s-.1142-.0829-.1343-.1829c-.02-.1.0286-.1114.0086-.2114s.0372-.1115.0172-.2143c-.02-.1029.0457-.1143.0257-.2143s-.0314-.1-.0515-.2c-.02-.1001-.1628-.0743-.1828-.1743-.02-.1001.1143-.1286.0943-.2286s-.0372-.0972-.0572-.2001c-.02-.1028-.04-.0971-.06-.2-.02-.1028-.0257-.1-.0457-.2028-.02-.1029-.1486-.0772-.1686-.1772s0-.1057-.0171-.2057c-.0172-.1.0828-.12.0628-.2229s-.14-.0772-.16-.1772.0572-.1171.0372-.2171-.0772-.0886-.0972-.1915c-.02-.1028-.0514-.0943-.0714-.1971-.02-.1029.14-.1315.12-.2343-.02-.1029-.1543-.0743-.1743-.1772s-.0372-.0972-.0572-.2c-.02-.1029.0658-.12.0458-.22s-.0058-.1029-.0258-.2058c-.02-.1028.0429-.1143.0229-.2143s-.0629-.0914-.0829-.1943c-.02-.1028-.0085-.1028-.0285-.2028-.02-.1001-.0172-.1001-.0372-.2029-.02-.1029-.0428-.0972-.0628-.1972s-.0743-.0914-.0943-.1914.0142-.1086-.0058-.2086.0743-.12.0543-.22-.0657-.0915-.0857-.1915-.0571-.0943-.0771-.1943-.0372-.0971-.0572-.1971c-.02-.1001-.0714-.0915-.0914-.1915s.0771-.12.0571-.2229c-.02-.1028.0286-.1114.0086-.2114s-.1857-.0686-.2057-.1715c-.02-.1028.1057-.1257.0857-.2285-.02-.1029-.1257-.0801-.1457-.1829-.02-.1029 0-.1057-.02-.2058-.02-.1.02-.1085 0-.2114s-.1143-.0829-.1343-.1829.1428-.1343.1228-.2343-.1428-.0771-.1628-.1771-.0458-.0972-.0658-.1972-.0028-.1057-.0228-.2057.0257-.1115.0057-.2115.0686-.12.0486-.22-.1343-.08-.1543-.18.02-.1086 0-.2115c-.02-.1028-.0943-.0857-.1143-.1885-.02-.1029.0486-.1143.0286-.2172-.0201-.1029.0257-.1114.0057-.2115-.02-.1-.0057-.1057-.0258-.2057-.02-.1-.0028-.1057-.0228-.2057s-.1314-.08-.1543-.18.0714-.12.0486-.22c-.0229-.1001-.14-.0772-.16-.1801-.02-.1028-.0058-.1028-.0258-.2057s.0343-.1114.0143-.2114c-.02-.1001-.0771-.0915-.0971-.1915s.0371-.1143.0171-.2143-.0428-.0971-.0628-.2.0228-.1114.0028-.2115c-.02-.1-.0228-.1-.0428-.2028-.0201-.1029-.1343-.08-.1543-.18-.0201-.1001.1285-.1315.1057-.2344-.0229-.1028-.1629-.0742-.1829-.1743-.02-.1.1429-.1342.1229-.2371s-.0029-.1057-.0229-.2086-.12-.0829-.14-.1857c-.02-.1029-.0229-.1029-.0429-.2029s0-.1057-.02-.2086-.06-.0943-.08-.1972c-.02-.1028-.0228-.1028-.0428-.2057s-.0229-.1029-.0429-.2057c-.02-.1029.0057-.1086-.0143-.2115-.0143-.0685-.0057-.1428-.0257-.2114s-.1486-.1-.1714-.1657c-.0229-.0658.0743-.1772.0485-.2429-.0257-.0657-.1143-.1029-.1457-.1658-.0314-.0628-.04-.14-.0743-.2s-.12-.0885-.1629-.1457c-.0428-.0571.0315-.2029-.0142-.2572-.0458-.0543-.1315-.0771-.1801-.1285-.0485-.0515-.1543-.0429-.2057-.0915s-.1114-.08-.1686-.1257c-.0571-.0457-.0771-.1286-.1343-.1686-.0571-.04-.1028-.1-.1657-.1371-.0629-.0372-.1514-.0172-.2143-.0486-.0914-.0457-.0943-.04-.1886-.0857-.0943-.0458-.0971-.0372-.1886-.0829-.0914-.0457-.06-.1114-.1514-.1572-.0915-.0457-.0943-.0428-.1857-.0914-.0915-.0486-.1201.0086-.2115-.04s-.1114-.0086-.2029-.0571c-.0914-.0486-.04-.1486-.1343-.1944-.0943-.0457-.0743-.08-.1686-.1285-.0942-.0486-.1285.0228-.22-.0229-.0914-.0457-.0514-.1314-.1428-.1772-.0915-.0457-.1115-.0085-.2029-.0571-.0915-.0486-.0772-.0771-.1686-.1257s-.0943-.04-.1857-.0886c-.0915-.0486-.14.0486-.2315 0-.0914-.0486-.1171.0057-.2086-.0429-.0914-.0485-.06-.1085-.1514-.1543-.0914-.0457-.1029-.0285-.1943-.0743-.0915-.0457-.1-.0342-.1915-.08-.0914-.0457-.0971-.04-.1885-.0857-.0915-.0457-.0715-.0886-.1629-.1343-.0915-.0457-.0743-.08-.1686-.1257s-.1257.02-.2172-.0257c-.0914-.0457-.0857-.06-.1771-.1057-.0915-.0458-.1057-.02-.1972-.0686-.0914-.0486-.0714-.0915-.1629-.1372-.0914-.0457-.1-.0314-.1943-.0771s-.0571-.1172-.1485-.1629c-.0915-.0457-.1315.0343-.2258-.0143s-.0828-.0657-.1743-.1143c-.0914-.0486-.0914-.0486-.1828-.0971-.0915-.0486-.1172 0-.2086-.0458-.0915-.0457-.0229-.1857-.1143-.2314-.0915-.0457-.12.0086-.2115-.04-.0914-.0486-.1343.0343-.2257-.0114-.0915-.0457-.0657-.1-.16-.1458-.0943-.0457-.1286.0229-.22-.0228-.0915-.0457-.0486-.1372-.1401-.1829-.0914-.0457-.1257.0172-.2171-.0286-.0915-.0457-.0372-.16-.1286-.2057s-.1343.0371-.2286-.0086-.1143 0-.2086-.0485c-.0943-.0486-.0457-.1429-.1371-.1886-.0915-.0458-.0915-.0486-.1858-.0972s-.0828-.0686-.1743-.1143c-.0914-.0457-.0743-.0857-.1657-.1314s-.1772.12-.2686.0743-.0686-.0943-.16-.14c-.0914-.0458-.0629-.1029-.1572-.1486s-.1114-.0057-.2057-.0543-.1143-.0057-.2057-.0543c-.0915-.0486-.0857-.0629-.18-.1086s-.1143-.0057-.2058-.0543c-.0914-.0485-.0143-.2028-.1057-.2514s-.1572.0828-.2514.0343c-.0943-.0486-.0858-.06-.1801-.1086s-.0828-.0657-.1771-.1115c-.0943-.0457-.0972-.0371-.1915-.0857s-.0543-.1228-.1485-.1686c-.0943-.0457-.1201.0058-.2115-.0428s-.0543-.1257-.1457-.1715c-.0915-.0457-.0915-.0514-.1829-.0971s-.0943-.0457-.1886-.0943-.1771.1171-.2686.0686c-.0914-.0486-.0857-.06-.18-.1086s-.0429-.1486-.1371-.1943c-.0601-.0314-.1601.0457-.2201.0228-.06-.0228-.0828-.2-.1457-.21426-.0629-.01429-.1457.01143-.2114.00571-.0658-.00571-.1343.05425-.2001.06005-.0657.0057-.1485-.08291-.2143-.07148-.0657.01143-.0914.17998-.1543.19998-.0628.02-.1657-.0571-.2228-.0285-.0572.0285-.1172.0685-.1743.1057-.0572.0371-.0829.1114-.1315.1571-.0486.0458-.0343.1429-.0771.1943-.0429.0515-.1972.0115-.2343.0658-.0372.0543-.0143.1486-.0429.2086s-.0371.1228-.06.1885c-.0314.0972-.0571.0886-.0914.1858-.0343.0971-.1229.0657-.1543.1628-.0315.0972-.0286.1001-.06.1972-.0315.0972.0114.1114-.0229.2086-.0343.0971.0829.1372.0514.2343-.0314.0972-.1714.0514-.2057.1486-.0343.0971-.0286.0971-.06.1943-.0314.0971.1257.1514.0914.2486-.0343.0971-.0971.0743-.1285.1714-.0315.0972-.0972.0743-.1315.1715-.0343.0971.0257.1171-.0057.2143-.0314.0971-.1057.0714-.14.1686-.0343.0971.0914.1371.0571.2371s-.1085.0715-.14.1686c-.0314.0972-.0628.0857-.0971.1829-.0343.0971-.0629.0857-.0972.1829-.0343.0971-.0486.0914-.08.1885-.0314.0972.0257.1172-.0086.2143-.0342.0972-.0228.1001-.0571.1972-.0343.0972.0171.1143-.0172.2115-.0342.0971-.1085.0714-.1428.1685-.0343.0972-.02.1029-.0515.2001-.0314.0971-.0028.1085-.0371.2057-.0343.0971.0229.1171-.0114.2143-.0343.0971-.1429.06-.1772.1571-.0343.0972-.0371.0972-.0686.1943-.0314.0972.1143.1486.0829.2458-.0314.0971-.0629.0886-.0943.1857-.0314.0972-.1743.0486-.2086.1486s.0686.1314.0343.2286c-.0343.0971-.0143.1029-.0486.2-.0343.0972.0057.1114-.0285.2086-.0343.0971-.1829.0486-.2143.1457-.0315.0972.1142.1457.08.2429-.0343.0972-.02.1-.0543.2s-.1772.0486-.2086.1457c-.0315.0972-.0086.1058-.04.2029-.0315.0972.02.1143-.0115.2115-.0314.0971-.0485.0914-.0828.1886-.0343.0971-.1229.0685-.1543.1657-.0314.0971.04.1228.0057.22s.0371.12.0029.2172c-.0343.0971-.1201.0685-.1515.1657-.0314.0971.0486.1257.0172.2229-.0315.0971-.0515.0914-.0858.1886-.0343.0971-.0685.0857-.1.1828-.0314.0972-.0657.0857-.0971.1829-.0315.0972-.0543.0914-.0857.1886-.0315.0971.0057.1114-.0258.2086-.0314.0971-.1.0743-.1314.1714-.0314.0972.0829.1372.0514.2343-.0314.0972-.0428.0943-.0743.1915-.0314.0971-.1428.06-.1771.1571-.0343.0972-.0029.1086-.0372.2058-.0343.0971.0429.1228.0086.22-.0343.0971-.0886.08-.1229.1771-.0343.0972-.0371.0972-.0685.1943-.0315.0972.1.1429.0685.2401-.0314.0971-.1343.0628-.1685.16-.0343.0971-.0743.0828-.1086.18-.0343.0971 0 .1086-.0315.2057-.0314.0972.08.1343.0458.2315-.0343.0971-.1515.0571-.1829.1543-.0314.0971-.0543.0914-.0857.1886-.0315.0971 0 .1085-.0343.2057-.0343.0971.04.1229.0057.22-.0343.0972-.0829.08-.1143.18s-.0714.0857-.1057.1829c-.0343.0971.0314.12 0 .2172-.0315.0971-.0257.1-.0572.1971-.0314.0972-.02.1029-.0543.2-.0343.0972-.0314.0972-.0628.1943-.0315.0972 0 .1086-.0315.2058-.0314.0971-.1571.0543-.1885.1514-.0315.0972.0857.1372.0542.2343-.0314.0972-.0943.0772-.1257.1743-.0314.0972-.0057.1057-.04.2029-.0343.0971-.0686.0857-.1029.1829-.0342.0971.0029.1085-.0285.2057-.0315.0971-.04.0943-.0743.1914-.0343.0972-.1029.0743-.1372.1715-.0343.0971.0829.1371.0515.2343-.0315.0971-.1315.0657-.1658.1629-.0343.0971.0315.12 0 .2171-.0314.0972-.0428.0943-.0771.1915-.0343.0971-.0543.0914-.0886.1886-.0343.0971.0143.1143-.02.2114-.0343.0972-.0057.1057-.0371.2029-.0315.0971-.0315.0971-.0658.1943-.0343.0971-.1057.0714-.14.1714s-.0543.0915-.0857.1886c-.0314.0972-.0657.0857-.1.1829-.0343.0971-.0857.08-.12.1771-.0343.0972.1114.1458.0771.2429-.0343.0972-.1543.0572-.1886.1543-.0342.0972-.0085.1057-.04.2029-.0314.0971-.04.0943-.0714.1943s.1029.1429.0686.24c-.0343.0972-.1572.0572-.1886.1543-.0314.0972-.0743.0829-.1086.1829s-.0371.0971-.0686.1943c-.0314.0971.1.1429.0658.24-.0343.0972-.1029.0743-.1343.1715-.0315.0971-.0629.0885-.0943.1857-.0315.0971-.0257.1-.0572.1971-.0314.0972.02.1172-.0114.2143-.0314.0972.0286.1172-.0057.2172s-.16.0543-.1943.1514c-.0343.0972.0285.1201-.0029.2172-.0314.0972-.1171.0714-.1486.1686-.0314.0971-.0228.1-.0571.2s.0086.1115-.0257.2086c-.0343.0972-.06.0886-.0915.1886-.0314.1.0143.1143-.02.2114-.0343.0972-.0571.0886-.0914.1886s.06.1286.0286.2286c-.0315.1-.1515.0572-.1858.1572s-.0171.1028-.0485.2028c-.0315.1001-.0743.0858-.1058.1829-.0314.0972.0372.12.0029.22s-.0486.0915-.08.1886c-.0314.0972-.0143.1029-.0486.2-.0343.0972-.08.0829-.1114.1801-.0315.0971 0 .1085-.0343.2057-.0343.0971.02.1143-.0143.2143s-.0914.08-.1257.1772c-.0343.0971-.0172.1028-.0486.2028s.02.1172-.0114.2143c-.0315.0972-.0743.0829-.1086.1829s.06.1286.0257.2286-.2143.0371-.2457.1371c-.0315.1001.0571.1286.0257.2286s-.0915.08-.1229.1772.1115.1457.0772.2457-.1029.0743-.1372.1743-.0343.0972-.0686.1972-.0657.0886-.1.1857c-.0343.0972.0143.1143-.02.2143s.0143.1143-.02.2143-.08.0829-.1143.1829"/><path d="m27.4138 45.6975c.0342-.0972-.0286-.12.0028-.2172.0314-.0971.0915-.08.1229-.1771.0314-.0972.1029-.0743.1343-.1715.0314-.0971.0314-.0971.0657-.1971s.0114-.1058.0429-.2029c.0314-.0972.0771-.0829.1114-.18.0343-.0972-.0629-.1286-.0314-.2258.0314-.0971-.0086-.1114.0228-.2086.0315-.0971.04-.0942.0715-.1943.0314-.1.0885-.08.12-.1771.0314-.0972.0543-.0914.0886-.1886.0342-.0972.0057-.1057.04-.2057.0342-.1-.0286-.1172.0057-.2172s.0285-.1.0628-.1972c.0343-.0971.1343-.0657.1658-.1628.0314-.0972.0485-.0915.0828-.1915s-.08-.1371-.0485-.2343c.0314-.0971.1542-.0571.1857-.1571.0314-.1-.0829-.1372-.0486-.2343.0343-.0972.0029-.1086.0372-.2058.0342-.0971.0857-.08.12-.1771.0343-.0972.0457-.0943.08-.1943s.0428-.0943.0771-.1943.06-.0915.0915-.1886c.0314-.0972.0771-.0829.1114-.1829s.0429-.0943.0771-.1914c.0343-.0972-.1057-.1429-.0714-.2401.0343-.0971.1772-.0485.2086-.1457.0314-.0971-.0086-.1114.0257-.2086.0343-.0971 0-.1086.0343-.2029.0343-.0942.0343-.0971.0686-.1943.0343-.0971 0-.1085.0314-.2057.0314-.0971.0286-.0971.06-.1943.0314-.0971.1457-.06.1772-.1571.0314-.0972 0-.1086.0343-.2029s-.0515-.1257-.02-.2229c.0314-.0971.0285-.1.06-.1943.0314-.0943.0657-.0857.0971-.1829.0314-.0971-.0314-.12 0-.2171.0314-.0972.1657-.0515.1972-.1486.0314-.0972.0457-.0915.08-.1886.0343-.0972-.1315-.1514-.1-.2486.0314-.0971.1-.0743.1314-.1714.0314-.0972.1257-.0658.1572-.1629.0314-.0972-.0372-.12-.0057-.2172.0314-.0971.0742-.0828.1057-.18.0314-.0971.0257-.1.0571-.1971.0315-.0972-.0828-.1372-.0485-.2344.0342-.0971.1485-.0571.1828-.1543.0343-.0971-.0771-.1342-.0457-.2314.0314-.0971.0314-.0972.0629-.1943.0314-.0972.18-.0486.2143-.1457.0343-.0972-.0829-.1372-.0486-.2343.0343-.0972-.0229-.1172.0086-.2143.0314-.0972.1428-.06.1743-.1572.0314-.0971-.0629-.1286-.0315-.2257.0315-.0972.1029-.0743.1343-.1715.0315-.0971-.0457-.1228-.0114-.22.0343-.0971.0343-.0971.0686-.1943.0343-.0971.1686-.0514.2-.1486.0314-.0971.0457-.0914.08-.1886.0343-.0971-.0286-.1171.0029-.2143.0314-.0971.0943-.0771.1285-.1743.0343-.0971.0172-.1028.0486-.2.0315-.0971-.0857-.1371-.0514-.2343.0343-.0971.0657-.0857.1-.1829.0343-.0971.1314-.0628.1629-.16.0314-.0971-.0972-.14-.0629-.2371.0343-.0972.12-.0658.1514-.1629.0315-.0972-.0114-.1115.0201-.2086.0314-.0972.0542-.0886.0857-.1857.0314-.0972 0-.1086.0314-.2058.0314-.0971.04-.0943.0743-.1914.0343-.0972.1486-.0572.1829-.1543.0343-.0972-.0458-.1229-.0115-.22.0343-.0972-.0628-.1286-.0314-.2258.0314-.0971.1657-.0514.1972-.1514.0314-.1.0285-.1.06-.1972.0314-.0971-.0829-.1371-.0486-.2343.0343-.0971.0286-.1.06-.1971.0314-.0972.1629-.0543.1943-.1515.0314-.0971-.1057-.1428-.0743-.24.0314-.0971.04-.0943.0743-.1914.0343-.0972.1514-.0572.1829-.1543.0314-.0972.0457-.0915.0771-.1886.0315-.0972.0143-.1029.0486-.2.0343-.0972.0543-.0886.0886-.1858.0343-.0971-.0257-.1171.0086-.2143.0342-.0971-.0372-.12-.0058-.2171.0315-.0972.02-.1.0515-.1972.0314-.0971.1428-.06.1771-.1571.0343-.0972-.0143-.1143.0172-.2115.0314-.0971.0971-.0771.1286-.1743.0314-.0971-.0486-.1257-.0172-.2229.0314-.0971.0714-.0857.1057-.1828.0343-.0972.0686-.0858.1-.1829.0315-.0972-.0057-.1115.0258-.2086.0314-.0972.0114-.1057.0428-.2029.0315-.0971.14-.06.1743-.1571.0343-.0972-.1143-.1458-.08-.2429.0343-.0972.1429-.06.1743-.1572.0314-.0971-.04-.1228-.0086-.22.0315-.0971.1229-.0657.1572-.1657s-.0743-.1343-.04-.2315c.0343-.0971-.0143-.1143.02-.2114.0343-.0972.1-.0743.1314-.1743.0315-.1.0629-.0886.0972-.1857.0343-.0972 0-.1086.0314-.2058.0315-.0971.1315-.0657.1629-.1628.0314-.0972-.1343-.1543-.1029-.2515.0315-.0972.0543-.0914.0857-.1886.0315-.0971.1572-.0571.1915-.1543.0343-.0971-.0943-.14-.06-.2371.0343-.0972.1371-.0629.1714-.1601.0343-.0971.04-.0943.0743-.1914.0343-.0972-.0914-.14-.0571-.2372.0343-.0971.0971-.0743.1314-.1714.0343-.0972 0-.1086.0314-.2057.0315-.0972.1486-.0572.1829-.1543.0343-.0972.0515-.0915.0857-.1886.0343-.0972-.0314-.12 0-.2172.0315-.0971.0772-.0829.1115-.18.0343-.0972-.0372-.12-.0029-.22s.0086-.1058.0429-.2029c.0343-.0972.04-.0972.0714-.1943.0314-.0972.0229-.1.0572-.2s.08-.0829.1114-.18c.0314-.0972-.0571-.1286-.0257-.2286s.1771-.0486.2114-.1486-.0371-.12-.0028-.22-.0057-.1115.0257-.2086c.0314-.0972.0914-.08.1229-.1772.0314-.0971.0685-.0857.1028-.1857s-.0771-.1372-.0457-.2343c.0314-.0972.0314-.1.0657-.1972"/><path d="m27.4138 45.6975c.0342-.0972-.0286-.12.0028-.2172.0314-.0971.0915-.08.1229-.1771.0314-.0972.1029-.0743.1343-.1715.0314-.0971.0314-.0971.0657-.1971s.0114-.1058.0429-.2029c.0314-.0972.0771-.0829.1114-.18.0343-.0972-.0629-.1286-.0314-.2258.0314-.0971-.0086-.1114.0228-.2086.0315-.0971.04-.0942.0715-.1943.0314-.1.0885-.08.12-.1771.0314-.0972.0543-.0914.0886-.1886.0342-.0972.0057-.1057.04-.2057.0342-.1-.0286-.1172.0057-.2172s.0285-.1.0628-.1972c.0343-.0971.1343-.0657.1658-.1628.0314-.0972.0485-.0915.0828-.1915s-.08-.1371-.0485-.2343c.0314-.0971.1542-.0571.1857-.1571.0314-.1-.0829-.1372-.0486-.2343.0343-.0972.0029-.1086.0372-.2058.0342-.0971.0857-.08.12-.1771.0343-.0972.0457-.0943.08-.1943s.0428-.0943.0771-.1943.06-.0915.0915-.1886c.0314-.0972.0771-.0829.1114-.1829s.0429-.0943.0771-.1914c.0343-.0972-.1057-.1429-.0714-.2401.0343-.0971.1772-.0485.2086-.1457.0314-.0971-.0086-.1114.0257-.2086.0343-.0971 0-.1086.0343-.2029.0343-.0942.0343-.0971.0686-.1943.0343-.0971 0-.1085.0314-.2057.0314-.0971.0286-.0971.06-.1943.0314-.0971.1457-.06.1772-.1571.0314-.0972 0-.1086.0343-.2029s-.0515-.1257-.02-.2229c.0314-.0971.0285-.1.06-.1943.0314-.0943.0657-.0857.0971-.1829.0314-.0971-.0314-.12 0-.2171.0314-.0972.1657-.0515.1972-.1486.0314-.0972.0457-.0915.08-.1886.0343-.0972-.1315-.1514-.1-.2486.0314-.0971.1-.0743.1314-.1714.0314-.0972.1257-.0658.1572-.1629.0314-.0972-.0372-.12-.0057-.2172.0314-.0971.0742-.0828.1057-.18.0314-.0971.0257-.1.0571-.1971.0315-.0972-.0828-.1372-.0485-.2344.0342-.0971.1485-.0571.1828-.1543.0343-.0971-.0771-.1342-.0457-.2314.0314-.0971.0314-.0972.0629-.1943.0314-.0972.18-.0486.2143-.1457.0343-.0972-.0829-.1372-.0486-.2343.0343-.0972-.0229-.1172.0086-.2143.0314-.0972.1428-.06.1743-.1572.0314-.0971-.0629-.1286-.0315-.2257.0315-.0972.1029-.0743.1343-.1715.0315-.0971-.0457-.1228-.0114-.22.0343-.0971.0343-.0971.0686-.1943.0343-.0971.1686-.0514.2-.1486.0314-.0971.0457-.0914.08-.1886.0343-.0971-.0286-.1171.0029-.2143.0314-.0971.0943-.0771.1285-.1743.0343-.0971.0172-.1028.0486-.2.0315-.0971-.0857-.1371-.0514-.2343.0343-.0971.0657-.0857.1-.1829.0343-.0971.1314-.0628.1629-.16.0314-.0971-.0972-.14-.0629-.2371.0343-.0972.12-.0658.1514-.1629.0315-.0972-.0114-.1115.0201-.2086.0314-.0972.0542-.0886.0857-.1857.0314-.0972 0-.1086.0314-.2058.0314-.0971.04-.0943.0743-.1914.0343-.0972.1486-.0572.1829-.1543.0343-.0972-.0458-.1229-.0115-.22.0343-.0972-.0628-.1286-.0314-.2258.0314-.0971.1657-.0514.1972-.1514.0314-.1.0285-.1.06-.1972.0314-.0971-.0829-.1371-.0486-.2343.0343-.0971.0286-.1.06-.1971.0314-.0972.1629-.0543.1943-.1515.0314-.0971-.1057-.1428-.0743-.24.0314-.0971.04-.0943.0743-.1914.0343-.0972.1514-.0572.1829-.1543.0314-.0972.0457-.0915.0771-.1886.0315-.0972.0143-.1029.0486-.2.0343-.0972.0543-.0886.0886-.1858.0343-.0971-.0257-.1171.0086-.2143.0342-.0971-.0372-.12-.0058-.2171.0315-.0972.02-.1.0515-.1972.0314-.0971.1428-.06.1771-.1571.0343-.0972-.0143-.1143.0172-.2115.0314-.0971.0971-.0771.1286-.1743.0314-.0971-.0486-.1257-.0172-.2229.0314-.0971.0714-.0857.1057-.1828.0343-.0972.0686-.0858.1-.1829.0315-.0972-.0057-.1115.0258-.2086.0314-.0972.0114-.1057.0428-.2029.0315-.0971.14-.06.1743-.1571.0343-.0972-.1143-.1458-.08-.2429.0343-.0972.1429-.06.1743-.1572.0314-.0971-.04-.1228-.0086-.22.0315-.0971.1229-.0657.1572-.1657s-.0743-.1343-.04-.2315c.0343-.0971-.0143-.1143.02-.2114.0343-.0972.1-.0743.1314-.1743.0315-.1.0629-.0886.0972-.1857.0343-.0972 0-.1086.0314-.2058.0315-.0971.1315-.0657.1629-.1628.0314-.0972-.1343-.1543-.1029-.2515.0315-.0972.0543-.0914.0857-.1886.0315-.0971.1572-.0571.1915-.1543.0343-.0971-.0943-.14-.06-.2371.0343-.0972.1371-.0629.1714-.1601.0343-.0971.04-.0943.0743-.1914.0343-.0972-.0914-.14-.0571-.2372.0343-.0971.0971-.0743.1314-.1714.0343-.0972 0-.1086.0314-.2057.0315-.0972.1486-.0572.1829-.1543.0343-.0972.0515-.0915.0857-.1886.0343-.0972-.0314-.12 0-.2172.0315-.0971.0772-.0829.1115-.18.0343-.0972-.0372-.12-.0029-.22s.0086-.1058.0429-.2029c.0343-.0972.04-.0972.0714-.1943.0314-.0972.0229-.1.0572-.2s.08-.0829.1114-.18c.0314-.0972-.0571-.1286-.0257-.2286s.1771-.0486.2114-.1486-.0371-.12-.0028-.22-.0057-.1115.0257-.2086c.0314-.0972.0914-.08.1229-.1772.0314-.0971.0685-.0857.1028-.1857s-.0771-.1372-.0457-.2343c.0314-.0972.0314-.1.0657-.1972"/><path d="m29.0253 40.8656c-.0609-.0305-.1219-.0609-.1828-.0914-.0915-.0457-.02-.1886-.1115-.2343-.0914-.0457-.0971-.0343-.1886-.08-.0914-.0457-.1257.0228-.2171-.0229-.0915-.0457-.0772-.0714-.1686-.1171-.0915-.0458-.0886-.0486-.18-.0915-.0915-.0428-.1229.0229-.2143-.0228-.0915-.0458-.0658-.0915-.1572-.1372s-.1171.0057-.2057-.0371c-.0886-.0429-.0372-.1486-.1286-.1943-.0914-.0458-.0829-.06-.1743-.1058-.0914-.0457-.0772-.0743-.1657-.1171-.0886-.0429-.1258.0228-.2143-.0229-.0886-.0457-.06-.1057-.1515-.1514-.0914-.0457-.0943-.04-.1857-.0857-.0914-.0458-.1429.06-.2343.0143-.0915-.0458-.1057-.0172-.1972-.0629-.0914-.0457-.0914-.0457-.1829-.0914-.0914-.0458-.0485-.1315-.1371-.1772s-.1343.0429-.2257-.0029c-.0915-.0457-.0886-.0514-.1801-.0971-.0914-.0457-.0285-.1686-.12-.2143-.0914-.0457-.1228.0171-.2143-.0286-.0914-.0457-.0971-.0371-.1886-.0829-.0914-.0457-.1285.0315-.22-.0171-.0914-.0486-.02-.1886-.1114-.2343-.0915-.0457-.14.0486-.2315.0029-.0914-.0458-.04-.1458-.1314-.1915s-.1229.0171-.2143-.0286-.0686-.0885-.16-.1343c-.0915-.0457-.1172.0057-.2086-.04s-.0429-.14-.1343-.1857-.1143 0-.2029-.0457-.1457.0628-.2371.0171c-.0915-.0457-.02-.1857-.1115-.2314-.0914-.0457-.1429.0571-.2343.0114s-.0343-.1629-.1257-.2086-.1315.0343-.2229-.0114-.0514-.1257-.1429-.1715c-.0914-.0457-.1743.1201-.2657.0743-.0914-.0457-.0943-.0428-.1857-.0885-.0915-.0458-.0572-.1172-.1486-.1629s-.1029-.0257-.1943-.0714c-.0914-.0458-.0314-.1658-.1229-.2115-.0914-.0457-.14.0514-.2314.0057-.0915-.0457-.0657-.0971-.1572-.1428-.0914-.0458-.1029-.0229-.1943-.0686s-.0771-.0743-.1686-.12c-.0914-.0458-.0743-.0772-.1657-.1258-.0914-.0485-.1257.02-.2172-.0257-.0914-.0457-.1314.0343-.2228-.0114-.0915-.0457-.0143-.2029-.1058-.2486-.0914-.0457-.1314.0314-.2228-.0143-.0915-.0457-.1343.04-.2258-.0057-.0914-.0457-.0371-.1543-.1286-.2-.0914-.0457-.1028-.0257-.1943-.0715-.0914-.0457-.1171.0029-.2085-.0428-.0915-.0457-.0343-.1572-.1286-.2029s-.1658.1-.2572.0543-.02-.1857-.1114-.2314c-.0915-.0458-.1086-.0115-.2001-.0572-.0914-.0457-.1342.04-.2257-.0057-.0914-.0457-.0514-.1286-.1429-.1743-.0914-.0457-.0628-.1029-.1543-.1514-.0914-.0486-.0971-.0343-.1885-.0801-.0915-.0457-.1229.0143-.2143-.0342-.0915-.0486-.0543-.1172-.1458-.1629-.0914-.0457-.0943-.04-.1857-.0886s-.1543.08-.2486.0314c-.0943-.0485-.0943-.0428-.1857-.0885-.0915-.0458-.0715-.0886-.1629-.1343-.0914-.0458-.06-.1115-.1514-.1572-.0915-.0457-.1601.0914-.2543.0457-.0943-.0457-.0658-.1-.1572-.1457s-.06-.1114-.1514-.1572c-.0915-.0457-.0915-.0457-.1858-.0914s-.1228.0143-.2171-.0314-.1143-.0057-.2058-.0515c-.0914-.0457-.0657-.1028-.1571-.1485"/><path d="m29.0253 40.8656c-.0609-.0305-.1219-.0609-.1828-.0914-.0915-.0457-.02-.1886-.1115-.2343-.0914-.0457-.0971-.0343-.1886-.08-.0914-.0457-.1257.0228-.2171-.0229-.0915-.0457-.0772-.0714-.1686-.1171-.0915-.0458-.0886-.0486-.18-.0915-.0915-.0428-.1229.0229-.2143-.0228-.0915-.0458-.0658-.0915-.1572-.1372s-.1171.0057-.2057-.0371c-.0886-.0429-.0372-.1486-.1286-.1943-.0914-.0458-.0829-.06-.1743-.1058-.0914-.0457-.0772-.0743-.1657-.1171-.0886-.0429-.1258.0228-.2143-.0229-.0886-.0457-.06-.1057-.1515-.1514-.0914-.0457-.0943-.04-.1857-.0857-.0914-.0458-.1429.06-.2343.0143-.0915-.0458-.1057-.0172-.1972-.0629-.0914-.0457-.0914-.0457-.1829-.0914-.0914-.0458-.0485-.1315-.1371-.1772s-.1343.0429-.2257-.0029c-.0915-.0457-.0886-.0514-.1801-.0971-.0914-.0457-.0285-.1686-.12-.2143-.0914-.0457-.1228.0171-.2143-.0286-.0914-.0457-.0971-.0371-.1886-.0829-.0914-.0457-.1285.0315-.22-.0171-.0914-.0486-.02-.1886-.1114-.2343-.0915-.0457-.14.0486-.2315.0029-.0914-.0458-.04-.1458-.1314-.1915s-.1229.0171-.2143-.0286-.0686-.0885-.16-.1343c-.0915-.0457-.1172.0057-.2086-.04s-.0429-.14-.1343-.1857-.1143 0-.2029-.0457-.1457.0628-.2371.0171c-.0915-.0457-.02-.1857-.1115-.2314-.0914-.0457-.1429.0571-.2343.0114s-.0343-.1629-.1257-.2086-.1315.0343-.2229-.0114-.0514-.1257-.1429-.1715c-.0914-.0457-.1743.1201-.2657.0743-.0914-.0457-.0943-.0428-.1857-.0885-.0915-.0458-.0572-.1172-.1486-.1629s-.1029-.0257-.1943-.0714c-.0914-.0458-.0314-.1658-.1229-.2115-.0914-.0457-.14.0514-.2314.0057-.0915-.0457-.0657-.0971-.1572-.1428-.0914-.0458-.1029-.0229-.1943-.0686s-.0771-.0743-.1686-.12c-.0914-.0458-.0743-.0772-.1657-.1258-.0914-.0485-.1257.02-.2172-.0257-.0914-.0457-.1314.0343-.2228-.0114-.0915-.0457-.0143-.2029-.1058-.2486-.0914-.0457-.1314.0314-.2228-.0143-.0915-.0457-.1343.04-.2258-.0057-.0914-.0457-.0371-.1543-.1286-.2-.0914-.0457-.1028-.0257-.1943-.0715-.0914-.0457-.1171.0029-.2085-.0428-.0915-.0457-.0343-.1572-.1286-.2029s-.1658.1-.2572.0543-.02-.1857-.1114-.2314c-.0915-.0458-.1086-.0115-.2001-.0572-.0914-.0457-.1342.04-.2257-.0057-.0914-.0457-.0514-.1286-.1429-.1743-.0914-.0457-.0628-.1029-.1543-.1514-.0914-.0486-.0971-.0343-.1885-.0801-.0915-.0457-.1229.0143-.2143-.0342-.0915-.0486-.0543-.1172-.1458-.1629-.0914-.0457-.0943-.04-.1857-.0886s-.1543.08-.2486.0314c-.0943-.0485-.0943-.0428-.1857-.0885-.0915-.0458-.0715-.0886-.1629-.1343-.0914-.0458-.06-.1115-.1514-.1572-.0915-.0457-.1601.0914-.2543.0457-.0943-.0457-.0658-.1-.1572-.1457s-.06-.1114-.1514-.1572c-.0915-.0457-.0915-.0457-.1858-.0914s-.1228.0143-.2171-.0314-.1143-.0057-.2058-.0515c-.0914-.0457-.0657-.1028-.1571-.1485"/><path d="m41.3692 36.0536c-.0914-.0457-.0457-.1343-.1371-.18s-.0857-.0572-.1772-.1029c-.0914-.0457-.08-.0657-.1714-.1114s-.0829-.0657-.1743-.1115c-.0914-.0457-.16.0886-.2515.0429-.0914-.0457-.0885-.0486-.18-.0943-.0914-.0457-.0886-.0514-.18-.0971-.0914-.0458-.0486-.1343-.14-.1801-.0914-.0457-.0943-.0428-.1857-.0885-.0915-.0458-.0829-.0658-.1743-.1115-.0915-.0457-.1486.0657-.2401.02-.0914-.0457-.0342-.16-.1257-.2057-.0914-.0457-.1028-.0229-.1943-.0714-.0914-.0486-.1314.0371-.2229-.0115-.0914-.0485-.0457-.1371-.1371-.1828-.0915-.0458-.0972-.0315-.1886-.08-.0914-.0486-.0572-.1143-.1486-.1629s-.1629.0971-.2543.0514-.08-.0657-.1714-.1143c-.0915-.0486-.0515-.1286-.1429-.1743s-.0914-.0486-.1829-.0971c-.0914-.0486-.1028-.0229-.1943-.0715-.0914-.0485-.0886-.0543-.18-.1s-.0686-.0886-.1629-.1343-.1171.0029-.2086-.0428c-.0914-.0458-.0628-.1058-.1543-.1515-.0914-.0457-.0857-.06-.1771-.1057-.0915-.0457-.1543.08-.2458.0314-.0914-.0485-.0742-.08-.1657-.1257-.0914-.0457-.1086-.0114-.2-.0571-.0914-.0458-.0971-.0343-.1886-.08-.0914-.0458-.0743-.0772-.1657-.1229s-.0914-.0457-.1829-.0943c-.0914-.0486-.0457-.14-.1371-.1857-.0915-.0458-.1372.0457-.2315 0-.0943-.0458-.1257.0228-.2172-.0258-.0914-.0485-.0028-.22-.0971-.2657s-.1029-.02-.1972-.0686c-.0943-.0485-.1485.0686-.24.02-.0914-.0485-.1-.0314-.1914-.0771-.0915-.0457-.0429-.1429-.1372-.1886s-.1057-.02-.1971-.0657c-.0915-.0457-.0886-.0543-.1801-.1-.0914-.0457-.1228.0143-.2171-.0315-.0943-.0457-.04-.1485-.1315-.1943-.0914-.0457-.1343.0372-.2257-.0085-.0914-.0458-.0371-.1543-.1314-.2029s-.1486.0629-.2401.0143c-.0914-.0486-.0342-.1629-.1257-.2115-.0914-.0485-.1028-.0257-.1971-.0714"/><path d="m41.3692 36.0536c-.0914-.0457-.0457-.1343-.1371-.18s-.0857-.0572-.1772-.1029c-.0914-.0457-.08-.0657-.1714-.1114s-.0829-.0657-.1743-.1115c-.0914-.0457-.16.0886-.2515.0429-.0914-.0457-.0885-.0486-.18-.0943-.0914-.0457-.0886-.0514-.18-.0971-.0914-.0458-.0486-.1343-.14-.1801-.0914-.0457-.0943-.0428-.1857-.0885-.0915-.0458-.0829-.0658-.1743-.1115-.0915-.0457-.1486.0657-.2401.02-.0914-.0457-.0342-.16-.1257-.2057-.0914-.0457-.1028-.0229-.1943-.0714-.0914-.0486-.1314.0371-.2229-.0115-.0914-.0485-.0457-.1371-.1371-.1828-.0915-.0458-.0972-.0315-.1886-.08-.0914-.0486-.0572-.1143-.1486-.1629s-.1629.0971-.2543.0514-.08-.0657-.1714-.1143c-.0915-.0486-.0515-.1286-.1429-.1743s-.0914-.0486-.1829-.0971c-.0914-.0486-.1028-.0229-.1943-.0715-.0914-.0485-.0886-.0543-.18-.1s-.0686-.0886-.1629-.1343-.1171.0029-.2086-.0428c-.0914-.0458-.0628-.1058-.1543-.1515-.0914-.0457-.0857-.06-.1771-.1057-.0915-.0457-.1543.08-.2458.0314-.0914-.0485-.0742-.08-.1657-.1257-.0914-.0457-.1086-.0114-.2-.0571-.0914-.0458-.0971-.0343-.1886-.08-.0914-.0458-.0743-.0772-.1657-.1229s-.0914-.0457-.1829-.0943c-.0914-.0486-.0457-.14-.1371-.1857-.0915-.0458-.1372.0457-.2315 0-.0943-.0458-.1257.0228-.2172-.0258-.0914-.0485-.0028-.22-.0971-.2657s-.1029-.02-.1972-.0686c-.0943-.0485-.1485.0686-.24.02-.0914-.0485-.1-.0314-.1914-.0771-.0915-.0457-.0429-.1429-.1372-.1886s-.1057-.02-.1971-.0657c-.0915-.0457-.0886-.0543-.1801-.1-.0914-.0457-.1228.0143-.2171-.0315-.0943-.0457-.04-.1485-.1315-.1943-.0914-.0457-.1343.0372-.2257-.0085-.0914-.0458-.0371-.1543-.1314-.2029s-.1486.0629-.2401.0143c-.0914-.0486-.0342-.1629-.1257-.2115-.0914-.0485-.1028-.0257-.1971-.0714"/><path d="m42.0636 39.4854c-.02-.1-.0143-.1029-.0343-.2029s0-.1057-.0229-.2057c-.0228-.1.0115-.1057-.0085-.2086-.02-.1028.0228-.1086 0-.2114-.0229-.1029-.1658-.0715-.1858-.1743-.02-.1029.0943-.1229.0743-.2258-.02-.1028-.0514-.0943-.0714-.1971-.02-.1029-.0972-.0857-.1172-.1858-.02-.1.1658-.1371.1458-.24-.02-.1028-.0572-.0943-.0772-.1943s-.0714-.0914-.0914-.1914-.0772-.0886-.0972-.1915c-.02-.1028.06-.1171.04-.2171s-.1485-.0743-.1685-.1772c-.0201-.1029.0085-.1086-.0115-.2086s0-.1057-.02-.2057.0457-.1143.0257-.2172c-.02-.1028-.1171-.0828-.1371-.1828-.02-.1001.0257-.1115.0057-.2115s.0514-.1143.0314-.2172c-.02-.1028-.1514-.0742-.1714-.1771s.0514-.1143.0314-.2172c-.02-.1028.0114-.1057-.0086-.2086-.02-.1028-.0857-.0885-.1057-.1885-.02-.1001.0086-.1058-.0143-.2086-.0228-.1029.0172-.1086-.0057-.2086-.0228-.1-.0086-.1029-.0286-.2029s-.1142-.0829-.1343-.1829c-.02-.1.0286-.1114.0086-.2114s.0372-.1115.0172-.2143c-.02-.1029.0457-.1143.0257-.2143s-.0314-.1-.0515-.2c-.02-.1001-.1628-.0743-.1828-.1743-.02-.1001.1143-.1286.0943-.2286s-.0372-.0972-.0572-.2001c-.02-.1028-.04-.0971-.06-.2-.02-.1028-.0257-.1-.0457-.2028-.02-.1029-.1486-.0772-.1686-.1772s0-.1057-.0171-.2057c-.0172-.1.0828-.12.0628-.2229s-.14-.0772-.16-.1772.0572-.1171.0372-.2171-.0772-.0886-.0972-.1915c-.02-.1028-.0514-.0943-.0714-.1971-.02-.1029.14-.1315.12-.2343-.02-.1029-.1543-.0743-.1743-.1772s-.0372-.0972-.0572-.2c-.02-.1029.0658-.12.0458-.22s-.0058-.1029-.0258-.2058c-.02-.1028.0429-.1143.0229-.2143s-.0629-.0914-.0829-.1943c-.02-.1028-.0085-.1028-.0285-.2028-.02-.1001-.0172-.1001-.0372-.2029-.02-.1029-.0428-.0972-.0628-.1972s-.0743-.0914-.0943-.1914.0142-.1086-.0058-.2086.0743-.12.0543-.22-.0657-.0915-.0857-.1915-.0571-.0943-.0771-.1943-.0372-.0971-.0572-.1971c-.02-.1001-.0714-.0915-.0914-.1915s.0771-.12.0571-.2229c-.02-.1028.0286-.1114.0086-.2114s-.1857-.0686-.2057-.1715c-.02-.1028.1057-.1257.0857-.2285-.02-.1029-.1257-.0801-.1457-.1829-.02-.1029 0-.1057-.02-.2058-.02-.1.02-.1085 0-.2114s-.1143-.0829-.1343-.1829.1428-.1343.1228-.2343-.1428-.0771-.1628-.1771-.0458-.0972-.0658-.1972-.0028-.1057-.0228-.2057.0257-.1115.0057-.2115.0686-.12.0486-.22-.1343-.08-.1543-.18.02-.1086 0-.2115c-.02-.1028-.0943-.0857-.1143-.1885-.02-.1029.0486-.1143.0286-.2172-.0201-.1029.0257-.1114.0057-.2115-.02-.1-.0057-.1057-.0258-.2057-.02-.1-.0028-.1057-.0228-.2057s-.1314-.08-.1543-.18.0714-.12.0486-.22c-.0229-.1001-.14-.0772-.16-.1801-.02-.1028-.0058-.1028-.0258-.2057s.0343-.1114.0143-.2114c-.02-.1001-.0771-.0915-.0971-.1915s.0371-.1143.0171-.2143-.0428-.0971-.0628-.2.0228-.1114.0028-.2115c-.02-.1-.0228-.1-.0428-.2028-.0201-.1029-.1343-.08-.1543-.18-.0201-.1001.1285-.1315.1057-.2344-.0229-.1028-.1629-.0742-.1829-.1743-.02-.1.1429-.1342.1229-.2371s-.0029-.1057-.0229-.2086-.12-.0829-.14-.1857c-.02-.1029-.0229-.1029-.0429-.2029s0-.1057-.02-.2086-.06-.0943-.08-.1972c-.02-.1028-.0228-.1028-.0428-.2057s-.0229-.1029-.0429-.2057c-.02-.1029.0057-.1086-.0143-.2115-.0143-.0685-.0057-.1428-.0257-.2114s-.1486-.1-.1714-.1657c-.0229-.0658.0743-.1772.0485-.2429-.0257-.0657-.1143-.1029-.1457-.1658-.0314-.0628-.04-.14-.0743-.2s-.12-.0885-.1629-.1457c-.0428-.0571.0315-.2029-.0142-.2572-.0458-.0543-.1315-.0771-.1801-.1285-.0485-.0515-.1543-.0429-.2057-.0915s-.1114-.08-.1686-.1257c-.0571-.0457-.0771-.1286-.1343-.1686-.0571-.04-.1028-.1-.1657-.1371-.0629-.0372-.1514-.0172-.2143-.0486-.0914-.0457-.0943-.04-.1886-.0857-.0943-.0458-.0971-.0372-.1886-.0829-.0914-.0457-.06-.1114-.1514-.1572-.0915-.0457-.0943-.0428-.1857-.0914-.0915-.0486-.1201.0086-.2115-.04s-.1114-.0086-.2029-.0571c-.0914-.0486-.04-.1486-.1343-.1944-.0943-.0457-.0743-.08-.1686-.1285-.0942-.0486-.1285.0228-.22-.0229-.0914-.0457-.0514-.1314-.1428-.1772-.0915-.0457-.1115-.0085-.2029-.0571-.0915-.0486-.0772-.0771-.1686-.1257s-.0943-.04-.1857-.0886c-.0915-.0486-.14.0486-.2315 0-.0914-.0486-.1171.0057-.2086-.0429-.0914-.0485-.06-.1085-.1514-.1543-.0914-.0457-.1029-.0285-.1943-.0743-.0915-.0457-.1-.0342-.1915-.08-.0914-.0457-.0971-.04-.1885-.0857-.0915-.0457-.0715-.0886-.1629-.1343-.0915-.0457-.0743-.08-.1686-.1257s-.1257.02-.2172-.0257c-.0914-.0457-.0857-.06-.1771-.1057-.0915-.0458-.1057-.02-.1972-.0686-.0914-.0486-.0714-.0915-.1629-.1372-.0914-.0457-.1-.0314-.1943-.0771s-.0571-.1172-.1485-.1629c-.0915-.0457-.1315.0343-.2258-.0143s-.0828-.0657-.1743-.1143c-.0914-.0486-.0914-.0486-.1828-.0971-.0915-.0486-.1172 0-.2086-.0458-.0915-.0457-.0229-.1857-.1143-.2314-.0915-.0457-.12.0086-.2115-.04-.0914-.0486-.1343.0343-.2257-.0114-.0915-.0457-.0657-.1-.16-.1458-.0943-.0457-.1286.0229-.22-.0228-.0915-.0457-.0486-.1372-.1401-.1829-.0914-.0457-.1257.0172-.2171-.0286-.0915-.0457-.0372-.16-.1286-.2057s-.1343.0371-.2286-.0086-.1143 0-.2086-.0485c-.0943-.0486-.0457-.1429-.1371-.1886-.0915-.0458-.0915-.0486-.1858-.0972s-.0828-.0686-.1743-.1143c-.0914-.0457-.0743-.0857-.1657-.1314s-.1772.12-.2686.0743-.0686-.0943-.16-.14c-.0914-.0458-.0629-.1029-.1572-.1486s-.1114-.0057-.2057-.0543-.1143-.0057-.2057-.0543c-.0915-.0486-.0857-.0629-.18-.1086s-.1143-.0057-.2058-.0543c-.0914-.0485-.0143-.2028-.1057-.2514s-.1572.0828-.2514.0343c-.0943-.0486-.0858-.06-.1801-.1086s-.0828-.0657-.1771-.1115c-.0943-.0457-.0972-.0371-.1915-.0857s-.0543-.1228-.1485-.1686c-.0943-.0457-.1201.0058-.2115-.0428s-.0543-.1257-.1457-.1715c-.0915-.0457-.0915-.0514-.1829-.0971s-.0943-.0457-.1886-.0943-.1771.1171-.2686.0686c-.0914-.0486-.0857-.06-.18-.1086s-.0429-.1486-.1371-.1943c-.0601-.0314-.1601.0457-.2201.0228-.06-.0228-.0828-.2-.1457-.21426-.0629-.01429-.1457.01143-.2114.00571-.0658-.00571-.1343.05425-.2001.06005-.0657.0057-.1485-.08291-.2143-.07148-.0657.01143-.0914.17998-.1543.19998-.0628.02-.1657-.0571-.2228-.0285-.0572.0285-.1172.0685-.1743.1057-.0572.0371-.0829.1114-.1315.1571-.0486.0458-.0343.1429-.0771.1943-.0429.0515-.1972.0115-.2343.0658-.0372.0543-.0143.1486-.0429.2086s-.0371.1228-.06.1885c-.0314.0972-.0571.0886-.0914.1858-.0343.0971-.1229.0657-.1543.1628-.0315.0972-.0286.1001-.06.1972-.0315.0972.0114.1114-.0229.2086-.0343.0971.0829.1372.0514.2343-.0314.0972-.1714.0514-.2057.1486-.0343.0971-.0286.0971-.06.1943-.0314.0971.1257.1514.0914.2486-.0343.0971-.0971.0743-.1285.1714-.0315.0972-.0972.0743-.1315.1715-.0343.0971.0257.1171-.0057.2143-.0314.0971-.1057.0714-.14.1686-.0343.0971.0914.1371.0571.2371s-.1085.0715-.14.1686c-.0314.0972-.0628.0857-.0971.1829-.0343.0971-.0629.0857-.0972.1829-.0343.0971-.0486.0914-.08.1885-.0314.0972.0257.1172-.0086.2143-.0342.0972-.0228.1001-.0571.1972-.0343.0972.0171.1143-.0172.2115-.0342.0971-.1085.0714-.1428.1685-.0343.0972-.02.1029-.0515.2001-.0314.0971-.0028.1085-.0371.2057-.0343.0971.0229.1171-.0114.2143-.0343.0971-.1429.06-.1772.1571-.0343.0972-.0371.0972-.0686.1943-.0314.0972.1143.1486.0829.2458-.0314.0971-.0629.0886-.0943.1857-.0314.0972-.1743.0486-.2086.1486s.0686.1314.0343.2286c-.0343.0971-.0143.1029-.0486.2-.0343.0972.0057.1114-.0285.2086-.0343.0971-.1829.0486-.2143.1457-.0315.0972.1142.1457.08.2429-.0343.0972-.02.1-.0543.2s-.1772.0486-.2086.1457c-.0315.0972-.0086.1058-.04.2029-.0315.0972.02.1143-.0115.2115-.0314.0971-.0485.0914-.0828.1886-.0343.0971-.1229.0685-.1543.1657-.0314.0971.04.1228.0057.22s.0371.12.0029.2172c-.0343.0971-.1201.0685-.1515.1657-.0314.0971.0486.1257.0172.2229-.0315.0971-.0515.0914-.0858.1886-.0343.0971-.0685.0857-.1.1828-.0314.0972-.0657.0857-.0971.1829-.0315.0972-.0543.0914-.0857.1886-.0315.0971.0057.1114-.0258.2086-.0314.0971-.1.0743-.1314.1714-.0314.0972.0829.1372.0514.2343-.0314.0972-.0428.0943-.0743.1915-.0314.0971-.1428.06-.1771.1571-.0343.0972-.0029.1086-.0372.2058-.0343.0971.0429.1228.0086.22-.0343.0971-.0886.08-.1229.1771-.0343.0972-.0371.0972-.0685.1943-.0315.0972.1.1429.0685.2401-.0314.0971-.1343.0628-.1685.16-.0343.0971-.0743.0828-.1086.18-.0343.0971 0 .1086-.0315.2057-.0314.0972.08.1343.0458.2315-.0343.0971-.1515.0571-.1829.1543-.0314.0971-.0543.0914-.0857.1886-.0315.0971 0 .1085-.0343.2057-.0343.0971.04.1229.0057.22-.0343.0972-.0829.08-.1143.18s-.0714.0857-.1057.1829c-.0343.0971.0314.12 0 .2172-.0315.0971-.0257.1-.0572.1971-.0314.0972-.02.1029-.0543.2-.0343.0972-.0314.0972-.0628.1943-.0315.0972 0 .1086-.0315.2058-.0314.0971-.1571.0543-.1885.1514-.0315.0972.0857.1372.0542.2343-.0314.0972-.0943.0772-.1257.1743-.0314.0972-.0057.1057-.04.2029-.0343.0971-.0686.0857-.1029.1829-.0342.0971.0029.1085-.0285.2057-.0315.0971-.04.0943-.0743.1914-.0343.0972-.1029.0743-.1372.1715-.0343.0971.0829.1371.0515.2343-.0315.0971-.1315.0657-.1658.1629-.0343.0971.0315.12 0 .2171-.0314.0972-.0428.0943-.0771.1915-.0343.0971-.0543.0914-.0886.1886-.0343.0971.0143.1143-.02.2114-.0343.0972-.0057.1057-.0371.2029-.0315.0971-.0315.0971-.0658.1943-.0343.0971-.1057.0714-.14.1714s-.0543.0915-.0857.1886c-.0314.0972-.0657.0857-.1.1829-.0343.0971-.0857.08-.12.1771-.0343.0972.1114.1458.0771.2429-.0343.0972-.1543.0572-.1886.1543-.0342.0972-.0085.1057-.04.2029-.0314.0971-.04.0943-.0714.1943s.1029.1429.0686.24c-.0343.0972-.1572.0572-.1886.1543-.0314.0972-.0743.0829-.1086.1829s-.0371.0971-.0686.1943c-.0314.0971.1.1429.0658.24-.0343.0972-.1029.0743-.1343.1715-.0315.0971-.0629.0885-.0943.1857-.0315.0971-.0257.1-.0572.1971-.0314.0972.02.1172-.0114.2143-.0314.0972.0286.1172-.0057.2172s-.16.0543-.1943.1514c-.0343.0972.0285.1201-.0029.2172-.0314.0972-.1171.0714-.1486.1686-.0314.0971-.0228.1-.0571.2s.0086.1115-.0257.2086c-.0343.0972-.06.0886-.0915.1886-.0314.1.0143.1143-.02.2114-.0343.0972-.0571.0886-.0914.1886s.06.1286.0286.2286c-.0315.1-.1515.0572-.1858.1572s-.0171.1028-.0485.2028c-.0315.1001-.0743.0858-.1058.1829-.0314.0972.0372.12.0029.22s-.0486.0915-.08.1886c-.0314.0972-.0143.1029-.0486.2-.0343.0972-.08.0829-.1114.1801-.0315.0971 0 .1085-.0343.2057-.0343.0971.02.1143-.0143.2143s-.0914.08-.1257.1772c-.0343.0971-.0172.1028-.0486.2028s.02.1172-.0114.2143c-.0315.0972-.0743.0829-.1086.1829s.06.1286.0257.2286-.2143.0371-.2457.1371c-.0315.1001.0571.1286.0257.2286s-.0915.08-.1229.1772.1115.1457.0772.2457-.1029.0743-.1372.1743-.0343.0972-.0686.1972-.0657.0886-.1.1857c-.0343.0972.0143.1143-.02.2143s.0143.1143-.02.2143-.08.0829-.1143.1829"/><path d="m42.0636 39.4854c-.02-.1-.0143-.1029-.0343-.2029s0-.1057-.0229-.2057c-.0228-.1.0115-.1057-.0085-.2086-.02-.1028.0228-.1086 0-.2114-.0229-.1029-.1658-.0715-.1858-.1743-.02-.1029.0943-.1229.0743-.2258-.02-.1028-.0514-.0943-.0714-.1971-.02-.1029-.0972-.0857-.1172-.1858-.02-.1.1658-.1371.1458-.24-.02-.1028-.0572-.0943-.0772-.1943s-.0714-.0914-.0914-.1914-.0772-.0886-.0972-.1915c-.02-.1028.06-.1171.04-.2171s-.1485-.0743-.1685-.1772c-.0201-.1029.0085-.1086-.0115-.2086s0-.1057-.02-.2057.0457-.1143.0257-.2172c-.02-.1028-.1171-.0828-.1371-.1828-.02-.1001.0257-.1115.0057-.2115s.0514-.1143.0314-.2172c-.02-.1028-.1514-.0742-.1714-.1771s.0514-.1143.0314-.2172c-.02-.1028.0114-.1057-.0086-.2086-.02-.1028-.0857-.0885-.1057-.1885-.02-.1001.0086-.1058-.0143-.2086-.0228-.1029.0172-.1086-.0057-.2086-.0228-.1-.0086-.1029-.0286-.2029s-.1142-.0829-.1343-.1829c-.02-.1.0286-.1114.0086-.2114s.0372-.1115.0172-.2143c-.02-.1029.0457-.1143.0257-.2143s-.0314-.1-.0515-.2c-.02-.1001-.1628-.0743-.1828-.1743-.02-.1001.1143-.1286.0943-.2286s-.0372-.0972-.0572-.2001c-.02-.1028-.04-.0971-.06-.2-.02-.1028-.0257-.1-.0457-.2028-.02-.1029-.1486-.0772-.1686-.1772s0-.1057-.0171-.2057c-.0172-.1.0828-.12.0628-.2229s-.14-.0772-.16-.1772.0572-.1171.0372-.2171-.0772-.0886-.0972-.1915c-.02-.1028-.0514-.0943-.0714-.1971-.02-.1029.14-.1315.12-.2343-.02-.1029-.1543-.0743-.1743-.1772s-.0372-.0972-.0572-.2c-.02-.1029.0658-.12.0458-.22s-.0058-.1029-.0258-.2058c-.02-.1028.0429-.1143.0229-.2143s-.0629-.0914-.0829-.1943c-.02-.1028-.0085-.1028-.0285-.2028-.02-.1001-.0172-.1001-.0372-.2029-.02-.1029-.0428-.0972-.0628-.1972s-.0743-.0914-.0943-.1914.0142-.1086-.0058-.2086.0743-.12.0543-.22-.0657-.0915-.0857-.1915-.0571-.0943-.0771-.1943-.0372-.0971-.0572-.1971c-.02-.1001-.0714-.0915-.0914-.1915s.0771-.12.0571-.2229c-.02-.1028.0286-.1114.0086-.2114s-.1857-.0686-.2057-.1715c-.02-.1028.1057-.1257.0857-.2285-.02-.1029-.1257-.0801-.1457-.1829-.02-.1029 0-.1057-.02-.2058-.02-.1.02-.1085 0-.2114s-.1143-.0829-.1343-.1829.1428-.1343.1228-.2343-.1428-.0771-.1628-.1771-.0458-.0972-.0658-.1972-.0028-.1057-.0228-.2057.0257-.1115.0057-.2115.0686-.12.0486-.22-.1343-.08-.1543-.18.02-.1086 0-.2115c-.02-.1028-.0943-.0857-.1143-.1885-.02-.1029.0486-.1143.0286-.2172-.0201-.1029.0257-.1114.0057-.2115-.02-.1-.0057-.1057-.0258-.2057-.02-.1-.0028-.1057-.0228-.2057s-.1314-.08-.1543-.18.0714-.12.0486-.22c-.0229-.1001-.14-.0772-.16-.1801-.02-.1028-.0058-.1028-.0258-.2057s.0343-.1114.0143-.2114c-.02-.1001-.0771-.0915-.0971-.1915s.0371-.1143.0171-.2143-.0428-.0971-.0628-.2.0228-.1114.0028-.2115c-.02-.1-.0228-.1-.0428-.2028-.0201-.1029-.1343-.08-.1543-.18-.0201-.1001.1285-.1315.1057-.2344-.0229-.1028-.1629-.0742-.1829-.1743-.02-.1.1429-.1342.1229-.2371s-.0029-.1057-.0229-.2086-.12-.0829-.14-.1857c-.02-.1029-.0229-.1029-.0429-.2029s0-.1057-.02-.2086-.06-.0943-.08-.1972c-.02-.1028-.0228-.1028-.0428-.2057s-.0229-.1029-.0429-.2057c-.02-.1029.0057-.1086-.0143-.2115-.0143-.0685-.0057-.1428-.0257-.2114s-.1486-.1-.1714-.1657c-.0229-.0658.0743-.1772.0485-.2429-.0257-.0657-.1143-.1029-.1457-.1658-.0314-.0628-.04-.14-.0743-.2s-.12-.0885-.1629-.1457c-.0428-.0571.0315-.2029-.0142-.2572-.0458-.0543-.1315-.0771-.1801-.1285-.0485-.0515-.1543-.0429-.2057-.0915s-.1114-.08-.1686-.1257c-.0571-.0457-.0771-.1286-.1343-.1686-.0571-.04-.1028-.1-.1657-.1371-.0629-.0372-.1514-.0172-.2143-.0486-.0914-.0457-.0943-.04-.1886-.0857-.0943-.0458-.0971-.0372-.1886-.0829-.0914-.0457-.06-.1114-.1514-.1572-.0915-.0457-.0943-.0428-.1857-.0914-.0915-.0486-.1201.0086-.2115-.04s-.1114-.0086-.2029-.0571c-.0914-.0486-.04-.1486-.1343-.1944-.0943-.0457-.0743-.08-.1686-.1285-.0942-.0486-.1285.0228-.22-.0229-.0914-.0457-.0514-.1314-.1428-.1772-.0915-.0457-.1115-.0085-.2029-.0571-.0915-.0486-.0772-.0771-.1686-.1257s-.0943-.04-.1857-.0886c-.0915-.0486-.14.0486-.2315 0-.0914-.0486-.1171.0057-.2086-.0429-.0914-.0485-.06-.1085-.1514-.1543-.0914-.0457-.1029-.0285-.1943-.0743-.0915-.0457-.1-.0342-.1915-.08-.0914-.0457-.0971-.04-.1885-.0857-.0915-.0457-.0715-.0886-.1629-.1343-.0915-.0457-.0743-.08-.1686-.1257s-.1257.02-.2172-.0257c-.0914-.0457-.0857-.06-.1771-.1057-.0915-.0458-.1057-.02-.1972-.0686-.0914-.0486-.0714-.0915-.1629-.1372-.0914-.0457-.1-.0314-.1943-.0771s-.0571-.1172-.1485-.1629c-.0915-.0457-.1315.0343-.2258-.0143s-.0828-.0657-.1743-.1143c-.0914-.0486-.0914-.0486-.1828-.0971-.0915-.0486-.1172 0-.2086-.0458-.0915-.0457-.0229-.1857-.1143-.2314-.0915-.0457-.12.0086-.2115-.04-.0914-.0486-.1343.0343-.2257-.0114-.0915-.0457-.0657-.1-.16-.1458-.0943-.0457-.1286.0229-.22-.0228-.0915-.0457-.0486-.1372-.1401-.1829-.0914-.0457-.1257.0172-.2171-.0286-.0915-.0457-.0372-.16-.1286-.2057s-.1343.0371-.2286-.0086-.1143 0-.2086-.0485c-.0943-.0486-.0457-.1429-.1371-.1886-.0915-.0458-.0915-.0486-.1858-.0972s-.0828-.0686-.1743-.1143c-.0914-.0457-.0743-.0857-.1657-.1314s-.1772.12-.2686.0743-.0686-.0943-.16-.14c-.0914-.0458-.0629-.1029-.1572-.1486s-.1114-.0057-.2057-.0543-.1143-.0057-.2057-.0543c-.0915-.0486-.0857-.0629-.18-.1086s-.1143-.0057-.2058-.0543c-.0914-.0485-.0143-.2028-.1057-.2514s-.1572.0828-.2514.0343c-.0943-.0486-.0858-.06-.1801-.1086s-.0828-.0657-.1771-.1115c-.0943-.0457-.0972-.0371-.1915-.0857s-.0543-.1228-.1485-.1686c-.0943-.0457-.1201.0058-.2115-.0428s-.0543-.1257-.1457-.1715c-.0915-.0457-.0915-.0514-.1829-.0971s-.0943-.0457-.1886-.0943-.1771.1171-.2686.0686c-.0914-.0486-.0857-.06-.18-.1086s-.0429-.1486-.1371-.1943c-.0601-.0314-.1601.0457-.2201.0228-.06-.0228-.0828-.2-.1457-.21426-.0629-.01429-.1457.01143-.2114.00571-.0658-.00571-.1343.05425-.2001.06005-.0657.0057-.1485-.08291-.2143-.07148-.0657.01143-.0914.17998-.1543.19998-.0628.02-.1657-.0571-.2228-.0285-.0572.0285-.1172.0685-.1743.1057-.0572.0371-.0829.1114-.1315.1571-.0486.0458-.0343.1429-.0771.1943-.0429.0515-.1972.0115-.2343.0658-.0372.0543-.0143.1486-.0429.2086s-.0371.1228-.06.1885c-.0314.0972-.0571.0886-.0914.1858-.0343.0971-.1229.0657-.1543.1628-.0315.0972-.0286.1001-.06.1972-.0315.0972.0114.1114-.0229.2086-.0343.0971.0829.1372.0514.2343-.0314.0972-.1714.0514-.2057.1486-.0343.0971-.0286.0971-.06.1943-.0314.0971.1257.1514.0914.2486-.0343.0971-.0971.0743-.1285.1714-.0315.0972-.0972.0743-.1315.1715-.0343.0971.0257.1171-.0057.2143-.0314.0971-.1057.0714-.14.1686-.0343.0971.0914.1371.0571.2371s-.1085.0715-.14.1686c-.0314.0972-.0628.0857-.0971.1829-.0343.0971-.0629.0857-.0972.1829-.0343.0971-.0486.0914-.08.1885-.0314.0972.0257.1172-.0086.2143-.0342.0972-.0228.1001-.0571.1972-.0343.0972.0171.1143-.0172.2115-.0342.0971-.1085.0714-.1428.1685-.0343.0972-.02.1029-.0515.2001-.0314.0971-.0028.1085-.0371.2057-.0343.0971.0229.1171-.0114.2143-.0343.0971-.1429.06-.1772.1571-.0343.0972-.0371.0972-.0686.1943-.0314.0972.1143.1486.0829.2458-.0314.0971-.0629.0886-.0943.1857-.0314.0972-.1743.0486-.2086.1486s.0686.1314.0343.2286c-.0343.0971-.0143.1029-.0486.2-.0343.0972.0057.1114-.0285.2086-.0343.0971-.1829.0486-.2143.1457-.0315.0972.1142.1457.08.2429-.0343.0972-.02.1-.0543.2s-.1772.0486-.2086.1457c-.0315.0972-.0086.1058-.04.2029-.0315.0972.02.1143-.0115.2115-.0314.0971-.0485.0914-.0828.1886-.0343.0971-.1229.0685-.1543.1657-.0314.0971.04.1228.0057.22s.0371.12.0029.2172c-.0343.0971-.1201.0685-.1515.1657-.0314.0971.0486.1257.0172.2229-.0315.0971-.0515.0914-.0858.1886-.0343.0971-.0685.0857-.1.1828-.0314.0972-.0657.0857-.0971.1829-.0315.0972-.0543.0914-.0857.1886-.0315.0971.0057.1114-.0258.2086-.0314.0971-.1.0743-.1314.1714-.0314.0972.0829.1372.0514.2343-.0314.0972-.0428.0943-.0743.1915-.0314.0971-.1428.06-.1771.1571-.0343.0972-.0029.1086-.0372.2058-.0343.0971.0429.1228.0086.22-.0343.0971-.0886.08-.1229.1771-.0343.0972-.0371.0972-.0685.1943-.0315.0972.1.1429.0685.2401-.0314.0971-.1343.0628-.1685.16-.0343.0971-.0743.0828-.1086.18-.0343.0971 0 .1086-.0315.2057-.0314.0972.08.1343.0458.2315-.0343.0971-.1515.0571-.1829.1543-.0314.0971-.0543.0914-.0857.1886-.0315.0971 0 .1085-.0343.2057-.0343.0971.04.1229.0057.22-.0343.0972-.0829.08-.1143.18s-.0714.0857-.1057.1829c-.0343.0971.0314.12 0 .2172-.0315.0971-.0257.1-.0572.1971-.0314.0972-.02.1029-.0543.2-.0343.0972-.0314.0972-.0628.1943-.0315.0972 0 .1086-.0315.2058-.0314.0971-.1571.0543-.1885.1514-.0315.0972.0857.1372.0542.2343-.0314.0972-.0943.0772-.1257.1743-.0314.0972-.0057.1057-.04.2029-.0343.0971-.0686.0857-.1029.1829-.0342.0971.0029.1085-.0285.2057-.0315.0971-.04.0943-.0743.1914-.0343.0972-.1029.0743-.1372.1715-.0343.0971.0829.1371.0515.2343-.0315.0971-.1315.0657-.1658.1629-.0343.0971.0315.12 0 .2171-.0314.0972-.0428.0943-.0771.1915-.0343.0971-.0543.0914-.0886.1886-.0343.0971.0143.1143-.02.2114-.0343.0972-.0057.1057-.0371.2029-.0315.0971-.0315.0971-.0658.1943-.0343.0971-.1057.0714-.14.1714s-.0543.0915-.0857.1886c-.0314.0972-.0657.0857-.1.1829-.0343.0971-.0857.08-.12.1771-.0343.0972.1114.1458.0771.2429-.0343.0972-.1543.0572-.1886.1543-.0342.0972-.0085.1057-.04.2029-.0314.0971-.04.0943-.0714.1943s.1029.1429.0686.24c-.0343.0972-.1572.0572-.1886.1543-.0314.0972-.0743.0829-.1086.1829s-.0371.0971-.0686.1943c-.0314.0971.1.1429.0658.24-.0343.0972-.1029.0743-.1343.1715-.0315.0971-.0629.0885-.0943.1857-.0315.0971-.0257.1-.0572.1971-.0314.0972.02.1172-.0114.2143-.0314.0972.0286.1172-.0057.2172s-.16.0543-.1943.1514c-.0343.0972.0285.1201-.0029.2172-.0314.0972-.1171.0714-.1486.1686-.0314.0971-.0228.1-.0571.2s.0086.1115-.0257.2086c-.0343.0972-.06.0886-.0915.1886-.0314.1.0143.1143-.02.2114-.0343.0972-.0571.0886-.0914.1886s.06.1286.0286.2286c-.0315.1-.1515.0572-.1858.1572s-.0171.1028-.0485.2028c-.0315.1001-.0743.0858-.1058.1829-.0314.0972.0372.12.0029.22s-.0486.0915-.08.1886c-.0314.0972-.0143.1029-.0486.2-.0343.0972-.08.0829-.1114.1801-.0315.0971 0 .1085-.0343.2057-.0343.0971.02.1143-.0143.2143s-.0914.08-.1257.1772c-.0343.0971-.0172.1028-.0486.2028s.02.1172-.0114.2143c-.0315.0972-.0743.0829-.1086.1829s.06.1286.0257.2286-.2143.0371-.2457.1371c-.0315.1001.0571.1286.0257.2286s-.0915.08-.1229.1772.1115.1457.0772.2457-.1029.0743-.1372.1743-.0343.0972-.0686.1972-.0657.0886-.1.1857c-.0343.0972.0143.1143-.02.2143s.0143.1143-.02.2143-.08.0829-.1143.1829"/></g><path d="m25.7108 36.8251c-.1029-.0143-.1058 0-.1972-.0457s-.0486-.1314-.14-.1771c-.0915-.0458-.0829-.0658-.1743-.1115-.0915-.0457-.0972-.0343-.1886-.08s-.0972-.0371-.1886-.0857-.12.0114-.2143-.0343-.0543-.1172-.1486-.1657c-.0943-.0486-.1543.0771-.2457.0314-.0915-.0457-.0486-.1286-.1429-.1772-.0943-.0485-.1029-.0228-.1943-.0685s-.0829-.0658-.1743-.1115-.1114-.0057-.2029-.0543c-.0914-.0485-.0971-.0342-.1885-.0828-.0915-.0486-.1086-.0115-.2029-.0572s-.0629-.1028-.1543-.1486c-.0915-.0457-.0943-.0428-.1858-.0885-.0914-.0458-.1228.02-.2143-.0286-.0914-.0486-.0171-.1972-.1085-.2429-.0915-.0457-.1658.1029-.2572.0572-.0914-.0458-.0229-.1829-.1172-.2286s-.1371.0428-.2314 0c-.0943-.0429-.0429-.1429-.1343-.1886s-.1057-.02-.1972-.0657c-.0914-.0458-.1514.0685-.2428.0228-.0915-.0457-.1-.0286-.1943-.0771-.0943-.0486-.0743-.0829-.1658-.1315-.0914-.0485-.0571-.1171-.1486-.1657-.0914-.0486-.1457.06-.24.0143s-.0943-.04-.1886-.0886-.0343-.16-.1257-.2086-.0914-.0457-.1857-.0914-.1057-.0229-.1972-.0686c-.0914-.0457-.1171 0-.2086-.0486-.0914-.0485-.0857-.06-.18-.1057s-.0686-.08-.1429-.1514c.0229-.0658.0658-.0858.0829-.1515.0172-.0657.0714-.1257.0857-.1914s-.0685-.1515-.06-.22c.0086-.0686 0-.1372.0057-.2029.0058-.0657 0-.1343 0-.2s.0829-.1343.08-.2029c-.0028-.0686-.0714-.1314-.0771-.2s.02-.14.0086-.2058c-.0115-.0657-.12-.1142-.1343-.18-.0143-.0657.1086-.1657.0914-.2286-.0171-.0628-.1571-.0943-.1771-.1571-.02-.0629.0057-.1457-.02-.2057-.0258-.0601-.0829-.1086-.1115-.1686s0-.1572-.0314-.2143c-.0314-.0572-.0972-.1-.1343-.1572-.0372-.0571-.08-.1114-.1229-.1629-.0428-.0514-.1257-.0657-.1743-.1143-.0486-.0485-.04-.16-.0943-.2028-.0543-.0429-.1228-.0686-.18-.1058-.0571-.0371-.0743-.0371-.1343-.0685 0-.1029.0057-.0858.0372-.1829.0314-.0972-.0886-.1372-.0572-.2343.0314-.0972.2086-.0372.24-.1343.0315-.0972-.0885-.1372-.0571-.2343.0314-.0972-.0057-.1086.0286-.2058.0342-.0971.0257-.1.0571-.1971.0314-.0972.0943-.0772.1257-.1743.0315-.0972.0629-.0886.0943-.1829.0315-.0943.0572-.0886.0886-.1829s-.0343-.1171 0-.2143c.0343-.0971.0257-.0971.0571-.1943.0315-.0971.0972-.0743.1286-.1714.0315-.0972-.0628-.1286-.0314-.2257.0314-.0972.0486-.0915.08-.1886.0314-.0972.0543-.0886.0857-.1858.0315-.0971.1372-.06.1715-.1571.0343-.0972.0057-.1057.0371-.2029.0314-.0971.0686-.0829.1029-.18.0343-.0972.0057-.1057.0371-.2029.0315-.0971.0372-.0943.0686-.1914.0314-.0972.0514-.0915.0829-.1886.0314-.0972-.1229-.1486-.0915-.2457.0315-.0972.0572-.0886.0886-.1858.0314-.0971.1-.0743.1315-.1714.0314-.0972.0514-.0915.0828-.1886.0314-.0972.0229-.1.0572-.1972.0343-.0971-.0486-.1228-.0172-.22.0315-.0971.0057-.1057.04-.2029.0343-.0971.0886-.0771.1229-.1743.0343-.0971 0-.1085.0314-.2057.0315-.0971.0715-.0829.1057-.18.0343-.0972.0743-.0829.1058-.18.0314-.0972.0428-.0943.0771-.1886s.0143-.1029.0457-.2c.0315-.0972.0572-.0886.0915-.1858.0343-.0971 0-.1085.0314-.2057.0314-.0971-.0171-.1143.0172-.2114.0342-.0972.0314-.0972.0628-.1943.0314-.0972.1029-.0743.1343-.1715.0314-.0971-.0057-.1086.0286-.2057.0343-.0972 0-.1086.0314-.2057.0314-.0972.12-.0686.1515-.1658.0314-.0971.02-.1.0542-.1971.0343-.0972.0258-.1.0601-.1972.0342-.0971.0342-.0971.0657-.1943.0314-.0971-.0057-.1114.0257-.2086.0314-.0971.1057-.0743.1371-.1714.0315-.0972-.0457-.1229-.0114-.22.0343-.0972.1486-.0601.18-.1572.0315-.0972-.0685-.1314-.0343-.2286.0343-.0971-.0257-.1171.0086-.2143s.1286-.0657.1629-.1629c.0343-.0971.0628-.0857.0971-.1828.0343-.0972-.0285-.1172.0029-.2172s.0286-.1.06-.1972c.0314-.0971.0686-.0857.1-.1828.0314-.0972-.0486-.1258-.0171-.2229.0314-.0972.1514-.0572.1857-.1543.0343-.0972-.0057-.1086.0257-.2057.0314-.0972-.08-.1343-.0486-.2315.0315-.0971.1772-.0486.2086-.1457.0315-.0972.0457-.0915.08-.1915s-.0714-.1343-.04-.2314c.0315-.0972.0657-.0857.0972-.1829.0314-.0971.0428-.0943.0743-.1914.0314-.0972.12-.0686.1514-.1658.0314-.0971-.1171-.1485-.0829-.2457.0343-.0971.1172-.0686.1486-.1686.0315-.1-.0885-.1371-.0543-.2371.0343-.1001.1629-.0543.1943-.1515.0315-.0971-.0057-.1114.0258-.2086.0314-.0971.1085-.0714.1428-.1686.0343-.0971-.0943-.14-.06-.2371.0343-.0972.1715-.0515.2058-.1486.0342-.0972.0142-.1057.0457-.2029.0314-.0971-.0086-.1143.0228-.2114.0315-.0972-.0743-.1629-.0085-.2458.0628.0315.1943.06.2571.0829.0629.0229.1086.1114.1743.1286.0657.0171.14.0057.2086.0143.0686.0085.1372-.0057.2057-.0086.0686-.0029.1486.0857.2144.0771.0657-.0085.1257-.0942.1943-.1085.0685-.0143.1371-.0258.2028-.0486.0657-.0229.0772-.1572.1372-.1886s.1257-.0371.1857-.0743c.06-.0371.1086-.0714.1657-.1114.0572-.04.1086-.0715.1601-.12.0514-.0486.1343-.0543.18-.1058.0457-.0514.14-.0628.1828-.1171.0429-.0543 0-.1686.04-.2257.0401-.0572.0743-.1115.1086-.1715s.18-.06.2115-.1229c.0314-.0628-.0657-.18-.04-.2457s.0828-.0171.1057-.0829c.1029.0143.0914-.0228.1829.0229.0914.0457.08.0686.1714.1143s.1286-.0257.22.0229c.0915.0485.1229-.0143.2143.0314.0915.0457.0515.1257.1429.1743s.0972.0371.1886.0857.0657.1.1571.1486c.0915.0486.1172-.0029.2086.0429.0915.0457.0886.0514.1829.0971s.0714.0886.1629.1343c.0914.0457.1171-.0057.2086.04.0914.0457.1057.02.1971.0686.0915.0486.1.0314.1915.0771.0914.0457.0771.0772.1686.1229.0914.0457.0485.1314.14.1772.0914.0457.1628-.0943.2543-.0486.0914.0457.0086.2086.1.2543s.1286-.0257.22.02.0857.0571.1772.1029c.0914.0457.0714.0885.1628.1343.0915.0457.1143 0 .2058.0485.0914.0486.12-.0085.2114.04.0915.0486.08.0715.1715.1172.0914.0457.0542.12.1457.1657.0914.0457.1057.0229.1971.0686.0915.0457.1572-.0829.2486-.0343.0915.0486.0429.1429.1372.1886s.1143.0028.2057.0514c.0915.0486.0343.1629.1257.2086.0915.0457.1315-.0314.2229.0143.0915.0457.0657.0972.1572.1457.0914.0486.1629-.0914.2543-.0428.0914.0485.0914.0485.1857.0943.0943.0457.0343.1657.1257.2114.0915.0457.1658-.0571.2401.0172-.0229.0657-.0458.1714-.0629.2371s.0171.14.0057.2057c-.0114.0658-.0114.1315-.02.1972s-.1657.1143-.1714.1829.1028.1428.1028.2086c0 .0657-.08.1343-.0771.2.0028.0657-.0314.14-.0257.2057s-.0315.1457-.02.2115c.0114.0657.0257.14.04.2057s.1857.0943.2057.16.0229.1314.0429.1943.0628.1172.0885.1772c.0258.06.0086.14.0401.2.0314.06.0971.0971.1314.1543.0343.0571-.0314.1829.0086.2371.04.0543.1228.0772.1685.1286.0458.0515.0658.1258.1143.1743.0486.0486.0686.1372.1229.18.0543.0429.1172.0858.1743.1229.0572.0372.0914-.0114.1543.02 0 .1029.0629.1057.0314.2029-.0314.0971-.0542.0886-.0885.1857-.0343.0972-.0086.1057-.04.2029-.0315.0971-.1201.0686-.1515.1657-.0314.0972.0057.1086-.0286.2058-.0342.0971-.0142.1028-.0485.2-.0343.0971-.0858.08-.12.1771-.0343.0972.0914.14.06.2372-.0315.0971-.1.0743-.1343.1686s-.0543.0886-.0886.1857c-.0343.0972-.0686.0829-.1.18-.0315.0972-.0343.0943-.0657.1915-.0315.0971.1114.1457.08.24-.0315.0943-.1858.0457-.2201.14-.0342.0943.0058.1086-.0285.2057-.0343.0972.0571.1258.0257.2229-.0314.0972-.0886.0772-.12.1743-.0315.0972 0 .1086-.0315.2057-.0314.0972-.0285.0972-.0628.1943-.0343.0972.0171.1143-.0143.2115-.0314.0971-.1343.0629-.1657.16-.0315.0972-.0343.0972-.0658.1943-.0314.0972.0458.1229.0143.22-.0314.0972-.0485.0915-.08.1886-.0314.0972-.0028.1057-.0371.2029-.0343.0971-.0857.08-.1172.1743-.0314.0943-.0428.0943-.0743.1886-.0314.0943.0343.12 0 .2171-.0342.0972-.0828.08-.1143.1772-.0314.0972-.02.1-.0514.1972-.0314.0971-.1029.0714-.1371.1685-.0343.0972-.0743.0829-.1086.1801-.0343.0971.0143.1114-.02.2085-.0343.0972-.0257.1001-.06.1972-.0343.0972-.1029.0743-.1372.1715-.0343.0971-.0028.1057-.0343.2028-.0314.0972-.0257.1-.0571.1972-.0315.0971-.0372.0943-.0715.1914-.0342.0972.0286.1172-.0057.2143-.0343.0972-.12.0686-.1543.1658-.0343.0971.0486.1228.0143.22-.0343.0971.0514.1257.02.2229-.0314.0971-.0971.0743-.1286.1714-.0314.0972-.1285.0629-.1628.16-.0343.0972-.0286.0972-.0629.1943-.0343.0972.0057.1115-.0257.2086-.0314.0972-.08.08-.1143.1772-.0343.0971.0114.1114-.0229.2086-.0343.0971 0 .1085-.0314.2057-.0314.0971-.0857.08-.1172.1771-.0314.0972.0515.1258.0172.2229-.0343.0972-.0972.0743-.1315.1715-.0342.0971-.0142.1028-.0485.2-.0343.0971.0828.1371.0514.2343-.0314.0971-.0543.0914-.0886.1886-.0343.0971-.0886.08-.12.1771-.0314.0972.0486.1258.0143.2229-.0343.0972-.1686.0514-.2.1486-.0314.0971-.0543.0886-.0857.1857-.0315.0972.06.1286.0285.2258-.0314.0971-.1114.0714-.1428.1685-.0315.0972.0285.1172-.0057.2143-.0343.0972-.0486.0915-.0801.1915-.0314.1.0486.1229.0143.2229s-.1685.0514-.2028.1486c-.0343.0971.1228.1485.0885.2457-.0342.0971-.0885.08-.12.1771-.0314.0972-.0514.0915-.0857.1886-.0343.0972.0257.1172-.0057.2143-.0314.0972-.1943.0429-.2257.1429-.0315.1.0142.1143-.0172.2115-.0314.0971-.08.08-.1143.18s.0657.1314.0315.2286c-.0343.0971-.1258.0657-.1601.1657s-.0114.1057-.0428.2029c-.0315.0971-.0486.0943-.0829.1914-.0343.0972.1172.1772.0543.26-.0629-.0314-.1629-.1228-.2257-.1486-.0629-.0257-.1315-.0542-.1972-.0714-.0657-.0171-.1343-.0771-.2029-.0857-.0685-.0086-.1485.0629-.2171.0629s-.1486-.0629-.2172-.0543c-.0686.0085-.1429.0314-.2114.0457-.0686.0143-.1229.0828-.1886.1086-.0657.0257-.0972.1171-.16.1485-.0629.0315-.1172.0601-.1772.0972s-.14.0343-.1972.0771c-.0571.0429-.0342.1658-.0857.2115-.0514.0457-.1057.0771-.1543.1286-.0485.0514-.1028.0857-.1457.14s-.1.0914-.1372.1514c-.0371.06-.0228.14-.0571.2029s-.1886.0543-.2172.1172c-.0285.0628-.0743.12-.1.1857s.0115.1286-.0114.1943z" stroke-width="1.00009"/><path d="m27.8709 27.73c.0258-.0628-.0285-.0914 0-.1514.0286-.06.0686-.1172.0972-.1772s.0714-.1171.0971-.1771c.0258-.06.0915-.1115.1143-.1743.0229-.0629.0429-.1343.06-.2.0172-.0658.0258-.1429.0315-.2086.0057-.0658.0057-.1458.0028-.2115-.0028-.0657-.1571-.1143-.1714-.18-.0143-.0629.1029-.1686.0771-.2314-.0228-.06-.1371-.0829-.1714-.1429-.0314-.0543.0171-.1686-.0257-.2257-.0429-.0572-.2229 0-.2686-.0543s-.0629-.1258-.1115-.1743c-.0485-.0486-.0257-.1743-.0771-.2229s-.1514-.0372-.2057-.0829-.0658-.1457-.1229-.1857c-.0572-.04-.2.0429-.2572 0-.0571-.0429-.0971-.1029-.1571-.14-.06-.0372-.1172-.0743-.1772-.1115-.06-.0371-.1171-.0742-.1771-.1085s-.1258-.0629-.1858-.0972-.0857-.1371-.1457-.1714-.1486-.0229-.2086-.0543c-.06-.0315-.0743-.1543-.1343-.1886s-.1971.0829-.2543.0543c-.0571-.0286-.0829-.1315-.1429-.16-.06-.0286-.1228-.0543-.1828-.0829s-.0972-.1114-.16-.1372c-.0629-.0257-.1658.0601-.2286.0372-.0629-.0229-.0772-.2-.1401-.2172-.0628-.0171-.1371-.0257-.2-.0428-.0628-.0172-.14.0085-.2057 0-.0657-.0086-.1314-.0315-.2-.04-.0686-.0086-.1372.0457-.2057.0428-.0686-.0028-.1315-.0114-.2001-.0114-.0685 0-.1314.0229-.2.0257-.0743.0029-.1371.0457-.2029.0543-.0714.0086-.1543-.06-.2228-.0457-.0715.0171-.1258.08-.1886.1057-.0686.0257-.14.0343-.2.0657-.06.0315-.1143.08-.1715.1229-.0571.0429-.1714.0257-.22.0771-.0486.0515-.1.1115-.1429.1715-.0428.06-.0457.1457-.0771.2086-.0315.06-.0486.1343-.0743.2-.0257.0629.06.1629.04.2343-.02.0657-.0486.1229-.0629.1943-.0143.0657-.1943.1-.2057.1657-.0114.0658-.0143.1343-.0229.2001-.0085.0657.1143.1457.1086.2143-.0057.0685-.1457.12-.1486.1885-.0028.0686.1658.1429.1629.2086-.0029.0658-.1286.1258-.1314.1943-.0029.0686-.0543.1315-.0543.2001 0 .0685.0428.1342.04.2-.0029.0657-.0543.1343-.0543.2s.1771.1343.1771.2-.0571.1343-.06.2c-.0028.0657.06.1343.0572.2029-.0029.0686-.1372.1286-.14.1972-.0029.0685-.0372.1314-.04.2-.0029.0686.0743.1343.0714.2028-.0028.0686-.0486.1315-.0514.2001-.0029.0685-.0343.1343-.0343.2s.0371.1343.0371.2c0 .0714.0515.14.0515.2114 0 .0715-.0543.1429-.0486.2143.0057.0715.04.1401.0486.2086.0085.0686.04.1372.0485.2086.0086.0715-.0257.1486-.0114.2172s.0257.14.0429.2086c.0171.0686.0057.1486.0257.2171.02.0686.0829.1258.1086.1915s.1.1114.1314.1743c.0314.0628.0114.1543.0457.2143s.04.1457.08.2057c.0372.0543.1886.0257.2343.0772.0429.0514.0915.0914.1401.14.0485.0486.0542.1343.1057.18.0514.0457.16.0114.2143.0543.0543.0428.0314.1829.0886.2229.0571.04.1028.0943.1628.1285.06.0343.1515.0086.2115.0401.06.0314.0771.1543.1371.1828.06.0286.1286.0572.1915.0829.0628.0257.1714-.0657.2343-.0457.0628.02.0943.1714.16.1886.0657.0171.1629-.0886.2257-.0772.0686.0114.1258.1514.1915.1543.0714.0029.1457-.1057.2143-.1086.0686-.0028.1257-.08.1943-.0914s.1371.0114.2029-.0086c.0657-.02.1771.08.24.0515.0628-.0286.1314-.0658.1914-.1029.06-.0372.0515-.1715.1057-.2143.0543-.0429.1658-.0143.2058-.0572.0428-.0457-.0172-.1771.0228-.2257.0372-.0457.16-.0314.2001-.0829.0457-.0628-.0058-.2086.0257-.2314.0485-.0343.16.0286.2286.0543.0428.0171.1085.0085.1743.0371.0657.0286.14.02.2028.0429.0658.0257.1.1286.1629.1486.0686.02.1143.1343.18.1457.0715.0143.1572-.0972.2229-.0943.0714.0029.14.0514.2057.0429.0657-.0086.1172-.0858.1829-.1086.0657-.0229.1657.0314.2257-.0029.0572-.0343.14-.0571.1915-.1057.0486-.0429.0343-.1572.08-.2143.04-.0514.1571-.0572.1971-.1172.0343-.0542.0258-.1457.0601-.2114.0285-.0572.0685-.1114.0942-.1743.0258-.0629.0058-.1372.0286-.1972.0229-.06.08-.1114.0972-.1743.0171-.0628.0428-.1257.06-.1886.0171-.0628.0457-.1257.06-.1885.0143-.0629-.1172-.1543-.1086-.2172s.0143-.1286.0229-.1914c.0085-.0715.1085-.1315.1028-.2029-.0057-.0715.0257-.1572.0057-.2229s-.0943-.12-.1257-.1857-.0743-.12-.1143-.18-.0028-.1772-.0457-.2343c-.0429-.0572-.0943-.1143-.1429-.1658-.0371-.04-.1628-.02-.2143-.0771-.0428-.0486-.0257-.1686-.0771-.2143-.0543-.0486-.0715-.0572-.1257-.0858z" stroke-width="1.00009"/></g><path d="m23.6088 25.5646c.0093.0072.0192.0149.0282.0224.0201.0166.0451.0391.0666.067l.1779.2302h-.0322c.0067.0103.0124.0196.017.0271.0019.0031.0036.0059.0052.0084.004.0064.0075.0119.0107.0167zm0 0c.0035-.0028.0072-.0058.0111-.0089.0022-.0017.0046-.0036.0071-.0056.0131-.0103.0295-.0233.0435-.0356.0427-.0371.0733-.06.1087-.0703l.001-.0004c.0401-.012.0713-.0343.0903-.0492.0145-.0115.0298-.0251.0412-.0354.0006.0007.0013.0014.0019.0022.015.0172.0371.0425.0605.0634.0216.0192.0703.0591.1389.0621.0586.0025.1135-.0159.1402-.0249.0026-.0009.005-.0017.007-.0024.0188-.0061.0271-.0078.0296-.0084.0391.0061.0745.002.1012-.0032.0247-.0048.0488-.012.0654-.0169.0012-.0004.0025-.0008.0036-.0011.0187-.0056.0293-.0085.0378-.0101.0065.0046.0146.0114.0283.0235.0011.0009.0022.0019.0033.0029.0128.0112.0314.0275.0513.0418.0224.0161.054.0353.0939.0457.0441.0115.0848.0078.1131.0031.0261-.0044.0519-.0117.0694-.0167.0013-.0003.0026-.0007.0038-.001.01-.0029.0178-.005.0241-.0066.0035.0048.0077.0107.013.0182.0007.0009.0013.0019.002.0029.0109.0155.0276.0393.0469.0605.0207.0228.0542.0538.1026.0706.0367.0128.0717.0156.0987.0158.0246.0001.049-.002.066-.0034.0013-.0001.0025-.0002.0036-.0003.0089-.0008.016-.0013.0219-.0017.0028.0057.0062.0127.0103.0215.0005.001.001.0021.0015.0032.0086.0185.0216.0462.0375.0711.0161.0254.0463.0664.0975.0907.0561.0268.1117.0202.1416.0147.0298-.0054.06-.0153.0799-.0218.0014-.0005.0028-.0009.0041-.0013.0136-.0045.0234-.0075.0308-.0096.0118.008.0255.0184.0436.0323.0011.0008.0021.0016.0032.0025.0253.0194.0608.0468.101.0682.0009.0005.0045.003.0115.0096.0086.008.0179.0181.0317.0332.0012.0013.0025.0027.0038.0042.0244.0267.0623.0684.111.1008.0324.0216.0692.0403.097.0544.0053.0027.0104.0053.015.0076.033.0171.0539.0294.069.0423.0246.0209.0525.0421.0765.0603.0073.0056.0143.0109.0207.0158.026.0201.046.0365.0612.0513.0005.0041.001.0112.0009.0225 0 .008-.0003.0163-.0007.0269v.0002.0001c-.0004.0098-.0008.0222-.0008.0346-.0001.0233.001.0596.0129.0971l.1361-.0434c.0043.0139.0089.0265.0131.0382.0185.051.0311.0856-.0131.139-.0217.0267-.0522.0222-.0893.0167-.0263-.0039-.0558-.0083-.0878-.0024-.0272.0065-.0514.0375-.0764.0696-.0303.0387-.0617.079-.1008.079-.0353 0-.0732-.0072-.1119-.0146-.0302-.0057-.0609-.0115-.091-.014-.0356-.003-.0674-.0322-.0989-.0611-.0291-.0268-.0581-.0534-.0896-.0589-.035-.0058-.0722.0039-.1082.0134-.0346.0091-.0682.0179-.0976.0123-.039-.0075-.0828.011-.1234.0282-.0367.0156-.0708.03-.0966.0232-.0294-.007-.0513-.0456-.0737-.0852-.0233-.0411-.0471-.0832-.0806-.0919-.0324-.0085-.0689.0011-.1051.0106-.0374.0098-.0744.0195-.1063.0094-.0397-.0126-.0782-.0287-.1163-.0445-.0223-.0093-.0445-.0185-.0666-.027-.0343-.013-.0686-.0298-.1029-.0466-.0257-.0126-.0514-.0252-.0771-.0362-.035-.015-.069-.0329-.1031-.0509-.0245-.0128-.049-.0258-.0741-.0377-.0295-.014-.0686-.0108-.1073-.0077-.0399.0033-.0794.0065-.107-.0094-.0272-.0158-.0336-.0709-.04-.1264zm2.431 1.109c-.0002.0002-.0003.0002-.0003.0002zm-1.8303-1.3477c.034-.0111.0676-.0221.1011-.016l-.5714-.0029c.0254-.0076.0508-.0305.077-.0541.0326-.0294.0665-.0599.103-.0631.032-.0029.0662.0364.1007.076.0334.0383.067.0769.0993.0783.0306.0014.0606-.0085.0903-.0182zm1.4501.5141s-.0006.0001-.0016.0002zm-.4322-.1866c0-.0001.0004.0003.001.0012zm-1.352-.3332c-.0017-.0011-.0025-.0018-.0025-.0019s.0008.0005.0025.0019zm-.319.2024c-.0009-.0011-.0007-.001.0003.0003z" fill="#000" stroke-width=".285739"/><path d="m23.5906 25.7413c-.0486-.0628-.1543-.1086-.16-.16-.0058-.0686.0943-.1286.1457-.1743.0429-.0371.0943-.08.1629-.1.0571-.0171.1143-.1114.18-.1172.0628-.0057.1343.1515.2.1543.0657.0029.1286-.0457.1914-.0342.0686.0114.1486-.0458.2172-.0315s.1172.1.1829.1172c.0657.0171.1571-.0457.2228-.0257.0658.02.0972.1371.1629.16.0657.0228.1543-.0143.2143.0114s.0772.1629.1372.1915c.06.0285.18-.0601.24-.0286.06.0314.1114.0857.1714.1171.0572.0315.1001.1086.1686.1543.06.04.1372.0658.1943.1143.0572.0486.1286.0943.1772.1458.0571.0628.0171.1657.0371.2285.0229.0743.0543.1115 0 .1772-.0371.0457-.1 0-.1771.0143-.06.0143-.1057.1486-.1772.1486-.0628 0-.1343-.0229-.2029-.0286-.0685-.0057-.1228-.1086-.1885-.12-.0686-.0114-.1458.0371-.2058.0257-.0743-.0143-.1657.0657-.22.0514-.06-.0142-.0886-.16-.1543-.1771-.0657-.0172-.1486.04-.2114.02-.0629-.02-.1229-.0486-.1829-.0715-.06-.0228-.12-.0571-.18-.0828s-.1172-.06-.1772-.0886-.16.0143-.2143-.0171c-.0543-.0315-.0257-.2201-.08-.2543-.0571-.0372-.2.0542-.2486.0142-.0543-.04-.08-.12-.1257-.1628-.0486-.0458-.0657-.1229-.1029-.1715z" stroke-linecap="round" stroke-linejoin="round" stroke-width="1.00009"/><path d="m24.6964 25.8499c.0514-.0515.0257-.2115.0828-.2343.0601-.0257.1543.0371.2201.02.06-.0143.1171-.0429.18-.0715.0628-.0285.1057-.1028.1714-.1343.0657-.0314.1315-.0514.1943-.0857.0629-.0343.1772.0257.24-.0114.0629-.0372.0772-.1429.1372-.1857.06-.0429.0657-.1372.1172-.1829.0514-.0457.2314.0286.28-.0257.0428-.0515.0314-.1515.0657-.2058s.04-.1285.0657-.1886c.0257-.06-.0086-.1371.0143-.2.0229-.0628.1429-.0943.1572-.16.0142-.0657.0228-.1314.0314-.1971.0086-.0658-.0257-.1343-.0229-.2001.0029-.0657.04-.1314.04-.1971s-.0828-.1286-.0857-.1943c-.0057-.0686.0972-.1543.0829-.22-.0143-.0658-.1257-.1058-.1486-.1686-.0229-.0629.0171-.1572-.0143-.2172s-.0314-.1429-.0686-.2c-.0371-.0572-.0714-.12-.1086-.1772-.0371-.0571-.0971-.1-.1371-.1543s-.08-.1085-.1143-.1657c-.04-.06-.0829-.1171-.12-.18-.0372-.0629-.16-.0772-.1943-.1429s-.0743-.1286-.1029-.1971c-.0286-.0686-.0571-.1372-.0857-.2058-.0286-.0685-.06-.1371-.08-.2086-.02-.0714.0028-.1543-.0143-.2257s.0629-.16.0514-.2314c-.0114-.0715-.0971-.1286-.1028-.2029s.04-.1429.04-.2172-.0772-.1457-.0715-.2171c.0058-.0715.0086-.1458.02-.2172.0115-.0714-.0285-.16-.0114-.2286.0172-.0686.1657-.1029.1915-.1714.0257-.0686.0142-.1486.0457-.2115.0314-.0628.0628-.1314.1-.1914.0371-.06.0143-.1686.06-.2229s.16-.0543.2086-.1057c.0486-.0515.1629-.0229.2171-.0686.0543-.0457.0572-.1543.1172-.1914.06-.0372.1-.1172.1629-.1486.0628-.0315.1543-.0029.22-.0257.0657-.0229.1429-.0058.2114-.0229.0686-.0171.1286-.0543.2-.0629.0715-.0085.1372-.0543.2086-.0543.0715 0 .1486-.0514.2201-.0457.0714.0057.1457.0315.2143.0457.0685.0143.1143.1201.18.1429.0657.0229.1257.0543.1886.0829.0628.0286.1371.0343.1943.0714.0571.0372.18-.0057.2343.0372.0543.0428.0085.2.0571.2514s.2029.0143.2429.0714c.04.0572-.0486.1943-.0171.2572.0314.0629.1971.0714.22.1372.0228.0657-.0515.16-.04.2314.0114.0714.1257.1372.1228.2086 0 .0629-.14.12-.1514.1914-.0114.0629-.0457.1172-.0686.1829-.02.0629.0086.1429-.02.2029s-.0257.1371-.06.1943c-.0343.0571-.0686.12-.1086.1743s-.0685.1314-.1171.1772c-.0486.0457-.1229.0857-.1772.1171s-.1514.0086-.2143.0257c-.0628.0172-.1257-.0143-.1943-.02-.0629-.0057-.1086-.0371-.1743-.0628-.0429-.0172-.1657.02-.2314-.0458-.0515-.0485-.0086-.1857-.0543-.2457-.0486-.0657-.0886-.1086-.1086-.1714-.0257-.0829-.0314-.08.0286-.1315" stroke-linecap="round" stroke-linejoin="round" stroke-width="1.00009"/><path d="m26.7165 29.0639c.0519-.0959.1462-.1614.2605-.178.1504-.0215.2993.0306.4185.1565.0503.0538.1131.1497.1565.2614.0439.1127.0612.2241.0421.3138l-.0004.0018c-.0208.1038-.0784.1739-.1259.2298l-.0001-.0001-.0026.0033-.0115.0143-.0109.0137-.0073.0159c-.0492.107-.1577.2415-.3991.2912l-.0011.0002c-.0168.0036-.0333.0064-.0486.0083h-.0443c-.103 0-.1966-.0371-.2732-.1094-.1244-.1184-.129-.2768-.1164-.3823l.0026-.0217-.0041-.0215c-.0022-.012-.0044-.0242-.0063-.0366h.0174v-.0001-.0001-.0001-.0001-.0001-.0001-.0001-.0001-.0001-.0001-.0001-.0001-.0001-.0001-.0001-.0001-.0001-.0001-.0001-.0001-.0001-.0001-.0001-.0001-.0001-.0001-.0001-.0001h-.0179c-.0117-.0755-.0159-.1588.0114-.246l.0003-.0013c.031-.1023.0872-.1997.1536-.2993l.0005.0004z" fill="#000" stroke-width=".285739"/></g></svg>