<svg fill="none" height="56" viewBox="0 0 56 56" width="56" xmlns="http://www.w3.org/2000/svg" xmlns:xlink="http://www.w3.org/1999/xlink"><mask id="a" fill="#fff"><path d="m26.7954 36.3091c-.0028-.0657.0372-.1343.0314-.2-.0057-.0657 0-.1343-.0057-.2-.0057-.0658-.0571-.1258-.0657-.1915s-.02-.1314-.0314-.1943.0543-.1486.04-.2143-.0343-.1343-.0543-.1972c-.02-.0628-.1886-.0714-.2143-.1343-.0257-.0628-.0514-.1142-.08-.1714-.0286-.0571-.0657-.1057-.1-.16-.0372-.0572-.0086-.1514-.0515-.2029-.0428-.0514-.0142-.1657-.06-.2143-.0457-.0486-.1228-.0714-.1714-.1171-.0486-.0458-.0972-.0943-.1486-.1372s-.0857-.1114-.14-.1514-.1114-.08-.1629-.12c-.0543-.04-.1571-.0172-.2143-.0601-.0571-.0428-.0657-.1428-.1228-.1828-.0572-.04-.1829.0228-.2401-.0172-.0571-.04-.0914-.1085-.1485-.1457-.0572-.0371-.0772-.1314-.1343-.1714-.0572-.04-.1372-.0458-.1943-.0829-.0572-.0371-.1172-.0743-.1743-.1114-.0572-.0372-.0658-.1515-.1229-.1886-.0572-.0372-.1257-.0629-.1829-.1-.0571-.0372-.1171-.0743-.1771-.1115-.0601-.0371-.1258-.06-.1858-.0971-.06-.0372-.1371-.0429-.1971-.08-.06-.0372-.1229-.0658-.1829-.1029s-.1229-.0629-.1829-.1c-.06-.0372-.1343-.0429-.1943-.0772-.06-.0342-.12-.0714-.18-.1028-.06-.0315-.0743-.1543-.1372-.1886-.0628-.0343-.2057.0943-.2657.0657s-.0829-.1457-.1429-.1771c-.0057-.0629.0715-.1343.0658-.1972-.0058-.0629-.1543-.1229-.1543-.1857 0-.0629 0-.1315.0028-.1943.0029-.0629.1086-.1229.1143-.1858.0057-.0628-.04-.1314-.0314-.1943.0086-.0628-.0572-.14-.0457-.2028.0114-.0629.1-.1115.1143-.1743.0142-.0629-.0143-.1429.0085-.2029.0229-.06.04-.1543.0829-.2029.0429-.0514.1314-.0971.1886-.1229.0571-.0257.1629.0886.2257.0772.0629-.0114.1172-.02.1829-.02s.1314-.1086.1943-.1057c.0629.0028.1314-.0486.1943-.0458.0686 0 .1314.06.2.0572.0686-.0029.1315-.0229.2-.0343.0686-.0114.1458.0257.2115.0086.0657-.0172.1657.0485.2286.0257.0628-.0229.0971-.14.16-.1686.0628-.0286.1143-.08.1743-.1143s.1514-.0229.2086-.0629c.0571-.04.0457-.1628.0971-.2085.0515-.0458.1829-.0086.2286-.06.0457-.0515.1257-.0858.1657-.1401.0429-.0543.06-.1314.0972-.1885.0371-.0572.0429-.1372.0743-.1972s-.0143-.1572.0143-.22c.0285-.0629.1457-.0886.1686-.1543.0228-.0657.0171-.14.0371-.2058.02-.0657.0914-.12.1057-.1857s-.0486-.1514-.0343-.2171c.0143-.0658-.0085-.1401 0-.2058.0086-.0657.0629-.1286.0715-.1943.0085-.0657-.0286-.14-.02-.2086.0085-.0685.0428-.1314.0514-.2s.0057-.1371.0143-.2057.1514-.1172.16-.1858c.0086-.0685-.1372-.1571-.1286-.2285.0086-.0715.0057-.1401.0143-.2086.0086-.0686.0257-.14.0372-.2086.0114-.0686.0428-.1372.0542-.2058.0115-.0685.0858-.1257.1001-.1943.0142-.0685-.0715-.1628-.0543-.2314.0171-.0686.08-.1257.1028-.1914.0229-.0658.1258-.0972.1543-.1601.0286-.0628.0143-.1485.0515-.2086.0371-.06.0428-.1485.0885-.2028.0458-.0543.1-.1086.1515-.1572.0514-.0486.0714-.0343.1314-.0714-.06-.0257-.0057-.1057-.0571-.14-.0515-.0343-.18.0171-.2258-.0257-.0457-.0429-.0257-.1572-.0685-.2058-.0429-.0486-.0258-.1314-.06-.1857-.0343-.0543-.1715-.0514-.2001-.1086-.0285-.0571-.0057-.14-.0257-.2s.0343-.14.0172-.2029c-.0172-.0628-.1458-.1-.1572-.1629-.0114-.0657.1029-.1428.0943-.2057-.0086-.0628-.1629-.12-.1629-.1829 0-.0628.0057-.1314.0057-.1971s.0715-.1286.0743-.1943c.0029-.0657-.0571-.1315-.0542-.1972.0028-.0657.0428-.1286.0457-.1914.0028-.0629-.0515-.1315-.0486-.1972s-.0086-.1286-.0086-.1943c0-.0628 0-.1343 0-.2086 0-.0657.0429-.1343.0429-.2057s-.0486-.1343-.0515-.2029c-.0028-.0686.1686-.1514.1601-.2229-.0086-.0714-.0543-.14-.0686-.2057s.0057-.16-.0172-.2229c-.0228-.0628-.0943-.1285-.1314-.1857-.0371-.0571-.1657-.04-.2172-.0886-.0514-.0486-.0771-.1171-.1428-.1457-.0457-.02-.02-.0457-.0629-.0657.0429-.0629.0429-.1086.0829-.1743s.0085-.1715.0457-.2372c.0371-.0657.14-.0943.1743-.1629.0343-.0685-.0257-.18.0057-.2485.0314-.0715.0857-.1258.1086-.2001.0228-.0743-.0086-.1285-.0172-.2057-.0057-.0571-.0028-.0886-.0257-.1429-.0228-.0543-.0171-.1057-.0486-.1543-.0314-.0485-.0342-.1143-.0714-.1571-.0428-.0543-.0743-.1172-.12-.1686s-.06-.1314-.1086-.18-.1-.0943-.1486-.1429c-.0485-.0486-.0743-.1229-.1257-.1686s-.1743-.0114-.2257-.0543c-.0515-.0428-.0257-.1886-.08-.2314-.0543-.0429-.1943.0314-.2515-.0086-.0571-.04-.0514-.1657-.1114-.2029-.06-.0371-.1115-.0857-.1686-.12s-.1143-.0828-.1743-.1143c-.06-.0314-.1314-.0514-.1914-.0828-.06-.0315-.1401-.0286-.2029-.0572-.0629-.0286-.1286-.0486-.1915-.0743-.0628-.0257-.16.0372-.2257.0143-.0657-.0228-.1114-.0857-.1772-.1086-.0657-.0228-.0971-.1486-.1657-.1686s-.1429-.0028-.2086-.02c-.0657-.0171-.1543.06-.22.0458-.0657-.0143-.1171-.12-.1829-.1315-.0657-.0114-.14.0086-.2086 0-.0685-.0085-.1428.0572-.2114.0486s-.1286-.16-.1943-.1629c-.0657-.0028-.14-.0171-.2086-.0171s-.14.0114-.2086.0114-.1314.1343-.2.1372c-.0686.0028-.1486-.1058-.2172-.0972-.0685.0086-.14.0372-.2086.0486-.0685.0114-.1457-.0057-.2171.0057s-.1429.0229-.2115.04c-.0685.0172-.1257.0886-.1943.1057-.0685.0172-.1428.0143-.2114.0343s-.12.0943-.1857.1143c-.0658.02-.1315.0543-.1972.0772-.0657.0228-.1057.1171-.1714.1428-.0658.0229-.1458.0058-.2086.0315-.0629.0257-.1572-.0172-.22.0085-.0629.0258-.1001.1172-.1629.1458-.0629.0285-.16-.0172-.2229.0114s-.1029.1057-.1657.1371c-.0629.0315-.1343.0372-.1972.0686-.0628.0315-.14.0343-.2.0657-.06.0315-.1114.0886-.1714.1229s-.0715.1515-.1286.1886c-.0572.0371-.1115.0772-.1715.1143s-.1543.0171-.2114.0571c-.0572.04-.1315.0543-.1857.0972-.0543.0429-.0943.1057-.1486.1457s-.1143.0772-.1686.12c-.0543.0429-.0543.1486-.1086.1943-.0543.0458-.1829 0-.2343.0458-.0514.0457-.04.16-.0886.2057s-.0886.1057-.1371.1543c-.0486.0486-.1115.0828-.1601.1343-.0485.0514-.0742.1171-.12.1686-.0457.0514-.0714.1171-.1143.1714-.0428.0543-.22.0057-.26.0629-.04.0543-.0428.14-.0828.1971-.04.0572.0228.1772-.0143.2372-.0372.06-.0743.1143-.1058.1743-.0314.06-.0514.1257-.0828.1857s-.1457.08-.1772.1429c-.0314.0629-.0571.1257-.0828.1914-.0258.0658-.1.1115-.1229.1772s-.02.14-.0429.2057c-.0228.0658-.0057.1429-.0228.2086-.0172.0657-.1229.1143-.1372.18-.0143.0658.12.1686.1086.2343-.0114.0658.0029.1372-.0057.2058s-.0572.1286-.0629.1971c-.0057.0686-.1028.1286-.1057.2001-.0029.0714-.0457.14-.0457.2085 0 .0686.1686.1343.1714.2029.0029.0686-.0971.1429-.0914.2115.0057.0685.0628.1314.0743.2.0114.0686-.04.1457-.0257.2143.0142.0686.0085.14.0257.2086.0171.0686.0886.12.1086.1857s.1028.1086.1257.1743c.0228.0657-.0229.1543.0028.2172.0258.0628.0486.1285.0772.1914s.0714.1172.1029.1772c.0314.06-.0058.16.0257.22.0314.06.0828.1143.1171.1714.0343.0572.0572.1286.0915.1858.0343.0571.08.1114.1171.1685.0372.0572.1115.0915.1486.1486.0371.0572.1086.0943.1457.1515.0372.0571.0943.1028.1315.16.0371.0571 0 .16.0371.22.0372.06.0686.1172.1029.1772s.16.0685.1943.1285c.0343.0601-.0172.1629.0114.2258.0286.0628.1314.0914.16.1543.0286.0657 0 .1514.0257.2171.0258.0658.02.1429.0429.2086s.1457.1.1657.1686 0 .1457.0229.2143c.0228.0686.1143.1143.1343.1829s-.1086.1743-.0886.2429c.02.0685.0943.12.1143.1886.02.0685.0429.1343.0629.2028.02.0686-.0572.1629-.0372.2315s.0572.1314.08.1971c.0229.0658.0372.1401.06.2058.0229.0657.1372.1.1629.1628.0257.0629-.0114.1601.0171.2229.0286.0629.1972.0543.2315.1172.0371.0685.0229.1628.0714.2286.0486.0657.0486.1743.1058.2257.0571.0514.1.1086.1685.14 0 .0657.04.0914.0429.1543s.0972.1229.1029.1857c.0057.0686-.0258.1429-.02.2115.0057.0686-.0829.1429-.08.2114.0028.0686.06.1372.06.2058 0 .0685-.0886.1285-.0972.1971s.02.14 0 .2058c-.02.0657.02.1514-.0086.2171-.0285.0657-.1143.0943-.1543.1515-.04.06-.0114.1771-.06.2314-.0485.0543-.18.0171-.2371.0629-.0572.0457-.0686.1486-.1258.1886-.0571.04-.1771-.0029-.2371.0342-.0572.0372-.0972.0915-.1543.1286-.0572.0372-.0572.16-.1115.1972-.0542.0371-.1314.04-.1885.0771-.0572.0372-.1201.0629-.1743.0972-.0543.0343-.0743.1371-.1315.1714-.0571.0343-.1457.0172-.2029.0515-.0571.0343-.1343.0343-.1914.0685-.0571.0343-.1372.0286-.1943.0629-.0572.0343-.12.0572-.1772.0914-.0571.0343-.0657.1572-.1228.1915-.0572.0343-.1543 0-.2115.0314-.0571.0314-.0971.1029-.1543.1343-.0571.0314-.1514 0-.2086.0314-.0571.0315-.0514.1886-.1114.2201-.0572.0285-.1714-.0458-.2286-.0172-.0571.0286-.1029.0829-.1629.1143s-.0943.1029-.1514.1343c-.0572.0314-.1286.0372-.1857.0686-.0572.0314-.0743.1314-.1286.1657s-.1515.0029-.2058.04c-.0542.0372-.06.1372-.1142.1772-.0543.04-.1401.0286-.1915.0686s-.1486.0285-.1972.0742c-.0485.0458-.0428.1458-.0857.1915-.0428.0457-.1028.0829-.1428.1343-.0429.0543-.0772.1143-.1143.1714-.0372.0572-.0772.1172-.1086.1772s0 .1514-.0257.2143c-.0258.0629-.1258.0971-.1515.1629-.0257.0657-.0628.1257-.0828.1943-.02.0685.0228.1486.0085.2171-.0143.0686-.0371.1315-.0485.2-.0115.0686-.1143.1229-.1229.1915s.02.1429.0143.2114c-.0057.0686-.0743.1343-.0772.2058-.0028.0714.04.1428.0372.2114-.0029.0686.1143.1429.1143.2115 0 .06-.1743.1285-.1743.2057 0 .0657.1257.1343.1228.2086 0 .0657.0629.1371.0629.2086 0 .0686-.04.1371-.04.2086 0 .0714.04.1371.04.2086 0 .0714-.0057.1371-.0057.2057s-.0543.14-.0543.2086.0514.14.0514.2086c0 .0685-.0943.14-.0943.2114s-.0771.14-.0771.2115c0 .0714.1171.14.1171.2085 0 .0715.04.1401.04.2086 0 .0743-.1228.1429-.1228.2115 0 .0743.1314.1457.1314.2086 0 .08-.1029.1514-.1029.2086 0 .1285-.0371.0943.06.1285.0972.0343.0743-.02.1772-.02s.1029.1801.2057.1801c.1029 0 .1029.0085.2058.0085.1028 0 .1028-.0885.2057-.0885s.1029.0771.2057.0771c.1029 0 .1029-.1457.2058-.1457.1028 0 .1028.1171.2057.1171s.1029-.1457.2029-.1457.1028.1029.2028.1029c.1001 0 .1029-.0515.2029-.0515s.1029.1115.2058.1115c.1028 0 .1028-.0858.2057-.0858s.1029-.0114.2057-.0114c.1029 0 .1029.0972.2058.0972.1028 0 .1028-.0457.2057-.0457.1028 0 .1028.0285.2057.0285s.1029-.1343.2057-.1343c.1029 0 .1029.0943.2058.0943.1028 0 .1028-.04.2057-.04s.1029.1115.2057.1115c.1029 0 .1029-.0629.2058-.0629.1028 0 .1028-.0914.2057-.0914s.1029.1057.2057.1057c.1029 0 .1029.0114.2058.0114.1028 0 .1028-.12.2057-.12s.1029.1714.2057.1714c.1029 0 .1029-.06.2058-.06.1028 0 .1028-.0257.2057-.0257s.1029-.0171.2057-.0171c.1029 0 .1029-.06.2058-.06.1028 0 .1028-.0143.2057-.0143s.1029.0829.2057.0829c.1029 0 .1029.0485.2058.0485.1028 0 .1028-.0143.2057-.0143s.1029-.0114.2057-.0114c.1029 0 .1029.0429.2058.0429.1028 0 .1028-.0772.2057-.0772.1028 0 .1029.02.2057.02.1029 0 .1029-.0828.2057-.0828.1029 0 .1029-.0029.2058-.0029.1028 0 .1028-.0143.2057-.0143s.1029.0857.2057.0857c.1029 0 .1029.0429.2058.0429.1028 0 .1028-.0543.2057-.0543s.1029-.0314.2057-.0314c.1029 0 .1029.1257.2058.1257.1028 0 .1028-.1686.2057-.1686s.1029.0429.2057.0429c.1029 0 .1029.1428.2058.1428.1028 0 .1028-.0171.2057-.0171s.1029-.0257.2057-.0257c.1029 0 .1029-.0657.2058-.0657.1028 0 .1028.1057.2057.1057s.1029-.1743.2057-.1743c.1029 0 .1029.0571.2058.0571.1028 0 .1028.0372.2057.0372h.2057c.1029 0 .1029.0428.2058.0428.1028 0 .1028.0343.2057.0343s.1029-.0914.2057-.0914c.1029 0 .1029-.04.2057-.04.1029 0 .1029.0314.2058.0314.1028 0 .1028-.0028.2057-.0028s.1029-.0058.2057-.0058c.1029 0 .1029.0229.2086.0229.1058 0 .1029.0886.2058.0886.1028 0 .1028-.0172.2057-.0172s.1029-.06.2057-.06c.1029 0 .1029-.04.2086-.04s.1029.0543.2086.0543.1029-.0628.2086-.0628.1314.1371.2314.1057c0-.0686.0715-.2057.0715-.2743s-.0943-.1372-.0972-.2058c-.0028-.0685-.0485-.1371-.0514-.2057s.1114-.14.1114-.2086.0115-.1371.0115-.2057-.0429-.1372-.0429-.2057c0-.0686-.0714-.1372-.0714-.2029s.0257-.1372.0257-.2057c0-.0686-.0657-.1372-.0686-.2029-.0028-.0657.0543-.1372.0543-.2058 0-.0685-.04-.1371-.04-.2028s.04-.1372.0371-.2058c-.0028-.0685.0543-.14.0515-.2057-.0029-.0657.0171-.1371.0143-.2057-.0029-.0686-.0229-.1372-.0258-.2029-.0028-.0657-.1657-.1314-.1685-.1972-.0029-.0657.1714-.1457.1685-.2114-.0028-.0657-.1228-.1286-.1257-.1943z" fill="#fff"/></mask><mask id="b" fill="#fff"><path d="m41.3367 34.4175c0-.0371.0628-.0943.1-.1028.0628 0 .1514-.02.2143-.0115.0628.0086.1171.0886.18.1029s.0972.0629.1543.0886c-.0257-.0743-.0886-.0286-.1343-.0915-.0457-.0628.0143-.0628.0457-.1343.04-.0914.0086-.0743.0857-.1371.0086-.0743.0886-.1172.0915-.1858.0057-.0742.0086-.1457.0114-.2143 0-.0742-.0629-.1428-.0657-.2114-.0029-.0686-.0457-.14-.0514-.2086-.0058-.0686-.0629-.1343-.0686-.2057-.0057-.0715.1171-.1515.1114-.2229s-.0086-.1372-.0143-.2086c-.0057-.0686.0515-.14.0486-.2114-.0029-.0686-.0286-.1343-.0286-.2086 0-.0686-.0343-.1343-.0343-.2029s-.12-.1372-.12-.2029.0086-.1371.0115-.2028c.0028-.0658.1228-.1343.1257-.2001.0028-.0657.0257-.1343.0257-.2028 0-.0686-.1-.1372-.1-.2058 0-.0685.0343-.1343.0371-.2028.0029-.0686.0686-.1343.0715-.2001.0028-.0657 0-.1343 0-.2028 0-.0686-.1115-.1372-.1086-.2058.0029-.0685.1486-.1314.1514-.2 0-.0686-.1257-.14-.1228-.2086.0028-.0686-.0115-.1371-.0086-.2086.0029-.0714-.0086-.1371-.0086-.2086 0-.0714.0029-.1371.0057-.2085.0029-.0715-.0057-.1372-.0057-.2086 0-.0715.0229-.1372.0257-.2086.0029-.0715.0143-.1372.0143-.2086s.0086-.1372.0086-.2086-.0143-.14-.0143-.2086-.0514-.14-.0514-.2086.1428-.1371.1428-.2086c0-.0714-.0142-.14-.0142-.2086 0-.0685-.1286-.1371-.1286-.2057s.0943-.14.0914-.2086c-.0028-.0686.0772-.14.0743-.2114-.0028-.0715-.0371-.1372-.0371-.2086 0-.0715-.1401-.1343-.1429-.2029-.0029-.0686.1429-.1457.14-.2143s-.0571-.1372-.0629-.2057c-.0057-.0686-.0857-.1343-.0914-.2029s.1229-.1486.12-.2172c-.0028-.0685.02-.1428.0143-.2114s-.0886-.1314-.0971-.2c-.0086-.0686-.1001-.1286-.1086-.1972-.0086-.0686.0228-.1429.0143-.2114-.0086-.0686.0314-.1429.02-.2115-.0115-.0686.0171-.1428.0085-.2114-.0085-.0686.0286-.1458.0172-.2143-.0115-.0686-.1772-.1115-.1886-.18-.0114-.0686.0914-.1572.0771-.2258-.0142-.0686-.0543-.1314-.0685-.2-.0143-.0686-.1458-.1114-.1629-.1772-.0143-.0657.1-.1628.0829-.2285-.0172-.0658-.1486-.1001-.1658-.1658-.0171-.0657.0543-.1571.0343-.22s-.0028-.1429-.0257-.2057c-.0229-.0629-.0772-.1172-.1-.1829-.0229-.0657-.0829-.1143-.1086-.1743s.04-.1657.0143-.2286-.0457-.1314-.0743-.1914-.0771-.1143-.1086-.1743c-.0314-.06-.1057-.1-.1371-.1572-.0315-.0571-.0829-.1086-.12-.1657-.0372-.0572-.0886-.1057-.1229-.1629-.0343-.0571.0028-.1657-.0343-.2229-.0371-.0571-.0743-.1171-.1143-.1714s-.2314.0057-.2714-.0457c-.04-.0515-.0658-.1172-.1086-.1686-.0429-.0514-.0915-.0972-.1343-.1486-.0429-.0514-.0857-.1029-.1315-.1514-.0457-.0486.0143-.2001-.0343-.2486-.0485-.0486-.1743-.0143-.2257-.06-.0514-.0458-.04-.1572-.0886-.2029-.0485-.0457-.1228-.0629-.1743-.1057-.0514-.0429-.1743.0057-.2257-.0372-.0514-.0428-.0229-.1857-.0771-.2257-.0543-.04-.1829.0257-.2372-.0114-.0543-.0372-.0543-.1543-.1114-.1915-.0572-.0371-.1372-.0286-.1944-.0629-.0571-.0342-.0628-.1571-.12-.1914-.0571-.0343-.1057-.0857-.1657-.1172-.06-.0314-.1486-.0057-.2086-.0342-.06-.0286-.14-.0115-.2029-.0372-.0628-.0257-.1457.0114-.2085-.0143-.0629-.0257-.0629-.2114-.1258-.2314-.0628-.02-.1314-.0315-.1971-.0515s-.1686.0915-.2343.0743c-.0658-.0171-.1286-.0428-.1943-.0571-.0658-.0143-.1258-.0572-.1915-.0686s-.1228-.0829-.1914-.0943-.14.0257-.2086.0172c-.0686-.0086-.14.0485-.2086.0428s-.1314-.0371-.2-.04c-.0686-.0028-.1343-.0143-.2029-.0143s-.1343.0057-.2029.0086c-.0685.0029-.1343-.0086-.2028-.0057-.0686.0028-.1372-.0086-.2029-.0029s-.1343.0057-.2029.0115c-.0686.0057-.1543-.1058-.22-.0972s-.1057.1886-.1743.2029-.1543-.0743-.22-.06c-.0658.0143-.1458-.0172-.2115 0-.0657.0171-.1086.1286-.1743.1457-.0657.0172-.1486-.0229-.2143 0s-.1143.0943-.1771.1172c-.0629.0228-.1458.0028-.2086.0285-.0629.0258-.1429.02-.2029.0458-.0629.0285-.0543.2114-.1172.2428-.0628.0315-.1743-.0457-.2371-.0143-.0629.0315-.1343.0429-.1943.0772s-.0829.1343-.14.1714c-.0572.0372-.1486.0229-.2058.06-.0571.0372-.08.1258-.1371.1658-.0572.04-.0772.1257-.1315.1657s-.2143-.0514-.2686-.0057c-.0542.0457-.06.1457-.1114.1914s-.1143.08-.1657.1258c-.0515.0457-.1429.0542-.1915.1028-.0485.0486-.0657.1286-.1114.1829s-.0343.1514-.0772.2057c-.0428.0543-.0342.1429-.0771.2-.0429.0572-.08.1086-.1172.1658-.0371.0571-.0714.1114-.1085.1714-.0372.06-.1115.0915-.1429.1515s-.1315.0885-.16.1485c-.0286.06-.0372.1343-.0629.2001-.0257.0657-.0743.12-.0971.1857-.0229.0657-.1.1171-.12.1829-.02.0657.1171.1743.1.2428-.0172.0686-.0229.1315-.0372.2001-.0143.0685-.1457.1143-.1543.1828-.0086.0686.0657.1458.06.2143-.0057.0686-.08.1343-.0828.2029-.0029.0686-.0543.14-.0515.2115.0029.0714.1658.1285.1715.1971s.0285.1315.0371.2c.0086.0686-.1114.1572-.0971.2258.0142.0685.0514.1314.0685.1971.0172.0657.0743.1229.0943.1886s.0629.1229.0886.1857c.0257.0629.06.1201.0914.1829.0286.0572-.0142.1743.0372.2172.0457.04.1343.0457.1943.0771.0543.0286.12.0486.1829.0715.06.02.0714.0571.1343.0714-.0086.0657.1314.1086.12.1772-.0115.0685-.1286.1142-.14.1828-.0115.0686.0771.1515.0657.2172s-.0429.1286-.06.1943c-.0172.0657-.12.1114-.1372.1771-.0171.0658-.0028.1372-.02.2029-.0171.0657-.0686.1229-.0828.1886-.0143.0657-.0229.1343-.0372.1972-.0143.0628.0629.1514.0486.2171-.0143.0686-.02.1372-.0343.2086-.0143.0715-.0743.1286-.0886.1972s-.0371.1371-.0457.2057.0257.1457.0171.2143c-.0085.0686-.06.1343-.0657.2057-.0057.0715-.1286.1372-.1314.2058-.0029.0686.1143.1457.1171.2143.0029.0686-.08.1457-.0743.2171.0058.0715.1629.1258.1743.1943.0115.0686-.0171.1401 0 .2115.0172.0714-.0828.1657-.0628.2343s.0286.1457.0543.2114c.0257.0658.14.0972.1714.1601.0315.0657.0629.1285.1.1914.0372.0629.0743.1229.1143.1829s.0172.1714.06.2286c.0429.0571.1029.1057.1515.16.0485.0543.0943.1143.1428.1657.0486.0514.2143-.0086.2658.0429.0514.0514.0628.14.1143.1914.0485.0486.1086.0857.1571.1343.0486.0486.0772.12.1258.1657.0485.0458.1457.0458.1971.0915s0 .2114.0514.2571c.0515.0458.1343.0572.1886.1001.0543.0428.1629.0114.2201.0514.0571.04.0885.1143.1457.1514.0571.0372.0714.1543.1314.1886.0657.0372.2143-.0971.28-.0657.0658.0314.1229.0686.1943.0943.0715.0257.1343.0428.2058.0629.0714.02.1171.14.1886.1543.0714.0142.1457.0314.22.0371s.0943.0457.1686.0429c-.0086.06.1171.0714.1086.1343-.0086.0628-.0686.1142-.0743.1771-.0058.0629.04.1257.0371.1886s-.0343.0829-.0371.1486c.0314-.02-.0543-.0114-.0229-.0314.0029-.0772.04-.1258.0543-.1829.0171-.0657.08-.1057.0943-.1715-.0057.0686.0143.1258.0143.1943 0 .0686.0257.1343.0257.2029s.04.1372.04.2029-.1857.1314-.1886.1971c-.0029.0658.0857.1401.0772.2086-.0086.0686-.0543.1258-.0715.1915-.0171.0657.0315.1543 0 .2171-.0257.06-.02.1515-.0571.2029-.0372.0515-.1858.0229-.2286.0715-.0429.0485-.04.1428-.0915.1857-.0514.0428-.1028.0857-.1571.1229-.0543.0371-.1457.0114-.2029.0428-.0571.0314-.0743.1429-.1314.1715-.0572.0285-.16-.0458-.22-.0229-.0458.0171-.0572.1714-.1401.2057-.0571.0257-.1371.0115-.2085.0429-.0601.0257-.1486 0-.2144.0314-.06.0286-.08.1515-.1457.1829-.06.0286-.1657-.0286-.2314 0s-.0915.1286-.1543.16c-.0629.0314-.1858-.0657-.2486-.0343-.0629.0314-.08.1515-.1429.1857-.0629.0343-.1114.0886-.1743.1201-.0629.0314-.1514.0171-.2114.0485-.06.0315-.1343.0486-.1943.0829s-.0686.1657-.1286.2c-.0629.0343-.1343.0486-.1943.0829-.0629.0371-.2029-.06-.26-.0229-.0629.04-.1286.0743-.1829.1115-.0629.0428-.0857.14-.1372.1771-.0657.0514-.1114.1115-.1486.1515-.04.0457-.1085.0971-.1428.1657-.0286.0571.0257.1543 0 .2257-.02.0629-.14.1029-.1572.1743-.0143.0657.0286.1486.0172.22-.0115.0658-.0915.1258-.1029.1972s.0857.1514.0771.2229c-.0085.0714-.04.1343-.0457.2057s-.08.1314-.0828.2029c-.0029.0714-.0258.14-.0286.2086-.0029.0685.1657.1486.1629.22-.0029.0714-.0572.1371-.06.2086-.0029.0714-.0886.14-.0915.2086-.0028.0685.0114.1428.0086.2114-.0029.0686.0171.1429.0171.2115v.2086c0 .0742.0686.1428.0686.2085 0 .0743-.0114.1458-.0114.2086 0 .08-.0572.1515-.0543.2115.0029.1314-.0486.0914.0486.1257.0971.0343.0743.1629.1743.1629s.1-.1343.2028-.1343c.1029 0 .1001.1457.2029.1457.1029 0 .1029-.0371.2029-.0371s.1029-.1086.2029-.1086.1028.0628.2028.0628.1029-.0885.2029-.0885.1029.0142.2029.0142.1029.0258.2057.0258c.1029 0 .1029.0114.2058.0114.1028 0 .1028-.04.2057-.04s.1029.0143.2057.0143c.1029 0 .1029-.0343.2029-.0343s.1029.1886.2029.1886.1028-.0943.2028-.0943c.1001 0 .1029-.1029.2029-.1029s.1029.02.2029.02.1029.0886.2029.0886h.2028c.1 0 .1029-.0943.2029-.0943s.1029.1143.2029.1143.1029-.1229.2029-.1229.1028.1658.2028.1658.1029-.0743.2029-.0743.1029.1.2029.1.1029-.1543.2057-.1543c.1029 0 .1029.04.2058.04.1028 0 .1028-.0286.2057-.0286.1028 0 .1028-.0257.2057-.0257s.1029.04.2057.04c.1029 0 .1029.0543.2058.0543.1028 0 .1028-.0915.2029-.0915.1 0 .1028-.0114.2028-.0114s.1029.1286.2029.1286.1029-.0314.2057-.0314c.1029 0 .1029-.0229.2058-.0229.1028 0 .1028.0772.2057.0772s.1029-.1172.2057-.1172c.1029 0 .1029.1257.2058.1257h.2057c.1029 0 .1029-.1428.2057-.1428.1029 0 .1029-.0172.2058-.0172.1028 0 .1028.18.2057.18s.1029-.1514.2057-.1514c.1029 0 .1029-.02.2058-.02.1028 0 .1028.0571.2057.0571s.1029-.0085.2057-.0085c.1029 0 .1029.0628.2057.0628.1029 0 .1029-.0914.2029-.0914s.1029.0943.2029.0943.1029-.1172.2029-.1172.1028.1286.2057.1286.1029-.1029.2057-.1029c.1029 0 .1029-.0514.2058-.0514.1028 0 .1028.0629.2057.0629s.1029-.0029.2057-.0029c.1029 0 .1029.0486.2058.0486.1028 0 .1028.08.2057.08s.1029-.1.2057-.1c.1029 0 .1029.1057.2058.1057.1028 0 .1028-.1771.2057-.1771s.1029.02.2057.02c.1029 0 .1029.0028.2058.0028.1028 0 .1028.0915.2057.0915s.1029-.1286.2057-.1286c.1029 0 .1029.1228.2086.1228s.1114.0115.2086-.02c-.0029-.0685.0543-.1485.0514-.2171-.0028-.0686-.04-.1343-.0428-.2058-.0029-.0714-.1143-.1285-.12-.1971-.0058-.0686.0771-.1429.0714-.2115-.0057-.0685-.0657-.1314-.0714-.2-.0058-.0686.1171-.1486.1114-.2171-.0057-.0686-.1457-.1229-.1514-.1915-.0058-.0686-.0258-.1343-.0343-.2029-.0086-.0685-.0315-.1343-.04-.2028-.0086-.0686.06-.1458.0485-.2143-.0114-.0686-.1143-.1229-.1257-.1886s.0314-.1429.02-.2115.0143-.1428 0-.2114-.1028-.12-.1171-.1886.0343-.1486.0171-.2143c-.0171-.0657-.0086-.14-.0257-.2057-.0172-.0658.04-.1543.0229-.2201-.0172-.0657-.1658-.0971-.1858-.1628-.02-.0658-.0628-.1229-.0828-.1886s.0057-.1457-.0143-.2115c-.02-.0657-.02-.14-.0429-.2028-.0229-.0629-.0886-.1115-.1171-.1743-.0286-.0629-.0143-.1458-.0458-.2058-.0314-.06-.0685-.1228-.1-.18-.0371-.06-.0628-.1257-.1028-.1829-.04-.0571-.1315-.0743-.1743-.1257-.0458-.0543-.1058-.0829-.1543-.1286-.0515-.0485-.0429-.1686-.1-.2057-.0572-.0371-.1458-.0257-.2086-.0514-.0629-.0258-.1743-.0515-.2429-.0629z" fill="#fff"/></mask><mask id="c" fill="#fff"><path d="m34.1046 32.5603.0086.0143-.0686-.0629c-.0143.0172.0457.0657.0629.0486z" fill="#fff"/></mask><g fill="#fff"><path d="m26.7954 36.3091c-.0028-.0657.0372-.1343.0314-.2-.0057-.0657 0-.1343-.0057-.2-.0057-.0658-.0571-.1258-.0657-.1915s-.02-.1314-.0314-.1943.0543-.1486.04-.2143-.0343-.1343-.0543-.1972c-.02-.0628-.1886-.0714-.2143-.1343-.0257-.0628-.0514-.1142-.08-.1714-.0286-.0571-.0657-.1057-.1-.16-.0372-.0572-.0086-.1514-.0515-.2029-.0428-.0514-.0142-.1657-.06-.2143-.0457-.0486-.1228-.0714-.1714-.1171-.0486-.0458-.0972-.0943-.1486-.1372s-.0857-.1114-.14-.1514-.1114-.08-.1629-.12c-.0543-.04-.1571-.0172-.2143-.0601-.0571-.0428-.0657-.1428-.1228-.1828-.0572-.04-.1829.0228-.2401-.0172-.0571-.04-.0914-.1085-.1485-.1457-.0572-.0371-.0772-.1314-.1343-.1714-.0572-.04-.1372-.0458-.1943-.0829-.0572-.0371-.1172-.0743-.1743-.1114-.0572-.0372-.0658-.1515-.1229-.1886-.0572-.0372-.1257-.0629-.1829-.1-.0571-.0372-.1171-.0743-.1771-.1115-.0601-.0371-.1258-.06-.1858-.0971-.06-.0372-.1371-.0429-.1971-.08-.06-.0372-.1229-.0658-.1829-.1029s-.1229-.0629-.1829-.1c-.06-.0372-.1343-.0429-.1943-.0772-.06-.0342-.12-.0714-.18-.1028-.06-.0315-.0743-.1543-.1372-.1886-.0628-.0343-.2057.0943-.2657.0657s-.0829-.1457-.1429-.1771c-.0057-.0629.0715-.1343.0658-.1972-.0058-.0629-.1543-.1229-.1543-.1857 0-.0629 0-.1315.0028-.1943.0029-.0629.1086-.1229.1143-.1858.0057-.0628-.04-.1314-.0314-.1943.0086-.0628-.0572-.14-.0457-.2028.0114-.0629.1-.1115.1143-.1743.0142-.0629-.0143-.1429.0085-.2029.0229-.06.04-.1543.0829-.2029.0429-.0514.1314-.0971.1886-.1229.0571-.0257.1629.0886.2257.0772.0629-.0114.1172-.02.1829-.02s.1314-.1086.1943-.1057c.0629.0028.1314-.0486.1943-.0458.0686 0 .1314.06.2.0572.0686-.0029.1315-.0229.2-.0343.0686-.0114.1458.0257.2115.0086.0657-.0172.1657.0485.2286.0257.0628-.0229.0971-.14.16-.1686.0628-.0286.1143-.08.1743-.1143s.1514-.0229.2086-.0629c.0571-.04.0457-.1628.0971-.2085.0515-.0458.1829-.0086.2286-.06.0457-.0515.1257-.0858.1657-.1401.0429-.0543.06-.1314.0972-.1885.0371-.0572.0429-.1372.0743-.1972s-.0143-.1572.0143-.22c.0285-.0629.1457-.0886.1686-.1543.0228-.0657.0171-.14.0371-.2058.02-.0657.0914-.12.1057-.1857s-.0486-.1514-.0343-.2171c.0143-.0658-.0085-.1401 0-.2058.0086-.0657.0629-.1286.0715-.1943.0085-.0657-.0286-.14-.02-.2086.0085-.0685.0428-.1314.0514-.2s.0057-.1371.0143-.2057.1514-.1172.16-.1858c.0086-.0685-.1372-.1571-.1286-.2285.0086-.0715.0057-.1401.0143-.2086.0086-.0686.0257-.14.0372-.2086.0114-.0686.0428-.1372.0542-.2058.0115-.0685.0858-.1257.1001-.1943.0142-.0685-.0715-.1628-.0543-.2314.0171-.0686.08-.1257.1028-.1914.0229-.0658.1258-.0972.1543-.1601.0286-.0628.0143-.1485.0515-.2086.0371-.06.0428-.1485.0885-.2028.0458-.0543.1-.1086.1515-.1572.0514-.0486.0714-.0343.1314-.0714-.06-.0257-.0057-.1057-.0571-.14-.0515-.0343-.18.0171-.2258-.0257-.0457-.0429-.0257-.1572-.0685-.2058-.0429-.0486-.0258-.1314-.06-.1857-.0343-.0543-.1715-.0514-.2001-.1086-.0285-.0571-.0057-.14-.0257-.2s.0343-.14.0172-.2029c-.0172-.0628-.1458-.1-.1572-.1629-.0114-.0657.1029-.1428.0943-.2057-.0086-.0628-.1629-.12-.1629-.1829 0-.0628.0057-.1314.0057-.1971s.0715-.1286.0743-.1943c.0029-.0657-.0571-.1315-.0542-.1972.0028-.0657.0428-.1286.0457-.1914.0028-.0629-.0515-.1315-.0486-.1972s-.0086-.1286-.0086-.1943c0-.0628 0-.1343 0-.2086 0-.0657.0429-.1343.0429-.2057s-.0486-.1343-.0515-.2029c-.0028-.0686.1686-.1514.1601-.2229-.0086-.0714-.0543-.14-.0686-.2057s.0057-.16-.0172-.2229c-.0228-.0628-.0943-.1285-.1314-.1857-.0371-.0571-.1657-.04-.2172-.0886-.0514-.0486-.0771-.1171-.1428-.1457-.0457-.02-.02-.0457-.0629-.0657.0429-.0629.0429-.1086.0829-.1743s.0085-.1715.0457-.2372c.0371-.0657.14-.0943.1743-.1629.0343-.0685-.0257-.18.0057-.2485.0314-.0715.0857-.1258.1086-.2001.0228-.0743-.0086-.1285-.0172-.2057-.0057-.0571-.0028-.0886-.0257-.1429-.0228-.0543-.0171-.1057-.0486-.1543-.0314-.0485-.0342-.1143-.0714-.1571-.0428-.0543-.0743-.1172-.12-.1686s-.06-.1314-.1086-.18-.1-.0943-.1486-.1429c-.0485-.0486-.0743-.1229-.1257-.1686s-.1743-.0114-.2257-.0543c-.0515-.0428-.0257-.1886-.08-.2314-.0543-.0429-.1943.0314-.2515-.0086-.0571-.04-.0514-.1657-.1114-.2029-.06-.0371-.1115-.0857-.1686-.12s-.1143-.0828-.1743-.1143c-.06-.0314-.1314-.0514-.1914-.0828-.06-.0315-.1401-.0286-.2029-.0572-.0629-.0286-.1286-.0486-.1915-.0743-.0628-.0257-.16.0372-.2257.0143-.0657-.0228-.1114-.0857-.1772-.1086-.0657-.0228-.0971-.1486-.1657-.1686s-.1429-.0028-.2086-.02c-.0657-.0171-.1543.06-.22.0458-.0657-.0143-.1171-.12-.1829-.1315-.0657-.0114-.14.0086-.2086 0-.0685-.0085-.1428.0572-.2114.0486s-.1286-.16-.1943-.1629c-.0657-.0028-.14-.0171-.2086-.0171s-.14.0114-.2086.0114-.1314.1343-.2.1372c-.0686.0028-.1486-.1058-.2172-.0972-.0685.0086-.14.0372-.2086.0486-.0685.0114-.1457-.0057-.2171.0057s-.1429.0229-.2115.04c-.0685.0172-.1257.0886-.1943.1057-.0685.0172-.1428.0143-.2114.0343s-.12.0943-.1857.1143c-.0658.02-.1315.0543-.1972.0772-.0657.0228-.1057.1171-.1714.1428-.0658.0229-.1458.0058-.2086.0315-.0629.0257-.1572-.0172-.22.0085-.0629.0258-.1001.1172-.1629.1458-.0629.0285-.16-.0172-.2229.0114s-.1029.1057-.1657.1371c-.0629.0315-.1343.0372-.1972.0686-.0628.0315-.14.0343-.2.0657-.06.0315-.1114.0886-.1714.1229s-.0715.1515-.1286.1886c-.0572.0371-.1115.0772-.1715.1143s-.1543.0171-.2114.0571c-.0572.04-.1315.0543-.1857.0972-.0543.0429-.0943.1057-.1486.1457s-.1143.0772-.1686.12c-.0543.0429-.0543.1486-.1086.1943-.0543.0458-.1829 0-.2343.0458-.0514.0457-.04.16-.0886.2057s-.0886.1057-.1371.1543c-.0486.0486-.1115.0828-.1601.1343-.0485.0514-.0742.1171-.12.1686-.0457.0514-.0714.1171-.1143.1714-.0428.0543-.22.0057-.26.0629-.04.0543-.0428.14-.0828.1971-.04.0572.0228.1772-.0143.2372-.0372.06-.0743.1143-.1058.1743-.0314.06-.0514.1257-.0828.1857s-.1457.08-.1772.1429c-.0314.0629-.0571.1257-.0828.1914-.0258.0658-.1.1115-.1229.1772s-.02.14-.0429.2057c-.0228.0658-.0057.1429-.0228.2086-.0172.0657-.1229.1143-.1372.18-.0143.0658.12.1686.1086.2343-.0114.0658.0029.1372-.0057.2058s-.0572.1286-.0629.1971c-.0057.0686-.1028.1286-.1057.2001-.0029.0714-.0457.14-.0457.2085 0 .0686.1686.1343.1714.2029.0029.0686-.0971.1429-.0914.2115.0057.0685.0628.1314.0743.2.0114.0686-.04.1457-.0257.2143.0142.0686.0085.14.0257.2086.0171.0686.0886.12.1086.1857s.1028.1086.1257.1743c.0228.0657-.0229.1543.0028.2172.0258.0628.0486.1285.0772.1914s.0714.1172.1029.1772c.0314.06-.0058.16.0257.22.0314.06.0828.1143.1171.1714.0343.0572.0572.1286.0915.1858.0343.0571.08.1114.1171.1685.0372.0572.1115.0915.1486.1486.0371.0572.1086.0943.1457.1515.0372.0571.0943.1028.1315.16.0371.0571 0 .16.0371.22.0372.06.0686.1172.1029.1772s.16.0685.1943.1285c.0343.0601-.0172.1629.0114.2258.0286.0628.1314.0914.16.1543.0286.0657 0 .1514.0257.2171.0258.0658.02.1429.0429.2086s.1457.1.1657.1686 0 .1457.0229.2143c.0228.0686.1143.1143.1343.1829s-.1086.1743-.0886.2429c.02.0685.0943.12.1143.1886.02.0685.0429.1343.0629.2028.02.0686-.0572.1629-.0372.2315s.0572.1314.08.1971c.0229.0658.0372.1401.06.2058.0229.0657.1372.1.1629.1628.0257.0629-.0114.1601.0171.2229.0286.0629.1972.0543.2315.1172.0371.0685.0229.1628.0714.2286.0486.0657.0486.1743.1058.2257.0571.0514.1.1086.1685.14 0 .0657.04.0914.0429.1543s.0972.1229.1029.1857c.0057.0686-.0258.1429-.02.2115.0057.0686-.0829.1429-.08.2114.0028.0686.06.1372.06.2058 0 .0685-.0886.1285-.0972.1971s.02.14 0 .2058c-.02.0657.02.1514-.0086.2171-.0285.0657-.1143.0943-.1543.1515-.04.06-.0114.1771-.06.2314-.0485.0543-.18.0171-.2371.0629-.0572.0457-.0686.1486-.1258.1886-.0571.04-.1771-.0029-.2371.0342-.0572.0372-.0972.0915-.1543.1286-.0572.0372-.0572.16-.1115.1972-.0542.0371-.1314.04-.1885.0771-.0572.0372-.1201.0629-.1743.0972-.0543.0343-.0743.1371-.1315.1714-.0571.0343-.1457.0172-.2029.0515-.0571.0343-.1343.0343-.1914.0685-.0571.0343-.1372.0286-.1943.0629-.0572.0343-.12.0572-.1772.0914-.0571.0343-.0657.1572-.1228.1915-.0572.0343-.1543 0-.2115.0314-.0571.0314-.0971.1029-.1543.1343-.0571.0314-.1514 0-.2086.0314-.0571.0315-.0514.1886-.1114.2201-.0572.0285-.1714-.0458-.2286-.0172-.0571.0286-.1029.0829-.1629.1143s-.0943.1029-.1514.1343c-.0572.0314-.1286.0372-.1857.0686-.0572.0314-.0743.1314-.1286.1657s-.1515.0029-.2058.04c-.0542.0372-.06.1372-.1142.1772-.0543.04-.1401.0286-.1915.0686s-.1486.0285-.1972.0742c-.0485.0458-.0428.1458-.0857.1915-.0428.0457-.1028.0829-.1428.1343-.0429.0543-.0772.1143-.1143.1714-.0372.0572-.0772.1172-.1086.1772s0 .1514-.0257.2143c-.0258.0629-.1258.0971-.1515.1629-.0257.0657-.0628.1257-.0828.1943-.02.0685.0228.1486.0085.2171-.0143.0686-.0371.1315-.0485.2-.0115.0686-.1143.1229-.1229.1915s.02.1429.0143.2114c-.0057.0686-.0743.1343-.0772.2058-.0028.0714.04.1428.0372.2114-.0029.0686.1143.1429.1143.2115 0 .06-.1743.1285-.1743.2057 0 .0657.1257.1343.1228.2086 0 .0657.0629.1371.0629.2086 0 .0686-.04.1371-.04.2086 0 .0714.04.1371.04.2086 0 .0714-.0057.1371-.0057.2057s-.0543.14-.0543.2086.0514.14.0514.2086c0 .0685-.0943.14-.0943.2114s-.0771.14-.0771.2115c0 .0714.1171.14.1171.2085 0 .0715.04.1401.04.2086 0 .0743-.1228.1429-.1228.2115 0 .0743.1314.1457.1314.2086 0 .08-.1029.1514-.1029.2086 0 .1285-.0371.0943.06.1285.0972.0343.0743-.02.1772-.02s.1029.1801.2057.1801c.1029 0 .1029.0085.2058.0085.1028 0 .1028-.0885.2057-.0885s.1029.0771.2057.0771c.1029 0 .1029-.1457.2058-.1457.1028 0 .1028.1171.2057.1171s.1029-.1457.2029-.1457.1028.1029.2028.1029c.1001 0 .1029-.0515.2029-.0515s.1029.1115.2058.1115c.1028 0 .1028-.0858.2057-.0858s.1029-.0114.2057-.0114c.1029 0 .1029.0972.2058.0972.1028 0 .1028-.0457.2057-.0457.1028 0 .1028.0285.2057.0285s.1029-.1343.2057-.1343c.1029 0 .1029.0943.2058.0943.1028 0 .1028-.04.2057-.04s.1029.1115.2057.1115c.1029 0 .1029-.0629.2058-.0629.1028 0 .1028-.0914.2057-.0914s.1029.1057.2057.1057c.1029 0 .1029.0114.2058.0114.1028 0 .1028-.12.2057-.12s.1029.1714.2057.1714c.1029 0 .1029-.06.2058-.06.1028 0 .1028-.0257.2057-.0257s.1029-.0171.2057-.0171c.1029 0 .1029-.06.2058-.06.1028 0 .1028-.0143.2057-.0143s.1029.0829.2057.0829c.1029 0 .1029.0485.2058.0485.1028 0 .1028-.0143.2057-.0143s.1029-.0114.2057-.0114c.1029 0 .1029.0429.2058.0429.1028 0 .1028-.0772.2057-.0772.1028 0 .1029.02.2057.02.1029 0 .1029-.0828.2057-.0828.1029 0 .1029-.0029.2058-.0029.1028 0 .1028-.0143.2057-.0143s.1029.0857.2057.0857c.1029 0 .1029.0429.2058.0429.1028 0 .1028-.0543.2057-.0543s.1029-.0314.2057-.0314c.1029 0 .1029.1257.2058.1257.1028 0 .1028-.1686.2057-.1686s.1029.0429.2057.0429c.1029 0 .1029.1428.2058.1428.1028 0 .1028-.0171.2057-.0171s.1029-.0257.2057-.0257c.1029 0 .1029-.0657.2058-.0657.1028 0 .1028.1057.2057.1057s.1029-.1743.2057-.1743c.1029 0 .1029.0571.2058.0571.1028 0 .1028.0372.2057.0372h.2057c.1029 0 .1029.0428.2058.0428.1028 0 .1028.0343.2057.0343s.1029-.0914.2057-.0914c.1029 0 .1029-.04.2057-.04.1029 0 .1029.0314.2058.0314.1028 0 .1028-.0028.2057-.0028s.1029-.0058.2057-.0058c.1029 0 .1029.0229.2086.0229.1058 0 .1029.0886.2058.0886.1028 0 .1028-.0172.2057-.0172s.1029-.06.2057-.06c.1029 0 .1029-.04.2086-.04s.1029.0543.2086.0543.1029-.0628.2086-.0628.1314.1371.2314.1057c0-.0686.0715-.2057.0715-.2743s-.0943-.1372-.0972-.2058c-.0028-.0685-.0485-.1371-.0514-.2057s.1114-.14.1114-.2086.0115-.1371.0115-.2057-.0429-.1372-.0429-.2057c0-.0686-.0714-.1372-.0714-.2029s.0257-.1372.0257-.2057c0-.0686-.0657-.1372-.0686-.2029-.0028-.0657.0543-.1372.0543-.2058 0-.0685-.04-.1371-.04-.2028s.04-.1372.0371-.2058c-.0028-.0685.0543-.14.0515-.2057-.0029-.0657.0171-.1371.0143-.2057-.0029-.0686-.0229-.1372-.0258-.2029-.0028-.0657-.1657-.1314-.1685-.1972-.0029-.0657.1714-.1457.1685-.2114-.0028-.0657-.1228-.1286-.1257-.1943z" mask="url(#a)" stroke="#000" stroke-width=".571478"/><path d="m41.3367 34.4175c0-.0371.0628-.0943.1-.1028.0628 0 .1514-.02.2143-.0115.0628.0086.1171.0886.18.1029s.0972.0629.1543.0886c-.0257-.0743-.0886-.0286-.1343-.0915-.0457-.0628.0143-.0628.0457-.1343.04-.0914.0086-.0743.0857-.1371.0086-.0743.0886-.1172.0915-.1858.0057-.0742.0086-.1457.0114-.2143 0-.0742-.0629-.1428-.0657-.2114-.0029-.0686-.0457-.14-.0514-.2086-.0058-.0686-.0629-.1343-.0686-.2057-.0057-.0715.1171-.1515.1114-.2229s-.0086-.1372-.0143-.2086c-.0057-.0686.0515-.14.0486-.2114-.0029-.0686-.0286-.1343-.0286-.2086 0-.0686-.0343-.1343-.0343-.2029s-.12-.1372-.12-.2029.0086-.1371.0115-.2028c.0028-.0658.1228-.1343.1257-.2001.0028-.0657.0257-.1343.0257-.2028 0-.0686-.1-.1372-.1-.2058 0-.0685.0343-.1343.0371-.2028.0029-.0686.0686-.1343.0715-.2001.0028-.0657 0-.1343 0-.2028 0-.0686-.1115-.1372-.1086-.2058.0029-.0685.1486-.1314.1514-.2 0-.0686-.1257-.14-.1228-.2086.0028-.0686-.0115-.1371-.0086-.2086.0029-.0714-.0086-.1371-.0086-.2086 0-.0714.0029-.1371.0057-.2085.0029-.0715-.0057-.1372-.0057-.2086 0-.0715.0229-.1372.0257-.2086.0029-.0715.0143-.1372.0143-.2086s.0086-.1372.0086-.2086-.0143-.14-.0143-.2086-.0514-.14-.0514-.2086.1428-.1371.1428-.2086c0-.0714-.0142-.14-.0142-.2086 0-.0685-.1286-.1371-.1286-.2057s.0943-.14.0914-.2086c-.0028-.0686.0772-.14.0743-.2114-.0028-.0715-.0371-.1372-.0371-.2086 0-.0715-.1401-.1343-.1429-.2029-.0029-.0686.1429-.1457.14-.2143s-.0571-.1372-.0629-.2057c-.0057-.0686-.0857-.1343-.0914-.2029s.1229-.1486.12-.2172c-.0028-.0685.02-.1428.0143-.2114s-.0886-.1314-.0971-.2c-.0086-.0686-.1001-.1286-.1086-.1972-.0086-.0686.0228-.1429.0143-.2114-.0086-.0686.0314-.1429.02-.2115-.0115-.0686.0171-.1428.0085-.2114-.0085-.0686.0286-.1458.0172-.2143-.0115-.0686-.1772-.1115-.1886-.18-.0114-.0686.0914-.1572.0771-.2258-.0142-.0686-.0543-.1314-.0685-.2-.0143-.0686-.1458-.1114-.1629-.1772-.0143-.0657.1-.1628.0829-.2285-.0172-.0658-.1486-.1001-.1658-.1658-.0171-.0657.0543-.1571.0343-.22s-.0028-.1429-.0257-.2057c-.0229-.0629-.0772-.1172-.1-.1829-.0229-.0657-.0829-.1143-.1086-.1743s.04-.1657.0143-.2286-.0457-.1314-.0743-.1914-.0771-.1143-.1086-.1743c-.0314-.06-.1057-.1-.1371-.1572-.0315-.0571-.0829-.1086-.12-.1657-.0372-.0572-.0886-.1057-.1229-.1629-.0343-.0571.0028-.1657-.0343-.2229-.0371-.0571-.0743-.1171-.1143-.1714s-.2314.0057-.2714-.0457c-.04-.0515-.0658-.1172-.1086-.1686-.0429-.0514-.0915-.0972-.1343-.1486-.0429-.0514-.0857-.1029-.1315-.1514-.0457-.0486.0143-.2001-.0343-.2486-.0485-.0486-.1743-.0143-.2257-.06-.0514-.0458-.04-.1572-.0886-.2029-.0485-.0457-.1228-.0629-.1743-.1057-.0514-.0429-.1743.0057-.2257-.0372-.0514-.0428-.0229-.1857-.0771-.2257-.0543-.04-.1829.0257-.2372-.0114-.0543-.0372-.0543-.1543-.1114-.1915-.0572-.0371-.1372-.0286-.1944-.0629-.0571-.0342-.0628-.1571-.12-.1914-.0571-.0343-.1057-.0857-.1657-.1172-.06-.0314-.1486-.0057-.2086-.0342-.06-.0286-.14-.0115-.2029-.0372-.0628-.0257-.1457.0114-.2085-.0143-.0629-.0257-.0629-.2114-.1258-.2314-.0628-.02-.1314-.0315-.1971-.0515s-.1686.0915-.2343.0743c-.0658-.0171-.1286-.0428-.1943-.0571-.0658-.0143-.1258-.0572-.1915-.0686s-.1228-.0829-.1914-.0943-.14.0257-.2086.0172c-.0686-.0086-.14.0485-.2086.0428s-.1314-.0371-.2-.04c-.0686-.0028-.1343-.0143-.2029-.0143s-.1343.0057-.2029.0086c-.0685.0029-.1343-.0086-.2028-.0057-.0686.0028-.1372-.0086-.2029-.0029s-.1343.0057-.2029.0115c-.0686.0057-.1543-.1058-.22-.0972s-.1057.1886-.1743.2029-.1543-.0743-.22-.06c-.0658.0143-.1458-.0172-.2115 0-.0657.0171-.1086.1286-.1743.1457-.0657.0172-.1486-.0229-.2143 0s-.1143.0943-.1771.1172c-.0629.0228-.1458.0028-.2086.0285-.0629.0258-.1429.02-.2029.0458-.0629.0285-.0543.2114-.1172.2428-.0628.0315-.1743-.0457-.2371-.0143-.0629.0315-.1343.0429-.1943.0772s-.0829.1343-.14.1714c-.0572.0372-.1486.0229-.2058.06-.0571.0372-.08.1258-.1371.1658-.0572.04-.0772.1257-.1315.1657s-.2143-.0514-.2686-.0057c-.0542.0457-.06.1457-.1114.1914s-.1143.08-.1657.1258c-.0515.0457-.1429.0542-.1915.1028-.0485.0486-.0657.1286-.1114.1829s-.0343.1514-.0772.2057c-.0428.0543-.0342.1429-.0771.2-.0429.0572-.08.1086-.1172.1658-.0371.0571-.0714.1114-.1085.1714-.0372.06-.1115.0915-.1429.1515s-.1315.0885-.16.1485c-.0286.06-.0372.1343-.0629.2001-.0257.0657-.0743.12-.0971.1857-.0229.0657-.1.1171-.12.1829-.02.0657.1171.1743.1.2428-.0172.0686-.0229.1315-.0372.2001-.0143.0685-.1457.1143-.1543.1828-.0086.0686.0657.1458.06.2143-.0057.0686-.08.1343-.0828.2029-.0029.0686-.0543.14-.0515.2115.0029.0714.1658.1285.1715.1971s.0285.1315.0371.2c.0086.0686-.1114.1572-.0971.2258.0142.0685.0514.1314.0685.1971.0172.0657.0743.1229.0943.1886s.0629.1229.0886.1857c.0257.0629.06.1201.0914.1829.0286.0572-.0142.1743.0372.2172.0457.04.1343.0457.1943.0771.0543.0286.12.0486.1829.0715.06.02.0714.0571.1343.0714-.0086.0657.1314.1086.12.1772-.0115.0685-.1286.1142-.14.1828-.0115.0686.0771.1515.0657.2172s-.0429.1286-.06.1943c-.0172.0657-.12.1114-.1372.1771-.0171.0658-.0028.1372-.02.2029-.0171.0657-.0686.1229-.0828.1886-.0143.0657-.0229.1343-.0372.1972-.0143.0628.0629.1514.0486.2171-.0143.0686-.02.1372-.0343.2086-.0143.0715-.0743.1286-.0886.1972s-.0371.1371-.0457.2057.0257.1457.0171.2143c-.0085.0686-.06.1343-.0657.2057-.0057.0715-.1286.1372-.1314.2058-.0029.0686.1143.1457.1171.2143.0029.0686-.08.1457-.0743.2171.0058.0715.1629.1258.1743.1943.0115.0686-.0171.1401 0 .2115.0172.0714-.0828.1657-.0628.2343s.0286.1457.0543.2114c.0257.0658.14.0972.1714.1601.0315.0657.0629.1285.1.1914.0372.0629.0743.1229.1143.1829s.0172.1714.06.2286c.0429.0571.1029.1057.1515.16.0485.0543.0943.1143.1428.1657.0486.0514.2143-.0086.2658.0429.0514.0514.0628.14.1143.1914.0485.0486.1086.0857.1571.1343.0486.0486.0772.12.1258.1657.0485.0458.1457.0458.1971.0915s0 .2114.0514.2571c.0515.0458.1343.0572.1886.1001.0543.0428.1629.0114.2201.0514.0571.04.0885.1143.1457.1514.0571.0372.0714.1543.1314.1886.0657.0372.2143-.0971.28-.0657.0658.0314.1229.0686.1943.0943.0715.0257.1343.0428.2058.0629.0714.02.1171.14.1886.1543.0714.0142.1457.0314.22.0371s.0943.0457.1686.0429c-.0086.06.1171.0714.1086.1343-.0086.0628-.0686.1142-.0743.1771-.0058.0629.04.1257.0371.1886s-.0343.0829-.0371.1486c.0314-.02-.0543-.0114-.0229-.0314.0029-.0772.04-.1258.0543-.1829.0171-.0657.08-.1057.0943-.1715-.0057.0686.0143.1258.0143.1943 0 .0686.0257.1343.0257.2029s.04.1372.04.2029-.1857.1314-.1886.1971c-.0029.0658.0857.1401.0772.2086-.0086.0686-.0543.1258-.0715.1915-.0171.0657.0315.1543 0 .2171-.0257.06-.02.1515-.0571.2029-.0372.0515-.1858.0229-.2286.0715-.0429.0485-.04.1428-.0915.1857-.0514.0428-.1028.0857-.1571.1229-.0543.0371-.1457.0114-.2029.0428-.0571.0314-.0743.1429-.1314.1715-.0572.0285-.16-.0458-.22-.0229-.0458.0171-.0572.1714-.1401.2057-.0571.0257-.1371.0115-.2085.0429-.0601.0257-.1486 0-.2144.0314-.06.0286-.08.1515-.1457.1829-.06.0286-.1657-.0286-.2314 0s-.0915.1286-.1543.16c-.0629.0314-.1858-.0657-.2486-.0343-.0629.0314-.08.1515-.1429.1857-.0629.0343-.1114.0886-.1743.1201-.0629.0314-.1514.0171-.2114.0485-.06.0315-.1343.0486-.1943.0829s-.0686.1657-.1286.2c-.0629.0343-.1343.0486-.1943.0829-.0629.0371-.2029-.06-.26-.0229-.0629.04-.1286.0743-.1829.1115-.0629.0428-.0857.14-.1372.1771-.0657.0514-.1114.1115-.1486.1515-.04.0457-.1085.0971-.1428.1657-.0286.0571.0257.1543 0 .2257-.02.0629-.14.1029-.1572.1743-.0143.0657.0286.1486.0172.22-.0115.0658-.0915.1258-.1029.1972s.0857.1514.0771.2229c-.0085.0714-.04.1343-.0457.2057s-.08.1314-.0828.2029c-.0029.0714-.0258.14-.0286.2086-.0029.0685.1657.1486.1629.22-.0029.0714-.0572.1371-.06.2086-.0029.0714-.0886.14-.0915.2086-.0028.0685.0114.1428.0086.2114-.0029.0686.0171.1429.0171.2115v.2086c0 .0742.0686.1428.0686.2085 0 .0743-.0114.1458-.0114.2086 0 .08-.0572.1515-.0543.2115.0029.1314-.0486.0914.0486.1257.0971.0343.0743.1629.1743.1629s.1-.1343.2028-.1343c.1029 0 .1001.1457.2029.1457.1029 0 .1029-.0371.2029-.0371s.1029-.1086.2029-.1086.1028.0628.2028.0628.1029-.0885.2029-.0885.1029.0142.2029.0142.1029.0258.2057.0258c.1029 0 .1029.0114.2058.0114.1028 0 .1028-.04.2057-.04s.1029.0143.2057.0143c.1029 0 .1029-.0343.2029-.0343s.1029.1886.2029.1886.1028-.0943.2028-.0943c.1001 0 .1029-.1029.2029-.1029s.1029.02.2029.02.1029.0886.2029.0886h.2028c.1 0 .1029-.0943.2029-.0943s.1029.1143.2029.1143.1029-.1229.2029-.1229.1028.1658.2028.1658.1029-.0743.2029-.0743.1029.1.2029.1.1029-.1543.2057-.1543c.1029 0 .1029.04.2058.04.1028 0 .1028-.0286.2057-.0286.1028 0 .1028-.0257.2057-.0257s.1029.04.2057.04c.1029 0 .1029.0543.2058.0543.1028 0 .1028-.0915.2029-.0915.1 0 .1028-.0114.2028-.0114s.1029.1286.2029.1286.1029-.0314.2057-.0314c.1029 0 .1029-.0229.2058-.0229.1028 0 .1028.0772.2057.0772s.1029-.1172.2057-.1172c.1029 0 .1029.1257.2058.1257h.2057c.1029 0 .1029-.1428.2057-.1428.1029 0 .1029-.0172.2058-.0172.1028 0 .1028.18.2057.18s.1029-.1514.2057-.1514c.1029 0 .1029-.02.2058-.02.1028 0 .1028.0571.2057.0571s.1029-.0085.2057-.0085c.1029 0 .1029.0628.2057.0628.1029 0 .1029-.0914.2029-.0914s.1029.0943.2029.0943.1029-.1172.2029-.1172.1028.1286.2057.1286.1029-.1029.2057-.1029c.1029 0 .1029-.0514.2058-.0514.1028 0 .1028.0629.2057.0629s.1029-.0029.2057-.0029c.1029 0 .1029.0486.2058.0486.1028 0 .1028.08.2057.08s.1029-.1.2057-.1c.1029 0 .1029.1057.2058.1057.1028 0 .1028-.1771.2057-.1771s.1029.02.2057.02c.1029 0 .1029.0028.2058.0028.1028 0 .1028.0915.2057.0915s.1029-.1286.2057-.1286c.1029 0 .1029.1228.2086.1228s.1114.0115.2086-.02c-.0029-.0685.0543-.1485.0514-.2171-.0028-.0686-.04-.1343-.0428-.2058-.0029-.0714-.1143-.1285-.12-.1971-.0058-.0686.0771-.1429.0714-.2115-.0057-.0685-.0657-.1314-.0714-.2-.0058-.0686.1171-.1486.1114-.2171-.0057-.0686-.1457-.1229-.1514-.1915-.0058-.0686-.0258-.1343-.0343-.2029-.0086-.0685-.0315-.1343-.04-.2028-.0086-.0686.06-.1458.0485-.2143-.0114-.0686-.1143-.1229-.1257-.1886s.0314-.1429.02-.2115.0143-.1428 0-.2114-.1028-.12-.1171-.1886.0343-.1486.0171-.2143c-.0171-.0657-.0086-.14-.0257-.2057-.0172-.0658.04-.1543.0229-.2201-.0172-.0657-.1658-.0971-.1858-.1628-.02-.0658-.0628-.1229-.0828-.1886s.0057-.1457-.0143-.2115c-.02-.0657-.02-.14-.0429-.2028-.0229-.0629-.0886-.1115-.1171-.1743-.0286-.0629-.0143-.1458-.0458-.2058-.0314-.06-.0685-.1228-.1-.18-.0371-.06-.0628-.1257-.1028-.1829-.04-.0571-.1315-.0743-.1743-.1257-.0458-.0543-.1058-.0829-.1543-.1286-.0515-.0485-.0429-.1686-.1-.2057-.0572-.0371-.1458-.0257-.2086-.0514-.0629-.0258-.1743-.0515-.2429-.0629z" mask="url(#b)" stroke="#000" stroke-width=".571478"/><path d="m34.1046 32.5603.0086.0143-.0686-.0629c-.0143.0172.0457.0657.0629.0486z"/></g><path d="m34.1046 32.5603v-.2857h-.5046l.2596.4327zm.0086.0143-.1931.2106.4381-.3576zm-.0686-.0629.1931-.2106-.2208-.2024-.1918.2301zm.0629.0486.202.202.4878-.4877h-.6898zm-.2479.147.0086.0143.49-.294-.0086-.0143zm.4467-.3434-.0686-.0628-.3862.4213.0686.0628zm-.4812-.0351c-.1287.1544-.0407.3187-.0263.3435.0275.0475.0627.0805.0882.1007.026.0205.0658.0465.1172.0624.0336.0104.1833.049.3053-.0731l-.4041-.4041c.1135-.1134.2493-.0744.2673-.0689.0357.0111.0582.027.0688.0354.0102.0081.0319.0268.0517.0609.0066.0114.0924.1632-.0291.309zm.2824-.0542h-.0029v.5714h.0029z" fill="#000" mask="url(#c)"/><g stroke="#000" stroke-linecap="round" stroke-linejoin="round" stroke-width="1.14296"><path d="m20.2063 22.7194c.0686-.0114.1257-.0657.1914-.08.0658-.0143.1515.0486.2172.0315.0657-.0172.1286-.0429.1972-.0629.0685-.02.1457.0086.2114-.0114s.0943-.1515.16-.1743c.0657-.0229.1915.1371.2572.1143.0657-.0229.0886-.1601.1514-.1829.0629-.0229.14-.0172.2058-.0429.0657-.0257.1285-.0514.1914-.08s.16.02.2229-.0086c.0628-.0285.0771-.16.1371-.1914s.1658.0229.2286-.0086c.0629-.0314.0486-.2.1086-.2343s.1257-.0543.1857-.0886.1629.0086.2229-.0285c.06-.0372.0543-.1715.1114-.2086.0572-.0372.1258-.0572.1801-.0972s.12-.0657.1771-.1057c.0572-.04.16-.0143.2143-.0571.0543-.0429.14-.0458.1943-.0886.0543-.0429.0229-.1915.0743-.2372s.0915-.1029.1429-.1457c.0514-.0429.1771-.0086.2286-.0543.0514-.0457.0228-.1743.0714-.2229s.1114-.0828.1572-.1314c.0457-.0486.08-.1115.1257-.1629s.1286-.0686.1714-.1229c.0429-.0543.1086-.0885.1486-.1428s.0915-.1058.1315-.16c.04-.0543.0285-.1458.0685-.2029.04-.0572.12-.0857.1572-.1429.0371-.0571.06-.1229.0943-.1829s.02-.1428.0514-.2057c.0315-.0629.0543-.1229.0829-.1857.0314-.0715.1857-.1.2057-.1743s-.0886-.1658-.0971-.2429c-.0057-.0571.1314-.1543.1085-.2086-.0228-.0543-.14-.0657-.1743-.1143-.0342-.0486-.0257-.1257-.06-.1714-.0428-.0543-.1143-.0858-.16-.1372s-.1314-.0657-.1771-.1171c-.0457-.0515-.0057-.1886-.0543-.2343-.0486-.0458-.1-.1001-.1515-.1458-.0514-.0457-.1971.0172-.2486-.0285-.0514-.0458-.0314-.1801-.0857-.2201s-.1943.0343-.2514-.0057c-.0572-.04-.0915-.1028-.1515-.14-.06-.0371-.1143-.0743-.1714-.1086-.0572-.0343-.0514-.1828-.1114-.2171-.0601-.0343-.1429-.0257-.2058-.0572-.0628-.0314-.1714.04-.2314.0114-.06-.0285-.1115-.0771-.1772-.1057-.0657-.0285-.1143-.0771-.18-.1028-.0657-.0258-.1086-.1086-.1714-.1315-.0629-.0228-.1515.0229-.2172.0057-.0657-.0171-.1086-.1257-.1772-.1428-.0685-.0172-.1657.1114-.2343.1-.0685-.0115-.1114-.1515-.1771-.1629s-.1315-.06-.2-.0686c-.0686-.0085-.1486.08-.2172.0743s-.1314-.1-.2-.1028c-.0686-.0029-.14.1171-.2086.1171s-.1372-.06-.2057-.0571c-.0686.0028-.1372.0228-.2058.0285s-.1428-.0428-.2114-.0371c-.0686.0086-.1429.0057-.2143.0171-.0715.0115-.1258.1029-.1943.1143-.0686.0115-.1515-.0314-.2201-.0143-.0685.0172-.1285.0686-.1971.0886s-.14.0257-.2057.0457c-.0658.02-.1115.1172-.1772.14-.0657.0229-.1286.0572-.1943.0801-.0657.0228-.1857-.1029-.2515-.0772-.0657.0229-.0742.1972-.1371.2229s-.1715-.0543-.2343-.0286c-.0629.0257-.1229.0629-.1857.0914-.0629.0286-.0858.1429-.1486.1715-.0629.0286-.1143.0771-.1772.1057-.0628.0286-.1943-.08-.2572-.0486-.0628.0315-.0857.1343-.1457.1686s-.12.0657-.18.1-.1057.0886-.1657.1258c-.06.0371-.1686-.0086-.2258.0285-.0571.0372-.0542.1686-.1114.2086-.0571.04-.0914.1057-.1486.1457-.0571.04-.22-.0657-.2743-.0228-.0543.0428.0057.2314-.0457.2772-.0514.0457-.1886-.0143-.2429.0314s-.0543.1486-.1057.1943-.14.0514-.1886.1-.0514.1429-.1.1914c-.0486.0486-.1943.0086-.24.06-.0457.0515-.0286.1601-.0743.2115s-.0143.1657-.0572.22c-.0428.0543-.1085.0857-.1514.1429-.0429.0571-.0972.0971-.1372.1543-.04.0571-.1885.0428-.2257.1028-.0371.06.06.1972.0257.2572s-.1428.08-.1743.14c-.0314.06-.1228.0972-.1514.16-.0286.0629.0714.1829.0457.2458-.0257.0628-.0857.1143-.1114.1771-.0258.0629.0057.1458-.0143.2115s-.1286.1057-.1458.1714c-.0171.0657 0 .1429-.0171.2086s-.0314.1343-.0457.2029-.0972.1257-.1086.1914.12.1543.1114.2229c-.0085.0686-.16.1257-.1628.1943-.0029.0686.1343.1429.1314.2115-.0028.0685.0314.1342.0343.2028s-.0286.1372-.0229.2058c.0058.0685-.02.1371-.0085.2057.0114.0686-.0858.1543-.0743.2229.0114.0685.14.1114.1571.1771.0172.0657-.0685.1629-.0485.2286s.0485.1343.0714.1972c.0229.0657.0914.1143.1171.1771.0258.0629.1629.0743.1943.1372.0315.0629.0543.1229.0858.1829.0314.06-.0486.18-.0143.24s.0257.1457.0628.2029c.0372.0571.1943.0428.2286.1028s-.0085.1658.0286.2258c.0372.06.0772.1143.1143.1714.0372.0571.0629.1229.1.18.0372.0572.1286.08.1657.14.0372.06-.0285.1772.0058.2372.0342.06.1057.0943.14.1543s.0314.1371.0628.1971c.0315.0601.1715.0658.2.1258.0286.06.0801.1171.1058.18.0285.0657-.0743.18-.0486.2457s.1171.1057.14.1715c.0229.0657.1229.1085.1429.1743.02.0657-.0457.16-.0257.2286.02.0685.0228.14.04.2057.0171.0657.0343.1371.0514.2057s.1657.1.1829.1686c.0171.0686-.0257.1515-.0057.22.02.0686-.0772.1715-.0572.2372s.0429.1371.0657.2029c.0229.0657.1572.0943.18.16.0229.0657.0801.1171.1086.1829.0286.0657.0857.1114.1143.1743.0286.0628.0543.1228.0886.1857.0286.0543-.0829.2-.0457.2514.0371.0515.0914.1058.1343.1515.0428.0457.1171.08.1686.1171.0514.0372.1057.1229.1657.1429s.1571.0257.2229.0229c.0743 0 .1514-.0801.2171-.1115s.0457-.1657.1-.2143c.0515-.0486.1-.08.1429-.14s.1172-.0886.1543-.1486c.0372-.06.0629-.1286.0943-.1914.0286-.06.02-.1343.0457-.1972.0257-.0628.0629-.1171.0857-.18.0229-.0629.0915-.1086.1143-.1714.0229-.0629.1372-.0943.1572-.1601.02-.0657.0571-.1228.0771-.1885.02-.0658 0-.1401.02-.2058s-.0885-.1657-.0685-.2314.14-.1.16-.1658c.02-.0657.0457-.1285.0657-.1914s.08-.1172.0972-.1829c.0171-.0657-.0029-.1428.0171-.2057s.0657-.12.0857-.1829c.02-.0628-.0514-.16-.0314-.2229.02-.0628.1114-.1028.1371-.1657.0258-.0628.0486-.1257.0743-.1857s.0686-.1143.0972-.1743"/><path d="m20.1291 22.9993c-.0228-.06-.0114-.1572-.0542-.2058-.0429-.0485-.1915.04-.2486.0057-.0572-.0342-.0572-.1628-.1201-.18-.0628-.0171-.1314.0086-.1943.0057-.0628-.0028-.1342-.0285-.1943-.0114-.06.0172-.1114.0743-.1657.1057-.0543.0315-.1514.0115-.2.0543-.0486.0429-.1029.0915-.1457.1429-.0429.0514-.0486.1286-.0829.1857-.0343.0572-.0571.12-.0771.18s-.02.1286-.0343.1915.0228.1314.0143.1943c-.0086.0629-.02.1229-.0229.1886s-.1143.1286-.1114.1943c.0028.0657.14.12.1457.1857.0057.0686-.1057.1515-.0972.22.0086.0686.0686.1286.0858.1972.0171.0686.0857.1171.1085.1829.0229.0657-.0085.1514.0229.2114s.1029.0943.1457.1515c.0429.0571.1.0828.1515.1285.0514.0458.0257.2058.0857.2401.06.0342.1743-.0343.24-.0172.0657.0172.1314-.04.2-.04s.1629.1714.2286.1486"/><path d="m25.4353 19.6533c.0657.0315.0743.1429.1229.1886.0485.0457.0885.0886.1257.1486.0371.06.06.1114.0857.1772.0257.0657.0486.12.0657.1885.0172.0686-.0171.1372-.0114.2058.0057.0685.02.1314.0257.2s.0686.1371.0686.2057.0086.1429.0086.2086c0 .0743.0314.1457.0285.2086-.0028.0629-.1057.1257-.1085.1914-.0029.0658.02.1315.0171.1972-.0028.0657.0857.1343.0829.2-.0029.0657-.14.1229-.1429.1886s-.02.1314-.02.1972c0 .0657.0543.1314.0572.1971.0028.0657.0714.1258.0771.1915s-.0657.14-.0543.2057.1086.1114.1257.1743c.0172.0629.0915.1.1143.1629.0229.0628.02.1228.0486.1828.0286.0601.08.0943.1143.1486s-.0714.2115-.0314.2601c.04.0485.16.0342.2086.0771.0485.0429.1285.0343.1828.0714.0543.0372.06.1486.12.1743"/><path d="m26.764 24.2051c-.06.04-.1772.0086-.2286.0514-.0514.0429-.0229.18-.0686.2315-.0457.0514-.1171.0828-.1543.14-.0371.0571-.0343.1371-.0657.2s-.1372.0914-.16.1571c-.0229.0658 0 .1486-.0172.2143-.0171.0658.0143.1429 0 .2115-.0142.0686-.0371.1314-.0485.2-.0115.0686.0057.14-.0029.2086s-.12.1229-.1286.1943c-.0085.0714-.0257.1372-.0343.2057-.0085.0686-.0571.1343-.0657.2029s.0543.1429.0457.2115c-.0085.0685-.0685.1285-.0771.1971s-.0343.1315-.0429.2c-.0085.0686.0972.1515.0857.2172-.0114.0657-.0228.1372-.0342.2029-.0115.0657.0285.1457.0171.2143s-.1572.1057-.1714.1714c-.0143.0657-.0115.1372-.0315.2029s-.0314.1343-.0543.1972c-.0228.0628-.0514.1257-.0771.1885-.0257.0629-.0086.1486-.04.2086s-.0314.1458-.0686.2029c-.0371.0572-.1171.0914-.16.1457s-.0914.1086-.14.1572-.1143.0829-.1657.1286c-.0515.0457-.0943.1057-.1515.1457-.0571.04-.1029.1057-.1629.14s-.1343.0486-.1971.08c-.0629.0314-.1315.0543-.1972.0772-.0657.0228-.12.1-.1857.1171-.0657.0172-.1543-.04-.2229-.0286-.0686.0115-.1429-.0514-.2114-.0457-.0686.0057-.1315-.0343-.2001-.0371-.0628 0-.1314.0971-.1971.0943-.0657-.0029-.1286.0114-.1943.0114s-.1343-.0314-.1943-.0229c-.0657.0115-.1429 0-.2.0286-.0572.0286-.1086.0886-.1515.14-.0428.0486.0286.1515.0057.2115-.0228.06-.2143.0714-.2257.1314-.0143.0629.1114.1543.1.2172-.0114.0628-.0343.1228-.04.1857s.0286.1286.0229.1915c-.0057.0628.0057.1228.0028.1885-.0028.0658-.0743.1229-.0714.1886s-.0629.1315-.0572.1943c.0058.0629-.0085.1715 0 .2343.0601.0315.1572.0686.2201.1029.0628.0343.1314.0457.1914.0772.06.0314.16-.0086.2229.0257.0628.0343.1314.0428.1914.0771s.1086.0886.1686.1229.06.1686.12.2057c.06.0372.1315.0457.1915.0829.06.0371.1571.0086.2143.0457.0571.0371.1343.0457.1943.0829.06.0371.0628.1628.12.2.0571.0371.18-.0229.24.0143.06.0371.08.1314.1372.1714.0571.04.1.1029.1571.14.0572.0372.1429.0372.2.0772.0572.04.0629.1543.12.1943.0572.04.1458.0343.2001.0743s.0885.1143.1457.1543c.0571.04.0943.1057.1486.1457s.1457.0371.2.0771.14.0343.1943.0772.1029.0857.1543.1286c.0514.0428.04.1543.0886.2.0485.0457.1286.0571.1743.1057s.1.0886.1428.14c.0429.0515.1001.0943.1343.1515.0372.0571.0286.1371.0572.1943.0286.0571.1686.0714.1914.1314.0229.06.0458.1315.0658.1943.02.0629-.1229.1715-.1058.2372.0172.0657.2058.0914.2172.1571.0114.0658-.0229.14-.0143.2058.0086.0657-.1029.1457-.0971.2114.0057.0657.06.1257.0657.1915.0057.0657-.0115.1343-.0057.2.0028.0657.1228.1257.1285.1914.0058.0657-.0371.1343-.0342.2029.0028.0686.0314.1314.0342.1972.0029.0657-.1314.1371-.1285.2028.0028.0657.0371.1315.04.1972.0028.0657.0171.1314.02.1971.0028.0658-.0172.1343-.0172.2001 0 .0657.0143.1343.0143.2s.0514.1343.0514.2-.0857.1343-.0857.2029-.0114.1343-.0114.2.0171.1343.0171.2.1743.1343.1743.2-.0171.1343-.0171.2029-.0514.1343-.0514.2-.0458.1343-.0458.2"/><path d="m17.7318 29.6714c.0057.0686 0 .1371.0057.2086.0057.0714.0886.1343.0914.2029.0029.0685.0343.1428.0315.2114-.0029.0686-.0429.14-.0515.2086-.0085.0686.0286.1543.0115.22-.0172.0657-.1029.12-.1315.1829-.0285.0628-.1457.0714-.1857.1286-.04.06-.0457.1343-.0943.1857s-.1.0943-.1572.14c-.0571.0457-.0542.1657-.1142.2086-.0601.0429-.1772-.0029-.2372.0343-.0572.0371-.0743.1286-.1315.1657-.0571.0372-.1257.0486-.1828.0857-.0572.0372-.1229.0515-.18.0886-.0572.0372-.0829.1172-.1401.1515-.0571.0342-.1485.0142-.2057.0485-.0571.0343-.0914.1086-.1486.14-.0571.0315-.1457.0143-.2028.0486-.0572.0343-.06.1629-.1172.1972-.0571.0343-.1029.0914-.16.1228-.0572.0315-.1257.0486-.1857.08-.06.0315-.14.0258-.1972.0572-.0571.0314-.1486.0057-.2057.0371-.0572.0315-.0543.1801-.1143.2115s-.1229.0571-.18.0886c-.0572.0285-.1143.0628-.1743.0914s-.1829-.0714-.2429-.04-.0829.1257-.14.1572c-.0572.0314-.1029.0857-.16.1171-.0572.0314-.1801-.0428-.2344-.0086-.0542.0343-.1.0915-.1542.1286-.0543.0372-.1315.0457-.1858.0857s-.0228.1886-.0743.2286c-.0514.04-.1857-.0085-.2314.0343-.0457.0429-.0343.1543-.08.2029s-.1343.06-.1743.1114c-.0429.0543-.1058.1029-.1429.1629s.0114.1715-.0229.2315c-.0342.06-.0542.1257-.08.1914-.0257.0657-.0285.1343-.0514.2s-.1029.1115-.12.1772c-.0172.0657-.0972.12-.1114.1886-.0143.0685.1314.1685.12.2371-.0115.0686-.1572.1143-.1658.1829-.0085.0686.0972.1514.0915.22s-.0972.1315-.1029.2c-.0057.0686-.06.1372-.0629.2058-.0028.0685.1115.1428.1115.2114 0 .0629-.1086.1286-.1086.2029 0 .0629.0943.1343.0914.2057 0 .0657-.04.1343-.04.2029 0 .0657.0658.1343.0658.2057 0 .0715-.0743.1343-.0743.2029s-.0172.1372-.02.2029c-.0029.0657-.0686.1371-.0686.2057s.0714.1372.0714.2057c0 .0686.06.1401.06.2058s-.0457.1371-.0486.2028c0 .0715.0943.1401.0943.2058 0 .0743-.0628.1428-.0657.2057 0 .0772.0057.1457.0057.2057 0 .1258-.1028.1001-.1028.2001"/><path d="m32.113 21.908c.0486.0514.1257.0771.1715.1285.0457.0515.1285.0743.1771.1229s.0486.1515.0943.2c.0457.0486.06.14.1086.1915.0486.0514.1372.0628.1857.1114.0486.0486.1343.0629.1829.1114.0486.0486.0257.1801.0771.2258.0515.0457.1715.0171.2258.06.0543.0428.0171.2.0743.2457.0571.0457.1343.0572.1914.1.0572.0429.12.0743.18.1143s.0943.1143.1572.1515c.0629.0371.1714-.0172.2343.0171s.1429.0257.2057.0572c.0629.0314.1.1085.1629.1371s.1229.0629.1886.0886.1029.1229.1657.1486c.0629.0257.1486.0028.2143.0257s.1343.04.2.0571c.0658.0172.1229.0886.1915.1058.0686.0171.1629-.0972.2314-.0858.0686.0115.1429-.0342.2115-.0257.0686.0086.1257.1086.1943.1143s.1343.0743.2057.0772c.0714.0028.1429.0314.2115.0314.0685 0 .1285-.1857.2-.1914.0714-.0058.1428.0628.2114.0542.0686-.0085.14 0 .2086-.0142.0686-.0143.1572.06.2257.0428.0686-.0171.1086-.1343.1743-.1543"/><path d="m37.4735 24.168c.0028.0685.1857.1257.1886.1914.0028.0657-.0686.1372-.0658.2029.0029.0657-.0142.1343-.0114.2.0029.0657-.0857.1372-.0857.2029s.1057.1314.1057.1943c0 .0628-.0314.1343-.0314.2s-.0086.1343-.0086.2.0829.1315.0829.1972.0343.1314.0343.1971c0 .0658-.0372.1315-.0372.1972s.0515.1314.0515.2-.0686.1315-.0715.1972c-.0028.0657-.1057.1286-.1086.1971"/><path d="m37.6221 26.9454c.0428-.0628.0628-.1514.1114-.2086.0486-.0571.0772-.1543.1343-.2057.0572-.0514.1686-.0486.2372-.0886.0685-.04.1571-.0171.2314-.0371s.1457-.08.2229-.0743c.0771.0057.1829-.0171.2514.0171.0515.0258.0372.1543.0801.1915.0428.0371.1542.0114.1885.0571.0429.0543-.0457.1886-.0142.2486.0314.06.0828.1029.1057.1686.0228.0657.0428.1229.0543.1915.0114.0685-.0286.1314-.0258.2028.0029.0715.1058.1343.1001.2029-.0058.0686.0314.1457.02.2143-.0115.0657-.0772.1229-.0943.1886-.0172.0657-.0429.1257-.0686.1886s-.12.0857-.1515.1457c-.0314.06-.0257.1315-.0657.1857-.04.0543-.08.0972-.1314.1429s-.1257.0286-.1829.06c-.0571.0315-.0686.1743-.1314.1915-.0629.0171-.14.0857-.2058.0885-.0657.0029-.1371-.0971-.2028-.1143-.0658-.0171-.0915-.0971-.1486-.1342"/><path d="m32.0959 21.9136c0 .0686-.0372.1286-.0543.2-.0172.0657-.0543.12-.0857.1857-.0257.0629.0657.1886.0314.2515-.0343.0628-.1743.0628-.2114.1257-.0372.0629-.0401.1429-.0801.2029s-.08.12-.1171.1771c-.0429.0629-.0972.1115-.1314.1686-.0372.06-.1286.0857-.1658.1429-.0371.0571-.0314.1486-.0714.2086s-.0886.1114-.1257.1714c-.0372.06-.0143.1572-.0486.2172s-.16.0771-.1886.14-.0314.1457-.0571.2114"/><path d="m31.0072 23.8337c.0086.0715-.0057.1429-.0028.2143.0028.0715-.0515.1401-.0515.2115s.0972.1457.0915.2143c-.0058.0686-.1258.1314-.1343.2-.0086.0686-.0286.1372-.0372.2057-.0086.0686.0829.1543.0714.2258-.0114.0714-.0885.1257-.1028.1971-.0143.0715.0571.1572.04.2258-.0172.0685-.0629.1314-.08.2-.0172.0686-.02.14-.0372.2086-.0171.0686-.0771.1286-.0914.1971-.0143.0686.0686.1629.0514.2315-.0171.0686-.1371.1143-.1543.1829-.0171.0685.06.1571.0457.2257-.0142.0686-.1057.1229-.1171.1943s.02.1457.0086.2172c-.0115.0714 0 .1428-.0086.2114s-.0972.1343-.1029.2029.0086.1428.0057.2143c-.0028.0714.0658.1429.0686.2143.0029.0714.0172.1371.0229.2086.0057.0714-.08.1514-.0715.22.0086.0686.0143.1429.0286.2143s.0629.1314.0829.2.0143.1457.04.2115c.0257.0657.1514.0857.1829.1514.0314.0657.0057.1572.04.22.0342.0629.0657.1286.1085.1886.0429.06.0343.16.0772.2143s.2172.0057.2657.06c.0486.0543-.0171.2115.0315.2629.0485.0514.1428.0629.1943.1143.0514.0514.1514.0543.2028.1029.0486.0485.0343.1628.0858.2085.0514.0458.1543.0372.2057.0829s.0657.1343.1171.18c.0515.0457.1543.0315.2058.0772.0514.0457.0343.1771.0886.22.0542.0429.1571.02.2114.06s.0686.1457.1257.1829c.0572.0371.1286.0571.1886.0886.06.0314.1429.0228.2057.0514.0629.0286.0886.1486.1543.1743.0658.0257.1372.0428.2029.0629.0657.02.1629-.0801.2315-.0658.0685.0143.1257.0743.1943.08.0685.0058.14-.0571.2086-.0571.0685 0 .1428.1657.2143.16.0714-.0057.12-.1543.1886-.1686.0685-.0143.1743.1057.24.0829.0657-.0229.0971-.1515.16-.18.0628-.0286.1343-.0429.1943-.0772s.0771-.1343.1371-.1743.1858.0257.2429-.0171c.0572-.0429.14-.0543.1943-.0972.0543-.0428-.0114-.2286.04-.2743.0515-.0457.1057-.0886.1572-.1371.0514-.0486.1086-.0858.16-.1343.0514-.0486.08-.1143.1286-.1658"/><path d="m33.5846 26.271c-.0257.0657-.1.1143-.1257.18-.0258.0657-.1372.0914-.1686.1543-.0315.0629.0343.1772 0 .24-.0343.0629-.1772.0629-.2115.1229s-.0971.1029-.1343.1629c-.0371.06-.0143.1571-.0571.2143"/><path d="m32.7759 27.5569c.0315.0257.1686.0086.2429.08.0572.0514.0143.2172.0715.2714.0742.0715.2057.0629.2371.0886"/><path d="m34.3075 31.9829c-.0086.0657-.0057.1315-.0086.1972-.0028.0657-.1.1286-.1028.1971-.0029.0686.1057.1315.1057.1972s-.0572.1314-.0572.1971c0 .0658-.0571.1258-.0628.1915s.1514.1457.1428.2114c-.0085.0658-.1285.1086-.1485.1715-.0201.0628.0685.1657.04.2257-.0258.06-.1629.06-.1972.1143s-.1057.0686-.1486.1172c-.0428.0485.0286.2171-.02.2571s-.1086.0829-.1629.12c-.0543.0372-.1828-.0485-.24-.0171-.0571.0314-.12.0371-.18.0657s-.06.1886-.12.2115c-.0457.0171-.1114.0343-.1943.0714-.0572.0257-.18-.0829-.2515-.0514-.06.0257-.0628.1857-.1285.2171-.06.0286-.1401.02-.2058.0515-.06.0285-.1057.1-.1686.1314-.0628.0314-.16-.0114-.2228.02-.0629.0314-.1.1114-.1629.1429-.0629.0314-.1257.0571-.1886.0914s-.0971.1143-.16.1486-.1857-.0514-.2486-.0172c-.0629.0343-.0571.1886-.12.2201-.0629.0314-.1286.0571-.1886.0885-.0629.0343-.1714-.0142-.2314.02-.0629.0372-.1058.1001-.1629.1372-.0629.04-.0972.1143-.1515.1514-.0628.0429-.1657.0229-.2143.06-.0657.0515-.0914.1258-.1257.1686-.04.0458-.1686.0543-.2029.12-.0285.0572.0229.1601-.0028.2286-.0229.0629-.1372.1029-.1543.1715-.0172.0628.0857.16.0714.2314-.0143.0657.0029.1372-.0086.2058-.0114.0685-.1343.1171-.1428.1857-.0086.0686.1371.1543.1286.2229-.0086.0685-.0801.1285-.0858.1971s-.0171.1372-.0228.2058c-.0057.0685 0 .1371-.0057.2057-.0058.0686-.06.1371-.0629.2057s.0571.14.0543.2086c0 .0714-.1086.1372-.1086.2029 0 .0714.1514.1429.1514.2086 0 .0743-.1657.1428-.1657.2086 0 .0771.0515.1485.0515.2057 0 .1286.0971.0971.1028.2"/><path d="m37.9164 28.8113c.0085.0686.0314.1343.04.2029.0085.0685.0057.1371.0143.2057.0085.0686.0085.1371.0143.2057.0057.0686-.1058.1457-.1001.2143.0058.0686.0772.1315.0829.2.0057.0686-.0114.1372-.0086.2058.0029.0685.1543.1286.1572.1971.0028.0686-.02.14-.0172.2058.0029.0657.0086.1371.0086.2057s-.0457.14-.0457.2057-.0371.14-.0371.2058c0 .0657.0257.1371.0257.2057s.0771.14.0771.2057-.1486.1343-.1514.2029c-.0029.0686-.0343.1343-.0343.2029 0 .0685.1657.1428.1629.2114-.0029.0686-.1543.1286-.1572.1972s.1629.1457.1572.2143c-.0058.0686-.0229.1371-.0286.2057s-.1143.1286-.12.1972-.0572.1314-.0629.2.0743.1429.0714.2114c-.0028.0686-.1114.1286-.1171.1943-.0057.0658.0914.1429.0857.2115s-.0171.1343-.0228.2029c-.0058.0685-.0972.1285-.1.1971-.0029.0686.1257.1429.12.2086-.0058.0657-.0572.1314-.06.2-.0029.0686-.0801.1315-.0829.2-.0029.0686.1429.1401.1429.2086 0 .0686.0085.1343.0085.2029s-.1285.14-.1314.2172c0 .0714.0914.1457.0914.22s-.0428.1486-.0371.2229-.0657.1686-.0486.2371c.0172.0743.1857.0915.22.1515.0372.0714-.0171.2143.0343.2428.0572.0315.1686.0458.2372.0343.06-.0085.1-.1285.1628-.1628.0572-.0286.1029-.0743.1601-.1143.0543-.0372.1743.0085.2257-.0343.0514-.0429.0286-.1743.0771-.2172.0515-.0486.1772-.0143.2201-.0571.0571-.0543.1028-.1029.14-.14.0457-.0429.1-.0915.1543-.1429.0486-.0457.1-.0943.1543-.1429.0485-.0457.08-.1171.1343-.1657.0514-.0457.0657-.14.12-.1857.0543-.0458.1486-.04.2029-.0858.0542-.0457.1514-.0285.2085-.0714.0572-.0429.1143-.0743.1743-.1143.0601-.04.0972-.1057.1572-.14s.0772-.1657.14-.1943c.0629-.0286.1715.0457.2372.0229.0657-.0229.1286-.0458.1971-.0629.0686-.0172.1315-.0457.2001-.0514.0685-.0058.14-.0372.2085-.0315.0686.0057.1372.0286.2058.0457.0686.0172.1057.1001.1714.1286"/><path d="m30.35 24.3966c-.0314-.0628-.1229-.0971-.1514-.16-.0286-.0629.0885-.18.0685-.2457-.02-.0658-.0685-.1172-.0885-.1858-.02-.0685-.0429-.1285-.0572-.1971s-.0657-.1257-.0743-.1943c-.0085-.0686-.0857-.1315-.0914-.2-.0057-.0686-.0114-.1401-.0114-.2115s.0457-.14.0457-.2086.0743-.1343.08-.2029c.0057-.0685-.0143-.1371-.0057-.2057.0085-.0686-.1-.1571-.0886-.2257s.0914-.1257.1086-.1915c.0171-.0657.0457-.1314.0657-.2s.1229-.1057.1457-.1686c.0229-.0628-.0886-.1828-.0628-.2457.0257-.0629.1685-.0772.1971-.14.0286-.0629 0-.1543.0343-.2143s.0743-.12.1086-.1772c.0343-.0571.1743-.0514.2114-.1086.0372-.0571-.0057-.1714.0343-.2257s.0343-.1514.0772-.2029c.0428-.0514.1886-.0228.2343-.0743.0457-.0514.1057-.0857.1543-.1371s.0686-.1229.12-.1715c.0514-.0485.0286-.1714.08-.2171s.0829-.12.1371-.1629c.0543-.0428.1743-.0028.2315-.0457.0571-.0429.1029-.0914.16-.1314.0572-.04.1429-.0343.2-.0715.0572-.0371.0657-.1571.1258-.1914.06-.0343.1257-.06.1885-.0915.0629-.0314.1229-.0657.1858-.0971.0628-.0314.1-.1143.1628-.1429.0629-.0286.1858.0772.2486.0486.0629-.0257.0658-.2.1286-.2257.0629-.0258.1886.1171.2543.0943.0657-.0229.1029-.1172.1686-.1372s.1314-.0314.1972-.0514c.0657-.02.1286-.0486.1943-.0658.0657-.0171.1257-.0685.1914-.0828s.1486.0514.2172.04.1343-.0057.2029-.0172c.0685-.0114.1257-.0743.1943-.0828.0685-.0086.1314-.0543.2-.06.0685-.0057.1371.0028.2057 0 .0686-.0029.1372.0371.2057.0371h.2029c.0657 0 .1343.0143.2029.02s.1343.0286.2.0343.1486-.1029.2143-.0943.1114.18.18.1886.1543-.0914.22-.0771c.0658.0142.1286.0514.1943.0657.0658.0143.1543-.0429.2201-.0257.0657.0171.1343.0371.2.0571.0628.02.1257.0486.1886.0714.0628.0229.0685.1943.1285.2201.0601.0257.1686-.0629.2286-.0372s.1258.0486.1858.0772c.06.0285.0943.1114.1514.14.0572.0285.1515 0 .2086.0343.0571.0342.06.16.1172.1943.0571.0343.1885-.0515.2457-.0172.0571.0343.0829.12.1371.1572.0543.0371.0572.1486.1086.1886.0515.04.0857.1028.1372.1457.0514.0429.1086.0714.16.1143.0514.0428.1371.0428.1857.0886.0515.0457.1486.04.1972.0857s.1371.0571.1829.1057c.0457.0486-.0172.2057.0285.2572.0457.0514.1258.0657.1715.1171.0457.0515.1143.08.1571.1315.0429.0514.0457.1371.0886.1886.0429.0514.1.0942.14.1485s.02.1515.0572.2058c.0371.0543.18.04.2171.0971.0372.0572.0029.1572.0372.2143.0343.0572.1914.0457.2257.1057.0343.0601-.0771.1944-.0457.2544s.0343.1314.0629.1914c.0285.06.0514.12.08.1829.0285.0628.0628.1171.0885.18.0258.0629.2001.0686.2229.1314.0229.0629.0343.1343.0543.1972s.0514.1286.0714.1914c.02.0629-.0114.1458.0058.2115.0171.0657-.0029.14.0142.2057.0172.0657.0772.12.0915.1886s-.06.1543-.0457.2229c.0142.0686.18.1057.1943.1743.0142.0686.0171.14.0285.2086.0115.0685-.0171.1428-.0057.2114s.0029.14.0143.2086-.0171.1429-.0086.2114c.0086.0686.0086.1372.0172.2086.0086.0715.04.1343.0486.2029.0085.0686.0943.1315.1.2.0057.0686-.0915.1486-.0858.2172.0058.0686.0915.1314.0972.2s-.0172.14-.0143.2086-.08.1429-.0771.2143c.0028.0714.1343.1314.1371.2029.0029.0714.0086.14.0114.2086.0029.0685-.06.14-.06.2114s-.0943.14-.0943.2115c0 .0714.1458.1343.1486.2057.0029.0714.0172.14.02.2086.0029.0686-.0657.14-.0657.2086 0 .0685.0486.14.0486.2086 0 .0685-.0629.14-.0629.2085 0 .0686-.0057.1401-.0086.2086-.0028.0686-.0257.14-.0285.2086-.0029.0686.1.14.1.2086s-.0514.1372-.0514.2086-.1001.1372-.1001.2057c0 .0686.1858.1429.1858.2115s-.1029.1371-.1029.2057.0943.14.0914.2086c-.0028.0686-.1514.1343-.1514.2029s.1257.14.1257.2086c0 .0685-.0371.1343-.04.2028-.0028.0686-.1028.1315-.1057.2001-.0029.0685.0629.1371.0629.2057s.0771.1371.0771.2057v.2029c0 .0686-.16.1314-.1629.2-.0028.0686-.0114.1343-.0142.2029-.0029.0686.0657.1371.0657.2057s.0428.1343.0428.2029-.0085.1343-.0085.2029c0 .0685.0514.1343.0514.2028 0 .0743.0171.1401.02.2086.0029.0743 0 .14.0057.2086.0057.0715-.0086.1429 0 .2115.0086.0685-.0857.1514-.08.22s-.0257.1429-.02.2114c.0057.0686 0 .1372.0029.2086.0028.0715.0228.1343.0228.2058 0 .0685.0972.1428.0915.2143-.0058.0685-.0058.14-.0143.2143"/><path d="m41.2424 34.4375c.0714 0 .1371-.0057.2028.0086.0658.0143.1658-.0372.2286-.0086.0629.0286.1372.0657.1943.1057.0572.04 0 .2086.0543.2572.0486.0486.2029 0 .2458.0571.0428.0515-.0115.1772.0285.2372s.1458.0714.1801.1343c.0342.0629.04.1343.0714.2s.0314.1343.06.2c.0286.0658.1371.0943.1629.1601.0257.0657-.0286.1571-.0086.2257s.1457.1.1657.1657-.0457.16-.0257.2257c.02.0658.0114.1401.0286.2058.0171.0657-.0315.1486-.0143.2171.0171.0686.1.1201.1171.1886.0172.0686.0658.1286.0772.1972s.06.1314.0714.2c.0115.0686-.06.1514-.0485.22.0114.0686.1028.1257.1142.1943.0115.0686-.0171.1458-.0085.2143.0085.0686-.0629.1515-.0543.22.0086.0686.0771.1343.0857.2029s-.0571.1458-.0514.2143c.0057.0686.0857.1343.0914.2.0057.0658.0257.1401.0286.2058.0057.0714-.0543.1428-.0486.2114.0029.0715-.02.14-.0171.2086"/></g></svg>