<svg width="192" height="55" viewBox="0 0 192 55" fill="none" xmlns="http://www.w3.org/2000/svg">
<rect x="0.317383" y="0.369141" width="191.404" height="53.7032" rx="6" fill="white"/>
<g clip-path="url(#clip0_194_31521)">
<path d="M10.3353 16.8621H15.0795C15.5786 16.8621 15.9832 16.4575 15.9832 15.9584V12.5697L12.7074 10.3105L9.43164 12.5697V15.9584C9.43164 16.4575 9.83623 16.8621 10.3353 16.8621Z" stroke="black" stroke-width="0.774566" stroke-linecap="round" stroke-linejoin="round"/>
<path d="M11.6904 15.2804C11.6904 14.7813 12.095 14.3767 12.5941 14.3767H12.82C13.3191 14.3767 13.7237 14.7813 13.7237 15.2804V16.8618H11.6904V15.2804Z" stroke="black" stroke-width="0.774566" stroke-linecap="round" stroke-linejoin="round"/>
</g>
<path d="M21.5226 16.0898V10.6679H23.3893C23.8179 10.6679 24.169 10.7402 24.4427 10.8848C24.7216 11.0293 24.9281 11.2256 25.0624 11.4734C25.1966 11.7161 25.2638 11.9872 25.2638 12.2867C25.2638 12.6224 25.1734 12.927 24.9927 13.2007C24.8171 13.4744 24.5408 13.6706 24.1639 13.7894L25.318 16.0898H24.3653L23.3118 13.9056H22.3436V16.0898H21.5226ZM22.3436 13.2859H23.3428C23.7146 13.2859 23.9857 13.1955 24.1561 13.0148C24.3317 12.8341 24.4195 12.5991 24.4195 12.31C24.4195 12.0208 24.3343 11.791 24.1639 11.6206C23.9935 11.445 23.7172 11.3572 23.3351 11.3572H22.3436V13.2859ZM27.7666 16.1828C27.3896 16.1828 27.054 16.1002 26.7596 15.9349C26.4705 15.7645 26.2433 15.5296 26.078 15.2301C25.9128 14.9306 25.8302 14.582 25.8302 14.1844C25.8302 13.7816 25.9102 13.4279 26.0703 13.1233C26.2355 12.8186 26.4627 12.5811 26.7519 12.4107C27.0462 12.2403 27.387 12.155 27.7743 12.155C28.1513 12.155 28.4792 12.2403 28.758 12.4107C29.0369 12.5759 29.2537 12.7979 29.4086 13.0768C29.5636 13.3556 29.641 13.6629 29.641 13.9985C29.641 14.0502 29.6384 14.107 29.6333 14.1689C29.6333 14.2257 29.6307 14.2903 29.6255 14.3626H26.6357C26.6615 14.7344 26.7829 15.0184 26.9997 15.2146C27.2218 15.4056 27.4774 15.5012 27.7666 15.5012C27.9989 15.5012 28.1926 15.4495 28.3475 15.3463C28.5076 15.2378 28.6263 15.0932 28.7038 14.9125H29.5248C29.4216 15.274 29.215 15.576 28.9052 15.8187C28.6005 16.0614 28.221 16.1828 27.7666 16.1828ZM27.7666 12.8289C27.4929 12.8289 27.2502 12.9115 27.0385 13.0768C26.8268 13.2369 26.6977 13.4796 26.6512 13.8049H28.82C28.8045 13.5054 28.6986 13.2678 28.5024 13.0923C28.3062 12.9167 28.0609 12.8289 27.7666 12.8289ZM30.4929 16.0898V12.248H31.221L31.283 12.9219C31.4017 12.6843 31.5747 12.4984 31.8019 12.3642C32.0343 12.2248 32.3002 12.155 32.5997 12.155C33.0645 12.155 33.4285 12.2996 33.6919 12.5888C33.9604 12.878 34.0946 13.3092 34.0946 13.8823V16.0898H33.2814V13.9675C33.2814 13.224 32.9767 12.8522 32.3674 12.8522C32.0627 12.8522 31.8097 12.9606 31.6083 13.1775C31.4121 13.3944 31.314 13.7042 31.314 14.107V16.0898H30.4929ZM36.6727 16.0898C36.2958 16.0898 35.9963 15.9995 35.7742 15.8187C35.5522 15.6328 35.4412 15.305 35.4412 14.835V12.9374H34.7828V12.248H35.4412L35.5419 11.272H36.2622V12.248H37.3466V12.9374H36.2622V14.835C36.2622 15.0468 36.3061 15.1939 36.3939 15.2765C36.4868 15.354 36.6443 15.3927 36.8664 15.3927H37.3079V16.0898H36.6727ZM39.8918 16.1828C39.5149 16.1828 39.1792 16.1002 38.8849 15.9349C38.5957 15.7645 38.3685 15.5296 38.2033 15.2301C38.0381 14.9306 37.9554 14.582 37.9554 14.1844C37.9554 13.7816 38.0355 13.4279 38.1955 13.1233C38.3608 12.8186 38.588 12.5811 38.8772 12.4107C39.1715 12.2403 39.5123 12.155 39.8996 12.155C40.2766 12.155 40.6044 12.2403 40.8833 12.4107C41.1621 12.5759 41.379 12.7979 41.5339 13.0768C41.6888 13.3556 41.7663 13.6629 41.7663 13.9985C41.7663 14.0502 41.7637 14.107 41.7586 14.1689C41.7586 14.2257 41.756 14.2903 41.7508 14.3626H38.761C38.7868 14.7344 38.9082 15.0184 39.125 15.2146C39.3471 15.4056 39.6027 15.5012 39.8918 15.5012C40.1242 15.5012 40.3179 15.4495 40.4728 15.3463C40.6329 15.2378 40.7516 15.0932 40.8291 14.9125H41.6501C41.5468 15.274 41.3403 15.576 41.0305 15.8187C40.7258 16.0614 40.3463 16.1828 39.8918 16.1828ZM39.8918 12.8289C39.6182 12.8289 39.3755 12.9115 39.1638 13.0768C38.952 13.2369 38.8229 13.4796 38.7765 13.8049H40.9453C40.9298 13.5054 40.8239 13.2678 40.6277 13.0923C40.4315 12.9167 40.1862 12.8289 39.8918 12.8289ZM42.6182 16.0898V12.248H43.354L43.4237 12.9761C43.558 12.7231 43.7439 12.5243 43.9814 12.3797C44.2241 12.2299 44.5159 12.155 44.8567 12.155V13.0148H44.6321C44.4049 13.0148 44.2009 13.0535 44.0202 13.131C43.8446 13.2033 43.7026 13.3298 43.5942 13.5105C43.4909 13.6861 43.4392 13.9314 43.4392 14.2464V16.0898H42.6182ZM47.5122 16.0898V12.248H48.248L48.3177 12.9761C48.452 12.7231 48.6379 12.5243 48.8754 12.3797C49.1181 12.2299 49.4099 12.155 49.7507 12.155V13.0148H49.5261C49.2988 13.0148 49.0949 13.0535 48.9141 13.131C48.7386 13.2033 48.5966 13.3298 48.4881 13.5105C48.3849 13.6861 48.3332 13.9314 48.3332 14.2464V16.0898H47.5122ZM50.9194 11.5199C50.7645 11.5199 50.6354 11.4734 50.5321 11.3805C50.434 11.2824 50.3849 11.161 50.3849 11.0164C50.3849 10.8719 50.434 10.7531 50.5321 10.6601C50.6354 10.562 50.7645 10.513 50.9194 10.513C51.0743 10.513 51.2008 10.562 51.2989 10.6601C51.4022 10.7531 51.4538 10.8719 51.4538 11.0164C51.4538 11.161 51.4022 11.2824 51.2989 11.3805C51.2008 11.4734 51.0743 11.5199 50.9194 11.5199ZM50.5088 16.0898V12.248H51.3299V16.0898H50.5088ZM53.9474 16.1828C53.462 16.1828 53.0618 16.064 52.7468 15.8265C52.4318 15.589 52.2511 15.274 52.2046 14.8815H53.0334C53.0747 15.0571 53.1728 15.2094 53.3277 15.3385C53.4826 15.4624 53.6866 15.5244 53.9396 15.5244C54.1875 15.5244 54.3682 15.4728 54.4818 15.3695C54.5954 15.2662 54.6522 15.1475 54.6522 15.0132C54.6522 14.817 54.5722 14.6853 54.4121 14.6182C54.2572 14.5459 54.0403 14.4813 53.7615 14.4245C53.5446 14.3781 53.3277 14.3161 53.1108 14.2386C52.8991 14.1612 52.721 14.0527 52.5764 13.9133C52.437 13.7687 52.3673 13.5751 52.3673 13.3324C52.3673 12.9967 52.4964 12.7179 52.7545 12.4959C53.0127 12.2687 53.3742 12.155 53.8389 12.155C54.2675 12.155 54.6135 12.2583 54.8769 12.4649C55.1454 12.6714 55.3029 12.9632 55.3493 13.3401H54.5593C54.5335 13.1749 54.456 13.0458 54.3269 12.9529C54.203 12.8599 54.0352 12.8134 53.8234 12.8134C53.6169 12.8134 53.4568 12.8573 53.3432 12.9451C53.2296 13.0277 53.1728 13.1362 53.1728 13.2704C53.1728 13.4047 53.2503 13.5105 53.4052 13.588C53.5653 13.6655 53.7744 13.7352 54.0326 13.7971C54.2908 13.8539 54.5283 13.9211 54.7452 13.9985C54.9672 14.0708 55.1454 14.1792 55.2796 14.3238C55.4139 14.4684 55.481 14.6801 55.481 14.959C55.4862 15.3101 55.3493 15.6019 55.0705 15.8342C54.7968 16.0666 54.4224 16.1828 53.9474 16.1828ZM56.3773 16.0898V10.513H57.1984V13.8359L58.67 12.248H59.6537L58.0194 13.9908L59.8939 16.0898H58.8559L57.1984 14.1224V16.0898H56.3773ZM64.0152 16.1828C63.5298 16.1828 63.1296 16.064 62.8146 15.8265C62.4996 15.589 62.3189 15.274 62.2724 14.8815H63.1012C63.1425 15.0571 63.2406 15.2094 63.3956 15.3385C63.5505 15.4624 63.7544 15.5244 64.0075 15.5244C64.2553 15.5244 64.4361 15.4728 64.5497 15.3695C64.6633 15.2662 64.7201 15.1475 64.7201 15.0132C64.7201 14.817 64.64 14.6853 64.48 14.6182C64.325 14.5459 64.1082 14.4813 63.8293 14.4245C63.6124 14.3781 63.3956 14.3161 63.1787 14.2386C62.967 14.1612 62.7888 14.0527 62.6442 13.9133C62.5048 13.7687 62.4351 13.5751 62.4351 13.3324C62.4351 12.9967 62.5642 12.7179 62.8224 12.4959C63.0806 12.2687 63.442 12.155 63.9068 12.155C64.3354 12.155 64.6813 12.2583 64.9447 12.4649C65.2132 12.6714 65.3707 12.9632 65.4172 13.3401H64.6271C64.6013 13.1749 64.5238 13.0458 64.3948 12.9529C64.2708 12.8599 64.103 12.8134 63.8913 12.8134C63.6847 12.8134 63.5247 12.8573 63.4111 12.9451C63.2975 13.0277 63.2406 13.1362 63.2406 13.2704C63.2406 13.4047 63.3181 13.5105 63.473 13.588C63.6331 13.6655 63.8422 13.7352 64.1004 13.7971C64.3586 13.8539 64.5961 13.9211 64.813 13.9985C65.0351 14.0708 65.2132 14.1792 65.3475 14.3238C65.4817 14.4684 65.5489 14.6801 65.5489 14.959C65.554 15.3101 65.4172 15.6019 65.1383 15.8342C64.8647 16.0666 64.4903 16.1828 64.0152 16.1828ZM68.2654 16.1828C67.8884 16.1828 67.5502 16.0976 67.2507 15.9272C66.9564 15.7568 66.724 15.5218 66.5536 15.2223C66.3884 14.9177 66.3058 14.5665 66.3058 14.1689C66.3058 13.7713 66.3884 13.4228 66.5536 13.1233C66.724 12.8186 66.9564 12.5811 67.2507 12.4107C67.5502 12.2403 67.8884 12.155 68.2654 12.155C68.7405 12.155 69.1381 12.279 69.4582 12.5268C69.7836 12.7747 69.9927 13.1103 70.0856 13.5338H69.2259C69.1742 13.3221 69.0606 13.1568 68.8851 13.0381C68.7095 12.9193 68.5029 12.8599 68.2654 12.8599C68.064 12.8599 67.8781 12.9115 67.7077 13.0148C67.5373 13.1129 67.4005 13.2601 67.2972 13.4563C67.1939 13.6474 67.1423 13.8849 67.1423 14.1689C67.1423 14.4529 67.1939 14.693 67.2972 14.8893C67.4005 15.0803 67.5373 15.2275 67.7077 15.3308C67.8781 15.434 68.064 15.4857 68.2654 15.4857C68.5029 15.4857 68.7095 15.4263 68.8851 15.3075C69.0606 15.1888 69.1742 15.0209 69.2259 14.8041H70.0856C69.9979 15.2172 69.7913 15.5502 69.466 15.8033C69.1407 16.0563 68.7405 16.1828 68.2654 16.1828ZM72.7731 16.1828C72.4064 16.1828 72.076 16.1002 71.7816 15.9349C71.4925 15.7645 71.2627 15.5296 71.0923 15.2301C70.9219 14.9254 70.8367 14.5717 70.8367 14.1689C70.8367 13.7661 70.9219 13.415 71.0923 13.1155C71.2678 12.8108 71.5028 12.5759 71.7971 12.4107C72.0915 12.2403 72.4194 12.155 72.7808 12.155C73.1474 12.155 73.4753 12.2403 73.7645 12.4107C74.0589 12.5759 74.2912 12.8108 74.4616 13.1155C74.6372 13.415 74.725 13.7661 74.725 14.1689C74.725 14.5717 74.6372 14.9254 74.4616 15.2301C74.2912 15.5296 74.0589 15.7645 73.7645 15.9349C73.4702 16.1002 73.1397 16.1828 72.7731 16.1828ZM72.7731 15.4779C72.9693 15.4779 73.15 15.4289 73.3153 15.3308C73.4857 15.2327 73.6225 15.0881 73.7258 14.897C73.8291 14.7008 73.8807 14.4581 73.8807 14.1689C73.8807 13.8797 73.8291 13.6396 73.7258 13.4486C73.6277 13.2524 73.4934 13.1052 73.323 13.0071C73.1578 12.909 72.977 12.8599 72.7808 12.8599C72.5846 12.8599 72.4013 12.909 72.2309 13.0071C72.0656 13.1052 71.9314 13.2524 71.8281 13.4486C71.7248 13.6396 71.6732 13.8797 71.6732 14.1689C71.6732 14.4581 71.7248 14.7008 71.8281 14.897C71.9314 15.0881 72.0656 15.2327 72.2309 15.3308C72.3961 15.4289 72.5769 15.4779 72.7731 15.4779ZM75.6129 16.0898V12.248H76.3487L76.4184 12.9761C76.5527 12.7231 76.7386 12.5243 76.9761 12.3797C77.2188 12.2299 77.5106 12.155 77.8514 12.155V13.0148H77.6268C77.3996 13.0148 77.1956 13.0535 77.0149 13.131C76.8393 13.2033 76.6973 13.3298 76.5888 13.5105C76.4856 13.6861 76.4339 13.9314 76.4339 14.2464V16.0898H75.6129ZM80.2464 16.1828C79.8695 16.1828 79.5338 16.1002 79.2395 15.9349C78.9503 15.7645 78.7231 15.5296 78.5579 15.2301C78.3926 14.9306 78.31 14.582 78.31 14.1844C78.31 13.7816 78.39 13.4279 78.5501 13.1233C78.7154 12.8186 78.9426 12.5811 79.2317 12.4107C79.5261 12.2403 79.8669 12.155 80.2542 12.155C80.6311 12.155 80.959 12.2403 81.2379 12.4107C81.5167 12.5759 81.7336 12.7979 81.8885 13.0768C82.0434 13.3556 82.1209 13.6629 82.1209 13.9985C82.1209 14.0502 82.1183 14.107 82.1131 14.1689C82.1131 14.2257 82.1105 14.2903 82.1054 14.3626H79.1156C79.1414 14.7344 79.2627 15.0184 79.4796 15.2146C79.7016 15.4056 79.9573 15.5012 80.2464 15.5012C80.4788 15.5012 80.6724 15.4495 80.8273 15.3463C80.9874 15.2378 81.1062 15.0932 81.1836 14.9125H82.0047C81.9014 15.274 81.6949 15.576 81.385 15.8187C81.0804 16.0614 80.7008 16.1828 80.2464 16.1828ZM80.2464 12.8289C79.9727 12.8289 79.73 12.9115 79.5183 13.0768C79.3066 13.2369 79.1775 13.4796 79.1311 13.8049H81.2998C81.2843 13.5054 81.1785 13.2678 80.9823 13.0923C80.786 12.9167 80.5408 12.8289 80.2464 12.8289Z" fill="black"/>
<path d="M11.3819 41.3518V40.0072C11.9988 39.4963 12.5964 38.9902 13.1748 38.489C13.7628 37.9878 14.2833 37.4914 14.7363 36.9998C15.199 36.5082 15.5653 36.0311 15.8352 35.5684C16.1147 35.0961 16.2545 34.6382 16.2545 34.1948C16.2545 33.7803 16.1388 33.4141 15.9074 33.096C15.6858 32.7779 15.3146 32.6188 14.7941 32.6188C14.264 32.6188 13.864 32.7923 13.5941 33.1393C13.3242 33.4863 13.1892 33.9056 13.1892 34.3972H11.3964C11.4157 33.655 11.5795 33.0381 11.888 32.5465C12.1964 32.0453 12.6061 31.6742 13.1169 31.4332C13.6278 31.1826 14.2013 31.0573 14.8375 31.0573C15.8689 31.0573 16.6689 31.3417 17.2376 31.9104C17.816 32.4694 18.1051 33.1972 18.1051 34.0936C18.1051 34.6527 17.975 35.1973 17.7148 35.7274C17.4642 36.2576 17.1316 36.7684 16.7171 37.26C16.3026 37.7516 15.8544 38.2143 15.3725 38.6481C14.8905 39.0722 14.423 39.4674 13.97 39.8337H18.3509V41.3518H11.3819ZM24.3874 41.3518V39.4722H19.3992V37.9974L24.1416 31.2308H26.2381V37.8673H27.5683V39.4722H26.2381V41.3518H24.3874ZM21.38 37.8673H24.5031V33.2695L21.38 37.8673ZM33.1728 41.5253C32.2378 41.5253 31.4378 41.3084 30.7727 40.8747C30.1076 40.4313 29.5919 39.8192 29.2256 39.0384C28.8689 38.248 28.6906 37.3323 28.6906 36.2913C28.6906 35.2599 28.8689 34.349 29.2256 33.5586C29.5919 32.7682 30.1076 32.1562 30.7727 31.7224C31.4378 31.279 32.2378 31.0573 33.1728 31.0573C34.1078 31.0573 34.9078 31.279 35.5729 31.7224C36.238 32.1562 36.7489 32.7682 37.1055 33.5586C37.4718 34.349 37.6549 35.2599 37.6549 36.2913C37.6549 37.3323 37.4718 38.248 37.1055 39.0384C36.7489 39.8192 36.238 40.4313 35.5729 40.8747C34.9078 41.3084 34.1078 41.5253 33.1728 41.5253ZM33.1728 39.8626C33.9343 39.8626 34.556 39.5445 35.0379 38.9083C35.5199 38.2721 35.7609 37.3998 35.7609 36.2913C35.7609 35.1828 35.5199 34.3105 35.0379 33.6743C34.556 33.0381 33.9343 32.72 33.1728 32.72C32.4017 32.72 31.7751 33.0381 31.2932 33.6743C30.8209 34.3105 30.5847 35.1828 30.5847 36.2913C30.5847 37.3998 30.8209 38.2721 31.2932 38.9083C31.7751 39.5445 32.4017 39.8626 33.1728 39.8626Z" fill="black"/>
<rect x="164.524" y="6.56567" width="21.262" height="13.131" rx="6.56551" fill="#FFF2F0"/>
<path d="M169.339 14.6311V9.93207H170.05V14.0672H172.185V14.6311H169.339ZM174.337 14.7117C174.019 14.7117 173.733 14.6401 173.478 14.4968C173.227 14.3492 173.028 14.1455 172.88 13.886C172.733 13.6219 172.659 13.3154 172.659 12.9663C172.659 12.6172 172.733 12.3129 172.88 12.0533C173.032 11.7893 173.236 11.5857 173.491 11.4425C173.746 11.2948 174.03 11.2209 174.344 11.2209C174.661 11.2209 174.946 11.2948 175.196 11.4425C175.451 11.5857 175.653 11.7893 175.8 12.0533C175.953 12.3129 176.029 12.6172 176.029 12.9663C176.029 13.3154 175.953 13.6219 175.8 13.886C175.653 14.1455 175.451 14.3492 175.196 14.4968C174.941 14.6401 174.655 14.7117 174.337 14.7117ZM174.337 14.1008C174.507 14.1008 174.664 14.0583 174.807 13.9732C174.955 13.8882 175.073 13.7629 175.163 13.5973C175.252 13.4273 175.297 13.2169 175.297 12.9663C175.297 12.7157 175.252 12.5076 175.163 12.342C175.078 12.1719 174.961 12.0444 174.814 11.9594C174.67 11.8743 174.514 11.8318 174.344 11.8318C174.174 11.8318 174.015 11.8743 173.867 11.9594C173.724 12.0444 173.608 12.1719 173.518 12.342C173.429 12.5076 173.384 12.7157 173.384 12.9663C173.384 13.2169 173.429 13.4273 173.518 13.5973C173.608 13.7629 173.724 13.8882 173.867 13.9732C174.01 14.0583 174.167 14.1008 174.337 14.1008ZM177.338 14.6311L176.358 11.3015H177.07L177.714 13.8121L178.439 11.3015H179.231L179.956 13.8121L180.601 11.3015H181.312L180.332 14.6311H179.6L178.835 12.0131L178.07 14.6311H177.338Z" fill="#991008"/>
<defs>
<clipPath id="clip0_194_31521">
<rect width="8.26204" height="8.26204" fill="white" transform="translate(8.5791 9.45874)"/>
</clipPath>
</defs>
</svg>
