<svg width="281" height="31" viewBox="0 0 281 31" fill="none" xmlns="http://www.w3.org/2000/svg">
<g clip-path="url(#clip0_194_31504)">
<rect x="0.703125" y="0.67041" width="279.808" height="29.919" rx="6" fill="white"/>
<g clip-path="url(#clip1_194_31504)">
<path d="M14.5883 18.6299L17.0444 11.9661H17.8917L20.3382 18.6299H19.491L18.8817 16.9163H16.0448L15.4261 18.6299H14.5883ZM16.2828 16.269H18.6437L17.4633 12.9752L16.2828 16.269ZM21.2813 18.6299V11.7757H22.0809V18.6299H21.2813ZM25.9143 18.7441C25.5272 18.7441 25.1813 18.6648 24.8766 18.5061C24.5784 18.3475 24.3499 18.1253 24.1912 17.8397L24.1151 18.6299H23.3916V11.7757H24.1912V14.6887C24.3435 14.4603 24.5593 14.254 24.8386 14.07C25.1242 13.8859 25.4859 13.7939 25.9238 13.7939C26.3934 13.7939 26.8028 13.9018 27.1518 14.1176C27.5009 14.3333 27.7706 14.6284 27.961 15.0029C28.1578 15.3773 28.2561 15.8025 28.2561 16.2785C28.2561 16.7545 28.1578 17.1797 27.961 17.5542C27.7706 17.9223 27.4977 18.2142 27.1423 18.43C26.7933 18.6394 26.3839 18.7441 25.9143 18.7441ZM25.8286 18.0492C26.1459 18.0492 26.4252 17.9762 26.6663 17.8302C26.9075 17.6779 27.0979 17.4685 27.2375 17.2019C27.3771 16.9354 27.447 16.6244 27.447 16.269C27.447 15.9136 27.3771 15.6026 27.2375 15.3361C27.0979 15.0695 26.9075 14.8633 26.6663 14.7173C26.4252 14.565 26.1459 14.4888 25.8286 14.4888C25.5113 14.4888 25.232 14.565 24.9909 14.7173C24.7497 14.8633 24.5593 15.0695 24.4197 15.3361C24.2801 15.6026 24.2103 15.9136 24.2103 16.269C24.2103 16.6244 24.2801 16.9354 24.4197 17.2019C24.5593 17.4685 24.7497 17.6779 24.9909 17.8302C25.232 17.9762 25.5113 18.0492 25.8286 18.0492ZM31.4922 18.7441C31.0416 18.7441 30.6417 18.6426 30.2927 18.4395C29.9436 18.2301 29.6675 17.9413 29.4645 17.5732C29.2677 17.2051 29.1693 16.7704 29.1693 16.269C29.1693 15.774 29.2677 15.3424 29.4645 14.9743C29.6612 14.5999 29.9341 14.3111 30.2832 14.108C30.6386 13.8986 31.0479 13.7939 31.5112 13.7939C31.9681 13.7939 32.3616 13.8986 32.6916 14.108C33.028 14.3111 33.285 14.5808 33.4627 14.9172C33.6404 15.2536 33.7293 15.6153 33.7293 16.0025C33.7293 16.0723 33.7261 16.1421 33.7198 16.2119C33.7198 16.2817 33.7198 16.361 33.7198 16.4499H29.9595C29.9785 16.8116 30.061 17.1131 30.207 17.3542C30.3593 17.5891 30.5465 17.7668 30.7687 17.8873C30.9971 18.0079 31.2383 18.0682 31.4922 18.0682C31.8222 18.0682 32.0982 17.9921 32.3204 17.8397C32.5425 17.6874 32.7043 17.4812 32.8059 17.221H33.596C33.4691 17.6589 33.2247 18.0238 32.863 18.3157C32.5076 18.6013 32.0506 18.7441 31.4922 18.7441ZM31.4922 14.4698C31.1114 14.4698 30.7718 14.5872 30.4735 14.822C30.1816 15.0505 30.0134 15.3868 29.969 15.8311H32.9391C32.9201 15.4059 32.7741 15.0727 32.5012 14.8315C32.2283 14.5904 31.892 14.4698 31.4922 14.4698ZM34.7892 18.6299V13.9081H35.5127L35.5793 14.8125C35.7253 14.5015 35.9474 14.254 36.2457 14.07C36.544 13.8859 36.912 13.7939 37.35 13.7939V14.6316H37.131C36.8518 14.6316 36.5947 14.6824 36.3599 14.7839C36.1251 14.8791 35.9379 15.0441 35.7982 15.279C35.6586 15.5138 35.5888 15.8374 35.5888 16.25V18.6299H34.7892ZM40.1133 18.6299C39.6818 18.6299 39.3422 18.5252 39.0947 18.3157C38.8472 18.1063 38.7235 17.7287 38.7235 17.1829V14.584H37.9048V13.9081H38.7235L38.8282 12.7753H39.5231V13.9081H40.913V14.584H39.5231V17.1829C39.5231 17.4812 39.5834 17.6843 39.704 17.7922C39.8246 17.8937 40.0372 17.9445 40.3418 17.9445H40.8368V18.6299H40.1133ZM44.4959 18.6299V11.9661H48.5513V12.623H45.2955V14.9648L48.0658 14.9648V15.6121H45.2955V18.6299H44.4959ZM49.2425 18.6775C49.0838 18.6775 48.9505 18.6267 48.8427 18.5252C48.7411 18.4173 48.6903 18.2872 48.6903 18.1349C48.6903 17.9825 48.7411 17.8556 48.8427 17.7541C48.9505 17.6462 49.0838 17.5922 49.2425 17.5922C49.3948 17.5922 49.5217 17.6462 49.6233 17.7541C49.7312 17.8556 49.7851 17.9825 49.7851 18.1349C49.7851 18.2872 49.7312 18.4173 49.6233 18.5252C49.5217 18.6267 49.3948 18.6775 49.2425 18.6775Z" fill="black"/>
</g>
<g clip-path="url(#clip2_194_31504)">
<rect x="101.104" y="7.40991" width="35.8796" height="16.4398" rx="8.21991" fill="#FFF2F0"/>
<path d="M107.383 18.1299V11.9421H111.264V12.7023H108.32V14.6559H110.76V15.4073H108.32V18.1299H107.383ZM113.296 18.236C112.925 18.236 112.618 18.1741 112.377 18.0503C112.135 17.9266 111.955 17.7645 111.837 17.5641C111.719 17.3579 111.661 17.1339 111.661 16.8923C111.661 16.468 111.826 16.1321 112.156 15.8846C112.486 15.6371 112.957 15.5133 113.57 15.5133H114.719V15.4338C114.719 15.092 114.625 14.8356 114.436 14.6647C114.254 14.4938 114.015 14.4084 113.72 14.4084C113.461 14.4084 113.234 14.4732 113.04 14.6028C112.851 14.7266 112.736 14.9122 112.695 15.1597H111.758C111.787 14.8415 111.893 14.5704 112.076 14.3465C112.265 14.1167 112.5 13.9428 112.783 13.8249C113.072 13.7012 113.387 13.6393 113.729 13.6393C114.342 13.6393 114.816 13.8014 115.152 14.1255C115.488 14.4437 115.656 14.8798 115.656 15.4338V18.1299H114.843L114.763 17.3785C114.64 17.6201 114.46 17.8234 114.224 17.9884C113.988 18.1535 113.679 18.236 113.296 18.236ZM113.482 17.4757C113.735 17.4757 113.947 17.4168 114.118 17.299C114.295 17.1752 114.43 17.0131 114.525 16.8128C114.625 16.6124 114.687 16.3914 114.71 16.1498H113.667C113.296 16.1498 113.031 16.2146 112.872 16.3443C112.718 16.4739 112.642 16.636 112.642 16.8304C112.642 17.0308 112.715 17.1899 112.863 17.3078C113.016 17.4198 113.222 17.4757 113.482 17.4757ZM117.279 12.9145C117.102 12.9145 116.955 12.8614 116.837 12.7553C116.725 12.6434 116.669 12.5049 116.669 12.3399C116.669 12.1749 116.725 12.0393 116.837 11.9333C116.955 11.8213 117.102 11.7653 117.279 11.7653C117.456 11.7653 117.6 11.8213 117.712 11.9333C117.83 12.0393 117.889 12.1749 117.889 12.3399C117.889 12.5049 117.83 12.6434 117.712 12.7553C117.6 12.8614 117.456 12.9145 117.279 12.9145ZM116.811 18.1299V13.7454H117.748V18.1299H116.811ZM118.984 18.1299V11.7653H119.921V18.1299H118.984ZM123.159 18.236C122.729 18.236 122.346 18.1417 122.01 17.9531C121.68 17.7586 121.42 17.4905 121.232 17.1487C121.043 16.8069 120.949 16.4091 120.949 15.9553C120.949 15.4957 121.04 15.092 121.223 14.7443C121.412 14.3966 121.671 14.1255 122.001 13.931C122.337 13.7365 122.726 13.6393 123.168 13.6393C123.598 13.6393 123.972 13.7365 124.29 13.931C124.609 14.1196 124.856 14.373 125.033 14.6912C125.21 15.0095 125.298 15.3601 125.298 15.7432C125.298 15.8021 125.295 15.8669 125.289 15.9376C125.289 16.0025 125.286 16.0761 125.28 16.1586H121.868C121.898 16.5829 122.036 16.9071 122.284 17.131C122.537 17.349 122.829 17.4581 123.159 17.4581C123.424 17.4581 123.645 17.3991 123.822 17.2813C124.005 17.1575 124.14 16.9925 124.228 16.7862H125.165C125.048 17.1988 124.812 17.5435 124.458 17.8205C124.111 18.0975 123.677 18.236 123.159 18.236ZM123.159 14.4084C122.847 14.4084 122.57 14.5027 122.328 14.6912C122.086 14.8739 121.939 15.1509 121.886 15.5222H124.361C124.343 15.1804 124.223 14.9093 123.999 14.7089C123.775 14.5086 123.495 14.4084 123.159 14.4084ZM128.268 18.236C127.844 18.236 127.47 18.1358 127.145 17.9354C126.821 17.735 126.568 17.461 126.385 17.1133C126.203 16.7656 126.111 16.3708 126.111 15.9288C126.111 15.4868 126.203 15.0949 126.385 14.7531C126.568 14.4054 126.821 14.1343 127.145 13.9399C127.475 13.7395 127.853 13.6393 128.277 13.6393C128.625 13.6393 128.928 13.7071 129.187 13.8426C129.453 13.9782 129.659 14.1697 129.806 14.4172V11.7653H130.743V18.1299H129.903L129.806 17.4492C129.665 17.6555 129.47 17.8382 129.223 17.9973C128.975 18.1564 128.657 18.236 128.268 18.236ZM128.436 17.4227C128.837 17.4227 129.164 17.2842 129.417 17.0072C129.677 16.7303 129.806 16.3737 129.806 15.9376C129.806 15.4957 129.677 15.1391 129.417 14.868C129.164 14.5911 128.837 14.4526 128.436 14.4526C128.035 14.4526 127.705 14.5911 127.446 14.868C127.187 15.1391 127.057 15.4957 127.057 15.9376C127.057 16.2264 127.116 16.4828 127.234 16.7067C127.352 16.9306 127.514 17.1074 127.72 17.2371C127.932 17.3608 128.171 17.4227 128.436 17.4227Z" fill="#991008"/>
</g>
<g clip-path="url(#clip3_194_31504)">
<path d="M194.465 18.9443C193.875 18.9443 193.364 18.8015 192.933 18.5159C192.508 18.224 192.181 17.821 191.952 17.3069C191.724 16.7865 191.61 16.1836 191.61 15.4982C191.61 14.8128 191.724 14.213 191.952 13.699C192.181 13.1786 192.508 12.7756 192.933 12.49C193.364 12.198 193.875 12.0521 194.465 12.0521C195.056 12.0521 195.563 12.198 195.989 12.49C196.414 12.7756 196.741 13.1786 196.969 13.699C197.198 14.213 197.312 14.8128 197.312 15.4982C197.312 16.1836 197.198 16.7865 196.969 17.3069C196.741 17.821 196.414 18.224 195.989 18.5159C195.563 18.8015 195.056 18.9443 194.465 18.9443ZM194.465 18.2399C194.853 18.2399 195.198 18.132 195.503 17.9162C195.814 17.6941 196.055 17.3799 196.227 16.9737C196.404 16.5612 196.493 16.0694 196.493 15.4982C196.493 14.927 196.404 14.4383 196.227 14.0322C196.055 13.626 195.814 13.315 195.503 13.0992C195.198 12.8771 194.853 12.766 194.465 12.766C194.072 12.766 193.723 12.8771 193.418 13.0992C193.114 13.315 192.872 13.626 192.695 14.0322C192.517 14.4383 192.428 14.927 192.428 15.4982C192.428 16.0694 192.517 16.5612 192.695 16.9737C192.872 17.3799 193.114 17.6941 193.418 17.9162C193.723 18.132 194.072 18.2399 194.465 18.2399ZM200.733 18.9443C200.276 18.9443 199.879 18.8618 199.543 18.6968C199.206 18.5318 198.937 18.3065 198.734 18.0209C198.537 17.729 198.416 17.399 198.372 17.0309H199.153C199.229 17.399 199.406 17.6972 199.686 17.9257C199.965 18.1478 200.317 18.2589 200.742 18.2589C201.06 18.2589 201.333 18.1859 201.561 18.0399C201.789 17.8876 201.964 17.6845 202.085 17.4307C202.212 17.1768 202.275 16.8944 202.275 16.5834C202.275 16.0884 202.135 15.6886 201.856 15.384C201.577 15.0793 201.215 14.927 200.771 14.927C200.403 14.927 200.089 15.0095 199.828 15.1745C199.568 15.3395 199.378 15.5553 199.257 15.8219H198.496L199.067 12.1663H202.561V12.8612H199.686L199.295 14.8889C199.448 14.7049 199.657 14.5526 199.924 14.432C200.197 14.3114 200.508 14.2511 200.857 14.2511C201.294 14.2511 201.675 14.3527 201.999 14.5557C202.329 14.7588 202.586 15.0349 202.77 15.384C202.954 15.733 203.046 16.1297 203.046 16.5739C203.046 16.9991 202.954 17.3926 202.77 17.7544C202.592 18.1161 202.329 18.4049 201.98 18.6206C201.637 18.8364 201.221 18.9443 200.733 18.9443ZM203.57 19.7344L205.959 11.557H206.75L204.36 19.7344H203.57ZM210.139 18.9443C209.549 18.9443 209.038 18.8015 208.607 18.5159C208.182 18.224 207.855 17.821 207.626 17.3069C207.398 16.7865 207.284 16.1836 207.284 15.4982C207.284 14.8128 207.398 14.213 207.626 13.699C207.855 13.1786 208.182 12.7756 208.607 12.49C209.038 12.198 209.549 12.0521 210.139 12.0521C210.73 12.0521 211.237 12.198 211.663 12.49C212.088 12.7756 212.415 13.1786 212.643 13.699C212.872 14.213 212.986 14.8128 212.986 15.4982C212.986 16.1836 212.872 16.7865 212.643 17.3069C212.415 17.821 212.088 18.224 211.663 18.5159C211.237 18.8015 210.73 18.9443 210.139 18.9443ZM210.139 18.2399C210.527 18.2399 210.872 18.132 211.177 17.9162C211.488 17.6941 211.729 17.3799 211.901 16.9737C212.078 16.5612 212.167 16.0694 212.167 15.4982C212.167 14.927 212.078 14.4383 211.901 14.0322C211.729 13.626 211.488 13.315 211.177 13.0992C210.872 12.8771 210.527 12.766 210.139 12.766C209.746 12.766 209.397 12.8771 209.092 13.0992C208.788 13.315 208.546 13.626 208.369 14.0322C208.191 14.4383 208.102 14.927 208.102 15.4982C208.102 16.0694 208.191 16.5612 208.369 16.9737C208.546 17.3799 208.788 17.6941 209.092 17.9162C209.397 18.132 209.746 18.2399 210.139 18.2399ZM214.798 18.8301V13.0612L213.722 13.2991V12.747L215.065 12.1663H215.607V18.8301H214.798ZM216.576 19.7344L218.965 11.557H219.755L217.366 19.7344L216.576 19.7344ZM220.628 18.8301V18.2684C221.078 17.913 221.503 17.5544 221.903 17.1927C222.309 16.8246 222.668 16.4629 222.979 16.1074C223.296 15.752 223.544 15.403 223.722 15.0603C223.906 14.7176 223.998 14.3876 223.998 14.0702C223.998 13.8354 223.956 13.6165 223.874 13.4134C223.798 13.2103 223.671 13.0485 223.493 12.9279C223.315 12.8009 223.074 12.7375 222.77 12.7375C222.478 12.7375 222.233 12.8041 222.037 12.9374C221.84 13.0643 221.691 13.2357 221.589 13.4515C221.494 13.6672 221.446 13.8989 221.446 14.1464H220.675C220.675 13.7085 220.767 13.334 220.951 13.0231C221.135 12.7058 221.386 12.4646 221.703 12.2996C222.021 12.1346 222.379 12.0521 222.779 12.0521C223.369 12.0521 223.852 12.2202 224.226 12.5566C224.607 12.8866 224.797 13.3816 224.797 14.0417C224.797 14.4352 224.699 14.8255 224.502 15.2126C224.305 15.5934 224.055 15.9647 223.75 16.3264C223.445 16.6818 223.119 17.015 222.77 17.326C222.427 17.6369 222.106 17.9162 221.808 18.1637H225.026V18.8301H220.628ZM226.075 18.8301V18.2684C226.526 17.913 226.951 17.5544 227.351 17.1927C227.757 16.8246 228.116 16.4629 228.427 16.1074C228.744 15.752 228.992 15.403 229.169 15.0603C229.353 14.7176 229.445 14.3876 229.445 14.0702C229.445 13.8354 229.404 13.6165 229.322 13.4134C229.246 13.2103 229.119 13.0485 228.941 12.9279C228.763 12.8009 228.522 12.7375 228.217 12.7375C227.925 12.7375 227.681 12.8041 227.484 12.9374C227.288 13.0643 227.138 13.2357 227.037 13.4515C226.942 13.6672 226.894 13.8989 226.894 14.1464H226.123C226.123 13.7085 226.215 13.334 226.399 13.0231C226.583 12.7058 226.834 12.4646 227.151 12.2996C227.469 12.1346 227.827 12.0521 228.227 12.0521C228.817 12.0521 229.299 12.2202 229.674 12.5566C230.055 12.8866 230.245 13.3816 230.245 14.0417C230.245 14.4352 230.147 14.8255 229.95 15.2126C229.753 15.5934 229.503 15.9647 229.198 16.3264C228.893 16.6818 228.566 17.015 228.217 17.326C227.875 17.6369 227.554 17.9162 227.256 18.1637H230.474V18.8301H226.075ZM230.943 19.9629L231.495 17.8591H232.323L231.495 19.9629H230.943ZM237.915 18.9443C237.489 18.9443 237.105 18.8682 236.763 18.7158C236.42 18.5572 236.144 18.3224 235.935 18.0114C235.731 17.7004 235.624 17.3133 235.611 16.85H236.42C236.426 17.2308 236.56 17.5608 236.82 17.84C237.08 18.1129 237.445 18.2494 237.915 18.2494C238.384 18.2494 238.736 18.1193 238.971 17.8591C239.212 17.5989 239.333 17.2847 239.333 16.9166C239.333 16.6056 239.257 16.3518 239.105 16.155C238.959 15.9583 238.759 15.8123 238.505 15.7171C238.257 15.6219 237.984 15.5743 237.686 15.5743H237.191V14.8984H237.686C238.118 14.8984 238.454 14.8001 238.695 14.6033C238.943 14.4066 239.066 14.1305 239.066 13.7751C239.066 13.4768 238.968 13.2325 238.771 13.0421C238.581 12.8454 238.295 12.747 237.915 12.747C237.546 12.747 237.251 12.8581 237.029 13.0802C236.807 13.296 236.683 13.5689 236.658 13.8989H235.849C235.868 13.5371 235.963 13.2166 236.134 12.9374C236.312 12.6582 236.553 12.4424 236.858 12.2901C237.163 12.1314 237.515 12.0521 237.915 12.0521C238.346 12.0521 238.705 12.1282 238.99 12.2805C239.282 12.4329 239.501 12.6359 239.647 12.8898C239.799 13.1437 239.876 13.4229 239.876 13.7275C239.876 14.0639 239.784 14.3717 239.6 14.6509C239.416 14.9238 239.139 15.1079 238.771 15.2031C239.165 15.2856 239.492 15.4728 239.752 15.7647C240.012 16.0567 240.142 16.4406 240.142 16.9166C240.142 17.2847 240.057 17.6243 239.885 17.9352C239.72 18.2399 239.473 18.4842 239.143 18.6682C238.813 18.8523 238.403 18.9443 237.915 18.9443ZM241.664 18.8777C241.506 18.8777 241.372 18.8269 241.264 18.7254C241.163 18.6175 241.112 18.4874 241.112 18.3351C241.112 18.1827 241.163 18.0558 241.264 17.9543C241.372 17.8464 241.506 17.7924 241.664 17.7924C241.817 17.7924 241.944 17.8464 242.045 17.9543C242.153 18.0558 242.207 18.1827 242.207 18.3351C242.207 18.4874 242.153 18.6175 242.045 18.7254C241.944 18.8269 241.817 18.8777 241.664 18.8777ZM241.664 15.0793C241.506 15.0793 241.372 15.0286 241.264 14.927C241.163 14.8191 241.112 14.689 241.112 14.5367C241.112 14.3844 241.163 14.2575 241.264 14.1559C241.372 14.048 241.506 13.9941 241.664 13.9941C241.817 13.9941 241.944 14.048 242.045 14.1559C242.153 14.2575 242.207 14.3844 242.207 14.5367C242.207 14.689 242.153 14.8191 242.045 14.927C241.944 15.0286 241.817 15.0793 241.664 15.0793ZM245.931 18.9443C245.341 18.9443 244.83 18.8015 244.399 18.5159C243.973 18.224 243.646 17.821 243.418 17.3069C243.19 16.7865 243.075 16.1836 243.075 15.4982C243.075 14.8128 243.19 14.213 243.418 13.699C243.646 13.1786 243.973 12.7756 244.399 12.49C244.83 12.198 245.341 12.0521 245.931 12.0521C246.521 12.0521 247.029 12.198 247.454 12.49C247.88 12.7756 248.206 13.1786 248.435 13.699C248.663 14.213 248.778 14.8128 248.778 15.4982C248.778 16.1836 248.663 16.7865 248.435 17.3069C248.206 17.821 247.88 18.224 247.454 18.5159C247.029 18.8015 246.521 18.9443 245.931 18.9443ZM245.931 18.2399C246.318 18.2399 246.664 18.132 246.969 17.9162C247.28 17.6941 247.521 17.3799 247.692 16.9737C247.87 16.5612 247.959 16.0694 247.959 15.4982C247.959 14.927 247.87 14.4383 247.692 14.0322C247.521 13.626 247.28 13.315 246.969 13.0992C246.664 12.8771 246.318 12.766 245.931 12.766C245.538 12.766 245.189 12.8771 244.884 13.0992C244.579 13.315 244.338 13.626 244.161 14.0322C243.983 14.4383 243.894 14.927 243.894 15.4982C243.894 16.0694 243.983 16.5612 244.161 16.9737C244.338 17.3799 244.579 17.6941 244.884 17.9162C245.189 18.132 245.538 18.2399 245.931 18.2399ZM250.59 18.8301V13.0612L249.514 13.2991V12.747L250.856 12.1663H251.399V18.8301H250.59ZM252.758 20.9244V14.1083H253.481L253.558 14.8889C253.71 14.6605 253.926 14.4542 254.205 14.2702C254.491 14.0861 254.852 13.9941 255.29 13.9941C255.76 13.9941 256.169 14.102 256.518 14.3177C256.867 14.5335 257.137 14.8286 257.327 15.2031C257.524 15.5775 257.622 16.0027 257.622 16.4787C257.622 16.9547 257.524 17.3799 257.327 17.7544C257.137 18.1224 256.864 18.4144 256.509 18.6302C256.16 18.8396 255.75 18.9443 255.281 18.9443C254.894 18.9443 254.548 18.865 254.243 18.7063C253.945 18.5477 253.716 18.3255 253.558 18.0399V20.9244H252.758ZM255.195 18.2494C255.512 18.2494 255.792 18.1764 256.033 18.0304C256.274 17.8781 256.464 17.6687 256.604 17.4021C256.744 17.1356 256.813 16.8246 256.813 16.4692C256.813 16.1138 256.744 15.8028 256.604 15.5363C256.464 15.2697 256.274 15.0635 256.033 14.9175C255.792 14.7652 255.512 14.689 255.195 14.689C254.878 14.689 254.598 14.7652 254.357 14.9175C254.116 15.0635 253.926 15.2697 253.786 15.5363C253.646 15.8028 253.577 16.1138 253.577 16.4692C253.577 16.8246 253.646 17.1356 253.786 17.4021C253.926 17.6687 254.116 17.8781 254.357 18.0304C254.598 18.1764 254.878 18.2494 255.195 18.2494ZM258.736 18.8301V14.1083H259.459L259.516 14.7937C259.669 14.5399 259.872 14.3431 260.125 14.2035C260.379 14.0639 260.665 13.9941 260.982 13.9941C261.357 13.9941 261.677 14.0702 261.944 14.2226C262.217 14.3749 262.426 14.6065 262.572 14.9175C262.737 14.6319 262.962 14.4066 263.248 14.2416C263.54 14.0766 263.854 13.9941 264.19 13.9941C264.755 13.9941 265.206 14.1654 265.542 14.5081C265.879 14.8445 266.047 15.3649 266.047 16.0694V18.8301H265.257V16.155C265.257 15.6664 265.158 15.2983 264.961 15.0508C264.765 14.8033 264.482 14.6795 264.114 14.6795C263.733 14.6795 263.416 14.8286 263.162 15.1269C262.915 15.4189 262.791 15.8377 262.791 16.3835V18.8301H261.991V16.155C261.991 15.6664 261.893 15.2983 261.696 15.0508C261.5 14.8033 261.217 14.6795 260.849 14.6795C260.475 14.6795 260.16 14.8286 259.907 15.1269C259.659 15.4189 259.535 15.8377 259.535 16.3835V18.8301H258.736Z" fill="black"/>
</g>
</g>
<defs>
<clipPath id="clip0_194_31504">
<rect x="0.703125" y="0.67041" width="279.808" height="29.919" rx="6" fill="white"/>
</clipPath>
<clipPath id="clip1_194_31504">
<rect width="86.802" height="29.919" fill="white" transform="translate(0.703125 0.67041)"/>
</clipPath>
<clipPath id="clip2_194_31504">
<rect width="90.057" height="29.919" fill="white" transform="translate(87.5049 0.67041)"/>
</clipPath>
<clipPath id="clip3_194_31504">
<rect width="102.949" height="29.919" fill="white" transform="translate(177.562 0.67041)"/>
</clipPath>
</defs>
</svg>
