<svg width="315" height="113" viewBox="0 0 315 113" fill="none" xmlns="http://www.w3.org/2000/svg">
<rect x="0.478516" y="0.81543" width="314" height="111.889" rx="6" fill="white"/>
<path d="M20.5297 16.2834C17.1999 16.2834 14.4912 18.9921 14.4912 22.3219C14.4912 23.7785 15.0121 25.1151 15.875 26.1588L16.0166 26.3475H25.0428L25.1843 26.1588C26.0472 25.1151 26.5681 23.7785 26.5681 22.3219C26.5681 18.9921 23.8595 16.2834 20.5297 16.2834ZM20.5297 17.2899C23.315 17.2899 25.5617 19.5366 25.5617 22.3219C25.5617 23.462 25.1627 24.4979 24.5239 25.3411H16.5355C15.8966 24.4979 15.4976 23.462 15.4976 22.3219C15.4976 19.5366 17.7444 17.2899 20.5297 17.2899ZM20.5297 17.7931C20.2525 17.7931 20.0265 18.0191 20.0265 18.2963C20.0265 18.5734 20.2525 18.7995 20.5297 18.7995C20.8068 18.7995 21.0329 18.5734 21.0329 18.2963C21.0329 18.0191 20.8068 17.7931 20.5297 17.7931ZM18.5169 18.3277C18.2397 18.3277 18.0136 18.5538 18.0136 18.8309C18.0136 19.1081 18.2397 19.3341 18.5169 19.3341C18.794 19.3341 19.0201 19.1081 19.0201 18.8309C19.0201 18.5538 18.794 18.3277 18.5169 18.3277ZM22.5425 18.3277C22.2653 18.3277 22.0393 18.5538 22.0393 18.8309C22.0393 19.1081 22.2653 19.3341 22.5425 19.3341C22.8196 19.3341 23.0457 19.1081 23.0457 18.8309C23.0457 18.5538 22.8196 18.3277 22.5425 18.3277ZM17.0387 19.8059C16.7615 19.8059 16.5355 20.0319 16.5355 20.3091C16.5355 20.5862 16.7615 20.8123 17.0387 20.8123C17.3158 20.8123 17.5419 20.5862 17.5419 20.3091C17.5419 20.0319 17.3158 19.8059 17.0387 19.8059ZM23.8791 19.8216L21.0329 21.457C20.8855 21.3705 20.7125 21.3155 20.5297 21.3155C19.9734 21.3155 19.5233 21.7656 19.5233 22.3219C19.5233 22.8782 19.9734 23.3283 20.5297 23.3283C21.0801 23.3283 21.5282 22.886 21.5361 22.3376C21.5361 22.3317 21.5361 22.3278 21.5361 22.3219L24.3823 20.7022L23.8791 19.8216ZM16.504 21.8187C16.2269 21.8187 16.0008 22.0448 16.0008 22.3219C16.0008 22.5991 16.2269 22.8251 16.504 22.8251C16.7812 22.8251 17.0072 22.5991 17.0072 22.3219C17.0072 22.0448 16.7812 21.8187 16.504 21.8187ZM24.5553 21.8187C24.2782 21.8187 24.0521 22.0448 24.0521 22.3219C24.0521 22.5991 24.2782 22.8251 24.5553 22.8251C24.8325 22.8251 25.0585 22.5991 25.0585 22.3219C25.0585 22.0448 24.8325 21.8187 24.5553 21.8187ZM17.0387 23.8315C16.7615 23.8315 16.5355 24.0576 16.5355 24.3347C16.5355 24.6119 16.7615 24.8379 17.0387 24.8379C17.3158 24.8379 17.5419 24.6119 17.5419 24.3347C17.5419 24.0576 17.3158 23.8315 17.0387 23.8315ZM24.0207 23.8315C23.7435 23.8315 23.5175 24.0576 23.5175 24.3347C23.5175 24.6119 23.7435 24.8379 24.0207 24.8379C24.2978 24.8379 24.5239 24.6119 24.5239 24.3347C24.5239 24.0576 24.2978 23.8315 24.0207 23.8315Z" fill="black"/>
<path d="M37.1902 24.9443C36.6392 24.9443 36.1561 24.8476 35.741 24.6544C35.3259 24.4612 35.0003 24.1856 34.7641 23.8278C34.5351 23.47 34.417 23.0441 34.4098 22.5503H35.6122C35.6193 22.9511 35.7589 23.2911 36.0308 23.5702C36.3028 23.8493 36.6857 23.9888 37.1795 23.9888C37.616 23.9888 37.956 23.8851 38.1993 23.6775C38.4498 23.4628 38.575 23.1909 38.575 22.8617C38.575 22.5969 38.5142 22.3822 38.3926 22.2175C38.278 22.0529 38.117 21.917 37.9095 21.8096C37.7091 21.7023 37.4765 21.6057 37.2117 21.5198C36.9469 21.4339 36.6678 21.3409 36.3744 21.2407C35.7947 21.0474 35.3581 20.7969 35.0647 20.4892C34.7784 20.1815 34.6353 19.7771 34.6353 19.2761C34.6281 18.8539 34.7247 18.4853 34.9251 18.1704C35.1327 17.8555 35.4189 17.6122 35.7839 17.4405C36.1561 17.2615 36.5891 17.1721 37.0829 17.1721C37.5695 17.1721 37.9954 17.2615 38.3603 17.4405C38.7325 17.6194 39.0223 17.8699 39.2299 18.1919C39.4374 18.5068 39.5448 18.8754 39.5519 19.2976H38.3496C38.3496 19.1044 38.2995 18.9219 38.1993 18.7501C38.0991 18.5712 37.9524 18.4245 37.7592 18.31C37.566 18.1955 37.3298 18.1382 37.0507 18.1382C36.6928 18.1311 36.3958 18.2205 36.1597 18.4066C35.9306 18.5927 35.8161 18.8503 35.8161 19.1795C35.8161 19.473 35.902 19.6984 36.0738 19.8558C36.2455 20.0133 36.4817 20.1457 36.7823 20.253C37.0829 20.3532 37.4264 20.4713 37.8129 20.6073C38.185 20.729 38.5178 20.8757 38.8112 21.0474C39.1046 21.2192 39.3372 21.4446 39.509 21.7237C39.6879 22.0028 39.7774 22.3571 39.7774 22.7865C39.7774 23.1658 39.6808 23.5201 39.4875 23.8493C39.2943 24.1713 39.0044 24.4361 38.618 24.6437C38.2315 24.8441 37.7556 24.9443 37.1902 24.9443ZM43.5013 24.9443C42.9788 24.9443 42.5101 24.8262 42.095 24.59C41.687 24.3538 41.365 24.0282 41.1288 23.6131C40.8998 23.1909 40.7853 22.7042 40.7853 22.1531C40.7853 21.6021 40.8998 21.119 41.1288 20.7039C41.365 20.2817 41.687 19.9525 42.095 19.7163C42.5101 19.4801 42.9788 19.362 43.5013 19.362C44.1597 19.362 44.7107 19.5338 45.1545 19.8773C45.6053 20.2208 45.8952 20.686 46.024 21.2729H44.8324C44.7608 20.9794 44.6034 20.7504 44.3601 20.5858C44.1167 20.4212 43.8305 20.3389 43.5013 20.3389C43.2221 20.3389 42.9645 20.4105 42.7283 20.5536C42.4922 20.6896 42.3025 20.8936 42.1594 21.1655C42.0162 21.4303 41.9447 21.7595 41.9447 22.1531C41.9447 22.5468 42.0162 22.8795 42.1594 23.1515C42.3025 23.4163 42.4922 23.6203 42.7283 23.7634C42.9645 23.9065 43.2221 23.9781 43.5013 23.9781C43.8305 23.9781 44.1167 23.8958 44.3601 23.7312C44.6034 23.5666 44.7608 23.334 44.8324 23.0334H46.024C45.9023 23.6059 45.6161 24.0676 45.1652 24.4182C44.7143 24.7689 44.1597 24.9443 43.5013 24.9443ZM49.7486 24.9443C49.2405 24.9443 48.7825 24.8297 48.3745 24.6007C47.9738 24.3646 47.6553 24.0389 47.4191 23.6238C47.183 23.2016 47.0649 22.7114 47.0649 22.1531C47.0649 21.5949 47.183 21.1083 47.4191 20.6932C47.6625 20.2709 47.9881 19.9453 48.396 19.7163C48.8039 19.4801 49.2584 19.362 49.7594 19.362C50.2675 19.362 50.7219 19.4801 51.1227 19.7163C51.5306 19.9453 51.8527 20.2709 52.0889 20.6932C52.3322 21.1083 52.4539 21.5949 52.4539 22.1531C52.4539 22.7114 52.3322 23.2016 52.0889 23.6238C51.8527 24.0389 51.5306 24.3646 51.1227 24.6007C50.7148 24.8297 50.2568 24.9443 49.7486 24.9443ZM49.7486 23.9674C50.0206 23.9674 50.2711 23.8994 50.5001 23.7634C50.7363 23.6274 50.9259 23.427 51.069 23.1622C51.2122 22.8903 51.2837 22.5539 51.2837 22.1531C51.2837 21.7524 51.2122 21.4196 51.069 21.1548C50.9331 20.8828 50.747 20.6789 50.5108 20.5429C50.2818 20.4069 50.0313 20.3389 49.7594 20.3389C49.4874 20.3389 49.2333 20.4069 48.9972 20.5429C48.7682 20.6789 48.5821 20.8828 48.439 21.1548C48.2958 21.4196 48.2243 21.7524 48.2243 22.1531C48.2243 22.5539 48.2958 22.8903 48.439 23.1622C48.5821 23.427 48.7682 23.6274 48.9972 23.7634C49.2262 23.8994 49.4767 23.9674 49.7486 23.9674ZM53.6845 24.8154V19.4908H54.7043L54.8009 20.4999C54.987 20.1493 55.2446 19.8737 55.5738 19.6733C55.9102 19.4658 56.3145 19.362 56.7869 19.362V20.5536H56.4756C56.1607 20.5536 55.878 20.6073 55.6275 20.7146C55.3842 20.8148 55.1874 20.9902 55.0371 21.2407C54.8939 21.484 54.8224 21.8239 54.8224 22.2605V24.8154H53.6845ZM60.1063 24.9443C59.5838 24.9443 59.1186 24.8297 58.7107 24.6007C58.3099 24.3646 57.995 24.0389 57.766 23.6238C57.537 23.2088 57.4225 22.7257 57.4225 22.1746C57.4225 21.6164 57.5334 21.1262 57.7553 20.7039C57.9843 20.2817 58.2992 19.9525 58.7 19.7163C59.1079 19.4801 59.5803 19.362 60.117 19.362C60.6394 19.362 61.0939 19.4801 61.4804 19.7163C61.8668 19.9453 62.1674 20.253 62.3821 20.6395C62.5968 21.026 62.7042 21.4518 62.7042 21.917C62.7042 21.9885 62.7006 22.0673 62.6934 22.1531C62.6934 22.2319 62.6898 22.3213 62.6827 22.4215H58.539C58.5747 22.9368 58.7429 23.3304 59.0435 23.6024C59.3512 23.8672 59.7055 23.9996 60.1063 23.9996C60.4283 23.9996 60.6967 23.928 60.9114 23.7849C61.1333 23.6346 61.2979 23.4342 61.4052 23.1837H62.5431C62.4 23.6847 62.1137 24.1033 61.6843 24.4397C61.2621 24.7761 60.7361 24.9443 60.1063 24.9443ZM60.1063 20.296C59.727 20.296 59.3906 20.4105 59.0972 20.6395C58.8038 20.8614 58.6248 21.1977 58.5604 21.6486H61.5662C61.5448 21.2335 61.3981 20.9043 61.1261 20.661C60.8541 20.4176 60.5142 20.296 60.1063 20.296ZM66.0104 24.9443C65.3376 24.9443 64.783 24.7796 64.3464 24.4504C63.9099 24.1212 63.6594 23.6847 63.595 23.1408H64.7436C64.8009 23.3841 64.9369 23.5952 65.1516 23.7741C65.3663 23.9459 65.649 24.0318 65.9996 24.0318C66.3432 24.0318 66.5936 23.9602 66.7511 23.8171C66.9085 23.6739 66.9873 23.5093 66.9873 23.3233C66.9873 23.0513 66.8763 22.8688 66.6545 22.7758C66.4398 22.6756 66.1392 22.5861 65.7527 22.5074C65.4522 22.443 65.1516 22.3571 64.851 22.2498C64.5576 22.1424 64.3107 21.9921 64.1103 21.7989C63.917 21.5985 63.8204 21.3301 63.8204 20.9938C63.8204 20.5286 63.9993 20.1421 64.3572 19.8344C64.715 19.5195 65.216 19.362 65.8601 19.362C66.4541 19.362 66.9336 19.5052 67.2986 19.7914C67.6707 20.0777 67.889 20.4821 67.9534 21.0045H66.8584C66.8227 20.7755 66.7153 20.5966 66.5364 20.4677C66.3646 20.3389 66.132 20.2745 65.8386 20.2745C65.5523 20.2745 65.3305 20.3353 65.173 20.457C65.0156 20.5715 64.9369 20.7218 64.9369 20.9079C64.9369 21.0939 65.0442 21.2407 65.2589 21.348C65.4808 21.4554 65.7706 21.552 66.1285 21.6379C66.4863 21.7166 66.8155 21.8096 67.1161 21.917C67.4238 22.0172 67.6707 22.1675 67.8568 22.3678C68.0429 22.5682 68.1359 22.8617 68.1359 23.2481C68.1431 23.7348 67.9534 24.1391 67.567 24.4612C67.1877 24.7832 66.6688 24.9443 66.0104 24.9443Z" fill="black"/>
<rect x="12.814" y="40.886" width="289.329" height="59.4829" rx="3.69017" stroke="#E2E2E2" stroke-width="0.67094"/>
<mask id="path-5-inside-1_194_31527" fill="white">
<path d="M25.8975 51.2856H104.672V89.9694H25.8975V51.2856Z"/>
</mask>
<path d="M104.001 51.2856V89.9694H105.343V51.2856H104.001Z" fill="#E2E2E2" mask="url(#path-5-inside-1_194_31527)"/>
<path d="M26.5926 61.2856V54.7104H28.6121C29.7706 54.7104 30.6222 55.0048 31.167 55.5934C31.7181 56.182 31.9936 56.9898 31.9936 58.0168C31.9936 59.025 31.7181 59.8234 31.167 60.4121C30.6222 60.9945 29.7706 61.2856 28.6121 61.2856H26.5926ZM27.3816 60.6281H28.5933C29.232 60.6281 29.7393 60.5248 30.115 60.3181C30.497 60.1052 30.7694 59.8047 30.9322 59.4164C31.095 59.0219 31.1764 58.5554 31.1764 58.0168C31.1764 57.4658 31.095 56.993 30.9322 56.5985C30.7694 56.2039 30.497 55.9002 30.115 55.6873C29.7393 55.4744 29.232 55.368 28.5933 55.368H27.3816V60.6281ZM35.2088 61.3984C34.7705 61.3984 34.3759 61.2982 34.0253 61.0978C33.6746 60.8974 33.3959 60.6156 33.1893 60.2524C32.9889 59.8829 32.8887 59.4508 32.8887 58.9561C32.8887 58.4614 32.992 58.0325 33.1987 57.6693C33.4053 57.2998 33.684 57.0149 34.0347 56.8145C34.3916 56.6141 34.7892 56.5139 35.2276 56.5139C35.6659 56.5139 36.0604 56.6141 36.4111 56.8145C36.7618 57.0149 37.0373 57.2998 37.2377 57.6693C37.4444 58.0325 37.5477 58.4614 37.5477 58.9561C37.5477 59.4508 37.4444 59.8829 37.2377 60.2524C37.0311 60.6156 36.7493 60.8974 36.3923 61.0978C36.0417 61.2982 35.6471 61.3984 35.2088 61.3984ZM35.2088 60.7221C35.4781 60.7221 35.7286 60.6563 35.9603 60.5248C36.192 60.3933 36.3798 60.196 36.5238 59.933C36.6679 59.67 36.7399 59.3444 36.7399 58.9561C36.7399 58.5679 36.6679 58.2423 36.5238 57.9793C36.3861 57.7162 36.2013 57.519 35.9696 57.3875C35.7379 57.256 35.4906 57.1902 35.2276 57.1902C34.9583 57.1902 34.7078 57.256 34.4761 57.3875C34.2444 57.519 34.0566 57.7162 33.9125 57.9793C33.7685 58.2423 33.6965 58.5679 33.6965 58.9561C33.6965 59.3444 33.7685 59.67 33.9125 59.933C34.0566 60.196 34.2413 60.3933 34.4667 60.5248C34.6984 60.6563 34.9458 60.7221 35.2088 60.7221ZM40.7864 61.3984C40.3418 61.3984 39.941 61.2982 39.5841 61.0978C39.2334 60.8911 38.9548 60.6062 38.7481 60.243C38.5477 59.8735 38.4475 59.4446 38.4475 58.9561C38.4475 58.4677 38.5477 58.0419 38.7481 57.6787C38.9548 57.3092 39.2334 57.0243 39.5841 56.8239C39.941 56.6172 40.3418 56.5139 40.7864 56.5139C41.3375 56.5139 41.8009 56.6579 42.1766 56.946C42.5586 57.2341 42.7997 57.6192 42.8999 58.1014H42.0921C42.0295 57.8133 41.876 57.591 41.6318 57.4344C41.3876 57.2716 41.1027 57.1902 40.777 57.1902C40.514 57.1902 40.2667 57.256 40.035 57.3875C39.8033 57.519 39.6154 57.7162 39.4714 57.9793C39.3274 58.2423 39.2553 58.5679 39.2553 58.9561C39.2553 59.3444 39.3274 59.67 39.4714 59.933C39.6154 60.196 39.8033 60.3964 40.035 60.5342C40.2667 60.6657 40.514 60.7314 40.777 60.7314C41.1027 60.7314 41.3876 60.6532 41.6318 60.4966C41.876 60.3338 42.0295 60.1052 42.0921 59.8109H42.8999C42.806 60.2806 42.568 60.6626 42.186 60.9569C41.804 61.2512 41.3375 61.3984 40.7864 61.3984ZM45.702 61.3984C45.1509 61.3984 44.7126 61.2324 44.3869 60.9005C44.0613 60.5624 43.8985 60.0457 43.8985 59.3507V56.6266H44.6875V59.2661C44.6875 60.2367 45.0852 60.7221 45.8805 60.7221C46.2875 60.7221 46.6225 60.578 46.8855 60.29C47.1548 59.9957 47.2894 59.5792 47.2894 59.0407V56.6266H48.0785V61.2856H47.3646L47.3082 60.4497C47.1642 60.744 46.9481 60.9757 46.6601 61.1447C46.3783 61.3138 46.0589 61.3984 45.702 61.3984ZM49.3772 61.2856V56.6266H50.0911L50.1474 57.3029C50.2977 57.0525 50.4981 56.8583 50.7486 56.7206C50.9991 56.5828 51.2809 56.5139 51.594 56.5139C51.9635 56.5139 52.2797 56.5891 52.5427 56.7394C52.812 56.8896 53.0186 57.1182 53.1627 57.4251C53.3255 57.1433 53.5478 56.921 53.8296 56.7581C54.1176 56.5953 54.4276 56.5139 54.7595 56.5139C55.3168 56.5139 55.7614 56.683 56.0933 57.0211C56.4252 57.353 56.5912 57.8665 56.5912 58.5616V61.2856H55.8115V58.6462C55.8115 58.164 55.7145 57.8008 55.5203 57.5566C55.3262 57.3123 55.0475 57.1902 54.6843 57.1902C54.3086 57.1902 53.9955 57.3374 53.745 57.6317C53.5008 57.9198 53.3787 58.3331 53.3787 58.8716V61.2856H52.5897V58.6462C52.5897 58.164 52.4926 57.8008 52.2985 57.5566C52.1044 57.3123 51.8257 57.1902 51.4625 57.1902C51.093 57.1902 50.7831 57.3374 50.5326 57.6317C50.2883 57.9198 50.1662 58.3331 50.1662 58.8716V61.2856H49.3772ZM59.8744 61.3984C59.4298 61.3984 59.0352 61.2982 58.6908 61.0978C58.3464 60.8911 58.074 60.6062 57.8736 60.243C57.6795 59.8798 57.5824 59.4508 57.5824 58.9561C57.5824 58.4677 57.6795 58.0419 57.8736 57.6787C58.0677 57.3092 58.337 57.0243 58.6814 56.8239C59.0321 56.6172 59.436 56.5139 59.8931 56.5139C60.344 56.5139 60.7323 56.6172 61.0579 56.8239C61.3898 57.0243 61.6434 57.2904 61.8187 57.6223C61.9941 57.9542 62.0818 58.3111 62.0818 58.6931C62.0818 58.762 62.0786 58.8309 62.0724 58.8998C62.0724 58.9687 62.0724 59.0469 62.0724 59.1346H58.3621C58.3808 59.4916 58.4623 59.789 58.6063 60.027C58.7566 60.2587 58.9413 60.434 59.1605 60.553C59.3859 60.672 59.6239 60.7314 59.8744 60.7314C60.2 60.7314 60.4724 60.6563 60.6916 60.506C60.9107 60.3557 61.0704 60.1522 61.1706 59.8955H61.9502C61.825 60.3275 61.5839 60.6876 61.227 60.9757C60.8763 61.2575 60.4254 61.3984 59.8744 61.3984ZM59.8744 57.1808C59.4986 57.1808 59.1636 57.2967 58.8693 57.5284C58.5812 57.7538 58.4153 58.0857 58.3715 58.5241H61.3021C61.2833 58.1045 61.1393 57.7757 60.87 57.5378C60.6008 57.2998 60.2689 57.1808 59.8744 57.1808ZM63.1276 61.2856V56.6266H63.8414L63.8884 57.4626C64.0387 57.1683 64.2547 56.9366 64.5365 56.7675C64.8183 56.5985 65.1377 56.5139 65.4946 56.5139C66.0457 56.5139 66.484 56.683 66.8097 57.0211C67.1416 57.353 67.3075 57.8665 67.3075 58.5616V61.2856H66.5185V58.6462C66.5185 57.6755 66.1177 57.1902 65.3162 57.1902C64.9154 57.1902 64.5804 57.3374 64.3111 57.6317C64.0481 57.9198 63.9166 58.3331 63.9166 58.8716V61.2856H63.1276ZM70.344 61.2856C69.9182 61.2856 69.5831 61.1823 69.3389 60.9757C69.0947 60.769 68.9726 60.3964 68.9726 59.8579V57.2936H68.1648V56.6266H68.9726L69.0759 55.5088H69.7616V56.6266H71.133V57.2936H69.7616V59.8579C69.7616 60.1522 69.8211 60.3526 69.9401 60.459C70.0591 60.5592 70.2688 60.6093 70.5694 60.6093H71.0579V61.2856H70.344Z" fill="#707070"/>
<path d="M28.5598 83.9695V75.0487L26.708 75.4834V73.9054L29.4293 72.6977H30.7014V83.9695H28.5598ZM33.5311 83.9695L37.7821 74.4529H32.2268V72.6977H39.9077V74.163L35.6727 83.9695H33.5311ZM39.4903 85.7569L43.5159 71.4578H45.5287L41.487 85.7569H39.4903Z" fill="#991008"/>
<path d="M48.2377 84.6531V77.5908L46.7717 77.935V76.6857L48.926 75.7296H49.9331V84.6531H48.2377ZM55.322 84.8061C54.4976 84.8061 53.7922 84.6148 53.2058 84.2324C52.6194 83.8415 52.1648 83.3018 51.8418 82.6134C51.5274 81.9165 51.3701 81.1092 51.3701 80.1913C51.3701 79.282 51.5274 78.4789 51.8418 77.782C52.1648 77.0851 52.6194 76.5454 53.2058 76.163C53.7922 75.7721 54.4976 75.5766 55.322 75.5766C56.1463 75.5766 56.8517 75.7721 57.4381 76.163C58.0245 76.5454 58.475 77.0851 58.7894 77.782C59.1123 78.4789 59.2738 79.282 59.2738 80.1913C59.2738 81.1092 59.1123 81.9165 58.7894 82.6134C58.475 83.3018 58.0245 83.8415 57.4381 84.2324C56.8517 84.6148 56.1463 84.8061 55.322 84.8061ZM55.322 83.34C55.9934 83.34 56.5415 83.0596 56.9665 82.4987C57.3914 81.9378 57.6039 81.1687 57.6039 80.1913C57.6039 79.214 57.3914 78.4449 56.9665 77.884C56.5415 77.3231 55.9934 77.0426 55.322 77.0426C54.6421 77.0426 54.0897 77.3231 53.6648 77.884C53.2483 78.4449 53.0401 79.214 53.0401 80.1913C53.0401 81.1687 53.2483 81.9378 53.6648 82.4987C54.0897 83.0596 54.6421 83.34 55.322 83.34ZM64.3725 84.8061C63.5481 84.8061 62.8427 84.6148 62.2563 84.2324C61.6699 83.8415 61.2152 83.3018 60.8923 82.6134C60.5779 81.9165 60.4206 81.1092 60.4206 80.1913C60.4206 79.282 60.5779 78.4789 60.8923 77.782C61.2152 77.0851 61.6699 76.5454 62.2563 76.163C62.8427 75.7721 63.5481 75.5766 64.3725 75.5766C65.1968 75.5766 65.9022 75.7721 66.4886 76.163C67.075 76.5454 67.5254 77.0851 67.8399 77.782C68.1628 78.4789 68.3243 79.282 68.3243 80.1913C68.3243 81.1092 68.1628 81.9165 67.8399 82.6134C67.5254 83.3018 67.075 83.8415 66.4886 84.2324C65.9022 84.6148 65.1968 84.8061 64.3725 84.8061ZM64.3725 83.34C65.0439 83.34 65.592 83.0596 66.0169 82.4987C66.4419 81.9378 66.6543 81.1687 66.6543 80.1913C66.6543 79.214 66.4419 78.4449 66.0169 77.884C65.592 77.3231 65.0439 77.0426 64.3725 77.0426C63.6926 77.0426 63.1402 77.3231 62.7152 77.884C62.2988 78.4449 62.0906 79.214 62.0906 80.1913C62.0906 81.1687 62.2988 81.9378 62.7152 82.4987C63.1402 83.0596 63.6926 83.34 64.3725 83.34Z" fill="#991008"/>
<mask id="path-10-inside-2_194_31527" fill="white">
<path d="M118.091 51.2856H196.866V89.9694H118.091V51.2856Z"/>
</mask>
<path d="M196.195 51.2856V89.9694H197.537V51.2856H196.195Z" fill="#E2E2E2" mask="url(#path-10-inside-2_194_31527)"/>
<path d="M118.786 61.2856V54.7104H122.853V55.3586H119.575V57.6505H122.571V58.2892H119.575V60.6375H122.853V61.2856H118.786ZM123.571 61.2856L125.187 58.9561L123.571 56.6266H124.426L125.732 58.5522L127.047 56.6266H127.892L126.277 58.9561L127.892 61.2856H127.047L125.732 59.36L124.426 61.2856H123.571ZM130.56 61.2856C130.134 61.2856 129.799 61.1823 129.555 60.9757C129.311 60.769 129.189 60.3964 129.189 59.8579V57.2936H128.381V56.6266H129.189L129.292 55.5088H129.978V56.6266H131.349V57.2936H129.978V59.8579C129.978 60.1522 130.037 60.3526 130.156 60.459C130.275 60.5592 130.485 60.6093 130.786 60.6093H131.274V61.2856H130.56ZM132.352 61.2856V56.6266H133.066L133.131 57.519C133.275 57.2121 133.495 56.9679 133.789 56.7863C134.083 56.6047 134.446 56.5139 134.878 56.5139V57.3405H134.662C134.387 57.3405 134.133 57.3906 133.902 57.4908C133.67 57.5847 133.485 57.7476 133.347 57.9793C133.21 58.2109 133.141 58.5303 133.141 58.9374V61.2856H132.352ZM137.314 61.3984C136.926 61.3984 136.603 61.3326 136.346 61.2011C136.09 61.0696 135.899 60.8943 135.773 60.6751C135.648 60.4559 135.586 60.218 135.586 59.9612C135.586 59.4853 135.767 59.119 136.13 58.8622C136.494 58.6055 136.988 58.4771 137.615 58.4771H138.873V58.4207C138.873 58.0137 138.767 57.7068 138.554 57.5002C138.341 57.2873 138.056 57.1808 137.699 57.1808C137.392 57.1808 137.126 57.2591 136.901 57.4157C136.681 57.566 136.544 57.7883 136.487 58.0826H135.68C135.711 57.7444 135.824 57.4595 136.018 57.2278C136.218 56.9961 136.465 56.8208 136.76 56.7018C137.054 56.5765 137.367 56.5139 137.699 56.5139C138.35 56.5139 138.839 56.6893 139.164 57.0399C139.496 57.3844 139.662 57.8446 139.662 58.4207V61.2856H138.958L138.911 60.4497C138.779 60.7127 138.585 60.9381 138.328 61.126C138.078 61.3076 137.74 61.3984 137.314 61.3984ZM137.436 60.7314C137.737 60.7314 137.993 60.6532 138.206 60.4966C138.425 60.3401 138.591 60.1365 138.704 59.8861C138.817 59.6356 138.873 59.3726 138.873 59.097V59.0876H137.68C137.217 59.0876 136.888 59.1691 136.694 59.3319C136.506 59.4884 136.412 59.6857 136.412 59.9236C136.412 60.1679 136.5 60.3651 136.675 60.5154C136.857 60.6594 137.11 60.7314 137.436 60.7314ZM142.988 61.3984C142.543 61.3984 142.142 61.2982 141.785 61.0978C141.435 60.8911 141.156 60.6062 140.949 60.243C140.749 59.8735 140.649 59.4446 140.649 58.9561C140.649 58.4677 140.749 58.0419 140.949 57.6787C141.156 57.3092 141.435 57.0243 141.785 56.8239C142.142 56.6172 142.543 56.5139 142.988 56.5139C143.539 56.5139 144.002 56.6579 144.378 56.946C144.76 57.2341 145.001 57.6192 145.101 58.1014H144.293C144.231 57.8133 144.077 57.591 143.833 57.4344C143.589 57.2716 143.304 57.1902 142.978 57.1902C142.715 57.1902 142.468 57.256 142.236 57.3875C142.004 57.519 141.817 57.7162 141.672 57.9793C141.528 58.2423 141.456 58.5679 141.456 58.9561C141.456 59.3444 141.528 59.67 141.672 59.933C141.817 60.196 142.004 60.3964 142.236 60.5342C142.468 60.6657 142.715 60.7314 142.978 60.7314C143.304 60.7314 143.589 60.6532 143.833 60.4966C144.077 60.3338 144.231 60.1052 144.293 59.8109H145.101C145.007 60.2806 144.769 60.6626 144.387 60.9569C144.005 61.2512 143.539 61.3984 142.988 61.3984ZM147.916 61.2856C147.49 61.2856 147.155 61.1823 146.911 60.9757C146.666 60.769 146.544 60.3964 146.544 59.8579V57.2936H145.736V56.6266H146.544L146.647 55.5088H147.333V56.6266H148.705V57.2936H147.333V59.8579C147.333 60.1522 147.393 60.3526 147.512 60.459C147.631 60.5592 147.84 60.6093 148.141 60.6093H148.629V61.2856H147.916ZM151.673 61.3984C151.229 61.3984 150.834 61.2982 150.49 61.0978C150.145 60.8911 149.873 60.6062 149.673 60.243C149.478 59.8798 149.381 59.4508 149.381 58.9561C149.381 58.4677 149.478 58.0419 149.673 57.6787C149.867 57.3092 150.136 57.0243 150.48 56.8239C150.831 56.6172 151.235 56.5139 151.692 56.5139C152.143 56.5139 152.531 56.6172 152.857 56.8239C153.189 57.0243 153.442 57.2904 153.618 57.6223C153.793 57.9542 153.881 58.3111 153.881 58.6931C153.881 58.762 153.878 58.8309 153.871 58.8998C153.871 58.9687 153.871 59.0469 153.871 59.1346H150.161C150.18 59.4916 150.261 59.789 150.405 60.027C150.555 60.2587 150.74 60.434 150.959 60.553C151.185 60.672 151.423 60.7314 151.673 60.7314C151.999 60.7314 152.271 60.6563 152.49 60.506C152.71 60.3557 152.869 60.1522 152.97 59.8955H153.749C153.624 60.3275 153.383 60.6876 153.026 60.9757C152.675 61.2575 152.224 61.3984 151.673 61.3984ZM151.673 57.1808C151.298 57.1808 150.963 57.2967 150.668 57.5284C150.38 57.7538 150.214 58.0857 150.17 58.5241H153.101C153.082 58.1045 152.938 57.7757 152.669 57.5378C152.4 57.2998 152.068 57.1808 151.673 57.1808ZM157.04 61.3984C156.577 61.3984 156.169 61.2919 155.819 61.079C155.474 60.8661 155.205 60.5749 155.011 60.2054C154.823 59.836 154.729 59.4164 154.729 58.9467C154.729 58.4771 154.826 58.0607 155.02 57.6975C155.215 57.328 155.484 57.0399 155.828 56.8333C156.173 56.6204 156.58 56.5139 157.049 56.5139C157.431 56.5139 157.769 56.5922 158.064 56.7487C158.358 56.9053 158.587 57.1245 158.749 57.4063V54.5226H159.539V61.2856H158.825L158.749 60.5154C158.599 60.7408 158.383 60.9444 158.101 61.126C157.82 61.3076 157.466 61.3984 157.04 61.3984ZM157.124 60.7127C157.438 60.7127 157.713 60.6406 157.951 60.4966C158.195 60.3463 158.383 60.1397 158.515 59.8767C158.652 59.6137 158.721 59.3068 158.721 58.9561C158.721 58.6055 158.652 58.2986 158.515 58.0356C158.383 57.7726 158.195 57.5691 157.951 57.4251C157.713 57.2748 157.438 57.1996 157.124 57.1996C156.818 57.1996 156.542 57.2748 156.298 57.4251C156.06 57.5691 155.872 57.7726 155.734 58.0356C155.603 58.2986 155.537 58.6055 155.537 58.9561C155.537 59.3068 155.603 59.6137 155.734 59.8767C155.872 60.1397 156.06 60.3463 156.298 60.4966C156.542 60.6406 156.818 60.7127 157.124 60.7127ZM165.424 61.3984C164.961 61.3984 164.554 61.2919 164.203 61.079C163.859 60.8661 163.589 60.5749 163.395 60.2054C163.207 59.836 163.113 59.4164 163.113 58.9467C163.113 58.4771 163.21 58.0607 163.405 57.6975C163.599 57.328 163.868 57.0399 164.212 56.8333C164.557 56.6204 164.964 56.5139 165.433 56.5139C165.815 56.5139 166.154 56.5922 166.448 56.7487C166.742 56.9053 166.971 57.1245 167.134 57.4063V54.5226H167.923V61.2856H167.209L167.134 60.5154C166.983 60.7408 166.767 60.9444 166.485 61.126C166.204 61.3076 165.85 61.3984 165.424 61.3984ZM165.509 60.7127C165.822 60.7127 166.097 60.6406 166.335 60.4966C166.579 60.3463 166.767 60.1397 166.899 59.8767C167.037 59.6137 167.105 59.3068 167.105 58.9561C167.105 58.6055 167.037 58.2986 166.899 58.0356C166.767 57.7726 166.579 57.5691 166.335 57.4251C166.097 57.2748 165.822 57.1996 165.509 57.1996C165.202 57.1996 164.926 57.2748 164.682 57.4251C164.444 57.5691 164.256 57.7726 164.118 58.0356C163.987 58.2986 163.921 58.6055 163.921 58.9561C163.921 59.3068 163.987 59.6137 164.118 59.8767C164.256 60.1397 164.444 60.3463 164.682 60.4966C164.926 60.6406 165.202 60.7127 165.509 60.7127ZM170.759 61.3984C170.37 61.3984 170.048 61.3326 169.791 61.2011C169.534 61.0696 169.343 60.8943 169.218 60.6751C169.093 60.4559 169.03 60.218 169.03 59.9612C169.03 59.4853 169.212 59.119 169.575 58.8622C169.938 58.6055 170.433 58.4771 171.059 58.4771H172.318V58.4207C172.318 58.0137 172.212 57.7068 171.999 57.5002C171.786 57.2873 171.501 57.1808 171.144 57.1808C170.837 57.1808 170.571 57.2591 170.345 57.4157C170.126 57.566 169.988 57.7883 169.932 58.0826H169.124C169.156 57.7444 169.268 57.4595 169.462 57.2278C169.663 56.9961 169.91 56.8208 170.205 56.7018C170.499 56.5765 170.812 56.5139 171.144 56.5139C171.795 56.5139 172.284 56.6893 172.609 57.0399C172.941 57.3844 173.107 57.8446 173.107 58.4207V61.2856H172.403L172.356 60.4497C172.224 60.7127 172.03 60.9381 171.773 61.126C171.523 61.3076 171.185 61.3984 170.759 61.3984ZM170.881 60.7314C171.181 60.7314 171.438 60.6532 171.651 60.4966C171.87 60.3401 172.036 60.1365 172.149 59.8861C172.262 59.6356 172.318 59.3726 172.318 59.097V59.0876H171.125C170.662 59.0876 170.333 59.1691 170.139 59.3319C169.951 59.4884 169.857 59.6857 169.857 59.9236C169.857 60.1679 169.945 60.3651 170.12 60.5154C170.302 60.6594 170.555 60.7314 170.881 60.7314ZM176.003 61.2856C175.578 61.2856 175.242 61.1823 174.998 60.9757C174.754 60.769 174.632 60.3964 174.632 59.8579V57.2936H173.824V56.6266H174.632L174.735 55.5088H175.421V56.6266H176.792V57.2936H175.421V59.8579C175.421 60.1522 175.48 60.3526 175.599 60.459C175.718 60.5592 175.928 60.6093 176.229 60.6093H176.717V61.2856H176.003ZM179.345 61.3984C178.956 61.3984 178.634 61.3326 178.377 61.2011C178.12 61.0696 177.929 60.8943 177.804 60.6751C177.679 60.4559 177.616 60.218 177.616 59.9612C177.616 59.4853 177.798 59.119 178.161 58.8622C178.524 58.6055 179.019 58.4771 179.645 58.4771H180.904V58.4207C180.904 58.0137 180.797 57.7068 180.585 57.5002C180.372 57.2873 180.087 57.1808 179.73 57.1808C179.423 57.1808 179.157 57.2591 178.931 57.4157C178.712 57.566 178.574 57.7883 178.518 58.0826H177.71C177.742 57.7444 177.854 57.4595 178.048 57.2278C178.249 56.9961 178.496 56.8208 178.79 56.7018C179.085 56.5765 179.398 56.5139 179.73 56.5139C180.381 56.5139 180.869 56.6893 181.195 57.0399C181.527 57.3844 181.693 57.8446 181.693 58.4207V61.2856H180.988L180.941 60.4497C180.81 60.7127 180.616 60.9381 180.359 61.126C180.109 61.3076 179.77 61.3984 179.345 61.3984ZM179.467 60.7314C179.767 60.7314 180.024 60.6532 180.237 60.4966C180.456 60.3401 180.622 60.1365 180.735 59.8861C180.848 59.6356 180.904 59.3726 180.904 59.097V59.0876H179.711C179.248 59.0876 178.919 59.1691 178.725 59.3319C178.537 59.4884 178.443 59.6857 178.443 59.9236C178.443 60.1679 178.531 60.3651 178.706 60.5154C178.888 60.6594 179.141 60.7314 179.467 60.7314Z" fill="#707070"/>
<path d="M120.583 83.9695V75.0487L118.731 75.4834V73.9054L121.453 72.6977H122.725V83.9695H120.583ZM128.952 84.1627C128.125 84.1627 127.412 84.0178 126.81 83.7279C126.22 83.4381 125.753 83.0409 125.409 82.5364C125.077 82.0211 124.883 81.4414 124.83 80.7973H126.843C126.939 81.2589 127.175 81.6453 127.551 81.9567C127.927 82.2572 128.394 82.4075 128.952 82.4075C129.553 82.4075 130.042 82.1875 130.417 81.7473C130.804 81.3072 130.997 80.7597 130.997 80.1049C130.997 79.4286 130.804 78.8918 130.417 78.4946C130.042 78.0974 129.564 77.8988 128.984 77.8988C128.501 77.8988 128.082 78.0169 127.728 78.2531C127.374 78.4892 127.122 78.7845 126.971 79.1387H124.991L125.957 72.6977H132.205V74.5012H127.503L126.987 77.1098C127.224 76.8521 127.546 76.6428 127.954 76.4818C128.362 76.31 128.818 76.2241 129.322 76.2241C130.127 76.2241 130.798 76.4066 131.335 76.7716C131.872 77.1259 132.28 77.5982 132.559 78.1887C132.838 78.7684 132.978 79.4017 132.978 80.0888C132.978 80.8724 132.806 81.5702 132.462 82.1821C132.13 82.794 131.657 83.2771 131.045 83.6313C130.444 83.9856 129.746 84.1627 128.952 84.1627ZM133.684 85.7569L137.709 71.4578H139.722L135.68 85.7569H133.684Z" fill="#991008"/>
<path d="M142.431 84.6531V77.5908L140.965 77.935V76.6857L143.119 75.7296H144.126V84.6531H142.431ZM149.515 84.8061C148.691 84.8061 147.986 84.6148 147.399 84.2324C146.813 83.8415 146.358 83.3018 146.035 82.6134C145.721 81.9165 145.564 81.1092 145.564 80.1913C145.564 79.282 145.721 78.4789 146.035 77.782C146.358 77.0851 146.813 76.5454 147.399 76.163C147.986 75.7721 148.691 75.5766 149.515 75.5766C150.34 75.5766 151.045 75.7721 151.631 76.163C152.218 76.5454 152.668 77.0851 152.983 77.782C153.306 78.4789 153.467 79.282 153.467 80.1913C153.467 81.1092 153.306 81.9165 152.983 82.6134C152.668 83.3018 152.218 83.8415 151.631 84.2324C151.045 84.6148 150.34 84.8061 149.515 84.8061ZM149.515 83.34C150.187 83.34 150.735 83.0596 151.16 82.4987C151.585 81.9378 151.797 81.1687 151.797 80.1913C151.797 79.214 151.585 78.4449 151.16 77.884C150.735 77.3231 150.187 77.0426 149.515 77.0426C148.835 77.0426 148.283 77.3231 147.858 77.884C147.442 78.4449 147.233 79.214 147.233 80.1913C147.233 81.1687 147.442 81.9378 147.858 82.4987C148.283 83.0596 148.835 83.34 149.515 83.34ZM158.566 84.8061C157.741 84.8061 157.036 84.6148 156.45 84.2324C155.863 83.8415 155.409 83.3018 155.086 82.6134C154.771 81.9165 154.614 81.1092 154.614 80.1913C154.614 79.282 154.771 78.4789 155.086 77.782C155.409 77.0851 155.863 76.5454 156.45 76.163C157.036 75.7721 157.741 75.5766 158.566 75.5766C159.39 75.5766 160.096 75.7721 160.682 76.163C161.268 76.5454 161.719 77.0851 162.033 77.782C162.356 78.4789 162.518 79.282 162.518 80.1913C162.518 81.1092 162.356 81.9165 162.033 82.6134C161.719 83.3018 161.268 83.8415 160.682 84.2324C160.096 84.6148 159.39 84.8061 158.566 84.8061ZM158.566 83.34C159.237 83.34 159.785 83.0596 160.21 82.4987C160.635 81.9378 160.848 81.1687 160.848 80.1913C160.848 79.214 160.635 78.4449 160.21 77.884C159.785 77.3231 159.237 77.0426 158.566 77.0426C157.886 77.0426 157.334 77.3231 156.909 77.884C156.492 78.4449 156.284 79.214 156.284 80.1913C156.284 81.1687 156.492 81.9378 156.909 82.4987C157.334 83.0596 157.886 83.34 158.566 83.34Z" fill="#991008"/>
<path d="M210.98 61.2856V54.7104H214.982V55.3586H211.769V57.6693H214.503V58.308H211.769V61.2856H210.98ZM217.18 61.3984C216.791 61.3984 216.469 61.3326 216.212 61.2011C215.955 61.0696 215.765 60.8943 215.639 60.6751C215.514 60.4559 215.451 60.218 215.451 59.9612C215.451 59.4853 215.633 59.119 215.996 58.8622C216.359 58.6055 216.854 58.4771 217.48 58.4771H218.739V58.4207C218.739 58.0137 218.633 57.7068 218.42 57.5002C218.207 57.2873 217.922 57.1808 217.565 57.1808C217.258 57.1808 216.992 57.2591 216.766 57.4157C216.547 57.566 216.409 57.7883 216.353 58.0826H215.545C215.577 57.7444 215.689 57.4595 215.883 57.2278C216.084 56.9961 216.331 56.8208 216.626 56.7018C216.92 56.5765 217.233 56.5139 217.565 56.5139C218.216 56.5139 218.705 56.6893 219.03 57.0399C219.362 57.3844 219.528 57.8446 219.528 58.4207V61.2856H218.824L218.777 60.4497C218.645 60.7127 218.451 60.9381 218.194 61.126C217.944 61.3076 217.606 61.3984 217.18 61.3984ZM217.302 60.7314C217.602 60.7314 217.859 60.6532 218.072 60.4966C218.291 60.3401 218.457 60.1365 218.57 59.8861C218.683 59.6356 218.739 59.3726 218.739 59.097V59.0876H217.546C217.083 59.0876 216.754 59.1691 216.56 59.3319C216.372 59.4884 216.278 59.6857 216.278 59.9236C216.278 60.1679 216.366 60.3651 216.541 60.5154C216.723 60.6594 216.976 60.7314 217.302 60.7314ZM222.853 61.3984C222.409 61.3984 222.008 61.2982 221.651 61.0978C221.3 60.8911 221.022 60.6062 220.815 60.243C220.615 59.8735 220.514 59.4446 220.514 58.9561C220.514 58.4677 220.615 58.0419 220.815 57.6787C221.022 57.3092 221.3 57.0243 221.651 56.8239C222.008 56.6172 222.409 56.5139 222.853 56.5139C223.404 56.5139 223.868 56.6579 224.244 56.946C224.626 57.2341 224.867 57.6192 224.967 58.1014H224.159C224.096 57.8133 223.943 57.591 223.699 57.4344C223.455 57.2716 223.17 57.1902 222.844 57.1902C222.581 57.1902 222.334 57.256 222.102 57.3875C221.87 57.519 221.682 57.7162 221.538 57.9793C221.394 58.2423 221.322 58.5679 221.322 58.9561C221.322 59.3444 221.394 59.67 221.538 59.933C221.682 60.196 221.87 60.3964 222.102 60.5342C222.334 60.6657 222.581 60.7314 222.844 60.7314C223.17 60.7314 223.455 60.6532 223.699 60.4966C223.943 60.3338 224.096 60.1052 224.159 59.8109H224.967C224.873 60.2806 224.635 60.6626 224.253 60.9569C223.871 61.2512 223.404 61.3984 222.853 61.3984ZM228.163 61.3984C227.719 61.3984 227.324 61.2982 226.98 61.0978C226.635 60.8911 226.363 60.6062 226.163 60.243C225.969 59.8798 225.871 59.4508 225.871 58.9561C225.871 58.4677 225.969 58.0419 226.163 57.6787C226.357 57.3092 226.626 57.0243 226.97 56.8239C227.321 56.6172 227.725 56.5139 228.182 56.5139C228.633 56.5139 229.021 56.6172 229.347 56.8239C229.679 57.0243 229.932 57.2904 230.108 57.6223C230.283 57.9542 230.371 58.3111 230.371 58.6931C230.371 58.762 230.368 58.8309 230.361 58.8998C230.361 58.9687 230.361 59.0469 230.361 59.1346H226.651C226.67 59.4916 226.751 59.789 226.895 60.027C227.046 60.2587 227.23 60.434 227.45 60.553C227.675 60.672 227.913 60.7314 228.163 60.7314C228.489 60.7314 228.761 60.6563 228.981 60.506C229.2 60.3557 229.359 60.1522 229.46 59.8955H230.239C230.114 60.3275 229.873 60.6876 229.516 60.9757C229.165 61.2575 228.714 61.3984 228.163 61.3984ZM228.163 57.1808C227.788 57.1808 227.453 57.2967 227.158 57.5284C226.87 57.7538 226.704 58.0857 226.661 58.5241H229.591C229.572 58.1045 229.428 57.7757 229.159 57.5378C228.89 57.2998 228.558 57.1808 228.163 57.1808ZM233.902 61.2856V56.6266H234.616L234.673 57.3029C234.823 57.0525 235.023 56.8583 235.274 56.7206C235.524 56.5828 235.806 56.5139 236.119 56.5139C236.489 56.5139 236.805 56.5891 237.068 56.7394C237.337 56.8896 237.544 57.1182 237.688 57.4251C237.851 57.1433 238.073 56.921 238.355 56.7581C238.643 56.5953 238.953 56.5139 239.285 56.5139C239.842 56.5139 240.287 56.683 240.619 57.0211C240.951 57.353 241.116 57.8665 241.116 58.5616V61.2856H240.337V58.6462C240.337 58.164 240.24 57.8008 240.046 57.5566C239.852 57.3123 239.573 57.1902 239.21 57.1902C238.834 57.1902 238.521 57.3374 238.27 57.6317C238.026 57.9198 237.904 58.3331 237.904 58.8716V61.2856H237.115V58.6462C237.115 58.164 237.018 57.8008 236.824 57.5566C236.63 57.3123 236.351 57.1902 235.988 57.1902C235.618 57.1902 235.308 57.3374 235.058 57.6317C234.814 57.9198 234.692 58.3331 234.692 58.8716V61.2856H233.902ZM243.855 61.3984C243.467 61.3984 243.144 61.3326 242.887 61.2011C242.631 61.0696 242.44 60.8943 242.314 60.6751C242.189 60.4559 242.127 60.218 242.127 59.9612C242.127 59.4853 242.308 59.119 242.671 58.8622C243.035 58.6055 243.529 58.4771 244.155 58.4771H245.414V58.4207C245.414 58.0137 245.308 57.7068 245.095 57.5002C244.882 57.2873 244.597 57.1808 244.24 57.1808C243.933 57.1808 243.667 57.2591 243.442 57.4157C243.222 57.566 243.085 57.7883 243.028 58.0826H242.22C242.252 57.7444 242.364 57.4595 242.559 57.2278C242.759 56.9961 243.006 56.8208 243.301 56.7018C243.595 56.5765 243.908 56.5139 244.24 56.5139C244.891 56.5139 245.38 56.6893 245.705 57.0399C246.037 57.3844 246.203 57.8446 246.203 58.4207V61.2856H245.499L245.452 60.4497C245.32 60.7127 245.126 60.9381 244.869 61.126C244.619 61.3076 244.281 61.3984 243.855 61.3984ZM243.977 60.7314C244.278 60.7314 244.534 60.6532 244.747 60.4966C244.966 60.3401 245.132 60.1365 245.245 59.8861C245.358 59.6356 245.414 59.3726 245.414 59.097V59.0876H244.221C243.758 59.0876 243.429 59.1691 243.235 59.3319C243.047 59.4884 242.953 59.6857 242.953 59.9236C242.953 60.1679 243.041 60.3651 243.216 60.5154C243.398 60.6594 243.651 60.7314 243.977 60.7314ZM249.099 61.2856C248.674 61.2856 248.339 61.1823 248.094 60.9757C247.85 60.769 247.728 60.3964 247.728 59.8579V57.2936H246.92V56.6266H247.728L247.831 55.5088H248.517V56.6266H249.888V57.2936H248.517V59.8579C248.517 60.1522 248.577 60.3526 248.696 60.459C248.815 60.5592 249.024 60.6093 249.325 60.6093H249.813V61.2856H249.099ZM252.904 61.3984C252.46 61.3984 252.059 61.2982 251.702 61.0978C251.351 60.8911 251.072 60.6062 250.866 60.243C250.665 59.8735 250.565 59.4446 250.565 58.9561C250.565 58.4677 250.665 58.0419 250.866 57.6787C251.072 57.3092 251.351 57.0243 251.702 56.8239C252.059 56.6172 252.46 56.5139 252.904 56.5139C253.455 56.5139 253.919 56.6579 254.294 56.946C254.676 57.2341 254.917 57.6192 255.018 58.1014H254.21C254.147 57.8133 253.994 57.591 253.75 57.4344C253.505 57.2716 253.22 57.1902 252.895 57.1902C252.632 57.1902 252.384 57.256 252.153 57.3875C251.921 57.519 251.733 57.7162 251.589 57.9793C251.445 58.2423 251.373 58.5679 251.373 58.9561C251.373 59.3444 251.445 59.67 251.589 59.933C251.733 60.196 251.921 60.3964 252.153 60.5342C252.384 60.6657 252.632 60.7314 252.895 60.7314C253.22 60.7314 253.505 60.6532 253.75 60.4966C253.994 60.3338 254.147 60.1052 254.21 59.8109H255.018C254.924 60.2806 254.686 60.6626 254.304 60.9569C253.922 61.2512 253.455 61.3984 252.904 61.3984ZM256.12 61.2856V54.5226H256.909V57.4251C257.065 57.137 257.287 56.9147 257.575 56.7581C257.864 56.5953 258.177 56.5139 258.515 56.5139C259.053 56.5139 259.485 56.683 259.811 57.0211C260.137 57.353 260.299 57.8665 260.299 58.5616V61.2856H259.52V58.6462C259.52 57.6755 259.128 57.1902 258.346 57.1902C257.939 57.1902 257.597 57.3374 257.322 57.6317C257.046 57.9198 256.909 58.3331 256.909 58.8716V61.2856H256.12Z" fill="#707070"/>
<path d="M215.527 84.1627C214.744 84.1627 214.083 84.0124 213.547 83.7118C213.01 83.4005 212.591 82.998 212.291 82.5041C211.99 82.0103 211.813 81.479 211.759 80.91H213.676C213.761 81.4038 213.965 81.7849 214.287 82.0533C214.62 82.3217 215.039 82.4558 215.543 82.4558C216.263 82.4558 216.842 82.1284 217.283 81.4736C217.723 80.808 217.959 79.7989 217.991 78.4463C217.733 78.8864 217.342 79.2514 216.816 79.5413C216.3 79.8311 215.731 79.976 215.109 79.976C214.486 79.976 213.901 79.8258 213.353 79.5252C212.806 79.2246 212.36 78.8006 212.017 78.2531C211.673 77.7056 211.502 77.0615 211.502 76.3208C211.502 75.6445 211.668 75.0165 212.001 74.4368C212.334 73.8571 212.795 73.3901 213.386 73.0358C213.976 72.6816 214.669 72.5045 215.463 72.5045C216.311 72.5045 217.025 72.6601 217.605 72.9714C218.184 73.2827 218.646 73.7014 218.989 74.2274C219.344 74.7534 219.596 75.3385 219.746 75.9826C219.907 76.6267 219.988 77.2869 219.988 77.9632C219.988 79.2192 219.811 80.3142 219.456 81.2481C219.113 82.1714 218.603 82.8906 217.927 83.4059C217.261 83.9104 216.461 84.1627 215.527 84.1627ZM215.592 78.237C215.989 78.237 216.349 78.1511 216.671 77.9793C216.993 77.7968 217.245 77.5607 217.427 77.2708C217.61 76.9702 217.701 76.6374 217.701 76.2725C217.701 75.6928 217.497 75.2151 217.089 74.8393C216.692 74.4636 216.188 74.2757 215.576 74.2757C214.974 74.2757 214.475 74.4636 214.078 74.8393C213.681 75.2043 213.482 75.6713 213.482 76.2403C213.482 76.8414 213.681 77.3245 214.078 77.6895C214.475 78.0545 214.98 78.237 215.592 78.237ZM225.72 84.1627C224.947 84.1627 224.25 84.0285 223.627 83.7601C223.004 83.481 222.505 83.0892 222.129 82.5847C221.764 82.0801 221.582 81.4951 221.582 80.8295C221.582 80.1424 221.759 79.5413 222.113 79.026C222.478 78.5107 222.956 78.1404 223.546 77.9149C223.031 77.6895 222.623 77.3674 222.323 76.9488C222.022 76.5194 221.872 76.0417 221.872 75.5156C221.872 74.9789 222.017 74.4851 222.307 74.0342C222.596 73.5726 223.026 73.2022 223.595 72.9231C224.174 72.644 224.883 72.5045 225.72 72.5045C226.558 72.5045 227.261 72.644 227.83 72.9231C228.399 73.2022 228.828 73.5726 229.118 74.0342C229.408 74.4851 229.553 74.9789 229.553 75.5156C229.553 76.0309 229.397 76.5086 229.086 76.9488C228.785 77.3782 228.383 77.7002 227.878 77.9149C228.479 78.1404 228.957 78.5107 229.311 79.026C229.665 79.5413 229.843 80.1424 229.843 80.8295C229.843 81.4951 229.66 82.0801 229.295 82.5847C228.93 83.0892 228.431 83.481 227.797 83.7601C227.175 84.0285 226.482 84.1627 225.72 84.1627ZM225.72 77.303C226.278 77.303 226.719 77.1581 227.041 76.8683C227.363 76.5784 227.524 76.208 227.524 75.7572C227.524 75.2634 227.363 74.8769 227.041 74.5978C226.729 74.3187 226.289 74.1791 225.72 74.1791C225.141 74.1791 224.695 74.3187 224.384 74.5978C224.072 74.8769 223.917 75.2634 223.917 75.7572C223.917 76.2188 224.072 76.5945 224.384 76.8844C224.706 77.1635 225.151 77.303 225.72 77.303ZM225.72 82.4397C226.407 82.4397 226.928 82.2733 227.282 81.9406C227.636 81.597 227.814 81.1676 227.814 80.6524C227.814 80.0834 227.626 79.6379 227.25 79.3158C226.885 78.9938 226.375 78.8328 225.72 78.8328C225.065 78.8328 224.545 78.9938 224.158 79.3158C223.783 79.6379 223.595 80.0834 223.595 80.6524C223.595 81.1676 223.772 81.597 224.126 81.9406C224.491 82.2733 225.022 82.4397 225.72 82.4397ZM230.878 85.7569L234.904 71.4578H236.916L232.875 85.7569H230.878Z" fill="#0A6A4A"/>
<path d="M239.625 84.6531V77.5908L238.159 77.935V76.6857L240.314 75.7296H241.321V84.6531H239.625ZM246.71 84.8061C245.885 84.8061 245.18 84.6148 244.594 84.2324C244.007 83.8415 243.552 83.3018 243.23 82.6134C242.915 81.9165 242.758 81.1092 242.758 80.1913C242.758 79.282 242.915 78.4789 243.23 77.782C243.552 77.0851 244.007 76.5454 244.594 76.163C245.18 75.7721 245.885 75.5766 246.71 75.5766C247.534 75.5766 248.239 75.7721 248.826 76.163C249.412 76.5454 249.863 77.0851 250.177 77.782C250.5 78.4789 250.662 79.282 250.662 80.1913C250.662 81.1092 250.5 81.9165 250.177 82.6134C249.863 83.3018 249.412 83.8415 248.826 84.2324C248.239 84.6148 247.534 84.8061 246.71 84.8061ZM246.71 83.34C247.381 83.34 247.929 83.0596 248.354 82.4987C248.779 81.9378 248.992 81.1687 248.992 80.1913C248.992 79.214 248.779 78.4449 248.354 77.884C247.929 77.3231 247.381 77.0426 246.71 77.0426C246.03 77.0426 245.477 77.3231 245.052 77.884C244.636 78.4449 244.428 79.214 244.428 80.1913C244.428 81.1687 244.636 81.9378 245.052 82.4987C245.477 83.0596 246.03 83.34 246.71 83.34ZM255.76 84.8061C254.936 84.8061 254.23 84.6148 253.644 84.2324C253.058 83.8415 252.603 83.3018 252.28 82.6134C251.966 81.9165 251.808 81.1092 251.808 80.1913C251.808 79.282 251.966 78.4789 252.28 77.782C252.603 77.0851 253.058 76.5454 253.644 76.163C254.23 75.7721 254.936 75.5766 255.76 75.5766C256.585 75.5766 257.29 75.7721 257.876 76.163C258.463 76.5454 258.913 77.0851 259.228 77.782C259.551 78.4789 259.712 79.282 259.712 80.1913C259.712 81.1092 259.551 81.9165 259.228 82.6134C258.913 83.3018 258.463 83.8415 257.876 84.2324C257.29 84.6148 256.585 84.8061 255.76 84.8061ZM255.76 83.34C256.432 83.34 256.98 83.0596 257.405 82.4987C257.83 81.9378 258.042 81.1687 258.042 80.1913C258.042 79.214 257.83 78.4449 257.405 77.884C256.98 77.3231 256.432 77.0426 255.76 77.0426C255.08 77.0426 254.528 77.3231 254.103 77.884C253.687 78.4449 253.478 79.214 253.478 80.1913C253.478 81.1687 253.687 81.9378 254.103 82.4987C254.528 83.0596 255.08 83.34 255.76 83.34Z" fill="#0A6A4A"/>
</svg>
