<svg width="265" height="29" viewBox="0 0 265 29" fill="none" xmlns="http://www.w3.org/2000/svg">
<rect x="0.575195" y="0.175049" width="263.478" height="28.587" rx="6" fill="white"/>
<path d="M12.8712 18.8115C12.2066 18.8115 11.6313 18.6507 11.1453 18.3291C10.6665 18.0003 10.2984 17.5465 10.0411 16.9676C9.78385 16.3816 9.65521 15.7027 9.65521 14.9308C9.65521 14.159 9.78385 13.4836 10.0411 12.9047C10.2984 12.3187 10.6665 11.8649 11.1453 11.5433C11.6313 11.2145 12.2066 11.0501 12.8712 11.0501C13.5359 11.0501 14.1076 11.2145 14.5865 11.5433C15.0653 11.8649 15.4334 12.3187 15.6906 12.9047C15.9479 13.4836 16.0766 14.159 16.0766 14.9308C16.0766 15.7027 15.9479 16.3816 15.6906 16.9676C15.4334 17.5465 15.0653 18.0003 14.5865 18.3291C14.1076 18.6507 13.5359 18.8115 12.8712 18.8115ZM12.8712 18.0182C13.3072 18.0182 13.6967 17.8967 14.0397 17.6537C14.3899 17.4036 14.6615 17.0498 14.8545 16.5924C15.0546 16.1279 15.1546 15.574 15.1546 14.9308C15.1546 14.2876 15.0546 13.7373 14.8545 13.2799C14.6615 12.8225 14.3899 12.4723 14.0397 12.2294C13.6967 11.9792 13.3072 11.8542 12.8712 11.8542C12.4281 11.8542 12.0351 11.9792 11.692 12.2294C11.349 12.4723 11.0774 12.8225 10.8773 13.2799C10.6772 13.7373 10.5771 14.2876 10.5771 14.9308C10.5771 15.574 10.6772 16.1279 10.8773 16.5924C11.0774 17.0498 11.349 17.4036 11.692 17.6537C12.0351 17.8967 12.4281 18.0182 12.8712 18.0182ZM19.8539 18.8115C19.3608 18.8115 18.9177 18.7222 18.5246 18.5435C18.1315 18.3577 17.8206 18.104 17.5919 17.7824C17.3704 17.4536 17.2596 17.0748 17.2596 16.646C17.2596 16.1886 17.3918 15.7777 17.6563 15.4132C17.9278 15.0487 18.2852 14.8058 18.7283 14.6843C18.3209 14.5485 18.0065 14.3305 17.7849 14.0303C17.5634 13.7302 17.4526 13.4014 17.4526 13.0441C17.4526 12.6796 17.5491 12.3473 17.742 12.0471C17.935 11.7398 18.2101 11.4968 18.5675 11.3181C18.9248 11.1395 19.3536 11.0501 19.8539 11.0501C20.3542 11.0501 20.783 11.1395 21.1403 11.3181C21.4976 11.4968 21.7728 11.7398 21.9658 12.0471C22.1587 12.3473 22.2552 12.6796 22.2552 13.0441C22.2552 13.3943 22.1444 13.723 21.9229 14.0303C21.7013 14.3305 21.3869 14.5485 20.9795 14.6843C21.4226 14.8058 21.7764 15.0487 22.0408 15.4132C22.3124 15.7777 22.4482 16.1886 22.4482 16.646C22.4482 17.0748 22.3338 17.4536 22.1051 17.7824C21.8836 18.104 21.5763 18.3577 21.1832 18.5435C20.7901 18.7222 20.347 18.8115 19.8539 18.8115ZM19.8539 14.3627C20.3113 14.3627 20.6722 14.2483 20.9366 14.0196C21.2082 13.7838 21.344 13.4765 21.344 13.0977C21.344 12.676 21.2118 12.358 20.9473 12.1436C20.6829 11.9292 20.3184 11.822 19.8539 11.822C19.3894 11.822 19.0249 11.9292 18.7604 12.1436C18.5032 12.358 18.3745 12.676 18.3745 13.0977C18.3745 13.4765 18.5067 13.7838 18.7712 14.0196C19.0356 14.2483 19.3965 14.3627 19.8539 14.3627ZM19.8539 18.0182C20.4185 18.0182 20.8401 17.8896 21.1189 17.6323C21.4047 17.3679 21.5477 17.0212 21.5477 16.5924C21.5477 16.1065 21.394 15.7384 21.0867 15.4883C20.7794 15.2381 20.3685 15.1131 19.8539 15.1131C19.3393 15.1131 18.9284 15.2381 18.6211 15.4883C18.3138 15.7384 18.1601 16.1065 18.1601 16.5924C18.1601 17.0212 18.2995 17.3679 18.5782 17.6323C18.8641 17.8896 19.2893 18.0182 19.8539 18.0182ZM24.1779 18.7365C23.9992 18.7365 23.8491 18.6793 23.7276 18.5649C23.6133 18.4434 23.5561 18.2969 23.5561 18.1254C23.5561 17.9539 23.6133 17.811 23.7276 17.6966C23.8491 17.5751 23.9992 17.5144 24.1779 17.5144C24.3494 17.5144 24.4923 17.5751 24.6067 17.6966C24.7282 17.811 24.7889 17.9539 24.7889 18.1254C24.7889 18.2969 24.7282 18.4434 24.6067 18.5649C24.4923 18.6793 24.3494 18.7365 24.1779 18.7365ZM24.1779 14.4591C23.9992 14.4591 23.8491 14.402 23.7276 14.2876C23.6133 14.1661 23.5561 14.0196 23.5561 13.8481C23.5561 13.6766 23.6133 13.5336 23.7276 13.4193C23.8491 13.2978 23.9992 13.237 24.1779 13.237C24.3494 13.237 24.4923 13.2978 24.6067 13.4193C24.7282 13.5336 24.7889 13.6766 24.7889 13.8481C24.7889 14.0196 24.7282 14.1661 24.6067 14.2876C24.4923 14.402 24.3494 14.4591 24.1779 14.4591ZM29.4545 18.6829V17.0748H25.6489V16.378L29.2937 11.1788H30.3443V16.2816H31.4592V17.0748H30.3443V18.6829H29.4545ZM26.6458 16.2816H29.4974V12.1758L26.6458 16.2816ZM35.9452 18.6829V17.0748H32.1396V16.378L35.7844 11.1788H36.835V16.2816H37.9499V17.0748H36.835V18.6829H35.9452ZM33.1365 16.2816H35.9881V12.1758L33.1365 16.2816ZM40.7528 18.8115C40.3097 18.8115 39.9417 18.7365 39.6487 18.5864C39.3556 18.4363 39.1377 18.2362 38.9947 17.9861C38.8518 17.7359 38.7803 17.4643 38.7803 17.1713C38.7803 16.6282 38.9876 16.2101 39.4021 15.9171C39.8166 15.6241 40.3812 15.4775 41.0959 15.4775H42.5324V15.4132C42.5324 14.9487 42.4109 14.5985 42.1679 14.3627C41.9249 14.1197 41.5997 13.9982 41.1923 13.9982C40.8422 13.9982 40.5384 14.0875 40.2811 14.2662C40.031 14.4377 39.8738 14.6914 39.8095 15.0273H38.8875C38.9233 14.6414 39.0519 14.3162 39.2735 14.0518C39.5021 13.7873 39.7844 13.5872 40.1203 13.4514C40.4562 13.3085 40.8136 13.237 41.1923 13.237C41.9356 13.237 42.4931 13.4372 42.8647 13.8374C43.2435 14.2304 43.4329 14.7557 43.4329 15.4132V18.6829H42.6288L42.5752 17.7288C42.4252 18.0289 42.2036 18.2862 41.9106 18.5006C41.6247 18.7079 41.2388 18.8115 40.7528 18.8115ZM40.8922 18.0504C41.2352 18.0504 41.5282 17.961 41.7712 17.7824C42.0214 17.6037 42.2108 17.3714 42.3394 17.0856C42.468 16.7997 42.5324 16.4995 42.5324 16.1851V16.1744H41.1709C40.6421 16.1744 40.2668 16.2673 40.0453 16.4531C39.8309 16.6317 39.7237 16.8569 39.7237 17.1284C39.7237 17.4072 39.8237 17.6323 40.0239 17.8038C40.2311 17.9682 40.5206 18.0504 40.8922 18.0504ZM44.7838 18.6829V13.3657H45.5985L45.6628 14.1375C45.8343 13.8517 46.063 13.6301 46.3489 13.4729C46.6348 13.3157 46.9564 13.237 47.3137 13.237C47.7354 13.237 48.0963 13.3228 48.3964 13.4943C48.7037 13.6659 48.9396 13.9267 49.104 14.2769C49.2898 13.9553 49.5435 13.7016 49.8651 13.5158C50.1938 13.33 50.5476 13.237 50.9264 13.237C51.5624 13.237 52.0699 13.43 52.4486 13.8159C52.8274 14.1947 53.0168 14.7807 53.0168 15.574V18.6829H52.127V15.6705C52.127 15.1202 52.0163 14.7057 51.7947 14.427C51.5732 14.1483 51.2551 14.0089 50.8406 14.0089C50.4118 14.0089 50.0545 14.1768 49.7686 14.5127C49.4899 14.8415 49.3505 15.3132 49.3505 15.9278V18.6829H48.45V15.6705C48.45 15.1202 48.3393 14.7057 48.1177 14.427C47.8962 14.1483 47.5781 14.0089 47.1636 14.0089C46.742 14.0089 46.3882 14.1768 46.1023 14.5127C45.8236 14.8415 45.6842 15.3132 45.6842 15.9278V18.6829H44.7838Z" fill="#707070"/>
<ellipse cx="64.0743" cy="12.4314" rx="0.607473" ry="0.607452" fill="black"/>
<ellipse cx="66.1944" cy="12.4314" rx="0.607473" ry="0.607452" fill="black"/>
<path d="M63.8477 14.0933C63.8477 14.0933 64.1573 14.6939 65.0864 14.6939C66.0155 14.6939 66.3252 14.0933 66.3252 14.0933" stroke="black" stroke-width="0.929076" stroke-linecap="round"/>
<rect x="67.6523" y="15.7958" width="1.76967" height="0.714674" rx="0.357337" fill="black"/>
<rect x="66.4717" y="16.9756" width="2.94945" height="0.714674" rx="0.357337" fill="black"/>
<rect x="61.6797" y="9.82324" width="9.29076" height="9.29076" rx="1.42935" stroke="black" stroke-width="1.07201"/>
<path d="M84.2708 17.9685V10.4644H88.8376V11.2041H85.1713V13.8413H88.2909V14.5702H85.1713V17.9685H84.2708ZM89.9437 17.9685V12.6513H90.7584L90.8335 13.6697C90.9978 13.3196 91.248 13.0408 91.5839 12.8336C91.9198 12.6263 92.3343 12.5227 92.8274 12.5227V13.4661H92.5808C92.2664 13.4661 91.9769 13.5232 91.7125 13.6376C91.4481 13.7448 91.2373 13.9306 91.08 14.195C90.9228 14.4595 90.8442 14.8239 90.8442 15.2885V17.9685H89.9437ZM96.0619 18.0971C95.5617 18.0971 95.1114 17.9828 94.7112 17.7541C94.311 17.5254 93.993 17.2038 93.7571 16.7893C93.5284 16.3676 93.4141 15.8745 93.4141 15.3099C93.4141 14.7453 93.532 14.2558 93.7678 13.8413C94.0037 13.4196 94.3217 13.0944 94.7219 12.8657C95.1293 12.637 95.5831 12.5227 96.0834 12.5227C96.5837 12.5227 97.0339 12.637 97.4341 12.8657C97.8343 13.0944 98.1488 13.4196 98.3775 13.8413C98.6133 14.2558 98.7312 14.7453 98.7312 15.3099C98.7312 15.8745 98.6133 16.3676 98.3775 16.7893C98.1416 17.2038 97.82 17.5254 97.4127 17.7541C97.0125 17.9828 96.5622 18.0971 96.0619 18.0971ZM96.0619 17.3253C96.3693 17.3253 96.6551 17.2503 96.9196 17.1002C97.184 16.9501 97.3984 16.725 97.5628 16.4248C97.7271 16.1246 97.8093 15.753 97.8093 15.3099C97.8093 14.8668 97.7271 14.4952 97.5628 14.195C97.4055 13.8949 97.1947 13.6697 96.9303 13.5197C96.6658 13.3696 96.3835 13.2945 96.0834 13.2945C95.7761 13.2945 95.4902 13.3696 95.2258 13.5197C94.9613 13.6697 94.7469 13.8949 94.5826 14.195C94.4182 14.4952 94.336 14.8668 94.336 15.3099C94.336 15.753 94.4182 16.1246 94.5826 16.4248C94.7469 16.725 94.9578 16.9501 95.2151 17.1002C95.4795 17.2503 95.7618 17.3253 96.0619 17.3253ZM99.9833 17.9685V12.6513H100.798L100.852 13.6054C101.023 13.2695 101.27 13.0051 101.591 12.8121C101.913 12.6192 102.277 12.5227 102.685 12.5227C103.314 12.5227 103.814 12.7157 104.186 13.1016C104.564 13.4804 104.754 14.0664 104.754 14.8597V17.9685H103.853V14.9562C103.853 13.8484 103.396 13.2945 102.481 13.2945C102.024 13.2945 101.641 13.4625 101.334 13.7984C101.034 14.1271 100.884 14.5988 100.884 15.2134V17.9685H99.9833ZM108.219 17.9685C107.733 17.9685 107.351 17.8506 107.072 17.6147C106.793 17.3789 106.654 16.9537 106.654 16.339V13.4125H105.732V12.6513H106.654L106.772 11.3756H107.555V12.6513H109.12V13.4125H107.555V16.339C107.555 16.6749 107.622 16.9036 107.758 17.0251C107.894 17.1395 108.133 17.1967 108.476 17.1967H109.034V17.9685H108.219ZM113.154 17.9685V10.4644H114.055V17.9685H113.154ZM115.646 17.9685V10.4644H117.951C119.273 10.4644 120.245 10.8003 120.867 11.4721C121.496 12.1439 121.81 13.0658 121.81 14.2379C121.81 15.3885 121.496 16.2997 120.867 16.9715C120.245 17.6362 119.273 17.9685 117.951 17.9685H115.646ZM116.546 17.2181H117.929C118.658 17.2181 119.237 17.1002 119.666 16.8643C120.102 16.6213 120.413 16.2783 120.599 15.8352C120.784 15.385 120.877 14.8525 120.877 14.2379C120.877 13.609 120.784 13.0694 120.599 12.6192C120.413 12.1689 120.102 11.8223 119.666 11.5793C119.237 11.3363 118.658 11.2148 117.929 11.2148H116.546V17.2181ZM127.834 18.0971C127.205 18.0971 126.705 17.9078 126.333 17.529C125.962 17.1431 125.776 16.5535 125.776 15.7602V12.6513H126.676V15.6637C126.676 16.7714 127.13 17.3253 128.038 17.3253C128.502 17.3253 128.885 17.1609 129.185 16.8322C129.492 16.4963 129.646 16.021 129.646 15.4064V12.6513H130.546V17.9685H129.732L129.667 17.0144C129.503 17.3503 129.256 17.6147 128.928 17.8077C128.606 18.0007 128.241 18.0971 127.834 18.0971ZM132.028 20.3269V12.6513H132.843L132.929 13.5304C133.101 13.2731 133.343 13.0408 133.658 12.8336C133.98 12.6263 134.387 12.5227 134.88 12.5227C135.409 12.5227 135.87 12.6442 136.263 12.8872C136.656 13.1302 136.96 13.4625 137.174 13.8841C137.396 14.3058 137.506 14.7846 137.506 15.3206C137.506 15.8566 137.396 16.3355 137.174 16.7571C136.96 17.1716 136.652 17.5004 136.252 17.7434C135.859 17.9792 135.398 18.0971 134.869 18.0971C134.433 18.0971 134.044 18.0078 133.701 17.8291C133.365 17.6505 133.108 17.4003 132.929 17.0787V20.3269H132.028ZM134.773 17.3146C135.13 17.3146 135.445 17.2324 135.716 17.068C135.988 16.8965 136.202 16.6607 136.359 16.3605C136.517 16.0603 136.595 15.7101 136.595 15.3099C136.595 14.9097 136.517 14.5595 136.359 14.2593C136.202 13.9592 135.988 13.7269 135.716 13.5625C135.445 13.391 135.13 13.3053 134.773 13.3053C134.416 13.3053 134.101 13.391 133.829 13.5625C133.558 13.7269 133.343 13.9592 133.186 14.2593C133.029 14.5595 132.95 14.9097 132.95 15.3099C132.95 15.7101 133.029 16.0603 133.186 16.3605C133.343 16.6607 133.558 16.8965 133.829 17.068C134.101 17.2324 134.416 17.3146 134.773 17.3146ZM138.76 17.9685V10.25H139.66V17.9685H138.76ZM143.559 18.0971C143.059 18.0971 142.609 17.9828 142.208 17.7541C141.808 17.5254 141.49 17.2038 141.254 16.7893C141.026 16.3676 140.911 15.8745 140.911 15.3099C140.911 14.7453 141.029 14.2558 141.265 13.8413C141.501 13.4196 141.819 13.0944 142.219 12.8657C142.626 12.637 143.08 12.5227 143.581 12.5227C144.081 12.5227 144.531 12.637 144.931 12.8657C145.332 13.0944 145.646 13.4196 145.875 13.8413C146.111 14.2558 146.228 14.7453 146.228 15.3099C146.228 15.8745 146.111 16.3676 145.875 16.7893C145.639 17.2038 145.317 17.5254 144.91 17.7541C144.51 17.9828 144.059 18.0971 143.559 18.0971ZM143.559 17.3253C143.866 17.3253 144.152 17.2503 144.417 17.1002C144.681 16.9501 144.896 16.725 145.06 16.4248C145.224 16.1246 145.307 15.753 145.307 15.3099C145.307 14.8668 145.224 14.4952 145.06 14.195C144.903 13.8949 144.692 13.6697 144.427 13.5197C144.163 13.3696 143.881 13.2945 143.581 13.2945C143.273 13.2945 142.987 13.3696 142.723 13.5197C142.459 13.6697 142.244 13.8949 142.08 14.195C141.915 14.4952 141.833 14.8668 141.833 15.3099C141.833 15.753 141.915 16.1246 142.08 16.4248C142.244 16.725 142.455 16.9501 142.712 17.1002C142.977 17.2503 143.259 17.3253 143.559 17.3253ZM149.249 18.0971C148.806 18.0971 148.438 18.0221 148.145 17.872C147.852 17.7219 147.634 17.5218 147.491 17.2717C147.348 17.0216 147.277 16.75 147.277 16.457C147.277 15.9138 147.484 15.4957 147.899 15.2027C148.313 14.9097 148.878 14.7632 149.592 14.7632H151.029V14.6989C151.029 14.2343 150.907 13.8841 150.664 13.6483C150.421 13.4053 150.096 13.2838 149.689 13.2838C149.339 13.2838 149.035 13.3732 148.778 13.5518C148.528 13.7233 148.37 13.9771 148.306 14.3129H147.384C147.42 13.927 147.548 13.6018 147.77 13.3374C147.999 13.073 148.281 12.8729 148.617 12.7371C148.953 12.5942 149.31 12.5227 149.689 12.5227C150.432 12.5227 150.99 12.7228 151.361 13.123C151.74 13.5161 151.929 14.0414 151.929 14.6989V17.9685H151.125L151.072 17.0144C150.922 17.3146 150.7 17.5719 150.407 17.7863C150.121 17.9935 149.735 18.0971 149.249 18.0971ZM149.389 17.336C149.732 17.336 150.025 17.2467 150.268 17.068C150.518 16.8893 150.707 16.6571 150.836 16.3712C150.965 16.0853 151.029 15.7852 151.029 15.4707V15.46H149.667C149.139 15.46 148.763 15.5529 148.542 15.7387C148.327 15.9174 148.22 16.1425 148.22 16.4141C148.22 16.6928 148.32 16.9179 148.52 17.0895C148.728 17.2538 149.017 17.336 149.389 17.336ZM155.692 18.0971C155.163 18.0971 154.699 17.9757 154.299 17.7327C153.906 17.4897 153.598 17.1574 153.377 16.7357C153.162 16.314 153.055 15.8352 153.055 15.2992C153.055 14.7632 153.166 14.2879 153.387 13.8734C153.609 13.4518 153.916 13.123 154.309 12.8872C154.702 12.6442 155.167 12.5227 155.703 12.5227C156.139 12.5227 156.525 12.612 156.861 12.7907C157.197 12.9694 157.458 13.2195 157.643 13.5411V10.25H158.544V17.9685H157.729L157.643 17.0895C157.472 17.3467 157.225 17.579 156.904 17.7863C156.582 17.9935 156.178 18.0971 155.692 18.0971ZM155.789 17.3146C156.146 17.3146 156.461 17.2324 156.732 17.068C157.011 16.8965 157.225 16.6607 157.375 16.3605C157.533 16.0603 157.611 15.7101 157.611 15.3099C157.611 14.9097 157.533 14.5595 157.375 14.2593C157.225 13.9592 157.011 13.7269 156.732 13.5625C156.461 13.391 156.146 13.3053 155.789 13.3053C155.439 13.3053 155.124 13.391 154.845 13.5625C154.574 13.7269 154.359 13.9592 154.202 14.2593C154.052 14.5595 153.977 14.9097 153.977 15.3099C153.977 15.7101 154.052 16.0603 154.202 16.3605C154.359 16.6607 154.574 16.8965 154.845 17.068C155.124 17.2324 155.439 17.3146 155.789 17.3146ZM163.138 17.9685V13.4125H162.334V12.6513H163.138V11.7294C163.138 11.2148 163.267 10.8396 163.524 10.6038C163.781 10.3679 164.157 10.25 164.65 10.25H165.186V11.0219H164.789C164.518 11.0219 164.325 11.079 164.21 11.1934C164.096 11.3006 164.039 11.4864 164.039 11.7508V12.6513H165.347V13.4125H164.039V17.9685H163.138ZM167.978 18.0971C167.535 18.0971 167.167 18.0221 166.874 17.872C166.581 17.7219 166.363 17.5218 166.22 17.2717C166.077 17.0216 166.006 16.75 166.006 16.457C166.006 15.9138 166.213 15.4957 166.627 15.2027C167.042 14.9097 167.606 14.7632 168.321 14.7632H169.758V14.6989C169.758 14.2343 169.636 13.8841 169.393 13.6483C169.15 13.4053 168.825 13.2838 168.418 13.2838C168.067 13.2838 167.764 13.3732 167.506 13.5518C167.256 13.7233 167.099 13.9771 167.035 14.3129H166.113C166.149 13.927 166.277 13.6018 166.499 13.3374C166.727 13.073 167.01 12.8729 167.346 12.7371C167.682 12.5942 168.039 12.5227 168.418 12.5227C169.161 12.5227 169.718 12.7228 170.09 13.123C170.469 13.5161 170.658 14.0414 170.658 14.6989V17.9685H169.854L169.801 17.0144C169.65 17.3146 169.429 17.5719 169.136 17.7863C168.85 17.9935 168.464 18.0971 167.978 18.0971ZM168.117 17.336C168.461 17.336 168.754 17.2467 168.997 17.068C169.247 16.8893 169.436 16.6571 169.565 16.3712C169.693 16.0853 169.758 15.7852 169.758 15.4707V15.46H168.396C167.867 15.46 167.492 15.5529 167.271 15.7387C167.056 15.9174 166.949 16.1425 166.949 16.4141C166.949 16.6928 167.049 16.9179 167.249 17.0895C167.456 17.2538 167.746 17.336 168.117 17.336ZM172.556 11.4721C172.377 11.4721 172.227 11.4149 172.106 11.3006C171.991 11.1791 171.934 11.029 171.934 10.8504C171.934 10.6788 171.991 10.5359 172.106 10.4215C172.227 10.3072 172.377 10.25 172.556 10.25C172.727 10.25 172.874 10.3072 172.995 10.4215C173.117 10.5359 173.178 10.6788 173.178 10.8504C173.178 11.029 173.117 11.1791 172.995 11.3006C172.874 11.4149 172.727 11.4721 172.556 11.4721ZM172.106 17.9685V12.6513H173.006V17.9685H172.106ZM174.574 17.9685V10.25H175.474V17.9685H174.574ZM179.341 18.0971C178.834 18.0971 178.383 17.9828 177.99 17.7541C177.597 17.5183 177.286 17.1931 177.058 16.7786C176.836 16.3641 176.725 15.8745 176.725 15.3099C176.725 14.7525 176.836 14.2665 177.058 13.852C177.279 13.4303 177.586 13.1051 177.979 12.8765C178.38 12.6406 178.841 12.5227 179.362 12.5227C179.877 12.5227 180.32 12.6406 180.692 12.8765C181.07 13.1051 181.36 13.4089 181.56 13.7877C181.76 14.1664 181.86 14.5738 181.86 15.0098C181.86 15.0884 181.857 15.167 181.849 15.2456C181.849 15.3242 181.849 15.4135 181.849 15.5136H177.615C177.636 15.921 177.729 16.2604 177.894 16.532C178.065 16.7964 178.276 16.9965 178.526 17.1323C178.783 17.2681 179.055 17.336 179.341 17.336C179.713 17.336 180.023 17.2503 180.274 17.0787C180.524 16.9072 180.706 16.6749 180.82 16.3819H181.71C181.567 16.8751 181.292 17.286 180.885 17.6147C180.484 17.9363 179.97 18.0971 179.341 18.0971ZM179.341 13.2838C178.912 13.2838 178.53 13.416 178.194 13.6805C177.865 13.9377 177.676 14.3165 177.626 14.8168H180.97C180.949 14.338 180.785 13.9628 180.477 13.6912C180.17 13.4196 179.791 13.2838 179.341 13.2838ZM185.466 18.0971C184.937 18.0971 184.472 17.9757 184.072 17.7327C183.679 17.4897 183.372 17.1574 183.15 16.7357C182.936 16.314 182.829 15.8352 182.829 15.2992C182.829 14.7632 182.939 14.2879 183.161 13.8734C183.382 13.4518 183.69 13.123 184.083 12.8872C184.476 12.6442 184.94 12.5227 185.476 12.5227C185.912 12.5227 186.298 12.612 186.634 12.7907C186.97 12.9694 187.231 13.2195 187.417 13.5411V10.25H188.317V17.9685H187.503L187.417 17.0895C187.245 17.3467 186.999 17.579 186.677 17.7863C186.355 17.9935 185.952 18.0971 185.466 18.0971ZM185.562 17.3146C185.92 17.3146 186.234 17.2324 186.506 17.068C186.784 16.8965 186.999 16.6607 187.149 16.3605C187.306 16.0603 187.385 15.7101 187.385 15.3099C187.385 14.9097 187.306 14.5595 187.149 14.2593C186.999 13.9592 186.784 13.7269 186.506 13.5625C186.234 13.391 185.92 13.3053 185.562 13.3053C185.212 13.3053 184.898 13.391 184.619 13.5625C184.347 13.7269 184.133 13.9592 183.976 14.2593C183.826 14.5595 183.751 14.9097 183.751 15.3099C183.751 15.7101 183.826 16.0603 183.976 16.3605C184.133 16.6607 184.347 16.8965 184.619 17.068C184.898 17.2324 185.212 17.3146 185.562 17.3146ZM194.541 19.5229C194.155 19.1513 193.798 18.7082 193.469 18.1936C193.14 17.6862 192.876 17.1145 192.676 16.4784C192.483 15.8352 192.386 15.142 192.386 14.3987C192.386 13.6554 192.483 12.9658 192.676 12.3297C192.876 11.6865 193.14 11.1112 193.469 10.6038C193.798 10.0892 194.155 9.64613 194.541 9.2745H195.463V9.36026C194.806 10.0035 194.277 10.7574 193.876 11.6222C193.483 12.4798 193.287 13.4053 193.287 14.3987C193.287 15.3921 193.487 16.3212 193.887 17.1859C194.287 18.0435 194.813 18.794 195.463 19.4372V19.5229H194.541ZM199.001 18.0971C198.523 18.0971 198.09 18.0114 197.704 17.8399C197.318 17.6612 197.008 17.3968 196.772 17.0466C196.543 16.6964 196.421 16.2604 196.407 15.7387H197.318C197.326 16.1675 197.476 16.5392 197.769 16.8536C198.062 17.1609 198.473 17.3146 199.001 17.3146C199.53 17.3146 199.927 17.1681 200.191 16.8751C200.463 16.582 200.599 16.2283 200.599 15.8138C200.599 15.4636 200.513 15.1777 200.341 14.9562C200.177 14.7346 199.952 14.5702 199.666 14.463C199.387 14.3558 199.08 14.3022 198.744 14.3022H198.187V13.5411H198.744C199.23 13.5411 199.609 13.4303 199.881 13.2088C200.159 12.9872 200.299 12.6763 200.299 12.2761C200.299 11.9402 200.188 11.6651 199.966 11.4507C199.752 11.2291 199.43 11.1184 199.001 11.1184C198.587 11.1184 198.255 11.2434 198.004 11.4936C197.754 11.7365 197.615 12.0439 197.586 12.4155H196.675C196.697 12.0081 196.804 11.6472 196.997 11.3328C197.197 11.0183 197.468 10.7753 197.812 10.6038C198.155 10.4251 198.551 10.3358 199.001 10.3358C199.487 10.3358 199.891 10.4215 200.213 10.5931C200.542 10.7646 200.788 10.9933 200.953 11.2792C201.124 11.565 201.21 11.8795 201.21 12.2225C201.21 12.6013 201.106 12.9479 200.899 13.2624C200.692 13.5697 200.381 13.7769 199.966 13.8841C200.409 13.9771 200.777 14.1879 201.07 14.5166C201.363 14.8454 201.51 15.2778 201.51 15.8138C201.51 16.2283 201.413 16.6106 201.221 16.9608C201.035 17.3039 200.756 17.579 200.384 17.7863C200.013 17.9935 199.552 18.0971 199.001 18.0971ZM207.519 18.0971C207.076 18.0971 206.708 18.0221 206.415 17.872C206.122 17.7219 205.904 17.5218 205.761 17.2717C205.618 17.0216 205.546 16.75 205.546 16.457C205.546 15.9138 205.754 15.4957 206.168 15.2027C206.583 14.9097 207.147 14.7632 207.862 14.7632H209.299V14.6989C209.299 14.2343 209.177 13.8841 208.934 13.6483C208.691 13.4053 208.366 13.2838 207.959 13.2838C207.608 13.2838 207.305 13.3732 207.047 13.5518C206.797 13.7233 206.64 13.9771 206.576 14.3129H205.654C205.689 13.927 205.818 13.6018 206.04 13.3374C206.268 13.073 206.551 12.8729 206.887 12.7371C207.222 12.5942 207.58 12.5227 207.959 12.5227C208.702 12.5227 209.259 12.7228 209.631 13.123C210.01 13.5161 210.199 14.0414 210.199 14.6989V17.9685H209.395L209.341 17.0144C209.191 17.3146 208.97 17.5719 208.677 17.7863C208.391 17.9935 208.005 18.0971 207.519 18.0971ZM207.658 17.336C208.001 17.336 208.294 17.2467 208.537 17.068C208.788 16.8893 208.977 16.6571 209.106 16.3712C209.234 16.0853 209.299 15.7852 209.299 15.4707V15.46H207.937C207.408 15.46 207.033 15.5529 206.811 15.7387C206.597 15.9174 206.49 16.1425 206.49 16.4141C206.49 16.6928 206.59 16.9179 206.79 17.0895C206.997 17.2538 207.287 17.336 207.658 17.336ZM213.505 17.9685C213.019 17.9685 212.636 17.8506 212.357 17.6147C212.079 17.3789 211.939 16.9537 211.939 16.339V13.4125H211.017V12.6513H211.939L212.057 11.3756H212.84V12.6513H214.405V13.4125H212.84V16.339C212.84 16.6749 212.908 16.9036 213.044 17.0251C213.179 17.1395 213.419 17.1967 213.762 17.1967H214.319V17.9685H213.505ZM217.65 17.9685C217.164 17.9685 216.782 17.8506 216.503 17.6147C216.224 17.3789 216.085 16.9537 216.085 16.339V13.4125H215.163V12.6513H216.085L216.203 11.3756H216.986V12.6513H218.551V13.4125H216.986V16.339C216.986 16.6749 217.053 16.9036 217.189 17.0251C217.325 17.1395 217.564 17.1967 217.907 17.1967H218.465V17.9685H217.65ZM221.939 18.0971C221.431 18.0971 220.981 17.9828 220.588 17.7541C220.195 17.5183 219.884 17.1931 219.655 16.7786C219.434 16.3641 219.323 15.8745 219.323 15.3099C219.323 14.7525 219.434 14.2665 219.655 13.852C219.877 13.4303 220.184 13.1051 220.577 12.8765C220.977 12.6406 221.438 12.5227 221.96 12.5227C222.475 12.5227 222.918 12.6406 223.289 12.8765C223.668 13.1051 223.958 13.4089 224.158 13.7877C224.358 14.1664 224.458 14.5738 224.458 15.0098C224.458 15.0884 224.454 15.167 224.447 15.2456C224.447 15.3242 224.447 15.4135 224.447 15.5136H220.213C220.234 15.921 220.327 16.2604 220.491 16.532C220.663 16.7964 220.874 16.9965 221.124 17.1323C221.381 17.2681 221.653 17.336 221.939 17.336C222.31 17.336 222.621 17.2503 222.871 17.0787C223.121 16.9072 223.304 16.6749 223.418 16.3819H224.308C224.165 16.8751 223.89 17.286 223.482 17.6147C223.082 17.9363 222.568 18.0971 221.939 18.0971ZM221.939 13.2838C221.51 13.2838 221.128 13.416 220.792 13.6805C220.463 13.9377 220.274 14.3165 220.223 14.8168H223.568C223.547 14.338 223.382 13.9628 223.075 13.6912C222.768 13.4196 222.389 13.2838 221.939 13.2838ZM225.651 17.9685V12.6513H226.466L226.531 13.4232C226.702 13.1373 226.931 12.9158 227.217 12.7585C227.502 12.6013 227.824 12.5227 228.181 12.5227C228.603 12.5227 228.964 12.6085 229.264 12.78C229.571 12.9515 229.807 13.2124 229.972 13.5625C230.157 13.2409 230.411 12.9872 230.733 12.8014C231.062 12.6156 231.415 12.5227 231.794 12.5227C232.43 12.5227 232.938 12.7157 233.316 13.1016C233.695 13.4804 233.885 14.0664 233.885 14.8597V17.9685H232.995V14.9562C232.995 14.4059 232.884 13.9913 232.662 13.7126C232.441 13.4339 232.123 13.2945 231.708 13.2945C231.28 13.2945 230.922 13.4625 230.636 13.7984C230.358 14.1271 230.218 14.5988 230.218 15.2134V17.9685H229.318V14.9562C229.318 14.4059 229.207 13.9913 228.985 13.7126C228.764 13.4339 228.446 13.2945 228.031 13.2945C227.61 13.2945 227.256 13.4625 226.97 13.7984C226.691 14.1271 226.552 14.5988 226.552 15.2134V17.9685H225.651ZM235.241 20.3269V12.6513H236.056L236.141 13.5304C236.313 13.2731 236.556 13.0408 236.87 12.8336C237.192 12.6263 237.599 12.5227 238.093 12.5227C238.621 12.5227 239.082 12.6442 239.475 12.8872C239.868 13.1302 240.172 13.4625 240.387 13.8841C240.608 14.3058 240.719 14.7846 240.719 15.3206C240.719 15.8566 240.608 16.3355 240.387 16.7571C240.172 17.1716 239.865 17.5004 239.465 17.7434C239.072 17.9792 238.611 18.0971 238.082 18.0971C237.646 18.0971 237.256 18.0078 236.913 17.8291C236.577 17.6505 236.32 17.4003 236.141 17.0787V20.3269H235.241ZM237.985 17.3146C238.343 17.3146 238.657 17.2324 238.929 17.068C239.2 16.8965 239.415 16.6607 239.572 16.3605C239.729 16.0603 239.808 15.7101 239.808 15.3099C239.808 14.9097 239.729 14.5595 239.572 14.2593C239.415 13.9592 239.2 13.7269 238.929 13.5625C238.657 13.391 238.343 13.3053 237.985 13.3053C237.628 13.3053 237.314 13.391 237.042 13.5625C236.77 13.7269 236.556 13.9592 236.399 14.2593C236.241 14.5595 236.163 14.9097 236.163 15.3099C236.163 15.7101 236.241 16.0603 236.399 16.3605C236.556 16.6607 236.77 16.8965 237.042 17.068C237.314 17.2324 237.628 17.3146 237.985 17.3146ZM243.864 17.9685C243.378 17.9685 242.996 17.8506 242.717 17.6147C242.438 17.3789 242.299 16.9537 242.299 16.339V13.4125H241.377V12.6513H242.299L242.417 11.3756H243.2V12.6513H244.765V13.4125H243.2V16.339C243.2 16.6749 243.267 16.9036 243.403 17.0251C243.539 17.1395 243.778 17.1967 244.121 17.1967H244.679V17.9685H243.864ZM247.946 18.0971C247.309 18.0971 246.781 17.9363 246.359 17.6147C245.937 17.2931 245.691 16.8572 245.619 16.3069H246.541C246.598 16.5856 246.745 16.8286 246.981 17.0359C247.224 17.236 247.549 17.336 247.956 17.336C248.335 17.336 248.614 17.2574 248.792 17.1002C248.971 16.9358 249.06 16.7428 249.06 16.5213C249.06 16.1997 248.943 15.9853 248.707 15.8781C248.478 15.7709 248.153 15.6744 247.731 15.5886C247.445 15.5315 247.159 15.4493 246.874 15.3421C246.588 15.2349 246.348 15.0848 246.155 14.8918C245.962 14.6917 245.866 14.4309 245.866 14.1093C245.866 13.6447 246.037 13.266 246.38 12.9729C246.731 12.6728 247.202 12.5227 247.795 12.5227C248.36 12.5227 248.821 12.6656 249.178 12.9515C249.543 13.2302 249.754 13.6304 249.811 14.1521H248.921C248.885 13.8806 248.767 13.6697 248.567 13.5197C248.374 13.3624 248.113 13.2838 247.785 13.2838C247.463 13.2838 247.213 13.3517 247.034 13.4875C246.863 13.6233 246.777 13.802 246.777 14.0235C246.777 14.2379 246.888 14.4059 247.109 14.5274C247.338 14.6488 247.645 14.7525 248.031 14.8382C248.36 14.9097 248.671 14.999 248.964 15.1062C249.264 15.2063 249.507 15.3599 249.693 15.5672C249.886 15.7673 249.982 16.0603 249.982 16.4463C249.989 16.9251 249.807 17.3217 249.436 17.6362C249.071 17.9435 248.574 18.0971 247.946 18.0971ZM250.905 19.5229V19.4372C251.555 18.794 252.081 18.0435 252.481 17.1859C252.888 16.3212 253.092 15.3921 253.092 14.3987C253.092 13.4053 252.892 12.4798 252.492 11.6222C252.091 10.7574 251.566 10.0035 250.916 9.36026V9.2745H251.827C252.22 9.64613 252.577 10.0892 252.899 10.6038C253.228 11.1112 253.489 11.6865 253.682 12.3297C253.882 12.9658 253.982 13.6554 253.982 14.3987C253.982 15.142 253.882 15.8352 253.682 16.4784C253.489 17.1145 253.228 17.6862 252.899 18.1936C252.577 18.7082 252.22 19.1513 251.827 19.5229H250.905Z" fill="black"/>
</svg>
