<svg width="220" height="55" viewBox="0 0 220 55" fill="none" xmlns="http://www.w3.org/2000/svg">
<path fill-rule="evenodd" clip-rule="evenodd" d="M127.738 2.50765C122.99 0.991703 116.637 0 109.92 0C103.203 0 96.8502 0.991703 92.1025 2.50765C89.7433 3.26094 87.6551 4.18302 86.1007 5.26433C84.6838 6.24998 83.0402 7.84402 83.0402 10.08V43.68C83.0402 45.916 84.6838 47.51 86.1007 48.4957C87.6551 49.577 89.7433 50.4991 92.1025 51.2524C96.8502 52.7683 103.203 53.76 109.92 53.76C116.637 53.76 122.99 52.7683 127.738 51.2524C130.097 50.4991 132.185 49.577 133.74 48.4957C135.157 47.51 136.8 45.916 136.8 43.68V10.08C136.8 7.84402 135.157 6.24998 133.74 5.26433C132.185 4.18302 130.097 3.26094 127.738 2.50765ZM131.656 10.08C131.536 10.2221 131.303 10.4514 130.862 10.7583C129.878 11.4424 128.312 12.1784 126.205 12.8512C122.02 14.1874 116.193 15.12 109.92 15.12C103.648 15.12 97.8204 14.1874 93.6355 12.8512C91.5284 12.1784 89.9622 11.4424 88.9788 10.7583C88.5376 10.4514 88.3045 10.2221 88.184 10.08C88.3045 9.93794 88.5376 9.70863 88.9788 9.40171C89.9622 8.71759 91.5284 7.98163 93.6355 7.30884C97.8204 5.97262 103.648 5.04 109.92 5.04C116.193 5.04 122.02 5.97262 126.205 7.30884C128.312 7.98163 129.878 8.71759 130.862 9.40171C131.303 9.70863 131.536 9.93794 131.656 10.08ZM131.76 16.0542V26.7406C131.706 26.8282 131.505 27.1107 130.862 27.5583C129.878 28.2424 128.312 28.9784 126.205 29.6512C122.02 30.9874 116.193 31.92 109.92 31.92C103.648 31.92 97.8204 30.9874 93.6355 29.6512C91.5284 28.9784 89.9622 28.2424 88.9788 27.5583C88.3354 27.1107 88.1345 26.8282 88.0802 26.7406V16.0542C89.2741 16.6506 90.636 17.1841 92.1025 17.6524C96.8502 19.1683 103.203 20.16 109.92 20.16C116.637 20.16 122.99 19.1683 127.738 17.6524C129.204 17.1841 130.566 16.6506 131.76 16.0542ZM88.0802 32.8542C89.2741 33.4506 90.636 33.9841 92.1025 34.4524C96.8502 35.9683 103.203 36.96 109.92 36.96C116.637 36.96 122.99 35.9683 127.738 34.4524C129.204 33.9841 130.566 33.4506 131.76 32.8542V43.5406C131.706 43.6282 131.505 43.9107 130.862 44.3583C129.878 45.0424 128.312 45.7784 126.205 46.4512C122.02 47.7874 116.193 48.72 109.92 48.72C103.648 48.72 97.8204 47.7874 93.6355 46.4512C91.5284 45.7784 89.9622 45.0424 88.9788 44.3583C88.3354 43.9107 88.1345 43.6282 88.0802 43.5406V32.8542Z" fill="black"/>
<path d="M204.248 21.851C205.008 20.798 204.771 19.3278 203.718 18.5673C202.665 17.8067 201.195 18.0439 200.434 19.0969L192.819 29.6417L191.147 27.6356C190.315 26.6377 188.832 26.5028 187.834 27.3344C186.836 28.166 186.702 29.6491 187.533 30.647L191.145 34.9807C191.61 35.5388 192.307 35.8507 193.033 35.8255C193.759 35.8004 194.433 35.441 194.858 34.852L204.248 21.851Z" fill="black"/>
<path fill-rule="evenodd" clip-rule="evenodd" d="M196.802 3.88205C196.19 3.60768 195.49 3.60768 194.878 3.88205L173.932 13.2716C173.138 13.6276 172.605 14.3931 172.547 15.2614L174.894 15.4179C172.547 15.2614 172.547 15.2634 172.547 15.2634L172.547 15.2662L172.547 15.2739L172.545 15.2982L172.54 15.3815C172.536 15.4522 172.531 15.553 172.526 15.6819C172.515 15.9397 172.502 16.3101 172.495 16.7771C172.48 17.7105 172.486 19.0338 172.568 20.6182C172.732 23.7733 173.2 28.0284 174.44 32.3218C175.676 36.599 177.724 41.0751 181.154 44.5049C184.645 47.9959 189.442 50.2723 195.84 50.2723C202.238 50.2723 207.036 47.9959 210.527 44.5049C213.957 41.0751 216.004 36.599 217.24 32.3218C218.48 28.0284 218.949 23.7733 219.112 20.6182C219.195 19.0338 219.201 17.7105 219.186 16.7771C219.178 16.3101 219.166 15.9397 219.155 15.6819C219.149 15.553 219.144 15.4522 219.14 15.3815L219.135 15.2982L219.134 15.2739L219.133 15.2662L219.133 15.2634C219.133 15.2634 219.133 15.2614 216.786 15.4179L219.133 15.2614C219.075 14.3931 218.542 13.6276 217.748 13.2716L196.802 3.88205ZM177.266 20.3746C177.193 18.9751 177.185 17.8015 177.196 16.9634L195.84 8.60578L214.484 16.9634C214.495 17.8015 214.487 18.9751 214.415 20.3746C214.262 23.3137 213.828 27.1841 212.721 31.0163C211.609 34.8648 209.865 38.5143 207.201 41.1787C204.597 43.7819 200.999 45.5683 195.84 45.5683C190.682 45.5683 187.083 43.7819 184.48 41.1787C181.815 38.5143 180.071 34.8648 178.96 31.0163C177.852 27.1841 177.418 23.3137 177.266 20.3746Z" fill="black"/>
<path fill-rule="evenodd" clip-rule="evenodd" d="M6.71644 20.7879C6.70561 18.5374 6.69541 15.9908 7.04705 13.5912C7.46825 10.7168 8.44285 7.7321 10.7848 5.33222C13.3907 2.66194 17.4426 0.62793 23.5203 0.62793C29.5979 0.62793 33.6498 2.66194 36.2557 5.33222C38.5977 7.7321 39.5723 10.7168 39.9935 13.5912C40.3451 15.9908 40.3349 18.5374 40.3241 20.7879H41.16C44.4074 20.7879 47.04 23.4205 47.04 26.6679V45.1479C47.04 50.251 42.9031 54.3879 37.8 54.3879H9.24C4.13689 54.3879 0 50.251 0 45.1479V26.6679C0 23.4205 2.63257 20.7879 5.88 20.7879H6.71644ZM14.3919 8.85226C15.9647 7.24055 18.6746 5.66793 23.5203 5.66793C28.3659 5.66793 31.0758 7.24055 32.6486 8.85226C33.9703 10.2067 34.6698 12.0227 35.0067 14.3219C35.3006 16.3274 35.2923 18.4562 35.2834 20.7363C35.2833 20.7531 35.2832 20.771 35.2832 20.7879H11.7573C11.7573 20.771 11.7572 20.7542 11.7571 20.7373C11.7482 18.4572 11.7399 16.3274 12.0338 14.3219C12.3707 12.0227 13.0702 10.2067 14.3919 8.85226ZM5.04 26.6679C5.04 26.204 5.41608 25.8279 5.88 25.8279H41.16C41.6239 25.8279 42 26.204 42 26.6679V45.1479C42 47.4675 40.1196 49.3479 37.8 49.3479H9.24C6.9204 49.3479 5.04 47.4675 5.04 45.1479V26.6679Z" fill="black"/>
</svg>
