<svg width="231" height="237" viewBox="0 0 231 237" fill="none" xmlns="http://www.w3.org/2000/svg">
<g style="mix-blend-mode:screen">
<path d="M167.354 67.3536L167.5 67.2071V67V7.46456C169.196 7.22194 170.5 5.76324 170.5 4C170.5 2.067 168.933 0.5 167 0.5C165.067 0.5 163.5 2.067 163.5 4C163.5 5.76324 164.804 7.22194 166.5 7.46456V66.7929L107.793 125.5H0.5V126.5H108H108.207L108.354 126.354L167.354 67.3536ZM196.646 217.354L196.793 217.5H197H223.535C223.778 219.196 225.237 220.5 227 220.5C228.933 220.5 230.5 218.933 230.5 217C230.5 215.067 228.933 213.5 227 213.5C225.237 213.5 223.778 214.804 223.535 216.5H197.207L138.354 157.646L138.207 157.5H138H0V158.5H137.793L196.646 217.354ZM130 142.5H130.207L130.354 142.354L188.904 83.8032C189.488 84.2408 190.214 84.5 191 84.5C192.933 84.5 194.5 82.933 194.5 81C194.5 79.067 192.933 77.5 191 77.5C189.067 77.5 187.5 79.067 187.5 81C187.5 81.7862 187.759 82.5118 188.197 83.0961L129.793 141.5H0V142.5H130ZM172.926 233.355L173.072 233.5H173.278H192.535C192.778 235.196 194.237 236.5 196 236.5C197.933 236.5 199.5 234.933 199.5 233C199.5 231.067 197.933 229.5 196 229.5C194.237 229.5 192.778 230.804 192.535 232.5H173.484L114.17 173.645L114.024 173.5H113.818H0V174.5H113.612L172.926 233.355Z" stroke="url(#paint0_radial_4777_3659)"/>
</g>
<defs>
<radialGradient id="paint0_radial_4777_3659" cx="0" cy="0" r="1" gradientUnits="userSpaceOnUse" gradientTransform="translate(230 147) rotate(180) scale(246 240.766)">
<stop stopColor="white" stopOpacity="0.5"/>
<stop offset="1" stopColor="#B491FF" stopOpacity="0"/>
<stop offset="1" stopColor="white" stopOpacity="0"/>
</radialGradient>
</defs>
</svg>
