<svg width="231" height="237" viewBox="0 0 231 237" fill="none" xmlns="http://www.w3.org/2000/svg">
<g style="mix-blend-mode:screen">
<path d="M63.6465 169.646L63.5 169.793V170V229.535C61.8038 229.778 60.5 231.237 60.5 233C60.5 234.933 62.067 236.5 64 236.5C65.933 236.5 67.5 234.933 67.5 233C67.5 231.237 66.1962 229.778 64.5 229.535V170.207L123.207 111.5H230.5V110.5H123H122.793L122.646 110.646L63.6465 169.646ZM34.3535 19.6465L34.2071 19.5H34H7.46455C7.22194 17.8038 5.76324 16.5 4 16.5C2.067 16.5 0.5 18.067 0.5 20C0.5 21.933 2.067 23.5 4 23.5C5.76324 23.5 7.22194 22.1962 7.46455 20.5H33.7929L92.6465 79.3535L92.7929 79.5H93H231V78.5H93.2071L34.3535 19.6465ZM101 94.5H100.793L100.646 94.6465L42.0961 153.197C41.5118 152.759 40.7862 152.5 40 152.5C38.067 152.5 36.5 154.067 36.5 156C36.5 157.933 38.067 159.5 40 159.5C41.933 159.5 43.5 157.933 43.5 156C43.5 155.214 43.2408 154.488 42.8032 153.904L101.207 95.5H231V94.5H101ZM58.0742 3.64508L57.9281 3.5H57.7221H38.4646C38.2219 1.80385 36.7632 0.5 35 0.5C33.067 0.5 31.5 2.067 31.5 4C31.5 5.933 33.067 7.5 35 7.5C36.7632 7.5 38.2219 6.19615 38.4646 4.5H57.5161L116.83 63.3549L116.976 63.5H117.182H231V62.5H117.388L58.0742 3.64508Z" stroke="url(#paint0_radial_4777_3660)"/>
</g>
<defs>
<radialGradient id="paint0_radial_4777_3660" cx="0" cy="0" r="1" gradientUnits="userSpaceOnUse" gradientTransform="translate(0.999985 90) scale(246 240.766)">
<stop stopColor="white" stopOpacity="0.5"/>
<stop offset="1" stopColor="#B491FF" stopOpacity="0"/>
<stop offset="1" stopColor="white" stopOpacity="0"/>
</radialGradient>
</defs>
</svg>
