<svg width="926" height="702" viewBox="0 0 926 702" fill="none" xmlns="http://www.w3.org/2000/svg">
<path d="M832 4.94103C832 4.94103 489 85.3995 489 395L489 702M672 4C672 4 475 85.3995 475 395V702M925 63.2852C925 63.2852 503 99.5151 503 395V702M437.5 395C437.5 85.3995 94 4.94103 94 4.94103M254 4C254 4 451 85.3995 451 395V702M1 63.2852C1 63.2852 423 99.5151 423 395V702M437 395V702" stroke="url(#paint0_linear_74_142)" stroke-width="8" style="mix-blend-mode:overlay"/>
<defs>
<linearGradient id="paint0_linear_74_142" x1="463" y1="443" x2="463" y2="702" gradientUnits="userSpaceOnUse">
<stop/>
<stop offset="1" stop-opacity="0"/>
</linearGradient>
</defs>
</svg>
