<svg width="64" height="64" viewBox="0 0 64 64" fill="none" xmlns="http://www.w3.org/2000/svg"><path d="M14.080 4.153 C 13.026 4.210,12.929 4.235,12.427 4.579 C 10.245 6.075,8.961 7.471,7.898 9.504 L 7.360 10.534 7.386 35.159 L 7.413 59.784 7.689 59.916 C 7.841 59.989,8.246 60.061,8.589 60.077 L 9.212 60.107 9.350 59.639 C 9.426 59.381,9.536 58.157,9.595 56.919 C 9.761 53.397,10.008 37.412,10.201 17.707 L 10.272 10.400 10.671 9.813 C 11.458 8.656,12.651 7.400,13.600 6.730 L 14.027 6.429 31.976 6.377 L 49.925 6.326 51.154 7.385 C 52.483 8.529,53.019 9.169,53.280 9.920 C 53.594 10.827,53.710 15.216,53.974 36.160 C 54.122 47.871,54.285 56.223,54.400 57.944 C 54.514 59.641,54.646 60.011,55.174 60.106 C 55.364 60.140,55.733 60.105,55.993 60.028 C 56.372 59.916,56.485 59.825,56.560 59.571 C 56.754 58.909,56.434 12.896,56.220 10.695 C 56.115 9.621,55.868 8.961,55.192 7.942 C 54.362 6.691,52.113 4.767,51.052 4.400 C 50.738 4.291,49.689 4.222,47.360 4.155 C 43.856 4.055,15.931 4.053,14.080 4.153 M26.578 15.308 C 26.117 15.894,26.146 16.456,26.664 16.974 L 26.970 17.280 30.472 17.272 C 32.398 17.268,34.654 17.231,35.487 17.190 C 36.871 17.122,37.023 17.095,37.265 16.867 C 37.410 16.731,37.588 16.478,37.659 16.307 C 38.026 15.420,36.677 15.193,30.340 15.074 L 26.814 15.008 26.578 15.308 M17.811 35.166 C 17.622 35.381,17.401 35.714,17.322 35.904 C 17.055 36.544,16.960 38.938,16.889 46.795 L 16.819 54.603 17.235 55.115 C 17.463 55.396,17.861 55.855,18.120 56.133 L 18.589 56.640 31.884 56.640 L 45.178 56.640 46.163 55.779 L 47.147 54.918 47.145 48.606 C 47.144 45.134,47.097 40.962,47.041 39.334 C 46.929 36.059,46.932 36.074,46.164 35.241 L 45.733 34.773 31.944 34.773 L 18.155 34.773 17.811 35.166 M45.141 36.340 L 45.440 36.627 45.440 45.492 L 45.440 54.358 45.074 54.713 L 44.708 55.068 39.108 55.020 C 34.548 54.982,33.476 54.945,33.331 54.825 C 33.234 54.744,32.504 53.692,31.710 52.488 C 30.915 51.283,29.984 49.928,29.640 49.475 C 29.295 49.023,29.013 48.620,29.013 48.581 C 29.013 48.541,29.247 48.238,29.533 47.908 C 30.734 46.519,31.217 45.326,31.117 43.999 C 31.044 43.032,30.862 42.677,30.015 41.845 C 28.984 40.832,28.890 40.798,27.200 40.814 C 26.408 40.822,25.548 40.886,25.289 40.957 C 24.655 41.129,23.760 42.047,23.318 42.980 C 23.038 43.572,22.987 43.803,22.989 44.480 C 22.992 45.432,23.133 45.786,24.149 47.366 C 24.536 47.970,24.853 48.520,24.853 48.589 C 24.853 48.658,24.580 49.141,24.247 49.664 C 22.921 51.740,21.951 53.427,21.625 54.225 L 21.282 55.063 20.239 55.021 C 19.251 54.981,19.180 54.963,18.882 54.663 L 18.568 54.347 18.750 45.333 L 18.933 36.320 28.587 36.244 C 33.896 36.202,38.888 36.152,39.680 36.134 C 40.472 36.115,41.957 36.090,42.981 36.077 L 44.842 36.053 45.141 36.340 M28.296 42.711 C 28.935 43.136,29.067 43.470,29.067 44.660 L 29.067 45.748 28.698 46.128 C 28.146 46.698,27.511 46.970,26.875 46.909 C 25.816 46.807,25.085 45.970,24.986 44.746 C 24.911 43.804,25.011 43.410,25.460 42.886 L 25.850 42.430 26.925 42.472 C 27.741 42.504,28.071 42.562,28.296 42.711 M37.636 42.638 C 36.972 42.681,36.742 42.848,36.855 43.205 C 37.019 43.722,38.365 43.948,39.771 43.694 C 40.262 43.606,40.752 43.451,40.864 43.350 C 41.142 43.099,41.123 42.789,40.827 42.729 C 40.465 42.655,38.323 42.595,37.636 42.638 M37.351 48.628 C 36.512 48.777,36.475 49.307,37.291 49.501 C 37.520 49.555,38.320 49.631,39.069 49.670 C 40.381 49.737,40.440 49.731,40.685 49.501 C 41.006 49.199,41.089 48.898,40.894 48.736 C 40.714 48.587,38.043 48.505,37.351 48.628 M27.864 50.480 C 28.564 50.873,30.137 53.131,30.417 54.145 C 30.616 54.867,30.580 54.875,27.262 54.913 C 24.114 54.948,23.647 54.899,23.593 54.527 C 23.506 53.934,25.558 50.765,26.250 50.424 C 26.756 50.174,27.358 50.195,27.864 50.480 " fill="#4A24DB" stroke="none" fill-rule="evenodd"></path></svg>