<svg width="64" height="64" viewBox="0 0 64 64" fill="none" xmlns="http://www.w3.org/2000/svg">
<path fill-rule="evenodd" clip-rule="evenodd" d="M18.517 37.0898C18.517 36.4675 19.0215 35.9629 19.6439 35.9629H31.9997H44.3555C44.9779 35.9629 45.4825 36.4675 45.4825 37.0898V53.8937C45.4825 54.5161 44.9779 55.0207 44.3555 55.0207H32.7844C32.3349 53.4865 31.6269 51.8421 30.7294 50.5503C30.1667 49.7403 29.4602 48.9722 28.6251 48.519C30.2301 47.8919 31.367 46.3304 31.367 44.5033C31.367 42.1232 29.4375 40.1937 27.0574 40.1937C24.6773 40.1937 22.7478 42.1232 22.7478 44.5033C22.7478 46.3304 23.8847 47.8918 25.4896 48.5189C24.6545 48.9721 23.948 49.7403 23.3853 50.5503C22.4877 51.8421 21.7798 53.4865 21.3302 55.0207H19.6439C19.0215 55.0207 18.517 54.5161 18.517 53.8937V37.0898ZM29.3333 51.5202C30.0142 52.5003 30.5946 53.7649 31.0049 55.0207H23.1098C23.5201 53.7649 24.1005 52.5003 24.7814 51.5202C25.6038 50.3365 26.4036 49.8014 27.0573 49.8014C27.711 49.8014 28.5108 50.3365 29.3333 51.5202ZM19.6439 34.2629C18.0827 34.2629 16.817 35.5286 16.817 37.0898V53.8937C16.817 55.455 18.0827 56.7207 19.6439 56.7207H44.3555C45.9168 56.7207 47.1825 55.455 47.1825 53.8937V37.0898C47.1825 35.5286 45.9168 34.2629 44.3555 34.2629H31.9997H19.6439ZM24.4478 44.5033C24.4478 43.0621 25.6162 41.8937 27.0574 41.8937C28.4987 41.8937 29.667 43.0621 29.667 44.5033C29.667 45.9446 28.4987 47.113 27.0574 47.113C25.6162 47.113 24.4478 45.9446 24.4478 44.5033ZM37.4363 42.1706C36.9668 42.1706 36.5863 42.5512 36.5863 43.0206C36.5863 43.4901 36.9668 43.8706 37.4363 43.8706H40.4017C40.8711 43.8706 41.2517 43.4901 41.2517 43.0206C41.2517 42.5512 40.8711 42.1706 40.4017 42.1706H37.4363ZM37.4363 48.1014C36.9668 48.1014 36.5863 48.482 36.5863 48.9514C36.5863 49.4209 36.9668 49.8014 37.4363 49.8014H40.4017C40.8711 49.8014 41.2517 49.4209 41.2517 48.9514C41.2517 48.482 40.8711 48.1014 40.4017 48.1014H37.4363Z" fill="#4A24DB"/>
<path d="M55.4191 59.1732V12.3342C55.4191 10.3466 54.6295 8.44042 53.2241 7.03498C51.8186 5.62954 49.9125 4.83997 47.9249 4.83997H16.0743C14.0867 4.83997 12.1805 5.62954 10.7751 7.03498C9.36965 8.44042 8.58008 10.3466 8.58008 12.3342V59.1732M27.3157 16.0813H36.6835" stroke="#0E1438" stroke-width="2.5" stroke-linecap="round" stroke-linejoin="round"/>
</svg>
