<svg width="229" height="48" viewBox="0 0 229 48" fill="none" xmlns="http://www.w3.org/2000/svg"><path d="M0.000 23.854 L 0.000 47.708 6.830 47.708 L 13.661 47.708 14.302 44.220 C 15.255 39.030,16.273 36.074,17.543 34.804 C 18.661 33.686,20.966 32.834,28.243 30.847 L 31.488 29.961 31.599 27.003 L 31.710 24.045 30.017 24.045 C 27.591 24.045,23.709 22.737,22.041 21.357 C 20.785 20.317,20.610 19.968,20.610 18.497 C 20.610 16.503,21.865 12.953,23.062 11.561 C 23.653 10.875,25.097 10.181,27.703 9.332 L 31.488 8.098 31.596 4.049 L 31.704 0.000 15.852 0.000 L 0.000 0.000 0.000 23.854 M183.671 10.497 L 182.246 11.834 183.492 12.978 C 184.178 13.607,184.980 14.122,185.276 14.122 C 185.856 14.122,188.162 12.323,188.162 11.870 C 188.162 11.469,185.842 9.160,185.439 9.160 C 185.251 9.160,184.456 9.762,183.671 10.497 M55.342 24.617 L 55.342 39.693 57.822 39.693 L 60.303 39.693 60.303 33.396 L 60.303 27.098 66.219 27.098 L 72.135 27.098 72.135 24.808 L 72.135 22.518 66.219 22.518 L 60.303 22.518 60.303 18.329 L 60.303 14.140 66.696 14.035 L 73.089 13.931 73.204 11.736 L 73.318 9.542 64.330 9.542 L 55.342 9.542 55.342 24.617 M126.713 14.644 L 126.713 17.838 125.140 18.049 C 122.707 18.375,122.624 18.667,123.986 22.114 C 124.652 23.798,125.717 27.253,126.352 29.791 C 127.777 35.481,128.788 38.235,129.781 39.133 C 131.218 40.435,136.255 40.248,136.255 38.894 C 136.255 38.679,135.405 37.604,134.367 36.506 C 132.239 34.256,131.948 33.176,131.446 25.667 L 131.184 21.755 133.910 21.755 L 136.637 21.755 136.637 19.847 L 136.637 17.938 133.965 17.938 L 131.293 17.938 131.293 14.694 L 131.293 11.450 129.003 11.450 L 126.713 11.450 126.713 14.644 M218.695 14.694 L 218.695 17.938 217.264 17.944 C 214.687 17.955,214.637 18.163,216.147 22.568 C 216.893 24.745,218.036 28.668,218.686 31.287 C 220.389 38.137,221.498 39.635,225.126 39.983 C 226.812 40.145,227.153 40.048,228.051 39.151 C 229.237 37.965,229.026 37.514,226.668 36.189 C 224.951 35.224,224.643 34.444,224.051 29.579 C 223.405 24.276,223.405 22.529,224.050 22.121 C 224.358 21.926,225.513 21.764,226.615 21.761 L 228.618 21.755 228.618 19.847 L 228.618 17.938 225.947 17.938 L 223.275 17.938 223.275 14.694 L 223.275 11.450 220.985 11.450 L 218.695 11.450 218.695 14.694 M141.217 32.633 L 141.217 47.327 143.452 47.327 L 145.688 47.327 145.936 44.948 C 146.272 41.742,146.786 41.308,151.327 40.400 C 155.784 39.509,158.114 38.480,159.354 36.854 C 160.978 34.725,161.525 32.880,161.504 29.608 C 161.487 27.039,161.314 26.225,160.411 24.458 C 159.056 21.809,156.756 19.992,154.290 19.621 C 152.692 19.381,147.822 19.914,146.309 20.495 C 145.939 20.637,145.797 20.310,145.797 19.315 L 145.797 17.938 143.507 17.938 L 141.217 17.938 141.217 32.633 M166.638 18.542 C 166.511 18.874,166.407 23.769,166.407 29.420 L 166.407 39.693 168.637 39.693 L 170.867 39.693 171.695 34.444 C 172.856 27.079,173.055 26.506,175.080 24.671 C 178.540 21.537,179.002 21.041,179.002 20.456 C 179.002 19.546,177.401 19.341,174.432 19.871 C 171.875 20.328,171.697 20.312,170.886 19.552 C 170.013 18.734,168.283 17.938,167.377 17.938 C 167.098 17.938,166.766 18.210,166.638 18.542 M183.200 28.816 L 183.200 39.693 185.490 39.693 L 187.780 39.693 187.780 28.816 L 187.780 17.938 185.490 17.938 L 183.200 17.938 183.200 28.816 M193.123 28.816 L 193.123 39.693 195.386 39.693 L 197.648 39.693 197.906 37.499 C 198.432 33.024,199.526 27.190,200.038 26.130 C 200.729 24.699,202.769 23.511,204.003 23.821 C 205.869 24.289,206.520 26.437,207.630 35.781 L 208.094 39.693 210.401 39.693 L 212.708 39.693 212.468 33.491 C 212.116 24.375,211.219 21.710,208.057 20.386 C 206.224 19.618,202.411 19.713,199.862 20.589 L 197.703 21.332 197.703 19.635 L 197.703 17.938 195.413 17.938 L 193.123 17.938 193.123 28.816 M103.826 21.776 C 100.950 25.232,100.584 26.092,100.585 29.388 C 100.585 32.771,101.452 35.017,103.580 37.145 C 105.773 39.338,107.060 39.860,110.302 39.873 C 113.753 39.886,115.413 39.181,118.007 36.597 C 119.435 35.175,119.962 34.270,120.617 32.111 L 121.439 29.407 120.638 27.001 C 118.988 22.043,116.971 20.479,111.398 19.838 C 105.871 19.203,105.994 19.171,103.826 21.776 M81.739 20.268 C 80.134 20.748,77.424 23.509,76.321 25.787 C 75.338 27.820,75.466 29.971,76.782 33.488 C 79.964 41.991,91.439 42.332,95.127 34.032 C 96.134 31.767,96.442 27.309,95.712 25.572 C 94.922 23.692,93.270 21.842,91.647 21.022 C 89.981 20.180,83.644 19.697,81.739 20.268 M112.998 24.315 C 114.334 25.439,115.623 27.897,115.637 29.344 C 115.665 32.458,113.248 35.878,111.020 35.875 C 108.192 35.872,106.209 33.621,105.834 29.988 C 105.591 27.628,106.181 26.253,108.196 24.483 C 109.913 22.976,111.347 22.926,112.998 24.315 M89.372 24.790 C 90.845 26.609,91.338 31.510,90.258 33.599 C 88.601 36.802,84.153 36.522,82.369 33.102 C 81.374 31.195,81.189 27.392,82.016 25.845 C 83.213 23.603,87.870 22.935,89.372 24.790 M154.953 25.128 C 156.319 26.494,156.723 28.875,156.099 31.880 C 155.331 35.581,153.205 36.750,149.817 35.334 C 147.826 34.502,147.224 32.963,147.382 29.112 C 147.504 26.130,147.595 25.818,148.585 24.966 C 149.437 24.233,150.086 24.045,151.763 24.045 C 153.569 24.045,154.025 24.200,154.953 25.128 " fill="#0E1438" stroke="none" fill-rule="evenodd"></path></svg>