<svg width="97" height="20" viewBox="0 0 97 20" fill="none" xmlns="http://www.w3.org/2000/svg"><path d="M0.000 9.942 L 0.000 19.885 2.887 19.885 L 5.774 19.885 6.126 18.066 C 6.319 17.066,6.662 15.865,6.888 15.399 C 7.403 14.334,8.136 13.879,10.396 13.219 C 13.037 12.448,13.257 12.266,13.257 10.842 L 13.257 10.023 12.327 10.022 C 10.557 10.021,9.691 9.522,9.132 8.183 C 8.908 7.647,8.897 7.395,9.056 6.450 C 9.349 4.712,9.904 4.242,12.085 3.882 L 13.257 3.689 13.257 1.845 L 13.257 0.000 6.628 0.000 L 0.000 0.000 0.000 9.942 M77.512 4.214 L 76.872 4.870 77.476 5.426 C 77.809 5.732,78.189 5.982,78.323 5.982 C 78.456 5.982,78.800 5.772,79.087 5.515 L 79.609 5.049 78.998 4.303 C 78.662 3.892,78.334 3.557,78.269 3.557 C 78.204 3.557,77.863 3.852,77.512 4.214 M23.319 10.306 L 23.361 16.571 24.371 16.619 L 25.382 16.667 25.382 13.992 L 25.382 11.317 27.887 11.317 L 30.393 11.317 30.393 10.427 L 30.393 9.538 27.968 9.538 L 25.543 9.538 25.543 8.184 C 25.543 7.440,25.498 6.603,25.442 6.325 L 25.341 5.820 28.110 5.820 L 30.878 5.820 30.878 4.931 L 30.878 4.042 27.077 4.042 L 23.276 4.042 23.319 10.306 M53.301 5.861 C 53.141 6.416,52.752 7.292,52.438 7.808 C 51.740 8.952,51.800 9.215,52.761 9.215 L 53.476 9.215 53.536 12.116 C 53.602 15.278,53.650 15.449,54.695 16.230 C 55.186 16.596,56.980 16.779,57.389 16.505 C 57.594 16.367,57.576 16.279,57.264 15.892 C 56.043 14.372,55.970 14.227,55.722 12.811 C 55.297 10.379,55.235 9.511,55.478 9.357 C 55.597 9.282,56.149 9.219,56.705 9.217 L 57.715 9.215 57.715 8.407 L 57.715 7.598 56.604 7.598 L 55.492 7.598 55.391 7.093 C 55.335 6.815,55.290 6.197,55.290 5.719 L 55.290 4.850 54.441 4.850 L 53.592 4.850 53.301 5.861 M92.312 6.224 L 92.312 7.598 91.503 7.598 L 90.695 7.598 90.695 8.407 L 90.695 9.215 91.485 9.215 L 92.275 9.215 92.336 12.004 C 92.389 14.426,92.439 14.865,92.718 15.342 C 93.287 16.313,93.773 16.554,95.182 16.563 L 96.434 16.571 96.483 15.812 L 96.532 15.052 95.675 15.003 L 94.817 14.954 94.712 13.984 C 94.653 13.451,94.554 12.196,94.490 11.195 L 94.375 9.377 94.839 9.375 C 95.094 9.374,95.575 9.328,95.909 9.273 C 96.513 9.173,96.515 9.170,96.515 8.386 L 96.515 7.598 95.383 7.598 L 94.252 7.598 94.252 6.224 L 94.252 4.850 93.282 4.850 L 92.312 4.850 92.312 6.224 M70.163 12.044 L 70.163 16.490 71.123 16.490 L 72.084 16.490 72.191 15.722 C 72.379 14.376,72.878 11.897,73.049 11.455 C 73.140 11.219,73.559 10.746,73.980 10.404 C 74.401 10.061,75.001 9.555,75.313 9.278 L 75.880 8.776 75.436 8.485 C 75.013 8.208,74.934 8.207,73.708 8.470 C 73.001 8.622,72.351 8.702,72.263 8.648 C 72.175 8.594,72.103 8.335,72.103 8.074 C 72.103 7.600,72.099 7.598,71.133 7.598 L 70.163 7.598 70.163 12.044 M77.277 12.044 L 77.277 16.490 78.247 16.490 L 79.217 16.490 79.217 12.044 L 79.217 7.598 78.247 7.598 L 77.277 7.598 77.277 12.044 M81.740 7.854 C 81.686 7.995,81.642 9.995,81.642 12.300 L 81.642 16.490 82.521 16.490 L 83.400 16.490 83.509 15.722 C 83.817 13.556,84.237 11.568,84.500 11.033 C 85.031 9.949,86.175 9.713,86.736 10.570 C 86.983 10.947,87.261 12.352,87.628 15.075 L 87.818 16.490 88.772 16.490 L 89.725 16.490 89.725 13.091 L 89.725 9.693 88.736 9.054 C 87.497 8.253,87.007 8.161,85.271 8.408 L 83.881 8.605 82.921 8.102 C 81.799 7.514,81.865 7.528,81.740 7.854 M59.874 7.960 C 59.806 8.070,59.720 10.762,59.682 13.942 L 59.615 19.723 60.605 19.723 L 61.595 19.723 61.595 18.672 C 61.595 17.328,61.849 17.040,63.158 16.902 C 65.956 16.606,66.998 16.061,67.819 14.464 C 68.694 12.765,68.396 10.850,67.034 9.403 C 66.200 8.518,65.801 8.394,63.317 8.245 C 62.059 8.170,60.824 8.030,60.574 7.934 C 60.010 7.718,60.024 7.718,59.874 7.960 M44.191 8.815 C 42.074 11.055,41.817 13.502,43.500 15.414 C 44.389 16.423,45.210 16.712,46.935 16.622 C 48.021 16.565,48.430 16.467,49.011 16.126 C 49.946 15.579,50.612 14.605,50.854 13.432 C 51.302 11.257,50.441 9.442,48.659 8.807 C 47.936 8.550,45.487 7.925,45.192 7.923 C 45.106 7.922,44.656 8.324,44.191 8.815 M34.031 8.699 C 32.734 9.531,32.277 10.526,32.273 12.529 C 32.271 13.622,32.343 14.125,32.563 14.550 C 33.303 15.978,34.265 16.519,36.244 16.619 C 37.451 16.680,37.751 16.640,38.382 16.335 C 39.632 15.730,40.381 14.576,40.525 13.035 C 40.713 11.023,40.060 9.663,38.537 8.895 C 37.892 8.570,37.457 8.488,36.133 8.443 C 34.753 8.396,34.445 8.434,34.031 8.699 M37.137 10.202 C 38.004 10.622,38.315 11.192,38.315 12.365 C 38.315 14.038,37.566 15.035,36.308 15.035 C 35.050 15.035,34.375 14.149,34.387 12.513 C 34.395 11.322,34.659 10.723,35.388 10.231 C 36.065 9.776,36.251 9.773,37.137 10.202 M47.730 10.209 C 48.199 10.454,48.498 11.243,48.606 12.517 C 48.725 13.929,48.506 14.429,47.603 14.806 C 46.550 15.246,45.485 15.017,45.082 14.264 C 44.744 13.631,44.787 11.174,45.146 10.627 C 45.599 9.936,46.830 9.737,47.730 10.209 M65.342 10.510 C 65.855 11.058,66.047 12.053,65.887 13.333 C 65.743 14.483,65.159 15.035,64.086 15.035 C 63.495 15.035,63.262 14.938,62.769 14.485 C 62.195 13.959,62.166 13.884,62.116 12.747 C 62.053 11.339,62.349 10.716,63.326 10.198 C 64.099 9.787,64.762 9.889,65.342 10.510 " fill="#0E1438" stroke="none" fill-rule="evenodd"></path></svg>