<svg width="116" height="24" viewBox="0 0 116 24" fill="none" xmlns="http://www.w3.org/2000/svg">
<path d="M27.9996 4.62012H37.0619V6.80538H30.5068L30.5062 11.144H36.5274V13.3298L30.5062 13.3292V19.6186L27.999 19.6181" fill="#190C49"/>
<path d="M46.8522 14.2193C46.8522 12.1409 45.5451 10.6839 43.6381 10.6839C41.7097 10.6839 40.424 12.1409 40.424 14.2193C40.424 16.2976 41.7097 17.7547 43.6381 17.7547C45.5451 17.7553 46.8522 16.2976 46.8522 14.2193ZM38.0674 14.2193C38.0674 10.9839 40.3814 8.64807 43.6381 8.64807C46.8734 8.64866 49.2093 10.9839 49.2093 14.2193C49.2087 17.4546 46.8734 19.7899 43.6381 19.7899C40.3809 19.7899 38.0668 17.4546 38.0674 14.2193Z" fill="#190C49"/>
<path d="M59.2618 14.2199C59.2618 12.1409 57.9547 10.6845 56.0477 10.6845C54.1193 10.6845 52.8336 12.1409 52.8336 14.2199C52.8336 16.2977 54.1193 17.7553 56.0477 17.7553C57.9547 17.7553 59.2618 16.2982 59.2618 14.2199ZM50.4771 14.2199C50.4771 10.984 52.791 8.64868 56.0477 8.64868C59.283 8.64868 61.6184 10.9845 61.6184 14.2199C61.6184 17.4552 59.283 19.7905 56.0477 19.7905C52.7904 19.7905 50.4765 17.4547 50.4771 14.2199Z" fill="#190C49"/>
<path d="M79.9902 14.2205C79.9902 12.0778 78.747 10.6851 76.8618 10.6851C74.9766 10.6845 73.7333 12.0778 73.7333 14.2199C73.7333 16.3414 74.9766 17.7559 76.8618 17.7559C78.747 17.7559 79.9902 16.3414 79.9902 14.2205ZM71.5469 8.82056H73.8833V10.192C74.4834 9.31372 75.7473 8.64929 77.2475 8.64929C80.4403 8.64929 82.3261 10.9633 82.3261 14.2205C82.3243 17.4771 80.3541 19.7911 77.1187 19.7911C75.8111 19.7911 74.5472 19.2336 73.8833 18.3766V23.519H71.5469" fill="#190C49"/>
<path d="M92.7177 8.82114H95.0536L95.0518 19.6198H92.7177V8.82114ZM92.374 5.52141C92.374 4.66443 93.0166 4 93.8741 4C94.7524 4 95.418 4.66443 95.418 5.52141C95.418 6.35712 94.7524 7.02096 93.8741 7.02096C93.0166 7.02096 92.374 6.35712 92.374 5.52141Z" fill="#190C49"/>
<path d="M97.8628 8.82111H100.199V10.6213C100.926 9.46429 102.169 8.64984 103.755 8.64984C106.047 8.64984 107.655 10.1712 107.655 12.5065V19.6204H105.319L105.32 13.0428C105.32 11.6921 104.484 10.7495 103.113 10.7495C101.291 10.7495 100.199 12.2921 100.199 14.8849L100.197 19.6204H97.8628" fill="#190C49"/>
<path d="M90.9412 8.79513C90.6312 8.69827 90.229 8.64984 89.8752 8.64984C88.5688 8.64924 87.1548 9.59245 86.576 10.8782V8.82111L84.2402 8.82052V19.6198H86.576V15.5919C86.576 12.2496 87.9687 10.8351 89.5545 10.8351C90.0447 10.8351 90.5556 10.9201 90.9412 11.0902" fill="#190C49"/>
<path d="M69.2824 17.4381C68.8755 17.6306 68.3221 17.7127 67.9152 17.7127C67.0369 17.7127 66.4369 17.1552 66.4369 16.0838V10.8133H69.2747V8.82055L66.4369 8.81996V5.60645H64.1022V8.81996H62.2158V10.8127L64.1022 10.8133V16.2126C64.1022 18.6766 65.623 19.7905 67.6582 19.7905C68.201 19.7905 68.8028 19.699 69.2824 19.5584" fill="#190C49"/>
<path d="M115.932 17.4393C115.526 17.6318 114.971 17.7139 114.564 17.7139C113.686 17.7139 113.085 17.1564 113.085 16.085L113.087 10.8144H115.923V8.82171L113.087 8.82111V5.6076H110.751V8.82111H108.865V10.8138L110.751 10.8144V16.2138C110.751 18.6778 112.272 19.7917 114.307 19.7917C114.85 19.7917 115.452 19.7002 115.932 19.5596" fill="#190C49"/>
<path d="M12 14.9997H16.0002V11.4608C15.4114 11.8016 14.7298 12 14.0004 12C11.7909 12 10.0002 10.2093 10.0002 7.9998C10.0002 5.79092 11.7909 3.99961 14.0004 3.99961C14.7298 3.99961 15.4114 4.19864 16.0002 4.53942V0H0V24H7.0005V19.9998C7.0005 17.2387 9.23891 14.9997 12 14.9997Z" fill="#190C49"/>
</svg>
