<svg width="144" height="24" viewBox="0 0 144 24" fill="none" xmlns="http://www.w3.org/2000/svg">
<path d="M10 14.4998H13.3335V11.5506C12.8428 11.8346 12.2748 12 11.667 12C9.82578 12 8.3335 10.5077 8.3335 8.6665C8.3335 6.82577 9.82578 5.33301 11.667 5.33301C12.2748 5.33301 12.8428 5.49887 13.3335 5.78285V2H0V22H5.83375V18.6665C5.83375 16.3656 7.69909 14.4998 10 14.4998Z" fill="#0E1438"/>
<path d="M23.333 6.01678H30.8849V7.83782H25.4223L25.4218 11.4533H30.4395V13.2749L25.4218 13.2744V18.5156L23.3325 18.5151" fill="#0E1438"/>
<path d="M39.0433 14.0161C39.0433 12.2842 37.9541 11.0699 36.3649 11.0699C34.758 11.0699 33.6865 12.2842 33.6865 14.0161C33.6865 15.7481 34.758 16.9623 36.3649 16.9623C37.9541 16.9628 39.0433 15.7481 39.0433 14.0161ZM31.7227 14.0161C31.7227 11.32 33.6511 9.37341 36.3649 9.37341C39.061 9.37391 41.0076 11.32 41.0076 14.0161C41.0071 16.7122 39.061 18.6583 36.3649 18.6583C33.6506 18.6583 31.7222 16.7122 31.7227 14.0161Z" fill="#0E1438"/>
<path d="M49.3848 14.0166C49.3848 12.2842 48.2956 11.0704 46.7064 11.0704C45.0994 11.0704 44.028 12.2842 44.028 14.0166C44.028 15.7481 45.0994 16.9628 46.7064 16.9628C48.2956 16.9628 49.3848 15.7486 49.3848 14.0166ZM42.0642 14.0166C42.0642 11.32 43.9925 9.3739 46.7064 9.3739C49.4025 9.3739 51.3486 11.3205 51.3486 14.0166C51.3486 16.7127 49.4025 18.6588 46.7064 18.6588C43.992 18.6588 42.0637 16.7122 42.0642 14.0166Z" fill="#0E1438"/>
<path d="M66.6587 14.0171C66.6587 12.2315 65.6227 11.0709 64.0517 11.0709C62.4807 11.0704 61.4446 12.2315 61.4446 14.0166C61.4446 15.7845 62.4807 16.9632 64.0517 16.9632C65.6227 16.9632 66.6587 15.7845 66.6587 14.0171ZM59.6226 9.51712H61.5696V10.6599C62.0697 9.92809 63.1229 9.37439 64.3731 9.37439C67.0338 9.37439 68.6053 11.3027 68.6053 14.0171C68.6038 16.7309 66.9619 18.6593 64.2658 18.6593C63.1761 18.6593 62.1228 18.1947 61.5696 17.4805V21.7659H59.6226" fill="#0E1438"/>
<path d="M77.265 9.51762H79.2115L79.2101 18.5166H77.265V9.51762ZM76.9785 6.76784C76.9785 6.0537 77.514 5.5 78.2287 5.5C78.9605 5.5 79.5152 6.0537 79.5152 6.76784C79.5152 7.46427 78.9605 8.01747 78.2287 8.01747C77.514 8.01747 76.9785 7.46427 76.9785 6.76784Z" fill="#0E1438"/>
<path d="M81.5522 9.51761H83.4988V11.0178C84.1051 10.0536 85.1407 9.37488 86.4626 9.37488C88.3728 9.37488 89.712 10.6427 89.712 12.5888V18.517H87.7654L87.7664 13.0357C87.7664 11.9101 87.07 11.1246 85.9272 11.1246C84.4088 11.1246 83.4988 12.4101 83.4988 14.5708L83.4978 18.517H81.5522" fill="#0E1438"/>
<path d="M75.7844 9.49595C75.526 9.41524 75.1909 9.37488 74.8961 9.37488C73.8074 9.37439 72.6291 10.1604 72.1468 11.2318V9.51761L70.2002 9.51712V18.5165H72.1468V15.1599C72.1468 12.3747 73.3073 11.1959 74.6288 11.1959C75.0373 11.1959 75.463 11.2668 75.7844 11.4085" fill="#0E1438"/>
<path d="M57.7355 16.6985C57.3964 16.8589 56.9352 16.9273 56.5961 16.9273C55.8643 16.9273 55.3642 16.4627 55.3642 15.5699V11.1777H57.7291V9.51712L55.3642 9.51663V6.83871H53.4187V9.51663H51.8467V11.1772L53.4187 11.1777V15.6772C53.4187 17.7306 54.686 18.6588 56.382 18.6588C56.8344 18.6588 57.3359 18.5825 57.7355 18.4654" fill="#0E1438"/>
<path d="M96.6105 16.6994C96.2714 16.8599 95.8093 16.9283 95.4702 16.9283C94.7383 16.9283 94.2378 16.4637 94.2378 15.5709L94.2392 11.1787H96.6026V9.51811L94.2392 9.51761V6.83969H92.2927V9.51761H90.7212V11.1782L92.2927 11.1787V15.6782C92.2927 17.7315 93.56 18.6598 95.2561 18.6598C95.7084 18.6598 96.2099 18.5835 96.6105 18.4663" fill="#0E1438"/>
<path d="M106.136 18.6332V7.43317H109.768C111.08 7.43317 112.157 7.6625 113 8.12117C113.853 8.57984 114.483 9.2305 114.888 10.0732C115.304 10.9052 115.512 11.8972 115.512 13.0492C115.512 14.1905 115.304 15.1825 114.888 16.0252C114.483 16.8572 113.853 17.5025 113 17.9612C112.157 18.4092 111.08 18.6332 109.768 18.6332H106.136ZM107.832 17.1932H109.704C110.717 17.1932 111.517 17.0279 112.104 16.6972C112.701 16.3665 113.128 15.8919 113.384 15.2732C113.651 14.6545 113.784 13.9132 113.784 13.0492C113.784 12.1852 113.651 11.4385 113.384 10.8092C113.128 10.1798 112.701 9.69984 112.104 9.36917C111.517 9.02784 110.717 8.85717 109.704 8.85717H107.832V17.1932ZM121.034 18.8252C120.277 18.8252 119.594 18.6545 118.986 18.3132C118.389 17.9612 117.914 17.4759 117.562 16.8572C117.21 16.2279 117.034 15.4972 117.034 14.6652C117.034 13.8332 117.21 13.1079 117.562 12.4892C117.925 11.8599 118.41 11.3745 119.018 11.0332C119.626 10.6812 120.303 10.5052 121.05 10.5052C121.807 10.5052 122.485 10.6812 123.082 11.0332C123.69 11.3745 124.17 11.8599 124.522 12.4892C124.885 13.1079 125.066 13.8332 125.066 14.6652C125.066 15.4972 124.885 16.2279 124.522 16.8572C124.17 17.4759 123.69 17.9612 123.082 18.3132C122.474 18.6545 121.791 18.8252 121.034 18.8252ZM121.034 17.3692C121.439 17.3692 121.813 17.2679 122.154 17.0652C122.506 16.8625 122.789 16.5639 123.002 16.1692C123.215 15.7639 123.322 15.2625 123.322 14.6652C123.322 14.0679 123.215 13.5719 123.002 13.1772C122.799 12.7719 122.522 12.4679 122.17 12.2652C121.829 12.0625 121.455 11.9612 121.05 11.9612C120.645 11.9612 120.266 12.0625 119.914 12.2652C119.573 12.4679 119.295 12.7719 119.082 13.1772C118.869 13.5719 118.762 14.0679 118.762 14.6652C118.762 15.2625 118.869 15.7639 119.082 16.1692C119.295 16.5639 119.573 16.8625 119.914 17.0652C120.255 17.2679 120.629 17.3692 121.034 17.3692ZM130.66 18.8252C129.881 18.8252 129.183 18.6492 128.564 18.2972C127.956 17.9452 127.476 17.4599 127.124 16.8412C126.783 16.2119 126.612 15.4865 126.612 14.6652C126.612 13.8439 126.783 13.1239 127.124 12.5052C127.476 11.8759 127.956 11.3852 128.564 11.0332C129.183 10.6812 129.881 10.5052 130.66 10.5052C131.641 10.5052 132.463 10.7612 133.124 11.2732C133.796 11.7852 134.228 12.4785 134.42 13.3532H132.644C132.537 12.9159 132.303 12.5745 131.94 12.3292C131.577 12.0839 131.151 11.9612 130.66 11.9612C130.244 11.9612 129.86 12.0679 129.508 12.2812C129.156 12.4839 128.873 12.7879 128.66 13.1932C128.447 13.5879 128.34 14.0785 128.34 14.6652C128.34 15.2519 128.447 15.7479 128.66 16.1532C128.873 16.5479 129.156 16.8519 129.508 17.0652C129.86 17.2785 130.244 17.3852 130.66 17.3852C131.151 17.3852 131.577 17.2625 131.94 17.0172C132.303 16.7719 132.537 16.4252 132.644 15.9772H134.42C134.239 16.8305 133.812 17.5185 133.14 18.0412C132.468 18.5639 131.641 18.8252 130.66 18.8252ZM139.428 18.8252C138.425 18.8252 137.598 18.5799 136.948 18.0892C136.297 17.5985 135.924 16.9479 135.828 16.1372H137.539C137.625 16.4999 137.828 16.8145 138.148 17.0812C138.468 17.3372 138.889 17.4652 139.411 17.4652C139.924 17.4652 140.297 17.3585 140.532 17.1452C140.766 16.9319 140.884 16.6865 140.884 16.4092C140.884 16.0039 140.718 15.7319 140.388 15.5932C140.068 15.4439 139.62 15.3105 139.044 15.1932C138.596 15.0972 138.148 14.9692 137.7 14.8092C137.262 14.6492 136.894 14.4252 136.596 14.1372C136.308 13.8385 136.164 13.4385 136.164 12.9372C136.164 12.2439 136.43 11.6679 136.964 11.2092C137.497 10.7398 138.244 10.5052 139.204 10.5052C140.089 10.5052 140.804 10.7185 141.348 11.1452C141.902 11.5718 142.228 12.1745 142.324 12.9532H140.692C140.638 12.6119 140.478 12.3452 140.212 12.1532C139.956 11.9612 139.609 11.8652 139.172 11.8652C138.745 11.8652 138.414 11.9559 138.18 12.1372C137.945 12.3079 137.828 12.5319 137.828 12.8092C137.828 13.0865 137.988 13.3052 138.308 13.4652C138.638 13.6252 139.07 13.7692 139.604 13.8972C140.137 14.0145 140.628 14.1532 141.076 14.3132C141.534 14.4625 141.902 14.6865 142.18 14.9852C142.457 15.2839 142.596 15.7212 142.596 16.2972C142.606 17.0225 142.324 17.6252 141.748 18.1052C141.182 18.5852 140.409 18.8252 139.428 18.8252Z" fill="#707070"/>
</svg>
