<svg width="144" height="24" viewBox="0 0 144 24" fill="none" xmlns="http://www.w3.org/2000/svg"><path d="M0.000 11.965 L 0.000 22.080 2.850 22.080 L 5.701 22.080 6.205 20.017 C 6.934 17.035,7.279 16.594,10.021 15.145 C 13.142 13.495,13.636 13.104,13.295 12.553 C 13.150 12.318,12.502 11.938,11.855 11.709 C 10.426 11.203,9.120 9.881,9.121 8.944 C 9.123 7.725,9.924 6.817,11.745 5.974 L 13.440 5.188 13.440 3.674 L 13.440 2.160 8.556 2.160 C 5.870 2.160,2.846 2.090,1.836 2.005 L 0.000 1.850 0.000 11.965 M23.280 12.240 L 23.280 18.480 24.360 18.480 L 25.440 18.480 25.440 15.840 L 25.440 13.200 27.960 13.200 L 30.480 13.200 30.480 12.360 L 30.480 11.520 27.960 11.520 L 25.440 11.520 25.440 9.720 L 25.440 7.920 28.200 7.920 L 30.960 7.920 30.960 6.960 L 30.960 6.000 27.120 6.000 L 23.280 6.000 23.280 12.240 M77.760 6.472 C 77.064 7.008,77.341 7.534,78.248 7.400 C 78.991 7.290,79.446 6.547,78.960 6.237 C 78.482 5.932,78.455 5.938,77.760 6.472 M53.798 7.274 C 53.243 7.943,52.570 9.761,52.565 10.606 C 52.559 11.656,54.032 16.286,54.733 17.421 C 55.301 18.340,55.937 18.616,56.631 18.245 C 57.214 17.933,57.246 17.500,56.757 16.554 C 56.283 15.638,55.374 11.799,55.532 11.386 C 55.600 11.209,56.098 10.946,56.638 10.800 L 57.621 10.536 56.021 8.748 C 55.141 7.765,54.340 6.960,54.240 6.960 C 54.140 6.960,53.942 7.101,53.798 7.274 M92.678 7.274 C 92.123 7.943,91.450 9.761,91.445 10.606 C 91.439 11.656,92.912 16.286,93.613 17.421 C 94.181 18.340,94.817 18.616,95.511 18.245 C 96.094 17.933,96.126 17.500,95.637 16.554 C 95.163 15.638,94.254 11.799,94.412 11.386 C 94.480 11.209,94.978 10.946,95.518 10.800 L 96.501 10.536 94.901 8.748 C 94.021 7.765,93.220 6.960,93.120 6.960 C 93.020 6.960,92.822 7.101,92.678 7.274 M106.769 7.837 C 106.519 8.138,106.420 9.472,106.356 13.394 L 106.271 18.554 107.968 18.411 C 111.982 18.075,113.918 16.959,114.796 14.479 C 115.833 11.545,113.836 9.221,109.166 7.927 C 107.054 7.342,107.177 7.346,106.769 7.837 M111.160 9.860 C 112.260 10.421,112.671 11.213,112.924 13.260 C 113.061 14.361,113.013 14.766,112.687 15.263 C 112.189 16.023,110.075 17.027,108.810 17.104 L 107.880 17.160 107.943 13.680 C 108.028 8.999,108.021 9.024,109.234 9.218 C 109.767 9.303,110.634 9.592,111.160 9.860 M73.952 9.969 C 73.508 10.162,72.629 10.320,71.998 10.320 C 71.134 10.320,70.807 10.424,70.672 10.740 C 70.418 11.335,70.229 16.602,70.425 17.642 C 70.541 18.265,70.697 18.489,70.976 18.435 C 71.344 18.364,71.645 17.743,72.622 15.039 C 72.852 14.401,73.563 12.969,74.201 11.856 C 74.838 10.744,75.360 9.782,75.360 9.717 C 75.360 9.507,74.776 9.612,73.952 9.969 M77.280 14.040 L 77.280 18.480 78.240 18.480 L 79.200 18.480 79.200 14.040 L 79.200 9.600 78.240 9.600 L 77.280 9.600 77.280 14.040 M59.760 15.807 L 59.760 21.840 60.600 21.840 L 61.440 21.840 61.440 20.070 L 61.440 18.300 63.486 18.193 C 66.258 18.047,67.329 17.239,67.963 14.815 C 68.212 13.863,68.203 13.501,67.911 12.663 C 67.313 10.946,65.993 10.394,61.380 9.935 L 59.760 9.774 59.760 15.807 M81.600 14.146 L 81.600 18.509 82.500 18.434 C 83.380 18.362,83.407 18.330,83.699 17.040 C 84.422 13.853,85.380 11.527,85.974 11.522 C 86.325 11.518,86.881 12.970,87.367 15.157 C 87.947 17.764,88.362 18.542,89.115 18.435 C 89.604 18.365,89.639 18.236,89.620 16.560 C 89.596 14.317,88.961 11.819,88.229 11.083 C 87.581 10.431,86.582 10.182,83.700 9.951 L 81.600 9.783 81.600 14.146 M34.413 10.531 C 34.003 10.785,33.438 11.313,33.159 11.705 C 31.832 13.569,31.920 15.093,33.445 16.677 C 35.052 18.345,36.706 18.517,38.668 17.217 C 39.652 16.566,40.921 14.199,40.685 13.456 C 40.243 12.063,38.093 10.541,36.120 10.224 C 35.394 10.107,34.978 10.182,34.413 10.531 M44.971 10.411 C 43.611 11.028,42.175 13.471,42.420 14.751 C 42.701 16.221,45.039 17.983,46.724 17.995 C 48.752 18.009,50.880 16.090,50.880 14.248 C 50.880 13.187,49.941 11.540,48.969 10.897 C 47.859 10.163,46.012 9.938,44.971 10.411 M119.469 11.826 C 118.771 12.391,118.006 13.246,117.769 13.728 C 117.368 14.542,117.365 14.667,117.721 15.518 C 118.219 16.711,118.848 17.361,120.015 17.887 C 121.355 18.491,122.636 18.093,123.591 16.774 C 124.640 15.326,124.719 14.593,123.964 13.305 C 123.338 12.236,121.669 10.800,121.053 10.800 C 120.880 10.800,120.167 11.262,119.469 11.826 M129.086 11.629 C 127.747 12.612,127.065 14.103,127.267 15.607 C 127.431 16.837,127.681 17.128,129.213 17.877 C 130.415 18.465,130.494 18.473,131.529 18.116 C 132.118 17.913,132.870 17.530,133.200 17.266 L 133.800 16.786 132.104 16.940 C 130.545 17.081,130.359 17.048,129.785 16.527 C 129.361 16.141,129.115 15.612,129.014 14.875 C 128.810 13.369,129.144 13.010,130.980 12.762 C 132.588 12.545,132.859 12.420,132.608 12.013 C 132.437 11.736,130.708 10.796,130.390 10.806 C 130.285 10.809,129.699 11.180,129.086 11.629 M47.408 11.813 C 47.766 12.238,48.220 12.925,48.417 13.338 C 48.740 14.016,48.735 14.175,48.367 14.951 C 47.915 15.904,46.987 16.631,46.374 16.513 C 45.781 16.399,44.880 14.915,44.880 14.051 C 44.880 13.286,46.113 11.040,46.533 11.040 C 46.657 11.040,47.050 11.388,47.408 11.813 M64.724 11.820 C 66.217 13.398,66.305 14.486,65.046 15.834 C 64.211 16.727,63.549 16.756,62.897 15.928 C 62.110 14.927,62.364 12.601,63.395 11.358 C 63.772 10.904,63.898 10.948,64.724 11.820 M37.447 12.128 C 38.457 13.169,38.556 14.370,37.728 15.532 C 36.881 16.722,36.292 16.777,35.355 15.754 C 34.705 15.045,34.560 14.693,34.560 13.822 C 34.560 12.953,34.696 12.621,35.298 12.018 C 35.705 11.612,36.169 11.280,36.331 11.280 C 36.493 11.280,36.996 11.661,37.447 12.128 M137.216 11.889 C 136.723 12.223,136.320 12.559,136.320 12.634 C 136.320 12.709,137.080 13.585,138.009 14.579 C 138.938 15.574,139.658 16.507,139.610 16.654 C 139.562 16.800,139.016 16.974,138.395 17.040 C 137.775 17.106,137.244 17.268,137.214 17.400 C 137.125 17.796,139.587 18.504,140.214 18.263 C 140.841 18.022,142.080 16.925,142.080 16.611 C 142.080 16.495,141.257 15.513,140.250 14.430 L 138.420 12.461 139.978 12.620 C 141.944 12.822,142.231 12.467,140.652 11.788 C 139.107 11.124,138.307 11.147,137.216 11.889 M122.425 13.909 C 122.649 14.658,122.625 14.960,122.279 15.688 C 121.835 16.624,120.948 17.048,120.394 16.588 C 120.218 16.442,119.882 15.897,119.648 15.377 C 119.229 14.449,119.231 14.415,119.750 13.576 C 120.041 13.105,120.514 12.554,120.800 12.352 C 121.279 12.014,121.353 12.026,121.737 12.496 C 121.967 12.777,122.276 13.413,122.425 13.909 " fill="#0E1438" stroke="none" fill-rule="evenodd"></path></svg>