<svg width="116" height="24" viewBox="0 0 116 24" fill="none" xmlns="http://www.w3.org/2000/svg"><path d="M0.000 12.017 L 0.000 24.033 2.682 23.911 C 4.156 23.844,5.596 23.701,5.881 23.593 C 6.508 23.354,6.783 22.739,7.431 20.118 C 7.700 19.030,8.117 17.791,8.357 17.364 C 9.131 15.986,10.909 15.300,14.548 14.975 L 16.047 14.841 16.047 13.317 L 16.047 11.793 15.515 11.789 C 14.711 11.783,12.386 10.905,11.840 10.401 C 11.144 9.761,10.827 8.874,10.827 7.572 C 10.827 6.732,10.926 6.305,11.206 5.950 C 11.690 5.334,13.093 4.731,14.749 4.426 L 16.047 4.186 16.047 2.093 L 16.047 0.000 8.023 0.000 L 0.000 0.000 0.000 12.017 M93.107 4.655 C 92.832 4.982,92.607 5.327,92.607 5.421 C 92.607 5.649,93.763 6.960,93.964 6.960 C 94.050 6.960,94.407 6.599,94.757 6.157 L 95.393 5.354 94.644 4.707 C 94.232 4.351,93.831 4.060,93.752 4.060 C 93.672 4.060,93.382 4.328,93.107 4.655 M28.033 12.083 L 28.033 19.527 29.290 19.527 L 30.547 19.527 30.547 16.433 L 30.547 13.340 33.543 13.340 L 36.540 13.340 36.540 12.277 L 36.540 11.213 33.543 11.213 L 30.547 11.213 30.547 8.990 L 30.547 6.767 33.833 6.767 L 37.120 6.767 37.120 5.703 L 37.120 4.640 32.577 4.640 L 28.033 4.640 28.033 12.083 M64.182 6.235 C 63.733 6.966,62.640 9.721,62.640 10.120 C 62.640 10.486,63.019 10.775,63.607 10.856 C 64.078 10.922,64.093 10.973,64.217 12.976 C 64.362 15.313,64.786 17.193,65.345 17.978 C 65.793 18.607,67.140 19.204,67.735 19.037 C 67.963 18.973,68.394 18.827,68.693 18.712 L 69.235 18.504 68.677 17.904 C 67.218 16.335,67.043 15.900,66.690 12.976 C 66.434 10.848,66.443 10.834,68.102 10.830 L 69.213 10.827 69.213 9.860 L 69.213 8.893 67.860 8.893 L 66.507 8.893 66.507 7.250 L 66.507 5.607 65.537 5.607 C 64.651 5.607,64.534 5.661,64.182 6.235 M110.775 6.235 C 110.327 6.966,109.233 9.721,109.233 10.120 C 109.233 10.486,109.613 10.775,110.200 10.856 C 110.673 10.922,110.686 10.968,110.808 13.050 C 110.985 16.053,111.351 17.321,112.298 18.209 C 113.177 19.033,114.176 19.302,115.037 18.945 C 115.747 18.651,115.772 18.196,115.112 17.579 C 113.894 16.441,113.201 14.265,113.330 11.985 L 113.390 10.923 114.598 10.866 L 115.807 10.808 115.807 9.851 L 115.807 8.893 114.453 8.893 L 113.100 8.893 113.100 7.250 L 113.100 5.607 112.130 5.607 C 111.245 5.607,111.128 5.661,110.775 6.235 M88.771 9.184 C 88.203 9.449,87.486 9.845,87.176 10.066 L 86.613 10.466 86.613 9.680 L 86.613 8.893 85.453 8.893 L 84.293 8.893 84.293 14.210 L 84.293 19.527 85.030 19.527 C 86.287 19.527,86.411 19.313,87.003 16.129 C 87.755 12.082,87.707 12.174,89.685 11.117 C 90.844 10.497,91.124 9.928,90.678 9.096 C 90.403 8.582,90.029 8.599,88.771 9.184 M71.533 16.151 L 71.533 23.393 72.678 23.393 L 73.822 23.393 73.958 21.482 C 74.032 20.431,74.155 19.471,74.229 19.350 C 74.308 19.224,75.283 19.064,76.526 18.974 C 78.602 18.824,78.728 18.789,79.759 18.079 C 80.385 17.648,81.039 16.987,81.329 16.492 C 81.787 15.711,81.819 15.505,81.747 13.844 C 81.684 12.413,81.570 11.853,81.191 11.117 C 80.394 9.567,80.103 9.444,76.817 9.261 C 75.240 9.174,73.406 9.059,72.742 9.005 L 71.533 8.908 71.533 16.151 M92.800 14.210 L 92.800 19.527 93.960 19.527 L 95.120 19.527 95.120 14.210 L 95.120 8.893 93.960 8.893 L 92.800 8.893 92.800 14.210 M97.827 14.210 L 97.827 19.527 98.950 19.527 L 100.074 19.527 100.494 16.578 C 100.984 13.146,101.168 12.408,101.710 11.719 C 101.998 11.354,102.288 11.213,102.755 11.213 C 104.392 11.213,104.539 11.584,105.238 17.497 L 105.467 19.430 106.577 19.488 L 107.687 19.546 107.683 17.555 C 107.678 14.968,107.218 11.536,106.776 10.780 C 106.115 9.653,105.508 9.372,103.823 9.416 C 102.955 9.439,101.853 9.611,101.230 9.821 L 100.147 10.187 100.147 9.540 L 100.147 8.893 98.987 8.893 L 97.827 8.893 97.827 14.210 M52.845 9.959 C 51.186 11.690,50.552 14.119,51.296 15.898 C 52.029 17.652,54.024 19.006,55.882 19.009 C 57.801 19.013,59.981 17.655,60.788 15.955 C 61.183 15.123,61.178 13.464,60.777 12.287 C 60.599 11.766,60.112 10.997,59.665 10.535 C 58.778 9.617,58.126 9.412,55.333 9.173 L 53.730 9.035 52.845 9.959 M40.594 9.913 C 39.597 10.679,38.742 11.824,38.477 12.746 C 38.287 13.410,38.482 14.901,38.897 15.950 C 39.804 18.244,42.520 19.428,45.135 18.667 C 46.525 18.263,48.178 16.733,48.508 15.545 C 49.240 12.908,47.922 10.164,45.680 9.656 C 45.278 9.565,44.167 9.434,43.210 9.365 L 41.470 9.240 40.594 9.913 M77.711 11.112 C 78.605 11.575,79.137 12.630,79.125 13.919 C 79.113 15.121,78.907 15.663,78.153 16.472 C 76.744 17.983,74.914 16.827,74.667 14.271 C 74.557 13.129,75.160 11.792,76.040 11.228 C 76.779 10.755,76.991 10.740,77.711 11.112 M44.344 11.287 C 46.210 12.067,46.590 14.742,45.051 16.281 C 44.454 16.878,44.180 17.013,43.566 17.013 C 42.109 17.013,41.349 15.989,41.349 14.026 C 41.349 11.506,42.453 10.497,44.344 11.287 M56.576 11.240 C 58.104 11.625,58.914 13.378,58.302 14.978 C 57.939 15.930,56.844 17.013,56.246 17.013 C 55.854 17.013,54.679 16.455,54.119 16.003 C 53.453 15.465,53.128 14.728,53.270 14.073 C 53.447 13.254,54.067 12.010,54.576 11.455 C 55.027 10.962,55.338 10.928,56.576 11.240 " fill="#0E1438" stroke="none" fill-rule="evenodd"></path></svg>