<svg width="116" height="24" viewBox="0 0 116 24" fill="none" xmlns="http://www.w3.org/2000/svg">
<path d="M27.9996 2.86032H37.0619V5.04558H30.5068L30.5062 9.38419H36.5274V11.57L30.5062 11.5694V17.8588L27.999 17.8583" fill="black"/>
<path d="M46.8519 12.4595C46.8519 10.3811 45.5448 8.9241 43.6378 8.9241C41.7094 8.9241 40.4237 10.3811 40.4237 12.4595C40.4237 14.5378 41.7094 15.9949 43.6378 15.9949C45.5448 15.9955 46.8519 14.5378 46.8519 12.4595ZM38.0671 12.4595C38.0671 9.22413 40.3811 6.88828 43.6378 6.88828C46.8731 6.88887 49.209 9.22413 49.209 12.4595C49.2084 15.6948 46.8731 18.0301 43.6378 18.0301C40.3806 18.0301 38.0665 15.6948 38.0671 12.4595Z" fill="black"/>
<path d="M59.2618 12.4601C59.2618 10.3811 57.9548 8.9247 56.0477 8.9247C54.1193 8.9247 52.8336 10.3811 52.8336 12.4601C52.8336 14.5379 54.1193 15.9955 56.0477 15.9955C57.9548 15.9955 59.2618 14.5384 59.2618 12.4601ZM50.4771 12.4601C50.4771 9.22414 52.7911 6.88887 56.0477 6.88887C59.2831 6.88887 61.6183 9.22473 61.6183 12.4601C61.6183 15.6954 59.2831 18.0307 56.0477 18.0307C52.7905 18.0307 50.4765 15.6949 50.4771 12.4601Z" fill="black"/>
<path d="M79.9903 12.4607C79.9903 10.318 78.7471 8.9253 76.8619 8.9253C74.9767 8.9247 73.7334 10.318 73.7334 12.4601C73.7334 14.5816 74.9767 15.9961 76.8619 15.9961C78.7471 15.9961 79.9903 14.5816 79.9903 12.4607ZM71.547 7.06074H73.8834V8.43214C74.4835 7.5539 75.7474 6.88947 77.2476 6.88947C80.4404 6.88947 82.3262 9.20347 82.3262 12.4607C82.3244 15.7173 80.3542 18.0313 77.1188 18.0313C75.8112 18.0313 74.5473 17.4738 73.8834 16.6168V21.7592H71.547" fill="black"/>
<path d="M92.718 7.06133H95.0539L95.0521 17.86H92.718V7.06133ZM92.3743 3.7616C92.3743 2.90462 93.0169 2.24019 93.8744 2.24019C94.7527 2.24019 95.4183 2.90462 95.4183 3.7616C95.4183 4.59731 94.7527 5.26115 93.8744 5.26115C93.0169 5.26115 92.3743 4.59731 92.3743 3.7616Z" fill="black"/>
<path d="M97.8628 7.06132H100.199V8.8615C100.926 7.7045 102.169 6.89005 103.755 6.89005C106.047 6.89005 107.655 8.41145 107.655 10.7467V17.8606H105.319L105.32 11.283C105.32 9.93227 104.484 8.98966 103.113 8.98966C101.291 8.98966 100.199 10.5323 100.199 13.1251L100.197 17.8606H97.8628" fill="black"/>
<path d="M90.9414 7.03534C90.6313 6.93848 90.2291 6.89005 89.8754 6.89005C88.5689 6.88945 87.155 7.83266 86.5762 9.11841V7.06132L84.2404 7.06073V17.86H86.5762V13.8321C86.5762 10.4898 87.9689 9.0753 89.5547 9.0753C90.0449 9.0753 90.5557 9.16035 90.9414 9.33044" fill="black"/>
<path d="M69.2827 15.6783C68.8757 15.8708 68.3223 15.9529 67.9154 15.9529C67.0372 15.9529 66.4371 15.3954 66.4371 14.324V9.05345H69.275V7.06073L66.4371 7.06014V3.84663H64.1025V7.06014H62.2161V9.05286L64.1025 9.05345V14.4528C64.1025 16.9168 65.6233 18.0307 67.6585 18.0307C68.2013 18.0307 68.8031 17.9392 69.2827 17.7986" fill="black"/>
<path d="M115.932 15.6795C115.526 15.872 114.971 15.9541 114.564 15.9541C113.686 15.9541 113.085 15.3966 113.085 14.3252L113.087 9.05464H115.923V7.06192L113.087 7.06133V3.84782H110.751V7.06133H108.865V9.05404L110.751 9.05464V14.454C110.751 16.918 112.272 18.0319 114.307 18.0319C114.85 18.0319 115.452 17.9404 115.932 17.7998" fill="black"/>
<path d="M12 14.9997H16.0002V11.4608C15.4114 11.8016 14.7298 12 14.0004 12C11.7909 12 10.0002 10.2093 10.0002 7.9998C10.0002 5.79092 11.7909 3.99961 14.0004 3.99961C14.7298 3.99961 15.4114 4.19864 16.0002 4.53942V0H0V24H7.0005V19.9998C7.0005 17.2387 9.23891 14.9997 12 14.9997Z" fill="black"/>
</svg>
