<svg width="97" height="20" viewBox="0 0 97 20" fill="none" xmlns="http://www.w3.org/2000/svg">
<path d="M23.333 2.38361H30.8849V4.20465H25.4223L25.4218 7.82017H30.4395V9.6417L25.4218 9.64121V14.8824L23.3325 14.8819" fill="black"/>
<path d="M39.0433 10.3829C39.0433 8.65095 37.9541 7.43676 36.3648 7.43676C34.7579 7.43676 33.6864 8.65095 33.6864 10.3829C33.6864 12.1149 34.7579 13.3291 36.3648 13.3291C37.9541 13.3296 39.0433 12.1149 39.0433 10.3829ZM31.7227 10.3829C31.7227 7.68678 33.651 5.74023 36.3648 5.74023C39.061 5.74073 41.0075 7.68678 41.0075 10.3829C41.007 13.079 39.061 15.0251 36.3648 15.0251C33.6505 15.0251 31.7222 13.079 31.7227 10.3829Z" fill="black"/>
<path d="M49.3848 10.3834C49.3848 8.65095 48.2956 7.43725 46.7064 7.43725C45.0995 7.43725 44.028 8.65095 44.028 10.3834C44.028 12.1149 45.0995 13.3296 46.7064 13.3296C48.2956 13.3296 49.3848 12.1154 49.3848 10.3834ZM42.0642 10.3834C42.0642 7.68678 43.9926 5.74072 46.7064 5.74072C49.4026 5.74072 51.3486 7.68727 51.3486 10.3834C51.3486 13.0795 49.4026 15.0256 46.7064 15.0256C43.9921 15.0256 42.0637 13.079 42.0642 10.3834Z" fill="black"/>
<path d="M66.6587 10.3839C66.6587 8.59828 65.6227 7.43774 64.0516 7.43774C62.4806 7.43724 61.4446 8.59828 61.4446 10.3834C61.4446 12.1513 62.4806 13.33 64.0516 13.33C65.6227 13.33 66.6587 12.1513 66.6587 10.3839ZM59.6226 5.88394H61.5696V7.02677C62.0696 6.29491 63.1229 5.74121 64.373 5.74121C67.0337 5.74121 68.6052 7.66955 68.6052 10.3839C68.6038 13.0977 66.9619 15.0261 64.2657 15.0261C63.1761 15.0261 62.1228 14.5615 61.5696 13.8473V18.1327H59.6226" fill="black"/>
<path d="M77.265 5.88444H79.2115L79.21 14.8834H77.265V5.88444ZM76.9785 3.13466C76.9785 2.42052 77.514 1.86682 78.2286 1.86682C78.9605 1.86682 79.5152 2.42052 79.5152 3.13466C79.5152 3.83109 78.9605 4.38429 78.2286 4.38429C77.514 4.38429 76.9785 3.83109 76.9785 3.13466Z" fill="black"/>
<path d="M81.5522 5.88443H83.4988V7.38458C84.1052 6.42041 85.1407 5.7417 86.4627 5.7417C88.3728 5.7417 89.712 7.00954 89.712 8.9556V14.8838H87.7655L87.7664 9.40249C87.7664 8.27689 87.07 7.49138 85.9272 7.49138C84.4088 7.49138 83.4988 8.77694 83.4988 10.9376L83.4978 14.8838H81.5522" fill="black"/>
<path d="M75.7845 5.86277C75.5261 5.78206 75.191 5.7417 74.8962 5.7417C73.8075 5.74121 72.6292 6.52721 72.1469 7.59867V5.88443L70.2003 5.88394V14.8833H72.1469V11.5267C72.1469 8.7415 73.3074 7.56274 74.6289 7.56274C75.0374 7.56274 75.4631 7.63362 75.7845 7.77536" fill="black"/>
<path d="M57.7355 13.0653C57.3964 13.2257 56.9352 13.2941 56.5961 13.2941C55.8643 13.2941 55.3642 12.8295 55.3642 11.9367V7.54455H57.7291V5.88395L55.3642 5.88346V3.20554H53.4187V5.88346H51.8467V7.54405L53.4187 7.54455V12.044C53.4187 14.0974 54.686 15.0256 56.382 15.0256C56.8344 15.0256 57.3359 14.9493 57.7355 14.8322" fill="black"/>
<path d="M96.6104 13.0662C96.2713 13.2267 95.8092 13.2951 95.4701 13.2951C94.7382 13.2951 94.2377 12.8305 94.2377 11.9377L94.2391 7.54552H96.6025V5.88493L94.2391 5.88443V3.20651H92.2926V5.88443H90.7211V7.54503L92.2926 7.54552V12.045C92.2926 14.0983 93.5599 15.0266 95.256 15.0266C95.7083 15.0266 96.2098 14.9503 96.6104 14.8331" fill="black"/>
<path d="M10 12.4998H13.3335V9.55064C12.8428 9.83463 12.2748 10 11.667 10C9.82578 10 8.3335 8.50773 8.3335 6.6665C8.3335 4.82577 9.82578 3.33301 11.667 3.33301C12.2748 3.33301 12.8428 3.49887 13.3335 3.78285V0H0V20H5.83375V16.6665C5.83375 14.3656 7.69909 12.4998 10 12.4998Z" fill="black"/>
</svg>
