<svg width="116" height="24" viewBox="0 0 116 24" fill="none" xmlns="http://www.w3.org/2000/svg"><path d="M0.000 11.987 L 0.000 23.973 3.458 23.973 L 6.916 23.973 6.992 21.315 C 7.064 18.822,7.103 18.593,7.625 17.641 C 8.156 16.673,8.792 16.049,9.860 15.448 C 10.186 15.265,11.255 15.145,13.147 15.080 L 15.950 14.983 16.006 13.267 C 16.062 11.558,16.061 11.551,15.620 11.684 C 13.381 12.360,11.332 11.607,10.450 9.783 C 9.410 7.636,10.483 4.973,12.680 4.248 C 13.378 4.018,15.059 4.072,15.708 4.345 C 16.019 4.477,16.047 4.307,16.047 2.244 L 16.047 0.000 8.023 0.000 L 0.000 0.000 0.000 11.987 M92.834 4.507 C 91.704 5.710,93.042 7.449,94.628 6.840 C 94.800 6.774,95.075 6.460,95.239 6.143 C 96.006 4.661,93.982 3.285,92.834 4.507 M28.033 12.083 L 28.033 19.527 29.290 19.527 L 30.547 19.527 30.547 16.433 L 30.547 13.340 33.543 13.340 L 36.540 13.340 36.540 12.277 L 36.540 11.213 33.543 11.213 L 30.547 11.213 30.547 8.990 L 30.547 6.767 33.833 6.767 L 37.120 6.767 37.120 5.703 L 37.120 4.640 32.577 4.640 L 28.033 4.640 28.033 12.083 M63.993 7.250 L 63.993 8.893 63.123 8.893 L 62.253 8.893 62.253 9.860 L 62.253 10.827 63.123 10.827 L 63.993 10.827 63.993 13.314 C 63.993 17.134,64.297 18.240,65.614 19.225 C 66.044 19.546,66.434 19.623,67.632 19.623 L 69.117 19.623 69.174 18.525 L 69.232 17.426 68.567 17.610 C 67.775 17.828,67.009 17.592,66.712 17.035 C 66.593 16.814,66.507 15.423,66.507 13.739 L 66.507 10.827 67.860 10.827 L 69.213 10.827 69.213 9.860 L 69.213 8.893 67.860 8.893 L 66.507 8.893 66.507 7.250 L 66.507 5.607 65.250 5.607 L 63.993 5.607 63.993 7.250 M110.739 7.202 L 110.683 8.797 109.765 8.856 L 108.847 8.915 108.847 9.871 L 108.847 10.827 109.798 10.827 L 110.749 10.827 110.813 14.293 C 110.882 18.072,110.940 18.278,112.191 19.212 C 112.742 19.623,114.617 19.866,115.510 19.642 C 115.958 19.530,116.000 19.431,116.000 18.480 L 116.000 17.441 115.236 17.613 C 114.342 17.814,113.603 17.593,113.305 17.035 C 113.187 16.814,113.100 15.425,113.100 13.748 L 113.100 10.844 114.502 10.787 L 115.903 10.730 115.962 9.812 L 116.021 8.893 114.561 8.893 L 113.100 8.893 113.100 7.250 L 113.100 5.607 111.948 5.607 L 110.796 5.607 110.739 7.202 M41.831 8.911 C 41.497 9.007,40.808 9.369,40.300 9.715 C 37.859 11.375,37.359 15.159,39.242 17.720 C 40.944 20.034,45.045 20.406,47.328 18.452 C 49.801 16.334,49.804 12.088,47.332 9.972 C 46.901 9.603,46.151 9.166,45.666 9.000 C 44.710 8.675,42.799 8.630,41.831 8.911 M54.325 8.881 C 52.075 9.565,50.460 11.792,50.460 14.210 C 50.460 16.243,51.684 18.283,53.448 19.187 C 54.539 19.746,56.681 19.868,57.960 19.443 C 62.716 17.864,62.780 10.616,58.052 9.005 C 57.125 8.689,55.170 8.624,54.325 8.881 M75.599 8.903 C 75.336 9.015,74.836 9.323,74.487 9.589 L 73.853 10.073 73.853 9.483 L 73.853 8.893 72.693 8.893 L 71.533 8.893 71.533 16.240 L 71.533 23.587 72.693 23.587 L 73.853 23.587 73.853 21.073 C 73.853 18.761,73.980 18.175,74.349 18.773 C 74.618 19.208,76.097 19.712,77.118 19.716 C 78.739 19.722,79.633 19.366,80.727 18.277 C 81.504 17.503,81.771 17.063,82.032 16.131 C 82.599 14.103,82.334 12.130,81.291 10.626 C 80.442 9.400,79.315 8.839,77.549 8.764 C 76.739 8.729,75.862 8.792,75.599 8.903 M88.328 9.083 C 87.943 9.290,87.399 9.730,87.120 10.061 L 86.613 10.663 86.613 9.778 L 86.613 8.893 85.453 8.893 L 84.293 8.893 84.293 14.210 L 84.293 19.527 85.436 19.527 L 86.579 19.527 86.645 16.476 C 86.705 13.670,86.749 13.349,87.193 12.487 C 87.841 11.231,88.675 10.767,90.054 10.897 L 91.079 10.994 91.021 9.895 L 90.963 8.797 89.997 8.752 C 89.340 8.722,88.805 8.828,88.328 9.083 M102.080 9.008 C 101.708 9.169,101.121 9.574,100.775 9.908 L 100.147 10.516 100.147 9.705 L 100.147 8.893 98.987 8.893 L 97.827 8.893 97.827 14.210 L 97.827 19.527 98.960 19.527 L 100.093 19.527 100.188 16.377 C 100.293 12.909,100.483 12.195,101.538 11.308 C 102.227 10.728,103.666 10.644,104.377 11.142 C 105.217 11.730,105.367 12.488,105.367 16.137 L 105.367 19.527 106.527 19.527 L 107.687 19.527 107.682 15.612 C 107.678 11.369,107.535 10.653,106.500 9.680 C 105.471 8.711,103.469 8.407,102.080 9.008 M92.607 14.210 L 92.607 19.527 93.863 19.527 L 95.120 19.527 95.120 14.210 L 95.120 8.893 93.863 8.893 L 92.607 8.893 92.607 14.210 M45.337 11.184 C 46.141 11.639,46.788 12.990,46.782 14.203 C 46.774 16.021,45.796 17.355,44.218 17.702 C 41.684 18.259,39.598 15.208,40.772 12.663 C 41.632 10.800,43.556 10.176,45.337 11.184 M57.640 11.130 C 58.599 11.626,59.054 12.516,59.118 14.016 C 59.192 15.780,58.709 16.709,57.369 17.373 C 55.790 18.157,54.053 17.575,53.232 15.987 C 52.835 15.218,52.828 13.214,53.221 12.459 C 54.078 10.810,55.939 10.251,57.640 11.130 M78.506 11.155 C 79.372 11.666,79.895 12.811,79.895 14.194 C 79.895 15.558,79.569 16.338,78.688 17.079 C 77.245 18.293,75.043 17.787,74.136 16.033 C 73.772 15.329,73.765 13.103,74.125 12.412 C 74.498 11.696,75.240 11.035,75.906 10.825 C 76.620 10.600,77.826 10.753,78.506 11.155 " stroke="none" fill-rule="evenodd"></path></svg>