<svg width="229" height="48" viewBox="0 0 229 48" fill="none" xmlns="http://www.w3.org/2000/svg">
<path d="M55.2751 5.72064H73.1653V10.0912H60.2245L60.2234 18.7684H72.1102V23.1401L60.2234 23.1389V35.7177L55.2739 35.7165" fill="black"/>
<path d="M92.492 24.919C92.492 20.7623 89.9118 17.8482 86.147 17.8482C82.3402 17.8482 79.8019 20.7623 79.8019 24.919C79.8019 29.0757 82.3402 31.9897 86.147 31.9897C89.9118 31.9909 92.492 29.0757 92.492 24.919ZM75.1498 24.919C75.1498 18.4483 79.718 13.7766 86.147 13.7766C92.534 13.7777 97.1453 18.4483 97.1453 24.919C97.1442 31.3897 92.534 36.0602 86.147 36.0602C79.7168 36.0602 75.1486 31.3897 75.1498 24.919Z" fill="black"/>
<path d="M116.991 24.9202C116.991 20.7623 114.411 17.8494 110.646 17.8494C106.839 17.8494 104.301 20.7623 104.301 24.9202C104.301 29.0757 106.839 31.991 110.646 31.991C114.411 31.991 116.991 29.0769 116.991 24.9202ZM99.6486 24.9202C99.6486 18.4483 104.217 13.7777 110.646 13.7777C117.033 13.7777 121.643 18.4495 121.643 24.9202C121.643 31.3909 117.033 36.0614 110.646 36.0614C104.216 36.0614 99.6474 31.3897 99.6486 24.9202Z" fill="black"/>
<path d="M157.912 24.9214C157.912 20.6359 155.458 17.8506 151.736 17.8506C148.014 17.8494 145.56 20.6359 145.56 24.9202C145.56 29.1631 148.014 31.9921 151.736 31.9921C155.458 31.9921 157.912 29.1631 157.912 24.9214ZM141.244 14.1215H145.856V16.8643C147.041 15.1078 149.536 13.7789 152.497 13.7789C158.8 13.7789 162.523 18.4069 162.523 24.9214C162.52 31.4346 158.63 36.0626 152.243 36.0626C149.662 36.0626 147.167 34.9475 145.856 33.2336V43.5185H141.244" fill="black"/>
<path d="M183.038 14.1227H187.649L187.646 35.7201H183.038V14.1227ZM182.359 7.5232C182.359 5.80925 183.628 4.48038 185.321 4.48038C187.055 4.48038 188.369 5.80925 188.369 7.5232C188.369 9.19462 187.055 10.5223 185.321 10.5223C183.628 10.5223 182.359 9.19462 182.359 7.5232Z" fill="black"/>
<path d="M193.195 14.1226H197.806V17.723C199.242 15.409 201.696 13.7801 204.827 13.7801C209.352 13.7801 212.525 16.8229 212.525 21.4934V35.7212H207.914L207.916 22.566C207.916 19.8645 206.266 17.9793 203.559 17.9793C199.962 17.9793 197.806 21.0647 197.806 26.2502L197.804 35.7212H193.195" fill="black"/>
<path d="M179.531 14.0707C178.919 13.877 178.125 13.7801 177.426 13.7801C174.847 13.7789 172.056 15.6653 170.913 18.2368V14.1226L166.302 14.1215V35.72H170.913V27.6641C170.913 20.9796 173.663 18.1506 176.793 18.1506C177.761 18.1506 178.77 18.3207 179.531 18.6609" fill="black"/>
<path d="M136.773 31.3566C135.97 31.7417 134.878 31.9059 134.074 31.9059C132.341 31.9059 131.156 30.7908 131.156 28.6481V18.1069H136.758V14.1215L131.156 14.1203V7.69327H126.547V14.1203H122.823V18.1057L126.547 18.1069V28.9056C126.547 33.8336 129.549 36.0614 133.567 36.0614C134.639 36.0614 135.827 35.8783 136.773 35.5972" fill="black"/>
<path d="M228.867 31.359C228.063 31.7441 226.969 31.9083 226.165 31.9083C224.431 31.9083 223.246 30.7932 223.246 28.6505L223.249 18.1093H228.848V14.1238L223.249 14.1227V7.69565H218.638V14.1227H214.915V18.1081L218.638 18.1093V28.908C218.638 33.836 221.64 36.0638 225.658 36.0638C226.73 36.0638 227.918 35.8807 228.867 35.5996" fill="black"/>
<path d="M23.6897 29.9994H31.5866V22.9215C30.4242 23.6031 29.0787 24 27.6387 24C23.2769 24 19.7418 20.4185 19.7418 15.9996C19.7418 11.5818 23.2769 7.99921 27.6387 7.99921C29.0787 7.99921 30.4242 8.39728 31.5866 9.07885V0H0V48H13.8199V39.9996C13.8199 34.4774 18.2389 29.9994 23.6897 29.9994Z" fill="black"/>
</svg>
