<svg width="116" height="24" viewBox="0 0 116 24" fill="none" xmlns="http://www.w3.org/2000/svg"><path d="M0.000 11.987 L 0.000 23.973 3.480 23.973 L 6.960 23.973 6.961 21.702 C 6.962 19.079,7.121 18.360,7.980 17.080 C 8.433 16.406,8.914 15.994,9.740 15.572 C 10.802 15.031,11.048 14.988,13.462 14.917 L 16.047 14.842 16.047 13.198 C 16.047 11.584,16.039 11.557,15.612 11.686 C 13.383 12.360,11.331 11.604,10.450 9.783 C 9.410 7.636,10.483 4.973,12.680 4.248 C 13.378 4.018,15.059 4.072,15.708 4.345 C 16.019 4.477,16.047 4.307,16.047 2.244 L 16.047 0.000 8.023 0.000 L 0.000 0.000 0.000 11.987 M92.834 4.507 C 91.941 5.458,92.609 6.960,93.924 6.960 C 94.749 6.960,95.313 6.371,95.313 5.510 C 95.313 4.167,93.748 3.535,92.834 4.507 M28.033 12.083 L 28.033 19.527 29.290 19.527 L 30.547 19.527 30.547 16.433 L 30.547 13.340 33.543 13.340 L 36.540 13.340 36.540 12.277 L 36.540 11.213 33.543 11.213 L 30.547 11.213 30.547 8.990 L 30.547 6.767 33.833 6.767 L 37.120 6.767 37.120 5.703 L 37.120 4.640 32.577 4.640 L 28.033 4.640 28.033 12.083 M64.146 7.202 L 64.090 8.797 63.172 8.856 L 62.253 8.915 62.253 9.871 L 62.253 10.827 63.208 10.827 L 64.162 10.827 64.223 14.293 C 64.289 18.071,64.346 18.278,65.592 19.208 C 66.139 19.616,67.869 19.857,68.721 19.643 C 69.173 19.530,69.213 19.433,69.213 18.473 L 69.213 17.427 68.589 17.606 C 67.894 17.805,67.351 17.695,66.845 17.251 C 66.550 16.991,66.507 16.565,66.507 13.890 L 66.507 10.827 67.860 10.827 L 69.213 10.827 69.213 9.860 L 69.213 8.893 67.860 8.893 L 66.507 8.893 66.507 7.250 L 66.507 5.607 65.354 5.607 L 64.202 5.607 64.146 7.202 M110.739 7.202 L 110.683 8.797 109.765 8.856 L 108.847 8.915 108.847 9.871 L 108.847 10.827 109.813 10.827 L 110.780 10.827 110.784 13.968 C 110.788 16.601,110.846 17.235,111.144 17.883 C 111.739 19.180,112.716 19.720,114.466 19.720 C 115.892 19.720,116.000 19.631,116.000 18.463 L 116.000 17.441 115.236 17.613 C 114.342 17.814,113.603 17.593,113.305 17.035 C 113.187 16.814,113.100 15.423,113.100 13.739 L 113.100 10.827 114.453 10.827 L 115.807 10.827 115.807 9.860 L 115.807 8.893 114.453 8.893 L 113.100 8.893 113.100 7.250 L 113.100 5.607 111.948 5.607 L 110.796 5.607 110.739 7.202 M41.831 8.911 C 40.687 9.242,39.405 10.292,38.781 11.407 C 38.246 12.361,38.186 12.638,38.185 14.113 C 38.184 15.998,38.573 17.083,39.624 18.135 C 40.788 19.298,41.648 19.620,43.597 19.622 C 45.168 19.623,45.439 19.567,46.393 19.043 C 47.607 18.377,48.611 17.168,48.929 15.990 C 49.295 14.638,49.068 12.382,48.464 11.350 C 47.819 10.250,46.779 9.380,45.651 8.995 C 44.708 8.674,42.794 8.631,41.831 8.911 M54.325 8.881 C 53.388 9.166,52.647 9.650,51.925 10.449 C 50.862 11.626,50.580 12.413,50.580 14.210 C 50.580 16.008,50.862 16.794,51.926 17.973 C 52.947 19.103,53.956 19.570,55.607 19.678 C 59.096 19.906,61.539 17.654,61.539 14.210 C 61.539 10.925,59.259 8.670,55.984 8.717 C 55.338 8.726,54.592 8.800,54.325 8.881 M75.599 8.903 C 75.336 9.015,74.836 9.323,74.487 9.589 L 73.853 10.073 73.853 9.483 L 73.853 8.893 72.693 8.893 L 71.533 8.893 71.533 16.143 L 71.533 23.393 72.693 23.393 L 73.853 23.393 73.853 20.977 C 73.853 18.754,73.982 18.180,74.349 18.773 C 74.634 19.235,76.097 19.712,77.237 19.714 C 78.580 19.717,80.021 19.131,80.851 18.246 C 82.112 16.901,82.608 14.610,82.084 12.560 C 81.436 10.027,80.054 8.870,77.549 8.764 C 76.739 8.729,75.862 8.792,75.599 8.903 M88.328 9.088 C 87.943 9.292,87.399 9.730,87.120 10.061 L 86.613 10.663 86.613 9.778 L 86.613 8.893 85.453 8.893 L 84.293 8.893 84.293 14.210 L 84.293 19.527 85.436 19.527 L 86.579 19.527 86.645 16.476 C 86.705 13.670,86.749 13.349,87.193 12.487 C 87.818 11.275,88.682 10.772,89.948 10.883 L 90.867 10.963 90.867 9.832 L 90.867 8.700 89.948 8.709 C 89.431 8.713,88.723 8.879,88.328 9.088 M102.080 9.008 C 101.708 9.169,101.121 9.574,100.775 9.908 L 100.147 10.516 100.147 9.705 L 100.147 8.893 98.987 8.893 L 97.827 8.893 97.827 14.210 L 97.827 19.527 98.987 19.527 L 100.147 19.527 100.147 16.926 C 100.147 15.496,100.243 13.874,100.362 13.323 C 100.869 10.958,103.330 9.954,104.797 11.514 C 105.260 12.006,105.271 12.096,105.333 15.772 L 105.396 19.527 106.558 19.527 L 107.720 19.527 107.655 15.418 C 107.607 12.405,107.519 11.181,107.325 10.827 C 106.892 10.038,106.087 9.267,105.391 8.974 C 104.548 8.619,102.940 8.636,102.080 9.008 M92.800 14.210 L 92.800 19.527 93.960 19.527 L 95.120 19.527 95.120 14.210 L 95.120 8.893 93.960 8.893 L 92.800 8.893 92.800 14.210 M45.053 11.068 C 46.675 11.887,47.277 14.078,46.407 15.994 C 45.528 17.932,42.918 18.343,41.442 16.777 C 39.710 14.939,40.229 11.877,42.437 10.904 C 43.289 10.529,44.082 10.578,45.053 11.068 M57.323 10.997 C 58.363 11.475,58.780 11.986,59.085 13.163 C 59.767 15.791,57.970 18.058,55.500 17.688 C 54.057 17.471,52.782 15.840,52.782 14.210 C 52.782 13.459,53.188 12.378,53.696 11.774 C 54.648 10.643,55.946 10.365,57.323 10.997 M78.223 11.029 C 79.214 11.509,79.614 12.080,79.885 13.401 C 80.538 16.586,77.316 19.018,75.012 17.079 C 73.483 15.792,73.278 13.316,74.574 11.776 C 75.546 10.621,76.834 10.357,78.223 11.029 " fill="#0E1438" stroke="none" fill-rule="evenodd"></path></svg>