<svg width="97" height="20" viewBox="0 0 97 20" fill="none" xmlns="http://www.w3.org/2000/svg"><path d="M0.000 9.942 L 0.000 19.885 2.910 19.885 L 5.820 19.885 5.821 18.066 C 5.821 17.066,5.893 15.990,5.981 15.676 C 6.256 14.684,7.038 13.638,7.869 13.150 C 8.605 12.717,8.782 12.686,10.993 12.610 L 13.337 12.529 13.384 11.095 L 13.431 9.662 12.980 9.802 C 12.732 9.879,12.076 9.939,11.522 9.935 C 10.674 9.929,10.408 9.852,9.837 9.450 C 7.114 7.532,8.519 3.184,11.779 3.440 C 12.281 3.479,12.855 3.566,13.055 3.634 C 13.418 3.756,13.418 3.754,13.418 1.878 L 13.418 0.000 6.709 0.000 L 0.000 0.000 0.000 9.942 M77.350 3.953 C 76.558 4.746,77.104 5.982,78.247 5.982 C 78.956 5.982,79.540 5.421,79.540 4.740 C 79.540 4.184,78.855 3.557,78.247 3.557 C 77.932 3.557,77.600 3.703,77.350 3.953 M23.319 10.306 L 23.361 16.571 24.371 16.619 L 25.382 16.667 25.382 13.992 L 25.382 11.317 27.887 11.317 L 30.393 11.317 30.393 10.432 L 30.393 9.547 27.928 9.502 L 25.462 9.457 25.417 7.639 L 25.371 5.820 28.125 5.820 L 30.878 5.820 30.878 4.931 L 30.878 4.042 27.077 4.042 L 23.276 4.042 23.319 10.306 M53.350 6.224 L 53.350 7.598 52.622 7.598 L 51.895 7.598 51.895 8.407 L 51.895 9.215 52.622 9.215 L 53.350 9.215 53.350 11.470 C 53.350 14.236,53.525 15.145,54.185 15.821 C 54.795 16.444,55.583 16.691,56.745 16.623 L 57.634 16.571 57.682 15.650 L 57.731 14.730 57.201 14.882 C 56.612 15.051,56.159 14.959,55.735 14.587 C 55.487 14.370,55.452 14.014,55.452 11.777 L 55.452 9.215 56.583 9.215 L 57.715 9.215 57.715 8.407 L 57.715 7.598 56.583 7.598 L 55.452 7.598 55.452 6.224 L 55.452 4.850 54.401 4.850 L 53.350 4.850 53.350 6.224 M92.312 6.224 L 92.312 7.598 91.503 7.598 L 90.695 7.598 90.695 8.407 L 90.695 9.215 91.490 9.215 L 92.285 9.215 92.339 12.114 C 92.397 15.274,92.446 15.446,93.492 16.227 C 93.952 16.571,95.520 16.774,96.267 16.587 C 96.636 16.494,96.677 16.405,96.677 15.688 L 96.677 14.892 95.774 14.923 C 94.999 14.950,94.827 14.900,94.561 14.573 C 94.286 14.233,94.252 13.913,94.252 11.703 L 94.252 9.215 95.464 9.215 L 96.677 9.215 96.677 8.407 L 96.677 7.598 95.464 7.598 L 94.252 7.598 94.252 6.224 L 94.252 4.850 93.282 4.850 L 92.312 4.850 92.312 6.224 M34.919 7.588 C 34.140 7.825,33.517 8.229,32.931 8.878 C 32.044 9.859,31.797 10.550,31.797 12.044 C 31.797 13.538,32.044 14.229,32.932 15.212 C 33.767 16.136,34.618 16.527,35.990 16.616 C 37.450 16.712,38.515 16.377,39.492 15.517 C 42.027 13.286,41.185 8.765,38.035 7.691 C 37.260 7.427,35.625 7.373,34.919 7.588 M45.266 7.588 C 44.481 7.826,43.862 8.231,43.258 8.899 C 42.369 9.883,42.134 10.542,42.134 12.044 C 42.134 13.547,42.369 14.205,43.260 15.191 C 44.113 16.135,44.957 16.526,46.337 16.616 C 47.796 16.712,48.862 16.377,49.839 15.517 C 52.374 13.286,51.532 8.765,48.381 7.691 C 47.607 7.427,45.972 7.373,45.266 7.588 M62.889 7.694 C 62.579 7.829,62.161 8.093,61.960 8.282 L 61.595 8.625 61.595 8.112 L 61.595 7.598 60.625 7.598 L 59.655 7.598 59.655 13.750 L 59.655 19.901 60.585 19.853 L 61.514 19.804 61.559 17.744 L 61.605 15.683 62.272 16.125 C 62.809 16.480,63.168 16.579,64.099 16.626 C 66.846 16.764,68.547 15.003,68.547 12.021 C 68.547 9.911,67.746 8.507,66.122 7.773 C 65.243 7.376,63.710 7.338,62.889 7.694 M73.742 7.682 C 73.443 7.814,72.951 8.191,72.651 8.519 L 72.103 9.117 72.103 8.357 L 72.103 7.598 71.131 7.598 L 70.158 7.598 70.201 12.085 L 70.244 16.571 71.174 16.619 L 72.103 16.668 72.105 14.841 C 72.107 11.606,72.464 10.315,73.567 9.564 C 74.035 9.245,74.262 9.198,74.981 9.270 L 75.837 9.355 75.789 8.436 L 75.741 7.517 75.013 7.480 C 74.613 7.459,74.041 7.550,73.742 7.682 M85.117 7.653 C 84.851 7.774,84.396 8.072,84.107 8.316 L 83.582 8.759 83.582 8.179 L 83.582 7.598 82.528 7.598 L 81.475 7.598 81.518 12.085 L 81.561 16.571 82.531 16.571 L 83.501 16.571 83.582 13.742 C 83.648 11.430,83.716 10.815,83.953 10.380 C 84.611 9.175,86.217 8.830,87.176 9.686 L 87.704 10.158 87.754 13.405 L 87.804 16.652 88.764 16.652 L 89.725 16.652 89.725 13.288 C 89.725 10.030,89.713 9.900,89.324 9.125 C 88.756 7.995,88.020 7.538,86.671 7.479 C 86.017 7.450,85.415 7.518,85.117 7.653 M77.277 12.125 L 77.277 16.652 78.247 16.652 L 79.217 16.652 79.217 12.125 L 79.217 7.598 78.247 7.598 L 77.277 7.598 77.277 12.125 M37.749 9.519 C 38.922 10.196,39.353 12.304,38.595 13.661 C 37.839 15.016,35.904 15.408,34.753 14.440 C 34.022 13.825,33.788 13.245,33.788 12.044 C 33.788 10.814,34.040 10.217,34.799 9.642 C 35.648 8.999,36.766 8.952,37.749 9.519 M48.096 9.519 C 49.268 10.196,49.699 12.304,48.942 13.661 C 48.185 15.016,46.251 15.408,45.100 14.440 C 44.369 13.825,44.115 13.207,44.115 12.044 C 44.115 10.852,44.388 10.215,45.145 9.642 C 45.995 8.999,47.113 8.952,48.096 9.519 M65.534 9.582 C 66.914 10.559,66.932 13.439,65.565 14.514 C 64.504 15.349,62.654 15.012,61.938 13.854 C 61.248 12.737,61.331 10.948,62.118 9.977 C 62.866 9.055,64.520 8.864,65.534 9.582 " stroke="none" fill-rule="evenodd"></path></svg>