<svg width="229" height="48" viewBox="0 0 229 48" fill="none" xmlns="http://www.w3.org/2000/svg"><path d="M0.000 23.854 L 0.000 47.708 6.826 47.708 L 13.652 47.708 13.819 42.651 C 13.931 39.246,14.180 37.149,14.579 36.231 C 15.492 34.128,17.547 32.030,19.653 31.049 C 21.350 30.259,22.130 30.159,26.621 30.155 L 31.678 30.152 31.678 26.545 L 31.678 22.939 30.355 23.492 C 25.484 25.527,19.854 21.526,19.854 16.030 C 19.854 10.535,25.139 6.736,30.247 8.559 L 31.678 9.070 31.678 4.535 L 31.678 0.000 15.839 0.000 L 0.000 0.000 0.000 23.854 M183.267 9.280 C 181.482 11.179,182.700 14.274,185.231 14.274 C 187.668 14.274,189.081 12.070,187.993 9.966 C 187.048 8.139,184.664 7.793,183.267 9.280 M55.342 24.617 L 55.342 39.693 57.822 39.693 L 60.303 39.693 60.303 33.396 L 60.303 27.098 66.219 27.098 L 72.135 27.098 72.135 24.808 L 72.135 22.518 66.219 22.518 L 60.303 22.518 60.303 18.329 L 60.303 14.140 66.696 14.035 L 73.089 13.931 73.204 11.736 L 73.318 9.542 64.330 9.542 L 55.342 9.542 55.342 24.617 M126.586 11.704 C 126.446 11.844,126.332 13.304,126.332 14.949 L 126.332 17.938 124.614 17.938 L 122.897 17.938 122.897 20.037 L 122.897 22.137 124.565 22.137 L 126.234 22.137 126.408 28.530 C 126.559 34.106,126.686 35.125,127.399 36.506 C 128.737 39.098,131.630 40.397,134.954 39.899 L 136.637 39.647 136.637 37.578 L 136.637 35.510 135.015 35.730 C 133.711 35.908,133.186 35.788,132.343 35.123 L 131.293 34.295 131.293 28.216 L 131.293 22.137 133.965 22.137 L 136.637 22.137 136.637 20.037 L 136.637 17.938 133.965 17.938 L 131.293 17.938 131.293 14.694 L 131.293 11.450 129.067 11.450 C 127.842 11.450,126.726 11.565,126.586 11.704 M218.695 14.694 L 218.695 17.938 216.787 17.938 L 214.878 17.938 214.878 20.037 L 214.878 22.137 216.787 22.137 L 218.695 22.137 218.695 28.409 C 218.695 31.903,218.874 35.158,219.100 35.756 C 220.218 38.720,224.025 40.603,227.328 39.826 C 228.795 39.481,228.810 39.458,228.925 37.470 L 229.041 35.463 227.140 35.715 C 225.432 35.942,225.140 35.868,224.257 34.985 C 223.287 34.015,223.275 33.934,223.275 28.087 L 223.275 22.170 226.042 22.058 L 228.809 21.946 228.925 19.942 L 229.040 17.938 226.157 17.938 L 223.275 17.938 223.275 14.694 L 223.275 11.450 220.985 11.450 L 218.695 11.450 218.695 14.694 M83.128 18.071 C 77.865 19.546,74.862 23.989,75.273 29.693 C 75.798 36.984,82.201 41.467,89.260 39.486 C 94.069 38.137,97.060 34.045,97.060 28.816 C 97.060 24.260,94.500 20.146,90.670 18.545 C 88.660 17.706,85.208 17.489,83.128 18.071 M107.611 18.054 C 102.408 19.525,99.218 24.267,99.718 29.786 C 100.101 34.005,102.126 37.090,105.642 38.810 C 108.538 40.227,112.607 40.289,115.363 38.957 C 123.601 34.976,123.726 22.706,115.570 18.758 C 113.438 17.726,109.883 17.411,107.611 18.054 M149.662 18.107 C 148.744 18.405,147.499 19.122,146.895 19.701 L 145.797 20.753 145.797 19.346 L 145.797 17.938 143.507 17.938 L 141.217 17.938 141.217 32.633 L 141.217 47.327 143.507 47.327 L 145.797 47.327 145.797 42.377 L 145.797 37.426 147.152 38.346 C 150.231 40.436,154.269 40.440,157.846 38.356 C 163.332 35.161,164.144 24.492,159.230 20.178 C 156.675 17.935,152.786 17.093,149.662 18.107 M174.891 18.313 C 173.995 18.720,172.750 19.613,172.124 20.298 L 170.987 21.543 170.987 19.741 L 170.987 17.938 168.697 17.938 L 166.407 17.938 166.407 28.816 L 166.407 39.693 168.664 39.693 L 170.921 39.693 171.049 33.491 C 171.165 27.873,171.263 27.115,172.088 25.439 C 173.342 22.893,174.774 22.056,177.570 22.235 L 179.765 22.376 179.765 20.202 C 179.765 18.269,179.669 18.002,178.906 17.797 C 177.497 17.420,176.608 17.534,174.891 18.313 M202.770 17.913 C 201.274 18.286,199.970 19.112,198.676 20.507 L 197.703 21.556 197.703 19.747 L 197.703 17.938 195.413 17.938 L 193.123 17.938 193.123 28.816 L 193.123 39.693 195.365 39.693 L 197.606 39.693 197.785 33.300 C 197.973 26.600,198.297 25.115,199.946 23.396 C 201.666 21.602,204.955 21.478,206.620 23.143 C 207.865 24.388,208.008 25.410,208.008 33.062 L 208.008 39.693 210.298 39.693 L 212.588 39.693 212.588 31.926 C 212.588 23.958,212.388 22.539,210.971 20.506 C 209.559 18.479,205.567 17.216,202.770 17.913 M182.908 28.720 L 183.009 39.502 185.395 39.616 L 187.780 39.730 187.780 28.834 L 187.780 17.938 185.293 17.938 L 182.806 17.938 182.908 28.720 M89.612 22.764 C 91.161 23.892,92.363 26.538,92.363 28.816 C 92.363 31.088,91.162 33.739,89.625 34.858 C 86.953 36.803,82.336 35.637,80.752 32.617 C 78.963 29.207,80.079 24.337,83.046 22.598 C 84.894 21.515,88.006 21.594,89.612 22.764 M114.015 22.765 C 115.908 24.179,116.554 25.434,116.719 28.019 C 116.914 31.082,116.340 32.851,114.676 34.312 C 112.436 36.279,109.088 36.351,106.864 34.480 C 105.126 33.017,104.481 31.477,104.481 28.784 C 104.481 24.337,107.062 21.594,110.985 21.870 C 112.216 21.956,113.399 22.306,114.015 22.765 M155.231 22.823 C 158.648 25.257,158.568 32.646,155.099 34.919 C 152.377 36.702,148.220 35.695,146.630 32.867 C 145.996 31.738,145.798 30.758,145.803 28.764 C 145.810 25.620,146.804 23.559,148.850 22.439 C 150.593 21.485,153.606 21.667,155.231 22.823 " stroke="none" fill-rule="evenodd"></path></svg>