<svg width="144" height="24" viewBox="0 0 144 24" fill="none" xmlns="http://www.w3.org/2000/svg">
<path d="M23.333 4.38361H30.8849V6.20465H25.4223L25.4218 9.82017H30.4395V11.6417L25.4218 11.6412V16.8824L23.3325 16.8819" fill="black"/>
<path d="M39.0433 12.3829C39.0433 10.651 37.9541 9.43676 36.3648 9.43676C34.7579 9.43676 33.6864 10.651 33.6864 12.3829C33.6864 14.1149 34.7579 15.3291 36.3648 15.3291C37.9541 15.3296 39.0433 14.1149 39.0433 12.3829ZM31.7227 12.3829C31.7227 9.68678 33.651 7.74023 36.3648 7.74023C39.061 7.74073 41.0075 9.68678 41.0075 12.3829C41.007 15.079 39.061 17.0251 36.3648 17.0251C33.6505 17.0251 31.7222 15.079 31.7227 12.3829Z" fill="black"/>
<path d="M49.3848 12.3834C49.3848 10.651 48.2956 9.43725 46.7064 9.43725C45.0995 9.43725 44.028 10.651 44.028 12.3834C44.028 14.1149 45.0995 15.3296 46.7064 15.3296C48.2956 15.3296 49.3848 14.1154 49.3848 12.3834ZM42.0642 12.3834C42.0642 9.68678 43.9926 7.74072 46.7064 7.74072C49.4026 7.74072 51.3486 9.68727 51.3486 12.3834C51.3486 15.0795 49.4026 17.0256 46.7064 17.0256C43.9921 17.0256 42.0637 15.079 42.0642 12.3834Z" fill="black"/>
<path d="M66.6587 12.3839C66.6587 10.5983 65.6227 9.43774 64.0516 9.43774C62.4806 9.43724 61.4446 10.5983 61.4446 12.3834C61.4446 14.1513 62.4806 15.33 64.0516 15.33C65.6227 15.33 66.6587 14.1513 66.6587 12.3839ZM59.6226 7.88394H61.5696V9.02677C62.0696 8.29491 63.1229 7.74121 64.373 7.74121C67.0337 7.74121 68.6052 9.66955 68.6052 12.3839C68.6038 15.0977 66.9619 17.0261 64.2657 17.0261C63.1761 17.0261 62.1228 16.5615 61.5696 15.8473V20.1327H59.6226" fill="black"/>
<path d="M77.265 7.88444H79.2115L79.21 16.8834H77.265V7.88444ZM76.9785 5.13466C76.9785 4.42052 77.514 3.86682 78.2286 3.86682C78.9605 3.86682 79.5152 4.42052 79.5152 5.13466C79.5152 5.83109 78.9605 6.38429 78.2286 6.38429C77.514 6.38429 76.9785 5.83109 76.9785 5.13466Z" fill="black"/>
<path d="M81.5522 7.88444H83.4988V9.38458C84.1052 8.42042 85.1407 7.74171 86.4627 7.74171C88.3728 7.74171 89.712 9.00955 89.712 10.9556V16.8838H87.7655L87.7664 11.4025C87.7664 10.2769 87.07 9.49139 85.9272 9.49139C84.4088 9.49139 83.4988 10.7769 83.4988 12.9376L83.4978 16.8838H81.5522" fill="black"/>
<path d="M75.7845 7.86278C75.5261 7.78207 75.191 7.74171 74.8962 7.74171C73.8075 7.74121 72.6292 8.52722 72.1469 9.59868V7.88444L70.2003 7.88395V16.8834H72.1469V13.5267C72.1469 10.7415 73.3074 9.56275 74.6289 9.56275C75.0374 9.56275 75.4631 9.63363 75.7845 9.77537" fill="black"/>
<path d="M57.7355 15.0653C57.3964 15.2257 56.9352 15.2941 56.5961 15.2941C55.8643 15.2941 55.3642 14.8295 55.3642 13.9367V9.54455H57.7291V7.88395L55.3642 7.88346V5.20554H53.4187V7.88346H51.8467V9.54405L53.4187 9.54455V14.044C53.4187 16.0974 54.686 17.0256 56.382 17.0256C56.8344 17.0256 57.3359 16.9493 57.7355 16.8322" fill="black"/>
<path d="M96.6104 15.0662C96.2713 15.2267 95.8092 15.2951 95.4701 15.2951C94.7382 15.2951 94.2377 14.8305 94.2377 13.9377L94.2391 9.54552H96.6025V7.88493L94.2391 7.88443V5.20651H92.2926V7.88443H90.7211V9.54503L92.2926 9.54552V14.045C92.2926 16.0983 93.5599 17.0266 95.256 17.0266C95.7083 17.0266 96.2098 16.9503 96.6104 16.8331" fill="black"/>
<path d="M10 14.4998H13.3335V11.5506C12.8428 11.8346 12.2748 12 11.667 12C9.82578 12 8.3335 10.5077 8.3335 8.6665C8.3335 6.82577 9.82578 5.33301 11.667 5.33301C12.2748 5.33301 12.8428 5.49887 13.3335 5.78285V2H0V22H5.83375V18.6665C5.83375 16.3656 7.69909 14.4998 10 14.4998Z" fill="black"/>
<path d="M106.136 17V5.8H109.768C111.08 5.8 112.157 6.02933 113 6.488C113.853 6.94667 114.483 7.59733 114.888 8.44C115.304 9.272 115.512 10.264 115.512 11.416C115.512 12.5573 115.304 13.5493 114.888 14.392C114.483 15.224 113.853 15.8693 113 16.328C112.157 16.776 111.08 17 109.768 17H106.136ZM107.832 15.56H109.704C110.717 15.56 111.517 15.3947 112.104 15.064C112.701 14.7333 113.128 14.2587 113.384 13.64C113.651 13.0213 113.784 12.28 113.784 11.416C113.784 10.552 113.651 9.80533 113.384 9.176C113.128 8.54667 112.701 8.06667 112.104 7.736C111.517 7.39467 110.717 7.224 109.704 7.224H107.832V15.56ZM121.034 17.192C120.277 17.192 119.594 17.0213 118.986 16.68C118.389 16.328 117.914 15.8427 117.562 15.224C117.21 14.5947 117.034 13.864 117.034 13.032C117.034 12.2 117.21 11.4747 117.562 10.856C117.925 10.2267 118.41 9.74133 119.018 9.4C119.626 9.048 120.303 8.872 121.05 8.872C121.807 8.872 122.485 9.048 123.082 9.4C123.69 9.74133 124.17 10.2267 124.522 10.856C124.885 11.4747 125.066 12.2 125.066 13.032C125.066 13.864 124.885 14.5947 124.522 15.224C124.17 15.8427 123.69 16.328 123.082 16.68C122.474 17.0213 121.791 17.192 121.034 17.192ZM121.034 15.736C121.439 15.736 121.813 15.6347 122.154 15.432C122.506 15.2293 122.789 14.9307 123.002 14.536C123.215 14.1307 123.322 13.6293 123.322 13.032C123.322 12.4347 123.215 11.9387 123.002 11.544C122.799 11.1387 122.522 10.8347 122.17 10.632C121.829 10.4293 121.455 10.328 121.05 10.328C120.645 10.328 120.266 10.4293 119.914 10.632C119.573 10.8347 119.295 11.1387 119.082 11.544C118.869 11.9387 118.762 12.4347 118.762 13.032C118.762 13.6293 118.869 14.1307 119.082 14.536C119.295 14.9307 119.573 15.2293 119.914 15.432C120.255 15.6347 120.629 15.736 121.034 15.736ZM130.66 17.192C129.881 17.192 129.183 17.016 128.564 16.664C127.956 16.312 127.476 15.8267 127.124 15.208C126.783 14.5787 126.612 13.8533 126.612 13.032C126.612 12.2107 126.783 11.4907 127.124 10.872C127.476 10.2427 127.956 9.752 128.564 9.4C129.183 9.048 129.881 8.872 130.66 8.872C131.641 8.872 132.463 9.128 133.124 9.64C133.796 10.152 134.228 10.8453 134.42 11.72H132.644C132.537 11.2827 132.303 10.9413 131.94 10.696C131.577 10.4507 131.151 10.328 130.66 10.328C130.244 10.328 129.86 10.4347 129.508 10.648C129.156 10.8507 128.873 11.1547 128.66 11.56C128.447 11.9547 128.34 12.4453 128.34 13.032C128.34 13.6187 128.447 14.1147 128.66 14.52C128.873 14.9147 129.156 15.2187 129.508 15.432C129.86 15.6453 130.244 15.752 130.66 15.752C131.151 15.752 131.577 15.6293 131.94 15.384C132.303 15.1387 132.537 14.792 132.644 14.344H134.42C134.239 15.1973 133.812 15.8853 133.14 16.408C132.468 16.9307 131.641 17.192 130.66 17.192ZM139.428 17.192C138.425 17.192 137.598 16.9467 136.948 16.456C136.297 15.9653 135.924 15.3147 135.828 14.504H137.539C137.625 14.8667 137.828 15.1813 138.148 15.448C138.468 15.704 138.889 15.832 139.411 15.832C139.924 15.832 140.297 15.7253 140.532 15.512C140.766 15.2987 140.884 15.0533 140.884 14.776C140.884 14.3707 140.718 14.0987 140.388 13.96C140.068 13.8107 139.62 13.6773 139.044 13.56C138.596 13.464 138.148 13.336 137.7 13.176C137.262 13.016 136.894 12.792 136.596 12.504C136.308 12.2053 136.164 11.8053 136.164 11.304C136.164 10.6107 136.43 10.0347 136.964 9.576C137.497 9.10667 138.244 8.872 139.204 8.872C140.089 8.872 140.804 9.08533 141.348 9.512C141.902 9.93867 142.228 10.5413 142.324 11.32H140.692C140.638 10.9787 140.478 10.712 140.212 10.52C139.956 10.328 139.609 10.232 139.172 10.232C138.745 10.232 138.414 10.3227 138.18 10.504C137.945 10.6747 137.828 10.8987 137.828 11.176C137.828 11.4533 137.988 11.672 138.308 11.832C138.638 11.992 139.07 12.136 139.604 12.264C140.137 12.3813 140.628 12.52 141.076 12.68C141.534 12.8293 141.902 13.0533 142.18 13.352C142.457 13.6507 142.596 14.088 142.596 14.664C142.606 15.3893 142.324 15.992 141.748 16.472C141.182 16.952 140.409 17.192 139.428 17.192Z" fill="#707070"/>
</svg>
