<svg width="40" height="41" viewBox="0 0 40 41" fill="none" xmlns="http://www.w3.org/2000/svg">
<circle cx="16.5" cy="17" r="2" fill="black"/>
<circle cx="23.5" cy="17" r="2" fill="black"/>
<path d="M14.5 24.333C14.5 24.333 15.875 26.9997 20 26.9997C24.125 26.9997 25.5 24.333 25.5 24.333" stroke="black" stroke-width="2.4" stroke-linecap="round"/>
<rect x="8" y="6" width="24" height="30" rx="5" stroke="black" stroke-width="3.5"/>
<path d="M33.8785 8.98963C33.7503 9.176 33.7207 9.41306 33.7992 9.6252L36.081 15.7935C36.3281 16.4616 35.5306 17.0253 34.9832 16.5693L29.9085 12.342C29.7468 12.2073 29.5329 12.1531 29.3266 12.1944L24.5 13.1612C23.8717 13.287 23.4218 12.5684 23.8094 12.0582L26.5797 8.41191C26.7235 8.22252 26.7607 7.97276 26.6782 7.74969L24.4038 1.60124C24.1566 0.933116 24.9542 0.36941 25.5015 0.825357L30.5564 5.03618C30.7292 5.18017 30.9611 5.23168 31.1786 5.17446L35.8662 3.94154C36.49 3.77748 36.9819 4.47711 36.6164 5.00856L33.8785 8.98963Z" fill="white"/>
<path d="M31.972 8.88164C31.9213 8.94252 31.907 9.02585 31.9345 9.10017L33.1924 12.5007C33.271 12.7133 33.0172 12.8927 32.843 12.7476L30.0562 10.4261C29.9959 10.3759 29.9135 10.3613 29.8396 10.3879L26.5403 11.5743C26.3289 11.6503 26.1518 11.3996 26.294 11.2257L28.5136 8.51192C28.5633 8.45114 28.5771 8.36858 28.5499 8.29494L27.2915 4.89315C27.2129 4.68052 27.4667 4.50111 27.6409 4.64622L30.4267 6.96685C30.4875 7.01756 30.5709 7.03188 30.6452 7.00439L34.0458 5.74655C34.2584 5.6679 34.4378 5.92173 34.2927 6.09592L31.972 8.88164Z" fill="black"/>
</svg>
