<svg width="85" height="29" viewBox="0 0 85 29" fill="none" xmlns="http://www.w3.org/2000/svg">
<path d="M59.0153 3.83012C59.2553 3.90012 59.4353 4.16011 59.6753 4.24011C59.9153 4.32011 60.1653 4.37012 60.3953 4.47012C60.6253 4.57012 60.7353 4.92011 60.9453 5.03011C61.1553 5.14011 61.4753 5.09011 61.6853 5.22011C61.8953 5.35011 62.0453 5.57011 62.2353 5.72011C62.4253 5.87011 62.8853 5.78011 63.0553 5.96011C63.2253 6.14011 63.3253 6.39012 63.4553 6.56012C63.6053 6.76012 63.6353 7.04012 63.7353 7.23012C63.8453 7.46012 63.6253 7.76011 63.6753 7.97011C63.7253 8.21011 63.9253 8.39011 63.8853 8.61011C63.8553 8.84011 63.6353 8.96011 63.5153 9.16011C63.3953 9.36011 63.2153 9.39012 63.0353 9.56012C62.8753 9.71012 62.7453 9.81011 62.5353 9.94011C62.3453 10.0501 62.3953 10.6301 62.1753 10.7301C61.9653 10.8201 61.5953 10.4601 61.3653 10.5201C61.1353 10.5801 61.0553 11.1701 60.8253 11.2201C60.5953 11.2701 60.3353 11.1501 60.0953 11.1801C59.8553 11.2101 59.6153 11.0501 59.3853 11.0701C59.1553 11.0901 58.9253 11.3001 58.6953 11.2901C58.4553 11.2901 58.2153 11.0701 57.9753 11.0701C57.7353 11.0701 57.4953 11.4501 57.2553 11.4501C57.0153 11.4501 56.7753 11.4001 56.5353 11.4001C56.2953 11.4001 56.0553 11.3601 55.8153 11.3601C55.5753 11.3601 55.3353 11.4001 55.0953 11.4001C54.8553 11.4001 54.6153 11.0001 54.3753 10.9901C54.1353 10.9801 53.8953 10.8701 53.6553 10.8701C53.4153 10.8701 53.1753 11.1601 52.9353 11.1601C52.6953 11.1601 52.4553 10.8801 52.2153 10.8801C51.9753 10.8801 51.7353 11.2101 51.4953 11.2101C51.2553 11.2101 51.0153 10.9801 50.7753 10.9701C50.5353 10.9601 50.2953 10.7901 50.0553 10.7901C49.8153 10.7901 49.5753 10.9901 49.3353 10.9901C49.0953 10.9901 48.8553 11.3101 48.6153 11.3101C48.3753 11.3101 48.1353 11.2101 47.8953 11.2101C47.6553 11.2101 47.4153 11.2501 47.1753 11.2501C46.9353 11.2501 46.6953 11.0201 46.4553 11.0201C46.2153 11.0201 45.9753 10.8201 45.7353 10.8201C45.4953 10.8201 45.2553 11.2001 45.0153 11.2001C44.7753 11.2001 44.5353 11.3401 44.2953 11.3401C44.0553 11.3401 43.8153 10.8801 43.5753 10.8801C43.3353 10.8801 43.0953 11.4101 42.8553 11.4101C42.6153 11.4101 42.3753 10.9701 42.1353 10.9701C41.8953 10.9701 41.6553 11.1401 41.4153 11.1401C41.1753 11.1401 40.9353 10.8201 40.6953 10.8201C40.4553 10.8201 40.2153 10.7801 39.9753 10.7801C39.7353 10.7801 39.4953 10.8301 39.2553 10.8201C39.0153 10.8101 38.7753 11.0501 38.5353 11.0501C38.2953 11.0501 38.0553 11.3001 37.8153 11.3001C37.5753 11.3001 37.3353 11.0201 37.0953 11.0201C36.8553 11.0201 36.6153 11.0201 36.3753 11.0201C36.1353 11.0201 35.8953 10.9701 35.6553 10.9701C35.4153 10.9701 35.1753 11.0601 34.9353 11.0601C34.6953 11.0601 34.4553 10.9301 34.2153 10.9301C33.9753 10.9301 33.7353 11.1201 33.4953 11.1201C33.2553 11.1201 33.0153 11.3801 32.7753 11.3801C32.5353 11.3801 32.2953 10.7201 32.0553 10.7201C31.8153 10.7201 31.5753 11.1701 31.3353 11.1701C31.0953 11.1701 30.8553 10.9401 30.6153 10.9401C30.3753 10.9401 30.1353 11.2201 29.8953 11.2201C29.6553 11.2201 29.4153 11.0401 29.1753 11.0401C28.9353 11.0401 28.6953 10.7701 28.4553 10.7601C28.2153 10.7501 27.9753 11.2901 27.7353 11.2901C27.4953 11.2901 27.2553 11.1801 27.0153 11.1801C26.7753 11.1801 26.5353 11.0101 26.2953 11.0001C26.0553 10.9901 25.8153 11.2801 25.5753 11.2801C25.3353 11.2801 25.0953 10.9601 24.8553 10.9501C24.6153 10.9401 24.3753 11.0001 24.1353 11.0001C23.8953 11.0001 23.6553 10.8501 23.4153 10.8401C23.1753 10.8301 22.9353 11.2501 22.6953 11.2501C22.4553 11.2501 22.2153 10.7001 21.9753 10.7001C21.7353 10.7001 21.4953 10.8301 21.2553 10.8301C21.0153 10.8301 20.7753 10.6201 20.5353 10.6201C20.2953 10.6201 20.0553 10.8201 19.8153 10.8201C19.5753 10.8201 19.3353 10.9001 19.0953 10.9001C18.8553 10.9001 18.6153 10.8301 18.3753 10.8301C18.1353 10.8301 17.8953 10.7401 17.6553 10.7401C17.4153 10.7401 17.1753 11.2001 16.9353 11.2001C16.6953 11.2001 16.4553 10.8401 16.2153 10.8401C15.9753 10.8401 15.7353 10.7301 15.4953 10.7201C15.2553 10.7101 15.0153 10.7801 14.7753 10.7801C14.5353 10.7801 14.2953 10.8001 14.0553 10.7901C13.8153 10.7801 13.5753 10.9401 13.3353 10.9401C13.0953 10.9401 12.8553 11.1001 12.6153 11.1001C12.3753 11.1001 12.1353 10.8101 11.8953 10.8101C11.6553 10.8101 11.4153 11.2301 11.1753 11.2301C10.9353 11.2301 10.6953 10.6301 10.4553 10.6301C10.2153 10.6301 9.97526 11.2301 9.73526 11.2301C9.49527 11.2301 9.25526 10.8201 9.01526 10.8201C8.77526 10.8201 8.53526 10.5701 8.29526 10.5701C8.05526 10.5701 7.81526 10.6801 7.57526 10.6801C7.33526 10.6801 7.09527 10.7701 6.85527 10.7701C6.61527 10.7701 6.37527 11.1801 6.13527 11.1801C5.89527 11.1801 5.65526 11.0801 5.41526 11.0801C5.15526 11.0801 4.92527 10.7101 4.70527 10.7001C4.44527 10.6801 4.20526 10.7001 3.98526 10.6601C3.72526 10.6201 3.41527 10.8401 3.20527 10.7701C2.94527 10.6901 2.67527 10.5801 2.49527 10.4701C2.26527 10.3201 2.26526 9.94012 2.14526 9.76012C2.01526 9.55012 1.75527 9.36012 1.74527 9.12012C1.73527 8.89012 1.57526 8.55011 1.65526 8.30011C1.72526 8.08011 2.02526 7.89012 2.14526 7.67012C2.25526 7.47012 2.34527 7.21012 2.49527 7.01012C2.63527 6.82012 3.01526 6.82011 3.18526 6.64011C3.35526 6.46011 3.28527 6.05011 3.46527 5.88011C3.64527 5.71011 3.92526 5.65011 4.11526 5.50011C4.30526 5.35011 4.57527 5.29011 4.77527 5.16011C4.97527 5.03011 5.07527 4.70012 5.28527 4.58012C5.49527 4.46012 5.71526 4.29011 5.93526 4.20011C6.15526 4.11011 6.62527 4.64011 6.84526 4.57011C7.07526 4.50011 7.11526 3.81011 7.34526 3.74011C7.57526 3.67011 7.80527 3.57012 8.03527 3.51012C8.26527 3.45012 8.56526 3.63011 8.80526 3.57011C9.04526 3.51011 9.28526 3.50012 9.51526 3.44012C9.74526 3.38012 10.0453 3.61011 10.2753 3.56011C10.5053 3.51011 10.6453 2.97011 10.8853 2.92011C11.1253 2.87011 11.3753 2.89011 11.6053 2.85011C11.8353 2.81011 12.1253 3.06011 12.3653 3.03011C12.6053 3.00011 12.8653 3.11012 13.1053 3.08012C13.3453 3.05012 13.5753 2.96011 13.8053 2.92011C14.0353 2.88011 14.2953 2.95011 14.5253 2.92011C14.7553 2.89011 14.9553 2.46011 15.1953 2.43011C15.4353 2.40011 15.7253 2.87011 15.9653 2.85011C16.2053 2.83011 16.4353 2.73011 16.6753 2.71011C16.9153 2.69011 17.1253 2.27012 17.3653 2.26012C17.6053 2.25012 17.8653 2.52011 18.1053 2.50011C18.3453 2.48011 18.5653 2.17011 18.8053 2.16011C19.0453 2.15011 19.3053 2.46011 19.5453 2.45011C19.7853 2.44011 20.0253 2.34012 20.2653 2.33012C20.5053 2.32012 20.7553 2.53011 20.9953 2.52011C21.2353 2.51011 21.4553 1.85011 21.6953 1.85011C21.9353 1.85011 22.1953 2.42011 22.4353 2.41011C22.6753 2.40011 22.9153 2.22012 23.1553 2.22012C23.3953 2.22012 23.6353 2.10011 23.8753 2.10011C24.1153 2.10011 24.3553 2.01012 24.5953 2.01012C24.8353 2.01012 25.0753 1.99011 25.3153 1.99011C25.5553 1.99011 25.8053 2.22011 26.0453 2.21011C26.2853 2.20011 26.5253 2.27012 26.7753 2.26012C27.0253 2.25012 27.2553 2.08011 27.4953 2.07011C27.7353 2.06011 27.9753 2.08011 28.2153 2.07011C28.4553 2.06011 28.6953 2.21011 28.9353 2.20011C29.1753 2.19011 29.4153 2.26011 29.6553 2.25011C29.8953 2.25011 30.1253 1.81011 30.3653 1.81011C30.6053 1.81011 30.8453 1.78011 31.0853 1.78011C31.3253 1.78011 31.5653 1.72011 31.8053 1.71011C32.0453 1.70011 32.2953 2.31011 32.5353 2.30011C32.7753 2.29011 33.0053 1.82011 33.2453 1.82011C33.4853 1.82011 33.7253 1.92011 33.9653 1.92011C34.2053 1.92011 34.4453 1.67011 34.6853 1.67011C34.9253 1.67011 35.1653 2.21011 35.4053 2.21011C35.6453 2.21011 35.8853 1.68011 36.1253 1.68011C36.3653 1.68011 36.6053 1.98011 36.8453 1.98011C37.0853 1.98011 37.3253 2.26012 37.5653 2.26012C37.8053 2.26012 38.0453 1.95011 38.2853 1.96011C38.5253 1.97011 38.7653 1.62012 39.0053 1.62012C39.2453 1.62012 39.4853 1.80011 39.7253 1.80011C39.9653 1.80011 40.1953 2.14012 40.4353 2.15012C40.6753 2.16012 40.9153 2.15011 41.1553 2.16011C41.3953 2.17011 41.6453 1.81011 41.8853 1.82011C42.1253 1.83011 42.3453 2.35012 42.5853 2.36012C42.8253 2.37012 43.0653 2.28012 43.3053 2.29012C43.5453 2.30012 43.8053 1.90011 44.0453 1.91011C44.2853 1.92011 44.5153 2.12011 44.7553 2.13011C44.9953 2.14011 45.2353 2.08011 45.4753 2.09011C45.7153 2.10011 45.9553 2.08011 46.1953 2.09011C46.4353 2.10011 46.6653 2.22011 46.9053 2.23011C47.1453 2.24011 47.3653 2.59011 47.5953 2.60011C47.8253 2.61011 48.1253 1.99012 48.3653 2.01012C48.6053 2.03012 48.8253 2.34012 49.0553 2.36012C49.2853 2.38012 49.5353 2.40011 49.7753 2.43011C50.0153 2.46011 50.2853 2.19011 50.5253 2.21011C50.7653 2.23011 50.9453 2.84012 51.1853 2.86012C51.4253 2.88012 51.6653 2.89011 51.9053 2.92011C52.1453 2.95011 52.3753 3.04011 52.6153 3.07011C52.8353 3.10011 53.0853 3.01012 53.3353 3.04012C53.5653 3.07012 53.8653 2.60011 54.1053 2.63011C54.3353 2.66011 54.5553 2.82011 54.7953 2.85011C55.0353 2.88011 55.1753 3.43012 55.4153 3.47012C55.6553 3.51012 55.9153 3.30011 56.1553 3.34011C56.3953 3.38011 56.6053 3.49012 56.8353 3.54012C57.0653 3.59012 57.3753 3.31012 57.6053 3.36012C57.8353 3.41012 58.0653 3.51011 58.2953 3.57011C58.5253 3.63011 58.7553 3.72012 58.9753 3.79012L59.0153 3.83012Z" fill="white"/>
<path d="M57.2553 12.6899C57.1253 12.6899 56.9253 12.6699 56.7553 12.6599C56.5253 12.6299 56.3053 12.6299 56.0753 12.6199C55.9853 12.6199 55.8953 12.5999 55.8053 12.5999C55.7653 12.6099 55.6353 12.5999 55.5553 12.6199C55.3953 12.6299 55.2653 12.6299 55.0853 12.6399C54.5753 12.6399 54.2153 12.3799 54.0053 12.1999C53.9253 12.1899 53.8553 12.1699 53.7953 12.1599C53.5653 12.2799 53.2853 12.3999 52.9353 12.3999C52.7053 12.4099 52.4353 12.3299 52.2553 12.2499C52.0453 12.3599 51.8053 12.4599 51.4953 12.4499C51.0953 12.4499 50.7853 12.2999 50.6053 12.2099C50.3953 12.1899 50.2253 12.1299 50.0853 12.0899C49.9453 12.1399 49.8053 12.1899 49.6353 12.2199C49.3853 12.3799 49.0553 12.5699 48.6253 12.5699C48.4053 12.5599 48.1653 12.5299 48.0153 12.4899C47.9753 12.4899 47.9253 12.4699 47.8853 12.4599C47.8253 12.4599 47.7353 12.4599 47.6453 12.4799C47.4953 12.4899 47.3253 12.5099 47.1853 12.4999C46.7853 12.4999 46.4753 12.3499 46.2953 12.2599C46.1453 12.2399 46.0153 12.2099 45.9053 12.1699C45.6753 12.3199 45.3953 12.4399 45.0353 12.4399L45.0153 12.4599C44.8553 12.5099 44.5653 12.5599 44.3153 12.5799C44.0653 12.5799 43.8453 12.5099 43.6653 12.4199C43.4553 12.5499 43.1653 12.6399 42.8753 12.6499C42.4653 12.6499 42.1553 12.4799 41.9353 12.3099C41.7853 12.3499 41.6253 12.3799 41.4453 12.3799C40.9953 12.3799 40.6653 12.1799 40.4653 12.0499C40.4053 12.0499 40.3453 12.0499 40.2853 12.0399C40.1953 12.0399 40.0853 12.0099 40.0053 12.0199C39.9253 12.0199 39.8453 12.0199 39.7753 12.0399C39.6753 12.0399 39.5653 12.0599 39.4653 12.0599C39.2753 12.1499 39.0553 12.2399 38.7853 12.2799C38.5353 12.4099 38.2453 12.5499 37.8553 12.5499C37.4453 12.5499 37.1153 12.3799 36.9253 12.2699H36.4153C36.2553 12.2699 36.1053 12.2499 35.9453 12.2399C35.8653 12.2399 35.7753 12.2199 35.6953 12.2199C35.6553 12.2199 35.6153 12.2299 35.5653 12.2399C35.3653 12.2799 35.1953 12.2999 34.9753 12.3099C34.6953 12.3099 34.4653 12.2499 34.3053 12.1999C34.1353 12.2599 33.9553 12.3199 33.7553 12.3499C33.5053 12.4799 33.2053 12.6199 32.8253 12.6199C32.4453 12.6199 32.1653 12.4699 31.9453 12.2999C31.7853 12.3699 31.6253 12.4399 31.3853 12.4099C31.1153 12.4099 30.8953 12.3399 30.7153 12.2699C30.5053 12.3699 30.2653 12.4699 29.9453 12.4599C29.6053 12.4599 29.3453 12.3599 29.1653 12.2899C29.1353 12.2799 29.1253 12.2799 29.1253 12.2699C28.9753 12.2599 28.8353 12.2299 28.7153 12.1899C28.4953 12.3699 28.1853 12.5299 27.7853 12.5299C27.5353 12.5299 27.3253 12.4799 27.1653 12.4499C27.1253 12.4499 27.0853 12.4299 27.0353 12.4199C26.8053 12.4199 26.6053 12.3699 26.4453 12.3099C26.2253 12.4199 25.9553 12.5299 25.6353 12.5299C25.2153 12.5299 24.8953 12.3499 24.6953 12.2199C24.5253 12.2399 24.3553 12.2499 24.1953 12.2499C24.0053 12.2499 23.8353 12.2199 23.6953 12.1799C23.4553 12.3499 23.1553 12.5099 22.7553 12.5099C22.2753 12.5099 21.9253 12.2699 21.6953 12.0499C21.5853 12.0699 21.4553 12.0899 21.3253 12.0899C21.0253 12.0899 20.7853 12.0099 20.6053 11.9399C20.3953 12.0199 20.1653 12.0899 19.8953 12.0899C19.8953 12.0899 19.8053 12.0999 19.7553 12.1099C19.5653 12.1399 19.3353 12.1699 19.1753 12.1699C18.9953 12.1699 18.8253 12.1499 18.6453 12.1199C18.4453 12.0899 18.2453 12.0899 18.0453 12.0599C17.7953 12.2599 17.4653 12.4599 17.0253 12.4599C16.5453 12.4599 16.1953 12.2299 15.9853 12.0799C15.8653 12.0599 15.7553 12.0399 15.6653 12.0099C15.6253 12.0099 15.5853 11.9899 15.5453 11.9799C15.5153 11.9799 15.4553 11.9899 15.3853 11.9999C15.2153 12.0199 15.0753 12.0599 14.8653 12.0399C14.7553 12.0399 14.6553 12.0399 14.5453 12.0399C14.4353 12.0399 14.3353 12.0399 14.2253 12.0399C14.0053 12.1099 13.7753 12.1799 13.5153 12.1899C13.2653 12.2699 13.0053 12.3499 12.7053 12.3499C12.4753 12.3499 12.2653 12.2899 12.0953 12.2299C11.8753 12.3699 11.6053 12.4799 11.2653 12.4799C10.9853 12.4799 10.7453 12.3999 10.5553 12.2799C10.3553 12.3999 10.1053 12.4899 9.82527 12.4799C9.29527 12.4799 8.93527 12.1999 8.72527 12.0199C8.54527 11.9799 8.39527 11.9099 8.28527 11.8499C8.12527 11.8899 7.87527 11.9199 7.67527 11.9299C7.63527 11.9299 7.59527 11.9399 7.54527 11.9499C7.47527 11.9599 7.39527 11.9799 7.32527 11.9899C7.06527 12.1999 6.72527 12.4299 6.24527 12.4299C6.04527 12.4299 5.84527 12.3999 5.64527 12.3599C5.60527 12.3599 5.55527 12.3399 5.50527 12.3299C5.03527 12.3299 4.68527 12.0999 4.46527 11.9399C4.32527 11.9399 4.18527 11.9399 4.05527 11.9199C3.75527 12.0099 3.37527 12.0999 2.93527 11.9599C2.48527 11.8099 2.18527 11.6799 1.93527 11.5199C1.40527 11.1799 1.24527 10.6399 1.17527 10.3899C0.945273 10.1199 0.65527 9.73991 0.62527 9.19991L0.605273 9.1299C0.545273 8.8699 0.445271 8.4199 0.595271 7.9399C0.715271 7.5399 0.975266 7.27989 1.14527 7.10989C1.17527 7.07989 1.20527 7.0499 1.22527 7.0199C1.22527 7.0299 1.22527 6.9799 1.26527 6.9299C1.34527 6.7499 1.45527 6.50991 1.63527 6.27991C1.83527 6.01991 2.08527 5.8699 2.28527 5.7699C2.35527 5.5099 2.48527 5.2199 2.75527 4.9799C2.98527 4.7799 3.21527 4.6599 3.38527 4.5799C3.42527 4.5599 3.46527 4.5399 3.49527 4.5199C3.69527 4.3599 3.92527 4.2699 4.09527 4.1899C4.09527 4.1899 4.11527 4.1899 4.12527 4.1799C4.28527 3.9499 4.48527 3.6899 4.80527 3.5199C4.86527 3.4899 4.92527 3.4399 4.99527 3.3999C5.17527 3.2799 5.36527 3.1699 5.55527 3.0899C5.88527 2.9499 6.18527 2.9499 6.44527 3.0099C6.60527 2.8199 6.81527 2.6599 7.11527 2.5699C7.19527 2.5499 7.28527 2.5099 7.36527 2.4899C7.51527 2.4299 7.67527 2.3799 7.83527 2.3399C8.23527 2.2299 8.58527 2.3099 8.80527 2.3599C8.90527 2.3399 9.01527 2.3199 9.11527 2.3099C9.19527 2.2999 9.28527 2.2899 9.36527 2.2699C9.57527 2.2199 9.76527 2.2199 9.93527 2.2499C10.1353 2.0299 10.3953 1.8199 10.7753 1.7499C10.9453 1.7199 11.1253 1.6999 11.3053 1.6899C11.3753 1.6899 11.4453 1.6899 11.5253 1.6699C11.9753 1.5899 12.3453 1.7299 12.5553 1.8199C12.7453 1.8199 12.9353 1.8399 13.0653 1.8699C13.0953 1.8699 13.1053 1.8699 13.1153 1.8699C13.1653 1.8599 13.2153 1.8499 13.2553 1.8299C13.4253 1.7799 13.5953 1.7399 13.7753 1.7199C13.9253 1.6999 14.0853 1.6999 14.2453 1.6999C14.4753 1.4899 14.7753 1.2699 15.2053 1.2199C15.6953 1.1699 16.0653 1.3799 16.3153 1.5599C16.3353 1.5599 16.3453 1.5599 16.3653 1.5499C16.6053 1.3299 16.9353 1.0799 17.4153 1.0399C17.7053 1.0199 17.9553 1.0799 18.1553 1.1599C18.3553 1.0499 18.5953 0.949903 18.8853 0.939903C19.2953 0.909903 19.6153 1.0699 19.8353 1.1899C20.0053 1.1499 20.1853 1.1199 20.3553 1.1099C20.5053 1.1099 20.6353 1.1099 20.7553 1.1399C20.9853 0.8899 21.3153 0.639898 21.8053 0.629898C22.2353 0.619898 22.6353 0.839898 22.8753 1.0599C22.9953 1.0299 23.1253 1.0099 23.2753 0.999901C23.2853 0.999901 23.3253 0.979902 23.3753 0.969902C23.5353 0.929902 23.7453 0.879904 24.0053 0.869904C24.0553 0.869904 24.1053 0.849897 24.1653 0.839897C24.3553 0.809897 24.5453 0.779897 24.7253 0.769897L25.4553 0.749901H25.4753C25.8653 0.749901 26.1753 0.889897 26.3553 0.979897C26.4753 0.979897 26.5853 0.999903 26.7053 1.0099C26.7453 1.0099 26.7853 1.0199 26.8253 1.0199C27.0653 0.929897 27.3153 0.839897 27.6253 0.839897C27.7553 0.839897 27.8953 0.839897 28.0353 0.839897C28.1353 0.839897 28.2353 0.839897 28.3453 0.839897C28.6253 0.839897 28.8953 0.899898 29.0553 0.949898L29.1553 0.979897C29.2153 0.979897 29.3453 0.979901 29.4853 0.999901C29.7353 0.799901 30.0553 0.599897 30.4953 0.589897C30.5953 0.589897 30.6953 0.589901 30.8053 0.569901C30.9453 0.569901 31.0853 0.549896 31.2153 0.549896C31.2953 0.549896 31.3653 0.5399 31.4453 0.5299C31.6153 0.5099 31.7753 0.489899 31.9353 0.489899C32.2853 0.489899 32.5553 0.599901 32.7753 0.749901C32.9453 0.659901 33.1553 0.609899 33.3853 0.599899C33.6153 0.599899 33.8353 0.639899 33.9953 0.669899C34.2253 0.559899 34.4953 0.449898 34.8353 0.449898C35.1053 0.449898 35.3753 0.529902 35.5753 0.649902C35.7653 0.539902 36.0053 0.4599 36.2853 0.4599C36.7353 0.4599 37.0753 0.6599 37.2753 0.7799C37.4453 0.8099 37.5853 0.859899 37.7053 0.919899C37.8353 0.859899 37.9753 0.799897 38.1353 0.769897C38.3853 0.599897 38.7153 0.399902 39.1653 0.399902H39.1853C39.5253 0.399902 39.7853 0.499901 39.9653 0.569901C39.9953 0.579901 40.0053 0.589897 40.0053 0.589897C40.4053 0.619897 40.7053 0.809903 40.8953 0.939903H41.0653C41.3153 0.769903 41.6653 0.599901 42.0853 0.609901C42.5753 0.619901 42.9153 0.879899 43.1353 1.0999C43.1353 1.0999 43.1453 1.0999 43.1553 1.0999C43.4253 0.899899 43.7753 0.6899 44.2653 0.7099C44.6153 0.7299 44.8953 0.849901 45.0653 0.929901C45.0953 0.929901 45.1253 0.929901 45.1553 0.929901C45.3353 0.909901 45.5253 0.899897 45.7053 0.909897C45.7853 0.909897 45.8753 0.909897 45.9553 0.909897C46.1153 0.909897 46.2753 0.909897 46.4353 0.909897C46.6353 0.919897 46.8353 0.969897 47.0353 1.0199C47.0853 1.0299 47.1253 1.0499 47.1753 1.0499C47.3453 1.0599 47.4953 1.0999 47.6253 1.1499C47.8753 0.959902 48.2153 0.789903 48.6353 0.829903C49.0653 0.859903 49.3753 1.0699 49.5653 1.2099L49.8453 1.2399C50.0953 1.1299 50.4253 0.999902 50.8153 1.0399C51.3753 1.0999 51.7153 1.4599 51.9153 1.7299C52.0153 1.7299 52.1053 1.7499 52.2053 1.7599C52.3853 1.7799 52.5553 1.8199 52.7253 1.8599C52.7953 1.8799 52.8553 1.8999 52.9253 1.9099L52.9553 1.8899C53.0153 1.8899 53.0953 1.8699 53.1753 1.8699C53.4653 1.6399 53.8853 1.3999 54.4153 1.4699C54.6853 1.5099 54.9053 1.5999 55.0653 1.6599L55.1653 1.6999C55.5353 1.7499 55.8053 1.9699 55.9953 2.1799C56.1553 2.1599 56.3253 2.1599 56.5053 2.1799C56.6753 2.2099 56.8353 2.2599 56.9953 2.3099C57.2653 2.2099 57.6153 2.1099 58.0153 2.2099C58.1753 2.2499 58.3353 2.2999 58.5053 2.3499C58.5853 2.3799 58.6653 2.3999 58.7453 2.4199C58.9153 2.4599 59.0753 2.5199 59.2453 2.5699L59.4753 2.6499C59.8153 2.7599 60.0553 2.9499 60.2153 3.0699C60.2353 3.0899 60.2453 3.0999 60.2553 3.0999C60.3053 3.1099 60.3553 3.1299 60.4053 3.1399C60.6053 3.1899 60.7953 3.2499 60.9753 3.3299C61.3253 3.4799 61.5453 3.7299 61.6853 3.9099C61.9253 3.9499 62.1853 4.0199 62.4453 4.1799C62.6653 4.3199 62.8353 4.4899 62.9553 4.6199C63.2953 4.6699 63.7153 4.7699 64.0453 5.1299C64.2353 5.3399 64.3653 5.5499 64.4553 5.7099C64.4853 5.7599 64.5053 5.7999 64.5353 5.8399C64.7453 6.1199 64.8353 6.4099 64.8953 6.5999L64.9253 6.69991C65.1353 7.12991 65.0853 7.5599 65.0253 7.8299C65.1253 8.02989 65.2453 8.35991 65.1853 8.77991C65.1153 9.28991 64.8153 9.61991 64.6753 9.77991C64.4553 10.1499 64.1553 10.3399 63.9953 10.4399C63.8553 10.5599 63.7353 10.6599 63.6153 10.7499C63.5053 11.1299 63.2953 11.6099 62.7453 11.8499C62.4553 11.9699 62.1853 11.9799 61.9553 11.9499C61.7753 12.1599 61.5253 12.3499 61.1653 12.4199C60.8353 12.4899 60.5453 12.4499 60.3453 12.4199C60.0253 12.4499 59.7553 12.3899 59.5653 12.3399C59.3453 12.4399 59.0853 12.5299 58.7753 12.5299C58.5553 12.5299 58.3553 12.4799 58.1953 12.4299C57.9653 12.5699 57.6853 12.6999 57.3353 12.6999L57.2553 12.6899ZM55.7953 10.1699H55.8053C55.9553 10.1699 56.1053 10.1799 56.2553 10.1899C56.4953 10.2099 56.7253 10.2099 56.9653 10.2299C57.2153 10.0499 57.5353 9.8699 57.9553 9.8699C58.2453 9.8699 58.4853 9.9499 58.6653 10.0199C58.8453 9.9399 59.0453 9.87989 59.2853 9.85989C59.6053 9.83989 59.8653 9.9099 60.0453 9.9599H60.0653C60.1053 9.9599 60.1453 9.9599 60.1953 9.9599C60.3553 9.7199 60.5953 9.4699 60.9853 9.3499C61.1553 9.2999 61.3053 9.2799 61.4553 9.2899C61.5553 9.1499 61.6953 9.0099 61.8753 8.8999C61.9953 8.8199 62.0853 8.75991 62.1753 8.66991C62.2753 8.56991 62.3853 8.4999 62.4853 8.4299C62.4653 8.3699 62.4453 8.31989 62.4353 8.24989C62.3653 7.92989 62.4153 7.6499 62.4653 7.4599C62.4653 7.4299 62.4453 7.3999 62.4353 7.3699C62.4253 7.3299 62.4053 7.2799 62.3953 7.2399C62.3653 7.2099 62.3153 7.12991 62.2553 7.02991C61.9853 6.98991 61.6953 6.8999 61.4253 6.6799C61.3053 6.5799 61.2053 6.4799 61.0953 6.3699C61.0853 6.3599 61.0753 6.3499 61.0653 6.3299C60.8353 6.29989 60.6053 6.2499 60.3453 6.1199C60.0253 5.9599 59.8353 5.7099 59.7053 5.5399C59.6853 5.5399 59.6553 5.5299 59.6353 5.5199C59.4953 5.4799 59.3653 5.4399 59.2253 5.3999C58.9253 5.2899 58.7053 5.1199 58.5653 5.0099L58.5253 4.9799L58.3353 4.9199C58.2153 4.8799 58.1053 4.8399 57.9853 4.8099C57.8653 4.7799 57.7453 4.7399 57.6153 4.6999C57.6053 4.6999 57.5953 4.6999 57.5753 4.6899C57.3153 4.7899 56.9853 4.8799 56.5953 4.7999C56.4353 4.7699 56.2753 4.7199 56.1153 4.6599H56.0953C55.8553 4.7399 55.5653 4.7999 55.2253 4.7499C54.7053 4.6699 54.3853 4.3299 54.2053 4.0699C53.9453 4.2399 53.6053 4.3799 53.1953 4.3199C53.2053 4.3199 53.1653 4.3299 53.1353 4.3399C52.9753 4.3599 52.7453 4.3899 52.4853 4.3599C52.3153 4.3399 52.1553 4.2999 51.9853 4.2599C51.9153 4.2399 51.8553 4.2199 51.7853 4.2099C51.6853 4.1999 51.5753 4.1899 51.4753 4.1799C51.3453 4.1799 51.2153 4.1599 51.0753 4.1499C50.6653 4.1099 50.3753 3.8999 50.1753 3.6899C50.0253 3.7199 49.8653 3.7399 49.6953 3.7199L48.9853 3.6499C48.8253 3.6399 48.6853 3.5999 48.5653 3.5499C48.3153 3.7499 47.9753 3.9199 47.5453 3.8899C47.0953 3.8599 46.7653 3.6299 46.5753 3.4799C46.4753 3.4599 46.3753 3.4399 46.2753 3.4099C46.2353 3.3999 46.1853 3.3799 46.1353 3.3799C46.0653 3.3799 45.9753 3.3799 45.8853 3.3799C45.7353 3.3799 45.5853 3.3799 45.4253 3.3799C45.3753 3.3799 45.3153 3.3799 45.2553 3.3899C45.0753 3.4099 44.8853 3.4199 44.7153 3.4099C44.5153 3.4099 44.3353 3.3599 44.1953 3.2999C43.9553 3.4499 43.6553 3.5799 43.2853 3.5599C43.2553 3.5599 43.2053 3.5699 43.1553 3.5799C42.9553 3.6099 42.7653 3.6299 42.5653 3.6299C42.2153 3.6199 41.9453 3.4799 41.7353 3.3299C41.5653 3.3999 41.3753 3.4299 41.1453 3.4399H40.4353C39.9653 3.4199 39.6253 3.1899 39.4253 3.0399C39.3253 3.0199 39.2353 2.9999 39.1553 2.9699C38.9953 3.0699 38.8053 3.1599 38.5753 3.1999C38.3253 3.3499 38.0053 3.5299 37.5753 3.5299C37.1353 3.5299 36.8053 3.3399 36.6153 3.2299C36.5153 3.2099 36.4153 3.1899 36.3253 3.1599C36.1053 3.3299 35.8053 3.4799 35.4253 3.4799C35.0453 3.4499 34.6953 3.3099 34.4653 3.1199C34.3253 3.1599 34.1653 3.1899 33.9953 3.1999C33.8753 3.1999 33.6953 3.1899 33.5753 3.1599C33.3353 3.3699 33.0053 3.5699 32.5653 3.5799C31.9953 3.5799 31.6353 3.2899 31.4053 3.0299C31.3053 3.0299 31.2153 3.0499 31.1153 3.0499C31.0153 3.0499 30.9053 3.0499 30.8053 3.0699C30.7853 3.0699 30.7653 3.0699 30.7553 3.0699C30.5053 3.2899 30.1653 3.5199 29.6953 3.5299C29.5153 3.5299 29.3453 3.5199 29.1653 3.4999C29.1053 3.4999 29.0353 3.4799 28.9753 3.4799C28.6853 3.4799 28.4253 3.4199 28.2653 3.3699L28.1653 3.3399C28.1153 3.3399 27.9753 3.3399 27.8353 3.3399C27.7653 3.3399 27.6953 3.3399 27.6253 3.3399C27.3753 3.4299 27.1253 3.5199 26.8053 3.5299C26.6253 3.5299 26.4553 3.5199 26.2853 3.4999C26.2153 3.4999 26.1453 3.4799 26.0753 3.4799C25.6953 3.4699 25.3853 3.3499 25.1953 3.2599L24.6253 3.2799C24.6253 3.2799 24.5253 3.2999 24.4653 3.3099C24.2753 3.3399 24.0953 3.3699 23.9053 3.3799C23.8953 3.3799 23.8553 3.3999 23.8153 3.4099C23.6853 3.4399 23.5053 3.4899 23.2953 3.4999C23.0453 3.5899 22.7953 3.6899 22.4753 3.6999C22.2053 3.6999 21.9953 3.6399 21.8053 3.5499C21.6053 3.6899 21.3553 3.7999 21.0453 3.8099C20.6853 3.8099 20.4053 3.7199 20.2153 3.6399C20.2053 3.6399 20.1953 3.6399 20.1853 3.6399C19.9953 3.6799 19.8053 3.7199 19.6153 3.7299C19.3153 3.7399 19.0653 3.6699 18.8753 3.5799C18.6853 3.6799 18.4653 3.7699 18.1953 3.7799C17.9553 3.7999 17.7453 3.7499 17.5653 3.6899C17.3653 3.8399 17.1053 3.9599 16.7853 3.9899C16.7353 3.9899 16.6853 4.0099 16.6253 4.0299C16.4453 4.0799 16.2653 4.1199 16.0853 4.1299C15.7753 4.1599 15.5053 4.0799 15.2953 3.9799C15.1253 4.0899 14.9253 4.1699 14.6753 4.1999C14.4853 4.2199 14.2953 4.2199 14.1053 4.1999C14.0553 4.1999 14.0053 4.1999 13.9553 4.1999C13.8953 4.1999 13.8253 4.2299 13.7553 4.2499C13.5953 4.2899 13.4353 4.3299 13.2753 4.3499C12.9753 4.3899 12.7153 4.3499 12.5353 4.3199C12.4953 4.3199 12.4753 4.3199 12.4853 4.3099C12.0953 4.3499 11.7653 4.2399 11.5653 4.1499C11.5353 4.1499 11.5053 4.1499 11.4753 4.1499C11.2753 4.4299 10.9853 4.7199 10.5253 4.8199C10.1153 4.8999 9.76527 4.7999 9.55527 4.7399C9.48527 4.7499 9.42527 4.7599 9.35527 4.7699C9.26527 4.7799 9.17527 4.7899 9.09527 4.8199C8.72527 4.9099 8.40527 4.8499 8.19527 4.7999C8.19527 4.7999 8.18527 4.7999 8.17527 4.7999C8.04527 5.1299 7.78527 5.5999 7.20527 5.7899C6.72527 5.9399 6.31527 5.78989 6.01527 5.63989C5.87527 5.83989 5.70527 6.0599 5.44527 6.2399C5.29527 6.3399 5.12527 6.4199 4.94527 6.4899C4.90527 6.5099 4.86527 6.5199 4.82527 6.5499C4.71527 6.6399 4.58527 6.7099 4.47527 6.7699C4.41527 7.0199 4.30527 7.27991 4.08527 7.52991C3.85527 7.77991 3.58527 7.8999 3.39527 7.9799C3.39527 7.9799 3.39527 7.9999 3.38527 8.0099C3.33527 8.1199 3.28527 8.2299 3.22527 8.3299C3.13527 8.4999 3.02527 8.6299 2.92527 8.7399C2.92527 8.7799 2.93527 8.80991 2.94527 8.8399C3.03527 8.9499 3.12527 9.05991 3.19527 9.16991C3.28527 9.30991 3.34527 9.4599 3.38527 9.5799C3.62527 9.51989 3.89527 9.4699 4.20527 9.5199C4.26527 9.5299 4.33527 9.5199 4.39527 9.5199C4.40527 9.5199 4.41527 9.5199 4.43527 9.5199C4.55527 9.5199 4.68527 9.51991 4.81527 9.52991C5.25527 9.55991 5.57527 9.7899 5.76527 9.9299C5.80527 9.9299 5.85527 9.93991 5.90527 9.94991C6.14527 9.76991 6.46527 9.5899 6.88527 9.5899C6.88527 9.5899 6.96527 9.5799 7.01527 9.5699C7.21527 9.5299 7.37527 9.5099 7.60527 9.5099C7.60527 9.5099 7.64527 9.4999 7.68527 9.4899C7.84527 9.4499 8.04527 9.4299 8.33527 9.3999C8.74527 9.3999 9.06527 9.5599 9.25527 9.6599C9.38527 9.6799 9.50527 9.7199 9.61527 9.7599C9.83527 9.5899 10.1153 9.4599 10.4853 9.4599C10.8453 9.4599 11.1253 9.58989 11.3353 9.74989C11.5053 9.67989 11.6853 9.6399 11.9153 9.6299C12.2653 9.6299 12.5453 9.74989 12.7453 9.85989C12.9053 9.80989 13.0753 9.7699 13.2753 9.7599C13.5253 9.6799 13.7753 9.60989 14.0753 9.60989H14.1053C14.2053 9.60989 14.2953 9.60989 14.3953 9.60989C14.5353 9.60989 14.6653 9.60989 14.8053 9.60989C14.8653 9.60989 14.9353 9.59991 14.9953 9.5899C15.1753 9.5699 15.3553 9.5499 15.5253 9.5499C15.7853 9.5499 16.0053 9.59989 16.1653 9.63989C16.2053 9.63989 16.2453 9.65991 16.2853 9.66991C16.5153 9.66991 16.7153 9.72991 16.8853 9.80991C17.1053 9.66991 17.3753 9.5699 17.6853 9.5699C17.8753 9.5699 18.0753 9.59989 18.2653 9.63989C18.3153 9.63989 18.3653 9.6599 18.4153 9.6599C18.5853 9.6599 18.7553 9.6799 18.9353 9.7099C18.9953 9.7099 19.0653 9.7299 19.1253 9.7299C19.1653 9.7299 19.2153 9.7199 19.2653 9.7099C19.4053 9.6799 19.5553 9.6599 19.6953 9.6499C19.9353 9.5499 20.1853 9.4599 20.5653 9.4399C20.8953 9.4399 21.1653 9.5399 21.3453 9.6199C21.5053 9.5799 21.7453 9.5199 22.0053 9.5199C22.3453 9.5199 22.6253 9.6399 22.8353 9.7899C23.0053 9.7099 23.2353 9.6799 23.4453 9.6599C23.7553 9.6599 24.0053 9.7399 24.1753 9.7999C24.2053 9.7999 24.2153 9.8099 24.2253 9.8199C24.2853 9.8199 24.3353 9.8099 24.3953 9.7999C24.5553 9.7799 24.7153 9.7699 24.8853 9.7699C25.1953 9.7699 25.4453 9.85989 25.6353 9.96989C25.8253 9.87989 26.0553 9.8199 26.3153 9.8199C26.6453 9.8199 26.9153 9.9199 27.0853 9.9799C27.1153 9.9799 27.1253 9.98989 27.1253 9.99989C27.2253 9.99989 27.3153 10.0199 27.4053 10.0299C27.6353 9.81991 28.0153 9.5499 28.4753 9.5799C28.9053 9.5799 29.2253 9.7599 29.4253 9.8699C29.5753 9.8899 29.7153 9.92989 29.8253 9.96989C30.0453 9.85989 30.3053 9.7599 30.6253 9.7599C30.7953 9.7599 31.0153 9.7999 31.1653 9.8499C31.3953 9.6799 31.6853 9.5099 32.0753 9.5399C32.5353 9.5399 32.8653 9.7599 33.1053 9.9899C33.1953 9.9699 33.2853 9.9499 33.3853 9.9399C33.6253 9.8499 33.8953 9.74989 34.2353 9.74989C34.5253 9.74989 34.7553 9.81989 34.9153 9.85989L35.0153 9.88989C35.0153 9.88989 35.0353 9.86989 35.0753 9.85989C35.2753 9.81989 35.4653 9.7899 35.6753 9.7899C35.8353 9.7899 35.9853 9.7999 36.1453 9.8199C36.2253 9.8199 36.3153 9.8399 36.3953 9.8399H37.1153C37.4153 9.8399 37.6653 9.93991 37.8553 10.0299C38.0053 9.96991 38.1753 9.90989 38.3653 9.88989C38.6053 9.77989 38.8953 9.6499 39.2653 9.6499C39.2653 9.6499 39.2653 9.6499 39.2753 9.6499C39.3553 9.6499 39.4353 9.6499 39.5053 9.6299C39.6653 9.6199 39.8553 9.6099 39.9853 9.5999C40.1353 9.5999 40.2853 9.6099 40.4253 9.6199C40.5153 9.6199 40.6053 9.62989 40.7053 9.63989C41.0653 9.63989 41.3553 9.76989 41.5553 9.88989C41.7353 9.83989 41.9053 9.8099 42.1453 9.7999C42.3953 9.7999 42.6053 9.85991 42.7853 9.94991C42.9953 9.80991 43.2553 9.7099 43.5753 9.7099C44.0053 9.7099 44.3353 9.89989 44.5553 10.0799C44.5953 10.0799 44.6253 10.0599 44.6653 10.0599C44.9153 9.86991 45.2653 9.6499 45.7253 9.6499C46.0953 9.6499 46.3853 9.7699 46.5553 9.8499C46.5653 9.8499 46.5753 9.84989 46.5853 9.85989C46.8953 9.88989 47.1453 9.9999 47.3153 10.0799C47.3553 10.0799 47.3953 10.0799 47.4253 10.0799C47.5753 10.0699 47.7153 10.0599 47.8853 10.0599C48.0653 10.0599 48.2353 10.0899 48.4153 10.1199C48.6153 9.9999 48.8753 9.8699 49.1853 9.8399C49.4253 9.7399 49.7053 9.63989 50.0453 9.63989C50.3853 9.63989 50.6453 9.7399 50.8253 9.7999C50.8553 9.8099 50.8653 9.8199 50.8653 9.8199C51.0753 9.8299 51.2553 9.8899 51.4053 9.9399C51.6153 9.8199 51.8853 9.71989 52.1953 9.71989C52.4853 9.71989 52.7153 9.79989 52.9053 9.88989C53.1053 9.78989 53.3453 9.71989 53.6253 9.71989C53.8953 9.71989 54.1153 9.7799 54.2753 9.8199C54.3153 9.8199 54.3553 9.8399 54.3953 9.8499C54.8253 9.8499 55.1553 10.0599 55.3653 10.2299C55.5053 10.2199 55.6353 10.2099 55.7753 10.2099L55.7953 10.1699ZM58.6153 5.0199C58.6153 5.0199 58.6253 5.0199 58.6353 5.0199H58.6153Z" fill="black"/>
<path d="M82.1453 22.1002C82.2753 22.2702 82.6853 22.3302 82.7653 22.5302C82.8453 22.7302 82.6253 23.0702 82.6453 23.2802C82.6653 23.4902 82.4853 23.6702 82.4353 23.8802C82.3753 24.1202 82.5853 24.4902 82.4453 24.6702C82.3053 24.8502 81.7753 24.6302 81.5853 24.7702C81.3953 24.9102 81.3153 25.1302 81.0953 25.2302C80.8753 25.3302 80.6753 25.4002 80.4553 25.4702C80.2353 25.5402 79.9953 25.5502 79.7753 25.6002C79.5453 25.6602 79.3853 26.0102 79.1553 26.0602C78.9253 26.1102 78.7053 26.2602 78.4753 26.3102C78.2453 26.3602 77.9253 25.9602 77.6953 26.0002C77.4653 26.0402 77.2253 26.0302 76.9953 26.0702C76.7653 26.1102 76.6253 26.7502 76.3853 26.7902C76.1453 26.8302 75.8553 26.4102 75.6153 26.4402C75.3753 26.4702 75.1353 26.3802 74.8953 26.4002C74.6553 26.4202 74.4753 27.0502 74.2453 27.0702C74.0153 27.0902 73.7553 26.9002 73.5153 26.9102C73.2753 26.9202 73.0253 26.6202 72.7853 26.6302C72.5453 26.6402 72.3253 26.9002 72.0853 26.9102C71.8453 26.9202 71.6053 26.9702 71.3753 26.9702C71.1453 26.9702 70.8953 27.0202 70.6653 27.0202C70.4353 27.0202 70.1853 26.9402 69.9553 26.9402C69.7253 26.9402 69.4953 26.5402 69.2653 26.5202C69.0353 26.5002 68.7853 26.6202 68.5553 26.6002C68.3253 26.5802 68.0453 27.0102 67.8053 26.9902C67.5653 26.9702 67.3753 26.4702 67.1453 26.4502C66.9153 26.4302 66.6653 26.4702 66.4353 26.4402C66.2053 26.4102 65.9353 26.6102 65.6953 26.5802C65.4953 26.5502 65.3353 26.1102 65.0553 26.0502C64.8353 26.0002 64.4553 26.4802 64.2053 26.4002C63.9753 26.3302 63.7253 26.2702 63.4853 26.1902C63.2553 26.1102 63.0553 25.9102 62.8253 25.8202C62.5953 25.7302 62.2853 25.8002 62.0553 25.7002C61.8253 25.6002 61.6353 25.3802 61.4153 25.2702C61.1953 25.1602 60.9953 24.9602 60.7953 24.8302C60.5753 24.6902 60.5953 24.2602 60.4253 24.1002C60.2253 23.9202 59.8253 23.9502 59.7053 23.7602C59.5553 23.5402 59.4253 23.2702 59.3853 23.0302C59.3453 22.7902 59.5353 22.5502 59.6353 22.3002C59.7153 22.1002 59.6853 21.7602 59.8653 21.5502C60.0153 21.3802 60.3753 21.3902 60.5853 21.2202C60.8053 21.0502 61.0053 20.8602 61.2553 20.7402C61.5053 20.6202 61.7653 20.5302 62.0353 20.4502C62.3053 20.3702 62.5253 20.0702 62.7953 20.0102C63.0353 19.9602 63.3053 20.0802 63.5453 20.0302C63.7853 19.9802 64.0153 19.8802 64.2553 19.8302C64.4953 19.7802 64.7953 20.1402 65.0353 20.1002C65.2753 20.0602 65.5153 20.0602 65.7553 20.0302C65.9953 20.0002 66.1653 19.3802 66.4053 19.3602C66.6453 19.3402 66.9053 19.4102 67.1453 19.3902C67.3853 19.3702 67.6453 19.5302 67.8853 19.5102C68.1253 19.4902 68.3753 19.5902 68.6153 19.5802C68.8553 19.5702 69.1053 19.7202 69.3453 19.7102C69.5853 19.7002 69.8253 19.6402 70.0653 19.6402C70.3053 19.6402 70.5553 19.2802 70.7953 19.2802C71.0353 19.2802 71.2853 19.2802 71.5253 19.2802C71.7653 19.2802 71.9953 19.6502 72.2353 19.6602C72.4753 19.6702 72.7553 19.2302 72.9953 19.2502C73.2353 19.2702 73.4553 19.5602 73.6953 19.5802C73.9353 19.6002 74.1653 19.7702 74.4053 19.8002C74.6453 19.8302 74.8853 19.8202 75.1253 19.8602C75.3653 19.9002 75.6353 19.7502 75.8753 19.7902C76.1153 19.8302 76.3353 20.0002 76.5653 20.0502C76.7953 20.1002 77.0353 20.1502 77.2753 20.2002C77.5153 20.2502 77.7153 20.4602 77.9453 20.5202C78.1753 20.5802 78.4053 20.6402 78.6453 20.7002C78.8853 20.7602 79.2053 20.4702 79.4353 20.5402C79.6453 20.6002 79.8653 20.5902 80.0753 20.6602C80.2853 20.7302 80.4853 20.8302 80.6753 20.9102C80.8653 20.9902 81.0953 21.0702 81.2753 21.1802C81.4553 21.2902 81.4453 21.6802 81.6053 21.8202C81.7653 21.9502 82.0353 21.9402 82.1653 22.1102L82.1453 22.1002Z" fill="white"/>
<path d="M74.1953 28.32C73.8753 28.32 73.6153 28.23 73.4453 28.17C73.4353 28.17 73.4253 28.17 73.4253 28.17C73.1653 28.17 72.9453 28.08 72.7653 28C72.5753 28.09 72.3653 28.16 72.1053 28.16C72.0253 28.16 71.9453 28.17 71.8653 28.18C71.6953 28.2 71.5353 28.22 71.3653 28.22C71.2953 28.22 71.2153 28.23 71.1453 28.24C70.9753 28.26 70.7753 28.27 70.6253 28.27C70.4353 28.27 70.2553 28.24 70.0653 28.21C70.0053 28.2 69.9453 28.19 69.8853 28.18C69.4653 28.17 69.1453 27.98 68.9353 27.82C68.9053 27.82 68.8753 27.82 68.8353 27.83C68.5653 28.04 68.1853 28.27 67.6653 28.23C67.1753 28.19 66.8453 27.91 66.6353 27.69C66.5653 27.69 66.4853 27.69 66.4153 27.69C66.1553 27.77 65.8453 27.86 65.4753 27.81C65.1953 27.77 64.9853 27.66 64.8153 27.53C64.5453 27.64 64.2053 27.71 63.8153 27.6L63.5953 27.54C63.4153 27.49 63.2253 27.44 63.0453 27.38C62.7753 27.29 62.5753 27.15 62.4253 27.05C62.4053 27.04 62.3953 27.03 62.3753 27.02H62.3553C62.1453 27.01 61.8353 26.99 61.5053 26.84C61.2453 26.72 61.0553 26.57 60.9153 26.46C60.8753 26.43 60.8353 26.39 60.7953 26.37C60.6053 26.27 60.4253 26.13 60.2453 26C60.1853 25.96 60.1353 25.91 60.0753 25.88C59.7353 25.65 59.5553 25.34 59.4653 25.09C59.1853 24.99 58.8753 24.82 58.6453 24.48C58.4553 24.19 58.2053 23.75 58.1353 23.25C58.0553 22.7 58.2653 22.26 58.3953 22C58.4153 21.96 58.4353 21.92 58.4553 21.88C58.4853 21.63 58.5553 21.17 58.9053 20.77C59.2153 20.42 59.5953 20.3 59.8253 20.23C59.8453 20.23 59.8553 20.22 59.8653 20.22L59.9053 20.19C60.1153 20.02 60.3653 19.81 60.7153 19.65C60.9753 19.53 61.2553 19.42 61.5753 19.33L61.6353 19.29C61.8253 19.15 62.1053 18.93 62.5053 18.84C62.8453 18.77 63.1353 18.81 63.3253 18.84C63.3453 18.84 63.3553 18.84 63.3653 18.84C63.4053 18.83 63.4453 18.81 63.4853 18.8C63.6653 18.74 63.8353 18.69 64.0153 18.66C64.4953 18.57 64.8953 18.75 65.1353 18.89C65.3353 18.61 65.6753 18.24 66.2353 18.18C66.4953 18.15 66.7253 18.18 66.8853 18.19C66.9253 18.19 66.9753 18.2 67.0153 18.2C67.3453 18.17 67.6253 18.25 67.8153 18.3C67.8453 18.3 67.8553 18.31 67.8553 18.31C68.1053 18.31 68.2853 18.34 68.4353 18.36C68.4753 18.36 68.5153 18.38 68.5553 18.38C68.8453 18.37 69.1253 18.44 69.2953 18.5C69.3153 18.5 69.3353 18.51 69.3353 18.51C69.3853 18.51 69.4253 18.5 69.4753 18.49C69.5553 18.48 69.6353 18.47 69.7153 18.46C69.9753 18.28 70.2653 18.08 70.7753 18.08H71.0553C71.2153 18.08 71.3753 18.08 71.5353 18.08C71.7953 18.08 72.0153 18.16 72.1953 18.26C72.4253 18.13 72.7153 18.03 73.0553 18.06C73.4953 18.09 73.8053 18.3 73.9953 18.43C74.2053 18.47 74.3753 18.54 74.4953 18.59L74.5953 18.63C74.5953 18.63 74.6953 18.63 74.7853 18.63C74.9153 18.63 75.0453 18.64 75.1753 18.66C75.4453 18.61 75.7153 18.55 76.0453 18.6C76.3453 18.65 76.5753 18.76 76.7353 18.83L76.8353 18.88C76.9353 18.89 77.1053 18.93 77.2653 18.96L77.5053 19.01C77.8353 19.08 78.0853 19.23 78.2453 19.32C78.2753 19.34 78.2853 19.34 78.2853 19.35C78.4153 19.38 78.5353 19.41 78.6653 19.45C78.9553 19.35 79.3253 19.25 79.7453 19.36C79.7853 19.37 79.8353 19.37 79.8853 19.38C80.0753 19.4 80.2653 19.44 80.4353 19.49C80.6053 19.55 80.7853 19.62 80.9653 19.7L81.2453 19.82C81.4653 19.91 81.6853 20 81.8753 20.11C82.2453 20.32 82.4253 20.63 82.5253 20.88C82.6653 20.95 82.8253 21.04 82.9653 21.18C83.2753 21.33 83.6853 21.55 83.8953 22.04C84.1253 22.58 83.9753 23.07 83.8953 23.33C83.8953 23.33 83.8953 23.34 83.8953 23.35C83.8953 23.68 83.7853 23.94 83.6953 24.12C83.7553 24.47 83.7853 24.97 83.4453 25.42C83.0653 25.93 82.5253 26 82.1553 25.99C82.0353 26.12 81.8653 26.26 81.6353 26.36C81.3853 26.48 81.1453 26.56 80.8753 26.65C80.6653 26.72 80.4753 26.75 80.2853 26.78C80.0853 26.98 79.8253 27.19 79.4353 27.28C79.4153 27.28 79.3753 27.31 79.3353 27.33C79.1853 27.39 78.9853 27.48 78.7353 27.53C78.2553 27.63 77.8653 27.46 77.6153 27.31C77.4253 27.6 77.1053 27.94 76.5753 28.02C76.0653 28.1 75.6553 27.87 75.4153 27.71C75.2053 27.97 74.8753 28.27 74.3653 28.31C74.3153 28.31 74.2653 28.31 74.2253 28.31L74.1953 28.32ZM70.3153 25.76C70.3653 25.76 70.4253 25.78 70.4753 25.79C70.5353 25.79 70.5953 25.81 70.6553 25.82C70.7653 25.82 70.8153 25.81 70.8853 25.8C71.0353 25.78 71.1853 25.77 71.3453 25.77C71.4253 25.77 71.5153 25.76 71.5953 25.75C71.6753 25.75 71.7553 25.73 71.8353 25.73C72.0653 25.6 72.3453 25.46 72.7153 25.44C73.1653 25.42 73.5253 25.61 73.7253 25.73C73.7453 25.73 73.7753 25.73 73.7953 25.73C74.0053 25.49 74.3053 25.25 74.7553 25.21C75.0153 25.18 75.2353 25.21 75.3953 25.23H75.5053C75.6853 25.22 75.8553 25.23 76.0053 25.28C76.1853 25.1 76.4353 24.94 76.7753 24.88C76.9253 24.86 77.0753 24.84 77.2353 24.83C77.3153 24.83 77.3853 24.83 77.4653 24.81C77.8953 24.73 78.2553 24.87 78.5053 25C78.5453 24.99 78.5753 24.97 78.6153 24.96C78.8153 24.76 79.0853 24.52 79.4853 24.42C79.6153 24.39 79.7553 24.37 79.8953 24.35C79.9553 24.35 80.0153 24.34 80.0753 24.32C80.2153 24.27 80.3453 24.23 80.4653 24.19C80.5753 24.06 80.6953 23.92 80.8653 23.8C80.9953 23.71 81.1253 23.64 81.2553 23.6C81.3053 23.4 81.3753 23.25 81.4353 23.14C81.4353 23.14 81.4353 23.13 81.4353 23.12C81.4253 23.11 81.4053 23.1 81.3953 23.09C81.2153 23.03 81.0153 22.94 80.8153 22.78C80.5653 22.57 80.4353 22.33 80.3553 22.13C80.3453 22.13 80.3353 22.13 80.3253 22.12L79.9553 21.96C79.8753 21.92 79.7853 21.88 79.6953 21.85C79.6553 21.85 79.6153 21.84 79.5653 21.83C79.5153 21.83 79.4653 21.82 79.4153 21.81C79.1353 21.92 78.7653 22.02 78.3453 21.92L78.0353 21.84C77.9153 21.81 77.7953 21.78 77.6753 21.75C77.3653 21.68 77.1253 21.54 76.9753 21.44C76.9553 21.43 76.9453 21.42 76.9353 21.42L76.7653 21.39C76.6253 21.36 76.4753 21.33 76.3353 21.3C76.0653 21.25 75.8453 21.15 75.6953 21.08C75.4653 21.13 75.2153 21.16 74.9453 21.12C74.8553 21.11 74.7653 21.1 74.6653 21.1C74.5253 21.1 74.3853 21.08 74.2453 21.07C73.9653 21.04 73.7253 20.94 73.5753 20.88L73.4753 20.84C73.3153 20.83 73.1553 20.78 73.0253 20.71C72.7953 20.85 72.5053 20.96 72.1553 20.94C71.7153 20.92 71.4053 20.71 71.2053 20.56H71.1153H71.0653C70.8153 20.73 70.4953 20.92 70.0653 20.92C69.9953 20.92 69.9253 20.93 69.8553 20.94C69.6953 20.96 69.5353 20.98 69.3653 20.99C69.0553 20.99 68.7953 20.92 68.6253 20.87C68.5953 20.87 68.5753 20.86 68.5753 20.85C68.3353 20.85 68.1753 20.82 68.0353 20.79C67.9953 20.79 67.9553 20.77 67.9153 20.77C67.6253 20.79 67.3553 20.72 67.1753 20.67C67.1453 20.67 67.1353 20.66 67.1353 20.66C67.0653 20.66 66.9953 20.66 66.9253 20.66C66.7253 20.92 66.4053 21.23 65.9053 21.29C65.7753 21.31 65.6353 21.32 65.5053 21.33C65.4053 21.33 65.3053 21.34 65.2153 21.36C64.7753 21.43 64.4253 21.29 64.1853 21.16C64.0453 21.2 63.9153 21.24 63.7753 21.27C63.5053 21.32 63.2653 21.3 63.0853 21.28C62.9253 21.4 62.6853 21.57 62.3753 21.66C62.1653 21.72 61.9553 21.79 61.7653 21.88C61.7053 21.91 61.5853 22 61.4753 22.09L61.3353 22.2C61.1653 22.33 60.9953 22.42 60.8453 22.48C60.8253 22.57 60.7953 22.67 60.7553 22.78C60.7353 22.82 60.7253 22.86 60.7053 22.9C60.8753 22.97 61.0553 23.07 61.2253 23.22C61.5153 23.48 61.6453 23.8 61.7153 24.02C61.7253 24.03 61.7453 24.04 61.7553 24.05C61.8353 24.11 61.9053 24.17 61.9853 24.22C62.1353 24.3 62.2953 24.41 62.4453 24.53C62.4653 24.54 62.4753 24.56 62.4953 24.57C62.6753 24.57 62.9553 24.59 63.2553 24.71C63.4853 24.8 63.6753 24.92 63.8053 25.01C63.8453 25.03 63.8753 25.06 63.9153 25.08C63.9653 25.1 64.0353 25.12 64.1153 25.14C64.3853 24.97 64.8053 24.76 65.3353 24.89C65.6453 24.97 65.8853 25.12 66.0653 25.28C66.2253 25.25 66.3953 25.24 66.5853 25.26C66.6453 25.26 66.7053 25.26 66.7553 25.26C66.9253 25.26 67.0953 25.26 67.2653 25.26C67.5453 25.29 67.7753 25.4 67.9553 25.53C68.1453 25.45 68.3753 25.4 68.6253 25.41L68.6653 25.39C68.8253 25.36 69.0353 25.31 69.3153 25.33C69.8053 25.35 70.1353 25.6 70.3353 25.78L70.3153 25.76ZM73.4253 25.71C73.4253 25.71 73.4253 25.71 73.4153 25.71C73.4153 25.71 73.4153 25.71 73.4253 25.71ZM64.4853 25.23H64.5153C64.5153 25.23 64.4953 25.23 64.4853 25.23ZM83.8553 23.15C83.8553 23.15 83.8553 23.17 83.8553 23.18C83.8553 23.18 83.8553 23.16 83.8553 23.15ZM70.7753 20.53H70.7353C70.7353 20.53 70.7553 20.53 70.7753 20.53Z" fill="black"/>
</svg>
