<svg width="124" height="29" viewBox="0 0 124 29" fill="none" xmlns="http://www.w3.org/2000/svg">
<path d="M30.0153 7.21008C30.0653 6.96008 30.3253 6.75008 30.4153 6.52008C30.5053 6.29008 30.5453 6.01008 30.6753 5.79008C30.8053 5.57008 30.9053 5.31008 31.0653 5.12008C31.2253 4.93008 31.6553 4.98008 31.8353 4.80008C32.0153 4.62008 32.0553 4.30008 32.2553 4.14008C32.4553 3.98008 32.8053 4.06008 33.0153 3.93008C33.2253 3.80008 33.3653 3.54008 33.5953 3.43008C33.8253 3.32008 34.0353 3.18008 34.2753 3.09008C34.5153 3.00008 34.7353 2.84008 34.9753 2.77008C35.2153 2.70008 35.4653 2.60008 35.7053 2.55008C35.9453 2.50008 36.2253 2.58008 36.4753 2.55008C36.7253 2.52008 37.0053 2.74008 37.2553 2.71008C37.5053 2.68008 37.7353 2.44008 37.9853 2.42008C38.2353 2.40008 38.5053 2.73008 38.7553 2.72008C39.0053 2.71008 39.2453 2.23008 39.4953 2.23008C39.7453 2.23008 40.0053 2.20008 40.2553 2.20008C40.4953 2.20008 40.7453 2.42008 40.9853 2.42008C41.2253 2.42008 41.4653 2.46008 41.7053 2.45008C41.9453 2.44008 42.1853 2.17008 42.4253 2.16008C42.6653 2.15008 42.9053 2.30008 43.1553 2.29008C43.4053 2.28008 43.6353 2.19008 43.8753 2.18008C44.1153 2.17008 44.3553 2.05008 44.5953 2.05008C44.8353 2.05008 45.0853 2.32008 45.3253 2.31008C45.5653 2.30008 45.8153 2.56008 46.0553 2.56008C46.2953 2.56008 46.5353 2.59008 46.7753 2.59008C47.0153 2.59008 47.2553 2.10008 47.4953 2.10008C47.7353 2.10008 47.9753 2.20008 48.2253 2.20008C48.4753 2.20008 48.7053 2.21008 48.9453 2.21008C49.1853 2.21008 49.4253 2.15008 49.6653 2.15008C49.9053 2.15008 50.1453 1.93008 50.3853 1.92008C50.6253 1.91008 50.8653 1.90008 51.1053 1.90008C51.3453 1.90008 51.5853 1.90008 51.8253 1.90008C52.0653 1.90008 52.3053 1.98008 52.5553 1.98008C52.8053 1.98008 53.0453 2.43008 53.2853 2.43008C53.5253 2.43008 53.7653 2.23008 54.0053 2.22008C54.2453 2.21008 54.4853 1.89008 54.7253 1.89008C54.9653 1.89008 55.2053 1.92008 55.4453 1.91008C55.6853 1.90008 55.9353 2.26008 56.1753 2.26008C56.4153 2.26008 56.6553 2.08008 56.8953 2.08008C57.1353 2.08008 57.3753 2.24008 57.6253 2.24008C57.8753 2.24008 58.1053 2.31008 58.3453 2.31008C58.5853 2.31008 58.8253 2.37008 59.0653 2.36008C59.3053 2.35008 59.5453 2.10008 59.7853 2.10008C60.0253 2.10008 60.2653 2.36008 60.5153 2.36008C60.7653 2.36008 60.9953 2.39008 61.2353 2.39008C61.4753 2.39008 61.7153 1.83008 61.9553 1.83008C62.1953 1.83008 62.4353 2.33008 62.6853 2.33008C62.9353 2.33008 63.1653 1.89008 63.4053 1.89008C63.6453 1.89008 63.8853 2.24008 64.1253 2.24008C64.3653 2.24008 64.6053 2.36008 64.8453 2.36008C65.0853 2.36008 65.3253 2.16008 65.5653 2.16008C65.8053 2.16008 66.0453 2.00008 66.2853 2.01008C66.5253 2.02008 66.7653 2.04008 67.0053 2.04008C67.2453 2.04008 67.4853 2.05008 67.7253 2.05008C67.9653 2.05008 68.2053 2.46008 68.4453 2.46008C68.6853 2.46008 68.9253 2.22008 69.1753 2.22008C69.4253 2.22008 69.6553 1.94008 69.9053 1.94008C70.1553 1.94008 70.3853 2.04008 70.6253 2.04008C70.8653 2.04008 71.1053 1.83008 71.3553 1.83008C71.6053 1.83008 71.8353 2.41008 72.0753 2.41008C72.3153 2.41008 72.5653 2.13008 72.8053 2.13008C73.0453 2.13008 73.2853 2.01008 73.5353 2.01008C73.7853 2.01008 74.0153 2.32008 74.2553 2.32008C74.4953 2.32008 74.7453 2.09008 74.9853 2.09008C75.2253 2.09008 75.4653 1.99008 75.7153 1.99008C75.9653 1.99008 76.1953 2.32008 76.4353 2.33008C76.6753 2.34008 76.9253 1.89008 77.1653 1.89008C77.4053 1.89008 77.6453 1.97008 77.8853 1.97008C78.1253 1.97008 78.3653 2.19008 78.6053 2.20008C78.8453 2.21008 79.0853 2.18008 79.3253 2.19008C79.5653 2.20008 79.8053 2.25008 80.0453 2.26008C80.2853 2.27008 80.5253 2.49008 80.7653 2.49008C81.0053 2.49008 81.2553 2.37008 81.4953 2.38008C81.7353 2.39008 81.9753 2.36008 82.2153 2.36008C82.4553 2.36008 82.6953 2.34008 82.9353 2.34008C83.1753 2.34008 83.4153 2.31008 83.6653 2.32008C83.9153 2.33008 84.1453 2.35008 84.3853 2.35008C84.6253 2.35008 84.8753 2.06008 85.1153 2.07008C85.3553 2.08008 85.5853 2.60008 85.8253 2.61008C86.0653 2.62008 86.3253 2.11008 86.5653 2.12008C86.8053 2.13008 87.0353 2.50008 87.2753 2.51008C87.5153 2.52008 87.7553 2.72008 87.9953 2.73008C88.2353 2.74008 88.4953 2.23008 88.7353 2.24008C88.9753 2.25008 89.2153 2.33008 89.4553 2.34008C89.6953 2.35008 89.9253 2.65008 90.1653 2.66008C90.4053 2.67008 90.6653 2.27008 90.9053 2.28008C91.1453 2.29008 91.3753 2.55008 91.6153 2.57008C91.8553 2.58008 92.1153 2.54008 92.3653 2.56008C92.6153 2.58008 92.8353 2.84008 93.0853 2.87008C93.3353 2.90008 93.5653 3.01008 93.8053 3.05008C94.0453 3.09008 94.2653 3.21008 94.5053 3.27008C94.7453 3.33008 94.9753 3.37008 95.2053 3.45008C95.4353 3.53008 95.6053 3.72008 95.8253 3.83008C96.0453 3.94008 96.5453 3.57008 96.7553 3.71008C96.9653 3.85008 96.9953 4.23008 97.1753 4.41008C97.3553 4.59008 97.5953 4.71008 97.7353 4.92008C97.8753 5.13008 97.7153 5.46008 97.8053 5.70008C97.8853 5.93008 98.1653 6.08008 98.1953 6.31008C98.2253 6.54008 97.9953 6.77008 97.9753 7.00008C97.9553 7.23008 98.3953 7.57008 98.3353 7.79008C98.2753 8.01008 97.8053 8.11008 97.7053 8.32008C97.6053 8.53008 97.8353 8.96008 97.7053 9.15008C97.5753 9.34008 97.3953 9.55008 97.2353 9.73008C97.0753 9.91008 96.5453 9.71008 96.3653 9.86008C96.1853 10.0101 96.2153 10.4401 96.0153 10.5701C95.8153 10.7001 95.6553 10.9601 95.4453 11.0601C95.2353 11.1601 94.8953 10.9901 94.6653 11.0701C94.4353 11.1501 94.1653 11.0001 93.9353 11.0501C93.7053 11.1001 93.5153 11.3301 93.2853 11.3701C93.0553 11.4101 92.8353 11.6701 92.6053 11.6901C92.3753 11.7101 92.1253 11.7801 91.8853 11.7901C91.6453 11.8001 91.4053 11.2001 91.1753 11.2001C90.9453 11.2001 90.6953 11.6201 90.4553 11.6101C90.2153 11.6001 90.0053 11.2101 89.7653 11.2001C89.5253 11.1901 89.0553 11.3701 88.8153 11.3501C89.0553 11.3501 89.5153 11.5701 89.7553 11.5701C89.9953 11.5701 90.2253 11.6701 90.4653 11.6701C90.7053 11.6701 90.9453 11.3101 91.1853 11.3101C91.4253 11.3101 91.6553 11.7101 91.8953 11.7101C92.1353 11.7101 92.3653 11.7401 92.6053 11.7501C92.8453 11.7601 93.0853 11.6501 93.3153 11.6601C93.5453 11.6701 93.8053 11.1601 94.0453 11.1701C94.2853 11.1801 94.5153 11.3201 94.7553 11.3301C94.9953 11.3401 95.2253 11.3801 95.4653 11.3901C95.7053 11.4001 95.9453 11.2901 96.1853 11.3001C96.4253 11.3101 96.6353 11.8001 96.8753 11.8101C97.1153 11.8201 97.3453 11.8101 97.5853 11.8301C97.8253 11.8501 98.0553 11.9001 98.2953 11.9101C98.5353 11.9201 98.7753 11.8501 99.0153 11.8701C99.2553 11.8901 99.4753 12.0401 99.7153 12.0501C99.9553 12.0601 100.225 11.5701 100.465 11.5801C100.705 11.5901 100.945 11.4901 101.185 11.5101C101.425 11.5301 101.655 11.6001 101.895 11.6201C102.135 11.6401 102.365 11.7501 102.595 11.7701C102.825 11.7901 103.075 11.7901 103.305 11.8101C103.535 11.8301 103.735 12.3201 103.975 12.3401C104.215 12.3601 104.465 12.2101 104.705 12.2301C104.945 12.2501 105.215 11.9001 105.455 11.9301C105.695 11.9601 105.905 12.2501 106.135 12.2701C106.365 12.2901 106.575 12.5901 106.815 12.6201C107.055 12.6501 107.335 12.2901 107.565 12.3101C107.795 12.3301 108.025 12.4901 108.255 12.5201C108.485 12.5501 108.735 12.5401 108.965 12.5701C109.195 12.6001 109.435 12.6301 109.675 12.6601C109.915 12.6901 110.125 12.9101 110.355 12.9401C110.585 12.9701 110.845 12.8301 111.085 12.8701C111.325 12.9101 111.545 12.9801 111.785 13.0101C112.015 13.0401 112.215 13.2601 112.445 13.3001C112.675 13.3401 112.955 13.0301 113.185 13.0701C113.415 13.1101 113.595 13.3901 113.825 13.4401C114.055 13.4901 114.255 13.6201 114.475 13.6701C114.695 13.7201 115.005 13.4401 115.225 13.4901C115.445 13.5401 115.725 13.4601 115.945 13.5301C116.165 13.6001 116.325 13.9001 116.535 13.9701C116.745 14.0401 116.985 14.1001 117.195 14.1801C117.405 14.2601 117.545 14.5201 117.755 14.6201C117.965 14.7201 118.185 14.7801 118.385 14.9001C118.585 15.0201 118.855 15.0301 119.045 15.1601C119.235 15.2901 119.245 15.6501 119.425 15.8001C119.605 15.9501 120.015 15.8301 120.185 15.9901C120.355 16.1501 120.265 16.5501 120.415 16.7201C120.565 16.8901 120.875 16.9401 121.015 17.1201C121.155 17.3001 121.335 17.4701 121.455 17.6701C121.575 17.8701 121.625 18.1101 121.715 18.3201C121.805 18.5301 121.775 18.7901 121.845 19.0101C121.915 19.2301 121.895 19.4601 121.935 19.6901C121.975 19.9201 122.385 20.1201 122.385 20.3601C122.385 20.6101 122.405 20.9101 122.375 21.1601C122.345 21.4101 122.065 21.6401 121.995 21.8801C121.925 22.1201 121.515 22.2201 121.415 22.4501C121.315 22.6801 121.545 23.0701 121.415 23.2901C121.285 23.5101 120.755 23.4301 120.605 23.6301C120.455 23.8301 120.555 24.2201 120.385 24.4001C120.215 24.5801 119.825 24.5101 119.635 24.6801C119.445 24.8501 119.435 25.2001 119.235 25.3501C119.035 25.5001 118.775 25.5501 118.565 25.6801C118.355 25.8101 118.325 26.2801 118.095 26.3901C117.865 26.5001 117.535 26.3901 117.305 26.4801C117.085 26.5601 116.905 26.7601 116.685 26.8301C116.465 26.9001 116.265 27.0701 116.035 27.1301C115.805 27.1901 115.585 27.2801 115.355 27.3301C115.125 27.3801 114.815 26.8801 114.585 26.9101C114.355 26.9401 114.195 27.5401 113.965 27.5701C113.735 27.6001 113.475 27.2901 113.245 27.3101C113.015 27.3301 112.785 27.3501 112.555 27.3601C112.325 27.3701 112.095 27.6301 111.865 27.6301C111.635 27.6301 111.405 27.3001 111.175 27.2901C110.945 27.2801 110.725 26.9901 110.495 26.9901C110.265 26.9901 110.035 27.0501 109.805 27.0401C109.575 27.0301 109.335 27.2101 109.105 27.2001C108.865 27.2001 108.625 27.1501 108.385 27.1401C108.145 27.1301 107.905 27.2001 107.665 27.1901C107.425 27.1801 107.175 27.4901 106.935 27.4801C106.695 27.4701 106.465 27.2101 106.225 27.2001C105.985 27.1901 105.745 27.0901 105.505 27.0801C105.265 27.0701 105.025 27.0401 104.785 27.0301C104.545 27.0201 104.315 26.7901 104.075 26.7801C103.835 26.7701 103.585 26.9001 103.345 26.8901C103.105 26.8801 102.865 26.8201 102.625 26.8101C102.385 26.8001 102.145 26.7901 101.905 26.7801C101.665 26.7701 101.425 26.6901 101.185 26.6901C100.945 26.6901 100.705 26.6601 100.465 26.6501C100.225 26.6401 99.9653 27.1701 99.7253 27.1601C99.4853 27.1501 99.2553 26.9201 99.0153 26.9101C98.7753 26.9001 98.5453 26.5301 98.3053 26.5201C98.0653 26.5101 97.8153 26.8701 97.5753 26.8701C97.3353 26.8701 97.0953 26.9601 96.8453 26.9601C96.5953 26.9601 96.3753 26.6701 96.1353 26.6601C95.8953 26.6501 95.6553 26.4501 95.4153 26.4501C95.1753 26.4501 94.9153 26.9301 94.6753 26.9201C94.4353 26.9101 94.1953 26.9001 93.9553 26.8901C93.7153 26.8801 93.4853 26.4701 93.2453 26.4601C93.0053 26.4501 92.7653 26.4801 92.5253 26.4701C92.2853 26.4601 92.0453 26.3901 91.8053 26.3901C91.5653 26.3901 91.3253 26.4701 91.0853 26.4701C90.8453 26.4701 90.5953 26.7201 90.3553 26.7201C90.1153 26.7201 89.8853 26.4701 89.6353 26.4701C89.3853 26.4701 89.1553 26.4101 88.9153 26.4001C88.6753 26.3901 88.4353 26.4001 88.1953 26.4001C87.9553 26.4001 87.7153 26.4001 87.4753 26.4001C87.2353 26.4001 86.9853 26.8801 86.7453 26.8701C86.5053 26.8601 86.2653 26.7001 86.0253 26.6901C85.7853 26.6801 85.5553 26.4101 85.3053 26.4101C85.0553 26.4101 84.8153 26.6301 84.5753 26.6301C84.3353 26.6301 84.1053 26.2401 83.8653 26.2301C83.6253 26.2201 83.3853 26.1901 83.1453 26.1901C82.9053 26.1901 82.6653 26.2201 82.4253 26.2101C82.1853 26.2001 81.9353 26.7001 81.6953 26.6901C81.4553 26.6801 81.2153 26.5901 80.9753 26.5901C80.7353 26.5901 80.5053 26.2501 80.2653 26.2401C80.0253 26.2301 79.7753 26.4701 79.5353 26.4701C79.2953 26.4701 79.0553 26.5501 78.8153 26.5401C78.5753 26.5301 78.3353 26.4901 78.0953 26.4801C77.8553 26.4701 77.6153 26.6301 77.3753 26.6201C77.1353 26.6101 76.9053 26.2301 76.6653 26.2301C76.4253 26.2301 76.1853 26.1601 75.9453 26.1601C75.7053 26.1601 75.4653 26.1401 75.2253 26.1301C74.9853 26.1201 74.7453 26.2701 74.5053 26.2701C74.2653 26.2701 74.0253 26.4801 73.7753 26.4801C73.5253 26.4801 73.2953 26.1501 73.0553 26.1501C72.8153 26.1501 72.5753 25.9201 72.3353 25.9201C72.0953 25.9201 71.8453 26.3901 71.6053 26.3901C71.3653 26.3901 71.1253 26.2301 70.8853 26.2201C70.6453 26.2101 70.4053 25.9301 70.1653 25.9201C69.9253 25.9101 69.6753 26.4501 69.4353 26.4401C69.1953 26.4301 68.9553 26.2201 68.7153 26.2201C68.4753 26.2201 68.2253 26.5401 67.9853 26.5401C67.7453 26.5401 67.5053 26.2701 67.2653 26.2601C67.0253 26.2501 66.7853 26.3101 66.5453 26.3001C66.3053 26.2901 66.0653 26.1301 65.8253 26.1201C65.5853 26.1101 65.3453 26.2501 65.1053 26.2401C64.8653 26.2301 64.6253 26.2201 64.3853 26.2201C64.1453 26.2201 63.9053 26.3301 63.6653 26.3201C63.4253 26.3101 63.1853 25.8501 62.9453 25.8401C62.7053 25.8301 62.4653 25.8201 62.2253 25.8201C61.9853 25.8201 61.7453 25.9201 61.5053 25.9201C61.2653 25.9201 61.0253 25.8801 60.7853 25.8801C60.5453 25.8801 60.3053 26.4201 60.0553 26.4201C59.8053 26.4201 59.5753 26.0901 59.3353 26.0801C59.0953 26.0701 58.8553 26.0201 58.6153 26.0201C58.3753 26.0201 58.1353 25.7801 57.8953 25.7801C57.6553 25.7801 57.4153 25.8601 57.1753 25.8601C56.9353 25.8601 56.6953 25.8301 56.4553 25.8301C56.2153 25.8301 55.9753 26.3401 55.7353 26.3401C55.4953 26.3401 55.2553 26.1101 55.0153 26.1101C54.7753 26.1101 54.5353 26.0001 54.2953 26.0001C54.0553 26.0001 53.8153 25.8101 53.5753 25.8101C53.3353 25.8101 53.0953 26.2701 52.8553 26.2701C52.6153 26.2701 52.3753 26.4001 52.1353 26.4001C51.8953 26.4001 51.6553 25.9701 51.4153 25.9701C51.1753 25.9701 50.9353 25.7501 50.6953 25.7501C50.4553 25.7501 50.2153 25.9701 49.9753 25.9701C49.7353 25.9701 49.4953 25.8201 49.2553 25.8201C49.0153 25.8201 48.7753 26.0401 48.5353 26.0401C48.2953 26.0401 48.0553 25.9501 47.8153 25.9501C47.5753 25.9501 47.3353 26.0401 47.0953 26.0401C46.8553 26.0401 46.6153 26.3301 46.3753 26.3401C46.1353 26.3501 45.8953 26.3301 45.6553 26.3301C45.4153 26.3301 45.1753 25.8701 44.9353 25.8801C44.6953 25.8901 44.4553 26.0701 44.2153 26.0701C43.9753 26.0701 43.7353 26.1201 43.4953 26.1201C43.2553 26.1201 43.0153 25.9001 42.7753 25.9001C42.5353 25.9001 42.2953 26.3001 42.0553 26.3001C41.8153 26.3001 41.5753 26.1301 41.3353 26.1301C41.0953 26.1301 40.8553 25.8901 40.6153 25.8901C40.3753 25.8901 40.1353 25.8301 39.8953 25.8301C39.6553 25.8301 39.4153 26.0401 39.1753 26.0401C38.9353 26.0401 38.6953 25.9701 38.4553 25.9801C38.2153 25.9901 37.9753 26.1301 37.7353 26.1401C37.4953 26.1501 37.2553 26.1401 37.0153 26.1401C36.7753 26.1401 36.5353 26.1701 36.2953 26.1701C36.0553 26.1701 35.8153 25.9901 35.5753 25.9901C35.3353 25.9901 35.0953 26.1401 34.8553 26.1501C34.6153 26.1601 34.3753 26.5201 34.1353 26.5301C33.8953 26.5401 33.6553 26.3401 33.4153 26.3401C33.1753 26.3401 32.9253 26.0101 32.6853 26.0101C32.4453 26.0101 32.2053 25.9201 31.9653 25.9201C31.7253 25.9201 31.4953 26.5201 31.2553 26.5201C31.0153 26.5201 30.7653 26.2201 30.5253 26.2201C30.2853 26.2201 30.0453 26.1401 29.8053 26.1501C29.5653 26.1601 29.3253 26.3301 29.0853 26.3301C28.8453 26.3301 28.6053 26.4801 28.3653 26.4901C28.1253 26.5001 27.8853 26.4801 27.6453 26.4901C27.4053 26.5001 27.1653 26.4801 26.9253 26.4901C26.6853 26.5001 26.4453 26.6801 26.2053 26.6801C25.9653 26.6801 25.7253 26.4701 25.4753 26.4801C25.2253 26.4901 24.9853 26.1001 24.7453 26.1101C24.5053 26.1201 24.2753 26.7201 24.0353 26.7201C23.7953 26.7201 23.5453 26.1001 23.3053 26.1101C23.0653 26.1201 22.8353 26.4801 22.5953 26.4801C22.3553 26.4801 22.1153 26.6401 21.8753 26.6401C21.6353 26.6401 21.3853 26.4401 21.1453 26.4501C20.9053 26.4601 20.6653 26.7101 20.4253 26.7101C20.1853 26.7101 19.9453 26.6201 19.7053 26.6301C19.4653 26.6401 19.2153 26.3201 18.9753 26.3301C18.7353 26.3401 18.4953 26.3501 18.2553 26.3601C18.0153 26.3701 17.7753 26.5501 17.5353 26.5501C17.2953 26.5501 17.0553 26.4601 16.8153 26.4701C16.5753 26.4801 16.3253 26.2701 16.0853 26.2801C15.8453 26.2901 15.6053 26.5101 15.3653 26.5101C15.1253 26.5101 14.8953 26.8101 14.6553 26.8201C14.4153 26.8301 14.1753 26.7701 13.9353 26.7701C13.6953 26.7701 13.4553 26.9201 13.2153 26.9301C12.9753 26.9401 12.7253 26.7201 12.4853 26.7301C12.2453 26.7401 11.9953 26.4201 11.7553 26.4201C11.5253 26.4201 11.3053 26.9301 11.0653 26.9401C10.8253 26.9501 10.5953 26.6001 10.3553 26.6001C10.1153 26.6001 9.88528 26.9801 9.64528 26.9701C9.40528 26.9601 9.20529 26.3401 8.96529 26.3301C8.72529 26.3201 8.47529 26.7201 8.24529 26.7001C8.01529 26.6801 7.79528 26.5001 7.56528 26.4701C7.33528 26.4401 7.10529 26.3701 6.88529 26.3301C6.66529 26.2901 6.41529 26.3201 6.18529 26.2601C5.95529 26.2001 5.68529 26.2901 5.46529 26.2201C5.24529 26.1501 5.07528 25.9001 4.86528 25.8101C4.65528 25.7201 4.47529 25.5601 4.27529 25.4501C4.07529 25.3401 3.80528 25.3301 3.61528 25.1901C3.42528 25.0501 3.10529 25.0401 2.93529 24.8801C2.76529 24.7201 2.83529 24.3401 2.68529 24.1501C2.53529 23.9601 2.43528 23.7801 2.31528 23.5701C2.20528 23.3701 2.25528 23.1201 2.17528 22.8901C2.09528 22.6801 1.74529 22.5501 1.68529 22.3101C1.63529 22.0901 1.34528 21.8801 1.31528 21.6401C1.28528 21.3801 1.48528 21.1001 1.47528 20.8601C1.47528 20.6001 1.83528 20.3701 1.84528 20.1301C1.86528 19.8701 1.30528 19.5501 1.34528 19.3101C1.39528 19.0601 1.85529 18.9101 1.93529 18.6901C2.01529 18.4501 2.22528 18.3001 2.33528 18.0801C2.44528 17.8601 2.64529 17.7401 2.79529 17.5401C2.94529 17.3401 2.63528 16.7301 2.81528 16.5601C2.99528 16.3901 3.54529 16.6401 3.74529 16.5001C3.94529 16.3601 3.96529 15.9501 4.18529 15.8201C4.40529 15.6901 4.74528 15.8501 4.97528 15.7501C5.20528 15.6501 5.38529 15.4701 5.62529 15.3901C5.86529 15.3101 5.99528 14.8801 6.23528 14.8201C6.47528 14.7601 6.77529 14.9401 7.02529 14.9001C7.27529 14.8601 7.55529 15.1401 7.80529 15.1101C8.05529 15.0801 8.28529 15.0501 8.52529 15.0301C8.76529 15.0101 9.00528 14.9701 9.25528 14.9601C9.50528 14.9501 9.74528 14.7701 9.98528 14.7701C10.1853 14.7701 10.4253 14.7801 10.7153 14.7901C10.9353 14.7901 11.1753 14.9101 11.4353 14.9101C11.6653 14.9101 11.9053 14.8501 12.1653 14.8601C12.3953 14.8601 12.6453 14.4401 12.8953 14.4501C13.1253 14.4501 13.3653 14.6801 13.6153 14.6901C13.8553 14.6901 14.0953 14.4501 14.3453 14.4501C14.5953 14.4501 14.8153 14.8201 15.0653 14.8301C15.3153 14.8401 15.5453 14.9001 15.7953 14.9001C16.0453 14.9001 16.2853 14.5001 16.5253 14.5001C16.7653 14.5001 17.0053 14.5601 17.2553 14.5601C17.5053 14.5601 17.7253 15.1301 17.9753 15.1401C18.2253 15.1501 18.4553 15.0701 18.6953 15.0801C18.9353 15.0901 19.1753 14.8801 19.4253 14.8901C19.6753 14.9001 19.9053 14.7201 20.1553 14.7201C20.4053 14.7201 20.6353 14.7801 20.8753 14.7801C21.1153 14.7801 21.3653 14.5601 21.6053 14.5601C21.8453 14.5601 22.0853 14.6301 22.3253 14.6301C22.5653 14.6301 22.8053 14.9101 23.0453 14.9101C23.2853 14.9101 23.5353 14.6801 23.7753 14.6901C24.0153 14.7001 24.2553 14.9701 24.5053 14.9801C24.7553 14.9901 24.9953 14.7701 25.2453 14.7701C25.4953 14.7701 25.7353 14.6401 25.9853 14.6401C26.2353 14.6401 26.4653 14.8301 26.7153 14.8301C26.9653 14.8301 27.2053 14.9301 27.4453 14.9301C27.6853 14.9301 27.9353 15.1801 28.1753 15.1801C28.4153 15.1801 28.6653 14.6701 28.9053 14.6701C29.1453 14.6701 29.3853 15.1001 29.6353 15.1001C29.8853 15.1001 30.1253 15.1701 30.3653 15.1701C30.6053 15.1701 30.8553 15.1901 31.0953 15.1901C31.3353 15.1901 31.5853 15.1401 31.8253 15.1401C32.0653 15.1401 32.3153 15.1901 32.5553 15.1901C32.7953 15.1901 33.0453 14.8601 33.2853 14.8601C33.5253 14.8601 33.7753 14.9901 34.0153 14.9901C34.2653 14.9901 34.5153 15.2001 34.7453 15.2001C34.9953 15.2001 35.2453 15.1101 35.4753 15.1101C35.7353 15.1101 35.9753 15.1301 36.2053 15.1201C36.4653 15.1201 36.6853 14.6301 36.9153 14.6201C37.1853 14.6101 37.4253 14.6801 37.6353 14.6601C37.9353 14.6401 38.2753 14.7901 38.4553 14.7601C38.2253 14.7201 37.9053 14.7601 37.6553 14.7001C37.4053 14.6401 37.1353 14.7801 36.8953 14.7301C36.6553 14.6801 36.4553 14.4901 36.2153 14.4301C35.9753 14.3701 35.7253 14.3601 35.4953 14.2801C35.2653 14.2001 34.9853 14.2201 34.7653 14.1301C34.5453 14.0401 34.4953 13.5201 34.2753 13.4201C34.0553 13.3201 33.8953 13.1301 33.6853 13.0101C33.4753 12.8901 33.2753 12.7901 33.0753 12.6601C32.8753 12.5301 32.6253 12.4901 32.4353 12.3401C32.2453 12.1901 32.0953 12.0201 31.9153 11.8601C31.7353 11.7001 31.3553 11.7301 31.1953 11.5401C31.0353 11.3501 30.6953 11.2601 30.5753 11.0501C30.4553 10.8401 30.8653 10.3601 30.7753 10.1301C30.6853 9.90008 30.4453 9.76008 30.3853 9.52008C30.3253 9.28008 30.1953 9.07008 30.1753 8.82008C30.1653 8.58008 30.1453 8.34008 30.1753 8.09008C30.1953 7.86008 30.0653 7.57008 30.1153 7.33008L30.0153 7.21008Z" fill="white"/>
<path d="M111.885 28.8003C111.405 28.8003 111.055 28.5703 110.855 28.4203C110.615 28.3603 110.425 28.2603 110.295 28.1803C110.165 28.2003 110.045 28.2103 109.915 28.2103C109.685 28.2903 109.415 28.3803 109.085 28.3603C108.945 28.3603 108.795 28.3403 108.655 28.3303C108.555 28.3303 108.465 28.3103 108.365 28.3103C108.315 28.3103 108.265 28.3203 108.205 28.3303C108.105 28.3403 108.005 28.3503 107.905 28.3603C107.655 28.5103 107.325 28.6803 106.905 28.6503C106.495 28.6303 106.185 28.4603 106.005 28.3603C105.875 28.3403 105.745 28.3203 105.615 28.2903C105.565 28.2803 105.525 28.2703 105.475 28.2603C105.345 28.2603 105.215 28.2403 105.075 28.2303C104.975 28.2303 104.875 28.2103 104.775 28.2103C104.435 28.2003 104.165 28.0803 103.985 27.9903C103.825 28.0303 103.595 28.0703 103.335 28.0703C103.165 28.0703 103.005 28.0403 102.835 28.0203C102.765 28.0103 102.685 27.9903 102.615 27.9903L101.895 27.9603C101.715 27.9603 101.545 27.9303 101.365 27.8903C101.305 27.8803 101.245 27.8603 101.175 27.8603C101.075 27.8603 100.975 27.8603 100.865 27.8403C100.635 28.0603 100.235 28.3403 99.7153 28.3303C99.3253 28.3203 99.0153 28.1603 98.8353 28.0703H98.8253C98.6153 28.0403 98.4353 27.9703 98.2953 27.8803C98.0953 27.9803 97.8553 28.0503 97.5653 28.0403C97.5653 28.0403 97.5153 28.0503 97.4753 28.0603C97.3153 28.0903 97.0953 28.1303 96.8453 28.1203C96.4053 28.1103 96.0853 27.9203 95.8953 27.8003C95.8053 27.7903 95.7253 27.7703 95.6553 27.7403C95.4053 27.9303 95.0653 28.0903 94.6753 28.0803L93.9553 28.0503C93.4853 28.0403 93.1553 27.8103 92.9453 27.6303C92.8053 27.6303 92.6653 27.6403 92.5253 27.6303C92.3553 27.6303 92.1753 27.6003 92.0053 27.5703C91.9353 27.5603 91.8753 27.5403 91.8053 27.5403C91.7853 27.5403 91.7353 27.5503 91.6853 27.5603C91.5553 27.5803 91.4253 27.6003 91.2953 27.6103C91.0453 27.7403 90.7353 27.8703 90.3453 27.8603C89.9453 27.8503 89.6453 27.6903 89.4653 27.6003C89.3653 27.6003 89.2553 27.5803 89.1553 27.5703C89.0753 27.5603 88.9953 27.5503 88.9153 27.5403H88.5853C88.4453 27.5403 88.3153 27.5403 88.1853 27.5403C88.0753 27.5403 87.9753 27.5403 87.8653 27.5403C87.6053 27.7703 87.2153 28.0303 86.7353 28.0103C86.4153 28.0103 86.1653 27.9103 85.9953 27.8503C85.9553 27.8403 85.9453 27.8303 85.9453 27.8303C85.6753 27.8103 85.4453 27.7203 85.2753 27.6403C85.0753 27.7203 84.8353 27.7703 84.5753 27.7703C84.0953 27.7603 83.7553 27.5203 83.5453 27.3503C83.5053 27.3503 83.4653 27.3503 83.4253 27.3503C83.3253 27.3503 83.2353 27.3303 83.1353 27.3303C83.0453 27.3303 82.9653 27.3303 82.8753 27.3303C82.8653 27.3303 82.8453 27.3303 82.8353 27.3303C82.5653 27.5703 82.2053 27.8203 81.6853 27.8203C81.4953 27.8203 81.2953 27.7803 81.1053 27.7403C81.0553 27.7303 81.0053 27.7203 80.9553 27.7103C80.6353 27.7103 80.3653 27.5903 80.1653 27.4803C79.9753 27.5503 79.7553 27.6003 79.5253 27.6003C79.4753 27.6003 79.4253 27.6103 79.3753 27.6203C79.1853 27.6503 79.0053 27.6703 78.7953 27.6703C78.6453 27.6703 78.4853 27.6503 78.3253 27.6303C78.2653 27.6303 78.2053 27.6203 78.1453 27.6103C77.8953 27.6803 77.6553 27.7503 77.3553 27.7503C76.8653 27.7503 76.5253 27.5003 76.3153 27.3403C76.2553 27.3403 76.1953 27.3203 76.1353 27.3203C76.0653 27.3203 75.9953 27.3003 75.9253 27.3003C75.7953 27.3003 75.6653 27.3003 75.5253 27.2803C75.4153 27.2803 75.3153 27.2703 75.2053 27.2703C75.0653 27.3303 74.8753 27.3903 74.6453 27.4003C74.3953 27.5003 74.1053 27.6003 73.7553 27.6103C73.2853 27.6103 72.9453 27.3803 72.7453 27.2503C72.6653 27.2303 72.5953 27.2103 72.5253 27.1903C72.2853 27.3703 71.9553 27.4903 71.5953 27.5103C71.2753 27.5103 71.0253 27.4203 70.8553 27.3603C70.8153 27.3503 70.7953 27.3403 70.8053 27.3403C70.6353 27.3303 70.4853 27.2903 70.3553 27.2503C70.1253 27.4203 69.8553 27.6003 69.4253 27.5703C69.1753 27.5703 68.9653 27.5103 68.8053 27.4503C68.5853 27.5703 68.3253 27.6703 68.0053 27.6703H67.9853C67.5953 27.6703 67.2853 27.5203 67.0953 27.4103C67.0753 27.4103 67.0553 27.4103 67.0453 27.4103C66.8753 27.4303 66.7253 27.4403 66.5553 27.4403C66.2353 27.4403 65.9753 27.3503 65.8053 27.2803C65.6453 27.3203 65.3753 27.3703 65.1153 27.3903C64.9853 27.3903 64.8453 27.3903 64.7153 27.3803C64.6053 27.3803 64.5053 27.3803 64.3953 27.3703C64.3953 27.3703 64.3553 27.3803 64.3053 27.3903C64.1453 27.4303 63.9053 27.4803 63.6753 27.4703C63.1553 27.4703 62.7953 27.1903 62.5753 26.9803C62.5753 26.9803 62.5653 26.9803 62.5553 26.9803C62.4453 26.9803 62.3453 26.9803 62.2353 26.9703C62.2253 26.9703 62.1753 26.9803 62.1353 26.9903C61.9753 27.0203 61.7753 27.0503 61.5153 27.0703C61.4153 27.0703 61.3053 27.0703 61.1953 27.0603C60.9653 27.2903 60.6153 27.5303 60.0653 27.5703C59.6053 27.5703 59.2653 27.3603 59.0653 27.2203C58.9853 27.2203 58.9153 27.2003 58.8453 27.2003C58.7753 27.2003 58.7053 27.1803 58.6253 27.1803C58.2553 27.1803 57.9653 27.0503 57.7753 26.9603C57.7653 26.9603 57.7553 26.9603 57.7353 26.9603C57.5453 26.9903 57.3653 26.9903 57.1753 27.0103C57.0653 27.0103 56.9553 27.0103 56.8353 27.0003C56.6053 27.2203 56.2453 27.4903 55.7353 27.4903C55.3853 27.4703 55.0253 27.3403 54.8453 27.2503C54.6653 27.2303 54.5153 27.2003 54.3853 27.1703C54.3453 27.1703 54.3053 27.1503 54.2653 27.1403C54.0953 27.1403 53.9353 27.1103 53.8053 27.0703C53.5653 27.2503 53.2553 27.4103 52.8553 27.4103L52.8253 27.4303C52.6653 27.4703 52.4253 27.5403 52.1353 27.5403C51.5953 27.5403 51.2253 27.2503 51.0053 27.0603C50.8853 27.0303 50.7753 26.9903 50.6853 26.9503C50.2753 27.1203 49.6353 27.1003 49.3053 26.9903C49.0853 27.0803 48.8353 27.1703 48.5253 27.1703C48.3253 27.1703 48.1353 27.1403 47.9353 27.1003C47.8853 27.1003 47.8453 27.0803 47.7953 27.0803C47.7653 27.0803 47.7153 27.1003 47.6753 27.1003C47.5653 27.1203 47.4553 27.1403 47.3453 27.1503C47.1053 27.2903 46.7853 27.4603 46.3753 27.4603C46.2653 27.4603 46.1153 27.4603 45.9753 27.4603C45.8653 27.4603 45.7553 27.4603 45.6453 27.4603C45.2353 27.4603 44.9253 27.2903 44.7053 27.1203C44.4953 27.1803 44.2453 27.1803 43.9753 27.2103C43.8053 27.2303 43.5953 27.2403 43.4753 27.2403C43.2553 27.2403 43.0553 27.2003 42.9053 27.1403C42.6753 27.2903 42.3953 27.4103 42.0453 27.4103H42.0353C41.7053 27.4103 41.4353 27.3203 41.2653 27.2503C41.2353 27.2503 41.2253 27.2403 41.2253 27.2303C40.8653 27.2103 40.5953 27.0803 40.4253 26.9903C40.3153 26.9903 40.1953 26.9703 40.0853 26.9603C40.0553 26.9603 40.0253 26.9603 39.9953 26.9503C39.7653 27.0503 39.4953 27.1503 39.1653 27.1503C38.9853 27.1503 38.8053 27.1303 38.6253 27.1103C38.5653 27.1103 38.4953 27.0803 38.4453 27.0903C38.2753 27.1603 38.0253 27.2403 37.7253 27.2503H37.0053C36.9053 27.2503 36.8053 27.2703 36.7053 27.2703C36.5653 27.2703 36.4253 27.2903 36.2853 27.2903C35.9453 27.2903 35.7153 27.2103 35.5353 27.1403C35.4453 27.1703 35.3153 27.2103 35.1753 27.2303C34.9253 27.4203 34.5853 27.6403 34.1253 27.6403H34.1053C33.7553 27.6403 33.4753 27.5303 33.2953 27.4603C33.2753 27.4603 33.2653 27.4503 33.2653 27.4503C32.8653 27.4203 32.5653 27.2303 32.3753 27.1103H32.3353C32.1053 27.3503 31.7553 27.6303 31.2353 27.6403H31.2153C30.7753 27.6403 30.4453 27.4503 30.2453 27.3303C30.1453 27.3303 30.0353 27.3103 29.9353 27.2903C29.9053 27.2903 29.8753 27.2803 29.8453 27.2803C29.6053 27.3703 29.3653 27.4503 29.0553 27.4503V27.4703C28.8853 27.5203 28.6353 27.6003 28.3353 27.6103C28.2053 27.6103 28.0553 27.6103 27.9153 27.6103C27.8153 27.6103 27.7153 27.6103 27.6053 27.6103C27.4653 27.6103 27.3253 27.6103 27.1953 27.6103C27.1253 27.6103 27.0553 27.6103 26.9853 27.6103C26.7453 27.7003 26.4853 27.7903 26.1753 27.8003C25.7953 27.8003 25.4953 27.6803 25.3153 27.6003C25.3053 27.6003 25.2953 27.6003 25.2953 27.6003C25.1453 27.5903 25.0153 27.5503 24.9053 27.5103C24.6853 27.6903 24.3953 27.8403 24.0153 27.8503C23.6353 27.8503 23.3053 27.7003 23.0753 27.5103C22.9253 27.5703 22.7553 27.6103 22.5753 27.6103V27.6303C22.4053 27.6803 22.1553 27.7703 21.8553 27.7703C21.5853 27.7703 21.3453 27.7103 21.1653 27.6503C20.9553 27.7503 20.7153 27.8403 20.4153 27.8503C20.1553 27.8503 19.9553 27.8203 19.8053 27.7903C19.7653 27.7903 19.7153 27.7703 19.6753 27.7703C19.2853 27.7803 18.9353 27.6003 18.7253 27.4803H18.3453C18.0953 27.5903 17.8453 27.6803 17.5253 27.6903C17.3253 27.6903 17.1253 27.6703 16.9153 27.6303C16.8753 27.6303 16.8253 27.6103 16.7753 27.6103C16.4853 27.6203 16.2553 27.5403 16.0653 27.4803C15.9253 27.5403 15.7753 27.6003 15.5953 27.6303C15.3553 27.7803 15.0353 27.9503 14.6253 27.9603C14.4553 27.9603 14.2753 27.9503 14.0953 27.9303C14.0253 27.9303 13.9653 27.9103 13.8953 27.9103V27.9303C13.7253 27.9803 13.4753 28.0603 13.1753 28.0703C12.7753 28.0703 12.4753 27.9503 12.2953 27.8703C12.2953 27.8703 12.2853 27.8703 12.2753 27.8703C12.1253 27.8603 11.9853 27.8203 11.8653 27.7803C11.6453 27.9503 11.3653 28.0803 11.0053 28.0803C10.6853 28.0803 10.4953 28.0103 10.3053 27.9203C10.0953 28.0303 9.84529 28.1203 9.54529 28.1103C9.16529 28.1103 8.87529 27.9503 8.65529 27.7603C8.48529 27.8203 8.28528 27.8503 8.06528 27.8303C7.72528 27.8003 7.46529 27.6803 7.29529 27.6003C7.26529 27.5903 7.25528 27.5803 7.25528 27.5803C7.10528 27.5603 6.95529 27.5203 6.80528 27.4903C6.73528 27.4703 6.65528 27.4603 6.58528 27.4403C6.53528 27.4403 6.48529 27.4403 6.43529 27.4403C6.27529 27.4403 6.05528 27.4303 5.81528 27.3703C5.62528 27.4003 5.33528 27.4103 5.00528 27.3003C4.65528 27.1903 4.40528 26.9703 4.25528 26.8503C4.23528 26.8303 4.22528 26.8203 4.22528 26.8203C4.05528 26.7403 3.89528 26.6403 3.73528 26.5303C3.68528 26.5003 3.64528 26.4703 3.59528 26.4403C3.39528 26.3903 3.14528 26.3203 2.89528 26.1603C2.61528 26.0703 2.28529 25.9603 1.99529 25.6703C1.63529 25.3203 1.55529 24.8903 1.51529 24.6503C1.39529 24.4703 1.27529 24.2803 1.16529 24.0703C1.02529 23.8103 0.975279 23.5603 0.955279 23.3803C0.775279 23.2203 0.585289 23.0003 0.465289 22.6903C0.285289 22.4503 0.0752864 22.1503 0.0252864 21.7203C-0.0247136 21.3103 0.0852912 20.9603 0.155291 20.7503C0.155291 20.7203 0.165286 20.7103 0.165286 20.7103C0.175286 20.4803 0.23528 20.2903 0.31528 20.1203C0.13528 19.8503 -0.0247204 19.4703 0.0652797 19.0103C0.18528 18.4303 0.585289 18.1103 0.825289 17.9403C0.925289 17.7503 1.04529 17.6003 1.12529 17.5003L1.19528 17.4203C1.27528 17.2603 1.38528 17.1303 1.47528 17.0203C1.42528 16.6403 1.41529 16.0703 1.87529 15.6203C2.21529 15.2903 2.62528 15.2203 2.94528 15.2203C3.06528 15.0303 3.24529 14.8403 3.49529 14.7003C3.88529 14.4803 4.26529 14.4903 4.51529 14.5003C4.61529 14.4403 4.73529 14.3603 4.87529 14.2903C5.08529 14.0303 5.36528 13.7103 5.83528 13.5903C6.25528 13.4803 6.61529 13.5703 6.82529 13.6203C6.83529 13.6203 6.84529 13.6203 6.85529 13.6203C7.26529 13.5903 7.57529 13.7203 7.77529 13.8103C7.95529 13.7903 8.13529 13.7703 8.32529 13.7603L8.57529 13.7303C8.72529 13.7103 8.86529 13.6903 9.01529 13.6903C9.27529 13.5903 9.54529 13.4903 9.88529 13.4903C9.98529 13.5103 10.1253 13.4903 10.2653 13.4903H10.6253C10.8753 13.5003 11.0853 13.5503 11.2453 13.5903C11.2853 13.6003 11.3353 13.6103 11.3753 13.6203C11.4153 13.6203 11.4753 13.6103 11.5353 13.6003C11.5953 13.6003 11.6553 13.5903 11.7053 13.5803C11.9653 13.3703 12.3353 13.1503 12.8153 13.1503C13.1053 13.1503 13.3353 13.2403 13.5153 13.3103C13.7253 13.2203 13.9853 13.1603 14.2653 13.1503C14.7453 13.1503 15.0853 13.3903 15.2953 13.5503C15.3353 13.5503 15.3853 13.5603 15.4253 13.5703C15.6753 13.3803 16.0153 13.2003 16.4553 13.2103C16.6153 13.2103 16.7753 13.2303 16.9453 13.2503C17.0253 13.2503 17.1053 13.2703 17.1853 13.2703C17.7053 13.2703 18.0653 13.5603 18.2853 13.8003C18.3453 13.8003 18.4153 13.7903 18.4753 13.7903C18.6953 13.7003 18.9353 13.6103 19.2353 13.6003C19.4853 13.5103 19.7353 13.4303 20.0753 13.4303C20.2353 13.4303 20.3953 13.4503 20.5553 13.4703H20.6553C20.8853 13.3803 21.1653 13.2703 21.5053 13.2703H21.5353C21.7053 13.2703 21.8753 13.2903 22.0453 13.3203C22.1153 13.3203 22.1853 13.3403 22.2553 13.3403C22.5653 13.3403 22.8253 13.4403 23.0053 13.5303C23.2053 13.4503 23.4053 13.3903 23.7053 13.3903C24.0253 13.3903 24.2853 13.5003 24.4853 13.6003C24.6853 13.5303 24.8953 13.4703 25.1653 13.4703L25.2053 13.4503C25.3653 13.4103 25.6153 13.3403 25.9053 13.3503C26.2453 13.3503 26.5253 13.4603 26.6953 13.5303C26.7153 13.5303 26.7253 13.5403 26.7353 13.5503C26.8953 13.5603 27.0553 13.5903 27.2153 13.6203C27.2653 13.6203 27.3153 13.6403 27.3653 13.6503C27.5453 13.6503 27.7153 13.6903 27.8553 13.7303C28.0853 13.5503 28.3653 13.3703 28.8153 13.3803C29.3353 13.3803 29.6953 13.6503 29.9053 13.8403C29.9553 13.8403 30.0153 13.8503 30.0653 13.8603C30.2653 13.8903 30.4653 13.8903 30.6653 13.8903C30.7753 13.8903 30.8653 13.8903 30.9853 13.8903C31.0653 13.8903 31.1453 13.8803 31.2153 13.8703C31.3853 13.8503 31.5553 13.8603 31.7053 13.8403C31.8653 13.8403 32.0253 13.8503 32.1853 13.8703C32.1853 13.8703 32.1953 13.8703 32.2053 13.8703C32.2853 13.8203 32.3653 13.7703 32.4553 13.7303C32.3953 13.6903 32.3253 13.6503 32.2653 13.6103C32.2453 13.6003 32.2053 13.5903 32.1653 13.5703C32.0053 13.5103 31.7753 13.4103 31.5353 13.2303C31.3653 13.0903 31.2153 12.9503 31.0653 12.8003C30.7953 12.7303 30.4653 12.6103 30.1853 12.3203C29.9153 12.1603 29.6053 11.9603 29.3853 11.6003C29.0853 11.1103 29.1753 10.6203 29.2953 10.2803C29.1953 10.1203 29.1053 9.93026 29.0453 9.71026C29.0453 9.68026 29.0253 9.65027 29.0053 9.61027C28.9353 9.43027 28.8353 9.16026 28.8053 8.82026C28.7853 8.52026 28.7753 8.22027 28.8053 7.90027C28.7453 7.68027 28.6853 7.36026 28.7653 6.99026C28.8453 6.60026 29.0553 6.32026 29.1853 6.13026L29.2453 6.04027C29.2453 6.04027 29.2453 6.00027 29.2653 5.93027C29.3253 5.73027 29.3953 5.47027 29.5553 5.20027C29.5853 5.15027 29.6153 5.08027 29.6453 5.02027C29.7453 4.83027 29.8553 4.60026 30.0353 4.38026C30.3153 4.03026 30.6653 3.89026 30.9353 3.82027C31.0453 3.61027 31.1953 3.38026 31.4453 3.19026C31.7753 2.94026 32.1153 2.87027 32.3553 2.84027C32.4953 2.69027 32.6953 2.49026 32.9953 2.35026C33.0653 2.32026 33.1253 2.28027 33.1853 2.25027C33.3753 2.15027 33.5753 2.04026 33.7753 1.97026C33.8353 1.95026 33.8853 1.92026 33.9353 1.89026C34.0953 1.81026 34.3053 1.69026 34.5753 1.62026C34.6553 1.60026 34.7253 1.57026 34.8053 1.55026C35.0053 1.48026 35.1953 1.42026 35.3953 1.38026C35.6953 1.32026 35.9453 1.34026 36.1353 1.35026C36.1753 1.35026 36.2353 1.35026 36.2653 1.35026C36.5953 1.30026 36.8753 1.37026 37.0853 1.44026C37.2953 1.33026 37.5453 1.23026 37.8453 1.21026C38.1153 1.19026 38.3453 1.25026 38.5353 1.32026C38.7653 1.15026 39.0453 1.02026 39.4053 1.01026C39.5053 1.01026 39.6153 1.01026 39.7153 0.990263C39.8653 0.990263 40.0153 0.970263 40.1653 0.970263H40.1853C40.5653 0.970263 40.8653 1.10026 41.0453 1.19026C41.1453 1.19026 41.2553 1.20026 41.3553 1.21026C41.3753 1.21026 41.3953 1.21026 41.4153 1.21026C41.6553 1.07026 41.9453 0.940266 42.3253 0.930266C42.5853 0.930266 42.8753 1.00027 43.0353 1.04027H43.0853C43.0853 1.04027 43.1453 1.04027 43.1653 1.04027C43.3653 1.00027 43.5653 0.960264 43.7653 0.960264C43.7553 0.960264 43.7953 0.950264 43.8253 0.940264C43.9853 0.900264 44.2153 0.840263 44.4853 0.830263H44.5053C44.9253 0.830263 45.2453 1.00027 45.4453 1.11027C45.7453 1.15027 45.9853 1.27026 46.1353 1.35026C46.1953 1.35026 46.2453 1.35026 46.3053 1.35026C46.5553 1.12026 46.9053 0.880264 47.3853 0.870264C47.6453 0.870264 47.8553 0.910264 48.0153 0.940264C48.0553 0.940264 48.0953 0.960264 48.1453 0.960264C48.2553 0.960264 48.3953 0.960264 48.5253 0.960264C48.6253 0.960264 48.7353 0.960264 48.8353 0.960264C48.9153 0.960264 48.9853 0.950264 49.0653 0.940264C49.1753 0.930264 49.2953 0.910265 49.4053 0.910265C49.6453 0.800265 49.9253 0.680266 50.2853 0.680266H50.6153C50.7453 0.660266 50.8753 0.660265 51.0053 0.660265H51.7353C51.9453 0.660265 52.1153 0.680264 52.3053 0.710264C52.3553 0.710264 52.4153 0.730265 52.4653 0.730265H52.4753C52.8753 0.730265 53.1853 0.890263 53.4053 1.06026C53.4753 1.04026 53.5453 1.02026 53.6253 1.01026C53.8753 0.850264 54.2053 0.660263 54.6353 0.650263C54.7653 0.650263 54.9253 0.650265 55.0753 0.660265C55.1653 0.660265 55.2553 0.660263 55.3553 0.670263C55.7453 0.660263 56.0253 0.800266 56.2353 0.930266C56.4053 0.880266 56.5953 0.840263 56.8053 0.830263C57.1453 0.830263 57.3853 0.910263 57.5653 0.970263C57.6053 0.980263 57.6153 0.990263 57.6153 0.990263C57.7753 0.990263 57.9353 1.01027 58.0853 1.04027C58.1453 1.05027 58.2153 1.06026 58.2753 1.06026C58.4353 1.06026 58.6053 1.08026 58.7653 1.10026C58.7853 1.10026 58.8053 1.10026 58.8253 1.10026C59.0653 0.980264 59.3453 0.860264 59.7053 0.850264C60.1153 0.850264 60.4253 1.01027 60.6253 1.11027C60.6653 1.11027 60.6953 1.11027 60.7353 1.11027C60.9653 0.870266 61.3353 0.570265 61.8753 0.570265C62.1853 0.570265 62.4453 0.670264 62.6553 0.800264C62.8453 0.700264 63.0853 0.610263 63.3353 0.630263C63.8153 0.630263 64.1653 0.860264 64.3653 1.01026C64.4953 1.03026 64.6153 1.06026 64.7053 1.08026C64.9153 1.00026 65.1453 0.920263 65.4153 0.900263C65.6653 0.820263 65.9153 0.740263 66.2153 0.740263C66.3653 0.740263 66.5053 0.740264 66.6553 0.760264C66.8853 0.770264 67.1153 0.770264 67.3453 0.780264H67.6653C68.0253 0.780264 68.3153 0.920263 68.5253 1.06026C68.6253 1.02026 68.7453 0.990263 68.8653 0.970263C69.1053 0.830263 69.4253 0.670263 69.8253 0.670263C70.0253 0.670263 70.2253 0.700265 70.4253 0.750265C70.4253 0.750265 70.4453 0.750265 70.4553 0.750265C70.6853 0.650265 70.9453 0.550263 71.2753 0.560263C71.6953 0.560263 72.0053 0.740264 72.2353 0.940264C72.3853 0.890264 72.5053 0.860266 72.7353 0.860266L72.7953 0.840265C72.9653 0.800265 73.2053 0.750265 73.4653 0.750265C73.7853 0.750265 74.0553 0.860263 74.2453 0.970263C74.4353 0.900263 74.6853 0.850265 74.9053 0.840265C74.9153 0.840265 74.9653 0.830265 75.0053 0.820265C75.1653 0.790265 75.3753 0.740265 75.6353 0.750265C75.8753 0.750265 76.0853 0.810265 76.2553 0.890265C76.4753 0.750265 76.7753 0.650263 77.0853 0.650263C77.2653 0.650263 77.4453 0.680264 77.6253 0.710264C77.6853 0.720264 77.7553 0.730263 77.8153 0.740263C78.1953 0.740263 78.4953 0.880263 78.6653 0.970263C78.7153 0.970263 78.7753 0.970263 78.8253 0.970263C78.9653 0.970263 79.1153 0.970263 79.2553 0.970263C79.4253 0.970263 79.5853 0.990264 79.7553 1.01026C79.8353 1.02026 79.9053 1.03026 79.9853 1.03026C80.3253 1.03026 80.5953 1.15026 80.7753 1.23026C80.9353 1.19026 81.1553 1.15026 81.4253 1.15026C81.5253 1.15026 81.6053 1.15026 81.6953 1.15026C81.8453 1.15026 82.0053 1.14026 82.1553 1.15026C82.2453 1.15026 82.3353 1.15026 82.4253 1.15026C82.5753 1.15026 82.7253 1.14026 82.8753 1.15026C82.9553 1.15026 83.0453 1.15026 83.1253 1.14026C83.2853 1.14026 83.4453 1.12026 83.6053 1.13026C83.7353 1.13026 83.8653 1.14026 84.0053 1.15026H84.1053C84.3553 1.02026 84.6753 0.870265 85.0653 0.890265C85.3553 0.890265 85.5853 0.990266 85.7853 1.11027C85.9853 1.00027 86.2353 0.930266 86.5253 0.930266C87.0253 0.950266 87.3653 1.20027 87.5653 1.36027C87.6053 1.37027 87.6453 1.38026 87.6853 1.39026C87.9153 1.21026 88.2753 1.02027 88.6953 1.04027C88.8753 1.04027 89.0453 1.07027 89.2253 1.11027C89.2853 1.12027 89.3553 1.14026 89.4153 1.14026C89.6553 1.14026 89.8653 1.21027 90.0353 1.29027C90.2653 1.16027 90.5353 1.06026 90.8753 1.07026C91.2653 1.09026 91.5553 1.24026 91.7453 1.35026C91.7653 1.35026 91.7853 1.35026 91.8053 1.35026C91.9953 1.34026 92.1853 1.33026 92.3753 1.35026C92.7853 1.38026 93.0953 1.57027 93.2753 1.68027C93.2753 1.68027 93.2853 1.68026 93.2953 1.69026C93.4453 1.72026 93.5953 1.76026 93.7453 1.81026C93.8053 1.83026 93.8653 1.85027 93.9253 1.86027C94.1353 1.90027 94.3353 1.96026 94.5253 2.03026C94.5853 2.05026 94.6453 2.08027 94.7053 2.09027L94.8853 2.13026C95.0953 2.18026 95.3053 2.23026 95.5053 2.30026C95.6953 2.37026 95.8553 2.46027 95.9853 2.54027C96.3253 2.44027 96.8353 2.36027 97.3353 2.70027C97.7453 2.98027 97.9153 3.38027 98.0053 3.61027C98.0053 3.61027 98.0153 3.61026 98.0253 3.62026C98.1953 3.75026 98.4453 3.95027 98.6453 4.25027C98.8853 4.63027 98.9053 5.01027 98.8953 5.27027C99.0653 5.48027 99.2453 5.76026 99.2953 6.15026C99.3353 6.45026 99.2753 6.71027 99.2053 6.91026C99.3853 7.22026 99.5353 7.63027 99.3953 8.12027C99.2853 8.49027 99.0553 8.74027 98.8453 8.90027C98.8453 9.19027 98.8053 9.51027 98.5953 9.83027C98.4353 10.0703 98.2153 10.3303 98.0153 10.5403C97.9953 10.5703 97.9653 10.5903 97.9453 10.6203C97.9553 10.6203 97.9753 10.6203 97.9853 10.6203C98.0653 10.6303 98.1453 10.6503 98.2253 10.6503C98.2653 10.6503 98.3153 10.6503 98.3653 10.6303C98.5553 10.6103 98.7553 10.5903 98.9453 10.6003C99.0953 10.6003 99.2253 10.6403 99.3453 10.6703C99.5853 10.4803 99.9453 10.2903 100.405 10.3203L100.455 10.3003C100.625 10.2703 100.845 10.2303 101.125 10.2503C101.295 10.2603 101.455 10.2903 101.615 10.3203C101.685 10.3303 101.765 10.3503 101.835 10.3603C102.085 10.3803 102.285 10.4403 102.435 10.4803C102.475 10.4903 102.525 10.5103 102.565 10.5203C102.645 10.5203 102.735 10.5203 102.835 10.5303C102.975 10.5303 103.115 10.5403 103.265 10.5503C103.685 10.5903 103.985 10.8003 104.195 10.9903C104.235 10.9903 104.275 10.9803 104.315 10.9703C104.585 10.8003 104.955 10.6203 105.415 10.6703C105.845 10.7103 106.145 10.9203 106.335 11.0503C106.475 11.0903 106.595 11.1403 106.705 11.2003C106.935 11.0903 107.215 11.0203 107.545 11.0503C107.825 11.0803 108.045 11.1703 108.195 11.2303L108.295 11.2703C108.295 11.2703 108.405 11.2703 108.495 11.2703C108.645 11.2703 108.805 11.2803 108.955 11.3003L109.665 11.3903C109.965 11.4303 110.205 11.5503 110.375 11.6403C110.595 11.6003 110.825 11.5703 111.085 11.6003C111.245 11.6203 111.395 11.6603 111.545 11.6903C111.625 11.7103 111.705 11.7303 111.795 11.7403C112.005 11.7703 112.195 11.8403 112.335 11.9103C112.575 11.8103 112.875 11.7403 113.215 11.7903C113.625 11.8603 113.915 12.0803 114.085 12.2103C114.195 12.2403 114.285 12.2803 114.375 12.3103C114.625 12.2203 114.935 12.1403 115.285 12.2103C115.555 12.2003 115.825 12.1903 116.125 12.2803C116.515 12.4003 116.765 12.6303 116.925 12.7903C116.945 12.7903 116.965 12.8003 116.985 12.8103C117.155 12.8603 117.335 12.9103 117.495 12.9803C117.825 13.1203 118.055 13.3403 118.185 13.4703C118.185 13.4703 118.195 13.4803 118.205 13.4903C118.235 13.5003 118.275 13.5203 118.305 13.5303C118.485 13.6003 118.655 13.6703 118.825 13.7703C119.045 13.8203 119.305 13.9003 119.565 14.0803C119.805 14.2503 119.955 14.4503 120.065 14.6303C120.325 14.6803 120.615 14.7903 120.865 15.0303C121.145 15.3003 121.255 15.6103 121.305 15.8603C121.485 15.9703 121.675 16.1203 121.835 16.3303C121.865 16.3803 121.905 16.4203 121.945 16.4603C122.095 16.6303 122.235 16.8003 122.335 16.9903C122.435 17.1703 122.525 17.3803 122.595 17.5903C122.615 17.6503 122.635 17.7103 122.655 17.7603C122.775 18.0503 122.805 18.3203 122.825 18.5003V18.6103C122.895 18.8103 122.915 19.0003 122.935 19.1603C123.165 19.4103 123.415 19.7603 123.425 20.2503V20.3903C123.425 20.6403 123.445 20.9503 123.395 21.2503C123.335 21.6803 123.115 22.0003 122.975 22.1803L122.935 22.2403C122.825 22.5403 122.635 22.7503 122.465 22.9003C122.485 23.1803 122.455 23.5103 122.255 23.8403C122.035 24.2103 121.715 24.3903 121.435 24.4903C121.375 24.7103 121.265 24.9503 121.065 25.1603C120.805 25.4403 120.505 25.5603 120.265 25.6203C120.155 25.8403 120.005 26.0703 119.755 26.2603C119.555 26.4103 119.355 26.5003 119.195 26.5603C119.055 26.8603 118.845 27.2003 118.425 27.4103C118.055 27.5903 117.705 27.6003 117.485 27.5903C117.335 27.6903 117.125 27.8303 116.845 27.9203L116.775 27.9603C116.615 28.0503 116.405 28.1603 116.125 28.2303C116.055 28.2503 115.985 28.2703 115.925 28.2903C115.745 28.3503 115.565 28.4003 115.385 28.4403C115.105 28.4903 114.855 28.4503 114.635 28.3803C114.445 28.5403 114.195 28.6603 113.875 28.6903C113.425 28.7403 113.085 28.5703 112.865 28.4503C112.775 28.4503 112.685 28.4703 112.595 28.4703C112.355 28.6003 112.045 28.7803 111.665 28.7503L111.885 28.8003ZM18.2453 27.4803H18.2253C18.2253 27.4803 18.2353 27.4803 18.2453 27.4803ZM111.505 26.0603C111.675 26.1003 111.825 26.1603 111.955 26.2303C112.125 26.1603 112.325 26.1003 112.545 26.1003C112.655 26.1003 112.765 26.0903 112.875 26.0803L113.195 26.0603C113.345 26.0503 113.495 26.0603 113.615 26.1003C113.805 25.9103 114.075 25.7303 114.435 25.6803C114.905 25.6203 115.285 25.8103 115.545 25.9903C115.615 25.9703 115.685 25.9503 115.755 25.9303C115.725 25.9303 115.755 25.9103 115.795 25.9003C115.915 25.8403 116.065 25.7503 116.255 25.6803L116.315 25.6403C116.445 25.5503 116.625 25.4303 116.865 25.3303C117.045 25.2603 117.215 25.2303 117.365 25.2203C117.485 25.0003 117.655 24.7903 117.925 24.6203C118.065 24.5403 118.215 24.4703 118.365 24.4103C118.465 24.1903 118.595 23.9603 118.825 23.7503C119.005 23.5903 119.195 23.5003 119.365 23.4303C119.415 23.2503 119.495 23.0603 119.635 22.8703C119.795 22.6603 119.985 22.5203 120.175 22.4303C120.185 22.2703 120.225 22.1003 120.295 21.9303C120.465 21.5403 120.765 21.3203 120.955 21.1803C121.035 21.0303 121.115 20.9103 121.175 20.8203C121.175 20.7903 121.175 20.7603 121.175 20.7203C120.985 20.5103 120.785 20.2303 120.725 19.8503C120.705 19.7303 120.695 19.6103 120.685 19.4903C120.685 19.4303 120.685 19.3703 120.665 19.3203C120.615 19.1603 120.595 18.9803 120.575 18.8103V18.7003C120.575 18.7003 120.505 18.5703 120.465 18.4603C120.445 18.3903 120.425 18.3203 120.385 18.2603C120.355 18.2203 120.315 18.1703 120.275 18.1303C120.225 18.0803 120.185 18.0303 120.145 17.9703C119.935 17.8703 119.705 17.7303 119.495 17.5003C119.355 17.3403 119.265 17.1703 119.205 17.0103C119.025 16.9603 118.835 16.8703 118.655 16.7303C118.425 16.5403 118.285 16.3103 118.195 16.1303C118.055 16.0803 117.915 16.0303 117.775 15.9503C117.715 15.9103 117.635 15.8903 117.565 15.8603C117.445 15.8103 117.325 15.7703 117.215 15.7103C116.935 15.5703 116.745 15.3903 116.615 15.2603C116.565 15.2403 116.505 15.2303 116.445 15.2103C116.335 15.1803 116.225 15.1403 116.115 15.1103C115.835 15.0103 115.625 14.8503 115.475 14.7103C115.395 14.7103 115.325 14.7103 115.245 14.7103C114.975 14.8203 114.615 14.9403 114.195 14.8403C114.005 14.8003 113.825 14.7303 113.645 14.6503C113.605 14.6303 113.575 14.6203 113.535 14.6003C113.335 14.5603 113.155 14.4803 113.015 14.3903C112.795 14.4703 112.535 14.5203 112.235 14.4803C111.885 14.4303 111.625 14.2703 111.465 14.1803C111.465 14.1803 111.465 14.1803 111.455 14.1803C111.345 14.1603 111.245 14.1403 111.135 14.1103C111.085 14.1003 111.035 14.0903 110.975 14.0703C110.725 14.1203 110.465 14.1703 110.165 14.1303C109.815 14.0803 109.545 13.9303 109.385 13.8403C109.385 13.8403 109.375 13.8403 109.365 13.8403L108.775 13.7703C108.695 13.7703 108.605 13.7603 108.525 13.7503C108.375 13.7503 108.225 13.7403 108.065 13.7203C107.885 13.7003 107.725 13.6503 107.595 13.6103C107.345 13.7503 107.025 13.8703 106.635 13.8203C106.205 13.7703 105.895 13.5503 105.725 13.4303C105.585 13.3903 105.465 13.3403 105.365 13.2903C105.165 13.3803 104.905 13.4403 104.675 13.4503C104.425 13.5203 104.155 13.5903 103.825 13.5503C103.335 13.5003 102.995 13.2203 102.795 13.0003C102.685 13.0003 102.565 13.0003 102.455 12.9803C102.255 12.9603 102.065 12.9203 101.865 12.8603C101.825 12.8503 101.775 12.8303 101.735 12.8203C101.595 12.8203 101.435 12.7803 101.275 12.7503C101.205 12.7403 101.125 12.7203 101.055 12.7103L101.005 12.7303C100.945 12.7403 100.885 12.7503 100.805 12.7603C100.575 12.9703 100.175 13.2803 99.5953 13.2503C99.3053 13.2303 99.0653 13.1403 98.9053 13.0903C98.8553 13.0703 98.8053 13.0803 98.7553 13.0903C98.5653 13.1103 98.3653 13.1303 98.1853 13.1203C98.0353 13.1203 97.8753 13.0903 97.7253 13.0703C97.6453 13.0603 97.5653 13.0403 97.4853 13.0403C97.3753 13.0403 97.2753 13.0403 97.1653 13.0403C97.0353 13.0403 96.9053 13.0403 96.7753 13.0403C96.3253 13.0203 96.0053 12.8003 95.7853 12.6003C95.6653 12.6203 95.5253 12.6303 95.3753 12.6203C95.2353 12.6203 95.0953 12.6003 94.9553 12.5903C94.8653 12.5903 94.7653 12.5703 94.6753 12.5703C94.5253 12.5703 94.3953 12.5403 94.2753 12.5203C94.0253 12.7303 93.7053 12.9103 93.2453 12.9103C93.2453 12.9103 93.2053 12.9203 93.1653 12.9303C93.0053 12.9603 92.7953 13.0003 92.5353 13.0003C92.4653 13.0003 92.4053 13.0003 92.3353 13.0003C92.1853 13.0303 92.0353 13.0503 91.8853 13.0503C91.5453 13.0603 91.2553 12.9503 91.0353 12.7903C90.8553 12.8703 90.6853 12.9403 90.4253 12.9203C90.2253 12.9203 90.0253 12.8903 89.8353 12.8503C89.7953 12.8503 89.7453 12.8303 89.7053 12.8303C89.4153 12.8303 89.1353 12.7403 88.8953 12.6603C88.8253 12.6403 88.7653 12.6203 88.7053 12.6003C88.0453 12.5603 87.5453 12.0003 87.5653 11.3403C87.5853 10.6803 88.1253 10.1503 88.7853 10.1503C88.8453 10.1503 88.9153 10.1203 88.9753 10.1103C89.2253 10.0503 89.5053 9.99026 89.8053 10.0003C90.0553 10.0203 90.2653 10.0903 90.4353 10.1803C90.6353 10.0703 90.8953 10.0103 91.1453 10.0003C91.6553 10.0003 92.0153 10.2803 92.2453 10.5203C92.2453 10.5203 92.2553 10.5203 92.2653 10.5203C92.4453 10.4003 92.6553 10.2803 92.9153 10.2103C93.1153 10.0803 93.3353 9.95026 93.6253 9.88026C93.9653 9.80026 94.2653 9.85026 94.4553 9.88026C94.6453 9.84026 94.8253 9.84027 94.9753 9.86027C94.9953 9.84027 95.0153 9.82026 95.0353 9.80026C95.1153 9.53026 95.2553 9.21026 95.5553 8.95026C95.8453 8.70026 96.1653 8.62026 96.4353 8.60026C96.4153 8.35026 96.4353 8.08026 96.5753 7.81026C96.6353 7.68026 96.7153 7.57026 96.7953 7.48026C96.7453 7.31026 96.7153 7.12027 96.7353 6.91026C96.7453 6.76026 96.7853 6.63026 96.8153 6.51026C96.7453 6.40026 96.6753 6.28026 96.6253 6.14026C96.5453 5.91026 96.5253 5.69026 96.5253 5.51026C96.4453 5.44026 96.3553 5.37026 96.2853 5.30026C96.2153 5.23026 96.1553 5.16027 96.1053 5.09027C95.8553 5.12027 95.5653 5.10026 95.2753 4.96026C95.1153 4.88026 94.9653 4.78027 94.8253 4.68027C94.7953 4.66027 94.7653 4.64026 94.7353 4.62026C94.6653 4.60026 94.5453 4.58026 94.4153 4.55026L94.1953 4.50027C94.0453 4.46027 93.9053 4.42027 93.7753 4.36027C93.7153 4.34027 93.6453 4.31026 93.5753 4.30026C93.4153 4.27026 93.2553 4.23027 93.1053 4.18027C93.0453 4.16027 92.9853 4.14026 92.9253 4.13026C92.5653 4.09026 92.2853 3.93026 92.1153 3.82027C92.0853 3.82027 92.0453 3.82027 92.0153 3.82027C91.8553 3.82027 91.7053 3.83027 91.5553 3.82027C91.3253 3.81027 91.1353 3.75027 90.9753 3.68027C90.7453 3.82027 90.4553 3.93027 90.1053 3.91027C89.6753 3.89027 89.3453 3.69026 89.1553 3.57027C89.1153 3.57027 89.0753 3.56026 89.0353 3.55026C88.7953 3.76026 88.4253 4.01026 87.9253 3.98026C87.5753 3.97026 87.2853 3.84027 87.1153 3.77027C87.0953 3.77027 87.0853 3.76027 87.0853 3.75027C86.9053 3.73027 86.7553 3.68027 86.6153 3.61027C86.3953 3.75027 86.1053 3.87027 85.7553 3.86027C85.3753 3.85027 85.0853 3.69027 84.8753 3.52027C84.7153 3.57027 84.5353 3.61026 84.3253 3.60026C84.1953 3.60026 84.0653 3.59026 83.9253 3.58026L83.5953 3.56026C83.5153 3.56026 83.4253 3.56027 83.3453 3.57027C83.1853 3.57027 83.0253 3.59026 82.8653 3.58026C82.7853 3.58026 82.6853 3.58026 82.5953 3.58026C82.4453 3.58026 82.3053 3.59026 82.1453 3.58026C82.0653 3.58026 81.9653 3.58026 81.8653 3.58026C81.7153 3.58026 81.5653 3.59026 81.4153 3.58026L81.3753 3.60026C81.2153 3.64026 80.9953 3.69026 80.6953 3.69026C80.3153 3.69026 80.0153 3.54027 79.8353 3.45027C79.7253 3.45027 79.6053 3.43027 79.4953 3.41027C79.4153 3.40027 79.3453 3.39026 79.2653 3.39026C79.1653 3.39026 79.0653 3.39026 78.9753 3.39026C78.8353 3.39026 78.6853 3.39026 78.5453 3.39026C78.1653 3.39026 77.8653 3.24027 77.6853 3.16027C77.6853 3.16027 77.6853 3.16027 77.6753 3.16027C77.5853 3.16027 77.5053 3.14026 77.4153 3.13026C77.1553 3.34026 76.7953 3.53026 76.3753 3.53026C75.9853 3.53026 75.6753 3.37027 75.4753 3.23026C75.3753 3.25026 75.2553 3.27026 75.1153 3.28026C74.8753 3.39026 74.5853 3.51026 74.2253 3.51026H74.2053C73.8253 3.51026 73.5353 3.36026 73.3253 3.24026C73.2253 3.26026 73.1153 3.28026 72.9953 3.30026C72.7553 3.44026 72.4153 3.61027 72.0353 3.59027C71.5853 3.59027 71.2553 3.37027 71.0253 3.16027C70.8953 3.19027 70.7253 3.21026 70.5953 3.21026C70.4053 3.21026 70.2153 3.18026 70.0353 3.14026C69.8453 3.24026 69.6253 3.34026 69.3553 3.38026C69.1053 3.50026 68.8153 3.63026 68.4353 3.63026C67.9453 3.63026 67.5953 3.39026 67.3853 3.21026H66.9953C66.8453 3.21026 66.7053 3.19027 66.5553 3.18027C66.4853 3.18027 66.4153 3.18026 66.3453 3.17026C66.1353 3.24026 65.9253 3.30027 65.6953 3.32027C65.4553 3.42026 65.1753 3.53026 64.8253 3.53026C64.5553 3.53026 64.3353 3.48026 64.1753 3.44026C64.1353 3.44026 64.0953 3.42027 64.0553 3.41027C63.8353 3.42027 63.6153 3.35027 63.4453 3.27027C63.2353 3.40027 62.9753 3.50027 62.6553 3.50027C62.3953 3.50027 62.1653 3.43026 61.9753 3.33026C61.7753 3.46026 61.5153 3.56026 61.2053 3.56026C61.0853 3.56026 60.9153 3.56027 60.7653 3.54027C60.6753 3.54027 60.5953 3.53026 60.4753 3.53026C60.2253 3.53026 59.9253 3.45027 59.7453 3.36027C59.5453 3.45027 59.3153 3.52026 59.0353 3.53026C58.8853 3.53026 58.6953 3.51026 58.5253 3.49026C58.4553 3.49026 58.3853 3.47026 58.3153 3.47026H58.2953C58.1153 3.47026 57.9353 3.45026 57.7553 3.42026C57.6953 3.42026 57.6453 3.40026 57.5653 3.40026C57.2753 3.40026 57.0353 3.33027 56.8653 3.27027C56.6453 3.35027 56.4153 3.42026 56.1253 3.42026C55.6253 3.40026 55.3153 3.21027 55.1053 3.07027C55.0553 3.07027 55.0053 3.07027 54.9653 3.07027C54.9453 3.07027 54.9253 3.07027 54.9153 3.07027C54.7053 3.21027 54.4353 3.35026 54.0953 3.38026C53.8553 3.48026 53.5753 3.59027 53.2353 3.59027C52.6853 3.59027 52.3153 3.30027 52.1053 3.11027C52.0453 3.11027 51.9953 3.09027 51.9353 3.09027C51.8853 3.09027 51.8353 3.07027 51.7753 3.07027H50.7253C50.6453 3.09027 50.5553 3.09027 50.4753 3.09027C50.2353 3.20027 49.9553 3.32027 49.6053 3.32027C49.5253 3.32027 49.4553 3.33027 49.3753 3.34027C49.2153 3.36027 49.0453 3.38026 48.8853 3.38026C48.7453 3.38026 48.6153 3.38026 48.4753 3.38026C48.3753 3.38026 48.2753 3.38026 48.1653 3.38026C48.0153 3.38026 47.8653 3.37026 47.7453 3.35026C47.4953 3.57026 47.1653 3.77026 46.7153 3.78026C46.5653 3.78026 46.4153 3.78027 46.2653 3.77027C46.1753 3.77027 46.0853 3.76026 45.9853 3.76026H45.9653C45.5453 3.76026 45.2353 3.60027 45.0453 3.50027C44.7753 3.47027 44.5653 3.37027 44.4053 3.29027C44.2453 3.33027 44.0553 3.38026 43.8153 3.38026C43.7853 3.38026 43.7353 3.40027 43.6953 3.41027C43.4953 3.45027 43.2953 3.49026 43.0953 3.49026C42.8653 3.49026 42.6453 3.45027 42.4853 3.41027C42.2653 3.53027 41.9953 3.64026 41.6553 3.65026C41.4753 3.65026 41.3353 3.65026 41.1853 3.63026C41.1053 3.63026 41.0153 3.63026 40.9353 3.62026C40.5653 3.62026 40.2453 3.49027 40.0653 3.41027C40.0053 3.41027 39.9353 3.41026 39.8753 3.42026C39.8653 3.42026 39.8453 3.42026 39.8353 3.42026C39.5753 3.66026 39.2353 3.91027 38.7453 3.93027C38.4153 3.94027 38.1353 3.84026 37.9253 3.74026C37.7453 3.82026 37.5553 3.89027 37.3153 3.91027C36.9053 3.95027 36.5853 3.83026 36.3953 3.76026C36.2253 3.76026 36.0853 3.76026 35.9653 3.76026C35.9253 3.76026 35.8753 3.76026 35.8353 3.76026C35.7953 3.77026 35.6953 3.81027 35.6053 3.84027C35.4853 3.88027 35.3653 3.92026 35.2453 3.96026C35.2053 3.98026 35.1553 4.01026 35.1053 4.03026C34.9553 4.11026 34.7953 4.19026 34.6453 4.24026C34.5553 4.27026 34.4653 4.33026 34.3753 4.37026C34.3053 4.41026 34.2353 4.44026 34.1653 4.48026C33.9953 4.66026 33.8353 4.82026 33.6053 4.96026C33.3853 5.10026 33.1653 5.16026 32.9853 5.19026C32.8953 5.35026 32.7853 5.51026 32.6353 5.67026C32.3753 5.92026 32.0753 6.03027 31.8453 6.09027C31.8453 6.09027 31.8453 6.10027 31.8453 6.11027C31.7953 6.21027 31.7353 6.31027 31.6853 6.41026C31.6753 6.45026 31.6553 6.51026 31.6453 6.57026C31.6053 6.71026 31.5653 6.84026 31.5153 6.97026C31.4353 7.18026 31.3153 7.35026 31.2253 7.48026C31.2553 7.64026 31.2853 7.84026 31.2653 8.07026C31.2453 8.26026 31.2653 8.45026 31.2653 8.63026C31.2653 8.60026 31.2853 8.63027 31.2953 8.68027C31.3353 8.77027 31.3653 8.87026 31.3953 8.96026C31.5353 9.12026 31.6653 9.30026 31.7653 9.55026C31.8953 9.87026 31.8853 10.1803 31.8353 10.4303C32.0853 10.5003 32.3653 10.6103 32.6153 10.8503L32.7753 11.0103C32.8553 11.0903 32.9353 11.1803 33.0353 11.2503C33.0253 11.2403 33.0553 11.2503 33.0953 11.2603C33.2653 11.3303 33.4353 11.4103 33.5853 11.5103C33.7653 11.6203 33.9353 11.7203 34.1153 11.8203C34.2753 11.9103 34.4253 12.0203 34.5653 12.1303C34.5953 12.1603 34.6353 12.1903 34.6653 12.2103C35.0253 12.3803 35.2353 12.6703 35.3653 12.9203C35.4753 12.9403 35.6053 12.9703 35.7353 13.0103C35.7953 13.0303 35.8553 13.0303 35.9153 13.0403C36.0853 13.0703 36.2453 13.0903 36.4053 13.1403C36.5453 13.1803 36.6653 13.2303 36.7753 13.2803C36.9653 13.2803 37.1253 13.2903 37.2853 13.3103C37.3353 13.3103 37.3753 13.3203 37.4153 13.3203C37.7253 13.3003 38.0353 13.3603 38.2353 13.4103C38.3253 13.4103 38.4153 13.4303 38.4953 13.4403C39.0853 13.5403 39.5253 14.0503 39.5253 14.6503C39.5253 15.2503 39.0953 15.7603 38.4953 15.8603C38.2853 15.8903 38.1053 15.8803 37.9353 15.8603C37.9253 15.8603 37.9153 15.8603 37.9053 15.8603C37.7253 15.8603 37.5353 15.8503 37.3653 15.8203C37.2653 15.8403 37.1553 15.8503 37.0353 15.8603C36.7953 16.0503 36.4853 16.2303 36.0753 16.2403C35.9353 16.2403 35.7853 16.2403 35.6353 16.2403C35.5353 16.2403 35.4353 16.2303 35.3253 16.2403C35.2753 16.2403 35.2253 16.2603 35.1753 16.2603C34.9853 16.2903 34.7953 16.3203 34.5953 16.3203C34.2053 16.3203 33.9153 16.1903 33.7353 16.1203C33.7353 16.1203 33.7153 16.1203 33.7153 16.1103C33.5553 16.1003 33.4153 16.0703 33.2953 16.0403C32.9653 16.2403 32.4553 16.3403 31.9253 16.2903C31.8453 16.2903 31.7653 16.2603 31.6653 16.2703C31.5853 16.2703 31.5153 16.2803 31.4453 16.2903C31.2753 16.3103 31.1253 16.3203 30.9353 16.3203C30.8053 16.3203 30.6653 16.3203 30.5253 16.3103C30.2453 16.3003 29.9553 16.2903 29.6753 16.2503C29.6053 16.2503 29.5453 16.2303 29.4753 16.2303C29.2153 16.2303 28.9953 16.1603 28.8153 16.0703C28.6053 16.2003 28.3353 16.3203 28.0053 16.3103C27.5953 16.3103 27.2853 16.1503 27.1053 16.0503C26.9653 16.0403 26.8253 16.0103 26.6853 15.9803C26.6353 15.9803 26.5853 15.9603 26.5353 15.9503C26.2153 15.9503 25.9553 15.8503 25.7753 15.7803C25.6453 15.8103 25.4553 15.8603 25.2353 15.8803C24.9853 15.9903 24.6853 16.1003 24.3353 16.1003C24.0153 16.1003 23.7653 16.0003 23.5753 15.9003C23.3753 15.9803 23.1253 16.0403 22.8853 16.0403C22.4653 16.0403 22.1453 15.8603 21.9553 15.7503C21.8553 15.7503 21.7453 15.7303 21.6453 15.7103C21.6253 15.7103 21.5953 15.7103 21.5753 15.7003C21.3353 15.8103 21.1053 15.9103 20.7153 15.9103C20.5553 15.9103 20.3953 15.8903 20.2253 15.8703C20.1753 15.8703 20.1253 15.8603 20.0753 15.8503C19.8653 15.9203 19.6553 15.9903 19.4053 16.0103C19.1553 16.1103 18.8453 16.2203 18.5253 16.2103C18.4653 16.2103 18.4153 16.2203 18.3553 16.2303C18.1653 16.2603 17.9653 16.2703 17.8053 16.2703C17.2353 16.2603 16.8553 15.9203 16.6353 15.6703C16.3853 15.8503 16.0753 16.0303 15.6253 16.0303C15.4553 16.0303 15.2853 16.0103 15.1153 15.9803C15.0453 15.9803 14.9753 15.9603 14.9053 15.9603C14.5653 15.9603 14.2853 15.8303 14.0753 15.7103C13.8953 15.7803 13.6853 15.8303 13.4453 15.8203C13.2253 15.8203 13.0353 15.7703 12.8853 15.7103C12.6553 15.8703 12.3553 16.0003 11.9953 15.9903C11.9453 15.9903 11.8453 16.0003 11.7653 16.0103C11.5953 16.0303 11.4353 16.0403 11.2653 16.0403C10.9853 16.0403 10.7453 15.9803 10.5953 15.9403L10.4853 15.9203H9.92528C9.68528 16.0003 9.44528 16.0903 9.14528 16.1003C9.03528 16.1003 8.92528 16.1203 8.81528 16.1303C8.70528 16.1403 8.59528 16.1603 8.48528 16.1703C8.25528 16.1903 8.04528 16.2103 7.81528 16.2403C7.37528 16.3003 7.00529 16.1503 6.79529 16.0503C6.67529 16.0503 6.60529 16.0503 6.52529 16.0303C6.35529 16.2003 6.14528 16.3703 5.86528 16.4703C5.85528 16.4803 5.81529 16.5103 5.77529 16.5303C5.62529 16.6303 5.47528 16.7203 5.31528 16.7903C5.11528 16.8803 4.91529 16.9103 4.74529 16.9203C4.64529 17.0903 4.50528 17.2603 4.31528 17.4003C4.17528 17.5003 4.02529 17.5703 3.88529 17.6103C3.84529 17.8003 3.76529 18.0003 3.62529 18.2003C3.53529 18.3203 3.43529 18.4303 3.32529 18.5303C3.29529 18.5603 3.26529 18.5803 3.24529 18.6103C3.18529 18.7303 3.07529 18.8703 2.96529 19.0103L2.89528 19.0903C2.86528 19.1903 2.81528 19.2903 2.75528 19.3703C2.85528 19.5803 2.92529 19.8303 2.90529 20.1203C2.87529 20.5603 2.65529 20.8803 2.51529 21.0703C2.49529 21.1703 2.47528 21.2603 2.45528 21.3403C2.51528 21.4303 2.56528 21.5203 2.61528 21.6203C2.81528 21.7903 3.03529 22.0103 3.16529 22.3603C3.25529 22.6103 3.28529 22.8303 3.29529 22.9803C3.35529 23.1003 3.42528 23.2003 3.50528 23.3103C3.65528 23.5103 3.73528 23.7103 3.78528 23.8803C3.88528 23.9203 3.99528 23.9703 4.09528 24.0403C4.30528 24.1003 4.50529 24.1603 4.71529 24.2803C4.82529 24.3403 4.93528 24.4103 5.03528 24.4803C5.08528 24.5103 5.13529 24.5503 5.18529 24.5803C5.41529 24.6803 5.58529 24.8103 5.71529 24.9103C5.91529 24.9103 6.10529 24.9103 6.32529 24.9603C6.35529 24.9603 6.40528 24.9603 6.45528 24.9603C6.62528 24.9603 6.78528 24.9803 6.95528 25.0103C7.06528 25.0303 7.17529 25.0503 7.29529 25.0803C7.38529 25.1003 7.48528 25.1203 7.58528 25.1403C7.74528 25.1603 7.88528 25.2003 8.00528 25.2403C8.24528 25.0903 8.53529 24.9703 8.90529 24.9903C9.26529 25.0103 9.54528 25.1603 9.75528 25.3303C10.0653 25.2203 10.4953 25.2403 10.7953 25.3603C11.0053 25.2103 11.2653 25.0903 11.5953 25.0803C12.1053 25.0703 12.4153 25.2803 12.6253 25.4003C12.8253 25.4303 12.9953 25.4903 13.1253 25.5503C13.2853 25.5003 13.5053 25.4303 13.7753 25.4303C13.9453 25.4303 14.1253 25.4403 14.3053 25.4603C14.5053 25.3403 14.7453 25.2203 15.0453 25.1803C15.2853 25.0703 15.5653 24.9403 15.9253 24.9303C16.3153 24.9303 16.6053 25.0503 16.7853 25.1203C16.7853 25.1203 16.7953 25.1203 16.8053 25.1203C16.9553 25.1203 17.1053 25.1503 17.2653 25.1803C17.2853 25.1803 17.3053 25.1803 17.3153 25.1903C17.5553 25.1003 17.7953 25.0203 18.0953 25.0103L18.8153 24.9803C19.2853 24.9803 19.6153 25.1703 19.8153 25.2903C19.9353 25.3003 20.0553 25.3203 20.1453 25.3403C20.3753 25.2203 20.6453 25.1103 20.9853 25.1003C21.3153 25.1003 21.5753 25.1803 21.7653 25.2603C21.8553 25.2303 21.9753 25.1903 22.1153 25.1703C22.3653 24.9803 22.6953 24.7703 23.1553 24.7603C23.4553 24.7603 23.6953 24.8403 23.9053 24.9603C24.0953 24.8503 24.3253 24.7603 24.6053 24.7603C25.1053 24.7703 25.4853 25.0003 25.6953 25.1703C25.8553 25.2003 25.9853 25.2503 26.0953 25.2903C26.3053 25.2203 26.5253 25.1503 26.7853 25.1503C26.9253 25.1503 27.0653 25.1503 27.2053 25.1503C27.3053 25.1503 27.4053 25.1503 27.5153 25.1503C27.6453 25.1503 27.7953 25.1503 27.9353 25.1503C28.0353 25.1503 28.1353 25.1503 28.2453 25.1503V25.1303C28.3953 25.0803 28.6053 25.0203 28.8653 25.0003C29.1153 24.9103 29.3653 24.8203 29.6853 24.8203C29.8453 24.8203 30.0653 24.8403 30.2553 24.8703C30.3053 24.8703 30.3553 24.8903 30.4153 24.8903C30.5953 24.8903 30.7653 24.9203 30.9053 24.9603C31.1253 24.7603 31.4353 24.5903 31.8553 24.5803C32.0953 24.5803 32.3153 24.6203 32.4653 24.6503C32.5053 24.6503 32.5553 24.6703 32.5953 24.6703C33.0453 24.6703 33.4053 24.8803 33.6053 25.0203C33.7053 25.0403 33.7953 25.0603 33.8753 25.0803C34.1053 24.9303 34.3853 24.8103 34.7353 24.8003C34.9053 24.7303 35.1553 24.6503 35.4553 24.6403C35.7953 24.6403 36.0753 24.7403 36.2553 24.8103H36.2753C36.3453 24.8103 36.4053 24.8103 36.4753 24.8003C36.6153 24.8003 36.7553 24.7803 36.8953 24.7803H37.6153C37.7853 24.7003 38.0353 24.6203 38.3353 24.6203C38.5153 24.6303 38.6953 24.6403 38.8753 24.6603C38.9053 24.6603 38.9253 24.6603 38.9553 24.6703C39.1853 24.5703 39.4553 24.4703 39.7853 24.4703C39.9653 24.4703 40.1353 24.4903 40.3153 24.5103C40.3853 24.5103 40.4553 24.5203 40.5153 24.5303C40.9053 24.5303 41.2353 24.6803 41.4253 24.7703C41.5553 24.7803 41.6753 24.8103 41.7753 24.8403C42.0053 24.6803 42.3053 24.5403 42.6753 24.5403C43.0453 24.5403 43.3453 24.6703 43.5253 24.7503C43.5553 24.7503 43.5853 24.7503 43.6253 24.7403C43.7453 24.7303 43.8753 24.7103 43.9953 24.7103C44.2453 24.6103 44.5053 24.5203 44.8353 24.5103C45.3453 24.5103 45.7153 24.7803 45.9353 24.9703C45.9453 24.9703 45.9553 24.9703 45.9653 24.9703H46.0653C46.3053 24.8303 46.6053 24.6803 46.9953 24.6803C47.0353 24.6803 47.0853 24.6603 47.1353 24.6603C47.3253 24.6203 47.5253 24.5903 47.7153 24.5903C47.9153 24.5903 48.1053 24.6203 48.3053 24.6603H48.3253C48.5553 24.5603 48.8253 24.4603 49.1553 24.4603C49.4253 24.4603 49.6453 24.5203 49.8153 24.5703C50.0353 24.4803 50.2953 24.4103 50.5953 24.3903C50.9853 24.3903 51.2853 24.5303 51.4653 24.6203C51.4653 24.6203 51.4753 24.6203 51.4853 24.6203C51.8253 24.6603 52.0953 24.8203 52.2853 24.9603C52.3053 24.9603 52.3253 24.9603 52.3453 24.9503C52.6053 24.7203 52.9653 24.4503 53.4853 24.4503C53.8553 24.4103 54.1053 24.5603 54.2853 24.6303C54.3053 24.6303 54.3153 24.6403 54.3153 24.6403C54.5253 24.6503 54.6953 24.6903 54.8353 24.7203C54.8753 24.7203 54.9153 24.7403 54.9553 24.7503C55.1253 24.7503 55.2753 24.7803 55.4153 24.8203C55.6453 24.6403 55.9153 24.4603 56.3653 24.4703C56.5153 24.4703 56.6553 24.4703 56.8053 24.4903C56.8953 24.4903 56.9953 24.5003 57.0853 24.5003C57.1353 24.5003 57.1953 24.4903 57.2453 24.4803C57.4353 24.4503 57.6153 24.4403 57.8053 24.4303C58.2053 24.4303 58.5153 24.5803 58.7053 24.6703C58.8153 24.6703 58.9253 24.6903 59.0353 24.7003C59.3153 24.7403 59.5853 24.7403 59.8053 24.8303C60.0253 24.6603 60.3153 24.5203 60.6953 24.5203C60.8653 24.5203 61.0053 24.5303 61.1553 24.5503C61.2453 24.5503 61.3353 24.5703 61.4253 24.5703C61.4453 24.5703 61.4853 24.5603 61.5253 24.5503C61.6753 24.5203 61.8853 24.4703 62.1353 24.4703C62.2353 24.4703 62.4153 24.4703 62.5553 24.4803C62.6653 24.4803 62.7653 24.4803 62.8753 24.4903C63.3353 24.4903 63.6653 24.7103 63.8953 24.9003C64.0153 24.8803 64.1453 24.8603 64.3253 24.8603C64.4553 24.8603 64.5953 24.8603 64.7253 24.8703C64.8353 24.8703 64.9353 24.8703 65.0453 24.8803L65.0853 24.8603C65.2453 24.8203 65.4853 24.7403 65.7753 24.7603C66.1053 24.7603 66.3653 24.8603 66.5353 24.9203C66.5553 24.9203 66.5653 24.9203 66.5753 24.9303C66.6253 24.9303 66.6753 24.9303 66.7253 24.9203C66.8853 24.9003 67.0253 24.8903 67.2153 24.8903C67.4853 24.8903 67.7153 24.9603 67.8853 25.0403C68.0953 24.9303 68.3053 24.8503 68.6653 24.8503C68.8353 24.8503 68.9853 24.8803 69.1253 24.9203C69.3553 24.7303 69.6753 24.5203 70.1153 24.5503C70.5553 24.5503 70.8953 24.7503 71.0753 24.8703C71.1553 24.8803 71.2253 24.9003 71.2953 24.9103C71.5453 24.7203 71.8653 24.5403 72.2853 24.5503C72.6753 24.5503 72.9753 24.7003 73.1553 24.7903C73.1553 24.7903 73.1653 24.7903 73.1753 24.7903C73.4353 24.8203 73.6553 24.9203 73.8153 25.0203C74.0053 24.9603 74.2253 24.9203 74.4453 24.9103C74.6153 24.8403 74.8653 24.7703 75.1753 24.7703C75.3053 24.7703 75.4353 24.7703 75.5753 24.7903C75.6853 24.7903 75.7853 24.8003 75.8953 24.8003C76.0653 24.8003 76.2353 24.8203 76.4053 24.8503C76.4753 24.8503 76.5453 24.8703 76.6153 24.8703C77.0053 24.8703 77.3153 25.0403 77.5253 25.1803C77.6953 25.1403 77.8653 25.1203 78.0653 25.1103C78.2153 25.1103 78.3753 25.1303 78.5353 25.1503C78.6153 25.1503 78.7053 25.1703 78.7853 25.1703C78.8353 25.1703 78.8853 25.1603 78.9353 25.1503C79.0653 25.1303 79.1853 25.1103 79.3153 25.1103C79.5653 24.9903 79.8453 24.8803 80.2353 24.8803C80.6953 24.8803 81.0353 25.1103 81.2353 25.2503C81.2653 25.2503 81.3053 25.2503 81.3353 25.2703C81.5953 25.0503 81.9653 24.8503 82.3953 24.8503C82.4853 24.8503 82.5753 24.8503 82.6653 24.8503C82.8153 24.8503 82.9753 24.8303 83.1253 24.8403C83.2753 24.8403 83.4153 24.8503 83.5553 24.8703C83.6553 24.8703 83.7453 24.8903 83.8453 24.8903C84.2053 24.8903 84.4853 25.0303 84.6853 25.1703C84.8653 25.1103 85.0553 25.0703 85.2853 25.0703C85.7153 25.0803 86.0353 25.2603 86.2253 25.3703C86.3053 25.3803 86.3853 25.4003 86.4553 25.4203C86.7053 25.2203 87.0453 25.0403 87.4553 25.0603C87.5653 25.0603 87.6653 25.0603 87.7753 25.0603C87.9053 25.0603 88.0453 25.0603 88.1753 25.0603H88.5053C88.6453 25.0603 88.7653 25.0603 88.9053 25.0603C89.0653 25.0603 89.2353 25.0803 89.3953 25.1003C89.4753 25.1103 89.5453 25.1203 89.6253 25.1203C89.9053 25.1203 90.1353 25.2103 90.3153 25.2903C90.5253 25.2003 90.7653 25.1203 91.0653 25.1303C91.0953 25.1303 91.1353 25.1203 91.1853 25.1103C91.3853 25.0703 91.5853 25.0503 91.7953 25.0503C91.9653 25.0503 92.1453 25.0803 92.3153 25.1103C92.3853 25.1203 92.4453 25.1403 92.5153 25.1403C92.6053 25.1403 92.6953 25.1403 92.7953 25.1403C92.9453 25.1403 93.0953 25.1303 93.2453 25.1403C93.7353 25.1503 94.0753 25.4003 94.2853 25.5803C94.5453 25.3503 94.9353 25.1103 95.4053 25.1303C95.7653 25.1403 96.0453 25.2603 96.2153 25.3403C96.2353 25.3403 96.2453 25.3503 96.2453 25.3603C96.5553 25.4003 96.8053 25.5203 96.9753 25.6203C97.0453 25.6103 97.1353 25.5903 97.2253 25.5803C97.4853 25.4003 97.8153 25.2103 98.2853 25.2203C98.7853 25.2403 99.1253 25.4903 99.3253 25.6503C99.3753 25.6603 99.4153 25.6703 99.4553 25.6903C99.6853 25.5103 100.025 25.3403 100.445 25.3503C100.575 25.3503 100.705 25.3603 100.835 25.3703C100.945 25.3703 101.055 25.3803 101.165 25.3903C101.345 25.3903 101.525 25.4203 101.695 25.4603C101.755 25.4703 101.815 25.4903 101.885 25.4903L102.605 25.5203C102.775 25.5203 102.935 25.5503 103.105 25.5703C103.175 25.5803 103.255 25.6003 103.325 25.6003L103.355 25.5803C103.515 25.5403 103.755 25.4903 104.045 25.4903C104.435 25.5003 104.725 25.6503 104.905 25.7403C104.995 25.7403 105.085 25.7503 105.175 25.7603C105.275 25.7603 105.375 25.7803 105.475 25.7803C105.675 25.7803 105.865 25.8203 106.065 25.8703C106.115 25.8803 106.155 25.8903 106.205 25.9003C106.465 25.9003 106.685 25.9803 106.855 26.0603C107.075 25.9603 107.345 25.8703 107.645 25.8903C107.695 25.8903 107.745 25.8803 107.805 25.8703C107.995 25.8503 108.185 25.8203 108.375 25.8303C108.525 25.8303 108.665 25.8503 108.815 25.8603C108.875 25.8603 108.925 25.8703 108.985 25.8803C109.215 25.8003 109.475 25.7103 109.795 25.7303C109.845 25.7303 109.895 25.7203 109.945 25.7103C110.125 25.6903 110.295 25.6703 110.475 25.6803C110.915 25.6903 111.235 25.8903 111.425 26.0103L111.505 26.0603ZM94.0153 25.6103H94.0453C94.0453 25.6103 94.0253 25.6103 94.0153 25.6103ZM2.79529 21.9103C2.79529 21.9103 2.79529 21.9203 2.79529 21.9303C2.79529 21.9303 2.79529 21.9203 2.79529 21.9103ZM120.835 21.4803C120.835 21.4803 120.835 21.4903 120.835 21.5003C120.835 21.5003 120.835 21.4903 120.835 21.4803ZM114.955 14.6503C114.955 14.6503 114.955 14.6503 114.965 14.6503C114.965 14.6503 114.965 14.6503 114.955 14.6503ZM67.7353 3.29027C67.7353 3.29027 67.7653 3.29027 67.7753 3.29027H67.7353Z" fill="black"/>
</svg>
