<svg width="36" height="34" viewBox="0 0 36 34" fill="none" xmlns="http://www.w3.org/2000/svg">
<path d="M11.9953 2.43973C12.2153 2.34973 12.5953 2.64973 12.8253 2.56973C13.0553 2.48973 13.2553 2.34973 13.4953 2.27973C13.7353 2.20973 13.9553 2.12973 14.1853 2.06973C14.4153 2.00973 14.6453 1.88973 14.8753 1.83973C15.1053 1.78973 15.4053 2.08973 15.6453 2.04973C15.8853 2.00973 16.1053 1.96973 16.3553 1.93973C16.6053 1.90973 16.7953 1.41973 17.0353 1.40973C17.2753 1.39973 17.5353 1.82973 17.7753 1.82973C18.0153 1.82973 18.2653 1.21973 18.5053 1.21973C18.7453 1.21973 18.9853 1.47973 19.2253 1.49973C19.4653 1.51973 19.7353 1.32973 19.9753 1.35973C20.2153 1.38973 20.4153 1.76973 20.6553 1.80973C20.8953 1.84973 21.0953 2.07973 21.3253 2.12973C21.5553 2.17973 21.8753 1.89973 22.1053 1.94973C22.3353 1.99973 22.5753 2.09973 22.8053 2.16973C23.0353 2.23973 23.3053 2.20973 23.5353 2.28973C23.7653 2.36973 23.9953 2.46973 24.2253 2.55973C24.4553 2.64973 24.5653 3.00973 24.7853 3.10973C25.0053 3.20973 25.2253 3.30973 25.4353 3.41973C25.6453 3.52973 26.0353 3.34973 26.2453 3.46973C26.4553 3.58973 26.4853 4.01973 26.6853 4.14973C26.8853 4.27973 27.2753 4.10973 27.4653 4.24973C27.6553 4.38973 27.6353 4.80973 27.8253 4.94973C28.0153 5.08973 28.1953 5.22973 28.3753 5.37973C28.5553 5.52973 28.6353 5.77973 28.8053 5.93973C28.9753 6.09973 29.1453 6.24973 29.3053 6.41973C29.4653 6.58973 29.7753 6.60973 29.9353 6.77973C30.0953 6.94973 30.0553 7.28973 30.2053 7.46973C30.3553 7.64973 30.6553 7.69973 30.7953 7.88973C30.9353 8.07973 30.8853 8.39973 31.0153 8.58973C31.1453 8.77973 31.6953 8.68973 31.8253 8.88973C31.9553 9.08973 32.1353 9.25973 32.2553 9.45973C32.3753 9.65973 32.1753 10.0497 32.2853 10.2497C32.3953 10.4497 32.4953 10.6597 32.5953 10.8697C32.6953 11.0797 33.1653 11.1297 33.2553 11.3397C33.3453 11.5497 32.9453 11.9697 33.0253 12.1897C33.1053 12.4097 33.6253 12.4697 33.7053 12.6897C33.7853 12.9097 33.3753 13.2797 33.4453 13.5097C33.5153 13.7497 33.9953 13.8697 34.0553 14.1097C34.1153 14.3497 33.8353 14.6697 33.8853 14.9097C33.9353 15.1497 34.1753 15.3597 34.2153 15.5997C34.2553 15.8397 33.9953 16.1197 34.0153 16.3697C34.0353 16.6197 34.0553 16.8497 34.0753 17.0997C34.0953 17.3497 34.1453 17.5797 34.1453 17.8297C34.1453 18.0797 34.3553 18.3297 34.3453 18.5697C34.3353 18.8097 34.4553 19.0797 34.4253 19.3297C34.3953 19.5797 34.3553 19.8297 34.3153 20.0697C34.2753 20.3097 34.1053 20.5397 34.0553 20.7797C34.0053 21.0197 34.1453 21.3297 34.0753 21.5597C34.0053 21.7997 33.3653 21.8397 33.2853 22.0697C33.2053 22.2997 33.4053 22.6397 33.3053 22.8697C33.2053 23.0997 32.9753 23.2497 32.8553 23.4697C32.7353 23.6897 32.7753 23.9897 32.6453 24.1997C32.5153 24.4097 32.2953 24.5597 32.1553 24.7697C32.0153 24.9797 31.9853 25.2597 31.8353 25.4497C31.6853 25.6397 31.6353 25.9297 31.4753 26.1197C31.3153 26.3097 30.9153 26.2897 30.7453 26.4697C30.5753 26.6497 30.5953 27.0097 30.4153 27.1897C30.2353 27.3697 30.0653 27.5497 29.8853 27.7197C29.7053 27.8897 29.3453 27.8497 29.1553 28.0097C28.9653 28.1697 28.6853 28.1997 28.4853 28.3497C28.2853 28.4997 28.0753 28.5997 27.8653 28.7397C27.6553 28.8797 27.5853 29.1997 27.3753 29.3297C27.1653 29.4597 26.8753 29.4397 26.6553 29.5597C26.4353 29.6797 26.3753 30.0697 26.1553 30.1797C25.9353 30.2897 25.5953 30.1397 25.3753 30.2397C25.1553 30.3397 24.9453 30.4597 24.7253 30.5497C24.5053 30.6397 24.4553 31.2097 24.2353 31.2897C24.0153 31.3697 23.7253 31.3497 23.4953 31.4297C23.2653 31.5097 22.9653 31.3797 22.7253 31.4497C22.4853 31.5197 22.2553 31.5697 22.0153 31.6297C21.7753 31.6897 21.5253 31.6397 21.2853 31.6897C21.0453 31.7397 20.8153 31.8397 20.5753 31.8797C20.3353 31.9197 20.0753 31.7797 19.8353 31.8097C19.5953 31.8397 19.3853 32.1697 19.1453 32.1897C18.9053 32.2097 18.6553 32.1897 18.4153 32.1997C18.1753 32.2097 17.9253 32.0797 17.6853 32.0797C17.4453 32.0797 17.1953 32.3997 16.9453 32.3897C16.6953 32.3797 16.4753 32.0397 16.2253 32.0197C15.9753 31.9997 15.7053 32.3097 15.4653 32.2797C15.2253 32.2497 14.9953 32.0497 14.7553 32.0097C14.5153 31.9697 14.2853 31.8497 14.0453 31.7997C13.8053 31.7497 13.5853 31.6197 13.3553 31.5597C13.1253 31.4997 12.8553 31.5397 12.6253 31.4697C12.3953 31.3997 12.1853 31.2697 11.9553 31.1797C11.7253 31.0897 11.5353 30.9297 11.3053 30.8397C11.0753 30.7497 10.9253 30.5097 10.7053 30.4097C10.4853 30.3097 10.1853 30.3897 9.96527 30.2697C9.74527 30.1497 9.50527 30.1097 9.29527 29.9797C9.08527 29.8497 8.88527 29.7197 8.68527 29.5797C8.48527 29.4497 8.21527 29.4097 8.02527 29.2797C7.83527 29.1497 7.62527 29.0097 7.43527 28.8597C7.24527 28.7097 7.02527 28.5897 6.84527 28.4297C6.66527 28.2697 6.68526 27.8997 6.51526 27.7297C6.34526 27.5597 6.05527 27.5097 5.89527 27.3297C5.73527 27.1497 5.42527 27.0897 5.27527 26.9097C5.12527 26.7297 5.14527 26.3997 5.00527 26.1997C4.86527 25.9997 4.50527 25.9497 4.37527 25.7497C4.24527 25.5497 4.55527 25.0697 4.43527 24.8697C4.31527 24.6697 4.00527 24.5597 3.89527 24.3497C3.78527 24.1397 3.49527 23.9997 3.39527 23.7897C3.29527 23.5797 3.56527 23.1997 3.48527 22.9797C3.40527 22.7597 3.38527 22.5197 3.30527 22.2897C3.22527 22.0597 2.68527 21.9797 2.62527 21.7397C2.56527 21.4997 2.42527 21.2797 2.37527 21.0497C2.32527 20.8197 2.44526 20.5397 2.40526 20.2997C2.36526 20.0597 2.54527 19.7897 2.52527 19.5597C2.50527 19.3297 2.67527 19.0697 2.66527 18.8297C2.65527 18.5897 2.32526 18.3697 2.31526 18.1297C2.30526 17.8897 2.29527 17.6497 2.29527 17.4097C2.29527 17.1697 2.02527 16.9097 2.04527 16.6697C2.06527 16.4297 2.27527 16.1997 2.30527 15.9597C2.33527 15.7197 2.60527 15.5197 2.64527 15.2797C2.68527 15.0397 2.38526 14.7497 2.42526 14.5097C2.46526 14.2697 2.79527 14.0997 2.84527 13.8597C2.89527 13.6197 2.93527 13.3897 3.00527 13.1597C3.07527 12.9297 3.34527 12.7697 3.41527 12.5397C3.48527 12.3097 3.57527 12.0997 3.66527 11.8797C3.75527 11.6597 3.33526 11.2297 3.42526 11.0097C3.51526 10.7897 4.05526 10.7597 4.15526 10.5497C4.25526 10.3397 4.17527 10.0197 4.28526 9.80973C4.39526 9.59973 4.73526 9.51973 4.85526 9.30973C4.97526 9.09973 4.93526 8.79973 5.06526 8.59973C5.19526 8.39973 5.24527 8.13973 5.38527 7.94973C5.52527 7.75973 5.47527 7.40973 5.62527 7.21973C5.77527 7.02973 6.13527 7.00973 6.29527 6.82973C6.45527 6.64973 6.74526 6.58973 6.90526 6.41973C7.06526 6.24973 7.22527 6.06973 7.39527 5.90973C7.56527 5.74973 7.49526 5.30973 7.67526 5.14973C7.85526 4.98973 8.35527 5.20973 8.54527 5.05973C8.73527 4.90973 8.90527 4.75973 9.09527 4.61973C9.28527 4.47973 9.40526 4.23973 9.60526 4.10973C9.80526 3.97973 9.93527 3.73973 10.1453 3.61973C10.3553 3.49973 10.5253 3.31973 10.7453 3.20973C10.9653 3.09973 11.3653 3.39973 11.5853 3.29973C11.8053 3.19973 11.7653 2.52973 11.9953 2.43973Z" fill="#FFE600"/>
<path d="M16.9753 33.6C16.9753 33.6 16.9453 33.6 16.9253 33.6C16.6053 33.59 16.3453 33.48 16.1453 33.36C15.9253 33.45 15.6553 33.52 15.3453 33.48C15.0053 33.44 14.7453 33.31 14.5653 33.22C14.5253 33.2 14.5153 33.19 14.5153 33.19C14.3353 33.16 14.1653 33.1 13.9953 33.04C13.9353 33.02 13.8853 33 13.8253 32.99C13.6253 32.95 13.4253 32.88 13.2353 32.8C13.1853 32.78 13.1353 32.75 13.0853 32.74C13.0653 32.74 13.0253 32.74 12.9853 32.74C12.8153 32.74 12.5753 32.72 12.3053 32.64C12.1153 32.58 11.9353 32.5 11.7653 32.42C11.7053 32.39 11.6453 32.36 11.5853 32.34C11.3453 32.26 11.1553 32.14 11.0153 32.06C10.9753 32.03 10.9253 32 10.8853 31.98C10.5953 31.86 10.3953 31.7 10.2553 31.57C10.0053 31.55 9.73527 31.51 9.44527 31.36C9.39527 31.33 9.33527 31.31 9.27527 31.29C9.08527 31.22 8.89527 31.14 8.71527 31.04C8.53527 30.93 8.35527 30.82 8.18527 30.7L7.98527 30.59C7.82527 30.53 7.57526 30.44 7.33527 30.27L7.14527 30.13C6.99527 30.03 6.84527 29.92 6.70527 29.81C6.65527 29.77 6.58527 29.73 6.52527 29.69C6.36527 29.58 6.20526 29.47 6.06526 29.34C5.78526 29.09 5.65527 28.8 5.58527 28.58C5.42527 28.49 5.25527 28.39 5.10527 28.24C4.86527 28.11 4.58527 27.96 4.35527 27.68C4.16527 27.44 4.06527 27.19 4.01527 26.99C3.79527 26.87 3.55527 26.7 3.37527 26.42C3.12527 26.04 3.12527 25.65 3.16527 25.35C3.06527 25.26 2.97527 25.15 2.89527 25.02C2.68527 24.84 2.45527 24.62 2.30527 24.28C2.09527 23.8 2.19527 23.36 2.26527 23.09C2.26527 23.06 2.24526 23.03 2.24526 22.99C1.93526 22.81 1.59527 22.53 1.46527 22.05C1.45527 22 1.42526 21.95 1.40526 21.89C1.32526 21.7 1.24527 21.5 1.20527 21.3C1.12527 20.95 1.17527 20.66 1.20527 20.47C1.20527 20.43 1.20527 20.42 1.21527 20.42C1.17527 20.06 1.26526 19.75 1.31526 19.57V19.55C1.31526 19.34 1.34527 19.16 1.38527 19.01C1.24527 18.79 1.11527 18.51 1.10527 18.16V17.95C1.09527 17.83 1.08526 17.71 1.08526 17.59C0.955265 17.33 0.805265 17 0.835265 16.59C0.855265 16.22 1.00527 15.93 1.09527 15.75C1.10527 15.73 1.11527 15.72 1.11527 15.71C1.15527 15.48 1.23527 15.3 1.32527 15.15C1.23527 14.9 1.17527 14.61 1.23527 14.27C1.31527 13.85 1.55527 13.56 1.70527 13.39V13.34C1.75527 13.17 1.78527 12.99 1.83527 12.82C1.94527 12.44 2.16527 12.18 2.30527 12.03C2.32527 11.96 2.35527 11.9 2.37527 11.83C2.23527 11.53 2.08527 11.05 2.30527 10.52C2.47527 10.12 2.77527 9.9 3.03527 9.77C3.06527 9.6 3.11527 9.42 3.21527 9.23C3.37527 8.92 3.61527 8.73 3.79527 8.61C3.83527 8.4 3.90527 8.17 4.05527 7.94C4.06527 7.92 4.07527 7.88 4.09527 7.84C4.14527 7.72 4.20527 7.56 4.30527 7.39C4.35527 7.11 4.43527 6.78 4.67527 6.47C4.95527 6.12 5.30527 5.97 5.51527 5.89C5.71527 5.71 5.92527 5.6 6.05527 5.53C6.07527 5.53 6.08527 5.52 6.08527 5.51H6.09527C6.18527 5.41 6.26527 5.31 6.35527 5.22C6.41527 4.91 6.53527 4.53 6.87527 4.23C7.28527 3.87 7.76527 3.85 8.07527 3.86C8.17527 3.78 8.27527 3.7 8.38527 3.62L8.41527 3.58C8.52527 3.45 8.69527 3.25 8.95527 3.08L8.98527 3.04C9.10527 2.91 9.28527 2.72 9.54527 2.56C9.59527 2.53 9.64527 2.49 9.69527 2.45C9.85527 2.33 10.0153 2.21 10.1953 2.12C10.4153 2 10.6353 1.96 10.8353 1.95C10.9753 1.69 11.1853 1.44 11.5553 1.29C12.0053 1.1 12.4153 1.19 12.6953 1.29C12.8453 1.22 12.9953 1.15 13.1553 1.1L13.3753 1.03C13.5553 0.969999 13.7253 0.919999 13.9053 0.869999C13.9653 0.849999 14.0253 0.829998 14.0853 0.809998C14.2753 0.739998 14.4553 0.679999 14.6553 0.639999C15.1153 0.549999 15.4953 0.689999 15.7253 0.799999C15.7753 0.799999 15.8153 0.779999 15.8653 0.779999C16.1053 0.519999 16.4553 0.219999 16.9753 0.189999C17.2253 0.169999 17.4553 0.229998 17.6453 0.309998C17.8753 0.139998 18.1653 0 18.5553 0C18.8953 0 19.1753 0.13 19.3653 0.23C19.5953 0.17 19.8453 0.109998 20.1353 0.149998C20.6453 0.209998 20.9753 0.5 21.1553 0.68C21.2853 0.72 21.3953 0.779998 21.4853 0.829998C21.7453 0.739998 22.0653 0.68 22.4253 0.77C22.5953 0.81 22.7653 0.87 22.9353 0.93L23.1753 1.01C23.1753 1.01 23.2353 1.01 23.2753 1.01C23.4553 1.03 23.6953 1.05 23.9553 1.14C24.1553 1.21 24.3553 1.29 24.5553 1.37L24.6953 1.43C25.1053 1.6 25.3553 1.9 25.4853 2.09C25.5853 2.13 25.6853 2.18 25.7753 2.23C26.0853 2.2 26.4753 2.19 26.8653 2.42C27.1353 2.58 27.3153 2.79 27.4353 2.98C27.6753 3 27.9353 3.07 28.1953 3.25C28.5853 3.52 28.7353 3.9 28.8153 4.15C28.9453 4.25 29.0653 4.34 29.1853 4.45C29.4153 4.65 29.5553 4.87 29.6553 5.01C29.8053 5.17 29.9553 5.31 30.0953 5.46C30.3353 5.56 30.6153 5.69 30.8553 5.96C31.0753 6.2 31.1853 6.47 31.2353 6.68C31.4153 6.79 31.6053 6.93 31.7753 7.14C31.8953 7.3 31.9753 7.46 32.0253 7.61C32.3253 7.7 32.6353 7.87 32.8553 8.22C32.8853 8.27 32.9253 8.31 32.9653 8.36C33.0953 8.51 33.2153 8.67 33.3153 8.84C33.5553 9.25 33.5353 9.67 33.5053 9.93C33.5253 9.97 33.5453 10.01 33.5653 10.05C33.8553 10.2 34.2053 10.42 34.3953 10.86C34.5253 11.16 34.5353 11.45 34.4853 11.7C34.6453 11.85 34.7953 12.04 34.8853 12.3C34.9953 12.63 34.9653 12.92 34.9053 13.17C35.0653 13.34 35.1953 13.55 35.2653 13.83C35.3553 14.21 35.2853 14.54 35.2053 14.78C35.3053 14.97 35.4053 15.18 35.4353 15.43C35.5053 15.88 35.3553 16.24 35.2653 16.45C35.2853 16.65 35.2953 16.84 35.3053 17.04C35.3053 17.11 35.3253 17.18 35.3353 17.25C35.3553 17.4 35.3753 17.55 35.3853 17.7C35.4853 17.96 35.6053 18.26 35.5853 18.64L35.6053 18.69C35.6453 18.87 35.6953 19.14 35.6653 19.46C35.6353 19.73 35.5953 20.01 35.5453 20.28C35.4953 20.57 35.3953 20.79 35.3153 20.96C35.3153 20.96 35.3153 20.98 35.3053 20.99C35.3453 21.26 35.3753 21.58 35.2753 21.93C35.1453 22.36 34.8553 22.62 34.5853 22.78C34.5853 22.97 34.5453 23.17 34.4553 23.39C34.3253 23.68 34.1353 23.89 34.0153 24.03H34.0053C33.9553 24.3 33.9053 24.57 33.7353 24.85C33.5953 25.09 33.4253 25.26 33.2953 25.39C33.2653 25.42 33.2253 25.45 33.2053 25.49V25.53C33.1453 25.7 33.0453 25.96 32.8553 26.21C32.8553 26.21 32.8553 26.25 32.8353 26.28C32.7553 26.45 32.6553 26.69 32.4653 26.92C32.2353 27.19 31.9653 27.33 31.7353 27.42C31.6553 27.64 31.5353 27.87 31.3253 28.08L31.1553 28.26C31.0253 28.39 30.8953 28.53 30.7553 28.65C30.4253 28.95 30.0553 29.03 29.8353 29.08C29.6353 29.21 29.4353 29.29 29.3053 29.34L29.2153 29.38C29.1353 29.45 28.9853 29.54 28.8353 29.63C28.8053 29.65 28.7753 29.67 28.7353 29.69C28.5953 29.92 28.4053 30.19 28.0953 30.38C27.8653 30.53 27.6353 30.59 27.4653 30.63C27.3253 30.86 27.1253 31.11 26.7953 31.28C26.4053 31.48 26.0253 31.47 25.7853 31.45L25.7453 31.47L25.6253 31.53C25.4953 31.82 25.2553 32.26 24.7253 32.46C24.4653 32.56 24.2253 32.59 24.0553 32.61C24.0153 32.61 23.9653 32.61 23.9253 32.63C23.5753 32.75 23.2453 32.71 23.0453 32.69H23.0253C22.8553 32.74 22.6853 32.78 22.5153 32.82L22.3853 32.85C22.1253 32.91 21.8953 32.92 21.7353 32.92C21.6853 32.92 21.6453 32.92 21.5953 32.92C21.5353 32.93 21.4653 32.96 21.3953 32.98C21.2153 33.03 21.0353 33.09 20.8553 33.12C20.5853 33.16 20.3553 33.14 20.1753 33.11C19.9553 33.26 19.6853 33.41 19.3253 33.44C19.1453 33.46 18.9653 33.46 18.7853 33.45C18.7053 33.45 18.6153 33.45 18.5353 33.45C18.2853 33.46 18.0653 33.42 17.9053 33.38C17.6753 33.51 17.3853 33.64 17.0253 33.64L16.9753 33.6ZM16.2253 30.78C16.2253 30.78 16.2953 30.78 16.3353 30.78C16.6053 30.8 16.8353 30.89 17.0153 30.99C17.2053 30.9 17.4353 30.83 17.6953 30.83C18.0053 30.83 18.1953 30.88 18.3553 30.93L18.4653 30.95C18.4653 30.95 18.6453 30.95 18.7753 30.95C18.8053 30.95 18.8253 30.95 18.8553 30.95C19.0753 30.79 19.3453 30.62 19.7153 30.57C20.0353 30.53 20.3053 30.58 20.4753 30.62C20.4753 30.62 20.4853 30.62 20.4953 30.62C20.5453 30.61 20.5853 30.59 20.6353 30.58C20.7753 30.54 20.9153 30.5 21.0653 30.47C21.2553 30.43 21.4453 30.42 21.6453 30.42C21.6953 30.42 21.7353 30.42 21.7853 30.42L21.8953 30.39C22.0753 30.35 22.2553 30.3 22.4253 30.25C22.7753 30.15 23.0853 30.19 23.2653 30.2H23.2853C23.3553 30.18 23.4353 30.17 23.4953 30.16C23.6353 29.89 23.8553 29.57 24.2753 29.4C24.3853 29.35 24.4953 29.3 24.6053 29.24L24.8853 29.1C25.1253 28.99 25.3653 28.95 25.5553 28.95C25.6853 28.77 25.8453 28.6 26.0853 28.46C26.3053 28.33 26.5253 28.27 26.6853 28.24C26.8053 28.05 26.9653 27.85 27.2053 27.69C27.3153 27.61 27.4253 27.55 27.5453 27.48C27.6253 27.43 27.7053 27.39 27.7853 27.33C28.0153 27.15 28.2553 27.06 28.4053 27.01L28.4753 26.98C28.7553 26.77 29.0453 26.7 29.2353 26.65C29.2853 26.6 29.3253 26.55 29.3753 26.5L29.4453 26.43C29.5253 26.17 29.6253 25.88 29.8753 25.61C30.1153 25.35 30.3953 25.22 30.6253 25.15C30.6853 25.02 30.7653 24.85 30.8853 24.69V24.66C30.9353 24.5 31.0153 24.29 31.1653 24.06C31.2753 23.9 31.4053 23.76 31.5353 23.62C31.5453 23.62 31.5553 23.6 31.5653 23.59C31.6053 23.36 31.6553 23.13 31.7753 22.88C31.8653 22.7 31.9753 22.56 32.0653 22.45C32.0353 22.21 32.0253 21.92 32.1453 21.61C32.2953 21.22 32.5653 20.98 32.8253 20.83C32.8253 20.71 32.8353 20.59 32.8653 20.45C32.9053 20.26 32.9853 20.07 33.0753 19.89C33.0953 19.85 33.1153 19.81 33.1253 19.77C33.1553 19.59 33.1853 19.36 33.2153 19.14H33.1953C33.1653 19 33.1353 18.82 33.1253 18.62C33.0253 18.38 32.9253 18.11 32.9253 17.78C32.9253 17.7 32.9153 17.62 32.8953 17.54C32.8753 17.4 32.8553 17.26 32.8553 17.11C32.8453 16.88 32.8253 16.67 32.8053 16.44C32.7753 16.13 32.8453 15.87 32.9153 15.67C32.8253 15.5 32.7353 15.32 32.6953 15.1C32.6453 14.87 32.6653 14.66 32.6953 14.47C32.5253 14.3 32.3653 14.09 32.2853 13.81C32.2153 13.56 32.2153 13.32 32.2553 13.11C32.1153 12.97 31.9853 12.8 31.8953 12.58C31.7853 12.29 31.7853 12.02 31.8353 11.79C31.7153 11.68 31.5953 11.53 31.5053 11.35C31.4053 11.15 31.3153 10.96 31.2153 10.77C31.0353 10.43 31.0253 10.1 31.0453 9.85C30.7053 9.78 30.3053 9.63 30.0253 9.24C29.8653 9.01 29.7953 8.78 29.7453 8.6C29.5853 8.5 29.4253 8.38 29.2753 8.2C29.0953 7.99 29.0053 7.76 28.9453 7.58C28.7753 7.5 28.6053 7.39 28.4453 7.23C28.2953 7.08 28.1453 6.94 27.9853 6.79C27.7853 6.61 27.6653 6.41 27.5753 6.28C27.4853 6.18 27.3753 6.09 27.2553 6.01L27.0753 5.87C26.8753 5.72 26.7453 5.54 26.6553 5.36C26.4553 5.33 26.2353 5.27 26.0253 5.13C25.8053 4.99 25.6453 4.8 25.5353 4.63C25.3253 4.63 25.1053 4.58 24.8753 4.46C24.6853 4.36 24.4853 4.27 24.2853 4.18C23.9053 4.01 23.6953 3.74 23.5553 3.56C23.4153 3.5 23.2753 3.45 23.1353 3.4C23.1353 3.4 23.0953 3.4 23.0453 3.4C22.8953 3.39 22.6853 3.37 22.4553 3.3C22.3553 3.27 22.2453 3.23 22.1453 3.2L22.0653 3.17C21.7953 3.27 21.4653 3.36 21.0853 3.28C20.7453 3.21 20.4953 3.05 20.3453 2.96C20.3353 2.96 20.3253 2.95 20.3253 2.94C20.0653 2.87 19.8653 2.75 19.7053 2.62C19.5353 2.66 19.3453 2.69 19.1353 2.67C18.9953 2.67 18.8653 2.63 18.7553 2.6C18.5253 2.8 18.2153 2.99 17.7953 3C17.5653 3 17.3253 2.94 17.1453 2.86C16.9653 2.98 16.7453 3.08 16.4853 3.11C16.3553 3.12 16.2253 3.15 16.1053 3.17L15.8353 3.21C15.4453 3.27 15.1253 3.17 14.8953 3.07C14.7553 3.12 14.6253 3.17 14.4853 3.2C14.3653 3.23 14.2453 3.27 14.1253 3.31L13.8553 3.4C13.7953 3.42 13.7453 3.45 13.6853 3.48C13.5353 3.55 13.3953 3.62 13.2453 3.68C13.0753 3.74 12.9053 3.76 12.7553 3.76C12.6253 3.99 12.4353 4.21 12.1253 4.36C11.7253 4.55 11.3453 4.51 11.0653 4.44C10.9753 4.51 10.8853 4.57 10.7853 4.63V4.66C10.6653 4.78 10.5153 4.94 10.2953 5.09V5.12C10.1853 5.24 10.0453 5.41 9.83527 5.57C9.72527 5.65 9.62527 5.73 9.52527 5.82L9.33527 5.98C9.08527 6.18 8.82527 6.26 8.59527 6.29C8.52527 6.45 8.42527 6.6 8.27527 6.75C8.14527 6.88 8.02527 7.01 7.89527 7.14L7.81526 7.22C7.59526 7.46 7.34527 7.59 7.18527 7.67C7.16527 7.67 7.15526 7.68 7.15526 7.69C6.99527 7.85 6.82527 7.95 6.67527 8.03C6.62527 8.23 6.54526 8.43 6.40526 8.63C6.40526 8.64 6.38527 8.68 6.37527 8.72C6.32527 8.85 6.26527 8.99 6.19527 9.11C6.15527 9.35 6.10527 9.62 5.93527 9.9C5.78527 10.15 5.60527 10.31 5.44527 10.43C5.42527 10.62 5.38527 10.83 5.27527 11.05C5.17527 11.26 5.04527 11.42 4.89527 11.54C4.93527 11.76 4.92527 12.02 4.82527 12.29L4.73527 12.53C4.68527 12.65 4.63527 12.78 4.59527 12.91C4.48527 13.24 4.28527 13.48 4.16527 13.62C4.14527 13.69 4.13527 13.75 4.12527 13.82L4.05527 14.12C3.99527 14.36 3.89527 14.54 3.79527 14.69C3.86527 14.9 3.90527 15.15 3.86527 15.43C3.80527 15.82 3.61526 16.11 3.49526 16.28C3.46526 16.42 3.41527 16.55 3.36527 16.65C3.45527 16.86 3.53527 17.11 3.53527 17.4C3.53527 17.53 3.53527 17.67 3.53527 17.8C3.69527 18.02 3.86527 18.32 3.88527 18.7C3.91527 19.06 3.81527 19.35 3.76527 19.52C3.76527 19.52 3.76527 19.52 3.76527 19.53C3.76527 19.82 3.69526 20.07 3.65526 20.22C3.67526 20.46 3.64527 20.66 3.61527 20.8V20.81C3.62527 20.84 3.64526 20.87 3.65526 20.9C3.65526 20.92 3.66527 20.93 3.67527 20.95C3.98527 21.13 4.33526 21.38 4.49526 21.86C4.54526 22.01 4.57527 22.16 4.60527 22.31C4.61527 22.37 4.62527 22.43 4.64527 22.49C4.76527 22.81 4.75527 23.11 4.71527 23.34C4.78527 23.41 4.84526 23.49 4.90526 23.58C5.11526 23.73 5.34527 23.91 5.51527 24.21C5.69527 24.53 5.72527 24.84 5.69527 25.11C5.80527 25.2 5.91527 25.3 6.00527 25.43C6.16527 25.65 6.24527 25.88 6.29527 26.06C6.44527 26.14 6.58526 26.24 6.72526 26.37C6.94526 26.48 7.17527 26.6 7.38527 26.81C7.64527 27.07 7.76527 27.37 7.82527 27.58C7.82527 27.58 7.84527 27.59 7.85527 27.6C7.97527 27.68 8.09527 27.76 8.20527 27.85C8.30527 27.93 8.40527 28 8.50527 28.07L8.73527 28.24H8.77527C8.92527 28.29 9.13527 28.37 9.35527 28.51L9.50527 28.61C9.64527 28.7 9.77527 28.79 9.91527 28.87C9.96527 28.9 10.0253 28.91 10.0753 28.93C10.1853 28.97 10.2953 29.01 10.3953 29.06C10.6453 29.08 10.9153 29.1 11.2153 29.24C11.4853 29.36 11.6753 29.53 11.8053 29.64C11.8353 29.66 11.8453 29.67 11.8453 29.67C11.9853 29.73 12.1153 29.81 12.2453 29.88C12.2853 29.91 12.3353 29.94 12.3753 29.96C12.5153 30.01 12.6553 30.07 12.7953 30.14C12.8553 30.17 12.9153 30.2 12.9853 30.22C12.9853 30.22 13.0253 30.22 13.0653 30.22C13.2153 30.22 13.4253 30.24 13.6653 30.29C13.8353 30.33 13.9953 30.39 14.1553 30.46C14.2053 30.48 14.2553 30.5 14.3053 30.52C14.4653 30.55 14.6253 30.6 14.7853 30.66C14.8453 30.68 14.8953 30.7 14.9553 30.72C15.1653 30.75 15.3453 30.82 15.4853 30.89C15.6853 30.8 15.9253 30.72 16.2053 30.72L16.2253 30.78ZM29.5653 26.3C29.5653 26.3 29.5553 26.31 29.5453 26.32L29.5653 26.3ZM3.81526 21.42C3.81526 21.42 3.81526 21.42 3.81526 21.43C3.81526 21.43 3.81526 21.43 3.81526 21.42ZM3.62527 20.11C3.62527 20.11 3.62527 20.11 3.62527 20.12C3.62527 20.12 3.62527 20.12 3.62527 20.11ZM1.31526 19.71C1.31526 19.71 1.31526 19.71 1.31526 19.72C1.31526 19.72 1.31526 19.72 1.31526 19.71Z" fill="black"/>
</svg>
