<svg fill="none" height="79" viewBox="0 0 91 79" width="91" xmlns="http://www.w3.org/2000/svg"><path d="m18.0802 31.87c-.19-.15-.52-.12-.72-.27s-.48-.19-.67-.33-.14-.62-.34-.77-.4899-.16-.6899-.31-.3-.42-.49-.57-.43-.25-.62-.4-.6101 0-.8101-.15-.43-.25-.62-.4-.35-.35-.55-.5-.43-.24-.63-.39-.4-.28-.6-.43.0101-.83-.1799-.98-.45-.22-.65-.36-.73009.16-.93009.01-.0799-.71-.2699-.86-.68.09-.88-.06-.29012-.43-.49012-.57-.51996-.13-.70996-.28c-.17-.13-.04999-.69-.23999-.82s-.53999.02-.73999-.09-.34004-.33-.54004-.41-.49996.12-.70996.07c-.22-.05-.37997-.33-.59997-.33s-.41.14-.62.21-.26007.27-.45007.42-.64001.04-.76001.24-.10994.49-.18994.71.14997.52.09997.75-.62003.36-.66003.59.12009.5.09009.73.15.48.13.72.04993.46.04993.7-.28991.47-.27991.7.33999.45.35999.68.03995.46.07995.69-.23995.51-.19995.74-.08003.5-.03003.73.64996.32.70996.55.07002.46.14002.68-.06999.52.01001.74.01999.5.11999.72.53001.27.63001.48.18005.42.30005.63-.18005.65-.05005.85.76001.06.89001.26.02992.55.16992.73.37003.44.53003.61c-.24 0-.63997-.18-.84997-.11s-.32.42-.5.56-.64004.04-.79004.22.18008.68.08008.88-.29999.35-.35999.57-.00002.45-.02002.68.01992.42.03992.65-.23992.5-.16992.71-.07998.56.02002.77.40991.34.53991.54.43007.27.57007.45.15995.48.31995.65.41996.24.58996.4.21003.48.40003.62.69-.13.88 0 .26008.43.45008.57.35993.3.55993.43.35004.32.54004.45.52998.05.72998.17.41.21.62.33.14997.69.34997.8.64998-.24.85998-.14.3701.3.5801.39.4499.09.6799.17.29.61.52.68c.2.06.5101-.28.7701-.24.22.03.41.37.65.39.22.02.4599.03.7099.04.23 0 .47 0 .71.01s.4601-.19.7001-.2.49.42.73.4.4799-.09.7099-.12.4601-.21.6901-.24.5.09.73.05.44-.29.66-.34c.24-.06.41-.31.63-.37.24-.07.38-.31.58-.4.24-.1.49-.04.66-.16" fill="#fff"/><path d="m17.9701 32.01c-.19-.15-.29-.42-.49-.57s-.6199 0-.8199-.14-.3601-.34-.5601-.49-.4799-.18-.6699-.33-.2701-.45-.4701-.6-.4999-.16-.6899-.31-.17-.58-.37-.73-.5901-.03-.7901-.18-.3899-.29-.5899-.44-.41-.27-.61-.42-.04-.76-.24-.91-.6001-.02-.7901-.17-.2799-.45-.4699-.6-.3-.42-.50002-.57c-.2-.15-.63008.02-.83008-.12s-.13996-.63-.33996-.77-.52998-.12-.71998-.27-.53998-.1-.72998-.25c-.17-.13-.16998-.52-.35998-.65s-.34004-.33-.54004-.43-.55.08-.75 0-.36007-.33-.57007-.39c-.22-.05-.45993.07-.67993.06s-.52999-.32-.73999-.25-.41998.3-.59998.45c-.19.15-.01.6-.13.8s-.28999.34-.35999.56-.21001.42-.26001.65-.25004.43-.29004.66-.19998.45-.22998.69.24998.5.22998.73-.31995.46-.32995.7.12989.48.13989.71.23.46.25.69-.07993.48-.04993.71.19999.44.23999.67-.23004.53-.17004.75.60004.33.66004.56-.14996.53-.07996.75.35994.36.43994.58.05002.48.15002.69.21995.41.31995.62.16003.44.28003.64.40003.3.53003.5.19996.41.32996.61.14002.47.28002.66.36001.49.51001.67c-.24 0-.66-.17-.88-.09s-.39996.3-.57996.44-.44008.24-.59008.42-.43993.32-.54993.53.17999.59.11999.82-.06007.44-.08007.67-.10997.45-.08997.68.36004.36.42004.58-.37002.63-.27002.84.49.27.62.46.20999.41.35999.59.23001.42.39001.59.40997.24.58997.4.51007.1.70007.25-.00007.76.17993.9.74004-.21.92004-.08c.19.14.31.38.5.51s.45003.17.65003.3.37995.27.57995.39.09004.75.29004.87.39998.28.59998.39.48995.1.69994.2c.21.1.4.29.61.38s.55-.08.77 0 .51-.07.73 0c.2.06.3401.52.5901.56.22.03.4699.01.7099.03.22.02.46.22.7.23.23 0 .4801-.17.7201-.17s.4699-.1.7099-.11.47-.1.7-.11.5001.29.7301.26.4299-.44.6599-.48.4801.03.7101 0 .5.03.72-.02c.24-.06.42-.3.64-.36.24-.07.4-.28.6-.37.24-.1.5299 0 .7099-.13" stroke="#000" stroke-linecap="round" stroke-linejoin="round" stroke-width="2.6"/><path d="m70.04 26.05c-.11.34-.27.22-.4.63-.06.2.17.53.09.79-.07.22-.14.46-.22.69s-.06.5-.13.72c-.08.25-.47.39-.53.59-.16.47.02.82.05.65.02-.09-.46-.44-.35-.83.05-.19.4401-.33.5101-.61.07-.23.1699-.45.2299-.68s-.18-.53-.13-.76.52-.39.56-.62.25-.45.28-.69-.03-.5 0-.73.14-.48.15-.72-.1099-.49-.1-.73c.01-.24-.28-.48-.28-.72s-.04-.47-.05-.71.17-.49.15-.72-.1401-.47-.17-.7c-.03-.23.06-.49.03-.73s-.09-.47-.13-.71-.4801-.39-.5301-.62.3501-.56.2901-.79-.3699-.4-.4299-.63.0199-.5-.0501-.73-.4-.37-.47-.6.3501-.62.2701-.85-.4701-.34-.5601-.56.19-.59.1-.81-.6-.27-.69-.49-.2401-.41-.3401-.63-.1899-.42-.2999-.63.02-.55-.1-.76-.07-.53-.2-.73-.53-.22-.67-.41-.35-.33-.5-.51-.42-.25999-.57-.43999-.08-.58001-.24-.74001-.3799-.3-.5499-.46-.4301-.23-.6101-.39-.49-.13-.68-.28-.19-.52999-.38-.66999-.5099-.09-.7099-.22001c-.2-.13-.3301-.35-.5401-.48s-.46-.15-.66-.27c-.2-.11999-.29-.45999-.5-.56999s-.32-.44001-.53-.55001-.46-.15-.68-.25-.4801-.09999-.7001-.18999-.5799.17999-.7999.08999-.3699-.37999-.5899-.44999-.4801-.07-.7001-.14-.42-.24001-.65-.31001-.44-.18-.67-.24-.44-.2-.67-.25-.4499-.2-.6799-.25-.5301.20001-.7601.15001-.48.01-.72-.03-.42-.34001-.66-.38001-.4901.08001-.7301.05001-.4799.01999-.7199-.01001-.49.11001-.73.09001-.4401-.38-.6701-.4-.4499-.34001-.6799-.36001-.49.45001-.73.44001-.46-.11001-.7-.12001-.47 0-.71 0-.47-.09999-.71-.08999-.48-.14001-.71-.13001-.48-.10999-.72-.08999-.48.02999-.71.04999-.43.51001-.67.53001-.46.12999-.69.15999-.51-.29999-.75-.26999-.43.32999-.67.36999-.51-.20999-.74-.16999-.4601.14-.6901.18-.3998.43999-.6298.48999-.5501-.33-.7801-.28-.42.29-.65.35-.4699.08001-.6999.13001-.4401.20999-.6601.26999-.54-.16999-.77-.09999-.33.55999-.55.62999-.56-.19-.78-.11-.33.49-.55.57-.5801-.2-.8001-.11-.3099.49-.5299.58-.49.06001-.7.16001-.5601-.07-.7701.03-.2599.53-.4699.64-.4.24-.61.36-.3501.32-.5501.44-.5999-.08001-.7999.04999-.2.55001-.39.69001-.57.02999-.76.16999-.39.28-.57.43c-.18.15001-.26.43001-.43.59001s-.4.26999-.57.43999-.53.16001-.7.33001.0001.63999-.1599.81999-.2401.41-.3901.6-.54.18-.68.38-.0499.54-.1799.74-.3101.36-.4401.56-.52.25-.64.46-.2.44-.31.65-.12.48-.22.69-.01.51-.11.73-.45.33-.54.55-.1.48-.18.7-.4.37-.48.6.15.55.08.78-.18.45-.24.68.2.54.15.77-.6.35-.65.59.11.51.07.75-.11.46-.15.7.21.51.18.75-.63.4-.66.63.1701.5.1401.74.0799.49.0599.73-.2.46-.22.7.45.5.44.74-.1499.47-.1599.71-.3901.46-.3901.7.06.48.06.72.18.48.18.72.24.47.25.71-.41.48-.4.72.15.47.15.71v.72c0 .24-.04.48-.02.72s.1601.47.1701.71-.3201.5-.3001.74-.02.49 0 .73.02.48.04.72.35.45.37.69-.23.51-.2.75.02.49.05.72.73.38.77.61-.48.57-.44.8.33.43.37.66.1799.45.2299.69-.31.56-.25.79.6101.35.6701.58.05.48.11.71-.31.58-.24.81.41.38.48.61.29.41.36.64.18.44.26.67-.3.62-.21.84.33.39.42.62.1.48.19.7.28.41.37.63.39.35.49.57.3699.35.4699.57.1302.47.2402.68-.1901.65-.0801.86.4699.29.5899.5-.0099.57.1101.77.49.27.61.47.19.45.32.65.24.42.38.62.19.46.34.65c.14.19.42.29.57.47s.62.11.77.29-.05.68.11.86.61.09.77.27.45.22.62.39-.05.73.12.9.7201-.08.9001.09-.0301.75.1499.91.4199.25.6099.4.6101 0 .8001.15.44.2.63.34.2.53.4.67.29.42.49.56.51.09.72.22.2501.52.4501.64.7199-.3.9299-.18.3.43.52.54.26.54.48.65.6099-.16.8299-.06.3701.35.5801.44.42.24.64.33.51 0 .73.09.3101.55.5401.63.5699-.17.7899-.1.37.42.6.49.47.11.7.18.47.13.7.19.51-.08.75-.03.4.41.64.46.57-.44.81-.4.45.17.69.21.41.52.64.56.54-.47.78-.44.43.48.67.5.48.04.72.06.51-.5.74-.49.46.4.7.41.48.03.72.03.4801.07.7201.06.4899.05.7199.03.46-.36.7-.38.4799 0 .7199-.03.5201.32.7601.29.43-.38.67-.42.53.28.77.23.35-.71.59-.75.4799-.03.7099-.08.52.12.75.06.4601-.14.6901-.21.51.04.74-.03.43-.23.66-.3.48-.1.7-.18.45-.17.67-.26.27-.59.49-.69.4499-.15.6699-.25.6101.14.8201.04.44-.2.66-.32.4399-.21.6499-.33.2301-.57.4401-.69.41-.24.62-.37.55-.04.75-.18.55-.06.75-.2.19-.57.39-.71.25-.47.44-.62.5-.14.69-.29.2201-.48.4101-.64.4799-.17.6699-.33.57-.09.75-.26.4099-.27.5899-.44-.0399-.73.1301-.9c.1699-.17.41-.27.57-.45s.33-.34.5-.52.43-.26.59-.44.43-.26.59-.45.2099-.45.3699-.64.5501-.18.7001-.37-.2201-.78-.07-.97c.15-.19.3499-.34.4899-.53s.3701-.32.5101-.52.55-.21.68-.41.03-.56.17-.76.43-.3.56-.5.04-.54.16-.75.5-.27.62-.48.1799-.46.2999-.67.4701-.3.5801-.51.17-.46.27-.68-.31-.7-.21-.91.4-.34.51-.56.39-.35.49-.57.31-.39.41-.62.15-.46.24-.69.34-.39.43-.61.17-.46.25-.69-.45-.68-.37-.91.48-.34.56-.57-.1-.54-.02-.77.31-.41.38-.64.34-.4.41-.63.2699-.43.33-.66c.06-.23-.38-.61-.32-.84s.47-.37.53-.61.37-.41.43-.64.02-.5.08-.73.15-.47.2-.7.06-.48.11-.72.22-.45.27-.69-.02-.5.02-.74-.16-.52-.12-.76-.1201-.51-.0801-.75.6501-.38.6901-.62-.06-.5-.02-.74-.12-.51-.09-.75-.0601-.49-.0801-.73c-.02-.25-.1599-.34-.3399-.52-.13-.13-.13-.44-.31-.49s-.36-.32-.54-.34c-.24-.02-.51.29-.75.27s-.4599-.34-.6999-.36-.5002.23-.7402.22-.4799-.14-.7199-.15-.48-.19-.72-.2-.48 0-.72 0-.4899.52-.73.52c-.24 0-.48-.41-.72-.41s-.48.29-.72.29-.48-.21-.72-.21-.4699.38-.7099.39-.4901-.39-.7301-.38c-.2401.01-.49-.06-.73-.05s-.46.32-.7.34-.4699.19-.7099.21" fill="#fff"/><path d="m81.9203 26.41c-.13-.13-.4001-.05-.5801-.11s-.3599 0-.5399-.01c-.25-.02-.49-.03-.74-.05s-.4901 0-.7401-.02-.48-.2-.73-.21-.49-.15-.73-.16-.49-.08-.74-.09-.49-.07-.74-.07-.4999.07-.7399.07-.49.32-.74.32-.36-.06-.61-.06c-.02.24-.0701.34-.1001.58s.09.49.06.73-.34.44-.37.68c-.0299.24-.34.43-.38.67s.23.52.19.75-.19.45-.23.69.3701.56.3201.79-.44.4-.49.64.27.55.22.78-.6001.35-.6601.59-.29.42-.35.65.3201.58.2601.81-.41.38-.47.61-.2701.41-.3401.64 0 .5-.07.73.07.53 0 .75-.4899.33-.5699.56.2299.6.1499.82-.1899.44-.2799.66-.0801.49-.1801.71-.4699.31-.5699.53.0399.55-.0601.76-.17.45-.28.67-.1899.44-.2999.66-.27.41-.38.61-.25.41-.38.62-.35.35-.48.55-.26.4-.39.6-.39.32-.52.52.04.61-.1.81-.7701.03-.9101.22-.0799.54-.2199.73-.4401.25-.5901.44-.0199.6-.1799.78-.3701.32-.5301.49-.33.35-.49.52-.48.2-.65.37-.4099.26-.5799.42-.1301.56-.3101.72-.27.42-.45.58-.3899.28-.5799.43-.5201.11-.7101.26-.45.19-.65.33-.11.64-.31.79-.3999.27-.5899.41-.3801.3-.5801.43-.4899.12-.6999.25-.4501.18-.6601.31c-.21.12-.5.08-.72.19s-.3599.35-.5799.46-.29.51-.51.61-.66-.28-.88-.19-.3601.37-.5901.46-.4199.26-.6399.35-.54-.05-.76.03-.38.37-.61.45-.43.23-.66.3-.5801-.24-.8101-.17-.4499.15-.6799.22-.3601.52-.5901.58-.5599-.26-.7999-.21-.3501.64-.5801.69-.46.19-.7.24-.5699-.42-.8099-.38-.42.41-.66.45-.48.09-.72.13-.4701.17-.7101.2-.5499-.58-.7899-.55-.4601.22-.7001.24-.4599.43-.6999.44-.49-.13-.73-.12-.4801.18-.7201.18-.49-.34-.73-.34-.48.16-.73.16-.4799-.06-.7199-.07-.4601-.32-.7001-.34-.5199.45-.7599.43-.4401-.49-.6801-.51-.4999.15-.7399.12-.48-.03-.72-.06-.4701-.12-.7101-.16-.4599-.15-.6999-.19-.51.09-.75.04-.52.08-.75.03-.4101-.35-.6501-.41-.56.21-.79.14-.3999-.36-.6399-.43-.39-.38-.62-.46-.4701-.1-.7001-.18-.3499.04-.5799-.05c.18.16.1499.31.3299.47s.2101.51.4001.66.44.24.63.39.46.2.65.35.29.43.49.57.5999-.01.7999.12.35.35.55.48.36.34.57.46.59-.06.8.06.25.54.46.66.45.2.66.3.64-.21.85-.1.26.59.48.69.3401.43.5701.53.5099.05.7299.13.46.15.69.24.5101 0 .7401.08.38.4.61.47.5499-.14.7799-.07.42.29.66.35.48.1.71.15.4601.15.7001.2.4999-.02.7299.03.5301-.27.7701-.23.41.47.65.51.48.04.72.07.4899 0 .7299.01.47.14.71.16.4801.17.7201.18.49-.12.73-.11.4799-.16.7299-.16.49.28.73.27.46-.47.71-.48.5001.27.7401.26.48-.05.72-.08.4399-.36.6799-.39.5601.53.8001.49.44-.35.67-.39.4099-.41.6499-.46.54.21.77.16.4801-.09.7101-.15.4399-.22.6699-.29.4701-.11.7001-.18.4-.31.63-.38.4599-.12.6899-.21.52 0 .74-.09.4701-.13.6901-.22.3299-.45.5399-.55c.22-.1.52-.04.73-.15s.32-.43.53-.55.52-.06.73-.18.53-.05.74-.17.3801-.31.5901-.44.4-.27.61-.4.18-.59.38-.73.7.15.9.01.43-.25.62-.4.0999-.65.2899-.8.42-.25.6-.41.37-.3.56-.46.53-.13.71-.3.09-.61.27-.77.4001-.28.5701-.45.31-.37.48-.54.3099-.37.4699-.54.29-.39.45-.57.26-.41.41-.59.48-.23.63-.41.1-.53.25-.72.5201-.21.6601-.4.37-.33.51-.52.2999-.38.4399-.58.01-.58.15-.78.6501-.15.7801-.35-.1601-.68-.0401-.88.4201-.3.5501-.51.2899-.39.4099-.6.05-.52.17-.74.6601-.19.7701-.41.1899-.45.2999-.66.07-.51.17-.73.4401-.33.5401-.55.16-.46.26-.68.27-.41.37-.63-.1-.57 0-.79.1199-.47.2099-.7.16-.45.25-.68.39-.37.47-.6-.2299-.59-.1499-.82.4-.37.48-.6-.0201-.51.0499-.74.1401-.46.2101-.69.4-.39.46-.62.3899-.39.4499-.63.0001-.5.0601-.74-.01-.5.04-.74.3799-.41.4399-.64-.06-.51 0-.75-.1-.52-.05-.75-.16-.53-.12-.76.56-.38.61-.62 0-.49.04-.73-.17-.52-.13-.76.5001-.41.5401-.65-.4301-.55-.4001-.79.19-.46.22-.7.1101-.47.0801-.71c-.02-.25.06-.57-.12-.75z" fill="#cebefd"/><g stroke="#000" stroke-linecap="round" stroke-linejoin="round" stroke-width="2.6"><path d="m69.84 25.99c-.11.34.41.43.28.84-.06.2-.32.38-.4.63-.07.22-.63.3-.7.54s0 .52-.07.74c-.08.25-.23.46-.29.66-.16.47-.22.79-.19.63.02-.09.44-.22.55-.61.05-.19.2-.4.28-.67.07-.23.1-.48.16-.71s-.09-.52-.05-.75.39-.42.43-.65.14-.48.17-.71m0 0c.03-.23 0-.49.02-.73s-.39-.51-.37-.75.18-.47.18-.71.16-.48.15-.72-.22-.47-.23-.71-.03-.47-.05-.71-.13-.46-.16-.7.04-.48 0-.72.24-.52.2-.76-.2699-.44-.3199-.67-.4701-.38-.5301-.61.24-.55.18-.78.13-.54.06-.76-.1201-.47-.2001-.7-.2799-.41-.3599-.64-.1899-.44-.2699-.67-.4501-.34-.5401-.56-.31-.38-.41-.6.22-.62.13-.84c-.1-.22-.1-.5-.21-.71s-.75-.13-.87-.33.26-.72.13-.92-.44-.28-.58-.48-.17-.47999-.32-.66999-.6-.11-.76-.29-.2-.45001-.37-.62001-.55-.10999-.72-.26999-.1799-.50001-.3599-.65001-.3001-.38999-.4801-.52999-.4401-.21001-.6301-.34001-.5099-.08999-.6999-.21999-.34-.33-.54-.46-.1999-.61-.3999-.72-.6101.14-.8301.03-.25-.55001-.47-.66001-.5999.18-.8199.08-.4201-.21-.6401-.3-.2699-.61-.4899-.7-.4501-.17-.6701-.25-.49-.04999-.72-.12999-.53.11-.76.04-.3699-.45-.5999-.51-.6001.42-.8301.36-.38-.46001-.61-.51001-.53.20001-.76.15001-.4201-.30001-.6601-.34001-.4699-.04999-.7099-.08999-.4401-.31001-.6701-.34001-.4599-.15999-.6999-.18999-.49.09-.73.07-.49.18999-.73.16999c-.23-.02-.4701.10001-.7101.09001s-.4599-.1-.6899-.11-.4599-.02001-.6999-.02001-.4701-.25-.7001-.25-.47.13-.71.14-.48-.26999-.72-.26999-.47.02-.71.03-.48-.10001-.72-.09001-.48.03-.71.05-.43.48001-.67.51001-.51-.26001-.74-.23001-.42.42001-.66.45001-.53-.33001-.76-.30001-.4101.46-.6401.5-.5399-.3-.7699-.26-.39.47001-.62.52001-.56-.33-.79-.28-.43.25-.66.31-.39.41-.61.47-.5701-.26001-.8001-.20001-.3399.51-.5699.58-.5701-.23-.8001-.15-.3799.36001-.5999.44001-.5.04-.72.12-.32.48999-.53.57999-.52-.02-.74.08-.37.33-.58.43-.33.38-.54.49-.62-.14999-.83-.03999-.2.59-.4.71-.3701.27999-.5601.40999c-.2.13-.5799.00001-.7799.13001s-.4.25999-.59.40999c-.19.15001-.26.43001-.44.59001s-.26.41999-.43.57999-.52.14001-.68.31001-.37.30999-.53.47999-.1501.50001-.3001.69c-.15.19-.3999.28-.5499.47s-.48.24-.62.43-.15.48-.28.68-.02.55-.14.75-.73.13-.84.34.2899.69.1799.91-.4999.28-.5999.5-.2.43-.3.65-.3.39-.39.62-.18.45-.26.67.1299.55.0499.77-.3899.38-.4599.61-.33.41-.39.64.1501.53.0901.76.2299.54.1799.77-.59.37-.64.6.2501.53.2101.77-.5201.4-.5501.64.47.54.44.78-.3501.44-.3801.68.39.51.37.75-.6098.43-.6298.67.0399.48.0299.72.1099.48.0999.72-.1198.47-.1298.71.3599.48.3599.72-.46.47-.46.71.51.47.51.71-.27.48-.27.72-.04.48-.03.72.27.47.28.71-.34.5-.33.73.4.46.41.7-.3501.5-.3401.74c.02.24.4301.45.4501.69s-.28.51-.25.74-.2.51-.18.74.23.46.26.7.09.47.12.71.43.42.46.66-.44.56-.4.8.1299.47.1699.7.0501.48.1001.72.24.44.29.68.38.4.44.64.28.42.34.65-.4.61-.33.84.65.31.72.54 0 .5.08.73-.12.55-.05.77.46.35.54.57-.05.53.04.75.14.46.23.69.48.32.57.54-.09.57 0 .78 0 .53.11.75.5501.27.6601.48.4299.31.5499.52-.08.59.04.8.5301.24.6601.44.1899.44.3199.64-.02.59.12.78.6799.11.8199.31-.2099.75-.0699.94.48.24.63.43.3.37.46.55.37.31.53.49.23.44.4.61.47.21.64.38.41.26.58.42.1599.53.3299.69.5001.15.6801.31.42.23.61.38.1301.6.3201.75.3599.32.5599.46.4999.12.6999.26.2701.46.4701.59.66-.15.86-.02.38.28.59.4.13.73.34.84.71-.3.92-.19.42.21.64.31.3.47.52.57.41.25.63.34.4399.2.6599.29.4901.07.7101.15.3.58.52.66.55-.12.78-.05.45.18.67.25.52-.08.75-.01.35.55.58.61.48.07.71.13.57-.34.8-.3.45.19.68.24.48.04.71.08.45.24.68.28.5-.14.74-.12.44.38.68.4.47.17.71.19.5-.24.73-.23.48-.28.72-.27.47.5.71.5.4901.13.7301.12.4499-.68.6899-.69.48.13.72.12.46-.18.7-.2.52.36.76.33.41-.48.65-.51.52.24.76.2.4899.02.7299-.03.3601-.56.6001-.61.59.42.82.36.43-.26.66-.32.35-.49.58-.57.66.48.89.4.3-.59.52-.68.57.14.79.05.23-.67.45-.77.7.39.92.29.39-.32.6-.43.49-.12.7-.23.36-.36.57-.47.47-.16.68-.28.2699-.49.4699-.62.2701-.46.4801-.59.52-.1.71-.23.23-.51.42-.65.73.17.92.02.24-.49.43-.64.55-.1.74-.25.14-.58.33-.74.49-.18.67-.34.2401-.45.4201-.62.45-.23.62-.4.2899-.39.4599-.57.16-.51.33-.69.6899-.03.8499-.21-.0699-.71.0901-.89.2501-.42.4001-.6.7099-.05.8599-.24.3701-.33.5101-.53.1999-.46.3399-.66.09-.53.23-.73.36-.34.49-.54.17-.47.31-.67.0099-.56.1399-.77.4701-.28.5901-.48.51-.26.63-.47.1599-.47.2799-.68.2001-.44.3201-.66.1999-.44.3099-.66.1901-.45.3001-.66.36-.37.46-.58.1399-.47.2399-.69.4002-.36.4902-.58-.3101-.65-.2101-.88.65-.26.74-.48.03-.51.12-.74-.21-.59-.13-.82.4001-.37.4801-.6-.0301-.52.0399-.75.0199-.5.0899-.73.2201-.43.2901-.66.32-.41.39-.64.28-.42.35-.66.02-.5.08-.73.26-.43.31-.67.25-.44.31-.67-.4101-.59-.3501-.82.1902-.45.2402-.69.2799-.43.3299-.67.26-.44.31-.68-.23-.53-.19-.77.41-.42.45-.66-.41-.56-.38-.79.4-.43.44-.67.06-.48.09-.72-.1501-.48-.1701-.72c-.02-.25-.0399-.38-.2199-.56-.13-.13-.18-.35-.36-.4s-.39.15-.57.13c-.24-.02-.43-.59-.67-.61s-.51.33-.75.31-.46-.37-.7-.38-.4901.13-.7301.11-.4899.33-.7299.32-.47-.38-.71-.38-.48-.12-.72-.13-.49.46-.73.46-.48-.03-.72-.03-.49-.47-.73-.47-.47.5-.71.5-.48-.11-.72-.1-.4901-.24-.7301-.22-.4599.42-.6999.43-.5-.2-.73-.19z"/><path d="m44.2804 64.79c-.03.23-.32.43-.3.68.02.23-.1299.51-.0699.75.05.23.0899.48.1599.71s.49.35.56.58.1201.47.1801.7.0999.48.1499.72.26.46.29.7-.55.51-.56.75.5301.52.4901.76-.44.39-.51.62-.3701.34-.4701.56-.15.43-.26.65.02.56-.11.76-.37.34-.5.54-.3999.31-.5299.51.0299.6-.0901.8c-.13.21-.25.41-.37.61-.12.22-.35.37-.44.58-.1.23.05.52 0 .73"/><path d="m55.5101 65.6c.04.24-.4299.63-.3399.87s.7899.17.9099.39.0801.5.2201.72.1.52.25.73.5299.23.6699.44.09.54.22.75-.07.59.05.81.62.26.7.5-.0599.53-.0099.77 0 .48 0 .73.4.55.36.8-.6201.39-.6801.63.0001.52-.0799.76-.0001.53-.0801.77-.43.42-.48.66c-.06.25.06.55.04.8-.02.26.03.53.09.77"/></g><path d="m71.4301 26.66c.2-.13.5299-.06.7299-.19s.34-.35.54-.48.5-.1.7-.23.36-.32.56-.45.51-.09.71-.22.3199-.38.5199-.51.44-.2.63-.33.3701-.3.5701-.43.25-.48.45-.61.58.02.78-.11.08-.75.28-.88.42-.22.62-.35.39-.27.59-.4.45-.18.65-.31.43-.21.63-.34.46-.17.66-.3.45-.18.65-.31.26-.47.46-.6.64.12.84 0 .39-.26.59-.39.33-.36.54-.48.36-.34.58-.44.56.15.79.08.3-.81.53-.84c.24-.04.5501.2.7801.21s.4699.15.6999.24.65-.03.84.14c.19.18-.06.72.05.95s.55.33.62.58.15.52.19.77c.03.24-.4101.53-.3901.77s.2901.45.3101.69.0599.48.0599.72.2101.49.1901.73-.36.46-.38.7 0 .48-.03.72-.02.48-.06.72.11.52.06.75-.65.33-.72.56.37.61.3.84-.33.4-.42.62-.17.45-.26.67-.4401.32-.5501.54.1301.6.0101.81-.57.23-.69.43.1.63-.04.83-.57.18-.72.38.05.65-.1.83-.6801.05-.8401.23-.1799.52-.3499.69c.26.02.5001.13.7201.23s.3499.31.5299.48.7001.05.8401.26.1799.52.2699.75.13.5.18.75-.37.53-.36.77.6.53.56.77-.48.4-.57.63.19.66.07.88-.68.16-.83.37-.2601.41-.4301.6-.2899.41-.4799.58-.2099.55-.4099.7-.3501.39-.5601.54-.51.16-.72.3-.63-.06-.85.07c-.19.12-.14.64-.34.76s-.39.25-.59.36-.69-.29-.89-.18-.3401.32-.5401.42-.1999.63-.3999.73-.63-.27-.83-.18-.39.22-.61.3-.38.29-.59.36-.43.15-.65.21-.4599.03-.6799.08c-.21.04-.4001.4-.6501.43-.22.02-.4601.17-.7101.17-.22 0-.4599-.68-.7099-.68-.23 0-.48.58-.72.57s-.43-.54-.66-.57-.47.04-.7.02-.52.31-.75.27-.4801-.02-.7101-.06-.3699-.55-.5999-.6-.52.14-.74.08-.5-.03-.71-.1c-.23-.08-.5099-.06-.7099-.14-.23-.09-.3901-.35-.5801-.46-.23-.12-.6-.05-.77-.19" fill="#fff"/><path d="m71.4301 26.66c.2-.13.5299-.06.7299-.19s.34-.35.54-.48.5-.1.7-.23.36-.32.56-.45.51-.09.71-.22.3199-.38.5199-.51.44-.2.63-.33.3701-.3.5701-.43.25-.48.45-.61.58.02.78-.11.08-.75.28-.88.42-.22.62-.35.39-.27.59-.4.45-.18.65-.31.43-.21.63-.34.46-.17.66-.3.45-.18.65-.31.26-.47.46-.6.64.12.84 0 .39-.26.59-.39.33-.36.54-.48.36-.34.58-.44.56.15.79.08.3-.81.53-.84c.24-.04.5501.2.7801.21s.4699.15.6999.24.65-.03.84.14c.19.18-.06.72.05.95s.55.33.62.58.15.52.19.77c.03.24-.4101.53-.3901.77s.2901.45.3101.69.0599.48.0599.72.2101.49.1901.73-.36.46-.38.7 0 .48-.03.72-.02.48-.06.72.11.52.06.75-.65.33-.72.56.37.61.3.84-.33.4-.42.62-.17.45-.26.67-.4401.32-.5501.54.1301.6.0101.81-.57.23-.69.43.1.63-.04.83-.57.18-.72.38.05.65-.1.83-.6801.05-.8401.23-.1799.52-.3499.69c.26.02.5001.13.7201.23s.3499.31.5299.48.7001.05.8401.26.1799.52.2699.75.13.5.18.75-.37.53-.36.77.6.53.56.77-.48.4-.57.63.19.66.07.88-.68.16-.83.37-.2601.41-.4301.6-.2899.41-.4799.58-.2099.55-.4099.7-.3501.39-.5601.54-.51.16-.72.3-.63-.06-.85.07c-.19.12-.14.64-.34.76s-.39.25-.59.36-.69-.29-.89-.18-.3401.32-.5401.42-.1999.63-.3999.73-.63-.27-.83-.18-.39.22-.61.3-.38.29-.59.36-.43.15-.65.21-.4599.03-.6799.08c-.21.04-.4001.4-.6501.43-.22.02-.4601.17-.7101.17-.22 0-.4599-.68-.7099-.68-.23 0-.48.58-.72.57s-.43-.54-.66-.57-.47.04-.7.02-.52.31-.75.27-.4801-.02-.7101-.06-.3699-.55-.5999-.6-.52.14-.74.08-.5-.03-.71-.1c-.23-.08-.5099-.06-.7099-.14-.23-.09-.3901-.35-.5801-.46-.23-.12-.6-.05-.77-.19" stroke="#000" stroke-linecap="round" stroke-linejoin="round" stroke-width="2.6"/><path d="m28.5003 26.41c-.04-.13-.1701-.37-.1701-.71 0-.27-.27-.59-.23-.82.06-.39.3501-.58.5601-.22.14.32-.1801.37-.0901.74.06.22.6801.33.7301.56.07.3-.03.62-.02.75.01.23-.3401.3-.5801.2-.15-.06-.1099-.24-.1999-.5z" stroke="#000" stroke-linecap="round" stroke-linejoin="round" stroke-width="2.6"/><path d="m40.9104 24.02c-.23.12-.0201.57-.0701.84-.04.26-.21.49-.14.72.1.32.28.86.5.83s.03-.61.13-.81c.09-.18.2801-.26.3001-.46.03-.26.51-.53.5-.64-.04-.29-.84-.69-1.21-.49z" stroke="#000" stroke-linecap="round" stroke-linejoin="round" stroke-width="2.6"/><path d="m42.55 34.81c-.11-.2-.28-.28-.41-.49-.13-.19.03-.59-.11-.79s-.45-.25-.6-.43-.4401-.23-.6001-.41-.2399-.42-.4199-.59-.22-.47-.4-.63-.4501-.2-.6501-.34-.19-.57-.39-.71-.6199.07-.8199-.05-.27-.51-.48-.62-.6301.22-.8501.13-.4399-.15-.6599-.23-.4-.3-.63-.36-.4401-.27-.6701-.3-.4899.33-.7299.33-.4601-.14-.6901-.11-.5899-.33-.8099-.26c-.23.09-.26.66-.47.77-.22.12-.56.02-.76.16s-.2.52-.37.68-.3901.27-.5501.46-.1699.45-.2999.65-.53.25-.64.47-.0901.49-.1701.72-.44.39-.5.63-.1899.48-.2199.73.39.54.37.79-.26.48-.26.72-.0801.5-.0601.74.48.45.51.69-.2299.52-.1899.76.2799.44.3399.68-.0399.52.0201.75.3999.38.4799.6c.09.24-.1999.61-.0999.83.1.23.2499.44.3599.65.13.23.5501.23.6901.42.16.21-.0401.7.1299.86.2.18.5401.18.7401.26.24.1.5.18.73.11.22-.06.5 0 .72-.08s.2299-.65.4499-.75.55.08.76-.03.2501-.49.4501-.61.4999-.06.6999-.19.52-.06.71-.2.4101-.23.6001-.38.1999-.5.3899-.64.5-.13.68-.28.3601-.31.5301-.46.33-.33.51-.49.07-.61.24-.77.6299-.02.7999-.19.2001-.47.3601-.63.5199-.15.6799-.32.09-.56.25-.73.2701-.39.4201-.57.58-.12.72-.29.0399-.49.1899-.66z" fill="#cebefd"/><path d="m42.55 34.81c-.11-.2-.28-.28-.41-.49-.13-.19.03-.59-.11-.79s-.45-.25-.6-.43-.4401-.23-.6001-.41-.2399-.42-.4199-.59-.22-.47-.4-.63-.4501-.2-.6501-.34-.19-.57-.39-.71-.6199.07-.8199-.05-.27-.51-.48-.62-.6301.22-.8501.13-.4399-.15-.6599-.23-.4-.3-.63-.36-.4401-.27-.6701-.3-.4899.33-.7299.33-.4601-.14-.6901-.11-.5899-.33-.8099-.26c-.23.09-.26.66-.47.77-.22.12-.56.02-.76.16s-.2.52-.37.68-.3901.27-.5501.46-.1699.45-.2999.65-.53.25-.64.47-.0901.49-.1701.72-.44.39-.5.63-.1899.48-.2199.73.39.54.37.79-.26.48-.26.72-.0801.5-.0601.74.48.45.51.69-.2299.52-.1899.76.2799.44.3399.68-.0399.52.0201.75.3999.38.4799.6c.09.24-.1999.61-.0999.83.1.23.2499.44.3599.65.13.23.5501.23.6901.42.16.21-.0401.7.1299.86.2.18.5401.18.7401.26.24.1.5.18.73.11.22-.06.5 0 .72-.08s.2299-.65.4499-.75.55.08.76-.03.2501-.49.4501-.61.4999-.06.6999-.19.52-.06.71-.2.4101-.23.6001-.38.1999-.5.3899-.64.5-.13.68-.28.3601-.31.5301-.46.33-.33.51-.49.07-.61.24-.77.6299-.02.7999-.19.2001-.47.3601-.63.5199-.15.6799-.32.09-.56.25-.73.2701-.39.4201-.57.58-.12.72-.29.0399-.49.1899-.66z" stroke="#000" stroke-linecap="round" stroke-linejoin="round" stroke-width="2.6"/></svg>