<svg fill="none" height="192" viewBox="0 0 75 192" width="75" xmlns="http://www.w3.org/2000/svg"><path d="m66.9303 43.13c-.36 0-.3601-.39-.7101-.39s-.3599.28-.7099.28-.36.03-.71.03-.3601-.32-.7101-.32-.36.07-.71.07c-.3499 0-.3599.24-.7099.24s-.3601-.32-.7101-.32-.36.13-.71.13-.3599-.14-.7099-.14-.3601.23-.7101.23-.36-.33-.71-.33-.3599.45-.7099.45-.3601-.21-.7101-.21-.36.15-.71.15-.3599-.24-.7099-.24-.3601-.19-.7101-.19-.36-.11-.71-.11-.3599.46-.7099.46-.36-.08-.72-.08-.3601-.26-.7201-.26-.36.52-.71.52-.3599 0-.7099 0-.3601-.38-.7101-.38-.36 0-.71 0-.3599-.04-.7099-.04-.3601-.07-.7101-.07-.36-.09-.71-.09-.3599 0-.7099 0-.36.61-.72.61-.3601-.38-.7201-.38-.36.01-.72.01-.3599.1-.7199.1-.3601-.37-.7101-.37-.36 0-.71 0-.3599.03-.7199.03-.36-.08-.72-.08-.3601.59-.7201.59-.36.07-.72.07-.36-.55-.72-.55-.3599.43-.7199.43-.3601-.43-.7101-.43-.36-.08-.71-.08-.3599.11-.7099.11-.36.14-.72.14-.3601-.13-.7201-.13-.36.36-.72.36-.3599-.07-.7199-.07-.36-.12-.72-.12-.3601.19-.7201.19-.36-.3-.72-.3-.3599.04-.7199.04-.36-.02-.72-.02-.3601.11-.7201.11-.36.23-.72.23-.3599-.32-.7199-.32-.36.33-.72.33-.3601-.1-.7201-.1-.36-.12-.72-.12-.3599.1-.7199.1-.36-.38-.73-.38-.36.54-.73.54-.3601-.37-.7301-.37-.36.31-.72.31-.36-.57-.72-.57-.3599.09-.7199.09-.36.15-.73.15-.3601.21-.7301.21-.36-.35-.73-.35-.36.58-.73.58-.3599-.66-.7299-.66-.37.28-.73.28-.36-.12-.73-.12-.3601-.15-.7301-.15-.37.54-.73.54-.37-.52-.73-.52-.37.45-.73.45-.3599.07-.7299.07-.37-.16-.73-.16-.3701-.1-.7301-.1c-.36001 0-.37.13-.74.13s-.37-.42-.73999-.42c-.24 0-.51001.04-.75.06-.24.02-.41991.47-.64991.52s-.57004-.22-.79004-.14-.23006.68-.44006.78-.49995.04-.69995.17-.57001.02-.76001.17-.26004.44-.42004.61-.41995.27-.56995.46-.44996.29-.57996.5-.23008.45-.33008.67.33.65.25.87-.29998.38-.35998.62-.25003.43-.28003.67-.15991.48-.15991.72c0 .36-.09009.36-.09009.72s.28003.36.28003.72-.09998.36-.09998.72.42005.36.42005.72-.06006.36-.06006.72-.45996.36-.45996.72.27991.36.27991.72.06005.36.06005.72.06995.36.06995.72-.45996.36-.45996.72.19006.36.19006.72-.19006.36-.19006.72.48999.36.48999.72-.18994.36-.18994.72.08996.36.08996.72.07996.36.07996.72-.13.36-.13.72-.05994.36-.05994.72-.15003.36-.15003.72.31006.36.31006.72.09998.36.09998.72-.26001.36-.26001.72.19995.36.19995.72-.18994.36-.18994.72.03003.36.03003.72-.07007.36-.07007.72-.08997.36-.08997.72-.23999.36-.23999.72.16993.36.16993.72.45007.36.45007.72-.39002.36-.39002.72-.04004.36-.04004.72-.25.36-.25.72.47999.36.47999.72-.26001.36-.26001.72.09008.36.09008.72.37.36.37.72-.64002.36-.64002.72.13001.36.13001.72.42004.36.42004.72-.31006.36-.31006.72-.15002.36-.15002.72.38.36.38.72-.09997.36-.09997.72.02002.36.02002.72.14001.36.14001.72-.27002.36-.27002.72-.28003.36-.28003.72.38001.36.38001.72-.06995.36-.06995.72.32996.36.32996.72-.68005.36-.68005.72.55004.36.55004.72.02002.36.02002.72.02002.36.02002.72-.31006.36-.31006.72.29004.36.29004.72-.35998.36-.35998.72.21997.36.21997.72-.38001.36-.38001.72.57996.36.57996.72-.23999.36-.23999.72-.39001.36-.39001.72.64001.36.64001.72-.15991.36-.15991.72-.19007.36-.19007.72.07007.36.07007.72.31995.36.31995.72-.26001.36-.26001.72.06006.36.06006.72-.46009.36-.46009.72.49.36.49.72.15002.36.15002.72-.55994.36-.55994.72.44995.36.44995.72-.5.36-.5.72.06995.36.06995.72.28003.36.28003.72.07007.36.07007.72-.2301.36-.2301.72.08007.36.08007.72-.15002.36-.15002.72.41003.36.41003.72.05994.36.05994.72-.60999.36-.60999.72.51001.36.51001.72-.14001.36-.14001.72-.03003.36-.03003.72-.10998.36-.10998.72.23999.36.23999.72.03002.36.03002.72-.51001.36-.51001.72.34009.36.34009.72.2699.36.2699.72-.2699.36-.2699.72.16992.36.16992.72-.39001.36-.39001.72.47009.36.47009.72-.20007.36-.20007.72-.34998.36-.34998.72.25.36.25.72-.16003.36-.16003.72.46997.36.46997.72-.36999.36-.36999.72-.0199.36-.0199.72.03991.36.03991.72.34009.36.34009.72.02991.36.02991.72-.48999.36-.48999.72.44006.36.44006.72-.43005.36-.43005.72v.72c0 .36.10998.36.10998.72s.28003.36.28003.72-.33996.36-.33996.72-.20007.36-.20007.72.54003.36.54003.72-.10998.36-.10998.72.25.36.25.72-.54004.36-.54004.72.44006.36.44006.72-.23999.36-.23999.72-.06006.36-.06006.72.22998.36.22998.72.03003.36.03003.72-.17004.36-.17004.72-.22998.36-.22998.72-.12.36-.12.72.48999.36.48999.72v.72c0 .36-.15002.36-.15002.72s-.28992.36-.28992.72.53992.36.53992.72-.03992.36-.03992.72-.10998.36-.10998.72-.41004.36-.41004.72.41004.36.41004.72.1499.36.1499.72-.11999.36-.11999.72-.32996.36-.32996.72-.07996.36-.07996.72.34998.36.34998.72.07995.36.07995.72-.23999.36-.23999.72.08008.36.08008.72-.07007.36-.07007.73.37.36.37.73-.41003.36-.41003.72.11999.36.11999.72-.09998.36-.09998.72.21009.36.21009.72.02991.36.02991.72-.01001.36-.01001.72-.02991.36-.02991.72-.2301.36-.2301.72.13.36.13.73.12.36.12.73.09008.36.09008.73.14002.36.14002.72-.05005.36-.05005.72-.37.36-.37.72.40003.36.40003.72-.34998.36-.34998.73.2699.36.2699.73-.17993.36-.17993.73-.16004.36-.16004.73.30005.36.30005.73-.45007.36-.45007.72.5.36.5.72-.08997.36-.08997.72-.43994.36-.43994.73.35999.36.35999.73-.03003.36-.03003.73.02002.36.02002.72-.14002.36-.14002.73.07996.36.07996.73.27002.36.27002.73-.07996.36-.07996.73-.19006.36-.19006.73.05005.36.05005.73-.22998.36-.22998.73.45996.36.45996.73-.62.37-.62.73.30005.37.30005.73-.01001.37-.01001.73.09998.37.09998.73c0 .24-.07005.48-.05005.71s-.03999.5.01001.73.42.37.5.6.28.37.38.58-.01001.53.10999.73.36001.31.51001.49.05998.58.22998.74.22003.51.41003.66.76998-.26.96998-.13.36007.26.58007.36.41991.13.64991.21.39011.26.62011.31.42992.2.66992.22.46008.35.70008.35c.36 0 .35998.11.72998.11s.35998-.46.73002-.46c.37 0 .3599.26.7299.26s.36-.12.72-.12.3601.32.7201.32.36-.45.72-.45.36.12.73.12.3599-.12.7299-.12.36-.12.73-.12.36.5.73.5.3601-.11.7301-.11.37.07.73.07.36-.35.73-.35.3599.39.7299.39.37-.14.73-.14.37.12.73.12.3701-.41.7301-.41.36.35.73.35.37-.02.73-.02.3699-.44.7299-.44.37.49.74.49.37-.02.74-.02.36-.24.71-.24.3601.28.7101.28.3599-.41.7099-.41.36.04.71.04.3601-.05.7101-.05.3599.2.7099.2.36-.29.71-.29h.7101c.35 0 .3599.43.7099.43s.36-.42.71-.42.3601.44.7101.44.3599-.36.7099-.36.36-.01.71-.01h.7101c.35 0 .36.36.7099.36.35 0 .36-.05.71-.05s.3601-.35.7101-.35.36-.03.71-.03.3599.28.7199.28.36-.29.72-.29.3601.23.7101.23.3599.31.7099.31.36-.52.71-.52.3601.11.7101.11.3599.17.7099.17h.71c.35 0 .3601.27.7101.27s.36-.49.7099-.49c.35 0 .36.36.72.36s.36-.17.72-.17.3601-.03.7201-.03.36-.07.72-.07.3599.34.7099.34.3601-.4.7101-.4.36-.1.72-.1.3599.45.7199.45.36-.47.72-.47.3601.35.7201.35.36-.21.72-.21.3599.27.7199.27.36-.18.71-.18.3601.38.7101.38.36-.4.7099-.4c.35 0 .36.14.72.14s.36.12.72.12.3601.06.7201.06.36-.39.72-.39.3599.36.7199.36.36.03.72.03.3601-.2.7201-.2.36.24.72.24.3599.03.7199.03.36-.02.72-.02.3601-.01.7201-.01.36-.26.72-.26.3599.11.7199.11.36.04.72.04.3601-.1.7201-.1.36.16.72.16c.24 0 .4399-.55.6699-.58s.52.32.75.26.5201.03.7401-.05.51-.08.73-.19.3699-.37.5699-.5.3-.41.49-.56.44-.22.61-.39.53-.2.67-.38.1301-.52.2601-.72-.0401-.56.0699-.77.53-.29.61-.52.0601-.49.1101-.72-.15-.5-.12-.74.3899-.45.3899-.69c0-.36-.36-.36-.36-.72s.3001-.36.3001-.72-.1701-.36-.1701-.72-.1599-.36-.1599-.72.5599-.36.5599-.72-.26-.36-.26-.72-.28-.36-.28-.72-.14-.36-.14-.72.0901-.36.0901-.72.5699-.36.5699-.72.01-.36.01-.72-.61-.36-.61-.72.24-.36.24-.72-.16-.36-.16-.72.13-.36.13-.72.2001-.36.2001-.72.15-.36.15-.72-.4501-.36-.4501-.72-.0799-.36-.0799-.72-.0301-.36-.0301-.72.2-.36.2-.72.14-.36.14-.72.26-.36.26-.72-.35-.36-.35-.72.3101-.36.3101-.72-.27-.36-.27-.72-.37-.36-.37-.72 0-.36 0-.72.5499-.36.5499-.72-.13-.36-.13-.72-.1699-.36-.1699-.72-.02-.36-.02-.72.37-.36.37-.72-.2901-.36-.2901-.72.0401-.36.0401-.72-.1801-.36-.1801-.72.36-.36.36-.72-.3099-.36-.3099-.72.2199-.36.2199-.72-.11-.36-.11-.72-.0699-.36-.0699-.72.0499-.36.0499-.72.0501-.36.0501-.72.1999-.36.1999-.72-.15-.36-.15-.72-.01-.36-.01-.72-.34-.36-.34-.72.0301-.36.0301-.72.1099-.36.1099-.72.24-.36.24-.72-.36-.36-.36-.72.5401-.36.5401-.72-.61-.36-.61-.72.13-.36.13-.72.08-.36.08-.72-.0601-.36-.0601-.72-.1499-.36-.1499-.72.33-.36.33-.72-.11-.36-.11-.72.1999-.36.1999-.72-.4399-.36-.4399-.72.26-.36.26-.72.1999-.36.1999-.72-.4599-.36-.4599-.72.39-.36.39-.72.0299-.36.0299-.72-.25-.36-.25-.72.13-.36.13-.72.12-.36.12-.72-.08-.36-.08-.72.25-.36.25-.72-.4-.36-.4-.72.23-.36.23-.72-.34-.36-.34-.72.26-.36.26-.72.0601-.36.0601-.72.1299-.36.1299-.72-.25-.36-.25-.72.02-.36.02-.72-.2799-.36-.2799-.72.2699-.36.2699-.72-.11-.36-.11-.72-.1-.36-.1-.72.1-.36.1-.72.37-.36.37-.72-.51-.36-.51-.72.03-.36.03-.72.1801-.36.1801-.72.1899-.36.1899-.72-.0899-.36-.0899-.72.1999-.36.1999-.72.03-.36.03-.72-.03-.36-.03-.72-.33-.36-.33-.72.2901-.36.2901-.72-.0501-.36-.0501-.72.0601-.36.0601-.72.0199-.36.0199-.72-.23-.36-.23-.72.2101-.36.2101-.72-.42-.36-.42-.72.2299-.36.2299-.72.0701-.36.0701-.72-.0701-.36-.0701-.72.23-.36.23-.72-.25-.36-.25-.72-.1799-.36-.1799-.72.1799-.36.1799-.72.03-.36.03-.72.22-.36.22-.72-.53-.36-.53-.72.2301-.36.2301-.72.1799-.36.1799-.72-.25-.36-.25-.72.3301-.36.3301-.72-.4601-.36-.4601-.72-.0799-.36-.0799-.72.5599-.36.5599-.72-.11-.36-.11-.72-.0299-.36-.0299-.72-.2401-.36-.2401-.72-.08-.36-.08-.72-.04-.36-.04-.72.0601-.36.0601-.72-.09-.36-.09-.72.26-.36.26-.72 0-.36 0-.72.13-.36.13-.72.1799-.36.1799-.72-.0699-.36-.0699-.72-.0701-.36-.0701-.72-.4-.36-.4-.72.29-.36.29-.72-.15-.36-.15-.72.37-.36.37-.72-.1999-.36-.1999-.72-.3801-.36-.3801-.72.08-.36.08-.72.4401-.36.4401-.72-.24-.36-.24-.72.35-.36.35-.72-.2601-.36-.2601-.72.21-.36.21-.72-.1699-.36-.1699-.72-.2101-.36-.2101-.72.4801-.36.4801-.73-.41-.36-.41-.73-.1601-.36-.1601-.72.1801-.36.1801-.72.14-.36.14-.72-.14-.36-.14-.72.39-.36.39-.72-.4801-.36-.4801-.72-.1799-.36-.1799-.72.39-.36.39-.72.25-.36.25-.73-.6601-.36-.6601-.73.07-.36.07-.73.3201-.36.3201-.72-.23-.36-.23-.72-.1001-.36-.1001-.72.0901-.36.0901-.72-.1701-.36-.1701-.73.02-.36.02-.73.0401-.36.0401-.73.1799-.36.1799-.73.1701-.36.1701-.73-.35-.36-.35-.72-.0801-.36-.0801-.72.48-.36.48-.72.05-.36.05-.73-.49-.36-.49-.73.21-.36.21-.73.26-.36.26-.72-.0399-.36-.0399-.73-.3601-.36-.3601-.73.2101-.36.2101-.73.01-.36.01-.73.2999-.36.2999-.73-.0399-.36-.0399-.73-.5-.36-.5-.73.0099-.36.0099-.73-.12-.37-.12-.73.5-.37.5-.73.16-.37.16-.73-.1699-.37-.1699-.73c0-.24-.36-.46-.39-.69s-.1301-.44-.1801-.67-.06-.45-.14-.67-.0999-.45-.2099-.67-.2801-.37-.4001-.57-.1999-.42-.3399-.6-.1601-.49-.3301-.66-.2-.52-.38-.67-.6899.14-.8899.02-.17-.67-.39-.77-.5-.07-.73-.15-.4801-.05-.7201-.1-.4299-.42-.6699-.45-.51.64-.75.64z" fill="#fff"/><path d="m18.9402 183.4c0-.36-.19-.36-.19-.72s.2901-.36.2901-.72.0899-.36.0899-.72-.15-.36-.15-.72-.3099-.36-.3099-.72-.0701-.36-.0701-.72-.03-.36-.03-.72.06-.36.06-.72.47-.36.47-.72-.36-.36-.36-.72-.0899-.36-.0899-.72-.2101-.36-.2101-.72.5901-.36.5901-.72-.5-.36-.5-.72.26-.36.26-.72.02-.36.02-.72.1899-.36.1899-.72-.04-.36-.04-.72.1001-.36.1001-.72-.6101-.36-.6101-.72.68-.36.68-.72-.18-.36-.18-.72.05-.36.05-.72.07-.36.07-.72-.11-.36-.11-.72-.12-.36-.12-.72.24-.36.24-.72-.0399-.36-.0399-.72-.5601-.36-.5601-.72.4501-.36.4501-.72-.2001-.36-.2001-.72.0701-.36.0701-.72.13-.36.13-.72.0099-.36.0099-.72.06-.36.06-.72-.27-.36-.27-.72-.0899-.36-.0899-.72.4699-.36.4699-.72-.4299-.36-.4299-.72.24-.36.24-.72-.38-.36-.38-.72.3099-.36.3099-.72.12-.36.12-.72.03-.36.03-.72-.3499-.36-.3499-.72.2899-.36.2899-.72-.2-.36-.2-.72-.2199-.36-.2199-.72.3299-.36.3299-.72-.11-.36-.11-.72.0401-.36.0401-.72-.02-.36-.02-.72.3-.36.3-.72-.4601-.36-.4601-.72.5-.36.5-.72-.53-.36-.53-.72.38-.36.38-.72.05-.36.05-.72-.16-.36-.16-.72-.0699-.36-.0699-.72-.13-.36-.13-.72.26-.36.26-.72-.12-.36-.12-.72.3299-.36.3299-.72-.12-.36-.12-.72-.14-.36-.14-.72-.4-.36-.4-.72.3-.36.3-.72.1501-.36.1501-.72-.1501-.36-.1501-.72-.16-.36-.16-.72-.1-.36-.1-.72.09-.36.09-.72-.09-.36-.09-.72.09-.36.09-.72.13-.36.13-.72-.1699-.36-.1699-.72-.0901-.36-.0901-.72.4701-.36.4701-.72.01-.36.01-.72.1499-.36.1499-.72-.0199-.36-.0199-.72-.41-.36-.41-.72.15-.36.15-.72-.28-.36-.28-.72-.11-.36-.11-.72.51-.36.51-.72-.4401-.36-.4401-.72.49-.36.49-.72-.02-.36-.02-.72-.5299-.36-.5299-.72.59-.36.59-.72.0699-.36.0699-.72-.4399-.36-.4399-.72.37-.36.37-.72-.5101-.36-.5101-.72.21-.36.21-.72-.26-.36-.26-.72.3101-.36.3101-.72.05-.36.05-.72.24-.36.24-.72-.25-.36-.25-.72-.26-.36-.26-.72.4299-.36.4299-.72-.1899-.36-.1899-.72-.0501-.36-.0501-.72-.23-.36-.23-.72.37-.36.37-.72.1501-.36.1501-.72-.11-.36-.11-.72-.11-.36-.11-.72.0299-.36.0299-.72-.0199-.36-.0199-.72-.17-.36-.17-.72-.1401-.36-.1401-.72.5301-.36.5301-.72 0-.36 0-.72-.5801-.36-.5801-.72.65-.36.65-.72-.3299-.36-.3299-.72.1099-.36.1099-.72.1701-.36.1701-.72 0-.36 0-.72-.5701-.36-.5701-.72.37-.36.37-.72-.4399-.36-.4399-.72.5299-.36.5299-.72-.31-.36-.31-.72-.0899-.36-.0899-.72.35-.36.35-.72.02-.36.02-.72-.35-.36-.35-.72.3999-.36.3999-.72-.1899-.36-.1899-.72.02-.36.02-.72-.2001-.36-.2001-.72-.0499-.36-.0499-.72-.0901-.36-.0901-.72.25-.36.25-.72.37-.36.37-.72-.62-.36-.62-.72.42-.36.42-.72-.3399-.36-.3399-.72-.0701-.36-.0701-.72.5801-.36.5801-.72-.1901-.36-.1901-.73-.38-.36-.38-.73.4201-.36.4201-.72-.12-.36-.12-.72.29-.36.29-.72-.1901-.36-.1901-.72-.0799-.36-.0799-.72.2999-.36.2999-.72-.21-.36-.21-.72-.06-.36-.06-.72-.35-.36-.35-.73.11-.36.11-.73.16-.36.16-.73.0601-.36.0601-.72-.3301-.36-.3301-.72.3001-.36.3001-.72-.36-.36-.36-.72.5-.36.5-.73-.13-.36-.13-.73-.0601-.36-.0601-.73-.23-.36-.23-.73.51-.36.51-.73-.43-.36-.43-.72.03-.36.03-.72.0601-.36.0601-.72.26-.36.26-.73-.12-.36-.12-.73.26-.36.26-.73-.3201-.36-.3201-.72-.3-.36-.3-.73.5801-.36.5801-.73-.37-.36-.37-.73.39-.36.39-.73-.5501-.36-.5501-.73-.05-.36-.05-.73.5801-.36.5801-.73-.1701-.36-.1701-.73.11-.37.11-.73-.1999-.37-.1999-.73-.2701-.37-.2701-.73.22-.37.22-.73c0-.24.35-.45.37-.68s-.3-.52-.25-.75-.0999-.55-.0199-.77.75-.21.85-.42.0499-.49.1699-.69 0-.6.14-.78.57-.14.74-.31.2801-.39.4601-.54.2499-.49.4499-.61.5-.12.71-.22.43-.24.65-.32.5 0 .73-.05.4601-.05.7001-.08.4599-.21.6999-.21c-.21 0-.21 0-.41 0-.36 0-.36-.08-.73-.08s-.36.33-.73.33-.3599-.12-.7299-.12-.36-.33-.72-.33-.3601.56-.7201.56-.36-.36-.72-.36-.36-.16-.73-.16-.3599.53-.7299.53-.36-.04-.73-.04-.36-.38-.73-.38-.3601 0-.7301 0-.37.39-.73.39-.36-.34-.73-.34-.3599.08-.7299.08-.37-.3-.73-.3-.37.38-.73.38-.3701-.11-.7301-.11-.36.12-.73.12-.37.07-.73.07-.37-.27-.73-.27c-.35995 0-.36994.37-.73994.37s-.36999-.36-.73999-.36c-.24 0-.47997.05-.71997.07s-.51011-.08-.74011-.03-.47996.14-.69996.22-.34994.41-.56994.51-.43001.19-.63001.32-.34003.33-.53003.48-.48002.17-.65002.34-.33999.34-.48999.53-.27003.4-.40003.6-.44992.31-.54992.53.08.56 0 .79-.32.41-.37.64.31992.53.28992.77-.42993.44-.42993.68c0 .36-.17005.36-.17005.72s.34998.36.34998.72.28003.36.28003.72-.07996.36-.07996.72-.10009.36-.10009.72-.35999.36-.35999.72-.13.36-.13.72.2301.36.2301.72-.05005.36-.05005.72-.16004.36-.16004.72.29004.36.29004.72-.22998.36-.22998.72.40992.36.40992.72-.48999.36-.48999.72.21008.36.21008.72-.18006.36-.18006.72.58008.36.58008.72.07996.36.07996.72-.29004.36-.29004.72-.26001.36-.26001.72.48999.36.48999.72-.02991.36-.02991.72-.53003.36-.53003.72.29004.36.29004.72.14991.36.14991.72-.14991.36-.14991.72.02991.36.02991.72-.15002.36-.15002.72-.15992.36-.15992.72.27002.36.27002.72.31995.36.31995.72-.25.36-.25.72-.31995.36-.31995.72.51001.36.51001.72-.40002.36-.40002.72.23999.36.23999.72.08996.36.08996.72.09998.36.09998.72-.03992.36-.03992.72-.15002.36-.15002.72-.05005.36-.05005.72-.05994.36-.05994.72.10999.36.10999.72-.14002.36-.14002.72.38001.36.38001.72-.32996.36-.32996.72.02991.36.02991.72.10999.36.10999.72-.25.36-.25.72.06005.36.06005.72.28003.36.28003.72-.25.36-.25.72.37.36.37.72-.64002.36-.64002.72.04004.36.04004.72.32996.36.32996.72.05994.36.05994.72.09008.36.09008.72-.47009.36-.47009.72.37.36.37.72v.72c0 .36-.20997.36-.20997.72s.20997.36.20997.72-.18995.36-.18995.72.18995.36.18995.72-.15992.36-.15992.72.04993.36.04993.72-.05994.36-.05994.72-.28003.36-.28003.72.06006.36.06006.72.52991.36.52991.72-.23999.36-.23999.72-.10999.36-.10999.72-.01001.36-.01001.72v.72c0 .36.21009.36.21009.72s.20996.36.20996.72-.09998.36-.09998.72.12.36.12.72-.23999.36-.23999.72-.34009.36-.34009.72.48999.36.48999.72-.23999.36-.23999.72-.13.36-.13.72-.1399.36-.1399.72.06995.36.06995.72.47998.36.47998.72-.56995.36-.56995.72.05994.36.05994.72.09998.36.09998.72.02001.36.02001.72.33008.36.33008.72.09998.36.09998.72-.42005.36-.42005.72-.07995.36-.07995.72.47998.36.47998.72-.06995.36-.06995.72-.27002.36-.27002.72.32996.36.32996.72-.16003.36-.16003.72-.02991.36-.02991.72.23999.36.23999.72-.37.36-.37.72.02991.36.02991.72-.10999.36-.10999.72-.11999.36-.11999.72.04004.36.04004.72-.05005.36-.05005.72.19006.36.19006.72-.22998.36-.22998.72.26001.36.26001.72.29993.36.29993.72-.09998.36-.09998.72-.26001.36-.26001.72.31006.36.31006.72-.35009.36-.35009.72.45007.36.45007.72-.19007.36-.19007.72.20008.36.20008.72-.10999.36-.10999.72-.10009.36-.10009.72-.44996.36-.44996.72.12.36.12.72.40002.36.40002.72v.72c0 .36-.33007.36-.33007.72s-.10999.36-.10999.72-.05994.36-.05994.72.18994.36.18994.72.45008.36.45008.72-.27002.36-.27002.72-.38001.36-.38001.72.54993.36.54993.72-.45996.36-.45996.72.15002.36.15002.72.27002.36.27002.72v.72c0 .36-.25.36-.25.72s.18994.36.18994.72-.10998.36-.10998.72-.18994.36-.18994.72.51001.36.51001.72-.55005.36-.55005.72.03003.36.03003.72-.05005.36-.05005.72-.05994.36-.05994.73.45996.36.45996.73-.41003.36-.41003.72.06006.36.06006.72.02991.36.02991.72-.06995.36-.06995.72.06995.36.06995.72-.07996.36-.07996.72.46997.36.46997.72-.25.36-.25.72.10999.36.10999.73.25.36.25.73-.32996.36-.32996.73-.22998.36-.22998.72.08996.36.08996.72.07007.36.07007.72.39002.36.39002.72-.45008.36-.45008.73-.06994.36-.06994.73.38.36.38.73-.10009.36-.10009.73-.03992.36-.03992.73-.32007.36-.32007.72.17004.36.17004.72v.72c0 .36.31995.36.31995.73s-.32996.36-.32996.73-.08996.36-.08996.73.09997.36.09997.72.09998.36.09998.73.29004.36.29004.73-.06006.36-.06006.73v.73c0 .37.08008.36.08008.73s-.22009.36-.22009.73v.73c0 .37-.32996.36-.32996.73s.31006.37.31006.73-.03003.37-.03003.73-.32007.37-.32007.73.2301.37.2301.73c0 .24.17995.47.19995.7s.00995.47.06995.7-.01994.51.06006.73.32004.39.42004.6.07996.5.20996.7.52994.2.67994.38.28006.36.44006.53.11004.59.29004.73.56001.03.76001.16.19991.63.40991.74.59006-.16.81006-.08.43993.11.67993.17.41002.44.65002.47.48999-.46.73999-.46c.36 0 .35999.43.72999.43s.3601.08.7301.08.36-.25.73-.25.3599.08.7199.08.36.2.72.2.36-.3.72-.3.3601.37.7301.37.36-.6.73-.6.36.13.73.13.3599.24.7299.24.36-.34.73-.34.37.16.73.16.3601-.1.7301-.1.36-.03.73-.03.37.21.73.21.3699.11.7299.11.37-.06.73-.06h.73c.37 0 .3701.29.7301.29s.37-.66.73-.66.37.14.74.14.37.13.74.13c.21 0 .21-.27.41-.27-.24 0-.4701.28-.7101.26s-.53.19-.76.14-.4699-.17-.6899-.24-.3101-.5-.5201-.6-.61.11-.81-.02-.42-.27-.6-.42-.1-.6-.27-.77-.6499-.06-.7999-.25-.0101-.58-.1401-.79-.31-.36-.41-.58.07-.52-.01-.75-.4999-.34-.5599-.57-.21-.46-.24-.7.2899-.49.2899-.73z" fill="#cfbffe"/><g fill="#76fb8f"><path d="m20.52 168.03c-.16.32.1899.48.4199.76s.2101.3.4401.57.5799-.01.8099.26-.0499.51.1901.79.13.36.36.64.53.03.76.3.23.28.46.56-.0001.47.2299.75.39.14.63.42-.0099.49.2201.76.72-.13.95.15.19.31.43.59.05.43.28.71.23.28.47.55.06.42.3.7.28.24.51.52.16.34.4.62.36.17.59.45.2399.27.4699.55.3801.15.6101.43-.13.58.1.86.48.07.71.35.24.27.47.55.3701.17.6001.44.0499.44.2799.72.2399.27.4799.55.1301.37.3601.65.35.18.58.46.1901.32.4301.6.3199.21.5599.48.2101.3.4401.58.2499.27.4799.55.01.46.25.74.24.27.47.55.29.23.52.51.35.18.59.46.04.44.28.72.63-.05.87.23.11.27.45.42.24-.06.61-.06.3701.55.7301.55.3599-.56.7299-.56.36.43.73.43.37-.12.73-.12.37-.11.73-.11.37-.09.74-.09.37-.09.73-.09.3701.02.7301.02.3699.12.7299.12.37-.07.74-.07.37.15.74.15.37.38.74.38.37-.38.74-.38.37-.11.74-.11.37.54.74.54.37-.24.74-.24.37-.08.74-.08.3699-.04.7399-.04.3702.28.7402.28.4299 0 .5999-.33-.03-.25-.27-.53-.4799-.07-.7099-.35-.1201-.37-.3501-.65-.2-.31-.43-.58-.43-.11-.66-.39-.18-.32-.41-.6.0899-.55-.1401-.83-.4299-.11-.6599-.39-.33-.2-.56-.48-.2-.3-.44-.58-.2301-.28-.4601-.56-.0399-.44-.2699-.72-.33-.2-.56-.47-.38-.15-.61-.43.01-.48-.22-.76-.42-.12-.66-.4-.15-.34-.39-.62-.16-.34-.39-.62-.3001-.22-.5301-.5-.1199-.37-.3499-.65-.52-.03-.75-.31-.16-.34-.39-.61-.36-.17-.6-.44.24-.68.01-.96-.5501-.01-.7901-.29-.3499-.18-.5799-.46.08-.54-.16-.81-.26-.26-.49-.53-.5399-.02-.7799-.3-.0901-.4-.3301-.68-.28-.24-.51-.52-.1-.39-.33-.67-.12-.37-.35-.65-.11-.38-.34-.66-.43-.12-.66-.39-.1101-.38-.3501-.66-.5999.02-.8299-.26-.23-.28-.47-.57-.08-.28-.41-.44-.23-.63-.6-.63-.37.18-.73.18-.36.37-.73.37-.3601-.42-.7301-.42-.3699-.13-.7299-.13-.37.14-.73.14-.37.03-.74.03-.37.19-.73.19-.37.07-.73.07-.37-.21-.73-.21-.3699-.17-.7399-.17-.3702.25-.7402.25-.3699 0-.7399 0-.37-.25-.74-.25-.37.23-.74.23-.37-.24-.74-.24-.37.23-.74.23-.37.38-.74.38-.37-.42-.74-.42-.38.19-.74.09c-.46-.13-.7-.39-.87-.06z"/><path d="m20.52 168.03c-.16.32.1899.48.4199.76s.2101.3.4401.57.5799-.01.8099.26-.0499.51.1901.79.13.36.36.64.53.03.76.3.23.28.46.56-.0001.47.2299.75.39.14.63.42-.0099.49.2201.76.72-.13.95.15.19.31.43.59.05.43.28.71.23.28.47.55.06.42.3.7.28.24.51.52.16.34.4.62.36.17.59.45.2399.27.4699.55.3801.15.6101.43-.13.58.1.86.48.07.71.35.24.27.47.55.3701.17.6001.44.0499.44.2799.72.2399.27.4799.55.1301.37.3601.65.35.18.58.46.1901.32.4301.6.3199.21.5599.48.2101.3.4401.58.2499.27.4799.55.01.46.25.74.24.27.47.55.29.23.52.51.35.18.59.46.04.44.28.72.63-.05.87.23.11.27.45.42.24-.06.61-.06.3701.55.7301.55.3599-.56.7299-.56.36.43.73.43.37-.12.73-.12.37-.11.73-.11.37-.09.74-.09.37-.09.73-.09.3701.02.7301.02.3699.12.7299.12.37-.07.74-.07.37.15.74.15.37.38.74.38.37-.38.74-.38.37-.11.74-.11.37.54.74.54.37-.24.74-.24.37-.08.74-.08.3699-.04.7399-.04.3702.28.7402.28.4299 0 .5999-.33-.03-.25-.27-.53-.4799-.07-.7099-.35-.1201-.37-.3501-.65-.2-.31-.43-.58-.43-.11-.66-.39-.18-.32-.41-.6.0899-.55-.1401-.83-.4299-.11-.6599-.39-.33-.2-.56-.48-.2-.3-.44-.58-.2301-.28-.4601-.56-.0399-.44-.2699-.72-.33-.2-.56-.47-.38-.15-.61-.43.01-.48-.22-.76-.42-.12-.66-.4-.15-.34-.39-.62-.16-.34-.39-.62-.3001-.22-.5301-.5-.1199-.37-.3499-.65-.52-.03-.75-.31-.16-.34-.39-.61-.36-.17-.6-.44.24-.68.01-.96-.5501-.01-.7901-.29-.3499-.18-.5799-.46.08-.54-.16-.81-.26-.26-.49-.53-.5399-.02-.7799-.3-.0901-.4-.3301-.68-.28-.24-.51-.52-.1-.39-.33-.67-.12-.37-.35-.65-.11-.38-.34-.66-.43-.12-.66-.39-.1101-.38-.3501-.66-.5999.02-.8299-.26-.23-.28-.47-.57-.08-.28-.41-.44-.23-.63-.6-.63-.37.18-.73.18-.36.37-.73.37-.3601-.42-.7301-.42-.3699-.13-.7299-.13-.37.14-.73.14-.37.03-.74.03-.37.19-.73.19-.37.07-.73.07-.37-.21-.73-.21-.3699-.17-.7399-.17-.3702.25-.7402.25-.3699 0-.7399 0-.37-.25-.74-.25-.37.23-.74.23-.37-.24-.74-.24-.37.23-.74.23-.37.38-.74.38-.37-.42-.74-.42-.38.19-.74.09c-.46-.13-.7-.39-.87-.06z"/><path d="m6.01013 168.25c-.32-.15-.28-.49-.63-.49s-.34995.29-.69995.29-.35009.23-.71009.23-.47993-.61-.80993-.49c.03.24.20998.77.22998 1.01s.32997.45.34997.69.02004.48.04004.72-.07005.49-.05005.73.01004.48.04004.72.00002.48.02002.72-.35008.52-.33008.76.69009.42.71009.66.07997.48.09997.72-.46996.52-.45996.76.54994.45.55994.69-.55004.51-.54004.75.37.46.38.71-.11998.49-.10998.73.19006.48.19006.72v.72c0 .24.09997.49.08997.73s-.21998.48-.22998.72-.19008.47-.20008.71.16003.49.15003.73-.38003.45-.40003.69.39011.42.36011.66c.17.3.07993.34.29993.61s.35007.16.57007.42-.08011.52.13989.78.23007.25.45007.51.53 0 .75.27-.05996.5.16004.77.20993.28.42993.54.11997.35.34997.62.3801.14.6001.4.15.33.37.6.22992.41.54992.55c.33.15.44006-.42.81006-.42s.36998.48.72994.48c.36 0 .36-.18.73-.18s.36-.22.73-.22.37.52.73.52.37-.52.73-.52.3701-.1.7401-.1.37.5.73.5.3699-.17.7299-.17.37.23.73.23.37-.33.74-.33.37.26.74.26.37-.39.74-.39.37.4.74.4.37-.31.74-.31.3701.34.7401.34.37-.01.74-.01.37-.24.74-.24.37-.1.74-.1.3699.3.7399.3.32 0 .49-.34.23-.32 0-.6-.65.07-.88-.2-.2299-.28-.4599-.56-.13-.36-.36-.64-.2501-.26-.4801-.54-.1-.39-.33-.67-.0999-.39-.3299-.66-.3401-.19-.5701-.46-.37-.17-.6-.44-.15-.35-.38-.63-.17-.33-.41-.6-.33-.2-.56-.48-.21-.3-.44-.58-.27-.24-.51-.52 0-.47-.23-.75-.63.05-.86-.22.14-.59-.09-.87-.52-.04-.75-.31-.19-.31-.42-.59-.1-.38-.33-.66-.1199-.37-.3499-.65-.4701-.07-.7101-.35.02-.48-.22-.76-.4499-.09-.6899-.37-.4301-.11-.6601-.39.2701-.7.0301-.97-.4501-.09-.6801-.37-.37-.17-.6-.44-.34-.19-.57-.47 0-.47-.24-.75-.34998-.18-.57998-.46.12001-.58-.11999-.86-.22996-.28-.45996-.56-.4901-.06-.7201-.34-.19994-.3-.43994-.58-.10997-.39-.34997-.67-.65002.07-.89002-.21-.13999-.36-.36999-.64c-.22-.26-.06003-.37-.40003-.53z"/><path d="m6.01013 168.25c-.32-.15-.28-.49-.63-.49s-.34995.29-.69995.29-.35009.23-.71009.23-.47993-.61-.80993-.49c.03.24.20998.77.22998 1.01s.32997.45.34997.69.02004.48.04004.72-.07005.49-.05005.73.01004.48.04004.72.00002.48.02002.72-.35008.52-.33008.76.69009.42.71009.66.07997.48.09997.72-.46996.52-.45996.76.54994.45.55994.69-.55004.51-.54004.75.37.46.38.71-.11998.49-.10998.73.19006.48.19006.72v.72c0 .24.09997.49.08997.73s-.21998.48-.22998.72-.19008.47-.20008.71.16003.49.15003.73-.38003.45-.40003.69.39011.42.36011.66c.17.3.07993.34.29993.61s.35007.16.57007.42-.08011.52.13989.78.23007.25.45007.51.53 0 .75.27-.05996.5.16004.77.20993.28.42993.54.11997.35.34997.62.3801.14.6001.4.15.33.37.6.22992.41.54992.55c.33.15.44006-.42.81006-.42s.36998.48.72994.48c.36 0 .36-.18.73-.18s.36-.22.73-.22.37.52.73.52.37-.52.73-.52.3701-.1.7401-.1.37.5.73.5.3699-.17.7299-.17.37.23.73.23.37-.33.74-.33.37.26.74.26.37-.39.74-.39.37.4.74.4.37-.31.74-.31.3701.34.7401.34.37-.01.74-.01.37-.24.74-.24.37-.1.74-.1.3699.3.7399.3.32 0 .49-.34.23-.32 0-.6-.65.07-.88-.2-.2299-.28-.4599-.56-.13-.36-.36-.64-.2501-.26-.4801-.54-.1-.39-.33-.67-.0999-.39-.3299-.66-.3401-.19-.5701-.46-.37-.17-.6-.44-.15-.35-.38-.63-.17-.33-.41-.6-.33-.2-.56-.48-.21-.3-.44-.58-.27-.24-.51-.52 0-.47-.23-.75-.63.05-.86-.22.14-.59-.09-.87-.52-.04-.75-.31-.19-.31-.42-.59-.1-.38-.33-.66-.1199-.37-.3499-.65-.4701-.07-.7101-.35.02-.48-.22-.76-.4499-.09-.6899-.37-.4301-.11-.6601-.39.2701-.7.0301-.97-.4501-.09-.6801-.37-.37-.17-.6-.44-.34-.19-.57-.47 0-.47-.24-.75-.34998-.18-.57998-.46.12001-.58-.11999-.86-.22996-.28-.45996-.56-.4901-.06-.7201-.34-.19994-.3-.43994-.58-.10997-.39-.34997-.67-.65002.07-.89002-.21-.13999-.36-.36999-.64c-.22-.26-.06003-.37-.40003-.53z"/><path d="m69.2702 188.28c.24-.07.5-.02.72-.1.23-.09.6101.1.8201-.01s.3199-.46.5099-.6.36-.35.53-.51.07-.57.22-.76.33-.32.46-.53.6601-.19.7701-.41.2299-.45.3099-.68-.23-.58-.16-.82-.1-.5-.05-.74.43-.41.46-.65-.06-.49-.04-.73-.06-.48-.05-.72.1-.47.11-.72.23-.49.23-.73-.12-.48-.13-.72.19-.5.17-.74-.47-.33-.5-.57c-.18-.3-.08-.34-.31-.61s-.3199-.2-.5499-.47-.1901-.31-.4201-.58.05-.51-.18-.78-.27-.23-.5-.51-.46-.08-.69-.35-.15-.34-.38-.61-.45-.08-.68-.36-.13-.35-.36-.63.0701-.52-.1599-.79-.3401-.18-.5701-.45-.25-.26-.48-.53-.3499-.18-.5799-.45.12-.57-.11-.84-.7201.13-.9501-.14.22-.66 0-.93-.2-.53-.52-.68-.5.24-.87.24-.37.38-.73.38-.36-.12-.73-.12-.36-.37-.73-.37-.3699-.02-.7299-.02-.3701.53-.7301.53-.37-.05-.74-.05-.37.05-.73.05-.37-.14-.73-.14-.37-.51-.73-.51-.37.34-.74.34-.37-.01-.74-.01-.3699.11-.7399.11-.37-.22-.74-.22-.37.31-.74.31-.3701-.06-.7401-.06-.37.04-.74.04-.37-.28-.74-.28-.37-.05-.74-.05-.37.06-.74.06-.3899-.16-.5599.17-.1901.39.0299.66.58-.03.81.25.11.37.34.64.02.45.25.72.37.15.6.42.08.4.31.67.4201.12.6501.39.29.23.52.5.0299.44.2599.71.2601.25.4901.52.52.03.75.31.2299.27.4599.54.01.46.24.73.3001.22.5301.49.2199.28.4499.56.4401.1.6701.38-.0601.52.1699.79.34.18.57.45.11.37.33.65.49.05.72.32.3.22.52.49-.1.55.13.82.17.32.4.59.42.12.65.39.35.18.58.45.24.26.47.54.0001.47.2201.75.2299.28.4599.55.09.39.32.67.6201-.05.8501.22.2999.22.5299.49.18.31.41.59.27.24.5.51-.09.54.14.82.0601.42.2901.7.64-.06.87.21-.1701.61.0599.89.5401-.03.8301.18c.18-.1.2299-.14.4299-.23.19-.08.4-.19.62-.25z"/><path d="m69.2702 188.28c.24-.07.5-.02.72-.1.23-.09.6101.1.8201-.01s.3199-.46.5099-.6.36-.35.53-.51.07-.57.22-.76.33-.32.46-.53.6601-.19.7701-.41.2299-.45.3099-.68-.23-.58-.16-.82-.1-.5-.05-.74.43-.41.46-.65-.06-.49-.04-.73-.06-.48-.05-.72.1-.47.11-.72.23-.49.23-.73-.12-.48-.13-.72.19-.5.17-.74-.47-.33-.5-.57c-.18-.3-.08-.34-.31-.61s-.3199-.2-.5499-.47-.1901-.31-.4201-.58.05-.51-.18-.78-.27-.23-.5-.51-.46-.08-.69-.35-.15-.34-.38-.61-.45-.08-.68-.36-.13-.35-.36-.63.0701-.52-.1599-.79-.3401-.18-.5701-.45-.25-.26-.48-.53-.3499-.18-.5799-.45.12-.57-.11-.84-.7201.13-.9501-.14.22-.66 0-.93-.2-.53-.52-.68-.5.24-.87.24-.37.38-.73.38-.36-.12-.73-.12-.36-.37-.73-.37-.3699-.02-.7299-.02-.3701.53-.7301.53-.37-.05-.74-.05-.37.05-.73.05-.37-.14-.73-.14-.37-.51-.73-.51-.37.34-.74.34-.37-.01-.74-.01-.3699.11-.7399.11-.37-.22-.74-.22-.37.31-.74.31-.3701-.06-.7401-.06-.37.04-.74.04-.37-.28-.74-.28-.37-.05-.74-.05-.37.06-.74.06-.3899-.16-.5599.17-.1901.39.0299.66.58-.03.81.25.11.37.34.64.02.45.25.72.37.15.6.42.08.4.31.67.4201.12.6501.39.29.23.52.5.0299.44.2599.71.2601.25.4901.52.52.03.75.31.2299.27.4599.54.01.46.24.73.3001.22.5301.49.2199.28.4499.56.4401.1.6701.38-.0601.52.1699.79.34.18.57.45.11.37.33.65.49.05.72.32.3.22.52.49-.1.55.13.82.17.32.4.59.42.12.65.39.35.18.58.45.24.26.47.54.0001.47.2201.75.2299.28.4599.55.09.39.32.67.6201-.05.8501.22.2999.22.5299.49.18.31.41.59.27.24.5.51-.09.54.14.82.0601.42.2901.7.64-.06.87.21-.1701.61.0599.89.5401-.03.8301.18c.18-.1.2299-.14.4299-.23.19-.08.4-.19.62-.25z"/><path d="m20.52 168.03c-.16.32.1899.48.4199.76s.2101.3.4401.57.5799-.01.8099.26-.0499.51.1901.79.13.36.36.64.53.03.76.3.23.28.46.56-.0001.47.2299.75.39.14.63.42-.0099.49.2201.76.72-.13.95.15.19.31.43.59.05.43.28.71.23.28.47.55.06.42.3.7.28.24.51.52.16.34.4.62.36.17.59.45.2399.27.4699.55.3801.15.6101.43-.13.58.1.86.48.07.71.35.24.27.47.55.3701.17.6001.44.0499.44.2799.72.2399.27.4799.55.1301.37.3601.65.35.18.58.46.1901.32.4301.6.3199.21.5599.48.2101.3.4401.58.2499.27.4799.55.01.46.25.74.24.27.47.55.29.23.52.51.35.18.59.46.04.44.28.72.63-.05.87.23.11.27.45.42.24-.06.61-.06.3701.55.7301.55.3599-.56.7299-.56.36.43.73.43.37-.12.73-.12.37-.11.73-.11.37-.09.74-.09.37-.09.73-.09.3701.02.7301.02.3699.12.7299.12.37-.07.74-.07.37.15.74.15.37.38.74.38.37-.38.74-.38.37-.11.74-.11.37.54.74.54.37-.24.74-.24.37-.08.74-.08.3699-.04.7399-.04.3702.28.7402.28.4299 0 .5999-.33-.03-.25-.27-.53-.4799-.07-.7099-.35-.1201-.37-.3501-.65-.2-.31-.43-.58-.43-.11-.66-.39-.18-.32-.41-.6.0899-.55-.1401-.83-.4299-.11-.6599-.39-.33-.2-.56-.48-.2-.3-.44-.58-.2301-.28-.4601-.56-.0399-.44-.2699-.72-.33-.2-.56-.47-.38-.15-.61-.43.01-.48-.22-.76-.42-.12-.66-.4-.15-.34-.39-.62-.16-.34-.39-.62-.3001-.22-.5301-.5-.1199-.37-.3499-.65-.52-.03-.75-.31-.16-.34-.39-.61-.36-.17-.6-.44.24-.68.01-.96-.5501-.01-.7901-.29-.3499-.18-.5799-.46.08-.54-.16-.81-.26-.26-.49-.53-.5399-.02-.7799-.3-.0901-.4-.3301-.68-.28-.24-.51-.52-.1-.39-.33-.67-.12-.37-.35-.65-.11-.38-.34-.66-.43-.12-.66-.39-.1101-.38-.3501-.66-.5999.02-.8299-.26-.23-.28-.47-.57-.08-.28-.41-.44-.23-.63-.6-.63-.37.18-.73.18-.36.37-.73.37-.3601-.42-.7301-.42-.3699-.13-.7299-.13-.37.14-.73.14-.37.03-.74.03-.37.19-.73.19-.37.07-.73.07-.37-.21-.73-.21-.3699-.17-.7399-.17-.3702.25-.7402.25-.3699 0-.7399 0-.37-.25-.74-.25-.37.23-.74.23-.37-.24-.74-.24-.37.23-.74.23-.37.38-.74.38-.37-.42-.74-.42-.38.19-.74.09c-.46-.13-.7-.39-.87-.06z"/><path d="m6.01013 168.25c-.32-.15-.28-.49-.63-.49s-.34995.29-.69995.29-.35009.23-.71009.23-.47993-.61-.80993-.49c.03.24.20998.77.22998 1.01s.32997.45.34997.69.02004.48.04004.72-.07005.49-.05005.73.01004.48.04004.72.00002.48.02002.72-.35008.52-.33008.76.69009.42.71009.66.07997.48.09997.72-.46996.52-.45996.76.54994.45.55994.69-.55004.51-.54004.75.37.46.38.71-.11998.49-.10998.73.19006.48.19006.72v.72c0 .24.09997.49.08997.73s-.21998.48-.22998.72-.19008.47-.20008.71.16003.49.15003.73-.38003.45-.40003.69.39011.42.36011.66c.17.3.07993.34.29993.61s.35007.16.57007.42-.08011.52.13989.78.23007.25.45007.51.53 0 .75.27-.05996.5.16004.77.20993.28.42993.54.11997.35.34997.62.3801.14.6001.4.15.33.37.6.22992.41.54992.55c.33.15.44006-.42.81006-.42s.36998.48.72994.48c.36 0 .36-.18.73-.18s.36-.22.73-.22.37.52.73.52.37-.52.73-.52.3701-.1.7401-.1.37.5.73.5.3699-.17.7299-.17.37.23.73.23.37-.33.74-.33.37.26.74.26.37-.39.74-.39.37.4.74.4.37-.31.74-.31.3701.34.7401.34.37-.01.74-.01.37-.24.74-.24.37-.1.74-.1.3699.3.7399.3.32 0 .49-.34.23-.32 0-.6-.65.07-.88-.2-.2299-.28-.4599-.56-.13-.36-.36-.64-.2501-.26-.4801-.54-.1-.39-.33-.67-.0999-.39-.3299-.66-.3401-.19-.5701-.46-.37-.17-.6-.44-.15-.35-.38-.63-.17-.33-.41-.6-.33-.2-.56-.48-.21-.3-.44-.58-.27-.24-.51-.52 0-.47-.23-.75-.63.05-.86-.22.14-.59-.09-.87-.52-.04-.75-.31-.19-.31-.42-.59-.1-.38-.33-.66-.1199-.37-.3499-.65-.4701-.07-.7101-.35.02-.48-.22-.76-.4499-.09-.6899-.37-.4301-.11-.6601-.39.2701-.7.0301-.97-.4501-.09-.6801-.37-.37-.17-.6-.44-.34-.19-.57-.47 0-.47-.24-.75-.34998-.18-.57998-.46.12001-.58-.11999-.86-.22996-.28-.45996-.56-.4901-.06-.7201-.34-.19994-.3-.43994-.58-.10997-.39-.34997-.67-.65002.07-.89002-.21-.13999-.36-.36999-.64c-.22-.26-.06003-.37-.40003-.53z"/><path d="m69.2702 188.28c.24-.07.5-.02.72-.1.23-.09.6101.1.8201-.01s.3199-.46.5099-.6.36-.35.53-.51.07-.57.22-.76.33-.32.46-.53.6601-.19.7701-.41.2299-.45.3099-.68-.23-.58-.16-.82-.1-.5-.05-.74.43-.41.46-.65-.06-.49-.04-.73-.06-.48-.05-.72.1-.47.11-.72.23-.49.23-.73-.12-.48-.13-.72.19-.5.17-.74-.47-.33-.5-.57c-.18-.3-.08-.34-.31-.61s-.3199-.2-.5499-.47-.1901-.31-.4201-.58.05-.51-.18-.78-.27-.23-.5-.51-.46-.08-.69-.35-.15-.34-.38-.61-.45-.08-.68-.36-.13-.35-.36-.63.0701-.52-.1599-.79-.3401-.18-.5701-.45-.25-.26-.48-.53-.3499-.18-.5799-.45.12-.57-.11-.84-.7201.13-.9501-.14.22-.66 0-.93-.2-.53-.52-.68-.5.24-.87.24-.37.38-.73.38-.36-.12-.73-.12-.36-.37-.73-.37-.3699-.02-.7299-.02-.3701.53-.7301.53-.37-.05-.74-.05-.37.05-.73.05-.37-.14-.73-.14-.37-.51-.73-.51-.37.34-.74.34-.37-.01-.74-.01-.3699.11-.7399.11-.37-.22-.74-.22-.37.31-.74.31-.3701-.06-.7401-.06-.37.04-.74.04-.37-.28-.74-.28-.37-.05-.74-.05-.37.06-.74.06-.3899-.16-.5599.17-.1901.39.0299.66.58-.03.81.25.11.37.34.64.02.45.25.72.37.15.6.42.08.4.31.67.4201.12.6501.39.29.23.52.5.0299.44.2599.71.2601.25.4901.52.52.03.75.31.2299.27.4599.54.01.46.24.73.3001.22.5301.49.2199.28.4499.56.4401.1.6701.38-.0601.52.1699.79.34.18.57.45.11.37.33.65.49.05.72.32.3.22.52.49-.1.55.13.82.17.32.4.59.42.12.65.39.35.18.58.45.24.26.47.54.0001.47.2201.75.2299.28.4599.55.09.39.32.67.6201-.05.8501.22.2999.22.5299.49.18.31.41.59.27.24.5.51-.09.54.14.82.0601.42.2901.7.64-.06.87.21-.1701.61.0599.89.5401-.03.8301.18c.18-.1.2299-.14.4299-.23.19-.08.4-.19.62-.25z"/></g><path d="m61.7701 21.85c-.35-.06-.41.31-.76.25s-.3-.35-.65-.41-.41.33-.76.27-.37.05-.72 0-.34-.13-.69-.18-.34-.1-.69-.16-.3599.01-.7099-.05-.29-.45-.63-.51-.3301-.15-.6801-.21-.43.44-.78.38-.26-.61-.61-.66-.4.22-.75.16-.38.14-.74.08c-.24-.04-.4-.04-.62.02s-.35.16-.54.3-.2699.27-.3999.47-.5801.22-.6501.45c-.06.21.24.49.24.73 0 .36-.0899.36-.0899.71s.0999.36.0999.71-.42.36-.42.71.3301.36.3301.71-.3201.36-.3201.71.02.36.02.71.0501.35.0501.71-.1801.35-.1801.71.4401.35.4401.71-.0801.36-.0801.71-.1999.36-.1999.71-.11.36-.11.71.0899.36.0899.71.22.36.22.71.02.36.02.72.14.36.14.71-.4.36-.4.71.0401.36.0401.72.4199.36.4199.72-.55.36-.55.71.5301.36.5301.71-.12.36-.12.72-.39.36-.39.72.0199.36.0199.72.3601.36.3601.72c0 .28.04.51.12.75.09.26.0599.59.2199.79.17.21.37.49.6.61s.58.25.85.25c.37 0 .37-.14.74-.14s.37-.29.74-.29h.7401c.37 0 .37.47.74.47s.37-.32.74-.32.37.14.74.14.3699.03.7399.03.37-.28.74-.28.37-.02.74-.02.37.29.74.29.37-.03.74-.03.37.03.74.03.37-.39.75-.39.37.1.75.1c.23 0 .41-.01.61-.1s.6801.15.8501 0 0-.62.11-.82.08-.41.12-.64c.04-.21.4599-.43.4399-.66-.03-.36-.06-.35-.09-.71s-.23-.34-.26-.69-.12-.35-.15-.7.28-.38.25-.73.02-.36-.01-.71-.11-.35-.14-.7-.28-.33-.31-.69-.21-.34-.24-.7.53-.4.5-.76-.4-.33-.43-.68-.19-.34-.22-.7.04-.36.01-.71.17-.37.14-.73-.35-.33-.38-.69.1801-.37.1501-.73.15-.37.13-.73-.0001-.36-.0301-.71-.35-.33-.38-.69-.0799-.35-.1099-.71.28-.38.25-.74-.08-.35-.11-.71-.3101-.34-.3401-.69.46-.4.43-.76c-.02-.23-.4999-.35-.5799-.56-.08-.22.2999-.71.1599-.89s-.63-.04-.82-.16-.31-.57-.53-.61z" stroke="#000" stroke-linecap="round" stroke-linejoin="round" stroke-width="2.6"/><path d="m52.55 19.54c-.36 0-.36-.03-.72-.03s-.36.17-.72.17-.36-.24-.72-.24-.36.55-.72.55-.36.1-.72.1-.36-.45-.72-.45-.36.19-.72.19-.36-.16-.72-.16-.3601.05-.7201.05-.3599.24-.7199.24-.36.02-.72.02-.36.1-.72.1-.3601-.59-.7201-.59-.3599.49-.7199.49-.36 0-.72 0-.36-.35-.72-.35-.3599-.04-.7199-.04-.3601.47-.7301.47-.36-.59-.72-.59-.36.17-.72.17-.36.18-.72.18-.36.22-.72.22-.36-.26-.72-.26-.36-.07-.72-.07-.36.15-.72.15-.3601.12-.7201.12-.3599-.07-.7299-.07-.36.14-.73.14-.36-.1-.73-.1-.36-.14-.72-.14-.3601-.04-.7201-.04-.3599-.23-.7199-.23-.36.41-.72.41-.36-.31-.73-.31-.36.19-.73.19-.3599-.15-.7299-.15-.3601-.07-.7301-.07-.36.08-.73.08-.36.37-.72.37-.36-.49-.72-.49-.3601.44-.7201.44-.3599-.06-.7299-.06-.36-.21-.73-.21-.36-.01-.73-.01-.36.29-.72.29-.36.04-.73.04-.3601-.16-.7301-.16-.3599.18-.7299.18-.36-.59-.73-.59-.36-.03-.73-.03-.36.48-.73.48-.36 0-.73 0-.3601-.22-.7301-.22-.3699.11-.7299.11-.37.28-.73.28-.37-.07-.73-.07-.37.06-.74.06c-.23 0-.44-.21-.65-.15s-.35.23-.53.36c-.18004.13-.38005.19-.51005.38s-.3.33-.37.56c-.06.21 0 .43 0 .67 0 .36-.3999.36-.3999.72s.47998.36.47998.72-.15003.36-.15003.72.30994.36.30994.72-.65991.36-.65991.72.30994.36.30994.72.02002.36.02002.72-.16004.36-.16004.71.45007.36.45007.71v.72c0 .36-.04003.36-.04003.72s-.12.36-.12.72-.16003.36-.16003.72-.02991.36-.02991.72-.12.36-.12.72.25989.36.25989.72-.27991.36-.27991.72.30994.36.30994.72-.03992.36-.03992.72-.28003.36-.28003.72.46998.36.46998.72-.62.36-.62.72.39001.36.39001.72-.23999.36-.23999.72.04993.36.04993.73.4801.36.4801.73c0 .28-.17008.5-.09008.74.09.26-.04001.65.11999.85.17.21.58004.15.82004.27s.44.48.71.48c.36 0 .36.12.71.12s.36-.15.71-.15.36-.07.71-.07.36.25.71.25h.72c.36 0 .36-.39.72-.39s.36.13.71.13h.7099c.35 0 .3601.26.7101.26s.35-.28.71-.28.3499-.29.7099-.29.3501.41.7101.41.36-.31.71-.31.36-.21.71-.21.36.15.71.15.36.23.71.23.36.05.71.05.36.15.72.15.36-.32.72-.32.36.38.71.38.3599-.48.7099-.48.3601.4.7101.4.36-.25.71-.25.3599.34.7099.34.3601-.6.7101-.6.36-.02.71-.02.36.11.71.11.36.37.71.37.36-.29.71-.29.36-.19.71-.19.36.17.71.17.36.31.71.31.36-.14.71-.14.3601-.25.7201-.25.3599.44.7199.44.36-.45.72-.45.36.29.72.29.36.07.71.07.36-.15.71-.15.36-.05.71-.05.3601.28.7101.28.3599-.3.7099-.3.36.37.71.37.3599-.33.7199-.33.3601.4.7201.4.36-.66.72-.66.36.62.72.62.36-.08.72-.08.36-.11.72-.11.36.12.72.12.36-.16.72-.16.36-.04.72-.04.36.23.72.23.36-.45.72-.45.36.11.72.11.36.33.72.33.36-.33.71-.33.36.06.71.06.36.12.71.12.3601.08.7201.08.3599-.32.7199-.32.36.29.72.29.36.06.72.06.3599-.36.7199-.36.3601.46.7201.46.36-.19.72-.19.36-.41.72-.41.3599.61.7199.61.3601-.52.7201-.52.36.1.72.1.36.15.72.15.36.21.72.21.36-.56.72-.56.36.23.73.23.5.55.84.42-.1401-.57-.1701-1.03c-.01-.2-.0899-.44-.1099-.71-.02-.22.16-.47.14-.73-.02-.22-.05-.46-.07-.71-.02-.23-.46-.44-.48-.69-.02-.23.12-.48.1-.73s.38-.5.36-.75-.5-.44-.52-.68.39-.5.37-.75-.05-.48-.07-.72.11-.48.09-.72-.11-.47-.13-.71-.63-.44-.64-.68.54-.52.53-.76-.24-.47-.26-.71-.02-.49-.04-.73.03-.49.02-.73-.02-.48-.03-.72.19-.5.17-.74-.46-.46-.48-.69c-.02-.25.33-.51.31-.75-.02-.25-.3701-.47-.3901-.7-.02-.25-.0899-.49-.0999-.72-.02-.26.04-.5.02-.72-.02-.27 0-.51 0-.72-.02-.36.27-.62.27-.73-.01-.24-.18-.48-.22-.68-.04-.23-.1101-.5-.21-.69-.1-.19-.39-.29-.57-.44-.16-.13-.33-.3-.55-.39-.19-.08-.46.05-.7 0-.17-.04-.32-.44-.6-.5-.2-.05-.45-.03-.69-.09-.21-.05-.51.2-.75.15-.22-.05-.45-.09-.68-.15-.22-.05-.39-.34-.62-.39s-.44-.17-.67-.23-.4501-.13-.6801-.19-.4299-.25-.6499-.3-.52.16-.75.11c-.24-.05-.47-.12-.69-.17-.24-.05-.44-.25-.65-.3-.26-.05-.47-.2-.67-.24-.34-.06-.63-.03-.75-.03z" fill="#fff"/><path d="m52.55 19.54c-.36 0-.36-.03-.72-.03s-.36.17-.72.17-.36-.24-.72-.24-.36.55-.72.55-.36.1-.72.1-.36-.45-.72-.45-.36.19-.72.19-.36-.16-.72-.16-.3601.05-.7201.05-.3599.24-.7199.24-.36.02-.72.02-.36.1-.72.1-.3601-.59-.7201-.59-.3599.49-.7199.49-.36 0-.72 0-.36-.35-.72-.35-.3599-.04-.7199-.04-.3601.47-.7301.47-.36-.59-.72-.59-.36.17-.72.17-.36.18-.72.18-.36.22-.72.22-.36-.26-.72-.26-.36-.07-.72-.07-.36.15-.72.15-.3601.12-.7201.12-.3599-.07-.7299-.07-.36.14-.73.14-.36-.1-.73-.1-.36-.14-.72-.14-.3601-.04-.7201-.04-.3599-.23-.7199-.23-.36.41-.72.41-.36-.31-.73-.31-.36.19-.73.19-.3599-.15-.7299-.15-.3601-.07-.7301-.07-.36.08-.73.08-.36.37-.72.37-.36-.49-.72-.49-.3601.44-.7201.44-.3599-.06-.7299-.06-.36-.21-.73-.21-.36-.01-.73-.01-.36.29-.72.29-.36.04-.73.04-.3601-.16-.7301-.16-.3599.18-.7299.18-.36-.59-.73-.59-.36-.03-.73-.03-.36.48-.73.48-.36 0-.73 0-.3601-.22-.7301-.22-.3699.11-.7299.11-.37.28-.73.28-.37-.07-.73-.07-.37.06-.74.06c-.23 0-.44-.21-.65-.15s-.35.23-.53.36c-.18004.13-.38005.19-.51005.38s-.3.33-.37.56c-.06.21 0 .43 0 .67 0 .36-.3999.36-.3999.72s.47998.36.47998.72-.15003.36-.15003.72.30994.36.30994.72-.65991.36-.65991.72.30994.36.30994.72.02002.36.02002.72-.16004.36-.16004.71.45007.36.45007.71v.72c0 .36-.04003.36-.04003.72s-.12.36-.12.72-.16003.36-.16003.72-.02991.36-.02991.72-.12.36-.12.72.25989.36.25989.72-.27991.36-.27991.72.30994.36.30994.72-.03992.36-.03992.72-.28003.36-.28003.72.46998.36.46998.72-.62.36-.62.72.39001.36.39001.72-.23999.36-.23999.72.04993.36.04993.73.4801.36.4801.73c0 .28-.17008.5-.09008.74.09.26-.04001.65.11999.85.17.21.58004.15.82004.27s.44.48.71.48c.36 0 .36.12.71.12s.36-.15.71-.15.36-.07.71-.07.36.25.71.25h.72c.36 0 .36-.39.72-.39s.36.13.71.13h.7099c.35 0 .3601.26.7101.26s.35-.28.71-.28.3499-.29.7099-.29.3501.41.7101.41.36-.31.71-.31.36-.21.71-.21.36.15.71.15.36.23.71.23.36.05.71.05.36.15.72.15.36-.32.72-.32.36.38.71.38.3599-.48.7099-.48.3601.4.7101.4.36-.25.71-.25.3599.34.7099.34.3601-.6.7101-.6.36-.02.71-.02.36.11.71.11.36.37.71.37.36-.29.71-.29.36-.19.71-.19.36.17.71.17.36.31.71.31.36-.14.71-.14.3601-.25.7201-.25.3599.44.7199.44.36-.45.72-.45.36.29.72.29.36.07.71.07.36-.15.71-.15.36-.05.71-.05.3601.28.7101.28.3599-.3.7099-.3.36.37.71.37.3599-.33.7199-.33.3601.4.7201.4.36-.66.72-.66.36.62.72.62.36-.08.72-.08.36-.11.72-.11.36.12.72.12.36-.16.72-.16.36-.04.72-.04.36.23.72.23.36-.45.72-.45.36.11.72.11.36.33.72.33.36-.33.71-.33.36.06.71.06.36.12.71.12.3601.08.7201.08.3599-.32.7199-.32.36.29.72.29.36.06.72.06.3599-.36.7199-.36.3601.46.7201.46.36-.19.72-.19.36-.41.72-.41.3599.61.7199.61.3601-.52.7201-.52.36.1.72.1.36.15.72.15.36.21.72.21.36-.56.72-.56.36.23.73.23.5.55.84.42-.1401-.57-.1701-1.03c-.01-.2-.0899-.44-.1099-.71-.02-.22.16-.47.14-.73-.02-.22-.05-.46-.07-.71-.02-.23-.46-.44-.48-.69-.02-.23.12-.48.1-.73s.38-.5.36-.75-.5-.44-.52-.68.39-.5.37-.75-.05-.48-.07-.72.11-.48.09-.72-.11-.47-.13-.71-.63-.44-.64-.68.54-.52.53-.76-.24-.47-.26-.71-.02-.49-.04-.73.03-.49.02-.73-.02-.48-.03-.72.19-.5.17-.74-.46-.46-.48-.69c-.02-.25.33-.51.31-.75-.02-.25-.3701-.47-.3901-.7-.02-.25-.0899-.49-.0999-.72-.02-.26.04-.5.02-.72-.02-.27 0-.51 0-.72-.02-.36.27-.62.27-.73-.01-.24-.18-.48-.22-.68-.04-.23-.11-.5-.21-.69s-.39-.29-.57-.44c-.16-.13-.33-.3-.55-.39-.19-.08-.46.05-.7 0-.17-.04-.32-.44-.6-.5-.2-.05-.45-.03-.69-.09-.21-.05-.51.2-.75.15-.22-.05-.45-.09-.68-.15-.22-.05-.39-.34-.62-.39s-.44-.17-.67-.23-.4501-.13-.6801-.19-.4299-.25-.6499-.3-.52.16-.75.11c-.24-.05-.47-.12-.69-.17-.24-.05-.44-.25-.65-.3-.26-.05-.47-.2-.67-.24-.34-.06-.63-.03-.75-.03z" stroke="#000" stroke-linecap="round" stroke-linejoin="round" stroke-width="2.6"/><path d="m20.3705 22c-.35-.06-.3201-.2-.6701-.26s-.41.34-.76.29-.3099-.33-.6599-.38-.3501-.06-.7001-.12-.3899.17-.7299.11-.32-.21-.67-.27-.34-.1-.69-.16-.4.27-.75.21-.37.08-.72.03-.25-.68-.6-.74-.4.24-.75.18-.35-.06-.7-.12-.4101.28-.7601.22c-.24-.04-.3599-.17-.5799-.12s-.64996-.26-.82996-.12-.34011.41-.48011.61-.01996.52-.08996.75c-.06.21-.37.43-.37.67 0 .36.56006.36.56006.71s-.26001.36-.26001.71-.16003.36-.16003.71.32995.36.32995.71-.29992.36-.29992.71.09997.36.09997.71.08997.35.08997.71-.08997.35-.08997.71.27002.35.27002.71-.46997.36-.46997.71.12.36.12.71-.05005.36-.05005.71-.18994.36-.18994.71.09997.36.09997.71.42993.36.42993.72-.09997.36-.09997.71.16003.36.16003.71-.28003.36-.28003.72-.07995.36-.07995.72-.08008.36-.08008.71.1001.36.1001.71.16992.36.16992.72-.40003.36-.40003.72.25.36.25.72.07007.36.07007.72c0 .28-.01005.55.06995.79.09.26.00002.69.15002.89.17.21.46996.49.70992.6.24.11.6501-.29.9301-.29.37 0 .37.06.74.06s.37.06.74.06.37-.03.74-.03.37.39.74.39.3699-.19.7399-.19.37-.09.74-.09.37.29.74.29.3701-.43.7401-.43.37-.11.74-.11.37.22.74.22.37-.11.74-.11.37.12.74.12.37-.1.75-.1.37-.04.75-.04c.23 0 .32-.24.53-.32s.65.22.81.06.15-.48.26-.68.48-.34.52-.57c.04-.21-.33-.49-.35-.72-.03-.36.09-.36.06-.72s-.0001-.36-.0301-.71-.1899-.34-.2199-.7.17-.37.14-.72-.19-.34-.22-.69-.12-.35-.14-.7.5-.39.47-.75-.31-.33-.33-.69-.38-.33-.41-.68.59-.4.56-.76-.13-.35-.16-.7-.56-.31-.58-.67.47-.4.44-.75-.53-.32-.56-.67.47-.39.44-.75-.12-.35-.14-.71-.2-.34-.22-.7.38-.39.36-.74-.59-.31-.61-.67.26-.38.24-.74-.06-.36-.09-.71.22-.38.19-.74-.48-.32-.51-.68c-.02-.23-.1901-.36-.2701-.56-.08-.22.28-.67.14-.85s-.3999-.34-.5899-.46-.47-.2-.7-.23z" fill="#cfbffe"/><path d="m20.3705 22c-.35-.06-.3201-.2-.6701-.26s-.41.34-.76.29-.3099-.33-.6599-.38-.3501-.06-.7001-.12-.3899.17-.7299.11-.32-.21-.67-.27-.34-.1-.69-.16-.4.27-.75.21-.37.08-.72.03-.25-.68-.6-.74-.4.24-.75.18-.35-.06-.7-.12-.4101.28-.7601.22c-.24-.04-.3599-.17-.5799-.12s-.64996-.26-.82996-.12-.34011.41-.48011.61-.01996.52-.08996.75c-.06.21-.37.43-.37.67 0 .36.56006.36.56006.71s-.26001.36-.26001.71-.16003.36-.16003.71.32995.36.32995.71-.29992.36-.29992.71.09997.36.09997.71.08997.35.08997.71-.08997.35-.08997.71.27002.35.27002.71-.46997.36-.46997.71.12.36.12.71-.05005.36-.05005.71-.18994.36-.18994.71.09997.36.09997.71.42993.36.42993.72-.09997.36-.09997.71.16003.36.16003.71-.28003.36-.28003.72-.07995.36-.07995.72-.08008.36-.08008.71.1001.36.1001.71.16992.36.16992.72-.40003.36-.40003.72.25.36.25.72.07007.36.07007.72c0 .28-.01005.55.06995.79.09.26.00002.69.15002.89.17.21.46996.49.70992.6.24.11.6501-.29.9301-.29.37 0 .37.06.74.06s.37.06.74.06.37-.03.74-.03.37.39.74.39.3699-.19.7399-.19.37-.09.74-.09.37.29.74.29.3701-.43.7401-.43.37-.11.74-.11.37.22.74.22.37-.11.74-.11.37.12.74.12.37-.1.75-.1.37-.04.75-.04c.23 0 .32-.24.53-.32s.65.22.81.06.15-.48.26-.68.48-.34.52-.57c.04-.21-.33-.49-.35-.72-.03-.36.09-.36.06-.72s-.0001-.36-.0301-.71-.1899-.34-.2199-.7.17-.37.14-.72-.19-.34-.22-.69-.12-.35-.14-.7.5-.39.47-.75-.31-.33-.33-.69-.38-.33-.41-.68.59-.4.56-.76-.13-.35-.16-.7-.56-.31-.58-.67.47-.4.44-.75-.53-.32-.56-.67.47-.39.44-.75-.12-.35-.14-.71-.2-.34-.22-.7.38-.39.36-.74-.59-.31-.61-.67.26-.38.24-.74-.06-.36-.09-.71.22-.38.19-.74-.48-.32-.51-.68c-.02-.23-.1901-.36-.2701-.56-.08-.22.28-.67.14-.85s-.3999-.34-.5899-.46-.47-.2-.7-.23z" stroke="#000" stroke-linecap="round" stroke-linejoin="round" stroke-width="2.6"/><path d="m27.1802 25.49c.36 0 .3599.3.7199.3s.36-.26.72-.26.36.13.72.13.3601.42.7201.42.36-.22.72-.22.3599-.29.7199-.29.36.33.72.33.36-.38.72-.38.3601.29.7201.29.3599-.3.7199-.3.36.57.72.57.36-.23.72-.23.3601.33.7201.33.3599-.2.7199-.2.36-.43.72-.43.36.44.72.44.3601-.11.7201-.11.3599-.3.7199-.3.36.08.72.08.36.37.72.37.3601-.32.7201-.32.3599.07.7199.07.36.14.72.14.36-.35.72-.35.3601.28.7201.28.3599.1.7199.1.36.08.72.08h.71c.35 0 .3601-.24.7201-.24s.3599.2.7199.2.36-.41.72-.41.36-.07.72-.07.3601.47.7201.47.3599-.39.7199-.39.36.17.72.17.36.02.72.02.3601-.26.7201-.26.36.68.72.68.3599-.08.7199-.08.36-.16.72-.16.36-.27.72-.27.3601-.06.7201-.06.3599.21.7299.21.36.23.73.23h.73c.37 0 .36-.08.73-.08" stroke="#000" stroke-linecap="round" stroke-linejoin="round" stroke-width="2.6"/><path d="m22.6001 14.74c0-.25.01-.48.02-.68 0-.26-.04-.49-.04-.68 0-.28.26-.5.26-.68 0-.27.02-.48.03-.68s-.26-.41-.25-.68c0-.19-.31-.41-.3-.68 0-.2.63-.42.63-.68002 0-.21-.13-.43-.13-.69 0-.24.06-.46996.06-.70996s-.16-.48003-.13-.72003.08-.47002.13-.70002-.0499-.51999.0401-.73999c.09-.23.25-.43996.37-.64996s.5399-.20002.6999-.39002.09-.56998.27-.72998.52-.12001.71-.26001.2501-.50999.4601-.61999.5799.11997.8099.02997.35-.45001.59-.51001.4801-.03997.7101-.08997.4699-.05998.6999-.10998.39-.45.62-.5.49.01998.72-.02002.47-.11002.7-.14002.52.25003.75.22003.43-.35.66-.38.5101.30998.7401.28998.4699.07.7099.06.45-.3.69-.31.47-.06001.7-.07001.47-.08997.71-.08997.4601.42.6901.43.4699-.06004.6999-.04004.48-.24998.72-.22998.4501.14999.6901.17999.4999-.23996.7299-.20996.45.14999.69.17999.41.42997.64.46997.4801-.06002.7101-.02002.52-.22999.75-.17999.4199.30004.6499.35004.54-.23.77-.18.38.44995.6.50995.36.33005.57.42005.51-.00003.71.09997.27.41999.46.54999.6901-.12999.8601.01001.21.48001.37.64001.3799.29998.5299.46998c.15.19.32.36004.45.55004.13.2.34.37001.44.57001.11.22-.02.53999.05.73999.08.23.3.42998.34.65998.05.23999-.2199.53-.1899.75.03.26.2899.48.2999.69.01.29.18.54.18.71 0 .36-.31.36-.31.73s-.0299.36-.0299.72-.02.36-.02.73.2799.36.2799.73-.2699.37-.2699.73-.1101.37-.1101.73c0 .2.18.42.15.65s.0001.45-.0499.66c-.06.22-.0601.47-.1401.66-.09.21-.17.48-.3.66s-.65 0-.83.14-.17.49-.37.61-.35.32-.56.41-.5699-.22-.7799-.14-.31.5-.52.57c-.24.07-.51 0-.75.06s-.51-.03-.75.03-.3901.51-.6301.56-.46.25-.7.29-.51-.04-.75 0-.49.1-.73.13-.55-.53-.79-.51-.45.45-.7.46-.5-.21-.75-.2-.48.06-.73.07-.49.19-.73.19-.4899.25-.7399.25-.49-.28-.73-.29-.5001.22-.7401.21-.47-.41-.71-.42-.51.32-.76.3-.47-.35-.71-.37-.48-.07-.73-.09-.48-.13-.72-.15-.5199.29-.7699.26-.4801-.15-.7201-.17-.46-.28-.7-.31c-.25-.03-.48-.15-.72-.19s-.56.4-.81.36-.52-.02-.76-.08-.4099-.41-.6499-.48-.3801-.36-.6101-.46c-.21-.09-.44-.12-.63-.21-.21-.1-.36-.24-.54-.36-.19-.13-.63.07-.79-.09s-.0799-.52-.1899-.72c-.1-.18-.1701-.37-.2301-.61s-.42-.48-.44-.75c-.03-.42.21-.41.22-.81z" fill="#76fb8f"/><path d="m22.6001 14.74c0-.25.01-.48.02-.68 0-.26-.04-.49-.04-.68 0-.28.26-.5.26-.68 0-.27.02-.48.03-.68s-.26-.41-.25-.68c0-.19-.31-.41-.3-.68 0-.2.63-.42.63-.68002 0-.21-.13-.43-.13-.69 0-.24.06-.46996.06-.70996s-.16-.48003-.13-.72003.08-.47002.13-.70002-.0499-.51999.0401-.73999c.09-.23.25-.43996.37-.64996s.5399-.20002.6999-.39002.09-.56998.27-.72998.52-.12001.71-.26001.2501-.50999.4601-.61999.5799.11997.8099.02997.35-.45001.59-.51001.4801-.03997.7101-.08997.4699-.05998.6999-.10998.39-.45.62-.5.49.01998.72-.02002.47-.11002.7-.14002.52.25003.75.22003.43-.35.66-.38.5101.30998.7401.28998.4699.07.7099.06.45-.3.69-.31.47-.06001.7-.07001.47-.08997.71-.08997.4601.42.6901.43.4699-.06004.6999-.04004.48-.24998.72-.22998.4501.14999.6901.17999.4999-.23996.7299-.20996.45.14999.69.17999.41.42997.64.46997.4801-.06002.7101-.02002.52-.22999.75-.17999.4199.30004.6499.35004.54-.23.77-.18.38.44995.6.50995.36.33005.57.42005.51-.00003.71.09997.27.41999.46.54999.6901-.12999.8601.01001.21.48001.37.64001.3799.29998.5299.46998c.15.19.32.36004.45.55004.13.2.34.37001.44.57001.11.22-.02.53999.05.73999.08.23.3.42998.34.65998.05.24-.2199.53-.1899.75.03.26.2899.48.2999.69.01.29.18.54.18.71 0 .36-.31.36-.31.73s-.0299.36-.0299.72-.02.36-.02.73.2799.36.2799.73-.2699.37-.2699.73-.1101.37-.1101.73c0 .2.18.42.15.65s.0001.45-.0499.66c-.06.22-.0601.47-.1401.66-.09.21-.17.48-.3.66s-.65 0-.83.14-.17.49-.37.61-.35.32-.56.41-.5699-.22-.7799-.14-.31.5-.52.57c-.24.07-.51 0-.75.06s-.51-.03-.75.03-.3901.51-.6301.56-.46.25-.7.29-.51-.04-.75 0-.49.1-.73.13-.55-.53-.79-.51-.45.45-.7.46-.5-.21-.75-.2-.48.06-.73.07-.49.19-.73.19-.4899.25-.7399.25-.49-.28-.73-.29-.5001.22-.7401.21-.47-.41-.71-.42-.51.32-.76.3-.47-.35-.71-.37-.48-.07-.73-.09-.48-.13-.72-.15-.5199.29-.7699.26-.4801-.15-.7201-.17-.46-.28-.7-.31c-.25-.03-.48-.15-.72-.19s-.56.4-.81.36-.52-.02-.76-.08-.4099-.41-.6499-.48-.3801-.36-.6101-.46c-.21-.09-.44-.12-.63-.21-.21-.1-.36-.24-.54-.36-.19-.13-.63.07-.79-.09s-.0799-.52-.1899-.72c-.1-.18-.1701-.37-.2301-.61s-.42-.48-.44-.75c-.03-.42.21-.41.22-.81z" stroke="#000" stroke-linecap="round" stroke-linejoin="round" stroke-width="2.6"/><path d="m48.6101 21.05c-.36 0-.36.42-.73.42s-.36.05-.73.05-.3599-.53-.7299-.53-.3601.55-.7301.55-.36-.08-.73-.08-.36-.16-.73-.16-.36-.11-.73-.11-.36-.09-.73-.09-.3599.43-.7299.43-.36-.18-.73-.18-.3601.24-.7301.24-.36-.5-.73-.5-.36.3-.73.3-.36-.13-.73-.13-.3599.41-.7299.41-.36-.03-.73-.03-.3601-.21-.7301-.21-.36-.37-.72-.37-.36.47-.72.47-.3599.17-.7299.17-.36-.26-.73-.26-.3701-.39-.7301-.39-.36.06-.73.06-.36-.09-.73-.09-.36.23-.73.23-.37.09-.73.09-.3599-.01-.7299-.01-.3601.26-.7301.26-.37-.3-.73-.3-.37.31-.73.31-.37-.11-.73-.11-.36-.24-.73-.24-.3699.16-.7299.16-.37.08-.73.08-.3701 0-.7401 0-.37-.14-.74-.14c-.26 0-.59.19-.82.11s-.29-.57-.49-.72-.63-.08-.78-.29-.1299-.53-.2099-.77-.35-.49-.35-.75c0-.15.1399-.15.1399-.29 0-.26-.13-.6-.05-.83s.2401-.54.3901-.75.4799-.32.6899-.47.4601-.27.7101-.35.5199.23.7799.23c.36 0 .36-.5.73-.5s.3601-.08.7301-.08.36.32.73.32.3599-.21.7299-.21h.73c.37 0 .36.31.73.31s.36-.44.73-.44h.7301c.37 0 .36.61.73.61s.3599-.45.7299-.45.36-.12.73-.12.36.31.73.31.36-.31.73-.31.3601.05.7301.05.36.15.73.15.3599.35.7299.35.36-.28.73-.28.36.07.72.07.36.03.72.03.3601.26.7301.26.3599-.54.7299-.54.37.1.73.1.36.23.73.23.36.05.73.05.36.16.73.16.3701-.52.7301-.52.36-.08.73-.08.3599-.06.7299-.06.37.6.73.6.37-.48.73-.48.37.36.73.36.3601-.03.7301-.03.37.04.73.04.3699-.21.7299-.21.37.18.74.18.37.19.74.19c.26 0 .59-.55.83-.47s.2701.61.4701.76.4199.23.5699.43.67.26.75.51-.42.59-.42.85c0 .15-.05.15-.05.29 0 .26.2401.52.1601.75s.0399.65-.1101.85-.76-.05-.97.1-.14.86-.38.93-.6-.5-.86-.5z" fill="#fff"/><path d="m48.6101 21.05c-.36 0-.36.42-.73.42s-.36.05-.73.05-.3599-.53-.7299-.53-.3601.55-.7301.55-.36-.08-.73-.08-.36-.16-.73-.16-.36-.11-.73-.11-.36-.09-.73-.09-.3599.43-.7299.43-.36-.18-.73-.18-.3601.24-.7301.24-.36-.5-.73-.5-.36.3-.73.3-.36-.13-.73-.13-.3599.41-.7299.41-.36-.03-.73-.03-.3601-.21-.7301-.21-.36-.37-.72-.37-.36.47-.72.47-.3599.17-.7299.17-.36-.26-.73-.26-.3701-.39-.7301-.39-.36.06-.73.06-.36-.09-.73-.09-.36.23-.73.23-.37.09-.73.09-.3599-.01-.7299-.01-.3601.26-.7301.26-.37-.3-.73-.3-.37.31-.73.31-.37-.11-.73-.11-.36-.24-.73-.24-.3699.16-.7299.16-.37.08-.73.08-.3701 0-.7401 0-.37-.14-.74-.14c-.26 0-.59.19-.82.11s-.29-.57-.49-.72-.63-.08-.78-.29-.1299-.53-.2099-.77-.35-.49-.35-.75c0-.15.1399-.15.1399-.29 0-.26-.13-.6-.05-.83s.2401-.54.3901-.75.4799-.32.6899-.47.4601-.27.7101-.35.5199.23.7799.23c.36 0 .36-.5.73-.5s.3601-.08.7301-.08.36.32.73.32.3599-.21.7299-.21h.73c.37 0 .36.31.73.31s.36-.44.73-.44h.7301c.37 0 .36.61.73.61s.3599-.45.7299-.45.36-.12.73-.12.36.31.73.31.36-.31.73-.31.3601.05.7301.05.36.15.73.15.3599.35.7299.35.36-.28.73-.28.36.07.72.07.36.03.72.03.3601.26.7301.26.3599-.54.7299-.54.37.1.73.1.36.23.73.23.36.05.73.05.36.16.73.16.3701-.52.7301-.52.36-.08.73-.08.3599-.06.7299-.06.37.6.73.6.37-.48.73-.48.37.36.73.36.3601-.03.7301-.03.37.04.73.04.3699-.21.7299-.21.37.18.74.18.37.19.74.19c.26 0 .59-.55.83-.47s.2701.61.4701.76.4199.23.5699.43.67.26.75.51-.42.59-.42.85c0 .15-.05.15-.05.29 0 .26.2401.52.1601.75s.0399.65-.1101.85-.76-.05-.97.1-.14.86-.38.93-.6-.5-.86-.5z" stroke="#000" stroke-linecap="round" stroke-linejoin="round" stroke-width="2.6"/><path d="m72.6602 167.94c-.36 0-.3601.39-.7201.39s-.36-.51-.72-.51-.36.09-.72.09-.3599-.03-.7199-.03-.36-.18-.72-.18-.3601.32-.7201.32-.36-.16-.72-.16-.36-.07-.72-.07-.3599.1-.7199.1-.3601.03-.7201.03-.36.17-.72.17-.36-.3-.72-.3-.3599.44-.7199.44-.3601-.35-.7201-.35-.36.14-.72.14-.36-.14-.72-.14-.3599.06-.7199.06-.3601.3-.7201.3-.36 0-.72 0-.36-.18-.72-.18-.3599-.33-.7199-.33-.3601.53-.7201.53-.36-.28-.72-.28-.36.33-.72.33-.3599-.08-.7199-.08-.3601-.24-.7201-.24-.36-.04-.72-.04-.36-.22-.72-.22-.3599.01-.7199.01-.36.21-.72.21-.3601.16-.7201.16-.36-.12-.72-.12-.36.05-.72.05-.3599.14-.7199.14-.3601-.52-.7201-.52-.36.03-.72.03-.36.59-.72.59-.3599-.56-.7199-.56-.3601.26-.7201.26-.36.29-.72.29-.36-.52-.72-.52-.3599.46-.7199.46-.3601-.44-.7201-.44-.36.47-.72.47-.36-.24-.72-.24-.3599.11-.7199.11-.3601-.3-.7201-.3-.36-.03-.72-.03-.36-.14-.72-.14-.3599.09-.7199.09-.3601.58-.7201.58-.36-.06-.72-.06-.36-.33-.72-.33-.3599-.22-.7199-.22-.36.2-.72.2-.3601.28-.7201.28-.36-.09-.72-.09-.36.14-.72.14-.3599-.1-.7199-.1-.3601-.41-.7201-.41-.36.45-.72.45-.36-.14-.72-.14-.3599.16-.7199.16-.3601-.42-.7201-.42-.36.06-.72.06-.36.24-.72.24-.3599.23-.7299.23-.3601-.4-.7201-.4-.36-.14-.72-.14-.36.11-.72.11-.3599.03-.7199.03-.36.35-.72.35-.3601-.29-.7301-.29-.36-.11-.73-.11-.36.15-.72.15-.3599-.28-.7199-.28-.3601.12-.7201.12-.36-.18-.72-.18-.36.38-.72.38-.3599-.32-.7199-.32-.36.48-.72.48-.3601.13-.7301.13-.36-.29-.72-.29-.36.2-.72.2-.3599-.19-.7199-.19-.3601.04-.7301.04-.36-.4-.73002-.4c-.37 0-.35998.57-.72998.57s-.35998-.02-.72998-.02-.35998.02-.72998.02-.35998.08-.72998.08-.35998-.5-.72998-.5-.3601.05-.7301.05-.36998-.16-.72998-.16-.36998.42-.72998.42-.36998-.35-.72998-.35" stroke="#000" stroke-linecap="round" stroke-linejoin="round" stroke-width="2.45"/><path d="m19.64 188.51c-.32-.29-.34-.61-.48-.78 0 0 .0099.07.0399.11.02.03.0301.05.0101.05-.03 0-.1201-.04-.2701-.12-.07-.04-.1599-.1-.2699-.2-.1-.09-.24-.29-.18-.19.02.04-.03 0-.12-.05-.09-.07-.24-.16-.41-.4-.11-.13-.22-.4-.29-.56l-.12-.33c-.03-.07-.07-.15-.09-.22s-.04-.14-.05-.2c-.06-.48-.04-.67-.06-.53-.11-.65.1-.93.14-1.07.07-.15.09-.23.05-.15-.01.04-.05.14-.04.33 0 .01 0 .06 0 0-.01-.04-.05-.14-.09-.32-.12-.51-.03-.84-.03-1.19-.01 0 .03.25.09.34.07.1-.1801-.21-.2701-.59-.06-.22-.0499-.35-.0599-.53.03.15-.1099-.46-.0799-.79 0-.21.1099-.63.1699-.75.03-.08-.0401.14-.0301.14 0-.09.0001 0-.0499-.47v-.24c0-.1 0-.2.01-.33.03-.26.14-.55.11-.46 0 .02-.01.06-.01.06v.09c0 .22.23.55.23.52-.53-.49-.77-1.24-.49-1.96.2-.49.52-.7.53-.72.05-.06-.2.2-.24.47-.06.28.07.64.23.82.14.14.13.11-.04 0-.07-.05-.21-.16-.35-.32-.73-.84-.31-2.12.53-2.55.02-.01-.0399.02-.0999.09-.33.27-.3401 1.05-.0201 1.34.14.15.14.12-.04 0-1.03-.71-.9-2.27.16-2.86.03-.03-.26.18-.33.57-.07.31.0601.65.2301.85-.88-.51-1.1102-2.09.1298-2.85-.02.02-.0999.07-.1799.2-.09.13-.15.34-.16.48v.13c0 .11.06.27.11.35.09.12-.14-.12-.28-.53-.06-.19-.09-.38-.09-.53 0-.12 0-.01 0 0 0 .08.0999.28-.0201 0-.11-.28-.1499-.61-.1399-.83-.02-.26.13-.75.28-.96.14-.22-.02 0-.04.16-.01.05-.01.17-.01.09v-.17-.32c0-.12 0-.09.01-.43 0-.17.16-.63.22-.73-.01 0-.07.23-.06.24 0-.02 0-.08 0-.09s-.05-.27-.05-.43c0-.05 0-.13 0-.18 0-.02 0 .06 0 .08.01.15.0799.35.1699.47.18.24.2301.22.1001.14-.09-.07-.47-.3-.69-.86-.18-.58-.11-.94.11-1.4.25-.42.46-.54.4-.51-.07.03-.26.41-.24.59-.03.12.0901.48.1801.57.1.09-.1001-.05-.3301-.46-.21-.49-.26-.81-.09-1.38.24-.6.61-.78.73-.88.13-.08.15-.12-.02.05-.08.09-.19.26-.23.46-.03.15-.03.26 0 .41.04.28.29.52.23.45-.02-.03-.3699-.29-.5399-.79-.04-.11-.0601-.23-.0801-.34-.01-.08-.02-.27-.01-.21 0 0 0 .05.01.1 0 .05.04.12.03.11-.18-.37-.2399-.71-.1999-1.16.03-.45.3799-.94.5199-1.04.15-.14 0-.04-.12.24-.08.3-.07.35 0 .58.08.23.21.34 0 .09-.2-.24-.37-.77-.34-1.07-.01 0 .02.19.06.25-.22-.3-.31-1.2-.15-1.64.02-.08 0-.26.05-.43.09-.48.47-.87.53-.93.1-.1-.12.1-.19.38-.05.44-.04-.07.06-.39.05-.17.14-.33.17-.39.04-.07.01-.03-.01.04-.15.34.06.81.26 1 .07.07.12.09.11.09-.18-.1-.6301-.36-.8201-.73-.23-.39-.2399-.76-.2299-1.14-.04-.47.04-1.15.34-1.52.03-.05 0 0-.04.09-.04.08-.0601.18-.0601.23 0 .02 0 .08 0 .04-.06-.5.4701-1.26.6401-1.33.14-.11-.0001-.06-.1401.24-.09.24-.1099.38-.0499.62.06.21.21.36.01.1-.19-.24-.34-.76-.32-1.04 0-.05 0 .06.02.08 0 .02-.12-.37-.13-.58 0-.14-.02-.15 0-.4.02-.2.09-.45.2-.66.24-.42.4501-.55.3801-.49-.08.05-.2501.44-.2301.6v-.62c0-.28 0 .26.17.46.16.21.17.18-.03 0-.4-.33-.63-1.04-.54-1.55 0-.11.04-.25.06-.37.07-.24.02-.09.03-.08 0-.01 0-.01 0 .05 0 .08.03.22.09.33.14.25.2.27 0 .05-.62-.66-.5201-1.95.2099-2.47.48-.34.2301-.23.0501.07-.09.15-.14.36-.14.52 0-.16.03-.49.11-.72.07-.22 0-.02.01 0v.01c0 .02 0 .04 0 0-.01-.05-.05-.18-.06-.3-.07-.41-.0099-.78.0201-1.1-.02.24.1999.64.3499.75-1-.54-1.24-2.14-.16-2.88.41-.26.31-.25.09 0-.13.16-.24.51-.21.69 0 .1.06.27.1.34.09.13-.14-.14-.26-.54-.06-.19-.08-.37-.08-.51 0-.09 0 0 0 .03.01.1.11.3-.02 0-.3-.6-.1301-1.62.3299-2.03.2-.2.1201-.17-.0199.08-.06.12-.09.27-.1.36 0 .08 0 .33.09.5.18.37.36.41.29.38-.34-.15-.97-.83-.94-1.44-.02-.29.0401-.59.0401-.82 0-.18 0-.46 0-.63-.01.09-.0201-.66.2699-1.03.27-.39.46-.49.39-.45s-.2901.44-.2701.65c-.02.09.0601.39.1401.49.09.1-.17-.16-.32-.58-.23-1.25.02-.1-.13-.68-.07-.31-.0899-.45-.0799-.78 0-.45.3699-1.02.5499-1.15.2-.17.13-.16-.03.09-.07.12-.11.29-.12.4v.08-.02c0-.08-.05-.36-.05-.5v-.12c0-.02 0-.13 0-.02-.01.25.2399.65.2899.66.05.03-.1299-.06-.4099-.44-.14-.19-.24-.46-.28-.71-.03-.19-.02-.29-.02-.44 0-.21.0699-.5.0799-.56-.04-.33.24-1.03.5-1.24.24-.23.2901-.27.1501-.13-.06.07-.15.23-.19.38-.03.16-.05.24-.02.45.07.43.39.66.37.64 0 0-.11-.04-.39-.29-.58-.47-.73-1.52-.37-2.19.07-.16-.04.11-.03.16v-.16c0-.24.2099-.79.3499-.94.04-.05.0001-.02-.0299.07-.06.14-.09.29-.08.43-.01.13.17.46.13.37-.06-.06-.35-.55-.37-.91-.07-.41.06-1.01.28-1.33.02-.04-.01.02-.04.1-.06.2-.06.19-.03.43.04.26.27.52.2.43-.05-.04-.42-.43-.52-.91-.1-.59-.04-.82.1-1.24.02-.06 0-.02 0 .02-.01.04-.02.22 0-.13 0-.23.15-.67.17-.69 0 0-.04.18-.03.17.08.35-.07-.1-.11-.43-.03-.27-.01-.54-.01-.8 0-.08 0-.15 0-.22-.03-.24.13-.84.2-.92 0-.03-.05.2-.04.2 0 0-.0001.16.0599.29.02.05.0201.04-.0399-.07-.21-.42-.27-.89-.17-1.37.06-.36.31-.73.24-.61-.11.25-.1001.36-.0301.57-.23-.34-.2999-1.35-.0499-1.84.03-.09-.04.14-.03.14-.05-.29.25-1.06.36-1.14.01-.05-.13.27-.12.37 0 .02 0 .08 0 0v-.03s-.04-.2-.05-.39v-.25c0 .06 0 .13.03.24.07.22.22.38.03.13-.19-.24-.35-.78-.33-1.07 0-.21.04-.55.14-.8s.0001-.03.0101.02c-.01.15 0-.25 0-.27.03-.28.0499-.31.0499-.38v-.02c0 .06 0 .11.02.19.06.32.32.56.26.5-1.03-.8-.8701-2.43.3099-3 .11-.05.1401-.1-.0399.05s-.38.64-.31.94c.01.23.26.54.2.46-.17-.17-.4399-.57-.4899-.88-.09-.44-.0801-.73.0899-1.19.2-.44.42-.62.31-.5-.23.31-.19.79.01 1.05-.56-.59-.63-1.8-.05-2.44l.1401-.16c-.02-.01-.2401.38-.2201.55v.1c.09.34-.04 0-.12-.39-.02-.15-.0301-.26-.0301-.37 0 .12.0301.31.1101.47.18.33.31.35.2.29-.72-.44-.98-1.54-.66-2.3.03-.09.03-.08.02-.04-.02.11-.02.11-.02.14-.01.03.07.29.06.23-.05-.07-.23-.54-.22-.8-.04-.28.04-.81.08-.91 0 .02.04.18-.03-.1-.05-.17-.07-.36-.07-.54-.07-.52.3499-1.29.7799-1.52.4-.24.3101-.24.0901.01-.28.31-.32.95-.04 1.27.12.12-.03.02-.28-.35-.17-.27-.2601-.64-.2601-.94v.08c0 .13.1702.44.1102.33-.24-.26-.4801-1.13-.3001-1.6.04-.41.7-1.04.83-1.07.03-.03-.29.21-.35.62-.02.06-.02.2-.02.2 0 .1.03.2.07.31.03.07.05.09 0 .02-.33-.45-.34-1.33-.24-1.7-.02-.29.1-.87.3-1.12.15-.23-.0099 0-.0399.17-.02.16-.0301.19.0299.42.09.22.17.3-.04-.01-.16-.21-.28-.77-.26-.95-.02.06.09.38.12.39.01.03-.28-.41-.32-.78-.09-.41.03-1.08.29-1.44.04-.07.05-.08 0 0-.07.15-.1.27-.09.44-.01.17.19.51.19.48-.45-.45-.64-1.3-.39-1.93.17-.43.39-.63.28-.51-.03.05-.09.17-.11.26-.08.2.06.62.16.71.04.04-.28-.27-.4-.72-.11-.46-.09-.68 0-1.08.12-.41.37-.69.28-.57-.08.1-.1201.41-.1101.37l.01-.39.0101-.24v-.05.11c.01.08.0501.21.1001.3s.0799.12.0499.08c-.71-.75-.53-2.16.38-2.65.17-.1.24-.16.13-.07-.04.04-.16.15-.24.33-.23.42-.07 1.05.29 1.29-.74-.32-1.31-1.5-.77-2.35.17-.39.66-.65.82-.76-.13.11-.3.27-.37.55-.1.35.0099.74.2199.96.14.15.1401.11-.0399 0-1.08-.72-.9001-2.34.1599-2.9-.31.22-.4999.87-.2199 1.26.14.18.09.13-.14-.15-.54-.81-.34-1.57-.05-2.06.1-.17-.06.11-.06.21-.01.16 0-.02 0-.01l-.04-.32v-.25l-.01-.06v.1c0 .06.02.15.05.22.13.34.33.44.24.38-1.05-.69-1-2.33.18-2.92.11-.05.1101-.1-.0799.1-.17.15-.3001.67-.2201.86.04.24.25.46.14.33-.09-.07-.43-.55-.46-.97-.04-.34-.01-.64.11-.97.06-.16.14-.28.15-.31s-.02.04-.04.11c-.08.15 0 .6.16.75.05.06.06.07.02.03-.07-.06-.44-.43-.54-.91-.11-.45 0-1 .26-1.36.28-.37.48-.45.46-.45.01-.03-.28.28-.3.58-.01.19 0 .11 0 .18 0 .04.02.11.04.17.02.05.0201.05-.0299-.05-.2-.4-.2601-.92-.1301-1.38.11-.43.4201-.74.3801-.71-.16.23-.2201.54-.0701.88.07.17.17.27.22.31.09.07.03.03-.18-.13-.1-.08-.26-.22-.39-.43-.31-.44-.25-1.06-.26-1.55 0-.25.03-.48.14-.74.19-.41.3901-.58.2901-.47-.09.11-.1501.42-.1301.45-.01 0 .04.21.05.21-.01 0-.21-.45-.21-.71-.02-.4-.02-.13.03-.03.02.07.05.12.03.08-.3-.42-.2799-1.2-.2699-1.71.05-.61-.0601-1.54.1799-2.1.27-.55.61-.69.72-.78.12-.07.15-.11 0 .03-.08.08-.19.23-.24.43-.02.1-.0401.19-.0301.27-.01.01.07.24.01.08-.08-.17-.1599-.56-.1599-.75 0-.1 0-.01 0 .06 0 .17.16.45.25.53s.0099.03-.2201-.19c-.12-.12-.27-.29-.37-.54-.19-.48-.1399-.78-.0699-1.23.03-.14.01-.04.02-.1 0-.32.09-.67.26-.94.24-.35.38-.43.27-.33-.04.06-.11.17-.14.29-.03.13-.04.17-.03.31 0 .29.27.61.29.59.03 0-.13-.06-.4-.38-.13-.17-.27-.41-.32-.66-.1-.47.02-.95.16-1.25 0-.04-.0501.17-.0401.17 0-.01.0001-.25.0201-.39l.02-.24v-.08c0 .01.04.19.04.18-.26-.44-.23-1.31-.1-1.61 0-.35.13-.77.34-1.03.23-.28.31-.34.19-.2-.11.17-.1899.4-.1499.61.01.25.2599.53.2399.5-.19-.17-.31-.27-.47-.57-.2-.38-.2301-.78-.1401-1.17.07-.38.3601-.74.3401-.71-.02 0-.14.3-.12.37 0-.02.01-.37.07-.57.07-.25.04-.12.04-.11 0 .03.02.23.08.34.12.23.21.27.02.09-.22-.17-.51-.85-.46-1.14.09.3-.08-.14-.12-.43l-.02-.18c0-.08 0-.05 0-.22.01-.28.1399-.61.2999-.81.33-.4.5401-.46.6401-.54.1-.05.1299-.1-.0201.05-.06.06-.2.24-.24.44-.03.12-.0299.21-.0299.27-.01.04.0899.27.0199.11-.1-.17-.1999-.58-.1899-.79 0-.02 0-.08 0-.07v.05c0 .12.08.3.13.37.1.11-.08-.03-.27-.41-.29-.65-.15-1.15-.01-1.56 0 .01-.02.13-.02.1-.03-.22.12-.78.32-1.01.2-.24.1399-.21.0399 0-.13.71-.01-.33 0-.35v-.03-.03.04c0 .21.1901.55.3301.64.04.02-.06-.03-.26-.18-.31-.16-.66-.76-.65-1.16-.06-.43.2099-1.01.4599-1.22.23-.22.3101-.27.2201-.19-.15.12-.27.56-.21.67-.03-.06-.15-.45-.15-.65v-.29s-.03-.17-.04-.34v-.22c0-.06 0-.02 0-.01 0 .04.06.2-.03-.07-.09-.24-.11-.57-.1-.68 0-.06 0-.01 0-.05-.02-.06-.08-.37-.08-.53 0-.63-.02-1.06-.04-1.58-.04-.43.32-1.06.52-1.19.18-.15.16-.17.02.02-.08.09-.1399.39-.1199.48 0 .05.1.28 0 .08-.11-.2-.2001-.59-.1901-.8-.01-.21.04-.59.18-.86.15-.28.06-.13.03-.01-.01.07-.0101.13-.0101.07 0 .01.0001.05-.0499-.21-.03-.17-.04-.29-.04-.45 0-.07 0 .07 0 .1.03.27.26.5.24.47 0-.02-.23-.13-.47-.53-.35-.61-.24-1.38.22-1.86.11-.11.2-.19.24-.22.1-.07-.0299-.02-.1499.26-.05.12-.0601.27-.0601.33 0 .04 0 .13.04.21.08.19.16.25-.02.02-.19-.23-.32-.71-.3-.98 0-.2.05-.56.16-.78.1-.23.01-.04.02.02v.03-.09c0-.25.14-.67.26-.86.05-.08.05-.08.02-.03-.02.05-.05.13-.05.18 0 .03 0 .13 0-.01 0-.16.05-.48.1-.61.03-.09 0 .03 0-.02v-.58-.16c0 .08.02.21.07.33.12.25.24.28.11.19-.08-.07-.44-.38-.56-.85-.06-.23-.0601-.41-.0301-.61.03-.21.1201-.45.2301-.62.24-.35.4299-.44.3999-.43-.02-.01-.2299.29-.2199.49 0 .07 0 .05 0 .04v.04c.02.05-.09-.25-.11-.47-.01-.1-.01-.24-.01-.27 0 .03 0 .09.03.16.05.16.14.25-.03 0-.3-.47-.3-1.03-.14-1.55.06-.18.02-.04.03-.06 0-.04 0 0 .03.12.02.05.0501.1.0301.06-.01-.03-.0801-.14-.1401-.28-.11-.3-.1301-.53-.1001-.86.03-.36.3101-.77.4201-.86.12-.13-.02 0-.06.19-.01.04-.01.08-.02.1 0 .03 0 .07 0 0s0-.16.02-.25c.03-.21.07-.36.07-.35 0 0 0-.02.01-.05v-.04c0 .06 0 .11.02.18.08.29.28.39.23.35-.02-.03-.15-.09-.37-.3-.11-.1-.2501-.28-.3201-.5-.09-.2-.0799-.53-.0799-.5l.01-.63v-.04s0-.05.01-.17c.03-.2.09-.31.15-.43.12-.19.2199-.27.2899-.35.15-.13.2501-.19.3201-.23.06-.02.1-.12-.04.12-.07.13-.1.44-.02.54-.01-.03-.0601-.11-.1401-.28-.04-.08-.09-.19-.13-.36-.04-.14-.0399-.45.0201-.6.14-.41.31-.59.34-.65 0-.02-.0001.01.0199-.03.02-.06.0501-.11.0801-.16.05-.1.1101-.17.1601-.24.12-.14.1799-.21.2399-.25.1-.16.26-.43.36-.59.12-.13.0899-.36.2899-.69.06-.11.2801-.34.4201-.37.16-.07.27-.07.36-.08.17 0 .28 0 .35.01.07.02.1-.04-.09.12.55-.48 1.39.19.84.84-.47.35-.63.25-.95.33 0 .03.15-.04.2-.1l.06-.06c.03-.04.01 0 0 .1 0 .1-.0801.45-.1901.62l-.0299.06c-.06.15-.1601.38-.2201.53-.07.2-.2899.42-.3199.54 0 0 0 0 .01-.02l-.04.11c-.13.31-.23.5-.19.47.03-.08.02-.23 0-.29-.02-.07-.03-.08-.01-.07.02.02.0799.11.1699.27.09.19.2001.42.1801.7 0 .57-.55.96-.77 1.15 0 0 .0299 0 .0899-.11.04-.07.0701-.14.1001-.28 0-.09 0-.13 0-.09v.04l.05.63c0 .13.01-.09-.04-.19-.04-.12-.12-.22-.15-.25-.08-.07-.02-.03.13.06.35.23.6799.68.6599 1.16v.12c.02.09-.0599.55-.0499.54v.06.16c.02.33-.4001.96-.4501.96-.04.06.13-.16.13-.31.01-.08 0-.08 0-.11s-.0099-.09-.0299-.14c-.03-.06-.02-.05 0 0 .04.06.11.2.16.35.16.47.0801.98-.0199 1.29 0 0 .0098-.06.0098-.02.02-.02-.0299-.25-.0899-.31-.06-.07.17.18.28.54.05.17.07.33.07.47v.04c0-.02-.03-.12.05.13.05.15.07.35.08.5.07.42-.27 1.08-.5 1.23-.18.15-.17.18-.04.01.12-.17.17-.41.11-.63-.07-.27-.27-.42-.19-.36.03.04.32.21.52.65.1.21.13.45.13.63.01.37.02 1.21-.1 1.44 0-.04 0 .16-.02.3 0 .16-.19.63-.28.72 0 .01.03-.05.05-.12.02-.06.03-.12.03-.15v.09c.03.21-.21.85-.21.8.02-.04.05-.18.04-.17.02-.06-.06-.33-.12-.39s.1699.16.3199.55c.06.18.0901.37.1001.52 0 .16-.0201.42-.1101.64-.2.48-.5099.66-.5599.72-.04.03-.03.03 0-.01.05-.05.12-.15.17-.28.09-.26.07-.44-.06-.7-.14-.22-.19-.2-.03-.09.34.22.63.89.59 1.26-.02-.06.06.18.08.4.02.26.03.42-.03.69-.06.33-.28.65-.22.56.09-.21.07-.28.01-.44.18.38.26.66.22 1.12-.02.21-.1.46-.22.64-.25.38-.45.48-.42.47.01.02.2399-.3.2299-.51v-.06.03.06.1c.04.5.0301.92.0401 1.28 0 .05-.01-.05.02.09.04.17.07.42.07.57 0 .09.0001-.02-.0199-.06-.03-.07.1198.28.1398.53.03.57.0401.43.0701.91v.1c.01.02-.05-.19 0-.04.25.57.16 1.42-.29 1.86-.23.23-.33.29-.25.23.1-.07.28-.43.24-.66 0-.15-.08-.36-.17-.47-.2-.25-.29-.24.1 0 .31.23.6601.7.6601 1.15.01.18 0 .14 0 .2 0 .11-.0501.52-.0601.58 0 .23-.02.46-.13.71-.18.4-.39.58-.32.51.07-.06.1599-.41.1399-.42 0 .18-.04.5-.12.71-.07.2.0002 0-.0098 0 0 .05.0199-.14-.0801-.34-.11-.18-.12-.19.1.1.18.22.3.69.29.95.01 0-.04-.21-.04-.19.02.02.21.46.21.71v.18c.05.37-.21.9-.43 1.1-.31.29-.4701.34-.5401.39-.07.03-.0499.07.1501-.16.1-.12.18-.34.19-.52 0-.12 0-.03 0-.06v-.02s-.0601-.2.0399.07c.06.17.0901.39.1001.57 0 .05 0 .14 0 .06.02-.16-.18-.5-.2-.5-.05-.03.21.15.42.57.09.2.14.44.15.62v.34c-.01.22-.1201.55-.1001.5 0 0 .01-.14 0 .05.02.28-.1699.78-.3199.95-.14.2.02 0 .05-.17.02-.09.0199-.1.0199-.2 0-.09-.0399-.25-.0999-.36-.14-.24-.21-.24-.05-.11.14.1.52.56.55 1.03.02.22.0199.38-.0301.61-.05.21-.1599.44-.2699.59-.24.3-.3401.37-.2301.26.08-.08.1701-.32.1701-.46 0-.01 0-.06 0-.05v.07c0 .16-.05.48-.09.61-.02.1 0-.02 0 .02 0 .05 0-.03-.03-.13-.02-.04-.02-.05.02.03.14.3.19.7.17 1.02 0 .15-.03.36-.03.39.01.27-.06.78-.19 1.01-.05.14.04-.12.02-.14.01-.19-.09-.46-.2-.58-.14-.15-.12-.11.07.03.67.51.81 1.66.26 2.31-.23.27-.27.31-.14.14.08-.12.14-.32.13-.46.01.24-.05.55-.07.71 0-.02-.01-.23-.07-.36-.14-.31-.42-.48.07-.07.25.18.51.87.48 1.15.01.02-.03-.17-.03-.14.03.04.17.47.17.69.01.2 0 .37-.04.58-.06.44-.69 1.02-.9 1.09-.07.03.09 0 .27-.35.06-.13.0899-.27.0899-.41 0-.01 0 .02 0 .03 0 .51-.0399 1.52-.0199 2.03 0 .2.01-.02-.04-.13-.02-.07-.05-.11-.02-.05.03.05.11.19.17.36.12.3.1.78.1.59.01-.05-.1-.3-.02-.12.1.19.2.61.19.82.03.24-.08.77-.29 1.05-.22.29-.17.26-.06.05.05-.11.07-.22.07-.31v.03.07l.01.55c.01-.21-.19-.58-.33-.68.87.47 1.1501 1.77.4801 2.57-.16.2-.0001.04.0599-.18.03-.1.03-.18.03-.22.01-.02-.05-.24-.06-.25 0 0 .0499.08.1099.23.13.39.16.5.12.96-.04.52-.47 1-.62 1.1-.18.14-.17.16 0-.03.07-.1.1501-.27.1701-.42s.01-.22-.01-.35c-.06-.28-.28-.48-.2-.4.03.04.12.11.24.26.37.45.44 1.17.27 1.65-.05.17-.13.33-.17.39-.04.07-.02.04 0-.03.05-.13.06-.22.04-.36 0-.2-.23-.5-.18-.42.83.83.6 2.25-.47 2.77-.07.03-.02.07.2-.23.09-.14.17-.38.17-.55 0-.13-.03-.29-.1-.44-.17-.31-.29-.33-.17-.26.08.07.45.31.64.85.08.21.09.43.1.64.05.38.07.43.03.91 0 .17-.2.69-.29.79.07-.15.21-.41-.08-.88-.11-.12.01-.04.26.33.51.74.22 1.9-.51 2.34-.17.11-.18.14-.04 0 .08-.08.18-.23.23-.42.13-.37-.07-.88-.32-1.05.92.5 1.21 1.9.4 2.65-.15.15-.28.23-.36.29-.17.1-.24.15-.16.09.19-.09.43-.61.38-.86.02-.25-.21-.66-.38-.77 1.28.64 1.31 2.41-.02 3.09.32-.19.54-.86.3-1.24-.05-.09-.08-.12-.05-.08.48.51.48 1.26.43 1.92.02.17-.06.7-.25.97-.19.3-.09.18-.03-.02.04-.2.05-.2 0-.46-.07-.24-.2401-.4-.0701-.2.31.35.5002 1.07.3602 1.59-.04.2-.1401.41-.2301.55-.21.3-.15.25-.05.02.07-.24.0701-.27.0301-.51-.05-.25-.2602-.44-.1102-.28.54.52.6101 1.72.1001 2.35 0 .01.04-.07.07-.16.06-.22.05-.25.04-.39-.01-.16-.19-.42-.06-.21.14.19.32.71.31.98 0 .12 0 .05 0 .03 0-.11-.06-.29-.12-.37-.1-.13.1199.1.2799.52.13.43.1201.67.0601 1.04-.06.39-.3501.78-.3101.72.04-.04.14-.34.12-.4.01.06-.0399.57-.0599.66 0 .09.02 0-.04-.19-.03-.08-.07-.16-.06-.14 0 .01.0799.12.1599.29.38.74.0901 1.81-.5699 2.23-.18.12-.2001.16-.0501.01.15-.14.3101-.55.2701-.78.02-.12-.16-.44-.12-.36.06.06.3399.56.3499.9.04.52 0-.1-.13-.26-.14-.2-.12-.16.13.12.74.94.2801 2.27-.6799 2.7.23-.14.48-.62.41-.94.13.22.16 1.2.03 1.5 0-.05 0 .04 0-.03.01-.04-.09-.32-.04-.2.27.46.3 1.31.06 1.85.04-.13.05-.3-.05-.55-.09-.25-.3-.41-.25-.37.06.06.3599.21.6399.73.13.25.1801.55.1801.77 0 0 0-.02 0-.06-.01-.09-.07-.23.04.09.23.58.04 1.57-.37 1.95-.18.19-.02.07.08-.2.04-.13.06-.24.06-.32 0-.07 0-.15-.04-.26-.08-.24-.24-.39-.05-.16.46.58.52 1.56.05 2.22-.22.29-.17.25-.05.01.09-.26.09-.33.05-.58-.06-.27-.28-.48-.16-.35.88.87.5899 2.4-.5401 2.91-.07.02-.0199.06.2301-.25.1-.15.2-.41.19-.61 0-.13-.02-.25-.08-.41-.14-.31-.3-.39-.16-.28.1.07.51.48.6 1.01.06.27.05.48.02.75-.07.54-.02-.01-.06.64-.02.27-.19.68-.17.62.08-.21 0-.49-.12-.67-.08-.09.22.23.34.66l.11.84c.1.45-.05 1.25-.31 1.55-.08.16.12-.22.1-.37 0-.05 0 .08 0 .12 0 .12-.0201.26-.0601.41-.03.15-.0899.3-.1099.34-.02.05 0 0 .01-.05.02-.12.02-.08.01-.15.01-.05-.1-.32-.02-.12.11.21.19.63.18.84.01.22-.0501.65-.2001.94-.17.3-.0399.11-.0099-.04.03-.14 0-.34-.06-.45.14.14.32.95.26 1.12 0 .21-.1001.64-.1801.8-.05.14.0401-.11.0201-.14 0-.08 0 .05 0 .05v.17.31.15c0-.04-.06-.22.03.06.15.56.1299 1-.0601 1.52-.06.18.02-.06 0-.08 0-.14.0001.25-.0499.5-.03.14-.08.28-.1.32s0 0 0-.04c0-.12.03.03-.01-.28-.05-.27-.28-.49-.18-.39.07.06.45.49.52.95.1.53-.02 1.02-.26 1.42-.03.05 0 0 .03-.07.05-.17.0599-.19.0499-.36 0-.14-.18-.45-.12-.34.08.07.36.6.37.94.07.45-.0999 1.05-.3599 1.37-.03.04.01-.02.05-.11s.0599-.19.0599-.25c0-.01 0-.09 0-.04l-.0099.19c0 .26-.19.73-.22.75 0 .01.07-.23.05-.23 0-.06 0-.11 0-.16 0-.19-.2201-.57-.3201-.63-.13-.1-.05-.04.13.08.15.1.6302.49.7402 1.13.09.53-.0602 1.04-.3602 1.41-.27.31-.3999.38-.3099.3.04-.04.13-.15.19-.3.06-.14.08-.34.08-.37-.01.44-.03.38-.08.68 0 .19 0-.35-.18-.55-.16-.2-.17-.18.03 0 .35.26.62.96.57 1.41 0 .02.04.27.04.43v.12.06.16c-.02.21-.1001.49-.2201.7-.26.44-.4999.57-.4499.55.03.01.28-.37.27-.61 0-.12 0-.07-.01-.16-.03-.09.1.26.12.51.01.11.02.28.02.28 0-.05 0-.15-.05-.25-.08-.23-.19-.33 0-.05.49.66.35 1.81-.21 2.29-.21.19-.2.22-.04 0 .17-.2.16-.72.16-.43 0 .4-.0001.89-.0601 1.29v.04c0 .02 0 .01 0-.05 0-.04.0001-.09-.0199-.13-.03-.19-.1501-.4-.2301-.49-.19-.2-.1799-.15-.0599-.08.1.08.45.25.73.81.37.66-.05 1.76-.45 2.03.06-.02.26-.41.23-.59 0-.08-.02-.2-.05-.26-.05-.11.15.29.19.59.02.13.0299.33.0299.34 0-.04.0001-.12-.0299-.21-.07-.2-.1601-.31.0399 0 .46.72.21 1.9-.51 2.33-.22.15-.3.19-.25.16.53-.38.4801-1.28.0601-1.6-.08-.06-.02-.03.21.15.32.19.67.86.65 1.27 0 .22 0 .34-.03.53-.02.17-.0199.13-.0199.19 0 .07 0 .1 0 .06-.01-.04 0-.02 0 0 .01.05.0499.18.0599.3.03.26.03.39.02.64 0 .22-.14.63-.14.6.01-.03.02-.15.02-.1 0 .26-.07.57-.22.82-.14.25-.31.4-.42.49-.23.18-.32.23-.25.18.03-.03.12-.11.21-.27.2-.31.16-.84-.07-1.1-.07-.06.16.09.38.54.1.21.1501.45.1601.64v.21.16c0 .22-.1202.58-.1102.53.08-.2-.1899-.72-.2699-.74-.05-.03.14.07.41.45.2.28.31.74.29 1.06v.63c.03.37-.22.96-.45 1.17-.21.21-.17.21-.03-.02.07-.09.13-.41.11-.45 0 0-.05-.2.02.02s.1.54.1.7c.02-.07-.07-.38-.14-.45-.07-.09.2099.23.3299.64.12.47.1101.78-.0699 1.23-.23.49-.5401.68-.5501.71-.05.06.2001-.17.2601-.48.01-.08.02-.12.02-.19v.2c-.01.28-.22.72-.34.9-.03.05 0 0 .04-.08.12-.54.04-.08.07.08v.33c.02-.09-.05-.4-.15-.54-.11-.18-.19-.23-.24-.27-.07-.05 0 0 .17.1.32.16.6499.55.7899 1 .11.4.0801.76-.0599 1.16-.06.17-.14.29-.15.32-.02.03.02-.03.04-.11.03-.12.07-.41-.02.23-.06.36-.34.7-.53.89-.08.09.15-.14.2-.41.01-.07.0199-.11.0199-.16 0-.08 0 .06 0 .07 0 .16-.0499.46-.0899.59 0 .01 0 .04 0 0s0 .06 0-.05c0-.09-.12-.32 0-.08.12.25.19.65.18.86.02-.09-.08-.42-.16-.49-.08-.08.2.19.35.61.12.42.14.69 0 1.19-.09.34-.34.57-.49.74-.01.04.22-.27.23-.5.01-.13 0-.11 0-.15 0-.03-.0099-.09-.0299-.14s-.0301-.06.0199.03c.04.09.1.26.13.41s.04.3.05.41c0 .11 0-.03 0-.06 0-.06-.02-.13-.04-.19-.1-.29-.2899-.42-.1599-.3.08.06.4799.47.5599.96.05.27.05.46 0 .72-.07.56-.66 1.02-.89 1.15-.05.02.14-.03.31-.43.11-.38.08-.47-.03-.77-.13-.22-.1701-.23.0599.03.23.25.41.82.37 1.15.02.39-.2699.97-.4799 1.15-.2.19-.1601.2-.0101-.04.12-.28.1701-.41.0501-.79-.14-.36-.35-.45-.27-.4.04.04.27.13.57.55.19.27.29.66.28.98.08.45.09 1.14-.15 1.57-.08.18.0399-.08.0199-.14 0-.13 0 .11 0 .19v.31.14c0 .02.0001.25-.0299.4-.05.36-.33.77-.3.73.03-.03.12-.31.1-.36 0-.01 0-.13-.04-.21-.04-.09.15.3.18.59.02.12.02.33.02.31 0-.04 0-.13-.04-.22-.08-.21-.16-.29.04 0 .13.2.23.54.25.79.08.49-.26 1.22-.65 1.48-.2.15-.2701.2-.1601.11.13-.07.3601-.55.3001-.81-.01-.14-.07-.33-.16-.45-.09-.13-.14-.17-.17-.19-.03 0 .11.05.39.34.32.29.4999.97.3899 1.43-.07.46-.4099.85-.6999 1.06-.18.12-.2.16-.07.03.39-.36.32-1.16-.08-1.44l.12.08c.52.31.89 1.15.69 1.8-.1.46-.4299.78-.7199.99-.17.11-.1801.14-.0501.01.34-.3.36-1.01.04-1.33-.07-.09-.13-.12-.12-.11.56.31 1 1.1.84 1.79-.07.49-.46.91-.56.99-.14.12 0 .04.13-.24.09-.3.09-.41 0-.7-.13-.27-.25-.32-.08-.17.15.12.5.64.52 1.06.02.25 0 .27 0 .4 0 .11-.03.25-.06.37-.09.29-.06.19-.05.15 0-.06 0 .06 0 .06-.01-.06.08.44.05.77 0 .21-.12.64-.18.74-.02.08.0401-.14.0201-.14 0 .09-.0201-.11.0499.45v.26c0-.04 0-.08-.02-.16-.05-.17-.16-.32.01-.04.27.47.27.98.18 1.45-.04.17-.04.16-.05.17 0 .03.02.13.05.29.02.09.0299.15.0399.31.02.3-.0399.5-.0899.64-.11.28-.19.38-.21.42-.05.04.07-.03 0-.47.08.55 0 .79 0 .72 0-.03-.02-.07-.03-.09l.01.05.05.21.04.28v.07.01c-.01-.02-.03-.05-.05-.06-.06-.06-.0399-.02.0201.06s.1799.18.3199.38c.12.18.03.07 0 .05s-.04-.01-.03 0c.02.03.12.1.26.22.28.19.55.76.51 1.04 0 .08 0 .06-.11-.02.28.28.28.73 0 1.01s-.73.28-1.01 0z" fill="#000"/><path d="m66.9303 43.03c-.36 0-.3601-.34-.7101-.34s-.3599.14-.7099.14-.36-.28-.71-.28-.3601.58-.7101.58-.36-.63-.71-.63-.3599.59-.7099.59-.3601-.29-.7101-.29-.36.14-.71.14-.3599-.36-.7099-.36-.3601.07-.7101.07-.36.4-.71.4-.3599-.32-.7099-.32-.3601.22-.7101.22-.36-.13-.71-.13-.3599-.33-.7099-.33-.3601.47-.7101.47-.36-.1-.71-.1-.3599.23-.7099.23-.36-.2-.72-.2-.3601-.44-.7201-.44-.36.48-.71.48-.3599.08-.7099.08-.3601-.57-.7101-.57-.36.61-.71.61-.3599-.2-.7099-.2-.3601-.1-.7101-.1-.36.03-.71.03-.3599.17-.7099.17-.36.04-.72.04-.3601-.11-.7201-.11-.36-.07-.72-.07-.3599-.04-.7199-.04-.3601.02-.7101.02-.36.32-.71.32-.3599-.66-.7199-.66-.36.11-.72.11-.3601.48-.7201.48-.36-.08-.72-.08-.36-.38-.72-.38-.3599-.12-.7199-.12-.3601.11-.7101.11-.36.42-.71.42-.3599.09-.7099.09-.36-.36-.72-.36-.3601.33-.7201.33-.36-.22-.72-.22-.3599.14-.7199.14-.36-.47-.72-.47-.3601.52-.7201.52-.36-.03-.72-.03-.3599.14-.7199.14-.36-.08-.72-.08-.3601-.26-.7201-.26-.36.31-.72.31-.3599-.32-.7199-.32-.36-.16-.72-.16-.3601.06-.7201.06-.36.31-.72.31-.3599.1-.7199.1-.36-.26-.73-.26-.36-.12-.73-.12-.3601-.1-.7301-.1-.36 0-.72 0-.36.05-.72.05-.3599.09-.7199.09-.36-.26-.73-.26-.3601.38-.7301.38-.36-.4-.73-.4-.36.62-.73.62-.3599-.45-.7299-.45-.37-.15-.73-.15-.36.25-.73.25-.3601-.1-.7301-.1-.37-.18-.73-.18-.37-.02-.73-.02-.37.62-.73.62-.3599-.05-.7299-.05-.37-.09-.73-.09-.3701-.14-.7301-.14c-.36001 0-.37.09-.74.09s-.36999.15-.73999.15c-.24 0-.52-.56-.75-.53s-.37999.64-.60999.69-.60996-.38-.82996-.31-.46004.22-.67004.33-.45002.24-.65002.36-.31.41-.5.56-.48991.2-.64991.36-.06007.6-.20007.78-.58996.17-.70996.38.12002.61.02002.83-.29.38-.37.6-.43999.38-.48999.61-.20999.48-.23999.72.37989.51.37989.75c0 .36-.18995.36-.18995.72s.30005.36.30005.72-.15002.36-.15002.72-.25.36-.25.72-.06006.36-.06006.72.38.36.38.72.05005.36.05005.72.14002.36.14002.72-.59998.36-.59998.72.18994.36.18994.72-.09997.36-.09997.72.40002.36.40002.72-.03003.36-.03003.72.04993.36.04993.72-.07996.36-.07996.72-.47998.36-.47998.72.59998.36.59998.72.06006.36.06006.72-.33008.36-.33008.72-.05994.36-.05994.72-.26001.36-.26001.72.66993.36.66993.72-.65992.36-.65992.72.44995.36.44995.72.08997.36.08997.72-.03992.36-.03992.72-.20007.36-.20007.72-.32996.36-.32996.72.03003.36.03003.72.56995.36.56995.72-.16992.36-.16992.72-.44007.36-.44007.72.48999.36.48999.72-.04992.36-.04992.72-.06006.36-.06006.72.26001.36.26001.72-.20996.36-.20996.72-.16004.36-.16004.72-.17004.36-.17004.72.53003.36.53003.72-.43005.36-.43005.72.3601.36.3601.72.07996.36.07996.72-.18005.36-.18005.72-.14991.36-.14991.72-.2301.36-.2301.72.13001.36.13001.72.09008.36.09008.72.14991.36.14991.72-.30994.36-.30994.72.27002.36.27002.72.07995.36.07995.72.05005.36.05005.72-.21997.36-.21997.72-.17004.36-.17004.72.31995.36.31995.72.03002.36.03002.72-.27002.36-.27002.72-.15991.36-.15991.72.33997.36.33997.72.17993.36.17993.72-.31995.36-.31995.72.33997.36.33997.72-.41992.36-.41992.72.41992.36.41992.72v.72c0 .36-.12.36-.12.72s.06006.36.06006.72-.14001.36-.14001.72.10998.36.10998.72-.02002.36-.02002.72-.09997.36-.09997.72.15002.36.15002.72.02991.36.02991.72-.27991.36-.27991.72-.21008.36-.21008.72.23999.36.23999.72-.10998.36-.10998.72.03002.36.03002.72v.72c0 .36-.15002.36-.15002.72s.10999.36.10999.72.04003.36.04003.72.35999.36.35999.72-.32996.36-.32996.72-.03003.36-.03003.72.07007.36.07007.72-.15002.36-.15002.72.35998.36.35998.72.14002.36.14002.72-.59009.36-.59009.72.24011.36.24011.72.25.36.25.72.03992.36.03992.72-.16003.36-.16003.72.09008.36.09008.72-.04004.36-.04004.72-.43994.36-.43994.72.19995.36.19995.72.34998.36.34998.72.04004.36.04004.72-.28003.36-.28003.72.11999.36.11999.72.20008.36.20008.72-.30005.36-.30005.72-.22998.36-.22998.72.16003.36.16003.72.00989.36.00989.72.31006.36.31006.72.08996.36.08996.72-.25.36-.25.72.02002.36.02002.72v.72c0 .36-.10998.36-.10998.72s-.21997.36-.21997.72.34997.36.34997.72-.15002.36-.15002.72-.07996.36-.07996.72-.01001.36-.01001.72.06995.36.06995.72.34009.36.34009.72-.21009.36-.21009.72.17005.36.17005.72-.44006.36-.44006.72.09008.36.09008.72.03992.36.03992.72.13001.36.13001.72.25.36.25.72-.62.36-.62.72.12.36.12.72-.10999.36-.10999.72.53003.36.53003.72-.54004.36-.54004.72.27002.36.27002.72-.22998.36-.22998.72.14001.36.14001.72.23999.36.23999.72-.25.36-.25.72-.13.36-.13.72.46997.36.46997.72-.13001.36-.13001.72-.43994.36-.43994.72v.72c0 .36.52002.36.52002.72s.13001.36.13001.72-.07007.36-.07007.73-.48999.36-.48999.73-.07996.36-.07996.72.35999.36.35999.72-.04004.36-.04004.72.11999.36.11999.72.17005.36.17005.72-.18006.36-.18006.72-.31994.36-.31994.72.17993.36.17993.72.16003.36.16003.73.16004.36.16004.73-.26001.36-.26001.73.17004.36.17004.72-.51001.36-.51001.72.25.36.25.72-.06006.36-.06006.72v.73c0 .37.22998.36.22998.73s-.05993.36-.05993.73.13.36.13.73-.21008.36-.21008.73.09009.36.09009.72.16992.36.16992.72-.31995.36-.31995.72.04004.36.04004.73-.02002.36-.02002.73.02002.36.02002.73-.09009.36-.09009.72.06006.36.06006.73v.73c0 .37.37.36.37.73s.02002.36.02002.73-.13001.36-.13001.73-.10009.36-.10009.73.21008.36.21008.73v.73c0 .37-.48999.37-.48999.73s.31994.37.31994.73-.04992.37-.04992.73-.36011.37-.36011.73c0 .24.26004.48.29004.72s.00005.49.05005.72.23993.43.30993.66.30003.38.40003.59-.20996.67-.07996.87.53993.22.67993.41.22002.45.39002.62.54999.09.73999.24.37997.24.58997.36.41011.18.62011.29.31992.43.53992.5.46006.11.69006.16.47997-.13.71997-.11.43994.04.67994.04c.36 0 .3601.09.7301.09s.35998.47.73001.47c.37 0 .3599-.35.7299-.35s.36.26.72.26.36-.38.72-.38.3601.53.7201.53.36-.47.73-.47.3599-.06.7299-.06.36-.08.73-.08.36.5.73.5h.73c.37 0 .3701.04.7301.04s.36-.37.73-.37.3599-.2.7299-.2.37.07.73.07.37.49.73.49.37-.42.73-.42.3601.22.7301.22.37-.37.73-.37.37.13.73.13.3699.45.7399.45.37-.44.74-.44.36.3.71.3.3601.11.7101.11.3599-.35.7099-.35.36-.02.71-.02.3601-.19.7101-.19.3599.53.7099.53.36-.51.71-.51.3601.43.7101.43.3599-.34.7099-.34.36-.06.71-.06.3601.22.7101.22.36-.23.71-.23.3599.28.7099.28.3601.19.7101.19.36-.49.71-.49.3599.35.7099.35.3601-.29.7101-.29.36.27.71.27.3599.1.7199.1.36-.06.72-.06.3601-.36.7101-.36.3599.64.7099.64.36-.38.71-.38.3601-.26.7101-.26.36.47.71.47.3599.16.7099.16.3601-.12.7101-.12.36-.48.71-.48.3599.26.7199.26.36.2.72.2.3601-.04.7201-.04.36-.05.72-.05.3599-.12.7099-.12.36.18.71.18.3601-.2.7201-.2.3599-.19.7199-.19.36.19.72.19.36.4.72.4.3601-.31.7201-.31h.72c.36 0 .3599-.01.7099-.01s.3601-.03.7101-.03.36-.04.71-.04.3599-.2.7199-.2.36.24.72.24.3601.19.7201.19.36-.5.72-.5.3599-.03.7199-.03.36.09.72.09.3601.3.7201.3.36.27.72.27.3599-.19.7199-.19.36.08.72.08.3601-.41.7201-.41.36.35.72.35.3599-.2.7199-.2.36.08.72.08.36-.15.72-.15.3601.06.7201.06c.24 0 .4499-.26.6799-.29s.53.33.76.28.53.03.75-.05.3501-.44.5601-.54.3699-.3.5699-.42.3401-.31.5301-.46.4199-.22.5899-.39.36-.31.51-.49.1801-.44.3101-.64.63-.21.73-.42-.22-.61-.14-.84.2-.42.26-.65.0699-.46.0899-.7.3001-.46.3001-.7c0-.36.0699-.36.0699-.72s-.15-.36-.15-.72-.1799-.36-.1799-.72.0999-.36.0999-.72-.3199-.36-.3199-.72.23-.36.23-.72.27-.36.27-.72-.3301-.36-.3301-.72.4601-.36.4601-.72-.03-.36-.03-.72.01-.36.01-.72-.37-.36-.37-.72-.0701-.36-.0701-.72.38-.36.38-.72-.24-.36-.24-.72.21-.36.21-.72-.25-.36-.25-.72 0-.36 0-.72 0-.36 0-.72.3201-.36.3201-.72-.3301-.36-.3301-.72.39-.36.39-.72-.5199-.36-.5199-.72-.13-.36-.13-.72.5299-.36.5299-.72-.0399-.36-.0399-.72-.0701-.36-.0701-.72-.0599-.36-.0599-.72-.1601-.36-.1601-.72-.0699-.36-.0699-.72-.03-.36-.03-.72.0799-.36.0799-.72-.0599-.36-.0599-.72.5299-.36.5299-.72-.51-.36-.51-.72.51-.36.51-.72-.08-.36-.08-.72-.37-.36-.37-.72.46-.36.46-.72-.35-.36-.35-.72.21-.36.21-.72-.5199-.36-.5199-.72.13-.36.13-.72.2-.36.2-.72.2199-.36.2199-.72-.24-.36-.24-.72-.1999-.36-.1999-.72.1599-.36.1599-.72-.1899-.36-.1899-.72.38-.36.38-.72-.1701-.36-.1701-.72.37-.36.37-.72-.51-.36-.51-.72-.0499-.36-.0499-.72.53-.36.53-.72-.13-.36-.13-.72-.2401-.36-.2401-.72-.12-.36-.12-.72.14-.36.14-.72.3201-.36.3201-.72.0399-.36.0399-.72-.62-.36-.62-.72.03-.36.03-.72.5301-.36.5301-.72-.25-.36-.25-.72-.09-.36-.09-.72.34-.36.34-.72-.5701-.36-.5701-.72.5-.36.5-.72-.07-.36-.07-.72.1601-.36.1601-.72-.0901-.36-.0901-.72.17-.36.17-.72-.0999-.36-.0999-.72-.47-.36-.47-.72.2799-.36.2799-.72.15-.36.15-.72.02-.36.02-.72-.16-.36-.16-.72 0-.36 0-.72-.3199-.36-.3199-.72.54-.36.54-.72-.1001-.36-.1001-.72-.4199-.36-.4199-.72.13-.36.13-.72-.0301-.36-.0301-.72-.2099-.36-.2099-.72.1999-.36.1999-.72.0201-.36.0201-.72.2299-.36.2299-.72-.28-.36-.28-.72.4501-.36.4501-.72-.61-.36-.61-.72 0-.36 0-.72.6699-.36.6699-.72-.02-.36-.02-.72-.63-.36-.63-.72.2001-.36.2001-.72.0999-.36.0999-.72-.2199-.36-.2199-.72.0499-.36.0499-.72-.09-.36-.09-.72.1701-.36.1701-.72.4199-.36.4199-.72 0-.36 0-.72-.39-.36-.39-.72.0901-.36.0901-.72-.1601-.36-.1601-.72-.13-.36-.13-.72 0-.36 0-.72.25-.36.25-.72-.11-.36-.11-.72.1801-.36.1801-.72-.05-.36-.05-.72-.0601-.36-.0601-.72-.11-.36-.11-.72.4501-.36.4501-.72 0-.36 0-.72-.02-.36-.02-.72-.1601-.36-.1601-.72-.23-.36-.23-.72.1301-.36.1301-.72-.2701-.36-.2701-.72 0-.36 0-.72.34-.36.34-.72-.0699-.36-.0699-.72 0-.36 0-.72.38-.36.38-.72-.1701-.36-.1701-.72-.51-.36-.51-.72.4601-.36.4601-.72-.3301-.36-.3301-.72.4401-.36.4401-.72-.13-.36-.13-.72-.4001-.36-.4001-.72.5201-.36.5201-.72-.24-.36-.24-.72-.14-.36-.14-.72-.0701-.36-.0701-.72.3601-.36.3601-.72-.03-.36-.03-.72 0-.36 0-.72-.26-.36-.26-.72.0899-.36.0899-.72-.25-.36-.25-.72.24-.36.24-.73.11-.36.11-.73-.2-.36-.2-.72.4301-.36.4301-.72-.3601-.36-.3601-.72.1101-.36.1101-.72-.0801-.36-.0801-.72.0301-.36.0301-.72.1899-.36.1899-.72-.4399-.36-.4399-.72.1199-.36.1199-.73.1801-.36.1801-.73.2599-.36.2599-.73-.58-.36-.58-.72.2901-.36.2901-.72-.2001-.36-.2001-.72.15-.36.15-.72.0601-.36.0601-.73.13-.36.13-.73-.2301-.36-.2301-.73.2001-.36.2001-.73.1099-.36.1099-.73-.3299-.36-.3299-.72 0-.36 0-.72-.0901-.36-.0901-.72.41-.36.41-.73-.11-.36-.11-.73.0401-.36.0401-.73-.2901-.36-.2901-.72.23-.36.23-.73.24-.36.24-.73-.63-.36-.63-.73.3301-.36.3301-.73.3099-.36.3099-.73-.67-.36-.67-.73.5-.36.5-.73.05-.36.05-.73-.41-.37-.41-.73.3-.37.3-.73.1301-.37.1301-.73-.2801-.37-.2801-.73c0-.24-.2699-.45-.2999-.68s-.08-.44-.13-.67.0299-.48-.0501-.7-.14-.44-.25-.65-.1999-.42-.3299-.62.0799-.65-.0701-.84-.48-.24-.65-.4-.4999-.15-.6899-.3-.3401-.32-.5401-.45-.3399-.36-.5499-.47-.41-.28-.63-.36-.4801-.09-.7101-.14-.52.32-.76.29-.4299-.14-.6699-.14z" stroke="#000" stroke-linecap="round" stroke-linejoin="round" stroke-width="2.6"/></svg>