<svg fill="none" height="172" viewBox="0 0 73 172" width="73" xmlns="http://www.w3.org/2000/svg"><path d="m60.9203 35.87c.29-.22.38-.18.62-.45s0-.49.24-.76.33-.19.57-.47.17-.34.41-.61.25-.26.49-.54.17-.34.41-.61.56 0 .8-.27.15-.36.39-.63-.11-.58.13-.85.31-.22.55-.49.55 0 .79-.28.08-.42.32-.69.13-.38.37-.65.42-.11.67-.39.36-.17.6-.45-.17-.64.07-.91.46-.09.7-.36.31-.09.16-.44-.05-.35-.41-.35-.36.15-.72.15-.36-.15-.72-.15-.36.02-.72.02-.36.05-.72.05-.36-.09-.72-.09-.36.43-.72.43-.36-.2-.72-.2-.36.28-.72.28-.36.02-.72.02-.36-.5-.71-.5-.36.21-.72.21-.36.14-.72.13-.36.04-.72.04-.36.02-.72.01-.36-.14-.72-.14-.36-.23-.72-.23-.36.25-.72.24-.36.2-.72.2-.36-.5-.72-.5-.36.36-.72.36-.36-.22-.72-.22-.36-.21-.72-.21-.36.06-.72.06-.36-.06-.72-.06-.36.17-.72.17-.36.31-.71.31-.36-.34-.71-.34-.36.2-.71.2-.36-.22-.71-.22-.36-.01-.72-.02-.36.46-.72.46-.36-.34-.72-.34-.36-.15-.72-.16-.36.06-.72.06-.36.44-.72.44-.36-.24-.72-.24-.36-.15-.72-.15-.36-.02-.72-.02-.36.34-.72.34-.36 0-.71 0-.36-.63-.71-.63-.36.25-.72.25-.36.26-.72.26-.36.11-.72.11-.36-.4-.71-.4-.36.33-.72.33-.36.1-.72.1-.36-.45-.72-.45-.36-.02-.72-.03-.36-.15-.72-.15-.36.65-.72.65-.36-.26-.72-.26-.36-.05-.72-.05-.36.21-.72.21-.36-.04-.72-.04-.36-.19-.72-.19-.36-.17-.72-.17-.36.3-.72.29-.36-.06-.72-.07-.36-.13-.72-.13-.36.28-.72.27-.36.1-.72.1-.36-.27-.72-.28-.36-.25-.72-.25-.36.06-.72.05-.36.32-.72.32-.36-.2-.72-.2-.36.16-.72.16-.36-.04-.72-.04-.36-.04-.72-.04-.36-.36-.72-.36-.36.53-.72.53-.36-.15-.72-.15-.36.2-.72.2-.36-.33-.72-.33-.36-.19-.72-.19-.36.37-.72.36-.36-.19-.72-.19-.36.12-.72.11-.36.07-.72.07-.36-.35-.72-.35-.36.13-.72004.13c-.36 0-.36-.24-.72-.24s-.36.31-.72.3-.36.16-.72.16-.35999.01-.71999.01-.36-.22-.72-.22-.36001-.15-.73001-.15-.36999.52-.72999.51-.69001-.71-.85001-.38.54001.15.78001.41-.13.61.12.87.28999.22.53999.47.56-.04.81.22-.15999.64.09001.9.38.13.62.39.42.09.66.35.00999.48.25999.74.28.23.53.48.20001.3.44001.56.40999.1.64999.36.26001.24.51001.5c.25003.26.32003.19.57003.45s.27.24.52.5.06.44.31.7.36.16.61.42.06.44.31.7.48.05.62.39c.06.13-.07.05-.03.19.24.01.4-.24.64-.23s.47.1.71.11.48.05.71.06.47.1.71.11.48-.04.72-.03.46.43.7.44.49-.31.73-.3.49-.19.73-.18.46.49.7.5.48.04.72.05.47.11.71.12.49-.29.73-.28.48-.18.72-.17.47.41.7.42.49-.29.73-.28.46.49.7.5.49-.58.73-.57.47.24.71.24.48.11.71.11.48-.1.72-.1.48.09.72.09.48.12.71.13.49-.47.73-.46.47.47.71.47.48-.44.72-.44.47.5.71.5.48-.05.72-.05.48-.4.72-.4.47.61.71.61.48.05.72.05.48-.67.72-.67.48.21.71.21.48.35.71.35.48-.53.72-.53.48.07.72.07.48.43.72.43.48.02.72.02.48-.4.72-.4.48-.14.72-.14.48.55.72.55.48-.39.72-.39.48.14.72.14.48.25.72.25.48-.33.71-.34.48-.12.72-.12.48-.03.72-.04.48.03.72.03h.72c.24 0 .48-.09.72-.09s.48.25.72.25.48.11.72.1.47-.36.71-.36.48.06.72.06.48.32.72.31.47-.3.71-.3.48.16.72.16.48-.04.72-.04.48-.11.71-.11h.72c.24 0 .48.02.72.02s.48.03.72.03.48-.05.72-.05.48.04.72.04.48.24.72.24.47-.45.71-.45.48.31.72.31.55.1.79.09z" fill="#cebefd"/><path d="m61.0105 35.88c-.04-.12.02-.02-.02-.15-.24 0-.62-.01-.85-.01s-.48.21-.72.21-.48-.27-.72-.26-.47.46-.71.46-.49-.62-.72-.62-.48-.04-.72-.03-.47.6-.71.6-.48-.19-.72-.19-.48-.15-.72-.15-.47.36-.71.36-.48-.29-.72-.29-.48.28-.71.28-.48-.56-.72-.56-.48.23-.71.23-.48.32-.71.32-.48-.46-.72-.46-.48.16-.72.16-.48.05-.72.05-.48-.1-.72-.1-.48.3-.71.31-.48-.12-.72-.12-.48-.12-.72-.12-.48.14-.72.14-.48.27-.72.27-.48-.02-.72-.02-.48 0-.72 0-.48-.18-.72-.18-.48-.41-.72-.41-.48.34-.72.34-.48-.01-.72-.01-.48.25-.72.25c-.2401 0-.48-.09-.72-.09s-.48.14-.72.14-.48-.45-.71-.45-.48.34-.72.33-.48-.27-.71-.28-.48-.03-.72-.03-.48-.17-.71-.18-.48.56-.72.56-.47-.63-.71-.63-.48.35-.72.35-.48-.05-.72-.05-.48-.06-.72-.06-.48.07-.72.07-.48-.02-.72-.03-.48.13-.72.12-.47-.41-.71-.42-.49.46-.73.46-.46-.57-.7-.58-.49.54-.73.53-.47-.21-.71-.22-.47-.31-.71-.32-.48.1-.72.09-.49.33-.73.32-.48 0-.72 0-.47-.12-.71-.13-.48.06-.72.05-.48-.07-.71-.08-.48-.06-.71-.07-.46-.4-.7-.41-.5.41-.74.4-.47-.27-.7-.28-.47-.19-.71-.2-.5.47-.74.46-.48-.08-.71-.1-.47-.14-.71-.16-.31.12-.55.11c-.27.23-.32.14-.52.43s-.2.29-.41.58-.47.1-.68.39-.16.32-.37.61.06.48-.15.77-.28.24-.49.53-.1.37-.3.66c-.20004.29-.31004.22-.52004.51s-.08999.37-.29999.66-.18.31-.39.6-.48.09-.69.38-.15001.33-.35001.62-.43.13-.64.42-.12.36-.33.65-.01.44-.22.73-.3.23-.42.56c-.04.11.04 0 .14.06.24 0 .41001.28.65001.29s.48-.42.72-.42.46999.28.70999.28.48-.18.72-.18.47001.23.71001.23c.24003 0 .48003-.06.72003-.06s.48-.29.72-.29.47.39.71.4.48-.07.72-.07.48 0 .72.01.48-.24.72-.24.47.55.71.55.48-.22.72-.22.48-.03.72-.03.48-.04.72-.04.47.22.71.22.48.09.71.1.48-.14.72-.14.48-.07.72-.07.48-.31.72-.31.47.15.71.16.47.31.71.31.48.11.71.11.48-.03.72-.03.48-.25.72-.25.47.2.71.21.48 0 .72 0 .48-.02.72-.02.48.09.71.1.48-.01.72-.01.48.1.71.11.48-.08.72-.08.48-.27.72-.26.48-.03.72-.02.47.33.71.34.49-.48.73-.48.47.51.71.52.49-.5.73-.5.48 0 .72.01.47.55.71.56.49-.42.72-.41.47.45.71.46.49-.56.73-.56.47.19.71.19.48.09.72.09.48-.15.72-.15.48-.12.72-.12.47.68.71.68.49-.39.72-.39.4699.28.71.29c.24.01.49-.48.73-.48s.47.3.71.31.47.31.71.31.48-.17.72-.16.48 0 .72 0 .48.05.72.06.48-.2.72-.2.4799-.05.72-.04c.24.01.48-.04.72-.04s.47.22.71.23.48-.34.72-.34.48.03.72.03.48.07.72.07.47.26.71.26.48-.21.72-.2.47.3.71.31.48.13.72.14.48-.08.72-.07.48.07.72.07.48.04.72.04.49-.58.73-.57.47.36.71.37.48-.09.72-.09.48.01.72.01.48-.17.72-.17.47.4.71.4.48-.3.72-.3.47.39.71.4.48-.28.72-.28.48-.12.72-.12.4699.38.71.38c.24 0 .48-.29.72-.29s.48-.01.71 0 .48-.18.72-.18.29.33.53.33c-.1-.35.24-.53.04-.83s-.58-.04-.79-.35-.19-.31-.39-.61.06-.48-.14-.78-.64 0-.84-.31.08-.49-.13-.79-.32-.22-.52-.52.07-.49-.13-.79-.32-.22-.52-.52-.26-.26-.46-.56.1-.5-.11-.8-.42-.16-.62-.46-.1-.37-.3-.67-.11-.37-.31-.67-.49-.11-.63-.45-.02-.33-.13-.68z" fill="#fff"/><path d="m67.2704 46.13c.03-.32.05-.19-.19-.4-.24 0-.38.13-.62.13s-.47-.59-.71-.59-.48.2-.72.19-.48.14-.72.14-.48.24-.72.24-.47-.52-.71-.52-.48.53-.72.52-.47-.6-.71-.6-.48.28-.72.28-.48.18-.72.18-.47-.42-.71-.43-.48.23-.72.23-.48-.07-.71-.07-.48.13-.72.13-.48.02-.72.02-.48.14-.72.13-.48.11-.72.1-.48-.01-.72-.01-.47-.62-.71-.62-.48.46-.72.46-.47-.52-.71-.53-.48.17-.72.17-.48-.13-.71-.13-.49.51-.72.51-.48.05-.72.04-.47-.49-.71-.49-.48.42-.72.42-.47-.46-.71-.46-.48 0-.72 0-.48 0-.72 0-.48.29-.72.29-.48-.04-.72-.04-.47-.35-.71-.35-.48.36-.72.35-.48.13-.72.13-.48 0-.72 0-.48 0-.72 0-.47-.18-.71-.18-.47-.31-.71-.31-.48-.04-.72-.04-.48.31-.72.31-.47-.38-.71-.38-.49.55-.73.54-.48-.06-.72-.06-.48 0-.72-.01-.47-.26-.71-.26-.47-.32-.71-.33-.49.44-.73.43-.48-.01-.72-.02-.47-.39-.71-.4-.49.49-.73.49-.48-.2-.71-.2-.48-.07-.72-.07-.48.1-.72.1-.48-.16-.71-.16-.48.08-.72.07-.48.23-.72.23-.47-.42-.71-.42-.48.02-.72.01-.48.36-.72.36-.47-.28-.71-.28-.48.12-.72.12-.48-.01-.72-.01-.47-.23-.71-.23-.48.2-.72.2-.48-.13-.72-.13-.48.33-.72.33-.47-.28-.71-.29-.48.06-.72.05-.47-.3-.71-.31-.48.51-.72.51-.47-.58-.71-.58-.48.16-.72.15-.48-.06-.72-.06-.48-.17-.71-.17-.48.43-.72.42-.48.14-.72.13-.47-.59-.71-.6-.48.41-.72.41-.48-.04-.71-.04-.47001-.3-.71001-.31-.48.37-.72.36-.46999-.39-.70999-.39-.48001.14-.71001.14-.59.11-.83.11c.09.34.41.2.61.49s.03001.41.23001.7.34999.19.54999.49.08001.38.28001.67.39999.15.59999.45-.2.56 0 .86.32001.21.52001.51.27999.24.47999.53.23001.27.43001.57.16.33.36.62.31.22.51.51.14.34.34.63.07.39.27.68.31.22.51.52.4.16.6.46.04.41.24.71.64.18.71.53c.04.18-.63.19-.62.37.24 0 .58 0 .82-.01s.47-.28.72-.29.48-.11.72-.12.5.44.74.43.48-.25.72-.26.49.42.74.42.47-.58.71-.58.49.13.73.12.49.31.73.31.47-.53.71-.54.49.27.73.27.48-.26.72-.26.49.25.73.24.48.05.73.05.48-.13.72-.13.49.23.73.23.48-.45.72-.45.49.35.73.34.48-.23.72-.24.49.41.73.4.48-.39.72-.39.48.07.73.07.48-.24.72-.25.48.15.73.15.48-.03.72-.03.48.3.73.29.48-.28.72-.28.48-.17.72-.17.48.03.72.03.48.07.72.07.48.38.73.38.48-.46.72-.46.48.43.73.43.48-.26.72-.26.48-.02.72-.02.48.4.72.4.48-.3.72-.3.48-.18.72-.18.48-.02.72-.02.48.23.72.23.48-.09.72-.09.48-.16.72-.16.48.43.72.43.48-.19.72-.19.48.04.72.04.48-.2.72-.2.48.37.73.37.48-.46.72-.46.48-.04.72-.05.48.42.73.42.48.05.72.05.48-.12.72-.12.48-.04.72-.04.48-.04.72-.04.48-.14.72-.14.48-.01.72-.01.48-.11.72-.11.49.34.73.34.48-.1.72-.1.49.37.73.37.48-.38.72-.38.49.32.73.32.48-.07.72-.07.48-.26.72-.26.48-.03.72-.03.62.21.86.21c.28-.23.35-.24.57-.52s-.2-.62.02-.9.46-.09.68-.37-.02-.47.21-.75.42-.12.65-.4.45-.1.67-.38-.24-.65-.01-.93.43-.11.66-.4.21-.29.44-.57.25-.26.48-.54 0-.47.22-.75.56-.01.79-.29 0-.46.24-.74.5-.07.72-.36c.19-.25.01-.34.05-.7z" fill="#cebefd"/><path d="m67.5604 64.17c-.03-.42-.22-.38-.52-.66-.24 0-.47.28-.71.28s-.48-.04-.72-.03c-.2401.01-.48.01-.72.01s-.49-.33-.73-.33-.48.2-.72.21-.48-.09-.73-.09-.48-.04-.72-.03-.48.37-.72.38-.48-.03-.72-.02-.48-.06-.72-.05-.48 0-.72.01c-.2401.01-.49-.43-.73-.43s-.47.56-.71.57-.5-.67-.74-.66-.48.05-.72.05-.47.58-.71.59-.49-.26-.73-.26-.49-.16-.73-.16-.48.26-.72.27-.48.03-.72.04-.49-.25-.73-.24-.48-.06-.73-.05-.47.53-.71.54-.5-.52-.74-.51-.48 0-.72.01-.48.03-.72.04-.47.34-.71.34-.47.34-.71.35-.49-.23-.73-.22-.49-.1-.73-.09-.49-.29-.73-.29-.46.53-.71.54-.49-.33-.74-.32-.48.03-.72.04-.49-.18-.73-.17-.48.1-.72.1-.47.47-.71.48-.49-.11-.73-.11-.47.28-.71.29-.48-.03-.72-.02-.49-.3-.73-.29-.49-.16-.73-.15-.48.03-.72.04-.47.49-.71.5-.5-.54-.74-.53-.48-.01-.72 0-.47.44-.71.44-.49-.19-.73-.19-.48 0-.72.01-.48.22-.72.23-.49-.16-.73-.15-.47.31-.71.32-.48.05-.72.05-.49-.13-.73-.12-.48-.02-.72-.02-.48.13-.72.13-.49-.45-.74-.45-.47.55-.71.56-.5-.51-.74-.51-.48.02-.72.02-.48-.07-.72-.06-.47.64-.71.64-.49-.24-.73-.24-.48.21-.72.21-.49-.42-.73-.42-.47.53-.71.53-.49-.14-.73-.13-.49-.19-.73-.19-.48-.1-.73-.1-.48.04-.72.04-.48.11-.72.11-.48-.06-.72-.06-.48.19-.72.19-.48.1-.72.1-.48.08-.72.08-.48-.48-.73-.48-.48.16-.72.16-.48-.05-.72-.05-.48.3-.72003.3c-.24 0-.48-.51-.72-.51s-.48.06-.72.05-.49001.48-.73001.48-.47999-.46-.71999-.46-.45.16-.69.16c.09.35.16.31.36.6s.36999.19.56999.49.02001.42.22.72c.20001.3.27001.25.47001.55s.21.29.41.59.1.36.31.66.52.09.72.39.07.39.27.69-.17.55.03.85.55003.07.75003.37-.06.47.15.77.3.23.51.53.16.33.36.63.28.25.48.55-.02.45.18.75.56.06.76.37.12.34.17.7c.03.22-.07.12-.08.34.24 0 .42.03.66.03s.48-.17.71-.17.48.36.72.36.48-.15.71-.15.48.08.72.08.47-.28.71-.29.48.29.72.28.47-.17.71-.18.48.07.72.06.46-.5.7-.51.48.15.72.15.47-.13.71-.14.48 0 .72 0 .49.25.73.24.48-.04.71-.05.47-.19.71-.2.48-.03.71-.05.49.24.73.23.46-.26.7-.27.5.31.73.3.46-.29.7-.31.5.3.74.28.44-.54.68-.56.5.38.74.36.47-.08.71-.1.46-.21.7-.23.48.03.72.01.5.26.73.25.45-.34.69-.35.46-.33.69-.34.49.21.73.19.5.31.74.29.48-.05.71-.06.47-.12.71-.14.45-.35.69-.36.51.37.74.35.44-.56.68-.58.51.39.74.38.48.06.72.05.45-.4.69-.42.47-.13.71-.14.5.32.74.3.49.16.73.15.46-.23.7-.25.46-.22.7-.23.49.19.73.17.48.05.72.04.48.03.72.02.44-.61.68-.62.5.3.73.28.46-.36.7-.37.5.33.73.32.49.22.73.21.46-.36.7-.37.49.28.73.27.47-.17.71-.18.48.09.72.08.46-.55.69-.56.4799-.02.72-.03c.24-.01.48.08.72.07s.49.43.73.42.47-.14.71-.14.47-.33.71-.33.49.51.73.5.47-.68.7-.68.48.6.72.6.47-.21.71-.21.68.14.92.14c.26-.24.18-.39.38-.69s.1-.36.3-.66-.14-.53.06-.82.27-.24.48-.54.62 0 .82-.3-.14-.53.06-.82.44-.13.64-.42.18-.31.38-.6.3-.22.5-.52.07-.38.27-.68.22-.28.42-.57.23-.27.44-.57.23-.27.44-.57.06-.37.32-.62c.28-.27.38-.31.35-.67z" fill="#cebefd"/><path d="m67.2003 84.27c.17-.13.4199.13.3799-.09-.06-.35-.1-.33-.3-.62s-.47-.1-.67-.39.16-.56-.05-.84-.2499-.25-.4599-.54-.5401-.05-.7401-.33.2701-.63.0601-.92-.5301-.05-.7401-.34-.1199-.35-.3299-.64-.4101-.14-.6101-.43.1701-.57-.0399-.85-.42-.13-.63-.42-.35-.19-.56-.48.01-.45-.19-.74-.35-.18-.56-.47-.26-.25-.47-.54-.0301-.42-.2401-.71-.35-.17-.33-.53c.02-.42.0301-.39.2601-.74s.64-.17.78-.57c-.24 0-.7201-.15-.9601-.15s-.47.24-.71.25-.48-.33-.72-.33-.48-.04-.72-.03-.48.04-.72.04-.48-.06-.72-.06-.48.07-.71.08-.4699.14-.7099.15-.4701.25-.7101.26-.47.07-.71.08-.4899-.31-.7299-.3-.4701.21-.7101.22-.4999-.38-.7299-.37-.4701.14-.7101.15-.46.45-.69.46-.48.02-.71.04-.4699.05-.7099.07-.49-.14-.72-.12-.5-.39-.74-.38-.45.39-.69.4-.48-.02-.72 0-.4601.32-.7001.33-.4699.05-.7099.07-.48-.09-.72-.08-.47.07-.71.09-.51-.43-.75-.42-.46.28-.7001.3c-.24.02-.4799.03-.7099.05s-.5001-.25-.7301-.23-.4699.14-.7099.16-.48 0-.72.01-.48.05-.71.06-.46.24-.7.26-.4601.26-.7001.28-.49-.11-.72-.09-.47.09-.71.11-.5099-.39-.7399-.37-.4601.23-.7001.25-.4699.14-.7099.16-.4601.26-.7001.27-.4899-.23-.7299-.22-.47.17-.71.18-.49-.12-.72-.1-.49-.16-.73-.14-.45.45-.69.46-.4801.04-.7101.06-.4799.06-.7099.07-.51-.52-.75-.51-.4401.7-.6701.71-.48.04-.71.05c-.2299.01-.51-.55-.75-.54-.2399.01-.45.48-.69.5s-.4899-.17-.7299-.16-.46.27-.7.28-.5001-.49-.7401-.48-.45.57-.69.58-.48.04-.72.05-.48-.16-.72-.15-.4799.07-.7099.08-.48-.05-.72-.04-.48-.02-.72-.01-.4801.09-.7101.1-.4799.14-.7099.14-.4901-.63-.7301-.62-.4699.34-.7099.34-.4801-.04-.7201-.04-.48-.02-.72-.02-.51.01-.75.01c-.28.24-.1799.34-.3999.64s-.0001.45-.2301.75-.4899.1-.7099.4-.2301.29-.4401.59.09.52-.13.82-.26.27-.48.57-.67995-.04-.89995.26.06.5-.16.8-.28.25-.5.55.06.5-.16.8-.34999.2-.56999.5-.49001.1-.71001.4-.06.42-.28.72-.4.17-.62.47-.20001.32-.42001.62-.23.33-.39.67c-.04.08.10001.22.18001.26.24.01.51999-.34.75999-.33s.48001.1.72001.11.47.19.71.2.49-.12.73-.11.48.06.72.07.45995.51.69995.52.49-.27.73-.26.47.21.71.22.49-.22.73-.21.48.2.72.21.49-.14.73-.13.4901-.27.7301-.27.48.04.72.04.4699.53.7099.53.5001-.52.7401-.52.4699.59.7099.6.48.05.72.06.49-.49.74-.49.4801.28.7201.29c.2399.01.4899-.22.7299-.22s.48.14.72.15.49-.22.73-.21.48-.06.72-.06.48.39.72.39.4901-.4.7301-.39.4699.58.7199.59.4801-.2.7301-.2.48.11.72.11h.72c.24 0 .4799.04.7199.04s.48.06.72.06.48-.17.72-.17.48-.11.72-.11.48-.1.72-.1.48-.08.72-.08h.72c.24 0 .48.1.72.1s.4801.46.7201.46.48.01.72 0 .48-.17.72-.17.48-.19.72-.19.4799.2.7299.2.48-.52.72-.52.49.59.73.59.48-.08.72-.09.48-.26.72-.26c.2401 0 .48-.24.7201-.24.24 0 .49.63.73.63s.47-.46.72-.47.4899.21.7299.21.47-.36.72-.36.4901.27.7301.27.48-.17.72-.17.48-.13.72-.13h.72c.24 0 .4799.09.7299.09s.48-.13.72-.14.48-.05.72-.05.4901.1.7301.09.4899.09.7299.08.48-.09.72-.1.48-.17.72-.18.48.02.72 0 .49.08.73.07.5.46.74.45.46-.47.7001-.48c.24-.01.4799-.08.72-.09.24-.01.47-.18.72-.19s.4999.45.7399.44.4901.1.7301.09.48 0 .72-.01.47-.18.72-.19.47-.17.72-.18.4999.31.7399.3.45-.61.6901-.62c.24-.01.4799-.06.72-.07.24-.01.49.05.73.04s.51.52.75.51.4599-.38.6999-.39.5.22.74.21.48-.04.72-.05.45-.52.69-.54.49.09.73.08c.2401-.01.51.45.75.43.2401-.02.26-.61.5-.63z" fill="#fff"/><path d="m67.3202 84.51c-.24.02-.42-.16-.66-.15s-.45.5-.69.52-.48.11-.72.13-.51-.46-.75-.45-.49-.15-.73-.14-.45.57-.69.58-.49-.18-.73-.17-.48.05-.72.07-.49-.07-.73-.06-.48-.03-.72-.02-.47.16-.72.17-.46.37-.71.38-.49-.21-.73-.2-.5-.38-.74-.37-.46.53-.7.55-.49-.1-.73-.09-.48.08-.72.09-.49-.13-.73-.12-.48.1-.72.11-.49-.19-.73-.18-.47.32-.71.33-.48-.05-.73-.05-.49-.15-.73-.14-.48.11-.72.12-.48 0-.72.01-.49-.31-.73-.31-.47.33-.71.34-.49-.34-.73-.34-.48.22-.72.23-.48.21-.72.22-.47.29-.72.3-.49-.36-.73-.35-.49-.18-.73-.17-.47.44-.71.44-.49-.15-.73-.15-.48-.02-.72-.02-.48.32-.72.32-.48-.03-.72-.02-.49-.51-.73-.51-.48.44-.72.44-.49-.46-.73-.46-.48.53-.72.53-.48-.03-.72-.02-.48.07-.72.08-.49-.55-.73-.55-.48.23-.72.23-.48-.03-.72-.03-.48-.17-.72-.17-.48.43-.72.43-.48-.44-.72-.44-.48.01-.72.01-.48.47-.72.47-.48-.21-.72-.21-.48.05-.72.05-.48-.21-.72-.21-.48.02-.72.02-.49.37-.73.37-.48-.28-.72-.29-.49.26-.73.25-.48-.33-.72-.33-.48.02-.72.02-.48-.07-.72-.08-.49.23-.73.22-.48-.17-.72-.17-.49.15-.73.15-.48-.19-.72-.19-.48-.26-.72-.26-.49.38-.73.37-.48-.06-.72-.06-.48-.2-.72-.21-.48-.13-.72-.13-.48-.05-.72-.05-.49.23-.73.22-.49.19-.73.18-.48-.04-.72-.04-.48-.08-.72-.09-.48-.05-.72-.06-.47-.4-.71-.41-.49.28-.73.27-.48998.26-.72998.25-.48-.02-.72-.03-.46001-.48-.70001-.49-.51.52-.75.51-.47999-.05-.71999-.06-.75001-.27-.99001-.28c.1.35.34001.32.55001.62s.25999.27.45999.57.44.15.64.45.32.23.52.54.02.43.23.73.27.26.47.57.01.44.22.74.28001.26.49001.56.16999.33.36999.64-.01999.46.18001.77c.19998.31.63998.01.83998.32s.04.42.25.72.32.23.52.54-.16.55.05.86.41.17.62.48.21.31.42.61.13.4.4.65c.24 0 .54-.06.78-.07s.47-.3.71-.3.49.26.73.25.48.09.72.09.49.2.73.19.48-.11.72-.11.48-.21.72-.22.47-.27.71-.28.48-.13.72-.13.49.25.73.24.48-.07.72-.07.48-.18.72-.19.49.19.73.18.49.14.73.13.49.24.73.23.47-.32.71-.33.47-.19.72-.2.49.33.73.32.48.09.73.09.47-.38.71-.39.49.13.73.12.48-.03.72-.04.48-.11.72-.12.47-.25.71-.26.48.06.72.05.48-.11.72-.12.5.56.74.55.46-.64.7-.65.48.04.72.03.5.37.74.36.49.1.73.09.47-.23.71-.24.48-.09.72-.1.47-.16.72-.17.47-.18.71-.19.49.25.73.24.48 0 .72 0 .48.07.73.06.48 0 .72 0 .47-.35.71-.36.5.31.74.3.48-.09.72-.1.48-.02.72-.03.47-.35.71-.36.5.35.74.34.48-.13.72-.14.49.23.73.22.48-.04.72-.05.48.03.72.02.46-.38.7-.39.49.14.73.13.49.16.73.15.48.02.72 0 .46-.45.7-.46.48-.03.72-.04.48 0 .72-.01.47-.2.71-.22.49.28.74.26.48 0 .72 0 .49.18.73.17.46-.48.7-.49.49.1.73.09.48.03.72.01.47-.28.71-.3.51.52.75.51.47-.33.71-.34.61.19.85.18c.26-.25-.15-.59.05-.89s.21-.29.42-.59.17-.32.38-.62.72.05.92-.25.16-.33.36-.63.05-.4.25-.7-.02-.45.18-.75.58-.04.79-.35.03-.42.23-.72.13-.35.34-.65.19-.31.4-.61.3-.24.5-.54.24-.28.44-.58.08-.39.3-.68.24-.27.34-.62z" fill="#cebefd"/><path d="m60.6605 115.03c.26-.24.02-.38.22-.67s.63 0 .83-.28-.14-.52.06-.81.41-.15.6-.44.41-.15.61-.44-.18-.55.01-.84.05-.39.24-.68.45-.12.65-.41.35-.19.55-.48.1-.36.3-.65.08-.37.28-.66.13-.33.33-.62.6-.02.79-.32.13-.33.33-.63.16-.32.36-.61-.02-.44.18-.73.18-.31.38-.6.13-.21.13-.56c0-.32.21-.35-.04-.55-.24.01-.49.36-.74.37s-.51-.58-.75-.57-.45.56-.69.58-.51-.5-.75-.48-.48.02-.72.03-.47.24-.71.25-.46.33-.7.35-.49-.19-.73-.17-.48.09-.72.1-.47.11-.71.13-.48.03-.72.05-.5-.28-.74-.26-.47.23-.71.25-.5-.32-.74-.3-.45.45-.69.47-.49-.1-.73-.09-.49-.14-.73-.12-.46.35-.7.37-.51-.36-.75-.35-.45.52-.69.54-.5-.29-.74-.28-.46.39-.7.41-.49-.06-.73-.05-.51-.34-.75-.32-.46.36-.7.38-.51-.44-.75-.42-.44.62-.68.64-.48.09-.72.11-.5-.22-.74-.2-.5-.21-.74-.19-.45.45-.69.47-.51-.4-.75-.38-.47.22-.71.24-.47.19-.71.2-.51-.34-.75-.32-.48 0-.72.02-.48-.04-.72-.02-.44.56-.68.58-.5-.21-.74-.19-.47.2-.71.22-.49-.13-.73-.12-.49-.19-.73-.17-.48-.02-.72 0-.48.09-.72.1-.47.18-.71.2-.49-.19-.73-.17-.48.02-.72.04-.47.16-.71.17-.48.09-.72.1-.49-.2-.73-.19-.46.41-.7.42-.48-.04-.72-.02-.49-.08-.73-.07-.46.31-.7.32-.49-.14-.73-.13-.49-.22-.73-.21-.46.32-.7.33-.47.22-.71.23-.47.16-.71.18-.5-.51-.74-.5-.46.45-.7.46-.5-.32-.74-.31-.48-.03-.72-.02-.48-.09-.72-.08-.48-.03-.72-.02-.48.1-.72.11-.46.52-.7.53-.49-.37-.73-.37-.49-.21-.73-.2-.47.21-.71.21-.47.27-.71.28-.49-.21-.73-.21-.48.22-.72.23-.48.04-.72.05-.48-.19-.72-.19-.48.05-.72.05-.48-.18-.72-.18-.48.16-.72.17-.48.37-.72.37-.48-.6-.72002-.6c-.24 0-.48.49-.72.49s-.48-.36-.72-.36-.48-.05-.72-.05-.47999 0-.71999 0-.17.12-.41.11c.1.33-.32.53-.11.81s.43999.11.64999.39.36.17.56.45-.23.6-.03.88.34001.19.54001.47.28.23.48.51.35999.17.55999.45.37001.16.58001.44.01999.41.23001.69c.21.28-.14001.53.07.82.21.29.5.07.7.35s.19.3.4.58.06.39.27.67.46.1.67.39.15.29.41.53c.24.01.38-.06.62-.05s.46.51.7.52.48-.05.72-.04.5-.5.74-.49.47.42.71.42.48.06.72.07.48-.15.72-.15.49-.27.73-.26.47.5.71.5.48.07.72.08.48-.1.72-.1.48-.37.72-.37.48.34.72.34.48-.33.72-.33.48.4.72.4.48-.36.72-.36.48.35.72.34.48.07.72.07.48-.21.72-.21.48-.2.72-.21.48-.05.72-.05.48.28.72.28.48-.3.72-.31.49.51.73.51.47-.42.71-.42.49.23.73.23.48.05.72.05.47-.32.71-.32.48.15.72.14.47-.25.72-.26.49.41.73.4.47-.31.71-.32.49.23.73.23.47-.46.71-.46.5.55.74.54.47-.39.71-.39.49.18.73.17.47-.34.71-.34.5.53.74.52.47-.3.71-.3.48-.19.72-.2.48.07.72.06.49.16.73.15.47-.42.71-.43.49.43.73.43.47-.43.71-.44.49.16.73.15.47-.23.72-.24.48-.07.72-.08.5.6.74.59.47-.5.71-.51.48 0 .72-.01.48.02.72.02.48-.12.72-.13.48.16.73.15.49.21.73.2.48-.17.72-.18.48-.2.72-.2.49.5.73.5h.72c.24 0 .48-.42.72-.42s.48.29.72.29.48-.17.72-.18.48.21.72.21.48.04.72.04.48-.34.72-.34.41.04.65.04z" fill="#cebefd"/><path d="m67.6102 126.36c.12-.07.3701-.01.3301-.14-.11-.34-.31-.26-.51-.56s-.34-.2-.55-.49.17-.56-.03-.85-.4301-.14-.64-.44c-.21-.3-.4801-.1-.6901-.4s.1201-.52-.0899-.81-.09-.37-.3-.67-.44-.13-.65-.43-.38-.18-.58-.47.28-.63.07-.93-.6801.03-.8901-.27-.1999-.3-.3999-.6.23-.6.02-.89-.6401 0-.8401-.29-.0899-.38-.2999-.68-.3001-.23-.5101-.53.0801-.5-.1199-.8-.78-.13-.81-.5c-.02-.29.29-.27.34-.55-.2401 0-.21-.04-.45-.04s-.48.31-.72.31-.48-.42-.72-.42-.48.22-.72.22-.48.24-.72.24-.49-.44-.73-.44-.48-.11-.72-.11-.48.14-.72.14c-.2401 0-.48.17-.7201.17-.24 0-.4799-.18-.72-.17-.24.01-.48.24-.72.24s-.47.28-.72.28-.4899-.39-.7299-.38-.48.14-.72.14-.48-.01-.72 0-.49-.3-.73-.3-.47.25-.71.25-.48-.02-.72-.01-.48.04-.72.04-.47.39-.71.39-.48-.1-.72-.1-.49-.18-.73-.17-.49-.2-.73-.2-.48.16-.72.17-.48.19-.72.2-.49-.22-.73-.21-.48-.03-.72-.03-.47.52-.71.53-.5001-.64-.7401-.63-.4699.46-.7099.47-.4901-.4-.7301-.4-.4799.07-.7199.07-.47.58-.71.59-.49-.46-.73-.46-.48.23-.72.24-.48-.09-.72-.09-.49-.25-.73-.24-.48.21-.72.22-.48-.06-.72-.06-.48.03-.72.04-.47.53-.71.53-.48-.13-.72-.13-.48-.16-.72-.16-.48-.19-.72-.18-.48.19-.72.2-.48.1-.72.11-.48-.34-.73-.33-.48.48-.72.48-.48-.17-.72-.17-.48-.29-.72-.29-.48.04-.72.04-.48.38-.72.38-.48-.16-.72-.16-.48-.29-.72-.29-.48-.1-.72-.11-.48.41-.72.41-.48.03-.72.03-.48.23-.73.23-.48-.25-.72-.26-.48-.06-.72-.07-.49.21-.73.2-.47-.48-.71-.48-.48-.07-.72-.08-.48 0-.72-.01-.49.29-.73.28-.48 0-.72-.01-.72-.2-.96-.21c-.05.12.4.18.36.31-.1.35-.09.36-.28.66s-.04.4-.23.71-.32.22-.51.53-.11.35-.3.66-.32.22-.52.53-.48.13-.67.43c-.19004.3.17.53-.02.84-.19004.31-.14004.34-.33004.65s-.14.33-.33.64-.34.21-.54.52-.33.22-.52.53-.32.23-.51.54-.11999.36-.30999.66.20999.56.01999.87-.39001.13-.47001.49c.24 0 .28001-.14.52001-.13s.48 0 .72 0 .47.32.7.33.48-.08.72-.07.47004.22.71004.23.48-.13.72-.12.48 0 .72 0 .49-.19.72-.18.47.27.71.28.49-.35.73-.34.46.55.69.56.48-.14.72-.13.48-.17.72-.16.46.34.7.35.5-.56.74-.55.46.37.7.38.48-.13.72-.12.46.42.7.42.5-.6.74-.59.45.6.69.61.5-.47.73-.46.47.1.71.11.47.29.71.3.49-.33.73-.32.46.59.69.6.48-.13.72-.12.49-.39.73-.38.48.02.72.03.47.16.71.17.49-.23.72-.22.46.4.7.41.48.02.72.03.49-.26.73-.25.47.17.71.18.48-.13.72-.12.4599.45.6999.46.48-.15.72-.14.48.03.72.04.4901-.29.7301-.29.47.25.71.26.48.02.72.03.4699.19.7099.19.4701.11.7101.11.4899-.53.7299-.52.4601.56.7001.56.49-.48.73-.47.47.13.71.13.48-.08.72-.07.47.12.71.13.48-.19.72-.19.4699.25.7099.25.48-.04.72-.04c.2401 0 .4701.16.7101.16s.48.05.72.05.47.22.71.22.48-.25.72-.25.47.32.71.33.48-.25.72-.25.48-.06.72-.06.48.13.7099.14c.23.01.48-.34.7201-.34.24 0 .47.23.71.24s.48.03.72.03.47.26.71.26.48.06.72.06.48-.39.72-.39.48.03.72.03.48.13.72.13.48.25.71.25.48-.65.72-.65.47.65.71.65.48-.61.72-.61h.72c.24 0 .48.44.72.44s.48-.44.72-.44.48.43.72.43.48-.07.72-.07.48.1.72.1.48-.06.72-.06.47-.46.71-.46.48.39.72.39h.72c.24 0 .48.03.72.02s.48.03.72.03.41-.29.65-.29z" fill="#fff"/><path d="m61.1002 136.63c-.24 0-.71-.19-.94-.19s-.48-.15-.72-.15-.48.26-.72.26-.48-.3-.72-.29-.48.21-.72.21-.48-.09-.72-.09-.48-.11-.72-.11-.48.11-.72.11-.48.12-.72.12-.48-.25-.72-.25-.48.42-.72.42-.48.15-.72.15-.48.04-.72.04-.48-.3-.72-.3-.48.09-.72.09-.48 0-.72 0-.4799.21-.7199.21-.48 0-.72 0-.48-.45-.72-.46-.48.21-.72.21c-.2401 0-.48-.35-.72-.35-.2401 0-.48.26-.7201.26-.24 0-.48-.2-.72-.2s-.48.45-.72.45-.48-.4-.72-.4-.48.47-.72.47-.48-.37-.72-.37-.48.37-.72.37-.48-.16-.72-.16-.48.13-.72.13-.48-.12-.72-.12-.48-.08-.72-.09-.48-.37-.71-.37-.48.12-.72.11-.48-.04-.72-.05-.48.19-.72.19-.48-.33-.71-.33-.48.25-.72.24-.48.37-.72.37-.47-.51-.71-.52-.48.15-.72.15-.48.31-.72.31-.47-.62-.71-.62-.48.08-.72.08-.48.37-.72.37-.48 0-.72-.01-.48-.22-.72-.23-.48.28-.72.28-.48-.21-.72-.21-.48.03-.72.03-.48-.33-.72-.33-.48.6-.72.6-.48-.15-.72-.15-.48-.01-.72-.01-.48-.36-.72-.37-.48.5-.72.5-.48.03-.72.03-.48-.14-.72-.14-.48.01-.72.01-.48.08-.72.08-.48.1-.72.1-.48-.44-.72-.43-.48.28-.72.28-.48-.17-.72-.17-.48-.1-.72-.1-.48-.03-.72-.02-.48.4-.72.4-.7-.23-.94-.22c.03.3.41.21.56.47s.56.29.51.58c-.05.35-.45.27-.68.54s-.23.27-.46.54-.22.28-.44.55-.29.22-.52.49 0 .47-.22.74-.57997-.02-.80997.25-.27.23-.5.5.00001.46-.22999.73-.01999.44-.23999.71-.68001-.11-.91001.16-.15001.34-.37001.61-.09998.38-.32998.65-.22002.28-.45002.56 0 .47-.22.75-.36999.15-.59999.43-.73.11-.58.44.35001.18.71001.19.35998.02.71998.03.36-.26.72-.26.35001.28.71001.28.36.02.72.03.36.09.72.1.36-.11.71996-.11c.36 0 .36-.23.72-.22s.36-.17.72-.16.35.37.71.37.36.2.71.2.37-.52.73-.52.36.01.72.02.36.05.72.06.36.05.72.06.36.17.72.17.36-.07.72-.07.36.11.72.11.36.02.72.02.36-.12.72-.12.36-.02.72-.01.35.37.71.38.36-.5.72-.49.36.01.71.02.35.54.71.54.36-.45.72-.45.36-.03.72-.02.35.43.71.43.36-.05.72-.04l.72.02c.36.01.36-.24.72-.24h.72c.36 0 .36.2.71.2s.37-.46.72-.46.36.15.71.15.35.32.71.33.36-.21.72-.21.36-.08.72-.08.35.45.71.46.36-.28.72-.27.36.13.71.14.36-.12.72-.11.36-.31.72-.31.35.3.71.31.36.06.72.06.36.18.72.18.36-.07.72-.06.36-.12.72-.11.36-.3.72-.29.36.16.72.16.35.41.71.42.36.04.72.05.36-.21.72-.21.36-.35.72-.34.3501.44.7101.45.36-.16.72-.16.36-.07.72-.07.3599.24.7199.25.37-.46.73-.45.36.19.72.2.36.16.72.17.36.13.72.13.3701-.36.7301-.36.3499.49.7099.5.3701-.36.7301-.36.3499.42.7099.43.37-.38.73-.37.35.44.71.44.3701-.58.72-.58c.35 0 .35.34.71.35s.36-.03.72-.03.36-.21.72-.2.36.4.72.41.36-.19.72-.19.36-.16.72-.15.36.13.72.14.36.07.72.08.36.16.7201.17c.36.01.3699-.5.7299-.49s.36.47.72.47.36-.13.73-.13.36-.05.72-.04.36.35.72.36.36-.1.73-.09.37-.36.73-.36.36.17.73.17.48.27.64-.05-.25-.16-.46-.45-.0799-.39-.2999-.68-.4001-.16-.6201-.45-.29-.24-.51-.53-.12-.37-.33-.66-.2899-.24-.5099-.53-.0101-.44-.2301-.74-.23-.29-.44-.58-.01-.44-.23-.73-.28-.25-.49-.54-.31-.22-.53-.51-.07-.4-.29-.69-.3899-.17-.5999-.46-.3701-.18-.5901-.47-.26-.26-.48-.55.0701-.51-.1499-.81-.56-.14-.5-.5c.07-.47.5099-.23.6399-.62z" fill="#fff"/><path d="m60.6701 136.34c.26-.24.66.1.86-.2s-.11-.5.09-.8.09-.37.29-.67.62 0 .82-.31-.16-.54.03-.84.52-.08.72-.37.19-.3.39-.6 0-.43.19-.73.17-.31.37-.61.34-.2.55-.5.08-.38.28-.67.1-.36.3-.66.29-.24.49-.53.1-.37.3-.66.1-.37.3-.67.13-.35.33-.65.5-.08.59-.43c-.24 0-.38.26-.62.27s-.48-.13-.72-.13-.48.22-.71.22-.48-.26-.72-.26-.48-.31-.72-.31-.48 0-.72 0-.48.39-.71.39-.48-.33-.72-.33-.48.5-.71.5-.48-.46-.72-.46-.48-.14-.72-.14-.48.34-.72.34-.48-.34-.72-.34-.48.22-.72.22-.48.16-.72.16-.48.09-.72.09-.47-.36-.71-.36-.48.29-.72.29-.47-.43-.71-.43-.48.17-.72.16-.48.19-.72.19-.47-.2-.71-.2-.48-.1-.71-.1-.48.32-.72.32-.48.25-.72.25-.48-.11-.71-.11-.47-.19-.71-.2-.48.21-.72.21-.47-.31-.71-.31-.48.23-.72.23-.47-.52-.7-.53-.48.05-.72.04-.49.56-.73.55-.46-.63-.7-.64-.48.12-.72.11-.49.41-.73.4-.46-.55-.7-.56-.48 0-.72 0-.48-.07-.71-.08-.49.54-.73.54-.46-.47-.7-.48-.48.22-.72.21-.48.07-.72.06-.47-.14-.71-.15-.49.27-.72.26-.48.02-.72.02-.48-.01-.72-.02-.47-.21-.71-.22-.46-.41-.7-.42-.5.57-.74.56-.47-.24-.71-.25-.49.27-.73.26-.46-.54-.7-.55-.49.33-.73.32-.48-.02-.72-.03-.48-.07-.71-.08-.48-.06-.71-.06-.48 0-.72 0-.48.1-.72.09-.47-.14-.71-.15-.48.03-.72.02-.47-.16-.71-.17-.47-.25-.71-.26-.49.34-.73.33-.48 0-.72 0-.48-.02-.72-.03-.47-.22-.71-.23-.49.32-.73.31-.48-.03-.72-.04-.45-.64-.69-.65-.5.43-.73.42-.48.17-.72.16-.47-.3-.7-.31-.49.24-.73.24-.47-.23-.71-.24-.48 0-.72 0-.48.08-.72.07-.48-.04-.71-.05-.46-.4-.7-.41-.5.47-.73.46-.45-.59-.69-.6-.50001.63-.74001.62-.45999-.41-.69999-.42-.48001.18-.72001.17-.67999-.4-.91999-.41c-.25.23.12.57-.06.85s-.28.18-.28.52c0 .37-.01.34.17.66s.42.18.61.51-.13.5.05.82.55.11.73.43-.11.49.07.81.32.24.50001.57c.18.33-.1.48.08.8s.19999.31.37999.63.61.08.8.4.09.38.27.7-.17.52.01.85.11.36.29.68.41.19.6.51.17.33.36.65.18.33.36.65 0 .5.27.77c.24 0 .65-.05.89-.05s.48-.4.72-.4.48.24.72.24.48-.26.72-.26.48.55.72.55.48-.32.72-.32.48.36.72.35.48.02.72.02.48-.53.72-.53.48.07.72.07.48-.1.72-.1.48.46.72.46.48.04.72.04.48-.61.72-.61.48.6.72.6.48-.6.72-.6h.72c.24 0 .48.02.72.02s.48.11.72.12.48.31.72.31.48-.29.72-.29.48.01.72.01.48.42.72.42.48-.27.72-.26.48-.19.72-.19.48.28.72.28.48-.15.72-.15.48-.02.72-.01.48-.19.72-.19.48.18.72.18.48-.16.72-.15.48.2.72.21.48.3.72.3.48-.48.72-.48.47.56.71.56.48-.23.72-.23.48-.21.72-.21.48.36.71.36.48.08.72.08.48-.2.72-.2.48-.33.72-.33.47.6.71.6.48-.5.72-.5.48.4.71.4.48-.21.72-.21.48.28.72.28.48-.13.72-.13.48-.29.72-.29.48.14.72.14.48-.25.72-.25.48.28.72.29.48.04.72.04.48-.29.72-.29.48.22.72.22.48-.1.72-.1.48-.15.72-.15.48.17.72.17.48-.06.72-.06.48-.09.72-.09.48.06.72.06.48-.04.72-.04.48.54.72.54.48-.2.72-.2.48-.18.72-.18.48.34.72.34.47-.59.71-.59.48 0 .72-.01.28.11.52.1z" fill="#cebefd"/><path d="m67.3706 104.1c-.11-.35-.09-.36-.3-.65s-.51-.08-.73-.37.03-.48-.18-.77-.5-.09-.71-.38.11-.53-.11-.82-.22-.29-.44-.58-.5-.08-.72-.38.29-.66.07-.96-.64.02-.85-.28-.3-.23-.51-.52-.09-.39-.3-.68-.08-.39-.29-.69.04-.48-.18-.78-.4-.16-.62-.46-.16-.34-.38-.63-.66-.11-.68-.48c-.02-.34.21-.34.39-.61s.59-.13.67-.45c-.24.01-.69-.04-.93-.02s-.49-.07-.73-.06-.46.44-.7.45-.5-.41-.74-.4-.49-.17-.73-.15-.47.16-.71.17-.48.09-.72.1-.47.15-.72.16-.47.26-.71.27-.51-.57-.75-.56-.47.19-.71.2-.48.05-.72.07-.47.22-.71.23-.5-.34-.74-.32-.48.14-.72.15-.48-.02-.72-.01-.46.49-.7.5-.48.12-.72.13-.5-.44-.74-.43-.48.1-.72.11-.49-.16-.73-.15-.49-.08-.73-.07-.45.69-.69.7-.5-.3-.74-.29-.48.11-.72.12-.49-.21-.73-.2-.46.44-.7.45-.5-.39-.74-.38-.47.19-.71.2-.47.28-.71.29-.51-.54-.75-.53-.47.23-.71.24-.47.26-.71.27-.49-.24-.73-.23-.49-.08-.73-.07-.47.21-.71.22-.49-.31-.73-.3-.48 0-.72.01-.46.54-.7.55-.5-.43-.74-.42-.48.16-.72.17-.48.06-.72.07-.49-.14-.73-.14-.46.48-.7.48-.48.08-.72.09-.49-.32-.73-.32-.48-.05-.72-.04-.47.43-.71.44-.49-.24-.73-.23-.48-.05-.72-.04-.48.09-.72.09-.49-.24-.73-.23-.47.47-.71.48-.48.05-.72.05-.49-.29-.73-.29-.48-.12-.73-.11-.48.01-.72.02-.48.09-.72.09-.47.31-.71.32-.49-.35-.73-.34-.47.29-.71.3-.48-.11-.72-.1-.47.39-.71.4-.49-.25-.73-.24-.48-.02-.72-.01-.48.24-.72.24-.66-.24-.9-.23c.04.27.46.15.43.42-.04.36-.45.1-.65.39s.21.58 0 .88-.39.17-.59.47-.38.17-.59.47.26.62.06.92-.72-.06-.93.23-.02.42-.23.72.11.52-.1.81c-.21002.29-.50001.09-.71001.39s-.15001.34-.35001.63-.04.41-.25.71-.46999.11-.67999.41-.00002.44-.20002.74-.47998.1-.68998.4.21.59 0 .88-.41.16-.61.46-.05.41-.25.71-.85.09-.86.45c0 .33.25999.47.50999.68.24 0 .6.15.84.15s.48-.21.72-.21.48-.27.72-.27.48.18.72.18h.72c.24002 0 .48002.07.72002.06s.48-.38.72-.38.48.17.72.17.48-.21.72-.22.49.68.73.68.47-.63.71-.64.49.3.73.29.48.04.72.03.48.14.73.13.48-.2.72-.21.48.08.72.07.49.15.73.15.48-.01.72-.02.46-.57.7-.58.48-.06.72-.07.48.07.72.07.48.02.72.01.47-.16.71-.17.5.36.74.35.47-.17.71-.18.49.2.73.19.48-.1.72-.11.48-.09.72-.1.49.22.73.2.46-.41.7-.43.49.19.73.18.48.06.72.04.48.02.72 0 .45-.59.69-.6.51.52.75.51.47-.15.71-.17.49.15.73.14.47-.12.71-.14.45-.45.69-.47.51.39.75.38.46-.32.7-.33.47-.21.71-.22.5.24.74.23.49.11.73.1.45-.49.69-.51.52.63.76.61.44-.61.68-.63.47-.11.71-.12.5.3.74.29.46-.36.7-.38.48-.05.72-.07.53.63.77.61.47-.11.71-.12.44-.56.68-.58.52.58.76.57.46-.35.7-.37.46-.31.7-.32.52.49.76.48.47-.12.71-.14.48-.02.72-.03.46-.37.7-.39.47-.21.71-.23.5.26.74.25.47-.19.71-.2.49.17.73.16.47-.13.71-.14.5.21.73.19.47-.17.71-.19.48.02.72 0 .46-.26.7-.28.5.3.74.28.48 0 .72-.02.46-.35.7-.37.47-.23.71-.25.52.57.76.55.47-.2.71-.21.48.05.72.03.48-.1.72-.11l.72-.03c.24-.01.48-.08.72-.09s.47-.23.71-.25.49.11.73.1.48-.06.72-.07.47-.17.71-.18.42.2.66.19z" fill="#fff"/><path d="m60.8201 54.43c-.24 0-.55.29-.79.29s-.49-.18-.73-.17-.48.32-.72.32-.49-.31-.73-.31-.48.19-.72.2-.48.21-.72.21-.49-.31-.73-.31-.48-.15-.73-.15-.48.44-.72.45-.48-.06-.73-.06-.48.04-.72.04-.48.06-.72.06-.49-.59-.73-.58-.48.12-.72.13-.48-.05-.72-.05-.48.22-.72.22-.48 0-.72 0-.48.13-.72.13-.48-.5-.73-.5-.48.22-.72.22-.48.41-.72.41-.48-.35-.73-.35-.48.29-.72.29-.48-.19-.72-.19-.48-.25-.72-.25-.48.29-.72.29-.48-.05-.72-.05-.48.22-.72.22-.48-.36-.72-.36-.48.43-.72.43-.48-.51-.72-.51-.48.47-.72.47-.48-.48-.73-.48-.48.54-.72.54-.48 0-.72 0-.48-.42-.73-.42-.48.45-.72.45-.48-.52-.73-.52-.48.13-.72.13-.48.15-.72.15-.48.19-.72.19-.48-.22-.73-.22-.48.28-.72.28-.49-.44-.73-.44-.48.21-.72.22-.48.1-.72.1-.49-.3-.73-.3-.48-.12-.73-.12-.48.33-.72.33-.48.11-.72.11-.48.06-.72.06-.49-.5-.73-.5-.48.1-.72.11-.48.02-.72.02-.48.41-.72.42-.48-.07-.73-.06-.49-.38-.73-.37-.47.44-.71.44-.49-.16-.73-.16-.49-.28-.73-.27-.49-.08-.73-.07-.48.26-.72.26-.47.37-.71.38-.49-.2-.73-.2-.49-.26-.73-.25-.48.25-.73.26c-.27.24-.21.3-.42.6s-.23.29-.44.58-.08.4-.29.69-.55.05-.77.34.19.59-.02.88-.3.24-.51.53-.24.28-.46.57c-.21997.29-.1.38-.30998.68-.21.3-.17999.32-.39999.62s-.46.12-.67.41-.42001.15-.63001.45.26001.64.05001.94-.21.3-.43.6-.56001.05-.78001.35.05001.49-.15999.79-.86.03-.94.39c-.04.2.53.08.69.19.24 0 .32999.23.56999.24s.48001-.06.72001-.05.48.12.72.12.48.28.72.28.48-.09.72-.09c.23997 0 .47997.08.71997.08s.48-.09.72-.09.48-.47.72-.47.48.17.72.17.48.14.72.14.48.2.73.2.48-.39.72-.39.48.18.73.18.48.05.72.05.48-.03.72-.04.48-.4.72-.4.48.14.73.13.48-.19.72-.19.48.01.72 0 .49.24.73.23.48-.13.72-.14.48-.13.72-.14.5.61.74.61.47-.51.71-.51.48.08.73.07.49.18.73.17.48-.02.72-.03.49.1.73.1.47-.51.71-.51.49.44.74.43.48.02.72 0 .47-.56.71-.57.5.52.74.51.48-.23.72-.24.48-.14.72-.15.48-.13.72-.13.5.43.74.42.48-.09.72-.1.47-.38.71-.39.49.29.73.28.47-.34.71-.35.49.33.74.32.47-.26.71-.27.48-.13.72-.14.48.02.72 0 .5.48.74.47.47-.33.71-.34.48-.08.72-.09.48-.15.72-.16.5.5.74.5.48-.08.72-.09.49.09.73.08.47-.38.71-.39.49.13.73.12.49.08.73.07.47-.29.71-.3.47-.27.71-.28.49.36.74.35.48-.2.72-.2.48-.03.72-.04.5.46.74.45.46-.59.71-.6.49.08.73.08.49.27.73.27.48.01.72 0 .48-.06.72-.07.48-.07.72-.08.48-.23.72-.24.49.43.74.42.47-.49.71-.5.5.52.74.52.47-.45.71-.46.48-.17.72-.17.49.28.73.27.49.12.73.12.48-.37.72-.37.49.46.73.45.48-.09.72-.09.48.04.72.04.48-.3.72-.31.49.41.73.41.48-.13.72-.13.48-.55.72-.55.48.31.73.31c-.11-.35-.26-.26-.48-.55s-.24-.27-.45-.57-.13-.35-.34-.65.07-.5-.14-.79-.78.11-.99-.18.29-.65.07-.95-.24-.28-.45-.57-.16-.34-.37-.63-.6-.01-.81-.31-.18-.32-.39-.61-.35-.19-.57-.49.21-.6 0-.9-.47-.11-.68-.41-.2-.31-.41-.6 0-.36-.11-.71c-.04-.14-.06-.13-.11-.15z" fill="#fff"/><path d="m31.6101 160.14c.36 0 .36-.21.72-.21s.36-.37.72-.37.36.49.72.49.36-.13.72-.13.36.08.72.08.36-.02.72-.02.36-.3.72-.3.36.33.72.33.36-.36.72-.36.36.15.73.15.36-.17.72-.17.36.03.72.03.36.3.72.3.36-.05.73-.05.36-.16.73-.16.3601.26.7301.26.3599-.25.7299-.25c.22 0 .52-.08.71 0s.47.23.62.38.32.42.4.61-.02.5-.02.72c0 .38-.41.38-.41.76s.03.38.03.76.12.38.12.76c0 .24.03.46 0 .7s.12.5.06.73.1.56.02.78-.37.39-.48.6-.26.42-.4.61-.4699.23-.6299.41-.0001.68-.1901.84-.6199 0-.8099.14-.5001.04-.7201.15-.18.74-.41.83-.6-.31-.83-.25-.43.16-.67.19-.45.53-.69.53c-.37 0-.37-.03-.74-.03s-.37-.05-.74-.05-.37.1-.75.1-.37-.19-.75-.19-.37-.44-.75-.44c-.24 0-.45.04-.69 0s-.46 0-.69-.05-.41-.2-.63-.29-.43-.15-.64-.26-.44-.16-.63-.29-.66.06-.84-.1-.13-.56-.29-.74-.12-.49-.25-.69-.2-.4-.31-.61-.17-.4-.26-.63-.68-.28-.73-.51.16-.52.13-.76.21-.47.21-.71c0-.38-.61-.38-.61-.76s.19-.38.19-.76-.12-.38-.12-.76c0-.22.19-.48.27-.67s.37-.27.52-.42.19-.54.38-.62.49.39.71.39z" fill="#cebefd"/><path d="m31.6104 159.84c.36 0 .36-.23.72-.23s.36.31.72.31.36-.18.72-.18.36.43.72.43.36-.66.72-.66.36.26.72.26.36.26.72.26.36-.4.72-.4.36-.08.72-.08.36.09.73.09.36.18.72.18.36.21.72.21.36-.03.72-.03.36-.25.73-.25.36.36.73.36.36-.3.73-.3.36.05.73.05c.22 0 .49-.14.68-.06s.29.38.44.53.54.2.63.4-.4.51-.4.73c0 .38.32.38.32.76s-.19.38-.19.76.02.38.02.76c0 .24.09.48.06.71s.1.51.05.74-.19.46-.27.68-.08.51-.19.72-.66.15-.8.35-.06.54-.22.71-.12.57-.3.73-.49.19-.68.33-.34.4-.56.51-.48.17-.7.26-.52-.02-.75.04-.45.22-.69.25-.49-.13-.73-.13c-.37 0-.37.04-.74.04s-.37-.09-.74-.09-.37-.17-.75-.17-.37.19-.75.19-.37-.27-.75-.27c-.24 0-.49.38-.72.35s-.54.17-.77.11-.29-.7-.51-.78-.49-.02-.7-.13-.64.12-.84-.02-.23-.52-.4-.67-.44-.25-.6-.43-.31-.38-.45-.58-.15-.48-.26-.69-.09-.47-.17-.7-.01-.47-.07-.7-.36-.4-.39-.64-.16-.47-.16-.71c0-.38.27-.38.27-.76s-.03-.38-.03-.76-.44-.38-.44-.76c0-.22.57-.34.65-.54s-.22-.68-.07-.83.67.24.87.15.28-.4.5-.4z" stroke="#000" stroke-linecap="round" stroke-linejoin="round" stroke-width="2.6"/><path d="m8.71042 160.68c.36 0 .35998-.5.71998-.5s.36001.13.72.13c.36 0 .36.15.72.15s.36.12.72.12h.72c.36 0 .36.11.72.11s.36-.61.72-.61.36.52.72.52.36-.2.72-.2.36.03.72.03h.72c.36 0 .36-.06.72-.06s.36.25.72.25.36.06.72.06.36-.29.72-.29h.72c.36 0 .36-.27.72-.27s.36.16.72.16.36.33.72.33.36-.42.72-.42.36.14.72.14.36.14.72.14.36.29.72.29.36-.39.72-.39.36-.01.72-.01.36-.13.72-.13.36.53.72.53.36-.07.72-.07.36-.61.72-.61h.72c.36 0 .36.27.72.27s.36.13.72.13.36.26.72.26.36-.31.72-.31.36-.14.72-.14.36.2.72.2.36-.3.72-.3.36.51.72.51.36-.58.72-.58.36.44.72.44.36-.3.72-.3.36-.19.72-.19.36.44.72.44.36.03.72.03.36-.22.72-.22.36.34.72.34.36-.11.72-.11.36-.2.72-.2.36-.19.72-.19.36.28.72.28.36.08.72.08.36-.21.72-.21.36-.14.72-.14.36.55.72.55.36-.06.72-.06.36-.31.72-.31h.72c.36 0 .36.23.72.23s.36-.52.72-.52.36.56.72.56.36-.56.72-.56.36.46.72.46.36-.13.72-.13.36-.19.73-.19.36.52.72.52.36-.56.72-.56.36-.03.72-.03.36.23.73.23.36-.26.72-.26.36.16.72.16.36-.03.73-.03.36-.09.73-.09h.73c.37 0 .36.41.72.41s.36.19.73.19.36-.22.73-.22.37.07.73.07.37-.15.73-.15c.24 0 .49.14.72.12s.49-.08.71-.13.44-.22.66-.3.49-.09.7-.19.49-.14.68-.27.04-.75.22-.9.48-.13.65-.29.5-.18.65-.37.28-.39.4-.59.31-.38.41-.59.11-.48.19-.7-.21-.53-.16-.76.59-.37.61-.61-.13-.49-.13-.73c0-.34-.31-.34-.31-.68s.51-.34.51-.68-.29-.34-.29-.68.33-.34.33-.68-.43-.34-.43-.68.41-.34.41-.68.08-.34.08-.68-.08-.34-.08-.68c0-.28-.06-.7-.19-.93s-.73-.06-.96-.19-.37-.47-.64-.47c-.36 0-.36-.17-.72-.17s-.36-.04-.72-.04-.36.37-.72.37-.36-.43-.72-.43-.36.64-.72.64-.36 0-.72 0-.36-.31-.72-.31-.36-.32-.72-.32-.36.16-.72.16-.36-.04-.72-.04-.36.23-.72.23-.36.32-.72.32-.36-.43-.72-.43-.36.21-.72.21-.36-.17-.72-.17-.36-.08-.72-.08-.36-.12-.72-.12-.36.24-.72.24-.36.02-.72.02-.36-.29-.72-.29-.36.48-.72.48-.36-.47-.72-.47-.36.36-.72.36-.36.02-.72.02-.36.23-.72.23-.36-.32-.72-.32-.36.17-.72.17-.36.14-.72.14-.36-.11-.72-.11-.36.04-.72.04-.36-.55-.72-.55-.36.25-.72.25-.36-.13-.72-.13-.36.07-.72.07-.36.08-.72.08-.36.34-.72.34-.36-.08-.72-.08-.36 0-.72 0-.36-.36-.72-.36-.36.45-.72.45-.36-.44-.72-.44-.36.32-.72.32-.36.05-.72.05-.36-.3-.72-.3-.36.24-.72.24-.36-.05-.72-.05-.36-.32-.72-.32-.36.03-.72.03-.36.35-.72.35-.36-.43-.72-.43-.36-.06-.72-.06-.36.18-.72.18-.36.22-.72.22-.36-.12-.72-.12-.36.14-.72.14-.36-.28-.72-.28-.36-.16-.72-.16-.36.57-.72.57-.36-.32-.72-.32-.36.22-.72.22-.36 0-.72 0-.36-.26-.73-.26-.36.16-.72.16-.36.14-.72.14-.36-.52-.72-.52-.36.13-.72.13-.36.05-.72.05-.36.08-.72.08-.36-.19-.73-.19-.36.21-.72.21-.36.21-.72.21-.36.04-.72.04-.36-.53-.72-.53-.36.26-.72.26-.36-.29-.72-.29-.36.68-.72.68-.36-.29-.73-.29-.36.26-.72.26-.36-.41-.72-.41-.36-.18-.72-.18-.36.39-.73.39-.36-.06-.73-.06-.36.18-.72998.18c-.37 0-.36001-.14-.73001-.14s-.36.24-.73.24-.36-.57-.73-.57-.35999.58-.72999.58-.36001-.28-.73001-.28-.37.25-.73.25-.36999 0-.72999 0-.37001-.01-.73001-.01c-.28 0-.59999-.33-.82999-.2s-.40001.41-.54001.65.05.51.05.79c0 .34-.41.34-.41.68s-.14.34-.14.68.3.34.3.68-.14999.34-.14999.68.45999.34.45999.68-.59.34-.59.68.23.34.23.68.02.34.02.68c0 .24-.19999.5-.16999.73s.56999.38.62999.61.12.43.19.65-.33.65-.23.86.67.17.79.37-.15.69 0 .87.48001.23.65001.39.48.16.66.31.41999.18.61999.3.42001.15.63001.25.16.82.39.9.55-.15.78-.1.49999-.24.72999-.22.43.62.67.62z" fill="#fff"/><path d="m66.3804 155.34c-.23.06-.42.28-.65.33s-.43.3-.66.34-.5001-.08-.7401-.04-.44.25-.68.28-.48 0-.72.04-.4599.16-.6999.19-.51-.3-.75-.28-.46.22-.69.24-.49-.18-.7301-.17c-.24.01-.46.34-.69.36s-.49-.22-.72-.21-.4699.1-.7099.1-.48-.15-.71-.15-.4701.28-.7101.27-.4699-.53-.71-.53c-.24 0-.4799.16-.7099.16s-.47-.14-.71-.15-.49.41-.73.4-.47-.14-.71-.15-.47-.16-.7-.17-.4901.25-.7301.24-.4699-.14-.71-.15c-.24-.01-.48.12-.72.11s-.4499-.5-.6799-.52-.4901.22-.7301.21-.46-.33-.69-.34-.5099.55-.7399.54-.4401-.63-.6701-.64-.5.15-.74.14-.49-.08-.73-.09-.5.54-.75.54-.4799-.59-.7199-.59-.49.29-.73.29-.4901.2-.7301.21-.4899-.42-.7299-.42-.48.22-.73.22-.4901-.08-.7301-.08-.4799.14-.7299.15-.49 0-.7301.01c-.24.01-.49-.11-.73-.1s-.4999-.21-.74-.2c-.24.01-.48.25-.72.26s-.48.08-.72.09-.48.17-.72.18-.4899-.14-.7399-.13-.49-.17-.74-.16-.4601.5-.7101.51-.4899-.11-.7399-.1-.48.1-.72.11-.49-.04-.73-.03-.5-.41-.75-.4-.48.36-.72.37-.4801 0-.7101 0-.48-.1-.72-.09-.4699.42-.7099.43-.48-.03-.72-.03-.48-.5-.72-.49-.4801.4-.7101.4-.4699-.5-.7099-.5-.49.59-.72.59-.48-.03-.72-.03-.46-.39-.7-.4-.4901.38-.7301.37-.4499-.48-.6899-.49-.4801-.01-.7101-.03c-.2299-.02-.4799-.02-.7099-.04s-.5.29-.74.27-.48-.01-.72-.04-.41-.57-.65-.6-.5501.52-.7801.49-.4199-.44-.6599-.47-.4901.08-.7301.04-.4299-.31-.6599-.35-.4501-.17-.6801-.21-.5799.48-.8199.43c-.19-.04-.3101-.6-.5901-.66-.21-.05-.48.03-.73-.03-.22-.05-.4299-.2-.6699-.27-.22-.06-.55.21-.78005.14-.22-.06-.45-.15-.69-.22s-.41-.27-.64-.34-.36-.42-.59-.5-.6.24-.82.15-.47001-.15-.69001-.25-.35998-.39-.57998-.5-.43-.22-.64-.33-.47002-.16-.67002-.28c-.21-.13-.38998-.31-.57998-.45-.2-.15-.19-.53-.36-.68-.19-.17-.35001-.29-.49001-.47-.15-.2-.27-.34-.36-.56-.09-.23-.64-.39-.64-.63 0 0 .65.29.65.73 0 .21-.5.46-.5.72 0 .23.26001.48.26001.73s-.41001.5-.41001.73c0 .27.16001.52.16001.73 0 .43.41999.36.41999.73 0 .24-.38.49-.35.72s.36.42.41.64.24001.39.32001.61-.17001.56-.06001.77.06.53.18.72.59999.16.73999.34.07001.57.24001.73.61 0 .8.15.27.39.47.51.48001.05.69001.16.26999.54.48999.62.47001.06.70001.11.48999-.24.72999-.21.43001.44.66001.44c.36 0 .35998-.37.71998-.37s.36.38.71996.38c.36 0 .36.07.72.07s.36-.4.72-.4.36-.09.72-.09.3601.44.72.44c.36 0 .3601-.38.7201-.38s.36.32.72.32.36-.36.72-.36.36.55.72.55.36.05.72.05h.72c.36 0 .36-.02.72-.02s.3599-.26.7199-.26.36.05.72.05.36-.19.72-.19.36-.04.72-.04.36.33.72.33.36-.43.7201-.43c.36 0 .36.19.72.19s.36.18.72.18.36.01.72.01.36-.32.72-.32.36.44.72.44.36-.08.72-.08.3599-.22.7199-.22.36.16.72.16.36.22.72.22.36-.52.72-.52.36-.08.72-.08.36.53.72.53c.3601 0 .3601-.16.7201-.16s.36.19.72.19.36-.48.72-.48.36.36.72.36.36-.4.72-.4.36.17.72.17.36.35.72.35.36-.34.72-.34.36.37.72.37.36-.23.72-.23.36-.39.72-.39.36.23.72.23.36-.17.72-.17.3599.11.7199.11.36-.01.72-.01.36.13.72.13.36-.11.72-.11.36.38.72.38.36-.49.72-.49.36.58.72.58.36-.45.72-.45.36.14.72.14.36-.33.72-.33.36.55.72.55.36-.32.72-.32c.3601 0 .3601.02.7201.02s.36-.18.72-.18.36.4.72.4.36-.17.72-.17.36-.15.72-.15.36.1.72.1.36-.25.72-.25.3599.1.7299.1.36.16.72.16.36.11.72.11.36-.38.72-.38.3601.06.7301.06.36.05.72.05.36.54.72.54.3599-.29.7299-.29.36.17.73.17.3601-.08.7301-.08h.72c.36 0 .3599.09.7299.09s.3601-.28.7301-.28c.3699 0 .37.02.73.02s.3699.03.7299.03c.24 0 .43-.35.66-.38s.4701.14.7001.09.3899-.26.6099-.34.6101.26.8201.16.36-.35.5599-.47c.2-.12.2901-.39.4801-.53s.2799-.36.4499-.53.5801-.1.7301-.29.04-.54.16-.74.1899-.4.2999-.61.4201-.32.4901-.55.1199-.45.1699-.68c.0501-.23-.1199-.48-.0899-.72.0299-.24-.03-.44-.03-.68 0-.43.0899-.43.0899-.86s.27-.44.18-.86c-.15.18-.23.45-.4.62s-.2999.4-.4899.55-.42.26-.62.4-.45.2-.66.33-.41.26-.62.37-.48.11-.7.2c-.2201.09-.48.07-.71.14s-.42.23-.66.29z" fill="#cebefd"/><path d="m42.8206 13.42c-.37 0-.37-.17-.73-.17s-.37-.11-.73-.11-.37-.15-.74-.15-.37.26-.74.26-.37.23-.74.23-.37-.03-.73-.03-.37.02-.74.02-.37-.27-.74-.27-.37.09-.74.09-.37-.3-.74-.3-.37.53-.74.53-.37-.39-.74-.39-.37.38-.74.38-.37-.04-.74-.04-.37 0-.74 0-.37-.12-.74-.12-.37-.04-.74-.04-.37.25-.74.25c-.22 0-.46-.28-.66-.36s-.21-.42-.36-.57-.49-.16-.57-.36.14-.44.14-.66c0-.41-.48-.41-.48-.83s.47-.41.47-.82999c0-.24.11-.46.13-.69s-.36-.53001-.32-.76001.56-.34999.62-.57999-.34-.61002-.25-.83002.05-.52999.15-.73999.41-.34001.54-.54001.41-.29999.56-.48999.34-.33.5-.5.41-.25.58-.41.27-.39999.46-.54999.29-.41001.5-.54001.42-.22999.64-.33999.36-.41002.58-.49002.46-.22.69-.28.53.12001.77.07001.47-.11001.71-.13001.48.10001.73.10001c.52 0 .52.20999 1.04.20999.24 0 .47-.11.7-.09s.53-.29.76-.25.36.56001.59.63001.61-.31999.83-.23999.46.19998.67.29998.18.65002.39.77002.35.28.54.43.44.19.61.35.44.22.6.4.56.16998.71.35998-.16.69-.04.9.37.32.47.54.36.36002.45.58002.25.42997.31.65997.22.46001.26.69001-.4.54-.37.78.24.45001.24.70001c0 .41-.23.41-.23.83s.53.41.53.83c0 .22-.16.5-.24.69s-.2.47-.35.62-.61-.18-.81-.09-.29.57-.51.57z" fill="#fff"/><path d="m42.8204 13.27c-.37 0-.37-.06-.73-.06s-.37-.07-.73-.07-.37-.03-.74-.03-.37 0-.74 0-.37.21-.74.21-.37.26-.73.26-.37-.22-.74-.22-.37-.29-.74-.29-.37-.06-.74-.06-.37.37-.74.37-.37-.22-.74-.22-.37.36-.74.36-.37-.42-.74-.42-.37-.12-.74-.12-.37.16-.74.16-.37.06-.74.06-.37.39-.74.39-.37 0-.74 0c-.22 0-.31-.67-.51-.75s-.66.25-.81.1.08-.57 0-.77-.37-.33-.37-.55c0-.41-.09-.41-.09-.83s-.08-.41-.08-.83001c0-.24 0-.49999.01-.73999s.29-.46.33-.69-.01-.50001.05-.73001.44-.35999.53-.57999-.08-.55999.02-.76999.35-.36.48-.56.07-.54001.21-.73001.5-.21001.67-.39001.08-.60999.26-.76999.47-.20999.66-.35999.53-.08002.73-.21002.43-.17998.65-.28998.39-.28002.61-.37002.35-.49.58-.56.48-.15998.72-.19998.5-.07.74-.09.5-.04001.74-.04001c.52 0 .52.53 1.04.53.24 0 .46-.00999.7.01001s.44.15001.67.19001.49-.06.71 0 .42.20997.64.28997.66-.28999.87-.17999.19.66.39.78.67-.12001.86.01999.25.47.43.63.53.17.69.34-.06.68003.08.87003.6.16997.72.37997-.17.64001-.07.85001.6.25001.69.48001.29.43.35.66-.07.52998-.03.75998.28.46001.3.70001-.32.49999-.32.73999c0 .41001-.26.41001-.26.83001s.53.41.53.83c0 .22-.4.37-.48.57s.15.65 0 .8-.67-.26-.87-.18-.27.46-.49.46z" stroke="#000" stroke-linecap="round" stroke-linejoin="round" stroke-width="2.6"/><path d="m8.71042 160.4c.36 0 .35998.17.71998.17h.72c.36 0 .36-.04.72-.04s.36-.07.72-.07.36-.41.72-.41.36.03.72.03.36.28.72.28.36-.12.72-.12.36.26.72.26.36-.13.72-.13.36.11.72.11.36.08.72.08.36-.37.72-.37.36.15.72.15.36-.14.72-.14.36-.05.72-.05.36.01.72.01.36.02.72.02.36.5.72.5.36-.01.72-.01.36-.51.72-.51.36.55.72.55.36-.35.72-.35.36-.01.72-.01.36.37.72.37.36-.14.72-.14.36.07.72.07.36-.43.72-.43.36-.08.72-.08.36.15.72.15.36.17.72.17.36-.2.72-.2.36.33.72.33.36-.29.72-.29.36-.21.72-.21.36.32.72.32.36-.32.72-.32.36.49.72.49.36.14.72.14.36-.14.72-.14.36.17.72.17.36-.61.72-.61.36.31.72.31.36.13.72.13.36-.32.72-.32.36.29.72.29.36-.07.72-.07.36-.1.72-.1.36.07.72.07h.72c.36 0 .36.06.72.06s.36-.27.72-.27.36.37.72.37.36-.48.72-.48.36.53.72.53.36-.18.72-.18.36-.16.72-.16.36.44.72.44.36-.08.72-.08.36-.41.72-.41.36.21.72.21.36.27.72.27.36-.07.72-.07.36-.34.73-.34.36.36.72.36.36-.2.72-.2.36-.16.72-.16.36.08.73.08.36.16.72.16.36-.43.72-.43.36.52.73.52.36-.17.73-.17.36-.21.73-.21.36.27.72.27.36.07.73.07.36-.26.73-.26.37-.02.73-.02.37.11.73.11c.24 0 .46-.11.69-.14s.55.32.77.27.47-.19.69-.27.35-.41.56-.51.34-.33.54-.46.59.02.77-.13.32-.38.48-.54-.03-.64.12-.82.56-.15.68-.35.13-.45.23-.67.49-.31.57-.53-.29-.57-.24-.8.18-.42.21-.66.37-.45.37-.69c0-.34-.12-.34-.12-.68s-.21-.34-.21-.68.34-.34.34-.68.13-.34.13-.68-.3-.34-.3-.68-.11-.34-.11-.68-.09-.34-.09-.68.48-.34.48-.68c0-.28-.44-.52-.57-.74s-.37-.3-.6-.44-.4-.66-.68-.66c-.36 0-.36.41-.72.41s-.36.11-.72.11-.36.13-.72.13-.36 0-.72 0-.36-.19-.72-.19-.36-.11-.72-.11-.36-.31-.72-.31-.36 0-.72 0-.36.49-.72.49-.36-.29-.72-.29-.36.04-.72.04-.36.09-.72.09-.36-.36-.72-.36-.36.57-.72.57-.36-.12-.72-.12-.36-.5-.72-.5-.36.69-.72.69-.36-.35-.72-.35-.36.12-.72.12-.36-.03-.72-.03-.36-.33-.72-.33-.36.22-.72.22-.36.17-.72.17-.36-.44-.72-.44-.36-.04-.72-.04-.36.38-.72.38-.36.28-.72.28-.36-.23-.72-.23-.36-.1-.72-.1-.36.04-.72.04-.36.07-.72.07-.36-.23-.72-.23-.36.28-.72.28-.36-.29-.72-.29-.36.13-.72.13-.36.28-.72.28-.36-.08-.72-.08-.36-.11-.72-.11-.36-.31-.72-.31-.36.55-.72.55-.36-.29-.72-.29-.36-.2-.72-.2-.36-.05-.72-.05-.36.04-.72.04-.36.23-.72.23-.36.08-.72.08-.36-.16-.72-.16-.36 0-.72 0-.36-.14-.72-.14-.36.41-.72.41-.36.02-.72.02-.36-.27-.72-.27-.36-.3-.72-.3-.36.17-.72.17-.36-.18-.72-.18-.36.3-.72.3-.36.32-.72.32-.36-.43-.72-.43-.36.23-.72.23-.36-.06-.72-.06-.36-.38-.72-.38-.36.08-.73.08-.36.3-.72.3-.36-.38-.72-.38-.36.5-.72.5-.36-.51-.72-.51-.36.1-.72.1-.36-.02-.72-.02-.36.52-.73.52-.36-.47-.72-.47-.36.41-.72.41-.36-.07-.72-.07-.36-.28-.72-.28-.36.18-.72.18-.36-.21-.72-.21-.36.51-.72.51-.36-.07-.73-.07-.36-.05-.72-.05-.36-.03-.72-.03-.36-.38-.72-.38-.36.42-.73.42-.36-.27-.73-.27-.36.11-.72998.11c-.37 0-.36001-.41-.73001-.41s-.36.32-.73.32-.35999.33-.72999.33-.36002-.03-.73002-.03-.35999-.14-.72999-.14-.37-.14-.73-.14-.36999-.07-.72999-.07-.37001.05-.73001.05c-.28 0-.44.25-.67.38s-.40999.23-.53999.46-.35001.42-.35001.7c0 .34.02.34.02.68s.08001.34.08001.68-.38001.34-.38001.68.15001.34.15001.68.28.34.28.68-.01001.34-.01001.68.06.34.06.68.02.34.02.68c0 .24-.5.51-.47.74s.18.47.24.7.20001.45.27001.67.35998.36.46998.57.18001.43.30001.63.39001.27.54001.46.24998.38.40998.54.13001.55.32001.69.27001.48.46001.6.68-.24.89-.14.23.69.45.77.60999-.41.83999-.36.38.53.62.55.49-.16.72-.16z" stroke="#000" stroke-linecap="round" stroke-linejoin="round" stroke-width="2.6"/><path d="m64.9804 13.17c-.36 0-.36.24-.72.24s-.36-.21-.72-.21-.36.03-.72.03-.36.17-.72.17-.36.11-.72.11-.36-.06-.72-.06-.36-.25-.72-.25-.36.09-.72.09-.36.08-.72.08-.36-.24-.72-.24-.36.09-.72.09-.36-.12-.72-.12-.36.32-.72.32-.36-.01-.72-.01-.36-.42-.72-.42-.36.13-.72.13-.36.39-.72.39-.36.07-.72.07-.36-.63-.72-.63-.36.23-.72.23-.36.27-.72.27-.36-.08-.72-.08-.36-.13-.72-.13-.36.06-.72.06-.36-.13-.72-.13-.36.14-.72.14-.36-.22-.72-.22-.36-.04-.72-.04-.36.41-.72.41-.36-.53-.72-.53-.36.28-.72.28-.36.12-.72.12-.36-.16-.72-.16-.36.27-.72.27-.36-.34-.72-.34-.36.16-.72.16-.36-.12-.72-.12-.36-.14-.72-.14-.36.51-.72.51-.36 0-.72 0-.36-.18-.72-.18-.36.27-.72.27-.36-.48-.72-.48-.36.06-.72.06-.36.38-.72.38-.36-.57-.72-.57-.36.2-.72.2-.36-.09-.72-.09-.36.5-.72.5-.36-.13-.72-.13-.36-.4-.72-.4-.36.08-.72.08-.36-.21-.72-.21-.36.16-.72.16-.36-.12-.72-.12-.36.12-.72.12-.36.04-.72.04-.36.11-.72.11-.36-.01-.72-.01-.36-.29-.72-.29-.36.29-.72.29-.36-.19-.72-.19-.36.17-.72.17-.36-.05-.73-.05-.36-.11-.72-.11-.36.27-.72.27-.36-.36-.72-.36-.36.58-.73.58-.36-.12-.72-.12-.36-.14-.72-.14-.36-.05-.73-.05-.36 0-.73 0-.36.32-.73.32-.36-.05-.72-.05-.36-.06-.73-.06-.36.12-.73.12c-.36999 0-.36998-.21-.72998-.21s-.37001-.26-.73001-.26c-.24 0-.44999.43-.67999.46s-.48001-.1-.71001-.04-.45999.08-.67999.16-.35.35-.56.45-.64001-.19-.84001-.06-.25999.47-.43999.61-.21001.45-.38001.61-.43.22-.58.41-.45.26-.58.46-.04.52-.14.73-.39001.35-.46001.57-.10999.47-.16999.7-.06.47-.09.71.27.47.27.71c0 .34-.08.34-.08.68s-.02.34-.02.68.2.34.2.68-.62.34-.62.68.46001.34.46001.68-.40001.34-.40001.68.08.34.08.68.21001.34.21001.68c0 .28-.06001.59.06999.81s.52.19.75.33.38.71.66.71c.36 0 .36-.07.72-.07s.36-.07.72-.07.36001-.24.72001-.24.36.3.72.3.36-.31.72-.31.36.14.72.14.35999.23.71999.23.36-.24.72-.24c.35999 0 .35999-.31.71999-.31s.36.1.72.1.36.05.72.05.36.04.72.04.36.36.72.36.36-.16.72-.16.36.19.72.19.36-.31.72-.31.36.21.72.21.36-.02.72-.02.36-.42.72-.42.36.4.72.4.36-.05.72-.05.36-.2.72-.2h.72c.36 0 .36.39.72.39s.36-.34.72-.34.36-.18.72-.18.36.27.72.27.36-.32.72-.32.36.49.72.49.36-.13.72-.13.36-.43.72-.43.36.29.72.29.36.27.72.27.36-.29.72-.29.36-.05.72-.05.36.14.72.14.36.24.72.24.36-.39.72-.39.36-.04.72-.04.36.44.72.44.36-.55.72-.55.36.09.72.09.36.33.72.33.36-.16.72-.16.36-.25.72-.25.36.4.72.4.36-.47.72-.47.36.11.72.11.36.14.72.14.36-.15.72-.15.36.02.72.02.36.28.72.28.36-.28.72-.28.36.16.72.16.36-.19.72-.19.36.33.72.33.36-.1.72-.1.36-.36.72-.36.36.41.72.41.36-.28.72-.28.36.09.72.09.36.42.73.42.36-.4.72-.4.36.18.72.18.36-.17.72-.17h.72c.36 0 .36.04.72.04s.36.02.72.02.36.06.73.06.36.32.72.32.36-.64.72-.64.36.39.72.39.36-.08.72-.08.36-.22.72-.22.36.54.72.54.36-.03.72-.03.36-.14.73-.14.36-.51.72-.51.36.31.72.31.36.25.72.25.36-.34.73-.34.36-.22.73-.22.36.26.73.26.36.11.73.11.36.19.73.19.36-.26.73-.26.36.3.73.3.36-.16.73-.16.37-.39.73-.39.37.56.73.56.37-.47.73-.47c.28 0 .52.1.75-.03s.18-.45.32-.68.38-.34.38-.62c0-.34.02-.34.02-.68s-.23-.34-.23-.68.65-.34.65-.68-.23-.34-.23-.68-.09-.34-.09-.68-.25-.34-.25-.68.18-.34.18-.68-.16-.34-.16-.68c0-.24.2-.47.18-.7s-.17-.44-.23-.67-.17-.43-.24-.65.22-.6.11-.81-.58-.22-.7-.42-.31-.33-.46-.51-.08-.55-.24-.71-.26-.44-.44-.58-.67.14-.87.02-.19-.59-.41-.69-.45-.16-.67-.24-.49.02-.72-.04-.41-.45-.64-.48-.49.15-.73.15z" fill="#fff"/><g stroke="#000" stroke-linecap="round" stroke-linejoin="round" stroke-width="2.6"><path d="m64.9802 13.42c-.36 0-.36.12-.72.12s-.36-.1-.72-.1-.36-.5-.72-.5-.36.27-.72.27-.36.32-.72.32-.36-.29-.72-.29-.36-.21-.72-.21-.36.17-.72.17-.36-.21-.72-.21-.36-.04-.72-.04-.36.63-.72.63-.36-.02-.72-.02-.36-.18-.72-.18-.36-.05-.72-.05-.36 0-.72 0-.36-.33-.72-.33-.36.46-.72.46-.36-.27-.72-.27-.36-.09-.72-.09-.36.01-.72.01-.36-.2-.72-.2-.36.54-.72.54-.36-.55-.72-.55-.36.12-.72.12-.36.32-.72.32-.36-.15-.72-.15-.36-.05-.72-.05-.36.13-.72.13-.36.11-.72.11-.36-.1-.72-.1-.36-.24-.72-.24-.36.16-.72.16-.36.18-.72.18-.36-.46-.72-.46-.36.13-.72.13-.36.02-.72.02-.36-.11-.72-.11-.36-.03-.72-.03-.36.05-.72.05-.36.58-.72.58-.36-.11-.72-.11-.36.02-.72.02-.36-.22-.72-.22-.36.16-.72.16-.36.07-.72.07-.36-.43-.72-.43-.36.13-.72.13-.36.08-.72.08-.36-.11-.72-.11-.36-.12-.72-.12-.36.52-.72.52-.36-.49-.72-.49-.36-.12-.72-.12-.36.14-.72.14-.36.36-.72.36-.36-.14-.72-.14-.36-.3-.72-.3-.36.52-.72.52-.36-.37-.72-.37-.36-.12-.72-.12-.36.05-.72.05-.36-.17-.72-.17-.36.59-.72.59-.36.04-.73.04-.36-.47-.72-.47-.36.18-.72.18-.36.05-.72.05-.36.18-.73.18-.36.07-.72.07-.36-.12-.72-.12-.36.12-.73.12-.36-.64-.73-.64-.36.14-.73.14-.36.08-.72.08-.36.29-.73.29-.36.01-.73.01-.36999-.11-.72999-.11-.37002.16-.73002.16c-.24 0-.43999.05-.66999.07s-.43001.1-.66001.16-.59-.37-.81-.29-.24999.61-.45999.71-.67001-.25-.87001-.13-.24.49-.42.64-.31999.34-.47999.5-.37001.29-.52001.47-.51999.22-.63999.42.14.62.04.83-.44999.32-.52999.54-.21001.44-.26001.67-.19001.47-.22001.7.40001.5.40001.73c0 .34-.1.34-.1.68s-.31999.34-.31999.68.59999.34.59999.68-.11.34-.11.68-.5.34-.5.68.37001.34.37001.68.20999.34.20999.68-.16001.34-.16001.68c0 .28-.17.6-.03.82s.27.64.5.78.64-.27.92-.27c.36 0 .36.17.72.17s.36001.36.72001.36.36-.04.72-.04.36.01.72.01.36-.56.72-.56.36.16.72.16.36.4.72.4.36-.32.72-.32.36-.2.72-.2.36.3.72.3.36-.04.72-.04.36.09.72.09.36-.34.72-.34.36.27.72.27.36-.22.72-.22.36.4.72.4.36-.55.72-.55.36.04.72.04.36-.05.72-.05.36.57.72.57.36-.34.72-.34.36.02.72.02.36-.1.72-.1.36.2.72.2.36.03.72.03.36-.28.72-.28.36.06.72.06.36.31.72.31.36-.13.72-.13.36-.2.72-.2h.72c.36 0 .36.06.72.06s.36.41.72.41.36-.59.72-.59.36.28.72.28.36.22.72.22.36.06.72.06.36-.03.72-.03.36.09.72.09.36-.43.72-.43.36.27.72.27.36-.46.72-.46.36.26.72.26.36.33.72.33.36-.43.72-.43.36.06.72.06.36.16.72.16.36-.22.72-.22.36.48.72.48.36-.29.72-.29.36.07.72.07.36.04.72.04.36-.1.72-.1.36-.19.72-.19.36.47.72.47.36-.57.72-.57.36.24.72.24.36-.2.72-.2.36-.05.72-.05.36.05.72.05h.72c.36 0 .36.54.73.54s.36-.64.72-.64.36.58.72.58.36-.39.72-.39.36.18.72.18.36-.26.72-.26.36-.14.72-.14.36.32.73.32.36-.13.72-.13.36-.17.72-.17.36.62.72.62.36-.5.72-.5.36.1.72.1h.72c.36 0 .36.38.72.38s.36-.49.73-.49.36.08.72.08.36.38.72.38.36.05.72.05.36-.09.73-.09.36-.14.73-.14.36.02.73.02.36.02.73.02.36-.18.73-.18.36.01.73.01.36.15.73.15.36.04.73.04.37-.04.73-.04h.73c.36 0 .37-.36.73-.36.28 0 .46.06.69-.07s.63-.12.77-.35.2-.56.2-.84c0-.34-.44-.34-.44-.68s.42-.34.42-.68-.34-.34-.34-.68-.03-.34-.03-.68.11-.34.11-.68.31-.34.31-.68.16-.34.16-.68-.08-.34-.08-.68c0-.24-.13-.48-.15-.71s0-.49-.05-.72-.23-.44-.3-.66-.12-.47-.22-.68-.59-.2-.71-.4.14-.67 0-.85-.59-.1-.75-.27-.23-.43-.41-.58-.16-.61-.36-.73-.54-.05-.75-.15-.44-.2-.66-.28-.43-.26-.66-.31-.54.4-.77.37-.44-.13-.67-.13z"/><path d="m5.87012 85.29c.36 0 .36-.11.72-.11s.36-.38.72-.38.36-.06.72-.06.36.12.72.12.36-.22.72-.22.36.09.71998.09c.36 0 .36.29.72.29s.36-.35.72-.35.36.17.72.17.36.35.72.35.36-.39.72-.39.36.24.72.24.36.12.72.12.36-.35.72-.35.36.03.72.03.36.07.72.07.36-.11.72-.11.36.05.72.05.36.4.72.4.36-.36.72-.36.36.3.72.3.36-.23.71-.23.36.1.71.1.36-.18.71-.18.36-.03.71-.03.36-.09.72-.09.36-.15.72-.15.36.47.72.47.36.2.72.2.36-.04.72-.04.36-.46.72-.46.36.04.72.04.36.22.72.22.36-.21.72-.21.36.23.72.23.36.03.71.03.36-.48.71-.48.36.53.71.53h.71c.35 0 .36-.45.71-.45s.36.53.72.53.36-.57.72-.57.36.26.72.26.36-.23.72-.23.36.46.72.46.36-.15.72-.15.36-.15.72-.15.36-.07.72-.07.36.28.72.28.36.12.72.12.36-.13.72-.13.36.06.72.06.36-.35.72-.35.36.36.72.36.36-.22.72-.22.36.31.72.31.36-.57.72-.57.36.38.72.38.36-.3.72-.3.36.11.72.11.36-.06.72-.06.36.21.72.21.36-.36.72-.36.36.42.72.42.36.09.72.09.36-.34.72-.34.36.22.72.22.36-.26.71-.26.36.16.72.16.36-.04.72-.04.36-.15.72-.15.36.33.72.33.36-.08.72-.08.36-.33.72-.33.36.51.72.51h.72c.36 0 .36-.04.72-.04s.36-.13.72-.13.36-.31.72-.31.36.57.72.57.36-.06.72-.06.36-.35.72-.35.36.22.73.22.36-.01.73-.01.36.12.73.12.36-.44.73-.44"/><path d="m67.8201 104.45c-.36.01-.35.25-.71.27s-.35.24-.71.25-.37-.45-.73-.44-.35.26-.71.27-.37-.36-.73-.34-.34.6-.7.61-.38-.56-.74-.55-.35.26-.71.27-.37-.18-.72-.17-.36.06-.72.07-.34.49-.7.5-.37-.35-.73-.34-.35.31-.71.32-.37-.26-.73-.25-.37-.33-.73-.31-.36.05-.72.07-.34.65-.7.66-.38-.57-.74-.56-.36.07-.72.08-.36-.11-.72-.09-.36.03-.72.04-.34.58-.7.59-.37-.33-.73-.32-.35.31-.71.33-.36.02-.72.03-.38-.5-.73-.49-.34.5-.7.52-.37-.2-.73-.18-.35.31-.71.32-.38-.53-.74-.52-.35.43-.71.44-.37-.29-.73-.28-.35.16-.71.17-.35.19-.71.2-.38-.53-.73-.52-.35.33-.71.35-.37-.34-.73-.32-.34.44-.7.45-.36-.13-.72-.12-.36.03-.72.04-.35.31-.71.32-.37-.37-.73-.36-.35.23-.71.24-.36.12-.72.14-.38-.5-.74-.49-.35.41-.71.42-.36-.02-.72-.01-.36.1-.72.11-.37-.35-.73-.34-.35.27-.71.28-.37-.2-.73-.19-.34.47-.7.48-.36-.14-.72-.13-.36.07-.72.08-.37-.3-.73-.29-.36-.06-.72-.05-.37-.14-.73-.12-.34.69-.7.71-.37-.19-.73-.17-.36.15-.72.16-.37-.28-.73-.27-.35.37-.71.38-.38-.65-.74-.63-.35.26-.72.28-.35.37-.71.38-.38-.44-.74-.43-.35.27-.71.28-.37-.3-.73-.29-.34.44-.7.46-.36.02-.72.03-.37-.24-.73-.23-.35.32-.71.33-.38-.54-.74-.53-.36.03-.72.04-.34.61-.7.62-.37-.24-.73-.23-.37-.24-.73-.23-.35.43-.71.45-.37-.32-.74-.31-.36.21-.72.22c-.35997.01-.35997.06-.71997.07s-.37001-.27-.73001-.26-.35.43-.71.44-.37-.29-.74-.28-.36.13-.73.14-.37-.27-.74-.26"/><path d="m65.7605 64.22c-.36 0-.36-.02-.72-.02s-.36.12-.72.12-.36.37-.72.37-.36-.51-.72-.51-.36.32-.72.32-.36.17-.72.17-.36-.12-.72-.11-.36-.17-.72-.17-.36.32-.72.32-.36 0-.72 0-.36-.53-.72-.53-.36 0-.72 0-.36.49-.72.49-.36-.03-.72-.03-.36-.15-.72-.15-.36.14-.72.14-.36-.22-.72-.22-.36-.26-.72-.26-.36.47-.71.47-.36-.41-.72-.41-.36.53-.71.53-.36-.22-.72-.22-.36-.22-.72-.22-.36-.22-.72-.22-.36.58-.72.58-.36-.05-.72-.05-.36-.14-.72-.14-.36-.4-.72-.4-.36.05-.72.05-.36.5-.72.5-.36.11-.72.11-.36-.55-.72-.55-.36.08-.72.08-.36-.1-.72-.1-.36-.08-.72-.07-.36.33-.71.33-.36-.06-.72-.06-.36-.16-.72-.16-.36.19-.72.19-.36.23-.72.23-.36-.15-.72-.15-.36-.06-.72-.06-.36.19-.72.19-.36-.5-.72-.5-.36.05-.72.05-.36.11-.72.11-.36.15-.72.15-.36-.26-.72-.26-.36.35-.72.35-.36.11-.72.11-.36-.23-.72-.23-.36.26-.72.26-.36.02-.72.02-.36-.33-.72-.33-.36.14-.72.14-.36-.07-.72-.06-.36.16-.72.16-.36-.24-.72-.24-.36 0-.72 0-.36-.17-.72-.17-.36.45-.72.46-.36.09-.72.09-.36.09-.72.09-.36-.14-.72-.14-.36-.2-.72-.2-.36.35-.72.35-.36-.29-.72-.29-.36-.4-.72-.4-.36.2-.72.2-.36.36-.72.36-.36-.32-.72-.32-.36-.1-.72-.1-.36.28-.72.28-.36.2-.72.2-.36.08-.72.09-.36-.6-.73-.6-.36.38-.72.38c-.36003 0-.36003-.16-.72003-.15s-.36.18-.72.18-.36.09-.73.09-.35999-.14-.72999-.14-.36.03-.73.03-.37001-.15-.73001-.15"/><path d="m66.6101 46.27c-.36 0-.35-.3-.71-.3s-.36.36-.72.35-.36.02-.72.01-.3599-.11-.7099-.12-.35-.45-.71-.45-.37.63-.73.63-.35-.6-.71-.6-.36.15-.72.14-.37.46-.72.46-.35-.51-.71-.51-.36.18-.72.18-.36 0-.72-.01-.36-.02-.72-.02-.36-.03-.72-.03-.3601-.25-.7101-.25-.3599.09-.7199.08-.36-.05-.72-.05-.36-.02-.72-.03-.36.48-.72.48-.3601 0-.7101 0-.3499-.49-.7099-.5-.3601.05-.7201.04-.36.09-.72.08-.36-.02-.72-.02-.36-.09-.72-.09-.36.14-.72.13-.3499-.32-.7099-.32-.3701.56-.7301.56-.3499-.37-.7099-.38-.3601 0-.7201-.01-.36.35-.72.35-.36.02-.72.02-.3499-.4-.7099-.41-.36.28-.72.27-.35-.32-.71-.33-.36.07-.72.06-.36 0-.72 0-.36.17-.72.16-.35-.32-.71-.32-.36-.02-.72-.02-.36.1-.72.09-.37.37-.72.37-.36-.07-.72-.07-.3501-.37-.7101-.37-.3699.48-.7299.48-.3501-.32-.7101-.33-.35-.27-.71-.27-.3699.51-.7299.5-.3601-.09-.7201-.09-.3499-.47-.7099-.47-.36-.03-.72-.03-.36.03-.72.02-.36 0-.72-.01-.37.57-.73.57-.36-.01-.72-.02-.36-.13-.72-.13-.36-.03-.72-.04-.36.02-.72.02-.36.1-.72.1-.35-.35-.72-.36-.36 0-.72 0-.3601-.23-.7201-.24-.3699.45-.7299.44-.3501-.5-.7101-.51-.3699.6-.7299.6-.35-.28-.71-.28-.35-.3-.71-.31-.37.53-.73.53-.36-.09-.72-.09-.3501-.44-.7101-.44-.3699.4-.7299.39-.36-.02-.72-.02-.35-.44-.72-.45-.37.34-.73.33-.36.03-.72.03-.36.07-.73.06-.36-.21-.72-.22-.3701.25-.7301.24-.3599-.3-.71994-.31c-.36-.01-.37001.3-.73001.3s-.35-.52-.72-.53-.36999.58-.73999.58-.36-.23-.72-.24"/><path d="m30.0102 35.03c-.24 0-.48.23-.72.22s-.47-.06-.71-.07-.47.02-.71.02-.46-.37-.7-.38-.49.48-.72.47-.47.09-.71.08-.47-.04-.71-.04-.47-.19-.7-.2-.48.22-.71.21-.47-.13-.71-.13-.46-.48-.7-.48-.47-.09-.71-.1-.47.11-.71.11-.48.25-.71.25-.47.02-.71.02-.47.12-.71.12-.47-.38-.71-.38-.47 0-.71 0-.47.43-.71.43-.47-.2-.71-.2-.47-.14-.71-.13-.47.17-.71.18-.47-.09-.71-.09-.47.17-.7.18"/><path d="m47.5102 35.72c-.25 0-.5101-.31-.7701-.3s-.5099-.11-.7599-.11-.51-.05-.76-.05-.5101 0-.7601 0-.5099.53-.7599.53-.51-.33-.76-.33-.5101-.28-.7601-.29-.5199.65-.7699.64"/><path d="m60.4101 55.35s-.29-.33-.72-.33c-.2 0-.45.23-.72.23-.22 0-.46-.09-.72-.09-.23 0-.47.2-.73.2-.23 0-.47.13-.73.13-.23 0-.47-.41-.72-.41-.23 0-.48.17-.73.17-.24 0-.48.2-.73.19s-.4699-.29-.7199-.3-.48.04-.72.04-.4801.41-.7301.41-.48-.17-.72-.17-.47-.35-.72-.35-.48 0-.72-.01-.48-.15-.72-.16-.49.47-.73.47-.48-.05-.72-.06-.48.07-.73.07-.48-.08-.72-.08-.48-.24-.72-.25-.48-.02-.72-.02-.48.13-.73.13-.48-.27-.72-.28-.48 0-.73 0-.49.26-.73.25-.48-.17-.73-.18-.48-.14-.73-.15-.49.37-.74.37-.48-.19-.73-.19-.48-.19-.73-.19-.4899.18-.7299.18-.4901-.08-.7301-.08-.49.21-.73.2-.49.02-.73.02-.49.21-.74.21-.48-.33-.73-.34-.49.07-.73.06-.49-.18-.73-.19-.49.23-.73.22-.49-.08-.73-.08-.49.23-.73.22-.49-.07-.73-.07-.49-.07-.73-.07-.49-.03-.73-.03-.49 0-.73 0c-.25 0-.49-.2-.72-.21-.25 0-.49-.19-.72-.2-.25 0-.49-.1-.73-.1-.25 0-.5.34-.73.34-.26 0-.5.02-.73.01-.27 0-.5-.24-.73-.24-.28 0-.53.31-.73.31-.46 0-.36.01-.71 0"/><path d="m53.0404 74.63s-.25.58-.68.58c-.2 0-.44-.04-.72-.04-.22 0-.46-.11-.73-.1-.23 0-.47.03-.72.04-.23 0-.47-.2-.72-.2-.23 0-.47.16-.72.16-.23 0-.47.13-.72.14-.24 0-.48-.12-.72-.12s-.48-.23-.73-.23-.48.13-.72.13-.48-.21-.72-.21-.48.38-.72.38-.48-.13-.72-.13-.48.34-.72.34-.48-.4-.72-.4-.48-.08-.72-.08-.48.29-.72.29-.48.17-.72.17-.48-.61-.73-.61-.48.39-.73.39-.48-.14-.72-.14-.48-.07-.72-.07-.48-.16-.72-.16-.48.6-.72.6-.48-.2-.73-.2-.48-.07-.73-.07-.49-.23-.73-.23-.49.47-.73.47-.49-.63-.73-.63-.49.67-.73.67-.49-.2-.73-.2-.49-.12-.73-.12-.49.08-.73.09-.49.03-.73.03-.49.04-.73.04-.49-.17-.73-.17-.49.29-.73.29-.49-.26-.73-.26-.49-.21-.73-.21-.49.18-.73.18-.49.16-.73.16-.49-.44-.73-.44-.49.12-.73.12-.49.11-.73.11-.49-.26-.73-.26-.49.62-.73.62-.49-.04-.72-.04c-.25 0-.49-.04-.73-.04-.25 0-.49-.49-.73-.49-.25 0-.49.44-.73.44-.25 0-.49-.25-.72-.25-.26 0-.5.12-.72.12-.27 0-.51.15-.73.15-.28 0-.52-.23-.72-.23-.46 0-.36-.18-.71-.18"/><path d="m47.0205 94.92s-.29-.09-.71-.08c-.2 0-.44-.12-.72-.11-.22 0-.45.16-.71.17-.22 0-.45.42-.71.43-.23 0-.48-.46-.73-.45-.23 0-.46.28-.71.29-.23 0-.48-.33-.73-.33-.23 0-.45.65-.7.65s-.49-.48-.73-.47-.47 0-.72 0-.48-.11-.72-.11-.47.25-.71.25-.47.02-.72.03-.48-.09-.72-.09-.48-.06-.72-.06-.48-.01-.72 0-.47-.02-.71-.01-.46.53-.7.53-.48-.09-.72-.08-.48-.28-.72-.27-.46.55-.7.55-.49-.49-.73-.48-.47.27-.71.28-.49-.36-.73-.35-.48-.01-.72 0-.47.59-.71.6-.48.04-.72.04-.49-.46-.73-.45-.49-.11-.73-.11-.48.21-.72.21-.48.23-.72.23-.48-.02-.72-.02-.49-.15-.73-.14-.48.12-.72.13-.48.33-.71.33-.49-.18-.73-.17-.49-.23-.73-.22-.47.36-.71.36-.49-.16-.72-.15-.49-.19-.72-.18c-.25 0-.48.25-.71.26-.25 0-.5-.31-.73-.31-.25 0-.48.41-.71.42-.25 0-.49.15-.71.16-.26 0-.51-.06-.72-.06-.28 0-.53-.55-.73-.55-.46.01-.35.2-.7.21"/><path d="m33.6602 115.56c-.24 0-.48.26-.73.26s-.48-.07-.73-.07-.48-.2-.73-.2-.48.27-.73.27-.48.13-.73.13-.48.25-.73.25-.48-.14-.73-.14-.48-.16-.73-.16-.48.03-.73.03-.48.25-.73.25-.48-.51-.73-.51-.48.36-.73.36-.48-.08-.73-.08-.48-.28-.73-.28-.48.12-.73.12-.48.22-.73.21-.48-.45-.73-.45-.48.14-.73.14-.48.19-.73.19-.48.14-.73.14-.48-.19-.73-.19-.48.13-.73.13-.48.09-.73.09-.48-.39-.73-.39-.48.07-.73.07-.48-.09-.73-.09-.48.18-.73.18-.49.31-.73.31-.48-.53-.73-.53"/><path d="m53.0906 116.09c-.23 0-.47-.26-.7-.25s-.46.26-.69.26-.47-.54-.7-.54-.46.08-.69.08-.46-.12-.69-.12-.46.44-.69.44-.46.04-.7.04-.46.16-.7.16-.46-.4-.69-.4-.46.1-.7.1-.46 0-.7 0-.46.16-.7.16-.46-.41-.69-.41-.46.33-.7.33"/><path d="m67.8003 147.19c-.22-.29-.06-.41-.27-.7s-.15-.34-.36-.63-.62 0-.83-.29-.12-.36-.34-.66.12-.55-.09-.84-.62 0-.84-.28-.34-.2-.56-.49-.11-.37-.33-.66.21-.61 0-.9-.56-.04-.77-.33.12-.54-.1-.83-.58-.02-.8-.31-.31-.22-.53-.51-.26-.26-.48-.55-.15-.34-.37-.64-.25-.27-.47-.57-.49-.36-.5-.73.53-.26.73-.57.37-.19.58-.49.09-.38.3-.68.24-.28.44-.59.02-.43.22-.74.41-.17.62-.47-.12-.52.09-.83.33-.23.53-.53.02-.43.23-.74.44-.15.65-.45-.03-.47.18-.77.62-.02.83-.33-.15-.55.05-.85.17-.33.37-.64.66 0 .87-.31.2-.31.41-.62-.04-.48.16-.79.68-.24.68-.61-.49-.27-.7-.57-.21-.29-.41-.59-.28-.24-.48-.54-.26-.26-.47-.56-.13-.35-.33-.65-.11-.36-.32-.65-.17-.32-.37-.62-.47-.11-.68-.41.16-.55-.05-.84-.24-.27-.45-.57-.6-.02-.81-.32.18-.56-.03-.86-.06-.4-.27-.69-.7.05-.9-.25-.19-.31-.39-.61-.11-.37-.31-.67-.01-.44-.22-.73-.32-.19-.32-.55.19-.2.39-.51.35-.21.55-.51-.17-.56.04-.86.15-.34.36-.65.4-.17.61-.48.2-.31.4-.61.33-.22.53-.53.03-.42.24-.73.08-.39.29-.69.23-.29.43-.6.59-.05.8-.35-.19-.57.01-.88.44-.15.65-.45.29-.25.5-.55-.16-.55.05-.86.33-.22.54-.53.05-.41.26-.72.45-.12.45-.49-.04-.3-.25-.59-.2-.3-.42-.59 0-.44-.22-.74-.32-.21-.54-.5-.35-.19-.57-.48-.46-.11-.67-.4.12-.54-.09-.83-.26-.26-.47-.55-.44-.13-.65-.42-.29-.24-.51-.53.1-.52-.11-.81-.17-.32-.38-.62-.31-.22-.52-.51-.35-.19-.57-.49.13-.55-.09-.84-.4-.16-.62-.45-.77-.2-.78-.57.7-.19.9-.47-.01-.43.18-.72-.03-.44.17-.73.67.03.87-.26.19-.3.39-.59.06-.38.26-.67.16-.31.36-.6-.11-.5.08-.79.29-.23.49-.52.31-.22.5-.51.52-.07.72-.37-.19-.55 0-.84.38-.17.58-.46.04-.4.23-.69.24-.26.44-.56.08-.38.28-.67.64 0 .84-.29.28-.41.27-.76-.17-.4-.38-.69-.4-.15-.61-.43-.33-.2-.54-.49-.18-.31-.39-.59-.28-.24-.49-.52-.26-.25-.47-.54-.16-.33-.37-.61.01-.45-.2-.73-.49-.08-.7-.37.01-.45-.2-.74-.15-.33-.36-.61-.14-.34-.35-.63-.27-.25-.47-.53.02-.45-.19-.74-.61 0-.82-.29-.29-.23-.5-.52-.08-.38-.08-.73 0-.35.2-.65.03-.42.23-.72.45-.14.65-.44.33-.22.53-.52-.14-.53.07-.83.52-.08.73-.38.25-.27.45-.57 0-.44.21-.74.16-.33.36-.63.47-.12.67-.42-.18-.56.03-.86.59-.04.79-.34-.01-.45.19-.75.18-.32.39-.62.36-.2.56-.5.38-.19.58-.49.42-.38.42-.75-.37-.34-.58-.63-.46-.12-.67-.42.14-.55-.07-.85-.38-.17-.59-.47-.25-.27-.47-.56.08-.51-.14-.8-.74.08-.96-.21.21-.6 0-.9-.58-.03-.79-.33.28-.65.07-.95-.6-.02-.81-.32-.06-.41-.27-.71-.17-.33-.38-.63-.3-.24-.52-.54-.09-.39-.3-.69-.63-.13-.62-.5.29-.28.52-.56.46-.09.69-.37-.04-.5.19-.78.41-.13.64-.42.03-.45.26-.73.14-.36.37-.64.57 0 .8-.29-.24-.66-.01-.95.73.12.96-.16.06-.42.29-.7.12-.37.35-.65.36-.18.59-.46.38-.16.61-.45.02-.46.25-.74.69-.23.71-.59-.37-.39-.57-.69-.25-.27-.45-.57-.39-.17-.6-.47.04-.46-.16-.76-.12-.35-.32-.65-.45-.13-.65-.43.1-.5-.1-.8-.47-.12-.67-.42-.05-.4-.26-.7-.27-.26-.47-.56-.33-.21-.53-.51.06-.48-.14-.78-.25-.27-.45-.57-.27-.25-.47-.56-.12-.36-.32-.66-.11-.36-.31-.67-.84-.07-.82-.43.56-.1.79-.36.31-.19.54-.46.04-.43.27-.7.08-.4.31-.66.07-.41.3-.68.7.15.94-.12.13-.35.36-.62.06-.42.29-.68.31-.2.54-.47-.02-.48.22-.75.54 0 .78-.26.11-.37.34-.63.51-.02.74-.29-.23-.67 0-.94.4-.12.64-.38.25-.26.48-.52.02-.45.26-.72.5-.04.73-.31.03-.45.27-.72"/><path d="m5.09055 146c.23-.27.57.02.8-.25s.13999-.35.36999-.62.34002-.18.56002-.45.12998-.35.35998-.62.05002-.42.28002-.69.22999-.27.45999-.54.45001-.08.68001-.35-.03001-.48.19999-.76.32001-.19.55001-.46.21999-.28.44999-.55c.23005-.27.30005-.21.53005-.49s.21-.29.44-.56.24-.26.47-.54.3099-.21.5399-.48.0401-.44.2701-.71.74-.09.77-.45-.43-.31-.61-.62.1199-.48-.0601-.8-.6399-.05-.8199-.36.04-.44-.14-.75-.3101-.24-.4901-.55-.1999-.3-.3799-.61-.1301-.34-.3101-.65c-.17996-.31-.39996-.19-.57996-.51s.23001-.55.05001-.86-.11-.36-.29-.67-.24-.28-.42-.6-.23-.29-.41-.6-.17001-.32-.35001-.63-.00998-.41-.18998-.72-.56001-.1-.74001-.41.17001-.51-.00999-.83-.37001-.21-.55001-.53-.29-.25-.28-.62-.12-.43.07-.73.25999-.26.44999-.56.61001-.04.80001-.34-.35001-.64-.16001-.94.17-.31.36-.62.45-.14.64-.45.14001-.34.33001-.64-.00001-.42.19999-.72.60001-.05.79001-.35.28005-.25.47005-.55-.29005-.6-.1001-.9c.19-.3.4401-.15.6301-.45s-.0501-.46.1399-.76.4-.17.59-.48.15-.33.34-.64.27-.25.47-.56.39-.27.38-.64-.4599-.12-.6699-.41-.27-.25-.48-.53.0299-.46-.1801-.75-.1099-.36-.3199-.64-.0201-.42-.2301-.71-.3099-.22-.5199-.51-.63006.02-.84006-.27-.15999-.32-.36999-.61 0-.45-.2-.74-.38-.16-.59-.45-.06-.4-.27-.68-.02-.43-.23-.71-.44-.12-.65-.41-.34001-.19-.55001-.48.00001-.45-.19999-.74-.73999-.2-.73999-.56.70998-.15.90998-.44.07-.39.28-.68-.15999-.55.05001-.84.39-.17.6-.46.52-.08.72-.37.21001-.29.41001-.59.18-.31.39-.61.13999-.34.34999-.64.32-.21.53-.51c.20995-.3.12999-.35.33995-.64.21-.29.3001-.23.5101-.53s-.1101-.51.0899-.81.25-.27.45-.57-.07-.49.14-.78.4801-.11.6801-.41.4799-.11.6799-.41.21-.3.41-.6-.0699-.42-.0699-.78.0399-.31-.1701-.62-.16-.34-.36-.64-.4799-.12-.6899-.42-.15-.34-.36-.65-.2001-.31-.4001-.62.1001-.51-.0999-.82-.45-.14-.66-.44-.33-.22-.53005-.53c-.2-.31.19-.57-.02-.88s-.17001-.33-.38001-.63-.18-.32-.39-.63-.3-.24-.5-.55-.59999-.04-.80999-.34-.21001-.3-.41001-.61-.17999-.33-.37999-.63-.12-.36-.33-.67-.09-.39-.3-.69-.66001-.26-.66001-.63.53-.24.75-.53.41001-.14.63001-.44-.24-.62-.02-.91.56999-.03.77999-.32-.13999-.55.07001-.84.64.02.86-.27.24999-.27.45999-.56-.30999-.68-.09999-.97.66.03.87-.26c.20995-.29-.22-.61-.01-.91.21005-.3.59005-.01.81005-.3s.0699-.4.2899-.69.18-.32.39-.61.14-.35.36-.64.62 0 .83-.29-.1799-.58.0401-.88.31-.15.33-.51-.07-.22-.27-.51.02-.44-.17-.73-.52-.07-.72-.36.27-.61.08-.9-.3101-.21-.5101-.5-.3399-.19-.5399-.48-.3801-.17-.5701-.46-.14-.33-.33995-.62c-.2-.29.10005-.49-.09999-.79-.2-.3-.41-.15-.61-.44s-.05001-.4-.24001-.69-.04-.4-.23-.69-.34-.2-.54-.49-.13001-.33-.33001-.63-.31999-.21-.50999-.51-.21-.29-.41-.58-.52-.08-.72-.37-.49-.4-.48-.76.51001-.3.71001-.59.22999-.27.42999-.56.31-.21.52-.5.14999-.33.34999-.62.15-.32.36-.61.08001-.38.29001-.67.45001-.11.66001-.4.24999-.26.45999-.55-.08-.5.13-.78.1-.37.31-.66c.21005-.29.54005-.04.75005-.33s-.0301-.46.1799-.75.19-.3.39-.59.3501-.19.5601-.48.3899-.16.5999-.45-.12-.53.09-.82.82-.07.83-.43-.5099-.23-.7099-.52-.2801-.25-.4801-.55-.3-.23-.51-.53-.2-.3-.41-.6-.14-.34-.34-.64-.1999-.3-.3999-.6-.0901-.38-.2901-.68-.03-.42-.23-.72c-.19995-.3-.24995-.27-.44995-.57s-.11-.36-.32-.66-.35-.2-.56-.5-.10999-.36-.31999-.66-.25001-.27-.46001-.57-.54001-.08-.74001-.38.29001-.64.08001-.94-.56-.06-.76-.37.03999-.33.03999-.7-.35999-.48-.14999-.78.55-.05.77-.35.25-.27.46-.57-.11-.53.1-.82.31001-.23.52001-.52.25999-.26.47999-.56.20999-.3.42999-.59.30001-.24.51001-.53.05999-.41.26999-.71c.20996-.3.30996-.23.51996-.53s.1-.38.31-.68.51-.09.72-.38-.04-.48.17-.78.4301-.14.6501-.44-.02-.47.2-.77.63-.14.61-.51-.37-.18-.61-.44-.0301-.46-.2701-.72-.5399.02-.7899-.24.0299-.52-.2101-.78-.1599-.34-.3999-.6-.2201-.28-.4601-.54-.36995-.14-.61995-.4-.44-.07-.69-.33.02-.52-.22-.78-.32-.19-.56-.45-.34-.17-.58-.43-.1-.4-.34-.66-.22-.28-.47-.54-.4-.12-.64-.38-.08-.42-.33-.68-.24001-.26-.49001-.53-.70999.17-.95999-.09-.14-.37-.38-.63"/><path d="m67.8302 126.02c-.36 0-.36-.03-.72-.03s-.3599.09-.7199.09-.36.14-.72.14-.36.17-.72.16-.36-.24-.72-.24-.36-.17-.72-.18-.36.44-.72.44-.36-.09-.72-.09-.36.24-.72.24-.36-.33-.72-.33-.36-.02-.72-.02-.36.05-.72.05-.36.15-.72.15-.36-.07-.72-.07-.36.24-.72.24-.36-.2-.72-.2-.36-.46-.72-.46-.36.47-.72.47-.36-.33-.72-.33-.36.35-.72.35-.36-.24-.72-.24-.36.1-.71.1-.36.22-.71.21-.3601.1-.7101.1-.3599-.32-.7099-.32-.36.05-.71.05-.36-.05-.72-.05-.36-.37-.72-.37-.36.44-.72.44-.36-.08-.72-.08-.36-.35-.72-.35-.36.41-.72.41-.36-.18-.72-.18-.36.31-.72.31-.36-.51-.71-.51-.36.39-.71.39-.3601.02-.7101.02-.3599-.18-.7099-.18-.36-.24-.71-.24-.36.03-.71.03-.36.61-.72.61-.36-.68-.71-.68-.3601.66-.7201.66-.36-.6-.72-.6-.36.5-.72.5-.36-.34-.72-.34-.36.23-.72.23-.3599-.02-.7199-.02-.36-.34-.72-.34-.36.23-.72.23-.36-.33-.72-.33-.36.09-.72.09-.36.54-.72.54-.36-.16-.72-.16-.36-.36-.72-.36-.36.51-.72.51-.36-.05-.72-.05-.36-.35-.72-.35-.36.14-.72.14-.36.03-.72.03-.36.14-.72.14-.36-.08-.72-.08-.36-.24-.72-.24-.36.31-.72.31-.36-.39-.72-.39-.36.02-.72.02-.36.36-.72.36-.36-.18-.71-.18-.36.13-.72.13-.36-.27-.72-.28-.36.38-.72.38-.36-.35-.72-.35-.36.37-.72.37-.36-.59-.72-.59-.36.56-.72.56-.36-.27-.72-.28-.36-.11-.72-.11-.36.05-.72.05-.36.07-.72.07-.36.31-.72.31-.36-.54-.72004-.54c-.36 0-.36.41-.72.41s-.36.02-.72.02-.36.12-.73.12-.36-.41-.73-.41-.36001.25-.73001.25"/><path d="m43.3706 137.24s-.31-.08-.73-.07c-.2 0-.44-.19-.72-.18-.22 0-.45.09-.71.09-.22 0-.46-.08-.72-.07-.23 0-.46.2-.71.2-.23 0-.47-.24-.72-.24-.23 0-.47-.13-.71-.12s-.46.39-.71.4-.47.11-.71.12-.48-.28-.72-.28-.47.01-.71.01-.48-.13-.72-.13-.47 0-.71 0-.4701.33-.7101.33-.4699.05-.7099.05-.47 0-.71.01-.47.18-.71.19-.48-.03-.71-.03-.47.07-.71.07-.48-.5-.72-.5-.47.45-.71.45-.49-.56-.73-.55-.47.5-.71.5-.48 0-.72 0-.48-.12-.72-.12-.48.15-.72.15-.49-.46-.72-.45-.47.63-.71.63-.49-.58-.73-.58-.48.21-.72.21-.48-.11-.72-.11-.48.22-.72.22-.48-.12-.72-.12-.48.08-.72.09-.48.23-.71.23-.49-.2-.72-.2c-.25 0-.48.21-.72.21-.25 0-.49-.43-.72-.43-.25 0-.49.16-.71.17-.25 0-.49.03-.72.03-.26 0-.5.23-.72.23-.28 0-.52-.07-.72-.07-.45 0-.35.18-.7.18"/></g></svg>