<svg fill="none" height="97" viewBox="0 0 127 97" width="127" xmlns="http://www.w3.org/2000/svg"><path d="m57.98 83.23c.37 0 .37.13.73.13s.37-.13.73-.13.37.27.73.27h.73c.36 0 .37-.27.73-.27s.36.05.73.05.36.24.73.24.36-.31.73-.31h.73c.36 0 .37.18.73.18s.37-.2.73-.2.37.08.73.08.37-.2.73-.2.37.4.74.4.37-.44.73-.44.37.44.73.44.37-.11.74-.11.37-.3.74-.3.37.29.73.29.37-.08.73-.08.37-.27.74-.27.37.28.74.28.37-.13.74-.13.37-.15.74-.15c.22 0 .33.45.52.53s.59-.15.74 0 .46.32.54.52-.44.53-.44.75c0 .2.54.2.54.39 0 .24-.16.49-.17.72s-.37.44-.4.67-.03.47-.08.7-.18.43-.25.66.19.57.1.79-.04.52-.15.73-.55.26-.67.46-.23.41-.37.61.03.62-.12.81-.59.13-.76.3-.13.56-.3.72-.73-.12-.91.03-.06.71-.25.85-.44.22-.65.33-.38.33-.59.43-.63-.25-.85-.17-.28.63-.51.7-.58-.32-.81-.27-.38.52-.62.55-.49 0-.73.02-.48.08-.72.08c-.44 0-.44-.17-.88-.17s-.44.2-.88.2c-.24 0-.49-.11-.72-.12s-.48-.05-.72-.09-.4-.44-.63-.49-.62.45-.84.38-.28-.66-.5-.75-.65.29-.86.19-.25-.56-.46-.68-.63.09-.82-.05-.03-.77-.21-.92-.43-.2-.61-.36-.41-.25-.57-.43-.11-.52-.26-.7-.54-.17-.68-.37-.5-.26-.62-.47 0-.55-.11-.76.05-.53-.04-.75-.3-.38-.37-.61-.57-.35-.62-.58-.03-.5-.06-.74.04-.5.02-.74.31-.49.31-.73c0-.2-.29-.2-.29-.39 0-.22.04-.48.12-.67s.39-.26.54-.41.31-.24.5-.32.36-.16.58-.16z" fill="#fff"/><path d="m57.98 83.23c.37 0 .37.13.73.13s.37-.13.73-.13.37.27.73.27h.73c.36 0 .37-.27.73-.27s.36.05.73.05.36.24.73.24.36-.31.73-.31h.73c.36 0 .37.18.73.18s.37-.2.73-.2.37.08.73.08.37-.2.73-.2.37.4.74.4.37-.44.73-.44.37.44.73.44.37-.11.74-.11.37-.3.74-.3.37.29.73.29.37-.08.73-.08.37-.27.74-.27.37.28.74.28.37-.13.74-.13.37-.15.74-.15c.22 0 .33.45.52.53s.59-.15.74 0 .46.32.54.52-.44.53-.44.75c0 .2.54.2.54.39 0 .24-.16.49-.17.72s-.37.44-.4.67-.03.47-.08.7-.18.43-.25.66.19.57.1.79-.04.52-.15.73-.55.26-.67.46-.23.41-.37.61.03.62-.12.81-.59.13-.76.3-.13.56-.3.72-.73-.12-.91.03-.06.71-.25.85-.44.22-.65.33-.38.33-.59.43-.63-.25-.85-.17-.28.63-.51.7-.58-.32-.81-.27-.38.52-.62.55-.49 0-.73.02-.48.08-.72.08c-.44 0-.44-.17-.88-.17s-.44.2-.88.2c-.24 0-.49-.11-.72-.12s-.48-.05-.72-.09-.4-.44-.63-.49-.62.45-.84.38-.28-.66-.5-.75-.65.29-.86.19-.25-.56-.46-.68-.63.09-.82-.05-.03-.77-.21-.92-.43-.2-.61-.36-.41-.25-.57-.43-.11-.52-.26-.7-.54-.17-.68-.37-.5-.26-.62-.47 0-.55-.11-.76.05-.53-.04-.75-.3-.38-.37-.61-.57-.35-.62-.58-.03-.5-.06-.74.04-.5.02-.74.31-.49.31-.73c0-.2-.29-.2-.29-.39 0-.22.04-.48.12-.67s.39-.26.54-.41.31-.24.5-.32.36-.16.58-.16z" stroke="#000" stroke-linecap="round" stroke-linejoin="round" stroke-width="2.6"/><path d="m77.3303 84.8c0-.22.14-.56.06-.75s-.68-.08-.83-.23-.28-.15-.48-.23-.28-.11-.5-.11c-.37 0-.37-.2-.73-.2s-.37-.43-.73-.43-.37.46-.73.46-.37-.45-.73-.45-.37.25-.73.25-.36.19-.73.19-.36-.06-.73-.06-.36-.16-.73-.16-.37-.12-.73-.12-.37.48-.73.48-.37-.18-.73-.18-.37-.02-.73-.02-.37-.07-.73-.07-.37-.32-.74-.32-.37.06-.73.06-.37-.07-.73-.07-.37.22-.74.22-.37 0-.74 0-.37-.06-.73-.06-.37-.13-.73-.13-.37.58-.74.58-.37-.36-.74-.36-.37.03-.74.03-.37.29-.74.29c-.22 0-.54-.46-.73-.38s-.09.64-.24.79-.17.27-.25.47-.6.29-.6.51c0 .2-.1.2-.1.39 0 .22.13.52.2.78.06.22.17.47.27.71.09.22.19.46.3.68s.49.32.59.53c.11.23.4.37.49.58.12.25-.02.53.06.72.25 0 .44.38.68.38s.5-.51.74-.51.49.47.73.47.49-.3.74-.3.49.38.74.38h.74c.25 0 .49-.05.73-.05s.49-.48.73-.48.49.45.74.44.49-.5.73-.5.49-.04.73-.05.49.42.73.42.49.17.73.17.49-.3.73-.3.48.08.73.09.48 0 .73 0 .48.13.73.13.49-.18.73-.17.48.06.73.07.48-.09.73-.08.47.28.72.28.49-.2.74-.19.49 0 .73.02.47.33.71.34.41-.46.65-.44c.11-.22.43-.22.52-.45s-.1-.56-.02-.8.37-.4.43-.65-.28-.55-.24-.79.54-.43.56-.67-.21-.53-.21-.78c.06-.2.22-.17.22-.36z" fill="#cebefd"/><path d="m57.98 82.89c.37 0 .37.53.73.53s.37-.55.73-.55.37.28.73.28.37.1.73.1.37-.36.73-.36.36.56.73.56.36-.48.73-.48.36-.14.73-.14.37.14.73.14.37-.11.73-.11.37.57.73.57.37.05.73.05.37-.4.73-.4.37-.23.74-.23.37.66.73.66.37-.01.73-.01.37-.02.74-.02.37-.6.74-.6.37.49.73.49.37-.21.73-.21.37.31.74.31.37-.14.74-.14.37.01.74.01.37-.16.74-.16c.22 0 .37.17.56.25s.38.11.53.26.61.16.69.36-.38.52-.38.74c0 .2.16.2.16.39 0 .24-.18.46-.19.7s.13.48.09.72-.28.42-.33.65-.16.43-.23.66.37.63.29.85-.45.33-.55.55-.11.48-.23.69-.5.24-.63.44-.17.45-.32.64 0 .65-.15.82-.36.35-.53.51-.59.06-.77.21-.41.24-.61.37-.44.17-.65.29-.4.22-.62.32-.24.65-.46.74-.44.24-.67.31-.62-.45-.85-.4-.41.34-.64.38-.49-.23-.73-.21-.45.53-.69.53c-.44 0-.44-.3-.88-.3s-.44.08-.88.08c-.24 0-.5.29-.73.27s-.45-.39-.68-.43-.49 0-.72-.04-.4-.33-.63-.4-.55.13-.77.04-.52-.04-.73-.14-.23-.59-.44-.71-.33-.34-.53-.47-.43-.19-.61-.34-.33-.32-.5-.49-.55-.12-.71-.29-.54-.18-.69-.37.15-.71.01-.9-.41-.29-.53-.5.04-.54-.07-.76-.33-.36-.41-.58-.42-.36-.49-.58.29-.56.23-.79-.28-.41-.32-.65-.3-.44-.32-.68.43-.48.43-.72c0-.2-.69-.2-.69-.39 0-.22.41-.42.49-.61s.41-.16.56-.31 0-.73.2-.81.5-.18.72-.18z" stroke="#000" stroke-linecap="round" stroke-linejoin="round" stroke-width="2.6"/><path d="m112.78 2c-.36 0-.36 0-.72 0s-.36.08-.72.08-.36.49-.72.49-.36-.53-.72-.53-.36.51-.72.51-.36-.19-.72-.19-.36-.00999-.72-.00999-.36-.38001-.72-.38001-.36.18-.72.18-.36.31-.72.31-.36-.49-.72-.49-.36.12-.72.12-.36-.07-.72-.07-.36.57-.72.57-.36.02-.72.02-.36-.23-.72-.23-.36.27-.72.27-.36-.64-.7199-.64c-.36 0-.36.53-.72.53s-.36-.5-.72-.5-.36.46-.72.46-.36-.09-.72-.09-.36-.05-.72-.05-.36.05-.72.05-.36-.08-.72-.08-.36.32-.72.32-.36-.28-.72-.28-.36-.08-.72-.08-.36.32-.72.32-.36-.50999-.72-.50999-.36.42999-.72.42999-.36-.05-.72-.05-.36-.14-.72-.14-.36-.04-.72-.04-.36-.26-.72-.26-.36.20001-.72.20001-.3599.01999-.7199.01999-.36.15-.72.15-.36.15001-.7201.15001c-.36 0-.36-.13001-.72-.13001s-.36.05-.72.05-.36.06-.72.06-.36-.21-.72-.21-.36-.15999-.72-.15999-.36.32-.72.32-.36-.22001-.72-.22001-.36-.26-.72-.26-.36.31-.72.31-.36.26-.72.26-.36-.58999-.72-.58999-.36.64999-.72.64999-.36-.52-.72-.52-.36-.08-.72-.08-.36-.09-.72-.09-.36.27-.72.27-.36-.08-.71-.08-.36.36-.71.36-.36-.38-.72-.38-.36.32-.72.32-.36.18-.72.18-.36-.34-.72-.34-.36.04-.72.04-.36.18-.72.18-.36-.37-.72-.37-.36.2-.72.2-.36-.06-.72-.06-.36-.26-.72-.26-.36.31-.72.31-.36.21-.72.21-.36.06-.72.06-.36-.59999-.72-.59999-.36.01999-.72.01999-.36.57-.72.57-.36-.51999-.72-.51999-.36.55999-.72.55999-.36-.19-.72-.19-.36-.00999-.72-.00999-.36.18999-.72.18999-.36-.28-.72-.28-.36-.24-.72-.24-.36.28-.72.28-.36-.19999-.72-.19999-.36.33999-.72.33999-.36-.15999-.72-.15999-.36-.15001-.72-.15001-.36-.13999-.72-.13999-.36-.12001-.72-.12001-.36.07-.72.07-.36-.05-.72-.05-.36.11-.72.11-.36.13-.72.13-.36.04001-.72.04001-.36.32-.72.32-.36-.24001-.72-.24001-.36.12-.72.12-.36-.39-.72-.39-.36.47-.72.47-.36-.14-.72-.14-.36-.31999-.72-.31999-.36.26999-.72.26999-.36-.07-.72-.07-.36.04-.72.04-.36.03-.72.03-.36-.33-.72-.33-.36.48-.72.48-.36-.44-.72-.44-.36.1-.72.1-.36.02-.72.02-.36.2-.72.2-.36.27-.73.27-.36-.38-.72-.38-.36-.25-.72-.25-.36.46-.73.46-.36-.19-.72-.19-.36-.22-.72-.22-.36.11-.72.11-.36.46-.73.46-.36-.3-.73-.3-.36 0-.73 0-.36-.1-.73-.1-.35.20001-.7.20001-.35.07999-.7.07999-.35-.17-.7-.17-.35-.03-.7-.03-.35.03-.7.03-.35.05-.7.05-.35.23-.7.23-.35-.11-.7-.11-.35.05-.7.05-.35-.15-.7-.15-.35.04-.7.04-.35.11-.7.11-.35.05001-.7.05001-.35-.55001-.7-.55001-.35.09-.7.09-.35.12-.71.12-.35-.15999-.71-.15999c-.24 0-.49.12-.73.14s-.48.13999-.71.16999-.47.10001-.71.15001-.46.13-.7.18-.42.25-.65.32-.54-.12001-.77-.03001c-.22997.09-.43996.2-.65996.3s-.38001.33-.59001.44-.57999-.05-.78999.07-.17.64-.37.77-.74-.22-.94-.07-.11001.65001-.29001.81001-.60999.04-.78999.21-.09.58999-.26.76999-.49001.2-.65001.39.03.63-.11.82-.68999.1-.81999.3-.25001.43-.37001.64-.20999.44-.31999.66-.28001.41-.38001.63.25.62.17.84-.44999.35-.51999.58-.11001.47-.17001.71.23.53.19.77-.49999.41-.51999.65-.22001.48-.23001.72.07001.5.07001.74c0 .36-.08.36-.08.72s.00999.36.00999.72.31.36.31.72.11.36.11.72.03.36.03.72-.14999.36-.14999.72.08999.36.08999.72-.29999.36-.29999.72-.1.36-.1.72.19.36.19.72.23999.36.23999.72-.03999.36-.03999.72-.03.36-.03.72-.05.36-.05.71-.39.36-.39.71.57.36.57.71-.14.36-.14.72.1.36.1.72-.09.36-.09.72-.38001.36-.38001.72.55001.36.55001.72v.72c0 .36-.18.36-.18.72s-.18.36-.18.72.36.36.36.72-.56.36-.56.72.41.36.41.72-.18.36-.18.72-.15.36-.15.72.39.36.39.72.06.36.06.72.08999.36.08999.72-.45999.36-.45999.72.20999.36.20999.72-.03999.36-.03999.72.03999.36.03999.72.24001.36.24001.72-.18001.36-.18001.72.17.36.17.72-.23.36-.23.72.11001.36.11001.72-.32.36-.32.72-.13.36-.13.72.52.36.52.72-.18001.36-.18001.72-.03999.36-.03999.72-.06.36-.06.72-.24.36-.24.72.02.36.02.72.42.36.42.72-.38.36-.38.72.33.36.33.72-.28.36-.28.72-.05.36-.05.72.36.36.36.72-.08001.36-.08001.72.22001.36.22001.72-.16001.36-.16001.72v.72c0 .36.05001.36.05001.72s-.21.36-.21.72-.31001.36-.31001.72.27001.36.27001.72.19.36.19.72.19999.36.19999.72-.48999.36-.48999.72.29.36.29.72-.12.36-.12.72.23999.36.23999.72-.05.36-.05.72-.32999.36-.32999.72-.07.36-.07.72.18.36.18.72.21.36.21.72.02999.36.02999.73-.52999.36-.52999.73.13999.36.13999.73.07001.36.07001.73c0 .24-.11.5-.1.74s.39999.45.41999.69.14001.46.18001.7-.41.58-.36.81.46.39.53.62.37999.37.45999.6-.02999.52.07001.74.31.38.41.6.1.49.22.69.05.54.18.74.57.19.71.38.23.42.39.6.45.23.61.41.1.57.28.73.29.4.48.56.41.27.6.42.33.38.53.51.46.18.67.3.56-.04.78.07.3.48.53.57.57996-.19.80996-.1.4.27.63.34.4.36.63.41.42.38.66.42.57-.56.81-.53.42.67.67.69.5-.22.74-.22c.35 0 .35-.18.7-.18s.35.05.7.05.35.26.7.26.35.06.7.06.35-.16.7-.16.35.11.7.11.35-.42.7-.42.35.19.7.19.35.07.7.07.35-.1.7-.1.35-.08.7-.08.35.28.7.28.35-.12.7-.12h.7c.35 0 .35.27.7.27s.35-.19.71-.19.35-.31.71-.31.36.19.72.19.36.01.72.01.36.18.72.18.36-.09.72-.09.36-.38.72-.38.36.28.72.28.36-.29.72-.29.36.63.72.63.36.03.72.03.36-.51.72-.51.36.18.72.18.36-.27.72-.27.36.56.72.56.36-.39.72-.39.36.34.72.34.36-.31.72-.31.36-.19.72-.19.36.39.72.39.36-.22.72-.22.36.3.72.3.36-.32.72-.32.36.33.72.33.36-.29.72-.29.36.23.72.23.36-.27.72-.27.36-.12.72-.12.36.21.72.21.36.17.72.17.36-.21.72-.21.36.2.72.2.36-.4.72-.4.36.25.72.25.36.27.72.27.36-.46.72-.46.36.2.72.2.36-.11.72-.11.36.4.72.4.36.02.72.02.36-.47.72-.47.36-.16.72-.16h.72c.36 0 .36.27.72.27s.36.04.72.04.36-.21.72-.21.36-.04.72-.04.36.09.72.09.36.22.72.22.36-.21.72-.21.36.19.72.19.36.27.72.27.36-.48.72-.48.36.19.72.19.36-.06.72-.06.36-.17.72-.17.36.3.72.3.36-.06.71-.06.36-.06.71-.06.36-.19.72-.19.36.5.72.5.36-.07.72-.07.36.12.72.12.36-.17.72-.17.36-.22.72-.22.36-.08.72-.08h.72c.36 0 .36-.11.72-.11s.36-.02.72-.02.36.04.72.04.36.46.72.46.36.08.72.08.36-.39.72-.39.36.23.72.23.36-.03.72-.03.36.02.72.02.36-.31.72-.31.36.18.72.18.36-.02.72-.02.36-.03.72-.03.36.22.72.22.36-.46.72-.46.3601.14.7201.14.3599.39.7199.39.36-.15.72-.15.36.22.72.22.36.03.72.03.36-.08.72-.08.36-.35.72-.35.36-.04.72-.04h.72c.36 0 .36.3.72.3s.36-.34.72-.34.36.13.72.13.36.29.72.29.36.05.72.05.36-.18.72-.18.36.09.72.09.36.08.72.08.36-.33.72-.33.36.15.72.15.36-.46.72-.46.36.02.72.02.36.43.72.43c.3599 0 .3599-.22.7199-.22s.36.35.72.35.36-.17.72-.17.36.28.72.28.36-.24.72-.24.36-.31.72-.31.36.33.72.33.36-.34.73-.34.36.55.72.55.36-.46.72-.46.36.05.73.05.36.28.72.28.36.03.72.03.36-.55.72-.55.36.53.73.53.36.1.73.1.36-.25.73-.25.36.1.73.1c.24 0 .5.16.74.15s.45-.45.69-.48.44-.29.67-.33.49.04.72-.01.58.28.81.21.28-.68.51-.76.43-.18.65-.27.65.26.87.16.41-.27.62-.39.43-.24.63-.37.41-.27.6-.42.46-.21.65-.36.42-.28.6-.44-.09-.77.07-.95.3-.36.45-.54.75-.02.9-.21-.11-.67.02-.87.43-.3.55-.5.48-.3.59-.51-.15-.61-.05-.83.27-.4.36-.63.21-.44.28-.67.24-.44.29-.67.18-.46.22-.7-.18-.52-.15-.76-.04-.48-.03-.72.14-.47.14-.71c0-.36.16-.36.16-.72s.05-.36.05-.72-.39-.36-.39-.72.57-.36.57-.72-.1-.36-.1-.72.1-.36.1-.72-.15-.36-.15-.72-.5-.36-.5-.72.4-.36.4-.72-.03-.36-.03-.72-.23-.36-.23-.72-.08-.36-.08-.72-.05-.36-.05-.72.49-.36.49-.71-.28-.36-.28-.71.35-.36.35-.71-.28-.36-.28-.72.29-.36.29-.72-.12-.36-.12-.72-.48-.36-.48-.72.3-.36.3-.72-.2-.36-.2-.72.07-.36.07-.72-.04-.36-.04-.72.27-.36.27-.72-.14-.36-.14-.72.36-.36.36-.72 0-.36 0-.72-.19-.36-.19-.72-.2-.36-.2-.72.37-.36.37-.72-.46-.36-.46-.72.18-.36.18-.72.04-.36.04-.72.21-.36.21-.72.08-.36.08-.72.05-.36.05-.72-.46-.36-.46-.72.21-.36.21-.72-.29-.36-.29-.72.44-.36.44-.72-.06-.36-.06-.72-.22-.36-.22-.72.05-.36.05-.72-.26-.36-.26-.72.59-.36.59-.72-.6-.36-.6-.72-.05-.36-.05-.72.25-.36.25-.72-.25-.36-.25-.72.43-.36.43-.72-.1-.36-.1-.72.1-.36.1-.72.1-.36.1-.72-.08-.36-.08-.72-.29-.36-.29-.72.37-.36.37-.72-.4-.36-.4-.72.22-.36.22-.72-.02-.36-.02-.72-.08-.36-.08-.72.21-.36.21-.72-.29-.36-.29-.72-.08-.36-.08-.72.57-.36.57-.72 0-.36 0-.72-.1-.36-.1-.72-.18-.36-.18-.72.26-.36.26-.72-.3-.36-.3-.72.19-.36.19-.72-.05-.36-.05-.72-.49-.36-.49-.72.68-.36.68-.72-.66-.36-.66-.73.2-.36.2-.73.23-.36.23-.73-.08-.36-.08-.73c0-.24.11-.49.09-.73s-.25-.47-.27-.71-.22-.45-.26-.69.33-.56.27-.79-.18-.46-.25-.69-.21-.44-.3-.67.04-.55-.05-.77-.27-.42-.38-.64-.65-.2-.77-.41.19-.69.06-.89-.5-.25-.64-.44-.25-.42-.41-.6-.52-.17999-.68-.35999-.38-.28001-.55-.45001.06-.8-.12-.95-.61-.02-.81-.16-.44-.2-.64-.33-.31-.41-.52-.53-.4-.28-.62-.39-.38-.34999-.6-.43999-.48-.14001-.7-.22001-.46-.18-.69-.25-.48-.12-.71-.18-.52.09-.75.05-.5.12-.74.09-.44-.59-.68-.61-.5.03-.74.03z" fill="#fff"/><path d="m14.56 73.73c-.03-.24.23-.52.2-.75s-.12-.47-.15-.71-.23-.46-.26-.7.45-.54.42-.78-.26-.46-.29-.7.11-.5.09-.73-.5-.44-.52-.68-.03-.48-.05-.72-.07-.48-.09-.72.25-.5.23-.74-.2-.47-.21-.71.38-.5.37-.74-.11-.48-.12-.72-.46-.47-.46-.71.28-.49.28-.73-.15-.48-.16-.72.31-.48.31-.72-.07-.48-.07-.72.23-.48.24-.71-.59-.49-.58-.73.26-.47.27-.71.35-.47.36-.71-.25-.49-.24-.73-.1-.49-.09-.73.34-.46.35-.7-.46-.51-.45-.75.37-.46.39-.7.21-.46.23-.7.12-.47.14-.71-.04-.48-.02-.72-.32-.51-.3-.75.33-.45.35-.69.03-.48.05-.71.02-.48.04-.72-.41-.52-.39-.76.38-.44.4-.68-.03-.48 0-.72.27-.45.29-.69-.42-.52-.39-.75.4-.44.42-.68.24-.45.26-.69-.54-.52-.52-.76.42-.44.44-.68-.19-.49-.17-.73.2-.46.22-.7-.23-.49-.22-.73.62-.43.64-.67-.2-.49-.19-.73.09-.47.1-.71.07-.47.08-.71.07-.47.08-.71.08-.47.09-.71.02-.48.02-.72-.08-.48-.08-.72.14-.47.15-.71-.53-.48-.53-.72.27-.48.27-.71.1-.48.09-.72-.18-.47-.18-.71-.05-.48-.06-.72.27-.49.26-.73-.59-.45-.6-.69.51-.5.5-.74-.53-.45-.54-.68.46-.51.45-.74.09-.49.07-.73-.01-.48-.03-.72-.41-.45-.43-.69.28-.51.26-.75-.14-.47-.17-.71.09-.49.07-.74-.14-.47-.17-.71-.15-.47-.19-.71-.29-.45-.32-.7c-.05-.24.22-.54.18-.78s-.4-.44-.43-.69.02-.5 0-.75.04-.5.03-.75.09-.49.09-.74-.04-.49-.04-.74.18-.48.2-.73-.09-.5-.06-.74-.3-.53-.26-.78.54-.42.58-.66-.17-.53-.12-.77.26-.45.31-.69-.32-.38-.25-.62c-.23 0-.24-.29-.48-.29s-.48.31-.71.31-.47 0-.7 0-.47 0-.7 0-.46-.53-.7-.54-.47.21-.71.21-.47-.24-.7-.24-.46999.65-.70999.65-.47-.57-.7-.57-.46999-.03-.69999-.03-.47.31-.7.31-.47 0-.7.01-.47001.08-.70001.08-.46.09-.7.1-.49-.36-.72-.35-.46.18-.69.2-.46999-.05-.70999-.03-.29001.39-.52001.4c-.06.22-.42999.21-.47999.44s-.25001.44-.29001.67.44.54.41.77-.57999.42-.58999.66.19.48.19.72c0 .36-.14.36-.14.72s-.03.36-.03.72.06.36.06.72.34999.36.34999.72.11.36.11.72.05.36.05.72-.17999.36-.17999.72-.39.36-.39.72.12999.36.12999.72.26001.36.26001.72-.14.36-.14.72.15.36.15.72.00999.36.00999.72-.40999.36-.40999.71.14.36.14.71.36.36.36.71-.25.36-.25.72-.17001.36-.17001.72.29001.36.29001.72.16.36.16.72-.39.36-.39.72.28.36.28.72.15999.36.15999.72-.48.36-.48.72v.72c0 .36.09.36.09.72s.14.36.14.72-.12.36-.12.72.24001.36.24001.72-.41001.36-.41001.72.31.36.31.72.08.36.08.72.02001.36.02001.72v.72c0 .36-.17.36-.17.72s-.02.36-.02.72-.33001.36-.33001.72.39.36.39.72-.03999.36-.03999.72-.36.36-.36.72.17999.36.17999.72.07001.36.07001.72.14.36.14.72-.09.36-.09.72.26999.36.26999.72.01001.36.01001.72-.46001.36-.46001.72.38001.36.38001.72-.44.36-.44.72.39999.36.39999.72-.01999.36-.01999.72v.72c0 .36-.09001.36-.09001.72v.72c0 .36.14.36.14.72s-.17999.36-.17999.72.05.36.05.72-.3.36-.3.72v.72c0 .36.47.36.47.72s-.52001.36-.52001.72.11.36.11.72v.72c0 .36.18001.36.18001.72s.31.36.31.72-.37001.36-.37001.72.35001.36.35001.72.03999.36.03999.72-.61.36-.61.72.36.36.36.72-.2.36-.2.72.47.36.47.72-.16.36-.16.72-.31999.36-.31999.72.08999.36.08999.73-.16999.36-.16999.73.05.36.05.73-.07001.36-.07001.73c0 .24.48001.47.49001.71s-.43001.52-.40001.76.01.5.05.74.19.47.25.7-.02.52.05.75.71001.28.79001.5 0 .51.09.73.09.49.2.7.32.38.44.59.35999.34.48999.54-.16999.71-.01999.91.49.25.64.43.26.43.42.61.52999.16.70999.32.10001.62.29001.78.37999.33.56999.47.52.12.72.26.4.29.61.41.37001.35.59001.46.48.16.7.25.43999.25.65998.33c.22.08.58-.2.81-.13s.51-.1.75-.04.34.75.58.79.54-.35.78-.32.48 0 .72 0 .47.39.71.39h.74c.37 0 .37.08.74.08s.37-.02.74-.02.37.03.74.03.37-.19.74-.19h.74c.37 0 .37.09.74.09s.37-.02.74-.02.37-.24.74-.24.37.05.75.05.37-.19.75-.19.43.52.8.46c-.22-.1-.43-.56-.64-.67s-.46-.13-.67-.24-.57.05-.78-.06-.12-.75-.32-.87-.73.28-.93.16-.24-.51-.44-.64-.33-.36-.52-.5-.23-.46-.41-.61-.49-.15-.66-.31-.62-.06-.78-.23-.28-.41-.43-.59-.19-.47-.33-.66-.24-.41-.37-.62.07-.57-.04-.78-.61-.22-.7-.44.21-.58.14-.81-.61-.3-.67-.53-.21-.45-.25-.69-.11-.48-.14-.72z" fill="#cebefd"/><path d="m112.78 2.07c-.36 0-.36.10001-.72.10001s-.36.32-.72.32-.36-.40001-.72-.40001-.36.44-.72.44-.36-.16-.72-.16-.36-.19-.72-.19-.36.46-.72.46-.36-.66-.72-.66-.36.62001-.72.62001-.36-.02001-.72-.02001-.36.04-.72.04-.36-.64-.72-.64-.36.4-.72.4-.36-.38999-.72-.38999-.36.04999-.72.04999-.36.01-.72.01-.36-.09-.72-.09-.36.38-.7199.38c-.36 0-.36-.23999-.72-.23999s-.36-.09001-.72-.09001-.36.19-.72.19-.36.41-.72.41-.36-.02-.72-.02-.36-.37-.72-.37-.36.1-.72.1-.36-.14999-.72-.14999-.36-.17001-.72-.17001-.36.32-.72.32-.36.26-.72.26-.36-.05-.72-.05-.36-.39-.72-.39-.36.12-.72.12-.36.4-.72.4-.36-.01-.72-.01-.36-.18-.72-.18-.36.13001-.72.13001-.36-.41001-.72-.41001-.36.17-.72.17-.36-.13-.72-.13-.36.4-.72.4-.36-.56999-.72-.56999-.36.11-.72.11-.36.39-.72.39-.36-.44001-.72-.44001-.36.13-.72.13-.36.19-.72.19-.36.14-.72.14-.36-.22-.72-.22-.36.07-.72.07-.36-.13-.72-.13-.36-.05999-.72-.05999-.36-.17001-.72-.17001-.36.11-.72.11-.36.05-.72.05-.36.28-.72.28-.36-.48-.71-.48-.36.54-.71.54-.36.06-.72.06-.36-.62-.72-.62-.36.47-.72.47-.36-.16-.72-.16-.36 0-.72 0-.36.32-.72.32-.36-.07-.72-.07-.36-.04-.72-.04-.36-.44-.72-.44-.36.14-.72.14-.36.34-.72.34-.36-.06-.72-.06-.36.04-.72.04-.36-.28-.72-.28-.36-.16-.72-.16-.36-.00999-.72-.00999-.36.39999-.72.39999-.36-.21-.72-.21-.36-.22-.72-.22-.36.08-.72.08-.36-.04999-.72-.04999-.36.53999-.72.53999-.36-.01-.72-.01-.36-.20999-.72-.20999-.36-.19001-.72-.19001-.36-.07-.72-.07-.36.32-.72.32-.36.08001-.72.08001-.36-.48001-.72-.48001-.36.36-.72.36-.36-.3-.72-.3-.36-.14999-.72-.14999-.36.11999-.72.11999-.36.4-.72.4-.36-.23-.72-.23-.36-.03-.72-.03-.36-.07999-.72-.07999-.36.41999-.72.41999-.36-.41999-.72-.41999-.36.40999-.72.40999-.36-.53-.72-.53-.36.12001-.72.12001-.36.33999-.72.33999-.36-.24-.72-.24-.36-.24-.72-.24-.36-.08-.72-.08-.36.3-.72.3-.36-.32999-.72-.32999-.36.29999-.72.29999-.36-.28-.72-.28-.36.26-.72.26-.36.19-.72.19-.36.01-.73.01-.36-.08999-.72-.08999-.36-.34001-.72-.34001-.36-.04999-.73-.04999-.36.02999-.72.02999-.36.31-.72.31-.36-.26999-.72-.26999-.36.33999-.73.33999-.36.02001-.73.02001-.36-.24001-.73-.24001-.36.47-.73.47-.35-.42-.7-.42-.35.3-.7.3-.35-.21999-.7-.21999-.35.32-.7.32-.35-.16001-.7-.16001-.35-.40999-.7-.40999-.35.28999-.7.28999-.35-.02-.7-.02-.35-.23-.7-.23-.35.39001-.7.39001-.35-.04001-.7-.04001-.35-.31-.7-.31-.35-.03-.7-.03-.35-.01-.7-.01-.35.3-.7.3-.35-.21-.71-.21-.35-.01-.71-.01c-.24 0-.48.2-.72.22s-.46.21-.7.24-.46.12-.69.16-.56-.32-.79-.27-.37.48-.6.55-.57-.19-.8-.11c-.22998.08-.37997.35-.59997.44s-.47001.13-.69001.24-.45.19-.66.31-.33.39-.53.52-.27999.41-.47999.56-.6.01-.78.17-.23001.46-.41001.63-.34999.33-.50999.5-.60001.11-.76001.3.08001.68-.06999.87-.50001.23-.63001.43-.35.35-.47.56 0 .55-.11.76-.29.39-.38.61-.34.39-.42.61.04.52-.03.75.05.5 0 .74-.61001.36-.66001.6.40002.54.37002.78-.29001.45-.30001.69.25.48.25.72c0 .36-.02.36-.02.72s-.5.36-.5.72.58.36.58.72-.64999.36-.64999.72.25.36.25.72.05999.36.05999.72-.33999.36-.33999.72.64.36.64.72-.60001.36-.60001.72.60001.36.60001.72-.37001.36-.37001.72-.26999.36-.26999.72.39999.36.39999.72-.02.36-.02.71-.09999.36-.09999.71-.13001.36-.13001.71.18001.36.18001.72-.31001.36-.31001.72.41.36.41.72.11999.36.11999.72-.25999.36-.25999.72-.09.36-.09.72.26.36.26.72.16.36.16.72-.08999.36-.08999.72-.36.36-.36.72.37998.36.37998.72-.45999.36-.45999.72.18.36.18.72.24.36.24.72-.49.36-.49.72.07.36.07.72.51.36.51.72-.53.36-.53.72.42.36.42.72-.37.36-.37.72.39.36.39.72.12.36.12.72-.62.36-.62.72.21001.36.21001.72v.72c0 .36-.19.36-.19.72s.34999.36.34999.72.21.36.21.72-.11.36-.11.72.03.36.03.72-.17.36-.17.72.04.36.04.72-.18.36-.18.72.48.36.48.72-.42999.36-.42999.72.22999.36.22999.72.02001.36.02001.72-.20002.36-.20002.72.31002.36.31002.72.06999.36.06999.72-.58.36-.58.72.37001.36.37001.72.2.36.2.72-.25.36-.25.72-.36001.36-.36001.72.45.36.45.72-.14999.36-.14999.72.11.36.11.72.11.36.11.72-.11.36-.11.72.07998.36.07998.72.10001.36.10001.72-.45999.36-.45999.72.15999.36.15999.72-.23999.36-.23999.72.03.36.03.72.22999.36.22999.72.17999.36.17999.72-.55999.36-.55999.73.29001.36.29001.73.30999.36.30999.73-.39.36-.39.73c0 .24.2.48.21.72s.13.47.16.71-.07999.49-.03999.73-.00001.49.05999.73.24.43.31.67.10001.47.18001.7-.07.55.03.77.20999.45.31999.66.28001.41.40001.62.54999.23.67999.43.33.34.48.53-.15.74 0 .92.61.11.78.29.31001.37.48001.53.17999.53.36999.68.41001.28.60001.42.35.36.56.49.55998.02.76998.14.43002.22.64002.33.29999.51.51999.61.60999-.23.83998-.14c.23.09.4.32.63.39s.53-.13.76-.07.38.56.61.6.54-.35.78-.33.44.51.68.52.49-.28.74-.28c.35 0 .35.03.7.03s.35-.03.7-.03.35.38.7.38h.7c.35 0 .35-.6.7-.6s.35.28.7.28.35.28.7.28.35-.1.7-.1.35-.51.7-.51.35.22.7.22.35-.2.7-.2h.7c.35 0 .35-.03.7-.03s.35.55.7.55.35-.24.7-.24.35.07.71.07.35-.1.71-.1.36-.19.72-.19.36.39.72.39.36-.15.72-.15.36-.32.72-.32.36.55.72.55.36-.05.72-.05h.72c.36 0 .36-.03.72-.03s.36-.18.72-.18.36-.21.72-.21.36.57.72.57.36.04.72.04.36-.27.72-.27.36.16.72.16.36-.29.72-.29.36.22.72.22.36-.24.72-.24.36-.2.72-.2h.72c.36 0 .36.49.72.49s.36-.57.72-.57.36.45.72.45.36-.28.72-.28.36-.14.72-.14.36.39.72.39.36-.08.72-.08.36.29.72.29.36-.3.72-.3.36.24.72.24.36.11.72.11.36-.41.72-.41.36.38.72.38.36-.15.72-.15.36-.47.72-.47.36.22.72.22.36-.04.72-.04.36-.21.72-.21.36.18.72.18.36.25.72.25.36-.39.72-.39h.72c.36 0 .36.57.72.57s.36-.1.72-.1.36.09.72.09.36-.11.72-.11.36-.17.72-.17.36-.2.72-.2.36.21.72.21.36-.23.72-.23.36-.09.72-.09.36.15.72.15.36-.14.72-.14.36.09.72.09.36.21.72.21.36-.01.72-.01.36.26.71.26.36.08.71.08.36-.35.72-.35.36.19.72.19.36-.13.72-.13.36-.04.72-.04.36.25.72.25.36-.09.72-.09.36-.39.72-.39.36-.02.72-.02.36.31.72.31.36-.25.72-.25.36.37.72.37.36-.37.72-.37.36.42.72.42.36-.23.72-.23.36.29.72.29.36-.52.72-.52.36.58.72.58.36-.38.72-.38.36-.22.72-.22.36-.05.72-.05.36.62.72.62.36.04.72.04.36-.42.72-.42.36-.07.72-.07.36.26.72.26.36-.43.72-.43.36.45.72.45.36-.42.72-.42.36.52.72.52.36-.26.72-.26.36.18.72.18.36-.24.72-.24.36.08.72.08.36.24.72.24.36-.5.72-.5.36.02.72.02.36.19.72.19.36-.23.72-.23.36.51.72.51.36-.18.72-.18.36-.28.72-.28.36.42.72.42.36-.46.72-.46.36.58.72.58.36-.27.72-.27c.3599 0 .3599-.27.7199-.27s.36-.03.72-.03.36.55.72.55.36-.29.72-.29.36.33.72.33.36-.6.72-.6.36-.06.72-.06.36.67.73.67.36-.08.72-.08.36-.28.72-.28.36.26.73.26.36-.52.72-.52.36.26.72.26.36.05.72.05.36.22.73.22.36-.06.73-.06.36-.46.73-.46.36.28.73.28c.24 0 .48 0 .72-.02s.47-.11.71-.14.54.32.78.27.37-.6.61-.66.49.01.72-.06.57.18.8.1.5-.1.72-.2.22-.68.44-.78.66.21.87.09.09-.77.29-.91.44-.18.64-.33.37-.29.56-.44.66.01.83-.15.14-.54.31-.72.35-.33.51-.51.2-.45.34-.65.25-.4.38-.6.6-.19.73-.4.17-.47.28-.68-.06-.56.04-.78.13-.46.21-.68.09-.46.16-.69.5-.36.56-.59-.21-.53-.17-.77.25-.44.27-.68.15-.47.16-.71.18-.48.18-.73c0-.36-.33-.36-.33-.72s.19-.36.19-.72.28-.36.28-.72 0-.36 0-.72-.49-.36-.49-.72.07-.36.07-.72.44-.36.44-.72-.04-.36-.04-.72-.31-.36-.31-.72.08-.36.08-.72.2-.36.2-.72-.26-.36-.26-.72.3-.36.3-.72-.3-.36-.3-.71-.03-.36-.03-.71.23-.36.23-.71-.15-.36-.15-.72-.09-.36-.09-.72.29-.36.29-.72-.05-.36-.05-.72-.48-.36-.48-.72.18-.36.18-.72-.06-.36-.06-.72-.14-.36-.14-.72.45-.36.45-.72.15-.36.15-.72-.51-.36-.51-.72.38-.36.38-.72-.37-.36-.37-.72-.13-.36-.13-.72.22-.36.22-.72.03-.36.03-.72.08-.36.08-.72-.12-.36-.12-.72.3-.36.3-.72-.26-.36-.26-.72.1-.36.1-.72 0-.36 0-.72-.19-.36-.19-.72.47-.36.47-.72-.21-.36-.21-.72-.25-.36-.25-.72.36-.36.36-.72-.17-.36-.17-.72.23-.36.23-.72-.56-.36-.56-.72.47-.36.47-.72-.45-.36-.45-.72.42-.36.42-.72-.24-.36-.24-.72-.27-.36-.27-.72.24-.36.24-.72.31-.36.31-.72-.48-.36-.48-.72.22-.36.22-.72.3-.36.3-.72-.25-.36-.25-.72.15-.36.15-.72.17-.36.17-.72-.36-.36-.36-.72.19-.36.19-.72-.36-.36-.36-.72.45-.36.45-.72.08-.36.08-.72-.32-.36-.32-.72-.24-.36-.24-.72.59-.36.59-.72-.44-.36-.44-.72-.21-.36-.21-.72.65-.36.65-.72-.52-.36-.52-.72.03-.36.03-.72-.14-.36-.14-.72.5-.36.5-.72-.22-.36-.22-.73.14-.36.14-.73-.24-.36-.24-.73.38-.36.38-.73c0-.24-.36-.48-.38-.72s.35-.52.32-.76-.09-.49-.13-.73-.62-.37-.67-.6.12-.52.05-.75.19-.58.11-.81-.32-.41-.41-.63-.27-.42-.37-.63-.15-.48-.27-.69-.17-.48-.3-.68-.56-.21-.7-.4-.08-.56-.23-.75-.51-.19999-.67-.37999-.28-.41001-.45-.58001-.6-.04-.79-.19-.03-.73-.23-.88-.54-.09-.74-.22-.48-.13-.69-.26-.38-.31-.59-.42-.28-.57-.5-.66-.68.4-.91.32-.33-.51-.56-.58-.4-.39999-.64-.45999-.59.47999-.83.43999-.47 0-.71-.02-.44-.38-.68-.39-.48-.24-.72-.24z" stroke="#000" stroke-linecap="round" stroke-linejoin="round" stroke-width="2.6"/><path d="m17.3801 79.92c-.21-.12-.42-.26-.62-.41.05.09.2.18.26.22.07.04.07.04.05.06-.38.11-1-.01-1.32-.42-.2-.1-.37-.26-.58-.49-.26-.35-.33-.58-.52-.83-.15-.29-.21-.51-.34-.71l-.17-.31-.08-.16c-.07-.13.06.12.09.14.09.1.05.04-.06-.04-.54-.28-.85-1.47-.99-2.11-.12-.3-.13-.91-.08-1.11 0-.02 0 0 0 .05 0 .02 0 .07.02.1-.04-.23-.1-.63-.14-.87-.04-.47.07-.71.1-.83.04-.12.03-.15.01.02-.03.21.15.62.27.71-.3-.25-.6-.52-.74-.99-.2-.46.14-1.31.26-1.42.07-.1.08-.16.01.02-.07.39-.04.29 0 .47.02.07.05.11.02.06s-.11-.21-.16-.38c-.16-.56-.05-.91-.02-1.3-.01 0 .04.21.04.18-.04-.06-.2-.52-.19-.75-.01-.19 0-.39.06-.6.03-.36.67-1 .77-1.01-.03.02-.09.07-.18.2s-.15.34-.16.47c-.04.22.11.57.24.7.1.08-.05 0-.32-.34-.2-.18-.36-.83-.34-.98-.02.04.1.32.03.16-.1-.18-.22-.63-.21-.85-.05-.28.16-.95.41-1.18.24-.25.23-.27.08-.06-.13.22-.16.43-.1.7.03.13.12.28.17.35s.07.07.03.04c-.07-.06-.46-.42-.57-.93-.04-.16-.05-.33-.05-.49 0-.13.03-.41.05-.54 0-.2.04-.62.22-.9.34-.52.62-.61.73-.69.11-.06.15-.11-.04.06-.1.08-.28.42-.28.64v.09.05c-.01.07.12.35.02.13-.12-.22-.22-.66-.2-.88 0 .03.02.22.08.36s.15.25.18.28c-.37-.23-.86-1.15-.6-1.84.18-.6.6-.87.69-.95.14-.09.07-.1-.12.17-.11.17-.15.42-.15.51 0 .02.02.1-.04-.18-.02-.12-.04-.24-.04-.34v-.18s.02.12-.02-.02c-.08-.24-.09-.61-.1-.82-.05-.29-.05-.96-.06-1.28 0-.12 0-.31.06-.5.1-.41.38-.74.3-.64-.07.09-.13.4-.11.39-.04-.34-.09-.72-.04-1.12.03-.21.03-.19.03-.23v-.04c0 .05.01.17.05.27.11.24.18.3-.04 0-.45-.59-.34-1.71.13-2.19.15-.18-.04.01-.1.25-.04.22-.04.25.03.49.1.22.15.26-.08-.08-.41-.77-.17-1.22-.21-1.91-.01-.31-.03-.85.1-1.21.01-.04 0 0 0 .01v.09c0 .1.12.34 0 .07-.24-.51-.17-1.02-.2-1.51 0-.15 0-.07 0-.04.03.09-.07-.19-.09-.45-.04-.38-.02-.74.18-1.1.28-.5.58-.64.6-.68.08-.06-.17.09-.28.47-.07.35-.05.44.07.72.14.21.13.19-.12-.12-.27-.35-.34-.86-.34-1.3-.02-.44-.08-.8.18-1.35.18-.32.08-.19.03 0-.05.36 0-.17.03-.3.03-.17.11-.36.16-.46s.04-.1.02-.03c-.04.11-.05.18-.05.29-.02.09.14.42.08.3-.15-.18-.34-.83-.31-1.18-.05-.27-.07-.89.01-1.23.01-.04 0-.16 0-.21v-.55c-.02.12.16.49.16.45-.13-.14-.39-.61-.41-.87-.06-.49-.02-.43-.03-.6.01-.1 0-.36.01-.45 0-.03 0 .02 0 .07.02.11.11.3-.03-.03-.12-.31-.16-.66-.12-.99.03-.46.41-.98.73-1.19.19-.13.24-.18.09-.04-.39.34-.37 1.15.01 1.45 0-.03-.31-.18-.56-.69-.12-.25-.16-.52-.17-.74v.03c.04.17 0 0-.06-.17-.12-.66-.04-.73-.06-.97 0-.3.01-.69.05-.99 0-.33.08-.7.26-.98.25-.36.32-.42.18-.23-.09.16-.14.38-.11.54 0 .15.2.45.11.31-.43-.48-.49-1.58-.09-2.15 0 0-.04.09-.06.16-.04.33 0-.17.04-.33.09-.39.34-.71.26-.59-.07.09-.1.41-.08.28 0-.16.05-.5.09-.64.04-.03-.07-.1.11.36.04.06.04.06-.02-.03-.35-.43-.34-1.14-.35-1.67-.06-.46.25-1.14.46-1.32.11-.13-.11.12-.13.33-.02.12-.02.22.01.38.04.21.18.4.25.47.18.16.14.1.02.04-.1-.08-.42-.19-.73-.74-.15-.25-.19-.66-.17-.83 0-.18.06-.42.15-.62.22-.44.44-.59.36-.52-.14.15-.21.51-.15.62-.03-.05-.15-.46-.14-.67v-.32c-.04-.3-.03-.9.02-1.15 0-.03 0-.1 0-.16 0-.07 0-.04-.02-.2-.08-.47 0-1.12.29-1.49.13-.2-.05.05-.05.21-.02.16-.01.1.01.25.01.05.04.11.02.05-.02-.05-.09-.2-.14-.36-.18-.53 0-1.34.4-1.74 0-.04-.17.29-.16.42 0 .03 0 .24.06.39.06.16.17.29.21.33.1.08.03.03-.17-.12-.1-.08-.26-.23-.39-.44-.29-.49-.31-1.06-.04-1.57.13-.34.65-.66.7-.7-.01.01-.1.08-.18.21-.19.28-.19.73.02.97.07.07-.21-.18-.36-.61-.07-.21-.09-.4-.1-.57-.03.12.24.59 0 .16-.21-.31-.23-.8-.23-.98-.08-.35-.1-.76 0-1.19.15-.58-.06.4.13-.69.13-.39.34-.63.25-.5-.07.12-.09.33-.08.31-.01-.02.04.17.02.1-.18-.31-.16-1.04-.15-1.42 0-.12.02-.6.08-.78 0-.13 0 .02 0 0 0 .09.14.34.03.14-.28-.48-.35-1.1-.07-1.64.15-.38.61-.62.72-.71-.14.12-.32.39-.32.62v.06l.01.06c.01.04-.11-.32-.12-.55v-.16l-.01-.07c0 .16.07.39.16.51.16.2.17.15.04.07-.15-.03-.77-.75-.71-1.25-.03-.41.13-.82.34-1.1.04-.05 0-.02-.02.05-.03.07-.05.16-.06.2 0 .01 0 .08 0 .03 0-.18.04-.32.08-.45.19-.45.34-.55.41-.65.07-.06.07-.14-.04.12-.02.05-.05.2-.05.26v.03s0 0 0-.03c-.01-.08-.07-.43-.06-.63v-.11c0-.03 0 .07 0 .1 0 .17.04.24.05.27.02.04-.03-.05-.11-.22-.09-.14-.2-.53-.18-.79 0-.06.02-.19.02-.19v-.04l.09-.34.08-.34s.08-.28.13-.35c.11-.25.32-.42.45-.54.13-.1.2-.16.14-.1-.03.03-.11.11-.18.32-.1.36 0 .54 0 .6.05.1.02.03-.04-.06-.06-.12-.15-.2-.28-.59-.08-.27-.07-.57.02-.84.09-.2.23-.49.32-.7.08-.32.63-.75.77-.79.08-.03.06-.08-.11.17-.1.21-.05.2-.05.13.02-.08.02-.23.1-.5.08-.35.43-.72.66-.89.02-.01.02-.02.02 0-.01.02-.07.16-.06.17 0 .05.02-.03.04-.18.02-.13.06-.43.31-.76.36-.39.59-.47.6-.46.01-.01-.04.05.04-.04.12-.13.24-.19.35-.24.2-.08.32-.08.42-.09.19 0 .3.02.37.02.02 0 .06 0 .02.02-.02.02-.12.03-.26.2-.15.23-.1.29-.11.31 0 .02.02-.01.02-.04 0-.07 0-.18 0-.33 0-.08 0-.14999.01-.27999.02-.12.03-.30001.25-.53001.23-.23.6-.23.83 0s.23.6 0 .83c.15-.15.13-.22.15-.24.1.14.16.38.19.63 0 .13.03.31-.19.62-.36.39-.73.37-1.11.45 0 0 .01.02001.11-.00999.06-.02.13-.06001.22-.15001.06-.07 0 .01-.01.02l-.05.06c-.28.3-.45.43-.35.38.12-.16.11-.24.12-.15 0 .06.01.2-.04.46-.04.24-.23.54-.38.71-.09.1-.24.27001-.19.24001 0 0 .06-.11001.07-.13001.02-.06.01.00001 0 .13001-.02.14 0 .35-.21.75-.28.42999-.48.49999-.58.58999-.1.06-.15.12-.03.02.04-.04.13-.17.15-.24l-.01.03c-.06.15-.16.39-.23.54-.01.03-.02.05 0-.03.03-.08.04-.18.04-.25 0-.09 0-.19-.03-.27-.07-.19-.04-.09.02-.03.6.76.45 1.74-.38 2.31-.01 0-.01.02.04-.04.03-.03.05-.07.09-.14.02-.03.09-.24.07-.2l-.06.28-.06.28c-.02.1 0-.02 0-.08 0-.09 0-.17-.02-.22-.02-.1-.04-.13-.03-.11.12.19.3.54.3.94 0 .08-.01.27 0 .12.06.27.12.77-.02 1.09-.19.46-.34.55-.4.65-.07.06-.06.13.04-.12.03-.07.05-.17.05-.29.02.3-.17.82-.34 1.02-.03.04 0 0 .03-.07.07-.22.08-.19.02-.5-.11-.34-.31-.43-.25-.4.04.04.24.11.53.49.18.24.28.58.28.89 0 0-.05-.18.03.07.05.16.08.37.09.54.03.28-.08.72-.28.98-.1.21-.63.56-.6.53.04-.03.11-.09.2-.25.08-.13.12-.37.11-.44.02-.02-.06-.26-.07-.27 0-.02.25.42.27.73.05.42 0 .59-.05.93v.78c.01.02-.04-.18-.01-.09.2.51.25 1.06-.04 1.66-.19.31-.13.24-.06.06.02-.08.03-.14.03-.17 0 .02 0 .17-.01.27-.02.24-.13.54-.1.47 0-.07.01-.04 0 0 .03.16.09.47.08.65.01.1-.02-.21-.09-.29-.08-.11.17.19.27.57.05.18.06.35.06.47 0-.06 0-.14-.04-.25-.08-.22-.21-.31 0-.08.2.23.39.76.36 1.08.03.42-.32 1.04-.63 1.24-.46.31-.2.2-.03-.09.16-.32.16-.65-.02-.96-.07-.12-.16-.19-.17-.2-.04-.02.08.03.34.26.67.57.61 1.76.09 2.3-.14.17.07-.05.1-.26.03-.22.02-.15 0-.29-.01-.05-.04-.11-.02-.06.02.04.09.19.14.35.08.35.1.52.05.88-.04.37-.34.8-.33.78.02 0 .14-.31.12-.37.03.31.08.68.04 1.05-.06.34 0 .75 0 1.09.01 0-.05-.2 0-.05.22.58.19 1.33-.24 1.85-.22.24-.16.23-.03 0 .11-.31.12-.48-.04-.83-.21-.35-.34-.35-.26-.32 1.08.51 1.31 1.9.52 2.74 0 .04.2-.31.17-.49 0 .16.03.57.03.68.02-.06-.09-.38-.13-.4.24.23.44 1.04.38 1.23 0 .17-.06.52-.09.63-.01.06 0-.06 0 0 .02.08-.04.62-.21.9-.25.45.03-.05 0-.16.01.25-.09.71-.22.92-.06.11-.06.11-.03.06.05-.11.07-.21.06-.32.02-.11-.15-.45-.13-.38.37.38.56 1.46.16 2.05-.25.38-.34.45-.21.28.08-.12.13-.31.13-.45 0 .15-.02.45-.04.55-.02.08.01 1.1-.01.79 0-.03-.01-.04.02.06.07.19.12.53.12.74 0-.12-.03-.28-.1-.43-.17-.31-.29-.33-.13-.22.76.53.9 1.92.17 2.56-.3.29-.44.34-.42.34.01-.01.06-.04.16-.17.16-.21.29-.6.17-.87-.06-.13.14.25.19.57.05.34.02.58.02.9 0 .05.01.32-.01.04-.02-.2-.24-.48-.11-.31.28.29.45.96.41 1.46 0 .3 0 .79-.07 1.11-.01.14.04.41.04.6 0 .06 0 .22 0 .12.02-.07-.12-.4-.09-.32.36.45.41 1.54.06 2.07.01-.01.08-.24.06-.28 0 .1 0 .28-.05.46-.04.18-.12.38-.19.5s-.08.14-.05.09c.07-.11.09-.39.08-.3 0 .22.03.46.03.69 0-.06 0-.12-.02-.2-.03-.12-.09-.25-.14-.32-.12-.13.04-.01.28.39.22.46.28.8.15 1.34-.17.59-.59.88-.68.96-.14.09-.03.08.15-.23.08-.15.12-.33.12-.47 0-.01-.04-.17.05.17.09.51.04.81.07 1.25 0 .04-.02-.18-.06-.25-.04-.08.19.35.22.67.05.41.01.71-.08 1.05-.02.06 0 .03 0 0 0-.05 0-.05 0 .08 0 .35.02.78-.02 1.12-.01.11-.01.1-.01.18 0 .1-.01-.24-.11-.38-.12-.16.08.04.26.46.3.64-.03 1.65-.36 1.92.19-.22.25-.7.04-.99-.11-.12.13.09.3.53.08.2.11.42.11.58.02.31-.05.6-.05.82.07.56.13 1.1-.21 1.67-.19.29-.06.12 0-.07.02-.09.03-.16.02-.18v.14l.01.63c0 .07 0 .03.02.19s.03.37.03.47v-.02c.03.07.1.44.1.61v.14s0 0 0-.02c-.02-.07.06.22.08.45.04.35-.02.79-.23 1.13-.3.46-.56.56-.59.6-.07.05.16-.08.29-.46.09-.33.03-.58-.13-.83-.15-.19-.15-.16.08.05.1.1.26.3.36.54.11.23.14.53.14.67.01 0-.04-.23-.06-.26.02-.01.28.68.24.93.04.37-.21.97-.45 1.17-.33.33-.5.36-.57.42-.08.03 0 .06.24-.28.1-.14.16-.49.14-.51 0 .12-.02.38-.04.5l-.01.1v.06c0 .08 0-.02-.03-.17-.07-.3-.3-.5-.21-.41.39.28.71 1.04.61 1.55-.02.21-.1.47-.22.67-.25.39-.44.51-.34.42.1-.07.24-.52.21-.59.01 0-.05-.25-.06-.23.03.03.22.5.22.76v.19c.01-.06 0-.11 0-.18 0-.24-.53-.76-.04-.27.68.62.58 1.98-.18 2.49-.19.14-.25.2-.11.06.12-.12.28-.46.25-.68.02-.02-.07-.27-.02-.13.21.4.21 1.11.12 1.54 0 .08.01.03-.03-.12-.02-.07-.05-.12-.03-.08s.1.18.15.35c.09.38.16.51.02 1.1-.13.39-.25.51-.29.59-.06.06 0 .08.06-.28.05-.23-.12-.69-.26-.79.2.17.38.32.57.62.07.13.14.26.19.49.02.12.02.17.03.22.03.27-.1.78-.12.8-.03.08.01.06 0-.2-.01-.1 0-.01 0 0v.07l.03.14.04.28v.07c.06.2.06.47.05.63-.04.33 0 .27-.05.04.08.4.21.85.31 1.2-.15-.3-.22-.28-.17-.25.05.05.19.12.42.38.26.33.29.49.47.79.06.11.15.31.19.42.06.19.11.29.11.34 0 0-.02-.03-.01-.01l.08.15c.08.18.12.31.15.39.02.08.03.1 0 .07-.02 0 0 .05.06.12l.25.32.04.06s.03.04 0 .01c-.08-.12-.26-.2-.33-.23-.13-.04-.14-.02-.15-.01.27.07.89.22 1.13.55.12.25.21.5.3.77.23.6-.5 1.2-1.04.86z" fill="#000"/><g stroke-linecap="round" stroke-linejoin="round"><path d="m113.12 67.64c-.36 0-.36.03-.72.03s-.36-.1-.72-.1-.36-.35-.72-.35-.36-.06-.72-.06-.36-.08-.72-.08-.36.35-.72.35-.36-.22-.72-.22-.36.35-.72.35-.36.15-.72.15-.36-.21-.72-.21-.36.14-.72.14-.36-.46-.72-.46-.36.56-.72.56-.36-.23-.72-.23-.36.14-.72.14-.36-.05-.72-.05-.36-.45-.72-.45-.36.17-.72.17c-.3599 0-.3599.28-.7199.28s-.36.14-.72.14-.36-.04-.72-.04-.36-.41-.72-.41-.36.01-.72.01-.36-.03-.72-.03-.36.28-.72.28-.36-.16-.72-.16-.36-.21-.72-.21-.36.27-.72.27-.36-.38-.72-.38-.36.61-.72.61-.36.05-.72.05-.36-.25-.72-.25-.36-.15-.72-.15-.3599.23-.7199.23-.36.07-.72.07-.3601-.36-.7201-.36-.36.23-.72.23-.36-.33-.72-.33-.36-.09-.72-.09-.36.36-.72.36-.36.32-.72.32-.36-.11-.72-.11-.36-.12-.72-.12-.36.22-.72.22-.36-.62-.72-.62-.36.12-.72.12-.36.17-.72.17-.36-.06-.72-.06-.36.33-.72.33-.36-.16-.72-.16-.36-.11-.72-.11-.36-.08-.72-.08-.36.24-.72.24-.36.13-.72.13-.36-.36-.72-.36-.36-.24-.72-.24-.36-.03-.72-.03-.36.1-.72.1-.36.5-.72.5-.36-.06-.72-.06-.36.13-.72.13-.36-.41-.72-.41-.36.03-.72.03-.36.21-.72.21-.36-.16-.72-.16-.36.18-.72.18-.36.02-.72.02-.36-.17-.72-.17-.36-.09-.72-.09-.36-.29-.72-.29-.36.46-.72.46-.36-.07-.72-.07-.36.3-.72.3-.36-.23-.72-.23-.36-.44-.72-.44-.36.66-.72.66-.36-.41-.72-.41-.36.05-.72.05-.36.06-.72.06-.36.14-.72.14-.36-.18-.72-.18-.36-.04-.72-.04-.36-.22-.72-.22-.36.07-.72.07-.36-.07-.72-.07-.36.24-.72.24-.36.14-.72.14-.36-.44-.72-.44-.36.58-.72.58-.36-.26-.72-.26-.36.16-.73.16-.36-.34-.72-.34-.36.25-.72.25-.36-.19-.72-.19-.36-.17-.72-.17-.36.2-.72.2-.36.47-.73.47-.36 0-.73 0-.36 0-.73 0-.36-.65-.72-.65-.36 0-.72 0-.36.62-.72.62-.36-.38-.72-.38-.36.14-.72.14-.36.09-.73.09-.36 0-.73 0-.36-.27-.72-.27-.36-.18-.72-.18-.36-.02-.73-.02-.36.4-.73.4-.36-.21-.73-.21-.36.03-.73.03-.36.37-.73.37-.36.03-.73.03-.36-.14-.73-.14-.36-.31-.73-.31-.37-.16-.73-.16-.37.03-.73.03-.37.53-.73.53-.37.07-.73.07c-.26 0-.52-.23-.77-.28s-.5-.12-.74-.21-.57-.05-.78-.17-.07-.76-.26-.92-.85.14-1.01-.05-.28-.48-.41-.69.16-.64.07-.87-.33-.41-.38-.66.28-.5.28-.75c0-.36-.53-.36-.53-.72s-.06-.36-.06-.72.28-.36.28-.72-.34-.36-.34-.72.36-.36.36-.72 0-.36 0-.72.12-.36.12-.72.05-.36.05-.72-.37-.36-.37-.72.17-.36.17-.72-.09-.36-.09-.72.38-.36.38-.72-.48-.36-.48-.72.38-.36.38-.72-.41-.36-.41-.72.32-.36.32-.72-.18-.36-.18-.72.36-.36.36-.72.06-.36.06-.72-.32-.36-.32-.72-.21-.36-.21-.72-.07-.36-.07-.72.21-.36.21-.72.26-.36.26-.72.12-.36.12-.72-.11-.36-.11-.73-.43-.36-.43-.72.45-.36.45-.72.03-.36.03-.72-.32-.36-.32-.72.09-.36.09-.72.2-.36.2-.72-.47-.36-.47-.73.15-.36.15-.72.42-.36.42-.72-.42-.36-.42-.72.43-.36.43-.72-.32-.36-.32-.72-.06-.36-.06-.72.29-.36.29-.72-.58-.36-.58-.73.44-.36.44-.72-.28-.36-.28-.72.04-.36.04-.72.44-.36.44-.73-.06-.36-.06-.73-.59-.36-.59-.73.09-.36.09-.73.27-.36.27-.73-.27-.36-.27-.73.24-.36.24-.73.09-.36.09-.73-.02-.37-.02-.73-.38-.37-.38-.73.07-.37.07-.73c0-.26-.02-.56.03-.8s.33-.47.41-.7.38-.37.51-.58-.11-.71.05-.91.7-.03.89-.19.47-.12.69-.25.17-.8.41-.88.58.18.83.13.48-.11.74-.11c.36 0 .36.22.72.22s.36.07.72.07.36-.3.72-.3.36.09.72.09.36-.28.72-.28.36.48.72.48.36-.09.72-.09.36-.17.72-.17.36-.23.72-.23.36.45.72.45.36-.47.72-.47.36.11.72.11.36.4.72.4.36-.47.72-.47.36.21.72.21.36-.01.72-.01h.72c.36 0 .36-.38.72-.38s.36.6.72.6.36-.18.72-.18h.72c.36 0 .36.15.72.15s.36-.22.72-.22.36.13.72.13.36.05.72.05.36.02.72.02.36.04.72.04.36.1.72.1.36-.68.72-.68h.72c.36 0 .36.34.72.34s.36.21.72.21.36-.47.72-.47.36.23.72.23.36.38.72.38.36-.2.72-.2.36-.16.72-.16.36-.33.72-.33.36.68.72.68.36-.28.72-.28.36-.26.72-.26.36-.03.72-.03h.72c.36 0 .36.03.72.03s.36.34.72.34.36.2.72.2.36-.64.72-.64.36.14.72.14.36-.18.72-.18.36.47.72.47.36-.46.72-.46.36.5.72.5.36.11.72.11.36.07.72.07.36-.29.72-.29.36-.05.72-.05.36.13.72.13.36-.34.72-.34.36.12.72.12.36.31.72.31.36-.22.72-.22.36-.31.72-.31.36.62.72.62.36-.13.72-.13.36-.24.72-.24.36.23.72.23.36-.15.72-.15.36-.12.72-.12.36.37.72.37.36-.12.72-.12.36-.48.72-.48.36.06.72.06.36.61.72.61.36-.08.72-.08.36-.2.72-.2.36-.32.72-.32.36.55.72.55.36-.04.72-.04.36-.1.72-.1.3601-.31.7201-.31h.7199c.36 0 .36.33.72.33s.36-.21.72-.21.36.03.72.03.36-.07.72-.07.36-.25.72-.25.36.29.72.29.36-.29.72-.29.36.38.72.38.36-.08.72-.08.36.2.73.2.36-.17.72-.17.36-.16.72-.16.36-.17.72-.17.36.45.72.45.3601-.28.7201-.28.3599.49.7299.49.36-.61.73-.61.36.53.73.53.36-.16.72-.16.36-.41.72-.41.36.66.7199.66c.36 0 .36-.64.72-.64s.36-.03.72-.03.36.22.73.22.36.27.73.27.36-.22.72-.22.36.08.72.08.36.04.73.04.36.05.73.05.36.07.73.07.36-.39.73-.39.36.15.73.15.36-.22.73-.22.36-.05.73-.05.36.24.73.24.37-.11.73-.11.37.04.73.04.37-.02.73-.02.37.17.73.17c.26 0 .5.09.74.13s.51.04.74.13.4.32.61.44.48.17.67.33.42.3.58.49.21.46.34.68.37.38.46.62-.09.53-.04.78.08.47.08.72c0 .36.43.36.43.72s-.02.36-.02.72-.33.36-.33.72-.07.36-.07.72.11.36.11.72.25.36.25.72-.39.36-.39.72-.02.36-.02.72-.01.36-.01.72.52.36.52.72-.57.36-.57.72v.72c0 .36-.04.36-.04.72s.4.36.4.72.07.36.07.72.02.36.02.72-.56.36-.56.72.59.36.59.72-.58.36-.58.72.2.36.2.72-.08.36-.08.72-.09.36-.09.72.31.36.31.72v.72c0 .36.04.36.04.72s.12.36.12.73-.05.36-.05.72.09.36.09.72v.72c0 .36-.35.36-.35.72s.41.36.41.72-.1.36-.1.72-.27.36-.27.73-.19.36-.19.72.38.36.38.72-.25.36-.25.72-.11.36-.11.72.41.36.41.72.06.36.06.72-.12.36-.12.72.02.36.02.73.05.36.05.72-.24.36-.24.72.4.36.4.72-.65.36-.65.73.28.36.28.73.31.36.31.73.01.36.01.73.05.36.05.73-.44.36-.44.73.46.36.46.73-.25.36-.25.73-.18.37-.18.73.07.37.07.73.1.37.1.73c0 .26-.35.46-.39.71s-.11.45-.19.68.33.72.2.93-.57.25-.73.44-.12.63-.31.79-.47.3-.69.42-.5.2-.74.29-.61-.37-.86-.32-.44.62-.7.62z" stroke="#000" stroke-width="2.6"/><path d="m26.0899 11.16c0 .25-.12.49-.23.69s-.37.25-.58.37-.36.6-.61.6-.34-.59-.55-.71-.78.1-.9-.11.04-.58.04-.84.31-.36.43-.56-.08-.78.13-.9.59.08.85.08.43.17.63.29.37.24.49.45.3.4.3.65z" stroke="#000" stroke-width="2.6"/><path d="m26.0202 74.52c0 .25-.02.51-.14.71s-.21.57-.42.7-.56.25-.81.25-.4-.49-.61-.61-.63-.05-.75-.26.31-.53.31-.78-.19-.44-.07-.65.32-.25.53-.37.34-.46.59-.46.52.1.73.22.3.39.42.6.22.41.22.66z" stroke="#000" stroke-width="2.6"/><path d="m116.68 10.85c0 .25-.55.33-.67.53s.15.84-.06.97-.61-.07-.87-.07-.46-.17-.66-.29-.53-.17-.65-.38.24-.51.24-.76-.51-.65-.4-.85.54-.26999.75-.39999.47.18999.72.18999.38-.06999.58.05001.37.17999.49.38999.51.37.51.62z" stroke="#000" stroke-width="2.6"/><path d="m116.24 74.52c0 .25.02.41-.09.61s-.11.55-.32.68-.49.15-.74.15-.43-.23-.63-.35-.29-.28-.41-.49-.07-.35-.07-.6-.25-.51-.13-.72.28-.47.49-.59.5-.41.76-.41.55.3.75.42.51.29.64.5-.24.55-.24.8z" stroke="#000" stroke-width="2.6"/><path d="m42.1702 34.5c0 .36-.64.36-.64.72s.25.36.25.72.19.36.19.72-.1.36-.1.72-.38.36-.38.72.39.36.39.72-.23.36-.23.71.51.36.51.71-.3.36-.3.71-.23.36-.23.72.41.36.41.72-.51.36-.51.72.21.36.21.72.04.36.04.72.25.36.25.72.03.36.03.72-.35.36-.35.72-.18.36-.18.72.55.36.55.72-.31.36-.31.72.22.36.22.72-.29.36-.29.72-.2.36-.2.72.37.36.37.73-.37.36-.37.73" stroke="#78ff91" stroke-width="4"/><path d="m33.9199 39.22c.31.18.43-.03.74.14s.15.46.47.63.45-.07.77.1.23.32.54.5.45-.07.76.1.25.28.56.46.36.08.67.26.15.46.46.64.39.03.7.21.17.43.48.61.52-.19.83-.01.41 0 .72.18.13.51.44.68.41 0 .73.17.42-.02.74.16.02.7.33.88.39.03.71.21.28.24.6.41.55-.25.87-.07.03.67.35.85.36.09.67.27.25.28.57.46.31.18.63.36.61-.34.92-.16.28.25.59.43" stroke="#78ff91" stroke-width="4"/><path d="m49.6201 39.02c-.31.18-.24.31-.55.49s-.24.31-.55.48-.61-.35-.92-.17-.3.2-.61.38-.13.5-.44.67-.39.03-.7.21-.1.54-.41.72-.59-.32-.9-.14-.05.63-.36.81-.33.15-.64.33-.56-.27-.88-.09-.06.62-.38.79-.46-.09-.77.09-.23.32-.55.49-.42 0-.73.17-.13.5-.45.67-.46-.08-.77.1-.24.31-.55.49-.25.29-.56.47-.31.18-.62.36-.51-.16-.82.01-.16.45-.48.63-.48-.11-.79.07-.37.08-.69.26-.29.22-.61.4" stroke="#78ff91" stroke-width="4"/><path d="m69.8303 34.5c0 .36.05.36.05.72s-.14.36-.14.72-.23.36-.23.72-.06.36-.06.72.28.36.28.72.12.36.12.72-.03.36-.03.71-.45.36-.45.71.23.36.23.71-.31.36-.31.72.47.36.47.72-.36.36-.36.72.4.36.4.72-.25.36-.25.72-.13.36-.13.72-.16.36-.16.72.19.36.19.72.2.36.2.72-.12.36-.12.72-.06.36-.06.72.1.36.1.72-.24.36-.24.72.55.36.55.72-.16.36-.16.73-.29.36-.29.73" stroke="#78ff91" stroke-width="4"/><path d="m61.8203 38.98c.31.18.36.09.67.26s.17.43.48.61.28.24.59.41.27.25.58.42.52-.2.83-.03.36.08.67.26 0 .72.31.89.37.08.68.25.27.25.58.43.52-.19.83-.01.33.15.64.33.2.38.51.56.32.16.63.34.45-.06.76.12.08.58.4.76.38.05.7.23.23.32.55.5.41.01.72.19.44-.05.75.13.1.56.41.73.55-.23.86-.06.38.06.69.24.15.48.46.66.18.41.5.59.58-.28.89-.11" stroke="#78ff91" stroke-width="4"/><path d="m77.4299 39.1c-.31.18-.2.37-.51.55s-.47-.1-.78.07-.42-.02-.74.16-.29.22-.6.39-.04.66-.35.83-.53-.22-.84-.04-.22.33-.53.51-.43-.04-.74.13-.12.52-.43.69-.24.3-.56.48-.37.07-.69.25-.43-.03-.74.15-.2.37-.52.54-.55-.25-.87-.07-.3.21-.61.38-.18.41-.49.59-.27.24-.59.42-.2.38-.52.55-.6-.33-.92-.16-.07.61-.38.79-.27.26-.58.44-.47-.1-.79.08-.48-.11-.79.07-.07.61-.39.79-.47-.09-.78.09" stroke="#78ff91" stroke-width="4"/><path d="m97.34 34.5c0 .36-.32.36-.32.72s.5.36.5.72-.12.36-.12.72-.33.36-.33.72.55.36.55.72-.51.36-.51.72.28.36.28.71-.19.36-.19.71.17.36.17.71-.27.36-.27.72.09.36.09.72.07.36.07.72v.72c0 .36.32.36.32.72s-.42.36-.42.72.52.36.52.72-.6.36-.6.72-.05.36-.05.72.07.36.07.72.09.36.09.72-.15.36-.15.72.51.36.51.72-.2.36-.2.72.24.36.24.73.1.36.1.73" stroke="#78ff91" stroke-width="4"/><path d="m89.54 39.05c.31.18.3.2.61.37s.42-.02.73.16.16.44.48.62.51-.17.82 0 0 .72.31.9.55-.26.86-.08.25.27.56.45.21.36.52.54.27.25.58.43.51-.17.82 0 .21.36.53.53.34.13.65.31.21.36.52.53.45-.07.77.1.27.25.59.42.16.44.48.62.45-.07.77.11.2.39.51.57.43-.03.75.14.33.16.64.33.32.16.64.33.19.4.51.57.54-.23.86-.05.04.67.36.84.6-.33.92-.15" stroke="#78ff91" stroke-width="4"/><path d="m105.12 38.96c-.31.18-.41 0-.73.17s-.05.64-.36.82-.34.13-.65.31-.28.23-.6.4-.39.04-.7.22-.49-.15-.8.02-.16.45-.47.62-.36.09-.67.26-.36.08-.68.26-.08.59-.39.77-.31.19-.62.37-.52-.19-.83-.02-.07.6-.39.77-.44-.05-.75.13-.49-.13-.8.04-.25.29-.56.47-.1.56-.41.74-.35.11-.67.29-.37.07-.69.25-.48-.11-.79.06-.22.34-.53.52-.14.49-.45.67-.48-.11-.79.07-.34.14-.65.32-.36.1-.68.28" stroke="#78ff91" stroke-width="4"/></g></svg>