<svg fill="none" height="95" viewBox="0 0 123 95" width="123" xmlns="http://www.w3.org/2000/svg"><path d="m69.4901 11.33c-.36 0-.36-.38-.71-.38s-.3601.22-.7101.22-.3499-.19-.7099-.19-.36-.08-.71-.08-.3601-.17-.7101-.17-.3599.24-.7199.24-.36.32-.72.32-.36-.5-.71-.5-.36-.04-.71-.04-.36.16-.72.16-.36.14-.72.14-.36-.29-.72-.29-.36.26-.72.26-.36.25-.72.25-.36-.52-.72-.52-.36.25-.72.25-.3601-.13-.7201-.13-.3599.24-.7199.24-.36.25-.72.25-.36-.41-.72-.41-.3601-.14-.7201-.14c-.22 0-.5299.39-.7199.31s-.23-.48-.38-.63-.23-.32-.31-.50999c-.08-.19.06-.37.06-.59h-.38c0-.24-.02-.49001 0-.73001s.25-.45.3-.69.21-.43.28-.66 0-.49.08-.72.0901-.48999.1901-.69999.0499-.54002.1699-.74002.51-.25.65-.44.35-.32.51-.5.3601-.29999.5401-.45999.1599-.55001.3499-.70001.4401-.21.6501-.34.4599-.14998.6799-.25998.32-.48001.54-.57001.62.35999.85.29999.4-.30997.63-.34997.4401-.28002.6801-.30002.4799.14999.7299.14999c.35 0 .35.22.7.22s.3499-.5.6999-.5.3501.25.7001.25.35-.14999.7-.14999c.24 0 .46.35.7.37s.48-.07998.71-.03998.41.28998.63.35998.4501.07001.6801.16001.6399-.26.8499-.15.27.50999.47.63999.33.34001.52.48001.53.10001.71.26001.26.41997.42.59997.3.36002.45.55002.16.45.28.66.6.21.7.43-.14.57999-.05.80999.52.33.59.56-.35.56999-.3.79999c.0499.23.56.40002.58.64001.02.24-.12.5-.12.74h-.04c0 .22.0199.47001-.0501.67-.07.2-.4099.23-.5599.38s-.33.11-.53.19-.29.73-.51.73z" fill="#fff"/><path d="m69.4901 11.33c-.36 0-.36-.38-.71-.38s-.3601.22-.7101.22-.3499-.19-.7099-.19-.36-.08-.71-.08-.3601-.17-.7101-.17-.3599.24-.7199.24-.36.32-.72.32-.36-.5-.71-.5-.36-.04-.71-.04-.36.16-.72.16-.36.14-.72.14-.36-.29-.72-.29-.36.26-.72.26-.36.25-.72.25-.36-.52-.72-.52-.36.25-.72.25-.3601-.13-.7201-.13-.3599.24-.7199.24-.36.25-.72.25-.36-.41-.72-.41-.3601-.14-.7201-.14c-.22 0-.5299.39-.7199.31s-.23-.48-.38-.63-.23-.32-.31-.50999c-.08-.19.06-.37.06-.59h-.38c0-.24-.02-.49001 0-.73001s.25-.45.3-.69.21-.43.28-.66 0-.49.08-.72.0901-.48999.1901-.69999.0499-.54002.1699-.74002.51-.25.65-.44.35-.32.51-.5.3601-.29999.5401-.45999.1599-.55001.3499-.70001.4401-.21.6501-.34.4599-.14998.6799-.25998.32-.48001.54-.57001.62.35999.85.29999.4-.30997.63-.34997.4401-.28002.6801-.30002.4799.14999.7299.14999c.35 0 .35.22.7.22s.3499-.5.6999-.5.3501.25.7001.25.35-.14999.7-.14999c.24 0 .46.35.7.37s.48-.07998.71-.03998.41.28998.63.35998.4501.07001.6801.16001.6399-.26.8499-.15.27.50999.47.63999.33.34001.52.48001.53.10001.71.26001.26.41997.42.59997.3.36002.45.55002.16.45.28.66.6.21.7.43-.14.57999-.05.80999.52.33.59.56-.35.56999-.3.79999.56.40001.58.64001-.12.5-.12.74h-.04c0 .22.0199.47001-.0501.67-.07.2-.4099.23-.5599.38s-.33.11-.53.19-.29.73-.51.73z" stroke="#000" stroke-linecap="round" stroke-linejoin="round" stroke-width="2.6"/><path d="m9.31982 59.26c0-.35.39002-.35.39002-.71s.06006-.35.06006-.71-.26001-.35-.26001-.71.23999-.35.23999-.71-.31006-.35-.31006-.71-.28992-.35-.28992-.71.37-.35.37-.7-.12-.35-.12-.7.03992-.35.03992-.71-.22998-.35-.22998-.71.01001-.36.01001-.71.08008-.35.08008-.71.26001-.35.26001-.71-.34009-.35-.34009-.71.40002-.36.40002-.71-.47998-.36-.47998-.71.19995-.36.19995-.71 0-.36 0-.71-.16992-.36-.16992-.71.2699-.36.2699-.71 0-.35 0-.71-.2699-.36-.2699-.71-.04004-.36-.04004-.71.51001-.36.51001-.72-.31006-.36-.31006-.72c0-.22.2-.49.12-.68s-.28994-.37-.43994-.52-.27998-.45-.47998-.53-.49997.45-.71997.45c-.34 0-.34006-.52-.68006-.52s-.34005.5-.68005.5-.33993-.1-.67993-.1c-.26 0-.46008.01-.70008.06s-.6699-.42-.8999-.32-.32003.53-.53003.67-.49003.22-.66003.39-.00002.63-.14002.84-.60996.22-.70996.45.13997.55.08997.8-.13001.45-.13001.71c0 .35-.41992.35-.41992.7s.05994.35.05994.7.44006.35.44006.7-.54004.35-.54004.7.54004.35.54004.7-.45007.35-.45007.7.11999.35.11999.7.23999.35.23999.7-.44995.35-.44995.7.06995.35.06995.7-.03992.35-.03992.7.54993.35.54993.7v.7c0 .35-.42993.35-.42993.7s.14001.35.14001.7-.01001.35-.01001.71.14002.35.14002.71-.31006.35-.31006.71.32007.35.32007.71c0 .26.02995.48.07995.72s.05002.49.14002.72-.01.59.13.8.52995.23.69995.41.13998.65.34998.79.58006.05.81006.14.5.03.75.08.46998.37.72998.37c.34 0 .34005-.52.68005-.52s.33993.53.67993.53.34006-.35.68006-.35c.22 0 .41998.08.60998 0s.58999.02.73999-.13.07003-.53.15003-.73.02002-.4.02002-.62z" fill="#fff"/><path d="m9.31982 59.26c0-.35.39002-.35.39002-.71s.06006-.35.06006-.71-.26001-.35-.26001-.71.23999-.35.23999-.71-.31006-.35-.31006-.71-.28992-.35-.28992-.71.37-.35.37-.7-.12-.35-.12-.7.03992-.35.03992-.71-.22998-.35-.22998-.71.01001-.36.01001-.71.08008-.35.08008-.71.26001-.35.26001-.71-.34009-.35-.34009-.71.40002-.36.40002-.71-.47998-.36-.47998-.71.19995-.36.19995-.71 0-.36 0-.71-.16992-.36-.16992-.71.2699-.36.2699-.71 0-.35 0-.71-.2699-.36-.2699-.71-.04004-.36-.04004-.71.51001-.36.51001-.72-.31006-.36-.31006-.72c0-.22.2-.49.12-.68s-.28994-.37-.43994-.52-.27998-.45-.47998-.53-.49997.45-.71997.45c-.34 0-.34006-.52-.68006-.52s-.34005.5-.68005.5-.33993-.1-.67993-.1c-.26 0-.46008.01-.70008.06s-.6699-.42-.8999-.32-.32003.53-.53003.67-.49003.22-.66003.39-.00002.63-.14002.84-.60996.22-.70996.45.13997.55.08997.8-.13001.45-.13001.71c0 .35-.41992.35-.41992.7s.05994.35.05994.7.44006.35.44006.7-.54004.35-.54004.7.54004.35.54004.7-.45007.35-.45007.7.11999.35.11999.7.23999.35.23999.7-.44995.35-.44995.7.06995.35.06995.7-.03992.35-.03992.7.54993.35.54993.7v.7c0 .35-.42993.35-.42993.7s.14001.35.14001.7-.01001.35-.01001.71.14002.35.14002.71-.31006.35-.31006.71.32007.35.32007.71c0 .26.02995.48.07995.72s.05002.49.14002.72-.01.59.13.8.52995.23.69995.41.13998.65.34998.79.58006.05.81006.14.5.03.75.08.46998.37.72998.37c.34 0 .34005-.52.68005-.52s.33993.53.67993.53.34006-.35.68006-.35c.22 0 .41998.08.60998 0s.58999.02.73999-.13.07003-.53.15003-.73.02002-.4.02002-.62z" stroke="#000" stroke-linecap="round" stroke-linejoin="round" stroke-width="2.6"/><path d="m109.88 11.23c-.35 0-.35-.1-.71-.1s-.36.15-.71.15-.35-.26-.71-.26-.35-.26-.71-.26-.35.02-.71.02-.36.52-.71.52-.36.02-.71.02-.36-.59-.71-.59-.36.38-.71.38-.36.14-.71.14-.36-.47-.71-.47-.35.31-.71.31-.36-.36-.71-.36-.36.56-.7102.56c-.35 0-.36-.06-.72-.06s-.3599-.35-.7199-.35-.36.26-.72.26-.36.16-.72.16-.3601-.09-.7201-.09-.3599-.34-.7199-.34-.36.34-.72.34-.36.04-.72.04-.3601-.41-.7201-.41-.3599-.03-.7199-.03-.36.22-.72.22-.36-.26-.72-.26-.3601.55-.7201.55-.3599-.25-.7199-.25-.36-.06-.72-.06-.36.24-.72.24-.3601-.58-.7201-.58-.3599.43-.7199.43-.36.2-.72.2-.36-.47-.72-.47-.3601-.11-.7201-.11-.3599.56-.7199.56-.36-.45-.72-.45-.36.03-.72.03-.3601.02-.7201.02-.36.06-.72.06-.3599-.28-.7199-.28-.36.09-.72.09-.36.54-.72.54-.3601-.59-.7201-.59-.3599.17-.7199.17-.36-.02-.72-.02-.36.29-.72.29-.3601.19-.7201.19-.3599-.2-.7199-.2-.36.18-.72.18-.36-.32-.72-.32-.3601-.24-.7201-.24-.3599.3-.7199.3-.36-.1-.72-.1-.36.33-.72.33-.3601-.24-.7201-.24-.3599-.25-.7199-.25-.36.44-.72.44-.36.02-.72.02-.3601.05-.7201.05-.3599-.48-.7199-.48-.36.16-.72.16-.36.29-.72.29-.3601-.59-.7201-.59-.36.58-.72.58-.3599-.35-.7199-.35-.36.2-.72.2-.36-.34-.72-.34-.3601.33-.7201.33-.3599-.12-.7199-.12-.36-.29-.72-.29-.36.25-.72.25-.3601.35-.7201.35-.3599-.27-.7199-.27-.36.21-.72.21-.36-.36-.72-.36-.3601-.19-.7201-.19-.3599.39-.7199.39-.36-.08-.72-.08-.36.23-.72.23-.3601-.36-.7201-.36-.3599-.09-.7199-.09-.36.13-.72.13-.36.32-.72.32-.3601-.16-.7201-.16-.3599-.07-.7199-.07-.36-.12-.72-.12-.36-.05-.72-.05-.3601.43-.7201.43-.36-.32-.72-.32-.3599-.05-.7199-.05-.36-.08-.72-.08-.36.22-.73.22-.3601-.13-.7201-.13-.3599-.02-.7199-.02-.36.45-.72.45-.36-.28-.72-.28-.3601-.06-.7201-.06-.36-.24-.73-.24-.3599.56-.7299.56-.36-.28-.73-.28-.36.13-.72.13-.36-.08-.73-.08-.3601-.17-.7201-.17-.3599.22-.7199.22-.36-.4-.72-.4-.36.22-.73.22-.3601-.15-.7301-.15-.36.44-.72.44-.3599-.18-.7199-.18-.36-.19-.73-.19-.36.22-.73.22-.36-.18-.73-.18-.3601.31-.7301.31-.3599-.04-.7299-.04-.36-.28-.73-.28-.36-.21-.73-.21-.36.32-.73.32-.37.08-.73.08-.3701.2-.7301.2-.37-.52-.73-.52-.3699.22-.7299.22c-.32 0-.3201.27-.6501.27s-.32-.6-.65-.6c-.25 0-.49.38-.73.39s-.53-.32-.77-.29-.4099.54-.6499.58-.58-.3-.81-.23-.36.52-.59.6-.43.22-.65.31-.5801-.09-.7901.01-.41.28-.62.4-.4799.16-.6899.3-.16.61-.35.76-.36.3-.54.46-.58.08-.76.25-.34.36-.5.54-.47.26-.62.45-.23.45-.36.66-.36.37-.48.58.09.61-.02.83-.16.45-.25.68-.03.49-.1.73-.61003.32-.67003.55.15998.54.10998.78-.28994.44-.31994.69-.18008.48-.20008.73.12.5.12.75c0 .32.17004.32.17004.65s.10999.32.10999.65c0 .36-.13001.36-.13001.72s-.27002.36-.27002.72.33008.36.33008.72.16992.36.16992.72-.63.36-.63.72.20007.36.20007.72.32996.36.32996.72-.03003.36-.03003.72-.5199.36-.5199.72.15991.36.15991.72.45008.36.45008.72-.03003.36-.03003.72-.42005.36-.42005.72.09009.36.09009.72.12.36.12.72-.09009.36-.09009.72-.06995.36-.06995.72.16004.36.16004.72.29992.36.29992.72v.72c0 .36-.06994.36-.06994.72s-.16004.36-.16004.72-.08996.36-.08996.72.33996.36.33996.72-.32995.36-.32995.72-.19007.36-.19007.72.21009.36.21009.72-.17005.36-.17005.72-.20007.36-.20007.72.52002.36.52002.72-.46997.36-.46997.72.04004.36.04004.72.22998.36.22998.72.11999.36.11999.72.02002.36.02002.72.03992.36.03992.72-.21997.36-.21997.72.09009.36.09009.72-.33008.36-.33008.72.27002.36.27002.72.20996.36.20996.72.13.36.13.72-.32995.36-.32995.72-.14002.36-.14002.72.38001.36.38001.72.07995.36.07995.72-.3999.36-.3999.72.16992.36.16992.72.23999.36.23999.72-.11999.36-.11999.73-.51001.36-.51001.72.08008.36.08008.72.46997.36.46997.72.05993.36.05993.72-.01989.36-.01989.72-.48999.36-.48999.72.47998.36.47998.73-.45008.36-.45008.72.06006.36.06006.72.04993.36.04993.72.28003.36.28003.72.04004.36.04004.72-.20008.36-.20008.72-.30993.36-.30993.72-.08997.36-.08997.73.43994.36.43994.72-.30993.36-.30993.72-.12.36-.12.72.43994.36.43994.73-.09997.36-.09997.73-.03003.36-.03003.73.17004.36.17004.73.18994.36.18994.73-.15002.36-.15002.73-.09998.36-.09998.73.21009.36.21009.73-.58008.37-.58008.73.40002.37.40002.73-.44995.37-.44995.73c0 .32.20996.32.20996.65s.02002.32.02002.65c0 .25-.23998.51-.22998.75s.12991.5.15991.74.33001.45.38001.69.36005.41.43005.64-.11.53-.03.76.18.45.27.68.31.39.41.61-.04.57.09.78.48.27.62.47-.1.68.05.87.59.16.75.34.08.61.25.78.54.15.72.31.41.27.6.42.55.05.75.19.2499.5.4599.62.4201.24.6401.35.33.47.56.56.46.2.7.28.54-.05.77.01.48.08.72.13.4699.16.7099.19.51-.23.75-.22.4701.35.7201.35c.32 0 .32.07.65.07s.3199-.08.6499-.08c.36 0 .3601-.34.7201-.34s.36.44.72.44.36-.28.72-.28.3599.31.7199.31h.7201c.36 0 .36-.38.72-.38s.36.43.72.43.3599-.32.7199-.32.36-.27.72-.27.3601.13.7201.13.36.21.72.21.36-.06.72-.06.3599-.13.7199-.13h.7201c.36 0 .36.44.72.44s.36-.31.72-.31.3599-.21.7199-.21.3601.32.7201.32.36-.2.72-.2.36.02.72.02.3599.15.7199.15.3601-.35.7201-.35.36.25.72.25.36.32.72.32.3599-.25.7199-.25.3601.06.7201.06.36-.45.72-.45.36.47.72.47.3599-.09.7199-.09.3601-.2.7201-.2.36.19.72.19.36.23.72.23.3599-.55.7199-.55.36-.06.72-.06.3601.08.7201.08.36.35.72.35.36.23.72.23.3599-.21.7199-.21.3601-.1.7201-.1.36.29.72.29.36-.12.72-.12.3599-.45.7199-.45.3601.07.7201.07.36-.08.72-.08.36.16.72.16.3599.28.7199.28.3601-.15.7201-.15.36.18.72.18.36-.04.72-.04.3599.07.7199.07.3601-.54.7201-.54.36.14.72.14.36-.14.72-.14.3599.39.7199.39.3601-.26.7201-.26.36.24.72.24.36-.1.72-.1.3599.28.7199.28.36.04.72.04.3601-.11.7201-.11.36-.01.72-.01.36-.44.72-.44.3599.06.7199.06.3601.17.7201.17.36.01.72.01.36-.11.72-.11.3599.21.7199.21.3601-.37.7201-.37.36-.03.72-.03.36.27.72.27.3599-.26.7199-.26.3601.19.7201.19.36-.08.72-.08.36.41.72.41.3599-.16.7199-.16.3601.05.7201.05.36.2.73.2.36-.65.72-.65.36.53.72.53.3599-.29.7199-.29.3601.18.7201.18.36.11.72.11.36-.11.73-.11.3599.12.7299.12c.3701 0 .36-.39.73-.39s.3601-.12.7201-.12.36.49.73.49.36-.08.72-.08.3599.05.7199.05.3601-.22.7201-.22.36.25.73.25.36-.1.73-.1.36-.05.72-.05.3599-.36.7199-.36.36.39.73.39.3601-.35.7301-.35.36.53.73.53.36-.19.73-.19.36.1.73.1.3599.09.7299.09.36-.14.73-.14.3601.23.7301.23.37-.63.73-.63.37.01.73.01.37.02.73.02.3699.32.7299.32.3501-.05.7101-.05.36-.16.71-.16c.3501 0 .3501-.15.7101-.15s.35.45.71.45.35-.08.71-.08.36-.34.71-.34.36.2.71.2.36.33.71.33.36-.13.71-.13.36-.18.71-.18.36-.09.71-.09.35.47.71.47.36.02.71.02.36-.63.71-.63.36.25.72.25.36.05.72.05c.25 0 .5.12.74.1s.5.03.74 0 .41-.53.64-.58.49.03.73-.03.54.09.77.01.49-.1.72-.19.42-.27.64-.38.43-.24.64-.36.51-.13.71-.26.14-.63.34-.78.55-.09.73-.25.1-.6.27-.77.36-.3.52-.48.7-.06.85-.25.37-.36.5-.56.07-.54.19-.76.12-.49.23-.7.48-.32.58-.55-.37-.65-.29-.89.69-.29.76-.53.21-.47.26-.71-.54-.58-.51-.82.25-.45.27-.69.06-.48.06-.72c0-.36.03-.36.03-.72s-.07-.36-.07-.72.29-.36.29-.72-.27-.36-.27-.72-.18-.36-.18-.72.04-.36.04-.72.26-.36.26-.72-.13-.36-.13-.72.07-.36.07-.72.05-.36.05-.72.33-.36.33-.72-.15-.36-.15-.72-.23-.36-.23-.72.14-.36.14-.72-.36-.36-.36-.72.11-.36.11-.72-.18-.36-.18-.72.15-.36.15-.72-.08-.36-.08-.71.6-.36.6-.71-.03-.36-.03-.71-.35-.36-.35-.72-.25-.36-.25-.72.03-.36.03-.72.22-.36.22-.72-.28-.36-.28-.72.36-.36.36-.72.3-.36.3-.72-.67-.36-.67-.72.36-.36.36-.72.12-.36.12-.72 0-.36 0-.72.06-.36.06-.72-.19-.36-.19-.72.04-.36.04-.72.17-.36.17-.72-.31-.36-.31-.72 0-.36 0-.72.3-.36.3-.72-.48-.36-.48-.72.2-.36.2-.72.25-.36.25-.72.13-.36.13-.72-.23-.36-.23-.72-.37-.36-.37-.72.03-.36.03-.72.19-.36.19-.72-.05-.36-.05-.72.4-.36.4-.72-.12-.36-.12-.72.05-.36.05-.72-.22-.36-.22-.72-.14-.36-.14-.72.48-.36.48-.72-.2-.36-.2-.72-.32-.36-.32-.72-.07-.36-.07-.72-.04-.36-.04-.72.35-.36.35-.72-.38-.36-.38-.72.59-.36.59-.72-.62-.36-.62-.72.31-.36.31-.72.37-.36.37-.72-.66-.36-.66-.72.3-.36.3-.72.29-.36.29-.72-.46-.36-.46-.72-.11-.36-.11-.72.2-.36.2-.72.32-.36.32-.72.06-.36.06-.72-.3-.36-.3-.72-.19-.36-.19-.72.02-.36.02-.72.26-.36.26-.73.16-.36.16-.72 0-.36 0-.72-.3-.36-.3-.72.06-.36.06-.73.11-.36.11-.73-.38-.36-.38-.73.27-.36.27-.73c0-.25.18-.5.17-.74s-.54-.43-.57-.67.4-.55.35-.79-.05-.5-.11-.74-.63-.31-.71-.54.31-.63.22-.86-.64-.24-.75-.46.06-.58-.06-.79-.25-.42-.38-.62-.08-.55-.23-.74-.66-.09-.82-.27-.19-.48-.37-.65-.33-.36-.52-.52-.47-.19-.66-.34-.25-.49-.45-.62-.53-.07-.74-.2-.48-.1-.7-.21-.27-.58-.49-.67-.6.23-.83.15-.44-.15-.68-.21-.35-.65-.59-.7-.55.35-.79.32-.47-.08-.71-.1-.47.04-.72.04z" fill="#fff"/><path d="m18.2799 89.63c-2.34 0-4.93-.09-6.61-1.53 1.56 2.27 4.3699 3.7 7.2799 4.37s5.9601.66 8.9701.65c25.37-.07 50.74-.15 76.1101-.22 1.17 0 2.4-.02 3.42-.52.67-.33 1.74-1.35 1.31-2.12-.53-.95-2.62-.57-3.59-.57-3.17 0-6.3501 0-9.5201 0h-18.62c-12.55-.02-25.1-.03-37.66-.04-7.03 0-14.07 0-21.1-.01z" fill="#cebefd"/><path d="m116.07 18.5c-.24 0-.47-.08-.71-.08s-.47-.07-.71-.08-.48.06-.71.05-.47-.19-.7-.2-.47-.13-.71-.15-.5.44-.73.43-.48.14-.72.13-.45-.63-.69-.64-.48-.02-.71-.03-.74.11-.98.1c.11.21.76.44.86.65.11.22-.09.58 0 .81s.12.47.21.7.51.34.59.57-.12.56-.06.79.2.45.27.68-.16.54-.11.77.58.38.63.62.13.48.17.72.02.5.05.74.1.48.13.73.01.49.03.74-.11.5-.09.74 0 .49.01.73.02.49.02.73.13.48.14.73-.45.49-.44.74.61.48.61.73-.03.49-.03.73-.45.48-.45.73.44.5.44.74-.33.48-.34.72.35.49.35.74-.65.47-.66.72.29.49.29.74.12.49.12.73-.3.49-.3.73.47.48.47.73-.24.49-.24.73.04.48.05.73-.36.5-.35.74.23.47.24.72-.15.49-.14.73.26.48.27.72-.07.49-.07.73.31.48.31.72-.29.49-.29.73.42.49.42.73-.37.48-.37.73-.14.48-.14.73-.05.48-.05.73-.08.48-.08.73-.03.48-.03.73.47.5.46.74-.34.48-.34.72.24.49.24.73-.32.48-.33.72.16.49.15.73.29.49.28.73-.5.47-.51.72.55.5.55.74-.62.47-.62.72.3.49.3.73.12.49.12.73-.42.48-.42.73.57.48.58.73-.06.48-.06.73-.51.49-.51.73.23.48.23.72-.07.49-.06.73.12.48.13.72-.23.5-.22.74.29.47.3.71-.07.49-.05.73.05.48.07.72-.2.5-.18.74.12.47.13.71.52.45.54.69 0 .48 0 .73-.19.49-.18.73-.06.49-.05.73-.17.49-.16.73.53.47.53.71-.1.49-.09.73-.2.49-.2.73-.19.48-.19.72.44.49.44.73-.14.48-.15.72.24.5.23.74-.46.46-.47.7 0 .48-.02.72.32.52.29.76-.03.49-.06.73-.27.45-.31.69-.04.49-.08.72-.41.41-.46.65.35.57.3.8-.58.35-.64.59.13.54.07.77-.09.48-.16.71-.3.4-.39.63-.35.37-.45.59-.12.47-.22.68.16.62.05.83-.28.4-.41.61-.23.43-.36.63-.65.13-.79.33.01.61-.14.8-.32.37-.48.54-.59.09-.76.27-.14.53-.32.7-.55.08-.74.24-.32.35-.52.49-.35.32-.55.45-.41.23-.62.36-.14.72-.35.84-.68-.27-.9-.16-.44.16-.66.26-.39.29-.62.38-.42.51-.65.59c.35.06.39.15.75.15s.36-.31.72-.31.36.3.72.3.36-.37.72-.37.36-.14.72-.14.36.23.72.23.36.09.72.09.36-.48.72-.48.36.18.72.18.36.25.72.25.36-.05.72-.05.36.28.73.28.36-.1.73-.1c.25 0 .48-.35.72-.36s.45-.25.69-.28.53.28.77.23.54.13.77.06.45-.24.68-.31.54 0 .76-.1.19-.76.41-.87.7.27.91.15.14-.7.34-.83.37-.29.56-.44.71.1.9-.06 0-.71.17-.88.66-.04.82-.22.04-.59.19-.79.52-.23.65-.43.4-.34.52-.55.21-.45.32-.67-.14-.6-.05-.82.03-.49.11-.72.43-.37.49-.6.03-.49.07-.73.28-.44.31-.69-.07-.5-.06-.74-.14-.48-.14-.73c0-.36.37-.36.37-.72s-.49-.36-.49-.72.26-.36.26-.72.36-.36.36-.72-.51-.36-.51-.72.31-.36.31-.72.23-.36.23-.72-.62-.36-.62-.72.46-.36.46-.72.11-.36.11-.72-.54-.36-.54-.72.34-.36.34-.72-.22-.36-.22-.72.22-.36.22-.72-.38-.36-.38-.72.1-.36.1-.72.4-.36.4-.72-.24-.36-.24-.72.24-.36.24-.71.08-.36.08-.71.04-.36.04-.71-.45-.36-.45-.72-.06-.36-.06-.72-.11-.36-.11-.72.23-.36.23-.72.27-.36.27-.72-.05-.36-.05-.72.11-.36.11-.72-.03-.36-.03-.72-.44-.36-.44-.72.54-.36.54-.72-.28-.36-.28-.72-.32-.36-.32-.72.22-.36.22-.72-.14-.36-.14-.72-.08-.36-.08-.72.43-.36.43-.72.16-.36.16-.72.02-.36.02-.72-.63-.36-.63-.72.46-.36.46-.72-.16-.36-.16-.72.17-.36.17-.72.13-.36.13-.72-.41-.36-.41-.72.04-.36.04-.72-.11-.36-.11-.72.38-.36.38-.72-.19-.36-.19-.72-.1-.36-.1-.72.29-.36.29-.72.07-.36.07-.72-.06-.36-.06-.72-.02-.36-.02-.72.1-.36.1-.72-.28-.36-.28-.72-.2-.36-.2-.72.32-.36.32-.72.18-.36.18-.72-.06-.36-.06-.72-.45-.36-.45-.72.15-.36.15-.72-.21-.36-.21-.72.43-.36.43-.72.13-.36.13-.72-.25-.36-.25-.72-.09-.36-.09-.72-.14-.36-.14-.72.49-.36.49-.72-.05-.36-.05-.72-.08-.36-.08-.72-.33-.36-.33-.72.41-.36.41-.72-.24-.36-.24-.72.25-.36.25-.72-.15-.36-.15-.73.1-.36.1-.72-.49-.36-.49-.72.5-.36.5-.72.12-.36.12-.73-.64-.36-.64-.73.23-.36.23-.73.23-.36.23-.73c0-.26-.41-.5-.43-.75s.01-.51-.02-.76.15-.55.09-.8-.44-.41-.51-.66-.02-.37-.11-.61c-.25.01-.37-.47-.62-.45s-.47.66-.72.67-.51-.44-.76-.43-.49.13-.74.13-.5.21-.75.21-.5-.18-.75-.18z" fill="#cebefd"/><path d="m109.88 11.25c-.35 0-.35-.25-.71-.25s-.36-.3-.71-.3-.35.41-.71.41-.35-.14-.71-.14-.35-.06-.71-.06-.36.09-.71.09-.36.12-.71.12-.36-.39-.71-.39-.36.25-.71.25-.36-.31-.71-.31-.36.33-.71.33-.35-.2-.71-.2-.36.15-.71.15-.36-.25-.7099-.25c-.35 0-.36.33-.72.33s-.36.25-.72.25-.3599-.25-.7199-.25-.36-.23-.72-.23-.3601.3-.7201.3-.36.1-.72.1-.36-.38-.72-.38-.3599.29-.7199.29-.3601-.28-.7201-.28-.36.31-.72.31-.36-.47-.72-.47-.3599.62-.7199.62-.3601-.36-.7201-.36-.36-.17-.72-.17-.36.07-.72.07-.3599-.1-.7199-.1-.3601.57-.7201.57-.36-.57-.72-.57-.36.18-.72.18-.3599.03-.7199.03-.3601.02-.7201.02-.36-.18-.72-.18-.36.21-.72.21-.3599-.22-.7199-.22-.3601.19-.7201.19-.36.17-.72.17-.36.03-.72.03-.3599-.25-.7199-.25-.36.3-.72.3-.3601-.04-.7201-.04-.36-.36-.72-.36-.36.39-.72.39-.3599-.29-.7199-.29-.3601.27-.7201.27-.36-.4-.72-.4-.36.18-.72.18-.3599.15-.7199.15-.3601-.22-.7201-.22-.36.28-.72.28-.36.11-.72.11-.3599-.28-.7199-.28-.3601 0-.7201 0-.36.04-.72.04-.36.28-.72.28-.3599-.2-.7199-.2-.3601-.03-.7201-.03-.36-.25-.72-.25-.36-.09-.72-.09-.3599-.03-.7199-.03-.3601.07-.7201.07-.36.52-.72.52-.36-.14-.72-.14-.3599-.49-.7199-.49-.36.1-.72.1-.3601.5-.7201.5-.36-.14-.72-.14-.36-.06-.72-.06-.3599-.14-.7199-.14-.3601.21-.7201.21-.36-.45-.72-.45-.36-.01-.72-.01-.3599.2-.7199.2-.3601.4-.7201.4-.36-.38-.72-.38-.36-.15-.72-.15-.3599.16-.7199.16-.3601-.12-.7201-.12-.36.32-.72.32-.36-.25-.72-.25-.3599-.13-.7199-.13-.3601.45-.7201.45-.36-.12-.72-.12-.36-.05-.72-.05-.3599.1-.7199.1-.3601-.34-.7201-.34-.36-.11-.72-.11-.36.47-.72.47-.3599-.19-.7199-.19-.36.32-.73.32-.3601-.02-.7201-.02-.36.04-.72.04-.36-.14-.72-.14-.3599-.05-.7199-.05-.3601-.04-.7201-.04-.36.09-.73.09-.36-.39-.73-.39-.36.39-.73.39-.3599.12-.7199.12-.36-.52-.73-.52-.3601.34-.7201.34-.36-.14-.72-.14-.36-.16-.72-.16-.3599.33-.7299.33-.3601-.08-.7301-.08-.36.14-.72.14-.36-.33-.72-.33-.36.26-.73.26-.3599-.33-.7299-.33-.36.25-.73.25-.3601.2-.7301.2-.36-.23-.73-.23-.36.25-.73.25-.36-.51-.73-.51-.3599.04-.7299.04-.37-.05-.73-.05-.3701.5-.7301.5-.37.06-.73.06-.37-.56-.73-.56c-.32 0-.32-.08-.65-.08s-.32.47-.65.47c-.25 0-.48-.04-.73-.03s-.46.23-.7.26-.53-.24-.77-.2-.42.33-.66.39-.45.15-.68.23-.6-.22-.83-.12-.25.63-.47.73-.44.17-.65.29-.5699 0-.7699.13-.2401.49-.4301.64-.43.23-.61.39-.5499.13-.7199.31-.0201.64-.1801.82-.4099.28-.5599.47-.49.25-.63.45-.4101.34-.5301.55.05.58-.06.8-.3299.39-.4199.61-.19.46-.26.69c-.07005.23-.30003.43-.36003.66s-.1701.48-.2201.72.35007.55.32007.8-.31996.46-.33996.7.0299.49.0299.74c0 .32-.19995.32-.19995.65s.23999.32.23999.65c0 .36.27002.36.27002.72s-.40002.36-.40002.72.34997.36.34997.72-.43994.36-.43994.72.19995.36.19995.72.15003.36.15003.72-.09998.36-.09998.72-.17004.36-.17004.72.20007.36.20007.72-.26001.36-.26001.72.42993.36.42993.72.06006.36.06006.72-.39001.36-.39001.72-.15003.36-.15003.72.62.36.62.72-.09998.36-.09998.72-.21997.36-.21997.72.22998.36.22998.72-.59997.36-.59997.72.19995.36.19995.72.42004.36.42004.72-.13.36-.13.72-.10999.36-.10999.72.13989.36.13989.72-.22998.36-.22998.72.23999.36.23999.72-.1499.36-.1499.72.19995.36.19995.72-.57995.36-.57995.72.3999.36.3999.72-.1499.36-.1499.72.05993.36.05993.72.27002.36.27002.72-.07995.36-.07995.72-.1001.36-.1001.72.05005.36.05005.72.10998.36.10998.72-.20996.36-.20996.72.28003.36.28003.72-.52002.36-.52002.72.33997.36.33997.72-.32996.36-.32996.72.45996.36.45996.72-.26001.36-.26001.72.21997.36.21997.72.02002.36.02002.72v.72c0 .36-.05005.36-.05005.72v.72c0 .36-.23999.36-.23999.73s.15003.36.15003.72-.09998.36-.09998.72-.13.36-.13.72-.15003.36-.15003.72.12.36.12.72.34997.36.34997.72-.1499.36-.1499.73-.35998.36-.35998.72.40991.36.40991.72-.07996.36-.07996.72.30005.36.30005.72-.4801.36-.4801.72.47009.36.47009.72-.32007.36-.32007.72.31006.36.31006.73-.31006.36-.31006.72-.23999.36-.23999.72-.05993.36-.05993.72.13.36.13.73.22998.36.22998.73.05994.36.05994.73-.34998.36-.34998.73.52002.36.52002.73-.20996.36-.20996.73-.37012.36-.37012.73.46009.36.46009.73-.31006.37-.31006.73.43005.37.43005.73-.13.37-.13.73c0 .32-.14002.32-.14002.65s-.33996.32-.33996.65c0 .25.34999.49.36999.73s.01993.49.04993.73.14006.47.19006.71.20001.45.26006.68c.06.23-.31003.61-.23003.84s.61993.29.70993.52-.21.64-.11.85.32.39.45.61.4401.3.5801.5.47.25.61.44.2599.39.4199.57.22.44.39.61.2.5.38.66.3601.34.5501.49.33.4.53.53.5699.01.7799.13.3501.38.5701.48.3799.36.6099.45.5601-.08.7901 0 .5299-.11.7699-.05.3401.69.5801.73.5699-.48.8099-.45.42.68.67.69.51.02.75.02c.32 0 .3201-.49.6501-.49s.3199.16.6499.16c.36 0 .3601.27.7201.27s.3599-.56.7199-.56.36.47.72.47.36-.39.72-.39.3601.34.7201.34.3599-.2.7199-.2.36.25.72.25h.72c.36 0 .3601-.3.7201-.3s.3599.13.7199.13.36.03.72.03.36.01.72.01.3601-.22.7201-.22.3599.07.7199.07.36.11.72.11.36-.32.72-.32.3601.09.7201.09.3599-.11.7199-.11.36.07.72.07.36.31.72.31.3601.03.7201.03.36-.41.72-.41.3599.17.7199.17.36.4.72.4.36.07.72.07.3601-.12.7201-.12.3599-.12.7199-.12.36.07.72.07.36-.38.72-.38.3601.27.7201.27.3599.02.7199.02.36.25.72.25.36-.58.72-.58.3601-.04.7201-.04.3599.12.7199.12.36.1.72.1.36-.02.72-.02.3601.19.7201.19.3599.18.7199.18.36-.13.72-.13.36-.11.72-.11.3601-.31.7201-.31.3599-.04.7199-.04.36-.01.72-.01.36.14.72.14.3601.31.7201.31.36.04.72.04.3599-.49.7199-.49.36.04.72.04.36.24.72.24.3601-.05.7201-.05.3599.14.7199.14.36.13.72.13.36-.36.72-.36.3601.28.7201.28.3599-.16.7199-.16.36.25.72.25.36-.26.72-.26.3601-.13.7201-.13.3599.01.7199.01.36-.1.72-.1.36.5.72.5.3601.12.7201.12.3599-.37.7199-.37.36.33.72.33.36-.49.72-.49.3601.24.7201.24.3599.19.7199.19.36-.11.72-.11.36.24.72.24.3601-.23.7201-.23.36.11.72.11.3599-.32.7199-.32h.72c.36 0 .36.07.72.07s.3601-.11.7201-.11.3599-.06.7299-.06.36-.01.72-.01.36.45.72.45.3601-.14.7201-.14.3599-.21.7199-.21.36.07.72.07.36-.13.73-.13.36.43.73.43.3601-.11.7301-.11.3599-.17.7199-.17.36-.2.73-.2.36-.12.72-.12.36.17.72.17.3601-.08.7201-.08.3599.08.7299.08.36-.07.73-.07.36-.11.72-.11.36.62.72.62.3601-.32.7301-.32.3599-.19.7299-.19.36.15.73.15.36.34.73.34.36-.18.73-.18.36-.38.73-.38.3601.27.7301.27.36-.18.73-.18.3699.14.7299.14.37.23.73.23.37-.27.73-.27.37.12.73.12.3501.27.7101.27.3599-.07.7099-.07c.3499 0 .3499-.24.7099-.24s.35.3.71.3.35-.5.71-.5.36.37.71.37.36.03.71.03.36.13.71.13.36-.07.71-.07.36-.26.71-.26.36.28.71.28.35-.08.71-.08.36-.44.71-.44.36.26.71.26.36-.16.72-.16.36.02.72.02c.25 0 .49.08.73.07s.51.2.75.17.4-.53.64-.58.54.2.77.14.49-.08.72-.16.44-.22.67-.31.58.07.8-.04.23-.61.44-.73.44-.2.64-.34.38-.3.57-.45.4-.27.59-.43.31-.37.48-.54.63-.09.79-.27-.05-.68.1-.87.36-.33.5-.53.46-.29.58-.5.1-.5.2-.72.23-.43.33-.65.44-.36.52-.59-.43-.64-.37-.87.45-.38.5-.62-.22-.52-.19-.76.18-.46.19-.7.2-.47.2-.72c0-.36.32-.36.32-.72s-.13-.36-.13-.72-.48-.36-.48-.72.08-.36.08-.72.45-.36.45-.72-.22-.36-.22-.72.05-.36.05-.72.11-.36.11-.72-.41-.36-.41-.72.39-.36.39-.72-.46-.36-.46-.72.38-.36.38-.72-.1-.36-.1-.72.34-.36.34-.72-.5-.36-.5-.72.33-.36.33-.72.14-.36.14-.72-.27-.36-.27-.72.28-.36.28-.71-.06-.36-.06-.71-.29-.36-.29-.71-.23-.36-.23-.72.21-.36.21-.72.25-.36.25-.72-.44-.36-.44-.72.56-.36.56-.72-.55-.36-.55-.72.05-.36.05-.72-.08-.36-.08-.72.46-.36.46-.72-.47-.36-.47-.72.44-.36.44-.72-.09-.36-.09-.72.24-.36.24-.72-.53-.36-.53-.72.23-.36.23-.72-.05-.36-.05-.72-.25-.36-.25-.72.29-.36.29-.72-.01-.36-.01-.72-.24-.36-.24-.72.28-.36.28-.72.02-.36.02-.72-.02-.36-.02-.72.04-.36.04-.72-.39-.36-.39-.72.05-.36.05-.72.6-.36.6-.72-.68-.36-.68-.72.67-.36.67-.72-.64-.36-.64-.72.32-.36.32-.72.18-.36.18-.72-.27-.36-.27-.72.3-.36.3-.72-.14-.36-.14-.72-.39-.36-.39-.72.22-.36.22-.72.23-.36.23-.72-.11-.36-.11-.72.14-.36.14-.72.11-.36.11-.72-.1-.36-.1-.72.16-.36.16-.72-.24-.36-.24-.72.01-.36.01-.72-.07-.36-.07-.72.01-.36.01-.72-.17-.36-.17-.72-.17-.36-.17-.72.13-.36.13-.72-.12-.36-.12-.72.44-.36.44-.72-.48-.36-.48-.72.46-.36.46-.72.1-.36.1-.73-.01-.36-.01-.72-.36-.36-.36-.72.15-.36.15-.72.21-.36.21-.73-.22-.36-.22-.73.06-.36.06-.73-.05-.36-.05-.73c0-.25-.12-.48-.14-.72s-.27-.45-.3-.69.58-.59.53-.83-.14-.49-.2-.72-.28-.44-.36-.67-.61-.28-.71-.51.06-.55-.05-.77-.18-.45-.3-.66-.44-.29-.57-.49-.08-.53-.22-.73-.28-.4-.44-.59-.21-.48-.38-.66-.54-.14-.72-.3-.17-.57-.36-.72-.68.11-.88-.02-.33-.36-.55-.48-.32-.44-.54-.55-.5-.08-.73-.17-.41-.29-.64-.37-.49-.07-.73-.13-.52.12-.76.07-.44-.27-.68-.31-.46-.33-.71-.34-.5.46-.75.46z" stroke="#000" stroke-linecap="round" stroke-linejoin="round" stroke-width="2.6"/><path d="m104.2 88.52c.16-.2.79-.25.97-.16.17.03-.02-.08-.09-.08-.02 0-.04 0-.04-.01.1-.07.51-.13.6-.12.18 0 .26-.02.23-.04-.11-.08-.41.1-.5.18-.07.07-.02-.03.07-.19.1-.14.27-.52.93-.72.54-.11.69-.03.81-.04.09.02.11-.05-.23.02-.04.01-.09.03-.14.05-.03.01.03-.02.05-.03l.13-.07c.08-.03.37-.16.39-.17s-.03.01-.05.03c-.02.01-.01 0 0-.01.02-.02.3-.32.42-.4l.08-.06c-.07.04-.13.1-.18.16-.19.22-.2.32-.21.36-.02.07 0-.04.04-.24.02-.1.05-.24.16-.47.16-.45.91-.86 1.16-.9.03-.01.02-.01-.02.01-.02.01-.05.03-.1.06l-.06.05s-.04.04-.01.01l.08-.07c.46-.35.68-.35.8-.4.12-.02.14-.08-.11.08-.07.06-.12.09-.23.24-.21.33-.23.6-.19.81l-.08-.25c-.03-.1-.06-.18-.08-.38-.06-.25.04-.78.2-1.01.21-.34.41-.48.45-.54.07-.06-.05.03-.13.22.02-.11.07-.31.1-.42-.02-.2-.02-.88.07-1.12-.06-.41.32-1.16.64-1.37-.03.03-.12.14-.18.29-.14.45-.06.6.1.87-.53-.56-.64-1.63-.12-2.27.13-.17.22-.25.25-.28.03-.02-.02.02-.09.13-.07.12-.12.28-.13.39 0 .08 0 .29.07.47.08.19.18.3.23.35.1.07-.02.01-.31-.26-.83-.76-.48-2.15.21-2.58.15-.1-.06-.02-.21.36-.1.44-.05.32-.02.51.02.07.05.11 0 .03-.12-.23-.24-.69-.22-.97-.11-.37-.13-1.05.08-1.5.12-.29 0 0 0 .06v.04-.13c0-.18.09-.57.09-.57s0 .05 0-.04c0-.11-.05-.6-.04-.63 0 .19.1.44.21.58s.16.17.19.19c-.82-.39-1.3-1.6-.69-2.51.12-.18.21-.27.22-.29.01-.06-.22.36-.19.51 0 .1 0-.08 0-.14.01-.26.15-.65.27-.84.18-.28-.03.02-.04.19v.09s0 .17.03.25c.05.22.17.41.26.49.16.15.12.1-.08-.03-.94-.58-1-2.09-.1-2.74.24-.18.32-.24.17-.12-.17.11-.37.63-.29.89.03.29.31.57.2.44-.04-.05-.17-.16-.3-.37-.33-.53-.34-1.2-.11-1.74.16-.35.03-.08.02.02-.02.11 0 .3.09.46.05.11.1.15.06.1-.34-.4-.54-1.09-.39-1.64.1-.47.46-.87.38-.77-.08.06-.18.49-.15.48-.18-.55-.08-1.53.44-1.97.23-.2.1-.15-.06.16-.07.16-.09.31-.08.41 0 .07.02.2.07.32.16.31.16.27-.07-.04-.19-.28-.31-.7-.3-1.05 0-.07 0 .02-.02-.17-.13-.62.05-1.41.52-1.81.06-.07.06-.06 0 0-.06.07-.15.24-.17.37-.06.28-.01.48.12.71.16.2.04.12-.24-.31-.23-.43-.28-.86-.19-1.33.1-.5.49-.89.43-.83-.01.01-.09.13-.13.25-.04.14-.05.23-.05.31-.04.16.2.61.22.59.04.03-.37-.33-.5-.87-.1-.61-.04-.53-.05-.68v-.34c-.04-.36.15-1.05.38-1.3.05-.06 0-.01-.05.09-.06.14-.09.28-.08.39 0 .06.08.29-.04-.07-.07-.22-.09-.44-.1-.65 0-.03 0 .03 0 .05-.02.13.2.49.08.29-.25-.32-.35-.96-.32-1.37-.05-.48.05-1.21.38-1.57.25-.28.09-.16-.03.13-.09.3-.07.48.07.77.18.29.23.28-.03.03s-.5-.84-.47-1.25c-.03-.55-.02-1.39.36-1.82.13-.2-.1.14-.1.32v.1c-.04-.38.23-1.02.47-1.25-.27.29-.21.98.11 1.25.03.03 0 0-.1-.08-.37-.27-.68-1.08-.6-1.56 0-.13.03-.37.03-.47 0-.24-.04-.47-.04-.76-.04-.33.21-.98.39-1.17-.1.15-.18.49-.1.67.02.1.09.21.08.2-.24-.31-.41-.98-.32-1.41.02-.37.34-.9.31-.83-.05.04-.13.41-.1.36 0-.11.01-.25.04-.4s.08-.32.11-.39 0-.02 0 .03c-.03.25 0-.3.03-.45.03-.19.02-.09.02-.16v-.02c0 .17.09.43.18.54.15.15-.02.05-.3-.38-.21-.34-.27-.84-.22-1.18.02-.29.2-.72.15-.59-.03.16-.03.06-.02.25 0 .23.27.57.18.44-.08-.05-.48-.63-.49-1.07-.02-.28 0-.2 0-.22.03.17-.09-.32-.08-.52-.02-.09-.02-.71.25-1.11s.35-.46.19-.23c-.1.18-.13.38-.1.55.02.17.2.43.01.13-.37-.55-.29-1.61.09-2.06.07-.13-.12.23-.09.33 0 .13 0-.12.02-.26.02-.16.08-.37.14-.51.16-.34.03-.09.03.02-.03.15.05.46.16.61.17.21.16.18-.1-.07-.27-.25-.51-.84-.47-1.26 0-.16.06-.54.09-.63-.01-.15.08-.75.24-.98.11-.23-.05.1-.03.18v.05-.02c.03.1-.07-.24-.07-.48v-.15c0-.03 0-.11 0-.22-.01-.3.26-.88.44-1.05.05-.06.02-.03-.03.06-.12.17-.11.59-.11.3l.02-.64c0-.07.01.02-.02-.14-.04-.16-.05-.5-.04-.52-.03.21.24.62.25.58.03 0-.31-.21-.52-.75-.11-.26-.1-.57-.11-.67-.09-.43-.06-1 .02-1.37 0 .02.06.23-.03-.08-.15-.6-.07-.87-.1-1.38-.02-.19-.09-.48-.07-.68-.06-.3.27-1.1.54-1.26.23-.19.25-.23.08-.03-.1.14-.18.35-.17.53v-.07-.18c.04-.29.18-.73.12-.47v.1c0 .2.24.5.14.36-.1-.07-.45-.63-.45-1.03v-.14s0 0 0-.02v.02c0 .02.02.08.02.1.03.08-.15-.36-.15-.62-.04-.3.02-.77.2-1.07.25-.39.35-.46.2-.27-.12.17-.11.59-.09.15 0-.26.18-.69.15-.6-.06.14.01.45.13.6.07.1.11.13.09.11-.39-.27-.73-1.01-.62-1.54.03-.25.16-.55.3-.73.3-.37.48-.44.44-.42-.39.33-.35 1.07.05 1.36.02 0-.11-.04-.4-.31-.47-.37-.58-1.31-.36-1.86 0 0 0 .09 0-.02 0-.22.03-.47.03-.68 0-.12 0-.3.02-.45.02-.17.01-.39.02-.31 0 .04-.09-.32-.09-.52 0-.11-.02-.15.02-.45.04-.26.17-.52.31-.7.28-.34.45-.41.37-.36-.03.03-.12.12-.18.27-.06.14-.07.31-.06.36-.02.1.15.45.14.39-.01-.02-.1-.11-.2-.28-.15-.24-.23-.58-.23-.86 0 .12.05.25.11.36.13.15-.02.04-.24-.36-.18-.39-.21-.74-.12-1.16.1-.44.44-.79.41-.76-.17.22-.2.59-.02.83.04.05-.29-.32-.37-.74-.02-.09-.04-.2-.04-.27-.05-.32.17-.87.3-1.01.16-.21.25-.29.27-.32 0 0-.02 0-.07.13-.09.15-.1.56-.02.71.17.38.2.29.13.25-.07-.08-.23-.14-.5-.58-.18-.29-.22-.75-.17-1.05.03-.16.02-.22.02-.09.03.21.11.3.09.27-.01-.02-.09-.11-.22-.3l-.1-.16-.05-.1c.06.09-.21-.25-.21-.24-.12-.15-.28-.44-.33-.59l-.08-.24c0-.01.03.05.02.03-.22-.38-.58-.78-.63-1.14-.06-.27-.05-.4-.05-.43 0-.01 0 .01.05.11.04.1.22.31.29.33.17.09.14.05.02.02-.12-.05-.34-.06-.73-.37.01 0 .08.03-.02-.03-.08-.05-.24-.11-.48-.28-.25-.19-.37-.38-.44-.49-.07-.12-.11-.17-.07-.14-.01 0 .14.09.21.1.07.02.09 0 .07 0-.04-.02-.16-.01-.42-.06-.33 0-.89-.49-.99-.77 0-.02 0 0 .05.01-.16-.08-.47-.48-.5-.58-.06-.08.1.03.11 0 .05.03.31-.07.16-.04-.16.09-.68.11-.85-.03-.7-.29-.25-1.41.48-1.09.01-.06-.29-.03-.19-.07.32-.21.84-.23 1.2.04.15.1.38.36.46.39.02 0-.03-.04.02-.01.14.08.24.17.31.23.12.11.28.29.24.21-.07-.06-.21-.11-.21-.11-.04-.01.07-.02.26-.03.1 0 .23 0 .41.06.18.04.43.21.5.28.21.18.3.32.37.39.06.07.08.07.02 0-.05-.04 0-.02.13.03.11.04.38.16.57.32-.21-.16-.21-.12-.1-.11.28 0 1.02.39 1.16.85.11.2.17.68.18.69 0-.02-.02-.12-.14-.28.16.25.46.59.62.9.1.21.15.35.17.4.03.06-.01-.02.01 0l.22.27c.07.08.18.26.24.38l-.01-.02v-.02l.19.25c.11.15.31.45.36.89.03.36-.02.53-.02.6 0 .03 0 .03 0-.02 0-.02 0-.06-.01-.1 0-.04-.06-.21-.09-.25-.15-.24-.12-.15-.03-.08.8.62.86 1.7.09 2.44.01-.02.06-.07.12-.29.02-.08.03-.17.02-.25 0-.02 0-.07-.02-.1-.04-.19-.21-.38-.03-.15.46.56.44 1.56-.04 2.1-.17.2 0 .04.05-.18.04-.21.02-.28-.06-.49-.12-.19-.08-.15.16.2.1.17.19.41.21.6.02.09.02.2.02.25 0-.03 0-.05 0-.1 0-.18-.22-.44-.09-.27.34.36.54 1.13.28 1.71-.1.26-.27.44-.37.55-.24.21-.27.25-.13.1.07-.09.15-.25.17-.39.02-.18 0-.11.01-.11.16.5.07 1.03.07 1.44 0 .38-.02 1.19-.13 1.42 0-.08-.01-.16-.04-.25-.05-.18-.17-.33-.22-.38-.13-.11-.05-.05.15.09.83.55.87 1.91.09 2.52-.21.17-.24.22-.08.03s.23-.54.14-.79c-.09-.31-.3-.43-.14-.3.55.43.72 1.32.49 1.96-.11.3-.03.08-.03.06 0-.22.03.44-.21.82-.25.4-.35.47-.2.28.05-.09.09-.22.1-.31.01-.11 0-.07 0-.1s-.07-.25.03.04c.05.13.08.3.1.44v.19l.02.07c.04-.15-.2-.57-.16-.48.05.03.43.52.46.95.03.15.02.31.01.44 0 .12-.03.27-.06.4-.1.32-.05.16-.05.13 0 .28-.11.69-.29.94-.3.39-.49.47-.42.44.02-.02.12-.12.19-.27.07-.14.09-.37.09-.38.03.16.09.5.08.68 0 .16.01.53.02.69 0 .15 0 .02-.01-.02-.03-.09.13.34.13.58.03.32 0 .59-.06.9 0 .16.04.26.05.46 0 .1.01.2.01.28s0-.17-.05-.27c-.13-.31-.29-.38-.09-.22.34.28.57.93.55 1.35.08.28.06 1.04.05 1.27 0-.06.02.61-.23.97-.11.19-.21.31-.24.34s.02-.02.08-.13c.05-.11.08-.24.09-.31 0-.12 0 0 0-.03 0 0-.02-.1.04.19.04.26.05.46.03.72 0 .31-.27.85-.27.82.03-.03.1-.31.08-.3.02.16-.06.64-.09.7.03-.15-.14-.56-.25-.64s.08.01.38.42c.14.21.25.5.27.75.02.29 0 .33 0 .52-.03.34-.28.8-.21.66.02-.04.05-.13.05-.18 0-.02 0-.16 0 .08.02.32-.27.91-.34.96-.02.08.14-.3.11-.36.02-.09-.05-.33-.1-.4-.06-.11.25.35.3.75.07.4.02.84-.19 1.22-.27.43-.39.51-.23.31.14-.2.14-.58.13-.45 0 .02-.03-.15.03.12.03.12.05.26.06.37 0 .09.01.29 0 .12.01-.21-.26-.58-.18-.47.06.04.47.57.49 1.04.03.41.01.57-.08.93-.12.35-.04.13-.04.07 0-.05 0 .03 0-.12.04-.24-.52-.91.02-.25.35.41.4 1.23.28 1.7.02.17-.06.77-.15.93-.01.05.03-.11.02-.12.03.17-.1.78-.27 1.01-.15.26.05-.07.05-.21.02-.15 0-.27-.07-.43-.04-.08-.06-.11 0-.01.29.46.39 1.07.22 1.64-.06.22-.18.43-.25.53s-.06.09-.01 0c.06-.12.1-.28.1-.4 0 .19.05.56.03.78 0 .21-.03.44-.04.61.03-.15-.19-.63-.3-.68.39.27.76 1 .7 1.5.03.31-.23.95-.42 1.14-.07.08-.05.07 0-.02.08-.13.14-.32.13-.47.07.38-.35 1.2-.41 1.2.05-.02.17-.4.15-.47v.66s0 .04 0 .03c0-.1-.02-.2-.05-.31-.05-.16-.15-.3-.19-.34-.11-.08.13.04.42.54.13.24.2.54.2.76s-.01.42-.1.68c-.18.52-.52.79-.42.69s.21-.46.19-.54v.3.38s-.09-.42-.12-.42c0-.02.34.55.34.91 0 .08.01.2.01.22 0-.03-.01-.09-.03-.14-.05-.14.13.29.15.59.01.16.02.23 0 .43.02.27-.24.86-.39 1.01-.03.04.03-.04.07-.15s.06-.23.06-.28c0-.08 0 .09 0 .1v.34c-.01.07.02.39-.03 0-.07-.31-.31-.5-.12-.3.59.57.64 1.79.08 2.4-.2.24.02.02.08-.25.05-.24.02-.44-.1-.66-.17-.23-.1-.17.18.22.47.68.28 1.8-.33 2.31.11-.08.26-.46.24-.63v.02.03.04c0 .04.05.36.05.51 0 .03 0 .13 0 .09 0-.15-.07-.37-.15-.48-.05-.08-.06-.07.02.01.21.19.47.85.44 1.16 0 .21-.03.48-.14.74-.25.53-.58.72-.51.68.12-.06.29-.53.26-.67.12.47.15 1.27-.26 1.79-.21.28 0 .06.04-.18.02-.11.02-.17.02-.24 0-.08-.03-.21-.09-.32-.05-.11-.1-.16-.07-.12s.15.18.25.38c.18.36.22.77.17 1.13-.03.33-.28.8-.21.66.05-.17.06-.14.04-.35 0-.27-.3-.61-.22-.51.7.57.78 1.93.07 2.53-.31.28-.44.33-.37.29.47-.36.45-1.27-.03-1.6-.02 0 .14.05.47.37.17.17.35.46.42.79.05.27.05.44.02.68-.04.4-.38.89-.33.8.03-.04.12-.26.11-.35v.04c.03.39-.32 1.02-.46 1.13-.14.18.12-.12.14-.37.08-.27-.13-.78-.3-.9-.15-.12-.08-.06.12.07.35.19.77.83.76 1.32 0 .25 0 .18.01.28.05.37.03.93-.06 1.21.01.37-.1.72-.22.96.01-.02.04-.12.04-.16 0-.12 0 0 0-.04 0 0 0-.02.01.06.02.07.04.22.05.33 0 .14.03.44 0 .17-.01-.07-.05-.15-.04-.13.21.39.34.98.15 1.53-.22.6-.63.83-.65.86-.1.08.21-.13.28-.52.09-.23-.09-.77-.27-.9-.13-.11-.04-.05.22.17.33.21.65 1.04.55 1.43 0 .36-.32.92-.55 1.11-.06.06-.05.05.01-.02.21-.28.25-.7.06-1-.05-.08-.07-.1-.01-.03.39.44.57 1.16.3 1.82-.15.35-.31.52-.52.71.03.02.3-.43.26-.64 0 .14-.03.47-.08.65-.03.13 0-.02-.01.05 0 .29.03.52-.03.88-.05.21-.17.7-.24.91-.15.42-.43.68-.53.77-.12.1-.09.11 0-.03.12-.16.19-.61.15-.72.17.42.31 1.19-.1 1.72-.22.41-.96.68-1.09.7-.1.01-.11.08.18-.13l.05-.05s-.03.03-.04.04c-.18.2-.51.33-.71.41-.16.05-.19.08-.06 0 0 .02.33-.28.35-.4.06-.12.06-.15.06-.14-.01.02-.02.14-.1.43-.05.15-.1.36-.37.66-.07.08-.16.15-.25.22h.01c-.21.22-.53.49-.8.62-.28.13-.41.17-.62.23-.38.2-1.06.16-1.13.11-.11-.04-.19 0 .12-.06.43-.15.44-.33.41-.29-.04.02-.1.13-.33.37-.06.06-.13.13-.25.2-.25.18-.62.24-.87.22-.58-.08-.52-.1-.27-.18-.09 0-.2.05-.3.04-.3.04-.72-.13-.76-.2-.03-.03.05-.01.16-.04.1-.02.15-.07.16-.1-.81.43-1.52-.77-.7-1.25z" fill="#000"/><g stroke-linecap="round" stroke-linejoin="round"><path d="m23.0499 84.38c.36 0 .36.02.72.02s.36-.62.72-.62.3599.28.7199.28.3601-.17.7201-.17.36.18.72.18.36-.07.72-.07.3599.19.7199.19.3601-.3.7201-.3.36.11.72.11.36.33.72.33.3599-.02.7199-.02.36-.11.72-.11.3601-.13.7201-.13.36.3.72.3.36-.29.72-.29.3599.38.7199.38.3601-.29.7201-.29.36.14.72.14.36-.32.72-.32.3599.34.7199.34.3601-.46.7201-.46.36.19.72.19.36.02.72.02.3599-.08.7199-.08.3601.22.7201.22.36.2.72.2.36-.25.72-.25.3599-.18.7199-.18.3601-.18.7201-.18.36.38.72.38.36-.38.72-.38.3599.26.7199.26.3601.26.7201.26.36-.1.72-.1.36-.36.72-.36.3599.1.7199.1.36.11.72.11.3601-.03.7201-.03.36-.16.71-.16.3599.38.7099.38.3601-.04.7101-.04.36-.43.71-.43.3599.2.7199.2.36.39.72.39.3601-.32.7201-.32.36.24.72.24.36-.35.72-.35.3599-.11.7199-.11.3601.1.7201.1.36.18.72.18.36.1.72.1.3599-.43.7199-.43.3601.33.7101.33.36.32.71.32.3599-.11.7099-.11.3601.07.7101.07.36-.56.71-.56.3599-.04.7199-.04.36.19.72.19.3601.25.7201.25.36-.21.72-.21.36.29.72.29.3599-.5.7199-.5.3601.37.7201.37.36.09.72.09.36-.23.72-.23.3599-.05.7199-.05.3601-.14.7201-.14.36.05.72.05.36.4.72.4.3599-.23.7199-.23.3601.17.7201.17.36-.04.72-.04.36-.34.72-.34.3599.48.7199.48.3601-.42.7201-.42.36-.02.72-.02.36-.09.72-.09.3599.52.7199.52.3601-.48.7201-.48.36.28.72.28.36.04.72.04.3599.18.7199.18.36-.39.72-.39.3601.22.7101.22.36-.13.72-.13.3599.19.7199.19.3601.15.7201.15.36-.6.72-.6.36.37.72.37.3599-.11.7199-.11.36-.26.72-.26.3601-.04.7201-.04.36.56.72.56.36-.27.72-.27.3599-.07.7199-.07.3601.33.7201.33.36-.38.72-.38.36-.01.72-.01.3599.21.7299.21.36-.28.73-.28.3601.02.7301.02.36.54.73.54c.25 0 .48-.51.72-.55s.57.24.8.17.4399-.29.6699-.39.3801-.34.5901-.48c.2101-.14.4901-.17.6801-.33s.59-.15.76-.34.25-.49.38-.7.29-.45.39-.68-.26-.63-.19-.87.67-.37.71-.62-.23-.54-.23-.79c0-.36-.03-.36-.03-.72s-.14-.36-.14-.72-.11-.36-.11-.72.51-.36.51-.72-.05-.36-.05-.72-.44-.36-.44-.72.55-.36.55-.72-.67-.36-.67-.72.58-.36.58-.72-.02-.36-.02-.71.05-.36.05-.71-.28-.36-.28-.72-.04-.36-.04-.72.29-.36.29-.72-.55-.36-.55-.72.19-.36.19-.72.34-.36.34-.72-.47-.36-.47-.72 0-.36 0-.72.53-.36.53-.72-.32-.36-.32-.72.28-.36.28-.72-.33-.36-.33-.72.23-.36.23-.72-.06-.36-.06-.72-.02-.36-.02-.72-.15-.36-.15-.72.16-.36.16-.72-.21-.36-.21-.72.25-.36.25-.72-.37-.36-.37-.72-.03-.36-.03-.72-.07-.36-.07-.72.51-.36.51-.72-.28-.36-.28-.72-.22-.36-.22-.72.04-.36.04-.72.61-.36.61-.72-.44-.36-.44-.72.44-.36.44-.72-.49-.36-.49-.72-.04-.36-.04-.72.2-.36.2-.72-.11-.36-.11-.72.32-.36.32-.72.09-.36.09-.72-.17-.36-.17-.72.18-.36.18-.72-.03-.36-.03-.72-.18-.36-.18-.72.11-.36.11-.72-.47-.36-.47-.72.02-.36.02-.72.28-.36.28-.72-.25-.36-.25-.72.2-.36.2-.72-.05-.36-.05-.72-.14-.36-.14-.72.4-.36.4-.72.07-.36.07-.72-.18-.36-.18-.72.04-.36.04-.72.11-.36.11-.72-.43-.36-.43-.73.28-.36.28-.72-.27-.36-.27-.72-.16-.36-.16-.73.21-.36.21-.73.39-.36.39-.72.09-.36.09-.72-.14-.36-.14-.73-.32-.36-.32-.73-.02-.37-.02-.73.14-.37.14-.73c0-.25.28-.55.25-.79s-.33-.47-.4-.71-.2-.47-.31-.69-.08-.55-.21-.75-.22-.5-.38-.69-.5-.24-.69-.41-.6-.02-.8102-.15c-.21-.13-.26-.55-.48-.65s-.5599.1-.7999.03-.41-.41-.66-.44-.5 0-.76 0c-.36 0-.36-.19-.72-.19s-.36-.01-.72-.01-.3601 0-.7201 0-.3599.46-.7199.46-.36.04-.72.04-.36.03-.72.03-.3601-.48-.7201-.48-.3599.17-.7199.17-.36-.12-.72-.12-.36-.13-.72-.13-.3601.54-.7201.54-.3599-.27-.7199-.27-.36.02-.72.02-.36-.12-.72-.12-.3601-.22-.7201-.22-.3599.05-.7199.05-.36.25-.72.25-.36.28-.72.28-.3601-.11-.7201-.11-.36-.12-.72-.12-.3599.31-.7199.31-.36-.69-.72-.69-.36.46-.72.46-.3601.15-.7201.15-.3599-.06-.7199-.06-.36-.05-.72-.05-.36-.04-.72-.04-.3601.13-.7201.13-.3599-.44-.7199-.44-.36.48-.72.48-.36-.59-.72-.59-.3601.32-.7201.32-.3599-.08-.7199-.08-.36.35-.72.35-.36-.63-.72-.63-.3601.48-.7201.48-.3599.17-.7199.17-.36-.49-.72-.49-.36.48-.71.48-.3601.03-.7101.03-.3599-.4-.7099-.4-.36.31-.71.31-.3601.03-.7201.03-.3599-.29-.7199-.29-.36-.32-.72-.32-.36.54-.72.54-.3601-.42-.7201-.42-.3599.49-.7199.49-.36-.07-.72-.07-.36.09-.72.09-.3601 0-.7201 0-.36-.61-.72-.61-.3599.04-.7099.04-.36-.02-.71-.02-.3601.51-.7101.51-.3599-.03-.7099-.03-.36-.04-.71-.04-.3601.14-.7201.14-.3599-.58-.7199-.58-.36.48-.72.48-.36-.27-.72-.27-.3601-.13-.7201-.13-.3599.35-.7199.35-.36.11-.72.11-.36-.09-.72-.09-.3601-.37-.7201-.37-.36.3-.72.3-.3599.27-.7199.27-.36-.5-.72-.5-.36-.15-.72-.15-.3601.39-.7201.39-.3599-.13-.7199-.13-.36-.19-.72-.19-.36.1-.72.1-.3601-.13-.7201-.13-.3599.25-.7199.25-.36.13-.72.13-.36 0-.72 0-.3601-.11-.7201-.11-.3599-.3-.7199-.3-.36.51-.72.51-.36-.29-.72-.29-.3601.23-.7201.23-.3599-.44-.7199-.44-.36.44-.71.44-.36-.2-.72-.2-.3601 0-.7201 0-.3599-.26-.7199-.26-.36.17-.72.17-.36-.17-.72-.17-.3601.21-.7201.21-.3599.01-.7199.01-.36-.06-.72-.06-.36.32-.72.32-.3601-.33-.7201-.33-.3599.43-.7199.43-.36-.48-.72-.48-.36.58-.72.58-.3601-.5-.7201-.5-.36.25-.73.25-.3599-.3-.7299-.3-.36.32-.73.32-.36-.47-.73-.47c-.25 0-.55.06-.79.1s-.4101.51-.6501.58-.5599-.07-.7799.03-.32.45-.53.58-.34.33-.53.49-.32.33-.49.52-.4101.29-.5401.5-.3099.39-.4099.61.02.52-.05.76-.16.44-.2.69-.4601.46-.4601.72c0 .36.0201.36.0201.72s.2299.36.2299.72-.0399.36-.0399.72-.06.36-.06.72-.11.36-.11.72-.0501.36-.0501.72.11.36.11.72.01.36.01.72.39.36.39.72-.2899.36-.2899.71-.12.36-.12.71.43.36.43.72-.6601.36-.6601.72.4501.36.4501.72-.16.36-.16.72-.09.36-.09.72-.09.36-.09.72.4099.36.4099.72-.4499.36-.4499.72.48.36.48.72-.49.36-.49.72.49.36.49.72-.11.36-.11.72.09.36.09.72-.11.36-.11.72-.4001.36-.4001.72.0701.36.0701.72-.06.36-.06.72.2399.36.2399.72-.0599.36-.0599.72.34.36.34.72-.3001.36-.3001.72.1701.36.1701.72.12.36.12.72-.19.36-.19.72-.28.36-.28.72.34.36.34.72-.0201.36-.0201.72-.1099.36-.1099.72-.11.36-.11.72.01.36.01.72.0899.36.0899.72-.1699.36-.1699.72.48.36.48.72-.14.36-.14.72-.41.36-.41.72.44.36.44.72.18.36.18.72-.56.36-.56.72.2999.36.2999.72-.15.36-.15.72.13.36.13.72-.25.36-.25.72v.72c0 .36.01.36.01.72s.0701.36.0701.72.1899.36.1899.72.1701.36.1701.72-.5401.36-.5401.72.2601.36.2601.72-.1601.36-.1601.72.5301.36.5301.72-.55.36-.55.72.31.36.31.73-.0401.36-.0401.72-.38.36-.38.72.39.36.39.73.13.36.13.73.01.36.01.72-.5499.36-.5499.72.2699.36.2699.73.3001.36.3001.73-.25.37-.25.73-.13.37-.13.73c0 .25.03.52.06.77s.3499.44.4199.67.3501.37.4601.59-.1001.6.0399.8.3801.33.5401.52.35.33.54.49.4699.16.6699.29.28.48.5.58.4301.27.6701.34.49.09.74.12.49.32.75.32z" stroke="#000" stroke-width="2.6"/><path d="m76.6897 43.9c-.35 0-.35-.04-.7-.04s-.3499.1-.6999.1-.3501.12-.7001.12-.3499-.43-.6899-.43-.3501-.05-.7001-.05-.3499.17-.6999.17-.35.38-.7.38-.3501-.05-.7001-.05-.3499-.07-.6999-.07-.3501.14-.7001.14-.3499-.21-.6999-.21-.35-.07-.7-.07-.3501-.06-.7001-.06-.3499-.1-.6999-.1-.3501-.09-.7001-.09-.3499.06-.6999.06c-.27 0-.5701.23-.8101.14s-.66-.12-.84-.3.2-.77.1-1.01-.46-.37-.46-.64c0-.35-.2199-.35-.2199-.69s.0599-.35.0599-.69-.1-.35-.1-.7.1701-.35.1701-.7-.2001-.35-.2001-.7.4301-.35.4301-.69-.1601-.35-.1601-.7.11-.35.11-.7.1901-.35.1901-.7-.47-.35-.47-.7c0-.27.41-.46.51-.7s-.08-.7.1-.89.6-.1.85-.2.47.1.74.1c.35 0 .3499-.57.6999-.57s.3501.38.7001.38.3499-.3.6999-.3.3501.44.6901.44.3499.03.6999.03.35-.58.7-.58.3501.25.7001.25.3499.14.6999.14.3501-.02.7001-.02.3499-.09.6999-.09.35-.07.7-.07.3501-.03.7001-.03.3499-.2.6999-.2.3501.35.7001.35.3499.12.6999.12.35-.42.7-.42c.27 0 .66 0 .89.1s.5101.39.6901.57-.1601.71-.0601.95.7901.36.7901.63c0 .35-.0401.35-.0401.69s-.52.35-.52.69.2401.35.2401.7-.03.35-.03.7.15.35.15.7-.38.35-.38.69.37.35.37.7.23.35.23.7-.09.35-.09.7-.3401.35-.3401.7c0 .27-.1099.47-.2099.7s.08.71-.1.89-.54.27-.78.37-.5401.05-.8101.05z" stroke="#76fb8f" stroke-width="2"/><path d="m78.6997 37.93c-.26.24-.52-.31-.88-.31s-.36.37-.72.37-.36-.37-.71-.37-.3599.17-.7199.17-.3601-.25-.7201-.25-.36.44-.72.44-.36-.2-.72-.2-.3599-.04-.7199-.04-.3601-.31-.7201-.31-.36.43-.72.43-.36 0-.72 0-.36-.18-.72-.18-.36-.29-.72-.29-.36.65-.72.65-.36-.24-.72-.24-.36.19-.72.19-.3599-.58-.7199-.58-.3601.33-.7201.33-.36-.03-.73-.03-.36-.28-.73-.28-.6.72-.87.47c-.24-.22-.1-.49-.1-.82s.18-.33.18-.66-.11-.36.13-.59c.26-.24.29-.16.65-.16s.36-.15.72-.15.3601.23.7101.23.3599.03.7199.03.36.18.72.18.36-.39.72-.39.3601.29.7201.29.3599-.26.7199-.26.36.44.72.44.36-.13.72-.13.3601-.08.7201-.08.3599-.22.7199-.22.36.37.72.37.36-.23.72-.23.36-.15.72-.15.36.16.72.16.36.32.72.32.36.01.72.01.36-.54.73-.54.3601-.03.7301-.03.6399-.2.9099.05c.24.22-.36.53-.36.86s.41.24.51.56c.14.43.08.72-.17.94z" stroke="#76fb8f" stroke-width="2"/><path d="m75.9698 60.01c0 .24.07.51.05.75s-.2801.46-.3301.7-.4799.34-.5599.57.38.68.27.9-.31.37-.41.58-.48.27-.6.48-.32.36-.43.56-.21.42-.32.62-.17.44-.29.64-.13.47-.24.67-.0401.52-.1601.72-.4799.27-.5999.47-.36.33-.48.53-.1999.43-.3099.63.0499.57-.0701.77-.24.4-.35.61-.05.51-.17.71c-.13.23-.92.16-1.05-.07-.18-.32-.3099-.25-.4899-.56s.31-.59.13-.91-.2901-.25-.4701-.57-.31-.24-.49-.56-.2301-.29-.4101-.61-.31-.25-.49-.57.2701-.57.1001-.89c-.12-.21-.5-.28-.63-.49s-.16-.47-.29-.69 0-.57-.12-.78-.7199-.17-.8299-.39-.2502-.44-.3602-.66.34-.69.25-.92-.3-.39-.38-.63-.5299-.38-.5799-.62.07-.52.05-.77-.1099-.51-.0999-.76.0299-.51.0799-.76.52-.35.61-.58-.1-.57.02-.78.32-.38.46-.57.44-.24.61-.42.1-.61.29-.76.56-.05.77-.18.5-.02.73-.11.24-.77.48-.84.55.18.79.14.48-.36.73-.36c.24 0 .48.31.71.34s.5099-.06.7299 0 .5501-.03.7601.06.25.58.45.71.33.32.51.47.67-.02.84.15-.0801.68.0599.87.5002.23.6202.43.4799.32.5699.54-.11.56-.05.79-.21.51-.17.75.55.42.56.65z" stroke="#76fb8f" stroke-width="2"/><path d="m72.1096 59.67c0 .24.12.52.03.73s-.36.35-.53.51-.31.39-.53.48-.47-.26-.71-.26-.4899.3-.6899.21-.5401-.11-.7001-.28.07-.59-.02-.81-.61-.35-.61-.59.29-.48.38-.69.46-.19.62-.35.2501-.27.4601-.36.3399-.42.5799-.42.48.08.69.16.5501.09.7201.25.1799.49.2699.71.07.45.07.69z" stroke="#76fb8f" stroke-width="2"/><path d="m26.71 60.55c0-.32-.44-.31-.44-.63s.42-.33.41-.65-.5-.31-.51-.63.02-.32.01-.64c0-.26.46-.47.55-.7s-.08-.68.1-.86.66.06.89-.04.38-.54.64-.54c.39 0 .39.15.78.14s.39.31.78.3.3799-.57.7699-.58" stroke="#76fb8f" stroke-width="2"/><path d="m36.73 56.17h.64c.32 0 .32-.04.64-.05s.32 0 .64 0 .32-.02.64-.03c.26 0 .57-.22.8-.13s.26.52.44.7.63.17.73.41.11.54.11.81c0 .39-.02.39-.01.77s-.0501.39-.0401.78.0601.39.0701.77" stroke="#76fb8f" stroke-width="2"/><path d="m41.0498 66.4c0 .32.06.32.07.64s.5999.31.5999.63-.41.33-.4.65.03.32.03.64c0 .26-.02.49-.11.72s-.1999.46-.3699.64-.3901.29-.6301.39-.4499-.03-.7199-.03c-.39 0-.38.45-.77.45s-.3901.12-.7701.13-.4-.54-.78-.53" stroke="#76fb8f" stroke-width="2"/><path d="m31.1699 70.95c-.32 0-.32.15-.64.16s-.32-.25-.64-.25-.32-.03-.64-.03-.31.4-.63.41c-.26 0-.4401-.5-.6701-.59s-.4199-.14-.5999-.32-.37-.3-.47-.54-.5401-.44-.5401-.7c0-.39.0501-.39.0401-.77s.5699-.4.5699-.79-.1699-.39-.1799-.77" stroke="#76fb8f" stroke-width="2"/><path d="m32.4897 64.01c.31 0 .3101.05.6301.05.22 0 .4599 0 .5899-.15s.3001-.39.3001-.6c0-.36-.1501-.36-.1501-.71s.14-.36.13-.72-.05-.36-.05-.72 0-.36 0-.72" stroke="#76fb8f" stroke-width="2"/><path d="m37.0298 62.64c0-.37-.2901-.37-.2901-.74s.2601-.38.2601-.75.03-.38.02-.75" stroke="#76fb8f" stroke-width="2"/><path d="m30.4301 62.74c0-.37.0999-.38.0899-.75s-.14-.37-.15-.75-.15-.37-.16-.75" stroke="#76fb8f" stroke-width="2"/><path d="m30.73 66.21c.18.18.68-.03.89.11s.27.57.51.67.56-.04.82.01.51.02.79.02.54.06.8 0 .61.12.85.01.2-.69.41-.84.64 0 .82-.19" stroke="#76fb8f" stroke-width="2"/><path d="m36.2099 38.55c0 .26-.0399.43-.0999.67s.08.53-.05.75-.4401.25-.6101.42-.3399.25-.5599.38-.24.7-.48.76-.54.12-.8.12-.58 0-.81-.07-.28-.64-.5-.76-.51-.1-.68-.28-.59-.21-.72-.43-.0001-.58-.0701-.82.26-.49.26-.74-.44-.54-.37-.78.0201-.6.1401-.81.71-.1.89-.28.34-.28.55-.41.25-.71.5-.77.56.4.82.4.42.14.65.21.52-.09.73.04.43.24.6.41.3.38.43.59-.0101.49.0499.73.13.41.13.66z" stroke="#76fb8f" stroke-width="2"/><path d="m36.6497 35.44c0 .34-.5.34-.5.69s.5899.34.5899.69-.54.34-.54.68.3.34.3.68.2901.34.2901.69-.24.34-.24.69-.2201.35-.2201.69-.1499.35-.1499.69c0 .25.51.41.58.6.09.22.27.25.42.41s.0999.61.3099.69.48.04.71.05.3901-.23.6001-.31.42-.05.61-.2c.17-.14.14-.38.26-.59.19-.32.4699-.15.6499-.47.09-.21.11-.46.17-.68s.3-.41.34-.63-.38-.51-.36-.75.2101-.43.2101-.66.1-.46.08-.69-.1001-.45-.1501-.67.28-.56.21-.78-.24-.43-.33-.65-.16-.45-.26-.64-.1799-.45-.3099-.63-.2701-.39-.4201-.57-.3199-.36-.4699-.52-.6401.02-.8101-.12-.1099-.61-.2999-.73-.4001-.26-.5901-.37-.63.27-.83.18-.2399-.7-.4599-.77-.54.18-.77.13-.4501-.2-.6801-.22-.47 0-.71 0-.45.24-.68.27-.4599.01-.6799.06-.5501-.23-.7701-.16-.2499.67-.4599.76-.54-.13-.74-.02-.5101.04-.7001.17-.3699.29-.5399.44.0499.71-.1101.87-.7-.04-.84.13.0501.6-.0699.78-.25.35-.36.55-.17.39-.25.6-.33.36-.4.58-.1.45-.14.67.1099.47.0799.7.0501.43.0501.67-.1801.45-.1601.68-.2599.51-.2199.74.08.48.15.7.42.35.51.56.1799.4.2899.6.3201.31.4401.5.22.38.36.55.2999.3.4599.46.32.29.49.43.3701.22.5501.34.1299.65.3199.75.46.11.67.2.47.07.69.14.3901.41.6101.45.5299-.36.7599-.34.44.06.68.06" stroke="#76fb8f" stroke-width="2"/><path d="m83.3198 36.13c.36 0 .3601.02.7201.02s.36.49.72.49.36-.58.72-.58.3599.53.7199.53.3601-.45.7301-.45.36.28.72.28.36-.09.72-.09.3599-.18.7199-.18.36-.14.73-.14.3601.61.7301.61.36-.12.73-.12.36-.32.73-.32" stroke="#000" stroke-width="2.45"/><path d="m83.3198 40.5c.36 0 .3601.48.7101.48s.36-.32.71-.32.3599.36.7099.36.3601-.36.7101-.36.36-.22.72-.22.36.6.72.6" stroke="#000" stroke-width="2.45"/><path d="m83.3198 61.57c.36 0 .3601-.52.7201-.52s.36.07.72.07.36-.03.72-.03.3599.52.7199.52.3601-.3.7301-.3.36-.24.72-.24.36.32.72.32.3599.26.7199.26.36-.49.73-.49.3601.31.7301.31.36-.05.73-.05.36-.3.73-.3" stroke="#000" stroke-width="2.45"/><path d="m83.3198 65.71c.36 0 .3601.13.7101.13s.36.29.71.29.3599-.16.7099-.16.3601-.12.7101-.12.36.02.72.02.36.17.72.17" stroke="#000" stroke-width="2.45"/><path d="m47.3198 36.33c.36 0 .3601.22.7201.22s.36-.32.72-.32.36.14.72.14.3599-.1.7199-.1.3601-.13.7301-.13.36.32.72.32.36-.3.72-.3.3599.07.7199.07.36.32.73.32.3601-.32.7301-.32.36-.11.73-.11.36.46.73.46" stroke="#000" stroke-width="2.45"/><path d="m47.3198 41.09c.36 0 .3601-.12.7101-.12s.36.08.71.08.3599-.31.7099-.31.3601.34.7101.34.36-.44.72-.44h.72" stroke="#000" stroke-width="2.45"/><path d="m47.3198 61.13c.36 0 .3601.01.7201.01s.36.19.72.19.36.09.72.09.3599.14.7199.14.3601-.23.7301-.23.36-.04.72-.04.36-.29.72-.29.3599.36.7199.36.36.26.73.26.3601-.62.7301-.62.36.56.73.56.36-.47.73-.47" stroke="#000" stroke-width="2.45"/><path d="m47.3198 66.12c.36 0 .3601-.22.7101-.22s.36.21.71.21.3599-.21.7099-.21.3601-.07.7101-.07.36-.04.72-.04.36-.21.72-.21" stroke="#000" stroke-width="2.45"/></g></svg>