<svg fill="none" height="126" viewBox="0 0 120 126" width="120" xmlns="http://www.w3.org/2000/svg"><path d="m62.9601 55.43c0 .36-.0699.36-.0699.71s.5099.36.5099.72-.4199.36-.4199.72.18.36.18.72.2399.36.2399.72-.0499.36-.0499.72-.4501.36-.4501.72.1301.36.1301.72.2999.36.2999.72-.3899.36-.3899.71.1699.36.1699.71.01.36.01.71-.0199.36-.0199.71-.2301.36-.2301.71-.1399.36-.1399.71.1299.36.1299.71.29.36.29.71-.03.36-.03.71-.1199.36-.1199.72.06.36.06.72.0599.36.0599.72.2601.36.2601.72-.3901.36-.3901.72.34.36.34.72-.25.36-.25.72.1401.36.1401.72-.46.36-.46.72.25.36.25.71.3899.36.3899.71-.4299.36-.4299.71-.15.36-.15.71.5.36.5.71-.32.36-.32.71.19.36.19.71.13.36.13.72-.22.36-.22.72-.2001.36-.2001.72.0101.36.0101.72.09.36.09.72.1199.36.1199.71-.28.36-.28.71.18.36.18.71-.0699.36-.0699.71-.25.36-.25.71.3499.36.3499.71v.71c0 .35.0801.36.0801.71s.16.36.16.71-.4201.36-.4201.71.3801.36.3801.71-.33.36-.33.72.4499.36.4499.72-.5499.36-.5499.72.38.36.38.72-.0901.36-.0901.72.16.36.16.72.0501.36.0501.72-.28.36-.28.72.3199.36.3199.72-.2899.36-.2899.72-.13.36-.13.72-.0401.36-.0401.72.4501.36.4501.72-.03.36-.03.72-.5.36-.5.72.19.36.19.72-.1401.36-.1401.72.06.36.06.72.4.36.4.72-.3199.36-.3199.72-.1.36-.1.72.37.36.37.72-.18.36-.18.72-.29.36-.29.72.1499.36.1499.71.0801.36.0801.71.25.36.25.72-.44.36-.44.72.54.36.54.72-.1501.36-.1501.72.12.36.12.72.0201.36.0201.72-.49.36-.49.72.12.36.12.72.25.36.25.72.0699.36.0699.72-.31.36-.31.72.22.36.22.72-.1699.36-.1699.72.2699.36.2699.72-.38.36-.38.72-.0199.36-.0199.73.2.36.2.73c0 .23-.27.4-.35.6s-.2401.29-.3901.45-.07.72-.28.81-.5399-.41-.7699-.41c-.4 0-.4001-.02-.8001-.02s-.3999.14-.7999.14-.4.41-.8.41c-.23 0-.34-.59-.54-.68s-.4301-.02-.5801-.18-.34-.27-.43-.48.03-.41.03-.64c0-.36-.1099-.36-.1099-.71s-.34-.36-.34-.72-.07-.36-.07-.72.6-.36.6-.72-.4001-.36-.4001-.72.07-.36.07-.72.1001-.36.1001-.72-.36-.36-.36-.72.55-.36.55-.72-.22-.36-.22-.71-.0401-.36-.0401-.71 0-.36 0-.71-.1699-.36-.1699-.71.35-.36.35-.71 0-.36 0-.71-.33-.36-.33-.71.41-.36.41-.71-.18-.36-.18-.71-.13-.36-.13-.72.4-.36.4-.72-.3201-.36-.3201-.72-.2599-.36-.2599-.72.34-.36.34-.72.0499-.36.0499-.72-.1499-.36-.1499-.72.06-.36.06-.72-.1701-.36-.1701-.72.22-.36.22-.71.1801-.36.1801-.71-.2-.36-.2-.71-.2601-.36-.2601-.71.0901-.36.0901-.71.02-.36.02-.71.4299-.36.4299-.71-.26-.36-.26-.72.1-.36.1-.72-.0199-.36-.0199-.72-.0401-.36-.0401-.72-.1699-.36-.1699-.72.3899-.36.3899-.71-.6399-.36-.6399-.71.24-.36.24-.71.31-.36.31-.71.1-.36.1-.71-.3301-.36-.3301-.71.32-.36.32-.71-.4299-.36-.4299-.71.12-.36.12-.71.25-.36.25-.71-.2601-.36-.2601-.71-.2899-.36-.2899-.72.53-.36.53-.72-.45-.36-.45-.72.5599-.36.5599-.72-.26-.36-.26-.72.2101-.36.2101-.72-.1101-.36-.1101-.72-.0499-.36-.0499-.72-.44-.36-.44-.72.4899-.36.4899-.72-.1999-.36-.1999-.72-.1-.36-.1-.72.07-.36.07-.72-.0801-.36-.0801-.72-.16-.36-.16-.72.6501-.36.6501-.72-.5-.36-.5-.72.1999-.36.1999-.72-.35-.36-.35-.72.2101-.36.2101-.72.18-.36.18-.72.0199-.36.0199-.72-.35-.36-.35-.72.2001-.36.2001-.72-.3201-.36-.3201-.71.15-.36.15-.71.32-.36.32-.72-.2999-.36-.2999-.72.2599-.36.2599-.72.0801-.36.0801-.72.06-.36.06-.72-.12-.36-.12-.72.18-.36.18-.72-.0701-.36-.0701-.72-.0399-.36-.0399-.72-.48-.36-.48-.72.5799-.36.5799-.72-.47-.36-.47-.72.22-.36.22-.72.16-.36.16-.72.0501-.36.0501-.72-.4601-.36-.4601-.73.19-.36.19-.73c0-.23.2501-.39.3301-.59s.21-.31.37-.47.2199-.36.4299-.45.39 0 .62 0c.4 0 .4001-.5.8001-.5s.3999.24.7999.24.4001.3.8001.3c.23 0 .5299-.37.7299-.28s.4701.25.6301.4.34.41.42.62-.1801.51-.1801.74z" fill="#cebefd"/><path d="m62.9601 55.43c0 .36-.0699.36-.0699.71s.5099.36.5099.72-.4199.36-.4199.72.18.36.18.72.2399.36.2399.72-.0499.36-.0499.72-.4501.36-.4501.72.1301.36.1301.72.2999.36.2999.72-.3899.36-.3899.71.1699.36.1699.71.01.36.01.71-.0199.36-.0199.71-.2301.36-.2301.71-.1399.36-.1399.71.1299.36.1299.71.29.36.29.71-.03.36-.03.71-.1199.36-.1199.72.06.36.06.72.0599.36.0599.72.2601.36.2601.72-.3901.36-.3901.72.34.36.34.72-.25.36-.25.72.1401.36.1401.72-.46.36-.46.72.25.36.25.71.3899.36.3899.71-.4299.36-.4299.71-.15.36-.15.71.5.36.5.71-.32.36-.32.71.19.36.19.71.13.36.13.72-.22.36-.22.72-.2001.36-.2001.72.0101.36.0101.72.09.36.09.72.1199.36.1199.71-.28.36-.28.71.18.36.18.71-.0699.36-.0699.71-.25.36-.25.71.3499.36.3499.71v.71c0 .35.0801.36.0801.71s.16.36.16.71-.4201.36-.4201.71.3801.36.3801.71-.33.36-.33.72.4499.36.4499.72-.5499.36-.5499.72.38.36.38.72-.0901.36-.0901.72.16.36.16.72.0501.36.0501.72-.28.36-.28.72.3199.36.3199.72-.2899.36-.2899.72-.13.36-.13.72-.0401.36-.0401.72.4501.36.4501.72-.03.36-.03.72-.5.36-.5.72.19.36.19.72-.1401.36-.1401.72.06.36.06.72.4.36.4.72-.3199.36-.3199.72-.1.36-.1.72.37.36.37.72-.18.36-.18.72-.29.36-.29.72.1499.36.1499.71.0801.36.0801.71.25.36.25.72-.44.36-.44.72.54.36.54.72-.1501.36-.1501.72.12.36.12.72.0201.36.0201.72-.49.36-.49.72.12.36.12.72.25.36.25.72.0699.36.0699.72-.31.36-.31.72.22.36.22.72-.1699.36-.1699.72.2699.36.2699.72-.38.36-.38.72-.0199.36-.0199.73.2.36.2.73c0 .23-.27.4-.35.6s-.2401.29-.3901.45-.07.72-.28.81-.5399-.41-.7699-.41c-.4 0-.4001-.02-.8001-.02s-.3999.14-.7999.14-.4.41-.8.41c-.23 0-.34-.59-.54-.68s-.4301-.02-.5801-.18-.34-.27-.43-.48.03-.41.03-.64c0-.36-.1099-.36-.1099-.71s-.34-.36-.34-.72-.07-.36-.07-.72.6-.36.6-.72-.4001-.36-.4001-.72.07-.36.07-.72.1001-.36.1001-.72-.36-.36-.36-.72.55-.36.55-.72-.22-.36-.22-.71-.0401-.36-.0401-.71 0-.36 0-.71-.1699-.36-.1699-.71.35-.36.35-.71 0-.36 0-.71-.33-.36-.33-.71.41-.36.41-.71-.18-.36-.18-.71-.13-.36-.13-.72.4-.36.4-.72-.3201-.36-.3201-.72-.2599-.36-.2599-.72.34-.36.34-.72.0499-.36.0499-.72-.1499-.36-.1499-.72.06-.36.06-.72-.1701-.36-.1701-.72.22-.36.22-.71.1801-.36.1801-.71-.2-.36-.2-.71-.2601-.36-.2601-.71.0901-.36.0901-.71.02-.36.02-.71.4299-.36.4299-.71-.26-.36-.26-.72.1-.36.1-.72-.0199-.36-.0199-.72-.0401-.36-.0401-.72-.1699-.36-.1699-.72.3899-.36.3899-.71-.6399-.36-.6399-.71.24-.36.24-.71.31-.36.31-.71.1-.36.1-.71-.3301-.36-.3301-.71.32-.36.32-.71-.4299-.36-.4299-.71.12-.36.12-.71.25-.36.25-.71-.2601-.36-.2601-.71-.2899-.36-.2899-.72.53-.36.53-.72-.45-.36-.45-.72.5599-.36.5599-.72-.26-.36-.26-.72.2101-.36.2101-.72-.1101-.36-.1101-.72-.0499-.36-.0499-.72-.44-.36-.44-.72.4899-.36.4899-.72-.1999-.36-.1999-.72-.1-.36-.1-.72.07-.36.07-.72-.0801-.36-.0801-.72-.16-.36-.16-.72.6501-.36.6501-.72-.5-.36-.5-.72.1999-.36.1999-.72-.35-.36-.35-.72.2101-.36.2101-.72.18-.36.18-.72.0199-.36.0199-.72-.35-.36-.35-.72.2001-.36.2001-.72-.3201-.36-.3201-.71.15-.36.15-.71.32-.36.32-.72-.2999-.36-.2999-.72.2599-.36.2599-.72.0801-.36.0801-.72.06-.36.06-.72-.12-.36-.12-.72.18-.36.18-.72-.0701-.36-.0701-.72-.0399-.36-.0399-.72-.48-.36-.48-.72.5799-.36.5799-.72-.47-.36-.47-.72.22-.36.22-.72.16-.36.16-.72.0501-.36.0501-.72-.4601-.36-.4601-.73.19-.36.19-.73c0-.23.2501-.39.3301-.59s.21-.31.37-.47.2199-.36.4299-.45.39 0 .62 0c.4 0 .4001-.5.8001-.5s.3999.24.7999.24.4001.3.8001.3c.23 0 .5299-.37.7299-.28s.4701.25.6301.4.34.41.42.62-.1801.51-.1801.74z" stroke="#000" stroke-linecap="round" stroke-linejoin="round" stroke-width="2.6"/><path d="m66.7501 10.66c-.36 0-.36.04-.73.04s-.36.07-.73.07-.36-.07-.73-.07-.37-.28-.73-.28-.36.14-.73.14-.36-.05-.73-.05-.3599.56-.7299.56-.3701-.08-.7301-.08-.37-.51-.73-.51-.37.02-.73.02-.37.37-.73.37-.37.16-.73.16-.37-.52-.73-.52-.37.49-.73.49-.37-.33-.73-.33-.37-.05-.74-.05-.37.1-.74.1-.37-.15-.74-.15c-.22 0-.49.28-.68.2s-.19-.47-.34-.62-.42-.18999-.5-.38999-.34-.41001-.34-.63001c0-.36.18-.35998.18-.72998s.08-.37004.08-.73004-.04-.36998-.04-.72998-.3-.36998-.3-.72998.23-.37004.23-.73004c0-.26.32-.45995.37-.69995s-.12-.54002-.02-.77002.46-.3.6-.5-.12-.74998.06-.91998.65-.02003.86-.15003.36-.36001.59-.45001.49-.04997.74-.08997.46-.34002.72-.34002c.36 0 .36-.01001.73-.01001s.37-.01001.73-.01001.36.07001.73.07001.36.10003.73.10003.37-.25.73-.25.3601.12.7301.12.3599.36999.7299.36999.36-.11999.73-.11999.37.08996.73.08996.37-.44995.73-.44995.37.21997.73.21997.37.21002.73.21002c.26 0 .52-.24001.76-.20001s.3901.4.6101.5.7099-.24998.9099-.10998.05.72997.23.90997.64.1.78.31.34.42003.43.66003-.1499.56995-.0999.81995c.0499.25.5299.47003.5299.72003 0 .36-.21.35998-.21.72998s-.26.37004-.26.73004-.14.36998-.14.72998.0801.36998.0801.72998.5199.36998.5199.72998c0 .22-.08.55005-.16.74005-.08.18998-.4599.28998-.6099.43998s-.27.44-.4701.52c-.2.08-.48-.17-.7-.17z" fill="#fff"/><path d="m53.5602 2.22998c-.2.14-.22.64001-.39.82001s-.78.01003-.91.22003-.19.50998-.28.72998.03.54003-.01.78003-.17.47998-.17.72998c0 .36-.08.35998-.08.72998s.39.37004.39.73004-.41.36998-.41.72998.43.36998.43.72998-.07.36998-.07.72998c0 .22-.05.42005.03.61005s.22.34998.37.49998.25.41.45.49.44.36.66.36h.7c.35 0 .35-.54.7-.54s.35.33.7.33.35-.34.7-.34.35.33.7.33.35-.39.7-.39.35.62.7.62.35-.34.7-.34.35.27.7.27h.71c.36 0 .35-.15.7-.15s.35-.26.7-.26.35-.18.7-.18.35.45.71.45.35-.07.71-.07.35-.16.71-.16.35.06.7 0c-.23-.07-.35-.32-.57-.4s-.54.12-.76.03-.37-.34999-.59-.44c-.22-.09-.39-.27999-.61-.36999s-.51-.00999-.72-.10999-.5-.06003-.71-.16003-.52-.02996-.73-.14996-.21-.60003-.41-.72003-.31-.39001-.51-.51001-.6.07-.8-.06-.56-.02999-.75-.16999c-.19-.13999-.31-.39002-.5-.53002s-.12-.60995-.3-.75995-.29-.38003-.47-.53003-.57-.06998-.74-.22998-.22-.44999-.39-.60999-.36-.30004-.52-.48004-.24-.40997-.4-.58997-.65-.06005-.8-.24005-.32-.35998-.47-.54998-.07-.69001-.21-.88001z" fill="#cebefd"/><path d="m66.7504 11.11c-.36 0-.36-.44-.73-.44s-.36-.13-.73-.13-.36.57-.73.57-.37-.29-.73-.29-.36.06-.73.06-.36-.3-.73-.3-.36.27-.73.27-.37-.25-.73-.25-.37.49-.73.49-.37-.62-.73-.62-.37.21-.73.21-.37.36-.73.36-.37-.33-.73-.33-.37.36-.73.36-.37-.08-.73-.08-.37.1-.74.1-.37 0-.74 0-.37-.48-.74-.48c-.22 0-.3-.19-.49-.27s-.27-.12-.42-.27c-.15-.14999-.44-.12-.52-.32s-.19-.37003-.19-.59003c0-.36.2-.35998.2-.72998s-.03-.36998-.03-.72998-.3-.36998-.3-.72998.05-.37004.05-.73004-.19-.36998-.19-.72998c0-.26.57-.45.62-.69s-.32-.61003-.23-.84003.45-.33999.59-.54999.08-.59997.26-.77997.34-.46003.55-.60003.71.25002.94.15002.31-.71001.56-.76001.55.12.81.12c.36 0 .36-.14002.73-.14002s.37.07001.73.07001.36.34003.73.34003.36-.31.73-.31.37-.04999.73-.04999.36-.11004.73-.11004.36.55999.73.55999.36-.54998.73-.54998.37.05999.73.05999.37.35999.73.35999.37-.13001.73-.13001.37.06006.73.06006c.26 0 .45.22997.69.27997s.52-.1.75 0 .53.08003.74.22003.26.46997.44.64997.66.12001.8.33001.14.54002.24.77002.36.45996.41.70996-.56.55-.56.81c0 .36.4.36004.4.73004s.18.36998.18.72998v.72998c0 .36-.6.36998-.6.72998s.48.37004.48.73004c0 .22-.36.35999-.44.54999s.08.55-.07.7-.34.39-.54.47-.49.24-.71.24z" stroke="#000" stroke-linecap="round" stroke-linejoin="round" stroke-width="2.6"/><path d="m109.151 47.99c-.07-.23.39-.61.32-.84s-.26-.42-.34-.65-.32-.4-.4-.63.11-.55.03-.77-.43-.36-.51-.58-.18-.45-.26-.67-.27-.41-.36-.63-.06-.49-.15-.71-.41-.35-.5-.57.26-.64.16-.86-.09-.49-.19-.71-.58-.26-.68-.48-.12-.47-.23-.69-.28-.39-.39-.61-.26-.4-.37-.62-.17-.45-.29-.66-.35-.35-.47-.56-.33-.36-.45-.57-.16-.46-.29-.66.1-.63-.03-.83-.61-.18-.74-.38-.15-.47-.28-.67-.47-.26-.61-.45-.13-.49-.27-.69-.22-.43-.37-.62-.19-.46-.33-.65-.32-.36-.47-.55-.02-.6-.17-.79-.6304-.11-.7804-.3-.39-.3-.54-.48-.11-.54-.27-.72-.4-.29-.5601-.47c-.16-.18-.0899-.57-.25-.75-.16-.18-.3999-.28-.5699-.46s-.7 0-.87-.17-.12-.55-.29-.72-.41-.26-.59-.43-.21-.47-.39-.64-.44-.23-.61-.4-.38-.3-.55-.46-.26-.43-.44-.59-.21-.5-.39-.66-.34-.35-.53-.5-.66.05-.85-.1-.11-.64-.3-.79-.57-.05-.76-.2-.38-.3-.57-.44-.43-.23-.62-.37-.45-.19-.65-.33-.47-.16-.67-.3-.42-.23-.62-.36-.17-.62-.37-.75-.4701-.15-.67-.28c-.2-.13-.35-.36-.55-.48s-.38-.31-.59-.43-.39-.3-.6-.41-.68.25-.9.14-.4-.26-.61-.37-.41-.24-.63-.35-.43-.2-.65-.31-.34-.39-.56-.49-.39-.3-.61-.4-.34-.43-.56-.52-.64.28-.86.18-.35-.4-.58-.49-.44-.19-.67-.27-.58.19-.81.11-.4-.3-.62-.38-.33-.53-.55-.6-.5 0-.73-.08-.48-.08-.71-.15-.37-.44-.6-.51-.52.08-.75.01-.52.1-.75.04-.45-.18-.68-.24-.45-.18-.68-.23-.4-.42-.64-.47-.49 0-.73-.05-.5.05-.74 0-.45-.19-.69-.23-.48-.04-.72-.08-.52.26-.76.22-.46-.14-.7-.17-.46-.14-.7-.17-.47-.1-.71-.12-.46-.3-.7-.32-.5.15-.74.14-.47-.24-.71-.25-.51.51-.75.5-.47-.42-.71-.42-.48.17-.73.17-.48-.33-.72-.33-.48.51-.72.52-.49-.44-.73-.43-.49-.05-.73-.04-.47.38-.71.39-.48.09-.71.11-.46.24-.7.26-.53-.47-.76-.45-.45.32-.69.35-.45.25-.69.28-.49-.02-.72.01-.55-.43-.79-.39-.46.17-.7.21-.46.19-.69.24-.44.29-.67.33-.51-.07-.74-.02-.38.49-.62.54-.53-.18-.77-.12-.39.42-.62.48-.63-.49-.86-.43-.36.52-.59.58-.49.04-.72.11-.4.34-.63.41-.49.04-.72.12-.4.31-.63.38-.62-.29-.84-.21-.37.39-.59.48-.49.07-.71.16-.41.27-.63.36-.58-.12-.8-.02-.18.79-.4.89-.46.13-.68.23-.58-.11-.8 0-.34.4-.55.51-.55-.01-.76.1-.52.06-.73.17-.38.32-.59.43-.34.37-.55.49-.4.27-.61.39-.31.41-.52.54-.44.2-.64.33-.58-.02-.78.12-.21.55-.41.68-.39.28-.58.42-.38.29-.58.43-.62-.03-.81.11-.04.75-.23.9-.64-.05-.83.1-.26.45-.44.6-.56.07-.75.23-.38.3-.56.46-.41.26-.59.42-.32.36-.5.52-.18.52-.35.68-.2.49-.37.65-.71-.05-.88.12-.27.41-.44.58-.02.65-.19.82-.64.05-.81.22-.43.26-.6.43 0 .64-.16.82-.53.17-.69.35-.08.56-.23.75-.47.23-.63.42-.46.25-.61.44-.32.37-.46.56-.33.36-.47.55-.12.51-.26.71.05.62-.09.82-.67.12-.8.32.07.63-.06.83-.33.36-.46.56-.1.5-.23.7-.28.39-.4.59-.74.12-.86.32.04.58-.08.79-.38.34-.49.55-.13.47-.25.69-.44.31-.55.53.11.59 0 .81-.19.44-.29.66-.52.29-.62.51.27.65.17.87-.36.36-.46.58-.49.32-.58.54.04.53-.05.75-.46.33-.54.55.07.53-.02.75-.34.39-.41.61-.11.47-.19.69.26.58.18.81-.66.29-.72.52-.22.43-.28.66.14.53.08.76.11.52.05.75-.57.35-.62.58c-.05004.23.14.52.08.75s-.02.48-.07.71c-.05003.23-.12003.46-.17003.69s-.33001.42-.37001.66.04.49 0 .72.28001.52.24001.76-.32001.43-.35001.67.12001.49.09001.73-.27001.44-.29001.68.07001.48.05001.72-.41001.44-.43001.68.4.51.39.74-.5.45-.51.68.07.48.06.72-.14999.47-.14999.71.56999.49.55999.72-.55999.47-.55999.71.14999.48.14999.72.05.48.05.72.43001.46.44001.7-.35.5-.34.74.22999.47.23999.71-.35.51-.33.75.22.46.24.7.36001.44.38001.68-.16001.5-.13001.74.2.46.23.69.14.46.17.7.12.46.16.7-.43999.56-.39999.8.35.42.39.66.38003.41.43003.64.09.47.15.7.14.45.2.69-.04.5.01.73-.06.51 0 .74-.1.53-.03.76.7.29.76.52-.33.6-.26.83.43.36.51.59.08.48.16.71-.05.53.03.75.34.38.43.61.44.34.53.56.2.43.29.65-.38.68-.28.9.68.22.78.44.06.5.16.72-.09.58.01.79.46.31.57.52.02.53.13.74.43.32.54.53.11.49.22.7.05.53.16.74.69.15.82.36.19.44.32.65.32.36.44.57-.08.62.05.82.12.5.26.7.41.31.55.5.67.11.81.31-.13.68.01.87.67.1.82.29-.07.66.07.85.59.14.74.33.25.41.4.6.18.48.33.66.48.22.64.4-.12.75.04.93.41.28.57.46.35.33.51.51.48.2.65.37.26.42.43.59.27.41.44.58.27.42.44.59.63.03.81.19.15.55.33.71.7-.07.88.09.05.68.23.83.27.43.46.58.43.23.62.38.67-.07.86.07.27.43.46.58.26.45.46.59.32.38.52.52.35.35.54.48.65-.1.85.04.47.15.67.28.39.28.59.41.44.19.64.32.13.71.34.83.54.02.75.14.3.45.51.57.62-.13.83-.01.35.36.56.48.57-.08.79.03.22.64.43.75.35.39.57.49.65-.28.87-.18.47.11.69.21.21.74.43.84.52.01.74.1.62-.29.85-.2.37.38.59.46.44.18.67.25.44.19.67.27.41.28.64.36.42.27.65.34.46.14.69.2.55-.17.78-.11.4.36.63.42.48.06.71.12.54-.23.78-.18.39.45.63.5.43.29.67.34.51-.13.75-.09.5-.06.73-.02.48.04.71.08.44.32.67.36.46.19.7.22.52-.34.76-.32.43.48.67.5.48.08.72.1.48 0 .72.02.49-.1.73-.09.48 0 .72 0 .49-.34.73-.33.48.02.72.03.4799 0 .7199 0c.2401 0 .48.42.7201.42.24 0 .48.05.72.05s.46-.49.7-.5.5.36.74.35.49.13.73.11.45-.4.69-.42.4599-.18.6999-.21c.2401-.03.4701-.09.7101-.12s.47-.11.7-.14.55.49.79.46.42-.47.65-.51.5.06.73.02.52.18.76.14.43-.33.6599-.37c.23-.04.5001.04.7301-.01s.39-.45.62-.51.59.42.83.37.39-.42.62-.48.52.1.75.03.46-.13.69-.2.41-.32.64-.39.53.09.76.01.37-.41.6-.48.4699-.1.7-.18c.23-.08.49-.07.71-.15s.29-.58.52-.66.5-.02.73-.11.46-.15.68-.24.58.15.8.05.3999-.29.6199-.39c.2201-.1.4601-.16.6801-.26s.24-.62.45-.72.52-.03.73-.14.49-.09.71-.2.29-.48.5-.6.65.19.86.07.35-.37.55-.49.39-.29.6-.41.25-.51.46-.63.68.19.89.06.32-.4.52-.53.24-.51.44-.64.6699.12.8599-.01c.1901-.13.0801-.72.2801-.86s.6.01.79-.13.24-.47.44-.62.39-.28.58-.42.63.03.82-.12.35-.33.54-.48.28-.42.46-.57.31-.38.49-.54.54-.11.72-.27.11-.6.28-.76.35-.32.53-.49.16-.52.33-.69.67 0 .84-.17.37-.31.54-.48.16-.51.33-.68c.1699-.17.41-.27.57-.45s.35-.33.51-.51.03-.61.18-.79.68-.05.83-.23.15-.5.31-.68.4704-.24.6104-.43.11-.52.26-.71.12-.51.26-.7.48-.24.63-.43.07-.53.21-.73.29-.38.42-.58.65-.14.78-.34-.19-.7-.06-.9.81-.05.93-.26.06-.53.19-.73.11-.49.23-.7.06-.51.18-.72.77-.12.88-.33.14-.47.25-.68.26-.41.37-.62-.07-.58.04-.79.33-.37.43-.59.15-.46.25-.68.47-.31.57-.53.24-.42.34-.64-.35-.67-.26-.89.43-.34.52-.56-.02-.52.07-.74.07-.48.16-.71.47-.34.55-.57.19-.44.27-.67-.21-.57-.14-.8.48-.35.55-.58-.23-.57-.17-.8.26-.42.32-.65.11-.46.17-.7.22-.44.27-.67.14-.46.19-.69.25-.43.3-.67.25-.44.29-.68-.28-.54-.24-.78.4-.42.43-.65-.14-.51-.1-.75.29-.44.32-.68-.29-.52-.26-.76.46-.43.49-.67 0-.48.03-.72.2-.47.22-.71-.41-.51-.39-.75.43-.45.44-.69-.4-.5-.39-.74.13-.47.13-.71 0-.48 0-.72.2-.48.2-.72-.21-.48-.22-.71.3-.49.29-.72-.14-.48-.15-.71.1-.49.09-.72-.2-.47-.22-.71.25-.5.23-.74-.67-.42-.69-.65.23-.5.2-.74-.11-.47-.14-.7-.1-.47-.14-.7.07-.49.04-.73.24-.53.2-.76-.54-.39-.58-.62.16-.52.11-.75-.32-.42-.37-.65.16-.52.11-.76-.43-.39-.48-.62-.03-.48-.09-.71-.23-.43-.29-.66-.24-.42-.3-.65z" fill="#fff"/><path d="m78.8106 85.24c-.23.08-.51-.02-.74.05s-.39.38-.62.45-.58-.27-.82-.2-.36.52-.59.58-.52-.07-.75-.01-.44.25-.67.31-.48.05-.72.11-.5501-.27-.7901-.22c-.2399.05-.4899.01-.7199.06s-.37.62-.61.66-.5-.02-.73.02-.51-.14-.75-.1-.5-.13-.74-.1-.44.31-.68.34-.47.1-.71.13-.44.41-.68.43-.52-.28-.76-.26-.48.09-.72.11-.49-.14-.73-.12-.49-.09-.73-.08-.47.13-.71.14-.48 0-.72 0-.47.33-.71.34-.49-.3-.73-.29-.48-.05-.72-.05-.48-.01-.72-.02-.49.32-.73.31-.47-.36-.71-.37-.5.62-.75.61-.47-.39-.71-.41-.48-.12-.72-.14-.48-.07-.72-.09-.5.21-.74.19-.5.21-.75.19-.47-.23-.71-.25-.45-.35-.69-.38-.47-.11-.71-.14-.53.35-.77.32-.45-.31-.69-.34-.47-.15-.7-.18-.48-.06-.72-.1-.47-.14-.7-.18-.48-.04-.72-.09-.56.4-.8.35-.44-.27-.68-.32-.44-.25-.68-.3-.44-.24-.68-.29-.44-.23-.68-.29-.53.17-.77.12-.52.11-.76.05-.34-.62-.58-.68-.55.22-.79.16-.42-.31-.65-.38-.49-.03-.72-.1-.53.1-.77.04-.49-.06-.72-.13-.28-.72-.51-.79-.45-.16-.68-.24-.65.43-.88.36-.46-.14-.69-.22-.36-.43-.59-.51-.42-.25-.65-.34-.57.14-.79.06-.33-.5-.55-.59-.52.01-.75-.07-.47-.14-.69-.23-.39-.33-.61-.42-.39-.33-.61-.42-.59.15-.81.05-.47-.13-.69-.23-.39-.31-.61-.41-.36-.37-.58-.47-.53 0-.75-.1-.23-.63-.45-.73-.58.08-.79-.03-.56.03-.77-.08-.38-.32-.59-.43-.25-.57-.46-.68-.65.18-.86.07-.42-.25-.63-.37c-.2-.13-.18-.62-.38-.75s-.48-.16-.67-.3-.29-.41-.48-.56-.61 0-.8-.16-.39-.29-.58-.45-.29-.41-.47-.57-.49-.19-.66-.35-.16-.54-.33-.71-.48-.2-.65-.37-.06-.61-.23-.78-.41-.27-.57-.45-.58-.13-.74-.31 0-.64-.15-.82-.27-.4-.42-.59-.23-.43-.38-.62-.48-.24-.63-.43-.05-.55-.19-.75-.51-.23-.64-.43-.47-.27-.6-.47.16-.67.03-.87-.36-.34-.48-.55-.3-.38-.42-.59-.41-.32-.53-.53.18-.64.07-.85-.72-.18-.82-.39.06-.57-.04-.78.03-.54-.06-.76-.31-.39-.4-.61-.27-.4-.37-.63-.06-.49-.15003-.71c-.09-.22-.66001-.27-.74001-.49s.34-.63.26-.86-.40999-.29-.48999-.52c-.01.22-.04.35-.05.56s-.31001.42-.32001.64.43001.45.42001.67-.25.43-.25.64.4.44.4.65c0 .24-.37.48-.37.72s.02999.48.03999.72.22.47.23.71.14001.47.15001.71-.44.51-.42.75.05999.48.06999.72.33001.45.35001.69.27.45.3.69-.22.51-.19.74.33999.44.37999.67-.52.56-.48.8.57.39.61.63-.46999.57-.42999.81.47.4.51.64c.04003.24.37003.41.41003.65s-.35.57-.3.8-.05.51 0 .74.44.38.5.62.32.41.38.64-.19.55-.13.78.15.46.22.69.03.49.1.72.54.33.61.55-.02.51.06.74.13.46.22.69.27.41.36.63-.16.58-.07.8.66.25.75.47.1.47.2.69.18.44.28.66.23.42.33.64-.22.63-.11.85.28.4.39.61.14.47.25.68.2.44.31.65.35.36.47.57.4.32.52.53.3.38.42.59-.04.59.08.79.29.39.42.59.26.4.39.6.22.43.36.63.7.1.84.3.09.52.23.72.24.42.38.61.48.23.63.43.03.58.18.77.26.41.41.59.21.45.36.63.44.26.59.44.08.57.24.75.58.13.74.3.3.37.46.55.09.58.25.75.36.33.52.5.54.14.71.31.4.28.57.44.2.48.38.65.4.28.57.44.26.43.44.59.67-.04.85.12.38.28.56.44.15.57.33.72.54.09.73.24.04.72.23.87.35.34.54.48.79-.26.98-.12 0 .82.19.96.7-.16.89-.02.22.53.42.67.6-.04.8.09.24.52.44.64.53.05.74.17.25.51.46.63.43.22.63.34.55 0 .76.12.43.21.64.33.39.28.6.39.38.3.6.41.54-.02.76.08.42.22.64.32.18.76.4.86.5.06.72.16.49.07.71.16.35.41.58.5.65-.34.87-.25.26.67.49.75.55-.12.78-.04.43.22.66.29.5.02.73.09.44.2.67.27.51-.04.74.03.44.19.67.25.41.31.64.37.51-.05.74 0 .38.5.61.55.58-.39.81-.34.38.55.61.59.46.17.69.21.54-.3.78-.26.41.48.65.51.54-.34.77-.31.48.02.72.05.44.34.68.37.46.24.7.26.5-.19.74-.17.4999-.32.74-.3c.24.02.45.54.69.56s.48.13.72.14.5-.51.74-.51.47.35.71.35.48-.37.72-.37.48.33.72.33.48.01.72 0 .4899.17.73.16c.24-.01.46-.43.7-.44s.47-.14.71-.16.5.29.74.27.5.12.73.09.42-.58.66-.6.48.02.72-.01.54.39.7699.36c.23-.03.4401-.35.6701-.39s.5.08.74.04.43-.35.66-.39.44-.26.67-.31.57.37.8.32.39-.46.62-.51.57.32.8.26.35-.58.58-.64.44-.2.67-.27.47-.09.7-.16.5.02.73-.05.49-.04.72-.11.52.06.75-.02.3899-.35.61-.43c.22-.08.41-.28.63-.36s.54.07.76-.01.3-.56.52-.65.67.36.89.27.27-.59.49-.69.48-.11.69-.2.5799.12.7999.02c.2201-.1.2401-.62.4501-.73s.52-.02.74-.13.42-.24.63-.35.26-.54.47-.65.71.31.92.19.26-.52.47-.63.4-.26.61-.38.37-.31.57-.44.51-.09.71-.22.21-.56.41-.69.7.19.9.06.44-.21.64-.35.25-.48.45-.61c.1999-.13.49-.14.68-.28s.28-.43.47-.58.52-.11.71-.26.34-.35.53-.5.44-.22.63-.37-.02-.78.16-.93.37-.3.55-.46.43-.23.61-.39.73.08.9-.08.23-.46.4-.63.43-.24.61-.41.24-.44.41-.61.06-.61.23-.78.7299.03.8899-.14c.1601-.17.0501-.61.2101-.79s.18-.48.34-.66.59-.12.75-.3.03-.61.18-.79.47-.23.62-.42.1-.53.25-.72c.1504-.19.5204-.2.6704-.39s.34-.35.48-.54.42-.29.56-.48-.07-.64.07-.83.64-.13.78-.33.3-.38.43-.58-.09-.64.04-.84.22-.42.35-.63.21-.43.33-.64.66-.16.78-.37-.12-.63 0-.83.62-.2.74-.41-.13-.61-.01-.82.37-.34.48-.56.13-.47.23-.69.25-.41.35-.63.42-.33.52-.55.07-.5.16-.72.41-.34.51-.56.05-.5.14-.72.18-.45.27-.67.05-.5.13-.72.33-.39.42-.61 0-.51.08-.73.43-.36.5-.59-.02-.51.06-.74-.2-.56-.13-.79.71-.29.78-.52-.13-.53-.06-.77-.19-.54-.13-.78.21-.44.27-.67.34-.41.39-.64-.02-.49.03-.73.36-.42.4-.65-.33-.55-.29-.79.64-.37.67-.61-.32-.54-.28-.77-.15-.5-.12-.74.41-.43.44-.66.16-.46.19-.7.22-.46.24-.7-.24-.5-.22-.74.32-.46.33-.7-.39-.51-.37-.75-.17-.48-.16-.72.63-.46.63-.7-.28-.49-.27-.73-.18-.48-.18-.72.54-.51.54-.76-.27-.5-.28-.75-.15-.49-.16-.74-.31-.48-.33-.73.47-.53.45-.78-.3-.48-.32-.73.09-.67.06-.92c-.12.21-.03.73-.15.94s-.28.4-.4.61-.71.15-.83.36.07.61-.05.82-.4.33-.52.53-.14.48-.27.69-.43.3-.56.51.11.64-.02.85-.32.37-.45.58-.68.13-.81.34.02.6-.11.8-.24.43-.37.63-.6.17-.74.37.1.66-.04.86-.53.22-.67.41-.36.34-.5.53.01.62-.13.81-.49.23-.64.42-.44.27-.59.46.17.76.01.94-.76 0-.91.19-.24.43-.4.61-.25.42-.41.6-.3.38-.46.56-.52.18-.69.35.09.75-.08.92-.6404.06-.8104.23-.08.6-.25.77-.26.43-.43.6-.81-.14-.98.02.07.78-.11.94-.6.06-.78.23-.32.37-.5.53-.33.36-.51.52-.34.35-.53.5-.6.02-.79.17-.2.52-.39.67-.5301.09-.73.23c-.2.14-.09.69-.29.83s-.6-.02-.8.12-.4601.18-.66.31c-.2.13-.15.65-.35.78s-.67-.16-.88-.03-.42.23-.63.35-.33.39-.54.51-.39.29-.6.41-.27.51-.49.62-.52.05-.74.16-.43.21-.65.32-.54-.01-.76.09-.47.13-.69.23-.38.33-.6.42-.29.57-.5101.66c-.22.09-.6199-.26-.8499-.17s-.49.07-.71.15-.34.48-.57.56-.47.1-.7.18-.54-.12-.77-.05-.31.63-.55.7-.58-.25-.81-.18-.37.46-.61.53z" fill="#cebefd"/><path d="m111.29 62.02c0 .24-.02.48-.02.72s.35.49.35.73.03.48.02.72-.07.48-.08.72-.12.48-.14.71-.44.45-.46.69-.02.48-.04.72.36.52.34.76.1.5.07.74-.07.48-.11.72-.63.39-.66.63.23.52.19.76 0 .49-.05.72-.01.49-.06.72-.03.49-.08.72-.5.38-.56.62.13.52.07.75-.07.48-.13.71-.32.41-.39.64-.06.48-.12.71-.17.45-.24.68-.19.44-.26.67-.04.49-.11.72-.52.33-.6.55-.1.47-.18.69-.19.44-.27.66.01.52-.07.74-.23.42-.32.64-.06.5-.15.72.11.58.01.79-.65.23-.75.45.21.63.1.84-.73.17-.84.39.03.55-.08.76-.24.42-.35.63.11.61 0 .82-.46.3-.58.5-.24.42-.36.62-.24.42-.36.62-.1.51-.23.71-.22.43-.36.63-.69.12-.83.32-.07.53-.21.73-.35.34-.49.54.03.62-.11.81-.34.35-.49.54-.63.12-.78.31-.25.41-.4.6c-.1497.19-.09.54-.2397.73-.15.19-.3601.32-.5201.51s-.18.48-.34.66-.2899.39-.4499.57-.3801.3-.5501.48-.55.14-.72.32-.1299.54-.2999.71-.69 0-.86.16.05.73-.13.9-.52.15-.7.31-.32.36-.5.52-.31.37-.49.53-.45.21-.63.37-.44.22-.62.37-.38.29-.56.44-.0601.69-.2401.84-.6899-.11-.8799.04-.36.32-.55.46-.2.53-.4.67-.4501.2-.6401.34-.4499.19-.6499.33-.4301.22-.6301.35-.1999.57-.3999.7-.54.05-.74.18-.38.29-.59.41-.55 0-.76.13-.25.52-.46.64-.54.01-.75.13-.24.56-.45.68-.48.11-.7.22-.48.11-.7.21-.3901.29-.6101.39-.4399.19-.6599.29-.4901.08-.7101.18-.2899.52-.5099.62-.4001.3-.6201.39-.59-.16-.81-.08-.3799.35-.5999.43-.55-.11-.78-.03-.51 0-.73.07-.3901.34-.6101.42-.4599.12-.6899.2-.38.39-.61.46-.41.3-.64.37-.48.06-.72.12-.4501.19-.6801.25-.5699-.32-.8099-.26-.47.08-.7.13-.46.13-.69.18-.44.24-.67.28-.47.11-.7.16-.51-.14-.75-.1-.48 0-.72.03-.4501.24-.6801.27-.4599.16-.6999.19-.49-.04-.72-.01-.48.03-.71.05-.46.25-.7.27-.48-.03-.72-.01-.48-.05-.72-.04-.48-.02-.72-.01-.48.06-.72.07-.48.16-.72.17-.48.34-.72.34-.48-.12-.72-.12-.48-.2-.72-.21-.47-.32-.71-.33-.47-.04-.71-.05-.4801-.02-.7101-.03-.4999.21-.7299.19-.46-.22-.7-.24-.52.37-.76.34-.42-.57-.65-.6-.51.23-.75.2-.47-.07-.71-.11-.5.08-.74.04-.51.09-.74.05-.44-.29-.67-.33-.43-.31-.66-.36-.47-.09-.7-.14-.49-.02-.72-.08-.45-.17-.68-.23-.51.06-.74 0-.5 0-.73-.08-.46-.13-.69-.2-.36-.47-.58-.55-.53.08-.76 0-.31-.56-.54-.64-.55.11-.77.03-.45-.17-.67-.26-.41-.26-.63-.35-.48-.08-.71-.17-.57.1-.79 0-.22-.69-.44-.78-.51-.03-.73-.13-.58.11-.8 0-.29-.5-.5-.61-.38-.3-.6-.41-.53-.02-.74-.13-.54-.03-.74-.14-.33-.4-.54-.52-.24-.54-.45-.66-.34-.36-.54-.48-.41-.24-.61-.36-.51-.09-.71-.22-.35-.33-.55-.47-.61.05-.81-.08-.1-.7-.29-.84-.62.04-.81-.1-.15-.6-.34-.75-.42-.24-.61-.38-.33-.34-.52-.49-.4-.26-.58-.42-.66.04-.84-.11-.13-.58-.32-.74-.33-.34-.51-.5-.51-.15-.69-.31-.14-.55-.31-.71-.57-.1-.74-.26-.39-.29-.56-.46-.27-.41-.44-.58-.21-.46-.37-.64-.54-.15-.7-.33-.51-.19-.67-.37-.15-.51-.31-.69-.47-.23-.62-.42-.05-.59-.2-.77-.23-.43-.38-.62-.6-.14-.75-.33-.23-.43-.38-.62-.05-.56-.19-.75-.56-.18-.7-.38-.09-.52-.23-.72-.14-.48-.28-.68-.59-.19-.72-.39 0-.56-.14-.77-.11-.49-.24-.7-.58-.21-.7-.42.02-.56-.1-.77-.21-.43-.32-.64-.45-.3-.56-.51.14-.61.03-.83-.57-.25-.67-.46-.23-.42-.33-.64-.36-.36-.46-.58.3-.66.2-.88-.16-.45-.25-.67-.78-.19-.87-.41-.1-.48-.19-.7.04-.53-.04-.76 0-.51-.07-.74-.31-.4-.39-.62.04-.52-.03-.75-.14-.45-.21-.68-.48-.35-.55-.58.02-.5-.05-.73-.21-.44-.28-.67.17-.54.11-.77-.4-.39-.46-.62.11-.52.06-.75-.25-.43-.3-.67.04-.5 0-.73-.1-.47-.14003-.7c-.04-.23-.16001-.46-.20001-.69s.06999-.49.02999-.73-.49999-.41-.52999-.65.19999-.51.16999-.75-.17999-.46-.20999-.7-.06-.47-.08-.71-.08001-.47-.10001-.71-.35-.46-.36-.7.49001-.51.47001-.75-.05-.47-.06-.71-.14-.47-.15-.71 0-.48 0-.72-.11-.48-.11-.72.06-.48.06-.72.14-.48.14-.72.20001-.47.21001-.71-.26-.49-.25-.73-.34001-.5-.32001-.74.43-.45.45-.69-.11999-.49-.09999-.73.47999-.43.50999-.67-.06-.49-.03-.72-.28-.52-.25-.76.09001-.47.13001-.71.02999-.48.06999-.72 0-.49.05-.72.23-.45.28-.68-.1-.51-.05-.75.53004-.38.58004-.61-.38003-.58-.32003-.82c.06003-.24.13003-.47.19003-.7s.7-.31.76-.54.03-.49.09-.72.19-.44.26-.67-.4-.63-.33-.86.45-.36.52-.59.07-.48.15-.71.02-.5.1-.73.59-.29.68-.51-.11-.56-.02-.78.48-.32.57-.54.25-.41.35-.63-.21-.61-.11-.83.15-.46.25-.68.58-.25.69-.47.04-.51.15-.73.2-.43.31-.65.33-.37.44-.58.16-.46.28-.67.22-.43.33-.64.33-.36.45-.57.28-.39.4-.59-.08-.61.05-.81.63-.16.76-.36.01-.56.14-.76.56-.2.69-.4.12-.5.26-.69.34-.34.49-.53.26-.4.41-.59.13-.5.28-.69.4-.3.54-.48.21-.44.37-.63.2-.46.36-.64.62-.1.77-.28.31-.36.46-.54-.05-.69.11-.87.56-.14.72-.31.46-.22.62-.39.28-.39.45-.56.14-.54.31-.71.44-.24.61-.4.51-.15.69-.32.11-.59.29-.75.32-.37.5-.53.35-.33.53-.49.59-.04.78-.19.23-.48.42-.63.25-.47.44-.61.47-.17.67-.32.34-.35.53-.49.36-.33.55-.47.38-.29.58-.43.67.13.87 0 .13-.67.33-.8.37-.32.57-.45.67.17.87.04.29-.45.49-.57.52-.05.73-.17.49-.1.7-.22.24-.56.45-.67.5-.09.71-.2.27-.53.48-.64.68.3.9.19.28-.52.5-.62.56.07.77-.03.4-.28.62-.37.32-.48.54-.57.5-.04.73-.13.35-.44.57-.52.58.17.8.08.41-.27.64-.35.55.15.78.07.42-.25.65-.32.42-.25.65-.32.41-.32.64-.38.52.09.75.02.45-.17.68-.23.51.06.74 0 .34-.65.57-.7.48-.05.72-.1.55.3.79.25.43-.29.67-.33.5.08.74.04.47-.09.71-.13.42-.44.66-.47.55.48.79.45.41-.59.65-.62.49.07.73.05.47-.15.71-.17.48-.02.72-.04.5099.39.7399.38.4701-.05.7101-.06.48.09.72.08.47-.61.71-.61.4899.65.7299.65.48-.4.72-.4.4701.25.7101.26.4899-.29.7299-.28.4701.31.7001.32.5-.35.74-.33.44.54.68.56.47.09.71.11.53-.45.77-.43.43.46.67.49.5199-.28.7599-.25.46.19.69.23.5101-.12.7401-.08.42.39.66.43.43.27.67.32.49-.01.72.04.4799.05.7099.1.4501.19.6801.25.57-.32.81-.26.47.13.7.19.46.14.69.21.34.55.57.62.59-.29.82-.22.48.09.71.16.3799.38.6099.46.3801.36.6001.44.48.08.71.16.37.37.59.46.51 0 .74.09.51.03.73.13.29.53.51.63.48.1.7.2.56-.07.78.04.46.15.68.26.2.66.41.77.55-.03.76.09.4.27.61.39.53.03.74.15.24.54.45.66.4499.18.6499.31.6201-.09.8201.04.2899.44.4899.57.52.09.72.22.1701.61.3601.75.56.04.75.18.1899.55.3899.69.5701.04.7601.18.3899.28.5799.43.3101.39.4901.54.3.38.49.54.6.03.78.19.2199.48.3999.64.32.36.5.52.54.12.72.28-.05.76.12.92.7301-.07.9001.1-.02.7.15.87.6.08.76.25.32.36.49.53.36.32.52.5.3.38.46.56.2499.42.4099.6.4301.27.5801.45.37.32.52.51c.1497.19.08.55.2297.74.15.19.1.53.24.72s.71.06.85.25.25.42.39.61-.09.65.05.85.47.25.6.45.13.49.27.68.21.43.35.63.79.06.92.26.22.43.34.64-.09.61.03.82.58.22.7.43.15.47.27.68.37.35.49.56.21.44.32.65-.13.6-.02.82.26.41.36.62.42.33.52.55-.14.59-.04.81.03.51.12.73.27.4.36.62.29.4.38.62.12.46.21.69.6.29.69.51-.19.58-.12.81.02.5.09.72.63.3.7.53.22.44.29.67-.32.59-.25.82.49.36.56.59.17.45.23.69-.39.59-.33.82.28.42.34.66-.12.51-.07.75.56.37.6.61-.03.49.01.73.16.46.2.7-.18.51-.14.75.14.46.18.7.17.46.2.7.24.46.26.69-.24.51-.22.75.13.47.15.71-.12.49-.1.73.19.47.21.71.18.47.19.71-.35.49-.35.73.32.47.32.71-.21.48-.21.72z" stroke="#000" stroke-linecap="round" stroke-linejoin="round" stroke-width="2.6"/><path d="m116.31 62.64c-.36 0-.36.57-.72.57s-.36-.08-.72-.08-.36-.27-.72-.27-.36.06-.72.06-.36-.15-.72-.15-.36-.06-.72-.06-.36.36-.72.36-.36-.35-.72-.35-.36.24-.72.24-.36-.05-.72-.05-.36.21-.72.21-.36-.32-.72-.32-.36.37-.72.37-.36-.49-.72-.49-.36.48-.72.48-.36.06-.72.06-.36-.12-.72-.12-.36-.21-.72-.21-.36.32-.72.32-.36-.51-.72-.51-.36.26-.72.26-.36.02-.72.02-.36-.11-.7197-.11c-.36 0-.36.25-.72.25s-.36-.19-.72-.19-.36.11-.72.11-.36-.27-.72-.27-.36-.19-.72-.19-.36.06-.72.06-.36.38-.72.38-.36-.16-.72-.16-.36.25-.72.25-.36-.31-.72-.31-.36.2-.72.2-.36-.31-.72-.31-.3599.04-.7199.04c-.3601 0-.3601.48-.7201.48s-.36-.66-.72-.66-.36.61-.72.61-.36.03-.72.03-.36-.03-.72-.03-.36 0-.72 0-.36-.13-.72-.13-.36-.04-.72-.04-.36.11-.72.11-.36-.52-.72-.52-.36.22-.72.22-.36-.07-.72-.07-.36.29-.72.29-.36-.35-.72-.35-.36.45-.72.45-.36-.08-.72-.08-.36-.04-.72-.04-.36-.37-.72-.37-.36.56-.72.56-.36-.07-.72-.07-.36-.52-.72-.52-.36.26-.72.26-.36-.34-.72-.34-.36 0-.72 0-.3599.51-.7199.51c-.3601 0-.3601-.5-.7201-.5s-.36.58-.72.58-.36.08-.72.08-.36-.45-.72-.45-.36-.12-.72-.12-.36.07-.72.07-.36.23-.72.23-.36-.16-.72-.16-.36-.15-.72-.15-.36.25-.72.25-.36-.19-.72-.19-.36.09-.72.09-.36-.2-.72-.2-.36.53-.72.53-.36-.3-.72-.3-.36-.09-.72-.09-.36.13-.72.13-.36.1-.72.1-.36-.28-.72-.28-.36.2-.72.2-.36-.07-.72-.07-.36.36-.72.36-.36-.35-.72-.35-.36-.26-.72-.26-.36.02-.72.02-.36.24-.72.24-.36.21-.72.21-.36-.14-.72-.14-.36.18-.72.18-.36-.34-.72-.34-.36.45-.72.45-.36-.47-.72-.47-.36-.11-.72-.11-.36.61-.72.61-.36-.24-.72-.24-.36-.26-.72-.26-.36.01-.72.01-.36.08-.72.08-.36-.25-.72-.25-.36.24-.72.24-.36.2-.72.2-.36.06-.72.06-.36-.11-.72-.11-.36-.18-.72-.18-.36-.2-.72-.2-.36.15-.72.15-.36.02-.72.02-.36-.05-.72-.05-.36-.09-.72-.09-.36-.02-.72-.02-.36.59-.72.59-.36-.14-.72-.14-.36-.27-.72-.27-.36.24-.72.24-.36-.31-.72-.31-.36.44-.72.44-.36.08-.72.08-.36 0-.72 0-.36-.3-.72-.3-.36.12-.72.12-.36-.26-.72-.26-.36.11-.72.11-.36-.05-.72-.05-.36.08-.72.08-.36.14-.72.14-.36.13-.72.13-.36-.44-.72-.44-.36.47-.72.47-.36-.17-.72-.17-.36-.47-.72-.47-.36.11-.72.11-.36.38-.72.38-.36.09-.72.09-.36 0-.72 0-.36.08-.72.08-.36-.31-.72-.31-.36 0-.72 0-.36.09-.72.09-.36.22-.72.22-.36-.4-.72-.4-.36.34-.73.34-.36-.32-.72-.32-.36-.22-.72-.22-.36.12-.72.12-.36.5-.73.5-.36-.45-.72-.45-.36-.07-.71997-.07c-.36 0-.35999.01-.72999.01s-.36.33-.73.33-.36001.12-.73001.12-.35999.06-.71999.06-.36001-.65-.73001-.65-.35999.46-.72999.46-.37-.12-.73-.12-.37001-.32-.73001-.32c-.28 0-.60999.12-.81999.2-.25.09-.17.62-.34.81s-.31001.29-.40001.54c-.08.22-.16999.42-.20999.69-.03.24-.29001.47-.29001.74s.25.5.28.74c.04.27-.31.63-.22.85.09.25.47.38.63.56s.47001.09.72001.18c.21.08.37.61.66.61.35 0 .34999-.01.70999-.01s.35001-.4.71001-.4.34999-.13.70999-.13.35001.06.71001.06.35.43.71.43.34999.15.70999.15.35-.27.7-.27.35001-.39.70001-.39.34999.42.70996.42c.36 0 .35-.36.71-.36s.36.35.71.35.35.23.71.23.35-.42.71-.42.35.19.71.19.36.16.71.16.35-.17.71-.17.35-.13.71-.13.36.27.71.27.36-.05.71-.05.36.06.71.06.35-.58.71-.58.36.32.71.32.36-.15.71-.15.36-.06.72-.06.69-.2.91.08-.4.46-.49.81.31.46.21.8-.5.24-.6.59-.23.31-.33.66.04.39-.05.73-.26.3-.35.64-.06.35-.15.7.47.5.37.84-.31.29-.4.63 0 .37-.09.72-.61.21-.71.55.35.47.26.81.02.38-.07.72-.34.28-.43.63-.08.35-.17.7-.08.35-.18.7 0 .37-.1.72-.24.31-.34.66.13.41.04.76-.09.35-.19.7-.34.28-.44.63-.28.3-.38.64-.14.33-.23.68.04.38-.06.73.08.39-.01.74-.37.27-.46.62.12.41.03.75.11.4.01.75-.54.23-.63.57.1.4 0 .75.21.43.12.78-.47.25-.56.6.22.43.13.78-.49.24-.59.59-.12.34-.22.69-.15.33-.25.68.52.51.43.86-.47.25-.56.59 0 .37-.09.72-.06.36-.15.71.08.39-.02.74-.21.32-.31.66-.06.36-.15.71-.38.27-.48.62.3.46.21.81-.13.34-.23.69.02.38-.07.73-.29.29-.39.64-.3.29-.39.64-.2.32-.3.67-.16.33-.26.68.17.42.07.77-.4.27-.49.62.29.45.2.8-.47.24-.57.59.08.39-.02.74.27.45.18.79-.1.35-.2.7-.64.2-.74.55.09.4 0 .75-.25996.3-.35996.65-.11001.35-.20001.7.1.4 0 .75-.13.34-.22.69-.27.3-.37.65.52.52.42.87-.47999.25-.56999.6-.1.35-.2.7 0 .38-.1.73-.03.37-.12.72-.35001.28-.45001.64.03001.39-.06999.74.22.44.13.79c-.06.23-.45001.4-.45001.64s-.04.53.02.75.53001.29.65001.5-.00001.59.15999.75.35.39.56.5.59001-.22.82001-.15c.22996.06.39996.31.63996.31s.51.16.73.09.33-.42.53-.54c.21-.12.38-.23.55-.39s.63-.13.75-.33-.33-.64-.27-.87c.09-.35.16-.33.25-.68s.09-.35.18-.7.58-.22.67-.56-.13-.41-.04-.76-.2-.43-.1-.78.63-.2.73-.55-.35-.47-.26-.82.14-.34.23-.68.19-.32.28-.66-.2-.42-.1-.77.66-.19.75-.54-.25-.44-.16-.78.28-.3.37-.64-.31-.45-.21-.8.67-.19.76-.54.16-.33.25-.68-.06-.39.03-.74.13-.34.23-.69-.29-.45-.19-.8.16-.33.25-.68-.06-.39.03-.74.37-.27.46-.62.07-.35.16-.7.2-.32.29-.67.06-.35.16-.7-.26-.44-.17-.79.09-.35.18-.69.67-.19.77-.54.01-.37.11-.72-.25-.44-.16-.79.29-.29.38-.64-.03-.38.07-.73-.04-.38.06-.73.58-.22.67-.57.04-.36.14-.71.17-.33.26-.68.1-.35.19-.7-.19-.42-.09-.77-.06-.39.03-.74.47-.25.56-.59-.13-.41-.04-.76 0-.37.1-.72.36-.28.46-.62-.17-.42-.07-.77.49-.24.58-.59-.3-.46-.21-.81.51-.24.6-.59-.31-.46-.22-.81-.08-.39.02-.74.14-.34.24-.68.48-.25.57-.59-.24-.44-.14-.79.04-.37.13-.72.49-.24.58-.59 0-.38.09-.73.24-.31.33-.65-.38-.47-.28-.82.63-.2.73-.55-.34-.47-.25-.81-.06-.39.04-.74.49-.24.59-.59.2-.32.29-.67-.34-.47-.25-.82.32-.29.41-.64.26-.31.35-.66-.09-.4 0-.75-.11-.41-.01-.76.2-.32.3-.67.35-.28.45-.63-.08-.4.01-.75.33-.29.42-.64-.05-.39.04-.74.28-.3.38-.65.11-.35.21-.7-.47-.71-.18-.94.49.42.85.42.36-.27.72-.27.36.04.72.04.36.28.72.28h.72c.36 0 .36-.3.72-.3s.36.16.72.16.36.07.72.07.36-.38.72-.38.36.04.72.04h.72c.36 0 .36-.01.72-.01s.36.03.72.03.36-.08.72-.08.36.37.72.37.36-.3.72-.3.36.25.72.25.36-.45.72-.45.36.21.72.21.36.31.72.31.36-.53.72-.53.36.12.72.12.36.44.72.44.36-.36.72-.36.36-.13.72-.13.36-.1.72-.1.36.31.72.31.36-.32.72-.32.36.32.72.32.36-.14.72-.14.36.03.72.03.36.29.72.29.36-.5.72-.5.36.04.72.04.36.3.72.3.36-.36.72-.36.36.54.72.54.36.07.72.07.36-.04.72-.04.36.03.72.03.36-.54.72-.54.36.32.72.32.36-.21.72-.21.36.28.7201.28c.36 0 .3599-.24.7199-.24s.36.41.72.41.36-.35.72-.35.36-.03.72-.03.36.41.72.41.36-.03.72-.03.36-.12.72-.12.36-.44.72-.44.36.51.72.51.36-.32.72-.32.36-.23.72-.23.36.62.72.62.36-.21.72-.21.36-.16.72-.16.36.37.72.37.36-.02.72-.02.36-.06.72-.06.36-.57.72-.57.36.4.72.4.36-.37.72-.37.36.53.72.53.36-.15.72-.15.36.18.72.18.36-.53.72-.53.36.12.7201.12c.36 0 .3599.21.7199.21s.36.2.73.2.36-.31.72-.31.36-.15.72-.15.36.33.72.33.36.2.73.2.36-.52.72-.52.36.48.72.48.36-.41.73-.41.36.11.73.11.36-.05.73-.05.36.04.72.04.36.2.73.2.36-.49.73-.49.37.06.73.06.35.26.69.39c-.08.25.24.4.23.67s-.47.56-.4.82c.09.34.38.27.47.61s.05.36.14.7-.2599.44-.17.79c.09.35.48.24.57.59s-.13.41-.04.75.0401.36.1301.71c.0899.35.44.25.5299.6.09.35.17.33.26.67s-.24.43-.15.77.09.34.18.69.27.29.37.64.16.32.25.67-.02.37.07.72-.12.4-.03.74.58.21.67.56-.52.51-.43.85.17.33.26.67.32.29.41.63.3601.27.45.62c.09.35.08.35.17.7s-.47.5-.38.84.51.23.6.58-.25.44-.15.78.3601.27.45.62c.09.35.08.35.17.69s.12.34.22.68-.16.41-.07.76.19.32.28.66.34.28.44.62-.04.38.05.72.22.31.32.65-.08.39.02.74-.18.42-.09.76.25.3.34.65.31.29.4.63-.06.39.04.73.45.25.54.6-.28.45-.18.79.1401.33.2401.68c.0999.35.1699.32.2599.67s.37.27.47.61-.2599.44-.17.79c.09.35.1001.34.1901.69.0899.35-.1201.4-.0301.75s.17.33.26.67.14.33.23.68-.09.4 0 .74.68.19.78.53-.21.43-.11.77.04.36.14.71.45.25.55.59-.44.49-.35.84.41.26.5.61.32.29.41.63.02.37.11.71-.27.44-.17.79.14.33.24.68 0 .37.09.71.52.23.61.57-.0999.4-.0099.74c.0899.34-.0501.38.0499.73s.3297.28.4297.63-.02.38.07.73-.17.42-.08.76.56.22.65.57-.12.41-.03.76.14.34.23.68.37.27.47.62-.16.42-.06.77-.25.44-.16.79.22.31.32.66.04.36.13.71.1.35.19.7.43.26.53.61.24.31.34.66.01.37.11.72c.06.23.04.46.16.66s.06.57.23.73.53.11.73.23.43.12.66.18.42-.1.66-.1.53.53.76.46c.23-.06.43-.29.64-.41s.45-.23.62-.4.27-.42.39-.63.24-.44.3-.67-.17-.49-.17-.72.17-.48.1-.71c-.09-.34.2-.42.11-.77s-.71-.18-.81-.52.27-.44.18-.79-.08-.35-.18-.69 0-.37-.1-.71-.37-.27-.46-.62-.18-.32-.27-.67-.18-.32-.27-.67.17-.41.08-.76-.2-.31-.29-.66-.04-.36-.14-.7-.19-.32-.29-.66-.02-.36-.11-.71-.23-.31-.32-.65.3-.45.21-.79-.35-.28-.44-.62-.04-.36-.13-.7-.31-.29-.4-.63.2-.43.11-.77-.41-.26-.51-.61.48-.5.38-.85-.33-.28-.42-.63-.22-.31-.32-.65-.3-.29-.39-.63.18-.42.08-.76.11-.4.02-.74-.44-.25-.54-.59-.06-.35-.15-.7.3-.45.2-.79-.36-.27-.45-.62-.39-.26-.49-.61.46-.49.36-.84-.46-.25-.55-.59-.18-.32-.27-.67.1-.4 0-.74-.05-.36-.14-.7-.21-.32-.3-.66.13-.41.04-.75-.47-.24-.57-.59-.04-.36-.14-.7-.21-.31-.2997-.66c-.09-.35-.04-.36-.14-.7s-.07-.35-.16-.7-.13-.34-.22-.68-.14-.33-.24-.68c-.0999-.35.49-.5.4-.85s-.22-.31-.31-.66-.58-.22-.67-.56.12-.4.03-.75.24-.44.15-.78-.49-.24-.58-.59.17-.42.07-.76-.12-.34-.22-.69.13-.41.04-.76-.48-.24-.57-.59-.26-.3-.35-.65.05-.38-.05-.73.32-.46.23-.8-.43-.25-.53-.6.2-.42.1-.77-.53-.23-.62-.58.02-.38-.08-.73.26-.44.17-.79-.3-.29-.39-.64-.05-.36-.14-.71.05-.39-.04-.74-.67-.19-.77-.54-.03-.37-.12-.71c-.0899-.34-.17-.33-.27-.68s.43-.49.34-.84-.4-.27-.49-.61-.12-.34-.21-.69-.11-.34-.2-.69.17-.42.07-.77-.17-.33-.2699-.68c-.1-.35.2099-.43.1199-.78-.01-.05-.39-.26-.41-.31.36-.03.38.54.74.54s.36-.55.73-.55.36.32.73.32.36.23.72.23.36-.03.72-.03.36-.49.72-.49.36.12.72.12.36.43.73.43.36-.23.7297-.23c.37 0 .36.15.73.15s.36-.08.73-.08.36.03.73.03.36-.4.72-.4.36-.02.72-.02.36.42.72.42.36.1.73.1.36-.63.73-.63.36.22.73.22.36.11.72.11.36.29.73.29.36-.38.73-.38.36-.17.73-.17.36.28.73.28.36-.02.73-.02.36.33.73.33.36-.01.73-.01.36-.58.73-.58.37.19.73.19.37-.15.73-.15.37.55.73.55.37-.31.73-.31c.28 0 .59.12.81.04.25-.09.64-.18.81-.37s.09-.61.18-.86c.08-.22.25-.47.29-.73.03-.24-.06-.52-.06-.78s-.21-.5-.24-.74c-.04-.27-.2-.44-.29-.66-.09-.25-.18-.37-.35-.55s-.24-.3-.49-.4c-.21-.08-.38-.63-.66-.63z" fill="#cebefd"/><g stroke="#000" stroke-linecap="round" stroke-linejoin="round"><path d="m116.31 62.64c-.36 0-.36.57-.72.57s-.36-.08-.72-.08-.36-.27-.72-.27-.36.06-.72.06-.36-.15-.72-.15-.36-.06-.72-.06-.36.36-.72.36-.36-.35-.72-.35-.36.24-.72.24-.36-.05-.72-.05-.36.21-.72.21-.36-.32-.72-.32-.36.37-.72.37-.36-.49-.72-.49-.36.48-.72.48-.36.06-.72.06-.36-.12-.72-.12-.36-.21-.72-.21-.36.32-.72.32-.36-.51-.72-.51-.36.26-.72.26-.36.02-.72.02-.36-.11-.7197-.11c-.36 0-.36.25-.72.25s-.36-.19-.72-.19-.36.11-.72.11-.36-.27-.72-.27-.36-.19-.72-.19-.36.06-.72.06-.36.38-.72.38-.36-.16-.72-.16-.36.25-.72.25-.36-.31-.72-.31-.36.2-.72.2-.36-.31-.72-.31-.3599.04-.7199.04-.3601.48-.7201.48-.36-.66-.72-.66-.36.61-.72.61-.36.03-.72.03-.36-.03-.72-.03-.36 0-.72 0-.36-.13-.72-.13-.36-.04-.72-.04-.36.11-.72.11-.36-.52-.72-.52-.36.22-.72.22-.36-.07-.72-.07-.36.29-.72.29-.36-.35-.72-.35-.36.45-.72.45-.36-.08-.72-.08-.36-.04-.72-.04-.36-.37-.72-.37-.36.56-.72.56-.36-.07-.72-.07-.36-.52-.72-.52-.36.26-.72.26-.36-.34-.72-.34-.36 0-.72 0-.3599.51-.7199.51-.3601-.5-.7201-.5-.36.58-.72.58-.36.08-.72.08-.36-.45-.72-.45-.36-.12-.72-.12-.36.07-.72.07-.36.23-.72.23-.36-.16-.72-.16-.36-.15-.72-.15-.36.25-.72.25-.36-.19-.72-.19-.36.09-.72.09-.36-.2-.72-.2-.36.53-.72.53-.36-.3-.72-.3-.36-.09-.72-.09-.36.13-.72.13-.36.1-.72.1-.36-.28-.72-.28-.36.2-.72.2-.36-.07-.72-.07-.36.36-.72.36-.36-.35-.72-.35-.36-.26-.72-.26-.36.02-.72.02-.36.24-.72.24-.36.21-.72.21-.36-.14-.72-.14-.36.18-.72.18-.36-.34-.72-.34-.36.45-.72.45-.36-.47-.72-.47-.36-.11-.72-.11-.36.61-.72.61-.36-.24-.72-.24-.36-.26-.72-.26-.36.01-.72.01-.36.08-.72.08-.36-.25-.72-.25-.36.24-.72.24-.36.2-.72.2-.36.06-.72.06-.36-.11-.72-.11-.36-.18-.72-.18-.36-.2-.72-.2-.36.15-.72.15-.36.02-.72.02-.36-.05-.72-.05-.36-.09-.72-.09-.36-.02-.72-.02-.36.59-.72.59-.36-.14-.72-.14-.36-.27-.72-.27-.36.24-.72.24-.36-.31-.72-.31-.36.44-.72.44-.36.08-.72.08-.36 0-.72 0-.36-.3-.72-.3-.36.12-.72.12-.36-.26-.72-.26-.36.11-.72.11-.36-.05-.72-.05-.36.08-.72.08-.36.14-.72.14-.36.13-.72.13-.36-.44-.72-.44-.36.47-.72.47-.36-.17-.72-.17-.36-.47-.72-.47-.36.11-.72.11-.36.38-.72.38-.36.09-.72.09-.36 0-.72 0-.36.08-.72.08-.36-.31-.72-.31-.36 0-.72 0-.36.09-.72.09-.36.22-.72.22-.36-.4-.72-.4-.36.34-.73.34-.36-.32-.72-.32-.36-.22-.72-.22-.36.12-.72.12-.36.5-.73.5-.36-.45-.72-.45-.36-.07-.71997-.07c-.36 0-.35999.01-.72999.01s-.36.33-.73.33-.36001.12-.73001.12-.35999.06-.71999.06-.36001-.65-.73001-.65-.35999.46-.72999.46-.37-.12-.73-.12-.37001-.32-.73001-.32c-.28 0-.60999.12-.81999.2-.25.09-.17.62-.34.81s-.31001.29-.40001.54c-.08.22-.16999.42-.20999.69-.03.24-.29001.47-.29001.74s.25.5.28.74c.04.27-.31.63-.22.85.09.25.47.38.63.56s.47001.09.72001.18c.21.08.37.61.66.61.35 0 .34999-.01.70999-.01s.35001-.4.71001-.4.34999-.13.70999-.13.35001.06.71001.06.35.43.71.43.34999.15.70999.15.35-.27.7-.27.35001-.39.70001-.39.34999.42.70996.42c.36 0 .35-.36.71-.36s.36.35.71.35.35.23.71.23.35-.42.71-.42.35.19.71.19.36.16.71.16.35-.17.71-.17.35-.13.71-.13.36.27.71.27.36-.05.71-.05.36.06.71.06.35-.58.71-.58.36.32.71.32.36-.15.71-.15.36-.06.72-.06.69-.2.91.08-.4.46-.49.81.31.46.21.8-.5.24-.6.59-.23.31-.33.66.04.39-.05.73-.26.3-.35.64-.06.35-.15.7.47.5.37.84-.31.29-.4.63 0 .37-.09.72-.61.21-.71.55.35.47.26.81.02.38-.07.72-.34.28-.43.63-.08.35-.17.7-.08.35-.18.7 0 .37-.1.72-.24.31-.34.66.13.41.04.76-.09.35-.19.7-.34.28-.44.63-.28.3-.38.64-.14.33-.23.68.04.38-.06.73.08.39-.01.74-.37.27-.46.62.12.41.03.75.11.4.01.75-.54.23-.63.57.1.4 0 .75.21.43.12.78-.47.25-.56.6.22.43.13.78-.49.24-.59.59-.12.34-.22.69-.15.33-.25.68.52.51.43.86-.47.25-.56.59 0 .37-.09.72-.06.36-.15.71.08.39-.02.74-.21.32-.31.66-.06.36-.15.71-.38.27-.48.62.3.46.21.81-.13.34-.23.69.02.38-.07.73-.29.29-.39.64-.3.29-.39.64-.2.32-.3.67-.16.33-.26.68.17.42.07.77-.4.27-.49.62.29.45.2.8-.47.24-.57.59.08.39-.02.74.27.45.18.79-.1.35-.2.7-.64.2-.74.55.09.4 0 .75-.25996.3-.35996.65-.11001.35-.20001.7.1.4 0 .75-.13.34-.22.69-.27.3-.37.65.52.52.42.87-.47999.25-.56999.6-.1.35-.2.7 0 .38-.1.73-.03.37-.12.72-.35001.28-.45001.64.03001.39-.06999.74.22.44.13.79c-.06.23-.45001.4-.45001.64s-.04.53.02.75.53001.29.65001.5-.00001.59.15999.75.35.39.56.5.59001-.22.82001-.15c.22996.06.39996.31.63996.31s.51.16.73.09.33-.42.53-.54c.21-.12.38-.23.55-.39s.63-.13.75-.33-.33-.64-.27-.87c.09-.35.16-.33.25-.68s.09-.35.18-.7.58-.22.67-.56-.13-.41-.04-.76-.2-.43-.1-.78.63-.2.73-.55-.35-.47-.26-.82.14-.34.23-.68.19-.32.28-.66-.2-.42-.1-.77.66-.19.75-.54-.25-.44-.16-.78.28-.3.37-.64-.31-.45-.21-.8.67-.19.76-.54.16-.33.25-.68-.06-.39.03-.74.13-.34.23-.69-.29-.45-.19-.8.16-.33.25-.68-.06-.39.03-.74.37-.27.46-.62.07-.35.16-.7.2-.32.29-.67.06-.35.16-.7-.26-.44-.17-.79.09-.35.18-.69.67-.19.77-.54.01-.37.11-.72-.25-.44-.16-.79.29-.29.38-.64-.03-.38.07-.73-.04-.38.06-.73.58-.22.67-.57.04-.36.14-.71.17-.33.26-.68.1-.35.19-.7-.19-.42-.09-.77-.06-.39.03-.74.47-.25.56-.59-.13-.41-.04-.76 0-.37.1-.72.36-.28.46-.62-.17-.42-.07-.77.49-.24.58-.59-.3-.46-.21-.81.51-.24.6-.59-.31-.46-.22-.81-.08-.39.02-.74.14-.34.24-.68.48-.25.57-.59-.24-.44-.14-.79.04-.37.13-.72.49-.24.58-.59 0-.38.09-.73.24-.31.33-.65-.38-.47-.28-.82.63-.2.73-.55-.34-.47-.25-.81-.06-.39.04-.74.49-.24.59-.59.2-.32.29-.67-.34-.47-.25-.82.32-.29.41-.64.26-.31.35-.66-.09-.4 0-.75-.11-.41-.01-.76.2-.32.3-.67.35-.28.45-.63-.08-.4.01-.75.33-.29.42-.64-.05-.39.04-.74.28-.3.38-.65.11-.35.21-.7-.47-.71-.18-.94.49.42.85.42.36-.27.72-.27.36.04.72.04.36.28.72.28h.72c.36 0 .36-.3.72-.3s.36.16.72.16.36.07.72.07.36-.38.72-.38.36.04.72.04h.72c.36 0 .36-.01.72-.01s.36.03.72.03.36-.08.72-.08.36.37.72.37.36-.3.72-.3.36.25.72.25.36-.45.72-.45.36.21.72.21.36.31.72.31.36-.53.72-.53.36.12.72.12.36.44.72.44.36-.36.72-.36.36-.13.72-.13.36-.1.72-.1.36.31.72.31.36-.32.72-.32.36.32.72.32.36-.14.72-.14.36.03.72.03.36.29.72.29.36-.5.72-.5.36.04.72.04.36.3.72.3.36-.36.72-.36.36.54.72.54.36.07.72.07.36-.04.72-.04.36.03.72.03.36-.54.72-.54.36.32.72.32.36-.21.72-.21.3601.28.7201.28.3599-.24.7199-.24.36.41.72.41.36-.35.72-.35.36-.03.72-.03.36.41.72.41.36-.03.72-.03.36-.12.72-.12.36-.44.72-.44.36.51.72.51.36-.32.72-.32.36-.23.72-.23.36.62.72.62.36-.21.72-.21.36-.16.72-.16.36.37.72.37.36-.02.72-.02.36-.06.72-.06.36-.57.72-.57.36.4.72.4.36-.37.72-.37.36.53.72.53.36-.15.72-.15.36.18.72.18.36-.53.72-.53.3601.12.7201.12.3599.21.7199.21.36.2.73.2.36-.31.72-.31.36-.15.72-.15.36.33.72.33.36.2.73.2.36-.52.72-.52.36.48.72.48.36-.41.73-.41.36.11.73.11.36-.05.73-.05.36.04.72.04.36.2.73.2.36-.49.73-.49.37.06.73.06.35.26.69.39c-.08.25.24.4.23.67s-.47.56-.4.82c.09.34.38.27.47.61s.05.36.14.7-.26.44-.17.79.48.24.57.59-.13.41-.04.75.0401.36.1301.71.4399.25.5299.6.17.33.26.67-.24.43-.15.77.09.34.18.69.27.29.37.64.16.32.25.67-.02.37.07.72-.12.4-.03.74.58.21.67.56-.52.51-.43.85.17.33.26.67.32.29.41.63.36.27.45.62.08.35.17.7-.47.5-.38.84.51.23.6.58-.25.44-.15.78.36.27.45.62.08.35.17.69.12.34.22.68-.16.41-.07.76.19.32.28.66.34.28.44.62-.04.38.05.72.22.31.32.65-.08.39.02.74-.18.42-.09.76.25.3.34.65.31.29.4.63-.06.39.04.73.45.25.54.6-.28.45-.18.79.1401.33.2401.68.1699.32.2599.67.37.27.47.61-.26.44-.17.79.1001.34.1901.69-.1201.4-.0301.75.17.33.26.67.14.33.23.68-.09.4 0 .74.68.19.78.53-.21.43-.11.77.04.36.14.71.45.25.55.59-.44.49-.35.84.41.26.5.61.32.29.41.63.02.37.11.71-.27.44-.17.79.14.33.24.68 0 .37.09.71.52.23.61.57-.0999.4-.0099.74-.0501.38.0499.73.3297.28.4297.63-.02.38.07.73-.17.42-.08.76.56.22.65.57-.12.41-.03.76.14.34.23.68.37.27.47.62-.16.42-.06.77-.25.44-.16.79.22.31.32.66.04.36.13.71.1.35.19.7.43.26.53.61.24.31.34.66.01.37.11.72c.06.23.04.46.16.66s.06.57.23.73.53.11.73.23.43.12.66.18.42-.1.66-.1.53.53.76.46c.23-.06.43-.29.64-.41s.45-.23.62-.4.27-.42.39-.63.24-.44.3-.67-.17-.49-.17-.72.17-.48.1-.71c-.09-.34.2-.42.11-.77s-.71-.18-.81-.52.27-.44.18-.79-.08-.35-.18-.69 0-.37-.1-.71-.37-.27-.46-.62-.18-.32-.27-.67-.18-.32-.27-.67.17-.41.08-.76-.2-.31-.29-.66-.04-.36-.14-.7-.19-.32-.29-.66-.02-.36-.11-.71-.23-.31-.32-.65.3-.45.21-.79-.35-.28-.44-.62-.04-.36-.13-.7-.31-.29-.4-.63.2-.43.11-.77-.41-.26-.51-.61.48-.5.38-.85-.33-.28-.42-.63-.22-.31-.32-.65-.3-.29-.39-.63.18-.42.08-.76.11-.4.02-.74-.44-.25-.54-.59-.06-.35-.15-.7.3-.45.2-.79-.36-.27-.45-.62-.39-.26-.49-.61.46-.49.36-.84-.46-.25-.55-.59-.18-.32-.27-.67.1-.4 0-.74-.05-.36-.14-.7-.21-.32-.3-.66.13-.41.04-.75-.47-.24-.57-.59-.04-.36-.14-.7-.21-.31-.2997-.66c-.09-.35-.04-.36-.14-.7s-.07-.35-.16-.7-.13-.34-.22-.68-.14-.33-.24-.68.49-.5.4-.85-.22-.31-.31-.66-.58-.22-.67-.56.12-.4.03-.75.24-.44.15-.78-.49-.24-.58-.59.17-.42.07-.76-.12-.34-.22-.69.13-.41.04-.76-.48-.24-.57-.59-.26-.3-.35-.65.05-.38-.05-.73.32-.46.23-.8-.43-.25-.53-.6.2-.42.1-.77-.53-.23-.62-.58.02-.38-.08-.73.26-.44.17-.79-.3-.29-.39-.64-.05-.36-.14-.71.05-.39-.04-.74-.67-.19-.77-.54-.03-.37-.12-.71-.17-.33-.27-.68.43-.49.34-.84-.4-.27-.49-.61-.12-.34-.21-.69-.11-.34-.2-.69.17-.42.07-.77-.1699-.33-.2699-.68.2099-.43.1199-.78c-.01-.05-.39-.26-.41-.31.36-.03.38.54.74.54s.36-.55.73-.55.36.32.73.32.36.23.72.23.36-.03.72-.03.36-.49.72-.49.36.12.72.12.36.43.73.43.3601-.23.7297-.23c.37 0 .36.15.73.15s.36-.08.73-.08.36.03.73.03.36-.4.72-.4.36-.02.72-.02.36.42.72.42.36.1.73.1.36-.63.73-.63.36.22.73.22.36.11.72.11.36.29.73.29.36-.38.73-.38.36-.17.73-.17.36.28.73.28.36-.02.73-.02.36.33.73.33.36-.01.73-.01.36-.58.73-.58.37.19.73.19.37-.15.73-.15.37.55.73.55.37-.31.73-.31c.28 0 .59.12.81.04.25-.09.64-.18.81-.37s.09-.61.18-.86c.08-.22.25-.47.29-.73.03-.24-.06-.52-.06-.78s-.21-.5-.24-.74c-.04-.27-.2-.44-.29-.66-.09-.25-.18-.37-.35-.55s-.24-.3-.49-.4c-.21-.08-.38-.63-.66-.63z" stroke-width="2.6"/><path d="m111.96 55.71c-.2 0-.28.14-.38.27" stroke-width="4"/><path d="m103.32 56c-.31-.03-.33-.39-.67-.39-.36 0-.36.44-.72.44s-.36.03-.72.03-.36-.37-.72-.37-.36.51-.7197.51c-.36 0-.36-.08-.72-.08s-.36.07-.72.07-.36-.07-.72-.07-.36-.18-.72-.18-.36.28-.72.28-.36-.52-.72-.52-.36.52-.72.52-.36-.38-.72-.38-.36.28-.72.28-.36 0-.72 0-.36.1-.72.1-.36 0-.72 0-.36-.15-.72-.15-.36-.4-.72-.4-.36.13-.72.13-.36-.17-.72-.17-.36-.01-.72-.01-.36.17-.72.17-.36-.14-.72-.14-.36.55-.72.55-.36-.34-.72-.34-.36 0-.72 0-.36.25-.72.25-.36-.02-.72-.02-.36-.02-.72-.02-.36.01-.72.01-.36.05-.72.05-.36-.48-.72-.48-.36.29-.72.29-.36.19-.72.19-.36-.09-.72-.09-.36-.32-.72-.32-.36 0-.72 0-.36-.16-.72-.16-.36.5-.72.5-.36-.16-.72-.16-.36-.2-.72-.2-.36.4-.72.4-.36-.56-.72-.56-.36.09-.72.09-.36.08-.72.08-.36.08-.72.08-.36.3-.72.3-.36.1-.72.1-.36-.04-.72-.04-.36-.04-.72-.04-.36-.13-.72-.13-.36.06-.72.06-.36-.4-.72-.4-.36.22-.72.22-.36-.06-.72-.06-.36.33-.72.33-.36-.51-.72-.51-.36.19-.72.19-.36 0-.72 0-.36-.3-.72-.3-.36.1-.72.1-.36.08-.72.08-.36.26-.72.26-.36-.24-.72-.24-.36.29-.72.29-.36.03-.72.03-.36.06-.71.06-.36.04-.72.04-.36-.52-.72-.52-.36.14-.72.14-.36.26-.72.26-.36-.16-.72-.16-.36-.08-.72-.08-.36.3-.72.3-.36.07-.72.07-.36-.41-.72-.41-.36.43-.72.43-.36-.58-.72-.58-.36.35-.72.35-.36-.13-.72-.13-.36-.01-.72-.01-.36 0-.72 0-.36.06-.72.06-.36.28-.72.28-.36-.35-.72-.35-.36-.08-.72-.08-.36.15-.72.15-.36.06-.72.06-.36.04-.72.04-.36-.08-.72-.08-.36-.14-.72-.14-.36-.17-.72-.17-.36.57-.72.57-.36-.42-.72-.42-.36.27-.72.27-.36-.06-.72-.06-.36-.4-.72-.4-.36.33-.72.33-.36-.01-.72-.01-.36-.18-.72-.18-.36.43-.72.43-.36-.39-.72-.39-.36.18-.72.18-.36 0-.72 0-.36-.21-.72-.21-.36.36-.72.36-.36.03-.72.03-.36.1-.72.1-.36-.51-.72-.51-.36.19-.72.19-.36-.02-.72-.02-.36.08-.72.08-.36-.25-.72-.25-.36-.07-.72-.07-.36.21-.72.21-.36-.07-.72-.07-.36.04-.72.04-.36.1-.72.1-.36.35-.72.35-.36-.29-.72-.29-.36-.31-.73-.31-.36.5-.72.5-.36-.16-.72-.16-.36.05-.73.05c-.16 0-.25.04-.33.08" stroke-width="4"/><path d="m8.80058 55.83c-.13.07-.20999.17-.44999.17" stroke-width="4"/></g></svg>