<svg fill="none" height="131" viewBox="0 0 66 131" width="66" xmlns="http://www.w3.org/2000/svg"><path d="m53.7504 2.12c-.36 0-.36.5-.73.5s-.37-.10999-.73-.10999-.37-.26001-.73-.26001-.3701.05-.7301.05-.37.38001-.73.38001-.3699-.03-.7299-.03-.37.07999-.73.07999-.37-.57999-.73-.57999-.37.09999-.73.09999-.3701-.08-.7401-.08-.37 0-.74 0-.37.45-.74.45-.37 0-.74 0-.3499-.48-.7099-.48-.35.07001-.71.07001-.3501.33-.7101.33-.3599-.41001-.7099-.41001-.36.49-.71.49-.3601-.37999-.7101-.37999-.3599.20999-.7099.20999-.36.23001-.71.23001-.3601-.52001-.7101-.52001-.3499.24001-.7099.24001-.35-.03001-.71-.03001-.3501.3-.7101.3-.3599-.3-.7099-.3-.36.03001-.71.03001-.3601.29999-.7101.29999-.3599-.48999-.7099-.48999-.36.05999-.71.05999-.3601.39-.7101.39-.36-.13-.71-.13-.3599-.45999-.7099-.45999-.36.03999-.71.03999-.3601.49001-.7101.49001-.3599-.33001-.7099-.33001-.36-.15-.71-.15-.3601.07-.7101.07-.3599-.08999-.7099-.08999-.35.03999-.71.03999-.3501.02-.7101.02-.3499-.08999-.7099-.08999-.36.06999-.71.06999-.3601-.06-.7101-.06-.3599.63001-.7099.63001-.36-.55001-.71-.55001-.3601.27001-.7101.27001-.3599-.10001-.7199-.10001-.36.02001-.71.02001-.3601.08-.7101.08-.36.04999-.72.04999-.3599-.07999-.7199-.07999-.36-.16-.72-.16-.3601-.06-.7101-.06-.36.22999-.72.22999-.3599-.35-.7199-.35-.36.08-.72.08-.3601.06-.7201.06c-.24 0-.48.29-.72.3s-.4399.28-.6799.31-.49-.08-.73-.03c-.23997.05-.48006.06-.71006.13s-.55002-.09-.77002 0-.50998.08001-.72998.19001-.38997.32999-.59997.44999-.18001.62-.38001.75-.73004-.18-.92004-.03-.37993.34-.54993.5-.25003.45001-.41003.63001-.27005.40999-.42005.59999-.24989.42-.38989.62c-.14.19999-.17004.46001-.29004.67001s-.36998.35-.47998.56-.31002.39999-.40002.61999-.33003.41-.40003.65c-.07.23999-.01995.51-.07995.75s.35994.56.31994.8-.65993.41-.67993.66.56995.51.56995.75c0 .36-.22998.36-.22998.71s.08996.36.08996.71-.40002.36-.40002.71v.71c0 .35.46008.36.46008.71s-.29004.36-.29004.71.34998.36.34998.71-.20996.36-.20996.71.25.36.25.71-.31006.36-.31006.71.38.36.38.71-.59997.36-.59997.72.46997.36.46997.72-.25.36-.25.72.02002.36.02002.72-.30994.36-.30994.72.30994.36.30994.72.33008.36.33008.72-.01001.36-.01001.72-.48999.36-.48999.72-.03003.36-.03003.72.28003.36.28003.72-.04004.36-.04004.72-.31006.36-.31006.72.20007.36.20007.72-.06006.36-.06006.72.03003.36.03003.72.09998.36.09998.72.27002.36.27002.72-.30005.36-.30005.72.31006.36.31006.72-.16004.36-.16004.72-.11999.36-.11999.72.31006.36.31006.72-.14002.36-.14002.72-.45996.36-.45996.72.13.36.13.72-.18005.36-.18005.72.48999.36.48999.72.15003.36.15003.72-.33008.36-.33008.72-.18994.36-.18994.72-.05005.36-.05005.72.30005.36.30005.72-.28003.36-.28003.72.44006.36.44006.72-.38.36-.38.72.36999.36.36999.72-.19006.36-.19006.72.32007.36.32007.72-.02002.36-.02002.72-.59998.36-.59998.72.05994.36.05994.72.53003.36.53003.72.01001.36.01001.72v.72c0 .36-.28003.36-.28003.72s-.10999.36-.10999.72.12.36.12.72.21997.36.21997.72-.05994.36-.05994.72-.16003.36-.16003.72-.10999.36-.10999.72.21997.36.21997.72-.27002.36-.27002.72.43006.36.43006.72-.19007.36-.19007.72.11011.36.11011.72-.40002.36-.40002.72.07995.36.07995.72.41004.36.41004.72-.34998.36-.34998.72.27991.36.27991.71-.35999.36-.35999.71.41004.36.41004.71-.55005.36-.55005.72.47009.36.47009.72-.5.36-.5.72.41992.36.41992.72-.23999.36-.23999.72.12.36.12.72.13.36.13.72-.13.36-.13.72-.23999.36-.23999.72.36999.36.36999.72-.29992.36-.29992.72.04992.36.04992.72v.72c0 .36-.21997.36-.21997.72s.59998.36.59998.72-.48999.36-.48999.72.13.36.13.72.33997.36.33997.72-.52002.36-.52002.72.31006.36.31006.72-.32996.36-.32996.72.46997.36.46997.72.08997.36.08997.72-.62.36-.62.72.22998.36.22998.72-.19995.36-.19995.72.29993.36.29993.72-.28992.36-.28992.72.04993.36.04993.72.4801.36.4801.72-.32007.36-.32007.72.19007.36.19007.72-.43006.36-.43006.72.54004.36.54004.72.05994.36.05994.72-.52002.36-.52002.72-.04993.36-.04993.72.41992.36.41992.72-.29992.36-.29992.72.04992.36.04992.72-.20996.36-.20996.72.57007.36.57007.72.00989.36.00989.72-.54993.36-.54993.72-.01001.36-.01001.72.32996.36.32996.72.07007.36.07007.72-.12.36-.12.72-.29004.36-.29004.72.14002.36.14002.72-.04004.36-.04004.72.48999.36.48999.72-.47998.36-.47998.72.02002.36.02002.72.25.36.25.73.16003.36.16003.72-.25.36-.25.72-.19006.36-.19006.72.19006.36.19006.73-.34009.36-.34009.73.20008.36.20008.73.36999.36.36999.73c0 .24-.34996.5-.32996.74s.10991.48.14991.72-.13997.53-.08997.77.26997.45.33997.68.38009.38.47009.61-.08009.57.02991.78.33007.38.45007.59.38002.33.52002.53-.02.63.13.81.68998.05.84998.23.29998.36.47998.53.26996.41.45996.56.44002.21.64002.34.38997.27.59997.39.49009.06.71009.17c.21999.11.21995.68.44995.77s.58994-.23.81994-.16.38.43.62.48c.23999.05.50009-.02.74009.02s.45.37.7.39.5-.38.75-.38c.35 0 .3499.37.7099.37s.3501-.33.7101-.33.35-.05.71-.05.3599.31.7099.31.3601-.5.7101-.5.36.18.71.18.3599.32.7099.32.3601-.11.7101-.11.36-.41.71-.41.3499.4.7099.4.35-.29.71-.29.3501.15.7101.15.36.32.71.32.3599-.49.7099-.49.3601.22.7101.22.36-.19.71-.19.3599-.08.7099-.08.3601.6.7101.6.36-.45.71-.45.3599.34.7099.34.3601-.03.7101-.03.36-.01.71-.01.3599.13.7099.13.3601-.62.7101-.62.36.54.71.54.3599-.03.7099-.03.3501-.5.7101-.5.35.51.71.51.3499-.48.7099-.48.3601.35.7101.35.36-.27.71-.27.3599.13.7099.13.3601.01.7101.01.36.25.71.25.36-.42.72-.42.3599.1.7099.1.3601.29.7101.29.36-.1.72-.1.3599.27.7199.27.36-.3.72-.3.3601-.23.7101-.23.36.27.72.27.3599-.15.7199-.15.36.16.72.16.3601-.33.7201-.33.36.04.73.04.37-.14.73-.14.3699.05.7299.05.37.18.73.18.3701.41.7301.41.37-.57.73-.57.37.49.73.49.37-.56.73-.56.3699.46.7299.46.37-.3.74-.3h.74c.37 0 .37-.16.74-.16s.37.43.74.43c.24 0 .5001.05.7401.04s.51.02.74-.01.38-.58.62-.63.4499-.12.6799-.19.4601-.1.6801-.18.69.36.91.26.1699-.73.3799-.85.6401.12.8401-.02.08-.7.27-.85.7199.1.8899-.07.23-.47.4-.64.1901-.47.3401-.66.42-.28.56-.48.07-.52.19-.73.4099-.32.5099-.54.3-.4.39-.63.05-.5.13-.73.3501-.41.4001-.65.02-.5.06-.74.21-.48.22-.72-.09-.5-.09-.74c0-.36-.2001-.36-.2001-.71s.1501-.36.1501-.71-.33-.36-.33-.71-.05-.36-.05-.71.52-.36.52-.71-.0401-.36-.0401-.71-.1999-.36-.1999-.71.23-.36.23-.71-.14-.36-.14-.71-.4101-.36-.4101-.71.5301-.36.5301-.71-.2-.36-.2-.72-.0901-.36-.0901-.72.26-.36.26-.72 0-.36 0-.72.15-.36.15-.72.0201-.36.0201-.72-.6701-.36-.6701-.72.63-.36.63-.72-.0399-.36-.0399-.72-.42-.36-.42-.72.38-.36.38-.72-.22-.36-.22-.72-.14-.36-.14-.72.03-.36.03-.72-.03-.36-.03-.72-.02-.36-.02-.72.06-.36.06-.72.2699-.36.2699-.72-.0699-.36-.0699-.72-.34-.36-.34-.72.4199-.36.4199-.72-.11-.36-.11-.72.1-.36.1-.72-.4699-.36-.4699-.72.5999-.36.5999-.72-.49-.36-.49-.72.5201-.36.5201-.72-.0201-.36-.0201-.72-.65-.36-.65-.72 0-.36 0-.72.4801-.36.4801-.72-.3-.36-.3-.72.25-.36.25-.72-.34-.36-.34-.72.22-.36.22-.72.24-.36.24-.72.04-.36.04-.72-.4-.36-.4-.72.1799-.36.1799-.72-.0599-.36-.0599-.72-.2901-.36-.2901-.72.23-.36.23-.72-.25-.36-.25-.72.3401-.36.3401-.72-.3301-.36-.3301-.72.49-.36.49-.72-.0099-.36-.0099-.72.07-.36.07-.72-.3001-.36-.3001-.72.3401-.36.3401-.72-.28-.36-.28-.72-.08-.36-.08-.72-.05-.36-.05-.72-.1801-.36-.1801-.72-.0199-.36-.0199-.72.5299-.36.5299-.72-.0699-.36-.0699-.72.14-.36.14-.72-.17-.36-.17-.72.2199-.36.2199-.72.0301-.36.0301-.72-.59-.36-.59-.71.15-.36.15-.71.25-.36.25-.71-.1101-.36-.1101-.72-.2699-.36-.2699-.72.2999-.36.2999-.72-.02-.36-.02-.72.1801-.36.1801-.72-.0501-.36-.0501-.72.0701-.36.0701-.72-.35-.36-.35-.72-.0701-.36-.0701-.72-.0499-.36-.0499-.72.36-.36.36-.72.1-.36.1-.72-.38-.36-.38-.72-.15-.36-.15-.72.2199-.36.2199-.72-.0699-.36-.0699-.72-.0701-.36-.0701-.72.54-.36.54-.72-.27-.36-.27-.72.2201-.36.2201-.72-.4901-.36-.4901-.72-.11-.36-.11-.72.2101-.36.2101-.72-.1901-.36-.1901-.72.4001-.36.4001-.72-.45-.36-.45-.72.5399-.36.5399-.72-.13-.36-.13-.72.0701-.36.0701-.72-.01-.36-.01-.72.1699-.36.1699-.72-.3199-.36-.3199-.72-.2801-.36-.2801-.72.63-.36.63-.72-.24-.36-.24-.72-.02-.36-.02-.72.0501-.36.0501-.72-.33-.36-.33-.72.33-.36.33-.72-.27-.36-.27-.72.16-.36.16-.72-.23-.36-.23-.72.2-.36.2-.72-.1601-.36-.1601-.72.1801-.36.1801-.72-.3101-.36-.3101-.72.3501-.36.3501-.72-.0901-.36-.0901-.72.25-.36.25-.72-.3399-.36-.3399-.72.15-.36.15-.72-.0501-.36-.0501-.72-.15-.36-.15-.72.49-.36.49-.72-.46-.36-.46-.73.1901-.36.1901-.72.0399-.36.0399-.72-.0999-.36-.0999-.72.16-.36.16-.73-.27-.36-.27-.73-.19-.36-.19-.73.21-.36.21-.73c0-.24.43-.51.41-.75s-.26-.48-.29-.71-.28-.44-.34-.67.03-.51-.05-.74-.42-.36001-.51-.58c-.09-.22.15-.59.05-.81s-.5901-.23-.7101-.44-.0599-.51999-.1999-.71999-.32-.35001-.48-.54001-.1201-.52999-.29-.70999c-.17-.18-.55-.12001-.73-.29001s-.2601-.43-.4401-.58-.4999-.11-.6999-.25-.1901-.6-.4001-.72-.3599-.39-.5699-.5-.6101.16-.8301.08-.5.02-.73-.05-.3399-.55-.5799-.61-.5.05001-.74.01001-.47-.15-.71-.17-.4901-.25-.7301-.25z" fill="#fff"/><path d="m54.2804 13.22c-.11.34-.3401.32-.3401.68s.51.36.51.72-.0299.36-.0299.72-.29.36-.29.72.36.36.36.72-.33.36-.33.72-.1.36-.1.72.0199.36.0199.72.39.36.39.72.0401.36.0401.72-.13.36-.13.72-.07.36-.07.72.0099.36.0099.72-.0799.36-.0799.72.04.36.04.72-.12.36-.12.72-.2001.36-.2001.72.38.36.38.72-.27.36-.27.72-.0599.36-.0599.72.51.36.51.72.01.36.01.72-.6901.36-.6901.72.6701.36.6701.72-.5701.36-.5701.72.4201.36.4201.72-.18.36-.18.72.12.36.12.72-.2101.36-.2101.72.24.36.24.72.0901.36.0901.72-.41.36-.41.72.4599.36.4599.72-.1899.36-.1899.72-.3101.36-.3101.72.3301.36.3301.72-.04.36-.04.72-.1801.36-.1801.72v.72c0 .36-.14.36-.14.72s.1001.36.1001.72-.17.36-.17.72.4699.36.4699.72-.02.36-.02.72.0801.36.0801.72-.2101.36-.2101.72-.3099.36-.3099.72.1999.36.1999.72.4.36.4.72-.2199.36-.2199.72-.0501.36-.0501.72-.0399.36-.0399.72-.0901.36-.0901.72-.1599.36-.1599.72.3999.36.3999.72.03.36.03.72-.2199.36-.2199.72-.0501.36-.0501.72.4301.36.4301.72-.0601.36-.0601.72-.38.36-.38.72-.1999.36-.1999.72.6099.36.6099.72-.63.36-.63.72.4101.36.4101.72.1.36.1.72-.36.36-.36.72.2199.36.2199.72.0601.36.0601.72-.0501.36-.0501.72-.0699.36-.0699.72-.12.36-.12.72.5.36.5.72-.3201.36-.3201.72-.03.36-.03.72-.23.36-.23.72.36.36.36.72-.2899.36-.2899.72-.1.36-.1.72.61.36.61.72-.49.36-.49.72.46.36.46.72-.63.36-.63.72.2199.36.2199.72.3001.36.3001.72.13.36.13.72-.54.36-.54.72.3399.36.3399.72-.4499.36-.4499.72.4599.36.4599.72-.0399.36-.0399.72-.38.36-.38.72.0599.36.0599.72.36.36.36.72v.72c0 .36-.3199.36-.3199.72s.15.36.15.72.1.36.1.72.2099.36.2099.72-.03.36-.03.72-.2899.36-.2899.72.2.36.2.72.16.36.16.72-.0501.36-.0501.72-.4199.36-.4199.72.2899.36.2899.72.13.36.13.72-.38.36-.38.72.4001.36.4001.72-.61.36-.61.72.0599.36.0599.72.3101.36.3101.72.18.36.18.72-.4801.36-.4801.72.4601.36.4601.72.0399.36.0399.72-.35.36-.35.72.11.36.11.72-.2899.36-.2899.72.1799.36.1799.72-.14.36-.14.73.36.36.36.72.12.36.12.72-.3899.36-.3899.72.26.36.26.73.0199.36.0199.73-.2799.36-.2799.73-.14.36-.14.73.2.36.2.73.19.36.19.73-.4.36-.4.72.46.36.46.73-.0301.36-.0301.73-.39.37-.39.73.3501.37.3501.73c0 .24.14.5.12.73s-.61.39-.65.62.44.58.38.8-.3.41-.38.63-.0701.49-.1701.7-.51.27-.63.47-.0799.49-.2099.69-.1201.5-.2701.69-.6899.03-.8499.2-.0001.64-.1701.81-.3899.28-.5699.43-.39.27-.58.41-.5401.04-.7301.17-.3699.26-.5799.38-.4.21-.61.32-.38.28-.59.37-.2501.64-.4801.72-.5799-.23-.8099-.16-.35.52-.58.58-.52-.13-.75-.08-.4801.01-.7101.05-.4599.06-.6999.09-.47-.07-.71-.05-.46-.15-.7-.15c.35 0 .3499.48.7099.48s.3601-.35.7101-.35.35.38.71.38.3499-.13.7099-.13h.7101c.36 0 .36-.42.71-.42s.3599.46.7099.46.3601-.09.7101-.09.36-.17.71-.17.3599.03.7099.03.3601.43.7101.43.36-.66.71-.66.3599.03.7099.03.3601.39.7101.39.36-.2.72-.2.36-.19.72-.19c.24 0 .4699.04.7099.03s.51.28.75.24.4801-.1.7101-.15.4299-.26.6599-.33.52.03.75-.06.5001-.09.7201-.19.3399-.42.5499-.54.3401-.36.5401-.49.59-.02.78-.17.1299-.59.3099-.75.71.02.87-.16.0201-.63.1701-.82.1799-.45.3199-.65.5601-.21.6801-.42.24-.43.35-.65.34-.4.42-.62-.42-.66-.35-.89.58-.34.63-.57.0899-.48.1299-.72.25-.47.27-.72.0601-.5.0601-.75c0-.36-.53-.36-.53-.72s.4499-.36.4499-.72-.2999-.36-.2999-.72.0699-.36.0699-.72-.3299-.36-.3299-.72.42-.36.42-.72.08-.36.08-.72-.3101-.36-.3101-.72.4501-.36.4501-.72-.63-.36-.63-.72.0899-.36.0899-.72.3901-.36.3901-.72.05-.36.05-.72-.4701-.36-.4701-.72.3001-.36.3001-.72.28-.36.28-.72-.4501-.36-.4501-.72-.13-.36-.13-.72 0-.36 0-.72.1101-.36.1101-.72.47-.36.47-.72-.3301-.36-.3301-.72-.0299-.36-.0299-.72-.06-.36-.06-.72-.21-.36-.21-.72.11-.36.11-.72.05-.36.05-.72.2-.36.2-.72-.1701-.36-.1701-.72.2801-.36.2801-.72-.1-.36-.1-.72.0799-.36.0799-.72-.4199-.36-.4199-.72.57-.36.57-.72-.38-.36-.38-.72.37-.36.37-.72-.23-.36-.23-.72-.23-.36-.23-.72.27-.36.27-.72-.38-.36-.38-.72.62-.36.62-.72-.12-.36-.12-.72-.4701-.36-.4701-.72.5601-.36.5601-.72-.47-.36-.47-.72-.14-.36-.14-.72 0-.36 0-.72.15-.36.15-.72 0-.36 0-.72 0-.36 0-.72.22-.36.22-.72-.0601-.36-.0601-.72.0901-.36.0901-.72-.25-.36-.25-.72 0-.36 0-.72.19-.36.19-.72.2099-.36.2099-.72-.11-.36-.11-.72-.38-.36-.38-.72.4701-.36.4701-.72-.3401-.36-.3401-.72-.1799-.36-.1799-.72.47-.36.47-.72-.38-.36-.38-.72-.08-.36-.08-.72.0399-.36.0399-.72.3401-.36.3401-.72-.42-.36-.42-.72.68-.36.68-.72-.04-.36-.04-.72-.02-.36-.02-.72-.4201-.36-.4201-.72.39-.36.39-.72-.38-.36-.38-.72-.15-.36-.15-.72.0601-.36.0601-.72.38-.36.38-.72-.25-.36-.25-.72.42-.36.42-.72-.12-.36-.12-.72-.28-.36-.28-.72.3099-.36.3099-.72-.13-.36-.13-.72-.0699-.36-.0699-.72-.0601-.36-.0601-.72.3401-.36.3401-.72-.2201-.36-.2201-.72-.4299-.36-.4299-.72.1-.36.1-.72-.0301-.36-.0301-.72-.0599-.36-.0599-.72.23-.36.23-.72-.1501-.36-.1501-.72.4001-.36.4001-.72-.07-.36-.07-.72 0-.36 0-.72-.14-.36-.14-.72-.06-.36-.06-.72-.19-.36-.19-.72.49-.36.49-.72.02-.36.02-.72.08-.36.08-.72.0699-.36.0699-.72-.2099-.36-.2099-.72.03-.36.03-.72.12-.36.12-.73-.59-.36-.59-.72.2-.36.2-.72.0799-.36.0799-.72-.1799-.36-.1799-.72.37-.36.37-.72-.0501-.36-.0501-.72-.0899-.36-.0899-.73 0-.36 0-.72-.26-.36-.26-.72-.07-.36-.07-.72.13-.36.13-.72.07-.36.07-.72.24-.36.24-.72-.45-.36-.45-.72.12-.36.12-.73-.01-.36-.01-.72.08-.36.08-.72-.0401-.36-.0401-.72.37-.36.37-.73.0601-.36.0601-.73-.1-.36-.1-.73.1799-.36.1799-.73-.4299-.36-.4299-.73.37-.36.37-.73-.4-.36-.4-.73 0-.36 0-.73.42-.37.42-.73-.29-.37-.29-.73.1999-.42.0899-.76c-.24 0-.5799-.26-.8199-.26s-.47.1-.71.1-.4701.15-.7101.15-.4799-.1-.7099-.1-.47.08-.71.08-.4701.31-.7101.31-.4799-.44-.7199-.44-.48-.09-.71-.09-.4701.1-.7101.11-.4699.28-.7099.29-.48-.08-.71-.08-.4801-.02-.7101-.02-.37.12-.61.12z" fill="#cebefd"/><path d="m53.7506 2.72c-.36 0-.36-.1-.73-.1s-.37-.43-.73-.43-.3699.10001-.7299.10001-.3701.15999-.7301.15999-.37-.12-.73-.12-.37.44-.73.44-.37-.08-.73-.08-.37-.6-.73-.6-.3699.29-.7299.29-.3701.39-.7401.39-.37-.14-.74-.14-.37-.43-.74-.43-.37.51001-.74.51001-.35-.17-.71-.17-.3499.17-.7099.17-.3501-.40001-.7101-.40001-.36 0-.71 0-.3599.03-.7099.03-.3601-.01-.7101-.01-.36.31-.71.31-.36-.5-.71-.5-.36.55-.71.55-.35-.3-.71-.3-.35.06-.71.06-.35-.04-.71-.04-.36-.11999-.71-.11999-.36.42-.71.42-.36-.55001-.71-.55001-.36.16001-.71.16001-.36.37999-.71.37999-.36-.48-.71-.48-.36.14-.71.14-.36.18001-.71.18001-.3599.11-.7099.11-.3601-.12001-.7101-.12001-.36.03-.71.03-.3599.03-.7099.03-.3601-.01999-.7101-.01999-.36-.32001-.71-.32001-.3499.44-.7099.44-.3501-.27-.7101-.27-.35-.29-.71-.29-.3599.5-.7099.5-.3601-.25-.7101-.25-.36-.11999-.71-.11999-.36-.15001-.71-.15001-.36.14-.71.14-.36.33-.72.33-.36.06-.71.06-.36-.51-.71-.51-.36.03-.72.03-.36.23-.72.23-.36-.27-.72-.27-.36.44-.71.44-.36-.11-.72-.11-.36.14-.72.14-.36.13-.72.13-.36 0-.72 0c-.24 0-.47-.05999-.71-.03999s-.48-.07-.72-.03-.43.26999-.66.31999c-.23001.05-.49999-.04999-.72999.02001s-.48998.03999-.71998.12999-.38998.3-.60998.41-.61007-.12-.82007 0-.20002.59-.40002.72-.53998.08-.72998.23-.53996.14001-.70996.31001.07003.75999-.08997.93999-.73001 0-.88001.19-.23999.45001-.36999.65001.15991.65999.02991.86999-.43993.29-.54993.51-.41.35-.5.58.07.54 0 .77-.27008.42001-.33008.66001c-.06.23999.20005.51999.17005.75999s-.40005.43-.42005.68.28003.49.28003.73c0 .36-.32996.36-.32996.71s.19996.36.19996.71-.41993.36-.41993.71.60999.36.60999.71.02002.36.02002.71-.3501.36-.3501.71-.16992.36-.16992.71.03003.36.03003.71-.02002.36-.02002.71.53992.36.53992.71-.64991.36-.64991.71.1399.36.1399.72-.13001.36-.13001.72.55005.36.55005.72-.44995.36-.44995.72v.72c0 .36.27991.36.27991.72v.72c0 .36-.16993.36-.16993.72s.41004.36.41004.72-.37012.36-.37012.72-.25.36-.25.72.15003.36.15003.72-.09998.36-.09998.72.21997.36.21997.72.35999.36.35999.72-.6399.36-.6399.72-.03003.36-.03003.72.04993.36.04993.72-.05994.36-.05994.72.26001.36.26001.72-.08007.36-.08007.72-.06995.36-.06995.72.03003.36.03003.72.54993.36.54993.72-.06995.36-.06995.72-.25.36-.25.72.17993.36.17993.72.11011.36.11011.72-.11011.36-.11011.72.01001.36.01001.72-.25.36-.25.72.34009.36.34009.72-.60999.36-.60999.72.02991.36.02991.72.03003.36.03003.72-.05994.36-.05994.72.1399.36.1399.72-.12.36-.12.72.22009.36.22009.72.17994.36.17994.72-.32996.36-.32996.72.16992.36.16992.72-.21997.36-.21997.72.09998.36.09998.72-.09998.36-.09998.72.55005.36.55005.72.07996.36.07996.72-.39002.36-.39002.72-.27991.36-.27991.72.04993.36.04993.72.35999.36.35999.72.09997.36.09997.72-.42993.36-.42993.72.15002.36.15002.72-.19006.36-.19006.72.08008.36.08008.72.29993.36.29993.72-.28003.36-.28003.72.08007.36.08007.72.16993.36.16993.72-.14991.36-.14991.72.22998.36.22998.71-.26001.36-.26001.71.02002.36.02002.71.15003.36.15003.72-.12012.36-.12012.72.18006.36.18006.72-.40003.36-.40003.72.47998.36.47998.72-.13989.36-.13989.72-.2301.36-.2301.72-.02991.36-.02991.72.1499.36.1499.72.08008.36.08008.72.08997.36.08997.72-.30005.36-.30005.72.07006.36.07006.72-.14001.36-.14001.72.12.36.12.72-.19996.36-.19996.72.16993.36.16993.72-.13001.36-.13001.72.23999.36.23999.72v.72c0 .36-.25.36-.25.72s.38001.36.38001.72-.30994.36-.30994.72.35999.36.35999.72-.22999.36-.22999.72-.18005.36-.18005.72.10999.36.10999.72-.16993.36-.16993.72.20997.36.20997.72.21997.36.21997.72-.40003.36-.40003.72.62012.36.62012.72-.08008.36-.08008.72-.09997.36-.09997.72-.38001.36-.38001.72.18005.36.18005.72-.28003.36-.28003.72.03992.36.03992.72.17005.36.17005.72.10998.36.10998.72.19006.36.19006.72-.28002.36-.28002.72v.72c0 .36.31994.36.31994.72s-.38989.36-.38989.72.29993.36.29993.72-.45997.36-.45997.72.20997.36.20997.72-.17994.36-.17994.72.44996.36.44996.72-.43006.36-.43006.72.33008.36.33008.72.15991.36.15991.72-.5199.36-.5199.72.43995.36.43995.73-.40003.36-.40003.72.47009.36.47009.72-.49011.36-.49011.72.24011.36.24011.73-.11999.36-.11999.73.45996.36.45996.73-.21997.36-.21997.73c0 .24-.27.5-.25.74s.4799.43.5199.67-.33991.56-.27991.79.23994.45.30994.68.52999.32.61999.54-.38003.69-.28003.91.21008.46.33008.67.65993.16.79993.36.30008.36.46008.55.03995.6.19995.78.43999.25.60999.42.17999.54.36999.69.48005.19.68005.33c.20001.14.45004.2.66004.33s.30991.47.52991.58.49008.15.71008.24.49998.09.72998.16.46995.18.69995.23c.23002.05.47012.23.71012.27s.5199-.15.7599-.13.4901-.35.7401-.35c.35 0 .3499.36.7099.36s.35-.42.71-.42.3501.59.7101.59.3599.06.7099.06.36-.48.71-.48.36.44.71.44.36-.57.71-.57.36.36.71.36h.71c.35 0 .35-.05.71-.05s.35.27.71.27.35-.42.71-.42.36-.13.71-.13.36.06.71.06.36-.14.71-.14.36.41.71.41.36-.08.71-.08.36.23.71.23.3601-.12.7101-.12.3599-.03.7099-.03h.71c.35 0 .3601-.26.7101-.26s.3599.44.7099.44.36-.34.71-.34.3601-.17.7101-.17.3599.52.7099.52.35-.45.71-.45.3501.06.7101.06.3499.19.7099.19.36-.03.71-.03.36.07.71.07.36-.36.71-.36.36.46.71.46.36-.05.71-.05.36-.29.72-.29.36-.19.71-.19.36.34.71.34.3601-.4.7201-.4.3599.51.7199.51.36-.23.72-.23.36-.09.71-.09.3601.32.7201.32.3599-.4.7199-.4.36.19.72.19.36.11.72.11.36-.33.73-.33.3701.18.7301.18.3699.23.7299.23.37.18.73.18.37-.34.73-.34.37-.23.73-.23.37.02.73.02.3701-.04.7301-.04.3699-.02.7299-.02.37.29.74.29.37-.36.74-.36.37.05.74.05.37.13.74.13c.24 0 .46-.17.7-.19s.47 0 .7-.04.58.48.82.42.31-.72.54-.79.4601-.09.6801-.18.4499-.13.6699-.24.53-.02.73-.14.47-.17.67-.31.16-.59.35-.74.62 0 .8-.17.09-.58.26-.76.32-.33.47-.52.2901-.36.4301-.56.5999-.19.7199-.4-.06-.58.05-.79.18-.43.27-.66.54-.32.61-.55 0-.51.06-.74-.1199-.51-.0899-.75.0899-.46.1099-.71.05-.47.05-.72c0-.36.0801-.36.0801-.71s.1199-.36.1199-.71-.02-.36-.02-.71-.29-.36-.29-.71.35-.36.35-.71-.32-.36-.32-.71.48-.36.48-.71-.17-.36-.17-.71.13-.36.13-.71-.42-.36-.42-.71.23-.36.23-.71-.31-.36-.31-.72.45-.36.45-.72-.13-.36-.13-.72.19-.36.19-.72-.1599-.36-.1599-.72-.2001-.36-.2001-.72.29-.36.29-.72-.03-.36-.03-.72-.33-.36-.33-.72 0-.36 0-.72.2701-.36.2701-.72-.0901-.36-.0901-.72.23-.36.23-.72-.19-.36-.19-.72.22-.36.22-.72-.21-.36-.21-.72-.3399-.36-.3399-.72-.0401-.36-.0401-.72.25-.36.25-.72-.13-.36-.13-.72.41-.36.41-.72-.34-.36-.34-.72.26-.36.26-.72.12-.36.12-.72 0-.36 0-.72-.1399-.36-.1399-.72-.25-.36-.25-.72-.1501-.36-.1501-.72.19-.36.19-.72.16-.36.16-.72-.07-.36-.07-.72-.0199-.36-.0199-.72-.1601-.36-.1601-.72-.11-.36-.11-.72.0301-.36.0301-.72.1799-.36.1799-.72-.0499-.36-.0499-.72.0299-.36.0299-.72.39-.36.39-.72-.4-.36-.4-.72.37-.36.37-.72-.3-.36-.3-.72-.13-.36-.13-.72.36-.36.36-.72-.29-.36-.29-.72-.12-.36-.12-.72.16-.36.16-.72-.03-.36-.03-.72-.22-.36-.22-.72.51-.36.51-.72-.18-.36-.18-.72.16-.36.16-.72-.03-.36-.03-.72.16-.36.16-.72-.52-.36-.52-.72.51-.36.51-.72-.05-.36-.05-.72-.32-.36-.32-.72-.1899-.36-.1899-.72.2799-.36.2799-.72.12-.36.12-.72.2301-.36.2301-.71-.4401-.36-.4401-.71-.02-.36-.02-.71.09-.36.09-.72-.17-.36-.17-.72-.08-.36-.08-.72-.03-.36-.03-.72.67-.36.67-.72-.12-.36-.12-.72-.0299-.36-.0299-.72-.1801-.36-.1801-.72-.15-.36-.15-.72-.0499-.36-.0499-.72.0499-.36.0499-.72.4601-.36.4601-.72-.4601-.36-.4601-.72.4601-.36.4601-.72-.0801-.36-.0801-.72-.5599-.36-.5599-.72.0299-.36.0299-.72.24-.36.24-.72.02-.36.02-.72-.2-.36-.2-.72-.0799-.36-.0799-.72.0399-.36.0399-.72.61-.36.61-.72-.44-.36-.44-.72.02-.36.02-.72.31-.36.31-.72-.08-.36-.08-.72-.16-.36-.16-.72.23-.36.23-.72-.45-.36-.45-.72.19-.36.19-.72.25-.36.25-.72-.07-.36-.07-.72-.25-.36-.25-.72.23-.36.23-.72-.42-.36-.42-.72.6-.36.6-.72-.03-.36-.03-.72-.4-.36-.4-.72.13-.36.13-.72.2-.36.2-.72-.1299-.36-.1299-.72.0499-.36.0499-.72.0701-.36.0701-.72-.1601-.36-.1601-.72.08-.36.08-.72-.34-.36-.34-.72.02-.36.02-.72.1501-.36.1501-.72.0699-.36.0699-.72.02-.36.02-.72-.07-.36-.07-.72-.23-.36-.23-.72-.02-.36-.02-.72.58-.36.58-.73-.03-.36-.03-.72-.3-.36-.3-.72.2201-.36.2201-.72-.1001-.36-.1001-.73.2-.36.2-.73-.55-.36-.55-.73.19-.36.19-.73c0-.24-.28-.46-.29-.7s.15-.49.11-.73-.05-.48-.1-.70999c-.05-.23-.2-.44-.27-.67s-.15-.45001-.24-.67001.2901-.65999.1901-.87999-.6701-.20001-.7901-.41001 0-.58-.13-.77-.59-.15999-.74-.34999-.21-.44001-.37-.62001-.04-.66-.21-.82-.74.12001-.93-.02999-.23-.48001-.43-.61001-.47-.14-.68-.27-.21-.64-.43-.74-.65.27-.87.18-.4299-.17-.6699-.24-.4301-.2-.6701-.26-.41-.42-.65-.46-.52.34-.76.32-.46.04-.71.04z" stroke="#000" stroke-linecap="round" stroke-linejoin="round" stroke-width="2.6"/><path d="m20.6002 129.02c.35 0 .3501.34.7101.34s.35-.26.71-.26.3499-.27.7099-.27.35.22.71.22.3501.25.7101.25.3499-.52.7099-.52.36.34.71.34.3501.19.7101.19.3499-.59.7099-.59.35.26.71.26.3501.27.7101.27.3499-.2.7099-.2.35.26.71.26.3601-.27.7101-.27.3499-.04.7099-.04.35.02.71.02.3501.27.7101.27.3499-.16.6999-.16.35-.39.71-.39.3501.24.7101.24.3499.22.7099.22.36-.12.71-.12.3501-.25.7101-.25.3499.41.7099.41.35-.24.71-.24.3601-.18.7101-.18.3599.03.7099.03.36.04.71.04.3601-.15.7101-.15.3599.12.7099.12.36.39.71.39.3601-.15.7101-.15.36-.36.71-.36.3599.12.7199.12.36-.06.72-.06.3601.45.7201.45c.24 0 .4799-.16.7099-.19s.48-.04.7-.09.38-.37.6-.45.54.08.75-.02.36-.32.56-.44.55-.05.74-.19.34-.36.5-.53.25-.42.4-.61-.03-.58.09-.78.62-.18.72-.39-.08-.54 0-.76.3101-.39.3601-.62.1299-.46.1599-.69.03-.47.03-.71c0-.48.0201-.48.0201-.96 0-.28-.1501-.55-.2801-.77s-.2299-.6-.4599-.74-.59-.29-.87-.29c-.35 0-.3501.46-.7101.46s-.35-.15-.71-.15-.3499-.28-.7099-.28-.3601.5-.7101.5-.36 0-.71 0-.3599-.34-.7099-.34-.3601.19-.7101.19-.36-.05-.71-.05-.3599.17-.7099.17-.36-.17-.72-.17-.3601.07-.7101.07-.36-.11-.71-.11-.3599-.27-.7099-.27-.3601.45-.7101.45-.36-.37-.71-.37-.3599-.01-.7099-.01-.3601.02-.7101.02-.36.5-.71.5-.3599-.62-.7099-.62-.3601.38-.7201.38-.36-.1-.72-.1-.36-.15-.71-.15-.3599.48-.7099.48-.3601-.48-.7101-.48-.36-.18-.71-.18-.3599.36-.7199.36-.3601.1-.7201.1-.36.08-.72.08-.36-.49-.71-.49-.3599.46-.7199.46-.3601.09-.7101.09-.36-.23-.71-.23-.3599-.25-.7099-.25-.3601 0-.7201 0-.36-.04-.72-.04-.36.42-.72.42-.3599-.38-.7099-.38-.3601.31-.7201.31-.36.12-.72.12-.36-.23-.72-.23-.3599-.18-.7199-.18-.3601-.15-.7201-.15-.36.49-.72.49-.36-.07-.72-.07-.3599-.19-.7199-.19-.36.18-.72.18-.3601.11-.7201.11-.36-.24-.72-.24-.3599.28-.7199.28c-.28 0-.6001-.27-.8301-.14s-.18.54-.31.78-.6099.38-.6099.66c0 .48.5399.48.5399.96 0 .24-.6.5-.57.73s.53.39.58.62.1401.42.2201.64-.11.55 0 .76.48.26.6.46-.11.65.04.83.31.38.48.55.57.07.75.22.17.58.37.71.54.02.75.12.4799.05.6999.13.3401.51.5701.56.4799.16.7099.19.5-.27.73-.27z" fill="#fff"/><path d="m52.0306 125.24c.1-.25.24-.57.31-.83s-.14-.58-.11-.85.01-.52.01-.79c0-.48.17-.48.17-.96 0-.28-.0901-.52-.2201-.75s-.1499-.7-.3799-.84-.64.09-.92.09c-.35 0-.35.04-.71.04s-.35-.25-.71-.25-.35.14-.71.14-.36.05-.71.05-.36.03-.71.03-.36.18-.71.18-.36-.24-.71-.24-.3601-.27-.7101-.27-.3599.3-.7099.3-.36.03-.72.03-.3601.21-.7101.21-.3599-.58-.7099-.58-.36.19-.71.19-.3601.26-.7101.26-.3599-.33-.7099-.33-.36.18-.71.18-.36.24-.71.24-.36-.49-.71-.49-.36.06-.71.06-.36-.04-.72-.04-.3601.31-.7201.31-.3599-.22-.7099-.22-.36.19-.71.19-.3601.05-.7101.05-.3599.13-.7099.13-.36-.01-.72-.01-.36-.41-.72-.41-.3601.04-.7201.04-.3599.22-.7099.22-.36-.37-.72-.37-.36.07-.71.07-.36.38-.71.38-.36.2-.71.2-.36-.03-.72-.03-.3601-.53-.7201-.53-.3599.37-.7199.37-.36.07-.71.07-.36-.3-.72-.3-.3601-.17-.7201-.17-.3599-.06-.7199-.06-.36.14-.72.14-.36-.14-.72-.14-.3601.58-.7201.58-.3599-.4-.7199-.4-.36.28-.72.28-.36-.37-.72-.37-.3601.3-.7201.3-.3599-.24-.7199-.24-.36.36-.72.36c-.28 0-.5901-.2-.8101-.07s-.2499.48-.3899.72-.08.41-.08.69c0 .48-.12.48-.12.96 0 .23-.02.44 0 .66s.13.42.18.64-.1701.62-.0901.83c.24 0 .5801-.02.8201-.02s.48-.23.72-.23.4799-.08.7199-.08.4801-.07.7201-.06.48 0 .72.01.46.56.7.57.4899-.42.7299-.41.4801.12.7101.13.48.05.72.05.47.15.71.16.48-.21.72-.2.48.02.72.03.48-.08.72-.07.4699.42.7099.43.4801.07.7201.07.49-.57.73-.56.47.35.71.36.4799.12.7099.13.4801.02.7201.03.49-.31.73-.31.48-.02.72-.01.4799.13.7099.13.4801-.1.7201-.1.47.17.71.18.47.43.71.43.4799-.22.7199-.21.4801.09.7201.09.48-.32.72-.32.47.19.71.19.4799-.33.7199-.33.4801.02.7201.02.47.62.71.62.48-.52.72-.52.47.42.71.42.48-.38.72-.38.48.07.72.07.4799.4.7199.4.4801-.13.7201-.13.48-.34.72-.35.48-.03.72-.03h.72c.24 0 .48.36.72.36s.48-.03.72-.03.48.09.72.08.48-.08.72-.08.48-.16.71-.17.48.21.72.2.47-.2.71-.2.4699-.11.7099-.12.4901.35.7301.34l.72-.03c.24-.01.54-.19.78-.2z" fill="#cebefd"/><path d="m20.6005 128.94c.35 0 .35-.1.71-.1s.35-.14.71-.14.35.42.71.42.3499-.24.7099-.24.3501-.06.7101-.06.35.12.71.12.3599.29.7099.29.3501.06.7101.06.35-.35.71-.35.3499-.18.7099-.18.3501.1.7101.1.35.35.71.35.3499-.51.7099-.51.3601.13.7101.13.35.53.71.53.3499-.31.7099-.31.3501.12.7101.12.35-.29.7-.29.3499-.16.7099-.16.3501.53.7101.53.35-.07.71-.07.3599.09.7099.09.3501-.09.7101-.09.35.11.71.11.35-.06.71-.06.36-.01.71-.01.36.03.71.03.36.12.71.12.36-.12.71-.12.36-.1.71-.1.36.21.71.21.36-.19.71-.19.36-.26.71-.26.36.04.72.04.3599.1.7199.1.3601-.07.7201-.07c.24 0 .5.32.73.29s.4-.47.63-.53.4-.22.62-.3.43-.11.65-.21.66.22.86.09.41-.29.59-.43.25-.46.41-.62.23-.43.37-.61.6-.17.73-.36.19-.47.29-.68-.07-.55 0-.77-.1701-.51-.1201-.74.2901-.4.3201-.63.16-.45.16-.69c0-.48.17-.48.17-.96 0-.28.03-.69-.1-.91s-.6-.24-.83-.38-.47-.13-.74-.13c-.35 0-.3501-.38-.7101-.38s-.3499.03-.7099.03-.35.03-.71.03-.3601.11-.7101.11-.3599.16-.7099.16-.36-.05-.71-.05-.3601.26-.7101.26-.3599-.26-.7099-.26-.36.22-.71.22-.36-.13-.72-.13-.36.06-.71.06-.36-.18-.71-.18-.36-.23-.71-.23-.36.05-.71.05-.36-.15-.71-.15-.36 0-.71 0-.36.32-.71.32-.36-.13-.71-.13-.36.21-.71.21-.3601-.18-.7201-.18-.3599.2-.7199.2-.36-.02-.71-.02-.36.13-.71.13-.36-.08-.71-.08-.36-.2-.71-.2-.36.39-.72.39-.3601-.27-.7201-.27-.3599-.36-.7199-.36-.36.1-.71.1-.36-.07-.72-.07-.36.34-.71.34-.36-.05-.71-.05-.36-.2-.71-.2-.3601-.02-.7201-.02-.3599.47-.7199.47-.36-.06-.72-.06-.36-.41-.71-.41-.3601.22-.7201.22-.3599.05-.7199.05-.36-.13-.72-.13-.36-.13-.72-.13-.3601-.09-.7201-.09-.3599.5-.7199.5-.36-.4-.72-.4-.36-.02-.72-.02-.3601.1-.7201.1-.3599.24-.7199.24-.36-.03-.72-.03-.36-.36-.72-.36c-.28 0-.71.09-.93.22s-.06.73-.19.96-.73.37-.73.65c0 .48.42.48.42.96 0 .24-.35.5-.32.73s.56.38.62.61-.18.53-.1.75.33.37.43.58.41.28.53.48.05.51.2.69.34.3.51.47.2.47.38.62.33.35.53.48.5.06.72.16.47.05.69.12.44.05.67.1.3799.49.6099.52.4701-.14.7101-.14z" stroke="#000" stroke-linecap="round" stroke-linejoin="round" stroke-width="2.6"/><path d="m27.8202 93.72c0-.36.3601-.36.3601-.71s-.2301-.36-.2301-.71.28-.36.28-.71.0801-.36.0801-.72-.2401-.36-.2401-.72 0-.36 0-.72-.25-.36-.25-.72.68-.36.68-.72-.2399-.36-.2399-.72-.2701-.36-.2701-.72-.11-.36-.11-.72 0-.36 0-.72.58-.36.58-.72-.5299-.36-.5299-.72-.01-.36-.01-.71.5499-.36.5499-.71 0-.36 0-.71-.4499-.36-.4499-.71-.1601-.36-.1601-.71.22-.36.22-.71.11-.36.11-.72-.32-.36-.32-.72.62-.36.62-.72.0201-.36.0201-.72-.5701-.36-.5701-.72.16-.36.16-.72.1801-.36.1801-.71.03-.36.03-.71.12-.36.12-.71-.27-.36-.27-.71.15-.36.15-.71-.29-.36-.29-.71.0699-.36.0699-.71.26-.36.26-.71-.12-.36-.12-.71-.24-.36-.24-.71.33-.36.33-.72-.22-.36-.22-.72.2101-.36.2101-.72-.4901-.36-.4901-.72.2101-.36.2101-.72.1799-.36.1799-.72.03-.36.03-.72.1501-.36.1501-.72-.33-.36-.33-.72.0699-.36.0699-.72-.17-.36-.17-.72.2001-.36.2001-.72-.0301-.36-.0301-.72.2901-.36.2901-.72-.27-.36-.27-.72-.14-.36-.14-.72-.11-.36-.11-.72.3499-.36.3499-.72-.16-.36-.16-.72-.25-.36-.25-.72.24-.36.24-.72-.0199-.36-.0199-.72-.02-.36-.02-.72.4299-.36.4299-.72-.22-.36-.22-.72-.41-.36-.41-.71.6901-.36.6901-.71-.1501-.36-.1501-.72-.19-.36-.19-.72.3-.36.3-.72-.4799-.36-.4799-.72.3-.36.3-.72.1799-.36.1799-.72-.39-.36-.39-.72-.11-.36-.11-.72.1-.36.1-.72-.0499-.36-.0499-.72.1-.36.1-.72.15-.36.15-.72-.23-.36-.23-.72.2699-.36.2699-.72-.0699-.36-.0699-.72.2199-.36.2199-.73-.39-.36-.39-.73c0-.14-.11-.24-.48-.33-.2-.05-.4199-.19-.6899-.23-.22-.03-.49.17-.74.15-.23-.02-.4701.08-.7201.07s-.47-.57-.71-.57-.4999.07-.7299.08-.4701.49-.7001.51c-.26.02-.53-.32-.75-.29-.27.04-.43.44-.63.5-.36.1-.7699-.04-.7699.12 0 .36.1799.36.1799.71s.25.36.25.71-.51.36-.51.71-.0399.36-.0399.71.3099.36.3099.72-.36.36-.36.72.07.36.07.72.3401.36.3401.72-.4.36-.4.72.4299.36.4299.72-.1599.36-.1599.72.2899.36.2899.72-.5299.36-.5299.72.1899.36.1899.72.23.36.23.71-.35.36-.35.71.0401.36.0401.71-.0701.36-.0701.71.16.36.16.71v.71c0 .35.3001.36.3001.72s-.5401.36-.5401.72.48.36.48.72-.1899.36-.1899.72-.3201.36-.3201.72v.72c0 .36.35.36.35.71s-.1.36-.1.71.0701.36.0701.71-.2901.36-.2901.71-.03.36-.03.71.52.36.52.71v.71c0 .35-.3199.36-.3199.71s.0299.36.0299.71.03.36.03.71.24.36.24.72.1.36.1.72-.5.36-.5.72.4.36.4.72.0701.36.0701.72-.4401.36-.4401.72-.15.36-.15.72.3101.36.3101.72-.1501.36-.1501.72.4001.36.4001.72-.23.36-.23.72.24.36.24.72-.3301.36-.3301.72.42.36.42.72-.4599.36-.4599.72.0999.36.0999.72-.0699.36-.0699.72.0699.36.0699.72.0301.36.0301.72.2099.36.2099.72-.0599.36-.0599.72.08.36.08.72-.09.36-.09.72.1899.36.1899.72-.2999.36-.2999.72-.2001.36-.2001.71-.0999.36-.0999.71.3599.36.3599.72.1701.36.1701.72-.3401.36-.3401.72.24.36.24.72-.48.36-.48.72.24.36.24.72v.72c0 .36.05.36.05.72s-.0699.36-.0699.72-.1901.36-.1901.72.4301.36.4301.72-.4601.36-.4601.72.0501.36.0501.72.02.36.02.72.1999.36.1999.72-.2099.36-.2099.73-.0501.36-.0501.73c0 .22.2301.44.1901.65s.1699.55.0799.75-.5999.17-.7299.35-.3.25-.48.38c-.2.15-.44.3-.62.48s-.1801.55-.3401.74-.3699.36-.5199.56.1.64-.02.86-.42.33-.52.56-.39.39-.47.63.27.57.22.82-.3001.44-.3201.7-.3899.49-.3899.75c0 .24.6.44.63.67s-.2701.51-.2301.74.2801.41.3401.64-.3101.62-.2201.84.64.23.75.43.37.3.5.5-.23.75-.08.93.55.16.72.32.21.47.39.62.41.26.6.4.55.01.75.13.34.35.55.45.4401.17.6601.24.5-.11.73-.06.39.37.63.4.4599.35.6899.36c.25 0 .49-.54.73-.56s.54.38.78.34.38-.54.62-.61.68.47.91.38.39-.39.61-.5.4401-.26.6501-.39.1799-.59.3699-.74.4901-.16.6701-.33.2399-.43.3999-.62.5501-.2.6901-.4-.0601-.6.0599-.82.56-.27.66-.49.32-.43.39-.66-.0299-.53.0201-.77-.1701-.52-.1401-.76.2801-.47.2801-.72.14-.52.11-.76-.4701-.43-.5201-.67.3701-.61.2901-.84-.7501-.25-.8501-.47.17-.62.05-.83-.38-.34-.52-.55-.1-.55-.26-.74-.3699-.34-.5499-.51-.31-.41-.5-.57c-.18-.14-.49-.14-.63-.31s-.2301-.4-.3201-.6-.2-.41-.25-.63-.38-.45-.38-.68z" fill="#76fb8f"/><g stroke="#000" stroke-linecap="round" stroke-linejoin="round" stroke-width="2.6"><path d="m28.2304 93.72c0-.36-.41-.36-.41-.72s.12-.36.12-.72.1901-.36.1901-.72-.1501-.36-.1501-.72.09-.36.09-.72.15-.36.15-.72-.4-.36-.4-.72.3101-.36.3101-.72-.1701-.36-.1701-.72.48-.36.48-.72-.3999-.36-.3999-.72.23-.36.23-.72.13-.36.13-.72-.02-.36-.02-.72-.3801-.36-.3801-.72.21-.36.21-.72.14-.36.14-.72-.2199-.36-.2199-.72-.32-.36-.32-.72.09-.36.09-.72.01-.36.01-.72.2099-.36.2099-.72.11-.36.11-.72-.3199-.36-.3199-.72.26-.36.26-.72.21-.36.21-.72.0599-.36.0599-.72-.2899-.36-.2899-.72-.0601-.36-.0601-.72-.1-.36-.1-.72.4001-.36.4001-.72-.08-.36-.08-.72-.4401-.36-.4401-.72.23-.36.23-.72-.0499-.36-.0499-.72.2999-.36.2999-.72-.4199-.36-.4199-.72.36-.36.36-.72-.1901-.36-.1901-.72-.2899-.36-.2899-.72.25-.36.25-.71 0-.36 0-.71-.25-.36-.25-.71.5299-.36.5299-.72.03-.36.03-.72-.38-.36-.38-.72.13-.36.13-.72-.26-.36-.26-.72.47-.36.47-.72-.4499-.36-.4499-.72.1899-.36.1899-.72.25-.36.25-.72-.07-.36-.07-.72-.14-.36-.14-.72 0-.36 0-.72.2901-.36.2901-.72-.3301-.36-.3301-.72.0601-.36.0601-.72.3599-.36.3599-.72-.14-.36-.14-.72-.4299-.36-.4299-.72.4299-.36.4299-.72-.52-.36-.52-.72.01-.36.01-.72.1-.36.1-.72.56-.36.56-.72-.28-.36-.28-.72-.14-.36-.14-.72-.24-.36-.24-.72.36-.36.36-.72.0901-.36.0901-.72-.14-.36-.14-.72.24-.36.24-.72-.09-.36-.09-.72-.3501-.36-.3501-.72.15-.36.15-.72.36-.36.36-.72-.1699-.36-.1699-.72-.49-.36-.49-.72.5-.36.5-.72-.17-.36-.17-.72-.11-.36-.11-.72-.23-.36-.23-.72.34-.36.34-.72-.1501-.36-.1501-.72-.14-.36-.14-.72.0701-.36.0701-.72-.0601-.36-.0601-.72.2901-.36.2901-.72.0899-.36.0899-.72-.4299-.36-.4299-.72.3999-.36.3999-.72.17-.36.17-.72-.41-.36-.41-.72-.0599-.36-.0599-.72.03-.36.03-.72-.0801-.36-.0801-.72.3201-.36.3201-.73.2899-.36.2899-.72-.4099-.36-.4099-.72-.03-.36-.03-.72.14-.36.14-.73.1699-.36.1699-.73-.11-.36-.11-.73-.03-.36-.03-.73c0-.26-.29-.47-.35-.72s.11-.57 0-.8-.2999-.43-.4599-.63-.26-.49-.46-.65-.53-.14-.76-.25-.4201-.35-.6801-.41-.53.29-.79.29c-.04 0-.04-.53-.09-.53-.26 0-.5499.15-.7999.21s-.3601.5-.5901.61-.57.02-.77.18-.29.42-.45.62-.3299.38-.4399.61.03.51-.03.76-.14.44-.14.7c0 .36-.24.36-.24.72s.3099.36.3099.72-.45.36-.45.72.4201.36.4201.72-.13.36-.13.72.0499.36.0499.72-.35.36-.35.72-.0999.36-.0999.72.03.36.03.72.1.36.1.72.29.36.29.72-.3.36-.3.72.3299.36.3299.72-.11.36-.11.72.11.36.11.72-.0299.36-.0299.72-.39.36-.39.72.59.36.59.72-.5501.36-.5501.72.24.36.24.72.1101.36.1101.72.09.36.09.72-.35.36-.35.72.4399.36.4399.72v.72c0 .36-.4599.36-.4599.72s.4399.36.4399.72-.3199.36-.3199.72-.1901.36-.1901.72-.02.36-.02.72-.0099.36-.0099.72.2999.36.2999.72.1901.36.1901.72-.0701.36-.0701.72-.26.36-.26.72.4201.36.4201.72-.0101.36-.0101.72-.3499.36-.3499.72-.0801.36-.0801.72-.11.36-.11.72.15.36.15.71-.0799.36-.0799.71.35.36.35.71-.4401.36-.4401.72.2001.36.2001.72.27.36.27.72.15.36.15.72-.28.36-.28.72.28.36.28.72-.03.36-.03.72-.27.36-.27.72.0899.36.0899.72-.23.36-.23.72-.2399.36-.2399.72.16.36.16.72.2799.36.2799.72-.0299.36-.0299.72-.2101.36-.2101.72.4401.36.4401.72-.6.36-.6.72.3199.36.3199.72.2.36.2.72-.3999.36-.3999.72.22.36.22.72-.0601.36-.0601.72-.09.36-.09.72.1601.36.1601.72-.23.36-.23.72.24.36.24.72-.0301.36-.0301.72.0201.36.0201.72-.37.36-.37.72.0399.36.0399.72-.0099.36-.0099.72.2699.36.2699.72-.2799.36-.2799.72.0199.36.0199.72.4.36.4.72-.0599.36-.0599.72-.36.36-.36.72.21.36.21.72.38.36.38.72.05.36.05.72-.43.36-.43.72.25.36.25.72.0999.36.0999.72-.5699.36-.5699.72.0799.36.0799.72.35.36.35.72-.22.36-.22.72.34.36.34.72-.1999.36-.1999.72-.12.36-.12.72.16.36.16.72.0699.36.0699.72-.25.36-.25.72-.0799.36-.0799.72.26.36.26.73-.13.36-.13.72.3099.36.3099.72-.12.36-.12.72-.0999.36-.0999.73-.3001.36-.3001.73.4701.36.4701.73-.0901.36-.0901.73c0 .22.0001.47-.0399.69s-.4801.3-.5701.5-.0599.43-.1999.61-.21.39-.39.52c-.2.15-.42.28-.61.46s-.2901.42-.4501.61-.09.54-.24.75-.62.19-.74.42-.3599.4-.4599.63.2699.63.1899.87-.5199.38-.5699.63-.0201.52-.0401.77.0801.51.0801.76c0 .24.33.44.36.67s-.3801.53-.3301.76.0301.5.1001.72.2099.45.2999.66.23.42.35.63.2001.44.3401.64.3999.3.5399.49.5501.12.7201.29-.0001.68.1799.83.3301.36.5301.5.56.01.76.13.3499.35.5599.45.43.21.65.29.4501.19.6801.25.5-.08.73-.05.4599.04.6999.05c.25 0 .49-.04.73-.05s.52.14.76.1.53.01.76-.05.4801-.19.7101-.27.49-.16.71-.27.2499-.57.4499-.7.46-.19.65-.34.19-.5.37-.67.5301-.16.6801-.35.63-.16.77-.36-.26-.74-.14-.96.66-.22.75-.45-.11-.57-.04-.81.1599-.45.2099-.7.33-.45.35-.7.2201-.51.2201-.76-.0201-.53-.0401-.77-.1699-.5-.2199-.74-.2501-.46-.3201-.7-.1899-.47-.2799-.69-.2201-.45-.3401-.66-.1599-.49-.2899-.7-.21-.49-.37-.68-.4301-.3-.6101-.47-.4799-.21-.6699-.37c-.18-.14-.2801-.36-.4201-.53s0-.48-.1-.69-.75-.21-.8-.44.29-.51.29-.74z"/><path d="m36.6803 52.01c-.44 0-.44 0-.88 0"/><path d="m36.6803 60.25c-.44 0-.44-.21-.88-.21"/><path d="m39.6805 68.1c-.39 0-.39-.37-.77-.37s-.39.1-.78.1-.39.14-.78.14-.3901-.21-.7801-.21-.3899.52-.7799.52"/><path d="m36.6803 76.26c-.44 0-.44-.07-.88-.07"/><path d="m36.6803 83.93c-.44 0-.44.03-.88.03"/><path d="m39.6805 91.74c-.39 0-.39.39-.77.39s-.39 0-.78 0-.39.1-.78.1-.3901-.33-.7801-.33-.3899-.15-.7799-.15"/><path d="m39.6805 44.26c-.39 0-.39-.51-.77-.51s-.39.51-.78.51-.39-.32-.78-.32-.3901-.19-.7801-.19-.3899.3-.7799.3"/><path d="m36.6803 36.35c-.44 0-.44-.6-.88-.6"/><path d="m36.6803 28.09c-.44 0-.44.24-.88.24"/><path d="m39.6805 19.75c-.39 0-.39.64-.77.64s-.39-.55-.78-.55-.39.13-.78.13-.3901.3-.7801.3-.3899-.12-.7799-.12"/></g><path d="m49.9904 116.73c-.19.13-.14.06-.11-.15.03-.1.06-.25.21-.46.12-.19.44-.4.65-.45.34-.1.5201-.13.4301-.15-.03-.04-.3601.2-.2001.06.11-.13.27-.29.38-.41 0 0 .05-.05 0-.01-.09.08-.1599.22-.1799.28-.11.32-.0601.31-.0901.31-.06-.22-.1-.3-.11-.62 0-.32.0801-.64.3101-.94.06-.07.1-.11.15-.16.38-.34.5999-.4.5499-.41 0 0-.0399.02-.0799.06-.03.03-.15.17.02-.04.21-.23.38-.33.49-.4.22-.1.2299-.23-.0601.12.25-.38.46-.52.5-.58.02-.02.0001-.02-.0399.06-.07.1-.1101.27-.1001.26 0 .02-.0199-.16.0701-.62.15-.54-.05.18.01.21.02.12.02.09 0 .03-.02-.07-.07-.19-.11-.43-.15-.51.2199-1.34.5599-1.59.24-.25-.0399.06-.0599.19-.02.06-.04.16-.03.11l.0399-.2.04-.2s.0201-.11.0301-.15c0-.02 0-.06 0 .06.01.35.1099.44.0999.45-.17-.27-.26-.34-.39-.86-.16-.57.27-1.41.63-1.65.06-.05-.04 0-.15.21-.05.1-.08.22-.1.31 0 .03 0 .12 0 .1v-.12c0-.16.05-.42.11-.58.06-.17.02-.08.02-.04 0 .02 0 .11 0-.08 0-.18.0301-.38.0701-.55v-.09c0-.03 0 0 0-.03-.1-.39-.1001-1.09.0799-1.48.05-.13-.02.07-.01.1 0 .01.0001.12.0301.21.04.21.2099.4.2099.4-.79-.64-.7899-1.99-.0599-2.63-.03.02-.1801.26-.2001.43-.02.22 0 .1-.01.16 0 .03.03.13-.01-.02-.05-.15-.1-.41-.1-.56 0-.28-.0199-.02.0401.12.05.17.1699.29.0899.19-.14-.11-.4799-.81-.4299-1.14 0-.09 0 .02 0 .04 0 .09.1.29.09.26-.2-.24-.3901-.92-.3001-1.35.03-.31.23-.7.37-.86.14-.17.1401-.18.0501-.04s-.13.37-.13.45c.04-.59-.04-.92.17-1.48.25-.57-.0101.05.0499.04 0-.19.01-.53.01-.69 0 .12.0701.38.1601.49s.06.08-.09-.09c-.16-.17-.37-.57-.4-.9-.04-.27-.0201-.69.1799-1.06.2-.35.42-.51.49-.58.09-.06.01-.04-.11.15-.23.39-.18.76.03 1.06.08.08 0 .02-.17-.2-.18-.22-.34-.64-.34-.93v-.29c-.01-.07-.03-.36-.03-.54 0-.17.0001-.02-.0299-.35-.02-.14-.02-.28-.02-.39 0-.13-.0001-.31.0399-.5.04-.21.07-.28.05-.23 0 .03 0 .04 0 0 0-.46-.04-.64 0-1.16.05-.33 0-.52.09-.87.05-.19.04-.15.03-.11v-.01c-.03.19.16.59.25.64.07.06.02.03-.15-.14-.28-.22-.58-.96-.49-1.4-.04-.25.3501-1.02.4301-1.04.03-.04-.11.15-.14.31-.02.08-.0201.13-.0201.18 0-.07.0001-.17.0101-.27.01-.2.11-.49.15-.58.03-.08-.02.06-.02.09 0 .06 0 .08.01.17.01.13.13.33.12.3-.51-.61-.3801-1.51-.4101-2.17 0-.26-.02-.42 0-.7.02-.23.14-.56.21-.7s.0001 0-.0199.1c-.03.33-.02-.15.01-.37 0-.05.0199-.15.0199-.2s.01.15.02.16c.03.19.1901.42.2101.42-.25-.15-.6401-.95-.5801-1.36-.04-.65.5401-1.31.9401-1.5.06-.03.0499-.05-.0901.08-.14.11-.3099.57-.2799.72 0-.02 0 .02.01.07.02.06-.0301-.06-.0801-.29-.04-.21-.0499-.39-.0499-.53-.03-.27.15-.91.1-.68 0-.03 0 .09 0 .09.02.33.2699.66.3499.71.09.08.08.05 0 .01-.44-.22-1.0299-.83-.9899-1.55 0-.23.0599-.59.2099-.87.16-.29.2701-.39.2101-.32-.07.08-.15.37-.14.45v-.18c-.03-.22.31-.95.35-.94-.01 0-.11.21-.11.32-.01.14 0 .07 0 .09 0 0 .02.1-.01-.02-.04-.13-.0801-.37-.0801-.52 0-.65-.1-.7.03-1.41.07-.29.25-.58.25-.58 0-.02-.0899.18-.0899.27v.13c0 .08.0199.2.0599.31.09.24.2401.37.2201.34-.01-.02-.18-.13-.38-.42-.22-.27-.3301-.81-.3101-1.01-.04-.23-.0999-.83-.0399-1.15.05-.41.0199-.82.2599-1.22.15-.25.1701-.27.1001-.15-.06.13-.0901.3-.0801.35 0-.12.0101-.35.0701-.57.17-.57.0299-.08.0599-.15 0 .05.0201.24.0901.39.08.15.09.15-.05-.05-.48-.59-.3801-1.79.0999-2.28 0-.04-.19.39-.15.48 0-.18.0501-.61.0801-.68 0-.05 0-.02 0 0 0 .03.04.17 0 .05-.06-.16-.13-.5-.13-.72 0-.03 0-.13 0-.01s.05.29.11.42c.14.27.28.34.27.33-.31-.21-.78-.58-.89-1.22-.17-.5.2299-1.46.5499-1.67.05-.05-.0799.07-.1699.29-.04.1-.0501.21-.0601.27v.06c0-.16.0101-.37.0401-.53 0-.05.02-.14.02-.18-.02-.35.1599-.9.3299-1.12.1-.15.02-.06-.04.1-.05.18-.0599.28-.0299.47.05.33.3.59.35.63.07.05.0399.03-.0701-.04-.38-.18-.93-.93-.87-1.51v-.05l-.0199-.47c0-.14-.0301-.08.0299-.55.06-.39.33-.77.49-.92.16-.16.2-.19.12-.11-.08.07-.24.37-.24.56 0 .06 0 .15 0 0 0-.09 0-.33.01-.42v-.19c0-.06 0 .07.03.17.04.12.08.17-.03-.04s-.1799-.54-.1899-.75c-.08-.31.2-1.17.36-1.31-.01 0-.11.21-.12.32-.07.2.1399.7.2299.76-.02-.02-.22-.18-.4-.52-.3-.65-.22-.96-.15-1.51 0-.17-.0199-.21-.0499-.48-.03-.33-.0201-.63.0699-.98.05-.19.03-.12.03-.08 0 .03 0 .06 0-.02-.05-.54-.0799-1.27.2901-1.76.15-.2.1499-.22.0699-.08-.21.39-.0699.87.1701 1.14.12.13.1399.12.0599.07-1.2-.73-1.1-2.48.12-3.09-.16.07-.49.68-.39.99.03.3.2601.6.3401.65.08.07.0499.04-.0601-.03-.5-.25-1.02-1.28-.76-1.94.19-.63.6-.91.9-1.1 0 0-.14.07-.29.36-.11.19-.14.54-.07.66-.03-.05-.14-.36-.16-.58-.02-.11-.02-.21-.02-.3 0 .03.05.18.03.13-.03-.05-.13-.36-.15-.57-.01-.11-.0199-.2-.0199-.29 0-.04 0 .03 0 .06 0 .08.0899.28.0699.23-.17-.24-.3499-.94-.2399-1.37.04-.32.26-.7.38-.83.13-.15.0699-.1-.0201.06-.06.12-.0899.28-.0899.38 0-.27.0699-.63.2199-.91.14-.25.16-.27.09-.14-.06.13-.0799.29-.0799.33 0-.02 0 0 .01.06.02.06-.0101-.02-.0701-.24-.05-.2-.0499-.42-.0499-.53-.02.19.12.54.24.65.11.12.12.11.02.03-.2-.08-.7501-.84-.7201-1.25-.02-.4 0-.48.06-.81.03-.12.0101-.05.0201-.06 0 .16 0-.5.13-.81.05-.13 0 0 0 .03-.01.04.03.19.03.2 0-.02-.12-.31-.15-.52-.11-.4.07-1.21.36-1.5.13-.16.07-.11 0 .05-.08.14-.09.39-.08.33.02-.48-.0501-1.02.1599-1.49.09-.21.06-.15.03-.05-.03.18-.02.11 0 .26.02.05-.0599-.15-.1099-.38-.07-.46-.0601-.71.0499-1.15.06-.2.05-.15.03-.09-.05.21.14.62.24.7.07.06.0201.03-.1499-.13-.22-.18-.53-.76-.51-1.18.01-.37-.0001-.81.0699-1.24.05-.24.1601-.46.1401-.42s-.0401.15-.0301.16c-.02-.34-.06-1.21.15-1.57-.02.05-.03.14-.03.14 0 .05 0-.11.01-.21-.01-.25.23-.79.25-.78-.03.05-.0699.21-.0599.24-.06.27.2599.8.3999.84-.45-.18-1.1-.9-1.01-1.63-.02-.18.13-.71.16-.75 0 0-.03.11-.02.11-.01.21-.0099-.51.2301-.83.23-.37.4499-.5.5499-.58.11-.07.1301-.1.0401-.02-.23.18-.4001.77-.1901 1.09.08.15.14.19.02.05-.11-.12-.33-.47-.39-.79-.04-.19-.0399-.35-.0399-.46-.02-.24-.05-.51-.03-.75-.04-.35.3899-1.08.5499-1.16.09-.08 0-.02-.1.16-.17.33-.08.7.1.92.07.07-.03-.02-.2-.24-.18-.23-.3199-.64-.3199-.92-.04-.32.0699.22-.0501-.23-.07-.27-.0699-.49-.0699-.73 0-.03-.04-.39-.03-.57 0-.04 0-.01 0 .03.02.06-.0001 0-.0601-.22-.05-.2-.0599-.39-.0599-.53-.01-.25.08-.66.26-.93s.3199-.38.2899-.35c-.02 0-.1599.22-.1799.39-.03.14-.0301.28.0499.51.09.21.22.31.17.27-.96-.75-.8099-2.27.2901-2.81.05-.03.02-.03-.11.11-.12.14-.2401.42-.2301.64 0 0 .01.1.04.16.04.08-.05-.08-.12-.32-.07-.21-.0799-.51-.0799-.55 0 .06.0299.23.0899.33s.01.04-.13-.2-.2099-.58-.2099-.8c-.03-.26.0599.19-.0501-.24-.22-.7.12-1.63.74-1.96-.34.28-.4 1.02 0 1.36.08.06.0501.04-.0599-.03-.1-.07-.3201-.21-.5401-.56-.36-.71-.25-1.12-.04-1.67.09-.17.03-.08.01 0-.01.06-.02.07-.02.12-.02-.38.2-.89.41-1.1.17-.18.2101-.22.1501-.15-.06.06-.1801.31-.1801.46-.02.11.02.37.13.55.11.17.1801.19.1001.13-.06-.06-.2601-.19-.4601-.51-.14-.23-.22-.52-.22-.79 0-.06 0-.01 0-.02 0 0 .0101.11.0301.14.02.04-.08-.16-.13-.39-.05-.28-.0701-.34-.0401-.69.04-.56.5101-1.02.8101-1.2.02-.01-.0901.05-.2101.28-.07.13-.11.36-.09.48 0 .07.07.24.08.23 0 0-.16-.25-.23-.52-.12-.64-.0399-.61-.0699-.79v-.26c0-.1-.01-.14 0-.37 0-.19.0899-.47.1599-.62.06-.14.01-.03 0 .03 0 .09-.02 0 0 .21.06.36.4401.64-.0299.16-.4-.4-.43-1.32-.26-1.75 0 .01 0 .03 0 0l.01-.17c0-.09.0299-.19.0599-.28.05-.37.5401-.82.7001-.92.07-.04.0199-.04-.0901.11-.12.16-.1899.44-.1699.61 0 .2.16.46.24.52.07.07.0399.03-.0801-.06-.11-.09-.3699-.31-.5199-.69-.18-.45-.1201-.99.0499-1.38.04-.09 0 .03 0 .06v.11c0 .08.0901.25.0801.22 0-.01-.18-.27-.25-.54-.06-.31-.1-.38-.02-.84.12-.56.5199-.86.7899-1.04.01 0-.12.08-.23.32-.05.12-.0699.24-.0699.34v-.27l-.0201-.31v-.13c0 .1.02.22.07.33.1.24.2301.31.2201.31 0 0-.09-.06-.26-.2-.28-.15-.6601-.95-.5401-1.39-.01-.35.43-.97.59-1.06.08-.07.02-.04-.08.12-.18.3-.12.69.07.9.06.06.0101.02-.1499-.16-.15-.16-.35-.54-.38-.85-.04-.24-.0001-.7.2099-1.01.2-.31.4-.44.47-.51.09-.06.07-.07-.02.04-.11.1-.2099.44-.1899.52 0-.14-.0001-.1-.0301-.41-.02-.27 0-.42-.01-.56v-.43c0 .12.0901.36.1701.44.07.07.03.04-.1-.1-.14-.13-.3601-.47-.4201-.79-.06-.41-.02-.38-.03-.46l-.02-.51c-.04-.13.1-.84.17-.92 0-.02-.02.08-.02.09v-.12c.02-.21.07-.35.12-.47.19-.4.31-.51.28-.48-.05.06-.08.42-.05.47.02.1.04.11.02.09-.02-.08-.1699-.23-.2999-.71l-.0801-.44-.0299-.21c-.04-.16-.11-.5-.14-.66l-.0501-.15-.05-.19001-.0499-.25c0-.06-.03-.11 0-.08 0-.01 0 .01001.04.07001.18.32.66.38-.01.17-.13-.07-.3701-.1-.7001-.5-.32-.5-.22-.8-.22-.95.18-.9-.0199-.11.4101.15.28.18.2999.10999.2799.11999-.06-.02-.23.00001-.59-.07999-.09-.02-.22-.05-.39-.16-.14-.07-.3499-.30001-.4199-.46001-.14-.3-.13-.46-.14-.58.02-.21-.0501-.38.0899-.11.03.04.08.1.11.11.01 0 .01.00001 0-.00999-.02-.02-.07-.05001-.15-.10001s-.1899-.10999-.3099-.20999c-.14-.1-.2501-.25001-.3201-.35001-.13-.21-.19-.33999-.21-.36999.02 0-.0499-.04.0601.03.09.05.1399.05.1599.05.03 0-.02-.02-.09-.02h-.3c-.13-.02-.33-.00001-.6-.19001-.61-.39.0001-1.44.6901-.97-.13-.1-.16-.06999-.13-.08999l.1899-.05001c.21-.02.5201-.1.8001.08.18.11.17.12001.25.19001.21.21.31.38001.38.43001.27.06.72.25998.91.57998.23.41.19.54.25.86 0 .04.03.04-.03-.11-.05-.15-.3201-.32999-.4201-.34999-.04-.01.13-.02.39-.02.14.03.33-.02001.75.25999.55.39.4701 1.2.3901 1.58-.01 0 .0799-.10999-.1401-.47999-.23-.27-.3-.23-.28-.25.05.02.2.00001.61.18001.13.04.44.27999.55.47999.11.18.2201.46.2601.62l.0599.22999.02.05c.18.43.2201.74001.3301 1.12001l.13.52c-.05-.17 0-.04.12.18.14.26.2899.72.1899 1.11-.04.17-.09.29-.13.38-.17.33-.2699.46-.2099.37.12-.64.0499.21-.0801.46-.05.13 0 .03 0 0 0-.04 0-.06 0 .04l.02.48c0 .08.02.28-.01.04-.02-.17-.1599-.36-.1799-.37.22.17.6099.74.5799 1.14l.01.55c0 .6.21 1.42-.29 1.98-.2.24-.3499.33-.3899.37-.05.03.0199.01.1299-.16.12-.18.1401-.46.1201-.54 0-.26-.4201-.69.0099-.21.59.64.41 1.83-.25 2.31-.06.05.03 0 .12-.18.09-.19.1101-.32.0701-.54-.05-.25-.2201-.44-.2601-.47s.0001 0 .1401.1c.25.13.71.8.66 1.25v.12.18c.02.15.0299.34.0299.47.06.44-.4299 1.15-.6699 1.26-.13.1-.18.13-.14.1.03-.02.21-.2.27-.45.04-.3.02-.21 0-.35-.03-.11-.11-.22-.03-.1.33.43.3499 1.35.1199 1.8-.02.06.0201-.07.0201-.08 0-.05-.0001-.23-.0601-.34-.09-.23-.23-.32-.21-.31 0 0 .1101.07.3001.25.73.69.52 1.98-.29 2.47-.08.05-.0401.05.0699-.08.1-.11.1901-.37.1901-.53 0 .15-.0001.31-.0501.52-.05.19-.0499.2-.0399.18 0-.02 0 .08 0-.03 0-.14-.1001-.39-.1801-.47-.07-.08-.04-.04.11.1s.3801.49.4401.84c.09.42-.04.96-.16 1.2 0 0 .04-.12.04-.14v.36c0 .15.03.51 0 .19-.03-.11-.1-.21-.02-.08.27.45.37 1.13.1 1.65-.19.38-.4401.55-.5401.63-.12.08-.1499.11-.0899.06.07-.04.25-.3.27-.54.01-.15 0-.12 0-.13 0-.07-.08-.27.03 0 .09.21.1299.56.1299.72 0-.04.0001-.09-.0099-.13-.02-.1-.0601-.22-.1101-.3-.11-.18-.18-.21-.12-.16.36.19.8 1.05.68 1.5-.01.3-.1999.72-.3699.9-.17.19-.2501.26-.1901.2.05-.04.1801-.28.1901-.44 0-.03 0-.07 0-.1 0 .18-.0101.3-.0601.48-.06.25-.1899.49-.1799.46.01-.01.0599-.16.0499-.2 0 .07.0101-.33-.1399-.52-.14-.21-.2201-.24-.1901-.22 1.09.6 1.16 2.16.08 2.83-.08.05-.0499.06.0701-.08.14-.1.2399-.57.1999-.62-.02-.05.0401.09.0801.3.04.17.0399.42.0399.43 0-.06-.03-.23-.09-.33s.0001-.03.1401.21c.14.25.2099.58.2099.8 0 .12 0-.01-.02-.07-.03-.09-.0299-.09.0601.13.09.25.1199.5.1199.71.05.59-.4699 1.25-.8699 1.45-.09.05-.1101.08-.0301 0 .08-.05.2901-.34.3101-.62 0-.17 0-.17-.02-.3-.02-.1-.07-.21-.12-.29-.11-.16-.1501-.17-.0601-.09.72.54.79 1.85.16 2.46-.14.15-.12.15-.03.02s.15-.38.14-.46c0 .02 0 0 0-.04-.02-.06.0201.04.0701.26.04.2.0499.39.0499.52 0 .09.0501.53.0401.72 0 .02 0-.02 0-.06-.02-.06.0399.1.0799.31.03.14.0401.27.0401.4v.06-.04c0-.12-.0801-.37-.1601-.46-.07-.09-.04-.06.12.13.16.18.35.58.37.89.12.43-.2599 1.31-.5599 1.5-.05.05.08-.06.15-.26.04-.11.0599-.22.0599-.31v.02.04c0 .14.0301.29.0401.47v.17c0 .04 0-.08-.02-.14-.03-.16-.1601-.36-.1601-.36.25.21.58.91.49 1.4-.02.41-.3.87-.5 1.04-.21.19-.33.26-.35.28-.04.02.06-.01.2-.24.15-.18.15-.72.14-.35 0 .17-.06.44-.12.6s-.02.06-.01.01c.02-.07.0001-.21-.0299-.32-.1-.34-.3101-.5-.3401-.53-.05-.03.0001 0 .1001.06.46.22.9999.96.8999 1.61 0 .2-.0799.52-.1799.72s-.0701.15-.0301.04c.02-.05.0201-.1.0301-.13 0-.02 0-.09 0 .04 0 .17-.04.42-.11.62-.08.22-.0601.18-.0401.1.02-.06.0101-.12.0101-.06 0 .22.04.49.03.81 0 .17-.05.45-.13.64-.08.2-.04.12-.03.05.01-.05.01-.16.01-.02l-.0201.52v.09s0 .07 0 .02 0-.09-.01-.14c-.02-.35-.55-.79-.04-.3.18.17.4301.6.4601.97.06.23-.06.95-.13 1.04.01-.04.02-.11.02-.1 0 0 0 0 0-.07-.02-.07-.0401-.12.0399.09.13.47.15.73.04 1.23-.07.26-.18.46-.15.41s.0501-.18.0501-.21v.67c0 .1-.0201.52-.1701.81-.14.31-.32.48-.29.45.02-.01.15-.24.16-.38.02-.17.01-.12 0-.19 0-.05-.06-.19 0-.05.21.43.19 1.27 0 1.67.01 0 .04-.32.01.16 0 .16-.0699.43-.0699.43 0-.02 0 .1 0-.07-.01-.1-.05-.25-.11-.37-.13-.24-.2501-.31-.2201-.29.34.18.8601.93.8001 1.46.03.15-.0701-.32.0599.2.17.52-.0499 1.42-.2699 1.64.06-.09.1-.29.1-.35 0-.09 0 .06 0 .06 0 .07 0 .14-.02.22.03.22-.43.99-.45.95.02 0 .1499-.24.1699-.39.02-.18.02-.16 0-.28-.01-.1-.11-.27-.04-.15.11.15.28.74.26 1 .01-.04-.0599-.24-.0199-.14.08.15.1799.64.1599.85.01-.04-.06-.27-.02-.16.2.44.26 1.14 0 1.62-.26.51-.6199.71-.7699.81.03-.02.25-.2.35-.54.16-.33-.13-1.04-.35-1.13 1.19.65 1.2499 2.4.0199 3.09-.09.06-.1099.08-.0199 0 .35-.24.5-1.07.13-1.47-.14-.17-.19-.18-.13-.14.05.04.2099.12.4399.37.63.6.5201 1.87.0201 2.39.07-.1.16-.35.15-.49.02.35.0699 1.16-.0901 1.52 0-.02.01-.08.01-.07.04.37.09.68.05 1.06-.02.22-.05.29-.05.38 0 .07 0-.28-.12-.44-.11-.19-.19-.24-.09-.14.17.1.6101.87.5601 1.25.04.39-.1301.92-.3201 1.17-.1.15-.0199.05.0301-.11.05-.15.04-.25.04-.28 0-.04-.0401-.21-.0701-.27-.04-.06.0901.13.1701.41.08.26.0899.56.0899.66 0 .21-.03.67-.03.88.02.44-.4799 1.13-.6699 1.23.05-.03.22-.28.26-.5.04-.31-.0001-.09.0199-.06l.02.52v.07c.04-.29-.27-.79-.4-.84.42.2 1.0301.88.9801 1.59.04.34-.26 1.04-.39 1.16.01 0 .12-.22.13-.34v-.08c0-.05 0-.02 0 0 0 .2-.0401.5-.0501.64 0 .23-.02.44-.11.69-.13.37-.3799.62-.4499.69-.09.09.03 0 .12-.2.06-.14.09-.26.09-.4.04-.29-.27-.77-.35-.8-.06-.05-.02-.02.11.07.25.09.83.88.78 1.34v.11c0-.01-.03-.15-.02-.11.17.33.1799 1.22.0699 1.52.04.34-.21 1.03-.39 1.19-.1.12.0001.02.0601-.15.1-.29.04-.56-.1-.77-.05-.06.07.06.23.36.15.29.1999.65.1899.87.05.26-.22 1.06-.15.8.02-.06.02-.12.01-.08 0 .22-.0499.55-.1899.83-.14.27-.2301.37-.1601.27.06-.09.11-.29.1-.36.01 0-.0399.59-.0499.58 0 .02 0 .18 0 .17-.01-.09.0799.43.0599.64.02-.03-.0499-.4-.1799-.54-.11-.15-.1501-.15-.0401-.06.2.09.67.89.62 1.29.03.37-.12.87-.28 1.11-.08.13.01 0 .04-.13.05-.34.0101 0 .0301.05.01.12.02.52.02.5 0 .01-.01-.06 0-.04.01.03.08.29.09.46.07.34-.0701 1.08-.2901 1.35-.1.15-.03.06.02-.09.03-.1.0401-.16.0401-.24 0 .34-.1201.76-.3101 1.03-.15.21-.1599.23-.0699.09.08-.14.1099-.33.0999-.4.02-.3-.2099-.71-.3299-.78-.12-.1-.1201-.09-.0501-.05s.2001.1.4201.28c.21.16.56.62.59 1.12v.16c0 .14-.0001.29-.0301.44-.11.51-.0499.19-.0599.27-.02-.09-.0301-.15.0499.14.09.47.1201.7-.0399 1.18-.11.41-.6101.81-.8201.92-.08.04-.0699.06.0401-.04.28-.24.44-.87.16-1.26-.1-.14-.1201-.14.0199 0 .18.15.4801.72.4701 1.1.01.2 0 .53-.04.7-.03.11.0299-.04-.0601.61-.05.26-.21.56-.21.56 0 .01.0701-.17.0701-.23 0-.03 0-.08 0-.04v.11.22l.0199 1.03c0 .17.0001-.04-.0399-.16-.05-.15-.1501-.28-.0601-.15.08.1.2801.45.3201.74.09.41 0 .91-.13 1.23-.02.07.0199-.07.0199-.1 0-.02 0-.03 0-.02 0 .13-.0099.27-.0499.42-.06.31-.29.66-.36.74-.09.11.0199 0 .0699-.17.03-.08.0401-.16.0501-.22.05-.21-.16-.67-.26-.73-.06-.05.0299.01.1999.2.18.17.4201.6.4501.97.01.12.02.24.01.34 0 .08 0 .16-.02.25-.02.19-.0801.38-.0801.36s0-.05 0-.03c.01.07-.0399.61-.0499.63v.28.53c.01.12-.0001.3-.0301.49-.04.21-.0699.3-.0599.25 0-.04 0-.03 0 0v.11s.0599.47.0499.63c0 .15 0 .19.02.45v.16s0 .17 0 .05c0-.13-.1-.39-.18-.48s-.02-.04.15.17c.6.67.4001 2-.3399 2.48-.06.04.04 0 .16-.22.21-.38.1099-.81-.0901-1.04-.05-.04.0501.03.2301.28.27.35.3399.87.3099 1.28l-.01.46c0 .18-.03.45-.12.71-.11.27-.17.35-.12.25.04-.09.0501-.21.0501-.24v.29c-.06.65.03.76-.28 1.34-.18.28-.3001.38-.2601.34s.1701-.27.1801-.42c.01-.16.01-.15-.02-.3-.03-.13-.1201-.26-.0401-.13.08.12.2401.47.2701.72.02.11.02.3.02.29 0-.05 0-.11-.03-.19-.04-.17-.1701-.33-.1301-.28.02.03.25.28.35.61.12.33.1201.84.0801.53 0 0 .09.26.11.45.02.22.04.27 0 .65-.04.33-.27.72-.41.87s-.1501.18-.0601.05c.21-.34.2-.68-.01-1.02-.1-.13-.12-.13.02 0 .12.11.3801.45.4601.82.04.17.0499.37.0499.46 0 .08 0 .18-.02.29-.02.2-.1299.5-.1499.54-.01.04.0299-.1.0299-.12 0-.05 0 .01 0 .02 0 .02 0-.04.01.08.06.25.0701.59.0501.86 0 .15-.0501.35-.0601.38v.04c0-.02.0001.23-.0299.41-.03.21-.12.45-.12.44l.0199-.1c0 .02 0 .15-.01.22-.02.18-.0799.37-.1599.55-.18.35-.4.52-.47.58-.08.06 0 .02.12-.17.07-.14.12-.29.12-.44 0-.05 0-.15-.02-.2-.05-.23-.1001-.26-.0801-.24l.16.25c.07.15.24.39.25.91 0 .17-.01.16-.02.18v.07l-.0399.14-.0501.29-.06.28s-.02.12-.06.23c-.08.35-.4199.67-.5899.85-.03.03-.0101.03.0799-.12.07-.05.15-.51.11-.61-.02-.08-.01-.04.02.04.03.09.08.22.12.5.02.13.02.33-.03.56-.12.39-.0399.13-.0399.13.02-.14.01 0-.02.36-.02.16-.1.48-.25.73-.13.22-.26.34-.35.44-.19.17-.24.24-.17.14-.48.63-.79.64-.85.7-.03.01-.0001 0 .0899-.11.12-.15-.05.06-.14.14-.1.09-.2.16-.27.21-.32.18-.4099.23-.2799.12l.0599-.07c.15-.17.23-.41.22-.59 0-.07-.02-.02-.01.05l.02.31c0 .15.05.32-.12.79-.04.1-.14.26-.25.38-.07.07-.0499.04-.0799.07l-.11.08-.23.15-.2301.15s-.42.32-.61.32c-.4.07-.5599.03-.5399.01 0 0 .05-.02.09-.06.06-.04.12-.11.14-.15.04-.09-.0001-.07-.0301-.03-.1.09-.1299.35-.5999.69-.76.5-1.5901-.6-.8201-1.17z" fill="#000"/></svg>