<svg fill="none" height="172" viewBox="0 0 150 172" width="150" xmlns="http://www.w3.org/2000/svg"><path d="m106.63 6.73999c-.36 0-.36.07001-.71.07001s-.36.22-.71.22-.36-.26001-.72-.26001-.36.25-.72.25-.36.01001-.72.01001-.36.26999-.72.26999-.36-.59-.72-.59-.36.14002-.72.14002-.36.26999-.72.26999c-.3598 0-.3599.24002-.7199.24002s-.36-.21003-.72-.21003-.36.19001-.72.19001-.3599-.09-.7199-.09-.3601-.32001-.7201-.32001-.36.13001-.72.13001-.36-.37-.72-.37-.3599.65-.7199.65-.3601 0-.7201 0-.36-.19001-.72-.19001-.36-.22998-.72-.22998-.3599.15-.7199.15-.36-.28-.72-.28-.3601.50998-.7201.50998-.36-.28-.72-.28-.3599.24002-.7199.24002-.36.10001-.72.10001-.3601-.58002-.7201-.58002-.36.29001-.72.29001-.3599.07-.7199.07-.36-.27999-.72-.27999-.3601-.13001-.7201-.13001-.36.34-.72.34-.3599-.20999-.7199-.20999-.36-.06003-.72-.06003-.3601.21002-.7201.21002-.36-.28-.72-.28-.36.10999-.72.10999-.3599-.10999-.7199-.10999-.3601 0-.7201 0-.36.12-.72.12-.36.39999-.72.39999-.3599.03-.7199.03-.3601-.32999-.7201-.32999-.36-.23001-.72-.23001-.36.17001-.72.17001-.3599-.05999-.7199-.05999-.36.37997-.72.37997-.3601-.19998-.7201-.19998-.36.32999-.72.32999-.3599-.29999-.7199-.29999-.36.17999-.72.17999-.3601.11002-.7201.11002-.36-.14002-.72-.14002-.3599.14002-.7199.14002-.36-.09003-.72-.09003-.3601-.26999-.7201-.26999-.36-.07999-.72-.07999-.3599.19001-.7199.19001-.36.20999-.72.20999-.3601-.17001-.7201-.17001-.36-.37-.71-.37-.3599 0-.7099 0-.3601.58002-.7101.58002-.36-.19001-.71-.19001-.3599-.20001-.7199-.20001-.36.22-.72.22-.3601-.23999-.7201-.23999-.36.06998-.72.06998-.3599.29001-.7199.29001-.36-.03-.72-.03-.3601-.57001-.7201-.57001-.36.51001-.72.51001-.36-.48999-.72-.48999-.3599.47-.7199.47-.3601-.05999-.7101-.05999-.36-.09003-.71-.09003-.3599 0-.7099 0-.3601.20001-.7101.20001-.36-.13-.71-.13-.3599 0-.7199 0-.36-.10001-.72-.10001-.3601-.11999-.7201-.11999-.36.08001-.72.08001-.3599.34998-.7199.34998-.36.05002-.72.05002-.3601-.62-.7201-.62-.36.19998-.72.19998-.36 0-.72 0-.3599.35001-.7199.35001-.3601-.60001-.7201-.60001-.36.08002-.72.08002-.36.19998-.72.19998-.3599-.25998-.7199-.25998-.36.5-.72.5-.3601-.05002-.7201-.05002-.36-.44998-.72-.44998-.3599.50998-.7199.50998-.36-.25998-.72-.25998-.3601.29999-.7201.29999-.36-.59-.72-.59-.3599.09-.7199.09-.36-.07999-.72-.07999-.3601.35999-.7201.35999-.36.05002-.72.05002-.3599-.44001-.7199-.44001-.36.13999-.72.13999-.3601.39999-.7101.39999-.36-.16998-.72-.16998-.3599.13-.7199.13-.36.10999-.72.10999-.3601-.48001-.7201-.48001-.36.42001-.72.42001-.3599.09-.7199.09-.36-.31-.72-.31-.3601-.01999-.7201-.01999-.36.13001-.72.13001-.3599-.15003-.7199-.15003-.36.14002-.72.14002-.3601-.19001-.7201-.19001-.36.13999-.72.13999-.36-.37-.72-.37-.3599.29001-.7299.29001-.36.19-.73.19-.3601.06-.7301.06-.36.04001-.73.04001c-.25 0-.47-.02002-.72.00998s-.5699-.34998-.8099-.28998-.54.06-.77.15-.42.35-.63.47-.31.44999-.51.58999-.2701.42-.4501.59-.6399.06-.7999.25-.0201.59999-.1601.79999-.14.45001-.25.67001-.3599.35-.4399.59-.2801.42-.3401.67-.44.45-.46.7c-.03.36-.0499.36-.0899.71s.04.36 0 .72.3799.39.3499.75-.23.34-.27.7.26.38.23.74-.56.31-.59.67c-.02996.36.13.37.09.73s.0901.37.0601.73-.07.35-.1.71.2299.38.1999.74 0 .36-.03.72-.31996.33-.34996.69-.27005.34-.30005.69.58001.41.55001.77-.0699.35-.1099.71c-.04005.36-.11006.35-.14006.71s.04.36 0 .72-.52994.31-.55994.67.38998.4.35999.75c-.03.35.05989.37.01989.72s-.51993.31-.55993.67.18002.38.15002.74.06003.37.03003.73-.36001.33-.39001.69c-.03001.36.17001.38.14001.74s-.3101.33-.3501.69-.05996.36-.08996.72.39998.4.35998.76-.23002.34-.27002.7.29.39.25.75-.13992.35-.16992.71.11997.37.08997.73-.26004.34-.29004.7-.06998.36-.09998.71-.02994.36-.06994.72.22994.38.18994.74-.51004.31-.54004.67.44002.4.40002.76-.07998.35-.10998.71-.17996.34-.20996.7-.35002.33-.39002.69.49997.41.46997.76-.48002.32-.52002.68-.03994.36-.06994.72.04.36 0 .72.16.38.13.73-.44999.32-.48999.68.49997.41.46997.77-.30997.33-.34997.69.35995.39.32995.75-.26992.34-.29993.7c-.03.36-.00002.36-.03002.72s-.27005.34-.30005.7-.23001.34-.26001.7.24008.38.21008.74-.12002.35-.15002.71-.21.34-.25.7.56003.41.53002.77c-.03.36-.60001.31-.64001.66s.24997.38.21997.74-.17996.35-.20996.7.05991.37.02991.73-.31998.33-.34998.69.65.42.62.78-.45999.32-.48999.68.29001.39.26001.75-.02995.36-.06995.72-.14004.35-.17004.71-.39006.33-.43006.69.34006.39.31006.75.07004.37.04004.73-.29007.34-.32007.69.15.38.12.73-.42996.32-.45996.68.44003.4.41003.76-.47.32-.5.67.30991.39.27991.75-.49991.32-.52991.67.03.36 0 .72-.04008.36-.08008.72.43003.4.40003.76-.48001.32-.51001.68.28.39.25.75-.05998.36-.09998.72.22995.38.19995.74-.38992.33-.41992.68.15.37.12.73-.49003.32-.53003.67.18002.38.15002.73.12998.37.09998.73-.13004.35-.16004.71-.23002.34-.27002.7.02.36 0 .72.06003.37.03003.72-.23001.34-.26001.7.03.36 0 .72.37998.4.34998.76-.13993.35-.17993.71-.04996.36-.07996.72-.26004.34-.29004.7-.08999.35-.11999.71.43002.4.40002.76-.26004.34-.29004.7.11997.37.08997.73-.43998.32-.47998.68.36996.4.33996.75-.01993.36-.05993.72-.02005.36-.05005.72.09006.37.06006.73-.50003.32-.53003.68-.08.36-.12.72.17001.38.13001.74.28.39.25.75-.15006.35-.18006.71-.35.33-.38.69-.15994.35-.18994.71.06002.37.02002.73.23996.39.20996.75-.20999.34-.23999.7-.10001.35-.13001.71-.05996.36-.08996.71-.11003.35-.15003.71.09994.37.05994.73.13009.37.09009.74-.31009.34-.34009.7.44003.4.41003.76-.50003.32-.53003.68.48008.41.45008.77-.67008.3-.70008.67.09005.37.05005.73.45004.41.41004.77-.54007.32-.57007.68-.02995.36-.06995.72.48996.41.45996.77-.24002.34-.27002.7-.05996.36-.08996.72-.27005.34-.30005.71.13009.38.09009.74-.24002.35-.27002.71c-.02.25.01992.54.04992.78s.00008.55.08008.79.46996.37.57996.58.35001.33.51001.52c.24.27-.14003.6.09997.87s.48009.05.72009.32.23999.26.47999.53.18993.31.42993.58.48998.04.72998.31.23008.28.46008.55.26.25.5.52-.18006.63.05994.91.45006.08.69006.36.28001.24.51001.51.11999.37.35999.65.06993.42.30993.69.52001.02.76001.29.10998.38.34998.65.17003.33.41003.6.18004.32.41004.6c.23004.28.21994.28.45994.55s.29.22.53.49.46.08.69.35.38.14.62.41.2101.29.4501.56-.0401.51.1999.78.42.1.66.37.13.36.37.63.3101.2.5501.48.28.24.51.51-.12.58.12.85.5.04.73.32-.0201.5.2099.77.61-.05.85.22.0801.41.3201.68.5.04.74.31-.0301.5.2099.77.0401.45.2801.72.65-.09.89.18.16.34.4.61.09.41.33.68.4399.1.6799.37.2301.29.4701.56-.0701.55.1699.82c.14.17.58.06.74.2s.11.63.3.74.63-.29.83-.21.29.62.51.66.4801 0 .7001 0c.36 0 .3599-.25.7199-.25s.36.23.72.23.36-.16.72-.16.3601.18.7201.18.36-.15.72-.15.3599-.28.7199-.28.36.53.72.53.3601-.61.7201-.61.36.36.72.36.3599.05.7199.05.36.09.72.09.3601.06.7201.06.36-.04.72-.04.3599-.47.7199-.47.36.37.72.37.3601-.17.7201-.17.36-.08.72-.08.3599-.01.7199-.01.36.06.72.06.3601-.2.7201-.2.36.58.72.58.3599.05.7199.05.36-.05.72-.05.36-.06.72-.06.3601-.09.7201-.09.3599-.37.7199-.37.36.39.72.39.36.03.72.03h.7201c.36 0 .36-.45.72-.45s.3599.52.7199.52.36-.15.72-.15.3601-.38.7201-.38.36.03.72.03.3599.31.7199.31.36.09.72.09.3601-.26.7201-.26.36.1.72.1.3599.36.7199.36.36-.06.72-.06.3601-.37.7201-.37.36.14.72.14.3599-.17.7199-.17.36.48.72.48.3601-.29.7201-.29.36.03.72.03.3599-.09.7199-.09.36-.04.72-.04.36.03.72.03.3601-.13.7201-.13.3599.13.7199.13.36.06.72.06.36.16.72.16.3601-.06.7201-.06.36-.45.72-.45.3599.62.7199.62.36-.3.72-.3h.7201c.36 0 .36.12.72.12s.3599-.05.7199-.05.36-.28.72-.28.3601.02.7201.02.36.49.72.49.3599-.08.7199-.08.36-.6.72-.6.3601.4.7201.4.36-.34.72-.34.3599-.01.7199-.01.36.07.72.07.3601.46.7201.46.36-.18.72-.18.3599-.35.7199-.35.36.36.72.36.36-.1.72-.1.3601.28.7201.28.3599-.17.7199-.17.36-.23.72-.23.36.2.72.2.3601-.21.7201-.21.3599.31.7199.31.36-.32.72-.32.36.09.72.09h.7201c.36 0 .36.36.72.36s.3599-.29.7199-.29.36.16.72.16.3601-.02.7201-.02.36-.09.72-.09.3599.11.7199.11.36-.34.72-.34.3601.41.7201.41.36-.17.72-.17.3599-.32.7199-.32.36.51.72.51.3601-.3.7201-.3.36.1.72.1.3599-.13.7199-.13.36.21.72.21.36.03.72.03.3601.17.7201.17.3599-.37.7199-.37.36-.24.71-.24.3601.57.7201.57.36.05.72.05.3599-.42.7198-.42c.36 0 .36-.03.72-.03h.72c.36 0 .36.37.72.37s.36-.24.72-.24.36-.27.72-.27.36.53.72.53.36-.2.72-.2.36-.14.72-.14.36.29.72.29.36-.42.72-.42h.72c.36 0 .36.33.72.33s.36-.28.72-.28.36-.02.72-.02.36.44.72.44.36-.21.72-.21.36-.02.72-.02.36-.33.72-.33.36.21.72.21.36.41.72.41.36-.63.72-.63.36.64.72.64.36-.28.72-.28.36.11.72.11.36-.16.72-.16.36-.23.72-.23.36.32.72.32.36-.22.72-.22.36-.12.72-.12.36.49.72.49.36-.02.72-.02.36-.35.72-.35.36.4.72.4.36.1.72.1.36-.47.72-.47.36.43.72.43.36-.19.72-.19.36-.39.72-.39.36.27.72.27.36-.13.72-.13.36.15.72.15.36-.11.72-.11.36-.25.72-.25.36.1.72.1.36.53.72.53.36-.59.72-.59.36.02.73.02.36.6.72.6.36-.34.72-.34.36.28.72.28.36-.36.73-.36.36.09.72.09.36-.06.72-.06.36-.03.73-.03.36.29.73.29.36-.33.73-.33.36.42.72.42.36-.2.73-.2.36.24.73.24.37-.51.73-.51.37-.04.73-.04c.24 0 .43 0 .65-.05s.58.33.79.25.39-.32.59-.44.33-.35.5-.5.33-.33.47-.51.04-.49.15-.7.33-.33.4-.56.42-.4.44-.64-.12-.49-.14-.72c-.03-.35.1-.37.07-.72s-.54-.31-.57-.67.16-.37.13-.73.28-.38.24-.74-.23-.34-.26-.69.27-.38.24-.73-.34-.32-.37-.68-.08-.35-.11-.7.05-.36.02-.72-.06-.35-.09-.71.24-.38.2-.73-.59-.3-.62-.66.2-.37.16-.73.09-.37.06-.72 0-.36-.04-.71-.36-.33-.39-.68-.1-.35-.13-.71.58-.41.55-.77-.31-.33-.35-.69 0-.36-.03-.71-.24-.34-.27-.7.25-.38.22-.74-.08-.35-.12-.71-.02-.36-.05-.72c-.02-.27-.3-.5-.38-.75s-.21-.47-.35-.71-.2-.5-.39-.7c-.24-.26-.03-.45-.27-.71s-.21-.29-.44-.56-.31-.2-.55-.46-.38-.13-.62-.4 0-.48-.24-.74-.25-.25-.49-.51-.53 0-.77-.26-.02-.46-.26-.73-.29-.22-.53-.48-.45-.07-.69-.33-.32-.19-.56-.46-.25-.26-.48-.52-.05-.44-.29-.7-.23-.27-.47-.54-.27-.24-.51-.5-.27-.23-.51-.5.05-.53-.18-.79-.24-.26-.48-.52-.56.03-.8-.23.01-.49-.23-.75-.19-.3-.43-.57-.5-.02-.74-.29-.33-.18-.57-.45.09-.56-.15-.83-.64.1-.87-.17 0-.49-.23-.75-.31-.21-.55-.47-.33-.18-.57-.44.05-.53-.19-.79-.36-.15-.59-.42-.16-.34-.4-.6-.32-.19-.56-.46-.35-.16-.6-.43-.09-.41-.33-.67-.53 0-.77-.27.08-.56-.16-.83-.41-.12-.65-.39c-.17-.18-.48-.3-.61-.51s-.12-.53-.2-.77.28-.56.24-.81c-.05-.35-.33-.31-.38-.67s-.21-.33-.26-.68.28-.4.23-.76.04-.37 0-.72-.65-.27-.7-.62-.05-.35-.1-.71.2-.39.14-.74-.28-.32-.33-.67.46-.43.4-.78-.22-.33-.27-.68-.07-.35-.12-.7.21-.39.16-.75-.25-.32-.3-.68-.25-.32-.3-.68.34-.41.29-.76-.22-.33-.27-.68-.45-.3-.5-.65.45-.43.39-.78.02-.37-.03-.72-.2-.33-.25-.69.04-.37-.01-.72-.22-.33-.28-.69.17-.39.12-.74-.38-.31-.44-.66.09-.38.04-.73.09-.38.04-.73-.37-.31-.42-.66.19-.39.13-.74-.48-.29-.53-.65.35-.41.3-.77.03-.37-.02-.72-.09-.35-.14-.7-.41-.3-.46-.66-.14-.34-.19-.7 0-.36-.05-.72.11-.38.06-.73.32-.41.27-.76-.42-.3-.47-.66.22-.39.17-.75-.6-.28-.65-.63.36-.42.31-.77-.03-.36-.08-.71-.14-.34-.2-.7-.05-.35-.11-.71.03-.37-.03-.72.12-.38.07-.73-.1-.35-.15-.7.02-.36-.03-.72-.46-.29-.52-.65.38-.42.33-.77-.65-.27-.7-.62.03-.37-.03-.72-.16-.34-.21-.69.35-.41.3-.77-.1-.35-.15-.7-.15-.34-.2-.7.21-.39.16-.75-.23-.33-.29-.68.2-.39.15-.74-.6-.27-.66-.63 0-.36-.06-.71.47-.43.42-.78-.52-.29-.57-.64.38-.42.33-.77-.63-.27-.68-.62.41-.42.35-.77-.07-.35-.12-.71-.3-.32-.35-.67.3-.41.24-.76-.1-.35-.15-.7-.16-.34-.21-.7.16-.39.1-.74-.29-.32-.34-.68.19-.39.14-.75-.35-.31-.4-.67-.25-.33-.3-.68.38-.42.33-.77-.13-.34-.18-.7-.46-.3-.51-.65-.09-.35-.14-.71.36-.42.3-.77-.4-.31-.45-.66.39-.42.34-.78-.59-.28-.65-.63.26-.4.2-.76.17-.39.12-.74.02-.37-.03-.72-.29-.32-.34-.68-.32-.32-.37-.67-.05-.36-.1-.71.45-.43.4-.79-.29-.32-.34-.68-.13-.34-.18-.7-.33-.31-.38-.67.37-.42.32-.77-.06-.35-.11-.71-.15-.34-.2-.7-.05-.36-.11-.71.06-.37 0-.73-.17-.34-.22-.7-.34-.32-.4-.67-.04-.36-.09-.72.07-.37.02-.73-.19-.34-.24-.7-.02-.36-.07-.72.21-.4.16-.75.1-.38.05-.74-.03-.36-.08-.72.08-.38.03-.74-.36-.32-.41-.68 0-.37-.04-.73c-.04-.24-.3-.43-.35-.67s-.11-.46-.18-.69-.28-.39-.38-.62.38-.72.27-.93-.46-.32-.59-.52-.11-.53-.26-.73c-.15-.20001-.73-.02-.9-.19999-.17-.18-.03-.64-.21-.81s-.43-.25002-.62-.40002-.45-.2-.65-.34-.33-.38998-.54-.50998-.41-.29001-.63-.39001-.4-.36998-.63-.44998-.55.09998-.79.03998-.52.15001-.76.11001-.44-.32-.68-.34-.49-.25-.73-.25z" fill="#fff"/><path d="m146.4 116.95c-.02-.24.13-.56.06-.8s-.48-.34-.59-.56c-.24 0-.46.28-.7.28s-.48-.03-.72-.03-.48 0-.72 0-.47-.63-.71-.63-.48.45-.72.45-.48-.11-.72-.11-.48.19-.72.19-.48-.22-.72-.22-.48.33-.72.32-.48-.28-.72-.28-.48-.31-.72-.31-.48.58-.72.58-.48-.62-.72-.62-.48.3-.72.3-.48.3-.72.3-.48-.09-.72-.09-.48-.5-.72-.49-.48.24-.72.24-.48.34-.72.34-.48-.35-.72-.35-.48.03-.72.03-.47.38-.71.38-.48-.31-.72-.3-.48.19-.72.19-.48-.02-.72-.01-.48-.22-.72-.22-.47.37-.71.38-.48-.16-.72-.15-.48-.14-.72-.14-.48-.31-.72-.31-.47.32-.71.33-.47.34-.71.34-.48-.07-.72-.06-.48-.3-.72-.3-.48.1-.72.11-.48-.08-.72-.08-.48 0-.72.01-.47.27-.71.27-.48-.15-.72-.15-.48.15-.71.16-.48-.26-.72-.25-.48.01-.72.02-.48-.21-.72-.21-.48.09-.72.1-.47.18-.71.19-.48-.05-.72-.05-.48.03-.72.03-.47.47-.71.48-.49-.53-.73-.53-.47.2-.71.21-.48.15-.71.16-.48 0-.72.01-.48.06-.72.07-.48 0-.72 0-.48.05-.72.06-.49-.52-.73-.52-.48.13-.71.14-.47.41-.71.41-.49-.27-.72-.26-.48-.21-.72-.21-.47.5-.71.51-.48-.22-.72-.21-.48.06-.72.06-.48-.06-.7199-.05c-.24.01-.4801-.22-.7201-.21s-.48.12-.72.13-.4699.31-.7099.32-.48.07-.72.08-.4801.03-.7201.04-.49-.42-.73-.41-.4799.02-.7199.02-.48-.04-.72-.03-.4701.38-.7101.38-.48.08-.72.09-.4799.09-.7199.1-.49-.38-.73-.37-.4701.26-.7101.26-.48.11-.72.11-.4799-.21-.7199-.21-.48.18-.71.18-.4901-.35-.7301-.35-.47.29-.71.3-.4799-.23-.7199-.22-.47.23-.71.24-.4701.28-.7101.28-.49-.31-.73-.3-.4799.1-.7199.1-.48.13-.72.13-.4801.11-.7201.12-.48-.24-.72-.24-.4799-.06-.7199-.05-.48.11-.72.12-.4801-.06-.7201-.06-.48.17-.72.18-.4799-.23-.7199-.23-.48-.13-.72-.13-.4801.2-.7201.2-.48.16-.72.16-.4799.19-.7199.19-.49-.47-.73-.46-.48-.08-.72-.08-.4701.55-.7101.55-.48-.46-.7199-.45c-.24.01-.47.5-.71.5s-.4801-.23-.7201-.23-.48-.02-.72-.02-.4799-.05-.7199-.05-.48-.2-.72-.19-.4801.03-.7201.03-.48.05-.72.05-.48-.02-.7199-.02c-.2401 0-.48.22-.72.22s-.4801-.33-.7201-.33-.48.24-.72.25-.48-.24-.72-.24-.4799.5-.7199.5-.48.01-.72.01-.4801-.48-.7201-.48-.48.37-.72.37-.4799-.27-.7199-.28-.48.22-.72.21-.4801.09-.7201.09-.48-.03-.72-.03-.4799-.16-.7199-.16-.48-.05-.72-.05-.4801.26-.7201.26-.47-.54-.71-.54-.4799.39-.7199.38-.48.06-.72.06-.4701-.32-.7101-.32-.48-.12-.72-.12-.4799.36-.7199.36-.4701-.33-.7101-.33-.49.54-.73.53-.48-.03-.72-.03-.4799-.16-.7199-.16-.4701-.42-.7101-.42-.48-.02-.72-.02-.48.04-.72.03-.4799.13-.7199.12-.4701-.17-.7101-.18-.48.02-.72.02-.4799.2-.7199.19c-.2401-.01-.48-.05-.72-.06s-.4701-.23-.7101-.24-.48.07-.72.06-.4699-.11-.7099-.12-.5.54-.74.53-.48-.07-.72-.08-.4701-.23-.7101-.24-.4799-.08-.7199-.09c-.2401-.01-.49.32-.73.31s-.48-.04-.72-.05-.4701-.27-.7101-.28-.48.08-.72.07-.4599-.34-.6999-.36-.4901.13-.7201.11-.4599-.29-.6999-.3-.5.44-.74.43-.48-.06-.71-.08-.4501-.45-.6901-.46-.4999.23-.7299.22c-.21.11-.3501.41-.5701.49s-.49.14-.72.18-.5-.02-.74-.03-.4899-.05-.7199-.11-.4701-.15-.6801-.26c-.2-.1-.3299-.37-.5199-.52-.18-.14-.36-.28-.53-.46-.16-.17-.31-.36-.47-.53s-.52-.18-.67-.35-.09-.55-.24-.74-.2601-.4-.4201-.58-.1899-.46-.3399-.64-.3101-.36-.4501-.55-.6399-.11-.7799-.3-.39-.31-.53-.5.2099-.74.0699-.94-.75-.06-.88-.25-.0299-.56-.1599-.76-.23-.42-.36-.62-.5701-.2-.7001-.41-.16-.47-.28-.67-.2999-.38-.4199-.59.1899-.66.0699-.86-.3299-.36-.4399-.57-.0601-.5-.1701-.71-.6999-.18-.8099-.39-.2301-.42-.3301-.64-.13-.47-.23-.69.0001-.52-.0999-.74-.26-.41-.35-.63-.4-.36-.49-.58.33-.63.25-.86-.57-.31-.65-.53.22-.58.15-.8.04-.5-.02-.73-.45-.37-.51-.6-.4-.4-.46-.63.12-.52.07-.75.18-.52.13-.75-.1501-.45-.1901-.69-.45-.42-.48-.65.04-.49.01-.73.17-.49.15-.73c-.02-.25-.3-.48-.31-.72s.4801-.51.4701-.75-.12-.48-.12-.73-.0601-.49-.0501-.73-.0699-.49-.0599-.74.0499-.49.0599-.73-.28-.51-.27-.75.21-.48.23-.72.0501-.49.0801-.73.26-.47.28-.71-.03-.5 0-.74-.2-.52-.18-.76.0399-.49.0599-.74.14-.48.16-.72-.0999-.51-.0699-.75.38-.46.4-.7-.2401-.52-.2201-.76.0601-.49.0801-.73.35-.46.37-.71c.02-.23.0699-.47.0899-.7s-.05-.48-.03-.71-.4199-.49-.4099-.73.09-.46.1-.7.2699-.46.2799-.69.3401-.46.3501-.69 0-.47 0-.71-.5601-.49-.5501-.72.62-.45.63-.69-.6099-.49-.5999-.72.61-.45.61-.69-.3201-.48-.3101-.71-.12-.47-.12-.71.52-.45.52-.69-.12-.47-.11-.71-.51-.49-.5-.72.46-.45.47-.69-.12-.48-.11-.71.3301-.45.3401-.69-.07-.47-.05-.71.1-.46.12-.7-.38-.51-.37-.74.2099-.46.2299-.7.33-.46.34-.69-.02-.48 0-.72.0601-.47.0801-.71-.37-.51-.35-.74.07-.47.09-.71.1899-.47.2099-.7.11-.47.13-.71.0501-.48.0601-.71-.1101-.49-.0901-.73-.0399-.48-.0299-.72-.18-.49-.17-.73.65-.43.66-.67-.56-.52-.54-.76.62-.43.64-.67.0699-.47.0899-.71-.3699-.51-.3499-.75.0499-.48.0699-.71.39-.45.41-.69-.15-.49-.13-.73-.42-.51-.4-.75.6-.43.62-.67-.24-.5-.22-.74-.1999-.49-.1799-.73.2899-.46.3099-.7.0401-.48.0601-.72.1399-.47.1599-.71.09-.47.11-.71.1701-.47.1901-.7-.51-.52-.49-.76.13-.47.15-.71.5099-.44.5299-.68-.0799-.49-.0599-.73.0799-.47.0999-.71-.14-.49-.12-.73-.03-.48-.01-.72.24-.46.26-.7-.27-.5-.25-.74.2801-.46.3001-.7-.1901-.5-.1701-.73-.02-.48 0-.72.5301-.43.5501-.67-.3801-.51-.3601-.75.37-.45.39-.69-.41-.52-.39-.76-.01-.48 0-.72.28-.46.3-.69.1701-.47.1901-.7.2999-.45.3199-.69-.1199-.49-.0999-.73-.24-.5-.22-.74.3699-.45.3999-.68-.2099-.5-.1899-.74-.0801-.49-.0601-.73-.0699-.49-.0399-.73.22-.46.24-.7.4299-.47.4499-.7c-.03-.23.05-.5.01-.73s-.24-.43-.27-.66-.1699-.44-.2099-.67.0999-.48.0699-.71.0001-.47-.0399-.7-.1-.58-.14-.81c-.19-.15-.66-.13-.85-.28s-.3801-.3-.5701-.45-.3699-.31-.5499-.47-.19-.53-.38-.68-.7701.18-.9601.03-.4-.28-.59-.43-.1699-.55-.3599-.7-.3601-.32-.5401-.48-.42-.25-.61-.41-.1499-.56-.3299-.72-.59-.06-.77-.22-.3901-.29-.5701-.45-.2499-.39-.4299-.55c-.02.13-.1801.18-.1901.32-.03.36-.18.34-.21.7s.24.38.21.74-.2799.33-.3099.69.45.4.42.76.03.36 0 .72-.37.33-.4.68.1999.38.1699.74-.3699.33-.4099.68-.0501.36-.0901.71.1101.37.0801.73.05.36.02.72.1999.38.1599.74-.2899.33-.3199.69c-.03003.36.0899.37.0499.73s.08.37.05.73-.52989.31-.5599.67c-.03.36.19993.38.16993.74s.22006.38.19006.74-.24003.34-.28003.7.05002.37.02002.72-.12003.35-.16003.71-.31998.33-.34998.69.11997.37.08997.73.14999.38.11999.73-.38003.33-.41003.69.24008.38.21008.74-.00002.36-.02002.72-.40005.33-.43005.68.51999.41.48999.77.00008.36-.03992.72-.24002.34-.27002.7-.25003.34-.28003.7.34006.39.31006.75-.39004.33-.42004.68.18002.38.15002.74.01999.36-.01001.72-.43997.32-.46997.68.17002.38.14001.73c-.03.35-.21999.34-.25.7-.03.36.06992.37.03992.73s.30002.39.27002.75.06002.37.02002.72-.44998.32-.47998.68-.16006.35-.19006.71-.00002.36-.02002.72.00009.36-.02991.72.36997.4.33997.75-.55998.31-.59998.67.22995.38.19995.74.08005.37.05005.73.03.37 0 .72.18991.38.15991.74-.60989.31-.63989.67.46994.41.43994.76-.51994.31-.55994.67-.15006.35-.19006.71.59005.41.55005.77-.42007.32-.45007.68.17.38.13.74-.11002.35-.15002.71-.30997.33-.33997.69-.1.35-.13.71.61008.42.58007.78c-.03.36-.18008.35-.21008.7s-.53994.31-.56994.67.63998.42.60998.78-.69998.3-.72998.66-.02006.36-.06006.72.26999.39.23999.75.05001.37.01001.73.06003.37.03003.73.12998.37.09998.73-.04996.36-.07996.72-.43998.32-.47998.68-.0701.35-.1001.71.22007.38.19007.74.10995.37.07995.73-.57998.31-.60998.67.24997.38.21997.74.14999.38.11999.73-.28994.34-.31994.69.17.38.13.74.01998.36-.02002.72-.54995.31-.57995.67.53.41.5.77-.53006.31-.56006.67.47006.4.44006.76.06992.37.03992.73-.25993.34-.29993.69-.35.33-.38.69.20003.38.16003.74-.28007.33-.32007.69.46006.4.43006.76-.06999.35-.10999.71-.23002.34-.27002.7.05002.37.02002.73.1799.38.1499.74-.2399.34-.2699.7-.40006.33-.44006.69.37997.4.33997.76-.19998.34-.22998.7.11007.37.08007.73-.50002.32-.53002.68.38998.4.35998.76.06002.37.02002.73-.44998.32-.47998.68.28989.39.25989.75.16011.38.12011.74-.36001.33-.39001.69-.10001.35-.14001.72-.00003.36-.03003.72-.10001.35-.13001.71.05001.37.01001.73.35996.4.32996.76-.41995.32-.44995.68.29001.39.26001.75.01999.37-.01001.73-.41996.33-.44996.69.30991.39.27991.75-.38992.33-.41992.69.10996.37.07996.73-.03995.36-.06995.72.03.36 0 .72-.38004.33-.42004.69.11996.38.08996.74.17002.38.14002.74-.27995.34-.31995.7.43991.4.40991.76-.4999.32-.5299.68.28.39.25.75-.3201.34-.3501.7-.18997.35-.21997.71.23007.39.20007.75-.24002.34-.27002.7.30991.39.27991.75-.06998.36-.09998.72-.04996.36-.08996.73.19003.39.16003.75-.00004.37-.04004.73c-.02.25-.21005.45-.18005.69s-.01994.49.06006.72.27001.39.39001.61-.16.73 0 .92c.24.27.55004 0 .79004.27s.33996.18.57996.45.06993.41.30993.68.45006.09.68006.36-.11.58.13.85.57995-.03.81995.24-.14991.61.09009.88.20994.3.43994.57.22997.28.46997.55.35009.17.59009.45.19994.31.43994.58.16001.34.39001.61.28002.24.52002.51.58996-.04.82996.23.22997.28.46997.55c.24001.27.06001.43.29001.7s.4101.12.6501.39-.07.55.16.82.16.34.39.61.64-.08.88.19-.0701.54.1599.81.5901-.04.8201.23.02.46.25.73.3299.19.5599.46.16.34.4.61.1901.31.4301.58.39.14.63.41.3099.21.5499.48.14.36.37.63-.0699.54.1701.81l.48.54c.24.27.3199.2.5599.47s.56-.02.8.25.0401.44.2801.72.3599.17.5999.44-.03.51.21.78.3301.2.5701.47.5499 0 .7899.28.0701.42.3201.7.14.36.38.64c.14.17.1499.52.3199.66s.67-.17.86-.06.21.58.42.66.48-.03.7.01.44.15.66.15c.36 0 .36.03.72.03s.3601.06.7201.06.36-.05.72-.05.3599.16.7199.16.36.01.72.01.3601-.27.7201-.27.36.18.72.18.3599-.16.7199-.16.36-.24.72-.24.3601.2.7201.2.36-.19.72-.19.3599.16.7199.16.36.18.72.18.3601-.18.7201-.18.36.28.72.28.3599-.3.7199-.3.36.17.72.17.3601-.16.7201-.16.36-.19.72-.19.3599-.11.7199-.11.36.32.72.32.36.26.72.26.3601-.45.7201-.45.36-.07.72-.07.3599.5.7199.5.36-.34.72-.34.3601-.15.7201-.15.36.43.72.43.3599-.28.7199-.28.36-.23.72-.23.3601.48.7201.48.36-.19.72-.19.3599-.25.7199-.25.36.11.72.11.3601.27.7201.27.36.24.72.24.3599-.6.7199-.6.36.37.72.37.3601-.46.7201-.46.36.14.72.14.3599.32.7199.32.36.1.72.1.3601-.06.7201-.06.36-.01.72-.01.3599-.42.7199-.42.36-.06.72-.06.36.25.72.25.3601.42.7201.42.36-.6.72-.6.3599.32.7199.32.36-.34.72-.34.3601.53.7201.53.36-.31.72-.31.3599-.14.7199-.14.36-.12.72-.12.3601.57.7201.57.36-.41.72-.41.3599.46.7199.46.36-.42.72-.42.3601.03.7201.03.36.07.72.07.3599.36.7199.36.36-.32.72-.32.3601-.36.7201-.36.36.36.72.36.3599-.31.7199-.31.36.48.72.48.3601-.31.7201-.31.36-.17.72-.17.3599.46.7199.46.36.02.72.02.36-.42.72-.42.3601.19.7201.19.36.28.72.28.3599-.19.7199-.19.36.13.72.13.3601-.03.7201-.03.36-.35.72-.35.3599.11.7199.11.36.4.72.4.3601-.03.7201-.03.36-.38.72-.38.3599-.04.7199-.04.36.14.72.14.3601-.14.7201-.14.36-.11.72-.11.3599.17.7199.17.36-.21.72-.21.3601.26.7201.26.36.11.72.11.3599.1.7199.1h.72c.36 0 .3601-.36.7201-.36s.36.31.72.31.3599-.32.7199-.32.36.2.72.2.36-.28.72-.28.3601.55.7201.55.36-.47.72-.47.3599.36.7199.36.36-.49.72-.49.3601.6.7101.6.3599-.42.7199-.42.36.02.72.02.36.16.72.16.36-.31.72-.31.36.07.72.07.36-.15.72-.15.36.02.72.02.36.63.72.63.36-.12.72-.12.36-.05.72-.05.36-.01.72-.01.36.22.72.22.36-.44.72-.44.36.25.72.25.36-.05.72-.05.36-.38.72-.38.36.38.72.38.36-.17.72-.17.36.01.72.01.36-.27.72-.27.36.56.72.56h.72c.36 0 .36-.58.72-.58s.36.66.72.66.36-.32.72-.32.36.07.72.07.36-.32.72-.32.36.31.72.31.36-.32.72-.32.36-.02.72-.02.36.59.72.59.36-.6.72-.6.36.18.72.18.36-.1.72-.1.36.06.72.06.36.17.72.17.36-.25.72-.25.36.57.72.57.36-.47.72-.47.36.44.72.44.36.02.72.02.36-.53.72-.53.36.1.72.1.36-.22.72-.22.36.56.72.56.36-.3.72-.3.36.21.72.21.36-.23.72-.23.36.2.72.2.36-.46.73-.46.36.3.72.3.36-.19.72-.19.36.53.72.53.36-.27.73-.27.36.13.72.13.36-.3.72-.3.36.01.73.01.36.06.73.06.36.39.73.39.36-.53.72-.53.36.07.73.07.36-.12.73-.12.37.05.73.05.37.42.73.42c.24 0 .5-.06.72-.1s.44-.24.65-.33.52-.05.71-.17.05-.69.22-.84.59-.05.73-.24.55-.25.65-.45-.32-.64-.26-.86.35-.39.37-.62.06-.47.04-.71c-.03-.35.11-.37.08-.72s-.05-.35-.08-.71-.46-.32-.5-.67-.14-.34-.18-.7.19-.37.15-.73-.07-.35-.1-.7.45-.4.42-.75-.26-.33-.29-.69-.09-.35-.13-.7.19-.38.16-.73-.53-.31-.56-.66 0-.36-.02-.71.38-.39.35-.75.08-.37.05-.72-.68-.3-.71-.65.01-.36-.02-.71.3-.39.27-.74-.38-.33-.41-.68 0-.36-.03-.71.26-.38.23-.74.03-.36 0-.72.16-.37.13-.73-.42-.33-.42-.69.13-.37.1-.73z" fill="#cebefd"/><path d="m124.16 74.96c.06.35.36.31.42.66s-.16.39-.11.74.1.34.16.7.43.29.49.64-.07.37-.01.73-.18.39-.12.75-.17.39-.12.75.48.29.54.64-.02.37.04.72.21.33.27.68-.25.41-.2.76-.05.37.01.73.53.28.59.63-.27.41-.21.76-.17.39-.11.75.63.26.69.62-.18.39-.12.75.26.33.31.68-.25.41-.2.76-.12.39-.06.74.54.28.6.64c.04.22-.21.49-.14.7s0 .53.1.72c.12.2.25.46.4.61.16.17.53.15.71.25.21.11.44-.14.65-.14.34 0 .34.15.68.15s.34.11.68.11.34.2.68.2c.25 0 .44-.36.66-.43s.45-.07.65-.2.62-.03.79-.2c.16-.17.1-.55.22-.76.12-.2-.03-.51.06-.74.09-.21.75-.25.81-.49.06-.22.07-.5.1-.75.03-.23-.53-.51-.52-.75s.31-.47.29-.71-.26-.44-.3-.68c-.06-.35.24-.4.18-.75s-.27-.32-.33-.68.24-.4.18-.75-.47-.29-.53-.64.13-.38.07-.74-.28-.32-.34-.67-.1-.35-.16-.7.03-.37-.03-.72.32-.42.27-.77-.24-.33-.29-.68.26-.41.21-.77-.07-.36-.13-.71c-.04-.24-.25-.46-.3-.68s-.19-.45-.26-.67-.3-.4-.39-.61.09-.58-.02-.79-.3-.4-.43-.59-.46-.26-.61-.44-.11-.57-.28-.73-.35-.39-.54-.52c-.2-.14-.47-.25-.67-.35-.22-.11-.59.17-.81.11s-.44-.29-.67-.29c-.34 0-.34.05-.68.05s-.34-.02-.68-.02-.34.08-.68.08c-.26 0-.45.11-.65.27-.18.15-.18.38-.28.64-.09.22-.48.38-.5.65-.02.24-.06.53-.02.8z" fill="#fff"/><path d="m124.16 74.96c.06.35.36.31.42.66s-.16.39-.11.74.1.34.16.7.43.29.49.64-.07.37-.01.73-.18.39-.12.75-.17.39-.12.75.48.29.54.64-.02.37.04.72.21.33.27.68-.25.41-.2.76-.05.37.01.73.53.28.59.63-.27.41-.21.76-.17.39-.11.75.63.26.69.62-.18.39-.12.75.26.33.31.68-.25.41-.2.76-.12.39-.06.74.54.28.6.64c.04.22-.21.49-.14.7s0 .53.1.72c.12.2.25.46.4.61.16.17.53.15.71.25.21.11.44-.14.65-.14.34 0 .34.15.68.15s.34.11.68.11.34.2.68.2c.25 0 .44-.36.66-.43s.45-.07.65-.2.62-.03.79-.2c.16-.17.1-.55.22-.76.12-.2-.03-.51.06-.74.09-.21.75-.25.81-.49.06-.22.07-.5.1-.75.03-.23-.53-.51-.52-.75s.31-.47.29-.71-.26-.44-.3-.68c-.06-.35.24-.4.18-.75s-.27-.32-.33-.68.24-.4.18-.75-.47-.29-.53-.64.13-.38.07-.74-.28-.32-.34-.67-.1-.35-.16-.7.03-.37-.03-.72.32-.42.27-.77-.24-.33-.29-.68.26-.41.21-.77-.07-.36-.13-.71c-.04-.24-.25-.46-.3-.68s-.19-.45-.26-.67-.3-.4-.39-.61.09-.58-.02-.79-.3-.4-.43-.59-.46-.26-.61-.44-.11-.57-.28-.73-.35-.39-.54-.52c-.2-.14-.47-.25-.67-.35-.22-.11-.59.17-.81.11s-.44-.29-.67-.29c-.34 0-.34.05-.68.05s-.34-.02-.68-.02-.34.08-.68.08c-.26 0-.45.11-.65.27-.18.15-.18.38-.28.64-.09.22-.48.38-.5.65-.02.24-.06.53-.02.8z" stroke="#000" stroke-miterlimit="10" stroke-width="2.6"/><path d="m124.64 74.88c.06.35-.21.4-.15.75s-.2.4-.14.75.3.31.36.66-.09.37-.03.73.49.28.55.64-.49.44-.43.8-.02.37.04.72.06.35.12.71.08.35.13.7.22.33.28.68.37.31.42.66-.08.38-.03.73-.21.4-.15.75-.05.37.01.73.54.28.59.64-.36.42-.3.78.1.35.16.7.37.31.43.66-.26.41-.21.77.39.3.45.66.19.34.24.7c.04.22-.29.53-.22.73s.29.38.4.56c.12.2.18.45.33.6.16.17.35.35.54.45.21.11.48.35.7.35.34 0 .34-.05.68-.05s.34-.4.68-.4.34-.15.68-.15c.25 0 .42.08.65.01s.5.02.7-.11.54-.12.71-.3c.16-.17-.12-.67 0-.88.12-.2.77-.13.86-.36.09-.21.07-.5.13-.74.06-.22.04-.49.07-.73.03-.23.17-.48.18-.72s-.35-.47-.36-.71.03-.47-.01-.71c-.06-.35-.01-.36-.07-.71s0-.36-.06-.72-.32-.31-.38-.67.29-.41.23-.76-.52-.28-.58-.64.19-.39.14-.75-.32-.31-.38-.67.49-.44.43-.79-.41-.3-.46-.65.28-.41.23-.77-.19-.34-.24-.69-.04-.36-.1-.72c-.04-.24-.31-.42-.37-.65s.05-.51-.02-.73-.1-.48-.19-.7-.43-.33-.54-.53-.02-.55-.15-.74-.12-.54-.27-.72-.55-.18-.71-.34-.58-.02-.77-.16c-.2-.14-.29-.38-.5-.48-.22-.11-.4-.21-.63-.26s-.44-.15-.67-.15c-.34 0-.34-.04-.68-.04s-.34-.03-.68-.03-.34-.05-.68-.05c-.26 0-.5.15-.69.32-.18.15-.5.28-.61.54-.09.22 0 .53-.02.8-.02.24.31.45.35.71z" stroke="#000" stroke-linecap="round" stroke-linejoin="round" stroke-width="2.6"/><path d="m104.85 82.5c-.36.03-.38.14-.74.17s-.38.13-.74.16-.38.16-.74.19-.28-.44-.64-.41-.42.41-.78.44-.41.34-.77.37-.32-.19-.6801-.16c-.36.03-.35 0-.71.03s-.31-.32-.67-.29-.39.23-.75.26-.4.32-.76.34c-.36.03-.34-.08-.7-.06-.36.03-.32-.3-.67-.28-.36.03-.38.2-.74.23-.36.02-.4.36-.76.38s-.3001-.48-.6601-.46-.3799.17-.7399.19-.36.08-.72.1-.35-.03-.71-.01-.4.38-.76.4-.3501-.09-.7101-.08c-.36.02-.3499-.03-.7099 0-.36.02-.36-.03-.71-.01-.36.02-.36.03-.72.05s-.3701.14-.7301.16-.3299-.31-.6899-.29-.37.13-.73.14c-.36.02-.39.36-.74.37-.36.02-.3601.02-.7201.04-.36.01-.3199-.52-.6799-.51s-.36.05-.72.06c-.36.02-.3601.04-.7201.05s-.3499-.13-.7099-.12-.38.47-.74.48-.36.15-.72.16c-.36 0-.3501-.08-.7101-.07s-.3599.06-.7199.07c-.36 0-.34-.38-.7-.37-.36 0-.36-.03-.72-.03s-.3701.35-.7301.35-.3399-.52-.6999-.51c-.36 0-.36-.06-.72-.06s-.3601.14-.7201.15c-.36 0-.36.07-.72.08-.36 0-.3599.48-.7199.48s-.36-.1-.71-.1c-.24 0-.4767 0-.7101 0-.36 0-.3599-.31-.7099-.31-.36 0-.36.47-.72.47s-.36-.42-.72-.42-.3601.1-.7201.1-.3599-.35-.7199-.35-.35.44-.71.43c-.36 0-.36.05-.72.05s-.3701-.48-.7301-.48-.3499.44-.7099.43c-.36 0-.36-.12-.72-.12s-.37-.36-.73-.37c-.36 0-.3501.12-.7101.11-.36 0-.3599.09-.7099.08-.36 0-.35.17-.71.16-.36 0-.3601-.07-.7201-.08-.36 0-.3599.06-.7199.05-.36 0-.38-.32-.74-.33-.36 0-.35.14-.71.13s-.3501.15-.7101.14-.3399.22-.6999.21-.36.04-.71.03c-.36-.01-.36 0-.72-.01s-.39-.4-.75-.42c-.36-.01-.39-.35-.75-.37-.36-.01-.35.17-.71.15s-.34.26-.7.24-.3401.24-.7001.22-.37-.13-.73-.15-.41-.54-.77-.56-.3099.46-.6699.44-.36-.06-.72-.08-.39-.32-.75-.34-.3701-.08-.7301-.1-.3199.35-.6799.33-.36-.04-.72-.06-.3501.03-.7101 0c-.36-.02-.3399.14-.6999.11-.36-.02-.38-.17-.74-.2-.36-.02-.38-.18-.74-.2-.36-.03-.3601 0-.7201-.03s-.3399.15-.6999.12-.41-.33-.77-.35c-.36-.03-.31.29-.67.26s-.41-.33-.77-.36-.3401.12-.7001.09c-.37-.03-.3299.15-.6999.12-.36-.03-.4201-.38-.7901-.41-.25-.02-.4799-.25-.7199-.32-.25-.07-.48 0-.72-.12-.24-.11-.57-.03-.8-.18-.23-.16-.37-.48-.58-.66-.21-.19-.46-.35-.63-.56-.18-.21-.5501-.37-.6901-.6s-.03-.57-.13-.81-.1099-.49-.1699-.74c-.08-.36-.15-.36-.22-.72s.01-.36-.06-.72.0199-.36-.0501-.72-.4899-.37-.5599-.73.08-.36.01-.72.05-.36-.02-.72-.3801-.37-.4401-.73c-.07-.36.1201-.36.0601-.72s-.2-.36-.26-.73c-.06-.36.42-.36.36-.72s-.13-.36-.19-.72.03-.36-.03-.72c-.05-.36-.03-.36-.08-.72s.02-.36-.03-.72-.73-.36-.78-.72.66-.36.62-.72c-.05-.36-.21-.36-.25-.72s-.38-.36-.43-.72c-.04-.36.16-.36.12-.72s.17-.36.12-.72c-.04-.36-.41-.36-.44-.72-.04-.36-.06-.36-.1-.72s-.1-.36-.14-.72.1299-.36.0999-.72.26-.37.23-.73.05-.36.02-.73c-.03-.36-.6299-.34-.6599-.71-.03-.36.12-.36.09-.72-.02-.36.3399-.37.3199-.73s.0001-.36-.0299-.72c-.02-.36-.36-.35-.38-.71s-.15-.36-.17-.71c-.02-.36.31-.37.29-.73s.1699-.37.1499-.73c-.01-.36-.2499-.35-.2699-.71-.01-.36-.38-.34-.39-.7s.1599-.37.1499-.73c0-.36-.0099-.36-.0199-.72 0-.36-.13-.35-.13-.71s.48-.39.48-.75-.0801-.36-.0801-.72-.5399-.32-.5399-.69c0-.36.72-.41.73-.77 0-.36-.2001-.35-.1901-.71 0-.36-.3199-.34-.3199-.7s.15-.37.16-.73c0-.36.22-.37.23-.73s-.46-.32-.45-.68.34-.38.35-.74c.02-.36.33-.39.35-.75s-.7001-.3-.6801-.66.24-.38.26-.74.5101-.4.5301-.76-.59-.3-.57-.66c.03-.36-.06-.35-.03-.71s.59-.42.62-.78-.5-.31-.47-.66c.03-.36.46-.41.5-.77.03-.36-.15-.34-.12-.7.04-.36.05-.36.09-.72s.18-.38.22-.73c.04-.36-.09-.34-.05-.71.04-.36.4-.41.44-.77s-.3401-.31-.3001-.68c.05-.36-.17-.33-.12-.7.03-.24.67-.5.74-.74.08-.24-.24-.54-.11-.76.13-.23.3801-.44.5401-.65.16-.22.3799-.41.5699-.59.2-.19.43-.34.65-.49s.38-.55.62-.67c.23-.11.5301-.07.7801-.14.24-.07.5-.13.74-.15.36-.04.33.1.69.06.36-.03.4-.25.76-.28s.37-.09.73-.12.2899.34.6499.31.3701-.07.7301-.11c.36-.03.4-.3.76-.33s.2799.48.6399.45.3701-.11.7301-.14.34.09.7.06.4-.33.76-.35c.36-.03.31.29.67.26s.46-.73.81-.75c.36-.03.33.21.68.19.36-.03.37-.1.73-.12s.3.47.66.45c.36-.03.3999-.36.7599-.38s.3101.35.6701.33.44-.7.8-.73c.36-.02.33.24.69.22s.33.22.69.2.36-.02.72-.04.37-.13.73-.15.37-.12.73-.14.3599-.04.7199-.06.3801-.24.7401-.26.36-.07.72-.09.3099.56.6699.54.3501.11.7101.1.4-.52.75-.54c.36-.01.36-.13.72-.15.36-.01.3499.11.7099.09.36-.01.3601-.01.7101-.03.36-.01.37-.2.73-.22.36-.01.3299.54.6899.52.36 0 .37-.15.72-.15.36-.01.3701-.34.7301-.35s.35.24.71.24c.36-.01.37-.34.73-.34s.3499.3.7099.29c.36 0 .3701-.22.7201-.23.36 0 .34.49.7.49s.3699-.4.7299-.4.3501.47.7101.47.37-.43.72-.44c.36 0 .35.36.71.36s.3599-.13.7199-.13.3601-.25.7201-.25.36.33.71.33c.36 0 .36-.51.72-.51s.3599.47.7199.47.3601-.08.7201-.07c.36 0 .36-.12.72-.12s.36-.26.71-.26c.36 0 .3599-.07.7199-.07s.3601.01.7201.02c.36 0 .36.13.72.13s.3499-.12.7099-.12.38.52.74.53c.36 0 .3501-.12.7101-.12s.35-.22.71-.22.3499-.07.7099-.06c.36 0 .37.24.73.24s.3501-.22.7101-.21.38.39.74.4.3399-.41.6999-.4.37.25.73.26.3501-.19.7101-.18.36-.04.72-.02c.36.01.39.41.75.42s.37.16.73.17.3599.04.7199.05c.36.02.3701.13.7301.14.36.02.36-.02.72 0s.35-.08.71-.07c.36.02.3599-.01.7199 0 .36.02.3101-.53.6601-.51.36.02.42.6.78.62s.37.13.73.15.3299-.28.6899-.26.3501-.09.7101-.07.41.44.77.46.3099-.37.6699-.34c.36.02.4101.4.7701.42.36.03.3-.49.66-.46.36.02.36 0 .72.02.36.03.42.41.78.44.36.02.37.04.73.07s.3399-.12.6999-.09.39.25.76.28c.36.03.3201-.23.6801-.2s.36 0 .7201.03c.36.03.4.28.77.31.36.03.37.04.73.07s.27-.5.64-.47c.25.02.54.24.79.3.25.07.57-.03.81.08.24.12.29.79.52.95.23.15.66-.02.87.17.2.18.41.43.58.64.18.21.04.59.18.82s.39.4.49.65c.1.24.02.46.07.71.08.36.62.38.7.74.07.36.06.36.13.72s-.05.36.02.71c.07.36-.31.35-.24.71s.36.37.43.73-.35.35-.28.71.39.37.46.73c.06.36.07.36.14.72.06.36-.21.36-.15.72s.61.37.67.73.11.36.17.72-.16.36-.11.72-.06.36 0 .72c.05.36.11.36.17.72.05.36-.13.36-.07.72.05.36-.15.36-.1.72s.7.36.75.72.02.36.07.72c.04.36-.21.36-.17.72s-.24.36-.2.72.1.36.14.72.42.35.46.71.02.36.06.72-.45.37-.42.73.57.35.61.71c.03.36-.22.37-.19.73s.12.36.15.72-.2.37-.18.73c.03.36-.19.37-.17.73s.12.36.14.72.43.35.45.7c.02.36.05.36.07.72s.15.35.17.71-.6.39-.58.75c.01.36.31.35.32.71s.09.36.1.72c0 .36.12.35.13.71 0 .36-.02.36-.02.72s-.12.37-.12.73-.05.36-.05.72-.08.36-.08.72.17.35.17.71-.16.37-.17.73c0 .36.43.33.42.69 0 .36.05.35.04.71 0 .36-.39.39-.4.75 0 .36.03.35.02.71s-.21.37-.22.73.23.34.22.7c-.02.36.25.34.23.7s-.23.38-.24.74c-.02.36-.12.37-.14.73s.28.33.26.69-.1.37-.13.72c-.03.36-.32.39-.34.75-.03.36-.05.36-.07.72-.03.36.35.32.32.68s-.7.43-.74.79c-.03.36.54.3.51.66-.04.36-.28.39-.32.75s-.14.37-.18.73-.11.37-.15.73-.1.37-.15.73c-.04.36.4.31.35.67s-.56.43-.61.79c-.03.24.2.43.13.66-.08.24.04.53-.09.75-.13.23-.29.49-.46.71-.16.21-.45.38-.65.57s-.41.4-.63.55-.5.18-.74.3c-.23.11-.47.36-.71.43s-.44-.23-.68-.2z" fill="#76fb8f" stroke="#000" stroke-linecap="round" stroke-linejoin="round" stroke-width="2.6"/><path d="m30.5698 55.19c.36 0 .3601.38.7201.38s.36-.4.73-.4.36.01.73.01.37.16.73.16.3699-.11.7299-.11.37-.07.73-.07.3601.03.7301.03.37-.04.73-.04.37-.04.73-.04.37.48.73.48h.7299c.36 0 .37.17.73.17s.3701-.55.7301-.55.37-.02.73-.02.37-.04.73-.04.37.01.74.01.37.44.74.44.37-.52.74-.52.45.57.76.36 0-.39.11-.73-.08-.4.03-.74.07-.35.18-.69.22-.3.33-.64.23-.3.34-.64.1399-.33.2399-.67.3001-.28.4101-.62.14-.33.25-.67-.32-.48-.21-.82.35-.26.46-.6-.09-.41.02-.75.53-.21.64-.55.1799-.32.2799-.66-.11-.41 0-.75-.09-.41.02-.75.3601-.26.4701-.6.14-.33.25-.68-.38-.59-.2-.9.2899.43.3499.88c.03.2-.1299.46-.0999.73.03.21.5499.38.5799.63.03.22.0301.46.0701.71.03.22-.4.52-.36.76.03.23.24.44.27.68.03.23.03.47.06.71s-.2.5-.17.74.06.47.09.71.35.43.38.66.4099.42.4399.66-.17.5-.14.73-.3399.52-.3099.76.34.43.37.67-.03.48 0 .72.31.44.34.68.04.48.07.72-.29.52-.26.76.3799.43.4099.67-.2599.52-.2199.75.29.44.32.68.22.45.25.69.19.46.22.69.09.47.12.7.1699.46.1999.69c.03.24-.5799.57-.5499.8.03.25.22.46.25.69.04.25.33.45.36.67.04.26.09.49.12.7.04.27-.04.53 0 .72.08.51.13.75.13.62 0-.08-.17-.37-.09-.75.04-.2.2099-.4.2699-.67.05-.21.5001-.35.5601-.6.05-.22.07-.46.13-.7.05-.22-.28-.55-.22-.79.05-.22-.0201-.49.0399-.72.06-.22.1001-.46.1601-.69s.18-.44.24-.67.1399-.45.1999-.68.07-.47.13-.7.4901-.36.5501-.59-.2-.54-.14-.77.3999-.38.4599-.62.0001-.48.0601-.71.3999-.38.4599-.61-.0999-.51-.0399-.74.06-.47.11-.7-.1201-.52-.0601-.75.2601-.42.3201-.65-.05-.51 0-.74.2399-.43.2999-.66.5001-.36.5601-.59.03-.49.09-.72-.1101-.52-.0501-.75.2701-.42.3301-.65.2-.44.26-.67-.11-.53-.05-.75 0-.49.07-.72.06-.48.12-.71.37-.4.43-.62-.13-.53-.08-.76.69-.31.75-.54-.05-.51 0-.73-.1201-.53-.0601-.75c.06-.24.57-.35.63-.57.06-.24.1201-.47.1801-.69.06-.24-.2-.56-.14-.77.06-.24.1499-.47.1999-.68.07-.25.19-.47.25-.68.07-.26.2401-.47.2901-.66.12-.44.0899-1.14.2099-.81s.1101.39.1701.75-.07.38-.02.73.21.33.27.69-.06.38 0 .73-.42.43-.36.79.42.3.47.66-.13.39-.07.74-.0201.37.0299.73.58.27.63.63-.1199.39-.0599.75.08.35.14.71-.21.4-.15.76.48.29.53.65.05.36.11.72-.4.43-.35.79-.05.38 0 .73.6199.27.6699.62-.2499.41-.1899.77.09.35.14.71.33.31.39.67-.0401.38.0099.74-.3599.43-.2999.79.48.29.54.65.11.35.17.71.0499.36.1099.72-.5199.45-.4599.81.2699.33.3299.68-.1499.39-.0899.75.49.29.55.65-.0201.37.0399.73-.0199.37.0401.73-.16.39-.1.75.53.28.59.64-.26.41-.2.77.06.36.12.72.41.3.47.66.08.36.14.71.06.36.12.72-.4901.45-.4301.81.3901.31.4501.67-.22.41-.17.77.56.28.62.64-.28.42-.23.78.1299.35.1899.71.2.34.26.7-.32.42-.26.78.19.34.25.7.47.3.53.66.0801.36.1401.72-.59.8-.22.85.16-.4.24-.74-.3-.44-.22-.78.55-.24.63-.58-.2-.41-.12-.76.52-.24.61-.59-.4101-.46-.3301-.81.3501-.28.4301-.63.09-.34.17-.69-.3201-.44-.2301-.79.3501-.28.4301-.63.08-.35.16-.69-.1501-.4-.0701-.75.0601-.35.1401-.7.23-.31.32-.66.42-.27.5-.62.04-.36.13-.7.15-.33.23-.68.03-.36.11-.71-.18-.41-.09-.75-.1-.39-.02-.74.29-.3.37-.65.0699-.35.1599-.7-.0399-.38.0501-.72.43-.27.51-.61-.07-.38.01-.73.18-.32.26-.67-.29-.43-.21-.78.37-.28.45-.62.19-.32.27-.67.25-.31.34-.66-.31-.44-.23-.79.06-.35.14-.7.03-.36.11-.71-.08-.39 0-.74.4-.27.48-.62-.1301-.4-.0501-.75.56-.24.65-.59-.2799-.43-.1999-.78.1199-.34.1999-.69-.08-.39 0-.73.53-.24.61-.59.1301-.34.2201-.69-.48-.48-.4-.84.11-.94.47-.94-.24.7-.19 1.05.5899.27.6399.63.0501.35.0901.7.14.34.19.69-.02.36.02.71-.38.41-.33.76.26.32.31.67-.04.36.01.71.08.35.13.7.0499.35.0999.7-.19.39-.14.74.1701.33.2201.69.4899.29.5399.64-.0999.37-.0499.72-.1201.37-.0701.72-.0999.37-.0499.72.1099.34.1599.69.34.31.39.66-.4099.42-.3599.77.64.27.69.62-.5101.43-.4601.78.3701.31.4201.66-.04.37 0 .72.31.32.36.67-.5.43-.45.78.18.34.23.69.46.29.51.65-.1401.38-.0901.73.0401.35.0901.71-.1.37-.05.73-.17.39-.12.74.02.36.07.72.1.32.46.33-.21-.12-.1-.47.47-.23.59-.58.17-.33.28-.68.23-.31.34-.66-.2901-.49-.1801-.83.3801-.26.4901-.61.25-.3.37-.65.1599-.34.2699-.69-.11-.42 0-.77.0501-.37.1701-.72-.06-.41.06-.76.08-.36.19-.71.65-.17.76-.52.1999-.32.3099-.67-.46-.55-.35-.9.37-.27.48-.62.0501-.37.1701-.73-.08-.78.3-.8.0499.47.1599.81.2001.31.3001.66-.1501.42-.0501.76.4801.23.5901.57.26.3.36.64-.07.39.03.74-.0601.39.0399.73.14.33.24.67-.1399.42-.0399.76.61.19.71.54-.11.41 0 .75-.21.54.14.6.22-.15.39-.45.1099-.34.2899-.64.1201-.33.2901-.63.1-.34.27-.64.19-.29.36-.59.51-.11.69-.41-.06-.44.11-.74.18-.3.36-.6-.08-.64.23-.82.4699-.02.8299-.02.3501.51.7101.51.35-.29.71-.29.3499.24.7099.24.3601-.49.7101-.49.36.14.71.14.36.12.71.12.35-.02.71-.02h.71c.36 0 .35.27.71.27s.3499-.29.7099-.29.3601.04.7101.04.36.3.71.3.3599-.35.7099-.35.3601.17.7101.17.36.06.71.06.3499-.29.7099-.29.3501.2.7101.2.35.23.71.23.3599-.39.7099-.39.3601.15.7101.15.36-.35.7101-.35c.35 0 .35.52.71.52s.36-.11.71-.11.36-.04.71-.04.36-.07.71-.07.36-.03.71-.03.36-.14.71-.14.36-.23.71-.23.36.24.71.24h.71c.35 0 .36-.17.72-.17s.36.26.72.26.36-.31.72-.31.36.42.72.42" stroke="#000" stroke-linecap="round" stroke-linejoin="round" stroke-width="2.45"/><path d="m106.63 6.69c-.36 0-.36.53-.71.53s-.36-.22-.71-.22-.36-.16998-.72-.16998-.36.05999-.72.05999-.36.26999-.72.26999-.36-.17001-.72-.17001-.36-.06998-.72-.06998-.36-.21002-.72-.21002-.36.33002-.72.33002c-.3601 0-.3602-.02002-.7202-.02002s-.3599-.01999-.7199-.01999-.36-.10001-.72-.10001-.36-.14999-.72-.14999-.3601.32001-.7201.32001-.3599-.12-.7199-.12-.36-.26001-.72-.26001-.36.51001-.72.51001-.3601-.08001-.7201-.08001-.36-.03998-.72-.03998-.3599.14999-.7199.14999-.36-.46002-.72-.46002-.36.5-.72.5-.3601-.60999-.7201-.60999-.3599.66001-.7199.66001-.36-.13001-.72-.13001-.36-.42999-.72-.42999-.3601.28998-.7201.28998-.3599-.01999-.7199-.01999-.36.1-.72.1-.36-.20001-.72-.20001-.3601-.07998-.7201-.07998-.3599.08999-.7199.08999-.36.10999-.72.10999-.36-.12998-.72-.12998-.3601.34-.7201.34-.3599-.46002-.7199-.46002-.36.31003-.72.31003-.36.01998-.72.01998-.3601-.45001-.7201-.45001-.3599.62-.7199.62-.36-.50998-.72-.50998-.36.13-.72.13-.3601.04999-.7201.04999-.36-.01001-.72-.01001-.3599.27002-.7199.27002-.36-.30002-.72-.30002-.36.04001-.72.04001-.3601.01999-.7201.01999-.3599.19-.7199.19-.36 0-.72 0-.36-.20999-.72-.20999-.3601-.16-.7201-.16-.3599.19-.7199.19-.36.20001-.72.20001-.36-.44-.72-.44-.3601-.01001-.7201-.01001-.3599-.10999-.7199-.10999-.36.41999-.72.41999-.36-.07999-.72-.07999-.3601-.09-.7201-.09-.3599.22001-.7099.22001-.36.03997-.71.03997-.3601-.22998-.7101-.22998-.3599-.25-.7099-.25-.36.5-.72.5-.36-.11001-.72-.11001-.3601.01001-.7201.01001-.3599-.32001-.7199-.32001-.36.54001-.72.54001-.36-.47-.72-.47-.3601-.05002-.7201-.05002-.3599-.10999-.7199-.10999-.36.48001-.72.48001-.36-.34002-.72-.34002-.3601.48001-.7101.48001-.3599-.59-.7099-.59-.36.57001-.71.57001-.3601-.59-.7101-.59-.3599.56998-.7099.56998-.36-.53-.72-.53-.36.04001-.72.04001-.3601.03-.7201.03-.3599.36001-.7199.36001-.36 0-.72 0-.36-.24002-.72-.24002-.3601-.22-.7201-.22-.3599.20001-.7199.20001-.36-.17999-.72-.17999-.36.44998-.72.44998-.3601-.1-.7201-.1-.3599-.25998-.7199-.25998-.36.25-.72.25-.36.23999-.72.23999-.36-.48001-.72-.48001-.3601-.15998-.7201-.15998-.3599.31998-.7199.31998-.36.19-.72.19-.36.11002-.72.11002-.3601-.44-.7201-.44-.3599.16-.7199.16-.36-.03-.72-.03-.36.06998-.72.06998-.3601-.20999-.7201-.20999-.3599.05002-.7199.05002-.36-.18003-.72-.18003-.36.12-.72.12-.3601-.15998-.7101-.15998-.3599.35999-.7199.35999-.36-.42999-.72-.42999-.36.66-.72.66-.3601-.25-.7201-.25-.3599-.11999-.7199-.11999-.36.22998-.72.22998-.36.03-.72.03-.3601-.44999-.7201-.44999-.3599.44001-.7199.44001-.36-.34003-.72-.34003-.36.02002-.72.02002-.3601-.06-.7201-.06-.3599-.08002-.7199-.08002-.36.5-.72.5-.36.04001-.73.04001-.36-.33999-.73-.33999-.3601-.19001-.7301-.19001-.36 0-.73 0c-.25 0-.5399-.04-.7799 0s-.41.56-.65.62-.63-.31999-.87-.23999-.31.54998-.53.66998-.64-.06998-.84.08002-.24.52-.42.69-.18.5-.34.69-.61.15999-.75.35999-.2.48-.31.7-.4401.38-.5201.62.1101.57.0601.81.2.52.17.77c-.03.36-.22.34-.25.7s.08.37.05.72-.33.33-.36.69.15.37.12.73.02.36-.01.72-.03.36-.06.71-.23.34-.26.7.14.37.11.73-.41996.32-.45996.68-.03006.36-.06006.71.51002.41.47002.76-.22005.34-.25005.7-.19998.34-.22998.7.08005.37.05005.73.27998.39.24998.74-.44007.32-.47007.68.30002.39.27002.75-.49002.32-.52002.67.45003.4.41003.76-.13003.35-.16003.71-.23991.34-.27991.7-.15005.35-.18005.71.18002.38.15002.74.06003.37.03003.73-.11002.35-.15002.71-.15006.35-.18006.71.06003.37.03003.73-.31997.33-.34997.69.33992.39.29992.75-.27993.34-.30993.69-.01004.36-.04004.72.30002.39.27002.75-.62003.3-.65003.66.38009.4.34009.75.10996.37.07996.73-.38005.33-.42005.68.00009.36-.02991.72.11997.37.08997.73.11997.37.08997.73-.13004.35-.16004.71-.01992.36-.04992.72.06002.37.03002.72-.1.35-.13.71.01999.36-.01001.72-.22.34-.25.7-.16006.35-.19006.71-.16995.35-.19995.7-.02005.36-.05005.72.49007.41.45007.77-.19999.34-.23999.7.1899.38.1499.74-.42996.32-.45996.68-.15005.35-.18005.71.27011.39.24011.75-.05008.36-.08008.72-.38003.33-.41003.69-.09.35-.12.71.18003.38.15003.74.18002.38.15002.74-.35.33-.38.69-.12003.35-.15003.71.24008.38.21008.74-.33999.33-.36999.69.41988.4.37988.76-.18997.34-.21997.7-.30996.33-.33996.69.45004.4.42004.76-.03007.36-.07007.72-.21.34-.25.7-.38992.33-.41992.69-.03006.36-.06006.72.00998.36-.02002.72-.04996.36-.08996.72.19003.38.16003.74-.12002.35-.15002.7.08993.37.05993.72.09006.37.06006.73-.33999.33-.36999.69.48996.41.45996.76-.28995.34-.31995.69-.11002.35-.15002.71.14999.38.11999.74-.00003.36-.03003.72.00998.36-.02002.72-.10001.35-.14001.71-.28996.33-.32996.69.08004.37.04004.73-.04008.36-.08008.71.2601.38.2301.74-.52004.31-.55004.67-.11002.35-.14002.71.25998.38.22998.74.01999.36-.01001.72-.37992.33-.41992.68-.06009.36-.09009.71.29001.39.26001.75.17002.38.14002.74-.24003.34-.28003.7-.27994.34-.30994.7.35996.4.32996.76-.44998.32-.47998.68.57003.41.53003.77-.63004.31-.66004.66.41001.4.38001.76-.14994.35-.17994.71-.05007.36-.08007.72-.09.35-.12.71-.33999.33-.36999.69.45004.4.42004.76-.1.35-.13.72-.43009.32-.46009.68.15012.38.12012.74.16989.38.13989.74.15.38.12.74-.22.34-.25.7-.03995.36-.06995.72-.14994.35-.18994.71.25998.39.22998.75.05001.37.01001.73-.17007.35-.20007.71-.28996.33-.32996.69.09995.37.06995.73.17001.38.14001.74-.61002.31-.65002.67.24008.39.21008.75.26999.39.23999.75-.34.33-.38.69.22994.38.18994.74-.17997.35-.21997.71.09994.37.06994.73.03.37 0 .73-.1199.35-.1499.72-.26004.34-.29004.7.17002.38.14002.74.01999.37-.01001.73-.56998.31-.59998.68.33994.4.30994.76-.44998.33-.47998.69.41.4.38.77c-.02.25-.29001.5-.26001.75s.24007.47.32007.71.33995.37.44995.59-.09994.68.06006.87c.24.27.64989-.09.88989.18s.10009.39.34009.66.26.25.5.52-.00001.48.23999.75.41002.12.64002.39.20994.3.43994.57.08006.41.32006.68.47998.06.71998.33.27001.24.51001.51.31993.2.55993.47-.17994.64.06006.91.41002.12.64002.39.03.46.26.73.5.04.74.31-.00001.47.23999.74.27001.24.51001.51c.23997.27.59997-.05.83997.22s.0899.4.3299.67.3901.14.6301.41-.07.54.17.81.48.05.72.32 0 .48.24.74.55 0 .79.26.02.46.26.73.4399.09.6799.37-.0899.56.1501.83.13.36.37.64.2399.27.4799.54.5601 0 .7901.26.3299.19.5699.47.2101.29.4501.57-.0401.51.1999.79.2101.3.4401.57.4299.1.6699.37.1001.39.3401.67.28.24.52.51.26.26.5.53.2.31.44.58.36.18.6.45.34.19.58.46c.14.17.15.46.32.6s.35.29.54.4.51-.11.72-.03.27.72.48.76.4899-.24.7099-.24c.36 0 .3601-.31.7201-.31s.36-.07.72-.07.36.29.72.29.3599.29.7199.29.3601.06.7201.06.36-.06.72-.06.36-.27.72-.27.3599.16.7199.16.3601-.29.7201-.29.36.36.72.36.36.09.72.09.3599-.35.7199-.35.3601-.03.7201-.03.36-.14.72-.14.36.43.72.43.36-.46.72-.46.3599.56.7199.56.3601-.08.7201-.08.36-.02.72-.02.36-.25.72-.25.3599.22.7199.22.3601-.26.7201-.26.36-.18.72-.18h.72c.36 0 .3599.11.7199.11s.3601.28.7201.28.36.23.72.23.36-.43.72-.43.3599.37.7199.37h.7201c.36 0 .36-.19.72-.19s.36-.16.72-.16.3599.28.7199.28.3601-.1.7201-.1.36-.4.72-.4.36.6.72.6.3599-.41.7199-.41.3601.32.7201.32.36-.08.72-.08.36-.05.72-.05h.72c.36 0 .3599-.36.7199-.36s.3601.36.7201.36.36.1.72.1.36-.39.72-.39.3599.33.7199.33.3601-.36.7201-.36.36.13.72.13.36.39.72.39.3599-.55.7199-.55.3601.24.7201.24.36.32.72.32.36-.42.72-.42.3599.1.7199.1.3601-.29.7201-.29.36.05.72.05.36-.1.72-.1.3599.44.7199.44.3601.24.7201.24.36-.32.72-.32.36-.27.72-.27.3599.28.7199.28.3601.25.7201.25.36-.31.72-.31.36.16.72.16.3599-.47.7199-.47.36.1.72.1.3601.5.7201.5.36-.22.72-.22.36-.34.72-.34.3599.61.7199.61.3601-.39.7201-.39.36.37.72.37.36-.09.72-.09.3599-.26.7199-.26.3601.28.7201.28.36-.26.72-.26.36.27.72.27.3599-.33.7199-.33.3601.04.7201.04.36-.25.72-.25.36.08.72.08.3599.41.7199.41.3601.1.7201.1.36-.26.72-.26.36.04.72.04.3599-.17.7199-.17.3601.38.7201.38.36-.45.72-.45.36.06.72.06.3599-.18.7199-.18.36.09.72.09.3601.14.7201.14.36-.05.72-.05.36.3.72.3.3599-.29.7199-.29.3601-.09.7201-.09.36.33.72.33.36-.47.72-.47.3599.11.7199.11.3601-.03.7201-.03.36.27.71.27.36-.21.72-.21.3599.53.7199.53.3601-.2.7202-.2c.36 0 .36-.45.72-.45s.36.12.72.12.36.15.72.15.36-.19.72-.19.36-.08.72-.08.36.17.72.17.36.14.72.14.36.15.72.15.36-.14.72-.14.36.22.72.22.36-.38.72-.38.36.24.72.24.36-.2.72-.2.36.11.72.11.36-.04.72-.04.36.34.72.34.36-.32.72-.32.36.01.72.01.36-.21.72-.21.36.55.72.55h.72c.36 0 .36-.48.72-.48s.36.46.72.46.36-.14.72-.14.36-.33.72-.33.36.28.72.28.36-.33.72-.33.36-.08.72-.08.36.32.72.32.36.06.72.06.36-.06.72-.06.36-.25.72-.25.36.52.72.52.36-.37.72-.37.36-.2.72-.2.36.4.72.4.36-.41.72-.41.36.54.72.54.36-.04.72-.04.36.03.72.03.36-.28.72-.28.36-.18.72-.18.36.17.72.17.36-.32.72-.32.36.42.72.42.36.26.72.26.36-.06.73-.06.36-.24.72-.24.36-.11.72-.11.36.22.72.22.36-.06.73-.06.36-.36.72-.36.36.09.72.09.36-.04.73-.04.36.5.73.5.36-.61.73-.61.36.66.72.66.36-.42.73-.42.36.18.73.18.37-.17.73-.17.37.2.73.2c.24 0 .42-.43.64-.47s.44 0 .65-.08.42-.13.62-.25.35-.27.52-.42.56-.11.7-.3.33-.38.44-.59-.07-.54 0-.76.48-.4.5-.63-.05-.51-.07-.74c-.03-.35-.17-.34-.2-.7s-.36-.33-.39-.68-.04-.35-.07-.71.48-.4.45-.75-.36-.33-.39-.68-.15-.34-.18-.69.17-.37.14-.72-.34-.33-.37-.68.13-.37.1-.72-.07-.35-.1-.71-.04-.35-.07-.71.23-.38.2-.73-.35-.33-.38-.68.04-.36 0-.72-.08-.35-.11-.71-.09-.35-.12-.71.51-.4.48-.76-.35-.33-.38-.68.11-.37.08-.72-.04-.35-.07-.71-.11-.35-.14-.71-.38-.33-.41-.68.34-.39.31-.75-.27-.34-.3-.7c-.02-.27-.23-.45-.31-.71s.07-.57-.07-.81-.25-.47-.43-.68c-.24-.26-.4-.12-.64-.38s.12-.59-.12-.85-.3-.21-.54-.47-.26-.24-.5-.51-.23-.27-.47-.53-.57.03-.8-.23.13-.6-.11-.86-.47-.05-.71-.32-.37-.14-.61-.41 0-.47-.25-.74-.01-.47-.25-.73-.48-.05-.72-.31-.49-.04-.72-.3.17-.63-.07-.89-.23-.27-.47-.54-.19-.31-.43-.57-.45-.07-.69-.33-.5-.03-.73-.29-.24-.26-.48-.52-.15-.34-.39-.6-.02-.46-.25-.73-.22-.28-.46-.54-.55.02-.79-.25-.25-.26-.49-.52 0-.48-.24-.74-.17-.33-.41-.59-.41-.11-.65-.38-.25-.26-.49-.52 0-.48-.25-.74-.11-.37-.35-.64-.47-.06-.71-.32-.12-.38-.36-.64-.56.03-.8-.24-.24-.27-.48-.54-.18-.33-.42-.59.01-.5-.23-.77-.17-.33-.42-.6c-.17-.18-.65-.12-.78-.33s-.09-.52-.17-.76-.15-.47-.18-.72c-.05-.35-.13-.34-.18-.7s.1-.38.05-.73.09-.37.04-.73.08-.37.03-.73-.26-.32-.31-.68-.35-.31-.4-.66.09-.37.04-.73.23-.39.18-.75-.08-.35-.13-.7-.18-.34-.23-.69.07-.37.02-.72-.24-.33-.29-.68.17-.39.12-.74-.21-.33-.26-.68-.29-.32-.34-.67-.02-.36-.07-.71-.26-.32-.31-.68.5-.43.45-.79-.45-.3-.51-.65.34-.41.29-.77-.04-.36-.09-.71.04-.37 0-.72-.59-.28-.64-.63.49-.43.44-.79-.51-.29-.56-.64.38-.42.32-.77-.29-.32-.34-.67 0-.36-.05-.72-.11-.35-.16-.7-.25-.33-.3-.68.22-.39.16-.75.05-.37 0-.72-.14-.34-.19-.7.12-.38.07-.73-.31-.32-.36-.67.1-.38.04-.73.03-.37-.02-.72-.23-.33-.28-.68-.45-.3-.5-.65.15-.38.1-.74.03-.37-.03-.72-.29-.32-.35-.68.15-.38.1-.74-.31-.32-.37-.67-.01-.36-.07-.71.25-.4.19-.75-.11-.34-.16-.7.15-.38.1-.74-.56-.28-.61-.63.51-.44.46-.79-.36-.31-.42-.66.17-.39.12-.74.1-.38.05-.73-.63-.27-.68-.63.39-.42.34-.78.04-.37-.01-.72-.05-.35-.1-.71-.58-.28-.63-.63.25-.4.2-.75-.19-.33-.24-.69.38-.42.32-.77-.51-.29-.56-.64-.01-.36-.06-.71-.06-.35-.11-.71-.01-.36-.06-.71-.04-.36-.09-.71-.18-.34-.23-.69.45-.43.4-.78-.41-.3-.46-.66-.34-.31-.39-.67.12-.38.07-.74.12-.38.06-.74.16-.39.11-.74-.55-.28-.6-.64.37-.42.32-.77-.07-.35-.12-.71-.26-.32-.31-.68.33-.41.27-.76-.48-.29-.53-.65-.22-.33-.27-.69.16-.39.11-.74.12-.38.06-.74-.42-.3-.47-.66.22-.4.17-.75-.35-.31-.41-.67.05-.37 0-.73.41-.42.36-.78-.17-.34-.22-.7-.44-.3-.49-.66.45-.43.4-.79-.04-.36-.09-.71-.15-.34-.2-.7.05-.37 0-.72-.49-.29-.54-.64-.2-.33-.26-.69.37-.42.31-.77-.46-.3-.51-.66.06-.37.01-.73.29-.41.24-.76-.09-.35-.14-.71 0-.37-.05-.72-.43-.3-.48-.66-.15-.34-.21-.7.55-.45.5-.81-.46-.3-.51-.66.03-.37-.02-.73-.04-.36-.1-.71-.01-.36-.07-.72-.07-.36-.12-.72-.2-.34-.25-.7-.12-.35-.17-.71c-.04-.24.31-.55.26-.79s-.37-.41-.45-.64.03-.53-.07-.76-.05-.53-.16-.75-.78-.11-.91-.31-.17-.45-.31-.64-.26-.39-.43-.57-.42-.24001-.59-.41001-.09-.63-.28-.78-.26-.5-.46-.63-.76.31-.97.19-.23-.60998-.45-.69998-.56.09999-.78.01999-.44-.14999-.68-.20999-.45-.13002-.69-.17002-.42-.55999-.66-.58999-.51-.04001-.75-.04001z" stroke="#000" stroke-linecap="round" stroke-linejoin="round" stroke-width="2.6"/><path d="m119.62 94.59c-.36 0-.36-.07-.72-.07s-.36.1-.71.1-.36 0-.72 0-.36.05-.72.05-.36-.15-.72-.15-.36-.03-.72-.03-.36.07-.72.07-.36-.3-.72-.3-.36.17-.72.17-.36.1-.72.1-.36-.36-.72-.36-.36.09-.72.09-.36-.09-.72-.09-.36-.1-.72-.1-.36 0-.72 0-.36.09-.72.09-.36.51-.72.51-.36-.14-.72-.14-.36-.27-.72-.27-.36.21-.72.21-.36.12-.72.12-.36-.5-.72-.5-.36.34-.72.34-.36-.24-.72-.24-.36.23-.72.23-.36.07-.72.07-.36-.2-.72-.2c-.3603 0-.3603-.21-.7203-.21s-.3599.57-.7199.57-.36-.52-.72-.52-.36.37-.72.37-.3601-.05-.7201-.05-.3599-.19-.7199-.19-.36.13-.72.13-.36.03-.72.03-.3601.21-.7201.21-.36-.15-.72-.15-.3599-.19-.7199-.19-.36.17-.72.17-.3601-.12-.7201-.12-.36.29-.72.29-.3599-.53-.7199-.53-.36.13-.72.13-.3601.53-.7201.53-.36-.19-.72-.19-.3599.16-.7199.16-.36-.54-.72-.54-.3601.56-.7201.56-.36-.51-.72-.51-.3599-.05-.7199-.05-.36.1-.72.1-.3601.42-.7201.42-.36-.49-.72-.49-.3599.04-.7199.04-.36.13-.72.13-.36-.03-.72-.03-.3601-.23-.7201-.23-.3599.23-.7199.23-.36-.21-.72-.21-.36.11-.72.11-.3601.02-.7201.02-.36-.06-.72-.06-.3599.19-.7199.19-.36-.25-.72-.25-.3601.12-.7201.12-.36.22-.72.22-.3599-.37-.7199-.37-.36.53-.72.53-.3601-.21-.7201-.21-.36.06-.72.06-.3599-.19-.7199-.19-.36.29-.72.29-.3601-.35-.7101-.35-.3599.37-.7099.37-.36-.4-.72-.4-.36.41-.72.41-.3601.14-.7201.14-.36-.6-.72-.6-.3599.11-.7199.11-.36.43-.72.43-.3601-.51-.7201-.51-.36.53-.72.53-.3599-.16-.7199-.16-.36-.04-.72-.04-.3601-.1-.7201-.1-.36.07-.72.07-.3599.21-.7199.21-.36-.37-.72-.37-.3601.02-.7201.02-.36-.07-.72-.07-.3599.37-.7199.37-.36.05-.72.05-.3601-.45-.7201-.45-.36.05-.72.05-.3599.12-.7199.12-.36-.31-.72-.31-.36.62-.72.62-.3601-.47-.7201-.47-.3599.31-.7199.31-.36-.4-.72-.4-.36.02-.72.02-.3601.32-.7201.32-.36-.07-.72-.07-.3599-.07-.7199-.07-.36-.26-.72-.26-.3601.62-.7201.62-.36-.32-.72-.32-.3599.34-.7199.34-.36-.18-.72-.18-.3601-.27-.7201-.27-.36-.07-.72-.07-.3599.36-.7199.36-.36-.48-.72-.48-.3601.17-.7201.17-.36.05-.72.05-.3599.03-.7199.03-.36.21-.72.21-.3601.02-.7201.02-.36-.28-.72-.28-.3599.3-.7199.3-.36-.4-.72-.4-.36-.11-.72-.11-.3601.69-.7201.69-.3599-.69-.7199-.69-.36.16-.72.16-.36-.02-.72-.02-.3601.51-.7301.51-.36-.52-.72-.52-.3599.28-.7199.28-.36.25-.73.25-.36-.05-.72-.05-.3601-.2-.7201-.2-.3599.12-.7199.12-.36-.22-.73-.22-.36 0-.73 0-.37.16-.73.16-.3701-.15-.7301-.15" stroke="#000" stroke-linecap="round" stroke-linejoin="round" stroke-width="2.6"/><path d="m138.1 116.66c-.36 0-.36-.2-.72-.2s-.36.53-.72.53-.36-.55-.72-.55-.36.48-.72.48-.36.02-.72.02-.36-.04-.72-.04-.36.05-.72.05-.36 0-.72 0-.36.02-.72.02-.36.16-.72.16-.36-.37-.72-.37-.36.34-.72.34-.36-.54-.72-.54-.36.1-.72.1-.36.32-.72.32-.36-.4-.72-.4-.36.5-.72.5-.36-.16-.72-.16-.36.15-.72.15-.36-.25-.72-.25-.36 0-.72 0-.36-.31-.72-.31-.36-.03-.72-.03-.36.65-.72.65-.36-.06-.72-.06-.36-.13-.72-.13-.36-.48-.72-.48-.36.53-.72.53-.36-.26-.72-.26-.36.29-.72.29-.36-.14-.72-.14-.36-.29-.72-.29-.36.2-.72.2-.36-.02-.72-.02-.36.26-.72.26-.36.04-.72.04-.36-.22-.72-.22-.36-.02-.72-.02-.36-.07-.72-.07-.36-.33-.72-.33-.36.22-.72.22-.36.1-.72.1-.36.32-.72.32-.36-.37-.72-.37-.36.03-.72.03-.36.32-.72.32-.36-.5-.72-.5-.36.47-.72.47-.36.11-.72.11-.36-.55-.72-.55-.36.23-.72.23-.36.15-.72.15-.36-.33-.7199-.33c-.36 0-.36.33-.72.33s-.36.1-.72.1-.3599.02-.7199.02-.36.04-.72.04-.3601-.52-.7201-.52-.36.15-.72.15-.36-.13-.72-.13-.3599-.01-.7199-.01-.3601-.04-.7201-.04-.36.21-.72.21-.36.36-.72.36-.3599-.6-.7199-.6-.3601.1-.7201.1-.36 0-.72 0-.36.46-.72.46-.3599-.05-.7199-.05-.3601-.35-.7201-.35-.36.1-.72.1-.36.15-.72.15-.3599-.11-.7199-.11-.3601-.18-.7201-.18-.36 0-.72 0-.36 0-.72 0-.3599.45-.7199.45-.3601-.39-.7201-.39-.36.12-.72.12-.36.18-.72.18-.3599-.21-.7199-.21-.36-.25-.72-.25-.3601.09-.7201.09-.36.43-.72.43-.36-.16-.72-.16-.3599.09-.7199.09-.3601-.01-.7201-.01-.36 0-.72 0-.36-.18-.72-.18-.3599.16-.7199.16-.3601-.18-.7201-.18-.36-.21-.72-.21-.36.33-.72.33-.3599-.05-.7199-.05-.3601-.21-.7201-.21-.36-.05-.72-.05-.36.27-.72.27-.3599-.41-.7199-.41-.3601.54-.7201.54-.36-.32-.72-.32-.36-.03-.72-.03-.3599.42-.7199.42-.3601-.01-.7201-.01-.36-.09-.72-.09-.36-.2-.72-.2-.3599-.12-.7199-.12-.36.35-.72.35-.3601-.35-.7201-.35-.36.48-.72.48-.36-.51-.72-.51-.3599.38-.7199.38-.3601-.1-.7201-.1-.36-.43-.72-.43-.36.29-.72.29-.3599-.15-.7199-.15-.3601.4-.7201.4-.36-.08-.72-.08-.36-.14-.73-.14-.3599.07-.7199.07-.3601.27-.7201.27-.36.02-.72.02-.36-.22-.72-.22-.3599-.14-.7199-.14-.36.33-.73.33-.3601-.19-.7301-.19-.36-.18-.73-.18-.36-.1-.72-.1-.36.16-.72.16-.3599 0-.7199 0-.3601.25-.7201.25-.36-.49-.72-.49-.36.07-.73.07-.3599-.07-.7299-.07-.36.53-.72.53-.3601-.35-.7201-.35-.36-.2-.73-.2-.36.61-.73.61-.36-.35-.73-.35-.3599.19-.7299.19-.3601-.23-.7301-.23-.36-.16-.73-.16-.36.36-.73.36-.36-.23-.73-.23-.37.37-.73.37-.3699-.59-.7299-.59-.37.17-.73.17-.3701.2-.7301.2" stroke="#000" stroke-linecap="round" stroke-linejoin="round" stroke-width="2.6"/><path d="m24.9498 133.55c0-.37-.33-.37-.33-.73s-.24-.37-.23-.73-.03-.36-.02-.73.34-.36.34-.73-.25-.36-.25-.73.3301-.36.3401-.72.0099-.36.0199-.73-.33-.37-.33-.73-.04-.37-.04-.73.4701-.36.4801-.72.0799-.36.0899-.73-.23-.37-.23-.73-.31-.37-.31-.74.14-.36.14-.73.21-.36.21-.73-.31-.37-.3-.74.29-.36.29-.73-.17-.37-.17-.73.11-.36.11-.73.1-.37.11-.73.07-.37.07-.73.13-.37.13-.74.05-.36.06-.73c.02-.29-.57-.54-.63-.82s-.17-.47-.3-.73c-.17-.32-.15-.33-.32-.65s-.17-.32-.34-.64-.1-.36-.27-.68.13-.48-.04-.8-.1399-.34-.3099-.66-.3601-.22-.5301-.54-.25-.28-.42-.6-.03-.39-.2-.72 0-.4-.17-.72-.18-.31-.34-.63 0-.41-.16-.73-.69-.05-.85-.37-.06-.38-.23-.7-.33-.24-.5-.56.3301-.58.1601-.9-.2601-.27-.4301-.59-.31-.25-.48-.57-.28-.26-.45-.58-.2199-.3-.3899-.62.05-.44-.12-.76-.21-.3-.38-.62.0299-.43-.1401-.75-.65-.07-.82-.39-.08-.37-.25-.69-.24-.29-.4-.61.38-.61.22-.94-.52-.14-.69-.46-.16-.33-.33-.66.05-.44-.12-.77c-.14-.26-.48-.43-.54-.72s.09-.59.11-.89c.02-.36.27-.34.29-.7s-.02-.36 0-.72-.52-.39-.5-.75.35-.34.38-.7-.37-.38-.35-.74.3-.34.32-.7.07-.36.09-.71.16-.35.18-.71-.33-.38-.3-.74.4601-.33.4801-.69-.1101-.37-.0801-.73-.34-.38-.32-.74.1301-.35.1501-.71.4199-.33.4399-.69.02-.36.04-.72-.4-.39-.38-.75.43-.33.45-.69.08-.36.1-.72-.27-.38-.24-.74-.13-.37-.11-.73.41-.33.43-.69.14-.35.16-.71-.1699-.37-.1399-.73-.28-.38-.26-.74.2699-.34.2999-.7.1801-.35.2101-.71-.1801-.37-.1601-.73.1301-.35.1601-.71-.0901-.37-.0601-.72.0301-.36.0501-.72.2199-.35.2399-.71-.27-.38-.25-.74-.24-.38-.22-.74.5901-.32.6101-.68-.2901-.38-.2701-.74-.02-.36 0-.72.44-.33.46-.69-.25-.38-.23-.74.35-.34.37-.7-.08-.37-.06-.73 0-.36.01-.72-.14-.37-.12-.73.05-.36.07-.71-.29-.38-.27-.74.53-.32.55-.68-.08-.36-.05-.72-.31-.38-.29-.74.1-.35.13-.71.03-.36.05-.72.21-.35.23-.71-.31-.38-.28-.74.47-.33.49-.69.05-.36.07-.72-.49-.39-.46-.75.24-.34.26-.7-.12-.37-.1-.73.19-.35.21-.71.0901-.35.1101-.71.1999-.35.2299-.7-.2599-.38-.2399-.73.1899-.35.2099-.71-.21-.37-.19-.73-.06-.36-.04-.72.58-.32.6-.68-.53-.4-.51-.76.47-.33.5-.69.14-.35.17-.71-.2-.38-.17-.74-.38-.39-.36-.75.2801-.34.3001-.7-.1901-.37-.1701-.73.62-.32.65-.68-.45-.39-.42-.75.27-.34.29-.7.27-.34.29-.7-.27-.38-.24-.74.12-.35.14-.72-.04-.37-.01-.73.14-.35.17-.71-.41-.39-.38-.75.12-.35.15-.71.48-.33.5-.69-.05-.37-.02-.73-.34-.38-.31-.75-.08-.37-.05-.73.21-.35.23-.71-.03-.36 0-.72-.15-.37-.13-.73.07-.36.1-.71.34-.34.37-.7.24-.35.26-.7-.21-.38-.19-.74.03-.36.06-.72-.3299-.38-.2999-.74.2499-.35.2699-.71.12-.35.14-.72-.2-.38-.17-.74.07-.36.09-.72.29-.34.32-.71-.2899-.38-.2699-.75.3899-.34.4099-.7.03-.36.05-.72-.19-.38-.17-.74-.0699-.37-.0399-.73.36-.34.38-.71-.2201-.38-.2001-.75-.25-.38-.22-.75c.02-.24.28-.47.35-.7s.03-.54.14-.75.4-.33.56-.51.31-.39.51-.53.49-.1.71-.2.45-.07.69-.12.43.05.68.05c.36 0 .36.04.72.04s.36-.02.72-.02.36-.59.72-.59.36.56.72.56.36-.29.72-.29.36-.09.72-.09.36.2.72.2.36-.06.72-.06.36-.17.72-.17.36-.08.72-.08.36.08.72.08.3601.21.7201.21.3599-.25.7199-.25.36.32.72.32.36-.16.72-.16.3601.23.7201.23.3599-.27.7199-.27.36-.03.72-.03.36-.28.72-.28.3601.34.7201.34.3599-.31.7199-.31.36.1.72.1.36.28.72.28.3601-.31.7201-.31.3599.54.7199.54.36.06.72.06.36-.62.72-.62.36.62.72.62.36-.1.72-.1.36-.42.72-.42.36.18.72.18.36.27.72.27.36-.35.72-.35.36.23.72.23.36.16.72.16.36-.62.72-.62.3601.3.7201.3.3599.19.7199.19.36-.4.72-.4.36.47.72.47.3601-.25.7201-.25.3599.32.7199.32.36-.27.72-.27.36-.35.72-.35.3601.02.7201.02.3599.18.7199.18.36.19.72.19.36.2.72.2.3601-.4.7201-.4h.7199c.36 0 .36.36.72.36s.36-.45.72-.45.36.32.72.32.36-.29.72-.29.36.13.72.13.36-.26.72-.26.36-.06.72-.06.36.61.72.61.36-.14.72-.14.36-.26.72-.26.36.17.72.17.3601.09.7201.09.3599-.07.7199-.07.36-.36.72-.36.36.6.72.6.3601-.38.7201-.38.3599.33.7199.33.36.07.72.07.36-.19.72-.19.3601-.25.7201-.25.3599.12.7199.12.36-.3.72-.3.36.07.72.07.3601.08.7201.08.3599.47.7199.47.36-.6.72-.6.36.52.72.52.36-.25.72-.25.36.11.72.11.36-.38.72-.38.36.35.72.35.36.24.72.24.36-.55.72-.55.36-.11.72-.11.36.51.72.51.36-.2.72-.2.3601.06.7201.06.3599-.01.7199-.01.36.18.72.18.36-.51.72-.51.3601.4.7201.4.3599-.13.7199-.13.36.28.73.28.36-.44.72-.44.36.39.72.39.36-.52.72-.52.36.6.72.6.36-.1.72-.1.36-.41.73-.41.3601.2.7301.2.3599-.11.7299-.11.36.22.72.22.36.23.73.23.36-.64.72-.64.3601.29.7201.29.3599.22.7199.22.36-.26.73-.26c.3702 0 .3602-.09.7302-.09s.36.14.72.14.36.25.72.25.36-.34.73-.34.36-.03.73-.03.36.45.73.45.36-.48.73-.48.36-.12.73-.12.36.54.73.54.36-.13.73-.13.36-.23.73-.23.37.32.73.32.37-.4.73-.4.37.09.73.09.37.36.73.36c.26 0 .53-.46.76-.42.25.03.44.38.66.45.24.07.52.04.72.15.22.11.58.06.77.2.2.15-.05.78.11.95.17.18.78.01.91.2.14.21.05.57.15.77.12.24.44.39.51.59.14.41-.07.52-.07.52" stroke="#000" stroke-linecap="round" stroke-linejoin="round" stroke-width="2.6"/><path d="m72.9696 170.38c0-.24.37-.71.37-.95s-.1799-.48-.1899-.72.0899-.49.0799-.73-.3199-.47-.3299-.71-.0301-.48-.0401-.72.26-.5.25-.74-.58-.43-.6-.67.12-.49.09-.73.04-.49.02-.73-.11-.47-.14-.71-.1699-.46-.1999-.7.1999-.51.1599-.75-.2-.46-.24-.69-.21-.45-.25-.69.4001-.56.3601-.79-.4101-.42-.4501-.65-.2699-.43-.3199-.67.17-.52.12-.76-.1301-.46-.1801-.7-.3-.42-.35-.66-.1499-.46-.2099-.69-.1301-.46-.1901-.69.3601-.59.3001-.82-.5801-.34-.6501-.57-.08-.48-.14-.71.0101-.5-.0599-.73-.2601-.42-.3301-.65-.0999-.47-.1699-.7-.31-.4-.39-.63-.0701-.48-.1501-.71-.12-.47-.2-.69-.36-.38-.44-.6-.15-.45-.24-.68.03-.53-.06-.75-.3399-.38-.4299-.6-.1801-.44-.2701-.67.0001-.52-.0999-.74-.0501-.51-.1501-.72-.0999-.48-.1999-.7-.29-.4-.4-.61-.51-.29-.62-.5-.2901-.39-.4001-.6.05-.57-.06-.78-.35-.36-.46-.57-.0899-.5-.2099-.71-.4101-.32-.5301-.53.1701-.65.0501-.86-.3101-.38-.4401-.58-.3099-.37-.4399-.58-.0501-.53-.1801-.74-.38-.33-.51-.54-.6-.18-.73-.39 0-.58-.13-.78-.48-.25-.62-.45.11-.66-.02-.86-.7999-.02-.9399-.22.0499-.63-.0901-.82-.3699-.33-.5099-.52-.0401-.57-.1901-.76-.72-.05-.86-.24-.25-.41-.4-.6-.0499-.58-.1999-.77-.7-.04-.85-.23.15-.76 0-.94-.59-.13-.75-.31-.22-.35-.38-.53c.34-.11.3299-.32.6899-.32h.72c.36 0 .3601-.04.7201-.04s.36.19.72.19.3599-.17.7199-.17h.72c.36 0 .36.43.72.43s.3601-.38.7201-.38.3599.12.7199.12.36.33.72.33.36-.29.72-.29.3601.22.7201.22.3599.18.7199.18.36-.38.72-.38.36.31.72.31.3601-.39.7201-.39.3599.18.7199.18.36-.39.71-.39.3601.57.7101.57.36-.41.71-.41.3599-.13.7099-.13.36.55.72.55.3601-.25.7201-.25.3599-.19.7199-.19.36-.05.72-.05.36.27.72.27.3601-.19.7201-.19.36.36.72.36.3599.09.7199.09.36-.07.72-.07.3601-.46.7101-.46.3599.21.7099.21.36.3.71.3.3601-.36.7101-.36.3599.14.7099.14.36-.01.71-.01.3601-.27.7101-.27.36.28.72.28.3599-.07.7199-.07.36.04.72.04.3601-.34.7201-.34.36.17.72.17.3599-.07.7199-.07.36.18.72.18.36.04.72.04.3601.31.7201.31.3599-.57.7199-.57.36.55.72.55.36-.47.72-.47.3601.37.7201.37.3599-.14.7199-.14.36.05.72.05.36-.14.72-.14h.7201c.36 0 .3599.22.7199.22s.36-.3.72-.3.36-.15.72-.15.3601.12.7201.12.36.18.72.18.3599.11.7199.11.36-.48.72-.48c.3604 0 .3604.55.7204.55s.36-.05.72-.05.36-.11.71-.11.36-.37.72-.37.36.02.72.02.36.28.72.28.36.31.72.31.36-.41.72-.41.36.34.72.34h.72c.36 0 .36-.19.72-.19s.36.04.72.04.36-.27.72-.27.36.21.72.21.36-.17.72-.17.36-.13.72-.13.36.44.72.44.36-.01.72-.01.36.02.73.02.36.1.73.1.3-.02.66.05c.16.18.48-.06.64.12s.31.37.47.55.12.53.27.71.34.34.49.53.44.26.59.45.45.26.6.45-.08.67.07.86.36.33.5.52.66.11.8.3.3.38.44.58-.07.64.07.84.19.45.33.65.44.28.58.48.33.36.47.56.34.35.47.56.36.35.48.55.24.42.37.62.03.55.15.75.27.4.39.61.09.5.21.71.48.29.59.5.17.46.28.67-.09.59.02.8.44.32.54.53.2.44.31.65.42.33.52.55-.03.55.07.76.55.28.65.5-.36.69-.26.91.51.3.61.52.23.43.32.65.13.47.22.69-.11.56-.02.78.66.26.75.49-.09.55-.01.77-.13.56-.05.78.65.28.72.51.05.49.13.72-.11.54-.04.77.52.34.59.57-.4.62-.33.85.73.29.8.52-.49.63-.43.87.67.32.73.55-.04.51.02.74.1.47.15.71.18.45.23.69.31.43.36.66-.34.56-.29.8.04.48.09.72-.07.5-.03.74.54.39.58.63-.35.54-.32.78.44.42.47.66.28.45.31.69 0 .49.02.73-.26.51-.23.75.42.44.44.68-.44.52-.42.76.06.47.08.71.05.48.07.72-.06.48-.05.72.68.45.69.69-.11.49-.1.73-.17.49-.16.73-.11.24-.11.49c-.34.11-.28.05-.64.05s-.36.03-.72.03-.36.51-.72.51-.36-.31-.72-.31-.36.14-.72.14-.36-.26-.72-.26-.36.29-.72.29-.36-.26-.72-.26-.36-.21-.72-.21-.36.12-.72.12-.36-.16-.72-.16-.36.33-.72.33-.36 0-.72 0-.36-.06-.72-.06-.36 0-.72 0-.36.35-.72.35-.36-.19-.72-.19-.36-.03-.71-.03-.36-.01-.71-.01-.36.19-.71.19-.36-.41-.71-.41-.36-.21-.72-.21-.36.63-.72.63-.36-.2-.72-.2-.36.06-.72.06-.36.11-.72.11-.36-.4-.72-.4-.36.37-.72.37-.36-.03-.72-.03-.36-.43-.72-.43-.36-.07-.71-.07-.36.17-.71.17-.36-.03-.71-.03-.36.3-.71.3-.36-.24-.71-.24-.36.14-.71.14-.36.04-.71.04-.36.12-.72.12-.36-.52-.72-.52-.36.58-.72.58-.36.07-.72.07-.36-.37-.72-.37-.36.33-.72.33-.36-.18-.72-.18-.36.17-.7204.17c-.36 0-.36-.04-.72-.04s-.3599.06-.7199.06-.36-.17-.72-.17-.3601-.21-.7201-.21-.36-.17-.72-.17-.3599.06-.7199.06-.36.42-.72.42-.3601-.19-.7201-.19-.36-.16-.72-.16-.3599.3-.7199.3-.36.12-.72.12-.3601-.16-.7201-.16-.36-.27-.72-.27-.36-.04-.72-.04-.3599.2-.7199.2-.3601-.34-.7201-.34-.36.51-.72.51-.36-.24-.72-.24-.3599-.13-.7099-.13-.3601-.03-.7201-.03-.36 0-.72 0-.36-.08-.72-.08-.3599-.06-.7199-.06-.3601.02-.7201.02-.36.27-.72.27-.36.37-.72.37-.3599-.38-.7199-.38-.3601-.02-.7201-.02-.36.42-.72.42-.36-.05-.72-.05-.3599-.5-.7199-.5-.3601.13-.7201.13-.36-.2-.72-.2-.36.44-.72.44-.3599-.33-.7299-.33-.36.16-.71.26c-.41.12-.4801.27-.8201.15z" fill="#fff"/><g stroke="#000"><path d="m72.9696 170.38c0-.24.37-.71.37-.95s-.1799-.48-.1899-.72.0899-.49.0799-.73-.3199-.47-.3299-.71-.0301-.48-.0401-.72.26-.5.25-.74-.58-.43-.6-.67.12-.49.09-.73.04-.49.02-.73-.11-.47-.14-.71-.1699-.46-.1999-.7.1999-.51.1599-.75-.2-.46-.24-.69-.21-.45-.25-.69.4001-.56.3601-.79-.4101-.42-.4501-.65-.2699-.43-.3199-.67.17-.52.12-.76-.1301-.46-.1801-.7-.3-.42-.35-.66-.1499-.46-.2099-.69-.1301-.46-.1901-.69.3601-.59.3001-.82-.5801-.34-.6501-.57-.08-.48-.14-.71.0101-.5-.0599-.73-.2601-.42-.3301-.65-.0999-.47-.1699-.7-.31-.4-.39-.63-.0701-.48-.1501-.71-.12-.47-.2-.69-.36-.38-.44-.6-.15-.45-.24-.68.03-.53-.06-.75-.3399-.38-.4299-.6-.1801-.44-.2701-.67.0001-.52-.0999-.74-.0501-.51-.1501-.72-.0999-.48-.1999-.7-.29-.4-.4-.61-.51-.29-.62-.5-.2901-.39-.4001-.6.05-.57-.06-.78-.35-.36-.46-.57-.0899-.5-.2099-.71-.4101-.32-.5301-.53.1701-.65.0501-.86-.3101-.38-.4401-.58-.3099-.37-.4399-.58-.0501-.53-.1801-.74-.38-.33-.51-.54-.6-.18-.73-.39 0-.58-.13-.78-.48-.25-.62-.45.11-.66-.02-.86-.7999-.02-.9399-.22.0499-.63-.0901-.82-.3699-.33-.5099-.52-.0401-.57-.1901-.76-.72-.05-.86-.24-.25-.41-.4-.6-.0499-.58-.1999-.77-.7-.04-.85-.23.15-.76 0-.94-.59-.13-.75-.31-.22-.35-.38-.53c.34-.11.3299-.32.6899-.32h.72c.36 0 .3601-.04.7201-.04s.36.19.72.19.3599-.17.7199-.17h.72c.36 0 .36.43.72.43s.3601-.38.7201-.38.3599.12.7199.12.36.33.72.33.36-.29.72-.29.3601.22.7201.22.3599.18.7199.18.36-.38.72-.38.36.31.72.31.3601-.39.7201-.39.3599.18.7199.18.36-.39.71-.39.3601.57.7101.57.36-.41.71-.41.3599-.13.7099-.13.36.55.72.55.3601-.25.7201-.25.3599-.19.7199-.19.36-.05.72-.05.36.27.72.27.3601-.19.7201-.19.36.36.72.36.3599.09.7199.09.36-.07.72-.07.3601-.46.7101-.46.3599.21.7099.21.36.3.71.3.3601-.36.7101-.36.3599.14.7099.14.36-.01.71-.01.3601-.27.7101-.27.36.28.72.28.3599-.07.7199-.07.36.04.72.04.3601-.34.7201-.34.36.17.72.17.3599-.07.7199-.07.36.18.72.18.36.04.72.04.3601.31.7201.31.3599-.57.7199-.57.36.55.72.55.36-.47.72-.47.3601.37.7201.37.3599-.14.7199-.14.36.05.72.05.36-.14.72-.14h.7201c.36 0 .3599.22.7199.22s.36-.3.72-.3.36-.15.72-.15.3601.12.7201.12.36.18.72.18.3599.11.7199.11.36-.48.72-.48c.3604 0 .3604.55.7204.55s.36-.05.72-.05.36-.11.71-.11.36-.37.72-.37.36.02.72.02.36.28.72.28.36.31.72.31.36-.41.72-.41.36.34.72.34h.72c.36 0 .36-.19.72-.19s.36.04.72.04.36-.27.72-.27.36.21.72.21.36-.17.72-.17.36-.13.72-.13.36.44.72.44.36-.01.72-.01.36.02.73.02.36.1.73.1.3-.02.66.05c.16.18.48-.06.64.12s.31.37.47.55.12.53.27.71.34.34.49.53.44.26.59.45.45.26.6.45-.08.67.07.86.36.33.5.52.66.11.8.3.3.38.44.58-.07.64.07.84.19.45.33.65.44.28.58.48.33.36.47.56.34.35.47.56.36.35.48.55.24.42.37.62.03.55.15.75.27.4.39.61.09.5.21.71.48.29.59.5.17.46.28.67-.09.59.02.8.44.32.54.53.2.44.31.65.42.33.52.55-.03.55.07.76.55.28.65.5-.36.69-.26.91.51.3.61.52.23.43.32.65.13.47.22.69-.11.56-.02.78.66.26.75.49-.09.55-.01.77-.13.56-.05.78.65.28.72.51.05.49.13.72-.11.54-.04.77.52.34.59.57-.4.62-.33.85.73.29.8.52-.49.63-.43.87.67.32.73.55-.04.51.02.74.1.47.15.71.18.45.23.69.31.43.36.66-.34.56-.29.8.04.48.09.72-.07.5-.03.74.54.39.58.63-.35.54-.32.78.44.42.47.66.28.45.31.69 0 .49.02.73-.26.51-.23.75.42.44.44.68-.44.52-.42.76.06.47.08.71.05.48.07.72-.06.48-.05.72.68.45.69.69-.11.49-.1.73-.17.49-.16.73-.11.24-.11.49c-.34.11-.28.05-.64.05s-.36.03-.72.03-.36.51-.72.51-.36-.31-.72-.31-.36.14-.72.14-.36-.26-.72-.26-.36.29-.72.29-.36-.26-.72-.26-.36-.21-.72-.21-.36.12-.72.12-.36-.16-.72-.16-.36.33-.72.33-.36 0-.72 0-.36-.06-.72-.06-.36 0-.72 0-.36.35-.72.35-.36-.19-.72-.19-.36-.03-.71-.03-.36-.01-.71-.01-.36.19-.71.19-.36-.41-.71-.41-.36-.21-.72-.21-.36.63-.72.63-.36-.2-.72-.2-.36.06-.72.06-.36.11-.72.11-.36-.4-.72-.4-.36.37-.72.37-.36-.03-.72-.03-.36-.43-.72-.43-.36-.07-.71-.07-.36.17-.71.17-.36-.03-.71-.03-.36.3-.71.3-.36-.24-.71-.24-.36.14-.71.14-.36.04-.71.04-.36.12-.72.12-.36-.52-.72-.52-.36.58-.72.58-.36.07-.72.07-.36-.37-.72-.37-.36.33-.72.33-.36-.18-.72-.18-.36.17-.7204.17c-.36 0-.36-.04-.72-.04s-.3599.06-.7199.06-.36-.17-.72-.17-.3601-.21-.7201-.21-.36-.17-.72-.17-.3599.06-.7199.06-.36.42-.72.42-.3601-.19-.7201-.19-.36-.16-.72-.16-.3599.3-.7199.3-.36.12-.72.12-.3601-.16-.7201-.16-.36-.27-.72-.27-.36-.04-.72-.04-.3599.2-.7199.2-.3601-.34-.7201-.34-.36.51-.72.51-.36-.24-.72-.24-.3599-.13-.7099-.13-.3601-.03-.7201-.03-.36 0-.72 0-.36-.08-.72-.08-.3599-.06-.7199-.06-.3601.02-.7201.02-.36.27-.72.27-.36.37-.72.37-.3599-.38-.7199-.38-.3601-.02-.7201-.02-.36.42-.72.42-.36-.05-.72-.05-.3599-.5-.7199-.5-.3601.13-.7201.13-.36-.2-.72-.2-.36.44-.72.44-.3599-.33-.7299-.33-.36.16-.71.26c-.41.12-.4801.27-.8201.15z" stroke-linecap="round" stroke-linejoin="round" stroke-width="2.6"/><path d="m84.3799 160.8c-.01-.24-.6401-.43-.6601-.67s.2901-.5.2601-.73.22-.51.18-.74-.64-.37-.68-.61-.1001-.45-.1501-.68.3801-.57.3301-.79 0-.49-.06-.72-.53-.34-.59-.57-.15-.44-.22-.67.2299-.57.1599-.8-.0599-.48-.1399-.7-.4101-.35-.4901-.58-.53-.3-.61-.52.4301-.67.3401-.89-.58-.27-.67-.49-.17-.44-.26-.65-.16-.44-.25-.65.1599-.57.0699-.79-.2099-.42-.2999-.64-.12-.46-.21-.68-.3-.4-.39-.62c-.1-.21-.17-.43-.26-.65s-.18-.42-.26-.65-.5101-.32-.5801-.54.2801-.59.2101-.81-.22-.42-.29-.64-.2201-.42-.2901-.65-.5699-.32-.6399-.55 0-.49-.08-.71-.22-.42-.29-.65 0-.49-.07-.72.26-.59.18-.81-.6201-.28-.7001-.49.1101-.56.0201-.77-.49-.29-.59-.5-.0801-.48-.2001-.69-.38-.31-.51-.51.1201-.66-.0199-.85-.38-.32-.53-.49-.18-.5-.35-.67-.73.1-.91-.05-.3701-.26-.5601-.4" stroke-linecap="round" stroke-linejoin="round" stroke-width="2.6"/><path d="m84.3799 160.8c-.01-.24-.6401-.43-.6601-.67s.2901-.5.2601-.73.22-.51.18-.74-.64-.37-.68-.61-.1001-.45-.1501-.68.3801-.57.3301-.79 0-.49-.06-.72-.53-.34-.59-.57-.15-.44-.22-.67.2299-.57.1599-.8-.0599-.48-.1399-.7-.4101-.35-.4901-.58-.53-.3-.61-.52.4301-.67.3401-.89-.58-.27-.67-.49-.17-.44-.26-.65-.16-.44-.25-.65.1599-.57.0699-.79-.2099-.42-.2999-.64-.12-.46-.21-.68-.3-.4-.39-.62c-.1-.21-.17-.43-.26-.65s-.18-.42-.26-.65-.5101-.32-.5801-.54.2801-.59.2101-.81-.22-.42-.29-.64-.2201-.42-.2901-.65-.5699-.32-.6399-.55 0-.49-.08-.71-.22-.42-.29-.65 0-.49-.07-.72.26-.59.18-.81-.6201-.28-.7001-.49.1101-.56.0201-.77-.49-.29-.59-.5-.0801-.48-.2001-.69-.38-.31-.51-.51.1201-.66-.0199-.85-.38-.32-.53-.49-.18-.5-.35-.67-.73.1-.91-.05-.3701-.26-.5601-.4" stroke-linecap="round" stroke-linejoin="round" stroke-width="2.45"/><path d="m84.3799 160.8c-.01-.24-.6401-.43-.6601-.67s.2901-.5.2601-.73.22-.51.18-.74-.64-.37-.68-.61-.1001-.45-.1501-.68.3801-.57.3301-.79 0-.49-.06-.72-.53-.34-.59-.57-.15-.44-.22-.67.2299-.57.1599-.8-.0599-.48-.1399-.7-.4101-.35-.4901-.58-.53-.3-.61-.52.4301-.67.3401-.89-.58-.27-.67-.49-.17-.44-.26-.65-.16-.44-.25-.65.1599-.57.0699-.79-.2099-.42-.2999-.64-.12-.46-.21-.68-.3-.4-.39-.62c-.1-.21-.17-.43-.26-.65s-.18-.42-.26-.65-.5101-.32-.5801-.54.2801-.59.2101-.81-.22-.42-.29-.64-.2201-.42-.2901-.65-.5699-.32-.6399-.55 0-.49-.08-.71-.22-.42-.29-.65 0-.49-.07-.72.26-.59.18-.81-.6201-.28-.7001-.49.1101-.56.0201-.77-.49-.29-.59-.5-.0801-.48-.2001-.69-.38-.31-.51-.51.1201-.66-.0199-.85-.38-.32-.53-.49-.18-.5-.35-.67-.73.1-.91-.05-.3701-.26-.5601-.4" stroke-linecap="round" stroke-linejoin="round" stroke-width="2.45"/><path d="m91.2201 160.81c-.02-.24.06-.49.04-.72s-.62-.42-.65-.65.3501-.52.3201-.76.0599-.49.0199-.73-.2399-.45-.2799-.69.17-.51.13-.75-.4401-.41-.4801-.64-.14-.46-.19-.69.13-.52.08-.75-.03-.49-.09-.72-.55-.34-.62-.57.22-.57.15-.79-.47-.34-.55-.56.2-.58.11-.8-.0599-.5-.1599-.72-.64-.23-.74-.45-.1801-.44-.2901-.65-.3599-.33-.4799-.54-.1-.48-.23-.69-.3201-.35-.4601-.55 0-.48-.15-.68c.16-.31.03-.44.28-.69s.23-.16.38-.48c-.2-.15.0001-.29-.1799-.45s-.3901-.27-.5501-.45-.1-.51-.24-.7-.43-.26-.56-.47-.6599-.19-.7699-.4.3099-.68.2099-.9-.37-.36-.45-.58-.49-.33-.58-.55-.07-.49-.15-.71.11-.54.03-.77-.2499-.42-.3299-.64-.1201-.46-.2101-.69.13-.57.04-.79-.27-.42-.37-.63-.32-.39-.43-.6-.2699-.41-.3999-.61-.1601-.49-.3001-.68-.37-.34-.53-.51-.43-.25-.61-.41-.2-.53-.4-.67" stroke-linecap="round" stroke-linejoin="round" stroke-width="2.6"/><path d="m91.2201 160.81c-.02-.24.06-.49.04-.72s-.62-.42-.65-.65.3501-.52.3201-.76.0599-.49.0199-.73-.2399-.45-.2799-.69.17-.51.13-.75-.4401-.41-.4801-.64-.14-.46-.19-.69.13-.52.08-.75-.03-.49-.09-.72-.55-.34-.62-.57.22-.57.15-.79-.47-.34-.55-.56.2-.58.11-.8-.0599-.5-.1599-.72-.64-.23-.74-.45-.1801-.44-.2901-.65-.3599-.33-.4799-.54-.1-.48-.23-.69-.3201-.35-.4601-.55 0-.48-.15-.68c.16-.31.03-.44.28-.69s.23-.16.38-.48c-.2-.15.0001-.29-.1799-.45s-.3901-.27-.5501-.45-.1-.51-.24-.7-.43-.26-.56-.47-.6599-.19-.7699-.4.3099-.68.2099-.9-.37-.36-.45-.58-.49-.33-.58-.55-.07-.49-.15-.71.11-.54.03-.77-.2499-.42-.3299-.64-.1201-.46-.2101-.69.13-.57.04-.79-.27-.42-.37-.63-.32-.39-.43-.6-.2699-.41-.3999-.61-.1601-.49-.3001-.68-.37-.34-.53-.51-.43-.25-.61-.41-.2-.53-.4-.67" stroke-linecap="round" stroke-linejoin="round" stroke-width="2.45"/><path d="m91.2201 160.81c-.02-.24.06-.49.04-.72s-.62-.42-.65-.65.3501-.52.3201-.76.0599-.49.0199-.73-.2399-.45-.2799-.69.17-.51.13-.75-.4401-.41-.4801-.64-.14-.46-.19-.69.13-.52.08-.75-.03-.49-.09-.72-.55-.34-.62-.57.22-.57.15-.79-.47-.34-.55-.56.2-.58.11-.8-.0599-.5-.1599-.72-.64-.23-.74-.45-.1801-.44-.2901-.65-.3599-.33-.4799-.54-.1-.48-.23-.69-.3201-.35-.4601-.55 0-.48-.15-.68c.16-.31.03-.44.28-.69s.23-.16.38-.48c-.2-.15.0001-.29-.1799-.45s-.3901-.27-.5501-.45-.1-.51-.24-.7-.43-.26-.56-.47-.6599-.19-.7699-.4.3099-.68.2099-.9-.37-.36-.45-.58-.49-.33-.58-.55-.07-.49-.15-.71.11-.54.03-.77-.2499-.42-.3299-.64-.1201-.46-.2101-.69.13-.57.04-.79-.27-.42-.37-.63-.32-.39-.43-.6-.2699-.41-.3999-.61-.1601-.49-.3001-.68-.37-.34-.53-.51-.43-.25-.61-.41-.2-.53-.4-.67" stroke-linecap="round" stroke-linejoin="round" stroke-width="2.45"/><path d="m98.2299 160.82c-.07-.23-.15-.46-.21-.69s-.15-.46-.21-.69-.01-.5-.08-.73.0199-.51-.0401-.74-.5599-.34-.6299-.58.31-.58.25-.82-.56-.35-.63-.58 0-.5-.07-.73 0-.5-.07-.73.06-.52 0-.75-.69-.31-.76-.54-.1-.47-.17-.71.02-.51-.05-.74-.09-.48-.16-.71-.02-.5-.09-.73.08-.53 0-.76-.2801-.42-.3601-.65.0101-.51-.0599-.74-.16-.46-.24-.69-.58-.32-.66-.55-.23-.43-.31-.66-.1-.48-.18-.71 0-.51-.09-.74.18-.59.09-.81-.29-.41-.38-.64-.15-.47-.24-.69-.3501-.38-.4401-.61-.2899-.4-.3899-.63-.28-.41-.38-.63-.41-.34-.52-.56-.0801-.5-.1901-.71-.3199-.38-.4299-.59.27-.68.15-.9-.2301-.43-.3501-.64-.7199-.15-.8399-.36.3199-.75.1999-.96-.5399-.24-.6699-.45-.1901-.45-.3301-.65-.1199-.5-.2599-.71-.49-.26-.63-.45-.28-.4-.42-.6" stroke-linecap="round" stroke-linejoin="round" stroke-width="2.6"/><path d="m98.2299 160.82c-.07-.23-.15-.46-.21-.69s-.15-.46-.21-.69-.01-.5-.08-.73.0199-.51-.0401-.74-.5599-.34-.6299-.58.31-.58.25-.82-.56-.35-.63-.58 0-.5-.07-.73 0-.5-.07-.73.06-.52 0-.75-.69-.31-.76-.54-.1-.47-.17-.71.02-.51-.05-.74-.09-.48-.16-.71-.02-.5-.09-.73.08-.53 0-.76-.2801-.42-.3601-.65.0101-.51-.0599-.74-.16-.46-.24-.69-.58-.32-.66-.55-.23-.43-.31-.66-.1-.48-.18-.71 0-.51-.09-.74.18-.59.09-.81-.29-.41-.38-.64-.15-.47-.24-.69-.3501-.38-.4401-.61-.2899-.4-.3899-.63-.28-.41-.38-.63-.41-.34-.52-.56-.0801-.5-.1901-.71-.3199-.38-.4299-.59.27-.68.15-.9-.2301-.43-.3501-.64-.7199-.15-.8399-.36.3199-.75.1999-.96-.5399-.24-.6699-.45-.1901-.45-.3301-.65-.1199-.5-.2599-.71-.49-.26-.63-.45-.28-.4-.42-.6" stroke-linecap="round" stroke-linejoin="round" stroke-width="2.45"/><path d="m98.2299 160.82c-.07-.23-.15-.46-.21-.69s-.15-.46-.21-.69-.01-.5-.08-.73.0199-.51-.0401-.74-.5599-.34-.6299-.58.31-.58.25-.82-.56-.35-.63-.58 0-.5-.07-.73 0-.5-.07-.73.06-.52 0-.75-.69-.31-.76-.54-.1-.47-.17-.71.02-.51-.05-.74-.09-.48-.16-.71-.02-.5-.09-.73.08-.53 0-.76-.2801-.42-.3601-.65.0101-.51-.0599-.74-.16-.46-.24-.69-.58-.32-.66-.55-.23-.43-.31-.66-.1-.48-.18-.71 0-.51-.09-.74.18-.59.09-.81-.29-.41-.38-.64-.15-.47-.24-.69-.3501-.38-.4401-.61-.2899-.4-.3899-.63-.28-.41-.38-.63-.41-.34-.52-.56-.0801-.5-.1901-.71-.3199-.38-.4299-.59.27-.68.15-.9-.2301-.43-.3501-.64-.7199-.15-.8399-.36.3199-.75.1999-.96-.5399-.24-.6699-.45-.1901-.45-.3301-.65-.1199-.5-.2599-.71-.49-.26-.63-.45-.28-.4-.42-.6" stroke-linecap="round" stroke-linejoin="round" stroke-width="2.45"/><path d="m105.12 160.89c-.07-.23.27-.58.21-.8s-.32-.4-.38-.63.08-.51.02-.74-.49-.36-.55-.58-.25-.42-.31-.65.11-.52.05-.75.27-.56.21-.79-.52-.36-.57-.59.26-.55.2-.78-.14-.45-.2-.68-.09-.47-.15-.7-.64-.33-.69-.56-.11-.46-.17-.69-.02-.48-.08-.71-.19-.44-.25-.67.16-.53.1-.76.11-.52.05-.75-.25-.43-.31-.66-.51-.35-.58-.58.12-.53.05-.76-.47-.35-.54-.58-.03-.49-.1-.71.27-.59.19-.81-.65-.28-.73-.51.36-.63.28-.86-.39-.37-.47-.59-.31-.39-.4001-.61c-.09-.22-.29-.39-.39-.61s-.1901-.43-.2801-.65-.28-.39-.38-.6-.13-.46-.23-.67.0001-.53-.1099-.74.07-.58-.05-.79-.45-.3-.57-.5-.59-.2-.72-.4.26-.72.13-.92-.27-.4-.41-.59-.56-.19-.7-.38-.26-.4-.41-.58.02-.63-.14-.81-.4-.29-.56-.47-.61-.08-.78-.26" stroke-linecap="round" stroke-linejoin="round" stroke-width="2.6"/><path d="m105.12 160.89c-.07-.23.27-.58.21-.8s-.32-.4-.38-.63.08-.51.02-.74-.49-.36-.55-.58-.25-.42-.31-.65.11-.52.05-.75.27-.56.21-.79-.52-.36-.57-.59.26-.55.2-.78-.14-.45-.2-.68-.09-.47-.15-.7-.64-.33-.69-.56-.11-.46-.17-.69-.02-.48-.08-.71-.19-.44-.25-.67.16-.53.1-.76.11-.52.05-.75-.25-.43-.31-.66-.51-.35-.58-.58.12-.53.05-.76-.47-.35-.54-.58-.03-.49-.1-.71.27-.59.19-.81-.65-.28-.73-.51.36-.63.28-.86-.39-.37-.47-.59-.31-.39-.4001-.61c-.09-.22-.29-.39-.39-.61s-.1901-.43-.2801-.65-.28-.39-.38-.6-.13-.46-.23-.67.0001-.53-.1099-.74.07-.58-.05-.79-.45-.3-.57-.5-.59-.2-.72-.4.26-.72.13-.92-.27-.4-.41-.59-.56-.19-.7-.38-.26-.4-.41-.58.02-.63-.14-.81-.4-.29-.56-.47-.61-.08-.78-.26" stroke-linecap="round" stroke-linejoin="round" stroke-width="2.45"/><path d="m105.12 160.89c-.07-.23.27-.58.21-.8s-.32-.4-.38-.63.08-.51.02-.74-.49-.36-.55-.58-.25-.42-.31-.65.11-.52.05-.75.27-.56.21-.79-.52-.36-.57-.59.26-.55.2-.78-.14-.45-.2-.68-.09-.47-.15-.7-.64-.33-.69-.56-.11-.46-.17-.69-.02-.48-.08-.71-.19-.44-.25-.67.16-.53.1-.76.11-.52.05-.75-.25-.43-.31-.66-.51-.35-.58-.58.12-.53.05-.76-.47-.35-.54-.58-.03-.49-.1-.71.27-.59.19-.81-.65-.28-.73-.51.36-.63.28-.86-.39-.37-.47-.59-.31-.39-.4001-.61c-.09-.22-.29-.39-.39-.61s-.1901-.43-.2801-.65-.28-.39-.38-.6-.13-.46-.23-.67.0001-.53-.1099-.74.07-.58-.05-.79-.45-.3-.57-.5-.59-.2-.72-.4.26-.72.13-.92-.27-.4-.41-.59-.56-.19-.7-.38-.26-.4-.41-.58.02-.63-.14-.81-.4-.29-.56-.47-.61-.08-.78-.26" stroke-linecap="round" stroke-linejoin="round" stroke-width="2.45"/><path d="m112.41 160.87c-.05-.24 0-.49-.06-.72s.03-.5-.02-.73-.3-.43-.35-.66.45-.59.4-.82-.1-.47-.15-.71-.21-.45-.26-.68-.14-.46-.2-.69-.17-.45-.22-.69-.3-.42-.35-.65.14-.53.08-.77-.39-.39-.45-.63-.37-.4-.43-.63-.06-.48-.13-.71.18-.55.12-.78-.53-.34-.6-.57.11-.53.03-.76-.21-.44-.28-.67-.28-.41-.36-.64-.09-.48-.16-.7-.07-.48-.15-.71 0-.51-.08-.74.01-.52-.07-.74-.22-.43-.31-.66-.41-.35-.5-.58-.1-.48-.19-.7-.32-.38-.42-.6.12-.58.02-.8-.38-.36-.48-.57-.25-.41-.35-.63-.5-.29-.6-.5.15-.61.04-.82-.13-.47-.25-.68-.54-.25-.65-.46-.11-.48-.23-.69.11-.62-.02-.82-.8-.08-.93-.28-.04-.53-.17-.74-.33-.35-.47-.55-.18-.45-.32-.65-.16-.47-.3-.66-.47-.25-.61-.44-.19-.45-.34-.64" stroke-linecap="round" stroke-linejoin="round" stroke-width="2.6"/><path d="m112.41 160.87c-.05-.24 0-.49-.06-.72s.03-.5-.02-.73-.3-.43-.35-.66.45-.59.4-.82-.1-.47-.15-.71-.21-.45-.26-.68-.14-.46-.2-.69-.17-.45-.22-.69-.3-.42-.35-.65.14-.53.08-.77-.39-.39-.45-.63-.37-.4-.43-.63-.06-.48-.13-.71.18-.55.12-.78-.53-.34-.6-.57.11-.53.03-.76-.21-.44-.28-.67-.28-.41-.36-.64-.09-.48-.16-.7-.07-.48-.15-.71 0-.51-.08-.74.01-.52-.07-.74-.22-.43-.31-.66-.41-.35-.5-.58-.1-.48-.19-.7-.32-.38-.42-.6.12-.58.02-.8-.38-.36-.48-.57-.25-.41-.35-.63-.5-.29-.6-.5.15-.61.04-.82-.13-.47-.25-.68-.54-.25-.65-.46-.11-.48-.23-.69.11-.62-.02-.82-.8-.08-.93-.28-.04-.53-.17-.74-.33-.35-.47-.55-.18-.45-.32-.65-.16-.47-.3-.66-.47-.25-.61-.44-.19-.45-.34-.64" stroke-linecap="round" stroke-linejoin="round" stroke-width="2.45"/><path d="m112.41 160.87c-.05-.24 0-.49-.06-.72s.03-.5-.02-.73-.3-.43-.35-.66.45-.59.4-.82-.1-.47-.15-.71-.21-.45-.26-.68-.14-.46-.2-.69-.17-.45-.22-.69-.3-.42-.35-.65.14-.53.08-.77-.39-.39-.45-.63-.37-.4-.43-.63-.06-.48-.13-.71.18-.55.12-.78-.53-.34-.6-.57.11-.53.03-.76-.21-.44-.28-.67-.28-.41-.36-.64-.09-.48-.16-.7-.07-.48-.15-.71 0-.51-.08-.74.01-.52-.07-.74-.22-.43-.31-.66-.41-.35-.5-.58-.1-.48-.19-.7-.32-.38-.42-.6.12-.58.02-.8-.38-.36-.48-.57-.25-.41-.35-.63-.5-.29-.6-.5.15-.61.04-.82-.13-.47-.25-.68-.54-.25-.65-.46-.11-.48-.23-.69.11-.62-.02-.82-.8-.08-.93-.28-.04-.53-.17-.74-.33-.35-.47-.55-.18-.45-.32-.65-.16-.47-.3-.66-.47-.25-.61-.44-.19-.45-.34-.64" stroke-linecap="round" stroke-linejoin="round" stroke-width="2.45"/><path d="m120.24 160.81c0-.24.04-.48.03-.72s-.22-.46-.24-.7.17-.5.14-.73-.4-.43-.43-.67.13-.5.1-.73 0-.49-.03-.72-.04-.48-.09-.71-.59-.36-.64-.59.19-.53.13-.76-.3-.41-.36-.64-.11-.46-.17-.69.11-.53.04-.75-.37-.38-.44-.6-.07-.47-.15-.7-.27-.4-.36-.63-.17-.44-.25-.66-.14-.45-.23-.67-.09-.47-.18-.69-.13-.46-.22-.68.09-.56 0-.78-.2-.43-.3-.65-.34-.37-.44-.58-.02-.52-.12-.73-.37-.35-.47-.56-.21-.42-.32-.64-.06-.5-.17-.72-.76-.14-.87-.35.15-.61.04-.82-.53-.26-.64-.46-.11-.48-.23-.69-.24-.41-.35-.62-.22-.42-.33-.63 0-.55-.11-.76-.63-.2-.74-.4-.19-.44-.3-.65.1-.6-.02-.81-.38-.33-.5-.54-.33-.36-.44-.57-.22-.42-.33-.63.04-.56-.08-.77-.47-.29-.58-.5-.33-.36-.44-.57 0-.54-.1-.75" stroke-linecap="round" stroke-linejoin="round" stroke-width="2.6"/><path d="m120.24 160.81c0-.24.04-.48.03-.72s-.22-.46-.24-.7.17-.5.14-.73-.4-.43-.43-.67.13-.5.1-.73 0-.49-.03-.72-.04-.48-.09-.71-.59-.36-.64-.59.19-.53.13-.76-.3-.41-.36-.64-.11-.46-.17-.69.11-.53.04-.75-.37-.38-.44-.6-.07-.47-.15-.7-.27-.4-.36-.63-.17-.44-.25-.66-.14-.45-.23-.67-.09-.47-.18-.69-.13-.46-.22-.68.09-.56 0-.78-.2-.43-.3-.65-.34-.37-.44-.58-.02-.52-.12-.73-.37-.35-.47-.56-.21-.42-.32-.64-.06-.5-.17-.72-.76-.14-.87-.35.15-.61.04-.82-.53-.26-.64-.46-.11-.48-.23-.69-.24-.41-.35-.62-.22-.42-.33-.63 0-.55-.11-.76-.63-.2-.74-.4-.19-.44-.3-.65.1-.6-.02-.81-.38-.33-.5-.54-.33-.36-.44-.57-.22-.42-.33-.63.04-.56-.08-.77-.47-.29-.58-.5-.33-.36-.44-.57 0-.54-.1-.75" stroke-linecap="round" stroke-linejoin="round" stroke-width="2.45"/><path d="m120.24 160.81c0-.24.04-.48.03-.72s-.22-.46-.24-.7.17-.5.14-.73-.4-.43-.43-.67.13-.5.1-.73 0-.49-.03-.72-.04-.48-.09-.71-.59-.36-.64-.59.19-.53.13-.76-.3-.41-.36-.64-.11-.46-.17-.69.11-.53.04-.75-.37-.38-.44-.6-.07-.47-.15-.7-.27-.4-.36-.63-.17-.44-.25-.66-.14-.45-.23-.67-.09-.47-.18-.69-.13-.46-.22-.68.09-.56 0-.78-.2-.43-.3-.65-.34-.37-.44-.58-.02-.52-.12-.73-.37-.35-.47-.56-.21-.42-.32-.64-.06-.5-.17-.72-.76-.14-.87-.35.15-.61.04-.82-.53-.26-.64-.46-.11-.48-.23-.69-.24-.41-.35-.62-.22-.42-.33-.63 0-.55-.11-.76-.63-.2-.74-.4-.19-.44-.3-.65.1-.6-.02-.81-.38-.33-.5-.54-.33-.36-.44-.57-.22-.42-.33-.63.04-.56-.08-.77-.47-.29-.58-.5-.33-.36-.44-.57 0-.54-.1-.75" stroke-linecap="round" stroke-linejoin="round" stroke-width="2.45"/><path d="m121.16 126.72c-.36 0-.36-.18-.72-.18s-.36-.05-.72-.05-.36.19-.72.19-.36.1-.72.1-.36-.04-.72-.04-.36-.17-.72-.17-.36.29-.72.29-.36-.09-.72-.09-.36.07-.72.07-.36-.16-.72-.16-.36-.14-.72-.14-.36.34-.72.34-.36-.14-.72-.14-.36.24-.72.24-.36-.43-.72-.43-.36 0-.72 0-.36.09-.72.09-.36.09-.72.09-.36-.05-.72-.05-.36.23-.72.23-.36-.43-.72-.43-.36.02-.72.02-.36.13-.72.13-.36.22-.72.22-.36 0-.72 0-.36.12-.72.12-.36-.47-.72-.47-.36.3-.72.3-.36.09-.72.09c-.3602 0-.3602-.32-.7202-.32s-.3601.21-.7201.21-.3599.26-.7199.26-.36.03-.72.03-.36-.37-.72-.37-.3601.17-.7201.17-.36-.03-.72-.03-.3599.14-.7199.14-.36-.48-.72-.48-.3601.41-.7201.41-.36-.11-.72-.11-.3599-.19-.7199-.19-.36-.03-.72-.03-.3601-.04-.7201-.04-.36.17-.72.17-.3599.23-.7199.23-.36.09-.72.09-.3601-.38-.7201-.38-.36.05-.72.05-.3599.27-.7199.27-.36-.48-.72-.48-.3601.48-.7201.48-.36.06-.72.06-.3599-.57-.7199-.57-.36.2-.72.2-.36.47-.72.47-.3601-.67-.7201-.67-.3599.16-.7199.16-.36-.06-.72-.06-.36.18-.72.18-.3601-.3-.7201-.3-.36.16-.72.16-.3599.23-.7199.23-.36-.34-.72-.34-.3601-.01-.7201-.01-.36.02-.72.02-.3599.14-.7199.14-.36-.06-.72-.06-.3601.25-.7201.25-.36.02-.73.02-.3599.09-.7199.09-.36-.31-.72-.31-.36.3-.72.3-.3601.12-.7201.12-.3599-.21-.7199-.21-.36-.1-.73-.1-.36.32-.73.32-.3601-.55-.7201-.55-.36.45-.72.45-.3599-.06-.7199-.06-.36-.22-.72-.22-.36.23-.72.23-.3601-.48-.7201-.48-.3599.18-.7199.18-.36.37-.73.37-.36-.17-.72-.17-.3601.02-.7201.02-.36-.05-.72-.05-.3599 0-.7299 0-.36-.35-.73-.35-.36.27-.73.27-.36-.2-.73-.2-.3601.51-.7301.51-.36-.1-.73-.1-.3599-.46-.7299-.46-.36.31-.73.31-.37-.02-.73-.02-.37-.23-.73-.23-.3701-.01-.7301-.01" stroke-linecap="round" stroke-linejoin="round" stroke-width="2.6"/></g><path d="m23.0199 9.66h.73c.36 0 .36-.28.73-.28s.3699-.14999.7299-.14999.37.31.73.31.3701-.26001.7301-.26001.37-.01001.73-.01001.37.21002.74.21002.37.19.73.19.37-.23001.73-.23001.3699.01999.7299.01999.37.36002.74.36002.3701-.14002.7401-.14002.37-.38998.74-.38998.37.5.74.5c.22 0 .54-.05.74-.12s.1599-.58001.3099-.73001.29-.25999.37-.45999-.14-.37-.14-.59c0-.34.62-.34002.62-.68002s-.35-.33999-.35-.67999-.02-.33999-.02-.67999c0-.26-.1099-.47-.1599-.71s-.06-.48001-.16-.70001-.0201-.55001-.1601-.76001-.46-.27-.64-.44-.0899-.70998-.2999-.84998-.69.19-.92.09-.4001-.34001-.6501-.39001-.49-.26999-.75-.26999c-.37 0-.3699.42999-.7299.42999s-.37.12-.73.12-.37-.57999-.73-.57999-.37.5-.73.5-.37-.31-.73-.31-.3701-.22-.7301-.22-.37.28998-.74.28998-.37-.34998-.74-.34998c-.26 0-.5499.11999-.7999.16999s-.41.44-.64.54-.29.43001-.5.57001-.6301-.02-.8101.16-.3999.33999-.5399.54999-.43.37999-.53.60999.08.58001.03.83001.1499.5.1499.75c0 .34001-.4099.34-.4099.68s.12.33999.12.67999.3999.34002.3999.68002c0 .22-.18.38999-.1.57999s.22.30999.37.45999.1101.65001.3101.73001.52 0 .74 0z" fill="#fff"/><path d="m23.0199 9.66h.73c.36 0 .36-.28.73-.28s.3699-.14999.7299-.14999.37.31.73.31.3701-.26001.7301-.26001.37-.01001.73-.01001.37.21002.74.21002.37.19.73.19.37-.23001.73-.23001.3699.01999.7299.01999.37.36002.74.36002.3701-.14002.7401-.14002.37-.38998.74-.38998.37.5.74.5c.22 0 .54-.05.74-.12s.1599-.58001.3099-.73001.29-.25999.37-.45999-.14-.37-.14-.59c0-.34.62-.34002.62-.68002s-.35-.33999-.35-.67999-.02-.33999-.02-.67999c0-.26-.1099-.47-.1599-.71s-.06-.48001-.16-.70001-.0201-.55001-.1601-.76001-.46-.27-.64-.44-.0899-.70998-.2999-.84998-.69.19-.92.09-.4001-.34001-.6501-.39001-.49-.26999-.75-.26999c-.37 0-.3699.42999-.7299.42999s-.37.12-.73.12-.37-.57999-.73-.57999-.37.5-.73.5-.37-.31-.73-.31-.3701-.22-.7301-.22-.37.28998-.74.28998-.37-.34998-.74-.34998c-.26 0-.5499.11999-.7999.16999s-.41.44-.64.54-.29.43001-.5.57001-.6301-.02-.8101.16-.3999.33999-.5399.54999-.43.37999-.53.60999.08.58001.03.83001.1499.5.1499.75c0 .34-.4099.34-.4099.68s.12.33999.12.67999.3999.34002.3999.68002c0 .22-.18.38999-.1.57999s.22.30999.37.45999.1101.65001.3101.73001.52 0 .74 0z" stroke="#000" stroke-linecap="round" stroke-linejoin="round" stroke-width="2.6"/><path d="m27.7197 99.51c.23.29.0501.44.2801.73s.2299.3.4599.59.25.28.49.57.1201.38.3601.68.25.34.59.51c.31.16.3599-.18.7099-.18s.3501-.1.6901-.1.35-.04.7-.04.3499.09.6999.09.3501.52.7001.52.3499-.46.6999-.46" stroke="#000" stroke-linecap="round" stroke-linejoin="round" stroke-width="2.45"/><path d="m38.6797 99.84c.23.29.74-.11.97.18s.05.44.28.73-.0801.54.1599.84.26.27.49.57.21.53.55.7c.31.16.5-.51.85-.51s.3501.18.6901.18.3499.28.6999.28.35-.5.7-.5.3501.51.7001.51.3499-.6.6999-.6" stroke="#000" stroke-linecap="round" stroke-linejoin="round" stroke-width="2.45"/><path d="m50.3301 99.63c.23.29.1101.39.3401.68s.1999.32.4299.61.62-.02.85.28-.05.52.18.82.31.14.64.31c.31.16.23.04.58.04s.3501.2.6901.2.3499-.08.6999-.08.35.39.7.39.35-.63.7-.63.35.1.7.1" stroke="#000" stroke-linecap="round" stroke-linejoin="round" stroke-width="2.45"/><path d="m61.6997 99.62c.23.29.1301.37.3601.66s.23.3.46.59.0999.4.3399.69.5601.03.7901.33.19.2.53.36c.31.16.1999.12.5499.12s.3501.5.6901.5.35.01.7.01.3499-.29.6999-.29.3501-.11.7001-.11.3499-.06.6999-.06" stroke="#000" stroke-linecap="round" stroke-linejoin="round" stroke-width="2.45"/><path d="m73.25 99.48c.23.29-.15.6.08.89s.3799.18.6099.47.2801.25.5201.54.29.25.52.54.09.45.43.61c.31.16.34.16.69.16s.35-.32.69-.32.35.27.7.27.3499-.42.6999-.42.3501.51.7001.51.35-.28.7-.28" stroke="#000" stroke-linecap="round" stroke-linejoin="round" stroke-width="2.45"/><path d="m84.4399 99.64c.23.29.02.46.25.75s.2401.28.4801.58.18.33.42.63.4899.09.7299.38.2802.14.6102.31c.31.16.2099.53.5599.53s.3501-.47.6901-.47.3499.09.6999.09.35.11.7.11.35-.33.7-.33.35.15.7.15" stroke="#000" stroke-linecap="round" stroke-linejoin="round" stroke-width="2.45"/><path d="m96.0801 99.43c.23.29-.0199.5.2101.79s-.0301.5.2099.79.63-.03.87.26-.16.61.07.91.5101-.03.8501.14c.31.16.2299-.09.5699-.09s.3501.09.6901.09.3499.29.6998.29c.35 0 .35-.33.7-.33s.35.59.7.59.35-.17.7-.17" stroke="#000" stroke-linecap="round" stroke-linejoin="round" stroke-width="2.45"/><path d="m107.05 99.75c.23.29.61-.01.84.28s.16.35.39.65.19.33.42.62.17.35.4.64.24.16.58.33c.31.16.2 0 .55 0s.35.44.69.44.35.04.7.04.35.03.7.03.35-.33.7-.33.35.46.7.46" stroke="#000" stroke-linecap="round" stroke-linejoin="round" stroke-width="2.45"/><path d="m34.6299 106.58c.23.29 0 .47.24.76s.3399.21.5699.5.42.15.65.44.0601.43.3001.73.27.22.6.39c.31.16.27-.16.62-.16s.35.15.69.15.35.23.7.23.3499.11.6999.11.3501.02.7001.02.35-.54.7-.54" stroke="#000" stroke-linecap="round" stroke-linejoin="round" stroke-width="2.45"/><path d="m45.73 106.81c.23.29.5.07.73.36s.41.15.65.44.0899.41.3299.7.0001.49.2301.78.39.09.72.26c.31.16.25.21.59.21s.35-.27.69-.27.35.1.7.1.3499.45.6999.45.3501-.39.7001-.39.35-.08.7-.08" stroke="#000" stroke-linecap="round" stroke-linejoin="round" stroke-width="2.45"/><path d="m57.23 106.7c.23.29.53.05.76.34s-.19.64.04.93.4299.14.6599.43.1601.36.3901.65.2799.26.6099.42.3201.23.6801.23.36.08.72.08.3601.07.7201.07h.7199c.36 0 .36-.53.71-.53s.36-.06.71-.06.36.46.72.46.36-.4.72-.4.36.03.72.03.36.01.72.01.36.02.72.02h.72c.36 0 .36.24.72.24s.36-.07.72-.07.3601-.09.7201-.09.3599-.16.7199-.16.36-.04.72-.04.36.29.72.29.3601.32.7201.32.3599-.1.7199-.1.36-.05.72-.05.36-.44.72-.44.3599.06.7199.06.3601.07.7201.07.36.04.72.04.36.22.72.22.3599.08.7199.08.3601.16.7201.16.36-.45.72-.45.36.28.72.28.36-.31.72-.31.36-.05.72-.05.36.22.72.22.36-.3.72-.3.36.32.72.32.36-.36.72-.36.36.34.72.34.36.07.72.07.36.09.72.09.3601-.18.7201-.18.3599-.1.7199-.1.36-.11.72-.11.36.32.72.32.3601-.14.7201-.14.3599.08.7199.08.36-.12.72-.12.36.21.72.21.3599-.49.7199-.49.3601.5.7201.5.36.05.72.05.36.08.72.08.3599-.18.7199-.18.3601.08.7201.08.36-.1.72-.1h.72c.36 0 .36-.33.72-.33s.36.13.72.13.36.3.72.3.36-.53.73-.53.36.28.72.28.36-.07.72-.07.36.4.73.4.36-.31.72-.31.36-.15.72-.15.36.37.72.37.36-.19.73-.19.36-.05.73-.05.36-.11.73-.11.36.28.73.28" stroke="#000" stroke-linecap="round" stroke-linejoin="round" stroke-width="2.45"/><path d="m113.95 106.83c.23.29.37.18.6.47s.23.3.46.59.26.27.5.56.56.03.79.33.05.31.38.48c.31.16.2-.01.55-.01s.35.31.69.31.35-.15.7-.15h.7.7c.35 0 .35.1.7.1" stroke="#000" stroke-linecap="round" stroke-linejoin="round" stroke-width="2.45"/><path d="m118.69 99.52c.24.26.09.4.33.66s.22.28.46.54.07.43.31.69.61-.08.85.18-.08.57.16.83.67-.14.91.12-.09.57.16.83.53-.01.78.25.06.44.31.7.13.37.38.63.35.16.6.42.44.07.69.33 0 .49.25.75.3.21.54.48.21.3.45.56.15.36.39.62.47.06.72.32.24.27.49.53.12.39.45.54.32.38.67.38.35-.4.69-.4.35.42.7.42.35-.25.7-.25.35.01.7.01.35.06.7.06" stroke="#000" stroke-linecap="round" stroke-linejoin="round" stroke-width="2.45"/></svg>