<svg fill="none" height="111" viewBox="0 0 126 111" width="126" xmlns="http://www.w3.org/2000/svg"><path d="m82.9501 103.67c.11-.33-.02-.25-.02-.59s.49-.35.49-.69-.31-.35-.31-.69.35-.35.35-.69-.25-.35-.25-.7.11-.35.11-.7-.08-.35-.08-.7.27-.35.27-.7c0-.22-.57-.32-.65-.51s-.18-.24-.33-.39-.08-.51-.28-.6-.4-.39-.62-.39c-.36 0-.36.4-.72.4s-.36.16-.72.16-.36-.29-.72-.29-.36.13-.72.13-.36 0-.72 0-.36-.39-.72-.39-.36.45-.72.45-.36.13-.72.13-.36 0-.72 0-.36-.26-.72-.26-.36.07-.72.07-.36-.22-.72-.22-.36 0-.72 0-.36-.19-.72-.19-.36.19-.72.19-.36.15-.72.15-.36-.08-.72-.08-.36.21-.72.21-.36-.48-.72-.48-.36-.07-.72-.07-.36.62-.72.62-.36-.55-.72-.55-.36.52-.72.52-.36-.36-.72-.36-.36-.04-.72-.04-.36.36-.72.36-.36-.08-.72-.08-.36.08-.72.08-.36.11-.72.11-.36-.64-.72-.64-.36.49-.72.49-.36-.14-.72-.14-.36.26-.72.26-.36-.53-.72-.53-.36.25-.72.25-.36.13-.72.13-.36-.37-.72-.37-.36-.06-.72-.06-.36.57-.72.57-.36-.05-.72-.05-.36-.25-.72-.25-.36.3-.72.3-.36-.1-.72-.1-.36.1-.72.1-.36.09-.72.09-.36-.22-.72-.22-.36.07-.72.07-.36-.01-.72-.01-.36-.26-.72-.26-.36-.21-.72-.21-.36.01-.73.01-.36.23-.72.23-.36 0-.72 0-.36.18-.72.18-.36-.19-.73-.19-.36.13-.73.13-.36.2-.73.2-.36-.26-.73-.26c-.22 0-.54-.21-.73-.13s-.48.25-.63.4.25.67.17.86-.59.27-.59.49c0 .37.23.37.23.73s.21.37.21.73-.13.36-.13.73-.42.37-.42.73.38.37.38.73-.46.37-.46.74.3.36.41.71c.24.01.4.06.64.07s.47.21.71.23.49-.32.73-.31.46.48.69.49.48-.09.72-.08.49-.28.73-.27.49-.21.72-.2.45.63.69.64.49-.22.72-.22.49-.22.72-.21.47.27.71.28.48-.05.72-.05.47.28.71.29.49-.44.73-.43.47.35.71.36.47.14.71.15.49-.6.73-.6.47.1.71.1.47.55.7.55.48-.04.72-.03.48-.26.72-.26.47.13.71.13.48.08.71.08.48-.42.72-.42.47.41.71.41.47.22.71.22.48-.51.72-.51.48-.11.72-.11.47.24.71.24h.71c.23 0 .48.1.71.1s.48-.05.71-.05.48-.17.72-.17.48.3.71.3.48-.29.71-.29.48.03.71.03.48.37.72.37.48-.02.71-.02.48.08.72.08.47-.55.71-.55.48.12.71.11.48-.02.71-.02.48.2.72.2.48.18.72.17.47-.29.71-.29.48.17.72.17.47-.44.71-.44.48.54.72.54.47-.31.71-.31.48-.05.71-.05.47-.09.71-.09.48.48.72.48.48.08.71.08.47-.33.71-.33.47-.35.71-.35.48.53.72.52.48-.02.71-.02.47-.38.71-.38.48.32.72.31.48-.05.72-.05.48.14.72.13.48 0 .72 0 .18-.35.42-.35z" fill="#cebefd"/><path d="m38.2403 103.36c-.12.34 0 .35 0 .71s-.19.36-.19.72c0 .26.49.44.54.69s-.07.5.03.73.28.38.41.59.31.34.48.51.3.36.51.5.44.14.67.23.33.54.58.59.51-.07.76-.07c.36 0 .36.39.71.39s.36-.14.71-.14.36-.1.71-.1.36-.1.71-.1.36-.25.71-.25.36.58.71.58.36-.33.71-.33.36-.11.72-.11.36.2.72.2.36-.05.72-.05.36-.09.72-.09.36.3.72.3.36-.27.72-.27.36-.04.72-.04.36-.09.72-.09.36.18.72.18.36.07.72.07.36.24.72.24.36-.57.72-.57.36.39.72.39.36.17.72.17.36-.07.72-.07.36.08.72.08.36-.18.72-.18.36-.26.72-.26.36-.21.72-.21.36.3.72.3.36.03.72.03.36-.25.72-.25.36.17.72.17.36.43.72.43.36-.65.72-.65.36.6.72.6.36-.43.71-.43.36.07.72.07.36-.02.72-.02.36.26.72.26.36-.46.72-.46.36.16.72.16.36.45.72.45.36-.03.72-.03.36-.08.72-.08.36-.39.72-.39.36.45.72.45.36-.33.72-.33.36-.07.72-.07.36.32.72.32.36-.23.72-.23.36-.28.72-.28.36.28.73.28.36-.05.73-.05.36-.1.73-.1c.26 0 .51.21.76.16s.5-.11.73-.21.57-.06.78-.2.35-.42.53-.59.25-.46.38-.67.43-.35.53-.59-.32-.6-.27-.85.7-.43.7-.68c0-.5-.43-.46-.55-.95-.24 0-.23-.25-.47-.24s-.48-.13-.72-.12-.47.46-.71.47-.48-.21-.72-.21-.47.29-.71.29-.48-.54-.72-.54-.48.07-.72.08-.47.48-.71.48-.48-.44-.72-.43-.48-.04-.72-.04-.47.21-.71.21-.48-.18-.72-.18-.47.29-.71.29-.48-.25-.72-.25-.48.2-.71.2-.48.19-.71.19-.48-.17-.72-.17-.48-.17-.72-.17-.48.17-.71.17-.48.2-.71.21-.48-.23-.72-.23-.48 0-.72 0-.48-.24-.72-.23-.48.07-.71.07-.47.57-.71.58-.48-.23-.72-.23-.48-.24-.72-.24-.48.48-.71.48-.48 0-.72 0-.48-.49-.71-.49-.48.16-.71.16-.48.15-.72.15-.48-.05-.71-.05-.48-.2-.71-.2-.48.36-.72.36-.47-.53-.71-.53-.48.2-.72.2-.48.11-.72.11-.47-.29-.71-.29-.48.39-.72.39-.47-.36-.71-.37-.48.54-.72.53-.46-.67-.7-.67-.48.36-.72.36-.48.23-.72.23-.47-.2-.71-.21-.48.01-.72 0-.48-.07-.71-.07-.47-.4-.7-.41-.48.29-.72.28-.47-.33-.7-.34-.5.62-.73.61-.48-.01-.71-.02-.46-.51-.7-.52-.48.1-.72.09-.49.21-.72.2-.48.15-.72.14-.45-.57-.69-.58-.5.47-.74.46-.47-.16-.71-.17-.47-.07-.71-.08-.49.22-.73.21-.43-.32-.67-.34z" fill="#fff"/><path d="m39.8304 96.71c.36 0 .36-.42.72-.42s.36-.02.72-.02.36-.02.72-.02.36.25.72.25.36-.08.72-.08.36.03.72.03.36.24.72.24.36.12.72.12.36-.58.72-.58.36.28.72.28.36.02.72.02.36.17.72.17.36.22.72.22.36-.43.72-.43.36-.11.72-.11.36.45.72.45.36-.57.72-.57.36.49.72.49.36.02.72.02.36-.16.72-.16.36.23.72.23.36-.58.72-.58.36.37.72.37.36-.34.72-.34.36.58.72.58.36-.25.72-.25.36.23.72.23.36-.61.72-.61.36.08.72.08.36.43.72.43.36-.18.72-.18.36-.04.72-.04.36.12.72.12.36.15.72.15.36.08.72.08.36-.02.72-.02.36-.25.72-.25.36.26.72.26.36-.21.72-.21.36-.26.72-.26.36-.16.72-.16.36.19.72.19.36.12.72.12.36-.25.72-.25.36.4.72.4.36-.36.72-.36.36.41.72.41.36-.5.72-.5.36.57.72.57.36-.26.72-.26.36.17.73.17h.72c.36 0 .36-.18.72-.18s.36-.17.72-.17.36.12.73.12.36-.22.73-.22.36.56.73.56.36-.17.73-.17c.22 0 .43-.06.62.02s.57.01.72.16.23.46.31.66-.29.46-.29.68c0 .36.13.36.13.73s-.12.37-.12.73.16.36.16.73.07.36.07.73.26.36.26.73-.42.37-.42.73.45.37.45.73-.35.37-.35.73-.08.37-.08.73c0 .26.2.52.15.76s-.16.49-.26.72-.04.58-.18.79-.4.37-.58.55-.32.47-.53.61-.59 0-.83.1-.44.3-.69.35-.51.12-.77.12c-.36 0-.36-.14-.71-.14s-.36-.26-.71-.26-.36.44-.71.44-.36-.16-.71-.16-.36.23-.71.23-.36-.33-.71-.33-.36-.15-.71-.15-.36-.03-.72-.03-.36.07-.72.07-.36.25-.72.25-.36-.22-.72-.22-.36.14-.72.14-.36-.3-.72-.3-.36.36-.72.36-.36.25-.72.25-.36-.08-.72-.08-.36-.37-.72-.37-.36-.07-.72-.07-.36.51-.72.51-.36-.15-.72-.15-.36.08-.72.08-.36.08-.72.08-.36-.41-.72-.41-.36.45-.72.45-.36-.35-.72-.35-.36-.04-.72-.04-.36.02-.72.02-.36-.04-.72-.04-.36.23-.72.23-.36-.3-.72-.3-.36 0-.72 0-.36.3-.72.3-.36-.26-.72-.26-.36-.06-.71-.06-.36-.16-.71-.16-.36.35-.72.35-.36-.02-.72-.02-.36.24-.72.24-.36-.53-.72-.53-.36.16-.72.16-.36.07-.72.07-.36.2-.72.2-.36-.46-.72-.46-.36.63-.72.63-.36-.07-.72-.07-.36.06-.72.06-.36-.33-.72-.33-.36-.12-.72-.12-.36.33-.72.33-.36-.45-.73-.45-.36.18-.73.18-.36-.14-.73-.14c-.26 0-.51.22-.75.18s-.58.08-.81-.01-.53-.18-.74-.32-.03-.76-.2-.94-.65-.09-.79-.3.02-.57-.08-.81-.5-.37-.55-.62.38-.52.38-.78c0-.36-.49-.36-.49-.73s.46-.37.46-.73-.07-.36-.07-.73-.12-.36-.12-.73-.09-.36-.09-.73-.17-.37-.17-.73.47-.37.47-.73-.56-.37-.56-.73.3-.37.3-.73c0-.22.11-.4.19-.59s.04-.49.19-.64.51.06.71-.02.3-.25.52-.25z" stroke="#000" stroke-linecap="round" stroke-linejoin="round" stroke-width="2.6"/><path d="m67.4501 15.35c-.35 0-.3499.63-.7099.63-.3601 0-.35-.56-.71-.56s-.35.11-.71.11-.35.22-.71.22-.35-.3-.71-.3-.35.28-.71.28-.35-.38-.71-.38-.35.43-.7.43-.35-.27-.7-.27-.35-.1-.71-.1-.35.52-.71.52-.3601-.55-.7101-.55-.3499.43-.7099.43-.35-.32-.71-.32-.35.3-.71.3-.36.03-.71.03-.35-.17-.71-.17-.35.37-.71.37-.36-.28-.71-.28-.3601-.02-.7101-.02-.3599-.18-.7099-.18-.35.48-.71.48-.36-.37-.71-.37-.36.07-.71.07-.36-.29-.72-.29-.36-.05-.72-.05c-.22 0-.3-.05-.49-.13s-.73.33-.88.18.22-.67.14-.86-.27-.29-.27-.51c0-.36-.09-.36-.09-.73s-.0201-.37-.0201-.73-.1499-.36-.1499-.73-.07-.36-.07-.73.34-.36.34-.73-.13-.37-.13-.72999c0-.36-.19-.37001-.19-.73001s.33-.37.33-.73-.05-.36999-.05-.72999c0-.26.1-.47001.15-.71001s-.16-.57-.06-.8.1899-.5.3299-.71.4801-.27.6601-.44.3399-.36.5499-.5.5301 0 .7601-.1.38-.35.63-.4.48-.14.73-.14c.37 0 .37.14.73.14s.37-.06.73-.06h.73c.36 0 .37-.19.74-.19s.3699-.14.7399-.14.3701.25.7401.25.37.31.74.31.37-.45999.74-.45999.3699.12999.7399.12999.3701.03.7401.03.37.08.74.08.37.13.74.13.37-.07.74-.07.37-.34.74-.34.37-.09.74-.09.3699.16001.7399.16001c.3701 0 .3701-.11.7401-.11s.37-.06.74-.06.3699.15999.74.15999c.26 0 .56-.14.8-.09s.3199.66.5499.76.4301.16.6301.3.5599.08.7299.25.0901.54.2301.75.27.37.36.6.59.34.64.59-.4.53001-.4.79001c0 .36.09.36.09.73s.21.36999.21.72999-.26.36001-.26.73001c0 .36999-.11.35999-.11.72999s.18.36.18.73v.73c0 .36.19.37.19.73s.04.37.04.73.29.37.29.73c0 .22-.19.51-.27.71s-.26.44-.41.59-.4.29-.6001.37c-.2.08-.4699-.36-.6899-.36z" fill="#fff"/><path d="m57.2305 2.27c-.33-.11-.38 0-.73 0s-.35.33001-.7.33001-.35-.26001-.71-.26001-.35-.01999-.7-.01999-.35.28-.7.28-.35.01999-.7.01999-.35-.56-.71-.56-.35.49-.71.49-.35-.43-.71-.43-.35.16-.71.16c-.26 0-.47.26-.71.31s-.55-.11999-.78-.01999-.46.22999-.67.36999-.17.54-.35.72-.54.17001-.68.38001-.07.50999-.17.73999-.07.45-.12.7-.12.44-.12.69c0 .36-.5.36001-.5.73001s.2.36999.2.72999c0 .36001.26.36.26.73s-.53.36-.53.73.16.36001.16.73001c0 .36999.25.36999.25.72999s-.19.37-.19.73.29.37.29.73.16.37.16.73c0 .22-.36.46-.28.65s.19.43.34.58.28.5.48.59.53-.28.75-.28c.36 0 .36.32.71.32s.36-.1.72-.1.36-.13.71-.13.36-.14.71-.14.36.03.72.03.36-.03.72-.03.36.2.71.2.36-.03.71-.03.36-.29.72-.29.36.46.72.46.36-.49.72-.49.41.49.75.37c0-.24-.35-.56-.35-.79s.59-.48.59-.71-.06-.47-.05-.71-.28-.48-.27-.71.41-.46.42-.7-.36-.49-.35-.72c.01-.22998-.22-.49-.21-.72s0-.47999 0-.70999.41-.45001.43-.68001.17-.46.19-.7.05-.46999.07-.69999-.22-.49002-.2-.73001c.02-.24.34-.44.36-.68s-.42-.51-.4-.75.11-.45999.13-.69999.24-.45001.26-.69001.04-.54999.06-.78999z" fill="#cebefd"/><path d="m66.7301 14.35c-.35 0-.35.31-.71.31s-.35-.41-.71-.41-.35 0-.71 0-.35.48-.71.48-.35-.52-.71-.52-.35.29-.71.29-.35-.28-.71-.28-.35.04-.7.04-.35.36-.7.36-.35-.55-.71-.55-.35.08-.71.08-.36.58-.71.58-.35-.66-.71-.66-.35.21-.71.21-.35.42-.71.42-.36-.15-.71-.15-.35-.36-.71-.36-.35.21-.71.21-.36.28-.71.28-.36-.55-.71-.55-.36.11-.71.11-.35.38-.71.38-.36-.3-.71-.3-.36.23-.71.23-.36-.24-.72-.24-.36.25-.72.25c-.22 0-.55.09-.74.01s0-.74-.16-.89-.53-.08-.61-.28-.07-.41-.07-.63c0-.36-.35-.36-.35-.73s.6-.37.6-.73-.13-.36-.13-.73-.35-.36-.35-.72999c0-.37-.13-.36001-.13-.73001s.45-.37.45-.73.13-.37.13-.73 0-.36999 0-.72999-.53-.37001-.53-.73001c0-.26.31-.51.36-.75s0-.53999.1-.76999.36-.39001.5-.60001.4-.3.57-.47.37-.28.58-.41.35-.32.59-.42.4-.39.65-.44.51.22.77.22c.37 0 .37-.31999.73-.31999h.73c.36 0 .37-.10001.73-.10001s.37.12001.74.12001.37.25999.74.25999.37-.07.74-.07.37-.11.74-.11.37-.17.74-.17.37-.09999.74-.09999.37.56999.74.56999h.74c.37 0 .37-.09.74-.09s.37-.18.74-.18.37.29.74.29.37-.5.74-.5.37.37.74.37.37-.15.74-.15.37.01.74.01.37-.03999.74-.03999c.26 0 .49.11999.73.16999s.45.17.68.26.38.28.59.42.32.32.5.49.64.1.78.31-.04.57.06.81.26.41001.31.65001.06.47.06.72c0 .36.25.35999.25.72999s-.07.37-.07.73.22.36.22.73-.3.36001-.3.73001v.73001c0 .36998-.09.36998-.09.72998s.3.37.3.73.16.37.16.73-.43.37-.43.73c0 .22-.03.4-.11.59s.07.61-.08.76-.63-.18-.83-.1-.3.35-.52.35z" stroke="#000" stroke-linecap="round" stroke-linejoin="round" stroke-width="2.6"/><path d="m116.1 46.14c-.41 0-.41.32-.83.32s-.41-.4-.83-.4c-.22 0-.5.18-.69.26s-.37.3-.52.45-.18.4-.27.6 0 .39 0 .61c0 .36-.32.36-.32.71s.26.36.26.71.25.35.25.71-.27.36-.27.71.11.36.11.71-.22.36-.22.71-.24.36-.24.71.35.36.35.71-.3.36-.3.71.09.36.09.71.25.36.25.71.02.36.02.72-.46.36-.46.72.54.36.54.72.1.36.1.72-.32.35-.32.7.34.35.34.7-.3.35-.3.7-.03.35-.03.7-.35.35-.35.7.24.35.24.7.1.35.1.7.25.35.25.7-.39.35-.39.7.42.35.42.71-.61.35-.61.71c0 .22.64.32.72.51s.11.31.26.46.1.57.3.65.45-.12.68-.12c.41 0 .41.35.83.35s.41-.2.83-.2c.24 0 .5.23.74.21s.44-.37.68-.41.47-.08.7-.15.48-.07.7-.15.29-.49.51-.6.53 0 .74-.12.41-.24.6-.38.24-.44.42-.6.68 0 .84-.18.28-.41.43-.6-.14-.67-.01-.87.59-.21.7-.42.2-.44.28-.67.09-.48.15-.71-.2-.52-.16-.76.42-.41.45-.65-.2-.48-.2-.72c0-.4.31-.4.31-.8s-.01-.4-.01-.8c0-.38.22-.38.22-.76s-.15-.38-.15-.76.1-.38.1-.76-.54-.38-.54-.76.59-.38.59-.77-.6-.38-.6-.77c0-.24-.01-.45-.03-.69s.13-.49.09-.72-.01-.48-.08-.71-.23-.42-.31-.65-.23-.41-.34-.62-.09-.49-.22-.69-.43-.27-.58-.46-.15-.48-.31-.65-.44-.22-.62-.38-.16-.55-.35-.69-.29-.46-.49-.58-.59.05-.8-.05-.45-.13-.68-.22-.31-.6-.54-.67-.5-.08-.74-.12-.49-.12-.73-.14-.5.07-.74.07z" fill="#fff"/><path d="m112.89 58.71c-.12.33.27.33.27.68s-.65.35-.65.7.4.35.4.7.01.35.01.7-.41.35-.41.7.18.35.18.7.35.35.35.7-.37.35-.37.7-.05.35-.05.7.14.35.14.71.37.35.37.71c0 .22.05.3.13.49s-.07.47.08.62.21.49.41.58.48-.15.7-.15c.41 0 .41.41.83.41s.41-.62.83-.62c.24 0 .5.52.74.5s.42-.45.66-.5.57.33.8.26.44-.26.66-.34.32-.46.53-.57.31-.37.52-.5.37-.24.57-.39.55-.06.73-.22.33-.34.49-.51.13-.49.27-.68.56-.18.69-.38-.06-.57.05-.78.29-.37.38-.59 0-.48.07-.71.08-.44.12-.68.33-.41.35-.65.08-.47.08-.71c0-.4-.27-.4-.27-.8s.74-.51.62-.9c-.25 0-.8.19-1.05.19s-.49-.36-.74-.36-.49.43-.73.43-.49-.46-.73-.46-.49.48-.73.48-.49 0-.73 0-.49-.36-.73-.36-.49-.02-.73-.02-.49.55-.73.55-.49-.6-.73-.6-.49.49-.74.49-.49-.49-.74-.49-.49.41-.74.41-.49-.42-.74-.42-.43.28-.68.28z" fill="#cebefd"/><path d="m112.921 66.42c0-.35.18-.35.18-.71s-.55-.35-.55-.71.56-.35.56-.71-.34-.35-.34-.71.04-.35.04-.71-.04-.35-.04-.71.099-.35.099-.71-.179-.35-.179-.7.28-.35.28-.7-.45-.35-.45-.71.08-.35.08-.71.34-.36.34-.71-.24-.35-.24-.71 0-.35 0-.71.13-.35.13-.71-.211-.36-.211-.71.301-.35.301-.71-.07-.35-.07-.71-.13-.36-.13-.71.05-.36.05-.71.2-.36.2-.71-.05-.35-.05-.71-.06-.36-.06-.71-.131-.36-.131-.71-.099-.36-.099-.72.54-.36.54-.72c0-.22-.45-.49-.37-.68s.559-.11.709-.26.151-.4.351-.48.37-.31.59-.31c.41 0 .41.29.83.29s.41-.16.83-.16c.24 0 .5-.24.74-.22s.43.41.67.45.409.28.629.34.64-.41.86-.32.39.34.61.44.421.24.621.37.48.17.67.32.26.45.44.61.37.31.53.49.06.56.2.75.35.31.47.52.17.43.28.64.349.35.429.57.421.36.491.6-.291.55-.241.79.001.46.021.7.33.45.33.69c0 .34.27.34.27.68s.019.34.019.69-.519.34-.519.69.43.34.43.69-.301.34-.301.68-.049.34-.049.69.11.34.11.69.24.35.24.69.14.35.14.69c0 .24-.19.49-.21.73s-.181.47-.231.7-.389.39-.459.62.409.64.319.86-.699.22-.809.43-.18.42-.31.62-.3.34-.45.53-.021.59-.181.77-.599.06-.769.22-.2.47-.39.62-.41.23-.61.35-.451.12-.671.23-.209.71-.429.8-.55-.12-.78-.05-.501-.14-.741-.09-.379.71-.619.73-.51-.6-.75-.6c-.41 0-.41.34-.83.34s-.41-.28-.83-.28c-.22 0-.331-.05-.521-.13s-.41-.03-.56-.18-.289-.28-.369-.48-.071-.38-.071-.6z" stroke="#000" stroke-linecap="round" stroke-linejoin="round" stroke-width="2.6"/><path d="m101.87 15.7c-.36 0-.36.31-.72.31s-.36-.62-.72-.62-.36.22-.7199.22c-.36 0-.36.33-.72.33s-.36-.43-.72-.43-.36.09-.72.09-.36.08-.72.08-.36-.31-.72-.31-.36.53-.72.53-.36-.37-.72-.37-.36-.19-.72-.19-.36.45-.72.45-.36.07-.72.07-.36-.09-.72-.09-.36-.05-.72-.05-.36.16-.72.16-.36-.49-.72-.49-.36.17-.72.17-.36-.18-.72-.18-.36.57-.72.57-.36-.35-.72-.35-.36-.13-.72-.13-.36.13-.72.13-.36-.04-.72-.04-.36.15-.72.15-.36.14-.72.14-.36-.43-.72-.43-.36.2-.72.2-.36.02-.72.02-.36-.19-.72-.19-.36.57-.72.57-.36-.52-.72-.52-.36.06-.72.06-.36.36-.72.36-.36-.22-.72-.22-.36.3-.72.3-.36-.05-.72-.05-.36-.33-.72-.33-.36.24-.72.24-.36-.51-.72-.51-.36.65-.72.65-.36-.58-.72-.58-.36.27-.72.27-.36-.38-.72-.38-.36.58-.72.58-.36-.33-.72-.33-.36.38-.72.38-.36-.57-.72-.57-.36.39-.72.39-.36-.01-.72-.01-.36.18-.72.18-.36-.11-.72-.11-.36-.02-.72-.02-.36.12-.72.12-.36-.4-.72-.4-.36.31-.72.31-.36-.31-.72-.31-.36.05-.72.05-.36-.07-.72-.07-.36.1-.72.1-.36-.1-.72-.1-.36.18-.72.18-.36-.16-.72-.16-.36.23-.72.23-.36-.25-.72-.25-.36-.09-.72-.09-.36.06-.72.06-.36.29-.72.29-.36-.39-.72-.39-.36.47-.72.47-.36-.53-.72-.53-.36.06-.72.06-.36.46-.72.46-.36-.31-.72-.31-.36.33-.72.33-.36-.02-.72-.02-.36-.16-.72-.16-.36-.22-.72-.22-.36-.11-.72-.11-.36.36-.72.36-.36-.06-.72-.06-.36.06-.72.06-.36-.03-.72-.03-.36-.08-.72-.08-.36.13-.72.13-.36-.31-.73-.31-.36.03-.72.03-.36.05-.72.05-.36.13-.72.13-.36-.23-.73-.23-.36.32-.72.32-.36-.22-.72-.22-.36-.02-.73-.02-.36-.06-.73-.06-.36.2-.73.2-.36.38-.72.38-.36-.65-.73-.65-.36.51-.73.51-.37.14-.73.14-.37-.09-.73-.09-.36-.3-.72-.3-.36.26-.72.26-.36.04-.72.04-.36.03-.72.03-.36 0-.72 0-.36-.41-.72-.41-.36.38-.72.38-.36-.25-.72-.25-.36.12-.72.12-.36-.11-.72-.11-.36.27-.72.27-.36-.19-.72-.19-.36-.35-.72-.35-.36.39-.72.39-.36.17-.72.17-.36-.46-.73-.46-.36-.02-.72-.02-.36.16-.72.16-.36-.03-.72-.03-.36-.1-.73-.1-.36.23-.73.23-.36.14-.73.14-.36-.5-.73-.5c-.24 0-.49.21-.72.23s-.5-.1-.74-.06-.4.53-.63.58-.52-.16-.75-.1-.38.38-.6.46-.51-.03-.73.06-.58-.1-.8 0-.4.3-.61.42-.37.34-.57.47-.27.45-.46.6-.24.44-.42.6-.63.02-.8.19-.28.4-.44.58-.11.52-.26.71-.63.14-.76.34.05.6-.07.81-.39.33-.5.54-.45.33-.54.55.08.55 0 .78-.03.49-.1.72.07.49.02.73-.18.44-.21.68-.56.43-.58.67.6.5.6.74c0 .36-.36.36-.36.72s.37.36.37.72-.51.36-.51.72.36.36.36.72-.25.36-.25.72-.26.36-.26.72.54.36.54.72v.72c0 .36.13.36.13.72s-.61.36-.61.72.24.36.24.72.3.36.3.72-.57.36-.57.72.19.36.19.72.42.36.42.72-.5.36-.5.72.31.36.31.72.05.36.05.72-.03.36-.03.72.23.36.23.72-.65.36-.65.72.41.36.41.72.03.36.03.72-.2.36-.2.72.32.36.32.72.08.36.08.72-.27.36-.27.72-.33.36-.33.72.28.36.28.72-.07.36-.07.72-.02.36-.02.72.03.36.03.72.32.36.32.72-.4.36-.4.72.47.36.47.72-.43.36-.43.72.16.36.16.72.05.36.05.72-.46.36-.46.72.41.36.41.72-.35.36-.35.72.09.36.09.72.44.36.44.72-.16.36-.16.72.13.36.13.72-.11.36-.11.72.07.36.07.72-.32.36-.32.72-.11.36-.11.72.42.36.42.72-.13.36-.13.72.12.36.12.72-.24.36-.24.72-.12.36-.12.73.52.36.52.72-.14.36-.14.72-.1.36-.1.72v.72c0 .36-.26.36-.26.72s.13.36.13.73.21.36.21.73-.09.36-.09.72.2.36.2.72-.55.36-.55.72.2.36.2.72-.27.36-.27.72.21.36.21.72.44.36.44.72-.55.36-.55.73.01.36.01.72.52.36.52.72-.41.36-.41.72.15.36.15.73.24.36.24.73.08.36.08.73-.68.36-.68.73.35.36.35.73-.07.36-.07.73.07.36.07.73.06.36.06.73.23.37.23.73.02.37.02.73-.6.37-.6.73c0 .24.49.47.5.7s-.36.52-.33.75.53.4.58.63-.05.49.01.72 0 .5.08.72.07.49.16.71.2.44.31.65.5.27.62.48-.2.69-.07.89.29.4.44.59.55.18.71.36.18.49.35.66.49.19.67.35.31.38.5.52.55.05.75.18.35.32.56.44.32.41.53.52.47.13.69.22.49.02.72.1.39.33.62.39.49-.03.73.02.48-.05.72-.02.44.28.68.29.47-.16.71-.16h.72c.36 0 .36-.06.72-.06s.36.52.72.52.36-.38.72-.38.36.34.72.34.36-.5.72-.5.36.09.72.09.36-.09.72-.09.36-.01.72-.01.36.13.72.13.36-.02.72-.02.36.47.72.47.36-.13.72-.13.36-.18.72-.18.36-.18.72-.18h.73c.37 0 .36-.12.72-.12s.36.4.72.4.36.24.72.24.36-.44.73-.44.36.32.73.32.36.01.73.01.36-.36.73-.36.36-.02.72-.02.36.41.72.41.36-.23.72-.23.36.13.72.13.36.11.72.11.36-.07.72-.07.36-.13.72-.13.36-.3.72-.3.36.44.72.44.36.11.72.11.36-.55.72-.55.36.59.72.59.36-.17.72-.17.36.16.72.16.36-.49.72-.49h.72c.36 0 .36.14.72.14s.36.24.72.24.36-.11.72-.11.36-.16.72-.16.36.42.72.42.36-.5.72-.5.36.18.72.18.36-.14.72-.14h.72c.36 0 .36.13.72.13s.36-.25.72-.25.36.08.72.08.36.5.72.5.36-.44.72-.44.36-.18.72-.18h.72c.36 0 .36.54.72.54s.36.03.72.03.36-.06.72-.06.36-.2.72-.2.36.29.72.29.36-.4.72-.4.36.13.72.13.36-.19.72-.19.36.23.72.23.36-.06.72-.06.36-.25.72-.25.36-.12.72-.12.36.09.72.09.36.57.72.57.36-.63.72-.63.36.2.72.2.36-.07.72-.07.36.36.72.36.36-.44.72-.44.36.05.72.05.36.06.72.06.36.3.72.3.36.09.72.09.36-.49.72-.49.36-.07.72-.07.36.43.72.43.36-.32.72-.32.36.05.72.05.36.15.72.15.36.31.72.31.36-.17.72-.17.36-.24.72-.24.36.13.72.13.36.07.72.07.36-.38.72-.38.36.36.72.36.36-.21.72-.21.36.37.72.37.36-.38.72-.38.36-.17.72-.17.36.54.72.54.36-.45.72-.45.36.44.72.44.36-.18.72-.18h.72c.36 0 .36-.33.72-.33s.36.17.72.17.36.26.72.26.36.13.72.13.36-.54.72-.54.36.48.72.48.36-.14.72-.14.36-.44.72-.44.36.48.73.48.36-.05.72-.05h.72c.36 0 .36.12.72.12s.36-.35.73-.35.36-.18.72-.18.36.06.72.06.36.59.73.59.36-.5.73-.5.36.49.73.49.36-.23.72-.23.36-.04.73-.04c.3699 0 .3599-.12.7299-.12s.37.22.73.22.37-.48.73-.48c.24 0 .5.55.73.54s.49-.07.73-.1.38-.6.62-.65.49.07.72 0 .45-.12.68-.2.5-.03.72-.12.34-.38.56-.49.49-.08.7-.2.38-.28.58-.42.52-.1.71-.25.1-.62.28-.78.47-.18.64-.34.54-.15.69-.33.25-.42.4-.61.2-.44.33-.64.58-.21.7-.42.1-.51.21-.72.29-.41.38-.63-.24-.6-.16-.83.36-.38.43-.62-.28-.55-.23-.78.7-.37.73-.6-.07-.5-.05-.74-.25-.49-.25-.73c0-.36-.18-.36-.18-.72s.08-.36.08-.72.19-.36.19-.72-.11-.36-.11-.72-.03-.36-.03-.72-.06-.36-.06-.72.41-.36.41-.72-.34-.36-.34-.72.44-.36.44-.72-.63-.36-.63-.72.2-.36.2-.72.27-.36.27-.72.15-.36.15-.72-.15-.36-.15-.72-.37-.36-.37-.72.4-.36.4-.72-.27-.36-.27-.72-.23-.36-.23-.72.24-.36.24-.72.39-.36.39-.72-.01-.36-.01-.72-.37-.36-.37-.72.03-.36.03-.72.32-.36.32-.72-.15-.36-.15-.72-.38-.36-.38-.72.18-.36.18-.72.19-.36.19-.72-.42-.36-.42-.72.3-.36.3-.72.35-.36.35-.72-.16-.36-.16-.72.12-.36.12-.72-.14-.36-.14-.72-.48-.36-.48-.72.4-.36.4-.72.17-.36.17-.72-.25-.36-.25-.72-.33-.36-.33-.72.08-.36.08-.72.16-.36.16-.72-.03-.36-.03-.72.34-.36.34-.72.02-.36.02-.72-.22-.36-.22-.72.06-.36.06-.72-.18-.36-.18-.72-.21-.36-.21-.72.61-.36.61-.72-.14-.36-.14-.72 0-.36 0-.72-.35-.36-.35-.72.36-.36.36-.72-.28-.36-.28-.73.4-.36.4-.72-.43-.36-.43-.72 0-.36 0-.72 0-.36 0-.72.38-.36.38-.72-.37-.36-.37-.73-.03-.36-.03-.73.27-.36.27-.72-.28-.36-.28-.72.18-.36.18-.72.34-.36.34-.72-.12-.36-.12-.72-.11-.36-.11-.72-.05-.36-.05-.72-.04-.36-.04-.73-.01-.36-.01-.72-.35-.36-.35-.72.52-.36.52-.72-.19-.36-.19-.73.13-.36.13-.73-.1-.36-.1-.73-.26-.36-.26-.73.58-.36.58-.73-.22-.36-.22-.73-.41-.36-.41-.73.1-.36.1-.73.44-.37.44-.73-.36-.37-.36-.73.29-.37.29-.73c0-.24-.04-.49-.06-.73s-.25-.46-.28-.7.29-.54.24-.77-.19-.46-.26-.69-.29-.42-.37-.65-.09-.48-.18-.7-.36-.36-.47-.58-.04-.52-.16-.73-.12-.51-.25-.71-.79-.02-.93-.21.07-.67-.09-.85-.28-.41-.45-.58-.61-.04-.79-.2-.27-.41-.46-.56-.27-.45-.47-.58-.43-.22-.64-.34-.55.02-.76-.09-.33-.41-.55-.5-.34-.48-.57-.56-.48-.15-.71-.22-.53.13-.77.08-.53.31-.77.28-.45-.08-.69-.1-.46-.27-.7-.27z" fill="#fff"/><path d="m16.1803 89.73c-.11-.21-.65-.22-.75-.44s.31-.66.22-.88-.18-.43-.27-.66-.12-.45-.19-.68-.12-.45-.19-.68-.77-.29-.83-.52.13-.53.08-.76-.26-.44-.31-.68-.05-.48-.08-.72.06-.5.03-.73-.17-.47-.19-.7.37-.51.36-.75-.15-.47-.16-.71-.13-.47-.14-.71.28-.48.28-.72-.05-.47-.05-.71-.36-.49-.35-.73.22-.47.23-.71.03-.48.05-.71.14-.47.16-.71.07-.49.09-.72c-.01-.24-.05-.49-.06-.73s-.48-.46-.49-.7-.04-.48-.05-.72.59-.49.59-.73-.53-.48-.53-.72-.05-.48-.05-.73.48-.48.48-.72-.3-.49-.3-.73.43-.47.44-.71-.19-.49-.18-.73-.12-.49-.11-.73.24-.47.25-.71.19-.47.2-.71-.58-.51-.56-.75.59-.45.61-.69-.62-.52-.61-.76.36-.46.38-.7.15-.47.17-.71-.32-.51-.3-.75.21-.47.23-.71-.13-.49-.11-.74-.05-.49-.03-.73.62-.44.64-.68-.16-.5-.15-.74-.23-.5-.21-.75.24-.47.26-.71.37-.46.39-.7-.41-.52-.39-.76.47-.45.49-.69-.59-.54-.57-.78.19-.47.21-.71.24-.47.26-.71.35-.46.36-.7-.07-.49-.05-.73-.47-.52-.46-.76.02-.48.03-.73.21-.47.22-.71.13-.48.14-.72-.2-.5-.19-.74.02-.48.03-.72.3-.47.31-.71-.19-.49-.18-.73-.08-.49-.07-.73.13-.48.14-.72.47-.48.48-.72-.2-.49-.2-.73-.27-.49-.27-.73.4-.49.39-.73.08-.49.07-.73.06-.49.05-.73-.46-.47-.47-.71.02-.49 0-.73-.18-.47-.2-.71.33-.51.31-.75.09-.5.06-.74-.03-.49-.05-.73-.71-.4-.74-.64.28-.53.24-.76.16-.52.12-.76-.17-.46-.22-.7-.53-.38-.58-.61.15-.53.09-.76-.25-.43-.32-.66-.19-.44-.26-.67.29-.6.21-.83-.24-.43-.32-.66-.46-.33-.55-.55 0-.57-.11-.78c-.24.02-.49.46-.73.48s-.53-.44-.77-.42-.49-.06-.73-.05-.48.13-.72.14c-.24003.01-.48003.1-.72003.12s-.47.26-.72.27-.49-.15-.73-.14-.48.27-.72.28-.49.02-.73.02-.48-.44-.73-.44-.49.22-.73.22-.49 0-.73 0-.47-.4-.71-.42-.48.04-.73.03-.53.09-.77.07c0 .07-.04.28-.04.36 0 .36.21.36.21.72s-.45.36-.45.72.23.36.23.72.4.36.4.72-.55.36-.55.72.55.36.55.72-.22.36-.22.72-.08.36-.08.72-.37.36-.37.72.29.36.29.72.22.36.22.72-.45.36-.45.72.54.36.54.72-.04.36-.04.72.09.36.09.72-.44.36-.44.72-.17.36-.17.72.53.36.53.72-.47.36-.47.72-.06.36-.06.72.17.36.17.72.28.36.28.72-.19.36-.19.72-.04.36-.04.72-.18.36-.18.72.38.36.38.72-.25.36-.25.72.43.36.43.72-.34.36-.34.72v.72c0 .36.32.36.32.72s-.53.36-.53.72-.08.36-.08.72.21.36.21.72.42.36.42.72-.07.36-.07.72-.34.36-.34.72-.18.36-.18.72.51.36.51.72-.52.36-.52.72.55.36.55.72-.07.36-.07.72.15.36.15.72-.62.36-.62.72.03.36.03.72.3.36.3.72-.28.36-.28.72.54.36.54.72-.28.36-.28.72-.06.36-.06.72.05.36.05.72-.13.36-.13.72.16.36.16.72-.07.36-.07.73-.29.36-.29.72.37.36.37.72.22.36.22.72-.29.36-.29.72-.09.36-.09.72.36.36.36.73-.5.36-.5.73.44.36.44.72-.14.36-.14.72-.22.36-.22.72.2.36.2.72.14.36.14.72-.45.36-.45.72.04.36.04.72-.03.36-.03.73-.03.36-.03.72.54.36.54.72-.06.36-.06.72-.48.36-.48.73.04.36.04.73-.09.36-.09.73.24.36.24.73.22.36.22.73-.17.36-.17.73-.28.36-.28.73.65.36.65.73-.47.37-.47.73-.08.37-.08.73.18.37.18.73c0 .24-.25.5-.23.74s.14.49.17.72.47.41.51.64-.06.5 0 .73-.19.57-.11.79.46.35.55.57 0 .53.11.74.48.29.6.5-.1.63.03.83.73.07.87.26-.08.69.08.87.5.2.67.37.41.25.59.41.2.51.39.66.53.09.72.23.48.11.69.23.28.47.5.58.32.48.54.57.55-.07.78 0 .4.38.63003.44c.23.06.61-.52.85-.47s.42.29.66.32.48-.14.72-.13.46.63.7.63c.35 0 .35-.29.7-.29s.35.32.7.32.35-.32.7-.32.35.24.7.24.35-.16.7-.16.35-.04.7-.04.35-.08.7-.08.35.03.7.03.35.27.7.27.35.04.7.04.35-.4.7-.4.35.31.7.31.35-.47.7-.47.35.2.7.2.35.39.7.39.35-.4.71-.4.35-.24.71-.24.35.01.71.01.34.23.68.17c-.22-.09-.49.12-.7.03s-.37-.35-.58-.45-.42-.21-.64-.32-.54.02-.75-.09-.34-.38-.55-.5-.56 0-.76-.11-.15-.69-.35-.82c-.22-.08-.53.03-.75-.07s-.47-.12-.67-.23-.32-.38-.52-.5-.57 0-.76-.13-.07-.67-.26-.82-.68.08-.86-.08-.38-.3-.54-.47-.13-.52-.28-.7.01-.59-.13-.78-.42-.26-.54-.45-.53-.22-.65-.42.12-.6.01-.81z" fill="#cebefd"/><path d="m101.87 16.01c-.36 0-.36-.34-.72-.34s-.36.22-.72.22-.36-.17-.7199-.17c-.36 0-.36-.37-.72-.37s-.36.57-.72.57-.36-.46-.72-.46-.36.33-.72.33-.36-.43-.72-.43-.36.5-.72.5-.36-.37-.72-.37-.36.04-.72.04-.36.03-.72.03-.36-.07-.72-.07-.36.49-.72.49-.36-.23-.72-.23-.36 0-.72 0-.36-.04-.72-.04-.36.3-.72.3-.36-.02-.72-.02-.36-.31-.72-.31-.36-.07-.72-.07-.36-.19-.72-.19-.36.13-.72.13-.36.33-.72.33-.36-.4-.72-.4-.36.07-.72.07-.36.25-.72.25-.36-.43-.72-.43-.36.26-.72.26-.36-.12-.72-.12-.36.26-.72.26-.36 0-.72 0-.36-.24-.72-.24-.36-.18-.72-.18-.36.66-.72.66-.36-.18-.72-.18-.36-.34-.72-.34-.36.01-.72.01-.36-.05-.72-.05-.36.01-.72.01-.36.44-.72.44-.36-.44-.72-.44-.36.4-.72.4-.36-.35-.72-.35-.36.25-.72.25-.36.02-.72.02-.36-.16-.72-.16-.36-.09-.72-.09-.36-.2-.72-.2-.36.44-.72.44-.36-.08-.72-.08-.36.27-.72.27-.36-.58-.72-.58-.36.65-.72.65-.36-.35-.72-.35-.36-.27-.72-.27-.36.62-.72.62-.36-.66-.72-.66-.36.29-.72.29-.36-.2-.72-.2-.36.4-.72.4-.36-.51-.72-.51-.36.21-.72.21-.36.44-.72.44-.36-.33-.72-.33-.36.05-.72.05-.36.23-.72.23-.36-.24-.72-.24-.36.05-.72.05-.36-.25-.72-.25-.36.24-.72.24-.36-.32-.72-.32-.36.56-.72.56-.36-.52-.72-.52-.36.41-.72.41-.36-.06-.72-.06-.36.09-.72.09-.36-.12-.72-.12-.36-.16-.72-.16-.36-.19-.72-.19-.36.24-.72.24-.36.15-.72.15-.36-.3-.72-.3-.36 0-.72 0-.36.46-.72.46-.36-.45-.73-.45-.36.04-.72.04-.36.2-.72.2-.36-.27-.72-.27-.36-.03-.73-.03-.36.23-.72.23-.36 0-.72 0-.36.09-.73.09-.36-.22-.73-.22-.36-.04-.73-.04-.36.37-.72.37-.36-.21-.73-.21-.36-.17-.73-.17-.37.12-.73.12-.37-.2-.73-.2-.36.04-.72.04-.36.53-.72.53-.36-.09-.72-.09-.36-.02-.72-.02-.36-.27-.72-.27-.36.36-.72.36-.36-.06-.72-.06-.36-.36-.72-.36-.36.09-.72.09-.36.07-.72.07-.36-.06-.72-.06-.36-.13-.72-.13-.36.03-.72.03-.36.4-.72.4-.36-.37-.72-.37-.36.25-.73.25-.36-.25-.72-.25-.36.35-.72.35-.36-.57-.72-.57-.36.64-.73.64-.36-.21-.73-.21-.36.09-.73.09-.36.08-.73.08c-.24 0-.47-.07-.7-.05s-.5-.2-.73-.17-.47.1-.7.15-.52-.08-.75-.01-.39996.34-.62996.42-.42.22-.64.31-.4.25-.62.36-.39.26-.6.37-.66-.15-.86-.02-.21.54-.4.69-.48.17-.66.33-.34.34-.51.51-.26.42-.41.59-.4.29-.55.48-.05.55-.18.75-.41.3-.53.51-.02.52-.13.73-.4.33-.49.55-.35.38-.43.61-.26.43-.33.66.01.51-.03.74.21.52.18.75-.1.46-.11.7-.47.47-.47.71c0 .36.2.36.2.72s-.14.36-.14.72.49.36.49.72-.28.36-.28.72-.12.36-.12.72.41.36.41.72-.14.36-.14.72.1.36.1.72-.03.36-.03.72.12.36.12.72-.6.36-.6.72.36.36.36.72-.32.36-.32.72v.72c0 .36.19.36.19.72v.72c0 .36-.18.36-.18.72s.44.36.44.72-.03.36-.03.72-.18.36-.18.72-.11.36-.11.72.43.36.43.72.08.36.08.72-.24.36-.24.72-.39.36-.39.72.35.36.35.72-.36.36-.36.72.35.36.35.72-.1.36-.1.72.36.36.36.72-.41.36-.41.72.28.36.28.72-.36.36-.36.72.1.36.1.72.13.36.13.72.29.36.29.72-.55.36-.55.72.09.36.09.72.02.36.02.72.13.36.13.72-.29.36-.29.72.02.36.02.72.49.36.49.72-.4.36-.4.72.42.36.42.72.05.36.05.72-.47.36-.47.72.21.36.21.72.07.36.07.72.19.36.19.72-.34.36-.34.72.18.36.18.72-.23.36-.23.72.32.36.32.73-.27.36-.27.72-.28.36-.28.72.48.36.48.72-.27.36-.27.72v.72c0 .36.21.36.21.73s-.26.36-.26.73.44.36.44.72.02.36.02.72-.59.36-.59.72.36.36.36.72.07.36.07.72.04.36.04.72.04.36.04.72.09.36.09.73-.34.36-.34.72-.15.36-.15.72.26.36.26.72.07.36.07.73.01.36.01.73.19.36.19.73-.67.36-.67.73.54.36.54.73-.42.36-.42.73.13.36.13.73-.2.36-.2.73.3.37.3.73-.36.37-.36.73.31.37.31.73c0 .24.17.47.19.71s.14.46.17.69-.43.56-.39.79.67.33.74.56.07.46.14.69 0 .5.1.72-.13.59-.03.81.68.18.8.39.22.41.35.61-.16.7-.01.89.58.15.74.33.12.55.29.72.6.07.78.22.3.38.48.53.16.61.36.74.52.1.73.22.54 0 .76.1.29.53.51.62.53-.03.76.04.43996.2.66996.26.5-.03.73.02.43.32.67.35.49-.11.73-.09.47-.19.72-.19c.36 0 .36.49.72.49s.36-.15.72-.15.36-.28.72-.28.36.23.72.23.36-.25.72-.25.36.27.72.27.36.18.72.18.36-.48.72-.48.36.2.72.2.36.27.72.27.36-.23.72-.23.36.31.72.31.36-.19.72-.19.36-.22.72-.22.36.05.72.05.36-.09.73-.09.36.25.72.25.36-.2.72-.2.36-.22.72-.22.36.06.73.06.36.14.73.14.36.13.73.13.36-.24.73-.24.36.19.72.19.36.28.72.28.36-.1.72-.1.36-.37.72-.37.36-.09.72-.09.36.28.72.28.36-.22.72-.22.36.56.72.56.36-.08.72-.08.36-.35.72-.35.36.03.72.03.36.1.72.1.36-.32.72-.32.36.21.72.21.36.42.72.42.36-.63.72-.63.36-.01.72-.01.36.64.72.64.36-.25.72-.25.36-.18.72-.18.36.42.72.42.36-.53.72-.53.36.13.72.13.36-.09.72-.09.36.41.72.41.36-.56.72-.56.36.55.72.55.36-.34.72-.34.36.31.72.31.36-.47.72-.47.36.27.72.27.36-.22.72-.22.36-.08.72-.08.36.48.72.48.36-.52.72-.52.36.4.72.4h.72c.36 0 .36.15.72.15h.72c.36 0 .36-.54.72-.54s.36.07.72.07.36.46.72.46.36.06.72.06.36-.67.72-.67.36.64.72.64.36-.41.72-.41.36.38.72.38.36-.13.72-.13.36-.07.72-.07.36-.08.72-.08.36.37.72.37.36-.05.72-.05.36-.63.72-.63.36.13.72.13.36.28.72.28.36.24.72.24.36-.5.72-.5.36.47.72.47.36-.27.72-.27.36.08.72.08.36-.02.72-.02.36-.1.72-.1.36-.21.72-.21.36.5.72.5.36-.03.72-.03.36-.33.72-.33.36.09.72.09.36.16.72.16.36.02.72.02.36-.29.72-.29.36.37.72.37.36-.16.72-.16.36.19.72.19.36-.6.72-.6.36.1.72.1.36.54.72.54h.72c.36 0 .36-.18.72-.18s.36-.2.72-.2.36-.12.72-.12.36.37.72.37.36.01.72.01.36.02.72.02.36-.14.72-.14.36-.31.72-.31.36.52.73.52.36.04.72.04.36-.31.72-.31.36-.04.72-.04.36-.32.73-.32h.72c.36 0 .36.16.72.16s.36.22.73.22.36.24.73.24.36-.6.73-.6.36.32.72.32.36.02.73.02c.3699 0 .3599-.29.7299-.29s.37.03.73.03.37.27.73.27c.24 0 .46-.29.7-.31s.51.31.74.28.42-.37.66-.41.42-.22.65-.28.54.17.77.1.58.16.8.07.32-.48.54-.58.56 0 .76-.12.24-.53.44-.67.25-.45.44-.6.7.1.88-.06.44-.25.61-.42.05-.62.21-.8.2-.44.35-.63.44-.27.57-.46.03-.53.15-.74.65-.19.76-.41 0-.53.1-.75.23-.42.31-.65.28-.42.34-.66-.09-.52-.05-.75.22-.45.25-.69-.08-.49-.06-.73.19-.48.19-.72c0-.36.14-.36.14-.72s0-.36 0-.72-.06-.36-.06-.72-.51-.36-.51-.72.51-.36.51-.72.1-.36.1-.72-.22-.36-.22-.72-.29-.36-.29-.72.34-.36.34-.72-.29-.36-.29-.72.41-.36.41-.72-.45-.36-.45-.72-.12-.36-.12-.72-.04-.36-.04-.72.56-.36.56-.72-.31-.36-.31-.72.19-.36.19-.72.18-.36.18-.72-.48-.36-.48-.72.32-.36.32-.72-.44-.36-.44-.72.25-.36.25-.72.36-.36.36-.72-.53-.36-.53-.72.23-.36.23-.72.32-.36.32-.72-.37-.36-.37-.72.38-.36.38-.72-.16-.36-.16-.72-.26-.36-.26-.72.09-.36.09-.72.13-.36.13-.72-.32-.36-.32-.72.45-.36.45-.72-.5-.36-.5-.72.08-.36.08-.72-.11-.36-.11-.72.07-.36.07-.72-.09-.36-.09-.72 0-.36 0-.72.44-.36.44-.72.05-.36.05-.72.1-.36.1-.72.01-.36.01-.72-.21-.36-.21-.72.19-.36.19-.72-.38-.36-.38-.72-.24-.36-.24-.72.15-.36.15-.72.07-.36.07-.72.24-.36.24-.72 0-.36 0-.72.1-.36.1-.72-.44-.36-.44-.73.09-.36.09-.72.1-.36.1-.72.34-.36.34-.72-.62-.36-.62-.72.27-.36.27-.72-.3-.36-.3-.73.38-.36.38-.73-.38-.36-.38-.72.05-.36.05-.72.48-.36.48-.72-.46-.36-.46-.72.54-.36.54-.72-.21-.36-.21-.72-.29-.36-.29-.72.18-.36.18-.73 0-.36 0-.72.37-.36.37-.72-.41-.36-.41-.72.05-.36.05-.73-.13-.36-.13-.73-.03-.36-.03-.73.03-.36.03-.73.35-.36.35-.73-.05-.36-.05-.73.19-.36.19-.73-.26-.36-.26-.73-.42-.37-.42-.73.36-.37.36-.73-.15-.37-.15-.73c0-.24.47-.5.45-.74s-.24-.47-.27-.71.07-.51.02-.75-.37-.42-.43-.65.16-.56.08-.78-.66-.27-.75-.49.03-.53-.08-.75-.18-.45-.3-.66-.35-.34-.49-.54.01-.61-.13-.8-.33-.37-.49-.55-.36-.34-.53-.51-.35-.35-.53-.5-.49-.17-.68-.32-.61.05-.81-.09-.14-.67-.34-.79-.46-.16-.68-.27-.43-.22-.65-.31-.44-.19-.67-.27-.51.03-.74-.03-.42-.29-.66-.33-.48-.06-.72-.09-.46-.28-.7-.3-.49.61-.74.61z" stroke="#000" stroke-linecap="round" stroke-linejoin="round" stroke-width="2.6"/><path d="m17.3102 94.6c-.24-.14-.5-.72-.56-.62 0 .02 0 .04.02.07.03.04-.05-.04-.08-.09-.15-.18-.25-.48-.27-.62-.05-.21-.06-.33-.08-.34 0 0-.02.04 0 .15.02.09.14.27.22.34.12.1.09.08-.05.05-.12-.05-.4-.09-.77-.49-.33-.43-.34-.77-.38-.92-.02-.15-.05-.21-.02-.07.1.27.1.22.05.18-.04-.05-.14-.14-.27-.3-.12-.14-.29-.46-.35-.66-.06-.19-.11-.41-.09-.34-.02-.03.06.13.13.22.07.08.13.13.17.17.15.1.09.05-.04 0-.12-.09-.38-.08-.81-.65-.35-.48-.26-1.24-.17-1.45 0 .05-.01.17.05.38.13.34.29.44.34.48.11.08.03.02-.08-.03-.3-.2-.45-.2-.77-.65-.37-.56-.23-1.21-.12-1.54 0 .03-.02.13 0 .3.02.08-.01-.06-.01-.08-.06-.19.02-.8.04-.85.02 0-.06.02.08.41.1.21.1.16.01.07-.07-.11-.29-.26-.45-.81l-.04-.19s.01.08.02.11c.01.06.03.11.04.14.02.06.03.06.02.04-.3-.34-.56-1.19-.33-1.7.09-.27.16-.39.17-.42 0-.02 0 0-.02.07-.01.05-.02.13-.02.2v-.08-.17c.04-.36.36-.88.6-1.06.15-.12 0-.06-.14.25-.13.31-.06.71.14.96.2.24.24.2.12.15-1.09-.55-1.21-2.05-.34-2.79-.07.03-.26.43-.23.6-.03.09.1.44.16.49.06.06-.27-.26-.38-.71-.1-.47-.07-.63 0-.97.04-.16.11-.33.14-.4s.01-.04 0 .02c-.04.11-.03.25-.03.04.02-.41.02-.88.06-1.28-.06-.24-.18-.78 0-1.34.05-.16.12-.3.13-.32 0-.03-.06.21-.05.22 0 .02 0-.18.02-.28.02-.27.17-.63.13-.52-.04.23 0-.01-.03-.17-.01-.13-.02-.3-.02-.43 0 .02.01.2.07.33.05.14.15.25.17.28-.76-.6-.81-1.91-.15-2.57-.03 0-.2.38-.18.49 0-.08.03-.51.04-.63 0-.15-.01.09.06.23.03.07.05.1 0 .03-.3-.38-.33-1.28-.23-1.65-.04-.33.16-.98.27-1.1-.05.12-.18.37.07.79-.26-.2-.65-1.21-.32-1.86.23-.53.57-.72.58-.75.01-.01-.02.01-.1.11-.14.18-.24.5-.16.73-.17-.29-.22-1.01-.12-1.44.02-.04.02-.25.02-.3.03-.43.08-.52.06-.9v-.32c0-.04 0 .17.05.28.05.14.14.27.17.3.1.08-.12-.05-.38-.49-.21-.41-.24-.82-.16-1.25s.41-.82.35-.75c-.06.05-.16.39-.14.46 0-.19.04-.55.13-.78.07-.2-.01.05 0 .05 0-.09 0 .3.13.48.15.19.06.12-.2-.26-.16-.23-.26-.7-.25-.91-.01 0 .07.26 0 .05-.09-.23-.14-.6-.13-.77 0-.04.01.07.01.07-.1-.27-.19-.89-.06-1.25.03-.39.71-1.03.81-1.04-.15.08-.37.51-.36.72v.04-.02c0-.03-.06-.34-.06-.52-.02-.43.04.19-.08-.55-.06-.55.08-.96.04-1.42v-.33c0-.03.02.12.02.1-.05-.06-.16-.66-.14-.8 0 .14.06.33.13.45.14.17-.03.03-.25-.39-.21-.46-.15-.84-.22-1.33-.05-.31.11-1.01.28-1.21.06-.13-.09.2-.07.27-.02-.01.05.39-.09-.36-.05-.35.02-.8.04-.99 0-.17.01-.31.06-.49.16-.59.59-.9.66-.96.13-.09-.06 0-.21.35-.04.12-.06.23-.06.34v-.08l-.03-.32v-.24c0-.09 0 .06.01.12.04.2.22.42.03.15-.35-.5-.29-1.16-.28-1.69 0-.09 0-.48.12-.76.13-.33.05-.13.04-.05 0 .11 0-.02 0-.05-.03-.38-.07-.45 0-.94.04-.33.27-.76.21-.63-.14.28 0 .73.18.93.11.13.15.14.17.16-1.14-.55-1.37-2.21-.2-2.94.19-.12.27-.17.17-.1-.19.11-.42.66-.35.9 0 .2.21.58.34.65.02 0-.15-.07-.45-.39-.23-.24-.42-.76-.4-1.11-.02-.2.12-.77.14-.78-.01.01-.02.15-.01.06-.01-.22.09-.65.18-.83.07-.17-.03.1-.02.13-.02-.06.01.38.16.54.14.16.05.1-.21-.24-.45-.64-.32-1.42-.11-1.87 0 0-.05.19-.03.17-.05-.29.25-1.02.5-1.2.23-.2.22-.23.07-.02-.17.31-.21.53-.07.93.21.41.37.41.3.39-.05-.04-.21-.09-.51-.37-.53-.47-.51-1.23-.5-1.93-.02-.3.19-.84.35-1.01.14-.19-.06.06-.07.24-.02.18-.01.12.01.26.02.06.04.1 0 .04-.14-.27-.23-.74-.18-1.08-.02-.46.61-1.16.7-1.17.09-.07-.13.06-.23.4-.07.29-.03.5.11.73.14.18.13.16-.12-.1-.18-.19-.37-.61-.39-.92-.03-.33.02-.61.09-.87 0 .06.02-.07 0 0 0-.04 0 .04.02.1s-.13-.35-.14-.59c-.03-.38 0-.52.04-.84v-.09s0 .04.01.09c.03.13.11.28-.05-.05-.24-.61-.13-.94-.1-1.46-.01-.11.04-.52.19-.74.15-.36.65-.67.7-.7-.41.31-.43 1.09-.01 1.4.04.02-.08-.03-.35-.29-.13-.12-.3-.36-.38-.62-.11-.32-.08-.66-.05-.97 0-.08 0-.13.01-.23 0-.04.01.09.02.11-.15-.38-.3-1.09.09-1.69.25-.36.36-.43.25-.31-.05.06-.11.2-.13.3-.02.12-.02.2-.02.11v-.28c0-.3-.05-1.05 0-1.38.03-.18.11-.41.21-.57.22-.33.27-.38.16-.2-.1.19-.08.41-.08.32 0-.02.03.13-.03-.09-.06-.21-.07-.52-.07-.6 0-.04.02.1.01.05-.19-.45-.18-1.27.15-1.75-.01 0-.08.24-.07.27 0 .08.02.22.07.34.14.26.24.28.09.17-.07-.06-.19-.17-.31-.35-.31-.43-.33-1.06-.17-1.52.12-.32.08-.21.06-.12v.02c0-.02-.04-.13-.06-.24-.02-.12-.03-.23-.04-.33v-.11c.02-.02-.1-.26-.07-.84.09-.6.24-.81.2-.74.14-.62.22-.63.69-1.09 0 .01-.06.05-.13.21-.03.04-.08.29-.05.19.04-.14.11-.46.15-.6l.02-.09c0-.02 0 .02 0 .02 0 .03 0-.03 0-.17 0-.07 0-.16.02-.28l.03-.19c.01-.05.05-.18.03-.14 0 .03 0-.02.02-.14.01-.12.03-.31.11-.56.04-.11 0 .02 0 .03-.01.03 0 .15 0 .06 0-.07-.03-.23.01-.55.03-.16.07-.35.23-.61.15-.22.29-.32.39-.39.2-.14.31-.18.33-.19-.12.1-.28.39-.28.55 0 .25.03.17 0 .08-.01-.12-.09-.24-.07-.66 0-.2.15-.6.32-.76.29-.34.55-.36.76-.45.01 0 0 0-.06.06-.04.03-.07.07-.12.14-.02.04-.02.03-.02.04 0 .02.04-.04.08-.16.04-.11.15-.35.28-.52-.04.09 0 .06.03-.03.04-.09.09-.26.23-.48.04-.06.06-.1.16-.19.27-.32.77-.35 1.06-.31.03 0 .04 0 0 .03-.01.01-.06.03-.1.07-.03.02-.06.05-.07.08h.01c.08-.04.23-.26.5-.5.24-.21.6-.18.81.06.2.23.15.52.02.76-.03.07-.06.26-.25.56-.2.34-.75.43-1.03.5 0 0 0 .02.09-.01.05-.02.11-.05.19-.13l.06-.06s.03 0 0 .12c-.03.11-.05.3-.21.56 0 .01.03-.03.01.07-.02.08-.04.23-.13.45-.1.28-.44.58-.66.68-.29.12-.33.23-.08.02.1-.08.22-.37.21-.47 0-.21 0-.12.04-.03.07.12.19.8-.01 1.15-.11.34-.61.66-.76.77.01 0 .07-.04.16-.17.11-.17.11-.25.13-.3.01-.1 0-.05.02.1 0 .07.01.17 0 .31 0 .07-.01.15-.03.24 0 .07-.07.25-.05.19.01-.04 0-.02 0 .08s-.01.27-.07.5c-.02.09 0 .02 0 .02v-.03c0 .1.01.25-.02.52-.03.19-.11.48-.16.67l-.02.07c0-.05-.05.25-.1.34-.14.32-.45.63-.58.72 0 0 .02-.01.09-.12.07-.07.15-.52.09-.21-.12.49-.21.67-.16.5-.01-.15.02.03.08.44 0 0 .01.25 0 .21.09.36.13.61.07 1.06-.05.3-.2.6-.15.49.01-.03.02-.08.02-.1 0-.03.01.02 0-.13-.01-.12-.07-.26-.14-.35-.06-.09-.1-.12-.09-.11.01.03.29.18.52.65.27.47.1 1.32-.12 1.6.06-.11.06-.27.06-.23.01.03-.03-.14 0-.03.06.15.13.51.12.68v.04c.1.38.22.86-.07 1.49-.22.38-.34.47-.22.33.06-.09.11-.26.11-.37 0 .19.02.78.02.98.04.38.01 1.04-.29 1.39-.24.29-.3.35-.16.18.13-.17.13-.52.12-.43.01 0-.06-.22.01-.01.19.48.12.93.1 1.4 0 .11.01-.06-.04-.24-.05-.29-.52-.6-.05-.25.99.76.65 2.22-.26 2.67.04-.03.12-.1.21-.26.08-.13.13-.43.11-.43 0 .2-.03.46-.04.66 0 .1 0-.1-.05-.19.17.22.28.83.24 1.19l-.03.35c0 .02 0 .16 0 .1 0-.02-.06-.22.03.04.16.5.13.94.01 1.38-.02.08 0-.05 0 0 .04 0-.09-.48-.2-.55.76.6.8 2-.11 2.63-.12.08.05.02.19-.31.08-.22.07-.32.04-.44-.01-.05-.04-.11-.02-.07.02.03.08.18.13.34.08.36.1.51.05.9s-.38.83-.37.81c.02 0 .16-.33.14-.41v.21l.02.38v.1s0-.18-.03-.27c-.06-.22-.18-.38-.26-.45-.14-.13-.11-.08.02-.01 1.11.57 1.17 2.1.24 2.8.02-.02.12-.13.18-.27.06-.13.08-.33.08-.35.01.2-.06.61-.16.81-.06.17.03-.08.01-.1.02.08-.01-.38-.16-.53-.14-.16-.05-.1.22.24.46.64.32 1.46.1 1.9 0 0 .06-.21.05-.2 0 .12-.02.48-.1.7-.07.22 0 0-.01.01.02-.17-.12-.56-.24-.66-.15-.16-.14-.12.05.01 1.07.76.83 2.37-.29 2.9.5-.3.53-1.28.05-1.62-.1-.07-.02-.02.17.1.11.08.24.16.41.38.41.47.47 1.28.2 1.85-.15.32-.03.08-.02-.03.01-.15 0 0 .01.03l.03.33c0 .18.02.27-.01.59-.03.3-.21.69-.16.56.03-.08.04-.24.03-.12v.65s-.06-.36-.12-.42c-.07-.09.25.3.33.72.02.18.1.93.09 1.09 0 .05-.01.21-.01.26.01.51-.64 1.22-.73 1.23-.09.07.17-.09.27-.46.02-.09.03-.16.04-.23 0-.06 0-.02 0 0 0 .11 0 .21-.02.33l-.03.28c0 .03 0 .12 0 .07-.08-.33.17.48.1.91 0 .3-.23.82-.29.88-.02.06.11-.26.08-.31 0-.07 0 .03 0 .04 0 .09.05.49.05.64 0-.11-.03-.23-.09-.37-.13-.23-.13-.22.12.13.17.26.27.71.26.96.01.01-.05-.2 0-.05.12.31.13.74.12 1.06.02.25 0 .84-.07 1.15.05.09.11.79.09.75 0 .05-.01-.05.02.15.02.14.04.3.04.44.07.48-.31 1.22-.69 1.46-.2.14-.25.2-.1.06.13-.1.31-.53.28-.71.01.02-.04-.18 0-.01.07.2.11.54.1.71 0 .05-.01-.11-.03-.14 0-.02.16.45.15.67v.18s0-.07 0-.11c-.01-.1-.06-.25-.12-.34-.15-.19-.06-.13.19.25.38.72.28 1.22.09 1.78.01-.02.03-.17.03-.14.03.28-.14.84-.33 1.07-.18.24 0 .02.05-.19.04-.2.01-.41-.09-.62-.16-.25-.2-.25.04 0 .1.12.25.34.33.58.13.4.09.61.1.93 0 .3 0 .74-.07 1.03 0-.02 0 .22-.02.42l-.04.27v.05-.06c-.16-.45.27.41.12 1.07-.04.26-.16.52-.3.71s-.26.28-.32.34c-.15.11 0 .06.15-.27.06-.15.08-.32.07-.4 0-.06-.02-.18-.06-.29-.11-.25-.19-.3.04 0 .5.79.32 1.54.05 2.02-.06.13.08-.18.06-.24 0-.11 0 .1 0 .11 0 .16-.03.34-.06.51 0 0 0 .08 0 .04 0-.03 0-.11-.03-.19-.02-.08-.07-.16-.06-.14.4.58.3 1.29.26 1.83.03.33-.23.92-.4 1.08-.17.2.03 0 .08-.24.05-.22.02-.45-.1-.66-.16-.24-.19-.22.03-.01.1.1.26.31.35.55.14.34.11.6.13.87 0 .27.08.47-.07 1.12-.1.31-.05.15-.04.1v.04c.01.22-.1.67-.2.84-.04.07-.01.03 0-.03.04-.13.02-.2.03-.15 0 .02-.03-.14.02.09.1.43.08.73.04 1.11-.01.1-.01.09-.01.18l-.01.39-.01.27s.02.37-.09.69c-.05.16-.12.3-.13.32-.01.03.02-.04.03-.1.02-.13.03-.07-.01-.33-.07-.24-.24-.4-.05-.17.19.21.39.78.36 1.09.04.38-.25 1-.47 1.18-.21.2-.12.17.02-.09.14-.31.11-.6-.06-.91-.23-.33-.3-.29-.22-.26.07.06.3.13.63.54.33.42.41 1.09.2 1.58-.21.52-.55.72-.55.74-.01 0 .03-.02.1-.12.1-.15.17-.34.16-.52 0 .27-.09.59-.18.78-.18.38-.03.14-.05-.11 0-.17-.05-.29-.08-.34-.05-.1-.01-.02.08.11.13.17.29.55.31.81 0 .01 0-.08-.02-.11-.11-.34-.18-.33-.11-.27.05.07.2.18.39.59.25.68.1 1 .07 1.23 0-.04 0-.11 0-.15.05.28.03.48 0 .62-.05.28-.1.39-.1.41.02-.17.05-.33-.16-.7-.16-.23-.24-.25-.26-.28-.04-.02-.01 0 .01 0 .08.05.19.08.48.28.14.11.37.28.54.73.1.3.09.54.08.7-.03.32-.08.43-.08.47-.03.02.12-.12-.17-.65-.31-.39-.35-.29-.28-.29.07.04.21.07.54.3.29.17.55.69.61.96.05.18.07.27.07.27s-.07-.12-.06-.09c0 .01.05.07.15.19.08.13.24.24.4.72.09.35.07.51.07.57-.01.07.01-.05-.18-.31-.23-.24-.3-.18-.23-.15.06.05.24.1.53.34.3.22.52.75.49 1.06 0 .2-.03.3-.05.31-.02 0-.03-.05-.09-.15l-.06-.08s-.08-.09-.03-.03c.16.18.24.58.23.68 0 .09-.02.11-.11.06.64.62-.34 1.66-.99.99z" fill="#000"/><path d="m98.8902 91.54c-.36 0-.36.31-.72.31s-.36-.43-.7201-.43c-.36 0-.3599.21-.7199.21s-.36-.2-.72-.2-.36.11-.72.11-.36.26-.72.26-.36-.04-.72-.04-.36-.15-.72-.15-.36-.43-.72-.43-.36.42-.72.42-.36-.21-.72-.21-.36-.17-.72-.17-.36.02-.72.02-.36.42-.72.42c-.3601 0-.3601-.31-.7201-.31s-.3599.13-.7199.13-.36-.07-.72-.07-.36-.04-.72-.04-.36-.06-.72-.06-.36.39-.72.39-.36-.52-.72-.52-.36.6-.72.6-.36-.51-.72-.51-.36.02-.72.02-.36.28-.72.28-.36.28-.72.28-.36-.04-.72-.04-.36-.61-.72-.61-.36.52-.72.52-.36-.36-.72-.36-.36.5-.72.5-.36-.21-.72-.21-.36-.15-.72-.15-.36.14-.72.14-.36-.44-.72-.44-.36.48-.72.48-.36-.44-.72-.44-.36.54-.72.54-.36-.14-.72-.14-.36-.1-.72-.1-.36.27-.72.27-.36-.33-.72-.33-.36-.19-.72-.19-.36.09-.72.09-.36-.21-.72-.21-.36.21-.72.21-.36-.13-.72-.13-.36.45-.72.45-.36-.53-.72-.53-.36.42-.72.42-.36.11-.72.11-.36.07-.72.07-.36 0-.72 0-.36-.07-.72-.07-.36-.12-.72-.12-.36-.29-.72-.29-.36 0-.72 0-.36.33-.72.33-.36-.24-.72-.24-.36.37-.72.37-.36-.08-.72-.08-.36.06-.72.06-.36-.19-.72-.19-.36-.14-.72-.14-.36.18-.72.18-.36.05-.72.05-.36-.11-.72-.11-.36-.21-.72-.21-.36.29-.72.29-.36-.05-.72-.05-.36-.25-.72-.25-.36-.09-.72-.09-.36.32-.72.32-.36 0-.72 0-.36.11-.72.11-.36-.15-.72-.15-.36-.2-.72-.2-.36.37-.72.37-.36-.01-.72-.01-.36.04-.72.04-.36.14-.72.14-.36-.3-.72-.3-.36-.29-.73-.29-.36-.07-.72-.07-.36.07-.72.07-.36-.05-.72-.05-.36.63-.73.63-.36-.57-.73-.57-.36.1-.73.1-.36.45-.73.45-.36-.05-.73-.05-.36-.28-.73-.28-.36-.25-.72-.25-.36.34-.73.34-.36.2-.73.2-.37-.08-.73-.08-.37-.49-.73-.49c-.25 0-.5.42-.74.4s-.44-.38-.67-.42-.46-.09-.69-.16-.53.06-.76-.03-.41-.27-.63-.39-.51-.1-.72-.23-.13-.63-.32-.78-.35-.29-.53-.46-.44-.23-.6-.42-.59-.17-.72-.38.13-.65.02-.86-.6-.25-.7-.48.19-.58.12-.82-.16-.44-.21-.68.04-.48.02-.72-.16-.46-.16-.7c0-.36-.49-.36-.49-.72s.38-.36.38-.72.08-.36.08-.72-.4-.36-.4-.72.58-.36.58-.72-.49-.36-.49-.72-.06-.36-.06-.72.57-.36.57-.72-.24-.36-.24-.72.2-.36.2-.72-.44-.36-.44-.72.34-.36.34-.72-.04-.36-.04-.72.12-.36.12-.72-.01-.36-.01-.72-.19-.36-.19-.72.1-.36.1-.72-.08-.36-.08-.72-.19-.36-.19-.72-.05-.36-.05-.72-.05-.36-.05-.72.52-.36.52-.72-.21-.36-.21-.72-.26-.36-.26-.72.1-.36.1-.72-.12-.36-.12-.72.16-.36.16-.72.15-.36.15-.72-.41-.36-.41-.72.07-.36.07-.72.21-.36.21-.72-.31-.36-.31-.72.6-.36.6-.72-.61-.36-.61-.72.42-.36.42-.72-.2-.36-.2-.72-.18-.36-.18-.72.48-.36.48-.72.09-.36.09-.72-.27-.36-.27-.72-.26-.36-.26-.72.12-.36.12-.72-.19-.36-.19-.72.12-.36.12-.72.36-.36.36-.72-.47-.36-.47-.72.23-.36.23-.72-.26-.36-.26-.72.58-.36.58-.72-.08-.36-.08-.72-.32-.36-.32-.72.39-.36.39-.72-.22-.36-.22-.72-.15-.36-.15-.72.04-.36.04-.72.22-.36.22-.72.12-.36.12-.72-.29-.36-.29-.72-.28-.36-.28-.72.32-.36.32-.72.11-.36.11-.72-.19-.36-.19-.73.12-.36.12-.72-.09-.36-.09-.72.34-.36.34-.72-.56-.36-.56-.73-.07-.36-.07-.73 0-.36 0-.73.57-.36.57-.73-.51-.36-.51-.73.32-.36.32-.73.11-.36.11-.72.07-.36.07-.73.02-.36.02-.73-.4-.37-.4-.73.13-.37.13-.73c0-.25.1-.48.12-.72s.06-.48.11-.72.33-.4.4-.63-.29-.62-.2-.84.62-.24.74-.45.25-.38.39-.58-.25-.79-.1-.98.75.02.92-.15 0-.74.18-.89.59-.04.79-.18.41-.25.63-.36.42-.24.65-.33.34-.53.58-.6.59.3.83.25.47-.06.71-.08.47-.07.72-.07c.36 0 .36-.34.72-.34s.36.14.72.14.36.18.72.18.36-.2.72-.2.36.18.72.18.36-.09.72-.09.36-.05.72-.05.36-.26.72-.26.36.47.72.47.36.16.72.16.36-.32.72-.32.36.31.72.31.36-.31.72-.31.36.19.72.19.36.05.72.05.36-.41.72-.41.36.22.72.22.36.1.72.1.36-.15.72-.15.36-.1.72-.1.36.38.72.38.36.04.72.04.36-.35.72-.35.36.14.72.14.36-.01.72-.01.36-.34.72-.34.36.38.72.38.36-.23.72-.23.36.24.72.24.36-.03.72-.03.36-.39.72-.39.36.47.72.47.36-.12.72-.12h.72c.36 0 .36-.22.72-.22s.36.15.72.15.36-.11.72-.11.36.3.72.3.36-.52.72-.52.36.09.72.09.36.41.72.41.36-.11.72-.11.36-.25.72-.25.36.43.72.43.36.04.72.04.36-.39.72-.39.36-.09.72-.09.36-.08.72-.08.36.17.72.17.36-.14.72-.14.36.08.72.08.36.26.72.26.36-.05.72-.05.36-.17.72-.17.36-.18.72-.18.36.16.72.16.36.02.72.02.36-.15.72-.15.36.14.72.14.36.43.72.43.36-.24.72-.24.36-.24.72-.24.36.24.72.24.36-.21.72-.21.36.05.72.05.36-.13.72-.13.36.12.72.12.36.41.72.41.36-.31.72-.31.36.18.72.18.36.04.72.04.36.07.72.07.36-.4.72-.4.36.36.72.36.36-.24.72-.24.36-.06.72-.06.36.23.72.23.36.16.72.16.36-.23.72-.23.36-.16.72-.16.36-.22.72-.22.36.12.72.12.36.24.73.24.36.13.72.13.36-.04.72-.04.36.07.72.07.36-.49.73-.49.36.4.73.4.3599.03.73.03c.37 0 .36.16.73.16s.36-.57.73-.57.3599.08.73.08c.37 0 .36-.03.72-.03s.3599-.01.7299-.01c.3701 0 .3601-.07.7301-.07s.37.18.73.18.37-.12.73-.12c.25 0 .49.24.73.26s.4698.11.7098.15.44.22.67.29.63-.3.86-.21.18.75.4.87.73-.27.93-.14.3.45.48.6.53.17.7.35-.06.71.1.9.24.4.37.6.41.3.53.51.42.34.51.57-.11.55-.04.79.17.44.22.68.56.42.58.66-.02.52-.02.76c0 .36-.39.36-.39.72s-.11.36-.11.72.22.36.22.72-.23.36-.23.72-.11.36-.11.72.5.36.5.72-.04.36-.04.72-.24.36-.24.72.03.36.03.72-.23.36-.23.72.26.36.26.72-.26.36-.26.72.5.36.5.72.08.36.08.72-.46.36-.46.72.45.36.45.72-.31.36-.31.72-.26.36-.26.72.37.36.37.72.24.36.24.72.05.36.05.72-.67.36-.67.72.32.36.32.72.33.36.33.72-.18.36-.18.72-.04.36-.04.72-.41.36-.41.72.64.36.64.72-.67.36-.67.72.18.36.18.72.04.36.04.72.39.36.39.72-.29.36-.29.72.1.36.1.72-.3.36-.3.72.39.36.39.72-.1.36-.1.72-.31.36-.31.72.27.36.27.72.08.36.08.72-.13.36-.13.72-.06.36-.06.72.19.36.19.72-.47.36-.47.72.67.36.67.72-.5.36-.5.72.44.36.44.72-.33.36-.33.72-.12.36-.12.72.22.36.22.72-.05.36-.05.72.15.36.15.72-.13.36-.13.72.31.36.31.72-.63.36-.63.72.23.36.23.72.14.36.14.72-.25.36-.25.72-.07.36-.07.72-.09.36-.09.72.11.36.11.72.12.36.12.73-.11.36-.11.72.4.36.4.72-.2.36-.2.72-.24.36-.24.73-.05.36-.05.73.51.36.51.73-.26.36-.26.73-.1.36-.1.73.5.36.5.73-.16.36-.16.72-.17.36-.17.73.33.36.33.73-.07.37-.07.73-.18.37-.18.73c0 .25.08.5.05.74s-.33.45-.38.68-.1.47-.17.7.07.54-.03.77-.59.25-.7.46.23.7.09.9-.68.1-.84.28-.04.61-.21.78-.59.06-.78.22-.21.51-.42.64-.55-.01-.77.1-.28.52-.5.61-.51 0-.74.07-.36.56-.61.61-.5099.06-.7498.08c-.24.02-.5101-.18-.75-.18z" fill="#cebefd"/><path d="m98.8901 91.67c-.36 0-.36-.37-.72-.37s-.36.03-.72.03-.36.14-.72.14-.36.18-.72.18-.36-.33-.72-.33-.36-.02-.72-.02-.36-.1-.72-.1-.36.07-.72.07-.36.41-.72.41-.36.15-.72.15-.36-.55-.72-.55-.36.1-.72.1-.36.41-.72.41-.36-.58-.72-.58-.36.62-.72.62-.36-.57-.72-.57-.36-.02-.72-.02-.36.35-.72.35-.36-.27-.72-.27-.36.4-.72.4-.36.12-.72.12-.36-.47-.72-.47-.36-.14-.72-.14-.36.26-.72.26-.36.05-.72.05-.36-.07-.72-.07-.36-.24-.72-.24-.36.44-.72.44-.36-.44-.72-.44-.36.55-.72.55-.36-.14-.72-.14-.36-.32-.72-.32-.36.32-.72.32-.36.18-.72.18-.36-.48-.72-.48-.36.25-.72.25-.36 0-.72 0-.36.11-.72.11-.36-.03-.72-.03-.36-.03-.72-.03-.36-.1-.72-.1-.36-.36-.72-.36-.36.41-.72.41-.36-.02-.72-.02-.36.22-.72.22-.36-.44-.72-.44-.36.3-.72.3-.36.14-.72.14-.36-.29-.72-.29-.36.29-.72.29-.36-.43-.72-.43-.36.35-.72.35-.36-.55-.72-.55-.36.15-.72.15-.36 0-.72 0-.36.39-.72.39-.36-.29-.72-.29-.36.04-.72.04-.36-.05-.72-.05-.36 0-.72 0-.36.04-.72.04-.36.27-.72.27-.36-.55-.72-.55-.36 0-.72 0-.36.64-.72.64-.36-.42-.72-.42-.36.38-.72.38-.36-.6-.72-.6-.36.57-.72.57-.36 0-.72 0-.36.02-.72.02-.36-.34-.72-.34-.36-.24-.72-.24-.36.51-.72.51-.36.02-.72.02-.36-.32-.72-.32-.36-.12-.72-.12-.36.51-.72.51-.36-.09-.72-.09-.36.09-.72.09-.36-.36-.72-.36-.36.3-.72.3-.36-.3-.73-.3-.36.17-.72.17-.36.05-.72.05-.36.15-.72.15-.36-.54-.73-.54-.36.2-.73.2-.36-.28-.73-.28-.36.18-.73.18-.36.04-.73.04-.36 0-.73 0-.36-.1-.72-.1-.36.18-.73.18-.36-.11-.73-.11-.37-.18-.73-.18-.37.17-.73.17c-.25 0-.49.08-.73.05s-.47-.11-.71-.16-.46-.12-.7-.19-.48-.09-.71-.18-.52-.04-.74-.16-.53-.11-.73-.25-.44-.28-.63-.43-.21-.52-.39-.69-.04-.6-.2-.79-.61-.14-.75-.34-.14-.49-.25-.7-.21-.43-.3-.66-.37-.39-.44-.62-.02-.5-.07-.74-.33-.46-.36-.7.28-.51.28-.76c0-.36.07-.36.07-.72s-.11-.36-.11-.72-.23-.36-.23-.72.49-.36.49-.72-.51-.36-.51-.72.25-.36.25-.72-.02-.36-.02-.72-.12-.36-.12-.72.2-.36.2-.72 0-.36 0-.72.12-.36.12-.72-.05-.36-.05-.72-.09-.36-.09-.72-.2-.36-.2-.72.44-.36.44-.72-.5-.36-.5-.72.35-.36.35-.72-.29-.36-.29-.72.3-.36.3-.72.08-.36.08-.72.02-.36.02-.72-.42-.36-.42-.72-.13-.36-.13-.72.5-.36.5-.72-.38-.36-.38-.72-.07-.36-.07-.72-.04-.36-.04-.72.32-.36.32-.72-.37-.36-.37-.72.11-.36.11-.72.27-.36.27-.72-.33-.36-.33-.72.32-.36.32-.72 0-.36 0-.72.21-.36.21-.72-.25-.36-.25-.72.33-.36.33-.72-.15-.36-.15-.72-.41-.36-.41-.72.54-.36.54-.72 0-.36 0-.72-.4-.36-.4-.72.02-.36.02-.72.09-.36.09-.72-.11-.36-.11-.72.03-.36.03-.72.15-.36.15-.72-.34-.36-.34-.72.03-.36.03-.72.14-.36.14-.72-.03-.36-.03-.72-.03-.36-.03-.72.25-.36.25-.72-.04-.36-.04-.72.02-.36.02-.72.02-.36.02-.72-.19-.36-.19-.72-.29-.36-.29-.72.67-.36.67-.72-.06-.36-.06-.72-.16-.36-.16-.72-.19-.36-.19-.73 0-.36 0-.72.11-.36.11-.72-.34-.36-.34-.72.12-.36.12-.73.25-.36.25-.73.3-.36.3-.73-.55-.36-.55-.73.17-.36.17-.73-.15-.36-.15-.73.28-.36.28-.72-.06-.36-.06-.73-.36-.36-.36-.73.49-.37.49-.73-.2-.37-.2-.73c0-.25.12-.48.15-.72s-.08-.51-.03-.74-.09-.55-.02-.78.43-.38.52-.6.03-.53.15-.75.39-.34.53-.54.35-.34.51-.53.13-.54.31-.71.31-.41.5-.57.64.04.84-.09.45-.14.67-.26.42-.17.65-.26.36-.36.6-.43.44-.21.68-.26.49.06.73.03.46-.11.71-.11c.36 0 .36-.42.72-.42s.36.44.72.44.36-.04.72-.04.36-.11.72-.11.36-.16.72-.16.36.49.72.49.36-.58.72-.58.36-.1.72-.1.36.68.72.68.36-.02.72-.02.36-.33.72-.33.36.02.72.02.36-.2.72-.2.36.43.72.43.36-.07.72-.07.36-.17.72-.17.36-.03.72-.03.36-.13.72-.13.36.28.72.28.36.05.72.05.36-.44.72-.44.36.11.72.11.36.07.72.07.36.38.72.38.36-.43.72-.43.36-.17.72-.17.36.36.72.36.36-.23.72-.23.36.28.72.28.36.15.72.15.36-.55.72-.55.36.03.72.03.36.56.72.56.36-.19.72-.19.36.26.72.26.36-.51.72-.51.36.28.72.28.36.09.72.09.36-.19.72-.19.36-.11.72-.11.36-.13.72-.13.36.27.72.27.36-.24.72-.24.36.08.72.08.36.47.72.47.36-.47.72-.47h.72c.36 0 .36.32.72.32s.36-.02.72-.02h.72c.36 0 .36.18.72.18s.36-.2.72-.2.36-.41.72-.41.36.36.72.36.36-.26.72-.26.36.09.72.09.36.18.72.18.36-.13.72-.13.36-.1.72-.1.36-.1.72-.1.36.26.72.26.36.16.72.16.36.11.72.11.36-.61.72-.61.36.02.72.02h.72c.36 0 .36.03.72.03s.36.15.72.15.36.09.72.09.36.05.72.05.36-.29.72-.29.36.31.72.31.36-.36.72-.36h.72c.36 0 .36.59.72.59s.36-.55.72-.55.36.51.72.51.36-.48.72-.48h.72c.36 0 .36.1.72.1s.36.41.72.41.36-.42.72-.42.36-.12.73-.12.36.47.72.47.36-.04.72-.04h.72c.36 0 .36.08.73.08s.36.02.73.02.36-.32.73-.32.36.28.73.28.36-.21.73-.21.36-.16.73-.16.36-.07.72-.07.36.44.73.44.36-.09.73-.09.37.02.73.02.37-.16.73-.16c.25 0 .52-.27.76-.25s.4699.29.6999.34.57-.18.8-.11.4.4.62.5.35.39.56.51.43.2.63.34.46.19.65.34.22.47.39.64.61.1.76.29.09.54.23.75.26.4.37.62.59.27.68.5-.05.55.02.79-.23.54-.18.78.59.4.62.64-.52.5-.52.75c0 .36.54.36.54.72s-.23.36-.23.72-.3.36-.3.72.25.36.25.72.39.36.39.72-.4.36-.4.72.01.36.01.72.07.36.07.72-.14.36-.14.72-.1.36-.1.72.25.36.25.72.14.36.14.72-.2.36-.2.72.18.36.18.72.16.36.16.72-.24.36-.24.72.19.36.19.72-.17.36-.17.72-.27.36-.27.72-.09.36-.09.72.21.36.21.72.23.36.23.72-.21.36-.21.72-.18.36-.18.72.3.36.3.72-.11.36-.11.72-.21.36-.21.72.05.36.05.72.45.36.45.72-.54.36-.54.72.41.36.41.72-.14.36-.14.72.16.36.16.72-.4.36-.4.72.29.36.29.72.1.36.1.72.14.36.14.72-.46.36-.46.72.12.36.12.72.28.36.28.72-.05.36-.05.72.07.36.07.72.09.36.09.72-.41.36-.41.72-.11.36-.11.72.11.36.11.72.35.36.35.72-.47.36-.47.72.15.36.15.72-.29.36-.29.72.14.36.14.72-.02.36-.02.72.51.36.51.72-.13.36-.13.72-.2.36-.2.72.06.36.06.72-.14.36-.14.72.19.36.19.72-.04.36-.04.72-.01.36-.01.72-.26.36-.26.72.25.36.25.73-.2.36-.2.72-.05.36-.05.72.38.36.38.72.01.36.01.73.11.36.11.73-.36.36-.36.73-.08.36-.08.73.26.36.26.73-.4.36-.4.73.33.36.33.72.03.36.03.73-.23.36-.23.73.06.37.06.73.46.37.46.73c0 .25-.26.5-.28.74s.04.51 0 .75-.42.4-.49.63.3.64.21.86-.36.4-.48.61-.3.41-.43.61-.35.36-.5.55-.49.2-.67.37-.41.24-.6.39-.2.52-.4.65-.51.07-.72.18-.28.52-.51.62-.54-.07-.77 0-.49-.05-.73 0c-.2399.05-.3999.55-.6399.57s-.5.08-.74.08z" stroke="#000" stroke-linecap="round" stroke-linejoin="round" stroke-width="2.6"/><path d="m92.6803 82.56c-.36 0-.36.12-.72.12s-.36-.48-.72-.48-.36.21-.72.21-.36.05-.72.05-.36-.17-.72-.18-.36.25-.72.25-.36-.45-.72-.45-.36.05-.72.05-.36-.03-.72-.03-.36.27-.72.27-.36-.25-.72-.26-.36.12-.72.12-.36.23-.72.23-.36.14-.72.14-.36-.59-.72-.6-.36-.02-.72-.02-.36.22-.72.22-.36-.14-.72-.14-.36.15-.72.15-.36.04-.72.04-.36.13-.72.13-.36-.16-.72-.16-.36-.24-.72-.24-.36.13-.72.12-.36.41-.72.4-.36-.12-.72-.12-.36-.35-.72-.35-.36.28-.72.28-.36-.22-.72-.22-.36.5-.72.5-.36-.14-.72-.14-.36-.24-.72-.24-.36-.13-.72-.13-.36 0-.72 0-.36.46-.72.46-.36.1-.72.1-.36-.52-.72-.52-.36.09-.72.09-.36.13-.72.13-.36-.15-.72-.15-.36.25-.72.25-.36-.08-.72-.08-.36.27-.72.27-.36-.53-.72-.53-.36.43-.72.43-.36.05-.72.05-.36-.21-.72-.21-.36-.13-.72-.13-.36-.17-.72-.17-.36.21-.72.21-.36.19-.72.18-.36-.21-.72-.21-.36.37-.72.37-.36-.25-.72-.25-.36-.28-.72-.29-.36.53-.73.53-.36-.51-.72-.51-.36.17-.72.17-.36-.25-.72-.25-.36.28-.72.27-.36 0-.72 0-.36-.33-.72-.33-.36.1-.72.1-.36-.12-.73-.12-.36.63-.73.63-.36-.63-.72-.63-.36 0-.72 0-.36.08-.73.08-.36.07-.73.07-.36 0-.73 0-.36-.19-.73-.19-.36.24-.73.24-.36-.17-.73-.17-.36.32-.73.32-.36-.17-.73-.17-.37.23-.73.23-.37.04-.73.04-.37-.3-.73-.3c-.25 0-.51.29-.75.26s-.53.06-.77 0-.32-.66-.55-.75-.56.1-.78 0-.32-.41-.53-.54-.51-.1-.7-.26-.44-.25-.62-.42-.27-.42-.43-.61-.41-.32-.54-.53-.06-.53-.17-.75-.3-.4-.38-.63-.41-.41-.47-.65.04-.53.02-.77.13-.5.13-.75c0-.36.15-.36.15-.72s-.27-.36-.26-.72.45-.36.45-.72-.05-.36-.05-.72-.19-.36-.19-.72-.25-.36-.25-.72.3-.36.3-.72-.11-.36-.11-.72-.27-.36-.27-.73.46-.36.47-.73.11-.36.11-.73-.25-.36-.25-.73-.18-.36-.18-.73.18-.36.18-.72.01-.36.02-.72-.16-.36-.15-.72.36-.36.36-.72-.25-.36-.25-.72.21-.36.21-.72-.56-.36-.56-.73.03-.36.03-.73.27-.36.27-.73.2-.36.2-.73-.13-.36-.13-.73.29-.36.29-.72-.33-.36-.33-.73-.19-.36-.19-.73.15-.36.15-.73.16-.36.16-.73-.39-.36-.39-.73.61-.36.61-.73-.34-.36-.34-.72-.2-.36-.2-.72.26-.36.26-.72.18-.36.18-.73-.22-.36-.22-.73.2-.36.2-.73.05-.36.05-.73-.39-.36-.39-.73.1-.36.1-.73-.06-.36-.06-.73.15-.36.15-.73-.21-.37-.21-.73.12-.36.12-.73.12-.36.12-.73.21-.36.21-.73-.13-.37-.12-.73-.07-.37-.07-.73-.42-.37-.42-.74.36-.37.36-.73c0-.25.2-.47.23-.71s-.43-.57-.38-.81.65-.32.73-.55-.28-.64-.17-.86.59-.23.72-.44.16-.46.32-.65.17-.5.35-.67.45-.23.64-.39.19-.6.4-.73.69.22.91.12.31-.52.54-.6.57.25.81.2.4-.57.64-.6.51.02.76.02c.36 0 .36.25.72.25s.36.01.72.01.36-.31.72-.31.36.14.72.14.36.13.72.13.36-.24.72-.24.36.04.72.04.36-.11.72-.11.36-.06.72-.06.36.39.72.39.36.19.72.19.36-.09.72-.09.36-.21.72-.21.36.19.72.2.36-.24.72-.24.36.35.72.35.36.02.72.02.36-.24.72-.24.36.26.72.26.36-.31.72-.31.36-.03.72-.03.36.08.72.08.36.19.72.19.36-.26.72-.26.36.35.72.35.36-.44.72-.44.36.34.72.34.36-.4.72-.39.36.25.72.25.36-.01.72-.01.36-.3.72-.3.36.16.72.16.36.08.72.08.36.32.72.32.36-.37.72-.36.36-.15.72-.15.36-.07.72-.07.36.38.72.38.36.24.72.24.36-.27.72-.27.36-.06.72-.06.36.19.72.19.36-.46.72-.46h.72c.36 0 .36.43.72.43s.36-.37.72-.37.36.46.72.46.36-.24.72-.24.36-.03.73-.03.36.18.72.19.36-.25.72-.25.36.14.72.14.36-.26.72-.26.36.16.72.16.36.34.72.34.36-.21.73-.21.36-.31.72-.31.36-.06.72-.06.36.21.72.22.36.18.72.19.36-.23.72-.23.36.14.72.14.36-.09.72-.09.36-.11.73-.11.36.07.72.07.36.14.72.14.36.09.72.09.36-.39.73-.39.36.05.73.05.36.29.73.29.36-.32.73-.31.36.53.73.53.36-.51.73-.51.36.37.72.37.37-.3.73-.3.36.32.73.32.37-.49.73-.49.37.54.73.54c.25 0 .46.07.7.1s.44.12.68.17.48 0 .71.08.38.29.6.39.69-.26.9-.13.42.29.61.45.4.32.57.49-.04.68.11.87.56.19.69.39.15.47.26.69.29.41.37.64-.09.52-.03.76.36.43.38.67.08.49.07.74c0 .36-.26.36-.26.72s.39.36.39.72-.37.36-.37.72.41.36.41.72-.4.36-.4.72.4.36.4.72-.49.36-.5.72.17.36.16.72.39.36.39.73-.46.36-.46.73-.01.36-.01.73-.15.36-.15.73.33.36.33.73-.1.36-.11.72.23.36.23.72-.5.36-.5.72.48.36.48.72-.47.36-.47.72.48.36.47.73-.08.36-.08.73-.33.36-.33.73.06.36.06.73.43.36.43.73-.28.36-.28.72-.24.36-.24.73.55.36.55.73-.56.36-.56.73.18.36.18.73.36.36.36.73-.54.36-.54.73.54.36.54.73-.57.36-.57.72.29.36.29.72.31.36.31.72.02.36.02.73-.09.36-.09.73.1.36.1.73-.63.36-.64.72.31.36.31.73.02.37.02.73.08.36.08.73-.17.36-.17.73-.16.37-.16.73.34.37.34.73-.23.36-.23.73.31.36.31.73-.37.37-.37.73.06.37.06.73-.2.37-.2.73.47.37.46.74c0 .25.07.52.04.76s-.55.41-.6.64.03.5-.05.73.15.6.04.82-.56.26-.69.47.07.67-.08.86-.41.34-.58.51-.39.33-.58.49-.35.4-.56.53-.7-.25-.92-.14-.33.44-.57.52-.46.19-.7.25-.49.05-.74.07-.49.21-.73.21z" fill="#fff"/><path d="m92.6803 82.56c-.36 0-.36.12-.72.12s-.36-.48-.72-.48-.36.21-.72.21-.36.05-.72.05-.36-.17-.72-.18-.36.25-.72.25-.36-.45-.72-.45-.36.05-.72.05-.36-.03-.72-.03-.36.27-.72.27-.36-.25-.72-.26-.36.12-.72.12-.36.23-.72.23-.36.14-.72.14-.36-.59-.72-.6-.36-.02-.72-.02-.36.22-.72.22-.36-.14-.72-.14-.36.15-.72.15-.36.04-.72.04-.36.13-.72.13-.36-.16-.72-.16-.36-.24-.72-.24-.36.13-.72.12-.36.41-.72.4-.36-.12-.72-.12-.36-.35-.72-.35-.36.28-.72.28-.36-.22-.72-.22-.36.5-.72.5-.36-.14-.72-.14-.36-.24-.72-.24-.36-.13-.72-.13-.36 0-.72 0-.36.46-.72.46-.36.1-.72.1-.36-.52-.72-.52-.36.09-.72.09-.36.13-.72.13-.36-.15-.72-.15-.36.25-.72.25-.36-.08-.72-.08-.36.27-.72.27-.36-.53-.72-.53-.36.43-.72.43-.36.05-.72.05-.36-.21-.72-.21-.36-.13-.72-.13-.36-.17-.72-.17-.36.21-.72.21-.36.19-.72.18-.36-.21-.72-.21-.36.37-.72.37-.36-.25-.72-.25-.36-.28-.72-.29-.36.53-.73.53-.36-.51-.72-.51-.36.17-.72.17-.36-.25-.72-.25-.36.28-.72.27-.36 0-.72 0-.36-.33-.72-.33-.36.1-.72.1-.36-.12-.73-.12-.36.63-.73.63-.36-.63-.72-.63-.36 0-.72 0-.36.08-.73.08-.36.07-.73.07-.36 0-.73 0-.36-.19-.73-.19-.36.24-.73.24-.36-.17-.73-.17-.36.32-.73.32-.36-.17-.73-.17-.37.23-.73.23-.37.04-.73.04-.37-.3-.73-.3c-.25 0-.51.29-.75.26s-.53.06-.77 0-.32-.66-.55-.75-.56.1-.78 0-.32-.41-.53-.54-.51-.1-.7-.26-.44-.25-.62-.42-.27-.42-.43-.61-.41-.32-.54-.53-.06-.53-.17-.75-.3-.4-.38-.63-.41-.41-.47-.65.04-.53.02-.77.13-.5.13-.75c0-.36.15-.36.15-.72s-.27-.36-.26-.72.45-.36.45-.72-.05-.36-.05-.72-.19-.36-.19-.72-.25-.36-.25-.72.3-.36.3-.72-.11-.36-.11-.72-.27-.36-.27-.73.46-.36.47-.73.11-.36.11-.73-.25-.36-.25-.73-.18-.36-.18-.73.18-.36.18-.72.01-.36.02-.72-.16-.36-.15-.72.36-.36.36-.72-.25-.36-.25-.72.21-.36.21-.72-.56-.36-.56-.73.03-.36.03-.73.27-.36.27-.73.2-.36.2-.73-.13-.36-.13-.73.29-.36.29-.72-.33-.36-.33-.73-.19-.36-.19-.73.15-.36.15-.73.16-.36.16-.73-.39-.36-.39-.73.61-.36.61-.73-.34-.36-.34-.72-.2-.36-.2-.72.26-.36.26-.72.18-.36.18-.73-.22-.36-.22-.73.2-.36.2-.73.05-.36.05-.73-.39-.36-.39-.73.1-.36.1-.73-.06-.36-.06-.73.15-.36.15-.73-.21-.37-.21-.73.12-.36.12-.73.12-.36.12-.73.21-.36.21-.73-.13-.37-.12-.73-.07-.37-.07-.73-.42-.37-.42-.74.36-.37.36-.73c0-.25.2-.47.23-.71s-.43-.57-.38-.81.65-.32.73-.55-.28-.64-.17-.86.59-.23.72-.44.16-.46.32-.65.17-.5.35-.67.45-.23.64-.39.19-.6.4-.73.69.22.91.12.31-.52.54-.6.57.25.81.2.4-.57.64-.6.51.02.76.02c.36 0 .36.25.72.25s.36.01.72.01.36-.31.72-.31.36.14.72.14.36.13.72.13.36-.24.72-.24.36.04.72.04.36-.11.72-.11.36-.06.72-.06.36.39.72.39.36.19.72.19.36-.09.72-.09.36-.21.72-.21.36.19.72.2.36-.24.72-.24.36.35.72.35.36.02.72.02.36-.24.72-.24.36.26.72.26.36-.31.72-.31.36-.03.72-.03.36.08.72.08.36.19.72.19.36-.26.72-.26.36.35.72.35.36-.44.72-.44.36.34.72.34.36-.4.72-.39.36.25.72.25.36-.01.72-.01.36-.3.72-.3.36.16.72.16.36.08.72.08.36.32.72.32.36-.37.72-.36.36-.15.72-.15.36-.07.72-.07.36.38.72.38.36.24.72.24.36-.27.72-.27.36-.06.72-.06.36.19.72.19.36-.46.72-.46h.72c.36 0 .36.43.72.43s.36-.37.72-.37.36.46.72.46.36-.24.72-.24.36-.03.73-.03.36.18.72.19.36-.25.72-.25.36.14.72.14.36-.26.72-.26.36.16.72.16.36.34.72.34.36-.21.73-.21.36-.31.72-.31.36-.06.72-.06.36.21.72.22.36.18.72.19.36-.23.72-.23.36.14.72.14.36-.09.72-.09.36-.11.73-.11.36.07.72.07.36.14.72.14.36.09.72.09.36-.39.73-.39.36.05.73.05.36.29.73.29.36-.32.73-.31.36.53.73.53.36-.51.73-.51.36.37.72.37.37-.3.73-.3.36.32.73.32.37-.49.73-.49.37.54.73.54c.25 0 .46.07.7.1s.44.12.68.17.48 0 .71.08.38.29.6.39.69-.26.9-.13.42.29.61.45.4.32.57.49-.04.68.11.87.56.19.69.39.15.47.26.69.29.41.37.64-.09.52-.03.76.36.43.38.67.08.49.07.74c0 .36-.26.36-.26.72s.39.36.39.72-.37.36-.37.72.41.36.41.72-.4.36-.4.72.4.36.4.72-.49.36-.5.72.17.36.16.72.39.36.39.73-.46.36-.46.73-.01.36-.01.73-.15.36-.15.73.33.36.33.73-.1.36-.11.72.23.36.23.72-.5.36-.5.72.48.36.48.72-.47.36-.47.72.48.36.47.73-.08.36-.08.73-.33.36-.33.73.06.36.06.73.43.36.43.73-.28.36-.28.72-.24.36-.24.73.55.36.55.73-.56.36-.56.73.18.36.18.73.36.36.36.73-.54.36-.54.73.54.36.54.73-.57.36-.57.72.29.36.29.72.31.36.31.72.02.36.02.73-.09.36-.09.73.1.36.1.73-.63.36-.64.72.31.36.31.73.02.37.02.73.08.36.08.73-.17.36-.17.73-.16.37-.16.73.34.37.34.73-.23.36-.23.73.31.36.31.73-.37.37-.37.73.06.37.06.73-.2.37-.2.73.47.37.46.74c0 .25.07.52.04.76s-.55.41-.6.64.03.5-.05.73.15.6.04.82-.56.26-.69.47.07.67-.08.86-.41.34-.58.51-.39.33-.58.49-.35.4-.56.53-.7-.25-.92-.14-.33.44-.57.52-.46.19-.7.25-.49.05-.74.07-.49.21-.73.21z" stroke="#000" stroke-linecap="round" stroke-linejoin="round" stroke-width="2.6"/><path d="m62.3205 62.19c0-.24.1-.79.09-1.03s-.49-.46-.5-.7.25-.49.24-.73-.13-.47-.14-.72.23-.48.22-.72 0-.48-.02-.72-.09-.47-.1-.71 0-.48-.02-.72.16-.49.14-.73-.37-.45-.39-.69.22-.51.19-.75-.18-.47-.21-.71.06-.5.02-.73-.48-.41-.52-.65.1-.5.05-.74.25-.55.2-.78-.51-.38-.57-.61.01-.5-.05-.73-.11-.47-.18-.7-.44-.36-.52-.58.12-.56.03-.78.05-.56-.05-.77-.42-.34-.53-.56-.13-.49-.25-.7-.22-.45-.35-.65-.25-.43-.4-.62-.55-.19-.71-.37-.53-.14-.7-.31-.22-.45-.4-.61-.36-.3-.55-.44-.5-.09-.7-.22-.32-.36-.54-.48-.33-.39-.55-.49-.32-.5-.55-.59-.54.08-.78.01-.47-.08-.71-.14-.51.13-.75.08-.47.02-.71-.01-.41-.62-.66-.64-.5.4-.75.39-.48-.41-.71-.41-.46.56-.69.57-.54-.61-.78-.58-.44.37-.67.41-.54-.14-.76-.07-.47.16-.69.24-.5.11-.71.21-.39.33-.6.44-.34.38-.54.51-.26.45-.44.59-.38.27-.56.43-.47.2-.63.37-.13.51-.28.7-.45.24-.59.43-.56.21-.69.41-.25.42-.37.63.18.63.07.85-.64.23-.73.45-.12.48-.2.7-.12.47-.2.7-.22.44-.29.66-.02.49-.08.72.28.56.22.79-.46.38-.51.61-.27.44-.31.67.1.51.06.74.12.5.09.74-.48.42-.51.65.21.51.19.75-.08.47-.1.71-.08.47-.1.71-.17.47-.19.7-.16.47-.17.71.13.49.12.72.31.49.3.73.15.49.14.72-.68.46-.69.69c0 .24.03.48.02.71v.71c0 .25.25.54.24.76.3.11.35-.33.67-.33s.34.45.65.36c-.01-.2.06-.5.03-.77-.02-.22.14-.47.11-.72-.02-.23-.12-.45-.13-.7-.02-.23-.34-.45-.35-.69s.31-.47.31-.71-.29-.48-.27-.72.42-.42.46-.66.11-.43.16-.66-.35-.6-.26-.82.63-.21.75-.41.09-.47.24-.65.29-.33.48-.48c.18-.14.46-.29.69-.4-.04-.24.08-.6.05-.83-.03-.24-.5-.42-.52-.65-.02-.24.18-.49.17-.72-.01-.24.11-.47.11-.7 0-.24-.46-.49-.45-.72.01-.24.34-.45.37-.68.03-.24-.04-.49 0-.72.05-.24.04-.49.1-.71.07-.23.54-.31.63-.52.09-.23-.33-.68-.22-.88.12-.21.67-.14.81-.33.14-.2-.05-.65.11-.82s.54-.12.72-.27.42-.19.62-.31.23-.6.44-.69.53.04.75-.02.48.05.71.01.45.01.69 0 .47-.38.7-.36.48.07.71.11.45.19.67.26.38.33.59.42c.22.1.41.19.6.31.21.13.52.41.68.56.15-.19.1-.91.29-1.05s.61.05.84-.04.48.03.72-.02.42-.57.67-.57.51.02.75.05.48.18.71.24.46.16.69.24.35.4.57.5.6-.11.81 0 .45.24.64.38.1.65.28.81.74-.06.9.12-.1.71.04.9.23.39.34.6.42.32.51.54-.01.49.04.73.18.44.21.68-.17.46-.18.7.13.47.09.71c-.04.23-.3.39-.37.63-.07.22.07.5-.03.73-.09.21 0 .53-.11.75-.11.21-.58.45-.71.66.24.06.84-.25 1.05-.15.23.1.16.71.35.85s.51.11.67.29.57.2.7.4.02.56.12.78-.19.57-.12.8.48.35.53.59.39.42.42.66-.48.55-.45.79.09.47.1.7.15.47.16.71.33.47.34.7 0 .48.02.72c.01.25-.06.4-.05.62.34.43.41.56.87.48z" fill="#000"/><path d="m62.3205 62.19c0-.24.1-.79.09-1.03s-.49-.46-.5-.7.25-.49.24-.73-.13-.47-.14-.72.23-.48.22-.72 0-.48-.02-.72-.09-.47-.1-.71 0-.48-.02-.72.16-.49.14-.73-.37-.45-.39-.69.22-.51.19-.75-.18-.47-.21-.71.06-.5.02-.73-.48-.41-.52-.65.1-.5.05-.74.25-.55.2-.78-.51-.38-.57-.61.01-.5-.05-.73-.11-.47-.18-.7-.44-.36-.52-.58.12-.56.03-.78.05-.56-.05-.77-.42-.34-.53-.56-.13-.49-.25-.7-.22-.45-.35-.65-.25-.43-.4-.62-.55-.19-.71-.37-.53-.14-.7-.31-.22-.45-.4-.61-.36-.3-.55-.44-.5-.09-.7-.22-.32-.36-.54-.48-.33-.39-.55-.49-.32-.5-.55-.59-.54.08-.78.01-.47-.08-.71-.14-.51.13-.75.08-.47.02-.71-.01-.41-.62-.66-.64-.5.4-.75.39-.48-.41-.71-.41-.46.56-.69.57-.54-.61-.78-.58-.44.37-.67.41-.54-.14-.76-.07-.47.16-.69.24-.5.11-.71.21-.39.33-.6.44-.34.38-.54.51-.26.45-.44.59-.38.27-.56.43-.47.2-.63.37-.13.51-.28.7-.45.24-.59.43-.56.21-.69.41-.25.42-.37.63.18.63.07.85-.64.23-.73.45-.12.48-.2.7-.12.47-.2.7-.22.44-.29.66-.02.49-.08.72.28.56.22.79-.46.38-.51.61-.27.44-.31.67.1.51.06.74.12.5.09.74-.48.42-.51.65.21.51.19.75-.08.47-.1.71-.08.47-.1.71-.17.47-.19.7-.16.47-.17.71.13.49.12.72.31.49.3.73.15.49.14.72-.68.46-.69.69c0 .24.03.48.02.71v.71c0 .25.25.54.24.76.3.11.35-.33.67-.33s.34.45.65.36c-.01-.2.06-.5.03-.77-.02-.22.14-.47.11-.72-.02-.23-.12-.45-.13-.7-.02-.23-.34-.45-.35-.69s.31-.47.31-.71-.29-.48-.27-.72.42-.42.46-.66.11-.43.16-.66-.35-.6-.26-.82.63-.21.75-.41.09-.47.24-.65.29-.33.48-.48c.18-.14.46-.29.69-.4-.04-.24.08-.6.05-.83-.03-.24-.5-.42-.52-.65-.02-.24.18-.49.17-.72-.01-.24.11-.47.11-.7 0-.24-.46-.49-.45-.72.01-.24.34-.45.37-.68.03-.24-.04-.49 0-.72.05-.24.04-.49.1-.71.07-.23.54-.31.63-.52.09-.23-.33-.68-.22-.88.12-.21.67-.14.81-.33.14-.2-.05-.65.11-.82s.54-.12.72-.27.42-.19.62-.31.23-.6.44-.69.53.04.75-.02.48.05.71.01.45.01.69 0 .47-.38.7-.36.48.07.71.11.45.19.67.26.38.33.59.42c.22.1.41.19.6.31.21.13.52.41.68.56.15-.19.1-.91.29-1.05s.61.05.84-.04.48.03.72-.02.42-.57.67-.57.51.02.75.05.48.18.71.24.46.16.69.24.35.4.57.5.6-.11.81 0 .45.24.64.38.1.65.28.81.74-.06.9.12-.1.71.04.9.23.39.34.6.42.32.51.54-.01.49.04.73.18.44.21.68-.17.46-.18.7.13.47.09.71c-.04.23-.3.39-.37.63-.07.22.07.5-.03.73-.09.21 0 .53-.11.75-.11.21-.58.45-.71.66.24.06.84-.25 1.05-.15.23.1.16.71.35.85s.51.11.67.29.57.2.7.4.02.56.12.78-.19.57-.12.8.48.35.53.59.39.42.42.66-.48.55-.45.79.09.47.1.7.15.47.16.71.33.47.34.7 0 .48.02.72c.01.25-.06.4-.05.62.34.43.41.56.87.48z" stroke="#000" stroke-linecap="round" stroke-linejoin="round" stroke-width="2.6"/><path d="m52.0404 50.79c.02.06-.5.26-.49.32" stroke="#000" stroke-linecap="round" stroke-linejoin="round" stroke-width="2.6"/><path d="m47.4204 50.69c0 .11.11.21.11.31" stroke="#000" stroke-linecap="round" stroke-linejoin="round" stroke-width="2.6"/><path d="m49.0001 60.45c-.26-.06-.44-.26-.66-.34-.25-.09-.65.21-.85.1-.23-.13-.58-.17-.75-.33-.19-.18-.34-.48-.46-.69s-.23-.52-.29-.76-.12-.54-.12-.79.06-.53.1-.78.34-.44.42-.68c.07-.22.03-.51.18-.67s.41-.22.61-.33.37-.29.58-.36.48.06.69.03c.25-.04.51.11.76.09s.48-.3.73-.29.52-.06.77-.02.43.34.67.42.56-.03.78.1.58.14.76.31.08.63.21.84.02.48.09.72c.08.26.23.45.22.72s.13.55.05.81c-.07.21-.07.48-.18.68s-.29.38-.44.56-.34.31-.54.44c-.18.13-.4.21-.63.29-.2.08-.47-.14-.71-.1-.21.04-.39.62-.63.63-.22 0-.45-.27-.69-.3-.22-.02-.41-.24-.65-.29z" fill="#cebefd"/><path d="m49.0001 60.45c-.26-.06-.44-.26-.66-.34-.25-.09-.65.21-.85.1-.23-.13-.58-.17-.75-.33-.19-.18-.34-.48-.46-.69s-.23-.52-.29-.76-.12-.54-.12-.79.06-.53.1-.78.34-.44.42-.68c.07-.22.03-.51.18-.67s.41-.22.61-.33.37-.29.58-.36.48.06.69.03c.25-.04.51.11.76.09s.48-.3.73-.29.52-.06.77-.02.43.34.67.42.56-.03.78.1.58.14.76.31.08.63.21.84.02.48.09.72c.08.26.23.45.22.72s.13.55.05.81c-.07.21-.07.48-.18.68s-.29.38-.44.56-.34.31-.54.44c-.18.13-.4.21-.63.29-.2.08-.47-.14-.71-.1-.21.04-.39.62-.63.63-.22 0-.45-.27-.69-.3-.22-.02-.41-.24-.65-.29z" stroke="#000" stroke-linecap="round" stroke-linejoin="round" stroke-width="2.6"/><path d="m68.8501 44.54c.36 0 .36.18.73.19s.36.05.73.06.37-.17.73-.16.37-.1.73-.1.36.18.73.19.37-.11.73-.1.36.31.72.32.38-.59.74-.59.35.45.72.46.36.14.72.14.37-.3.74-.29.37-.01.73 0 .36.12.73.12.37-.34.74-.34.37-.02.73-.02.36.36.72.36.37-.17.74-.16.36.36.73.37.37.07.73.08.37-.14.74-.13.36.22.73.23.37-.22.74-.21.37-.18.74-.17.37.15.73.16.37.06.74.07.38-.36.75-.35.37.14.74.14" stroke="#000" stroke-linecap="round" stroke-linejoin="round" stroke-width="2.6"/><path d="m69.1504 49.98c.24 0 .48.12.72.11s.48.06.72.06.48 0 .72.01.48.19.71.2.48-.1.72-.09.49-.23.73-.22.48-.04.72-.03.48.06.72.07.45.53.69.54.5-.52.74-.51.48.04.71.05.47.29.7.3.48.03.71.04.47.14.71.14.48.11.71.12.48.05.72.05.48.09.72.09.47-.68.71-.68.49.48.72.48" stroke="#000" stroke-linecap="round" stroke-linejoin="round" stroke-width="2.6"/><path d="m81.2305 56.16c.24 0 .47.27.71.28s.48.02.72.02.48.06.72.07.49-.3.72-.29.48.06.72.07.47.24.71.24.48-.11.72-.1.48 0 .72 0 .48.1.72.11.48-.08.72-.08.48-.04.72-.04" stroke="#000" stroke-linecap="round" stroke-linejoin="round" stroke-width="2.6"/><path d="m69.5903 56.28c.23 0 .47.01.7.02s.47-.07.7-.07.47.1.7.1.48-.58.72-.58.47.16.7.16.46.19.7.19.47-.17.71-.17.46.21.7.21.46.29.7.3.47-.09.7-.08" stroke="#000" stroke-linecap="round" stroke-linejoin="round" stroke-width="2.6"/><path d="m69.6401 61.57c.24.01.51-.5.76-.48s.47.54.71.55.51-.37.75-.36.49.02.74.03.48.34.73.35.5-.17.75-.16.49.05.74.06.49.12.74.12.51-.46.75-.45.48.43.73.43.5-.12.74-.11.5-.11.74-.11.5-.18.75-.18.49.2.74.21.49-.19.74-.19.49.1.74.1.49-.15.74-.15.49.37.73.37" stroke="#000" stroke-linecap="round" stroke-linejoin="round" stroke-width="2.6"/><path d="m68.3901 75.28c.21-.28 0-.52.4-.83.22-.11.27-.16.41-.23.09-.05.19-.11.28-.15.45-.1.78.24 1.06.33.02.01.06-.03-.14-.08-.05-.01-.16 0-.19 0 .14-.08.33-.19.47-.26.02-.01.08-.05.1-.06-.07.01-.16.06-.21.09-.22.19-.12.09-.12-.02.02-.17.26-.78.65-.95.23-.14.56-.19.75-.2s.3-.03.18-.04c-.03 0-.08.01-.14.03-.02 0-.09.04-.06.03.19-.13.51-.22.65-.24.44-.04.37-.14.05.03.08-.08.35-.29.44-.37l.14-.11c-.09.06-.13.11-.14.11.05-.1.29-.58.57-.77.22-.22.75-.38.84-.43 0 0-.06.02-.14.08-.1.07-.3.33-.32.45-.03.11-.01-.01.02-.24.02-.12.05-.28.17-.54.06-.16.45-.62.19-.29-.09.16-.06.11 0-.1.07-.28.41-.8.68-.96.31-.22.47-.27.46-.28 0 0-.07.04-.17.14-.19.2.25-.29.33-.33.3-.22.45-.27.45-.28-.15.05-.45.52-.43.71-.02.27 0 .18-.04 0-.08-.37-.04-1 .26-1.4.33-.45.51-.51.57-.58.03-.02.02-.03-.04.04-.05.05-.22.29-.26.6-.02.52.12.57.06.51-.03-.09-.18-.17-.35-.77-.09-.51-.04-.53-.01-.89.03-.1-.09-.02.11.46.13.37.76.7 1 .67-.05 0-.28.05-.72-.03-.21-.04-.43-.13-.62-.2-.05 0 .14.05.25.03.17 0 .43-.14.31-.07-.21.16-.78.37-.99.36-.32.02-.41.04-.18 0 .11-.02.28-.11.4-.19.04-.03.13-.11.09-.08l-.09.1-.19.19s-.13.18.05-.12c.09-.18.09-.27.1-.29.02-.09-.07.76-.21.94-.11.24-.31.48-.46.64-.28.24-.35.5-.76.76-.15.08-.16.18.09-.14.18-.18.27-.85.16-1.04 0 .02.1.15.22.64l.08.92c.02.85-.17.96-.4 1.39l-.06.1c.17-.22.18-.95-.08-1.27-.06-.16-.47-.47-.47-.44 1.2.37 1.81 1.5 1.28 2.71-.01.02 0 .02.02-.13.04-.21-.08-.68-.26-.88-.29-.32-.31-.24-.17-.19.16.08.44.25.61.44.19.15.5.74.52.81.01.05.01-.05-.26-.25-.18-.11-.15-.07.04 0 .35.07 1.06.68 1.13.86-.02-.02-.1-.09-.24-.16.29.15.42.27.51.36.17.17.25.24.15.15-.14-.1-.39-.18-.58-.19-.51 0-.61.13-.65.14.16-.1.55-.44 1.16-.48.53-.02.82.15.98.23.31.18.4.26.31.2-.06-.02-.23-.12-.59-.1-.26 0-.65.19-.8.38-.08.11 0 0 .16-.22.1-.11.19-.28.57-.51.31-.22.98-.28 1.32-.15.47.16.56.26.59.27-.18-.11-.8-.09-1.01.1-.15.11-.08.07.1-.11.1-.09.24-.21.49-.34.12-.06-.02 0-.05.03-.1.06-.23.17-.27.24-.07.11-.01 0 .22-.32.1-.14.31-.34.5-.44.5-.35 1.37-.19 1.62-.07-.03.01-.09-.07-.53.06-.1.03-.27.12-.35.2.06-.04.19-.13.25-.17l.3-.17c.03-.05-.24.27-.16.19l.19-.36c.05-.09.19-.31.25-.37-.1.13-.18.32-.2.47-.02.39.05.35 0 .24-.18-.38-.16-1.16.05-1.5.03-.06.04-.11 0 .04 0 .1-.09.25.1.72.12.28.41.52.62.6.3.17.74-.18.84-.48.02-.08 0-.05 0 .02-.02.16 0 .34.05.5.14.3.1.88.07 1.04 0-.06-.11-.37-.21-.45-.14-.14-.16-.11-.1-.08.09.04.27.13.36.17.46.21.76.82.79 1.2 0 .12.08.24-.07-.01-.04-.06-.16-.17-.27-.23.11.1.83.27 1.1.4-.13-.02-.29 0-.4.05-.13.07-.1.07-.09.06.19-.14.43-.38.82-.5.3-.11.75-.01.97.17.34.27.37.4.45.5.1.15-.04-.04-.29-.05-.32.02-.23.09-.14.02.12-.04.24-.17.67-.24.27-.03.55.06.81.1.06.05.73-.19.99-.22.16-.03.31-.16.5-.16.2-.02.33 0 .42 0 .11 0 .03 0 0 .14.03.02.03-.13.03-.27.03-.1-.06-.72.29-.62.02 0 .04.02.05.04l.19.23s.03.12.08.24c.04.13.12.24.1.53-.08.55-.69.54-.99.68-.01.02.08-.04.01.01-.18.15-.46.27-.64.36-.22.15-.92.5-1.39.43-.09 0-.22 0-.31.02h.07c.16-.03.06 0-.05.1-.13.06-.29.29-.88.29-.36-.04-.56-.2-.67-.29-.12-.1-.18-.18-.24-.24-.09-.11-.21-.2-.09-.09.04.03.1.07.22.1.17.07.48-.04.52-.05-.03.03-.11.13-.26.28-.17.19-.69.44-1.02.37-.05 0-.49-.09-.56-.1-.57-.12-1.44-.2-1.81-.76-.35-.55-.25-.62-.37-.86-.04-.02.14.27.24.33.03.03.11.08.15.11.02.01.02.01 0 0-.36-.1-.91-.37-1.19-.87-.23-.33-.22-1.01-.21-1.23 0 0 0 .12.03.18-.77-1.83.08-3.92 2.34-3.32.32.1.66.36.84.73.27.71.08.95-.03 1.34-.02.06-.02.08 0 0 0-.03.03-.12.03-.23 0-.08 0-.14-.02-.16-.01-.05 0-.02.02.04.03.14.2.35.14 1.02-.02.25-.2.62-.32.77-.12.35-.5.95-.86 1.16-.27.15-.54.4-.82.49-.71.21-1 0-1.31-.04.02 0 .08.05.44-.02.14-.03.33-.13.45-.23.24-.24.24-.28-.07.21-.1.17-.54.5-.63.52.13-.07.17-.11.17-.11.04.02-.57.55-.85.61-.16.07-.52.13-.72.1-.39-.05-.55-.14-.68-.19-.21-.11-.35-.16-.13-.08.21.09.74.02.93-.12.26-.17.27-.23.29-.23-.16.3-.54.75-.98.9-.43.22-1.23.06-1.43-.09-.33-.18-.44-.28-.37-.22.05.02.21.13.6.12.37-.04.44-.13.48-.13.04-.03-.06.06-.35.24-.11.11-.91.39-1.4.19-.32-.03-.96-.58-1.01-.66 0 0 .02.04.19.12-.26-.13-.44-.28-.56-.4-.23-.24-.3-.35-.3-.33.01 0 .04.05.15.12.08.05.1.05.07.04-.06-.03-.29-.06-.69-.32-.5-.35-.64-.69-.74-.87-.18-.37-.1-.16.02-.05.06.06.1.09.13.11.04.03.05.04 0 0 .02.03-.8-.43-.99-.9-.27-.45-.23-1.16-.09-1.53.07-.19.08-.31.04-.09-.04.33.09.71.3.97.25.27.33.27.34.29-1.38-.39-1.94-1.83-1.02-3.04.03-.04.04-.06.02-.02 0 .06-.14.18-.11.68 0-.18-.06-.65-.05-.82v-.14c0 .12 0 .22.02.28.06.22.04.12-.06-.11-.04-.13-.12-.31-.15-.65-.05-.33.11-.9.31-1.16.41-.53.63-.58.69-.65.03-.02.02-.02-.05.05-.04.04-.09.1-.15.19.1-.2.52-.61.54-.63s.01-.02 0 .01c-.06.07-.15.28-.16.36-.03.16-.01.04.02-.24.02-.15.06-.37.21-.67.24-.42.23-.32.31-.42.3-.29.58-.68.96-.87.18-.18 1.16-.26 1.04-.23 0 0-.21.04-.32.1.15-.1.61-.36 1.11-.39.52-.03.9.1 1.25.27l.06.03c-.02-.01-.13-.04-.16-.04-.18-.02-.14 0 .07-.01 1.41-.07 2.12 1.24 1.84 2.33 0-.02.02 0-.03-.23-.11-.33-.09-.19 0-.06.06.16.34.46.3 1.25-.09.65-.42.99-.76 1.27-.15.1-.2.19-.02-.04.11-.14.19-.46.18-.54 0-.11 0-.11 0-.08 0 .08.08.25.04.79-.02.26-.2.71-.41.92-.17.24-.84.61-.73.52.03-.02.06-.05.11-.11.03-.03.06-.07.08-.1-.15.23-.46.47-.61.55-.58.32-.03.01 0-.2-.03.04-.06.25-.29.64-.06.1-.15.2-.25.3.07-.07.15-.18.2-.27.06-.14.05-.16.05-.15 0 .13-.19.91-.45 1.13-.24.32-.87.57-1.1.61-.02.04.31-.23.26-.23 0-.01-.07.12-.24.34-.16.27-.65.57-.96.74-.4.29-.98.42-1.3.36-.02 0 0-.01.1-.06.02-.01.05-.03.07-.04-.27.19-.97.21-1.1.14-.08-.04.05.04.37-.28.08-.15-.01-.05-.07.06-.07.1-.29.61-.73.78-.14.07-.32.06-.47.09-.21.01-.44.08-.66.05-.46-.11-.46-.22-.67-.44-.07-.11-.17-.22-.1-.22.02 0 .09.02.19-.01-.17 0-.54.03-.66-.02.03-.08-.12.04-.21.12-.11.08-.22.23-.4.24-.04 0-.06-.06-.02-.08z" fill="#000"/><g stroke="#000" stroke-linecap="round" stroke-linejoin="round" stroke-width="2.6"><path d="m84.4902 67.3c.13-.33.62-.22.86-.06s.46.45.31.69c-.09.15-.37.33-.79.37-.06-.2-.39-.42-.44-.62"/><path d="m37.4204 68.24c0 .35-.25.35-.25.71s.24.36.24.71-.06.35-.06.71-.45.35-.45.7.48.36.48.71-.27.35-.28.7.1.36.09.71-.27.35-.27.71.58.36.58.72-.56.35-.56.71"/><path d="m46.9701 68.31c0 .35.07.35.07.71s-.4.35-.4.7.57.36.57.71-.31.35-.32.71-.31.35-.31.71.26.35.25.71-.06.35-.07.71.46.36.46.71-.35.35-.35.71.14.36.14.71"/><path d="m56.6603 68.42c.02.35.26.34.28.69s-.5.38-.49.73.45.33.47.69-.25.37-.24.72-.02.35 0 .71.49.33.51.68-.57.38-.56.74-.04.36-.02.71.3.34.31.7.28.34.3.7"/><path d="m41.6201 68.28c0 .35-.54.35-.54.7s.55.36.55.71-.01.35-.01.71-.54.35-.54.7.09.35.09.71v.71c0 .36.2.36.2.71s-.01.36-.02.71-.29.35-.3.71.23.36.23.71"/><path d="m42.6304 68.19c0 .35.34.36.34.71s-.23.35-.24.71.34.36.34.71-.07.35-.07.71.11.35.11.71-.01.35-.02.71-.04.35-.04.71-.16.35-.16.71-.22.36-.22.71.16.36.16.71"/><path d="m51.1003 68.4c0 .35-.32.36-.31.71s.39.34.4.7-.06.36-.05.71-.27.36-.27.71.5.34.51.7-.19.36-.18.71-.08.36-.07.71-.3.36-.29.72.17.35.18.71-.02.36 0 .71"/><path d="m52.3602 68.28c0 .35.17.35.18.7s-.34.36-.33.71.26.35.26.7.19.35.2.7-.37.36-.37.72.2.35.21.7.26.35.27.7-.28.36-.27.72.28.35.29.71-.5.37-.5.72"/><path d="m60.9905 68.56c0 .35.28.36.27.71s-.3.35-.3.7-.23.35-.23.71.23.36.22.71.1.35.1.71-.24.35-.24.7-.06.35-.06.71.09.36.09.71-.03.36-.04.71.44.36.43.72"/><path d="m62.8704 68.48c0 .35-.3.35-.3.7s.07.35.07.71-.17.35-.17.71.41.36.41.71-.66.35-.67.7.34.36.34.71-.3.35-.3.71.21.36.2.71.34.36.34.72-.62.35-.62.71"/></g></svg>