<svg fill="none" height="35" viewBox="0 0 30 35" width="30" xmlns="http://www.w3.org/2000/svg"><path d="m28.5599 17.54c-.23-.02-.74-.38-.97-.4s-.53.59-.76.56-.41-.54-.65-.56-.52.32-.75.29-.44-.29-.67-.32-.52.23-.75.19-.39-.5-.62-.55-.43-.23-.65-.29-.49.05-.72 0-.51.04-.73-.04-.41-.27-.62-.36-.46-.13-.66-.23-.55 0-.75-.12-.25-.49-.44-.63-.39-.26-.56-.42c-.19-.18-.61-.17-.76-.37-.15-.21-.3-.46-.42-.68s.28-.69.19-.92-.15-.46-.22-.7-.58-.36-.64-.6c-.06-.23.27-.55.21-.78s-.12-.45-.18-.68001c-.06-.23-.23-.42997-.28-.65997s.17-.50999.13-.73999-.34-.41002-.38-.64002-.09-.46-.13-.69-.1-.46-.13-.69-.21-.43999-.24-.67999.15-.50004.12-.73004-.13-.46001-.16-.69001-.21-.44999-.23-.67999-.07-.46995-.1-.69995.06-.72002.04-.96002c-.02.23-.2.69999-.22.92999s-.02.47001-.04.70001 0 .47001-.03.70001.26.50999.23.73999-.4.41997-.43.64997-.22.44004-.26.67004-.05.45995-.09.69995.46.56004.42.79004-.24.43999-.29.66999-.41.4-.46.63.24.54002.19.77c-.05.23-.26.42-.32.65s-.42.38-.47.61c-.06.24-.08.49-.16.73s.21.6.11.83-.52.3-.64.53-.22.41-.38.61c-.15.19 0 .65-.19.84-.17.16-.54.09-.74.23s-.46.11-.67.23-.12.77-.34.87-.53997-.04-.75997.05-.47999.05-.69999.12-.43001.2-.66001.26-.41999.28-.64999.33-.55-.31-.78-.26-.39.47-.62.51-.5-.17-.74-.13-.48001-.02-.71001 0-.46999-.02-.70999 0-.41999.51-.64999.54-.48001.02-.71001.04-.19-.1-.42-.07c.23.02.16.12.4.15s.46.13.69.16.49-.15.72-.12.5-.21.74-.18.44999.19.68999.23.47001.07.70001.11.42.34.65.39.41.29.64.35.46999.02.69999.09.57001-.24.79001-.17.48001.12.69001.2.47995.14.68995.24.24.58.44.7.45.16.64.3.61.04.77.2c.19.18.1.63.25.82.15.21.13.5.25.72s.27.41.36.64.47.37.54.61.26.46.32.7c.06.23-.22.54-.16.77s.38.4.43.63.15.45.2.68-.04.49 0 .72.26.43.3.66 0 .48.04.71.04.47.07.71-.07.49-.04.72.19.45.22.68.24.45.27.68-.14.49-.11.73-.26.5-.24.73.21.44.23.67c.02-.23-.1-.47-.08-.7s.35-.44.37-.67-.45-.52-.42-.76.38-.43.41-.66 0-.47.04-.71.14-.46.17-.69.23-.44.27-.67.25-.43.3-.66-.27-.53-.22-.76.19-.44.23-.67.3-.41.35-.64.02-.48.07-.7-.07-.5 0-.73c.06-.24.22-.46.29-.7s.37-.38.46-.62.13-.45.25-.67-.09-.63.07-.84c.15-.19.62-.08.81-.26.17-.16.19-.45.38-.59s.44-.14.65-.26.42-.15.63-.25.17-.77.39-.86.64.41.87.33.31-.57.54-.64.52.13.75.08.37-.53.6-.58.58.53.81.49.45-.11.68-.15.46-.04.7-.07.45-.14.69-.17.47 0 .71-.02.47-.05.7-.07.75-.32.98-.34z" stroke="#000" stroke-linecap="round" stroke-linejoin="round" stroke-width="2.6"/></svg>