<svg fill="none" height="106" viewBox="0 0 51 106" width="51" xmlns="http://www.w3.org/2000/svg"><path d="m35.3101 37.81c-.23-.04-.6101-.15-.8401-.2s-.52.21-.76.16-.46-.15-.7-.19-.4599-.15-.6999-.2-.4401-.24-.6701-.29-.55.21-.78.15-.4499-.2-.6799-.27-.3101-.62-.5401-.69-.55.15-.78.06-.53.03-.75-.06-.28-.56-.5-.66-.5801.08-.7901-.03-.1798-.65-.3898-.78-.4801-.11-.6801-.25-.55-.06-.74-.2-.42-.25-.6-.41-.37-.32-.54-.49-.17-.51-.32-.69-.3-.36-.45-.55-.16-.46-.3-.66-.66-.16-.78-.37-.19-.48-.3-.7-.1999-.47-.2899-.7-.2201-.46-.3001-.69-.21-.46-.28-.7.19-.57.13-.81-.19-.46-.24-.7.2401-.55.1901-.79-.5801-.39-.6301-.64.3099-.55.2699-.8-.1499-.48-.1799-.72-.52-.43-.55-.67.08-.49.05-.73.09-.49.06-.73 0-.48-.03-.71.09-.49.06-.72-.45-.42-.47-.66-.02-.48-.05-.71.1399-.49.1099-.73-.1-.47-.13-.7-.3899-.44-.4099-.67-.0601-.47-.0901-.71.4-.52.38-.76-.4399-.43-.4599-.67.26-.5.24-.74-.35-.44-.37-.68.58-.53.55-.77-.13-.46-.15-.7-.16-.46-.18-.7-.48-.44-.5-.67.2-.49.18-.73-.1-.46999-.12-.70999.13-.49.11-.72.2-.49002.18-.73001c-.02-.24-.17-.45999-.18-.69999s-.4299-.45-.4399-.69.0599-.48.0499-.72.2299-.49001.2099-.73001-.2899-.45998-.2999-.69998-.11-.47002-.12-.71002.13-.48001.12-.72001.09-.56999.08-.80999c-.01.24.1001.56999.0901.80999s-.0201.47003-.0401.71003.1.48.08.72-.11.46999-.13.70999-.05.46999-.07.70999-.43.45-.44.69.13.48.12.72-.11.47002-.13.70002.33.49999.31.73999.09.48.07.72-.41.44999-.43.67999-.21.46-.23.7.52.52.5.76-.06.47-.08.71-.2599.45-.2799.69.1199.49.0999.72-.4499.43-.4799.67-.1201.46-.1401.7.36.51.33.75-.4099.43-.4399.67.4799.53.4499.76-.4199.43-.4499.67-.0101.48-.0401.71-.37.43-.4.67.2299.5.1999.74.2001.5.1701.74-.06.47-.09.71-.2.45-.24.69.09.49.06.73-.36.43-.39.67.3.54.26.79-.18.48-.22.72-.41.43-.46.68-.06.49-.11.73.22.55.17.79.0301.53-.0299.77-.3501.43-.4201.66-.54.34-.62.57-.17.45-.27.68 0 .53-.1.75-.42.32-.54.54c-.12.21-.24.4-.37.59s-.13.48-.28.66-.42.25-.58.43.04.69-.13.86-.49.18-.67.34-.39.27-.58.41-.44.19-.64.32-.21.56-.41.69c-.20005.13-.49.11-.7.22s-.52999 0-.73999.1-.37999.29-.60999.39-.30002.56-.52002.64c-.21999.08-.58994-.23-.81994-.16s-.47007.08-.70007.15-.45995.12-.68995.19-.34007.59-.58007.65-.49999-.04-.73999.01-.55003-.28-.78003-.23-.38.55-.62.59-.55993-.42-.79993-.38-.19004.41-.42004.45c.23.04.21007.27.45007.31s.52989-.23.75989-.19.42004.32.66004.37.48008.04.71008.09.50999-.08.73999-.03.49998-.01.72998.05.46995.12.69995.18.28.72.5.8.53-.08.75 0 .47006.11.69006.2.43002.22.64002.32.36995.33.57995.44.39999.24.60999.36.45.17.64.31.55.05.74.2.21.5.39.65.3.36.47.53.51.17.67.35.33.36.47.55.3001.38.4301.59.38.34.5.55-.0701.6.0299.83.06.5.16.73.33.39.42.63.16.46.23.7.34.42.4.66-.21.56-.16.8.1201.47.1701.72.5199.41.5699.65-.07.52-.03.76-.27.54-.23.79.51.43.54.67.22.45.26.68-.56.55-.53.79.09.47.12.7.26.44.29.68.47.42.5.66-.59.55-.56.79.2901.44.3201.68-.03.48 0 .72.1999.45.2299.69.04.47.06.71.41.44.43.67-.1199.49-.0999.73-.4601.52-.4401.76.63.42.66.65-.28.5-.26.74.4099.44.4299.68-.2299.5-.2099.73-.15.49-.13.72 0 .48.01.71.54.44.56.67-.4.51-.39.74.17.46.19.7.31.46.32.69-.53.51-.51.75.35.45.36.69-.2.49-.19.72.51.45.52.69-.5499.5-.5399.74.2199.46.2299.7.12.16.13.4c.01-.24.18-.16.2-.4s.2-.47.21-.7-.09-.48-.08-.72-.1-.48-.08-.72-.2-.49-.18-.72.22-.46.23-.7.1999-.46.2199-.7.0401-.47.0501-.71-.22-.49-.2-.73.15-.46.17-.7.13-.47.15-.7-.38-.51-.36-.74.14-.47.16-.7.1299-.47.1599-.7.0001-.48.0201-.71.1901-.46.2201-.7-.1001-.49-.0801-.72.04-.47.06-.71-.24-.5-.21-.74.18-.46.2-.7.32-.44.35-.68.14-.46.16-.7.2499-.45.2799-.68-.53-.54-.5-.78.1701-.46.2001-.69.48-.42.51-.65-.44-.53-.41-.77-.05-.49-.02-.72.46-.42.49-.65-.09-.49-.05-.73c.03-.24.38-.44.41-.69s-.1601-.52-.1301-.77-.2499-.55-.2099-.79.2801-.46.3201-.7.2599-.45.3099-.7.1399-.48.1999-.71.4202-.39.4902-.63-.07-.53 0-.77-.1601-.59-.0601-.82.22-.46.33-.68.12-.51.25-.73c.12-.21.25-.44.38-.64s.31-.4.46-.59.6-.14.76-.32.37-.3.54-.47.32-.34.5-.5.07-.69.26-.83.53-.1.73-.24.46-.18.66-.3.55.02.76-.1.4-.25.62-.35.3401-.41.5601-.5.4999-.03.7199-.12.37-.4.59-.48.43-.24.66-.31.49-.05.72-.11.48-.05.72-.1.4999.03.7299-.02.3802-.54.6102-.59.51.1.75.06.5599.38.7899.34.56-.41.8-.45z" fill="#fff"/><path d="m35.3101 37.81c-.23-.04-.6101-.15-.8401-.2s-.52.21-.76.16-.46-.15-.7-.19-.4599-.15-.6999-.2-.4401-.24-.6701-.29-.55.21-.78.15-.4499-.2-.6799-.27-.3101-.62-.5401-.69-.55.15-.78.06-.53.03-.75-.06-.28-.56-.5-.66-.5801.08-.7901-.03-.1798-.65-.3898-.78-.4801-.11-.6801-.25-.55-.06-.74-.2-.42-.25-.6-.41-.37-.32-.54-.49-.17-.51-.32-.69-.3-.36-.45-.55-.16-.46-.3-.66-.66-.16-.78-.37-.19-.48-.3-.7-.1999-.47-.2899-.7-.2201-.46-.3001-.69-.21-.46-.28-.7.19-.57.13-.81-.19-.46-.24-.7.2401-.55.1901-.79-.5801-.39-.6301-.64.3099-.55.2699-.8-.1499-.48-.1799-.72-.52-.43-.55-.67.08-.49.05-.73.09-.49.06-.73 0-.48-.03-.71.09-.49.06-.72-.45-.42-.47-.66-.02-.48-.05-.71.1399-.49.1099-.73-.1-.47-.13-.7-.3899-.44-.4099-.67-.0601-.47-.0901-.71.4-.52.38-.76-.4399-.43-.4599-.67.26-.5.24-.74-.35-.44-.37-.68.58-.53.55-.77-.13-.46-.15-.7-.16-.46-.18-.7-.48-.44-.5-.67.2-.49.18-.73-.1-.46999-.12-.70999.13-.49.11-.72.2-.49001.18-.73001-.17-.45999-.18-.69999-.4299-.45-.4399-.69.0599-.48.0499-.72.2299-.49001.2099-.73001-.2899-.45998-.2999-.69998-.11-.47002-.12-.71002.13-.48001.12-.72001.09-.56999.08-.80999c-.01.24.1001.56999.0901.80999s-.0201.47003-.0401.71003.1.48.08.72-.11.46999-.13.70999-.05.46999-.07.70999-.43.45-.44.69.13.48.12.72-.11.47002-.13.70002.33.49999.31.73999.09.48.07.72-.41.44999-.43.67999-.21.46-.23.7.52.52.5.76-.06.47-.08.71-.2599.45-.2799.69.1199.49.0999.72-.4499.43-.4799.67-.1201.46-.1401.7.36.51.33.75-.4099.43-.4399.67.4799.53.4499.76-.4199.43-.4499.67-.0101.48-.0401.71-.37.43-.4.67.2299.5.1999.74.2001.5.1701.74-.06.47-.09.71-.2.45-.24.69.09.49.06.73-.36.43-.39.67.3.54.26.79-.18.48-.22.72-.41.43-.46.68-.06.49-.11.73.22.55.17.79.0301.53-.0299.77-.3501.43-.4201.66-.54.34-.62.57-.17.45-.27.68 0 .53-.1.75-.42.32-.54.54c-.12.21-.24.4-.37.59s-.13.48-.28.66-.42.25-.58.43.04.69-.13.86-.49.18-.67.34-.39.27-.58.41-.44.19-.64.32-.21.56-.41.69c-.20005.13-.49.11-.7.22s-.52999 0-.73999.1-.37999.29-.60999.39-.30002.56-.52002.64-.58994-.23-.81994-.16-.47007.08-.70007.15-.45995.12-.68995.19-.34007.59-.58007.65-.49999-.04-.73999.01-.55003-.28-.78003-.23-.38.55-.62.59-.55993-.42-.79993-.38-.19004.41-.42004.45c.23.04.21007.27.45007.31s.52989-.23.75989-.19.42004.32.66004.37.48008.04.71008.09.50999-.08.73999-.03.49998-.01.72998.05.46995.12.69995.18.28.72.5.8.53-.08.75 0 .47006.11.69006.2.43002.22.64002.32.36995.33.57995.44.39999.24.60999.36.45.17.64.31.55.05.74.2.21.5.39.65.3.36.47.53.51.17.67.35.33.36.47.55.3001.38.4301.59.38.34.5.55-.0701.6.0299.83.06.5.16.73.33.39.42.63.16.46.23.7.34.42.4.66-.21.56-.16.8.1201.47.1701.72.5199.41.5699.65-.07.52-.03.76-.27.54-.23.79.51.43.54.67.22.45.26.68-.56.55-.53.79.09.47.12.7.26.44.29.68.47.42.5.66-.59.55-.56.79.2901.44.3201.68-.03.48 0 .72.1999.45.2299.69.04.47.06.71.41.44.43.67-.1199.49-.0999.73-.4601.52-.4401.76.63.42.66.65-.28.5-.26.74.4099.44.4299.68-.2299.5-.2099.73-.15.49-.13.72 0 .48.01.71.54.44.56.67-.4.51-.39.74.17.46.19.7.31.46.32.69-.53.51-.51.75.35.45.36.69-.2.49-.19.72.51.45.52.69-.5499.5-.5399.74.2199.46.2299.7.12.16.13.4c.01-.24.18-.16.2-.4s.2-.47.21-.7-.09-.48-.08-.72-.1-.48-.08-.72-.2-.49-.18-.72.22-.46.23-.7.1999-.46.2199-.7.0401-.47.0501-.71-.22-.49-.2-.73.15-.46.17-.7.13-.47.15-.7-.38-.51-.36-.74.14-.47.16-.7.1299-.47.1599-.7.0001-.48.0201-.71.1901-.46.2201-.7-.1001-.49-.0801-.72.04-.47.06-.71-.24-.5-.21-.74.18-.46.2-.7.32-.44.35-.68.14-.46.16-.7.2499-.45.2799-.68-.53-.54-.5-.78.1701-.46.2001-.69.48-.42.51-.65-.44-.53-.41-.77-.05-.49-.02-.72.46-.42.49-.65-.09-.49-.05-.73c.03-.24.38-.44.41-.69s-.1601-.52-.1301-.77-.2499-.55-.2099-.79.2801-.46.3201-.7.2599-.45.3099-.7.1399-.48.1999-.71.4202-.39.4902-.63-.07-.53 0-.77-.1601-.59-.0601-.82.22-.46.33-.68.12-.51.25-.73c.12-.21.25-.44.38-.64s.31-.4.46-.59.6-.14.76-.32.37-.3.54-.47.32-.34.5-.5.07-.69.26-.83.53-.1.73-.24.46-.18.66-.3.55.02.76-.1.4-.25.62-.35.3401-.41.5601-.5.4999-.03.7199-.12.37-.4.59-.48.43-.24.66-.31.49-.05.72-.11.48-.05.72-.1.4999.03.7299-.02.3802-.54.6102-.59.51.1.75.06.5599.38.7899.34.56-.41.8-.45z" stroke="#000" stroke-linecap="round" stroke-linejoin="round" stroke-width="2.6"/><path d="m38.7703 72.66c-.01.24.05.81.03 1.05s-.2001.47-.2201.71.14.49.12.73-.24.47-.26.71.08.49.06.73-.37.45-.39.69.25.51.22.75-.2599.46-.2899.69.4399.54.4099.78-.6199.4-.6599.63.05.49.01.72.2399.54.1999.77-.2899.43-.3499.66-.0901.48-.1601.7c-.07.24.2.58.13.8-.08.23-.32.42-.41.63-.1.23-.2099.46-.3199.66-.14.25-.5101.32-.6601.5-.17.22-.2399.51-.4199.67-.21.18-.4001.38-.6201.5-.23.13-.51.17-.74.27-.22.1-.4.32-.62.41s-.4499.19-.6799.28-.53-.02-.75.06-.37.47-.6.54-.53-.04-.76.02-.4801.1-.7101.16-.5.02-.73.06-.4499.26-.6899.3-.2201-.11-.4601-.07c.24.03.2301-.16.4701-.12s.48.09.72.14.4.44.64.49.5 0 .73.07.4599.14.6999.21.4901.07.7201.15.4399.22.6699.3.4701.13.7001.22.39.32.61.42c.23.1.4299.26.6599.39.22.12.6501-.04.8601.14.18.16.21.52.38.74.15.19.5499.25.6899.5.11.2.0501.51.1501.74.09.21.0999.47.1799.7.08.22.2501.42.3201.65.06.22.1799.45.2299.69s.1101.47.1501.71.1699.45.2099.69-.06.5-.03.74.08.47.11.71.29.45.31.69.05.48.07.72-.52.53-.5.77 0 .48.01.72.62.44.64.68-.15.5-.14.74.1901.48.2001.72-.25.5-.23.74.0399.62.0499.86c.01-.24-.0899-.62-.0699-.86s.4499-.45.4599-.69-.28-.5-.27-.74-.29-.5-.27-.74.14-.48.16-.71.44-.45.46-.69-.13-.5-.11-.74.36-.45.39-.68-.14-.5-.11-.74.0201-.48.0601-.72-.2801-.54-.2401-.77.6601-.37.7101-.6-.3601-.58-.3101-.8.1601-.47.2201-.69c.07-.24.3199-.41.3999-.63.08-.23.2301-.43.3201-.64.1-.23-.1901-.65-.0801-.85.14-.25.64-.25.78-.44.17-.22.32-.42.5-.58.21-.18.4401-.26.6601-.39.23-.13.3799-.4.6099-.51.22-.1.4301-.24.6501-.33s.55.08.78 0 .37-.4.6-.48.5-.03.73-.1.4399-.23.6799-.29.4901-.06.7201-.11.4499-.23.6899-.28.4501-.26.6901-.3.8099.22 1.0499.19c-.24-.03-.8099.18-1.0499.14s-.38-.63-.61-.68-.5001.05-.7401 0-.5399.15-.7699.09-.4701-.12-.7101-.19-.53.05-.76-.03-.4499-.2-.6799-.29-.27-.64-.5-.74-.5701.11-.8001.01-.3199-.49-.5499-.62c-.22-.12-.42-.22-.63-.4-.18-.16-.48-.2-.65-.42-.15-.19-.5001-.29-.6401-.53-.11-.2.22-.63.12-.86-.09-.21-.22-.4-.3-.63-.08-.22-.4799-.34-.5499-.58-.06-.22-.03-.48-.09-.72s-.09-.47-.14-.71.03-.49-.01-.73.1099-.5.0799-.74-.09-.46-.13-.7-.3199-.44-.3399-.68-.0201-.48-.0501-.72.2101-.5.1901-.74-.1401-.47-.1501-.71-.49-.45-.51-.69.46-.52.45-.76-.18-.48-.19-.72-.28-.47-.29-.71.14-.81.13-1.05z" fill="#fff"/><path d="m38.7703 72.66c-.01.24.05.81.03 1.05s-.2001.47-.2201.71.14.49.12.73-.24.47-.26.71.08.49.06.73-.37.45-.39.69.25.51.22.75-.2599.46-.2899.69.4399.54.4099.78-.6199.4-.6599.63.05.49.01.72.2399.54.1999.77-.2899.43-.3499.66-.0901.48-.1601.7c-.07.24.2.58.13.8-.08.23-.32.42-.41.63-.1.23-.2099.46-.3199.66-.14.25-.5101.32-.6601.5-.17.22-.2399.51-.4199.67-.21.18-.4001.38-.6201.5-.23.13-.51.17-.74.27-.22.1-.4.32-.62.41s-.4499.19-.6799.28-.53-.02-.75.06-.37.47-.6.54-.53-.04-.76.02-.4801.1-.7101.16-.5.02-.73.06-.4499.26-.6899.3-.2201-.11-.4601-.07c.24.03.2301-.16.4701-.12s.48.09.72.14.4.44.64.49.5 0 .73.07.4599.14.6999.21.4901.07.7201.15.4399.22.6699.3.4701.13.7001.22.39.32.61.42c.23.1.4299.26.6599.39.22.12.6501-.04.8601.14.18.16.21.52.38.74.15.19.5499.25.6899.5.11.2.0501.51.1501.74.09.21.0999.47.1799.7.08.22.2501.42.3201.65.06.22.1799.45.2299.69s.1101.47.1501.71.1699.45.2099.69-.06.5-.03.74.08.47.11.71.29.45.31.69.05.48.07.72-.52.53-.5.77 0 .48.01.72.62.44.64.68-.15.5-.14.74.1901.48.2001.72-.25.5-.23.74.0399.62.0499.86c.01-.24-.0899-.62-.0699-.86s.4499-.45.4599-.69-.28-.5-.27-.74-.29-.5-.27-.74.14-.48.16-.71.44-.45.46-.69-.13-.5-.11-.74.36-.45.39-.68-.14-.5-.11-.74.0201-.48.0601-.72-.2801-.54-.2401-.77.6601-.37.7101-.6-.3601-.58-.3101-.8.1601-.47.2201-.69c.07-.24.3199-.41.3999-.63.08-.23.2301-.43.3201-.64.1-.23-.1901-.65-.0801-.85.14-.25.64-.25.78-.44.17-.22.32-.42.5-.58.21-.18.4401-.26.6601-.39.23-.13.3799-.4.6099-.51.22-.1.4301-.24.6501-.33s.55.08.78 0 .37-.4.6-.48.5-.03.73-.1.4399-.23.6799-.29.4901-.06.7201-.11.4499-.23.6899-.28.4501-.26.6901-.3.8099.22 1.0499.19c-.24-.03-.8099.18-1.0499.14s-.38-.63-.61-.68-.5001.05-.7401 0-.5399.15-.7699.09-.4701-.12-.7101-.19-.53.05-.76-.03-.4499-.2-.6799-.29-.27-.64-.5-.74-.5701.11-.8001.01-.3199-.49-.5499-.62c-.22-.12-.42-.22-.63-.4-.18-.16-.48-.2-.65-.42-.15-.19-.5001-.29-.6401-.53-.11-.2.22-.63.12-.86-.09-.21-.22-.4-.3-.63-.08-.22-.4799-.34-.5499-.58-.06-.22-.03-.48-.09-.72s-.09-.47-.14-.71.03-.49-.01-.73.1099-.5.0799-.74-.09-.46-.13-.7-.3199-.44-.3399-.68-.0201-.48-.0501-.72.2101-.5.1901-.74-.1401-.47-.1501-.71-.49-.45-.51-.69.46-.52.45-.76-.18-.48-.19-.72-.28-.47-.29-.71.14-.81.13-1.05z" stroke="#000" stroke-linecap="round" stroke-linejoin="round" stroke-width="2.6"/></svg>