<svg fill="none" height="86" viewBox="0 0 55 86" width="55" xmlns="http://www.w3.org/2000/svg"><path d="m21.0498 31.08c.24-.03.23-.4.47-.43s.55.41.79.38.41-.47.65-.51.56.38.8.33.46-.2.69-.25.43-.27.67-.33.43-.27.66-.33.52.08.75.02.37-.43.59-.5.54.08.76 0 .6.17.82.08.27-.57.49-.68.36-.34.57-.46.33-.35.53-.48.55-.03.74-.18.6-.05.77-.21.34-.37.51-.54.05-.6.2-.79.13-.48.27-.68c.14-.21.42-.3.54-.52s.53-.29.64-.51-.25-.64-.16-.87.61-.31.69-.54-.29-.59-.22-.83.52-.38.57-.62-.4-.59-.35-.83.25-.45.3-.69.33-.44.37-.69c.04-.24-.13-.5-.09-.74s.03-.48.06-.71.42-.42.45-.66-.13-.5-.1-.74.03-.48.06-.71.3-.44.33-.68.11-.47.14-.71-.16-.5-.13-.74-.19-.5-.17-.74.32-.44.35-.68.02-.48.05-.72 0-.48.02-.72.06-.47.09-.71.43-.44.45-.68-.02-.48 0-.72-.39-.51-.37-.75.25-.46.27-.7-.28-.5-.26-.74.34-.45.35-.69.3-.46.32-.7.1-.47.12-.71-.33-.5-.32-.74.38-.46.4-.7-.3-.79-.29-1.03c.01.24-.07.78-.06 1.01s-.13.49-.11.72.55.44.56.68-.24.49-.22.73.02.48.03.72-.28.5-.26.74.34.45.35.69-.17.49-.15.73.27.46.29.69-.17.5-.15.73.14.47.16.7.5.43.52.67.07.47.1.71-.56.54-.54.78.64.4.67.64-.37.53-.34.76-.15.5-.12.74.39.43.43.67-.22.51-.19.75.27.45.3.68.28.44.31.68-.15.51-.11.74.4.42.44.66.02.48.06.71c.04.24.08.48.13.73s-.31.56-.26.8.18.47.23.71-.03.52.03.76.59.35.66.58.27.41.36.64-.21.62-.11.84.45.32.57.54.09.51.23.72c.14.2.34.35.49.54s.4.28.57.46.43.22.61.38.09.63.28.77.4.27.6.41.48.15.68.27.35.36.57.47.44.21.66.31.49.08.71.17.36.43.59.5.51.01.74.08.53-.13.77-.06.41.34.64.39.55-.25.78-.2.42.35.65.4.52-.17.76-.12.43.33.67.36.47.12.71.15.54.11.78.15c-.24.03-.55.01-.79.05s-.51-.14-.75-.1-.44.27-.68.31-.52-.14-.76-.09-.41.44-.64.49-.51-.07-.75-.01-.42.31-.66.37-.39.38-.62.45-.56-.19-.79-.11-.39.33-.62.41-.41.26-.63.36-.59-.12-.8-.02-.42.25-.63.37-.35.35-.55.48-.53.09-.72.24-.19.52-.37.68-.56.12-.73.29-.2.48-.35.67-.48.26-.61.46c-.14.21-.08.54-.19.76s-.14.48-.24.7-.29.41-.38.64-.21.45-.28.69.21.57.15.81-.33.42-.38.66-.26.45-.3.69-.04.5-.08.74-.42.43-.46.67.21.52.18.75.16.51.12.74-.03.48-.07.71-.42.42-.45.66-.2.46-.23.69.09.5.06.73 0 .48-.03.72.23.51.2.75-.43.43-.45.67.28.51.26.75-.06.47-.08.71.05.48.02.72-.46.43-.49.67-.17.46-.19.7.47.52.45.76-.14.47-.16.7-.16.47-.18.7-.13.47-.15.71.05.48.03.72-.38.45-.4.69.11.49.09.72.42.5.4.74-.43.45-.45.69.04.44.03.68c-.01-.24-.32-.42-.33-.66s.33-.5.31-.73-.02-.48-.04-.72-.38-.45-.4-.69.38-.51.36-.74-.16-.47-.18-.7-.37-.45-.39-.69.04-.48.02-.72.1-.49.08-.73-.13-.47-.15-.7.12-.49.09-.73-.15-.46-.18-.7.32-.51.29-.75-.35-.44-.38-.68-.3-.45-.32-.68.56-.55.53-.79-.11-.47-.14-.71-.11-.47-.14-.71-.11-.47-.14-.7-.18-.46-.21-.69-.26-.44-.29-.68.37-.54.34-.78-.17-.46-.21-.69-.44-.41-.48-.65.27-.55.23-.79-.42-.42-.47-.67-.29-.44-.34-.68.44-.61.38-.85-.07-.51-.14-.74-.17-.48-.26-.71-.68-.25-.79-.48-.22-.42-.34-.64 0-.56-.14-.77c-.14-.2-.39-.31-.54-.5s-.04-.61-.21-.78-.56-.13-.74-.29-.3-.39-.49-.53-.41-.25-.61-.38-.25-.52-.46-.64-.41-.28-.63-.39-.53-.02-.75-.12-.44-.21-.66-.3-.41-.31-.64-.39-.45-.23-.68-.3-.62.43-.86.36-.43-.26-.66-.31-.52.14-.76.09-.34-.76-.58-.81-.52.14-.76.1-.51.11-.75.07-.49.03-.73 0-.25-.27-.49-.31z" fill="#fff"/><path d="m21.0498 31.08c.24-.03.23-.4.47-.43s.55.41.79.38.41-.47.65-.51.56.38.8.33.46-.2.69-.25.43-.27.67-.33.43-.27.66-.33.52.08.75.02.37-.43.59-.5.54.08.76 0 .6.17.82.08.27-.57.49-.68.36-.34.57-.46.33-.35.53-.48.55-.03.74-.18.6-.05.77-.21.34-.37.51-.54.05-.6.2-.79.13-.48.27-.68c.14-.21.42-.3.54-.52s.53-.29.64-.51-.25-.64-.16-.87.61-.31.69-.54-.29-.59-.22-.83.52-.38.57-.62-.4-.59-.35-.83.25-.45.3-.69.33-.44.37-.69c.04-.24-.13-.5-.09-.74s.03-.48.06-.71.42-.42.45-.66-.13-.5-.1-.74.03-.48.06-.71.3-.44.33-.68.11-.47.14-.71-.16-.5-.13-.74-.19-.5-.17-.74.32-.44.35-.68.02-.48.05-.72 0-.48.02-.72.06-.47.09-.71.43-.44.45-.68-.02-.48 0-.72-.39-.51-.37-.75.25-.46.27-.7-.28-.5-.26-.74.34-.45.35-.69.3-.46.32-.7.1-.47.12-.71-.33-.5-.32-.74.38-.46.4-.7-.3-.79-.29-1.03c.01.24-.07.78-.06 1.01s-.13.49-.11.72.55.44.56.68-.24.49-.22.73.02.48.03.72-.28.5-.26.74.34.45.35.69-.17.49-.15.73.27.46.29.69-.17.5-.15.73.14.47.16.7.5.43.52.67.07.47.1.71-.56.54-.54.78.64.4.67.64-.37.53-.34.76-.15.5-.12.74.39.43.43.67-.22.51-.19.75.27.45.3.68.28.44.31.68-.15.51-.11.74.4.42.44.66.02.48.06.71c.04.24.08.48.13.73s-.31.56-.26.8.18.47.23.71-.03.52.03.76.59.35.66.58.27.41.36.64-.21.62-.11.84.45.32.57.54.09.51.23.72c.14.2.34.35.49.54s.4.28.57.46.43.22.61.38.09.63.28.77.4.27.6.41.48.15.68.27.35.36.57.47.44.21.66.31.49.08.71.17.36.43.59.5.51.01.74.08.53-.13.77-.06.41.34.64.39.55-.25.78-.2.42.35.65.4.52-.17.76-.12.43.33.67.36.47.12.71.15.54.11.78.15c-.24.03-.55.01-.79.05s-.51-.14-.75-.1-.44.27-.68.31-.52-.14-.76-.09-.41.44-.64.49-.51-.07-.75-.01-.42.31-.66.37-.39.38-.62.45-.56-.19-.79-.11-.39.33-.62.41-.41.26-.63.36-.59-.12-.8-.02-.42.25-.63.37-.35.35-.55.48-.53.09-.72.24-.19.52-.37.68-.56.12-.73.29-.2.48-.35.67-.48.26-.61.46c-.14.21-.08.54-.19.76s-.14.48-.24.7-.29.41-.38.64-.21.45-.28.69.21.57.15.81-.33.42-.38.66-.26.45-.3.69-.04.5-.08.74-.42.43-.46.67.21.52.18.75.16.51.12.74-.03.48-.07.71-.42.42-.45.66-.2.46-.23.69.09.5.06.73 0 .48-.03.72.23.51.2.75-.43.43-.45.67.28.51.26.75-.06.47-.08.71.05.48.02.72-.46.43-.49.67-.17.46-.19.7.47.52.45.76-.14.47-.16.7-.16.47-.18.7-.13.47-.15.71.05.48.03.72-.38.45-.4.69.11.49.09.72.42.5.4.74-.43.45-.45.69.04.44.03.68c-.01-.24-.32-.42-.33-.66s.33-.5.31-.73-.02-.48-.04-.72-.38-.45-.4-.69.38-.51.36-.74-.16-.47-.18-.7-.37-.45-.39-.69.04-.48.02-.72.1-.49.08-.73-.13-.47-.15-.7.12-.49.09-.73-.15-.46-.18-.7.32-.51.29-.75-.35-.44-.38-.68-.3-.45-.32-.68.56-.55.53-.79-.11-.47-.14-.71-.11-.47-.14-.71-.11-.47-.14-.7-.18-.46-.21-.69-.26-.44-.29-.68.37-.54.34-.78-.17-.46-.21-.69-.44-.41-.48-.65.27-.55.23-.79-.42-.42-.47-.67-.29-.44-.34-.68.44-.61.38-.85-.07-.51-.14-.74-.17-.48-.26-.71-.68-.25-.79-.48-.22-.42-.34-.64 0-.56-.14-.77c-.14-.2-.39-.31-.54-.5s-.04-.61-.21-.78-.56-.13-.74-.29-.3-.39-.49-.53-.41-.25-.61-.38-.25-.52-.46-.64-.41-.28-.63-.39-.53-.02-.75-.12-.44-.21-.66-.3-.41-.31-.64-.39-.45-.23-.68-.3-.62.43-.86.36-.43-.26-.66-.31-.52.14-.76.09-.34-.76-.58-.81-.52.14-.76.1-.51.11-.75.07-.49.03-.73 0-.25-.27-.49-.31z" stroke="#000" stroke-linecap="round" stroke-linejoin="round" stroke-width="2.6"/><path d="m14.0599 57.24c.02.23-.17.57-.16.8s.43.43.45.67-.05.47-.03.71.03.47.05.7-.2.5-.17.73.1.46.14.7.37.42.4.65.09.46.13.69-.14.51-.09.73.32.41.38.63.2.43.26.65-.4.64-.32.85c.08.23.38.37.48.58.1.22.2.44.31.64.12.21.31.37.45.55.17.23.25.56.44.73.21.19.55.21.78.34.24.14.47.27.72.37s.59-.07.84.01c.24.08.31.67.55.74s.49.13.73.2.49.13.73.19.58-.29.83-.23.43.35.68.4.57-.34.82-.3.41.54.65.58.53-.16.77-.13.51-.13.76-.1.26.34.51.37c-.25.02-.28.14-.53.17s-.48.16-.72.19-.51-.04-.75 0-.55-.28-.8-.23-.44.33-.69.38-.55-.15-.79-.1-.35.66-.59.72-.53-.07-.77 0-.47.17-.71.24-.45.21-.69.29c-.25.08-.47.23-.72.33s-.51.11-.75.25c-.22.13-.33.38-.54.56-.19.17-.81-.04-.99.19-.14.18.09.63-.03.84-.11.2-.54.24-.64.46-.09.21-.01.51-.09.73s-.04.48-.11.7-.28.4-.34.63-.32.41-.37.64.12.51.07.74-.09.46-.13.7-.3.43-.33.66.46.53.43.77-.36.43-.38.66-.09.47-.11.7.06.48.04.72-.18.46-.2.69.17.64.15.87c-.02-.23-.03-.62-.05-.85s-.11-.46-.13-.69-.26-.45-.29-.68.27-.5.24-.73-.04-.47-.07-.7-.36-.43-.39-.66.42-.54.38-.77.02-.49-.02-.72-.42-.4-.47-.63-.13-.45-.19-.68-.06-.47-.13-.69.13-.55.05-.77c-.08-.23-.53-.31-.62-.51-.1-.22-.31-.36-.42-.56-.12-.21-.04-.53-.18-.71-.17-.23-.35-.44-.54-.61-.21-.19-.39-.43-.61-.57-.24-.14-.66998.16-.90998.06-.23999-.1-.45-.29-.7-.37-.24-.08-.41999-.33-.64999-.4s-.4-.42-.64-.49-.51-.05-.75-.11-.51-.03-.75-.09-.46001-.25-.70001-.3-.51999.06-.76999.02-.48001-.16-.72001-.2-.52.13-.77.1-.52.18-.77.15-.33-.35-.58-.37c.25-.02.4.27.65.24s.42-.61.67-.64.50001 0 .74001-.05.49999-.02.73999-.07.53.12.77.06.47-.17.71-.23.45-.26.69-.32.53001.06.77001 0 .47999-.14.71999-.21.49-.11.73-.18c.25-.08.44001-.36.69001-.46.24997-.1.47997-.21.70997-.35.22-.13.65-.04.86-.22.19-.17-.07-.76.11-.99.14-.18.32-.29.44-.5.11-.2.58-.21.68-.43.09-.21.19-.43.28-.66s.01-.49.08-.72.35-.39.41-.62-.43-.58-.38-.81.29-.41.33-.64.26-.43.3-.66.14-.45.17-.69-.25-.5-.22-.74.29-.44.31-.67.1-.46.12-.7-.17-.49-.15-.73.3-.45.32-.68-.14-.57-.12-.8z" fill="#fff"/><path d="m14.0599 57.24c.02.23-.17.57-.16.8s.43.43.45.67-.05.47-.03.71.03.47.05.7-.2.5-.17.73.1.46.14.7.37.42.4.65.09.46.13.69-.14.51-.09.73.32.41.38.63.2.43.26.65-.4.64-.32.85c.08.23.38.37.48.58.1.22.2.44.31.64.12.21.31.37.45.55.17.23.25.56.44.73.21.19.55.21.78.34.24.14.47.27.72.37s.59-.07.84.01c.24.08.31.67.55.74s.49.13.73.2.49.13.73.19.58-.29.83-.23.43.35.68.4.57-.34.82-.3.41.54.65.58.53-.16.77-.13.51-.13.76-.1.26.34.51.37c-.25.02-.28.14-.53.17s-.48.16-.72.19-.51-.04-.75 0-.55-.28-.8-.23-.44.33-.69.38-.55-.15-.79-.1-.35.66-.59.72-.53-.07-.77 0-.47.17-.71.24-.45.21-.69.29c-.25.08-.47.23-.72.33s-.51.11-.75.25c-.22.13-.33.38-.54.56-.19.17-.81-.04-.99.19-.14.18.09.63-.03.84-.11.2-.54.24-.64.46-.09.21-.01.51-.09.73s-.04.48-.11.7-.28.4-.34.63-.32.41-.37.64.12.51.07.74-.09.46-.13.7-.3.43-.33.66.46.53.43.77-.36.43-.38.66-.09.47-.11.7.06.48.04.72-.18.46-.2.69.17.64.15.87c-.02-.23-.03-.62-.05-.85s-.11-.46-.13-.69-.26-.45-.29-.68.27-.5.24-.73-.04-.47-.07-.7-.36-.43-.39-.66.42-.54.38-.77.02-.49-.02-.72-.42-.4-.47-.63-.13-.45-.19-.68-.06-.47-.13-.69.13-.55.05-.77c-.08-.23-.53-.31-.62-.51-.1-.22-.31-.36-.42-.56-.12-.21-.04-.53-.18-.71-.17-.23-.35-.44-.54-.61-.21-.19-.39-.43-.61-.57-.24-.14-.66998.16-.90998.06s-.45-.29-.7-.37c-.24-.08-.41999-.33-.64999-.4s-.4-.42-.64-.49-.51-.05-.75-.11-.51-.03-.75-.09-.46001-.25-.70001-.3-.51999.06-.76999.02-.48001-.16-.72001-.2-.52.13-.77.1-.52.18-.77.15-.33-.35-.58-.37c.25-.02.4.27.65.24s.42-.61.67-.64.50001 0 .74001-.05.49999-.02.73999-.07.53.12.77.06.47-.17.71-.23.45-.26.69-.32.53001.06.77001 0 .47999-.14.71999-.21.49-.11.73-.18c.25-.08.44001-.36.69001-.46.24997-.1.47997-.21.70997-.35.22-.13.65-.04.86-.22.19-.17-.07-.76.11-.99.14-.18.32-.29.44-.5.11-.2.58-.21.68-.43.09-.21.19-.43.28-.66s.01-.49.08-.72.35-.39.41-.62-.43-.58-.38-.81.29-.41.33-.64.26-.43.3-.66.14-.45.17-.69-.25-.5-.22-.74.29-.44.31-.67.1-.46.12-.7-.17-.49-.15-.73.3-.45.32-.68-.14-.57-.12-.8z" stroke="#000" stroke-linecap="round" stroke-linejoin="round" stroke-width="2.6"/></svg>