<svg fill="none" height="61" viewBox="0 0 48 61" width="48" xmlns="http://www.w3.org/2000/svg"><path d="m25.1699 30.64c-.23.05-.54.25-.77.3s-.4501.15-.6801.2-.5699-.31-.7999-.25-.4801.09-.7001.16-.4399.23-.6599.31-.29.55-.51.64-.66-.29-.87-.18-.34.4-.55.52-.5001.13-.6901.27-.3599.34-.5399.49-.46.24-.63.41-.33.37-.49.56-.2001.47-.3401.66-.1999.45-.3199.66-.2.43-.31.65c-.1.21.15.58.06.8s-.78.23-.86.46.34.6.28.84-.48.38-.53.61.4.57.36.81-.1.46-.14.7-.33.43-.37.67-.06.48-.09.72.24.51.21.75-.6301.41-.6601.64.2401.51.2201.74.1.49.07.73-.29.45-.32.68.2099.5.1799.74-.48.43-.5.67.2801.5.2601.74-.05.47-.07.71-.12.47-.14.7-.14.47-.16.7.22.5.2.73-.29.46-.31.69.33.5.31.74-.5.44-.52.68-.13.47-.15.71.12.49.11.72.25.49.24.73-.2701.46-.2801.7.1801.49.1701.72.03.48.02.72-.4201.46-.4301.7.4401.5.4301.73-.01.48-.02.71-.25.75-.26.98c0-.24.03-.76.02-.99s.11-.48.1-.72-.4101-.46-.4201-.7.26-.49.25-.73-.0199-.48-.0299-.71.0499-.48.0299-.72-.1199-.47-.1399-.71.0399-.48.0299-.72-.4299-.45-.4499-.69.28-.5.26-.73.25-.5.23-.73-.26-.46-.27-.7-.36-.45-.38-.69.27-.5.25-.74-.21-.46-.23-.7.29-.5.27-.74-.44-.44-.46-.68.16-.49.13-.73-.03-.48-.05-.71-.45-.43-.47-.67.23-.5.21-.74-.21-.46-.24-.69-.09-.47-.11-.7.2099-.5.1799-.74-.1399-.47-.1699-.7.26-.52.23-.76-.0201-.49-.0501-.73-.2-.46-.25-.7-.21-.45-.26-.69-.2399-.44-.2999-.67.27-.59.2-.82-.6801-.27-.7701-.5.0301-.53-.0699-.75-.27-.4-.38-.6-.0301-.56-.1701-.75-.34996-.35-.49996-.53-.32999-.37-.48999-.53-.58001-.07-.76001-.22-.03998-.74-.22998-.88-.40999-.29-.61999-.41-.52999-.06-.73999-.16-.46006-.15-.68006-.24-.4-.29-.63-.37-.40989-.3-.63989-.37-.57004.23-.79004.16-.40001-.37-.63001-.42-.45005-.21-.68005-.26-.58995.2-.81995.15c.23-.05.49998-.2.72998-.25s.41002-.32.64002-.37.61997.53.84997.47.30003-.66.53003-.73.47995-.05.69995-.13.55002.09.77002 0 .4-.28.62-.38.24006-.54.44006-.66.48993-.09.67993-.23.65008.05.83008-.1.27995-.42.44995-.59.28995-.39.44995-.57.16005-.47.30008-.67c.14-.2.56-.21.68-.42s-.16-.62-.05-.84c.1-.21.21-.42.3-.65s.0799-.47.1599-.7.0201-.48.0801-.71.27-.42.32-.65.26-.43.31-.67-.07-.5-.03-.74.2899-.44.3299-.68.2701-.45.3001-.69-.06-.49-.03-.73.15-.46.18-.7-.41-.52-.38-.76.34-.44.36-.68-.15-.49-.12-.73-.05-.48-.03-.72.5-.43.53-.67.12-.47.15-.7-.42-.52-.39-.75.23-.46.25-.69-.16-.49-.14-.73.13-.47.15-.7-.1101-.49-.0901-.72-.0799-.48-.0699-.72.2899-.46.3099-.69.2001-.46.2101-.7.1699-.47.1799-.7-.28-.49-.26-.73.1801-.47.1901-.7.07-.47.08-.71-.2801-.49-.2601-.73.12-.47.13-.71-.15-.48-.14-.72.4001-.46.4101-.7-.11-.16-.1-.39c0 .24.3199.14.3299.38s-.2499.49-.2399.72.32.46.33.7-.05.48-.04.72-.54.5-.52.74.4299.45.4399.69-.3199.5-.2999.73.5599.44.5799.68-.6099.52-.5899.75.5499.44.5699.68-.0299.48-.0199.72-.06.48-.04.72.1599.46.1799.7.23.46.25.7-.4399.51-.4199.75.3999.44.4199.68-.4799.52-.4599.76.0799.47.0999.71.09.47.12.71.48.43.51.67-.0899.49-.0699.72.32.44.35.68.0699.47.0999.71-.4499.53-.4299.77c.03.24-.1101.5-.0801.74s.1601.47.2001.71.36.44.39.67-.1.51-.06.74.52.38.57.62.0899.46.1499.69.16.44.23.67-.4799.68-.3899.9.46.34.56.56.0899.5.2099.71.5.26.63.45.1501.49.3001.67.26.42.43.59.44.24.62.39.31.39.5.52.4.27.61.39.49.09.7.2.35.39.56.48.49.06.72.14.55-.17.78-.1.4299.18.6599.24.4401.18.6701.24.38.48.61.53.6099-.08.8399-.04z" fill="#fff"/><path d="m25.1699 30.64c-.23.05-.54.25-.77.3s-.4501.15-.6801.2-.5699-.31-.7999-.25-.4801.09-.7001.16-.4399.23-.6599.31-.29.55-.51.64-.66-.29-.87-.18-.34.4-.55.52-.5001.13-.6901.27-.3599.34-.5399.49-.46.24-.63.41-.33.37-.49.56-.2001.47-.3401.66-.1999.45-.3199.66-.2.43-.31.65c-.1.21.15.58.06.8s-.78.23-.86.46.34.6.28.84-.48.38-.53.61.4.57.36.81-.1.46-.14.7-.33.43-.37.67-.06.48-.09.72.24.51.21.75-.6301.41-.6601.64.2401.51.2201.74.1.49.07.73-.29.45-.32.68.2099.5.1799.74-.48.43-.5.67.2801.5.2601.74-.05.47-.07.71-.12.47-.14.7-.14.47-.16.7.22.5.2.73-.29.46-.31.69.33.5.31.74-.5.44-.52.68-.13.47-.15.71.12.49.11.72.25.49.24.73-.2701.46-.2801.7.1801.49.1701.72.03.48.02.72-.4201.46-.4301.7.4401.5.4301.73-.01.48-.02.71-.25.75-.26.98c0-.24.03-.76.02-.99s.11-.48.1-.72-.4101-.46-.4201-.7.26-.49.25-.73-.0199-.48-.0299-.71.0499-.48.0299-.72-.1199-.47-.1399-.71.0399-.48.0299-.72-.4299-.45-.4499-.69.28-.5.26-.73.25-.5.23-.73-.26-.46-.27-.7-.36-.45-.38-.69.27-.5.25-.74-.21-.46-.23-.7.29-.5.27-.74-.44-.44-.46-.68.16-.49.13-.73-.03-.48-.05-.71-.45-.43-.47-.67.23-.5.21-.74-.21-.46-.24-.69-.09-.47-.11-.7.2099-.5.1799-.74-.1399-.47-.1699-.7.26-.52.23-.76-.0201-.49-.0501-.73-.2-.46-.25-.7-.21-.45-.26-.69-.2399-.44-.2999-.67.27-.59.2-.82-.6801-.27-.7701-.5.0301-.53-.0699-.75-.27-.4-.38-.6-.0301-.56-.1701-.75-.34996-.35-.49996-.53-.32999-.37-.48999-.53-.58001-.07-.76001-.22-.03998-.74-.22998-.88-.40999-.29-.61999-.41-.52999-.06-.73999-.16-.46006-.15-.68006-.24-.4-.29-.63-.37-.40989-.3-.63989-.37-.57004.23-.79004.16-.40001-.37-.63001-.42-.45005-.21-.68005-.26-.58995.2-.81995.15c.23-.05.49998-.2.72998-.25s.41002-.32.64002-.37.61997.53.84997.47.30003-.66.53003-.73.47995-.05.69995-.13.55002.09.77002 0 .4-.28.62-.38.24006-.54.44006-.66.48993-.09.67993-.23.65008.05.83008-.1.27995-.42.44995-.59.28995-.39.44995-.57.16005-.47.30008-.67c.14-.2.56-.21.68-.42s-.16-.62-.05-.84c.1-.21.21-.42.3-.65s.0799-.47.1599-.7.0201-.48.0801-.71.27-.42.32-.65.26-.43.31-.67-.07-.5-.03-.74.2899-.44.3299-.68.2701-.45.3001-.69-.06-.49-.03-.73.15-.46.18-.7-.41-.52-.38-.76.34-.44.36-.68-.15-.49-.12-.73-.05-.48-.03-.72.5-.43.53-.67.12-.47.15-.7-.42-.52-.39-.75.23-.46.25-.69-.16-.49-.14-.73.13-.47.15-.7-.1101-.49-.0901-.72-.0799-.48-.0699-.72.2899-.46.3099-.69.2001-.46.2101-.7.1699-.47.1799-.7-.28-.49-.26-.73.1801-.47.1901-.7.07-.47.08-.71-.2801-.49-.2601-.73.12-.47.13-.71-.15-.48-.14-.72.4001-.46.4101-.7-.11-.16-.1-.39c0 .24.3199.14.3299.38s-.2499.49-.2399.72.32.46.33.7-.05.48-.04.72-.54.5-.52.74.4299.45.4399.69-.3199.5-.2999.73.5599.44.5799.68-.6099.52-.5899.75.5499.44.5699.68-.0299.48-.0199.72-.06.48-.04.72.1599.46.1799.7.23.46.25.7-.4399.51-.4199.75.3999.44.4199.68-.4799.52-.4599.76.0799.47.0999.71.09.47.12.71.48.43.51.67-.0899.49-.0699.72.32.44.35.68.0699.47.0999.71-.4499.53-.4299.77c.03.24-.1101.5-.0801.74s.1601.47.2001.71.36.44.39.67-.1.51-.06.74.52.38.57.62.0899.46.1499.69.16.44.23.67-.4799.68-.3899.9.46.34.56.56.0899.5.2099.71.5.26.63.45.1501.49.3001.67.26.42.43.59.44.24.62.39.31.39.5.52.4.27.61.39.49.09.7.2.35.39.56.48.49.06.72.14.55-.17.78-.1.4299.18.6599.24.4401.18.6701.24.38.48.61.53.6099-.08.8399-.04z" stroke="#000" stroke-linecap="round" stroke-linejoin="round" stroke-width="2.6"/><path d="m39.5298 25.85c-.01-.24-.0801-.18-.0901-.42s.2001-.5.1901-.74-.2701-.47-.2901-.72.15-.5.13-.74.03-.5.01-.74-.11-.48-.14-.72-.08-.49-.11-.73-.2899-.46-.3199-.69c-.04-.25.13-.52.09-.75-.05-.25-.29-.44-.35-.67-.06-.25-.02-.5-.09-.72-.08-.25-.2501-.43-.3501-.63-.11-.23-.0299-.54-.1599-.7-.15-.21-.5201-.13-.6901-.26-.19-.15-.3799-.17-.5699-.27-.2-.1-.29-.42-.49-.52s-.4801 0-.6901-.08-.43-.09-.64-.16-.3899-.22-.5999-.28-.3301-.5-.5501-.55-.38.07-.6.03c.22-.04.3401-.1.5601-.15s.53.25.75.19.3399-.43.5599-.5.3701-.28.5801-.37.52.07.72-.02.29-.43.49-.54c.19-.1.36-.21.55-.36.16-.13.56-.06.71-.27.12-.16-.07-.54.04-.78.1-.2.64-.26.72-.51.07-.22-.09-.53-.03-.78.06-.23.35-.42.4-.67.04-.23-.0701-.51-.0301-.76s-.3999-.54-.3699-.79.4499-.43.4799-.68-.27-.51-.25-.75.1701-.47.1901-.72.1399-.48.1599-.72-.24-.5-.23-.75-.03-.49-.02-.74.3401-.36.3501-.6c.01.24.19.36.2.6s-.1.49-.09.73.22.47.23.72-.4601.52-.4401.76.1701.48.1901.72.2799.47.2999.71-.04.5 0 .74.2001.47.2301.7c.04.25.03.49.08.72.05.25.0599.49.1099.72.06.25-.1799.57-.1099.79.08.25.4899.35.5799.56.11.23-.09.64.03.8.15.21.5001.24.6601.37.19.15.4799.1.6699.2.2.1.2601.5.4601.59s.4899.01.6999.1.3401.4.5501.48.5999-.42.8099-.36.42.1.63.15.28.41.5.45c-.22.04-.3499.07-.5699.12s-.4401.07-.6601.14-.5099-.1-.7199-.03-.31.47-.51.56-.4601.06-.6701.15-.4.2-.6.3c-.19.1-.3899.22-.5799.37-.16.13-.5201.15-.6701.36-.12.16-.3199.38-.4299.61-.1.2-.1.5-.18.75-.07.22.05.52 0 .77-.06.23-.33.42-.38.67-.04.23-.1101.48-.1401.73s-.0799.48-.1099.73-.08.48-.11.73.2199.51.1999.75.29.51.27.75.0301.49.0201.73-.55.46-.57.7.1899.5.1799.75-.0599.18-.0699.42z" fill="#fff"/><path d="m39.5298 25.85c-.01-.24-.0801-.18-.0901-.42s.2001-.5.1901-.74-.2701-.47-.2901-.72.15-.5.13-.74.03-.5.01-.74-.11-.48-.14-.72-.08-.49-.11-.73-.2899-.46-.3199-.69c-.04-.25.13-.52.09-.75-.05-.25-.29-.44-.35-.67-.06-.25-.02-.5-.09-.72-.08-.25-.2501-.43-.3501-.63-.11-.23-.0299-.54-.1599-.7-.15-.21-.5201-.13-.6901-.26-.19-.15-.3799-.17-.5699-.27-.2-.1-.29-.42-.49-.52s-.4801 0-.6901-.08-.43-.09-.64-.16-.3899-.22-.5999-.28-.3301-.5-.5501-.55-.38.07-.6.03c.22-.04.3401-.1.5601-.15s.53.25.75.19.3399-.43.5599-.5.3701-.28.5801-.37.52.07.72-.02.29-.43.49-.54c.19-.1.36-.21.55-.36.16-.13.56-.06.71-.27.12-.16-.07-.54.04-.78.1-.2.64-.26.72-.51.07-.22-.09-.53-.03-.78.06-.23.35-.42.4-.67.04-.23-.0701-.51-.0301-.76s-.3999-.54-.3699-.79.4499-.43.4799-.68-.27-.51-.25-.75.1701-.47.1901-.72.1399-.48.1599-.72-.24-.5-.23-.75-.03-.49-.02-.74.3401-.36.3501-.6c.01.24.19.36.2.6s-.1.49-.09.73.22.47.23.72-.4601.52-.4401.76.1701.48.1901.72.2799.47.2999.71-.04.5 0 .74.2001.47.2301.7c.04.25.03.49.08.72.05.25.0599.49.1099.72.06.25-.1799.57-.1099.79.08.25.4899.35.5799.56.11.23-.09.64.03.8.15.21.5001.24.6601.37.19.15.4799.1.6699.2.2.1.2601.5.4601.59s.4899.01.6999.1.3401.4.5501.48.5999-.42.8099-.36.42.1.63.15.28.41.5.45c-.22.04-.3499.07-.5699.12s-.4401.07-.6601.14-.5099-.1-.7199-.03-.31.47-.51.56-.4601.06-.6701.15-.4.2-.6.3c-.19.1-.3899.22-.5799.37-.16.13-.5201.15-.6701.36-.12.16-.3199.38-.4299.61-.1.2-.1.5-.18.75-.07.22.05.52 0 .77-.06.23-.33.42-.38.67-.04.23-.1101.48-.1401.73s-.0799.48-.1099.73-.08.48-.11.73.2199.51.1999.75.29.51.27.75.0301.49.0201.73-.55.46-.57.7.1899.5.1799.75-.0599.18-.0699.42z" stroke="#000" stroke-linecap="round" stroke-linejoin="round" stroke-width="2.6"/></svg>