<svg fill="none" height="199" viewBox="0 0 39 199" width="39" xmlns="http://www.w3.org/2000/svg"><g stroke="#000" stroke-linecap="round" stroke-linejoin="round" stroke-width="2.6"><path d="m22.0103 3.53001c-.25-.04-.5-.10998-.74-.13998-.25-.03-.51-.12002-.74-.14002-.26-.01-.51.22001-.75.23001-.26 0-.52-.13-.75-.1-.26.03-.44.39-.67.44-.25.06-.65-.39-.87-.31-.24.09-.49.24999-.7.35999-.23.12-.2801.53999-.4601.67999-.2.16-.35.35003-.51.53003-.17.19-.24.41997-.35.62997-.12.22-.19.43001-.26.66001-.08.24-.0299.47001-.0599.70001s-.33.43998-.35.69998c-.01.23-.3.47-.31.72 0 .23.18.49002.18.74002 0 .24-.0801.47998-.0801.72998s.1401.48.1401.73 0 .48.01.73-.06.48-.06.73.48.47.49.72-.38.5-.37.74-.2301.5-.2201.74.2801.48.2901.72.35.47.36.72-.1501.49-.1401.74-.39.51-.38.75.62.47.63.71-.3699.51-.3599.75 0 .49 0 .74.11.49.12.73.1099.49.1199.73-.3399.51-.3299.75.48.48.49.72-.4501.51-.4401.75.1001.49.1001.73c0 .25.35.49.35.73 0 .25-.36.5-.37.73 0 .26.52.51.51.74 0 .26-.64.48-.66.7-.01.24.59.52.56.76s-.1.48-.14.72-.24.45-.29.68-.1001.47-.1601.7-.4599.36-.5299.58-.18.43-.27.65.22.61.12.83-.07.52-.18.73-.44.32-.56.52-.43.29-.57.48-.27.39-.42.58-.13.53-.3.7-.31.39-.49.55-.47.2-.66.34-.61-.06-.81.07c-.19998.13-.07.82-.29002.93-.22.11-.47995.15-.69995.25s-.55003-.08-.78003 0-.37998.45-.60998.51c-.23.05-.56004-.38-.79004-.35s-.45006.25-.68006.26-.46995-.08-.69995-.1-.43003-.2-.66003-.25-.62997.37-.83997.28-.46003-.26-.66003-.4c-.22-.15-.38992-.43-.53992-.61-.16-.2-.20004-.51-.29004-.74s.03001-.51.01001-.76.10003-.45.15003-.7-.28006-.6-.18006-.83.51003-.3.65003-.51.08-.56.25-.75.52998-.16.72998-.31.47995-.1.69995-.22.38012-.23.62012-.31.40991-.23.65991-.26.47008 0 .71008 0 .44994.14.68994.17.45007.05.69007.1.50999-.09.73999-.01.57992-.1.79992 0c.22005.1.23005.6.44005.73s.62-.06.82.08.36.36.54.51.47.23.64.41.22.48.38.66.54.22.68.42-.2801.77-.1501.97c.12.2.5901.2.7001.41s-.0401.54.0599.75.16.43.24.65.2501.4.3201.63.46.37.51.59.23.45.28.68.05.49.08.72-.26.51-.24.74.3099.47.3199.7-.26.48-.27.71-.3199.44-.3499.68.09.47.05.71-.06.46-.11.69-.0201.48-.0901.7.07.53 0 .75-.53.29-.63.51-.0599.49-.1599.7-.4501.27-.5701.48-.26.37-.4.56-.0499.55-.2099.73-.2401.43-.4101.6-.2599.43-.4399.59-.41.28-.6.42-.56.04-.76.18-.46.13-.67005.25c-.21.12-.19992.67-.41992.77s-.59007-.2-.82007-.12-.36998.44-.60998.49c-.22.05-.43005.31-.67005.34-.23.03-.52001-.56-.76001-.54s-.43993.04-.67993.03-.46006.11-.69006.08-.50998.14-.72998.08-.32003-.48-.53003-.57-.63996.19-.82996.05-.51993-.21-.67993-.39-.31004-.48-.42004-.7.27998-.61.22998-.85-.34997-.46-.33997-.7.39997-.41.46997-.64-.29004-.65-.17004-.86.35002-.41.52002-.59.33003-.46.53003-.59.64999.2.86999.1.32995-.51.56995-.57.47008-.27.71008-.29.51.48.75.49.53002-.5.77002-.46.43993.35.67993.41.43004.23.66004.31.43002.2.65002.3.61995-.11.81995.02.09002.72.27004.87c.2.16.32.35.49.53s.73 0 .89.19.27.44.41.65.1699.49.2999.7.3001.41.4101.63.17.47.27.7.02.52.1.76.2499.44.3199.68.47.4.53.64-.4599.62-.4099.86.6099.37.6499.61-.4799.56-.4499.8.62.42.63.66-.22.5-.22.74.24.49.23.74-.0301.5-.0601.74-.34.45-.39.68.1401.54.0801.77-.52.34-.61.56-.14.44-.25.66.06.58-.07.79-.54.21-.71.4.04.73-.15.9-.73-.1-.93.05-.3901.26-.6101.39-.4499.15-.6799.26-.25999.6-.48999.7-.45006.25-.68006.32-.58995-.27-.82995-.22-.38001.66-.63001.7-.55005-.45-.80005-.44-.49999.46-.73999.45-.49999-.18-.73999-.22-.37998-.51-.60998-.58c-.22-.07-.38995-.06-.56995-.18s-.25002-.28-.40002-.45-.71006-.06-.81006-.26-.00994-.5-.05994-.72.28992-.45.28992-.68-.49996-.49-.45996-.71c.06-.26.58006-.34.69006-.55.12-.23.24993-.35.42993-.53s.32004-.28.54004-.41.21997-.69.46997-.77.51002-.19.77002-.23.53993.35.79993.35.49011-.03.74011 0c.24.03.51-.12.75-.07s.5299-.05.7699.03.29002.64.52002.73.45004.13.67004.25.43001.2.63001.33.4.25.59.41.37.29.55.46.3899.28.5499.47.5001.24.6401.45c.13.2.42.34.53.55s.2.47.29.69-.33.63-.27.86.3799.39.4299.62.22.45.25.69-.14.5-.13.74.1001.47.1001.72.19.49.18.73-.41.45-.43.69-.02.47-.05.71-.17.45-.22.68-.24.42-.3.65.45.63.38.85-.25.43-.33.66-.08.5-.17.72-.45.33-.55.55-.21.43-.32.64-.26.4-.38.61-.24.41-.38.61c-.14.21-.42.3-.58.49s-.04.65-.23.83c-.18998.18-.47003.25-.68003.39s-.46995.2-.69995.31c-.23.1-.48998.06-.72998.12s-.45007.31-.69007.33-.51.08-.75.06-.51001-.01-.76001-.06-.43003-.36-.66003-.43c-.19-.06-.40998-.04-.59998-.12s-.48992.04-.66992-.07-.33011-.29-.49011-.43-.09997-.48-.21997-.64-.13996-.35-.20996-.54-.03005-.34-.05005-.55c-.02-.23-.47993-.49-.42993-.71s.46996-.32.58996-.52.25004-.35.41004-.51.24995-.41.44995-.53.51999.11.73999.04.35008-.36.58008-.39.43992-.36.66992-.37.45005.46.68005.48c.24.02.53001-.43.76001-.39s.42991.32.65991.38.55001-.09.76001 0 .36007.4.57007.51.46992.14.6699.27c.2.13.18.55.37.7s.71-.09.88.07-.0999.75.0501.93.78-.01.92.18.0299.56.1499.77-.0299.54.0801.75.28.37.37.59.3.38.37.61.19.44.24.67-.04.49 0 .72.13.45.15.69-.0901.47-.0801.71.13.46.13.7.14.48.12.72-.3499.43-.3899.66.2199.52.1599.75-.1499.45-.2199.68c-.07.22-.46.3-.57.52s-.1001.45-.2301.65-.2999.34-.4499.53-.34.3-.5.47-.09.56-.26.73-.25.44-.44.59-.47.18-.66.31-.2201.55-.42006.67c-.2.12-.71993-.29-.92993-.18s-.35006.35-.56006.44c-.22.1-.44002.17-.65002.25s-.40001.16-.63001.2-.42991.15-.65991.16-.45004-.05-.67004-.08-.4-.24-.62-.3-.59004.29-.79004.2-.30999-.42-.48999-.55-.25991-.36-.40991-.53-.52-.18-.63-.38-.04009-.48-.09009-.71c-.08-.32-.21994-.65-.18994-.97.02-.23.11996-.47.20996-.69s.06996-.52.20996-.72.41009-.29.59009-.45.55001.03.76001-.08c.24-.13.2599-.82.52991-.89.27-.07.61.06.88.03s.55007.41.82007.42c.25.01.53002-.4.77002-.35s.54002 0 .77002.09.45993.25.67993.36.37007.37.57007.5.27997.44.46997.6.29999.37.47999.54.71 0 .87.19-.03.66.12.85.37.33.5.54.3.39.41.61c.12.21.3.4.4.63s-.05.55.05.78.66.29.74.52.1699.48.2299.72.1701.49.2101.73-.02.52 0 .77.0299.51.0399.75-.11.51-.11.75.0701.5.0501.75-.31.47-.34.71-.25.44-.3.68.34.59.27.83-.54.34-.62.57.0299.54-.0801.76-.0399.55-.1699.76c-.12.2-.14.51-.29.7s-.78-.07-.95.1-.23.41-.41.56-.33.33-.52.46-.16.64-.36.76c-.20002.12-.43004.26-.64004.36s-.62997-.24-.84997-.15-.34006.51-.56006.57-.47996.09-.70996.12-.48997-.36-.71997-.36-.43004-.08-.66004-.11-.56003.55-.79003.5c-.23001-.05-.32993-.54-.54993-.62s-.34004-.29-.54004-.41-.40996-.16-.57996-.31-.56008-.09-.71008-.27c-.16-.2.06007-.63-.04993-.86s-.52006-.33-.57006-.58c-.05001-.25-.14999-.55-.10999-.8.04-.24.47008-.34.58008-.56s-.05001-.6.11999-.78.33002-.4.52002-.54.63999.16.85999.06c.23-.11.33995-.47.57995-.54s.51001 0 .76001-.03.48999-.22.73999-.22.54004-.24.79004-.21.51001.19.76001.25.44994.3.68994.39.32005.5.55005.61.65-.17.87-.05c.21999.12.36999.36.57999.51s.57.1.77.25c.19.15.2799.43.4599.59s.2401.44.4001.62.41.28.56.46.09.53.22.72.72.11.84.32-.09.6.01.82.18.44.26.66.2699.41.3399.64.06.48.11.71.35.43.39.67-.4.52-.38.76.3201.46.3301.7-.17.47-.19.71-.2601.44-.2901.68.3701.54.3301.77.08.52.02.75-.17.45-.23.68-.31.41-.38.63.03.52-.06.74-.36.37-.45.59-.16.45-.27.66-.17.46-.29.66-.22.44-.36.63-.3701.33-.5301.51c-.15.18-.3099.4-.4799.56s-.28.45-.48.59-.53.1-.74.22-.57004-.07-.79004.03-.37999.29-.60999.36-.37998.44-.60998.49-.54002-.27-.77002-.25-.45995.1-.69995.1-.47009.1-.71009.08-.53989.26-.76989.22-.33006-.65-.56006-.72c-.24-.08-.66999.26-.85999.13-.2-.14-.42006-.35-.57006-.53-.15001-.18-.09997-.53-.20997-.75s-.10002-.46-.15002-.69-.29992-.46-.28992-.7-.11005-.54-.05005-.78.31005-.45.42005-.66.12002-.55.27002-.74.73993.07.92993-.07.35007-.24.57007-.35.38988-.17.62988-.24.3601-.7.6001-.73.51.59.75.6.46996-.11.70996-.07.57005-.31.80005-.24.53.08.75.18.18989.72.38989.84.34002.26.52002.4c.17996.14.45996.13.61996.29s.4401.2.5901.37.3899.29.5199.47-.1499.64-.0299.83.75.1.86.3.14.45.23.66.05.48.13.69c.09.22.04.49.12.72s.05.48.12.71 0 .49.06.72.45.37.5.61.07.47.12.71-.22.52-.19.75.43.42.45.66.05.48.06.72-.35.48-.35.72.09.47.08.7.06.47.03.71.2599.52.2099.76-.0499.5-.0999.73-.1901.46-.2701.69-.42.35-.51.57-.1999.43-.3199.63-.33.34-.47.53-.09.54-.26.71-.2701.43-.4601.58-.4999.13-.7099.26-.42.22-.64.33-.40005.27-.63005.35-.49999-.03-.73999.03c-.22.06-.47998-.08-.72998-.04-.19.04-.34998.4-.59998.4-.21 0-.44004.12-.67004.1-.22-.02-.46994.1-.68994.06s-.3801-.47-.6001-.51c-.23-.04-.55989.35-.75989.3-.24-.06-.33001-.55-.51001-.62-.23-.09-.40008-.22-.58008-.34-.21-.13-.24001-.38-.39001-.54-.17-.17-.66991-.07-.77991-.27s.21992-.56.16992-.79-.27001-.4-.26001-.63.00006-.46.06006-.69.27001-.37.38001-.58.37003-.25.53003-.43.12994-.47.31994-.61.33004-.31.54004-.42.40001-.2.63001-.28c.21-.07.36998-.45.60998-.49.25-.05.55993.39.79993.37.26-.02.47008.09.71008.11s.45995.01.69995.07.47996.02.70996.11.58005-.08.80005.04.42.29.62.43c.20003.14.19003.55.37003.72s.61.07.78.25.05.61.21.81.4499.26.5999.47.1601.48.3001.69.37.35.5.56.07.51.18.72.5599.27.6499.49-.21.6-.12.83.5901.31.6601.54.17.47.23.7-.16.53-.12.77.51.43.53.67-.52.53-.51.77.15.47.15.72-.0401.48-.0601.72-.11.47-.14.71-.1599.45-.2099.69.11.52.05.75-.31.4-.39.64-.01.5-.1.73-.18.44-.29.66-.4201.32-.5401.53.25.71.12.91-.76.07-.9.27.05.64-.11.82c-.15.18-.2599.41-.4199.58s-.23.45-.4.62-.54.12-.72.27-.36003.31-.55003.44-.23995.53-.44995.64-.68002-.29-.89002-.19-.38999.22-.61999.3-.36998.44-.59998.48-.51-.26-.75-.24-.44004.24-.67004.23-.46995.03-.69995-.02-.47006-.09-.68006-.16-.34004-.39-.54004-.49-.48993-.06-.67993-.19-.45999-.2-.61999-.36-.21009-.45-.34009-.64-.10993-.44-.17993-.66-.22998-.4-.22998-.64c0-.26.29999-.42.36999-.65s.04994-.45.18994-.67.32001-.31.51001-.49c.17-.17.18002-.52.39002-.66s.57005.04.80005-.08.27001-.59.51001-.68.46997-.2.71997-.26.53003.13.78003.1.47998-.42.72998-.42c.24 0 .48997.14.71997.15s.43003.38.66003.42.53001-.26.76001-.21.33994.53.55994.6.67003-.42.88003-.32.4.31.61.42.2899.46.4799.59.42.22.61.37.1801.49.3501.66.4899.17.6499.35.49.22.63.42-.0599.6.0601.81.6099.21.7099.43.1801.46.2601.69 0 .51.07.74.26.44.3.67-.45.53-.43.77.6499.44.6699.69-.0799.5-.0699.75-.53.49-.53.74.0999.48.0899.73.2301.5.2101.75-.1601.48-.2001.72-.1599.47-.2099.71.22.56.15.8-.06.52-.15.75-.63.28-.74.5 0 .55-.12.76-.1701.49-.3201.68-.5099.21-.6799.38-.1201.59-.3001.74-.3999.3-.5899.44-.43.24-.64.36-.52.04-.74.15-.48.08-.69997.16c-.22.08-.42003.22-.65003.29s-.45005.16-.68005.21-.47996 0-.70996.04-.43005.47-.67005.49-.49999-.19-.73999-.19-.49998.2-.72998.18-.45994-.29-.68994-.33c-.22-.04-.55.19-.75.1s-.24004-.53-.42004-.66-.25003-.34-.40003-.5-.47998-.16-.60998-.35-.20004-.4-.29004-.61c-.1-.24-.36992-.44-.41992-.68-.05-.25.04992-.54.04992-.79 0-.26.26007-.46.32007-.7s-.26001-.65-.14001-.87.36002-.42.52002-.62.52997-.2.71997-.36.22995-.57.44995-.69.54003-.09.78003-.19.55005.12.80005.07.40991-.57.65991-.6.52002.04.77002.04.47998.41.72998.43.49999-.1.73999-.06.59008-.29.83008-.22.49998.18.73.27c.23.09.21.71.43.83s.6899-.16.8899 0c.19.14.19.54.37.7s.3001.37.4701.55.19.45.34.64.55.19.68.39.36.35.48.57-.16.62-.05.84.7499.2.8399.43-.1599.58-.0899.81 0 .49.06.73-.0201.48.0199.72.6601.39.6901.63-.08.51-.07.75.21.49.2.74-.62.46-.64.7.33.52.3.75-.49.4-.54.64-.02.47-.08.7-.0001.5-.0801.72.07.55-.03.77-.0599.54-.1699.75-.54.24-.67.44-.45.25-.59.44-.0301.57-.1901.75-.45.23-.61.41-.4399.22-.6099.38-.3301.32-.5101.47-.0299.74-.2199.88-.52.11-.72.24-.36007.36-.57007.47-.45993.19-.67993.28-.44004.27-.67004.34-.53002-.11-.77002-.07-.47997.2-.71997.2c-.23 0-.46995-.2-.69995-.24s-.42002-.22-.64002-.29-.61007.25-.82007.15-.33991-.41-.53991-.54-.14007-.57-.32007-.72-.67996.03-.82996-.15.00001-.58-.11999-.78c-.13-.21-.40998-.33-.47998-.55-.08-.23-.2101-.47-.2201-.71s-.20992-.55-.16992-.78.72996-.27.82996-.49-.09996-.57.04004-.76.52995-.14.69995-.31.09004-.6.29004-.74.58004.09.79004-.01.21995-.74.44995-.82.57005.23.80005.18.44994-.17.68994-.2.46996-.33.70996-.34.47008.41.71008.43.53002-.33.77002-.29.45994.22.68994.28.53001-.03.76001.06c.23002.09.18002.8.39002.9s.4999.03.6999.16.3401.31.5301.46.5199.11.6899.27.2101.45.3601.63.46.24.6.43.3099.37.4299.59.0601.49.1501.72.0399.47.0999.71.5501.36.5901.6-.16.51-.14.75-.31.47-.3.72.3499.49.3499.73-.01.49 0 .73-.2299.49-.2299.73.33.48.33.73.18.48.18.73-.1801.49-.1701.73-.01.49 0 .73-.2099.49-.2099.73.3.48.31.72-.2001.49-.2001.73.3101.48.3101.72-.51.49-.51.73.1.49.11.73.23.48.24.72.28.48.28.72-.5.49-.5.73.2899.48.2999.72-.38.49-.38.73.0901.48.1001.72-.0701.48-.0701.73.1301.48.1301.72.19.48.2.72-.3501.48-.3501.72.3601.48.3601.71.2699.47.2799.71-.27.5-.25.73.1301.47.1701.71-.1101.52-.0701.75-.1299.55-.0699.78.7499.28.8199.51-.1499.57-.0599.79.2099.44.3199.65.0901.51.2101.72.1499.5.2899.7.6901.09.8401.28.3899.28.5499.45.1201.54.3001.71.23.47.42.63.52.12.72.26.38.29.58.42.54.02.75.13.31.41.53.52.42.22.65.32.3099.5.5399.59.5601-.12.7901-.04.3699.44.5999.51.4701.14.7001.21.57-.29.81-.23.45.2.68.25.4299.36.6599.4.4801.07.7201.11.51-.14.75-.11.5-.13.74-.11.4499.41.6899.43.48.16.72.17.5101-.29.7401-.29c.25 0 .48.3.72.3.25 0 .5-.18.73-.18.25 0 .5.18.73.18.26 0 .4999-.13.7299-.14.28-.01.5001-.3.7001-.32.45-.03.74.11.74.11"/><path d="m35.9702 196.34c-.35 0-.3499-.13-.6999-.13s-.3501.06-.7001.06-.35-.11-.7-.11-.3499.07-.6999.07-.3501.39-.7001.39-.3499-.23-.6999-.23-.3501.23-.7001.23-.35-.01-.7-.01-.3499.1-.6999.1-.3501-.28-.7101-.28-.35.39-.71.39-.3499-.6-.7099-.6-.3501.42-.7101.42c-.26 0-.28-.47-.45-.64s-.3-.19-.3-.45c0-.1-.2999-.1-.2999-.2 0-.26.37-.35.53-.51s.2599-.39.5099-.39c.35 0 .3501-.21.7001-.21s.3499.13.6999.13.3501-.17.7001-.17.3499.04.6999.04.35.34.7.34h.7001c.35 0 .3499.07.6999.07s.3501-.03.7001-.03.3499-.49.6999-.49.35.01.71.01.3501.55.7101.55.3499-.31.7099-.31.35.12.71.12c.26 0 .6301-.13.8001.04s.2199.54.2199.8c0 .1-.2999.1-.2999.2 0 .26.2399.62.0699.79s-.53 0-.79 0z"/><path d="m22.6205 4.76001c-.37 0-.37-.02002-.74-.02002s-.37-.10999-.74-.10999-.37-.17001-.74-.17001-.37.11002-.74.11002-.37.07-.74.07-.37.15-.75.15-.37.16-.75.16c-.26 0-.42-.47001-.58-.64001s-.6501-.32999-.6501-.57999c0-.1.5501-.10001.5501-.20001 0-.26.0299-.31999.1999-.48999s.2301-.57001.4901-.57001c.37 0 .37-.04999.74-.04999s.37.22.74.22.37-.05001.74-.05001.37-.32999.74-.32999.37.57999.74.57999.37.08001.75.08001.37-.11001.75-.11001c.26 0 .54-.16.71 0s.29.44999.29.70999c0 .1-.29.10001-.29.20001 0 .26 0 .37001-.17.54001s-.28.48999-.54.48999z"/></g></svg>