<svg fill="none" height="5" viewBox="0 0 62 5" width="62" xmlns="http://www.w3.org/2000/svg"><path d="m1.39001 1.36999c.33-.13.45997-.07.71997-.22.28-.05.70002.06.90002.19.3.15-.06001-.11-.14001-.1 0 0-.06002-.00998-.02002-.00998.21-.03.56.01999.75.08999.14.05.00998-.01999-.02002-.02999-.14-.05-.29998 0-.47998.07-.3.15-.34997.27998-.34997.25998.14-.41.81001-1.089976 1.52001-1.039976.38 0 .62004-.03 1.04004 0 .56.02 1.08.039973 1.5.409973.2.170003.22998.200023.09998.090023-.13-.099996-.42998-.16002-.47998-.15002.48 0 1.15998-.049978 1.60998.21002.15.07-.02998-.02002-.10998-.02002-.16-.02-.27009.00001-.47009.07001-.3.13-.39002.29-.39002.28.21-.41.93009-.970007 1.59009-.880007.19.01.34993.029997.54993.089997.29.1.37001.150006.26001.100006-.08-.03-.23001-.039999-.13001-.029999.24 0 .62001.07999.88004.23999.26.160003.27.170023.13.090023-.32-.109996-.38006-.109996-.66006 0-.09.06.09003-.08.41006-.189998.15-.08.57-.110006.68-.100006.19 0 .4799-.029999.6599-.029999.32-.05 1.0601.249983 1.1701.389983.1.07-.09-.07001-.25-.10001-.08-.02-.14-.01998-.18-.01998 0 0-.1101.02.0099 0 .13-.040004.3901-.08.5501-.09.11 0 .45-.020015.79.10998.35.13.58.34003.56.31003-.25-.17-.65-.26-1.09.03-.22.16-.2199.22998-.1899.16998.69-1.209995 2.3899-1.169995 3.0499 0 0 .01-.0901-.15998-.4101-.29998-.15-.09-.5599-.08002-.2799-.08002l.54-.01999c.11 0 .07 0 .05 0-.05.01 0 .00001.22-.04999.1-.02.2-.03001.29-.04001h.12s.14 0 .03 0c-.25-.01-.62.19999-.7.29999-.09.1-.05.05.06-.1.1-.13.39-.469999.89-.619999.46-.14.9701-.089996 1.3901.160004.42.269995.5498.519995.6298.619995.07.11.1.13001 0 .01001-.07-.12-.4899-.34999-.7799-.32999-.24-.03-.65.15998-.74.28998-.11.11-.09.1 0-.03.65-.989998 2.2401-.979977 2.8901-.00998.08.12.0999.10998-.0401-.02002-.11-.1-.38-.22999-.56-.23999-.06 0-.16 0-.08 0 .15 0 .38.01999.59.07999.22.06.15.04.11.03-.08 0 .0599-.01-.1401 0-.16 0-.4199.15002-.4299.18002-.03.03.17-.18002.54-.33002.35-.149995.7499-.149979.8899-.139979.2 0 .5401.089979.7101.169979.17.07 0 0-.07 0h-.07c.17-.01.49.02002.61.05002.05.01.15-.00002.06.00998-.06 0-.15.04.07-.03.24-.07.49-.08999.68-.08999h-.04-.09c-.16 0-.61.31001-.15.01001.25-.180004.78-.290024.98-.270024-.06 0-.1101.009999-.1801.029999-.05.02-.0899.040019-.0499.020019.63-.3 1.35-.310012 1.96.049988.26.169998.27.179998.11.089997-.11-.05-.23-.079997-.34-.089997.12-.02.75.110009.97.290008.45.31-.01-.02-.17 0-.25-.08-.7799.14-.8699.28.6-.91 2.2299-1.069996 2.9699.13.04.07.03 0-.18-.16-.44-.3-.9-.21001-1.17-.01001.12-.17.91-.54 1.32-.47.1 0 .4-.019989.5-.019989.53-.08 1.28.290009 1.5.570009.1.1-.01-.04002-.24-.14002-.35-.17-.91-.03999-1.16.26001.15-.29.9401-.860015 1.4601-.800015.36 0 .54.030029.75.030029h-.0401c-.07 0-.3001.069976-.3301.099976.15-.15 1.0201-.409999 1.4201-.279999.36.04.77.300023.9.430019.15.14.1.06-.1-.04-.36-.170004-.72-.080008-.94.08999.15-.209998 1.03-.589989 1.5-.459989.45.04.91.369999 1.06.559999.17.19.23.28998.19.22998-.02-.07-.48-.36998-.75-.31998h.05c.15 0 .3899-.02002.6699-.02002.1-.01-.2899.05999.3001-.07001.59-.059995.62-.00997 1.02-.00997.32-.04 1.0101.15998 1.17.29998.07.03-.1601-.07-.2401-.07-.11 0-.0799 0-.1799 0-.09.01-.2401.09-.0701 0 .49-.290004 1.5901-.19 1.9501.13-.07-.04-.2701-.1-.3201-.09-.11.02-.1099.02002.1701-.04998.2-.04.42-.05002.52-.05002.02 0 .04 0 0 0-.03.01.16-.04998.36-.06998.13-.02.23-.02002.35-.02002h-.06c-.09 0-.32.10002-.33.11002-.02.02.24-.18002.56-.270021.56-.23 1.54.070001 1.84.500001.13.15.16.18001.04.07001-.31-.24-.75-.3-1.1-.06-.11.09-.0701.04999.1499-.13001.28-.25.9002-.389993 1.2402-.339993.08 0 .1698.010003.2598.030003.47.09.1101.03999.3301.05999.13 0 .31.02002.48.05002l.14.03c-.01.01.16-.02-.18.03-.14.03-.39.16998-.45.25998.13-.26.89-.799992 1.37-.739992.4-.04.97.230002 1.17.470002.23.23.29.37.32.41-.24-.33-.96-.47-1.33-.13-.07.05-.1099.1-.1099.1.59-.969996 2.1099-1.059993 2.7899-.05999.01.02-.12-.15001-.37-.23001-.3-.15-.88.09001-.97.26001.64-1.030004 2.1701-1.030024 2.8001-.02002 0 0-.1801-.19998-.4401-.25998-.28-.05-.29-.03001-.48.01999-.17.06-.27.15999-.14.05999.39-.339997 1.15-.529987 1.77-.23999.38.17.56.41.62.47.05.06-.02-.05001-.24-.14001-.23-.08-.34-.09-.57-.03-.25.07-.3901.24001-.3801.23001 0 0 .1-.15001.37-.36001.53-.390004 1.0901-.389995 1.6601-.21.22.08.1599.06001.0899.04001-.07-.01-.0599 0-.0599 0s-.1.01999-.08.01999c.0201-.01.3099-.10999.5099-.119993.1-.01.1901-.009989.2701-.019989h.09s.0299-.00001.1399-.01001c.48-.02.6901-.150008 1.3501.209992.34.23.45.44001.51.51001.06.09.07.06-.08-.06-.19-.13-.43-.22001-.69-.17001-.31.04-.54.27-.55.31-.03.05.0001.00002.0801-.12998.09-.11.2298-.37003.6298-.59003.28-.149995.6301-.189968.9301-.159968.17 0 .43.079975.49.099975.05.01-.03 0-.01 0-.05 0 .19-.000001.38.030003.21.03.45.12001.42.11001-.02 0-.08-.01001-.06-.01001-.06 0 .18 0 .33.03.16.03.34.10002.49.18002.29.17.4201.34.4001.31 0 0-.2202-.16001-.3702-.17001-.19-.02-.0699 0-.1599 0-.06.01-.13.04.07-.03.22-.08.49-.11999.69-.10999h-.05c-.13 0-.3.05999-.4.13999-.13.1-.1199.12-.0299 0 .1-.11.37-.37001.75-.480013.32-.08.5099-.069998.8099-.029998.24.04.53.190011.55.200011.02 0-.13-.04-.16-.03-.1-.01.5299.04001.5599.07001.03.02.1901.02998.3201.03998h.27.1599l.2101.02002c.23.01.57.13.75.28.18.14.19.15998.09.10998-.2-.06-.18-.04998-.28.02002-.02.03.15-.06001.37-.10001.42-.08.89.00999 1.2.26999.14.12.12.12001.05.10001-.09-.03-.27.08-.28.13.01.02.1-.06001.28-.17001.19-.1.49-.19998.64-.10998l-.0301 1.16c0 .02.09.02999.13.01999 0 .19-.4699.47-.7299.5-.22.04-.4001.03001-.6501-.04999-.23-.09-.38-.21-.38-.19-.01.02.1101.08999.1501.08999.05.01-.02.03.04.03.05 0 .07 0-.12.09-.46.18-.8001.21999-1.3101.01999-.26-.13-.3799-.24-.3399-.19.04.04.2.11001.26.11001-.13.02-.56.11001-1.13.07001-.31-.03-.03-.00002-.48-.02002-.2 0-.52-.10999-.66-.17999s0-.00001.06.01999h.06s.1399.00001.2299-.01999c.21-.06.3401-.2.3301-.18-.18.28-.82.68001-1.28.63001 0 0 .08-.00002.11-.02002.04-.02-.1901.09-.4201.13-.26.04-.3199.06002-.6899.02002-.33-.04-.7-.27002-.83-.40002-.15-.14-.14-.10999 0-.01999.07.04.17.08.24.09.06.02.21.02001.06.01001-.15 0-.39-.03-.58-.09-.19-.07-.1199-.04-.0799-.03.02 0 .0799 0-.1401 0-.15 0-.41-.05003-.53-.09003-.11-.03-.01 0-.02 0h.01c.12 0 .28-.03998.4-.10998.25-.14.28-.25.27-.22-.56 1.13-2.1 1.24001-2.79.14001-.04-.06-.03-.00002.16.12998.17.15.63.15002.44.15002-.06 0-.06-.00002-.12.00998-.08.02-.4801.05001-.5501.04001.02 0 .14-.03999 0 .01001-.15.06-.4199.10999-.5899.11999-.17 0-.34 0-.58-.04-.25-.05-.46-.15001-.4-.13001.05.02.13.03.12.03.05.02.42-.05998.53-.16998.12-.1.12-.12001 0 .01999-.1.12-.38.40999-.8.51998-.57.23-1.48-.15999-1.73-.52999-.06-.07-.0001.03001.2099.14001.34.16.6401.04.7901-.06-.87.77-2.11.39-2.52-.28.24.3.94.35001 1.24.04001.12-.11.1-.11.02 0-.57.9-2.04.93-2.65.09-.1-.13-.11-.11.02 0 .31.3.9999.20999 1.2199-.07001.07-.07.0301-.03-.0799.12-.35.53-1.43.89-2.13.41-.39-.25-.51-.48001-.58-.57001-.09-.12-.07-.1 0 0 .08.11.47.30002.7.27002.19.02.53-.13001.61-.23001.1-.1.06-.06-.06.09-.1.13-.44.44999-.87.54999-.62.11-.72.04001-1.08-.01999-.1 0-.29 0-.49-.03-.21-.04-.29-.05999-.26-.04999h.01c.12.01.3999-.10001.4799-.17001.09-.08 0 .01999-.25.20999-.75.57-1.9398.27-2.3899-.4 0 0 .22.21001.46.26001.27.04.2401.03.4201 0 .16-.05.2699-.14001.0999-.02002-.16.12-.55.28001-.82.29001-.55.04.0399-.02998-.3901.05002-.19.04-.3799.04999-.5199.04999-.0699 0-.0299 0 0 0-.38.14-1.23.17-1.68-.12-.22-.13-.15-.07002 0-.02002.26.07.28.04003.46-.00997-.18.13-.9001.28998-1.2601.19998-.26-.02-.6399-.19998-.7299-.25998-.1-.05.1.06.2.06.05 0 .09.00997.1.00997-.09 0-.35 0-.44 0-.13 0-.3801 0-.2601 0 .25-.05-.4799.14002-.7299.11002-.13 0-.49.03-.72.03-.49.04-1.16-.36999-1.32-.60999-.16-.19-.19-.24002-.14-.18002.03.06.33.28.61.31.25.02.32.00001.53-.07999.18-.09.22-.15.03 0-.17.15-.61.36-.93.37-.42.12-1.35-.25999-1.52-.51999.08.11.58.28.79.19.15-.04.28-.13001.08-.01001-.44.3-1.23.27001-1.7.23001.22.02.6-.16002.7-.27002.11-.12.0699-.07999-.0501.07001-.11.13-.4399.48001-.9199.60001-.61.23-1.5801-.18-1.8301-.53-.06-.05.1101.12.3501.19.11.05.41.04999.19.04999-.16.01-.46.01999-.62.01999h.1c.08 0 .18-.02998.27-.06998.19-.09.2601-.17002.0701-.02002-.15.14-.6101.36-.9301.38-.2.05-.88-.00998-1.22-.29998-.36-.26-.47-.48002-.53-.55002-.05-.08-.04-.01999.16.14001.21.17.61.24998.8.19998.28-.03.56-.24998.59-.29998-.07.19-.82.79-1.32.75-.39.02-.64-.03-.98-.18-.32-.17-.45-.3-.35-.22.1.07.35.14999.44.13999.06 0-.02 0-.09 0-.24-.01-.5-.08001-.72-.19001-.32-.17-.44-.28998-.32-.19998.23.15.54.14999.7.07999-.2.12-.77.23-.93.22.08 0 .33-.06.43-.13.11-.08-.0201.05002-.3501.21002-.23.11-.4799.16999-.7199.17999h-.11c-.01 0 .07.00001.11-.01999-.24.14-1.18.16998-1.5.06998-.24.04-.9-.13998-.98-.19998.21.06.2299.09.5799-.03.2-.09.2701-.18001.1001-.04001-.14.13-.57.36001-.9.39001-.43.06-.8601-.03-1.0701-.1.22.03-.1098 0-.1398 0-.46.01-1.1701-.55-1.3001-.81-.02-.03.08.13999.37.26999.31.11.5.12.83 0 .31-.13.41-.3.4-.28-.01 0-.08.14001-.32.38001-.83.85-2.28.48999-2.76-.47001-.02-.05 0 .05999.27.23999.41.27 1.07.17002 1.36-.19998-.18.34-.92.9-1.53.84.12-.03-.02.01-.26.06-.19.03-.41.03-.47.03-.43 0-.85.07998-1.31-.11002-.48-.2-.7-.51998-.79-.63998-.1-.14-.13-.18001-.06-.10001.51.56 1.31.29001 1.55.01001-.07.09-.18.3-.54.56-.75.49-1.53.30999-2.07-.07001-.17-.13-.07-.02999.11.04001.17.06.3401.04999.2701.04999-.02 0 .0699-.01.0299 0-.27.09-.86.14-1.2.04-.34-.07-.67-.31-.71-.35-.07-.04.14.09999.3.11999.06.02.15.02002.15.02002h-.1-.2-.35c-.08.01-.06.01 0 0 .04 0 .1-.02001.17-.04001.14-.06.19-.09001-.06.04999-.59.36-1.69003.16-1.99003-.16.1.06.31.11001.37.11001-.08 0-.41003-.02001-.65003-.11001-.28-.1-.33997-.14998-.21997-.09998.08.03.17.03.25.03.28 0 .61004-.23001.67004-.32001.07-.08.02995-.03999-.06005.10001-.1.12-.31002.42-.77002.62-.55.21-1.10997.12-1.58997-.12-.01 0 .17008.05999.21008.04999-.56-.02-1.10001.07001-1.64001-.29999-.66-.53-.14007-.05.17993-.06.13 0 .00007 0-.04993 0h-.18005c-.29-.04-.62995-.03002-.94995-.02002h-.15003-.04003.10998c.08-.01.16-.02999.25-.05999.35-.15.45007-.34.45007-.34 0-.02-.04.05-.13.19-.1.13-.25008.39999-.71008.63999-.34.16-.66.18001-1 .11001-.21-.03-.5099-.15001-.5199-.17001s.10998.00001.10998-.01999v-.01001l-.15002-.01999c-.26.01-.85998-.34999-.84998-.42999.03 0 .22992.07.28992 0l-.07995-.02002-.18006-.04999c-.31-.09-.28996-.17-.45996-.25-.59-.26-.59-1.16999 0-1.42999z" fill="#000"/></svg>