<svg fill="none" height="99" viewBox="0 0 85 99" width="85" xmlns="http://www.w3.org/2000/svg"><path d="m2.45 87.82c.23-.27.27001.23.63001.23s.36008-.48.71008-.48.35997.43.71997.43.35997-.57.71997-.57h.71997c.36 0 .3601.52.7201.52s.35997-.27.71997-.27.35997-.23.71997-.23.35997.43.71997.43.36009-.4.72009-.4.35997.5.72.5c.36 0 .3599-.06.7199-.06s.36.11.72.11.3601-.3.7201-.3.36.29.72.29.3599.03.7199.03.36-.05.72-.05.3601.07.7201.07.36-.62.72-.62.36.12.72.12.3599.02.7199.02.36.05.72.05.3601.04.7201.04.36-.08.72-.08.3599-.17.7199-.17.36.23.72.23.3601.27.7201.27.36-.28.71-.28.3599.07.7099.07.3601.06.7201.06h.72c.36 0 .3599.04.7199.04s.36.07.72.07.3601.15.7201.15.36-.04.72-.04.36-.22.72-.22.3599-.18.7199-.18.36.37.72.37.3601-.29.7201-.29.36.37.72.37.3599-.04.7199-.04.36.03.72.03.3601-.17.7201-.17.36-.45.72-.45.3599.09.7299.09.36.45.73.45c.25 0 .5301-.04.7801-.08s.3799-.57.6199-.64c.2401-.07.5501.1.7701 0s.3499-.37.5599-.5.6601.05.8501-.12-.04-.74.12-.92.5399-.18.6799-.39.12-.48.22-.71.6101-.31.6801-.55-.11-.55-.07-.8.21-.5.21-.75c0-.36-.0501-.36-.0501-.72s-.25-.36-.25-.72.01-.36.01-.72-.13-.36-.13-.72.5-.36.5-.72-.4699-.36-.4699-.72.17-.36.17-.72 0-.36 0-.72.2699-.36.2699-.72-.1599-.36-.1599-.72.0499-.36.0499-.72-.2799-.36-.2799-.72.1899-.36.1899-.72-.37-.36-.37-.72.22-.36.22-.72.4201-.36.4201-.72-.62-.36-.62-.72.16-.36.16-.72.4199-.36.4199-.72-.5399-.36-.5399-.72.5099-.36.5099-.72-.58-.36-.58-.72.46-.36.46-.72.2001-.36.2001-.72-.1-.36-.1-.72-.13-.36-.13-.72.0499-.36.0499-.72-.36-.36-.36-.72.38-.36.38-.72-.27-.36-.27-.72.02-.36.02-.72.24-.36.24-.72.0501-.36.0501-.72-.26-.36-.26-.72-.1801-.36-.1801-.72.28-.36.28-.72-.3-.36-.3-.72.0601-.36.0601-.72.01-.36.01-.72.0899-.36.0899-.72.34-.36.34-.72-.5299-.36-.5299-.72.6-.36.6-.72-.33-.36-.33-.72-.0701-.36-.0701-.72.2701-.36.2701-.72-.4201-.36-.4201-.72.4401-.36.4401-.72.0499-.36.0499-.72-.4199-.36-.4199-.72.15-.36.15-.72-.12-.36-.12-.72.0399-.36.0399-.72-.1799-.36-.1799-.72.0599-.36.0599-.72.4001-.36.4001-.72-.25-.36-.25-.72.16-.36.16-.72-.41-.36-.41-.72-.0401-.36-.0401-.72.5701-.36.5701-.72-.4301-.36-.4301-.72.3301-.36.3301-.72-.03-.36-.03-.72-.1801-.36-.1801-.72-.02-.36-.02-.72.28-.36.28-.72.0201-.36.0201-.72-.3901-.36-.3901-.72.24-.36.24-.72.25-.36.25-.72-.5499-.36-.5499-.72.2-.36.2-.72.0899-.36.0899-.72-.23-.36-.23-.72.08-.36.08-.72.3201-.36.3201-.72.01-.36.01-.73-.47-.36-.47-.72.49-.36.49-.72-.36-.36-.36-.72.1399-.36.1399-.73-.11-.36-.11-.73-.0399-.36-.0399-.73-.04-.36-.04-.73.0599-.36.0599-.73.4301-.36.4301-.73-.1401-.36-.1401-.72-.39-.36-.39-.73-.0599-.36-.0599-.73-.0701-.37-.0701-.73.15-.37.15-.73c0-.24.1601-.48.1701-.72s.0099-.48.0399-.72-.26-.53-.22-.76.46-.41.51-.64.15-.45.22-.68.05-.48.12-.71-.0399-.53.0501-.75.5099-.31.5999-.53.3201-.36.4301-.57c.11-.20999.0699-.49.1899-.7s-.12-.64.01-.84.6401-.13999.7801-.32999.12-.51.27-.69.2-.47001.36-.64001.46-.21999.63-.38999.1399-.56002.3199-.71002.43-.24999.61-.39999.68.11.87-.03.2801-.41999.4801-.54999.43-.20001.63-.32001.4199-.2.6399-.31.4701-.09.6901-.19.2399-.65001.4699-.73001.49-.06998.71-.13998.43-.26001.66-.32001.5-.00001.73-.04001.52.22002.76.18002.4-.64.64-.66.52.46999.76.45999c.2401-.01.47-.32001.71-.32001.36 0 .3601.24002.7101.24002s.36-.49002.71-.49002.3599.33002.7099.33002.3601.03.7101.03h.71c.35 0 .3599.14999.7099.14999s.3601-.48001.7101-.48001.36.15003.71.15003.3599.35998.7099.35998.3601-.51999.7101-.51999.36.60999.72.60999.3599-.22.7099-.22.36.23999.71.23999.3601-.4.7101-.4.3599-.16.7099-.16.36.19.71.19.3601.38001.7201.38001.36-.19.72-.19.3599.14001.7199.14001.36-.37.71-.37.3601.28998.7101.28998.3499-.20999.7099-.20999.36-.29999.71-.29999.3601.34998.7101.34998.36.32001.72.32001.3599-.19999.7199-.19999.3601-.48001.7101-.48001.36.46.71.46.3599-.07999.7199-.07999.36-.33002.72-.33002.3601.08002.7201.08002.36.36999.72.36999.3599-.20999.7199-.20999.36-.08999.72-.08999.3601.31997.7201.31997.36-.09997.72-.09997.36-.26001.72-.26001.3599.47.7199.47.36-.11002.72-.11002.6101-.55997.8701-.31997.2.49999.2.83999-.24.34-.24.69-.4201.35001-.4201.69001-.01.34997-.01.68997.27.35.27.69-.13.35-.13.69.25.35001.25.69001-.13.35-.13.69.34.35.34.69-.0199.35-.0199.69-.0701.35001-.0701.69c0 .34.11.35.11.7s.03.55-.22.79-.4499-.02-.8099-.02-.3601.02-.7101.02-.3599.03-.7099.03-.36-.28-.71-.28-.3601.36-.7101.36-.3599-.06-.7099-.06-.36.18-.71.18-.3601-.24-.7101-.24-.3599-.19-.7099-.19-.36-.21-.71-.21-.3601.2-.7201.2-.36-.03-.71-.03-.3599-.14-.7099-.14-.3601.59-.7101.59-.36-.23-.71-.23-.3599-.3-.7099-.3-.36.52-.72.52-.3601-.1-.7201-.1-.36-.51-.72-.51-.3599.22-.7099.22-.3601.4-.7101.4-.35-.44-.71-.44-.3599.47-.7099.47-.36-.46-.71-.46-.3601-.13-.7201-.13-.36.28-.72.28-.3599.14-.7099.14-.3601-.2-.7101-.2-.36.29-.72.29-.3599-.26-.7199-.26-.36-.04-.72-.04-.3601-.19-.7201-.19-.36.43-.72.43-.3599-.24-.7199-.24-.36.02-.72.02-.3601-.18-.7201-.18-.36.03-.72.03-.3599 0-.7199 0-.36.47-.72.47-.36-.27-.72-.27c-.25 0-.55-.32-.78-.28s-.3501.68-.5801.76-.66-.3-.87-.19-.28.5-.48.65-.45.22-.62.4-.1499.5-.2999.7-.26.38-.37.6-.5001.32-.5801.55-.12.49-.16.74.03.5.03.75c0 .36.1801.36.1801.72s-.26.36-.26.72.12.36.12.72-.2701.36-.2701.72.1301.36.1301.72-.09.36-.09.72.49.36.49.72-.0401.36-.0401.72v.72c0 .36-.0999.36-.0999.72s-.0501.36-.0501.72.2201.36.2201.72.0299.36.0299.72-.4399.36-.4399.72.4199.36.4199.72-.6.36-.6.72.2901.36.2901.72-.25.36-.25.72.52.36.52.72.02.36.02.72.0599.36.0599.72-.5.36-.5.72.1.36.1.72.28.36.28.72-.54.36-.54.72.28.36.28.72-.1899.36-.1899.72.5299.36.5299.72v.72c0 .36.03.36.03.72s-.28.36-.28.72.17.36.17.72.09.36.09.72-.1499.36-.1499.72-.3201.36-.3201.72.4501.36.4501.72-.1901.36-.1901.72.1801.36.1801.72-.02.36-.02.72-.38.36-.38.72-.23.36-.23.72.39.36.39.72.1.36.1.72.11.36.11.72v.72c0 .36-.4201.36-.4201.72s.3101.36.3101.72.12.36.12.72-.3201.36-.3201.72-.0499.36-.0499.72-.0701.36-.0701.72-.0799.36-.0799.72.27.36.27.72-.0701.36-.0701.72.1901.36.1901.72.1699.36.1699.72-.46.36-.46.72.3001.36.3001.72-.49.36-.49.72.5399.36.5399.72-.09.36-.09.72-.17.36-.17.72.16.36.16.72.22.36.22.72-.0599.36-.0599.72-.49.36-.49.72.1.36.1.72-.1501.36-.1501.72.6.36.6.72-.2699.36-.2699.72-.3501.36-.3501.72.2101.36.2101.72.0799.36.0799.72.1901.36.1901.72.09.36.09.72-.5501.36-.5501.72.49.36.49.72-.4.36-.4.73.1001.36.1001.72.1999.36.1999.72.0701.36.0701.72.0099.36.0099.73.0901.36.0901.73-.4301.36-.4301.73-.12.36-.12.73.36.36.36.73v.73c0 .37.0901.36.0901.72s.12.36.12.73-.04.36-.04.73-.14.37-.14.73-.08.37-.08.73c0 .24.1599.49.1499.73s-.58.44-.6.68.0001.47-.0399.71.16.51.12.75-.09.47-.15.7-.42.37-.49.6.3599.63.2799.85-.62.27-.72.49.1301.59.0301.8-.24.42-.36.63-.5301.24-.6601.44.13.66 0 .86-.5399.2-.6799.39-.08.55-.24.74-.6801.02-.8501.2-.09.57-.27.74-.15.57-.33.72-.4199.27-.6099.42-.39.31-.58.45-.43.25-.63.38-.7-.25-.91-.13-.3201.39-.5401.5-.3.5-.52.59-.4.32-.63.41-.6699-.47-.8999-.4-.43.18-.66.24-.35.6-.59.65-.51-.08-.75-.05-.5-.2-.74-.17-.4601.21-.7001.22-.4799-.1-.7199-.1c-.36 0-.36.35-.72.35s-.3601.03-.7201.03-.36-.12-.72-.12-.3599-.24-.7199-.24-.36.15-.72.15-.36.13-.72.13-.3601-.1-.7201-.1-.36-.26-.72-.26-.3599.21-.7199.21-.36.02-.72.02-.3601.12-.7201.12-.36-.24-.72-.24-.3599.46-.7199.46-.36-.29-.72-.29-.3601.11-.7201.11-.36-.4-.72-.4-.3599.52-.7199.52-.36-.07-.72-.07-.3601.16-.7201.16-.36-.15-.72-.15-.3599-.38-.7199-.38-.36.16-.72.16-.3601-.07-.7201-.07-.36.18-.72.18-.3599-.09-.7199-.09-.36.01-.72.01-.3601.26-.7201.26-.36-.52-.72-.52-.3599.43-.7199.43-.36 0-.72 0-.36-.36-.72-.36-.3601.25-.7201.25-.36-.1-.72-.1-.3599-.25-.7199-.25-.36.62-.72.62c-.35999 0-.36009-.09-.72009-.09s-.35997-.23-.71997-.23-.35997-.3-.71997-.3-.35997.23-.71997.23-.36009.22-.72009.22-.35998-.18-.72998-.18-.35998.05-.72998.05-.35998 0-.72998 0-.43997.16-.71997-.07-.22002-.31-.27002-.65-.21001-.32-.26001-.67.16999-.38.11999-.73.15999-.38.10999-.72.13995-.37.07995-.72-.11992-.34-.16992-.68-.45001-.29-.51001-.63.26997-.39.21997-.74-.05998-.34-.10998-.69-.11004-.34-.16004-.68-.03996-.35-.08996-.7-.19006-.32-.31006-.65-.16994-.38.06006-.65z" fill="#fff"/><path d="m2.45 87.82c.23-.27.27001.23.63001.23s.36008-.48.71008-.48.35997.43.71997.43.35997-.57.71997-.57h.71997c.36 0 .3601.52.7201.52s.35997-.27.71997-.27.35997-.23.71997-.23.35997.43.71997.43.36009-.4.72009-.4.35997.5.72.5c.36 0 .3599-.06.7199-.06s.36.11.72.11.3601-.3.7201-.3.36.29.72.29.3599.03.7199.03.36-.05.72-.05.3601.07.7201.07.36-.62.72-.62.36.12.72.12.3599.02.7199.02.36.05.72.05.3601.04.7201.04.36-.08.72-.08.3599-.17.7199-.17.36.23.72.23.3601.27.7201.27.36-.28.71-.28.3599.07.7099.07.3601.06.7201.06h.72c.36 0 .3599.04.7199.04s.36.07.72.07.3601.15.7201.15.36-.04.72-.04.36-.22.72-.22.3599-.18.7199-.18.36.37.72.37.3601-.29.7201-.29.36.37.72.37.3599-.04.7199-.04.36.03.72.03.3601-.17.7201-.17.36-.45.72-.45.3599.09.7299.09.36.45.73.45c.25 0 .5301-.04.7801-.08s.3799-.57.6199-.64c.2401-.07.5501.1.7701 0s.3499-.37.5599-.5.6601.05.8501-.12-.04-.74.12-.92.5399-.18.6799-.39.12-.48.22-.71.6101-.31.6801-.55-.11-.55-.07-.8.21-.5.21-.75c0-.36-.0501-.36-.0501-.72s-.25-.36-.25-.72.01-.36.01-.72-.13-.36-.13-.72.5-.36.5-.72-.4699-.36-.4699-.72.17-.36.17-.72 0-.36 0-.72.2699-.36.2699-.72-.1599-.36-.1599-.72.0499-.36.0499-.72-.2799-.36-.2799-.72.1899-.36.1899-.72-.37-.36-.37-.72.22-.36.22-.72.4201-.36.4201-.72-.62-.36-.62-.72.16-.36.16-.72.4199-.36.4199-.72-.5399-.36-.5399-.72.5099-.36.5099-.72-.58-.36-.58-.72.46-.36.46-.72.2001-.36.2001-.72-.1-.36-.1-.72-.13-.36-.13-.72.0499-.36.0499-.72-.36-.36-.36-.72.38-.36.38-.72-.27-.36-.27-.72.02-.36.02-.72.24-.36.24-.72.0501-.36.0501-.72-.26-.36-.26-.72-.1801-.36-.1801-.72.28-.36.28-.72-.3-.36-.3-.72.0601-.36.0601-.72.01-.36.01-.72.0899-.36.0899-.72.34-.36.34-.72-.5299-.36-.5299-.72.6-.36.6-.72-.33-.36-.33-.72-.0701-.36-.0701-.72.2701-.36.2701-.72-.4201-.36-.4201-.72.4401-.36.4401-.72.0499-.36.0499-.72-.4199-.36-.4199-.72.15-.36.15-.72-.12-.36-.12-.72.0399-.36.0399-.72-.1799-.36-.1799-.72.0599-.36.0599-.72.4001-.36.4001-.72-.25-.36-.25-.72.16-.36.16-.72-.41-.36-.41-.72-.0401-.36-.0401-.72.5701-.36.5701-.72-.4301-.36-.4301-.72.3301-.36.3301-.72-.03-.36-.03-.72-.1801-.36-.1801-.72-.02-.36-.02-.72.28-.36.28-.72.0201-.36.0201-.72-.3901-.36-.3901-.72.24-.36.24-.72.25-.36.25-.72-.5499-.36-.5499-.72.2-.36.2-.72.0899-.36.0899-.72-.23-.36-.23-.72.08-.36.08-.72.3201-.36.3201-.72.01-.36.01-.73-.47-.36-.47-.72.49-.36.49-.72-.36-.36-.36-.72.1399-.36.1399-.73-.11-.36-.11-.73-.0399-.36-.0399-.73-.04-.36-.04-.73.0599-.36.0599-.73.4301-.36.4301-.73-.1401-.36-.1401-.72-.39-.36-.39-.73-.0599-.36-.0599-.73-.0701-.37-.0701-.73.15-.37.15-.73c0-.24.1601-.48.1701-.72s.0099-.48.0399-.72-.26-.53-.22-.76.46-.41.51-.64.15-.45.22-.68.05-.48.12-.71-.0399-.53.0501-.75.5099-.31.5999-.53.3201-.36.4301-.57c.11-.20999.0699-.49.1899-.7s-.12-.64.01-.84.6401-.13999.7801-.32999.12-.51.27-.69.2-.47001.36-.64001.46-.21999.63-.38999.1399-.56002.3199-.71002.43-.24999.61-.39999.68.11.87-.03.2801-.41999.4801-.54999.43-.20001.63-.32001.4199-.2.6399-.31.4701-.09.6901-.19.2399-.65001.4699-.73001.49-.06998.71-.13998.43-.26001.66-.32001.5-.00001.73-.04001.52.22002.76.18002.4-.64.64-.66.52.46999.76.45999c.2401-.01.47-.32001.71-.32001.36 0 .3601.24002.7101.24002s.36-.49002.71-.49002.3599.33002.7099.33002.3601.03.7101.03h.71c.35 0 .3599.14999.7099.14999s.3601-.48001.7101-.48001.36.15003.71.15003.3599.35998.7099.35998.3601-.51999.7101-.51999.36.60999.72.60999.3599-.22.7099-.22.36.23999.71.23999.3601-.4.7101-.4.3599-.16.7099-.16.36.19.71.19.3601.38001.7201.38001.36-.19.72-.19.3599.14001.7199.14001.36-.37.71-.37.3601.28998.7101.28998.3499-.20999.7099-.20999.36-.29999.71-.29999.3601.34998.7101.34998.36.32001.72.32001.3599-.19999.7199-.19999.3601-.48001.7101-.48001.36.46.71.46.3599-.07999.7199-.07999.36-.33002.72-.33002.3601.08002.7201.08002.36.36999.72.36999.3599-.20999.7199-.20999.36-.08999.72-.08999.3601.31997.7201.31997.36-.09997.72-.09997.36-.26001.72-.26001.3599.47.7199.47.36-.11002.72-.11002.6101-.55997.8701-.31997.2.49999.2.83999-.24.34-.24.69-.4201.35001-.4201.69001-.01.34997-.01.68997.27.35.27.69-.13.35-.13.69.25.35001.25.69001-.13.35-.13.69.34.35.34.69-.0199.35-.0199.69-.0701.35001-.0701.69c0 .34.11.35.11.7s.03.55-.22.79-.4499-.02-.8099-.02-.3601.02-.7101.02-.3599.03-.7099.03-.36-.28-.71-.28-.3601.36-.7101.36-.3599-.06-.7099-.06-.36.18-.71.18-.3601-.24-.7101-.24-.3599-.19-.7099-.19-.36-.21-.71-.21-.3601.2-.7201.2-.36-.03-.71-.03-.3599-.14-.7099-.14-.3601.59-.7101.59-.36-.23-.71-.23-.3599-.3-.7099-.3-.36.52-.72.52-.3601-.1-.7201-.1-.36-.51-.72-.51-.3599.22-.7099.22-.3601.4-.7101.4-.35-.44-.71-.44-.3599.47-.7099.47-.36-.46-.71-.46-.3601-.13-.7201-.13-.36.28-.72.28-.3599.14-.7099.14-.3601-.2-.7101-.2-.36.29-.72.29-.3599-.26-.7199-.26-.36-.04-.72-.04-.3601-.19-.7201-.19-.36.43-.72.43-.3599-.24-.7199-.24-.36.02-.72.02-.3601-.18-.7201-.18-.36.03-.72.03-.3599 0-.7199 0-.36.47-.72.47-.36-.27-.72-.27c-.25 0-.55-.32-.78-.28s-.3501.68-.5801.76-.66-.3-.87-.19-.28.5-.48.65-.45.22-.62.4-.1499.5-.2999.7-.26.38-.37.6-.5001.32-.5801.55-.12.49-.16.74.03.5.03.75c0 .36.1801.36.1801.72s-.26.36-.26.72.12.36.12.72-.2701.36-.2701.72.1301.36.1301.72-.09.36-.09.72.49.36.49.72-.0401.36-.0401.72v.72c0 .36-.0999.36-.0999.72s-.0501.36-.0501.72.2201.36.2201.72.0299.36.0299.72-.4399.36-.4399.72.4199.36.4199.72-.6.36-.6.72.2901.36.2901.72-.25.36-.25.72.52.36.52.72.02.36.02.72.0599.36.0599.72-.5.36-.5.72.1.36.1.72.28.36.28.72-.54.36-.54.72.28.36.28.72-.1899.36-.1899.72.5299.36.5299.72v.72c0 .36.03.36.03.72s-.28.36-.28.72.17.36.17.72.09.36.09.72-.1499.36-.1499.72-.3201.36-.3201.72.4501.36.4501.72-.1901.36-.1901.72.1801.36.1801.72-.02.36-.02.72-.38.36-.38.72-.23.36-.23.72.39.36.39.72.1.36.1.72.11.36.11.72v.72c0 .36-.4201.36-.4201.72s.3101.36.3101.72.12.36.12.72-.3201.36-.3201.72-.0499.36-.0499.72-.0701.36-.0701.72-.0799.36-.0799.72.27.36.27.72-.0701.36-.0701.72.1901.36.1901.72.1699.36.1699.72-.46.36-.46.72.3001.36.3001.72-.49.36-.49.72.5399.36.5399.72-.09.36-.09.72-.17.36-.17.72.16.36.16.72.22.36.22.72-.0599.36-.0599.72-.49.36-.49.72.1.36.1.72-.1501.36-.1501.72.6.36.6.72-.2699.36-.2699.72-.3501.36-.3501.72.2101.36.2101.72.0799.36.0799.72.1901.36.1901.72.09.36.09.72-.5501.36-.5501.72.49.36.49.72-.4.36-.4.73.1001.36.1001.72.1999.36.1999.72.0701.36.0701.72.0099.36.0099.73.0901.36.0901.73-.4301.36-.4301.73-.12.36-.12.73.36.36.36.73v.73c0 .37.0901.36.0901.72s.12.36.12.73-.04.36-.04.73-.14.37-.14.73-.08.37-.08.73c0 .24.1599.49.1499.73s-.58.44-.6.68.0001.47-.0399.71.16.51.12.75-.09.47-.15.7-.42.37-.49.6.3599.63.2799.85-.62.27-.72.49.1301.59.0301.8-.24.42-.36.63-.5301.24-.6601.44.13.66 0 .86-.5399.2-.6799.39-.08.55-.24.74-.6801.02-.8501.2-.09.57-.27.74-.15.57-.33.72-.4199.27-.6099.42-.39.31-.58.45-.43.25-.63.38-.7-.25-.91-.13-.3201.39-.5401.5-.3.5-.52.59-.4.32-.63.41-.6699-.47-.8999-.4-.43.18-.66.24-.35.6-.59.65-.51-.08-.75-.05-.5-.2-.74-.17-.4601.21-.7001.22-.4799-.1-.7199-.1c-.36 0-.36.35-.72.35s-.3601.03-.7201.03-.36-.12-.72-.12-.3599-.24-.7199-.24-.36.15-.72.15-.36.13-.72.13-.3601-.1-.7201-.1-.36-.26-.72-.26-.3599.21-.7199.21-.36.02-.72.02-.3601.12-.7201.12-.36-.24-.72-.24-.3599.46-.7199.46-.36-.29-.72-.29-.3601.11-.7201.11-.36-.4-.72-.4-.3599.52-.7199.52-.36-.07-.72-.07-.3601.16-.7201.16-.36-.15-.72-.15-.3599-.38-.7199-.38-.36.16-.72.16-.3601-.07-.7201-.07-.36.18-.72.18-.3599-.09-.7199-.09-.36.01-.72.01-.3601.26-.7201.26-.36-.52-.72-.52-.3599.43-.7199.43-.36 0-.72 0-.36-.36-.72-.36-.3601.25-.7201.25-.36-.1-.72-.1-.3599-.25-.7199-.25-.36.62-.72.62c-.35999 0-.36009-.09-.72009-.09s-.35997-.23-.71997-.23-.35997-.3-.71997-.3-.35997.23-.71997.23-.36009.22-.72009.22-.35998-.18-.72998-.18-.35998.05-.72998.05-.35998 0-.72998 0-.43997.16-.71997-.07-.22002-.31-.27002-.65-.21001-.32-.26001-.67.16999-.38.11999-.73.15999-.38.10999-.72.13995-.37.07995-.72-.11992-.34-.16992-.68-.45001-.29-.51001-.63.26997-.39.21997-.74-.05998-.34-.10998-.69-.11004-.34-.16004-.68-.03996-.35-.08996-.7-.19006-.32-.31006-.65-.16994-.38.06006-.65z" fill="#fff"/><g stroke="#000"><path d="m2.45 87.82c.23-.27.27001.23.63001.23s.36008-.48.71008-.48.35997.43.71997.43.35997-.57.71997-.57h.71997c.36 0 .3601.52.7201.52s.35997-.27.71997-.27.35997-.23.71997-.23.35997.43.71997.43.36009-.4.72009-.4.35997.5.72.5c.36 0 .3599-.06.7199-.06s.36.11.72.11.3601-.3.7201-.3.36.29.72.29.3599.03.7199.03.36-.05.72-.05.3601.07.7201.07.36-.62.72-.62.36.12.72.12.3599.02.7199.02.36.05.72.05.3601.04.7201.04.36-.08.72-.08.3599-.17.7199-.17.36.23.72.23.3601.27.7201.27.36-.28.71-.28.3599.07.7099.07.3601.06.7201.06h.72c.36 0 .3599.04.7199.04s.36.07.72.07.3601.15.7201.15.36-.04.72-.04.36-.22.72-.22.3599-.18.7199-.18.36.37.72.37.3601-.29.7201-.29.36.37.72.37.3599-.04.7199-.04.36.03.72.03.3601-.17.7201-.17.36-.45.72-.45.3599.09.7299.09.36.45.73.45c.25 0 .5301-.04.7801-.08s.3799-.57.6199-.64.5501.1.7701 0 .3499-.37.5599-.5.6601.05.8501-.12-.04-.74.12-.92.5399-.18.6799-.39.12-.48.22-.71.6101-.31.6801-.55-.11-.55-.07-.8.21-.5.21-.75c0-.36-.0501-.36-.0501-.72s-.25-.36-.25-.72.01-.36.01-.72-.13-.36-.13-.72.5-.36.5-.72-.4699-.36-.4699-.72.17-.36.17-.72 0-.36 0-.72.2699-.36.2699-.72-.1599-.36-.1599-.72.0499-.36.0499-.72-.2799-.36-.2799-.72.1899-.36.1899-.72-.37-.36-.37-.72.22-.36.22-.72.4201-.36.4201-.72-.62-.36-.62-.72.16-.36.16-.72.4199-.36.4199-.72-.5399-.36-.5399-.72.5099-.36.5099-.72-.58-.36-.58-.72.46-.36.46-.72.2001-.36.2001-.72-.1-.36-.1-.72-.13-.36-.13-.72.0499-.36.0499-.72-.36-.36-.36-.72.38-.36.38-.72-.27-.36-.27-.72.02-.36.02-.72.24-.36.24-.72.0501-.36.0501-.72-.26-.36-.26-.72-.1801-.36-.1801-.72.28-.36.28-.72-.3-.36-.3-.72.0601-.36.0601-.72.01-.36.01-.72.0899-.36.0899-.72.34-.36.34-.72-.5299-.36-.5299-.72.6-.36.6-.72-.33-.36-.33-.72-.0701-.36-.0701-.72.2701-.36.2701-.72-.4201-.36-.4201-.72.4401-.36.4401-.72.0499-.36.0499-.72-.4199-.36-.4199-.72.15-.36.15-.72-.12-.36-.12-.72.0399-.36.0399-.72-.1799-.36-.1799-.72.0599-.36.0599-.72.4001-.36.4001-.72-.25-.36-.25-.72.16-.36.16-.72-.41-.36-.41-.72-.0401-.36-.0401-.72.5701-.36.5701-.72-.4301-.36-.4301-.72.3301-.36.3301-.72-.03-.36-.03-.72-.1801-.36-.1801-.72-.02-.36-.02-.72.28-.36.28-.72.0201-.36.0201-.72-.3901-.36-.3901-.72.24-.36.24-.72.25-.36.25-.72-.5499-.36-.5499-.72.2-.36.2-.72.0899-.36.0899-.72-.23-.36-.23-.72.08-.36.08-.72.3201-.36.3201-.72.01-.36.01-.73-.47-.36-.47-.72.49-.36.49-.72-.36-.36-.36-.72.1399-.36.1399-.73-.11-.36-.11-.73-.0399-.36-.0399-.73-.04-.36-.04-.73.0599-.36.0599-.73.4301-.36.4301-.73-.1401-.36-.1401-.72-.39-.36-.39-.73-.0599-.36-.0599-.73-.0701-.37-.0701-.73.15-.37.15-.73c0-.24.1601-.48.1701-.72s.0099-.48.0399-.72-.26-.53-.22-.76.46-.41.51-.64.15-.45.22-.68.05-.48.12-.71-.0399-.53.0501-.75.5099-.31.5999-.53.3201-.36.4301-.57c.11-.20999.0699-.49.1899-.7s-.12-.64.01-.84.6401-.13999.7801-.32999.12-.51.27-.69.2-.47001.36-.64001.46-.21999.63-.38999.1399-.56002.3199-.71002.43-.24999.61-.39999.68.11.87-.03.2801-.41999.4801-.54999.43-.20001.63-.32001.4199-.2.6399-.31.4701-.09.6901-.19.2399-.65001.4699-.73001.49-.06998.71-.13998.43-.26001.66-.32001.5-.00001.73-.04001.52.22002.76.18002.4-.64.64-.66.52.46999.76.45999.47-.32001.71-.32001c.36 0 .3601.24002.7101.24002s.36-.49002.71-.49002.3599.33002.7099.33002.3601.03.7101.03h.71c.35 0 .3599.14999.7099.14999s.3601-.48001.7101-.48001.36.15003.71.15003.3599.35998.7099.35998.3601-.51999.7101-.51999.36.60999.72.60999.3599-.22.7099-.22.36.23999.71.23999.3601-.4.7101-.4.3599-.16.7099-.16.36.19.71.19.3601.38001.7201.38001.36-.19.72-.19.3599.14001.7199.14001.36-.37.71-.37.3601.28998.7101.28998.3499-.20999.7099-.20999.36-.29999.71-.29999.3601.34998.7101.34998.36.32001.72.32001.3599-.19999.7199-.19999.3601-.48001.7101-.48001.36.46.71.46.3599-.07999.7199-.07999.36-.33002.72-.33002.3601.08002.7201.08002.36.36999.72.36999.3599-.20999.7199-.20999.36-.08999.72-.08999.3601.31997.7201.31997.36-.09997.72-.09997.36-.26001.72-.26001.3599.47.7199.47.36-.11002.72-.11002.6101-.55997.8701-.31997.2.49999.2.83999-.24.34-.24.69-.4201.35001-.4201.69001-.01.34997-.01.68997.27.35.27.69-.13.35-.13.69.25.35001.25.69001-.13.35-.13.69.34.35.34.69-.0199.35-.0199.69-.0701.35001-.0701.69c0 .34.11.35.11.7s.03.55-.22.79-.4499-.02-.8099-.02-.3601.02-.7101.02-.3599.03-.7099.03-.36-.28-.71-.28-.3601.36-.7101.36-.3599-.06-.7099-.06-.36.18-.71.18-.3601-.24-.7101-.24-.3599-.19-.7099-.19-.36-.21-.71-.21-.3601.2-.7201.2-.36-.03-.71-.03-.3599-.14-.7099-.14-.3601.59-.7101.59-.36-.23-.71-.23-.3599-.3-.7099-.3-.36.52-.72.52-.3601-.1-.7201-.1-.36-.51-.72-.51-.3599.22-.7099.22-.3601.4-.7101.4-.35-.44-.71-.44-.3599.47-.7099.47-.36-.46-.71-.46-.3601-.13-.7201-.13-.36.28-.72.28-.3599.14-.7099.14-.3601-.2-.7101-.2-.36.29-.72.29-.3599-.26-.7199-.26-.36-.04-.72-.04-.3601-.19-.7201-.19-.36.43-.72.43-.3599-.24-.7199-.24-.36.02-.72.02-.3601-.18-.7201-.18-.36.03-.72.03-.3599 0-.7199 0-.36.47-.72.47-.36-.27-.72-.27c-.25 0-.55-.32-.78-.28s-.3501.68-.5801.76-.66-.3-.87-.19-.28.5-.48.65-.45.22-.62.4-.1499.5-.2999.7-.26.38-.37.6-.5001.32-.5801.55-.12.49-.16.74.03.5.03.75c0 .36.1801.36.1801.72s-.26.36-.26.72.12.36.12.72-.2701.36-.2701.72.1301.36.1301.72-.09.36-.09.72.49.36.49.72-.0401.36-.0401.72v.72c0 .36-.0999.36-.0999.72s-.0501.36-.0501.72.2201.36.2201.72.0299.36.0299.72-.4399.36-.4399.72.4199.36.4199.72-.6.36-.6.72.2901.36.2901.72-.25.36-.25.72.52.36.52.72.02.36.02.72.0599.36.0599.72-.5.36-.5.72.1.36.1.72.28.36.28.72-.54.36-.54.72.28.36.28.72-.1899.36-.1899.72.5299.36.5299.72v.72c0 .36.03.36.03.72s-.28.36-.28.72.17.36.17.72.09.36.09.72-.1499.36-.1499.72-.3201.36-.3201.72.4501.36.4501.72-.1901.36-.1901.72.1801.36.1801.72-.02.36-.02.72-.38.36-.38.72-.23.36-.23.72.39.36.39.72.1.36.1.72.11.36.11.72v.72c0 .36-.4201.36-.4201.72s.3101.36.3101.72.12.36.12.72-.3201.36-.3201.72-.0499.36-.0499.72-.0701.36-.0701.72-.0799.36-.0799.72.27.36.27.72-.0701.36-.0701.72.1901.36.1901.72.1699.36.1699.72-.46.36-.46.72.3001.36.3001.72-.49.36-.49.72.5399.36.5399.72-.09.36-.09.72-.17.36-.17.72.16.36.16.72.22.36.22.72-.0599.36-.0599.72-.49.36-.49.72.1.36.1.72-.1501.36-.1501.72.6.36.6.72-.2699.36-.2699.72-.3501.36-.3501.72.2101.36.2101.72.0799.36.0799.72.1901.36.1901.72.09.36.09.72-.5501.36-.5501.72.49.36.49.72-.4.36-.4.73.1001.36.1001.72.1999.36.1999.72.0701.36.0701.72.0099.36.0099.73.0901.36.0901.73-.4301.36-.4301.73-.12.36-.12.73.36.36.36.73v.73c0 .37.0901.36.0901.72s.12.36.12.73-.04.36-.04.73-.14.37-.14.73-.08.37-.08.73c0 .24.1599.49.1499.73s-.58.44-.6.68.0001.47-.0399.71.16.51.12.75-.09.47-.15.7-.42.37-.49.6.3599.63.2799.85-.62.27-.72.49.1301.59.0301.8-.24.42-.36.63-.5301.24-.6601.44.13.66 0 .86-.5399.2-.6799.39-.08.55-.24.74-.6801.02-.8501.2-.09.57-.27.74-.15.57-.33.72-.4199.27-.6099.42-.39.31-.58.45-.43.25-.63.38-.7-.25-.91-.13-.3201.39-.5401.5-.3.5-.52.59-.4.32-.63.41-.6699-.47-.8999-.4-.43.18-.66.24-.35.6-.59.65-.51-.08-.75-.05-.5-.2-.74-.17-.4601.21-.7001.22-.4799-.1-.7199-.1c-.36 0-.36.35-.72.35s-.3601.03-.7201.03-.36-.12-.72-.12-.3599-.24-.7199-.24-.36.15-.72.15-.36.13-.72.13-.3601-.1-.7201-.1-.36-.26-.72-.26-.3599.21-.7199.21-.36.02-.72.02-.3601.12-.7201.12-.36-.24-.72-.24-.3599.46-.7199.46-.36-.29-.72-.29-.3601.11-.7201.11-.36-.4-.72-.4-.3599.52-.7199.52-.36-.07-.72-.07-.3601.16-.7201.16-.36-.15-.72-.15-.3599-.38-.7199-.38-.36.16-.72.16-.3601-.07-.7201-.07-.36.18-.72.18-.3599-.09-.7199-.09-.36.01-.72.01-.3601.26-.7201.26-.36-.52-.72-.52-.3599.43-.7199.43-.36 0-.72 0-.36-.36-.72-.36-.3601.25-.7201.25-.36-.1-.72-.1-.3599-.25-.7199-.25-.36.62-.72.62c-.35999 0-.36009-.09-.72009-.09s-.35997-.23-.71997-.23-.35997-.3-.71997-.3-.35997.23-.71997.23-.36009.22-.72009.22-.35998-.18-.72998-.18-.35998.05-.72998.05-.35998 0-.72998 0-.43997.16-.71997-.07-.22002-.31-.27002-.65-.21001-.32-.26001-.67.16999-.38.11999-.73.15999-.38.10999-.72.13995-.37.07995-.72-.11992-.34-.16992-.68-.45001-.29-.51001-.63.26997-.39.21997-.74-.05998-.34-.10998-.69-.11004-.34-.16004-.68-.03996-.35-.08996-.7-.19006-.32-.31006-.65-.16994-.38.06006-.65z" stroke-miterlimit="10" stroke-width="2.6"/><path d="m82.9298 11.53c-.36 0-.3601-.25-.7101-.25s-.3599.05-.7099.05-.36.06-.71.06-.3601-.15-.7101-.15-.3599.26-.7099.26-.36.28-.71.28-.3601-.03-.7101-.03-.3599-.6-.7099-.6-.36.09-.71.09-.3601 0-.7101 0-.36.57-.72.57-.3599-.11-.7099-.11-.3601-.03-.7101-.03-.36.05-.71.05-.3599-.52-.7099-.52-.36.42-.71.42-.3601-.23-.7201-.23-.3599.25-.7199.25-.36-.47-.72-.47-.3601.62-.7101.62-.36-.35-.71-.35-.3499-.25-.7099-.25-.36.08-.71.08-.3601-.1-.7101-.1-.3599.61-.7199.61-.36-.46-.72-.46-.3601.4-.7101.4-.36-.36-.71-.36-.3599-.18-.7199-.18-.36.62-.72.62-.3601-.1-.7201-.1-.36-.2-.72-.2-.3599.07-.7199.07-.36-.05-.72-.05-.3601-.29-.7201-.29-.36.39-.72.39-.3599-.34-.7199-.34-.36.04-.72.04-.3601.2-.7201.2-.36.02-.72.02c-.25 0-.52-.24-.76-.21s-.4899.16-.7199.24-.3001.53-.5101.64-.4999.07-.6899.21-.58.08-.75.26.0499.67-.0901.87-.6899.14-.7999.35-.2101.47-.2901.71-.11.5-.15.75.1801.51.1801.76c0 .36.11.36.11.72s-.37.36-.37.72-.0601.36-.0601.72.0801.36.0801.72.03.36.03.72-.06.36-.06.72.29.36.29.72-.0901.36-.0901.72.3401.36.3401.72-.42.36-.42.72.39.36.39.72.02.36.02.72-.2101.36-.2101.72-.48.36-.48.72.5401.36.5401.72.1099.36.1099.72-.3399.36-.3399.72.3199.36.3199.72-.14.36-.14.72.12.36.12.72-.34.36-.34.72-.13.36-.13.72.1401.36.1401.72.05.36.05.72-.03.36-.03.72.15.36.15.72.08.36.08.72-.0201.36-.0201.72-.3099.36-.3099.72.1999.36.1999.72.24.36.24.72-.39.36-.39.72-.1599.36-.1599.72.0199.36.0199.72.24.36.24.72-.0199.36-.0199.72-.11.36-.11.72.4199.36.4199.72-.39.36-.39.72.2001.36.2001.72-.01.36-.01.72-.4501.36-.4501.72.38.36.38.72-.1899.36-.1899.72.04.36.04.72-.0901.36-.0901.72-.0399.36-.0399.72.1799.36.1799.72.1401.36.1401.72-.07.36-.07.72.21.36.21.72.0699.36.0699.72-.23.36-.23.72.13.36.13.72-.3499.36-.3499.72-.09.36-.09.72.3199.36.3199.72-.04.36-.04.72-.37.36-.37.72.1001.36.1001.72.48.36.48.72-.12.36-.12.72-.3201.36-.3201.72.0801.36.0801.72-.2101.36-.2101.72.3101.36.3101.72.38.36.38.72-.35.36-.35.72-.2001.36-.2001.72.0201.36.0201.72.18.36.18.72.3099.36.3099.72-.2299.36-.2299.72-.37.36-.37.72.25.36.25.72.13.36.13.72-.21.36-.21.72.1399.36.1399.73.1901.36.1901.72-.3101.36-.3101.72.24.36.24.72.14.36.14.73-.36.36-.36.73.0201.36.0201.73.0999.36.0999.73-.23.36-.23.73.37.36.37.73-.4599.36-.4599.72.5899.36.5899.73-.41.36-.41.73-.0199.37-.0199.73.2999.37.2999.73c0 .24-.25.48-.26.72s-.11.47-.14.71-.06.47-.1.71.3401.55.2901.79-.21.46-.27.69-.5.36-.57.58.29.61.2.83-.28.42-.37.64-.0701.51-.1701.73-.7299.16-.8399.37.1099.62-.0201.82-.1899.46-.3299.66-.5301.21-.6801.4-.47.23-.62.41.1801.81.0201.99-.56.13-.74.3-.44.23-.62.39-.3601.31-.5501.46-.4699.16-.6699.3-.2801.43-.4801.56-.39.28-.6.4-.56-.04-.77.06-.37.31-.59.41-.42.21-.65.29-.2999.61-.5299.68-.53-.06-.76 0-.52-.12-.76-.07-.4501.19-.6901.23-.4499.28-.6899.3-.48.09-.73.11-.4901-.49-.7301-.49c-.36 0-.36.61-.72.61s-.3599-.14-.7199-.14-.36-.29-.72-.29-.36.29-.72.29-.3601.07-.7201.07-.3599-.36-.7199-.36-.36-.23-.72-.23-.36.16-.72.16-.3601.03-.7201.03-.36.21-.72.21-.3599-.06-.7199-.06-.36.31-.72.31-.3601-.03-.7201-.03-.36 0-.72 0-.3599-.11-.7199-.11-.36-.19-.72-.19-.3601-.13-.7201-.13-.36-.04-.72-.04-.3599-.08-.7199-.08-.36.62-.72.62-.3601-.31-.7201-.31-.36-.14-.72-.14-.3599.03-.7199.03-.36.41-.72.41-.3601-.62-.7201-.62-.36.28-.72.28-.3599-.31-.7199-.31-.36.44-.72.44-.36-.09-.72-.09-.3601.28-.7201.28-.3599-.57-.7199-.57-.36.31-.72.31-.36.28-.72.28-.3601-.09-.7201-.09-.36-.01-.72-.01c-.35995 0-.35992-.07-.71992-.07s-.35998-.26-.71998-.26-.36009.19-.72009.19-.35997-.26-.71997-.26-.35997.08-.71997.08-.35998-.03-.72998-.03-.35998.21-.72998.21-.3601-.03-.7301-.03-.35998.22-.72998.22" stroke-miterlimit="10" stroke-width="2.6"/><path d="m2.35986 87.91c.36 0 .35996-.19.70996-.19s.36009-.28.71009-.28.35997.05.71997.05.35997.22.71997.22.35997-.18.71997-.18.36009.26.72009.26.35997-.22.71997-.22.35997.33.71997.33.35997-.02.71997-.02.3601-.21.7201-.21.35997-.08.71998-.08c.36 0 .36.05.72.05s.3599-.24.7199-.24.3601.44.7201.44.36-.17.72-.17.36.4.72.4.3599-.06.7199-.06.3601-.26.7201-.26.36.02.72.02.36.17.72.17.3599.1.7199.1.3601-.55.7201-.55.36.1.72.1.36.39.72.39h.7199c.36 0 .3601-.31.7201-.31s.36-.24.72-.24.36.44.71.44.3599-.47.7099-.47.3601.28.7201.28.36-.06.72-.06.36.44.72.44.3599-.14.7199-.14.3601-.48.7201-.48.36.21.72.21.36.34.72.34.3599-.14.7199-.14.3601-.32.7201-.32.36-.06.72-.06.36.56.72.56.3599-.49.7199-.49.3601.29.7201.29.36.14.72.14.36-.49.72-.49.36.08.73.08.3599.37.7299.37c.25 0 .5501.14.7901.1s.51-.21.75-.28.37-.45.6-.56.36-.33.57-.46.44-.2.63-.37.38-.3.55-.49.0999-.51.2399-.72.62-.21.73-.43-.2299-.6-.1599-.84.73-.34.77-.59.0099-.53.0099-.78c0-.36-.0499-.36-.0499-.72s-.22-.36-.22-.72 0-.36 0-.72.12-.36.12-.72-.1001-.36-.1001-.72-.1399-.36-.1399-.72.2699-.36.2699-.72-.1399-.36-.1399-.72.2799-.36.2799-.72-.5599-.36-.5599-.72-.05-.36-.05-.72.4799-.36.4799-.72-.0399-.36-.0399-.72 0-.36 0-.72-.27-.36-.27-.72.48-.36.48-.72-.6-.36-.6-.72 0-.36 0-.72.62-.36.62-.72-.0501-.36-.0501-.72-.2199-.36-.2199-.72.0699-.36.0699-.72-.1699-.36-.1699-.72.0399-.36.0399-.72 0-.36 0-.72.1601-.36.1601-.72-.34-.36-.34-.72.27-.36.27-.72-.13-.36-.13-.72-.09-.36-.09-.72.23-.36.23-.72-.37-.36-.37-.72-.03-.36-.03-.72.17-.36.17-.72-.18-.36-.18-.72.4399-.36.4399-.72-.4199-.36-.4199-.72.2999-.36.2999-.72.1901-.36.1901-.72-.51-.36-.51-.72.47-.36.47-.72-.44-.36-.44-.72.09-.36.09-.72.25-.36.25-.72-.1701-.36-.1701-.72.12-.36.12-.72.3001-.36.3001-.72-.1-.36-.1-.72-.22-.36-.22-.72.2-.36.2-.72-.2901-.36-.2901-.72-.15-.36-.15-.72.5801-.36.5801-.72-.38-.36-.38-.72.39-.36.39-.72-.5-.36-.5-.72.0499-.36.0499-.72-.1499-.36-.1499-.72.42-.36.42-.72-.24-.36-.24-.72.04-.36.04-.72-.25-.36-.25-.72.63-.36.63-.72-.28-.36-.28-.72-.34-.36-.34-.72.12-.36.12-.72.08-.36.08-.72-.23-.36-.23-.72.5699-.36.5699-.72-.2099-.36-.2099-.72.06-.36.06-.72-.43-.36-.43-.72.01-.36.01-.72.05-.36.05-.72.46-.36.46-.72-.39-.36-.39-.72.1899-.36.1899-.72.15-.36.15-.73-.14-.36-.14-.72.0701-.36.0701-.72 0-.36 0-.72-.2001-.36-.2001-.73.1601-.36.1601-.73-.05-.36-.05-.73-.17-.36-.17-.73.02-.36.02-.73.45-.36.45-.73-.19-.36-.19-.72-.02-.36-.02-.73-.12-.36-.12-.73.34-.37.34-.73-.43-.37-.43-.73c0-.24-.2-.5-.19-.73s.26-.47.28-.71-.1201-.51-.0801-.74.0601-.49.1101-.72.52-.37.58-.6.08-.47.16-.7-.15-.57-.06-.79.1199-.48.2199-.7.2101-.45.3201-.66.33-.38.45-.59.7199-.12.8499-.31.2201-.41.3601-.6-.0001-.59.1499-.78.3801-.30001.5401-.48001.43-.23998.6-.40998.4299-.22.6099-.38.31-.34002.5-.49002.19-.52998.38-.66998.5601-.00002.7601-.14002.18-.60998.39-.72998.47-.13002.68-.24002.2999-.48999.5199-.57999.66.34001.88.26001.27-.64.5-.72.5501.16998.7801.09998.48.00001.71-.04999.3999-.44999.6399-.48999.51.27.75.25.4601-.18.7001-.19.47.03.71.03c.36 0 .3599-.41001.7099-.41001s.3601.10999.7101.10999.36.18002.71.18002.3599.10999.7099.10999.3601.13.7101.13.36-.11999.71-.11999.3599-.43.7099-.43.3601.41999.7101.41999.36-.29999.71-.29999.3599.35998.7099.35998h.7201c.36 0 .36-.01999.71-.01999s.36-.39001.71-.39001.36.23001.71.23001.36.17999.71.17999.36.07001.71.07001.3599-.26001.7199-.26001.3601.36002.7201.36002.36-.51001.72-.51001.36.23999.71.23999.36.18002.71.18002.35-.48001.71-.48001.36.25.71.25.3599-.17999.7099-.17999.3601.32998.7201.32998.36-.44998.72-.44998.3599.00998.7099.00998.3601.59.7101.59.36-.18997.72-.18997.36.19998.72.19998.3599-.13001.7199-.13001.3601-.16.7201-.16.36-.13999.72-.13999.36.09.72.09.3599.23001.7199.23001.3601.01999.7201.01999.36-.29001.72-.29001.36.06.72.06.3599.06.7199.06.36-.06998.72-.06998" stroke-miterlimit="10" stroke-width="2.6"/><path d="m82.9298 11.53c-.36 0-.3601-.25-.7101-.25s-.3599.05-.7099.05-.36.06-.71.06-.3601-.15-.7101-.15-.3599.26-.7099.26-.36.28-.71.28-.3601-.03-.7101-.03-.3599-.6-.7099-.6-.36.09-.71.09-.3601 0-.7101 0-.36.57-.72.57-.3599-.11-.7099-.11-.3601-.03-.7101-.03-.36.05-.71.05-.3599-.52-.7099-.52-.36.42-.71.42-.3601-.23-.7201-.23-.3599.25-.7199.25-.36-.47-.72-.47-.3601.62-.7101.62-.36-.35-.71-.35-.3499-.25-.7099-.25-.36.08-.71.08-.3601-.1-.7101-.1-.3599.61-.7199.61-.36-.46-.72-.46-.3601.4-.7101.4-.36-.36-.71-.36-.3599-.18-.7199-.18-.36.62-.72.62-.3601-.1-.7201-.1-.36-.2-.72-.2-.3599.07-.7199.07-.36-.05-.72-.05-.3601-.29-.7201-.29-.36.39-.72.39-.3599-.34-.7199-.34-.36.04-.72.04-.3601.2-.7201.2-.36.02-.72.02c-.25 0-.52-.24-.76-.21s-.4899.16-.7199.24-.3001.53-.5101.64-.4999.07-.6899.21-.58.08-.75.26.0499.67-.0901.87-.6899.14-.7999.35-.2101.47-.2901.71-.11.5-.15.75.1801.51.1801.76c0 .36.11.36.11.72s-.37.36-.37.72-.0601.36-.0601.72.0801.36.0801.72.03.36.03.72-.06.36-.06.72.29.36.29.72-.0901.36-.0901.72.3401.36.3401.72-.42.36-.42.72.39.36.39.72.02.36.02.72-.2101.36-.2101.72-.48.36-.48.72.5401.36.5401.72.1099.36.1099.72-.3399.36-.3399.72.3199.36.3199.72-.14.36-.14.72.12.36.12.72-.34.36-.34.72-.13.36-.13.72.1401.36.1401.72.05.36.05.72-.03.36-.03.72.15.36.15.72.08.36.08.72-.0201.36-.0201.72-.3099.36-.3099.72.1999.36.1999.72.24.36.24.72-.39.36-.39.72-.1599.36-.1599.72.0199.36.0199.72.24.36.24.72-.0199.36-.0199.72-.11.36-.11.72.4199.36.4199.72-.39.36-.39.72.2001.36.2001.72-.01.36-.01.72-.4501.36-.4501.72.38.36.38.72-.1899.36-.1899.72.04.36.04.72-.0901.36-.0901.72-.0399.36-.0399.72.1799.36.1799.72.1401.36.1401.72-.07.36-.07.72.21.36.21.72.0699.36.0699.72-.23.36-.23.72.13.36.13.72-.3499.36-.3499.72-.09.36-.09.72.3199.36.3199.72-.04.36-.04.72-.37.36-.37.72.1001.36.1001.72.48.36.48.72-.12.36-.12.72-.3201.36-.3201.72.0801.36.0801.72-.2101.36-.2101.72.3101.36.3101.72.38.36.38.72-.35.36-.35.72-.2001.36-.2001.72.0201.36.0201.72.18.36.18.72.3099.36.3099.72-.2299.36-.2299.72-.37.36-.37.72.25.36.25.72.13.36.13.72-.21.36-.21.72.1399.36.1399.73.1901.36.1901.72-.3101.36-.3101.72.24.36.24.72.14.36.14.73-.36.36-.36.73.0201.36.0201.73.0999.36.0999.73-.23.36-.23.73.37.36.37.73-.4599.36-.4599.72.5899.36.5899.73-.41.36-.41.73-.0199.37-.0199.73.2999.37.2999.73c0 .24-.25.48-.26.72s-.11.47-.14.71-.06.47-.1.71.3401.55.2901.79-.21.46-.27.69-.5.36-.57.58.29.61.2.83-.28.42-.37.64-.0701.51-.1701.73-.7299.16-.8399.37.1099.62-.0201.82-.1899.46-.3299.66-.5301.21-.6801.4-.47.23-.62.41.1801.81.0201.99-.56.13-.74.3-.44.23-.62.39-.3601.31-.5501.46-.4699.16-.6699.3-.2801.43-.4801.56-.39.28-.6.4-.56-.04-.77.06-.37.31-.59.41-.42.21-.65.29-.2999.61-.5299.68-.53-.06-.76 0-.52-.12-.76-.07-.4501.19-.6901.23-.4499.28-.6899.3-.48.09-.73.11-.4901-.49-.7301-.49c-.36 0-.36.61-.72.61s-.3599-.14-.7199-.14-.36-.29-.72-.29-.36.29-.72.29-.3601.07-.7201.07-.3599-.36-.7199-.36-.36-.23-.72-.23-.36.16-.72.16-.3601.03-.7201.03-.36.21-.72.21-.3599-.06-.7199-.06-.36.31-.72.31-.3601-.03-.7201-.03-.36 0-.72 0-.3599-.11-.7199-.11-.36-.19-.72-.19-.3601-.13-.7201-.13-.36-.04-.72-.04-.3599-.08-.7199-.08-.36.62-.72.62-.3601-.31-.7201-.31-.36-.14-.72-.14-.3599.03-.7199.03-.36.41-.72.41-.3601-.62-.7201-.62-.36.28-.72.28-.3599-.31-.7199-.31-.36.44-.72.44-.36-.09-.72-.09-.3601.28-.7201.28-.3599-.57-.7199-.57-.36.31-.72.31-.36.28-.72.28-.3601-.09-.7201-.09-.36-.01-.72-.01c-.35995 0-.35992-.07-.71992-.07s-.35998-.26-.71998-.26-.36009.19-.72009.19-.35997-.26-.71997-.26-.35997.08-.71997.08-.35998-.03-.72998-.03-.35998.21-.72998.21-.3601-.03-.7301-.03-.35998.22-.72998.22" stroke-linecap="round" stroke-linejoin="round" stroke-width="2.45"/><path d="m82.9298 11.53c-.36 0-.3601-.25-.7101-.25s-.3599.05-.7099.05-.36.06-.71.06-.3601-.15-.7101-.15-.3599.26-.7099.26-.36.28-.71.28-.3601-.03-.7101-.03-.3599-.6-.7099-.6-.36.09-.71.09-.3601 0-.7101 0-.36.57-.72.57-.3599-.11-.7099-.11-.3601-.03-.7101-.03-.36.05-.71.05-.3599-.52-.7099-.52-.36.42-.71.42-.3601-.23-.7201-.23-.3599.25-.7199.25-.36-.47-.72-.47-.3601.62-.7101.62-.36-.35-.71-.35-.3499-.25-.7099-.25-.36.08-.71.08-.3601-.1-.7101-.1-.3599.61-.7199.61-.36-.46-.72-.46-.3601.4-.7101.4-.36-.36-.71-.36-.3599-.18-.7199-.18-.36.62-.72.62-.3601-.1-.7201-.1-.36-.2-.72-.2-.3599.07-.7199.07-.36-.05-.72-.05-.3601-.29-.7201-.29-.36.39-.72.39-.3599-.34-.7199-.34-.36.04-.72.04-.3601.2-.7201.2-.36.02-.72.02c-.25 0-.52-.24-.76-.21s-.4899.16-.7199.24-.3001.53-.5101.64-.4999.07-.6899.21-.58.08-.75.26.0499.67-.0901.87-.6899.14-.7999.35-.2101.47-.2901.71-.11.5-.15.75.1801.51.1801.76c0 .36.11.36.11.72s-.37.36-.37.72-.0601.36-.0601.72.0801.36.0801.72.03.36.03.72-.06.36-.06.72.29.36.29.72-.0901.36-.0901.72.3401.36.3401.72-.42.36-.42.72.39.36.39.72.02.36.02.72-.2101.36-.2101.72-.48.36-.48.72.5401.36.5401.72.1099.36.1099.72-.3399.36-.3399.72.3199.36.3199.72-.14.36-.14.72.12.36.12.72-.34.36-.34.72-.13.36-.13.72.1401.36.1401.72.05.36.05.72-.03.36-.03.72.15.36.15.72.08.36.08.72-.0201.36-.0201.72-.3099.36-.3099.72.1999.36.1999.72.24.36.24.72-.39.36-.39.72-.1599.36-.1599.72.0199.36.0199.72.24.36.24.72-.0199.36-.0199.72-.11.36-.11.72.4199.36.4199.72-.39.36-.39.72.2001.36.2001.72-.01.36-.01.72-.4501.36-.4501.72.38.36.38.72-.1899.36-.1899.72.04.36.04.72-.0901.36-.0901.72-.0399.36-.0399.72.1799.36.1799.72.1401.36.1401.72-.07.36-.07.72.21.36.21.72.0699.36.0699.72-.23.36-.23.72.13.36.13.72-.3499.36-.3499.72-.09.36-.09.72.3199.36.3199.72-.04.36-.04.72-.37.36-.37.72.1001.36.1001.72.48.36.48.72-.12.36-.12.72-.3201.36-.3201.72.0801.36.0801.72-.2101.36-.2101.72.3101.36.3101.72.38.36.38.72-.35.36-.35.72-.2001.36-.2001.72.0201.36.0201.72.18.36.18.72.3099.36.3099.72-.2299.36-.2299.72-.37.36-.37.72.25.36.25.72.13.36.13.72-.21.36-.21.72.1399.36.1399.73.1901.36.1901.72-.3101.36-.3101.72.24.36.24.72.14.36.14.73-.36.36-.36.73.0201.36.0201.73.0999.36.0999.73-.23.36-.23.73.37.36.37.73-.4599.36-.4599.72.5899.36.5899.73-.41.36-.41.73-.0199.37-.0199.73.2999.37.2999.73c0 .24-.25.48-.26.72s-.11.47-.14.71-.06.47-.1.71.3401.55.2901.79-.21.46-.27.69-.5.36-.57.58.29.61.2.83-.28.42-.37.64-.0701.51-.1701.73-.7299.16-.8399.37.1099.62-.0201.82-.1899.46-.3299.66-.5301.21-.6801.4-.47.23-.62.41.1801.81.0201.99-.56.13-.74.3-.44.23-.62.39-.3601.31-.5501.46-.4699.16-.6699.3-.2801.43-.4801.56-.39.28-.6.4-.56-.04-.77.06-.37.31-.59.41-.42.21-.65.29-.2999.61-.5299.68-.53-.06-.76 0-.52-.12-.76-.07-.4501.19-.6901.23-.4499.28-.6899.3-.48.09-.73.11-.4901-.49-.7301-.49c-.36 0-.36.61-.72.61s-.3599-.14-.7199-.14-.36-.29-.72-.29-.36.29-.72.29-.3601.07-.7201.07-.3599-.36-.7199-.36-.36-.23-.72-.23-.36.16-.72.16-.3601.03-.7201.03-.36.21-.72.21-.3599-.06-.7199-.06-.36.31-.72.31-.3601-.03-.7201-.03-.36 0-.72 0-.3599-.11-.7199-.11-.36-.19-.72-.19-.3601-.13-.7201-.13-.36-.04-.72-.04-.3599-.08-.7199-.08-.36.62-.72.62-.3601-.31-.7201-.31-.36-.14-.72-.14-.3599.03-.7199.03-.36.41-.72.41-.3601-.62-.7201-.62-.36.28-.72.28-.3599-.31-.7199-.31-.36.44-.72.44-.36-.09-.72-.09-.3601.28-.7201.28-.3599-.57-.7199-.57-.36.31-.72.31-.36.28-.72.28-.3601-.09-.7201-.09-.36-.01-.72-.01c-.35995 0-.35992-.07-.71992-.07s-.35998-.26-.71998-.26-.36009.19-.72009.19-.35997-.26-.71997-.26-.35997.08-.71997.08-.35998-.03-.72998-.03-.35998.21-.72998.21-.3601-.03-.7301-.03-.35998.22-.72998.22" stroke-linecap="round" stroke-linejoin="round" stroke-width="2.45"/><path d="m2.35986 87.91c.36 0 .35996-.19.70996-.19s.36009-.28.71009-.28.35997.05.71997.05.35997.22.71997.22.35997-.18.71997-.18.36009.26.72009.26.35997-.22.71997-.22.35997.33.71997.33.35997-.02.71997-.02.3601-.21.7201-.21.35997-.08.71998-.08c.36 0 .36.05.72.05s.3599-.24.7199-.24.3601.44.7201.44.36-.17.72-.17.36.4.72.4.3599-.06.7199-.06.3601-.26.7201-.26.36.02.72.02.36.17.72.17.3599.1.7199.1.3601-.55.7201-.55.36.1.72.1.36.39.72.39h.7199c.36 0 .3601-.31.7201-.31s.36-.24.72-.24.36.44.71.44.3599-.47.7099-.47.3601.28.7201.28.36-.06.72-.06.36.44.72.44.3599-.14.7199-.14.3601-.48.7201-.48.36.21.72.21.36.34.72.34.3599-.14.7199-.14.3601-.32.7201-.32.36-.06.72-.06.36.56.72.56.3599-.49.7199-.49.3601.29.7201.29.36.14.72.14.36-.49.72-.49.36.08.73.08.3599.37.7299.37c.25 0 .5501.14.7901.1s.51-.21.75-.28.37-.45.6-.56.36-.33.57-.46.44-.2.63-.37.38-.3.55-.49.0999-.51.2399-.72.62-.21.73-.43-.2299-.6-.1599-.84.73-.34.77-.59.0099-.53.0099-.78c0-.36-.0499-.36-.0499-.72s-.22-.36-.22-.72 0-.36 0-.72.12-.36.12-.72-.1001-.36-.1001-.72-.1399-.36-.1399-.72.2699-.36.2699-.72-.1399-.36-.1399-.72.2799-.36.2799-.72-.5599-.36-.5599-.72-.05-.36-.05-.72.4799-.36.4799-.72-.0399-.36-.0399-.72 0-.36 0-.72-.27-.36-.27-.72.48-.36.48-.72-.6-.36-.6-.72 0-.36 0-.72.62-.36.62-.72-.0501-.36-.0501-.72-.2199-.36-.2199-.72.0699-.36.0699-.72-.1699-.36-.1699-.72.0399-.36.0399-.72 0-.36 0-.72.1601-.36.1601-.72-.34-.36-.34-.72.27-.36.27-.72-.13-.36-.13-.72-.09-.36-.09-.72.23-.36.23-.72-.37-.36-.37-.72-.03-.36-.03-.72.17-.36.17-.72-.18-.36-.18-.72.4399-.36.4399-.72-.4199-.36-.4199-.72.2999-.36.2999-.72.1901-.36.1901-.72-.51-.36-.51-.72.47-.36.47-.72-.44-.36-.44-.72.09-.36.09-.72.25-.36.25-.72-.1701-.36-.1701-.72.12-.36.12-.72.3001-.36.3001-.72-.1-.36-.1-.72-.22-.36-.22-.72.2-.36.2-.72-.2901-.36-.2901-.72-.15-.36-.15-.72.5801-.36.5801-.72-.38-.36-.38-.72.39-.36.39-.72-.5-.36-.5-.72.0499-.36.0499-.72-.1499-.36-.1499-.72.42-.36.42-.72-.24-.36-.24-.72.04-.36.04-.72-.25-.36-.25-.72.63-.36.63-.72-.28-.36-.28-.72-.34-.36-.34-.72.12-.36.12-.72.08-.36.08-.72-.23-.36-.23-.72.5699-.36.5699-.72-.2099-.36-.2099-.72.06-.36.06-.72-.43-.36-.43-.72.01-.36.01-.72.05-.36.05-.72.46-.36.46-.72-.39-.36-.39-.72.1899-.36.1899-.72.15-.36.15-.73-.14-.36-.14-.72.0701-.36.0701-.72 0-.36 0-.72-.2001-.36-.2001-.73.1601-.36.1601-.73-.05-.36-.05-.73-.17-.36-.17-.73.02-.36.02-.73.45-.36.45-.73-.19-.36-.19-.72-.02-.36-.02-.73-.12-.36-.12-.73.34-.37.34-.73-.43-.37-.43-.73c0-.24-.2-.5-.19-.73s.26-.47.28-.71-.1201-.51-.0801-.74.0601-.49.1101-.72.52-.37.58-.6.08-.47.16-.7-.15-.57-.06-.79.1199-.48.2199-.7.2101-.45.3201-.66.33-.38.45-.59.7199-.12.8499-.31.2201-.41.3601-.6-.0001-.59.1499-.78.3801-.30001.5401-.48001.43-.23998.6-.40998.4299-.22.6099-.38.31-.34002.5-.49002.19-.52998.38-.66998.5601-.00002.7601-.14002.18-.60998.39-.72998.47-.13002.68-.24002.2999-.48999.5199-.57999.66.34001.88.26001.27-.64.5-.72.5501.16998.7801.09998.48.00001.71-.04999.3999-.44999.6399-.48999.51.27.75.25.4601-.18.7001-.19.47.03.71.03c.36 0 .3599-.41001.7099-.41001s.3601.10999.7101.10999.36.18002.71.18002.3599.10999.7099.10999.3601.13.7101.13.36-.11999.71-.11999.3599-.43.7099-.43.3601.41999.7101.41999.36-.29999.71-.29999.3599.35998.7099.35998h.7201c.36 0 .36-.01999.71-.01999s.36-.39001.71-.39001.36.23001.71.23001.36.17999.71.17999.36.07001.71.07001.3599-.26001.7199-.26001.3601.36002.7201.36002.36-.51001.72-.51001.36.23999.71.23999.36.18002.71.18002.35-.48001.71-.48001.36.25.71.25.3599-.17999.7099-.17999.3601.32998.7201.32998.36-.44998.72-.44998.3599.00998.7099.00998.3601.59.7101.59.36-.18997.72-.18997.36.19998.72.19998.3599-.13001.7199-.13001.3601-.16.7201-.16.36-.13999.72-.13999.36.09.72.09.3599.23001.7199.23001.3601.01999.7201.01999.36-.29001.72-.29001.36.06.72.06.3599.06.7199.06.36-.06998.72-.06998" stroke-linecap="round" stroke-linejoin="round" stroke-width="2.45"/><path d="m2.35986 87.91c.36 0 .35996-.19.70996-.19s.36009-.28.71009-.28.35997.05.71997.05.35997.22.71997.22.35997-.18.71997-.18.36009.26.72009.26.35997-.22.71997-.22.35997.33.71997.33.35997-.02.71997-.02.3601-.21.7201-.21.35997-.08.71998-.08c.36 0 .36.05.72.05s.3599-.24.7199-.24.3601.44.7201.44.36-.17.72-.17.36.4.72.4.3599-.06.7199-.06.3601-.26.7201-.26.36.02.72.02.36.17.72.17.3599.1.7199.1.3601-.55.7201-.55.36.1.72.1.36.39.72.39h.7199c.36 0 .3601-.31.7201-.31s.36-.24.72-.24.36.44.71.44.3599-.47.7099-.47.3601.28.7201.28.36-.06.72-.06.36.44.72.44.3599-.14.7199-.14.3601-.48.7201-.48.36.21.72.21.36.34.72.34.3599-.14.7199-.14.3601-.32.7201-.32.36-.06.72-.06.36.56.72.56.3599-.49.7199-.49.3601.29.7201.29.36.14.72.14.36-.49.72-.49.36.08.73.08.3599.37.7299.37c.25 0 .5501.14.7901.1s.51-.21.75-.28.37-.45.6-.56.36-.33.57-.46.44-.2.63-.37.38-.3.55-.49.0999-.51.2399-.72.62-.21.73-.43-.2299-.6-.1599-.84.73-.34.77-.59.0099-.53.0099-.78c0-.36-.0499-.36-.0499-.72s-.22-.36-.22-.72 0-.36 0-.72.12-.36.12-.72-.1001-.36-.1001-.72-.1399-.36-.1399-.72.2699-.36.2699-.72-.1399-.36-.1399-.72.2799-.36.2799-.72-.5599-.36-.5599-.72-.05-.36-.05-.72.4799-.36.4799-.72-.0399-.36-.0399-.72 0-.36 0-.72-.27-.36-.27-.72.48-.36.48-.72-.6-.36-.6-.72 0-.36 0-.72.62-.36.62-.72-.0501-.36-.0501-.72-.2199-.36-.2199-.72.0699-.36.0699-.72-.1699-.36-.1699-.72.0399-.36.0399-.72 0-.36 0-.72.1601-.36.1601-.72-.34-.36-.34-.72.27-.36.27-.72-.13-.36-.13-.72-.09-.36-.09-.72.23-.36.23-.72-.37-.36-.37-.72-.03-.36-.03-.72.17-.36.17-.72-.18-.36-.18-.72.4399-.36.4399-.72-.4199-.36-.4199-.72.2999-.36.2999-.72.1901-.36.1901-.72-.51-.36-.51-.72.47-.36.47-.72-.44-.36-.44-.72.09-.36.09-.72.25-.36.25-.72-.1701-.36-.1701-.72.12-.36.12-.72.3001-.36.3001-.72-.1-.36-.1-.72-.22-.36-.22-.72.2-.36.2-.72-.2901-.36-.2901-.72-.15-.36-.15-.72.5801-.36.5801-.72-.38-.36-.38-.72.39-.36.39-.72-.5-.36-.5-.72.0499-.36.0499-.72-.1499-.36-.1499-.72.42-.36.42-.72-.24-.36-.24-.72.04-.36.04-.72-.25-.36-.25-.72.63-.36.63-.72-.28-.36-.28-.72-.34-.36-.34-.72.12-.36.12-.72.08-.36.08-.72-.23-.36-.23-.72.5699-.36.5699-.72-.2099-.36-.2099-.72.06-.36.06-.72-.43-.36-.43-.72.01-.36.01-.72.05-.36.05-.72.46-.36.46-.72-.39-.36-.39-.72.1899-.36.1899-.72.15-.36.15-.73-.14-.36-.14-.72.0701-.36.0701-.72 0-.36 0-.72-.2001-.36-.2001-.73.1601-.36.1601-.73-.05-.36-.05-.73-.17-.36-.17-.73.02-.36.02-.73.45-.36.45-.73-.19-.36-.19-.72-.02-.36-.02-.73-.12-.36-.12-.73.34-.37.34-.73-.43-.37-.43-.73c0-.24-.2-.5-.19-.73s.26-.47.28-.71-.1201-.51-.0801-.74.0601-.49.1101-.72.52-.37.58-.6.08-.47.16-.7-.15-.57-.06-.79.1199-.48.2199-.7.2101-.45.3201-.66.33-.38.45-.59.7199-.12.8499-.31.2201-.41.3601-.6-.0001-.59.1499-.78.3801-.30001.5401-.48001.43-.23998.6-.40998.4299-.22.6099-.38.31-.34002.5-.49002.19-.52998.38-.66998.5601-.00002.7601-.14002.18-.60998.39-.72998.47-.13002.68-.24002.2999-.48999.5199-.57999.66.34001.88.26001.27-.64.5-.72.5501.16998.7801.09998.48.00001.71-.04999.3999-.44999.6399-.48999.51.27.75.25.4601-.18.7001-.19.47.03.71.03c.36 0 .3599-.41001.7099-.41001s.3601.10999.7101.10999.36.18002.71.18002.3599.10999.7099.10999.3601.13.7101.13.36-.11999.71-.11999.3599-.43.7099-.43.3601.41999.7101.41999.36-.29999.71-.29999.3599.35998.7099.35998h.7201c.36 0 .36-.01999.71-.01999s.36-.39001.71-.39001.36.23001.71.23001.36.17999.71.17999.36.07001.71.07001.3599-.26001.7199-.26001.3601.36002.7201.36002.36-.51001.72-.51001.36.23999.71.23999.36.18002.71.18002.35-.48001.71-.48001.36.25.71.25.3599-.17999.7099-.17999.3601.32998.7201.32998.36-.44998.72-.44998.3599.00998.7099.00998.3601.59.7101.59.36-.18997.72-.18997.36.19998.72.19998.3599-.13001.7199-.13001.3601-.16.7201-.16.36-.13999.72-.13999.36.09.72.09.3599.23001.7199.23001.3601.01999.7201.01999.36-.29001.72-.29001.36.06.72.06.3599.06.7199.06.36-.06998.72-.06998" stroke-linecap="round" stroke-linejoin="round" stroke-width="2.45"/></g></svg>