<svg fill="none" height="149" viewBox="0 0 20 149" width="20" xmlns="http://www.w3.org/2000/svg"><path d="m10.8604 1.65997c.05.24.18.46001.22.69001s.16.47002.17.71002-.11.48998-.11.72998.09.48003.08.72003-.04.47997-.06.71997-.22.46-.25.69-.25.43005-.3.67005-.03.46995-.1.69995-.28.4-.36.63.21.58005.12.80005-.18.44998-.28001.66998c-.1.22 0 .54-.12.74999-.12.21-.42001.33-.54001.53s-.25998.41-.38998.61-.42001.28-.57001.46-.01998.6-.16998.78-.46003.23-.62003.41-.26999.4-.42999.57-.51999.16-.67999.33-.19001.47-.35001.64-.41999.25-.57999.42-.36002.32-.52002.49-.50998.19-.66998.37-.31001.37-.46001.55-.05999.56-.19999.75-.23.42-.36.62-.42.31-.53.52.18999.62.08999.84-.19999.4-.27999.63-.5.34-.56.57-.31001.44-.35001.68.17001.51.15001.74.1.47.11.7-.02.47 0 .7-.00001.48.04999.7.51001.34.57001.56-.11.52-.03.73.17.43.28.64.05999.5.17999.7.41001.29.54001.48.01999.59.17999.77.76-.08.92.08.2.45.38.6.24.46.43.59.56001-.02.76001.09.33.36.54.45.48001.01.69001.09.26999.6.48999.67.51999-.14.73999-.08.44.14.66.18.41002.37.64002.4c.22999.03.48999-.27.71999-.26s.45-.06.68-.06.46.11.69.09.44-.18.66-.21.43-.11.69-.21c.22-.08.54 0 .76-.12.21-.12.57-.09.77-.24s.33-.45.49-.63.15-.53.27-.74.61-.36.65-.61-.1-.59-.16-.85c-.05-.22-.17-.52-.31-.75-.11-.19-.57-.1-.74-.25s-.01-.72-.2-.84-.48-.13-.67-.22c-.22-.11-.57.12-.78.04-.22-.09-.46-.06-.67-.11-.23-.06-.36-.57-.58-.6-.23-.03-.49-.08-.72-.08s-.46.3-.69.33-.41.22-.64.28c-.22999.06-.58001-.32-.80001-.24s-.23.65-.44.75-.39001.2-.60001.31-.69999-.31-.89999-.19-.36.31-.56.44-.22999.49-.42999.62-.58001.02-.76001.17 0 .72-.18.88-.35001.28-.51001.46-.33.32-.47.5-.33998.32-.47998.51-.63.18-.74.38-.11001.49-.21001.71-.17.45-.25.67.25001.58.18001.8-.73.3-.78.53-.07001.49-.10001.72.13.5.12.74.1.48.11.71-.09.48-.06.71.36001.42.40001.65.03.46.09.69.17.43.25.65-.07.53.03.75.08999.49.19999.7.38001.33.51001.53.2.44.34.63.19998.46.35998.64.29003.4.46003.56.51998.15.69998.3.48001.14.67001.28.28999.42.48999.54.44.17.65.28.42001.21.64001.3.50999-.05.73999.02.43.19.66.23.42001.55.66001.57.5-.37.74-.38.51.17.74.12.39-.38.61-.46.58.11.79 0 .28-.46.46-.61.33-.33.48-.51.57-.22.67-.44c.12-.24-.17-.62-.11-.84.07-.25-.08-.46-.08-.69 0-.26.24-.48.16-.71s.11-.66-.03-.86-.38-.42-.58-.58-.62.03-.85-.08-.48-.03-.72-.1-.43-.18-.68-.2-.48-.51-.73-.5-.52.14-.76.2c-.24.05-.46002.23-.69002.3s-.34998.42-.56998.52-.49001.08-.70001.19-.3.4-.5.54-.48998.13-.66998.29-.60002.07-.77002.24-.04999.62-.20999.81-.45001.25-.60001.45-.19999.45-.32999.65-.58001.22-.70001.43-.22999.44-.33999.66-.08.51-.18.73.06.55-.03.77-.08.48-.15.71-.09001.47-.16001.7-.28999.42-.34999.65 0 .49-.05.73-.43001.42-.46001.66-.25.47-.28.71.14.51.12.75-.12.49-.12.73.15001.49.15001.73.08999.48.09999.72-.04.48-.02.72.17001.47.20001.7.19.45.23.69-.24001.54-.18001.77.21001.45.28001.68.37999.37.45999.59.21.41.31.63.08999.48.20999.69-.09998.66.05002.85.78999-.04.95999.14.16.5.34.66.14.61.34.75.55.07.76.19.47001.13.69001.22.44999.15.67999.21.43999.23.67999.26.48-.33.72-.34.52002.46.76002.42.51-.05.74-.13.25-.61.46-.73c.2-.11.36-.21.54-.35s.64.03.8-.14.43-.3.55-.49-.25-.66-.17-.87.57-.29.62-.51-.43-.5-.42-.73.44-.47.41-.7c-.04-.24-.44-.37-.52-.57-.08-.22-.02-.49-.15-.68s-.13-.53-.29-.69-.65.09-.84-.03-.37-.17-.58-.25-.29-.54-.52-.59-.45-.23-.68-.25-.48002.12-.71002.13-.49-.06-.72-.02-.36999.43-.58999.5-.45999.05-.66999.16-.51001.06-.70001.19c-.2.14-.43999.28-.61999.44s-.39.33-.56.52-.13.54-.28.74-.22001.44-.35001.65-.62001.22-.73001.44.05001.58-.04999.8.15001.58.07001.81-.16002.45-.24002.68-.41999.38-.48999.61-.11.48-.17.72.08.52.03.77-.49.4-.53.64-.04.5-.08.74-.25999.47-.28999.71.49999.56.47999.8-.18.47-.19.72-.55999.47-.56999.72.49.5.5.75-.25001.51-.23001.75.06001.5.09001.74.16.48.2.72-.15001.54-.10001.79.18.48.25.71.19.46.28.69.19001.46.29001.68.20999.45.31999.67.36.36.5.56.46002.26.61002.45.10998.53.26998.71.31002.38.48002.55.56.09.75.24.06998.73.26998.86.50001.15.72001.27.47.18.69.27.43.28.66.35.51998-.04.75998 0 .45002.34.69002.37.51-.19.75-.19c.22 0 .48.21.7.17s.48-.06.7-.13.4-.28.61-.38.24-.47.42-.6.26-.32.41-.48c.18-.18.67-.08.8-.28.14-.21-.09-.6 0-.81.09-.23.3-.4.33-.64s.29-.52.25-.76-.04-.55-.13-.78-.55-.29-.68-.5-.22-.44-.38-.62-.52-.13-.71-.29-.17-.55-.38-.69-.52-.05-.74-.15-.37-.38-.6-.45-.48-.09-.72-.12-.48.12-.72.13c-.24001.01-.45999 0-.69999.05s-.52002-.05-.74002.03-.26999.54-.47999.66-.66001-.18-.86001-.04-.42001.27-.60001.43.02001.71-.14999.88-.72 0-.87.19-.41999.31-.55999.51-.01001.58-.13001.78-.33.37-.44.59-.1.49-.19.71-.45999.34-.54999.57.19999.58.11999.81-.32.41-.38.64c-.06.24-.26.45-.31.7s.13001.53.10001.77.13999.51.11999.75-.19.48-.19.72.12.49.13.73-.13.49-.11.74-.08999.51-.05999.75.19.47.24.71.11999.48.18999.71-.08.55 0 .78.32.41.42.64.19002.46.30002.68.26999.42.39999.63.09.52.22.71c.14.2.36.35.5.53.15.19.60998.11.75998.27s.29001.36.45001.51.38001.24.57001.38.07999.73.26999.85.63-.17.84-.08.29001.53.52001.6.56999-.34.79999-.29c.23001.05.36001.65.60001.68s.49.02.73.02.46-.49.7-.5.53.36.78.3c.23-.05.54-.01.77-.1s.42-.33.64-.44.26-.52.46-.66.7.06.88-.11-.12-.75.02-.95.75-.14.84-.37-.12-.56-.09-.81-.23-.42-.28-.67c-.03-.17-.05-.27-.22-.5-.12-.16-.24-.28-.43-.45-.16-.14 0-.75-.21-.88-.18-.11-.63.23-.86.14-.2-.09-.38-.2-.61-.27-.21-.06-.42-.1-.65-.14-.22-.04-.41-.27-.65-.28-.22-.02-.46-.27-.7-.27-.22 0-.46.16-.69.19-.22.03-.48-.06-.72-.02-.22001.04-.30001.68-.53001.75s-.57999-.32-.79999-.25-.45.17-.66.27-.51.07-.72.18-.20002.56-.39002.7-.65999-.05-.83999.12-.03.62-.18.81c-.14.17-.5.21-.63.41-.12.19-.37999.34-.48999.55-.1.2.38999.69.29999.91-.09.21-.74999.21-.82999.44-.07.21.34.59.28.82-.06.22-.36.38-.41.62-.05.22-.03999.46-.07999.7-.04.23-.11001.45-.15001.69-.03.26-.08001.51-.10001.77s.11001.52.10001.78-.24001.51-.24001.77-.16999.52-.16999.78.15999.52.16999.77c.01.23.38002.45.39002.69s-.50001.5-.48001.74.45.44.47.67-.01999.47.01001.71.16999.45.20999.68.14998.44.19998.67-.26999.55-.20999.78.30001.41.38001.63-.02.52.07.74.30999.38.41999.59.06.52.19.72.39001.32.54001.5c.16.2.6.13.78.3s.32999.34.52999.49.32001.41.54001.53.36001.44.60001.53.48998.22.72998.28.57001-.31.82001-.28.47.62.73.62c.24 0 .48-.27.71-.28.24-.02.49.07.72.03.24-.04.42-.34.64-.39.23-.06.47-.06.68-.14.22-.08.53.03.74-.07s.33-.41.52-.53c.2-.13.58-.04.75-.18.18-.15-.01-.7.14-.87.16-.18.34-.29.46-.48.13-.2.66-.21.74-.42.09-.22-.32-.58-.28-.81s.26-.44.23-.67c-.03-.24-.13-.46-.24-.68s-.42-.24-.59-.42c-.16-.17-.29-.3-.5-.44-.19-.13-.36-.23-.59-.34-.21-.1-.23-.73-.47-.8-.22-.07-.58.33-.82.28s-.44-.31-.68-.33-.48.09-.73.09-.5-.24-.75-.21-.44.36-.67.41-.55-.19-.78999-.12c-.24.07-.36003.44-.59003.53s-.49999.07-.70999.18-.37001.32-.57001.46-.35998.32-.54998.47-.55.1-.71.26-.05001.58-.20001.77-.48998.22-.60998.42-.05001.51-.16001.72-.55001.26-.64001.48.18001.57.11001.79.05998.48.00998.71-.65999.34-.70999.57-.03999.48-.08999.71.34998.56.29998.79-.61.36-.66.59.32003.55.28003.78-.35001.43-.38001.66.30999.52.26999.76-.02.47-.04.71-.53999.44-.54999.68.36998.49.35998.73-.04.47-.03.71-.23998.5-.21998.73.40001.43.43001.66-.36002.56-.30002.79.34999.41.42999.63-.12998.57-.03998.79.23.45.34.66.43001.32.57001.51c.14.2.20997.48.37997.65s.63001.01.82001.16.31002.35.52002.47.20999.64.42999.75.49.13.72.21.49998.06.72998.13.49.06.72.11.49002.04.72002.07.48-.26.7-.25.43.37.66.37.47.12.7.1.43-.25.66-.29.52.19.74.13.42-.24.63-.33.27-.49.47-.6.54.02.73-.11c.21-.14.33-.42.52-.58s.66-.09.83-.27-.07-.7.05-.92.06-.44.11-.7c.05-.24.5-.44.48-.71-.02-.23-.1-.51-.19-.77-.08-.23-.36-.36-.51-.54s-.17-.55-.38-.68c-.19-.12-.43-.29-.66-.38-.21-.08-.54.12-.78.07-.23-.05-.42-.4-.66-.43s-.5.1-.74.09-.49-.12-.72-.11-.49.03-.72.05c-.24.02-.43.55-.65.58-.25.03-.54-.29-.76-.25-.26.05-.42.37-.61.43-.22999.07-.6-.21-.82-.11s-.42.29-.63.41-.48.18-.68.32-.17.59-.35.74-.68001 0-.85001.17-.25.45-.41.64-.24999.44-.38999.63.01001.58-.11999.79-.36.34-.47.56-.00003.53-.09003.75-.23999.4-.32999.63-.23999.42-.30999.65-.22.43-.28.67.02.49-.03.73-.31001.43-.35001.67-.15999.47-.17999.71.15999.5.14999.74-.47999.49-.47999.73.43999.48.44999.72-.16.51-.13.75.26002.45.30002.69.27999.43.33999.66-.22001.57-.14001.8c.07.21.14.45.22.67s.25.4.34.62.06999.48.17999.69.52001.26.63001.47.21999.4.33999.6.06.51.19.7.35001.33.48001.52.09.54.24.71.67001.01.83001.17c.17.17.08998.63.28998.78s.48.18.69.31.35001.4.57001.51.55 0 .78001.08c.23.08.45.18.69.25s.42.47.66.51.52.03.77.04.5-.33.75-.35.46-.14.7-.19.45-.1.69-.19.45-.13.67-.25.54-.06.74-.21.27-.43.43-.59c.17-.17.23-.4.37-.59s.24-.37.34-.58.22-.39.29-.62.52-.39.54-.62-.52-.49-.53-.72.46-.53.41-.76-.63-.29-.72-.51.32-.7.2-.89-.26-.5-.42-.66-.49-.26-.7-.37c-.23-.12-.44-.31-.66-.39-.24-.09-.6.21-.83.16-.25-.06-.47-.21-.7-.23-.25-.01-.46.35-.69.38s-.43.07-.66.14-.56-.14-.77-.03-.61-.02-.8.12-.35.39-.53.56-.33.39-.49001.57c-.16.18-.05998.58-.19998.77s-.37002.33-.49002.54-.13999.48-.23999.69c-.11.23-.40999.36-.48999.57-.09.24.20999.58.14999.8-.06.24-.13001.46-.17001.7s-.37999.43-.41999.67.09998.51.06998.75-.38997.47-.40997.71.46999.51.45999.76-.45999.49-.45999.73.07998.5.07998.74.3.49.31.74.05.49.06.74-.24999.51-.23999.75-.23.5-.22.75-.02999.49-.01999.74.19998.47.19998.71.04002.48.05002.71-.23001.48-.23001.72.32999.47.33999.71-.34999.49-.33999.73.03999.48.04999.71.26999.47.27999.71-.02999.48-.01999.72 0 .48 0 .72-.02998.48-.01998.72-.08001.48-.07001.72-.02.48 0 .72.09998.47.10998.71.53002.44.55002.68" stroke="#000" stroke-linecap="round" stroke-linejoin="round" stroke-width="2.6"/></svg>