<svg fill="none" height="117" viewBox="0 0 126 117" width="126" xmlns="http://www.w3.org/2000/svg"><path d="m116.37 115.06c-.26-.25-.24-.2-.24-.56s-.13-.36-.13-.72-.13-.36-.13-.72.32-.36.32-.72.19-.36.19-.72.02-.36.02-.72-.5-.36-.5-.72.21-.36.21-.72.08-.36.08-.72-.05-.36-.05-.73-.29-.36-.29-.73.67-.36.67-.72-.22-.36-.22-.72-.45-.36-.45-.72.63-.36.63-.72-.38-.36-.38-.72-.21-.36-.21-.72.1-.36.1-.72.49-.36.49-.72-.53-.36-.53-.73.46-.36.46-.73.12-.36.12-.73-.16-.36-.16-.72-.47-.36-.47-.72.47-.36.47-.72-.25-.36-.25-.73-.26-.36-.26-.73.68-.36.68-.73-.25-.36-.25-.73-.37-.36-.37-.73.46-.36.46-.73.15-.36.15-.72-.12-.36-.12-.72-.03-.36-.03-.72 0-.36 0-.73.04-.36.04-.73.06-.36.06-.73-.13-.36-.13-.73-.46-.36-.46-.73.63-.36.63-.73-.24-.36-.24-.73-.06-.36-.06-.73-.28-.37-.28-.73.52-.36.52-.73-.04-.36-.04-.73-.39-.36-.39-.73-.09-.37-.09-.73-.03-.37-.03-.73.05-.37.05-.73.09-.37.09-.73c0-.24.41-.51.39-.75s-.65-.4-.7-.64.36-.57.3-.8-.09-.49-.18-.72-.11-.5-.22-.71-.47-.31-.59-.52-.41-.29-.55-.49-.31-.34-.47-.53 0-.64-.18-.81c-.17-.17-.65.01-.84-.14s-.04-.73-.24-.87-.41-.28-.62-.4-.47-.18-.68-.28-.47-.16-.69-.24-.52.05-.75-.02-.48 0-.71-.04-.46.01-.7 0-.45-.04-.69-.04c-.35 0-.36-.57-.71-.57s-.35.04-.71.04-.35.17-.71.18-.35.04-.71.04-.35.07-.71.07-.36-.32-.71-.32-.35.41-.71.41-.36-.32-.71-.32-.36.06-.71.06-.36-.05-.71-.05-.36.04-.71.05c-.3498.01-.3598.25-.7098.25s-.35.2-.71.21-.36-.02-.71-.02-.36-.15-.71-.15-.36-.1-.71-.1-.35.15-.71.16-.36.1-.71.1-.36-.1-.71-.09-.36 0-.71 0-.36-.19-.72-.18-.36-.2-.71-.2-.35.58-.71.58-.36-.62-.71-.61-.35.56-.71.56-.36-.14-.71-.13-.36-.41-.72-.41-.36.51-.71.52-.36-.19-.71-.19-.36.02-.71.02-.36-.36-.71-.36-.35.49-.71.5-.35-.08-.71-.07-.36-.1-.71-.1-.36.19-.71.19-.36-.53-.72-.53-.35.52-.71.52-.36.17-.71.18-.36-.47-.72-.47-.36 0-.72 0-.36-.03-.72-.02-.36-.08-.72-.08-.36.46-.72.46-.36-.16-.72-.16-.36-.2-.72-.2-.36.21-.71.22-.36.23-.72.23-.36-.06-.72-.06-.36-.13-.72-.13-.36-.4-.72-.4c-.24 0-.49.58-.73.57s-.45-.51-.68-.53-.53.45-.76.42-.46-.22-.69-.26-.47-.11-.7-.16-.42-.3-.65-.36-.48-.06-.71-.13-.4-.3-.62-.38-.43-.2-.65-.29-.52 0-.73-.1-.49-.08-.7-.19-.24-.55-.45-.67-.36-.31-.56-.43-.59.04-.79-.1-.51-.12-.7-.26-.03-.72-.21-.88-.52-.12-.69-.28-.22-.45-.39-.62-.73.03-.89-.14 0-.63-.16-.82-.25-.4-.39-.59-.37-.32-.5-.51-.37-.33-.5-.53-.19-.44-.31-.65.06-.57-.05-.78-.81-.13-.91-.35.19-.61.1-.83-.44-.34-.52-.57.01-.51-.06-.74.1-.52.04-.75-.67-.33-.72-.57.51-.58.47-.82-.36-.42-.39-.66.22-.49.2-.73-.13-.46-.13-.7-.12-.47-.12-.71c0-.36-.02-.36-.02-.72s-.08-.36-.08-.72-.04-.36-.04-.72-.04-.36-.04-.72-.19-.36-.19-.72.28-.36.29-.72-.25-.36-.25-.73.2-.36.2-.72.02-.36.02-.73-.12-.36-.11-.73.34-.36.34-.72-.11-.36-.11-.73-.02-.36-.02-.72 0-.36 0-.72.32-.36.32-.72-.4-.36-.39-.73.38-.36.39-.72-.59-.37-.58-.73-.04-.36-.04-.73.1-.36.11-.73.58-.36.59-.72-.65-.37-.65-.73.4-.36.4-.72-.13-.36-.13-.73.26-.36.26-.72-.02-.36-.01-.73.17-.36.17-.73-.64-.37-.64-.73-.04-.36-.03-.73.32-.36.32-.72.14-.36.14-.72-.07-.36-.07-.72-.04-.36-.04-.72-.28-.37-.28-.73.4-.36.4-.73-.16-.36-.16-.73.13-.36.13-.72.09-.36.1-.73-.52-.37-.52-.73.45-.36.45-.73-.2-.37-.2-.73.11-.36.12-.73.31-.36.31-.73-.05-.36-.05-.73-.49-.37-.49-.73.1-.37.1-.73-.2-.37-.2-.73.22-.37.22-.73.02-.37.03-.73c0-.24-.23-.46-.25-.7s.06-.47.02-.71-.07-.46-.13-.69-.09-.46-.17-.69-.25-.4-.36-.61-.05-.5-.17-.71-.21-.43-.35-.63 0-.62-.16-.8-.52-.2-.69-.37-.41-.27-.59-.43-.34-.35-.53-.49-.43-.22-.64-.34-.46-.16-.67-.26-.29-.58-.52-.67-.52 0-.76-.07-.48-.1-.72-.14-.49-.08-.73-.1-.49-.11-.73-.11c-.36 0-.36.14-.71.14s-.36-.08-.72-.08-.36.5-.72.5-.36-.2-.72-.2-.36-.43-.72-.43-.36.17-.72.17-.36.03-.72.03-.36.21-.72.21-.36-.17-.72-.17-.36-.25-.72-.25-.36.35-.72.35-.36.08-.72.08-.36.05-.72.05-.36-.47-.72-.47-.36.15-.72.15-.36.43-.72.43-.36-.09-.72-.09-.36.06-.72.06-.36-.44-.72-.44-.36.14-.72.14-.36.22-.72.22-.36-.26-.72-.26-.36.29-.72.29-.36-.57-.72-.57-.36.38-.72.38-.36-.2-.72-.2-.36.5-.72.5-.36-.38-.72-.38-.36.38-.72.38-.36-.19-.72-.19-.36-.21-.72-.21-.36-.03-.72-.03-.36.19-.72.19-.36-.25-.72-.25-.36.08-.72.08-.36.39-.72.39-.36-.62-.72-.62-.36.1-.72.1-.36.48-.72.48-.36-.36-.72-.36-.36.22-.72.22-.36 0-.72 0-.36-.36-.72-.36-.36.01-.72.01-.36.29-.72.29-.36.21-.72.21-.36-.33-.72-.33-.36.24-.72.24-.36-.33-.72-.33-.36-.19-.72-.19-.36.54-.72.54-.36-.37-.72-.37-.36.25-.71997.25c-.36 0-.36.21-.73.21s-.36-.54-.72-.54-.36.1-.72.1-.36.46-.73.46-.36001-.68-.73001-.68-.35998.06-.71998.06-.36001.29-.72001.29-.36001.3-.73001.3-.35999-.08-.72999-.08-.37-.21-.73-.21-.51.28-.77.02-.09-.4-.09-.75998c0-.36-.11-.36001-.11-.72001s.39999-.36.39999-.72-.27999-.36001-.27999-.73001-.21-.36001-.21-.73001.62-.35998.62-.72998-.03-.36-.03-.72-.50999-.36001-.50999-.73001.5-.36001.5-.73001-.54001-.36998-.54001-.72998-.07-.57002.19-.83002.45999.07001.81999.07001.36.14999.72.14999.36-.35998.72-.35998.36001.27999.72001.27999.36.10001.72.10001.36-.22.72-.22.36.10999.72.10999.36.05999.72.05999.36-.09997.72-.09997.36-.32001.72-.32001.36.28.72.28c.35997 0 .35997-.20001.71997-.20001s.36-.04001.72-.04001.36.38.72.38h.72c.36 0 .36-.26999.72-.26999s.36.32001.72.32001.36-.45001.72-.45001.36-.01999.72-.01999.36.32001.72.32001.36-.30002.72-.30002.36.14999.72.14999.36.46002.72.46002.36-.26001.72-.26001.36-.19.72-.19.36-.01001.72-.01001.36-.16.72-.16.36.16.72.16.36.32001.72.32001.36-.38998.72-.38998.36.08999.72.08999.36.19998.72.19998.36-.22.72-.22.36.27002.72.27002.36-.33001.72-.33001.36.55001.72.55001.36-.62002.72-.62002.36.02002.72.02002.36.47998.72.47998.36-.48999.72-.48999.36.23999.72.23999.36-.28.72-.28.36.35001.72.35001.36-.29999.72-.29999.36.1.72.1.36.34.72.34.36-.31.72-.31.36-.08001.72-.08001.36-.00998.72-.00998.36.48999.72.48999.36-.45002.72-.45002.36.57001.72.57001.36-.17999.72-.17999.36-.49002.73-.49002.36-.00998.72-.00998.36.66.72.66.36-.02002.73-.02002.36-.51999.73-.51999.36.43.72.43.36.08001.72.08001.36-.21002.73-.21002.36-.28.73-.28.37-.05999.73-.05999.37.02001.73.02001c.24 0 .49-.03999.72-.02999s.47.21999.71.23999.44.35.67.38.52-.25002.75-.21002.48.07002.71.12002.4.37.63.43.42.22001.65.29001.54-.12001.76-.04001.55-.07001.76.01999.26.59001.47.70001.38.28999.59.39999.36.30002.57.42002.53.01999.73.14999.31.36998.51.50998.41.23002.6.37002.44.19998.62.34998.31.36002.48.52002.3.36998.47.53998.34.33.5.5.27.39001.42.57001c.15.17999.62.12001.76.30001s.1.51999.24.70999.18.44.31.64.23.41.35.62.52.26.63.47-.21.63-.11.85.44.32.53.54.03.49.11.71.31.39.38.62.44.37.5.6.15.47.2.7-.16.52-.12.76-.24.51-.21.75.27.44.29.68.06.47.07.71-.09.47-.09.71c0 .36-.18.36-.19.72s.49.36.49.72.09.36.08.72-.19.36-.2.72-.38.36-.39.72.61.37.61.73-.42.36-.42.72.13.36.12.73.19.36.18.73-.26.36-.26.72.35.36.35.73-.15.36-.15.72.06.36.06.72-.46.36-.46.72.26.36.25.73-.4.36-.4.72.19.36.19.73-.1.36-.1.72.29.36.29.73-.04.36-.04.73.15.36.15.73-.01.36-.02.73-.09.36-.09.72.18.36.17.73-.36.36-.36.72-.18.36-.19.73.2.37.2.73.09.36.09.73.11.36.1.73-.05.36-.06.73.02.36.01.72.17.36.17.72-.44.36-.44.72.09.36.09.73.41.37.41.73-.22.36-.22.72v.73c0 .37-.12.36-.12.73s-.2.36-.2.73.24.37.24.73.08.36.08.73-.19.36-.19.73.11.37.1.73-.26.36-.27.73.28.37.28.73-.09.37-.09.73-.18.37-.18.73-.16.37-.16.73.1.37.1.74c0 .24.59.46.61.7s-.57.56-.53.79.26.46.32.69 0 .52.09.75.38.38.48.6.45.3.57.51-.08.62.06.81.32.37.48.56.15.54.33.71c.17.17.46.25.64.4s.51.14.71.28.43.21.64.33.27.53.49.64.59-.15.82-.07.43.22.66.28.48.02.72.06.47-.02.71 0 .46.31.7.31c.35 0 .35.2.71.2s.35.03.71.03.35-.37.71-.38.35-.21.71-.21.36.21.71.21.35-.26.71-.26.36.58.71.58.35-.27.71-.27.36.22.71.22.35-.36.71-.36.36-.08.71-.08.36-.08.71-.08.36.43.71.43.36.11.71.11.35-.35.71-.36.35-.19.71-.19.36.39.71.39.36.28.71.28.36-.21.71-.21.36-.25.71-.26.36.08.71.08.36.14.71.14.36.02.71.02.36-.03.71-.04.36-.24.71-.25.36.36.71.35.36-.28.71-.28.36.38.72.38.36-.3.71-.3.36-.1.71-.1.36-.21.71-.21.36.4.71.4.35-.41.71-.41.36.59.71.59.35-.44.71-.44.36.36.72.36.36.03.71.03.36-.22.71-.22.36-.28.71-.28c.3498 0 .3598.42.7198.42s.36-.25.71-.25.36.04.72.04.36-.05.72-.05.36-.2.72-.2.36-.05.72-.06.36.08.72.08.36-.12.72-.12.36.67.72.67.36-.38.72-.38.36.09.72.09c.24 0 .48-.18.72-.17s.48-.02.72 0 .43.41.67.44.52-.27.75-.23.45.21.68.26.46.11.69.17.42.24.65.31.52-.06.75.01.52 0 .74.08.31.48.53.58.37.32.58.43.53.02.73.14.27.46.47.59.46.15.66.29.59 0 .78.15.06.68.24.83.43.22.6.38.59.07.76.24-.08.73.08.9.38.28.53.46.43.25.58.44.44.27.58.46-.08.62.05.82.32.35.44.55.3.37.41.58.17.44.27.65.21.42.3.64.62.27.7.49-.17.56-.09.79.48.36.54.59.03.49.08.72-.07.5-.03.74.04.48.07.71-.18.49-.16.73.37.45.38.69-.18.48-.18.72c0 .36-.19.36-.19.72s.03.36.03.72.5.36.5.72-.4.36-.4.72.12.36.12.72.29.36.29.72-.38.36-.38.72.39.36.39.72-.36.36-.36.72-.12.36-.12.73-.04.36-.04.73-.04.36-.04.72.37.36.37.72-.39.36-.39.72-.08.36-.08.72.64.36.64.72-.05.36-.05.72-.02.36-.02.72-.04.36-.04.72-.45.36-.45.73v.73c0 .37.46.36.46.73s-.16.36-.16.72-.34.36-.34.72.4.36.4.72-.3.36-.3.73.13.36.13.73.2.36.2.73-.39.36-.39.73.14.36.14.73.4.36.4.73.02.36.02.72-.29.36-.29.72.07.36.07.72.21.36.21.73-.3.36-.3.73-.3.36-.3.73.41.36.41.73.05.36.05.73-.32.36-.32.73.43.36.43.73-.52.36-.52.73-.09.37-.09.73.4.36.4.73-.34.36-.34.73.21.36.21.73-.09.37-.09.73.4.37.4.73.02.37.02.73-.15.34-.41.61-.23.3-.6.3-.36-.13-.72-.13-.36-.1-.72-.1-.36-.08-.73-.08-.36.2-.73.2-.36-.32-.73-.32-.36.55-.72.55-.36.04-.73.04-.36-.3-.73-.3-.34.21-.71.24c-.31.03-.33-.18-.59-.44z" fill="#fff"/><path d="m116.43 115c-.26-.25-.35-.14-.35-.5s.09-.36.09-.72 0-.36 0-.72.15-.36.15-.72-.18-.36-.18-.72-.27-.36-.27-.72.58-.36.58-.72-.03-.36-.03-.72-.49-.36-.49-.72.33-.36.33-.73.11-.36.11-.73-.11-.36-.11-.72.08-.36.08-.72-.09-.36-.09-.72-.06-.36-.06-.72.04-.36.04-.72 0-.36 0-.72-.03-.36-.03-.72.17-.36.17-.72.2-.36.2-.73-.47-.36-.47-.73.28-.36.28-.73-.05-.36-.05-.72.22-.36.22-.72-.35-.36-.35-.72-.17-.36-.17-.73.03-.36.03-.73.01-.36.01-.73.38-.36.38-.73.1-.36.1-.73-.06-.36-.06-.73-.63-.36-.63-.72.47-.36.47-.72-.15-.36-.15-.72-.29-.36-.29-.73.35-.36.35-.73.29-.36.29-.73-.43-.36-.43-.73-.2-.36-.2-.73.62-.36.62-.73-.21-.36-.21-.73-.38-.36-.38-.73.26-.37.26-.73.02-.36.02-.73-.02-.36-.02-.73-.16-.36-.16-.73.32-.37.32-.73-.39-.37-.39-.73.23-.37.23-.73.04-.37.04-.73c0-.24.12-.5.1-.73s.12-.52.08-.76-.74-.33-.8-.56.49-.66.4-.88-.43-.36-.53-.58-.5-.27-.62-.48.02-.57-.12-.77-.54-.18-.69-.36-.13-.51-.3-.68-.3-.38-.48-.53-.31-.4-.5-.53-.58.03-.79-.09-.25-.56-.46-.66-.43-.27-.65-.35-.61.35-.84.29-.33-.72-.57-.76-.53.33-.77.3-.47-.19-.71-.19c-.35 0-.35.1-.71.1s-.35.18-.71.18-.36-.27-.71-.26-.35-.01-.71-.01-.35.08-.71.08-.35.06-.71.06-.35.28-.71.28-.36 0-.71 0-.36-.45-.71-.45-.36.25-.71.26-.36.18-.71.18c-.3497 0-.3597-.17-.7097-.17s-.36-.42-.71-.41-.3501.25-.7101.25-.3599-.25-.7099-.25-.3501.06-.7101.06-.3499.42-.7099.43-.3601-.28-.7101-.28c-.3499 0-.3499.3-.7099.3s-.3601-.38-.71-.38c-.35 0-.36.47-.71.47s-.36-.03-.71-.03-.3601-.54-.7101-.54-.3499.31-.7099.32-.3601-.14-.7101-.14-.3599.27-.7099.27-.3601.17-.7101.17c-.3499 0-.36-.49-.72-.49s-.3599.06-.7099.06-.35.4-.7101.4c-.36 0-.3599-.18-.7099-.18s-.35-.04-.71-.04-.3501.15-.7101.16-.3599-.57-.7099-.56-.3501.64-.7101.65-.36-.14-.72-.14-.36-.49-.72-.49-.3499.5-.7099.51-.3601.09-.7101.09-.36-.06-.72-.06-.3599-.26-.7199-.26-.36.37-.71.37-.36-.56-.72-.56-.3601.37-.7101.37-.3599.24-.7099.24-.36-.39-.72-.39-.36-.05-.72-.05c-.3601 0-.3601-.17-.7201-.17s-.36.62-.72.62-.36-.51-.72-.51c-.24 0-.48.27-.72.26s-.4499-.39-.6899-.41-.46-.09-.69-.12-.52.27-.75.23-.48-.03-.7101-.08c-.23-.05-.4699-.12-.6999-.18-.2301-.06-.47-.1-.7-.17s-.38-.37-.6001-.45c-.22-.08-.39-.29-.61-.38s-.6599.32-.8699.22-.24-.6-.45-.71-.3901-.27-.5901-.39-.4199-.2-.62-.33c-.2-.13-.68.16-.88.02s-.3899-.3-.5699-.45-.2501-.46-.4301-.61-.27-.41-.45-.58-.38-.29-.55-.46-.2699-.4-.4399-.57-.53-.17-.6801-.35c-.15-.18-.12-.52-.27-.7s-.1499-.47-.2899-.67-.55-.21-.67-.41-.3-.38-.42-.59.26-.68.1499-.89c-.11-.21-.3599-.34-.4599-.56s-.5001-.3-.5901-.52-.0099-.51-.0899-.73c-.0801-.22-.3401-.39-.4101-.62s-.2599-.43-.3199-.66-.03-.49-.08-.73.2199-.53.1799-.76-.2999-.44-.3299-.67.1299-.49.1099-.73-.25-.46-.26-.7c-.0099-.24-.1299-.48-.1199-.72 0-.36.3399-.36.3499-.72s-.1899-.36-.1899-.72-.08-.36-.08-.72.06-.36.06-.72.39-.36.39-.72-.2701-.36-.2701-.72.31-.36.31-.72.0701-.36.0701-.72-.38-.37-.37-.73-.1501-.36-.1501-.73.3901-.36.4001-.72-.32-.36-.32-.73.15-.36.16-.72.2099-.36.2099-.72-.53-.37-.53-.73.3801-.36.3801-.72.16-.36.16-.72-.0101-.36-.0101-.73-.28-.36-.28-.73.16-.36.17-.73 0-.36 0-.73-.42-.37-.42-.73.2301-.36.2401-.72-.13-.36-.12-.73-.08-.36-.08-.73.61-.36.61-.72-.38-.37-.38-.73-.1901-.36-.1901-.73.5701-.36.5801-.72-.57-.37-.56-.73.2599-.36.2599-.72.34-.36.34-.72-.48-.36-.48-.73.39-.36.39-.72-.3399-.37-.3399-.73-.06-.36-.0501-.73c.01-.37.4901-.36.4901-.72s-.39-.37-.39-.73.39-.36.39-.73-.4401-.37-.4301-.73-.0499-.36-.0499-.73.06-.36.07-.73c.0099-.37.32-.36.32-.73s-.32-.37-.32-.73-.15-.36-.15-.73.03-.37.03-.73.2099-.36.2099-.73.2901-.37.3001-.73c.0099-.36-.03-.37-.03-.73 0-.24-.35-.47-.37-.71s.0899-.49.0499-.73.0901-.52.0301-.76-.2601-.44-.3401-.66-.0299-.52-.1299-.74-.62-.22-.74-.43-.27-.37-.4-.57-.1601-.46-.3101-.65-.2-.47-.37-.64c-.1699-.17-.2499-.46-.4299-.62s-.6601.06-.85-.08c-.19-.14-.3-.4-.51-.52s-.31-.44-.53-.55-.6.2-.82.12c-.2201-.08-.33-.53-.56-.59s-.4401-.34-.6801-.38-.5-.07-.75-.09-.51.3-.75.3c-.36 0-.3599.32-.7099.32s-.36-.41-.72-.41-.36.06-.72.06-.36-.21-.7201-.21c-.36 0-.36.39-.72.39s-.36-.39-.72-.39-.36.45-.72.45-.36.04-.72.04-.3599.09-.7199.09-.36-.44-.72-.44-.36.35-.72.35-.36-.45-.72-.45-.36-.1-.72-.1-.36-.02-.72-.02-.36.25-.72.25-.36-.06-.72-.06c-.3601 0-.3601.31-.7201.31s-.36.14-.72.14-.36-.56-.72-.56-.36.05-.72.05-.36 0-.72 0-.3599.35-.7199.35-.36-.25-.72-.25-.36.18-.72.18-.36.21-.72.21-.36-.16-.72-.16-.36-.26-.72-.26-.36-.13-.72-.13-.36.12-.72.12-.36.26-.72.26-.36-.12-.7201-.12c-.36 0-.36.18-.72.18s-.36-.19-.72-.19-.3599-.22-.7199-.22-.36.09-.72.09-.36-.08-.72-.08-.36.39-.72.39-.36.18-.72.18-.36-.27-.72-.27-.36-.23-.72-.23-.36.17-.72.17-.36.25-.72.25-.3601-.48-.7201-.48-.36.17-.72.17-.36-.2-.72-.2-.36-.08-.72-.08-.3599.13-.7199.13-.36-.08-.72-.08-.36.54-.72.54-.36-.4-.72-.4-.36-.17-.72-.17-.36.27-.72.27-.36.07-.72005.07c-.36 0-.35999.22-.72999.22s-.36-.25-.72-.25-.36001-.28-.72001-.28-.35999.11-.72999.11-.36001.52-.73001.52-.36-.42-.72-.42-.35999-.19-.71999-.19-.36001.25-.73001.25-.36-.29-.73-.29-.36999.11-.72999.11-.27.28-.53.02.11999-.16.11999-.51999c0-.36-.63-.36-.63-.72s.52-.36.52-.72-.3-.36001-.3-.73001.10001-.35998.10001-.72998-.04001-.36001-.04001-.73001-.31999-.36-.31999-.72001c0-.36.08-.36001.08-.73001s.04999-.35998.04999-.72998-.12999-.37001-.12999-.73001-.06-.60999.19-.86999.5.10998.86.10998.36.01001.72.01001.35999-.04001.71999-.04001.36.06.72.06.36.20001.72.20001h.72c.36 0 .36-.03.72-.03s.36-.48001.72-.48001.36.02002.72.02002.36.16999.72.16999.36001-.13001.72001-.13001c.36004 0 .36004-.03998.72004-.03998s.36.48999.72.48999.36-.39001.72-.39001.3599-.09.7199-.09.36-.03998.72-.03998.36.22999.72.22999h.72c.36 0 .3601.01.7201.01.3599 0 .36.26999.72.26999s.36-.26999.72-.26999.36.32001.72.32001.36-.5.72-.5.36.41999.72.41999.36-.44001.72-.44001.36-.03998.72-.03998.36.54999.72.54999.3599-.07998.7199-.07998.36-.10001.72-.10001.36.19.72.19c.3601 0 .3601-.5.7201-.5s.36.16999.72.16999.36-.12.72-.12.36.09.72.09.36.30001.72.30001.36.09.72.09.36-.20001.72-.20001.36.22.72.22.36-.12.72-.12.3599-.42001.7199-.42001.36-.04999.72-.04999.36.17002.72.17002.36.03998.7201.03998c.36 0 .3599.32.7199.32s.36-.48001.7201-.48001c.36 0 .36.53.72.53s.36-.16998.72-.16998.36-.05002.72-.05002.36.10001.72.10001.36-.35999.72-.35999.36-.08002.72-.08002.36.54001.72.54001.3599-.35.7199-.35.3601-.24.7301-.24.36.25.72.25.36.12.72.12.36.23999.73.23999.36-.09.7299-.09h.7201c.36 0 .36.03.72.03s.3599-.5.7299-.5.3601.32001.7301.32001.37.20999.73.20999.3699-.20999.73-.20999c.24 0 .4599.25001.6999.26001s.4601.07.69.09c.23.02.5-.25001.73-.22001s.4401.25001.6701.29001.5099-.16.7399-.1.44.19.67.25.4101.28.6301.35.5599-.16999.78-.08999c.22.08.3999.28997.6199.37997s.5101.02003.7301.12003.5299.02998.7399.13998.1301.74002.3401.86002.39.23999.59.36999.5.09999.69.23999.5.13.68.28.5.14999.68.29999.07.65003.2399.81003c.17.16.6601-.00001.8201.17999.17.17.0199.64001.1799.82001s.5101.17999.6601.36999.27.4.41.59 0 .57999.14.76999.3299.34.4599.54.4001.31.5201.52-.02.55.08.76.49.28.5899.5c.1.22-.0999.55 0 .77.1.22.62.27.7.49s0 .5.08.73-.0999.52-.0399.75.64.34.69.57.0599.49.0999.72-.4899.55-.4599.79.15.45.17.69.35.45.36.69-.28.48-.28.72c0 .36.3799.36.3799.72s-.06.36-.06.72-.2299.36-.2299.72-.22.36-.22.72.12.36.11.72-.1301.36-.1301.72.56.37.56.73-.5099.36-.5099.72.22.36.22.73.08.36.08.73.1799.36.1799.73-.1.36-.11.72.11.36.11.72-.35.36-.36.72.0801.36.0701.72-.1601.36-.1601.72.1801.36.1801.73-.27.36-.27.72.27.36.27.73-.22.36-.22.73.24.36.23.73-.1901.36-.1901.72-.08.36-.08.72.28.36.28.73-.4499.36-.4599.72.4999.37.4899.73-.4099.36-.4099.73.42.37.42.73-.2101.36-.2101.72-.1499.36-.1499.73.29.36.28.72-.11.36-.12.72.2699.36.2699.73-.31.36-.31.72-.27.36-.27.73-.0199.36-.0199.73v.73c0 .37.2399.36.2399.73s-.0399.36-.0499.73-.2.36-.21.73.44.37.44.73-.2601.36-.2601.73.11.37.11.73.2801.37.2801.73.06.36.06.73-.26.36-.27.73-.3801.36-.3801.73.4101.37.4101.74-.04.37-.04.73c0 .24-.2801.5-.2601.74s.49.43.53.66-.1899.53-.1299.76-.05.54.03.76.24.45.34.66.16.48.28.69.6.2.74.4-.0601.66.0999.85c.1601.19.7001.02.8701.19s.35.3.53.46.17.55.37.69c.1999.14.39.29.6.41s.6099-.15.8299-.05.3901.25.6201.33.3099.6.5399.66c.2301.06.5101-.05.75 0 .24.05.4701.12.7101.14s.48-.09.73-.09c.3499 0 .35-.31.71-.31s.36.64.7099.64c.35 0 .3501-.1.7101-.1s.3499-.02.7099-.02.3501-.43.7101-.43.3599.14.7099.14.3501-.01.7101-.01.36.15.71.15.36.08.7099.08c.35 0 .3601.1.7101.1s.3599.07.7099.07.3501-.33.7101-.33.3499-.22.7099-.22.3601.5.7101.49.3499-.51.7099-.51.3601.08.7101.08c.3499 0 .36.18.71.18s.3499-.28.7099-.28h.7101c.35 0 .36.45.72.45s.36-.05.7099-.05c.35 0 .3501-.43.7101-.43s.36.61.72.61.3499-.59.7099-.59.3601.42.7101.42.3499-.43.7099-.44.3601.24.7101.24.3599-.29.7099-.29.36.52.72.52.3601-.26.7101-.26.36.34.71.34.3499-.58.71-.58c.36 0 .36.3.71.3s.36 0 .7099-.01c.35-.01.3601.09.7101.09s.36-.18.72-.18.3599.35.7099.35.3501-.37.7101-.37.3599.1.7097.1c.35 0 .36.13.72.13s.36-.43.71-.43.36-.02.72-.02.36.3.72.3.36-.04.72-.05.36.13.72.13.36-.35.71-.35.36.19.72.19.36-.02.72-.02.36-.22.72-.23.36.05.72.05c.24 0 .47.5.7.51s.46.11.69.13.47-.02.7 0 .55-.45.78-.41.43.32.66.37.46.12.69.18.5 0 .72.07.5.03.72.11.29.58.51.67.52 0 .73.1.48.11.69.22.39.28.6.4.48.13.68.26.37.31.56.45.49.15.68.3.05.69.24.85.62 0 .8.17.2.48.37.65.49.2.65.37.02.62.17.8.37.3.51.49.17.45.31.65.44.27.57.46.3.37.42.58.41.32.52.53.24.42.34.64-.22.61-.12.83.58.28.66.51-.09.53-.02.76.04.48.1.71.03.47.08.7.61.36.66.6-.45.55-.42.78.05.46.07.7.2.45.22.69.22.47.22.71c0 .36-.35.36-.35.72s.31.36.31.72.21.36.21.72.04.36.04.72-.29.36-.29.72-.16.36-.16.72v.72c0 .36-.1.36-.1.72s.13.36.13.72-.25.36-.25.73.46.36.46.73.16.36.16.72-.24.36-.24.72.23.36.23.72-.5.36-.5.72-.01.36-.01.72.11.36.11.72.15.36.15.72.03.36.03.72.24.36.24.73.04.36.04.73-.66.36-.66.73.39.36.39.72-.27.36-.27.72-.08.36-.08.72.01.36.01.73.23.36.23.73.12.36.12.73-.41.36-.41.73.06.36.06.73.34.36.34.73-.23.36-.23.72.11.36.11.72.08.36.08.72-.34.36-.34.73.36.36.36.73-.35.36-.35.73-.01.36-.01.73.04.36.04.73.08.36.08.73.1.36.1.73.09.36.09.73-.37.37-.37.73.1.36.1.73-.06.36-.06.73-.02.36-.02.73.09.37.09.73.37.37.37.73-.23.37-.23.73.45.56.19.82-.45.23-.82.23-.36.02-.72.02-.36-.51-.72-.51-.36.48-.73.48-.36-.4-.73-.4-.36.21-.73.21-.36.2-.72.2-.36-.66-.73-.66-.36 0-.73 0-.37.23-.73.24c-.29 0-.25.14-.51-.12z" fill="#fff"/><g stroke="#000" stroke-linecap="round" stroke-linejoin="round" stroke-width="2.6"><path d="m116.34 115.09c-.26-.25.15-.23.15-.59s-.34-.36-.34-.72-.1-.36-.1-.72.43-.36.43-.72-.59-.36-.59-.72.58-.36.58-.72-.57-.36-.57-.72.14-.36.14-.72.33-.36.33-.72-.18-.36-.18-.73.36-.36.36-.73-.66-.36-.66-.72.62-.36.62-.72-.6-.36-.6-.72.19-.36.19-.72.33-.36.33-.72-.17-.36-.17-.72-.05-.36-.05-.72.1-.36.1-.72.2-.36.2-.73-.57-.36-.57-.73.38-.36.38-.73.2-.36.2-.72-.25-.36-.25-.72.18-.36.18-.72-.59-.36-.59-.73.61-.36.61-.73-.52-.36-.52-.73.37-.36.37-.73.09-.36.09-.73-.5-.36-.5-.73.16-.36.16-.72-.13-.36-.13-.72.29-.36.29-.72-.11-.36-.11-.73-.23-.36-.23-.73.29-.36.29-.73.34-.36.34-.73-.55-.36-.55-.73.07-.36.07-.73-.07-.36-.07-.73.27-.36.27-.73-.06-.37-.06-.73-.09-.36-.09-.73.45-.36.45-.73-.25-.36-.25-.73-.26-.37-.26-.73.43-.37.43-.73.07-.37.07-.73-.3-.37-.3-.73c0-.24-.16-.47-.18-.71s0-.48-.03-.72-.02-.49-.09-.72-.44-.35-.52-.58 0-.5-.1-.72-.14-.46-.26-.67-.16-.47-.3-.67-.26-.41-.42-.6-.51-.18-.68-.35-.21-.47-.39-.63-.37-.31-.57-.44-.42-.23-.63-.35-.49-.09-.7-.19-.42-.2-.64-.28-.36-.46-.59-.53-.52.12-.76.08-.45-.23-.69-.25-.48.29-.72.29c-.35 0-.36-.49-.71-.49s-.35.06-.71.06-.35.55-.71.55-.36-.34-.71-.34-.35-.07-.71-.07-.35.22-.71.22-.36-.44-.71-.44-.35.14-.71.14-.36.1-.71.1-.36.14-.71.14-.36.05-.71.05c-.3497 0-.3597-.28-.7097-.27s-.35.47-.71.47-.36-.08-.71-.08-.36-.2-.71-.2-.36-.2-.71-.2-.35.46-.71.47-.36-.44-.71-.44-.36.08-.71.08-.36.03-.71.03-.36.27-.71.27-.36-.19-.71-.19-.36.22-.71.22-.36-.18-.71-.17-.36-.26-.71-.26-.36-.04-.71-.04-.36.27-.71.27-.36.14-.71.14-.36-.13-.71-.12-.36-.04-.71-.04-.36.37-.71.37-.36-.23-.71-.23-.36-.26-.71-.26-.36.05-.71.05-.36.3-.71.3-.36-.4-.72-.4-.36.04-.71.04-.36.24-.71.24-.36-.11-.71-.11-.36-.28-.72-.28-.36.58-.71.58-.36-.05-.72-.05-.36-.03-.72-.03-.36.05-.72.05-.36-.06-.72-.06-.36.18-.71.19-.36-.13-.72-.12-.36.09-.72.09-.36-.58-.72-.57-.36.07-.72.07c-.24 0-.48.3-.72.29s-.47-.18-.7-.2-.46-.11-.7-.14-.45-.16-.68-.2-.52.2-.75.15-.37-.46-.6-.52-.48 0-.71-.08-.62.35-.85.27-.26-.66-.48-.75-.57.12-.79.02-.38-.32-.59-.43-.39-.27-.6-.39-.35-.34-.55-.47-.45-.17-.65-.3-.42-.23-.61-.38-.42-.24-.6-.39-.5-.16-.68-.33-.26-.43-.43-.6-.12-.55-.28-.72-.37-.3-.52-.48-.24-.41-.39-.6-.37-.32-.51-.51-.06-.52-.19-.72-.54-.22-.66-.43-.25-.41-.36-.62-.23-.42-.33-.64-.09-.48-.18-.7-.05-.48-.13-.71-.1-.46-.17-.69-.53-.34-.59-.57.29-.56.24-.79-.04-.47-.08-.7-.2-.44-.23-.68-.35-.44-.37-.68.05-.48.04-.72.37-.48.37-.71c0-.36 0-.36 0-.72s-.64-.36-.63-.72.49-.36.49-.72-.1-.36-.09-.72.16-.36.17-.72-.18-.36-.17-.72-.13-.36-.12-.72-.14-.36-.14-.73-.01-.36 0-.73.32-.36.33-.72-.02-.36-.02-.73-.09-.36-.09-.72.17-.36.17-.72-.11-.36-.11-.72-.23-.36-.22-.72.44-.36.44-.72.12-.36.13-.72-.04-.36-.04-.73-.5-.37-.5-.73.56-.36.56-.72-.13-.36-.13-.73-.06-.36-.06-.73-.37-.36-.36-.73-.11-.36-.11-.73.54-.36.54-.72.08-.36.08-.73-.11-.36-.11-.73-.35-.37-.35-.73.21-.36.21-.72.21-.36.21-.73-.42-.36-.42-.72.04-.36.05-.72.49-.36.49-.72-.31-.37-.3-.73.31-.36.31-.73-.07-.36-.07-.73-.53-.37-.53-.73.46-.36.46-.72-.31-.37-.31-.73-.07-.36-.06-.73.52-.36.53-.72-.56-.37-.56-.73.16-.36.16-.73.34-.36.34-.73-.1-.36-.1-.73-.28-.37-.28-.73-.04-.37-.04-.73.5-.36.5-.73-.54-.37-.53-.74c0-.24.06-.47.04-.71s-.07-.46-.11-.7.08-.5.02-.73-.25-.42-.33-.65-.33-.36-.43-.58-.18-.42-.3-.63.18-.68.04-.88-.24-.45-.4-.64-.43-.28-.6-.46c-.17-.17-.43-.26-.61-.41s-.33-.38-.52-.52-.49-.13-.7-.25-.34-.41-.55-.51-.51-.04-.74-.12-.48-.04-.72-.1-.38-.53-.62-.57-.55.5-.79.48-.45-.47-.7-.47c-.36 0-.36.01-.71.01s-.36-.06-.72-.06-.36-.05-.72-.05-.36.01-.72.01-.36.19-.72.19-.36-.29-.72-.29-.36.2-.72.2-.36.3-.72.3-.36-.02-.72-.02-.36-.28-.72-.28-.36-.14-.72-.14-.36.28-.72.28-.36.27-.72.27-.36-.18-.72-.18-.36-.27-.72-.27-.36.29-.72.29-.36.15-.72.15-.36-.25-.72-.25-.36-.07-.72-.07-.36 0-.72 0-.36.37-.72.37-.36-.08-.72-.08-.36.03-.72.03-.36-.02-.72-.02-.36-.39-.72-.39-.36-.09-.72-.09-.36-.06-.72-.06-.36-.07-.72-.07-.36.24-.72.24-.36.16-.72.16-.36.14-.72.14-.36.02-.72.02-.36-.25-.72-.25-.36-.14-.72-.14-.36.4-.72.4-.36-.58-.72-.58-.36.55-.72.55-.36-.03-.72-.03-.36-.19-.72-.19-.36.01-.72.01-.36-.28-.72-.28-.36.12-.72.12-.36 0-.72 0-.36-.11-.72-.11-.36.37-.72.37-.36-.24-.72-.24-.36.37-.72.37-.36-.26-.72-.26-.36.02-.72.02-.36.05-.72.05-.36-.17-.72-.17-.36.22-.72.22-.36-.24-.71996-.24c-.36 0-.36001.06-.73001.06s-.36.26-.72.26-.35999.04-.71999.04-.36001 0-.73001 0-.35999-.28-.72999-.28-.36001.1-.72001.1-.36-.37-.72-.37-.35999.02-.72999.02-.36.46-.73.46-.37001.05-.73001.05-.46.05-.72-.21-.06-.35-.06-.72.09-.36.09-.72-.12999-.36-.12999-.72-.05-.36001-.05-.73001-.04-.35998-.04-.72998-.12001-.36001-.12001-.73001.53-.36.53-.72-.29999-.36001-.29999-.73001.09-.35998.09-.72998.17-.37001.17-.73001-.33-.36-.08-.62.24.22.6.22h.72c.36 0 .35999-.17999.71999-.17999s.36-.24002.72-.24002.36-.18997.72-.18997h.72c.36 0 .36.09997.72.09997s.36001.03.72001.03.36.32001.72.32001.36.16.72.16.36-.16.72-.16c.35996 0 .35996-.31.71996-.31s.36.19.72.19.36.21.72.21.36-.16999.72-.16999.36-.42001.72-.42001.36.14001.72.14001.36-.14001.72-.14001.36.44.72.44.36-.23999.72-.23999.36.39999.72.39999.36-.61999.72-.61999.36.38998.72.38998.36-.05999.72-.05999.36.17999.72.17999.36.08002.72.08002.36.07998.72.07998.36-.19998.72-.19998.36-.29001.72-.29001.36.25.72.25.36-.1.72-.1.36-.22998.72-.22998.36.41998.72.41998.36-.32001.72-.32001.36-.16.72-.16.36.62002.72.62002.36-.58001.72-.58001.36.47.72.47.36-.18.72-.18.36.01001.72.01001.36-.09002.72-.09002.36-.25.72-.25.36.06003.72.06003.36.04998.72.04998.36-.14001.72-.14001.36.65002.72.65002.36-.38.72-.38.36.07999.72.07999.36.30999.72.30999.36-.11999.72-.11999.36.03.72.03.36-.18.72-.18.36-.11001.72-.11001.36.08001.73.08001.36.21.72.21.36.03.72.03.36-.06.73-.06.36-.31.73-.31.36.23001.72.23001.36.17999.72.17999.36-.44.73-.44.36-.07999.73-.07999h.73c.36 0 .37.26999.73.26999.24 0 .47.06999.71.07999s.46.10003.7.12003.47-.00001.71.02999.5-.16002.74-.12002.42.32002.65.37002.56-.28.79-.22.34.52998.57.59998.62-.33.84-.25.3.55001.52.64001.51.00999.73.10999.32.42.53.53.37.29.58.41.61-.07999.81.04001.42.24.61.38.44.22.63.37.37.31.55.47.03.68.21.84.67-.01.84.16.28.40001.44.57001.02.61001.18.79001.66.07999.8.26999-.08.64999.05.83999.69.11.82.31.18.46.3.67.16.46.27.67.4.35.5.56.18.46.27.68.05.5.13.72-.12.54-.05.77.06.47.12.7.03.47.08.7.15.44.19.68.25.44.28.67-.15.48-.13.72.15.46.16.7-.15.47-.16.71v.72c0 .36.46.36.46.72s-.49.36-.5.72.28.36.28.72-.25.36-.26.72.53.36.53.73-.13.36-.14.72-.2.36-.2.72-.2.36-.2.72.61.37.61.73-.42.36-.42.72.13.36.13.73-.38.36-.38.72.53.37.53.73-.35.36-.36.72-.05.36-.05.72.42.36.42.73-.07.36-.07.72-.38.36-.38.72.16.36.16.73-.15.36-.15.73.23.36.23.73.03.36.03.73.08.36.07.73-.23.36-.23.72-.04.36-.05.73.13.36.13.73.16.36.16.73-.48.36-.48.72.48.37.48.73-.12.36-.12.72-.25.36-.25.72-.04.36-.04.72-.04.36-.05.73.57.37.57.73-.24.36-.24.72-.09.36-.09.72.31.37.31.73-.27.36-.27.73.16.37.16.73-.32.36-.33.73.16.37.16.73-.16.36-.16.73.18.37.17.73.26.37.26.73-.06.37-.07.73 0 .37-.01.73.07.37.07.74-.32.37-.32.73c0 .24-.29.51-.27.75s.55.42.59.66 0 .48.06.71-.3.61-.22.83.75.22.85.43-.34.72-.22.93.62.18.76.38.37.31.52.49.12.53.29.71c.17.17.44.23.62.38s.36.31.55.45.35.34.55.46.41.26.63.36.48.08.71.16.36.46.6.53.54-.22.78-.18.47.02.71.04.46.21.71.21c.35 0 .35-.34.71-.34s.36.63.71.63.35-.21.71-.21.35-.15.71-.15.36.29.71.29.35-.51.71-.51.36.58.71.58.35-.33.71-.33.36-.18.71-.18.36-.15.71-.15.36.04.71.04.36.38.71.38.36.2.71.2.35-.64.71-.64.36.21.71.2.35-.14.71-.14.36.02.71.02.36.04.71.04.36.26.71.26.36-.15.71-.15.36.21.72.21.36-.13.71-.13.36.24.71.24.36-.06.71-.06.35-.41.71-.41.36.34.71.34.36-.03.71-.04.36-.17.71-.17.36.42.72.42.36-.35.71-.35.36-.1.71-.11.36.23.71.23.35-.17.71-.17.35-.1.71-.1.36.22.71.22.36-.39.71-.39.36.47.72.47.36.12.71.12.36-.05.7097-.05c.35 0 .36-.39.72-.39s.36.25.72.25.36-.03.72-.03.36-.04.72-.04.36.11.72.11.36.07.72.07.36.01.71 0 .36-.05.72-.05.36-.33.72-.33.36-.05.72-.05.36.09.72.09c.24 0 .47.29.7.3s.48-.17.72-.15.48 0 .71.02.44.24.68.28.48 0 .71.05.44.19.67.25.4.31.62.38.62-.36.84-.28.41.27.63.36.41.24.63.34.28.49.49.6.65-.2.85-.08.26.49.46.62.45.18.64.31.24.46.43.6.7-.11.88.04.06.66.23.82.6.06.77.22c.17.17 0 .65.17.82s.48.2.64.38.15.48.3.67.3.36.44.55.43.28.55.48.12.48.24.68.14.46.25.67.2.42.3.63.3.38.39.59.14.45.22.67.01.48.08.71.79.26.85.49-.48.61-.43.84.29.42.33.65.23.44.26.68.12.47.14.7-.07.48-.06.72-.16.47-.16.71c0 .36.36.36.36.72s-.35.36-.35.72.28.36.28.72-.03.36-.03.72-.27.36-.27.72-.02.36-.02.72.46.36.46.72-.23.36-.23.72.15.36.15.72-.35.36-.35.73-.07.36-.07.73.33.36.33.72-.44.36-.44.72.61.36.61.72-.01.36-.01.72-.33.36-.33.72.21.36.21.72-.17.36-.17.72.25.36.25.72-.51.36-.51.73.19.36.19.73-.27.36-.27.73.29.36.29.72-.12.36-.12.72.25.36.25.72.02.36.02.73-.41.36-.41.73.14.36.14.73.21.36.21.73.26.36.26.73-.36.36-.36.73-.03.36-.03.72-.24.36-.24.72.52.36.52.72.02.36.02.73-.42.36-.42.73v.73c0 .37.04.36.04.73s-.11.36-.11.73-.04.36-.04.73.15.36.15.73.03.36.03.73.3.37.3.73-.14.36-.14.73.2.36.2.73-.56.36-.56.73.61.37.61.73-.25.37-.25.73.23.37.23.73-.1.37-.36.63-.26.29-.62.29-.36.13-.72.13-.36-.25-.72-.25-.36.21-.73.21-.36-.08-.73-.08-.36-.3-.73-.3-.36-.23-.72-.23-.36.58-.73.58-.36-.25-.73-.25-.4-.36-.77-.32c-.32.04-.3.44-.56.19z"/><path d="m116.17 115.26c-.26-.25.15-.4.15-.76s0-.36 0-.72.18-.36.18-.72-.3-.36-.3-.72.03-.36.03-.72-.29-.36-.29-.72.3-.36.3-.72.11-.36.11-.72.18-.36.18-.72-.48-.36-.48-.73-.1-.36-.1-.73.47-.36.47-.72-.36-.36-.36-.72.39-.36.39-.72-.31-.36-.31-.72.08-.36.08-.72.23-.36.23-.72-.09-.36-.09-.72-.48-.36-.48-.72.36-.36.36-.73-.28-.36-.28-.73.35-.36.35-.73-.22-.36-.22-.72 0-.36 0-.72-.03-.36-.03-.72.09-.36.09-.73.09-.36.09-.73-.34-.36-.34-.73.52-.36.52-.73-.45-.36-.45-.73.14-.36.14-.73-.13-.36-.13-.72.3-.36.3-.72-.41-.36-.41-.72.15-.36.15-.73.37-.36.37-.73-.23-.36-.23-.73-.02-.36-.02-.73.21-.36.21-.73-.32-.36-.32-.73.09-.36.09-.73.33-.36.33-.73-.04-.37-.04-.73-.22-.36-.22-.73.1-.36.1-.73-.16-.36-.16-.73.25-.37.25-.73.12-.37.12-.73-.37-.37-.37-.73.38-.37.38-.73c0-.24-.3-.48-.32-.72s.28-.54.24-.77-.73-.33-.79-.56 0-.48-.08-.71.21-.61.11-.83-.72-.16-.84-.37-.09-.49-.23-.69-.3-.36-.46-.54-.11-.55-.28-.72-.55-.1-.73-.26-.3-.37-.5-.51-.21-.58-.41-.7-.61.13-.83.03-.32-.48-.55-.56-.54.1-.77.04-.43-.27-.66-.31-.47-.15-.71-.17-.49.04-.73.04c-.35 0-.35.01-.71.01s-.35-.08-.71-.08-.35-.08-.71-.07-.35.24-.71.24-.36-.24-.71-.23-.35.28-.71.29-.35.07-.71.07-.36-.33-.71-.33-.36.14-.71.14-.36-.25-.71-.24-.35.58-.71.58c-.3599 0-.3599-.28-.7099-.28s-.36.14-.71.14-.36-.08-.71-.07-.36 0-.71 0-.36-.35-.71-.35-.35.35-.71.36-.36.09-.71.09-.36-.03-.71-.03-.36-.34-.71-.33-.36.44-.71.44-.36-.16-.71-.16-.36.24-.71.24-.36-.09-.71-.09-.36-.23-.71-.23-.35.39-.71.39-.36-.27-.71-.27-.36.06-.71.06-.36-.16-.71-.16-.36.09-.71.09-.36.26-.71.26-.36-.44-.71-.44-.35-.04-.71-.04-.35.47-.71.48-.36-.59-.72-.58-.36.4-.71.4-.36.1-.71.1-.36-.03-.71-.03-.36-.16-.71-.16-.36-.11-.72-.11-.36.31-.71.31-.36 0-.72 0-.36-.19-.72-.19-.36-.25-.72-.25-.36.11-.72.11-.36.11-.71.11-.36.1-.72.1-.36.11-.72.11-.36 0-.72 0-.36-.41-.72-.41c-.24 0-.48.29-.72.28s-.47-.1-.71-.12-.45-.26-.68-.29-.45-.14-.68-.18-.46-.06-.69-.11-.52.16-.75.1-.57.22-.79.15-.32-.57-.54-.65-.45-.13-.67-.23-.39-.28-.61-.38-.47-.1-.69-.21-.62.12-.82 0-.18-.63-.38-.76-.27-.43-.46-.57-.77.24-.95.09-.17-.56-.35-.71-.55-.1-.73-.26-.16-.53-.33-.69c-.17-.17-.45-.23-.61-.41s-.43-.27-.58-.45 0-.62-.14-.81-.6-.16-.74-.35.12-.65 0-.85-.25-.4-.36-.6-.21-.42-.32-.63-.7-.19-.8-.4-.08-.5-.17-.72.24-.6.16-.82-.46-.34-.53-.57.13-.53.07-.76-.2-.44-.25-.67-.06-.47-.1-.7-.16-.45-.19-.69-.11-.47-.13-.7.14-.48.13-.72-.45-.47-.45-.71c0-.36.36-.36.36-.72s.04-.36.04-.72-.09-.36-.09-.72.14-.36.14-.72.04-.36.04-.72-.28-.36-.28-.72.08-.36.08-.72-.3-.36-.29-.73.09-.36.09-.73.08-.36.09-.73.27-.36.28-.72.07-.36.07-.72-.26-.36-.26-.73-.23-.36-.23-.72.2-.36.2-.72.31-.36.32-.72-.25-.36-.24-.73-.19-.36-.19-.73.32-.36.32-.72.21-.36.21-.73 0-.36 0-.73-.13-.36-.13-.73-.29-.36-.29-.73-.02-.36-.02-.73.4-.36.41-.72-.23-.36-.23-.73.34-.36.34-.73-.28-.37-.27-.73-.19-.36-.19-.73.26-.36.27-.72-.4-.36-.39-.72.32-.36.32-.72-.28-.36-.28-.73.1-.36.1-.73-.05-.36-.05-.73-.1-.36-.09-.73.55-.36.55-.72-.41-.37-.41-.73-.11-.37-.11-.73.44-.36.44-.73.1-.36.1-.73-.07-.37-.07-.73-.41-.37-.41-.73.22-.36.23-.73.19-.36.2-.73.05-.37.05-.73-.18-.37-.18-.73.15-.37.15-.73-.45-.37-.45-.74c0-.24-.05-.46-.07-.7s.23-.5.19-.74.2-.55.14-.78-.29-.44-.37-.66-.47-.33-.57-.54-.27-.38-.39-.59-.25-.38-.39-.58.07-.65-.08-.84-.42-.27-.6-.45c-.17-.17-.21-.51-.39-.66s-.72.14-.91 0-.36-.28-.57-.41-.23-.58-.45-.68-.38-.38-.61-.46-.6.27-.83.2-.37-.58-.61-.62-.55.51-.8.49-.46-.15-.7-.15c-.36 0-.36 0-.71 0s-.36-.22-.72-.22-.36-.23-.72-.23-.36.01-.72.01-.36.33-.72.33-.36.05-.72.05-.36-.05-.72-.05-.36.19-.72.19-.36.05-.72.05-.36-.02-.72-.02-.36.02-.72.02-.36-.42-.72-.42-.36.04-.72.04-.36.22-.72.22-.36.19-.72.19-.36-.08-.72-.08-.36-.4-.72-.4-.36-.11-.72-.11-.36.36-.72.36-.36-.09-.72-.09-.36-.29-.72-.29-.36.35-.72.35-.36-.39-.72-.39-.36.68-.72.68-.36-.29-.72-.29-.36.07-.72.07-.36-.14-.72-.14-.36-.21-.72-.21-.36.15-.72.15-.36-.21-.72-.21-.36-.01-.72-.01-.36.5-.72.5-.36-.43-.72-.43-.36 0-.72 0-.36.19-.72.19-.36.29-.72.29-.36-.6-.72-.6-.36.11-.72.11-.36.18-.72.18-.36-.02-.72-.02-.36-.22-.72-.22-.36.34-.72.34-.36-.29-.72-.29-.36.38-.72.38-.36-.08-.72-.08-.36.17-.72.17-.36-.21-.72-.21-.36-.23-.72-.23-.36.32-.72.32-.36-.02-.72-.02-.36-.23-.72-.23-.36.43-.72.43-.36-.47-.72001-.47c-.36 0-.36-.05-.73-.05s-.36.47-.72.47-.36-.26-.72-.26-.36-.33-.73-.33-.35999.38-.72999.38-.36001.27-.72001.27-.36-.11-.72-.11-.35999.01-.72999.01-.36001-.11-.73001-.11-.37-.19-.73-.19-.38.25-.64 0 .24001-.27.24001-.63998c0-.37-.49001-.36001-.49001-.72001s.41001-.36.41001-.72-.13001-.36001-.13001-.73001-.14-.36001-.14-.73001.23-.35998.23-.72998-.26999-.36-.26999-.72.09999-.36001.09999-.73001-.34999-.36001-.34999-.73001.31999-.36998.31999-.72998-.23-.43001.03-.69001.32001.01999.68001.01999.36-.13.72-.13.36-.10999.72-.10999.35998.37.71998.37.36001-.07999.72001-.07999.36-.17001.72-.17001.36.28.72.28.36-.44.72-.44.36-.06.72-.06.36.53.72.53.36-.44001.72-.44001c.36001 0 .36001.08002.72001.08002s.36.16998.72.16998.36.14002.72.14002h.72c.36 0 .36-.14002.72-.14002s.36-.26999.72-.26999.36-.08001.72-.08001.36.04001.72.04001.36.05999.72.05999.36.28.72.28.36.20001.72.20001.36-.14999.72-.14999.36-.31.72-.31h.72c.36 0 .36.12.72.12h.72.72.72c.36 0 .36.08999.72.08999s.36-.20001.72-.20001.36.13001.72.13001.36.07.72.07.36-.14001.72-.14001.36.22.72.22.36-.07999.72-.07999.36-.16.72-.16.36.17999.72.17999.36.29001.72.29001.36-.31.72-.31.36.07001.72.07001.36.19.72.19.36-.29.72-.29.36-.31.72-.31.36.44.72.44.36.03.72.03.36-.03.72-.03.36-.47.72-.47.36.41.72.41.36.00998.72.00998.36-.03.72-.03.36.18003.72.18003.36-.45002.72-.45002.36.32999.73.32999.36.11002.72.11002.36-.10001.72-.10001.36-.32001.73-.32001.36.29001.73.29001.36-.29999.72-.29999.36-.12002.72-.12002.36.49002.73.49002.36-.37.73-.37.37.19999.73.19999.37-.22998.73-.22998c.24 0 .46.48998.7.50998s.5-.40999.74-.38999.42.5.66.53.52-.30001.76-.26001.46.15001.69.20001.51-.07.74 0 .39.35999.62.42999.34.43999.57.51999.59-.22.81-.13.29.51001.5.61001.42.18999.63.29999.43.18002.64.30002.52.04999.72.17999.35.32.55.46.43.22001.61.36001.18.51998.36.66998.79-.17.96 0 .08.61.25.78.38.29.54.47.21.45001.36.63001.25.4.4.59.67.10001.8.30001.13.49999.26.69999.03.54.14.74.21.42.32.63.47.3.57.51.27.41.36.63-.29.62-.21.84.54.32.61.54-.15.53-.09.76.62.34.67.58.05.49.09.72-.54.56-.51.79.36.43.38.67.38.46.39.7 0 .49-.01.73c0 .36-.04.36-.04.72s-.35.36-.35.72.29.36.29.72-.15.36-.16.72-.34.36-.34.72.48.36.48.73.03.36.02.72-.09.36-.09.72-.46.36-.46.72.64.37.64.73-.33.36-.33.72.06.36.06.72-.18.36-.18.72-.19.36-.19.72.63.37.63.73-.68.36-.68.72.09.36.09.72.02.36.02.73v.73c0 .37.28.37.27.73s-.09.36-.09.73-.29.36-.29.72.05.36.05.73.12.36.12.73.36.37.36.73-.35.36-.35.72.08.36.08.73.33.37.33.73-.61.36-.61.72.06.36.06.73.27.36.26.72.06.36.05.72-.02.36-.02.72-.32.36-.32.72.25.37.25.73.22.36.22.73-.04.36-.04.73-.15.36-.15.73-.05.36-.05.73.26.37.26.73.05.36.05.73-.21.36-.22.73-.34.36-.34.73.5.37.5.73-.27.36-.27.73.3.37.29.73-.59.36-.59.73.55.37.55.74-.1.37-.11.73c0 .24-.08.48-.06.72s-.31.54-.27.77.32.44.38.67.38.38.46.61.06.48.16.7.36.34.48.55.23.4.37.59.09.53.24.71.39.29.56.46.11.6.29.75.46.21.66.35.41.27.62.39.53.03.74.13.46.1.69.18.42.22.65.28.39.45.63.49.48.18.72.2.5-.56.74-.56c.35 0 .35.19.71.19s.35-.01.71-.01.35.23.71.23.35-.04.71-.04.35-.28.71-.29.35 0 .71 0 .36.51.71.51.35-.1.71-.1.35-.28.71-.28.36-.1.71-.1.36.35.71.35.35-.3.71-.3.36.17.71.17.35-.39.71-.4.36.12.71.12.36-.01.71-.01.36.21.71.21.36.34.71.34.36-.12.71-.12.36-.27.71-.27.36-.21.71-.21.36.39.71.39.36.18.71.18.35-.26.71-.26.36.25.71.24.36-.21.71-.21.36-.21.71-.21.36.16.72.16.36.14.71.14.36.02.71.02.36-.15.71-.15.35-.07.71-.07.35.04.71.04.36.19.71.19.36-.41.71-.41.36.26.72.26.36-.15.71-.15.36.37.71.37.36-.03.7099-.03c.35 0 .36-.26.72-.26s.36-.28.71-.28.36.15.72.15.36-.19.72-.19.36-.09.72-.09.36.68.72.68.36-.41.71-.41.36.07.72.07.36-.19.72-.19.36-.07.72-.07.36.52.72.52c.24 0 .46-.04.7-.03s.47-.07.71-.05.47.04.7.07.48-.05.72 0 .45.15.68.2.48.01.71.07.43.23.65.3.54-.11.76-.03.33.46.55.55.47.1.69.2.6-.14.81-.03.29.47.5.59.35.34.55.47.49.12.68.26.51.12.7.27.36.32.54.48-.04.76.14.92.69-.04.86.13.03.63.19.8.7.01.86.19.21.45.36.64.29.38.43.58-.09.63.04.83.79.08.91.28-.09.6.02.81-.05.54.05.76.22.41.31.62.26.4.34.62.47.34.54.56-.01.5.05.73-.19.53-.14.76.38.4.42.63.28.44.31.67.1.47.12.71-.36.5-.35.74.02.46.02.7c0 .36.42.36.42.72s.05.36.05.72-.61.36-.61.72.41.36.41.72-.02.36-.02.72v.72c0 .36.21.36.21.72s-.29.36-.29.72.21.36.21.72.16.36.16.73-.39.36-.39.73.33.36.33.72-.46.36-.46.72.22.36.22.72-.02.36-.02.72-.06.36-.06.72-.16.36-.16.72.53.36.53.72-.43.36-.43.72-.2.36-.2.73.12.36.12.73v.73c0 .37.46.36.46.72s-.5.36-.5.72.23.36.23.72-.02.36-.02.73.3.36.3.73-.22.36-.22.73.04.36.04.73-.32.36-.32.73.17.36.17.73.01.36.01.72.13.36.13.72.21.36.21.72-.56.36-.56.73.03.36.03.73.59.36.59.73-.03.36-.03.73-.3.36-.3.73-.07.36-.07.73.4.36.4.73-.04.36-.04.73-.36.37-.36.73-.08.36-.08.73.39.36.39.73-.53.36-.53.73.2.37.2.73v.73c0 .36.3.37.3.73s.31.72.05.98-.61-.03-.98-.03-.36-.47-.72-.47-.36-.1-.72-.1-.36.28-.73.28-.36.05-.73.05-.36 0-.73 0-.36-.3-.72-.3-.36.1-.73.1-.36.35-.73.35-.4-.34-.76-.25c-.4.09-.48.41-.74.15z"/></g></svg>