<svg fill="none" height="209" viewBox="0 0 74 209" width="74" xmlns="http://www.w3.org/2000/svg"><path d="m45.4402 206.75c-.07-.23-.43-.34-.5-.57s.29-.6.22-.83-.45-.37-.52-.6-.11-.48-.18-.71-.28-.43-.35-.66.13-.54.07-.78.21-.56.15-.79-.12-.47-.17-.7-.47-.38-.53-.62-.29-.44-.34-.67.17-.53.13-.77.02-.49-.02-.73-.13-.47-.16-.71-.4-.45-.42-.69.13-.5.11-.74 0-.49 0-.73-.07-.49-.07-.73-.17-.5-.15-.74.64-.43.67-.67-.33-.53-.29-.77-.01-.5.03-.74.1-.48.16-.72.43-.38.49-.62-.12-.54-.05-.77.45-.35.53-.58-.18-.59-.09-.82.71-.21.81-.43-.38-.72-.27-.94c.1-.2.56-.23.68-.45.11-.2.21-.41.34-.62.12-.2.01-.54.14-.75s.73-.08.87-.28-.17-.67-.03-.87.34-.34.48-.53.6-.15.74-.34-.2-.72-.06-.91.49-.23.63-.42.55-.18.69-.37.19-.45.33-.64-.13-.7.02-.88.82.03.97-.15-.25-.8-.11-.99.54-.18.69-.37.56-.17.7-.36-.19-.76-.04-.95.39-.3.54-.48.57-.16.71-.34c.15-.19.19-.46.33-.64.15-.19.14-.5.28-.68.15-.19.42-.28.56-.45s.55-.16.7-.36c.14-.18-.08-.64.07-.84.14-.18.62-.13.76-.33.13-.19 0-.57.15-.77.13-.19.53-.2.67-.4.13-.19.26-.39.4-.59s-.21-.71-.07-.91.42-.28.56-.49.21-.42.35-.63.53-.22.66-.43.03-.54.15-.74.57-.2.7-.4 0-.55.13-.76.14-.47.26-.67.65-.16.77-.37.22-.42.34-.63.31-.37.43-.58.07-.51.19-.72-.11-.6.01-.81.2-.43.31-.64.24-.41.35-.62.28-.39.39-.6.2-.43.31-.64.13-.46.24-.68.75-.15.86-.36.21-.43.32-.64.15-.46.25-.67.15-.46.26-.67.02-.52.12-.73.34-.37.44-.59-.11-.57 0-.79.38-.35.47-.57.39-.35.48-.57.26-.41.35-.63.08-.48.17-.71.34-.38.43-.6-.07-.54.02-.76-.12-.56-.03-.78.38-.36.46-.59-.03-.52.05-.74.41-.36.49-.59.43-.36.51-.58-.42-.64-.34-.87.19-.44.26-.67.37-.39.44-.61.32-.4.39-.63.19-.44.26-.68-.07-.52 0-.75-.13-.53-.07-.76.08-.47.14-.7.31-.41.37-.65.14-.46.2-.69.25-.44.3-.67-.17-.52-.13-.76.1-.47.15-.7.43-.41.47-.65-.18-.51-.14-.75 0-.48.03-.72.3-.44.33-.68.16-.47.19-.7.08-.48.1-.71-.12-.49-.1-.73.13-.47.14-.71-.13-.49-.12-.73-.05-.48-.04-.72-.15-.48-.15-.72.29-.48.29-.72-.21-.47-.21-.71.1-.48.09-.72.12-.49.1-.72-.05-.48-.07-.72.13-.5.11-.73-.56-.42-.59-.66-.1-.46-.14-.7.47-.55.43-.79-.59-.38-.63-.62-.04-.48-.08-.71.21-.53.16-.77-.18-.45-.24-.68-.41-.38-.48-.61.36-.6.29-.83-.33-.4-.41-.63.06-.54-.02-.77-.38-.38-.47-.61-.4-.36-.5-.58.12-.59 0-.81-.34-.38-.45-.59-.39-.34-.51-.54-.29-.38-.42-.59-.3-.37-.44-.57.06-.64-.09-.83-.35-.35-.5-.54-.42-.28-.58-.46-.54-.16-.71-.34-.07-.6-.24-.77-.25-.44-.42-.61-.38-.31-.55-.48-.35-.34-.53-.5-.69.07-.88-.09-.31-.38-.5-.53-.21-.51-.41-.66-.2-.54-.4-.69-.65.07-.85-.07-.36-.33-.56-.47-.48-.16-.68-.3-.16-.63-.36-.76-.69.16-.89.02-.2-.57-.4-.71-.34-.37-.54-.5-.67.13-.87 0-.16-.63-.37-.76-.66.12-.86-.02-.33-.38-.53-.52-.18-.59-.38-.73-.36-.32-.56-.47-.65.07-.85-.07-.48-.17-.68-.32-.33-.37-.52-.52-.32-.38-.5-.54c-.18-.15-.32-.36-.5-.51s-.34-.33-.52-.48-.09-.59-.26-.75-.33-.33-.5-.49-.38-.27-.55-.44-.65-.02-.82-.19-.14-.52-.3-.69-.45-.22-.61-.4.04-.66-.11-.84-.69-.03-.85-.21-.19-.46-.34-.64-.53-.18-.68-.37-.09-.53-.24-.71-.43-.27-.57-.46-.03-.56-.17-.75-.35-.33-.49-.52-.29-.38-.42-.57-.08-.51-.21-.71-.46-.27-.58-.47.03-.57-.09-.78-.37-.34-.49-.54-.18-.45-.3-.66-.6-.21-.72-.42.32-.72.21-.93-.57-.24-.67-.46-.31-.38-.42-.59.14-.6.04-.82-.71-.19-.81-.41-.05-.51-.15-.72-.17-.45-.27-.67.09-.56 0-.78-.23-.42-.32-.64-.43-.35-.51-.57.04-.53-.05-.75-.34-.39-.42-.61-.15-.46-.23-.68.09-.54.01-.76-.63-.3-.7-.53.21-.57.14-.8-.13-.46-.2-.69-.18-.45-.24-.68-.28-.42-.34-.65.04-.51-.02-.74.2-.55.14-.78-.25-.43-.31-.66-.24-.43-.29-.67-.15-.46-.2-.69-.14-.46-.19-.7.11-.51.07-.75-.6-.37-.64-.61.55-.59.51-.82-.49-.4-.53-.64-.28-.44-.32-.68.24-.52.21-.76-.15-.46-.18-.7.28-.52.25-.76-.08-.47-.11-.71-.26-.45-.28-.69-.38-.45-.41-.68.29-.51.27-.75-.01-.48-.03-.72.03-.47.01-.71-.04-.47-.05-.71.12-.48.11-.71 0-.47 0-.71-.48-.46-.49-.7.13-.48.13-.71.12-.47.12-.71.19-.47.19-.71-.52-.48-.52-.72.03-.47.04-.71.48-.46.49-.69-.41-.49-.4-.73.4-.45.41-.69-.17-.48-.15-.72.28-.45.29-.69-.27-.5-.25-.73.24-.45.27-.69.29-.44.32-.68-.49-.54-.46-.77.15-.46.19-.69.24-.44.27-.68 0-.48.04-.71.21-.44.25-.68-.28-.53-.24-.76.06-.47.11-.7.48-.38.53-.62.31-.41.36-.64-.18-.52-.13-.75.03-.48.09-.7-.03-.49.03-.72-.02-.49.04-.72.23-.43.29-.66.58-.34.64-.57.12-.45.18-.68-.45-.6-.39-.83.59-.33.65-.56-.07-.5-.01-.73.26-.42.32-.65.23-.43.29-.66.2-.44.26-.66-.55-.62-.49-.85.45-.37.51-.6.21-.43.26-.66.1-.46.16-.69-.1-.5-.05-.73-.03-.49.01-.72.54-.37.59-.6-.38-.55-.33-.78c.04-.24.07-.47.11-.71s.56-.39.6-.63-.31-.54-.27-.78.15-.46.19-.7.06-.48.1-.71.54-.4.58-.64-.56-.57-.53-.81.04-.48.07-.72.41-.43.44-.67-.03-.49 0-.73.3-.45.33-.69-.22-.51-.19-.75.5-.43.53-.67-.37-.52-.34-.76.21-.46.23-.7-.2-.5-.18-.74.54-.44.56-.68-.43-.52-.41-.76.11-.47.12-.71.41-.46.43-.7-.5-.51-.49-.75.5-.46.51-.7-.12-.49-.11-.73.1-.48.1-.72-.31-.49-.3-.73.12-.48.13-.72.03-.48.03-.72c0-.24001.28-.48001.28-.72001s-.27-.47997-.27-.71997.23-.49001.22-.73001-.02-.48001-.03-.72001c-.01-.23999-.42-.46999-.43-.70999s-.13-.47002-.15-.71002.4-.49999.39-.73999-.42-.46001-.43-.70001.31-.49999.29-.73999.16-.49999.14-.73999-.07-.48-.09-.72-.34-.34002-.36-.58002c-.34-.11-.32-.44998-.68-.44998s-.36 0-.72 0-.36.1-.72.1-.36.15998-.72.15998-.36.04001-.72.04001-.36-.22998-.72-.22998-.36.02999-.72.02999-.36.06-.72.06-.36-.07001-.72-.07001-.36.57999-.72.57999-.36-.28998-.72-.28998-.36-.30001-.72-.30001-.36.57-.72.57-.36-.57-.72-.57-.36.61001-.72.61001-.36-.03-.72-.03-.36-.02002-.72-.02002-.36-.57998-.72-.57998-.36.07998-.72.07998-.36-.03-.72-.03-.36.11002-.72.11002-.36.22-.72.22-.36.17999-.72.17999-.36-.04998-.72-.04998-.36-.56003-.71-.56003-.36.04001-.71.04001-.36.44-.72.44-.36-.16-.72-.16-.36-.13999-.72-.13999-.36-.09-.72-.09-.36-.09002-.72-.09002-.36.13-.72.13-.36.25-.72.25-.36.27002-.72.27002-.36-.14001-.72-.14001-.36.11999-.72.11999-.36-.13998-.72-.13998-.36-.30002-.72-.30002-.36.19-.72.19-.36-.08999-.72-.08999-.36.14001-.72.14001-.36-.14999-.73002-.14999c-.37 0-.47-.340004-.82-.22.03.24.07.75999.09.98999s.15.46999.17.70999-.28.49999-.26.73999.22.47002.23.71002.08.48.1.72-.18.48998-.16.72998-.02.48-.01.72.59.46002.6.70001c.01.24.01.48001.02.72001s-.12.48001-.12.73001-.34.47997-.34.71997-.07.48-.07.72001c0 .24.16.48.16.72s-.04.48-.05.72.35.49.34.73c-.01001.24.07.49.06.73s-.65.45-.66.69.15.49.14.73.26.5.24.74-.12.48-.14.72.12.49.1.73-.51.44-.53.68.28.51.26.75-.18.47-.21.71.01.48-.01.72.28.52.26.75-.46.43-.48.67.23.51.2.75-.25.45-.28.69.19.51.16.75-.13.47-.16.71.06.5.03.73-.48.42-.52.65-.31.44-.35.67.4.55.36.79-.28.44-.32.68.16.52.12.75-.04.48-.08.72-.44.41-.49.64c-.04.23-.17.44-.22.68s.01.48-.04.71-.06.47-.11.7.12.51.07.74-.17.45-.22.67-.12.46-.17.69-.35.4-.4.63.03.49-.03.72.12.52.06.74-.6.33-.66.56.34.58.29.8-.06.47-.12.7-.51.35-.57.58-.19.44-.25.66-.19.44-.25.66.47.61.42.83-.65.32-.7.55.2.53.14.76.07.5.02.73-.46.38-.51.6-.14.45-.19.68-.03.48-.08.71-.17.45-.22.68-.22.44-.26.67.49.57.45.8-.7.36-.74.6.5.56.47.79-.53.4-.56.63-.19.45-.22.69.26.51.23.74.2.5.17.73-.48.43-.5.66.32.5.3.74-.51.43-.53.67.51.51.49.74-.08.47-.09.7-.05.47-.06.7.04.47.03.71-.39.46-.39.7-.21.47-.22.71.12.48.12.71v.71c0 .23.24.47.25.71s-.27.48-.26.72.24.47.25.7.26.46.27.7.09.47.1.7-.58.51-.56.75.38.45.4.69-.22.5-.2.74.55.43.58.67-.02.48 0 .72-.11.49-.08.73.3.44.34.68-.19.51-.16.75.07.47.11.71-.17.52-.14.75.4.42.44.66-.18.52-.14.76.15.46.2.7.45.4.5.63.08.47.14.7-.37.58-.32.81.17.46.23.69.38.4.44.63.33.41.39.64-.41.61-.35.84.39.39.46.62.2.44.27.67.33.4.4.63.11.47.18.7-.23.58-.16.81.03.5.11.73.65.28.74.5.04.5.12.72-.17.58-.08.8.62.27.71.49-.12.57-.02.79.38.36.48.58-.05.55.05.76.49.3.59.52.11.48.21.69.08.49.19.71 0 .54.11.75.28.4.4.61.65002.2.76002.41.12.48.24.69.13.48.25.68.26.41.38.61.5.24.63.44-.18.67-.05.87.51.23.64.43.37.32.51.51-.11.65.03.84.26.4.4.59.26.4.4.59.56.16.71.35.18.46.33.64.3.36.45.54.13.51.28.69.72 0 .88.17-.06.69.1.87.33.34.49.51.66.01.83.18.27.39.44.55.29.37.47.53.37.29.55.44.41.25.59.4.39.26.57.41c.19.16.1.64.29.79s.51.14.7.28.24.49.43.63.52.11.72.25.48.15.68.29.32.39.52.52.26.48.46.61.63-.06.83.07.48.15.68.28.05.8.25.93.61-.04.81.09.31.4.51.54.34.36.54.49.58 0 .78.14.28.44.48.58.61-.02.81.13.34.37.53.51.32.38.51.53.46.2.65.35.04.72.22.87.51.14.69.3.43.24.61.4.15.55.32.71.74-.06.91.11.12.56.28.74.31.37.47.55.65.09.8.28-.05.66.09.86.15.48.29.68.54.22.67.42.16.47.29.68.47.29.59.5 0 .55.1.77.36.37.46.59.42.35.51.58-.07.55.02.78-.01.52.07.75.44.37.51.59-.11.54-.04.77.26.43.32.66.04.49.1.72.39.4.45.63-.42.59-.36.82.14.46.18.69.37.42.41.65.24.45.28.69.18.46.21.7-.21.51-.18.75-.14.5-.12.74.54.43.56.67-.07.49-.05.73-.42.5-.41.74.21.47.22.71.03.48.04.72-.14.48-.14.72.24.48.23.72-.32.47-.33.71.32.5.31.73.2.5.18.74-.33.46-.35.7.25.51.22.75-.26.46-.29.69-.22.46-.25.69-.17.46-.2.7-.17.46-.21.69.33.55.29.78-.28.44-.32.67.13.52.08.76-.62.35-.68.58.4.59.34.82-.63.33-.7.56.08.52.01.75.22.57.16.8-.71.28-.78.51-.19.44-.26.67.13.55.05.77-.36.38-.44.61-.18.44-.26.67.39.66.31.88-.23.43-.32.65-.2.44-.29.66-.31.39-.4.61-.24.42-.33.64-.19.44-.29.66-.2.44-.3.66.05.55-.05.77-.26.41-.37.63-.23.42-.34.64-.49.29-.6.51-.45.31-.56.52.23.66.12.87-.65.2-.77.41.34.73.23.94-.3.39-.41.6-.25.41-.36.62-.73.14-.85.34.14.63.01.84-.05.53-.17.73-.42.31-.55.51-.38.33-.5.54.03.58-.09.79-.73.11-.86.32-.27.4-.4.6.13.66 0 .86-.32.37-.45.57-.24.42-.37.62-.57.2-.7.4.18.7.05.9-.77.06-.9.26.01.59-.12.79-.4.31-.53.51-.12.5-.26.7-.52.22-.66.41.13.68-.01.88-.71.08-.85.28.1.67-.04.86-.48.24-.62.44-.07.54-.21.74-.64.12-.79.32.06.64-.09.83-.46.26-.6.46-.4.31-.54.5.06.64-.09.83-.5.23-.64.42-.2.45-.34.64-.56.18-.7.37-.09.53-.23.73-.63.13-.78.32-.15.49-.29.68.07.65-.07.84-.27.4-.41.59-.48.24-.62.43-.26.4-.4.59-.51.2-.65.39-.15.46-.28.65-.03.53-.16.72-.51.21-.63.41-.13.46-.25.66-.46.27-.58.47.03.55-.08.75-.16.44-.26.64c-.11.22-.26.41-.36.62s-.33.39-.42.61-.25.43-.33.65.04.53-.04.76-.57.33-.64.56.21.56.15.8.07.51.03.74-.6.39-.64.62.26.53.23.77-.42.45-.44.69.37.51.36.75 0 .48 0 .72-.11.49-.1.73-.2.5-.18.74.05.49.08.73-.02.5.02.74.35.43.4.67-.11.52-.06.75.68.34.74.58-.55.63-.49.86.27.43.33.66.38.4.45.63.15.46.22.69-.25.57-.18.8.22.44.29.67.3.41.37.65.14.46.22.69.16.48.23.71c.34.1.36-.08.72-.08h.72.72c.36 0 .36.17.72.17s.36.12.72.12.36-.45.72-.45.36.42.72.42.36.07.72.07.36-.09.72-.09.36-.21.72-.21.36-.03.72-.03.36.16.72.16.36-.4.72-.4.36.4.72.4.36-.37.72-.37.36.41.72.41.36.11.72.11.36-.32.72-.32.36-.23.72-.23.36.18.72.18.36.15.72.15.36.22.72.22.36-.25.72-.26.36-.04.72-.04.36-.06.71-.06.36-.18.71-.18.36.45.72.45h.72c.36 0 .36-.24.72-.24s.36-.11.72-.11.36.46.72.46.36-.39.72-.39.36.25.72.25.36-.04.72-.04.36-.42.72-.42.36.57.72.57.36-.06.72-.06.36.08.72.08.36-.5.72-.5.36.09.72.09.36.23.72.23.36-.1.72-.07.38.04.72-.08z" fill="#fff"/><g stroke-linecap="round" stroke-linejoin="round"><path d="m9.27013 2.39001c.03.24-.27.51-.24.75s-.18.49999-.16.72999.4.45.41.69-.01.48 0 .72.13.46999.14.70999-.44999.50002-.43999.74002.46999.45998.46999.69998.02.48.02.72-.34.49001-.34.73001.47.47.48.71-.43.48-.43.72-.12.48-.12.72.42.48.41.72.21.48.21.72-.46.47-.47.71.06.48.05.72.22.49.21.73-.1.48-.11.71-.06.48-.08.72-.08.47-.1.71.19.49.17.73.04.49.02.72-.41.45-.43.68.00001.48-.02999.72.04999.49.01999.72.16.5.13.74-.61999.41-.64999.65.22999.51.19999.75.25.52.22.75-.62.4-.65.64.2.51.17.75-.45.42-.49.65-.02.48-.06.72-.07.47-.11.71.11.5.07.74.23.53.19.76-.24.45-.28.68.15.51.11.75-.34.42-.38.66-.38.42-.42.66.48.6.43.84-.58.38-.64.61-.16.46-.22.7.25.56.2.8-.16.46-.22.7.03.51-.03.75-.11.48-.17.71-.38.41-.44.64-.37.41-.43.64-.04.49-.1.73-.05.49-.11.73.11.53.05.77-.12.47-.18.71-.28.43-.35.67-.09.48-.15.72-.04.49-.09.73-.45.39-.5.63-.08.48-.13.72.19.54.14.78-.01.49-.06.73-.27.44-.31.68-.22.45-.26.69-.03.49-.07.73.07.49.03.72-.53.39-.56.63.47.54.44.78-.13.46-.16.69-.36.43-.39.66.13.49.11.72.26.5.24.73-.15.46-.17.69-.6.43-.62.66.12.48.11.72.05.48.03.71.11.48.1.71.02.47.01.71.08.47.07.71-.32.47-.32.7.31.47.31.71-.29.47-.28.71.28.47.28.7-.39.48-.38.72.34.46.35.69-.2.48-.19.72.09.47.11.7.2.46.22.69c.02.24-.02.48 0 .72s-.08.49-.06.72-.18.5-.16.74.55.42.57.66-.17.5-.14.74.4.43.43.67-.44.54-.4.78.4.42.44.66.31.43.35.67-.39.55-.35.79.34.42.38.66.07.47.12.71-.32.55-.27.79.36.41.41.65-.04.5.01.73.34.41.39.64.33.41.39.64.15.45.21.68-.07.51 0 .74.32.41.38.63.15.45.22.68-.21.56-.13.79.11.47.19.69-.02.51.05.74.18.45.26.67.63.28.72.51.02.5.11.72.32.39.4.61-.03.53.06.75.17.45.26.67.14.46.24.68 0 .53.1.74.09001.49.19001.7.42999.33.52999.55.13.47.24.68.16.46.27.67.49.29.6.5-.09.59.02.8.2.44.31997.65c.12.21.26.41.38.61s.38.33.5.54.47.27.59.47-.03.58.1.78.51.23.64.42.33.35.46.54.21.42.35.62.21.43.35.62.06.55.2.73.54.18.68.37.43.26.57.44.19.45.34.63.24.41.39.59.13.52.29.69.72-.02.88.15.09.56.25.73.37.3.53.46.11.56.28.72.62.03.79.19.05.64.23.8.71-.1.89.05.27.4.45.55c.19.15.45.2.64.35s.06.71.25.86.45.22.64.36.34.36.54.5.69-.13.88 0 .32.39.52.53.45.19.65.32.23.52.43.65.42.25.62.38.43.22.64.35.48.15.68.28.46.18.66.31.36.33.56.47.22.54.42.68.35.34.55.48.71-.17.91-.03.39.29.59.43.16.59.35.74.25.46.44.61.38.28.57.44.72-.1.9.06.05.67.23.84.76-.1.93.06.17.52.34.7.23.45.39.63.54.17.7.35.18.49.33.67.36.33.51.52.07.55.21.75.33.35.46.56.42.31.54.52.43.31.55.53-.33.72-.22.94.31.37.41.6.49.31.58.53-.13.57-.05.8.07.48.14.71c.08.23.45.36.52.58s0 .5.06.73.38.39.45.62.06.48.12.71.38.4.44.64-.16.53-.11.76.07.48.12.71.27.44.31.67-.23.53-.2.76 0 .48.04.72.43.43.46.66-.37.52-.35.76.62.42.64.66-.01.49 0 .72-.53.51-.52.75.34.46.35.7.34.47.34.71-.02.48-.02.72-.06.48-.06.72-.58.46-.59.7.28.49.26.73-.19.46-.21.7.11.49.09.72.04.49.02.72.12.5.09.74-.28.45-.31.68-.11.47-.15.7.19.52.14.75-.68.36-.72.59.19.52.14.76-.36.41-.41.64.27.55.21.78.06.51 0 .74-.07.48-.13.71-.47.37-.54.6-.3.41-.37.64-.18.44-.25.67.35.61.28.84-.27.42-.34.64-.33.39-.41.61-.14.46-.22.68-.19.44-.28.66-.28.4-.37.62.28.63.19.85-.43.34-.52.56-.5.3-.59.52.14.58.05.8-.16.45-.26.67-.3.39-.4.6-.23.42-.33.64-.29.39-.4.6.16.61.05.83-.3.39-.41.6-.17.45-.28.67-.39.34-.5.55-.02.53-.14.74-.51.26-.63.47-.25.41-.37.62-.31.37-.43.58.13.63 0 .83-.23.42-.35.63-.46.28-.58.49-.62.18-.74.39.01.57-.11.77-.28.39-.41.59-.16.46-.29.66-.3.38-.43.58-.21.43-.34.63-.15.47-.29.67-.3.38-.43.58-.66.13-.79.33-.01.57-.15.77-.35.34-.48.54-.04.56-.17.75-.53.22-.66.41-.02.57-.16.76-.33.35-.47.55-.55.2-.69.39-.34.34-.48.53-.2.45-.34.64-.05.56-.19.75-.63.13-.78.32-.2.45-.34.64-.03.58-.17.77-.64.12-.78.31-.01.59-.16.78-.32.36-.46.55-.12.51-.27.7-.29.38-.43.57-.35.34-.49.53-.46.25-.6.44-.18.46-.33.65-.25.41-.39.6-.47.24-.61.43-.05.56-.2.75-.23.42-.37.61-.44.26-.58.44-.26.37-.4.56-.21.41-.34.6-.07.5-.2.69-.27.36-.39.56-.56.2-.68.4.01.53-.1.74-.6.21-.7.41c-.11.22-.03.53-.13.75s.1.57 0 .79-.22.43-.3.65-.2.44-.27.66-.08.47-.15.7-.18.44-.24.67-.39.4-.44.64.06.5.02.74-.41.44-.43.67.4.52.39.76-.11.47-.12.71.07.48.07.72-.03.48-.01.72-.22.5-.2.74.36.44.39.68.03.47.07.71.12.46.16.7.16.45.21.69-.38.57-.32.81.41.4.47.63.03.48.09.72.05.48.12.71-.08.52 0 .75.08.48.15.71.19.44.26.68.49.35.57.58-.03.51.04.74-.06.53.01.76" stroke="#000" stroke-width="2.6"/><path d="m16.5904 2.42999c.03.24.43.44003.45.68003s-.44.51998-.42.75998.19.46001.21.70001.22.45998.24.69998-.38.50002-.36.74002.5.45.51.69.08.48.09.72-.06.48-.05.72-.15.48001-.14.72001.14.48.14.72v.71998c0 .24-.42.48-.42.72s.34.48.34.72-.42.47-.43.71.49.49.48.73-.03.48-.04.72-.44.46-.45.7.16.49.15.73.24.49.23.73-.1.47-.12.71-.28.46-.3.7.11.49.09.73-.21.46-.23.7.31.51.29.75-.16.47-.19.7-.26.45-.29.69.23.51.2.75-.53.42-.56.66.2.51.17.74-.26.45-.29.68.39.54.35.77-.13.47-.17.7.1.5.07.74-.4.42-.44.66.21.52.17.76-.39.42-.43.66-.2.45-.24.69.12.51.08.74.21.52.16.76c-.04.24-.39.42-.44.66s-.25.45-.3.68.18.53.13.77-.03.49-.08.73-.13.47-.18.71-.27.44-.32.68-.35.42-.41.66.26.56.21.79-.32.43-.37.66-.03.49-.08.73-.26.44-.32.67-.1.48-.15.71-.15.46-.2.7-.17.46-.22.7.36.58.3.81-.65.35-.71.59.35.57.3.81-.24.44-.3.68-.32.43-.37.66.38.57.33.81-.05.48-.09.72-.11.47-.16.71-.7.36-.75.59-.01.49-.06.73-.13.47-.17.71.45.57.41.81-.11.47-.15.71 0 .49-.03.73-.26.45-.29.69-.07.48-.1.72-.51.42-.54.67.51.55.48.79-.52.43-.55.67.41.53.39.77-.06.47-.08.71-.17.47-.18.7.09.48.07.72-.53001.45-.54001.69 0 .48-.01.72.30001.49.29001.73-.08.48-.08.72.21.48.21.72-.1.48-.1.72.27.47.27.71-.60001.5-.59001.74.60001.45.61001.69-.02.48 0 .72.07.47.09.71-.41.51-.39.75.11.47.13.71.21.46.24.7-.29.52-.27.75.03.48.06.72.25.45.28.69.51.41.55.64-.32.53-.28.77 0 .48.05.72.45.4.5.64-.24.53-.19.77.51.38.56.61-.39.58-.34.81.3.42.35.65.3.42.36.65-.33.58-.27.81.47.37.54.6-.26.57-.19.8.5.35.57.58 0 .5.07.73.12.46.2.69.47.34.55.57-.37.64-.29.86.39.37.47.59.11.47.2.69.55.29.64.51.09.47.19.69-.19.6-.1.82.74.19.84.41.13.46.24.67.12.47.22.68.28.39.39.6.12.47.23.68.19.44.3.65-.09.59.02.8.32.37.44.57.16.46.28.67.16.47.28.67.47.27.6.47.39.31.52.51.27.39.4.59.45.27.58.46-.27.77-.13.96.59.17.73.36.02.58.16.77.5.22.65.41.51.2.66.39 0 .61.15.79.49.21.64.4.03.6.19.78.68.04.84.22.33.34.49.51-.11.75.05.92.43.26.59.43.69-.02.86.15.1.57.27.73.3.37.47.54.3.37.48.53.4.27.58.43.58.06.76.21.1.61.28.76.39.28.57.43.46.18.65.33.16.57.34.71.5.12.69.27.34.34.53.47.54.05.74.19.11.66.31.8.61-.05.8.09.28.42.48.56.5.1.7.23.19.56.39.69.56.02.75.15.51.1.7.23.1.68.3.82.37.3.56.43.68-.14.88 0 .13.62.31.76.32.35.5.5.36.29.54.44.31.35.49.5.63 0 .8.16.27.41.44.57.29.38.45.54.57.11.73.29.1.55.25.73.3.37.45.56.12.5.26.69.25.4.38.59.65.14.78.35.07.52.19.73.44.31.55.52.24.42.35.64-.08.57.02.79.58.27.68.5.02.51.1.74-.02.52.05.74.11.47.18.7.02.49.09.72.19.44.25.67.54.36.6.6-.4.58-.35.81.24.44.29.67.48.41.52.65-.56.56-.53.8.06.47.09.71.58.42.6.66-.48.52-.46.76.01.47.03.71.57.45.58.69-.12.49-.12.73.12.48.12.72.1.49.1.72-.1.48-.11.72-.54.46-.55.7.1.48.08.72.28.5.26.74.1.49.08.73-.55.42-.58.66-.14.46-.17.7-.08.47-.11.71.32.53.28.77-.31.44-.35.67-.06.48-.1.71.38.56.33.8-.06.48-.11.72-.41.41-.46.64-.28.43-.33.66-.11.47-.16.7.12.52.06.76-.44.38-.5.62-.19.44-.26.67.29.58.22.81 0 .5-.06.73-.21.44-.28.67 0 .51-.07.74-.22.44-.29.67-.58.31-.65.54-.21.44-.29.66-.01.5-.1.73-.01.51-.1.73-.57.29-.66.52-.12.47-.21.69.17.59.08.81-.24.42-.33.64-.29.4-.39.62-.11.48-.21.7-.22.43-.32.65-.49.3-.59.52-.21.43-.31.65.26.66.16.88-.52.28-.63.49-.36.35-.47.57.22.65.11.87-.3.39-.41.6-.19.45-.3.66-.07.51-.18.72-.5.27-.62.48 0 .55-.12.76-.39.33-.51.54-.29.39-.41.59-.34.35-.46.55-.19.44-.31.64-.52.23-.64.43.29.73.16.93-.44.28-.57.48-.31.36-.43.56-.53.22-.66.41.08.62-.05.81-.45.26-.59.46-.19.44-.32.64-.25.4-.38.59-.06.53-.19.72-.6.15-.74.35.05.61-.08.8-.22.42-.36.61-.32.35-.46.54-.63.12-.77.31.01.59-.13.78-.4.29-.54.47-.23.41-.37.6-.14.5-.29.69-.61.13-.76.32-.09.55-.24.73-.3.38-.45.56-.53.19-.68.38-.24.43-.39.61-.16.49-.31.68-.52.2-.67.39-.03.6-.18.78-.63.12-.78.31-.07.56-.22.75-.21.44-.36.64-.57.18-.72.37-.28.4-.42.6-.14.49-.27.7-.42.31-.55.51-.16.47-.28.68-.41.33-.53.54-.23.44-.34.65c-.11.22.26.67.16.88s-.47.32-.56.53-.47.34-.55.56-.05.51-.12.74-.1.48-.16.71.18.55.13.78-.18.45-.23.68 0 .49-.03.72-.25.45-.28.69-.22.47-.24.71.18.49.18.73-.36.48-.36.72.18.48.2.72-.18.5-.16.74.19.47.22.71.54.41.57.65-.44.56-.4.8.12.47.17.71.12.47.17.71.03.49.08.73.36.4.42.64-.12.53-.05.76.61.33.67.56-.03.5.04.73.25.42.33.65-.03.51.05.74-.1.54-.03.77.51.35.58.59" stroke="#76fb8f" stroke-width="3"/><path d="m24.5004 2.41c.03.24.23.46002.26.70002s.1.48.12.72-.62.52999-.61.76999.39.45.41.69.19.46999.21.70999-.45.49999-.44.73999.57.46001.58.70001-.57.49999-.56.73999.63.47002.64.71002-.06.48001-.05.72001 0 .47998 0 .71998-.35.48-.35.72-.25.47-.26.71.6.49.59.73.06.48.05.72-.63.46-.64.69.38.5.36.74-.25.47-.26.71-.23.46-.24.7.46.51.44.75-.31.46-.33.7.18.5.15.74-.03.48-.05.72-.26.46-.28.7.03.49 0 .72-.41.43-.44.67.54.55.51.79-.18.46-.22.7-.28.45-.32.68-.08.47-.12.71-.31.44-.34.68.19.51.15.75 0 .49-.04.72-.19.45-.23.69-.22.45-.26.68 0 .49-.03.72.24.53.19.77c-.04.24-.47.4-.52.63s.32.55.27.79-.29.43-.34.67-.18.45-.23.69.01.49-.04.73-.46.39-.52.62.14.52.09.76.12.52.07.76-.31.42-.36.65.21.54.15.78-.15.46-.2.69-.2.45-.26.68-.28.43-.33.66-.32.42-.38.65-.07.48-.13.71.26.56.21.79-.11.47-.17.7-.16.46-.21.69-.02.49-.08.72-.4.4-.45.64.1.51.05.75-.19.45-.24.68-.51.38-.56.62.55.6.5.84-.14.46-.18.7-.6.38-.64.61.39.56.35.79-.1.47-.14.7-.21.45-.25.69-.48.42-.51.65.37.54.34.77c-.03.24.02.48 0 .72s-.53.42-.55.66.23.5.21.74-.33.45-.35.69.27.5.25.74.07.48.06.72-.44.46-.45.69.55.5.55.74.04.48.04.71-.48.47-.48.71.32.48.32.72-.06.48-.06.71.13.47.13.71.02.47.03.71.04.47.04.71-.44.5-.43.74.35.46.37.7.24.46.26.7-.08.48-.06.72.04.47.06.71.14.46.16.7-.35.52-.33.76.24.45.27.69-.2.51-.17.75.16.46.2.7 0 .48.04.72.55.39.6.63.06.47.11.71-.32.54-.27.78.53.38.58.61-.44.58-.39.81.49.38.55.61-.29.56-.24.79.04.49.09.72.15.46.21.69.11.47.17.7.28.42.34.65-.03.51.03.74.11.47.18.7.43.37.5.6-.03.51.05.74.41.37.49.59.36.38.44.6-.05.52.04.75.34.38.42.6-.1.55-.01.77.01.51.11.73.23.42.32.64.07.49.17.71.57.27.67.49.39.34.49.56-.16.6-.05.82 0 .54.11.75.34.36.45.58.14.47.26.68.21.44.32.64.42.31.54.52.19.44.31.65.15.47.28.67.76.09.88.3-.09.62.04.82.22.43.35.63.23.42.37.62.52.22.66.41.29.38.43.57.25.41.39.6.18.46.33.65.27.39.42.58.47.23.62.42.18.47.34.65.15.51.31.68.63.08.79.25.09.57.25.74.53.16.69.33.13.54.3.71.24.44.41.61.48.19.66.35.56.09.74.25 0 .72.19.87.66-.04.84.11.12.62.3.76.41.26.6.4c.2.15.5.15.7.3s.58.04.78.18.16.62.36.76.35.36.56.49.39.31.59.44.72-.2.92-.06.36.34.57.47.41.27.61.41.42.26.62.39.33.39.53.53.54.08.74.22.05.8.25.94.66-.1.86.05.22.54.41.68.36.33.56.47c.19.15.44.21.62.36s.5.14.69.3.12.59.3.74.41.26.58.42.27.4.43.57.59.09.75.27.14.51.3.69.35.32.51.5.15.49.29.68.45.25.59.44.65.13.78.33.12.5.25.7-.05.59.07.8.41.31.52.52.45.3.56.52-.11.59 0 .8.12.47.21.68.21.43.29.65.12.46.2.68.15.44.23.67.48.34.55.57.2.44.26.67-.31.57-.25.8.55.36.6.59.04.48.08.72-.02.49.02.72.17.46.2.69-.04.49-.02.72.37.44.39.68-.1.49-.08.73.13.47.14.71-.3.49-.29.73.04.47.04.71.37.48.37.72-.46.47-.47.71.31.49.3.73-.36.46-.37.7-.22.46-.24.7.49.52.47.76-.5.43-.53.67.4.53.37.77-.22.45-.25.69-.39.42-.43.66.32.54.28.77-.45.4-.5.64-.09.47-.14.7.13.51.08.75-.39.4-.44.64-.12.46-.18.69.1.51.04.74.3.57.24.8-.53.35-.59.58-.08.47-.15.7.07.52 0 .75-.28.41-.35.64-.3.41-.38.63.11.54.03.76-.56.32-.63.54-.08.48-.16.7-.12.46-.2.69-.04.49-.12.72-.02.5-.1.73 0 .51-.09.74-.43.35-.52.57-.14.46-.23.68-.27.41-.36.63 0 .52-.1.74-.49.31-.59.53-.07.5-.16.71-.18.44-.28.66-.21.43-.31.65-.39.34-.5.56 0 .53-.11.74-.38.35-.48.56.18.63.08.84-.19.44-.3.66-.23.42-.34.63-.27.4-.38.61-.47.29-.59.5-.44.31-.56.51-.08.5-.2.71-.14.47-.25.68-.14.47-.26.68-.23.42-.35.62-.59.21-.71.41.32.75.2.95-.82.06-.94.26.22.69.09.88-.26.41-.39.61-.24.43-.37.63-.36.34-.5.54-.6.18-.73.38-.06.54-.2.74-.2.45-.34.65-.34.35-.48.55-.13.5-.28.7-.57.18-.71.38-.24.42-.38.62-.39.31-.54.5-.36.33-.51.52-.21.45-.35.64-.05.57-.2.76-.16.49-.31.68-.37.32-.52.51-.44.26-.59.45-.14.5-.29.69-.31.37-.46.56-.41.29-.56.48-.54.19-.69.38-.32.36-.47.55-.27.41-.41.6c-.15.19-.29.39-.44.59s-.07.55-.22.75-.28.4-.42.59-.25.41-.39.61-.53.22-.67.43-.12.51-.25.71-.42.31-.55.52-.25.42-.38.63.12.63 0 .85-.12.48-.23.7-.47.3-.58.52-.04.52-.14.74-.31.39-.4.62-.23.43-.32.66-.1.48-.17.71-.23.43-.3.67-.11.47-.17.71-.43.41-.48.65.12.5.09.74.23.49.21.73-.44.44-.45.67.37.48.37.71-.42.48-.41.71.27.46.29.69 0 .47.02.7-.09.49-.06.72-.01.48.03.71.4.41.44.64 0 .48.04.71-.21.53-.15.76.35.4.41.63.44.37.5.6-.29.57-.22.79.17.44.23.67-.06.51 0 .74.6.31.67.53.26.41.33.63-.39.61-.32.84.68.27.75.49" stroke="#76fb8f" stroke-width="3"/><path d="m32.32 2.39999c.03.24-.13.50001-.11.73001s.27.46002.29.70002-.48.51998-.46.75998.44.45.46.69-.37.49999-.36.73999.47.45.48.69-.33.49001-.32.73001.22.46999.22.70999.07.48001.07.72001-.14.48-.13.72.33.48.33.72.1.48.1.72-.67.47-.67.71.11.48.1.72-.02.48-.02.72.02.48.01.72.01.48 0 .72.08.48.07.72.18.49.16.73-.55.44-.57.68.44.51.42.75 0 .48-.02.72.01.48 0 .72-.4.44-.42.68.36.52.33.76-.03.48-.05.72-.28.45-.31.69-.08.47-.11.71.18.51.15.74-.11.47-.15.71-.43.42-.46.66-.22.45-.25.69.48.56.45.79-.12.47-.16.7 0 .49-.05.72-.05.48-.09.72-.14.46-.18.7-.12.46-.17.7-.36.42-.4.65c-.04.24.03.5-.02.74s-.31.44-.36.67.19.54.13.78.05.51 0 .75-.4.41-.46.65-.44.4-.49.63.4.6.34.84-.22.45-.28.69.11.53.05.77-.62.34-.68.58-.21.45-.27.69-.21.45-.27.68-.1.48-.16.71.22.56.16.8-.09.48-.15.72.14.54.08.77-.63.34-.69.58.07.52 0 .76-.29.43-.35.67.3.57.25.81-.13.47-.18.71-.26.44-.31.68.21.53.16.77-.49.41-.53.65.27.52.23.75-.58.38-.61.62.08.49.05.72-.23.45-.26.68-.05.47-.07.7.47.53.45.76-.02.47-.04.7-.71.41-.73.64.13.49.12.72.27.49.26.72-.33.45-.34.69 0 .47-.02.71.42.48.41.72-.11.47-.12.7-.42.46-.42.7.36.47.36.71-.38.47-.38.71.44.46.45.7-.15.47-.15.71.3.46.31.69-.64.5-.63.74.27.46.28.69.07.47.08.7c.02.24.08.47.1.71s-.07.49-.05.72.11.47.14.71-.09.49-.06.73-.02.49 0 .72.1.47.13.71.6.4.63.63-.39.54-.35.78.16.46.2.69.22.45.26.68-.14.51-.09.75.34.42.38.66-.33.56-.28.79.74.33.8.56.02.48.07.71.18.45.23.68-.41.59-.35.82.32.41.38.64.41.38.47.61-.46.63-.4.86.35.4.42.63.29.41.36.64.2.44.27.66-.17.56-.09.79.33.39.41.62.27.41.35.63.04.5.12.72.44.34.53.56 0 .51.09.73 0 .52.09.74.4.35.5.57-.02.53.07.75.33.37.44.59.22.43.32.64.44.32.54.53-.08.57.03.78.02.53.13.74.29.39.41.6.58.23.69.43-.1.61.02.81.58.21.7.41 0 .55.13.75.19.44.32.63.49.24.62.44-.06.61.08.8.35.33.49.52.62.13.75.32-.2.74-.06.93.83-.04.97.14.3.36.45.54-.17.75-.02.93.75-.03.91.15.3.35.46.53-.12.75.04.92.63.05.79.22-.02.68.15.84.68-.02.85.14.4.25.57.41.29.38.46.53.04.67.22.82.37.3.55.45c.19.15.49.17.68.32s.36.32.56.47.53.1.73.24.52.1.72.24.15.61.35.75.29.43.49.57.46.18.66.32.6-.03.8.1.34.36.54.5.3.42.51.55.58 0 .78.14.42.25.62.38.12.69.32.83.48.15.68.29.5.13.7.26.33.37.53.51.31.39.5.54.64-.05.83.1.41.27.6.42.13.61.32.76.35.33.53.49.56.1.74.26.06.64.24.81.46.22.63.39.38.3.55.48.42.27.58.45.27.41.42.6.25.42.39.61.22.43.36.63.46.27.59.48.16.47.29.68.14.47.26.68.1.48.21.7.27.39.37.62.49.31.58.54.37.38.45.61-.16.57-.09.81c.08.23.31.41.38.64s-.04.51.03.75.34.41.4.64.01.49.07.73.29.43.34.67.03.49.07.73-.42.56-.38.8.55.4.58.64.21.46.24.7-.13.5-.11.74-.07.49-.05.73.04.48.05.72-.02.48-.01.72-.23.48-.22.73.13.47.13.72.37.48.37.72-.35.47-.36.71.15.49.14.73-.27.46-.29.7.35.51.33.75-.05.48-.07.72-.52.43-.55.67.09.49.06.73-.21.45-.24.69.56.57.52.81-.64.38-.68.62.01.49-.03.72.17.52.13.76-.1.47-.15.71.03.5-.02.74-.59.36-.65.59.33.58.27.81-.58.35-.64.58.03.5-.03.74.1.53.04.76-.39.39-.46.62.19.56.12.79-.65.3-.73.53.08.53 0 .76-.05.49-.12.72-.19.44-.27.67.16.57.08.8-.15.46-.24.69-.38.37-.47.6-.15.46-.24.68-.46.33-.56.56-.11.48-.2.7-.15.46-.24.68-.18.45-.28.67-.31.39-.41.61-.07.5-.17.72-.23.43-.33.64.14.6.04.82-.58.26-.69.47.05.56-.06.78-.13.48-.24.69-.29.4-.4.61-.54.27-.65.48-.08.5-.2.71-.31.38-.42.59-.08.51-.19.72-.44.31-.56.52-.25.41-.37.62-.18.45-.3.66-.4.33-.52.53.03.58-.09.78-.09.51-.21.72-.56.22-.68.43-.19.45-.32.65-.39.32-.51.52.17.68.04.88-.31.38-.44.58-.39.33-.52.52-.22.44-.35.63-.6.18-.73.37.1.66-.03.85c-.14.2-.45.28-.58.47-.14.2-.1.53-.24.72-.15.2-.54.21-.68.39-.15.2-.45.27-.59.45-.15.2-.35.35-.48.52s-.07.53-.23.72c-.14.18-.14.48-.3.67-.14.18-.51.19-.66.38s-.43.25-.58.44-.32.34-.47.53.07.66-.08.84-.24.4-.39.59-.4.28-.55.46-.44.25-.59.44-.4.29-.55.47-.28.38-.42.57.21.75.06.94-.38.3-.52.49-.66.1-.8.29-.29.38-.43.57.12.67-.02.86-.2.44-.33.64-.77.06-.9.25.14.66.02.86c-.13.2-.13.48-.25.67-.13.21-.42.3-.53.5-.12.21-.09.49-.19.68-.11.22-.18.44-.28.66s-.51.3-.61.51-.23.43-.32.65.12.55.04.78-.39.38-.46.61-.03.49-.09.72.13.52.08.75-.67.37-.71.61.32.53.29.77-.37.45-.38.69.01.49 0 .73.36.48.37.72-.24.49-.22.73-.06.49-.04.73.42.44.45.68-.31.52-.27.76.52.4.56.63-.19.52-.14.76-.07.51-.01.74.05.48.11.72.43.38.49.62.3.41.36.64-.19.55-.12.78-.06.51 0 .75.31.41.38.64-.06.52 0 .76.69.29.76.52-.3.61-.23.84" stroke="#76fb8f" stroke-width="3"/><path d="m40.17 2.39001c.03.24.03.48001.05.72001s-.1.48998-.08.72998-.03.48-.01.72.11.46999.13.70999-.18.49001-.17.73001-.06.48-.05.72.21.46999.21.70999.28.47002.29.71002-.53.48999-.52.72999.11.48002.11.71002.38.47998.38.71998-.29.48-.29.72.27.48.26.72-.49.47-.5.71.19.48.19.72-.27.47-.27.71.3.49.29.73.07.48.06.72-.37.46-.38.7.12.49.1.73.28.5.26.74 0 .48-.03.72-.19.47-.21.7.12.49.1.73-.65.42-.67.65.31.51.29.75-.11.47-.14.71-.01.48-.04.72-.4.43-.43.67.27.52.24.76.04.49.01.73.01.49-.02.72-.27.44-.31.68.05.49.02.73-.33.43-.37.67-.15.46-.19.7.04.49 0 .73-.25.44-.29.68-.02.48-.07.71c-.04.24.05.51 0 .75s-.09.48-.14.72 0 .5-.05.74-.35.42-.4.66.26.56.21.8-.64.35-.7.58.17.54.11.78-.41.4-.47.64.19.55.13.79-.02.5-.08.74-.06.49-.12.72-.23.44-.29.68-.29.43-.36.66.06.52 0 .75-.32.42-.38.66.19.55.13.79-.48.38-.54.62-.1.48-.16.71.05.51 0 .75.09.52.04.76-.44.4-.49.64-.18.46-.22.7.09.52.05.76.25.54.21.78-.34.42-.38.65 0 .47-.03.71-.11.46-.14.69-.02.47-.05.7-.09.46-.11.7-.49.42-.51.65.22.5.2.73-.14.46-.16.7.43.5.41.74-.03.47-.04.7-.29.45-.3.69-.38.45-.39.69.5.49.5.72-.12.47-.13.7-.2.47-.2.7.2.47.2.71-.12.47-.12.71.21.47.22.7-.51.49-.5.72.04.47.05.71.61.44.62.68-.02.47 0 .7-.26.49-.24.72c.02.24.4.45.42.68s-.35.51-.33.75.02.48.04.72.3.45.32.68-.3.52-.27.75.03.48.06.72.04.48.08.71.47.41.5.65-.37.54-.33.78.09.47.13.71.32.43.36.66.41.41.46.64 0 .49.05.72-.35.56-.3.8.54.37.6.6.04.48.1.71.32.41.38.64.06.48.12.71-.21.55-.14.78.24.43.3.66-.13.54-.06.77.27.42.34.65.26.42.34.65.22.43.29.66-.17.56-.09.79.41.36.49.59.33.39.41.61-.18.58-.09.8.48.32.57.55-.15.58-.06.8.18.45.28.67.35.37.45.59.43.33.53.54.34.36.44.58-.15.6-.04.82.18.45.28.66.06.51.17.72.46.3.57.51.16.46.28.66.05.53.17.73.57.22.69.42.16.45.29.65.23.41.36.61.29.37.42.57.32.35.45.55.25.4.39.59.11.5.25.69.46.24.6.43.02.58.16.77.28.38.43.56.39.29.54.47.45.24.6.41.24.41.4.59.21.45.37.62.6.08.77.25.46.21.62.37.17.49.34.65.16.52.33.68.24.44.41.6.57.07.74.23.29.38.47.53c.19.15.62 0 .81.15s.1.66.29.8.44.21.64.36.31.4.5.54.32.4.51.53.51.12.71.25.37.32.57.45.63-.08.83.06.24.5.45.64.46.18.66.32.32.39.52.52.45.19.66.32.24.5.44.64.76-.25.96-.12.34.36.54.5.06.75.26.89.66-.09.86.05.26.46.45.61.61 0 .8.16.36.33.55.48.28.42.46.58.37.32.55.48.52.16.69.33.14.56.31.73.5.2.66.37.16.51.32.7.22.44.37.63.63.12.77.32.26.42.4.62.27.41.4.62.15.48.28.69.45.31.57.52.1.5.21.72-.22.64-.12.86.58.27.67.49.16.46.24.69.19.45.27.68-.05.52.02.75.21.44.28.67.14.46.2.69.34.42.39.65-.14.53-.09.76.05.48.09.72-.15.51-.11.75.46.41.49.65-.29.52-.26.76.67.41.69.65-.01.49 0 .73.09.48.1.72-.63.51-.62.75.22.47.22.71.35.48.35.72.09.49.08.73-.42.47-.42.71.39.5.38.74-.5.45-.52.69.25.5.23.74-.32.45-.35.69.13.5.11.74.26.52.23.76-.35.44-.38.68.18.52.14.75-.08.48-.12.72-.52.4-.56.63-.24.44-.28.68.28.55.23.78-.22.44-.28.68.16.53.11.77-.36.41-.41.64.09.52.03.75-.66.32-.72.55.11.53.05.76-.03.49-.1.72-.4.38-.47.61-.13.46-.21.69-.15.46-.23.68-.2.44-.28.67.1.54.02.77-.13.47-.21.69-.51.32-.6.55.34.65.25.87-.4.36-.49.59-.02.51-.11.74.02.53-.08.75-.41.35-.51.57-.07.5-.16.72-.74.2-.83.42-.1.48-.2.7.17.61.07.83-.34.38-.44.59-.24.42-.35.64-.32.38-.43.59-.4.34-.51.55.27.68.16.89-.62.22-.73.44-.32.37-.43.59-.19.44-.31.65-.18.45-.3.66-.3.38-.42.59-.23.42-.34.63-.1.5-.22.7-.21.43-.33.64-.39.33-.51.53-.07.52-.19.72.08.61-.05.81-.42.31-.54.51-.34.35-.47.55-.03.56-.15.76-.39.33-.52.53-.47.27-.6.47-.18.46-.31.66-.03.56-.16.76-.73.08-.87.27c-.14.2.14.69 0 .88-.14.2-.34.36-.48.55-.15.2-.27.41-.4.6-.15.2-.34.36-.48.54-.15.2-.59.17-.72.34s-.26.38-.41.58c-.14.18-.03.57-.18.76-.14.18-.14.48-.3.67s-.8-.04-.95.14-.24.41-.39.6.06.65-.09.84-.68.05-.83.24-.01.59-.16.77-.22.42-.37.61-.3.36-.44.55-.31.35-.46.54-.1.52-.24.71-.43.27-.57.46-.23.42-.37.61-.7.08-.84.27-.13.49-.26.68-.15.48-.29.67-.31.37-.44.57-.36.34-.49.53c-.13.2-.27.4-.39.59-.13.21-.18.45-.29.65-.12.21.07.58-.04.77-.11.22-.17.44-.28.66s-.37.36-.46.58-.29.4-.37.63-.4.38-.48.6.28.6.21.83-.21.44-.27.67-.34.42-.39.65-.34.44-.38.68.15.52.12.76-.19.48-.21.72.07.49.06.73.02.49.02.73-.19.5-.18.74.47.45.49.69-.06.49-.03.73.23.45.27.69.22.44.27.68-.5.59-.46.82.35.42.4.66.38.4.44.64-.07.51 0 .74.2.44.27.67.28.42.35.65-.33.59-.26.82.21.44.28.67.58.32.66.56.06.48.13.72-.04.52.03.76" stroke="#000" stroke-width="2.6"/></g></svg>