<svg fill="none" height="146" viewBox="0 0 142 146" width="142" xmlns="http://www.w3.org/2000/svg"><path d="m1.93018 2.48c.24 0 .47002-.34.71002-.34s.46999.28001.70999.28001.46999.07999.70999.08999.49-.64.72-.64.46999.14.70999.15.46002.43.70002.44.49001-.36999.73001-.35999.46999.15999.70999.16999.46.38.69.39.48998-.23.72998-.21.47002.03.71002.05c.24001.02.48001-.02.72001 0s.49-.12.73-.1.43.46.67.49.49-.09.72-.06.5-.13.73-.1.46.19.69.22.53-.31999.76-.27999.44.28999.68.32999.46.16.69.2.42.36001.65.40001.56-.37001.79-.32001.38.53.61.58.45.14001.68.20001.51-.08001.74-.02001.55-.21.78-.14.34.54.57.61.47.08.7.15.44.18001.66.26001.43.19999.66.27999.54-.09.76 0 .45.16.67.25.47.12.69.21.31.46.53.56.59-.11.8 0 .24.57.45.68.37.3.57.42.42.2.62.33.65-.13.84 0 .36.33.55.47.27.43.46.57.5.14.68.29.41.26.59.42.33.36001.5.52001c.17.15999.46.21999.63.38999s.12.54.28.72.39.29.55.47.34.34.49.53.35.34.49.53-.13.66 0 .86.26.39.38.59.56.22.68.43.25.41.36.62.17.45.27.67-.26.63-.16.85c.09.22.67.24.76.46s-.17.57-.08.8.57.3.65.53-.11.54-.03.76.41.37.48.6.19.44.25.67.07.48.14.71-.27.56-.21.79-.04.5.02.73.58.35.64.58-.11.51-.06.75.02.48.07.71.53.38.57.61.04.48.09.71.02.48.06.72-.18.52-.14.75.12.46.16.7.06.47.1.71.37.43.4.66.19.46.22.69-.27.52-.24.76-.23.51-.2.75.36.44.39.67.23.45.26.69-.17.5-.14.74.24.45.27.69-.28.51-.26.75.27.45.3.69.22.46.24.7-.39.52-.37.76.25.46.27.7-.09.49-.07.73.23.46.25.7.05.48.06.71.24.46.26.7-.42.51-.4.75.15.47.17.7-.22.5-.2.74.15.47.17.71.29.46.31.69.07.47.09.71.31.45.33.69-.64.52-.62.76.44.44.47.67-.32.51-.29.75.52.41.55.65-.14.5-.1.73.4.41.44.65-.41.56-.36.79.24.44.29.67.03.48.09.71.39.39.45.62-.21.55-.15.78.33.4.4.63.23.42.31.65-.11.54-.03.76.35.38.43.6.26.41.35.63.35.37.44.58-.2.61-.1.82.48.3.59.51.21.42.32.63-.12.61 0 .81.29.39.41.59.19.45.32.65.57.19.7.39.02.57.16.76.26.4.41.59.58.14.74.32-.02.66.14.83.76-.07.93.1.09.59.26.75.57.06.75.22.23.45.42.6.23.48.43.62.6-.05.8.08.34.34.54.46.45.15.66.26.44.15.65.25.31.47.53.55.53-.09.76-.02.4.29.63.35.41.33.64.38c.24.05.52-.13.76-.09s.43.42.67.45.53-.51.78-.49.47.15.71.16.48.24.72.23.49.03.73.02.49.04.73.01.44-.39.68-.43.55.38.79.34.43-.37.67-.41.52.13.76.07.49-.07.72-.12.35-.59.58-.65.48-.07.71-.14.44-.2.67-.27.6.28.83.21.42-.27.65-.35.34-.49.57-.58.61.27.84.18.45-.19.68-.27.34-.47.57-.56.56.1.79 0 .31-.54.54-.63.59.18.82.09.42-.25.64-.34.33-.47.55-.55.5-.02.72-.11.55.13.78.05.29-.59.51-.67.43-.23.65-.3.58.21.8.14.52.06.74-.02.26-.73.49-.8.47-.1.7-.17.48-.06.71-.13.56.24.79.17.4-.32.63-.39.54.17.77.11.43-.22.66-.27.45-.15.68-.2.35-.59.59-.64.56.36.8.31.4-.45.63-.49.57.45.8.4.4-.46.64-.5.52.29.76.25.45-.15.69-.18.43-.39.67-.41.47-.12.7-.15.48-.03.71-.05.48-.07.71-.08.49.27.73.27.47-.2.71-.21.48.2.71.2.48-.13.71-.12.48-.12.72-.11.48.04.71.06.47.09.71.11.42.45.66.48.52-.28.75-.24.45.18.69.22.47.08.7.12.51-.1.74-.05.3998.38.6298.44.52-.09.75-.02.49.04.72.11.38.36.61.44.42.25.65.33.36.39.58.48.44.18.66.27.68-.34.9-.24.33.43.55.53.54 0 .76.11.18.69.4.81.43.21.64.33.64-.15.85-.02.41.27.61.4.27.48.47.61.57.01.77.15.25.5.44.64.49.15.68.29.28.44.47.59.53.11.72.26.07.68.26.83.53.11.71.27.42.25.6.41.49.18.66.35.13.57.31.73.45.22.63.39.22.46.39.63.47.22.64.39.42.28.58.45.15.52.31.7.64.09.79.28.22.45.38.64.35.35.5.54-.08.67.07.86.47.25.61.45.14.49.27.69.17.47.3.67.49.26.62.46.21.44.33.65.42.32.54.53.15.47.26.69-.07.58.04.79.25.41.35.63.25.41.35.63.42.35.51.57-.06.54.02.77.32.4.4.62.27.42.35.65.34.41.41.64-.28.58-.22.81.37.41.43.64-.3.56-.25.79 0 .48.04.72.4.42.44.66.02.48.05.72-.1.49-.09.73.03.48.04.72.21.47.21.72.2.49.19.73-.11.48-.13.73-.24.47-.26.71-.08.47-.11.71.08.49.04.73-.13.47-.17.7.32.56.26.8-.14.47-.2.71-.41.39-.48.63-.14.46-.22.68-.23.42-.32.65.1.56 0 .78-.28.41-.38.62-.09.5-.2.72-.75.12-.87.33.29.74.16.95-.5.25-.64.44-.31.37-.45.56-.04.58-.19.77-.52.2-.68.39-.25.42-.41.6-.37.32-.53.49-.34.34-.51.51-.42.26-.59.43-.14.56-.31.72-.41.27-.59.43-.45.22-.63.38-.47.18-.66.33-.31.38-.5.53-.33.37-.52.51-.41.25-.61.39-.42.24-.62.37-.5.1-.71.22-.36.33-.57.45-.39.29-.6.4-.44.19-.66.3-.43.22-.65.32-.5.06-.72.15-.32.52-.54.6-.55-.09-.77-.02-.49.02-.72.09-.34.6-.57.66-.54-.18-.78-.13-.46.19-.7.22-.53-.4-.77-.37-.44.54-.68.55-.49-.07-.73-.08-.46-.38-.7-.4-.51.31-.74.28-.51.09-.75.04-.46-.19-.69-.25-.54.06-.77-.02-.4498-.24-.6698-.34-.31-.48-.52-.59c-.21-.12-.4-.27-.6-.41s-.46-.19-.65-.35-.53-.16-.7-.33-.2-.49-.36-.68-.05-.56-.19-.76-.75-.11-.86-.32-.03-.55-.13-.77-.28-.42-.36-.65.03-.53-.03-.76-.45-.41-.49-.65.46-.55.44-.79-.34-.47-.34-.71-.16-.51-.13-.75.54-.41.59-.65 0-.49.06-.72.11-.47.21-.69.15-.46.26-.68.19-.46.33-.66.35-.35.5-.53.56-.11.74-.28.24-.41.44-.57.29-.4.49-.54.21-.61.42-.73.67.27.9.17.3798-.32.6098-.4.53.11.77.04.39-.36.63-.41.47-.07.71-.12.43-.38.68-.41.51.26.76.24c.24-.02.47-.14.71-.14s.48-.32.72-.32.47.44.71.45.49-.21.73-.18.51-.14.74-.1.39.57.63.62.52-.17.75-.11.55-.18.78-.12.29.68.52.75.41.24.63.33.55-.09.77 0 .57-.08.78.03.36.36.57.48.22.57.43.69.36.3.57.43.39.26.58.39.63-.07.82.07.25.45.44.6.56.08.74.23.16.54.33.7.59.07.76.23.08.6.25.77.33.34.49.52.18.47.34.65.74 0 .89.18.07.56.22.75.44.26.58.46.34.35.48.54 0 .58.14.78.56.2.69.4.17.46.3.66-.03.58.1.78.39.32.51.52.37.34.48.55.45.3.56.51.06.51.17.73-.13.6-.02.82.37.34.48.56.48.3.58.52.18.44.28.66-.21.61-.11.83.76.2.85.42-.43.69-.34.91.65.26.74.48.29.41.37.63-.36.64-.28.87.62.3.7.52-.25.59-.18.82.26.42.33.65.21.44.28.67-.2.55-.14.78.5.36.57.59.28.43.33.66.11.47.17.7.16.46.21.69-.46.59-.41.82.14.46.19.69.06.47.11.71.06.47.1.71.1.47.14.7.31.44.34.67-.22.51-.19.75.51.43.53.67-.11.49-.09.73.36.46.37.69-.03.49-.02.72-.14.49-.14.73.05.48.05.71-.12.48-.13.71" stroke="#000" stroke-linecap="round" stroke-linejoin="round" stroke-width="2.6"/><path d="m138.69 143.74c-.35 0-.35.61-.71.61s-.35-.29-.71-.29-.35-.08-.71-.08-.35.4-.71.4-.35-.3-.71-.3-.35.03-.71.03-.35-.06-.71-.06-.35.3-.7.3-.35-.55-.7-.55-.35.48-.71.48-.35.12-.71.12-.36-.27-.71-.27-.35-.31-.71-.31-.35.61-.71.61-.35-.14-.71-.14-.36-.39-.71-.39-.35-.06-.71-.06-.35-.03-.71-.03-.36.43-.71.43-.36-.29-.71-.29-.36.09-.71.09-.35-.31-.71-.31-.36.63-.71.63-.36-.4-.71-.4-.36-.18-.72-.18-.36.34-.72.34c-.22 0-.55.2-.74.12s-.36-.39-.51-.54-.32-.37-.41-.57-.08-.47-.08-.69c0-.36.44-.36.44-.73s-.64-.37-.64-.73.64-.36.64-.73.02-.36.02-.73-.04-.36-.04-.73 0-.37 0-.73-.3-.37-.3-.73-.21-.37-.21-.73.22-.37.22-.73c0-.26-.23-.55-.18-.79s.53-.37.62-.6.29-.36.42-.57.05-.57.23-.75.44-.24.65-.38.41-.24.65-.33.39-.44.64-.49.52-.2.78-.2h.73.73c.36 0 .37.01.73.01s.37.25.74.25.37.01.74.01.37.34.74.34.37-.55.74-.55.37-.02.74-.02.37-.04.74-.04.37.38.74.38.37.12.74.12.37.01.74.01.37-.3.74-.3.37-.05.74-.05.37.19.74.19.37.21.74.21.37-.44.74-.44.37.41.74.41.37-.07.74-.07c.26 0 .48-.05.73 0s.45.17.68.26.62-.09.83.05.28.47.46.65.3.39.44.6.2.44.3.67.18.44.23.69.05.47.05.73c0 .36-.19.36-.19.73s.06.37.06.73.46.36.46.73.15.36.15.73-.49.36-.49.73.06.37.06.73-.2.37-.2.73.5.37.5.73-.03.37-.03.73c0 .22-.12.48-.2.67s-.26.39-.41.54-.26.51-.46.59-.53-.51-.75-.51z" fill="#fff"/><path d="m138.69 143.74c-.35 0-.35.61-.71.61s-.35-.29-.71-.29-.35-.08-.71-.08-.35.4-.71.4-.35-.3-.71-.3-.35.03-.71.03-.35-.06-.71-.06-.35.3-.7.3-.35-.55-.7-.55-.35.48-.71.48-.35.12-.71.12-.36-.27-.71-.27-.35-.31-.71-.31-.35.61-.71.61-.35-.14-.71-.14-.36-.39-.71-.39-.35-.06-.71-.06-.35-.03-.71-.03-.36.43-.71.43-.36-.29-.71-.29-.36.09-.71.09-.35-.31-.71-.31-.36.63-.71.63-.36-.4-.71-.4-.36-.18-.72-.18-.36.34-.72.34c-.22 0-.55.2-.74.12s-.36-.39-.51-.54-.32-.37-.41-.57-.08-.47-.08-.69c0-.36.44-.36.44-.73s-.64-.37-.64-.73.64-.36.64-.73.02-.36.02-.73-.04-.36-.04-.73 0-.37 0-.73-.3-.37-.3-.73-.21-.37-.21-.73.22-.37.22-.73c0-.26-.23-.55-.18-.79s.53-.37.62-.6.29-.36.42-.57.05-.57.23-.75.44-.24.65-.38.41-.24.65-.33.39-.44.64-.49.52-.2.78-.2h.73.73c.36 0 .37.01.73.01s.37.25.74.25.37.01.74.01.37.34.74.34.37-.55.74-.55.37-.02.74-.02.37-.04.74-.04.37.38.74.38.37.12.74.12.37.01.74.01.37-.3.74-.3.37-.05.74-.05.37.19.74.19.37.21.74.21.37-.44.74-.44.37.41.74.41.37-.07.74-.07c.26 0 .48-.05.73 0s.45.17.68.26.62-.09.83.05.28.47.46.65.3.39.44.6.2.44.3.67.18.44.23.69.05.47.05.73c0 .36-.19.36-.19.73s.06.37.06.73.46.36.46.73.15.36.15.73-.49.36-.49.73.06.37.06.73-.2.37-.2.73.5.37.5.73-.03.37-.03.73c0 .22-.12.48-.2.67s-.26.39-.41.54-.26.51-.46.59-.53-.51-.75-.51z" stroke="#000" stroke-linecap="round" stroke-linejoin="round" stroke-width="2.6"/></svg>