<svg fill="none" height="66" viewBox="0 0 101 66" width="101" xmlns="http://www.w3.org/2000/svg"><path d="m1.88037 16.43v.72c0 .24-.06006.48-.06006.72s.02003.48.03003.72.04004.48.04004.72.34999.47.35999.71-.07006.48-.06006.72.10011.47.11011.71-.10009.48-.09009.72.02003.48.03003.72 0 .48 0 .72-.03002.48-.02002.72.11.47.13.71.39004.45.41004.69-.55003.53-.53003.77.39003.45.41003.69-.23996.51-.20996.75.09.48.12.71.22.46.25.7.39994.43.43994.66-.32003.54-.28003.77.14005.47.18005.7.45.4.5.64-.11006.51-.06006.74.04999.48.10999.71.1701.45.2301.69-.11005.53-.05005.76.20002.45.27002.68.27998.42.34998.65.21004.44.29004.66-.30998.63-.21998.85.72995.23.81995.45-.02004.53.07996.75.27.4.38.62-.13001.61-.01001.82.56007.24.69007.44-.09997.64.04003.84.42995.3.56995.49.19998.47.34998.65.45999.25.61999.42.22002.47.39002.63.63006.02.81006.17c.19.15.44989.19.63989.33.18999.14.21999.51.40999.64s.3501.35.5501.47.5.09.71.2.31.44.52.55.46.15.68.24.4499.16.6699.25.52-.03.74.04.39.36.61.42.54-.2.77-.15.4301.24.6601.29.4.53.63.57.54-.5.78-.47.4299.59.6699.6.5-.39.73-.38.4801.2.7101.19.48.05.72.04.4499-.31.6899-.33.4801.06.7201.03.4199-.35.6599-.39.5001.11.7301.06.5.06.73 0 .37-.46.6-.52.4799-.03.7099-.1.4801-.05.7101-.12.47-.08.7-.17.53.06.76-.02.27-.6.49-.69.5099 0 .7299-.1.39-.29.6-.39.66.26.88.15.2201-.61.4301-.72.54-.02.74-.14.21-.58.41-.7.4499-.18.6499-.31.5301-.06.7301-.19.4499-.19.6499-.33.22-.5.41-.65.2401-.47.4201-.61.5199-.11.6999-.27.2801-.4.4601-.56.26-.42.44-.59.47-.2.65-.37.36-.32.53-.49.6299-.05.7999-.22.18-.5.35-.68.5001-.2.6601-.38-.0601-.71.0999-.89.6801-.04.8401-.23-.04-.68.11-.86.7699.02.9299-.17.1301-.53.2801-.71.4199-.29.5699-.48.38-.32.53-.51.0301-.59.1801-.78.49-.24.64-.43-.04-.63.1-.83.24-.42.38-.62.24-.42.38-.62.7799-.04.9199-.24-.25-.77-.11-.96.75-.07.89-.27.0501-.55.1901-.75.0099-.58.1499-.78.6601-.14.8001-.34 0-.57.14-.78.39-.32.53-.52.5-.25.64-.45.1499-.48.2799-.68.24-.42.37-.63.0501-.54.1801-.75.6-.19.73-.39.0699-.53.1999-.74.2401-.42.3701-.63.09-.52.23-.72.62-.18.75-.38.33-.36.46-.57-.24-.74-.11-.94.29-.39.42-.6.6-.18.74-.38.22-.44.35-.64.24-.42.37-.63.0399-.56.1799-.76.4101-.3.5501-.5c.13-.19.2099-.43.3499-.62s.1601-.47.3001-.66.75-.04.89-.23-.1101-.67.0299-.86.61-.13.76-.31.35-.32.49-.51.12-.5.27-.69.2701-.39.4201-.57.23-.43.38-.6.47-.21.63-.39 0-.64.15-.82.7.00002.86-.16998.0299-.63002.1899-.80002.43-.24.6-.41.5401-.12.7101-.28.3799-.28001.5499-.44001.1301-.55999.3101-.70999.56-.07.74-.22.1699-.54.3499-.69.4701-.15999.6501-.29999.33-.34.53-.47.29-.41001.49-.54001.4899-.1.6899-.22.4401-.17.6501-.28.3699-.3.5799-.41.5301.02999.7401-.07001.27-.58999.49-.67999.48-.11998.71-.19998.5-.03001.74-.10001.37-.49.61-.56.58.33.82.28.4199-.39002.6599-.43002.52.17001.76.14001.49.12001.73.10001.4601-.44.7101-.44.5-.09.74-.09.47.36998.71.38998.4799.01001.7199.04001.53-.22001.77-.17001.4301.34001.6701.39001.5599-.18999.7899-.11999.4401.24999.6701.32999.4.32001.63.42001.4899.09999.7099.20999.5101.09.7301.22.4599.22001.6599.35001.2601.48.4601.63.54.12998.72.28998.31.40001.49.57001.0099.65999.1799.83999c.16.18.4501.23001.6001.41001s.1599.45999.2999.64999.1901.42003.3201.62003.23.39997.34.59997.7499.14001.8499.35001-.0499.54999.0501.76999.45.33003.53.56001c.08.23-.36.63-.28.85s.2.42.27.65.26.41.32.65.37.41.42.64.0299.48.0699.72.06.47.09.71.0401.48.0601.71-.11.48-.09.72.2799.47.2899.7.0601.48.0501.72-.06.48-.07.72-.4601.45-.4701.69.0401.47.0201.71-.2.45-.23.68-.06.46-.1.7.17.51.13.74-.2701.43-.3201.66-.0499.47-.0999.7-.06.47-.12.7.11.53.04.75-.45.35-.52.58-.32.38-.4.6.09.54 0 .76-.2101.42-.3001.64c-.1.22-.37.35-.48.57s.34.7.23.91-.62.22-.74.43 0 .55-.12.75-.0899.51-.2199.71-.44.3-.57.5-.5.25-.63.45-.0501.55-.1901.74-.2099.45-.3499.64-.6501.1-.8001.29-.1799.47-.3299.65-.21.45-.37.63-.32.35-.49.53-.43.25-.6.42-.3801.29-.5601.45-.21.48-.39.64-.4699.19-.6499.35-.2.51-.39.66-.4001.28-.5901.42-.3899.28-.5899.42-.5701 0-.7701.14c-.2.13-.3199.38-.5299.5s-.3901.3-.6101.4-.53-.02-.75.07-.38.36-.61.43-.4499.21-.6799.26-.49.03-.73.07-.4601.41-.7001.42-.4999-.42-.7399-.43-.47-.03-.71-.07-.5801.28-.8101.21-.3899-.39-.6099-.5-.3401-.35-.5401-.5-.18-.45-.35-.63-.4399-.21-.5799-.42c-.13-.2-.66-.21-.76-.44-.1-.22-.15-.5-.21-.73s.0599-.53.0399-.76.12-.49.12-.73-.03-.48 0-.71.2301-.43.2801-.67-.3-.58-.23-.81.33-.4.42-.62.26-.41.37-.62.01-.55.13-.75.49-.27.62-.46.49-.22.64-.4.15-.48.31-.65.0499-.61.2199-.78.5301-.14.7001-.3.3699-.3.5499-.45.5301-.07.7201-.2.12-.66.32-.79.46-.17.67-.28.48-.11.69-.21.54.06.75-.03.35-.38.57-.46.48-.02.71-.08.39-.32.62-.38.39-.47.62-.52.52.17.75.13.4799 0 .7099-.02.4701-.12.7001-.14.48-.21.71-.21.4699.27.7099.28.4401.4.6701.42.4799-.15.7199-.12.5-.12.73-.07.4301.22.6601.28.42.21.65.28.43.19.65.26.4.23.62.32.52-.04.74.06.6099-.15.8199-.04.2301.6.4401.73.63-.09.83.04.2.58.4.72.22.51.41.66.53.1.71.26.47.2.65.36.43.25.61.42-.01.69.16.87.64.06.8.24.28.4.43.59.1499.5.2999.69.4301.27.5801.47.19.46.33.66.12.5.25.7.55.22.68.42-.06.59.07.8.75.13.87.34.06.52.17.74.35.37.46.59-.21.63-.11.85.39.35.48.58.5199.31.6099.54-.4099.68-.3199.9.4699.34.5499.57.0901.48.1601.71.17.45.24.69.49.37.55.6-.3801.6-.3201.84.6001.35.6601.59-.17.54-.11.77.11.47.17.71.2399.44.2899.68-.0899.51-.0499.75-.1301.52-.0801.75.59.38.63.62-.3999.56-.3599.8.24.45.28.68.07.48.1.71.03.48.06.72.22.45.25.69.2699.45.2999.69.0001.48.0301.72-.15.5-.13.74.25.46.27.7-.12.49-.1.73.07.48.09.72.2999.46.3099.71-.0399.48-.0299.72.0399.48.0499.72-.1899.49-.1799.73-.03.48-.03.72-.2901.49-.2901.73.11.48.12.72.2801.48.2901.72.02.48.02.72.12.48.12.73-.3301.48-.3301.72.1201.49.1101.74" stroke="#000" stroke-linecap="round" stroke-linejoin="round" stroke-width="2.6"/></svg>