<svg fill="none" height="109" viewBox="0 0 198 109" width="198" xmlns="http://www.w3.org/2000/svg"><path d="m2.63994 89.36c0-.24.14-.49.14-.73s-.05-.48-.05-.72-.5-.48-.5-.72-.04-.49-.04-.73.32-.48.32-.72.21-.48.22-.72-.13-.49-.12-.73-.1-.49-.08-.73-.07-.49-.05-.73-.14-.5-.12-.74.33-.46.35-.7.06-.48.08-.72-.09-.5-.06-.74.05-.48.09-.72.4-.43.43-.67.16-.46.2-.7-.2-.52-.16-.76-.19-.53-.15-.76.56-.39.61-.62.09-.47.14-.71-.04-.5.01-.73.12-.47.17-.7.12-.47.18-.7-.14-.54-.08-.77.59-.34.65-.57-.04-.51.03-.74.16-.45.23-.68.15-.46.22-.68-.15-.56-.07-.79.53-.33.61-.55-.06-.53.02-.76-.02-.52.07-.75.63-.27.72-.49-.27-.63-.18-.85.47-.32.56-.55.39-.35.49-.57-.24-.64-.13-.86.16-.46.26-.68.54-.27.65-.48.12-.48.23-.69.47-.29.58-.5-.18-.65-.06-.86.57-.23.69-.44-.03-.58.09-.78.08-.52.20996-.72c.13-.2.74-.11.86-.31s-.15-.67-.02-.87.71-.11.84-.3-.21-.73-.07-.93.52-.23.66-.42.09-.53.23-.73.5-.23.65-.42.49-.23.64-.42-.14-.72.01-.91.58-.15.73-.33.11-.54.26-.72.23-.44.39-.62.71-.01.87-.19-.09-.73.07-.91.72.01.88-.16.29-.38.46-.55.16-.51.33-.68.47-.21.64-.38.51-.15.69-.32-.05-.75.13-.91.68.03.85-.13.26-.42.44-.58.18-.52.36-.68.33-.36.51-.51.41-.26.6-.41.62 0 .81-.15.22-.5.41-.65.23-.49.42-.64.74.18.93.04.29-.41.49-.55.38-.29.58-.42.26-.46.46-.6.48-.14.68-.28.41-.25.61-.38.16-.64.36-.77.74.28.95.15.29-.45.49-.57.46-.16.67-.28.36-.34.56-.46.46-.17.66-.29.51-.07.72-.19.16-.7.38-.82.61.12.82.01.31-.44.53-.55.6.13.81.02.17-.75.39-.85.49-.09.71-.19.39-.31.6-.41.54.04.76-.06.53.03.76-.07.42-.24.64-.33.45-.17.67-.26.27-.63.49-.71.52 0 .74-.09.4-.3.63-.38.62.3.85.22.3-.58.53-.66.57.19.8.11.38-.38.61-.46.56.17.79.1.33-.54.56-.61.41-.31.64-.38.56.19.79.13.49-.03.72-.09.49 0 .73-.07.39-.4.62-.46.47-.12.7-.18.5.03.74-.02.37-.52.61-.57.56.3.79.25.42-.32.66-.37.56.32.79.28.41-.4.65-.44.52.17.75.13.37-.65.61-.69.48-.07.72-.1.49-.02.72-.06.49 0 .72-.04.54.42.78.39.46-.2.69-.23.43-.43.67-.46.51.22.75.19.47-.17.7-.19.46-.27.7-.29.48 0 .72-.03.47-.15.71-.16.5.32.74.31.49.2.73.19.48-.08.72-.09.48.1.72.1.48-.05.72-.05.48-.08.72-.09.48-.15.72-.15.48.18.72.18.48-.13.72-.13.48-.13.72-.13.47.2.71.21.48.04.72.05.5-.39.74-.38.46.46.7.48.51-.49.75-.47.45.43.69.45.49-.1.73-.08.44.4.68.42.55-.6.78-.58.46.24.7.27.49-.05.73-.02.48.07.72.1.49 0 .73.04.44.33.68.37.43.36.67.4.53-.23.76-.18.43.33.66.37.47.09.71.14.46.16.69.2.51-.07.74-.02.41.35.65.4.52-.13.76-.08.47.08.71.14.56-.24.79-.18.37.49.6.56.38.41.61.48.61-.39.84-.32l.69.21c.23.07.38.4.61.47s.41.28.64.35.61-.29.83-.21.37.4.6.48.52-.03.75.06.32.51.55.59.46.14.68.23.5.04.73.13.3.53.52.63.51.03.73.13.5.05.72.15.55-.05.77.06.31.47.53.57.31.44.53.55.57-.07.79.04.4901.1.7001.21.34.38.55.49.25.53.46.64.41.24.62.36.44.19.65.31.39.28.59.41.43.22.63.35.64-.11.84.03.43.23.63.37.26.47.46.61.42.24.62.38.39.28.59.42.39.29.58.43.52.12.71.27.25.45.44.61.47.19.66.34.34.34.52.5.29.4.47.56.07.63.25.8.8-.14.97.02-.02.71.15.88.68 0 .85.18.16.52.32.69.05.61.21.79.61.1.77.27.24.43.4.61.32.35.48.54.45.26.6.44.4.3.55.49-.17.73-.03.93.7.08.84.27.33.36.47.56-.13.67 0 .87.33.35.46.55.27.4.39.6.37.34.49.54.36.34.48.55.12.48.24.69.21.43.33.64.26.41.37.62.17.45.28.66.39.34.49.56.17.45.26.67.14.47.23.69.26.41.35.63-.05.54.04.76.25.41.34.64.48.34.56.56-.11.55-.03.78.3.41.38.64-.28.59-.21.82.36.39.43.62.18.45.24.68.42.39.48.62-.53.62-.48.86.23.44.28.68.42.4.46.64-.34.55-.29.79.67.37.71.61-.28.53-.24.77-.05.49-.02.73-.07.49-.05.73.31.45.33.69-.09.49-.07.73-.06.48-.04.72.53.45.54.69-.41.5-.4.74.18.48.18.72-.22.48-.22.72.65.49.65.73-.21.48-.22.72-.52.45-.54.69.59.52.57.76-.62.43-.64.67.26.51.24.75-.33.44-.36.68.46.55.42.79-.26.45-.3.69-.42.41-.47.65-.13.46-.18.69.19.53.14.77-.44.38-.5.62.17.54.1.77-.39.38-.46.61.48.66.4.89-.5.34-.58.57-.08.48-.17.71-.15.46-.24.68-.23.43-.33.65-.28.4-.38.62-.43.32-.54.54.1.58-.02.8-.12.48-.24.69-.23.43-.35.64-.45.29-.57.5-.41.31-.54.51-.07.53-.2.73 0 .6-.14.79-.41.3-.56.49-.55.18-.7.37-.11.53-.27.71-.6.1-.76.28-.22.44-.39.61-.44.23-.61.4.05.75-.13.91-.67-.03-.85.13-.37.29-.56.44-.2.52-.39.67-.51.12-.7.26-.27.44-.47.58-.59-.03-.79.1-.23.53-.43.66-.46.16-.67.28-.46.15-.68.26-.37.33-.58.43-.46.14-.68.24-.27.57-.49.67-.43.24-.65.33-.65-.35-.87-.26-.41.26-.64.34-.49.01-.72.08-.35.5-.58.57-.43.26-.67.32-.59-.41-.82-.36-.48.02-.71.06-.39.55-.63.59-.5-.15-.74-.12-.45.32-.69.35-.48.06-.7201.07c-.24.01-.49-.15-.73-.14s-.48.18-.72.17-.48-.07-.72-.08-.48-.1-.72-.12-.47-.16-.71-.18-.49.07-.73.04-.4-.48-.64-.52-.54.3-.78.24-.5 0-.73-.05-.42-.28-.65-.35-.44-.19-.67-.26-.35-.42-.58-.5-.54.07-.76-.02-.3-.48-.52-.58-.49-.07-.7-.18-.46-.15-.67-.27-.31-.41-.51-.53-.42-.21-.62-.35-.66.1-.85-.04-.24-.49-.42-.64-.34-.33-.53-.49-.6-.06-.77-.22-.4-.29-.57-.46-.25-.44-.41-.62-.33-.36-.49-.54.09-.7-.06-.89-.32-.35-.46-.54-.62-.13-.76-.33-.32-.37-.45-.57.11-.64-.01-.84-.63-.18-.75-.39-.33-.38-.44-.59.29-.68.18-.9-.63-.23-.73-.45.11-.57.02-.79-.08-.48-.16-.7-.11-.46-.19-.69-.36-.38-.43-.61-.4-.38-.46-.62.05-.51 0-.74-.43-.4-.48-.63-.06-.49-.1-.72.47-.56.43-.8-.05-.47-.08-.71-.37-.44-.39-.68-.06-.48-.08-.72.14-.48.13-.72-.26-.48-.25-.72.02-.48.03-.72.4-.45.42-.69-.48-.53-.46-.77.33-.45.36-.68.02-.48.06-.72.03-.49.08-.72.28-.43.34-.66-.25-.57-.18-.8.68-.3.75-.53-.06-.52.02-.75.4-.36.49-.58-.31-.64-.21-.86.32-.39.42-.61.53-.28.63-.49-.24-.66-.13-.88.38-.34.5-.55.34-.36.46-.57.35-.34.48-.55.31-.37.44-.56-.1-.66.04-.85.31-.38.46-.57.25-.42.41-.61.69-.05.84-.23.36-.31.52-.49.13-.54.29-.71.57-.1.74-.27.04-.65.21-.81.25-.45.43-.61.66.02.84-.14.28-.42.46-.57.35-.34.54-.48.56-.04.76-.18.43-.21.63-.35.17-.6.38-.73.61.08.82-.05.11-.75.32-.87.45-.19.66-.31.46-.17.67-.28.62.16.83.06.29-.52.5-.62.59.16.81.06.22-.74.44-.83.44-.22.67-.3.53.06.76-.01.48-.09.71-.16.52.05.75-.01.41-.34.65-.39.51.03.74-.03.4501-.21.6801-.26.42-.37.66-.42.48-.11.72-.15.52.19.76.16.52.24.76.21.48 0 .72-.01.47-.12.71-.14.46-.36.7-.37.49.37.73.37.48-.25.72-.25.48.04.72.05.47.27.71.29.49-.16.73-.14.49-.06.73-.04.52-.24.75-.22.45.31.69.35.48.03.72.07.41.44.64.49.51-.12.75-.07.56-.29.8-.23.34.62.57.68.61-.41.84-.34.41.33.64.4.46.14.69.22.35.47.57.55.49.04.72.13.4.28.63.37.6-.2.82-.11.38.34.6.43.33.43.55.53.54-.03.76.07.46.15.68.26.41.25.63.36.4.28.61.39.48.11.7.23.39.28.61.4.32.42.53.54.43.21.64.33.48.12.69.24.32.4.53.52.6-.07.81.05.48.13.69.25.17.65.37.78.53.06.73.19.32.4.52.53.35.35.55.47.6-.05.81.08.53.07.73.2.21.56.41.69.47.16.67.29.16.63.36.77.76-.28.96-.15.12.7.32.83.58 0 .78.13.3.42.5.55.52.09.72.22.2.58.4.71.58 0 .78.12.3.43.5.56.61-.07.82.06.08.77.29.9.63-.1.83.03.51.09.72.21.16.66.37.78.54.03.75.15.32.41.53.53.41.25.62.37.62-.12.83 0 .31.42.52.54.3.47.51.58.51.07.72.19.38.32.59.43.41.26.63.37.64-.22.86-.11.22.66.44.76.53 0 .75.09.38.34.6.43.49.08.71.17.56-.1.78-.01.26.66.49.75.59-.2.81-.12.33.51.56.59.45.18.68.25.44.21.67.28.55-.17.79-.11.54-.18.78-.12.44.22.67.27.39.46.62.52.44.28.68.33.57-.44.81-.4.46.11.7.15.43.37.67.4.49-.04.73-.01.48.09.72.11.47.18.71.2.49-.02.73 0 .49.02.73.03.49-.12.73-.12.48-.39.71-.39.49.29.72.28.47-.24.71-.25.49.21.73.19.45-.3.69-.33.49.07.72.04.54.43.78.4.45-.27.69-.31.51.13.75.09.41-.46.64-.51.52.14.76.09.5 0 .73-.06.37-.52.6-.58.47-.08.7-.15.46-.13.69-.2.43-.22.66-.29.49-.05.72-.13.36-.4.59-.48.5-.02.72-.11.37-.35.59-.44.47-.11.69-.2.58.1.79 0 .37-.34.58-.45.41-.25.62-.36.38-.3.58-.42.62.1.82-.02.3-.44.5-.56.46-.17.66-.3.38-.3.57-.44.48-.16.67-.3.06-.71.25-.86.63.03.82-.12.25-.45.43-.61.51-.14.69-.3.05-.66.22-.82.32-.35.49-.52.81.12.97-.05 0-.65.17-.83.5-.2.66-.38.08-.56.24-.74.38-.31.52-.5.43-.27.57-.46.23-.42.37-.62 0-.58.12-.78.36-.33.48-.53.39-.32.51-.52.29-.39.4-.6.43-.32.54-.53.15-.47.25-.68.19-.45.28-.66-.13-.58-.04-.8.71-.24.8-.46-.45-.67-.37-.9.63-.3.7-.53.09-.48.16-.71.06-.48.11-.72-.02-.5.02-.73.16-.46.2-.7-.3-.52-.27-.75.5-.43.52-.67-.37-.49-.36-.73.16-.47.15-.71 0-.48-.01-.72.37-.51.36-.74 0-.49-.02-.73-.44-.45-.46-.69-.18-.46-.21-.7.24-.52.21-.75-.17-.46-.21-.7-.1-.47-.14-.71-.38-.41-.43-.64.36-.58.3-.81-.39-.4-.45-.63.14-.54.07-.77-.24-.43-.32-.66-.53-.32-.61-.54.27-.62.18-.84-.17-.45-.27-.67-.1-.49-.21-.7-.61-.23-.72-.44-.38-.33-.5-.53.04-.57-.09-.77-.44-.29-.57-.48.06-.62-.07-.81-.61-.15-.75-.34 0-.61-.14-.79-.25-.42-.41-.6-.63-.09-.78-.27-.03-.62-.2-.79-.58-.1-.75-.27-.35-.32-.52-.48-.03-.66-.21-.82-.44-.23-.62-.39-.47-.18-.65-.34-.51-.13-.69-.29 0-.76-.18-.91-.71.13-.9-.02-.3-.39-.49-.54-.28-.41-.47-.56-.31-.38-.5-.52-.31-.38-.51-.52-.66.09-.85-.05-.11-.65-.3-.79-.42-.23-.61-.37-.52-.1-.71-.24-.21-.51-.4-.66-.5-.13-.69-.27-.57-.03-.76-.18-.23-.49-.42-.63-.26-.45-.44-.59-.65.05-.83-.1-.07-.66-.26-.81-.43-.22-.61-.38-.54-.11-.72-.26 0-.71-.18-.87-.39-.27-.57-.43-.69.03-.86-.13-.19-.49-.35-.66-.18-.49-.34-.66-.39-.29-.54-.47-.65-.07-.81-.25-.16-.49-.31-.68-.02-.59-.16-.78-.67-.1-.81-.29.19-.72.06-.91-.42-.29-.55-.49-.17-.45-.29-.65-.48-.27-.6-.47-.42-.31-.54-.52-.13-.47-.24-.69 0-.53-.1-.75-.44-.32-.54-.54-.03-.51-.12-.73-.25-.41-.33-.64.1-.54.02-.77-.65-.28-.72-.51-.19-.45-.26-.68.44-.63.37-.86-.34-.4-.4-.63-.38-.39-.43-.63.07-.51.02-.74-.1-.46-.14-.7.24-.53.2-.76-.08-.46-.12-.7-.09-.46-.13-.7-.71-.37999-.74-.61999.14-.50001.11-.74001-.13-.47-.16-.71.21-.49999.19-.73999-.35-.45001-.36-.69001.12-.48999.1-.72999-.11-.48-.12-.72.1-.48.09-.72.05-.48001.04-.72001.06-.48.06-.72.01-.48999.01-.72999" stroke="#000" stroke-linecap="round" stroke-linejoin="round" stroke-width="2.6"/></svg>