<svg fill="none" height="161" viewBox="0 0 127 161" width="127" xmlns="http://www.w3.org/2000/svg"><path d="m13.1801 33.96c0-.26-.1701-.5-.1701-.73 0-.26-.02-.5-.02-.73 0-.26.42-.5.42-.73 0-.26-.66-.51-.66-.73 0-.27.47-.51.47-.73 0-.29-.31-.53-.31-.73 0-.37 0-.61.01-.74.03-.57.3.66.35.07.01-.13-.3401-.38-.3301-.74 0-.2.4201-.43.4201-.71 0-.21.22-.45.23-.72 0-.22.04-.46.04-.73 0-.23 0-.47 0-.73 0-.23-.26-.48-.26-.74 0-.23-.12-.48-.12-.74 0-.24.41-.48.41-.72s-.19-.48-.19-.72-.22-.48-.21-.73-.23-.49-.22-.73.1499-.48.1499-.73.0901-.48.1001-.73.25-.48.26-.72.15-.48.16-.72-.48-.51-.46-.76.59-.44.61-.69.03-.48.06-.72-.47-.54-.44-.78.11-.48.15-.72.33-.44.37-.68.03-.49.08-.73.0501-.49.1001-.72-.0001-.5.0599-.74.52-.35.59-.59-.13-.55-.05-.78.39-.37.48-.59.06-.5.16-.72.37-.34999.48-.56999.22-.42001.34-.63001.27-.37999.41-.58999.1301-.48001.2801-.68001.2298-.43.3898-.61.1001-.56999.2801-.73999.34-.37.52-.53.72.09999.91-.05001.02-.79.22-.93.56-.05.77-.18.42-.24999.63-.36999.33-.44001.56-.54001.54.03.77-.06.4701-.08999.7001-.14999.52.17.75.11.4399-.16001.6699-.20001.41-.58.65-.61.5.31.74.3.4699.26.6999.27.4801-.24999.7201-.22999.49-.08.73-.05.48.06999.71.11999.43.27.66.34.41.26001.64.34001.5599-.15001.7899-.06001.4401.22.6501.32.32.42.52.54.32.36.52.49.7-.14.89 0 .02.7.19.87.4401.23.6001.41.2399.42001.3999.60001.53.2.67.39 0 .58999.13.78999.77.09001.89.29001-.31.72999-.2.94999.7699.15.8699.37.0601.51.1601.73.06.5.14.72-.0099.51.0601.74.4999.35.5699.58.23.45.28.68-.36.58-.31.81 0 .48.04.72.55.4.59.64-.39.53-.36.77.11.47.12.71.4499.46.4599.7-.4699.49-.4699.73.03.48.03.72-.0401.47-.0601.71.2602.5.2402.74-.35.45-.38.68.4999.58.4299.84c-.06.23-.62.33-.71.57-.08.23.25.63.14.87s-.21.47-.33.7-.44.34-.57.55-.1799.51-.3299.7-.4402.3-.6202.48-.2899.46-.4799.61c-.21.16-.45.3-.67.4-.23.11-.54 0-.79.03s-.45-.07-.71-.11c-.22-.04-.59.3-.79.19s-.19-.53-.35-.68-.3399-.28-.4699-.47c-.13-.2-.39-.34-.5-.55s-.3501-.39-.4301-.61-.17-.48-.23-.7-.05-.5-.1-.73.4199-.54.3999-.78-.2199-.44-.2299-.68-.13-.47-.12-.71-.11-.48-.09-.72-.16-.51-.13-.74.59-.39.63-.63-.13-.51-.08-.74.14-.46.2-.69.19-.44.26-.67.29-.41.36-.63.1199-.46.1999-.68-.2599-.62-.1699-.84.52-.28.62-.5.4-.32.5-.53.09-.47.2-.67-.16-.61-.05-.82.2799-.38.3999-.58.5601-.2.6901-.39999c.13-.2-.13-.64001 0-.84001s.74-.05.88-.24.22-.40999.36-.58999-.02-.61001.13-.79001.61-.09.76-.27-.04-.66999.12-.82999.6-.06.77-.22.03-.66001.21-.81001.33-.35.51-.49.41-.26.59-.4.42-.24999.62-.37999.63.12.83 0 .41-.21.62-.31.41-.22001.62-.32001.4399-.16.6599-.24.4002-.29.6202-.35.4099-.31.6399-.36.52.16.75.12.43-.31.66-.34.4699-.12.7099-.14.4801.13001.7201.13001.48-.10001.71-.09001.48.03001.71.06001.51-.16001.75-.12001.44.28.67.34.35.5.57.57.58-.23999.8-.14999.36.34999.58.45999.46.13.67.25.39.26001.59.40001.57.03999.76.18999.33.37.51.53c.18.17.1601.54.3201.72s.3199.36.4699.55.36.34001.5.54001-.02.57.1.78.69.18999.8.40999-.09.58001 0 .81001.42.35999.5.58999-.2.58-.13.81.4599.37.5199.61-.2099.55-.1499.79.12.46.17.7.5.41.53.65.08.49.11.73-.04.5-.02.74-.4099.52-.3999.76.2899.47.2999.71.27.49.27.73-.38.49-.39.73.02.49.01.73-.12.48-.14.72.02.49 0 .73c-.02.23.28.52.24.78-.04.24-.6099.38-.6599.63s.4899.63.4199.87-.44.39-.52.62-.27.42-.38.64-.12.49-.25.7-.3599.34-.5199.53-.2601.43-.4601.58-.33.52-.56.6-.57-.27-.83-.26c-.23.01-.48.21-.74.16-.24-.04-.4-.31-.6-.4s-.4-.18-.59-.33-.67-.02-.82-.21-.13-.52-.25-.73.11-.56.02-.78-.52-.31-.59-.54.14-.52.09-.75-.08-.46-.11-.69-.4-.43-.42-.67.05-.49.04-.72.3-.48.29-.72.09-.47.1-.71-.51-.5-.5-.73c.01-.24.12-.48.14-.71.02-.25.53-.43.56-.65.03-.25-.41-.56-.38-.77.04-.24.21-.46.26-.7s.48-.38.54-.62-.47-.63-.4-.87.11-.49.18-.72.15-.48.23-.71.36-.39.45-.62.6-.27.7-.5-.01-.53999.09-.75999-.09-.61001.02-.82001.63-.21.76-.41.2601-.41.4001-.61.2699-.39999.4099-.59999.23-.44001.38-.63001.4-.29.57-.47.13-.55.31-.72.6-.05.79-.2.19-.54.39-.68.25-.51.45-.64.51-.09.73-.2.57.08001.79-.01999.27-.59001.49-.68001.48-.1.71-.17.53.1.76.03.45-.16.68-.21.4499-.22.6799-.26.4901.03.7201 0 .48-.02.72-.03.48-.08999.72-.08999.49-.14001.73-.13001.44.43.68.45.48-.02.71.03.45.15001.68.20001.52-.09001.74-.03001.51.00001.73.09001.36.41.58.5.45.14999.67.25999.31.41.52.53.56-.02.76.11.19.55.38.69.57.03001.75.19001.29.38.47.55.48.18999.65.36999.45.26.6.45c.15.18.33.37.46.56s-.2.70001-.08.90001.29.35999.4.56999.47.29.57.5.29.40001.37.62001-.04.51999.04.73999.25.42.31.65.0699.47.1199.7.2901.44.3201.67-.33.52-.31.75.44.45.45.68-.51.48-.51.72.25.48.24.72.04.48.03.73.1601.5.1401.74-.6401.41-.6701.65.02.48-.02.72.48.59.43.82-.23.46-.29.69-.53.35-.6.59.31.62.22.85-.25.44-.35.66-.0901.52-.2101.73-.5499.25-.6799.45c-.14.2-.23.46-.41.64s-.56.11-.76.26-.36.3-.58.39-.41.23-.66.25-.41-.12-.65-.2c-.22-.07-.48 0-.69-.18s-.3-.43-.47-.66-.54-.32-.66-.57-.02-.59-.11-.85c-.08-.22-.1499-.43-.2099-.66s-.0301-.46-.0801-.69-.6101-.34-.6601-.57-.0199-.48-.0599-.71.11-.49.09-.72-.21-.45-.23-.69-.11-.47-.12-.7.5601-.47.5601-.7-.4101-.48-.4001-.71.37-.44.39-.67-.37-.51-.34-.74.46-.41.5-.63.07-.46.12-.68.27-.4.33-.63-.08-.52 0-.76-.22-.59-.14-.82.61-.29.7-.52.1-.48.2-.7.07-.5.18-.72.5-.29.62-.5.2-.43999.32-.64999-.21-.72-.08-.92.82-.02.96-.22.08-.55001.24-.73001.04-.61999.21-.79999.36-.36001.53-.53001.79.15.97 0-.02-.82999.18-.96999.5-.16001.71-.28001.4-.31.62-.42.61.15.83.05c.23-.09.33-.54.56-.61s.57.20001.81.15001.5.10999.75.06999.46-.13999.7-.14999.47-.17.72-.17.49-.14001.74-.12001.53-.24999.78-.20999.44.39999.68.44999.54-.1.77-.04.3.67.53.75.57-.16.8-.07.53.04.75.14.35.41.56.53.5099.11001.7099.24001.3301.39.5301.53.41.26999.6.41999.36.33.54.5.3.39.47.57.52.18.69.36.2599.41.4199.6.23.43.37.62.0501.55.1801.74.39.31.52.51.39.33001.51.54001.14.46999.25.67999.12.47.22.69.4701.31.5601.54-.0501.54.0299.76.2799.41.3599.63.0201.49.0901.72.14.45.21.69.53.36.59.6.1701.46.2201.7.0898.48.1398.72.1101.48.1501.72-.22.52-.19.76.33.45.35.69-.57.54-.55.78.3.46.31.7c.01.23-.11.47-.12.71s.4.5.39.74-.29.46-.33.7.0301.5-.0199.73-.0301.5-.1001.73-.5.34-.59.56 0 .52-.12.73-.37.33-.51.52-.1399.52-.3099.68-.4801.15-.6801.27-.4.2-.63.26c-.22.06-.4399.35-.6899.35-.26 0-.6001.13-.8301.07-.24-.07-.54-.23-.75-.36s-.32-.47-.5-.64-.11-.54-.26-.74-.48-.28-.59-.5.18-.6.09-.84-.24-.41-.31-.65-.43-.4-.48-.64.33-.54.3-.79-.59-.45-.6-.69-.12-.52-.12-.76c0-.23.44-.45.45-.69s-.36-.5-.34-.73.28-.45.3-.68-.11-.49-.07-.72-.0701-.49-.0301-.72.3401-.42.3901-.65.33-.41.39-.64.21-.43.27-.65-.33-.57-.26-.8.17-.44.24-.67.24-.42.32-.64.3199-.38.3999-.6.1401-.45.2301-.66-.15-.58-.06-.79.25-.41.35-.62.7-.18.81-.38.22-.41.33-.61-.06-.56999.06-.76999.14-.47001.26-.67001.47-.26.6-.45.2801-.36999.4101-.56999c.14-.2.0299-.57.1799-.75s.35-.34001.51-.51001.33-.35.5-.51.4-.27.58-.43.32-.36.51-.5.47-.16.67-.29.28-.46999.48-.58999.41-.26001.63-.37001.62.22.84.13.25-.73.47-.8.48-.13999.71-.18999.49-.09001.73-.13001.54.38.77.35.46-.39.7-.39.46.49001.7.51001.49-.21001.73-.18001.48.04001.71.09001.48.07.71.14.5.06999.72.15999.34.4.55.52.53.05.73.19.31.40001.49.55001.22.45999.39.62999.61.07.77.25.38.33.52.52-.23.74-.1.94.45.27001.57.49001.59.21999.71.43999-.24.67-.13.89.49.29001.59.51001.21.43.31.66.02.51999.11.73999.15.46.23.69.05.49.13.72.4.37.48.6.13.47.2.7-.17.55-.1.78.57.35.63.58.06.49.11.73.13.47.18.71-.02.5.02.74.34.44.38.68-.05.5-.02.74-.43.53-.42.77.3.47.31.71-.19.48-.19.72.46.5.44.74-.31.47-.34.71.03.49-.01.73-.32.43-.37.66.02.49-.05.73-.3.4-.38.62.27.64.17.86-.25.44-.38.64-.26.44-.42.62-.38.36-.57.51-.45.27-.67.36-.5.15-.74.17c-.25.03-.44-.41-.67-.46s-.56.21-.77.09-.28-.41-.45-.59c-.17-.16-.63-.1-.78-.3s-.16-.49-.28-.71-.33-.4-.42-.63.03-.54-.04-.77.19-.55.14-.78-.21-.44-.25-.67c-.03-.23-.46-.41-.49-.65s-.14-.46-.16-.7.3-.5.29-.73-.41-.45-.41-.69.57-.48.57-.72-.44-.47-.44-.71.54-.45.55-.68-.41-.5-.39-.73.14-.46.17-.69-.25-.51-.21-.75.59-.38.64-.61-.01-.48.04-.71.22-.42.28-.65-.11-.52-.04-.74.02-.49.1-.71.53-.3.62-.51.15-.43.25-.65.08-.48.19-.68.32-.34999.44-.54999-.19-.67001-.07-.87001.59-.17.73-.36.04-.57999.19-.76999.69-.03001.85-.21001.09-.58.26-.74.47-.19.65-.34.2-.52.39-.66.6.02.79-.11.38-.27.59-.39.21-.62999.42-.73999.47-.15.69-.25.5-.06.73-.14.44-.22.67-.28.57.35999.8.30999.39-.54.62-.57.5.14.73.13.48-.26999.72-.25999.49.01999.73.03999.47.19.7.23.51-.03.74.03.39.37.61.46.42.21001.64.32001c.21.1.3.39999.5.51999s.37.24.56.38.35.27.53.42.76-.16.93 0 .21.47.37.64 0 .62.14.8.73.01.87.2.03.55.16.75.43.28.56.48.05.51.17.71.25.39.35.61.2.42.29.64.47.32.55.53 0 .5.09.72.22.42.29.65.14.45.2.68.19.44.25.67c.06.24.09.48.14.72s.18.46.22.7-.3.55-.26.79.27.45.3.69.3.45.33.69-.49.55-.46.79.49.44.51.68-.42.52-.41.76.42.46.43.7-.07.49-.06.73.03.48.04.73-.06.49-.06.73-.11.49-.11.73.41.48.41.72-.16.49-.16.73-.26.48-.26.73.43.49.43.73-.19.48-.2.73-.41.48-.41.72.4.49.4.73-.09.48-.09.73-.32.48-.32.73.21.49.21.73-.05.47-.05.72-.16.47-.15.72.5.47.5.72-.3.48-.3.72.05.48.05.72-.05.48-.05.72.06.48.07.72-.05.48-.05.72.02.48.02.72.47.47.47.72-.15.48-.15.72-.25.48-.25.72-.15.48-.15.72.44.48.44.72-.01.48 0 .72-.04.48-.04.72-.2.48-.2.72.09.48.09.72-.06.48-.05.72-.3.47-.3.71.5.47.5.71-.25.47-.25.71.31.47.31.71-.41.47-.41.71.15.47.15.71-.15.47-.15.71.27.47.27.71.02.47.02.71-.27.48-.27.71.05.48.05.71.2.48.2.71v.71c0 .23.21.48.21.71s-.62.48-.62.72.52.48.52.71-.07.48-.07.72-.08.48-.08.72.16.48.16.72-.22.48-.22.72.02.48.02.72-.13.48-.12.72.1.48.1.72.17.48.17.72.18.48.18.72-.1.48-.1.72.04.48.04.72-.55.48-.55.72.31.48.31.72-.18.48-.18.72.33.48.33.72-.15.48-.15.72-.1.48-.1.72.36.48.36.72v.72c0 .24-.24.48-.24.72s-.12.48-.12.72-.21.48-.21.72-.05.48-.05.72.19.48.19.72.1.48.1.72-.07.48-.07.72.22.48.22.72.04.48.04.72-.47.48-.47.72.04.48.04.72.47.48.47.72-.29.48-.29.72-.23.48-.23.72.59.48.59.72-.03.48-.03.72-.37.48-.36.72-.2.48-.2.72.3.48.3.72-.14.48-.14.72v.72c0 .24.12.48.12.72s.17.48.17.72-.05.48-.05.72.09.48.09.72.17.48.17.72-.19.48-.19.72-.38.48-.38.72.04.48.04.72v.72c0 .24-.05.48-.05.72s.11.48.11.72.02.48.02.72-.1.48-.1.72.53.48.53.72-.41.48-.41.72.07.48.07.72.04.48.04.72-.06.48-.06.72-.12.48-.12.72.17.48.17.72-.1.48-.1.72.14.48.14.72.19.48.19.72.03.48.03.72-.42.48-.42.72.14.48.14.72.21.48.21.72-.38.48-.38.72.17.48.17.72.14.48.14.72-.05.48-.05.72-.05.48-.05.72.1.48.1.72.06.48.06.72-.44.48-.44.72.19.48.18.72.25.48.25.72-.44.48-.44.72.58.48.58.72-.17.48-.17.72-.05.48-.05.72-.06.48-.06.72.15.48.15.72-.2.48-.2.72.12.48.12.72-.4.48-.4.72.33.48.33.72-.03.48-.03.72-.02.48-.02.72.33.48.33.72-.21.48-.21.72-.29.48-.29.72v.72c0 .24.08.48.08.72s.41.48.41.72-.48.48-.48.72.35.48.35.72-.24.48-.24.72.22.48.22.72v.72c0 .24-.18.48-.18.72s-.1.48-.1.72.48.48.48.72-.46.48-.46.72-.16.48-.16.72.63.48.63.72-.42.48-.42.72.42.48.42.72-.28.48-.28.72-.18.48-.18.72.16.48.16.72.17.48.17.72-.34.48-.34.72-.1.48-.1.72.11.48.11.72.18.48.18.72.25.48.25.72-.63.48-.63.72.14.48.14.72.23.48.23.72-.04.48-.04.72-.15.48-.15.72-.08.48-.08.72.16.48.16.72.03.48.03.72-.32.48-.32.72.14.48.14.72-.04.48-.04.72.17.48.17.72.19.48.19.72-.06.48-.06.72-.15.49-.15.72.17.49.16.72-.35.48-.35.72.08.48.08.72-.09.48-.09.72.4.48.4.71c0 .25-.28.48-.28.71 0 .25-.04.49-.04.72 0 .25.31.49.31.72 0 .25-.18.49-.18.71 0 .25.18.49.18.71 0 .26.12.5.12.71 0 .28-.52.52-.52.72 0 .46.28.71.28.71" stroke="#000" stroke-linecap="round" stroke-linejoin="round" stroke-width="2.6"/><path d="m22.3 44.09c-.35 0-.35-.1-.71-.1s-.35-.23-.71-.23-.35.43-.71.43-.35-.28-.71-.28-.35.07-.71.07-.35.37-.71.37-.35-.18-.71-.18-.35.23-.7.23-.3499-.51-.6999-.51-.3501.24-.7101.24-.35-.33-.71-.33-.36.09-.71.09-.35-.04-.71-.04-.35.33-.71.33-.35-.05-.71-.05-.36.09-.71.09-.35-.46-.71-.46-.34996.59-.70996.59-.36008-.61-.71008-.61-.35996.22-.70996.22-.35997.21-.70997.21-.35008-.42-.71008-.42-.35996.6-.70996.6-.35996-.02-.70996-.02-.35997-.15-.71997-.15-.36009-.34-.72009-.34c-.22 0-.54999.48-.73999.4s-.24001-.52-.38001-.67.01005-.43-.06995-.63-.64001-.28-.64001-.5c0-.36.38-.36.38-.73s-.35998-.37-.35998-.73.53992-.36.53992-.73-.1399-.36-.1399-.73.00989-.36.00989-.73.03003-.37.03003-.73.08008-.37.08008-.73-.61011-.37-.61011-.73 0-.37 0-.73c0-.26.50005-.47.55005-.71s-.00003-.5.08997-.73.43006-.29.57006-.5.16997-.44.33997-.62.09005-.68.30005-.82.54002-.11.77002-.2.48999-.09.73999-.14.47999.13.73999.13c.37 0 .36998-.23.72998-.23s.36998-.32.72998-.32.36998.41.72998.41.36999-.08.73999-.08.36999.3.73999.3c.37004 0 .37004-.14.74004-.14s.3699.15.7399.15.3702-.53.7402-.53.3699-.11.7399-.11.37-.03.74-.03.37.24.74.24.37.33.74.33.37-.55.74-.55.37.29.74.29.37.36.74.36.37-.58.74-.58.37.32.74.32.37.27.74.27.3699-.55.7399-.55c.26 0 .4801.34.7301.39s.62-.24.85-.14.35.46.56.6.2.51.38.68.4.26.54.47.5899.26.6899.49-.2499.6-.2099.84.15.45.15.7c0 .36.3099.36.3099.73s-.4599.37-.4599.73.06.36.06.73.42.36.42.73.0901.36.0901.73-.62.37-.62.73.3299.37.3299.73-.12.37-.12.73-.05.37-.05.73c0 .22.07.4-.01.59s-.17.37-.32.52-.39.07-.59.15-.3.37-.52.37z" fill="#fff"/><path d="m22.3 44.09c-.35 0-.35-.1-.71-.1s-.35-.23-.71-.23-.35.43-.71.43-.35-.28-.71-.28-.35.07-.71.07-.35.37-.71.37-.35-.18-.71-.18-.35.23-.7.23-.3499-.51-.6999-.51-.3501.24-.7101.24-.35-.33-.71-.33-.36.09-.71.09-.35-.04-.71-.04-.35.33-.71.33-.35-.05-.71-.05-.36.09-.71.09-.35-.46-.71-.46-.34996.59-.70996.59-.36008-.61-.71008-.61-.35996.22-.70996.22-.35997.21-.70997.21-.35008-.42-.71008-.42-.35996.6-.70996.6-.35996-.02-.70996-.02-.35997-.15-.71997-.15-.36009-.34-.72009-.34c-.22 0-.54999.48-.73999.4s-.24001-.52-.38001-.67.01005-.43-.06995-.63-.64001-.28-.64001-.5c0-.36.38-.36.38-.73s-.35998-.37-.35998-.73.53992-.36.53992-.73-.1399-.36-.1399-.73.00989-.36.00989-.73.03003-.37.03003-.73.08008-.37.08008-.73-.61011-.37-.61011-.73 0-.37 0-.73c0-.26.50005-.47.55005-.71s-.00003-.5.08997-.73.43006-.29.57006-.5.16997-.44.33997-.62.09005-.68.30005-.82.54002-.11.77002-.2.48999-.09.73999-.14.47999.13.73999.13c.37 0 .36998-.23.72998-.23s.36998-.32.72998-.32.36998.41.72998.41.36999-.08.73999-.08.36999.3.73999.3c.37004 0 .37004-.14.74004-.14s.3699.15.7399.15.3702-.53.7402-.53.3699-.11.7399-.11.37-.03.74-.03.37.24.74.24.37.33.74.33.37-.55.74-.55.37.29.74.29.37.36.74.36.37-.58.74-.58.37.32.74.32.37.27.74.27.3699-.55.7399-.55c.26 0 .4801.34.7301.39s.62-.24.85-.14.35.46.56.6.2.51.38.68.4.26.54.47.5899.26.6899.49-.2499.6-.2099.84.15.45.15.7c0 .36.3099.36.3099.73s-.4599.37-.4599.73.06.36.06.73.42.36.42.73.0901.36.0901.73-.62.37-.62.73.3299.37.3299.73-.12.37-.12.73-.05.37-.05.73c0 .22.07.4-.01.59s-.17.37-.32.52-.39.07-.59.15-.3.37-.52.37z" stroke="#000" stroke-linecap="round" stroke-linejoin="round" stroke-width="2.6"/></svg>