<svg width="24" height="24" viewBox="0 0 24 24" fill="none" xmlns="http://www.w3.org/2000/svg">
<path fill-rule="evenodd" clip-rule="evenodd" d="M12.95 5.75C12.95 5.33579 12.6142 5 12.2 5C11.7857 5 11.45 5.33579 11.45 5.75V11.25H5.94995C5.53574 11.25 5.19995 11.5858 5.19995 12C5.19995 12.4142 5.53574 12.75 5.94995 12.75H11.45V18.25C11.45 18.6642 11.7857 19 12.2 19C12.6142 19 12.95 18.6642 12.95 18.25V12.75H18.45C18.8642 12.75 19.2 12.4142 19.2 12C19.2 11.5858 18.8642 11.25 18.45 11.25H12.95V5.75Z" fill="#0E1438"/>
</svg>
