<svg width="24" height="24" viewBox="0 0 24 24" fill="none" xmlns="http://www.w3.org/2000/svg"><path d="M7.840 12.000 L 7.840 18.680 9.777 18.680 L 11.714 18.680 11.729 17.310 C 11.744 15.950,11.745 15.938,11.851 15.620 C 12.002 15.167,12.213 14.828,12.562 14.476 C 12.804 14.232,12.938 14.135,13.242 13.985 C 13.811 13.704,13.974 13.682,15.450 13.681 L 16.720 13.680 16.720 12.700 C 16.720 12.161,16.710 11.720,16.698 11.720 C 16.687 11.720,16.606 11.756,16.520 11.800 C 16.122 12.003,15.565 12.049,15.063 11.921 C 14.636 11.812,14.388 11.669,14.056 11.341 C 13.495 10.786,13.278 10.021,13.462 9.244 C 13.602 8.648,14.083 8.055,14.640 7.789 C 15.247 7.500,15.987 7.488,16.520 7.760 C 16.606 7.804,16.687 7.840,16.698 7.840 C 16.710 7.840,16.720 7.273,16.720 6.580 L 16.720 5.320 12.280 5.320 L 7.840 5.320 7.840 12.000 " stroke="none" fill-rule="evenodd"></path></svg>