<svg width="24" height="24" viewBox="0 0 24 24" fill="none" xmlns="http://www.w3.org/2000/svg">
<path d="M10.3333 9.91667V9.5C10.3333 9.03977 10.7064 8.66667 11.1667 8.66667H12.8333C13.2936 8.66667 13.6667 9.03977 13.6667 9.5V10.3333C13.6667 10.5957 13.5432 10.8426 13.3333 11L12.3333 11.75C12.1235 11.9074 12 12.1543 12 12.4167V12.8333M12 15.3333V15.3417M19.5 12C19.5 16.1422 16.1422 19.5 12 19.5C7.85787 19.5 4.5 16.1422 4.5 12C4.5 7.85787 7.85787 4.5 12 4.5C16.1422 4.5 19.5 7.85787 19.5 12Z" stroke="black" stroke-width="1.25" stroke-linecap="round" stroke-linejoin="round"/>
</svg>
