<svg width="24" height="24" viewBox="0 0 24 24" fill="none" xmlns="http://www.w3.org/2000/svg"><path d="M5.019 4.654 C 4.816 4.746,4.652 4.969,4.598 5.228 C 4.539 5.512,4.575 6.598,4.663 7.160 C 4.989 9.245,6.289 11.050,8.164 12.020 C 8.973 12.438,9.835 12.669,10.850 12.740 L 11.240 12.767 11.240 15.758 C 11.240 17.922,11.253 18.786,11.286 18.884 C 11.397 19.208,11.662 19.400,12.000 19.400 C 12.338 19.400,12.603 19.208,12.714 18.884 C 12.746 18.789,12.760 18.220,12.760 16.994 L 12.760 15.240 13.060 15.240 C 13.843 15.240,14.952 14.963,15.731 14.574 C 17.256 13.811,18.430 12.511,19.002 10.951 C 19.298 10.143,19.409 9.457,19.415 8.401 C 19.420 7.703,19.415 7.650,19.329 7.490 C 19.279 7.396,19.164 7.271,19.072 7.210 L 18.905 7.100 18.083 7.102 C 17.172 7.105,16.746 7.153,16.120 7.322 C 14.817 7.675,13.763 8.343,12.808 9.419 C 12.634 9.616,12.560 9.676,12.560 9.622 C 12.560 9.497,12.244 8.606,12.092 8.302 C 11.152 6.420,9.541 5.175,7.452 4.716 C 7.128 4.645,6.894 4.627,6.100 4.615 C 5.346 4.602,5.114 4.611,5.019 4.654 M6.686 6.122 C 9.160 6.374,11.087 8.382,11.230 10.856 L 11.252 11.253 10.816 11.228 C 8.884 11.117,7.131 9.821,6.424 7.977 C 6.261 7.554,6.138 6.973,6.099 6.450 L 6.072 6.080 6.172 6.080 C 6.227 6.080,6.458 6.099,6.686 6.122 M17.901 8.930 C 17.790 10.283,17.305 11.370,16.418 12.258 C 15.533 13.142,14.438 13.631,13.090 13.743 L 12.760 13.770 12.761 13.495 C 12.763 12.443,13.253 11.202,14.007 10.334 C 14.920 9.284,16.302 8.621,17.614 8.604 L 17.928 8.600 17.901 8.930 " stroke="none" fill-rule="evenodd" fill="black"></path></svg>