<svg width="24" height="24" viewBox="0 0 24 24" fill="none" xmlns="http://www.w3.org/2000/svg"><path d="M14.020 3.622 C 12.118 3.944,10.473 5.262,9.777 7.022 C 9.461 7.822,9.315 8.810,9.399 9.588 L 9.445 10.014 7.044 12.417 C 4.435 15.029,4.487 14.969,4.399 15.507 C 4.347 15.819,4.350 17.953,4.402 18.280 C 4.510 18.964,5.036 19.490,5.720 19.598 C 6.047 19.650,8.181 19.653,8.493 19.601 C 8.944 19.527,9.123 19.409,9.784 18.749 C 10.507 18.025,10.480 18.094,10.480 16.998 L 10.480 16.280 11.297 16.280 C 11.778 16.280,12.161 16.262,12.227 16.237 C 12.289 16.214,12.711 15.826,13.164 15.375 L 13.987 14.555 14.413 14.601 C 15.190 14.685,16.178 14.539,16.978 14.223 C 18.282 13.707,19.434 12.596,19.976 11.330 C 20.307 10.556,20.444 9.898,20.444 9.084 C 20.444 8.484,20.394 8.122,20.236 7.567 C 19.647 5.497,17.919 3.966,15.781 3.619 C 15.339 3.547,14.454 3.549,14.020 3.622 M15.772 5.140 C 16.296 5.248,16.946 5.551,17.394 5.896 C 18.135 6.465,18.701 7.388,18.884 8.320 C 18.957 8.697,18.946 9.552,18.863 9.940 C 18.544 11.416,17.383 12.612,15.887 13.005 C 15.448 13.121,14.680 13.149,14.237 13.065 C 13.731 12.969,13.569 12.979,13.358 13.116 C 13.260 13.179,12.829 13.584,12.400 14.016 L 11.621 14.800 10.583 14.800 C 9.607 14.800,9.535 14.805,9.370 14.885 C 9.265 14.936,9.152 15.034,9.087 15.132 L 8.980 15.294 8.968 16.377 L 8.957 17.460 8.629 17.790 L 8.302 18.120 7.091 18.120 L 5.880 18.120 5.880 16.910 L 5.880 15.700 8.343 13.240 C 9.697 11.887,10.851 10.702,10.908 10.607 C 11.003 10.448,11.009 10.410,10.985 10.127 C 10.970 9.958,10.942 9.721,10.922 9.600 C 10.826 9.018,10.921 8.227,11.161 7.603 C 11.602 6.460,12.692 5.488,13.876 5.181 C 14.446 5.033,15.181 5.017,15.772 5.140 M14.386 6.943 C 13.704 7.108,13.076 7.674,12.833 8.342 C 12.713 8.672,12.688 9.286,12.779 9.640 C 12.878 10.021,13.066 10.343,13.361 10.639 C 13.833 11.110,14.332 11.300,15.020 11.271 C 15.627 11.245,16.053 11.059,16.476 10.636 C 16.887 10.225,17.076 9.795,17.109 9.200 C 17.132 8.770,17.073 8.468,16.891 8.088 C 16.742 7.776,16.256 7.289,15.930 7.125 C 15.461 6.889,14.890 6.821,14.386 6.943 M15.283 8.491 C 15.501 8.638,15.600 8.818,15.600 9.070 C 15.600 9.612,15.092 9.949,14.620 9.720 C 14.355 9.592,14.227 9.384,14.227 9.080 C 14.227 8.885,14.245 8.821,14.338 8.699 C 14.504 8.481,14.663 8.400,14.924 8.400 C 15.091 8.400,15.183 8.423,15.283 8.491 " stroke="none" fill-rule="evenodd" fill="black"></path></svg>