<svg width="24" height="24" viewBox="0 0 24 24" fill="none" xmlns="http://www.w3.org/2000/svg"><path d="M16.820 4.497 C 16.543 4.664,16.409 4.997,16.488 5.320 C 16.527 5.477,16.621 5.589,17.211 6.187 L 17.890 6.875 16.695 6.887 L 15.500 6.900 15.240 7.017 C 14.994 7.127,14.724 7.389,10.340 11.764 L 5.700 16.395 4.873 16.408 L 4.047 16.420 3.877 16.540 C 3.420 16.863,3.446 17.526,3.926 17.800 C 4.092 17.895,4.136 17.901,4.850 17.913 C 5.263 17.920,5.715 17.908,5.854 17.887 C 6.443 17.795,6.089 18.117,11.181 13.034 L 15.821 8.400 16.839 8.400 L 17.857 8.400 17.234 9.030 C 16.593 9.678,16.530 9.758,16.475 9.999 C 16.380 10.415,16.762 10.878,17.200 10.878 C 17.487 10.878,17.628 10.761,19.028 9.354 C 20.302 8.075,20.398 7.968,20.423 7.811 C 20.454 7.614,20.454 7.627,20.422 7.420 C 20.399 7.274,20.273 7.136,19.028 5.887 C 18.276 5.132,17.611 4.489,17.552 4.457 C 17.376 4.364,17.008 4.384,16.820 4.497 M3.975 6.114 C 3.805 6.194,3.631 6.388,3.580 6.557 C 3.537 6.698,3.550 6.985,3.603 7.090 C 3.672 7.224,3.844 7.398,3.980 7.473 C 4.077 7.526,4.250 7.541,4.880 7.552 L 5.660 7.566 7.180 9.076 C 8.466 10.354,8.725 10.594,8.865 10.633 C 9.065 10.690,9.100 10.691,9.289 10.638 C 9.590 10.555,9.838 10.230,9.838 9.920 C 9.838 9.628,9.728 9.499,8.094 7.877 C 6.116 5.912,6.374 6.068,5.060 6.050 C 4.220 6.038,4.126 6.044,3.975 6.114 M16.954 12.997 C 16.636 13.098,16.439 13.330,16.409 13.637 C 16.375 13.990,16.434 14.081,17.193 14.850 L 17.894 15.560 16.825 15.560 L 15.757 15.560 14.730 14.517 C 14.165 13.943,13.651 13.446,13.587 13.413 C 13.404 13.319,13.079 13.333,12.881 13.444 C 12.548 13.631,12.409 14.089,12.585 14.416 C 12.626 14.492,13.149 15.051,13.746 15.658 C 14.728 16.655,14.859 16.773,15.106 16.890 L 15.380 17.020 16.636 17.032 L 17.893 17.044 17.208 17.733 C 16.788 18.156,16.500 18.479,16.462 18.569 C 16.386 18.752,16.382 19.000,16.454 19.172 C 16.525 19.343,16.761 19.545,16.949 19.598 C 17.136 19.649,17.143 19.649,17.340 19.596 C 17.475 19.560,17.725 19.329,18.930 18.127 C 19.946 17.114,20.373 16.662,20.405 16.566 C 20.463 16.389,20.458 16.163,20.393 16.007 C 20.333 15.865,17.642 13.144,17.477 13.058 C 17.333 12.984,17.086 12.955,16.954 12.997 " stroke="none" fill-rule="evenodd" fill="black"></path></svg>