<svg width="24" height="24" viewBox="0 0 24 24" fill="none" xmlns="http://www.w3.org/2000/svg"><path d="M10.694 7.840 C 10.625 7.856,10.508 7.906,10.434 7.952 C 10.360 7.998,9.513 8.824,8.552 9.788 C 7.360 10.982,6.784 11.587,6.742 11.689 C 6.658 11.891,6.664 12.142,6.759 12.337 C 6.811 12.444,7.451 13.112,8.609 14.268 C 10.531 16.187,10.589 16.235,10.936 16.183 C 11.386 16.115,11.666 15.713,11.582 15.253 C 11.558 15.120,11.404 14.949,10.388 13.930 L 9.222 12.760 12.963 12.760 L 16.704 12.760 16.902 12.661 C 17.191 12.516,17.300 12.335,17.300 12.000 C 17.300 11.684,17.198 11.500,16.941 11.352 L 16.780 11.260 13.010 11.240 L 9.239 11.220 10.364 10.100 C 10.982 9.484,11.513 8.922,11.544 8.851 C 11.781 8.306,11.281 7.710,10.694 7.840 " stroke="none" fill-rule="evenodd" fill="black"></path></svg>