<svg width="24" height="24" viewBox="0 0 24 24" fill="none" xmlns="http://www.w3.org/2000/svg"><path d="M11.082 4.644 C 9.440 4.856,7.934 5.596,6.765 6.765 C 5.481 8.048,4.703 9.763,4.606 11.525 C 4.492 13.602,5.125 15.416,6.512 16.984 C 6.689 17.184,6.983 17.472,7.165 17.624 L 7.496 17.900 6.298 17.920 C 4.965 17.942,4.946 17.946,4.735 18.223 C 4.608 18.390,4.564 18.709,4.638 18.933 C 4.707 19.142,4.949 19.343,5.197 19.396 C 5.481 19.457,9.359 19.457,9.643 19.396 C 9.896 19.341,10.141 19.135,10.202 18.926 C 10.230 18.828,10.240 18.022,10.232 16.497 L 10.220 14.214 10.108 14.066 C 9.798 13.660,9.202 13.660,8.892 14.066 L 8.780 14.214 8.768 15.567 C 8.762 16.311,8.747 16.920,8.736 16.920 C 8.692 16.920,8.339 16.660,8.080 16.437 C 7.551 15.982,6.929 15.140,6.617 14.456 C 6.084 13.288,5.952 11.878,6.259 10.614 C 6.781 8.455,8.455 6.781,10.615 6.258 C 11.716 5.992,12.923 6.061,14.077 6.458 C 14.427 6.578,14.602 6.585,14.820 6.485 C 15.010 6.397,15.096 6.308,15.178 6.110 C 15.312 5.789,15.205 5.401,14.933 5.217 C 14.649 5.026,13.735 4.763,13.009 4.662 C 12.528 4.596,11.526 4.586,11.082 4.644 M17.020 7.196 C 16.723 7.334,16.520 7.639,16.520 7.951 C 16.520 8.168,16.699 8.505,16.875 8.621 C 17.545 9.061,18.392 8.440,18.144 7.691 C 17.989 7.226,17.459 6.993,17.020 7.196 M18.500 10.358 C 17.820 10.522,17.611 11.330,18.130 11.786 C 18.507 12.117,19.063 12.046,19.344 11.631 C 19.501 11.400,19.537 11.190,19.461 10.935 C 19.342 10.534,18.890 10.263,18.500 10.358 M17.737 13.930 C 17.390 14.164,17.267 14.576,17.436 14.940 C 17.627 15.353,18.105 15.548,18.511 15.378 C 19.055 15.151,19.193 14.441,18.772 14.032 C 18.582 13.848,18.457 13.800,18.162 13.800 C 17.965 13.800,17.899 13.820,17.737 13.930 M15.831 16.560 C 14.972 16.818,15.064 18.041,15.952 18.183 C 16.290 18.237,16.677 18.009,16.818 17.671 C 17.079 17.045,16.476 16.366,15.831 16.560 M12.500 17.915 C 11.908 18.183,11.835 18.982,12.369 19.344 C 12.729 19.589,13.139 19.542,13.432 19.224 C 13.641 18.997,13.705 18.776,13.643 18.498 C 13.528 17.982,12.973 17.699,12.500 17.915 " stroke="none" fill-rule="evenodd" fill="black"></path></svg>