<svg width="24" height="24" viewBox="0 0 24 24" fill="none" xmlns="http://www.w3.org/2000/svg">
<path d="M5.125 7.41667V16.375C5.125 17.7557 6.24429 18.875 7.625 18.875H18.0417C18.5019 18.875 18.875 18.5019 18.875 18.0417V10.125C18.875 9.66477 18.5019 9.29167 18.0417 9.29167H15.5417M5.125 7.41667C5.125 8.4522 5.96447 9.29167 7 9.29167H15.5417M5.125 7.41667C5.125 6.15102 6.15102 5.125 7.41667 5.125H14.8907C15.2502 5.125 15.5417 5.41648 15.5417 5.77604V9.29167" stroke="black" stroke-width="1.25" stroke-linecap="square" stroke-linejoin="round"/>
<path d="M14.9165 14.7083C15.2617 14.7083 15.5415 14.4285 15.5415 14.0833C15.5415 13.7381 15.2617 13.4583 14.9165 13.4583C14.5713 13.4583 14.2915 13.7381 14.2915 14.0833C14.2915 14.4285 14.5713 14.7083 14.9165 14.7083Z" fill="black" stroke="black" stroke-width="0.416667" stroke-linejoin="round"/>
</svg>
