<svg width="24" height="24" viewBox="0 0 24 24" fill="none" xmlns="http://www.w3.org/2000/svg"><path d="M11.630 4.483 C 11.547 4.526,11.430 4.637,11.370 4.728 L 11.260 4.894 11.249 8.774 L 11.238 12.653 10.369 11.793 C 9.428 10.861,9.360 10.814,8.994 10.850 C 8.770 10.871,8.551 11.021,8.421 11.243 C 8.321 11.414,8.319 11.730,8.417 11.920 C 8.499 12.079,11.336 14.945,11.577 15.111 C 11.709 15.203,11.775 15.220,12.000 15.220 C 12.225 15.220,12.291 15.203,12.423 15.111 C 12.664 14.945,15.501 12.079,15.583 11.920 C 15.812 11.476,15.500 10.897,15.006 10.850 C 14.640 10.814,14.572 10.861,13.631 11.793 L 12.762 12.653 12.751 8.774 L 12.740 4.894 12.630 4.728 C 12.423 4.415,11.969 4.304,11.630 4.483 M4.732 13.667 C 4.641 13.725,4.525 13.847,4.474 13.937 L 4.380 14.100 4.368 16.040 C 4.361 17.273,4.373 18.082,4.400 18.260 C 4.456 18.631,4.604 18.914,4.877 19.173 C 5.145 19.428,5.373 19.542,5.720 19.598 C 6.077 19.655,17.920 19.655,18.280 19.598 C 18.423 19.576,18.635 19.510,18.750 19.452 C 19.000 19.327,19.351 18.971,19.471 18.720 C 19.625 18.398,19.644 18.084,19.632 16.040 L 19.620 14.100 19.526 13.937 C 19.249 13.453,18.555 13.426,18.250 13.888 L 18.140 14.054 18.129 16.087 L 18.118 18.120 12.000 18.120 L 5.882 18.120 5.871 16.087 L 5.860 14.054 5.750 13.888 C 5.531 13.556,5.060 13.454,4.732 13.667 " stroke="none" fill-rule="evenodd" fill="black"></path></svg>