<svg width="24" height="24" viewBox="0 0 24 24" fill="none" xmlns="http://www.w3.org/2000/svg"><path d="M5.130 4.623 C 4.891 4.741,4.704 4.939,4.584 5.198 L 4.500 5.380 4.500 12.000 L 4.500 18.620 4.584 18.802 C 4.707 19.068,4.895 19.262,5.153 19.388 L 5.380 19.500 12.000 19.500 L 18.620 19.500 18.847 19.388 C 19.105 19.262,19.293 19.068,19.416 18.802 L 19.500 18.620 19.500 12.000 L 19.500 5.380 19.416 5.198 C 19.296 4.939,19.109 4.741,18.870 4.623 L 18.664 4.520 12.000 4.520 L 5.336 4.520 5.130 4.623 M8.509 6.721 C 8.956 6.942,9.200 7.354,9.200 7.890 C 9.200 9.005,7.875 9.586,7.029 8.843 C 6.948 8.771,6.823 8.594,6.751 8.447 C 6.634 8.211,6.620 8.146,6.624 7.861 C 6.628 7.495,6.710 7.266,6.924 7.021 C 7.325 6.565,7.951 6.447,8.509 6.721 M15.416 10.519 C 16.096 10.693,16.633 11.124,16.918 11.726 C 17.193 12.306,17.203 12.416,17.229 14.970 L 17.252 17.240 16.128 17.240 L 15.004 17.240 14.991 15.190 C 14.977 12.956,14.981 12.999,14.739 12.632 C 14.325 12.005,13.257 12.211,12.873 12.992 C 12.780 13.180,12.780 13.180,12.769 15.210 L 12.758 17.240 11.639 17.240 L 10.520 17.240 10.520 13.880 L 10.520 10.520 11.600 10.520 L 12.680 10.520 12.680 10.975 L 12.680 11.430 12.990 11.121 C 13.317 10.796,13.621 10.617,14.044 10.503 C 14.369 10.416,15.043 10.424,15.416 10.519 M9.000 13.880 L 9.000 17.240 7.880 17.240 L 6.760 17.240 6.760 13.880 L 6.760 10.520 7.880 10.520 L 9.000 10.520 9.000 13.880 " stroke="none" fill-rule="evenodd"></path></svg>