<svg width="24" height="24" viewBox="0 0 24 24" fill="none" xmlns="http://www.w3.org/2000/svg">
<path fill-rule="evenodd" clip-rule="evenodd" d="M11.2538 18.3475C11.2538 18.7617 11.5895 19.0975 12.0038 19.0975C12.418 19.0975 12.7538 18.7617 12.7538 18.3475L12.7538 7.53196L16.055 10.9904C16.341 11.29 16.8157 11.3011 17.1154 11.0151C17.415 10.729 17.426 10.2543 17.14 9.95468L12.5463 5.14218C12.4047 4.99392 12.2087 4.91003 12.0038 4.91003C11.7988 4.91003 11.6028 4.99392 11.4612 5.14218L6.86749 9.95468C6.58148 10.2543 6.59252 10.729 6.89215 11.0151C7.19177 11.3011 7.66652 11.29 7.95252 10.9904L11.2538 7.53196L11.2538 18.3475Z" fill="#0E1438"/>
</svg>
