<svg width="24" height="24" viewBox="0 0 24 24" fill="none" xmlns="http://www.w3.org/2000/svg">
<path d="M8.58346 11.9999L4.99386 13.7509C4.36989 14.0553 4.36989 14.9445 4.99386 15.2489L11.6348 18.4883C11.8653 18.6008 12.1349 18.6008 12.3655 18.4883L19.0064 15.2489C19.6303 14.9445 19.6303 14.0553 19.0064 13.7509L15.4168 11.9999M8.58346 11.9999L4.99386 10.2489C4.36989 9.94453 4.36989 9.05533 4.99386 8.75096L11.6348 5.51148C11.8653 5.399 12.1349 5.39901 12.3655 5.51148L19.0064 8.75096C19.6303 9.05533 19.6303 9.94453 19.0064 10.2489L15.4168 11.9999M8.58346 11.9999L11.6348 13.4883C11.8653 13.6008 12.1349 13.6008 12.3655 13.4883L15.4168 11.9999" stroke="black" stroke-width="1.5" stroke-linecap="square" stroke-linejoin="round"/>
</svg>
