<svg width="24" height="24" viewBox="0 0 24 24" fill="none" xmlns="http://www.w3.org/2000/svg"><path d="M11.400 3.585 C 9.692 3.912,8.470 5.126,8.181 6.783 C 7.897 8.409,8.721 10.062,10.200 10.836 C 10.409 10.945,10.742 11.084,10.940 11.144 C 11.270 11.245,11.357 11.254,11.980 11.257 C 12.794 11.260,13.050 11.202,13.740 10.859 C 15.676 9.897,16.431 7.530,15.417 5.606 C 14.918 4.660,14.082 3.994,13.000 3.678 C 12.764 3.610,12.572 3.588,12.100 3.579 C 11.770 3.572,11.455 3.575,11.400 3.585 M12.500 5.100 C 13.358 5.280,14.099 5.999,14.299 6.844 C 14.493 7.670,14.258 8.501,13.659 9.099 C 12.731 10.027,11.262 10.029,10.341 9.104 C 9.861 8.621,9.640 8.091,9.640 7.420 C 9.640 6.737,9.846 6.234,10.320 5.757 C 10.912 5.162,11.685 4.929,12.500 5.100 M11.420 12.322 C 9.849 12.440,8.518 12.995,7.361 14.016 C 6.441 14.827,5.778 15.843,5.382 17.048 C 5.164 17.712,5.103 18.021,5.132 18.306 C 5.194 18.910,5.715 19.460,6.352 19.595 C 6.636 19.655,11.555 19.658,11.771 19.598 C 11.959 19.545,12.195 19.343,12.266 19.172 C 12.400 18.852,12.278 18.451,11.989 18.254 L 11.820 18.140 9.230 18.129 C 7.805 18.123,6.640 18.104,6.640 18.088 C 6.640 18.000,6.822 17.421,6.939 17.140 C 7.541 15.686,8.759 14.537,10.181 14.082 C 10.833 13.873,11.188 13.822,12.000 13.822 C 12.860 13.822,13.202 13.876,13.936 14.127 C 14.480 14.312,14.661 14.316,14.916 14.147 C 15.256 13.923,15.344 13.401,15.095 13.092 C 15.029 13.012,14.910 12.911,14.829 12.869 C 14.576 12.738,13.893 12.525,13.450 12.440 C 13.100 12.372,12.007 12.267,11.860 12.287 C 11.838 12.289,11.640 12.305,11.420 12.322 M18.512 13.642 C 18.323 13.742,18.337 13.720,17.024 15.910 C 16.415 16.928,15.907 17.760,15.896 17.760 C 15.886 17.760,15.621 17.567,15.309 17.331 C 14.996 17.095,14.678 16.870,14.602 16.831 C 14.332 16.693,13.967 16.762,13.748 16.991 C 13.523 17.228,13.485 17.663,13.668 17.914 C 13.792 18.085,15.754 19.546,15.931 19.599 C 16.018 19.625,16.157 19.634,16.243 19.620 C 16.585 19.562,16.602 19.537,18.159 16.942 C 19.576 14.580,19.617 14.504,19.617 14.303 C 19.617 14.035,19.470 13.774,19.248 13.650 C 19.044 13.535,18.721 13.531,18.512 13.642 " stroke="none" fill-rule="evenodd" fill="black"></path></svg>