<svg width="24" height="24" viewBox="0 0 24 24" fill="none" xmlns="http://www.w3.org/2000/svg">
<path d="M14.3571 14.357C13.0553 15.6588 10.9448 15.6588 9.64307 14.357M17.4504 6.54941C20.4608 9.5597 20.4608 14.4404 17.4504 17.4506C14.4402 20.4609 9.5595 20.4609 6.54923 17.4506C3.53893 14.4404 3.53893 9.55969 6.54923 6.54941C9.55952 3.53911 14.4402 3.53911 17.4504 6.54941ZM10.1248 9.91669C10.1248 10.2619 9.93829 10.5417 9.70817 10.5417C9.47805 10.5417 9.2915 10.2619 9.2915 9.91669C9.2915 9.57151 9.47805 9.29169 9.70817 9.29169C9.93829 9.29169 10.1248 9.57151 10.1248 9.91669ZM14.7082 9.91669C14.7082 10.2619 14.5216 10.5417 14.2915 10.5417C14.0614 10.5417 13.8748 10.2619 13.8748 9.91669C13.8748 9.57151 14.0614 9.29169 14.2915 9.29169C14.5216 9.29169 14.7082 9.57151 14.7082 9.91669Z" stroke="black" stroke-width="1.25" stroke-linecap="round" stroke-linejoin="round"/>
</svg>
