<svg width="24" height="24" viewBox="0 0 24 24" fill="none" xmlns="http://www.w3.org/2000/svg">
<path fill-rule="evenodd" clip-rule="evenodd" d="M8.75 4C6.12665 4 4 6.12665 4 8.75V15.25C4 17.8734 6.12665 20 8.75 20H15.25C17.8734 20 20 17.8734 20 15.25V8.75C20 6.12665 17.8734 4 15.25 4H8.75ZM5.5 8.75C5.5 6.95507 6.95508 5.5 8.75 5.5H15.25C17.0449 5.5 18.5 6.95507 18.5 8.75V15.25C18.5 17.0449 17.0449 18.5 15.25 18.5H8.75C6.95508 18.5 5.5 17.0449 5.5 15.25V8.75ZM7.41459 12.0792C7.78401 11.8945 8.23299 12.0432 8.41922 12.4114L8.41927 12.4115L8.4247 12.4217C8.43067 12.4328 8.44131 12.452 8.45673 12.4784C8.48762 12.5311 8.53733 12.6116 8.60661 12.7105C8.74581 12.9094 8.96009 13.1774 9.2545 13.445C9.83838 13.9758 10.7284 14.5 12 14.5C13.2716 14.5 14.1616 13.9758 14.7455 13.445C15.0399 13.1774 15.2542 12.9094 15.3934 12.7105C15.4627 12.6116 15.5124 12.5311 15.5433 12.4784C15.5587 12.452 15.5693 12.4328 15.5753 12.4217L15.5807 12.4115L15.5803 12.4124C15.7662 12.0435 16.2157 11.8943 16.5854 12.0792C16.9559 12.2644 17.1061 12.7149 16.9208 13.0854L16.25 12.75C16.9208 13.0854 16.9207 13.0857 16.9205 13.0861L16.9201 13.0868L16.9193 13.0884L16.9173 13.0923L16.9119 13.1028C16.9076 13.1111 16.9021 13.1217 16.8952 13.1344C16.8814 13.16 16.8622 13.1944 16.8376 13.2365C16.7884 13.3205 16.717 13.4353 16.6222 13.5707C16.4333 13.8406 16.1476 14.1976 15.7545 14.555C14.9634 15.2742 13.7284 16 12 16C10.2716 16 9.03662 15.2742 8.2455 14.555C7.85241 14.1976 7.56669 13.8406 7.37776 13.5707C7.28298 13.4353 7.2116 13.3205 7.16241 13.2365C7.13779 13.1944 7.11865 13.16 7.10484 13.1344C7.09794 13.1217 7.09236 13.1111 7.08809 13.1028L7.08266 13.0923L7.08068 13.0884L7.07987 13.0868L7.07951 13.0861C7.07934 13.0857 7.07918 13.0854 7.75 12.75L7.07918 13.0854C6.89394 12.7149 7.04411 12.2644 7.41459 12.0792ZM9 10C9 9.44772 9.44772 9 10 9C10.5523 9 11 9.44772 11 10C11 10.5523 10.5523 11 10 11C9.44772 11 9 10.5523 9 10ZM14 9C13.4477 9 13 9.44772 13 10C13 10.5523 13.4477 11 14 11C14.5523 11 15 10.5523 15 10C15 9.44772 14.5523 9 14 9Z" fill="black"/>
</svg>
