<svg width="24" height="24" viewBox="0 0 24 24" fill="none" xmlns="http://www.w3.org/2000/svg">
<path fill-rule="evenodd" clip-rule="evenodd" d="M3.6875 6.6875C3.6875 6.41136 3.91136 6.1875 4.1875 6.1875H8.09375H12H19.8125C20.0886 6.1875 20.3125 6.41136 20.3125 6.6875V17.3125C20.3125 17.5886 20.0886 17.8125 19.8125 17.8125H4.1875C3.91136 17.8125 3.6875 17.5886 3.6875 17.3125V6.6875ZM4.1875 4.6875C3.08293 4.6875 2.1875 5.58293 2.1875 6.6875V17.3125C2.1875 18.4171 3.08293 19.3125 4.1875 19.3125H19.8125C20.9171 19.3125 21.8125 18.4171 21.8125 17.3125V6.6875C21.8125 5.58293 20.9171 4.6875 19.8125 4.6875H12H8.09375H4.1875ZM10.514 10.5092C10.514 9.68851 11.1793 9.02319 12 9.02319C12.8207 9.02319 13.486 9.68851 13.486 10.5092C13.486 11.3299 12.8207 11.9952 12 11.9952C11.1793 11.9952 10.514 11.3299 10.514 10.5092ZM12 7.52319C10.3509 7.52319 9.01398 8.86008 9.01398 10.5092C9.01398 12.1584 10.3509 13.4952 12 13.4952C13.6491 13.4952 14.986 12.1584 14.986 10.5092C14.986 8.86008 13.6491 7.52319 12 7.52319ZM9.76398 14.9767C9.34976 14.9767 9.01398 15.3125 9.01398 15.7267C9.01398 16.1409 9.34976 16.4767 9.76398 16.4767H14.236C14.6502 16.4767 14.986 16.1409 14.986 15.7267C14.986 15.3125 14.6502 14.9767 14.236 14.9767H9.76398Z" fill="black"/>
</svg>
