<svg width="24" height="24" viewBox="0 0 24 24" fill="none" xmlns="http://www.w3.org/2000/svg">
<path d="M5.3335 6.66671C5.3335 6.2 5.3335 5.96664 5.42432 5.78838C5.50422 5.63158 5.6317 5.5041 5.7885 5.4242C5.96676 5.33337 6.20012 5.33337 6.66683 5.33337H10.3335V10.3334H5.3335V6.66671Z" stroke="black" stroke-width="1.25" stroke-linecap="round" stroke-linejoin="round"/>
<path d="M13.6665 5.33337H17.3332C17.7999 5.33337 18.0333 5.33337 18.2115 5.4242C18.3683 5.5041 18.4958 5.63158 18.5757 5.78838C18.6665 5.96664 18.6665 6.2 18.6665 6.66671V10.3334H13.6665V5.33337Z" stroke="black" stroke-width="1.25" stroke-linecap="round" stroke-linejoin="round"/>
<path d="M5.3335 13.6666H10.3335V18.6666H6.66683C6.20012 18.6666 5.96676 18.6666 5.7885 18.5758C5.6317 18.4959 5.50422 18.3685 5.42432 18.2116C5.3335 18.0334 5.3335 17.8 5.3335 17.3333V13.6666Z" stroke="black" stroke-width="1.25" stroke-linecap="round" stroke-linejoin="round"/>
<path d="M13.6665 13.6666H18.6665V17.3333C18.6665 17.8 18.6665 18.0334 18.5757 18.2116C18.4958 18.3685 18.3683 18.4959 18.2115 18.5758C18.0333 18.6666 17.7999 18.6666 17.3332 18.6666H13.6665V13.6666Z" stroke="black" stroke-width="1.25" stroke-linecap="round" stroke-linejoin="round"/>
</svg>
