<svg width="24" height="24" viewBox="0 0 24 24" fill="none" xmlns="http://www.w3.org/2000/svg">
<path d="M20.125 12C20.125 7.70312 16.9652 5.125 12 5.125C7.03472 5.125 3.875 7.70312 3.875 12C3.875 13.114 4.64212 15.0046 4.76208 15.2935C4.77285 15.3194 4.78351 15.3431 4.79317 15.3694C4.87574 15.5947 5.21435 16.7939 3.875 18.569C5.68056 19.4283 7.59805 18.0157 7.59805 18.0157C8.92469 18.7164 10.5032 18.875 12 18.875C16.9652 18.875 20.125 16.2968 20.125 12Z" stroke="black" stroke-width="1.5" stroke-linecap="square" stroke-linejoin="round"/>
<path d="M7.625 12C7.625 12.3452 7.90483 12.625 8.25 12.625C8.59517 12.625 8.875 12.3452 8.875 12C8.875 11.6548 8.59517 11.375 8.25 11.375C7.90483 11.375 7.625 11.6548 7.625 12ZM11.375 12C11.375 12.3452 11.6548 12.625 12 12.625C12.3452 12.625 12.625 12.3452 12.625 12C12.625 11.6548 12.3452 11.375 12 11.375C11.6548 11.375 11.375 11.6548 11.375 12ZM15.125 12C15.125 12.3452 15.4048 12.625 15.75 12.625C16.0952 12.625 16.375 12.3452 16.375 12C16.375 11.6548 16.0952 11.375 15.75 11.375C15.4048 11.375 15.125 11.6548 15.125 12Z" fill="black" stroke="black" stroke-width="0.416667" stroke-linecap="square"/>
</svg>
