<svg width="24" height="24" viewBox="0 0 24 24" fill="none" xmlns="http://www.w3.org/2000/svg"><path d="M5.652 4.674 C 5.074 4.876,4.693 5.355,4.598 6.001 C 4.551 6.320,4.574 7.455,4.643 8.200 C 4.813 10.040,5.459 11.956,6.445 13.542 C 7.398 15.075,8.924 16.601,10.456 17.554 C 11.778 18.375,13.370 18.978,14.900 19.237 C 15.527 19.343,16.054 19.390,16.960 19.421 C 18.130 19.460,18.519 19.367,18.943 18.943 C 19.205 18.680,19.343 18.400,19.398 18.019 C 19.450 17.660,19.451 15.185,19.399 14.827 C 19.346 14.459,19.188 14.142,18.939 13.900 C 18.765 13.731,18.516 13.592,17.323 13.000 L 15.913 12.300 15.486 12.301 C 15.102 12.303,15.037 12.314,14.828 12.415 C 14.686 12.484,14.460 12.657,14.246 12.860 L 13.897 13.193 13.578 13.025 C 12.403 12.406,11.627 11.627,10.966 10.402 L 10.805 10.105 11.139 9.754 C 11.511 9.364,11.664 9.090,11.711 8.732 C 11.777 8.241,11.740 8.135,10.999 6.645 C 10.239 5.118,10.143 4.981,9.660 4.740 L 9.420 4.620 7.640 4.610 C 6.008 4.602,5.843 4.607,5.652 4.674 M9.649 7.298 L 10.258 8.517 9.914 8.868 C 9.425 9.369,9.290 9.681,9.331 10.217 C 9.356 10.554,9.493 10.883,9.868 11.511 C 10.655 12.831,11.774 13.842,13.188 14.511 C 13.479 14.649,13.525 14.659,13.880 14.659 C 14.433 14.660,14.629 14.571,15.110 14.106 L 15.485 13.743 16.703 14.352 L 17.921 14.960 17.910 16.430 L 17.900 17.900 17.280 17.912 C 15.386 17.949,13.723 17.568,12.020 16.708 C 11.062 16.224,10.234 15.629,9.425 14.842 C 7.613 13.079,6.512 10.900,6.179 8.418 C 6.113 7.923,6.049 6.257,6.093 6.144 C 6.115 6.087,6.273 6.080,7.579 6.080 L 9.040 6.080 9.649 7.298 " stroke="none" fill-rule="evenodd" fill="black"></path></svg>