<svg width="24" height="24" viewBox="0 0 24 24" fill="none" xmlns="http://www.w3.org/2000/svg">
<path d="M10.3999 13.6668H8.45575L9.6718 6.6178H11.6159L10.3999 13.6668Z" fill="#15195A"/>
<path d="M17.4478 6.79011C17.0643 6.64748 16.4561 6.48999 15.704 6.48999C13.7841 6.48999 12.4321 7.44982 12.4238 8.82204C12.4078 9.83448 13.3917 10.3968 14.1277 10.7344C14.8798 11.0794 15.1355 11.3045 15.1355 11.612C15.1279 12.0843 14.5277 12.3019 13.968 12.3019C13.1918 12.3019 12.7759 12.1897 12.1438 11.927L11.8879 11.8144L11.6158 13.3967C12.0718 13.5914 12.9119 13.7643 13.7841 13.7719C15.824 13.7719 17.1521 12.8269 17.1678 11.3645C17.1756 10.5621 16.656 9.94721 15.5359 9.44479C14.8559 9.12227 14.4395 8.90476 14.4395 8.57479C14.4475 8.27476 14.7917 7.96749 15.5593 7.96749C16.1913 7.95244 16.6557 8.09487 17.0075 8.23741L17.1833 8.31227L17.4478 6.79011Z" fill="#15195A"/>
<path fill-rule="evenodd" clip-rule="evenodd" d="M20.9278 6.6178H22.4315L24 13.6667H22.1999C22.1999 13.6667 22.0237 12.8568 21.9679 12.6093H19.4718C19.3996 12.7967 19.0637 13.6667 19.0637 13.6667H17.0238L19.9116 7.20264C20.1117 6.74518 20.464 6.6178 20.9278 6.6178ZM20.8079 9.19736C20.8079 9.19736 20.1918 10.7646 20.0317 11.1696H21.6477C21.5678 10.8172 21.1996 9.12984 21.1996 9.12984L21.0638 8.5225C21.0065 8.67888 20.9238 8.89391 20.8679 9.03897C20.8301 9.13724 20.8047 9.2034 20.8079 9.19736Z" fill="#15195A"/>
<path fill-rule="evenodd" clip-rule="evenodd" d="M0.032001 6.6178H3.15995C3.58398 6.63265 3.928 6.76013 4.03993 7.21034L4.71972 10.4491L4.71992 10.4497L4.92796 11.4245L6.83196 6.6178H8.88775L5.83185 13.6594H3.77595L2.04312 7.53438C1.44524 7.20666 0.762898 6.94309 0 6.76023L0.032001 6.6178Z" fill="#15195A"/>
<path fill-rule="evenodd" clip-rule="evenodd" d="M14.2306 17.5117C14.2048 17.5164 14.1718 17.5188 14.1319 17.5188C14.0215 17.5188 13.9427 17.4859 13.8958 17.4201C13.8488 17.3543 13.8253 17.258 13.8253 17.1311V14.9672H14.1143V17.1523C14.1143 17.1992 14.1225 17.2322 14.139 17.2509C14.1554 17.2697 14.1742 17.2791 14.1953 17.2791H14.2218C14.23 17.2791 14.2423 17.2768 14.2588 17.2721L14.2975 17.4906C14.2788 17.5 14.2564 17.5071 14.2306 17.5117ZM13.3636 17.2263V17.4765H11.9962V15.1645H13.3284V15.4112H12.2887V16.1372H13.1662V16.3875H12.2887V17.2263H13.3636ZM15.4183 17.5188C15.5357 17.5188 15.6403 17.5012 15.7319 17.4659C15.8236 17.4307 15.907 17.3895 15.9822 17.3426L15.88 17.1523C15.8165 17.1922 15.7502 17.2245 15.6808 17.2492C15.6115 17.2738 15.5357 17.2862 15.4535 17.2862C15.289 17.2862 15.1557 17.2327 15.0535 17.1258C14.9513 17.0189 14.8943 16.8738 14.8826 16.6906H16.0386C16.0432 16.6694 16.0462 16.6441 16.0474 16.6148C16.0485 16.5854 16.0491 16.5555 16.0491 16.5249C16.0491 16.4027 16.0339 16.2923 16.0033 16.1936C15.9728 16.095 15.9287 16.0104 15.8712 15.9399C15.8136 15.8694 15.7419 15.8154 15.6562 15.7778C15.5704 15.7401 15.4735 15.7214 15.3654 15.7214C15.2667 15.7214 15.1716 15.7419 15.0799 15.783C14.9883 15.8242 14.9067 15.8835 14.835 15.961C14.7634 16.0386 14.7058 16.1331 14.6623 16.2447C14.6189 16.3564 14.5971 16.4826 14.5971 16.6236C14.5971 16.7646 14.6183 16.8903 14.6606 17.0007C14.7028 17.1111 14.761 17.2045 14.835 17.2809C14.909 17.3573 14.996 17.416 15.0958 17.4571C15.1956 17.4982 15.3031 17.5188 15.4183 17.5188ZM14.8791 16.4826H15.7954C15.7954 16.3088 15.7584 16.1766 15.6844 16.0861C15.6104 15.9957 15.5064 15.9505 15.3725 15.9505C15.3114 15.9505 15.2532 15.9622 15.198 15.9857C15.1428 16.0092 15.0929 16.0438 15.0482 16.0897C15.0036 16.1355 14.9666 16.1913 14.9372 16.2571C14.9079 16.3229 14.8885 16.398 14.8791 16.4826ZM17.1487 17.5188C17.2521 17.5188 17.3508 17.4994 17.4448 17.4606C17.5388 17.4219 17.6245 17.3684 17.7021 17.3003L17.5752 17.1064C17.5212 17.1534 17.4606 17.1939 17.3937 17.228C17.3267 17.2621 17.2533 17.2791 17.1734 17.2791C17.0959 17.2791 17.0242 17.2633 16.9584 17.2315C16.8926 17.1998 16.8368 17.1552 16.791 17.0976C16.7452 17.0401 16.7093 16.9714 16.6835 16.8915C16.6577 16.8115 16.6448 16.7223 16.6448 16.6236C16.6448 16.5249 16.6582 16.435 16.6853 16.354C16.7123 16.2729 16.7493 16.203 16.7963 16.1443C16.8433 16.0855 16.8997 16.0403 16.9655 16.0086C17.0313 15.9769 17.1029 15.961 17.1805 15.961C17.2486 15.961 17.3102 15.9751 17.3655 16.0033C17.4207 16.0315 17.473 16.0679 17.5223 16.1126L17.6703 15.9223C17.6093 15.8682 17.5388 15.8212 17.4589 15.7813C17.379 15.7414 17.2827 15.7214 17.1699 15.7214C17.0595 15.7214 16.9543 15.7414 16.8545 15.7813C16.7546 15.8212 16.6671 15.88 16.5919 15.9575C16.5167 16.035 16.4568 16.1296 16.4121 16.2412C16.3675 16.3528 16.3452 16.4803 16.3452 16.6236C16.3452 16.7646 16.3657 16.8908 16.4069 17.0025C16.448 17.1141 16.5044 17.208 16.576 17.2844C16.6477 17.3608 16.7329 17.4189 16.8315 17.4589C16.9302 17.4988 17.036 17.5188 17.1487 17.5188ZM18.747 17.4994C18.6918 17.5123 18.6372 17.5188 18.5831 17.5188C18.4915 17.5188 18.4146 17.5047 18.3523 17.4765C18.29 17.4483 18.2395 17.4095 18.2007 17.3602C18.162 17.3108 18.1344 17.2509 18.1179 17.1804C18.1015 17.11 18.0933 17.0324 18.0933 16.9478V15.9998H17.8395V15.7813L18.1074 15.7637L18.1426 15.2844H18.3858V15.7637H18.8475V15.9998H18.3858V16.9514C18.3858 17.0571 18.4052 17.1388 18.4439 17.1963C18.4827 17.2539 18.5514 17.2827 18.6501 17.2827C18.6807 17.2827 18.7135 17.278 18.7488 17.2686C18.784 17.2591 18.8157 17.2486 18.8439 17.2368L18.9003 17.4553C18.8534 17.4718 18.8023 17.4865 18.747 17.4994ZM19.5241 17.4765V16.3769C19.5829 16.2312 19.6516 16.129 19.7303 16.0703C19.809 16.0115 19.8848 15.9822 19.9576 15.9822C19.9929 15.9822 20.0222 15.9845 20.0457 15.9892C20.0692 15.9939 20.0951 16.001 20.1233 16.0104L20.1797 15.7566C20.1256 15.7331 20.0645 15.7214 19.9964 15.7214C19.8977 15.7214 19.8067 15.7531 19.7233 15.8165C19.6398 15.88 19.5688 15.9657 19.51 16.0738H19.4995L19.4748 15.7637H19.2351V17.4765H19.5241ZM21.3903 17.4589C21.2951 17.4988 21.1947 17.5188 21.0889 17.5188C20.9832 17.5188 20.8828 17.4988 20.7876 17.4589C20.6925 17.4189 20.6085 17.3608 20.5356 17.2844C20.4628 17.208 20.4046 17.1141 20.3612 17.0025C20.3177 16.8908 20.296 16.7646 20.296 16.6236C20.296 16.4803 20.3177 16.3528 20.3612 16.2412C20.4046 16.1296 20.4628 16.035 20.5356 15.9575C20.6085 15.88 20.6925 15.8212 20.7876 15.7813C20.8828 15.7414 20.9832 15.7214 21.0889 15.7214C21.1947 15.7214 21.2951 15.7414 21.3903 15.7813C21.4854 15.8212 21.5694 15.88 21.6423 15.9575C21.7151 16.035 21.7733 16.1296 21.8167 16.2412C21.8602 16.3528 21.8819 16.4803 21.8819 16.6236C21.8819 16.7646 21.8602 16.8908 21.8167 17.0025C21.7733 17.1141 21.7151 17.208 21.6423 17.2844C21.5694 17.3608 21.4854 17.4189 21.3903 17.4589ZM21.0889 17.2791C21.0161 17.2791 20.9491 17.2633 20.8881 17.2315C20.827 17.1998 20.7747 17.1552 20.7312 17.0976C20.6878 17.0401 20.6543 16.9714 20.6308 16.8915C20.6073 16.8115 20.5955 16.7223 20.5955 16.6236C20.5955 16.5249 20.6073 16.435 20.6308 16.354C20.6543 16.2729 20.6878 16.203 20.7312 16.1443C20.7747 16.0855 20.827 16.0403 20.8881 16.0086C20.9491 15.9769 21.0161 15.961 21.0889 15.961C21.1618 15.961 21.2288 15.9769 21.2898 16.0086C21.3509 16.0403 21.4032 16.0855 21.4467 16.1443C21.4901 16.203 21.5236 16.2729 21.5471 16.354C21.5706 16.435 21.5823 16.5249 21.5823 16.6236C21.5823 16.7223 21.5706 16.8115 21.5471 16.8915C21.5236 16.9714 21.4901 17.0401 21.4467 17.0976C21.4032 17.1552 21.3509 17.1998 21.2898 17.2315C21.2288 17.2633 21.1618 17.2791 21.0889 17.2791ZM22.622 16.2359V17.4765H22.333V15.7637H22.5727L22.5974 16.0104H22.6079C22.6901 15.9281 22.7765 15.8594 22.867 15.8042C22.9574 15.749 23.0626 15.7214 23.1824 15.7214C23.3633 15.7214 23.4955 15.7778 23.5789 15.8905C23.6623 16.0033 23.704 16.1701 23.704 16.391V17.4765H23.415V16.4298C23.415 16.2676 23.3892 16.1507 23.3375 16.0791C23.2858 16.0074 23.2035 15.9716 23.0908 15.9716C23.0015 15.9716 22.9228 15.9939 22.8546 16.0386C22.7865 16.0832 22.709 16.149 22.622 16.2359Z" fill="#15195A"/>
</svg>
