<svg width="24" height="24" viewBox="0 0 24 24" fill="none" xmlns="http://www.w3.org/2000/svg"><path d="M14.178 4.662 C 14.111 4.695,12.615 6.166,10.854 7.931 C 7.198 11.596,7.460 11.281,7.460 12.000 C 7.460 12.719,7.195 12.401,10.875 16.090 C 13.232 18.452,14.135 19.332,14.234 19.365 C 14.700 19.518,15.186 19.226,15.230 18.766 C 15.269 18.360,15.406 18.515,12.026 15.130 L 8.901 12.000 12.026 8.870 C 14.562 6.330,15.161 5.711,15.200 5.585 C 15.359 5.084,15.014 4.599,14.501 4.601 C 14.390 4.601,14.245 4.629,14.178 4.662 " stroke="none" fill-rule="evenodd" fill="black"></path></svg>