<svg width="24" height="24" viewBox="0 0 24 24" fill="none" xmlns="http://www.w3.org/2000/svg"><path d="M13.860 3.894 C 13.573 3.969,13.337 4.101,13.146 4.293 C 13.047 4.393,12.601 5.094,12.033 6.040 L 11.087 7.620 8.306 8.436 C 6.543 8.953,5.448 9.294,5.313 9.367 C 4.577 9.769,4.296 10.668,4.665 11.438 C 4.752 11.621,5.060 11.949,6.395 13.290 L 8.019 14.921 6.351 16.590 C 5.434 17.509,4.665 18.311,4.642 18.373 C 4.588 18.518,4.588 18.804,4.643 18.947 C 4.700 19.101,4.873 19.278,5.029 19.345 C 5.182 19.410,5.470 19.417,5.627 19.358 C 5.689 19.335,6.491 18.565,7.410 17.649 L 9.080 15.982 10.710 17.605 C 12.052 18.942,12.379 19.248,12.562 19.335 C 13.183 19.633,13.892 19.514,14.373 19.032 C 14.489 18.915,14.623 18.739,14.670 18.640 C 14.717 18.541,15.100 17.290,15.519 15.860 C 15.939 14.430,16.309 13.179,16.341 13.080 L 16.400 12.899 17.970 11.960 C 18.913 11.395,19.606 10.954,19.707 10.854 C 20.210 10.355,20.301 9.521,19.918 8.920 C 19.855 8.821,18.754 7.695,17.472 6.417 C 15.336 4.289,15.119 4.085,14.895 3.987 C 14.596 3.857,14.155 3.817,13.860 3.894 M16.476 7.536 C 17.973 9.033,18.644 9.731,18.629 9.772 C 18.616 9.805,17.907 10.252,17.053 10.764 C 15.454 11.724,15.216 11.898,15.060 12.220 C 15.018 12.308,14.612 13.639,14.158 15.178 C 13.686 16.776,13.311 17.983,13.281 17.993 C 13.215 18.015,5.995 10.798,6.009 10.724 C 6.016 10.687,6.960 10.391,8.820 9.843 C 10.360 9.389,11.692 8.982,11.780 8.940 C 12.109 8.781,12.307 8.516,13.177 7.060 C 14.231 5.298,14.192 5.360,14.251 5.360 C 14.278 5.360,15.279 6.339,16.476 7.536 " stroke="none" fill-rule="evenodd" fill="black"></path></svg>