<svg width="24" height="24" viewBox="0 0 24 24" fill="none" xmlns="http://www.w3.org/2000/svg"><path d="M3.260 2.907 C 3.084 3.000,3.001 3.082,2.916 3.248 C 2.823 3.430,2.818 3.720,2.904 3.892 C 2.939 3.962,3.610 4.665,4.394 5.453 L 5.820 6.886 5.622 7.053 C 4.535 7.969,3.710 8.883,2.958 10.007 C 2.594 10.551,2.478 10.783,2.360 11.211 C 2.132 12.034,2.271 12.910,2.750 13.675 C 3.916 15.533,5.584 17.140,7.320 18.079 C 8.445 18.688,9.733 19.099,10.960 19.242 C 11.454 19.299,12.602 19.300,13.060 19.243 C 14.223 19.098,15.327 18.761,16.398 18.224 L 16.908 17.968 18.424 19.487 C 19.258 20.322,20.007 21.040,20.088 21.083 C 20.358 21.223,20.773 21.153,20.965 20.934 C 21.169 20.702,21.218 20.348,21.083 20.088 C 20.964 19.861,4.057 2.978,3.871 2.901 C 3.681 2.823,3.414 2.825,3.260 2.907 M11.060 4.748 C 10.742 4.776,10.502 4.844,10.372 4.944 C 9.937 5.275,10.008 5.962,10.501 6.201 C 10.685 6.290,10.694 6.290,11.305 6.240 C 13.855 6.028,16.283 6.992,18.300 9.018 C 19.128 9.848,20.013 11.038,20.164 11.522 C 20.367 12.176,20.223 12.604,19.440 13.660 C 19.213 13.967,19.069 14.202,19.041 14.312 C 18.891 14.909,19.547 15.418,20.103 15.136 C 20.275 15.048,20.841 14.331,21.235 13.703 C 21.635 13.064,21.816 12.313,21.729 11.659 C 21.632 10.938,21.391 10.450,20.620 9.419 C 19.867 8.412,19.042 7.569,18.111 6.855 C 16.612 5.706,14.783 4.952,13.032 4.762 C 12.674 4.723,11.436 4.714,11.060 4.748 M8.820 10.420 C 8.275 11.515,8.328 12.776,8.963 13.851 C 9.199 14.251,9.807 14.847,10.213 15.076 C 11.271 15.673,12.503 15.711,13.580 15.179 L 13.940 15.001 14.850 15.910 C 15.351 16.410,15.760 16.834,15.760 16.851 C 15.760 16.933,14.596 17.389,14.014 17.536 C 13.190 17.744,12.912 17.777,12.000 17.776 C 11.066 17.775,10.760 17.737,9.932 17.518 C 7.702 16.930,5.639 15.341,4.138 13.059 C 3.823 12.580,3.780 12.450,3.781 11.980 C 3.783 11.486,3.843 11.346,4.371 10.608 C 5.038 9.674,5.740 8.908,6.499 8.285 L 6.897 7.957 7.948 9.009 L 8.999 10.060 8.820 10.420 M11.470 12.530 C 12.201 13.261,12.800 13.871,12.800 13.885 C 12.800 13.945,12.286 14.047,11.985 14.046 C 11.036 14.042,10.187 13.359,9.998 12.449 C 9.923 12.088,10.007 11.200,10.116 11.200 C 10.129 11.200,10.738 11.798,11.470 12.530 " stroke="none" fill-rule="evenodd"></path></svg>