<svg width="24" height="24" viewBox="0 0 24 24" fill="none" xmlns="http://www.w3.org/2000/svg"><path d="M10.842 3.625 C 8.088 3.999,5.651 5.758,4.420 8.260 C 3.823 9.474,3.555 10.633,3.555 12.000 C 3.555 13.367,3.823 14.526,4.420 15.740 C 5.528 17.992,7.629 19.665,10.068 20.235 C 11.289 20.521,12.711 20.521,13.932 20.235 C 16.368 19.666,18.473 17.990,19.580 15.740 C 19.992 14.903,20.250 14.064,20.383 13.132 C 20.464 12.565,20.464 11.435,20.383 10.868 C 20.030 8.395,18.682 6.273,16.600 4.911 C 15.563 4.233,14.346 3.783,13.108 3.622 C 12.525 3.546,11.415 3.547,10.842 3.625 M13.140 5.146 C 15.063 5.444,16.865 6.655,17.923 8.361 C 18.380 9.097,18.712 9.996,18.864 10.904 C 18.954 11.440,18.954 12.560,18.864 13.096 C 18.527 15.109,17.367 16.851,15.657 17.912 C 14.869 18.400,13.970 18.732,13.020 18.886 C 12.607 18.952,11.392 18.952,10.980 18.886 C 8.609 18.503,6.608 16.982,5.658 14.841 C 5.427 14.320,5.216 13.618,5.135 13.106 C 5.049 12.564,5.049 11.436,5.135 10.894 C 5.494 8.618,7.050 6.594,9.159 5.658 C 9.883 5.337,10.754 5.119,11.520 5.065 C 11.889 5.040,12.718 5.081,13.140 5.146 M12.291 9.019 C 11.295 9.294,10.388 9.565,10.275 9.622 C 10.017 9.753,9.724 10.044,9.608 10.284 C 9.559 10.385,9.294 11.291,9.019 12.298 C 8.452 14.376,8.444 14.435,8.642 14.832 C 8.780 15.108,8.928 15.249,9.220 15.386 C 9.570 15.549,9.687 15.530,11.702 14.981 C 12.709 14.706,13.615 14.441,13.716 14.393 C 13.952 14.279,14.279 13.952,14.393 13.716 C 14.441 13.615,14.706 12.709,14.981 11.702 C 15.548 9.624,15.556 9.565,15.358 9.168 C 15.154 8.761,14.838 8.556,14.380 8.534 C 14.124 8.522,13.945 8.563,12.291 9.019 M13.815 10.264 C 13.801 10.321,13.624 10.973,13.422 11.712 L 13.055 13.056 11.620 13.447 C 10.831 13.662,10.180 13.833,10.173 13.827 C 10.167 13.820,10.338 13.169,10.553 12.380 L 10.944 10.944 12.362 10.555 C 13.142 10.341,13.794 10.164,13.811 10.163 C 13.828 10.161,13.830 10.207,13.815 10.264 " stroke="none" fill-rule="evenodd" fill="black"></path></svg>