<svg width="24" height="24" viewBox="0 0 24 24" fill="none" xmlns="http://www.w3.org/2000/svg"><path d="M11.640 4.479 C 11.563 4.520,10.615 5.442,9.534 6.527 C 7.646 8.422,7.567 8.508,7.529 8.691 C 7.412 9.258,7.902 9.743,8.447 9.599 C 8.599 9.559,8.778 9.396,9.930 8.248 L 11.240 6.942 11.241 10.781 C 11.242 14.432,11.245 14.628,11.316 14.780 C 11.453 15.075,11.697 15.240,12.000 15.240 C 12.303 15.240,12.547 15.075,12.684 14.780 C 12.755 14.628,12.758 14.432,12.759 10.781 L 12.760 6.942 14.070 8.248 C 15.222 9.396,15.401 9.559,15.553 9.599 C 16.098 9.743,16.588 9.258,16.471 8.691 C 16.433 8.508,16.354 8.422,14.466 6.527 C 13.385 5.442,12.433 4.519,12.352 4.477 C 12.159 4.377,11.828 4.378,11.640 4.479 M4.795 11.960 C 4.608 12.059,4.454 12.243,4.402 12.431 C 4.345 12.634,4.346 17.927,4.402 18.280 C 4.458 18.627,4.572 18.855,4.827 19.123 C 5.081 19.390,5.367 19.542,5.720 19.598 C 6.078 19.655,17.922 19.655,18.280 19.598 C 18.633 19.542,18.919 19.390,19.173 19.123 C 19.428 18.855,19.542 18.627,19.598 18.280 C 19.654 17.927,19.655 12.634,19.598 12.431 C 19.485 12.024,19.003 11.775,18.613 11.922 C 18.444 11.986,18.204 12.238,18.160 12.399 C 18.136 12.485,18.120 13.627,18.120 15.330 L 18.120 18.120 12.000 18.120 L 5.880 18.120 5.880 15.330 C 5.880 13.627,5.864 12.485,5.840 12.399 C 5.796 12.238,5.556 11.986,5.387 11.922 C 5.217 11.858,4.957 11.875,4.795 11.960 " stroke="none" fill-rule="evenodd" fill="black"></path></svg>