<svg width="24" height="24" viewBox="0 0 24 24" fill="none" xmlns="http://www.w3.org/2000/svg"><path d="M4.140 5.515 C 3.981 5.614,3.855 5.755,3.803 5.893 C 3.773 5.970,3.760 7.742,3.760 11.626 C 3.760 17.843,3.745 17.475,4.016 17.870 C 4.190 18.123,4.499 18.370,4.786 18.486 L 5.020 18.580 12.320 18.580 C 16.335 18.580,19.669 18.566,19.729 18.549 C 19.881 18.507,20.121 18.287,20.186 18.132 C 20.319 17.815,20.199 17.413,19.912 17.214 L 19.747 17.100 12.503 17.080 L 5.260 17.060 5.240 11.480 C 5.225 7.340,5.208 5.879,5.173 5.820 C 5.114 5.718,4.926 5.543,4.813 5.485 C 4.671 5.412,4.277 5.430,4.140 5.515 M14.275 7.119 C 13.987 7.206,13.760 7.519,13.760 7.830 C 13.760 8.041,13.817 8.191,13.953 8.334 C 14.171 8.564,14.229 8.577,15.151 8.599 L 16.002 8.620 14.422 10.197 L 12.843 11.775 12.467 11.411 C 12.260 11.210,12.001 11.001,11.891 10.945 C 11.450 10.722,10.870 10.723,10.424 10.947 C 10.148 11.087,7.280 13.931,7.155 14.191 C 6.866 14.787,7.518 15.451,8.131 15.184 C 8.203 15.153,8.892 14.494,9.680 13.704 C 10.461 12.921,11.125 12.280,11.156 12.280 C 11.187 12.280,11.372 12.434,11.567 12.623 C 12.116 13.152,12.611 13.330,13.165 13.200 C 13.628 13.091,13.694 13.035,15.430 11.307 L 17.080 9.664 17.081 10.482 C 17.082 11.192,17.092 11.321,17.156 11.460 C 17.245 11.654,17.372 11.776,17.569 11.858 C 17.967 12.024,18.416 11.806,18.541 11.384 C 18.629 11.088,18.628 7.908,18.540 7.611 C 18.469 7.374,18.282 7.186,18.051 7.122 C 17.873 7.073,14.437 7.070,14.275 7.119 " stroke="none" fill-rule="evenodd" fill="black"></path></svg>