<svg width="24" height="24" viewBox="0 0 24 24" fill="none" xmlns="http://www.w3.org/2000/svg">
<path fill-rule="evenodd" clip-rule="evenodd" d="M13.1242 6.19016C12.6633 5.27014 11.3504 5.26989 10.8892 6.18975L5.62614 16.6868C5.20939 17.518 5.81373 18.497 6.74356 18.497H17.2648C18.1944 18.497 18.7987 17.5184 18.3824 16.6872L13.1242 6.19016ZM9.54826 5.51745C10.5629 3.49377 13.4514 3.4943 14.4653 5.51835L19.7235 16.0154C20.6395 17.844 19.3099 19.997 17.2648 19.997H6.74356C4.69793 19.997 3.36839 17.8431 4.28524 16.0145L9.54826 5.51745ZM12.0035 8.99701C12.5558 8.99701 13.0035 9.44472 13.0035 9.99701V11.997C13.0035 12.5493 12.5558 12.997 12.0035 12.997C11.4512 12.997 11.0035 12.5493 11.0035 11.997V9.99701C11.0035 9.44472 11.4512 8.99701 12.0035 8.99701ZM12.0035 14.997C11.4512 14.997 11.0035 15.4447 11.0035 15.997C11.0035 16.5493 11.4512 16.997 12.0035 16.997C12.5558 16.997 13.0035 16.5493 13.0035 15.997C13.0035 15.4447 12.5558 14.997 12.0035 14.997Z" fill="black"/>
</svg>
