<svg width="24" height="24" viewBox="0 0 24 24" fill="none" xmlns="http://www.w3.org/2000/svg"><path d="M4.441 5.104 C 3.917 5.245,3.523 5.622,3.336 6.160 C 3.263 6.372,3.260 6.577,3.260 12.000 C 3.260 17.423,3.263 17.628,3.336 17.840 C 3.522 18.376,3.928 18.764,4.449 18.903 C 4.764 18.987,19.236 18.987,19.551 18.903 C 20.067 18.766,20.480 18.371,20.664 17.840 C 20.737 17.628,20.740 17.423,20.740 12.000 C 20.740 6.577,20.737 6.372,20.664 6.160 C 20.474 5.613,20.081 5.243,19.542 5.102 C 19.330 5.047,18.475 5.040,11.982 5.043 C 5.668 5.045,4.630 5.053,4.441 5.104 M18.560 6.537 C 18.560 6.589,12.063 11.860,12.000 11.860 C 11.937 11.860,5.440 6.589,5.440 6.537 C 5.440 6.528,8.392 6.520,12.000 6.520 C 15.608 6.520,18.560 6.528,18.560 6.537 M7.944 10.542 C 9.858 12.107,11.180 13.161,11.303 13.220 C 11.733 13.423,12.267 13.423,12.697 13.220 C 12.820 13.161,14.144 12.106,16.060 10.538 L 19.220 7.953 19.230 12.662 C 19.238 16.109,19.228 17.386,19.195 17.426 C 19.133 17.501,4.883 17.507,4.808 17.432 C 4.771 17.395,4.760 16.284,4.760 12.672 C 4.760 10.080,4.767 7.960,4.774 7.960 C 4.782 7.960,6.209 9.122,7.944 10.542 " stroke="none" fill-rule="evenodd"></path></svg>