<svg width="20" height="20" viewBox="0 0 20 20" fill="none" xmlns="http://www.w3.org/2000/svg">
<path d="M18 10C18 7.87827 17.1571 5.84344 15.6569 4.34315C14.1566 2.84285 12.1217 2 10 2M18 10H2M18 10C18 10.7658 17.893 11.5062 17.691 12.2069M10 2C7.87827 2 5.84344 2.84285 4.34315 4.34315C2.84285 5.84344 2 7.87827 2 10M10 2C8.62841 2 6.41379 5.03448 6.41379 10C6.41379 10.7857 6.46897 11.5228 6.56828 12.2069M10 2C11.3716 2 13.5862 5.03448 13.5862 10C13.5862 10.7857 13.531 11.5228 13.4317 12.2069M2 10C2 10.7658 2.10703 11.5062 2.30897 12.2069M2.55172 15.2414L3.10345 18L4.48276 16.3448L5.86207 18L6.41379 15.2414M8.06897 15.2414L8.62069 18L10 16.3448L11.3793 18L11.931 15.2414M13.5862 15.2414L14.1379 18L15.5172 16.3448L16.8966 18L17.4483 15.2414" stroke="black" stroke-width="1.5" stroke-linecap="round" stroke-linejoin="round"/>
</svg>
