<svg width="24" height="24" viewBox="0 0 24 24" fill="none" xmlns="http://www.w3.org/2000/svg"><path d="M10.015 7.994 C 9.698 8.143,9.547 8.476,9.618 8.868 C 9.642 9.002,9.825 9.200,11.132 10.510 L 12.619 12.000 11.132 13.490 C 9.513 15.113,9.563 15.048,9.610 15.462 C 9.663 15.933,10.214 16.216,10.658 16.001 C 10.765 15.949,11.357 15.385,12.369 14.370 C 14.152 12.581,14.140 12.597,14.140 12.000 C 14.140 11.405,14.148 11.415,12.409 9.670 C 11.580 8.839,10.832 8.110,10.749 8.052 C 10.545 7.911,10.244 7.887,10.015 7.994 " stroke="none" fill-rule="evenodd" fill="black"></path></svg>