<svg width="24" height="24" viewBox="0 0 24 24" fill="none" xmlns="http://www.w3.org/2000/svg"><path d="M11.598 4.715 C 11.500 4.779,10.274 5.980,8.874 7.385 C 6.197 10.071,6.239 10.024,6.241 10.360 C 6.243 10.602,6.493 10.947,6.733 11.037 C 6.876 11.092,7.122 11.092,7.267 11.038 C 7.329 11.015,8.248 10.129,9.310 9.068 L 11.240 7.140 11.240 12.944 C 11.240 17.242,11.252 18.783,11.286 18.884 C 11.397 19.208,11.662 19.400,12.000 19.400 C 12.338 19.400,12.603 19.208,12.714 18.884 C 12.748 18.783,12.760 17.242,12.760 12.944 L 12.760 7.140 14.690 9.068 C 15.752 10.129,16.671 11.015,16.733 11.038 C 16.878 11.092,17.124 11.092,17.267 11.037 C 17.504 10.948,17.757 10.602,17.759 10.365 C 17.762 10.032,17.794 10.068,15.123 7.385 C 13.724 5.980,12.500 4.779,12.402 4.715 C 12.260 4.623,12.179 4.600,12.000 4.600 C 11.821 4.600,11.740 4.623,11.598 4.715 " stroke="none" fill-rule="evenodd" fill="black"></path></svg>