<svg width="24" height="24" viewBox="0 0 24 24" fill="none" xmlns="http://www.w3.org/2000/svg">
<path fill-rule="evenodd" clip-rule="evenodd" d="M6.74823 4C5.78173 4 4.99823 4.7835 4.99823 5.75V14.25C4.99823 14.2921 5.0017 14.3334 5.00838 14.3736L4.2682 17.8895C4.03921 18.9772 4.86911 20 5.98066 20H18.0158C19.1273 20 19.9572 18.9772 19.7282 17.8895L18.9881 14.3737C18.9948 14.3335 18.9982 14.2922 18.9982 14.25V5.75C18.9982 4.7835 18.2147 4 17.2482 4H6.74823ZM17.587 15H6.40939L5.73602 18.1985C5.70331 18.3539 5.82187 18.5 5.98066 18.5H18.0158C18.1746 18.5 18.2931 18.3539 18.2604 18.1985L17.587 15ZM6.49823 5.75C6.49823 5.61193 6.61016 5.5 6.74823 5.5H17.2482C17.3863 5.5 17.4982 5.61193 17.4982 5.75V13.5H6.49823V5.75Z" fill="#141414"/>
</svg>
