<svg width="24" height="24" viewBox="0 0 24 24" fill="none" xmlns="http://www.w3.org/2000/svg">
<path d="M12.2083 19.9167C16.4655 19.9167 19.9167 16.4655 19.9167 12.2083C19.9167 7.95114 16.4655 4.5 12.2083 4.5M12.2083 19.9167C7.95114 19.9167 4.5 16.4655 4.5 12.2083C4.5 7.95114 7.95114 4.5 12.2083 4.5M12.2083 19.9167C10.2523 19.9167 8.66667 16.4655 8.66667 12.2083C8.66667 7.95114 10.2523 4.5 12.2083 4.5M12.2083 19.9167C14.1643 19.9167 15.75 16.4655 15.75 12.2083C15.75 7.95114 14.1643 4.5 12.2083 4.5M19.7083 12.2083H4.70833" stroke="black" stroke-width="1.25" stroke-linecap="square"/>
</svg>
