<svg width="24" height="24" viewBox="0 0 24 24" fill="none" xmlns="http://www.w3.org/2000/svg">
<path fill-rule="evenodd" clip-rule="evenodd" d="M12 2.25C6.61704 2.25 2.25 6.61704 2.25 12C2.25 17.383 6.61704 21.75 12 21.75C17.383 21.75 21.75 17.383 21.75 12C21.75 6.61704 17.383 2.25 12 2.25ZM3.75 12C3.75 7.44546 7.44546 3.75 12 3.75C16.5545 3.75 20.25 7.44546 20.25 12C20.25 16.5545 16.5545 20.25 12 20.25C7.44546 20.25 3.75 16.5545 3.75 12ZM15.5049 12.4359L10.14 15.6769C10.0631 15.7229 9.97534 15.7477 9.8857 15.7487C9.79607 15.7496 9.70779 15.7267 9.62993 15.6823C9.55206 15.6379 9.48742 15.5736 9.44262 15.4959C9.39782 15.4183 9.37449 15.3301 9.37501 15.2405V8.75953C9.37449 8.66989 9.39782 8.58172 9.44262 8.50408C9.48742 8.42643 9.55206 8.3621 9.62993 8.31768C9.70779 8.27326 9.79607 8.25035 9.8857 8.25131C9.97534 8.25227 10.0631 8.27705 10.14 8.32312L15.5049 11.5641C15.5796 11.6096 15.6414 11.6736 15.6843 11.75C15.7272 11.8263 15.7497 11.9124 15.7497 12C15.7497 12.0876 15.7272 12.1737 15.6843 12.25C15.6414 12.3263 15.5796 12.3904 15.5049 12.4359Z" fill="black"/>
</svg>
