<svg width="24" height="24" viewBox="0 0 24 24" fill="none" xmlns="http://www.w3.org/2000/svg"><path d="M15.065 2.065 C 14.272 2.236,13.677 2.564,13.080 3.161 C 12.634 3.607,12.429 3.910,12.211 4.440 C 12.004 4.947,11.872 5.713,11.956 5.930 C 12.007 6.063,12.127 6.072,12.589 5.977 C 13.631 5.762,14.474 5.121,15.033 4.120 C 15.407 3.451,15.664 1.990,15.406 2.003 C 15.369 2.005,15.216 2.033,15.065 2.065 M14.517 6.300 C 14.238 6.352,13.841 6.483,12.834 6.854 C 12.130 7.113,12.014 7.104,10.953 6.696 C 10.572 6.550,10.098 6.396,9.900 6.355 C 8.631 6.093,7.215 6.584,6.245 7.623 C 4.912 9.050,4.542 11.268,5.200 13.880 C 5.557 15.299,6.162 16.564,7.056 17.762 C 8.005 19.033,8.646 19.494,9.463 19.490 C 9.846 19.488,10.061 19.432,10.802 19.137 C 11.462 18.875,11.803 18.800,12.324 18.800 C 12.829 18.800,13.218 18.880,13.711 19.086 C 14.466 19.401,14.660 19.452,15.120 19.456 C 15.609 19.461,15.849 19.400,16.237 19.171 C 17.072 18.681,18.323 16.941,18.892 15.480 C 19.162 14.785,19.166 14.864,18.852 14.706 C 17.936 14.245,17.218 13.352,16.911 12.296 C 16.832 12.022,16.820 11.890,16.820 11.300 C 16.820 10.564,16.840 10.451,17.088 9.825 C 17.326 9.224,17.905 8.493,18.427 8.134 C 18.544 8.053,18.640 7.963,18.640 7.934 C 18.640 7.848,17.923 7.147,17.645 6.961 C 17.277 6.714,16.708 6.456,16.318 6.357 C 15.877 6.246,14.957 6.217,14.517 6.300 " stroke="none" fill-rule="evenodd"></path></svg>