<svg width="24" height="24" viewBox="0 0 24 24" fill="none" xmlns="http://www.w3.org/2000/svg">
<path d="M10.4241 4.50042L14.007 4.50098C14.1719 4.50098 14.2734 4.5062 14.3113 4.51664C14.6538 4.61041 14.6645 5.12474 14.3145 5.23247C14.2744 5.2448 14.2083 5.2509 14.1162 5.25078C13.1906 5.24977 12.2649 5.25046 11.3392 5.25285C11.1342 5.25337 10.9294 5.25281 10.7246 5.25225C10.409 5.25138 10.0936 5.25052 9.77806 5.25361C9.72712 5.2453 9.67856 5.2309 9.6324 5.2104C9.34392 5.08153 9.36543 4.64645 9.64599 4.5323C9.69139 4.51381 9.75863 4.504 9.84768 4.50287C10.0398 4.50023 10.2319 4.49941 10.4241 4.50042Z" fill="#4389EE"/>
<path fill-rule="evenodd" clip-rule="evenodd" d="M6.38267 10.3145C6.38267 9.10257 6.38267 8.49662 6.58448 8.02003C6.84274 7.41012 7.3282 6.92466 7.93811 6.6664C8.4147 6.46459 9.02065 6.46459 10.2326 6.46459H13.7825C14.9944 6.46459 15.6004 6.46459 16.077 6.6664C16.6869 6.92466 17.1723 7.41012 17.4306 8.02003C17.6324 8.49662 17.6324 9.10257 17.6324 10.3145V13.8617C17.6324 15.0736 17.6324 15.6795 17.4306 16.1561C17.1723 16.766 16.6869 17.2515 16.077 17.5097C15.6004 17.7115 14.9944 17.7115 13.7825 17.7115H10.2326C9.02065 17.7115 8.4147 17.7115 7.93811 17.5097C7.3282 17.2515 6.84274 16.766 6.58448 16.1561C6.38267 15.6795 6.38267 15.0736 6.38267 13.8617V10.3145ZM13.1583 8.8682C13.1083 9.0004 13.0359 9.14782 12.9412 9.31046C12.7172 9.69498 12.4938 10.0801 12.2712 10.4657L10.9569 12.7343C10.9565 12.7351 10.9563 12.7359 10.9563 12.7367C10.9563 12.7375 10.9565 12.7384 10.9569 12.7391C10.9573 12.7398 10.9579 12.7404 10.9586 12.7407C10.9593 12.7411 10.9601 12.7413 10.9609 12.7413C11.4296 12.7396 11.8947 12.7407 12.3561 12.7447C12.4535 12.7456 12.5318 12.7543 12.5912 12.7709C13.0033 12.887 13.2423 13.3194 13.0908 13.7264C13.0888 13.7319 13.0852 13.7366 13.0804 13.7399C13.0756 13.7432 13.07 13.7449 13.0642 13.7449C11.5822 13.7428 10.0973 13.742 8.6128 13.7441C8.47356 13.7443 8.32073 13.7279 8.2047 13.6498C7.9598 13.4856 7.91621 13.1809 8.08772 12.9417C8.2013 12.814 8.34922 12.7488 8.53148 12.746C8.95084 12.7397 9.36762 12.7379 9.78183 12.7406C9.78549 12.7406 9.78909 12.7396 9.79227 12.7378C9.79545 12.736 9.79809 12.7333 9.79994 12.7302L11.1086 10.4727L11.4152 9.94837C11.4184 9.94281 11.4194 9.93624 11.4178 9.93006C11.4146 9.91749 11.4086 9.90409 11.3999 9.88988C11.2483 9.64083 11.0848 9.35624 10.9093 9.03612C10.8521 8.93172 10.8325 8.81997 10.8505 8.70085C10.9178 8.38614 11.2439 8.20671 11.5376 8.33841C11.7226 8.42158 11.8466 8.65237 11.9471 8.83943C11.9626 8.86831 11.9776 8.89626 11.9921 8.92235C11.9933 8.92435 11.9949 8.926 11.9969 8.92714C11.9989 8.92828 12.0011 8.92886 12.0034 8.92882C12.0057 8.92878 12.0079 8.92812 12.0098 8.92692C12.0118 8.92571 12.0134 8.92401 12.0144 8.92198L12.0179 8.91518C12.0964 8.76174 12.1884 8.58179 12.3063 8.45387C12.5578 8.18124 13.0134 8.28067 13.1336 8.62783C13.1534 8.68494 13.1616 8.76506 13.1583 8.8682ZM12.9578 10.585L13.9247 12.2519C14.014 12.4086 14.1033 12.5628 14.1925 12.7145C14.2092 12.7429 14.2176 12.7425 14.2411 12.7414L14.2528 12.7409C14.5042 12.7352 14.9113 12.7365 15.4743 12.7451C15.7796 12.7498 16.0453 12.9647 16.0139 13.2887C16.0032 13.4002 15.9582 13.4975 15.8788 13.5804C15.7334 13.7325 15.5789 13.7361 15.3511 13.7415L15.3358 13.7419C15.1572 13.746 14.9787 13.7465 14.8002 13.7432C14.799 13.7432 14.7978 13.7434 14.7967 13.744C14.7957 13.7446 14.7948 13.7455 14.7942 13.7465C14.7936 13.7475 14.7933 13.7487 14.7932 13.7499L14.7933 13.7511C14.7935 13.7519 14.7937 13.7527 14.7942 13.7534L15.2324 14.5181C15.3994 14.7539 15.4004 15.0752 15.1547 15.2573C14.9406 15.4162 14.6102 15.3762 14.4559 15.1445C14.3339 14.9614 14.2255 14.7728 14.1162 14.5827L14.0753 14.5117C13.5795 13.6567 13.0836 12.8018 12.5876 11.947C12.3008 11.4529 12.2901 10.951 12.5553 10.4414C12.6021 10.3557 12.6582 10.2775 12.7235 10.2067C12.7245 10.2056 12.7257 10.2048 12.7271 10.2042C12.7284 10.2037 12.7299 10.2035 12.7314 10.2037C12.7328 10.2038 12.7342 10.2043 12.7354 10.2051C12.7366 10.2059 12.7376 10.2069 12.7384 10.2082L12.9578 10.585ZM9.62598 15.0277C9.74271 14.8276 9.85868 14.6277 9.9739 14.4281L10.0633 14.2758C10.0665 14.2707 10.066 14.2658 10.062 14.2613C9.80441 13.9706 9.4829 13.8749 9.0975 13.9741C9.09154 13.9756 9.08594 13.9783 9.08104 13.982C9.07614 13.9858 9.07205 13.9904 9.06902 13.9958L8.76827 14.5183C8.63582 14.7333 8.59223 14.9662 8.75166 15.1647C8.91996 15.3739 9.20694 15.4158 9.43051 15.2603C9.50598 15.2079 9.58353 15.1009 9.62598 15.0277Z" fill="#4389EE"/>
<path d="M4.64762 7.86486C4.60762 8.15731 4.87743 8.37429 5.15327 8.26693C5.27276 8.22039 5.34584 8.14272 5.37251 8.03392C5.67609 6.79564 6.52474 5.84265 7.74528 5.45436C7.78564 5.44155 7.8275 5.43125 7.86934 5.42094C8.03776 5.37947 8.20593 5.33805 8.27545 5.13418C8.37602 4.83871 8.10319 4.594 7.81565 4.66098C6.38814 4.99342 5.24968 6.03189 4.76875 7.42053C4.70234 7.61223 4.66196 7.76034 4.64762 7.86486Z" fill="#4389EE"/>
<path d="M17.6796 5.33606C18.4379 5.88623 18.9639 6.60829 19.2574 7.50223C19.3456 7.77053 19.4678 8.1441 19.1084 8.2741C18.9186 8.34278 18.6782 8.23938 18.6275 8.02863C18.4439 7.26809 18.0452 6.6032 17.4439 6.1017C17.0166 5.74963 16.5324 5.50964 15.9911 5.38172C15.7177 5.31719 15.6217 4.9955 15.7907 4.78154C15.9132 4.62645 16.0785 4.63249 16.2681 4.68079C16.7776 4.81098 17.2481 5.0294 17.6796 5.33606Z" fill="#4389EE"/>
<path d="M19.1186 9.4269H19.1307C19.3344 9.4269 19.4995 9.59204 19.4995 9.79576V14.2032C19.4995 14.4069 19.3344 14.5721 19.1307 14.5721H19.1186C18.9149 14.5721 18.7497 14.4069 18.7497 14.2032V9.79576C18.7497 9.59204 18.9149 9.4269 19.1186 9.4269Z" fill="#4389EE"/>
<path d="M4.88045 9.42935H4.86837C4.66466 9.42935 4.49951 9.5945 4.49951 9.79821V14.2057C4.49951 14.4094 4.66466 14.5745 4.86837 14.5745H4.88045C5.08416 14.5745 5.2493 14.4094 5.2493 14.2057V9.79821C5.2493 9.5945 5.08416 9.42935 4.88045 9.42935Z" fill="#4389EE"/>
<path d="M7.99942 18.6186C6.75492 18.3218 5.78853 17.4024 5.42571 16.1745C5.42016 16.1525 5.41502 16.1309 5.40998 16.1097C5.37997 15.9834 5.35381 15.8734 5.26704 15.8037C4.94403 15.5441 4.56309 15.8271 4.66271 16.2145C4.76888 16.6278 4.91944 17.0029 5.1144 17.3399C5.69778 18.3399 6.66078 19.067 7.78924 19.3353C8.33677 19.4655 8.48733 18.7348 7.99942 18.6186Z" fill="#4389EE"/>
<path d="M15.7822 19.2074C15.6747 19.0647 15.676 18.9121 15.7862 18.7497C15.8502 18.6555 15.952 18.6303 16.0539 18.6052C16.0768 18.5995 16.0996 18.5939 16.1221 18.5874C17.4122 18.2174 18.3222 17.2501 18.6316 15.9535C18.6412 15.9132 18.682 15.8447 18.7201 15.813C18.8835 15.6769 19.0459 15.6666 19.2074 15.7822C19.3325 15.8716 19.3793 16.0228 19.3469 16.169C19.0027 17.7212 17.7588 18.9614 16.223 19.3319C16.0422 19.3755 15.8949 19.3567 15.7822 19.2074Z" fill="#4389EE"/>
<path d="M14.1023 18.7504C12.7773 18.7507 11.4522 18.7506 10.1269 18.7501C10.0962 18.7503 10.0639 18.7497 10.0307 18.7491C9.78227 18.7447 9.48452 18.7395 9.43391 19.0503C9.39146 19.3104 9.56316 19.5014 9.82862 19.5014C11.26 19.5004 12.6905 19.5001 14.12 19.5004C14.2406 19.5004 14.3481 19.491 14.4319 19.4236C14.6545 19.2446 14.6098 18.8689 14.3279 18.7735C14.2825 18.758 14.2073 18.7503 14.1023 18.7504Z" fill="#4389EE"/>
</svg>
