<svg width="24" height="24" viewBox="0 0 24 24" fill="none" xmlns="http://www.w3.org/2000/svg"><path d="M10.980 3.623 C 9.076 3.881,7.414 4.704,6.058 6.059 C 4.420 7.695,3.554 9.785,3.554 12.100 C 3.554 13.472,3.823 14.643,4.418 15.860 C 5.667 18.415,8.062 20.156,10.920 20.585 C 11.545 20.679,12.663 20.680,13.280 20.586 C 14.778 20.359,16.112 19.803,17.289 18.915 C 17.715 18.594,18.594 17.715,18.915 17.289 C 19.798 16.119,20.355 14.788,20.584 13.300 C 20.676 12.701,20.676 11.497,20.584 10.900 C 19.981 6.998,16.924 4.033,13.060 3.601 C 12.564 3.546,11.463 3.557,10.980 3.623 M13.140 5.121 C 14.223 5.275,15.343 5.737,16.288 6.420 C 16.738 6.745,17.521 7.538,17.849 8.001 C 18.173 8.457,18.634 9.361,18.801 9.870 C 19.375 11.615,19.241 13.600,18.440 15.201 C 17.331 17.417,15.316 18.834,12.860 19.124 C 12.311 19.189,11.334 19.150,10.782 19.041 C 9.817 18.850,8.798 18.413,8.000 17.849 C 7.539 17.523,6.747 16.741,6.420 16.288 C 5.067 14.415,4.689 12.045,5.402 9.903 C 6.284 7.254,8.580 5.398,11.364 5.083 C 11.764 5.038,12.692 5.058,13.140 5.121 M10.095 8.896 C 9.825 9.017,9.840 8.823,9.840 12.108 L 9.840 15.079 9.950 15.202 C 10.027 15.288,10.108 15.331,10.220 15.345 C 10.373 15.365,10.481 15.305,12.540 14.060 C 15.358 12.356,15.258 12.420,15.313 12.300 C 15.391 12.128,15.370 11.972,15.250 11.841 C 15.119 11.697,10.471 8.883,10.323 8.858 C 10.266 8.848,10.164 8.865,10.095 8.896 " stroke="none" fill-rule="evenodd"></path></svg>