<svg width="24" height="24" viewBox="0 0 24 24" fill="none" xmlns="http://www.w3.org/2000/svg">
<path fill-rule="evenodd" clip-rule="evenodd" d="M9.53207 5.5C8.4275 5.5 7.53207 6.39543 7.53207 7.5C7.53207 8.60457 8.4275 9.5 9.53207 9.5C10.6366 9.5 11.5321 8.60457 11.5321 7.5C11.5321 6.39543 10.6366 5.5 9.53207 5.5ZM6.03207 7.5C6.03207 5.567 7.59907 4 9.53207 4C11.4651 4 13.0321 5.567 13.0321 7.5C13.0321 9.433 11.4651 11 9.53207 11C7.59907 11 6.03207 9.433 6.03207 7.5ZM5.65248 18.3779C5.7963 17.6706 6.09435 16.7474 6.68975 16.0144C7.26041 15.3118 8.12769 14.75 9.53203 14.75C10.9364 14.75 11.8036 15.3118 12.3743 16.0144C12.9697 16.7474 13.2678 17.6706 13.4116 18.3779C13.4159 18.3992 13.4136 18.4105 13.412 18.4161C13.4101 18.423 13.4055 18.4331 13.3948 18.4451C13.3724 18.4699 13.3244 18.5 13.2503 18.5H5.81371C5.73964 18.5 5.69164 18.4699 5.6693 18.4451C5.65853 18.4331 5.65401 18.423 5.65205 18.4161C5.65045 18.4105 5.64815 18.3992 5.65248 18.3779ZM9.53203 13.25C7.64669 13.25 6.36198 14.0388 5.52545 15.0687C4.71366 16.0681 4.34929 17.2591 4.18256 18.0791C3.96089 19.1692 4.85152 20 5.81371 20H13.2503C14.2125 20 15.1032 19.1692 14.8815 18.0791C14.7148 17.2591 14.3504 16.0681 13.5386 15.0687C12.7021 14.0388 11.4174 13.25 9.53203 13.25ZM15.7821 13.25C15.3679 13.25 15.0321 13.5858 15.0321 14C15.0321 14.4142 15.3679 14.75 15.7821 14.75C16.5137 14.75 17.0403 15.1097 17.457 15.7C17.8893 16.3125 18.1609 17.1249 18.3238 17.8585C18.3612 18.0272 18.3155 18.1727 18.2131 18.2877C18.1051 18.409 17.9271 18.5 17.7089 18.5H16.7821C16.3679 18.5 16.0321 18.8358 16.0321 19.25C16.0321 19.6642 16.3679 20 16.7821 20H17.7089C18.9614 20 20.0951 18.9163 19.7881 17.5334C19.6073 16.719 19.2813 15.6834 18.6824 14.8349C18.0678 13.9642 17.1293 13.25 15.7821 13.25ZM14.7821 4C14.3679 4 14.0321 4.33579 14.0321 4.75C14.0321 5.16421 14.3679 5.5 14.7821 5.5C15.7953 5.5 16.5321 6.29772 16.5321 7.5C16.5321 8.70228 15.7953 9.5 14.7821 9.5C14.3679 9.5 14.0321 9.83579 14.0321 10.25C14.0321 10.6642 14.3679 11 14.7821 11C16.8064 11 18.0321 9.33529 18.0321 7.5C18.0321 5.66471 16.8064 4 14.7821 4Z" fill="#0E1438"/>
</svg>
