<svg width="24" height="24" viewBox="0 0 24 24" fill="none" xmlns="http://www.w3.org/2000/svg"><path d="M6.685 4.462 C 6.043 4.601,5.361 5.070,4.937 5.662 C 4.740 5.937,4.532 6.357,4.496 6.550 C 4.482 6.624,4.447 6.680,4.414 6.680 C 4.365 6.680,4.359 7.395,4.369 11.790 L 4.380 16.900 4.491 17.252 C 4.683 17.865,4.958 18.318,5.385 18.722 C 5.802 19.116,6.168 19.328,6.748 19.509 L 7.100 19.620 12.540 19.631 C 16.275 19.639,18.068 19.629,18.260 19.600 C 18.625 19.544,18.849 19.433,19.123 19.173 C 19.390 18.919,19.542 18.633,19.598 18.280 C 19.655 17.923,19.654 10.234,19.598 9.880 C 19.517 9.374,19.193 8.941,18.721 8.708 L 18.462 8.580 17.381 8.560 L 16.300 8.540 16.277 6.980 C 16.264 6.122,16.240 5.375,16.224 5.320 C 16.129 4.999,15.662 4.547,15.317 4.444 C 15.080 4.373,7.018 4.389,6.685 4.462 M14.791 7.210 L 14.780 8.540 10.940 8.551 C 7.081 8.563,6.736 8.553,6.484 8.422 C 6.326 8.340,6.089 8.094,6.000 7.919 C 5.902 7.727,5.897 7.457,5.985 7.068 C 6.098 6.566,6.262 6.326,6.658 6.081 C 6.972 5.887,6.978 5.887,11.011 5.883 L 14.801 5.880 14.791 7.210 M12.280 10.040 L 18.100 10.060 18.110 14.090 L 18.120 18.120 12.744 18.120 C 7.471 18.120,7.363 18.118,7.108 18.040 C 6.965 17.995,6.760 17.899,6.654 17.826 C 6.403 17.654,6.103 17.282,5.990 17.002 L 5.900 16.780 5.889 13.294 L 5.877 9.807 6.169 9.914 L 6.460 10.020 12.280 10.040 M14.734 13.277 C 14.093 13.434,13.872 14.203,14.334 14.665 C 14.673 15.003,15.158 15.004,15.496 14.666 C 15.786 14.376,15.831 14.016,15.621 13.658 C 15.451 13.368,15.056 13.198,14.734 13.277 " stroke="none" fill-rule="evenodd" fill="black"></path></svg>