<svg width="24" height="24" viewBox="0 0 24 24" fill="none" xmlns="http://www.w3.org/2000/svg">
<path d="M9.98654 20.0884V14.5468H8.26663V12H9.98654V10.9028C9.98654 8.06622 11.2698 6.7528 14.0532 6.7528C14.5801 6.7528 15.4898 6.85604 15.8634 6.95928V9.26622C15.6666 9.24632 15.3231 9.23613 14.8999 9.23613C13.5333 9.23613 13.0064 9.7528 13.0064 11.0995V12H15.7301L15.2634 14.5464H13.0102V20.2731C17.1363 19.7733 20.3332 16.26 20.3332 12C20.3332 7.3977 16.6022 3.66669 11.9998 3.66669C7.39752 3.66669 3.6665 7.3977 3.6665 12C3.6665 15.9083 6.35661 19.1878 9.98654 20.0884Z" fill="black"/>
</svg>
