<svg width="24" height="24" viewBox="0 0 24 24" fill="none" xmlns="http://www.w3.org/2000/svg">
<path fill-rule="evenodd" clip-rule="evenodd" d="M5.75 7.83331C5.75 7.14296 6.30964 6.58331 7 6.58331H16.8438C17.5341 6.58331 18.0938 7.14295 18.0938 7.83331V9.55206H5.75V7.83331ZM5.75 10.8021V15.8021C5.75 16.4924 6.30964 17.0521 7 17.0521H16.8438C17.5341 17.0521 18.0938 16.4924 18.0938 15.8021V10.8021H5.75ZM7 5.33331C5.61929 5.33331 4.5 6.4526 4.5 7.83331V15.8021C4.5 17.1828 5.61929 18.3021 7 18.3021H16.8438C18.2245 18.3021 19.3438 17.1828 19.3438 15.8021V7.83331C19.3438 6.45261 18.2245 5.33331 16.8438 5.33331H7ZM7.3125 13.9271C7.3125 13.5819 7.59232 13.3021 7.9375 13.3021H10.2812C10.6264 13.3021 10.9062 13.5819 10.9062 13.9271C10.9062 14.2722 10.6264 14.5521 10.2812 14.5521H7.9375C7.59232 14.5521 7.3125 14.2722 7.3125 13.9271ZM15.4375 13.3021C15.0923 13.3021 14.8125 13.5819 14.8125 13.9271C14.8125 14.2722 15.0923 14.5521 15.4375 14.5521H15.9062C16.2514 14.5521 16.5312 14.2722 16.5312 13.9271C16.5312 13.5819 16.2514 13.3021 15.9062 13.3021H15.4375Z" fill="black"/>
</svg>
