<svg width="24" height="24" viewBox="0 0 24 24" fill="none" xmlns="http://www.w3.org/2000/svg"><path d="M11.100 3.823 C 10.101 3.958,9.225 4.290,8.360 4.861 C 6.819 5.878,5.806 7.460,5.493 9.340 C 5.419 9.784,5.410 10.826,5.476 11.260 C 5.758 13.108,6.779 14.740,8.295 15.765 C 8.496 15.900,8.683 16.039,8.710 16.073 C 8.747 16.119,8.760 16.402,8.760 17.169 C 8.760 18.503,8.830 18.872,9.206 19.510 C 9.398 19.836,10.002 20.434,10.341 20.633 C 11.165 21.118,12.185 21.215,13.095 20.898 C 13.900 20.616,14.668 19.892,14.994 19.108 C 15.204 18.602,15.240 18.317,15.240 17.169 C 15.240 16.402,15.253 16.119,15.290 16.073 C 15.318 16.039,15.502 15.901,15.700 15.767 C 17.228 14.729,18.249 13.099,18.523 11.260 C 18.585 10.842,18.585 9.915,18.522 9.460 C 18.255 7.518,17.136 5.785,15.491 4.764 C 14.162 3.940,12.639 3.613,11.100 3.823 M12.920 5.346 C 15.481 5.794,17.312 8.226,17.048 10.831 C 16.984 11.472,16.842 11.971,16.563 12.542 C 16.141 13.405,15.587 14.037,14.763 14.597 C 14.508 14.770,14.253 14.963,14.195 15.026 C 13.938 15.305,13.760 15.730,13.760 16.067 L 13.760 16.240 12.000 16.240 L 10.240 16.240 10.240 16.067 C 10.240 15.730,10.062 15.305,9.805 15.026 C 9.747 14.963,9.492 14.770,9.237 14.597 C 8.413 14.037,7.859 13.405,7.437 12.542 C 6.489 10.602,6.876 8.287,8.405 6.753 C 9.587 5.567,11.241 5.052,12.920 5.346 M13.737 17.950 C 13.669 18.549,13.412 18.986,12.950 19.290 C 12.654 19.485,12.365 19.571,12.000 19.571 C 11.354 19.571,10.787 19.234,10.466 18.659 C 10.366 18.481,10.297 18.243,10.259 17.950 L 10.235 17.760 11.997 17.760 L 13.758 17.760 13.737 17.950 " stroke="none" fill-rule="evenodd" fill="black"></path></svg>