<svg width="24" height="24" viewBox="0 0 24 24" fill="none" xmlns="http://www.w3.org/2000/svg"><path d="M10.960 2.704 C 8.388 3.046,6.106 4.713,4.996 7.062 C 4.254 8.631,4.065 10.375,4.444 12.160 C 4.978 14.677,6.553 17.262,9.124 19.837 C 9.851 20.565,10.214 20.864,10.610 21.058 C 11.463 21.476,12.537 21.476,13.390 21.058 C 13.803 20.855,14.157 20.558,14.988 19.717 C 18.676 15.982,20.281 12.194,19.596 8.840 C 18.921 5.535,16.189 3.048,12.832 2.682 C 12.313 2.626,11.476 2.635,10.960 2.704 M12.900 4.205 C 15.323 4.522,17.429 6.407,18.042 8.809 C 18.670 11.266,17.772 14.073,15.427 16.991 C 14.902 17.644,14.685 17.885,13.946 18.635 C 12.849 19.748,12.679 19.855,12.000 19.855 C 11.321 19.855,11.145 19.745,10.054 18.636 C 9.314 17.884,9.097 17.643,8.573 16.991 C 6.723 14.689,5.757 12.420,5.761 10.383 C 5.766 7.052,8.366 4.314,11.680 4.146 C 11.993 4.131,12.526 4.156,12.900 4.205 M11.611 7.161 C 10.670 7.260,9.808 7.797,9.257 8.627 C 8.589 9.633,8.591 11.113,9.261 12.143 C 9.460 12.449,10.004 12.983,10.291 13.153 C 11.951 14.141,14.069 13.527,14.916 11.813 C 15.127 11.387,15.205 11.061,15.228 10.520 C 15.257 9.797,15.114 9.224,14.769 8.681 C 14.075 7.589,12.902 7.025,11.611 7.161 M12.442 8.697 C 13.105 8.870,13.621 9.448,13.714 10.120 C 13.915 11.571,12.444 12.585,11.126 11.903 C 10.905 11.789,10.558 11.405,10.433 11.137 C 9.889 9.976,10.709 8.657,11.982 8.643 C 12.114 8.641,12.321 8.666,12.442 8.697 " stroke="none" fill-rule="evenodd" fill="black"></path></svg>