<svg width="24" height="24" viewBox="0 0 24 24" fill="none" xmlns="http://www.w3.org/2000/svg">
<path fill-rule="evenodd" clip-rule="evenodd" d="M7.11207 4.5C5.66946 4.5 4.5 5.66946 4.5 7.11207V16.8879C4.5 18.3305 5.66946 19.5 7.11207 19.5H15.0259C15.4401 19.5 15.7759 19.1642 15.7759 18.75C15.7759 18.3358 15.4401 18 15.0259 18H7.11207C6.49789 18 6 17.5021 6 16.8879V7.11207C6 6.49789 6.49789 6 7.11207 6H15.0259C15.4401 6 15.7759 5.66421 15.7759 5.25C15.7759 4.83579 15.4401 4.5 15.0259 4.5H7.11207ZM14.9418 8.46381C15.2237 8.16028 15.6982 8.1427 16.0017 8.42456L19.2604 11.4504C19.4132 11.5923 19.5 11.7915 19.5 12C19.5 12.2086 19.4132 12.4077 19.2604 12.5496L16.0017 15.5755C15.6982 15.8573 15.2237 15.8397 14.9418 15.5362C14.6599 15.2327 14.6775 14.7581 14.9811 14.4763L16.8401 12.75H10.8362C10.422 12.75 10.0862 12.4142 10.0862 12C10.0862 11.5858 10.422 11.25 10.8362 11.25H16.8401L14.9811 9.52375C14.6775 9.24189 14.6599 8.76735 14.9418 8.46381Z" fill="#0E1438"/>
</svg>
