<svg width="24" height="24" viewBox="0 0 24 24" fill="none" xmlns="http://www.w3.org/2000/svg"><path d="M4.852 5.240 C 4.565 5.282,4.298 5.420,4.050 5.653 C 3.815 5.875,3.683 6.088,3.598 6.381 C 3.511 6.680,3.511 17.321,3.598 17.620 C 3.767 18.202,4.253 18.650,4.835 18.759 C 5.132 18.815,18.868 18.815,19.165 18.759 C 19.747 18.650,20.233 18.202,20.402 17.620 C 20.489 17.321,20.489 6.680,20.402 6.381 C 20.317 6.088,20.185 5.875,19.950 5.653 C 19.691 5.410,19.440 5.285,19.112 5.238 C 18.808 5.194,5.153 5.196,4.852 5.240 M18.940 12.000 L 18.940 17.260 12.000 17.260 L 5.060 17.260 5.050 12.040 C 5.044 9.169,5.048 6.797,5.059 6.770 C 5.074 6.730,6.485 6.722,12.009 6.730 L 18.940 6.740 18.940 12.000 M7.260 9.475 C 6.928 9.681,6.794 10.045,6.922 10.387 C 6.986 10.556,7.238 10.796,7.399 10.840 C 7.591 10.894,11.413 10.893,11.605 10.839 C 11.797 10.786,12.066 10.494,12.102 10.301 C 12.165 9.967,12.027 9.649,11.745 9.477 C 11.626 9.404,11.517 9.400,9.500 9.400 C 7.501 9.400,7.373 9.405,7.260 9.475 M13.899 9.497 C 13.809 9.551,13.695 9.670,13.639 9.767 L 13.540 9.940 13.540 11.580 L 13.540 13.220 13.650 13.407 C 13.710 13.509,13.827 13.635,13.910 13.687 C 14.057 13.778,14.082 13.780,15.258 13.792 C 16.285 13.803,16.481 13.795,16.626 13.740 C 16.833 13.661,17.067 13.410,17.100 13.232 C 17.113 13.160,17.119 12.370,17.112 11.477 L 17.100 9.854 16.985 9.703 C 16.750 9.396,16.776 9.400,15.340 9.401 L 14.060 9.401 13.899 9.497 M15.600 11.580 L 15.600 12.280 15.320 12.280 L 15.040 12.280 15.040 11.580 L 15.040 10.880 15.320 10.880 L 15.600 10.880 15.600 11.580 M7.287 11.966 C 6.813 12.200,6.748 12.893,7.169 13.215 C 7.385 13.379,7.656 13.408,8.837 13.393 L 9.900 13.380 10.087 13.270 C 10.396 13.089,10.536 12.755,10.445 12.417 C 10.397 12.240,10.165 11.989,9.987 11.922 C 9.917 11.896,9.420 11.880,8.667 11.880 C 7.514 11.880,7.452 11.884,7.287 11.966 " stroke="none" fill-rule="evenodd" fill="black"></path></svg>