<svg width="24" height="24" viewBox="0 0 24 24" fill="none" xmlns="http://www.w3.org/2000/svg"><path d="M11.080 4.464 C 8.748 4.738,6.707 5.742,4.953 7.478 C 4.529 7.898,4.438 8.009,4.400 8.156 C 4.257 8.701,4.760 9.212,5.304 9.075 C 5.465 9.034,5.572 8.951,6.024 8.519 C 6.877 7.703,7.577 7.208,8.540 6.739 C 11.064 5.511,13.904 5.686,16.340 7.219 C 16.904 7.574,17.400 7.968,17.976 8.519 C 18.428 8.951,18.535 9.034,18.696 9.075 C 19.240 9.212,19.743 8.701,19.600 8.156 C 19.562 8.009,19.471 7.898,19.047 7.478 C 17.462 5.908,15.655 4.945,13.560 4.554 C 13.237 4.493,12.918 4.472,12.180 4.461 C 11.652 4.454,11.157 4.455,11.080 4.464 M4.739 12.217 C 4.464 12.382,4.319 12.737,4.401 13.047 C 4.438 13.190,4.532 13.306,4.953 13.724 C 5.750 14.515,6.592 15.144,7.493 15.621 C 7.728 15.745,7.920 15.854,7.920 15.862 C 7.920 15.871,7.710 16.224,7.454 16.648 C 6.928 17.519,6.880 17.617,6.881 17.829 C 6.885 18.503,7.785 18.819,8.200 18.291 C 8.248 18.230,8.513 17.802,8.789 17.340 C 9.065 16.878,9.311 16.479,9.336 16.454 C 9.369 16.419,9.469 16.431,9.740 16.500 C 10.070 16.584,10.571 16.676,11.048 16.739 L 11.236 16.764 11.248 17.939 L 11.260 19.113 11.380 19.283 C 11.693 19.726,12.307 19.726,12.620 19.283 L 12.740 19.113 12.752 17.939 L 12.764 16.764 12.952 16.739 C 13.365 16.684,13.891 16.591,14.177 16.523 C 14.453 16.457,14.482 16.457,14.532 16.516 C 14.562 16.551,14.844 16.949,15.160 17.400 C 15.812 18.333,15.888 18.425,16.075 18.503 C 16.350 18.619,16.740 18.541,16.928 18.333 C 17.108 18.134,17.167 17.790,17.063 17.542 C 17.032 17.468,16.769 17.071,16.479 16.661 C 16.188 16.251,15.957 15.911,15.965 15.905 C 15.973 15.898,16.193 15.782,16.453 15.647 C 17.386 15.161,18.230 14.535,19.047 13.724 C 19.468 13.306,19.562 13.190,19.599 13.047 C 19.681 12.735,19.534 12.379,19.257 12.216 C 19.060 12.101,18.741 12.087,18.548 12.185 C 18.478 12.221,18.204 12.460,17.940 12.716 C 17.161 13.471,16.363 14.032,15.440 14.475 C 13.193 15.553,10.807 15.553,8.560 14.475 C 7.637 14.032,6.839 13.471,6.060 12.716 C 5.796 12.460,5.522 12.221,5.452 12.185 C 5.258 12.086,4.933 12.101,4.739 12.217 " stroke="none" fill-rule="evenodd" fill="black"></path></svg>