<svg width="24" height="24" viewBox="0 0 24 24" fill="none" xmlns="http://www.w3.org/2000/svg">
<path fill-rule="evenodd" clip-rule="evenodd" d="M3.16553 11.7271C3.16553 7.50201 6.59063 4.0769 10.8156 4.0769C15.0407 4.0769 18.4658 7.50201 18.4658 11.7271C18.4658 15.9523 15.0407 19.3775 10.8156 19.3775C6.59063 19.3775 3.16553 15.9523 3.16553 11.7271Z" fill="#FFFFFE"/>
<path fill-rule="evenodd" clip-rule="evenodd" d="M15.442 11.5766C15.4389 9.61751 14.2144 7.94668 12.4888 7.28498V15.8679C14.2144 15.2054 15.4389 13.5361 15.442 11.5766ZM9.19707 15.8663V7.28589C7.47306 7.94964 6.25037 9.61808 6.24576 11.5767C6.25037 13.5348 7.47306 15.203 9.19707 15.8663ZM10.8438 4.32204C6.83738 4.32358 3.59147 7.57018 3.59078 11.5766C3.59147 15.5825 6.83738 18.8286 10.8438 18.8293C14.8503 18.8286 18.0969 15.5825 18.0979 11.5766C18.0969 7.57018 14.8503 4.32358 10.8438 4.32204ZM10.826 19.5139C6.44189 19.5348 2.8335 15.983 2.8335 11.6594C2.8335 6.93415 6.44189 3.66583 10.826 3.66669H12.8805C17.2129 3.66583 21.1668 6.93261 21.1668 11.6594C21.1668 15.9815 17.2129 19.5139 12.8805 19.5139H10.826Z" fill="#0069AA"/>
</svg>
