<svg width="24" height="24" viewBox="0 0 24 24" fill="none" xmlns="http://www.w3.org/2000/svg"><path d="M5.500 4.456 C 4.992 4.617,4.648 4.949,4.459 5.460 C 4.393 5.639,4.384 5.828,4.369 7.240 C 4.357 8.366,4.366 8.881,4.400 9.034 C 4.461 9.309,4.668 9.527,4.931 9.594 C 5.177 9.655,10.510 9.659,10.731 9.598 C 10.919 9.545,11.155 9.343,11.226 9.172 C 11.295 9.006,11.306 5.034,11.237 4.853 C 11.185 4.715,11.017 4.532,10.872 4.456 C 10.721 4.378,5.748 4.377,5.500 4.456 M13.100 4.474 C 12.940 4.574,12.815 4.715,12.763 4.853 C 12.734 4.929,12.720 6.150,12.720 8.695 L 12.720 12.424 12.835 12.606 C 12.912 12.727,13.010 12.817,13.128 12.874 C 13.304 12.959,13.322 12.960,16.163 12.959 C 18.848 12.958,19.030 12.954,19.182 12.885 C 19.383 12.794,19.545 12.605,19.600 12.398 C 19.629 12.291,19.639 11.195,19.631 8.970 C 19.619 5.938,19.613 5.684,19.546 5.484 C 19.399 5.046,19.130 4.741,18.720 4.544 L 18.460 4.420 15.840 4.410 C 13.335 4.399,13.215 4.402,13.100 4.474 M9.800 7.000 L 9.800 8.120 7.840 8.120 L 5.880 8.120 5.880 7.027 C 5.880 6.425,5.892 5.921,5.907 5.907 C 5.921 5.892,6.803 5.880,7.867 5.880 L 9.800 5.880 9.800 7.000 M18.110 8.690 L 18.121 11.481 16.170 11.470 L 14.220 11.460 14.210 8.670 L 14.199 5.879 16.150 5.890 L 18.100 5.900 18.110 8.690 M4.818 11.115 C 4.617 11.207,4.455 11.395,4.399 11.603 C 4.370 11.711,4.361 12.802,4.369 15.051 C 4.381 18.163,4.386 18.351,4.457 18.540 C 4.650 19.050,4.987 19.380,5.484 19.545 C 5.681 19.611,5.919 19.618,8.128 19.631 C 9.798 19.640,10.607 19.630,10.719 19.600 C 10.916 19.547,11.153 19.347,11.226 19.172 C 11.270 19.066,11.280 18.358,11.280 15.334 C 11.280 11.636,11.280 11.625,11.195 11.450 C 11.144 11.344,11.046 11.232,10.948 11.167 L 10.786 11.060 7.883 11.050 C 5.134 11.041,4.971 11.045,4.818 11.115 M9.800 15.340 L 9.800 18.121 7.850 18.110 L 5.900 18.100 5.890 15.330 L 5.879 12.560 7.840 12.560 L 9.800 12.560 9.800 15.340 M13.100 14.475 C 12.941 14.574,12.815 14.715,12.763 14.853 C 12.694 15.034,12.705 19.006,12.774 19.172 C 12.847 19.347,13.084 19.547,13.281 19.600 C 13.393 19.630,14.202 19.640,15.872 19.631 C 18.081 19.618,18.319 19.611,18.516 19.545 C 19.035 19.372,19.387 19.013,19.548 18.495 C 19.613 18.284,19.620 18.090,19.620 16.600 C 19.620 14.703,19.624 14.730,19.285 14.515 L 19.104 14.400 16.162 14.400 C 13.362 14.400,13.214 14.404,13.100 14.475 M18.111 16.990 L 18.100 18.100 16.150 18.110 L 14.200 18.121 14.200 17.000 L 14.200 15.880 16.161 15.880 L 18.121 15.880 18.111 16.990 " stroke="none" fill-rule="evenodd" fill="black"></path></svg>