<svg width="24" height="24" viewBox="0 0 24 24" fill="none" xmlns="http://www.w3.org/2000/svg"><path d="M11.740 2.900 C 11.540 2.971,11.339 3.185,11.283 3.386 C 11.260 3.471,11.240 3.787,11.240 4.089 L 11.240 4.637 7.950 4.649 L 4.660 4.660 4.391 4.787 C 4.087 4.931,3.770 5.208,3.626 5.454 C 3.421 5.805,3.400 5.964,3.400 7.203 L 3.400 8.351 3.294 8.378 C 3.236 8.393,3.077 8.516,2.941 8.652 C 2.590 9.003,2.515 9.215,2.490 9.925 C 2.468 10.528,2.517 10.916,2.646 11.176 C 2.751 11.386,3.057 11.704,3.250 11.804 L 3.400 11.882 3.400 13.953 C 3.400 15.224,3.416 16.117,3.442 16.263 C 3.684 17.626,4.663 18.693,6.001 19.050 L 6.340 19.140 12.000 19.140 L 17.660 19.140 17.999 19.050 C 19.337 18.693,20.316 17.626,20.558 16.263 C 20.584 16.117,20.600 15.224,20.600 13.953 L 20.600 11.882 20.750 11.804 C 20.943 11.704,21.249 11.386,21.354 11.176 C 21.483 10.916,21.532 10.528,21.510 9.925 C 21.485 9.215,21.410 9.003,21.059 8.652 C 20.923 8.516,20.764 8.393,20.706 8.378 L 20.600 8.351 20.600 7.203 C 20.600 5.964,20.579 5.805,20.374 5.454 C 20.230 5.208,19.913 4.931,19.609 4.787 L 19.340 4.660 16.050 4.649 L 12.760 4.637 12.760 4.089 C 12.760 3.787,12.740 3.468,12.715 3.381 C 12.635 3.093,12.285 2.836,11.980 2.842 C 11.936 2.843,11.828 2.869,11.740 2.900 M19.060 11.202 L 19.060 16.224 18.913 16.522 C 18.832 16.686,18.697 16.899,18.614 16.996 C 18.416 17.228,18.049 17.462,17.729 17.561 C 17.478 17.638,17.345 17.640,12.003 17.640 C 7.090 17.640,6.512 17.633,6.317 17.576 C 5.758 17.410,5.358 17.071,5.097 16.542 L 4.940 16.224 4.929 11.243 C 4.924 8.503,4.928 6.238,4.938 6.210 C 4.954 6.170,6.356 6.162,12.009 6.170 L 19.060 6.180 19.060 11.202 M8.490 8.724 C 8.244 8.783,7.847 9.067,7.692 9.295 C 7.399 9.725,7.363 10.265,7.595 10.736 C 7.742 11.035,7.962 11.248,8.275 11.395 C 8.466 11.484,8.555 11.500,8.860 11.500 C 9.167 11.500,9.254 11.484,9.448 11.393 C 9.739 11.257,10.017 10.979,10.153 10.688 C 10.244 10.494,10.260 10.407,10.260 10.100 C 10.260 9.793,10.244 9.706,10.153 9.512 C 9.929 9.035,9.475 8.726,8.954 8.699 C 8.792 8.690,8.584 8.702,8.490 8.724 M14.770 8.724 C 14.524 8.783,14.127 9.067,13.972 9.295 C 13.485 10.011,13.739 10.988,14.511 11.368 C 14.753 11.488,14.812 11.500,15.139 11.500 C 15.445 11.500,15.534 11.484,15.725 11.395 C 16.041 11.246,16.258 11.035,16.410 10.727 C 16.528 10.487,16.540 10.427,16.540 10.101 C 16.540 9.793,16.524 9.706,16.433 9.512 C 16.209 9.035,15.755 8.726,15.234 8.699 C 15.072 8.690,14.864 8.702,14.770 8.724 M9.660 13.475 C 9.470 13.563,9.384 13.652,9.302 13.850 C 9.193 14.110,9.248 14.450,9.432 14.653 C 9.469 14.694,9.567 14.763,9.648 14.804 C 9.789 14.876,9.917 14.880,12.000 14.880 C 14.083 14.880,14.211 14.876,14.352 14.804 C 14.535 14.711,14.619 14.620,14.698 14.430 C 14.807 14.170,14.752 13.833,14.568 13.626 C 14.531 13.583,14.428 13.516,14.340 13.475 C 14.191 13.407,14.031 13.402,12.000 13.402 C 9.969 13.402,9.809 13.407,9.660 13.475 " stroke="none" fill-rule="evenodd"></path></svg>