<svg width="24" height="24" viewBox="0 0 24 24" fill="none" xmlns="http://www.w3.org/2000/svg"><path d="M4.852 5.240 C 4.565 5.282,4.298 5.420,4.050 5.653 C 3.815 5.875,3.683 6.088,3.598 6.381 C 3.511 6.680,3.511 17.321,3.598 17.620 C 3.767 18.202,4.253 18.650,4.835 18.759 C 5.132 18.815,18.868 18.815,19.165 18.759 C 19.747 18.650,20.233 18.202,20.402 17.620 C 20.489 17.321,20.489 6.680,20.402 6.381 C 20.317 6.088,20.185 5.875,19.950 5.653 C 19.691 5.410,19.440 5.285,19.112 5.238 C 18.808 5.194,5.153 5.196,4.852 5.240 M18.950 8.990 L 18.961 11.240 12.000 11.240 L 5.040 11.240 5.040 9.007 C 5.040 7.778,5.052 6.761,5.067 6.747 C 5.082 6.732,8.209 6.724,12.017 6.730 L 18.940 6.740 18.950 8.990 M7.080 8.224 C 6.402 8.518,6.444 9.530,7.143 9.761 C 7.524 9.887,7.962 9.712,8.150 9.360 C 8.287 9.104,8.265 8.751,8.098 8.514 C 7.875 8.197,7.433 8.071,7.080 8.224 M18.950 15.010 L 18.940 17.260 12.000 17.260 L 5.060 17.260 5.050 15.010 L 5.039 12.760 12.000 12.760 L 18.961 12.760 18.950 15.010 M7.080 14.264 C 6.402 14.558,6.444 15.570,7.143 15.801 C 7.524 15.927,7.962 15.752,8.150 15.400 C 8.287 15.144,8.265 14.791,8.098 14.554 C 7.875 14.237,7.433 14.111,7.080 14.264 " stroke="none" fill-rule="evenodd" fill="black"></path></svg>