<svg width="24" height="24" viewBox="0 0 24 24" fill="none" xmlns="http://www.w3.org/2000/svg">
<path fill-rule="evenodd" clip-rule="evenodd" d="M11.6919 4.06562C11.8871 3.97813 12.1103 3.97813 12.3055 4.06562L19.5555 7.31562C19.8087 7.42914 19.9786 7.67321 19.997 7.95011L19.2487 8C19.997 7.95011 19.9971 7.95041 19.9971 7.95076L19.9971 7.95166L19.9973 7.95425L19.9978 7.96247L19.9995 7.99094C20.0008 8.01517 20.0026 8.0498 20.0045 8.09415C20.0083 8.18283 20.0127 8.31046 20.0152 8.4715C20.0203 8.79335 20.0182 9.24992 19.9899 9.79665C19.9334 10.8858 19.7717 12.3534 19.3442 13.8332C18.9182 15.3078 18.2136 16.8458 17.0368 18.0225C15.8406 19.2188 14.1963 20 11.9987 20C9.80106 20 8.15679 19.2188 6.96056 18.0225C5.78383 16.8458 5.07916 15.3078 4.65317 13.8332C4.22567 12.3534 4.06399 10.8858 4.00752 9.79665C3.97917 9.24992 3.97709 8.79335 3.98219 8.4715C3.98475 8.31046 3.98911 8.18283 3.99292 8.09415C3.99483 8.0498 3.9966 8.01517 3.99793 7.99094L3.99958 7.96247L4.00009 7.95425L4.00026 7.95166L4.00032 7.95076C4.00034 7.95041 4.00036 7.95011 4.7487 8L4.00036 7.95011C4.01882 7.67321 4.18868 7.42914 4.44191 7.31562L11.6919 4.06562ZM5.48204 8.49317L5.48201 8.4953C5.47735 8.78868 5.47917 9.21101 5.50551 9.71898C5.55841 10.7392 5.70923 12.0841 6.09424 13.4168C6.48074 14.7547 7.08858 16.0292 8.02122 16.9619C8.93436 17.875 10.1963 18.5 11.9987 18.5C13.8011 18.5 15.063 17.875 15.9762 16.9619C16.9088 16.0292 17.5167 14.7547 17.9032 13.4168C18.2882 12.0841 18.439 10.7392 18.4919 9.71898C18.5182 9.21101 18.5201 8.78868 18.5154 8.4953L18.5154 8.49317L11.9987 5.57191L5.48204 8.49317ZM14.6878 9.14199C15.0236 9.38451 15.0992 9.85332 14.8567 10.1891L11.6067 14.6891C11.471 14.8769 11.2562 14.9915 11.0247 14.9995C10.7931 15.0076 10.5708 14.9081 10.4225 14.7301L9.17252 13.2301C8.90735 12.9119 8.95034 12.439 9.26855 12.1738C9.58676 11.9087 10.0597 11.9517 10.3249 12.2699L10.9563 13.0277L13.6407 9.31088C13.8832 8.97509 14.352 8.89947 14.6878 9.14199Z" fill="#0E1438"/>
</svg>
