<svg width="24" height="24" viewBox="0 0 24 24" fill="none" xmlns="http://www.w3.org/2000/svg"><path d="M11.620 3.574 C 11.213 3.679,10.895 3.912,10.664 4.272 C 10.570 4.419,8.906 7.249,6.968 10.560 C 3.171 17.045,3.286 16.832,3.331 17.319 C 3.376 17.797,3.663 18.290,4.033 18.524 C 4.136 18.590,4.334 18.678,4.474 18.721 C 4.723 18.798,4.886 18.800,12.000 18.800 C 19.129 18.800,19.277 18.798,19.527 18.721 C 20.171 18.522,20.606 17.988,20.669 17.319 C 20.714 16.832,20.833 17.053,16.973 10.460 C 15.003 7.094,13.333 4.259,13.264 4.160 C 13.123 3.959,12.716 3.666,12.489 3.600 C 12.247 3.530,11.835 3.518,11.620 3.574 M15.600 11.088 C 17.547 14.413,19.146 17.167,19.153 17.207 C 19.165 17.277,18.914 17.280,12.000 17.280 C 5.062 17.280,4.835 17.278,4.847 17.206 C 4.873 17.060,11.939 5.042,12.000 5.042 C 12.037 5.042,13.390 7.313,15.600 11.088 M11.630 9.483 C 11.547 9.526,11.430 9.637,11.370 9.728 L 11.260 9.894 11.247 11.497 C 11.239 12.572,11.249 13.149,11.279 13.248 C 11.368 13.552,11.691 13.798,12.000 13.798 C 12.309 13.798,12.632 13.552,12.721 13.248 C 12.751 13.149,12.761 12.572,12.753 11.497 L 12.740 9.894 12.630 9.728 C 12.423 9.415,11.969 9.304,11.630 9.483 M11.780 14.196 C 11.479 14.274,11.257 14.464,11.123 14.760 C 10.959 15.123,11.048 15.524,11.357 15.814 C 11.743 16.174,12.257 16.174,12.643 15.814 C 13.041 15.441,13.061 14.860,12.688 14.466 C 12.474 14.240,12.071 14.120,11.780 14.196 " stroke="none" fill-rule="evenodd" fill="black"></path></svg>