<svg width="24" height="24" viewBox="0 0 24 24" fill="none" xmlns="http://www.w3.org/2000/svg">
<path d="M17.2743 7.41034C17.0912 7.4158 16.9174 7.49233 16.7897 7.62373L9.53454 14.8789L7.21344 12.5578C7.14849 12.4901 7.07069 12.4361 6.98461 12.3989C6.89853 12.3617 6.80588 12.3421 6.71211 12.3411C6.61833 12.3401 6.52531 12.3579 6.43848 12.3934C6.35166 12.4288 6.27278 12.4812 6.20647 12.5475C6.14016 12.6139 6.08774 12.6927 6.0523 12.7796C6.01685 12.8664 5.99908 12.9594 6.00004 13.0532C6.00099 13.1469 6.02065 13.2396 6.05785 13.3257C6.09506 13.4118 6.14907 13.4896 6.21672 13.5545L9.03618 16.374C9.16837 16.5061 9.34763 16.5803 9.53454 16.5803C9.72145 16.5803 9.90071 16.5061 10.0329 16.374L17.7864 8.62045C17.8883 8.52144 17.9578 8.39398 17.986 8.25475C18.0142 8.11553 17.9996 7.97104 17.9443 7.84023C17.8889 7.70941 17.7953 7.59838 17.6758 7.52167C17.5562 7.44496 17.4163 7.40615 17.2743 7.41034Z" fill="#2D2D2D" stroke="#2D2D2D" stroke-width="0.5"/>
<path d="M17.2743 7.41034C17.0912 7.4158 16.9174 7.49233 16.7897 7.62373L9.53454 14.8789L7.21344 12.5578C7.14849 12.4901 7.07069 12.4361 6.98461 12.3989C6.89853 12.3617 6.80588 12.3421 6.71211 12.3411C6.61833 12.3401 6.52531 12.3579 6.43848 12.3934C6.35166 12.4288 6.27278 12.4812 6.20647 12.5475C6.14016 12.6139 6.08774 12.6927 6.0523 12.7796C6.01685 12.8664 5.99908 12.9594 6.00004 13.0532C6.00099 13.1469 6.02065 13.2396 6.05785 13.3257C6.09506 13.4118 6.14907 13.4896 6.21672 13.5545L9.03618 16.374C9.16837 16.5061 9.34763 16.5803 9.53454 16.5803C9.72145 16.5803 9.90071 16.5061 10.0329 16.374L17.7864 8.62045C17.8883 8.52144 17.9578 8.39398 17.986 8.25475C18.0142 8.11553 17.9996 7.97104 17.9443 7.84023C17.8889 7.70941 17.7953 7.59838 17.6758 7.52167C17.5562 7.44496 17.4163 7.40615 17.2743 7.41034Z" fill="#2D2D2D" stroke="#2D2D2D" stroke-width="0.5"/>
</svg>
