<svg width="24" height="24" viewBox="0 0 24 24" fill="none" xmlns="http://www.w3.org/2000/svg">
<path fill-rule="evenodd" clip-rule="evenodd" d="M9.75 5.75C9.75 5.61193 9.86193 5.5 10 5.5H14C14.1381 5.5 14.25 5.61193 14.25 5.75V6.75V7.25C14.25 7.38807 14.1381 7.5 14 7.5H10C9.86193 7.5 9.75 7.38807 9.75 7.25V6.75V5.75ZM8.25 6V5.75C8.25 4.7835 9.0335 4 10 4H14C14.9665 4 15.75 4.7835 15.75 5.75V6H16.25C17.7688 6 19 7.23122 19 8.75V17.25C19 18.7688 17.7688 20 16.25 20H7.75C6.23122 20 5 18.7688 5 17.25V8.75C5 7.23122 6.23122 6 7.75 6H8.25ZM15.7323 7.5H16.25C16.9404 7.5 17.5 8.05964 17.5 8.75V17.25C17.5 17.9404 16.9404 18.5 16.25 18.5H7.75C7.05964 18.5 6.5 17.9404 6.5 17.25V8.75C6.5 8.05964 7.05964 7.5 7.75 7.5H8.26772C8.38903 8.34807 9.11838 9 10 9H14C14.8816 9 15.611 8.34807 15.7323 7.5ZM9 12.25C9 11.8358 9.33579 11.5 9.75 11.5H14.25C14.6642 11.5 15 11.8358 15 12.25C15 12.6642 14.6642 13 14.25 13H9.75C9.33579 13 9 12.6642 9 12.25ZM9.75 14.5C9.33579 14.5 9 14.8358 9 15.25C9 15.6642 9.33579 16 9.75 16H14.25C14.6642 16 15 15.6642 15 15.25C15 14.8358 14.6642 14.5 14.25 14.5H9.75Z" fill="#2D2D2D"/>
</svg>
