<svg width="24" height="24" viewBox="0 0 24 24" fill="none" xmlns="http://www.w3.org/2000/svg">
<path fill-rule="evenodd" clip-rule="evenodd" d="M12.1035 3.66669C7.44546 3.66669 3.6665 7.44564 3.6665 12.1037C3.6665 16.7618 7.44546 20.5407 12.1035 20.5407C16.7616 20.5407 20.5406 16.7618 20.5406 12.1037C20.5406 7.44564 16.7616 3.66669 12.1035 3.66669ZM4.9165 12.1037C4.9165 8.136 8.13582 4.91669 12.1035 4.91669C16.0712 4.91669 19.2906 8.136 19.2906 12.1037C19.2906 16.0714 16.0712 19.2907 12.1035 19.2907C8.13582 19.2907 4.9165 16.0714 4.9165 12.1037ZM15.1459 12.4821L10.4892 15.2953C10.4224 15.3353 10.3463 15.3568 10.2684 15.3576C10.1906 15.3584 10.114 15.3386 10.0464 15.3C9.97884 15.2614 9.92273 15.2056 9.88385 15.1382C9.84496 15.0708 9.82471 14.9943 9.82516 14.9165V9.291C9.82471 9.21319 9.84496 9.13666 9.88385 9.06927C9.92273 9.00187 9.97884 8.94603 10.0464 8.90747C10.114 8.86892 10.1906 8.84904 10.2684 8.84987C10.3463 8.8507 10.4224 8.87221 10.4892 8.9122L15.1459 11.7253C15.2108 11.7649 15.2644 11.8205 15.3017 11.8867C15.3389 11.953 15.3584 12.0277 15.3584 12.1037C15.3584 12.1797 15.3389 12.2545 15.3017 12.3207C15.2644 12.387 15.2108 12.4426 15.1459 12.4821Z" fill="black"/>
</svg>
