<svg width="24" height="24" viewBox="0 0 24 24" fill="none" xmlns="http://www.w3.org/2000/svg"><path d="M11.473 3.773 C 11.173 3.899,10.958 4.074,10.788 4.331 C 10.368 4.963,10.511 5.795,11.122 6.278 C 11.502 6.578,12.061 6.658,12.533 6.480 C 12.811 6.375,13.181 6.033,13.311 5.760 C 13.653 5.043,13.329 4.143,12.608 3.807 C 12.279 3.654,11.792 3.639,11.473 3.773 M11.600 10.595 C 11.230 10.716,10.843 11.042,10.690 11.360 C 10.508 11.739,10.508 12.263,10.692 12.640 C 10.805 12.871,11.129 13.195,11.360 13.308 C 11.738 13.492,12.262 13.492,12.640 13.308 C 12.876 13.193,13.195 12.870,13.320 12.620 C 13.408 12.445,13.420 12.368,13.420 12.000 C 13.420 11.632,13.408 11.555,13.320 11.380 C 13.190 11.119,12.905 10.834,12.635 10.696 C 12.455 10.604,12.361 10.583,12.060 10.574 C 11.862 10.568,11.655 10.577,11.600 10.595 M11.491 17.510 C 11.076 17.681,10.733 18.044,10.616 18.434 C 10.388 19.195,10.770 19.963,11.514 20.242 C 11.832 20.361,12.289 20.341,12.608 20.192 C 13.329 19.857,13.653 18.956,13.310 18.240 C 13.197 18.003,12.870 17.681,12.620 17.558 C 12.355 17.428,11.752 17.403,11.491 17.510 " stroke="none" fill-rule="evenodd"></path></svg>