<svg width="24" height="24" viewBox="0 0 24 24" fill="none" xmlns="http://www.w3.org/2000/svg"><path d="M6.318 3.618 C 5.733 3.834,5.347 4.272,5.241 4.835 C 5.185 5.132,5.185 18.868,5.241 19.165 C 5.350 19.747,5.798 20.233,6.380 20.402 C 6.680 20.489,17.320 20.489,17.620 20.402 C 18.202 20.233,18.650 19.747,18.759 19.165 C 18.815 18.870,18.815 10.050,18.759 9.755 C 18.671 9.289,18.680 9.298,15.826 6.452 C 13.475 4.106,13.113 3.761,12.920 3.676 L 12.700 3.580 9.580 3.572 C 7.081 3.566,6.432 3.575,6.318 3.618 M11.880 7.073 C 11.880 9.338,11.881 9.347,12.152 9.756 C 12.231 9.874,12.402 10.050,12.532 10.145 C 12.957 10.459,12.917 10.454,15.230 10.471 L 17.280 10.485 17.270 14.713 L 17.260 18.940 12.000 18.940 L 6.740 18.940 6.730 12.040 C 6.724 8.245,6.728 5.117,6.738 5.090 C 6.753 5.051,7.307 5.040,9.319 5.040 L 11.880 5.040 11.880 7.073 M14.820 7.560 L 16.220 8.960 14.810 8.960 L 13.400 8.960 13.400 7.560 C 13.400 6.790,13.405 6.160,13.410 6.160 C 13.416 6.160,14.050 6.790,14.820 7.560 M9.134 12.317 C 8.483 12.478,8.343 13.334,8.910 13.687 C 9.060 13.780,9.063 13.780,10.660 13.793 C 11.733 13.801,12.309 13.791,12.408 13.761 C 12.708 13.673,12.957 13.351,12.959 13.049 C 12.961 12.787,12.786 12.502,12.540 12.366 C 12.435 12.308,12.227 12.299,10.840 12.293 C 9.971 12.289,9.203 12.300,9.134 12.317 M8.979 15.696 C 8.804 15.772,8.605 16.017,8.577 16.191 C 8.564 16.273,8.552 16.349,8.550 16.360 C 8.548 16.371,8.559 16.455,8.573 16.547 C 8.606 16.753,8.765 16.948,8.978 17.045 C 9.130 17.114,9.311 17.118,11.991 17.119 C 15.102 17.120,15.003 17.127,15.249 16.891 C 15.435 16.714,15.497 16.395,15.403 16.110 C 15.351 15.951,15.148 15.743,14.987 15.682 C 14.808 15.615,9.136 15.627,8.979 15.696 " stroke="none" fill-rule="evenodd" fill="black"></path></svg>