<svg width="24" height="24" viewBox="0 0 24 24" fill="none" xmlns="http://www.w3.org/2000/svg">
<path d="M5.25979 9.97737C5.25979 8.52309 5.25979 7.79595 5.50196 7.22403C5.81187 6.49215 6.39443 5.90959 7.12631 5.59968C7.69823 5.35751 8.42537 5.35751 9.87965 5.35751H14.1396C15.5939 5.35751 16.321 5.35751 16.893 5.59968C17.6248 5.90959 18.2074 6.49215 18.5173 7.22403C18.7595 7.79595 18.7595 8.52309 18.7595 9.97738V14.234C18.7595 15.6883 18.7595 16.4154 18.5173 16.9873C18.2074 17.7192 17.6248 18.3018 16.893 18.6117C16.321 18.8539 15.5939 18.8539 14.1396 18.8539H9.87965C8.42537 18.8539 7.69823 18.8539 7.12631 18.6117C6.39443 18.3018 5.81187 17.7192 5.50196 16.9873C5.25979 16.4154 5.25979 15.6883 5.25979 14.234V9.97737Z" fill="url(#paint0_linear_1551_221)"/>
<path d="M10.1095 3.0005C11.5428 3.0008 12.976 3.00103 14.409 3.00118C14.6069 3.00118 14.7286 3.00744 14.7742 3.01997C15.1851 3.1325 15.198 3.74969 14.778 3.87897C14.7299 3.89376 14.6506 3.90108 14.5401 3.90093C13.4293 3.89972 12.3185 3.90055 11.2076 3.90342C10.5829 3.90501 9.95869 3.89821 9.33426 3.90433C9.27313 3.89436 9.21486 3.87708 9.15947 3.85248C8.81329 3.69784 8.8391 3.17574 9.17577 3.03876C9.23026 3.01657 9.31094 3.0048 9.4178 3.00344C9.64829 3.00027 9.87885 2.99929 10.1095 3.0005Z" fill="url(#paint1_linear_1551_221)"/>
<path d="M3.78451 7.52032C3.4535 7.64914 3.12973 7.38877 3.17773 7.03784C3.19494 6.91241 3.24339 6.73467 3.32309 6.50464C3.9002 4.83827 5.26636 3.59211 6.97937 3.19318C7.32442 3.1128 7.65181 3.40645 7.53113 3.76101C7.42698 4.06644 7.13831 4.06802 6.89492 4.14523C5.43028 4.61118 4.41189 5.75477 4.0476 7.2407C4.0156 7.37126 3.9279 7.46447 3.78451 7.52032Z" fill="url(#paint2_linear_1551_221)"/>
<path d="M18.8161 4.00327C19.7261 4.66348 20.3572 5.52995 20.7095 6.60268C20.8152 6.92463 20.962 7.37292 20.5306 7.52892C20.3029 7.61133 20.0144 7.48726 19.9535 7.23436C19.7332 6.3217 19.2548 5.52384 18.5333 4.92204C18.0205 4.49956 17.4394 4.21157 16.7899 4.05806C16.4618 3.98063 16.3466 3.5946 16.5495 3.33785C16.6964 3.15174 16.8947 3.15899 17.1223 3.21695C17.7337 3.37317 18.2983 3.63528 18.8161 4.00327Z" fill="url(#paint3_linear_1551_221)"/>
<path d="M20.5574 8.91228H20.5429C20.2984 8.91228 20.1002 9.11045 20.1002 9.35491V14.6438C20.1002 14.8883 20.2984 15.0865 20.5429 15.0865H20.5574C20.8018 15.0865 21 14.8883 21 14.6438V9.35491C21 9.11045 20.8018 8.91228 20.5574 8.91228Z" fill="url(#paint4_linear_1551_221)"/>
<path d="M3.45712 8.91522H3.44263C3.19817 8.91522 3 9.1134 3 9.35785V14.6468C3 14.8912 3.19817 15.0894 3.44263 15.0894H3.45712C3.70158 15.0894 3.89975 14.8912 3.89975 14.6468V9.35785C3.89975 9.1134 3.70158 8.91522 3.45712 8.91522Z" fill="url(#paint5_linear_1551_221)"/>
<path d="M4.11144 17.0094C4.54683 18.4828 5.7065 19.5861 7.19989 19.9423C7.78539 20.0817 7.60471 20.9586 6.94767 20.8024C5.59352 20.4805 4.43792 19.6079 3.73787 18.4079C3.50391 18.0035 3.32324 17.5534 3.19584 17.0574C3.0763 16.5925 3.53342 16.2529 3.92103 16.5645C4.04261 16.6621 4.06503 16.8257 4.11144 17.0094Z" fill="url(#paint6_linear_1551_221)"/>
<path d="M16.5393 20.6489C16.4102 20.4776 16.4118 20.2945 16.544 20.0996C16.638 19.9613 16.8001 19.947 16.947 19.9049C18.4952 19.4609 19.5872 18.3001 19.9585 16.7442C19.9701 16.6958 20.019 16.6136 20.0647 16.5756C20.2608 16.4122 20.4557 16.3999 20.6495 16.5387C20.7996 16.646 20.8558 16.8273 20.8168 17.0028C20.4039 18.8655 18.9111 20.3537 17.0682 20.7983C16.8513 20.8506 16.6744 20.828 16.5393 20.6489Z" fill="url(#paint7_linear_1551_221)"/>
<path d="M9.75288 20.1001C11.3432 20.1007 12.9333 20.1008 14.5233 20.1005C14.6494 20.1004 14.7396 20.1096 14.7941 20.1282C15.1324 20.2427 15.186 20.6935 14.9189 20.9084C14.8183 20.9892 14.6893 21.0005 14.5446 21.0005C12.8292 21.0001 11.1126 21.0004 9.39493 21.0016C9.07637 21.0016 8.87034 20.7725 8.92128 20.4603C8.99011 20.0376 9.43999 20.1021 9.75288 20.1001Z" fill="url(#paint8_linear_1551_221)"/>
<path d="M13.3906 8.24191C13.3305 8.40054 13.2437 8.57744 13.13 8.77261C12.8612 9.23403 12.5932 9.69613 12.326 10.1589L10.7489 12.8813C10.7484 12.8821 10.7481 12.8831 10.7481 12.8841C10.7481 12.8851 10.7484 12.8861 10.7489 12.8869C10.7493 12.8878 10.75 12.8885 10.7509 12.889C10.7517 12.8894 10.7526 12.8897 10.7536 12.8896C11.3162 12.8875 11.8743 12.8889 12.4279 12.8937C12.5447 12.8948 12.6388 12.9053 12.71 12.9252C13.2045 13.0644 13.4913 13.5834 13.3095 14.0717C13.3072 14.0783 13.3028 14.084 13.2971 14.0879C13.2914 14.0919 13.2846 14.094 13.2776 14.0939C11.4992 14.0914 9.71733 14.0905 7.93594 14.093C7.76885 14.0932 7.58546 14.0735 7.44622 13.9798C7.15234 13.7828 7.10004 13.4172 7.30585 13.1301C7.44215 12.9769 7.61965 12.8986 7.83836 12.8953C8.34159 12.8878 8.84173 12.8856 9.33878 12.8887C9.34317 12.8887 9.34749 12.8876 9.35131 12.8854C9.35512 12.8832 9.35829 12.8801 9.36051 12.8763L10.9309 10.1673L11.2988 9.5381C11.3027 9.53144 11.3039 9.52355 11.302 9.51614C11.298 9.50104 11.2909 9.48497 11.2805 9.46791C11.0986 9.16905 10.9024 8.82755 10.6918 8.44341C10.6231 8.31813 10.5996 8.18402 10.6212 8.04108C10.702 7.66343 11.0932 7.44811 11.4457 7.60615C11.702 7.72139 11.8608 8.07278 11.9912 8.30689C11.9925 8.30928 11.9945 8.31126 11.9968 8.31263C11.9992 8.31399 12.0019 8.31469 12.0047 8.31464C12.0074 8.3146 12.0101 8.31381 12.0124 8.31236C12.0147 8.31092 12.0166 8.30887 12.0179 8.30643C12.113 8.12055 12.2246 7.90048 12.3681 7.74471C12.6699 7.41755 13.2167 7.53687 13.3609 7.95346C13.3846 8.02199 13.3945 8.11813 13.3906 8.24191Z" fill="white"/>
<path d="M13.1499 10.302L14.3103 12.3023C14.4174 12.4904 14.5245 12.6755 14.6316 12.8575C14.6546 12.8967 14.6646 12.8901 14.704 12.8892C15.0056 12.8822 15.4942 12.8839 16.1698 12.8942C16.5361 12.8998 16.8549 13.1577 16.8173 13.5465C16.8045 13.6803 16.7504 13.797 16.6552 13.8965C16.4768 14.083 16.2871 14.0835 16.0036 14.0903C15.7893 14.0953 15.575 14.0958 15.3608 14.0919C15.3594 14.0918 15.3579 14.0922 15.3567 14.0929C15.3554 14.0936 15.3544 14.0946 15.3536 14.0959C15.3529 14.0971 15.3525 14.0985 15.3525 14.1C15.3525 14.1014 15.3528 14.1029 15.3536 14.1041L15.8795 15.0217C16.0799 15.3048 16.081 15.6903 15.7862 15.9088C15.5293 16.0995 15.1328 16.0515 14.9476 15.7734C14.783 15.5264 14.639 15.271 14.491 15.014C13.8959 13.9881 13.3009 12.9622 12.7057 11.9365C12.3616 11.3436 12.3487 10.7413 12.667 10.1297C12.7232 10.0269 12.7904 9.93303 12.8687 9.84806C12.8699 9.84677 12.8714 9.84578 12.8731 9.84516C12.8747 9.84454 12.8765 9.8443 12.8782 9.84448C12.88 9.84466 12.8816 9.84524 12.8831 9.84617C12.8845 9.84711 12.8857 9.84837 12.8866 9.84987L13.1499 10.302Z" fill="white"/>
<path d="M9.56926 14.9137C9.431 15.1533 9.29184 15.3931 9.15176 15.6333C9.10082 15.7211 9.00777 15.8495 8.9172 15.9124C8.64891 16.099 8.30454 16.0487 8.10258 15.7976C7.91127 15.5595 7.96357 15.2801 8.12251 15.022L8.4834 14.395C8.48705 14.3886 8.49196 14.383 8.49784 14.3785C8.50371 14.374 8.51043 14.3708 8.51759 14.369C8.98007 14.2499 9.36587 14.3648 9.675 14.7136C9.67983 14.719 9.68036 14.7248 9.67658 14.731L9.56926 14.9137Z" fill="white"/>
<defs>
<linearGradient id="paint0_linear_1551_221" x1="12" y1="3" x2="12" y2="21.0016" gradientUnits="userSpaceOnUse">
<stop stop-color="#15B8F5"/>
<stop offset="1" stop-color="#1F74F3"/>
</linearGradient>
<linearGradient id="paint1_linear_1551_221" x1="12" y1="3" x2="12" y2="21.0016" gradientUnits="userSpaceOnUse">
<stop stop-color="#15B8F5"/>
<stop offset="1" stop-color="#1F74F3"/>
</linearGradient>
<linearGradient id="paint2_linear_1551_221" x1="12" y1="3" x2="12" y2="21.0016" gradientUnits="userSpaceOnUse">
<stop stop-color="#15B8F5"/>
<stop offset="1" stop-color="#1F74F3"/>
</linearGradient>
<linearGradient id="paint3_linear_1551_221" x1="12" y1="3" x2="12" y2="21.0016" gradientUnits="userSpaceOnUse">
<stop stop-color="#15B8F5"/>
<stop offset="1" stop-color="#1F74F3"/>
</linearGradient>
<linearGradient id="paint4_linear_1551_221" x1="12" y1="3" x2="12" y2="21.0016" gradientUnits="userSpaceOnUse">
<stop stop-color="#15B8F5"/>
<stop offset="1" stop-color="#1F74F3"/>
</linearGradient>
<linearGradient id="paint5_linear_1551_221" x1="12" y1="3" x2="12" y2="21.0016" gradientUnits="userSpaceOnUse">
<stop stop-color="#15B8F5"/>
<stop offset="1" stop-color="#1F74F3"/>
</linearGradient>
<linearGradient id="paint6_linear_1551_221" x1="12" y1="3" x2="12" y2="21.0016" gradientUnits="userSpaceOnUse">
<stop stop-color="#15B8F5"/>
<stop offset="1" stop-color="#1F74F3"/>
</linearGradient>
<linearGradient id="paint7_linear_1551_221" x1="12" y1="3" x2="12" y2="21.0016" gradientUnits="userSpaceOnUse">
<stop stop-color="#15B8F5"/>
<stop offset="1" stop-color="#1F74F3"/>
</linearGradient>
<linearGradient id="paint8_linear_1551_221" x1="12" y1="3" x2="12" y2="21.0016" gradientUnits="userSpaceOnUse">
<stop stop-color="#15B8F5"/>
<stop offset="1" stop-color="#1F74F3"/>
</linearGradient>
</defs>
</svg>
