<svg width="24" height="24" viewBox="0 0 24 24" fill="none" xmlns="http://www.w3.org/2000/svg">
<path d="M9.91667 15.3334H14.0833M6.58333 19.0834H17.4167C17.8769 19.0834 18.25 18.7103 18.25 18.25V5.75002C18.25 5.28979 17.8769 4.91669 17.4167 4.91669H6.58333C6.1231 4.91669 5.75 5.28979 5.75 5.75002V18.25C5.75 18.7103 6.1231 19.0834 6.58333 19.0834Z" stroke="black" stroke-width="1.25" stroke-linecap="round" stroke-linejoin="round"/>
<path d="M12.0919 7.75884L12.6784 8.66282L13.7192 8.38351L13.5875 9.45303L14.5643 9.90807L13.7759 10.6427L14.2317 11.6192L13.1555 11.6751L12.877 12.7161L12.0167 12.0673L11.1342 12.6857L10.8922 11.6356L9.81865 11.5421L10.3082 10.5822L9.54596 9.82048L10.5381 9.39981L10.4437 8.32634L11.4741 8.6418L12.0919 7.75884Z" stroke="black" stroke-width="1.25" stroke-linecap="round" stroke-linejoin="round"/>
</svg>
