<svg width="24" height="24" viewBox="0 0 24 24" fill="none" xmlns="http://www.w3.org/2000/svg"><path d="M11.100 6.259 C 11.078 6.267,11.011 6.284,10.951 6.297 C 10.891 6.310,10.775 6.379,10.695 6.450 C 10.275 6.818,10.379 7.443,10.900 7.684 C 11.049 7.753,11.200 7.758,13.119 7.759 L 15.179 7.760 11.992 10.950 C 8.509 14.437,8.722 14.194,8.770 14.622 C 8.822 15.082,9.392 15.385,9.812 15.176 C 9.882 15.141,11.357 13.697,13.090 11.966 L 16.240 8.820 16.241 10.880 C 16.242 12.800,16.247 12.951,16.316 13.100 C 16.453 13.395,16.697 13.560,17.000 13.560 C 17.303 13.560,17.547 13.395,17.684 13.100 C 17.754 12.949,17.758 12.775,17.759 9.940 C 17.759 7.997,17.745 6.888,17.718 6.791 C 17.668 6.612,17.515 6.422,17.345 6.329 C 17.230 6.266,16.967 6.259,14.180 6.253 C 12.508 6.248,11.122 6.251,11.100 6.259 " stroke="none" fill-rule="evenodd" fill="black"></path></svg>