<svg width="24" height="24" viewBox="0 0 24 24" fill="none" xmlns="http://www.w3.org/2000/svg">
<path fill-rule="evenodd" clip-rule="evenodd" d="M17.75 5.5C17.6119 5.5 17.5 5.61193 17.5 5.75V18.2502C17.5 18.3883 17.6119 18.5002 17.75 18.5002H18.25C18.3881 18.5002 18.5 18.3883 18.5 18.2502V5.75C18.5 5.61193 18.3881 5.5 18.25 5.5H17.75ZM16 5.75C16 4.7835 16.7835 4 17.75 4H18.25C19.2165 4 20 4.7835 20 5.75V18.2502C20 19.2167 19.2165 20.0002 18.25 20.0002H17.75C16.7835 20.0002 16 19.2167 16 18.2502V5.75ZM9.43934 5.5L4.21967 10.7197C3.92678 11.0126 3.92678 11.4874 4.21967 11.7803C4.51256 12.0732 4.98744 12.0732 5.28033 11.7803L10.5 6.56066V8.25C10.5 8.66421 10.8358 9 11.25 9C11.6642 9 12 8.66421 12 8.25V4.75C12 4.33579 11.6642 4 11.25 4H7.75C7.33579 4 7 4.33579 7 4.75C7 5.16421 7.33579 5.5 7.75 5.5H9.43934ZM5.75 15.5C5.61193 15.5 5.5 15.6119 5.5 15.75V18.2502C5.5 18.3883 5.61193 18.5002 5.75 18.5002H6.25C6.38807 18.5002 6.5 18.3883 6.5 18.2502V15.75C6.5 15.6119 6.38807 15.5 6.25 15.5H5.75ZM4 15.75C4 14.7835 4.7835 14 5.75 14H6.25C7.2165 14 8 14.7835 8 15.75V18.2502C8 19.2167 7.2165 20.0002 6.25 20.0002H5.75C4.7835 20.0002 4 19.2167 4 18.2502V15.75ZM11.5 12.75C11.5 12.6119 11.6119 12.5 11.75 12.5H12.25C12.3881 12.5 12.5 12.6119 12.5 12.75V18.2502C12.5 18.3883 12.3881 18.5002 12.25 18.5002H11.75C11.6119 18.5002 11.5 18.3883 11.5 18.2502V12.75ZM11.75 11C10.7835 11 10 11.7835 10 12.75V18.2502C10 19.2167 10.7835 20.0002 11.75 20.0002H12.25C13.2165 20.0002 14 19.2167 14 18.2502V12.75C14 11.7835 13.2165 11 12.25 11H11.75Z" fill="black"/>
</svg>
