<svg width="24" height="24" viewBox="0 0 24 24" fill="none" xmlns="http://www.w3.org/2000/svg">
<path d="M12.6248 10.9584V5.12502C12.6248 4.66479 12.9979 4.29169 13.4582 4.29169H17.2082C17.6684 4.29169 18.0415 4.66479 18.0415 5.12502V10.9584M12.6248 7.62502H14.7082M5.95817 10.9584V7.21012C5.95817 7.07221 5.9924 6.93646 6.05778 6.81504L7.21896 4.65855C7.34063 4.4326 7.57654 4.29169 7.83317 4.29169C8.0898 4.29169 8.32571 4.4326 8.44738 4.65855L9.60856 6.81504C9.67395 6.93646 9.70817 7.07221 9.70817 7.21012V10.9584M4.2915 10.9584H19.7082V18.0417C19.7082 18.5019 19.3351 18.875 18.8748 18.875H5.12484C4.6646 18.875 4.2915 18.5019 4.2915 18.0417V10.9584Z" stroke="black" stroke-width="1.5" stroke-linecap="round" stroke-linejoin="round"/>
</svg>
