<svg width="24" height="24" viewBox="0 0 24 24" fill="none" xmlns="http://www.w3.org/2000/svg">
<path fill-rule="evenodd" clip-rule="evenodd" d="M12 4C7.99485 4 6 7.18299 6 10C6 12.2346 6.85608 13.5332 7.6989 14.4462C7.89185 14.6552 8.08374 14.8439 8.2515 15.0088L8.27493 15.0318C8.45415 15.2081 8.59825 15.351 8.71767 15.487C8.95939 15.7623 9 15.9004 9 16V18.2505C9 19.2175 9.78397 20 10.75 20H13.25C14.216 20 15 19.2175 15 18.2505V16C15 15.9004 15.0406 15.7623 15.2823 15.487C15.4018 15.351 15.5459 15.2081 15.7251 15.0318L15.7485 15.0088C15.9163 14.8439 16.1082 14.6552 16.3011 14.4462C17.1439 13.5332 18 12.2346 18 10C18 7.18299 16.0052 4 12 4ZM7.5 10C7.5 7.81701 9.00515 5.5 12 5.5C14.9948 5.5 16.5 7.81701 16.5 10C16.5 11.7654 15.8561 12.7168 15.1989 13.4288C15.0312 13.6105 14.8624 13.7765 14.6897 13.9462L14.6734 13.9623C14.501 14.1318 14.317 14.313 14.1552 14.4973C13.8344 14.8627 13.5 15.3496 13.5 16H10.5C10.5 15.3496 10.1656 14.8627 9.84483 14.4973C9.683 14.313 9.49898 14.1318 9.32664 13.9623L9.31031 13.9462C9.13764 13.7765 8.96883 13.6105 8.8011 13.4288C8.14392 12.7168 7.5 11.7654 7.5 10ZM10.5 17.5V18.2505C10.5 18.3881 10.6114 18.5 10.75 18.5H13.25C13.3886 18.5 13.5 18.3881 13.5 18.2505V17.5H10.5Z" fill="black"/>
</svg>
