<svg width="24" height="24" viewBox="0 0 24 24" fill="none" xmlns="http://www.w3.org/2000/svg"><path d="M13.703 4.407 C 13.515 4.449,13.301 4.603,13.224 4.752 C 13.182 4.835,9.701 17.533,9.413 18.655 C 9.362 18.853,9.361 18.920,9.404 19.073 C 9.510 19.454,9.921 19.696,10.292 19.597 C 10.495 19.543,10.700 19.395,10.777 19.246 C 10.826 19.151,14.549 5.553,14.620 5.210 C 14.672 4.954,14.494 4.609,14.247 4.485 C 14.050 4.387,13.892 4.364,13.703 4.407 M6.433 7.810 C 6.351 7.860,5.617 8.610,4.801 9.479 C 3.603 10.752,3.293 11.105,3.196 11.303 C 2.975 11.752,2.975 12.248,3.196 12.697 C 3.293 12.895,3.604 13.249,4.799 14.521 C 5.748 15.531,6.342 16.132,6.447 16.190 C 6.818 16.392,7.268 16.247,7.469 15.861 C 7.549 15.708,7.549 15.372,7.469 15.219 C 7.435 15.154,6.758 14.410,5.964 13.566 C 5.170 12.723,4.520 12.018,4.520 12.000 C 4.520 11.982,5.170 11.277,5.964 10.434 C 6.758 9.590,7.435 8.846,7.469 8.781 C 7.549 8.628,7.549 8.292,7.469 8.139 C 7.388 7.984,7.209 7.816,7.067 7.763 C 6.876 7.690,6.595 7.711,6.433 7.810 M16.920 7.765 C 16.789 7.817,16.608 7.990,16.531 8.139 C 16.451 8.292,16.451 8.628,16.531 8.781 C 16.565 8.846,17.242 9.590,18.036 10.434 C 18.830 11.277,19.480 11.982,19.480 12.000 C 19.480 12.018,18.830 12.723,18.036 13.566 C 17.242 14.410,16.565 15.154,16.531 15.219 C 16.451 15.372,16.451 15.708,16.531 15.861 C 16.732 16.247,17.182 16.392,17.553 16.190 C 17.658 16.132,18.252 15.531,19.201 14.521 C 20.396 13.249,20.707 12.895,20.804 12.697 C 21.025 12.248,21.025 11.752,20.804 11.303 C 20.707 11.105,20.397 10.752,19.199 9.479 C 18.383 8.610,17.649 7.860,17.567 7.810 C 17.408 7.713,17.104 7.692,16.920 7.765 " stroke="none" fill-rule="evenodd" fill="black"></path></svg>