<svg width="24" height="24" viewBox="0 0 24 24" fill="none" xmlns="http://www.w3.org/2000/svg">
<path fill-rule="evenodd" clip-rule="evenodd" d="M6.1665 5.125C6.1665 4.77982 6.44633 4.5 6.7915 4.5H16.1665C17.4979 4.5 18.5772 5.57931 18.5772 6.91071V16.2857C18.5772 17.6171 17.4979 18.6964 16.1665 18.6964H6.7915C6.44633 18.6964 6.1665 18.4166 6.1665 18.0714V5.125ZM7.4165 5.75V17.4464H16.1665C16.8075 17.4464 17.3272 16.9268 17.3272 16.2857V6.91071C17.3272 6.26967 16.8075 5.75 16.1665 5.75H7.4165ZM12.3715 8.42859C11.6072 8.42859 10.9876 9.0482 10.9876 9.81252C10.9876 10.5768 11.6072 11.1965 12.3715 11.1965C13.1359 11.1965 13.7555 10.5768 13.7555 9.81252C13.7555 9.0482 13.1359 8.42859 12.3715 8.42859ZM9.73761 9.81252C9.73761 8.35784 10.9169 7.17859 12.3715 7.17859C13.8262 7.17859 15.0055 8.35784 15.0055 9.81252C15.0055 11.2672 13.8262 12.4465 12.3715 12.4465C10.9169 12.4465 9.73761 11.2672 9.73761 9.81252ZM10.3626 13.875C10.0174 13.875 9.73761 14.1548 9.73761 14.5C9.73761 14.8452 10.0174 15.125 10.3626 15.125H14.3805C14.7256 15.125 15.0055 14.8452 15.0055 14.5C15.0055 14.1548 14.7256 13.875 14.3805 13.875H10.3626Z" fill="black"/>
</svg>
