<svg width="24" height="24" viewBox="0 0 24 24" fill="none" xmlns="http://www.w3.org/2000/svg">
<path d="M14.5002 5.81791C13.7282 5.5054 12.8842 5.33331 12.0002 5.33331C8.31826 5.33331 5.3335 8.31808 5.3335 12C5.3335 14.6359 6.8633 16.9146 9.0835 17.9965M9.50016 14.5V18.6666H5.3335" stroke="black" stroke-width="1.25" stroke-linecap="round" stroke-linejoin="round"/>
<path d="M12.8333 19.5C13.2936 19.5 13.6667 19.1269 13.6667 18.6666C13.6667 18.2064 13.2936 17.8333 12.8333 17.8333C12.3731 17.8333 12 18.2064 12 18.6666C12 19.1269 12.3731 19.5 12.8333 19.5Z" fill="black"/>
<path d="M19.5002 11.1667C19.5002 10.7064 19.1271 10.3333 18.6668 10.3333C18.2066 10.3333 17.8335 10.7064 17.8335 11.1667C17.8335 11.6269 18.2066 12 18.6668 12C19.1271 12 19.5002 11.6269 19.5002 11.1667Z" fill="black"/>
<path d="M18.6081 13.8899C19.0067 14.1201 19.1432 14.6297 18.9131 15.0283C18.6829 15.4269 18.1733 15.5634 17.7747 15.3333C17.3762 15.1031 17.2396 14.5936 17.4697 14.195C17.6998 13.7964 18.2095 13.6598 18.6081 13.8899Z" fill="black"/>
<path d="M16.4728 18.0785C16.8714 17.8484 17.008 17.3387 16.7778 16.9402C16.5477 16.5416 16.0381 16.405 15.6395 16.6351C15.2409 16.8652 15.1043 17.3749 15.3345 17.7735C15.5646 18.1721 16.0742 18.3086 16.4728 18.0785Z" fill="black"/>
<path d="M17.7726 8.66667C17.3741 8.89679 16.8644 8.76023 16.6342 8.36165C16.4041 7.96307 16.5407 7.45341 16.9392 7.2233C17.3378 6.99318 17.8475 7.12974 18.0776 7.52832C18.3077 7.9269 18.1711 8.43655 17.7726 8.66667Z" fill="black"/>
</svg>
