<svg width="24" height="24" viewBox="0 0 24 24" fill="none" xmlns="http://www.w3.org/2000/svg"><path d="M10.580 3.878 C 8.328 4.279,6.399 5.547,5.103 7.480 C 4.602 8.226,4.107 9.412,3.926 10.300 C 3.672 11.541,3.706 12.900,4.019 14.095 C 4.776 16.981,7.083 19.264,9.980 19.992 C 10.777 20.192,11.026 20.219,12.020 20.218 C 12.972 20.216,13.276 20.183,14.008 19.997 C 15.695 19.570,17.238 18.594,18.337 17.260 C 19.101 16.333,19.597 15.397,19.927 14.260 C 20.070 13.766,20.203 13.035,20.211 12.707 C 20.219 12.292,20.027 12.024,19.646 11.922 C 19.410 11.858,19.274 11.894,18.900 12.119 C 18.059 12.624,17.351 12.852,16.456 12.905 C 14.042 13.049,11.846 11.438,11.241 9.080 C 10.900 7.749,11.120 6.362,11.866 5.129 C 12.065 4.800,12.096 4.721,12.098 4.544 C 12.100 4.265,11.989 4.057,11.765 3.915 C 11.605 3.813,11.549 3.800,11.282 3.803 C 11.116 3.805,10.800 3.839,10.580 3.878 M9.867 5.906 C 9.487 7.114,9.495 8.570,9.888 9.799 C 10.223 10.846,10.748 11.709,11.519 12.481 C 12.769 13.730,14.389 14.402,16.156 14.402 C 16.910 14.403,17.376 14.339,18.040 14.145 C 18.227 14.091,18.386 14.053,18.394 14.061 C 18.428 14.094,18.221 14.620,18.007 15.042 C 17.116 16.806,15.516 18.075,13.580 18.556 C 12.569 18.806,11.351 18.795,10.300 18.525 C 7.681 17.852,5.702 15.625,5.320 12.920 C 5.253 12.450,5.262 11.462,5.337 10.980 C 5.680 8.766,7.049 6.916,9.068 5.934 C 9.489 5.730,9.924 5.556,9.953 5.581 C 9.960 5.588,9.921 5.734,9.867 5.906 " stroke="none" fill-rule="evenodd" fill="black"></path></svg>