<svg width="24" height="24" viewBox="0 0 24 24" fill="none" xmlns="http://www.w3.org/2000/svg">
<path d="M17.8332 6.58333C17.8332 7.73392 15.2215 8.66667 11.9998 8.66667C8.77818 8.66667 6.1665 7.73392 6.1665 6.58333M17.8332 6.58333C17.8332 5.43274 15.2215 4.5 11.9998 4.5C8.77818 4.5 6.1665 5.43274 6.1665 6.58333M17.8332 6.58333V17.4167C17.8332 18.5672 15.2215 19.5 11.9998 19.5C8.77818 19.5 6.1665 18.5672 6.1665 17.4167V6.58333M17.8332 10.125C17.8332 11.2756 15.2215 12.2083 11.9998 12.2083C8.77818 12.2083 6.1665 11.2756 6.1665 10.125M17.8332 13.6667C17.8332 14.8172 15.2215 15.75 11.9998 15.75C8.77818 15.75 6.1665 14.8172 6.1665 13.6667" stroke="black" stroke-width="1.25" stroke-linecap="round" stroke-linejoin="round"/>
</svg>
