<svg width="24" height="24" viewBox="0 0 24 24" fill="none" xmlns="http://www.w3.org/2000/svg">
<path d="M5.95817 14.9167V18.875C5.95817 19.3353 6.33127 19.7084 6.7915 19.7084H17.2082C17.6684 19.7084 18.0415 19.3353 18.0415 18.875V14.9167M11.9998 8.04167C11.5195 8.04201 11.0391 7.85895 10.6727 7.49249C9.94044 6.76026 9.94044 5.57307 10.6727 4.84084L11.9985 3.51501L13.3243 4.84084C14.0566 5.57307 14.0566 6.76026 13.3243 7.49249C12.9585 7.85827 12.4793 8.04132 11.9998 8.04167ZM11.9998 8.04167V10.125M11.9998 10.125H6.37484C5.9146 10.125 5.5415 10.4981 5.5415 10.9584V13.7969C5.5415 14.1019 5.70808 14.3825 5.9758 14.5285L7.41441 15.3133C7.67384 15.4548 7.9888 15.4483 8.2422 15.2963L9.48776 14.5489C9.75166 14.3906 10.0813 14.3906 10.3453 14.5489L11.5711 15.2844C11.835 15.4428 12.1647 15.4428 12.4286 15.2844L13.6544 14.5489C13.9183 14.3906 14.248 14.3906 14.5119 14.5489L15.7575 15.2963C16.0108 15.4483 16.3258 15.4548 16.5853 15.3133L18.0239 14.5285C18.2916 14.3825 18.4582 14.1019 18.4582 13.7969V10.9584C18.4582 10.4981 18.0851 10.125 17.6248 10.125H11.9998Z" stroke="black" stroke-width="1.5" stroke-linecap="round" stroke-linejoin="round"/>
</svg>
