<svg width="24" height="24" viewBox="0 0 24 24" fill="none" xmlns="http://www.w3.org/2000/svg">
<path fill-rule="evenodd" clip-rule="evenodd" d="M11.741 3.04291C11.9047 2.96421 12.0954 2.96421 12.2591 3.04291L20.6669 7.08382C20.8928 7.19238 21.0272 7.42359 20.9954 7.67218C20.704 9.95159 18.9321 21.016 12.0001 21.016C5.06803 21.016 3.29616 9.95159 3.00469 7.67218C2.9729 7.42359 3.10734 7.19238 3.33321 7.08382L11.741 3.04291ZM15.192 13.1686H13.7347C12.7283 13.1686 11.9125 13.9849 11.9125 14.9919V16.4503H9.36186V7.69907H15.192V9.35432C14.9776 9.22995 14.729 9.15753 14.4632 9.15753C13.6583 9.15753 13.0058 9.81067 13.0058 10.6162C13.0058 11.4217 13.6583 12.0747 14.4632 12.0747C14.729 12.0747 14.9776 12.0023 15.192 11.8779V13.1686Z" fill="black"/>
</svg>
