<svg width="24" height="24" viewBox="0 0 24 24" fill="none" xmlns="http://www.w3.org/2000/svg">
<path d="M19.3333 6.00003V5.33337C19.3318 4.80341 19.1206 4.2956 18.7458 3.92086C18.3711 3.54612 17.8633 3.33491 17.3333 3.33337H4C3.47004 3.33491 2.96223 3.54612 2.58749 3.92086C2.21275 4.2956 2.00154 4.80341 2 5.33337V16C2.00154 16.53 2.21275 17.0378 2.58749 17.4125C2.96223 17.7873 3.47004 17.9985 4 18H4.66667M7.24958 6.6667H20.0838C21.1421 6.6667 22 7.52463 22 8.58294V18.7504C22 19.8087 21.1421 20.6667 20.0838 20.6667H7.24958C6.19127 20.6667 5.33333 19.8087 5.33333 18.7504V8.58294C5.33333 7.52463 6.19127 6.6667 7.24958 6.6667Z" stroke="black" stroke-width="1.5" stroke-linejoin="round"/>
<path d="M15.0616 17.3731C15.3558 17.6647 15.8306 17.6626 16.1222 17.3685C16.4138 17.0743 16.4118 16.5994 16.1176 16.3078L15.0616 17.3731ZM11.9583 13.2409L12.4863 12.7082L12.4855 12.7074L11.9583 13.2409ZM10.2008 13.1905L9.70517 12.6276L9.70465 12.6281L10.2008 13.1905ZM4.83715 16.9227C4.52654 17.1967 4.49691 17.6706 4.77095 17.9813C5.04499 18.2919 5.51894 18.3215 5.82954 18.0474L4.83715 16.9227ZM11.8562 20.1345C11.5622 20.4263 11.5605 20.9011 11.8523 21.1951C12.1442 21.4891 12.619 21.4908 12.913 21.199L11.8562 20.1345ZM17.3258 15.7613L16.7992 15.2273L16.7974 15.2291L17.3258 15.7613ZM19.0533 15.6834L19.5314 15.1055L19.5298 15.1042L19.0533 15.6834ZM21.5219 18.6992C21.8411 18.9632 22.3138 18.9185 22.5779 18.5994C22.8419 18.2802 22.7972 17.8075 22.4781 17.5434L21.5219 18.6992ZM17.4038 10.4851C17.4038 10.7688 17.1706 11.008 16.8717 11.008V12.508C17.9889 12.508 18.9038 11.6074 18.9038 10.4851H17.4038ZM16.8717 11.008C16.5727 11.008 16.3396 10.7688 16.3396 10.4851H14.8396C14.8396 11.6074 15.7545 12.508 16.8717 12.508V11.008ZM16.3396 10.4851C16.3396 10.2013 16.5727 9.96216 16.8717 9.96216V8.46216C15.7545 8.46216 14.8396 9.36278 14.8396 10.4851H16.3396ZM16.8717 9.96216C17.1706 9.96216 17.4038 10.2013 17.4038 10.4851H18.9038C18.9038 9.36278 17.9889 8.46216 16.8717 8.46216V9.96216ZM16.1176 16.3078L12.4863 12.7082L11.4303 13.7735L15.0616 17.3731L16.1176 16.3078ZM12.4855 12.7074C12.1182 12.3446 11.6271 12.1346 11.111 12.1198L11.068 13.6191C11.2044 13.623 11.3342 13.6785 11.4312 13.7744L12.4855 12.7074ZM11.111 12.1198C10.595 12.1049 10.0926 12.2864 9.70517 12.6276L10.6965 13.7533C10.7989 13.6632 10.9317 13.6152 11.068 13.6191L11.111 12.1198ZM9.70465 12.6281L4.83715 16.9227L5.82954 18.0474L10.697 13.7529L9.70465 12.6281ZM12.913 21.199L17.8542 16.2936L16.7974 15.2291L11.8562 20.1345L12.913 21.199ZM17.8525 16.2953C17.9478 16.2013 18.0746 16.1459 18.2084 16.1399L18.1408 14.6414C17.6366 14.6641 17.1586 14.8729 16.7992 15.2273L17.8525 16.2953ZM18.2084 16.1399C18.3422 16.1338 18.4735 16.1776 18.5769 16.2626L19.5298 15.1042C19.1399 14.7835 18.6451 14.6186 18.1408 14.6414L18.2084 16.1399ZM18.5752 16.2613L21.5219 18.6992L22.4781 17.5434L19.5314 15.1055L18.5752 16.2613Z" fill="black"/>
</svg>
