<svg width="24" height="24" viewBox="0 0 24 24" fill="none" xmlns="http://www.w3.org/2000/svg"><path d="M13.340 4.666 C 13.149 4.767,13.047 4.879,12.976 5.066 C 12.839 5.423,12.995 5.833,13.330 5.995 C 13.500 6.077,13.555 6.080,15.182 6.080 L 16.859 6.080 14.934 8.010 C 12.865 10.084,12.889 10.056,12.931 10.425 C 12.985 10.909,13.497 11.206,13.951 11.019 C 14.054 10.976,14.695 10.362,16.010 9.049 L 17.920 7.140 17.920 8.818 C 17.920 10.445,17.923 10.500,18.005 10.670 C 18.174 11.019,18.604 11.170,18.968 11.009 C 19.199 10.907,19.349 10.709,19.400 10.441 C 19.457 10.140,19.453 5.467,19.396 5.199 C 19.345 4.963,19.169 4.736,18.972 4.654 C 18.867 4.610,18.324 4.600,16.151 4.602 C 13.777 4.603,13.446 4.611,13.340 4.666 M5.015 12.994 C 4.798 13.096,4.650 13.298,4.600 13.559 C 4.542 13.865,4.547 18.533,4.605 18.808 C 4.668 19.103,4.897 19.332,5.192 19.395 C 5.467 19.453,10.135 19.458,10.441 19.400 C 10.703 19.350,10.905 19.201,11.003 18.985 C 11.157 18.646,11.054 18.264,10.752 18.054 L 10.587 17.940 8.873 17.920 L 7.160 17.900 9.044 16.020 C 10.303 14.763,10.953 14.087,11.003 13.980 C 11.278 13.394,10.716 12.762,10.095 12.960 C 9.971 12.999,9.555 13.393,8.010 14.934 L 6.080 16.859 6.080 15.182 C 6.080 13.577,6.076 13.498,5.999 13.337 C 5.828 12.984,5.375 12.826,5.015 12.994 " stroke="none" fill-rule="evenodd" fill="black"></path></svg>