<svg width="24" height="24" viewBox="0 0 24 24" fill="none" xmlns="http://www.w3.org/2000/svg">
<path fill-rule="evenodd" clip-rule="evenodd" d="M8.75 4C7.23122 4 6 5.23122 6 6.75V17.25C6 18.7688 7.23122 20 8.75 20H15.25C16.7688 20 18 18.7688 18 17.25V6.75C18 5.23122 16.7688 4 15.25 4H8.75ZM7.5 6.75C7.5 6.05964 8.05964 5.5 8.75 5.5H15.25C15.9404 5.5 16.5 6.05964 16.5 6.75V17.25C16.5 17.9404 15.9404 18.5 15.25 18.5H8.75C8.05964 18.5 7.5 17.9404 7.5 17.25V6.75ZM11.75 16C11.3358 16 11 16.3358 11 16.75C11 17.1642 11.3358 17.5 11.75 17.5H12.25C12.6642 17.5 13 17.1642 13 16.75C13 16.3358 12.6642 16 12.25 16H11.75Z" fill="black"/>
</svg>
