<svg width="24" height="24" viewBox="0 0 24 24" fill="none" xmlns="http://www.w3.org/2000/svg">
<path fill-rule="evenodd" clip-rule="evenodd" d="M12.7538 5.66003C12.7538 5.24582 12.418 4.91003 12.0038 4.91003C11.5895 4.91003 11.2538 5.24582 11.2538 5.66003V16.4756L7.95252 13.0172C7.66652 12.7176 7.19177 12.7065 6.89215 12.9925C6.59252 13.2785 6.58148 13.7533 6.86749 14.0529L11.4612 18.8654C11.6028 19.0137 11.7988 19.0975 12.0038 19.0975C12.2087 19.0975 12.4048 19.0137 12.5463 18.8654L17.14 14.0529C17.426 13.7533 17.415 13.2785 17.1154 12.9925C16.8157 12.7065 16.341 12.7176 16.055 13.0172L12.7538 16.4756V5.66003Z" fill="#2D2D2D"/>
</svg>
