<svg width="24" height="24" viewBox="0 0 24 24" fill="none" xmlns="http://www.w3.org/2000/svg">
<g clip-path="url(#clip0_240_101)">
<path fill-rule="evenodd" clip-rule="evenodd" d="M17.4801 6.51992C14.4535 3.49336 9.5465 3.49336 6.51992 6.51993C3.49336 9.54648 3.49336 14.4535 6.51993 17.4801L5.9896 18.0104L6.51993 17.4801C9.54648 20.5066 14.4535 20.5066 17.4801 17.4801C20.5066 14.4535 20.5066 9.5465 17.4801 6.51992ZM5.45927 5.45927C9.07162 1.84691 14.9284 1.84691 18.5407 5.45927C22.1531 9.07162 22.1531 14.9284 18.5407 18.5407C14.9284 22.1531 9.0716 22.1531 5.45927 18.5407C1.84691 14.9284 1.84691 9.0716 5.45927 5.45927ZM8.52405 8.79935C8.69659 8.54054 9.01731 8.26351 9.47297 8.26351C9.92864 8.26351 10.2494 8.54054 10.4219 8.79935C10.5979 9.0634 10.6824 9.38497 10.6824 9.7027C10.6824 10.0204 10.5979 10.342 10.4219 10.6061C10.2494 10.8649 9.92864 11.1419 9.47297 11.1419C9.01731 11.1419 8.69659 10.8649 8.52405 10.6061C8.34802 10.342 8.26351 10.0204 8.26351 9.7027C8.26351 9.38497 8.34802 9.0634 8.52405 8.79935ZM13.5781 8.79935C13.7506 8.54054 14.0714 8.26351 14.527 8.26351C14.9827 8.26351 15.3034 8.54054 15.476 8.79935C15.652 9.0634 15.7365 9.38497 15.7365 9.7027C15.7365 10.0204 15.652 10.342 15.476 10.6061C15.3034 10.8649 14.9827 11.1419 14.527 11.1419C14.0714 11.1419 13.7506 10.8649 13.5781 10.6061C13.4021 10.342 13.3176 10.0204 13.3176 9.7027C13.3176 9.38497 13.4021 9.0634 13.5781 8.79935ZM8.87085 14.0688C9.16375 13.7759 9.63862 13.7759 9.93151 14.0688C11.0741 15.2113 12.9265 15.2113 14.069 14.0688C14.3619 13.7759 14.8368 13.7759 15.1297 14.0688C15.4226 14.3617 15.4226 14.8365 15.1297 15.1294C13.4014 16.8578 10.5992 16.8578 8.87085 15.1294C8.57796 14.8365 8.57796 14.3617 8.87085 14.0688Z" fill="black"/>
</g>
<defs>
<clipPath id="clip0_240_101">
<rect width="20" height="20" fill="white" transform="translate(2 2)"/>
</clipPath>
</defs>
</svg>
