<svg width="24" height="24" viewBox="0 0 24 24" fill="none" xmlns="http://www.w3.org/2000/svg">
<path fill-rule="evenodd" clip-rule="evenodd" d="M5 4.75C5 4.33579 5.33579 4 5.75 4H16.25C17.7688 4 19 5.23122 19 6.75V13.7237C18.5387 13.5231 18.0322 13.407 17.5 13.3949V6.75C17.5 6.05964 16.9404 5.5 16.25 5.5H6.5V18.5H13.5617C13.7225 19.0601 14.0024 19.5698 14.3723 20H5.75C5.33579 20 5 19.6642 5 19.25V4.75ZM14.5715 14.5722C14.1721 14.9735 13.8574 15.4591 13.6563 16H9.75C9.33579 16 9 15.6642 9 15.25C9 14.8358 9.33579 14.5 9.75 14.5H14.25C14.3651 14.5 14.4741 14.5259 14.5715 14.5722ZM12 8.5C11.1716 8.5 10.5 9.17157 10.5 10C10.5 10.8284 11.1716 11.5 12 11.5C12.8284 11.5 13.5 10.8284 13.5 10C13.5 9.17157 12.8284 8.5 12 8.5ZM9 10C9 8.34315 10.3431 7 12 7C13.6569 7 15 8.34315 15 10C15 11.6569 13.6569 13 12 13C10.3431 13 9 11.6569 9 10ZM19.8244 16.487C20.0551 16.2563 20.0551 15.8824 19.8244 15.6517C19.5938 15.4211 19.2198 15.4211 18.9891 15.6517L16.7578 17.8831L15.8244 16.9498C15.5938 16.7191 15.2198 16.7191 14.9891 16.9497C14.7585 17.1804 14.7585 17.5544 14.9891 17.785L16.3401 19.1361C16.4509 19.2468 16.6011 19.3091 16.7578 19.3091C16.9144 19.3091 17.0646 19.2468 17.1754 19.1361L19.8244 16.487Z" fill="black"/>
</svg>