<svg width="24" height="24" viewBox="0 0 24 24" fill="none" xmlns="http://www.w3.org/2000/svg">
<path fill-rule="evenodd" clip-rule="evenodd" d="M13.1 5.75C13.1 5.25294 12.697 4.85 12.2 4.85C11.7029 4.85 11.3 5.25294 11.3 5.75V11.1H5.94995C5.45289 11.1 5.04995 11.5029 5.04995 12C5.04995 12.4971 5.45289 12.9 5.94995 12.9H11.3V18.25C11.3 18.7471 11.7029 19.15 12.2 19.15C12.697 19.15 13.1 18.7471 13.1 18.25V12.9H18.45C18.947 12.9 19.35 12.4971 19.35 12C19.35 11.5029 18.947 11.1 18.45 11.1H13.1V5.75Z" fill="black"/>
</svg>
