<svg width="24" height="24" viewBox="0 0 24 24" fill="none" xmlns="http://www.w3.org/2000/svg"><path d="M8.260 4.405 C 6.280 4.561,4.575 5.906,3.881 7.860 C 3.163 9.885,3.596 12.191,5.112 14.420 C 5.593 15.126,5.971 15.573,6.719 16.323 C 7.946 17.553,9.166 18.482,10.929 19.532 C 11.740 20.014,11.795 20.040,12.000 20.040 C 12.205 20.040,12.260 20.014,13.071 19.532 C 16.803 17.311,19.216 14.729,20.092 12.018 C 20.556 10.584,20.575 9.189,20.147 7.940 C 19.522 6.111,17.999 4.772,16.187 4.458 C 15.732 4.379,14.929 4.378,14.500 4.456 C 14.098 4.529,13.597 4.687,13.211 4.863 C 12.972 4.972,12.348 5.358,12.053 5.580 C 12.018 5.606,11.982 5.606,11.947 5.580 C 11.650 5.357,11.027 4.971,10.785 4.861 C 9.981 4.494,9.112 4.337,8.260 4.405 M9.281 5.943 C 9.657 6.014,10.066 6.168,10.429 6.373 C 10.746 6.553,10.906 6.672,11.285 7.009 C 11.875 7.533,12.125 7.533,12.715 7.009 C 13.094 6.672,13.254 6.553,13.571 6.373 C 14.724 5.719,16.016 5.723,17.114 6.383 C 17.392 6.551,17.849 6.953,18.064 7.220 C 18.893 8.250,19.152 9.679,18.777 11.156 C 18.523 12.156,17.944 13.255,17.130 14.280 C 16.441 15.149,15.145 16.329,13.934 17.191 C 13.308 17.635,12.086 18.400,12.000 18.400 C 11.918 18.400,10.748 17.673,10.127 17.236 C 8.923 16.388,7.564 15.155,6.869 14.280 C 6.043 13.238,5.467 12.142,5.221 11.140 C 4.853 9.642,5.110 8.234,5.937 7.216 C 6.171 6.928,6.615 6.543,6.920 6.365 C 7.336 6.123,7.580 6.036,8.220 5.906 C 8.415 5.866,8.979 5.885,9.281 5.943 " stroke="none" fill-rule="evenodd" fill="black"></path></svg>