<svg width="24" height="24" viewBox="0 0 24 24" fill="none" xmlns="http://www.w3.org/2000/svg"><path d="M7.180 2.776 C 6.786 2.902,6.399 3.213,6.230 3.540 C 6.033 3.922,6.041 3.577,6.040 12.003 C 6.040 20.554,6.028 20.067,6.241 20.480 C 6.357 20.707,6.680 21.001,6.960 21.135 L 7.220 21.260 12.000 21.260 L 16.780 21.260 17.040 21.135 C 17.320 21.001,17.643 20.707,17.759 20.480 C 17.972 20.067,17.960 20.554,17.960 12.000 C 17.960 3.446,17.972 3.933,17.759 3.520 C 17.643 3.293,17.320 2.999,17.040 2.865 L 16.780 2.740 12.060 2.732 C 8.325 2.726,7.307 2.735,7.180 2.776 M16.420 12.000 L 16.420 19.780 12.000 19.780 L 7.580 19.780 7.570 12.040 C 7.564 7.783,7.568 4.277,7.579 4.250 C 7.594 4.210,8.501 4.202,12.009 4.210 L 16.420 4.220 16.420 12.000 M9.960 17.317 C 9.555 17.397,9.291 17.831,9.403 18.232 C 9.468 18.462,9.692 18.698,9.900 18.755 C 10.116 18.815,13.879 18.817,14.093 18.757 C 14.308 18.697,14.536 18.456,14.594 18.226 C 14.698 17.816,14.451 17.412,14.042 17.324 C 13.814 17.275,10.203 17.269,9.960 17.317 " stroke="none" fill-rule="evenodd" fill="black"></path></svg>