<svg width="24" height="24" viewBox="0 0 24 24" fill="none" xmlns="http://www.w3.org/2000/svg">
<path d="M23 17.0581C23 18.9408 21.467 20.4738 19.5844 20.4738H1V6.94568C1 5.06304 2.53301 3.53003 4.41565 3.53003H23V17.0581Z" fill="white"/>
<path d="M18.1993 4.6731C16.8545 4.6731 15.7519 5.76234 15.7519 7.12053V9.66209H19.2078C19.2885 9.66209 19.3827 9.66209 19.4499 9.67554C20.2298 9.71588 20.8081 10.1193 20.8081 10.8186C20.8081 11.3699 20.4181 11.8406 19.6919 11.9347V11.9616C20.4853 12.0154 21.0905 12.4592 21.0905 13.145C21.0905 13.8846 20.4181 14.3687 19.5306 14.3687H15.7384V19.3442H19.3289C20.6736 19.3442 21.7763 18.255 21.7763 16.8968V4.6731H18.1993Z" fill="url(#paint0_linear_1275_632)"/>
<path d="M16.9487 13.5887H18.3607C18.3808 13.5887 18.4144 13.5854 18.4481 13.582C18.4817 13.5786 18.5153 13.5753 18.5355 13.5753C18.8044 13.5215 19.033 13.2794 19.033 12.9433C19.033 12.6205 18.8044 12.3785 18.5355 12.3112C18.4951 12.2978 18.4144 12.2978 18.3607 12.2978H16.9487V13.5887Z" fill="url(#paint1_linear_1275_632)"/>
<path d="M18.3607 10.4017C18.6296 10.442 18.8582 10.6572 18.8582 10.9799C18.8582 11.3027 18.6296 11.5178 18.3607 11.5582C18.3472 11.5716 18.2665 11.5716 18.2262 11.5716H16.9487V10.3882H18.2262C18.2484 10.3882 18.2787 10.3923 18.306 10.396C18.3283 10.399 18.3486 10.4017 18.3607 10.4017Z" fill="url(#paint2_linear_1275_632)"/>
<path d="M4.67115 4.6731C3.3264 4.6731 2.22371 5.76234 2.22371 7.12053V13.1584C2.90953 13.4946 3.62225 13.7098 4.33496 13.7098C5.18215 13.7098 5.63936 13.1988 5.63936 12.4995V9.64865H7.73716V12.4861C7.73716 13.5887 7.05134 14.4897 4.72494 14.4897C3.31296 14.4897 2.21027 14.1804 2.21027 14.1804V19.3308H5.80073C7.14547 19.3308 8.24816 18.2416 8.24816 16.8834V4.6731H4.67115Z" fill="url(#paint3_linear_1275_632)"/>
<path d="M11.4352 4.6731C10.0905 4.6731 8.98779 5.76234 8.98779 7.12053V10.321C9.60637 9.79657 10.6822 9.46038 12.4169 9.54107C13.3448 9.58141 14.3399 9.83691 14.3399 9.83691V10.8724C13.8423 10.6169 13.2506 10.3883 12.4841 10.3345C11.1663 10.2403 10.3729 10.8858 10.3729 12.0154C10.3729 13.1584 11.1663 13.8039 12.4841 13.6963C13.2506 13.6425 13.8423 13.4005 14.3399 13.1584V14.1939C14.3399 14.1939 13.3582 14.4494 12.4169 14.4897C10.6822 14.5704 9.60637 14.2342 8.98779 13.7098V19.3577H12.5783C13.923 19.3577 15.0257 18.2684 15.0257 16.9103V4.6731H11.4352Z" fill="url(#paint4_linear_1275_632)"/>
<defs>
<linearGradient id="paint0_linear_1275_632" x1="15.7492" y1="10.9779" x2="21.7923" y2="10.9779" gradientUnits="userSpaceOnUse">
<stop stop-color="#007940"/>
<stop offset="0.2285" stop-color="#00873F"/>
<stop offset="0.7433" stop-color="#40A737"/>
<stop offset="1" stop-color="#5CB531"/>
</linearGradient>
<linearGradient id="paint1_linear_1275_632" x1="15.7492" y1="10.9779" x2="21.7923" y2="10.9779" gradientUnits="userSpaceOnUse">
<stop stop-color="#007940"/>
<stop offset="0.2285" stop-color="#00873F"/>
<stop offset="0.7433" stop-color="#40A737"/>
<stop offset="1" stop-color="#5CB531"/>
</linearGradient>
<linearGradient id="paint2_linear_1275_632" x1="15.7492" y1="10.9779" x2="21.7923" y2="10.9779" gradientUnits="userSpaceOnUse">
<stop stop-color="#007940"/>
<stop offset="0.2285" stop-color="#00873F"/>
<stop offset="0.7433" stop-color="#40A737"/>
<stop offset="1" stop-color="#5CB531"/>
</linearGradient>
<linearGradient id="paint3_linear_1275_632" x1="2.22066" y1="12.0026" x2="8.35728" y2="12.0026" gradientUnits="userSpaceOnUse">
<stop stop-color="#1F286F"/>
<stop offset="0.4751" stop-color="#004E94"/>
<stop offset="0.8261" stop-color="#0066B1"/>
<stop offset="1" stop-color="#006FBC"/>
</linearGradient>
<linearGradient id="paint4_linear_1275_632" x1="8.95284" y1="12.0026" x2="14.9127" y2="12.0026" gradientUnits="userSpaceOnUse">
<stop stop-color="#6C2C2F"/>
<stop offset="0.1735" stop-color="#882730"/>
<stop offset="0.5731" stop-color="#BE1833"/>
<stop offset="0.8585" stop-color="#DC0436"/>
<stop offset="1" stop-color="#E60039"/>
</linearGradient>
</defs>
</svg>
