<svg width="24" height="24" viewBox="0 0 24 24" fill="none" xmlns="http://www.w3.org/2000/svg"><path d="M11.575 4.737 C 11.484 4.765,9.849 5.551,7.941 6.482 C 4.135 8.339,4.189 8.309,3.961 8.773 C 3.717 9.270,3.717 9.728,3.961 10.227 C 4.156 10.625,4.344 10.761,5.459 11.312 C 6.003 11.581,6.536 11.839,6.644 11.886 C 6.752 11.932,6.840 11.981,6.840 11.995 C 6.839 12.009,6.306 12.281,5.654 12.599 C 4.328 13.247,4.163 13.361,3.961 13.773 C 3.717 14.270,3.717 14.728,3.961 15.227 C 4.123 15.558,4.386 15.786,4.890 16.032 C 5.115 16.143,6.632 16.884,8.260 17.680 C 9.888 18.476,11.333 19.171,11.471 19.224 C 11.812 19.355,12.188 19.355,12.529 19.224 C 12.667 19.171,14.112 18.476,15.740 17.680 C 17.368 16.884,18.885 16.143,19.110 16.032 C 19.613 15.787,19.876 15.559,20.039 15.227 C 20.283 14.730,20.283 14.272,20.039 13.773 C 19.837 13.361,19.672 13.247,18.346 12.599 C 17.694 12.281,17.160 12.009,17.160 11.995 C 17.160 11.981,17.248 11.932,17.356 11.886 C 17.464 11.839,17.997 11.581,18.541 11.312 C 19.655 10.761,19.844 10.625,20.039 10.227 C 20.283 9.730,20.283 9.272,20.039 8.773 C 19.811 8.308,19.868 8.341,16.034 6.471 C 14.112 5.534,12.468 4.748,12.380 4.724 C 12.168 4.666,11.780 4.673,11.575 4.737 M15.383 7.820 C 17.713 8.958,18.700 9.458,18.700 9.503 C 18.700 9.547,18.199 9.811,17.060 10.366 L 15.420 11.166 15.249 11.083 C 15.155 11.037,15.071 11.000,15.064 11.000 C 15.056 11.000,15.010 11.096,14.962 11.214 L 14.875 11.429 13.474 12.114 C 12.703 12.491,12.040 12.800,12.000 12.800 C 11.960 12.800,11.297 12.491,10.526 12.114 L 9.125 11.429 9.038 11.214 C 8.990 11.096,8.944 11.000,8.936 11.000 C 8.929 11.000,8.845 11.037,8.751 11.083 L 8.580 11.166 6.940 10.366 C 5.800 9.811,5.300 9.547,5.300 9.503 C 5.300 9.458,6.283 8.958,8.600 7.824 C 10.415 6.935,11.937 6.206,11.983 6.204 C 12.028 6.202,13.558 6.929,15.383 7.820 M9.906 13.484 C 11.524 14.277,11.634 14.320,12.011 14.318 C 12.378 14.316,12.479 14.276,14.129 13.468 L 15.420 12.835 17.060 13.638 C 18.184 14.188,18.700 14.460,18.700 14.503 C 18.700 14.547,17.686 15.061,15.385 16.183 C 13.561 17.072,12.038 17.800,12.000 17.800 C 11.962 17.800,10.439 17.072,8.615 16.183 C 6.312 15.060,5.300 14.547,5.300 14.503 C 5.300 14.460,5.811 14.189,6.920 13.644 C 7.811 13.205,8.552 12.845,8.566 12.843 C 8.580 12.842,9.183 13.130,9.906 13.484 " stroke="none" fill-rule="evenodd" fill="black"></path></svg>