<svg width="24" height="24" viewBox="0 0 24 24" fill="none" xmlns="http://www.w3.org/2000/svg"><path d="M6.893 5.517 C 6.779 5.558,6.601 5.650,6.498 5.722 C 6.295 5.861,6.244 5.928,4.388 8.480 L 3.298 9.980 2.959 10.002 C 2.572 10.027,2.423 10.091,2.245 10.307 C 1.898 10.727,2.145 11.365,2.698 11.480 L 2.920 11.526 2.920 14.376 C 2.920 16.881,2.928 17.252,2.985 17.443 C 3.120 17.898,3.502 18.309,3.953 18.485 C 4.158 18.564,4.271 18.575,5.121 18.591 C 6.505 18.617,6.848 18.541,7.281 18.107 C 7.529 17.860,7.674 17.568,7.730 17.203 L 7.774 16.920 12.000 16.920 L 16.226 16.920 16.269 17.197 C 16.327 17.575,16.468 17.860,16.720 18.110 C 17.157 18.544,17.488 18.617,18.879 18.591 C 19.729 18.575,19.842 18.564,20.047 18.485 C 20.498 18.309,20.880 17.898,21.015 17.443 C 21.072 17.252,21.080 16.885,21.080 14.433 L 21.080 11.640 21.232 11.640 C 21.331 11.640,21.448 11.600,21.566 11.525 C 22.029 11.231,22.029 10.594,21.567 10.276 C 21.450 10.196,21.366 10.178,21.074 10.166 L 20.722 10.152 19.271 8.087 C 18.473 6.951,17.746 5.949,17.656 5.860 C 17.566 5.771,17.386 5.645,17.256 5.579 L 17.020 5.460 12.060 5.451 C 7.303 5.443,7.092 5.445,6.893 5.517 M18.090 9.017 L 19.560 11.111 19.560 14.096 L 19.560 17.080 18.664 17.080 L 17.768 17.080 17.754 16.507 C 17.741 15.960,17.735 15.926,17.630 15.768 C 17.569 15.676,17.449 15.565,17.362 15.521 C 17.205 15.441,17.141 15.440,12.000 15.440 C 6.859 15.440,6.795 15.441,6.638 15.521 C 6.551 15.565,6.431 15.676,6.370 15.768 C 6.265 15.926,6.259 15.960,6.246 16.507 L 6.232 17.080 5.336 17.080 L 4.440 17.080 4.440 14.022 L 4.440 10.965 5.910 8.943 L 7.380 6.921 12.000 6.922 L 16.620 6.923 18.090 9.017 M6.698 12.154 C 6.258 12.357,6.117 12.882,6.397 13.270 C 6.605 13.556,6.696 13.578,7.746 13.593 C 8.773 13.607,8.923 13.585,9.143 13.392 C 9.334 13.224,9.400 13.083,9.400 12.840 C 9.400 12.574,9.284 12.350,9.072 12.210 L 8.906 12.100 7.883 12.090 C 6.955 12.080,6.845 12.086,6.698 12.154 M15.112 12.120 C 14.803 12.213,14.600 12.499,14.600 12.840 C 14.600 13.083,14.666 13.224,14.857 13.392 C 15.077 13.585,15.227 13.607,16.254 13.593 C 17.304 13.578,17.395 13.556,17.603 13.270 C 17.883 12.882,17.741 12.355,17.302 12.155 C 17.159 12.090,17.029 12.082,16.180 12.084 C 15.652 12.086,15.171 12.102,15.112 12.120 " stroke="none" fill-rule="evenodd" fill="black"></path></svg>