<svg width="24" height="24" viewBox="0 0 24 24" fill="none" xmlns="http://www.w3.org/2000/svg">
<path fill-rule="evenodd" clip-rule="evenodd" d="M5.04001 4.79004C5.04001 4.37583 5.37579 4.04004 5.79001 4.04004H16.2248C17.7367 4.04004 18.9624 5.26569 18.9624 6.77762V17.2124C18.9624 18.7243 17.7367 19.95 16.2248 19.95H5.79001C5.37579 19.95 5.04001 19.6142 5.04001 19.2V4.79004ZM6.54001 5.54004V18.45H16.2248C16.9083 18.45 17.4624 17.8959 17.4624 17.2124V6.77762C17.4624 6.09412 16.9083 5.54004 16.2248 5.54004H6.54001ZM11.4333 8.52141C10.6126 8.52141 9.94728 9.18672 9.94728 10.0074C9.94728 10.8281 10.6126 11.4935 11.4333 11.4935C12.254 11.4935 12.9193 10.8281 12.9193 10.0074C12.9193 9.18672 12.254 8.52141 11.4333 8.52141ZM8.44728 10.0074C8.44728 8.35829 9.78417 7.02141 11.4333 7.02141C13.0824 7.02141 14.4193 8.35829 14.4193 10.0074C14.4193 11.6566 13.0824 12.9935 11.4333 12.9935C9.78417 12.9935 8.44728 11.6566 8.44728 10.0074ZM9.19728 14.4748C8.78307 14.4748 8.44728 14.8106 8.44728 15.2248C8.44728 15.639 8.78307 15.9748 9.19728 15.9748H13.6693C14.0835 15.9748 14.4193 15.639 14.4193 15.2248C14.4193 14.8106 14.0835 14.4748 13.6693 14.4748H9.19728Z" fill="black"/>
</svg>
