<svg width="24" height="24" viewBox="0 0 24 24" fill="none" xmlns="http://www.w3.org/2000/svg">
<path fill-rule="evenodd" clip-rule="evenodd" d="M13.6887 4.45313C13.5725 4.18348 13.3096 4.00645 13.016 4.00017C12.7225 3.99389 12.4522 4.15951 12.3246 4.42394L8.99035 11.3306C7.95084 11.3341 6.91312 11.9069 6.4509 13.0488L6.4509 13.0488L4.05479 18.9686C3.96122 19.1998 3.98869 19.4624 4.12809 19.6692C4.2675 19.876 4.50059 20 4.75 20H13.25C13.2517 20 13.2534 20 13.2551 20H19.25C19.5024 20 19.7378 19.8731 19.8766 19.6622C20.0153 19.4514 20.0386 19.1849 19.9387 18.9531L13.6887 4.45313ZM12.1373 18.5H6.75C6.74834 18.5 6.74668 18.5 6.74502 18.5H5.86268L7.84132 13.6116L7.84133 13.6116C8.26282 12.5702 9.73719 12.5702 10.1587 13.6116L12.1373 18.5ZM13.7555 18.5H18.11L12.9614 6.55514L10.4586 11.7394C10.9222 12.0256 11.3116 12.4621 11.5491 13.0488L13.7555 18.5Z" fill="black"/>
</svg>
