<svg width="24" height="24" viewBox="0 0 24 24" fill="none" xmlns="http://www.w3.org/2000/svg"><path d="M10.782 3.642 C 9.994 3.766,9.281 4.127,8.722 4.686 C 7.144 6.264,7.333 8.869,9.123 10.202 C 9.583 10.544,10.184 10.799,10.728 10.884 C 11.142 10.949,11.908 10.908,12.277 10.801 C 14.244 10.235,15.376 8.243,14.840 6.291 C 14.496 5.037,13.481 4.044,12.208 3.716 C 11.850 3.624,11.132 3.587,10.782 3.642 M11.899 5.181 C 12.250 5.273,12.507 5.428,12.823 5.740 C 13.824 6.726,13.652 8.319,12.460 9.103 C 12.123 9.325,11.801 9.414,11.320 9.417 C 10.822 9.420,10.501 9.328,10.120 9.074 C 9.510 8.666,9.160 8.005,9.160 7.260 C 9.160 6.660,9.365 6.164,9.785 5.743 C 10.217 5.312,10.672 5.123,11.282 5.121 C 11.499 5.120,11.765 5.146,11.899 5.181 M15.680 11.103 C 15.008 11.278,14.382 11.790,14.087 12.403 C 13.721 13.163,13.719 13.859,14.081 14.620 C 14.271 15.020,14.573 15.357,14.975 15.619 L 15.280 15.818 15.280 17.356 L 15.280 18.895 15.470 19.077 C 15.575 19.178,15.775 19.346,15.914 19.450 C 16.291 19.732,16.367 19.722,16.867 19.322 C 17.086 19.148,17.286 18.958,17.313 18.900 C 17.339 18.843,17.360 18.628,17.360 18.422 L 17.360 18.047 17.050 17.765 L 16.740 17.484 17.049 17.172 L 17.358 16.860 17.369 16.323 L 17.380 15.785 17.608 15.652 C 17.984 15.432,18.339 15.041,18.540 14.622 C 18.757 14.172,18.817 13.874,18.790 13.369 C 18.761 12.820,18.595 12.378,18.259 11.953 C 17.945 11.557,17.442 11.235,16.934 11.104 C 16.629 11.024,15.981 11.024,15.680 11.103 M11.000 11.947 C 8.471 12.058,6.377 13.356,5.168 15.562 C 4.772 16.284,4.420 17.415,4.447 17.881 C 4.484 18.532,5.010 19.113,5.677 19.239 C 5.977 19.296,12.967 19.294,13.173 19.237 C 13.371 19.182,13.623 18.953,13.682 18.773 C 13.795 18.433,13.649 18.049,13.341 17.872 L 13.180 17.780 9.570 17.769 C 6.685 17.761,5.960 17.748,5.960 17.708 C 5.960 17.680,6.016 17.478,6.084 17.258 C 6.473 16.006,7.259 14.968,8.354 14.261 C 9.121 13.765,9.977 13.508,11.065 13.444 C 11.525 13.417,11.571 13.407,11.726 13.298 C 12.055 13.065,12.148 12.652,11.949 12.311 C 11.779 12.021,11.526 11.924,11.000 11.947 M16.639 12.763 C 16.866 12.866,16.949 12.941,17.048 13.136 C 17.238 13.509,17.099 14.013,16.749 14.216 C 16.383 14.428,16.024 14.386,15.734 14.096 C 15.406 13.768,15.397 13.291,15.713 12.953 C 15.963 12.687,16.312 12.615,16.639 12.763 " stroke="none" fill-rule="evenodd" fill="black"></path></svg>