<svg width="24" height="24" viewBox="0 0 24 24" fill="none" xmlns="http://www.w3.org/2000/svg">
<path d="M15.721 16.2938C15.9978 16.2147 16.2142 15.9983 16.2933 15.7215L19.2934 5.22116C19.3832 4.90684 19.0927 4.61625 18.7783 4.70606L8.27795 7.70617C8.00111 7.78526 7.78471 8.00166 7.70561 8.2785L4.70551 18.7788C4.61571 19.0932 4.9063 19.3837 5.22061 19.294L15.721 16.2938Z" stroke="black" stroke-width="1.25"/>
<path d="M13.6659 12C13.6659 12.9205 12.9196 13.6666 11.9992 13.6666C11.0787 13.6666 10.3325 12.9205 10.3325 12C10.3325 11.0795 11.0787 10.3333 11.9992 10.3333C12.9196 10.3333 13.6659 11.0795 13.6659 12Z" stroke="black" stroke-width="1.25"/>
</svg>
