<svg width="24" height="24" viewBox="0 0 24 24" fill="none" xmlns="http://www.w3.org/2000/svg"><path d="M6.936 10.936 C 6.538 11.121,6.284 11.478,6.250 11.899 C 6.162 13.012,7.497 13.605,8.274 12.797 C 8.827 12.221,8.638 11.282,7.900 10.935 C 7.621 10.804,7.219 10.804,6.936 10.936 M11.595 10.893 C 11.124 11.069,10.833 11.491,10.833 11.998 C 10.833 12.667,11.332 13.167,12.000 13.167 C 12.589 13.167,13.046 12.787,13.151 12.208 C 13.195 11.966,13.150 11.656,13.040 11.439 C 12.955 11.274,12.708 11.037,12.512 10.935 C 12.338 10.844,11.793 10.819,11.595 10.893 M16.096 10.936 C 15.366 11.276,15.175 12.223,15.721 12.792 C 16.206 13.296,16.946 13.304,17.428 12.810 C 17.987 12.236,17.803 11.280,17.067 10.937 C 16.780 10.804,16.381 10.803,16.096 10.936 M7.460 12.040 C 7.441 12.071,7.418 12.074,7.391 12.047 C 7.369 12.025,7.364 11.986,7.380 11.960 C 7.399 11.929,7.422 11.926,7.449 11.953 C 7.471 11.975,7.476 12.014,7.460 12.040 M12.062 11.963 C 12.103 12.030,12.011 12.107,11.955 12.051 C 11.909 12.005,11.938 11.920,12.000 11.920 C 12.019 11.920,12.047 11.940,12.062 11.963 M16.620 12.040 C 16.601 12.071,16.578 12.074,16.551 12.047 C 16.529 12.025,16.524 11.986,16.540 11.960 C 16.559 11.929,16.582 11.926,16.609 11.953 C 16.631 11.975,16.636 12.014,16.620 12.040 " stroke="none" fill-rule="evenodd" fill="black"></path></svg>