<svg width="24" height="24" viewBox="0 0 24 24" fill="none" xmlns="http://www.w3.org/2000/svg">
<path d="M9.20922 4.0135C9.16797 4.021 9.12548 4.0285 9.08924 4.05349C8.94302 4.15222 8.91053 4.35717 9.00926 4.50339L9.69911 5.53317C8.63309 6.09804 7.83827 7.03659 7.57957 8.16259H16.4176C16.1589 7.03659 15.3641 6.09804 14.2981 5.53317L14.988 4.50339C15.0867 4.35717 15.0542 4.15222 14.908 4.05349C14.7605 3.95476 14.5568 3.99725 14.4581 4.14347L13.6982 5.26323C13.1708 5.07077 12.5985 4.96329 11.9986 4.96329C11.3987 4.96329 10.8264 5.07077 10.299 5.26323L9.53914 4.14347C9.46541 4.0335 9.33169 3.98976 9.20922 4.0135ZM10.239 6.56294C10.5039 6.56294 10.7189 6.77789 10.7189 7.04284C10.7189 7.30903 10.5039 7.52273 10.239 7.52273C9.9728 7.52273 9.7591 7.30903 9.7591 7.04284C9.7591 6.77789 9.9728 6.56294 10.239 6.56294ZM13.7582 6.56294C14.0244 6.56294 14.2381 6.77789 14.2381 7.04284C14.2381 7.30903 14.0244 7.52273 13.7582 7.52273C13.4933 7.52273 13.2783 7.30903 13.2783 7.04284C13.2783 6.77789 13.4933 6.56294 13.7582 6.56294ZM6.5598 8.80245C6.02991 8.80245 5.60001 9.23236 5.60001 9.76224V14.2413C5.60001 14.7711 6.02991 15.2011 6.5598 15.2011C6.67227 15.2011 6.77975 15.1773 6.87973 15.1411V8.86244C6.77975 8.8262 6.67227 8.80245 6.5598 8.80245ZM7.51959 8.80245V15.8409C7.51959 16.3695 7.95074 16.8007 8.47938 16.8007H15.5178C16.0465 16.8007 16.4776 16.3695 16.4776 15.8409V8.80245H7.51959ZM17.4374 8.80245C17.3249 8.80245 17.2175 8.8262 17.1175 8.86244V15.1411C17.2175 15.1761 17.3249 15.2011 17.4374 15.2011C17.9673 15.2011 18.3972 14.7711 18.3972 14.2413V9.76224C18.3972 9.23236 17.9673 8.80245 17.4374 8.80245ZM8.79931 17.4406V18.7203C8.79931 19.4264 9.37293 20 10.079 20C10.7851 20 11.3587 19.4264 11.3587 18.7203V17.4406H8.79931ZM12.6385 17.4406V18.7203C12.6385 19.4264 13.2121 20 13.9182 20C14.6243 20 15.1979 19.4264 15.1979 18.7203V17.4406H12.6385Z" fill="black"/>
</svg>
