<svg width="24" height="24" viewBox="0 0 24 24" fill="none" xmlns="http://www.w3.org/2000/svg">
<path d="M5.9585 14.5694V5.66596C5.9585 5.34888 6.13824 5.05963 6.43256 4.94168C7.06501 4.68824 8.24143 4.29169 9.41088 4.29169C11.1296 4.29169 12.8707 6.00465 14.5894 6.00465C15.3764 6.00465 16.1666 5.82506 16.792 5.63035C17.3818 5.44672 18.0418 5.87159 18.0418 6.48933V14.0517C18.0418 14.3688 17.8621 14.658 17.5677 14.7759C16.9353 15.0294 15.7589 15.4259 14.5894 15.4259C12.8707 15.4259 11.1296 13.713 9.41088 13.713C7.6922 13.713 5.9585 14.5694 5.9585 14.5694ZM5.9585 14.5694V19.7084" stroke="black" stroke-width="1.25" stroke-linecap="round" stroke-linejoin="round"/>
</svg>
