<svg width="24" height="24" viewBox="0 0 24 24" fill="none" xmlns="http://www.w3.org/2000/svg"><path d="M5.494 4.444 C 5.140 4.546,4.722 4.902,4.548 5.250 C 4.490 5.365,4.424 5.577,4.402 5.720 C 4.343 6.088,4.347 8.834,4.406 9.069 C 4.545 9.619,5.287 9.811,5.665 9.394 C 5.860 9.178,5.859 9.189,5.880 7.500 L 5.900 5.900 7.500 5.880 C 9.189 5.859,9.178 5.860,9.394 5.665 C 9.539 5.534,9.611 5.361,9.613 5.141 C 9.616 4.863,9.507 4.655,9.285 4.515 L 9.104 4.400 7.362 4.404 C 6.404 4.406,5.563 4.424,5.494 4.444 M14.717 4.513 C 14.343 4.750,14.262 5.263,14.546 5.600 C 14.767 5.862,14.738 5.858,16.500 5.880 L 18.100 5.900 18.120 7.500 C 18.141 9.189,18.140 9.178,18.335 9.394 C 18.713 9.811,19.455 9.619,19.594 9.069 C 19.653 8.834,19.657 6.088,19.598 5.720 C 19.576 5.577,19.511 5.367,19.454 5.254 C 19.324 4.995,19.005 4.682,18.720 4.534 L 18.500 4.420 16.700 4.409 L 14.900 4.397 14.717 4.513 M8.140 8.615 C 7.990 8.684,7.818 8.865,7.763 9.013 C 7.738 9.079,7.720 9.460,7.720 9.933 C 7.720 10.843,7.737 10.912,8.018 11.139 C 8.154 11.249,8.194 11.260,8.457 11.260 C 8.712 11.260,8.763 11.247,8.893 11.148 C 9.174 10.934,9.200 10.830,9.200 9.911 C 9.200 8.998,9.183 8.928,8.904 8.703 C 8.782 8.604,8.714 8.581,8.509 8.571 C 8.355 8.564,8.214 8.580,8.140 8.615 M11.900 8.607 C 11.771 8.678,11.598 8.851,11.527 8.980 C 11.470 9.081,11.457 9.282,11.440 10.280 C 11.420 11.442,11.419 11.463,11.322 11.632 C 11.200 11.843,10.942 12.020,10.667 12.079 C 10.380 12.140,10.187 12.279,10.080 12.500 C 9.843 12.990,10.199 13.560,10.743 13.560 C 11.602 13.560,12.516 12.847,12.845 11.920 C 12.933 11.674,12.938 11.593,12.952 10.440 C 12.967 9.166,12.953 9.024,12.796 8.824 C 12.617 8.597,12.131 8.479,11.900 8.607 M15.200 8.634 C 15.124 8.675,15.008 8.776,14.941 8.858 L 14.820 9.007 14.808 9.861 C 14.794 10.828,14.817 10.927,15.107 11.148 C 15.237 11.247,15.288 11.260,15.543 11.260 C 15.806 11.260,15.846 11.249,15.982 11.139 C 16.263 10.912,16.280 10.843,16.280 9.933 C 16.280 9.075,16.263 8.973,16.087 8.785 C 15.874 8.556,15.473 8.488,15.200 8.634 M9.265 14.378 C 8.736 14.570,8.588 15.218,8.984 15.616 C 9.123 15.755,9.778 16.076,10.210 16.216 C 11.360 16.589,12.656 16.589,13.791 16.214 C 14.232 16.069,14.880 15.752,15.016 15.616 C 15.233 15.398,15.301 15.064,15.186 14.788 C 15.113 14.614,14.876 14.413,14.683 14.361 C 14.476 14.305,14.313 14.346,13.831 14.578 C 13.617 14.680,13.266 14.811,13.051 14.869 C 12.704 14.962,12.586 14.974,12.000 14.974 C 11.413 14.974,11.297 14.962,10.947 14.868 C 10.730 14.810,10.367 14.674,10.140 14.566 C 9.662 14.337,9.483 14.299,9.265 14.378 M4.717 14.512 C 4.381 14.728,4.382 14.722,4.368 16.458 C 4.352 18.478,4.383 18.655,4.827 19.123 C 5.081 19.390,5.367 19.542,5.720 19.598 C 6.088 19.657,8.834 19.653,9.069 19.594 C 9.785 19.413,9.800 18.359,9.089 18.162 C 8.998 18.137,8.339 18.120,7.410 18.120 L 5.880 18.120 5.879 16.550 C 5.878 14.782,5.875 14.762,5.579 14.536 C 5.456 14.443,5.381 14.419,5.164 14.408 C 4.927 14.396,4.881 14.406,4.717 14.512 M18.540 14.463 C 18.360 14.557,18.276 14.643,18.195 14.820 C 18.128 14.967,18.122 15.112,18.121 16.550 L 18.120 18.120 16.590 18.120 C 15.597 18.120,15.004 18.136,14.901 18.165 C 14.689 18.223,14.460 18.458,14.401 18.676 C 14.296 19.068,14.543 19.496,14.931 19.594 C 15.166 19.653,17.912 19.657,18.280 19.598 C 18.633 19.542,18.919 19.390,19.173 19.123 C 19.617 18.655,19.648 18.478,19.632 16.458 C 19.621 15.053,19.614 14.928,19.543 14.785 C 19.428 14.554,19.164 14.400,18.882 14.400 C 18.759 14.400,18.607 14.428,18.540 14.463 " stroke="none" fill-rule="evenodd" fill="black"></path></svg>