<svg width="24" height="24" viewBox="0 0 24 24" fill="none" xmlns="http://www.w3.org/2000/svg">
<path fill-rule="evenodd" clip-rule="evenodd" d="M16.5937 4.43898C17.1632 3.86946 18.0866 3.86946 18.6561 4.43898L19.5609 5.34379C20.1304 5.91331 20.1304 6.83668 19.5609 7.40619L7.40607 19.561C6.83656 20.1305 5.91319 20.1305 5.34367 19.561L4.43886 18.6562C3.86934 18.0867 3.86934 17.1633 4.43886 16.5938L16.5937 4.43898ZM17.7722 5.32286C17.6908 5.2415 17.5589 5.2415 17.4776 5.32286L14.7587 8.04166L15.9582 9.24111L18.677 6.52231C18.7583 6.44095 18.7583 6.30904 18.677 6.22768L17.7722 5.32286ZM15.0743 10.125L13.8748 8.92554L5.32274 17.4777C5.24137 17.5591 5.24138 17.6909 5.32274 17.7723L6.22756 18.6772C6.30891 18.7585 6.44082 18.7585 6.52219 18.6772L15.0743 10.125Z" fill="black"/>
<path d="M10.2081 3.72889C10.2887 3.68857 10.3541 3.62318 10.3944 3.54255L10.793 2.74546C10.9465 2.43836 11.3848 2.43836 11.5383 2.74546L11.9369 3.54255C11.9771 3.62318 12.0425 3.68857 12.1232 3.72889L12.9203 4.12743C13.2274 4.28098 13.2274 4.71923 12.9203 4.87278L12.1232 5.27132C12.0425 5.31165 11.9771 5.37703 11.9369 5.45767L11.5383 6.25475C11.3848 6.56186 10.9465 6.56186 10.793 6.25475L10.3944 5.45767C10.3541 5.37703 10.2887 5.31165 10.2081 5.27132L9.41099 4.87278C9.10389 4.71923 9.10389 4.28098 9.41099 4.12743L10.2081 3.72889Z" fill="black"/>
<path d="M17.7081 12.8956C17.7887 12.8552 17.8541 12.7898 17.8944 12.7092L18.293 11.9121C18.4465 11.605 18.8848 11.605 19.0383 11.9121L19.4369 12.7092C19.4771 12.7898 19.5426 12.8552 19.6232 12.8956L20.4203 13.2941C20.7274 13.4476 20.7274 13.8859 20.4203 14.0394L19.6232 14.438C19.5426 14.4783 19.4771 14.5436 19.4369 14.6243L19.0383 15.4214C18.8848 15.7285 18.4465 15.7285 18.293 15.4214L17.8944 14.6243C17.8541 14.5436 17.7887 14.4783 17.7081 14.438L16.911 14.0394C16.6039 13.8859 16.6039 13.4476 16.911 13.2941L17.7081 12.8956Z" fill="black"/>
<path d="M6.04157 7.89558C6.12221 7.85525 6.18759 7.78987 6.22791 7.70924L6.62645 6.91215C6.78 6.60505 7.21825 6.60505 7.37181 6.91215L7.77035 7.70924C7.81067 7.78987 7.87605 7.85525 7.95668 7.89558L8.75378 8.29412C9.06088 8.44767 9.06088 8.88592 8.75378 9.03947L7.95668 9.43801C7.87605 9.47834 7.81067 9.54372 7.77035 9.62436L7.37181 10.4214C7.21825 10.7285 6.78 10.7285 6.62645 10.4214L6.22791 9.62436C6.18759 9.54372 6.12221 9.47834 6.04157 9.43801L5.24449 9.03947C4.93739 8.88592 4.93739 8.44767 5.24449 8.29412L6.04157 7.89558Z" fill="black"/>
</svg>
