<svg width="24" height="24" viewBox="0 0 24 24" fill="none" xmlns="http://www.w3.org/2000/svg">
<path fill-rule="evenodd" clip-rule="evenodd" d="M7.75 5.5C7.05964 5.5 6.5 6.05964 6.5 6.75V17.25C6.5 17.9404 7.05964 18.5 7.75 18.5H16.25C16.9404 18.5 17.5 17.9404 17.5 17.25V11H14.75C13.2312 11 12 9.76878 12 8.25V5.5H7.75ZM13.5 6.56066L16.4393 9.5H14.75C14.0596 9.5 13.5 8.94036 13.5 8.25V6.56066ZM5 6.75C5 5.23122 6.23122 4 7.75 4H12.75C12.9489 4 13.1397 4.07902 13.2803 4.21967L18.7803 9.71967C18.921 9.86032 19 10.0511 19 10.25V17.25C19 18.7688 17.7688 20 16.25 20H7.75C6.23122 20 5 18.7688 5 17.25V6.75ZM8 15.75C8 15.3358 8.33579 15 8.75 15H15.25C15.6642 15 16 15.3358 16 15.75C16 16.1642 15.6642 16.5 15.25 16.5H8.75C8.33579 16.5 8 16.1642 8 15.75ZM8.75 12C8.33579 12 8 12.3358 8 12.75C8 13.1642 8.33579 13.5 8.75 13.5H11.25C11.6642 13.5 12 13.1642 12 12.75C12 12.3358 11.6642 12 11.25 12H8.75Z" fill="black"/>
</svg>
