<svg width="24" height="24" viewBox="0 0 24 24" fill="none" xmlns="http://www.w3.org/2000/svg"><path d="M4.852 5.240 C 4.565 5.282,4.298 5.420,4.050 5.653 C 3.815 5.875,3.683 6.088,3.598 6.381 C 3.511 6.680,3.511 17.321,3.598 17.620 C 3.767 18.202,4.253 18.650,4.835 18.759 C 5.132 18.815,18.868 18.815,19.165 18.759 C 19.747 18.650,20.233 18.202,20.402 17.620 C 20.489 17.321,20.489 6.680,20.402 6.381 C 20.317 6.088,20.185 5.875,19.950 5.653 C 19.691 5.410,19.440 5.285,19.112 5.238 C 18.808 5.194,5.153 5.196,4.852 5.240 M18.940 12.000 L 18.940 17.260 12.000 17.260 L 5.060 17.260 5.050 12.040 C 5.044 9.169,5.048 6.797,5.059 6.770 C 5.074 6.730,6.485 6.722,12.009 6.730 L 18.940 6.740 18.940 12.000 M12.869 9.497 C 12.436 9.675,12.111 10.021,11.958 10.467 C 11.887 10.672,11.880 10.810,11.880 12.000 C 11.880 13.198,11.887 13.327,11.959 13.537 C 12.111 13.980,12.465 14.347,12.914 14.529 C 13.134 14.618,13.176 14.620,14.500 14.620 C 15.824 14.620,15.866 14.618,16.086 14.529 C 16.535 14.347,16.889 13.980,17.041 13.537 C 17.113 13.327,17.120 13.198,17.120 12.000 C 17.120 10.802,17.113 10.673,17.041 10.463 C 16.891 10.026,16.556 9.672,16.127 9.495 C 15.904 9.404,15.876 9.402,14.500 9.402 C 13.118 9.402,13.097 9.403,12.869 9.497 M7.366 9.843 C 6.965 10.004,6.778 10.438,6.942 10.830 C 7.021 11.020,7.105 11.111,7.288 11.204 C 7.424 11.274,7.539 11.280,8.660 11.280 C 10.017 11.280,10.051 11.275,10.270 11.025 C 10.378 10.903,10.470 10.643,10.450 10.520 C 10.448 10.509,10.436 10.434,10.424 10.353 C 10.395 10.172,10.240 9.982,10.037 9.878 C 9.894 9.805,9.798 9.800,8.672 9.803 C 8.005 9.804,7.418 9.822,7.366 9.843 M15.600 12.000 L 15.600 13.120 14.504 13.120 C 13.542 13.120,13.406 13.112,13.384 13.057 C 13.371 13.022,13.360 12.546,13.360 12.000 C 13.360 11.454,13.371 10.978,13.384 10.943 C 13.406 10.888,13.542 10.880,14.504 10.880 L 15.600 10.880 15.600 12.000 M7.300 12.786 C 7.114 12.885,7.035 12.967,6.955 13.140 C 6.764 13.556,6.971 14.038,7.395 14.163 C 7.488 14.190,7.981 14.200,8.766 14.192 L 9.993 14.180 10.146 14.057 C 10.548 13.737,10.548 13.183,10.146 12.863 L 9.993 12.740 8.706 12.731 C 7.590 12.723,7.404 12.730,7.300 12.786 " stroke="none" fill-rule="evenodd" fill="black"></path></svg>