<svg width="24" height="24" viewBox="0 0 24 24" fill="none" xmlns="http://www.w3.org/2000/svg"><path d="M5.652 4.674 C 5.077 4.874,4.691 5.358,4.601 5.995 C 4.574 6.182,4.560 7.779,4.560 10.434 L 4.562 14.580 3.991 14.600 C 3.374 14.622,3.245 14.659,3.084 14.865 C 2.926 15.065,2.914 15.200,2.927 16.740 L 2.940 18.220 3.047 18.449 C 3.256 18.895,3.602 19.209,4.040 19.349 C 4.247 19.416,4.715 19.420,12.000 19.420 C 19.371 19.420,19.751 19.417,19.970 19.347 C 20.383 19.216,20.750 18.882,20.951 18.452 L 21.060 18.220 21.073 16.740 C 21.086 15.200,21.074 15.065,20.916 14.865 C 20.755 14.659,20.626 14.622,20.009 14.600 L 19.438 14.580 19.440 10.434 C 19.440 7.779,19.426 6.182,19.399 5.995 C 19.376 5.834,19.314 5.607,19.261 5.490 C 19.134 5.213,18.782 4.864,18.491 4.728 L 18.260 4.620 12.060 4.611 C 6.176 4.603,5.849 4.606,5.652 4.674 M17.910 10.330 L 17.920 14.560 12.000 14.560 L 6.080 14.560 6.080 10.347 C 6.080 8.029,6.092 6.121,6.107 6.107 C 6.122 6.092,8.781 6.084,12.017 6.090 L 17.900 6.100 17.910 10.330 M19.560 17.000 L 19.560 17.920 12.000 17.920 L 4.440 17.920 4.440 17.000 L 4.440 16.080 12.000 16.080 L 19.560 16.080 19.560 17.000 " stroke="none" fill-rule="evenodd" fill="black"></path></svg>