<svg width="24" height="24" viewBox="0 0 24 24" fill="none" xmlns="http://www.w3.org/2000/svg">
<path d="M5.125 9.71518C5.125 9.48303 5.125 9.36695 5.1542 9.25956C5.18007 9.16442 5.22263 9.07462 5.27988 8.99435C5.3445 8.90374 5.43434 8.83024 5.61402 8.68324L11.1557 4.14914C11.4565 3.90303 11.6069 3.77998 11.7743 3.73288C11.9219 3.69134 12.0781 3.69134 12.2257 3.73288C12.3931 3.77998 12.5435 3.90303 12.8443 4.14914L18.386 8.68324C18.5657 8.83024 18.6555 8.90374 18.7201 8.99435C18.7773 9.07462 18.8199 9.16442 18.8458 9.25956C18.875 9.36695 18.875 9.48303 18.875 9.71518V17.5417C18.875 18.0083 18.875 18.2418 18.7842 18.42C18.7043 18.5768 18.5768 18.7043 18.42 18.7842C18.2418 18.875 18.0084 18.875 17.5417 18.875H6.45833C5.99162 18.875 5.75827 18.875 5.58001 18.7842C5.42321 18.7043 5.29572 18.5768 5.21582 18.42C5.125 18.2418 5.125 18.0083 5.125 17.5417V9.71518Z" stroke="black" stroke-width="1.25" stroke-linejoin="round"/>
</svg>
