<svg width="24" height="24" viewBox="0 0 24 24" fill="none" xmlns="http://www.w3.org/2000/svg">
<path fill-rule="evenodd" clip-rule="evenodd" d="M6.74822 4C5.78172 4 4.99822 4.7835 4.99822 5.75V14.25C4.99822 14.2921 5.00169 14.3334 5.00836 14.3736L4.26818 17.8895C4.03919 18.9772 4.86909 20 5.98064 20H18.0158C19.1273 20 19.9572 18.9772 19.7282 17.8895L18.9881 14.3737C18.9947 14.3335 18.9982 14.2922 18.9982 14.25V5.75C18.9982 4.7835 18.2147 4 17.2482 4H6.74822ZM17.587 15H6.40937L5.73601 18.1985C5.70329 18.3539 5.82185 18.5 5.98064 18.5H18.0158C18.1745 18.5 18.2931 18.3539 18.2604 18.1985L17.587 15ZM6.49822 5.75C6.49822 5.61193 6.61015 5.5 6.74822 5.5H17.2482C17.3863 5.5 17.4982 5.61193 17.4982 5.75V13.5H6.49822V5.75Z" fill="black"/>
</svg>
