<svg width="24" height="24" viewBox="0 0 24 24" fill="none" xmlns="http://www.w3.org/2000/svg">
<path fill-rule="evenodd" clip-rule="evenodd" d="M7.75 4C7.50892 4 7.28253 4.11589 7.14157 4.31147C7.0006 4.50704 6.96225 4.75846 7.03849 4.98717L8 7.87171V9.48856C6.57202 10.1325 5.817 11.2506 5.42864 12.2215C5.21415 12.7577 5.10791 13.2549 5.05478 13.618C5.02808 13.8004 5.01442 13.9515 5.00742 14.0601C5.00391 14.1145 5.00206 14.1584 5.00108 14.1904C5.00059 14.2065 5.00032 14.2196 5.00017 14.2295L5.00003 14.2422L5.00001 14.2467L5 14.2485V14.2493C5 14.2496 5 14.25 5.75 14.25H5C5 14.6642 5.33579 15 5.75 15H11.25V19.25C11.25 19.6642 11.5858 20 12 20C12.4142 20 12.75 19.6642 12.75 19.25V15H18.25C18.6642 15 19 14.6642 19 14.25H18.25C19 14.25 19 14.2496 19 14.2493L19 14.2485L19 14.2467L19 14.2422L18.9998 14.2295C18.9997 14.2196 18.9994 14.2065 18.9989 14.1904C18.9979 14.1584 18.9961 14.1145 18.9926 14.0601C18.9856 13.9515 18.9719 13.8004 18.9452 13.618C18.8921 13.2549 18.7858 12.7577 18.5714 12.2215C18.183 11.2506 17.428 10.1325 16 9.48856V7.87171L16.9615 4.98717C17.0377 4.75846 16.9994 4.50704 16.8584 4.31147C16.7175 4.11589 16.4911 4 16.25 4H7.75ZM6.82136 12.7785C6.71864 13.0353 6.64837 13.2825 6.60044 13.5H17.3996C17.3516 13.2825 17.2814 13.0353 17.1786 12.7785C16.8611 11.9847 16.2482 11.1233 15.0128 10.7115C14.7066 10.6094 14.5 10.3228 14.5 10V7.75C14.5 7.66939 14.513 7.5893 14.5385 7.51283L15.2094 5.5H8.79057L9.46151 7.51283C9.487 7.5893 9.5 7.66939 9.5 7.75V10C9.5 10.3228 9.29343 10.6094 8.98717 10.7115C7.75183 11.1233 7.1389 11.9847 6.82136 12.7785Z" fill="#0E1438"/>
</svg>
