<svg width="24" height="24" viewBox="0 0 24 24" fill="none" xmlns="http://www.w3.org/2000/svg"><path d="M13.100 7.994 C 12.996 8.044,12.384 8.630,11.355 9.666 C 9.880 11.149,9.764 11.276,9.685 11.492 C 9.571 11.801,9.571 12.199,9.685 12.508 C 9.764 12.724,9.879 12.850,11.374 14.350 C 12.645 15.626,13.013 15.974,13.149 16.025 C 13.595 16.196,14.079 15.908,14.144 15.433 C 14.195 15.067,14.188 15.058,12.606 13.470 L 11.142 12.000 12.606 10.530 C 14.188 8.942,14.195 8.933,14.144 8.567 C 14.077 8.074,13.543 7.781,13.100 7.994 " stroke="none" fill-rule="evenodd" fill="black"></path></svg>