<svg width="24" height="24" viewBox="0 0 24 24" fill="none" xmlns="http://www.w3.org/2000/svg">
<path fill-rule="evenodd" clip-rule="evenodd" d="M22.8161 4.27455L16.9059 4.27301C16.9052 4.27301 16.9043 4.27301 16.9043 4.27301C16.8998 4.27301 16.8953 4.27383 16.8908 4.27383C16.0789 4.2989 15.0677 4.95535 14.8835 5.76481L12.0885 18.2316C11.9043 19.0486 12.4054 19.7134 13.2114 19.7256H19.4203C20.2141 19.686 20.9854 19.0371 21.1664 18.2369L23.9615 5.77003C24.1486 4.94471 23.6355 4.27455 22.8161 4.27455Z" fill="#01798A"/>
<path fill-rule="evenodd" clip-rule="evenodd" d="M12.0885 18.2315L14.8835 5.76476C15.0677 4.9553 16.0789 4.29885 16.8909 4.27378L14.541 4.27224L10.3072 4.27142C9.49302 4.28821 8.46861 4.94926 8.28451 5.76476L5.48869 18.2315C5.30384 19.0485 5.80562 19.7133 6.61115 19.7256H13.2114C12.4054 19.7133 11.9044 19.0485 12.0885 18.2315Z" fill="#024381"/>
<path fill-rule="evenodd" clip-rule="evenodd" d="M5.48867 18.2315L8.28448 5.76479C8.46859 4.94929 9.49299 4.28824 10.3072 4.27145L4.88347 4.27002C4.06473 4.27002 3.01501 4.93865 2.8279 5.76479L0.0320847 18.2315C0.0150707 18.3076 0.00563161 18.3822 0 18.4551V18.6864C0.0547303 19.282 0.50594 19.7157 1.15453 19.7256H6.61112C5.80559 19.7134 5.30382 19.0486 5.48867 18.2315Z" fill="#DD0228"/>
<path fill-rule="evenodd" clip-rule="evenodd" d="M10.4215 13.3556H10.5242C10.6185 13.3556 10.6819 13.3237 10.7117 13.2606L10.9784 12.8582H11.6927L11.5437 13.1228H12.4001L12.2915 13.5284H11.2724C11.1551 13.7063 11.0106 13.79 10.8369 13.7801H10.3061L10.4215 13.3556ZM10.3042 13.9368H12.1805L12.0609 14.3773H11.3063L11.1912 14.8025H11.9255L11.8059 15.2429H11.0716L10.901 15.8712C10.8588 15.9762 10.9143 16.0234 11.0667 16.0127H11.6651L11.5543 16.422H10.4054C10.1876 16.422 10.1129 16.2965 10.1812 16.0447L10.3993 15.2429H9.92993L10.0492 14.8025H10.5186L10.6336 14.3773H10.185L10.3042 13.9368ZM13.2989 12.8552L13.2694 13.113C13.2694 13.113 13.6233 12.8452 13.9448 12.8452H15.1326L14.6783 14.5027C14.6406 14.6922 14.4791 14.7864 14.1938 14.7864H12.8475L12.5322 15.9503C12.514 16.0127 12.5397 16.0447 12.6076 16.0447H12.8725L12.7752 16.406H12.1017C11.8432 16.406 11.7357 16.3276 11.7783 16.1702L12.6695 12.8552H13.2989ZM14.3048 13.3237H13.2446L13.1178 13.771C13.1178 13.771 13.2944 13.6425 13.5894 13.6379C13.8836 13.6332 14.2195 13.6379 14.2195 13.6379L14.3048 13.3237ZM13.9207 14.3613C13.9991 14.372 14.0429 14.3407 14.0482 14.2669L14.1131 14.0312H13.0513L12.9623 14.3613H13.9207ZM13.2045 14.8968H13.8165L13.8052 15.1637H13.9681C14.0505 15.1637 14.0913 15.1372 14.0913 15.0847L14.1395 14.912H14.6482L14.5802 15.1637C14.5228 15.3737 14.3705 15.4833 14.123 15.494H13.797L13.7954 15.9503C13.7894 16.0234 13.855 16.0607 13.9901 16.0607H14.2965L14.1976 16.422H13.4626C13.2566 16.4319 13.1556 16.3329 13.1577 16.123L13.2045 14.8968Z" fill="white"/>
<path fill-rule="evenodd" clip-rule="evenodd" d="M5.78823 10.6468C5.70522 11.0568 5.51279 11.3717 5.2143 11.5954C4.91853 11.8152 4.53703 11.9255 4.06997 11.9255C3.63042 11.9255 3.30818 11.8129 3.10254 11.587C2.95993 11.4264 2.88898 11.2226 2.88898 10.9761C2.88898 10.8742 2.90108 10.7647 2.92523 10.6468L3.42288 8.22784H4.17448L3.6836 10.6194C3.6685 10.6856 3.66247 10.7472 3.66326 10.8027C3.66247 10.9252 3.69264 11.0256 3.75376 11.1039C3.8428 11.2203 3.98732 11.2781 4.18843 11.2781C4.41969 11.2781 4.61025 11.2211 4.75814 11.1062C4.90607 10.9921 5.00265 10.8301 5.04603 10.6194L5.53845 8.22784H6.28624L5.78823 10.6468Z" fill="white"/>
<path fill-rule="evenodd" clip-rule="evenodd" d="M8.94473 9.69522H9.53336L9.07228 11.8541H8.4848L8.94473 9.69522ZM9.13002 8.90869H9.7239L9.61297 9.4327H9.01913L9.13002 8.90869Z" fill="white"/>
<path fill-rule="evenodd" clip-rule="evenodd" d="M10.0544 11.6897C9.90044 11.5413 9.82271 11.3413 9.82196 11.0872C9.82196 11.0438 9.82458 10.9944 9.83029 10.9404C9.83596 10.8856 9.84314 10.8323 9.85329 10.7829C9.92309 10.4323 10.0718 10.1539 10.3008 9.94845C10.5294 9.74232 10.8053 9.63885 11.1282 9.63885C11.3927 9.63885 11.6025 9.71341 11.7561 9.8625C11.9096 10.0124 11.9866 10.2147 11.9866 10.4719C11.9866 10.5159 11.9832 10.5669 11.9775 10.6217C11.9707 10.6772 11.9625 10.7304 11.953 10.7829C11.8847 11.1283 11.7365 11.4037 11.5074 11.6053C11.2784 11.8084 11.0034 11.9095 10.6826 11.9095C10.417 11.9095 10.208 11.8365 10.0544 11.6897ZM11.1761 11.2622C11.2799 11.1488 11.3542 10.9769 11.3995 10.748C11.4063 10.7122 11.4123 10.6749 11.4161 10.6377C11.4198 10.6011 11.4213 10.5669 11.4213 10.5357C11.4213 10.4026 11.3877 10.2992 11.3202 10.2261C11.2531 10.1523 11.1577 10.1158 11.0343 10.1158C10.8713 10.1158 10.7385 10.1736 10.6344 10.2892C10.5294 10.4049 10.4551 10.5798 10.4083 10.8126C10.4019 10.8483 10.3966 10.8841 10.3917 10.9191C10.388 10.9549 10.3869 10.9883 10.3876 11.0187C10.3876 11.1511 10.4212 11.2531 10.4887 11.3253C10.5558 11.3976 10.6508 11.4333 10.7758 11.4333C10.9396 11.4333 11.0724 11.3763 11.1761 11.2622Z" fill="white"/>
<path fill-rule="evenodd" clip-rule="evenodd" d="M15.8057 13.3738L15.9477 12.8703H16.6653L16.6343 13.0551C16.6343 13.0551 17.001 12.8703 17.2651 12.8703C17.5293 12.8703 18.1525 12.8703 18.1525 12.8703L18.0114 13.3738H17.8718L17.2025 15.7487H17.3421L17.2093 16.2203H17.0697L17.0116 16.4249H16.3166L16.3746 16.2203H15.0035L15.1372 15.7487H15.2745L15.9445 13.3738H15.8057ZM16.58 13.3739L16.3973 14.0166C16.3973 14.0166 16.7098 13.8957 16.9792 13.8615C17.0387 13.637 17.1164 13.3739 17.1164 13.3739L16.58 13.3739ZM16.3128 14.3178L16.1295 14.991C16.1295 14.991 16.4758 14.8191 16.7135 14.8046C16.7821 14.5445 16.8509 14.3178 16.8509 14.3178L16.3128 14.3178ZM16.4471 15.7487L16.5844 15.2603H16.0488L15.9107 15.7487H16.4471ZM18.1827 12.8391H18.8574L18.886 13.0901C18.8815 13.1539 18.9192 13.1844 18.9992 13.1844H19.1184L18.9978 13.6096H18.5019C18.3126 13.6195 18.2152 13.5465 18.2062 13.389L18.1827 12.8391ZM17.985 13.7511H20.1703L20.0421 14.2076H19.3463L19.227 14.632H19.9221L19.7931 15.0876H19.0189L18.8438 15.3547H19.2227L19.3102 15.8894C19.3206 15.9427 19.3674 15.9685 19.4475 15.9685H19.5651L19.4415 16.4089H19.0249C18.809 16.4196 18.6975 16.3466 18.6883 16.1891L18.5879 15.7008L18.2431 16.2203C18.1616 16.3671 18.0363 16.4356 17.8674 16.4249H17.2312L17.3549 15.9845H17.5534C17.635 15.9845 17.7028 15.9479 17.7639 15.8742L18.3035 15.0876H17.6077L17.7367 14.632H18.4914L18.6114 14.2076H17.856L17.985 13.7511Z" fill="white"/>
<path fill-rule="evenodd" clip-rule="evenodd" d="M6.48061 9.69442H7.01145L6.95074 10.0063L7.02692 9.9173C7.19901 9.73172 7.40801 9.63965 7.65478 9.63965C7.87814 9.63965 8.03924 9.7051 8.14037 9.83666C8.23995 9.96828 8.26712 10.1501 8.22001 10.3836L7.92756 11.8548H7.38199L7.64609 10.5213C7.6733 10.3836 7.66576 10.2809 7.6238 10.2147C7.58236 10.1485 7.50307 10.1159 7.38877 10.1159C7.24842 10.1159 7.13031 10.1599 7.0341 10.2475C6.93749 10.3357 6.87376 10.4582 6.84243 10.6141L6.59907 11.8548H6.05237L6.48061 9.69442Z" fill="white"/>
<path fill-rule="evenodd" clip-rule="evenodd" d="M12.5683 9.69442H13.0996L13.0393 10.0063L13.1147 9.9173C13.2869 9.73172 13.4966 9.63965 13.7426 9.63965C13.966 9.63965 14.1274 9.7051 14.2277 9.83666C14.3267 9.96828 14.3554 10.1501 14.307 10.3836L14.0157 11.8548H13.4694L13.7336 10.5213C13.7607 10.3836 13.7532 10.2809 13.7117 10.2147C13.6686 10.1485 13.5908 10.1159 13.477 10.1159C13.3366 10.1159 13.2189 10.1599 13.1216 10.2475C13.0249 10.3357 12.9609 10.4582 12.9307 10.6141L12.6862 11.8548H12.1402L12.5683 9.69442" fill="white"/>
<path fill-rule="evenodd" clip-rule="evenodd" d="M15.1945 8.35559H16.7369C17.0335 8.35559 17.2628 8.42334 17.4205 8.55639C17.5775 8.69108 17.6561 8.88431 17.6561 9.13608V9.14366C17.6561 9.19156 17.6529 9.24559 17.6484 9.30414C17.6408 9.36196 17.631 9.4205 17.6183 9.4814C17.5504 9.81459 17.3926 10.0824 17.1489 10.2855C16.9043 10.4878 16.6147 10.5897 16.2811 10.5897H15.454L15.1982 11.8548H14.4821L15.1945 8.35559ZM15.58 9.98121H16.266C16.4448 9.98121 16.5866 9.93931 16.6901 9.85644C16.7927 9.77276 16.8607 9.64499 16.8983 9.47157C16.9043 9.43953 16.9081 9.41067 16.9126 9.38406C16.915 9.35898 16.9179 9.33381 16.9179 9.30955C16.9179 9.18551 16.8743 9.09575 16.7867 9.03946C16.6991 8.98235 16.5619 8.95502 16.3716 8.95502H15.789L15.58 9.98121Z" fill="white"/>
<path fill-rule="evenodd" clip-rule="evenodd" d="M20.8615 12.2724C20.6351 12.7576 20.4193 13.0406 20.2926 13.1722C20.1657 13.3023 19.9145 13.6051 19.3093 13.5822L19.3614 13.2118C19.8707 13.0536 20.1461 12.3407 20.3031 12.0251L20.116 9.70045L20.5099 9.69513H20.8404L20.8759 11.1534L21.4953 9.69513H22.1225L20.8615 12.2724Z" fill="white"/>
<path fill-rule="evenodd" clip-rule="evenodd" d="M19.1079 9.8709L18.8588 10.0436C18.5984 9.83824 18.3608 9.71119 17.9021 9.92567C17.2772 10.2178 16.755 12.458 18.4755 11.7201L18.5736 11.8373L19.2505 11.8548L19.695 9.81916L19.1079 9.8709ZM18.723 10.9838C18.6143 11.3071 18.3714 11.5208 18.1813 11.46C17.9911 11.4006 17.9232 11.0887 18.0333 10.7647C18.142 10.4406 18.3864 10.2277 18.5751 10.2885C18.7653 10.3478 18.8339 10.6597 18.723 10.9838Z" fill="white"/>
</svg>
