<svg width="24" height="24" viewBox="0 0 24 24" fill="none" xmlns="http://www.w3.org/2000/svg"><path d="M11.700 2.796 C 11.506 2.885,11.384 3.012,11.302 3.209 C 11.224 3.396,11.212 4.748,11.287 4.964 C 11.359 5.172,11.479 5.312,11.660 5.400 C 12.060 5.593,12.493 5.433,12.684 5.020 C 12.748 4.883,12.758 4.756,12.759 4.140 C 12.760 3.356,12.732 3.188,12.570 2.996 C 12.354 2.739,11.999 2.658,11.700 2.796 M5.660 5.287 C 5.310 5.480,5.154 5.831,5.260 6.188 C 5.309 6.354,5.400 6.463,5.910 6.969 C 6.451 7.506,6.518 7.559,6.681 7.585 C 6.779 7.601,6.860 7.613,6.860 7.613 C 6.860 7.613,6.936 7.601,7.029 7.586 C 7.228 7.555,7.466 7.364,7.546 7.172 C 7.611 7.017,7.616 6.728,7.557 6.573 C 7.501 6.424,6.499 5.413,6.312 5.317 C 6.146 5.231,5.790 5.215,5.660 5.287 M17.696 5.303 C 17.628 5.336,17.320 5.620,17.011 5.932 C 16.498 6.451,16.446 6.517,16.408 6.696 C 16.386 6.804,16.373 6.912,16.380 6.936 C 16.387 6.960,16.404 7.029,16.417 7.089 C 16.447 7.224,16.653 7.464,16.808 7.544 C 16.948 7.616,17.253 7.625,17.419 7.561 C 17.575 7.501,18.618 6.467,18.703 6.289 C 18.778 6.130,18.786 5.805,18.717 5.672 C 18.649 5.539,18.476 5.361,18.352 5.296 C 18.210 5.222,17.852 5.226,17.696 5.303 M11.240 6.939 C 9.112 7.255,7.435 8.851,6.973 11.000 C 6.871 11.474,6.871 12.524,6.973 13.000 C 7.409 15.039,8.931 16.573,10.960 17.019 C 11.418 17.119,12.298 17.141,12.769 17.064 C 16.245 16.493,18.142 12.780,16.549 9.665 C 15.555 7.721,13.407 6.618,11.240 6.939 M12.993 8.516 C 14.193 8.867,15.165 9.858,15.506 11.080 C 15.610 11.451,15.610 12.549,15.506 12.920 C 15.226 13.923,14.524 14.782,13.611 15.240 C 12.687 15.702,11.587 15.740,10.614 15.343 C 9.571 14.918,8.778 13.998,8.495 12.885 C 8.356 12.342,8.356 11.658,8.495 11.115 C 8.850 9.720,9.949 8.703,11.400 8.425 C 11.455 8.415,11.770 8.412,12.100 8.419 C 12.567 8.428,12.765 8.450,12.993 8.516 M3.380 11.258 C 3.358 11.266,3.292 11.284,3.233 11.296 C 2.979 11.352,2.722 11.707,2.722 12.000 C 2.722 12.172,2.836 12.430,2.965 12.548 C 3.168 12.734,3.308 12.760,4.111 12.760 C 4.833 12.760,4.872 12.756,5.062 12.661 C 5.618 12.381,5.619 11.630,5.064 11.329 C 4.962 11.273,4.804 11.260,4.180 11.252 C 3.762 11.247,3.402 11.249,3.380 11.258 M19.094 11.276 C 18.355 11.463,18.314 12.467,19.036 12.714 C 19.120 12.742,19.454 12.760,19.916 12.759 C 20.554 12.758,20.683 12.748,20.820 12.684 C 21.014 12.595,21.136 12.468,21.218 12.271 C 21.364 11.922,21.211 11.518,20.860 11.327 C 20.763 11.274,20.597 11.260,19.980 11.253 C 19.562 11.248,19.163 11.259,19.094 11.276 M6.540 16.462 C 6.474 16.496,6.172 16.770,5.869 17.072 C 5.400 17.538,5.309 17.649,5.260 17.812 C 5.169 18.118,5.247 18.372,5.499 18.593 C 5.577 18.662,5.691 18.730,5.751 18.743 C 5.811 18.756,5.880 18.773,5.904 18.780 C 5.928 18.787,6.036 18.774,6.144 18.751 C 6.322 18.713,6.391 18.659,6.908 18.150 C 7.220 17.842,7.504 17.531,7.538 17.459 C 7.610 17.308,7.619 17.016,7.557 16.853 C 7.500 16.699,7.327 16.522,7.171 16.455 C 7.001 16.382,6.689 16.386,6.540 16.462 M16.840 16.445 C 16.593 16.543,16.394 16.831,16.390 17.096 C 16.385 17.415,16.451 17.515,17.071 18.128 C 17.611 18.662,17.676 18.714,17.856 18.752 C 17.964 18.774,18.072 18.787,18.096 18.780 C 18.120 18.773,18.189 18.756,18.249 18.743 C 18.384 18.713,18.624 18.507,18.704 18.352 C 18.776 18.212,18.785 17.907,18.721 17.741 C 18.661 17.585,17.664 16.576,17.472 16.477 C 17.311 16.394,17.007 16.378,16.840 16.445 M11.699 18.576 C 11.541 18.645,11.353 18.846,11.293 19.010 C 11.218 19.219,11.224 20.605,11.302 20.791 C 11.421 21.077,11.710 21.278,12.000 21.278 C 12.310 21.278,12.635 21.030,12.718 20.729 C 12.741 20.647,12.759 20.256,12.759 19.860 C 12.758 19.066,12.727 18.929,12.495 18.713 C 12.288 18.519,11.958 18.463,11.699 18.576 " stroke="none" fill-rule="evenodd" fill="black"></path></svg>