<svg width="24" height="24" viewBox="0 0 24 24" fill="none" xmlns="http://www.w3.org/2000/svg">
<path fill-rule="evenodd" clip-rule="evenodd" d="M6.53577 5.46967C6.82867 5.76256 6.82866 6.23744 6.53577 6.53033C3.51477 9.55132 3.51477 14.4493 6.53577 17.4703C6.82866 17.7632 6.82867 18.2381 6.53577 18.531C6.24288 18.8239 5.76801 18.8239 5.47511 18.531C1.86832 14.9242 1.86832 9.07645 5.47511 5.46967C5.76801 5.17678 6.24288 5.17678 6.53577 5.46967ZM17.4757 5.46967C17.7686 5.17678 18.2435 5.17678 18.5364 5.46967C22.1431 9.07645 22.1431 14.9242 18.5364 18.531C18.2435 18.8239 17.7686 18.8239 17.4757 18.531C17.1828 18.2381 17.1828 17.7632 17.4757 17.4703C20.4967 14.4493 20.4967 9.55132 17.4757 6.53033C17.1828 6.23744 17.1828 5.76256 17.4757 5.46967ZM16.0536 7.95247C15.7607 7.65958 15.2858 7.65957 14.9929 7.95246C14.7 8.24535 14.7 8.72023 14.9929 9.01312C16.6426 10.6628 16.6426 13.3376 14.9929 14.9874C14.7 15.2803 14.7 15.7552 14.9929 16.0481C15.2858 16.3409 15.7607 16.3409 16.0536 16.048C18.289 13.8124 18.2891 10.188 16.0536 7.95247ZM9.01872 7.95247C9.31161 8.24536 9.31161 8.72023 9.01872 9.01313C7.36899 10.6629 7.36898 13.3376 9.01873 14.9874C9.31162 15.2803 9.31161 15.7552 9.01871 16.048C8.72581 16.3409 8.25093 16.3409 7.95805 16.048C5.72255 13.8124 5.72253 10.188 7.95806 7.95247C8.25095 7.65957 8.72582 7.65957 9.01872 7.95247ZM11.9205 12.0003C11.9205 11.9532 11.9587 11.915 12.0057 11.915C12.0528 11.915 12.0909 11.9532 12.0909 12.0003C12.0909 12.0473 12.0527 12.0855 12.0057 12.0855C11.9587 12.0855 11.9205 12.0473 11.9205 12.0003ZM12.0057 10.915C11.4064 10.915 10.9205 11.4009 10.9205 12.0003C10.9205 12.5996 11.4064 13.0855 12.0057 13.0855C12.605 13.0855 13.0909 12.5996 13.0909 12.0003C13.0909 11.4009 12.605 10.915 12.0057 10.915Z" fill="black"/>
</svg>
