<svg width="24" height="24" viewBox="0 0 24 24" fill="none" xmlns="http://www.w3.org/2000/svg">
<path fill-rule="evenodd" clip-rule="evenodd" d="M4.1875 6.1875C3.91136 6.1875 3.6875 6.41136 3.6875 6.6875V17.3125C3.6875 17.5886 3.91136 17.8125 4.1875 17.8125H5.5546C5.54839 17.7272 5.55676 17.6394 5.58158 17.5524C5.86899 16.5445 6.33385 15.4479 6.93323 14.5852C7.22032 14.172 7.57702 13.7581 7.99958 13.4496C7.10028 12.9474 6.49216 11.9862 6.49216 10.8831C6.49216 9.26072 7.80732 7.94556 9.42966 7.94556C11.052 7.94556 12.3672 9.26072 12.3672 10.8831C12.3672 11.9863 11.759 12.9474 10.8597 13.4496C11.2822 13.7581 11.6389 14.172 11.926 14.5852C12.5254 15.4479 12.9902 16.5445 13.2776 17.5524C13.3025 17.6394 13.3108 17.7272 13.3046 17.8125H19.8125C20.0886 17.8125 20.3125 17.5886 20.3125 17.3125V6.6875C20.3125 6.41136 20.0886 6.1875 19.8125 6.1875H12H8.09375H4.1875ZM11.7907 17.8125H7.06851C7.32503 16.9643 7.71084 16.0949 8.1651 15.4411C8.67709 14.7041 9.12731 14.4456 9.42961 14.4456C9.7319 14.4456 10.1821 14.7041 10.6941 15.4411C11.1484 16.0949 11.5342 16.9643 11.7907 17.8125ZM2.1875 6.6875C2.1875 5.58293 3.08293 4.6875 4.1875 4.6875H8.09375H12H19.8125C20.9171 4.6875 21.8125 5.58293 21.8125 6.6875V17.3125C21.8125 18.4171 20.9171 19.3125 19.8125 19.3125H4.1875C3.08293 19.3125 2.1875 18.4171 2.1875 17.3125V6.6875ZM9.42966 9.44556C8.63575 9.44556 7.99216 10.0891 7.99216 10.8831C7.99216 11.677 8.63575 12.3206 9.42966 12.3206C10.2236 12.3206 10.8672 11.677 10.8672 10.8831C10.8672 10.0891 10.2236 9.44556 9.42966 9.44556ZM16.5733 7.21802C16.4479 7.10888 16.2764 7.06925 16.1157 7.11229C15.9551 7.15532 15.8264 7.2754 15.7723 7.43265L15.5818 7.98675L14.9959 7.9763C14.8297 7.97333 14.6728 8.05321 14.5774 8.18943C14.482 8.32564 14.4606 8.50036 14.5203 8.65558L14.7305 9.20253L14.275 9.57111C14.1457 9.67571 14.0769 9.83773 14.0914 10.0034C14.1059 10.169 14.2018 10.3166 14.3472 10.3972L14.8598 10.6811L14.7478 11.2562C14.716 11.4194 14.7674 11.5878 14.885 11.7054C15.0026 11.823 15.171 11.8744 15.3342 11.8426L15.9093 11.7306L16.1932 12.2432C16.2738 12.3886 16.4214 12.4845 16.587 12.499C16.7527 12.5135 16.9147 12.4447 17.0193 12.3154L17.3879 11.8599L17.9348 12.0701C18.09 12.1298 18.2648 12.1084 18.401 12.013C18.5372 11.9176 18.6171 11.7607 18.6141 11.5945L18.6037 11.0086L19.1578 10.8181C19.315 10.764 19.4351 10.6353 19.4781 10.4747C19.5212 10.314 19.4815 10.1425 19.3724 10.0171L18.9878 9.575L19.2898 9.07286C19.3755 8.93035 19.3847 8.75457 19.3144 8.60386C19.2442 8.45316 19.1036 8.34725 18.9393 8.3213L18.3605 8.22986L18.2691 7.65108C18.2432 7.48684 18.1372 7.34623 17.9865 7.27596C17.8358 7.20568 17.66 7.21493 17.5175 7.30063L17.0154 7.60261L16.5733 7.21802ZM16.4092 8.65575L16.4767 8.45942L16.6333 8.59569C16.7969 8.73796 17.0335 8.75865 17.2192 8.64695L17.3971 8.53994L17.4295 8.74502C17.4634 8.95912 17.6313 9.12704 17.8454 9.16087L18.0505 9.19327L17.9435 9.3712C17.8317 9.55695 17.8524 9.79352 17.9947 9.95705L18.131 10.1137L17.9346 10.1812C17.7297 10.2517 17.5935 10.4462 17.5973 10.663L17.601 10.8705L17.4072 10.7961C17.2049 10.7183 16.9755 10.7798 16.8392 10.9483L16.7086 11.1097L16.608 10.928C16.503 10.7384 16.2877 10.6381 16.075 10.6795L15.8712 10.7192L15.9109 10.5154C15.9523 10.3027 15.852 10.0874 15.6624 9.98241L15.4807 9.88183L15.6421 9.75123C15.8106 9.61488 15.8721 9.3855 15.7943 9.18317L15.7199 8.98937L15.9274 8.99307C16.1442 8.99694 16.3387 8.86073 16.4092 8.65575Z" fill="black"/>
</svg>
