<svg width="24" height="24" viewBox="0 0 24 24" fill="none" xmlns="http://www.w3.org/2000/svg"><path d="M4.220 3.654 C 3.970 3.771,3.716 4.044,3.616 4.302 C 3.543 4.493,3.540 4.678,3.540 9.500 C 3.540 14.332,3.543 14.507,3.617 14.699 C 3.717 14.960,3.992 15.248,4.251 15.366 L 4.460 15.460 6.488 15.472 L 8.515 15.485 8.528 17.512 L 8.540 19.540 8.634 19.749 C 8.752 20.008,9.040 20.283,9.301 20.383 C 9.493 20.457,9.668 20.460,14.520 20.460 L 19.540 20.460 19.749 20.366 C 20.008 20.248,20.283 19.960,20.383 19.699 C 20.457 19.507,20.460 19.332,20.460 14.500 C 20.460 9.678,20.457 9.493,20.384 9.302 C 20.293 9.066,20.045 8.786,19.822 8.667 C 19.663 8.581,19.626 8.580,17.572 8.569 L 15.485 8.557 15.472 6.509 C 15.460 4.468,15.460 4.459,15.368 4.260 C 15.259 4.022,15.041 3.786,14.820 3.667 L 14.660 3.580 9.540 3.570 L 4.420 3.560 4.220 3.654 M13.960 6.800 L 13.960 8.560 11.690 8.560 L 9.420 8.561 9.220 8.656 C 8.971 8.774,8.752 8.999,8.632 9.260 L 8.540 9.460 8.528 11.710 L 8.516 13.960 6.778 13.960 L 5.040 13.960 5.040 9.500 L 5.040 5.040 9.500 5.040 L 13.960 5.040 13.960 6.800 M18.960 14.500 L 18.960 18.960 14.500 18.960 L 10.040 18.960 10.040 14.500 L 10.040 10.040 14.500 10.040 L 18.960 10.040 18.960 14.500 " stroke="none" fill-rule="evenodd" fill="black"></path></svg>