<svg width="24" height="24" viewBox="0 0 24 24" fill="none" xmlns="http://www.w3.org/2000/svg">
<path d="M6.88065 17.7631C7.9753 16.164 9.77653 15.125 11.9998 15.125C14.2232 15.125 16.0243 16.164 17.119 17.7631M6.88065 17.7631C8.24201 18.9733 10.0351 19.7084 11.9998 19.7084C13.9646 19.7084 15.7577 18.9733 17.119 17.7631M6.88065 17.7631C5.29222 16.3512 4.2915 14.2924 4.2915 12C4.2915 7.74283 7.74265 4.29169 11.9998 4.29169C16.257 4.29169 19.7082 7.74283 19.7082 12C19.7082 14.2924 18.7074 16.3512 17.119 17.7631M14.7082 10.3334C14.7082 11.8291 13.4956 13.0417 11.9998 13.0417C10.5041 13.0417 9.2915 11.8291 9.2915 10.3334C9.2915 8.83758 10.5041 7.62502 11.9998 7.62502C13.4956 7.62502 14.7082 8.83758 14.7082 10.3334Z" stroke="black" stroke-width="1.25" stroke-linejoin="round"/>
</svg>
