<svg width="24" height="24" viewBox="0 0 24 24" fill="none" xmlns="http://www.w3.org/2000/svg">
<path fill-rule="evenodd" clip-rule="evenodd" d="M11.469 5.46346C13.4203 3.51218 16.5839 3.51218 18.5352 5.46346C20.4865 7.41473 20.4865 10.5784 18.5352 12.5297L17.284 13.7808C16.9911 14.0737 16.5163 14.0737 16.2234 13.7808C15.9305 13.4879 15.9305 13.013 16.2234 12.7201L17.4745 11.469C18.84 10.1035 18.84 7.88961 17.4745 6.52412C16.109 5.15863 13.8951 5.15863 12.5297 6.52412L11.2785 7.77527C10.9856 8.06816 10.5107 8.06816 10.2178 7.77527C9.92495 7.48238 9.92495 7.0075 10.2178 6.71461L11.469 5.46346ZM7.77527 10.2178C8.06816 10.5107 8.06816 10.9856 7.77527 11.2785L6.52412 12.5297C5.15863 13.8951 5.15863 16.109 6.52412 17.4745C7.88961 18.84 10.1035 18.84 11.469 17.4745L12.7201 16.2234C13.013 15.9305 13.4879 15.9305 13.7808 16.2234C14.0737 16.5163 14.0737 16.9911 13.7808 17.284L12.5297 18.5352C10.5784 20.4865 7.41473 20.4865 5.46346 18.5352C3.51218 16.5839 3.51218 13.4203 5.46346 11.469L6.71461 10.2178C7.0075 9.92495 7.48238 9.92495 7.77527 10.2178ZM14.7817 10.2775C15.0746 9.98463 15.0746 9.50976 14.7817 9.21686C14.4888 8.92397 14.0139 8.92397 13.721 9.21686L9.21686 13.721C8.92397 14.0139 8.92397 14.4888 9.21686 14.7817C9.50976 15.0746 9.98463 15.0746 10.2775 14.7817L14.7817 10.2775Z" fill="#2D2D2D"/>
</svg>
