<svg width="24" height="24" viewBox="0 0 24 24" fill="none" xmlns="http://www.w3.org/2000/svg">
<path fill-rule="evenodd" clip-rule="evenodd" d="M9.03039 6.74731C9.45973 6.15778 10.2897 5.5 12 5.5L14.6761 6.73288C14.9417 7.04859 15.4128 7.09058 15.7301 6.82617C16.0483 6.56099 16.0913 6.08807 15.8261 5.76986L15.272 6.23166C15.8261 5.76986 15.8259 5.76963 15.8258 5.7694L15.8253 5.76891L15.8244 5.76781L15.8222 5.7652L15.8164 5.75836L15.7991 5.73839C15.785 5.72238 15.766 5.70106 15.7419 5.67521C15.694 5.62355 15.6261 5.55346 15.5392 5.47116C15.366 5.30709 15.1142 5.0914 14.791 4.87596C14.1476 4.44703 13.1918 4 12 4C9.82379 4 8.53744 4.8762 7.81787 5.86425C7.35595 6.4985 7.15939 7.21182 7.07198 7.89051C6.9964 8.47739 6.99808 9.08745 6.99957 9.62722C6.99977 9.70067 6.99997 9.77282 6.99997 9.84343V10H6.75C5.78352 10 5 10.7835 5 11.75V17.25C5 18.7688 6.23122 20 7.75 20H16.25C17.7688 20 19 18.7688 19 17.25V11.75C19 10.7835 18.2165 10 17.25 10H8.49997V9.84343L8.49967 9.62042V9.62041C8.49858 9.06936 8.49757 8.56447 8.55969 8.08211C8.62856 7.54737 8.76908 7.10611 9.03039 6.74731L9.03039 6.74731ZM12 5.5L14.6759 6.73262L14.6718 6.72792C14.6666 6.72196 14.6568 6.71105 14.6428 6.69589C14.6146 6.66551 14.5692 6.61841 14.5076 6.56009C14.3839 6.44291 14.1983 6.2836 13.9589 6.12404C13.4773 5.80297 12.8081 5.5 12 5.5ZM6.5 11.75C6.5 11.6119 6.61192 11.5 6.75 11.5H17.25C17.3881 11.5 17.5 11.6119 17.5 11.75V17.25C17.5 17.9404 16.9404 18.5 16.25 18.5H7.75C7.05964 18.5 6.5 17.9404 6.5 17.25V11.75Z" fill="black"/>
</svg>
