<svg width="24" height="24" viewBox="0 0 24 24" fill="none" xmlns="http://www.w3.org/2000/svg">
<path d="M13.25 16.75H10.75M4.75 12.75C4.75 12.75 5.159 12.396 6 11.986M6 11.986C7.16 11.422 9.139 10.75 12 10.75C14.861 10.75 16.84 11.422 18 11.986M6 11.986L6.564 6.544C6.61497 6.05176 6.84663 5.59589 7.2142 5.26453C7.58176 4.93316 8.05912 4.74984 8.554 4.75H15.447C15.9417 4.75009 16.4188 4.93352 16.7862 5.26486C17.1535 5.5962 17.385 6.05193 17.436 6.544L18 11.986M18 11.986C18.841 12.396 19.25 12.75 19.25 12.75M10.25 17C10.25 17.5967 10.0129 18.169 9.59099 18.591C9.16903 19.0129 8.59674 19.25 8 19.25C7.40326 19.25 6.83097 19.0129 6.40901 18.591C5.98705 18.169 5.75 17.5967 5.75 17C5.75 16.4033 5.98705 15.831 6.40901 15.409C6.83097 14.9871 7.40326 14.75 8 14.75C8.59674 14.75 9.16903 14.9871 9.59099 15.409C10.0129 15.831 10.25 16.4033 10.25 17ZM18.25 17C18.25 17.5967 18.0129 18.169 17.591 18.591C17.169 19.0129 16.5967 19.25 16 19.25C15.4033 19.25 14.831 19.0129 14.409 18.591C13.9871 18.169 13.75 17.5967 13.75 17C13.75 16.4033 13.9871 15.831 14.409 15.409C14.831 14.9871 15.4033 14.75 16 14.75C16.5967 14.75 17.169 14.9871 17.591 15.409C18.0129 15.831 18.25 16.4033 18.25 17Z" stroke="black" stroke-width="1.5" stroke-linecap="round" stroke-linejoin="round"/>
</svg>
