<svg width="24" height="24" viewBox="0 0 24 24" fill="none" xmlns="http://www.w3.org/2000/svg">
<path fill-rule="evenodd" clip-rule="evenodd" d="M6.5 6.75C6.5 6.05964 7.05964 5.5 7.75 5.5H9V17.5H7.75C7.05964 17.5 6.5 16.9404 6.5 16.25V6.75ZM9 19V19.25C9 19.6642 9.33579 20 9.75 20C10.1642 20 10.5 19.6642 10.5 19.25V19H16.2502C17.769 19 19.0002 17.7688 19.0002 16.25V6.75C19.0002 5.23122 17.769 4 16.2502 4H9.75H7.75C6.23122 4 5 5.23122 5 6.75V16.25C5 17.7688 6.23122 19 7.75 19H9ZM10.5 5.5H16.2502C16.9406 5.5 17.5002 6.05964 17.5002 6.75V16.25C17.5002 16.9404 16.9406 17.5 16.2502 17.5H10.5V5.5ZM13.75 8C13.3358 8 13 8.33579 13 8.75C13 9.16421 13.3358 9.5 13.75 9.5H14.25C14.6642 9.5 15 9.16421 15 8.75C15 8.33579 14.6642 8 14.25 8H13.75ZM13 11.75C13 11.3358 13.3358 11 13.75 11H14.25C14.6642 11 15 11.3358 15 11.75C15 12.1642 14.6642 12.5 14.25 12.5H13.75C13.3358 12.5 13 12.1642 13 11.75Z" fill="black"/>
</svg>
