<svg width="24" height="24" viewBox="0 0 24 24" fill="none" xmlns="http://www.w3.org/2000/svg">
<path fill-rule="evenodd" clip-rule="evenodd" d="M1.97063 12.8342C1.7332 13.0372 1.43096 13.126 0.947625 13.126H0.747068V10.7033H0.947625C1.43096 10.7033 1.72161 10.7861 1.97063 10.9992C2.22769 11.2195 2.38215 11.5592 2.38215 11.9106C2.38215 12.2637 2.22769 12.6155 1.97063 12.8342ZM1.09734 10.0828H0V13.7468H1.09065C1.67107 13.7468 2.09002 13.6146 2.45724 13.323C2.89344 12.9776 3.15228 12.456 3.15228 11.9157C3.15228 10.8341 2.30782 10.0828 1.09734 10.0828Z" fill="#201D1C"/>
<path fill-rule="evenodd" clip-rule="evenodd" d="M3.49677 10.0828H4.24086V13.7468H3.49677V10.0828Z" fill="#201D1C"/>
<path fill-rule="evenodd" clip-rule="evenodd" d="M6.06813 11.4871C5.61899 11.3295 5.48772 11.2245 5.48772 11.0265C5.48772 10.7963 5.72232 10.6217 6.04494 10.6217C6.26854 10.6217 6.45274 10.7074 6.64899 10.9166L7.03747 10.429C6.71648 10.1586 6.33232 10.0218 5.91351 10.0218C5.23587 10.0218 4.71938 10.4729 4.71938 11.0694C4.71938 11.5759 4.95949 11.8328 5.66018 12.0768C5.95306 12.1743 6.10188 12.2408 6.17725 12.2859C6.32652 12.3783 6.40086 12.5106 6.40086 12.6635C6.40086 12.9615 6.15406 13.1806 5.82044 13.1806C5.46527 13.1806 5.17789 13.0105 5.00587 12.691L4.52448 13.1371C4.86865 13.6197 5.28121 13.8353 5.84958 13.8353C6.62475 13.8353 7.17097 13.3387 7.17097 12.6314C7.17097 12.0485 6.91764 11.7843 6.06813 11.4871Z" fill="#201D1C"/>
<path fill-rule="evenodd" clip-rule="evenodd" d="M7.40564 11.9157C7.40564 12.9933 8.28949 13.8282 9.42727 13.8282C9.7481 13.8282 10.0231 13.7676 10.3618 13.6147V12.7726C10.0625 13.0604 9.79984 13.1739 9.45998 13.1739C8.70815 13.1739 8.17561 12.6534 8.17561 11.9106C8.17561 11.2088 8.72539 10.6529 9.42727 10.6529C9.78141 10.6529 10.052 10.7729 10.3618 11.065V10.2239C10.0346 10.0656 9.76609 10 9.44258 10C8.31135 10 7.40564 10.8513 7.40564 11.9157Z" fill="#201D1C"/>
<path fill-rule="evenodd" clip-rule="evenodd" d="M16.4115 12.5427L15.3904 10.0828H14.5763L16.1995 13.8393H16.5999L18.2546 10.0828H17.4468L16.4115 12.5427Z" fill="#201D1C"/>
<path fill-rule="evenodd" clip-rule="evenodd" d="M18.5934 13.7468H20.711V13.126H19.3405V12.1369H20.6589V11.5162H19.3405V10.7033H20.711V10.0828H18.5934V13.7468Z" fill="#201D1C"/>
<path fill-rule="evenodd" clip-rule="evenodd" d="M22.1694 11.7676H21.9526V10.6594H22.1816C22.6481 10.6594 22.898 10.8468 22.898 11.2037C22.898 11.5705 22.6481 11.7676 22.1694 11.7676ZM23.667 11.1638C23.667 10.4777 23.1752 10.0828 22.313 10.0828H21.2039V13.7468H21.9526V12.2736H22.0497L23.0813 13.7468H24L22.7953 12.2025C23.3583 12.0924 23.667 11.7245 23.667 11.1638Z" fill="#201D1C"/>
<path fill-rule="evenodd" clip-rule="evenodd" d="M14.6816 11.9242C14.6816 12.9791 13.7884 13.8341 12.6855 13.8341C11.583 13.8341 10.6896 12.9791 10.6896 11.9242C10.6896 10.8692 11.583 10.014 12.6855 10.014C13.7884 10.014 14.6816 10.8692 14.6816 11.9242Z" fill="url(#paint0_linear_1275_654)"/>
<path fill-rule="evenodd" clip-rule="evenodd" d="M14.6816 11.9242C14.6816 12.9791 13.7884 13.8341 12.6855 13.8341C11.583 13.8341 10.6896 12.9791 10.6896 11.9242C10.6896 10.8692 11.583 10.014 12.6855 10.014C13.7884 10.014 14.6816 10.8692 14.6816 11.9242Z" fill="url(#paint1_radial_1275_654)"/>
<defs>
<linearGradient id="paint0_linear_1275_654" x1="11.461" y1="10.375" x2="13.9453" y2="13.375" gradientUnits="userSpaceOnUse">
<stop stop-color="#E6772F"/>
<stop offset="1" stop-color="#EA9D2C"/>
</linearGradient>
<radialGradient id="paint1_radial_1275_654" cx="0" cy="0" r="1" gradientUnits="userSpaceOnUse" gradientTransform="translate(13.125 12.7187) rotate(-128.1) scale(2.62092 2.73884)">
<stop stop-color="#EA9D2C" stop-opacity="0"/>
<stop offset="0.328125" stop-color="#DF7624" stop-opacity="0"/>
<stop offset="0.760188" stop-color="#BF4B23" stop-opacity="0.75"/>
<stop offset="1" stop-color="#7D3017"/>
</radialGradient>
</defs>
</svg>
