<svg width="24" height="24" viewBox="0 0 24 24" fill="none" xmlns="http://www.w3.org/2000/svg">
<path fill-rule="evenodd" clip-rule="evenodd" d="M21.0134 5.33709L16.0882 5.33582C16.0876 5.33582 16.0869 5.33582 16.0869 5.33582C16.0831 5.33582 16.0794 5.3365 16.0757 5.3365C15.3991 5.35739 14.5564 5.90443 14.4029 6.57898L12.0737 16.9679C11.9203 17.6488 12.3378 18.2028 13.0095 18.213H18.1836C18.845 18.18 19.4878 17.6393 19.6387 16.9724L21.9679 6.58333C22.1238 5.89556 21.6962 5.33709 21.0134 5.33709" fill="#01798A"/>
<path fill-rule="evenodd" clip-rule="evenodd" d="M12.0738 16.9679L14.4029 6.57892C14.5564 5.90437 15.3991 5.35733 16.0757 5.33644L14.1175 5.33516L10.5893 5.33447C9.91086 5.34846 9.05718 5.89934 8.90377 6.57892L6.57392 16.9679C6.41988 17.6487 6.83802 18.2027 7.5093 18.2129H13.0095C12.3378 18.2027 11.9203 17.6487 12.0738 16.9679" fill="#024381"/>
<path fill-rule="evenodd" clip-rule="evenodd" d="M6.57389 16.9679L8.90373 6.57895C9.05715 5.89937 9.91082 5.34849 10.5893 5.33451L6.06955 5.33331C5.38727 5.33331 4.51251 5.8905 4.35658 6.57895L2.02674 16.9679C2.01256 17.0313 2.00469 17.0935 2 17.1543V17.347C2.04561 17.8433 2.42162 18.2047 2.96211 18.213H7.50927C6.83799 18.2028 6.41985 17.6488 6.57389 16.9679" fill="#DD0228"/>
<path fill-rule="evenodd" clip-rule="evenodd" d="M10.6846 12.9047H10.7701C10.8487 12.9047 10.9016 12.8781 10.9264 12.8254L11.1486 12.4901H11.7438L11.6197 12.7107H12.3334L12.2429 13.0486H11.3937C11.2959 13.1969 11.1755 13.2666 11.0307 13.2584H10.5884L10.6846 12.9047ZM10.5868 13.389H12.1504L12.0507 13.756H11.4219L11.326 14.1104H11.9378L11.8382 14.4774H11.2263L11.0842 15.001C11.049 15.0885 11.0952 15.1278 11.2222 15.1189H11.7209L11.6285 15.46H10.6711C10.4896 15.46 10.4274 15.3553 10.4843 15.1455L10.666 14.4774H10.2749L10.3743 14.1104H10.7654L10.8613 13.756H10.4874L10.5868 13.389ZM13.0824 12.4876L13.0578 12.7025C13.0578 12.7025 13.3527 12.4792 13.6206 12.4792H14.6104L14.2319 13.8605C14.2005 14.0184 14.0659 14.097 13.8281 14.097H12.7062L12.4435 15.0669C12.4283 15.1189 12.4497 15.1455 12.5063 15.1455H12.7271L12.6459 15.4466H12.0847C11.8693 15.4466 11.7797 15.3813 11.8152 15.2501L12.5578 12.4876H13.0824ZM13.9206 12.878H13.0371L12.9315 13.2507C12.9315 13.2507 13.0786 13.1437 13.3245 13.1398C13.5697 13.136 13.8495 13.1398 13.8495 13.1398L13.9206 12.878ZM13.6005 13.7427C13.6659 13.7516 13.7024 13.7256 13.7068 13.6641L13.7609 13.4676H12.8761L12.8019 13.7427H13.6005ZM13.0037 14.1889H13.5138L13.5043 14.4114H13.6401C13.7087 14.4114 13.7427 14.3893 13.7427 14.3455L13.7829 14.2016H14.2068L14.1502 14.4114C14.1023 14.5864 13.9754 14.6777 13.7691 14.6866H13.4974L13.4962 15.0669C13.4912 15.1278 13.5458 15.1588 13.6583 15.1588H13.9137L13.8313 15.46H13.2188C13.0471 15.4682 12.963 15.3857 12.9647 15.2108L13.0037 14.1889Z" fill="white"/>
<path fill-rule="evenodd" clip-rule="evenodd" d="M6.82376 10.6472C6.75458 10.9889 6.59423 11.2514 6.34549 11.4377C6.09901 11.6209 5.7811 11.7128 5.39188 11.7128C5.02559 11.7128 4.75705 11.619 4.58569 11.4307C4.46684 11.297 4.40771 11.1271 4.40771 10.9217C4.40771 10.8368 4.4178 10.7455 4.43793 10.6472L4.85263 8.63147H5.47896L5.0699 10.6244C5.05731 10.6796 5.05229 10.7309 5.05295 10.7772C5.05229 10.8793 5.07743 10.9629 5.12837 11.0282C5.20257 11.1252 5.323 11.1734 5.49059 11.1734C5.68331 11.1734 5.84211 11.1259 5.96535 11.0301C6.08863 10.935 6.16911 10.8 6.20526 10.6244L6.61561 8.63147H7.23876L6.82376 10.6472" fill="white"/>
<path fill-rule="evenodd" clip-rule="evenodd" d="M9.45407 9.8543H9.9446L9.56036 11.6533H9.0708L9.45407 9.8543ZM9.60849 9.19885H10.1034L10.0109 9.63553H9.51608L9.60849 9.19885Z" fill="white"/>
<path fill-rule="evenodd" clip-rule="evenodd" d="M10.3788 11.5163C10.2505 11.3927 10.1857 11.226 10.1851 11.0143C10.1851 10.9781 10.1872 10.9369 10.192 10.8919C10.1967 10.8463 10.2027 10.8019 10.2112 10.7607C10.2693 10.4685 10.3932 10.2365 10.5841 10.0653C10.7746 9.89353 11.0045 9.80731 11.2736 9.80731C11.494 9.80731 11.6688 9.86944 11.7968 9.99368C11.9248 10.1186 11.9889 10.2872 11.9889 10.5015C11.9889 10.5382 11.9861 10.5807 11.9814 10.6263C11.9757 10.6726 11.9688 10.717 11.9609 10.7607C11.904 11.0485 11.7805 11.278 11.5896 11.446C11.3988 11.6152 11.1696 11.6995 10.9023 11.6995C10.6809 11.6995 10.5067 11.6387 10.3788 11.5163ZM11.3135 11.1601C11.4 11.0656 11.4619 10.9223 11.4997 10.7316C11.5053 10.7018 11.5103 10.6707 11.5135 10.6396C11.5166 10.6092 11.5179 10.5807 11.5179 10.5547C11.5179 10.4438 11.4899 10.3576 11.4336 10.2967C11.3777 10.2352 11.2981 10.2048 11.1953 10.2048C11.0595 10.2048 10.9488 10.2529 10.8621 10.3493C10.7746 10.4457 10.7127 10.5915 10.6737 10.7854C10.6683 10.8152 10.6639 10.845 10.6599 10.8742C10.6567 10.904 10.6558 10.9319 10.6564 10.9572C10.6564 11.0675 10.6844 11.1525 10.7407 11.2127C10.7966 11.2729 10.8758 11.3027 10.9799 11.3027C11.1164 11.3027 11.2271 11.2552 11.3135 11.1601Z" fill="white"/>
<path fill-rule="evenodd" clip-rule="evenodd" d="M15.1714 12.9198L15.2897 12.5001H15.8877L15.8619 12.6541C15.8619 12.6541 16.1675 12.5001 16.3876 12.5001C16.6077 12.5001 17.127 12.5001 17.127 12.5001L17.0095 12.9198H16.8932L16.3354 14.8988H16.4517L16.341 15.2919H16.2247L16.1763 15.4624H15.5972L15.6455 15.2919H14.5029L14.6143 14.8988H14.7287L15.2871 12.9198H15.1714ZM15.8166 12.9198L15.6644 13.4554C15.6644 13.4554 15.9248 13.3547 16.1493 13.3261C16.1989 13.1391 16.2637 12.9198 16.2637 12.9198L15.8166 12.9198ZM15.5939 13.7064L15.4412 14.2675C15.4412 14.2675 15.7298 14.1242 15.9279 14.1121C15.9851 13.8953 16.0424 13.7064 16.0424 13.7064L15.5939 13.7064ZM15.7059 14.8988L15.8204 14.4919H15.374L15.2589 14.8988H15.7059ZM17.1522 12.4742H17.7144L17.7383 12.6833C17.7346 12.7365 17.766 12.762 17.8326 12.762H17.932L17.8315 13.1163H17.4182C17.2604 13.1245 17.1793 13.0637 17.1718 12.9324L17.1522 12.4742ZM16.9875 13.2342H18.8086L18.7017 13.6146H18.1219L18.0225 13.9682H18.6017L18.4942 14.348H17.8491L17.7031 14.5705H18.0189L18.0918 15.0161C18.1005 15.0605 18.1395 15.082 18.2062 15.082H18.3042L18.2012 15.449H17.8541C17.6742 15.4579 17.5812 15.3971 17.5736 15.2659L17.4899 14.8589L17.2026 15.2919C17.1346 15.4142 17.0302 15.4713 16.8894 15.4624H16.3593L16.4624 15.0953H16.6278C16.6958 15.0953 16.7523 15.0649 16.8032 15.0034L17.2529 14.348H16.6731L16.7806 13.9682H17.4094L17.5094 13.6146H16.88L16.9875 13.2342Z" fill="white"/>
<path fill-rule="evenodd" clip-rule="evenodd" d="M7.40032 9.85363H7.84269L7.7921 10.1135L7.85559 10.0394C7.99899 9.88471 8.17316 9.80798 8.3788 9.80798C8.56494 9.80798 8.69918 9.86253 8.78346 9.97216C8.86644 10.0818 8.88908 10.2334 8.84983 10.428L8.60611 11.6539H8.15148L8.37156 10.5427C8.39423 10.428 8.38795 10.3424 8.35299 10.2872C8.31845 10.2321 8.25238 10.2048 8.15713 10.2048C8.04017 10.2048 7.94174 10.2416 7.86157 10.3145C7.78106 10.388 7.72795 10.4901 7.70184 10.62L7.49904 11.6539H7.04346L7.40032 9.85363" fill="white"/>
<path fill-rule="evenodd" clip-rule="evenodd" d="M12.4735 9.85363H12.9162L12.866 10.1135L12.9288 10.0394C13.0723 9.88471 13.2471 9.80798 13.4521 9.80798C13.6382 9.80798 13.7727 9.86253 13.8563 9.97216C13.9388 10.0818 13.9627 10.2334 13.9224 10.428L13.6797 11.6539H13.2244L13.4445 10.5427C13.4671 10.428 13.4609 10.3424 13.4263 10.2872C13.3904 10.2321 13.3256 10.2048 13.2307 10.2048C13.1137 10.2048 13.0157 10.2416 12.9345 10.3145C12.854 10.388 12.8006 10.4901 12.7755 10.62L12.5717 11.6539H12.1167L12.4735 9.85363" fill="white"/>
<path fill-rule="evenodd" clip-rule="evenodd" d="M14.6621 8.73798H15.9474C16.1945 8.73798 16.3857 8.79444 16.5171 8.90531C16.6479 9.01755 16.7134 9.17858 16.7134 9.38839V9.3947C16.7134 9.43461 16.7107 9.47964 16.707 9.52843C16.7007 9.57662 16.6925 9.6254 16.6819 9.67615C16.6253 9.95381 16.4938 10.177 16.2907 10.3462C16.0869 10.5148 15.8455 10.5998 15.5676 10.5998H14.8783L14.6652 11.6539H14.0684L14.6621 8.73798ZM14.9833 10.0927H15.555C15.704 10.0927 15.8222 10.0577 15.9084 9.98868C15.9939 9.91895 16.0505 9.81248 16.0819 9.66796C16.0869 9.64126 16.09 9.61721 16.0939 9.59503C16.0958 9.57414 16.0983 9.55316 16.0983 9.53294C16.0983 9.42957 16.0619 9.35478 15.9889 9.30787C15.9159 9.26028 15.8015 9.2375 15.643 9.2375H15.1575L14.9833 10.0927Z" fill="white"/>
<path fill-rule="evenodd" clip-rule="evenodd" d="M19.3848 12.0019C19.1961 12.4063 19.0163 12.6421 18.9107 12.7518C18.805 12.8602 18.5957 13.1125 18.0913 13.0935L18.1347 12.7848C18.5591 12.6529 18.7886 12.0589 18.9194 11.7959L18.7635 9.85868L19.0918 9.85425H19.3672L19.3968 11.0694L19.913 9.85425H20.4356L19.3848 12.0019" fill="white"/>
<path fill-rule="evenodd" clip-rule="evenodd" d="M17.9233 10.0007L17.7157 10.1446C17.4987 9.97351 17.3007 9.86763 16.9184 10.0464C16.3977 10.2898 15.9625 12.1567 17.3963 11.5417L17.478 11.6394L18.0421 11.654L18.4125 9.95761L17.9233 10.0007ZM17.6025 10.9281C17.5119 11.1975 17.3095 11.3757 17.1511 11.325C16.9926 11.2755 16.936 11.0156 17.0278 10.7456C17.1183 10.4755 17.3221 10.298 17.4793 10.3487C17.6377 10.3982 17.6949 10.6581 17.6025 10.9281Z" fill="white"/>
</svg>
