<svg width="24" height="24" viewBox="0 0 24 24" fill="none" xmlns="http://www.w3.org/2000/svg">
<path d="M20 12C20 9.87827 19.1571 7.84344 17.6569 6.34315C16.1566 4.84285 14.1217 4 12 4M20 12H4M20 12C20 12.7658 19.893 13.5062 19.691 14.2069M12 4C9.87827 4 7.84344 4.84285 6.34315 6.34315C4.84285 7.84344 4 9.87827 4 12M12 4C10.6284 4 8.41379 7.03448 8.41379 12C8.41379 12.7857 8.46897 13.5228 8.56828 14.2069M12 4C13.3716 4 15.5862 7.03448 15.5862 12C15.5862 12.7857 15.531 13.5228 15.4317 14.2069M4 12C4 12.7658 4.10703 13.5062 4.30897 14.2069M4.55172 17.2414L5.10345 20L6.48276 18.3448L7.86207 20L8.41379 17.2414M10.069 17.2414L10.6207 20L12 18.3448L13.3793 20L13.931 17.2414M15.5862 17.2414L16.1379 20L17.5172 18.3448L18.8966 20L19.4483 17.2414" stroke="black" stroke-width="1.5" stroke-linecap="round" stroke-linejoin="round"/>
</svg>
