<svg width="24" height="24" viewBox="0 0 24 24" fill="none" xmlns="http://www.w3.org/2000/svg">
<path d="M18.5455 4H5.45455C4.65091 4 4 4.65091 4 5.45455V18.5455C4 19.3491 4.65091 20 5.45455 20H18.5455C19.3491 20 20 19.3491 20 18.5455V5.45455C20 4.65091 19.3491 4 18.5455 4ZM9.05746 17.0909H6.912V10.1876H9.05746V17.0909ZM7.96291 9.20073C7.27127 9.20073 6.712 8.64 6.712 7.94982C6.712 7.25964 7.272 6.69964 7.96291 6.69964C8.65236 6.69964 9.21309 7.26036 9.21309 7.94982C9.21309 8.64 8.65236 9.20073 7.96291 9.20073ZM17.0938 17.0909H14.9498V13.7338C14.9498 12.9331 14.9353 11.9033 13.8349 11.9033C12.7185 11.9033 12.5469 12.7753 12.5469 13.6756V17.0909H10.4029V10.1876H12.4611V11.1309H12.4902C12.7767 10.5884 13.4764 10.016 14.52 10.016C16.6924 10.016 17.0938 11.4458 17.0938 13.3047V17.0909Z" fill="black"/>
</svg>
