<svg width="24" height="24" viewBox="0 0 24 24" fill="none" xmlns="http://www.w3.org/2000/svg"><path d="M11.613 3.661 C 11.521 3.716,11.404 3.828,11.353 3.911 C 11.262 4.057,11.260 4.086,11.247 5.240 C 11.233 6.534,11.245 6.632,11.451 6.867 C 11.818 7.285,12.443 7.180,12.684 6.660 C 12.747 6.524,12.758 6.396,12.759 5.789 L 12.760 5.078 12.850 5.097 C 12.900 5.108,13.075 5.137,13.240 5.163 C 13.943 5.271,14.974 5.664,15.641 6.078 C 17.144 7.010,18.216 8.440,18.698 10.152 C 18.871 10.768,18.930 11.241,18.930 12.000 C 18.930 13.140,18.749 13.959,18.267 15.007 C 17.661 16.319,16.451 17.551,15.099 18.230 C 14.538 18.512,13.699 18.776,13.020 18.886 C 12.607 18.952,11.392 18.952,10.980 18.886 C 9.517 18.649,8.260 18.028,7.206 17.020 C 5.421 15.312,4.685 12.868,5.225 10.443 C 5.328 9.982,5.447 9.627,5.681 9.082 C 5.778 8.856,5.804 8.744,5.790 8.620 C 5.719 7.990,5.033 7.708,4.553 8.112 C 4.345 8.287,3.955 9.255,3.765 10.068 C 3.479 11.289,3.479 12.711,3.765 13.932 C 4.489 17.030,6.970 19.511,10.068 20.235 C 11.289 20.521,12.711 20.521,13.932 20.235 C 16.368 19.666,18.473 17.990,19.580 15.740 C 19.992 14.903,20.250 14.064,20.383 13.132 C 20.464 12.565,20.464 11.435,20.383 10.868 C 20.030 8.395,18.682 6.273,16.600 4.911 C 15.303 4.063,13.666 3.559,12.208 3.560 C 11.823 3.561,11.763 3.571,11.613 3.661 M6.326 5.883 C 5.924 6.044,5.738 6.477,5.901 6.871 C 5.943 6.973,6.501 7.559,7.668 8.726 L 9.373 10.433 9.309 10.567 C 9.057 11.099,8.960 11.500,8.961 12.008 C 8.962 12.838,9.258 13.542,9.858 14.142 C 10.461 14.744,11.164 15.039,12.000 15.039 C 13.678 15.039,15.039 13.678,15.039 12.000 C 15.039 10.644,14.172 9.492,12.839 9.074 C 12.587 8.995,12.455 8.981,12.000 8.981 C 11.409 8.982,11.200 9.025,10.707 9.250 L 10.435 9.374 8.727 7.669 C 7.559 6.502,6.973 5.943,6.871 5.901 C 6.706 5.833,6.470 5.825,6.326 5.883 M12.649 10.608 C 12.942 10.745,13.255 11.057,13.392 11.351 C 13.488 11.554,13.500 11.628,13.500 12.000 C 13.500 12.372,13.488 12.446,13.392 12.649 C 12.945 13.605,11.665 13.829,10.918 13.082 C 10.626 12.790,10.505 12.506,10.487 12.072 C 10.458 11.376,10.794 10.841,11.429 10.575 C 11.628 10.492,11.713 10.480,12.040 10.489 C 12.354 10.499,12.460 10.519,12.649 10.608 " stroke="none" fill-rule="evenodd" fill="black"></path></svg>