<svg width="24" height="24" viewBox="0 0 24 24" fill="none" xmlns="http://www.w3.org/2000/svg"><path d="M16.912 2.816 C 16.556 2.962,16.310 3.199,16.150 3.547 C 16.016 3.837,16.023 4.340,16.163 4.640 C 16.361 5.062,16.782 5.381,17.212 5.436 C 17.665 5.494,18.065 5.359,18.383 5.043 C 18.610 4.818,18.698 4.651,18.762 4.328 C 18.852 3.869,18.704 3.428,18.348 3.091 C 17.959 2.724,17.398 2.616,16.912 2.816 M17.513 4.090 C 17.523 4.184,17.511 4.200,17.427 4.200 C 17.313 4.200,17.257 4.096,17.326 4.013 C 17.398 3.926,17.498 3.968,17.513 4.090 M12.670 4.483 C 12.496 4.575,12.337 4.798,12.299 5.004 C 12.255 5.249,12.344 5.469,12.591 5.728 L 12.816 5.964 8.574 10.212 C 6.241 12.548,4.267 14.552,4.186 14.665 C 3.980 14.956,3.778 15.380,3.653 15.788 C 3.555 16.107,3.544 16.201,3.543 16.780 C 3.541 17.328,3.554 17.466,3.632 17.740 C 3.992 19.006,4.994 20.008,6.260 20.368 C 6.534 20.446,6.672 20.459,7.220 20.457 C 7.799 20.456,7.893 20.445,8.212 20.347 C 8.620 20.222,9.044 20.020,9.335 19.814 C 9.448 19.733,11.452 17.759,13.788 15.426 L 18.036 11.184 18.272 11.409 C 18.433 11.562,18.562 11.648,18.680 11.680 C 19.233 11.829,19.731 11.335,19.596 10.772 C 19.552 10.589,19.405 10.435,16.526 7.550 C 14.862 5.884,13.445 4.493,13.375 4.460 C 13.196 4.375,12.853 4.386,12.670 4.483 M18.406 6.078 C 18.188 6.133,17.950 6.333,17.830 6.560 C 17.634 6.933,17.701 7.375,17.998 7.672 C 18.184 7.858,18.342 7.928,18.618 7.948 C 19.409 8.007,19.909 7.065,19.424 6.428 C 19.196 6.128,18.776 5.984,18.406 6.078 M15.440 8.580 L 16.979 10.120 16.100 11.000 L 15.221 11.880 12.120 11.880 L 9.020 11.880 11.440 9.460 C 12.771 8.129,13.869 7.040,13.880 7.040 C 13.891 7.040,14.593 7.733,15.440 8.580 M10.700 13.400 L 13.700 13.401 11.080 16.015 C 8.708 18.382,8.435 18.641,8.200 18.755 C 7.056 19.309,5.742 18.837,5.204 17.679 C 5.056 17.362,4.995 16.921,5.042 16.512 C 5.118 15.845,5.222 15.693,6.477 14.428 C 7.321 13.577,7.556 13.361,7.620 13.378 C 7.664 13.389,9.050 13.399,10.700 13.400 " stroke="none" fill-rule="evenodd" fill="black"></path></svg>