<svg width="24" height="24" viewBox="0 0 24 24" fill="none" xmlns="http://www.w3.org/2000/svg">
<path fill-rule="evenodd" clip-rule="evenodd" d="M7.2931 4.75C5.88859 4.75 4.75 5.88859 4.75 7.2931V16.7069C4.75 18.1114 5.88859 19.25 7.2931 19.25H16.7069C18.1114 19.25 19.25 18.1114 19.25 16.7069V7.2931C19.25 5.88859 18.1114 4.75 16.7069 4.75H7.2931ZM6.25 7.2931C6.25 6.71701 6.71701 6.25 7.2931 6.25H16.7069C17.283 6.25 17.75 6.71701 17.75 7.2931V16.7069C17.75 17.283 17.283 17.75 16.7069 17.75H7.2931C6.71701 17.75 6.25 17.283 6.25 16.7069V7.2931ZM9.58794 10.3218C9.28005 10.0447 8.80584 10.0697 8.52874 10.3776C8.25165 10.6855 8.27661 11.1597 8.58449 11.4368L10.2065 12.8965L8.58449 14.3563C8.27661 14.6334 8.25165 15.1076 8.52874 15.4155C8.80584 15.7234 9.28005 15.7484 9.58794 15.4713L11.8293 13.454C11.9874 13.3118 12.0776 13.1092 12.0776 12.8965C12.0776 12.6839 11.9874 12.4813 11.8293 12.3391L9.58794 10.3218Z" fill="#0E1438"/>
</svg>
