<svg width="24" height="24" viewBox="0 0 24 24" fill="none" xmlns="http://www.w3.org/2000/svg"><path d="M8.340 9.667 C 8.155 9.765,8.075 9.846,7.995 10.020 C 7.899 10.229,7.901 10.455,7.999 10.658 C 8.051 10.765,8.615 11.357,9.630 12.369 C 11.419 14.152,11.403 14.140,12.000 14.140 C 12.597 14.140,12.581 14.152,14.370 12.369 C 15.385 11.357,15.949 10.765,16.001 10.658 C 16.130 10.392,16.082 10.041,15.888 9.827 C 15.709 9.629,15.319 9.543,15.053 9.642 C 14.991 9.665,14.278 10.344,13.470 11.152 L 12.000 12.620 10.530 11.152 C 9.722 10.344,9.009 9.665,8.947 9.642 C 8.784 9.581,8.478 9.593,8.340 9.667 " stroke="none" fill-rule="evenodd" fill="black"></path></svg>