<svg width="24" height="24" viewBox="0 0 24 24" fill="none" xmlns="http://www.w3.org/2000/svg">
<path fill-rule="evenodd" clip-rule="evenodd" d="M9.57498 19.788L10.2084 13.0235H10.1508C9.64351 13.0236 9.22395 12.8402 8.8379 12.5063C8.45181 12.1725 8.19558 11.7099 8.11521 11.2016L9.31093 10.4172V10.4074C9.3109 9.87276 9.51427 9.35876 9.87859 8.9726C10.243 8.58639 10.7402 8.35792 11.2665 8.33478V8.33261H11.622V7.06966C11.8741 7.06967 12.118 7.16027 12.3106 7.3254C12.5031 7.49053 12.6317 7.71952 12.6738 7.97176H12.6887V7.06966C12.8782 7.06967 13.0643 7.1209 13.2277 7.21807C13.3913 7.31526 13.5263 7.45489 13.619 7.62261C13.7117 7.79034 13.7587 7.98006 13.7552 8.17233C13.7516 8.3646 13.6977 8.55244 13.599 8.71652C13.9201 8.92953 14.1838 9.22044 14.3664 9.56295C14.5489 9.90542 14.6444 10.2887 14.6442 10.678V18.842C14.6442 18.9617 14.6911 19.0764 14.7744 19.1609C14.8578 19.2456 14.9708 19.293 15.0887 19.293H15.6158C14.8755 19.6744 14.069 19.9422 13.2183 20.0742C17.0583 19.4787 20 16.1124 20 12.0488C20 7.56493 16.4182 3.92999 12 3.92999C7.58171 3.92999 4 7.56493 4 12.0488C4 15.6749 6.34222 18.7457 9.57498 19.788ZM10.5159 10.6155C10.4701 10.662 10.4444 10.725 10.4443 10.7907L10.4219 11.0391H10.9107C11.0404 11.0391 11.1648 10.9868 11.2564 10.8937C11.3481 10.8006 11.3996 10.6744 11.3996 10.5428H10.6885C10.6238 10.5429 10.5617 10.5691 10.5159 10.6155Z" fill="black"/>
</svg>
