<svg width="24" height="24" viewBox="0 0 24 24" fill="none" xmlns="http://www.w3.org/2000/svg"><path d="M5.494 4.444 C 5.139 4.547,4.722 4.903,4.548 5.250 C 4.490 5.365,4.424 5.577,4.402 5.720 C 4.345 6.078,4.345 17.922,4.402 18.280 C 4.458 18.633,4.610 18.919,4.877 19.173 C 5.145 19.428,5.373 19.542,5.720 19.598 C 6.079 19.655,17.921 19.655,18.280 19.598 C 18.627 19.542,18.855 19.428,19.123 19.173 C 19.390 18.919,19.542 18.633,19.598 18.280 C 19.655 17.922,19.655 6.078,19.598 5.720 C 19.576 5.577,19.511 5.367,19.454 5.254 C 19.324 4.995,19.005 4.682,18.720 4.534 L 18.500 4.420 12.060 4.413 C 8.237 4.409,5.569 4.422,5.494 4.444 M18.110 9.226 L 18.120 12.552 17.790 12.839 C 16.747 13.747,15.800 14.120,14.540 14.119 C 13.556 14.118,12.694 13.799,11.761 13.088 C 11.597 12.963,11.137 12.543,10.740 12.157 C 10.123 11.556,9.974 11.431,9.719 11.306 C 8.972 10.939,8.127 10.961,7.433 11.365 C 7.330 11.425,6.943 11.702,6.573 11.980 L 5.900 12.485 5.890 9.233 C 5.884 7.444,5.888 5.957,5.898 5.930 C 5.914 5.890,7.157 5.882,12.009 5.890 L 18.100 5.900 18.110 9.226 M14.160 6.942 C 13.039 7.183,12.194 8.327,12.297 9.464 C 12.354 10.096,12.557 10.527,13.015 10.985 C 13.532 11.502,14.002 11.697,14.720 11.695 C 15.258 11.693,15.658 11.571,16.067 11.284 C 16.727 10.820,17.068 10.210,17.108 9.420 C 17.146 8.671,16.946 8.146,16.420 7.618 C 15.791 6.985,15.026 6.756,14.160 6.942 M15.112 8.476 C 15.288 8.567,15.445 8.728,15.540 8.916 C 15.647 9.130,15.612 9.578,15.469 9.793 C 15.310 10.033,15.094 10.163,14.808 10.189 C 14.511 10.216,14.318 10.154,14.109 9.965 C 13.733 9.626,13.697 9.120,14.019 8.697 C 14.235 8.414,14.778 8.305,15.112 8.476 M8.989 12.621 C 9.074 12.657,9.395 12.936,9.758 13.292 C 10.444 13.963,10.837 14.293,11.380 14.651 C 12.755 15.556,14.292 15.837,15.925 15.481 C 16.564 15.342,17.385 15.002,17.860 14.682 C 17.948 14.622,18.043 14.560,18.070 14.544 C 18.110 14.521,18.120 14.887,18.120 16.318 L 18.120 18.120 12.000 18.120 L 5.880 18.120 5.880 16.245 L 5.880 14.370 6.978 13.546 C 7.583 13.093,8.145 12.685,8.228 12.641 C 8.412 12.542,8.777 12.533,8.989 12.621 " stroke="none" fill-rule="evenodd" fill="black"></path></svg>