<svg width="24" height="24" viewBox="0 0 24 24" fill="none" xmlns="http://www.w3.org/2000/svg">
<path d="M9.64712 6.71005C9.60904 6.70969 9.57052 6.71313 9.53168 6.72069C9.46885 6.73303 7.1454 7.13418 5.54071 9.06193C4.1819 10.6913 4.07971 12.3053 4.00081 13.4676C3.99856 13.5004 4.00148 13.532 4.00361 13.564C4.00348 13.5773 4.00193 13.5903 4.00193 13.6037C4.00193 15.2802 5.09838 17.2918 7.77268 17.2921C9.81806 17.2921 11.3927 15.7722 11.3927 13.6037C11.3927 12.1735 10.7499 9.91538 7.85785 9.91538C7.29012 9.91538 6.77223 10.0154 6.31122 10.1939C6.38372 10.0887 6.45966 9.98315 6.54154 9.87727C7.35034 8.83349 8.62321 8.11518 9.77545 7.84032C10.0724 7.76888 10.2632 7.47588 10.2041 7.17347C10.1509 6.90159 9.91372 6.71251 9.64712 6.71005ZM18.2544 6.71005C18.2164 6.70969 18.1778 6.71313 18.139 6.72069C18.0762 6.73303 15.7527 7.13418 14.148 9.06193C12.7892 10.6913 12.687 12.3053 12.6081 13.4676C12.6059 13.5004 12.6088 13.532 12.6109 13.564C12.6108 13.5773 12.6092 13.5903 12.6092 13.6037C12.6092 15.2802 13.7057 17.2918 16.38 17.2921C18.4254 17.2921 20 15.7722 20 13.6037C20 12.1735 19.3572 9.91538 16.4652 9.91538C15.8974 9.91538 15.3796 10.0154 14.9185 10.1939C14.991 10.0887 15.067 9.98315 15.1489 9.87727C15.9577 8.83349 17.2305 8.11518 18.3828 7.84032C18.6797 7.76888 18.8706 7.47588 18.8115 7.17347C18.7582 6.90159 18.521 6.71251 18.2544 6.71005Z" fill="black"/>
</svg>
