<svg width="24" height="24" viewBox="0 0 24 24" fill="none" xmlns="http://www.w3.org/2000/svg"><path d="M12.039 2.899 C 11.939 2.931,11.780 3.024,11.684 3.106 C 11.560 3.212,10.540 4.710,8.119 8.341 C 6.254 11.139,4.686 13.508,4.634 13.604 C 4.518 13.824,4.509 14.291,4.616 14.534 C 4.728 14.786,5.020 15.067,5.266 15.159 C 5.475 15.237,5.568 15.240,7.940 15.240 L 10.397 15.240 10.408 17.750 L 10.420 20.260 10.532 20.489 C 10.873 21.182,11.749 21.379,12.320 20.891 C 12.438 20.789,13.509 19.216,15.881 15.659 C 17.746 12.861,19.314 10.492,19.366 10.396 C 19.482 10.176,19.491 9.709,19.384 9.466 C 19.272 9.214,18.980 8.933,18.734 8.841 C 18.525 8.763,18.432 8.760,16.060 8.760 L 13.603 8.760 13.592 6.250 C 13.580 3.795,13.578 3.736,13.496 3.558 C 13.299 3.132,12.933 2.878,12.480 2.854 C 12.324 2.846,12.147 2.864,12.039 2.899 M12.185 9.560 C 12.285 9.774,12.518 10.014,12.740 10.134 C 12.897 10.219,12.939 10.220,15.290 10.240 L 17.680 10.260 14.800 14.580 L 11.920 18.900 11.920 16.812 C 11.920 14.822,11.916 14.713,11.840 14.510 C 11.750 14.269,11.505 13.998,11.260 13.866 C 11.103 13.781,11.059 13.780,8.710 13.760 L 6.320 13.740 9.190 9.435 L 12.060 5.130 12.080 7.255 C 12.099 9.313,12.103 9.386,12.185 9.560 " stroke="none" fill-rule="evenodd" fill="black"></path></svg>