<svg width="24" height="24" viewBox="0 0 24 24" fill="none" xmlns="http://www.w3.org/2000/svg">
<path fill-rule="evenodd" clip-rule="evenodd" d="M12.3068 4.06562C12.1116 3.97813 11.8884 3.97813 11.6932 4.06562L4.44323 7.31562C4.18999 7.42914 4.02014 7.67321 4.00168 7.95011L4.75002 8C4.00168 7.95011 4.00166 7.95041 4.00164 7.95076L4.00158 7.95166L4.00141 7.95425L4.0009 7.96247L3.99925 7.99094C3.99792 8.01517 3.99615 8.0498 3.99424 8.09415C3.99043 8.18283 3.98607 8.31046 3.98351 8.4715C3.97841 8.79335 3.98049 9.24992 4.00884 9.79665C4.06531 10.8858 4.22699 12.3534 4.65448 13.8332C5.08048 15.3078 5.78514 16.8458 6.96187 18.0225C8.1581 19.2188 9.80236 20 12 20C14.1976 20 15.8419 19.2188 17.0381 18.0225C18.2149 16.8458 18.9195 15.3078 19.3455 13.8332C19.773 12.3534 19.9347 10.8858 19.9912 9.79665C20.0195 9.24992 20.0216 8.79335 20.0165 8.4715C20.014 8.31046 20.0096 8.18283 20.0058 8.09415C20.0039 8.0498 20.0021 8.01517 20.0008 7.99094L19.9991 7.96247L19.9986 7.95425L19.9984 7.95166L19.9984 7.95076C19.9984 7.95041 19.9983 7.95011 19.25 8L19.9983 7.95011C19.9799 7.67321 19.81 7.42914 19.5568 7.31562L12.3068 4.06562ZM5.48333 8.4953L5.48336 8.49317L12 5.57191L18.5167 8.49317L18.5167 8.4953C18.5214 8.78868 18.5195 9.21101 18.4932 9.71898C18.4403 10.7392 18.2895 12.0841 17.9045 13.4168C17.518 14.7547 16.9101 16.0292 15.9775 16.9619C15.0643 17.875 13.8024 18.5 12 18.5C10.1977 18.5 8.93567 17.875 8.02253 16.9619C7.08989 16.0292 6.48206 14.7547 6.09555 13.4168C5.71055 12.0841 5.55973 10.7392 5.50683 9.71898C5.48049 9.21101 5.47867 8.78868 5.48333 8.4953ZM14.858 10.1891C15.1005 9.85332 15.0249 9.38451 14.6891 9.14199C14.3533 8.89947 13.8845 8.97509 13.642 9.31088L10.9577 13.0277L10.3262 12.2699C10.061 11.9517 9.58807 11.9087 9.26986 12.1738C8.95165 12.439 8.90866 12.9119 9.17383 13.2301L10.4238 14.7301C10.5722 14.9081 10.7944 15.0076 11.026 14.9995C11.2575 14.9915 11.4724 14.8769 11.608 14.6891L14.858 10.1891Z" fill="black"/>
</svg>
