<svg width="24" height="24" viewBox="0 0 24 24" fill="none" xmlns="http://www.w3.org/2000/svg"><path d="M10.905 6.283 C 9.682 6.390,8.571 6.925,7.689 7.830 C 6.114 9.447,5.801 11.940,6.926 13.903 C 7.573 15.032,8.612 15.873,9.833 16.256 C 10.576 16.489,11.519 16.553,12.260 16.421 C 12.917 16.303,13.704 15.988,14.200 15.645 L 14.420 15.492 15.520 16.583 C 16.480 17.535,16.642 17.679,16.795 17.719 C 17.366 17.870,17.870 17.366,17.719 16.795 C 17.679 16.642,17.535 16.480,16.583 15.520 L 15.492 14.420 15.645 14.200 C 15.989 13.703,16.304 12.915,16.420 12.260 C 16.503 11.792,16.503 10.965,16.420 10.500 C 16.337 10.029,16.116 9.375,15.916 9.003 C 15.411 8.066,14.591 7.261,13.663 6.791 C 12.879 6.394,11.834 6.201,10.905 6.283 M12.372 7.897 C 14.715 8.589,15.721 11.275,14.409 13.337 C 13.774 14.335,12.739 14.926,11.520 14.986 C 9.865 15.067,8.393 14.006,7.893 12.372 C 7.796 12.053,7.786 11.960,7.786 11.380 C 7.786 10.797,7.795 10.708,7.895 10.382 C 8.311 9.020,9.394 8.052,10.786 7.799 C 10.893 7.780,11.214 7.771,11.500 7.778 C 11.913 7.790,12.092 7.814,12.372 7.897 " stroke="none" fill-rule="evenodd" fill="black"></path></svg>