<svg width="24" height="24" viewBox="0 0 24 24" fill="none" xmlns="http://www.w3.org/2000/svg">
<path fill-rule="evenodd" clip-rule="evenodd" d="M14.2603 8.20041C13.9568 7.91856 13.4823 7.93613 13.2004 8.23966C12.9186 8.5432 12.9361 9.01775 13.2397 9.2996L15.3401 11.25H6.75C6.33579 11.25 6 11.5858 6 12C6 12.4142 6.33579 12.75 6.75 12.75H15.3401L13.2397 14.7004C12.9361 14.9823 12.9186 15.4568 13.2004 15.7603C13.4823 16.0639 13.9568 16.0815 14.2603 15.7996L17.7585 12.5513C17.907 12.4143 18 12.218 18 12C18 11.782 17.907 11.5858 17.7586 11.4488L14.2603 8.20041Z" fill="#0E1438"/>
</svg>
