<svg width="24" height="24" viewBox="0 0 24 24" fill="none" xmlns="http://www.w3.org/2000/svg">
<path d="M9.1262 9.12618C9.01066 9.2417 8.919 9.37884 8.85647 9.52979C8.79394 9.68073 8.76176 9.84252 8.76176 10.0059C8.76176 10.1693 8.79394 10.3311 8.85647 10.482C8.919 10.633 9.01066 10.7701 9.1262 10.8856L10.8904 12.6498L12.6498 10.8903L10.8857 9.12618C10.7701 9.01064 10.633 8.91898 10.482 8.85645C10.3311 8.79392 10.1693 8.76173 10.0059 8.76173C9.84254 8.76173 9.68076 8.79392 9.52981 8.85645C9.37887 8.91898 9.24172 9.01064 9.1262 9.12618Z" fill="black"/>
<path d="M4 9.66168H5.88723H4ZM5.65841 5.6584L6.99284 6.99283L5.65841 5.6584ZM9.6617 4V5.88723V4ZM13.665 5.6584L12.3306 6.99283L13.665 5.6584ZM6.99284 12.3305L5.65841 13.665L6.99284 12.3305Z" fill="black"/>
<path d="M4 9.66168H5.88723M5.65841 5.6584L6.99284 6.99283M9.6617 4V5.88723M13.665 5.6584L12.3306 6.99283M6.99284 12.3305L5.65841 13.665M9.12256 9.12261C9.60645 8.63872 10.3911 8.63878 10.875 9.12275L19.637 17.8847C20.121 18.3686 20.121 19.1532 19.6371 19.6371C19.1532 20.121 18.3686 20.121 17.8846 19.637L9.1227 10.8751C8.63873 10.3911 8.63867 9.6065 9.12256 9.12261ZM9.1262 9.12618C9.01066 9.2417 8.91901 9.37884 8.85647 9.52979C8.79394 9.68073 8.76176 9.84252 8.76176 10.0059C8.76176 10.1693 8.79394 10.3311 8.85647 10.482C8.91901 10.633 9.01066 10.7701 9.1262 10.8856L10.8904 12.6498L12.6498 10.8903L10.8857 9.12618C10.7701 9.01064 10.633 8.91898 10.482 8.85645C10.3311 8.79392 10.1693 8.76173 10.0059 8.76173C9.84254 8.76173 9.68076 8.79392 9.52981 8.85645C9.37887 8.91898 9.24172 9.01064 9.1262 9.12618Z" stroke="black" stroke-width="1.5" stroke-miterlimit="10" stroke-linecap="round"/>
</svg>
