<svg width="24" height="24" viewBox="0 0 24 24" fill="none" xmlns="http://www.w3.org/2000/svg"><path d="M11.313 3.062 C 9.966 3.272,8.768 4.151,8.145 5.389 L 8.000 5.678 5.747 5.689 L 3.494 5.700 3.353 5.796 C 2.975 6.056,2.891 6.549,3.166 6.899 C 3.342 7.123,3.522 7.173,4.210 7.192 C 4.828 7.209,4.840 7.211,4.840 7.298 C 4.840 7.347,5.029 10.315,5.260 13.895 C 5.553 18.431,5.697 20.443,5.735 20.532 C 5.804 20.696,5.984 20.876,6.149 20.946 C 6.340 21.027,17.660 21.027,17.851 20.946 C 18.016 20.876,18.196 20.696,18.265 20.532 C 18.303 20.443,18.447 18.431,18.740 13.895 C 18.971 10.315,19.160 7.347,19.160 7.298 C 19.160 7.211,19.172 7.209,19.790 7.192 C 20.337 7.177,20.442 7.164,20.586 7.089 C 21.107 6.818,21.139 6.134,20.647 5.796 L 20.506 5.700 18.253 5.689 L 16.000 5.678 15.855 5.389 C 15.547 4.777,15.125 4.274,14.581 3.869 C 13.634 3.165,12.481 2.880,11.313 3.062 M12.695 4.599 C 13.188 4.725,13.609 4.967,13.980 5.339 L 14.300 5.660 13.150 5.671 C 12.518 5.676,11.483 5.676,10.850 5.671 L 9.700 5.660 10.020 5.339 C 10.386 4.973,10.809 4.726,11.289 4.601 C 11.689 4.496,12.289 4.495,12.695 4.599 M17.640 7.350 C 17.641 7.580,16.878 19.413,16.859 19.470 C 16.835 19.543,7.165 19.543,7.141 19.470 C 7.122 19.413,6.359 7.580,6.360 7.350 L 6.360 7.200 12.000 7.200 L 17.640 7.200 17.640 7.350 M9.660 10.223 C 9.480 10.317,9.396 10.403,9.315 10.580 C 9.246 10.730,9.242 10.902,9.242 13.340 C 9.242 15.794,9.246 15.949,9.317 16.105 C 9.563 16.648,10.341 16.676,10.642 16.152 L 10.740 15.980 10.740 13.340 L 10.740 10.700 10.634 10.520 C 10.494 10.281,10.278 10.160,9.995 10.160 C 9.877 10.160,9.726 10.189,9.660 10.223 M13.619 10.255 C 13.531 10.309,13.414 10.432,13.359 10.527 L 13.260 10.700 13.260 13.340 L 13.260 15.980 13.358 16.152 C 13.659 16.676,14.437 16.648,14.683 16.105 C 14.754 15.949,14.758 15.794,14.758 13.340 C 14.758 10.417,14.770 10.534,14.459 10.296 C 14.335 10.202,14.262 10.180,14.044 10.169 C 13.820 10.158,13.756 10.171,13.619 10.255 " stroke="none" fill-rule="evenodd"></path></svg>