<svg width="24" height="24" viewBox="0 0 24 24" fill="none" xmlns="http://www.w3.org/2000/svg"><path d="M10.880 3.616 C 10.376 3.685,10.104 3.742,9.604 3.885 C 7.854 4.383,6.122 5.613,5.088 7.093 L 4.925 7.327 4.912 6.533 C 4.901 5.777,4.896 5.734,4.807 5.609 C 4.682 5.435,4.508 5.351,4.269 5.351 C 4.046 5.351,3.914 5.427,3.769 5.641 L 3.678 5.775 3.689 7.658 C 3.700 9.468,3.703 9.544,3.780 9.649 C 3.824 9.710,3.934 9.796,4.025 9.841 C 4.185 9.920,4.246 9.922,6.012 9.911 C 7.789 9.900,7.837 9.898,7.947 9.816 C 8.328 9.534,8.336 9.019,7.964 8.771 C 7.832 8.683,7.800 8.680,6.854 8.680 C 6.318 8.680,5.880 8.672,5.880 8.662 C 5.880 8.614,6.185 8.133,6.393 7.854 C 7.431 6.457,9.036 5.462,10.743 5.155 C 11.304 5.055,12.454 5.035,12.980 5.116 C 16.032 5.591,18.358 7.877,18.864 10.901 C 18.954 11.440,18.954 12.559,18.864 13.096 C 18.622 14.541,18.009 15.764,17.001 16.815 C 14.493 19.426,10.391 19.679,7.593 17.395 C 6.642 16.618,5.956 15.681,5.500 14.532 C 5.292 14.010,5.095 13.840,4.700 13.840 C 4.390 13.840,4.140 14.006,4.022 14.290 C 3.926 14.518,3.947 14.684,4.123 15.129 C 5.258 17.995,7.890 20.018,10.980 20.401 C 11.511 20.467,12.623 20.457,13.140 20.381 C 14.690 20.156,16.132 19.531,17.320 18.571 C 17.678 18.282,18.430 17.516,18.686 17.180 C 19.601 15.979,20.170 14.622,20.383 13.132 C 20.464 12.565,20.464 11.435,20.383 10.868 C 20.170 9.377,19.599 8.016,18.685 6.820 C 18.585 6.688,18.331 6.402,18.121 6.184 C 16.813 4.825,15.268 3.999,13.400 3.660 C 12.899 3.569,11.417 3.543,10.880 3.616 M11.700 7.775 C 11.529 7.855,11.402 7.987,11.316 8.176 C 11.247 8.328,11.242 8.471,11.241 10.200 C 11.241 11.409,11.256 12.116,11.284 12.220 C 11.320 12.355,11.569 12.623,12.893 13.953 C 13.755 14.818,14.514 15.555,14.580 15.590 C 14.745 15.679,15.066 15.676,15.252 15.584 C 15.560 15.432,15.731 15.054,15.642 14.720 C 15.599 14.559,15.445 14.391,14.177 13.119 L 12.760 11.699 12.760 10.017 L 12.760 8.336 12.661 8.138 C 12.528 7.873,12.339 7.748,12.046 7.732 C 11.910 7.724,11.772 7.741,11.700 7.775 " stroke="none" fill-rule="evenodd" fill="black"></path></svg>