<svg width="24" height="24" viewBox="0 0 24 24" fill="none" xmlns="http://www.w3.org/2000/svg"><path d="M5.494 4.444 C 5.140 4.546,4.722 4.902,4.548 5.250 C 4.380 5.584,4.355 5.893,4.368 7.443 C 4.380 8.845,4.381 8.862,4.474 9.023 C 4.751 9.507,5.444 9.534,5.750 9.072 L 5.860 8.906 5.880 7.403 L 5.900 5.900 7.403 5.880 L 8.906 5.860 9.072 5.750 C 9.164 5.689,9.275 5.569,9.319 5.482 C 9.415 5.295,9.426 4.967,9.344 4.808 C 9.279 4.685,9.102 4.511,8.973 4.445 C 8.865 4.390,5.685 4.388,5.494 4.444 M15.020 4.446 C 14.891 4.518,14.717 4.691,14.656 4.808 C 14.574 4.967,14.585 5.295,14.681 5.482 C 14.725 5.569,14.836 5.689,14.928 5.750 L 15.094 5.860 16.597 5.880 L 18.100 5.900 18.120 7.403 L 18.140 8.906 18.250 9.072 C 18.556 9.534,19.249 9.507,19.526 9.023 C 19.619 8.862,19.620 8.845,19.632 7.443 C 19.645 5.898,19.619 5.583,19.454 5.254 C 19.324 4.995,19.005 4.681,18.720 4.534 L 18.500 4.420 16.800 4.410 C 15.597 4.403,15.077 4.414,15.020 4.446 M9.549 8.657 C 9.127 8.831,8.806 9.158,8.633 9.594 C 8.545 9.815,8.542 9.859,8.528 11.749 C 8.520 12.863,8.531 13.815,8.553 14.002 C 8.648 14.787,9.189 15.344,9.953 15.443 C 10.304 15.488,13.701 15.488,14.054 15.442 C 14.599 15.372,15.086 15.019,15.307 14.535 C 15.466 14.188,15.487 13.832,15.472 11.749 C 15.458 9.859,15.455 9.815,15.367 9.594 C 15.191 9.152,14.842 8.801,14.419 8.643 C 14.204 8.563,14.126 8.560,11.988 8.561 L 9.780 8.562 9.549 8.657 M13.940 12.000 L 13.940 13.940 12.000 13.940 L 10.060 13.940 10.050 12.040 C 10.044 10.995,10.048 10.117,10.058 10.090 C 10.074 10.050,10.485 10.041,12.009 10.050 L 13.940 10.060 13.940 12.000 M4.732 14.707 C 4.641 14.765,4.525 14.887,4.474 14.977 C 4.381 15.138,4.380 15.155,4.368 16.557 C 4.355 18.064,4.381 18.410,4.529 18.720 C 4.649 18.971,4.999 19.327,5.250 19.452 C 5.584 19.620,5.893 19.645,7.443 19.632 C 8.845 19.620,8.862 19.619,9.023 19.526 C 9.507 19.249,9.534 18.556,9.072 18.250 L 8.906 18.140 7.393 18.128 L 5.880 18.116 5.880 16.651 C 5.880 15.234,5.877 15.179,5.794 15.008 C 5.607 14.621,5.090 14.474,4.732 14.707 M18.474 14.715 C 18.353 14.792,18.263 14.890,18.206 15.008 C 18.123 15.179,18.120 15.234,18.120 16.651 L 18.120 18.116 16.607 18.128 L 15.094 18.140 14.928 18.250 C 14.466 18.556,14.493 19.249,14.977 19.526 C 15.138 19.619,15.155 19.620,16.557 19.632 C 18.107 19.645,18.416 19.620,18.750 19.452 C 19.001 19.327,19.351 18.971,19.471 18.720 C 19.619 18.410,19.645 18.064,19.632 16.557 C 19.620 15.155,19.619 15.138,19.526 14.977 C 19.310 14.599,18.841 14.483,18.474 14.715 " stroke="none" fill-rule="evenodd" fill="black"></path></svg>