<svg width="24" height="24" viewBox="0 0 24 24" fill="none" xmlns="http://www.w3.org/2000/svg"><path d="M6.025 3.778 C 5.828 3.849,5.650 4.017,5.556 4.220 C 5.485 4.374,5.482 4.657,5.482 11.600 C 5.482 18.498,5.485 18.827,5.555 18.980 C 5.648 19.185,5.875 19.385,6.077 19.439 C 6.187 19.469,7.896 19.479,11.608 19.471 L 16.980 19.460 17.260 19.366 C 17.771 19.195,18.075 19.009,18.445 18.642 C 18.738 18.351,18.817 18.243,18.971 17.920 C 19.071 17.711,19.177 17.441,19.206 17.320 C 19.288 16.988,19.286 6.200,19.204 5.880 C 19.034 5.212,18.601 4.579,18.065 4.215 C 17.856 4.073,17.386 3.861,17.140 3.797 C 16.832 3.717,6.245 3.699,6.025 3.778 M16.831 5.421 C 17.127 5.509,17.357 5.701,17.500 5.979 L 17.620 6.214 17.620 11.597 L 17.620 16.980 17.535 17.164 C 17.427 17.398,17.198 17.627,16.964 17.735 C 16.780 17.820,16.778 17.820,11.950 17.831 L 7.120 17.841 7.120 11.601 L 7.120 5.360 11.873 5.360 C 16.016 5.360,16.652 5.368,16.831 5.421 M11.720 7.263 C 11.292 7.374,10.845 7.634,10.514 7.963 C 10.264 8.212,10.175 8.336,10.028 8.644 C 9.806 9.108,9.746 9.357,9.747 9.820 C 9.751 11.796,11.849 13.051,13.612 12.132 C 14.040 11.909,14.497 11.439,14.714 11.000 C 15.353 9.704,14.886 8.215,13.616 7.498 C 13.128 7.222,12.280 7.117,11.720 7.263 M12.929 8.550 C 13.209 8.675,13.490 8.959,13.623 9.251 C 13.717 9.457,13.737 9.555,13.739 9.821 C 13.740 10.104,13.725 10.173,13.610 10.407 C 13.458 10.715,13.241 10.926,12.925 11.075 C 12.736 11.163,12.646 11.180,12.360 11.178 C 11.926 11.176,11.656 11.057,11.365 10.738 C 11.085 10.432,10.987 10.156,11.009 9.740 C 11.041 9.138,11.362 8.714,11.954 8.493 C 12.167 8.414,12.691 8.444,12.929 8.550 M10.088 13.947 C 9.730 14.123,9.634 14.578,9.887 14.900 C 10.061 15.120,10.055 15.120,12.383 15.120 C 14.495 15.120,14.532 15.119,14.680 15.035 C 14.862 14.933,15.000 14.702,15.000 14.500 C 15.000 14.298,14.862 14.067,14.680 13.965 C 14.531 13.881,14.496 13.880,12.375 13.881 C 10.469 13.882,10.205 13.889,10.088 13.947 " stroke="none" fill-rule="evenodd"></path></svg>