<svg width="24" height="24" viewBox="0 0 24 24" fill="none" xmlns="http://www.w3.org/2000/svg">
<path fill-rule="evenodd" clip-rule="evenodd" d="M11.25 5.5C10.5596 5.5 10 6.05964 10 6.75V7H14V6.75C14 6.05964 13.4404 5.5 12.75 5.5H11.25ZM15.5 7V6.75C15.5 5.23122 14.2688 4 12.75 4H11.25C9.73122 4 8.5 5.23122 8.5 6.75V7H6.25H5.25C4.83579 7 4.5 7.33579 4.5 7.75C4.5 8.16421 4.83579 8.5 5.25 8.5H5.56239L6.34397 17.4882C6.46754 18.9093 7.65719 20 9.08363 20H14.9164C16.3428 20 17.5325 18.9093 17.656 17.4882L18.4376 8.5H18.75C19.1642 8.5 19.5 8.16421 19.5 7.75C19.5 7.33579 19.1642 7 18.75 7H17.75H15.5ZM16.932 8.5H14.75H9.25H7.06805L7.83833 17.3583C7.8945 18.0042 8.43525 18.5 9.08363 18.5H14.9164C15.5648 18.5 16.1055 18.0042 16.1617 17.3583L16.932 8.5ZM10.25 10C10.6642 10 11 10.3358 11 10.75V16.25C11 16.6642 10.6642 17 10.25 17C9.83579 17 9.5 16.6642 9.5 16.25V10.75C9.5 10.3358 9.83579 10 10.25 10ZM14.5 10.75C14.5 10.3358 14.1642 10 13.75 10C13.3358 10 13 10.3358 13 10.75V16.25C13 16.6642 13.3358 17 13.75 17C14.1642 17 14.5 16.6642 14.5 16.25V10.75Z" fill="#2D2D2D"/>
</svg>
