<svg width="24" height="24" viewBox="0 0 24 24" fill="none" xmlns="http://www.w3.org/2000/svg">
<path d="M17.0343 6.02741C17.2432 5.48772 17.8351 5.19176 18.4097 5.40067C18.9493 5.60958 19.2627 6.20151 19.0538 6.75861L14.9452 17.7962C14.893 18.1618 14.6318 18.4751 14.2488 18.6144C14.1095 18.6492 14.0051 18.6666 13.8658 18.6666C13.7439 18.6666 13.6221 18.6492 13.5002 18.6144C13.4306 18.5796 13.3435 18.5448 13.2913 18.51C13.2739 18.4926 13.2565 18.4925 13.2391 18.4751C13.2391 18.4751 13.2217 18.4751 13.2217 18.4577C13.0824 18.3533 12.9779 18.2314 12.9083 18.0747L12.8909 18.0225C12.8909 18.0051 12.8735 17.9877 12.8735 17.9703L10.4187 11.3199L8.73002 15.916C8.67779 16.2816 8.41665 16.6123 8.03364 16.7516C7.87695 16.7864 7.7725 16.8038 7.63322 16.8038C7.581 16.8038 7.52877 16.8038 7.47654 16.7864C7.4069 16.769 7.33726 16.769 7.28504 16.7516C7.2154 16.7168 7.12835 16.682 7.07612 16.6472C7.05871 16.6472 7.05871 16.6297 7.04131 16.6297C7.0239 16.6297 7.02389 16.6123 7.00648 16.6123C6.86721 16.5079 6.76275 16.386 6.69312 16.2293L6.67571 16.1771V16.1597C6.67571 16.1423 6.6583 16.1423 6.6583 16.1249L4.56916 10.4842C4.36025 9.94453 4.6388 9.3352 5.21332 9.12629C5.75301 8.91737 6.37975 9.19592 6.58866 9.75302L7.65063 12.643L9.40899 7.89022C9.56567 7.4898 9.94868 7.21125 10.3665 7.19384C10.8192 7.15902 11.2718 7.42016 11.4459 7.89022L13.9006 14.5406L17.0343 6.02741Z" fill="black"/>
</svg>
