<svg width="24" height="24" viewBox="0 0 24 24" fill="none" xmlns="http://www.w3.org/2000/svg"><path d="M11.400 3.585 C 9.692 3.912,8.470 5.126,8.181 6.783 C 7.897 8.409,8.721 10.062,10.200 10.836 C 10.409 10.945,10.742 11.084,10.940 11.144 C 11.270 11.245,11.357 11.254,11.980 11.257 C 12.781 11.260,13.039 11.204,13.706 10.880 C 15.227 10.141,16.109 8.438,15.821 6.795 C 15.554 5.268,14.515 4.120,13.000 3.678 C 12.764 3.610,12.572 3.588,12.100 3.579 C 11.770 3.572,11.455 3.575,11.400 3.585 M12.500 5.100 C 13.358 5.280,14.099 5.999,14.299 6.844 C 14.493 7.671,14.257 8.507,13.660 9.100 C 12.725 10.028,11.268 10.028,10.339 9.100 C 9.863 8.624,9.642 8.085,9.641 7.398 C 9.639 6.739,9.851 6.229,10.320 5.757 C 10.912 5.162,11.685 4.929,12.500 5.100 M11.412 12.325 C 8.974 12.488,6.821 13.935,5.744 16.134 C 5.541 16.549,5.237 17.430,5.158 17.831 C 4.998 18.649,5.519 19.418,6.352 19.595 C 6.652 19.659,17.348 19.659,17.648 19.595 C 18.300 19.457,18.807 18.908,18.866 18.277 C 18.885 18.071,18.868 17.935,18.785 17.614 C 18.337 15.878,17.444 14.550,16.055 13.554 C 14.759 12.624,13.180 12.206,11.412 12.325 M13.120 13.897 C 14.807 14.226,16.186 15.300,16.922 16.856 C 17.105 17.244,17.278 17.717,17.338 17.990 L 17.366 18.120 12.000 18.120 L 6.634 18.120 6.661 17.990 C 6.765 17.486,7.123 16.666,7.461 16.160 C 8.105 15.193,9.144 14.404,10.220 14.064 C 10.496 13.977,10.898 13.891,11.340 13.825 C 11.606 13.785,12.792 13.833,13.120 13.897 " stroke="none" fill-rule="evenodd" fill="black"></path></svg>