<svg width="24" height="24" viewBox="0 0 24 24" fill="none" xmlns="http://www.w3.org/2000/svg">
<path fill-rule="evenodd" clip-rule="evenodd" d="M15.9914 8.35807C16.0978 8.24857 16.2426 8.1848 16.3952 8.18025C16.5136 8.17676 16.6302 8.2091 16.7298 8.27302C16.8294 8.33694 16.9074 8.42948 16.9535 8.53849C16.9997 8.6475 17.0118 8.7679 16.9883 8.88392C16.9649 8.99994 16.9069 9.10617 16.822 9.18867L10.3607 15.6499C10.2506 15.76 10.1012 15.8219 9.94545 15.8219C9.78969 15.8219 9.64031 15.76 9.53015 15.6499L7.1806 13.3004C7.12422 13.2463 7.07922 13.1814 7.04821 13.1097C7.01721 13.038 7.00083 12.9608 7.00003 12.8826C6.99924 12.8045 7.01404 12.7269 7.04358 12.6546C7.07312 12.5822 7.1168 12.5165 7.17206 12.4612C7.22732 12.406 7.29305 12.3623 7.3654 12.3328C7.43776 12.3032 7.51528 12.2884 7.59342 12.2892C7.67157 12.29 7.74877 12.3064 7.82051 12.3374C7.89224 12.3684 7.95707 12.4134 8.0112 12.4698L9.94545 14.404L15.9914 8.35807Z" fill="#0E1438"/>
<path d="M16.3952 8.18025L16.3879 7.93036L16.3878 7.93036L16.3952 8.18025ZM15.9914 8.35807L16.1682 8.53487L16.1707 8.53228L15.9914 8.35807ZM16.7298 8.27302L16.5948 8.48343L16.5948 8.48343L16.7298 8.27302ZM16.9535 8.53849L16.7233 8.63592L16.7233 8.63592L16.9535 8.53849ZM16.822 9.18867L16.6477 9.00939L16.6452 9.0119L16.822 9.18867ZM10.3607 15.6499L10.5375 15.8267L10.5375 15.8267L10.3607 15.6499ZM9.53015 15.6499L9.35337 15.8267L9.35341 15.8267L9.53015 15.6499ZM7.1806 13.3004L7.35741 13.1236L7.35374 13.12L7.1806 13.3004ZM7.04821 13.1097L7.27769 13.0105L7.27769 13.0105L7.04821 13.1097ZM7.00003 12.8826L7.25002 12.8801L7.00003 12.8826ZM7.04358 12.6546L7.27503 12.7491L7.04358 12.6546ZM7.3654 12.3328L7.27091 12.1013H7.27091L7.3654 12.3328ZM7.59342 12.2892L7.59088 12.5392H7.59088L7.59342 12.2892ZM7.82051 12.3374L7.91969 12.1079H7.91969L7.82051 12.3374ZM8.0112 12.4698L7.83082 12.643L7.83442 12.6466L8.0112 12.4698ZM9.94545 14.404L9.76867 14.5808L9.94545 14.7576L10.1222 14.5808L9.94545 14.404ZM16.3878 7.93036C16.1702 7.93684 15.9638 8.02776 15.8121 8.18386L16.1707 8.53228C16.2318 8.46939 16.315 8.43275 16.4027 8.43014L16.3878 7.93036ZM16.8648 8.06261C16.7228 7.97148 16.5565 7.92538 16.3879 7.93036L16.4026 8.43014C16.4706 8.42814 16.5376 8.44671 16.5948 8.48343L16.8648 8.06261ZM17.1838 8.44105C17.118 8.28565 17.0068 8.15374 16.8648 8.06261L16.5948 8.48343C16.652 8.52015 16.6968 8.5733 16.7233 8.63592L17.1838 8.44105ZM17.2334 8.9335C17.2668 8.7681 17.2495 8.59645 17.1838 8.44105L16.7233 8.63592C16.7498 8.69854 16.7568 8.7677 16.7433 8.83435L17.2334 8.9335ZM16.9963 9.36794C17.1173 9.25032 17.1999 9.09889 17.2334 8.9335L16.7433 8.83435C16.7298 8.901 16.6965 8.96202 16.6478 9.00941L16.9963 9.36794ZM10.5375 15.8267L16.9988 9.36545L16.6452 9.0119L10.184 15.4732L10.5375 15.8267ZM9.94545 16.0719C10.1675 16.0719 10.3804 15.9837 10.5375 15.8267L10.184 15.4731C10.1207 15.5364 10.0349 15.5719 9.94545 15.5719V16.0719ZM9.35341 15.8267C9.51045 15.9837 9.7234 16.0719 9.94545 16.0719V15.5719C9.85598 15.5719 9.77017 15.5364 9.70689 15.4731L9.35341 15.8267ZM7.00382 13.4772L9.35337 15.8267L9.70692 15.4732L7.35737 13.1236L7.00382 13.4772ZM6.81873 13.2089C6.86293 13.3111 6.92709 13.4036 7.00745 13.4807L7.35374 13.12C7.32136 13.089 7.2955 13.0517 7.27769 13.0105L6.81873 13.2089ZM6.75004 12.8852C6.75118 12.9966 6.77453 13.1066 6.81873 13.2089L7.27769 13.0105C7.25988 12.9693 7.25047 12.925 7.25002 12.8801L6.75004 12.8852ZM6.81213 12.5601C6.77002 12.6632 6.74891 12.7737 6.75004 12.8852L7.25002 12.8801C7.24956 12.8352 7.25807 12.7906 7.27503 12.7491L6.81213 12.5601ZM6.99528 12.2845C6.9165 12.3632 6.85424 12.457 6.81213 12.5601L7.27503 12.7491C7.292 12.7075 7.31709 12.6698 7.34884 12.638L6.99528 12.2845ZM7.27091 12.1013C7.16776 12.1434 7.07406 12.2057 6.99528 12.2845L7.34884 12.638C7.38058 12.6063 7.41834 12.5812 7.4599 12.5642L7.27091 12.1013ZM7.59597 12.0392C7.48456 12.0381 7.37405 12.0592 7.27091 12.1013L7.4599 12.5642C7.50146 12.5473 7.54599 12.5387 7.59088 12.5392L7.59597 12.0392ZM7.91969 12.1079C7.81743 12.0637 7.70737 12.0404 7.59597 12.0392L7.59088 12.5392C7.63577 12.5397 7.68012 12.5491 7.72132 12.5669L7.91969 12.1079ZM8.19154 12.2966C8.11438 12.2163 8.02196 12.1521 7.91969 12.1079L7.72132 12.5669C7.76253 12.5847 7.79977 12.6105 7.83086 12.6429L8.19154 12.2966ZM10.1222 14.2273L8.18798 12.293L7.83442 12.6466L9.76867 14.5808L10.1222 14.2273ZM15.8146 8.18129L9.76867 14.2273L10.1222 14.5808L16.1682 8.53485L15.8146 8.18129Z" fill="#0E1438"/>
</svg>
