<svg width="24" height="24" viewBox="0 0 24 24" fill="none" xmlns="http://www.w3.org/2000/svg"><path d="M6.289 4.205 C 5.738 4.296,5.246 4.735,5.074 5.290 C 5.003 5.516,5.000 5.817,5.000 11.996 C 5.000 17.789,5.007 18.488,5.064 18.683 C 5.223 19.228,5.665 19.651,6.210 19.780 C 6.585 19.868,17.415 19.868,17.790 19.780 C 18.335 19.651,18.777 19.228,18.936 18.683 C 18.993 18.488,19.000 17.789,19.000 11.996 C 19.000 5.817,18.997 5.516,18.926 5.290 C 18.748 4.717,18.265 4.298,17.675 4.202 C 17.358 4.151,6.598 4.153,6.289 4.205 M17.480 12.000 L 17.480 18.320 12.000 18.320 L 6.520 18.320 6.520 12.000 L 6.520 5.680 12.000 5.680 L 17.480 5.680 17.480 12.000 M11.921 7.163 C 11.769 7.196,11.589 7.371,11.360 7.708 L 11.220 7.913 10.920 7.817 C 10.446 7.665,10.183 7.696,9.976 7.926 C 9.834 8.083,9.803 8.242,9.839 8.627 C 9.858 8.821,9.861 8.992,9.846 9.006 C 9.832 9.020,9.681 9.089,9.511 9.159 C 9.162 9.303,8.979 9.476,8.937 9.703 C 8.892 9.941,8.974 10.116,9.259 10.399 C 9.402 10.541,9.520 10.681,9.520 10.710 C 9.520 10.739,9.446 10.902,9.356 11.071 C 9.213 11.342,9.194 11.405,9.209 11.584 C 9.241 11.983,9.457 12.143,10.027 12.191 L 10.380 12.220 10.432 12.440 C 10.542 12.901,10.567 12.965,10.684 13.098 C 10.826 13.260,11.032 13.338,11.223 13.302 C 11.298 13.288,11.506 13.179,11.684 13.060 L 12.007 12.843 12.299 13.063 C 12.647 13.325,12.788 13.374,13.022 13.315 C 13.283 13.250,13.416 13.081,13.536 12.664 C 13.593 12.468,13.643 12.305,13.649 12.300 C 13.655 12.296,13.842 12.275,14.064 12.253 C 14.509 12.210,14.669 12.135,14.783 11.914 C 14.886 11.715,14.863 11.509,14.698 11.139 L 14.547 10.799 14.850 10.488 C 15.181 10.148,15.247 9.993,15.163 9.753 C 15.081 9.517,15.001 9.441,14.639 9.260 C 14.238 9.058,14.256 9.095,14.323 8.619 C 14.362 8.333,14.359 8.301,14.273 8.127 C 14.169 7.918,13.941 7.762,13.740 7.761 C 13.674 7.760,13.494 7.796,13.340 7.840 C 13.186 7.884,13.033 7.920,13.000 7.919 C 12.967 7.919,12.846 7.775,12.731 7.600 C 12.467 7.200,12.258 7.087,11.921 7.163 M12.465 9.242 C 12.545 9.268,12.688 9.280,12.785 9.270 L 12.960 9.250 12.960 9.406 C 12.960 9.645,13.055 9.824,13.258 9.967 L 13.440 10.095 13.343 10.198 C 13.159 10.390,13.113 10.649,13.216 10.897 L 13.272 11.031 13.108 11.057 C 12.864 11.096,12.698 11.218,12.596 11.432 C 12.547 11.535,12.502 11.626,12.496 11.634 C 12.490 11.642,12.426 11.607,12.354 11.556 C 12.175 11.429,11.873 11.428,11.669 11.555 C 11.543 11.633,11.520 11.637,11.520 11.582 C 11.520 11.458,11.356 11.197,11.232 11.121 C 11.163 11.079,11.039 11.033,10.957 11.019 L 10.807 10.994 10.868 10.848 C 10.956 10.637,10.919 10.359,10.778 10.174 C 10.716 10.092,10.682 10.019,10.702 10.012 C 10.959 9.926,11.160 9.638,11.160 9.357 C 11.160 9.222,11.172 9.196,11.224 9.216 C 11.495 9.320,11.736 9.262,11.926 9.047 L 12.060 8.896 12.191 9.045 C 12.262 9.127,12.386 9.216,12.465 9.242 M9.533 14.701 C 9.121 14.948,9.049 15.460,9.374 15.829 C 9.599 16.087,9.530 16.080,12.000 16.080 C 14.470 16.080,14.401 16.087,14.626 15.829 C 14.952 15.458,14.878 14.943,14.463 14.700 L 14.293 14.600 11.996 14.600 L 9.700 14.601 9.533 14.701 " stroke="none" fill-rule="evenodd" fill="black"></path></svg>