<svg width="24" height="24" viewBox="0 0 24 24" fill="none" xmlns="http://www.w3.org/2000/svg">
<path d="M10.234 9.25C10.4201 8.87441 10.7075 8.55833 11.0637 8.33745C11.4199 8.11657 11.8308 7.99969 12.25 8C12.6965 7.99998 13.1329 8.13278 13.5036 8.38152C13.8744 8.63025 14.1628 8.98367 14.3321 9.39679C14.5014 9.80992 14.5439 10.2641 14.4544 10.7015C14.3648 11.1388 14.1471 11.5397 13.829 11.853C13.329 12.346 12.721 12.878 12.427 13.503M12.25 16.5V16.51M12.25 19.5C11.2979 19.5 10.3552 19.3125 9.47554 18.9481C8.59593 18.5838 7.7967 18.0497 7.12348 17.3765C6.45025 16.7033 5.91622 15.9041 5.55187 15.0245C5.18753 14.1448 5 13.2021 5 12.25C5 11.2979 5.18753 10.3552 5.55187 9.47554C5.91622 8.59593 6.45025 7.7967 7.12348 7.12348C7.7967 6.45025 8.59593 5.91622 9.47554 5.55187C10.3552 5.18753 11.2979 5 12.25 5C14.1728 5 16.0169 5.76384 17.3765 7.12348C18.7362 8.48311 19.5 10.3272 19.5 12.25C19.5 14.1728 18.7362 16.0169 17.3765 17.3765C16.0169 18.7362 14.1728 19.5 12.25 19.5Z" stroke="black" stroke-width="1.5" stroke-linecap="round" stroke-linejoin="round"/>
</svg>
