<svg width="24" height="24" viewBox="0 0 24 24" fill="none" xmlns="http://www.w3.org/2000/svg"><path d="M6.639 5.238 C 6.070 5.313,5.587 5.564,5.136 6.018 C 4.897 6.259,4.774 6.422,4.666 6.642 C 4.362 7.264,4.380 6.947,4.380 11.820 L 4.380 16.180 4.472 16.500 C 4.604 16.956,4.805 17.292,5.157 17.643 C 5.498 17.984,5.831 18.187,6.280 18.327 L 6.580 18.420 11.920 18.420 L 17.260 18.420 17.560 18.326 C 18.043 18.176,18.308 18.014,18.681 17.641 C 19.054 17.268,19.216 17.003,19.366 16.520 L 19.460 16.220 19.460 11.800 L 19.460 7.380 19.351 7.059 C 19.105 6.333,18.595 5.755,17.935 5.453 C 17.401 5.208,17.785 5.224,12.080 5.216 C 9.209 5.212,6.761 5.222,6.639 5.238 M17.280 6.803 C 17.499 6.902,17.737 7.125,17.853 7.340 C 17.934 7.489,17.941 7.564,17.953 8.470 L 17.965 9.440 11.923 9.440 L 5.880 9.440 5.880 8.542 C 5.880 7.742,5.889 7.619,5.960 7.430 C 6.072 7.130,6.369 6.851,6.678 6.758 C 6.734 6.741,9.102 6.726,11.940 6.724 C 17.045 6.722,17.102 6.723,17.280 6.803 M17.951 13.530 C 17.941 15.986,17.936 16.148,17.866 16.280 C 17.762 16.475,17.530 16.711,17.340 16.813 L 17.180 16.900 11.920 16.900 L 6.660 16.900 6.495 16.812 C 6.404 16.763,6.257 16.641,6.168 16.539 C 5.872 16.203,5.880 16.292,5.880 13.453 L 5.880 10.920 11.921 10.920 L 17.962 10.920 17.951 13.530 M7.578 13.275 C 7.401 13.383,7.247 13.582,7.217 13.744 C 7.150 14.102,7.310 14.450,7.610 14.595 C 7.778 14.676,7.841 14.680,9.103 14.679 C 10.566 14.678,10.628 14.668,10.848 14.407 C 11.154 14.044,11.052 13.490,10.642 13.281 C 10.492 13.204,10.409 13.200,9.092 13.200 C 7.807 13.200,7.691 13.206,7.578 13.275 M15.070 13.283 C 14.633 13.514,14.565 14.145,14.942 14.476 C 15.134 14.645,15.324 14.690,15.766 14.674 C 16.101 14.662,16.166 14.647,16.312 14.550 C 16.690 14.300,16.756 13.753,16.447 13.426 C 16.260 13.228,16.162 13.200,15.672 13.202 C 15.301 13.203,15.193 13.218,15.070 13.283 " stroke="none" fill-rule="evenodd"></path></svg>