<svg width="24" height="24" viewBox="0 0 24 24" fill="none" xmlns="http://www.w3.org/2000/svg"><path d="M11.281 3.821 C 9.595 4.126,8.305 5.420,7.980 7.130 C 7.936 7.365,7.920 7.732,7.920 8.522 L 7.920 9.595 7.249 9.607 C 6.584 9.620,6.575 9.621,6.315 9.750 C 5.842 9.983,5.520 10.430,5.436 10.969 C 5.412 11.123,5.402 12.721,5.409 15.100 L 5.420 18.980 5.514 19.214 C 5.630 19.501,5.877 19.810,6.130 19.984 C 6.524 20.254,6.197 20.240,12.000 20.240 C 17.803 20.240,17.476 20.254,17.870 19.984 C 18.123 19.810,18.370 19.501,18.486 19.214 L 18.580 18.980 18.592 15.100 C 18.599 12.639,18.588 11.126,18.563 10.962 C 18.479 10.424,18.130 9.953,17.649 9.727 L 17.420 9.620 13.430 9.609 L 9.440 9.599 9.440 8.508 C 9.440 7.312,9.463 7.142,9.680 6.700 C 9.931 6.188,10.373 5.754,10.900 5.503 C 11.282 5.320,11.546 5.266,12.040 5.269 C 12.769 5.274,13.343 5.524,13.870 6.069 C 14.119 6.327,14.336 6.707,14.502 7.180 C 14.734 7.837,15.528 7.950,15.865 7.375 C 15.994 7.154,15.999 6.942,15.884 6.578 C 15.505 5.388,14.515 4.379,13.330 3.977 C 12.692 3.761,11.935 3.703,11.281 3.821 M17.060 14.920 L 17.060 18.740 12.000 18.740 L 6.940 18.740 6.930 14.960 C 6.924 12.881,6.928 11.157,6.938 11.130 C 6.954 11.090,7.989 11.082,12.009 11.090 L 17.060 11.100 17.060 14.920 M11.700 12.986 C 11.514 13.084,11.396 13.205,11.316 13.380 C 11.248 13.526,11.242 13.663,11.242 14.920 C 11.242 16.177,11.248 16.314,11.316 16.460 C 11.491 16.840,11.903 17.012,12.271 16.858 C 12.468 16.776,12.595 16.654,12.684 16.460 C 12.752 16.314,12.758 16.176,12.759 14.929 C 12.760 13.458,12.751 13.385,12.548 13.167 C 12.333 12.936,11.950 12.855,11.700 12.986 " stroke="none" fill-rule="evenodd" fill="black"></path></svg>