<svg width="24" height="24" viewBox="0 0 24 24" fill="none" xmlns="http://www.w3.org/2000/svg">
<path d="M9.7494 8.78391C10.121 8.96695 10.5706 8.81411 10.7536 8.44254C10.9367 8.07096 10.7838 7.62136 10.4123 7.43831L9.7494 8.78391ZM7.43689 13.3434C7.43689 12.9292 7.1011 12.5934 6.68689 12.5934C6.27268 12.5934 5.93689 12.9292 5.93689 13.3434H7.43689ZM12.8738 5.53033C13.1667 5.23744 13.1667 4.76256 12.8738 4.46967C12.5809 4.17678 12.106 4.17678 11.8131 4.46967L12.8738 5.53033ZM9.51517 7.82828L8.98484 7.29795C8.84419 7.4386 8.76517 7.62937 8.76517 7.82828C8.76517 8.02719 8.84419 8.21796 8.98484 8.35861L9.51517 7.82828ZM11.8131 11.1869C12.106 11.4798 12.5809 11.4798 12.8738 11.1869C13.1667 10.894 13.1667 10.4191 12.8738 10.1262L11.8131 11.1869ZM10.0808 8.11111C10.4123 7.43831 10.4127 7.43855 10.4132 7.43878C10.4133 7.43885 10.4138 7.43908 10.4141 7.43924C10.4147 7.43954 10.4153 7.43984 10.4159 7.44015C10.4171 7.44075 10.4183 7.44134 10.4195 7.44192C10.4218 7.44309 10.424 7.44424 10.4262 7.44536C10.4304 7.44759 10.4345 7.44982 10.4386 7.45207C10.4462 7.45637 10.4552 7.46167 10.4652 7.46833C10.4763 7.4757 10.5267 7.50898 10.5799 7.57531C10.6294 7.6369 10.7612 7.8306 10.7113 8.10903C10.6617 8.38644 10.4735 8.51372 10.4291 8.54056C10.3617 8.58142 10.3963 8.53834 10.7547 8.49858C11.0743 8.46314 11.5754 8.43687 12.3435 8.43687V6.93687C11.5496 6.93687 10.9869 6.96363 10.5894 7.00773C10.2307 7.04752 9.89492 7.1105 9.65226 7.25742C9.52033 7.33729 9.29336 7.5176 9.2348 7.84473C9.17607 8.17287 9.32885 8.41297 9.41022 8.51433C9.49539 8.62044 9.58869 8.68686 9.63468 8.71744C9.66213 8.73569 9.68652 8.75011 9.70529 8.76062C9.71485 8.76598 9.72342 8.77059 9.73075 8.77443C9.73444 8.77635 9.73784 8.77811 9.74095 8.77968C9.74251 8.78047 9.74399 8.78122 9.7454 8.78192C9.7461 8.78227 9.74679 8.78261 9.74746 8.78295C9.74779 8.78311 9.74828 8.78335 9.74844 8.78343C9.74892 8.78367 9.7494 8.78391 10.0808 8.11111ZM12.3435 8.43687C13.3139 8.43687 14.2625 8.72463 15.0694 9.26377L15.9028 8.01657C14.8492 7.31261 13.6106 6.93687 12.3435 6.93687V8.43687ZM15.0694 9.26377C15.8763 9.80291 16.5052 10.5692 16.8765 11.4658L18.2623 10.8917C17.7775 9.7211 16.9563 8.72053 15.9028 8.01657L15.0694 9.26377ZM16.8765 11.4658C17.2479 12.3623 17.3451 13.3489 17.1557 14.3007L18.6269 14.5933C18.8741 13.3505 18.7472 12.0624 18.2623 10.8917L16.8765 11.4658ZM17.1557 14.3007C16.9664 15.2524 16.4991 16.1267 15.8129 16.8129L16.8736 17.8736C17.7696 16.9776 18.3797 15.836 18.6269 14.5933L17.1557 14.3007ZM15.8129 16.8129C15.1267 17.4991 14.2525 17.9664 13.3007 18.1557L13.5933 19.6269C14.8361 19.3797 15.9776 18.7695 16.8736 17.8736L15.8129 16.8129ZM13.3007 18.1557C12.3489 18.345 11.3624 18.2479 10.4658 17.8765L9.89177 19.2623C11.0624 19.7472 12.3506 19.8741 13.5933 19.6269L13.3007 18.1557ZM10.4658 17.8765C9.56924 17.5051 8.80294 16.8763 8.2638 16.0694L7.01659 16.9027C7.72055 17.9563 8.72112 18.7774 9.89177 19.2623L10.4658 17.8765ZM8.2638 16.0694C7.72465 15.2625 7.43689 14.3139 7.43689 13.3434H5.93689C5.93689 14.6105 6.31263 15.8492 7.01659 16.9027L8.2638 16.0694ZM11.8131 4.46967L8.98484 7.29795L10.0455 8.35861L12.8738 5.53033L11.8131 4.46967ZM8.98484 8.35861L11.8131 11.1869L12.8738 10.1262L10.0455 7.29795L8.98484 8.35861Z" fill="black"/>
</svg>
