<svg width="24" height="24" viewBox="0 0 24 24" fill="none" xmlns="http://www.w3.org/2000/svg">
<path d="M9.06034 4.25006H8.52586C6.16437 4.25006 4.25 6.16443 4.25 8.52592V9.0604M9.06034 19.75H8.52586C6.16437 19.75 4.25 17.8357 4.25 15.4742V14.9397M14.9397 4.25006H15.4741C17.8356 4.25006 19.75 6.16443 19.75 8.52592V9.0604M14.9397 19.75H15.4741C17.8356 19.75 19.75 17.8357 19.75 15.4742V14.9397M8.52585 12.8017C8.52585 12.8017 8.79309 15.4742 12 15.4742C15.2069 15.4742 15.4741 12.8017 15.4741 12.8017" stroke="black" stroke-width="1.736" stroke-linecap="round"/>
<rect x="9.34441" y="9.39832" width="0.992" height="0.992" rx="0.496" stroke="black" stroke-width="0.992"/>
<rect x="13.5605" y="9.39832" width="0.992" height="0.992" rx="0.496" stroke="black" stroke-width="0.992"/>
</svg>
