<svg width="24" height="24" viewBox="0 0 24 24" fill="none" xmlns="http://www.w3.org/2000/svg">
<path d="M4.2915 6.16669C3.94633 6.16669 3.6665 6.44651 3.6665 6.79169C3.6665 7.13686 3.94633 7.41669 4.2915 7.41669V6.16669ZM19.7082 7.41669C20.0533 7.41669 20.3332 7.13686 20.3332 6.79169C20.3332 6.44651 20.0533 6.16669 19.7082 6.16669V7.41669ZM10.7498 10.9584C10.7498 10.6132 10.47 10.3334 10.1248 10.3334C9.77966 10.3334 9.49984 10.6132 9.49984 10.9584H10.7498ZM9.49984 15.5417C9.49984 15.8869 9.77966 16.1667 10.1248 16.1667C10.47 16.1667 10.7498 15.8869 10.7498 15.5417H9.49984ZM14.4998 10.9584C14.4998 10.6132 14.22 10.3334 13.8748 10.3334C13.5297 10.3334 13.2498 10.6132 13.2498 10.9584H14.4998ZM13.2498 15.5417C13.2498 15.8869 13.5297 16.1667 13.8748 16.1667C14.22 16.1667 14.4998 15.8869 14.4998 15.5417H13.2498ZM14.6229 6.94747C14.7089 7.28175 15.0497 7.48299 15.3839 7.39696C15.7183 7.31092 15.9195 6.97019 15.8334 6.6359L14.6229 6.94747ZM5.33447 6.83193L6.11749 18.9689L7.3649 18.8884L6.58187 6.75145L5.33447 6.83193ZM7.5728 20.3334H16.4268V19.0834H7.5728V20.3334ZM17.8822 18.9689L18.6652 6.83193L17.4178 6.75145L16.6348 18.8884L17.8822 18.9689ZM18.0415 6.16669H5.95817V7.41669H18.0415V6.16669ZM4.2915 7.41669H5.95817V6.16669H4.2915V7.41669ZM18.0415 7.41669H19.7082V6.16669H18.0415V7.41669ZM16.4268 20.3334C17.1958 20.3334 17.8327 19.7363 17.8822 18.9689L16.6348 18.8884C16.6277 18.998 16.5368 19.0834 16.4268 19.0834V20.3334ZM6.11749 18.9689C6.167 19.7363 6.80385 20.3334 7.5728 20.3334V19.0834C7.46295 19.0834 7.37198 18.998 7.3649 18.8884L6.11749 18.9689ZM9.49984 10.9584V15.5417H10.7498V10.9584H9.49984ZM13.2498 10.9584V15.5417H14.4998V10.9584H13.2498ZM11.9998 4.91669C13.261 4.91669 14.3222 5.77922 14.6229 6.94747L15.8334 6.6359C15.3941 4.92878 13.8452 3.66669 11.9998 3.66669V4.91669ZM9.37681 6.94747C9.67749 5.77922 10.7388 4.91669 11.9998 4.91669V3.66669C10.1546 3.66669 8.60564 4.92878 8.16626 6.6359L9.37681 6.94747Z" fill="black"/>
</svg>
