<svg width="24" height="24" viewBox="0 0 24 24" fill="none" xmlns="http://www.w3.org/2000/svg">
<path fill-rule="evenodd" clip-rule="evenodd" d="M11.4709 5.80634C11.7686 5.53722 11.9541 5.5 12 5.5C12.0459 5.5 12.2314 5.53722 12.5291 5.80634C12.8114 6.06164 13.1288 6.46914 13.4271 7.03651C13.9505 8.03191 14.3838 9.46098 14.48 11.25H12H9.51996C9.61624 9.46098 10.0495 8.03191 10.5729 7.03651C10.8712 6.46914 11.1886 6.06164 11.4709 5.80634ZM8.01802 11.25C8.11591 9.23031 8.6032 7.55958 9.24518 6.33849C9.29985 6.23451 9.35587 6.13334 9.41314 6.03513C7.32917 6.94016 5.81218 8.90532 5.5428 11.25H8.01802ZM5.5428 12.75H8.01802C8.11591 14.7697 8.6032 16.4404 9.24518 17.6615C9.29985 17.7655 9.35587 17.8667 9.41314 17.9649C7.32917 17.0598 5.81218 15.0947 5.5428 12.75ZM9.51996 12.75H12H14.48C14.3838 14.539 13.9505 15.9681 13.4271 16.9635C13.1288 17.5309 12.8114 17.9384 12.5291 18.1937C12.2314 18.4628 12.0459 18.5 12 18.5C11.9541 18.5 11.7686 18.4628 11.4709 18.1937C11.1886 17.9384 10.8712 17.5309 10.5729 16.9635C10.0495 15.9681 9.61624 14.539 9.51996 12.75ZM15.982 12.75C15.8841 14.7697 15.3968 16.4404 14.7548 17.6615C14.7002 17.7655 14.6441 17.8667 14.5869 17.9649C16.6708 17.0598 18.1878 15.0947 18.4572 12.75H15.982ZM18.4572 11.25C18.1878 8.90532 16.6708 6.94016 14.5869 6.03513C14.6441 6.13334 14.7002 6.23451 14.7548 6.33849C15.3968 7.55958 15.8841 9.23031 15.982 11.25H18.4572ZM20 12C20 16.4183 16.4183 20 12 20C7.58172 20 4 16.4183 4 12C4 7.58172 7.58172 4 12 4C16.4183 4 20 7.58172 20 12Z" fill="black"/>
</svg>
