<svg width="24" height="24" viewBox="0 0 24 24" fill="none" xmlns="http://www.w3.org/2000/svg">
<path d="M14.9167 13.875C17.563 13.875 19.7083 11.7297 19.7083 9.08335C19.7083 6.43699 17.563 4.29169 14.9167 4.29169C12.2703 4.29169 10.125 6.43699 10.125 9.08335C10.125 9.48495 10.1744 9.87499 10.2675 10.2478L5.36908 15.1461C5.2128 15.3024 5.125 15.5144 5.125 15.7354V18.0418C5.125 18.5019 5.4981 18.8751 5.95833 18.8751H8.26467C8.48568 18.8751 8.69764 18.7873 8.85393 18.631L9.70833 17.7766V15.5418H11.9432L13.7523 13.7326C14.1251 13.8256 14.5151 13.875 14.9167 13.875Z" stroke="black" stroke-width="1.5" stroke-linecap="round" stroke-linejoin="round"/>
<path d="M16.3752 9.08333C16.3752 9.88875 15.7222 10.5417 14.9168 10.5417C14.1114 10.5417 13.4585 9.88875 13.4585 9.08333C13.4585 8.27792 14.1114 7.625 14.9168 7.625C15.7222 7.625 16.3752 8.27792 16.3752 9.08333Z" stroke="black" stroke-width="1.5" stroke-linecap="square"/>
</svg>
