<svg width="24" height="24" viewBox="0 0 24 24" fill="none" xmlns="http://www.w3.org/2000/svg"><path d="M10.742 2.774 C 10.701 2.803,10.513 3.132,10.324 3.504 L 9.980 4.180 9.280 4.540 C 8.609 4.885,8.579 4.905,8.568 5.029 L 8.555 5.157 9.275 5.517 L 9.994 5.878 10.359 6.601 L 10.725 7.325 10.852 7.312 C 10.974 7.301,10.996 7.270,11.340 6.600 L 11.700 5.900 12.379 5.555 C 12.752 5.365,13.082 5.172,13.112 5.127 C 13.223 4.960,13.146 4.893,12.407 4.523 L 11.700 4.168 11.360 3.481 C 10.984 2.721,10.918 2.645,10.742 2.774 M17.420 4.181 C 17.398 4.188,17.326 4.205,17.260 4.219 C 17.169 4.238,15.484 5.899,10.206 11.172 C 6.110 15.265,3.249 18.153,3.216 18.229 C 3.126 18.436,3.146 18.642,3.275 18.842 C 3.338 18.940,3.883 19.508,4.485 20.105 C 5.661 21.270,5.719 21.313,6.051 21.260 C 6.212 21.234,6.547 20.906,13.173 14.286 C 16.997 10.466,20.151 7.291,20.183 7.232 C 20.250 7.105,20.257 6.851,20.198 6.693 C 20.151 6.567,18.010 4.398,17.820 4.283 C 17.701 4.211,17.496 4.159,17.420 4.181 M17.230 8.430 L 15.760 9.899 15.160 9.300 C 14.830 8.971,14.560 8.683,14.560 8.661 C 14.560 8.639,15.212 7.968,16.010 7.170 L 17.460 5.720 18.080 6.340 L 18.700 6.960 17.230 8.430 M6.435 7.065 C 6.405 7.100,6.227 7.429,6.040 7.795 L 5.700 8.460 5.000 8.820 C 4.430 9.113,4.298 9.197,4.287 9.272 C 4.280 9.323,4.297 9.392,4.325 9.426 C 4.353 9.460,4.678 9.639,5.048 9.824 L 5.720 10.160 6.044 10.810 C 6.402 11.526,6.452 11.600,6.580 11.600 C 6.708 11.600,6.758 11.526,7.116 10.810 L 7.440 10.160 8.112 9.824 C 8.482 9.639,8.808 9.459,8.836 9.424 C 8.868 9.387,8.879 9.320,8.864 9.260 C 8.843 9.178,8.719 9.100,8.169 8.824 C 7.801 8.640,7.470 8.456,7.434 8.415 C 7.398 8.374,7.224 8.050,7.047 7.695 C 6.870 7.341,6.695 7.039,6.659 7.025 C 6.554 6.985,6.494 6.996,6.435 7.065 M14.260 10.200 L 14.859 10.800 10.400 15.260 L 5.940 19.720 5.320 19.100 L 4.700 18.480 9.140 14.040 C 11.582 11.598,13.598 9.600,13.620 9.600 C 13.643 9.600,13.931 9.870,14.260 10.200 M18.460 12.158 C 18.409 12.179,18.257 12.440,18.040 12.880 L 17.700 13.568 16.991 13.924 C 16.406 14.217,16.277 14.297,16.256 14.380 C 16.241 14.440,16.252 14.507,16.284 14.544 C 16.312 14.579,16.638 14.759,17.007 14.943 L 17.678 15.279 18.029 15.968 C 18.222 16.346,18.409 16.673,18.444 16.694 C 18.479 16.715,18.551 16.721,18.604 16.708 C 18.681 16.688,18.769 16.545,19.050 15.982 L 19.400 15.280 20.102 14.930 C 20.814 14.575,20.891 14.512,20.826 14.341 C 20.813 14.308,20.490 14.125,20.107 13.934 L 19.412 13.587 19.076 12.909 C 18.785 12.323,18.647 12.112,18.561 12.123 C 18.549 12.124,18.504 12.140,18.460 12.158 " stroke="none" fill-rule="evenodd"></path></svg>