<svg width="24" height="24" viewBox="0 0 24 24" fill="none" xmlns="http://www.w3.org/2000/svg"><path d="M4.852 5.240 C 4.565 5.282,4.298 5.420,4.050 5.653 C 3.815 5.875,3.683 6.088,3.598 6.381 C 3.511 6.680,3.511 17.321,3.598 17.620 C 3.767 18.202,4.253 18.650,4.835 18.759 C 5.132 18.815,18.868 18.815,19.165 18.759 C 19.747 18.650,20.233 18.202,20.402 17.620 C 20.489 17.321,20.489 6.680,20.402 6.381 C 20.317 6.088,20.185 5.875,19.950 5.653 C 19.691 5.410,19.440 5.285,19.112 5.238 C 18.808 5.194,5.153 5.196,4.852 5.240 M18.940 12.000 L 18.940 17.260 12.000 17.260 L 5.060 17.260 5.050 12.040 C 5.044 9.169,5.048 6.797,5.059 6.770 C 5.074 6.730,6.485 6.722,12.009 6.730 L 18.940 6.740 18.940 12.000 M7.300 10.706 C 7.109 10.807,7.007 10.919,6.936 11.106 C 6.798 11.466,6.955 11.873,7.295 12.037 C 7.465 12.120,7.520 12.124,8.311 12.112 L 9.146 12.100 9.297 11.985 C 9.679 11.693,9.734 11.241,9.429 10.894 C 9.221 10.657,9.139 10.640,8.231 10.642 C 7.571 10.643,7.398 10.655,7.300 10.706 M11.430 10.723 C 11.347 10.766,11.230 10.877,11.170 10.968 C 11.080 11.104,11.060 11.179,11.060 11.380 C 11.060 11.662,11.155 11.840,11.393 12.004 L 11.534 12.100 14.033 12.111 C 16.516 12.122,16.532 12.121,16.708 12.036 C 17.245 11.776,17.251 10.991,16.718 10.719 C 16.569 10.643,16.474 10.640,14.072 10.642 C 11.667 10.643,11.575 10.646,11.430 10.723 M7.340 14.016 C 6.668 14.317,6.763 15.283,7.481 15.436 C 7.758 15.496,11.242 15.496,11.519 15.436 C 12.164 15.298,12.332 14.469,11.792 14.094 L 11.627 13.980 9.543 13.971 C 7.871 13.964,7.436 13.973,7.340 14.016 M13.980 14.035 C 13.687 14.171,13.553 14.391,13.554 14.728 C 13.556 14.938,13.600 15.046,13.755 15.214 C 13.977 15.454,14.003 15.458,15.188 15.473 C 16.391 15.488,16.642 15.460,16.846 15.289 C 17.223 14.972,17.196 14.374,16.792 14.094 L 16.627 13.980 15.384 13.970 C 14.241 13.961,14.127 13.966,13.980 14.035 " stroke="none" fill-rule="evenodd" fill="black"></path></svg>