<svg width="24" height="24" viewBox="0 0 24 24" fill="none" xmlns="http://www.w3.org/2000/svg">
<path d="M18.2712 4.83292C18.5218 4.18529 19.2322 3.83013 19.9216 4.08083C20.5692 4.33152 20.9452 5.04183 20.6945 5.71035L15.7642 18.9554C15.7015 19.3942 15.3882 19.7702 14.9285 19.9373C14.7614 19.9791 14.6361 20 14.4689 20C14.3227 20 14.1765 19.9791 14.0302 19.9373C13.9467 19.8955 13.8422 19.8538 13.7795 19.812C13.7586 19.7911 13.7377 19.7911 13.7169 19.7702C13.7169 19.7702 13.696 19.7702 13.696 19.7493C13.5288 19.624 13.4035 19.4777 13.3199 19.2897L13.299 19.227C13.299 19.2061 13.2781 19.1852 13.2781 19.1643L10.3325 11.1839L8.306 16.6992C8.24332 17.1379 7.92995 17.5348 7.47035 17.702C7.28232 17.7437 7.15698 17.7646 6.98985 17.7646C6.92717 17.7646 6.8645 17.7646 6.80183 17.7437C6.71826 17.7229 6.6347 17.7228 6.57202 17.702C6.48846 17.6602 6.384 17.6184 6.32132 17.5766C6.30043 17.5766 6.30044 17.5557 6.27955 17.5557C6.25865 17.5557 6.25865 17.5348 6.23776 17.5348C6.07063 17.4095 5.94528 17.2632 5.86172 17.0752L5.84083 17.0125V16.9917C5.84083 16.9708 5.81993 16.9708 5.81993 16.9499L3.31298 10.1811C3.06228 9.53346 3.39655 8.80227 4.08596 8.55157C4.73359 8.30087 5.48567 8.63513 5.73637 9.30365L7.01074 12.7716L9.12076 7.06829C9.30879 6.58779 9.76839 6.25353 10.2698 6.23264C10.813 6.19085 11.3561 6.50422 11.565 7.06829L14.5107 15.0488L18.2712 4.83292Z" fill="black"/>
</svg>
