<svg width="24" height="24" viewBox="0 0 24 24" fill="none" xmlns="http://www.w3.org/2000/svg">
<path d="M10.1095 3.0005L14.409 3.00118C14.6069 3.00118 14.7286 3.00744 14.7742 3.01997C15.1851 3.1325 15.198 3.74969 14.778 3.87897C14.7299 3.89376 14.6506 3.90108 14.5401 3.90093C13.4293 3.89972 12.3185 3.90055 11.2076 3.90342C10.9617 3.90405 10.7158 3.90337 10.4701 3.9027C10.0914 3.90166 9.71289 3.90062 9.33426 3.90433C9.27313 3.89436 9.21486 3.87708 9.15947 3.85248C8.81329 3.69784 8.8391 3.17574 9.17577 3.03876C9.23026 3.01657 9.31094 3.0048 9.4178 3.00344C9.64829 3.00027 9.87885 2.99929 10.1095 3.0005Z" fill="#4389EE"/>
<path fill-rule="evenodd" clip-rule="evenodd" d="M5.25979 9.97737C5.25979 8.52309 5.25979 7.79595 5.50196 7.22403C5.81187 6.49215 6.39443 5.90959 7.12631 5.59968C7.69823 5.35751 8.42537 5.35751 9.87965 5.35751H14.1396C15.5939 5.35751 16.321 5.35751 16.893 5.59968C17.6248 5.90959 18.2074 6.49215 18.5173 7.22403C18.7595 7.79595 18.7595 8.52309 18.7595 9.97738V14.234C18.7595 15.6883 18.7595 16.4154 18.5173 16.9873C18.2074 17.7192 17.6248 18.3018 16.893 18.6117C16.321 18.8539 15.5939 18.8539 14.1396 18.8539H9.87965C8.42537 18.8539 7.69823 18.8539 7.12631 18.6117C6.39443 18.3018 5.81187 17.7192 5.50196 16.9873C5.25979 16.4154 5.25979 15.6883 5.25979 14.234V9.97737ZM13.3906 8.24184C13.3305 8.40048 13.2437 8.57738 13.13 8.77255C12.8612 9.23397 12.5932 9.69607 12.326 10.1589L10.7489 12.8812C10.7484 12.8821 10.7481 12.8831 10.7481 12.8841C10.7481 12.885 10.7484 12.886 10.7489 12.8869C10.7493 12.8877 10.75 12.8884 10.7509 12.8889C10.7517 12.8894 10.7526 12.8896 10.7536 12.8896C11.3162 12.8875 11.8743 12.8888 12.4279 12.8937C12.5447 12.8947 12.6388 12.9052 12.71 12.9251C13.2045 13.0644 13.4914 13.5833 13.3095 14.0717C13.3072 14.0782 13.3028 14.0839 13.2971 14.0879C13.2914 14.0918 13.2846 14.0939 13.2776 14.0939C11.4992 14.0914 9.71733 14.0905 7.93594 14.0929C7.76885 14.0932 7.58546 14.0735 7.44622 13.9797C7.15234 13.7828 7.10004 13.4171 7.30585 13.13C7.44215 12.9768 7.61965 12.8986 7.83836 12.8952C8.34159 12.8877 8.84173 12.8855 9.33878 12.8887C9.34317 12.8887 9.34749 12.8875 9.35131 12.8854C9.35512 12.8832 9.35829 12.88 9.36051 12.8762L10.9309 10.1672L11.2988 9.53804C11.3027 9.53138 11.3039 9.52349 11.302 9.51608C11.298 9.50098 11.2909 9.48491 11.2805 9.46785C11.0986 9.16899 10.9024 8.82749 10.6918 8.44335C10.6231 8.31807 10.5996 8.18396 10.6212 8.04102C10.702 7.66337 11.0932 7.44805 11.4457 7.60609C11.6677 7.7059 11.8165 7.98284 11.9371 8.20731C11.9557 8.24197 11.9737 8.27551 11.9912 8.30682C11.9925 8.30922 11.9945 8.3112 11.9968 8.31257C11.9992 8.31393 12.0019 8.31463 12.0047 8.31458C12.0074 8.31453 12.0101 8.31375 12.0124 8.3123C12.0147 8.31086 12.0166 8.30881 12.0179 8.30637L12.022 8.29822C12.1162 8.11409 12.2267 7.89815 12.3681 7.74465C12.6699 7.41749 13.2167 7.5368 13.3609 7.9534C13.3846 8.02192 13.3945 8.11807 13.3906 8.24184ZM13.1499 10.3019L14.3103 12.3023C14.4174 12.4903 14.5245 12.6754 14.6316 12.8574C14.6516 12.8914 14.6618 12.891 14.6899 12.8897L14.704 12.8891C15.0056 12.8822 15.4942 12.8838 16.1698 12.8941C16.5361 12.8998 16.8549 13.1577 16.8173 13.5464C16.8045 13.6803 16.7504 13.797 16.6552 13.8964C16.4807 14.0789 16.2953 14.0833 16.0219 14.0898L16.0036 14.0902C15.7893 14.0952 15.575 14.0957 15.3608 14.0918C15.3594 14.0918 15.3579 14.0921 15.3567 14.0928C15.3554 14.0935 15.3544 14.0946 15.3536 14.0958C15.3529 14.0971 15.3525 14.0985 15.3525 14.0999L15.3526 14.1013C15.3527 14.1023 15.3531 14.1032 15.3536 14.104L15.8795 15.0217C16.0799 15.3047 16.081 15.6903 15.7862 15.9088C15.5293 16.0994 15.1328 16.0514 14.9476 15.7734C14.8012 15.5537 14.6712 15.3274 14.54 15.0993L14.491 15.014C13.8959 13.988 13.3009 12.9622 12.7057 11.9364C12.3616 11.3435 12.3487 10.7413 12.667 10.1296C12.7232 10.0269 12.7904 9.93297 12.8687 9.84799C12.8699 9.84671 12.8714 9.84572 12.8731 9.8451C12.8747 9.84448 12.8765 9.84424 12.8782 9.84442C12.88 9.8446 12.8816 9.84517 12.8831 9.84611C12.8845 9.84704 12.8857 9.84831 12.8866 9.84981L13.1499 10.3019ZM9.15176 15.6332C9.29184 15.3931 9.431 15.1532 9.56926 14.9137L9.67658 14.731C9.68036 14.7248 9.67983 14.719 9.675 14.7135C9.36587 14.3647 8.98007 14.2499 8.51759 14.3689C8.51044 14.3707 8.50371 14.374 8.49784 14.3784C8.49196 14.3829 8.48705 14.3885 8.4834 14.395L8.12251 15.0219C7.96357 15.28 7.91127 15.5594 8.10258 15.7976C8.30454 16.0487 8.64891 16.0989 8.9172 15.9124C9.00777 15.8494 9.10082 15.7211 9.15176 15.6332Z" fill="#4389EE"/>
<path d="M3.17773 7.03784C3.12973 7.38877 3.4535 7.64914 3.78451 7.52032C3.9279 7.46447 4.0156 7.37126 4.0476 7.2407C4.41189 5.75477 5.43028 4.61118 6.89492 4.14523C6.94335 4.12986 6.99358 4.11749 7.04379 4.10513C7.24589 4.05536 7.44771 4.00566 7.53113 3.76101C7.65181 3.40645 7.32442 3.1128 6.97937 3.19318C5.26636 3.59211 3.9002 4.83827 3.32309 6.50464C3.24339 6.73467 3.19494 6.91241 3.17773 7.03784Z" fill="#4389EE"/>
<path d="M18.8161 4.00327C19.7261 4.66348 20.3572 5.52995 20.7095 6.60268C20.8152 6.92463 20.962 7.37292 20.5306 7.52892C20.3029 7.61133 20.0144 7.48726 19.9535 7.23436C19.7332 6.3217 19.2548 5.52384 18.5333 4.92204C18.0205 4.49956 17.4394 4.21157 16.7899 4.05806C16.4618 3.98063 16.3466 3.5946 16.5495 3.33785C16.6964 3.15174 16.8947 3.15899 17.1223 3.21695C17.7337 3.37317 18.2983 3.63528 18.8161 4.00327Z" fill="#4389EE"/>
<path d="M20.5429 8.91228H20.5574C20.8018 8.91228 21 9.11045 21 9.35491V14.6438C21 14.8883 20.8018 15.0865 20.5574 15.0865H20.5429C20.2984 15.0865 20.1002 14.8883 20.1002 14.6438V9.35491C20.1002 9.11045 20.2984 8.91228 20.5429 8.91228Z" fill="#4389EE"/>
<path d="M3.45712 8.91522H3.44263C3.19817 8.91522 3 9.1134 3 9.35785V14.6468C3 14.8912 3.19817 15.0894 3.44263 15.0894H3.45712C3.70158 15.0894 3.89975 14.8912 3.89975 14.6468V9.35785C3.89975 9.1134 3.70158 8.91522 3.45712 8.91522Z" fill="#4389EE"/>
<path d="M7.19989 19.9423C5.7065 19.5861 4.54683 18.4828 4.11144 17.0094C4.10478 16.983 4.09861 16.957 4.09257 16.9316C4.05655 16.7801 4.02515 16.648 3.92103 16.5645C3.53342 16.2529 3.0763 16.5925 3.19584 17.0574C3.32324 17.5534 3.50391 18.0035 3.73787 18.4079C4.43792 19.6079 5.59352 20.4805 6.94767 20.8024C7.60471 20.9586 7.78539 20.0817 7.19989 19.9423Z" fill="#4389EE"/>
<path d="M16.5393 20.6489C16.4102 20.4776 16.4118 20.2945 16.544 20.0996C16.6208 19.9866 16.743 19.9564 16.8653 19.9262C16.8927 19.9194 16.9202 19.9126 16.947 19.9049C18.4952 19.4609 19.5872 18.3001 19.9585 16.7442C19.9701 16.6958 20.019 16.6136 20.0647 16.5756C20.2608 16.4122 20.4557 16.3999 20.6495 16.5387C20.7996 16.646 20.8558 16.8273 20.8168 17.0028C20.4039 18.8655 18.9111 20.3537 17.0682 20.7983C16.8513 20.8506 16.6744 20.828 16.5393 20.6489Z" fill="#4389EE"/>
<path d="M14.5233 20.1005C12.9333 20.1008 11.3432 20.1007 9.75288 20.1001C9.71603 20.1003 9.67728 20.0996 9.63748 20.0989C9.3393 20.0937 8.98201 20.0874 8.92128 20.4603C8.87034 20.7725 9.07637 21.0016 9.39493 21.0016C11.1126 21.0004 12.8292 21.0001 14.5446 21.0005C14.6893 21.0005 14.8183 20.9892 14.9189 20.9084C15.186 20.6935 15.1324 20.2427 14.7941 20.1282C14.7396 20.1096 14.6494 20.1004 14.5233 20.1005Z" fill="#4389EE"/>
</svg>
