<svg width="24" height="24" viewBox="0 0 24 24" fill="none" xmlns="http://www.w3.org/2000/svg"><path d="M6.244 5.869 C 6.102 5.939,5.749 6.291,5.406 6.703 C 4.683 7.575,4.039 8.894,3.765 10.068 C 3.479 11.289,3.479 12.711,3.765 13.932 C 4.039 15.106,4.683 16.425,5.406 17.297 C 5.763 17.727,6.128 18.088,6.265 18.145 C 6.629 18.297,7.102 18.101,7.241 17.740 C 7.305 17.571,7.296 17.267,7.222 17.123 C 7.187 17.056,7.054 16.889,6.926 16.751 C 6.182 15.952,5.663 15.043,5.339 13.974 C 5.137 13.306,5.071 12.821,5.071 12.000 C 5.071 11.177,5.137 10.694,5.340 10.022 C 5.660 8.967,6.167 8.078,6.911 7.265 C 7.050 7.114,7.190 6.938,7.224 6.873 C 7.296 6.732,7.305 6.427,7.241 6.260 C 7.099 5.889,6.600 5.694,6.244 5.869 M17.140 5.876 C 16.919 5.977,16.798 6.122,16.738 6.354 C 16.650 6.694,16.721 6.870,17.116 7.297 C 18.031 8.284,18.634 9.529,18.864 10.904 C 18.954 11.440,18.954 12.560,18.864 13.096 C 18.634 14.471,18.031 15.716,17.116 16.703 C 16.836 17.006,16.761 17.119,16.719 17.303 C 16.677 17.492,16.759 17.810,16.885 17.947 C 17.092 18.172,17.463 18.258,17.735 18.145 C 17.872 18.088,18.237 17.727,18.594 17.297 C 19.317 16.425,19.961 15.106,20.235 13.932 C 20.521 12.711,20.521 11.289,20.235 10.068 C 19.961 8.893,19.322 7.586,18.591 6.700 C 18.263 6.304,17.887 5.932,17.743 5.864 C 17.566 5.780,17.338 5.784,17.140 5.876 M8.660 8.296 C 8.501 8.366,8.062 8.835,7.833 9.182 C 7.258 10.051,6.983 10.965,6.983 12.000 C 6.983 13.280,7.449 14.494,8.276 15.371 C 8.582 15.695,8.700 15.764,8.952 15.766 C 9.289 15.767,9.510 15.632,9.644 15.340 C 9.795 15.013,9.731 14.757,9.407 14.389 C 9.014 13.945,8.723 13.416,8.575 12.880 C 8.473 12.512,8.473 11.488,8.575 11.120 C 8.723 10.584,9.014 10.055,9.407 9.611 C 9.639 9.348,9.720 9.184,9.720 8.980 C 9.720 8.819,9.631 8.580,9.528 8.467 C 9.342 8.261,8.927 8.179,8.660 8.296 M14.700 8.307 C 14.515 8.405,14.435 8.486,14.355 8.660 C 14.205 8.987,14.269 9.243,14.593 9.611 C 14.850 9.901,14.997 10.116,15.149 10.420 C 15.441 11.005,15.542 11.507,15.507 12.200 C 15.479 12.735,15.412 13.015,15.201 13.467 C 15.024 13.845,14.878 14.067,14.593 14.389 C 14.269 14.757,14.205 15.013,14.356 15.340 C 14.490 15.632,14.711 15.767,15.048 15.766 C 15.300 15.764,15.418 15.695,15.724 15.371 C 16.313 14.747,16.735 13.905,16.943 12.940 C 17.038 12.499,17.038 11.501,16.943 11.060 C 16.735 10.095,16.316 9.261,15.720 8.625 C 15.577 8.473,15.402 8.324,15.331 8.294 C 15.160 8.222,14.848 8.228,14.700 8.307 M11.551 10.699 C 10.814 10.979,10.452 11.773,10.726 12.508 C 10.842 12.818,11.184 13.158,11.498 13.276 C 11.800 13.389,12.201 13.389,12.503 13.275 C 12.812 13.160,13.160 12.812,13.275 12.503 C 13.388 12.201,13.389 11.800,13.276 11.500 C 13.174 11.226,12.865 10.897,12.580 10.758 C 12.335 10.638,11.792 10.607,11.551 10.699 " stroke="none" fill-rule="evenodd" fill="black"></path></svg>