<svg width="24" height="24" viewBox="0 0 24 24" fill="none" xmlns="http://www.w3.org/2000/svg"><path d="M8.304 6.220 C 6.370 7.152,4.738 7.951,4.676 7.997 C 4.491 8.134,4.477 8.276,4.584 8.966 C 4.963 11.401,5.623 13.600,6.503 15.355 C 7.391 17.128,8.503 18.367,9.783 19.011 C 10.845 19.546,12.233 19.669,13.400 19.333 C 15.001 18.872,16.433 17.483,17.494 15.363 C 18.378 13.595,19.037 11.404,19.416 8.966 C 19.528 8.243,19.513 8.129,19.288 7.975 C 19.206 7.919,17.568 7.119,15.646 6.197 C 12.707 4.787,12.125 4.520,11.986 4.523 C 11.853 4.526,11.123 4.862,8.304 6.220 M14.640 9.114 L 14.640 9.788 14.410 9.710 C 13.858 9.522,13.194 9.816,12.946 10.356 C 12.827 10.615,12.827 11.106,12.947 11.366 C 13.199 11.916,13.848 12.201,14.410 12.010 L 14.640 11.932 14.640 12.463 L 14.640 12.994 13.849 13.007 L 13.058 13.020 12.792 13.151 C 12.461 13.314,12.162 13.630,12.034 13.950 C 11.953 14.156,11.941 14.262,11.928 14.950 L 11.914 15.720 10.857 15.720 L 9.800 15.720 9.800 12.080 L 9.800 8.440 12.220 8.440 L 14.640 8.440 14.640 9.114 " stroke="none" fill-rule="evenodd"></path></svg>