<svg width="24" height="24" viewBox="0 0 24 24" fill="none" xmlns="http://www.w3.org/2000/svg">
<path d="M6.54922 6.54993C5.15429 7.94486 4.2915 9.87194 4.2915 12.0005C4.2915 14.1291 5.15429 16.0562 6.54922 17.4511M8.97172 8.97243C8.19675 9.74738 7.71743 10.818 7.71743 12.0005C7.71743 13.1831 8.19675 14.2537 8.97172 15.0286M15.0279 15.0286C15.8029 14.2537 16.2823 13.1831 16.2823 12.0005C16.2823 10.818 15.8029 9.74738 15.0279 8.97243M17.4504 17.4511C18.8454 16.0562 19.7082 14.1291 19.7082 12.0005C19.7082 9.87194 18.8454 7.94486 17.4504 6.54993M12.6248 12C12.6248 12.3451 12.345 12.625 11.9998 12.625C11.6547 12.625 11.3748 12.3451 11.3748 12C11.3748 11.6547 11.6547 11.375 11.9998 11.375C12.345 11.375 12.6248 11.6547 12.6248 12Z" stroke="black" stroke-width="1.25" stroke-linecap="round" stroke-linejoin="round"/>
<circle cx="12" cy="12" r="0.625" fill="black"/>
</svg>
