<svg width="24" height="24" viewBox="0 0 24 24" fill="none" xmlns="http://www.w3.org/2000/svg"><path d="M17.860 5.360 C 17.524 5.412,17.186 5.673,17.058 5.979 C 17.028 6.050,16.309 7.996,15.459 10.303 C 14.610 12.611,13.910 14.503,13.904 14.509 C 13.898 14.515,13.348 13.040,12.681 11.230 C 12.015 9.421,11.423 7.853,11.367 7.747 C 11.018 7.090,10.093 7.011,9.593 7.595 C 9.485 7.722,9.289 8.213,8.563 10.176 C 8.069 11.510,7.653 12.588,7.638 12.571 C 7.622 12.554,7.373 11.893,7.083 11.101 C 6.793 10.310,6.520 9.605,6.477 9.535 C 6.302 9.252,5.965 9.080,5.586 9.080 C 5.150 9.080,4.799 9.290,4.618 9.661 C 4.408 10.089,4.384 9.998,5.556 13.160 C 6.131 14.711,6.639 16.072,6.683 16.184 C 6.772 16.406,6.939 16.589,7.160 16.704 C 7.358 16.807,7.966 16.810,8.152 16.708 C 8.359 16.595,8.583 16.347,8.652 16.155 C 8.745 15.898,10.236 11.817,10.330 11.564 C 10.384 11.417,10.420 11.366,10.441 11.404 C 10.457 11.435,11.015 12.936,11.681 14.740 C 12.346 16.544,12.923 18.085,12.964 18.165 C 13.046 18.328,13.268 18.516,13.480 18.603 C 13.557 18.634,13.745 18.659,13.900 18.658 C 14.132 18.657,14.217 18.636,14.394 18.540 C 14.657 18.396,14.819 18.206,14.905 17.941 C 14.941 17.831,15.861 15.346,16.950 12.420 C 19.201 6.369,19.120 6.595,19.120 6.400 C 19.120 5.769,18.504 5.261,17.860 5.360 " stroke="none" fill-rule="evenodd"></path></svg>