<svg width="24" height="24" viewBox="0 0 24 24" fill="none" xmlns="http://www.w3.org/2000/svg">
<path fill-rule="evenodd" clip-rule="evenodd" d="M7.75 5.5C6.50736 5.5 5.5 6.50736 5.5 7.75V16.25C5.5 17.4926 6.50736 18.5 7.75 18.5H14.25C15.4926 18.5 16.5 17.4926 16.5 16.25V15.75C16.5 15.3358 16.8358 15 17.25 15C17.6642 15 18 15.3358 18 15.75V16.25C18 18.3211 16.3211 20 14.25 20H7.75C5.67893 20 4 18.3211 4 16.25V7.75C4 5.67893 5.67893 4 7.75 4H10.25C10.6642 4 11 4.33579 11 4.75C11 5.16421 10.6642 5.5 10.25 5.5H7.75ZM15.742 4.73055C16.7161 3.75648 18.2954 3.75648 19.2694 4.73055C20.2435 5.70462 20.2435 7.28389 19.2695 8.25796L15.9863 11.5411C15.6173 11.9101 15.155 12.1718 14.6488 12.2984L11.9319 12.9776C11.6763 13.0415 11.406 12.9666 11.2197 12.7803C11.0334 12.594 10.9585 12.3237 11.0224 12.0681L11.7016 9.35122C11.8282 8.84498 12.0899 8.38265 12.4589 8.01367L15.742 4.73055ZM18.2088 5.79121C17.8205 5.40293 17.191 5.40293 16.8027 5.79121L13.5196 9.07433C13.3428 9.25108 13.2174 9.47253 13.1568 9.71502L12.7808 11.2192L14.285 10.8432C14.5275 10.7826 14.7489 10.6572 14.9257 10.4804L18.2088 7.1973C18.5971 6.80902 18.5971 6.17949 18.2088 5.79121ZM7.75 14.5C7.33579 14.5 7 14.8358 7 15.25C7 15.6642 7.33579 16 7.75 16H14.25C14.6642 16 15 15.6642 15 15.25C15 14.8358 14.6642 14.5 14.25 14.5H7.75ZM7 12.25C7 11.8358 7.33579 11.5 7.75 11.5H9.25C9.66421 11.5 10 11.8358 10 12.25C10 12.6642 9.66421 13 9.25 13H7.75C7.33579 13 7 12.6642 7 12.25ZM7.75 8.5C7.33579 8.5 7 8.83579 7 9.25C7 9.66421 7.33579 10 7.75 10H9.25C9.66421 10 10 9.66421 10 9.25C10 8.83579 9.66421 8.5 9.25 8.5H7.75Z" fill="#2D2D2D"/>
</svg>
