<svg width="24" height="24" viewBox="0 0 24 24" fill="none" xmlns="http://www.w3.org/2000/svg">
<path d="M11.9998 8.14585V7.28937M11.9998 15.8542V16.7107M13.8546 9.43058C13.4843 8.91857 12.7924 8.57409 11.9998 8.57409H11.7619C10.7108 8.57409 9.85864 9.2558 9.85864 10.0967V10.1621C9.85864 10.7636 10.2834 11.3134 10.9559 11.5824L13.0438 12.4176C13.7163 12.6866 14.141 13.2364 14.141 13.8379C14.141 14.7149 13.2523 15.4259 12.156 15.4259H11.9998C11.2073 15.4259 10.5153 15.0814 10.1451 14.5694M19.7082 12C19.7082 16.2572 16.257 19.7084 11.9998 19.7084C7.74265 19.7084 4.2915 16.2572 4.2915 12C4.2915 7.74283 7.74265 4.29169 11.9998 4.29169C16.257 4.29169 19.7082 7.74283 19.7082 12Z" stroke="black" stroke-width="1.25" stroke-linecap="round" stroke-linejoin="round"/>
</svg>
