<svg width="24" height="24" viewBox="0 0 24 24" fill="none" xmlns="http://www.w3.org/2000/svg">
<path d="M5.125 6.45833C5.125 5.99162 5.125 5.75827 5.21582 5.58001C5.29572 5.42321 5.42321 5.29572 5.58001 5.21582C5.75827 5.125 5.99162 5.125 6.45833 5.125H10.5417V8.875H5.125V6.45833Z" stroke="black" stroke-width="1.25" stroke-linecap="round" stroke-linejoin="round"/>
<path d="M13.4585 15.125H18.8752V17.5417C18.8752 18.0084 18.8752 18.2418 18.7843 18.42C18.7044 18.5768 18.577 18.7043 18.4202 18.7842C18.2419 18.875 18.0086 18.875 17.5418 18.875H13.4585V15.125Z" stroke="black" stroke-width="1.25" stroke-linecap="round" stroke-linejoin="round"/>
<path d="M5.125 11.7917H10.5417V18.875H6.45833C5.99162 18.875 5.75827 18.875 5.58001 18.7842C5.42321 18.7043 5.29572 18.5769 5.21582 18.42C5.125 18.2418 5.125 18.0084 5.125 17.5417V11.7917Z" stroke="black" stroke-width="1.25" stroke-linecap="round" stroke-linejoin="round"/>
<path d="M13.4585 5.125H17.5418C18.0086 5.125 18.2419 5.125 18.4202 5.21582C18.577 5.29572 18.7044 5.42321 18.7843 5.58001C18.8752 5.75827 18.8752 5.99162 18.8752 6.45833V12.2083H13.4585V5.125Z" stroke="black" stroke-width="1.25" stroke-linecap="round" stroke-linejoin="round"/>
</svg>
