<svg width="24" height="24" viewBox="0 0 24 24" fill="none" xmlns="http://www.w3.org/2000/svg">
<path fill-rule="evenodd" clip-rule="evenodd" d="M11.749 3.54169C9.86224 3.54169 8.12318 3.7931 6.82998 4.22007C6.18739 4.43223 5.61317 4.70125 5.18405 5.03622C4.76421 5.36395 4.375 5.84534 4.375 6.47871V10.19V13.8075V17.8513C4.375 18.4847 4.76422 18.966 5.18406 19.2938C5.61317 19.6287 6.18739 19.8977 6.82998 20.1099C8.12318 20.5369 9.86224 20.7883 11.749 20.7883C12.2605 20.7883 12.7612 20.7698 13.245 20.7344C12.821 20.3183 12.4707 19.8273 12.2158 19.2827C12.0619 19.2864 11.9062 19.2883 11.749 19.2883C9.97741 19.2883 8.40448 19.0501 7.30026 18.6855C6.74415 18.5019 6.3483 18.2997 6.10703 18.1113C5.90488 17.9535 5.87788 17.8619 5.875 17.8479V15.6784C6.16635 15.8246 6.48851 15.9534 6.82999 16.0661C8.12318 16.4931 9.86225 16.7445 11.749 16.7445C11.754 16.7445 11.759 16.7445 11.7639 16.7445C11.808 16.2156 11.9344 15.7101 12.1302 15.2408C12.0043 15.2432 11.8771 15.2445 11.749 15.2445C9.9774 15.2445 8.40447 15.0063 7.30025 14.6417C6.74414 14.4581 6.3483 14.2559 6.10704 14.0676C5.90485 13.9097 5.87788 13.8181 5.875 13.8041V12.0609C6.16635 12.2071 6.48851 12.3359 6.82999 12.4487C8.12318 12.8756 9.86225 13.127 11.749 13.127C12.521 13.127 13.2683 13.0849 13.9704 13.0059C14.7646 12.4748 15.7194 12.1651 16.7465 12.1651C16.9433 12.1651 17.1374 12.1765 17.3282 12.1986C17.4295 12.1545 17.5279 12.1086 17.623 12.0609V12.2417C18.157 12.3361 18.6618 12.5153 19.123 12.7649V10.19V6.47871C19.123 5.84534 18.7338 5.36395 18.3139 5.03622C17.8848 4.70125 17.3106 4.43223 16.668 4.22007C15.3748 3.79309 13.6357 3.54169 11.749 3.54169ZM6.10704 6.21863C5.91714 6.36686 5.88181 6.45672 5.87582 6.47871C5.88181 6.50071 5.91714 6.59056 6.10704 6.7388C6.34831 6.92713 6.74415 7.12938 7.30026 7.31299C8.40448 7.67757 9.97741 7.91574 11.749 7.91574C13.5206 7.91574 15.0935 7.67757 16.1977 7.31299C16.7538 7.12938 17.1497 6.92714 17.3909 6.7388C17.5808 6.59056 17.6162 6.5007 17.6221 6.47871C17.6162 6.45672 17.5808 6.36686 17.3909 6.21863C17.1497 6.03029 16.7538 5.82805 16.1977 5.64444C15.0935 5.27986 13.5206 5.04169 11.749 5.04169C9.97741 5.04169 8.40448 5.27986 7.30026 5.64444C6.74415 5.82805 6.34831 6.03029 6.10704 6.21863ZM16.668 8.73736C17.0095 8.62462 17.3316 8.49582 17.623 8.34961V10.1866C17.6201 10.2006 17.5931 10.2923 17.3909 10.4501C17.1497 10.6384 16.7538 10.8407 16.1977 11.0243C15.0935 11.3889 13.5206 11.627 11.749 11.627C9.9774 11.627 8.40447 11.3889 7.30026 11.0243C6.74414 10.8407 6.34831 10.6384 6.10704 10.4501C5.90485 10.2923 5.87788 10.2006 5.875 10.1866V8.3496C6.16634 8.49582 6.48851 8.62462 6.82998 8.73736C8.12318 9.16433 9.86224 9.41574 11.749 9.41574C13.6357 9.41574 15.3748 9.16433 16.668 8.73736Z" fill="black"/>
<path d="M18.6 15.9151C18.6 15.9151 17.2697 17.3565 16.6049 19.0185L15.4966 17.6882" stroke="black" stroke-width="1.5" stroke-linecap="round" stroke-linejoin="round"/>
</svg>
