<svg width="24" height="24" viewBox="0 0 24 24" fill="none" xmlns="http://www.w3.org/2000/svg"><path d="M10.190 4.661 C 8.748 4.896,7.542 5.505,6.528 6.513 C 5.275 7.757,4.598 9.387,4.598 11.164 C 4.597 12.090,4.732 12.784,5.081 13.648 C 5.937 15.768,7.831 17.277,10.129 17.667 C 10.584 17.744,11.653 17.753,12.100 17.684 C 13.114 17.526,14.154 17.112,14.931 16.557 L 15.260 16.322 16.760 17.819 C 17.585 18.642,18.311 19.335,18.373 19.358 C 18.530 19.417,18.818 19.410,18.971 19.345 C 19.127 19.278,19.300 19.101,19.357 18.947 C 19.412 18.803,19.412 18.517,19.358 18.373 C 19.335 18.311,18.642 17.585,17.819 16.760 L 16.322 15.260 16.557 14.931 C 17.113 14.154,17.528 13.110,17.683 12.100 C 17.749 11.675,17.749 10.664,17.684 10.240 C 17.255 7.441,15.250 5.326,12.452 4.717 C 11.940 4.606,10.716 4.576,10.190 4.661 M11.686 6.122 C 13.898 6.347,15.671 7.952,16.147 10.161 C 16.249 10.634,16.249 11.685,16.147 12.160 C 15.739 14.068,14.367 15.544,12.524 16.058 C 11.525 16.337,10.415 16.294,9.432 15.940 C 7.799 15.351,6.557 13.915,6.197 12.197 C 6.086 11.669,6.075 10.797,6.172 10.259 C 6.455 8.687,7.480 7.336,8.940 6.609 C 9.796 6.184,10.705 6.022,11.686 6.122 " stroke="none" fill-rule="evenodd" fill="black"></path></svg>