<svg width="24" height="24" viewBox="0 0 24 24" fill="none" xmlns="http://www.w3.org/2000/svg">
<path fill-rule="evenodd" clip-rule="evenodd" d="M11.9995 3C12.4137 3 12.7495 3.33579 12.7495 3.75V5.08677C12.7495 5.50099 12.4137 5.83677 11.9995 5.83677C11.5852 5.83677 11.2495 5.50099 11.2495 5.08677V3.75C11.2495 3.33579 11.5852 3 11.9995 3ZM11.9995 9.85096C10.8129 9.85096 9.851 10.8129 9.851 11.9994C9.851 13.186 10.8129 14.1479 11.9995 14.1479C13.186 14.1479 14.1479 13.186 14.1479 11.9994C14.1479 10.8129 13.186 9.85096 11.9995 9.85096ZM8.351 11.9994C8.351 9.98443 9.98447 8.35096 11.9995 8.35096C14.0144 8.35096 15.6479 9.98443 15.6479 11.9994C15.6479 14.0144 14.0144 15.6479 11.9995 15.6479C9.98447 15.6479 8.351 14.0144 8.351 11.9994ZM17.2112 7.84768C17.504 7.55478 17.504 7.07991 17.2111 6.78702C16.9182 6.49414 16.4434 6.49415 16.1505 6.78705L15.0952 7.84235C14.8023 8.13525 14.8024 8.61012 15.0953 8.90301C15.3882 9.1959 15.863 9.19588 16.1559 8.90298L17.2112 7.84768ZM18.1612 11.9996C18.1612 11.5853 18.4969 11.2496 18.9112 11.2496H20.2479C20.6621 11.2496 20.9979 11.5853 20.9979 11.9996C20.9979 12.4138 20.6621 12.7496 20.2479 12.7496H18.9112C18.4969 12.7496 18.1612 12.4138 18.1612 11.9996ZM16.1559 15.0953C15.863 14.8024 15.3881 14.8024 15.0952 15.0953C14.8023 15.3882 14.8023 15.8631 15.0952 16.156L16.1505 17.2112C16.4434 17.5041 16.9183 17.5041 17.2111 17.2112C17.504 16.9183 17.504 16.4434 17.2111 16.1505L16.1559 15.0953ZM11.9995 18.1611C12.4137 18.1611 12.7495 18.4969 12.7495 18.9111V20.2479C12.7495 20.6621 12.4137 20.9979 11.9995 20.9979C11.5852 20.9979 11.2495 20.6621 11.2495 20.2479V18.9111C11.2495 18.4969 11.5852 18.1611 11.9995 18.1611ZM8.90288 16.1559C9.19578 15.863 9.19579 15.3881 8.9029 15.0952C8.61001 14.8023 8.13514 14.8023 7.84224 15.0952L6.78696 16.1505C6.49406 16.4434 6.49405 16.9182 6.78694 17.2111C7.07983 17.504 7.5547 17.504 7.8476 17.2111L8.90288 16.1559ZM3 11.9996C3 11.5853 3.33579 11.2496 3.75 11.2496H5.08677C5.50099 11.2496 5.83677 11.5853 5.83677 11.9996C5.83677 12.4138 5.50099 12.7496 5.08677 12.7496H3.75C3.33579 12.7496 3 12.4138 3 11.9996ZM7.84762 6.78705C7.55474 6.49415 7.07986 6.49414 6.78696 6.78702C6.49406 7.07991 6.49405 7.55478 6.78693 7.84768L7.84222 8.90302C8.1351 9.19592 8.60998 9.19593 8.90288 8.90305C9.19578 8.61016 9.19579 8.13529 8.9029 7.84238L7.84762 6.78705Z" fill="#2D2D2D"/>
</svg>
