<svg width="24" height="24" viewBox="0 0 24 24" fill="none" xmlns="http://www.w3.org/2000/svg"><path d="M7.640 4.428 C 6.902 4.556,6.110 5.019,5.593 5.627 C 4.796 6.562,4.581 7.924,5.043 9.120 C 5.366 9.959,6.154 10.737,7.002 11.055 C 8.454 11.600,10.076 11.139,10.993 9.922 C 11.947 8.657,11.941 6.970,10.979 5.720 C 10.498 5.093,9.746 4.619,8.983 4.462 C 8.704 4.404,7.896 4.384,7.640 4.428 M14.991 4.464 C 14.649 4.538,14.161 4.743,13.856 4.941 C 13.491 5.179,12.968 5.731,12.764 6.093 C 12.390 6.757,12.225 7.535,12.315 8.213 C 12.622 10.516,14.883 11.868,17.040 11.037 C 17.635 10.808,18.274 10.281,18.655 9.706 C 19.178 8.915,19.338 7.795,19.062 6.861 C 18.717 5.698,17.781 4.794,16.616 4.498 C 16.162 4.383,15.441 4.368,14.991 4.464 M8.732 5.940 C 9.086 6.032,9.355 6.188,9.624 6.456 C 10.007 6.840,10.200 7.303,10.200 7.840 C 10.200 9.319,8.626 10.253,7.313 9.553 C 7.014 9.394,6.645 9.001,6.484 8.673 C 6.048 7.779,6.412 6.628,7.289 6.126 C 7.693 5.895,8.274 5.820,8.732 5.940 M16.237 5.942 C 16.971 6.115,17.584 6.799,17.677 7.550 C 17.758 8.211,17.579 8.748,17.123 9.204 C 16.978 9.350,16.765 9.517,16.650 9.575 C 15.793 10.009,14.746 9.765,14.182 8.999 C 13.953 8.687,13.838 8.375,13.811 7.992 C 13.768 7.382,13.952 6.881,14.376 6.457 C 14.876 5.956,15.531 5.775,16.237 5.942 M7.520 11.924 C 6.586 12.043,5.646 12.430,4.874 13.011 C 4.708 13.135,4.384 13.433,4.154 13.671 C 3.155 14.705,2.510 16.059,2.218 17.732 C 2.140 18.183,2.169 18.432,2.342 18.787 C 2.476 19.063,2.852 19.407,3.149 19.527 L 3.380 19.620 8.059 19.631 C 11.198 19.638,12.804 19.628,12.939 19.600 C 13.638 19.455,14.149 18.894,14.190 18.227 C 14.240 17.411,13.644 15.604,13.001 14.624 C 11.731 12.688,9.630 11.653,7.520 11.924 M15.040 11.936 C 14.441 12.029,13.740 12.249,13.538 12.408 C 13.296 12.599,13.212 13.030,13.360 13.319 C 13.563 13.718,13.924 13.808,14.506 13.607 C 15.313 13.328,16.246 13.319,17.032 13.583 C 18.271 13.999,19.293 15.026,19.860 16.423 C 20.028 16.838,20.240 17.582,20.295 17.950 L 20.321 18.120 18.110 18.120 C 16.713 18.120,15.845 18.136,15.751 18.162 C 15.552 18.217,15.365 18.381,15.275 18.578 C 15.080 19.009,15.321 19.479,15.800 19.599 C 15.927 19.631,16.658 19.640,18.280 19.630 C 20.733 19.614,20.671 19.619,21.064 19.411 C 21.302 19.285,21.619 18.920,21.724 18.650 C 21.885 18.235,21.826 17.660,21.515 16.608 C 20.893 14.505,19.494 12.896,17.696 12.216 C 16.947 11.933,15.822 11.814,15.040 11.936 M9.300 13.537 C 10.673 13.949,11.804 15.132,12.363 16.741 C 12.492 17.113,12.679 17.873,12.680 18.030 L 12.680 18.120 8.180 18.120 C 4.606 18.120,3.680 18.110,3.680 18.070 C 3.681 17.963,3.886 17.124,3.985 16.820 C 4.124 16.395,4.424 15.773,4.677 15.387 C 4.924 15.011,5.520 14.384,5.868 14.136 C 6.351 13.791,6.942 13.534,7.466 13.440 C 7.573 13.421,7.948 13.410,8.300 13.417 C 8.858 13.428,8.986 13.443,9.300 13.537 " stroke="none" fill-rule="evenodd" fill="black"></path></svg>