<svg width="24" height="24" viewBox="0 0 24 24" fill="none" xmlns="http://www.w3.org/2000/svg"><path d="M11.240 3.785 C 9.760 3.964,8.565 4.383,7.480 5.103 C 5.126 6.666,3.760 9.198,3.760 12.000 C 3.760 13.842,4.328 15.531,5.445 17.009 C 5.766 17.434,6.566 18.234,6.991 18.555 C 9.747 20.636,13.444 20.811,16.366 18.999 C 17.371 18.375,18.375 17.371,18.999 16.366 C 19.824 15.036,20.240 13.571,20.240 12.000 C 20.240 7.946,17.345 4.540,13.320 3.858 C 12.955 3.796,11.553 3.747,11.240 3.785 M12.920 5.326 C 14.753 5.551,16.547 6.665,17.583 8.223 C 18.364 9.397,18.728 10.597,18.728 12.000 C 18.728 13.135,18.490 14.138,17.998 15.075 C 16.956 17.060,15.162 18.340,12.940 18.683 C 12.528 18.747,11.472 18.747,11.060 18.683 C 9.936 18.509,8.846 18.066,8.020 17.445 C 6.521 16.319,5.576 14.736,5.320 12.920 C 5.258 12.483,5.258 11.517,5.320 11.080 C 5.804 7.646,8.806 5.125,12.240 5.270 C 12.427 5.278,12.733 5.303,12.920 5.326 M11.700 7.986 C 11.514 8.084,11.396 8.205,11.316 8.380 C 11.247 8.528,11.242 8.674,11.241 10.300 C 11.241 11.441,11.256 12.116,11.284 12.220 C 11.320 12.353,11.519 12.573,12.474 13.534 C 13.639 14.708,13.797 14.837,14.071 14.839 C 14.233 14.840,14.467 14.746,14.595 14.628 C 14.724 14.510,14.838 14.252,14.838 14.080 C 14.838 13.805,14.711 13.642,13.724 12.660 L 12.760 11.701 12.760 10.129 C 12.760 8.441,12.754 8.388,12.548 8.167 C 12.333 7.936,11.950 7.855,11.700 7.986 " stroke="none" fill-rule="evenodd" fill="black"></path></svg>