<svg width="24" height="24" viewBox="0 0 24 24" fill="none" xmlns="http://www.w3.org/2000/svg"><path d="M11.240 3.785 C 9.760 3.964,8.565 4.383,7.480 5.103 C 5.126 6.666,3.760 9.198,3.760 12.000 C 3.760 13.842,4.328 15.531,5.445 17.009 C 5.766 17.434,6.566 18.234,6.991 18.555 C 9.747 20.636,13.444 20.811,16.366 18.999 C 17.371 18.375,18.375 17.371,18.999 16.366 C 19.824 15.036,20.240 13.571,20.240 12.000 C 20.240 7.946,17.345 4.540,13.320 3.858 C 12.955 3.796,11.553 3.747,11.240 3.785 M12.920 5.326 C 14.753 5.551,16.547 6.665,17.583 8.223 C 18.364 9.397,18.728 10.597,18.728 12.000 C 18.728 13.135,18.490 14.138,17.998 15.075 C 16.956 17.060,15.162 18.340,12.940 18.683 C 12.528 18.747,11.472 18.747,11.060 18.683 C 9.936 18.509,8.846 18.066,8.020 17.445 C 6.521 16.319,5.576 14.736,5.320 12.920 C 5.258 12.483,5.258 11.517,5.320 11.080 C 5.804 7.646,8.806 5.125,12.240 5.270 C 12.427 5.278,12.733 5.303,12.920 5.326 M10.814 7.960 C 10.455 8.034,10.086 8.289,9.861 8.616 C 9.659 8.911,9.587 9.185,9.584 9.680 C 9.581 10.057,9.591 10.118,9.680 10.274 C 9.814 10.509,10.069 10.657,10.340 10.657 C 10.582 10.657,10.759 10.565,10.934 10.348 C 11.047 10.208,11.058 10.169,11.073 9.818 L 11.090 9.440 12.006 9.440 L 12.923 9.440 12.911 9.910 L 12.900 10.380 12.360 10.788 C 11.394 11.517,11.265 11.726,11.262 12.566 C 11.260 13.066,11.262 13.075,11.380 13.243 C 11.692 13.685,12.307 13.687,12.618 13.246 C 12.722 13.099,12.737 13.039,12.752 12.722 L 12.770 12.364 13.381 11.902 C 14.026 11.415,14.186 11.243,14.327 10.882 C 14.404 10.685,14.414 10.580,14.416 9.960 C 14.418 9.148,14.371 8.929,14.120 8.595 C 13.922 8.332,13.742 8.185,13.452 8.049 L 13.220 7.940 12.100 7.933 C 11.484 7.929,10.905 7.941,10.814 7.960 M11.620 14.698 C 11.414 14.823,11.287 15.016,11.255 15.251 C 11.234 15.404,11.248 15.475,11.334 15.649 C 11.483 15.951,11.659 16.060,12.000 16.060 C 12.218 16.060,12.293 16.042,12.414 15.960 C 12.575 15.850,12.760 15.530,12.760 15.358 C 12.760 14.781,12.106 14.402,11.620 14.698 " stroke="none" fill-rule="evenodd" fill="black"></path></svg>