<svg width="24" height="24" viewBox="0 0 24 24" fill="none" xmlns="http://www.w3.org/2000/svg"><path d="M10.780 4.425 C 10.273 4.476,9.437 4.615,9.020 4.717 C 5.719 5.528,3.627 7.727,3.196 10.840 C 3.116 11.415,3.125 12.465,3.213 12.880 C 3.366 13.598,3.594 14.344,3.925 15.209 C 4.099 15.661,4.120 15.752,4.119 16.029 C 4.118 16.624,3.939 17.112,3.441 17.876 C 3.131 18.351,3.083 18.505,3.159 18.776 C 3.257 19.127,3.665 19.369,4.419 19.525 C 5.288 19.704,6.317 19.533,7.326 19.042 L 7.662 18.879 7.917 18.979 C 9.457 19.582,11.853 19.790,13.880 19.497 C 17.775 18.932,20.251 16.697,20.789 13.260 C 20.884 12.654,20.884 11.346,20.789 10.740 C 20.255 7.328,17.832 5.119,13.960 4.515 C 13.514 4.445,13.205 4.429,12.180 4.420 C 11.498 4.414,10.868 4.416,10.780 4.425 M13.160 5.938 C 16.168 6.208,18.283 7.621,19.043 9.869 C 19.279 10.568,19.340 11.003,19.340 12.000 C 19.340 12.997,19.279 13.432,19.043 14.131 C 18.496 15.749,17.229 16.959,15.411 17.601 C 14.314 17.988,13.136 18.146,11.627 18.108 C 10.073 18.068,9.124 17.886,8.105 17.430 C 7.631 17.218,7.459 17.228,7.036 17.491 C 6.528 17.808,5.821 18.053,5.310 18.090 C 5.183 18.099,5.080 18.103,5.080 18.099 C 5.080 18.095,5.141 17.958,5.216 17.796 C 5.524 17.124,5.666 16.445,5.629 15.818 C 5.606 15.435,5.601 15.417,5.171 14.240 C 4.951 13.635,4.746 12.919,4.676 12.504 C 4.617 12.154,4.650 11.185,4.737 10.710 C 5.174 8.316,6.963 6.656,9.709 6.097 C 10.706 5.894,12.000 5.834,13.160 5.938 M8.054 11.197 C 7.679 11.291,7.427 11.614,7.427 12.000 C 7.427 12.707,8.259 13.092,8.787 12.629 C 9.327 12.154,9.065 11.268,8.360 11.186 C 8.261 11.175,8.123 11.179,8.054 11.197 M11.800 11.195 C 11.332 11.347,11.080 11.761,11.194 12.190 C 11.417 13.032,12.583 13.032,12.806 12.190 C 12.899 11.840,12.721 11.444,12.398 11.279 C 12.216 11.186,11.945 11.148,11.800 11.195 M15.527 11.198 C 15.337 11.245,15.115 11.436,15.010 11.641 C 14.841 11.972,14.923 12.374,15.213 12.629 C 15.741 13.092,16.573 12.707,16.573 12.000 C 16.573 11.462,16.057 11.067,15.527 11.198 " stroke="none" fill-rule="evenodd" fill="black"></path></svg>