<svg width="24" height="24" viewBox="0 0 24 24" fill="none" xmlns="http://www.w3.org/2000/svg">
<path fill-rule="evenodd" clip-rule="evenodd" d="M15.2803 6.70495C14.8217 7.5637 14.5 8.75425 14.5 10C14.5 11.2457 14.8217 12.4363 15.2803 13.2951C15.5097 13.7246 15.7589 14.0442 15.9927 14.2473C16.0969 14.3378 16.1887 14.3977 16.2672 14.4362L16.2843 14.4398L16.555 14.4956C16.6572 14.48 16.8101 14.4187 17.0073 14.2473C17.2411 14.0442 17.4903 13.7246 17.7197 13.2951C18.1783 12.4363 18.5 11.2457 18.5 10C18.5 8.75425 18.1783 7.5637 17.7197 6.70495C17.4903 6.27539 17.2411 5.95579 17.0073 5.75271C16.8101 5.58131 16.6572 5.52004 16.555 5.50441L16.2843 5.56022L16.2672 5.56375C16.1887 5.60234 16.0969 5.66215 15.9927 5.75271C15.7589 5.95579 15.5097 6.27539 15.2803 6.70495ZM13 10C13 11.4612 13.3671 12.8751 13.9315 13.9532C13.4101 13.845 12.848 13.7283 12.278 13.6095C10.016 13.1383 7.66309 12.6427 7.1819 12.5224C6.8853 12.4482 6.45686 12.1797 6.09498 11.7081C5.74322 11.2498 5.5 10.6568 5.5 10C5.5 9.34319 5.74322 8.75022 6.09498 8.29186C6.45686 7.82031 6.8853 7.55176 7.1819 7.47761C7.66309 7.35731 10.016 6.86173 12.278 6.39049C12.848 6.27173 13.4101 6.15497 13.9315 6.04683C13.3671 7.12494 13 8.53882 13 10ZM15.0044 15.7071L15.8243 15.8764C16.0364 15.9545 16.2624 16 16.5 16C17.0769 16 17.5855 15.732 17.9911 15.3796C18.3996 15.0247 18.7535 14.5435 19.0428 14.0017C19.6217 12.9176 20 11.4832 20 10C20 8.51681 19.6217 7.08237 19.0428 5.99835C18.7535 5.45652 18.3996 4.9753 17.9911 4.62041C17.5855 4.26797 17.0769 4 16.5 4C16.2624 4 16.0364 4.04546 15.8243 4.12356L15.0044 4.29287C14.1917 4.46089 13.0975 4.68754 11.972 4.92201C9.73399 5.38827 7.33691 5.89269 6.8181 6.02239C6.1147 6.19824 5.41814 6.71001 4.90502 7.37864C4.38178 8.06044 4 8.96746 4 10C4 11.0325 4.38178 11.9396 4.90502 12.6214C5.2158 13.0263 5.59387 13.3738 6 13.6239V17.25C6 18.7688 7.23122 20 8.75 20H9.25C10.7688 20 12 18.7688 12 17.25V15.0838C13.1156 15.3162 14.1984 15.5405 15.0044 15.7071ZM10.5 14.7705C9.31119 14.5213 8.20548 14.2873 7.5 14.1327V17.25C7.5 17.9404 8.05964 18.5 8.75 18.5H9.25C9.94036 18.5 10.5 17.9404 10.5 17.25V14.7705Z" fill="#0E1438"/>
</svg>
