<svg width="24" height="24" viewBox="0 0 24 24" fill="none" xmlns="http://www.w3.org/2000/svg"><path d="M9.420 6.259 C 9.398 6.267,9.331 6.284,9.271 6.297 C 9.211 6.310,9.095 6.379,9.015 6.450 C 8.595 6.818,8.699 7.443,9.220 7.684 C 9.371 7.754,9.543 7.758,12.280 7.759 L 15.180 7.760 10.869 12.071 C 6.897 16.043,6.553 16.398,6.500 16.573 C 6.369 17.009,6.648 17.450,7.108 17.534 C 7.179 17.547,7.322 17.531,7.427 17.500 C 7.602 17.447,7.957 17.103,11.929 13.131 L 16.240 8.820 16.241 11.720 C 16.242 14.457,16.246 14.629,16.316 14.780 C 16.602 15.399,17.398 15.399,17.684 14.780 C 17.755 14.628,17.758 14.433,17.759 10.780 C 17.759 8.259,17.745 6.889,17.718 6.791 C 17.668 6.612,17.515 6.422,17.345 6.329 C 17.230 6.265,16.921 6.259,13.340 6.253 C 11.206 6.249,9.442 6.252,9.420 6.259 " stroke="none" fill-rule="evenodd" fill="black"></path></svg>