<svg width="24" height="24" viewBox="0 0 24 24" fill="none" xmlns="http://www.w3.org/2000/svg"><path d="M7.775 9.428 C 7.647 9.453,7.357 9.717,7.295 9.866 C 7.219 10.047,7.228 10.270,7.316 10.460 C 7.367 10.568,8.007 11.233,9.285 12.505 C 11.079 14.290,11.193 14.394,11.420 14.479 C 11.862 14.643,12.302 14.626,12.700 14.430 C 12.927 14.318,16.584 10.674,16.684 10.460 C 16.772 10.270,16.781 10.047,16.705 9.866 C 16.622 9.667,16.343 9.448,16.131 9.417 C 15.741 9.358,15.780 9.327,13.810 11.293 L 12.000 13.099 10.210 11.311 C 8.982 10.084,8.373 9.504,8.271 9.461 C 8.129 9.403,7.960 9.391,7.775 9.428 " stroke="none" fill-rule="evenodd" fill="black"></path></svg>