<svg width="24" height="24" viewBox="0 0 24 24" fill="none" xmlns="http://www.w3.org/2000/svg"><path d="M16.000 3.884 C 15.923 3.906,13.996 4.500,11.717 5.203 C 9.439 5.905,7.543 6.480,7.505 6.480 C 7.466 6.480,7.350 6.516,7.247 6.560 C 7.144 6.604,6.502 6.812,5.820 7.022 C 5.138 7.232,4.504 7.441,4.411 7.485 C 3.973 7.695,3.643 8.159,3.561 8.680 C 3.507 9.029,3.507 13.337,3.562 13.674 C 3.614 13.995,3.755 14.275,3.993 14.529 C 4.229 14.782,4.401 14.868,5.140 15.099 C 5.470 15.202,5.994 15.366,6.305 15.463 L 6.871 15.640 6.890 16.330 C 6.905 16.903,6.924 17.068,6.999 17.300 C 7.353 18.395,8.232 19.245,9.300 19.525 C 9.749 19.642,10.497 19.643,10.928 19.527 C 11.807 19.290,12.591 18.670,12.988 17.896 C 13.072 17.734,13.161 17.600,13.187 17.600 C 13.213 17.600,13.849 17.790,14.602 18.023 C 15.355 18.256,16.068 18.462,16.187 18.481 C 16.818 18.584,17.518 18.191,17.812 17.570 L 17.940 17.300 17.952 15.813 L 17.964 14.325 18.084 14.299 C 18.516 14.204,19.097 13.858,19.498 13.458 C 20.136 12.820,20.439 12.086,20.439 11.180 C 20.438 10.226,20.173 9.579,19.500 8.897 C 19.097 8.488,18.740 8.256,18.266 8.093 L 17.960 7.988 17.959 6.624 C 17.959 5.147,17.938 4.955,17.747 4.629 C 17.608 4.391,17.289 4.109,17.008 3.975 C 16.831 3.890,16.709 3.864,16.460 3.854 C 16.284 3.848,16.077 3.861,16.000 3.884 M16.440 11.158 C 16.440 14.462,16.425 16.965,16.405 16.977 C 16.385 16.989,14.572 16.444,12.375 15.766 L 8.380 14.532 8.370 11.167 L 8.360 7.802 8.570 7.741 C 8.685 7.707,10.463 7.158,12.520 6.522 C 14.577 5.885,16.300 5.363,16.350 5.362 L 16.440 5.360 16.440 11.158 M6.880 11.160 C 6.880 13.438,6.870 14.040,6.830 14.039 C 6.747 14.038,5.109 13.525,5.073 13.489 C 5.054 13.470,5.044 12.414,5.050 11.141 L 5.060 8.827 5.920 8.557 C 6.393 8.409,6.803 8.286,6.830 8.284 C 6.870 8.281,6.880 8.881,6.880 11.160 M18.482 9.990 C 18.967 10.520,19.079 11.276,18.768 11.932 C 18.619 12.246,18.153 12.719,17.990 12.720 C 17.973 12.720,17.960 12.017,17.960 11.157 L 17.960 9.595 18.125 9.687 C 18.216 9.738,18.376 9.875,18.482 9.990 M10.052 16.617 C 10.928 16.889,11.656 17.122,11.669 17.136 C 11.682 17.149,11.627 17.256,11.546 17.374 C 11.041 18.108,10.049 18.335,9.265 17.897 C 9.006 17.752,8.694 17.419,8.560 17.144 C 8.400 16.816,8.297 16.118,8.410 16.121 C 8.438 16.122,9.177 16.345,10.052 16.617 " stroke="none" fill-rule="evenodd" fill="black"></path></svg>