<svg width="24" height="24" viewBox="0 0 24 24" fill="none" xmlns="http://www.w3.org/2000/svg">
<path d="M9.73049 5.79397C9.58933 5.51165 9.30078 5.33331 8.98514 5.33331H6.16683C5.7066 5.33331 5.3335 5.70641 5.3335 6.16665V6.99998C5.3335 13.4433 10.5568 18.6666 17.0002 18.6666H17.8335C18.2937 18.6666 18.6668 18.2936 18.6668 17.8333V15.015C18.6668 14.6994 18.4885 14.4108 18.2062 14.2696L15.8707 13.1019C15.5499 12.9415 15.1624 13.0044 14.9087 13.2581L14.4721 13.6947C14.2363 13.9305 13.8809 14.0061 13.5787 13.8656C11.9569 13.111 10.8892 12.0432 10.1346 10.4215C9.99398 10.1192 10.0697 9.76381 10.3054 9.5281L10.7421 9.09135C10.9957 8.83772 11.0587 8.45025 10.8982 8.12942L9.73049 5.79397Z" stroke="black" stroke-width="1.25" stroke-linejoin="round"/>
</svg>
