<svg width="24" height="24" viewBox="0 0 24 24" fill="none" xmlns="http://www.w3.org/2000/svg">
<path fill-rule="evenodd" clip-rule="evenodd" d="M10.5 4.75C10.5 4.33579 10.1642 4 9.75 4C9.33579 4 9 4.33579 9 4.75V7H5.75C5.33579 7 5 7.33579 5 7.75V16.6286C4.38925 17.133 4 17.896 4 18.75V19.25C4 19.6642 4.33579 20 4.75 20H19.25C19.6642 20 20 19.6642 20 19.25V18.75C20 17.896 19.6108 17.133 19 16.6286V7.75C19 7.33579 18.6642 7 18.25 7H15V4.75C15 4.33579 14.6642 4 14.25 4C13.8358 4 13.5 4.33579 13.5 4.75V7H10.5V4.75ZM17.5 12.876V16.0112C17.4177 16.0038 17.3343 16 17.25 16H6.75C6.66573 16 6.58234 16.0038 6.5 16.0112V13.178C6.83874 13.2619 7.27794 13.3525 7.78799 13.4161C8.98772 13.5659 10.6204 13.5716 12.2646 12.9518C13.6048 12.4466 14.9721 12.4408 16.0263 12.5724C16.5499 12.6377 16.9861 12.7357 17.2888 12.8165C17.3691 12.8379 17.4398 12.8581 17.5 12.876ZM17.5 11.322V8.5H6.5V11.6241C6.56016 11.642 6.63086 11.6621 6.71121 11.6836C7.01385 11.7644 7.45009 11.8623 7.97373 11.9277C9.02791 12.0592 10.3952 12.0535 11.7354 11.5482C13.3796 10.9284 15.0123 10.9342 16.212 11.0839C16.7221 11.1475 17.1613 11.2381 17.5 11.322ZM5.525 18.5H18.475C18.3592 17.9294 17.8547 17.5 17.25 17.5H6.75C6.14526 17.5 5.64082 17.9294 5.525 18.5Z" fill="#2D2D2D"/>
</svg>
