<svg width="24" height="24" viewBox="0 0 24 24" fill="none" xmlns="http://www.w3.org/2000/svg">
<path d="M21.8393 5.89389C21.1146 6.21572 20.3362 6.4323 19.5191 6.52998C20.3536 6.0302 20.9935 5.23887 21.2949 4.29533C20.5149 4.75801 19.6501 5.09423 18.7293 5.27597C17.9925 4.4907 16.9429 4 15.7813 4C13.5504 4 11.7421 5.80908 11.7421 8.03919C11.7421 8.35572 11.7785 8.66468 11.8466 8.95925C8.48972 8.79114 5.51371 7.18273 3.52062 4.73832C3.1738 5.33504 2.97464 6.02868 2.97464 6.77003C2.97464 8.17095 3.68722 9.40754 4.77085 10.1315C4.10901 10.1103 3.48579 9.92853 2.94132 9.62639C2.94132 9.64381 2.94132 9.65971 2.94132 9.67713C2.94132 11.6346 4.33315 13.2673 6.18161 13.6376C5.84312 13.7299 5.48569 13.7792 5.11691 13.7792C4.85717 13.7792 4.60349 13.7534 4.35739 13.7072C4.87156 15.3118 6.36335 16.4803 8.13078 16.5128C6.74879 17.5965 5.00711 18.2424 3.11398 18.2424C2.78836 18.2424 2.46653 18.2235 2.14999 18.1856C3.93787 19.3313 6.06045 20 8.34205 20C15.7722 20 19.8341 13.845 19.8341 8.50717C19.8341 8.33224 19.8303 8.15808 19.8228 7.98467C20.6126 7.41445 21.2979 6.70339 21.8393 5.89389Z" fill="#2D2D2D"/>
</svg>
