<svg width="24" height="24" viewBox="0 0 24 24" fill="none" xmlns="http://www.w3.org/2000/svg"><path d="M10.840 4.861 C 9.062 5.098,7.352 5.835,5.804 7.031 C 5.331 7.396,4.088 8.650,3.694 9.160 C 3.280 9.695,2.712 10.544,2.540 10.882 C 2.334 11.289,2.265 11.569,2.265 12.000 C 2.265 12.622,2.410 12.987,3.021 13.900 C 3.594 14.755,3.979 15.221,4.759 16.001 C 5.814 17.055,6.552 17.595,7.760 18.195 C 9.149 18.885,10.479 19.200,12.000 19.200 C 13.541 19.200,14.860 18.884,16.280 18.174 C 17.480 17.573,18.204 17.041,19.261 15.982 C 19.657 15.585,20.128 15.071,20.306 14.840 C 20.719 14.306,21.288 13.457,21.459 13.120 C 21.830 12.389,21.843 11.690,21.501 10.969 C 21.334 10.617,20.755 9.741,20.306 9.160 C 19.912 8.650,18.669 7.396,18.196 7.031 C 16.716 5.888,15.105 5.166,13.438 4.899 C 12.864 4.807,11.403 4.785,10.840 4.861 M12.584 6.321 C 13.733 6.413,14.610 6.661,15.651 7.188 C 16.656 7.697,17.308 8.180,18.201 9.077 C 19.014 9.893,19.721 10.810,20.105 11.547 C 20.346 12.008,20.288 12.239,19.719 13.086 C 19.233 13.809,18.856 14.266,18.201 14.923 C 17.161 15.967,16.156 16.660,15.020 17.115 C 12.489 18.129,9.832 17.851,7.502 16.331 C 6.817 15.884,6.481 15.607,5.817 14.943 C 5.176 14.301,4.756 13.793,4.281 13.086 C 3.712 12.239,3.654 12.008,3.895 11.547 C 4.061 11.228,4.436 10.668,4.835 10.140 C 5.204 9.653,6.342 8.502,6.780 8.172 C 8.262 7.058,9.757 6.451,11.340 6.324 C 11.926 6.276,12.018 6.276,12.584 6.321 M11.580 8.504 C 10.021 8.735,8.828 9.857,8.542 11.362 C 8.087 13.758,10.241 15.913,12.637 15.458 C 14.022 15.196,15.086 14.173,15.444 12.760 C 15.518 12.468,15.518 11.532,15.444 11.240 C 15.106 9.906,14.165 8.942,12.860 8.594 C 12.587 8.521,11.826 8.468,11.580 8.504 M12.729 10.116 C 13.225 10.309,13.692 10.776,13.884 11.271 C 14.018 11.615,14.037 12.225,13.925 12.593 C 13.571 13.759,12.237 14.349,11.144 13.823 C 10.415 13.472,10.000 12.812,10.000 12.000 C 10.000 11.097,10.535 10.357,11.392 10.075 C 11.716 9.968,12.405 9.989,12.729 10.116 " stroke="none" fill-rule="evenodd" fill="black"></path></svg>