<svg width="20" height="20" viewBox="0 0 20 20" fill="none" xmlns="http://www.w3.org/2000/svg">
<mask id="path-1-outside-1_1607_35" maskUnits="userSpaceOnUse" x="0.399994" y="1" width="19" height="18" fill="black">
<rect fill="white" x="0.399994" y="1" width="19" height="18"/>
<path fill-rule="evenodd" clip-rule="evenodd" d="M6.19999 6C6.19999 3.79531 7.99531 2 10.2 2C12.4047 2 14.2 3.79531 14.2 6C14.2 6.40938 14.1406 6.80156 14.025 7.175L13.2625 6.9375C13.3547 6.63906 13.4 6.32969 13.4 6C13.4 4.22813 11.9719 2.8 10.2 2.8C8.42812 2.8 6.99999 4.22813 6.99999 6C6.99999 7.17656 7.63281 8.20625 8.57499 8.7625L8.92499 8.9625L8.71249 9.3125L6.53749 12.8875C6.62812 12.9812 6.72031 13.0844 6.78749 13.2C7.00156 13.5703 7.06093 14 6.94999 14.4125C6.83906 14.825 6.57031 15.1734 6.19999 15.3875C5.94843 15.5328 5.67187 15.6 5.39999 15.6C4.84687 15.6 4.30781 15.3125 4.01249 14.8C3.57187 14.0359 3.83593 13.0547 4.59999 12.6125C4.97031 12.4 5.39999 12.3391 5.81249 12.45C5.82019 12.4521 5.8279 12.4539 5.83546 12.4556C5.84477 12.4578 5.85387 12.4599 5.86249 12.4625L7.83749 9.2C6.85312 8.47031 6.19999 7.31563 6.19999 6ZM8.59999 6C8.59999 5.11719 9.31718 4.4 10.2 4.4C11.0828 4.4 11.8 5.11719 11.8 6C11.8 6.46094 11.6 6.87031 11.2875 7.1625L13.05 10.35C13.5312 10.1453 14.0453 10 14.6 10C16.8047 10 18.6 11.7953 18.6 14C18.6 16.2047 16.8047 18 14.6 18C13.525 18 12.5437 17.5672 11.825 16.875L12.375 16.3C12.9516 16.8547 13.7359 17.2 14.6 17.2C16.3719 17.2 17.8 15.7719 17.8 14C17.8 12.2281 16.3719 10.8 14.6 10.8C14.0391 10.8 13.5203 10.9469 13.0625 11.2L12.7 11.3875L12.5125 11.0375L10.5875 7.55C10.4641 7.58125 10.3328 7.6 10.2 7.6C9.31718 7.6 8.59999 6.88281 8.59999 6ZM1.39999 14C1.39999 12.1297 2.68281 10.5469 4.42499 10.1125L4.62499 10.9C3.23437 11.2469 2.19999 12.4969 2.19999 14C2.19999 15.7719 3.62812 17.2 5.39999 17.2C7.17187 17.2 8.59999 15.7719 8.59999 14V13.6H13.0625C13.2406 12.9109 13.8562 12.4 14.6 12.4C15.4828 12.4 16.2 13.1172 16.2 14C16.2 14.8828 15.4828 15.6 14.6 15.6C13.8562 15.6 13.2406 15.0891 13.0625 14.4H9.32499C9.11406 16.4078 7.46249 18 5.39999 18C3.19531 18 1.39999 16.2047 1.39999 14Z"/>
</mask>
<path fill-rule="evenodd" clip-rule="evenodd" d="M6.19999 6C6.19999 3.79531 7.99531 2 10.2 2C12.4047 2 14.2 3.79531 14.2 6C14.2 6.40938 14.1406 6.80156 14.025 7.175L13.2625 6.9375C13.3547 6.63906 13.4 6.32969 13.4 6C13.4 4.22813 11.9719 2.8 10.2 2.8C8.42812 2.8 6.99999 4.22813 6.99999 6C6.99999 7.17656 7.63281 8.20625 8.57499 8.7625L8.92499 8.9625L8.71249 9.3125L6.53749 12.8875C6.62812 12.9812 6.72031 13.0844 6.78749 13.2C7.00156 13.5703 7.06093 14 6.94999 14.4125C6.83906 14.825 6.57031 15.1734 6.19999 15.3875C5.94843 15.5328 5.67187 15.6 5.39999 15.6C4.84687 15.6 4.30781 15.3125 4.01249 14.8C3.57187 14.0359 3.83593 13.0547 4.59999 12.6125C4.97031 12.4 5.39999 12.3391 5.81249 12.45C5.82019 12.4521 5.8279 12.4539 5.83546 12.4556C5.84477 12.4578 5.85387 12.4599 5.86249 12.4625L7.83749 9.2C6.85312 8.47031 6.19999 7.31563 6.19999 6ZM8.59999 6C8.59999 5.11719 9.31718 4.4 10.2 4.4C11.0828 4.4 11.8 5.11719 11.8 6C11.8 6.46094 11.6 6.87031 11.2875 7.1625L13.05 10.35C13.5312 10.1453 14.0453 10 14.6 10C16.8047 10 18.6 11.7953 18.6 14C18.6 16.2047 16.8047 18 14.6 18C13.525 18 12.5437 17.5672 11.825 16.875L12.375 16.3C12.9516 16.8547 13.7359 17.2 14.6 17.2C16.3719 17.2 17.8 15.7719 17.8 14C17.8 12.2281 16.3719 10.8 14.6 10.8C14.0391 10.8 13.5203 10.9469 13.0625 11.2L12.7 11.3875L12.5125 11.0375L10.5875 7.55C10.4641 7.58125 10.3328 7.6 10.2 7.6C9.31718 7.6 8.59999 6.88281 8.59999 6ZM1.39999 14C1.39999 12.1297 2.68281 10.5469 4.42499 10.1125L4.62499 10.9C3.23437 11.2469 2.19999 12.4969 2.19999 14C2.19999 15.7719 3.62812 17.2 5.39999 17.2C7.17187 17.2 8.59999 15.7719 8.59999 14V13.6H13.0625C13.2406 12.9109 13.8562 12.4 14.6 12.4C15.4828 12.4 16.2 13.1172 16.2 14C16.2 14.8828 15.4828 15.6 14.6 15.6C13.8562 15.6 13.2406 15.0891 13.0625 14.4H9.32499C9.11406 16.4078 7.46249 18 5.39999 18C3.19531 18 1.39999 16.2047 1.39999 14Z" fill="black"/>
<path d="M14.025 7.175L13.9655 7.36595L14.1568 7.42553L14.216 7.23415L14.025 7.175ZM13.2625 6.9375L13.0714 6.87847L13.0125 7.06911L13.203 7.12845L13.2625 6.9375ZM8.57499 8.7625L8.4733 8.93474L8.47577 8.93615L8.57499 8.7625ZM8.92499 8.9625L9.09595 9.0663L9.20254 8.89075L9.02422 8.78885L8.92499 8.9625ZM8.71249 9.3125L8.88336 9.41645L8.88345 9.4163L8.71249 9.3125ZM6.53749 12.8875L6.36663 12.7835L6.28637 12.9155L6.3937 13.0265L6.53749 12.8875ZM6.78749 13.2L6.96065 13.0999L6.96042 13.0995L6.78749 13.2ZM6.94999 14.4125L7.14313 14.4644L6.94999 14.4125ZM6.19999 15.3875L6.30003 15.5607L6.30009 15.5607L6.19999 15.3875ZM4.01249 14.8L4.18578 14.7001L4.18575 14.7001L4.01249 14.8ZM4.59999 12.6125L4.50045 12.439L4.49981 12.4394L4.59999 12.6125ZM5.81249 12.45L5.86513 12.2571L5.86444 12.2569L5.81249 12.45ZM5.83546 12.4556L5.88066 12.2608L5.88065 12.2608L5.83546 12.4556ZM5.86249 12.4625L5.80502 12.6541L5.95338 12.6986L6.03359 12.5661L5.86249 12.4625ZM7.83749 9.2L8.00859 9.30357L8.1029 9.14778L7.95659 9.03933L7.83749 9.2ZM11.2875 7.1625L11.1509 7.01641L11.037 7.12287L11.1125 7.25928L11.2875 7.1625ZM13.05 10.35L12.875 10.4468L12.9623 10.6047L13.1283 10.534L13.05 10.35ZM11.825 16.875L11.6805 16.7368L11.5427 16.8808L11.6863 17.0191L11.825 16.875ZM12.375 16.3L12.5137 16.1559L12.3691 16.0168L12.2305 16.1618L12.375 16.3ZM13.0625 11.2L13.1544 11.3777L13.1593 11.375L13.0625 11.2ZM12.7 11.3875L12.5237 11.4819L12.6168 11.6557L12.7919 11.5651L12.7 11.3875ZM12.5125 11.0375L12.6888 10.943L12.6876 10.9409L12.5125 11.0375ZM10.5875 7.55L10.7626 7.45335L10.688 7.31824L10.5384 7.35612L10.5875 7.55ZM4.42499 10.1125L4.61884 10.0633L4.56982 9.87027L4.37661 9.91844L4.42499 10.1125ZM4.62499 10.9L4.6734 11.0941L4.86828 11.0454L4.81884 10.8508L4.62499 10.9ZM8.59999 13.6V13.4H8.39999V13.6H8.59999ZM13.0625 13.6V13.8H13.2174L13.2561 13.6501L13.0625 13.6ZM13.0625 14.4L13.2561 14.3499L13.2174 14.2H13.0625V14.4ZM9.32499 14.4V14.2H9.1449L9.12609 14.3791L9.32499 14.4ZM10.2 1.8C7.88485 1.8 5.99999 3.68486 5.99999 6H6.39999C6.39999 3.90577 8.10576 2.2 10.2 2.2V1.8ZM14.4 6C14.4 3.68486 12.5151 1.8 10.2 1.8V2.2C12.2942 2.2 14 3.90577 14 6H14.4ZM14.216 7.23415C14.3377 6.84113 14.4 6.42897 14.4 6H14C14 6.38978 13.9435 6.762 13.8339 7.11585L14.216 7.23415ZM13.203 7.12845L13.9655 7.36595L14.0845 6.98405L13.322 6.74655L13.203 7.12845ZM13.2 6C13.2 6.31083 13.1574 6.60023 13.0714 6.87847L13.4536 6.99653C13.552 6.6779 13.6 6.34854 13.6 6H13.2ZM10.2 3C11.8614 3 13.2 4.33858 13.2 6H13.6C13.6 4.11767 12.0823 2.6 10.2 2.6V3ZM7.19999 6C7.19999 4.33858 8.53858 3 10.2 3V2.6C8.31766 2.6 6.79999 4.11767 6.79999 6H7.19999ZM8.67667 8.59028C7.79316 8.06866 7.19999 7.10322 7.19999 6H6.79999C6.79999 7.24991 7.47246 8.34384 8.47332 8.93473L8.67667 8.59028ZM9.02422 8.78885L8.67422 8.58885L8.47577 8.93615L8.82577 9.13615L9.02422 8.78885ZM8.88345 9.4163L9.09595 9.0663L8.75404 8.8587L8.54154 9.2087L8.88345 9.4163ZM6.70836 12.9915L8.88336 9.41645L8.54163 9.20855L6.36663 12.7835L6.70836 12.9915ZM6.96042 13.0995C6.88048 12.962 6.77411 12.8445 6.68129 12.7485L6.3937 13.0265C6.48213 13.118 6.56013 13.2068 6.61457 13.3005L6.96042 13.0995ZM7.14313 14.4644C7.26814 13.9996 7.20078 13.5153 6.96065 13.0999L6.61434 13.3001C6.80233 13.6253 6.85372 14.0004 6.75686 14.3606L7.14313 14.4644ZM6.30009 15.5607C6.7159 15.3203 7.01834 14.9284 7.14313 14.4644L6.75686 14.3606C6.65977 14.7216 6.42471 15.0266 6.0999 15.2143L6.30009 15.5607ZM5.39999 15.8C5.70483 15.8 6.01623 15.7246 6.30003 15.5607L6.09996 15.2143C5.88063 15.341 5.63891 15.4 5.39999 15.4V15.8ZM3.8392 14.8999C4.17176 15.477 4.7785 15.8 5.39999 15.8V15.4C4.91523 15.4 4.44385 15.148 4.18578 14.7001L3.8392 14.8999ZM4.49981 12.4394C3.64058 12.9367 3.3433 14.0399 3.83924 14.8999L4.18575 14.7001C3.80043 14.0319 4.03128 13.1727 4.70017 12.7856L4.49981 12.4394ZM5.86444 12.2569C5.39914 12.1317 4.91513 12.2011 4.50045 12.439L4.69954 12.786C5.02549 12.5989 5.40085 12.5464 5.76055 12.6431L5.86444 12.2569ZM5.88065 12.2608C5.87251 12.2589 5.86853 12.258 5.86513 12.2571L5.75985 12.6429C5.77186 12.6462 5.78328 12.6488 5.79026 12.6505L5.88065 12.2608ZM5.91997 12.2709C5.90418 12.2662 5.88873 12.2627 5.88066 12.2608L5.79025 12.6505C5.8008 12.6529 5.80356 12.6536 5.80502 12.6541L5.91997 12.2709ZM7.6664 9.09643L5.6914 12.3589L6.03359 12.5661L8.00859 9.30357L7.6664 9.09643ZM5.99999 6C5.99999 7.38419 6.68747 8.59648 7.71839 9.36067L7.95659 9.03933C7.01877 8.34415 6.39999 7.24706 6.39999 6H5.99999ZM10.2 4.2C9.20672 4.2 8.39999 5.00673 8.39999 6H8.79999C8.79999 5.22764 9.42764 4.6 10.2 4.6V4.2ZM12 6C12 5.00673 11.1933 4.2 10.2 4.2V4.6C10.9723 4.6 11.6 5.22764 11.6 6H12ZM11.4241 7.30859C11.7736 6.98184 12 6.5209 12 6H11.6C11.6 6.40097 11.4264 6.75879 11.1509 7.01641L11.4241 7.30859ZM13.225 10.2532L11.4625 7.06572L11.1125 7.25928L12.875 10.4468L13.225 10.2532ZM14.6 9.8C14.0098 9.8 13.4684 9.95472 12.9717 10.166L13.1283 10.534C13.5941 10.3359 14.0808 10.2 14.6 10.2V9.8ZM18.8 14C18.8 11.6849 16.9151 9.8 14.6 9.8V10.2C16.6942 10.2 18.4 11.9058 18.4 14H18.8ZM14.6 18.2C16.9151 18.2 18.8 16.3151 18.8 14H18.4C18.4 16.0942 16.6942 17.8 14.6 17.8V18.2ZM11.6863 17.0191C12.4402 17.7451 13.4705 18.2 14.6 18.2V17.8C13.5795 17.8 12.6473 17.3892 11.9637 16.7309L11.6863 17.0191ZM12.2305 16.1618L11.6805 16.7368L11.9695 17.0132L12.5195 16.4382L12.2305 16.1618ZM14.6 17C13.7903 17 13.0549 16.6766 12.5137 16.1559L12.2363 16.4441C12.8482 17.0328 13.6816 17.4 14.6 17.4V17ZM17.6 14C17.6 15.6614 16.2614 17 14.6 17V17.4C16.4823 17.4 18 15.8823 18 14H17.6ZM14.6 11C16.2614 11 17.6 12.3386 17.6 14H18C18 12.1177 16.4823 10.6 14.6 10.6V11ZM13.1593 11.375C13.5893 11.1373 14.0749 11 14.6 11V10.6C14.0032 10.6 13.4513 10.7565 12.9657 11.025L13.1593 11.375ZM12.7919 11.5651L13.1544 11.3776L12.9706 11.0224L12.6081 11.2099L12.7919 11.5651ZM12.3362 11.1319L12.5237 11.4819L12.8763 11.2931L12.6888 10.9431L12.3362 11.1319ZM10.4124 7.64665L12.3374 11.1341L12.6876 10.9409L10.7626 7.45335L10.4124 7.64665ZM10.2 7.8C10.3514 7.8 10.4992 7.77867 10.6366 7.74388L10.5384 7.35612C10.4289 7.38383 10.3142 7.4 10.2 7.4V7.8ZM8.39999 6C8.39999 6.99327 9.20672 7.8 10.2 7.8V7.4C9.42764 7.4 8.79999 6.77236 8.79999 6H8.39999ZM4.37661 9.91844C2.54659 10.3747 1.19999 12.0366 1.19999 14H1.59999C1.59999 12.2228 2.81902 10.719 4.47338 10.3066L4.37661 9.91844ZM4.81884 10.8508L4.61884 10.0633L4.23115 10.1617L4.43115 10.9492L4.81884 10.8508ZM2.39999 14C2.39999 12.5916 3.36899 11.4194 4.6734 11.0941L4.57659 10.7059C3.09974 11.0743 1.99999 12.4021 1.99999 14H2.39999ZM5.39999 17C3.73858 17 2.39999 15.6614 2.39999 14H1.99999C1.99999 15.8823 3.51766 17.4 5.39999 17.4V17ZM8.39999 14C8.39999 15.6614 7.06141 17 5.39999 17V17.4C7.28233 17.4 8.79999 15.8823 8.79999 14H8.39999ZM8.39999 13.6V14H8.79999V13.6H8.39999ZM13.0625 13.4H8.59999V13.8H13.0625V13.4ZM14.6 12.2C13.7609 12.2 13.0687 12.7767 12.8689 13.5499L13.2561 13.6501C13.4125 13.0451 13.9516 12.6 14.6 12.6V12.2ZM16.4 14C16.4 13.0067 15.5933 12.2 14.6 12.2V12.6C15.3723 12.6 16 13.2276 16 14H16.4ZM14.6 15.8C15.5933 15.8 16.4 14.9933 16.4 14H16C16 14.7724 15.3723 15.4 14.6 15.4V15.8ZM12.8689 14.4501C13.0687 15.2233 13.7609 15.8 14.6 15.8V15.4C13.9516 15.4 13.4125 14.9549 13.2561 14.3499L12.8689 14.4501ZM9.32499 14.6H13.0625V14.2H9.32499V14.6ZM5.39999 18.2C7.57078 18.2 9.3029 16.5245 9.5239 14.4209L9.12609 14.3791C8.92522 16.2911 7.3542 17.8 5.39999 17.8V18.2ZM1.19999 14C1.19999 16.3151 3.08485 18.2 5.39999 18.2V17.8C3.30576 17.8 1.59999 16.0942 1.59999 14H1.19999Z" fill="black" mask="url(#path-1-outside-1_1607_35)"/>
</svg>
