<svg width="24" height="24" viewBox="0 0 24 24" fill="none" xmlns="http://www.w3.org/2000/svg"><path d="M11.633 4.690 C 11.458 4.797,11.350 4.930,11.286 5.116 C 11.253 5.214,11.240 6.079,11.240 8.245 L 11.240 11.238 8.190 11.249 L 5.140 11.260 4.960 11.366 C 4.407 11.691,4.501 12.504,5.116 12.714 C 5.214 12.747,6.079 12.760,8.246 12.760 L 11.240 12.760 11.240 15.754 C 11.240 18.866,11.242 18.901,11.409 19.120 C 11.696 19.494,12.304 19.494,12.591 19.120 C 12.758 18.901,12.760 18.866,12.760 15.754 L 12.760 12.760 15.754 12.760 C 17.921 12.760,18.786 12.747,18.884 12.714 C 19.501 12.503,19.592 11.679,19.034 11.360 L 18.860 11.260 15.810 11.249 L 12.760 11.238 12.760 8.245 C 12.760 5.134,12.758 5.099,12.591 4.880 C 12.375 4.599,11.928 4.510,11.633 4.690 " stroke="none" fill-rule="evenodd" fill="black"></path></svg>