<svg width="24" height="24" viewBox="0 0 24 24" fill="none" xmlns="http://www.w3.org/2000/svg"><path d="M11.500 5.365 C 9.923 5.464,8.437 6.161,7.273 7.346 C 5.790 8.858,5.093 11.005,5.405 13.100 C 5.747 15.397,7.265 17.390,9.377 18.317 C 9.582 18.406,9.806 18.491,9.875 18.505 C 9.984 18.527,10.000 18.519,10.000 18.443 C 10.000 18.335,10.470 13.273,10.498 13.075 L 10.519 12.931 10.300 12.905 C 9.727 12.838,9.206 12.452,8.941 11.900 C 8.703 11.405,8.686 11.449,9.252 11.073 L 9.745 10.744 9.787 10.478 C 9.897 9.776,10.381 9.239,11.061 9.061 C 11.191 9.028,11.383 9.000,11.488 9.000 L 11.680 9.000 11.680 8.480 C 11.680 7.899,11.668 7.917,11.975 8.009 C 12.176 8.069,12.446 8.329,12.507 8.520 C 12.548 8.647,12.552 8.627,12.556 8.310 C 12.560 7.963,12.561 7.960,12.661 7.960 C 12.910 7.960,13.247 8.198,13.365 8.458 C 13.447 8.639,13.463 9.001,13.398 9.188 C 13.359 9.301,13.369 9.320,13.615 9.570 C 13.895 9.856,14.081 10.194,14.156 10.552 C 14.186 10.698,14.200 11.879,14.200 14.321 L 14.200 17.879 14.310 18.001 C 14.405 18.106,14.456 18.126,14.685 18.147 C 14.943 18.170,14.960 18.166,15.263 17.998 C 15.982 17.602,16.899 16.770,17.412 16.050 C 18.321 14.776,18.795 13.032,18.643 11.520 C 18.478 9.881,17.831 8.471,16.727 7.346 C 15.322 5.915,13.534 5.237,11.500 5.365 M10.783 10.893 C 10.736 10.927,10.709 11.002,10.705 11.103 L 10.700 11.260 10.971 11.257 C 11.210 11.254,11.255 11.241,11.357 11.143 C 11.420 11.082,11.480 10.989,11.490 10.936 C 11.509 10.841,11.506 10.840,11.182 10.840 C 10.974 10.840,10.829 10.859,10.783 10.893 " stroke="none" fill-rule="evenodd"></path></svg>