<svg width="24" height="24" viewBox="0 0 24 24" fill="none" xmlns="http://www.w3.org/2000/svg">
<path d="M19.75 19.75V12.0001C19.75 9.23038 18.2465 6.61277 16.0118 5.31897M4.26304 14.9396V19.75" stroke="#0E1438" stroke-width="1.5" stroke-linecap="round" stroke-linejoin="round"/>
<path d="M4.26302 12.2672C3.99602 7.18965 7.87736 4.25 12.0065 4.25" stroke="#0E1438" stroke-width="1.5" stroke-linecap="round" stroke-linejoin="round"/>
<path d="M12.0065 8.52588C13.9236 8.52588 15.4777 9.86209 15.4777 12.2673" stroke="#0E1438" stroke-width="1.5" stroke-linecap="round" stroke-linejoin="round"/>
<path d="M15.4777 14.9397V16.5431" stroke="#0E1438" stroke-width="1.5" stroke-linecap="round" stroke-linejoin="round"/>
<path d="M8.53531 16.0087V17.6121C8.53531 18.9483 7.46724 19.75 7.46724 19.75" stroke="#0E1438" stroke-width="1.5" stroke-linecap="round" stroke-linejoin="round"/>
<path d="M11.7395 12.8018V16.5431C11.7395 18.4138 12.594 19.75 14.9437 19.75" stroke="#0E1438" stroke-width="1.5" stroke-linecap="round" stroke-linejoin="round"/>
<path d="M8.92633 10.3966C8.67652 10.8764 8.5353 11.4216 8.5353 12.0001V13.3363" stroke="#0E1438" stroke-width="1.5" stroke-linecap="round" stroke-linejoin="round"/>
</svg>
