<svg width="24" height="24" viewBox="0 0 24 24" fill="none" xmlns="http://www.w3.org/2000/svg"><path d="M8.295 4.477 C 8.226 4.519,8.118 4.621,8.055 4.703 C 7.941 4.852,7.940 4.860,7.927 5.487 L 7.914 6.120 6.407 6.120 C 4.916 6.120,4.898 6.121,4.753 6.210 C 4.224 6.533,4.261 7.271,4.818 7.525 C 4.937 7.579,5.078 7.598,5.344 7.599 L 5.707 7.600 5.758 7.890 C 5.835 8.331,6.057 9.171,6.221 9.640 C 6.479 10.379,6.961 11.306,7.327 11.769 C 7.394 11.853,7.439 11.944,7.428 11.972 C 7.401 12.043,6.611 12.448,6.179 12.613 C 5.981 12.688,5.650 12.798,5.442 12.857 C 4.975 12.992,4.871 13.044,4.742 13.214 C 4.425 13.630,4.641 14.251,5.147 14.380 C 5.379 14.439,5.566 14.402,6.352 14.139 C 6.989 13.927,7.749 13.570,8.220 13.263 L 8.563 13.040 8.762 13.198 C 9.052 13.427,9.576 13.735,10.096 13.982 C 10.700 14.270,11.719 14.611,11.980 14.613 C 12.659 14.620,13.001 13.832,12.526 13.357 C 12.412 13.243,12.301 13.187,12.020 13.103 C 11.177 12.850,10.553 12.578,9.974 12.212 L 9.688 12.031 9.886 11.785 C 10.669 10.818,11.234 9.526,11.553 7.980 L 11.628 7.620 12.049 7.598 C 12.428 7.579,12.485 7.565,12.613 7.468 C 12.820 7.310,12.920 7.148,12.947 6.928 C 12.977 6.674,12.865 6.414,12.658 6.256 L 12.506 6.140 10.978 6.129 L 9.450 6.117 9.432 5.529 C 9.413 4.893,9.385 4.790,9.174 4.595 C 9.001 4.435,8.907 4.400,8.653 4.400 C 8.494 4.400,8.380 4.425,8.295 4.477 M10.063 7.750 C 9.873 8.832,9.299 10.151,8.711 10.855 L 8.615 10.971 8.495 10.815 C 8.213 10.453,7.877 9.801,7.641 9.160 C 7.531 8.861,7.240 7.762,7.240 7.644 C 7.240 7.613,7.659 7.600,8.664 7.600 L 10.089 7.600 10.063 7.750 M15.770 9.499 C 15.314 9.627,14.941 9.922,14.769 10.289 C 14.720 10.393,14.050 12.145,13.280 14.183 C 12.304 16.766,11.880 17.935,11.880 18.045 C 11.880 18.262,11.962 18.438,12.133 18.589 C 12.339 18.769,12.557 18.828,12.789 18.766 C 13.166 18.665,13.253 18.537,13.620 17.540 L 13.811 17.020 16.165 17.020 C 18.220 17.020,18.522 17.028,18.543 17.080 C 18.555 17.113,18.674 17.428,18.807 17.780 C 19.072 18.483,19.175 18.633,19.467 18.745 C 19.934 18.923,20.452 18.553,20.448 18.043 C 20.446 17.902,20.125 17.009,19.064 14.200 C 18.305 12.187,17.627 10.428,17.558 10.292 C 17.240 9.659,16.449 9.308,15.770 9.499 M16.574 11.870 C 16.763 12.370,17.150 13.392,17.432 14.140 L 17.947 15.500 16.187 15.510 C 15.219 15.516,14.420 15.513,14.410 15.503 C 14.394 15.487,16.008 11.177,16.086 11.030 C 16.172 10.867,16.237 10.979,16.574 11.870 " stroke="none" fill-rule="evenodd" fill="black"></path></svg>