<svg width="24" height="24" viewBox="0 0 24 24" fill="none" xmlns="http://www.w3.org/2000/svg">
<path d="M8.875 18.875H5.95833C5.4981 18.875 5.125 18.5019 5.125 18.0417V15.125M15.125 18.875H18.0417C18.5019 18.875 18.875 18.5019 18.875 18.0417V15.125M5.125 8.875V5.95833C5.125 5.4981 5.4981 5.125 5.95833 5.125H8.875M15.125 5.125H18.0417C18.5019 5.125 18.875 5.4981 18.875 5.95833V8.875" stroke="black" stroke-width="1.25" stroke-linecap="round" stroke-linejoin="round"/>
<path d="M8.4585 13.875V10.125C8.4585 9.66475 8.8316 9.29165 9.29183 9.29165H9.77999C10.001 9.29165 10.213 9.20385 10.3692 9.04757L10.7144 8.70239C10.8707 8.54611 11.0827 8.45831 11.3037 8.45831H12.6967C12.9177 8.45831 13.1297 8.54611 13.2859 8.70239L13.6311 9.04757C13.7873 9.20385 13.9993 9.29165 14.2203 9.29165H14.7085C15.1687 9.29165 15.5418 9.66475 15.5418 10.125V13.875C15.5418 14.3352 15.1687 14.7083 14.7085 14.7083H9.29183C8.8316 14.7083 8.4585 14.3352 8.4585 13.875Z" stroke="black" stroke-width="1.25" stroke-linecap="round" stroke-linejoin="round"/>
<path d="M12 11.875V11.8625M12.625 11.875C12.625 12.2202 12.3452 12.5 12 12.5C11.6548 12.5 11.375 12.2202 11.375 11.875C11.375 11.5298 11.6548 11.25 12 11.25C12.3452 11.25 12.625 11.5298 12.625 11.875Z" stroke="black" stroke-width="1.25" stroke-linecap="round" stroke-linejoin="round"/>
</svg>
