<svg width="24" height="24" viewBox="0 0 24 24" fill="none" xmlns="http://www.w3.org/2000/svg"><path d="M10.928 3.623 C 9.976 3.762,8.842 4.146,8.501 4.444 C 8.135 4.766,8.182 5.343,8.595 5.605 C 8.861 5.774,9.061 5.762,9.592 5.544 C 10.601 5.129,11.476 4.989,12.502 5.077 C 15.369 5.322,17.634 7.442,18.060 10.280 C 18.214 11.307,18.076 13.709,17.743 15.785 C 17.621 16.548,17.646 16.696,17.938 16.953 C 18.260 17.235,18.830 17.138,19.053 16.762 C 19.184 16.539,19.462 14.607,19.564 13.200 C 19.643 12.116,19.634 10.505,19.546 9.980 C 18.976 6.586,16.312 4.022,12.921 3.602 C 12.462 3.545,11.384 3.556,10.928 3.623 M6.234 6.439 C 6.015 6.505,5.888 6.618,5.668 6.940 C 5.042 7.858,4.620 8.952,4.462 10.068 C 4.428 10.306,4.383 10.941,4.362 11.480 C 4.318 12.577,4.254 13.142,4.076 14.018 C 3.996 14.407,3.963 14.665,3.980 14.758 C 4.073 15.275,4.660 15.533,5.108 15.255 C 5.343 15.109,5.413 14.969,5.535 14.400 C 5.752 13.382,5.829 12.705,5.880 11.380 C 5.931 10.018,6.058 9.419,6.481 8.540 C 6.586 8.320,6.776 7.981,6.903 7.787 C 7.154 7.400,7.211 7.175,7.122 6.907 C 7.063 6.727,6.811 6.498,6.613 6.443 C 6.439 6.395,6.383 6.394,6.234 6.439 M11.380 7.026 C 11.314 7.037,11.152 7.072,11.020 7.105 C 9.590 7.461,8.479 8.498,8.020 9.904 C 7.874 10.351,7.843 10.597,7.800 11.647 C 7.761 12.615,7.727 13.001,7.615 13.787 C 7.542 14.301,7.566 14.433,7.774 14.669 C 8.051 14.985,8.514 15.011,8.814 14.727 C 8.876 14.668,8.954 14.568,8.987 14.505 C 9.113 14.264,9.272 12.880,9.303 11.760 C 9.330 10.761,9.390 10.412,9.610 9.960 C 9.844 9.481,10.319 9.007,10.801 8.773 C 11.254 8.552,11.492 8.500,12.040 8.502 C 12.564 8.504,12.818 8.564,13.260 8.791 C 13.666 9.000,14.211 9.555,14.412 9.965 C 14.657 10.463,14.689 10.701,14.673 11.926 L 14.660 12.993 14.780 13.163 C 15.006 13.483,15.425 13.583,15.757 13.397 C 16.131 13.186,16.170 13.024,16.175 11.640 C 16.179 10.558,16.177 10.533,16.070 10.141 C 15.944 9.684,15.642 9.042,15.402 8.720 C 14.966 8.136,14.331 7.623,13.700 7.346 C 13.139 7.101,12.816 7.034,12.120 7.020 C 11.779 7.013,11.446 7.016,11.380 7.026 M11.612 10.547 C 11.303 10.747,11.270 10.859,11.235 11.818 C 11.144 14.347,10.683 16.588,9.796 18.811 C 9.538 19.458,9.512 19.632,9.635 19.900 C 9.723 20.090,9.812 20.176,10.010 20.258 C 10.322 20.389,10.730 20.275,10.908 20.007 C 11.030 19.823,11.367 18.956,11.642 18.120 C 12.316 16.066,12.673 14.044,12.746 11.859 C 12.774 11.053,12.754 10.905,12.594 10.701 C 12.380 10.429,11.908 10.355,11.612 10.547 M14.894 14.958 C 14.703 15.004,14.510 15.130,14.416 15.270 C 14.368 15.340,14.293 15.582,14.243 15.827 C 14.014 16.945,13.749 17.946,13.441 18.858 C 13.351 19.125,13.280 19.413,13.280 19.510 C 13.280 19.694,13.383 19.937,13.506 20.045 C 13.845 20.343,14.384 20.287,14.626 19.927 C 14.839 19.611,15.428 17.570,15.701 16.202 C 15.817 15.618,15.807 15.475,15.632 15.229 C 15.489 15.028,15.138 14.899,14.894 14.958 M7.455 16.209 C 7.129 16.275,7.027 16.418,6.718 17.237 C 6.565 17.643,6.440 18.026,6.440 18.089 C 6.440 18.358,6.633 18.641,6.900 18.764 C 7.181 18.894,7.494 18.836,7.730 18.610 C 7.927 18.422,8.424 17.044,8.376 16.822 C 8.280 16.372,7.899 16.119,7.455 16.209 " stroke="none" fill-rule="evenodd" fill="black"></path></svg>