<svg width="24" height="24" viewBox="0 0 24 24" fill="none" xmlns="http://www.w3.org/2000/svg"><path d="M10.420 3.584 C 10.332 3.593,10.053 3.619,9.800 3.642 C 7.797 3.828,6.113 4.337,5.203 5.033 C 4.867 5.289,4.609 5.614,4.472 5.951 L 4.380 6.180 4.368 12.000 C 4.360 16.137,4.370 17.895,4.401 18.080 C 4.539 18.886,5.258 19.530,6.560 20.013 C 8.032 20.559,10.349 20.861,12.450 20.781 L 13.240 20.751 13.046 20.526 C 12.751 20.183,12.509 19.838,12.359 19.551 L 12.225 19.291 11.222 19.268 C 9.927 19.238,8.979 19.123,7.980 18.876 C 7.120 18.663,6.335 18.325,6.034 18.039 L 5.880 17.892 5.880 16.785 L 5.880 15.678 6.002 15.741 C 6.224 15.856,6.814 16.068,7.260 16.193 C 8.235 16.468,9.421 16.649,10.700 16.718 C 11.831 16.780,11.752 16.788,11.780 16.610 C 11.875 16.008,11.956 15.682,12.101 15.310 C 12.127 15.245,12.084 15.240,11.534 15.240 C 9.214 15.239,6.754 14.684,6.033 13.998 L 5.880 13.852 5.880 12.962 C 5.880 12.264,5.891 12.076,5.930 12.094 C 7.100 12.622,8.553 12.948,10.320 13.080 C 11.036 13.133,12.469 13.131,13.240 13.076 L 13.860 13.032 14.460 12.735 C 15.142 12.398,15.584 12.268,16.291 12.197 C 16.538 12.172,16.869 12.163,17.028 12.177 C 17.240 12.196,17.353 12.187,17.458 12.144 C 17.592 12.087,17.600 12.088,17.600 12.161 C 17.600 12.213,17.636 12.247,17.710 12.263 C 18.090 12.347,18.441 12.458,18.758 12.595 L 19.122 12.752 19.111 9.426 L 19.100 6.100 18.976 5.839 C 18.460 4.750,16.705 3.992,13.920 3.657 C 13.410 3.595,10.852 3.542,10.420 3.584 M12.860 5.080 C 14.584 5.188,16.096 5.513,16.955 5.960 C 17.322 6.151,17.600 6.375,17.600 6.480 C 17.600 6.675,16.921 7.072,16.156 7.323 C 13.675 8.137,9.594 8.109,7.161 7.259 C 6.549 7.045,6.064 6.775,5.933 6.574 C 5.877 6.489,5.877 6.471,5.933 6.386 C 5.966 6.334,6.099 6.222,6.227 6.137 C 7.393 5.363,10.210 4.914,12.860 5.080 M7.098 8.819 C 7.937 9.073,8.999 9.258,10.200 9.360 C 10.842 9.414,12.673 9.415,13.320 9.360 C 14.921 9.226,16.404 8.899,17.370 8.467 L 17.600 8.364 17.600 9.321 L 17.600 10.278 17.395 10.441 C 16.390 11.234,13.504 11.750,10.867 11.606 C 9.930 11.555,9.126 11.460,8.452 11.323 C 7.388 11.105,6.426 10.733,6.064 10.399 L 5.880 10.230 5.880 9.298 L 5.880 8.365 6.250 8.520 C 6.454 8.605,6.835 8.739,7.098 8.819 M18.340 15.220 C 18.151 15.286,17.883 15.560,17.469 16.112 C 17.091 16.614,16.861 16.947,16.626 17.329 L 16.436 17.637 16.192 17.354 C 15.921 17.039,15.778 16.960,15.479 16.960 C 15.250 16.960,15.110 17.021,14.953 17.186 C 14.745 17.406,14.697 17.764,14.839 18.032 C 14.937 18.214,16.059 19.544,16.208 19.654 C 16.374 19.775,16.713 19.790,16.930 19.685 C 17.141 19.583,17.229 19.470,17.399 19.083 C 17.688 18.425,18.253 17.524,18.809 16.838 C 19.278 16.258,19.312 16.208,19.340 16.040 C 19.399 15.693,19.152 15.297,18.819 15.205 C 18.616 15.148,18.537 15.151,18.340 15.220 " stroke="none" fill-rule="evenodd"></path></svg>