<svg width="24" height="24" viewBox="0 0 24 24" fill="none" xmlns="http://www.w3.org/2000/svg"><path d="M18.680 4.411 C 18.510 4.445,18.387 4.560,16.470 6.473 L 14.440 8.498 14.440 6.951 C 14.440 5.241,14.423 5.075,14.227 4.851 C 13.844 4.415,13.118 4.566,12.958 5.115 C 12.930 5.212,12.920 6.146,12.928 7.923 L 12.940 10.586 13.047 10.748 C 13.112 10.846,13.224 10.944,13.330 10.995 C 13.503 11.079,13.536 11.080,16.163 11.079 C 18.672 11.078,18.829 11.074,18.985 11.003 C 19.416 10.808,19.542 10.211,19.229 9.853 C 19.005 9.599,19.017 9.600,17.181 9.600 C 16.268 9.600,15.520 9.586,15.520 9.570 C 15.520 9.553,16.412 8.649,17.503 7.560 C 18.593 6.471,19.514 5.526,19.548 5.461 C 19.583 5.396,19.612 5.252,19.613 5.141 C 19.618 4.640,19.196 4.310,18.680 4.411 M5.020 12.995 C 4.732 13.129,4.600 13.339,4.600 13.664 C 4.600 14.033,4.833 14.318,5.199 14.396 C 5.328 14.424,5.977 14.440,6.951 14.440 L 8.499 14.440 6.473 16.470 C 4.656 18.290,4.441 18.518,4.400 18.675 C 4.296 19.073,4.543 19.496,4.937 19.595 C 5.042 19.621,5.157 19.635,5.194 19.625 C 5.230 19.615,5.314 19.596,5.380 19.581 C 5.469 19.562,6.020 19.036,7.530 17.528 L 9.560 15.501 9.560 17.049 C 9.560 18.787,9.575 18.928,9.787 19.162 C 10.136 19.549,10.791 19.453,11.003 18.985 C 11.074 18.829,11.078 18.672,11.079 16.163 C 11.080 13.571,11.078 13.501,10.999 13.337 C 10.952 13.241,10.846 13.120,10.752 13.054 L 10.587 12.940 7.883 12.930 C 5.322 12.921,5.172 12.925,5.020 12.995 " stroke="none" fill-rule="evenodd" fill="black"></path></svg>