<svg width="24" height="24" viewBox="0 0 24 24" fill="none" xmlns="http://www.w3.org/2000/svg"><path d="M6.900 6.259 C 6.878 6.267,6.812 6.284,6.753 6.296 C 6.517 6.348,6.243 6.703,6.241 6.960 C 6.239 7.296,6.210 7.263,8.633 9.690 L 10.939 12.000 8.634 14.310 C 6.153 16.796,6.203 16.737,6.258 17.100 C 6.326 17.552,6.761 17.836,7.205 17.720 C 7.362 17.679,7.614 17.440,9.690 15.367 L 12.000 13.061 14.310 15.367 C 16.386 17.440,16.638 17.679,16.795 17.720 C 17.366 17.870,17.870 17.366,17.720 16.795 C 17.679 16.638,17.440 16.386,15.367 14.310 L 13.061 12.000 15.367 9.690 C 17.744 7.310,17.760 7.292,17.760 7.000 C 17.760 6.755,17.571 6.449,17.349 6.334 C 17.215 6.265,16.925 6.245,16.740 6.294 C 16.655 6.316,15.954 6.990,14.310 8.632 L 12.000 10.939 9.710 8.654 C 8.450 7.397,7.384 6.351,7.340 6.329 C 7.248 6.284,6.960 6.238,6.900 6.259 " stroke="none" fill-rule="evenodd" fill="black"></path></svg>