<svg width="24" height="24" viewBox="0 0 24 24" fill="none" xmlns="http://www.w3.org/2000/svg"><path d="M11.480 3.895 C 10.741 4.118,5.523 5.936,5.375 6.022 C 4.966 6.259,4.671 6.703,4.601 7.187 C 4.551 7.534,4.550 11.537,4.599 12.345 C 4.750 14.787,5.894 16.637,8.300 18.325 C 8.982 18.804,10.612 19.763,11.518 20.219 C 11.916 20.419,12.084 20.419,12.482 20.219 C 13.388 19.763,15.018 18.804,15.700 18.325 C 18.106 16.637,19.250 14.787,19.401 12.345 C 19.450 11.537,19.449 7.534,19.399 7.187 C 19.329 6.703,19.034 6.259,18.625 6.022 C 18.470 5.932,13.186 4.094,12.505 3.893 C 12.116 3.778,11.866 3.778,11.480 3.895 M14.948 6.306 C 16.528 6.848,17.843 7.309,17.870 7.331 C 17.909 7.361,17.920 7.885,17.919 9.715 C 17.918 11.005,17.901 12.240,17.881 12.460 C 17.695 14.521,16.661 15.945,14.220 17.507 C 13.686 17.848,12.071 18.760,12.000 18.760 C 11.929 18.760,10.314 17.848,9.780 17.507 C 8.115 16.442,7.153 15.480,6.618 14.345 C 6.320 13.714,6.186 13.208,6.119 12.460 C 6.060 11.811,6.069 7.372,6.130 7.332 C 6.221 7.272,11.899 5.324,11.988 5.322 C 12.036 5.321,13.368 5.764,14.948 6.306 M12.054 7.584 C 11.985 7.618,11.892 7.685,11.848 7.733 C 11.742 7.848,9.970 10.770,9.869 10.997 C 9.714 11.346,9.869 11.797,10.231 12.049 L 10.420 12.180 11.553 12.192 C 12.445 12.202,12.683 12.215,12.667 12.255 C 12.657 12.283,12.226 12.979,11.710 13.803 C 11.194 14.626,10.742 15.358,10.706 15.428 C 10.631 15.574,10.620 15.861,10.683 16.027 C 10.768 16.252,11.008 16.443,11.268 16.493 C 11.446 16.527,11.763 16.423,11.888 16.291 C 12.008 16.165,14.501 12.208,14.585 12.011 C 14.668 11.816,14.655 11.456,14.556 11.253 C 14.454 11.041,14.213 10.829,14.006 10.766 C 13.905 10.736,13.487 10.720,12.821 10.720 C 11.994 10.720,11.795 10.710,11.811 10.668 C 11.822 10.640,12.084 10.201,12.392 9.693 C 13.032 8.640,13.081 8.550,13.123 8.366 C 13.189 8.076,12.960 7.673,12.667 7.562 C 12.505 7.501,12.200 7.512,12.054 7.584 " stroke="none" fill-rule="evenodd" fill="black"></path></svg>