<svg width="24" height="24" viewBox="0 0 24 24" fill="none" xmlns="http://www.w3.org/2000/svg"><path d="M11.700 2.775 C 11.529 2.855,11.402 2.987,11.316 3.176 C 11.255 3.310,11.242 3.440,11.241 3.890 L 11.240 4.440 11.110 4.440 C 10.737 4.440,9.776 4.678,9.187 4.914 C 9.015 4.983,8.867 5.040,8.859 5.040 C 8.851 5.040,8.741 4.857,8.615 4.634 C 8.347 4.162,8.237 4.021,8.066 3.933 C 7.872 3.832,7.559 3.850,7.349 3.973 C 7.145 4.092,7.065 4.199,7.002 4.434 C 6.940 4.663,6.987 4.812,7.294 5.349 L 7.550 5.798 7.205 6.075 C 6.811 6.391,6.309 6.898,6.006 7.286 L 5.799 7.552 5.310 7.276 C 4.876 7.031,4.798 7.000,4.609 7.000 C 3.955 7.000,3.612 7.727,4.037 8.211 C 4.100 8.282,4.351 8.454,4.596 8.593 C 4.840 8.732,5.040 8.852,5.040 8.859 C 5.040 8.867,5.005 8.956,4.961 9.057 C 4.735 9.584,4.442 10.687,4.440 11.020 C 4.439 11.086,4.426 11.160,4.409 11.185 C 4.391 11.214,4.177 11.237,3.820 11.247 C 3.198 11.266,3.099 11.296,2.888 11.537 C 2.750 11.694,2.699 11.885,2.732 12.125 C 2.762 12.353,2.909 12.546,3.138 12.661 C 3.319 12.751,3.381 12.760,3.864 12.760 C 4.436 12.760,4.440 12.762,4.440 12.993 C 4.441 13.310,4.739 14.425,4.961 14.943 C 5.005 15.044,5.040 15.132,5.040 15.139 C 5.040 15.146,4.834 15.272,4.582 15.418 C 4.330 15.564,4.078 15.738,4.023 15.804 C 3.623 16.279,3.978 17.020,4.602 17.012 C 4.795 17.009,4.979 16.929,5.498 16.623 L 5.796 16.447 6.073 16.793 C 6.391 17.189,6.897 17.690,7.285 17.993 L 7.551 18.200 7.294 18.650 C 6.986 19.190,6.940 19.336,7.003 19.570 C 7.064 19.797,7.176 19.946,7.353 20.036 C 7.570 20.146,7.733 20.170,7.917 20.121 C 8.163 20.055,8.314 19.895,8.594 19.402 C 8.795 19.050,8.863 18.960,8.914 18.981 C 9.547 19.239,10.158 19.420,10.680 19.505 C 10.889 19.539,11.101 19.575,11.150 19.584 C 11.238 19.601,11.240 19.614,11.240 20.133 C 11.240 20.619,11.248 20.681,11.339 20.862 C 11.484 21.151,11.665 21.260,12.000 21.260 C 12.335 21.260,12.516 21.151,12.661 20.862 C 12.752 20.681,12.760 20.619,12.760 20.133 C 12.760 19.614,12.762 19.601,12.850 19.584 C 12.900 19.575,13.111 19.539,13.320 19.505 C 13.842 19.420,14.453 19.239,15.086 18.981 C 15.137 18.960,15.205 19.050,15.406 19.402 C 15.686 19.895,15.837 20.055,16.083 20.121 C 16.267 20.170,16.430 20.146,16.647 20.036 C 16.824 19.946,16.936 19.797,16.997 19.570 C 17.060 19.336,17.014 19.190,16.706 18.650 L 16.449 18.200 16.715 17.993 C 17.103 17.690,17.609 17.189,17.927 16.793 L 18.204 16.447 18.502 16.623 C 19.021 16.929,19.205 17.009,19.398 17.012 C 20.022 17.020,20.377 16.279,19.977 15.804 C 19.922 15.738,19.670 15.564,19.418 15.418 C 19.166 15.272,18.960 15.146,18.960 15.139 C 18.960 15.132,18.995 15.044,19.039 14.943 C 19.261 14.425,19.559 13.310,19.560 12.993 C 19.560 12.762,19.564 12.760,20.136 12.760 C 20.619 12.760,20.681 12.751,20.862 12.661 C 21.418 12.382,21.419 11.625,20.864 11.330 C 20.771 11.281,20.598 11.260,20.180 11.247 C 19.823 11.237,19.609 11.214,19.591 11.185 C 19.574 11.160,19.561 11.086,19.560 11.020 C 19.558 10.687,19.265 9.584,19.039 9.057 C 18.995 8.956,18.960 8.867,18.960 8.859 C 18.960 8.852,19.160 8.732,19.404 8.593 C 19.649 8.454,19.900 8.282,19.963 8.211 C 20.123 8.029,20.183 7.788,20.124 7.564 C 20.027 7.197,19.771 7.000,19.391 7.000 C 19.202 7.000,19.124 7.031,18.690 7.276 L 18.203 7.551 17.926 7.206 C 17.609 6.811,17.103 6.310,16.715 6.007 L 16.449 5.800 16.706 5.350 C 17.013 4.812,17.060 4.663,16.998 4.434 C 16.935 4.199,16.855 4.092,16.651 3.973 C 16.441 3.850,16.128 3.832,15.934 3.933 C 15.763 4.021,15.653 4.162,15.385 4.634 C 15.259 4.857,15.149 5.040,15.141 5.040 C 15.133 5.040,14.985 4.983,14.813 4.914 C 14.224 4.678,13.263 4.440,12.890 4.440 L 12.760 4.440 12.760 3.888 C 12.760 3.380,12.752 3.320,12.661 3.138 C 12.528 2.873,12.339 2.748,12.046 2.732 C 11.910 2.724,11.772 2.741,11.700 2.775 M13.220 6.000 C 14.423 6.253,15.452 6.811,16.321 7.679 C 17.264 8.623,17.825 9.724,18.058 11.090 L 18.084 11.240 16.301 11.240 C 14.638 11.240,14.516 11.235,14.495 11.170 C 14.483 11.132,14.408 10.965,14.329 10.800 C 14.218 10.567,14.110 10.424,13.843 10.159 C 13.469 9.787,13.107 9.573,12.660 9.460 C 12.414 9.397,11.858 9.376,11.552 9.418 L 11.380 9.442 10.510 7.925 C 10.031 7.091,9.640 6.392,9.640 6.371 C 9.640 6.287,10.651 6.003,11.240 5.921 C 11.673 5.861,12.764 5.904,13.220 6.000 M9.170 8.600 C 9.620 9.381,10.009 10.060,10.035 10.108 C 10.075 10.186,10.061 10.223,9.919 10.408 C 9.558 10.881,9.387 11.394,9.388 12.000 C 9.390 12.611,9.560 13.121,9.919 13.592 C 10.061 13.777,10.075 13.814,10.035 13.892 C 10.009 13.940,9.611 14.632,9.151 15.430 C 8.435 16.670,8.304 16.874,8.245 16.843 C 8.208 16.823,8.010 16.649,7.807 16.458 C 6.903 15.607,6.263 14.455,5.995 13.200 C 5.920 12.847,5.905 12.656,5.905 12.000 C 5.905 11.344,5.920 11.153,5.995 10.800 C 6.286 9.433,7.010 8.201,8.030 7.336 C 8.173 7.214,8.304 7.129,8.321 7.147 C 8.338 7.165,8.720 7.819,9.170 8.600 M12.383 10.947 C 12.512 10.991,12.649 11.084,12.783 11.217 C 13.626 12.060,12.751 13.439,11.617 13.053 C 11.336 12.957,11.026 12.638,10.943 12.359 C 10.810 11.908,10.899 11.536,11.218 11.217 C 11.537 10.898,11.955 10.801,12.383 10.947 M18.058 12.910 C 17.878 13.963,17.493 14.871,16.878 15.691 C 15.993 16.869,14.720 17.674,13.210 18.009 C 12.644 18.135,11.358 18.135,10.793 18.010 C 10.308 17.902,9.640 17.683,9.640 17.631 C 9.640 17.609,10.031 16.910,10.510 16.077 L 11.380 14.562 11.560 14.589 C 12.133 14.677,12.748 14.575,13.260 14.307 C 13.629 14.114,14.151 13.574,14.329 13.200 C 14.408 13.035,14.483 12.868,14.495 12.830 C 14.516 12.765,14.638 12.760,16.301 12.760 L 18.084 12.760 18.058 12.910 " stroke="none" fill-rule="evenodd" fill="black"></path></svg>