<svg width="24" height="24" viewBox="0 0 24 24" fill="none" xmlns="http://www.w3.org/2000/svg">
<path d="M17.2743 7.41034C17.0912 7.4158 16.9174 7.49233 16.7897 7.62373L9.53454 14.8789L7.21344 12.5578C7.14849 12.4901 7.07069 12.4361 6.98461 12.3989C6.89853 12.3617 6.80588 12.3421 6.71211 12.3411C6.61833 12.3401 6.52531 12.3579 6.43848 12.3934C6.35166 12.4288 6.27278 12.4812 6.20647 12.5475C6.14016 12.6138 6.08774 12.6927 6.0523 12.7796C6.01685 12.8664 5.99908 12.9594 6.00004 13.0532C6.00099 13.1469 6.02065 13.2396 6.05785 13.3257C6.09506 13.4118 6.14907 13.4896 6.21672 13.5545L9.03618 16.374C9.16837 16.5061 9.34763 16.5803 9.53454 16.5803C9.72145 16.5803 9.90071 16.5061 10.0329 16.374L17.7864 8.62045C17.8883 8.52144 17.9578 8.39397 17.986 8.25475C18.0142 8.11553 17.9996 7.97104 17.9443 7.84023C17.8889 7.70941 17.7953 7.59838 17.6758 7.52167C17.5562 7.44496 17.4163 7.40615 17.2743 7.41034Z" fill="black"/>
<path d="M17.2743 7.41034L17.2669 7.16045L17.2668 7.16045L17.2743 7.41034ZM16.7897 7.62373L16.9665 7.80052L16.969 7.79794L16.7897 7.62373ZM9.53454 14.8789L9.35776 15.0557L9.53454 15.2324L9.71131 15.0557L9.53454 14.8789ZM7.21344 12.5578L7.03306 12.731L7.03666 12.7346L7.21344 12.5578ZM6.21672 13.5545L6.39353 13.3777L6.38986 13.3742L6.21672 13.5545ZM9.03618 16.374L8.8594 16.5507L8.85944 16.5508L9.03618 16.374ZM10.0329 16.374L10.2096 16.5508L10.2097 16.5507L10.0329 16.374ZM17.7864 8.62045L17.6121 8.44117L17.6096 8.44367L17.7864 8.62045ZM17.2668 7.16045C17.0188 7.16784 16.7833 7.27152 16.6104 7.44951L16.969 7.79794C17.0514 7.71314 17.1636 7.66375 17.2817 7.66023L17.2668 7.16045ZM16.6129 7.44695L9.35776 14.7021L9.71131 15.0557L16.9665 7.8005L16.6129 7.44695ZM9.71131 14.7021L7.39022 12.381L7.03666 12.7346L9.35776 15.0557L9.71131 14.7021ZM7.39378 12.3846C7.30579 12.293 7.20041 12.2198 7.08379 12.1694L6.88542 12.6284C6.94098 12.6524 6.99119 12.6873 7.0331 12.7309L7.39378 12.3846ZM7.08379 12.1694C6.96718 12.119 6.84168 12.0924 6.71465 12.0911L6.70956 12.5911C6.77008 12.5917 6.82987 12.6044 6.88542 12.6284L7.08379 12.1694ZM6.71465 12.0911C6.58762 12.0898 6.4616 12.1139 6.34399 12.1619L6.53298 12.6248C6.58901 12.6019 6.64904 12.5905 6.70956 12.5911L6.71465 12.0911ZM6.34399 12.1619C6.22638 12.2099 6.11952 12.2809 6.02969 12.3708L6.38325 12.7243C6.42604 12.6815 6.47695 12.6477 6.53298 12.6248L6.34399 12.1619ZM6.02969 12.3708C5.93986 12.4606 5.86886 12.5674 5.82084 12.6851L6.28375 12.874C6.30663 12.818 6.34045 12.7671 6.38325 12.7243L6.02969 12.3708ZM5.82084 12.6851C5.77282 12.8027 5.74876 12.9287 5.75005 13.0557L6.25002 13.0506C6.24941 12.9901 6.26087 12.9301 6.28375 12.874L5.82084 12.6851ZM5.75005 13.0557C5.75134 13.1827 5.77797 13.3082 5.82837 13.4249L6.28734 13.2265C6.26332 13.1709 6.25064 13.1111 6.25002 13.0506L5.75005 13.0557ZM5.82837 13.4249C5.87877 13.5415 5.95193 13.6469 6.04357 13.7348L6.38986 13.3742C6.3462 13.3323 6.31135 13.282 6.28734 13.2265L5.82837 13.4249ZM6.03994 13.7313L8.8594 16.5507L9.21295 16.1972L6.39349 13.3777L6.03994 13.7313ZM8.85944 16.5508C9.03851 16.7298 9.28134 16.8303 9.53454 16.8303V16.3303C9.41391 16.3303 9.29823 16.2824 9.21292 16.1972L8.85944 16.5508ZM9.53454 16.8303C9.78773 16.8303 10.0306 16.7298 10.2096 16.5508L9.85616 16.1972C9.77085 16.2824 9.65516 16.3303 9.53454 16.3303V16.8303ZM10.2097 16.5507L17.9632 8.79723L17.6096 8.44367L9.85612 16.1972L10.2097 16.5507ZM17.9607 8.79972C18.0986 8.6656 18.1929 8.49292 18.231 8.30432L17.741 8.20518C17.7228 8.29503 17.6779 8.37729 17.6122 8.44119L17.9607 8.79972ZM18.231 8.30432C18.2692 8.11572 18.2495 7.92 18.1745 7.74279L17.714 7.93766C17.7498 8.02208 17.7591 8.11533 17.741 8.20518L18.231 8.30432ZM18.1745 7.74279C18.0995 7.56559 17.9727 7.41517 17.8108 7.31126L17.5407 7.73208C17.6179 7.78158 17.6783 7.85324 17.714 7.93766L18.1745 7.74279ZM17.8108 7.31126C17.6488 7.20734 17.4593 7.15478 17.2669 7.16045L17.2817 7.66023C17.3733 7.65753 17.4636 7.68257 17.5407 7.73208L17.8108 7.31126Z" fill="black"/>
</svg>
