<svg width="24" height="24" viewBox="0 0 24 24" fill="none" xmlns="http://www.w3.org/2000/svg"><path d="M9.060 3.816 C 8.437 4.015,7.979 4.568,7.930 5.180 L 7.909 5.436 6.824 5.448 L 5.738 5.460 5.475 5.590 C 4.992 5.828,4.668 6.287,4.597 6.833 C 4.548 7.216,4.552 18.512,4.601 18.856 C 4.672 19.344,4.893 19.702,5.292 19.976 C 5.702 20.257,5.244 20.239,12.000 20.239 C 18.756 20.239,18.298 20.257,18.708 19.976 C 19.107 19.702,19.328 19.344,19.399 18.856 C 19.449 18.508,19.452 7.214,19.402 6.826 C 19.332 6.280,18.982 5.799,18.489 5.567 C 18.261 5.460,18.257 5.460,17.170 5.448 L 16.080 5.436 16.080 5.268 C 16.078 4.727,15.697 4.163,15.160 3.905 L 14.900 3.780 12.060 3.772 C 9.843 3.766,9.185 3.776,9.060 3.816 M14.551 6.170 L 14.562 7.080 12.001 7.080 L 9.440 7.080 9.440 6.187 C 9.440 5.695,9.452 5.281,9.467 5.266 C 9.482 5.252,10.629 5.244,12.017 5.250 L 14.540 5.260 14.551 6.170 M7.926 7.516 L 7.940 8.113 8.064 8.266 C 8.133 8.351,8.250 8.456,8.324 8.500 C 8.457 8.578,8.532 8.580,12.000 8.580 C 15.468 8.580,15.543 8.578,15.676 8.500 C 15.750 8.456,15.867 8.351,15.936 8.266 L 16.060 8.113 16.074 7.516 L 16.087 6.919 16.994 6.929 L 17.900 6.940 17.900 12.840 L 17.900 18.740 12.000 18.740 L 6.100 18.740 6.090 12.880 C 6.084 9.657,6.088 6.998,6.098 6.970 C 6.113 6.932,6.334 6.920,7.015 6.920 L 7.913 6.920 7.926 7.516 " stroke="none" fill-rule="evenodd" fill="black"></path></svg>