<svg width="24" height="24" viewBox="0 0 24 24" fill="none" xmlns="http://www.w3.org/2000/svg"><path d="M6.546 3.820 C 6.119 3.938,5.697 4.334,5.513 4.790 L 5.420 5.020 5.420 12.000 L 5.420 18.980 5.514 19.214 C 5.630 19.501,5.877 19.810,6.130 19.984 C 6.453 20.205,6.649 20.240,7.584 20.240 C 8.349 20.240,8.429 20.233,8.590 20.155 C 9.089 19.914,9.133 19.195,8.668 18.887 C 8.510 18.782,8.490 18.780,7.723 18.760 L 6.940 18.740 6.940 12.000 L 6.940 5.260 9.508 5.250 L 12.076 5.239 12.088 7.130 C 12.100 9.007,12.101 9.022,12.194 9.253 C 12.326 9.580,12.684 9.954,13.009 10.104 L 13.260 10.220 15.170 10.231 L 17.080 10.243 17.070 14.491 L 17.060 18.740 16.277 18.760 C 15.510 18.780,15.490 18.782,15.332 18.887 C 14.867 19.195,14.911 19.914,15.410 20.155 C 15.571 20.233,15.651 20.240,16.416 20.240 C 17.351 20.240,17.547 20.205,17.870 19.984 C 18.123 19.810,18.370 19.501,18.486 19.214 L 18.580 18.980 18.580 14.140 C 18.580 9.679,18.575 9.291,18.513 9.180 C 18.411 8.998,13.237 3.850,13.107 3.802 C 12.927 3.735,6.796 3.752,6.546 3.820 M14.851 8.751 C 14.218 8.756,13.678 8.753,13.650 8.742 C 13.611 8.727,13.600 8.454,13.600 7.532 L 13.600 6.341 14.800 7.540 L 16.001 8.740 14.851 8.751 M11.700 12.986 C 11.514 13.084,11.396 13.205,11.316 13.380 C 11.248 13.527,11.242 13.672,11.241 15.198 L 11.240 16.856 10.769 16.390 C 10.509 16.134,10.247 15.906,10.186 15.882 C 10.032 15.824,9.782 15.829,9.629 15.895 C 9.383 16.001,9.160 16.325,9.160 16.576 C 9.161 16.875,9.222 16.953,10.335 18.075 C 10.932 18.678,11.500 19.222,11.598 19.285 C 11.740 19.377,11.821 19.400,12.000 19.400 C 12.179 19.400,12.260 19.377,12.402 19.285 C 12.500 19.222,13.068 18.678,13.665 18.075 C 14.789 16.942,14.841 16.874,14.839 16.560 C 14.837 16.318,14.587 15.973,14.347 15.883 C 14.203 15.828,13.957 15.828,13.814 15.882 C 13.753 15.906,13.491 16.134,13.231 16.390 L 12.760 16.856 12.760 15.207 C 12.760 13.434,12.755 13.389,12.548 13.167 C 12.333 12.936,11.950 12.855,11.700 12.986 " stroke="none" fill-rule="evenodd" fill="black"></path></svg>