<svg width="24" height="24" viewBox="0 0 24 24" fill="none" xmlns="http://www.w3.org/2000/svg"><path d="M4.852 5.240 C 4.565 5.282,4.298 5.420,4.050 5.653 C 3.815 5.875,3.683 6.088,3.598 6.381 C 3.511 6.680,3.511 17.321,3.598 17.620 C 3.767 18.202,4.253 18.650,4.835 18.759 C 5.132 18.815,18.868 18.815,19.165 18.759 C 19.747 18.650,20.233 18.202,20.402 17.620 C 20.489 17.321,20.489 6.680,20.402 6.381 C 20.317 6.088,20.185 5.875,19.950 5.653 C 19.691 5.410,19.440 5.285,19.112 5.238 C 18.808 5.194,5.153 5.196,4.852 5.240 M18.940 12.000 L 18.940 17.260 12.000 17.260 L 5.060 17.260 5.050 12.040 C 5.044 9.169,5.048 6.797,5.059 6.770 C 5.074 6.730,6.485 6.722,12.009 6.730 L 18.940 6.740 18.940 12.000 M7.260 9.475 C 6.928 9.681,6.794 10.045,6.922 10.387 C 6.986 10.556,7.238 10.796,7.399 10.840 C 7.476 10.862,7.869 10.880,8.271 10.880 C 9.067 10.880,9.198 10.854,9.411 10.649 C 9.571 10.496,9.658 10.175,9.599 9.956 C 9.536 9.721,9.455 9.612,9.261 9.498 C 9.097 9.402,9.074 9.400,8.236 9.400 C 7.471 9.400,7.367 9.408,7.260 9.475 " stroke="none" fill-rule="evenodd" fill="black"></path></svg>