<svg width="25" height="24" viewBox="0 0 25 24" fill="none" xmlns="http://www.w3.org/2000/svg">
<path fill-rule="evenodd" clip-rule="evenodd" d="M11.3047 3.7245C9.89578 3.7245 8.71128 4.91162 8.71128 6.42908C8.71128 7.94653 9.89578 9.13365 11.3047 9.13365C12.7137 9.13365 13.8982 7.94653 13.8982 6.42908C13.8982 4.91162 12.7137 3.7245 11.3047 3.7245ZM7.17342 6.42908C7.17342 4.1098 8.9997 2.18665 11.3047 2.18665C13.6098 2.18665 15.436 4.1098 15.436 6.42908C15.436 8.74835 13.6098 10.6715 11.3047 10.6715C8.9997 10.6715 7.17342 8.74835 7.17342 6.42908ZM6.99919 14.6421C6.04887 15.2281 5.47228 15.983 5.11897 16.6741C4.98519 16.9358 5.02943 17.1501 5.16325 17.3237C5.31431 17.5196 5.60565 17.6838 5.97405 17.6838H16.5887V19.2216H5.97405C5.16104 19.2216 4.40665 18.8611 3.94527 18.2626C3.46666 17.6417 3.33174 16.7916 3.74967 15.9741C4.20791 15.0778 4.96219 14.0915 6.19201 13.3331C7.42233 12.5744 9.08185 12.0727 11.3047 12.0727C12.6397 12.0727 13.7716 12.2537 14.7292 12.5626C14.704 12.7421 14.691 12.9254 14.691 13.1116C14.691 13.5068 14.7469 13.8889 14.8526 14.2494C13.9687 13.8684 12.8148 13.6106 11.3047 13.6106C9.31892 13.6106 7.94902 14.0564 6.99919 14.6421ZM16.6622 15.4958C16.5486 15.3753 16.4256 15.2567 16.2924 15.1415C15.8201 14.6028 15.5454 13.8938 15.5454 13.1116C15.5454 13.0329 15.5483 12.955 15.5541 12.8779C15.863 13.0158 16.1503 13.1684 16.4174 13.3331C17.6472 14.0915 18.4015 15.0778 18.8598 15.9741C19.2777 16.7916 19.1428 17.6417 18.6642 18.2626C18.3613 18.6555 17.9322 18.9458 17.4431 19.0989V17.3276C17.4441 17.3263 17.4451 17.325 17.4462 17.3237C17.58 17.1501 17.6242 16.9358 17.4905 16.6741C17.4751 16.6441 17.4593 16.6139 17.4431 16.5836V15.9493C17.1559 15.8355 16.8938 15.6821 16.6622 15.4958Z" fill="black"/>
<path d="M18.5274 10.0933C16.8635 10.0933 15.5454 11.4505 15.5454 13.1114C15.5454 14.4021 16.2933 15.4936 17.4431 15.9492V20.6472C17.4431 20.7611 17.4992 20.8465 17.5739 20.9414L18.3591 21.7386C18.4526 21.8336 18.5835 21.843 18.6863 21.7386L20.1726 20.2391C20.2661 20.1346 20.2661 20.0018 20.1726 19.9069L19.2472 18.9673L20.5278 17.6955C20.6214 17.6101 20.6214 17.4677 20.5092 17.3538L19.2565 16.0915C20.6961 15.4936 21.5 14.4306 21.5 13.1114C21.5 11.4505 20.1726 10.0933 18.5274 10.0933ZM18.518 11.5074C19.0229 11.5074 19.4341 11.925 19.4341 12.4375C19.4341 12.969 19.0229 13.3866 18.518 13.3866C18.0133 13.3866 17.5926 12.969 17.5926 12.4375C17.5926 11.925 18.0039 11.5074 18.518 11.5074Z" fill="black"/>
</svg>
