<svg width="24" height="24" viewBox="0 0 24 24" fill="none" xmlns="http://www.w3.org/2000/svg">
<path d="M18.375 4.5H5.625C5.32663 4.5 5.04048 4.61853 4.82951 4.82951C4.61853 5.04048 4.5 5.32663 4.5 5.625V18.375C4.5 18.6733 4.61853 18.9595 4.82951 19.1705C5.04048 19.3815 5.32663 19.5 5.625 19.5H18.375C18.6733 19.5 18.9595 19.3815 19.1705 19.1705C19.3815 18.9595 19.5 18.6733 19.5 18.375V5.625C19.5 5.32663 19.3815 5.04048 19.1705 4.82951C18.9595 4.61853 18.6733 4.5 18.375 4.5ZM9 17.25H6.75V10.5H9V17.25ZM7.875 9.1875C7.61713 9.18013 7.36717 9.09693 7.15632 8.94831C6.94547 8.79968 6.78308 8.59222 6.68947 8.35183C6.59586 8.11145 6.57516 7.84881 6.62996 7.59673C6.68475 7.34465 6.81262 7.1143 6.99758 6.93448C7.18255 6.75466 7.4164 6.63332 7.66992 6.58565C7.92345 6.53797 8.1854 6.56606 8.42305 6.66641C8.6607 6.76675 8.86352 6.93491 9.00614 7.14986C9.14877 7.36482 9.22489 7.61703 9.225 7.875C9.21907 8.22776 9.07375 8.56383 8.82079 8.80977C8.56782 9.05571 8.22779 9.19152 7.875 9.1875ZM17.25 17.25H15V13.695C15 12.63 14.55 12.2475 13.965 12.2475C13.7935 12.2589 13.6259 12.3041 13.4719 12.3805C13.3179 12.4568 13.1805 12.5629 13.0676 12.6925C12.9548 12.8222 12.8685 12.9728 12.814 13.1358C12.7595 13.2988 12.7377 13.471 12.75 13.6425C12.7462 13.6774 12.7462 13.7126 12.75 13.7475V17.25H10.5V10.5H12.675V11.475C12.8944 11.1412 13.1958 10.8694 13.5504 10.6856C13.905 10.5017 14.3008 10.412 14.7 10.425C15.8625 10.425 17.22 11.07 17.22 13.17L17.25 17.25Z" fill="black"/>
</svg>
