<svg width="24" height="24" viewBox="0 0 24 24" fill="none" xmlns="http://www.w3.org/2000/svg"><path d="M11.040 3.724 C 7.580 4.117,4.681 6.703,3.885 10.108 C 3.607 11.295,3.607 12.705,3.885 13.892 C 4.452 16.316,6.108 18.395,8.340 19.483 C 8.782 19.698,9.558 19.990,9.870 20.058 L 10.000 20.086 10.000 17.323 L 10.000 14.560 9.140 14.560 L 8.280 14.560 8.280 13.280 L 8.280 12.000 9.135 12.000 L 9.991 12.000 10.011 10.950 C 10.034 9.809,10.093 9.384,10.308 8.840 C 10.559 8.205,11.032 7.620,11.534 7.323 C 11.863 7.130,12.410 6.933,12.846 6.852 C 13.369 6.755,14.650 6.755,15.271 6.852 C 15.518 6.891,15.748 6.933,15.781 6.946 C 15.831 6.965,15.840 7.137,15.840 8.114 L 15.840 9.260 15.070 9.260 C 14.386 9.260,14.269 9.270,14.018 9.349 C 13.521 9.505,13.273 9.750,13.114 10.240 C 13.044 10.454,13.026 10.633,13.010 11.250 L 12.990 12.000 14.360 12.000 L 15.729 12.000 15.708 12.110 C 15.697 12.171,15.591 12.746,15.474 13.390 L 15.260 14.560 14.130 14.560 L 13.000 14.560 13.000 17.420 L 13.000 20.281 13.170 20.257 C 13.568 20.199,14.281 20.023,14.714 19.874 C 18.061 18.726,20.320 15.568,20.320 12.034 C 20.320 11.012,20.205 10.289,19.896 9.360 C 18.871 6.279,16.147 4.084,12.900 3.721 C 12.478 3.674,11.469 3.676,11.040 3.724 " stroke="none" fill-rule="evenodd"></path></svg>