<svg width="24" height="24" viewBox="0 0 24 24" fill="none" xmlns="http://www.w3.org/2000/svg"><path d="M5.717 4.658 C 5.305 4.771,4.916 5.105,4.735 5.500 C 4.666 5.651,4.626 5.834,4.600 6.127 C 4.549 6.690,4.549 10.173,4.600 10.441 C 4.650 10.703,4.799 10.905,5.015 11.003 C 5.171 11.074,5.328 11.078,7.837 11.079 C 10.464 11.080,10.497 11.079,10.670 10.995 C 10.776 10.944,10.888 10.846,10.953 10.748 L 11.060 10.586 11.072 7.923 C 11.080 6.146,11.070 5.212,11.042 5.115 C 10.985 4.920,10.863 4.773,10.678 4.679 C 10.529 4.603,10.437 4.600,8.212 4.604 C 6.486 4.606,5.854 4.620,5.717 4.658 M13.340 4.666 C 13.151 4.766,13.047 4.879,12.980 5.056 C 12.925 5.200,12.919 5.554,12.929 7.903 L 12.940 10.586 13.047 10.748 C 13.112 10.846,13.224 10.944,13.330 10.995 C 13.503 11.079,13.536 11.080,16.163 11.079 C 18.672 11.078,18.829 11.074,18.985 11.003 C 19.209 10.902,19.351 10.703,19.404 10.416 C 19.474 10.040,19.428 6.000,19.351 5.740 C 19.232 5.336,18.988 5.015,18.651 4.817 C 18.288 4.604,18.244 4.601,15.760 4.602 C 13.742 4.603,13.445 4.611,13.340 4.666 M9.560 7.840 L 9.560 9.600 7.820 9.600 L 6.080 9.600 6.080 7.867 C 6.080 6.913,6.092 6.121,6.107 6.107 C 6.121 6.092,6.904 6.080,7.847 6.080 L 9.560 6.080 9.560 7.840 M17.910 7.850 L 17.921 9.600 16.180 9.600 L 14.440 9.600 14.440 7.840 L 14.440 6.079 16.170 6.090 L 17.900 6.100 17.910 7.850 M5.015 12.996 C 4.799 13.095,4.650 13.297,4.600 13.559 C 4.549 13.829,4.548 17.221,4.599 17.838 C 4.645 18.395,4.767 18.684,5.081 18.977 C 5.384 19.261,5.630 19.357,6.168 19.401 C 6.780 19.452,10.172 19.451,10.441 19.400 C 10.703 19.350,10.905 19.201,11.003 18.985 C 11.074 18.829,11.078 18.672,11.079 16.163 C 11.080 13.571,11.078 13.501,10.999 13.337 C 10.952 13.241,10.846 13.120,10.752 13.054 L 10.587 12.940 7.883 12.930 C 5.311 12.921,5.172 12.925,5.015 12.996 M13.380 12.976 C 13.314 13.006,13.210 13.077,13.148 13.135 C 12.914 13.354,12.920 13.280,12.921 16.169 C 12.922 18.672,12.926 18.829,12.997 18.985 C 13.098 19.209,13.297 19.351,13.584 19.404 C 13.744 19.434,14.502 19.442,15.940 19.429 C 17.693 19.414,18.096 19.400,18.271 19.349 C 18.809 19.191,19.190 18.807,19.351 18.260 C 19.428 18.000,19.474 13.960,19.404 13.584 C 19.351 13.297,19.209 13.098,18.985 12.997 C 18.829 12.926,18.673 12.922,16.160 12.922 C 14.035 12.923,13.476 12.934,13.380 12.976 M9.560 16.180 L 9.560 17.921 7.830 17.910 L 6.100 17.900 6.090 16.170 L 6.079 14.440 7.820 14.440 L 9.560 14.440 9.560 16.180 M17.910 16.170 L 17.900 17.900 16.170 17.910 L 14.440 17.921 14.440 16.180 L 14.440 14.440 16.180 14.440 L 17.921 14.440 17.910 16.170 " stroke="none" fill-rule="evenodd" fill="black"></path></svg>