<svg width="24" height="24" viewBox="0 0 24 24" fill="none" xmlns="http://www.w3.org/2000/svg">
<path d="M16.3952 8.18025C16.2426 8.1848 16.0978 8.24857 15.9914 8.35807L9.94545 14.404L8.0112 12.4698C7.95707 12.4134 7.89224 12.3684 7.82051 12.3374C7.74877 12.3064 7.67157 12.29 7.59342 12.2892C7.51528 12.2884 7.43776 12.3032 7.3654 12.3328C7.29305 12.3623 7.22732 12.406 7.17206 12.4612C7.1168 12.5165 7.07312 12.5822 7.04358 12.6546C7.01404 12.7269 6.99924 12.8045 7.00003 12.8826C7.00083 12.9608 7.01721 13.038 7.04821 13.1097C7.07922 13.1814 7.12422 13.2463 7.1806 13.3004L9.53015 15.6499C9.64031 15.76 9.78969 15.8219 9.94545 15.8219C10.1012 15.8219 10.2506 15.76 10.3607 15.6499L16.822 9.18867C16.9069 9.10617 16.9649 8.99994 16.9883 8.88392C17.0118 8.7679 16.9997 8.6475 16.9535 8.53849C16.9074 8.42948 16.8294 8.33694 16.7298 8.27302C16.6302 8.2091 16.5136 8.17676 16.3952 8.18025Z" fill="black" stroke="black" stroke-width="0.5"/>
</svg>
