<svg width="24" height="24" viewBox="0 0 24 24" fill="none" xmlns="http://www.w3.org/2000/svg"><path d="M16.975 7.123 C 16.907 7.143,16.778 7.227,16.689 7.310 C 16.600 7.392,15.074 9.125,13.298 11.160 C 11.522 13.195,10.027 14.905,9.975 14.959 L 9.880 15.058 8.570 13.753 C 7.849 13.036,7.197 12.417,7.121 12.379 C 6.947 12.291,6.618 12.288,6.454 12.373 C 6.168 12.521,6.009 12.848,6.058 13.186 C 6.086 13.378,6.105 13.399,7.773 15.074 C 9.501 16.810,9.627 16.918,9.920 16.918 C 10.264 16.918,10.168 17.020,14.103 12.524 C 16.147 10.188,17.851 8.211,17.889 8.129 C 18.153 7.560,17.593 6.944,16.975 7.123 " stroke="none" fill-rule="evenodd" fill="black"></path></svg>