<svg width="24" height="24" viewBox="0 0 24 24" fill="none" xmlns="http://www.w3.org/2000/svg">
<path fill-rule="evenodd" clip-rule="evenodd" d="M9.73966 15.7996C10.0432 16.0814 10.5177 16.0639 10.7996 15.7603C11.0814 15.4568 11.0639 14.9823 10.7603 14.7004L8.6599 12.75L17.25 12.75C17.6642 12.75 18 12.4142 18 12C18 11.5858 17.6642 11.25 17.25 11.25H8.6599L10.7603 9.29959C11.0639 9.01774 11.0814 8.54319 10.7996 8.23966C10.5177 7.93613 10.0432 7.91855 9.73966 8.2004L6.24151 11.4487C6.09301 11.5857 6 11.782 6 12C6 12.218 6.09297 12.4142 6.24142 12.5512L9.73966 15.7996Z" fill="#2D2D2D"/>
</svg>
