<svg width="24" height="24" viewBox="0 0 24 24" fill="none" xmlns="http://www.w3.org/2000/svg"><path d="M8.780 3.632 C 8.518 3.723,8.239 3.919,8.068 4.130 C 7.748 4.526,7.721 4.659,7.720 5.868 L 7.720 6.876 6.230 6.888 L 4.740 6.900 4.478 7.024 C 4.158 7.176,3.824 7.498,3.695 7.779 C 3.644 7.891,3.584 8.108,3.562 8.261 C 3.510 8.621,3.507 17.879,3.559 18.237 C 3.659 18.933,4.199 19.489,4.880 19.598 C 5.240 19.655,18.760 19.655,19.120 19.598 C 19.812 19.487,20.351 18.923,20.442 18.214 C 20.492 17.826,20.489 8.612,20.438 8.260 C 20.360 7.714,20.027 7.263,19.522 7.024 L 19.260 6.900 17.770 6.888 L 16.280 6.876 16.280 5.864 C 16.280 4.984,16.270 4.823,16.205 4.626 C 16.069 4.212,15.785 3.897,15.361 3.689 L 15.140 3.580 12.060 3.571 C 9.216 3.562,8.965 3.567,8.780 3.632 M14.791 5.970 L 14.802 6.880 12.001 6.880 L 9.200 6.880 9.200 5.987 C 9.200 5.495,9.212 5.081,9.227 5.066 C 9.242 5.052,10.497 5.044,12.017 5.050 L 14.780 5.060 14.791 5.970 M18.950 13.250 L 18.940 18.100 12.000 18.100 L 5.060 18.100 5.050 13.250 L 5.040 8.400 12.000 8.400 L 18.960 8.400 18.950 13.250 " stroke="none" fill-rule="evenodd" fill="black"></path></svg>