<svg width="24" height="24" viewBox="0 0 24 24" fill="none" xmlns="http://www.w3.org/2000/svg">
<path d="M12 12.625C12.3452 12.625 12.625 12.3452 12.625 12C12.625 11.6548 12.3452 11.375 12 11.375C11.6548 11.375 11.375 11.6548 11.375 12C11.375 12.3452 11.6548 12.625 12 12.625Z" stroke="black" stroke-width="1.11111" stroke-linecap="round" stroke-linejoin="round"/>
<path d="M16.583 12.625C16.9282 12.625 17.208 12.3452 17.208 12C17.208 11.6548 16.9282 11.375 16.583 11.375C16.2378 11.375 15.958 11.6548 15.958 12C15.958 12.3452 16.2378 12.625 16.583 12.625Z" stroke="black" stroke-width="1.11111" stroke-linecap="round" stroke-linejoin="round"/>
<path d="M7.4165 12.625C7.76168 12.625 8.0415 12.3452 8.0415 12C8.0415 11.6548 7.76168 11.375 7.4165 11.375C7.07133 11.375 6.7915 11.6548 6.7915 12C6.7915 12.3452 7.07133 12.625 7.4165 12.625Z" stroke="black" stroke-width="1.11111" stroke-linecap="round" stroke-linejoin="round"/>
</svg>
