<svg width="24" height="24" viewBox="0 0 24 24" fill="none" xmlns="http://www.w3.org/2000/svg">
<path d="M17.2052 13.6666C18.5859 13.6666 19.7052 12.5473 19.7052 11.1666C19.7052 9.7859 18.5859 8.66661 17.2052 8.66661M12.4797 17.2083C12.1365 18.1793 11.2104 18.875 10.1219 18.875C8.7412 18.875 7.62191 17.7556 7.62191 16.375V15.125M7.62374 7.20828V15.125M17.2052 5.42106V16.9121C17.2052 17.4731 16.6621 17.8739 16.1261 17.7084L4.87607 14.2349C4.5268 14.1271 4.28857 13.8042 4.28857 13.4386V8.89456C4.28857 8.52903 4.5268 8.20615 4.87607 8.09832L16.1261 4.62482C16.6621 4.45931 17.2052 4.86005 17.2052 5.42106Z" stroke="black" stroke-width="1.5" stroke-linecap="round" stroke-linejoin="round"/>
</svg>
