<svg width="24" height="24" viewBox="0 0 24 24" fill="none" xmlns="http://www.w3.org/2000/svg">
<path fill-rule="evenodd" clip-rule="evenodd" d="M6 6.1811C6 6.08108 6.08109 6 6.1811 6H15.2076V9.62104H6.1811C6.08108 9.62104 6 9.53996 6 9.43994V6.1811ZM16.7076 9.62104V6H17.8198C17.9199 6 18.0009 6.08108 18.0009 6.1811V9.43994C18.0009 9.53997 17.9199 9.62104 17.8198 9.62104H16.7076ZM6.1811 4.5C5.25266 4.5 4.5 5.25266 4.5 6.1811V9.43994C4.5 10.3684 5.25264 11.121 6.1811 11.121H17.8198C18.7483 11.121 19.5009 10.3684 19.5009 9.43994V6.1811C19.5009 5.25267 18.7483 4.5 17.8198 4.5H6.1811ZM6 14.561C6 14.4609 6.08108 14.3799 6.1811 14.3799H15.2076V18.0009H6.1811C6.08107 18.0009 6 17.9198 6 17.8198V14.561ZM16.7076 18.0009H17.8198C17.9199 18.0009 18.0009 17.9198 18.0009 17.8198V14.561C18.0009 14.4609 17.9199 14.3799 17.8198 14.3799H16.7076V18.0009ZM6.1811 12.8799C5.25267 12.8799 4.5 13.6325 4.5 14.561V17.8198C4.5 18.7483 5.25265 19.5009 6.1811 19.5009H17.8198C18.7483 19.5009 19.5009 18.7483 19.5009 17.8198V14.561C19.5009 13.6325 18.7483 12.8799 17.8198 12.8799H6.1811Z" fill="black"/>
</svg>
