<svg width="24" height="24" viewBox="0 0 24 24" fill="none" xmlns="http://www.w3.org/2000/svg"><path d="M7.180 2.776 C 6.786 2.902,6.399 3.213,6.230 3.540 C 6.033 3.922,6.041 3.577,6.040 12.003 C 6.040 20.554,6.028 20.067,6.241 20.480 C 6.357 20.707,6.680 21.001,6.960 21.135 L 7.220 21.260 12.000 21.260 L 16.780 21.260 17.040 21.135 C 17.320 21.001,17.643 20.707,17.759 20.480 C 17.972 20.067,17.960 20.554,17.960 12.000 C 17.960 3.446,17.972 3.933,17.759 3.520 C 17.643 3.293,17.320 2.999,17.040 2.865 L 16.780 2.740 12.060 2.732 C 8.325 2.726,7.307 2.735,7.180 2.776 M16.420 12.000 L 16.420 19.780 12.000 19.780 L 7.580 19.780 7.570 12.040 C 7.564 7.783,7.568 4.277,7.579 4.250 C 7.594 4.210,8.501 4.202,12.009 4.210 L 16.420 4.220 16.420 12.000 M10.659 4.856 C 10.493 4.928,10.293 5.166,10.234 5.363 C 10.147 5.654,10.275 5.972,10.557 6.166 L 10.694 6.260 12.000 6.260 L 13.306 6.260 13.443 6.166 C 13.843 5.891,13.906 5.414,13.589 5.053 C 13.371 4.805,13.335 4.800,11.991 4.802 C 11.081 4.803,10.750 4.816,10.659 4.856 " stroke="none" fill-rule="evenodd" fill="black"></path></svg>