<svg width="24" height="24" viewBox="0 0 24 24" fill="none" xmlns="http://www.w3.org/2000/svg"><path d="M18.780 5.219 C 18.758 5.227,18.692 5.244,18.633 5.256 C 18.495 5.287,18.296 5.455,18.209 5.615 C 18.145 5.730,18.138 6.066,18.120 9.840 L 18.100 13.940 12.521 13.950 L 6.942 13.960 8.026 12.870 C 9.198 11.692,9.227 11.653,9.191 11.277 C 9.145 10.803,8.582 10.493,8.145 10.700 C 8.076 10.733,7.215 11.566,6.232 12.550 C 4.643 14.142,4.441 14.359,4.401 14.513 C 4.347 14.719,4.374 14.883,4.501 15.100 C 4.552 15.188,5.374 16.035,6.327 16.983 C 8.136 18.781,8.161 18.802,8.485 18.799 C 8.722 18.797,9.068 18.544,9.157 18.307 C 9.212 18.164,9.212 17.917,9.158 17.773 C 9.135 17.711,8.627 17.169,8.028 16.570 L 6.941 15.480 12.460 15.479 C 15.641 15.479,18.089 15.463,18.237 15.441 C 18.943 15.339,19.493 14.797,19.600 14.100 C 19.628 13.912,19.639 12.501,19.631 9.800 C 19.620 5.811,19.619 5.779,19.536 5.620 C 19.490 5.532,19.382 5.412,19.296 5.353 C 19.154 5.255,18.879 5.184,18.780 5.219 " stroke="none" fill-rule="evenodd" fill="black"></path></svg>