<svg width="24" height="24" viewBox="0 0 24 24" fill="none" xmlns="http://www.w3.org/2000/svg"><path d="M10.842 3.625 C 8.088 3.999,5.651 5.758,4.420 8.260 C 3.823 9.474,3.555 10.633,3.555 12.000 C 3.555 13.367,3.823 14.526,4.420 15.740 C 5.528 17.992,7.629 19.665,10.068 20.235 C 11.289 20.521,12.711 20.521,13.932 20.235 C 16.368 19.666,18.473 17.990,19.580 15.740 C 19.992 14.903,20.250 14.064,20.383 13.132 C 20.464 12.565,20.464 11.435,20.383 10.868 C 20.030 8.395,18.682 6.273,16.600 4.911 C 15.563 4.233,14.346 3.783,13.108 3.622 C 12.525 3.546,11.415 3.547,10.842 3.625 M13.223 5.161 C 14.245 5.334,15.479 5.880,16.270 6.509 L 16.360 6.580 15.410 7.530 L 14.460 8.479 14.220 8.333 C 13.896 8.137,13.324 7.905,12.937 7.814 C 12.467 7.704,11.465 7.712,11.000 7.829 C 10.604 7.928,10.120 8.129,9.780 8.334 L 9.540 8.479 8.590 7.530 L 7.640 6.580 7.730 6.509 C 8.485 5.908,9.692 5.361,10.664 5.178 C 11.463 5.028,12.396 5.022,13.223 5.161 M8.425 9.619 C 8.169 10.011,7.971 10.462,7.830 10.980 C 7.755 11.252,7.742 11.404,7.742 12.000 C 7.742 12.596,7.755 12.748,7.830 13.020 C 7.971 13.538,8.169 13.989,8.425 14.381 C 8.474 14.457,8.412 14.528,7.527 15.413 L 6.576 16.364 6.354 16.052 C 5.883 15.388,5.580 14.768,5.339 13.974 C 5.137 13.306,5.071 12.821,5.071 12.000 C 5.071 11.179,5.137 10.694,5.339 10.026 C 5.580 9.232,5.883 8.612,6.354 7.948 L 6.576 7.636 7.527 8.587 C 8.412 9.472,8.474 9.543,8.425 9.619 M17.804 8.180 C 18.185 8.748,18.495 9.433,18.698 10.152 C 18.871 10.768,18.930 11.241,18.930 12.000 C 18.930 13.173,18.738 14.018,18.228 15.080 C 18.068 15.414,17.701 16.006,17.491 16.270 L 17.420 16.360 16.473 15.410 L 15.526 14.460 15.703 14.161 C 15.903 13.823,16.073 13.400,16.184 12.960 C 16.292 12.533,16.292 11.467,16.184 11.040 C 16.073 10.600,15.903 10.177,15.703 9.839 L 15.526 9.540 16.473 8.590 L 17.420 7.640 17.491 7.730 C 17.531 7.779,17.671 7.982,17.804 8.180 M12.660 9.285 C 12.770 9.309,13.030 9.409,13.238 9.509 C 13.557 9.662,13.670 9.743,13.963 10.037 C 14.256 10.329,14.339 10.443,14.492 10.762 C 14.710 11.214,14.773 11.493,14.773 12.000 C 14.773 12.507,14.710 12.786,14.492 13.238 C 14.339 13.557,14.256 13.671,13.963 13.963 C 13.670 14.257,13.557 14.338,13.238 14.491 C 12.745 14.727,12.513 14.780,11.980 14.777 C 11.178 14.772,10.613 14.535,10.035 13.960 C 9.743 13.669,9.662 13.558,9.509 13.238 C 9.280 12.761,9.226 12.525,9.226 12.000 C 9.226 11.475,9.280 11.239,9.509 10.762 C 9.818 10.117,10.434 9.580,11.140 9.340 C 11.541 9.205,12.172 9.182,12.660 9.285 M9.925 15.755 C 10.212 15.917,10.574 16.059,10.980 16.170 C 11.424 16.291,12.508 16.298,12.960 16.184 C 13.400 16.073,13.823 15.903,14.161 15.703 L 14.460 15.526 15.410 16.473 L 16.360 17.420 16.270 17.491 C 15.401 18.179,14.195 18.696,13.020 18.886 C 12.607 18.952,11.392 18.952,10.980 18.886 C 9.872 18.707,8.836 18.284,7.948 17.648 L 7.636 17.424 8.587 16.473 C 9.472 15.588,9.543 15.526,9.619 15.575 C 9.663 15.604,9.801 15.685,9.925 15.755 " stroke="none" fill-rule="evenodd" fill="black"></path></svg>