<svg width="24" height="24" viewBox="0 0 24 24" fill="none" xmlns="http://www.w3.org/2000/svg">
<path fill-rule="evenodd" clip-rule="evenodd" d="M11.4993 4.19157C11.7842 3.93614 12.2158 3.93614 12.5007 4.19157L19.7507 10.6916C19.9821 10.899 20.0615 11.2278 19.9505 11.518C19.8394 11.8083 19.5608 12 19.25 12H19V18.5H19.25C19.6642 18.5 20 18.8358 20 19.25C20 19.6642 19.6642 20 19.25 20H18.25H14.25H9.75H5.75H4.75C4.33579 20 4 19.6642 4 19.25C4 18.8358 4.33579 18.5 4.75 18.5H5V12H4.75C4.4392 12 4.1606 11.8083 4.04953 11.518C3.93846 11.2278 4.01793 10.899 4.24934 10.6916L11.4993 4.19157ZM6.5 18.5H9V12H6.5V18.5ZM10.5 18.5H13.5V12H10.5V18.5ZM15 18.5H17.5V12H15V18.5ZM17.2899 10.5L12 5.75729L6.71006 10.5H17.2899Z" fill="black"/>
</svg>
