<svg width="24" height="24" viewBox="0 0 24 24" fill="none" xmlns="http://www.w3.org/2000/svg">
<path fill-rule="evenodd" clip-rule="evenodd" d="M12 5.5C11.3022 5.5 10.6301 5.60996 10 5.8135V9.25C10 11.3211 8.32106 13 6.25 13H5.57645C5.92157 15.2351 7.40532 17.0943 9.41648 17.9663C9.41863 17.9611 9.42082 17.9558 9.42303 17.9504C9.4854 17.7979 9.57071 17.5709 9.65663 17.2845C9.82917 16.7094 10 15.9087 10 15C10 14.2993 10.2055 13.7721 10.5976 13.3677C10.884 13.0724 11.2628 12.8655 11.5406 12.7139L11.5407 12.7138C11.5863 12.6889 11.6292 12.6654 11.6686 12.6434C11.9875 12.4642 12.2542 12.2904 12.4851 12.0125C12.7129 11.7384 12.9439 11.3153 13.092 10.5928L15.1897 9.80449C14.8902 10.0484 14.6572 10.4266 14.5614 10.8938L14.5614 10.8939C14.3729 11.8137 14.051 12.4751 13.6388 12.9712C13.2297 13.4635 12.7694 13.7454 12.4032 13.9511C12.3387 13.9874 12.2797 14.0202 12.2256 14.0502C11.9395 14.2094 11.7907 14.2921 11.6745 14.4119C11.5949 14.494 11.5 14.6257 11.5 15C11.5 16.0913 11.2958 17.0406 11.0934 17.7155C11.0112 17.9895 10.9286 18.2206 10.8586 18.4001C11.2291 18.4658 11.6106 18.5 12 18.5C15.5899 18.5 18.5 15.5899 18.5 12C18.5 11.1141 18.3228 10.2696 18.0018 9.49999C18.0012 9.5 18.0006 9.5 18 9.5H16C15.7116 9.5 15.4294 9.60922 15.1897 9.80447L13.092 10.5927C13.363 9.26977 14.4394 8 16 8H17.1239C15.9342 6.47823 14.0813 5.5 12 5.5ZM15.1897 9.80447C15.1897 9.80448 15.1897 9.80449 15.1897 9.80449L16 9.5L15.1897 9.80447ZM5.51894 11.5C5.6781 9.40779 6.82774 7.59245 8.5 6.52182V9.25C8.5 10.4927 7.49264 11.5 6.25 11.5H5.51894ZM4 12C4 7.58173 7.58173 4 12 4C16.4183 4 20 7.58173 20 12C20 16.4183 16.4183 20 12 20C7.58173 20 4 16.4183 4 12Z" fill="black"/>
</svg>
