<svg width="24" height="24" viewBox="0 0 24 24" fill="none" xmlns="http://www.w3.org/2000/svg"><path d="M16.020 4.400 C 13.965 4.414,13.158 4.433,13.100 4.467 C 12.975 4.539,12.809 4.729,12.763 4.853 C 12.646 5.162,12.771 5.553,13.048 5.746 L 13.213 5.860 15.127 5.880 L 17.040 5.900 13.779 9.160 C 10.673 12.264,10.515 12.430,10.457 12.626 C 10.389 12.858,10.407 12.985,10.541 13.220 C 10.703 13.506,11.047 13.639,11.374 13.543 C 11.570 13.485,11.736 13.327,14.840 10.221 L 18.100 6.960 18.120 8.873 L 18.140 10.787 18.254 10.952 C 18.453 11.239,18.855 11.359,19.172 11.226 C 19.346 11.153,19.547 10.916,19.599 10.722 C 19.628 10.615,19.639 9.654,19.631 7.752 C 19.621 5.079,19.616 4.932,19.544 4.786 C 19.454 4.606,19.221 4.439,19.010 4.405 C 18.927 4.391,17.582 4.389,16.020 4.400 M5.500 4.456 C 4.982 4.620,4.637 4.959,4.456 5.480 C 4.383 5.693,4.380 5.908,4.380 12.000 C 4.380 18.092,4.383 18.307,4.456 18.520 C 4.638 19.046,4.987 19.388,5.505 19.548 C 5.728 19.616,6.069 19.620,12.000 19.620 C 17.931 19.620,18.272 19.616,18.495 19.548 C 19.024 19.384,19.384 19.024,19.548 18.495 C 19.614 18.281,19.620 18.075,19.620 16.180 L 19.620 14.100 19.526 13.937 C 19.249 13.453,18.555 13.426,18.250 13.888 L 18.140 14.054 18.120 16.077 L 18.100 18.100 12.000 18.100 L 5.900 18.100 5.900 12.000 L 5.900 5.900 7.923 5.880 L 9.946 5.860 10.112 5.750 C 10.563 5.452,10.555 4.764,10.097 4.496 L 9.933 4.400 7.796 4.403 C 6.188 4.405,5.620 4.418,5.500 4.456 " stroke="none" fill-rule="evenodd" fill="black"></path></svg>