<svg width="24" height="24" viewBox="0 0 24 24" fill="none" xmlns="http://www.w3.org/2000/svg">
<path fill-rule="evenodd" clip-rule="evenodd" d="M16.903 8.36641C17.2544 8.01494 17.2544 7.44509 16.903 7.09362C16.5515 6.74215 15.9816 6.74215 15.6302 7.09362L11.9983 10.7255L8.36638 7.09362C8.01491 6.74215 7.44506 6.74215 7.09359 7.09362C6.74212 7.44509 6.74212 8.01494 7.09359 8.36641L10.7255 11.9983L7.09359 15.6302C6.74212 15.9817 6.74212 16.5515 7.09359 16.903C7.44506 17.2545 8.01491 17.2545 8.36638 16.903L11.9983 13.2711L15.6302 16.903C15.9816 17.2545 16.5515 17.2545 16.903 16.903C17.2544 16.5515 17.2544 15.9817 16.903 15.6302L13.2711 11.9983L16.903 8.36641Z" fill="#0E1438"/>
</svg>
