<svg width="24" height="24" viewBox="0 0 24 24" fill="none" xmlns="http://www.w3.org/2000/svg">
<path fill-rule="evenodd" clip-rule="evenodd" d="M5 4.75C5 4.33579 5.33579 4 5.75 4H16.25C17.7688 4 19 5.23122 19 6.75V17.25C19 18.7688 17.7688 20 16.25 20H5.75C5.33579 20 5 19.6642 5 19.25V4.75ZM6.5 5.5V18.5H16.25C16.9404 18.5 17.5 17.9404 17.5 17.25V6.75C17.5 6.05964 16.9404 5.5 16.25 5.5H6.5ZM12 8.5C11.1716 8.5 10.5 9.17157 10.5 10C10.5 10.8284 11.1716 11.5 12 11.5C12.8284 11.5 13.5 10.8284 13.5 10C13.5 9.17157 12.8284 8.5 12 8.5ZM9 10C9 8.34315 10.3431 7 12 7C13.6569 7 15 8.34315 15 10C15 11.6569 13.6569 13 12 13C10.3431 13 9 11.6569 9 10ZM9.75 14.5C9.33579 14.5 9 14.8358 9 15.25C9 15.6642 9.33579 16 9.75 16H14.25C14.6642 16 15 15.6642 15 15.25C15 14.8358 14.6642 14.5 14.25 14.5H9.75Z" fill="#0E1438"/>
</svg>
