<svg width="24" height="24" viewBox="0 0 24 24" fill="none" xmlns="http://www.w3.org/2000/svg"><path d="M3.975 6.116 C 3.805 6.194,3.631 6.387,3.580 6.557 C 3.533 6.710,3.551 6.987,3.616 7.113 C 3.694 7.263,3.932 7.471,4.071 7.509 C 4.214 7.549,19.786 7.549,19.929 7.509 C 20.068 7.470,20.306 7.263,20.384 7.112 C 20.470 6.946,20.463 6.630,20.370 6.450 C 20.328 6.367,20.216 6.246,20.123 6.180 L 19.953 6.060 12.047 6.051 C 4.393 6.042,4.135 6.044,3.975 6.116 M4.134 11.278 C 3.482 11.435,3.341 12.293,3.910 12.647 L 4.060 12.740 12.003 12.740 L 19.947 12.740 20.106 12.629 C 20.569 12.309,20.552 11.633,20.074 11.360 L 19.900 11.260 12.080 11.254 C 7.779 11.250,4.203 11.261,4.134 11.278 M3.980 16.527 C 3.851 16.597,3.678 16.771,3.615 16.891 C 3.551 17.013,3.533 17.291,3.580 17.443 C 3.631 17.613,3.805 17.806,3.975 17.883 C 4.134 17.956,4.409 17.958,12.000 17.958 C 19.591 17.958,19.866 17.956,20.025 17.883 C 20.195 17.806,20.369 17.613,20.420 17.443 C 20.467 17.291,20.449 17.013,20.385 16.891 C 20.320 16.765,20.143 16.592,20.013 16.525 C 19.889 16.461,4.095 16.463,3.980 16.527 " stroke="none" fill-rule="evenodd" fill="black"></path></svg>