<svg width="24" height="24" viewBox="0 0 24 24" fill="none" xmlns="http://www.w3.org/2000/svg"><path d="M15.040 8.645 C 14.985 8.667,14.897 8.724,14.845 8.772 C 14.793 8.821,13.823 9.919,12.690 11.213 L 10.629 13.566 9.845 12.788 C 9.252 12.200,9.022 11.998,8.905 11.960 C 8.285 11.761,7.723 12.392,7.996 12.980 C 8.045 13.084,8.460 13.527,9.185 14.247 C 10.151 15.205,10.320 15.357,10.452 15.381 C 10.659 15.420,10.937 15.384,11.060 15.304 C 11.203 15.210,15.924 9.810,16.009 9.642 C 16.131 9.403,16.077 9.035,15.888 8.827 C 15.709 8.629,15.300 8.541,15.040 8.645 " stroke="none" fill-rule="evenodd" fill="black"></path></svg>