<svg width="24" height="24" viewBox="0 0 24 24" fill="none" xmlns="http://www.w3.org/2000/svg"><path d="M9.161 3.812 C 9.085 3.837,8.938 3.938,8.836 4.038 C 8.657 4.212,8.638 4.253,8.427 4.920 C 8.305 5.305,7.816 6.852,7.341 8.358 C 6.866 9.864,6.457 11.119,6.433 11.148 C 6.399 11.189,6.080 11.200,4.934 11.200 C 3.563 11.200,3.468 11.205,3.322 11.279 C 2.788 11.551,2.795 12.336,3.333 12.597 C 3.509 12.682,3.541 12.683,5.147 12.672 L 6.782 12.660 7.050 12.528 C 7.378 12.366,7.658 12.094,7.796 11.801 C 7.853 11.679,8.260 10.440,8.699 9.047 L 9.498 6.514 9.568 6.727 C 9.606 6.844,10.530 9.766,11.620 13.219 C 12.710 16.672,13.634 19.561,13.674 19.639 C 13.767 19.819,14.035 20.025,14.252 20.083 C 14.602 20.178,15.040 20.031,15.257 19.748 C 15.372 19.597,15.292 19.837,16.559 15.820 L 17.543 12.700 19.064 12.680 L 20.586 12.660 20.748 12.553 C 21.038 12.361,21.154 11.974,21.018 11.650 C 20.939 11.459,20.855 11.369,20.668 11.274 C 20.524 11.201,20.432 11.197,18.848 11.208 L 17.180 11.220 16.940 11.338 C 16.654 11.477,16.330 11.790,16.208 12.042 C 16.160 12.142,15.761 13.364,15.321 14.758 C 14.880 16.152,14.512 17.301,14.503 17.311 C 14.493 17.320,14.459 17.241,14.427 17.134 C 13.891 15.340,10.368 4.302,10.298 4.193 C 10.061 3.826,9.601 3.672,9.161 3.812 " stroke="none" fill-rule="evenodd" fill="black"></path></svg>