<svg width="24" height="24" viewBox="0 0 24 24" fill="none" xmlns="http://www.w3.org/2000/svg"><path d="M8.540 4.654 C 6.802 5.233,5.301 5.748,5.204 5.797 C 4.796 6.007,4.473 6.476,4.396 6.970 C 4.336 7.355,4.372 12.567,4.437 12.959 C 4.639 14.172,5.071 15.200,5.787 16.171 C 6.164 16.681,7.073 17.587,7.680 18.055 C 8.567 18.740,10.063 19.670,11.402 20.369 C 11.948 20.654,12.052 20.654,12.598 20.369 C 13.983 19.646,15.566 18.655,16.420 17.975 C 18.370 16.423,19.392 14.689,19.597 12.583 C 19.652 12.027,19.654 7.270,19.601 6.942 C 19.521 6.459,19.191 5.997,18.775 5.789 C 18.668 5.735,17.166 5.220,15.439 4.645 C 12.452 3.651,12.282 3.600,11.999 3.600 C 11.715 3.600,11.542 3.653,8.540 4.654 M15.092 6.118 L 18.125 7.128 18.109 9.934 C 18.095 12.352,18.083 12.781,18.026 13.040 C 17.642 14.790,16.570 16.144,14.469 17.535 C 13.873 17.930,12.998 18.450,12.370 18.784 L 12.000 18.980 11.630 18.784 C 11.000 18.449,10.126 17.929,9.524 17.531 C 7.265 16.035,6.131 14.490,5.923 12.629 C 5.897 12.394,5.880 11.243,5.880 9.685 L 5.880 7.127 8.930 6.107 C 10.607 5.545,11.998 5.091,12.020 5.097 C 12.042 5.103,13.425 5.563,15.092 6.118 M14.180 9.178 C 14.158 9.186,14.086 9.205,14.020 9.219 C 13.932 9.239,13.531 9.613,12.530 10.612 L 11.159 11.978 10.650 11.473 C 10.369 11.195,10.082 10.939,10.012 10.904 C 9.585 10.691,9.025 11.011,8.970 11.500 C 8.931 11.845,9.004 11.949,9.930 12.868 C 10.805 13.736,10.893 13.801,11.200 13.799 C 11.449 13.797,11.630 13.639,13.307 11.954 C 14.963 10.291,14.994 10.257,15.021 10.070 C 15.036 9.966,15.037 9.817,15.023 9.739 C 14.993 9.581,14.804 9.345,14.638 9.259 C 14.524 9.200,14.250 9.151,14.180 9.178 " stroke="none" fill-rule="evenodd" fill="black"></path></svg>