<svg width="24" height="24" viewBox="0 0 24 24" fill="none" xmlns="http://www.w3.org/2000/svg">
<path d="M21.375 6.27604C20.6855 6.57678 19.9447 6.77999 19.1661 6.87184C19.9604 6.40365 20.5698 5.66072 20.8572 4.77637C20.1141 5.21042 19.2907 5.52579 18.4146 5.69487C17.7127 4.96007 16.7135 4.5 15.607 4.5C13.4831 4.5 11.7605 6.19557 11.7605 8.2878C11.7605 8.58367 11.7952 8.87141 11.8596 9.1494C8.6614 8.9909 5.82817 7.48309 3.93055 5.19253C3.60024 5.75338 3.41031 6.40365 3.41031 7.09618C3.41031 8.40972 4.08992 9.56963 5.12131 10.2483C4.49042 10.228 3.89752 10.0581 3.37893 9.77447V9.82323C3.37893 11.6578 4.7043 13.1883 6.46484 13.5362C6.14114 13.6224 5.80175 13.6679 5.45162 13.6679C5.20389 13.6679 4.96193 13.6452 4.72742 13.6012C5.2171 15.105 6.63743 16.2007 8.32118 16.23C7.00407 17.246 5.3451 17.8516 3.54326 17.8516C3.23277 17.8516 2.92641 17.8337 2.625 17.7987C4.32774 18.8741 6.34923 19.5 8.52102 19.5C15.5979 19.5 19.4667 13.7305 19.4667 8.72673C19.4667 8.56416 19.4625 8.39997 19.4551 8.2374C20.2065 7.70256 20.8589 7.03685 21.3733 6.27848L21.375 6.27604Z" fill="black"/>
</svg>
