<svg width="24" height="24" viewBox="0 0 24 24" fill="none" xmlns="http://www.w3.org/2000/svg">
<path d="M18.6668 7.38639V11.9269C18.6668 16.0357 15.3895 17.8034 12.0846 19.586L12.0002 19.6316L11.9157 19.586C8.61078 17.8034 5.3335 16.0357 5.3335 11.9269V7.38639C5.3335 7.03056 5.55943 6.71399 5.89593 6.59832L11.7292 4.59311C11.9048 4.53276 12.0955 4.53276 12.2711 4.59311L18.1044 6.59832C18.4409 6.71399 18.6668 7.03056 18.6668 7.38639Z" stroke="black" stroke-width="1.5" stroke-linecap="round" stroke-linejoin="round"/>
<path d="M12.3877 8.25L10.5566 11.2691C10.5566 11.3761 10.6434 11.4628 10.7503 11.4628H13.7139C13.8687 11.4628 13.9609 11.6352 13.8751 11.7639L11.3751 15.75" stroke="black" stroke-width="1.5" stroke-linecap="round" stroke-linejoin="round"/>
</svg>
