<svg width="24" height="24" viewBox="0 0 24 24" fill="none" xmlns="http://www.w3.org/2000/svg"><path d="M15.260 4.174 C 15.172 4.203,15.019 4.276,14.920 4.337 C 14.696 4.476,4.125 15.040,3.991 15.260 C 3.766 15.628,3.760 15.684,3.760 17.380 C 3.760 18.735,3.769 18.972,3.827 19.143 C 3.993 19.635,4.372 20.012,4.864 20.175 C 5.045 20.235,5.256 20.241,6.684 20.231 L 8.300 20.220 8.580 20.088 C 8.849 19.962,9.074 19.742,14.245 14.568 C 20.095 8.714,19.793 9.040,19.880 8.497 C 19.928 8.199,19.879 7.873,19.740 7.567 C 19.651 7.374,19.418 7.122,18.168 5.868 C 16.448 4.144,16.451 4.146,15.801 4.131 C 15.571 4.125,15.356 4.142,15.260 4.174 M17.090 6.910 C 17.810 7.630,18.400 8.238,18.400 8.260 C 18.400 8.283,18.085 8.616,17.700 9.000 L 17.000 9.699 15.650 8.350 L 14.301 7.000 15.000 6.300 C 15.384 5.915,15.717 5.600,15.739 5.600 C 15.761 5.600,16.369 6.189,17.090 6.910 M14.600 9.420 L 15.940 10.760 11.940 14.760 L 7.940 18.760 6.638 18.760 C 5.679 18.760,5.323 18.747,5.288 18.712 C 5.253 18.677,5.240 18.321,5.240 17.362 L 5.240 16.061 9.230 12.070 C 11.424 9.876,13.229 8.080,13.240 8.080 C 13.251 8.080,13.863 8.683,14.600 9.420 " stroke="none" fill-rule="evenodd" fill="black"></path></svg>