<svg width="24" height="24" viewBox="0 0 24 24" fill="none" xmlns="http://www.w3.org/2000/svg">
<path d="M11.6248 3.69408C11.7756 3.37972 12.2244 3.37972 12.3753 3.69408L14.5158 8.15608C14.5765 8.28264 14.6973 8.37001 14.8368 8.38831L19.7628 9.0342C20.11 9.07972 20.2488 9.50648 19.9946 9.74655L16.3923 13.1479C16.2899 13.2446 16.2437 13.3864 16.2693 13.5247L17.1739 18.3836C17.2378 18.7264 16.8745 18.99 16.5669 18.824L12.198 16.4654C12.0745 16.3987 11.9255 16.3987 11.802 16.4654L7.43307 18.824C7.12552 18.99 6.76227 18.7264 6.8261 18.3836L7.73062 13.5247C7.75637 13.3864 7.71008 13.2446 7.60767 13.1479L4.00542 9.74655C3.75118 9.50648 3.89002 9.07972 4.23719 9.0342L9.16325 8.38831C9.30275 8.37001 9.42352 8.28264 9.48423 8.15608L11.6248 3.69408Z" stroke="black" stroke-width="1.25" stroke-linecap="round" stroke-linejoin="round"/>
</svg>
