<svg width="24" height="24" viewBox="0 0 24 24" fill="none" xmlns="http://www.w3.org/2000/svg"><path d="M6.436 4.694 C 6.159 4.808,6.016 4.908,5.822 5.124 C 5.633 5.332,5.488 5.644,5.439 5.947 C 5.416 6.087,5.400 8.518,5.400 12.047 L 5.400 17.914 4.827 17.927 C 4.279 17.939,4.246 17.945,4.088 18.050 C 3.797 18.243,3.677 18.645,3.814 18.972 C 3.896 19.169,4.123 19.345,4.359 19.396 C 4.649 19.458,19.351 19.458,19.641 19.396 C 19.877 19.345,20.104 19.169,20.186 18.972 C 20.320 18.651,20.200 18.240,19.916 18.053 C 19.753 17.944,19.724 17.940,19.173 17.927 L 18.600 17.914 18.600 12.047 C 18.600 8.401,18.585 6.089,18.560 5.940 C 18.475 5.418,18.122 4.949,17.649 4.727 L 17.420 4.620 12.040 4.611 L 6.660 4.601 6.436 4.694 M17.070 12.010 L 17.080 17.920 12.000 17.920 L 6.920 17.920 6.920 12.027 C 6.920 8.785,6.932 6.121,6.947 6.107 C 6.962 6.092,9.243 6.084,12.017 6.090 L 17.060 6.100 17.070 12.010 M9.246 7.961 C 8.842 8.129,8.650 8.579,8.814 8.972 C 8.950 9.298,9.279 9.440,9.897 9.440 C 10.551 9.440,10.853 9.316,11.003 8.985 C 11.157 8.646,11.054 8.264,10.752 8.054 C 10.590 7.942,10.578 7.940,9.964 7.931 C 9.621 7.926,9.298 7.940,9.246 7.961 M13.380 7.975 C 12.983 8.155,12.818 8.591,12.997 8.985 C 13.147 9.316,13.449 9.440,14.103 9.440 C 14.721 9.440,15.050 9.298,15.186 8.972 C 15.320 8.651,15.200 8.240,14.916 8.053 C 14.750 7.943,14.732 7.940,14.123 7.930 C 13.664 7.923,13.468 7.935,13.380 7.975 M9.420 11.257 C 9.398 11.266,9.331 11.284,9.271 11.297 C 9.211 11.310,9.095 11.379,9.015 11.450 C 8.595 11.818,8.699 12.443,9.220 12.684 C 9.453 12.792,10.387 12.792,10.620 12.684 C 10.915 12.547,11.080 12.303,11.080 12.000 C 11.080 11.799,11.021 11.647,10.887 11.506 C 10.687 11.294,10.584 11.265,10.000 11.253 C 9.703 11.247,9.442 11.249,9.420 11.257 M13.580 11.257 C 13.558 11.266,13.491 11.284,13.431 11.297 C 13.371 11.310,13.255 11.379,13.175 11.450 C 12.755 11.818,12.859 12.443,13.380 12.684 C 13.613 12.792,14.547 12.792,14.780 12.684 C 15.075 12.547,15.240 12.303,15.240 12.000 C 15.240 11.799,15.181 11.647,15.047 11.506 C 14.847 11.294,14.744 11.265,14.160 11.253 C 13.863 11.247,13.602 11.249,13.580 11.257 M9.180 14.663 C 8.898 14.809,8.759 15.030,8.761 15.329 C 8.762 15.581,8.884 15.815,9.084 15.947 C 9.249 16.057,9.271 16.060,9.868 16.073 C 10.434 16.085,10.497 16.079,10.664 15.998 C 11.205 15.736,11.213 14.952,10.678 14.679 C 10.544 14.611,10.442 14.600,9.912 14.600 C 9.436 14.600,9.273 14.614,9.180 14.663 M13.340 14.665 C 13.148 14.769,13.047 14.880,12.976 15.066 C 12.838 15.426,12.995 15.833,13.336 15.998 C 13.503 16.079,13.566 16.085,14.132 16.073 C 14.729 16.060,14.751 16.057,14.916 15.947 C 15.118 15.814,15.238 15.580,15.239 15.320 C 15.240 15.092,15.142 14.900,14.946 14.743 L 14.793 14.620 14.126 14.610 C 13.576 14.602,13.439 14.612,13.340 14.665 " stroke="none" fill-rule="evenodd" fill="black"></path></svg>