<svg width="24" height="24" viewBox="0 0 24 24" fill="none" xmlns="http://www.w3.org/2000/svg">
<path fill-rule="evenodd" clip-rule="evenodd" d="M16.7897 7.6237C16.9174 7.4923 17.0912 7.41577 17.2743 7.41031C17.4163 7.40612 17.5562 7.44493 17.6758 7.52164C17.7953 7.59835 17.8889 7.70938 17.9443 7.8402C17.9996 7.97101 18.0142 8.1155 17.986 8.25472C17.9578 8.39394 17.8883 8.52141 17.7864 8.62042L10.0329 16.3739C9.90071 16.5061 9.72145 16.5803 9.53454 16.5803C9.34763 16.5803 9.16837 16.5061 9.03618 16.3739L6.21672 13.5545C6.14907 13.4895 6.09506 13.4117 6.05785 13.3256C6.02065 13.2396 6.00099 13.1469 6.00004 13.0531C5.99908 12.9594 6.01685 12.8663 6.0523 12.7795C6.08774 12.6927 6.14016 12.6138 6.20647 12.5475C6.27278 12.4812 6.35166 12.4288 6.43848 12.3933C6.52531 12.3579 6.61833 12.3401 6.71211 12.3411C6.80588 12.342 6.89853 12.3617 6.98461 12.3989C7.07069 12.4361 7.14849 12.4901 7.21344 12.5578L9.53454 14.8789L16.7897 7.6237Z" fill="#0E1438"/>
<path d="M17.2743 7.41031L17.2669 7.16042L17.2668 7.16042L17.2743 7.41031ZM16.7897 7.6237L16.9665 7.80049L16.969 7.79791L16.7897 7.6237ZM17.6758 7.52164L17.5407 7.73205L17.5407 7.73205L17.6758 7.52164ZM17.986 8.25472L18.231 8.30429L18.231 8.30429L17.986 8.25472ZM17.7864 8.62042L17.6121 8.44114L17.6096 8.44364L17.7864 8.62042ZM10.0329 16.3739L10.2096 16.5507L10.2097 16.5507L10.0329 16.3739ZM9.03618 16.3739L8.8594 16.5507L8.85944 16.5507L9.03618 16.3739ZM6.21672 13.5545L6.39353 13.3777L6.38986 13.3741L6.21672 13.5545ZM6.05785 13.3256L5.82837 13.4248L5.82837 13.4248L6.05785 13.3256ZM6.00004 13.0531L6.25002 13.0506L6.00004 13.0531ZM6.0523 12.7795L6.28375 12.874H6.28375L6.0523 12.7795ZM6.20647 12.5475L6.38325 12.7243L6.20647 12.5475ZM6.43848 12.3933L6.34399 12.1619L6.34399 12.1619L6.43848 12.3933ZM6.71211 12.3411L6.71465 12.0911L6.71211 12.3411ZM7.21344 12.5578L7.03306 12.7309L7.03666 12.7345L7.21344 12.5578ZM9.53454 14.8788L9.35776 15.0556L9.53454 15.2324L9.71131 15.0556L9.53454 14.8788ZM17.2668 7.16042C17.0188 7.16781 16.7833 7.27149 16.6104 7.44948L16.969 7.79791C17.0514 7.71311 17.1635 7.66372 17.2817 7.6602L17.2668 7.16042ZM17.8108 7.31123C17.6488 7.20731 17.4593 7.15475 17.2669 7.16042L17.2817 7.6602C17.3733 7.6575 17.4636 7.68254 17.5407 7.73205L17.8108 7.31123ZM18.1745 7.74276C18.0995 7.56556 17.9727 7.41514 17.8108 7.31123L17.5407 7.73205C17.6179 7.78155 17.6783 7.85321 17.714 7.93763L18.1745 7.74276ZM18.231 8.30429C18.2692 8.11569 18.2495 7.91997 18.1745 7.74276L17.714 7.93763C17.7498 8.02205 17.7591 8.1153 17.741 8.20515L18.231 8.30429ZM17.9607 8.79969C18.0986 8.66556 18.1929 8.49289 18.231 8.30429L17.741 8.20515C17.7228 8.295 17.6779 8.37726 17.6122 8.44115L17.9607 8.79969ZM10.2097 16.5507L17.9632 8.7972L17.6096 8.44364L9.85612 16.1972L10.2097 16.5507ZM9.53454 16.8303C9.78773 16.8303 10.0306 16.7297 10.2096 16.5507L9.85616 16.1971C9.77085 16.2824 9.65516 16.3303 9.53454 16.3303V16.8303ZM8.85944 16.5507C9.03851 16.7297 9.28134 16.8303 9.53454 16.8303V16.3303C9.41391 16.3303 9.29823 16.2824 9.21292 16.1971L8.85944 16.5507ZM6.03994 13.7313L8.8594 16.5507L9.21295 16.1972L6.39349 13.3777L6.03994 13.7313ZM5.82837 13.4248C5.87877 13.5414 5.95193 13.6468 6.04357 13.7348L6.38986 13.3741C6.3462 13.3322 6.31135 13.282 6.28734 13.2265L5.82837 13.4248ZM5.75005 13.0557C5.75134 13.1827 5.77797 13.3082 5.82837 13.4248L6.28734 13.2265C6.26332 13.1709 6.25064 13.1111 6.25002 13.0506L5.75005 13.0557ZM5.82084 12.685C5.77282 12.8026 5.74876 12.9287 5.75005 13.0557L6.25002 13.0506C6.24941 12.9901 6.26087 12.93 6.28375 12.874L5.82084 12.685ZM6.02969 12.3707C5.93986 12.4606 5.86886 12.5674 5.82084 12.685L6.28375 12.874C6.30663 12.818 6.34045 12.7671 6.38325 12.7243L6.02969 12.3707ZM6.34399 12.1619C6.22638 12.2099 6.11952 12.2809 6.02969 12.3707L6.38325 12.7243C6.42604 12.6815 6.47695 12.6477 6.53298 12.6248L6.34399 12.1619ZM6.71465 12.0911C6.58762 12.0898 6.4616 12.1139 6.34399 12.1619L6.53298 12.6248C6.58901 12.6019 6.64905 12.5904 6.70956 12.5911L6.71465 12.0911ZM7.08379 12.1694C6.96718 12.119 6.84168 12.0924 6.71465 12.0911L6.70956 12.5911C6.77008 12.5917 6.82987 12.6044 6.88543 12.6284L7.08379 12.1694ZM7.39378 12.3846C7.30579 12.293 7.20041 12.2198 7.08379 12.1694L6.88543 12.6284C6.94098 12.6524 6.99119 12.6872 7.0331 12.7309L7.39378 12.3846ZM9.71131 14.7021L7.39022 12.381L7.03666 12.7345L9.35776 15.0556L9.71131 14.7021ZM16.6129 7.44692L9.35776 14.7021L9.71131 15.0556L16.9665 7.80047L16.6129 7.44692Z" fill="#0E1438"/>
</svg>
