<svg width="24" height="24" viewBox="0 0 24 24" fill="none" xmlns="http://www.w3.org/2000/svg">
<path fill-rule="evenodd" clip-rule="evenodd" d="M10.2655 4.00016C10.6061 4.00722 10.8991 4.2429 10.9791 4.57402L13.7862 16.2035L15.0253 11.5568C15.1129 11.2284 15.4102 11 15.75 11H19.25C19.6642 11 20 11.3358 20 11.75C20 12.1642 19.6642 12.5 19.25 12.5H16.3262L14.4747 19.4432C14.3863 19.7748 14.0842 20.004 13.7411 19.9999C13.398 19.9959 13.1014 19.7595 13.0209 19.426L10.189 7.6936L8.97114 11.956C8.87915 12.278 8.58486 12.5 8.25 12.5H4.75C4.33579 12.5 4 12.1642 4 11.75C4 11.3358 4.33579 11 4.75 11H7.68427L9.52886 4.54396C9.62244 4.21643 9.92498 3.9931 10.2655 4.00016Z" fill="black"/>
</svg>
