<svg width="24" height="24" viewBox="0 0 24 24" fill="none" xmlns="http://www.w3.org/2000/svg"><path d="M5.494 4.444 C 5.140 4.546,4.722 4.902,4.548 5.250 C 4.490 5.365,4.424 5.577,4.402 5.720 C 4.343 6.088,4.347 8.834,4.406 9.069 C 4.545 9.619,5.287 9.811,5.665 9.394 C 5.860 9.178,5.859 9.189,5.880 7.500 L 5.900 5.900 7.500 5.880 C 9.189 5.859,9.178 5.860,9.394 5.665 C 9.539 5.534,9.611 5.361,9.613 5.141 C 9.616 4.863,9.507 4.655,9.285 4.515 L 9.104 4.400 7.362 4.404 C 6.404 4.406,5.563 4.424,5.494 4.444 M14.717 4.513 C 14.343 4.750,14.262 5.263,14.546 5.600 C 14.767 5.862,14.738 5.858,16.500 5.880 L 18.100 5.900 18.120 7.500 C 18.141 9.189,18.140 9.178,18.335 9.394 C 18.713 9.811,19.455 9.619,19.594 9.069 C 19.653 8.834,19.657 6.088,19.598 5.720 C 19.576 5.577,19.511 5.367,19.454 5.254 C 19.324 4.995,19.005 4.682,18.720 4.534 L 18.500 4.420 16.700 4.409 L 14.900 4.397 14.717 4.513 M10.900 7.895 C 10.618 7.986,10.467 8.086,10.167 8.376 L 9.874 8.660 9.387 8.680 C 8.962 8.697,8.872 8.714,8.679 8.809 C 8.391 8.950,8.096 9.244,7.965 9.520 L 7.860 9.740 7.860 12.000 L 7.860 14.260 7.965 14.480 C 8.099 14.761,8.399 15.061,8.680 15.195 L 8.900 15.300 12.000 15.300 L 15.100 15.300 15.320 15.195 C 15.601 15.061,15.901 14.761,16.035 14.480 L 16.140 14.260 16.140 12.000 L 16.140 9.740 16.035 9.520 C 15.904 9.244,15.609 8.950,15.321 8.809 C 15.128 8.714,15.038 8.697,14.613 8.680 L 14.126 8.660 13.827 8.370 C 13.640 8.188,13.440 8.038,13.294 7.970 C 13.060 7.860,13.058 7.860,12.060 7.851 C 11.329 7.845,11.017 7.857,10.900 7.895 M13.082 9.380 C 13.556 9.822,13.794 9.919,14.417 9.920 C 14.692 9.920,14.790 9.935,14.847 9.986 C 14.916 10.049,14.920 10.164,14.920 11.993 C 14.920 13.743,14.913 13.941,14.854 14.007 C 14.791 14.076,14.650 14.080,12.007 14.080 C 9.476 14.080,9.220 14.074,9.153 14.014 C 9.084 13.951,9.080 13.836,9.080 12.007 C 9.080 10.257,9.087 10.059,9.146 9.993 C 9.201 9.933,9.275 9.920,9.576 9.920 C 10.207 9.919,10.443 9.823,10.918 9.380 L 11.238 9.080 12.000 9.080 L 12.762 9.080 13.082 9.380 M11.588 10.695 C 10.734 11.013,10.477 12.103,11.108 12.733 C 11.393 13.018,11.592 13.100,12.000 13.100 C 12.408 13.100,12.607 13.018,12.892 12.733 C 13.473 12.152,13.301 11.141,12.555 10.756 C 12.334 10.642,11.817 10.610,11.588 10.695 M4.717 14.512 C 4.381 14.728,4.382 14.722,4.368 16.458 C 4.352 18.478,4.383 18.655,4.827 19.123 C 5.081 19.390,5.367 19.542,5.720 19.598 C 6.088 19.657,8.834 19.653,9.069 19.594 C 9.785 19.413,9.800 18.359,9.089 18.162 C 8.998 18.137,8.339 18.120,7.410 18.120 L 5.880 18.120 5.879 16.550 C 5.878 14.782,5.875 14.762,5.579 14.536 C 5.456 14.443,5.381 14.419,5.164 14.408 C 4.927 14.396,4.881 14.406,4.717 14.512 M18.540 14.463 C 18.360 14.557,18.276 14.643,18.195 14.820 C 18.128 14.967,18.122 15.112,18.121 16.550 L 18.120 18.120 16.590 18.120 C 15.597 18.120,15.004 18.136,14.901 18.165 C 14.689 18.223,14.460 18.458,14.401 18.676 C 14.296 19.068,14.543 19.496,14.931 19.594 C 15.166 19.653,17.912 19.657,18.280 19.598 C 18.633 19.542,18.919 19.390,19.173 19.123 C 19.617 18.655,19.648 18.478,19.632 16.458 C 19.621 15.053,19.614 14.928,19.543 14.785 C 19.428 14.554,19.164 14.400,18.882 14.400 C 18.759 14.400,18.607 14.428,18.540 14.463 " stroke="none" fill-rule="evenodd" fill="black"></path></svg>