<svg width="24" height="24" viewBox="0 0 24 24" fill="none" xmlns="http://www.w3.org/2000/svg">
<path d="M8 8H8.01M8 16H8.01M16 8H16.01M16 16H16.01M13.25 12C13.25 12.3315 13.1183 12.6495 12.8839 12.8839C12.6495 13.1183 12.3315 13.25 12 13.25C11.6685 13.25 11.3505 13.1183 11.1161 12.8839C10.8817 12.6495 10.75 12.3315 10.75 12C10.75 11.6685 10.8817 11.3505 11.1161 11.1161C11.3505 10.8817 11.6685 10.75 12 10.75C12.3315 10.75 12.6495 10.8817 12.8839 11.1161C13.1183 11.3505 13.25 11.6685 13.25 12ZM13.25 6C13.25 6.33152 13.1183 6.64946 12.8839 6.88388C12.6495 7.1183 12.3315 7.25 12 7.25C11.6685 7.25 11.3505 7.1183 11.1161 6.88388C10.8817 6.64946 10.75 6.33152 10.75 6C10.75 5.66848 10.8817 5.35054 11.1161 5.11612C11.3505 4.8817 11.6685 4.75 12 4.75C12.3315 4.75 12.6495 4.8817 12.8839 5.11612C13.1183 5.35054 13.25 5.66848 13.25 6ZM19.25 12C19.25 12.3315 19.1183 12.6495 18.8839 12.8839C18.6495 13.1183 18.3315 13.25 18 13.25C17.6685 13.25 17.3505 13.1183 17.1161 12.8839C16.8817 12.6495 16.75 12.3315 16.75 12C16.75 11.6685 16.8817 11.3505 17.1161 11.1161C17.3505 10.8817 17.6685 10.75 18 10.75C18.3315 10.75 18.6495 10.8817 18.8839 11.1161C19.1183 11.3505 19.25 11.6685 19.25 12ZM7.25 12C7.25 12.3315 7.1183 12.6495 6.88388 12.8839C6.64946 13.1183 6.33152 13.25 6 13.25C5.66848 13.25 5.35054 13.1183 5.11612 12.8839C4.8817 12.6495 4.75 12.3315 4.75 12C4.75 11.6685 4.8817 11.3505 5.11612 11.1161C5.35054 10.8817 5.66848 10.75 6 10.75C6.33152 10.75 6.64946 10.8817 6.88388 11.1161C7.1183 11.3505 7.25 11.6685 7.25 12ZM13.25 18C13.25 18.3315 13.1183 18.6495 12.8839 18.8839C12.6495 19.1183 12.3315 19.25 12 19.25C11.6685 19.25 11.3505 19.1183 11.1161 18.8839C10.8817 18.6495 10.75 18.3315 10.75 18C10.75 17.6685 10.8817 17.3505 11.1161 17.1161C11.3505 16.8817 11.6685 16.75 12 16.75C12.3315 16.75 12.6495 16.8817 12.8839 17.1161C13.1183 17.3505 13.25 17.6685 13.25 18Z" stroke="black" stroke-width="1.5" stroke-linecap="round" stroke-linejoin="round"/>
</svg>
