<svg width="24" height="24" viewBox="0 0 24 24" fill="none" xmlns="http://www.w3.org/2000/svg">
<path fill-rule="evenodd" clip-rule="evenodd" d="M11.876 4.04999C11.0051 4.04999 10.2678 4.69262 10.1488 5.55536L10.0622 6.18307C10.0509 6.26486 9.9777 6.38697 9.80126 6.45708C9.73731 6.48249 9.67391 6.50897 9.61108 6.5365C9.43743 6.61259 9.29922 6.57877 9.23314 6.5292L8.92753 6.3C8.23336 5.77937 7.262 5.8484 6.64844 6.46197L6.46197 6.64844C5.84841 7.262 5.77937 8.23336 6.3 8.92753L6.52921 9.23313C6.57877 9.29922 6.6126 9.43742 6.53651 9.61108C6.50897 9.67391 6.48249 9.73731 6.45708 9.80126C6.38697 9.9777 6.26486 10.0509 6.18307 10.0622L5.55536 10.1488C4.69262 10.2678 4.04999 11.0051 4.04999 11.876V12.1313C4.04999 13.0022 4.69262 13.7396 5.55536 13.8586L6.18307 13.9451C6.26486 13.9564 6.38697 14.0296 6.45708 14.2061C6.48249 14.27 6.50897 14.3334 6.5365 14.3963C6.6126 14.5699 6.57877 14.7081 6.5292 14.7742L6.3 15.0798C5.77937 15.774 5.8484 16.7453 6.46197 17.3589L6.64844 17.5454C7.262 18.1589 8.23336 18.228 8.92753 17.7073L9.23313 17.4781C9.29922 17.4286 9.43742 17.3947 9.61108 17.4708C9.67391 17.4984 9.73731 17.5248 9.80126 17.5503C9.9777 17.6204 10.0509 17.7425 10.0622 17.8243L10.1488 18.452C10.2678 19.3147 11.0051 19.9573 11.876 19.9573H12.1313C13.0022 19.9573 13.7396 19.3147 13.8586 18.452L13.9451 17.8243C13.9564 17.7425 14.0296 17.6204 14.2061 17.5503C14.27 17.5248 14.3334 17.4984 14.3963 17.4708C14.5699 17.3947 14.7081 17.4286 14.7742 17.4781L15.0798 17.7073C15.774 18.2279 16.7453 18.1589 17.3589 17.5453L17.5454 17.3589C18.1589 16.7453 18.2279 15.774 17.7073 15.0798L17.4781 14.7742C17.4286 14.7081 17.3947 14.5699 17.4708 14.3963C17.4984 14.3334 17.5248 14.27 17.5503 14.2061C17.6204 14.0296 17.7425 13.9564 17.8243 13.9451L18.452 13.8586C19.3147 13.7396 19.9573 13.0022 19.9573 12.1313V11.876C19.9573 11.0051 19.3147 10.2678 18.452 10.1488L17.8243 10.0622C17.7425 10.0509 17.6204 9.9777 17.5503 9.80126C17.5248 9.7373 17.4984 9.6739 17.4708 9.61107C17.3947 9.43742 17.4286 9.29921 17.4781 9.23313L17.7073 8.92754C18.2279 8.23338 18.1589 7.26202 17.5453 6.64846L17.3589 6.46199C16.7453 5.84842 15.774 5.77939 15.0798 6.30002L14.7742 6.52921C14.7081 6.57877 14.5699 6.6126 14.3963 6.5365C14.3334 6.50898 14.27 6.48249 14.2061 6.45708C14.0296 6.38697 13.9564 6.26486 13.9451 6.18307L13.8586 5.55536C13.7396 4.69262 13.0022 4.04999 12.1313 4.04999H11.876ZM11.6347 5.76031C11.6513 5.63977 11.7543 5.54999 11.876 5.54999H12.1313C12.253 5.54999 12.356 5.63977 12.3726 5.76031L12.4592 6.38803C12.5584 7.10715 13.0772 7.6226 13.6522 7.85106C13.6999 7.87004 13.7473 7.88983 13.7943 7.9104C14.3614 8.15893 15.0932 8.16494 15.6742 7.72921L15.9798 7.50002C16.0768 7.42728 16.2125 7.43692 16.2982 7.52265L16.4847 7.70912C16.5704 7.79484 16.5801 7.93056 16.5073 8.02754L16.2781 8.33313C15.8424 8.91412 15.8484 9.6459 16.0969 10.2131C16.1175 10.26 16.1373 10.3074 16.1563 10.3552C16.3847 10.9301 16.9002 11.4489 17.6193 11.5481L18.247 11.6347C18.3676 11.6513 18.4573 11.7543 18.4573 11.876V12.1313C18.4573 12.253 18.3676 12.356 18.247 12.3726L17.6193 12.4592C16.9002 12.5584 16.3847 13.0772 16.1563 13.6521C16.1373 13.6999 16.1175 13.7473 16.0969 13.7943C15.8484 14.3614 15.8424 15.0932 16.2781 15.6742L16.5073 15.9798C16.5801 16.0768 16.5704 16.2125 16.4847 16.2982L16.2982 16.4847C16.2125 16.5704 16.0768 16.5801 15.9798 16.5073L15.6742 16.2781C15.0932 15.8424 14.3614 15.8484 13.7943 16.0969C13.7473 16.1175 13.6999 16.1373 13.6522 16.1563C13.0772 16.3847 12.5584 16.9002 12.4592 17.6193L12.3726 18.247C12.356 18.3676 12.253 18.4573 12.1313 18.4573H11.876C11.7543 18.4573 11.6513 18.3676 11.6347 18.247L11.5481 17.6193C11.4489 16.9002 10.9301 16.3847 10.3552 16.1563C10.3074 16.1373 10.26 16.1175 10.2131 16.0969C9.6459 15.8484 8.91412 15.8424 8.33313 16.2781L8.02753 16.5073C7.93054 16.5801 7.79482 16.5704 7.7091 16.4847L7.52263 16.2982C7.4369 16.2125 7.42726 16.0768 7.5 15.9798L7.07073 15.6579L7.5 15.9798L7.7292 15.6742C8.16494 15.0932 8.15892 14.3614 7.9104 13.7942C7.88983 13.7473 7.87004 13.6999 7.85106 13.6521C7.6226 13.0772 7.10715 12.5584 6.38803 12.4592L5.76031 12.3726C5.63977 12.356 5.54999 12.253 5.54999 12.1313V11.876C5.54999 11.7543 5.63977 11.6513 5.76031 11.6347L6.38803 11.5481C7.10715 11.4489 7.6226 10.9301 7.85106 10.3552C7.87004 10.3074 7.88983 10.26 7.9104 10.2131C8.15893 9.6459 8.16494 8.91412 7.72921 8.33313L7.5 8.02753C7.42726 7.93054 7.4369 7.79482 7.52263 7.7091L7.7091 7.52263C7.79483 7.4369 7.93054 7.42726 8.02753 7.5L8.33314 7.7292C8.91412 8.16494 9.6459 8.15892 10.2131 7.9104C10.26 7.88983 10.3074 7.87004 10.3552 7.85106C10.9301 7.6226 11.4489 7.10715 11.5481 6.38803L11.6347 5.76031ZM12.0036 14.7456C13.518 14.7456 14.7456 13.518 14.7456 12.0036C14.7456 10.4893 13.518 9.26162 12.0036 9.26162C10.4893 9.26162 9.26162 10.4893 9.26162 12.0036C9.26162 13.518 10.4893 14.7456 12.0036 14.7456ZM13.2456 12.0036C13.2456 12.6896 12.6896 13.2456 12.0036 13.2456C11.3177 13.2456 10.7616 12.6896 10.7616 12.0036C10.7616 11.3177 11.3177 10.7616 12.0036 10.7616C12.6896 10.7616 13.2456 11.3177 13.2456 12.0036Z" fill="#0E1438"/>
</svg>
