<svg width="24" height="24" viewBox="0 0 24 24" fill="none" xmlns="http://www.w3.org/2000/svg">
<path d="M19.0832 7.29165V16.7083H20.3332V7.29165H19.0832ZM18.3748 17.4166H5.62484V18.6666H18.3748V17.4166ZM4.91651 16.7083V7.29165H3.66651V16.7083H4.91651ZM5.62484 6.58332H18.3748V5.33332H5.62484V6.58332ZM5.62484 17.4166C5.38117 17.4166 5.23601 17.4161 5.12841 17.4074C5.02809 17.3991 5.0166 17.387 5.03026 17.394L4.46277 18.5077C4.65469 18.6055 4.84901 18.6387 5.02661 18.6532C5.19693 18.6671 5.4018 18.6666 5.62484 18.6666V17.4166ZM3.66651 16.7083C3.66651 16.9314 3.66602 17.1362 3.67994 17.3066C3.69445 17.4841 3.72766 17.6785 3.82546 17.8704L4.93921 17.3029C4.94617 17.3166 4.93398 17.3051 4.92578 17.2047C4.91699 17.0971 4.91651 16.952 4.91651 16.7083H3.66651ZM5.03026 17.394C4.99106 17.374 4.95919 17.3421 4.93921 17.3029L3.82546 17.8704C3.96527 18.1448 4.18836 18.3679 4.46277 18.5077L5.03026 17.394ZM19.0832 16.7083C19.0832 16.952 19.0827 17.0971 19.0739 17.2047C19.0657 17.3051 19.0535 17.3166 19.0605 17.3029L20.1743 17.8704C20.272 17.6785 20.3053 17.4841 20.3198 17.3066C20.3337 17.1362 20.3332 16.9314 20.3332 16.7083H19.0832ZM18.3748 18.6666C18.5979 18.6666 18.8028 18.6671 18.9731 18.6532C19.1507 18.6387 19.345 18.6055 19.5369 18.5077L18.9694 17.394C18.9831 17.387 18.9716 17.3991 18.8713 17.4074C18.7637 17.4161 18.6185 17.4166 18.3748 17.4166V18.6666ZM19.0605 17.3029C19.0405 17.3421 19.0086 17.374 18.9694 17.394L19.5369 18.5077C19.8113 18.3679 20.0344 18.1448 20.1743 17.8704L19.0605 17.3029ZM20.3332 7.29165C20.3332 7.06861 20.3337 6.86374 20.3198 6.69342C20.3053 6.51582 20.272 6.3215 20.1743 6.12958L19.0605 6.69706C19.0535 6.68341 19.0657 6.6949 19.0739 6.79522C19.0827 6.90282 19.0832 7.04798 19.0832 7.29165H20.3332ZM18.3748 6.58332C18.6185 6.58332 18.7637 6.5838 18.8713 6.59259C18.9716 6.60079 18.9831 6.61298 18.9694 6.60602L19.5369 5.49227C19.345 5.39447 19.1507 5.36126 18.9731 5.34675C18.8028 5.33283 18.5979 5.33332 18.3748 5.33332V6.58332ZM20.1743 6.12958C20.0344 5.85517 19.8113 5.63208 19.5369 5.49227L18.9694 6.60602C19.0086 6.626 19.0405 6.65786 19.0605 6.69706L20.1743 6.12958ZM4.91651 7.29165C4.91651 7.04798 4.91699 6.90282 4.92578 6.79522C4.93398 6.6949 4.94617 6.68341 4.93921 6.69706L3.82546 6.12958C3.72766 6.3215 3.69445 6.51582 3.67994 6.69342C3.66602 6.86374 3.66651 7.06861 3.66651 7.29165H4.91651ZM5.62484 5.33332C5.4018 5.33332 5.19693 5.33283 5.02661 5.34675C4.84901 5.36126 4.65469 5.39447 4.46277 5.49227L5.03026 6.60602C5.0166 6.61298 5.02809 6.60079 5.12841 6.59259C5.23601 6.5838 5.38117 6.58332 5.62484 6.58332V5.33332ZM4.93921 6.69706C4.95919 6.65786 4.99106 6.626 5.03026 6.60602L4.46277 5.49227C4.18836 5.63208 3.96527 5.85517 3.82546 6.12958L4.93921 6.69706ZM11.8679 11.9178L4.89561 6.21323L4.10406 7.18068L11.0763 12.8853L11.8679 11.9178ZM19.1041 6.21323L12.1318 11.9178L12.9233 12.8853L19.8956 7.18068L19.1041 6.21323ZM11.0763 12.8853C11.6136 13.3248 12.3861 13.3248 12.9233 12.8853L12.1318 11.9178C12.055 11.9806 11.9447 11.9806 11.8679 11.9178L11.0763 12.8853Z" fill="black"/>
</svg>
