<svg width="24" height="24" viewBox="0 0 24 24" fill="none" xmlns="http://www.w3.org/2000/svg">
<g clip-path="url(#clip0_1768_49)">
<path d="M18.8752 11.9998C18.8752 10.7473 18.5402 9.5731 17.9551 8.56175M18.8752 11.9998C18.8752 13.2522 18.5402 14.4265 17.9552 15.4377M18.8752 11.9998H13.8752M18.8752 11.9998L20.5418 12M17.9551 8.56175L19.3975 7.72899M17.9551 8.56175C17.3514 7.51847 16.4815 6.64854 15.4382 6.0449M17.9552 15.4377L19.3975 16.2705M17.9552 15.4377C17.3515 16.4811 16.4816 17.3511 15.4382 17.9547M13.8752 11.9998C13.8752 13.0353 13.0357 13.8748 12.0002 13.8748C11.6586 13.8748 11.3383 13.7835 11.0625 13.6239M13.8752 11.9998C13.8752 10.9643 13.0357 10.1248 12.0002 10.1248C11.6586 10.1248 11.3383 10.2162 11.0625 10.3757M12.0002 18.8748C10.7477 18.8748 9.57345 18.5399 8.5621 17.9547M12.0002 18.8748C13.2527 18.8748 14.4269 18.5399 15.4382 17.9547M12.0002 18.8748V20.5416M8.5621 17.9547L7.72934 19.3971M8.5621 17.9547L11.0625 13.6239M8.5621 17.9547C7.51882 17.3511 6.64889 16.4811 6.04525 15.4379M15.4382 17.9547L16.271 19.3971M5.12517 11.9998C5.12517 13.2523 5.46009 14.4266 6.04525 15.4379M5.12517 11.9998C5.12517 10.7473 5.46011 9.57301 6.04532 8.56163M5.12517 11.9998H3.4585M6.04525 15.4379L4.60287 16.2706M6.04532 8.56163L4.60287 7.72882M6.04532 8.56163C6.64895 7.51841 7.51886 6.64851 8.5621 6.0449M12.0002 5.12482C10.7477 5.12482 9.57345 5.45974 8.5621 6.0449M12.0002 5.12482C13.2527 5.12482 14.4269 5.45974 15.4382 6.0449M12.0002 5.12482V3.45831M8.5621 6.0449L7.72934 4.60252M8.5621 6.0449L11.0625 10.3757M15.4382 6.0449L16.271 4.60252M11.0625 13.6239C10.5022 13.2996 10.1252 12.6937 10.1252 11.9998C10.1252 11.3059 10.5022 10.7 11.0625 10.3757" stroke="black" stroke-width="1.25" stroke-linecap="round" stroke-linejoin="round"/>
</g>
<defs>
<clipPath id="clip0_1768_49">
<rect width="20" height="20" fill="white" transform="translate(2 2)"/>
</clipPath>
</defs>
</svg>
