<svg width="24" height="24" viewBox="0 0 24 24" fill="none" xmlns="http://www.w3.org/2000/svg">
<path fill-rule="evenodd" clip-rule="evenodd" d="M19.2501 4.75001L19.9983 4.80161C20.0143 4.5706 19.9226 4.34518 19.7499 4.19085C19.5773 4.03652 19.3431 3.9706 19.1153 4.01223L19.2501 4.75001ZM6.39218 18.199C6.39585 18.202 6.39953 18.205 6.4032 18.2079C7.87652 19.4006 9.86705 20 12.0001 20C13.8969 20 15.3301 18.8875 16.3796 17.4208C17.4253 15.9593 18.165 14.0515 18.6902 12.2052C19.2184 10.3485 19.5446 8.49971 19.7389 7.1202C19.8362 6.42906 19.9008 5.85249 19.9412 5.4475C19.9614 5.24494 19.9756 5.08511 19.9848 4.97513C19.9893 4.92014 19.9927 4.87759 19.9949 4.84838L19.9974 4.81467L19.9981 4.80551L19.9982 4.8029L19.9983 4.80209C19.9983 4.80182 19.9983 4.80161 19.2501 4.75001C19.1153 4.01223 19.1151 4.01226 19.1148 4.01231L19.1141 4.01245L19.1115 4.01291L19.1026 4.01457L19.0692 4.02083C19.0403 4.0263 18.998 4.03438 18.9433 4.04509C18.8338 4.0665 18.6746 4.0984 18.4727 4.14087C18.0689 4.2258 17.4939 4.35311 16.8045 4.52347C15.4281 4.86364 13.5853 5.37796 11.7362 6.07296C9.89599 6.76464 8.00522 7.65143 6.56113 8.75192C5.13229 9.8408 4.0001 11.2505 4.0001 13C4.0001 14.6257 4.48791 16.0128 5.33227 17.1126C5.09202 17.4298 4.88383 17.7173 4.71097 17.9629C4.52038 18.2338 4.37232 18.4543 4.27117 18.6083C4.22058 18.6853 4.18169 18.7458 4.15506 18.7876L4.12435 18.8361L4.11601 18.8494L4.11361 18.8533L4.11286 18.8545L4.11259 18.8549C4.11249 18.8551 4.1124 18.8552 4.7501 19.25L4.1124 18.8552C3.89438 19.2074 4.00315 19.6697 4.35534 19.8877C4.70747 20.1057 5.16962 19.997 5.38769 19.645L5.38779 19.6448L5.3878 19.6448L5.38894 19.6429L5.39476 19.6336L5.42022 19.5934C5.44327 19.5572 5.47836 19.5027 5.52494 19.4317C5.61813 19.2899 5.75717 19.0827 5.93768 18.8262C6.06826 18.6406 6.22031 18.4295 6.39218 18.199ZM7.31916 17.0194C7.32841 17.027 7.33769 17.0345 7.347 17.0421C8.49869 17.9744 10.1332 18.5 12.0001 18.5C13.2283 18.5 14.2638 17.8 15.1597 16.548C16.0593 15.2907 16.7415 13.5735 17.2475 11.7948C17.7505 10.0265 18.065 8.25031 18.2535 6.91106C18.3195 6.44215 18.3699 6.02838 18.4075 5.68921C18.064 5.76468 17.6428 5.86144 17.1644 5.97967C15.8221 6.31138 14.0399 6.80955 12.264 7.47706C10.4792 8.14788 8.74499 8.97359 7.47032 9.94497C6.18042 10.928 5.5001 11.9495 5.5001 13C5.5001 14.1412 5.79414 15.1056 6.30552 15.8929C6.31465 15.882 6.32379 15.8712 6.33296 15.8603C7.69994 14.239 9.64865 12.2786 11.8992 11.0872C12.2653 10.8934 12.7191 11.033 12.9129 11.3991C13.1068 11.7652 12.9671 12.219 12.601 12.4128C10.6016 13.4714 8.80027 15.261 7.47975 16.8272C7.42532 16.8918 7.37178 16.9558 7.31916 17.0194Z" fill="#0E1438"/>
</svg>
