<svg width="24" height="24" viewBox="0 0 24 24" fill="none" xmlns="http://www.w3.org/2000/svg">
<path fill-rule="evenodd" clip-rule="evenodd" d="M2.25 6.72417C2.25 5.62436 3.14157 4.73279 4.24138 4.73279H19.7586C20.8584 4.73279 21.75 5.62436 21.75 6.72417V17.2759C21.75 18.3757 20.8584 19.2673 19.7586 19.2673H4.24138C3.14157 19.2673 2.25 18.3757 2.25 17.2759V6.72417ZM4.24138 6.23279C3.97 6.23279 3.75 6.45279 3.75 6.72417V17.2759C3.75 17.5473 3.97 17.7673 4.24138 17.7673H19.7586C20.03 17.7673 20.25 17.5473 20.25 17.2759V6.72417C20.25 6.45279 20.03 6.23279 19.7586 6.23279H4.24138Z" fill="black"/>
<path d="M5.16667 14C5.16667 13.4477 5.61438 13 6.16667 13H6.83333C7.38562 13 7.83333 13.4477 7.83333 14C7.83333 14.5523 7.38562 15 6.83333 15H6.16667C5.61438 15 5.16667 14.5523 5.16667 14Z" fill="black"/>
<path d="M8.83333 14C8.83333 13.4477 9.28105 13 9.83333 13H10.5C11.0523 13 11.5 13.4477 11.5 14C11.5 14.5523 11.0523 15 10.5 15H9.83333C9.28105 15 8.83333 14.5523 8.83333 14Z" fill="black"/>
<path d="M12.5 14C12.5 13.4477 12.9477 13 13.5 13H14.1667C14.719 13 15.1667 13.4477 15.1667 14C15.1667 14.5523 14.719 15 14.1667 15H13.5C12.9477 15 12.5 14.5523 12.5 14Z" fill="black"/>
<path d="M16.1667 14C16.1667 13.4477 16.6144 13 17.1667 13H17.8333C18.3856 13 18.8333 13.4477 18.8333 14C18.8333 14.5523 18.3856 15 17.8333 15H17.1667C16.6144 15 16.1667 14.5523 16.1667 14Z" fill="black"/>
</svg>
