<svg width="24" height="24" viewBox="0 0 24 24" fill="none" xmlns="http://www.w3.org/2000/svg">
<path d="M12.7314 9.08081L12.2011 8.55048C12.0604 8.69113 11.9814 8.8819 11.9814 9.08081H12.7314ZM12.7314 11.8103H11.9814C11.9814 12.2245 12.3172 12.5603 12.7314 12.5603V11.8103ZM15.4609 11.8103V12.5603C15.6598 12.5603 15.8506 12.4813 15.9912 12.3406L15.4609 11.8103ZM17.547 4.2652L18.0773 4.79553V4.79553L17.547 4.2652ZM18.8337 4.2652L18.3034 4.79553V4.79553L18.8337 4.2652ZM20.2765 5.70799L19.7462 6.23832V6.23832L20.2765 5.70799ZM20.2765 6.99468L20.8068 7.52501V7.52501L20.2765 6.99468ZM11.3667 5.73659C11.7809 5.73659 12.1167 5.40081 12.1167 4.98659C12.1167 4.57238 11.7809 4.23659 11.3667 4.23659V5.73659ZM20.3051 13.175C20.3051 12.7608 19.9693 12.425 19.5551 12.425C19.1409 12.425 18.8051 12.7608 18.8051 13.175H20.3051ZM5.03974 19.8996L5.38024 19.2313H5.38023L5.03974 19.8996ZM4.64213 19.5019L3.97388 19.8424H3.97388L4.64213 19.5019ZM19.0583 19.8996L18.7178 19.2313H18.7178L19.0583 19.8996ZM19.4559 19.5019L18.7877 19.1615V19.1615L19.4559 19.5019ZM4.64213 5.48337L3.97388 5.14288L4.64213 5.48337ZM5.03974 5.08576L4.69925 4.4175H4.69925L5.03974 5.08576ZM11.9814 9.08081V11.8103H13.4814V9.08081H11.9814ZM12.7314 12.5603H15.4609V11.0603H12.7314V12.5603ZM13.2617 9.61114L18.0773 4.79553L17.0167 3.73487L12.2011 8.55048L13.2617 9.61114ZM18.3034 4.79553L19.7462 6.23832L20.8068 5.17766L19.364 3.73487L18.3034 4.79553ZM19.7462 6.46435L14.9305 11.28L15.9912 12.3406L20.8068 7.52501L19.7462 6.46435ZM19.7462 6.23832C19.8086 6.30073 19.8086 6.40193 19.7462 6.46435L20.8068 7.52501C21.455 6.87681 21.455 5.82586 20.8068 5.17766L19.7462 6.23832ZM18.0773 4.79553C18.1398 4.73311 18.241 4.73311 18.3034 4.79553L19.364 3.73487C18.7158 3.08667 17.6649 3.08667 17.0167 3.73487L18.0773 4.79553ZM18.0994 19.2487H5.99869V20.7487H18.0994V19.2487ZM5.29297 18.543V6.44232H3.79297V18.543H5.29297ZM5.99869 5.73659H11.3667V4.23659H5.99869V5.73659ZM18.8051 13.175V18.543H20.3051V13.175H18.8051ZM5.99869 19.2487C5.73154 19.2487 5.57628 19.2481 5.46219 19.2388C5.35686 19.2302 5.3542 19.218 5.38024 19.2313L4.69925 20.5678C4.91991 20.6802 5.14195 20.7176 5.34004 20.7338C5.52938 20.7493 5.75629 20.7487 5.99869 20.7487V19.2487ZM3.79297 18.543C3.79297 18.7854 3.79239 19.0123 3.80786 19.2016C3.82404 19.3997 3.86145 19.6218 3.97388 19.8424L5.31039 19.1615C5.32366 19.1875 5.31148 19.1848 5.30287 19.0795C5.29355 18.9654 5.29297 18.8101 5.29297 18.543H3.79297ZM5.38023 19.2313C5.35016 19.216 5.32571 19.1915 5.31039 19.1615L3.97388 19.8424C4.13301 20.1548 4.38693 20.4087 4.69925 20.5678L5.38023 19.2313ZM18.0994 20.7487C18.3418 20.7487 18.5687 20.7493 18.758 20.7338C18.9561 20.7176 19.1782 20.6802 19.3988 20.5678L18.7178 19.2313C18.7439 19.218 18.7412 19.2302 18.6359 19.2388C18.5218 19.2481 18.3665 19.2487 18.0994 19.2487V20.7487ZM18.8051 18.543C18.8051 18.8101 18.8045 18.9654 18.7952 19.0795C18.7866 19.1848 18.7744 19.1875 18.7877 19.1615L20.1242 19.8424C20.2366 19.6218 20.274 19.3997 20.2902 19.2016C20.3057 19.0123 20.3051 18.7854 20.3051 18.543H18.8051ZM19.3988 20.5678C19.7111 20.4087 19.965 20.1548 20.1242 19.8424L18.7877 19.1615C18.7723 19.1915 18.7479 19.216 18.7178 19.2313L19.3988 20.5678ZM5.29297 6.44232C5.29297 6.17517 5.29355 6.01991 5.30287 5.90582C5.31148 5.80048 5.32366 5.79782 5.31039 5.82386L3.97388 5.14288C3.86145 5.36354 3.82404 5.58557 3.80786 5.78367C3.79239 5.97301 3.79297 6.19992 3.79297 6.44232H5.29297ZM5.99869 4.23659C5.75629 4.23659 5.52938 4.23601 5.34004 4.25148C5.14195 4.26767 4.91991 4.30507 4.69925 4.4175L5.38024 5.75401C5.3542 5.76728 5.35686 5.75511 5.46219 5.7465C5.57628 5.73718 5.73154 5.73659 5.99869 5.73659V4.23659ZM5.31039 5.82386C5.32571 5.79379 5.35016 5.76934 5.38024 5.75401L4.69925 4.4175C4.38693 4.57664 4.13301 4.83056 3.97388 5.14288L5.31039 5.82386Z" fill="black"/>
</svg>
