<svg width="24" height="24" viewBox="0 0 24 24" fill="none" xmlns="http://www.w3.org/2000/svg">
<path d="M9.63796 5.68394C9.30744 5.78344 9.12014 6.13203 9.21962 6.46256C9.31911 6.79309 9.66771 6.98039 9.99823 6.8809L9.63796 5.68394ZM17.9512 14.4722C17.7233 14.7314 17.7487 15.1263 18.0078 15.3543C18.2671 15.5822 18.662 15.5569 18.8899 15.2976L17.9512 14.4722ZM4.73374 3.84974C4.48966 3.60567 4.09393 3.60567 3.84986 3.84974C3.60578 4.09382 3.60578 4.48955 3.84986 4.73363L4.73374 3.84974ZM19.2665 20.1503C19.5106 20.3944 19.9063 20.3944 20.1504 20.1503C20.3945 19.9062 20.3945 19.5105 20.1504 19.2664L19.2665 20.1503ZM10.527 10.5269C10.7711 10.2828 10.7711 9.88708 10.527 9.64299C10.2829 9.39892 9.88719 9.39892 9.64311 9.64299L10.527 10.5269ZM14.3572 14.357C14.6012 14.1129 14.6012 13.7173 14.3572 13.4732C14.1131 13.2291 13.7173 13.2291 13.4732 13.4732L14.3572 14.357ZM9.99823 6.8809C13.3694 5.86622 17.1975 7.43797 19.5907 11.9237L20.6936 11.3353C18.0882 6.45193 13.7078 4.45896 9.63796 5.68394L9.99823 6.8809ZM18.8899 15.2976C19.554 14.5424 20.1607 13.6638 20.694 12.664L19.5911 12.0757C19.0999 12.9966 18.5472 13.7946 17.9512 14.4722L18.8899 15.2976ZM19.5907 11.9237C19.6163 11.9716 19.616 12.029 19.5911 12.0757L20.694 12.664C20.9157 12.2484 20.9147 11.7497 20.6936 11.3353L19.5907 11.9237ZM3.84986 4.73363L6.99961 7.88338L7.8835 6.99949L4.73374 3.84974L3.84986 4.73363ZM4.40914 11.9243C5.35443 10.1523 6.52683 8.83601 7.79762 7.95509L7.08548 6.92779C5.63037 7.93648 4.33221 9.41269 3.30626 11.3359L4.40914 11.9243ZM6.99961 7.88338L16.1167 17.0005L17.0006 16.1166L7.8835 6.99949L6.99961 7.88338ZM16.1167 17.0005L19.2665 20.1503L20.1504 19.2664L17.0006 16.1166L16.1167 17.0005ZM3.30715 12.6656C4.89381 15.6391 7.13384 17.5454 9.5873 18.3006C12.0469 19.0577 14.6577 18.6368 16.9147 17.0722L16.2026 16.0449C14.2444 17.4023 12.0295 17.7444 9.95506 17.1059C7.87443 16.4654 5.872 14.8171 4.40996 12.0771L3.30715 12.6656ZM3.30626 11.3359C3.08413 11.7524 3.08641 12.2519 3.30715 12.6656L4.40996 12.0771C4.38401 12.0285 4.38461 11.9703 4.40914 11.9243L3.30626 11.3359ZM12.0002 14.0834C10.8496 14.0834 9.9168 13.1506 9.9168 12H8.6668C8.6668 13.8409 10.1592 15.3334 12.0002 15.3334V14.0834ZM9.9168 12C9.9168 11.4245 10.1493 10.9046 10.527 10.5269L9.64311 9.64299C9.04058 10.2455 8.6668 11.0797 8.6668 12H9.9168ZM13.4732 13.4732C13.0956 13.8509 12.5756 14.0834 12.0002 14.0834V15.3334C12.9204 15.3334 13.7547 14.9596 14.3572 14.357L13.4732 13.4732Z" fill="black"/>
</svg>
