<svg width="24" height="24" viewBox="0 0 24 24" fill="none" xmlns="http://www.w3.org/2000/svg"><path d="M16.155 5.559 C 15.924 5.600,15.853 5.639,15.694 5.807 C 15.576 5.932,12.094 11.002,12.051 11.111 C 12.035 11.151,12.327 11.159,13.486 11.151 L 14.940 11.140 16.529 8.820 C 17.511 7.385,18.143 6.426,18.183 6.306 C 18.294 5.980,18.216 5.755,17.940 5.608 C 17.844 5.556,17.671 5.541,17.080 5.534 C 16.673 5.529,16.257 5.540,16.155 5.559 M6.093 5.603 C 5.791 5.693,5.677 6.037,5.836 6.380 C 5.877 6.468,6.620 7.584,7.488 8.860 L 9.065 11.180 10.513 11.190 C 11.309 11.196,11.960 11.186,11.960 11.169 C 11.960 11.151,11.137 9.932,10.130 8.459 C 8.475 6.038,8.283 5.772,8.120 5.681 C 7.945 5.583,7.918 5.580,7.080 5.572 C 6.607 5.568,6.163 5.582,6.093 5.603 M7.496 15.130 C 6.640 16.389,5.900 17.499,5.850 17.597 C 5.733 17.826,5.732 18.073,5.847 18.219 C 6.002 18.417,6.123 18.440,7.013 18.440 C 7.846 18.440,7.998 18.419,8.207 18.273 C 8.284 18.220,11.692 13.298,11.935 12.890 C 11.959 12.850,11.663 12.840,10.508 12.840 L 9.051 12.840 7.496 15.130 M12.051 12.889 C 12.100 13.013,15.584 18.076,15.714 18.211 C 15.931 18.438,16.125 18.480,16.950 18.480 C 17.767 18.480,17.953 18.444,18.120 18.254 C 18.275 18.077,18.281 17.857,18.139 17.578 C 18.083 17.469,17.341 16.363,16.489 15.120 L 14.940 12.860 13.486 12.849 C 12.327 12.841,12.035 12.849,12.051 12.889 " stroke="none" fill-rule="evenodd"></path></svg>