<svg width="24" height="24" viewBox="0 0 24 24" fill="none" xmlns="http://www.w3.org/2000/svg"><path d="M10.842 3.625 C 8.088 3.999,5.651 5.758,4.420 8.260 C 3.823 9.474,3.555 10.633,3.555 12.000 C 3.555 13.367,3.823 14.526,4.420 15.740 C 4.838 16.590,5.267 17.193,5.953 17.897 C 6.928 18.896,8.107 19.630,9.420 20.053 C 10.822 20.505,12.427 20.571,13.900 20.238 C 16.342 19.685,18.468 18.001,19.580 15.740 C 19.992 14.903,20.250 14.064,20.383 13.132 C 20.464 12.565,20.464 11.435,20.383 10.868 C 20.030 8.395,18.682 6.273,16.600 4.911 C 15.563 4.233,14.346 3.783,13.108 3.622 C 12.525 3.546,11.415 3.547,10.842 3.625 M13.140 5.146 C 15.063 5.444,16.865 6.655,17.923 8.361 C 18.846 9.850,19.168 11.744,18.794 13.480 C 18.570 14.516,18.091 15.519,17.416 16.365 L 17.198 16.638 16.949 16.387 C 15.924 15.351,14.591 14.684,13.100 14.460 C 12.259 14.334,10.987 14.396,10.180 14.602 C 8.999 14.904,7.896 15.533,7.051 16.387 L 6.802 16.638 6.586 16.369 C 4.951 14.335,4.594 11.560,5.658 9.159 C 6.220 7.893,7.217 6.767,8.421 6.040 C 9.307 5.504,10.470 5.139,11.520 5.065 C 11.889 5.040,12.718 5.081,13.140 5.146 M11.276 6.958 C 11.086 6.998,10.774 7.105,10.582 7.195 C 9.315 7.789,8.557 8.955,8.554 10.320 C 8.552 11.035,8.738 11.663,9.125 12.241 C 9.605 12.959,10.303 13.457,11.156 13.689 C 11.586 13.807,12.414 13.807,12.844 13.689 C 15.107 13.072,16.144 10.548,14.956 8.549 C 14.866 8.398,14.673 8.147,14.527 7.993 C 13.680 7.094,12.464 6.708,11.276 6.958 M12.811 8.554 C 14.325 9.288,14.326 11.388,12.813 12.110 C 12.503 12.259,12.495 12.260,12.000 12.260 C 11.505 12.260,11.497 12.259,11.187 12.110 C 9.780 11.439,9.653 9.518,10.961 8.680 C 11.323 8.447,11.526 8.398,12.060 8.410 C 12.509 8.421,12.557 8.431,12.811 8.554 M13.189 15.997 C 14.171 16.199,15.106 16.689,15.810 17.370 C 15.937 17.493,16.040 17.611,16.040 17.633 C 16.040 17.696,15.500 18.027,15.020 18.259 C 13.099 19.185,10.893 19.185,8.980 18.260 C 8.499 18.027,7.960 17.696,7.960 17.633 C 7.960 17.611,8.063 17.493,8.188 17.370 C 8.987 16.591,10.097 16.067,11.264 15.920 C 11.723 15.862,12.727 15.902,13.189 15.997 " stroke="none" fill-rule="evenodd" fill="black"></path></svg>