<svg width="24" height="24" viewBox="0 0 24 24" fill="none" xmlns="http://www.w3.org/2000/svg">
<path d="M18.3874 5.00243C18.3633 5.00663 18.3393 5.01292 18.3174 5.01922C18.0572 5.07589 17.8736 5.30049 17.8801 5.55658V12.0049C17.8801 13.4952 16.6339 14.6917 15.0815 14.6917H6.9306L9.3269 12.3911C9.50837 12.2295 9.55647 11.9734 9.44715 11.7614C9.34001 11.5473 9.09732 11.4297 8.85463 11.4675C8.73001 11.4801 8.61194 11.5347 8.5223 11.6187L5.25144 14.7756C5.22083 14.7945 5.19022 14.8176 5.16398 14.8428C5.15086 14.8533 5.13993 14.8638 5.129 14.8764C5.10276 14.9079 5.07871 14.9415 5.05903 14.9772C5.05247 14.9876 5.04591 15.0002 5.04154 15.0107C5.04154 15.017 5.04154 15.0212 5.04154 15.0275C5.03498 15.038 5.02842 15.0506 5.02405 15.0611C5.01749 15.0821 5.01093 15.1052 5.00656 15.1283C4.99781 15.185 4.99781 15.2395 5.00656 15.2962C5.00656 15.3067 5.00656 15.3193 5.00656 15.3298C5.00656 15.3361 5.00656 15.3403 5.00656 15.3466C5.01093 15.3571 5.01749 15.3697 5.02405 15.3802C5.02405 15.3865 5.02405 15.3907 5.02405 15.397C5.02842 15.4075 5.03498 15.4201 5.04154 15.4306C5.04591 15.441 5.05247 15.4536 5.05903 15.4641C5.05903 15.4704 5.05903 15.4746 5.05903 15.4809C5.07871 15.5166 5.10276 15.5502 5.129 15.5817C5.13993 15.5943 5.15086 15.6048 5.16398 15.6153C5.18147 15.6279 5.19896 15.6384 5.21645 15.6489L8.5223 18.8394C8.74531 19.0535 9.10388 19.0535 9.3269 18.8394C9.54991 18.6253 9.54991 18.2811 9.3269 18.067L6.9306 15.7664H15.0815C17.2395 15.7664 18.9996 14.0767 18.9996 12.0049V5.55658C19.0061 5.40125 18.9405 5.25222 18.8246 5.14726C18.7066 5.04021 18.547 4.98773 18.3874 5.00243Z" fill="#0E1438" stroke="#0E1438" stroke-width="0.5"/>
</svg>
