<svg width="24" height="24" viewBox="0 0 24 24" fill="none" xmlns="http://www.w3.org/2000/svg"><path d="M11.281 3.821 C 9.595 4.126,8.305 5.420,7.980 7.130 C 7.936 7.365,7.920 7.732,7.920 8.522 L 7.920 9.595 7.249 9.607 C 6.584 9.620,6.575 9.621,6.315 9.750 C 5.842 9.983,5.520 10.430,5.436 10.969 C 5.412 11.123,5.402 12.721,5.409 15.100 L 5.420 18.980 5.514 19.214 C 5.630 19.501,5.877 19.810,6.130 19.984 C 6.524 20.254,6.197 20.240,12.000 20.240 C 17.803 20.240,17.476 20.254,17.870 19.984 C 18.123 19.810,18.370 19.501,18.486 19.214 L 18.580 18.980 18.592 15.100 C 18.599 12.639,18.588 11.126,18.563 10.962 C 18.479 10.424,18.130 9.953,17.649 9.727 C 17.434 9.627,17.379 9.619,16.750 9.607 L 16.080 9.595 16.080 8.543 C 16.080 7.797,16.063 7.393,16.021 7.155 C 15.721 5.439,14.403 4.118,12.696 3.820 C 12.277 3.747,11.687 3.748,11.281 3.821 M12.620 5.327 C 13.289 5.468,13.996 6.039,14.320 6.700 C 14.538 7.142,14.560 7.312,14.560 8.508 L 14.560 9.600 11.997 9.600 L 9.435 9.600 9.449 8.410 C 9.466 7.043,9.482 6.962,9.847 6.417 C 10.463 5.496,11.497 5.089,12.620 5.327 M17.060 14.920 L 17.060 18.740 12.000 18.740 L 6.940 18.740 6.930 14.960 C 6.924 12.881,6.928 11.157,6.938 11.130 C 6.954 11.090,7.989 11.082,12.009 11.090 L 17.060 11.100 17.060 14.920 M11.700 12.986 C 11.514 13.084,11.396 13.205,11.316 13.380 C 11.248 13.526,11.242 13.663,11.242 14.920 C 11.242 16.177,11.248 16.314,11.316 16.460 C 11.491 16.840,11.903 17.012,12.271 16.858 C 12.468 16.776,12.595 16.654,12.684 16.460 C 12.752 16.314,12.758 16.176,12.759 14.929 C 12.760 13.458,12.751 13.385,12.548 13.167 C 12.333 12.936,11.950 12.855,11.700 12.986 " stroke="none" fill-rule="evenodd" fill="black"></path></svg>