<svg width="24" height="24" viewBox="0 0 24 24" fill="none" xmlns="http://www.w3.org/2000/svg">
<path fill-rule="evenodd" clip-rule="evenodd" d="M9.5007 8C9.5007 6.61929 10.62 5.5 12.0007 5.5C13.3814 5.5 14.5007 6.61929 14.5007 8C14.5007 9.38071 13.3814 10.5 12.0007 10.5C10.62 10.5 9.5007 9.38071 9.5007 8ZM12.0007 4C9.79156 4 8.0007 5.79086 8.0007 8C8.0007 10.2091 9.79156 12 12.0007 12C14.2098 12 16.0007 10.2091 16.0007 8C16.0007 5.79086 14.2098 4 12.0007 4ZM6.0231 17.6086C6.36148 16.9679 6.91559 16.264 7.83336 15.7162C8.75172 15.168 10.078 14.75 12.0007 14.75C13.9234 14.75 15.2496 15.168 16.168 15.7162C17.0857 16.264 17.6399 16.9679 17.9782 17.6086C18.0978 17.8349 18.06 18.0134 17.9388 18.1656C17.7977 18.3429 17.5166 18.5 17.1532 18.5H6.84817C6.4847 18.5 6.20368 18.3429 6.06254 18.1656C5.94131 18.0134 5.90359 17.8349 6.0231 17.6086ZM12.0007 13.25C9.85538 13.25 8.25346 13.7185 7.06454 14.4282C5.87504 15.1382 5.14276 16.0635 4.69671 16.9081C4.28296 17.6916 4.4184 18.5089 4.88914 19.1001C5.33998 19.6662 6.06972 20 6.84817 20H17.1532C17.9316 20 18.6614 19.6662 19.1122 19.1001C19.5829 18.5089 19.7184 17.6916 19.3046 16.9081C18.8586 16.0635 18.1263 15.1382 16.9368 14.4282C15.7479 13.7185 14.146 13.25 12.0007 13.25Z" fill="#0E1438"/>
</svg>
