<svg width="24" height="24" viewBox="0 0 24 24" fill="none" xmlns="http://www.w3.org/2000/svg">
<path fill-rule="evenodd" clip-rule="evenodd" d="M9.50068 8C9.50068 6.61929 10.62 5.5 12.0007 5.5C13.3814 5.5 14.5007 6.61929 14.5007 8C14.5007 9.38071 13.3814 10.5 12.0007 10.5C10.62 10.5 9.50068 9.38071 9.50068 8ZM12.0007 4C9.79154 4 8.00068 5.79086 8.00068 8C8.00068 10.2091 9.79154 12 12.0007 12C14.2098 12 16.0007 10.2091 16.0007 8C16.0007 5.79086 14.2098 4 12.0007 4ZM6.02309 17.6086C6.36147 16.9679 6.91557 16.264 7.83335 15.7162C8.75171 15.168 10.078 14.75 12.0007 14.75C13.9234 14.75 15.2496 15.168 16.168 15.7162C17.0857 16.264 17.6398 16.9679 17.9782 17.6086C18.0977 17.8349 18.06 18.0134 17.9388 18.1656C17.7976 18.3429 17.5166 18.5 17.1531 18.5H6.84816C6.48469 18.5 6.20367 18.3429 6.06253 18.1656C5.9413 18.0134 5.90357 17.8349 6.02309 17.6086ZM12.0007 13.25C9.85537 13.25 8.25344 13.7185 7.06453 14.4282C5.87502 15.1382 5.14275 16.0635 4.6967 16.9081C4.28294 17.6916 4.41839 18.5089 4.88913 19.1001C5.33996 19.6662 6.06971 20 6.84816 20H17.1531C17.9316 20 18.6613 19.6662 19.1122 19.1001C19.5829 18.5089 19.7184 17.6916 19.3046 16.9081C18.8586 16.0635 18.1263 15.1382 16.9368 14.4282C15.7479 13.7185 14.1459 13.25 12.0007 13.25Z" fill="black"/>
</svg>
