<svg width="24" height="24" viewBox="0 0 24 24" fill="none" xmlns="http://www.w3.org/2000/svg">
<path d="M10.6665 12.9807H9.04639L10.0598 7.10651H11.6798L10.6665 12.9807Z" fill="#15195A"/>
<path d="M16.5397 7.2501C16.2201 7.13124 15.7132 7 15.0865 7C13.4866 7 12.3599 7.79986 12.353 8.94338C12.3397 9.78708 13.1597 10.2557 13.7729 10.537C14.3997 10.8245 14.6128 11.0121 14.6128 11.2683C14.6064 11.6619 14.1063 11.8433 13.6398 11.8433C12.993 11.8433 12.6464 11.7498 12.1197 11.5308L11.9064 11.437L11.6797 12.7556C12.0597 12.9179 12.7598 13.0619 13.4866 13.0682C15.1866 13.0682 16.2933 12.2808 16.3064 11.0621C16.3128 10.3934 15.8799 9.88102 14.9465 9.46234C14.3798 9.19356 14.0328 9.01231 14.0328 8.73733C14.0394 8.48731 14.3263 8.23125 14.966 8.23125C15.4926 8.21871 15.8796 8.3374 16.1728 8.45618L16.3193 8.51857L16.5397 7.2501Z" fill="#15195A"/>
<path fill-rule="evenodd" clip-rule="evenodd" d="M19.4398 7.10651H20.693L22 12.9806H20.4999C20.4999 12.9806 20.3531 12.3057 20.3066 12.0994H18.2265C18.1664 12.2556 17.8865 12.9806 17.8865 12.9806H16.1865L18.593 7.59387C18.7598 7.21266 19.0534 7.10651 19.4398 7.10651ZM19.34 9.25614C19.34 9.25614 18.8265 10.5622 18.6931 10.8997H20.0398C19.9732 10.606 19.6663 9.19988 19.6663 9.19988L19.5531 8.69376C19.5054 8.82407 19.4365 9.00327 19.39 9.12415C19.3585 9.20605 19.3372 9.26118 19.34 9.25614Z" fill="#15195A"/>
<path fill-rule="evenodd" clip-rule="evenodd" d="M2.02667 7.10651H4.63329C4.98665 7.11888 5.27334 7.22512 5.36661 7.60029L5.9331 10.2993L5.93327 10.2998L6.10663 11.1121L7.6933 7.10651H9.40646L6.85988 12.9745H5.14663L3.7026 7.87032C3.20437 7.59723 2.63575 7.37759 2 7.2252L2.02667 7.10651Z" fill="#15195A"/>
<path fill-rule="evenodd" clip-rule="evenodd" d="M13.8586 16.1848C13.8371 16.1887 13.8096 16.1907 13.7764 16.1907C13.6844 16.1907 13.6187 16.1633 13.5796 16.1084C13.5405 16.0536 13.5209 15.9733 13.5209 15.8676V14.0643H13.7617V15.8852C13.7617 15.9244 13.7685 15.9518 13.7822 15.9675C13.796 15.9831 13.8116 15.991 13.8292 15.991H13.8513C13.8581 15.991 13.8684 15.989 13.8821 15.9851L13.9144 16.1672C13.8988 16.175 13.8801 16.1809 13.8586 16.1848ZM13.1361 15.9469V16.1554H11.9966V14.2288H13.1067V14.4344H12.2403V15.0394H12.9716V15.2479H12.2403V15.9469H13.1361ZM14.8484 16.1907C14.9462 16.1907 15.0334 16.176 15.1097 16.1466C15.1861 16.1173 15.2556 16.083 15.3183 16.0438L15.2331 15.8852C15.1802 15.9185 15.1249 15.9454 15.0672 15.966C15.0094 15.9866 14.9462 15.9968 14.8777 15.9968C14.7407 15.9968 14.6296 15.9523 14.5444 15.8632C14.4592 15.7741 14.4117 15.6532 14.4019 15.5005H15.3653C15.3692 15.4829 15.3716 15.4618 15.3726 15.4374C15.3736 15.4129 15.3741 15.3879 15.3741 15.3625C15.3741 15.2606 15.3614 15.1686 15.3359 15.0864C15.3104 15.0042 15.2737 14.9337 15.2258 14.8749C15.1778 14.8162 15.1181 14.7712 15.0466 14.7398C14.9752 14.7085 14.8944 14.6928 14.8043 14.6928C14.7221 14.6928 14.6428 14.71 14.5664 14.7442C14.4901 14.7785 14.422 14.8279 14.3623 14.8925C14.3026 14.9572 14.2546 15.036 14.2184 15.129C14.1822 15.222 14.164 15.3272 14.164 15.4447C14.164 15.5622 14.1817 15.6669 14.2169 15.7589C14.2522 15.851 14.3006 15.9288 14.3623 15.9924C14.424 16.0561 14.4964 16.105 14.5796 16.1393C14.6628 16.1736 14.7524 16.1907 14.8484 16.1907ZM14.399 15.3272H15.1626C15.1626 15.1823 15.1318 15.0722 15.0701 14.9968C15.0084 14.9214 14.9218 14.8837 14.8102 14.8837C14.7593 14.8837 14.7108 14.8935 14.6648 14.9131C14.6188 14.9327 14.5772 14.9616 14.54 14.9997C14.5028 15.0379 14.4719 15.0844 14.4475 15.1393C14.423 15.1941 14.4069 15.2567 14.399 15.3272ZM16.2904 16.1907C16.3765 16.1907 16.4588 16.1745 16.5371 16.1422C16.6154 16.1099 16.6869 16.0654 16.7515 16.0086L16.6458 15.8471C16.6007 15.8862 16.5503 15.92 16.4945 15.9484C16.4387 15.9768 16.3775 15.991 16.311 15.991C16.2463 15.991 16.1866 15.9778 16.1318 15.9513C16.077 15.9249 16.0305 15.8877 15.9923 15.8397C15.9541 15.7918 15.9242 15.7345 15.9027 15.6679C15.8812 15.6013 15.8704 15.5269 15.8704 15.4447C15.8704 15.3625 15.8817 15.2876 15.9042 15.22C15.9267 15.1525 15.9576 15.0942 15.9967 15.0453C16.0358 14.9963 16.0828 14.9586 16.1377 14.9322C16.1925 14.9058 16.2522 14.8925 16.3168 14.8925C16.3736 14.8925 16.425 14.9043 16.471 14.9278C16.517 14.9513 16.5606 14.9816 16.6017 15.0188L16.7251 14.8602C16.6742 14.8152 16.6154 14.776 16.5488 14.7428C16.4823 14.7095 16.402 14.6928 16.308 14.6928C16.216 14.6928 16.1284 14.7095 16.0452 14.7428C15.962 14.776 15.889 14.825 15.8264 14.8896C15.7637 14.9542 15.7138 15.033 15.6766 15.126C15.6394 15.2191 15.6208 15.3252 15.6208 15.4447C15.6208 15.5622 15.6379 15.6674 15.6722 15.7604C15.7064 15.8534 15.7534 15.9317 15.8131 15.9954C15.8728 16.059 15.9438 16.1075 16.0261 16.1408C16.1083 16.174 16.1964 16.1907 16.2904 16.1907ZM17.6223 16.1745C17.5763 16.1853 17.5308 16.1907 17.4857 16.1907C17.4094 16.1907 17.3453 16.1789 17.2934 16.1554C17.2415 16.1319 17.1994 16.0996 17.1671 16.0585C17.1348 16.0174 17.1118 15.9675 17.0981 15.9087C17.0843 15.85 17.0775 15.7854 17.0775 15.7149V14.9249H16.866V14.7428L17.0892 14.7281L17.1186 14.3287H17.3213V14.7281H17.706V14.9249H17.3213V15.7178C17.3213 15.8059 17.3374 15.874 17.3697 15.9219C17.402 15.9699 17.4593 15.9939 17.5415 15.9939C17.567 15.9939 17.5944 15.99 17.6238 15.9822C17.6531 15.9743 17.6796 15.9655 17.7031 15.9557L17.7501 16.1378C17.7109 16.1515 17.6683 16.1637 17.6223 16.1745ZM18.2699 16.1554V15.2391C18.3189 15.1177 18.3761 15.0326 18.4417 14.9836C18.5073 14.9346 18.5704 14.9102 18.6311 14.9102C18.6605 14.9102 18.685 14.9121 18.7046 14.916C18.7242 14.9199 18.7457 14.9258 18.7692 14.9337L18.8162 14.7222C18.7712 14.7026 18.7202 14.6928 18.6635 14.6928C18.5812 14.6928 18.5054 14.7193 18.4358 14.7721C18.3663 14.825 18.3071 14.8965 18.2582 14.9865H18.2493L18.2288 14.7281H18.0291V16.1554H18.2699ZM19.825 16.1408C19.7457 16.174 19.662 16.1907 19.5739 16.1907C19.4858 16.1907 19.4021 16.174 19.3228 16.1408C19.2435 16.1075 19.1735 16.059 19.1128 15.9954C19.0521 15.9317 19.0036 15.8534 18.9674 15.7604C18.9312 15.6674 18.9131 15.5622 18.9131 15.4447C18.9131 15.3252 18.9312 15.2191 18.9674 15.126C19.0036 15.033 19.0521 14.9542 19.1128 14.8896C19.1735 14.825 19.2435 14.776 19.3228 14.7428C19.4021 14.7095 19.4858 14.6928 19.5739 14.6928C19.662 14.6928 19.7457 14.7095 19.825 14.7428C19.9043 14.776 19.9743 14.825 20.035 14.8896C20.0957 14.9542 20.1442 15.033 20.1804 15.126C20.2166 15.2191 20.2347 15.3252 20.2347 15.4447C20.2347 15.5622 20.2166 15.6674 20.1804 15.7604C20.1442 15.8534 20.0957 15.9317 20.035 15.9954C19.9743 16.059 19.9043 16.1075 19.825 16.1408ZM19.5739 15.991C19.5132 15.991 19.4574 15.9778 19.4065 15.9513C19.3556 15.9249 19.312 15.8877 19.2758 15.8397C19.2396 15.7918 19.2117 15.7345 19.1921 15.6679C19.1725 15.6013 19.1627 15.5269 19.1627 15.4447C19.1627 15.3625 19.1725 15.2876 19.1921 15.22C19.2117 15.1525 19.2396 15.0942 19.2758 15.0453C19.312 14.9963 19.3556 14.9586 19.4065 14.9322C19.4574 14.9058 19.5132 14.8925 19.5739 14.8925C19.6346 14.8925 19.6904 14.9058 19.7413 14.9322C19.7922 14.9586 19.8358 14.9963 19.872 15.0453C19.9082 15.0942 19.9361 15.1525 19.9557 15.22C19.9753 15.2876 19.9851 15.3625 19.9851 15.4447C19.9851 15.5269 19.9753 15.6013 19.9557 15.6679C19.9361 15.7345 19.9082 15.7918 19.872 15.8397C19.8358 15.8877 19.7922 15.9249 19.7413 15.9513C19.6904 15.9778 19.6346 15.991 19.5739 15.991ZM20.8515 15.1216V16.1554H20.6106V14.7281H20.8104L20.8309 14.9337H20.8397C20.9082 14.8652 20.9802 14.8079 21.0556 14.7619C21.131 14.7158 21.2186 14.6928 21.3185 14.6928C21.4692 14.6928 21.5793 14.7398 21.6489 14.8338C21.7184 14.9278 21.7531 15.0668 21.7531 15.2509V16.1554H21.5123V15.2832C21.5123 15.1481 21.4908 15.0506 21.4477 14.9909C21.4046 14.9312 21.3361 14.9014 21.2421 14.9014C21.1677 14.9014 21.1021 14.9199 21.0453 14.9572C20.9885 14.9944 20.9239 15.0492 20.8515 15.1216Z" fill="#15195A"/>
</svg>
