<svg width="24" height="24" viewBox="0 0 24 24" fill="none" xmlns="http://www.w3.org/2000/svg"><path d="M5.528 3.841 C 4.704 4.057,4.032 4.744,3.820 5.583 C 3.766 5.798,3.760 6.575,3.769 12.103 L 3.780 18.380 3.873 18.629 C 4.130 19.313,4.720 19.895,5.392 20.128 L 5.660 20.220 12.000 20.220 L 18.340 20.220 18.608 20.128 C 19.293 19.891,19.891 19.293,20.128 18.608 L 20.220 18.340 20.220 12.000 L 20.220 5.660 20.128 5.392 C 19.891 4.707,19.284 4.101,18.603 3.869 L 18.340 3.780 12.080 3.772 C 6.018 3.764,5.811 3.766,5.528 3.841 M18.046 5.285 C 18.216 5.321,18.294 5.369,18.463 5.538 C 18.636 5.710,18.679 5.784,18.716 5.963 C 18.749 6.119,18.758 7.840,18.751 12.120 C 18.741 17.767,18.736 18.067,18.667 18.206 C 18.627 18.286,18.531 18.416,18.453 18.494 C 18.169 18.778,18.601 18.760,12.000 18.760 C 5.399 18.760,5.831 18.778,5.547 18.494 C 5.469 18.416,5.373 18.286,5.333 18.206 C 5.264 18.067,5.259 17.767,5.249 12.120 C 5.242 7.840,5.251 6.119,5.284 5.963 C 5.343 5.676,5.654 5.348,5.924 5.288 C 6.187 5.229,17.773 5.226,18.046 5.285 M7.938 7.056 C 7.793 7.119,7.610 7.326,7.575 7.465 C 7.537 7.619,7.583 7.864,7.675 7.993 C 7.860 8.253,7.624 8.240,12.000 8.240 C 16.389 8.240,16.138 8.255,16.331 7.985 C 16.398 7.891,16.420 7.804,16.420 7.633 C 16.420 7.388,16.353 7.258,16.145 7.102 C 16.035 7.021,16.005 7.020,12.047 7.011 C 8.793 7.004,8.038 7.012,7.938 7.056 M10.530 9.320 C 10.320 9.448,10.233 9.622,10.250 9.882 C 10.267 10.148,10.356 10.287,10.584 10.400 C 10.745 10.480,10.803 10.481,13.391 10.471 C 15.990 10.460,16.036 10.459,16.145 10.378 C 16.325 10.243,16.410 10.097,16.428 9.893 C 16.448 9.655,16.357 9.459,16.164 9.331 L 16.028 9.240 13.344 9.240 C 10.736 9.240,10.656 9.243,10.530 9.320 M8.305 14.362 C 8.043 14.406,7.762 14.586,7.651 14.781 C 7.567 14.929,7.561 14.988,7.561 15.651 C 7.560 16.459,7.583 16.554,7.825 16.754 C 8.131 17.007,8.009 17.000,12.000 17.000 C 15.991 17.000,15.869 17.007,16.175 16.754 C 16.417 16.554,16.440 16.459,16.439 15.651 C 16.439 14.988,16.433 14.929,16.349 14.781 C 16.232 14.576,15.959 14.409,15.658 14.359 C 15.369 14.312,8.589 14.315,8.305 14.362 " stroke="none" fill-rule="evenodd"></path></svg>