<svg width="24" height="24" viewBox="0 0 24 24" fill="none" xmlns="http://www.w3.org/2000/svg">
<path d="M5.33333 13.8421L7.70407 12.0684C8.38448 11.6148 9.29346 11.7219 9.84989 12.3211C11.0936 13.6605 12.5355 14.8782 14.5 14.8782C16.3106 14.8782 17.5104 14.2071 18.6667 13.0508M5.95833 18.875H18.0417C18.5019 18.875 18.875 18.5019 18.875 18.0417V5.95833C18.875 5.4981 18.5019 5.125 18.0417 5.125H5.95833C5.4981 5.125 5.125 5.4981 5.125 5.95833V18.0417C5.125 18.5019 5.4981 18.875 5.95833 18.875ZM16.375 9.29167C16.375 10.2121 15.6288 10.9583 14.7083 10.9583C13.7878 10.9583 13.0417 10.2121 13.0417 9.29167C13.0417 8.37119 13.7878 7.625 14.7083 7.625C15.6288 7.625 16.375 8.37119 16.375 9.29167Z" stroke="black" stroke-width="1.25" stroke-linecap="round"/>
</svg>
