<svg width="24" height="24" viewBox="0 0 24 24" fill="none" xmlns="http://www.w3.org/2000/svg"><path d="M10.842 3.625 C 8.088 3.999,5.651 5.758,4.420 8.260 C 3.823 9.474,3.555 10.633,3.555 12.000 C 3.555 13.367,3.823 14.526,4.420 15.740 C 5.528 17.992,7.629 19.665,10.068 20.235 C 11.289 20.521,12.711 20.521,13.932 20.235 C 16.368 19.666,18.473 17.990,19.580 15.740 C 19.992 14.903,20.250 14.064,20.383 13.132 C 20.464 12.565,20.464 11.435,20.383 10.868 C 20.030 8.395,18.682 6.273,16.600 4.911 C 15.563 4.233,14.346 3.783,13.108 3.622 C 12.525 3.546,11.415 3.547,10.842 3.625 M13.140 5.146 C 15.063 5.444,16.865 6.655,17.923 8.361 C 18.380 9.097,18.712 9.996,18.864 10.904 C 18.954 11.440,18.954 12.560,18.864 13.096 C 18.527 15.109,17.367 16.851,15.657 17.912 C 14.869 18.400,13.970 18.732,13.020 18.886 C 12.607 18.952,11.392 18.952,10.980 18.886 C 8.609 18.503,6.608 16.982,5.658 14.841 C 5.427 14.320,5.216 13.618,5.135 13.106 C 5.049 12.564,5.049 11.436,5.135 10.894 C 5.494 8.618,7.050 6.594,9.159 5.658 C 9.883 5.337,10.754 5.119,11.520 5.065 C 11.889 5.040,12.718 5.081,13.140 5.146 M11.641 7.992 C 11.332 8.162,11.188 8.488,11.257 8.858 C 11.311 9.145,11.686 9.438,12.000 9.438 C 12.279 9.438,12.620 9.204,12.717 8.947 C 12.833 8.641,12.720 8.256,12.455 8.053 C 12.260 7.905,11.854 7.874,11.641 7.992 M10.590 10.523 C 10.507 10.566,10.396 10.669,10.342 10.751 C 9.995 11.277,10.372 11.916,11.030 11.919 L 11.240 11.920 11.240 13.792 L 11.240 15.664 11.339 15.862 C 11.484 16.151,11.665 16.260,12.000 16.260 C 12.338 16.260,12.517 16.151,12.662 15.857 L 12.762 15.654 12.751 13.294 L 12.740 10.934 12.630 10.768 C 12.435 10.474,12.315 10.440,11.472 10.442 C 10.822 10.443,10.723 10.452,10.590 10.523 " stroke="none" fill-rule="evenodd" fill="black"></path></svg>