<svg width="24" height="24" viewBox="0 0 24 24" fill="none" xmlns="http://www.w3.org/2000/svg">
<path fill-rule="evenodd" clip-rule="evenodd" d="M3.99183 12.3513L3.13678 10.2677L2.28661 12.3513H3.99183ZM12.193 14.6065L12.1883 10.5131L10.3768 14.6065H9.27996L7.46376 10.5095V14.6065H4.92287L4.44285 13.4407H1.84174L1.35683 14.6065H0L2.23711 9.38H4.0932L6.21791 14.3284V9.38H8.25686L9.89177 12.9256L11.3936 9.38H13.4736V14.6065H12.193ZM15.4618 13.537V12.4969H18.2045V11.4303H15.4618V10.4799H18.5939L19.9603 12.0033L18.5333 13.537H15.4618ZM23.926 14.6265H22.3027L20.7644 12.8959L19.1658 14.6265H14.2174V9.39876H19.2419L20.7789 11.1123L22.368 9.39876H24L21.5722 12.0126L23.926 14.6265Z" fill="#002663"/>
</svg>
