<svg width="24" height="24" viewBox="0 0 24 24" fill="none" xmlns="http://www.w3.org/2000/svg"><path d="M5.652 4.674 C 5.083 4.871,4.692 5.357,4.602 5.981 C 4.547 6.361,4.547 17.639,4.602 18.019 C 4.657 18.400,4.795 18.680,5.057 18.943 C 5.328 19.214,5.609 19.347,6.024 19.402 C 6.511 19.467,11.503 19.436,11.660 19.367 C 11.926 19.251,12.117 18.957,12.119 18.663 C 12.120 18.436,11.980 18.174,11.788 18.047 L 11.626 17.940 8.863 17.920 L 6.100 17.900 6.100 12.000 L 6.100 6.100 8.863 6.080 L 11.626 6.060 11.788 5.953 C 12.078 5.761,12.194 5.374,12.058 5.050 C 11.979 4.860,11.895 4.769,11.712 4.676 C 11.570 4.603,11.432 4.600,8.712 4.601 C 6.073 4.603,5.844 4.608,5.652 4.674 M14.550 7.603 C 14.366 7.700,14.200 7.941,14.172 8.152 C 14.127 8.488,14.161 8.531,15.553 9.929 L 16.856 11.238 12.978 11.249 L 9.100 11.260 8.920 11.366 C 8.440 11.648,8.426 12.306,8.894 12.629 L 9.053 12.740 12.955 12.751 L 16.857 12.762 15.553 14.071 C 14.159 15.471,14.127 15.512,14.172 15.851 C 14.201 16.061,14.380 16.312,14.571 16.411 C 14.760 16.508,15.060 16.513,15.243 16.420 C 15.416 16.334,19.129 12.642,19.284 12.402 C 19.420 12.194,19.442 11.880,19.336 11.668 C 19.252 11.501,15.555 7.787,15.322 7.636 C 15.101 7.492,14.785 7.479,14.550 7.603 " stroke="none" fill-rule="evenodd" fill="black"></path></svg>