<svg width="24" height="24" viewBox="0 0 24 24" fill="none" xmlns="http://www.w3.org/2000/svg"><path d="M5.414 5.041 C 4.853 5.153,4.354 5.641,4.221 6.208 C 4.132 6.585,4.131 17.413,4.220 17.790 C 4.349 18.335,4.772 18.777,5.317 18.936 C 5.512 18.993,6.211 19.000,12.000 19.000 C 17.789 19.000,18.488 18.993,18.683 18.936 C 19.228 18.777,19.651 18.335,19.780 17.790 C 19.869 17.413,19.868 6.585,19.779 6.208 C 19.668 5.737,19.345 5.360,18.857 5.131 L 18.620 5.020 12.100 5.014 C 8.514 5.011,5.505 5.023,5.414 5.041 M18.310 12.010 L 18.300 17.500 12.080 17.511 C 8.659 17.517,5.820 17.512,5.770 17.500 L 5.680 17.478 5.680 11.999 L 5.680 6.520 12.000 6.520 L 18.320 6.520 18.310 12.010 M11.381 7.986 C 9.911 8.301,8.920 9.810,9.217 11.279 C 9.349 11.928,9.595 12.360,10.101 12.833 C 10.639 13.336,11.247 13.572,12.000 13.572 C 12.739 13.573,13.358 13.335,13.883 12.849 C 14.556 12.226,14.824 11.610,14.816 10.700 C 14.813 10.297,14.795 10.168,14.707 9.899 C 14.249 8.498,12.822 7.677,11.381 7.986 M12.595 9.556 C 12.821 9.673,13.074 9.936,13.199 10.184 C 13.342 10.467,13.358 10.896,13.238 11.220 C 13.117 11.546,12.789 11.876,12.468 11.994 C 11.966 12.180,11.458 12.067,11.076 11.684 C 10.713 11.322,10.579 10.777,10.740 10.321 C 10.866 9.963,11.195 9.627,11.548 9.495 C 11.785 9.407,12.374 9.441,12.595 9.556 M9.533 14.701 C 9.121 14.948,9.049 15.460,9.374 15.829 C 9.599 16.087,9.530 16.080,12.000 16.080 C 14.470 16.080,14.401 16.087,14.626 15.829 C 14.952 15.458,14.878 14.943,14.463 14.700 L 14.293 14.600 11.996 14.600 L 9.700 14.601 9.533 14.701 " stroke="none" fill-rule="evenodd" fill="black"></path></svg>