<svg width="24" height="24" viewBox="0 0 24 24" fill="none" xmlns="http://www.w3.org/2000/svg"><path d="M7.394 3.616 C 7.174 3.694,6.916 3.857,6.772 4.007 C 6.592 4.196,5.335 6.537,5.261 6.824 C 5.211 7.013,5.200 7.353,5.200 8.624 L 5.200 10.191 4.630 10.206 C 4.118 10.219,4.045 10.230,3.910 10.314 C 3.827 10.365,3.710 10.491,3.650 10.593 L 3.540 10.780 3.529 14.357 C 3.522 16.505,3.533 18.046,3.557 18.214 C 3.656 18.930,4.189 19.487,4.880 19.598 C 5.052 19.625,7.451 19.639,12.000 19.639 C 16.549 19.639,18.948 19.625,19.120 19.598 C 19.831 19.484,20.355 18.920,20.445 18.173 C 20.467 17.992,20.478 16.367,20.471 14.320 L 20.460 10.780 20.363 10.611 C 20.310 10.518,20.193 10.392,20.103 10.332 C 19.948 10.228,19.912 10.222,19.370 10.207 L 18.800 10.191 18.800 7.621 C 18.800 6.052,18.784 4.967,18.759 4.835 C 18.667 4.347,18.340 3.925,17.880 3.705 L 17.620 3.580 15.320 3.580 L 13.020 3.580 12.833 3.672 C 12.540 3.816,12.303 4.017,12.151 4.248 C 11.870 4.676,11.880 4.558,11.880 7.527 L 11.880 10.200 11.183 10.200 L 10.486 10.200 10.471 8.570 C 10.458 7.228,10.445 6.907,10.393 6.755 C 10.325 6.554,9.177 4.401,8.997 4.137 C 8.752 3.778,8.316 3.561,7.840 3.563 C 7.675 3.563,7.474 3.587,7.394 3.616 M17.270 7.630 L 17.281 10.200 15.320 10.200 L 13.360 10.200 13.360 9.304 L 13.360 8.409 14.110 8.391 C 14.921 8.372,15.022 8.350,15.229 8.150 C 15.513 7.877,15.522 7.370,15.249 7.109 C 15.038 6.906,14.906 6.880,14.101 6.880 L 13.360 6.880 13.360 6.023 C 13.360 5.552,13.371 5.138,13.384 5.103 C 13.406 5.046,13.605 5.040,15.334 5.050 L 17.260 5.060 17.270 7.630 M8.417 6.187 L 8.960 7.195 8.960 8.697 L 8.960 10.200 7.840 10.200 L 6.720 10.200 6.720 8.684 L 6.720 7.167 7.270 6.146 C 7.572 5.584,7.832 5.137,7.847 5.152 C 7.862 5.168,8.118 5.633,8.417 6.187 M18.950 14.910 L 18.940 18.100 12.000 18.100 L 5.060 18.100 5.050 14.910 L 5.040 11.720 12.000 11.720 L 18.960 11.720 18.950 14.910 " stroke="none" fill-rule="evenodd" fill="black"></path></svg>