<svg width="24" height="24" viewBox="0 0 24 24" fill="none" xmlns="http://www.w3.org/2000/svg">
<path fill-rule="evenodd" clip-rule="evenodd" d="M13.303 7.65105V6.10055H10.202V7.65105H13.303ZM5.5505 9.20155V17.7293H13.2134C13.2449 18.2822 13.3851 18.8061 13.6129 19.2798H5.5505C4.68997 19.2798 4 18.5898 4 17.7293L4.00775 9.20155C4.00775 8.34103 4.68997 7.65105 5.5505 7.65105H8.65151V6.10055C8.65151 5.24002 9.34148 4.55005 10.202 4.55005H13.303C14.1635 4.55005 14.8535 5.24002 14.8535 6.10055V7.65105H17.9545C18.815 7.65105 19.505 8.34103 19.505 9.20155V13.9663C19.0409 13.6807 18.5162 13.4843 17.9545 13.4008V9.20155H5.5505ZM19.8263 16.5389C20.057 16.3083 20.057 15.9343 19.8263 15.7036C19.5956 15.473 19.2217 15.473 18.991 15.7037L16.6705 18.0242L15.6916 17.0454C15.461 16.8147 15.087 16.8147 14.8563 17.0454C14.6257 17.276 14.6257 17.65 14.8563 17.8807L16.2528 19.2772C16.3636 19.3879 16.5138 19.4502 16.6705 19.4502C16.8271 19.4502 16.9773 19.3879 17.0881 19.2772L19.8263 16.5389Z" fill="black"/>
</svg>
