<svg width="24" height="24" viewBox="0 0 24 24" fill="none" xmlns="http://www.w3.org/2000/svg"><path d="M8.640 3.588 C 7.728 3.684,6.220 4.144,5.797 4.456 C 5.564 4.628,5.378 4.908,5.278 5.239 C 5.200 5.495,5.199 5.632,5.209 12.720 L 5.220 19.940 5.313 20.090 C 5.652 20.634,6.462 20.535,6.673 19.924 C 6.707 19.826,6.720 19.127,6.720 17.419 L 6.720 15.051 6.959 14.963 C 7.349 14.821,7.812 14.690,8.270 14.592 C 8.613 14.519,8.821 14.500,9.300 14.501 C 9.850 14.503,9.928 14.512,10.240 14.616 C 10.427 14.678,11.072 14.962,11.673 15.247 C 12.784 15.773,13.491 16.043,13.960 16.118 C 14.901 16.269,16.364 16.046,17.600 15.563 C 18.278 15.298,18.552 15.036,18.721 14.487 C 18.797 14.240,18.800 14.103,18.800 10.284 C 18.800 5.979,18.805 6.080,18.572 5.683 C 18.280 5.184,17.661 4.840,17.056 4.840 C 16.956 4.840,16.602 4.910,16.267 4.997 C 15.549 5.182,15.166 5.240,14.664 5.240 C 14.029 5.240,13.666 5.118,12.180 4.407 C 10.724 3.711,10.188 3.555,9.286 3.566 C 9.008 3.570,8.717 3.579,8.640 3.588 M9.872 5.103 C 10.266 5.183,10.725 5.369,11.820 5.891 C 13.136 6.519,13.668 6.696,14.403 6.749 C 14.938 6.787,15.998 6.643,16.683 6.439 C 16.994 6.347,17.172 6.339,17.235 6.414 C 17.268 6.454,17.278 7.498,17.270 10.284 L 17.260 14.100 16.700 14.287 C 16.041 14.508,15.422 14.634,14.840 14.666 C 14.156 14.704,13.744 14.579,12.380 13.920 C 11.043 13.274,10.513 13.083,9.830 13.001 C 9.149 12.920,8.026 13.059,7.114 13.337 C 6.928 13.394,6.763 13.440,6.748 13.440 C 6.732 13.440,6.724 11.681,6.730 9.530 L 6.740 5.620 7.300 5.433 C 8.325 5.090,9.235 4.973,9.872 5.103 " stroke="none" fill-rule="evenodd" fill="black"></path></svg>