<svg width="24" height="24" viewBox="0 0 24 24" fill="none" xmlns="http://www.w3.org/2000/svg">
<path d="M19.0832 6.58333V17.4167C19.0832 17.8769 18.7101 18.25 18.2498 18.25H5.74984C5.2896 18.25 4.9165 17.8769 4.9165 17.4167L4.9165 6.58333C4.9165 6.12308 5.2896 5.75 5.74984 5.75H18.2498C18.7101 5.75 19.0832 6.12308 19.0832 6.58333Z" stroke="black" stroke-width="1.5" stroke-linecap="round" stroke-linejoin="round"/>
<path d="M9.9165 15.3334H14.0832M14.0832 10.75C14.0832 11.9006 13.1504 12.8334 11.9998 12.8334C10.8493 12.8334 9.9165 11.9006 9.9165 10.75C9.9165 9.59943 10.8493 8.66669 11.9998 8.66669C13.1504 8.66669 14.0832 9.59943 14.0832 10.75Z" stroke="black" stroke-width="1.5" stroke-linecap="round" stroke-linejoin="round"/>
</svg>
