<svg width="24" height="24" viewBox="0 0 24 24" fill="none" xmlns="http://www.w3.org/2000/svg"><path d="M6.800 4.437 C 6.591 4.501,6.346 4.652,6.186 4.813 C 6.095 4.906,5.482 5.680,4.825 6.534 C 3.955 7.665,3.614 8.138,3.571 8.273 C 3.488 8.539,3.527 9.623,3.635 10.044 C 3.762 10.534,4.112 11.211,4.336 11.397 C 4.394 11.445,4.400 11.778,4.400 14.858 C 4.400 18.648,4.389 18.490,4.671 18.915 C 4.847 19.179,5.126 19.405,5.430 19.527 L 5.660 19.620 12.000 19.620 L 18.340 19.620 18.570 19.527 C 18.874 19.405,19.153 19.179,19.329 18.915 C 19.611 18.490,19.600 18.648,19.600 14.858 C 19.600 11.721,19.605 11.445,19.667 11.395 C 19.909 11.196,20.307 10.382,20.398 9.900 C 20.477 9.479,20.496 8.487,20.429 8.274 C 20.386 8.138,20.045 7.665,19.175 6.535 C 18.518 5.681,17.905 4.906,17.814 4.813 C 17.722 4.721,17.551 4.594,17.434 4.532 L 17.220 4.420 12.060 4.413 C 9.222 4.409,6.855 4.420,6.800 4.437 M17.460 6.767 C 17.834 7.254,18.146 7.667,18.153 7.686 C 18.161 7.705,15.392 7.720,12.000 7.720 C 8.513 7.720,5.839 7.705,5.847 7.685 C 5.854 7.666,6.166 7.253,6.540 6.767 L 7.220 5.883 12.000 5.883 L 16.780 5.883 17.460 6.767 M8.680 9.295 C 8.680 9.690,8.487 10.153,8.193 10.464 C 7.830 10.847,7.388 11.040,6.871 11.040 C 5.944 11.040,5.144 10.348,5.056 9.470 L 5.029 9.200 6.854 9.200 L 8.680 9.200 8.680 9.295 M13.791 9.476 C 13.741 10.171,13.153 10.832,12.436 10.998 C 12.210 11.049,11.790 11.049,11.564 10.998 C 10.843 10.831,10.247 10.160,10.207 9.470 L 10.191 9.200 12.001 9.200 L 13.811 9.200 13.791 9.476 M18.960 9.318 C 18.960 10.032,18.404 10.744,17.678 10.961 C 17.214 11.099,16.695 11.051,16.261 10.830 C 16.173 10.785,15.991 10.643,15.856 10.513 C 15.554 10.223,15.377 9.867,15.336 9.470 L 15.309 9.200 17.134 9.200 L 18.960 9.200 18.960 9.318 M10.000 11.887 C 11.124 12.758,12.876 12.758,14.000 11.887 C 14.099 11.810,14.271 11.660,14.381 11.553 L 14.583 11.360 14.801 11.584 C 15.591 12.391,16.733 12.708,17.950 12.457 L 18.080 12.430 18.080 15.275 L 18.080 18.120 16.285 18.120 L 14.489 18.120 14.470 17.030 C 14.454 16.060,14.442 15.911,14.367 15.680 C 14.101 14.864,13.362 14.193,12.540 14.020 C 11.279 13.756,10.030 14.469,9.633 15.680 C 9.556 15.913,9.545 16.055,9.529 17.030 L 9.512 18.120 7.716 18.120 L 5.920 18.120 5.920 15.275 L 5.920 12.430 6.050 12.457 C 6.857 12.623,7.697 12.533,8.340 12.211 C 8.624 12.068,8.987 11.801,9.219 11.563 L 9.417 11.360 9.619 11.553 C 9.729 11.660,9.901 11.810,10.000 11.887 M12.391 15.542 C 12.588 15.624,12.792 15.822,12.884 16.020 C 12.950 16.162,12.958 16.290,12.959 17.150 L 12.960 18.120 12.000 18.120 L 11.040 18.120 11.040 17.159 C 11.040 16.097,11.055 16.015,11.292 15.765 C 11.362 15.691,11.492 15.597,11.580 15.556 C 11.780 15.463,12.186 15.456,12.391 15.542 " stroke="none" fill-rule="evenodd" fill="black"></path></svg>