<svg width="24" height="24" viewBox="0 0 24 24" fill="none" xmlns="http://www.w3.org/2000/svg"><path d="M9.449 5.366 C 8.995 5.438,8.598 5.750,8.384 6.200 C 8.278 6.425,8.262 6.503,8.264 6.780 C 8.269 7.376,8.550 7.832,9.072 8.089 C 9.317 8.209,9.370 8.220,9.719 8.220 C 10.053 8.220,10.128 8.206,10.321 8.111 C 10.604 7.972,10.892 7.684,11.031 7.402 C 11.126 7.208,11.140 7.132,11.140 6.799 C 11.140 6.450,11.129 6.396,11.010 6.153 C 10.726 5.577,10.102 5.262,9.449 5.366 M14.055 5.360 C 13.789 5.399,13.397 5.610,13.215 5.811 C 13.136 5.899,13.023 6.072,12.965 6.195 C 12.875 6.389,12.860 6.473,12.860 6.800 C 12.860 7.132,12.874 7.208,12.969 7.402 C 13.108 7.684,13.396 7.972,13.679 8.111 C 13.872 8.206,13.947 8.220,14.281 8.220 C 14.630 8.220,14.683 8.209,14.928 8.089 C 15.450 7.832,15.731 7.376,15.736 6.780 C 15.738 6.502,15.722 6.426,15.615 6.200 C 15.413 5.776,15.011 5.445,14.618 5.381 C 14.320 5.332,14.260 5.329,14.055 5.360 M9.169 10.563 C 8.869 10.682,8.519 11.018,8.385 11.317 C 8.108 11.933,8.251 12.626,8.748 13.081 C 9.529 13.794,10.809 13.427,11.106 12.404 C 11.199 12.086,11.166 11.606,11.031 11.312 C 10.903 11.034,10.639 10.762,10.354 10.615 C 10.173 10.522,10.081 10.503,9.760 10.492 C 9.449 10.482,9.342 10.495,9.169 10.563 M13.880 10.517 C 13.281 10.700,12.882 11.222,12.848 11.864 C 12.810 12.576,13.154 13.121,13.794 13.362 C 14.794 13.740,15.848 12.903,15.747 11.813 C 15.696 11.265,15.311 10.747,14.820 10.563 C 14.589 10.477,14.092 10.453,13.880 10.517 M9.291 15.816 C 8.650 16.025,8.269 16.545,8.264 17.220 C 8.262 17.497,8.278 17.575,8.384 17.800 C 8.604 18.265,8.978 18.550,9.492 18.644 C 10.111 18.758,10.751 18.409,11.036 17.802 C 11.125 17.612,11.140 17.526,11.140 17.200 C 11.140 16.868,11.126 16.792,11.031 16.598 C 10.893 16.317,10.604 16.027,10.326 15.891 C 10.063 15.763,9.565 15.727,9.291 15.816 M13.813 15.832 C 13.406 15.977,13.062 16.327,12.914 16.746 C 12.850 16.928,12.835 17.047,12.849 17.281 C 12.887 17.955,13.312 18.463,13.976 18.626 C 14.628 18.787,15.311 18.443,15.616 17.800 C 15.722 17.575,15.738 17.497,15.736 17.220 C 15.732 16.627,15.450 16.168,14.934 15.914 C 14.599 15.749,14.140 15.715,13.813 15.832 " stroke="none" fill-rule="evenodd"></path></svg>