<svg width="24" height="24" viewBox="0 0 24 24" fill="none" xmlns="http://www.w3.org/2000/svg"><path d="M10.890 2.820 C 8.162 3.167,5.805 4.627,4.273 6.920 C 3.743 7.714,3.281 8.761,3.040 9.716 C 2.815 10.605,2.783 10.891,2.783 12.000 C 2.783 13.109,2.815 13.395,3.040 14.284 C 3.353 15.522,3.981 16.785,4.778 17.780 C 5.084 18.162,5.792 18.872,6.180 19.187 C 7.193 20.009,8.455 20.641,9.716 20.960 C 10.605 21.185,10.891 21.217,12.000 21.217 C 13.109 21.217,13.395 21.185,14.284 20.960 C 15.824 20.571,17.286 19.756,18.395 18.668 C 19.917 17.174,20.779 15.531,21.147 13.420 C 21.201 13.110,21.217 12.791,21.217 12.000 C 21.217 10.891,21.185 10.605,20.960 9.716 C 20.647 8.478,20.019 7.214,19.222 6.220 C 18.897 5.815,18.239 5.160,17.800 4.805 C 16.532 3.781,15.032 3.118,13.398 2.860 C 12.816 2.768,11.472 2.747,10.890 2.820 M12.551 4.281 C 13.893 4.383,15.132 4.797,16.214 5.505 C 16.721 5.837,16.923 6.000,17.393 6.457 C 17.859 6.909,18.153 7.265,18.495 7.786 C 20.150 10.313,20.150 13.687,18.495 16.214 C 17.877 17.157,17.021 18.000,16.078 18.592 C 15.412 19.011,14.351 19.430,13.538 19.596 C 11.395 20.032,9.131 19.522,7.360 18.204 C 6.990 17.929,6.308 17.274,6.001 16.900 C 4.113 14.597,3.726 11.339,5.021 8.646 C 5.419 7.819,5.925 7.120,6.607 6.457 C 7.077 6.000,7.279 5.837,7.786 5.505 C 8.833 4.820,10.128 4.378,11.369 4.283 C 11.972 4.237,11.974 4.237,12.551 4.281 M9.040 8.361 C 8.560 8.584,8.276 9.083,8.276 9.700 C 8.276 10.134,8.392 10.461,8.643 10.736 C 9.013 11.141,9.482 11.246,9.933 11.025 C 10.881 10.561,10.932 8.952,10.015 8.415 C 9.757 8.264,9.303 8.238,9.040 8.361 M14.191 8.320 C 13.661 8.479,13.287 9.120,13.330 9.793 C 13.367 10.373,13.629 10.811,14.067 11.025 C 14.857 11.412,15.721 10.736,15.725 9.729 C 15.727 8.895,15.220 8.277,14.540 8.284 C 14.408 8.286,14.251 8.302,14.191 8.320 M9.211 13.878 C 9.038 13.920,8.816 14.094,8.732 14.252 C 8.692 14.327,8.664 14.473,8.663 14.604 C 8.661 14.892,8.776 15.072,9.170 15.397 C 10.086 16.153,11.300 16.530,12.415 16.404 C 13.348 16.299,14.135 15.971,14.830 15.397 C 15.223 15.073,15.339 14.893,15.339 14.604 C 15.339 14.328,15.243 14.148,15.009 13.984 C 14.871 13.887,14.802 13.867,14.611 13.867 C 14.344 13.867,14.252 13.908,13.990 14.142 C 12.830 15.180,11.170 15.180,10.010 14.142 C 9.906 14.049,9.784 13.954,9.740 13.931 C 9.620 13.869,9.357 13.842,9.211 13.878 " stroke="none" fill-rule="evenodd"></path></svg>