<svg width="24" height="24" viewBox="0 0 24 24" fill="none" xmlns="http://www.w3.org/2000/svg">
<path fill-rule="evenodd" clip-rule="evenodd" d="M11.7517 5.30748C12.0596 5.03038 12.0846 4.55617 11.8075 4.24828C11.5304 3.9404 11.0562 3.91544 10.7483 4.19254L8.24828 6.44254C8.09024 6.58477 8 6.78739 8 7.00001C8 7.21262 8.09024 7.41525 8.24828 7.55748L10.7483 9.80748C11.0562 10.0846 11.5304 10.0596 11.8075 9.75173C12.0846 9.44385 12.0596 8.96963 11.7517 8.69254L10.7045 7.75001H13.25C16.1495 7.75001 18.5 10.1005 18.5 13V13.25C18.5 13.6642 18.8358 14 19.25 14C19.6642 14 20 13.6642 20 13.25V13C20 9.27208 16.9779 6.25001 13.25 6.25001H10.7045L11.7517 5.30748ZM13.2517 14.1925C12.9438 13.9154 12.4696 13.9404 12.1925 14.2483C11.9154 14.5562 11.9404 15.0304 12.2483 15.3075L13.2955 16.25H10.75C7.8505 16.25 5.5 13.8995 5.5 11V10.75C5.5 10.3358 5.16421 10 4.75 10C4.33579 10 4 10.3358 4 10.75V11C4 14.7279 7.02208 17.75 10.75 17.75H13.2955L12.2483 18.6925C11.9404 18.9696 11.9154 19.4438 12.1925 19.7517C12.4696 20.0596 12.9438 20.0846 13.2517 19.8075L15.7517 17.5575C15.9098 17.4152 16 17.2126 16 17C16 16.7874 15.9098 16.5848 15.7517 16.4425L13.2517 14.1925Z" fill="black"/>
</svg>
