<svg width="24" height="24" viewBox="0 0 24 24" fill="none" xmlns="http://www.w3.org/2000/svg"><path d="M9.851 7.305 C 9.467 7.495,9.306 7.895,9.461 8.271 C 9.504 8.373,10.084 8.982,11.311 10.210 L 13.099 12.000 11.294 13.810 C 9.355 15.755,9.369 15.737,9.410 16.105 C 9.463 16.575,9.965 16.876,10.411 16.705 C 10.547 16.654,10.965 16.256,12.466 14.750 C 13.503 13.711,14.383 12.797,14.422 12.720 C 14.649 12.269,14.649 11.731,14.422 11.280 C 14.315 11.069,10.656 7.408,10.460 7.316 C 10.264 7.225,10.023 7.221,9.851 7.305 " stroke="none" fill-rule="evenodd" fill="black"></path></svg>