<svg width="24" height="24" viewBox="0 0 24 24" fill="none" xmlns="http://www.w3.org/2000/svg">
<path d="M6.42568 20.25L5.67723 20.2983C5.70269 20.6929 6.03021 21 6.42568 21V20.25ZM17.5743 20.25V21C17.9698 21 18.2973 20.6929 18.3228 20.2983L17.5743 20.25ZM3.75 5.67568C3.33579 5.67568 3 6.01146 3 6.42568C3 6.83989 3.33579 7.17568 3.75 7.17568V5.67568ZM20.25 7.17568C20.6642 7.17568 21 6.83989 21 6.42568C21 6.01146 20.6642 5.67568 20.25 5.67568V7.17568ZM10.7432 10.8851C10.7432 10.4709 10.4075 10.1351 9.99324 10.1351C9.57903 10.1351 9.24324 10.4709 9.24324 10.8851H10.7432ZM9.24324 15.7905C9.24324 16.2048 9.57903 16.5405 9.99324 16.5405C10.4075 16.5405 10.7432 16.2048 10.7432 15.7905H9.24324ZM14.7568 10.8851C14.7568 10.4709 14.421 10.1351 14.0068 10.1351C13.5925 10.1351 13.2568 10.4709 13.2568 10.8851H14.7568ZM13.2568 15.7905C13.2568 16.2048 13.5925 16.5405 14.0068 16.5405C14.421 16.5405 14.7568 16.2048 14.7568 15.7905H13.2568ZM14.7289 6.61262C14.8321 7.01376 15.241 7.25525 15.6421 7.152C16.0433 7.04876 16.2848 6.63987 16.1815 6.23873L14.7289 6.61262ZM4.78534 6.47396L5.67723 20.2983L7.17412 20.2017L6.28223 6.37739L4.78534 6.47396ZM6.42568 21H17.5743V19.5H6.42568V21ZM18.3228 20.2983L19.2147 6.47396L17.7178 6.37739L16.8259 20.2017L18.3228 20.2983ZM18.4662 5.67568H5.53378V7.17568H18.4662V5.67568ZM3.75 7.17568H5.53378V5.67568H3.75V7.17568ZM18.4662 7.17568H20.25V5.67568H18.4662V7.17568ZM9.24324 10.8851V15.7905H10.7432V10.8851H9.24324ZM13.2568 10.8851V15.7905H14.7568V10.8851H13.2568ZM12 4.5C13.3119 4.5 14.416 5.39722 14.7289 6.61262L16.1815 6.23873C15.7023 4.3767 14.0129 3 12 3V4.5ZM9.27117 6.61262C9.58399 5.39722 10.6882 4.5 12 4.5V3C9.98718 3 8.29777 4.3767 7.81852 6.23873L9.27117 6.61262Z" fill="black"/>
</svg>
