<svg width="24" height="24" viewBox="0 0 24 24" fill="none" xmlns="http://www.w3.org/2000/svg">
<mask id="path-1-outside-1_1607_35" maskUnits="userSpaceOnUse" x="2.39999" y="3" width="19" height="18" fill="black">
<rect fill="white" x="2.39999" y="3" width="19" height="18"/>
<path fill-rule="evenodd" clip-rule="evenodd" d="M8.19999 8C8.19999 5.79531 9.99531 4 12.2 4C14.4047 4 16.2 5.79531 16.2 8C16.2 8.40938 16.1406 8.80156 16.025 9.175L15.2625 8.9375C15.3547 8.63906 15.4 8.32969 15.4 8C15.4 6.22813 13.9719 4.8 12.2 4.8C10.4281 4.8 8.99999 6.22813 8.99999 8C8.99999 9.17656 9.63281 10.2063 10.575 10.7625L10.925 10.9625L10.7125 11.3125L8.53749 14.8875C8.62812 14.9812 8.72031 15.0844 8.78749 15.2C9.00156 15.5703 9.06093 16 8.94999 16.4125C8.83906 16.825 8.57031 17.1734 8.19999 17.3875C7.94843 17.5328 7.67187 17.6 7.39999 17.6C6.84687 17.6 6.30781 17.3125 6.01249 16.8C5.57187 16.0359 5.83593 15.0547 6.59999 14.6125C6.97031 14.4 7.39999 14.3391 7.81249 14.45C7.82019 14.4521 7.8279 14.4539 7.83546 14.4556C7.84477 14.4578 7.85387 14.4599 7.86249 14.4625L9.83749 11.2C8.85312 10.4703 8.19999 9.31563 8.19999 8ZM10.6 8C10.6 7.11719 11.3172 6.4 12.2 6.4C13.0828 6.4 13.8 7.11719 13.8 8C13.8 8.46094 13.6 8.87031 13.2875 9.1625L15.05 12.35C15.5312 12.1453 16.0453 12 16.6 12C18.8047 12 20.6 13.7953 20.6 16C20.6 18.2047 18.8047 20 16.6 20C15.525 20 14.5437 19.5672 13.825 18.875L14.375 18.3C14.9516 18.8547 15.7359 19.2 16.6 19.2C18.3719 19.2 19.8 17.7719 19.8 16C19.8 14.2281 18.3719 12.8 16.6 12.8C16.0391 12.8 15.5203 12.9469 15.0625 13.2L14.7 13.3875L14.5125 13.0375L12.5875 9.55C12.4641 9.58125 12.3328 9.6 12.2 9.6C11.3172 9.6 10.6 8.88281 10.6 8ZM3.39999 16C3.39999 14.1297 4.68281 12.5469 6.42499 12.1125L6.62499 12.9C5.23437 13.2469 4.19999 14.4969 4.19999 16C4.19999 17.7719 5.62812 19.2 7.39999 19.2C9.17187 19.2 10.6 17.7719 10.6 16V15.6H15.0625C15.2406 14.9109 15.8562 14.4 16.6 14.4C17.4828 14.4 18.2 15.1172 18.2 16C18.2 16.8828 17.4828 17.6 16.6 17.6C15.8562 17.6 15.2406 17.0891 15.0625 16.4H11.325C11.1141 18.4078 9.46249 20 7.39999 20C5.19531 20 3.39999 18.2047 3.39999 16Z"/>
</mask>
<path fill-rule="evenodd" clip-rule="evenodd" d="M8.19999 8C8.19999 5.79531 9.99531 4 12.2 4C14.4047 4 16.2 5.79531 16.2 8C16.2 8.40938 16.1406 8.80156 16.025 9.175L15.2625 8.9375C15.3547 8.63906 15.4 8.32969 15.4 8C15.4 6.22813 13.9719 4.8 12.2 4.8C10.4281 4.8 8.99999 6.22813 8.99999 8C8.99999 9.17656 9.63281 10.2063 10.575 10.7625L10.925 10.9625L10.7125 11.3125L8.53749 14.8875C8.62812 14.9812 8.72031 15.0844 8.78749 15.2C9.00156 15.5703 9.06093 16 8.94999 16.4125C8.83906 16.825 8.57031 17.1734 8.19999 17.3875C7.94843 17.5328 7.67187 17.6 7.39999 17.6C6.84687 17.6 6.30781 17.3125 6.01249 16.8C5.57187 16.0359 5.83593 15.0547 6.59999 14.6125C6.97031 14.4 7.39999 14.3391 7.81249 14.45C7.82019 14.4521 7.8279 14.4539 7.83546 14.4556C7.84477 14.4578 7.85387 14.4599 7.86249 14.4625L9.83749 11.2C8.85312 10.4703 8.19999 9.31563 8.19999 8ZM10.6 8C10.6 7.11719 11.3172 6.4 12.2 6.4C13.0828 6.4 13.8 7.11719 13.8 8C13.8 8.46094 13.6 8.87031 13.2875 9.1625L15.05 12.35C15.5312 12.1453 16.0453 12 16.6 12C18.8047 12 20.6 13.7953 20.6 16C20.6 18.2047 18.8047 20 16.6 20C15.525 20 14.5437 19.5672 13.825 18.875L14.375 18.3C14.9516 18.8547 15.7359 19.2 16.6 19.2C18.3719 19.2 19.8 17.7719 19.8 16C19.8 14.2281 18.3719 12.8 16.6 12.8C16.0391 12.8 15.5203 12.9469 15.0625 13.2L14.7 13.3875L14.5125 13.0375L12.5875 9.55C12.4641 9.58125 12.3328 9.6 12.2 9.6C11.3172 9.6 10.6 8.88281 10.6 8ZM3.39999 16C3.39999 14.1297 4.68281 12.5469 6.42499 12.1125L6.62499 12.9C5.23437 13.2469 4.19999 14.4969 4.19999 16C4.19999 17.7719 5.62812 19.2 7.39999 19.2C9.17187 19.2 10.6 17.7719 10.6 16V15.6H15.0625C15.2406 14.9109 15.8562 14.4 16.6 14.4C17.4828 14.4 18.2 15.1172 18.2 16C18.2 16.8828 17.4828 17.6 16.6 17.6C15.8562 17.6 15.2406 17.0891 15.0625 16.4H11.325C11.1141 18.4078 9.46249 20 7.39999 20C5.19531 20 3.39999 18.2047 3.39999 16Z" fill="black"/>
<path d="M16.025 9.175L15.9655 9.36595L16.1568 9.42553L16.216 9.23415L16.025 9.175ZM15.2625 8.9375L15.0714 8.87847L15.0125 9.06911L15.203 9.12845L15.2625 8.9375ZM10.575 10.7625L10.4733 10.9347L10.4758 10.9361L10.575 10.7625ZM10.925 10.9625L11.096 11.0663L11.2025 10.8907L11.0242 10.7889L10.925 10.9625ZM10.7125 11.3125L10.8834 11.4165L10.8835 11.4163L10.7125 11.3125ZM8.53749 14.8875L8.36663 14.7835L8.28637 14.9155L8.3937 15.0265L8.53749 14.8875ZM8.78749 15.2L8.96065 15.0999L8.96042 15.0995L8.78749 15.2ZM8.94999 16.4125L9.14313 16.4644L9.14313 16.4644L8.94999 16.4125ZM8.19999 17.3875L8.30003 17.5607L8.30009 17.5607L8.19999 17.3875ZM6.01249 16.8L6.18578 16.7001L6.18575 16.7001L6.01249 16.8ZM6.59999 14.6125L6.50045 14.439L6.49981 14.4394L6.59999 14.6125ZM7.81249 14.45L7.86513 14.2571L7.86444 14.2569L7.81249 14.45ZM7.83546 14.4556L7.88066 14.2608L7.88065 14.2608L7.83546 14.4556ZM7.86249 14.4625L7.80502 14.6541L7.95338 14.6986L8.03359 14.5661L7.86249 14.4625ZM9.83749 11.2L10.0086 11.3036L10.1029 11.1478L9.95659 11.0393L9.83749 11.2ZM13.2875 9.1625L13.1509 9.01641L13.037 9.12287L13.1125 9.25928L13.2875 9.1625ZM15.05 12.35L14.875 12.4468L14.9623 12.6047L15.1283 12.534L15.05 12.35ZM13.825 18.875L13.6805 18.7368L13.5427 18.8808L13.6863 19.0191L13.825 18.875ZM14.375 18.3L14.5137 18.1559L14.3691 18.0168L14.2305 18.1618L14.375 18.3ZM15.0625 13.2L15.1544 13.3777L15.1593 13.375L15.0625 13.2ZM14.7 13.3875L14.5237 13.4819L14.6168 13.6557L14.7919 13.5651L14.7 13.3875ZM14.5125 13.0375L14.6888 12.943L14.6876 12.9409L14.5125 13.0375ZM12.5875 9.55L12.7626 9.45335L12.688 9.31824L12.5384 9.35612L12.5875 9.55ZM6.42499 12.1125L6.61884 12.0633L6.56982 11.8703L6.37661 11.9184L6.42499 12.1125ZM6.62499 12.9L6.6734 13.0941L6.86828 13.0454L6.81884 12.8508L6.62499 12.9ZM10.6 15.6V15.4H10.4V15.6H10.6ZM15.0625 15.6V15.8H15.2174L15.2561 15.6501L15.0625 15.6ZM15.0625 16.4L15.2561 16.3499L15.2174 16.2H15.0625V16.4ZM11.325 16.4V16.2H11.1449L11.1261 16.3791L11.325 16.4ZM12.2 3.8C9.88485 3.8 7.99999 5.68486 7.99999 8H8.39999C8.39999 5.90577 10.1058 4.2 12.2 4.2V3.8ZM16.4 8C16.4 5.68486 14.5151 3.8 12.2 3.8V4.2C14.2942 4.2 16 5.90577 16 8H16.4ZM16.216 9.23415C16.3377 8.84113 16.4 8.42897 16.4 8H16C16 8.38978 15.9435 8.762 15.8339 9.11585L16.216 9.23415ZM15.203 9.12845L15.9655 9.36595L16.0845 8.98405L15.322 8.74655L15.203 9.12845ZM15.2 8C15.2 8.31083 15.1574 8.60023 15.0714 8.87847L15.4536 8.99653C15.552 8.6779 15.6 8.34854 15.6 8H15.2ZM12.2 5C13.8614 5 15.2 6.33858 15.2 8H15.6C15.6 6.11767 14.0823 4.6 12.2 4.6V5ZM9.19999 8C9.19999 6.33858 10.5386 5 12.2 5V4.6C10.3177 4.6 8.79999 6.11767 8.79999 8H9.19999ZM10.6767 10.5903C9.79316 10.0687 9.19999 9.10322 9.19999 8H8.79999C8.79999 9.24991 9.47246 10.3438 10.4733 10.9347L10.6767 10.5903ZM11.0242 10.7889L10.6742 10.5889L10.4758 10.9361L10.8258 11.1361L11.0242 10.7889ZM10.8835 11.4163L11.096 11.0663L10.754 10.8587L10.5415 11.2087L10.8835 11.4163ZM8.70836 14.9915L10.8834 11.4165L10.5416 11.2085L8.36663 14.7835L8.70836 14.9915ZM8.96042 15.0995C8.88048 14.962 8.77411 14.8445 8.68129 14.7485L8.3937 15.0265C8.48213 15.118 8.56013 15.2068 8.61457 15.3005L8.96042 15.0995ZM9.14313 16.4644C9.26814 15.9996 9.20078 15.5153 8.96065 15.0999L8.61434 15.3001C8.80233 15.6253 8.85372 16.0004 8.75686 16.3606L9.14313 16.4644ZM8.30009 17.5607C8.7159 17.3203 9.01834 16.9284 9.14313 16.4644L8.75686 16.3606C8.65977 16.7216 8.42471 17.0266 8.0999 17.2143L8.30009 17.5607ZM7.39999 17.8C7.70483 17.8 8.01623 17.7246 8.30003 17.5607L8.09996 17.2143C7.88063 17.341 7.63891 17.4 7.39999 17.4V17.8ZM5.8392 16.8999C6.17176 17.477 6.7785 17.8 7.39999 17.8V17.4C6.91523 17.4 6.44385 17.148 6.18578 16.7001L5.8392 16.8999ZM6.49981 14.4394C5.64058 14.9367 5.3433 16.0399 5.83924 16.8999L6.18575 16.7001C5.80043 16.0319 6.03128 15.1727 6.70017 14.7856L6.49981 14.4394ZM7.86444 14.2569C7.39914 14.1317 6.91513 14.2011 6.50045 14.439L6.69954 14.786C7.02549 14.5989 7.40085 14.5464 7.76055 14.6431L7.86444 14.2569ZM7.88065 14.2608C7.87251 14.2589 7.86853 14.258 7.86513 14.2571L7.75985 14.6429C7.77186 14.6462 7.78328 14.6488 7.79026 14.6505L7.88065 14.2608ZM7.91997 14.2709C7.90418 14.2662 7.88873 14.2627 7.88066 14.2608L7.79025 14.6505C7.8008 14.6529 7.80356 14.6536 7.80502 14.6541L7.91997 14.2709ZM9.6664 11.0964L7.6914 14.3589L8.03359 14.5661L10.0086 11.3036L9.6664 11.0964ZM7.99999 8C7.99999 9.38419 8.68747 10.5965 9.71839 11.3607L9.95659 11.0393C9.01877 10.3441 8.39999 9.24706 8.39999 8H7.99999ZM12.2 6.2C11.2067 6.2 10.4 7.00673 10.4 8H10.8C10.8 7.22764 11.4276 6.6 12.2 6.6V6.2ZM14 8C14 7.00673 13.1933 6.2 12.2 6.2V6.6C12.9723 6.6 13.6 7.22764 13.6 8H14ZM13.4241 9.30859C13.7736 8.98184 14 8.5209 14 8H13.6C13.6 8.40097 13.4264 8.75879 13.1509 9.01641L13.4241 9.30859ZM15.225 12.2532L13.4625 9.06572L13.1125 9.25928L14.875 12.4468L15.225 12.2532ZM16.6 11.8C16.0098 11.8 15.4684 11.9547 14.9717 12.166L15.1283 12.534C15.5941 12.3359 16.0808 12.2 16.6 12.2V11.8ZM20.8 16C20.8 13.6849 18.9151 11.8 16.6 11.8V12.2C18.6942 12.2 20.4 13.9058 20.4 16H20.8ZM16.6 20.2C18.9151 20.2 20.8 18.3151 20.8 16H20.4C20.4 18.0942 18.6942 19.8 16.6 19.8V20.2ZM13.6863 19.0191C14.4402 19.7451 15.4705 20.2 16.6 20.2V19.8C15.5795 19.8 14.6473 19.3892 13.9637 18.7309L13.6863 19.0191ZM14.2305 18.1618L13.6805 18.7368L13.9695 19.0132L14.5195 18.4382L14.2305 18.1618ZM16.6 19C15.7903 19 15.0549 18.6766 14.5137 18.1559L14.2363 18.4441C14.8482 19.0328 15.6816 19.4 16.6 19.4V19ZM19.6 16C19.6 17.6614 18.2614 19 16.6 19V19.4C18.4823 19.4 20 17.8823 20 16H19.6ZM16.6 13C18.2614 13 19.6 14.3386 19.6 16H20C20 14.1177 18.4823 12.6 16.6 12.6V13ZM15.1593 13.375C15.5893 13.1373 16.0749 13 16.6 13V12.6C16.0032 12.6 15.4513 12.7565 14.9657 13.025L15.1593 13.375ZM14.7919 13.5651L15.1544 13.3776L14.9706 13.0224L14.6081 13.2099L14.7919 13.5651ZM14.3362 13.1319L14.5237 13.4819L14.8763 13.2931L14.6888 12.9431L14.3362 13.1319ZM12.4124 9.64665L14.3374 13.1341L14.6876 12.9409L12.7626 9.45335L12.4124 9.64665ZM12.2 9.8C12.3514 9.8 12.4992 9.77867 12.6366 9.74388L12.5384 9.35612C12.4289 9.38383 12.3142 9.4 12.2 9.4V9.8ZM10.4 8C10.4 8.99327 11.2067 9.8 12.2 9.8V9.4C11.4276 9.4 10.8 8.77236 10.8 8H10.4ZM6.37661 11.9184C4.54659 12.3747 3.19999 14.0366 3.19999 16H3.59999C3.59999 14.2228 4.81902 12.719 6.47338 12.3066L6.37661 11.9184ZM6.81884 12.8508L6.61884 12.0633L6.23115 12.1617L6.43115 12.9492L6.81884 12.8508ZM4.39999 16C4.39999 14.5916 5.36899 13.4194 6.6734 13.0941L6.57659 12.7059C5.09974 13.0743 3.99999 14.4021 3.99999 16H4.39999ZM7.39999 19C5.73858 19 4.39999 17.6614 4.39999 16H3.99999C3.99999 17.8823 5.51766 19.4 7.39999 19.4V19ZM10.4 16C10.4 17.6614 9.06141 19 7.39999 19V19.4C9.28233 19.4 10.8 17.8823 10.8 16H10.4ZM10.4 15.6V16H10.8V15.6H10.4ZM15.0625 15.4H10.6V15.8H15.0625V15.4ZM16.6 14.2C15.7609 14.2 15.0687 14.7767 14.8689 15.5499L15.2561 15.6501C15.4125 15.0451 15.9516 14.6 16.6 14.6V14.2ZM18.4 16C18.4 15.0067 17.5933 14.2 16.6 14.2V14.6C17.3723 14.6 18 15.2276 18 16H18.4ZM16.6 17.8C17.5933 17.8 18.4 16.9933 18.4 16H18C18 16.7724 17.3723 17.4 16.6 17.4V17.8ZM14.8689 16.4501C15.0687 17.2233 15.7609 17.8 16.6 17.8V17.4C15.9516 17.4 15.4125 16.9549 15.2561 16.3499L14.8689 16.4501ZM11.325 16.6H15.0625V16.2H11.325V16.6ZM7.39999 20.2C9.57078 20.2 11.3029 18.5245 11.5239 16.4209L11.1261 16.3791C10.9252 18.2911 9.3542 19.8 7.39999 19.8V20.2ZM3.19999 16C3.19999 18.3151 5.08485 20.2 7.39999 20.2V19.8C5.30576 19.8 3.59999 18.0942 3.59999 16H3.19999Z" fill="black" mask="url(#path-1-outside-1_1607_35)"/>
</svg>
