<svg width="24" height="24" viewBox="0 0 24 24" fill="none" xmlns="http://www.w3.org/2000/svg">
<path fill-rule="evenodd" clip-rule="evenodd" d="M13.5 7.875V6.375H10.5V7.875H13.5ZM6 9.375V17.625H13.4133C13.4438 18.1599 13.5794 18.6667 13.7998 19.125H6C5.1675 19.125 4.5 18.4575 4.5 17.625L4.5075 9.375C4.5075 8.5425 5.1675 7.875 6 7.875H9V6.375C9 5.5425 9.6675 4.875 10.5 4.875H13.5C14.3325 4.875 15 5.5425 15 6.375V7.875H18C18.8325 7.875 19.5 8.5425 19.5 9.375V13.9846C19.051 13.7084 18.5433 13.5183 18 13.4375V9.375H6ZM19.8244 16.4869C20.0551 16.2563 20.0551 15.8823 19.8244 15.6516C19.5938 15.421 19.2198 15.421 18.9891 15.6517L16.7578 17.883L15.8244 16.9497C15.5938 16.719 15.2198 16.719 14.9891 16.9497C14.7585 17.1803 14.7585 17.5543 14.9891 17.785L16.3401 19.136C16.4509 19.2468 16.6011 19.309 16.7578 19.309C16.9144 19.309 17.0646 19.2468 17.1754 19.136L19.8244 16.4869Z" fill="black"/>
</svg>
