<svg width="24" height="24" viewBox="0 0 24 24" fill="none" xmlns="http://www.w3.org/2000/svg"><path d="M15.000 4.545 C 14.127 4.712,13.450 5.060,12.877 5.635 C 12.377 6.138,12.104 6.601,11.897 7.300 C 11.806 7.606,11.789 7.741,11.785 8.200 C 11.782 8.497,11.795 8.834,11.814 8.950 L 11.847 9.160 11.594 9.137 C 9.674 8.968,7.903 8.368,6.380 7.370 C 5.582 6.847,4.800 6.174,4.169 5.467 L 3.925 5.193 3.807 5.427 C 3.498 6.039,3.355 6.824,3.432 7.481 C 3.536 8.361,3.873 9.070,4.480 9.684 C 4.689 9.895,4.914 10.108,4.980 10.157 L 5.100 10.245 4.833 10.222 C 4.471 10.190,4.001 10.065,3.672 9.914 C 3.522 9.844,3.391 9.796,3.380 9.806 C 3.350 9.836,3.438 10.520,3.505 10.780 C 3.760 11.766,4.538 12.721,5.475 13.198 C 5.571 13.247,5.830 13.346,6.051 13.418 L 6.451 13.549 6.176 13.603 C 5.874 13.663,5.159 13.678,4.890 13.630 L 4.721 13.599 4.803 13.810 C 5.132 14.650,5.837 15.412,6.663 15.823 C 7.015 15.997,7.566 16.155,8.080 16.229 L 8.300 16.260 7.933 16.506 C 6.549 17.435,5.067 17.867,3.376 17.834 L 2.652 17.820 2.876 17.956 C 3.228 18.169,4.260 18.660,4.694 18.820 C 7.812 19.966,11.502 19.637,14.255 17.967 C 17.381 16.069,19.330 12.684,19.467 8.915 L 19.492 8.210 19.764 8.003 C 20.240 7.639,21.119 6.705,21.334 6.333 C 21.348 6.308,21.224 6.339,21.057 6.403 C 20.627 6.569,20.100 6.715,19.628 6.800 C 19.403 6.841,19.216 6.869,19.210 6.863 C 19.205 6.858,19.303 6.783,19.429 6.697 C 19.922 6.358,20.374 5.827,20.657 5.250 C 20.896 4.763,20.909 4.771,20.352 5.040 C 19.838 5.288,19.075 5.559,18.652 5.645 L 18.404 5.695 18.188 5.491 C 17.801 5.126,17.224 4.808,16.637 4.638 C 16.404 4.571,16.206 4.550,15.720 4.539 C 15.379 4.532,15.055 4.534,15.000 4.545 " stroke="none" fill-rule="evenodd"></path></svg>