<svg width="24" height="24" viewBox="0 0 24 24" fill="none" xmlns="http://www.w3.org/2000/svg"><path d="M11.500 3.513 C 11.390 3.554,9.763 4.357,7.884 5.298 C 4.086 7.198,4.169 7.149,3.909 7.675 C 3.789 7.920,3.779 7.971,3.766 8.427 C 3.751 8.956,3.800 9.192,3.985 9.488 C 4.258 9.922,4.783 10.240,5.227 10.240 L 5.400 10.240 5.400 12.870 L 5.400 15.500 5.210 15.600 C 4.959 15.732,4.708 15.965,4.578 16.186 C 4.521 16.285,4.385 16.634,4.277 16.962 C 4.124 17.426,4.080 17.616,4.080 17.815 C 4.080 18.347,4.330 18.830,4.760 19.131 C 5.207 19.443,4.636 19.420,11.980 19.420 C 17.355 19.420,18.578 19.410,18.750 19.366 C 19.231 19.242,19.694 18.799,19.844 18.318 C 19.971 17.908,19.948 17.643,19.723 16.962 C 19.615 16.634,19.479 16.285,19.422 16.186 C 19.292 15.965,19.041 15.732,18.790 15.600 L 18.600 15.500 18.600 12.870 L 18.600 10.240 18.773 10.240 C 19.217 10.240,19.742 9.922,20.015 9.488 C 20.200 9.192,20.249 8.956,20.234 8.427 C 20.221 7.971,20.211 7.920,20.091 7.675 C 19.830 7.145,19.927 7.203,15.987 5.234 L 12.445 3.464 12.072 3.451 C 11.783 3.441,11.656 3.455,11.500 3.513 M15.380 6.612 L 18.740 8.300 18.752 8.473 C 18.759 8.568,18.744 8.672,18.718 8.703 C 18.646 8.789,5.354 8.789,5.282 8.703 C 5.256 8.672,5.241 8.568,5.248 8.473 L 5.260 8.300 8.620 6.612 C 10.468 5.684,11.989 4.924,12.000 4.924 C 12.011 4.924,13.532 5.684,15.380 6.612 M8.750 12.830 L 8.740 15.420 7.830 15.431 L 6.920 15.442 6.920 12.841 L 6.920 10.240 7.840 10.240 L 8.761 10.240 8.750 12.830 M13.750 12.830 L 13.740 15.420 12.000 15.420 L 10.260 15.420 10.250 12.830 L 10.239 10.240 12.000 10.240 L 13.761 10.240 13.750 12.830 M17.080 12.841 L 17.080 15.442 16.170 15.431 L 15.260 15.420 15.250 12.830 L 15.239 10.240 16.160 10.240 L 17.080 10.240 17.080 12.841 M18.280 17.380 C 18.361 17.622,18.419 17.843,18.410 17.870 C 18.385 17.943,5.615 17.943,5.590 17.870 C 5.576 17.831,5.731 17.313,5.859 16.970 C 5.874 16.930,7.124 16.922,12.005 16.930 L 18.133 16.940 18.280 17.380 " stroke="none" fill-rule="evenodd" fill="black"></path></svg>