<svg width="24" height="24" viewBox="0 0 24 24" fill="none" xmlns="http://www.w3.org/2000/svg">
<path fill-rule="evenodd" clip-rule="evenodd" d="M17.588 6.8993C17.7369 6.74601 17.9397 6.65672 18.1533 6.65035C18.319 6.64547 18.4822 6.69074 18.6217 6.78023C18.7612 6.86973 18.8704 6.99927 18.935 7.15189C18.9996 7.3045 19.0165 7.47307 18.9837 7.6355C18.9508 7.79792 18.8696 7.94664 18.7508 8.06215L9.70505 17.1079C9.55082 17.2621 9.34169 17.3487 9.12363 17.3487C8.90557 17.3487 8.69643 17.2621 8.54221 17.1079L5.25284 13.8185C5.17391 13.7428 5.1109 13.652 5.06749 13.5516C5.02409 13.4511 5.00116 13.3431 5.00004 13.2337C4.99893 13.1243 5.01966 13.0157 5.06101 12.9144C5.10237 12.8131 5.16352 12.7211 5.24088 12.6437C5.31825 12.5664 5.41027 12.5052 5.51157 12.4639C5.61286 12.4225 5.72139 12.4018 5.83079 12.4029C5.9402 12.404 6.04828 12.427 6.14871 12.4704C6.24914 12.5138 6.3399 12.5768 6.41568 12.6557L9.12363 15.3636L17.588 6.8993Z" fill="#0E1438"/>
<path d="M18.1533 6.65035L18.146 6.40046L18.1459 6.40046L18.1533 6.65035ZM17.588 6.8993L17.7648 7.0761L17.7673 7.07352L17.588 6.8993ZM18.6217 6.78023L18.4867 6.99064L18.4867 6.99064L18.6217 6.78023ZM18.935 7.15189L19.1652 7.05445V7.05445L18.935 7.15189ZM18.9837 7.6355L18.7386 7.58592V7.58592L18.9837 7.6355ZM18.7508 8.06215L18.5765 7.88286L18.574 7.88537L18.7508 8.06215ZM9.70505 17.1079L9.88179 17.2847L9.88183 17.2847L9.70505 17.1079ZM8.54221 17.1079L8.36543 17.2847L8.36546 17.2847L8.54221 17.1079ZM5.25284 13.8185L5.42965 13.6417L5.42598 13.6382L5.25284 13.8185ZM5.06749 13.5516L5.29698 13.4524L5.06749 13.5516ZM5.00004 13.2337L4.75006 13.2362L5.00004 13.2337ZM5.06101 12.9144L5.29247 13.0089H5.29247L5.06101 12.9144ZM5.24088 12.6437L5.41766 12.8205H5.41766L5.24088 12.6437ZM5.51157 12.4639L5.60606 12.6953L5.60606 12.6953L5.51157 12.4639ZM5.83079 12.4029L5.82825 12.6529L5.83079 12.4029ZM6.14871 12.4704L6.04953 12.6998H6.04953L6.14871 12.4704ZM6.41568 12.6557L6.23531 12.8289L6.2389 12.8325L6.41568 12.6557ZM9.12363 15.3636L8.94685 15.5404L9.12363 15.7172L9.3004 15.5404L9.12363 15.3636ZM18.1459 6.40046C17.8673 6.40876 17.6029 6.52519 17.4087 6.72509L17.7673 7.07352C17.8709 6.96682 18.0121 6.90467 18.1608 6.90024L18.1459 6.40046ZM18.7567 6.56982C18.5749 6.45312 18.362 6.39409 18.146 6.40046L18.1607 6.90024C18.276 6.89684 18.3896 6.92835 18.4867 6.99064L18.7567 6.56982ZM19.1652 7.05445C19.081 6.85544 18.9386 6.68652 18.7567 6.56982L18.4867 6.99064C18.5838 7.05293 18.6598 7.1431 18.7047 7.24932L19.1652 7.05445ZM19.2287 7.68507C19.2716 7.47326 19.2494 7.25346 19.1652 7.05445L18.7047 7.24932C18.7497 7.35554 18.7615 7.47287 18.7386 7.58592L19.2287 7.68507ZM18.9251 8.24141C19.08 8.09079 19.1859 7.89687 19.2287 7.68507L18.7386 7.58592C18.7158 7.69898 18.6593 7.80249 18.5766 7.88288L18.9251 8.24141ZM9.88183 17.2847L18.9276 8.23892L18.574 7.88537L9.52827 16.9311L9.88183 17.2847ZM9.12363 17.5987C9.40797 17.5987 9.68068 17.4857 9.88179 17.2847L9.52831 16.9311C9.42097 17.0384 9.2754 17.0987 9.12363 17.0987V17.5987ZM8.36546 17.2847C8.56657 17.4857 8.83928 17.5987 9.12363 17.5987V17.0987C8.97185 17.0987 8.82629 17.0384 8.71895 16.9311L8.36546 17.2847ZM5.07606 13.9953L8.36543 17.2847L8.71898 16.9311L5.42961 13.6418L5.07606 13.9953ZM4.83801 13.6508C4.89461 13.7817 4.97678 13.9001 5.07969 13.9989L5.42598 13.6382C5.37105 13.5855 5.32719 13.5223 5.29698 13.4524L4.83801 13.6508ZM4.75006 13.2362C4.75151 13.3789 4.78141 13.5198 4.83801 13.6508L5.29698 13.4524C5.26677 13.3825 5.2508 13.3073 5.25003 13.2311L4.75006 13.2362ZM4.82956 12.8199C4.77563 12.952 4.7486 13.0935 4.75006 13.2362L5.25003 13.2311C5.24926 13.155 5.26368 13.0794 5.29247 13.0089L4.82956 12.8199ZM5.06411 12.467C4.96322 12.5679 4.88348 12.6878 4.82956 12.8199L5.29247 13.0089C5.32125 12.9384 5.36381 12.8744 5.41766 12.8205L5.06411 12.467ZM5.41707 12.2324C5.28499 12.2863 5.16499 12.3661 5.06411 12.467L5.41766 12.8205C5.47151 12.7667 5.53556 12.7241 5.60606 12.6953L5.41707 12.2324ZM5.83333 12.1529C5.69067 12.1515 5.54916 12.1785 5.41707 12.2324L5.60606 12.6953C5.67656 12.6665 5.7521 12.6521 5.82825 12.6529L5.83333 12.1529ZM6.2479 12.2409C6.11694 12.1843 5.976 12.1544 5.83333 12.1529L5.82825 12.6529C5.9044 12.6537 5.97962 12.6696 6.04953 12.6998L6.2479 12.2409ZM6.59602 12.4826C6.49721 12.3796 6.37886 12.2975 6.2479 12.2409L6.04953 12.6998C6.11943 12.7301 6.1826 12.7739 6.23534 12.8288L6.59602 12.4826ZM9.3004 15.1869L6.59246 12.4789L6.2389 12.8325L8.94685 15.5404L9.3004 15.1869ZM17.4112 6.72253L8.94685 15.1869L9.3004 15.5404L17.7647 7.07608L17.4112 6.72253Z" fill="#0E1438"/>
</svg>
