<svg width="24" height="24" viewBox="0 0 24 24" fill="none" xmlns="http://www.w3.org/2000/svg">
<path d="M11.9998 5.95835C12.4601 5.95835 12.8332 5.58525 12.8332 5.12502C12.8332 4.66479 12.4601 4.29169 11.9998 4.29169C11.5396 4.29169 11.1665 4.66479 11.1665 5.12502C11.1665 5.58525 11.5396 5.95835 11.9998 5.95835Z" fill="black"/>
<path d="M11.9998 12.8334C12.4601 12.8334 12.8332 12.4603 12.8332 12C12.8332 11.5398 12.4601 11.1667 11.9998 11.1667C11.5396 11.1667 11.1665 11.5398 11.1665 12C11.1665 12.4603 11.5396 12.8334 11.9998 12.8334Z" fill="black"/>
<path d="M11.9998 19.7084C12.4601 19.7084 12.8332 19.3353 12.8332 18.875C12.8332 18.4148 12.4601 18.0417 11.9998 18.0417C11.5396 18.0417 11.1665 18.4148 11.1665 18.875C11.1665 19.3353 11.5396 19.7084 11.9998 19.7084Z" fill="black"/>
<path d="M11.9998 5.95835C12.4601 5.95835 12.8332 5.58525 12.8332 5.12502C12.8332 4.66479 12.4601 4.29169 11.9998 4.29169C11.5396 4.29169 11.1665 4.66479 11.1665 5.12502C11.1665 5.58525 11.5396 5.95835 11.9998 5.95835Z" stroke="black" stroke-width="1.25" stroke-linecap="round" stroke-linejoin="round"/>
<path d="M11.9998 12.8334C12.4601 12.8334 12.8332 12.4603 12.8332 12C12.8332 11.5398 12.4601 11.1667 11.9998 11.1667C11.5396 11.1667 11.1665 11.5398 11.1665 12C11.1665 12.4603 11.5396 12.8334 11.9998 12.8334Z" stroke="black" stroke-width="1.25" stroke-linecap="round" stroke-linejoin="round"/>
<path d="M11.9998 19.7084C12.4601 19.7084 12.8332 19.3353 12.8332 18.875C12.8332 18.4148 12.4601 18.0417 11.9998 18.0417C11.5396 18.0417 11.1665 18.4148 11.1665 18.875C11.1665 19.3353 11.5396 19.7084 11.9998 19.7084Z" stroke="black" stroke-width="1.25" stroke-linecap="round" stroke-linejoin="round"/>
</svg>
