<svg width="24" height="24" viewBox="0 0 24 24" fill="none" xmlns="http://www.w3.org/2000/svg">
<path d="M5.125 8.66667V5.95833C5.125 5.4981 5.4981 5.125 5.95833 5.125H8.66667M5.125 15.3333V18.0417C5.125 18.5019 5.4981 18.875 5.95833 18.875H8.66667M15.3333 5.125H18.0417C18.5019 5.125 18.875 5.4981 18.875 5.95833V8.66667M18.875 15.3333V18.0417C18.875 18.5019 18.5019 18.875 18.0417 18.875H15.3333M10.125 14.7083H13.875C14.3352 14.7083 14.7083 14.3352 14.7083 13.875V10.125C14.7083 9.66477 14.3352 9.29167 13.875 9.29167H10.125C9.66477 9.29167 9.29167 9.66477 9.29167 10.125V13.875C9.29167 14.3352 9.66477 14.7083 10.125 14.7083Z" stroke="black" stroke-width="1.25" stroke-linecap="round" stroke-linejoin="round"/>
</svg>
