<svg width="24" height="24" viewBox="0 0 24 24" fill="none" xmlns="http://www.w3.org/2000/svg"><path d="M11.220 3.614 C 10.742 3.770,10.541 3.971,9.909 4.920 C 9.624 5.349,9.379 5.713,9.365 5.728 C 9.351 5.743,8.953 5.666,8.480 5.556 C 7.451 5.316,7.214 5.311,6.771 5.519 C 6.387 5.698,5.696 6.391,5.515 6.778 C 5.311 7.213,5.314 7.452,5.537 8.406 C 5.638 8.839,5.720 9.235,5.719 9.286 C 5.718 9.363,5.587 9.466,4.989 9.860 C 4.112 10.437,3.852 10.670,3.698 11.012 C 3.467 11.524,3.467 12.476,3.698 12.988 C 3.852 13.330,4.112 13.563,4.989 14.140 C 5.587 14.534,5.718 14.637,5.719 14.714 C 5.720 14.765,5.638 15.161,5.537 15.594 C 5.314 16.548,5.311 16.787,5.515 17.222 C 5.697 17.610,6.387 18.302,6.772 18.482 C 7.215 18.689,7.483 18.684,8.480 18.448 C 8.931 18.341,9.318 18.260,9.340 18.268 C 9.362 18.276,9.596 18.611,9.860 19.011 C 10.438 19.888,10.670 20.148,11.012 20.302 C 11.524 20.533,12.476 20.533,12.988 20.302 C 13.330 20.148,13.562 19.888,14.140 19.011 C 14.404 18.611,14.638 18.276,14.660 18.268 C 14.682 18.260,15.069 18.341,15.520 18.448 C 16.229 18.616,16.382 18.640,16.650 18.625 C 17.137 18.598,17.397 18.456,17.926 17.926 C 18.695 17.158,18.764 16.838,18.448 15.513 C 18.356 15.124,18.280 14.764,18.281 14.713 C 18.282 14.637,18.414 14.533,19.011 14.140 C 19.888 13.563,20.148 13.330,20.302 12.988 C 20.533 12.476,20.533 11.524,20.302 11.012 C 20.148 10.670,19.888 10.437,19.011 9.860 C 18.414 9.467,18.282 9.363,18.281 9.287 C 18.280 9.236,18.356 8.876,18.448 8.487 C 18.672 7.546,18.680 7.190,18.488 6.782 C 18.308 6.400,17.624 5.712,17.236 5.523 C 16.798 5.310,16.558 5.315,15.520 5.556 C 15.047 5.666,14.649 5.743,14.635 5.728 C 14.621 5.713,14.376 5.349,14.091 4.920 C 13.533 4.083,13.326 3.855,12.967 3.686 C 12.752 3.586,12.703 3.580,12.060 3.571 C 11.587 3.565,11.331 3.578,11.220 3.614 M12.845 5.770 C 13.498 6.751,13.615 6.883,13.982 7.065 C 14.444 7.293,14.665 7.293,15.660 7.064 C 16.100 6.963,16.496 6.880,16.539 6.880 C 16.644 6.880,17.120 7.354,17.120 7.459 C 17.120 7.503,17.037 7.900,16.936 8.340 C 16.707 9.335,16.707 9.556,16.935 10.018 C 17.117 10.385,17.249 10.502,18.231 11.156 L 18.963 11.643 18.951 12.012 L 18.940 12.380 18.112 12.940 C 17.656 13.248,17.236 13.545,17.179 13.599 C 17.122 13.654,17.011 13.829,16.932 13.989 C 16.707 14.443,16.708 14.669,16.936 15.660 C 17.037 16.100,17.120 16.498,17.120 16.543 C 17.120 16.594,17.013 16.730,16.848 16.889 L 16.577 17.151 15.738 16.954 C 15.009 16.782,14.860 16.758,14.590 16.774 C 14.236 16.795,13.879 16.938,13.627 17.160 C 13.544 17.232,13.225 17.667,12.916 18.127 L 12.356 18.963 11.988 18.951 L 11.620 18.940 11.060 18.112 C 10.752 17.656,10.455 17.236,10.401 17.179 C 10.346 17.122,10.173 17.012,10.016 16.934 C 9.783 16.819,9.673 16.790,9.415 16.775 C 9.139 16.758,8.997 16.780,8.262 16.954 L 7.423 17.151 7.152 16.889 C 6.987 16.730,6.880 16.594,6.880 16.543 C 6.880 16.498,6.963 16.100,7.064 15.660 C 7.292 14.669,7.293 14.443,7.068 13.989 C 6.989 13.829,6.878 13.654,6.821 13.599 C 6.764 13.545,6.344 13.248,5.888 12.940 L 5.060 12.380 5.060 12.000 L 5.060 11.620 5.888 11.060 C 6.344 10.752,6.764 10.455,6.821 10.401 C 6.878 10.346,6.989 10.171,7.068 10.011 C 7.293 9.557,7.292 9.331,7.064 8.340 C 6.963 7.900,6.880 7.504,6.880 7.461 C 6.880 7.356,7.354 6.880,7.459 6.880 C 7.503 6.880,7.900 6.963,8.340 7.064 C 9.006 7.217,9.188 7.245,9.424 7.231 C 9.738 7.211,10.116 7.060,10.350 6.863 C 10.422 6.802,10.717 6.399,11.006 5.966 C 11.295 5.534,11.559 5.149,11.592 5.110 C 11.641 5.053,11.719 5.040,12.006 5.040 L 12.359 5.040 12.845 5.770 M11.471 8.999 C 10.464 9.183,9.576 9.899,9.186 10.840 C 8.813 11.741,8.909 12.823,9.435 13.640 C 9.616 13.921,10.076 14.382,10.360 14.566 C 11.164 15.087,12.223 15.183,13.146 14.817 C 13.523 14.667,13.810 14.473,14.142 14.142 C 14.473 13.810,14.667 13.523,14.817 13.146 C 15.486 11.460,14.603 9.627,12.860 9.081 C 12.546 8.983,11.798 8.939,11.471 8.999 M12.649 10.608 C 12.942 10.745,13.255 11.057,13.392 11.351 C 13.488 11.554,13.500 11.628,13.500 12.000 C 13.500 12.372,13.488 12.446,13.392 12.649 C 12.945 13.605,11.665 13.829,10.918 13.082 C 10.626 12.790,10.505 12.506,10.487 12.072 C 10.458 11.376,10.794 10.841,11.429 10.575 C 11.628 10.492,11.713 10.480,12.040 10.489 C 12.354 10.499,12.460 10.519,12.649 10.608 " stroke="none" fill-rule="evenodd" fill="black"></path></svg>