<svg width="24" height="24" viewBox="0 0 24 24" fill="none" xmlns="http://www.w3.org/2000/svg"><path d="M13.580 6.260 C 13.558 6.267,13.491 6.284,13.431 6.297 C 13.284 6.329,13.041 6.548,12.974 6.708 C 12.904 6.875,12.905 7.128,12.976 7.291 C 13.008 7.364,13.858 8.244,14.936 9.320 L 16.840 11.220 10.990 11.240 L 5.140 11.260 4.960 11.366 C 4.407 11.691,4.501 12.504,5.116 12.714 C 5.217 12.748,6.758 12.760,11.056 12.760 L 16.860 12.760 14.932 14.690 C 13.871 15.752,12.985 16.671,12.962 16.733 C 12.908 16.878,12.908 17.124,12.963 17.267 C 13.052 17.504,13.398 17.757,13.635 17.759 C 13.968 17.762,13.932 17.794,16.615 15.123 C 18.020 13.724,19.221 12.500,19.285 12.402 C 19.447 12.151,19.447 11.848,19.284 11.598 C 19.136 11.369,14.179 6.427,14.020 6.349 C 13.893 6.287,13.648 6.237,13.580 6.260 " stroke="none" fill-rule="evenodd" fill="black"></path></svg>