<svg width="24" height="24" viewBox="0 0 24 24" fill="none" xmlns="http://www.w3.org/2000/svg">
<path fill-rule="evenodd" clip-rule="evenodd" d="M3.64219 12.6951C3.44434 12.8643 3.19246 12.9383 2.78969 12.9383H2.62256V10.9194H2.78969C3.19246 10.9194 3.43467 10.9884 3.64219 11.166C3.85641 11.3495 3.98513 11.6326 3.98513 11.9255C3.98513 12.2197 3.85641 12.5129 3.64219 12.6951ZM2.91445 10.4023H2V13.4556H2.90888C3.39255 13.4556 3.74168 13.3455 4.0477 13.1025C4.4112 12.8146 4.6269 12.38 4.6269 11.9297C4.6269 11.0284 3.92319 10.4023 2.91445 10.4023Z" fill="#201D1C"/>
<path fill-rule="evenodd" clip-rule="evenodd" d="M4.91406 10.4023H5.53415V13.4556H4.91406V10.4023Z" fill="#201D1C"/>
<path fill-rule="evenodd" clip-rule="evenodd" d="M7.05689 11.5725C6.68261 11.4412 6.57321 11.3537 6.57321 11.1887C6.57321 10.9968 6.76871 10.8514 7.03756 10.8514C7.22389 10.8514 7.3774 10.9228 7.54094 11.0971L7.86467 10.6907C7.59718 10.4655 7.27704 10.3514 6.92804 10.3514C6.36333 10.3514 5.93293 10.7274 5.93293 11.2245C5.93293 11.6465 6.13302 11.8606 6.71692 12.064C6.96099 12.1452 7.08501 12.2006 7.14782 12.2382C7.27221 12.3152 7.33416 12.4254 7.33416 12.5529C7.33416 12.8012 7.1285 12.9838 6.85048 12.9838C6.5545 12.9838 6.31502 12.842 6.17167 12.5758L5.77051 12.9475C6.05732 13.3497 6.40112 13.5294 6.87476 13.5294C7.52074 13.5294 7.97592 13.1155 7.97592 12.5261C7.97592 12.0404 7.76481 11.8202 7.05689 11.5725" fill="#201D1C"/>
<path fill-rule="evenodd" clip-rule="evenodd" d="M8.17139 11.9298C8.17139 12.8277 8.90793 13.5235 9.85608 13.5235C10.1234 13.5235 10.3526 13.473 10.6349 13.3455V12.6438C10.3855 12.8836 10.1666 12.9783 9.88334 12.9783C9.25681 12.9783 8.81303 12.5445 8.81303 11.9255C8.81303 11.3407 9.27118 10.8774 9.85608 10.8774C10.1512 10.8774 10.3767 10.9774 10.6349 11.2208V10.5199C10.3622 10.388 10.1384 10.3333 9.86884 10.3333C8.92614 10.3333 8.17139 11.0427 8.17139 11.9298" fill="#201D1C"/>
<path fill-rule="evenodd" clip-rule="evenodd" d="M15.6763 12.4522L14.8254 10.4023H14.147L15.4996 13.5327H15.8333L17.2122 10.4023H16.5391L15.6763 12.4522" fill="#201D1C"/>
<path fill-rule="evenodd" clip-rule="evenodd" d="M17.4946 13.4556H19.2592V12.9383H18.1172V12.1141H19.2159V11.5968H18.1172V10.9194H19.2592V10.4023H17.4946V13.4556" fill="#201D1C"/>
<path fill-rule="evenodd" clip-rule="evenodd" d="M20.4745 11.8063H20.2938V10.8828H20.4846C20.8734 10.8828 21.0817 11.0389 21.0817 11.3364C21.0817 11.642 20.8734 11.8063 20.4745 11.8063ZM21.7225 11.3032C21.7225 10.7314 21.3126 10.4023 20.5942 10.4023H19.6699V13.4556H20.2938V12.228H20.3747L21.2344 13.4556H22L20.9961 12.1687C21.4653 12.077 21.7225 11.7704 21.7225 11.3032Z" fill="#201D1C"/>
<path fill-rule="evenodd" clip-rule="evenodd" d="M14.2348 11.9369C14.2348 12.8159 13.4905 13.5284 12.5715 13.5284C11.6527 13.5284 10.9082 12.8159 10.9082 11.9369C10.9082 11.0577 11.6527 10.345 12.5715 10.345C13.4905 10.345 14.2348 11.0577 14.2348 11.9369" fill="url(#paint0_linear_1275_654)"/>
<path fill-rule="evenodd" clip-rule="evenodd" d="M14.2348 11.9369C14.2348 12.8159 13.4905 13.5284 12.5715 13.5284C11.6527 13.5284 10.9082 12.8159 10.9082 11.9369C10.9082 11.0577 11.6527 10.345 12.5715 10.345C13.4905 10.345 14.2348 11.0577 14.2348 11.9369" fill="url(#paint1_radial_1275_654)"/>
<defs>
<linearGradient id="paint0_linear_1275_654" x1="11.551" y1="10.6458" x2="13.6213" y2="13.1458" gradientUnits="userSpaceOnUse">
<stop stop-color="#E6772F"/>
<stop offset="1" stop-color="#EA9D2C"/>
</linearGradient>
<radialGradient id="paint1_radial_1275_654" cx="0" cy="0" r="1" gradientUnits="userSpaceOnUse" gradientTransform="translate(12.9377 12.5989) rotate(-128.1) scale(2.1841 2.28237)">
<stop stop-color="#EA9D2C" stop-opacity="0"/>
<stop offset="0.328125" stop-color="#DF7624" stop-opacity="0"/>
<stop offset="0.760188" stop-color="#BF4B23" stop-opacity="0.75"/>
<stop offset="1" stop-color="#7D3017"/>
</radialGradient>
</defs>
</svg>
