<svg width="24" height="24" viewBox="0 0 24 24" fill="none" xmlns="http://www.w3.org/2000/svg">
<path d="M19.7082 12V6.79165C19.7082 6.33141 19.3351 5.95831 18.8748 5.95831H5.12484C4.6646 5.95831 4.2915 6.33141 4.2915 6.79165V12M19.7082 12H4.2915M19.7082 12V17.2083C19.7082 17.6686 19.3351 18.0416 18.8748 18.0416H5.12484C4.6646 18.0416 4.2915 17.6686 4.2915 17.2083V12" stroke="black" stroke-width="1.25" stroke-linecap="square" stroke-linejoin="round"/>
<path d="M7.4165 9.60419C7.76168 9.60419 8.0415 9.32436 8.0415 8.97919C8.0415 8.63401 7.76168 8.35419 7.4165 8.35419C7.07133 8.35419 6.7915 8.63401 6.7915 8.97919C6.7915 9.32436 7.07133 9.60419 7.4165 9.60419ZM7.4165 15.6459C7.76168 15.6459 8.0415 15.366 8.0415 15.0209C8.0415 14.6757 7.76168 14.3959 7.4165 14.3959C7.07133 14.3959 6.7915 14.6757 6.7915 15.0209C6.7915 15.366 7.07133 15.6459 7.4165 15.6459Z" fill="black" stroke="black" stroke-width="0.416667"/>
</svg>
