<svg width="24" height="24" viewBox="0 0 24 24" fill="none" xmlns="http://www.w3.org/2000/svg"><path d="M13.620 3.823 C 12.683 3.968,11.736 4.374,10.983 4.953 C 10.553 5.284,9.688 6.154,9.638 6.306 C 9.539 6.606,9.604 6.911,9.811 7.110 C 9.970 7.264,10.112 7.320,10.345 7.320 C 10.605 7.320,10.728 7.241,11.240 6.743 C 11.818 6.181,12.163 5.920,12.620 5.698 C 14.267 4.900,16.215 5.221,17.497 6.503 C 18.781 7.787,19.102 9.751,18.296 11.387 C 18.066 11.855,17.816 12.185,17.257 12.760 C 16.759 13.272,16.680 13.395,16.680 13.655 C 16.680 13.888,16.736 14.030,16.890 14.189 C 17.089 14.396,17.394 14.461,17.696 14.361 C 17.873 14.303,18.837 13.315,19.173 12.847 C 19.608 12.242,19.970 11.414,20.139 10.640 C 20.230 10.226,20.263 9.249,20.202 8.789 C 20.033 7.511,19.468 6.354,18.581 5.467 C 17.454 4.341,16.034 3.754,14.460 3.765 C 14.196 3.766,13.818 3.793,13.620 3.823 M6.248 9.667 C 6.069 9.755,5.114 10.754,4.827 11.154 C 4.392 11.758,4.030 12.584,3.860 13.360 C 3.770 13.772,3.736 14.801,3.798 15.236 C 4.175 17.865,6.175 19.856,8.789 20.202 C 9.249 20.263,10.226 20.230,10.640 20.139 C 11.414 19.970,12.241 19.608,12.847 19.173 C 13.026 19.045,13.432 18.688,13.750 18.380 C 14.274 17.872,14.333 17.802,14.378 17.622 C 14.500 17.139,14.208 16.723,13.723 16.688 C 13.405 16.665,13.314 16.721,12.691 17.322 C 12.127 17.866,11.792 18.114,11.316 18.338 C 9.665 19.115,7.732 18.760,6.448 17.443 C 5.216 16.181,4.912 14.224,5.697 12.620 C 5.923 12.160,6.185 11.814,6.743 11.240 C 7.241 10.728,7.320 10.605,7.320 10.345 C 7.320 9.898,7.018 9.599,6.571 9.601 C 6.466 9.601,6.321 9.631,6.248 9.667 M13.340 9.666 C 13.162 9.758,9.722 13.198,9.656 13.349 C 9.590 13.501,9.583 13.790,9.643 13.947 C 9.700 14.101,9.873 14.278,10.029 14.345 C 10.182 14.410,10.470 14.417,10.627 14.358 C 10.771 14.304,14.259 10.824,14.340 10.655 C 14.410 10.507,14.418 10.214,14.357 10.053 C 14.300 9.899,14.127 9.722,13.971 9.655 C 13.802 9.582,13.490 9.588,13.340 9.666 " stroke="none" fill-rule="evenodd" fill="black"></path></svg>