<svg width="24" height="24" viewBox="0 0 24 24" fill="none" xmlns="http://www.w3.org/2000/svg">
<path fill-rule="evenodd" clip-rule="evenodd" d="M12.0001 4C12.4143 4 12.7501 4.33579 12.7501 4.75V5.03971C16.017 5.38769 18.6124 7.98308 18.9604 11.25H19.25C19.6642 11.25 20 11.5858 20 12C20 12.4142 19.6642 12.75 19.25 12.75H18.9604C18.6124 16.0169 16.017 18.6123 12.7501 18.9603V19.25C12.7501 19.6642 12.4143 20 12.0001 20C11.5858 20 11.2501 19.6642 11.2501 19.25V18.9603C7.98314 18.6123 5.38775 16.0169 5.03977 12.75H4.75C4.33579 12.75 4 12.4142 4 12C4 11.5858 4.33579 11.25 4.75 11.25H5.03977C5.38775 7.98308 7.98314 5.38769 11.2501 5.03971V4.75C11.2501 4.33579 11.5858 4 12.0001 4ZM6.55077 12.75H9.25C9.66421 12.75 10 12.4142 10 12C10 11.5858 9.66421 11.25 9.25 11.25H6.55077C6.88313 8.81246 8.81252 6.88307 11.2501 6.55071V9.25C11.2501 9.66421 11.5858 10 12.0001 10C12.4143 10 12.7501 9.66421 12.7501 9.25V6.55071C15.1876 6.88307 17.117 8.81246 17.4494 11.25H14.75C14.3358 11.25 14 11.5858 14 12C14 12.4142 14.3358 12.75 14.75 12.75H17.4494C17.117 15.1875 15.1876 17.1169 12.7501 17.4493V14.75C12.7501 14.3358 12.4143 14 12.0001 14C11.5858 14 11.2501 14.3358 11.2501 14.75V17.4493C8.81252 17.1169 6.88313 15.1875 6.55077 12.75Z" fill="black"/>
</svg>
