<svg width="24" height="24" viewBox="0 0 24 24" fill="none" xmlns="http://www.w3.org/2000/svg">
<path d="M18.8684 15.739C18.4934 16.5719 18.3127 16.9442 17.8304 17.6792C17.1551 18.7064 16.2027 19.989 15.0261 19.9972C13.9785 20.0067 13.7081 19.3137 12.2856 19.326C10.8644 19.3328 10.5682 20.0107 9.51932 19.9999C8.34135 19.989 7.44054 18.8341 6.76527 17.8083C4.8767 14.932 4.67697 11.5597 5.84408 9.76626C6.67016 8.49453 7.97586 7.74725 9.20275 7.74725C10.4527 7.74725 11.2381 8.43339 12.2707 8.43339C13.2734 8.43339 13.8834 7.74589 15.3291 7.74589C16.4214 7.74589 17.5763 8.341 18.4024 9.36816C15.7013 10.8491 16.1402 14.7064 18.8684 15.739ZM14.2312 6.59781C14.7571 5.92254 15.1565 4.9701 15.0111 4C14.1538 4.05842 13.1511 4.60597 12.5655 5.31521C12.0343 5.96194 11.594 6.92117 11.7652 7.84915C12.7014 7.87905 13.6701 7.32063 14.2312 6.59781Z" fill="black"/>
</svg>
