<svg width="24" height="24" viewBox="0 0 24 24" fill="none" xmlns="http://www.w3.org/2000/svg"><path d="M11.552 3.023 C 11.449 3.055,11.251 3.157,11.112 3.251 C 10.781 3.473,4.982 8.225,4.797 8.425 C 4.612 8.626,4.549 8.732,4.456 9.000 C 4.383 9.211,4.380 9.400,4.380 13.760 C 4.380 18.121,4.383 18.309,4.456 18.520 C 4.638 19.046,4.987 19.388,5.505 19.548 C 5.728 19.616,6.069 19.620,12.000 19.620 C 17.931 19.620,18.272 19.616,18.495 19.548 C 19.024 19.384,19.384 19.024,19.548 18.495 C 19.616 18.274,19.620 17.991,19.620 13.740 C 19.620 9.400,19.617 9.211,19.544 9.000 C 19.451 8.732,19.388 8.626,19.203 8.425 C 19.018 8.225,13.219 3.474,12.889 3.251 C 12.750 3.158,12.544 3.055,12.431 3.021 C 12.177 2.946,11.801 2.947,11.552 3.023 M15.060 6.931 L 18.100 9.420 18.100 13.760 L 18.100 18.100 12.000 18.100 L 5.900 18.100 5.900 13.760 L 5.900 9.420 8.940 6.931 C 10.612 5.561,11.989 4.441,12.000 4.441 C 12.011 4.441,13.388 5.561,15.060 6.931 " stroke="none" fill-rule="evenodd" fill="black"></path></svg>