<svg width="24" height="24" viewBox="0 0 24 24" fill="none" xmlns="http://www.w3.org/2000/svg"><path d="M6.318 3.618 C 5.733 3.834,5.347 4.272,5.241 4.835 C 5.185 5.132,5.185 18.868,5.241 19.165 C 5.350 19.747,5.798 20.233,6.380 20.402 C 6.680 20.489,17.320 20.489,17.620 20.402 C 18.202 20.233,18.650 19.747,18.759 19.165 C 18.815 18.870,18.815 10.050,18.759 9.755 C 18.671 9.289,18.680 9.298,15.826 6.452 C 13.475 4.106,13.113 3.761,12.920 3.676 L 12.700 3.580 9.580 3.572 C 7.081 3.566,6.432 3.575,6.318 3.618 M11.880 7.073 C 11.880 9.338,11.881 9.347,12.152 9.756 C 12.231 9.874,12.402 10.050,12.532 10.145 C 12.957 10.459,12.917 10.454,15.230 10.471 L 17.280 10.485 17.270 14.713 L 17.260 18.940 12.000 18.940 L 6.740 18.940 6.730 12.040 C 6.724 8.245,6.728 5.117,6.738 5.090 C 6.753 5.051,7.307 5.040,9.319 5.040 L 11.880 5.040 11.880 7.073 M14.820 7.560 L 16.220 8.960 14.810 8.960 L 13.400 8.960 13.400 7.560 C 13.400 6.790,13.405 6.160,13.410 6.160 C 13.416 6.160,14.050 6.790,14.820 7.560 " stroke="none" fill-rule="evenodd" fill="black"></path></svg>