<svg width="24" height="24" viewBox="0 0 24 24" fill="none" xmlns="http://www.w3.org/2000/svg">
<path fill-rule="evenodd" clip-rule="evenodd" d="M4.78456 5.73204C5.23081 4.7503 6.20968 4.12 7.28807 4.12H16.7124C17.7908 4.12 18.7697 4.7503 19.2159 5.73203L19.7538 6.91525C19.7933 7.00223 19.8282 7.09102 19.8583 7.18125C19.9475 7.30462 20 7.45617 20 7.62C20 7.69723 19.9977 7.77483 19.9929 7.85259C19.9978 7.91925 20.0002 7.98616 20.0002 8.05321V17.1202C20.0002 18.639 18.769 19.8702 17.2502 19.8702H6.75024C5.23146 19.8702 4.00024 18.639 4.00024 17.1202V8.05321C4.00024 7.9874 4.00261 7.92171 4.00731 7.85627C4.00242 7.77728 4 7.69844 4 7.62C4 7.45561 4.05288 7.30358 4.14257 7.17999C4.17264 7.09019 4.20739 7.00183 4.24674 6.91525L4.78456 5.73204ZM18.4867 7.86962C18.4453 8.25502 18.3091 8.60792 18.1014 8.86802C17.8648 9.16435 17.5157 9.37 17 9.37C15.9634 9.37 15.25 8.49943 15.25 7.62C15.25 7.20578 14.9142 6.87 14.5 6.87C14.0858 6.87 13.75 7.20578 13.75 7.62C13.75 8.49943 13.0366 9.37 12 9.37C10.9634 9.37 10.25 8.49943 10.25 7.62C10.25 7.20578 9.91421 6.87 9.5 6.87C9.08579 6.87 8.75 7.20578 8.75 7.62C8.75 8.49943 8.03656 9.37 7 9.37C6.48429 9.37 6.1352 9.16435 5.8986 8.86802C5.69127 8.60835 5.55515 8.2562 5.51352 7.87154C5.5305 7.7559 5.56367 7.64291 5.61229 7.53596L6.15011 6.35274C6.35295 5.9065 6.79789 5.62 7.28807 5.62H16.7124C17.2026 5.62 17.6475 5.9065 17.8504 6.35274L18.3882 7.53596C18.4366 7.64232 18.4696 7.75465 18.4867 7.86962ZM14.5 9.68761C15.0694 10.3864 15.9352 10.87 17 10.87C17.5747 10.87 18.0784 10.7258 18.5002 10.4777V17.1202C18.5002 17.8106 17.9406 18.3702 17.2502 18.3702H14.9996V15.6193C14.9996 14.1005 13.7684 12.8693 12.2496 12.8693H11.7496C10.2309 12.8693 8.99963 14.1005 8.99963 15.6193V18.3702H6.75024C6.05989 18.3702 5.50024 17.8106 5.50024 17.1202V10.478C5.922 10.7259 6.42551 10.87 7 10.87C8.06484 10.87 8.93059 10.3864 9.5 9.68761C10.0694 10.3864 10.9352 10.87 12 10.87C13.0648 10.87 13.9306 10.3864 14.5 9.68761ZM10.4996 15.6193C10.4996 14.9289 11.0593 14.3693 11.7496 14.3693H12.2496C12.94 14.3693 13.4996 14.9289 13.4996 15.6193V18.3693H10.4996V15.6193Z" fill="black"/>
</svg>
