<svg width="24" height="24" viewBox="0 0 24 24" fill="none" xmlns="http://www.w3.org/2000/svg"><path d="M11.240 3.785 C 9.760 3.964,8.565 4.383,7.480 5.103 C 5.126 6.666,3.760 9.198,3.760 12.000 C 3.760 13.842,4.328 15.531,5.445 17.009 C 5.766 17.434,6.566 18.234,6.991 18.555 C 9.747 20.636,13.444 20.811,16.366 18.999 C 17.371 18.375,18.375 17.371,18.999 16.366 C 19.824 15.036,20.240 13.571,20.240 12.000 C 20.240 7.946,17.345 4.540,13.320 3.858 C 12.955 3.796,11.553 3.747,11.240 3.785 M12.920 5.326 C 14.753 5.551,16.547 6.665,17.583 8.223 C 18.364 9.397,18.728 10.597,18.728 12.000 C 18.728 13.135,18.490 14.138,17.998 15.075 C 16.956 17.060,15.162 18.340,12.940 18.683 C 12.528 18.747,11.472 18.747,11.060 18.683 C 9.936 18.509,8.846 18.066,8.020 17.445 C 6.521 16.319,5.576 14.736,5.320 12.920 C 5.258 12.483,5.258 11.517,5.320 11.080 C 5.804 7.646,8.806 5.125,12.240 5.270 C 12.427 5.278,12.733 5.303,12.920 5.326 M14.270 9.208 C 14.066 9.262,13.993 9.344,12.299 11.420 C 11.491 12.410,10.797 13.256,10.755 13.299 C 10.680 13.378,10.673 13.372,10.090 12.791 C 9.491 12.194,9.326 12.079,9.071 12.081 C 8.768 12.083,8.444 12.334,8.362 12.631 C 8.309 12.820,8.310 12.855,8.367 13.055 C 8.406 13.190,8.577 13.384,9.317 14.133 C 9.814 14.636,10.297 15.092,10.392 15.148 C 10.537 15.234,10.599 15.247,10.802 15.232 C 10.956 15.221,11.080 15.186,11.151 15.135 C 11.309 15.019,15.150 10.322,15.199 10.184 C 15.333 9.804,15.159 9.412,14.780 9.236 C 14.604 9.154,14.495 9.148,14.270 9.208 " stroke="none" fill-rule="evenodd" fill="black"></path></svg>