<svg width="24" height="24" viewBox="0 0 24 24" fill="none" xmlns="http://www.w3.org/2000/svg"><path d="M11.680 5.915 C 11.445 5.993,11.161 6.167,10.991 6.339 C 10.836 6.497,10.451 7.227,8.381 11.289 C 5.750 16.452,5.802 16.338,5.879 16.816 C 6.019 17.674,6.786 18.242,7.632 18.112 C 8.200 18.026,8.546 17.721,8.931 16.969 C 12.257 10.472,13.530 7.931,13.582 7.683 C 13.724 7.003,13.366 6.307,12.720 6.006 C 12.544 5.924,12.427 5.902,12.140 5.893 C 11.942 5.887,11.735 5.897,11.680 5.915 M14.289 10.644 C 13.907 10.709,13.539 10.942,13.324 11.255 C 13.262 11.346,12.686 12.448,12.045 13.705 C 10.759 16.227,10.713 16.339,10.790 16.789 C 10.906 17.468,11.392 17.962,12.069 18.087 C 12.521 18.172,13.043 17.995,13.393 17.639 C 13.556 17.474,13.764 17.092,14.789 15.073 C 15.452 13.768,16.015 12.626,16.041 12.536 C 16.068 12.446,16.082 12.230,16.075 12.055 C 16.063 11.797,16.036 11.690,15.930 11.474 C 15.632 10.868,14.962 10.529,14.289 10.644 M16.460 15.150 C 16.053 15.296,15.732 15.591,15.549 15.987 C 15.475 16.148,15.460 16.250,15.460 16.600 C 15.460 16.982,15.470 17.040,15.573 17.240 C 15.729 17.545,16.041 17.851,16.336 17.987 C 16.549 18.086,16.627 18.100,16.960 18.100 C 17.289 18.100,17.371 18.086,17.570 17.992 C 17.892 17.841,18.204 17.534,18.345 17.229 C 18.447 17.007,18.460 16.936,18.460 16.580 C 18.460 16.219,18.449 16.157,18.343 15.941 C 18.194 15.637,17.924 15.367,17.622 15.219 C 17.314 15.068,16.776 15.036,16.460 15.150 " stroke="none" fill="black" fill-rule="evenodd"></path></svg>