<svg width="24" height="24" viewBox="0 0 24 24" fill="none" xmlns="http://www.w3.org/2000/svg"><path d="M4.856 4.657 C 4.588 4.741,4.242 4.997,4.057 5.249 C 3.738 5.682,3.758 5.265,3.769 11.248 L 3.780 16.580 3.885 16.805 C 4.098 17.258,4.523 17.602,4.992 17.702 C 5.198 17.745,5.634 17.759,6.870 17.759 C 7.964 17.760,8.480 17.773,8.480 17.802 C 8.480 17.825,8.354 18.283,8.200 18.820 C 8.046 19.357,7.920 19.861,7.920 19.940 C 7.920 20.352,8.381 20.740,8.773 20.659 C 8.992 20.613,9.235 20.447,9.314 20.288 C 9.354 20.207,9.539 19.605,9.724 18.950 L 10.060 17.760 12.000 17.760 L 13.940 17.760 14.276 18.950 C 14.461 19.605,14.646 20.207,14.686 20.288 C 14.765 20.447,15.008 20.613,15.227 20.659 C 15.619 20.740,16.080 20.352,16.080 19.940 C 16.080 19.861,15.954 19.357,15.800 18.820 C 15.646 18.283,15.520 17.825,15.520 17.802 C 15.520 17.773,16.036 17.760,17.130 17.759 C 18.366 17.759,18.802 17.745,19.008 17.702 C 19.477 17.602,19.902 17.258,20.115 16.805 L 20.220 16.580 20.231 11.248 C 20.242 5.265,20.262 5.682,19.943 5.249 C 19.752 4.989,19.409 4.739,19.129 4.655 C 18.868 4.576,5.106 4.578,4.856 4.657 M18.740 11.160 L 18.740 16.220 12.000 16.220 L 5.260 16.220 5.250 11.200 C 5.244 8.439,5.248 6.157,5.258 6.130 C 5.274 6.090,6.645 6.082,12.009 6.090 L 18.740 6.100 18.740 11.160 M11.700 7.986 C 11.514 8.084,11.396 8.205,11.316 8.380 C 11.246 8.530,11.242 8.698,11.241 11.144 C 11.240 13.017,11.253 13.786,11.286 13.884 C 11.397 14.208,11.662 14.400,12.000 14.400 C 12.338 14.400,12.603 14.208,12.714 13.884 C 12.747 13.786,12.760 13.017,12.760 11.153 C 12.760 8.351,12.763 8.397,12.548 8.167 C 12.333 7.936,11.950 7.855,11.700 7.986 M15.020 10.487 C 14.891 10.558,14.718 10.731,14.646 10.860 C 14.589 10.963,14.578 11.159,14.567 12.270 C 14.552 13.752,14.572 13.925,14.786 14.162 C 15.140 14.553,15.795 14.453,16.007 13.974 C 16.079 13.811,16.083 13.710,16.072 12.347 L 16.060 10.894 15.945 10.743 C 15.772 10.516,15.620 10.440,15.340 10.441 C 15.208 10.442,15.064 10.462,15.020 10.487 M8.380 12.153 C 8.193 12.243,8.023 12.414,7.963 12.573 C 7.939 12.635,7.920 12.941,7.921 13.253 C 7.922 13.906,7.971 14.073,8.219 14.262 C 8.390 14.393,8.706 14.437,8.933 14.362 C 9.153 14.290,9.344 14.050,9.401 13.774 C 9.476 13.414,9.434 12.703,9.325 12.490 C 9.153 12.153,8.711 11.995,8.380 12.153 " stroke="none" fill-rule="evenodd" fill="black"></path></svg>