<svg width="24" height="24" viewBox="0 0 24 24" fill="none" xmlns="http://www.w3.org/2000/svg">
<path fill-rule="evenodd" clip-rule="evenodd" d="M11.749 3.66669C9.87184 3.66669 8.14662 3.91699 6.86917 4.33876C6.23378 4.54855 5.67443 4.812 5.26097 5.13475C4.85523 5.45147 4.5 5.90057 4.5 6.47871V10.19V13.8075V17.8513C4.5 18.4294 4.85524 18.8785 5.26097 19.1952C5.67443 19.518 6.23379 19.7814 6.86917 19.9912C8.14662 20.413 9.87184 20.6633 11.749 20.6633C12.2203 20.6633 12.682 20.6475 13.1295 20.6172C12.7884 20.2599 12.4997 19.8521 12.2757 19.4063C12.1022 19.4109 11.9266 19.4133 11.749 19.4133C9.96781 19.4133 8.38104 19.174 7.26107 18.8042C6.69775 18.6182 6.28704 18.4104 6.03012 18.2099C5.76546 18.0033 5.75 17.8771 5.75 17.8513V15.4712C6.07859 15.6534 6.45796 15.8117 6.86918 15.9474C8.14662 16.3692 9.87184 16.6195 11.749 16.6195C11.758 16.6195 11.767 16.6195 11.7759 16.6195C11.8234 16.1825 11.9271 15.7625 12.0797 15.3667C11.9702 15.3685 11.86 15.3695 11.749 15.3695C9.9678 15.3695 8.38103 15.1302 7.26107 14.7604C6.69775 14.5745 6.28704 14.3667 6.03012 14.1661C5.76548 13.9595 5.75 13.8333 5.75 13.8075V11.8537C6.07859 12.0359 6.45796 12.1942 6.86918 12.33C8.14662 12.7517 9.87184 13.002 11.749 13.002C12.6141 13.002 13.447 12.9488 14.2187 12.8502C14.9604 12.4148 15.8243 12.1651 16.7465 12.1651C16.8515 12.1651 16.9558 12.1683 17.0592 12.1747C17.3063 12.0773 17.5375 11.9704 17.748 11.8537V12.2654C18.1884 12.355 18.6079 12.5024 18.998 12.6995V10.19V6.47871C18.998 5.90057 18.6427 5.45147 18.237 5.13475C17.8235 4.812 17.2642 4.54855 16.6288 4.33876C15.3514 3.91699 13.6261 3.66669 11.749 3.66669ZM5.75 10.19V8.14239C6.07858 8.32464 6.45795 8.48289 6.86917 8.61866C8.14662 9.04044 9.87184 9.29074 11.749 9.29074C13.6261 9.29074 15.3514 9.04044 16.6288 8.61866C17.04 8.48289 17.4194 8.32464 17.748 8.14239V10.19C17.748 10.2158 17.7325 10.3421 17.4678 10.5486C17.2109 10.7492 16.8002 10.957 16.2369 11.143C15.117 11.5127 13.5302 11.752 11.749 11.752C9.9678 11.752 8.38103 11.5127 7.26107 11.143C6.69775 10.957 6.28704 10.7492 6.03012 10.5486C5.76548 10.3421 5.75 10.2158 5.75 10.19ZM17.4678 6.83733C17.7325 6.63075 17.748 6.50451 17.748 6.47871C17.748 6.45292 17.7325 6.32668 17.4678 6.12009C17.2109 5.91954 16.8002 5.71173 16.2369 5.52574C15.117 5.15596 13.5302 4.91669 11.749 4.91669C9.96781 4.91669 8.38104 5.15596 7.26107 5.52574C6.69775 5.71173 6.28705 5.91954 6.03012 6.12009C5.76547 6.32668 5.75 6.45292 5.75 6.47871C5.75 6.5045 5.76547 6.63075 6.03013 6.83733C6.28705 7.03789 6.69775 7.2457 7.26107 7.43169C8.38104 7.80146 9.96781 8.04074 11.749 8.04074C13.5302 8.04074 15.117 7.80146 16.2369 7.43169C16.8002 7.2457 17.2109 7.03789 17.4678 6.83733Z" fill="black"/>
<path d="M18.6 15.9151C18.6 15.9151 17.2697 17.3565 16.6049 19.0185L15.4966 17.6882" stroke="black" stroke-width="1.5" stroke-linecap="round" stroke-linejoin="round"/>
</svg>
