<svg width="24" height="24" viewBox="0 0 24 24" fill="none" xmlns="http://www.w3.org/2000/svg"><path d="M10.973 3.604 C 8.468 3.896,6.120 5.404,4.794 7.572 C 4.346 8.304,3.956 9.251,3.765 10.068 C 3.479 11.289,3.479 12.711,3.765 13.932 C 4.489 17.030,6.970 19.511,10.068 20.235 C 11.289 20.521,12.711 20.521,13.932 20.235 C 16.368 19.666,18.473 17.990,19.580 15.740 C 20.170 14.541,20.443 13.370,20.445 12.039 C 20.446 10.861,20.266 9.916,19.834 8.827 C 19.566 8.150,19.263 7.612,18.786 6.960 C 18.455 6.508,17.546 5.590,17.106 5.263 C 15.872 4.345,14.420 3.766,12.940 3.601 C 12.520 3.554,11.387 3.556,10.973 3.604 M12.888 5.101 C 12.940 5.121,12.895 5.341,12.592 6.552 C 12.396 7.338,12.214 8.001,12.188 8.026 C 12.161 8.052,11.555 8.219,10.840 8.399 C 10.125 8.578,9.464 8.761,9.371 8.806 C 9.070 8.949,8.824 9.210,8.623 9.598 C 8.521 9.795,8.422 9.967,8.401 9.979 C 8.367 10.001,6.120 8.345,6.120 8.298 C 6.120 8.255,6.442 7.802,6.650 7.552 C 7.111 6.996,7.652 6.523,8.276 6.130 C 9.271 5.502,10.100 5.223,11.440 5.064 C 11.630 5.041,12.811 5.071,12.888 5.101 M14.767 5.620 C 15.995 6.138,17.173 7.157,17.909 8.340 C 19.417 10.759,19.265 13.932,17.533 16.212 C 17.259 16.574,16.668 17.171,16.298 17.461 C 15.345 18.210,14.243 18.688,13.020 18.886 C 12.607 18.952,11.392 18.952,10.980 18.886 C 8.609 18.503,6.608 16.982,5.658 14.841 C 5.238 13.893,5.073 13.091,5.068 11.980 C 5.064 11.237,5.108 10.874,5.282 10.191 C 5.434 9.599,5.290 9.566,6.485 10.464 C 7.060 10.896,7.632 11.297,7.756 11.355 C 7.951 11.447,8.031 11.460,8.380 11.459 C 8.743 11.459,8.804 11.448,9.040 11.336 C 9.382 11.174,9.638 10.908,9.850 10.494 C 9.987 10.225,10.043 10.153,10.140 10.122 C 10.206 10.100,10.806 9.947,11.474 9.780 C 12.141 9.614,12.773 9.434,12.879 9.381 C 13.142 9.247,13.431 8.947,13.561 8.671 C 13.623 8.541,13.831 7.798,14.040 6.960 C 14.243 6.146,14.415 5.480,14.422 5.480 C 14.428 5.480,14.584 5.543,14.767 5.620 M11.018 12.119 C 10.586 12.292,10.070 12.823,9.920 13.251 C 9.810 13.563,9.812 14.003,9.925 14.304 C 10.023 14.565,11.121 16.238,11.335 16.453 C 11.522 16.639,11.765 16.778,12.049 16.859 C 12.240 16.914,12.444 16.923,13.309 16.912 C 14.535 16.896,14.635 16.871,15.055 16.479 C 15.271 16.277,15.338 16.175,15.562 15.713 L 15.819 15.180 15.818 14.800 C 15.816 14.034,15.643 13.809,14.406 12.974 C 13.055 12.063,13.126 12.089,11.963 12.058 C 11.284 12.039,11.203 12.045,11.018 12.119 M12.166 13.558 L 12.633 13.594 13.426 14.122 C 13.863 14.413,14.251 14.677,14.288 14.710 C 14.352 14.765,14.346 14.790,14.198 15.084 C 14.087 15.305,14.013 15.405,13.950 15.421 C 13.900 15.433,13.536 15.438,13.140 15.431 L 12.420 15.420 11.863 14.590 L 11.306 13.759 11.420 13.640 C 11.549 13.506,11.525 13.508,12.166 13.558 " stroke="none" fill-rule="evenodd" fill="black"></path></svg>