<svg width="24" height="24" viewBox="0 0 24 24" fill="none" xmlns="http://www.w3.org/2000/svg">
<path d="M12.625 8.8751L12.1831 8.43315C12.0658 8.55036 12 8.70934 12 8.8751H12.625ZM12.625 11.3751H12C12 11.7203 12.2798 12.0001 12.625 12.0001V11.3751ZM15.125 11.3751V12.0001C15.2908 12.0001 15.4498 11.9343 15.5669 11.817L15.125 11.3751ZM11.375 5.7501C11.7202 5.7501 12 5.47028 12 5.1251C12 4.77992 11.7202 4.5001 11.375 4.5001V5.7501ZM19.5 12.6251C19.5 12.2799 19.2202 12.0001 18.875 12.0001C18.5298 12.0001 18.25 12.2799 18.25 12.6251H19.5ZM12 8.8751V11.3751H13.25V8.8751H12ZM12.625 12.0001H15.125V10.7501H12.625V12.0001ZM13.0669 9.31704L17.4777 4.9063L16.5938 4.02241L12.1831 8.43315L13.0669 9.31704ZM17.7723 4.9063L19.0938 6.22779L19.9777 5.3439L18.6562 4.02241L17.7723 4.9063ZM19.0938 6.52241L14.6831 10.9332L15.5669 11.817L19.9777 7.4063L19.0938 6.52241ZM19.0938 6.22779C19.1752 6.30915 19.1752 6.44105 19.0938 6.52241L19.9777 7.4063C20.5472 6.83678 20.5472 5.91341 19.9777 5.3439L19.0938 6.22779ZM17.4777 4.9063C17.5591 4.82494 17.6909 4.82494 17.7723 4.9063L18.6562 4.02241C18.0867 3.4529 17.1633 3.4529 16.5938 4.02241L17.4777 4.9063ZM17.5417 18.2501H6.45834V19.5001H17.5417V18.2501ZM5.75 17.5418V6.45843H4.5V17.5418H5.75ZM6.45834 5.7501H11.375V4.5001H6.45834V5.7501ZM18.25 12.6251V17.5418H19.5V12.6251H18.25ZM6.45834 18.2501C6.21467 18.2501 6.0695 18.2496 5.9619 18.2409C5.86159 18.2326 5.85009 18.2204 5.86375 18.2274L5.29627 19.3412C5.48819 19.4389 5.6825 19.4722 5.86011 19.4867C6.03043 19.5006 6.23529 19.5001 6.45834 19.5001V18.2501ZM4.5 17.5418C4.5 17.7648 4.49952 17.9697 4.51344 18.14C4.52794 18.3176 4.56116 18.5119 4.65895 18.7039L5.77271 18.1364C5.77967 18.15 5.76748 18.1385 5.75928 18.0382C5.75049 17.9306 5.75 17.7854 5.75 17.5418H4.5ZM5.86375 18.2274C5.82455 18.2074 5.79269 18.1755 5.77271 18.1364L4.65895 18.7039C4.79877 18.9783 5.02186 19.2014 5.29627 19.3412L5.86375 18.2274ZM17.5417 19.5001C17.7648 19.5001 17.9696 19.5006 18.1399 19.4867C18.3175 19.4722 18.5118 19.4389 18.7038 19.3412L18.1363 18.2274C18.1499 18.2204 18.1384 18.2326 18.0381 18.2409C17.9305 18.2496 17.7853 18.2501 17.5417 18.2501V19.5001ZM18.25 17.5418C18.25 17.7854 18.2495 17.9306 18.2407 18.0382C18.2325 18.1385 18.2203 18.15 18.2273 18.1364L19.3411 18.7039C19.4388 18.5119 19.4721 18.3176 19.4866 18.14C19.5005 17.9697 19.5 17.7648 19.5 17.5418H18.25ZM18.7038 19.3412C18.9782 19.2014 19.2012 18.9783 19.3411 18.7039L18.2273 18.1364C18.2073 18.1755 18.1754 18.2074 18.1363 18.2274L18.7038 19.3412ZM5.75 6.45843C5.75 6.21476 5.75049 6.0696 5.75928 5.962C5.76748 5.86169 5.77967 5.85019 5.77271 5.86385L4.65895 5.29636C4.56116 5.48829 4.52794 5.6826 4.51344 5.8602C4.49952 6.03052 4.5 6.23539 4.5 6.45843H5.75ZM6.45834 4.5001C6.23529 4.5001 6.03043 4.49961 5.86011 4.51353C5.6825 4.52804 5.48819 4.56125 5.29627 4.65905L5.86375 5.7728C5.85009 5.77977 5.86159 5.76757 5.9619 5.75938C6.0695 5.75059 6.21467 5.7501 6.45834 5.7501V4.5001ZM5.77271 5.86385C5.79269 5.82465 5.82455 5.79278 5.86375 5.7728L5.29627 4.65905C5.02186 4.79886 4.79877 5.02196 4.65895 5.29636L5.77271 5.86385Z" fill="black"/>
</svg>
