<svg width="24" height="24" viewBox="0 0 24 24" fill="none" xmlns="http://www.w3.org/2000/svg"><path d="M10.842 3.625 C 8.088 3.999,5.651 5.758,4.420 8.260 C 3.823 9.474,3.555 10.633,3.555 12.000 C 3.555 13.367,3.823 14.526,4.420 15.740 C 5.528 17.992,7.629 19.665,10.068 20.235 C 11.289 20.521,12.711 20.521,13.932 20.235 C 16.368 19.666,18.473 17.990,19.580 15.740 C 19.992 14.903,20.250 14.064,20.383 13.132 C 20.464 12.565,20.464 11.435,20.383 10.868 C 20.030 8.395,18.682 6.273,16.600 4.911 C 15.563 4.233,14.346 3.783,13.108 3.622 C 12.525 3.546,11.415 3.547,10.842 3.625 M13.140 5.146 C 15.063 5.444,16.865 6.655,17.923 8.361 C 18.380 9.097,18.712 9.996,18.864 10.904 C 18.954 11.440,18.954 12.560,18.864 13.096 C 18.527 15.109,17.367 16.851,15.657 17.912 C 14.869 18.400,13.970 18.732,13.020 18.886 C 12.607 18.952,11.392 18.952,10.980 18.886 C 8.609 18.503,6.608 16.982,5.658 14.841 C 5.427 14.320,5.216 13.618,5.135 13.106 C 5.049 12.564,5.049 11.436,5.135 10.894 C 5.494 8.618,7.050 6.594,9.159 5.658 C 9.883 5.337,10.754 5.119,11.520 5.065 C 11.889 5.040,12.718 5.081,13.140 5.146 M11.613 6.661 C 11.339 6.825,11.264 6.990,11.246 7.464 L 11.231 7.869 11.006 7.919 C 10.162 8.106,9.378 8.816,9.176 9.575 C 9.105 9.839,9.105 10.404,9.176 10.660 C 9.298 11.102,9.461 11.373,9.805 11.709 C 10.177 12.071,10.305 12.135,12.039 12.823 C 12.827 13.136,12.960 13.202,13.125 13.360 C 13.463 13.685,13.461 14.026,13.121 14.331 C 12.885 14.542,12.628 14.640,12.232 14.669 C 11.622 14.713,11.214 14.570,10.783 14.163 C 10.459 13.856,10.380 13.822,10.058 13.849 C 9.689 13.879,9.446 14.133,9.408 14.527 C 9.383 14.789,9.499 15.009,9.831 15.327 C 10.150 15.634,10.492 15.842,10.920 15.990 L 11.232 16.097 11.246 16.522 C 11.259 16.905,11.272 16.963,11.370 17.113 C 11.590 17.445,12.031 17.547,12.375 17.345 C 12.659 17.179,12.736 17.014,12.754 16.539 L 12.768 16.138 13.125 16.025 C 13.570 15.884,13.976 15.624,14.310 15.265 C 14.711 14.835,14.880 14.412,14.880 13.842 C 14.878 13.029,14.440 12.333,13.651 11.890 C 13.524 11.819,12.889 11.549,12.240 11.290 C 11.178 10.866,11.043 10.802,10.874 10.640 C 10.531 10.309,10.526 9.942,10.863 9.646 C 11.088 9.447,11.326 9.363,11.747 9.332 C 12.367 9.287,12.809 9.439,13.220 9.838 C 13.517 10.127,13.603 10.171,13.859 10.171 C 14.414 10.171,14.762 9.601,14.517 9.094 C 14.328 8.703,13.593 8.164,12.994 7.978 L 12.768 7.908 12.754 7.484 C 12.741 7.126,12.725 7.037,12.646 6.910 C 12.436 6.570,11.957 6.455,11.613 6.661 " stroke="none" fill-rule="evenodd" fill="black"></path></svg>