<svg width="24" height="24" viewBox="0 0 24 24" fill="none" xmlns="http://www.w3.org/2000/svg"><path d="M10.880 4.460 C 9.427 4.677,8.224 5.262,7.030 6.329 L 6.720 6.606 6.717 5.913 C 6.713 5.058,6.673 4.929,6.344 4.706 C 6.025 4.489,5.527 4.607,5.313 4.950 L 5.220 5.100 5.220 6.820 C 5.220 8.487,5.223 8.546,5.304 8.720 C 5.420 8.966,5.651 9.191,5.917 9.316 L 6.140 9.420 7.645 9.433 C 9.286 9.447,9.525 9.427,9.751 9.255 C 10.152 8.948,10.120 8.334,9.687 8.036 C 9.550 7.942,9.521 7.940,8.545 7.920 L 7.544 7.900 7.923 7.549 C 9.321 6.251,10.857 5.725,12.672 5.922 C 14.139 6.082,15.401 6.705,16.441 7.785 C 17.320 8.698,17.883 9.854,18.077 11.148 C 18.132 11.518,18.132 12.482,18.077 12.852 C 17.881 14.155,17.323 15.296,16.426 16.229 C 15.426 17.268,14.187 17.889,12.729 18.082 C 11.893 18.193,10.734 18.060,9.917 17.759 C 8.668 17.298,7.549 16.395,6.858 15.287 C 6.639 14.937,6.547 14.753,6.229 14.036 C 6.063 13.661,5.751 13.500,5.340 13.577 C 5.154 13.612,4.898 13.843,4.836 14.032 C 4.743 14.315,4.801 14.553,5.153 15.320 C 5.692 16.497,6.673 17.604,7.883 18.401 C 9.787 19.654,12.229 19.965,14.418 19.234 C 16.035 18.694,17.417 17.635,18.379 16.200 C 18.684 15.745,19.087 14.916,19.255 14.400 C 19.968 12.207,19.686 9.892,18.469 7.940 C 17.320 6.097,15.316 4.789,13.138 4.460 C 12.650 4.387,11.368 4.387,10.880 4.460 " stroke="none" fill-rule="evenodd" fill="black"></path></svg>