<svg width="24" height="24" viewBox="0 0 24 24" fill="none" xmlns="http://www.w3.org/2000/svg">
<path fill-rule="evenodd" clip-rule="evenodd" d="M9.57498 19.788L10.2084 13.0236H10.1508C9.64351 13.0236 9.22395 12.8403 8.8379 12.5064C8.45181 12.1725 8.19558 11.7099 8.11521 11.2017L9.31093 10.4172V10.4075C9.3109 9.87282 9.51427 9.35882 9.87859 8.97266C10.243 8.58646 10.7402 8.35798 11.2665 8.33484V8.33267H11.622V7.06972C11.8741 7.06973 12.118 7.16033 12.3106 7.32546C12.5031 7.49059 12.6317 7.71958 12.6738 7.97182H12.6887V7.06972C12.8782 7.06973 13.0643 7.12096 13.2277 7.21814C13.3913 7.31532 13.5263 7.45495 13.619 7.62267C13.7117 7.7904 13.7587 7.98012 13.7552 8.17239C13.7516 8.36466 13.6977 8.5525 13.599 8.71658C13.9201 8.92959 14.1838 9.2205 14.3664 9.56301C14.5489 9.90548 14.6444 10.2887 14.6442 10.6781V18.842C14.6442 18.9617 14.6911 19.0765 14.7744 19.161C14.8578 19.2456 14.9708 19.2931 15.0887 19.2931H15.6158C14.8755 19.6745 14.069 19.9423 13.2183 20.0742C17.0583 19.4788 20 16.1125 20 12.0489C20 7.56499 16.4182 3.93005 12 3.93005C7.58171 3.93005 4 7.56499 4 12.0489C4 15.6749 6.34222 18.7458 9.57498 19.788ZM10.5159 10.6156C10.4701 10.6621 10.4444 10.7251 10.4443 10.7908L10.4219 11.0391H10.9107C11.0404 11.0391 11.1648 10.9868 11.2564 10.8938C11.3481 10.8007 11.3996 10.6745 11.3996 10.5428H10.6885C10.6238 10.543 10.5617 10.5691 10.5159 10.6156Z" fill="black"/>
</svg>
