<svg width="24" height="24" viewBox="0 0 24 24" fill="none" xmlns="http://www.w3.org/2000/svg"><path d="M5.494 4.444 C 5.139 4.547,4.722 4.903,4.548 5.250 C 4.490 5.365,4.424 5.577,4.402 5.720 C 4.345 6.078,4.345 17.922,4.402 18.280 C 4.458 18.633,4.610 18.919,4.877 19.173 C 5.145 19.428,5.373 19.542,5.720 19.598 C 6.079 19.655,17.921 19.655,18.280 19.598 C 18.627 19.542,18.855 19.428,19.123 19.173 C 19.390 18.919,19.542 18.633,19.598 18.280 C 19.655 17.922,19.655 6.078,19.598 5.720 C 19.576 5.577,19.511 5.367,19.454 5.254 C 19.324 4.995,19.005 4.682,18.720 4.534 L 18.500 4.420 12.060 4.413 C 8.237 4.409,5.569 4.422,5.494 4.444 M18.110 12.010 L 18.120 18.120 12.000 18.120 L 5.880 18.120 5.880 12.027 C 5.880 8.675,5.892 5.921,5.907 5.907 C 5.922 5.892,8.671 5.884,12.017 5.890 L 18.100 5.900 18.110 12.010 M10.200 8.839 C 10.023 8.934,8.004 10.964,7.868 11.184 C 7.570 11.666,7.570 12.334,7.868 12.816 C 8.010 13.046,10.028 15.069,10.208 15.163 C 10.643 15.389,11.216 15.098,11.269 14.625 C 11.315 14.219,11.324 14.231,10.196 13.098 C 9.626 12.525,9.160 12.031,9.160 12.000 C 9.160 11.969,9.626 11.475,10.196 10.902 C 11.322 9.770,11.315 9.780,11.270 9.378 C 11.216 8.904,10.629 8.608,10.200 8.839 M13.112 8.842 C 12.809 9.002,12.668 9.329,12.739 9.708 C 12.763 9.839,12.908 10.001,13.804 10.902 C 14.374 11.475,14.840 11.969,14.840 12.000 C 14.840 12.031,14.374 12.525,13.804 13.098 C 12.676 14.231,12.685 14.219,12.731 14.625 C 12.784 15.098,13.357 15.389,13.792 15.163 C 13.972 15.069,15.990 13.046,16.132 12.816 C 16.430 12.334,16.430 11.666,16.132 11.184 C 15.990 10.954,13.972 8.931,13.792 8.837 C 13.600 8.738,13.305 8.740,13.112 8.842 " stroke="none" fill-rule="evenodd" fill="black"></path></svg>