<svg width="24" height="24" viewBox="0 0 24 24" fill="none" xmlns="http://www.w3.org/2000/svg"><path d="M13.280 5.494 C 9.657 6.532,7.872 7.061,7.728 7.139 C 7.475 7.277,7.241 7.522,7.108 7.786 C 7.054 7.893,6.321 10.392,5.478 13.340 C 4.233 17.694,3.946 18.742,3.949 18.925 C 3.958 19.527,4.479 20.046,5.077 20.050 C 5.254 20.052,6.414 19.734,10.660 18.521 C 13.608 17.679,16.107 16.946,16.214 16.892 C 16.487 16.755,16.729 16.518,16.870 16.250 C 16.953 16.093,17.475 14.326,18.522 10.660 C 19.741 6.391,20.052 5.254,20.050 5.075 C 20.047 4.652,19.779 4.245,19.380 4.056 C 18.960 3.857,19.186 3.803,13.280 5.494 M18.400 5.610 C 18.400 5.655,15.565 15.528,15.547 15.547 C 15.517 15.576,5.630 18.403,5.613 18.387 C 5.597 18.370,8.424 8.483,8.453 8.453 C 8.474 8.432,18.294 5.610,18.370 5.603 C 18.387 5.601,18.400 5.605,18.400 5.610 M11.386 9.663 C 10.877 9.787,10.348 10.156,10.025 10.614 C 9.682 11.098,9.540 11.673,9.607 12.300 C 9.709 13.251,10.446 14.093,11.395 14.343 C 11.695 14.422,12.291 14.420,12.607 14.338 C 13.424 14.128,14.127 13.427,14.337 12.614 C 14.418 12.298,14.418 11.702,14.337 11.386 C 14.126 10.568,13.403 9.852,12.596 9.661 C 12.280 9.587,11.698 9.588,11.386 9.663 M12.475 11.229 C 12.583 11.296,12.707 11.421,12.777 11.535 C 12.879 11.700,12.896 11.768,12.896 12.000 C 12.896 12.232,12.879 12.300,12.777 12.465 C 12.704 12.584,12.582 12.705,12.462 12.779 C 12.295 12.882,12.227 12.900,12.000 12.900 C 11.773 12.900,11.705 12.882,11.538 12.779 C 11.417 12.704,11.296 12.583,11.221 12.462 C 11.118 12.296,11.100 12.226,11.100 12.003 C 11.100 11.788,11.120 11.706,11.210 11.553 C 11.477 11.098,12.033 10.956,12.475 11.229 " stroke="none" fill-rule="evenodd" fill="black"></path></svg>