<svg width="24" height="24" viewBox="0 0 24 24" fill="none" xmlns="http://www.w3.org/2000/svg">
<path d="M14.0203 12.9837C16.8218 11.8201 20.3519 13.4876 21.0653 17.9861C21.1411 18.4634 20.7553 18.875 20.272 18.875H15.9578M10.9578 7.83333C10.9578 9.32911 9.74516 10.5417 8.24938 10.5417C6.75362 10.5417 5.54105 9.32911 5.54105 7.83333C5.54105 6.33756 6.75362 5.125 8.24938 5.125C9.74516 5.125 10.9578 6.33756 10.9578 7.83333ZM18.4578 7.83333C18.4578 9.32911 17.2452 10.5417 15.7494 10.5417C14.2536 10.5417 13.0411 9.32911 13.0411 7.83333C13.0411 6.33756 14.2536 5.125 15.7494 5.125C17.2452 5.125 18.4578 6.33756 18.4578 7.83333ZM12.6528 18.875H3.72686C3.24355 18.875 2.85805 18.461 2.93388 17.9837C4.06888 10.8388 12.3108 10.8388 13.4458 17.9837C13.5217 18.461 13.1362 18.875 12.6528 18.875Z" stroke="black" stroke-width="1.25" stroke-linecap="round" stroke-linejoin="round"/>
</svg>
