<svg width="24" height="24" viewBox="0 0 24 24" fill="none" xmlns="http://www.w3.org/2000/svg">
<path fill-rule="evenodd" clip-rule="evenodd" d="M17.8864 7.3864C18.2379 7.03492 18.2379 6.46508 17.8864 6.1136C17.5349 5.76213 16.9651 5.76213 16.6136 6.1136L12 10.7272L7.3864 6.1136C7.03492 5.76213 6.46508 5.76213 6.1136 6.1136C5.76213 6.46508 5.76213 7.03492 6.1136 7.3864L10.7272 12L6.1136 16.6136C5.76213 16.9651 5.76213 17.5349 6.1136 17.8864C6.46508 18.2379 7.03492 18.2379 7.3864 17.8864L12 13.2728L16.6136 17.8864C16.9651 18.2379 17.5349 18.2379 17.8864 17.8864C18.2379 17.5349 18.2379 16.9651 17.8864 16.6136L13.2728 12L17.8864 7.3864Z" fill="black"/>
</svg>
