<svg width="24" height="24" viewBox="0 0 24 24" fill="none" xmlns="http://www.w3.org/2000/svg"><path d="M5.494 4.444 C 5.139 4.547,4.722 4.903,4.548 5.250 C 4.490 5.365,4.424 5.577,4.402 5.720 C 4.348 6.057,4.348 8.223,4.402 8.560 C 4.487 9.095,4.452 9.055,7.007 11.621 L 9.358 13.981 9.369 16.941 L 9.380 19.900 9.480 20.074 C 9.604 20.292,9.848 20.441,10.086 20.446 C 10.288 20.450,13.968 19.448,14.220 19.320 C 14.395 19.231,14.541 19.047,14.601 18.836 C 14.624 18.755,14.640 17.751,14.640 16.342 L 14.640 13.983 16.992 11.622 C 19.548 9.055,19.513 9.095,19.598 8.560 C 19.652 8.223,19.652 6.057,19.598 5.720 C 19.576 5.577,19.511 5.367,19.454 5.254 C 19.324 4.995,19.005 4.682,18.720 4.534 L 18.500 4.420 12.060 4.413 C 8.237 4.409,5.569 4.422,5.494 4.444 M18.111 7.138 L 18.121 8.376 15.725 10.778 C 13.476 13.034,13.324 13.195,13.235 13.420 L 13.140 13.660 13.128 15.880 L 13.117 18.101 12.048 18.396 C 11.461 18.558,10.958 18.699,10.931 18.709 C 10.894 18.723,10.880 18.161,10.871 16.194 L 10.860 13.660 10.765 13.420 C 10.676 13.195,10.524 13.034,8.275 10.779 L 5.880 8.377 5.880 7.155 C 5.880 6.483,5.892 5.921,5.907 5.907 C 5.922 5.892,8.671 5.884,12.017 5.890 L 18.100 5.900 18.111 7.138 " stroke="none" fill-rule="evenodd" fill="black"></path></svg>