<svg width="24" height="24" viewBox="0 0 24 24" fill="none" xmlns="http://www.w3.org/2000/svg"><path d="M11.620 4.698 C 11.532 4.752,11.415 4.863,11.360 4.945 L 11.260 5.094 11.240 10.967 L 11.220 16.840 9.340 14.957 C 8.306 13.922,7.393 13.040,7.312 12.997 C 6.942 12.805,6.475 12.995,6.302 13.409 C 6.229 13.584,6.225 13.684,6.284 13.900 C 6.321 14.037,6.694 14.428,8.874 16.615 C 10.274 18.020,11.500 19.221,11.598 19.285 C 11.849 19.447,12.151 19.447,12.402 19.285 C 12.500 19.221,13.724 18.020,15.123 16.615 C 17.312 14.417,17.673 14.037,17.713 13.895 C 17.775 13.678,17.772 13.587,17.698 13.409 C 17.530 13.008,17.063 12.807,16.708 12.984 C 16.638 13.019,15.720 13.905,14.670 14.954 L 12.760 16.860 12.760 11.056 C 12.760 6.758,12.748 5.217,12.714 5.116 C 12.557 4.656,12.023 4.453,11.620 4.698 " stroke="none" fill-rule="evenodd" fill="black"></path></svg>