<svg width="24" height="24" viewBox="0 0 24 24" fill="none" xmlns="http://www.w3.org/2000/svg">
<path fill-rule="evenodd" clip-rule="evenodd" d="M1.39825 12.1627C1.39825 7.09255 5.50838 2.98242 10.5783 2.98242C15.6485 2.98242 19.7586 7.09255 19.7586 12.1627C19.7586 17.2329 15.6485 21.3432 10.5783 21.3432C5.50838 21.3432 1.39825 17.2329 1.39825 12.1627Z" fill="#FFFFFE"/>
<path fill-rule="evenodd" clip-rule="evenodd" d="M16.1302 11.9819C16.1265 9.63098 14.657 7.62598 12.5864 6.83194V17.1315C14.657 16.3364 16.1265 14.3332 16.1302 11.9819ZM8.63629 17.1295V6.83303C6.56748 7.62953 5.10025 9.63166 5.09471 11.982C5.10025 14.3317 6.56748 16.3336 8.63629 17.1295ZM10.6124 3.27641C5.80466 3.27826 1.90957 7.17418 1.90875 11.9819C1.90957 16.789 5.80466 20.6843 10.6124 20.6851C15.4201 20.6843 19.316 16.789 19.3173 11.9819C19.316 7.17418 15.4201 3.27826 10.6124 3.27641ZM10.591 21.5067C5.33008 21.5317 1 17.2696 1 12.0812C1 6.41094 5.33008 2.48896 10.591 2.48999H13.0565C18.2553 2.48896 23 6.40909 23 12.0812C23 17.2677 18.2553 21.5067 13.0565 21.5067H10.591Z" fill="#0069AA"/>
</svg>
