<svg width="24" height="24" viewBox="0 0 24 24" fill="none" xmlns="http://www.w3.org/2000/svg"><path d="M18.107 2.890 C 18.061 2.924,18.006 3.097,17.942 3.413 C 17.694 4.633,17.065 5.246,15.836 5.462 C 15.339 5.550,15.204 5.688,15.411 5.895 C 15.478 5.962,15.589 6.000,15.821 6.038 C 17.067 6.239,17.774 6.935,17.961 8.146 C 18.015 8.491,18.075 8.620,18.201 8.660 C 18.347 8.707,18.472 8.586,18.500 8.371 C 18.660 7.131,19.219 6.406,20.228 6.126 C 20.386 6.082,20.620 6.034,20.748 6.019 C 21.044 5.984,21.160 5.913,21.160 5.765 C 21.160 5.600,21.056 5.533,20.720 5.483 C 19.451 5.293,18.763 4.612,18.538 3.323 C 18.506 3.137,18.450 2.953,18.413 2.913 C 18.337 2.828,18.205 2.818,18.107 2.890 M10.947 5.241 C 10.777 5.292,10.579 5.459,10.505 5.615 C 10.469 5.691,10.403 5.993,10.358 6.285 C 9.816 9.822,8.122 11.503,4.560 12.040 C 4.117 12.107,3.992 12.141,3.864 12.231 C 3.663 12.371,3.556 12.579,3.554 12.832 C 3.552 13.051,3.597 13.163,3.755 13.334 C 3.914 13.506,4.036 13.553,4.487 13.620 C 5.208 13.727,5.725 13.843,6.269 14.021 C 8.739 14.831,10.017 16.521,10.379 19.452 C 10.443 19.979,10.521 20.165,10.740 20.314 C 11.047 20.525,11.426 20.494,11.682 20.238 C 11.864 20.056,11.891 19.967,11.997 19.180 C 12.166 17.931,12.561 16.839,13.139 16.020 C 13.591 15.381,14.353 14.739,15.104 14.365 C 15.856 13.991,16.872 13.708,17.780 13.621 C 18.165 13.584,18.357 13.530,18.510 13.414 C 18.923 13.102,18.858 12.417,18.393 12.176 C 18.328 12.143,18.074 12.089,17.828 12.057 C 16.776 11.920,16.078 11.738,15.343 11.410 C 13.433 10.559,12.320 8.839,11.959 6.180 C 11.898 5.732,11.829 5.554,11.657 5.403 C 11.455 5.226,11.195 5.166,10.947 5.241 M11.319 9.410 C 11.636 10.120,12.108 10.796,12.696 11.384 C 13.256 11.944,13.795 12.329,14.511 12.678 L 14.820 12.829 14.520 12.979 C 13.040 13.721,12.001 14.758,11.316 16.173 L 11.163 16.489 11.005 16.165 C 10.312 14.748,9.228 13.692,7.740 12.985 L 7.420 12.833 7.840 12.625 C 8.634 12.230,9.114 11.891,9.681 11.320 C 10.233 10.765,10.787 9.958,11.046 9.334 C 11.095 9.216,11.147 9.120,11.162 9.120 C 11.177 9.120,11.248 9.250,11.319 9.410 " stroke="none" fill-rule="evenodd" fill="black"></path></svg>