<svg width="24" height="24" viewBox="0 0 24 24" fill="none" xmlns="http://www.w3.org/2000/svg">
<path d="M19.0514 9.19148L19.4743 9.61712L19.4757 9.61566L19.0514 9.19148ZM17.5554 9.19148L17.131 9.61565L17.1325 9.61711L17.5554 9.19148ZM16.6773 8.31302L16.2519 8.73612L16.253 8.73719L16.6773 8.31302ZM16.3688 7.56522H15.7688H16.3688ZM16.6773 6.81742L16.253 6.39315L16.2519 6.39433L16.6773 6.81742ZM18.6651 4.82966L18.241 4.40521L18.2408 4.4054L18.6651 4.82966ZM18.6549 4.77576L18.8955 4.22607L18.8911 4.22418L18.6549 4.77576ZM14.6524 5.55461L15.0751 5.98044L15.0752 5.98037L14.6524 5.55461ZM13.9544 9.38249L13.3768 9.54483L13.3768 9.54489L13.9544 9.38249ZM13.6549 10.4426L13.2477 10.0019L13.2464 10.003L13.6549 10.4426ZM6.89749 16.7218L7.29781 17.1689L7.30592 17.1614L6.89749 16.7218ZM9.14617 18.9694L8.70793 18.5593L8.69897 18.5693L9.14617 18.9694ZM15.4797 12.2003L15.9179 12.6102L15.9193 12.6087L15.4797 12.2003ZM16.5254 11.8995L16.37 12.479L16.3705 12.4792L16.5254 11.8995ZM20.3169 11.1988L19.8958 10.7713L19.8958 10.7713L20.3169 11.1988ZM21.102 7.20177L21.6416 6.93935L21.6382 6.9324L21.102 7.20177ZM21.0489 7.19318L20.625 6.76851L20.6245 6.769L21.0489 7.19318ZM10.3262 13.5233C10.5637 13.7543 10.9436 13.749 11.1746 13.5115C11.4057 13.2739 11.4004 12.894 11.1628 12.663L10.3262 13.5233ZM9.53364 11.91L9.11075 12.3357L9.11447 12.3393L9.53364 11.91ZM9.40356 11.0761L8.87941 10.7841C8.87659 10.7892 8.87383 10.7943 8.87115 10.7994L9.40356 11.0761ZM9.54027 10.8956L9.12137 10.466L9.11728 10.4701L9.54027 10.8956ZM10.1527 10.2984L10.5717 10.728L10.5774 10.7223L10.1527 10.2984ZM10.3726 10.1472L10.1298 9.59859L10.129 9.59894L10.3726 10.1472ZM11.1538 10.2886L10.7341 10.7174L10.7359 10.7192L11.1538 10.2886ZM12.0401 11.9886C12.2774 12.2199 12.6573 12.2149 12.8886 11.9776C13.1198 11.7403 13.1149 11.3604 12.8776 11.1291L12.0401 11.9886ZM14.7885 12.939C14.5459 12.7133 14.1662 12.727 13.9405 12.9696C13.7148 13.2122 13.7285 13.5918 13.9711 13.8176L14.7885 12.939ZM18.6764 17.2612L18.2924 17.7223L18.2947 17.7242L18.6764 17.2612ZM18.7131 18.0393L18.2896 17.6143L18.2889 17.615L18.7131 18.0393ZM17.4093 19.3427L17.8286 19.7719L17.8335 19.7671L17.4093 19.3427ZM16.6168 19.3131L16.1622 19.7048L16.1665 19.7096L16.6168 19.3131ZM13.1727 14.7188C12.9436 14.4794 12.5638 14.4711 12.3244 14.7002C12.085 14.9293 12.0767 15.3091 12.3058 15.5485L13.1727 14.7188ZM2.67237 9.55826L2.25303 9.12914C2.24767 9.13438 2.2424 9.13971 2.23725 9.14515L2.67237 9.55826ZM3.82113 8.43568L4.24047 8.86481L4.24175 8.86355L3.82113 8.43568ZM3.95432 8.38295L3.94055 8.98279C3.9473 8.98295 3.95404 8.98299 3.96078 8.98291L3.95432 8.38295ZM4.08751 8.43568L4.50952 8.00908L4.50291 8.00272L4.08751 8.43568ZM4.40741 8.54388L4.342 7.94735L4.331 7.94876L4.40741 8.54388ZM4.82028 8.38295L5.23376 8.81776L5.23729 8.81434L4.82028 8.38295ZM4.9898 7.42442L4.51072 7.06298L4.50341 7.0731L4.9898 7.42442ZM5.7624 6.54166L5.34244 6.11313L5.34076 6.11479L5.7624 6.54166ZM8.49269 4.80545L8.7168 5.36203L8.71754 5.36173L8.49269 4.80545ZM10.0676 4.5L10.067 5.1H10.0676V4.5ZM11.8745 5.11207L12.2881 4.67739C12.2845 4.67401 12.2809 4.67066 12.2773 4.66737L11.8745 5.11207ZM12.276 5.56673L12.0685 6.12971C12.3173 6.22141 12.5968 6.13891 12.756 5.9268C12.9151 5.71469 12.9161 5.42327 12.7585 5.21005L12.276 5.56673ZM11.9163 5.45853L12.0538 4.87435L12.0408 4.87159L11.9163 5.45853ZM11.1351 5.40932L11.184 6.00732L11.185 6.00724L11.1351 5.40932ZM9.65082 5.95616L9.28044 5.48411L9.27848 5.48566L9.65082 5.95616ZM8.83798 7.70253L8.23871 7.67286L8.23868 7.67366L8.83798 7.70253ZM10.248 9.86996L10.6949 9.46961C10.6876 9.46146 10.6801 9.4535 10.6724 9.44576L10.248 9.86996ZM10.2348 10.2277L9.81874 9.79533L9.81308 9.80092L10.2348 10.2277ZM9.52309 10.9308L9.94316 11.3593L9.94477 11.3577L9.52309 10.9308ZM9.15046 10.9343L8.7262 11.3586C8.73026 11.3627 8.73438 11.3667 8.73855 11.3706L9.15046 10.9343ZM6.67797 9.17626L6.74261 8.57972L6.73713 8.57918L6.67797 9.17626ZM5.96434 9.32742L6.2533 9.85332L6.26051 9.84923L5.96434 9.32742ZM5.86122 9.40554L5.43321 8.98503L5.43 8.98835L5.86122 9.40554ZM5.87763 10.1899L5.46422 10.6247L5.46769 10.628L5.87763 10.1899ZM5.94442 10.2524L6.3627 9.82204L6.35436 9.81424L5.94442 10.2524ZM5.94442 10.5117L5.52622 10.0815L5.52523 10.0824L5.94442 10.5117ZM4.79684 11.6323L4.37758 11.203L4.36994 11.2107L4.79684 11.6323ZM4.66365 11.687L4.67114 11.0869L4.65769 11.0871L4.66365 11.687ZM4.53045 11.6343L4.11135 12.0637L4.11543 12.0676L4.53045 11.6343ZM2.67237 9.82074L2.23725 10.2339C2.24249 10.2394 2.24784 10.2448 2.25329 10.2501L2.67237 9.82074ZM2.62 9.6895H3.22H2.62ZM18.6285 8.76585C18.5421 8.85171 18.4252 8.8999 18.3034 8.8999V10.0999C18.7421 10.0999 19.163 9.92634 19.4743 9.61711L18.6285 8.76585ZM18.3034 8.8999C18.1816 8.8999 18.0647 8.85171 17.9783 8.76585L17.1325 9.61711C17.4437 9.92634 17.8646 10.0999 18.3034 10.0999V8.8999ZM17.9797 8.76731L17.1017 7.88886L16.253 8.73719L17.131 9.61565L17.9797 8.76731ZM17.1027 7.88993C17.0169 7.80365 16.9688 7.68691 16.9688 7.56522H15.7688C15.7688 8.00403 15.9425 8.42499 16.2519 8.73612L17.1027 7.88993ZM16.9688 7.56522C16.9688 7.44354 17.0169 7.3268 17.1027 7.24051L16.2519 6.39433C15.9425 6.70546 15.7688 7.12642 15.7688 7.56522H16.9688ZM17.1016 7.24168L19.0893 5.25393L18.2408 4.4054L16.253 6.39316L17.1016 7.24168ZM19.0891 5.25411C19.1621 5.18124 19.2161 5.09166 19.2466 4.99318L18.1001 4.63878C18.1273 4.55063 18.1757 4.47045 18.241 4.40521L19.0891 5.25411ZM19.2466 4.99318C19.277 4.8947 19.2829 4.79026 19.2639 4.68894L18.0846 4.91112C18.0675 4.82042 18.0728 4.72693 18.1001 4.63878L19.2466 4.99318ZM19.2639 4.68894C19.2448 4.58759 19.2012 4.49248 19.137 4.41185L18.1981 5.15915C18.1407 5.08698 18.1017 5.00184 18.0846 4.91112L19.2639 4.68894ZM19.137 4.41185C19.0728 4.3312 18.9899 4.26743 18.8955 4.22609L18.4144 5.32543C18.3298 5.28842 18.2556 5.23134 18.1981 5.15915L19.137 4.41185ZM18.8911 4.22418C17.3872 3.58032 15.4621 3.90508 14.2297 5.12886L15.0752 5.98037C15.9551 5.10663 17.3572 4.87283 18.4188 5.32733L18.8911 4.22418ZM14.2297 5.12879C12.9952 6.35431 12.9798 8.13225 13.3768 9.54483L14.5321 9.22014C14.1885 7.99774 14.288 6.76182 15.0751 5.98044L14.2297 5.12879ZM13.3768 9.54489C13.3995 9.62556 13.3995 9.71094 13.3767 9.79158L14.5314 10.1179C14.6144 9.82442 14.6146 9.5137 14.532 9.22008L13.3768 9.54489ZM13.3767 9.79158C13.3539 9.87222 13.3092 9.945 13.2477 10.0019L14.062 10.8833C14.286 10.6763 14.4485 10.4114 14.5314 10.1179L13.3767 9.79158ZM13.2464 10.003L6.48906 16.2823L7.30592 17.1614L14.0633 10.8821L13.2464 10.003ZM6.49724 16.2749C6.27517 16.4737 6.09599 16.7158 5.97065 16.9862L7.05942 17.4908C7.11614 17.3684 7.19724 17.2588 7.29774 17.1688L6.49724 16.2749ZM5.97065 16.9862C5.84532 17.2567 5.77646 17.5498 5.76828 17.8478L6.96783 17.8807C6.97153 17.7459 7.0027 17.6132 7.05942 17.4908L5.97065 16.9862ZM5.76828 17.8478C5.76011 18.1458 5.81279 18.4423 5.92311 18.7192L7.0379 18.2751C6.98798 18.1498 6.96413 18.0156 6.96783 17.8807L5.76828 17.8478ZM5.92311 18.7192C6.03344 18.9961 6.19908 19.2476 6.40991 19.4584L7.25822 18.6096C7.1628 18.5142 7.08783 18.4004 7.0379 18.2751L5.92311 18.7192ZM6.40991 19.4584C6.62074 19.6691 6.87234 19.8346 7.14931 19.9448L7.59285 18.8297C7.4675 18.7799 7.35363 18.705 7.25822 18.6096L6.40991 19.4584ZM7.14931 19.9448C7.42629 20.0549 7.72282 20.1075 8.02079 20.0991L7.98726 18.8996C7.85241 18.9034 7.7182 18.8796 7.59285 18.8297L7.14931 19.9448ZM8.02079 20.0991C8.31876 20.0908 8.6119 20.0218 8.88229 19.8963L8.37715 18.8078C8.25478 18.8646 8.12212 18.8958 7.98726 18.8996L8.02079 20.0991ZM8.88229 19.8963C9.15268 19.7708 9.39463 19.5915 9.59337 19.3694L8.69897 18.5693C8.60903 18.6699 8.49952 18.751 8.37715 18.8078L8.88229 19.8963ZM9.58429 19.3793L15.9179 12.6102L15.0416 11.7903L8.70804 18.5594L9.58429 19.3793ZM15.9193 12.6087C15.9755 12.5482 16.0472 12.5041 16.1266 12.4813L15.7949 11.328C15.5059 11.4112 15.2449 11.5715 15.0402 11.7918L15.9193 12.6087ZM16.1266 12.4813C16.206 12.4584 16.2902 12.4576 16.37 12.479L16.6807 11.32C16.3902 11.2421 16.084 11.2449 15.7949 11.328L16.1266 12.4813ZM16.3705 12.4792C17.7712 12.8534 19.5201 12.826 20.738 11.6262L19.8958 10.7713C19.1155 11.5401 17.8934 11.644 16.6802 11.3198L16.3705 12.4792ZM20.738 11.6262C21.3824 10.9914 21.7548 10.136 21.8984 9.30727C22.041 8.4847 21.9704 7.61555 21.6416 6.93937L20.5624 7.46417C20.7539 7.85784 20.8277 8.45832 20.716 9.10235C20.6055 9.74027 20.3251 10.3484 19.8958 10.7713L20.738 11.6262ZM21.6382 6.9324C21.5932 6.84289 21.5276 6.76532 21.4468 6.70608L20.7371 7.67373C20.6648 7.6207 20.6061 7.55127 20.5659 7.47114L21.6382 6.9324ZM21.4468 6.70608C21.366 6.64682 21.2723 6.60759 21.1735 6.5916L20.9818 7.7762C20.8933 7.76188 20.8095 7.72677 20.7371 7.67373L21.4468 6.70608ZM21.1735 6.5916C21.0746 6.5756 20.9733 6.5833 20.878 6.61405L21.2464 7.7561C21.161 7.78363 21.0704 7.79052 20.9818 7.7762L21.1735 6.5916ZM20.878 6.61405C20.7826 6.6448 20.6959 6.69774 20.625 6.76851L21.4728 7.61784C21.4093 7.6812 21.3317 7.72858 21.2464 7.7561L20.878 6.61405ZM20.6245 6.769L18.627 8.7673L19.4757 9.61566L21.4732 7.61736L20.6245 6.769ZM11.1628 12.663C10.48 11.999 10.1709 11.6936 9.9528 11.4807L9.11447 12.3393C9.32686 12.5467 9.64344 12.8593 10.3262 13.5233L11.1628 12.663ZM9.95651 11.4844C9.93951 11.4675 9.92835 11.4456 9.92465 11.4219L8.73899 11.6069C8.78209 11.8832 8.91235 12.1386 9.11076 12.3357L9.95651 11.4844ZM9.92465 11.4219C9.92096 11.3982 9.92493 11.374 9.93598 11.3527L8.87115 10.7994C8.74219 11.0476 8.69589 11.3305 8.73899 11.6069L9.92465 11.4219ZM9.92772 11.3681C9.93731 11.3509 9.94928 11.3351 9.96327 11.3212L9.11728 10.4701C9.0237 10.5631 8.94363 10.6688 8.87941 10.7841L9.92772 11.3681ZM9.95916 11.3252L10.5716 10.728L9.73385 9.86884L9.12139 10.4661L9.95916 11.3252ZM10.5774 10.7223C10.5886 10.7111 10.6018 10.702 10.6163 10.6956L10.129 9.59894C9.97955 9.66535 9.84363 9.75878 9.72808 9.87453L10.5774 10.7223ZM10.6155 10.6959C10.6351 10.6872 10.6569 10.6846 10.6781 10.6884L10.8918 9.50762C10.6344 9.46103 10.369 9.49272 10.1298 9.5986L10.6155 10.6959ZM10.6781 10.6884C10.6992 10.6923 10.7187 10.7023 10.7341 10.7174L11.5736 9.85993C11.3867 9.67693 11.1492 9.5542 10.8918 9.50762L10.6781 10.6884ZM10.7359 10.7192C10.9484 10.9254 11.3378 11.3043 12.0401 11.9886L12.8776 11.1291C12.1752 10.4448 11.7851 10.0652 11.5717 9.85811L10.7359 10.7192ZM13.9711 13.8176C15.5684 15.3037 17.5206 17.0795 18.2924 17.7223L19.0604 16.8002C18.3182 16.1821 16.3902 14.4292 14.7885 12.939L13.9711 13.8176ZM18.2947 17.7242C18.2867 17.7176 18.2802 17.7094 18.2756 17.7002L19.3486 17.1628C19.2782 17.0224 19.1793 16.8982 19.058 16.7983L18.2947 17.7242ZM18.2756 17.7002C18.271 17.6909 18.2683 17.6808 18.2678 17.6704L19.4665 17.6139C19.4591 17.4569 19.4189 17.3033 19.3486 17.1628L18.2756 17.7002ZM18.2678 17.6704C18.2673 17.6601 18.269 17.6497 18.2727 17.6401L19.3916 18.074C19.4484 17.9275 19.4739 17.7708 19.4665 17.6139L18.2678 17.6704ZM18.2727 17.6401C18.2765 17.6304 18.2822 17.6216 18.2896 17.6143L19.1366 18.4643C19.2479 18.3534 19.3348 18.2204 19.3916 18.074L18.2727 17.6401ZM18.2889 17.615L16.9851 18.9184L17.8335 19.7671L19.1373 18.4636L18.2889 17.615ZM16.99 18.9136C16.9951 18.9085 17.0012 18.9046 17.008 18.902L17.4399 20.0216C17.5851 19.9656 17.7173 19.8806 17.8286 19.7719L16.99 18.9136ZM17.008 18.902C17.0147 18.8994 17.0219 18.8982 17.0291 18.8985L16.9842 20.0976C17.1397 20.1035 17.2947 20.0776 17.4399 20.0216L17.008 18.902ZM17.0291 18.8985C17.0363 18.8988 17.0434 18.9005 17.0499 18.9036L16.5355 19.9877C16.676 20.0544 16.8287 20.0918 16.9842 20.0976L17.0291 18.8985ZM17.0499 18.9036C17.0564 18.9067 17.0622 18.9111 17.067 18.9165L16.1665 19.7096C16.2694 19.8264 16.3949 19.921 16.5355 19.9877L17.0499 18.9036ZM17.0713 18.9213C16.4143 18.1591 14.664 16.2768 13.1727 14.7188L12.3058 15.5485C13.7972 17.1066 15.5279 18.9687 16.1623 19.7048L17.0713 18.9213ZM3.09172 9.98739L4.24047 8.8648L3.40178 8.00656L2.25303 9.12914L3.09172 9.98739ZM4.24175 8.86355C4.20208 8.90255 4.15497 8.93321 4.10324 8.95369L3.66152 7.83795C3.56403 7.87654 3.47527 7.9343 3.4005 8.00781L4.24175 8.86355ZM4.10324 8.95369C4.0515 8.97417 3.99618 8.98407 3.94055 8.98279L3.96808 7.78311C3.86326 7.7807 3.75902 7.79935 3.66152 7.83795L4.10324 8.95369ZM3.96078 8.98291C3.85332 8.98407 3.74968 8.94304 3.67212 8.86863L4.50291 8.00272C4.35378 7.85965 4.1545 7.78076 3.94786 7.78298L3.96078 8.98291ZM3.66555 8.86223C3.77196 8.9675 3.90095 9.04713 4.04274 9.09508L4.42721 7.95834C4.45813 7.9688 4.48627 7.98617 4.50948 8.00913L3.66555 8.86223ZM4.04274 9.09508C4.18452 9.14304 4.33537 9.15805 4.48383 9.13899L4.331 7.94876C4.36338 7.9446 4.39628 7.94788 4.42721 7.95834L4.04274 9.09508ZM4.47282 9.1403C4.66979 9.1187 4.98835 9.0511 5.23374 8.81774L4.40681 7.94815C4.41975 7.93585 4.42963 7.92972 4.43291 7.92783C4.4361 7.92598 4.4347 7.92718 4.42714 7.92991C4.41056 7.93591 4.38171 7.9431 4.34201 7.94745L4.47282 9.1403ZM5.23729 8.81434C5.42002 8.63771 5.48795 8.42716 5.51102 8.25961C5.53177 8.10899 5.51966 7.96048 5.51402 7.88254C5.50662 7.78019 5.50468 7.74224 5.50712 7.71346C5.50863 7.69562 5.50869 7.73074 5.47619 7.77574L4.50341 7.0731C4.36779 7.26086 4.32439 7.45886 4.3114 7.61212C4.29934 7.75443 4.31185 7.89579 4.31715 7.96906C4.32036 8.01349 4.32217 8.04245 4.32264 8.06696C4.3231 8.09082 4.32191 8.09832 4.32224 8.0959C4.32379 8.0847 4.33772 8.01492 4.40326 7.95156L5.23729 8.81434ZM5.46877 7.78578C5.68709 7.49641 5.92615 7.22327 6.18404 6.96854L5.34076 6.11479C5.04152 6.41037 4.76414 6.72729 4.51082 7.06305L5.46877 7.78578ZM6.18236 6.97019C6.38663 6.77001 7.25277 5.95151 8.71679 5.36203L8.26859 4.24887C6.60314 4.91946 5.6069 5.85397 5.34245 6.11314L6.18236 6.97019ZM8.71754 5.36173C9.14631 5.18841 9.60452 5.09955 10.067 5.1L10.0682 3.9C9.45118 3.89939 8.83988 4.01796 8.26784 4.24917L8.71754 5.36173ZM10.0676 5.1C10.7883 5.1 11.3277 5.4263 11.4717 5.55677L12.2773 4.66737C11.9323 4.3549 11.1116 3.9 10.0676 3.9V5.1ZM11.4609 5.54675C11.5825 5.66243 11.6938 5.78846 11.7936 5.92341L12.7585 5.21005C12.6174 5.01921 12.46 4.84098 12.2881 4.67739L11.4609 5.54675ZM12.4835 5.00375C12.343 4.95197 12.1995 4.9088 12.0538 4.8745L11.7788 6.04257C11.8771 6.0657 11.9738 6.0948 12.0685 6.12971L12.4835 5.00375ZM12.0408 4.87159C11.7269 4.80501 11.405 4.78473 11.0852 4.81139L11.185 6.00724C11.388 5.99031 11.5925 6.00319 11.7918 6.04547L12.0408 4.87159ZM11.0862 4.81131C10.4624 4.86232 9.71899 5.14002 9.28044 5.48412L10.0212 6.42819C10.2537 6.24577 10.7664 6.04147 11.184 6.00732L11.0862 4.81131ZM9.27848 5.48566C8.56611 6.0494 8.2816 6.80658 8.23871 7.67286L9.43725 7.73219C9.4678 7.11497 9.64966 6.72223 10.0232 6.42665L9.27848 5.48566ZM8.23868 7.67366C8.23077 7.83785 8.23255 8.02184 8.27886 8.22425C8.32565 8.4288 8.41066 8.62167 8.53471 8.82101C8.76896 9.1974 9.17612 9.64636 9.82372 10.2942L10.6724 9.44576C10.0162 8.78934 9.705 8.43035 9.55353 8.18696C9.48473 8.07641 9.46003 8.00644 9.44864 7.95666C9.43677 7.90476 9.43191 7.84296 9.43729 7.73139L8.23868 7.67366ZM9.80114 10.2703C9.74199 10.2043 9.71077 10.1179 9.71406 10.0293L10.9132 10.0738C10.9215 9.85172 10.8432 9.63513 10.6949 9.46961L9.80114 10.2703ZM9.71406 10.0293C9.71735 9.94069 9.75489 9.85683 9.81877 9.79537L10.6508 10.6601C10.8109 10.5061 10.905 10.2959 10.9132 10.0738L9.71406 10.0293ZM9.81308 9.80092L9.10141 10.504L9.94477 11.3577L10.6564 10.6546L9.81308 9.80092ZM9.10302 10.5024C9.16418 10.4424 9.24618 10.4085 9.33182 10.4077L9.34314 11.6076C9.56774 11.6055 9.78278 11.5165 9.94316 11.3592L9.10302 10.5024ZM9.33182 10.4077C9.41747 10.4069 9.5001 10.4393 9.56237 10.4981L8.73855 11.3706C8.90186 11.5248 9.11855 11.6098 9.34314 11.6076L9.33182 10.4077ZM9.57472 10.5101C8.69936 9.63471 8.08664 9.16319 7.70417 8.93095L7.08136 9.95668C7.35119 10.1205 7.88761 10.52 8.7262 11.3586L9.57472 10.5101ZM7.70417 8.93095C7.29791 8.68428 6.95018 8.60224 6.7426 8.57975L6.61333 9.77276C6.65808 9.77761 6.83532 9.80729 7.08136 9.95668L7.70417 8.93095ZM6.73713 8.57918C6.36598 8.5424 5.99254 8.6215 5.66817 8.80561L6.26051 9.84923C6.36923 9.78752 6.4944 9.761 6.6188 9.77333L6.73713 8.57918ZM5.67541 8.80157C5.58618 8.8506 5.50458 8.91241 5.43323 8.98504L6.28922 9.82603C6.27863 9.83681 6.26652 9.84599 6.25327 9.85327L5.67541 8.80157ZM5.43 8.98835C5.3242 9.09771 5.2411 9.22695 5.18551 9.36861L6.30256 9.80699C6.30026 9.81285 6.29682 9.8182 6.29244 9.82273L5.43 8.98835ZM5.18551 9.36861C5.12991 9.51026 5.10293 9.66153 5.10611 9.81366L6.30585 9.78857C6.30598 9.79487 6.30487 9.80113 6.30256 9.80699L5.18551 9.36861ZM5.10611 9.81366C5.10929 9.9658 5.14258 10.1158 5.20405 10.255L6.3018 9.7703C6.30434 9.77607 6.30572 9.78227 6.30585 9.78857L5.10611 9.81366ZM5.20405 10.255C5.26551 10.3942 5.35394 10.5199 5.46423 10.6247L6.29103 9.755C6.29559 9.75934 6.29925 9.76454 6.3018 9.7703L5.20405 10.255ZM5.46769 10.628L5.53448 10.6905L6.35436 9.81424L6.28757 9.75174L5.46769 10.628ZM5.52622 10.6826C5.48603 10.6435 5.45409 10.5968 5.43227 10.5452L6.53764 10.0781C6.497 9.98193 6.43749 9.89489 6.36263 9.82212L5.52622 10.6826ZM5.43227 10.5452C5.41046 10.4936 5.39922 10.4381 5.39922 10.382H6.59922C6.59922 10.2776 6.57828 10.1743 6.53764 10.0781L5.43227 10.5452ZM5.39922 10.382C5.39922 10.326 5.41046 10.2705 5.43227 10.2189L6.53764 10.686C6.57828 10.5898 6.59922 10.4864 6.59922 10.382H5.39922ZM5.43227 10.2189C5.45408 10.1673 5.48603 10.1205 5.52622 10.0815L6.36263 10.942C6.43749 10.8692 6.49701 10.7821 6.53764 10.686L5.43227 10.2189ZM5.52523 10.0824L4.37765 11.2031L5.21604 12.0616L6.36362 10.941L5.52523 10.0824ZM4.36994 11.2107C4.40926 11.1709 4.45619 11.1395 4.50794 11.1182L4.96369 12.2283C5.06121 12.1883 5.14966 12.129 5.22374 12.054L4.36994 11.2107ZM4.50794 11.1182C4.55969 11.097 4.6152 11.0864 4.67114 11.0871L4.65616 12.287C4.76157 12.2883 4.86617 12.2683 4.96369 12.2283L4.50794 11.1182ZM4.65769 11.0871C4.76482 11.086 4.86811 11.1269 4.94548 11.201L4.11543 12.0676C4.26441 12.2103 4.46331 12.289 4.66961 12.287L4.65769 11.0871ZM4.94954 11.2049L3.09146 9.39137L2.25329 10.2501L4.11137 12.0637L4.94954 11.2049ZM3.1075 9.40763C3.17973 9.48371 3.22 9.5846 3.22 9.6895H2.02C2.02 9.89209 2.09776 10.0869 2.23725 10.2339L3.1075 9.40763ZM3.22 9.6895C3.22 9.7944 3.17973 9.8953 3.1075 9.97138L2.23725 9.14515C2.09776 9.29206 2.02 9.48692 2.02 9.6895H3.22Z" fill="black"/>
</svg>
