<svg width="24" height="24" viewBox="0 0 24 24" fill="none" xmlns="http://www.w3.org/2000/svg">
<path d="M7.62484 10.5416H9.70817M7.62484 13.4583H9.70817M15.5415 13.875H13.4582C12.9979 13.875 12.6248 13.5019 12.6248 13.0416V10.9583C12.6248 10.4981 12.9979 10.125 13.4582 10.125H15.5415C16.0018 10.125 16.3748 10.4981 16.3748 10.9583V13.0416C16.3748 13.5019 16.0018 13.875 15.5415 13.875ZM5.12484 18.0416H18.8748C19.3351 18.0416 19.7082 17.6686 19.7082 17.2083V6.79165C19.7082 6.33141 19.3351 5.95831 18.8748 5.95831H5.12484C4.6646 5.95831 4.2915 6.3314 4.2915 6.79165V17.2083C4.2915 17.6686 4.6646 18.0416 5.12484 18.0416Z" stroke="black" stroke-width="1.25" stroke-linecap="round" stroke-linejoin="round"/>
</svg>
