<svg width="24" height="24" viewBox="0 0 24 24" fill="none" xmlns="http://www.w3.org/2000/svg">
<path fill-rule="evenodd" clip-rule="evenodd" d="M8.76034 9.2996C9.06387 9.01775 9.08145 8.5432 8.7996 8.23966C8.51774 7.93613 8.04319 7.91856 7.73966 8.20041L4.23966 11.4504C4.08684 11.5923 4 11.7915 4 12C4 12.2086 4.08684 12.4077 4.23966 12.5496L7.73966 15.7996C8.04319 16.0815 8.51774 16.0639 8.79959 15.7603C9.08145 15.4568 9.06387 14.9823 8.76034 14.7004L5.85221 12L8.76034 9.2996ZM16.2603 8.20041C15.9568 7.91856 15.4823 7.93613 15.2004 8.23966C14.9186 8.5432 14.9361 9.01775 15.2397 9.2996L18.1478 12L15.2397 14.7004C14.9361 14.9823 14.9186 15.4568 15.2004 15.7603C15.4823 16.0639 15.9568 16.0815 16.2603 15.7996L19.7603 12.5496C19.9132 12.4077 20 12.2086 20 12C20 11.7915 19.9132 11.5923 19.7603 11.4504L16.2603 8.20041Z" fill="#0E1438"/>
</svg>
