<svg width="24" height="24" viewBox="0 0 24 24" fill="none" xmlns="http://www.w3.org/2000/svg"><path d="M16.420 7.596 C 16.354 7.613,16.258 7.652,16.207 7.683 C 16.156 7.714,14.815 9.225,13.227 11.040 C 11.639 12.854,10.291 14.393,10.232 14.460 L 10.124 14.580 8.972 13.434 C 8.338 12.804,7.775 12.266,7.720 12.238 C 7.580 12.166,7.205 12.174,7.055 12.252 C 6.690 12.442,6.545 12.909,6.738 13.274 C 6.769 13.332,7.466 14.049,8.287 14.867 C 9.617 16.191,9.799 16.359,9.956 16.400 C 10.144 16.450,10.351 16.427,10.521 16.339 C 10.626 16.285,17.111 8.903,17.259 8.669 C 17.368 8.496,17.367 8.148,17.257 7.960 C 17.096 7.685,16.721 7.521,16.420 7.596 " stroke="none" fill-rule="evenodd" fill="black"></path></svg>