<svg width="24" height="24" viewBox="0 0 24 24" fill="none" xmlns="http://www.w3.org/2000/svg">
<path d="M16.5603 8.85714L12.1205 19.7857H13.9131L14.8424 17.5848H18.2781L19.2074 19.7857H21L16.5603 8.85714ZM15.5475 15.9152L16.5603 12.7979L17.5731 15.9152H15.5475ZM13.1071 14.3214C13.0977 14.3142 12.3258 13.723 11.3836 12.7023C12.8855 10.6668 13.7363 8.35321 14.0835 7.26339H16.1429V5.59375H10.9063V4H9.23661V5.59375H4V7.26339H12.3198C11.9585 8.28605 11.2933 9.90067 10.2786 11.3753C9.03853 9.72687 8.48982 8.49589 8.48261 8.48299L8.21205 7.94643L6.77009 8.78125L7.03078 9.30719C7.06455 9.36638 7.68308 10.7454 9.10683 12.5922C9.14174 12.6381 9.17703 12.6829 9.21232 12.7277C7.32563 14.8853 5.8294 15.7289 5.81004 15.7433L5.21429 16.1429L6.08705 17.5089L6.81942 17.0737C6.9029 17.0103 8.38775 16.163 10.3105 14.0084C11.2409 15.0056 11.9505 15.5577 11.9915 15.5896L12.4621 15.9152L13.1071 14.3214Z" fill="black"/>
</svg>
