<svg width="24" height="24" viewBox="0 0 24 24" fill="none" xmlns="http://www.w3.org/2000/svg">
<mask id="path-1-outside-1_1607_35" maskUnits="userSpaceOnUse" x="3.5" y="3.5" width="17" height="16" fill="black">
<rect fill="white" x="3.5" y="3.5" width="17" height="16"/>
<path fill-rule="evenodd" clip-rule="evenodd" d="M8.68605 7.98837C8.68605 6.06568 10.2517 4.5 12.1744 4.5C14.0971 4.5 15.6628 6.06568 15.6628 7.98837C15.6628 8.34539 15.611 8.68741 15.5102 9.01308L14.8452 8.80596C14.9256 8.54569 14.9651 8.27589 14.9651 7.98837C14.9651 6.44313 13.7197 5.19767 12.1744 5.19767C10.6292 5.19767 9.38372 6.44313 9.38372 7.98837C9.38372 9.01444 9.93559 9.91243 10.7573 10.3975L11.0625 10.5719L10.8772 10.8772L8.98038 13.9949C9.05941 14.0767 9.13981 14.1666 9.1984 14.2674C9.38508 14.5904 9.43686 14.9651 9.34012 15.3249C9.24337 15.6846 9.00899 15.9885 8.68605 16.1751C8.46666 16.3019 8.22547 16.3605 7.98837 16.3605C7.506 16.3605 7.03588 16.1097 6.77834 15.6628C6.39408 14.9965 6.62436 14.1407 7.2907 13.7551C7.61364 13.5698 7.98837 13.5166 8.34811 13.6134C8.35483 13.6152 8.36154 13.6168 8.36813 13.6183C8.37626 13.6202 8.38419 13.622 8.39172 13.6243L10.1141 10.7791C9.25563 10.1427 8.68605 9.13572 8.68605 7.98837ZM10.7791 7.98837C10.7791 7.21848 11.4045 6.59302 12.1744 6.59302C12.9443 6.59302 13.5698 7.21848 13.5698 7.98837C13.5698 8.39035 13.3953 8.74737 13.1228 9.00218L14.6599 11.782C15.0796 11.6035 15.5279 11.4767 16.0116 11.4767C17.9343 11.4767 19.5 13.0424 19.5 14.9651C19.5 16.8878 17.9343 18.4535 16.0116 18.4535C15.0741 18.4535 14.2184 18.076 13.5916 17.4724L14.0712 16.9709C14.574 17.4547 15.2581 17.7558 16.0116 17.7558C17.5569 17.7558 18.8023 16.5104 18.8023 14.9651C18.8023 13.4199 17.5569 12.1744 16.0116 12.1744C15.5224 12.1744 15.07 12.3025 14.6708 12.5233L14.3547 12.6868L14.1911 12.3815L12.5124 9.34012C12.4047 9.36737 12.2902 9.38372 12.1744 9.38372C11.4045 9.38372 10.7791 8.75827 10.7791 7.98837ZM4.5 14.9651C4.5 13.334 5.61873 11.9537 7.13808 11.5749L7.3125 12.2616C6.09975 12.5641 5.19767 13.6543 5.19767 14.9651C5.19767 16.5104 6.44313 17.7558 7.98837 17.7558C9.53361 17.7558 10.7791 16.5104 10.7791 14.9651V14.6163H14.6708C14.8261 14.0154 15.363 13.5698 16.0116 13.5698C16.7815 13.5698 17.407 14.1952 17.407 14.9651C17.407 15.735 16.7815 16.3605 16.0116 16.3605C15.363 16.3605 14.8261 15.9149 14.6708 15.314H11.4113C11.2274 17.065 9.78706 18.4535 7.98837 18.4535C6.06568 18.4535 4.5 16.8878 4.5 14.9651Z"/>
</mask>
<path fill-rule="evenodd" clip-rule="evenodd" d="M8.68605 7.98837C8.68605 6.06568 10.2517 4.5 12.1744 4.5C14.0971 4.5 15.6628 6.06568 15.6628 7.98837C15.6628 8.34539 15.611 8.68741 15.5102 9.01308L14.8452 8.80596C14.9256 8.54569 14.9651 8.27589 14.9651 7.98837C14.9651 6.44313 13.7197 5.19767 12.1744 5.19767C10.6292 5.19767 9.38372 6.44313 9.38372 7.98837C9.38372 9.01444 9.93559 9.91243 10.7573 10.3975L11.0625 10.5719L10.8772 10.8772L8.98038 13.9949C9.05941 14.0767 9.13981 14.1666 9.1984 14.2674C9.38508 14.5904 9.43686 14.9651 9.34012 15.3249C9.24337 15.6846 9.00899 15.9885 8.68605 16.1751C8.46666 16.3019 8.22547 16.3605 7.98837 16.3605C7.506 16.3605 7.03588 16.1097 6.77834 15.6628C6.39408 14.9965 6.62436 14.1407 7.2907 13.7551C7.61364 13.5698 7.98837 13.5166 8.34811 13.6134C8.35483 13.6152 8.36154 13.6168 8.36813 13.6183C8.37626 13.6202 8.38419 13.622 8.39172 13.6243L10.1141 10.7791C9.25563 10.1427 8.68605 9.13572 8.68605 7.98837ZM10.7791 7.98837C10.7791 7.21848 11.4045 6.59302 12.1744 6.59302C12.9443 6.59302 13.5698 7.21848 13.5698 7.98837C13.5698 8.39035 13.3953 8.74737 13.1228 9.00218L14.6599 11.782C15.0796 11.6035 15.5279 11.4767 16.0116 11.4767C17.9343 11.4767 19.5 13.0424 19.5 14.9651C19.5 16.8878 17.9343 18.4535 16.0116 18.4535C15.0741 18.4535 14.2184 18.076 13.5916 17.4724L14.0712 16.9709C14.574 17.4547 15.2581 17.7558 16.0116 17.7558C17.5569 17.7558 18.8023 16.5104 18.8023 14.9651C18.8023 13.4199 17.5569 12.1744 16.0116 12.1744C15.5224 12.1744 15.07 12.3025 14.6708 12.5233L14.3547 12.6868L14.1911 12.3815L12.5124 9.34012C12.4047 9.36737 12.2902 9.38372 12.1744 9.38372C11.4045 9.38372 10.7791 8.75827 10.7791 7.98837ZM4.5 14.9651C4.5 13.334 5.61873 11.9537 7.13808 11.5749L7.3125 12.2616C6.09975 12.5641 5.19767 13.6543 5.19767 14.9651C5.19767 16.5104 6.44313 17.7558 7.98837 17.7558C9.53361 17.7558 10.7791 16.5104 10.7791 14.9651V14.6163H14.6708C14.8261 14.0154 15.363 13.5698 16.0116 13.5698C16.7815 13.5698 17.407 14.1952 17.407 14.9651C17.407 15.735 16.7815 16.3605 16.0116 16.3605C15.363 16.3605 14.8261 15.9149 14.6708 15.314H11.4113C11.2274 17.065 9.78706 18.4535 7.98837 18.4535C6.06568 18.4535 4.5 16.8878 4.5 14.9651Z" fill="black"/>
<path d="M15.5102 9.01308L15.45 9.20616L15.6434 9.2664L15.7034 9.07289L15.5102 9.01308ZM14.8452 8.80596L14.652 8.74628L14.5924 8.93904L14.7851 8.99904L14.8452 8.80596ZM10.7573 10.3975L10.6544 10.5717L10.6569 10.5731L10.7573 10.3975ZM11.0625 10.5719L11.2354 10.6769L11.3431 10.4994L11.1628 10.3964L11.0625 10.5719ZM10.8772 10.8772L11.0499 10.9823L11.05 10.9821L10.8772 10.8772ZM8.98038 13.9949L8.80761 13.8898L8.72646 14.0232L8.83498 14.1355L8.98038 13.9949ZM9.1984 14.2674L9.37348 14.1662L9.37325 14.1658L9.1984 14.2674ZM8.68605 16.1751L8.7872 16.3503L8.78725 16.3502L8.68605 16.1751ZM6.77834 15.6628L6.95356 15.5618L6.95352 15.5618L6.77834 15.6628ZM7.2907 13.7551L7.19005 13.5797L7.1894 13.5801L7.2907 13.7551ZM8.34811 13.6134L8.40131 13.4183L8.40063 13.4181L8.34811 13.6134ZM8.36813 13.6183L8.32242 13.8153L8.32243 13.8153L8.36813 13.6183ZM8.39172 13.6243L8.33361 13.818L8.48361 13.863L8.56471 13.729L8.39172 13.6243ZM10.1141 10.7791L10.2871 10.8838L10.3825 10.7263L10.2345 10.6166L10.1141 10.7791ZM13.1228 9.00218L12.9847 8.85447L12.8696 8.96211L12.9458 9.10004L13.1228 9.00218ZM14.6599 11.782L14.4829 11.8798L14.5712 12.0395L14.739 11.9681L14.6599 11.782ZM13.5916 17.4724L13.4454 17.3326L13.3061 17.4782L13.4513 17.618L13.5916 17.4724ZM14.0712 16.9709L14.2114 16.8252L14.0653 16.6846L13.9251 16.8311L14.0712 16.9709ZM14.6708 12.5233L14.7637 12.7029L14.7686 12.7002L14.6708 12.5233ZM14.3547 12.6868L14.1764 12.7823L14.2705 12.958L14.4476 12.8664L14.3547 12.6868ZM14.1911 12.3815L14.3694 12.286L14.3682 12.2838L14.1911 12.3815ZM12.5124 9.34012L12.6894 9.24239L12.614 9.10578L12.4627 9.14408L12.5124 9.34012ZM7.13808 11.5749L7.33408 11.5251L7.28452 11.3299L7.08916 11.3786L7.13808 11.5749ZM7.3125 12.2616L7.36144 12.4578L7.55849 12.4087L7.5085 12.2119L7.3125 12.2616ZM10.7791 14.6163V14.4141H10.5768V14.6163H10.7791ZM14.6708 14.6163V14.8185H14.8274L14.8666 14.6669L14.6708 14.6163ZM14.6708 15.314L14.8666 15.2633L14.8274 15.1117H14.6708V15.314ZM11.4113 15.314V15.1117H11.2292L11.2102 15.2928L11.4113 15.314ZM12.1744 4.29778C10.14 4.29778 8.48382 5.95399 8.48382 7.98837H8.88827C8.88827 6.17736 10.3634 4.70222 12.1744 4.70222V4.29778ZM15.865 7.98837C15.865 5.95399 14.2088 4.29778 12.1744 4.29778V4.70222C13.9854 4.70222 15.4606 6.17736 15.4606 7.98837H15.865ZM15.7034 9.07289C15.8103 8.72742 15.865 8.3652 15.865 7.98837H15.4606C15.4606 8.32557 15.4117 8.6474 15.317 8.95327L15.7034 9.07289ZM14.7851 8.99904L15.45 9.20616L15.5703 8.82001L14.9053 8.61288L14.7851 8.99904ZM14.7629 7.98837C14.7629 8.25682 14.7261 8.50643 14.652 8.74628L15.0384 8.86564C15.1251 8.58496 15.1673 8.29496 15.1673 7.98837H14.7629ZM12.1744 5.3999C13.608 5.3999 14.7629 6.55482 14.7629 7.98837H15.1673C15.1673 6.33145 13.8313 4.99545 12.1744 4.99545V5.3999ZM9.58595 7.98837C9.58595 6.55482 10.7409 5.3999 12.1744 5.3999V4.99545C10.5175 4.99545 9.1815 6.33145 9.1815 7.98837H9.58595ZM10.8601 10.2234C10.0977 9.77331 9.58595 8.94028 9.58595 7.98837H9.1815C9.1815 9.08861 9.77346 10.0515 10.6545 10.5717L10.8601 10.2234ZM11.1628 10.3964L10.8576 10.222L10.6569 10.5731L10.9622 10.7475L11.1628 10.3964ZM11.05 10.9821L11.2354 10.6769L10.8896 10.467L10.7043 10.7722L11.05 10.9821ZM9.15314 14.1L11.0499 10.9823L10.7044 10.7721L8.80761 13.8898L9.15314 14.1ZM9.37325 14.1658C9.30176 14.0428 9.20703 13.9384 9.12577 13.8544L8.83498 14.1355C8.9118 14.2149 8.97785 14.2904 9.02355 14.369L9.37325 14.1658ZM9.5354 15.3774C9.64638 14.9647 9.58653 14.5348 9.37348 14.1662L9.02332 14.3686C9.18364 14.646 9.22735 14.9655 9.14483 15.2723L9.5354 15.3774ZM8.78725 16.3502C9.1562 16.1369 9.42465 15.7892 9.5354 15.3774L9.14483 15.2723C9.06209 15.58 8.86178 15.84 8.58484 16.0001L8.78725 16.3502ZM7.98837 16.5627C8.2588 16.5627 8.53522 16.4958 8.7872 16.3503L8.5849 16C8.3981 16.1079 8.19215 16.1582 7.98837 16.1582V16.5627ZM6.60313 15.7638C6.89833 16.2761 7.43687 16.5627 7.98837 16.5627V16.1582C7.57512 16.1582 7.17344 15.9434 6.95356 15.5618L6.60313 15.7638ZM7.1894 13.5801C6.42684 14.0214 6.16297 15.0005 6.60316 15.7638L6.95352 15.5618C6.62518 14.9924 6.82189 14.2601 7.39199 13.9301L7.1894 13.5801ZM8.40063 13.4181C7.98751 13.307 7.55785 13.3686 7.19005 13.5797L7.39135 13.9305C7.66944 13.7709 7.98924 13.7263 8.29559 13.8087L8.40063 13.4181ZM8.41384 13.4213C8.40664 13.4196 8.40368 13.4189 8.40131 13.4183L8.29491 13.8085C8.30597 13.8115 8.31644 13.8139 8.32242 13.8153L8.41384 13.4213ZM8.44982 13.4306C8.43506 13.4261 8.42071 13.4229 8.41383 13.4213L8.32243 13.8153C8.32677 13.8163 8.32925 13.8169 8.33143 13.8174C8.33346 13.8179 8.33397 13.8181 8.33361 13.818L8.44982 13.4306ZM9.9411 10.6743L8.21872 13.5195L8.56471 13.729L10.2871 10.8838L9.9411 10.6743ZM8.48382 7.98837C8.48382 9.20505 9.08814 10.2703 9.99367 10.9415L10.2345 10.6166C9.42312 10.0151 8.88827 9.06639 8.88827 7.98837H8.48382ZM12.1744 6.3908C11.2928 6.3908 10.5768 7.10679 10.5768 7.98837H10.9813C10.9813 7.33016 11.5162 6.79525 12.1744 6.79525V6.3908ZM13.772 7.98837C13.772 7.10679 13.056 6.3908 12.1744 6.3908V6.79525C12.8326 6.79525 13.3675 7.33016 13.3675 7.98837H13.772ZM13.2609 9.1499C13.5708 8.86013 13.772 8.45098 13.772 7.98837H13.3675C13.3675 8.32972 13.2199 8.6346 12.9847 8.85447L13.2609 9.1499ZM14.8369 11.6841L13.2998 8.90433L12.9458 9.10004L14.4829 11.8798L14.8369 11.6841ZM16.0116 11.2745C15.492 11.2745 15.016 11.4108 14.5807 11.5959L14.739 11.9681C15.1432 11.7962 15.5638 11.679 16.0116 11.679V11.2745ZM19.7022 14.9651C19.7022 12.9307 18.046 11.2745 16.0116 11.2745V11.679C17.8226 11.679 19.2978 13.1541 19.2978 14.9651H19.7022ZM16.0116 18.6557C18.046 18.6557 19.7022 16.9995 19.7022 14.9651H19.2978C19.2978 16.7761 17.8226 18.2513 16.0116 18.2513V18.6557ZM13.4513 17.618C14.1137 18.256 15.019 18.6557 16.0116 18.6557V18.2513C15.1293 18.2513 14.3231 17.8961 13.7318 17.3267L13.4513 17.618ZM13.9251 16.8311L13.4454 17.3326L13.7377 17.6122L14.2174 17.1107L13.9251 16.8311ZM16.0116 17.5536C15.313 17.5536 14.6785 17.2746 14.2114 16.8252L13.931 17.1167C14.4695 17.6347 15.2031 17.958 16.0116 17.958V17.5536ZM18.6001 14.9651C18.6001 16.3987 17.4452 17.5536 16.0116 17.5536V17.958C17.6686 17.958 19.0045 16.622 19.0045 14.9651H18.6001ZM16.0116 12.3766C17.4452 12.3766 18.6001 13.5316 18.6001 14.9651H19.0045C19.0045 13.3082 17.6686 11.9722 16.0116 11.9722V12.3766ZM14.7686 12.7002C15.1398 12.495 15.5587 12.3766 16.0116 12.3766V11.9722C15.4862 11.9722 15.0003 12.11 14.5729 12.3463L14.7686 12.7002ZM14.4476 12.8664L14.7637 12.7029L14.5779 12.3436L14.2617 12.5072L14.4476 12.8664ZM14.0129 12.477L14.1764 12.7823L14.5329 12.5913L14.3694 12.286L14.0129 12.477ZM12.3353 9.43784L14.0141 12.4793L14.3682 12.2838L12.6894 9.24239L12.3353 9.43784ZM12.1744 9.58595C12.309 9.58595 12.4402 9.56698 12.562 9.53616L12.4627 9.14408C12.3692 9.16776 12.2715 9.1815 12.1744 9.1815V9.58595ZM10.5768 7.98837C10.5768 8.86995 11.2928 9.58595 12.1744 9.58595V9.1815C11.5162 9.1815 10.9813 8.64658 10.9813 7.98837H10.5768ZM7.08916 11.3786C5.481 11.7796 4.29778 13.2399 4.29778 14.9651H4.70222C4.70222 13.4282 5.75646 12.1277 7.187 11.7711L7.08916 11.3786ZM7.5085 12.2119L7.33408 11.5251L6.94208 11.6246L7.1165 12.3114L7.5085 12.2119ZM5.3999 14.9651C5.3999 13.75 6.23587 12.7386 7.36144 12.4578L7.26356 12.0654C5.96362 12.3897 4.99545 13.5585 4.99545 14.9651H5.3999ZM7.98837 17.5536C6.55482 17.5536 5.3999 16.3987 5.3999 14.9651H4.99545C4.99545 16.622 6.33145 17.958 7.98837 17.958V17.5536ZM10.5768 14.9651C10.5768 16.3987 9.42193 17.5536 7.98837 17.5536V17.958C9.6453 17.958 10.9813 16.622 10.9813 14.9651H10.5768ZM10.5768 14.6163V14.9651H10.9813V14.6163H10.5768ZM14.6708 14.4141H10.7791V14.8185H14.6708V14.4141ZM16.0116 13.3675C15.2666 13.3675 14.6523 13.8797 14.475 14.5657L14.8666 14.6669C14.9999 14.151 15.4594 13.772 16.0116 13.772V13.3675ZM17.6092 14.9651C17.6092 14.0835 16.8932 13.3675 16.0116 13.3675V13.772C16.6698 13.772 17.2048 14.3069 17.2048 14.9651H17.6092ZM16.0116 16.5627C16.8932 16.5627 17.6092 15.8467 17.6092 14.9651H17.2048C17.2048 15.6233 16.6698 16.1582 16.0116 16.1582V16.5627ZM14.475 15.3646C14.6523 16.0506 15.2666 16.5627 16.0116 16.5627V16.1582C15.4594 16.1582 14.9999 15.7792 14.8666 15.2633L14.475 15.3646ZM11.4113 15.5162H14.6708V15.1117H11.4113V15.5162ZM7.98837 18.6557C9.89656 18.6557 11.4183 17.183 11.6125 15.3351L11.2102 15.2928C11.0364 16.947 9.67757 18.2513 7.98837 18.2513V18.6557ZM4.29778 14.9651C4.29778 16.9995 5.95399 18.6557 7.98837 18.6557V18.2513C6.17736 18.2513 4.70222 16.7761 4.70222 14.9651H4.29778Z" fill="black" mask="url(#path-1-outside-1_1607_35)"/>
</svg>
