<svg width="24" height="24" viewBox="0 0 24 24" fill="none" xmlns="http://www.w3.org/2000/svg"><path d="M9.610 7.923 C 8.453 8.234,7.299 8.960,6.607 9.813 C 5.837 10.763,5.483 11.692,5.358 13.092 C 5.228 14.562,5.811 15.747,6.940 16.303 C 7.485 16.571,7.713 16.619,8.440 16.620 C 8.979 16.620,9.099 16.608,9.358 16.526 C 10.208 16.259,10.789 15.774,11.161 15.020 C 11.380 14.577,11.446 14.300,11.470 13.727 C 11.500 12.979,11.383 12.418,11.073 11.830 C 10.879 11.463,10.415 11.014,10.040 10.832 C 9.534 10.585,9.308 10.541,8.560 10.542 C 7.933 10.543,7.672 10.578,7.333 10.708 C 7.123 10.789,7.881 9.973,8.323 9.642 C 8.732 9.336,9.281 9.057,9.856 8.862 C 10.407 8.674,10.500 8.593,10.500 8.294 C 10.500 8.137,10.481 8.096,10.351 7.977 C 10.173 7.814,10.048 7.805,9.610 7.923 M16.718 7.940 C 15.626 8.240,14.518 8.936,13.825 9.757 C 12.924 10.825,12.477 12.184,12.530 13.700 C 12.546 14.151,12.565 14.270,12.676 14.600 C 12.884 15.215,13.208 15.688,13.652 16.024 C 14.183 16.426,14.701 16.597,15.480 16.628 C 15.936 16.645,16.073 16.636,16.364 16.567 C 16.997 16.415,17.477 16.137,17.886 15.685 C 18.316 15.207,18.561 14.646,18.644 13.943 C 18.703 13.438,18.644 12.888,18.475 12.381 C 18.309 11.883,18.155 11.630,17.803 11.276 C 17.471 10.943,17.112 10.738,16.640 10.611 C 16.275 10.512,15.203 10.511,14.860 10.609 C 14.728 10.647,14.576 10.690,14.522 10.706 C 14.435 10.730,14.447 10.705,14.620 10.484 C 15.188 9.761,16.196 9.086,17.066 8.846 C 17.223 8.803,17.385 8.750,17.426 8.727 C 17.747 8.556,17.756 8.063,17.441 7.901 C 17.284 7.819,17.125 7.828,16.718 7.940 " stroke="none" fill-rule="evenodd"></path></svg>