<svg width="24" height="24" viewBox="0 0 24 24" fill="none" xmlns="http://www.w3.org/2000/svg">
<path fill-rule="evenodd" clip-rule="evenodd" d="M4.24138 6.22998C3.97 6.22998 3.75 6.44998 3.75 6.72136V17.2731C3.75 17.5445 3.97 17.7645 4.24138 17.7645H12H19.7586C20.03 17.7645 20.25 17.5445 20.25 17.2731V6.72136C20.25 6.44998 20.03 6.22998 19.7586 6.22998H12H4.24138ZM2.25 6.72136C2.25 5.62155 3.14157 4.72998 4.24138 4.72998H12H19.7586C20.8584 4.72998 21.75 5.62155 21.75 6.72136V17.2731C21.75 18.3729 20.8584 19.2645 19.7586 19.2645H12H4.24138C3.14157 19.2645 2.25 18.3729 2.25 17.2731V6.72136ZM7.63427 9.02308C6.84869 9.02308 6.21186 9.65992 6.21186 10.4455C6.21186 11.2311 6.84869 11.8679 7.63427 11.8679C8.41985 11.8679 9.05668 11.2311 9.05668 10.4455C9.05668 9.65992 8.41985 9.02308 7.63427 9.02308ZM4.71186 10.4455C4.71186 8.83149 6.02027 7.52308 7.63427 7.52308C9.24828 7.52308 10.5567 8.83149 10.5567 10.4455C10.5567 12.0595 9.24827 13.3679 7.63427 13.3679C6.02027 13.3679 4.71186 12.0595 4.71186 10.4455ZM12.5605 10.4455C12.5605 10.0313 12.8963 9.6955 13.3105 9.6955H17.2759C17.6901 9.6955 18.0259 10.0313 18.0259 10.4455C18.0259 10.8597 17.6901 11.1955 17.2759 11.1955H13.3105C12.8963 11.1955 12.5605 10.8597 12.5605 10.4455ZM13.963 14.1696C13.963 13.7554 14.2988 13.4196 14.713 13.4196H17.2759C17.6901 13.4196 18.0259 13.7554 18.0259 14.1696C18.0259 14.5838 17.6901 14.9196 17.2759 14.9196H14.713C14.2988 14.9196 13.963 14.5838 13.963 14.1696Z" fill="black"/>
</svg>
