<svg width="24" height="24" viewBox="0 0 24 24" fill="none" xmlns="http://www.w3.org/2000/svg"><path d="M5.528 3.841 C 4.704 4.057,4.032 4.744,3.820 5.583 C 3.766 5.798,3.760 6.575,3.769 12.103 L 3.780 18.380 3.873 18.629 C 4.130 19.313,4.720 19.895,5.392 20.128 L 5.660 20.220 12.000 20.220 L 18.340 20.220 18.608 20.128 C 19.293 19.891,19.891 19.293,20.128 18.608 L 20.220 18.340 20.220 12.000 L 20.220 5.660 20.128 5.392 C 19.891 4.707,19.284 4.101,18.603 3.869 L 18.340 3.780 12.080 3.772 C 6.018 3.764,5.811 3.766,5.528 3.841 M18.046 5.285 C 18.216 5.321,18.294 5.369,18.463 5.538 C 18.636 5.710,18.679 5.784,18.716 5.963 C 18.749 6.119,18.758 7.840,18.751 12.120 C 18.741 17.767,18.736 18.067,18.667 18.206 C 18.627 18.286,18.531 18.416,18.453 18.494 C 18.169 18.778,18.601 18.760,12.000 18.760 C 5.399 18.760,5.831 18.778,5.547 18.494 C 5.469 18.416,5.373 18.286,5.333 18.206 C 5.264 18.067,5.259 17.767,5.249 12.120 C 5.242 7.840,5.251 6.119,5.284 5.963 C 5.343 5.676,5.654 5.348,5.924 5.288 C 6.187 5.229,17.773 5.226,18.046 5.285 M7.545 7.056 C 6.884 7.302,6.821 8.214,7.442 8.559 C 7.985 8.861,8.659 8.463,8.658 7.841 C 8.657 7.265,8.080 6.858,7.545 7.056 M9.973 7.097 C 9.440 7.345,9.339 8.030,9.776 8.432 C 10.003 8.641,10.224 8.705,10.502 8.643 C 11.300 8.465,11.388 7.378,10.631 7.062 C 10.421 6.974,10.213 6.985,9.973 7.097 M6.859 9.317 C 6.407 9.427,6.245 9.892,6.514 10.311 C 7.171 11.335,8.827 11.789,10.240 11.333 C 10.835 11.140,11.491 10.644,11.698 10.230 C 11.819 9.986,11.824 9.876,11.723 9.655 C 11.638 9.468,11.526 9.376,11.310 9.317 C 11.058 9.249,10.876 9.325,10.639 9.598 C 10.292 9.996,9.945 10.174,9.399 10.235 C 8.620 10.323,7.887 10.081,7.564 9.632 C 7.371 9.362,7.124 9.252,6.859 9.317 M14.450 14.240 C 14.240 14.368,14.153 14.542,14.170 14.802 C 14.187 15.069,14.276 15.207,14.507 15.321 C 14.664 15.399,14.731 15.403,15.634 15.392 C 16.531 15.381,16.602 15.375,16.705 15.298 C 16.992 15.083,17.076 14.744,16.912 14.464 C 16.742 14.176,16.673 14.160,15.561 14.160 C 14.653 14.160,14.570 14.166,14.450 14.240 M12.700 16.069 C 12.558 16.103,12.353 16.287,12.292 16.434 C 12.172 16.721,12.298 17.080,12.573 17.231 C 12.689 17.294,12.873 17.300,14.620 17.300 L 16.540 17.300 16.691 17.206 C 16.896 17.079,17.015 16.840,16.989 16.608 C 16.963 16.383,16.862 16.244,16.639 16.130 C 16.464 16.040,16.457 16.040,14.622 16.045 C 13.609 16.047,12.744 16.058,12.700 16.069 " stroke="none" fill-rule="evenodd" fill="black"></path></svg>