<svg width="24" height="24" viewBox="0 0 24 24" fill="none" xmlns="http://www.w3.org/2000/svg">
<path fill-rule="evenodd" clip-rule="evenodd" d="M7.21126 6.5445C7.31172 5.94177 7.8332 5.5 8.44425 5.5H15.556C16.167 5.5 16.6885 5.94177 16.789 6.5445L17.3649 10H17.2502H6.75H6.63535L7.21126 6.5445ZM5.01146 10.6192L5.73167 6.2979C5.95267 4.97189 7.09994 4 8.44425 4H15.556C16.9003 4 18.0476 4.97189 18.2686 6.2979L18.9888 10.6192C19.6061 11.1235 20.0002 11.8907 20.0002 12.75V16.25C20.0002 17.2165 19.2167 18 18.2502 18H18V19.25C18 19.6642 17.6642 20 17.25 20C16.8358 20 16.5 19.6642 16.5 19.25V18H7.5V19.25C7.5 19.6642 7.16421 20 6.75 20C6.33579 20 6 19.6642 6 19.25V18H5.75C4.7835 18 4 17.2165 4 16.25V12.75C4 11.8907 4.39412 11.1235 5.01146 10.6192ZM6.75 11.5C6.05964 11.5 5.5 12.0596 5.5 12.75V16.25C5.5 16.3881 5.61193 16.5 5.75 16.5H18.2502C18.3883 16.5 18.5002 16.3881 18.5002 16.25V12.75C18.5002 12.0596 17.9406 11.5 17.2502 11.5H6.75ZM8 13C7.44772 13 7 13.4477 7 14C7 14.5523 7.44772 15 8 15C8.55228 15 9 14.5523 9 14C9 13.4477 8.55228 13 8 13ZM15 14C15 13.4477 15.4477 13 16 13C16.5523 13 17 13.4477 17 14C17 14.5523 16.5523 15 16 15C15.4477 15 15 14.5523 15 14Z" fill="#0E1438"/>
</svg>
