<svg width="24" height="24" viewBox="0 0 24 24" fill="none" xmlns="http://www.w3.org/2000/svg"><path d="M11.740 2.818 C 11.501 2.906,9.864 4.570,9.692 4.900 C 9.471 5.325,9.382 5.687,9.384 6.160 C 9.387 6.887,9.603 7.431,10.094 7.949 C 10.399 8.270,10.667 8.461,11.010 8.601 L 11.240 8.695 11.240 9.047 L 11.240 9.400 8.642 9.400 C 6.097 9.400,6.038 9.402,5.818 9.484 C 5.543 9.587,5.232 9.835,5.056 10.090 C 4.809 10.450,4.800 10.532,4.800 12.373 C 4.800 14.218,4.811 14.309,5.074 14.691 L 5.200 14.874 5.200 16.912 C 5.200 18.120,5.216 19.037,5.241 19.165 C 5.350 19.747,5.798 20.233,6.380 20.402 C 6.680 20.489,17.320 20.489,17.620 20.402 C 18.202 20.233,18.650 19.747,18.759 19.165 C 18.784 19.037,18.800 18.120,18.800 16.912 L 18.800 14.874 18.926 14.691 C 19.189 14.309,19.200 14.218,19.200 12.373 C 19.200 10.532,19.191 10.450,18.944 10.090 C 18.768 9.835,18.457 9.587,18.182 9.484 C 17.962 9.402,17.903 9.400,15.358 9.400 L 12.760 9.400 12.761 9.050 L 12.763 8.700 13.131 8.525 C 13.441 8.377,13.555 8.294,13.845 8.005 C 14.126 7.723,14.219 7.598,14.350 7.320 C 14.563 6.873,14.616 6.627,14.611 6.120 C 14.608 5.809,14.585 5.627,14.520 5.420 C 14.349 4.872,14.211 4.684,13.304 3.767 C 12.840 3.297,12.411 2.888,12.351 2.856 C 12.183 2.768,11.920 2.752,11.740 2.818 M12.467 5.050 C 12.712 5.298,12.952 5.580,13.001 5.677 C 13.366 6.410,12.822 7.280,12.000 7.279 C 11.407 7.278,10.937 6.845,10.890 6.257 C 10.854 5.818,10.938 5.656,11.493 5.090 C 11.757 4.821,11.984 4.600,11.997 4.600 C 12.011 4.600,12.222 4.803,12.467 5.050 M17.700 12.376 L 17.700 13.852 17.380 14.029 C 17.204 14.127,16.861 14.313,16.618 14.442 L 16.177 14.678 15.538 14.293 C 14.594 13.724,14.536 13.701,14.080 13.701 C 13.623 13.702,13.579 13.720,12.683 14.258 C 12.334 14.468,12.026 14.640,12.000 14.640 C 11.974 14.640,11.666 14.468,11.317 14.258 C 10.421 13.720,10.377 13.702,9.920 13.701 C 9.464 13.701,9.406 13.724,8.462 14.293 L 7.823 14.678 7.382 14.442 C 7.139 14.313,6.796 14.127,6.620 14.029 L 6.300 13.852 6.289 12.416 C 6.284 11.626,6.288 10.958,6.298 10.930 C 6.314 10.890,7.465 10.882,12.009 10.890 L 17.700 10.900 17.700 12.376 M10.611 15.586 C 11.437 16.083,11.567 16.135,12.000 16.135 C 12.433 16.135,12.563 16.083,13.389 15.586 C 13.743 15.374,14.056 15.200,14.086 15.200 C 14.116 15.200,14.428 15.373,14.780 15.585 C 15.677 16.125,15.701 16.134,16.180 16.137 C 16.570 16.140,16.589 16.136,16.930 15.972 L 17.281 15.803 17.270 17.372 L 17.260 18.940 11.990 18.950 L 6.720 18.960 6.720 17.382 L 6.720 15.804 7.070 15.972 C 7.411 16.136,7.430 16.140,7.820 16.137 C 8.299 16.134,8.323 16.125,9.220 15.585 C 9.572 15.373,9.884 15.200,9.914 15.200 C 9.944 15.200,10.257 15.374,10.611 15.586 " stroke="none" fill-rule="evenodd" fill="black"></path></svg>