<svg width="24" height="24" viewBox="0 0 24 24" fill="none" xmlns="http://www.w3.org/2000/svg"><path d="M8.380 7.976 C 7.998 8.146,7.824 8.571,7.981 8.951 C 8.023 9.052,8.510 9.568,9.491 10.550 L 10.940 12.000 9.491 13.450 C 8.510 14.432,8.023 14.948,7.981 15.049 C 7.794 15.503,8.091 16.015,8.575 16.069 C 8.937 16.110,8.951 16.100,10.530 14.526 L 12.000 13.061 13.470 14.526 C 15.049 16.100,15.063 16.110,15.425 16.069 C 15.909 16.015,16.206 15.503,16.019 15.049 C 15.977 14.948,15.490 14.432,14.509 13.450 L 13.060 12.000 14.509 10.550 C 15.490 9.568,15.977 9.052,16.019 8.951 C 16.260 8.367,15.701 7.767,15.095 7.960 C 14.972 7.999,14.632 8.316,13.470 9.474 L 11.999 10.939 10.550 9.491 C 9.568 8.510,9.052 8.023,8.951 7.981 C 8.771 7.907,8.541 7.905,8.380 7.976 " stroke="none" fill-rule="evenodd" fill="black"></path></svg>