<svg width="24" height="24" viewBox="0 0 24 24" fill="none" xmlns="http://www.w3.org/2000/svg">
<path fill-rule="evenodd" clip-rule="evenodd" d="M12.3055 4.06562C12.1103 3.97813 11.8871 3.97813 11.6919 4.06562L4.44191 7.31562C4.18868 7.42914 4.01882 7.67321 4.00036 7.95011L4.7487 8C4.00036 7.95011 4.00034 7.95041 4.00032 7.95076L4.00026 7.95166L4.00009 7.95425L3.99958 7.96247L3.99793 7.99094C3.9966 8.01517 3.99483 8.0498 3.99292 8.09415C3.98911 8.18283 3.98475 8.31046 3.98219 8.4715C3.97709 8.79335 3.97917 9.24992 4.00752 9.79665C4.06399 10.8858 4.22567 12.3534 4.65317 13.8332C5.07916 15.3078 5.78383 16.8458 6.96056 18.0225C8.15679 19.2188 9.80106 20 11.9987 20C14.1963 20 15.8406 19.2188 17.0368 18.0225C18.2136 16.8458 18.9182 15.3078 19.3442 13.8332C19.7717 12.3534 19.9334 10.8858 19.9899 9.79665C20.0182 9.24992 20.0203 8.79335 20.0152 8.4715C20.0127 8.31046 20.0083 8.18283 20.0045 8.09415C20.0026 8.0498 20.0008 8.01517 19.9995 7.99094L19.9978 7.96247L19.9973 7.95425L19.9971 7.95166L19.9971 7.95076C19.9971 7.95041 19.997 7.95011 19.2487 8L19.997 7.95011C19.9786 7.67321 19.8087 7.42914 19.5555 7.31562L12.3055 4.06562ZM5.48201 8.4953L5.48204 8.49317L11.9987 5.57191L18.5154 8.49317L18.5154 8.4953C18.5201 8.78868 18.5182 9.21101 18.4919 9.71898C18.439 10.7392 18.2882 12.0841 17.9032 13.4168C17.5167 14.7547 16.9088 16.0292 15.9762 16.9619C15.063 17.875 13.8011 18.5 11.9987 18.5C10.1963 18.5 8.93436 17.875 8.02122 16.9619C7.08858 16.0292 6.48074 14.7547 6.09424 13.4168C5.70923 12.0841 5.55841 10.7392 5.50551 9.71898C5.47917 9.21101 5.47735 8.78868 5.48201 8.4953ZM14.8567 10.1891C15.0992 9.85332 15.0236 9.38451 14.6878 9.14199C14.352 8.89947 13.8832 8.97509 13.6407 9.31088L10.9563 13.0277L10.3248 12.2699C10.0597 11.9517 9.58675 11.9087 9.26854 12.1738C8.95033 12.439 8.90734 12.9119 9.17251 13.2301L10.4225 14.7301C10.5708 14.9081 10.7931 15.0076 11.0246 14.9995C11.2562 14.9915 11.471 14.8769 11.6067 14.6891L14.8567 10.1891Z" fill="#0E1438"/>
</svg>
