<svg width="24" height="24" viewBox="0 0 24 24" fill="none" xmlns="http://www.w3.org/2000/svg"><path d="M11.120 3.820 C 10.164 3.960,9.300 4.223,8.500 4.616 C 5.917 5.885,4.181 8.315,3.817 11.170 C 3.735 11.814,3.755 13.022,3.857 13.580 C 4.129 15.070,4.710 16.374,5.595 17.480 C 5.875 17.830,6.514 18.476,6.869 18.767 C 8.009 19.701,9.420 20.325,10.980 20.586 C 11.499 20.672,12.688 20.704,13.060 20.640 C 13.907 20.496,14.253 20.423,14.662 20.299 C 15.572 20.023,16.457 19.578,17.254 18.996 C 17.774 18.616,18.616 17.774,18.996 17.254 C 20.931 14.603,21.204 11.213,19.715 8.315 C 19.331 7.566,18.886 6.957,18.247 6.304 C 16.924 4.952,15.280 4.116,13.393 3.839 C 12.774 3.748,11.674 3.739,11.120 3.820 M12.674 5.384 C 12.930 5.498,13.349 5.906,13.594 6.280 C 14.104 7.059,14.535 8.258,14.758 9.520 C 14.861 10.102,14.960 10.950,14.960 11.250 L 14.960 11.480 12.195 11.480 L 9.431 11.480 9.458 11.130 C 9.644 8.713,10.310 6.718,11.252 5.757 C 11.739 5.259,12.152 5.151,12.674 5.384 M9.159 6.162 C 8.581 7.308,8.139 8.977,8.001 10.540 C 7.976 10.826,7.946 11.155,7.935 11.270 L 7.914 11.480 6.624 11.480 C 5.914 11.480,5.324 11.471,5.314 11.460 C 5.283 11.430,5.393 10.778,5.485 10.440 C 5.999 8.546,7.208 7.018,8.940 6.074 C 9.094 5.990,9.234 5.921,9.251 5.921 C 9.267 5.920,9.226 6.029,9.159 6.162 M15.849 6.288 C 16.321 6.579,16.607 6.804,17.034 7.218 C 17.974 8.127,18.631 9.250,18.935 10.464 C 19.014 10.784,19.120 11.349,19.120 11.458 C 19.120 11.470,18.528 11.480,17.805 11.480 L 16.490 11.480 16.463 11.070 C 16.349 9.354,15.977 7.749,15.394 6.461 C 15.284 6.218,15.185 5.998,15.173 5.970 C 15.142 5.898,15.461 6.048,15.849 6.288 M7.936 13.170 C 7.948 13.285,7.968 13.524,7.981 13.700 C 8.088 15.148,8.524 16.902,9.055 18.019 C 9.179 18.280,9.275 18.498,9.269 18.504 C 9.242 18.531,8.531 18.120,8.190 17.880 C 7.742 17.565,7.080 16.935,6.741 16.500 C 6.006 15.557,5.534 14.477,5.347 13.309 L 5.291 12.960 6.603 12.960 L 7.914 12.960 7.936 13.170 M14.947 13.371 C 14.807 15.653,14.073 17.783,13.107 18.710 C 12.387 19.401,11.712 19.289,10.989 18.359 C 10.742 18.041,10.278 17.144,10.100 16.640 C 9.796 15.781,9.552 14.513,9.457 13.290 L 9.432 12.960 12.202 12.960 L 14.972 12.960 14.947 13.371 M19.119 12.990 C 19.119 13.007,19.093 13.178,19.061 13.371 C 18.742 15.320,17.543 17.087,15.820 18.150 C 15.644 18.259,15.415 18.385,15.311 18.431 L 15.122 18.515 15.256 18.247 C 15.908 16.952,16.330 15.237,16.465 13.330 L 16.491 12.960 17.806 12.960 C 18.529 12.960,19.120 12.973,19.119 12.990 " stroke="none" fill-rule="evenodd" fill="black"></path></svg>