<svg width="24" height="24" viewBox="0 0 24 24" fill="none" xmlns="http://www.w3.org/2000/svg"><path d="M4.200 4.941 C 4.200 4.952,5.510 6.676,7.112 8.771 C 8.713 10.866,10.037 12.602,10.053 12.628 C 10.071 12.658,9.970 12.804,9.788 13.008 C 9.627 13.191,8.366 14.631,6.987 16.210 L 4.480 19.080 5.690 19.078 L 6.900 19.075 9.040 16.618 C 10.217 15.267,11.192 14.161,11.206 14.161 C 11.220 14.160,12.075 15.266,13.106 16.618 L 14.980 19.075 17.390 19.078 C 18.715 19.079,19.800 19.071,19.800 19.061 C 19.800 19.050,18.431 17.230,16.757 15.017 C 15.084 12.804,13.706 10.971,13.696 10.945 C 13.686 10.918,14.826 9.582,16.229 7.976 C 17.632 6.370,18.805 5.025,18.835 4.988 C 18.886 4.924,18.814 4.920,17.694 4.920 L 16.499 4.920 14.521 7.182 C 12.733 9.226,12.537 9.437,12.489 9.372 C 12.461 9.332,11.695 8.315,10.788 7.112 L 9.140 4.924 6.670 4.922 C 5.311 4.921,4.200 4.929,4.200 4.941 M12.687 11.953 C 15.037 15.062,16.960 17.614,16.960 17.623 C 16.960 17.632,16.667 17.640,16.308 17.640 L 15.657 17.640 11.338 11.992 C 8.963 8.886,7.014 6.330,7.006 6.311 C 6.999 6.293,7.313 6.283,7.704 6.289 L 8.414 6.300 12.687 11.953 " stroke="none" fill-rule="evenodd"></path></svg>