<svg width="24" height="24" viewBox="0 0 24 24" fill="none" xmlns="http://www.w3.org/2000/svg">
<path d="M11.3121 12.6835C8.14909 12.6835 5.84035 14.7864 5.20505 17.6132C5.09739 18.0923 5.4864 18.5168 5.97745 18.5168H12.9787M14.2287 7.26683C14.2287 8.87766 12.9229 10.1835 11.3121 10.1835C9.70123 10.1835 8.39543 8.87766 8.39543 7.26683C8.39543 5.65599 9.70123 4.35016 11.3121 4.35016C12.9229 4.35016 14.2287 5.65599 14.2287 7.26683Z" stroke="black" stroke-width="1.25" stroke-linecap="round" stroke-linejoin="round"/>
<path fill-rule="evenodd" clip-rule="evenodd" d="M16.3135 11.0168C14.9327 11.0168 13.8135 12.1361 13.8135 13.5168C13.8135 14.5258 14.4111 15.3952 15.2718 15.7902V18.7333C15.2718 18.8598 15.3293 18.9795 15.4282 19.0586L16.0532 19.5586C16.2054 19.6803 16.4216 19.6803 16.5737 19.5586L17.1987 19.0586C17.2976 18.9795 17.3551 18.8598 17.3551 18.7333V18.0393L16.7301 17.4752L17.3551 16.8502V15.7902C18.2158 15.3952 18.8135 14.5258 18.8135 13.5168C18.8135 12.1361 17.6942 11.0168 16.3135 11.0168ZM15.4801 13.5168C15.4801 13.0566 15.8532 12.6835 16.3135 12.6835C16.7737 12.6835 17.1468 13.0566 17.1468 13.5168C17.1468 13.9771 16.7737 14.3502 16.3135 14.3502C15.8532 14.3502 15.4801 13.9771 15.4801 13.5168Z" fill="black"/>
</svg>
