<svg width="24" height="24" viewBox="0 0 24 24" fill="none" xmlns="http://www.w3.org/2000/svg"><path d="M11.700 2.775 C 11.546 2.847,11.419 2.969,11.330 3.131 C 11.270 3.241,11.257 3.406,11.240 4.260 L 11.220 5.260 10.920 5.306 C 8.993 5.602,7.260 6.767,6.198 8.480 C 5.780 9.153,5.378 10.247,5.299 10.924 C 5.284 11.047,5.260 11.167,5.246 11.191 C 5.228 11.219,4.880 11.238,4.240 11.247 C 3.153 11.261,3.124 11.268,2.888 11.537 C 2.750 11.694,2.699 11.885,2.732 12.125 C 2.762 12.353,2.909 12.546,3.138 12.661 C 3.332 12.758,3.354 12.760,4.285 12.760 C 5.354 12.760,5.253 12.726,5.301 13.100 C 5.360 13.558,5.616 14.367,5.884 14.940 C 6.500 16.259,7.741 17.500,9.060 18.116 C 9.633 18.384,10.442 18.640,10.900 18.699 C 11.274 18.747,11.240 18.646,11.240 19.715 C 11.240 20.646,11.242 20.668,11.339 20.862 C 11.484 21.151,11.665 21.260,12.000 21.260 C 12.335 21.260,12.516 21.151,12.661 20.862 C 12.758 20.668,12.760 20.646,12.760 19.715 C 12.760 18.646,12.726 18.747,13.100 18.699 C 13.558 18.640,14.367 18.384,14.940 18.116 C 16.259 17.500,17.500 16.259,18.116 14.940 C 18.384 14.367,18.640 13.558,18.699 13.100 C 18.747 12.726,18.646 12.760,19.715 12.760 C 20.646 12.760,20.668 12.758,20.862 12.661 C 21.418 12.381,21.420 11.632,20.864 11.328 C 20.759 11.270,20.590 11.258,19.760 11.247 C 19.120 11.238,18.772 11.219,18.754 11.191 C 18.740 11.167,18.716 11.047,18.701 10.924 C 18.648 10.464,18.392 9.650,18.116 9.060 C 17.614 7.985,16.678 6.934,15.629 6.267 C 14.890 5.797,13.939 5.438,13.080 5.306 L 12.780 5.260 12.760 4.260 C 12.741 3.308,12.736 3.252,12.648 3.099 C 12.514 2.866,12.320 2.747,12.046 2.732 C 11.910 2.724,11.772 2.741,11.700 2.775 M11.248 7.937 L 11.260 9.113 11.380 9.283 C 11.693 9.726,12.307 9.726,12.620 9.283 L 12.740 9.113 12.752 7.938 L 12.764 6.763 12.892 6.786 C 14.096 7.002,15.145 7.592,15.976 8.522 C 16.586 9.205,17.061 10.186,17.197 11.047 L 17.227 11.235 16.057 11.247 L 14.887 11.260 14.717 11.380 C 14.274 11.693,14.274 12.307,14.717 12.620 L 14.887 12.740 16.057 12.752 L 17.227 12.764 17.198 12.952 C 17.059 13.824,16.574 14.819,15.956 15.501 C 15.096 16.450,14.190 16.952,12.852 17.223 L 12.764 17.240 12.752 16.067 L 12.740 14.894 12.630 14.728 C 12.338 14.288,11.662 14.288,11.370 14.728 L 11.260 14.894 11.248 16.067 L 11.236 17.240 11.148 17.223 C 9.810 16.952,8.904 16.450,8.044 15.501 C 7.426 14.819,6.941 13.824,6.802 12.952 L 6.773 12.764 7.943 12.752 L 9.113 12.740 9.283 12.620 C 9.726 12.307,9.726 11.693,9.283 11.380 L 9.113 11.260 7.938 11.247 L 6.763 11.235 6.786 11.107 C 7.131 9.182,8.467 7.625,10.320 6.989 C 10.559 6.906,11.051 6.782,11.208 6.763 C 11.223 6.761,11.241 7.289,11.248 7.937 " stroke="none" fill-rule="evenodd" fill="black"></path></svg>