<svg width="24" height="24" viewBox="0 0 24 24" fill="none" xmlns="http://www.w3.org/2000/svg"><path d="M9.180 4.663 C 8.895 4.811,8.760 5.029,8.760 5.341 C 8.760 5.442,8.789 5.582,8.824 5.652 C 8.859 5.722,10.285 7.180,11.994 8.890 L 15.100 12.000 11.994 15.110 C 10.285 16.820,8.859 18.278,8.824 18.348 C 8.751 18.495,8.740 18.783,8.802 18.947 C 8.937 19.305,9.374 19.494,9.768 19.364 C 9.864 19.332,10.797 18.423,13.106 16.110 C 14.869 14.345,16.342 12.840,16.379 12.766 C 16.619 12.288,16.619 11.712,16.379 11.234 C 16.291 11.059,9.980 4.739,9.815 4.660 C 9.650 4.582,9.333 4.584,9.180 4.663 " stroke="none" fill-rule="evenodd" fill="black"></path></svg>