<svg width="24" height="24" viewBox="0 0 24 24" fill="none" xmlns="http://www.w3.org/2000/svg">
<path d="M4.41051 11.9211C6.34441 8.29798 9.21822 6.5833 11.9998 6.58331C14.7814 6.58333 17.6553 8.29806 19.5892 11.9212L20.6919 11.3326C18.5916 7.3977 15.3418 5.33334 11.9998 5.33331C8.65785 5.33329 5.40807 7.3976 3.30776 11.3326L4.41051 11.9211ZM3.30776 12.6673C5.40807 16.6022 8.65784 18.6666 11.9998 18.6666C15.3418 18.6667 18.5916 16.6023 20.6919 12.6674L19.5892 12.0787C17.6553 15.7019 14.7814 17.4166 11.9998 17.4166C9.21823 17.4166 6.34441 15.7018 4.41051 12.0786L3.30776 12.6673ZM3.30776 11.3326C3.08621 11.7476 3.08621 12.2522 3.30776 12.6673L4.41051 12.0786C4.3853 12.0315 4.3853 11.9684 4.41051 11.9211L3.30776 11.3326ZM19.5892 11.9212C19.6143 11.9685 19.6143 12.0316 19.5892 12.0787L20.6919 12.6674C20.9134 12.2523 20.9134 11.7477 20.6919 11.3326L19.5892 11.9212ZM14.0832 12C14.0832 13.1506 13.1504 14.0833 11.9998 14.0833V15.3333C13.8408 15.3333 15.3332 13.8409 15.3332 12H14.0832ZM11.9998 14.0833C10.8493 14.0833 9.9165 13.1506 9.9165 12H8.6665C8.6665 13.8409 10.1589 15.3333 11.9998 15.3333V14.0833ZM9.9165 12C9.9165 10.8494 10.8493 9.91665 11.9998 9.91665V8.66665C10.1589 8.66665 8.6665 10.159 8.6665 12H9.9165ZM11.9998 9.91665C13.1504 9.91665 14.0832 10.8494 14.0832 12H15.3332C15.3332 10.159 13.8408 8.66665 11.9998 8.66665V9.91665Z" fill="black"/>
</svg>
