<svg width="24" height="24" viewBox="0 0 24 24" fill="none" xmlns="http://www.w3.org/2000/svg">
<path fill-rule="evenodd" clip-rule="evenodd" d="M10.6046 5.59998C9.43413 5.59998 8.48648 6.54776 8.48648 7.71542C8.48648 8.88308 9.43413 9.83086 10.6046 9.83086C11.7751 9.83086 12.7228 8.88308 12.7228 7.71542C12.7228 6.54776 11.7751 5.59998 10.6046 5.59998ZM6.98648 7.71542C6.98648 5.718 8.60704 4.09998 10.6046 4.09998C12.6022 4.09998 14.2228 5.718 14.2228 7.71542C14.2228 9.71284 12.6022 11.3309 10.6046 11.3309C8.60704 11.3309 6.98648 9.71284 6.98648 7.71542ZM10.8259 13.7555C7.55079 13.7555 6.13999 15.1358 5.50616 16.2052C5.44564 16.3073 5.43683 16.3823 5.44024 16.4321C5.44386 16.485 5.46403 16.5462 5.51351 16.6116C5.61711 16.7485 5.84101 16.8843 6.14826 16.8843H10.8259C11.2402 16.8843 11.5759 17.2201 11.5759 17.6343C11.5759 18.0485 11.2402 18.3843 10.8259 18.3843H6.14826C5.41461 18.3843 4.72969 18.0617 4.31728 17.5166C3.88433 16.9443 3.78796 16.1622 4.21578 15.4404C5.12037 13.9142 7.02227 12.2555 10.8259 12.2555C11.2402 12.2555 11.5759 12.5913 11.5759 13.0055C11.5759 13.4197 11.2402 13.7555 10.8259 13.7555ZM13.8863 12.1183C13.3028 12.1183 12.7728 12.4591 12.531 12.9904L12.2786 13.5453C12.2611 13.5836 12.2454 13.6225 12.2313 13.662C12.1767 13.7474 12.145 13.849 12.145 13.9579C12.145 13.994 12.146 14.0304 12.148 14.0669C12.146 14.0982 12.145 14.1297 12.145 14.1612V18.4135C12.145 19.2357 12.8121 19.9014 13.6339 19.9014H18.5628C19.3846 19.9014 20.0517 19.2357 20.0517 18.4135V14.1612C20.0517 14.1277 20.0505 14.0943 20.0483 14.0611C20.0501 14.0265 20.051 13.9921 20.051 13.9579C20.051 13.85 20.0199 13.7494 19.9662 13.6645C19.952 13.6242 19.9359 13.5844 19.9181 13.5453L19.6657 12.9904C19.4239 12.4591 18.8939 12.1183 18.3103 12.1183H13.8863ZM18.8073 14.4193C18.874 14.3358 18.924 14.2165 18.9428 14.0789C18.937 14.0521 18.9283 14.0259 18.9169 14.0008L18.6644 13.4459C18.6014 13.3075 18.4631 13.2183 18.3103 13.2183H13.8863C13.7336 13.2183 13.5952 13.3075 13.5323 13.4459L13.2798 14.0008C13.2681 14.0266 13.2593 14.0534 13.2535 14.0808C13.2725 14.2177 13.3223 14.3362 13.3887 14.4193C13.4632 14.5125 13.5708 14.5803 13.7512 14.5803C14.1102 14.5803 14.3666 14.2834 14.3746 13.9728L14.3745 13.9579C14.3745 13.6541 14.6208 13.4079 14.9245 13.4079H14.9247H14.9248C15.2285 13.4079 15.4748 13.6541 15.4748 13.9579L15.4747 13.9728C15.4827 14.2834 15.7391 14.5803 16.0981 14.5803C16.4555 14.5803 16.7111 14.2861 16.7213 13.977L16.7212 13.9579C16.7212 13.6541 16.9674 13.4079 17.2712 13.4079C17.575 13.4079 17.8212 13.6541 17.8212 13.9579C17.8212 13.9643 17.8213 13.9706 17.8215 13.977L17.8216 13.9579L18.8073 14.4193ZM18.4448 15.6803C17.9675 15.6803 17.5663 15.4978 17.2714 15.2184C16.9765 15.4978 16.5753 15.6803 16.0981 15.6803C15.6208 15.6803 15.2196 15.4978 14.9247 15.2183C14.6297 15.4978 14.2285 15.6803 13.7512 15.6803C13.5695 15.6803 13.4002 15.653 13.245 15.6028V18.4135C13.245 18.6272 13.4186 18.8014 13.6339 18.8014H14.4927V17.7097C14.4927 16.8874 15.1598 16.2217 15.9815 16.2217H16.2162C17.038 16.2217 17.7051 16.8874 17.7051 17.7097V18.8014H18.5628C18.778 18.8014 18.9517 18.6272 18.9517 18.4135V15.6026C18.7963 15.6529 18.6267 15.6803 18.4448 15.6803ZM15.9815 17.3217C15.7663 17.3217 15.5927 17.4959 15.5927 17.7097V18.8011H16.6051V17.7097C16.6051 17.4959 16.4315 17.3217 16.2162 17.3217H15.9815Z" fill="black"/>
</svg>
