<svg width="24" height="24" viewBox="0 0 24 24" fill="none" xmlns="http://www.w3.org/2000/svg"><path d="M11.840 4.326 C 11.367 4.362,11.046 4.452,10.574 4.681 C 9.582 5.161,8.932 5.940,8.620 7.020 C 8.252 8.295,8.663 9.744,9.647 10.643 L 9.848 10.827 9.074 12.100 L 8.300 13.373 7.951 13.380 C 7.637 13.386,7.572 13.402,7.305 13.534 C 6.942 13.713,6.647 14.017,6.513 14.350 C 6.438 14.537,6.420 14.655,6.420 14.981 C 6.420 15.353,6.429 15.401,6.551 15.647 C 6.717 15.985,7.065 16.317,7.389 16.445 C 7.572 16.518,7.699 16.538,8.000 16.538 C 8.345 16.539,8.405 16.528,8.650 16.412 C 8.952 16.269,9.268 15.979,9.397 15.727 C 9.501 15.522,9.600 15.149,9.600 14.960 C 9.600 14.735,9.488 14.358,9.360 14.149 L 9.242 13.957 10.260 12.285 C 10.819 11.366,11.288 10.586,11.301 10.552 C 11.318 10.508,11.225 10.433,10.957 10.276 C 10.490 10.002,10.076 9.576,9.868 9.154 C 9.306 8.015,9.644 6.623,10.659 5.899 C 11.713 5.147,13.114 5.265,14.016 6.181 C 14.698 6.874,14.918 7.849,14.619 8.861 C 14.598 8.934,14.644 8.957,15.099 9.097 C 15.398 9.190,15.617 9.238,15.637 9.216 C 15.693 9.156,15.792 8.761,15.841 8.400 C 15.981 7.364,15.572 6.190,14.797 5.404 C 14.017 4.614,12.987 4.238,11.840 4.326 M11.740 6.454 C 11.119 6.660,10.705 7.128,10.596 7.745 C 10.485 8.375,10.843 9.080,11.431 9.391 C 11.686 9.525,12.046 9.613,12.265 9.593 L 12.408 9.580 12.907 10.480 C 13.182 10.975,13.597 11.731,13.831 12.160 C 14.064 12.589,14.258 12.945,14.262 12.951 C 14.265 12.957,14.464 12.862,14.704 12.741 C 14.944 12.620,15.247 12.494,15.378 12.460 C 15.684 12.383,16.306 12.384,16.640 12.462 C 17.490 12.662,18.194 13.333,18.486 14.220 C 18.606 14.586,18.615 15.292,18.505 15.660 C 18.249 16.512,17.555 17.206,16.700 17.463 C 16.529 17.515,16.328 17.535,16.000 17.536 C 15.602 17.536,15.498 17.521,15.224 17.426 C 14.838 17.292,14.614 17.164,14.297 16.895 L 14.053 16.689 13.682 17.086 C 13.250 17.549,13.242 17.485,13.775 17.886 C 14.474 18.413,15.163 18.643,16.040 18.643 C 17.614 18.642,19.034 17.603,19.517 16.100 C 20.084 14.337,19.290 12.479,17.620 11.656 C 17.061 11.381,16.729 11.308,16.040 11.307 C 15.459 11.306,15.431 11.310,14.800 11.503 C 14.756 11.516,14.562 11.197,14.080 10.320 C 13.717 9.659,13.415 9.094,13.408 9.064 C 13.401 9.034,13.448 8.931,13.513 8.835 C 13.702 8.550,13.772 8.279,13.752 7.904 C 13.721 7.308,13.400 6.823,12.860 6.557 C 12.643 6.450,12.546 6.428,12.251 6.415 C 12.027 6.406,11.842 6.419,11.740 6.454 M7.001 11.405 C 5.948 11.706,5.037 12.498,4.613 13.480 C 4.246 14.330,4.202 15.225,4.483 16.100 C 4.782 17.030,5.500 17.856,6.385 18.284 C 7.532 18.841,8.959 18.748,9.985 18.050 C 10.730 17.544,11.283 16.760,11.500 15.904 L 11.592 15.540 13.055 15.530 L 14.518 15.519 14.617 15.714 C 14.757 15.990,15.055 16.272,15.360 16.417 C 15.595 16.528,15.657 16.540,16.000 16.538 C 16.300 16.537,16.429 16.518,16.611 16.445 C 16.935 16.317,17.283 15.985,17.449 15.647 C 17.572 15.398,17.580 15.355,17.580 14.961 C 17.580 14.581,17.569 14.518,17.468 14.312 C 17.156 13.677,16.484 13.299,15.815 13.382 C 15.343 13.441,14.820 13.809,14.603 14.234 L 14.519 14.399 12.549 14.410 L 10.580 14.420 10.555 14.960 C 10.527 15.578,10.450 15.871,10.211 16.276 C 9.888 16.823,9.386 17.229,8.789 17.426 C 8.509 17.518,8.391 17.534,8.000 17.535 C 7.233 17.536,6.720 17.324,6.178 16.782 C 5.688 16.292,5.460 15.795,5.416 15.120 C 5.348 14.086,5.912 13.116,6.844 12.666 C 7.051 12.567,7.288 12.473,7.370 12.458 C 7.453 12.443,7.529 12.418,7.539 12.402 C 7.556 12.375,7.302 11.366,7.273 11.341 C 7.266 11.335,7.143 11.364,7.001 11.405 " stroke="none" fill-rule="evenodd" fill="black"></path></svg>