<svg width="24" height="24" viewBox="0 0 24 24" fill="none" xmlns="http://www.w3.org/2000/svg">
<path d="M8.89286 4.75L9.51689 4.33397C9.3778 4.12533 9.14362 4 8.89286 4V4.75ZM10.9643 7.85714L11.4946 8.38747C11.7474 8.13467 11.7866 7.73858 11.5883 7.44112L10.9643 7.85714ZM9.32669 9.49474L8.79636 8.96441L8.79636 8.96441L9.32669 9.49474ZM16.1429 13.0357L16.5589 12.4117C16.2614 12.2134 15.8653 12.2526 15.6125 12.5054L16.1429 13.0357ZM19.25 15.1071H20C20 14.8564 19.8747 14.6222 19.666 14.4831L19.25 15.1071ZM9.12829 10.494L9.80627 10.1733L9.80627 10.1733L9.12829 10.494ZM10.9643 13.0357L10.4467 13.5785L10.9643 13.0357ZM13.4821 14.8321L13.1379 15.4984L13.1379 15.4984L13.4821 14.8321ZM6.06818 5.5H8.89286V4H6.06818V5.5ZM8.26882 5.16603L10.3402 8.27317L11.5883 7.44112L9.51689 4.33397L8.26882 5.16603ZM10.434 7.32681L8.79636 8.96441L9.85702 10.0251L11.4946 8.38747L10.434 7.32681ZM15.0621 15.1772L16.6732 13.566L15.6125 12.5054L14.0014 14.1165L15.0621 15.1772ZM15.7268 13.6598L18.834 15.7312L19.666 14.4831L16.5589 12.4117L15.7268 13.6598ZM18.5 15.1071V17.9318H20V15.1071H18.5ZM8.4503 10.8146C8.76338 11.4765 9.3839 12.5651 10.4467 13.5785L11.4818 12.4929C10.5915 11.6439 10.0676 10.7257 9.80627 10.1733L8.4503 10.8146ZM10.4467 13.5785C11.4665 14.5508 12.4985 15.1681 13.1379 15.4984L13.8263 14.1657C13.2731 13.8799 12.3698 13.3396 11.4818 12.4929L10.4467 13.5785ZM18.5 17.9318C18.5 18.2456 18.2456 18.5 17.9318 18.5V20C19.074 20 20 19.074 20 17.9318H18.5ZM14.0014 14.1165C13.9656 14.1523 13.9272 14.1695 13.897 14.1751C13.8692 14.1803 13.8469 14.1764 13.8263 14.1657L13.1379 15.4984C13.8109 15.8461 14.5774 15.6618 15.0621 15.1772L14.0014 14.1165ZM17.9318 18.5C11.0659 18.5 5.5 12.9341 5.5 6.06818H4C4 13.7625 10.2375 20 17.9318 20V18.5ZM8.79636 8.96441C8.33691 9.42386 8.13621 10.1506 8.4503 10.8146L9.80627 10.1733C9.79948 10.1589 9.79661 10.1431 9.80139 10.1203C9.80672 10.0949 9.82266 10.0594 9.85702 10.0251L8.79636 8.96441ZM6.06818 4C4.92596 4 4 4.92596 4 6.06818H5.5C5.5 5.75438 5.75438 5.5 6.06818 5.5V4Z" fill="#0E1438"/>
</svg>
