<svg width="24" height="24" viewBox="0 0 24 24" fill="none" xmlns="http://www.w3.org/2000/svg"><path d="M17.840 3.296 C 17.342 3.407,17.344 3.405,14.687 6.054 C 13.285 7.453,12.148 8.619,12.087 8.720 L 11.980 8.900 11.968 10.314 C 11.954 11.842,11.973 12.044,12.147 12.272 C 12.360 12.552,12.399 12.558,14.097 12.559 C 15.527 12.560,15.624 12.555,15.777 12.481 C 15.886 12.428,16.780 11.560,18.483 9.851 C 20.869 7.457,21.033 7.284,21.141 7.040 C 21.290 6.700,21.324 6.197,21.220 5.874 C 21.103 5.513,20.956 5.333,20.032 4.412 C 19.079 3.464,18.949 3.369,18.482 3.280 C 18.220 3.231,18.121 3.233,17.840 3.296 M5.080 4.294 C 4.959 4.321,4.773 4.387,4.666 4.440 C 4.397 4.576,4.030 4.979,3.914 5.267 L 3.820 5.500 3.808 12.360 C 3.799 17.457,3.807 19.277,3.842 19.440 C 3.983 20.108,4.514 20.607,5.200 20.718 C 5.558 20.775,18.519 20.776,18.880 20.718 C 19.626 20.599,20.173 20.044,20.279 19.300 C 20.334 18.910,20.333 13.188,20.278 12.989 C 20.225 12.801,20.023 12.565,19.852 12.494 C 19.534 12.361,19.116 12.486,18.927 12.772 L 18.820 12.934 18.809 16.034 C 18.801 18.212,18.785 19.150,18.754 19.187 C 18.691 19.263,5.382 19.266,5.332 19.190 C 5.290 19.125,5.268 6.285,5.310 5.998 L 5.341 5.780 8.441 5.760 L 11.540 5.740 11.710 5.649 C 12.067 5.459,12.211 5.025,12.033 4.682 C 11.982 4.585,11.871 4.450,11.786 4.382 L 11.633 4.260 8.466 4.253 C 6.113 4.248,5.243 4.258,5.080 4.294 M19.030 5.530 C 19.453 5.953,19.800 6.326,19.800 6.359 C 19.800 6.392,18.752 7.467,17.470 8.749 L 15.141 11.080 14.310 11.080 L 13.480 11.080 13.480 10.230 L 13.480 9.379 15.791 7.070 C 17.281 5.580,18.130 4.760,18.180 4.760 C 18.229 4.760,18.551 5.051,19.030 5.530 " stroke="none" fill-rule="evenodd"></path></svg>