<svg width="24" height="24" viewBox="0 0 24 24" fill="none" xmlns="http://www.w3.org/2000/svg"><path d="M6.289 4.205 C 5.738 4.296,5.246 4.735,5.074 5.290 C 5.003 5.516,5.000 5.817,5.000 11.996 C 5.000 17.789,5.007 18.488,5.064 18.683 C 5.223 19.228,5.665 19.651,6.210 19.780 C 6.585 19.868,17.415 19.868,17.790 19.780 C 18.335 19.651,18.777 19.228,18.936 18.683 C 18.993 18.488,19.000 17.789,19.000 11.996 C 19.000 5.817,18.997 5.516,18.926 5.290 C 18.748 4.717,18.265 4.298,17.675 4.202 C 17.358 4.151,6.598 4.153,6.289 4.205 M17.480 12.000 L 17.480 18.320 12.000 18.320 L 6.520 18.320 6.520 12.000 L 6.520 5.680 12.000 5.680 L 17.480 5.680 17.480 12.000 M11.381 7.986 C 9.911 8.301,8.920 9.810,9.217 11.279 C 9.349 11.928,9.595 12.360,10.101 12.833 C 10.639 13.336,11.247 13.572,12.000 13.572 C 12.739 13.573,13.358 13.335,13.883 12.849 C 14.565 12.217,14.884 11.450,14.827 10.578 C 14.713 8.837,13.093 7.619,11.381 7.986 M12.595 9.556 C 12.821 9.673,13.089 9.951,13.206 10.190 C 13.342 10.469,13.356 10.903,13.238 11.220 C 13.117 11.546,12.789 11.876,12.468 11.994 C 11.966 12.180,11.458 12.067,11.076 11.684 C 10.713 11.322,10.579 10.777,10.740 10.321 C 10.866 9.963,11.195 9.627,11.548 9.495 C 11.785 9.407,12.374 9.441,12.595 9.556 M9.533 14.701 C 9.121 14.948,9.049 15.460,9.374 15.829 C 9.599 16.087,9.530 16.080,12.000 16.080 C 14.470 16.080,14.401 16.087,14.626 15.829 C 14.952 15.458,14.878 14.943,14.463 14.700 L 14.293 14.600 11.996 14.600 L 9.700 14.601 9.533 14.701 " stroke="none" fill-rule="evenodd" fill="black"></path></svg>