<svg width="24" height="24" viewBox="0 0 24 24" fill="none" xmlns="http://www.w3.org/2000/svg"><path d="M14.495 5.367 C 14.448 5.389,14.261 5.628,14.079 5.896 L 13.749 6.385 13.424 6.285 C 13.131 6.195,13.030 6.185,12.360 6.183 C 11.706 6.180,11.584 6.190,11.310 6.270 C 11.139 6.320,10.975 6.360,10.946 6.360 C 10.916 6.360,10.770 6.175,10.621 5.950 C 10.472 5.725,10.313 5.500,10.268 5.450 C 10.106 5.272,9.800 5.372,9.800 5.603 C 9.800 5.658,9.933 5.900,10.103 6.154 C 10.270 6.403,10.400 6.612,10.393 6.618 C 10.386 6.624,10.299 6.679,10.200 6.741 C 9.868 6.946,9.550 7.218,9.311 7.500 C 9.077 7.776,8.766 8.349,8.686 8.650 L 8.646 8.800 12.326 8.800 L 16.006 8.800 15.980 8.670 C 15.966 8.598,15.865 8.357,15.757 8.133 C 15.596 7.797,15.502 7.663,15.225 7.373 C 15.040 7.178,14.752 6.931,14.585 6.821 C 14.417 6.712,14.280 6.608,14.280 6.590 C 14.280 6.573,14.415 6.356,14.580 6.109 C 14.745 5.863,14.880 5.631,14.880 5.595 C 14.880 5.507,14.760 5.372,14.660 5.347 C 14.616 5.335,14.542 5.345,14.495 5.367 M11.123 7.591 C 11.331 7.777,11.285 8.093,11.032 8.224 C 10.930 8.277,10.880 8.281,10.758 8.244 C 10.467 8.157,10.381 7.812,10.597 7.597 C 10.754 7.439,10.951 7.437,11.123 7.591 M14.002 7.521 C 14.099 7.573,14.200 7.765,14.200 7.897 C 14.200 7.953,14.148 8.057,14.084 8.128 C 13.988 8.236,13.939 8.258,13.800 8.258 C 13.661 8.258,13.612 8.236,13.516 8.128 C 13.452 8.057,13.400 7.953,13.400 7.897 C 13.400 7.770,13.498 7.577,13.590 7.523 C 13.681 7.470,13.905 7.469,14.002 7.521 M7.420 9.434 C 7.252 9.539,7.134 9.676,7.062 9.849 C 7.009 9.976,7.000 10.282,7.001 12.009 C 7.002 13.868,7.007 14.032,7.075 14.180 C 7.224 14.509,7.617 14.729,7.920 14.654 L 8.060 14.620 8.060 12.000 L 8.060 9.380 7.800 9.369 C 7.601 9.361,7.512 9.376,7.420 9.434 M8.609 12.417 L 8.620 15.473 8.740 15.644 C 8.806 15.737,8.939 15.856,9.036 15.907 L 9.213 16.000 12.316 15.999 C 15.232 15.998,15.430 15.994,15.580 15.925 C 15.782 15.834,15.983 15.608,16.038 15.411 C 16.065 15.312,16.080 14.245,16.080 12.310 L 16.080 9.360 12.339 9.360 L 8.599 9.360 8.609 12.417 M16.600 11.996 L 16.600 14.633 16.756 14.659 C 17.119 14.721,17.541 14.437,17.633 14.070 C 17.696 13.820,17.698 10.169,17.636 9.940 C 17.535 9.570,17.247 9.360,16.842 9.360 L 16.600 9.360 16.600 11.996 M9.680 17.192 C 9.680 17.834,9.685 17.874,9.783 18.071 C 10.097 18.702,10.916 18.861,11.426 18.390 C 11.749 18.093,11.778 18.000,11.793 17.210 L 11.807 16.520 10.743 16.520 L 9.680 16.520 9.680 17.192 M12.880 17.192 C 12.880 17.834,12.885 17.874,12.983 18.071 C 13.297 18.702,14.116 18.861,14.626 18.390 C 14.949 18.093,14.978 18.000,14.993 17.210 L 15.007 16.520 13.943 16.520 L 12.880 16.520 12.880 17.192 " stroke="none" fill-rule="evenodd"></path></svg>