<svg width="24" height="24" viewBox="0 0 24 24" fill="none" xmlns="http://www.w3.org/2000/svg"><path d="M11.460 3.786 C 10.806 3.891,10.084 4.208,9.571 4.617 C 8.495 5.474,7.945 6.908,8.179 8.245 C 8.460 9.849,9.650 11.092,11.220 11.419 C 11.639 11.507,12.361 11.507,12.780 11.419 C 14.350 11.092,15.540 9.849,15.821 8.245 C 16.110 6.596,15.234 4.908,13.700 4.159 C 13.141 3.887,12.743 3.792,12.100 3.778 C 11.814 3.772,11.526 3.776,11.460 3.786 M12.580 5.328 C 13.398 5.507,14.105 6.221,14.305 7.070 C 14.398 7.466,14.362 8.092,14.226 8.451 C 13.875 9.374,12.976 10.000,12.000 10.000 C 11.234 10.000,10.445 9.578,10.023 8.942 C 9.779 8.575,9.674 8.240,9.651 7.760 C 9.628 7.272,9.692 6.931,9.876 6.568 C 10.382 5.565,11.444 5.078,12.580 5.328 M6.880 11.707 C 6.230 11.809,5.596 12.068,5.120 12.428 C 3.021 14.011,3.030 17.117,5.138 18.670 C 6.153 19.419,7.569 19.617,8.749 19.176 C 9.618 18.851,10.374 18.200,10.816 17.396 C 11.394 16.344,11.434 14.997,10.920 13.889 C 10.629 13.263,10.018 12.591,9.407 12.225 C 9.047 12.009,8.440 11.786,8.040 11.722 C 7.792 11.683,7.092 11.673,6.880 11.707 M15.920 11.723 C 15.799 11.745,15.524 11.822,15.310 11.896 C 14.124 12.302,13.217 13.264,12.856 14.500 C 12.713 14.988,12.679 15.754,12.778 16.243 C 12.956 17.120,13.309 17.761,13.945 18.360 C 15.468 19.795,17.832 19.757,19.314 18.274 C 20.820 16.769,20.829 14.301,19.333 12.832 C 18.761 12.269,18.310 12.009,17.540 11.793 C 17.212 11.702,16.271 11.661,15.920 11.723 M8.125 13.278 C 8.839 13.499,9.453 14.114,9.685 14.840 C 9.802 15.205,9.802 15.875,9.685 16.240 C 9.499 16.823,8.998 17.412,8.465 17.674 C 7.750 18.027,6.819 17.983,6.176 17.567 C 5.701 17.260,5.338 16.801,5.157 16.280 C 5.084 16.070,5.066 15.931,5.065 15.560 C 5.065 15.297,5.086 15.023,5.116 14.921 C 5.347 14.126,6.099 13.395,6.840 13.245 C 6.961 13.221,7.096 13.193,7.140 13.182 C 7.301 13.146,7.877 13.202,8.125 13.278 M17.220 13.254 C 17.966 13.455,18.661 14.151,18.884 14.921 C 18.914 15.023,18.935 15.297,18.935 15.560 C 18.934 15.931,18.916 16.070,18.843 16.280 C 18.664 16.797,18.296 17.261,17.823 17.568 C 17.182 17.983,16.250 18.026,15.535 17.674 C 15.199 17.509,14.745 17.086,14.549 16.755 C 14.110 16.016,14.107 15.063,14.541 14.340 C 14.895 13.749,15.510 13.320,16.174 13.201 C 16.428 13.156,16.952 13.182,17.220 13.254 " stroke="none" fill-rule="evenodd" fill="black"></path></svg>