<svg width="24" height="24" viewBox="0 0 24 24" fill="none" xmlns="http://www.w3.org/2000/svg"><path d="M11.700 7.156 C 11.506 7.245,11.384 7.372,11.302 7.569 C 11.249 7.695,11.240 7.979,11.240 9.477 L 11.240 11.236 9.430 11.248 C 7.467 11.261,7.507 11.257,7.292 11.487 C 6.928 11.876,7.069 12.489,7.569 12.698 C 7.695 12.751,7.979 12.760,9.479 12.760 L 11.240 12.760 11.241 14.530 C 11.242 16.165,11.247 16.312,11.316 16.460 C 11.594 17.064,12.406 17.064,12.684 16.460 C 12.753 16.312,12.758 16.165,12.759 14.530 L 12.760 12.760 14.530 12.759 C 16.165 12.758,16.312 12.753,16.460 12.684 C 16.654 12.595,16.776 12.468,16.858 12.271 C 17.004 11.922,16.851 11.520,16.500 11.326 C 16.394 11.268,16.165 11.259,14.570 11.248 L 12.760 11.236 12.759 9.468 C 12.758 7.835,12.753 7.688,12.684 7.540 C 12.503 7.148,12.077 6.982,11.700 7.156 " stroke="none" fill-rule="evenodd" fill="black"></path></svg>