<svg width="24" height="24" viewBox="0 0 24 24" fill="none" xmlns="http://www.w3.org/2000/svg">
<g clip-path="url(#clip0_424_148)">
<path d="M11.9983 4.74234V3.47296M6.86638 17.1321L5.9688 18.0297M11.9983 20.5272V19.2578M18.0277 5.97055L17.13 6.86814M19.2557 12.0001H20.5251M17.13 17.1321L18.0277 18.0297M3.47119 12.0001H4.74057M5.96873 5.9705L6.86632 6.86809M15.0918 8.90649C16.8003 10.6151 16.8003 13.3851 15.0918 15.0936C13.3833 16.8022 10.6132 16.8022 8.90462 15.0936C7.19607 13.3851 7.19607 10.6151 8.90462 8.90649C10.6132 7.19795 13.3833 7.19795 15.0918 8.90649Z" stroke="black" stroke-width="1.5" stroke-linecap="round" stroke-linejoin="round"/>
</g>
<defs>
<clipPath id="clip0_424_148">
<rect width="20" height="20" fill="white" transform="translate(2 2)"/>
</clipPath>
</defs>
</svg>
