<svg width="24" height="24" viewBox="0 0 24 24" fill="none" xmlns="http://www.w3.org/2000/svg"><path d="M11.635 2.773 C 11.398 2.861,11.199 3.002,11.083 3.162 C 11.023 3.244,10.510 4.281,9.943 5.466 C 9.375 6.651,8.899 7.632,8.885 7.647 C 8.871 7.662,7.757 7.820,6.410 7.997 C 3.737 8.348,3.734 8.349,3.454 8.646 C 3.228 8.887,3.142 9.105,3.141 9.440 C 3.139 9.983,3.071 9.904,5.573 12.262 C 6.705 13.329,6.961 13.590,6.945 13.657 C 6.844 14.067,6.080 18.322,6.080 18.471 C 6.080 19.180,6.768 19.748,7.450 19.602 C 7.593 19.571,8.334 19.192,9.804 18.398 C 10.984 17.761,11.972 17.240,12.000 17.240 C 12.028 17.240,13.016 17.761,14.196 18.398 C 15.666 19.192,16.407 19.571,16.550 19.602 C 17.231 19.748,17.920 19.180,17.920 18.474 C 17.920 18.326,17.156 14.071,17.055 13.657 C 17.039 13.590,17.296 13.328,18.427 12.262 C 20.929 9.904,20.861 9.983,20.859 9.440 C 20.858 9.105,20.772 8.887,20.546 8.646 C 20.266 8.349,20.263 8.348,17.590 7.997 C 16.243 7.820,15.129 7.662,15.115 7.647 C 15.101 7.632,14.618 6.637,14.042 5.436 C 13.467 4.235,12.944 3.191,12.882 3.115 C 12.697 2.891,12.394 2.749,12.063 2.733 C 11.889 2.724,11.724 2.739,11.635 2.773 M12.959 6.645 C 13.610 8.009,13.943 8.660,14.047 8.778 C 14.306 9.073,14.364 9.086,16.761 9.400 C 17.959 9.557,18.942 9.689,18.946 9.693 C 18.950 9.697,18.332 10.285,17.573 11.000 C 15.534 12.921,15.522 12.935,15.519 13.405 C 15.518 13.501,15.692 14.521,15.905 15.671 C 16.118 16.821,16.282 17.771,16.271 17.783 C 16.259 17.794,15.478 17.386,14.535 16.876 C 12.303 15.669,12.327 15.680,12.000 15.680 C 11.673 15.680,11.697 15.669,9.465 16.876 C 8.522 17.386,7.741 17.794,7.729 17.782 C 7.717 17.770,7.882 16.820,8.095 15.670 C 8.308 14.521,8.482 13.501,8.481 13.405 C 8.478 12.935,8.466 12.921,6.427 11.000 C 5.668 10.285,5.050 9.697,5.054 9.693 C 5.058 9.689,6.041 9.557,7.239 9.400 C 9.635 9.086,9.694 9.073,9.952 8.779 C 10.056 8.662,10.391 8.005,11.041 6.645 C 11.557 5.565,11.989 4.681,12.000 4.681 C 12.011 4.681,12.442 5.565,12.959 6.645 " stroke="none" fill-rule="evenodd" fill="black"></path></svg>