<svg width="24" height="24" viewBox="0 0 24 24" fill="none" xmlns="http://www.w3.org/2000/svg">
<path fill-rule="evenodd" clip-rule="evenodd" d="M5.5 12C5.5 9.99047 6.32227 8.65322 7.50363 7.79405C8.71597 6.91235 10.3598 6.5 12 6.5C13.6402 6.5 15.284 6.91235 16.4964 7.79405C17.6777 8.65322 18.5 9.99047 18.5 12C18.5 14.0095 17.6777 15.3468 16.4964 16.2059C15.284 17.0876 13.6402 17.5 12 17.5C11.5079 17.5 11.0119 17.4627 10.5253 17.3856C10.203 17.3345 9.85667 17.3263 9.50567 17.3921L6.29829 17.9935C6.12548 18.0259 5.9741 17.8745 6.0065 17.7017L6.26869 16.3034C6.40222 15.5912 6.2263 14.9105 5.97324 14.3573C5.67734 13.7106 5.5 12.9325 5.5 12ZM12 5C10.1402 5 8.15903 5.46265 6.62137 6.58095C5.05273 7.72178 4 9.50953 4 12C4 13.1271 4.21543 14.1206 4.60921 14.9814C4.78606 15.3679 4.85129 15.7234 4.79438 16.0269L4.53219 17.4253C4.30538 18.6349 5.36506 19.6946 6.57472 19.4678L9.7821 18.8664C9.93533 18.8377 10.1059 18.8378 10.2903 18.8671C10.8582 18.9571 11.4329 19 12 19C13.8598 19 15.841 18.5374 17.3786 17.4191C18.9473 16.2782 20 14.4905 20 12C20 9.50953 18.9473 7.72178 17.3786 6.58095C15.841 5.46265 13.8598 5 12 5ZM9 11C8.44772 11 8 11.4477 8 12C8 12.5523 8.44772 13 9 13C9.55228 13 10 12.5523 10 12C10 11.4477 9.55228 11 9 11ZM11 12C11 11.4477 11.4477 11 12 11C12.5523 11 13 11.4477 13 12C13 12.5523 12.5523 13 12 13C11.4477 13 11 12.5523 11 12ZM15 11C14.4477 11 14 11.4477 14 12C14 12.5523 14.4477 13 15 13C15.5523 13 16 12.5523 16 12C16 11.4477 15.5523 11 15 11Z" fill="#2D2D2D"/>
</svg>
