<svg width="24" height="24" viewBox="0 0 24 24" fill="none" xmlns="http://www.w3.org/2000/svg">
<path fill-rule="evenodd" clip-rule="evenodd" d="M7.19411 12.007C7.19411 13.0548 6.34477 13.9041 5.29705 13.9041C4.24933 13.9041 3.39999 13.0548 3.39999 12.007C3.39999 10.9593 4.24933 10.11 5.29705 10.11C6.34477 10.11 7.19411 10.9593 7.19411 12.007ZM13.897 12.007C13.897 13.0548 13.0477 13.9041 12 13.9041C10.9523 13.9041 10.1029 13.0548 10.1029 12.007C10.1029 10.9593 10.9523 10.11 12 10.11C13.0477 10.11 13.897 10.9593 13.897 12.007ZM18.7029 13.9041C19.7506 13.9041 20.6 13.0548 20.6 12.007C20.6 10.9593 19.7506 10.11 18.7029 10.11C17.6552 10.11 16.8059 10.9593 16.8059 12.007C16.8059 13.0548 17.6552 13.9041 18.7029 13.9041Z" fill="black"/>
</svg>
