<svg width="24" height="24" viewBox="0 0 24 24" fill="none" xmlns="http://www.w3.org/2000/svg"><path d="M6.289 4.205 C 5.738 4.296,5.246 4.735,5.074 5.290 C 5.003 5.516,5.000 5.817,5.000 11.996 C 5.000 17.789,5.007 18.488,5.064 18.683 C 5.223 19.228,5.665 19.651,6.210 19.780 C 6.585 19.868,17.415 19.868,17.790 19.780 C 18.335 19.651,18.777 19.228,18.936 18.683 C 18.993 18.488,19.000 17.789,19.000 11.996 C 19.000 5.817,18.997 5.516,18.926 5.290 C 18.748 4.717,18.265 4.298,17.675 4.202 C 17.358 4.151,6.598 4.153,6.289 4.205 M8.760 12.000 L 8.760 18.320 7.640 18.320 L 6.520 18.320 6.520 12.000 L 6.520 5.680 7.640 5.680 L 8.760 5.680 8.760 12.000 M17.480 12.000 L 17.480 18.320 13.860 18.320 L 10.240 18.320 10.240 12.000 L 10.240 5.680 13.860 5.680 L 17.480 5.680 17.480 12.000 M12.540 7.976 C 12.339 8.063,12.130 8.329,12.098 8.536 C 12.083 8.637,12.083 8.769,12.098 8.829 C 12.144 9.019,12.313 9.235,12.490 9.329 C 12.656 9.418,12.688 9.420,13.880 9.420 L 15.100 9.420 15.274 9.320 C 15.681 9.087,15.786 8.547,15.491 8.196 C 15.270 7.934,15.196 7.922,13.860 7.922 C 12.960 7.923,12.630 7.936,12.540 7.976 M12.740 11.258 C 12.718 11.266,12.652 11.284,12.593 11.296 C 12.339 11.352,12.082 11.707,12.082 12.000 C 12.082 12.309,12.328 12.632,12.632 12.722 C 12.729 12.751,13.185 12.761,13.963 12.753 L 15.146 12.740 15.308 12.633 C 15.784 12.318,15.784 11.682,15.308 11.367 L 15.146 11.260 13.963 11.252 C 13.312 11.247,12.762 11.250,12.740 11.258 " stroke="none" fill-rule="evenodd" fill="black"></path></svg>