<svg width="24" height="24" viewBox="0 0 24 24" fill="none" xmlns="http://www.w3.org/2000/svg"><path d="M10.660 3.802 C 7.699 4.042,5.686 5.012,5.441 6.315 C 5.385 6.611,5.385 17.389,5.441 17.685 C 5.463 17.803,5.529 17.999,5.587 18.120 C 5.727 18.410,6.218 18.898,6.590 19.118 C 7.427 19.612,8.706 19.982,10.220 20.166 C 10.508 20.201,11.124 20.220,12.000 20.220 C 12.876 20.220,13.492 20.201,13.780 20.166 C 15.249 19.987,16.502 19.632,17.344 19.158 C 17.748 18.930,18.265 18.428,18.414 18.118 C 18.473 17.996,18.539 17.789,18.561 17.658 C 18.613 17.337,18.613 6.663,18.561 6.342 C 18.539 6.211,18.473 6.004,18.414 5.882 C 18.273 5.592,17.828 5.150,17.428 4.902 C 16.640 4.415,15.349 4.031,13.920 3.859 C 13.284 3.782,11.321 3.748,10.660 3.802 M12.782 5.280 C 14.324 5.357,15.632 5.638,16.446 6.066 C 16.737 6.219,17.080 6.494,17.080 6.575 C 17.080 6.641,16.816 6.889,16.620 7.007 C 16.005 7.379,14.884 7.687,13.560 7.848 C 13.005 7.915,10.995 7.915,10.440 7.848 C 9.070 7.681,7.959 7.370,7.340 6.978 C 7.109 6.833,6.920 6.652,6.920 6.578 C 6.920 6.550,7.001 6.455,7.100 6.368 C 7.737 5.807,9.350 5.370,11.100 5.282 C 11.986 5.238,11.959 5.238,12.782 5.280 M7.091 8.545 C 7.302 8.655,8.055 8.912,8.470 9.017 C 9.544 9.289,10.573 9.403,11.960 9.403 C 13.391 9.404,14.360 9.302,15.436 9.039 C 15.904 8.925,16.676 8.666,16.909 8.545 C 16.979 8.509,17.046 8.480,17.058 8.480 C 17.070 8.480,17.080 8.866,17.080 9.337 L 17.080 10.194 16.890 10.356 C 16.411 10.767,15.220 11.166,13.960 11.339 C 12.886 11.486,11.114 11.486,10.040 11.339 C 8.780 11.166,7.589 10.767,7.110 10.356 L 6.920 10.194 6.920 9.337 C 6.920 8.866,6.930 8.480,6.942 8.480 C 6.954 8.480,7.021 8.509,7.091 8.545 M7.609 12.295 C 9.647 13.056,12.999 13.178,15.431 12.581 C 15.986 12.445,16.626 12.228,16.930 12.074 L 17.080 11.998 17.080 12.856 L 17.080 13.714 16.957 13.837 C 16.775 14.018,16.351 14.254,15.920 14.413 C 13.786 15.199,10.214 15.199,8.080 14.413 C 7.662 14.259,7.242 14.028,7.046 13.846 L 6.920 13.728 6.920 12.863 L 6.920 11.998 7.070 12.074 C 7.152 12.116,7.395 12.216,7.609 12.295 M7.112 15.636 C 7.306 15.734,7.886 15.938,8.317 16.059 C 10.405 16.644,13.595 16.644,15.683 16.059 C 16.114 15.938,16.694 15.734,16.888 15.636 C 16.970 15.594,17.047 15.560,17.058 15.560 C 17.070 15.560,17.080 15.990,17.080 16.517 L 17.080 17.473 16.890 17.642 C 16.377 18.099,15.033 18.515,13.520 18.685 C 13.259 18.714,12.602 18.737,12.000 18.737 C 11.398 18.737,10.741 18.714,10.480 18.685 C 8.967 18.515,7.623 18.099,7.110 17.642 L 6.920 17.473 6.920 16.517 C 6.920 15.990,6.930 15.560,6.942 15.560 C 6.953 15.560,7.030 15.594,7.112 15.636 " stroke="none" fill-rule="evenodd" fill="black"></path></svg>