<svg width="16" height="16" viewBox="0 0 16 16" fill="none" xmlns="http://www.w3.org/2000/svg">
<path fill-rule="evenodd" clip-rule="evenodd" d="M2.44999 8.21875C2.44999 6.47444 3.16275 5.31749 4.18515 4.57393C5.23645 3.80934 6.66495 3.45 8.09374 3.45C9.52253 3.45 10.951 3.80934 12.0023 4.57393C13.0247 5.31749 13.7375 6.47444 13.7375 8.21875C13.7375 9.96307 13.0247 11.12 12.0023 11.8636C10.951 12.6282 9.52253 12.9875 8.09374 12.9875C7.66531 12.9875 7.23359 12.9551 6.81021 12.8879C6.52422 12.8426 6.21603 12.8352 5.90313 12.8939L3.09668 13.4201C2.97571 13.4427 2.86974 13.3368 2.89243 13.2158L3.12184 11.9923C3.24092 11.3572 3.08376 10.7521 2.86011 10.2632C2.60405 9.70352 2.44999 9.02906 2.44999 8.21875ZM8.09374 2.05C6.46003 2.05 4.71665 2.45629 3.36171 3.4417C1.97785 4.44814 1.04999 6.02557 1.04999 8.21875C1.04999 9.2106 1.2396 10.0863 1.58701 10.8456C1.73953 11.179 1.79338 11.4806 1.74582 11.7342L1.5164 12.9578C1.31227 14.0465 2.26599 15.0002 3.35468 14.7961L6.16114 14.2699C6.28944 14.2458 6.43356 14.2457 6.59093 14.2706C7.09017 14.3498 7.59532 14.3875 8.09374 14.3875C9.72745 14.3875 11.4708 13.9812 12.8258 12.9958C14.2096 11.9894 15.1375 10.4119 15.1375 8.21875C15.1375 6.02557 14.2096 4.44814 12.8258 3.4417C11.4708 2.45629 9.72745 2.05 8.09374 2.05ZM5.39501 9.24999C5.93349 9.24999 6.37001 8.81347 6.37001 8.27499C6.37001 7.73651 5.93349 7.29999 5.39501 7.29999C4.85654 7.29999 4.42001 7.73651 4.42001 8.27499C4.42001 8.81347 4.85654 9.24999 5.39501 9.24999ZM9.06999 8.27499C9.06999 8.81347 8.63347 9.24999 8.095 9.24999C7.55652 9.24999 7.12 8.81347 7.12 8.27499C7.12 7.73651 7.55652 7.29999 8.095 7.29999C8.63347 7.29999 9.06999 7.73651 9.06999 8.27499ZM10.795 9.24999C11.3335 9.24999 11.77 8.81347 11.77 8.27499C11.77 7.73651 11.3335 7.29999 10.795 7.29999C10.2565 7.29999 9.82001 7.73651 9.82001 8.27499C9.82001 8.81347 10.2565 9.24999 10.795 9.24999Z" fill="#2D2D2D"/>
</svg>
