<svg width="16" height="16" viewBox="0 0 16 16" fill="none" xmlns="http://www.w3.org/2000/svg"><path d="M7.453 1.084 C 5.805 1.152,4.301 1.790,3.124 2.920 C 2.536 3.485,2.112 4.065,1.758 4.787 C 1.033 6.268,0.881 7.882,1.317 9.467 C 1.805 11.236,3.014 12.726,4.653 13.577 C 6.697 14.638,9.136 14.563,11.107 13.379 C 11.553 13.111,11.964 12.786,12.375 12.375 C 13.204 11.545,13.748 10.630,14.064 9.531 C 14.242 8.912,14.320 8.352,14.320 7.701 C 14.320 4.935,12.622 2.485,10.018 1.495 C 9.257 1.206,8.286 1.050,7.453 1.084 M8.123 2.348 C 10.662 2.551,12.698 4.493,13.026 7.021 C 13.373 9.702,11.654 12.232,9.027 12.906 C 8.516 13.037,8.148 13.075,7.553 13.059 C 6.906 13.042,6.530 12.976,5.947 12.778 C 4.627 12.330,3.507 11.340,2.880 10.067 C 1.776 7.827,2.379 5.088,4.320 3.528 C 5.177 2.839,6.174 2.438,7.253 2.349 C 7.629 2.317,7.744 2.317,8.123 2.348 M6.133 5.247 C 5.936 5.345,5.945 5.211,5.953 7.738 L 5.960 9.997 6.038 10.078 C 6.124 10.168,6.258 10.217,6.353 10.194 C 6.426 10.176,10.014 8.016,10.100 7.938 C 10.238 7.814,10.227 7.584,10.077 7.450 C 10.017 7.397,6.614 5.335,6.435 5.244 C 6.325 5.188,6.250 5.189,6.133 5.247 " stroke="none" fill-rule="evenodd"></path></svg>