<svg width="16" height="16" viewBox="0 0 16 16" fill="none" xmlns="http://www.w3.org/2000/svg"><path d="M7.869 1.897 C 7.624 1.942,7.437 2.136,7.387 2.398 C 7.370 2.488,7.360 3.433,7.360 4.964 L 7.360 7.387 4.851 7.387 C 2.535 7.387,2.334 7.390,2.245 7.432 C 1.979 7.558,1.831 7.851,1.892 8.125 C 1.933 8.310,2.059 8.472,2.226 8.559 L 2.359 8.627 4.858 8.634 L 7.358 8.642 7.366 11.141 L 7.373 13.640 7.436 13.767 C 7.516 13.929,7.655 14.044,7.838 14.097 C 8.117 14.179,8.420 14.043,8.559 13.774 L 8.627 13.641 8.634 11.142 L 8.642 8.642 11.142 8.634 L 13.641 8.627 13.774 8.559 C 14.148 8.366,14.239 7.865,13.951 7.578 C 13.746 7.372,13.954 7.387,11.150 7.387 L 8.642 7.387 8.634 4.873 L 8.627 2.360 8.565 2.234 C 8.435 1.971,8.168 1.842,7.869 1.897 " stroke="none" fill-rule="evenodd" fill="black"></path></svg>