<svg width="16" height="16" viewBox="0 0 16 16" fill="none" xmlns="http://www.w3.org/2000/svg"><path d="M9.733 1.230 C 8.790 1.291,7.932 1.613,7.161 2.195 C 7.043 2.284,6.723 2.579,6.449 2.852 C 5.974 3.324,5.949 3.354,5.906 3.505 C 5.867 3.639,5.865 3.684,5.892 3.805 C 5.975 4.176,6.347 4.387,6.706 4.267 C 6.783 4.242,6.939 4.108,7.292 3.766 C 7.837 3.237,8.050 3.070,8.436 2.866 C 8.956 2.591,9.442 2.474,10.053 2.474 C 10.667 2.474,11.151 2.591,11.675 2.868 C 12.624 3.369,13.300 4.292,13.482 5.334 C 13.540 5.665,13.540 6.228,13.482 6.559 C 13.392 7.075,13.147 7.632,12.827 8.053 C 12.739 8.169,12.471 8.465,12.231 8.712 C 11.991 8.958,11.773 9.202,11.746 9.253 C 11.685 9.372,11.684 9.605,11.744 9.747 C 11.870 10.042,12.179 10.186,12.493 10.094 C 12.635 10.053,12.680 10.018,13.059 9.645 C 13.715 9.002,14.003 8.632,14.278 8.084 C 14.620 7.401,14.782 6.715,14.782 5.947 C 14.782 5.367,14.700 4.887,14.504 4.330 C 14.379 3.971,14.105 3.460,13.862 3.133 C 12.896 1.830,11.365 1.124,9.733 1.230 M9.499 5.731 C 9.452 5.744,9.368 5.785,9.313 5.823 C 9.155 5.932,5.824 9.283,5.770 9.387 C 5.705 9.511,5.703 9.819,5.767 9.937 C 5.824 10.044,5.956 10.176,6.063 10.233 C 6.180 10.297,6.489 10.295,6.613 10.230 C 6.735 10.166,10.166 6.735,10.230 6.613 C 10.295 6.489,10.297 6.180,10.233 6.063 C 10.177 5.957,10.044 5.824,9.946 5.773 C 9.852 5.724,9.614 5.702,9.499 5.731 M3.517 5.902 C 3.449 5.921,3.347 5.974,3.290 6.019 C 3.156 6.127,2.446 6.850,2.288 7.040 C 1.752 7.686,1.373 8.557,1.251 9.427 C 1.208 9.735,1.208 10.372,1.251 10.680 C 1.466 12.215,2.411 13.559,3.760 14.251 C 4.475 14.617,5.154 14.782,5.947 14.782 C 6.715 14.782,7.401 14.620,8.084 14.278 C 8.632 14.003,9.002 13.714,9.643 13.062 C 10.076 12.621,10.116 12.556,10.117 12.304 C 10.118 12.115,10.021 11.935,9.855 11.815 C 9.746 11.738,9.696 11.720,9.558 11.711 C 9.280 11.694,9.238 11.720,8.707 12.235 C 8.097 12.829,7.832 13.027,7.373 13.234 C 6.962 13.419,6.384 13.546,5.947 13.546 C 5.379 13.546,4.647 13.344,4.176 13.058 C 3.461 12.625,2.901 11.929,2.640 11.151 C 2.525 10.808,2.474 10.468,2.474 10.053 C 2.474 9.440,2.591 8.956,2.868 8.433 C 3.071 8.048,3.173 7.919,3.720 7.360 C 4.000 7.074,4.224 6.822,4.253 6.760 C 4.318 6.620,4.319 6.366,4.255 6.240 C 4.110 5.957,3.812 5.821,3.517 5.902 " stroke="none" fill-rule="evenodd" fill="black"></path></svg>