<svg width="16" height="16" viewBox="0 0 16 16" fill="none" xmlns="http://www.w3.org/2000/svg">
<g clip-path="url(#clip0_1578_64)">
<path d="M8.66667 14C9.03487 14 9.33333 13.7015 9.33333 13.3333C9.33333 12.9651 9.03487 12.6667 8.66667 12.6667C8.29847 12.6667 8 12.9651 8 13.3333C8 13.7015 8.29847 14 8.66667 14Z" fill="black"/>
<path d="M13.9998 7.33333C13.9998 6.96513 13.7014 6.66666 13.3332 6.66666C12.965 6.66666 12.6665 6.96513 12.6665 7.33333C12.6665 7.70153 12.965 8 13.3332 8C13.7014 8 13.9998 7.70153 13.9998 7.33333Z" fill="black"/>
<path d="M13.2863 9.51192C13.6051 9.69605 13.7143 10.1038 13.5303 10.4227C13.3461 10.7415 12.9385 10.8507 12.6196 10.6667C12.3007 10.4825 12.1915 10.0749 12.3755 9.75599C12.5597 9.43712 12.9674 9.32785 13.2863 9.51192Z" fill="black"/>
<path d="M11.5782 12.8628C11.8971 12.6787 12.0064 12.271 11.8222 11.9521C11.6382 11.6333 11.2304 11.524 10.9116 11.7081C10.5927 11.8922 10.4834 12.2999 10.6676 12.6188C10.8516 12.9377 11.2594 13.0469 11.5782 12.8628Z" fill="black"/>
<path d="M12.6177 5.33333C12.2989 5.51742 11.8912 5.40818 11.7071 5.08932C11.523 4.77045 11.6323 4.36272 11.9511 4.17863C12.2699 3.99454 12.6777 4.10378 12.8618 4.42265C13.0459 4.74151 12.9366 5.14924 12.6177 5.33333Z" fill="black"/>
<path d="M6.16667 9.83333V13.5H2.5M6 13.1251C3.95132 12.325 2.5 10.332 2.5 8C2.5 4.96243 4.96243 2.5 8 2.5C8.76913 2.5 9.5014 2.65789 10.1662 2.94301" stroke="black" stroke-width="1.5" stroke-linecap="round" stroke-linejoin="round"/>
</g>
<defs>
<clipPath id="clip0_1578_64">
<rect width="16" height="16" fill="white"/>
</clipPath>
</defs>
</svg>
