<svg width="17" height="17" viewBox="0 0 17 17" fill="none" xmlns="http://www.w3.org/2000/svg">
<path d="M6.12035 5.43263C6.46716 5.60347 6.88679 5.46082 7.05763 5.11402C7.22847 4.76722 7.08582 4.34758 6.73902 4.17674L6.12035 5.43263ZM4.12969 9.42969C4.12969 9.04309 3.81629 8.72969 3.42969 8.72969C3.04309 8.72969 2.72969 9.04309 2.72969 9.42969H4.12969ZM8.92466 2.54966C9.19803 2.2763 9.19803 1.83308 8.92466 1.55971C8.6513 1.28635 8.20808 1.28635 7.93471 1.55971L8.92466 2.54966ZM5.92969 4.55469L5.43471 4.05971C5.16135 4.33308 5.16135 4.7763 5.43471 5.04966L5.92969 4.55469ZM7.93471 7.54966C8.20808 7.82303 8.6513 7.82303 8.92466 7.54966C9.19803 7.2763 9.19803 6.83308 8.92466 6.55971L7.93471 7.54966ZM6.42969 4.80469C6.73902 4.17674 6.73946 4.17696 6.7399 4.17718C6.74004 4.17725 6.74048 4.17746 6.74076 4.17761C6.74134 4.17789 6.74191 4.17818 6.74247 4.17846C6.7436 4.17902 6.74471 4.17958 6.74579 4.18013C6.74796 4.18123 6.75006 4.18231 6.75211 4.18338C6.75617 4.1855 6.76012 4.18764 6.764 4.18982C6.77144 4.19398 6.78016 4.19916 6.78994 4.20566C6.80115 4.21311 6.84927 4.24499 6.89975 4.30788C6.94669 4.36635 7.07022 4.54828 7.02348 4.80937C6.97692 5.06952 6.80031 5.18962 6.75676 5.21599C6.68945 5.25674 6.71266 5.21916 7.02946 5.18401C7.31001 5.15289 7.75141 5.12969 8.42969 5.12969V3.72969C7.72733 3.72969 7.22843 3.75336 6.87511 3.79255C6.55804 3.82772 6.25383 3.88389 6.03167 4.01839C5.9107 4.09163 5.69982 4.25861 5.64539 4.5627C5.59079 4.86773 5.73286 5.09068 5.80802 5.1843C5.88673 5.28235 5.97275 5.34353 6.0148 5.37149C6.04 5.38824 6.06238 5.40147 6.07962 5.41114C6.08841 5.41606 6.0963 5.4203 6.10307 5.42384C6.10647 5.42562 6.10962 5.42724 6.1125 5.4287C6.11394 5.42943 6.11532 5.43013 6.11663 5.43078C6.11728 5.43111 6.11792 5.43143 6.11854 5.43173C6.11885 5.43189 6.11931 5.43211 6.11946 5.43219C6.11991 5.43241 6.12035 5.43263 6.42969 4.80469ZM8.42969 5.12969C9.28015 5.12969 10.1115 5.38188 10.8186 5.85437L11.5964 4.69031C10.6591 4.06399 9.55704 3.72969 8.42969 3.72969V5.12969ZM10.8186 5.85437C11.5258 6.32686 12.0769 6.99843 12.4024 7.78415L13.6958 7.24839C13.2644 6.20685 12.5338 5.31663 11.5964 4.69031L10.8186 5.85437ZM12.4024 7.78415C12.7278 8.56987 12.813 9.43446 12.6471 10.2686L14.0202 10.5417C14.2401 9.43601 14.1272 8.28993 13.6958 7.24839L12.4024 7.78415ZM12.6471 10.2686C12.4811 11.1027 12.0716 11.8689 11.4702 12.4702L12.4602 13.4602C13.2574 12.663 13.8002 11.6474 14.0202 10.5417L12.6471 10.2686ZM11.4702 12.4702C10.8689 13.0716 10.1027 13.4811 9.26858 13.6471L9.5417 15.0202C10.6474 14.8002 11.663 14.2574 12.4602 13.4602L11.4702 12.4702ZM9.26858 13.6471C8.43446 13.813 7.56987 13.7278 6.78415 13.4024L6.24839 14.6958C7.28993 15.1272 8.43601 15.2401 9.5417 15.0202L9.26858 13.6471ZM6.78415 13.4024C5.99843 13.0769 5.32686 12.5258 4.85437 11.8186L3.69031 12.5964C4.31663 13.5338 5.20685 14.2644 6.24839 14.6958L6.78415 13.4024ZM4.85437 11.8186C4.38188 11.1115 4.12969 10.2801 4.12969 9.42969H2.72969C2.72969 10.557 3.06399 11.6591 3.69031 12.5964L4.85437 11.8186ZM7.93471 1.55971L5.43471 4.05971L6.42466 5.04966L8.92466 2.54966L7.93471 1.55971ZM5.43471 5.04966L7.93471 7.54966L8.92466 6.55971L6.42466 4.05971L5.43471 5.04966Z" fill="black"/>
</svg>
