<svg width="16" height="16" viewBox="0 0 16 16" fill="none" xmlns="http://www.w3.org/2000/svg">
<path d="M6.93329 9.11457H5.63718L6.44787 4.41522H7.74392L6.93329 9.11457Z" fill="#15195A"/>
<path d="M11.6318 4.5301C11.3762 4.43501 10.9707 4.33002 10.4693 4.33002C9.18937 4.33002 8.28804 4.9699 8.2825 5.88472C8.27186 6.55968 8.92783 6.93457 9.41845 7.15962C9.91988 7.38961 10.0904 7.53971 10.0904 7.7447C10.0853 8.05954 9.68516 8.20464 9.31198 8.20464C8.79451 8.20464 8.51726 8.12982 8.09588 7.95468L7.92524 7.87959L7.74385 8.93448C8.04785 9.06431 8.60792 9.17954 9.18937 9.1846C10.5494 9.1846 11.4347 8.55462 11.4452 7.57972C11.4504 7.04476 11.104 6.63483 10.3573 6.29989C9.90393 6.08487 9.62632 5.93987 9.62632 5.71988C9.63165 5.51987 9.86114 5.31502 10.3729 5.31502C10.7942 5.30498 11.1038 5.39994 11.3383 5.49496L11.4555 5.54487L11.6318 4.5301Z" fill="#15195A"/>
<path fill-rule="evenodd" clip-rule="evenodd" d="M13.9518 4.41522H14.9543L16 9.1145H14.7999C14.7999 9.1145 14.6825 8.57458 14.6453 8.40957H12.9812C12.9331 8.5345 12.7091 9.1145 12.7091 9.1145H11.3492L13.2744 4.80511C13.4078 4.50014 13.6427 4.41522 13.9518 4.41522ZM13.8719 6.13493C13.8719 6.13493 13.4612 7.17978 13.3545 7.44974H14.4318C14.3785 7.21482 14.133 6.08992 14.133 6.08992L14.0425 5.68502C14.0043 5.78928 13.9492 5.93263 13.9119 6.02933C13.8867 6.09485 13.8698 6.13896 13.8719 6.13493Z" fill="#15195A"/>
<path fill-rule="evenodd" clip-rule="evenodd" d="M0.021334 4.41522H2.10663C2.38932 4.42512 2.61867 4.51011 2.69328 4.81025L3.14648 6.96943L3.14661 6.96983L3.28531 7.61972L4.55464 4.41522H5.92517L3.8879 9.1096H2.5173L1.36208 5.02628C0.963496 4.8078 0.508599 4.63209 0 4.51018L0.021334 4.41522Z" fill="#15195A"/>
<path fill-rule="evenodd" clip-rule="evenodd" d="M9.48707 11.6778C9.46985 11.6809 9.4479 11.6825 9.42128 11.6825C9.34768 11.6825 9.29518 11.6606 9.26386 11.6167C9.23255 11.5729 9.21687 11.5087 9.21687 11.4241V9.98145H9.40954V11.4382C9.40954 11.4695 9.41501 11.4914 9.42598 11.504C9.43696 11.5165 9.44948 11.5228 9.46358 11.5228H9.4812C9.48667 11.5228 9.49489 11.5212 9.50587 11.5181L9.53171 11.6637C9.51919 11.67 9.50429 11.6747 9.48707 11.6778ZM8.90908 11.4875V11.6543H7.99745V10.113H8.88558V10.2775H8.19246V10.7615H8.7775V10.9283H8.19246V11.4875H8.90908ZM10.2789 11.6825C10.3572 11.6825 10.4269 11.6708 10.488 11.6473C10.5491 11.6238 10.6047 11.5964 10.6548 11.565L10.5867 11.4382C10.5444 11.4648 10.5001 11.4863 10.4539 11.5028C10.4077 11.5192 10.3572 11.5275 10.3024 11.5275C10.1927 11.5275 10.1038 11.4918 10.0357 11.4205C9.96755 11.3493 9.92956 11.2526 9.92174 11.1304H10.6924C10.6955 11.1163 10.6975 11.0994 10.6983 11.0799C10.699 11.0603 10.6994 11.0403 10.6994 11.0199C10.6994 10.9385 10.6893 10.8649 10.6689 10.7991C10.6485 10.7333 10.6192 10.6769 10.5808 10.6299C10.5424 10.5829 10.4946 10.5469 10.4375 10.5218C10.3803 10.4968 10.3157 10.4843 10.2436 10.4843C10.1778 10.4843 10.1144 10.4979 10.0533 10.5254C9.99223 10.5528 9.93778 10.5923 9.89002 10.644C9.84226 10.6957 9.80386 10.7587 9.77489 10.8332C9.74592 10.9076 9.73143 10.9918 9.73143 11.0857C9.73143 11.1797 9.74552 11.2635 9.77372 11.3371C9.80191 11.4107 9.84068 11.473 9.89002 11.5239C9.93936 11.5748 9.99733 11.614 10.0639 11.6414C10.1304 11.6688 10.2021 11.6825 10.2789 11.6825ZM9.91939 10.9918H10.5303C10.5303 10.8759 10.5056 10.7877 10.4563 10.7274C10.4069 10.6671 10.3376 10.637 10.2483 10.637C10.2076 10.637 10.1688 10.6448 10.132 10.6605C10.0952 10.6761 10.0619 10.6992 10.0322 10.7298C10.0024 10.7603 9.97773 10.7975 9.95816 10.8414C9.93859 10.8853 9.92567 10.9354 9.91939 10.9918ZM11.4325 11.6825C11.5014 11.6825 11.5672 11.6696 11.6299 11.6438C11.6925 11.6179 11.7497 11.5823 11.8014 11.5369L11.7168 11.4076C11.6808 11.4389 11.6404 11.466 11.5958 11.4887C11.5512 11.5114 11.5022 11.5228 11.449 11.5228C11.3973 11.5228 11.3495 11.5122 11.3056 11.491C11.2618 11.4699 11.2246 11.4401 11.194 11.4018C11.1635 11.3634 11.1396 11.3176 11.1224 11.2643C11.1051 11.211 11.0965 11.1515 11.0965 11.0857C11.0965 11.0199 11.1055 10.96 11.1235 10.906C11.1416 10.852 11.1662 10.8054 11.1975 10.7662C11.2289 10.727 11.2665 10.6969 11.3103 10.6757C11.3542 10.6546 11.402 10.644 11.4537 10.644C11.4991 10.644 11.5402 10.6534 11.577 10.6722C11.6138 10.691 11.6487 10.7153 11.6816 10.7451L11.7802 10.6182C11.7395 10.5822 11.6925 10.5508 11.6393 10.5242C11.586 10.4976 11.5218 10.4843 11.4466 10.4843C11.373 10.4843 11.3029 10.4976 11.2363 10.5242C11.1698 10.5508 11.1114 10.59 11.0613 10.6417C11.0112 10.6934 10.9712 10.7564 10.9414 10.8308C10.9117 10.9052 10.8968 10.9902 10.8968 11.0857C10.8968 11.1797 10.9105 11.2639 10.9379 11.3383C10.9653 11.4127 11.0029 11.4754 11.0507 11.5263C11.0985 11.5772 11.1553 11.616 11.221 11.6426C11.2868 11.6692 11.3573 11.6825 11.4325 11.6825ZM12.498 11.6696C12.4612 11.6782 12.4248 11.6825 12.3888 11.6825C12.3277 11.6825 12.2764 11.6731 12.2349 11.6543C12.1934 11.6355 12.1597 11.6097 12.1338 11.5768C12.108 11.5439 12.0896 11.504 12.0786 11.457C12.0677 11.41 12.0622 11.3583 12.0622 11.3019V10.6699H11.893V10.5242L12.0716 10.5124L12.0951 10.1929H12.2572V10.5124H12.565V10.6699H12.2572V11.3042C12.2572 11.3747 12.2701 11.4292 12.296 11.4675C12.3218 11.5059 12.3676 11.5251 12.4334 11.5251C12.4538 11.5251 12.4757 11.522 12.4992 11.5157C12.5227 11.5094 12.5438 11.5024 12.5626 11.4946L12.6002 11.6402C12.5689 11.6512 12.5348 11.661 12.498 11.6696ZM13.0161 11.6543V10.9213C13.0553 10.8242 13.1011 10.756 13.1536 10.7169C13.206 10.6777 13.2565 10.6581 13.3051 10.6581C13.3286 10.6581 13.3482 10.6597 13.3638 10.6628C13.3795 10.6659 13.3967 10.6706 13.4155 10.6769L13.4531 10.5077C13.4171 10.4921 13.3764 10.4843 13.3309 10.4843C13.2652 10.4843 13.2045 10.5054 13.1489 10.5477C13.0932 10.59 13.0459 10.6471 13.0067 10.7192H12.9997L12.9832 10.5124H12.8234V11.6543H13.0161ZM14.2602 11.6426C14.1968 11.6692 14.1298 11.6825 14.0593 11.6825C13.9888 11.6825 13.9219 11.6692 13.8584 11.6426C13.795 11.616 13.739 11.5772 13.6904 11.5263C13.6419 11.4754 13.6031 11.4127 13.5741 11.3383C13.5452 11.2639 13.5307 11.1797 13.5307 11.0857C13.5307 10.9902 13.5452 10.9052 13.5741 10.8308C13.6031 10.7564 13.6419 10.6934 13.6904 10.6417C13.739 10.59 13.795 10.5508 13.8584 10.5242C13.9219 10.4976 13.9888 10.4843 14.0593 10.4843C14.1298 10.4843 14.1968 10.4976 14.2602 10.5242C14.3236 10.5508 14.3796 10.59 14.4282 10.6417C14.4768 10.6934 14.5155 10.7564 14.5445 10.8308C14.5735 10.9052 14.588 10.9902 14.588 11.0857C14.588 11.1797 14.5735 11.2639 14.5445 11.3383C14.5155 11.4127 14.4768 11.4754 14.4282 11.5263C14.3796 11.5772 14.3236 11.616 14.2602 11.6426ZM14.0593 11.5228C14.0107 11.5228 13.9661 11.5122 13.9254 11.491C13.8847 11.4699 13.8498 11.4401 13.8208 11.4018C13.7919 11.3634 13.7695 11.3176 13.7539 11.2643C13.7382 11.211 13.7304 11.1515 13.7304 11.0857C13.7304 11.0199 13.7382 10.96 13.7539 10.906C13.7695 10.852 13.7919 10.8054 13.8208 10.7662C13.8498 10.727 13.8847 10.6969 13.9254 10.6757C13.9661 10.6546 14.0107 10.644 14.0593 10.644C14.1079 10.644 14.1525 10.6546 14.1932 10.6757C14.2339 10.6969 14.2688 10.727 14.2978 10.7662C14.3268 10.8054 14.3491 10.852 14.3648 10.906C14.3804 10.96 14.3882 11.0199 14.3882 11.0857C14.3882 11.1515 14.3804 11.211 14.3648 11.2643C14.3491 11.3176 14.3268 11.3634 14.2978 11.4018C14.2688 11.4401 14.2339 11.4699 14.1932 11.491C14.1525 11.5122 14.1079 11.5228 14.0593 11.5228ZM15.0814 10.8273V11.6543H14.8887V10.5124H15.0485L15.0649 10.6769H15.072C15.1268 10.6221 15.1843 10.5763 15.2447 10.5395C15.305 10.5026 15.3751 10.4843 15.4549 10.4843C15.5755 10.4843 15.6637 10.5218 15.7193 10.597C15.7749 10.6722 15.8027 10.7834 15.8027 10.9307V11.6543H15.61V10.9565C15.61 10.8484 15.5928 10.7705 15.5583 10.7227C15.5239 10.675 15.469 10.6511 15.3939 10.6511C15.3343 10.6511 15.2818 10.6659 15.2364 10.6957C15.191 10.7255 15.1393 10.7693 15.0814 10.8273Z" fill="#15195A"/>
</svg>
