<svg width="16" height="16" viewBox="0 0 16 16" fill="none" xmlns="http://www.w3.org/2000/svg">
<path fill-rule="evenodd" clip-rule="evenodd" d="M8.00441 1.05001C8.36339 1.05001 8.65441 1.34102 8.65441 1.70001V1.95388C11.4958 2.25561 13.7531 4.51301 14.0549 7.35435H14.3087C14.6677 7.35435 14.9587 7.64537 14.9587 8.00435C14.9587 8.36334 14.6677 8.65435 14.3087 8.65435H14.0549C13.7531 11.4957 11.4958 13.7531 8.65441 14.0548V14.3087C8.65441 14.6677 8.36339 14.9587 8.00441 14.9587C7.64542 14.9587 7.35441 14.6677 7.35441 14.3087V14.0548C4.51306 13.7531 2.25567 11.4957 1.95393 8.65435H1.70001C1.34102 8.65435 1.05001 8.36334 1.05001 8.00435C1.05001 7.64537 1.34102 7.35435 1.70001 7.35435H1.95393C2.25567 4.51301 4.51306 2.25561 7.35441 1.95388V1.70001C7.35441 1.34102 7.64542 1.05001 8.00441 1.05001ZM3.2634 8.65435H5.61305C5.97203 8.65435 6.26305 8.36334 6.26305 8.00435C6.26305 7.64537 5.97203 7.35435 5.61305 7.35435L3.2634 7.35435C3.55169 5.2318 5.23186 3.55163 7.35441 3.26335V5.61305C7.35441 5.97203 7.64542 6.26305 8.00441 6.26305C8.36339 6.26305 8.65441 5.97203 8.65441 5.61305V3.26335C10.777 3.55163 12.4571 5.2318 12.7454 7.35435L10.3957 7.35435C10.0367 7.35435 9.74566 7.64537 9.74566 8.00435C9.74566 8.36334 10.0367 8.65435 10.3957 8.65435H12.7454C12.4571 10.7769 10.777 12.4571 8.65441 12.7454V10.3957C8.65441 10.0367 8.36339 9.74566 8.00441 9.74566C7.64542 9.74566 7.35441 10.0367 7.35441 10.3957V12.7454C5.23186 12.4571 3.55169 10.7769 3.2634 8.65435Z" fill="#2D2D2D"/>
</svg>
