<svg width="17" height="17" viewBox="0 0 17 17" fill="none" xmlns="http://www.w3.org/2000/svg">
<path fill-rule="evenodd" clip-rule="evenodd" d="M3.43955 4.33365C3.43955 3.90019 3.79094 3.5488 4.2244 3.5488H11.6486C12.1993 3.5488 12.6456 3.99515 12.6456 4.54577V5.1185H4.2244C3.79094 5.1185 3.43955 4.76711 3.43955 4.33365ZM14.0456 4.54577V5.1185H15.0418C15.042 5.1185 15.0423 5.1185 15.0426 5.1185C15.4292 5.1185 15.7426 5.4319 15.7426 5.8185V13.4549C15.7426 14.7787 14.6694 15.8518 13.3456 15.8518H4.43652C3.11272 15.8518 2.03955 14.7787 2.03955 13.4549V4.54577C2.03955 4.51991 2.04095 4.49436 2.04369 4.46922C2.04094 4.42439 2.03955 4.37918 2.03955 4.33365C2.03955 3.12699 3.01774 2.1488 4.2244 2.1488H11.6486C12.9725 2.1488 14.0456 3.22197 14.0456 4.54577ZM3.43955 6.3733V13.4549C3.43955 14.0055 3.8859 14.4518 4.43652 14.4518H13.3456C13.8962 14.4518 14.3426 14.0055 14.3426 13.4549V6.5185H13.3456H4.2244C3.94776 6.5185 3.68314 6.46709 3.43955 6.3733ZM12.285 9.92456C12.3269 9.92456 12.3608 9.89068 12.3608 9.8488C12.3608 9.80693 12.3269 9.77305 12.285 9.77305C12.2431 9.77305 12.2092 9.80693 12.2092 9.8488C12.2092 9.89068 12.2431 9.92456 12.285 9.92456ZM11.3608 9.8488C11.3608 9.33839 11.7746 8.92456 12.285 8.92456C12.7954 8.92456 13.2092 9.33839 13.2092 9.8488C13.2092 10.3592 12.7954 10.773 12.285 10.773C11.7746 10.773 11.3608 10.3592 11.3608 9.8488Z" fill="black"/>
</svg>
