<svg width="16" height="16" viewBox="0 0 16 16" fill="none" xmlns="http://www.w3.org/2000/svg">
<g clip-path="url(#clip0_1275_630)">
<path fill-rule="evenodd" clip-rule="evenodd" d="M0.289551 8.03469C0.289551 4.34731 3.27873 1.35812 6.96597 1.35812C10.6533 1.35812 13.6425 4.34731 13.6425 8.03469C13.6425 11.7221 10.6533 14.7114 6.96597 14.7114C3.27873 14.7114 0.289551 11.7221 0.289551 8.03469Z" fill="#FFFFFE"/>
<path fill-rule="evenodd" clip-rule="evenodd" d="M11.0038 7.90321C11.0011 6.19345 9.93239 4.73527 8.42646 4.15778V11.6483C9.93239 11.0701 11.0011 9.61328 11.0038 7.90321ZM5.55367 11.6469V4.15857C4.04908 4.73785 2.982 6.19394 2.97797 7.90326C2.982 9.61213 4.04908 11.0681 5.55367 11.6469ZM6.99083 1.57194C3.4943 1.57329 0.661503 4.40668 0.660906 7.90321C0.661503 11.3993 3.4943 14.2322 6.99083 14.2328C10.4874 14.2322 13.3208 11.3993 13.3217 7.90321C13.3208 4.40668 10.4874 1.57329 6.99083 1.57194ZM6.9753 14.8303C3.14915 14.8485 0 11.7488 0 7.97545C0 3.8516 3.14915 0.999254 6.9753 1H8.76834C12.5493 0.999254 16 3.85026 16 7.97545C16 11.7474 12.5493 14.8303 8.76834 14.8303H6.9753Z" fill="#0069AA"/>
</g>
<defs>
<clipPath id="clip0_1275_630">
<rect width="16" height="16" fill="white"/>
</clipPath>
</defs>
</svg>
