<svg width="16" height="16" viewBox="0 0 16 16" fill="none" xmlns="http://www.w3.org/2000/svg"><path d="M7.573 2.562 C 5.437 2.690,3.418 3.877,1.888 5.907 C 1.514 6.403,1.083 7.100,0.836 7.611 C 0.671 7.953,0.671 8.047,0.836 8.389 C 1.348 9.447,2.233 10.645,3.067 11.408 C 4.045 12.303,5.097 12.903,6.236 13.215 C 7.414 13.538,8.586 13.538,9.764 13.215 C 11.589 12.715,13.239 11.442,14.467 9.587 C 14.871 8.976,15.228 8.323,15.277 8.108 C 15.310 7.959,15.274 7.819,15.129 7.536 C 14.328 5.970,13.197 4.649,11.920 3.787 C 10.587 2.888,9.104 2.470,7.573 2.562 M8.427 3.814 C 10.268 3.974,11.928 5.014,13.233 6.825 C 13.483 7.171,13.947 7.935,13.947 8.000 C 13.947 8.065,13.483 8.829,13.233 9.175 C 12.926 9.601,12.689 9.881,12.312 10.262 C 9.749 12.855,6.251 12.855,3.688 10.262 C 3.311 9.881,3.074 9.601,2.767 9.175 C 2.526 8.840,2.053 8.065,2.053 8.005 C 2.053 7.946,2.300 7.523,2.576 7.107 C 3.634 5.510,5.013 4.426,6.526 4.002 C 7.183 3.818,7.786 3.758,8.427 3.814 M7.713 5.228 C 6.759 5.322,5.914 5.915,5.493 6.787 C 4.903 8.005,5.250 9.410,6.347 10.246 C 6.560 10.409,6.986 10.618,7.253 10.691 C 8.371 10.996,9.528 10.595,10.246 9.653 C 10.409 9.440,10.618 9.014,10.691 8.747 C 10.958 7.768,10.681 6.738,9.957 6.017 C 9.372 5.434,8.551 5.145,7.713 5.228 M8.467 6.535 C 8.929 6.678,9.317 7.069,9.470 7.547 C 9.548 7.789,9.548 8.211,9.470 8.453 C 9.268 9.085,8.647 9.546,8.000 9.546 C 7.353 9.546,6.732 9.085,6.530 8.453 C 6.452 8.212,6.452 7.789,6.529 7.547 C 6.708 6.989,7.192 6.569,7.759 6.480 C 7.955 6.450,8.269 6.474,8.467 6.535 " stroke="none" fill-rule="evenodd"></path></svg>