<svg width="16" height="16" viewBox="0 0 16 16" fill="none" xmlns="http://www.w3.org/2000/svg"><path d="M3.107 1.892 C 2.975 1.903,2.819 1.926,2.760 1.945 C 2.371 2.071,2.055 2.401,1.929 2.813 C 1.884 2.960,1.880 3.089,1.880 4.320 C 1.880 5.649,1.881 5.668,1.938 5.773 C 2.005 5.898,2.109 6.001,2.240 6.070 C 2.329 6.117,2.447 6.120,4.597 6.127 C 7.163 6.136,7.064 6.143,7.270 5.937 C 7.468 5.739,7.467 5.750,7.467 4.000 C 7.467 2.299,7.465 2.277,7.299 2.089 C 7.252 2.035,7.159 1.966,7.093 1.936 C 6.976 1.881,6.938 1.880,5.160 1.877 C 4.163 1.875,3.239 1.882,3.107 1.892 M9.049 1.893 C 8.841 1.936,8.701 2.044,8.596 2.240 C 8.549 2.329,8.547 2.457,8.547 5.333 L 8.547 8.333 8.604 8.440 C 8.672 8.565,8.776 8.667,8.907 8.737 C 8.995 8.784,9.114 8.787,11.264 8.794 C 13.830 8.802,13.731 8.810,13.937 8.604 C 14.146 8.395,14.137 8.538,14.127 5.569 C 14.119 3.118,14.116 2.937,14.070 2.800 C 13.927 2.367,13.605 2.050,13.185 1.930 C 13.043 1.889,12.823 1.884,11.093 1.877 C 10.030 1.873,9.110 1.881,9.049 1.893 M6.213 4.000 L 6.213 4.880 4.667 4.880 L 3.120 4.880 3.120 4.042 C 3.120 3.316,3.126 3.198,3.162 3.162 C 3.199 3.125,3.376 3.120,4.709 3.120 L 6.213 3.120 6.213 4.000 M12.827 3.146 C 12.862 3.168,12.868 3.449,12.874 5.359 L 12.881 7.547 11.334 7.547 L 9.787 7.547 9.787 5.333 L 9.787 3.120 11.287 3.120 C 12.185 3.121,12.803 3.131,12.827 3.146 M2.382 7.227 C 2.176 7.269,2.034 7.377,1.930 7.573 C 1.882 7.663,1.880 7.783,1.880 10.347 C 1.880 12.871,1.883 13.036,1.929 13.187 C 2.062 13.622,2.378 13.938,2.813 14.071 C 2.963 14.117,3.109 14.120,4.987 14.120 L 7.000 14.120 7.109 14.062 C 7.169 14.029,7.256 13.961,7.301 13.909 C 7.473 13.714,7.467 13.832,7.467 10.667 C 7.467 7.497,7.473 7.620,7.299 7.422 C 7.252 7.368,7.159 7.299,7.093 7.269 C 6.975 7.214,6.943 7.213,4.733 7.209 C 3.501 7.207,2.443 7.215,2.382 7.227 M6.213 10.667 L 6.213 12.880 4.683 12.880 L 3.153 12.880 3.137 12.820 C 3.128 12.787,3.121 11.791,3.120 10.607 L 3.120 8.453 4.667 8.453 L 6.213 8.453 6.213 10.667 M9.049 9.894 C 8.842 9.936,8.701 10.044,8.596 10.240 C 8.549 10.328,8.547 10.425,8.547 12.000 C 8.547 13.657,8.547 13.667,8.604 13.773 C 8.672 13.898,8.776 14.001,8.907 14.070 C 8.995 14.118,9.100 14.120,11.013 14.120 C 12.891 14.120,13.037 14.117,13.187 14.071 C 13.616 13.940,13.930 13.629,14.069 13.200 C 14.111 13.070,14.118 12.909,14.127 11.767 C 14.136 10.645,14.132 10.462,14.095 10.334 C 14.043 10.155,13.921 10.010,13.760 9.936 C 13.642 9.881,13.609 9.880,11.400 9.876 C 10.168 9.874,9.110 9.882,9.049 9.894 M12.880 11.917 C 12.880 12.355,12.873 12.751,12.863 12.797 L 12.847 12.880 11.317 12.880 L 9.787 12.880 9.787 12.000 L 9.787 11.120 11.333 11.120 L 12.880 11.120 12.880 11.917 " stroke="none" fill-rule="evenodd" fill="black"></path></svg>