<svg width="16" height="16" viewBox="0 0 16 16" fill="none" xmlns="http://www.w3.org/2000/svg">
<path d="M7.99999 2C4.02968 2 0.799988 5.22969 0.799988 9.2C0.799988 10.9367 1.42108 12.5305 2.44999 13.775L2.61874 14H13.3812L13.55 13.775C14.5789 12.5305 15.2 10.9367 15.2 9.2C15.2 5.22969 11.9703 2 7.99999 2ZM7.99999 3.2C11.3211 3.2 14 5.87891 14 9.2C14 10.5594 13.5242 11.7945 12.7625 12.8H3.23749C2.47577 11.7945 1.99999 10.5594 1.99999 9.2C1.99999 5.87891 4.67889 3.2 7.99999 3.2ZM7.99999 3.8C7.66952 3.8 7.39999 4.06953 7.39999 4.4C7.39999 4.73047 7.66952 5 7.99999 5C8.33046 5 8.59999 4.73047 8.59999 4.4C8.59999 4.06953 8.33046 3.8 7.99999 3.8ZM5.59999 4.4375C5.26952 4.4375 4.99999 4.70703 4.99999 5.0375C4.99999 5.36797 5.26952 5.6375 5.59999 5.6375C5.93046 5.6375 6.19999 5.36797 6.19999 5.0375C6.19999 4.70703 5.93046 4.4375 5.59999 4.4375ZM10.4 4.4375C10.0695 4.4375 9.79999 4.70703 9.79999 5.0375C9.79999 5.36797 10.0695 5.6375 10.4 5.6375C10.7305 5.6375 11 5.36797 11 5.0375C11 4.70703 10.7305 4.4375 10.4 4.4375ZM3.83749 6.2C3.50702 6.2 3.23749 6.46953 3.23749 6.8C3.23749 7.13047 3.50702 7.4 3.83749 7.4C4.16796 7.4 4.43749 7.13047 4.43749 6.8C4.43749 6.46953 4.16796 6.2 3.83749 6.2ZM11.9937 6.21875L8.59999 8.16875C8.42421 8.06563 8.21796 8 7.99999 8C7.33671 8 6.79999 8.53672 6.79999 9.2C6.79999 9.86328 7.33671 10.4 7.99999 10.4C8.65624 10.4 9.19061 9.87266 9.19999 9.21875C9.19999 9.21172 9.19999 9.20703 9.19999 9.2L12.5937 7.26875L11.9937 6.21875ZM3.19999 8.6C2.86952 8.6 2.59999 8.86953 2.59999 9.2C2.59999 9.53047 2.86952 9.8 3.19999 9.8C3.53046 9.8 3.79999 9.53047 3.79999 9.2C3.79999 8.86953 3.53046 8.6 3.19999 8.6ZM12.8 8.6C12.4695 8.6 12.2 8.86953 12.2 9.2C12.2 9.53047 12.4695 9.8 12.8 9.8C13.1305 9.8 13.4 9.53047 13.4 9.2C13.4 8.86953 13.1305 8.6 12.8 8.6ZM3.83749 11C3.50702 11 3.23749 11.2695 3.23749 11.6C3.23749 11.9305 3.50702 12.2 3.83749 12.2C4.16796 12.2 4.43749 11.9305 4.43749 11.6C4.43749 11.2695 4.16796 11 3.83749 11ZM12.1625 11C11.832 11 11.5625 11.2695 11.5625 11.6C11.5625 11.9305 11.832 12.2 12.1625 12.2C12.493 12.2 12.7625 11.9305 12.7625 11.6C12.7625 11.2695 12.493 11 12.1625 11Z" fill="black"/>
</svg>
