<svg width="16" height="16" viewBox="0 0 16 16" fill="none" xmlns="http://www.w3.org/2000/svg">
<g id="scan">
<path id="Vector" d="M10.6855 13.8745H12.123C12.5872 13.8745 13.0323 13.6901 13.3605 13.3619C13.6887 13.0338 13.873 12.5886 13.873 12.1245V10.687M13.873 5.31201V3.87451C13.873 3.41038 13.6887 2.96526 13.3605 2.63707C13.0323 2.30889 12.5872 2.12451 12.123 2.12451H10.6855M5.31055 13.8745H3.87305C3.40892 13.8745 2.9638 13.6901 2.63561 13.3619C2.30742 13.0338 2.12305 12.5886 2.12305 12.1245V10.687M2.12305 5.31201V3.87451C2.12305 3.41038 2.30742 2.96526 2.63561 2.63707C2.9638 2.30889 3.40892 2.12451 3.87305 2.12451H5.31055" stroke="black" stroke-width="1.375" stroke-linecap="round" stroke-linejoin="round"/>
</g>
</svg>
