<svg width="16" height="16" viewBox="0 0 16 16" fill="none" xmlns="http://www.w3.org/2000/svg">
<path fill-rule="evenodd" clip-rule="evenodd" d="M8.75546 2.64001C8.75546 2.2258 8.41967 1.89001 8.00546 1.89001C7.59125 1.89001 7.25546 2.2258 7.25546 2.64001V11.4994L4.66251 8.78295C4.37651 8.48333 3.90176 8.47229 3.60214 8.75829C3.30252 9.0443 3.29148 9.51904 3.57748 9.81866L7.46294 13.8891C7.60446 14.0374 7.8005 14.1213 8.00546 14.1213C8.21042 14.1213 8.40645 14.0374 8.54798 13.8891L12.4334 9.81866C12.7194 9.51904 12.7084 9.0443 12.4088 8.75829C12.1092 8.47229 11.6344 8.48333 11.3484 8.78295L8.75546 11.4994V2.64001Z" fill="black"/>
</svg>
