<svg width="16" height="16" viewBox="0 0 16 16" fill="none" xmlns="http://www.w3.org/2000/svg">
<g clip-path="url(#clip0_75_50)">
<path d="M1.3335 7.99993L0.662513 7.66484C0.557157 7.87581 0.557157 8.12404 0.662513 8.33501L1.3335 7.99993ZM14.6668 8L15.3378 8.33509C15.4432 8.12412 15.4432 7.87589 15.3378 7.66492L14.6668 8ZM2.00448 8.33501C3.51822 5.30385 5.82 3.91664 8.00016 3.91666C10.1803 3.91667 12.4821 5.30393 13.9958 8.33509L15.3378 7.66492C13.6333 4.25167 10.8775 2.41668 8.00017 2.41666C5.12281 2.41664 2.36707 4.25159 0.662513 7.66484L2.00448 8.33501ZM0.662513 8.33501C2.36707 11.7483 5.1228 13.5833 8.00016 13.5833C10.8775 13.5833 13.6333 11.7483 15.3378 8.33509L13.9958 7.66492C12.4821 10.6961 10.1803 12.0833 8.00017 12.0833C5.82001 12.0833 3.51822 10.696 2.00448 7.66484L0.662513 8.33501ZM9.41683 7.99999C9.41683 8.78239 8.78257 9.41666 8.00016 9.41666V10.9167C9.61099 10.9167 10.9168 9.61082 10.9168 7.99999H9.41683ZM8.00016 9.41666C7.21776 9.41666 6.5835 8.78239 6.5835 7.99999H5.0835C5.0835 9.61082 6.38933 10.9167 8.00016 10.9167V9.41666ZM6.5835 7.99999C6.5835 7.21759 7.21776 6.58332 8.00016 6.58332V5.08332C6.38933 5.08332 5.0835 6.38916 5.0835 7.99999H6.5835ZM8.00016 6.58332C8.78257 6.58332 9.41683 7.21759 9.41683 7.99999H10.9168C10.9168 6.38916 9.61099 5.08332 8.00016 5.08332V6.58332Z" fill="black"/>
</g>
<defs>
<clipPath id="clip0_75_50">
<rect width="16" height="16" fill="white"/>
</clipPath>
</defs>
</svg>
