<svg width="16" height="16" viewBox="0 0 16 16" fill="none" xmlns="http://www.w3.org/2000/svg">
<path fill-rule="evenodd" clip-rule="evenodd" d="M3.47443 2.5C2.93627 2.5 2.5 2.93627 2.5 3.47443V12.5277C2.5 13.0659 2.93627 13.5021 3.47443 13.5021H12.5277C13.0659 13.5021 13.5021 13.0659 13.5021 12.5277V10.3722C13.5021 9.95794 13.8379 9.62215 14.2521 9.62215C14.6663 9.62215 15.0021 9.95794 15.0021 10.3722V12.5277C15.0021 13.8943 13.8943 15.0021 12.5277 15.0021H3.47443C2.10784 15.0021 1 13.8943 1 12.5277V3.47443C1 2.10784 2.10784 1 3.47443 1H5.62997C6.04418 1 6.37997 1.33579 6.37997 1.75C6.37997 2.16421 6.04418 2.5 5.62997 2.5H3.47443ZM9.62216 1.75C9.62216 1.33579 9.95795 1 10.3722 1H14.2521C14.6663 1 15.0021 1.33579 15.0021 1.75V5.62997C15.0021 6.04418 14.6663 6.37997 14.2521 6.37997C13.8379 6.37997 13.5021 6.04418 13.5021 5.62997V3.56066L8.31584 8.74695C8.02294 9.03984 7.54807 9.03984 7.25518 8.74695C6.96228 8.45406 6.96228 7.97918 7.25518 7.68629L12.4415 2.5H10.3722C9.95795 2.5 9.62216 2.16421 9.62216 1.75Z" fill="#0E1438"/>
</svg>
