<svg width="16" height="16" viewBox="0 0 16 16" fill="none" xmlns="http://www.w3.org/2000/svg"><path d="M7.573 1.228 C 5.955 1.317,4.373 2.030,3.204 3.200 C 2.017 4.387,1.345 5.872,1.222 7.580 C 1.132 8.821,1.448 10.212,2.069 11.312 C 2.761 12.539,3.879 13.580,5.115 14.151 C 7.294 15.157,9.798 14.967,11.773 13.645 C 13.997 12.158,15.151 9.474,14.695 6.853 C 14.451 5.454,13.802 4.206,12.796 3.200 C 11.414 1.818,9.563 1.119,7.573 1.228 M8.826 2.523 C 11.211 2.870,13.106 4.769,13.481 7.188 C 13.543 7.587,13.543 8.413,13.481 8.812 C 13.179 10.761,11.898 12.393,10.091 13.130 C 8.067 13.956,5.758 13.519,4.189 12.014 C 3.275 11.137,2.711 10.056,2.519 8.812 C 2.487 8.612,2.473 8.357,2.473 8.000 C 2.473 7.422,2.513 7.094,2.642 6.592 C 3.220 4.351,5.214 2.672,7.526 2.480 C 7.874 2.451,8.466 2.471,8.826 2.523 M7.872 4.563 C 7.808 4.575,7.718 4.608,7.672 4.637 C 7.625 4.667,7.069 5.210,6.436 5.845 C 5.298 6.987,5.284 7.002,5.239 7.158 C 5.200 7.292,5.198 7.337,5.225 7.459 C 5.290 7.748,5.535 7.950,5.820 7.950 C 6.071 7.950,6.128 7.910,6.766 7.273 L 7.358 6.682 7.366 8.829 L 7.373 10.975 7.441 11.107 C 7.580 11.377,7.883 11.513,8.162 11.431 C 8.345 11.377,8.484 11.262,8.564 11.100 L 8.627 10.973 8.634 8.828 L 8.642 6.682 9.234 7.273 C 9.872 7.910,9.929 7.950,10.180 7.950 C 10.465 7.950,10.710 7.748,10.775 7.459 C 10.802 7.337,10.800 7.292,10.761 7.158 C 10.716 7.002,10.703 6.987,9.551 5.833 C 8.771 5.050,8.351 4.649,8.280 4.615 C 8.145 4.553,8.018 4.536,7.872 4.563 " stroke="none" fill-rule="evenodd" fill="black"></path></svg>