<svg width="16" height="16" viewBox="0 0 16 16" fill="none" xmlns="http://www.w3.org/2000/svg"><path d="M7.333 1.254 C 6.509 1.290,5.792 1.388,5.107 1.557 C 4.576 1.689,4.228 1.814,3.800 2.028 C 3.101 2.377,2.731 2.760,2.601 3.266 C 2.565 3.405,2.560 3.979,2.560 8.000 C 2.560 12.982,2.552 12.710,2.707 13.027 C 2.892 13.405,3.330 13.768,3.933 14.045 C 4.641 14.370,5.570 14.595,6.680 14.710 C 7.313 14.776,8.687 14.776,9.320 14.710 C 10.630 14.574,11.740 14.269,12.453 13.848 C 12.818 13.633,13.162 13.297,13.294 13.027 C 13.449 12.708,13.441 12.987,13.434 7.931 L 13.427 3.293 13.366 3.133 C 13.055 2.315,11.890 1.691,10.127 1.400 C 9.348 1.272,8.248 1.214,7.333 1.254 M8.589 2.453 C 10.012 2.517,11.206 2.792,11.880 3.212 C 12.063 3.327,12.240 3.491,12.240 3.547 C 12.240 3.603,12.062 3.767,11.873 3.885 C 11.005 4.426,9.174 4.737,7.393 4.645 C 6.701 4.610,6.311 4.564,5.760 4.453 C 5.060 4.313,4.447 4.097,4.093 3.866 C 3.926 3.758,3.760 3.598,3.760 3.547 C 3.760 3.491,3.937 3.327,4.120 3.212 C 4.776 2.804,6.011 2.512,7.333 2.454 C 7.981 2.426,7.993 2.426,8.589 2.453 M3.976 5.157 C 4.677 5.479,5.619 5.698,6.827 5.818 C 7.260 5.861,8.740 5.861,9.173 5.818 C 10.381 5.698,11.323 5.479,12.024 5.157 C 12.132 5.107,12.225 5.067,12.230 5.067 C 12.236 5.067,12.240 5.384,12.240 5.772 L 12.240 6.478 12.160 6.569 C 12.049 6.696,11.778 6.867,11.498 6.988 C 10.511 7.413,8.921 7.632,7.393 7.552 C 6.700 7.516,6.310 7.470,5.760 7.360 C 4.854 7.178,4.103 6.869,3.840 6.569 L 3.760 6.478 3.760 5.772 C 3.760 5.384,3.764 5.067,3.770 5.067 C 3.775 5.067,3.868 5.107,3.976 5.157 M3.976 8.064 C 4.634 8.367,5.599 8.598,6.680 8.710 C 7.313 8.776,8.687 8.776,9.320 8.710 C 10.401 8.598,11.366 8.367,12.024 8.064 C 12.132 8.014,12.225 7.973,12.230 7.973 C 12.236 7.973,12.240 8.276,12.240 8.645 L 12.240 9.317 12.097 9.455 C 11.683 9.857,10.567 10.202,9.200 10.352 C 8.793 10.396,7.207 10.396,6.800 10.352 C 5.428 10.202,4.319 9.858,3.900 9.452 L 3.760 9.317 3.760 8.645 C 3.760 8.276,3.764 7.973,3.770 7.973 C 3.775 7.973,3.868 8.014,3.976 8.064 M4.533 11.111 C 5.134 11.309,5.823 11.450,6.613 11.538 C 7.199 11.603,8.801 11.603,9.387 11.538 C 10.419 11.423,11.303 11.211,11.993 10.913 L 12.240 10.806 12.240 11.648 L 12.240 12.490 12.112 12.612 C 11.430 13.259,9.300 13.672,7.280 13.549 C 5.707 13.453,4.402 13.096,3.903 12.626 L 3.760 12.491 3.760 11.649 L 3.760 10.806 4.007 10.913 C 4.142 10.971,4.379 11.061,4.533 11.111 " stroke="none" fill-rule="evenodd" fill="black"></path></svg>