<svg width="16" height="16" viewBox="0 0 16 16" fill="none" xmlns="http://www.w3.org/2000/svg">
<path fill-rule="evenodd" clip-rule="evenodd" d="M6.725 1.65C6.725 1.2634 6.4116 0.949997 6.025 0.949997C5.6384 0.949997 5.325 1.2634 5.325 1.65V3.575H2.525C2.1384 3.575 1.825 3.8884 1.825 4.275V12.0233C1.29003 12.4727 0.949997 13.1466 0.949997 13.9V14.3375C0.949997 14.7241 1.2634 15.0375 1.65 15.0375H14.3375C14.7241 15.0375 15.0375 14.7241 15.0375 14.3375V13.9C15.0375 13.1466 14.6975 12.4727 14.1625 12.0233V4.275C14.1625 3.8884 13.8491 3.575 13.4625 3.575H10.6625V1.65C10.6625 1.2634 10.3491 0.949997 9.9625 0.949997C9.5759 0.949997 9.2625 1.2634 9.2625 1.65V3.575H6.725V1.65ZM12.7625 8.79294V11.4562C12.7047 11.4521 12.6463 11.45 12.5875 11.45H3.4C3.34116 11.45 3.2828 11.4521 3.225 11.4562V9.08025C3.51486 9.15016 3.88133 9.22369 4.30282 9.27628C5.35683 9.40781 6.79318 9.41319 8.24067 8.86752C9.40451 8.42877 10.5932 8.4234 11.5113 8.53797C11.9672 8.59486 12.3469 8.68016 12.6102 8.75041C12.6666 8.76546 12.7175 8.77979 12.7625 8.79294ZM12.7625 7.34479V4.975H3.225V7.63209C3.27002 7.64524 3.32093 7.65957 3.37734 7.67462C3.64059 7.74488 4.02032 7.83017 4.47618 7.88706C5.39434 8.00164 6.58298 7.99626 7.74682 7.55751C9.19431 7.01184 10.6307 7.01722 11.6847 7.14875C12.1062 7.20134 12.4726 7.27487 12.7625 7.34479ZM2.38308 13.6375H13.6044C13.4879 13.1846 13.0768 12.85 12.5875 12.85H3.4C2.91074 12.85 2.49964 13.1846 2.38308 13.6375Z" fill="#0E1438"/>
</svg>
