<svg width="16" height="16" viewBox="0 0 16 16" fill="none" xmlns="http://www.w3.org/2000/svg">
<g clip-path="url(#clip0_1447_2)">
<path d="M3.63967 3.63995C2.52372 4.7559 1.8335 6.29757 1.8335 8.00045C1.8335 9.70331 2.52372 11.245 3.63967 12.3609M5.57767 5.57795C4.9577 6.19792 4.57424 7.05438 4.57424 8.00045C4.57424 8.94651 4.9577 9.80298 5.57767 10.4229M10.4226 10.4229C11.0426 9.80298 11.4261 8.94651 11.4261 8.00045C11.4261 7.05438 11.0426 6.19792 10.4226 5.57795M12.3606 12.3609C13.4766 11.245 14.1668 9.70331 14.1668 8.00045C14.1668 6.29757 13.4766 4.7559 12.3606 3.63995M8.50016 7.99998C8.50016 8.27611 8.2763 8.49998 8.00016 8.49998C7.72403 8.49998 7.50016 8.27611 7.50016 7.99998C7.50016 7.72378 7.72403 7.49998 8.00016 7.49998C8.2763 7.49998 8.50016 7.72378 8.50016 7.99998Z" stroke="black" stroke-width="1.5" stroke-linecap="round" stroke-linejoin="round"/>
<circle cx="8" cy="8" r="0.5" fill="black"/>
</g>
<defs>
<clipPath id="clip0_1447_2">
<rect width="16" height="16" fill="white"/>
</clipPath>
</defs>
</svg>
