<svg width="16" height="16" viewBox="0 0 16 16" fill="none" xmlns="http://www.w3.org/2000/svg">
<path d="M7.7731 11.5274C7.35888 11.5274 7.0231 11.8632 7.0231 12.2774C7.0231 12.6917 7.35888 13.0274 7.7731 13.0274H8.22341C8.63762 13.0274 8.97341 12.6917 8.97341 12.2774C8.97341 11.8632 8.63762 11.5274 8.22341 11.5274H7.7731Z" fill="black"/>
<path fill-rule="evenodd" clip-rule="evenodd" d="M5.07124 0.769989C3.68984 0.769989 2.57 1.88983 2.57 3.27123V12.7278C2.57 14.1091 3.68984 15.229 5.07124 15.229H10.9253C12.3067 15.229 13.4265 14.1091 13.4265 12.7278V3.27123C13.4265 1.88983 12.3067 0.769989 10.9253 0.769989H5.07124ZM3.97 3.27123C3.97 2.66303 4.46304 2.16999 5.07124 2.16999H10.9253C11.5335 2.16999 12.0265 2.66303 12.0265 3.27123V12.7278C12.0265 13.336 11.5335 13.829 10.9253 13.829H5.07124C4.46304 13.829 3.97 13.336 3.97 12.7278V3.27123Z" fill="black"/>
</svg>
