<svg width="16" height="16" viewBox="0 0 16 16" fill="none" xmlns="http://www.w3.org/2000/svg">
<path d="M14.8638 6.62905H14.3V6.6H8V9.4H11.956C11.3789 11.0299 9.82805 12.2 8 12.2C5.68055 12.2 3.8 10.3194 3.8 8C3.8 5.68055 5.68055 3.8 8 3.8C9.07065 3.8 10.0447 4.2039 10.7863 4.86365L12.7663 2.8837C11.5161 1.71855 9.8438 1 8 1C4.13425 1 1 4.13425 1 8C1 11.8657 4.13425 15 8 15C11.8657 15 15 11.8657 15 8C15 7.53065 14.9517 7.0725 14.8638 6.62905Z" fill="#FFC107"/>
<path d="M1.80711 4.74185L4.10696 6.4285C4.72926 4.8878 6.23636 3.8 8.00001 3.8C9.07066 3.8 10.0447 4.2039 10.7864 4.86365L12.7663 2.8837C11.5161 1.71855 9.84381 1 8.00001 1C5.31131 1 2.97961 2.51795 1.80711 4.74185Z" fill="#FF3D00"/>
<path d="M7.99998 15C9.80808 15 11.451 14.3081 12.6931 13.1828L10.5266 11.3495C9.82383 11.8819 8.95023 12.2 7.99998 12.2C6.17928 12.2 4.63333 11.0391 4.05093 9.41891L1.76823 11.1777C2.92673 13.4446 5.27943 15 7.99998 15Z" fill="#4CAF50"/>
<path d="M14.8638 6.62904H14.3V6.59999H8V9.39999H11.9561C11.6789 10.1829 11.1752 10.8581 10.5256 11.3498C10.5259 11.3495 10.5263 11.3495 10.5266 11.3491L12.6931 13.1824C12.5398 13.3217 15 11.5 15 7.99999C15 7.53064 14.9517 7.07249 14.8638 6.62904Z" fill="#1976D2"/>
</svg>
