<svg width="16" height="16" viewBox="0 0 16 16" fill="none" xmlns="http://www.w3.org/2000/svg">
<g clip-path="url(#clip0_240_108)">
<path fill-rule="evenodd" clip-rule="evenodd" d="M14.3375 1.65002L15.0359 1.69818C15.0507 1.48257 14.9652 1.27218 14.804 1.12814C14.6429 0.9841 14.4243 0.92257 14.2117 0.961425L14.3375 1.65002ZM3.09485 13.4804C4.39073 14.5178 6.13204 15.0374 7.99382 15.0374C9.673 15.0374 10.9387 14.052 11.8614 12.7624C12.7807 11.4776 13.4296 9.80276 13.8897 8.18527C14.3526 6.55808 14.6384 4.93826 14.8085 3.73003C14.8938 3.12462 14.9504 2.61953 14.9858 2.26466C15.0035 2.08717 15.0159 1.94709 15.0239 1.85064C15.028 1.80241 15.0309 1.76507 15.0328 1.73941L15.035 1.70975L15.0356 1.70167L15.0358 1.69935L15.0358 1.69862C15.0359 1.69838 15.0359 1.69818 14.3375 1.65002C14.2117 0.961425 14.2115 0.961457 14.2113 0.961497L14.2106 0.961623L14.2084 0.962035L14.2004 0.9635L14.1711 0.968996C14.1457 0.973802 14.1086 0.980893 14.0606 0.990279C13.9647 1.00905 13.8252 1.037 13.6483 1.07421C13.2946 1.14861 12.7909 1.26012 12.1872 1.40933C10.9818 1.70721 9.3676 2.15772 7.74753 2.76664C6.13572 3.37246 4.47673 4.15018 3.20823 5.11687C1.95395 6.07272 0.950109 7.3175 0.950109 8.86872C0.950109 10.2879 1.37235 11.5017 2.10455 12.4673C1.90245 12.7348 1.72676 12.9776 1.58008 13.186C1.41303 13.4234 1.28321 13.6168 1.19447 13.7519C1.15009 13.8195 1.11595 13.8725 1.09254 13.9093L1.06552 13.952L1.05815 13.9638L1.05601 13.9672L1.05534 13.9683L1.0551 13.9687C1.055 13.9688 1.05492 13.969 1.65011 14.3374L1.05492 13.969C0.851435 14.2977 0.952949 14.7291 1.28166 14.9326C1.61031 15.1361 2.04165 15.0346 2.24519 14.706L2.24524 14.706L2.24529 14.7059L2.24622 14.7044L2.25124 14.6964L2.27336 14.6614C2.29343 14.6299 2.32402 14.5823 2.36466 14.5205C2.44596 14.3967 2.56736 14.2158 2.72501 13.9917C2.83214 13.8395 2.95582 13.6676 3.09485 13.4804ZM3.95991 12.3796C4.95772 13.1827 6.37343 13.6374 7.99382 13.6374C9.04899 13.6374 9.94345 13.037 10.7229 11.9477C11.5057 10.8536 12.101 9.35655 12.5432 7.80219C12.9826 6.25752 13.2574 4.70549 13.4222 3.53483C13.476 3.15258 13.5179 2.81227 13.55 2.52771C13.2611 2.59164 12.914 2.67184 12.5231 2.76844C11.3496 3.05844 9.79189 3.49387 8.2401 4.07713C6.68006 4.66349 5.16719 5.38419 4.05681 6.23038C2.9322 7.08741 2.35011 7.96996 2.35011 8.86872C2.35011 9.83478 2.59271 10.6537 3.01593 11.3263C4.21267 9.90938 5.91636 8.19856 7.88504 7.15631C8.22672 6.97543 8.65033 7.10577 8.83122 7.44744C9.0121 7.78912 8.88176 8.21273 8.54009 8.39362C6.79789 9.31596 5.22608 10.8769 4.07198 12.2457C4.03413 12.2906 3.99676 12.3352 3.95991 12.3796Z" fill="black"/>
</g>
<defs>
<clipPath id="clip0_240_108">
<rect width="16" height="16" fill="white"/>
</clipPath>
</defs>
</svg>
