<svg width="16" height="16" viewBox="0 0 16 16" fill="none" xmlns="http://www.w3.org/2000/svg">
<path fill-rule="evenodd" clip-rule="evenodd" d="M2.44999 8.09375C2.44999 6.78757 2.89372 5.58502 3.63866 4.62862L5.14205 6.13202C4.76799 6.69372 4.54999 7.36828 4.54999 8.09375C4.54999 8.81923 4.76799 9.49378 5.14205 10.0555L3.63866 11.5589C2.89372 10.6025 2.44999 9.39994 2.44999 8.09375ZM6.132 5.14207L4.62861 3.63868C5.585 2.89373 6.78755 2.45 8.09374 2.45C9.39993 2.45 10.6025 2.89373 11.5589 3.63868L10.0555 5.14207C9.49377 4.768 8.81921 4.55 8.09374 4.55C7.36826 4.55 6.69371 4.768 6.132 5.14207ZM11.0454 6.13202C11.4195 6.69372 11.6375 7.36828 11.6375 8.09375C11.6375 8.81923 11.4195 9.49378 11.0454 10.0555L12.5488 11.5589C13.2938 10.6025 13.7375 9.39994 13.7375 8.09375C13.7375 6.78757 13.2938 5.58502 12.5488 4.62863L11.0454 6.13202ZM10.0555 11.0454C9.49377 11.4195 8.81921 11.6375 8.09374 11.6375C7.36826 11.6375 6.69371 11.4195 6.132 11.0454L4.62861 12.5488C5.585 13.2938 6.78755 13.7375 8.09374 13.7375C9.39993 13.7375 10.6025 13.2938 11.5589 12.5488L10.0555 11.0454ZM8.09374 1.05C4.20358 1.05 1.04999 4.2036 1.04999 8.09375C1.04999 11.9839 4.20358 15.1375 8.09374 15.1375C11.9839 15.1375 15.1375 11.9839 15.1375 8.09375C15.1375 4.2036 11.9839 1.05 8.09374 1.05ZM5.94999 8.09375C5.94999 6.90979 6.90978 5.95 8.09374 5.95C9.2777 5.95 10.2375 6.90979 10.2375 8.09375C10.2375 9.27771 9.2777 10.2375 8.09374 10.2375C6.90978 10.2375 5.94999 9.27771 5.94999 8.09375Z" fill="#0E1438"/>
</svg>
