<svg width="16" height="16" viewBox="0 0 16 16" fill="none" xmlns="http://www.w3.org/2000/svg">
<path fill-rule="evenodd" clip-rule="evenodd" d="M3.25999 4.05999C3.25999 3.61816 3.61816 3.25999 4.05999 3.25999H11.935C12.3768 3.25999 12.735 3.61815 12.735 4.05999V11.935C12.735 12.3768 12.3768 12.735 11.935 12.735H4.05999C3.61815 12.735 3.25999 12.3768 3.25999 11.935V4.05999ZM4.05999 1.85999C2.84496 1.85999 1.85999 2.84496 1.85999 4.05999V11.935C1.85999 13.15 2.84497 14.135 4.05999 14.135H11.935C13.15 14.135 14.135 13.15 14.135 11.935V4.05999C14.135 2.84497 13.15 1.85999 11.935 1.85999H4.05999ZM6.15999 6.30999C6.15999 5.97861 5.89136 5.70999 5.55999 5.70999C5.22861 5.70999 4.95999 5.97861 4.95999 6.30999V10.435C4.95999 10.7664 5.22861 11.035 5.55999 11.035C5.89136 11.035 6.15999 10.7664 6.15999 10.435V6.30999ZM10.435 5.70999C10.7664 5.70999 11.035 5.97861 11.035 6.30999V10.435C11.035 10.7664 10.7664 11.035 10.435 11.035C10.1036 11.035 9.83499 10.7664 9.83499 10.435V6.30999C9.83499 5.97861 10.1036 5.70999 10.435 5.70999ZM8.59749 8.55999C8.59749 8.22861 8.32886 7.95999 7.99749 7.95999C7.66611 7.95999 7.39749 8.22861 7.39749 8.55999V10.435C7.39749 10.7664 7.66611 11.035 7.99749 11.035C8.32886 11.035 8.59749 10.7664 8.59749 10.435V8.55999Z" fill="black"/>
</svg>
