<svg width="16" height="16" viewBox="0 0 16 16" fill="none" xmlns="http://www.w3.org/2000/svg"><path d="M7.605 3.735 C 7.509 3.783,7.395 3.869,7.331 3.942 C 7.187 4.104,3.619 10.198,3.574 10.357 C 3.458 10.773,3.679 11.250,4.076 11.436 L 4.227 11.507 8.000 11.507 L 11.773 11.507 11.924 11.436 C 12.236 11.290,12.430 10.999,12.449 10.648 C 12.456 10.517,12.445 10.415,12.416 10.330 C 12.353 10.143,8.807 4.097,8.672 3.945 C 8.605 3.869,8.491 3.783,8.395 3.735 C 8.250 3.663,8.205 3.653,8.000 3.653 C 7.795 3.653,7.750 3.663,7.605 3.735 M9.701 7.625 C 10.628 9.208,11.387 10.510,11.387 10.518 C 11.387 10.526,9.863 10.533,8.000 10.533 C 6.137 10.533,4.613 10.527,4.613 10.518 C 4.613 10.492,7.985 4.747,8.000 4.747 C 8.009 4.747,8.774 6.042,9.701 7.625 M7.753 6.322 C 7.698 6.351,7.620 6.424,7.580 6.485 L 7.507 6.596 7.498 7.438 C 7.489 8.360,7.496 8.421,7.634 8.578 C 7.835 8.807,8.165 8.807,8.366 8.578 C 8.504 8.421,8.511 8.360,8.502 7.438 L 8.493 6.596 8.420 6.485 C 8.282 6.277,7.979 6.203,7.753 6.322 M7.744 9.024 C 7.168 9.292,7.363 10.160,8.000 10.160 C 8.508 10.160,8.778 9.593,8.465 9.183 C 8.374 9.063,8.159 8.961,8.000 8.961 C 7.930 8.961,7.824 8.987,7.744 9.024 " stroke="none" fill-rule="evenodd" fill="black"></path></svg>