<svg width="16" height="16" viewBox="0 0 16 16" fill="none" xmlns="http://www.w3.org/2000/svg"><path d="M7.872 1.896 C 7.808 1.908,7.718 1.942,7.672 1.971 C 7.625 2.000,6.888 2.724,6.035 3.579 C 4.850 4.765,4.470 5.162,4.429 5.253 C 4.294 5.553,4.425 5.900,4.733 6.060 C 4.870 6.131,5.121 6.136,5.253 6.069 C 5.305 6.043,5.800 5.570,6.353 5.018 L 7.360 4.014 7.360 6.975 C 7.360 9.000,7.369 9.987,7.389 10.094 C 7.423 10.275,7.509 10.410,7.665 10.522 C 7.764 10.594,7.792 10.600,8.000 10.600 C 8.208 10.600,8.236 10.594,8.335 10.522 C 8.491 10.410,8.577 10.275,8.611 10.094 C 8.631 9.987,8.640 9.000,8.640 6.975 L 8.640 4.014 9.647 5.018 C 10.200 5.570,10.695 6.043,10.747 6.069 C 10.871 6.132,11.129 6.131,11.253 6.068 C 11.595 5.894,11.721 5.502,11.536 5.191 C 11.500 5.130,10.765 4.376,9.902 3.516 C 8.690 2.308,8.312 1.947,8.240 1.926 C 8.087 1.881,7.993 1.873,7.872 1.896 M2.382 7.896 C 2.178 7.934,2.035 8.043,1.930 8.240 C 1.883 8.329,1.880 8.448,1.872 10.600 C 1.867 12.205,1.874 12.920,1.895 13.049 C 1.958 13.424,2.244 13.813,2.584 13.985 C 2.887 14.139,2.654 14.132,8.000 14.132 C 12.125 14.132,12.949 14.126,13.097 14.095 C 13.604 13.987,14.020 13.556,14.105 13.049 C 14.126 12.920,14.133 12.205,14.128 10.600 C 14.120 8.336,14.120 8.333,14.062 8.227 C 13.942 8.003,13.748 7.888,13.491 7.888 C 13.317 7.888,13.192 7.939,13.069 8.060 C 12.881 8.243,12.895 8.063,12.880 10.587 L 12.867 12.867 8.000 12.867 L 3.133 12.867 3.120 10.587 C 3.105 8.063,3.119 8.243,2.931 8.060 C 2.781 7.912,2.594 7.857,2.382 7.896 " stroke="none" fill-rule="evenodd" fill="black"></path></svg>