<svg width="16" height="16" viewBox="0 0 16 16" fill="none" xmlns="http://www.w3.org/2000/svg">
<path fill-rule="evenodd" clip-rule="evenodd" d="M15.2107 2.85301L11.2706 2.85199C11.2701 2.85199 11.2696 2.85199 11.2696 2.85199C11.2665 2.85199 11.2635 2.85254 11.2605 2.85254C10.7193 2.86925 10.0451 3.30688 9.92233 3.84652L8.059 12.1577C7.93622 12.7024 8.27025 13.1456 8.80761 13.1537H12.9469C13.476 13.1273 13.9903 12.6947 14.1109 12.1612L15.9743 3.85C16.0991 3.29979 15.757 2.85301 15.2107 2.85301Z" fill="#01798A"/>
<path fill-rule="evenodd" clip-rule="evenodd" d="M8.059 12.1576L9.92232 3.84645C10.0451 3.30681 10.7193 2.86918 11.2605 2.85246L9.69395 2.85144L6.87145 2.85089C6.32865 2.86208 5.64571 3.30278 5.52298 3.84645L3.6591 12.1576C3.53587 12.7023 3.87039 13.1455 4.40741 13.1537H8.8076C8.27024 13.1455 7.93621 12.7023 8.059 12.1576Z" fill="#024381"/>
<path fill-rule="evenodd" clip-rule="evenodd" d="M3.65911 12.1577L5.52299 3.84649C5.64572 3.30282 6.32866 2.86212 6.87145 2.85093L3.25564 2.84998C2.70982 2.84998 2.01001 3.29573 1.88527 3.84649L0.0213898 12.1577C0.0100471 12.2084 0.0037544 12.2581 0 12.3067V12.4609C0.0364869 12.858 0.337293 13.1471 0.769688 13.1537H4.40742C3.87039 13.1455 3.53588 12.7023 3.65911 12.1577Z" fill="#DD0228"/>
<path fill-rule="evenodd" clip-rule="evenodd" d="M6.94768 8.90704H7.01611C7.07899 8.90704 7.12129 8.88577 7.14112 8.84366L7.31893 8.5754H7.7951L7.69581 8.75184H8.26674L8.19432 9.02218H7.51495C7.43671 9.14084 7.34039 9.19662 7.22458 9.19001H6.87072L6.94768 8.90704ZM6.86949 9.29449H8.12033L8.0406 9.58815H7.53755L7.4608 9.8716H7.9503L7.87057 10.1652H7.38106L7.26735 10.5841C7.23919 10.6541 7.27622 10.6856 7.37782 10.6784H7.77676L7.70284 10.9513H6.93691C6.79172 10.9513 6.74192 10.8676 6.78746 10.6998L6.93285 10.1652H6.61995L6.69943 9.8716H7.01238L7.08907 9.58815H6.78996L6.86949 9.29449ZM8.86596 8.57338L8.84626 8.74529C8.84626 8.74529 9.08221 8.56671 9.29651 8.56671H10.0884L9.78554 9.67174C9.76043 9.79807 9.65274 9.86089 9.46254 9.86089H8.56503L8.35479 10.6368C8.34268 10.6784 8.3598 10.6997 8.40508 10.6997H8.58168L8.51677 10.9406H8.0678C7.89548 10.9406 7.8238 10.8883 7.85223 10.7834L8.4463 8.57338H8.86596ZM9.53652 8.88574H8.82975L8.74521 9.18391C8.74521 9.18391 8.86291 9.09825 9.05961 9.09518C9.25576 9.09209 9.47967 9.09518 9.47967 9.09518L9.53652 8.88574ZM9.28046 9.57746C9.33272 9.5846 9.36196 9.56376 9.36548 9.51456L9.40873 9.35739H8.70087L8.64151 9.57746H9.28046ZM8.80302 9.93445H9.21103L9.20345 10.1124H9.31208C9.36698 10.1124 9.39419 10.0947 9.39419 10.0597L9.42634 9.94461H9.76544L9.72016 10.1124C9.68185 10.2524 9.58032 10.3254 9.4153 10.3326H9.19796L9.19695 10.6368C9.19296 10.6856 9.23668 10.7104 9.3267 10.7104H9.53098L9.46505 10.9513H8.97507C8.83774 10.9579 8.77039 10.8919 8.77181 10.752L8.80302 9.93445Z" fill="white"/>
<path fill-rule="evenodd" clip-rule="evenodd" d="M3.85884 7.10115C3.8035 7.37449 3.67522 7.58444 3.47623 7.73353C3.27905 7.8801 3.02472 7.9536 2.71334 7.9536C2.42031 7.9536 2.20548 7.87855 2.06839 7.72794C1.97331 7.62092 1.92601 7.48502 1.92601 7.32071C1.92601 7.25277 1.93408 7.17974 1.95018 7.10115L2.28194 5.48853H2.78301L2.45576 7.08289C2.44569 7.12702 2.44167 7.16809 2.4422 7.20512C2.44167 7.28678 2.46178 7.3537 2.50253 7.40591C2.56189 7.48353 2.65824 7.52204 2.79231 7.52204C2.94648 7.52204 3.07352 7.48404 3.17212 7.40743C3.27074 7.33137 3.33512 7.22338 3.36405 7.08289L3.69232 5.48853H4.19085L3.85884 7.10115Z" fill="white"/>
<path fill-rule="evenodd" clip-rule="evenodd" d="M5.96316 6.4668H6.35558L6.04819 7.90602H5.65654L5.96316 6.4668ZM6.08669 5.94244H6.4826L6.40865 6.29179H6.01276L6.08669 5.94244Z" fill="white"/>
<path fill-rule="evenodd" clip-rule="evenodd" d="M6.70295 7.7964C6.60031 7.69752 6.54849 7.56415 6.54799 7.39477C6.54799 7.36585 6.54974 7.33291 6.55354 7.29688C6.55732 7.26036 6.56211 7.22486 6.56888 7.19192C6.61541 6.95814 6.71453 6.77254 6.8672 6.6356C7.01962 6.49817 7.20353 6.4292 7.41884 6.4292C7.59516 6.4292 7.735 6.47891 7.83741 6.5783C7.93975 6.67821 7.99105 6.81308 7.99105 6.98454C7.99105 7.0139 7.98882 7.04789 7.98503 7.0844C7.98049 7.12142 7.97501 7.15692 7.96865 7.19192C7.92316 7.42214 7.82434 7.60573 7.67164 7.74014C7.51894 7.87554 7.33558 7.94293 7.12176 7.94293C6.9447 7.94293 6.80533 7.89427 6.70295 7.7964ZM7.45078 7.51141C7.51995 7.43585 7.5695 7.32121 7.59969 7.1686C7.60422 7.14477 7.60821 7.11991 7.61072 7.09507C7.61322 7.07071 7.61424 7.04789 7.61424 7.0271C7.61424 6.93835 7.59184 6.8694 7.54682 6.82071C7.50208 6.7715 7.43846 6.74719 7.35622 6.74719C7.24752 6.74719 7.15898 6.78568 7.0896 6.86279C7.01962 6.9399 6.97007 7.05653 6.93887 7.2117C6.9346 7.23553 6.93109 7.25938 6.92784 7.2827C6.92533 7.30653 6.92459 7.32884 6.92506 7.34912C6.92506 7.43737 6.94746 7.50533 6.99248 7.55349C7.03722 7.60168 7.10057 7.62551 7.18389 7.62551C7.29307 7.62551 7.3816 7.58748 7.45078 7.51141Z" fill="white"/>
<path fill-rule="evenodd" clip-rule="evenodd" d="M10.5371 8.91915L10.6317 8.58346H11.1102L11.0895 8.70665C11.0895 8.70665 11.334 8.58346 11.51 8.58346C11.6862 8.58346 12.1016 8.58346 12.1016 8.58346L12.0076 8.91915H11.9145L11.4683 10.5024H11.5613L11.4728 10.8168H11.3797L11.341 10.9532H10.8777L10.9164 10.8168H10.0023L10.0914 10.5024H10.183L10.6296 8.91915H10.5371ZM11.0533 8.91918L10.9315 9.34767C10.9315 9.34767 11.1399 9.26707 11.3194 9.24426C11.3591 9.09463 11.4109 8.91918 11.4109 8.91918L11.0533 8.91918ZM10.8751 9.5485L10.753 9.9973C10.753 9.9973 10.9838 9.88269 11.1423 9.87304C11.1881 9.69959 11.2339 9.5485 11.2339 9.5485L10.8751 9.5485ZM10.9647 10.5024L11.0563 10.1768H10.6992L10.6071 10.5024H10.9647ZM12.1218 8.56268H12.5716L12.5906 8.72998C12.5877 8.77257 12.6128 8.79291 12.6661 8.79291H12.7456L12.6652 9.07636H12.3346C12.2083 9.08294 12.1434 9.0343 12.1374 8.92929L12.1218 8.56268ZM11.99 9.17071H13.4469L13.3614 9.475H12.8975L12.818 9.75792H13.2814L13.1953 10.0617H12.6792L12.5625 10.2397H12.8151L12.8734 10.5962C12.8804 10.6317 12.9116 10.649 12.9649 10.649H13.0434L12.9609 10.9425H12.6832C12.5393 10.9497 12.4649 10.901 12.4589 10.796L12.3919 10.4705L12.1621 10.8168C12.1077 10.9147 12.0242 10.9604 11.9115 10.9532H11.4874L11.5699 10.6596H11.7023C11.7566 10.6596 11.8018 10.6352 11.8426 10.5861L12.2023 10.0617H11.7385L11.8244 9.75792H12.3275L12.4075 9.475H11.904L11.99 9.17071Z" fill="white"/>
<path fill-rule="evenodd" clip-rule="evenodd" d="M4.32039 6.46627H4.67429L4.63381 6.67418L4.6846 6.61485C4.79932 6.49113 4.93866 6.42975 5.10317 6.42975C5.25208 6.42975 5.35948 6.47338 5.4269 6.56109C5.49329 6.64884 5.5114 6.77005 5.47999 6.92573L5.28502 7.9065H4.92131L5.09738 7.01752C5.11552 6.92573 5.11049 6.85726 5.08252 6.81312C5.05489 6.76901 5.00203 6.74723 4.92583 6.74723C4.83226 6.74723 4.75353 6.77661 4.68939 6.83495C4.62498 6.89377 4.58249 6.97544 4.5616 7.07938L4.39937 7.9065H4.0349L4.32039 6.46627Z" fill="white"/>
<path fill-rule="evenodd" clip-rule="evenodd" d="M8.37889 6.46627H8.73309L8.69289 6.67418L8.74311 6.61485C8.85791 6.49113 8.99775 6.42975 9.16175 6.42975C9.31066 6.42975 9.41828 6.47338 9.48515 6.56109C9.55114 6.64884 9.57023 6.77005 9.53801 6.92573L9.34382 7.9065H8.9796L9.15572 7.01752C9.1738 6.92573 9.16879 6.85726 9.1411 6.81312C9.1124 6.76901 9.06056 6.74723 8.98468 6.74723C8.89107 6.74723 8.81262 6.77661 8.74771 6.83495C8.68328 6.89377 8.64057 6.97544 8.62046 7.07938L8.45748 7.9065H8.09346L8.37889 6.46627" fill="white"/>
<path fill-rule="evenodd" clip-rule="evenodd" d="M10.1296 5.57367H11.1579C11.3556 5.57367 11.5085 5.61884 11.6137 5.70754C11.7183 5.79733 11.7707 5.92615 11.7707 6.094V6.09905C11.7707 6.13098 11.7686 6.167 11.7656 6.20603C11.7605 6.24458 11.754 6.28361 11.7455 6.32421C11.7002 6.54633 11.595 6.72485 11.4326 6.86025C11.2695 6.99514 11.0764 7.0631 10.8541 7.0631H10.3027L10.1322 7.90645H9.65469L10.1296 5.57367ZM10.3866 6.65741H10.844C10.9632 6.65741 11.0578 6.62948 11.1267 6.57423C11.1952 6.51845 11.2404 6.43327 11.2655 6.31765C11.2695 6.2963 11.272 6.27706 11.2751 6.25932C11.2766 6.2426 11.2786 6.22581 11.2786 6.20964C11.2786 6.12695 11.2495 6.06711 11.1911 6.02958C11.1327 5.99151 11.0412 5.97329 10.9144 5.97329H10.526L10.3866 6.65741Z" fill="white"/>
<path fill-rule="evenodd" clip-rule="evenodd" d="M13.9077 8.1849C13.7568 8.50841 13.6129 8.69703 13.5284 8.78477C13.4438 8.87152 13.2764 9.07336 12.8729 9.05812L12.9076 8.81118C13.2471 8.70569 13.4308 8.23047 13.5354 8.02005L13.4107 6.47028L13.6733 6.46674H13.8936L13.9173 7.43889L14.3303 6.46674H14.7484L13.9077 8.1849Z" fill="white"/>
<path fill-rule="evenodd" clip-rule="evenodd" d="M12.7386 6.58391L12.5725 6.69905C12.399 6.56214 12.2405 6.47744 11.9347 6.62043C11.5181 6.81515 11.17 8.30866 12.317 7.81674L12.3824 7.89483L12.8336 7.9065L13.13 6.54942L12.7386 6.58391ZM12.482 7.32583C12.4095 7.54138 12.2476 7.68386 12.1208 7.6433C11.9941 7.60374 11.9488 7.3958 12.0222 7.17978C12.0946 6.96373 12.2576 6.82175 12.3834 6.86232C12.5102 6.90188 12.5559 7.10979 12.482 7.32583Z" fill="white"/>
</svg>
