<svg width="16" height="16" viewBox="0 0 16 16" fill="none" xmlns="http://www.w3.org/2000/svg"><path d="M12.387 3.689 C 12.343 3.706,12.281 3.735,12.249 3.753 C 12.217 3.771,10.828 5.363,9.162 7.289 L 6.133 10.792 4.953 9.607 C 4.250 8.901,3.731 8.400,3.668 8.368 C 3.533 8.298,3.275 8.294,3.145 8.360 C 2.822 8.523,2.686 8.902,2.843 9.205 C 2.910 9.335,5.751 12.207,5.880 12.275 C 6.030 12.354,6.293 12.353,6.446 12.272 C 6.533 12.226,7.281 11.378,9.832 8.427 C 11.633 6.345,13.131 4.596,13.160 4.540 C 13.271 4.331,13.211 3.985,13.036 3.822 C 12.878 3.674,12.579 3.613,12.387 3.689 " stroke="none" fill-rule="evenodd" fill="black"></path></svg>