<svg width="16" height="16" viewBox="0 0 16 16" fill="none" xmlns="http://www.w3.org/2000/svg"><path d="M7.872 1.229 C 7.576 1.286,7.383 1.525,7.383 1.832 C 7.383 2.077,7.541 2.319,7.760 2.409 C 7.813 2.431,8.002 2.455,8.200 2.465 C 9.844 2.552,11.227 3.232,12.256 4.460 C 13.021 5.373,13.445 6.447,13.522 7.666 C 13.554 8.182,13.575 8.265,13.702 8.406 C 14.038 8.780,14.622 8.645,14.765 8.160 C 14.846 7.883,14.746 6.947,14.561 6.252 C 14.065 4.394,12.803 2.830,11.101 1.965 C 10.261 1.538,9.361 1.283,8.543 1.240 C 8.384 1.232,8.193 1.221,8.120 1.216 C 8.047 1.211,7.935 1.216,7.872 1.229 " stroke="none" fill-rule="evenodd" fill="black"></path></svg>