<svg width="16" height="16" viewBox="0 0 16 16" fill="none" xmlns="http://www.w3.org/2000/svg">
<path fill-rule="evenodd" clip-rule="evenodd" d="M11.1931 5.08246C11.2782 4.99487 11.3941 4.94384 11.5162 4.94021C11.6108 4.93742 11.7041 4.96328 11.7838 5.01442C11.8635 5.06556 11.9259 5.13959 11.9628 5.2268C11.9997 5.31401 12.0094 5.41033 11.9907 5.50315C11.9719 5.59596 11.9255 5.68094 11.8576 5.74695L6.6886 10.916C6.60047 11.004 6.48096 11.0535 6.35636 11.0535C6.23175 11.0535 6.11225 11.004 6.02412 10.916L4.14448 9.03632C4.09938 8.99302 4.06337 8.94115 4.03857 8.88376C4.01376 8.82637 4.00066 8.76461 4.00002 8.7021C3.99939 8.63958 4.01123 8.57756 4.03486 8.51968C4.0585 8.4618 4.09344 8.40921 4.13765 8.365C4.18186 8.3208 4.23444 8.28585 4.29232 8.26222C4.35021 8.23859 4.41222 8.22675 4.47474 8.22738C4.53726 8.22802 4.59902 8.24112 4.65641 8.26593C4.7138 8.29073 4.76566 8.32674 4.80896 8.37183L6.35636 9.91923L11.1931 5.08246Z" fill="#0E1438"/>
<path d="M11.5162 4.94021L11.5088 4.69032L11.5087 4.69032L11.5162 4.94021ZM11.1931 5.08246L11.3699 5.25926L11.3724 5.25668L11.1931 5.08246ZM11.7838 5.01442L11.9188 4.80401L11.9188 4.80401L11.7838 5.01442ZM11.9628 5.2268L12.1931 5.12936L12.1931 5.12936L11.9628 5.2268ZM11.9907 5.50315L12.2357 5.55272L12.2357 5.55272L11.9907 5.50315ZM11.8576 5.74695L11.6833 5.56766L11.6808 5.57017L11.8576 5.74695ZM6.6886 10.916L6.86534 11.0928L6.86538 11.0927L6.6886 10.916ZM6.02412 10.916L5.84734 11.0927L5.84738 11.0928L6.02412 10.916ZM4.14448 9.03632L4.32129 8.8595L4.31762 8.85598L4.14448 9.03632ZM4.03857 8.88376L4.26805 8.78458L4.26805 8.78458L4.03857 8.88376ZM4.00002 8.7021L4.25001 8.69955L4.00002 8.7021ZM4.03486 8.51968L4.26632 8.61418L4.26632 8.61417L4.03486 8.51968ZM4.13765 8.365L3.96087 8.18823L3.96087 8.18823L4.13765 8.365ZM4.29232 8.26222L4.38682 8.49368L4.38682 8.49368L4.29232 8.26222ZM4.65641 8.26593L4.75559 8.03644L4.75559 8.03644L4.65641 8.26593ZM4.80896 8.37183L4.62859 8.54501L4.63218 8.54861L4.80896 8.37183ZM6.35636 9.91923L6.17958 10.096L6.35636 10.2728L6.53313 10.096L6.35636 9.91923ZM11.5087 4.69032C11.3217 4.69589 11.1442 4.77405 11.0138 4.90825L11.3724 5.25668C11.4123 5.21568 11.4665 5.1918 11.5236 5.1901L11.5087 4.69032ZM11.9188 4.80401C11.7967 4.72567 11.6538 4.68604 11.5088 4.69032L11.5236 5.1901C11.5679 5.18879 11.6115 5.2009 11.6488 5.22483L11.9188 4.80401ZM12.1931 5.12936C12.1365 4.99576 12.0409 4.88236 11.9188 4.80401L11.6488 5.22483C11.6861 5.24877 11.7153 5.28342 11.7326 5.32423L12.1931 5.12936ZM12.2357 5.55272C12.2645 5.41053 12.2496 5.26296 12.1931 5.12936L11.7326 5.32423C11.7499 5.36505 11.7544 5.41013 11.7456 5.45358L12.2357 5.55272ZM12.0319 5.92621C12.1359 5.82509 12.2069 5.69491 12.2357 5.55272L11.7456 5.45357C11.7368 5.49702 11.7151 5.53679 11.6834 5.56768L12.0319 5.92621ZM6.86538 11.0927L12.0344 5.92372L11.6808 5.57017L6.51182 10.7392L6.86538 11.0927ZM6.35636 11.3035C6.54725 11.3035 6.73033 11.2277 6.86534 11.0928L6.51186 10.7391C6.47061 10.7804 6.41468 10.8035 6.35636 10.8035V11.3035ZM5.84738 11.0928C5.98239 11.2277 6.16547 11.3035 6.35636 11.3035V10.8035C6.29804 10.8035 6.2421 10.7804 6.20086 10.7391L5.84738 11.0928ZM3.9677 9.21309L5.84734 11.0927L6.20089 10.7392L4.32125 8.85954L3.9677 9.21309ZM3.80909 8.98295C3.84708 9.07087 3.90224 9.15032 3.97133 9.21665L4.31762 8.85598C4.29651 8.83571 4.27966 8.81144 4.26805 8.78458L3.80909 8.98295ZM3.75004 8.70464C3.75101 8.80041 3.77109 8.89503 3.80909 8.98295L4.26805 8.78458C4.25644 8.75772 4.25031 8.72881 4.25001 8.69955L3.75004 8.70464ZM3.80341 8.42519C3.76721 8.51386 3.74906 8.60886 3.75004 8.70464L4.25001 8.69955C4.24971 8.67029 4.25526 8.64127 4.26632 8.61418L3.80341 8.42519ZM3.96087 8.18823C3.89314 8.25595 3.83961 8.33651 3.80341 8.42519L4.26632 8.61417C4.27738 8.58708 4.29373 8.56247 4.31442 8.54178L3.96087 8.18823ZM4.19783 8.03077C4.10916 8.06697 4.0286 8.1205 3.96087 8.18823L4.31442 8.54178C4.33512 8.52109 4.35973 8.50474 4.38682 8.49368L4.19783 8.03077ZM4.47728 7.97739C4.38151 7.97642 4.2865 7.99457 4.19783 8.03077L4.38682 8.49368C4.41391 8.48261 4.44293 8.47707 4.47219 8.47737L4.47728 7.97739ZM4.75559 8.03644C4.66767 7.99844 4.57306 7.97837 4.47728 7.97739L4.47219 8.47737C4.50145 8.47767 4.53036 8.4838 4.55722 8.49541L4.75559 8.03644ZM4.9893 8.19869C4.92296 8.1296 4.84351 8.07444 4.75559 8.03644L4.55722 8.49541C4.58408 8.50702 4.60836 8.52387 4.62862 8.54498L4.9893 8.19869ZM6.53313 9.74246L4.98574 8.19506L4.63218 8.54861L6.17958 10.096L6.53313 9.74246ZM11.0163 4.90569L6.17958 9.74246L6.53313 10.096L11.3699 5.25924L11.0163 4.90569Z" fill="#0E1438"/>
</svg>
