<svg width="16" height="16" viewBox="0 0 16 16" fill="none" xmlns="http://www.w3.org/2000/svg"><path d="M2.245 1.109 C 2.084 1.189,1.963 1.345,1.921 1.524 C 1.884 1.684,1.884 14.316,1.921 14.476 C 1.963 14.657,2.085 14.812,2.248 14.892 L 2.389 14.961 7.281 14.954 L 12.173 14.947 12.400 14.870 C 13.250 14.583,13.817 13.980,14.033 13.130 L 14.093 12.893 14.093 8.000 L 14.093 3.107 14.033 2.870 C 13.966 2.609,13.813 2.261,13.677 2.062 C 13.412 1.674,12.958 1.326,12.518 1.172 C 12.128 1.035,12.316 1.040,7.176 1.040 L 2.384 1.040 2.245 1.109 M12.193 2.392 C 12.538 2.555,12.779 2.889,12.828 3.274 C 12.859 3.508,12.859 12.492,12.828 12.726 C 12.762 13.241,12.378 13.627,11.853 13.706 C 11.727 13.725,10.302 13.732,7.413 13.727 L 3.160 13.720 3.153 8.006 L 3.147 2.293 7.580 2.300 L 12.013 2.307 12.193 2.392 M7.159 3.681 C 6.894 3.716,6.667 3.784,6.404 3.908 C 6.081 4.060,5.874 4.210,5.624 4.472 C 5.125 4.994,4.880 5.651,4.915 6.373 C 5.011 8.357,7.232 9.507,8.892 8.434 C 9.164 8.258,9.319 8.119,9.511 7.880 C 9.948 7.334,10.152 6.653,10.079 5.985 C 10.045 5.678,9.910 5.243,9.771 4.994 C 9.255 4.071,8.207 3.544,7.159 3.681 M7.811 4.948 C 8.255 5.053,8.626 5.395,8.773 5.836 C 8.837 6.029,8.850 6.401,8.799 6.592 C 8.741 6.808,8.587 7.060,8.412 7.224 C 8.212 7.411,8.032 7.504,7.751 7.565 C 6.958 7.737,6.160 7.084,6.160 6.262 C 6.160 5.684,6.515 5.179,7.053 4.991 C 7.320 4.898,7.544 4.885,7.811 4.948 M5.363 10.244 C 5.062 10.332,4.866 10.643,4.916 10.953 C 4.940 11.104,5.066 11.283,5.212 11.373 L 5.342 11.453 7.450 11.460 C 9.833 11.469,9.723 11.477,9.917 11.267 C 10.211 10.948,10.125 10.485,9.733 10.276 C 9.645 10.229,9.533 10.226,7.547 10.222 C 6.225 10.219,5.420 10.227,5.363 10.244 " stroke="none" fill-rule="evenodd"></path></svg>