<svg width="16" height="16" viewBox="0 0 16 16" fill="none" xmlns="http://www.w3.org/2000/svg">
<path d="M5.38363 0.512656C5.34497 0.519686 5.30514 0.526716 5.27116 0.550148C5.13408 0.642706 5.10362 0.834852 5.19618 0.971931L5.84291 1.93734C4.84352 2.46692 4.09837 3.3468 3.85584 4.40243H12.1415C11.899 3.3468 11.1539 2.46692 10.1545 1.93734L10.8012 0.971931C10.8938 0.834852 10.8633 0.642706 10.7262 0.550148C10.588 0.45759 10.397 0.497425 10.3044 0.634505L9.59209 1.68427C9.09766 1.50385 8.56106 1.40309 7.99869 1.40309C7.43631 1.40309 6.89971 1.50385 6.40529 1.68427L5.69294 0.634505C5.62382 0.531402 5.49845 0.490396 5.38363 0.512656ZM6.34905 2.90276C6.59743 2.90276 6.79895 3.10428 6.79895 3.35266C6.79895 3.60221 6.59743 3.80256 6.34905 3.80256C6.09949 3.80256 5.89915 3.60221 5.89915 3.35266C5.89915 3.10428 6.09949 2.90276 6.34905 2.90276ZM9.64833 2.90276C9.89788 2.90276 10.0982 3.10428 10.0982 3.35266C10.0982 3.60221 9.89788 3.80256 9.64833 3.80256C9.39994 3.80256 9.19842 3.60221 9.19842 3.35266C9.19842 3.10428 9.39994 2.90276 9.64833 2.90276ZM2.8998 5.0023C2.40304 5.0023 2 5.40533 2 5.9021V10.1012C2 10.5979 2.40304 11.001 2.8998 11.001C3.00525 11.001 3.10601 10.9787 3.19974 10.9447V5.05854C3.10601 5.02456 3.00525 5.0023 2.8998 5.0023ZM3.79961 5.0023V11.6009C3.79961 12.0964 4.20381 12.5007 4.69941 12.5007H11.298C11.7936 12.5007 12.1978 12.0964 12.1978 11.6009V5.0023H3.79961ZM13.0976 5.0023C12.9921 5.0023 12.8914 5.02456 12.7976 5.05854V10.9447C12.8914 10.9776 12.9921 11.001 13.0976 11.001C13.5943 11.001 13.9974 10.5979 13.9974 10.1012V5.9021C13.9974 5.40533 13.5943 5.0023 13.0976 5.0023ZM4.99934 13.1005V14.3003C4.99934 14.9622 5.53712 15.5 6.19908 15.5C6.86104 15.5 7.39882 14.9622 7.39882 14.3003V13.1005H4.99934ZM8.59856 13.1005V14.3003C8.59856 14.9622 9.13633 15.5 9.79829 15.5C10.4603 15.5 10.998 14.9622 10.998 14.3003V13.1005H8.59856Z" fill="black"/>
</svg>
