<svg width="16" height="16" viewBox="0 0 16 16" fill="none" xmlns="http://www.w3.org/2000/svg">
<path fill-rule="evenodd" clip-rule="evenodd" d="M5.42995 2.74719C5.87354 2.29263 6.63712 1.85001 8.00063 1.85001C9.36414 1.85001 10.1277 2.29263 10.5713 2.74719C10.9443 3.12942 11.1413 3.64157 11.2361 4.28853C11.3188 4.85269 11.3164 5.45153 11.3139 6.09216C11.3139 6.09964 11.3139 6.10712 11.3138 6.11461H4.68742C4.68739 6.10714 4.68736 6.09967 4.68733 6.09221V6.09216C4.68482 5.45153 4.68248 4.85269 4.76515 4.28853C4.85996 3.64157 5.05693 3.12942 5.42995 2.74719ZM3.28718 6.11461C3.28412 5.48021 3.28081 4.76206 3.37994 4.08554C3.49816 3.27882 3.77156 2.44205 4.42798 1.7694C5.15853 1.02079 6.29489 0.450012 8.00063 0.450012C9.70636 0.450012 10.8427 1.02079 11.5733 1.7694C12.2297 2.44205 12.5031 3.27882 12.6213 4.08554C12.7204 4.76206 12.7171 5.48021 12.7141 6.11461H12.9571C13.8651 6.11461 14.6012 6.8507 14.6012 7.75871V12.9513C14.6012 14.3807 13.4425 15.5395 12.013 15.5395H3.98819C2.55877 15.5395 1.39999 14.3807 1.39999 12.9513V7.75871C1.39999 6.8507 2.13608 6.11461 3.04409 6.11461H3.28718ZM2.79999 7.75871C2.79999 7.6239 2.90928 7.51461 3.04409 7.51461H12.9571C13.0919 7.51461 13.2012 7.6239 13.2012 7.75871V12.9513C13.2012 13.6075 12.6693 14.1395 12.013 14.1395H3.98819C3.33197 14.1395 2.79999 13.6075 2.79999 12.9513V7.75871Z" fill="black"/>
</svg>
