<svg width="16" height="16" viewBox="0 0 16 16" fill="none" xmlns="http://www.w3.org/2000/svg">
<path fill-rule="evenodd" clip-rule="evenodd" d="M8.55 2.75C8.55 2.30817 8.19183 1.95 7.75 1.95C7.30817 1.95 6.95 2.30817 6.95 2.75V6.95H2.75C2.30817 6.95 1.95 7.30817 1.95 7.75C1.95 8.19183 2.30817 8.55 2.75 8.55H6.95V12.75C6.95 13.1918 7.30817 13.55 7.75 13.55C8.19183 13.55 8.55 13.1918 8.55 12.75V8.55H12.75C13.1918 8.55 13.55 8.19183 13.55 7.75C13.55 7.30817 13.1918 6.95 12.75 6.95H8.55V2.75Z" fill="#0E1438"/>
</svg>
