<svg width="16" height="16" viewBox="0 0 16 16" fill="none" xmlns="http://www.w3.org/2000/svg"><path d="M2.964 1.895 C 2.449 1.964,1.984 2.424,1.895 2.951 C 1.874 3.076,1.867 3.534,1.872 4.400 C 1.880 5.639,1.881 5.669,1.938 5.773 C 2.187 6.235,2.809 6.238,3.060 5.779 C 3.102 5.702,3.108 5.567,3.120 4.413 L 3.133 3.133 4.413 3.120 C 5.567 3.108,5.702 3.102,5.779 3.060 C 6.249 2.803,6.230 2.146,5.747 1.928 C 5.649 1.884,5.532 1.880,4.387 1.876 C 3.697 1.874,3.057 1.882,2.964 1.895 M10.382 1.895 C 10.110 1.948,9.927 2.139,9.881 2.419 C 9.854 2.581,9.923 2.794,10.041 2.915 C 10.234 3.115,10.162 3.105,11.587 3.120 L 12.867 3.133 12.880 4.413 C 12.892 5.567,12.898 5.702,12.940 5.779 C 13.214 6.280,13.932 6.216,14.092 5.676 C 14.151 5.479,14.152 3.174,14.094 2.899 C 14.041 2.649,13.917 2.431,13.719 2.241 C 13.510 2.041,13.283 1.929,13.012 1.894 C 12.772 1.863,10.540 1.863,10.382 1.895 M7.234 4.562 C 6.972 4.596,6.745 4.720,6.479 4.977 L 6.248 5.200 6.051 5.201 C 5.942 5.201,5.763 5.213,5.653 5.227 C 5.138 5.293,4.697 5.698,4.574 6.216 C 4.515 6.466,4.515 9.531,4.574 9.781 C 4.630 10.020,4.731 10.201,4.911 10.390 C 5.098 10.584,5.317 10.708,5.566 10.761 C 5.833 10.817,10.167 10.817,10.434 10.761 C 10.683 10.708,10.902 10.584,11.089 10.390 C 11.274 10.196,11.376 10.008,11.428 9.763 C 11.484 9.502,11.483 6.494,11.427 6.233 C 11.374 5.982,11.250 5.764,11.052 5.574 C 10.769 5.302,10.476 5.203,9.949 5.201 L 9.752 5.200 9.521 4.977 C 9.244 4.711,9.035 4.598,8.742 4.560 C 8.509 4.530,7.469 4.531,7.234 4.562 M8.747 5.962 C 9.130 6.350,9.306 6.429,9.840 6.452 L 10.200 6.467 10.200 8.000 L 10.200 9.533 8.000 9.533 L 5.800 9.533 5.800 8.000 L 5.800 6.467 6.160 6.450 C 6.358 6.441,6.556 6.422,6.600 6.407 C 6.800 6.341,6.983 6.220,7.197 6.012 L 7.427 5.788 8.001 5.787 L 8.575 5.787 8.747 5.962 M7.714 6.944 C 7.237 7.100,6.949 7.550,7.015 8.037 C 7.090 8.586,7.635 8.985,8.166 8.881 C 8.716 8.773,9.065 8.284,8.982 7.739 C 8.933 7.420,8.711 7.133,8.406 6.993 C 8.222 6.909,7.893 6.885,7.714 6.944 M2.382 9.896 C 2.178 9.934,2.035 10.043,1.930 10.240 C 1.884 10.327,1.879 10.424,1.872 11.600 C 1.867 12.466,1.874 12.924,1.895 13.049 C 1.983 13.574,2.428 14.017,2.956 14.106 C 3.075 14.126,3.552 14.133,4.400 14.128 C 5.645 14.120,5.669 14.119,5.776 14.062 C 5.928 13.980,6.044 13.839,6.092 13.676 C 6.143 13.505,6.143 13.482,6.094 13.316 C 6.051 13.172,5.922 13.018,5.779 12.940 C 5.702 12.898,5.567 12.892,4.413 12.880 L 3.133 12.867 3.120 11.587 C 3.105 10.175,3.113 10.237,2.931 10.060 C 2.781 9.912,2.594 9.857,2.382 9.896 M13.364 9.896 C 13.254 9.917,13.095 10.013,13.019 10.106 C 12.891 10.261,12.894 10.228,12.880 11.587 L 12.867 12.867 11.587 12.880 C 10.433 12.892,10.298 12.898,10.221 12.940 C 9.762 13.191,9.765 13.813,10.227 14.062 C 10.331 14.119,10.361 14.120,11.600 14.128 C 12.448 14.133,12.925 14.126,13.044 14.106 C 13.572 14.017,14.017 13.574,14.105 13.049 C 14.126 12.924,14.133 12.466,14.128 11.600 C 14.120 10.355,14.119 10.331,14.062 10.224 C 13.925 9.970,13.654 9.842,13.364 9.896 " stroke="none" fill-rule="evenodd" fill="black"></path></svg>