<svg width="16" height="16" viewBox="0 0 16 16" fill="none" xmlns="http://www.w3.org/2000/svg">
<path fill-rule="evenodd" clip-rule="evenodd" d="M2.87999 3.11195C2.87999 2.47022 3.40021 1.95 4.04194 1.95H5.20388V13.1182H4.04194C3.40021 13.1182 2.87999 12.598 2.87999 11.9562V3.11195ZM5.20388 14.5182V14.7491C5.20388 15.1357 5.51728 15.4491 5.90388 15.4491C6.29048 15.4491 6.60388 15.1357 6.60388 14.7491V14.5182H11.9554C13.3704 14.5182 14.5174 13.3712 14.5174 11.9562V3.11195C14.5174 1.69703 13.3704 0.55 11.9554 0.55H5.90388H4.04194C2.62702 0.55 1.47999 1.69702 1.47999 3.11195V11.9562C1.47999 13.3712 2.62702 14.5182 4.04194 14.5182H5.20388ZM6.60388 1.95H11.9554C12.5972 1.95 13.1174 2.47022 13.1174 3.11195V11.9562C13.1174 12.598 12.5972 13.1182 11.9554 13.1182H6.60388V1.95ZM9.62779 4.22389C9.21358 4.22389 8.87779 4.55967 8.87779 4.97389C8.87779 5.3881 9.21358 5.72389 9.62779 5.72389H10.093C10.5072 5.72389 10.843 5.3881 10.843 4.97389C10.843 4.55967 10.5072 4.22389 10.093 4.22389H9.62779ZM8.87779 7.76682C8.87779 7.3526 9.21358 7.01682 9.62779 7.01682H10.093C10.5072 7.01682 10.843 7.3526 10.843 7.76682C10.843 8.18103 10.5072 8.51682 10.093 8.51682H9.62779C9.21358 8.51682 8.87779 8.18103 8.87779 7.76682Z" fill="black"/>
</svg>
