<svg width="16" height="16" viewBox="0 0 16 16" fill="none" xmlns="http://www.w3.org/2000/svg"><path d="M7.520 1.111 C 6.750 1.132,5.873 1.226,5.190 1.360 C 3.472 1.697,2.401 2.308,2.160 3.085 C 2.107 3.256,2.107 3.327,2.107 8.000 C 2.107 12.673,2.107 12.744,2.160 12.915 C 2.492 13.988,4.382 14.723,7.227 14.882 C 7.764 14.912,8.961 14.897,9.102 14.858 C 9.168 14.840,9.166 14.837,8.997 14.640 C 8.795 14.406,8.568 14.075,8.466 13.864 L 8.393 13.715 7.736 13.698 C 7.036 13.680,6.434 13.631,5.893 13.548 C 4.715 13.366,3.779 13.042,3.410 12.687 L 3.307 12.587 3.307 11.707 C 3.307 11.223,3.311 10.827,3.315 10.827 C 3.320 10.827,3.431 10.873,3.562 10.930 C 4.538 11.353,6.158 11.643,7.612 11.655 L 8.012 11.659 8.044 11.434 C 8.082 11.174,8.167 10.825,8.241 10.630 C 8.270 10.555,8.293 10.485,8.293 10.475 C 8.293 10.466,8.063 10.456,7.780 10.455 C 5.903 10.447,4.057 10.030,3.440 9.475 L 3.307 9.355 3.307 8.641 L 3.307 7.926 3.540 8.026 C 4.718 8.532,6.512 8.809,8.320 8.764 C 9.198 8.743,9.694 8.702,9.813 8.641 C 9.865 8.615,10.009 8.539,10.133 8.472 C 10.766 8.134,11.515 7.967,12.208 8.009 C 12.450 8.024,12.495 8.020,12.586 7.974 L 12.690 7.921 12.698 7.990 C 12.706 8.054,12.727 8.064,13.000 8.133 C 13.318 8.214,13.484 8.274,13.733 8.400 L 13.893 8.481 13.893 5.870 C 13.893 3.330,13.892 3.254,13.840 3.085 C 13.502 1.991,11.530 1.245,8.647 1.120 C 8.313 1.106,7.980 1.097,7.907 1.099 C 7.833 1.102,7.659 1.108,7.520 1.111 M8.611 2.321 C 9.813 2.374,10.757 2.524,11.573 2.790 C 12.074 2.954,12.578 3.235,12.667 3.400 C 12.705 3.472,12.703 3.476,12.556 3.612 C 12.463 3.699,12.311 3.799,12.156 3.874 C 10.574 4.651,7.310 4.836,5.021 4.278 C 4.274 4.096,3.706 3.856,3.444 3.613 C 3.300 3.479,3.296 3.470,3.331 3.405 C 3.384 3.305,3.632 3.131,3.913 2.996 C 4.668 2.634,5.932 2.382,7.306 2.322 C 7.993 2.292,7.965 2.292,8.611 2.321 M3.434 5.010 C 3.749 5.169,4.409 5.378,5.000 5.505 C 7.011 5.937,9.612 5.893,11.467 5.396 C 11.817 5.302,12.242 5.156,12.477 5.050 C 12.585 5.000,12.678 4.960,12.683 4.960 C 12.689 4.960,12.693 5.298,12.693 5.711 L 12.693 6.463 12.571 6.577 C 12.419 6.719,12.022 6.924,11.653 7.052 C 9.667 7.743,6.335 7.743,4.345 7.052 C 3.978 6.924,3.581 6.718,3.429 6.577 L 3.307 6.463 3.307 5.711 C 3.307 5.298,3.313 4.960,3.321 4.960 C 3.329 4.960,3.380 4.983,3.434 5.010 M13.293 10.433 C 13.083 10.488,12.510 11.176,11.989 11.998 C 11.859 12.205,11.750 12.373,11.747 12.373 C 11.744 12.373,11.662 12.277,11.563 12.160 C 11.347 11.901,11.226 11.831,11.000 11.831 C 10.807 11.831,10.655 11.901,10.539 12.042 C 10.395 12.216,10.363 12.495,10.464 12.687 C 10.540 12.831,11.489 13.940,11.591 14.003 C 11.674 14.054,11.729 14.067,11.882 14.067 C 12.045 14.067,12.088 14.056,12.202 13.986 C 12.328 13.909,12.344 13.883,12.587 13.399 C 12.966 12.645,13.268 12.186,13.818 11.530 C 14.027 11.281,14.080 11.172,14.079 10.994 C 14.079 10.828,14.008 10.677,13.873 10.555 C 13.711 10.409,13.531 10.371,13.293 10.433 " stroke="none" fill-rule="evenodd"></path></svg>