<svg width="16" height="16" viewBox="0 0 16 16" fill="none" xmlns="http://www.w3.org/2000/svg"><path d="M9.384 1.892 C 9.228 1.922,9.048 2.043,8.976 2.167 C 8.932 2.242,8.400 4.151,7.387 7.867 C 6.120 12.512,5.865 13.472,5.878 13.567 C 5.910 13.813,6.077 14.012,6.318 14.093 C 6.618 14.192,6.967 14.025,7.077 13.729 C 7.100 13.665,7.799 11.123,8.629 8.080 C 10.276 2.036,10.180 2.437,10.039 2.196 C 9.903 1.964,9.640 1.842,9.384 1.892 M3.747 4.551 C 3.512 4.600,3.493 4.617,2.446 5.729 C 0.922 7.348,1.017 7.240,0.910 7.465 C 0.815 7.663,0.813 7.672,0.813 8.000 C 0.813 8.328,0.815 8.337,0.910 8.535 C 1.017 8.760,0.923 8.654,2.446 10.271 C 3.497 11.386,3.521 11.408,3.766 11.454 C 4.008 11.499,4.318 11.307,4.415 11.052 C 4.473 10.902,4.455 10.650,4.378 10.529 C 4.349 10.483,3.817 9.905,3.196 9.244 C 2.575 8.584,2.067 8.024,2.067 8.000 C 2.067 7.976,2.575 7.416,3.196 6.756 C 3.817 6.095,4.348 5.519,4.377 5.474 C 4.436 5.380,4.468 5.167,4.443 5.033 C 4.415 4.885,4.282 4.710,4.140 4.635 C 4.012 4.566,3.845 4.531,3.747 4.551 M12.053 4.558 C 11.821 4.603,11.598 4.817,11.557 5.033 C 11.532 5.167,11.564 5.380,11.623 5.474 C 11.652 5.519,12.183 6.095,12.804 6.756 C 13.425 7.416,13.933 7.976,13.933 8.000 C 13.933 8.024,13.425 8.584,12.804 9.244 C 12.183 9.905,11.651 10.483,11.622 10.529 C 11.545 10.650,11.527 10.902,11.585 11.052 C 11.682 11.307,11.992 11.499,12.234 11.454 C 12.500 11.404,12.441 11.461,14.771 8.976 C 14.932 8.804,15.020 8.682,15.090 8.536 C 15.185 8.336,15.187 8.328,15.187 8.000 C 15.187 7.672,15.185 7.663,15.090 7.465 C 14.983 7.240,15.078 7.347,13.555 5.730 C 12.786 4.913,12.510 4.637,12.434 4.607 C 12.297 4.553,12.165 4.536,12.053 4.558 " stroke="none" fill-rule="evenodd" fill="black"></path></svg>