<svg width="16" height="16" viewBox="0 0 16 16" fill="none" xmlns="http://www.w3.org/2000/svg"><path d="M9.049 1.896 C 8.845 1.934,8.701 2.043,8.596 2.240 C 8.549 2.329,8.547 2.441,8.547 4.667 C 8.547 6.892,8.549 7.004,8.596 7.093 C 8.666 7.224,8.769 7.328,8.893 7.396 C 9.000 7.453,9.002 7.453,11.264 7.461 C 13.771 7.469,13.714 7.472,13.911 7.299 C 14.171 7.071,14.192 6.658,13.956 6.415 C 13.754 6.207,13.822 6.215,12.161 6.214 L 10.681 6.213 12.365 4.527 C 14.033 2.856,14.049 2.839,14.093 2.686 C 14.185 2.368,14.041 2.054,13.748 1.932 C 13.609 1.874,13.367 1.875,13.236 1.935 C 13.168 1.966,12.576 2.538,11.460 3.650 L 9.787 5.319 9.786 3.839 C 9.786 2.464,9.782 2.352,9.737 2.253 C 9.615 1.986,9.338 1.842,9.049 1.896 M2.382 8.561 C 2.179 8.602,2.028 8.715,1.940 8.893 C 1.785 9.203,1.928 9.589,2.251 9.736 C 2.353 9.782,2.457 9.786,3.839 9.786 L 5.319 9.787 3.635 11.473 C 1.967 13.144,1.951 13.161,1.907 13.314 C 1.765 13.807,2.193 14.235,2.686 14.093 C 2.839 14.049,2.856 14.033,4.527 12.365 L 6.213 10.681 6.214 12.161 C 6.214 13.543,6.218 13.647,6.264 13.749 C 6.504 14.278,7.261 14.230,7.426 13.676 C 7.487 13.467,7.487 9.200,7.426 8.991 C 7.375 8.820,7.251 8.675,7.093 8.602 C 6.975 8.547,6.943 8.547,4.733 8.542 C 3.501 8.540,2.443 8.548,2.382 8.561 " stroke="none" fill-rule="evenodd" fill="black"></path></svg>