<svg width="16" height="16" viewBox="0 0 16 16" fill="none" xmlns="http://www.w3.org/2000/svg"><path d="M5.202 1.897 C 4.957 1.942,4.770 2.136,4.720 2.398 C 4.706 2.476,4.693 2.670,4.693 2.829 L 4.693 3.117 3.513 3.125 C 2.381 3.133,2.328 3.136,2.213 3.189 C 1.936 3.318,1.787 3.525,1.767 3.809 C 1.750 4.040,1.790 4.179,1.919 4.342 C 2.085 4.552,2.248 4.618,2.642 4.634 C 2.939 4.646,2.962 4.651,2.974 4.704 C 2.981 4.735,3.022 4.916,3.064 5.107 C 3.304 6.176,3.724 7.146,4.239 7.821 L 4.343 7.958 4.258 8.015 C 3.935 8.231,3.340 8.487,2.772 8.654 C 2.362 8.774,2.237 8.844,2.143 9.003 C 2.009 9.233,2.016 9.474,2.165 9.699 C 2.259 9.841,2.469 9.951,2.648 9.952 C 2.836 9.953,3.496 9.758,3.987 9.555 C 4.260 9.442,4.755 9.184,4.996 9.029 C 5.122 8.947,5.235 8.880,5.246 8.881 C 5.258 8.881,5.297 8.905,5.333 8.935 C 5.506 9.075,5.966 9.359,6.280 9.518 C 6.681 9.722,7.150 9.904,7.631 10.041 C 7.949 10.132,7.979 10.136,8.119 10.107 C 8.411 10.046,8.617 9.799,8.617 9.511 C 8.617 9.202,8.439 8.985,8.101 8.883 C 7.385 8.666,6.843 8.435,6.408 8.159 L 6.190 8.021 6.371 7.790 C 6.956 7.046,7.373 6.109,7.626 4.973 L 7.697 4.653 8.022 4.637 C 8.422 4.616,8.583 4.551,8.748 4.342 C 8.876 4.179,8.916 4.040,8.900 3.809 C 8.880 3.525,8.731 3.318,8.453 3.189 C 8.338 3.136,8.285 3.133,7.157 3.125 L 5.980 3.117 5.969 2.738 C 5.959 2.412,5.949 2.341,5.896 2.233 C 5.770 1.972,5.502 1.842,5.202 1.897 M6.384 4.802 C 6.175 5.697,5.823 6.468,5.337 7.090 L 5.288 7.154 5.139 6.930 C 4.729 6.314,4.457 5.631,4.255 4.713 L 4.239 4.640 5.330 4.640 L 6.422 4.640 6.384 4.802 M11.137 5.951 C 10.870 5.984,10.638 6.104,10.425 6.318 C 10.329 6.414,10.223 6.553,10.188 6.627 C 10.086 6.846,7.899 12.650,7.879 12.754 C 7.868 12.814,7.878 12.905,7.907 13.004 C 7.996 13.313,8.317 13.513,8.613 13.445 C 8.790 13.404,8.949 13.295,9.025 13.162 C 9.059 13.102,9.173 12.825,9.278 12.547 L 9.470 12.040 11.333 12.040 L 13.197 12.040 13.388 12.547 C 13.493 12.825,13.607 13.102,13.641 13.162 C 13.717 13.295,13.876 13.404,14.054 13.445 C 14.349 13.513,14.670 13.313,14.760 13.004 C 14.789 12.905,14.799 12.814,14.787 12.754 C 14.768 12.650,12.580 6.846,12.478 6.627 C 12.333 6.316,11.901 5.998,11.573 5.960 C 11.493 5.951,11.403 5.940,11.373 5.936 C 11.344 5.932,11.237 5.938,11.137 5.951 M12.027 8.940 C 12.391 9.904,12.697 10.716,12.706 10.746 C 12.724 10.800,12.718 10.800,11.335 10.800 C 10.571 10.800,9.947 10.794,9.947 10.787 C 9.947 10.779,10.247 9.978,10.614 9.007 C 10.981 8.035,11.287 7.224,11.294 7.204 C 11.301 7.185,11.320 7.173,11.336 7.179 C 11.352 7.184,11.663 7.977,12.027 8.940 " stroke="none" fill-rule="evenodd" fill="black"></path></svg>