<svg width="16" height="16" viewBox="0 0 16 16" fill="none" xmlns="http://www.w3.org/2000/svg">
<path fill-rule="evenodd" clip-rule="evenodd" d="M12.8676 4.33104C13.1996 3.99909 13.1996 3.4609 12.8676 3.12896C12.5357 2.79701 11.9975 2.79701 11.6655 3.12895L7.99829 6.7962L4.33104 3.12895C3.99909 2.79701 3.4609 2.79701 3.12895 3.12896C2.79701 3.4609 2.79701 3.99909 3.12896 4.33104L6.79621 7.99828L3.12896 11.6655C2.79701 11.9975 2.79701 12.5356 3.12895 12.8676C3.4609 13.1995 3.99909 13.1995 4.33104 12.8676L7.99829 9.20036L11.6655 12.8676C11.9975 13.1995 12.5357 13.1995 12.8676 12.8676C13.1996 12.5356 13.1996 11.9975 12.8676 11.6655L9.20037 7.99828L12.8676 4.33104Z" fill="#2D2D2D"/>
</svg>
