<svg width="16" height="16" viewBox="0 0 16 16" fill="none" xmlns="http://www.w3.org/2000/svg">
<g clip-path="url(#clip0_1139_163)">
<path d="M7.06002 2.64742C6.64963 2.70355 6.36244 3.08174 6.41857 3.49213C6.4747 3.90253 6.8529 4.18971 7.26329 4.13358L7.06002 2.64742ZM14.3319 7.39687L14.9764 7.01326L14.3319 7.39687ZM12.9469 9.29472C12.6887 9.61862 12.742 10.0905 13.0659 10.3487C13.3898 10.6069 13.8616 10.5536 14.1198 10.2297L12.9469 9.29472ZM14.332 8.60286L14.9765 8.98645L14.332 8.60286ZM2.53032 1.46967C2.23743 1.17678 1.76256 1.17678 1.46966 1.46967C1.17677 1.76256 1.17677 2.23744 1.46966 2.53033L2.53032 1.46967ZM6.58578 6.58579L7.11611 6.05546L6.58578 6.58579ZM13.4697 14.5303C13.7626 14.8232 14.2374 14.8232 14.5303 14.5303C14.8232 14.2374 14.8232 13.7626 14.5303 13.4697L13.4697 14.5303ZM1.66803 7.39705L1.02355 7.01345H1.02355L1.66803 7.39705ZM4.83841 5.0572C5.18542 4.83104 5.28339 4.36638 5.05722 4.01936C4.83106 3.67234 4.3664 3.57438 4.01938 3.80054L4.83841 5.0572ZM1.66873 8.60416L2.31317 8.22048L1.66873 8.60416ZM11.9806 12.1994C12.3276 11.9732 12.4256 11.5086 12.1994 11.1616C11.9733 10.8145 11.5086 10.7166 11.1616 10.9427L11.9806 12.1994ZM7.26329 4.13358C9.54065 3.82209 12.0089 4.96043 13.6874 7.78047L14.9764 7.01326C13.0475 3.77262 10.0383 2.24006 7.06002 2.64742L7.26329 4.13358ZM14.1198 10.2297C14.4241 9.84799 14.7105 9.43339 14.9765 8.98645L13.6875 8.21927C13.455 8.60997 13.2071 8.96827 12.9469 9.29472L14.1198 10.2297ZM13.6874 7.78047C13.768 7.9159 13.768 8.08409 13.6875 8.21927L14.9765 8.98645C15.3385 8.37825 15.3382 7.6212 14.9764 7.01326L13.6874 7.78047ZM7.99999 9.25C7.30964 9.25 6.74999 8.69036 6.74999 8H5.24999C5.24999 9.51878 6.48121 10.75 7.99999 10.75V9.25ZM1.46966 2.53033L6.05545 7.11612L7.11611 6.05546L2.53032 1.46967L1.46966 2.53033ZM6.74999 8C6.74999 7.65461 6.88908 7.34314 7.11611 7.11612L6.05545 6.05546C5.55862 6.55229 5.24999 7.24082 5.24999 8H6.74999ZM6.05545 7.11612L8.88388 9.94454L9.94454 8.88388L7.11611 6.05546L6.05545 7.11612ZM8.88388 9.94454L13.4697 14.5303L14.5303 13.4697L9.94454 8.88388L8.88388 9.94454ZM8.88388 8.88388C8.65685 9.11091 8.34538 9.25 7.99999 9.25V10.75C8.75918 10.75 9.4477 10.4414 9.94454 9.94454L8.88388 8.88388ZM1.46966 2.53033L13.4697 14.5303L14.5303 13.4697L2.53032 1.46967L1.46966 2.53033ZM2.31251 7.78064C3.03565 6.56568 3.90685 5.66434 4.83841 5.0572L4.01938 3.80054C2.87563 4.54598 1.85089 5.62343 1.02355 7.01345L2.31251 7.78064ZM1.0243 8.98783C2.33202 11.1843 4.13424 12.5998 6.1062 13.154C8.08213 13.7093 10.1675 13.3811 11.9806 12.1994L11.1616 10.9427C9.69604 11.8979 8.05517 12.1436 6.51203 11.7099C4.96491 11.2752 3.45525 10.1388 2.31317 8.22048L1.0243 8.98783ZM1.02355 7.01345C0.661158 7.6223 0.662739 8.38054 1.0243 8.98783L2.31317 8.22048C2.23218 8.08446 2.23244 7.91516 2.31251 7.78064L1.02355 7.01345Z" fill="black"/>
</g>
<defs>
<clipPath id="clip0_1139_163">
<rect width="16" height="16" fill="white"/>
</clipPath>
</defs>
</svg>
