<svg width="16" height="16" viewBox="0 0 16 16" fill="none" xmlns="http://www.w3.org/2000/svg"><path d="M2.298 2.562 C 1.937 2.609,1.541 2.891,1.361 3.229 C 1.194 3.542,1.201 3.336,1.200 7.988 C 1.200 10.943,1.209 12.278,1.229 12.388 C 1.326 12.911,1.758 13.344,2.278 13.438 C 2.500 13.478,13.500 13.478,13.722 13.438 C 14.242 13.344,14.674 12.911,14.771 12.388 C 14.812 12.166,14.812 3.834,14.771 3.612 C 14.670 3.068,14.215 2.630,13.678 2.561 C 13.434 2.529,2.542 2.530,2.298 2.562 M13.540 4.373 L 13.547 4.947 10.795 6.333 C 9.282 7.096,8.023 7.720,7.999 7.720 C 7.975 7.720,6.717 7.096,5.204 6.333 L 2.453 4.947 2.453 4.384 C 2.453 4.075,2.461 3.814,2.471 3.804 C 2.481 3.795,4.974 3.790,8.011 3.793 L 13.533 3.800 13.540 4.373 M5.019 7.639 C 6.544 8.406,7.596 8.920,7.692 8.945 C 7.894 8.998,8.106 8.998,8.308 8.945 C 8.404 8.920,9.455 8.407,10.980 7.639 C 12.363 6.943,13.506 6.373,13.520 6.373 C 13.538 6.373,13.545 7.361,13.540 9.287 L 13.533 12.200 8.000 12.200 L 2.467 12.200 2.460 9.287 C 2.456 7.405,2.462 6.373,2.479 6.373 C 2.493 6.373,3.636 6.943,5.019 7.639 " stroke="none" fill-rule="evenodd"></path></svg>