<svg width="16" height="16" viewBox="0 0 16 16" fill="none" xmlns="http://www.w3.org/2000/svg">
<path fill-rule="evenodd" clip-rule="evenodd" d="M4.81 3.16001C4.31294 3.16001 3.91 3.56295 3.91 4.06001V11.935C3.91 12.4321 4.31294 12.835 4.81 12.835H11.185C11.6821 12.835 12.085 12.4321 12.085 11.935V7.28501H10.06C8.9002 7.28501 7.96 6.3448 7.96 5.18501V3.16001H4.81ZM9.16 4.00853L11.2365 6.08501H10.06C9.56294 6.08501 9.16 5.68206 9.16 5.18501V4.00853ZM2.71 4.06001C2.71 2.90021 3.6502 1.96001 4.81 1.96001H8.56C8.71913 1.96001 8.87174 2.02322 8.98426 2.13574L13.1093 6.26074C13.2218 6.37326 13.285 6.52588 13.285 6.68501V11.935C13.285 13.0948 12.3448 14.035 11.185 14.035H4.81C3.6502 14.035 2.71 13.0948 2.71 11.935V4.06001ZM4.96 10.81C4.96 10.4786 5.22863 10.21 5.56 10.21H10.435C10.7664 10.21 11.035 10.4786 11.035 10.81C11.035 11.1414 10.7664 11.41 10.435 11.41H5.56C5.22863 11.41 4.96 11.1414 4.96 10.81ZM5.56 7.96001C5.22863 7.96001 4.96 8.22864 4.96 8.56001C4.96 8.89138 5.22863 9.16001 5.56 9.16001H7.435C7.76637 9.16001 8.035 8.89138 8.035 8.56001C8.035 8.22864 7.76637 7.96001 7.435 7.96001H5.56Z" fill="#0E1438"/>
</svg>
