<svg width="16" height="16" viewBox="0 0 16 16" fill="none" xmlns="http://www.w3.org/2000/svg">
<path fill-rule="evenodd" clip-rule="evenodd" d="M3.98822 1.85001C3.332 1.85001 2.80002 2.38199 2.80002 3.03821V12.9513C2.80002 13.6075 3.332 14.1395 3.98822 14.1395H12.0131C12.6693 14.1395 13.2013 13.6075 13.2013 12.9513V7.04256H10.5969C9.1675 7.04256 8.00872 5.88378 8.00872 4.45436V1.85001H3.98822ZM9.40872 2.83996L12.2113 5.64256H10.5969C9.94069 5.64256 9.40872 5.11058 9.40872 4.45436V2.83996ZM1.40002 3.03821C1.40002 1.60879 2.5588 0.450012 3.98822 0.450012H8.70872C8.89437 0.450012 9.07242 0.523762 9.20369 0.655037L14.3962 5.84758C14.5275 5.97886 14.6013 6.15691 14.6013 6.34256V12.9513C14.6013 14.3807 13.4425 15.5395 12.0131 15.5395H3.98822C2.5588 15.5395 1.40002 14.3807 1.40002 12.9513V3.03821ZM4.23232 11.5351C4.23232 11.1485 4.54572 10.8351 4.93232 10.8351H11.069C11.4556 10.8351 11.769 11.1485 11.769 11.5351C11.769 11.9217 11.4556 12.2351 11.069 12.2351H4.93232C4.54572 12.2351 4.23232 11.9217 4.23232 11.5351ZM4.93232 8.00281C4.54572 8.00281 4.23232 8.31621 4.23232 8.70281C4.23232 9.08941 4.54572 9.40281 4.93232 9.40281H7.29257C7.67917 9.40281 7.99257 9.08941 7.99257 8.70281C7.99257 8.31621 7.67917 8.00281 7.29257 8.00281H4.93232Z" fill="black"/>
</svg>
