<svg width="16" height="16" viewBox="0 0 16 16" fill="none" xmlns="http://www.w3.org/2000/svg">
<g clip-path="url(#clip0_1139_163)">
<path fill-rule="evenodd" clip-rule="evenodd" d="M15.3042 0.705025C15.5775 0.978392 15.5775 1.42161 15.3042 1.69497L1.69497 15.3042C1.42161 15.5775 0.978392 15.5775 0.705025 15.3042C0.431658 15.0308 0.431658 14.5876 0.705025 14.3142L2.66552 12.3537C1.90695 11.5691 1.38189 10.696 1.04129 9.94077C0.689297 9.16024 0.5 8.42744 0.5 8.00456C0.5 7.63919 0.639913 7.0584 0.886261 6.43483C1.14185 5.78786 1.53998 5.02324 2.11526 4.28816C3.27507 2.80618 5.16557 1.43852 8.0046 1.43852C9.77118 1.43852 11.1817 1.96966 12.2782 2.7411L14.3142 0.705025C14.5876 0.431658 15.0308 0.431658 15.3042 0.705025ZM5.58347 9.43579L3.65564 11.3636C3.03953 10.7215 2.60347 9.9993 2.31752 9.36522C1.99795 8.6566 1.9 8.13674 1.9 8.00456C1.9 7.90064 1.9654 7.51353 2.18833 6.94923C2.40202 6.40833 2.73716 5.7651 3.21776 5.15099C4.16973 3.93459 5.68153 2.83852 8.0046 2.83852C9.35861 2.83852 10.4277 3.20961 11.2696 3.74966L9.43577 5.58348C8.35717 4.94478 6.9435 5.08905 6.01626 6.01628L6.01625 6.01629C5.08905 6.94353 4.94479 8.35719 5.58347 9.43579ZM6.64244 8.37681L8.01302 7.00623L8.37681 6.64245C7.90408 6.5137 7.3775 6.63496 7.00622 7.00623L7.00621 7.00623C6.63496 7.3775 6.5137 7.90409 6.64244 8.37681ZM13.9145 5.49872C14.2618 5.32874 14.681 5.47242 14.851 5.81965C15.0748 6.27681 15.2361 6.70701 15.3425 7.07146C15.4446 7.4209 15.5092 7.75371 15.5092 8.00456C15.5092 8.36992 15.3693 8.95071 15.1229 9.57428C14.8674 10.2212 14.4692 10.9859 13.894 11.721C12.7341 13.2029 10.8436 14.5706 8.0046 14.5706C7.25824 14.5706 6.57239 14.4758 5.94453 14.3058C5.57137 14.2048 5.35076 13.8204 5.4518 13.4472C5.55283 13.074 5.93725 12.8534 6.31041 12.9545C6.8154 13.0912 7.37803 13.1706 8.0046 13.1706C10.3277 13.1706 11.8395 12.0745 12.7914 10.8581C13.2721 10.244 13.6072 9.60079 13.8209 9.05988C14.0438 8.49558 14.1092 8.10848 14.1092 8.00456C14.1092 7.9499 14.0868 7.76584 13.9987 7.46394C13.9149 7.17705 13.7827 6.82143 13.5936 6.4352C13.4236 6.08798 13.5673 5.6687 13.9145 5.49872Z" fill="black"/>
</g>
<defs>
<clipPath id="clip0_1139_163">
<rect width="16" height="16" fill="white"/>
</clipPath>
</defs>
</svg>
