<svg width="16" height="16" viewBox="0 0 16 16" fill="none" xmlns="http://www.w3.org/2000/svg">
<path d="M5.62931 1.75H5.19827C3.29384 1.75 1.75 3.29384 1.75 5.19827V5.62931M5.62931 14.25H5.19827C3.29384 14.25 1.75 12.7061 1.75 10.8017V10.3707M10.3707 1.75H10.8017C12.7062 1.75 14.25 3.29384 14.25 5.19827V5.62931M10.3707 14.25H10.8017C12.7062 14.25 14.25 12.7061 14.25 10.8017V10.3707M5.19827 8.64652C5.19827 8.64652 5.41379 10.8017 7.99999 10.8017C10.5862 10.8017 10.8017 8.64652 10.8017 8.64652" stroke="black" stroke-width="1.4" stroke-linecap="round"/>
<rect x="5.8584" y="5.90179" width="0.8" height="0.8" rx="0.4" stroke="black" stroke-width="0.8"/>
<rect x="9.25845" y="5.90179" width="0.8" height="0.8" rx="0.4" stroke="black" stroke-width="0.8"/>
</svg>
