<svg width="16" height="16" viewBox="0 0 16 16" fill="none" xmlns="http://www.w3.org/2000/svg">
<path d="M5.21429 1.5L5.75512 1.13944C5.63457 0.958616 5.43162 0.85 5.21429 0.85V1.5ZM7.07143 4.28571L7.53105 4.74533C7.75014 4.52624 7.78413 4.18296 7.61226 3.92516L7.07143 4.28571ZM5.60324 5.75391L5.14362 5.29429L5.14362 5.29429L5.60324 5.75391ZM11.7143 8.92857L12.0748 8.38774C11.817 8.21587 11.4738 8.24986 11.2547 8.46895L11.7143 8.92857ZM14.5 10.7857H15.15C15.15 10.5684 15.0414 10.3654 14.8606 10.2449L14.5 10.7857ZM5.42536 6.64975L6.01295 6.37183L6.01295 6.37183L5.42536 6.64975ZM7.07143 8.92857L6.62288 9.399L7.07143 8.92857ZM9.32878 10.5391L9.03045 11.1166L9.03045 11.1166L9.32878 10.5391ZM2.68182 2.15H5.21429V0.85H2.68182V2.15ZM4.67345 1.86056L6.5306 4.64627L7.61226 3.92516L5.75512 1.13944L4.67345 1.86056ZM6.61181 3.82609L5.14362 5.29429L6.06285 6.21353L7.53105 4.74533L6.61181 3.82609ZM10.7294 10.8327L12.1739 9.38819L11.2547 8.46895L9.8102 9.91342L10.7294 10.8327ZM11.3537 9.4694L14.1394 11.3265L14.8606 10.2449L12.0748 8.38774L11.3537 9.4694ZM13.85 10.7857V13.3182H15.15V10.7857H13.85ZM4.83778 6.92767C5.11769 7.51948 5.67258 8.4929 6.62288 9.399L7.51998 8.45814C6.71913 7.69454 6.248 6.86878 6.01295 6.37183L4.83778 6.92767ZM6.62288 9.399C7.53515 10.2688 8.45849 10.8211 9.03045 11.1166L9.62711 9.96161C9.12983 9.70472 8.31808 9.21913 7.51998 8.45814L6.62288 9.399ZM13.85 13.3182C13.85 13.6119 13.6119 13.85 13.3182 13.85V15.15C14.3299 15.15 15.15 14.3299 15.15 13.3182H13.85ZM9.8102 9.91342C9.77503 9.94859 9.7365 9.96625 9.70488 9.97212C9.67527 9.97761 9.65022 9.97355 9.62711 9.96161L9.03045 11.1166C9.62427 11.4234 10.301 11.2611 10.7294 10.8327L9.8102 9.91342ZM13.3182 13.85C7.15017 13.85 2.15 8.84984 2.15 2.68182H0.85C0.85 9.56781 6.4322 15.15 13.3182 15.15V13.85ZM5.14362 5.29429C4.73747 5.70043 4.56075 6.34198 4.83778 6.92767L6.01295 6.37183C6.00466 6.3543 6.00166 6.33515 6.00689 6.31018C6.0126 6.28291 6.0291 6.24728 6.06286 6.21353L5.14362 5.29429ZM2.68182 0.85C1.67013 0.85 0.85 1.67013 0.85 2.68182H2.15C2.15 2.3881 2.3881 2.15 2.68182 2.15V0.85Z" fill="#0E1438"/>
</svg>
