<svg width="16" height="16" viewBox="0 0 16 16" fill="none" xmlns="http://www.w3.org/2000/svg"><path d="M7.431 1.269 C 6.336 1.467,5.397 2.286,5.041 3.354 C 4.676 4.450,4.944 5.639,5.746 6.477 C 6.084 6.829,6.381 7.036,6.800 7.209 C 8.552 7.932,10.533 6.950,11.013 5.121 C 11.186 4.462,11.147 3.821,10.894 3.176 C 10.513 2.202,9.587 1.449,8.548 1.268 C 8.258 1.217,7.715 1.218,7.431 1.269 M8.547 2.534 C 9.015 2.678,9.435 3.029,9.666 3.470 C 9.937 3.984,9.937 4.683,9.666 5.197 C 9.498 5.517,9.159 5.859,8.856 6.012 C 8.577 6.153,8.358 6.200,7.987 6.198 C 7.686 6.197,7.611 6.187,7.427 6.126 C 6.925 5.960,6.544 5.623,6.307 5.133 C 6.173 4.858,6.133 4.676,6.133 4.333 C 6.133 3.990,6.173 3.809,6.307 3.533 C 6.581 2.969,7.074 2.589,7.674 2.479 C 7.882 2.441,8.337 2.469,8.547 2.534 M7.627 8.229 C 6.545 8.322,5.753 8.576,4.947 9.089 C 4.490 9.380,3.981 9.836,3.648 10.253 C 3.145 10.884,2.764 11.655,2.556 12.467 C 2.448 12.887,2.457 13.108,2.594 13.394 C 2.751 13.722,2.977 13.928,3.322 14.060 L 3.480 14.120 7.840 14.128 C 10.651 14.133,12.272 14.126,12.403 14.109 C 12.680 14.072,12.867 13.997,13.052 13.847 C 13.431 13.540,13.585 13.100,13.481 12.623 C 13.087 10.829,11.860 9.336,10.214 8.650 C 9.787 8.472,9.331 8.348,8.847 8.280 C 8.562 8.240,7.846 8.210,7.627 8.229 M8.686 9.506 C 9.929 9.683,10.959 10.341,11.654 11.403 C 11.877 11.744,12.123 12.299,12.214 12.667 C 12.230 12.733,12.249 12.808,12.257 12.833 C 12.270 12.878,12.054 12.880,8.002 12.880 C 5.654 12.880,3.733 12.873,3.733 12.865 C 3.733 12.857,3.764 12.740,3.802 12.605 C 3.992 11.928,4.359 11.280,4.833 10.784 C 5.518 10.068,6.325 9.649,7.292 9.508 C 7.622 9.459,8.351 9.459,8.686 9.506 " stroke="none" fill-rule="evenodd" fill="black"></path></svg>