<svg width="16" height="16" viewBox="0 0 16 16" fill="none" xmlns="http://www.w3.org/2000/svg"><path d="M5.715 3.228 C 5.513 3.268,5.362 3.382,5.273 3.560 C 5.119 3.869,5.262 4.256,5.585 4.403 C 5.688 4.450,5.816 4.452,8.173 4.453 L 10.653 4.453 7.090 8.020 C 5.131 9.982,3.499 11.629,3.464 11.680 C 3.409 11.760,3.400 11.805,3.400 12.000 C 3.400 12.208,3.406 12.236,3.478 12.335 C 3.606 12.513,3.738 12.591,3.935 12.607 C 4.279 12.634,3.969 12.917,7.953 8.937 L 11.547 5.347 11.547 7.827 C 11.548 10.184,11.550 10.312,11.597 10.415 C 11.785 10.830,12.336 10.916,12.633 10.578 C 12.809 10.377,12.802 10.542,12.794 6.931 L 12.787 3.667 12.729 3.560 C 12.656 3.424,12.548 3.322,12.413 3.261 C 12.313 3.216,12.126 3.213,9.067 3.209 C 7.285 3.207,5.777 3.215,5.715 3.228 " stroke="none" fill-rule="evenodd" fill="black"></path></svg>