<svg width="16" height="16" viewBox="0 0 16 16" fill="none" xmlns="http://www.w3.org/2000/svg">
<g clip-path="url(#clip0_1658_22)">
<path d="M14.1668 8.00001C14.1668 11.4057 11.4059 14.1667 8.00016 14.1667C4.59441 14.1667 1.8335 11.4057 1.8335 8.00001C1.8335 4.59426 4.59441 1.83334 8.00016 1.83334C11.4059 1.83334 14.1668 4.59426 14.1668 8.00001Z" stroke="black" stroke-width="1.5" stroke-linejoin="round"/>
<path d="M9.7706 5.82016L7.03427 6.56644C6.80653 6.62855 6.62861 6.80647 6.5665 7.03421L5.82022 9.77054C5.75235 10.0194 5.98068 10.2477 6.22951 10.1799L8.96587 9.43361C9.1936 9.37147 9.37153 9.19354 9.43367 8.96581L10.1799 6.22945C10.2478 5.98062 10.0195 5.75229 9.7706 5.82016Z" stroke="black" stroke-width="1.5" stroke-linejoin="round"/>
</g>
<defs>
<clipPath id="clip0_1658_22">
<rect width="16" height="16" fill="white"/>
</clipPath>
</defs>
</svg>
