<svg width="16" height="16" viewBox="0 0 16 16" fill="none" xmlns="http://www.w3.org/2000/svg"><path d="M7.869 1.897 C 7.624 1.942,7.437 2.136,7.387 2.398 C 7.370 2.489,7.360 3.606,7.360 5.502 L 7.360 8.464 6.700 7.809 C 6.337 7.448,5.998 7.132,5.947 7.105 C 5.823 7.041,5.514 7.038,5.396 7.101 C 5.290 7.157,5.158 7.288,5.100 7.396 C 5.036 7.514,5.039 7.822,5.104 7.947 C 5.161 8.057,7.446 10.358,7.639 10.502 C 7.768 10.597,7.779 10.600,8.000 10.600 C 8.221 10.600,8.232 10.597,8.361 10.502 C 8.554 10.358,10.839 8.057,10.896 7.947 C 10.961 7.822,10.964 7.514,10.900 7.396 C 10.842 7.288,10.710 7.157,10.604 7.101 C 10.486 7.038,10.177 7.041,10.053 7.105 C 10.002 7.132,9.663 7.448,9.301 7.808 L 8.641 8.463 8.634 5.411 L 8.627 2.360 8.565 2.234 C 8.435 1.971,8.168 1.842,7.869 1.897 M2.382 9.229 C 2.178 9.267,2.035 9.376,1.930 9.573 C 1.883 9.661,1.880 9.765,1.872 11.267 C 1.864 13.031,1.869 13.118,2.016 13.410 C 2.123 13.625,2.374 13.879,2.584 13.985 C 2.887 14.139,2.654 14.132,8.000 14.132 C 13.346 14.132,13.113 14.139,13.416 13.985 C 13.626 13.879,13.877 13.625,13.984 13.410 C 14.131 13.118,14.136 13.031,14.128 11.267 C 14.120 9.686,14.119 9.665,14.062 9.560 C 13.942 9.336,13.748 9.221,13.491 9.221 C 13.317 9.221,13.192 9.272,13.069 9.393 C 12.884 9.573,12.895 9.472,12.880 11.253 L 12.867 12.867 8.000 12.867 L 3.133 12.867 3.120 11.253 C 3.105 9.472,3.116 9.573,2.931 9.393 C 2.781 9.246,2.594 9.190,2.382 9.229 " stroke="none" fill-rule="evenodd" fill="black"></path></svg>