<svg width="16" height="16" viewBox="0 0 16 16" fill="none" xmlns="http://www.w3.org/2000/svg">
<g clip-path="url(#clip0_99_36)">
<g clip-path="url(#clip1_99_36)">
<path d="M9.61649 8.78693C11.8578 7.85607 14.6818 9.19007 15.2526 12.7889C15.3132 13.1707 15.0046 13.5 14.6179 13.5H11.1665M7.16649 4.66667C7.16649 5.86329 6.19642 6.83333 4.9998 6.83333C3.80319 6.83333 2.83313 5.86329 2.83313 4.66667C2.83313 3.47005 3.80319 2.5 4.9998 2.5C6.19642 2.5 7.16649 3.47005 7.16649 4.66667ZM13.1665 4.66667C13.1665 5.86329 12.1964 6.83333 10.9998 6.83333C9.80316 6.83333 8.83316 5.86329 8.83316 4.66667C8.83316 3.47005 9.80316 2.5 10.9998 2.5C12.1964 2.5 13.1665 3.47005 13.1665 4.66667ZM8.52256 13.5H1.38178C0.995134 13.5 0.686734 13.1688 0.747394 12.7869C1.65539 7.071 8.24896 7.071 9.15696 12.7869C9.21763 13.1688 8.90923 13.5 8.52256 13.5Z" stroke="black" stroke-width="1.5" stroke-linecap="round" stroke-linejoin="round"/>
</g>
</g>
<defs>
<clipPath id="clip0_99_36">
<rect width="16" height="16" fill="white"/>
</clipPath>
<clipPath id="clip1_99_36">
<rect width="16" height="16" fill="white"/>
</clipPath>
</defs>
</svg>
