<svg width="16" height="16" viewBox="0 0 16 16" fill="none" xmlns="http://www.w3.org/2000/svg">
<path fill-rule="evenodd" clip-rule="evenodd" d="M7.34999 2.35C6.77009 2.35 6.29999 2.8201 6.29999 3.4V3.575H9.71249V3.4C9.71249 2.8201 9.24239 2.35 8.66249 2.35H7.34999ZM11.1125 3.575V3.4C11.1125 2.0469 10.0156 0.949997 8.66249 0.949997H7.34999C5.9969 0.949997 4.89999 2.0469 4.89999 3.4V3.575H2.97499H2.09999C1.71339 3.575 1.39999 3.8884 1.39999 4.275C1.39999 4.6616 1.71339 4.975 2.09999 4.975H2.33322L3.01363 12.7997C3.12373 14.0658 4.18359 15.0375 5.45442 15.0375H10.5581C11.8289 15.0375 12.8888 14.0658 12.9989 12.7997L13.6793 4.975H13.9125C14.2991 4.975 14.6125 4.6616 14.6125 4.275C14.6125 3.8884 14.2991 3.575 13.9125 3.575H13.0375H11.1125ZM12.274 4.975H10.4125H5.59999H3.73851L4.40837 12.6785C4.45555 13.2211 4.90978 13.6375 5.45442 13.6375H10.5581C11.1027 13.6375 11.5569 13.2211 11.6041 12.6785L12.274 4.975ZM6.47499 6.2C6.86159 6.2 7.17499 6.5134 7.17499 6.9V11.7125C7.17499 12.0991 6.86159 12.4125 6.47499 12.4125C6.08839 12.4125 5.77499 12.0991 5.77499 11.7125V6.9C5.77499 6.5134 6.08839 6.2 6.47499 6.2ZM10.2375 6.9C10.2375 6.5134 9.92409 6.2 9.53749 6.2C9.15089 6.2 8.83749 6.5134 8.83749 6.9V11.7125C8.83749 12.0991 9.15089 12.4125 9.53749 12.4125C9.92409 12.4125 10.2375 12.0991 10.2375 11.7125V6.9Z" fill="#0E1438"/>
</svg>
