<svg width="16" height="16" viewBox="0 0 16 16" fill="none" xmlns="http://www.w3.org/2000/svg">
<g clip-path="url(#clip0_75_51)">
<path d="M12.8332 3.54627C12.8332 4.49232 10.6692 5.25924 7.99984 5.25924C5.33046 5.25924 3.1665 4.49232 3.1665 3.54627M12.8332 3.54627C12.8332 2.60023 10.6692 1.83331 7.99984 1.83331C5.33046 1.83331 3.1665 2.60023 3.1665 3.54627M12.8332 3.54627V12.4537C12.8332 13.3997 10.6692 14.1666 7.99984 14.1666C5.33046 14.1666 3.1665 13.3997 3.1665 12.4537V3.54627M12.8332 6.45311C12.8332 7.39918 10.6692 8.16605 7.99984 8.16605C5.33046 8.16605 3.1665 7.39918 3.1665 6.45311M12.8332 9.28645C12.8332 10.2325 10.6692 10.9994 7.99984 10.9994C5.33046 10.9994 3.1665 10.2325 3.1665 9.28645" stroke="black" stroke-width="1.5" stroke-linecap="round" stroke-linejoin="round"/>
</g>
<defs>
<clipPath id="clip0_75_51">
<rect width="16" height="16" fill="white"/>
</clipPath>
</defs>
</svg>
