<svg width="16" height="16" viewBox="0 0 16 16" fill="none" xmlns="http://www.w3.org/2000/svg">
<path fill-rule="evenodd" clip-rule="evenodd" d="M3.1965 4.24751C3.22506 4.27658 3.27116 4.3171 3.34451 4.36813C3.55978 4.51788 3.9055 4.68077 4.37395 4.83035C5.30388 5.12727 6.60069 5.33501 7.99751 5.33501C9.39432 5.33501 10.6911 5.12727 11.6211 4.83035C12.0895 4.68077 12.4352 4.51788 12.6505 4.36813C12.7239 4.3171 12.77 4.27657 12.7985 4.24751C12.77 4.21844 12.7239 4.17791 12.6505 4.12689C12.4352 3.97714 12.0895 3.81424 11.6211 3.66467C10.6911 3.36774 9.39432 3.16001 7.99751 3.16001C6.60069 3.16001 5.30388 3.36774 4.37395 3.66467C3.9055 3.81424 3.55978 3.97714 3.34451 4.12689C3.27116 4.17791 3.22506 4.21844 3.1965 4.24751ZM4.00894 2.52153C5.07289 2.18181 6.49483 1.96001 7.99751 1.96001C9.50019 1.96001 10.9221 2.18181 11.9861 2.52153C12.5146 2.69027 12.9846 2.89748 13.3358 3.1418C13.6542 3.36334 14.035 3.72894 14.035 4.24751V7.99751V11.7475C14.035 12.2661 13.6542 12.6317 13.3358 12.8532C12.9846 13.0975 12.5146 13.3047 11.9861 13.4735C10.9221 13.8132 9.50019 14.035 7.99751 14.035C6.49483 14.035 5.07289 13.8132 4.00894 13.4735C3.48046 13.3047 3.01045 13.0975 2.65924 12.8532C2.34077 12.6317 1.96001 12.2661 1.96001 11.7475V7.99751V4.24751C1.96001 3.72894 2.34077 3.36334 2.65924 3.1418C3.01045 2.89748 3.48046 2.69027 4.00894 2.52153ZM3.16001 5.64124V7.95505C3.17588 7.97743 3.2225 8.03325 3.34451 8.11813C3.55978 8.26788 3.9055 8.43077 4.37395 8.58035C5.30388 8.87727 6.60069 9.08501 7.99751 9.08501C9.39432 9.08501 10.6911 8.87727 11.6211 8.58035C12.0895 8.43077 12.4352 8.26788 12.6505 8.11813C12.7725 8.03325 12.8191 7.97743 12.835 7.95505V5.64124C12.5796 5.76476 12.2927 5.8756 11.9861 5.97349C10.9221 6.3132 9.50019 6.53501 7.99751 6.53501C6.49483 6.53501 5.07289 6.3132 4.00894 5.97349C3.70236 5.8756 3.41546 5.76476 3.16001 5.64124ZM12.835 9.39124C12.5796 9.51476 12.2927 9.6256 11.9861 9.72349C10.9221 10.0632 9.50019 10.285 7.99751 10.285C6.49483 10.285 5.07289 10.0632 4.00894 9.72349C3.70236 9.6256 3.41546 9.51476 3.16001 9.39124V11.7051C3.17588 11.7274 3.2225 11.7832 3.34451 11.8681C3.55978 12.0179 3.9055 12.1808 4.37395 12.3303C5.30388 12.6273 6.60069 12.835 7.99751 12.835C9.39432 12.835 10.6911 12.6273 11.6211 12.3303C12.0895 12.1808 12.4352 12.0179 12.6505 11.8681C12.7725 11.7832 12.8191 11.7274 12.835 11.7051V9.39124Z" fill="#0E1438"/>
</svg>
