<svg width="16" height="16" viewBox="0 0 16 16" fill="none" xmlns="http://www.w3.org/2000/svg"><path d="M5.427 3.106 C 4.628 3.328,3.747 3.779,3.120 4.286 C 2.864 4.493,2.377 4.995,2.182 5.253 C 1.538 6.105,1.196 7.005,1.052 8.227 C 0.994 8.718,0.993 9.277,1.051 9.587 C 1.281 10.830,2.067 11.741,3.189 12.066 C 3.890 12.270,4.709 12.264,5.344 12.051 C 6.402 11.697,7.122 10.865,7.378 9.700 C 7.451 9.367,7.444 8.566,7.365 8.195 C 7.116 7.038,6.488 6.281,5.512 5.963 C 4.863 5.751,3.921 5.749,3.241 5.959 C 3.130 5.993,3.040 6.013,3.040 6.003 C 3.040 5.993,3.120 5.884,3.218 5.759 C 3.877 4.923,4.848 4.307,6.013 3.985 C 6.458 3.863,6.556 3.329,6.178 3.084 C 6.027 2.986,5.837 2.991,5.427 3.106 M13.093 3.057 C 11.042 3.594,9.444 5.012,8.844 6.827 C 8.571 7.655,8.435 8.887,8.545 9.547 C 8.757 10.813,9.572 11.758,10.732 12.082 C 11.211 12.216,11.896 12.254,12.363 12.172 C 13.696 11.940,14.674 10.942,14.893 9.591 C 14.940 9.304,14.945 8.731,14.905 8.437 C 14.765 7.437,14.295 6.650,13.582 6.224 C 13.031 5.895,12.281 5.745,11.525 5.813 C 11.220 5.841,10.717 5.946,10.604 6.005 C 10.577 6.019,10.550 6.025,10.543 6.019 C 10.515 5.990,10.870 5.564,11.138 5.306 C 11.775 4.690,12.525 4.268,13.461 4.000 C 13.691 3.934,13.818 3.833,13.882 3.666 C 13.967 3.443,13.865 3.174,13.654 3.067 C 13.529 3.003,13.313 2.999,13.093 3.057 " stroke="none" fill-rule="evenodd"></path></svg>