<svg width="16" height="16" viewBox="0 0 16 16" fill="none" xmlns="http://www.w3.org/2000/svg">
<path fill-rule="evenodd" clip-rule="evenodd" d="M7.58067 2.70036C7.83268 2.47252 7.98033 2.45 8.00106 2.45C8.02179 2.45 8.16944 2.47252 8.42145 2.70036C8.6592 2.91531 8.9293 3.26118 9.18434 3.74628C9.62128 4.57738 9.98622 5.76512 10.0799 7.25104H8.00106H5.9222C6.0159 5.76512 6.38084 4.57738 6.81778 3.74628C7.07281 3.26118 7.34292 2.91531 7.58067 2.70036ZM4.51973 7.25104C4.61552 5.54772 5.03186 4.13474 5.5786 3.0948C5.60003 3.05404 5.6217 3.01377 5.64361 2.974C3.9725 3.75903 2.75662 5.3528 2.50024 7.25104H4.51973ZM2.50023 8.75104H4.51973C4.61551 10.4544 5.03185 11.8674 5.5786 12.9073C5.60003 12.9481 5.6217 12.9884 5.64361 13.0281C3.97249 12.2431 2.7566 10.6493 2.50023 8.75104ZM5.92219 8.75104H8.00106H10.0799C9.98622 10.237 9.62128 11.4247 9.18434 12.2558C8.9293 12.7409 8.6592 13.0868 8.42145 13.3018C8.16944 13.5296 8.02179 13.5521 8.00106 13.5521C7.98033 13.5521 7.83268 13.5296 7.58067 13.3018C7.34292 13.0868 7.07281 12.7409 6.81778 12.2558C6.38083 11.4247 6.01589 10.237 5.92219 8.75104ZM11.4824 8.75104C11.3866 10.4544 10.9703 11.8674 10.4235 12.9073C10.4021 12.9481 10.3804 12.9883 10.3585 13.0281C12.0296 12.2431 13.2455 10.6493 13.5019 8.75104H11.4824ZM13.5019 7.25104C13.2455 5.35279 12.0296 3.75903 10.3585 2.974C10.3804 3.01377 10.4021 3.05404 10.4235 3.0948C10.9703 4.13474 11.3866 5.54772 11.4824 7.25104H13.5019ZM7.99804 14.9521L8.00106 14.9521C11.84 14.9521 14.9521 11.84 14.9521 8.00106C14.9521 4.1621 11.84 1.05 8.00106 1.05C4.1621 1.05 1.05 4.1621 1.05 8.00106C1.05 11.839 4.16046 14.9505 7.99804 14.9521Z" fill="black"/>
</svg>
