<svg width="16" height="16" viewBox="0 0 16 16" fill="none" xmlns="http://www.w3.org/2000/svg">
<path fill-rule="evenodd" clip-rule="evenodd" d="M1.23001 1.52002C1.23001 1.10581 1.5658 0.77002 1.98001 0.77002H11.3626C12.7638 0.77002 13.8997 1.90594 13.8997 3.30717V9.57451C13.4437 9.36277 12.9355 9.24438 12.3997 9.24387V3.30717C12.3997 2.73437 11.9354 2.27002 11.3626 2.27002H2.73001V13.7269H8.93846C9.08715 14.2942 9.37176 14.8065 9.7554 15.2269H1.98001C1.5658 15.2269 1.23001 14.8911 1.23001 14.4769V1.52002ZM9.92294 10.2378C9.51743 10.6265 9.20338 11.11 9.0163 11.6525H5.55432C5.14011 11.6525 4.80432 11.3168 4.80432 10.9025C4.80432 10.4883 5.14011 10.1525 5.55432 10.1525H9.57541C9.70083 10.1525 9.81905 10.1833 9.92294 10.2378ZM7.56487 4.90075C6.84107 4.90075 6.25432 5.4875 6.25432 6.2113C6.25432 6.93509 6.84107 7.52184 7.56487 7.52184C8.28866 7.52184 8.87541 6.93509 8.87541 6.2113C8.87541 5.4875 8.28866 4.90075 7.56487 4.90075ZM4.85432 6.2113C4.85432 4.7143 6.06787 3.50075 7.56487 3.50075C9.06186 3.50075 10.2754 4.7143 10.2754 6.2113C10.2754 7.70829 9.06186 8.92184 7.56487 8.92184C6.06787 8.92184 4.85432 7.70829 4.85432 6.2113ZM14.601 12.0524C14.8317 11.8217 14.8317 11.4477 14.601 11.2171C14.3704 10.9864 13.9964 10.9864 13.7657 11.2171L11.8163 13.1665L11.0267 12.377C10.7961 12.1463 10.4221 12.1463 10.1914 12.377C9.96078 12.6076 9.96078 12.9816 10.1914 13.2123L11.3987 14.4195C11.5094 14.5303 11.6597 14.5925 11.8163 14.5925C11.9729 14.5925 12.1232 14.5303 12.234 14.4195L14.601 12.0524Z" fill="black"/>
</svg>
