<svg width="16" height="16" viewBox="0 0 16 16" fill="none" xmlns="http://www.w3.org/2000/svg">
<path fill-rule="evenodd" clip-rule="evenodd" d="M2.4 3.43782C2.4 2.86465 2.86465 2.4 3.43782 2.4H9.30298C9.75619 2.4 10.1236 2.76739 10.1236 3.2206C10.1236 3.6072 10.437 3.9206 10.8236 3.9206C11.2102 3.9206 11.5236 3.6072 11.5236 3.2206C11.5236 1.99419 10.5294 1 9.30298 1H3.43782C2.09145 1 1 2.09145 1 3.43782V9.30298C1 10.5294 1.99419 11.5236 3.2206 11.5236C3.6072 11.5236 3.9206 11.2102 3.9206 10.8236C3.9206 10.437 3.6072 10.1236 3.2206 10.1236C2.76739 10.1236 2.4 9.75619 2.4 9.30298V3.43782ZM5.87563 6.91345C5.87563 6.34028 6.34028 5.87563 6.91345 5.87563H12.5614C13.1346 5.87563 13.5992 6.34028 13.5992 6.91345V12.5614C13.5992 13.1346 13.1346 13.5992 12.5614 13.5992H6.91345C6.34028 13.5992 5.87563 13.1346 5.87563 12.5614V6.91345ZM6.91345 4.47563C5.56708 4.47563 4.47563 5.56708 4.47563 6.91345V12.5614C4.47563 13.9078 5.56708 14.9992 6.91345 14.9992H12.5614C13.9078 14.9992 14.9992 13.9078 14.9992 12.5614V6.91345C14.9992 5.56708 13.9078 4.47563 12.5614 4.47563H6.91345Z" fill="black"/>
</svg>
