<svg width="16" height="16" viewBox="0 0 16 16" fill="none" xmlns="http://www.w3.org/2000/svg">
<path fill-rule="evenodd" clip-rule="evenodd" d="M7.49872 2.24343C9.22329 0.518853 12.0194 0.518854 13.744 2.24343C15.4685 3.968 15.4685 6.76409 13.744 8.48866L12.6491 9.58352C12.3757 9.85688 11.9325 9.85688 11.6592 9.58352C11.3858 9.31015 11.3858 8.86693 11.6592 8.59357L12.754 7.49871C13.9318 6.32087 13.9318 4.41122 12.754 3.23338C11.5762 2.05554 9.66651 2.05554 8.48867 3.23338L7.39381 4.32823C7.12045 4.6016 6.67723 4.6016 6.40387 4.32823C6.1305 4.05486 6.1305 3.61165 6.40387 3.33828L7.49872 2.24343ZM4.32823 6.40387C4.6016 6.67723 4.6016 7.12045 4.32823 7.39381L3.23338 8.48867C2.05554 9.66651 2.05554 11.5762 3.23338 12.754C4.41122 13.9318 6.32088 13.9318 7.49872 12.754L8.59357 11.6592C8.86693 11.3858 9.31015 11.3858 9.58352 11.6592C9.85688 11.9325 9.85688 12.3757 9.58352 12.6491L8.48866 13.744C6.76409 15.4685 3.968 15.4685 2.24343 13.744C0.518854 12.0194 0.518853 9.22329 2.24343 7.49872L3.33828 6.40387C3.61165 6.1305 4.05486 6.1305 4.32823 6.40387ZM10.4594 6.51789C10.7327 6.24452 10.7327 5.8013 10.4594 5.52794C10.186 5.25457 9.74277 5.25457 9.4694 5.52794L5.52794 9.4694C5.25457 9.74277 5.25457 10.186 5.52794 10.4594C5.8013 10.7327 6.24452 10.7327 6.51789 10.4594L10.4594 6.51789Z" fill="#0E1438"/>
</svg>
