<svg width="16" height="16" viewBox="0 0 16 16" fill="none" xmlns="http://www.w3.org/2000/svg"><path d="M1.715 3.228 C 1.513 3.268,1.362 3.382,1.273 3.560 C 1.119 3.869,1.262 4.256,1.585 4.403 C 1.689 4.450,1.917 4.452,8.000 4.452 C 14.083 4.452,14.311 4.450,14.415 4.403 C 14.912 4.177,14.911 3.486,14.413 3.261 C 14.312 3.216,14.018 3.213,8.067 3.209 C 4.635 3.207,1.777 3.215,1.715 3.228 M1.574 7.434 C 1.310 7.563,1.164 7.853,1.225 8.125 C 1.267 8.310,1.392 8.472,1.560 8.559 L 1.692 8.627 8.000 8.627 L 14.308 8.627 14.440 8.559 C 14.608 8.472,14.733 8.310,14.775 8.125 C 14.836 7.851,14.687 7.558,14.422 7.432 C 14.331 7.390,13.923 7.387,7.996 7.387 C 2.066 7.388,1.661 7.391,1.574 7.434 M1.585 11.597 C 1.093 11.821,1.086 12.478,1.573 12.737 C 1.664 12.785,1.872 12.787,8.000 12.787 L 14.333 12.787 14.440 12.729 C 14.915 12.473,14.900 11.818,14.415 11.597 C 14.311 11.550,14.083 11.548,8.000 11.548 C 1.917 11.548,1.689 11.550,1.585 11.597 " stroke="none" fill-rule="evenodd" fill="black"></path></svg>