<svg width="16" height="16" viewBox="0 0 16 16" fill="none" xmlns="http://www.w3.org/2000/svg">
<path fill-rule="evenodd" clip-rule="evenodd" d="M11.8717 5.20034C12.1646 4.90745 12.1646 4.43258 11.8717 4.13968C11.5789 3.84679 11.104 3.84679 10.8111 4.13968L8.0057 6.94506L5.20031 4.13968C4.90742 3.84679 4.43254 3.84679 4.13965 4.13968C3.84676 4.43258 3.84676 4.90745 4.13965 5.20034L6.94504 8.00572L4.13965 10.8111C3.84676 11.104 3.84676 11.5789 4.13965 11.8718C4.43254 12.1646 4.90742 12.1646 5.20031 11.8718L8.0057 9.06638L10.8111 11.8718C11.104 12.1646 11.5789 12.1646 11.8717 11.8718C12.1646 11.5789 12.1646 11.104 11.8717 10.8111L9.06636 8.00572L11.8717 5.20034Z" fill="black"/>
</svg>
