<svg width="17" height="17" viewBox="0 0 17 17" fill="none" xmlns="http://www.w3.org/2000/svg">
<path d="M6.54913 1.91036L9.89319 1.91089C10.0471 1.91089 10.1418 1.91576 10.1772 1.92551C10.4969 2.01303 10.5069 2.49306 10.1802 2.59362C10.1428 2.60512 10.0811 2.61081 9.99515 2.6107C9.13122 2.60976 8.26724 2.6104 7.40319 2.61263C7.21194 2.61312 7.02075 2.6126 6.82957 2.61207C6.53509 2.61126 6.24067 2.61046 5.94618 2.61334C5.89863 2.60559 5.85331 2.59215 5.81023 2.57301C5.54098 2.45274 5.56105 2.04666 5.82291 1.94012C5.86529 1.92286 5.92804 1.91371 6.01115 1.91265C6.19042 1.91019 6.36974 1.90942 6.54913 1.91036Z" fill="#4389EE"/>
<path fill-rule="evenodd" clip-rule="evenodd" d="M2.77714 7.33682C2.77714 6.20571 2.77714 5.64015 2.9655 5.19533C3.20654 4.62609 3.65964 4.17299 4.22888 3.93195C4.67371 3.74359 5.23926 3.74359 6.37037 3.74359H9.68368C10.8148 3.74359 11.3803 3.74359 11.8252 3.93195C12.3944 4.17299 12.8475 4.62609 13.0885 5.19533C13.2769 5.64015 13.2769 6.20571 13.2769 7.33682V10.6475C13.2769 11.7786 13.2769 12.3442 13.0885 12.789C12.8475 13.3583 12.3944 13.8114 11.8252 14.0524C11.3803 14.2408 10.8148 14.2408 9.68368 14.2408H6.37037C5.23926 14.2408 4.67371 14.2408 4.22888 14.0524C3.65964 13.8114 3.20654 13.3583 2.9655 12.789C2.77714 12.3442 2.77714 11.7786 2.77714 10.6475V7.33682ZM9.10111 5.987C9.05439 6.11038 8.98683 6.24797 8.89843 6.39977C8.68934 6.75865 8.4809 7.11806 8.27311 7.478L7.04642 9.59539L7.04597 9.59655L7.04585 9.5976L7.04643 9.5998C7.0468 9.60046 7.04734 9.601 7.04799 9.60137C7.04864 9.60174 7.04938 9.60192 7.05012 9.6019C7.48766 9.60026 7.92174 9.60132 8.35235 9.60507C8.44322 9.60589 8.51636 9.61405 8.57177 9.62955C8.95636 9.73785 9.17948 10.1415 9.03807 10.5213C9.03621 10.5264 9.03283 10.5308 9.02838 10.5339C9.02393 10.537 9.01864 10.5386 9.01324 10.5386C7.63001 10.5366 6.24413 10.5359 4.85861 10.5379C4.72865 10.538 4.58601 10.5227 4.47771 10.4498C4.24914 10.2966 4.20846 10.0122 4.36853 9.78892C4.47454 9.66976 4.6126 9.60889 4.78271 9.60631C5.17411 9.60044 5.56311 9.59873 5.9497 9.6012C5.95312 9.6012 5.95648 9.60031 5.95944 9.59861C5.96241 9.59691 5.96488 9.59446 5.9666 9.59151L7.18801 7.48452L7.47416 6.99515C7.4772 6.98997 7.47809 6.98383 7.47663 6.97807C7.47358 6.96633 7.468 6.95382 7.4599 6.94056C7.31843 6.70811 7.16582 6.4425 7.00205 6.14372C6.94863 6.04628 6.93032 5.94198 6.94711 5.8308C7.00997 5.53707 7.31427 5.3696 7.58845 5.49252C7.7611 5.57015 7.87681 5.78555 7.9706 5.96014C7.98503 5.987 7.99914 6.01327 8.01266 6.03754C8.01371 6.0394 8.01523 6.04094 8.01708 6.042C8.01893 6.04306 8.02103 6.04361 8.02316 6.04357C8.02529 6.04353 8.02737 6.04292 8.02918 6.0418C8.03099 6.04067 8.03247 6.03908 8.03344 6.03718L8.03669 6.03085C8.10994 5.88763 8.19585 5.71968 8.30586 5.60029C8.5406 5.34583 8.96587 5.43863 9.07805 5.76265C9.09648 5.81595 9.10417 5.89073 9.10111 5.987ZM8.91393 7.5893L9.81642 9.14511C9.89977 9.29139 9.98307 9.43532 10.0663 9.5769C10.0819 9.60335 10.0898 9.60298 10.1117 9.60197L10.1227 9.60155C10.3572 9.59615 10.7372 9.59744 11.2627 9.60543C11.5476 9.60983 11.7956 9.8104 11.7663 10.1128C11.7564 10.2169 11.7143 10.3076 11.6402 10.385C11.5045 10.527 11.3603 10.5304 11.1477 10.5354L11.1334 10.5357C10.9667 10.5396 10.8001 10.54 10.6335 10.537C10.6327 10.537 10.632 10.5371 10.6313 10.5373L10.6303 10.5378C10.6293 10.5383 10.6285 10.5391 10.6279 10.5401C10.6275 10.5407 10.6273 10.5413 10.6272 10.542L10.627 10.5433C10.627 10.5444 10.6273 10.5455 10.6279 10.5465L11.0369 11.2602C11.1928 11.4803 11.1937 11.7802 10.9644 11.9501C10.7645 12.0984 10.4562 12.0611 10.3121 11.8448C10.1983 11.674 10.0971 11.498 9.99511 11.3206L9.95695 11.2542L8.56843 8.86054C8.30076 8.3994 8.29072 7.93098 8.53832 7.45529C8.58199 7.37534 8.63429 7.30232 8.69522 7.23622C8.69616 7.23522 8.69731 7.23445 8.69859 7.23397C8.69987 7.23349 8.70125 7.23331 8.7026 7.23344C8.70395 7.23358 8.70524 7.23403 8.70638 7.23476C8.70751 7.23549 8.70845 7.23647 8.70913 7.23763L8.91393 7.5893ZM5.80424 11.7358C5.91319 11.5491 6.02143 11.3625 6.12897 11.1762L6.21243 11.0341C6.21537 11.0293 6.21496 11.0248 6.2112 11.0205C5.97077 10.7492 5.6707 10.6599 5.311 10.7525C5.30543 10.7539 5.3002 10.7564 5.29563 10.7599C5.29106 10.7634 5.28724 10.7678 5.28441 10.7728L5.00371 11.2604C4.88009 11.4611 4.83941 11.6784 4.98821 11.8637C5.14529 12.059 5.41313 12.0981 5.62181 11.953C5.69225 11.904 5.76462 11.8042 5.80424 11.7358Z" fill="#4389EE"/>
<path d="M1.15777 5.05051C1.12044 5.32346 1.37225 5.52597 1.62971 5.42577C1.74123 5.38234 1.80944 5.30984 1.83433 5.2083C2.11767 4.05257 2.90975 3.16311 4.04891 2.80071C4.08658 2.78876 4.12565 2.77914 4.1647 2.76952C4.32189 2.73081 4.47886 2.69215 4.54374 2.50187C4.6376 2.2261 4.38297 1.99771 4.1146 2.06022C2.78225 2.3705 1.71969 3.33974 1.27082 4.63581C1.20884 4.81472 1.17115 4.95296 1.15777 5.05051Z" fill="#4389EE"/>
<path d="M13.3209 2.69029C14.0287 3.20379 14.5196 3.87771 14.7936 4.71206C14.8758 4.96246 14.9899 5.31114 14.6545 5.43247C14.4773 5.49656 14.253 5.40006 14.2056 5.20336C14.0343 4.49352 13.6622 3.87296 13.101 3.40489C12.7022 3.0763 12.2502 2.8523 11.745 2.73291C11.4899 2.67268 11.4002 2.37244 11.558 2.17275C11.6723 2.02799 11.8266 2.03363 12.0035 2.07871C12.4791 2.20022 12.9182 2.40408 13.3209 2.69029Z" fill="#4389EE"/>
<path d="M14.664 6.50841H14.6753C14.8654 6.50841 15.0195 6.66255 15.0195 6.85268V10.9663C15.0195 11.1564 14.8654 11.3106 14.6753 11.3106H14.664C14.4739 11.3106 14.3197 11.1564 14.3197 10.9663V6.85268C14.3197 6.66255 14.4739 6.50841 14.664 6.50841Z" fill="#4389EE"/>
<path d="M1.37507 6.5107H1.3638C1.17367 6.5107 1.01953 6.66484 1.01953 6.85497V10.9686C1.01953 11.1587 1.17367 11.3129 1.3638 11.3129H1.37507C1.5652 11.3129 1.71934 11.1587 1.71934 10.9686V6.85497C1.71934 6.66484 1.5652 6.5107 1.37507 6.5107Z" fill="#4389EE"/>
<path d="M4.28611 15.0873C3.12458 14.8103 2.22262 13.9522 1.88399 12.8061C1.8788 12.7856 1.874 12.7655 1.86931 12.7457C1.84129 12.6278 1.81687 12.5251 1.73589 12.4601C1.43441 12.2178 1.07887 12.482 1.17185 12.8435C1.27094 13.2292 1.41146 13.5794 1.59343 13.8939C2.13792 14.8272 3.03671 15.5059 4.08994 15.7563C4.60097 15.8778 4.7415 15.1958 4.28611 15.0873Z" fill="#4389EE"/>
<path d="M11.5501 15.6369C11.4497 15.5037 11.4509 15.3612 11.5538 15.2097C11.6135 15.1218 11.7085 15.0983 11.8036 15.0748C11.825 15.0695 11.8463 15.0642 11.8672 15.0582C13.0714 14.7129 13.9207 13.8101 14.2095 12.5999C14.2185 12.5623 14.2565 12.4983 14.2921 12.4687C14.4446 12.3417 14.5962 12.3322 14.7469 12.44C14.8637 12.5235 14.9074 12.6646 14.8771 12.801C14.5559 14.2498 13.3949 15.4073 11.9614 15.7531C11.7927 15.7938 11.6552 15.7762 11.5501 15.6369Z" fill="#4389EE"/>
<path d="M9.98212 15.2104C8.74546 15.2106 7.50867 15.2105 6.27177 15.21C6.24311 15.2102 6.21297 15.2097 6.18201 15.2091C5.9501 15.2051 5.6722 15.2002 5.62497 15.4902C5.58535 15.733 5.7456 15.9113 5.99337 15.9113C7.32935 15.9103 8.66445 15.91 9.99867 15.9104C10.1112 15.9104 10.2116 15.9016 10.2898 15.8387C10.4976 15.6716 10.4558 15.321 10.1927 15.2319C10.1504 15.2174 10.0801 15.2103 9.98212 15.2104Z" fill="#4389EE"/>
</svg>
