<svg width="16" height="16" viewBox="0 0 16 16" fill="none" xmlns="http://www.w3.org/2000/svg"><path d="M7.573 1.228 C 5.955 1.317,4.373 2.030,3.204 3.200 C 2.017 4.387,1.345 5.872,1.222 7.580 C 1.132 8.821,1.448 10.212,2.069 11.312 C 2.761 12.539,3.879 13.580,5.115 14.151 C 7.294 15.157,9.798 14.967,11.773 13.645 C 13.997 12.158,15.151 9.474,14.695 6.853 C 14.451 5.454,13.802 4.206,12.796 3.200 C 11.414 1.818,9.563 1.119,7.573 1.228 M8.826 2.523 C 11.211 2.870,13.106 4.769,13.481 7.188 C 13.543 7.587,13.543 8.413,13.481 8.812 C 13.179 10.761,11.898 12.393,10.091 13.130 C 8.067 13.956,5.758 13.519,4.189 12.014 C 3.275 11.137,2.711 10.056,2.519 8.812 C 2.487 8.612,2.473 8.357,2.473 8.000 C 2.473 7.422,2.513 7.094,2.642 6.592 C 3.220 4.351,5.214 2.672,7.526 2.480 C 7.874 2.451,8.466 2.471,8.826 2.523 M9.807 5.745 C 9.752 5.764,9.677 5.800,9.641 5.824 C 9.604 5.848,8.984 6.588,8.263 7.469 L 6.952 9.072 6.483 8.603 C 6.188 8.309,5.976 8.120,5.914 8.094 C 5.787 8.042,5.546 8.042,5.419 8.095 C 5.208 8.183,5.041 8.436,5.041 8.667 C 5.041 8.906,5.112 8.999,5.910 9.790 C 6.319 10.195,6.680 10.541,6.713 10.558 C 6.897 10.652,7.160 10.637,7.337 10.520 C 7.445 10.449,10.457 6.786,10.553 6.609 C 10.623 6.480,10.635 6.236,10.577 6.099 C 10.452 5.800,10.103 5.639,9.807 5.745 " stroke="none" fill-rule="evenodd" fill="black"></path></svg>