<svg width="16" height="16" viewBox="0 0 16 16" fill="none" xmlns="http://www.w3.org/2000/svg">
<path fill-rule="evenodd" clip-rule="evenodd" d="M8.28632 1.11123C8.10416 1.02957 7.8958 1.02957 7.71364 1.11123L1.47973 3.90575C1.24337 4.0117 1.08485 4.23951 1.06762 4.49795L1.76607 4.54451C1.06762 4.49795 1.0676 4.49822 1.06758 4.49854L1.06752 4.49936L1.06737 4.50165L1.06692 4.50888L1.06549 4.53368C1.06433 4.55473 1.0628 4.58473 1.06115 4.6231C1.05785 4.69981 1.05409 4.81005 1.05188 4.94905C1.04747 5.22684 1.04927 5.62069 1.07372 6.09222C1.12241 7.03124 1.26183 8.29766 1.63097 9.57546C1.99871 10.8484 2.60818 12.1806 3.62896 13.2014C4.66794 14.2403 6.09581 14.9178 7.99998 14.9178C9.90415 14.9178 11.332 14.2404 12.371 13.2014C13.3918 12.1806 14.0013 10.8484 14.369 9.57546C14.7381 8.29766 14.8776 7.03124 14.9263 6.09222C14.9507 5.62069 14.9525 5.22684 14.9481 4.94905C14.9459 4.81005 14.9421 4.69981 14.9388 4.6231C14.9372 4.58473 14.9356 4.55473 14.9345 4.53368L14.9331 4.50888L14.9326 4.50165L14.9325 4.49936L14.9324 4.49854C14.9324 4.49822 14.9324 4.49795 14.2339 4.54451L14.9324 4.49795C14.9151 4.23951 14.7566 4.0117 14.5202 3.90575L8.28632 1.11123ZM2.47184 6.01972C2.45025 5.6032 2.44789 5.25393 2.45122 5.00449L7.99998 2.5171L13.5488 5.00449C13.5521 5.25393 13.5497 5.6032 13.5281 6.01972C13.4828 6.89445 13.3535 8.04636 13.024 9.1869C12.6931 10.3323 12.174 11.4184 11.3811 12.2114C10.6063 12.9862 9.53522 13.5178 7.99998 13.5178C6.46475 13.5178 5.39367 12.9862 4.61891 12.2114C3.82595 11.4184 3.30686 10.3323 2.97597 9.1869C2.64648 8.04637 2.5172 6.89445 2.47184 6.01972ZM10.5021 6.45909C10.7285 6.14568 10.6579 5.70812 10.3445 5.48177C10.0311 5.25542 9.59352 5.32599 9.36717 5.6394L7.10061 8.77772L6.60307 8.18067C6.35557 7.88368 5.91418 7.84355 5.61718 8.09105C5.32019 8.33854 5.28006 8.77994 5.52756 9.07693L6.60237 10.3667C6.74081 10.5328 6.94825 10.6256 7.16436 10.6182C7.38047 10.6107 7.58099 10.5037 7.7076 10.3284L10.5021 6.45909Z" fill="black"/>
</svg>
