<svg width="16" height="16" viewBox="0 0 16 16" fill="none" xmlns="http://www.w3.org/2000/svg"><path d="M7.613 1.896 C 6.252 1.971,5.124 2.454,4.013 3.438 L 3.800 3.627 3.787 3.047 C 3.772 2.400,3.766 2.377,3.579 2.208 C 3.443 2.086,3.315 2.045,3.108 2.058 C 2.895 2.072,2.715 2.191,2.614 2.387 L 2.547 2.519 2.547 3.866 L 2.547 5.213 2.630 5.387 C 2.784 5.710,3.048 5.900,3.415 5.950 C 3.521 5.965,4.113 5.973,4.781 5.968 C 5.848 5.961,5.970 5.955,6.067 5.912 C 6.485 5.724,6.586 5.195,6.263 4.888 C 6.094 4.727,6.051 4.720,5.241 4.720 C 4.837 4.720,4.507 4.711,4.507 4.700 C 4.507 4.673,4.872 4.341,5.133 4.131 C 5.713 3.665,6.340 3.364,7.020 3.225 C 8.620 2.899,10.276 3.393,11.435 4.541 C 12.151 5.249,12.635 6.168,12.816 7.160 C 12.885 7.538,12.885 8.462,12.816 8.840 C 12.635 9.832,12.151 10.751,11.435 11.459 C 10.897 11.993,10.267 12.383,9.573 12.616 C 8.342 13.027,7.015 12.944,5.887 12.385 C 4.746 11.819,3.917 10.912,3.453 9.720 C 3.331 9.408,3.206 9.285,2.953 9.228 C 2.580 9.144,2.204 9.445,2.208 9.824 C 2.209 9.978,2.268 10.153,2.461 10.573 C 3.044 11.840,4.054 12.873,5.317 13.492 C 6.606 14.124,8.069 14.289,9.437 13.956 C 10.540 13.688,11.540 13.128,12.334 12.334 C 13.337 11.332,13.937 10.083,14.107 8.641 C 14.141 8.350,14.141 7.650,14.107 7.359 C 13.911 5.695,13.112 4.237,11.840 3.221 C 10.642 2.264,9.191 1.810,7.613 1.896 " stroke="none" fill-rule="evenodd" fill="black"></path></svg>