<svg width="16" height="16" viewBox="0 0 16 16" fill="none" xmlns="http://www.w3.org/2000/svg">
<g clip-path="url(#clip0_96_7)">
<path fill-rule="evenodd" clip-rule="evenodd" d="M7.46429 0C6.63321 0 5.92958 0.613242 5.81602 1.43653L5.73203 2.04546C5.71947 2.13651 5.64027 2.26219 5.46179 2.33312C5.40005 2.35765 5.33884 2.38322 5.27818 2.40979C5.1025 2.48678 4.95752 2.45469 4.88395 2.39952L4.58749 2.17717C3.92506 1.68035 2.99813 1.74623 2.41262 2.33173L2.23173 2.51263C1.64622 3.09813 1.58035 4.02507 2.07717 4.68749L2.29951 4.98396C2.35469 5.05752 2.38677 5.2025 2.30979 5.37819C2.28321 5.43885 2.25764 5.50005 2.23311 5.56179C2.16219 5.74027 2.03651 5.81947 1.94545 5.83203L1.33652 5.91602C0.513236 6.02958 -0.100006 6.73321 -0.100006 7.5643V7.81194C-0.100006 8.64303 0.513235 9.34666 1.33652 9.46022L1.94545 9.54421C2.03651 9.55677 2.16219 9.63597 2.23311 9.81445C2.25764 9.87618 2.28321 9.93739 2.30979 9.99805C2.38677 10.1737 2.35469 10.3187 2.29951 10.3923L2.83975 10.7975L2.29951 10.3923L2.07716 10.6887C1.58034 11.3512 1.64622 12.2781 2.23173 12.8636L2.41262 13.0445C2.99813 13.63 3.92506 13.6959 4.58749 13.1991L4.88395 12.9767C4.95752 12.9215 5.10249 12.8895 5.27818 12.9664C5.33884 12.993 5.40005 13.0186 5.46179 13.0431C5.64026 13.114 5.71947 13.2397 5.73203 13.3308L5.81602 13.9397C5.92958 14.763 6.63321 15.3762 7.46429 15.3762H7.71194C8.54302 15.3762 9.24665 14.763 9.36021 13.9397L9.4442 13.3308C9.45676 13.2397 9.53596 13.114 9.71444 13.0431C9.77618 13.0186 9.83739 12.993 9.89805 12.9664C10.0737 12.8895 10.2187 12.9215 10.2923 12.9767L10.5887 13.199C11.2511 13.6959 12.1781 13.63 12.7636 13.0445L12.9445 12.8636C13.53 12.2781 13.5959 11.3512 13.099 10.6887L12.8767 10.3923C12.8215 10.3187 12.7895 10.1737 12.8664 9.99805C12.893 9.93739 12.9186 9.87618 12.9431 9.81445C13.014 9.63597 13.1397 9.55677 13.2308 9.54421L13.8397 9.46022C14.663 9.34666 15.2762 8.64303 15.2762 7.81194V7.5643C15.2762 6.73321 14.663 6.02958 13.8397 5.91602L13.2308 5.83203C13.1397 5.81947 13.014 5.74027 12.9431 5.56179C12.9186 5.50005 12.893 5.43884 12.8664 5.37818C12.7895 5.20249 12.8215 5.05752 12.8767 4.98395L13.099 4.68751C13.5959 4.02509 13.53 3.09815 12.9445 2.51264L12.7636 2.33175C12.1781 1.74625 11.2511 1.68037 10.5887 2.17719L10.2923 2.39952C10.2187 2.45469 10.0737 2.48678 9.89805 2.40979C9.83739 2.38322 9.77618 2.35765 9.71444 2.33312C9.53596 2.26219 9.45676 2.13651 9.4442 2.04546L9.36021 1.43653C9.24665 0.613242 8.54302 0 7.71194 0H7.46429ZM7.20289 1.62782C7.2209 1.49726 7.33249 1.4 7.46429 1.4H7.71194C7.84374 1.4 7.95533 1.49726 7.97334 1.62782L8.05733 2.23675C8.15194 2.92265 8.64705 3.41545 9.19744 3.63416C9.24408 3.65269 9.29033 3.67201 9.33618 3.6921C9.87916 3.93002 10.5781 3.93512 11.1323 3.51952L11.4287 3.29719C11.5338 3.2184 11.6808 3.22884 11.7736 3.3217L11.9545 3.50259C12.0474 3.59545 12.0578 3.74246 11.979 3.84751L11.7567 4.14395C11.3411 4.69809 11.3462 5.39707 11.5841 5.94005C11.6042 5.9859 11.6235 6.03215 11.6421 6.07879C11.8608 6.62918 12.3536 7.1243 13.0395 7.2189L13.6484 7.30289C13.779 7.3209 13.8762 7.43249 13.8762 7.5643V7.81194C13.8762 7.94375 13.779 8.05534 13.6484 8.07335L13.0395 8.15734C12.3536 8.25194 11.8608 8.74706 11.6421 9.29745C11.6235 9.34409 11.6042 9.39034 11.5841 9.43618C11.3462 9.97916 11.3411 10.6781 11.7567 11.2323L11.979 11.5287C12.0578 11.6338 12.0474 11.7808 11.9545 11.8736L11.7736 12.0545C11.6808 12.1474 11.5338 12.1578 11.4287 12.0791L11.1323 11.8567C10.5781 11.4411 9.87916 11.4462 9.33618 11.6841C9.29034 11.7042 9.24409 11.7235 9.19744 11.7421C8.64705 11.9608 8.15194 12.4536 8.05733 13.1395L7.97334 13.7484C7.95533 13.879 7.84374 13.9762 7.71194 13.9762H7.46429C7.33249 13.9762 7.2209 13.879 7.20289 13.7484L7.1189 13.1395C7.02429 12.4536 6.52918 11.9608 5.97878 11.7421C5.93214 11.7235 5.88589 11.7042 5.84005 11.6841C5.29707 11.4462 4.59809 11.4411 4.04395 11.8567L3.74749 12.0791C3.64243 12.1579 3.49543 12.1474 3.40257 12.0546L3.22167 11.8737C3.12882 11.7808 3.11837 11.6338 3.19716 11.5287L3.41951 11.2323C3.83512 10.6781 3.83001 9.97916 3.59209 9.43618C3.57201 9.39034 3.55269 9.34409 3.53415 9.29745C3.31544 8.74706 2.82264 8.25194 2.13675 8.15734L1.52782 8.07335C1.39725 8.05534 1.29999 7.94375 1.29999 7.81194V7.5643C1.29999 7.43249 1.39725 7.3209 1.52782 7.30289L2.13675 7.2189C2.82264 7.1243 3.31544 6.62918 3.53415 6.07879C3.55269 6.03215 3.57201 5.9859 3.59209 5.94006C3.83001 5.39708 3.83512 4.6981 3.41951 4.14396L3.19717 3.84749C3.11837 3.74244 3.12882 3.59543 3.22168 3.50257L3.40257 3.32168C3.49543 3.22882 3.64243 3.21838 3.74749 3.29717L4.04395 3.51952C4.59809 3.93512 5.29707 3.93002 5.84005 3.6921C5.8859 3.67201 5.93214 3.65269 5.97878 3.63416C6.52918 3.41545 7.02429 2.92265 7.1189 2.23675L7.20289 1.62782ZM7.58803 10.2929C9.02665 10.2929 10.1929 9.12671 10.1929 7.6881C10.1929 6.24948 9.02665 5.08325 7.58803 5.08325C6.14941 5.08325 4.98318 6.24948 4.98318 7.6881C4.98318 9.12671 6.14941 10.2929 7.58803 10.2929ZM8.79287 7.6881C8.79287 8.35352 8.25345 8.89294 7.58803 8.89294C6.92261 8.89294 6.38318 8.35352 6.38318 7.6881C6.38318 7.02268 6.92261 6.48325 7.58803 6.48325C8.25345 6.48325 8.79287 7.02268 8.79287 7.6881Z" fill="#0E1438"/>
</g>
<defs>
<clipPath id="clip0_96_7">
<rect width="16" height="16" fill="white"/>
</clipPath>
</defs>
</svg>
