<svg width="16" height="16" viewBox="0 0 16 16" fill="none" xmlns="http://www.w3.org/2000/svg"><path d="M3.588 1.228 C 3.516 1.240,3.372 1.292,3.268 1.343 C 2.958 1.497,2.726 1.756,2.608 2.082 L 2.547 2.253 2.539 7.840 C 2.534 11.905,2.540 13.476,2.562 13.609 C 2.649 14.134,3.087 14.573,3.622 14.672 C 3.834 14.712,4.141 14.672,4.349 14.578 C 4.428 14.543,5.278 13.972,6.238 13.310 C 7.197 12.648,7.990 12.107,8.000 12.107 C 8.010 12.107,8.803 12.648,9.762 13.310 C 10.722 13.972,11.570 14.542,11.648 14.577 C 12.404 14.917,13.311 14.422,13.439 13.600 C 13.457 13.487,13.466 11.510,13.466 7.920 C 13.466 3.239,13.460 2.386,13.427 2.233 C 13.323 1.740,12.926 1.344,12.434 1.239 C 12.281 1.207,11.598 1.201,7.987 1.204 C 5.640 1.205,3.661 1.216,3.588 1.228 M12.207 7.932 C 12.211 11.273,12.204 13.407,12.189 13.422 C 12.173 13.437,11.495 12.986,10.422 12.247 C 9.464 11.587,8.629 11.021,8.567 10.990 C 8.203 10.806,7.761 10.813,7.399 11.009 C 7.324 11.050,6.493 11.614,5.552 12.263 C 4.610 12.912,3.828 13.436,3.814 13.427 C 3.783 13.408,3.774 2.501,3.805 2.471 C 3.814 2.461,5.707 2.456,8.011 2.460 L 12.200 2.467 12.207 7.932 M9.766 4.829 C 9.703 4.841,9.613 4.877,9.566 4.909 C 9.519 4.942,8.998 5.449,8.408 6.036 L 7.336 7.104 6.968 6.744 C 6.766 6.547,6.554 6.363,6.497 6.337 C 6.367 6.275,6.126 6.273,5.986 6.332 C 5.693 6.454,5.548 6.769,5.640 7.084 C 5.682 7.229,5.716 7.269,6.262 7.821 C 6.972 8.538,7.036 8.588,7.268 8.607 C 7.596 8.633,7.545 8.674,8.983 7.243 C 9.692 6.537,10.318 5.903,10.374 5.833 C 10.749 5.368,10.355 4.719,9.766 4.829 " stroke="none" fill-rule="evenodd" fill="black"></path></svg>