<svg width="16" height="16" viewBox="0 0 16 16" fill="none" xmlns="http://www.w3.org/2000/svg"><path d="M7.457 1.429 C 6.485 1.605,5.638 2.298,5.265 3.221 C 5.102 3.625,5.053 3.881,5.053 4.333 C 5.053 4.778,5.102 5.039,5.257 5.427 C 5.864 6.949,7.599 7.688,9.117 7.070 C 10.475 6.517,11.242 4.991,10.862 3.600 C 10.590 2.602,9.891 1.857,8.914 1.524 C 8.521 1.390,7.899 1.349,7.457 1.429 M8.420 2.680 C 8.964 2.808,9.463 3.280,9.634 3.827 C 9.680 3.975,9.692 4.079,9.692 4.333 C 9.692 4.708,9.638 4.924,9.475 5.194 C 9.115 5.788,8.448 6.117,7.787 6.027 C 7.376 5.970,7.088 5.828,6.797 5.537 C 6.481 5.220,6.327 4.875,6.302 4.427 C 6.258 3.622,6.757 2.918,7.533 2.691 C 7.737 2.631,8.189 2.626,8.420 2.680 M11.669 7.360 C 11.096 7.464,10.546 7.847,10.264 8.339 C 10.014 8.774,9.938 9.365,10.067 9.853 C 10.197 10.342,10.562 10.811,11.012 11.068 L 11.172 11.160 11.173 12.398 L 11.173 13.637 11.314 13.772 C 11.391 13.846,11.548 13.979,11.664 14.067 C 11.852 14.210,11.888 14.227,12.000 14.227 C 12.112 14.227,12.148 14.210,12.336 14.067 C 12.452 13.979,12.609 13.846,12.686 13.772 L 12.827 13.637 12.827 13.288 L 12.827 12.939 12.727 12.852 C 12.672 12.804,12.562 12.706,12.482 12.634 L 12.338 12.503 12.582 12.258 L 12.827 12.012 12.827 11.579 C 12.827 11.341,12.837 11.147,12.850 11.147 C 12.903 11.147,13.277 10.878,13.410 10.744 C 14.385 9.764,14.108 8.139,12.864 7.541 C 12.746 7.484,12.584 7.420,12.504 7.398 C 12.327 7.349,11.847 7.327,11.669 7.360 M7.240 8.093 C 5.961 8.270,4.888 8.793,4.035 9.658 C 3.709 9.988,3.502 10.245,3.285 10.590 C 2.942 11.135,2.707 11.684,2.545 12.318 C 2.421 12.803,2.481 13.159,2.741 13.481 C 2.904 13.684,3.110 13.827,3.346 13.901 L 3.533 13.960 6.493 13.960 C 9.446 13.960,9.454 13.960,9.573 13.904 C 10.066 13.673,10.074 12.994,9.587 12.770 C 9.485 12.724,9.337 12.721,6.624 12.721 C 5.054 12.720,3.762 12.713,3.754 12.705 C 3.734 12.686,3.798 12.441,3.896 12.164 C 4.272 11.090,5.087 10.175,6.083 9.708 C 6.598 9.467,7.100 9.346,7.739 9.307 C 8.266 9.276,8.437 9.196,8.563 8.920 C 8.664 8.701,8.609 8.401,8.437 8.230 C 8.292 8.084,8.183 8.054,7.813 8.057 C 7.630 8.059,7.372 8.075,7.240 8.093 M12.227 8.711 C 12.473 8.795,12.667 9.069,12.667 9.333 C 12.667 9.685,12.352 10.000,12.000 10.000 C 11.839 10.000,11.652 9.920,11.533 9.801 C 11.272 9.540,11.272 9.127,11.533 8.865 C 11.718 8.680,11.971 8.624,12.227 8.711 " stroke="none" fill-rule="evenodd" fill="black"></path></svg>