<svg width="16" height="16" viewBox="0 0 16 16" fill="none" xmlns="http://www.w3.org/2000/svg"><path d="M7.413 1.359 C 6.211 1.480,5.138 1.871,4.187 2.537 C 2.391 3.795,1.334 5.824,1.333 8.017 C 1.333 9.498,1.854 10.979,2.791 12.160 C 3.020 12.448,3.550 12.981,3.827 13.200 C 4.327 13.596,4.949 13.960,5.507 14.181 C 5.809 14.302,6.281 14.453,6.352 14.453 C 6.398 14.453,6.400 14.349,6.400 12.253 L 6.400 10.053 5.707 10.053 L 5.013 10.053 5.013 9.027 L 5.013 8.000 5.704 8.000 L 6.394 8.000 6.407 7.193 C 6.421 6.338,6.442 6.151,6.575 5.690 C 6.738 5.128,7.091 4.622,7.529 4.323 C 7.879 4.083,8.435 3.902,9.010 3.839 C 9.520 3.783,10.458 3.831,10.973 3.940 L 11.080 3.962 11.087 4.881 L 11.094 5.800 10.500 5.801 C 9.857 5.802,9.684 5.827,9.402 5.960 C 9.236 6.039,9.031 6.247,8.959 6.409 C 8.844 6.669,8.821 6.823,8.807 7.420 L 8.794 8.000 9.891 8.000 L 10.988 8.000 10.973 8.060 C 10.953 8.145,10.613 10.008,10.613 10.033 C 10.613 10.044,10.205 10.053,9.707 10.053 L 8.800 10.053 8.800 12.333 C 8.800 14.504,8.802 14.613,8.848 14.613 C 8.960 14.613,9.531 14.495,9.822 14.411 C 13.156 13.451,15.203 10.124,14.543 6.735 C 14.049 4.195,12.110 2.147,9.620 1.536 C 8.964 1.374,8.018 1.299,7.413 1.359 " stroke="none" fill-rule="evenodd"></path></svg>