<svg width="16" height="16" viewBox="0 0 16 16" fill="none" xmlns="http://www.w3.org/2000/svg"><path d="M5.587 1.228 C 5.088 1.259,4.637 1.342,4.079 1.506 C 3.657 1.631,3.241 1.796,3.077 1.905 C 2.865 2.046,2.691 2.283,2.597 2.560 C 2.548 2.702,2.547 2.908,2.547 8.520 L 2.547 14.333 2.604 14.440 C 2.860 14.915,3.516 14.900,3.736 14.415 C 3.783 14.313,3.786 14.198,3.786 12.383 L 3.787 10.458 4.204 10.321 C 4.675 10.166,5.091 10.070,5.472 10.028 C 6.197 9.949,6.480 10.021,7.660 10.589 C 8.930 11.199,9.334 11.330,10.013 11.352 C 10.461 11.367,10.868 11.325,11.387 11.210 C 11.770 11.126,12.598 10.852,12.804 10.743 C 12.992 10.642,13.222 10.407,13.319 10.215 C 13.468 9.921,13.466 9.984,13.466 6.625 C 13.467 4.530,13.457 3.479,13.438 3.372 C 13.363 2.955,13.085 2.597,12.689 2.403 C 12.306 2.216,12.025 2.204,11.493 2.352 C 11.075 2.469,10.765 2.527,10.383 2.561 C 9.794 2.613,9.480 2.531,8.520 2.074 C 7.564 1.618,7.302 1.503,6.999 1.405 C 6.497 1.243,6.119 1.196,5.587 1.228 M6.418 2.534 C 6.704 2.608,7.036 2.747,7.827 3.127 C 8.826 3.608,9.252 3.755,9.806 3.811 C 10.049 3.836,10.583 3.816,10.848 3.772 C 11.160 3.721,11.412 3.666,11.725 3.581 C 12.062 3.490,12.081 3.488,12.145 3.530 L 12.213 3.575 12.213 6.611 L 12.213 9.648 11.983 9.732 C 11.322 9.971,10.813 10.080,10.267 10.099 C 9.652 10.121,9.441 10.056,8.213 9.466 C 7.195 8.978,6.775 8.832,6.207 8.768 C 5.692 8.711,4.867 8.814,4.144 9.027 C 3.970 9.078,3.818 9.120,3.807 9.120 C 3.796 9.120,3.789 7.726,3.793 6.022 L 3.800 2.923 4.053 2.833 C 5.025 2.487,5.834 2.385,6.418 2.534 " stroke="none" fill-rule="evenodd" fill="black"></path></svg>