<svg width="16" height="16" viewBox="0 0 16 16" fill="none" xmlns="http://www.w3.org/2000/svg"><path d="M2.297 2.562 C 1.938 2.609,1.541 2.891,1.362 3.227 C 1.194 3.543,1.201 3.331,1.201 8.000 C 1.201 12.620,1.196 12.449,1.348 12.749 C 1.446 12.942,1.702 13.202,1.894 13.305 C 2.213 13.475,1.868 13.466,8.000 13.466 C 14.132 13.466,13.787 13.475,14.106 13.305 C 14.298 13.202,14.554 12.942,14.652 12.749 C 14.804 12.449,14.799 12.620,14.799 8.000 C 14.799 3.331,14.806 3.543,14.638 3.227 C 14.527 3.018,14.262 2.767,14.047 2.666 C 13.946 2.619,13.797 2.576,13.679 2.561 C 13.434 2.529,2.543 2.530,2.297 2.562 M13.533 5.587 L 13.533 7.373 8.000 7.373 L 2.467 7.373 2.460 5.613 C 2.456 4.645,2.459 3.838,2.466 3.820 C 2.476 3.793,3.598 3.788,8.006 3.793 L 13.533 3.800 13.533 5.587 M4.040 4.988 C 3.839 5.097,3.732 5.236,3.687 5.447 C 3.599 5.859,3.909 6.239,4.333 6.239 C 4.992 6.239,5.241 5.398,4.692 5.027 C 4.589 4.957,4.546 4.946,4.360 4.939 C 4.182 4.932,4.129 4.940,4.040 4.988 M13.540 10.420 L 13.533 12.200 8.000 12.200 L 2.467 12.200 2.460 10.420 L 2.453 8.640 8.000 8.640 L 13.547 8.640 13.540 10.420 M4.066 9.810 C 3.601 10.021,3.536 10.659,3.948 10.958 C 4.247 11.175,4.693 11.090,4.889 10.779 C 5.171 10.333,4.859 9.761,4.333 9.761 C 4.235 9.761,4.132 9.780,4.066 9.810 " stroke="none" fill-rule="evenodd" fill="black"></path></svg>