<svg width="16" height="16" viewBox="0 0 16 16" fill="none" xmlns="http://www.w3.org/2000/svg">
<path fill-rule="evenodd" clip-rule="evenodd" d="M12.3905 3.98588C12.5076 3.86543 12.6669 3.79528 12.8348 3.79027C12.9649 3.78644 13.0932 3.82201 13.2028 3.89232C13.3124 3.96264 13.3982 4.06442 13.4489 4.18434C13.4996 4.30425 13.513 4.43669 13.4872 4.56432C13.4613 4.69194 13.3976 4.80878 13.3042 4.89954L6.19682 12.0069C6.07565 12.1281 5.91133 12.1961 5.73999 12.1961C5.56866 12.1961 5.40434 12.1281 5.28316 12.0069L2.69866 9.42243C2.63665 9.36289 2.58714 9.29158 2.55303 9.21266C2.51893 9.13375 2.50091 9.04883 2.50003 8.96287C2.49916 8.87691 2.51545 8.79164 2.54794 8.71205C2.58043 8.63246 2.62848 8.56016 2.68927 8.49937C2.75005 8.43858 2.82236 8.39054 2.90194 8.35804C2.98153 8.32555 3.0668 8.30927 3.15277 8.31014C3.23873 8.31101 3.32365 8.32903 3.40256 8.36314C3.48147 8.39724 3.55278 8.44675 3.61232 8.50876L5.73999 10.6364L12.3905 3.98588Z" fill="#0E1438"/>
<path d="M12.8348 3.79027L12.8274 3.54038L12.8273 3.54039L12.8348 3.79027ZM12.3905 3.98588L12.5673 4.16267L12.5699 4.16009L12.3905 3.98588ZM13.2028 3.89232L13.0678 4.10273L13.2028 3.89232ZM13.4489 4.18434L13.6791 4.0869L13.6791 4.0869L13.4489 4.18434ZM13.4872 4.56432L13.2421 4.51474V4.51475L13.4872 4.56432ZM13.3042 4.89954L13.1299 4.72026L13.1274 4.72277L13.3042 4.89954ZM6.19682 12.0069L6.37356 12.1837L6.3736 12.1837L6.19682 12.0069ZM5.28316 12.0069L5.10638 12.1837L5.10642 12.1837L5.28316 12.0069ZM2.69866 9.42243L2.87547 9.24561L2.8718 9.24209L2.69866 9.42243ZM2.55303 9.21266L2.32355 9.31185L2.55303 9.21266ZM2.50003 8.96287L2.75002 8.96033L2.50003 8.96287ZM2.54794 8.71205L2.77939 8.80655L2.77939 8.80654L2.54794 8.71205ZM2.68927 8.49937L2.51249 8.32259H2.51249L2.68927 8.49937ZM3.15276 8.31014L3.15022 8.56013L3.15276 8.31014ZM3.61232 8.50876L3.43194 8.68194L3.43554 8.68554L3.61232 8.50876ZM5.73999 10.6364L5.56322 10.8132L5.73999 10.99L5.91677 10.8132L5.73999 10.6364ZM12.8273 3.54039C12.5945 3.54732 12.3735 3.64462 12.2112 3.81167L12.5699 4.16009C12.6416 4.08624 12.7393 4.04323 12.8422 4.04016L12.8273 3.54039ZM13.3378 3.68191C13.1858 3.58439 13.0079 3.53506 12.8274 3.54038L12.8421 4.04017C12.9219 4.03781 13.0006 4.05962 13.0678 4.10273L13.3378 3.68191ZM13.6791 4.0869C13.6088 3.9206 13.4898 3.77944 13.3378 3.68191L13.0678 4.10273C13.135 4.14585 13.1876 4.20825 13.2187 4.28177L13.6791 4.0869ZM13.7322 4.61389C13.768 4.43689 13.7495 4.25321 13.6791 4.0869L13.2187 4.28177C13.2498 4.35529 13.258 4.4365 13.2421 4.51474L13.7322 4.61389ZM13.4785 5.07881C13.608 4.95294 13.6964 4.79089 13.7322 4.61389L13.2421 4.51475C13.2263 4.59299 13.1872 4.66463 13.13 4.72028L13.4785 5.07881ZM6.3736 12.1837L13.481 5.07632L13.1274 4.72277L6.02005 11.8302L6.3736 12.1837ZM5.73999 12.4461C5.97761 12.4461 6.20551 12.3517 6.37356 12.1837L6.02008 11.8301C5.94579 11.9044 5.84504 11.9461 5.73999 11.9461V12.4461ZM5.10642 12.1837C5.27448 12.3517 5.50237 12.4461 5.73999 12.4461V11.9461C5.63494 11.9461 5.5342 11.9044 5.4599 11.8301L5.10642 12.1837ZM2.52188 9.5992L5.10638 12.1837L5.45994 11.8302L2.87543 9.24565L2.52188 9.5992ZM2.32355 9.31185C2.37085 9.42129 2.43951 9.52019 2.52551 9.60276L2.8718 9.24209C2.83378 9.20559 2.80343 9.16186 2.78251 9.11348L2.32355 9.31185ZM2.25005 8.96541C2.25126 9.08463 2.27625 9.20241 2.32355 9.31185L2.78251 9.11348C2.7616 9.0651 2.75056 9.01303 2.75002 8.96033L2.25005 8.96541ZM2.31648 8.61756C2.27142 8.72793 2.24883 8.8462 2.25005 8.96541L2.75002 8.96033C2.74948 8.90762 2.75947 8.85534 2.77939 8.80655L2.31648 8.61756ZM2.51249 8.32259C2.42818 8.4069 2.36155 8.50718 2.31648 8.61756L2.77939 8.80654C2.79931 8.75775 2.82877 8.71342 2.86604 8.67615L2.51249 8.32259ZM2.80745 8.12659C2.69707 8.17166 2.59679 8.23829 2.51249 8.32259L2.86604 8.67615C2.90331 8.63888 2.94764 8.60942 2.99644 8.5895L2.80745 8.12659ZM3.15531 8.06015C3.03609 8.05894 2.91783 8.08153 2.80745 8.12659L2.99644 8.5895C3.04524 8.56958 3.09752 8.55959 3.15022 8.56013L3.15531 8.06015ZM3.50174 8.13365C3.3923 8.08635 3.27453 8.06137 3.15531 8.06015L3.15022 8.56013C3.20293 8.56066 3.25499 8.57171 3.30337 8.59262L3.50174 8.13365ZM3.79266 8.33562C3.71008 8.24962 3.61118 8.18095 3.50174 8.13365L3.30337 8.59262C3.35176 8.61353 3.39548 8.64389 3.43198 8.68191L3.79266 8.33562ZM5.91677 10.4597L3.7891 8.33199L3.43554 8.68554L5.56322 10.8132L5.91677 10.4597ZM12.2138 3.8091L5.56322 10.4597L5.91677 10.8132L12.5673 4.16266L12.2138 3.8091Z" fill="#0E1438"/>
</svg>
