<svg width="17" height="17" viewBox="0 0 17 17" fill="none" xmlns="http://www.w3.org/2000/svg">
<path fill-rule="evenodd" clip-rule="evenodd" d="M3.37968 3.28553C3.37968 3.23398 3.42148 3.19218 3.47303 3.19218H11.1033V6.15563H3.47303C3.42147 6.15563 3.37968 6.11383 3.37968 6.06227V3.28553ZM12.5033 6.15563V3.19218H13.39C13.4415 3.19218 13.4833 3.23397 13.4833 3.28553V6.06227C13.4833 6.11384 13.4415 6.15563 13.39 6.15563H12.5033ZM3.47303 1.79218C2.64828 1.79218 1.97968 2.46078 1.97968 3.28553V6.06227C1.97968 6.88702 2.64826 7.55563 3.47303 7.55563H13.39C14.2148 7.55563 14.8833 6.88702 14.8833 6.06227V3.28553C14.8833 2.46079 14.2148 1.79218 13.39 1.79218H3.47303ZM3.37968 10.4257C3.37968 10.3742 3.42147 10.3324 3.47303 10.3324H11.1033V13.2958H3.47303C3.42146 13.2958 3.37968 13.254 3.37968 13.2025V10.4257ZM12.5033 13.2958H13.39C13.4415 13.2958 13.4833 13.2541 13.4833 13.2025V10.4257C13.4833 10.3742 13.4415 10.3324 13.39 10.3324H12.5033V13.2958ZM3.47303 8.93238C2.64829 8.93238 1.97968 9.60096 1.97968 10.4257V13.2025C1.97968 14.0273 2.64827 14.6958 3.47303 14.6958H13.39C14.2147 14.6958 14.8833 14.0273 14.8833 13.2025V10.4257C14.8833 9.60097 14.2147 8.93238 13.39 8.93238H3.47303Z" fill="black"/>
</svg>
