<svg width="16" height="16" viewBox="0 0 16 16" fill="none" xmlns="http://www.w3.org/2000/svg"><path d="M3.201 1.576 C 2.913 1.632,2.535 1.917,2.376 2.196 C 2.201 2.504,2.213 2.076,2.213 7.986 C 2.213 13.878,2.203 13.503,2.373 13.799 C 2.467 13.962,2.716 14.208,2.880 14.301 C 3.167 14.463,2.845 14.453,8.000 14.453 C 13.183 14.453,12.832 14.464,13.133 14.292 C 13.295 14.200,13.542 13.951,13.634 13.787 C 13.797 13.499,13.787 13.888,13.787 8.000 C 13.787 2.074,13.799 2.504,13.624 2.196 C 13.524 2.020,13.246 1.759,13.062 1.670 C 12.984 1.632,12.855 1.589,12.776 1.574 C 12.597 1.540,3.374 1.542,3.201 1.576 M5.200 8.000 L 5.200 13.200 4.333 13.200 L 3.467 13.200 3.467 8.000 L 3.467 2.800 4.333 2.800 L 5.200 2.800 5.200 8.000 M12.533 8.000 L 12.533 13.200 9.493 13.200 L 6.453 13.200 6.453 8.000 L 6.453 2.800 9.493 2.800 L 12.533 2.800 12.533 8.000 M8.382 4.560 C 7.891 4.661,7.706 5.246,8.055 5.595 C 8.251 5.791,8.239 5.790,9.551 5.781 L 10.715 5.773 10.830 5.693 C 11.168 5.455,11.220 5.016,10.943 4.739 C 10.747 4.543,10.778 4.547,9.573 4.542 C 8.979 4.540,8.443 4.548,8.382 4.560 M8.382 7.227 C 7.891 7.328,7.706 7.913,8.055 8.262 C 8.251 8.458,8.239 8.456,9.551 8.448 L 10.715 8.440 10.830 8.359 C 11.168 8.122,11.220 7.682,10.943 7.405 C 10.747 7.209,10.778 7.214,9.573 7.209 C 8.979 7.206,8.443 7.214,8.382 7.227 " stroke="none" fill-rule="evenodd" fill="black"></path></svg>