<svg width="16" height="16" viewBox="0 0 16 16" fill="none" xmlns="http://www.w3.org/2000/svg">
<path fill-rule="evenodd" clip-rule="evenodd" d="M8.24424 2.0125C8.08811 1.94251 7.90951 1.94251 7.75338 2.0125L2.32856 4.44432C2.12597 4.53513 1.99009 4.73039 1.97532 4.95191L2.57399 4.99182C1.97532 4.95191 1.9753 4.95215 1.97528 4.95242L1.97524 4.95313L1.97511 4.95511L1.97472 4.96138L1.97347 4.9829C1.97247 5.00119 1.97113 5.02726 1.9697 5.06061C1.96684 5.12728 1.96356 5.22313 1.96164 5.344C1.95781 5.58557 1.95938 5.92809 1.98064 6.33818C2.02299 7.1549 2.14425 8.2562 2.46522 9.36726C2.78499 10.4742 3.31476 11.6318 4.20157 12.5186C5.10398 13.421 6.34419 14.0096 7.99881 14.0096C9.65343 14.0096 10.8936 13.421 11.7961 12.5186C12.6829 11.6318 13.2126 10.4742 13.5324 9.36726C13.8534 8.2562 13.9746 7.1549 14.017 6.33818C14.0382 5.92809 14.0398 5.58557 14.036 5.344C14.0341 5.22313 14.0308 5.12728 14.0279 5.06061C14.0265 5.02726 14.0252 5.00119 14.0241 4.9829L14.0229 4.96138L14.0225 4.95511L14.0224 4.95313L14.0223 4.95242C14.0223 4.95215 14.0223 4.95191 13.4236 4.99182L14.0223 4.95191C14.0075 4.73039 13.8717 4.53513 13.6691 4.44432L8.24424 2.0125ZM3.17903 6.27604C3.16006 5.9101 3.15814 5.60375 3.16115 5.38614L7.99881 3.21753L12.8365 5.38614C12.8395 5.60375 12.8376 5.9101 12.8186 6.27604C12.7791 7.03766 12.6665 8.04081 12.3795 9.03421C12.0914 10.0318 11.6391 10.9786 10.9475 11.6701C10.2716 12.346 9.3372 12.8096 7.99881 12.8096C6.66042 12.8096 5.72603 12.346 5.0501 11.6701C4.35856 10.9786 3.90626 10.0318 3.61808 9.03421C3.33109 8.04081 3.21852 7.03766 3.17903 6.27604ZM10.1688 6.65256C10.3628 6.38392 10.3023 6.00887 10.0337 5.81486C9.76502 5.62084 9.38997 5.68133 9.19595 5.94997L7.21667 8.69051L6.77616 8.16191C6.56402 7.90734 6.18569 7.87295 5.93112 8.08508C5.67655 8.29722 5.64216 8.67556 5.8543 8.93013L6.78961 10.0525C6.90827 10.1949 7.08608 10.2745 7.27132 10.268C7.45655 10.2616 7.62843 10.1699 7.73695 10.0197L10.1688 6.65256Z" fill="#0E1438"/>
</svg>
