<svg width="16" height="16" viewBox="0 0 16 16" fill="none" xmlns="http://www.w3.org/2000/svg">
<path fill-rule="evenodd" clip-rule="evenodd" d="M2.45 8.09374C2.45 6.78755 2.89373 5.585 3.63868 4.62861L5.14207 6.132C4.768 6.69371 4.55 7.36826 4.55 8.09374C4.55 8.81921 4.768 9.49377 5.14207 10.0555L3.63868 11.5589C2.89373 10.6025 2.45 9.39993 2.45 8.09374ZM6.13202 5.14205L4.62863 3.63866C5.58502 2.89372 6.78757 2.44999 8.09375 2.44999C9.39994 2.44999 10.6025 2.89372 11.5589 3.63866L10.0555 5.14205C9.49378 4.76799 8.81923 4.54999 8.09375 4.54999C7.36828 4.54999 6.69372 4.76799 6.13202 5.14205ZM11.0454 6.132C11.4195 6.69371 11.6375 7.36826 11.6375 8.09374C11.6375 8.81921 11.4195 9.49377 11.0454 10.0555L12.5488 11.5589C13.2938 10.6025 13.7375 9.39993 13.7375 8.09374C13.7375 6.78755 13.2938 5.585 12.5488 4.62861L11.0454 6.132ZM10.0555 11.0454C9.49378 11.4195 8.81923 11.6375 8.09375 11.6375C7.36828 11.6375 6.69372 11.4195 6.13202 11.0454L4.62863 12.5488C5.58502 13.2938 6.78757 13.7375 8.09375 13.7375C9.39994 13.7375 10.6025 13.2938 11.5589 12.5488L10.0555 11.0454ZM8.09375 1.04999C4.2036 1.04999 1.05 4.20358 1.05 8.09374C1.05 11.9839 4.2036 15.1375 8.09375 15.1375C11.9839 15.1375 15.1375 11.9839 15.1375 8.09374C15.1375 4.20358 11.9839 1.04999 8.09375 1.04999ZM5.95 8.09374C5.95 6.90978 6.90979 5.94999 8.09375 5.94999C9.27771 5.94999 10.2375 6.90978 10.2375 8.09374C10.2375 9.2777 9.27771 10.2375 8.09375 10.2375C6.90979 10.2375 5.95 9.2777 5.95 8.09374Z" fill="black"/>
</svg>
