<svg width="16" height="16" viewBox="0 0 16 16" fill="none" xmlns="http://www.w3.org/2000/svg">
<g clip-path="url(#clip0_418_82)">
<path d="M4.66667 6.83334H6M4.66667 9.16668H6M10.6667 9.33334H9.33333C8.96514 9.33334 8.66667 9.03487 8.66667 8.66668V7.33334C8.66667 6.96515 8.96514 6.66668 9.33333 6.66668H10.6667C11.0349 6.66668 11.3333 6.96515 11.3333 7.33334V8.66668C11.3333 9.03487 11.0349 9.33334 10.6667 9.33334ZM2.66667 12.6667H13.3333C13.7015 12.6667 14 12.3682 14 12V4.00001C14 3.63182 13.7015 3.33334 13.3333 3.33334H2.66667C2.29848 3.33334 2 3.63182 2 4.00001V12C2 12.3682 2.29848 12.6667 2.66667 12.6667Z" stroke="black" stroke-width="1.5" stroke-linecap="round" stroke-linejoin="round"/>
</g>
<defs>
<clipPath id="clip0_418_82">
<rect width="16" height="16" fill="white"/>
</clipPath>
</defs>
</svg>
