<svg width="16" height="16" viewBox="0 0 16 16" fill="none" xmlns="http://www.w3.org/2000/svg">
<path fill-rule="evenodd" clip-rule="evenodd" d="M0.289635 8.12475C0.289635 4.43736 3.27882 1.44818 6.96605 1.44818C10.6534 1.44818 13.6426 4.43736 13.6426 8.12475C13.6426 11.8121 10.6534 14.8015 6.96605 14.8015C3.27882 14.8015 0.289635 11.8121 0.289635 8.12475Z" fill="#FFFFFE"/>
<path fill-rule="evenodd" clip-rule="evenodd" d="M11.0038 7.99324C11.0011 6.28347 9.93239 4.82529 8.42646 4.24781V11.7384C9.93239 11.1601 11.0011 9.70331 11.0038 7.99324ZM5.55367 11.7369V4.2486C4.04908 4.82787 2.982 6.28397 2.97797 7.99328C2.982 9.70216 4.04908 11.1581 5.55367 11.7369ZM6.99083 1.66197C3.4943 1.66331 0.661503 4.49671 0.660906 7.99324C0.661503 11.4893 3.4943 14.3223 6.99083 14.3229C10.4874 14.3223 13.3208 11.4893 13.3217 7.99324C13.3208 4.49671 10.4874 1.66331 6.99083 1.66197ZM6.9753 14.9204C3.14915 14.9386 0 11.8388 0 8.06548C0 3.94163 3.14915 1.08928 6.9753 1.09003H8.76834C12.5493 1.08928 16 3.94028 16 8.06548C16 11.8375 12.5493 14.9204 8.76834 14.9204H6.9753Z" fill="#0069AA"/>
</svg>
