<svg width="16" height="16" viewBox="0 0 16 16" fill="none" xmlns="http://www.w3.org/2000/svg"><path d="M7.573 1.228 C 5.955 1.317,4.373 2.030,3.204 3.200 C 2.017 4.387,1.345 5.872,1.222 7.580 C 1.132 8.821,1.448 10.212,2.069 11.312 C 2.761 12.539,3.879 13.580,5.115 14.151 C 7.294 15.157,9.798 14.967,11.773 13.645 C 13.997 12.158,15.151 9.474,14.695 6.853 C 14.451 5.454,13.802 4.206,12.796 3.200 C 11.414 1.818,9.563 1.119,7.573 1.228 M8.826 2.523 C 11.211 2.870,13.106 4.769,13.481 7.188 C 13.543 7.587,13.543 8.413,13.481 8.812 C 13.179 10.761,11.898 12.393,10.091 13.130 C 8.067 13.956,5.758 13.519,4.189 12.014 C 3.275 11.137,2.711 10.056,2.519 8.812 C 2.487 8.612,2.473 8.357,2.473 8.000 C 2.473 7.422,2.513 7.094,2.642 6.592 C 3.220 4.351,5.214 2.672,7.526 2.480 C 7.874 2.451,8.466 2.471,8.826 2.523 M7.869 4.564 C 7.620 4.610,7.435 4.804,7.386 5.074 C 7.367 5.172,7.360 5.740,7.365 6.673 C 7.373 8.116,7.373 8.120,7.434 8.253 C 7.483 8.359,7.699 8.590,8.488 9.376 C 9.596 10.482,9.586 10.474,9.898 10.446 C 10.196 10.419,10.419 10.196,10.446 9.898 C 10.474 9.591,10.468 9.583,9.504 8.613 L 8.643 7.747 8.635 6.387 L 8.627 5.027 8.565 4.901 C 8.435 4.638,8.168 4.509,7.869 4.564 " stroke="none" fill-rule="evenodd" fill="black"></path></svg>