<svg width="16" height="16" viewBox="0 0 16 16" fill="none" xmlns="http://www.w3.org/2000/svg"><path d="M5.715 1.324 C 5.575 1.373,5.373 1.549,5.307 1.679 C 5.279 1.734,4.895 2.923,4.454 4.323 C 4.012 5.722,3.627 6.941,3.597 7.032 L 3.543 7.197 2.285 7.205 C 1.140 7.213,1.017 7.218,0.920 7.261 C 0.423 7.486,0.421 8.177,0.918 8.403 C 1.019 8.449,1.119 8.452,2.360 8.452 C 3.403 8.453,3.723 8.445,3.830 8.416 C 4.181 8.323,4.520 8.043,4.666 7.728 C 4.708 7.635,5.022 6.675,5.363 5.593 C 5.705 4.510,5.992 3.640,6.002 3.659 C 6.013 3.678,6.737 6.021,7.611 8.867 C 8.486 11.712,9.228 14.112,9.260 14.200 C 9.432 14.672,10.014 14.863,10.434 14.585 C 10.682 14.421,10.645 14.522,11.586 11.387 C 12.062 9.802,12.459 8.493,12.467 8.479 C 12.477 8.463,12.965 8.453,13.728 8.453 C 14.883 8.452,14.981 8.449,15.082 8.403 C 15.240 8.331,15.380 8.175,15.427 8.017 C 15.476 7.851,15.476 7.829,15.426 7.658 C 15.375 7.487,15.251 7.342,15.093 7.269 C 14.978 7.216,14.924 7.213,13.776 7.205 C 12.385 7.196,12.214 7.209,11.933 7.348 C 11.697 7.464,11.464 7.687,11.358 7.897 C 11.316 7.980,10.998 8.995,10.651 10.151 C 10.304 11.307,10.012 12.269,10.002 12.287 C 9.992 12.306,9.254 9.948,8.362 7.047 C 7.471 4.147,6.712 1.723,6.677 1.662 C 6.594 1.516,6.423 1.373,6.272 1.321 C 6.122 1.270,5.863 1.271,5.715 1.324 " stroke="none" fill-rule="evenodd" fill="black"></path></svg>