<svg width="16" height="16" viewBox="0 0 16 16" fill="none" xmlns="http://www.w3.org/2000/svg"><path d="M4.000 8.000 L 4.000 14.000 5.744 14.000 L 7.489 14.000 7.500 12.820 C 7.511 11.650,7.511 11.638,7.580 11.381 C 7.820 10.486,8.486 9.820,9.381 9.580 C 9.638 9.511,9.650 9.511,10.820 9.500 L 12.000 9.489 12.000 8.611 L 12.000 7.732 11.873 7.797 C 11.592 7.939,11.373 7.987,11.000 7.986 C 10.713 7.986,10.619 7.975,10.454 7.924 C 9.853 7.736,9.409 7.344,9.163 6.780 C 8.962 6.320,8.962 5.680,9.163 5.220 C 9.413 4.649,9.874 4.245,10.472 4.075 C 10.635 4.028,10.748 4.016,11.000 4.016 C 11.351 4.016,11.542 4.056,11.832 4.187 L 12.000 4.263 12.000 3.132 L 12.000 2.000 8.000 2.000 L 4.000 2.000 4.000 8.000 " stroke="none" fill-rule="evenodd"></path></svg>