<svg width="16" height="16" viewBox="0 0 16 16" fill="none" xmlns="http://www.w3.org/2000/svg">
<path fill-rule="evenodd" clip-rule="evenodd" d="M1.6504 2.49616C2.04796 1.62154 2.92004 1.06 3.88078 1.06H12.127C13.0877 1.06 13.9598 1.62154 14.3573 2.49616L14.8279 3.53146C14.8622 3.60694 14.8926 3.68394 14.919 3.76217C14.9998 3.87631 15.0473 4.01572 15.0473 4.16621C15.0473 4.23368 15.0453 4.30149 15.0412 4.36945C15.0454 4.42787 15.0475 4.48651 15.0475 4.54527V12.4788C15.0475 13.8319 13.9506 14.9288 12.5975 14.9288H3.41019C2.0571 14.9288 0.960213 13.8319 0.960213 12.4788V4.54527C0.960213 4.48761 0.962248 4.43006 0.966296 4.37272C0.962085 4.30367 0.959999 4.23476 0.959999 4.16621C0.959999 4.01521 1.00781 3.87537 1.08913 3.76101C1.11543 3.68318 1.14568 3.60656 1.17981 3.53146L1.6504 2.49616ZM13.6353 4.38556C13.5992 4.71343 13.4829 5.01195 13.3081 5.23092C13.1092 5.48009 12.8162 5.65368 12.3786 5.65368C11.4987 5.65368 10.8911 4.91451 10.8911 4.16621C10.8911 3.77961 10.5777 3.46621 10.1911 3.46621C9.80452 3.46621 9.49112 3.77961 9.49112 4.16621C9.49112 4.91451 8.88358 5.65368 8.00365 5.65368C7.12372 5.65368 6.51619 4.91451 6.51619 4.16621C6.51619 3.77961 6.20279 3.46621 5.81619 3.46621C5.42959 3.46621 5.11619 3.77961 5.11619 4.16621C5.11619 4.91451 4.50865 5.65368 3.62872 5.65368C3.19115 5.65368 2.89815 5.48009 2.69921 5.23092C2.52467 5.01232 2.40853 4.71442 2.37218 4.38719C2.38668 4.29197 2.41426 4.19894 2.45433 4.11079L2.92492 3.07549C3.0953 2.70065 3.46904 2.46 3.88078 2.46H12.127C12.5387 2.46 12.9124 2.70065 13.0828 3.07549L13.5534 4.11079C13.5932 4.19843 13.6207 4.2909 13.6353 4.38556ZM10.1911 6.04383C10.6971 6.64266 11.4531 7.05368 12.3786 7.05368C12.8599 7.05368 13.2857 6.93972 13.6475 6.74183V12.4788C13.6475 13.0587 13.1774 13.5288 12.5975 13.5288H10.6721V11.1655C10.6721 9.81238 9.57516 8.71549 8.22208 8.71549H7.78458C6.4315 8.71549 5.33461 9.81238 5.33461 11.1655V13.5288H3.41019C2.8303 13.5288 2.36021 13.0587 2.36021 12.4788V6.74206C2.72194 6.93981 3.14757 7.05368 3.62872 7.05368C4.55422 7.05368 5.31022 6.64267 5.81619 6.04384C6.32215 6.64267 7.07815 7.05368 8.00365 7.05368C8.92916 7.05368 9.68515 6.64266 10.1911 6.04383ZM6.73461 11.1655C6.73461 10.5856 7.2047 10.1155 7.78458 10.1155H8.22208C8.80196 10.1155 9.27205 10.5856 9.27205 11.1655V13.5279H6.73461V11.1655Z" fill="#2D2D2D"/>
</svg>
