<svg width="16" height="16" viewBox="0 0 16 16" fill="none" xmlns="http://www.w3.org/2000/svg">
<g clip-path="url(#clip0_96_7)">
<path fill-rule="evenodd" clip-rule="evenodd" d="M7.46431 0C6.63322 0 5.92959 0.613242 5.81603 1.43653L5.73204 2.04546C5.71948 2.13651 5.64028 2.26219 5.4618 2.33312C5.40006 2.35765 5.33886 2.38322 5.2782 2.40979C5.10251 2.48678 4.95754 2.45469 4.88397 2.39952L4.5875 2.17717C3.92508 1.68035 2.99814 1.74623 2.41264 2.33173L2.23174 2.51263C1.64624 3.09813 1.58036 4.02507 2.07718 4.68749L2.29953 4.98396C2.3547 5.05752 2.38679 5.2025 2.3098 5.37819C2.28323 5.43885 2.25766 5.50005 2.23313 5.56179C2.1622 5.74027 2.03652 5.81947 1.94547 5.83203L1.33654 5.91602C0.513251 6.02958 -0.0999908 6.73321 -0.0999908 7.5643V7.81194C-0.0999908 8.64303 0.51325 9.34666 1.33654 9.46022L1.94547 9.54421C2.03652 9.55676 2.1622 9.63597 2.23313 9.81445C2.25766 9.87618 2.28322 9.93739 2.3098 9.99805C2.38679 10.1737 2.3547 10.3187 2.29953 10.3923L2.83976 10.7975L2.29953 10.3923L2.07718 10.6887C1.58036 11.3512 1.64624 12.2781 2.23174 12.8636L2.41263 13.0445C2.99814 13.63 3.92508 13.6959 4.5875 13.1991L4.88397 12.9767C4.95753 12.9215 5.10251 12.8895 5.2782 12.9664C5.33885 12.993 5.40006 13.0186 5.4618 13.0431C5.64028 13.114 5.71948 13.2397 5.73204 13.3308L5.81603 13.9397C5.92959 14.763 6.63322 15.3762 7.46431 15.3762H7.71195C8.54304 15.3762 9.24667 14.763 9.36023 13.9397L9.44422 13.3308C9.45677 13.2397 9.53598 13.114 9.71446 13.0431C9.7762 13.0186 9.83741 12.993 9.89807 12.9664C10.0738 12.8895 10.2187 12.9215 10.2923 12.9767L10.5887 13.199C11.2512 13.6959 12.1781 13.63 12.7636 13.0445L12.9445 12.8636C13.53 12.2781 13.5959 11.3511 13.0991 10.6887L12.8767 10.3923C12.8216 10.3187 12.7895 10.1737 12.8665 9.99805C12.893 9.93739 12.9186 9.87618 12.9431 9.81445C13.0141 9.63597 13.1397 9.55677 13.2308 9.54421L13.8397 9.46022C14.663 9.34666 15.2762 8.64303 15.2762 7.81194V7.5643C15.2762 6.73321 14.663 6.02958 13.8397 5.91602L13.2308 5.83203C13.1397 5.81947 13.0141 5.74027 12.9431 5.56179C12.9186 5.50005 12.893 5.43884 12.8665 5.37818C12.7895 5.20249 12.8216 5.05752 12.8767 4.98395L13.0991 4.68751C13.5959 4.02509 13.53 3.09815 12.9445 2.51264L12.7636 2.33175C12.1781 1.74625 11.2512 1.68037 10.5887 2.17719L10.2923 2.39952C10.2187 2.45469 10.0738 2.48678 9.89806 2.40979C9.8374 2.38322 9.7762 2.35765 9.71446 2.33312C9.53598 2.26219 9.45677 2.13651 9.44422 2.04546L9.36023 1.43653C9.24667 0.613242 8.54304 0 7.71195 0H7.46431ZM7.2029 1.62782C7.22091 1.49726 7.3325 1.4 7.46431 1.4H7.71195C7.84376 1.4 7.95535 1.49726 7.97336 1.62782L8.05735 2.23675C8.15195 2.92265 8.64707 3.41545 9.19746 3.63416C9.2441 3.65269 9.29035 3.67201 9.33619 3.6921C9.87917 3.93002 10.5782 3.93512 11.1323 3.51952L11.4287 3.29719C11.5338 3.2184 11.6808 3.22884 11.7737 3.3217L11.9545 3.50259C12.0474 3.59545 12.0578 3.74246 11.9791 3.84751L11.7567 4.14395C11.3411 4.69809 11.3462 5.39707 11.5841 5.94005C11.6042 5.9859 11.6236 6.03215 11.6421 6.07879C11.8608 6.62918 12.3536 7.1243 13.0395 7.2189L13.6484 7.30289C13.779 7.3209 13.8762 7.43249 13.8762 7.5643V7.81194C13.8762 7.94375 13.779 8.05534 13.6484 8.07335L13.0395 8.15734C12.3536 8.25194 11.8608 8.74706 11.6421 9.29745C11.6236 9.34409 11.6042 9.39034 11.5842 9.43618C11.3462 9.97916 11.3411 10.6781 11.7567 11.2323L11.9791 11.5287C12.0579 11.6338 12.0474 11.7808 11.9545 11.8736L11.7737 12.0545C11.6808 12.1474 11.5338 12.1578 11.4287 12.0791L11.1323 11.8567C10.5782 11.4411 9.87918 11.4462 9.33619 11.6841C9.29035 11.7042 9.2441 11.7235 9.19746 11.7421C8.64707 11.9608 8.15195 12.4536 8.05735 13.1395L7.97336 13.7484C7.95535 13.879 7.84376 13.9762 7.71195 13.9762H7.46431C7.3325 13.9762 7.22091 13.879 7.2029 13.7484L7.11891 13.1395C7.02431 12.4536 6.52919 11.9608 5.9788 11.7421C5.93216 11.7235 5.88591 11.7042 5.84007 11.6841C5.29708 11.4462 4.59811 11.4411 4.04397 11.8567L3.7475 12.0791C3.64245 12.1579 3.49544 12.1474 3.40259 12.0546L3.22169 11.8737C3.12883 11.7808 3.11839 11.6338 3.19718 11.5287L3.41953 11.2323C3.83513 10.6781 3.83003 9.97916 3.59211 9.43618C3.57202 9.39034 3.5527 9.34409 3.53417 9.29745C3.31546 8.74706 2.82266 8.25194 2.13676 8.15734L1.52783 8.07335C1.39726 8.05534 1.30001 7.94375 1.30001 7.81194V7.5643C1.30001 7.43249 1.39726 7.3209 1.52783 7.30289L2.13676 7.2189C2.82266 7.1243 3.31546 6.62918 3.53417 6.07879C3.5527 6.03215 3.57202 5.9859 3.59211 5.94006C3.83003 5.39708 3.83513 4.6981 3.41953 4.14396L3.19718 3.84749C3.11839 3.74244 3.12884 3.59543 3.22169 3.50257L3.40259 3.32168C3.49544 3.22882 3.64245 3.21838 3.7475 3.29717L4.04397 3.51952C4.59811 3.93512 5.29709 3.93002 5.84007 3.6921C5.88591 3.67201 5.93216 3.65269 5.9788 3.63416C6.52919 3.41545 7.02431 2.92265 7.11891 2.23675L7.2029 1.62782ZM7.58804 10.2929C9.02666 10.2929 10.1929 9.12671 10.1929 7.6881C10.1929 6.24948 9.02666 5.08325 7.58804 5.08325C6.14942 5.08325 4.98319 6.24948 4.98319 7.6881C4.98319 9.12671 6.14942 10.2929 7.58804 10.2929ZM8.79289 7.6881C8.79289 8.35351 8.25346 8.89294 7.58804 8.89294C6.92262 8.89294 6.38319 8.35351 6.38319 7.6881C6.38319 7.02268 6.92262 6.48325 7.58804 6.48325C8.25346 6.48325 8.79289 7.02268 8.79289 7.6881Z" fill="black"/>
</g>
<defs>
<clipPath id="clip0_96_7">
<rect width="16" height="16" fill="white"/>
</clipPath>
</defs>
</svg>
