<svg width="16" height="16" viewBox="0 0 16 16" fill="none" xmlns="http://www.w3.org/2000/svg">
<path fill-rule="evenodd" clip-rule="evenodd" d="M12.9534 2.45C12.864 2.45 12.7916 2.52244 12.7916 2.6118V13.3845C12.7916 13.4739 12.864 13.5463 12.9534 13.5463H13.3843C13.4737 13.5463 13.5461 13.4739 13.5461 13.3845V2.6118C13.5461 2.52244 13.4737 2.45 13.3843 2.45H12.9534ZM11.3916 2.6118C11.3916 1.74924 12.0908 1.05 12.9534 1.05H13.3843C14.2469 1.05 14.9461 1.74924 14.9461 2.6118V13.3845C14.9461 14.2471 14.2469 14.9463 13.3843 14.9463H12.9534C12.0908 14.9463 11.3916 14.2471 11.3916 13.3845V2.6118ZM5.66175 2.45L1.25502 6.85672C0.981658 7.13009 0.981657 7.57331 1.25502 7.84667C1.52839 8.12004 1.97161 8.12004 2.24497 7.84667L6.6517 3.43995V4.7663C6.6517 5.1529 6.9651 5.4663 7.3517 5.4663C7.7383 5.4663 8.0517 5.1529 8.0517 4.7663V1.75C8.0517 1.3634 7.7383 1.05 7.3517 1.05H4.3354C3.9488 1.05 3.6354 1.3634 3.6354 1.75C3.6354 2.1366 3.9488 2.45 4.3354 2.45H5.66175ZM2.6118 11.068C2.52244 11.068 2.45 11.1404 2.45 11.2298V13.3845C2.45 13.4739 2.52244 13.5463 2.6118 13.5463H3.0427C3.13206 13.5463 3.2045 13.4739 3.2045 13.3845V11.2298C3.2045 11.1404 3.13206 11.068 3.0427 11.068H2.6118ZM1.05 11.2298C1.05 10.3672 1.74924 9.668 2.6118 9.668H3.0427C3.90526 9.668 4.6045 10.3672 4.6045 11.2298V13.3845C4.6045 14.2471 3.90526 14.9463 3.0427 14.9463H2.6118C1.74924 14.9463 1.05 14.2471 1.05 13.3845V11.2298ZM7.6208 8.6444C7.6208 8.55504 7.69324 8.4826 7.7826 8.4826H8.2135C8.30286 8.4826 8.3753 8.55504 8.3753 8.6444V13.3845C8.3753 13.4739 8.30286 13.5463 8.2135 13.5463H7.7826C7.69324 13.5463 7.6208 13.4739 7.6208 13.3845V8.6444ZM7.7826 7.0826C6.92004 7.0826 6.2208 7.78185 6.2208 8.6444V13.3845C6.2208 14.2471 6.92004 14.9463 7.7826 14.9463H8.2135C9.07606 14.9463 9.7753 14.2471 9.7753 13.3845V8.6444C9.7753 7.78185 9.07606 7.0826 8.2135 7.0826H7.7826Z" fill="#0E1438"/>
</svg>
