<svg width="16" height="16" viewBox="0 0 16 16" fill="none" xmlns="http://www.w3.org/2000/svg"><path d="M12.707 2.105 C 12.189 2.247,1.252 5.773,1.160 5.826 C 0.725 6.079,0.563 6.624,0.786 7.081 C 0.866 7.246,1.077 7.451,1.234 7.519 C 1.296 7.546,2.571 7.925,4.067 8.361 C 5.563 8.797,6.800 9.168,6.816 9.184 C 6.832 9.200,7.203 10.437,7.639 11.933 C 8.076 13.429,8.462 14.715,8.497 14.790 C 8.573 14.953,8.782 15.156,8.948 15.230 C 9.426 15.441,9.980 15.245,10.200 14.787 C 10.235 14.713,11.090 12.079,12.099 8.933 C 13.912 3.279,13.933 3.211,13.932 2.998 C 13.932 2.810,13.921 2.760,13.846 2.608 C 13.632 2.173,13.180 1.974,12.707 2.105 M12.526 3.500 C 12.520 3.518,11.808 5.738,10.944 8.432 C 10.080 11.126,9.365 13.322,9.356 13.312 C 9.346 13.302,9.030 12.237,8.653 10.947 C 8.274 9.650,7.937 8.543,7.899 8.472 C 7.811 8.308,7.633 8.145,7.458 8.068 C 7.382 8.035,6.273 7.703,4.994 7.330 C 3.714 6.958,2.667 6.647,2.667 6.640 C 2.667 6.629,12.455 3.478,12.516 3.470 C 12.528 3.468,12.532 3.482,12.526 3.500 " stroke="none" fill-rule="evenodd" fill="black"></path></svg>