<svg width="16" height="16" viewBox="0 0 16 16" fill="none" xmlns="http://www.w3.org/2000/svg"><path d="M5.080 1.885 C 4.283 1.924,3.489 2.226,2.853 2.734 C 2.448 3.057,2.022 3.585,1.782 4.062 C 1.351 4.920,1.142 6.015,1.225 6.982 C 1.329 8.196,1.799 9.263,2.758 10.466 C 3.016 10.791,3.861 11.640,4.227 11.944 C 5.120 12.686,6.130 13.353,7.020 13.788 C 7.897 14.218,8.103 14.218,8.980 13.788 C 9.870 13.353,10.880 12.686,11.773 11.944 C 12.147 11.634,12.990 10.786,13.246 10.462 C 14.521 8.853,14.965 7.436,14.730 5.725 C 14.537 4.313,13.841 3.150,12.786 2.475 C 12.388 2.220,11.780 1.992,11.307 1.920 C 11.020 1.877,10.356 1.883,10.027 1.932 C 9.387 2.027,8.807 2.239,8.220 2.591 L 8.000 2.724 7.773 2.587 C 7.141 2.205,6.376 1.950,5.733 1.907 C 5.333 1.880,5.243 1.877,5.080 1.885 M5.909 3.188 C 6.458 3.283,7.154 3.610,7.537 3.954 C 7.703 4.102,7.806 4.145,8.000 4.145 C 8.194 4.145,8.297 4.102,8.463 3.954 C 8.724 3.719,9.242 3.433,9.634 3.304 C 10.195 3.121,10.880 3.083,11.360 3.208 C 11.844 3.334,12.229 3.554,12.575 3.903 C 13.148 4.483,13.451 5.230,13.519 6.231 C 13.576 7.083,13.440 7.738,13.047 8.504 C 12.722 9.138,12.285 9.716,11.654 10.347 C 10.919 11.082,10.069 11.736,9.127 12.290 C 8.816 12.473,8.272 12.753,8.087 12.826 C 7.983 12.866,7.966 12.861,7.513 12.637 C 6.731 12.250,5.820 11.644,5.027 10.984 C 4.657 10.676,3.977 9.989,3.708 9.653 C 3.130 8.931,2.748 8.211,2.576 7.517 C 2.355 6.627,2.476 5.456,2.871 4.681 C 3.043 4.343,3.179 4.153,3.425 3.903 C 4.067 3.255,4.902 3.015,5.909 3.188 " stroke="none" fill-rule="evenodd" fill="black"></path></svg>