<svg width="16" height="16" viewBox="0 0 16 16" fill="none" xmlns="http://www.w3.org/2000/svg">
<path fill-rule="evenodd" clip-rule="evenodd" d="M2.94999 3.04334C2.94999 2.99179 2.99179 2.94999 3.04334 2.94999H10.6736V5.91344H3.04334C2.99178 5.91344 2.94999 5.87165 2.94999 5.82009V3.04334ZM12.0736 5.91344V2.94999H12.9603C13.0118 2.94999 13.0536 2.99178 13.0536 3.04334V5.82009C13.0536 5.87165 13.0118 5.91344 12.9603 5.91344H12.0736ZM3.04334 1.54999C2.21859 1.54999 1.54999 2.21859 1.54999 3.04334V5.82009C1.54999 6.64484 2.21858 7.31344 3.04334 7.31344H12.9603C13.7851 7.31344 14.4536 6.64483 14.4536 5.82009V3.04334C14.4536 2.2186 13.7851 1.54999 12.9603 1.54999H3.04334ZM2.94999 10.1836C2.94999 10.132 2.99178 10.0902 3.04334 10.0902H10.6736V13.0537H3.04334C2.99178 13.0537 2.94999 13.0119 2.94999 12.9603V10.1836ZM12.0736 13.0537H12.9603C13.0119 13.0537 13.0536 13.0119 13.0536 12.9603V10.1836C13.0536 10.132 13.0119 10.0902 12.9603 10.0902H12.0736V13.0537ZM3.04334 8.6902C2.2186 8.6902 1.54999 9.35877 1.54999 10.1836V12.9603C1.54999 13.7851 2.21859 14.4537 3.04334 14.4537H12.9603C13.7851 14.4537 14.4536 13.7851 14.4536 12.9603V10.1836C14.4536 9.35878 13.7851 8.6902 12.9603 8.6902H3.04334Z" fill="black"/>
</svg>
