<svg width="16" height="16" viewBox="0 0 16 16" fill="none" xmlns="http://www.w3.org/2000/svg"><path d="M3.093 2.018 C 2.178 2.172,1.445 2.846,1.194 3.764 L 1.133 3.987 1.133 8.000 L 1.133 12.013 1.194 12.236 C 1.310 12.658,1.484 12.969,1.784 13.288 C 2.087 13.609,2.481 13.833,2.954 13.954 L 3.187 14.013 8.013 14.013 L 12.840 14.013 13.098 13.942 C 13.976 13.699,14.566 13.097,14.819 12.187 C 14.864 12.023,14.867 11.784,14.867 8.000 C 14.867 3.598,14.878 3.935,14.717 3.493 C 14.457 2.782,13.771 2.199,13.008 2.042 C 12.824 2.005,12.285 2.000,7.981 2.004 C 5.330 2.006,3.130 2.012,3.093 2.018 M13.010 3.355 C 13.323 3.519,13.538 3.801,13.600 4.130 C 13.614 4.209,13.627 4.626,13.627 5.057 L 13.627 5.840 8.000 5.840 L 2.373 5.840 2.373 5.032 C 2.373 4.134,2.389 4.019,2.541 3.764 C 2.669 3.549,2.921 3.356,3.173 3.278 C 3.210 3.267,5.400 3.260,8.040 3.262 L 12.840 3.267 13.010 3.355 M13.621 9.527 L 13.613 11.907 13.554 12.053 C 13.427 12.363,13.168 12.609,12.861 12.709 C 12.712 12.758,12.553 12.760,8.000 12.760 C 3.447 12.760,3.288 12.758,3.139 12.709 C 2.832 12.609,2.573 12.363,2.446 12.053 L 2.387 11.907 2.379 9.527 L 2.372 7.147 8.000 7.147 L 13.628 7.147 13.621 9.527 M4.225 9.304 C 3.963 9.349,3.757 9.552,3.701 9.821 C 3.641 10.105,3.793 10.396,4.066 10.524 L 4.200 10.586 5.413 10.586 C 6.577 10.586,6.632 10.583,6.747 10.531 C 7.250 10.304,7.277 9.639,6.795 9.372 L 6.653 9.293 5.493 9.289 C 4.855 9.287,4.285 9.293,4.225 9.304 M11.098 9.307 C 10.723 9.386,10.509 9.758,10.616 10.144 C 10.632 10.201,10.697 10.304,10.764 10.375 C 10.930 10.552,11.045 10.587,11.465 10.586 C 11.761 10.586,11.816 10.579,11.935 10.523 C 12.338 10.336,12.437 9.801,12.126 9.490 C 11.975 9.339,11.862 9.302,11.522 9.292 C 11.352 9.286,11.162 9.293,11.098 9.307 " stroke="none" fill-rule="evenodd"></path></svg>