<svg width="16" height="16" viewBox="0 0 16 16" fill="none" xmlns="http://www.w3.org/2000/svg"><path d="M4.297 0.562 C 3.938 0.609,3.541 0.891,3.362 1.227 C 3.191 1.547,3.201 1.136,3.201 8.000 C 3.201 14.864,3.191 14.453,3.362 14.773 C 3.464 14.965,3.725 15.221,3.917 15.319 C 4.215 15.470,4.105 15.466,8.000 15.466 C 11.895 15.466,11.785 15.470,12.083 15.319 C 12.275 15.221,12.536 14.965,12.638 14.773 C 12.809 14.453,12.799 14.864,12.799 8.000 C 12.799 1.136,12.809 1.547,12.638 1.227 C 12.527 1.018,12.262 0.767,12.047 0.666 C 11.946 0.619,11.797 0.576,11.679 0.561 C 11.435 0.529,4.542 0.530,4.297 0.562 M11.533 8.000 L 11.533 14.200 8.000 14.200 L 4.467 14.200 4.460 8.027 C 4.456 4.631,4.459 1.838,4.466 1.820 C 4.476 1.793,5.198 1.788,8.006 1.793 L 11.533 1.800 11.533 8.000 M6.251 12.264 C 5.722 12.504,5.770 13.261,6.324 13.426 C 6.531 13.487,9.469 13.487,9.676 13.426 C 10.230 13.261,10.278 12.504,9.749 12.264 C 9.647 12.218,9.540 12.215,8.000 12.215 C 6.460 12.215,6.353 12.218,6.251 12.264 " stroke="none" fill-rule="evenodd" fill="black"></path></svg>