<svg width="16" height="16" viewBox="0 0 16 16" fill="none" xmlns="http://www.w3.org/2000/svg">
<path fill-rule="evenodd" clip-rule="evenodd" d="M2.44405 3.65653C2.47714 3.68977 2.52969 3.73553 2.61203 3.79281C2.86112 3.96609 3.2615 4.15479 3.80442 4.32814C4.88211 4.67225 6.38521 4.91305 8.00432 4.91305C9.62344 4.91305 11.1265 4.67225 12.2042 4.32814C12.7471 4.15479 13.1475 3.96609 13.3966 3.79281C13.479 3.73553 13.5315 3.68977 13.5646 3.65653C13.5315 3.62328 13.479 3.57752 13.3966 3.52025C13.1475 3.34697 12.7471 3.15827 12.2042 2.98491C11.1265 2.64081 9.62344 2.40001 8.00432 2.40001C6.38521 2.40001 4.88211 2.64081 3.80442 2.98491C3.2615 3.15827 2.86112 3.34697 2.61203 3.52025C2.52969 3.57752 2.47714 3.62328 2.44405 3.65653ZM3.37858 1.65125C4.61263 1.25722 6.2617 1.00001 8.00432 1.00001C9.74694 1.00001 11.396 1.25722 12.6301 1.65125C13.243 1.84696 13.7884 2.08736 14.1961 2.37098C14.5656 2.62802 15.0087 3.05303 15.0087 3.65653V8.00435V12.3522C15.0087 12.9557 14.5656 13.3807 14.1961 13.6377C13.7884 13.9213 13.243 14.1617 12.6301 14.3575C11.396 14.7515 9.74694 15.0087 8.00432 15.0087C6.2617 15.0087 4.61263 14.7515 3.37858 14.3575C2.76563 14.1617 2.22024 13.9213 1.81254 13.6377C1.44305 13.3807 0.999976 12.9557 0.999976 12.3522V8.00435V3.65653C0.999976 3.05303 1.44305 2.62802 1.81254 2.37098C2.22024 2.08736 2.76563 1.84696 3.37858 1.65125ZM2.39998 5.27938V7.95374C2.41877 7.97991 2.47287 8.04383 2.61203 8.14063C2.86112 8.31391 3.2615 8.50261 3.80442 8.67597C4.88211 9.02007 6.38521 9.26088 8.00432 9.26088C9.62344 9.26088 11.1265 9.02007 12.2042 8.67597C12.7471 8.50261 13.1475 8.31392 13.3966 8.14063C13.5358 8.04383 13.5899 7.97991 13.6087 7.95374V5.27938C13.3138 5.4215 12.9832 5.54906 12.6301 5.66181C11.396 6.05584 9.74694 6.31305 8.00432 6.31305C6.2617 6.31305 4.61263 6.05584 3.37858 5.66181C3.02549 5.54906 2.69482 5.4215 2.39998 5.27938ZM13.6087 9.62721C13.3138 9.76932 12.9832 9.89689 12.6301 10.0096C11.396 10.4037 9.74694 10.6609 8.00432 10.6609C6.2617 10.6609 4.61263 10.4037 3.37858 10.0096C3.02549 9.89689 2.69482 9.76932 2.39998 9.62721V12.3016C2.41877 12.3277 2.47287 12.3917 2.61203 12.4885C2.86112 12.6617 3.2615 12.8504 3.80442 13.0238C4.88211 13.3679 6.38521 13.6087 8.00432 13.6087C9.62344 13.6087 11.1265 13.3679 12.2042 13.0238C12.7471 12.8504 13.1475 12.6617 13.3966 12.4885C13.5358 12.3917 13.5899 12.3277 13.6087 12.3016V9.62721Z" fill="black"/>
</svg>
