<svg width="16" height="16" viewBox="0 0 16 16" fill="none" xmlns="http://www.w3.org/2000/svg">
<g clip-path="url(#clip0_1607_34)">
<mask id="path-1-outside-1_1607_34" maskUnits="userSpaceOnUse" x="0" y="0" width="17" height="15" fill="black">
<rect fill="white" width="17" height="15"/>
<path fill-rule="evenodd" clip-rule="evenodd" d="M5.14 4.45C5.14 2.54846 6.68846 1 8.59 1C10.4915 1 12.04 2.54846 12.04 4.45C12.04 4.80309 11.9888 5.14135 11.8891 5.46344L11.2314 5.25859C11.3109 5.00119 11.35 4.73436 11.35 4.45C11.35 2.92176 10.1182 1.69 8.59 1.69C7.06176 1.69 5.83 2.92176 5.83 4.45C5.83 5.46479 6.3758 6.35289 7.18844 6.83266L7.49031 7.00516L7.30703 7.30703L5.43109 10.3905C5.50926 10.4713 5.58877 10.5603 5.64672 10.66C5.83135 10.9794 5.88256 11.35 5.78687 11.7058C5.69119 12.0616 5.45939 12.3621 5.14 12.5467C4.92303 12.6721 4.68449 12.73 4.45 12.73C3.97293 12.73 3.50799 12.482 3.25328 12.04C2.87324 11.381 3.101 10.5347 3.76 10.1533C4.07939 9.97 4.45 9.91744 4.80578 10.0131C4.80786 10.0137 4.80993 10.0142 4.812 10.0148C4.81656 10.0159 4.8211 10.017 4.82558 10.018C4.8286 10.0187 4.83158 10.0194 4.83453 10.0201C4.83945 10.0213 4.84426 10.0225 4.84891 10.0239L6.55234 7.21C5.70332 6.58064 5.14 5.58473 5.14 4.45ZM7.21 4.45C7.21 3.68857 7.82857 3.07 8.59 3.07C9.35143 3.07 9.97 3.68857 9.97 4.45C9.97 4.84756 9.7975 5.20064 9.52797 5.45266L11.0481 8.20188C11.4632 8.02533 11.9066 7.9 12.385 7.9C14.2865 7.9 15.835 9.44846 15.835 11.35C15.835 13.2515 14.2865 14.8 12.385 14.8C11.4578 14.8 10.6115 14.4267 9.99156 13.8297L10.4659 13.3337C10.9632 13.8122 11.6397 14.11 12.385 14.11C13.9132 14.11 15.145 12.8782 15.145 11.35C15.145 9.82176 13.9132 8.59 12.385 8.59C11.9012 8.59 11.4538 8.71668 11.0589 8.935L10.7462 9.09672L10.5845 8.79484L8.92422 5.78687C8.81775 5.81383 8.70455 5.83 8.59 5.83C7.82857 5.83 7.21 5.21143 7.21 4.45ZM1 11.35C1 9.73686 2.10643 8.37168 3.60906 7.99703L3.78156 8.67625C2.58215 8.97543 1.69 10.0536 1.69 11.35C1.69 12.8782 2.92176 14.11 4.45 14.11C5.97824 14.11 7.21 12.8782 7.21 11.35V11.005H11.0589C11.2125 10.4107 11.7435 9.97 12.385 9.97C13.1464 9.97 13.765 10.5886 13.765 11.35C13.765 12.1114 13.1464 12.73 12.385 12.73C11.7435 12.73 11.2125 12.2893 11.0589 11.695H7.83531C7.65338 13.4267 6.22891 14.8 4.45 14.8C2.54846 14.8 1 13.2515 1 11.35Z"/>
</mask>
<path fill-rule="evenodd" clip-rule="evenodd" d="M5.14 4.45C5.14 2.54846 6.68846 1 8.59 1C10.4915 1 12.04 2.54846 12.04 4.45C12.04 4.80309 11.9888 5.14135 11.8891 5.46344L11.2314 5.25859C11.3109 5.00119 11.35 4.73436 11.35 4.45C11.35 2.92176 10.1182 1.69 8.59 1.69C7.06176 1.69 5.83 2.92176 5.83 4.45C5.83 5.46479 6.3758 6.35289 7.18844 6.83266L7.49031 7.00516L7.30703 7.30703L5.43109 10.3905C5.50926 10.4713 5.58877 10.5603 5.64672 10.66C5.83135 10.9794 5.88256 11.35 5.78687 11.7058C5.69119 12.0616 5.45939 12.3621 5.14 12.5467C4.92303 12.6721 4.68449 12.73 4.45 12.73C3.97293 12.73 3.50799 12.482 3.25328 12.04C2.87324 11.381 3.101 10.5347 3.76 10.1533C4.07939 9.97 4.45 9.91744 4.80578 10.0131C4.80786 10.0137 4.80993 10.0142 4.812 10.0148C4.81656 10.0159 4.8211 10.017 4.82558 10.018C4.8286 10.0187 4.83158 10.0194 4.83453 10.0201C4.83945 10.0213 4.84426 10.0225 4.84891 10.0239L6.55234 7.21C5.70332 6.58064 5.14 5.58473 5.14 4.45ZM7.21 4.45C7.21 3.68857 7.82857 3.07 8.59 3.07C9.35143 3.07 9.97 3.68857 9.97 4.45C9.97 4.84756 9.7975 5.20064 9.52797 5.45266L11.0481 8.20188C11.4632 8.02533 11.9066 7.9 12.385 7.9C14.2865 7.9 15.835 9.44846 15.835 11.35C15.835 13.2515 14.2865 14.8 12.385 14.8C11.4578 14.8 10.6115 14.4267 9.99156 13.8297L10.4659 13.3337C10.9632 13.8122 11.6397 14.11 12.385 14.11C13.9132 14.11 15.145 12.8782 15.145 11.35C15.145 9.82176 13.9132 8.59 12.385 8.59C11.9012 8.59 11.4538 8.71668 11.0589 8.935L10.7462 9.09672L10.5845 8.79484L8.92422 5.78687C8.81775 5.81383 8.70455 5.83 8.59 5.83C7.82857 5.83 7.21 5.21143 7.21 4.45ZM1 11.35C1 9.73686 2.10643 8.37168 3.60906 7.99703L3.78156 8.67625C2.58215 8.97543 1.69 10.0536 1.69 11.35C1.69 12.8782 2.92176 14.11 4.45 14.11C5.97824 14.11 7.21 12.8782 7.21 11.35V11.005H11.0589C11.2125 10.4107 11.7435 9.97 12.385 9.97C13.1464 9.97 13.765 10.5886 13.765 11.35C13.765 12.1114 13.1464 12.73 12.385 12.73C11.7435 12.73 11.2125 12.2893 11.0589 11.695H7.83531C7.65338 13.4267 6.22891 14.8 4.45 14.8C2.54846 14.8 1 13.2515 1 11.35Z" fill="black"/>
<path d="M11.8891 5.46344L11.8296 5.65439L12.0209 5.71397L12.0801 5.52259L11.8891 5.46344ZM11.2314 5.25859L11.0403 5.19957L10.9814 5.39021L11.1719 5.44955L11.2314 5.25859ZM7.18844 6.83266L7.08675 7.0049L7.08921 7.00631L7.18844 6.83266ZM7.49031 7.00516L7.66127 7.10895L7.76785 6.9334L7.58954 6.83151L7.49031 7.00516ZM7.30703 7.30703L7.47789 7.41098L7.47799 7.41083L7.30703 7.30703ZM5.43109 10.3905L5.26023 10.2865L5.17997 10.4184L5.2873 10.5295L5.43109 10.3905ZM5.64672 10.66L5.81987 10.5599L5.81964 10.5595L5.64672 10.66ZM5.78687 11.7058L5.98001 11.7577V11.7577L5.78687 11.7058ZM5.14 12.5467L5.24004 12.7199L5.24009 12.7199L5.14 12.5467ZM3.25328 12.04L3.42657 11.9401L3.42654 11.9401L3.25328 12.04ZM3.76 10.1533L3.66046 9.97981L3.65982 9.98018L3.76 10.1533ZM4.80578 10.0131L4.85836 9.82016L4.85772 9.81999L4.80578 10.0131ZM4.812 10.0148L4.76325 10.2087L4.76326 10.2087L4.812 10.0148ZM4.82558 10.018L4.87079 9.82317L4.87076 9.82316L4.82558 10.018ZM4.83453 10.0201L4.88139 9.82566L4.88138 9.82566L4.83453 10.0201ZM4.84891 10.0239L4.79142 10.2155L4.93978 10.26L5.02 10.1275L4.84891 10.0239ZM6.55234 7.21L6.72344 7.31357L6.81775 7.15778L6.67144 7.04933L6.55234 7.21ZM9.52797 5.45266L9.39137 5.30657L9.27752 5.41302L9.35294 5.54944L9.52797 5.45266ZM11.0481 8.20188L10.8731 8.29865L10.9604 8.45653L11.1264 8.38592L11.0481 8.20188ZM9.99156 13.8297L9.84703 13.6914L9.70926 13.8355L9.85283 13.9737L9.99156 13.8297ZM10.4659 13.3337L10.6046 13.1896L10.4601 13.0506L10.3214 13.1955L10.4659 13.3337ZM11.0589 8.935L11.1508 9.11271L11.1557 9.11003L11.0589 8.935ZM10.7462 9.09672L10.57 9.19116L10.663 9.36493L10.8381 9.27436L10.7462 9.09672ZM10.5845 8.79484L10.7608 8.70039L10.7596 8.69819L10.5845 8.79484ZM8.92422 5.78687L9.09932 5.69023L9.02474 5.55512L8.87513 5.59299L8.92422 5.78687ZM3.60906 7.99703L3.80291 7.9478L3.75389 7.7548L3.56068 7.80297L3.60906 7.99703ZM3.78156 8.67625L3.82997 8.8703L4.02485 8.82169L3.97541 8.62702L3.78156 8.67625ZM7.21 11.005V10.805H7.01V11.005H7.21ZM11.0589 11.005V11.205H11.2138L11.2525 11.0551L11.0589 11.005ZM11.0589 11.695L11.2525 11.6449L11.2138 11.495H11.0589V11.695ZM7.83531 11.695V11.495H7.65522L7.63641 11.6741L7.83531 11.695ZM8.59 0.8C6.578 0.8 4.94 2.438 4.94 4.45H5.34C5.34 2.65891 6.79891 1.2 8.59 1.2V0.8ZM12.24 4.45C12.24 2.438 10.602 0.8 8.59 0.8V1.2C10.3811 1.2 11.84 2.65891 11.84 4.45H12.24ZM12.0801 5.52259C12.1859 5.18091 12.24 4.82269 12.24 4.45H11.84C11.84 4.78349 11.7917 5.10178 11.698 5.40428L12.0801 5.52259ZM11.1719 5.44955L11.8296 5.65439L11.9485 5.27249L11.2909 5.06764L11.1719 5.44955ZM11.15 4.45C11.15 4.7155 11.1136 4.96236 11.0403 5.19957L11.4225 5.31762C11.5082 5.04003 11.55 4.75321 11.55 4.45H11.15ZM8.59 1.89C10.0078 1.89 11.15 3.03221 11.15 4.45H11.55C11.55 2.8113 10.2287 1.49 8.59 1.49V1.89ZM6.03 4.45C6.03 3.03221 7.17221 1.89 8.59 1.89V1.49C6.9513 1.49 5.63 2.8113 5.63 4.45H6.03ZM7.29012 6.66043C6.53615 6.2153 6.03 5.39144 6.03 4.45H5.63C5.63 5.53813 6.21545 6.49048 7.08676 7.00488L7.29012 6.66043ZM7.58954 6.83151L7.28766 6.65901L7.08921 7.00631L7.39108 7.1788L7.58954 6.83151ZM7.47799 7.41083L7.66127 7.10895L7.31935 6.90136L7.13607 7.20324L7.47799 7.41083ZM5.60196 10.4944L7.47789 7.41098L7.13617 7.20308L5.26023 10.2865L5.60196 10.4944ZM5.81964 10.5595C5.74894 10.4378 5.65525 10.3346 5.57489 10.2515L5.2873 10.5295C5.36327 10.6081 5.42859 10.6827 5.47379 10.7605L5.81964 10.5595ZM5.98001 11.7577C6.08977 11.3496 6.03057 10.9244 5.81987 10.5599L5.47357 10.7601C5.63212 11.0344 5.67535 11.3504 5.59374 11.6538L5.98001 11.7577ZM5.24009 12.7199C5.60499 12.5089 5.87048 12.165 5.98001 11.7577L5.59374 11.6538C5.5119 11.9581 5.3138 12.2152 5.03991 12.3736L5.24009 12.7199ZM4.45 12.93C4.71745 12.93 4.99083 12.8639 5.24004 12.7199L5.03996 12.3735C4.85522 12.4802 4.65154 12.53 4.45 12.53V12.93ZM3.07999 12.1399C3.37195 12.6465 3.90456 12.93 4.45 12.93V12.53C4.04129 12.53 3.64403 12.3175 3.42657 11.9401L3.07999 12.1399ZM3.65982 9.98018C2.90565 10.4166 2.64468 11.385 3.08003 12.1399L3.42654 11.9401C3.10181 11.377 3.29635 10.6527 3.86018 10.3264L3.65982 9.98018ZM4.85772 9.81999C4.44914 9.7101 4.02421 9.77108 3.66046 9.97981L3.85954 10.3267C4.13457 10.1689 4.45086 10.1248 4.75384 10.2063L4.85772 9.81999ZM4.86075 9.82078C4.85974 9.82053 4.85896 9.82032 4.85836 9.82016L4.7532 10.2061C4.75675 10.2071 4.76012 10.2079 4.76325 10.2087L4.86075 9.82078ZM4.87076 9.82316C4.86604 9.82207 4.86325 9.82141 4.86075 9.82078L4.76326 10.2087C4.76987 10.2104 4.77616 10.2118 4.78041 10.2128L4.87076 9.82316ZM4.88138 9.82566C4.87746 9.82471 4.87362 9.82382 4.87079 9.82317L4.78038 10.2128C4.78358 10.2136 4.78571 10.2141 4.78768 10.2145L4.88138 9.82566ZM4.90639 9.83235C4.89672 9.82944 4.88792 9.82723 4.88139 9.82566L4.78767 10.2145C4.79097 10.2153 4.79179 10.2156 4.79142 10.2155L4.90639 9.83235ZM6.38125 7.10643L4.67781 9.92033L5.02 10.1275L6.72344 7.31357L6.38125 7.10643ZM4.94 4.45C4.94 5.65329 5.53767 6.70681 6.43324 7.37067L6.67144 7.04933C5.86897 6.45448 5.34 5.51616 5.34 4.45H4.94ZM8.59 2.87C7.71812 2.87 7.01 3.57812 7.01 4.45H7.41C7.41 3.79903 7.93903 3.27 8.59 3.27V2.87ZM10.17 4.45C10.17 3.57812 9.46188 2.87 8.59 2.87V3.27C9.24097 3.27 9.77 3.79903 9.77 4.45H10.17ZM9.66456 5.59875C9.97106 5.31217 10.17 4.90752 10.17 4.45H9.77C9.77 4.78759 9.62394 5.08912 9.39137 5.30657L9.66456 5.59875ZM11.2231 8.1051L9.70299 5.35588L9.35294 5.54944L10.8731 8.29865L11.2231 8.1051ZM12.385 7.7C11.8711 7.7 11.4003 7.83474 10.9698 8.01783L11.1264 8.38592C11.5261 8.21593 11.9421 8.1 12.385 8.1V7.7ZM16.035 11.35C16.035 9.338 14.397 7.7 12.385 7.7V8.1C14.1761 8.1 15.635 9.55891 15.635 11.35H16.035ZM12.385 15C14.397 15 16.035 13.362 16.035 11.35H15.635C15.635 13.1411 14.1761 14.6 12.385 14.6V15ZM9.85283 13.9737C10.508 14.6047 11.4033 15 12.385 15V14.6C11.5123 14.6 10.715 14.2487 10.1303 13.6856L9.85283 13.9737ZM10.3214 13.1955L9.84703 13.6914L10.1361 13.9679L10.6105 13.472L10.3214 13.1955ZM12.385 13.91C11.6941 13.91 11.0666 13.6341 10.6046 13.1896L10.3273 13.4779C10.8599 13.9903 11.5854 14.31 12.385 14.31V13.91ZM14.945 11.35C14.945 12.7678 13.8028 13.91 12.385 13.91V14.31C14.0237 14.31 15.345 12.9887 15.345 11.35H14.945ZM12.385 8.79C13.8028 8.79 14.945 9.93221 14.945 11.35H15.345C15.345 9.7113 14.0237 8.39 12.385 8.39V8.79ZM11.1557 9.11003C11.5227 8.90709 11.9371 8.79 12.385 8.79V8.39C11.8653 8.39 11.3848 8.52627 10.9621 8.75997L11.1557 9.11003ZM10.8381 9.27436L11.1508 9.11264L10.967 8.75736L10.6544 8.91908L10.8381 9.27436ZM10.4082 8.88929L10.57 9.19116L10.9225 9.00227L10.7608 8.7004L10.4082 8.88929ZM8.74912 5.88352L10.4094 8.89149L10.7596 8.69819L9.09932 5.69023L8.74912 5.88352ZM8.59 6.03C8.72313 6.03 8.85288 6.01124 8.9733 5.98076L8.87513 5.59299C8.78262 5.61641 8.68597 5.63 8.59 5.63V6.03ZM7.01 4.45C7.01 5.32188 7.71812 6.03 8.59 6.03V5.63C7.93903 5.63 7.41 5.10097 7.41 4.45H7.01ZM3.56068 7.80297C1.97021 8.19952 0.8 9.64374 0.8 11.35H1.2C1.2 9.82997 2.24264 8.54384 3.65745 8.19109L3.56068 7.80297ZM3.97541 8.62702L3.80291 7.9478L3.41522 8.04626L3.58772 8.72548L3.97541 8.62702ZM1.89 11.35C1.89 10.1483 2.71677 9.14798 3.82997 8.8703L3.73316 8.4822C2.44752 8.80288 1.49 9.95882 1.49 11.35H1.89ZM4.45 13.91C3.03221 13.91 1.89 12.7678 1.89 11.35H1.49C1.49 12.9887 2.8113 14.31 4.45 14.31V13.91ZM7.01 11.35C7.01 12.7678 5.86778 13.91 4.45 13.91V14.31C6.0887 14.31 7.41 12.9887 7.41 11.35H7.01ZM7.01 11.005V11.35H7.41V11.005H7.01ZM11.0589 10.805H7.21V11.205H11.0589V10.805ZM12.385 9.77C11.6481 9.77 11.0407 10.2765 10.8653 10.9549L11.2525 11.0551C11.3844 10.5449 11.8389 10.17 12.385 10.17V9.77ZM13.965 11.35C13.965 10.4781 13.2569 9.77 12.385 9.77V10.17C13.036 10.17 13.565 10.699 13.565 11.35H13.965ZM12.385 12.93C13.2569 12.93 13.965 12.2219 13.965 11.35H13.565C13.565 12.001 13.036 12.53 12.385 12.53V12.93ZM10.8653 11.7451C11.0407 12.4235 11.6481 12.93 12.385 12.93V12.53C11.8389 12.53 11.3844 12.1551 11.2525 11.6449L10.8653 11.7451ZM7.83531 11.895H11.0589V11.495H7.83531V11.895ZM4.45 15C6.3372 15 7.84222 13.5434 8.03422 11.7159L7.63641 11.6741C7.46454 13.31 6.12062 14.6 4.45 14.6V15ZM0.8 11.35C0.8 13.362 2.438 15 4.45 15V14.6C2.65891 14.6 1.2 13.1411 1.2 11.35H0.8Z" fill="black" mask="url(#path-1-outside-1_1607_34)"/>
</g>
<defs>
<clipPath id="clip0_1607_34">
<rect width="16" height="16" fill="white"/>
</clipPath>
</defs>
</svg>
