<svg width="16" height="16" viewBox="0 0 16 16" fill="none" xmlns="http://www.w3.org/2000/svg"><path d="M7.137 0.482 C 7.097 0.514,6.980 0.709,6.866 0.934 L 6.665 1.330 6.261 1.538 C 5.819 1.766,5.748 1.830,5.748 2.000 C 5.748 2.168,5.820 2.235,6.221 2.441 C 6.422 2.544,6.613 2.655,6.646 2.687 C 6.679 2.720,6.790 2.911,6.893 3.112 C 7.098 3.513,7.165 3.585,7.333 3.585 C 7.503 3.585,7.567 3.515,7.795 3.073 L 8.003 2.670 8.407 2.461 C 8.848 2.234,8.919 2.170,8.919 2.000 C 8.919 1.830,8.848 1.766,8.406 1.538 L 8.002 1.330 7.801 0.934 C 7.687 0.709,7.570 0.514,7.530 0.482 C 7.434 0.406,7.233 0.406,7.137 0.482 M12.148 1.631 C 12.010 1.645,11.908 1.677,11.748 1.757 C 11.535 1.863,11.496 1.902,6.677 6.725 C 1.332 12.075,1.728 11.654,1.636 12.089 C 1.571 12.398,1.640 12.767,1.814 13.040 C 1.856 13.106,2.122 13.389,2.405 13.669 C 2.969 14.227,3.057 14.287,3.422 14.364 C 3.731 14.429,4.102 14.360,4.373 14.186 C 4.439 14.143,6.673 11.927,9.337 9.261 C 14.650 3.943,14.272 4.344,14.361 3.924 C 14.408 3.702,14.408 3.631,14.361 3.409 C 14.287 3.057,14.224 2.966,13.656 2.392 C 13.181 1.911,13.114 1.853,12.920 1.757 C 12.677 1.637,12.455 1.601,12.148 1.631 M12.700 3.300 C 12.887 3.486,13.040 3.651,13.040 3.666 C 13.040 3.681,12.695 4.038,12.274 4.460 L 11.507 5.226 11.140 4.860 L 10.773 4.494 11.540 3.727 C 11.961 3.305,12.318 2.960,12.333 2.960 C 12.347 2.960,12.512 3.113,12.700 3.300 M3.803 3.815 C 3.763 3.847,3.646 4.042,3.532 4.267 L 3.332 4.663 2.927 4.872 C 2.485 5.099,2.415 5.163,2.415 5.333 C 2.415 5.501,2.487 5.568,2.888 5.774 C 3.089 5.877,3.280 5.988,3.313 6.021 C 3.345 6.053,3.456 6.245,3.559 6.445 C 3.765 6.847,3.832 6.919,4.000 6.919 C 4.170 6.919,4.234 6.848,4.461 6.407 L 4.670 6.003 5.073 5.795 C 5.515 5.567,5.585 5.503,5.585 5.333 C 5.585 5.163,5.515 5.099,5.073 4.872 L 4.668 4.663 4.468 4.267 C 4.354 4.042,4.237 3.847,4.197 3.815 C 4.148 3.777,4.087 3.760,4.000 3.760 C 3.913 3.760,3.852 3.777,3.803 3.815 M7.127 9.606 C 5.238 11.495,3.682 13.040,3.667 13.040 C 3.632 13.040,2.960 12.369,2.960 12.334 C 2.960 12.319,4.505 10.762,6.393 8.874 L 9.826 5.440 10.193 5.807 L 10.560 6.173 7.127 9.606 M13.137 7.815 C 13.097 7.847,12.980 8.042,12.866 8.267 L 12.665 8.663 12.261 8.872 C 11.819 9.099,11.748 9.163,11.748 9.333 C 11.748 9.501,11.820 9.568,12.221 9.774 C 12.422 9.877,12.613 9.988,12.646 10.021 C 12.679 10.053,12.790 10.245,12.893 10.445 C 13.098 10.847,13.165 10.919,13.333 10.919 C 13.501 10.919,13.568 10.847,13.774 10.445 C 13.877 10.245,13.988 10.053,14.021 10.021 C 14.053 9.988,14.245 9.877,14.445 9.774 C 14.847 9.568,14.919 9.501,14.919 9.333 C 14.919 9.163,14.848 9.099,14.406 8.872 L 14.002 8.663 13.801 8.267 C 13.687 8.042,13.570 7.847,13.530 7.815 C 13.481 7.777,13.421 7.760,13.333 7.760 C 13.246 7.760,13.186 7.777,13.137 7.815 " stroke="none" fill-rule="evenodd"></path></svg>