<svg width="16" height="16" viewBox="0 0 16 16" fill="none" xmlns="http://www.w3.org/2000/svg">
<path fill-rule="evenodd" clip-rule="evenodd" d="M7.99616 1.0498C4.50693 1.0498 2.76953 3.82502 2.76953 6.27643C2.76953 8.21978 3.5152 9.3518 4.24849 10.1462C4.41577 10.3274 4.58207 10.4909 4.72659 10.633L4.7266 10.633L4.74695 10.653C4.90172 10.8052 5.02455 10.9271 5.12601 11.0426C5.33161 11.2768 5.35618 11.3834 5.35618 11.4497V13.3901C5.35618 14.2534 6.05605 14.9519 6.91839 14.9519H9.07393C9.93628 14.9519 10.6361 14.2534 10.6361 13.3901V11.4497C10.6361 11.3834 10.6607 11.2768 10.8663 11.0426C10.9678 10.9271 11.0906 10.8052 11.2454 10.653L11.2657 10.633L11.2657 10.633C11.4103 10.4909 11.5766 10.3274 11.7438 10.1462C12.4771 9.3518 13.2228 8.21978 13.2228 6.27643C13.2228 3.82502 11.4854 1.0498 7.99616 1.0498ZM4.16953 6.27643C4.16953 4.41677 5.44988 2.4498 7.99616 2.4498C10.5424 2.4498 11.8228 4.41677 11.8228 6.27643C11.8228 7.78195 11.2751 8.58991 10.7151 9.19661C10.5714 9.35229 10.4267 9.49459 10.2776 9.64118L10.2776 9.6412L10.2638 9.65476C10.1154 9.80064 9.95534 9.95829 9.8143 10.1189C9.54354 10.4273 9.25459 10.8428 9.23699 11.3964H6.75533C6.73774 10.8428 6.44878 10.4273 6.17802 10.1189C6.03698 9.95829 5.8769 9.80064 5.72854 9.65476L5.71477 9.64121C5.56566 9.49461 5.42093 9.3523 5.27722 9.19661C4.71719 8.58991 4.16953 7.78195 4.16953 6.27643ZM6.75618 12.7964V13.3901C6.75618 13.4793 6.82833 13.5519 6.91839 13.5519H9.07393C9.16399 13.5519 9.23615 13.4793 9.23615 13.3901V12.7964H6.75618Z" fill="black"/>
</svg>
