<svg width="16" height="16" viewBox="0 0 16 16" fill="none" xmlns="http://www.w3.org/2000/svg">
<g clip-path="url(#clip0_154_45)">
<path fill-rule="evenodd" clip-rule="evenodd" d="M6.725 1.65001C6.725 1.26341 6.4116 0.950012 6.025 0.950012C5.6384 0.950012 5.325 1.26341 5.325 1.65001V3.57501H2.525C2.1384 3.57501 1.825 3.88841 1.825 4.27501V12.0233C1.29003 12.4727 0.949997 13.1466 0.949997 13.9V14.3375C0.949997 14.7241 1.2634 15.0375 1.65 15.0375H14.3375C14.7241 15.0375 15.0375 14.7241 15.0375 14.3375V13.9C15.0375 13.1466 14.6975 12.4727 14.1625 12.0233V4.27501C14.1625 3.88841 13.8491 3.57501 13.4625 3.57501H10.6625V1.65001C10.6625 1.26341 10.3491 0.950012 9.9625 0.950012C9.5759 0.950012 9.2625 1.26341 9.2625 1.65001V3.57501H6.725V1.65001ZM12.7625 8.79296V11.4562C12.7047 11.4521 12.6463 11.45 12.5875 11.45H3.4C3.34116 11.45 3.2828 11.4521 3.225 11.4562V9.08026C3.51486 9.15018 3.88133 9.2237 4.30282 9.2763C5.35683 9.40783 6.79318 9.41321 8.24067 8.86753C9.40451 8.42879 10.5932 8.42341 11.5113 8.53799C11.9672 8.59487 12.3469 8.68017 12.6102 8.75043C12.6666 8.76548 12.7175 8.7798 12.7625 8.79296ZM12.7625 7.3448V4.97501H3.225V7.6321C3.27002 7.64526 3.32093 7.65958 3.37734 7.67463C3.64059 7.74489 4.02032 7.83019 4.47618 7.88707C5.39434 8.00165 6.58298 7.99627 7.74682 7.55753C9.19431 7.01186 10.6307 7.01723 11.6847 7.14876C12.1062 7.20136 12.4726 7.27488 12.7625 7.3448ZM2.38308 13.6375H13.6044C13.4879 13.1846 13.0768 12.85 12.5875 12.85H3.4C2.91074 12.85 2.49964 13.1846 2.38308 13.6375Z" fill="black"/>
</g>
<defs>
<clipPath id="clip0_154_45">
<rect width="16" height="16" fill="white"/>
</clipPath>
</defs>
</svg>
