<svg width="16" height="16" viewBox="0 0 16 16" fill="none" xmlns="http://www.w3.org/2000/svg">
<path fill-rule="evenodd" clip-rule="evenodd" d="M8.00438 1.05001C8.36336 1.05001 8.65438 1.34102 8.65438 1.70001V1.95388C11.4957 2.25561 13.7531 4.51301 14.0548 7.35435H14.3087C14.6677 7.35435 14.9587 7.64537 14.9587 8.00435C14.9587 8.36334 14.6677 8.65435 14.3087 8.65435H14.0548C13.7531 11.4957 11.4957 13.7531 8.65438 14.0548V14.3087C8.65438 14.6677 8.36336 14.9587 8.00438 14.9587C7.64539 14.9587 7.35438 14.6677 7.35438 14.3087V14.0548C4.51303 13.7531 2.25564 11.4957 1.9539 8.65435H1.69998C1.34099 8.65435 1.04998 8.36334 1.04998 8.00435C1.04998 7.64537 1.34099 7.35435 1.69998 7.35435H1.9539C2.25564 4.51301 4.51303 2.25561 7.35438 1.95388V1.70001C7.35438 1.34102 7.64539 1.05001 8.00438 1.05001ZM3.26337 8.65435H5.61302C5.972 8.65435 6.26302 8.36334 6.26302 8.00435C6.26302 7.64537 5.972 7.35435 5.61302 7.35435L3.26337 7.35435C3.55166 5.2318 5.23182 3.55163 7.35438 3.26335V5.61305C7.35438 5.97203 7.64539 6.26305 8.00438 6.26305C8.36336 6.26305 8.65438 5.97203 8.65438 5.61305V3.26335C10.7769 3.55163 12.4571 5.2318 12.7454 7.35435L10.3956 7.35435C10.0366 7.35435 9.74563 7.64537 9.74563 8.00435C9.74563 8.36334 10.0366 8.65435 10.3956 8.65435H12.7454C12.4571 10.7769 10.7769 12.4571 8.65438 12.7454V10.3957C8.65438 10.0367 8.36336 9.74566 8.00438 9.74566C7.64539 9.74566 7.35438 10.0367 7.35438 10.3957V12.7454C5.23182 12.4571 3.55166 10.7769 3.26337 8.65435Z" fill="black"/>
</svg>
