<svg width="16" height="16" viewBox="0 0 16 16" fill="none" xmlns="http://www.w3.org/2000/svg"><path d="M7.869 3.897 C 7.624 3.942,7.437 4.136,7.387 4.398 C 7.371 4.483,7.360 5.111,7.360 5.964 L 7.360 7.387 5.851 7.387 C 4.480 7.387,4.333 7.391,4.245 7.432 C 3.979 7.558,3.831 7.851,3.892 8.125 C 3.933 8.310,4.059 8.472,4.226 8.559 L 4.358 8.627 5.858 8.635 L 7.358 8.642 7.365 10.142 L 7.373 11.642 7.441 11.774 C 7.580 12.043,7.883 12.179,8.162 12.097 C 8.345 12.044,8.484 11.929,8.564 11.767 L 8.627 11.640 8.635 10.141 L 8.642 8.642 10.142 8.635 L 11.642 8.627 11.774 8.559 C 12.148 8.366,12.239 7.865,11.951 7.578 C 11.751 7.378,11.836 7.387,10.151 7.387 L 8.642 7.387 8.635 5.873 L 8.627 4.360 8.565 4.234 C 8.435 3.971,8.168 3.842,7.869 3.897 " stroke="none" fill-rule="evenodd" fill="black"></path></svg>