<svg width="16" height="16" viewBox="0 0 16 16" fill="none" xmlns="http://www.w3.org/2000/svg">
<path fill-rule="evenodd" clip-rule="evenodd" d="M8.51226 2.22368C8.37981 2.08105 8.19395 2 7.9993 2C7.80465 2 7.61879 2.08105 7.48635 2.22368L5.11079 4.78198C4.84773 5.06527 4.86413 5.50818 5.14743 5.77125C5.43073 6.03431 5.87364 6.0179 6.1367 5.73461L7.29929 4.48259V9.64393C7.29929 10.0305 7.61269 10.3439 7.99929 10.3439C8.38589 10.3439 8.69929 10.0305 8.69929 9.64393V4.48256L9.8619 5.73461C10.125 6.0179 10.5679 6.03431 10.8512 5.77125C11.1345 5.50818 11.1509 5.06527 10.8878 4.78198L8.51226 2.22368ZM2.7 9.30936C3.0866 9.30936 3.4 9.62276 3.4 10.0094V11.1058C3.4 11.9303 4.06835 12.5986 4.89282 12.5986H11.1058C11.9303 12.5986 12.5986 11.9303 12.5986 11.1058V10.0094C12.5986 9.62276 12.912 9.30936 13.2986 9.30936C13.6852 9.30936 13.9986 9.62276 13.9986 10.0094V11.1058C13.9986 12.7035 12.7035 13.9986 11.1058 13.9986H4.89282C3.29517 13.9986 2 12.7035 2 11.1058V10.0094C2 9.62276 2.3134 9.30936 2.7 9.30936Z" fill="black"/>
</svg>
