<svg width="16" height="16" viewBox="0 0 16 16" fill="none" xmlns="http://www.w3.org/2000/svg"><path d="M2.297 2.562 C 1.938 2.609,1.541 2.891,1.362 3.227 C 1.194 3.543,1.201 3.331,1.201 8.000 C 1.201 12.620,1.196 12.449,1.348 12.749 C 1.446 12.942,1.702 13.202,1.894 13.305 C 2.213 13.475,1.868 13.466,8.000 13.466 C 14.132 13.466,13.787 13.475,14.106 13.305 C 14.298 13.202,14.554 12.942,14.652 12.749 C 14.804 12.449,14.799 12.620,14.799 8.000 C 14.799 3.331,14.806 3.543,14.638 3.227 C 14.527 3.018,14.262 2.767,14.047 2.666 C 13.946 2.619,13.797 2.576,13.679 2.561 C 13.434 2.529,2.543 2.530,2.297 2.562 M13.533 8.000 L 13.533 12.200 8.000 12.200 L 2.467 12.200 2.460 8.027 C 2.456 5.731,2.459 3.838,2.466 3.820 C 2.476 3.793,3.598 3.788,8.006 3.793 L 13.533 3.800 13.533 8.000 M4.251 6.931 C 3.833 7.120,3.749 7.667,4.091 7.968 C 4.250 8.107,4.394 8.133,5.000 8.133 C 5.606 8.133,5.750 8.107,5.909 7.968 C 6.251 7.667,6.167 7.120,5.749 6.931 C 5.653 6.887,5.566 6.881,5.000 6.881 C 4.434 6.881,4.347 6.887,4.251 6.931 M7.585 6.931 C 7.167 7.120,7.082 7.667,7.425 7.968 C 7.614 8.134,7.603 8.133,9.667 8.133 C 11.730 8.133,11.719 8.134,11.909 7.968 C 12.251 7.667,12.167 7.120,11.749 6.931 C 11.646 6.884,11.531 6.881,9.667 6.881 C 7.802 6.881,7.687 6.884,7.585 6.931 M4.251 9.597 C 3.760 9.821,3.753 10.478,4.240 10.737 C 4.328 10.784,4.425 10.787,6.000 10.787 C 7.657 10.787,7.667 10.786,7.773 10.729 C 8.248 10.473,8.234 9.818,7.749 9.597 C 7.647 9.551,7.540 9.548,6.000 9.548 C 4.460 9.548,4.353 9.551,4.251 9.597 M9.585 9.597 C 9.179 9.782,9.084 10.320,9.404 10.617 C 9.590 10.790,9.568 10.787,10.667 10.787 C 11.765 10.787,11.743 10.790,11.929 10.617 C 12.250 10.320,12.155 9.782,11.749 9.597 C 11.649 9.552,11.557 9.548,10.667 9.548 C 9.776 9.548,9.684 9.552,9.585 9.597 " stroke="none" fill-rule="evenodd" fill="black"></path></svg>