<svg width="16" height="16" viewBox="0 0 16 16" fill="none" xmlns="http://www.w3.org/2000/svg">
<g clip-path="url(#clip0_1447_49)">
<path d="M14.1668 7.99999V3.83332C14.1668 3.46514 13.8684 3.16666 13.5002 3.16666H2.50016C2.13198 3.16666 1.8335 3.46514 1.8335 3.83332V7.99999M14.1668 7.99999H1.8335M14.1668 7.99999V12.1667C14.1668 12.5349 13.8684 12.8333 13.5002 12.8333H2.50016C2.13198 12.8333 1.8335 12.5349 1.8335 12.1667V7.99999" stroke="black" stroke-width="1.5" stroke-linecap="square" stroke-linejoin="round"/>
<path d="M4.3335 6.08334C4.60964 6.08334 4.8335 5.85948 4.8335 5.58334C4.8335 5.3072 4.60964 5.08334 4.3335 5.08334C4.05736 5.08334 3.8335 5.3072 3.8335 5.58334C3.8335 5.85948 4.05736 6.08334 4.3335 6.08334ZM4.3335 10.9167C4.60964 10.9167 4.8335 10.6928 4.8335 10.4167C4.8335 10.1405 4.60964 9.91668 4.3335 9.91668C4.05736 9.91668 3.8335 10.1405 3.8335 10.4167C3.8335 10.6928 4.05736 10.9167 4.3335 10.9167Z" fill="black" stroke="black" stroke-width="0.333333"/>
</g>
<defs>
<clipPath id="clip0_1447_49">
<rect width="16" height="16" fill="white"/>
</clipPath>
</defs>
</svg>
