<svg width="16" height="16" viewBox="0 0 16 16" fill="none" xmlns="http://www.w3.org/2000/svg">
<path fill-rule="evenodd" clip-rule="evenodd" d="M5.07124 0.720001C3.66223 0.720001 2.52 1.86223 2.52 3.27124V12.7278C2.52 14.1368 3.66223 15.279 5.07124 15.279H10.9253C12.3343 15.279 13.4765 14.1368 13.4765 12.7278V3.27124C13.4765 1.86223 12.3343 0.720001 10.9253 0.720001H5.07124ZM4.02 3.27124C4.02 2.69066 4.49065 2.22 5.07124 2.22H10.9253C11.5059 2.22 11.9765 2.69066 11.9765 3.27124V12.7278C11.9765 13.3083 11.5059 13.779 10.9253 13.779H5.07124C4.49065 13.779 4.02 13.3083 4.02 12.7278V3.27124ZM7.77309 11.5275C7.35888 11.5275 7.02309 11.8632 7.02309 12.2775C7.02309 12.6917 7.35888 13.0275 7.77309 13.0275H8.2234C8.63762 13.0275 8.9734 12.6917 8.9734 12.2775C8.9734 11.8632 8.63762 11.5275 8.2234 11.5275H7.77309Z" fill="black"/>
</svg>
