<svg width="16" height="16" viewBox="0 0 16 16" fill="none" xmlns="http://www.w3.org/2000/svg"><path d="M2.982 0.933 C 1.916 1.157,1.145 1.938,0.922 3.019 C 0.885 3.202,0.880 3.739,0.880 8.000 C 0.880 12.261,0.885 12.798,0.922 12.981 C 1.139 14.034,1.833 14.760,2.907 15.058 C 3.071 15.104,3.336 15.107,8.000 15.107 C 13.405 15.107,12.969 15.119,13.413 14.957 C 14.118 14.700,14.697 14.118,14.959 13.407 C 15.118 12.972,15.107 13.399,15.107 8.000 C 15.107 2.601,15.118 3.028,14.959 2.593 C 14.643 1.735,13.920 1.119,13.009 0.933 C 12.758 0.881,12.628 0.880,7.982 0.882 C 3.468 0.884,3.201 0.886,2.982 0.933 M12.863 2.176 C 13.312 2.291,13.709 2.688,13.824 3.137 C 13.862 3.284,13.867 3.801,13.866 8.004 C 13.866 13.115,13.874 12.826,13.719 13.134 C 13.564 13.440,13.242 13.712,12.915 13.813 C 12.744 13.866,12.673 13.867,8.000 13.867 C 3.327 13.867,3.256 13.866,3.085 13.813 C 2.656 13.680,2.287 13.295,2.176 12.863 C 2.138 12.716,2.133 12.198,2.133 8.000 C 2.133 3.802,2.138 3.284,2.176 3.137 C 2.288 2.699,2.669 2.309,3.107 2.183 C 3.255 2.140,3.597 2.137,7.983 2.135 C 12.201 2.134,12.716 2.138,12.863 2.176 M4.676 4.320 C 4.429 4.371,4.213 4.541,4.087 4.782 C 4.024 4.900,4.014 4.952,4.014 5.147 C 4.013 5.414,4.075 5.570,4.253 5.747 C 4.426 5.921,4.587 5.987,4.840 5.987 C 5.093 5.987,5.283 5.911,5.450 5.744 C 5.697 5.497,5.768 5.100,5.619 4.796 C 5.535 4.624,5.353 4.444,5.191 4.373 C 5.054 4.313,4.823 4.289,4.676 4.320 M7.631 4.321 C 7.391 4.370,7.142 4.579,7.032 4.823 C 6.991 4.913,6.976 5.002,6.976 5.147 C 6.975 5.490,7.154 5.771,7.465 5.917 C 7.672 6.014,7.980 6.016,8.173 5.921 C 8.342 5.838,8.505 5.675,8.588 5.506 C 8.642 5.397,8.653 5.334,8.653 5.147 C 8.653 4.952,8.642 4.900,8.580 4.782 C 8.396 4.430,8.010 4.243,7.631 4.321 M4.333 6.858 C 4.168 6.919,4.043 7.026,3.966 7.173 C 3.898 7.303,3.890 7.342,3.898 7.508 C 3.906 7.667,3.922 7.721,4.000 7.850 C 4.259 8.279,4.792 8.665,5.360 8.836 C 6.020 9.034,6.878 8.991,7.473 8.730 C 7.948 8.522,8.394 8.133,8.569 7.774 C 8.851 7.199,8.274 6.625,7.695 6.906 C 7.610 6.947,7.533 7.018,7.443 7.137 C 7.291 7.338,7.193 7.419,6.973 7.520 C 6.762 7.618,6.559 7.657,6.267 7.657 C 5.975 7.657,5.772 7.618,5.560 7.520 C 5.340 7.419,5.242 7.338,5.091 7.137 C 4.999 7.016,4.924 6.947,4.834 6.904 C 4.690 6.834,4.455 6.813,4.333 6.858 M10.147 9.908 C 9.938 10.017,9.853 10.176,9.872 10.414 C 9.887 10.589,9.986 10.731,10.144 10.802 C 10.243 10.848,10.330 10.852,11.093 10.852 C 11.854 10.852,11.943 10.847,12.040 10.803 C 12.186 10.736,12.269 10.638,12.307 10.489 C 12.362 10.272,12.298 10.094,12.116 9.955 L 12.018 9.880 11.122 9.873 C 10.349 9.867,10.216 9.872,10.147 9.908 M8.480 11.569 C 8.430 11.597,8.352 11.664,8.307 11.719 C 8.235 11.807,8.227 11.838,8.227 11.998 C 8.227 12.222,8.308 12.364,8.487 12.450 C 8.602 12.506,8.626 12.507,10.268 12.506 C 11.830 12.506,11.940 12.502,12.040 12.456 C 12.187 12.388,12.268 12.292,12.308 12.137 C 12.373 11.888,12.249 11.635,12.018 11.548 C 11.968 11.529,11.384 11.520,10.258 11.520 C 8.667 11.520,8.567 11.523,8.480 11.569 " stroke="none" fill-rule="evenodd" fill="black"></path></svg>