<svg width="16" height="16" viewBox="0 0 16 16" fill="none" xmlns="http://www.w3.org/2000/svg"><path d="M8.893 4.798 C 8.807 4.848,8.313 5.324,7.489 6.151 C 6.013 7.633,6.067 7.564,6.067 8.000 C 6.067 8.436,6.013 8.367,7.489 9.848 C 8.188 10.548,8.806 11.154,8.863 11.193 C 8.984 11.277,9.241 11.306,9.401 11.253 C 9.532 11.210,9.703 11.053,9.764 10.920 C 9.823 10.789,9.827 10.565,9.772 10.432 C 9.744 10.365,9.364 9.966,8.566 9.167 L 7.400 8.000 8.566 6.833 C 9.364 6.034,9.744 5.635,9.772 5.568 C 9.828 5.433,9.823 5.211,9.763 5.080 C 9.610 4.751,9.202 4.619,8.893 4.798 " stroke="none" fill-rule="evenodd" fill="black"></path></svg>