<svg width="16" height="16" viewBox="0 0 16 16" fill="none" xmlns="http://www.w3.org/2000/svg">
<path d="M14.25 14.25V8.00006C14.25 5.76644 13.0375 3.65546 11.2353 2.61208M1.76051 10.3707V14.25" stroke="#2D2D2D" stroke-width="1.4" stroke-linecap="round" stroke-linejoin="round"/>
<path d="M1.7605 8.21552C1.54517 4.12069 4.67529 1.75 8.00525 1.75" stroke="#2D2D2D" stroke-width="1.4" stroke-linecap="round" stroke-linejoin="round"/>
<path d="M8.00526 5.19829C9.55129 5.19829 10.8046 6.27587 10.8046 8.21553" stroke="#2D2D2D" stroke-width="1.4" stroke-linecap="round" stroke-linejoin="round"/>
<path d="M10.8046 10.3707V11.6638" stroke="#2D2D2D" stroke-width="1.4" stroke-linecap="round" stroke-linejoin="round"/>
<path d="M5.20589 11.2328V12.5259C5.20589 13.6035 4.34455 14.25 4.34455 14.25" stroke="#2D2D2D" stroke-width="1.4" stroke-linecap="round" stroke-linejoin="round"/>
<path d="M7.78993 8.64656V11.6638C7.78993 13.1724 8.479 14.25 10.374 14.25" stroke="#2D2D2D" stroke-width="1.4" stroke-linecap="round" stroke-linejoin="round"/>
<path d="M5.52123 6.70692C5.31977 7.09382 5.20589 7.53356 5.20589 8.00003V9.07761" stroke="#2D2D2D" stroke-width="1.4" stroke-linecap="round" stroke-linejoin="round"/>
</svg>
