<svg width="16" height="16" viewBox="0 0 16 16" fill="none" xmlns="http://www.w3.org/2000/svg">
<path d="M13.25 9.75L15 11.5L13.25 13.25M13.25 2.75L15 4.5L13.25 6.25M1 11.5H4.10589C4.58601 11.5 5.05871 11.3815 5.48203 11.1549C5.90535 10.9284 6.2662 10.6008 6.53255 10.2014L8 8M1 4.5H4.10589C4.58601 4.50001 5.05871 4.61854 5.48203 4.84509C5.90535 5.07163 6.2662 5.39917 6.53255 5.79865L9.46745 10.2014C9.7338 10.6008 10.0946 10.9284 10.518 11.1549C10.9413 11.3815 11.414 11.5 11.8941 11.5H13.8333M13.8333 4.5H11.8941C11.414 4.50001 10.9413 4.61854 10.518 4.84509C10.0946 5.07163 9.7338 5.39917 9.46745 5.79865L9.16667 6.25" stroke="black" stroke-width="1.16667" stroke-linecap="round" stroke-linejoin="round"/>
</svg>
