<svg width="16" height="16" viewBox="0 0 16 16" fill="none" xmlns="http://www.w3.org/2000/svg"><path d="M2.382 1.892 C 2.173 1.938,2.034 2.045,1.930 2.240 C 1.885 2.324,1.880 2.402,1.880 3.040 C 1.880 3.817,1.906 4.088,2.029 4.591 C 2.348 5.898,3.158 7.034,4.307 7.786 C 4.799 8.108,5.497 8.390,6.127 8.521 C 6.373 8.573,7.030 8.638,7.326 8.640 C 7.351 8.640,7.360 9.194,7.366 11.141 L 7.373 13.641 7.441 13.774 C 7.580 14.043,7.883 14.179,8.162 14.097 C 8.345 14.044,8.484 13.929,8.564 13.767 L 8.627 13.640 8.635 12.224 L 8.643 10.808 9.013 10.790 C 10.398 10.724,11.614 10.193,12.570 9.237 C 13.362 8.445,13.857 7.486,14.057 6.357 C 14.111 6.049,14.118 5.926,14.119 5.173 C 14.120 4.359,14.118 4.330,14.062 4.224 C 13.988 4.088,13.849 3.963,13.716 3.916 C 13.558 3.860,12.325 3.872,11.907 3.933 C 10.645 4.118,9.480 4.761,8.639 5.737 L 8.486 5.915 8.361 5.533 C 8.080 4.670,7.648 3.986,6.980 3.344 C 6.191 2.586,5.182 2.092,4.107 1.936 C 3.756 1.884,2.557 1.854,2.382 1.892 M3.627 3.145 C 4.005 3.175,4.279 3.230,4.631 3.347 C 6.233 3.879,7.357 5.419,7.360 7.087 L 7.360 7.387 7.273 7.386 C 7.075 7.385,6.547 7.331,6.354 7.292 C 4.794 6.976,3.535 5.715,3.213 4.147 C 3.172 3.947,3.122 3.445,3.121 3.220 C 3.120 3.122,3.122 3.120,3.220 3.121 C 3.275 3.121,3.458 3.132,3.627 3.145 M12.869 5.527 C 12.859 5.750,12.834 6.036,12.814 6.162 C 12.605 7.468,11.710 8.638,10.511 9.171 C 9.958 9.418,9.381 9.545,8.807 9.546 L 8.640 9.547 8.640 9.173 C 8.640 8.968,8.658 8.683,8.679 8.540 C 8.930 6.893,10.206 5.555,11.853 5.213 C 12.066 5.168,12.433 5.131,12.731 5.124 L 12.888 5.120 12.869 5.527 " stroke="none" fill-rule="evenodd" fill="black"></path></svg>