<svg width="16" height="16" viewBox="0 0 16 16" fill="none" xmlns="http://www.w3.org/2000/svg">
<path d="M5.95066 3.39004C5.91747 3.38973 5.88391 3.39272 5.85007 3.39931C5.79532 3.41006 3.77078 3.7596 2.37253 5.43935C1.18853 6.8591 1.09948 8.26547 1.03073 9.27822C1.02878 9.30684 1.03132 9.33435 1.03318 9.3622C1.03306 9.37386 1.03171 9.38519 1.03171 9.39687C1.03171 10.8576 1.98711 12.6105 4.31736 12.6107C6.09961 12.6107 7.47165 11.2864 7.47165 9.39687C7.47165 8.15062 6.91157 6.183 4.39157 6.183C3.89688 6.183 3.44562 6.27018 3.04392 6.42568C3.10708 6.33403 3.17325 6.24206 3.2446 6.1498C3.94935 5.2403 5.05847 4.6144 6.06247 4.3749C6.32122 4.31265 6.48751 4.05734 6.43601 3.79384C6.38963 3.55694 6.18296 3.39218 5.95066 3.39004ZM13.4507 3.39004C13.4175 3.38973 13.3839 3.39272 13.3501 3.39931C13.2953 3.41006 11.2708 3.7596 9.87253 5.43935C8.68853 6.8591 8.59949 8.26547 8.53074 9.27822C8.52878 9.30684 8.53132 9.33435 8.53318 9.3622C8.53306 9.37386 8.53171 9.38519 8.53171 9.39687C8.53171 10.8576 9.48711 12.6105 11.8174 12.6107C13.5996 12.6107 14.9717 11.2864 14.9717 9.39687C14.9717 8.15062 14.4116 6.183 11.8916 6.183C11.3969 6.183 10.9456 6.27018 10.5439 6.42568C10.6071 6.33403 10.6733 6.24206 10.7446 6.1498C11.4494 5.2403 12.5585 4.6144 13.5625 4.3749C13.8212 4.31265 13.9875 4.05734 13.936 3.79384C13.8896 3.55694 13.683 3.39218 13.4507 3.39004Z" fill="black"/>
</svg>
