<svg width="16" height="16" viewBox="0 0 16 16" fill="none" xmlns="http://www.w3.org/2000/svg"><path d="M7.569 1.229 C 5.939 1.323,4.373 2.030,3.204 3.200 C 2.346 4.057,1.770 5.047,1.450 6.213 C 0.873 8.315,1.344 10.565,2.716 12.264 C 3.804 13.612,5.386 14.500,7.120 14.737 C 7.572 14.799,8.428 14.799,8.880 14.737 C 9.703 14.625,10.608 14.326,11.293 13.941 C 12.919 13.026,14.086 11.528,14.562 9.742 C 15.065 7.857,14.732 5.850,13.645 4.227 C 13.295 3.703,12.759 3.114,12.287 2.734 C 11.220 1.874,9.818 1.312,8.560 1.240 C 8.025 1.209,7.923 1.208,7.569 1.229 M8.826 2.523 C 11.211 2.870,13.108 4.770,13.481 7.188 C 13.544 7.592,13.544 8.390,13.482 8.800 C 13.332 9.783,12.943 10.680,12.327 11.459 L 12.154 11.677 12.020 11.531 C 11.829 11.322,11.444 11.006,11.120 10.792 C 10.817 10.592,10.264 10.313,9.952 10.202 C 8.910 9.834,7.613 9.783,6.501 10.067 C 6.132 10.162,5.901 10.248,5.507 10.439 C 4.941 10.714,4.325 11.154,3.980 11.531 L 3.846 11.677 3.673 11.459 C 3.057 10.680,2.668 9.783,2.518 8.800 C 2.456 8.390,2.456 7.592,2.519 7.188 C 2.730 5.824,3.403 4.630,4.460 3.744 C 5.665 2.734,7.242 2.293,8.826 2.523 M7.720 3.897 C 6.958 3.963,6.216 4.390,5.732 5.040 C 5.361 5.539,5.154 6.315,5.226 6.937 C 5.384 8.295,6.372 9.283,7.730 9.441 C 8.368 9.515,9.140 9.303,9.653 8.912 C 10.302 8.419,10.679 7.754,10.774 6.937 C 10.846 6.315,10.639 5.539,10.268 5.040 C 10.008 4.690,9.595 4.343,9.213 4.153 C 8.802 3.947,8.241 3.851,7.720 3.897 M8.294 5.158 C 8.915 5.269,9.430 5.807,9.520 6.439 C 9.592 6.950,9.441 7.397,9.071 7.759 C 8.680 8.143,8.200 8.286,7.672 8.174 C 7.232 8.081,6.818 7.753,6.618 7.340 C 6.128 6.327,6.862 5.139,7.987 5.123 C 8.045 5.123,8.184 5.138,8.294 5.158 M8.382 11.147 C 8.745 11.177,9.153 11.255,9.440 11.349 C 9.737 11.446,10.301 11.736,10.567 11.928 C 10.796 12.093,11.200 12.462,11.200 12.506 C 11.200 12.531,10.870 12.745,10.613 12.886 C 10.099 13.168,9.352 13.407,8.707 13.497 C 8.395 13.540,7.600 13.540,7.293 13.496 C 6.628 13.401,5.904 13.169,5.387 12.886 C 5.130 12.745,4.800 12.531,4.800 12.506 C 4.800 12.462,5.204 12.093,5.433 11.928 C 5.699 11.736,6.263 11.446,6.560 11.349 C 6.935 11.226,7.484 11.137,7.947 11.124 C 8.013 11.122,8.208 11.133,8.382 11.147 " stroke="none" fill-rule="evenodd" fill="black"></path></svg>