<svg width="16" height="16" viewBox="0 0 16 16" fill="none" xmlns="http://www.w3.org/2000/svg"><path d="M2.964 1.895 C 2.603 1.943,2.208 2.225,2.028 2.561 C 1.879 2.841,1.868 2.957,1.867 4.228 C 1.867 5.492,1.873 5.553,2.026 5.738 C 2.247 6.005,2.673 6.024,2.929 5.779 C 3.113 5.602,3.105 5.658,3.120 4.333 L 3.133 3.133 4.333 3.120 C 5.658 3.105,5.602 3.113,5.779 2.929 C 6.072 2.624,5.985 2.129,5.606 1.942 C 5.480 1.880,5.477 1.880,4.307 1.876 C 3.661 1.874,3.057 1.882,2.964 1.895 M10.538 1.895 C 10.243 1.953,10.050 2.192,10.050 2.496 C 10.050 2.663,10.108 2.811,10.221 2.929 C 10.398 3.113,10.342 3.105,11.667 3.120 L 12.867 3.133 12.880 4.333 C 12.895 5.658,12.887 5.602,13.071 5.779 C 13.408 6.102,13.961 5.956,14.094 5.508 C 14.151 5.319,14.151 3.166,14.094 2.899 C 14.041 2.649,13.917 2.431,13.719 2.241 C 13.510 2.041,13.283 1.929,13.012 1.894 C 12.770 1.863,10.699 1.864,10.538 1.895 M6.297 5.229 C 5.810 5.292,5.360 5.713,5.241 6.216 C 5.184 6.459,5.181 9.494,5.238 9.763 C 5.290 10.008,5.392 10.196,5.578 10.390 C 5.765 10.584,5.984 10.708,6.233 10.761 C 6.497 10.817,9.503 10.817,9.767 10.761 C 10.016 10.708,10.235 10.584,10.422 10.390 C 10.608 10.196,10.710 10.008,10.762 9.763 C 10.817 9.502,10.816 6.494,10.761 6.233 C 10.708 5.982,10.584 5.764,10.385 5.574 C 10.177 5.374,9.950 5.263,9.679 5.227 C 9.440 5.196,6.538 5.198,6.297 5.229 M9.533 8.000 L 9.533 9.533 8.000 9.533 L 6.467 9.533 6.460 8.027 C 6.456 7.198,6.459 6.505,6.466 6.486 C 6.476 6.460,6.798 6.454,8.006 6.460 L 9.533 6.467 9.533 8.000 M2.240 10.100 C 2.087 10.176,1.954 10.329,1.908 10.483 C 1.850 10.681,1.848 12.826,1.906 13.101 C 1.959 13.350,2.083 13.569,2.277 13.755 C 2.471 13.941,2.659 14.043,2.903 14.095 C 3.166 14.151,5.321 14.150,5.508 14.094 C 5.956 13.961,6.102 13.408,5.779 13.071 C 5.602 12.887,5.658 12.895,4.333 12.880 L 3.133 12.867 3.120 11.667 C 3.105 10.342,3.113 10.398,2.929 10.221 C 2.880 10.174,2.795 10.117,2.741 10.095 C 2.609 10.040,2.358 10.043,2.240 10.100 M13.253 10.094 C 13.202 10.117,13.120 10.175,13.071 10.221 C 12.887 10.397,12.895 10.342,12.880 11.667 L 12.867 12.867 11.667 12.880 C 10.342 12.895,10.398 12.887,10.221 13.071 C 9.898 13.408,10.044 13.961,10.492 14.094 C 10.679 14.150,12.834 14.151,13.097 14.095 C 13.604 13.987,14.020 13.556,14.105 13.049 C 14.126 12.925,14.133 12.487,14.128 11.693 L 14.120 10.518 14.052 10.387 C 14.009 10.303,13.937 10.221,13.854 10.161 C 13.737 10.078,13.701 10.066,13.535 10.060 C 13.408 10.055,13.316 10.066,13.253 10.094 " stroke="none" fill-rule="evenodd" fill="black"></path></svg>