<svg width="16" height="16" viewBox="0 0 16 16" fill="none" xmlns="http://www.w3.org/2000/svg">
<path fill-rule="evenodd" clip-rule="evenodd" d="M8.75546 2.64C8.75546 2.22579 8.41967 1.89 8.00546 1.89C7.59125 1.89 7.25546 2.22579 7.25546 2.64V11.4994L4.66251 8.78294C4.37651 8.48331 3.90176 8.47227 3.60214 8.75828C3.30252 9.04428 3.29148 9.51903 3.57748 9.81865L7.46294 13.8891C7.60446 14.0374 7.8005 14.1213 8.00546 14.1213C8.21042 14.1213 8.40645 14.0374 8.54798 13.8891L12.4334 9.81865C12.7194 9.51903 12.7084 9.04428 12.4088 8.75828C12.1092 8.47227 11.6344 8.48331 11.3484 8.78294L8.75546 11.4994V2.64Z" fill="#2D2D2D"/>
</svg>
