<svg width="16" height="16" viewBox="0 0 16 16" fill="none" xmlns="http://www.w3.org/2000/svg"><path d="M2.834 1.800 C 2.591 1.853,2.358 1.986,2.160 2.186 C 1.969 2.379,1.862 2.570,1.801 2.831 C 1.741 3.086,1.741 12.914,1.801 13.169 C 1.864 13.437,1.968 13.622,2.173 13.827 C 2.379 14.032,2.556 14.133,2.845 14.207 C 3.015 14.250,3.350 14.253,8.000 14.253 C 12.650 14.253,12.985 14.250,13.155 14.207 C 13.444 14.133,13.621 14.032,13.827 13.827 C 14.033 13.620,14.135 13.440,14.204 13.155 C 14.243 12.996,14.249 12.768,14.251 11.347 C 14.254 9.508,14.258 9.547,14.050 9.333 C 13.731 9.005,13.234 9.011,12.939 9.347 C 12.745 9.567,12.747 9.549,12.747 11.245 L 12.747 12.747 8.000 12.747 L 3.253 12.747 3.253 8.000 L 3.253 3.253 4.755 3.253 C 6.451 3.253,6.433 3.255,6.653 3.061 C 6.821 2.913,6.906 2.731,6.906 2.518 C 6.907 2.199,6.755 1.957,6.471 1.825 L 6.333 1.761 4.667 1.762 C 3.370 1.764,2.963 1.772,2.834 1.800 M8.862 1.825 C 8.364 2.057,8.269 2.700,8.680 3.061 C 8.898 3.253,8.904 3.253,10.385 3.253 L 11.693 3.253 9.193 5.753 C 6.922 8.024,6.688 8.266,6.640 8.394 C 6.408 9.003,6.997 9.592,7.606 9.360 C 7.734 9.312,7.976 9.078,10.247 6.807 L 12.747 4.307 12.747 5.615 C 12.747 7.107,12.746 7.105,12.946 7.327 C 13.112 7.512,13.283 7.582,13.531 7.568 C 13.929 7.546,14.179 7.311,14.243 6.898 C 14.259 6.799,14.265 5.861,14.261 4.547 C 14.253 2.510,14.249 2.351,14.204 2.234 C 14.142 2.073,13.979 1.906,13.805 1.825 L 13.667 1.761 11.333 1.761 L 9.000 1.761 8.862 1.825 " stroke="none" fill-rule="evenodd" fill="black"></path></svg>