<svg width="16" height="16" viewBox="0 0 16 16" fill="none" xmlns="http://www.w3.org/2000/svg"><path d="M14.040 1.892 C 13.888 1.932,13.819 1.970,13.730 2.063 C 13.680 2.115,11.900 4.503,9.773 7.370 C 7.647 10.238,5.893 12.580,5.877 12.574 C 5.861 12.569,5.020 11.882,4.008 11.047 C 2.874 10.111,2.126 9.512,2.057 9.485 C 1.928 9.433,1.792 9.428,1.640 9.469 C 1.484 9.512,1.272 9.737,1.230 9.906 C 1.173 10.130,1.243 10.360,1.418 10.523 C 1.606 10.700,5.660 14.029,5.732 14.066 C 5.934 14.170,6.229 14.127,6.406 13.967 C 6.515 13.869,14.643 2.926,14.730 2.760 C 14.807 2.614,14.805 2.373,14.727 2.223 C 14.667 2.109,14.551 1.997,14.430 1.936 C 14.337 1.889,14.139 1.867,14.040 1.892 " stroke="none" fill-rule="evenodd" fill="black"></path></svg>