<svg width="16" height="16" viewBox="0 0 16 16" fill="none" xmlns="http://www.w3.org/2000/svg">
<path d="M13.9999 14V8.00006C13.9999 5.85579 12.8359 3.82926 11.1058 2.82761M2.01007 10.2758V14" stroke="black" stroke-width="1.4" stroke-linecap="round" stroke-linejoin="round"/>
<path d="M2.01008 8.20688C1.80337 4.27586 4.80827 2 8.00503 2" stroke="black" stroke-width="1.4" stroke-linecap="round" stroke-linejoin="round"/>
<path d="M8.005 5.31033C9.48919 5.31033 10.6924 6.34481 10.6924 8.20688" stroke="black" stroke-width="1.4" stroke-linecap="round" stroke-linejoin="round"/>
<path d="M10.6924 10.2758V11.5172" stroke="black" stroke-width="1.4" stroke-linecap="round" stroke-linejoin="round"/>
<path d="M5.31767 11.1035V12.3448C5.31767 13.3793 4.49078 14 4.49078 14" stroke="black" stroke-width="1.4" stroke-linecap="round" stroke-linejoin="round"/>
<path d="M7.79828 8.6207V11.5172C7.79828 12.9655 8.45979 14 10.2789 14" stroke="black" stroke-width="1.4" stroke-linecap="round" stroke-linejoin="round"/>
<path d="M5.62036 6.75864C5.42696 7.13006 5.31763 7.55221 5.31763 8.00001V9.03449" stroke="black" stroke-width="1.4" stroke-linecap="round" stroke-linejoin="round"/>
</svg>
