<svg width="16" height="16" viewBox="0 0 16 16" fill="none" xmlns="http://www.w3.org/2000/svg"><path d="M2.307 2.757 C 1.892 2.889,1.557 3.217,1.433 3.610 L 1.373 3.800 1.373 8.000 L 1.373 12.200 1.434 12.392 C 1.552 12.768,1.899 13.115,2.274 13.233 L 2.467 13.293 8.000 13.293 L 13.533 13.293 13.726 13.233 C 14.101 13.115,14.448 12.768,14.566 12.392 L 14.627 12.200 14.627 8.000 L 14.627 3.800 14.567 3.610 C 14.459 3.268,14.206 2.989,13.852 2.821 L 13.667 2.733 8.040 2.728 C 3.547 2.724,2.392 2.730,2.307 2.757 M13.353 8.007 L 13.347 12.040 8.000 12.040 L 2.653 12.040 2.647 8.007 L 2.640 3.973 8.000 3.973 L 13.360 3.973 13.353 8.007 M4.413 6.106 C 4.281 6.170,4.245 6.200,4.146 6.331 C 4.072 6.428,4.067 6.452,4.067 6.665 C 4.067 6.875,4.073 6.902,4.145 7.002 C 4.261 7.164,4.393 7.246,4.589 7.280 C 4.704 7.300,5.201 7.307,6.107 7.301 C 7.409 7.294,7.457 7.291,7.573 7.237 C 7.836 7.115,7.964 6.894,7.940 6.600 C 7.921 6.365,7.814 6.215,7.587 6.106 C 7.485 6.057,7.406 6.055,6.000 6.055 C 4.594 6.055,4.515 6.057,4.413 6.106 M9.747 6.106 C 9.541 6.205,9.430 6.350,9.389 6.572 C 9.350 6.783,9.350 8.551,9.389 8.761 C 9.442 9.047,9.631 9.229,9.927 9.281 C 10.039 9.300,10.347 9.308,10.778 9.302 C 11.396 9.293,11.464 9.288,11.573 9.237 C 11.726 9.166,11.833 9.059,11.904 8.907 C 11.957 8.792,11.960 8.738,11.968 7.774 C 11.978 6.657,11.962 6.475,11.846 6.320 C 11.756 6.200,11.717 6.169,11.587 6.106 C 11.489 6.059,11.414 6.055,10.667 6.055 C 9.919 6.055,9.845 6.059,9.747 6.106 M4.506 8.398 C 4.218 8.488,4.050 8.711,4.050 9.000 C 4.050 9.258,4.174 9.450,4.413 9.563 C 4.544 9.625,4.562 9.626,5.333 9.626 C 6.105 9.626,6.123 9.625,6.253 9.563 C 6.493 9.450,6.617 9.258,6.617 9.000 C 6.617 8.756,6.500 8.563,6.280 8.444 C 6.178 8.389,6.137 8.386,5.373 8.382 C 4.933 8.379,4.543 8.386,4.506 8.398 " stroke="none" fill-rule="evenodd" fill="black"></path></svg>