<svg width="16" height="16" viewBox="0 0 16 16" fill="none" xmlns="http://www.w3.org/2000/svg"><path d="M2.982 0.933 C 1.916 1.157,1.145 1.938,0.922 3.019 C 0.885 3.202,0.880 3.739,0.880 8.000 C 0.880 12.261,0.885 12.798,0.922 12.981 C 1.139 14.034,1.833 14.760,2.907 15.058 C 3.071 15.104,3.336 15.107,8.000 15.107 C 13.405 15.107,12.969 15.119,13.413 14.957 C 14.118 14.700,14.697 14.118,14.959 13.407 C 15.118 12.972,15.107 13.399,15.107 8.000 C 15.107 2.601,15.118 3.028,14.959 2.593 C 14.643 1.735,13.920 1.119,13.009 0.933 C 12.758 0.881,12.628 0.880,7.982 0.882 C 3.468 0.884,3.201 0.886,2.982 0.933 M12.863 2.176 C 13.312 2.291,13.709 2.688,13.824 3.137 C 13.862 3.284,13.867 3.801,13.866 8.004 C 13.866 13.115,13.874 12.826,13.719 13.134 C 13.564 13.440,13.242 13.712,12.915 13.813 C 12.744 13.866,12.673 13.867,8.000 13.867 C 3.327 13.867,3.256 13.866,3.085 13.813 C 2.656 13.680,2.287 13.295,2.176 12.863 C 2.138 12.716,2.133 12.198,2.133 8.000 C 2.133 3.802,2.138 3.284,2.176 3.137 C 2.288 2.699,2.669 2.309,3.107 2.183 C 3.255 2.140,3.597 2.137,7.983 2.135 C 12.201 2.134,12.716 2.138,12.863 2.176 M3.941 3.948 C 3.817 4.013,3.720 4.140,3.681 4.288 C 3.615 4.535,3.792 4.835,4.045 4.905 C 4.114 4.924,5.362 4.933,7.988 4.933 C 12.241 4.933,12.010 4.943,12.184 4.763 C 12.377 4.564,12.369 4.203,12.168 4.021 C 12.021 3.887,12.214 3.893,7.981 3.895 C 4.125 3.896,4.038 3.897,3.941 3.948 M6.573 6.104 C 6.143 6.302,6.184 6.940,6.634 7.065 C 6.699 7.084,7.621 7.093,9.314 7.093 C 12.138 7.093,11.998 7.101,12.169 6.939 C 12.282 6.832,12.328 6.724,12.328 6.567 C 12.328 6.380,12.221 6.202,12.056 6.115 L 11.938 6.053 9.309 6.054 C 6.810 6.054,6.675 6.057,6.573 6.104 M4.381 9.761 C 4.098 9.818,3.865 9.975,3.745 10.191 L 3.667 10.333 3.667 11.027 C 3.667 11.697,3.669 11.724,3.728 11.845 C 3.848 12.088,4.119 12.265,4.453 12.318 C 4.692 12.357,11.308 12.357,11.547 12.318 C 11.881 12.265,12.152 12.088,12.272 11.845 C 12.331 11.724,12.333 11.697,12.333 11.027 L 12.333 10.333 12.255 10.192 C 12.167 10.033,11.994 9.892,11.779 9.804 L 11.640 9.747 8.067 9.743 C 6.101 9.740,4.443 9.749,4.381 9.761 " stroke="none" fill-rule="evenodd"></path></svg>