<svg width="16" height="16" viewBox="0 0 16 16" fill="none" xmlns="http://www.w3.org/2000/svg">
<g clip-path="url(#clip0_101_121)">
<path fill-rule="evenodd" clip-rule="evenodd" d="M8.04636 1.85999C4.62973 1.85999 1.86001 4.62972 1.86001 8.04634C1.86001 9.54191 2.39071 10.9135 3.27407 11.9831C4.48003 10.7356 6.17269 9.95841 8.04634 9.95841C9.91999 9.95841 11.6127 10.7356 12.8186 11.9832C13.702 10.9135 14.2327 9.54192 14.2327 8.04634C14.2327 4.62972 11.463 1.85999 8.04636 1.85999ZM11.8114 12.9555C10.8585 11.9698 9.52409 11.3584 8.04634 11.3584C6.56859 11.3584 5.23418 11.9698 4.28131 12.9554C5.32422 13.7565 6.62968 14.2327 8.04636 14.2327C9.46303 14.2327 10.7685 13.7565 11.8114 12.9555ZM0.460007 8.04634C0.460007 3.85652 3.85653 0.459991 8.04636 0.459991C12.2362 0.459991 15.6327 3.85652 15.6327 8.04634C15.6327 12.2362 12.2362 15.6327 8.04636 15.6327C3.85653 15.6327 0.460007 12.2362 0.460007 8.04634ZM8.04636 4.70951C7.25265 4.70951 6.60922 5.35295 6.60922 6.14666C6.60922 6.94037 7.25265 7.5838 8.04636 7.5838C8.84007 7.5838 9.48351 6.94037 9.48351 6.14666C9.48351 5.35295 8.84007 4.70951 8.04636 4.70951ZM5.20922 6.14666C5.20922 4.57975 6.47945 3.30951 8.04636 3.30951C9.61327 3.30951 10.8835 4.57975 10.8835 6.14666C10.8835 7.71357 9.61327 8.9838 8.04636 8.9838C6.47945 8.9838 5.20922 7.71357 5.20922 6.14666Z" fill="black"/>
</g>
<defs>
<clipPath id="clip0_101_121">
<rect width="16" height="16" fill="white"/>
</clipPath>
</defs>
</svg>
