<svg width="16" height="16" viewBox="0 0 16 16" fill="none" xmlns="http://www.w3.org/2000/svg"><path d="M7.453 1.896 C 3.710 2.052,1.229 4.101,0.908 7.303 C 0.806 8.319,0.966 9.148,1.571 10.725 C 1.665 10.971,1.680 11.038,1.680 11.218 C 1.679 11.660,1.503 12.127,1.114 12.715 C 0.927 12.998,0.896 13.061,0.886 13.181 C 0.861 13.486,1.001 13.709,1.307 13.848 C 2.163 14.238,3.168 14.177,4.227 13.671 L 4.520 13.530 4.786 13.631 C 6.210 14.173,8.377 14.284,10.159 13.906 C 13.012 13.302,14.822 11.391,15.092 8.697 C 15.128 8.345,15.128 7.647,15.093 7.312 C 14.838 4.870,13.398 3.118,10.993 2.322 C 9.963 1.981,8.790 1.840,7.453 1.896 M8.587 3.148 C 9.391 3.198,10.205 3.354,10.800 3.572 C 11.381 3.785,12.028 4.164,12.437 4.531 C 13.400 5.396,13.867 6.528,13.867 8.000 C 13.867 9.450,13.414 10.568,12.478 11.431 C 11.651 12.193,10.487 12.660,8.987 12.830 C 8.585 12.876,7.307 12.876,6.920 12.830 C 6.004 12.722,5.457 12.583,4.867 12.306 C 4.579 12.171,4.371 12.163,4.173 12.277 C 3.618 12.599,3.284 12.740,2.910 12.811 C 2.688 12.853,2.507 12.866,2.507 12.839 C 2.507 12.831,2.543 12.753,2.588 12.664 C 2.823 12.199,2.949 11.612,2.925 11.094 C 2.909 10.740,2.885 10.641,2.707 10.187 C 2.457 9.550,2.227 8.784,2.161 8.373 C 2.126 8.149,2.126 7.694,2.162 7.366 C 2.339 5.733,3.182 4.529,4.650 3.813 C 5.068 3.609,5.334 3.513,5.831 3.385 C 6.678 3.168,7.617 3.087,8.587 3.148 M4.765 7.290 C 4.548 7.371,4.372 7.541,4.292 7.747 C 4.241 7.878,4.251 8.158,4.313 8.296 C 4.478 8.670,4.936 8.850,5.296 8.683 C 5.582 8.550,5.741 8.305,5.741 8.000 C 5.741 7.707,5.591 7.465,5.326 7.330 C 5.184 7.257,4.907 7.237,4.765 7.290 M7.741 7.297 C 7.566 7.359,7.373 7.549,7.308 7.722 C 7.077 8.339,7.658 8.924,8.273 8.694 C 8.779 8.504,8.907 7.819,8.505 7.457 C 8.290 7.264,8.004 7.204,7.741 7.297 M10.765 7.290 C 10.548 7.371,10.372 7.541,10.292 7.747 C 10.241 7.878,10.251 8.158,10.313 8.296 C 10.478 8.670,10.936 8.850,11.296 8.683 C 11.582 8.550,11.741 8.305,11.741 8.000 C 11.741 7.707,11.591 7.465,11.326 7.330 C 11.184 7.257,10.907 7.237,10.765 7.290 " stroke="none" fill-rule="evenodd" fill="black"></path></svg>