<svg width="16" height="16" viewBox="0 0 16 16" fill="none" xmlns="http://www.w3.org/2000/svg">
<g clip-path="url(#clip0_132_85)">
<path fill-rule="evenodd" clip-rule="evenodd" d="M1.39752 2.625C1.39752 1.17525 2.57277 0 4.02252 0H11.9913C13.441 0 14.6163 1.17525 14.6163 2.625V13.5938H14.8038C15.218 13.5938 15.5538 13.9295 15.5538 14.3438C15.5538 14.758 15.218 15.0938 14.8038 15.0938H13.8663H10.1163H5.89752H2.14752H1.21002C0.795808 15.0938 0.460022 14.758 0.460022 14.3438C0.460022 13.9295 0.795808 13.5938 1.21002 13.5938H1.39752V2.625ZM6.64752 13.5938H9.36627V11.0625C9.36627 10.4412 8.86259 9.9375 8.24127 9.9375H7.77252C7.1512 9.9375 6.64752 10.4412 6.64752 11.0625V13.5938ZM10.8663 13.5938V11.0625C10.8663 9.61275 9.69102 8.4375 8.24127 8.4375H7.77252C6.32277 8.4375 5.14752 9.61275 5.14752 11.0625V13.5938H2.89752V2.625C2.89752 2.00368 3.4012 1.5 4.02252 1.5H11.9913C12.6126 1.5 13.1163 2.00368 13.1163 2.625V13.5938H10.8663ZM6.1319 5.70312C6.14916 5.70312 6.16315 5.68913 6.16315 5.67188C6.16315 5.65462 6.14916 5.64062 6.1319 5.64062C6.11464 5.64062 6.10065 5.65462 6.10065 5.67188C6.10065 5.68913 6.11464 5.70312 6.1319 5.70312ZM5.16315 5.67188C5.16315 5.13685 5.59687 4.70312 6.1319 4.70312C6.66692 4.70312 7.10065 5.13685 7.10065 5.67188C7.10065 6.2069 6.66692 6.64062 6.1319 6.64062C5.59687 6.64062 5.16315 6.2069 5.16315 5.67188ZM9.91315 5.67188C9.91315 5.68913 9.89916 5.70312 9.8819 5.70312C9.86464 5.70312 9.85065 5.68913 9.85065 5.67188C9.85065 5.65462 9.86464 5.64062 9.8819 5.64062C9.89916 5.64062 9.91315 5.65462 9.91315 5.67188ZM9.8819 4.70312C9.34687 4.70312 8.91315 5.13685 8.91315 5.67188C8.91315 6.2069 9.34687 6.64062 9.8819 6.64062C10.4169 6.64062 10.8506 6.2069 10.8506 5.67188C10.8506 5.13685 10.4169 4.70312 9.8819 4.70312Z" fill="black"/>
</g>
<defs>
<clipPath id="clip0_132_85">
<rect width="16" height="16" fill="white"/>
</clipPath>
</defs>
</svg>
