<svg width="16" height="16" viewBox="0 0 16 16" fill="none" xmlns="http://www.w3.org/2000/svg">
<g clip-path="url(#clip0_354_43)">
<path d="M6.66667 3.80719C7.08088 3.80719 7.41667 3.4714 7.41667 3.05719C7.41667 2.64298 7.08088 2.30719 6.66667 2.30719V3.80719ZM13.4167 9.05719C13.4167 8.64298 13.0809 8.30719 12.6667 8.30719C12.2525 8.30719 11.9167 8.64298 11.9167 9.05719H13.4167ZM2.36401 13.6512L2.7045 12.9829H2.7045L2.36401 13.6512ZM2.07266 13.3599L1.40441 13.7003H1.40441L2.07266 13.3599ZM12.3027 13.6512L11.9622 12.9829L12.3027 13.6512ZM12.594 13.3599L11.9257 13.0194L11.9257 13.0194L12.594 13.3599ZM2.07266 3.4212L1.40441 3.0807V3.0807L2.07266 3.4212ZM2.36401 3.12985L2.02351 2.4616L2.02351 2.4616L2.36401 3.12985ZM8 5.72386L7.46967 5.19353C7.32902 5.33418 7.25 5.52495 7.25 5.72386H8ZM8 7.72386H7.25C7.25 8.13807 7.58579 8.47386 8 8.47386V7.72386ZM10 7.72386V8.47386C10.1989 8.47386 10.3897 8.39484 10.5303 8.25419L10 7.72386ZM11.5286 2.19526L12.0589 2.72559L12.0589 2.72559L11.5286 2.19526ZM12.4714 2.19526L11.9411 2.72559V2.72559L12.4714 2.19526ZM13.5286 3.25245L12.9983 3.78278V3.78278L13.5286 3.25245ZM13.5286 4.19526L14.0589 4.72559V4.72559L13.5286 4.19526ZM11.6 12.9739H3.06667V14.4739H11.6V12.9739ZM2.75 12.6572V4.12386H1.25V12.6572H2.75ZM3.06667 3.80719H6.66667V2.30719H3.06667V3.80719ZM11.9167 9.05719V12.6572H13.4167V9.05719H11.9167ZM3.06667 12.9739C2.86761 12.9739 2.76342 12.9733 2.68988 12.9673C2.62509 12.962 2.65245 12.9564 2.7045 12.9829L2.02351 14.3195C2.21817 14.4186 2.41018 14.4494 2.56773 14.4623C2.71652 14.4744 2.89236 14.4739 3.06667 14.4739V12.9739ZM1.25 12.6572C1.25 12.8315 1.24942 13.0073 1.26157 13.1561C1.27445 13.3137 1.30523 13.5057 1.40441 13.7003L2.74092 13.0194C2.76744 13.0714 2.76189 13.0988 2.75659 13.034C2.75058 12.9604 2.75 12.8563 2.75 12.6572H1.25ZM2.7045 12.9829C2.72018 12.9909 2.73293 13.0037 2.74092 13.0194L1.40441 13.7003C1.54023 13.9669 1.75695 14.1836 2.02351 14.3195L2.7045 12.9829ZM11.6 14.4739C11.7743 14.4739 11.9501 14.4744 12.0989 14.4623C12.2565 14.4494 12.4485 14.4186 12.6432 14.3195L11.9622 12.9829C12.0142 12.9564 12.0416 12.962 11.9768 12.9673C11.9032 12.9733 11.7991 12.9739 11.6 12.9739V14.4739ZM11.9167 12.6572C11.9167 12.8563 11.9161 12.9604 11.9101 13.034C11.9048 13.0988 11.8992 13.0714 11.9257 13.0194L13.2623 13.7003C13.3614 13.5057 13.3922 13.3137 13.4051 13.1561C13.4173 13.0073 13.4167 12.8315 13.4167 12.6572H11.9167ZM12.6432 14.3195C12.9097 14.1836 13.1264 13.9669 13.2623 13.7003L11.9257 13.0194C11.9337 13.0037 11.9465 12.9909 11.9622 12.9829L12.6432 14.3195ZM2.75 4.12386C2.75 3.9248 2.75058 3.82061 2.75659 3.74707C2.76189 3.68228 2.76744 3.70964 2.74092 3.76169L1.40441 3.0807C1.30523 3.27536 1.27445 3.46737 1.26157 3.62492C1.24942 3.77371 1.25 3.94955 1.25 4.12386H2.75ZM3.06667 2.30719C2.89236 2.30719 2.71652 2.30661 2.56773 2.31876C2.41018 2.33164 2.21817 2.36242 2.02351 2.4616L2.7045 3.79811C2.65245 3.82463 2.62509 3.81908 2.68988 3.81378C2.76342 3.80777 2.86761 3.80719 3.06667 3.80719V2.30719ZM2.74092 3.76169C2.73293 3.77737 2.72018 3.79012 2.7045 3.79811L2.02351 2.4616C1.75695 2.59742 1.54023 2.81414 1.40441 3.0807L2.74092 3.76169ZM7.25 5.72386V7.72386H8.75V5.72386H7.25ZM8 8.47386H10V6.97386H8V8.47386ZM8.53033 6.25419L12.0589 2.72559L10.9983 1.66493L7.46967 5.19353L8.53033 6.25419ZM11.9411 2.72559L12.9983 3.78278L14.0589 2.72212L13.0017 1.66493L11.9411 2.72559ZM12.9983 3.66493L9.46967 7.19353L10.5303 8.25419L14.0589 4.72559L12.9983 3.66493ZM12.9983 3.78278C12.9657 3.75024 12.9657 3.69748 12.9983 3.66493L14.0589 4.72559C14.6122 4.17235 14.6122 3.27537 14.0589 2.72212L12.9983 3.78278ZM12.0589 2.72559C12.0264 2.75814 11.9736 2.75814 11.9411 2.72559L13.0017 1.66493C12.4485 1.11169 11.5515 1.11169 10.9983 1.66493L12.0589 2.72559Z" fill="black"/>
</g>
<defs>
<clipPath id="clip0_354_43">
<rect width="16" height="16" fill="white"/>
</clipPath>
</defs>
</svg>
