<svg width="16" height="16" viewBox="0 0 16 16" fill="none" xmlns="http://www.w3.org/2000/svg"><path d="M7.360 1.225 C 7.338 1.237,7.172 1.267,6.992 1.291 C 6.319 1.381,5.701 1.575,4.997 1.920 C 3.929 2.442,3.014 3.241,2.355 4.227 C 1.390 5.669,1.010 7.452,1.305 9.147 C 1.724 11.548,3.380 13.535,5.659 14.374 C 6.025 14.509,6.574 14.652,6.933 14.705 C 7.087 14.728,7.265 14.759,7.327 14.774 C 7.475 14.808,8.525 14.808,8.673 14.774 C 8.735 14.759,8.913 14.728,9.067 14.705 C 9.799 14.596,10.662 14.298,11.316 13.929 C 12.727 13.132,13.817 11.854,14.373 10.345 C 15.124 8.305,14.854 6.032,13.645 4.227 C 12.986 3.241,12.071 2.442,11.003 1.920 C 10.299 1.575,9.681 1.381,9.008 1.291 C 8.828 1.267,8.659 1.237,8.634 1.224 C 8.575 1.194,7.414 1.195,7.360 1.225 M8.342 2.552 C 8.931 2.831,9.510 3.806,9.851 5.093 C 10.001 5.657,10.129 6.464,10.175 7.127 L 10.193 7.387 8.000 7.387 L 5.807 7.387 5.825 7.127 C 5.955 5.261,6.511 3.595,7.253 2.852 C 7.631 2.474,7.976 2.378,8.342 2.552 M5.600 3.024 C 5.600 3.029,5.558 3.118,5.508 3.221 C 4.996 4.255,4.696 5.506,4.565 7.147 L 4.547 7.373 3.527 7.380 L 2.507 7.387 2.507 7.308 C 2.507 7.265,2.531 7.103,2.561 6.949 C 2.776 5.834,3.327 4.821,4.150 4.024 C 4.529 3.658,4.815 3.444,5.293 3.168 C 5.542 3.025,5.600 2.997,5.600 3.024 M10.676 3.151 C 12.130 3.969,13.129 5.342,13.439 6.949 C 13.469 7.103,13.493 7.265,13.493 7.308 L 13.493 7.387 12.473 7.380 L 11.453 7.373 11.435 7.147 C 11.304 5.506,11.004 4.255,10.492 3.221 C 10.442 3.118,10.400 3.029,10.400 3.024 C 10.400 3.000,10.445 3.020,10.676 3.151 M4.572 8.927 C 4.660 10.321,5.014 11.780,5.506 12.775 C 5.558 12.881,5.595 12.974,5.588 12.980 C 5.557 13.012,4.945 12.638,4.600 12.376 C 4.370 12.201,3.970 11.811,3.743 11.540 C 3.145 10.824,2.738 9.967,2.561 9.051 C 2.531 8.897,2.507 8.741,2.507 8.705 L 2.507 8.640 3.530 8.640 L 4.554 8.640 4.572 8.927 M10.174 8.887 C 10.037 10.781,9.489 12.403,8.732 13.161 C 8.233 13.660,7.767 13.660,7.268 13.161 C 6.511 12.403,5.963 10.781,5.826 8.887 L 5.808 8.640 8.000 8.640 L 10.192 8.640 10.174 8.887 M13.493 8.705 C 13.493 8.741,13.469 8.897,13.439 9.051 C 13.158 10.511,12.302 11.787,11.040 12.631 C 10.801 12.792,10.429 12.998,10.412 12.980 C 10.405 12.974,10.441 12.883,10.492 12.780 C 10.991 11.770,11.338 10.344,11.428 8.927 L 11.446 8.640 12.470 8.640 L 13.493 8.640 13.493 8.705 " stroke="none" fill-rule="evenodd" fill="black"></path></svg>