<svg width="16" height="16" viewBox="0 0 16 16" fill="none" xmlns="http://www.w3.org/2000/svg">
<path fill-rule="evenodd" clip-rule="evenodd" d="M10.4375 2C8.34572 2 6.64999 3.69572 6.64999 5.7875C6.64999 5.94721 6.65991 6.10484 6.67921 6.25977L2.32573 10.6132C2.21321 10.7258 2.14999 10.8784 2.14999 11.0375V13.475C2.14999 13.8064 2.41862 14.075 2.74999 14.075H5.18749C5.34662 14.075 5.49924 14.0118 5.61176 13.8993L6.17426 13.3368C6.28678 13.2242 6.34999 13.0716 6.34999 12.9125V12.2H7.06249C7.22162 12.2 7.37424 12.1368 7.48676 12.0243L8.42426 11.0868C8.53678 10.9742 8.59999 10.8216 8.59999 10.6625V9.95H9.31249C9.47162 9.95 9.62424 9.88679 9.73676 9.77426L9.96524 9.54578C10.1202 9.56509 10.2778 9.575 10.4375 9.575C12.5293 9.575 14.225 7.87927 14.225 5.7875C14.225 3.69572 12.5293 2 10.4375 2ZM7.84999 5.7875C7.84999 4.35846 9.00846 3.2 10.4375 3.2C11.8665 3.2 13.025 4.35846 13.025 5.7875C13.025 7.21653 11.8665 8.375 10.4375 8.375C10.2479 8.375 10.0636 8.35471 9.88678 8.31638C9.6874 8.27318 9.47972 8.33425 9.33545 8.47851L9.06397 8.75H7.99999C7.66862 8.75 7.39999 9.01863 7.39999 9.35V10.414L6.81397 11H5.74999C5.41862 11 5.14999 11.2686 5.14999 11.6V12.664L4.93897 12.875H3.34999V11.286L7.74648 6.88955C7.89074 6.7453 7.95181 6.53763 7.90861 6.33824C7.87029 6.16133 7.84999 5.97715 7.84999 5.7875ZM11.05 5.7C11.4089 5.7 11.7 5.40898 11.7 5.05C11.7 4.69102 11.4089 4.4 11.05 4.4C10.6911 4.4 10.4 4.69102 10.4 5.05C10.4 5.40898 10.6911 5.7 11.05 5.7Z" fill="black"/>
</svg>
