<svg width="16" height="16" viewBox="0 0 16 16" fill="none" xmlns="http://www.w3.org/2000/svg"><path d="M3.367 1.747 C 3.275 1.767,3.137 1.817,3.060 1.858 C 2.882 1.953,2.621 2.213,2.527 2.389 C 2.364 2.695,2.373 2.349,2.373 8.000 C 2.373 13.651,2.364 13.305,2.527 13.611 C 2.693 13.922,3.073 14.204,3.410 14.267 C 3.607 14.303,12.393 14.303,12.590 14.267 C 13.068 14.177,13.511 13.735,13.600 13.256 C 13.637 13.059,13.637 2.941,13.600 2.744 C 13.537 2.404,13.255 2.026,12.941 1.859 C 12.647 1.702,12.843 1.707,7.987 1.709 C 4.340 1.711,3.503 1.717,3.367 1.747 M12.373 8.000 L 12.373 13.040 8.000 13.040 L 3.627 13.040 3.627 8.000 L 3.627 2.960 8.000 2.960 L 12.373 2.960 12.373 8.000 M7.852 4.173 C 7.746 4.226,7.688 4.285,7.560 4.469 C 7.472 4.595,7.391 4.704,7.381 4.710 C 7.370 4.717,7.234 4.685,7.079 4.638 C 6.749 4.540,6.624 4.546,6.460 4.665 C 6.286 4.791,6.256 4.888,6.276 5.274 L 6.292 5.603 6.166 5.657 C 5.674 5.868,5.579 5.948,5.553 6.172 C 5.527 6.403,5.559 6.472,5.808 6.727 L 6.038 6.961 5.899 7.229 C 5.727 7.559,5.714 7.703,5.837 7.898 C 5.944 8.067,6.079 8.127,6.405 8.150 C 6.546 8.159,6.673 8.175,6.687 8.184 C 6.700 8.193,6.742 8.328,6.780 8.484 C 6.819 8.648,6.874 8.803,6.909 8.851 C 6.993 8.965,7.160 9.040,7.328 9.040 C 7.453 9.040,7.488 9.025,7.721 8.867 C 7.862 8.771,7.989 8.693,8.003 8.693 C 8.018 8.693,8.124 8.765,8.240 8.853 C 8.485 9.040,8.545 9.067,8.717 9.067 C 8.811 9.067,8.875 9.047,8.970 8.986 C 9.115 8.894,9.161 8.807,9.254 8.447 L 9.315 8.213 9.507 8.213 C 9.929 8.213,10.116 8.132,10.231 7.900 C 10.319 7.720,10.306 7.622,10.146 7.285 L 10.028 7.036 10.266 6.804 C 10.458 6.618,10.509 6.551,10.534 6.456 C 10.570 6.316,10.554 6.211,10.473 6.067 C 10.421 5.974,10.373 5.940,10.114 5.813 L 9.814 5.667 9.834 5.507 C 9.844 5.419,9.853 5.250,9.853 5.131 C 9.853 4.936,9.846 4.906,9.778 4.818 C 9.685 4.695,9.528 4.613,9.387 4.613 C 9.328 4.613,9.164 4.645,9.023 4.684 C 8.808 4.744,8.764 4.749,8.745 4.718 C 8.733 4.697,8.654 4.578,8.568 4.453 C 8.335 4.112,8.132 4.032,7.852 4.173 M8.121 5.595 C 8.176 5.688,8.310 5.781,8.440 5.817 C 8.530 5.842,8.590 5.838,8.727 5.797 C 8.767 5.785,8.773 5.802,8.774 5.925 C 8.774 6.005,8.796 6.114,8.824 6.176 C 8.872 6.281,9.025 6.427,9.088 6.427 C 9.154 6.427,9.148 6.490,9.073 6.569 C 8.919 6.732,8.886 6.880,8.957 7.087 C 9.012 7.246,9.026 7.229,8.799 7.265 C 8.664 7.287,8.520 7.417,8.464 7.567 C 8.438 7.636,8.414 7.697,8.411 7.702 C 8.407 7.707,8.348 7.679,8.280 7.639 C 8.109 7.539,7.918 7.538,7.750 7.637 L 7.628 7.708 7.610 7.634 C 7.555 7.403,7.390 7.249,7.156 7.212 L 7.045 7.194 7.095 7.084 C 7.185 6.887,7.153 6.693,7.003 6.515 L 6.931 6.429 7.032 6.377 C 7.225 6.278,7.333 6.100,7.333 5.884 L 7.333 5.766 7.439 5.793 C 7.498 5.807,7.603 5.811,7.672 5.801 C 7.777 5.785,7.820 5.760,7.919 5.655 C 7.986 5.585,8.048 5.526,8.058 5.524 C 8.069 5.522,8.097 5.554,8.121 5.595 M6.080 10.096 C 5.873 10.185,5.707 10.440,5.707 10.667 C 5.707 10.909,5.896 11.177,6.124 11.257 C 6.207 11.286,6.576 11.293,8.000 11.293 C 9.424 11.293,9.793 11.286,9.876 11.257 C 10.104 11.177,10.293 10.909,10.293 10.667 C 10.293 10.434,10.122 10.182,9.901 10.089 C 9.832 10.060,9.463 10.054,7.994 10.054 C 6.428 10.055,6.160 10.061,6.080 10.096 " stroke="none" fill-rule="evenodd" fill="black"></path></svg>