<svg width="16" height="16" viewBox="0 0 16 16" fill="none" xmlns="http://www.w3.org/2000/svg"><path d="M7.827 1.897 C 7.739 1.907,7.607 1.939,7.533 1.969 C 7.460 1.998,6.129 2.655,4.575 3.430 C 1.915 4.755,1.742 4.846,1.600 4.985 C 1.413 5.169,1.267 5.455,1.224 5.722 C 1.162 6.112,1.308 6.543,1.601 6.829 C 1.746 6.971,1.850 7.031,2.760 7.486 C 3.310 7.761,3.760 7.993,3.760 8.000 C 3.760 8.007,3.309 8.239,2.759 8.515 C 1.852 8.970,1.743 9.032,1.599 9.172 C 1.308 9.456,1.162 9.889,1.224 10.278 C 1.267 10.549,1.412 10.831,1.607 11.021 C 1.758 11.170,1.879 11.233,4.627 12.599 C 6.201 13.381,7.553 14.043,7.631 14.070 C 7.823 14.135,8.177 14.135,8.369 14.070 C 8.447 14.043,9.799 13.381,11.373 12.599 C 14.121 11.233,14.242 11.170,14.393 11.021 C 14.588 10.831,14.733 10.549,14.776 10.278 C 14.838 9.889,14.692 9.456,14.401 9.172 C 14.257 9.032,14.148 8.970,13.241 8.515 C 12.691 8.239,12.240 8.007,12.240 8.000 C 12.240 7.993,12.690 7.761,13.240 7.486 C 14.150 7.031,14.254 6.971,14.399 6.829 C 14.692 6.543,14.838 6.112,14.776 5.722 C 14.733 5.455,14.587 5.169,14.400 4.985 C 14.258 4.846,14.085 4.755,11.398 3.417 C 9.830 2.635,8.481 1.974,8.400 1.948 C 8.220 1.888,8.037 1.872,7.827 1.897 M10.772 4.502 C 12.289 5.260,13.531 5.892,13.530 5.907 C 13.530 5.921,12.916 6.242,12.165 6.620 L 10.800 7.307 10.667 7.240 C 10.595 7.203,10.531 7.173,10.526 7.173 C 10.521 7.173,10.477 7.256,10.428 7.358 L 10.339 7.542 9.170 8.117 L 8.001 8.692 6.831 8.117 L 5.661 7.542 5.572 7.358 C 5.523 7.256,5.479 7.173,5.474 7.173 C 5.469 7.173,5.405 7.203,5.333 7.240 L 5.200 7.307 3.835 6.620 C 3.084 6.242,2.470 5.921,2.470 5.907 C 2.469 5.885,7.957 3.125,8.000 3.125 C 8.007 3.125,9.255 3.745,10.772 4.502 M6.413 9.302 C 7.765 9.968,7.820 9.987,8.193 9.925 C 8.360 9.898,8.554 9.810,9.597 9.295 L 10.808 8.697 12.169 9.382 C 12.918 9.759,13.531 10.079,13.532 10.093 C 13.533 10.108,12.288 10.741,10.767 11.499 L 8.000 12.878 5.233 11.499 C 3.712 10.741,2.467 10.108,2.467 10.093 C 2.467 10.068,5.173 8.693,5.200 8.705 C 5.207 8.708,5.753 8.977,6.413 9.302 " stroke="none" fill-rule="evenodd" fill="black"></path></svg>