<svg width="16" height="16" viewBox="0 0 16 16" fill="none" xmlns="http://www.w3.org/2000/svg"><path d="M7.600 1.895 C 6.424 1.964,5.306 2.377,4.327 3.102 C 4.014 3.335,3.430 3.901,3.191 4.206 C 2.254 5.397,1.785 6.915,1.892 8.410 C 1.980 9.655,2.388 10.732,3.149 11.738 C 3.321 11.965,3.906 12.570,4.147 12.769 L 4.280 12.880 3.320 12.880 C 2.241 12.881,2.238 12.882,2.044 13.081 C 1.755 13.379,1.851 13.863,2.240 14.070 C 2.329 14.118,2.433 14.120,4.333 14.120 L 6.333 14.120 6.443 14.062 C 6.503 14.029,6.589 13.960,6.635 13.908 C 6.804 13.716,6.802 13.732,6.794 11.597 C 6.787 9.677,6.786 9.666,6.729 9.560 C 6.608 9.336,6.415 9.221,6.157 9.221 C 5.983 9.221,5.859 9.272,5.733 9.395 C 5.545 9.578,5.548 9.552,5.547 10.940 C 5.547 11.854,5.539 12.187,5.516 12.187 C 5.463 12.187,5.042 11.890,4.818 11.693 C 4.007 10.983,3.434 10.012,3.229 8.999 C 3.199 8.852,3.162 8.559,3.146 8.348 C 3.040 6.936,3.550 5.569,4.559 4.559 C 5.568 3.550,6.969 3.029,8.361 3.145 C 8.912 3.191,9.285 3.275,9.807 3.472 C 10.043 3.561,10.114 3.577,10.218 3.564 C 10.483 3.533,10.687 3.360,10.762 3.104 C 10.813 2.930,10.798 2.813,10.703 2.640 C 10.622 2.492,10.497 2.401,10.225 2.292 C 9.447 1.983,8.507 1.841,7.600 1.895 M12.107 4.111 C 11.637 4.197,11.463 4.830,11.817 5.165 C 12.207 5.535,12.861 5.255,12.862 4.718 C 12.863 4.314,12.516 4.035,12.107 4.111 M13.087 6.703 C 12.925 6.763,12.809 6.869,12.732 7.027 C 12.490 7.521,12.976 8.062,13.497 7.879 C 13.726 7.798,13.920 7.530,13.920 7.293 C 13.920 7.081,13.764 6.832,13.568 6.730 C 13.453 6.671,13.209 6.657,13.087 6.703 M12.794 9.440 C 12.621 9.471,12.451 9.598,12.368 9.757 C 12.146 10.181,12.438 10.668,12.912 10.666 C 13.304 10.664,13.604 10.300,13.521 9.928 C 13.447 9.595,13.126 9.380,12.794 9.440 M10.947 11.677 C 10.407 11.928,10.497 12.725,11.079 12.855 C 11.456 12.940,11.823 12.636,11.822 12.242 C 11.821 12.061,11.770 11.934,11.651 11.815 C 11.467 11.631,11.171 11.573,10.947 11.677 M8.420 12.705 C 8.260 12.762,8.143 12.868,8.065 13.027 C 7.824 13.521,8.309 14.062,8.830 13.879 C 8.991 13.822,9.162 13.648,9.216 13.485 C 9.377 13.001,8.900 12.533,8.420 12.705 " stroke="none" fill-rule="evenodd"></path></svg>