<svg width="16" height="16" viewBox="0 0 16 16" fill="none" xmlns="http://www.w3.org/2000/svg"><path d="M5.747 2.106 C 5.614 2.170,5.578 2.200,5.479 2.331 C 5.406 2.428,5.400 2.452,5.400 2.665 C 5.400 2.862,5.409 2.906,5.464 2.987 C 5.499 3.038,6.633 4.187,7.984 5.540 L 10.440 8.000 7.984 10.460 C 6.633 11.813,5.499 12.962,5.464 13.013 C 5.409 13.094,5.400 13.138,5.400 13.333 C 5.400 13.542,5.406 13.569,5.478 13.669 C 5.521 13.728,5.605 13.812,5.665 13.855 C 5.765 13.927,5.792 13.933,6.001 13.933 C 6.221 13.933,6.232 13.930,6.361 13.835 C 6.434 13.781,7.611 12.617,8.976 11.248 C 11.196 9.023,11.468 8.742,11.541 8.593 C 11.651 8.369,11.690 8.166,11.673 7.907 C 11.656 7.643,11.580 7.436,11.427 7.234 C 11.362 7.149,10.202 5.974,8.848 4.621 C 6.942 2.717,6.360 2.150,6.267 2.109 C 6.111 2.039,5.889 2.037,5.747 2.106 " stroke="none" fill-rule="evenodd" fill="black"></path></svg>