<svg width="16" height="16" viewBox="0 0 16 16" fill="none" xmlns="http://www.w3.org/2000/svg">
<path fill-rule="evenodd" clip-rule="evenodd" d="M8.37929 1.10298C8.14507 0.965675 7.85493 0.965675 7.62071 1.10298L0.37071 5.35298C0.14108 5.48759 0 5.73382 0 6C0 6.26618 0.14108 6.51241 0.37071 6.64702L2.67874 8.00001L0.37071 9.35299C0.14108 9.4876 0 9.73384 0 10C0 10.2662 0.14108 10.5124 0.37071 10.647L7.62071 14.897C7.85493 15.0343 8.14507 15.0343 8.37929 14.897L15.6293 10.647C15.8589 10.5124 16 10.2662 16 10C16 9.73384 15.8589 9.4876 15.6293 9.35299L13.3213 8.00001L15.6293 6.64702C15.8589 6.51241 16 6.26618 16 6C16 5.73382 15.8589 5.48759 15.6293 5.35298L8.37929 1.10298ZM11.8382 8.86937L8.37929 10.897C8.14507 11.0343 7.85493 11.0343 7.62071 10.897L4.16178 8.86937L2.23304 10L8 13.3806L13.767 10L11.8382 8.86937ZM8 9.38063L2.23304 6L8 2.61937L13.767 6L8 9.38063Z" fill="black"/>
</svg>
