<svg width="16" height="16" viewBox="0 0 16 16" fill="none" xmlns="http://www.w3.org/2000/svg"><path d="M3.147 1.589 C 2.953 1.642,2.793 1.739,2.604 1.918 C 2.423 2.091,2.334 2.231,2.264 2.457 C 2.215 2.613,2.213 2.803,2.213 7.983 C 2.213 13.879,2.203 13.503,2.373 13.799 C 2.466 13.961,2.715 14.208,2.880 14.302 C 3.159 14.461,2.883 14.453,8.000 14.453 C 13.143 14.453,12.838 14.463,13.132 14.294 C 13.295 14.200,13.542 13.951,13.634 13.787 C 13.797 13.499,13.787 13.889,13.787 7.998 C 13.787 2.803,13.785 2.613,13.736 2.457 C 13.709 2.368,13.656 2.244,13.619 2.181 C 13.537 2.040,13.281 1.794,13.120 1.700 C 12.844 1.538,13.125 1.547,7.988 1.548 C 3.943 1.550,3.273 1.556,3.147 1.589 M12.533 8.000 L 12.533 13.200 8.000 13.200 L 3.467 13.200 3.467 8.000 L 3.467 2.800 8.000 2.800 L 12.533 2.800 12.533 8.000 M7.660 4.400 C 5.918 4.645,4.911 6.437,5.601 8.061 C 6.058 9.134,7.273 9.790,8.430 9.588 C 10.126 9.291,11.076 7.530,10.399 5.939 C 10.163 5.385,9.651 4.870,9.077 4.610 C 8.681 4.431,8.078 4.341,7.660 4.400 M8.270 5.654 C 8.466 5.691,8.761 5.836,8.912 5.970 C 9.208 6.234,9.360 6.583,9.360 7.000 C 9.360 7.306,9.296 7.530,9.144 7.757 C 8.596 8.579,7.404 8.579,6.856 7.757 C 6.704 7.530,6.640 7.306,6.640 7.000 C 6.640 6.447,6.915 6.002,7.402 5.769 C 7.686 5.633,7.963 5.596,8.270 5.654 M5.987 10.231 C 5.895 10.251,5.725 10.384,5.645 10.497 C 5.545 10.640,5.519 10.879,5.585 11.052 C 5.649 11.220,5.816 11.377,5.981 11.427 C 6.182 11.486,9.817 11.487,10.017 11.427 C 10.260 11.355,10.452 11.102,10.453 10.853 C 10.454 10.602,10.363 10.437,10.149 10.298 L 10.040 10.227 8.040 10.223 C 6.940 10.221,6.016 10.225,5.987 10.231 " stroke="none" fill-rule="evenodd" fill="black"></path></svg>