<svg width="16" height="16" viewBox="0 0 16 16" fill="none" xmlns="http://www.w3.org/2000/svg"><path d="M13.364 2.563 C 13.199 2.594,13.042 2.716,12.939 2.893 C 12.897 2.968,12.892 3.207,12.880 6.253 L 12.867 9.533 8.441 9.540 L 4.016 9.547 4.857 8.700 C 5.799 7.752,5.807 7.742,5.779 7.436 C 5.752 7.139,5.526 6.914,5.226 6.887 C 4.911 6.858,4.970 6.810,3.382 8.397 C 1.967 9.810,1.950 9.828,1.906 9.981 C 1.857 10.154,1.870 10.302,1.948 10.453 C 2.008 10.569,4.783 13.340,4.893 13.394 C 5.290 13.590,5.784 13.291,5.786 12.853 C 5.787 12.577,5.792 12.585,4.872 11.660 L 4.015 10.800 8.468 10.800 C 12.189 10.799,12.949 10.793,13.097 10.762 C 13.604 10.654,14.020 10.222,14.105 9.715 C 14.127 9.585,14.133 8.613,14.128 6.267 L 14.120 3.000 14.062 2.891 C 13.925 2.636,13.654 2.509,13.364 2.563 " stroke="none" fill-rule="evenodd" fill="black"></path></svg>