<svg width="16" height="16" viewBox="0 0 16 16" fill="none" xmlns="http://www.w3.org/2000/svg">
<path fill-rule="evenodd" clip-rule="evenodd" d="M5.67809 4.27795C5.67809 2.99226 6.72035 1.95 8.00604 1.95C9.29173 1.95 10.334 2.99226 10.334 4.27795C10.334 5.56364 9.29173 6.6059 8.00604 6.6059C6.72035 6.6059 5.67809 5.56364 5.67809 4.27795ZM8.00604 0.550003C5.94715 0.550003 4.27809 2.21906 4.27809 4.27795C4.27809 6.33684 5.94715 8.0059 8.00604 8.0059C10.0649 8.0059 11.734 6.33684 11.734 4.27795C11.734 2.21906 10.0649 0.550003 8.00604 0.550003ZM2.43795 13.2307C2.75312 12.6339 3.26923 11.9783 4.12407 11.468C4.97946 10.9574 6.21487 10.568 8.00602 10.568C9.79717 10.568 11.0326 10.9574 11.888 11.468C12.7428 11.9783 13.2589 12.6339 13.5741 13.2307C13.6852 13.441 13.6501 13.6068 13.5375 13.7483C13.4062 13.9131 13.1448 14.0593 12.8065 14.0593H3.20556C2.86726 14.0593 2.60581 13.9131 2.47457 13.7483C2.36192 13.6068 2.32685 13.441 2.43795 13.2307ZM8.00602 9.16802C6.00712 9.16802 4.51442 9.60457 3.40651 10.2659C2.29805 10.9275 1.61565 11.7898 1.19999 12.5769C0.81426 13.3073 0.940533 14.0693 1.3794 14.6204C1.79969 15.1482 2.47995 15.4593 3.20556 15.4593H12.8065C13.5321 15.4593 14.2123 15.1482 14.6326 14.6204C15.0715 14.0693 15.1978 13.3073 14.812 12.5769C14.3964 11.7898 13.714 10.9275 12.6055 10.2659C11.4976 9.60457 10.0049 9.16802 8.00602 9.16802Z" fill="#0E1438"/>
</svg>
