<svg width="16" height="16" viewBox="0 0 16 16" fill="none" xmlns="http://www.w3.org/2000/svg">
<path fill-rule="evenodd" clip-rule="evenodd" d="M1.82999 1.65001C1.82999 1.26341 2.14339 0.950012 2.52999 0.950012H11.7175C13.0706 0.950012 14.1675 2.04691 14.1675 3.40001V12.5875C14.1675 13.9406 13.0706 15.0375 11.7175 15.0375H2.52999C2.14339 15.0375 1.82999 14.7241 1.82999 14.3375V1.65001ZM3.22999 2.35001V13.6375H11.7175C12.2974 13.6375 12.7675 13.1674 12.7675 12.5875V3.40001C12.7675 2.82011 12.2974 2.35001 11.7175 2.35001H3.22999ZM7.49874 4.97501C6.79803 4.97501 6.22999 5.54305 6.22999 6.24376C6.22999 6.94447 6.79803 7.51251 7.49874 7.51251C8.19945 7.51251 8.76749 6.94447 8.76749 6.24376C8.76749 5.54305 8.19945 4.97501 7.49874 4.97501ZM4.82999 6.24376C4.82999 4.76985 6.02483 3.57501 7.49874 3.57501C8.97265 3.57501 10.1675 4.76985 10.1675 6.24376C10.1675 7.71767 8.97265 8.91251 7.49874 8.91251C6.02483 8.91251 4.82999 7.71767 4.82999 6.24376ZM5.52999 10.1375C5.14339 10.1375 4.82999 10.4509 4.82999 10.8375C4.82999 11.2241 5.14339 11.5375 5.52999 11.5375H9.46749C9.85409 11.5375 10.1675 11.2241 10.1675 10.8375C10.1675 10.4509 9.85409 10.1375 9.46749 10.1375H5.52999Z" fill="black"/>
</svg>
