<svg width="16" height="16" viewBox="0 0 16 16" fill="none" xmlns="http://www.w3.org/2000/svg">
<path d="M13.7273 1H2.27273C1.56955 1 1 1.56955 1 2.27273V13.7273C1 14.4305 1.56955 15 2.27273 15H13.7273C14.4305 15 15 14.4305 15 13.7273V2.27273C15 1.56955 14.4305 1 13.7273 1ZM5.42527 12.4545H3.548V6.41418H5.42527V12.4545ZM4.46755 5.55064C3.86236 5.55064 3.373 5.06 3.373 4.45609C3.373 3.85218 3.863 3.36218 4.46755 3.36218C5.07082 3.36218 5.56145 3.85282 5.56145 4.45609C5.56145 5.06 5.07082 5.55064 4.46755 5.55064ZM12.4571 12.4545H10.5811V9.51709C10.5811 8.81645 10.5684 7.91536 9.60555 7.91536C8.62873 7.91536 8.47855 8.67836 8.47855 9.46618V12.4545H6.60255V6.41418H8.40345V7.23955H8.42891C8.67964 6.76482 9.29182 6.264 10.205 6.264C12.1058 6.264 12.4571 7.51509 12.4571 9.14164V12.4545V12.4545Z" fill="#0E1438"/>
</svg>
