<svg width="16" height="16" viewBox="0 0 16 16" fill="none" xmlns="http://www.w3.org/2000/svg"><path d="M7.560 1.230 C 6.670 1.278,5.832 1.504,4.983 1.924 C 4.302 2.262,3.736 2.668,3.204 3.200 C 2.232 4.172,1.597 5.360,1.337 6.693 C 1.237 7.202,1.217 7.421,1.217 8.000 C 1.217 8.579,1.237 8.798,1.337 9.307 C 1.719 11.267,2.947 12.953,4.716 13.946 C 5.801 14.556,7.201 14.869,8.429 14.777 C 10.142 14.649,11.614 13.982,12.798 12.798 C 13.768 11.828,14.403 10.639,14.663 9.307 C 14.763 8.798,14.783 8.579,14.783 8.000 C 14.783 7.421,14.763 7.202,14.663 6.693 C 14.403 5.360,13.768 4.172,12.796 3.200 C 12.251 2.655,11.687 2.254,10.974 1.905 C 9.892 1.375,8.820 1.163,7.560 1.230 M8.826 2.523 C 9.673 2.646,10.507 2.987,11.253 3.514 C 11.564 3.734,12.195 4.355,12.432 4.676 C 13.383 5.958,13.739 7.550,13.425 9.113 C 13.092 10.773,11.972 12.221,10.440 12.973 C 8.575 13.888,6.386 13.687,4.693 12.446 C 4.383 12.218,3.805 11.642,3.569 11.324 C 2.767 10.248,2.380 8.930,2.479 7.609 C 2.559 6.522,2.922 5.545,3.568 4.676 C 3.793 4.373,4.373 3.793,4.676 3.568 C 5.508 2.950,6.515 2.564,7.515 2.481 C 7.873 2.451,8.462 2.470,8.826 2.523 M6.007 5.228 C 5.646 5.279,5.335 5.618,5.240 6.067 C 5.191 6.300,5.191 6.367,5.240 6.599 C 5.342 7.079,5.665 7.406,6.084 7.456 C 6.201 7.469,6.278 7.460,6.428 7.415 C 6.600 7.362,6.641 7.336,6.813 7.165 C 6.937 7.041,7.011 6.944,7.021 6.893 C 7.029 6.849,7.055 6.748,7.078 6.668 C 7.101 6.587,7.120 6.437,7.119 6.334 C 7.117 5.622,6.632 5.140,6.007 5.228 M9.678 5.228 C 9.321 5.285,9.004 5.616,8.908 6.030 C 8.868 6.204,8.874 6.502,8.922 6.668 C 8.945 6.748,8.971 6.849,8.979 6.893 C 8.989 6.944,9.063 7.041,9.187 7.165 C 9.359 7.336,9.400 7.362,9.572 7.415 C 9.801 7.484,9.991 7.473,10.200 7.376 C 10.365 7.300,10.558 7.105,10.651 6.923 C 10.722 6.782,10.799 6.476,10.799 6.333 C 10.799 6.289,10.781 6.170,10.760 6.067 C 10.637 5.487,10.196 5.145,9.678 5.228 M5.977 9.282 C 5.868 9.304,5.711 9.399,5.632 9.492 C 5.505 9.642,5.463 9.876,5.525 10.090 C 5.589 10.311,6.134 10.762,6.590 10.970 C 7.076 11.193,7.480 11.282,8.000 11.282 C 8.520 11.282,8.924 11.193,9.410 10.970 C 9.866 10.762,10.411 10.311,10.475 10.090 C 10.568 9.769,10.434 9.458,10.144 9.321 C 10.013 9.258,9.747 9.258,9.628 9.319 C 9.579 9.345,9.441 9.448,9.323 9.550 C 8.927 9.886,8.528 10.032,8.000 10.032 C 7.472 10.032,7.073 9.886,6.677 9.550 C 6.559 9.448,6.427 9.348,6.384 9.327 C 6.278 9.273,6.116 9.256,5.977 9.282 " stroke="none" fill-rule="evenodd" fill="black"></path></svg>