<svg width="16" height="16" viewBox="0 0 16 16" fill="none" xmlns="http://www.w3.org/2000/svg"><path d="M7.651 1.382 C 7.204 1.499,6.825 1.882,6.706 2.338 C 6.628 2.641,6.669 2.995,6.817 3.287 C 6.908 3.466,7.201 3.759,7.380 3.850 C 7.553 3.938,7.808 3.999,8.000 3.999 C 8.192 3.999,8.447 3.938,8.620 3.850 C 8.799 3.759,9.092 3.466,9.183 3.287 C 9.444 2.773,9.364 2.186,8.977 1.769 C 8.716 1.488,8.373 1.336,8.000 1.336 C 7.905 1.336,7.748 1.357,7.651 1.382 M7.651 6.716 C 7.204 6.832,6.825 7.215,6.706 7.672 C 6.628 7.975,6.669 8.328,6.817 8.620 C 6.908 8.799,7.201 9.092,7.380 9.183 C 7.773 9.382,8.227 9.382,8.620 9.183 C 8.799 9.092,9.092 8.799,9.183 8.620 C 9.444 8.106,9.364 7.519,8.977 7.102 C 8.716 6.821,8.373 6.670,8.000 6.670 C 7.905 6.670,7.748 6.690,7.651 6.716 M7.651 12.049 C 7.204 12.166,6.825 12.549,6.706 13.005 C 6.628 13.308,6.669 13.661,6.817 13.954 C 6.908 14.133,7.201 14.426,7.380 14.516 C 7.553 14.605,7.808 14.666,8.000 14.666 C 8.192 14.666,8.447 14.605,8.620 14.516 C 8.799 14.426,9.092 14.133,9.183 13.954 C 9.444 13.439,9.364 12.852,8.977 12.436 C 8.716 12.155,8.373 12.003,8.000 12.003 C 7.905 12.003,7.748 12.024,7.651 12.049 " stroke="none" fill-rule="evenodd" fill="black"></path></svg>