<svg width="16" height="16" viewBox="0 0 16 16" fill="none" xmlns="http://www.w3.org/2000/svg">
<g clip-path="url(#clip0_1768_52)">
<g clip-path="url(#clip1_1768_52)">
<path d="M13.4998 7.99989C13.4998 6.99789 13.2319 6.05851 12.7638 5.24943M13.4998 7.99989C13.4998 9.00182 13.2319 9.94122 12.7638 10.7502M13.4998 7.99989H9.49984M13.4998 7.99989L14.8332 8.00002M12.7638 5.24943L13.9177 4.58323M12.7638 5.24943C12.2808 4.41481 11.5849 3.71887 10.7503 3.23596M12.7638 10.7502L13.9177 11.4164M12.7638 10.7502C12.2809 11.5849 11.585 12.2809 10.7503 12.7638M9.49984 7.99989C9.49984 8.82829 8.82824 9.49989 7.99984 9.49989C7.72657 9.49989 7.47037 9.42682 7.2497 9.29915M9.49984 7.99989C9.49984 7.17149 8.82824 6.49989 7.99984 6.49989C7.72657 6.49989 7.47037 6.57297 7.2497 6.70062M7.99984 13.4999C6.99784 13.4999 6.05846 13.232 5.24938 12.7638M7.99984 13.4999C9.00184 13.4999 9.94124 13.232 10.7503 12.7638M7.99984 13.4999V14.8334M5.24938 12.7638L4.58318 13.9178M5.24938 12.7638L7.2497 9.29915M5.24938 12.7638C4.41476 12.2809 3.71882 11.585 3.23591 10.7504M10.7503 12.7638L11.4165 13.9178M2.49984 7.99989C2.49984 9.00189 2.76778 9.94129 3.23591 10.7504M2.49984 7.99989C2.49984 6.99789 2.7678 6.05844 3.23596 5.24934M2.49984 7.99989H1.1665M3.23591 10.7504L2.082 11.4166M3.23596 5.24934L2.082 4.58309M3.23596 5.24934C3.71887 4.41476 4.4148 3.71885 5.24938 3.23596M7.99984 2.49989C6.99784 2.49989 6.05846 2.76783 5.24938 3.23596M7.99984 2.49989C9.00184 2.49989 9.94124 2.76783 10.7503 3.23596M7.99984 2.49989V1.16669M5.24938 3.23596L4.58318 2.08205M5.24938 3.23596L7.2497 6.70062M10.7503 3.23596L11.4165 2.08205M7.2497 9.29915C6.80144 9.03975 6.49984 8.55502 6.49984 7.99989C6.49984 7.44475 6.80144 6.96002 7.2497 6.70062" stroke="black" stroke-width="1.5" stroke-linecap="round" stroke-linejoin="round"/>
</g>
</g>
<defs>
<clipPath id="clip0_1768_52">
<rect width="16" height="16" fill="white"/>
</clipPath>
<clipPath id="clip1_1768_52">
<rect width="16" height="16" fill="white"/>
</clipPath>
</defs>
</svg>
