<svg width="16" height="16" viewBox="0 0 16 16" fill="none" xmlns="http://www.w3.org/2000/svg"><path d="M7.606 1.229 C 6.170 1.318,4.764 2.034,3.821 3.157 C 2.658 4.543,2.252 6.435,2.749 8.159 C 3.108 9.404,3.856 10.438,4.937 11.183 L 5.194 11.360 5.207 12.207 C 5.217 12.832,5.231 13.099,5.261 13.227 C 5.548 14.457,6.484 15.296,7.730 15.441 C 8.055 15.479,8.418 15.445,8.770 15.344 C 9.689 15.080,10.414 14.357,10.676 13.440 C 10.773 13.100,10.800 12.804,10.800 12.049 L 10.800 11.364 11.087 11.165 C 12.000 10.530,12.674 9.682,13.080 8.659 C 13.773 6.908,13.504 4.921,12.366 3.398 C 12.111 3.055,11.840 2.768,11.522 2.502 C 10.410 1.572,9.080 1.139,7.606 1.229 M8.310 2.480 C 9.343 2.560,10.247 2.974,10.970 3.697 C 12.096 4.823,12.493 6.506,11.987 8.016 C 11.888 8.311,11.686 8.717,11.498 9.000 C 11.182 9.475,10.794 9.858,10.273 10.210 C 9.886 10.470,9.726 10.664,9.608 11.013 L 9.550 11.187 7.992 11.194 L 6.434 11.200 6.417 11.100 C 6.390 10.933,6.249 10.673,6.101 10.516 C 6.023 10.434,5.839 10.284,5.690 10.183 C 5.211 9.857,4.891 9.548,4.573 9.106 C 3.863 8.115,3.624 6.844,3.924 5.640 C 4.365 3.867,5.931 2.573,7.760 2.471 C 7.841 2.467,7.925 2.461,7.947 2.459 C 7.969 2.456,8.132 2.466,8.310 2.480 M9.546 12.607 C 9.543 13.075,9.390 13.445,9.070 13.760 C 8.588 14.235,7.919 14.344,7.312 14.048 C 7.186 13.987,7.071 13.898,6.920 13.747 C 6.606 13.433,6.490 13.171,6.461 12.713 L 6.445 12.453 7.996 12.453 L 9.547 12.453 9.546 12.607 " stroke="none" fill-rule="evenodd" fill="black"></path></svg>