<svg width="17" height="17" viewBox="0 0 17 17" fill="none" xmlns="http://www.w3.org/2000/svg">
<path d="M2.77714 7.33688C2.77714 6.20577 2.77714 5.64021 2.9655 5.19539C3.20654 4.62615 3.65964 4.17305 4.22889 3.93201C4.67371 3.74365 5.23926 3.74365 6.37037 3.74365H9.68368C10.8148 3.74365 11.3803 3.74365 11.8252 3.93201C12.3944 4.17305 12.8475 4.62615 13.0885 5.19539C13.2769 5.64021 13.2769 6.20577 13.2769 7.33688V10.6476C13.2769 11.7787 13.2769 12.3442 13.0885 12.7891C12.8475 13.3583 12.3944 13.8114 11.8252 14.0525C11.3803 14.2408 10.8148 14.2408 9.68368 14.2408H6.37037C5.23926 14.2408 4.67371 14.2408 4.22889 14.0525C3.65964 13.8114 3.20654 13.3583 2.9655 12.7891C2.77714 12.3442 2.77714 11.7787 2.77714 10.6476V7.33688Z" fill="url(#paint0_linear_1551_222)"/>
<path d="M6.54913 1.91042C7.66393 1.91066 8.77862 1.91083 9.89319 1.91095C10.0471 1.91095 10.1418 1.91582 10.1772 1.92557C10.4969 2.01309 10.5069 2.49313 10.1802 2.59368C10.1428 2.60518 10.0811 2.61088 9.99515 2.61076C9.13122 2.60982 8.26724 2.61046 7.40319 2.6127C6.91734 2.61393 6.43185 2.60864 5.94617 2.6134C5.89863 2.60565 5.85331 2.59221 5.81023 2.57307C5.54098 2.4528 5.56105 2.04672 5.82291 1.94018C5.86529 1.92293 5.92804 1.91377 6.01115 1.91271C6.19042 1.91025 6.36974 1.90948 6.54913 1.91042Z" fill="url(#paint1_linear_1551_222)"/>
<path d="M1.62971 5.42584C1.37225 5.52603 1.12044 5.32352 1.15777 5.05057C1.17115 4.95302 1.20884 4.81478 1.27082 4.63587C1.71969 3.3398 2.78225 2.37056 4.1146 2.06028C4.38297 1.99777 4.6376 2.22616 4.54374 2.50193C4.46274 2.73949 4.23822 2.74072 4.04891 2.80077C2.90975 3.16317 2.11767 4.05264 1.83433 5.20836C1.80944 5.30991 1.74123 5.3824 1.62971 5.42584Z" fill="url(#paint2_linear_1551_222)"/>
<path d="M13.3209 2.69035C14.0287 3.20385 14.5196 3.87777 14.7936 4.71212C14.8758 4.96253 14.9899 5.3112 14.6545 5.43253C14.4773 5.49663 14.253 5.40012 14.2056 5.20343C14.0343 4.49358 13.6622 3.87302 13.101 3.40495C12.7022 3.07636 12.2502 2.85236 11.745 2.73297C11.4899 2.67274 11.4002 2.3725 11.558 2.17281C11.6723 2.02806 11.8266 2.03369 12.0035 2.07877C12.4791 2.20028 12.9182 2.40414 13.3209 2.69035Z" fill="url(#paint3_linear_1551_222)"/>
<path d="M14.6753 6.50848H14.664C14.4739 6.50848 14.3197 6.66261 14.3197 6.85274V10.9664C14.3197 11.1565 14.4739 11.3106 14.664 11.3106H14.6753C14.8654 11.3106 15.0195 11.1565 15.0195 10.9664V6.85274C15.0195 6.66261 14.8654 6.50848 14.6753 6.50848Z" fill="url(#paint4_linear_1551_222)"/>
<path d="M1.37507 6.51076H1.3638C1.17367 6.51076 1.01953 6.6649 1.01953 6.85503V10.9686C1.01953 11.1588 1.17367 11.3129 1.3638 11.3129H1.37507C1.5652 11.3129 1.71934 11.1588 1.71934 10.9686V6.85503C1.71934 6.6649 1.5652 6.51076 1.37507 6.51076Z" fill="url(#paint5_linear_1551_222)"/>
<path d="M1.88399 12.8062C2.22262 13.9522 3.12458 14.8104 4.28611 15.0874C4.7415 15.1958 4.60097 15.8779 4.08994 15.7564C3.03671 15.5059 2.13792 14.8273 1.59343 13.894C1.41146 13.5794 1.27094 13.2293 1.17185 12.8435C1.07887 12.482 1.43441 12.2179 1.73589 12.4602C1.83045 12.5361 1.84789 12.6634 1.88399 12.8062Z" fill="url(#paint6_linear_1551_222)"/>
<path d="M11.5501 15.637C11.4497 15.5037 11.4509 15.3613 11.5538 15.2097C11.6269 15.1022 11.7529 15.0911 11.8672 15.0583C13.0714 14.713 13.9207 13.8101 14.2095 12.6C14.2185 12.5623 14.2565 12.4984 14.2921 12.4688C14.4446 12.3418 14.5962 12.3322 14.7469 12.4401C14.8637 12.5236 14.9074 12.6646 14.8771 12.8011C14.5559 14.2498 13.3949 15.4073 11.9614 15.7532C11.7927 15.7939 11.6552 15.7762 11.5501 15.637Z" fill="url(#paint7_linear_1551_222)"/>
<path d="M6.27177 15.2101C7.50867 15.2106 8.74546 15.2107 9.98212 15.2105C10.0801 15.2103 10.1504 15.2175 10.1927 15.2319C10.4558 15.321 10.4976 15.6716 10.2898 15.8388C10.2116 15.9016 10.1112 15.9104 9.99867 15.9104C8.66445 15.9101 7.32935 15.9104 5.99337 15.9113C5.7456 15.9113 5.58535 15.7331 5.62497 15.4903C5.67851 15.1615 6.02841 15.2117 6.27177 15.2101Z" fill="url(#paint8_linear_1551_222)"/>
<path d="M9.10111 5.98706C9.05439 6.11044 8.98683 6.24803 8.89843 6.39983C8.68934 6.75871 8.4809 7.11813 8.27311 7.47807L7.04642 9.59545C7.04605 9.59613 7.04585 9.59689 7.04585 9.59766C7.04585 9.59844 7.04605 9.5992 7.04643 9.59986C7.0468 9.60052 7.04734 9.60106 7.04799 9.60143C7.04864 9.6018 7.04938 9.60199 7.05012 9.60196C7.48766 9.60032 7.92174 9.60138 8.35235 9.60513C8.44322 9.60596 8.51636 9.61412 8.57177 9.62961C8.95636 9.73791 9.17948 10.1415 9.03807 10.5214C9.03621 10.5265 9.03283 10.5309 9.02838 10.534C9.02393 10.5371 9.01864 10.5387 9.01324 10.5386C7.63001 10.5367 6.24413 10.536 4.85861 10.5379C4.72865 10.5381 4.58601 10.5228 4.47771 10.4499C4.24914 10.2967 4.20846 10.0123 4.36853 9.78898C4.47454 9.66982 4.6126 9.60895 4.78271 9.60637C5.17411 9.6005 5.56311 9.59879 5.9497 9.60126C5.95312 9.60126 5.95648 9.60037 5.95944 9.59867C5.96241 9.59697 5.96488 9.59453 5.9666 9.59157L7.18801 7.48458L7.47416 6.99521C7.4772 6.99003 7.47809 6.98389 7.47663 6.97813C7.47358 6.96639 7.468 6.95389 7.4599 6.94062C7.31843 6.70817 7.16582 6.44256 7.00205 6.14378C6.94863 6.04634 6.93032 5.94204 6.94711 5.83086C7.00997 5.53713 7.31427 5.36966 7.58845 5.49258C7.78779 5.58221 7.91123 5.85551 8.01266 6.0376C8.01371 6.03946 8.01523 6.041 8.01708 6.04206C8.01893 6.04313 8.02103 6.04367 8.02316 6.04363C8.02529 6.04359 8.02737 6.04298 8.02918 6.04186C8.03099 6.04073 8.03247 6.03914 8.03344 6.03725C8.1074 5.89267 8.19422 5.7215 8.30586 5.60035C8.5406 5.34589 8.96587 5.43869 9.07805 5.76271C9.09648 5.81601 9.10417 5.89079 9.10111 5.98706Z" fill="white"/>
<path d="M8.91393 7.58936L9.81642 9.14517C9.89977 9.29145 9.98307 9.43538 10.0663 9.57696C10.0843 9.60742 10.092 9.60232 10.1227 9.60161C10.3572 9.59621 10.7372 9.5975 11.2627 9.60549C11.5476 9.60989 11.7956 9.81046 11.7663 10.1128C11.7564 10.217 11.7143 10.3077 11.6402 10.3851C11.5015 10.5302 11.3539 10.5305 11.1334 10.5358C10.9667 10.5397 10.8001 10.5401 10.6335 10.537C10.6324 10.537 10.6313 10.5373 10.6303 10.5378C10.6293 10.5384 10.6285 10.5392 10.6279 10.5401C10.6273 10.5411 10.627 10.5422 10.627 10.5433C10.627 10.5445 10.6273 10.5456 10.6279 10.5465L11.0369 11.2603C11.1928 11.4804 11.1937 11.7803 10.9644 11.9502C10.7645 12.0985 10.4562 12.0612 10.3121 11.8449C10.1841 11.6528 10.0721 11.4541 9.95695 11.2543C9.49416 10.4563 9.03133 9.65843 8.56843 8.8606C8.30076 8.39946 8.29072 7.93104 8.53832 7.45535C8.58199 7.3754 8.63429 7.30238 8.69522 7.23629C8.69616 7.23529 8.69731 7.23451 8.69859 7.23403C8.69987 7.23355 8.70125 7.23337 8.7026 7.23351C8.70395 7.23364 8.70524 7.23409 8.70638 7.23482C8.70751 7.23555 8.70845 7.23653 8.70913 7.23769L8.91393 7.58936Z" fill="white"/>
<path d="M6.12897 11.1763C6.02143 11.3626 5.91319 11.5491 5.80424 11.7359C5.76462 11.8042 5.69225 11.9041 5.62181 11.953C5.41313 12.0981 5.14529 12.059 4.98821 11.8637C4.83941 11.6785 4.88009 11.4612 5.00371 11.2604L5.28441 10.7728C5.28724 10.7678 5.29106 10.7634 5.29563 10.76C5.3002 10.7565 5.30543 10.754 5.311 10.7526C5.6707 10.66 5.97077 10.7493 6.2112 11.0206C6.21496 11.0248 6.21537 11.0293 6.21243 11.0342L6.12897 11.1763Z" fill="white"/>
<defs>
<linearGradient id="paint0_linear_1551_222" x1="8.01953" y1="1.91003" x2="8.01953" y2="15.9113" gradientUnits="userSpaceOnUse">
<stop stop-color="#15B8F5"/>
<stop offset="1" stop-color="#1F74F3"/>
</linearGradient>
<linearGradient id="paint1_linear_1551_222" x1="8.01953" y1="1.91003" x2="8.01953" y2="15.9113" gradientUnits="userSpaceOnUse">
<stop stop-color="#15B8F5"/>
<stop offset="1" stop-color="#1F74F3"/>
</linearGradient>
<linearGradient id="paint2_linear_1551_222" x1="8.01953" y1="1.91003" x2="8.01953" y2="15.9113" gradientUnits="userSpaceOnUse">
<stop stop-color="#15B8F5"/>
<stop offset="1" stop-color="#1F74F3"/>
</linearGradient>
<linearGradient id="paint3_linear_1551_222" x1="8.01953" y1="1.91003" x2="8.01953" y2="15.9113" gradientUnits="userSpaceOnUse">
<stop stop-color="#15B8F5"/>
<stop offset="1" stop-color="#1F74F3"/>
</linearGradient>
<linearGradient id="paint4_linear_1551_222" x1="8.01953" y1="1.91003" x2="8.01953" y2="15.9113" gradientUnits="userSpaceOnUse">
<stop stop-color="#15B8F5"/>
<stop offset="1" stop-color="#1F74F3"/>
</linearGradient>
<linearGradient id="paint5_linear_1551_222" x1="8.01953" y1="1.91003" x2="8.01953" y2="15.9113" gradientUnits="userSpaceOnUse">
<stop stop-color="#15B8F5"/>
<stop offset="1" stop-color="#1F74F3"/>
</linearGradient>
<linearGradient id="paint6_linear_1551_222" x1="8.01953" y1="1.91003" x2="8.01953" y2="15.9113" gradientUnits="userSpaceOnUse">
<stop stop-color="#15B8F5"/>
<stop offset="1" stop-color="#1F74F3"/>
</linearGradient>
<linearGradient id="paint7_linear_1551_222" x1="8.01953" y1="1.91003" x2="8.01953" y2="15.9113" gradientUnits="userSpaceOnUse">
<stop stop-color="#15B8F5"/>
<stop offset="1" stop-color="#1F74F3"/>
</linearGradient>
<linearGradient id="paint8_linear_1551_222" x1="8.01953" y1="1.91003" x2="8.01953" y2="15.9113" gradientUnits="userSpaceOnUse">
<stop stop-color="#15B8F5"/>
<stop offset="1" stop-color="#1F74F3"/>
</linearGradient>
</defs>
</svg>
