<svg width="16" height="16" viewBox="0 0 16 16" fill="none" xmlns="http://www.w3.org/2000/svg">
<path d="M5.83199 11.8333V11.4003C5.83199 11.1483 5.68772 10.9211 5.47296 10.7892C5.32847 10.7004 5.18901 10.6043 5.05509 10.5013C3.90605 9.61761 3.16553 8.22888 3.16553 6.66728C3.16553 3.99756 5.32975 1.83334 7.99944 1.83334C10.6692 1.83334 12.8334 3.99756 12.8334 6.66728C12.8334 8.22888 12.0928 9.61761 10.9438 10.5013C10.8099 10.6043 10.6704 10.7004 10.5259 10.7892C10.3112 10.9211 10.1669 11.1483 10.1669 11.4003V11.8333M5.83199 11.8333V12.6659C5.83199 13.8629 6.80237 14.8333 7.99944 14.8333C9.19651 14.8333 10.1669 13.8629 10.1669 12.6659V11.8333M5.83199 11.8333H10.1669" stroke="black" stroke-width="1.5" stroke-linecap="square" stroke-linejoin="round"/>
</svg>
