<svg width="16" height="16" viewBox="0 0 16 16" fill="none" xmlns="http://www.w3.org/2000/svg">
<g clip-path="url(#clip0_240_108)">
<path fill-rule="evenodd" clip-rule="evenodd" d="M14.3375 1.65L15.0358 1.69817C15.0507 1.48255 14.9652 1.27216 14.804 1.12812C14.6429 0.984085 14.4243 0.922554 14.2117 0.961409L14.3375 1.65ZM3.09484 13.4804C4.39071 14.5177 6.13202 15.0374 7.9938 15.0374C9.67299 15.0374 10.9387 14.052 11.8614 12.7623C12.7807 11.4776 13.4296 9.80275 13.8897 8.18525C14.3526 6.55807 14.6384 4.93824 14.8085 3.73001C14.8937 3.1246 14.9504 2.61951 14.9858 2.26465C15.0035 2.08716 15.0159 1.94707 15.0239 1.85062C15.0279 1.80239 15.0309 1.76505 15.0328 1.73939L15.035 1.70974L15.0356 1.70166L15.0358 1.69933L15.0358 1.6986C15.0358 1.69836 15.0358 1.69817 14.3375 1.65C14.2117 0.961409 14.2115 0.961441 14.2113 0.961482L14.2106 0.961608L14.2083 0.96202L14.2004 0.963485L14.1711 0.968981C14.1457 0.973786 14.1086 0.980878 14.0606 0.990263C13.9647 1.00903 13.8252 1.03699 13.6483 1.0742C13.2946 1.1486 12.7909 1.26011 12.1872 1.40931C10.9818 1.7072 9.36758 2.1577 7.74752 2.76662C6.1357 3.37244 4.47672 4.15016 3.20821 5.11685C1.95393 6.0727 0.950094 7.31748 0.950094 8.86871C0.950094 10.2879 1.37234 11.5017 2.10453 12.4673C1.90243 12.7348 1.72674 12.9776 1.58007 13.186C1.41301 13.4234 1.28319 13.6168 1.19445 13.7519C1.15007 13.8195 1.11594 13.8725 1.09253 13.9093L1.0655 13.952L1.05813 13.9638L1.056 13.9672L1.05532 13.9683L1.05508 13.9687C1.05499 13.9688 1.05491 13.969 1.65009 14.3374L1.05491 13.969C0.85142 14.2977 0.952933 14.7291 1.28165 14.9326C1.6103 15.136 2.04164 15.0346 2.24517 14.706L2.24523 14.7059L2.24528 14.7059L2.24621 14.7044L2.25123 14.6963L2.27335 14.6614C2.29341 14.6299 2.324 14.5823 2.36464 14.5204C2.44595 14.3967 2.56735 14.2157 2.725 13.9917C2.83213 13.8395 2.95581 13.6676 3.09484 13.4804ZM3.95989 12.3796C4.9577 13.1827 6.37341 13.6374 7.9938 13.6374C9.04897 13.6374 9.94344 13.037 10.7228 11.9477C11.5057 10.8536 12.1009 9.35653 12.5431 7.80217C12.9826 6.2575 13.2573 4.70547 13.4222 3.53481C13.476 3.15256 13.5179 2.81225 13.55 2.52769C13.2611 2.59162 12.9139 2.67182 12.523 2.76842C11.3496 3.05842 9.79187 3.49385 8.24008 4.07711C6.68004 4.66347 5.16718 5.38418 4.05679 6.23037C2.93218 7.0874 2.35009 7.96994 2.35009 8.86871C2.35009 9.83476 2.59269 10.6537 3.01592 11.3263C4.21266 9.90936 5.91635 8.19854 7.88503 7.1563C8.2267 6.97541 8.65032 7.10576 8.8312 7.44743C9.01209 7.7891 8.88174 8.21272 8.54007 8.3936C6.79787 9.31594 5.22606 10.8769 4.07197 12.2457C4.03411 12.2906 3.99675 12.3352 3.95989 12.3796Z" fill="#0E1438"/>
</g>
<defs>
<clipPath id="clip0_240_108">
<rect width="16" height="16" fill="white"/>
</clipPath>
</defs>
</svg>
