<svg width="16" height="16" viewBox="0 0 16 16" fill="none" xmlns="http://www.w3.org/2000/svg">
<path fill-rule="evenodd" clip-rule="evenodd" d="M8.28633 1.11125C8.10417 1.02959 7.89581 1.02959 7.71365 1.11125L1.47974 3.90577C1.24339 4.01172 1.08486 4.23952 1.06763 4.49796L1.76608 4.54452C1.06763 4.49796 1.06761 4.49824 1.06759 4.49855L1.06754 4.49937L1.06739 4.50167L1.06694 4.5089L1.0655 4.53369C1.06434 4.55474 1.06281 4.58475 1.06116 4.62311C1.05786 4.69982 1.0541 4.81007 1.05189 4.94907C1.04748 5.22686 1.04928 5.6207 1.07373 6.09223C1.12242 7.03125 1.26184 8.29767 1.63098 9.57547C1.99873 10.8484 2.60819 12.1806 3.62897 13.2014C4.66796 14.2404 6.09582 14.9179 7.99999 14.9179C9.90417 14.9179 11.332 14.2404 12.371 13.2014C13.3918 12.1806 14.0013 10.8484 14.369 9.57547C14.7382 8.29767 14.8776 7.03125 14.9263 6.09223C14.9507 5.6207 14.9525 5.22686 14.9481 4.94907C14.9459 4.81007 14.9421 4.69982 14.9388 4.62311C14.9372 4.58475 14.9357 4.55474 14.9345 4.53369L14.9331 4.5089L14.9326 4.50167L14.9325 4.49937L14.9324 4.49855C14.9324 4.49824 14.9324 4.49796 14.2339 4.54452L14.9324 4.49796C14.9151 4.23952 14.7566 4.01172 14.5203 3.90577L8.28633 1.11125ZM2.47186 6.01974C2.45026 5.60322 2.4479 5.25395 2.45123 5.0045L7.99999 2.51712L13.5488 5.0045C13.5521 5.25395 13.5497 5.60322 13.5281 6.01974C13.4828 6.89447 13.3535 8.04638 13.024 9.18692C12.6931 10.3323 12.174 11.4185 11.3811 12.2114C10.6063 12.9862 9.53523 13.5179 7.99999 13.5179C6.46476 13.5179 5.39369 12.9862 4.61892 12.2114C3.82596 11.4185 3.30687 10.3323 2.97598 9.18692C2.6465 8.04638 2.51721 6.89447 2.47186 6.01974ZM10.5021 6.4591C10.7285 6.14569 10.6579 5.70813 10.3445 5.48178C10.0311 5.25543 9.59353 5.32601 9.36718 5.63941L7.10062 8.77774L6.60308 8.18069C6.35558 7.88369 5.91419 7.84357 5.61719 8.09106C5.3202 8.33856 5.28007 8.77995 5.52757 9.07695L6.60238 10.3667C6.74082 10.5328 6.94826 10.6257 7.16437 10.6182C7.38049 10.6107 7.58101 10.5037 7.70761 10.3284L10.5021 6.4591Z" fill="#2D2D2D"/>
</svg>
