<svg width="16" height="16" viewBox="0 0 16 16" fill="none" xmlns="http://www.w3.org/2000/svg">
<path fill-rule="evenodd" clip-rule="evenodd" d="M3.97404 3.31421C4.05235 2.84437 4.45886 2.5 4.93519 2.5H11.0669C11.5433 2.5 11.9498 2.84437 12.0281 3.31421L12.5046 6.17321H3.49754L3.97404 3.31421ZM4.93519 1C3.7256 1 2.69331 1.87449 2.49445 3.06761L1.87981 6.75548C1.34177 7.20937 1 7.88858 1 8.64762V11.6653C1 12.5557 1.72181 13.2775 2.6122 13.2775H2.7244V14.2519C2.7244 14.6661 3.06019 15.0019 3.4744 15.0019C3.88862 15.0019 4.2244 14.6661 4.2244 14.2519V13.2775H11.7775V14.2519C11.7775 14.6661 12.1133 15.0019 12.5275 15.0019C12.9417 15.0019 13.2775 14.6661 13.2775 14.2519V13.2775H13.3899C14.2803 13.2775 15.0021 12.5557 15.0021 11.6653V8.64762C15.0021 7.88858 14.6604 7.20936 14.1223 6.75547L13.5077 3.06761C13.3088 1.87449 12.2765 1 11.0669 1H4.93519ZM2.5 8.64762C2.5 8.10947 2.93625 7.67322 3.4744 7.67322H12.5277C13.0659 7.67322 13.5021 8.10947 13.5021 8.64762V11.6653C13.5021 11.7273 13.4519 11.7775 13.3899 11.7775H2.6122C2.55023 11.7775 2.5 11.7273 2.5 11.6653V8.64762ZM4.62105 9.72536C4.62105 9.76342 4.5902 9.79426 4.55215 9.79426C4.5141 9.79426 4.48325 9.76342 4.48325 9.72536C4.48325 9.68731 4.5141 9.65646 4.55215 9.65646C4.5902 9.65646 4.62105 9.68731 4.62105 9.72536ZM4.55215 8.79426C4.03792 8.79426 3.62105 9.21113 3.62105 9.72536C3.62105 10.2396 4.03792 10.6565 4.55215 10.6565C5.06638 10.6565 5.48325 10.2396 5.48325 9.72536C5.48325 9.21113 5.06638 8.79426 4.55215 8.79426ZM11.4498 9.79426C11.4878 9.79426 11.5187 9.76342 11.5187 9.72536C11.5187 9.68731 11.4878 9.65646 11.4498 9.65646C11.4117 9.65646 11.3809 9.68731 11.3809 9.72536C11.3809 9.76342 11.4117 9.79426 11.4498 9.79426ZM10.5187 9.72536C10.5187 9.21113 10.9355 8.79426 11.4498 8.79426C11.964 8.79426 12.3809 9.21113 12.3809 9.72536C12.3809 10.2396 11.964 10.6565 11.4498 10.6565C10.9355 10.6565 10.5187 10.2396 10.5187 9.72536Z" fill="#0E1438"/>
</svg>
