<svg width="16" height="16" viewBox="0 0 16 16" fill="none" xmlns="http://www.w3.org/2000/svg"><path d="M2.013 1.226 C 1.735 1.268,1.431 1.490,1.309 1.742 C 1.278 1.805,1.241 1.923,1.226 2.004 C 1.208 2.101,1.201 3.499,1.206 6.095 C 1.213 9.774,1.216 10.048,1.260 10.156 C 1.362 10.412,1.590 10.639,1.845 10.740 C 1.948 10.781,2.126 10.787,3.579 10.794 L 5.198 10.802 5.206 12.421 C 5.215 14.220,5.207 14.137,5.400 14.399 C 5.503 14.540,5.716 14.696,5.880 14.751 C 6.038 14.804,13.962 14.804,14.120 14.751 C 14.380 14.663,14.635 14.419,14.740 14.156 C 14.784 14.048,14.787 13.774,14.794 10.095 C 14.799 7.499,14.792 6.101,14.774 6.004 C 14.715 5.687,14.523 5.442,14.219 5.298 L 14.040 5.213 12.420 5.205 L 10.800 5.197 10.800 3.669 C 10.800 2.747,10.789 2.084,10.773 1.998 C 10.713 1.684,10.521 1.441,10.219 1.298 L 10.040 1.213 6.093 1.210 C 3.923 1.208,2.087 1.215,2.013 1.226 M9.547 3.825 L 9.547 5.197 7.753 5.205 L 5.960 5.213 5.781 5.298 C 5.479 5.441,5.287 5.684,5.227 5.998 C 5.211 6.085,5.200 6.803,5.200 7.844 L 5.200 9.547 3.827 9.547 L 2.453 9.547 2.453 6.000 L 2.453 2.453 6.000 2.453 L 9.547 2.453 9.547 3.825 M13.547 10.000 L 13.547 13.547 10.000 13.547 L 6.453 13.547 6.453 10.000 L 6.453 6.453 10.000 6.453 L 13.547 6.453 13.547 10.000 " stroke="none" fill-rule="evenodd" fill="black"></path></svg>