<svg width="16" height="16" viewBox="0 0 16 16" fill="none" xmlns="http://www.w3.org/2000/svg"><path d="M4.092 1.895 C 3.780 1.925,3.568 1.986,3.263 2.134 C 2.926 2.297,2.630 2.532,2.409 2.812 C 2.231 3.036,2.052 3.369,1.996 3.581 C 1.971 3.672,1.949 3.707,1.914 3.707 C 1.867 3.707,1.866 3.855,1.874 7.780 C 1.882 11.592,1.885 11.866,1.930 12.053 C 2.053 12.564,2.286 12.983,2.651 13.349 C 3.017 13.714,3.435 13.947,3.947 14.070 C 4.134 14.115,4.417 14.118,8.507 14.127 C 11.681 14.133,12.916 14.127,13.049 14.105 C 13.424 14.042,13.813 13.756,13.985 13.416 C 14.136 13.120,14.132 13.199,14.132 9.667 C 14.132 6.094,14.137 6.205,13.972 5.894 C 13.860 5.684,13.595 5.433,13.380 5.333 C 13.149 5.224,12.936 5.202,12.140 5.201 L 11.467 5.200 11.467 4.100 C 11.466 3.495,11.455 2.929,11.441 2.843 C 11.360 2.349,10.954 1.955,10.460 1.892 C 10.238 1.863,4.389 1.866,4.092 1.895 M10.213 4.160 L 10.213 5.201 6.980 5.194 L 3.747 5.187 3.612 5.116 C 3.468 5.039,3.288 4.861,3.209 4.716 C 3.112 4.538,3.172 4.035,3.328 3.713 C 3.409 3.544,3.586 3.364,3.763 3.267 C 4.030 3.123,3.984 3.124,7.220 3.122 L 10.213 3.120 10.213 4.160 M3.245 6.323 C 3.553 6.445,3.285 6.438,8.227 6.453 L 12.867 6.467 12.867 9.667 L 12.867 12.867 8.618 12.873 C 3.941 12.881,4.202 12.889,3.860 12.717 C 3.512 12.541,3.208 12.121,3.147 11.733 C 3.112 11.507,3.110 6.293,3.145 6.293 C 3.159 6.293,3.204 6.307,3.245 6.323 M9.987 8.463 C 9.426 8.648,9.093 9.096,9.093 9.667 C 9.093 10.111,9.283 10.468,9.645 10.709 C 9.852 10.846,10.063 10.907,10.333 10.907 C 10.604 10.907,10.815 10.846,11.022 10.709 C 11.384 10.468,11.573 10.111,11.573 9.667 C 11.573 9.396,11.513 9.185,11.375 8.977 C 11.242 8.777,11.096 8.654,10.853 8.537 C 10.667 8.448,10.634 8.440,10.373 8.434 C 10.195 8.430,10.055 8.440,9.987 8.463 " stroke="none" fill-rule="evenodd" fill="black"></path></svg>