<svg width="16" height="16" viewBox="0 0 16 16" fill="none" xmlns="http://www.w3.org/2000/svg"><path d="M3.651 6.716 C 3.204 6.832,2.825 7.215,2.706 7.672 C 2.628 7.975,2.669 8.328,2.817 8.620 C 2.908 8.799,3.201 9.092,3.380 9.183 C 3.773 9.382,4.227 9.382,4.620 9.183 C 4.799 9.092,5.092 8.799,5.183 8.620 C 5.444 8.106,5.364 7.519,4.977 7.102 C 4.716 6.821,4.373 6.670,4.000 6.670 C 3.905 6.670,3.748 6.690,3.651 6.716 M7.651 6.716 C 7.204 6.832,6.825 7.215,6.706 7.672 C 6.628 7.975,6.669 8.328,6.817 8.620 C 6.908 8.799,7.201 9.092,7.380 9.183 C 7.773 9.382,8.227 9.382,8.620 9.183 C 8.799 9.092,9.092 8.799,9.183 8.620 C 9.444 8.106,9.364 7.519,8.977 7.102 C 8.716 6.821,8.373 6.670,8.000 6.670 C 7.905 6.670,7.748 6.690,7.651 6.716 M11.651 6.716 C 11.204 6.832,10.825 7.215,10.706 7.672 C 10.628 7.975,10.669 8.328,10.817 8.620 C 10.908 8.799,11.201 9.092,11.380 9.183 C 11.773 9.382,12.227 9.382,12.620 9.183 C 12.799 9.092,13.092 8.799,13.183 8.620 C 13.444 8.106,13.364 7.519,12.977 7.102 C 12.716 6.821,12.373 6.670,12.000 6.670 C 11.905 6.670,11.748 6.690,11.651 6.716 " stroke="none" fill-rule="evenodd" fill="black"></path></svg>