<svg width="16" height="16" viewBox="0 0 16 16" fill="none" xmlns="http://www.w3.org/2000/svg">
<g clip-path="url(#clip0_231_38)">
<path d="M14.1668 5.16779L12.3114 2.75977C12.1852 2.59596 11.9902 2.5 11.7834 2.5H4.21699C4.0102 2.5 3.81511 2.59596 3.6889 2.75977L1.8335 5.16779M14.1668 5.16779V5.83474C14.1668 6.42732 13.9022 6.95973 13.4816 7.32613M14.1668 5.16779H1.8335M1.8335 5.16779V5.83474C1.8335 6.42732 2.09815 6.95973 2.51868 7.32613M13.4816 7.32613C13.118 7.64293 12.6378 7.8356 12.1113 7.8356C10.976 7.8356 10.0557 6.9398 10.0557 5.83474M13.4816 7.32613V12.8333C13.4816 13.2015 13.1832 13.5 12.815 13.5H3.18535C2.81716 13.5 2.51868 13.2015 2.51868 12.8333V7.32613M2.51868 7.32613C2.88235 7.64293 3.36259 7.8356 3.88905 7.8356C5.0243 7.8356 5.94461 6.9398 5.94461 5.83474M10.0557 5.83474V5.16779M10.0557 5.83474C10.0557 6.9398 9.13543 7.8356 8.00016 7.8356C6.8649 7.8356 5.94461 6.9398 5.94461 5.83474M5.94461 5.83474V5.16779M9.3705 13.5L9.37056 11.4991C9.37056 10.7625 8.75703 10.1653 8.00016 10.1653C7.24336 10.1653 6.6298 10.7625 6.6298 11.4991L6.62979 13.5" stroke="black" stroke-width="1.5" stroke-linecap="round" stroke-linejoin="round"/>
</g>
<defs>
<clipPath id="clip0_231_38">
<rect width="16" height="16" fill="white"/>
</clipPath>
</defs>
</svg>
