<svg width="16" height="16" viewBox="0 0 16 16" fill="none" xmlns="http://www.w3.org/2000/svg"><path d="M11.288 1.469 C 11.212 1.482,9.652 1.955,7.823 2.520 C 5.993 3.084,4.467 3.547,4.431 3.547 C 4.396 3.547,4.299 3.577,4.217 3.613 C 4.134 3.650,3.617 3.819,3.067 3.988 C 2.517 4.157,1.993 4.332,1.902 4.377 C 1.579 4.538,1.316 4.882,1.239 5.246 C 1.183 5.512,1.183 9.155,1.239 9.421 C 1.316 9.784,1.579 10.128,1.902 10.290 C 1.993 10.335,2.469 10.496,2.960 10.647 L 3.853 10.922 3.870 11.401 C 3.884 11.789,3.900 11.929,3.955 12.137 C 4.078 12.608,4.274 12.961,4.608 13.311 C 5.070 13.796,5.629 14.056,6.348 14.121 C 6.891 14.169,7.571 13.967,8.049 13.614 C 8.390 13.363,8.743 12.938,8.872 12.623 C 8.899 12.559,8.936 12.507,8.955 12.507 C 8.974 12.507,9.493 12.663,10.110 12.853 C 11.339 13.234,11.468 13.260,11.767 13.190 C 12.016 13.131,12.196 13.033,12.381 12.857 C 12.557 12.690,12.638 12.565,12.725 12.331 C 12.781 12.179,12.784 12.129,12.794 11.025 L 12.804 9.877 12.929 9.844 C 13.152 9.785,13.579 9.556,13.806 9.374 C 14.072 9.160,14.335 8.838,14.493 8.532 C 15.163 7.234,14.634 5.634,13.320 4.987 C 13.173 4.914,12.997 4.842,12.929 4.825 L 12.804 4.795 12.794 3.644 C 12.784 2.538,12.781 2.487,12.725 2.335 C 12.638 2.102,12.557 1.977,12.381 1.810 C 12.194 1.631,12.005 1.529,11.763 1.478 C 11.567 1.437,11.492 1.435,11.288 1.469 M11.540 7.330 C 11.545 11.011,11.540 11.951,11.513 11.960 C 11.495 11.966,10.052 11.530,8.307 10.990 L 5.133 10.009 5.133 7.333 L 5.133 4.658 8.307 3.677 C 10.052 3.138,11.492 2.699,11.507 2.704 C 11.524 2.709,11.536 4.279,11.540 7.330 M3.867 7.343 L 3.867 9.618 3.167 9.401 L 2.467 9.184 2.467 7.333 L 2.467 5.482 3.120 5.277 C 3.479 5.164,3.794 5.071,3.820 5.069 C 3.864 5.067,3.867 5.192,3.867 7.343 M13.142 6.378 C 13.417 6.663,13.524 6.930,13.524 7.333 C 13.524 7.820,13.320 8.205,12.914 8.484 L 12.800 8.563 12.800 7.333 L 12.800 6.104 12.914 6.182 C 12.976 6.225,13.079 6.314,13.142 6.378 M6.477 11.732 C 7.143 11.938,7.694 12.112,7.702 12.119 C 7.763 12.181,7.336 12.621,7.111 12.729 C 6.936 12.813,6.659 12.879,6.480 12.879 C 6.152 12.879,5.781 12.719,5.531 12.469 C 5.267 12.206,5.122 11.848,5.120 11.461 L 5.120 11.309 5.193 11.334 C 5.234 11.348,5.811 11.527,6.477 11.732 " stroke="none" fill-rule="evenodd" fill="black"></path></svg>