<svg width="16" height="16" viewBox="0 0 16 16" fill="none" xmlns="http://www.w3.org/2000/svg">
<path fill-rule="evenodd" clip-rule="evenodd" d="M5.98677 3.86948C6.33016 3.5176 6.92506 3.17 7.99751 3.17C9.06996 3.17 9.66486 3.5176 10.0083 3.86948C10.2957 4.16402 10.4498 4.56069 10.5243 5.06963C10.5884 5.5069 10.5877 5.97059 10.5858 6.47H5.40922C5.4073 5.97059 5.40659 5.5069 5.47067 5.06963C5.54525 4.56069 5.69933 4.16402 5.98677 3.86948ZM4.20897 6.47C4.20666 5.97713 4.20641 5.4207 4.28335 4.89564C4.378 4.24976 4.59759 3.57484 5.12794 3.03137C5.71729 2.42745 6.63173 1.97 7.99751 1.97C9.3633 1.97 10.2777 2.42746 10.8671 3.03138C11.3974 3.57484 11.617 4.24976 11.7117 4.89564C11.7886 5.4207 11.7884 5.97713 11.786 6.47H11.935C12.6806 6.47 13.285 7.07442 13.285 7.82V11.945C13.285 13.1048 12.3448 14.045 11.185 14.045H4.81C3.6502 14.045 2.71 13.1048 2.71 11.945V7.82C2.71 7.07442 3.31441 6.47 4.06 6.47H4.20897ZM3.91 7.82C3.91 7.73716 3.97716 7.67 4.06 7.67H11.935C12.0178 7.67 12.085 7.73716 12.085 7.82V11.945C12.085 12.4421 11.6821 12.845 11.185 12.845H4.81C4.31294 12.845 3.91 12.4421 3.91 11.945V7.82Z" fill="#0E1438"/>
</svg>
