<svg width="16" height="16" viewBox="0 0 16 16" fill="none" xmlns="http://www.w3.org/2000/svg">
<path fill-rule="evenodd" clip-rule="evenodd" d="M12.7969 4.26033C13.0898 3.96743 13.0898 3.49256 12.7969 3.19967C12.504 2.90677 12.0291 2.90677 11.7363 3.19966L7.99829 6.93762L4.26032 3.19966C3.96743 2.90677 3.49256 2.90677 3.19966 3.19967C2.90677 3.49256 2.90677 3.96743 3.19967 4.26033L6.93763 7.99828L3.19967 11.7362C2.90677 12.0291 2.90677 12.504 3.19966 12.7969C3.49256 13.0898 3.96743 13.0898 4.26032 12.7969L7.99829 9.05893L11.7363 12.7969C12.0291 13.0898 12.504 13.0898 12.7969 12.7969C13.0898 12.504 13.0898 12.0291 12.7969 11.7362L9.05895 7.99828L12.7969 4.26033Z" fill="#0E1438"/>
</svg>
