<svg width="16" height="16" viewBox="0 0 16 16" fill="none" xmlns="http://www.w3.org/2000/svg">
<path fill-rule="evenodd" clip-rule="evenodd" d="M7.53021 2.03879C7.79612 1.80038 8.19886 1.80038 8.46477 2.03879L13.9023 6.91377C14.1182 7.10741 14.1924 7.4142 14.0887 7.68513C13.9851 7.95605 13.7251 8.13497 13.435 8.13497H13.385V12.7349H13.435C13.8216 12.7349 14.135 13.0483 14.135 13.4349C14.135 13.8215 13.8216 14.1349 13.435 14.1349H12.685H9.68499H6.31H3.31001H2.56001C2.17342 14.1349 1.86001 13.8215 1.86001 13.4349C1.86001 13.0483 2.17342 12.7349 2.56001 12.7349H2.61001V8.13497H2.56001C2.26993 8.13497 2.00991 7.95605 1.90624 7.68513C1.80257 7.4142 1.87675 7.10741 2.09273 6.91377L7.53021 2.03879ZM4.01001 12.7349H5.61V8.13497H4.01001V12.7349ZM7.01 12.7349H8.98499V8.13497H7.01V12.7349ZM10.385 12.7349H11.985V8.13497H10.385V12.7349ZM11.6056 6.73497L7.99749 3.50013L4.3894 6.73497H11.6056Z" fill="black"/>
</svg>
