<svg width="16" height="16" viewBox="0 0 16 16" fill="none" xmlns="http://www.w3.org/2000/svg"><path d="M9.049 1.894 C 8.846 1.935,8.695 2.048,8.606 2.227 C 8.452 2.536,8.595 2.923,8.918 3.069 C 9.020 3.116,9.123 3.119,10.506 3.119 L 11.985 3.120 10.302 4.807 C 8.634 6.477,8.617 6.495,8.573 6.648 C 8.432 7.140,8.860 7.568,9.352 7.427 C 9.505 7.383,9.523 7.366,11.193 5.698 L 12.880 4.015 12.881 5.494 C 12.881 7.155,12.874 7.088,13.081 7.289 C 13.324 7.525,13.738 7.504,13.966 7.244 C 14.139 7.047,14.136 7.104,14.127 4.597 C 14.120 2.336,14.120 2.333,14.062 2.227 C 13.989 2.090,13.882 1.989,13.747 1.928 C 13.647 1.883,13.496 1.880,11.400 1.876 C 10.168 1.874,9.110 1.882,9.049 1.894 M2.382 8.563 C 2.178 8.600,2.035 8.709,1.930 8.907 C 1.882 8.996,1.880 9.108,1.880 11.333 C 1.880 13.559,1.882 13.671,1.930 13.760 C 1.999 13.891,2.102 13.995,2.227 14.062 L 2.333 14.120 4.667 14.120 L 7.000 14.120 7.109 14.062 C 7.261 13.980,7.377 13.839,7.426 13.676 C 7.476 13.505,7.476 13.482,7.427 13.316 C 7.380 13.159,7.240 13.002,7.082 12.931 C 6.980 12.884,6.877 12.881,5.494 12.881 L 4.015 12.880 5.698 11.193 C 7.325 9.563,7.383 9.502,7.424 9.362 C 7.477 9.183,7.477 9.163,7.426 8.991 C 7.345 8.719,7.119 8.555,6.826 8.555 C 6.736 8.555,6.630 8.574,6.570 8.602 C 6.501 8.633,5.909 9.204,4.793 10.317 L 3.120 11.985 3.119 10.506 C 3.119 9.131,3.115 9.019,3.070 8.920 C 2.948 8.652,2.672 8.509,2.382 8.563 " stroke="none" fill-rule="evenodd" fill="black"></path></svg>