<svg width="16" height="16" viewBox="0 0 16 16" fill="none" xmlns="http://www.w3.org/2000/svg">
<g clip-path="url(#clip0_1137_117)">
<path d="M10.1634 4.11938H5.83691V11.8942H10.1634V4.11938Z" fill="#FF5F00"/>
<path d="M6.11158 8.00702C6.1109 7.25826 6.28057 6.51915 6.60776 5.84566C6.93495 5.17216 7.41108 4.58192 8.0001 4.11964C7.27068 3.5463 6.39467 3.18975 5.47219 3.09074C4.54971 2.99173 3.61799 3.15426 2.78352 3.55974C1.94904 3.96523 1.24548 4.59731 0.753254 5.38375C0.26103 6.17019 0 7.07925 0 8.00702C0 8.9348 0.26103 9.84386 0.753254 10.6303C1.24548 11.4167 1.94904 12.0488 2.78352 12.4543C3.61799 12.8598 4.54971 13.0223 5.47219 12.9233C6.39467 12.8243 7.27068 12.4677 8.0001 11.8944C7.41108 11.4321 6.93496 10.8419 6.60777 10.1684C6.28058 9.4949 6.1109 8.75579 6.11158 8.00702Z" fill="#EB001B"/>
<path d="M16 8.00702C16 8.93478 15.739 9.84384 15.2468 10.6303C14.7546 11.4167 14.0511 12.0488 13.2166 12.4543C12.3822 12.8598 11.4504 13.0223 10.528 12.9233C9.60552 12.8243 8.72952 12.4677 8.00012 11.8944C8.58862 11.4317 9.06438 10.8413 9.39152 10.1679C9.71865 9.49455 9.88863 8.75567 9.88863 8.00702C9.88863 7.25837 9.71865 6.5195 9.39152 5.84611C9.06438 5.17272 8.58862 4.58239 8.00012 4.11964C8.72952 3.5463 9.60552 3.18975 10.528 3.09074C11.4504 2.99173 12.3822 3.15426 13.2166 3.55975C14.0511 3.96524 14.7546 4.59733 15.2468 5.38377C15.739 6.1702 16 7.07926 16 8.00702Z" fill="#F79E1B"/>
<path d="M15.5283 11.0708V10.9116H15.5925V10.8792H15.429V10.9116H15.4932V11.0708H15.5283ZM15.8456 11.0708V10.8788H15.7955L15.7379 11.0109L15.6803 10.8788H15.6301V11.0708H15.6655V10.926L15.7195 11.0508H15.7562L15.8103 10.9257V11.0708H15.8456Z" fill="#F79E1B"/>
</g>
<defs>
<clipPath id="clip0_1137_117">
<rect width="16" height="16" fill="white"/>
</clipPath>
</defs>
</svg>
