<svg width="16" height="16" viewBox="0 0 16 16" fill="none" xmlns="http://www.w3.org/2000/svg">
<path d="M14.4392 11.5053C14.0876 12.2862 13.9182 12.6352 13.466 13.3243C12.8329 14.2873 11.94 15.4897 10.837 15.4973C9.85488 15.5062 9.6014 14.8566 8.26776 14.8681C6.9354 14.8745 6.65772 15.5101 5.67437 15.4999C4.57002 15.4897 3.72551 14.407 3.09245 13.4453C1.32191 10.7487 1.13467 7.58724 2.22883 5.90587C3.00328 4.71362 4.22738 4.01305 5.37759 4.01305C6.54945 4.01305 7.28569 4.6563 8.25375 4.6563C9.19379 4.6563 9.76571 4.01178 11.121 4.01178C12.1451 4.01178 13.2278 4.56969 14.0023 5.53265C11.47 6.92106 11.8814 10.5373 14.4392 11.5053ZM10.0918 2.93544C10.5847 2.30238 10.9592 1.40947 10.8229 0.5C10.0192 0.554772 9.07915 1.0681 8.53016 1.73301C8.03212 2.33932 7.61942 3.2386 7.77991 4.10858C8.65754 4.1366 9.56573 3.61309 10.0918 2.93544Z" fill="black"/>
</svg>
