<svg width="16" height="16" viewBox="0 0 16 16" fill="none" xmlns="http://www.w3.org/2000/svg">
<path fill-rule="evenodd" clip-rule="evenodd" d="M2.25 7.99874C2.25 7.89204 2.31377 7.52388 2.52249 6.99557C2.72328 6.48731 3.03808 5.88309 3.48969 5.30603C4.38499 4.16204 5.80863 3.12999 7.99375 3.12999C10.1789 3.12999 11.6025 4.16204 12.4978 5.30603C12.9494 5.88309 13.2642 6.48731 13.465 6.99557C13.6737 7.52388 13.7375 7.89204 13.7375 7.99874C13.7375 8.10545 13.6737 8.47361 13.465 9.00192C13.2642 9.51017 12.9494 10.1144 12.4978 10.6915C11.6025 11.8355 10.1789 12.8675 7.99375 12.8675C5.80863 12.8675 4.38499 11.8355 3.48969 10.6915C3.03808 10.1144 2.72328 9.51017 2.52249 9.00192C2.31377 8.47361 2.25 8.10545 2.25 7.99874ZM7.99375 1.92999C5.36638 1.92999 3.61814 3.19482 2.54469 4.56646C2.01193 5.24721 1.64313 5.95549 1.40642 6.55465C1.17764 7.13376 1.05 7.66795 1.05 7.99874C1.05 8.32954 1.17764 8.86372 1.40642 9.44283C1.64313 10.042 2.01193 10.7503 2.54469 11.431C3.61814 12.8027 5.36638 14.0675 7.99375 14.0675C10.6211 14.0675 12.3694 12.8027 13.4428 11.431C13.9756 10.7503 14.3444 10.042 14.5811 9.44283C14.8099 8.86372 14.9375 8.32954 14.9375 7.99874C14.9375 7.66795 14.8099 7.13376 14.5811 6.55465C14.3444 5.95549 13.9756 5.24721 13.4428 4.56646C12.3694 3.19482 10.6211 1.92999 7.99375 1.92999ZM6.625 7.99874C6.625 7.2428 7.23781 6.62999 7.99375 6.62999C8.74969 6.62999 9.3625 7.2428 9.3625 7.99874C9.3625 8.75468 8.74969 9.36749 7.99375 9.36749C7.23781 9.36749 6.625 8.75468 6.625 7.99874ZM7.99375 5.42999C6.57507 5.42999 5.425 6.58006 5.425 7.99874C5.425 9.41742 6.57507 10.5675 7.99375 10.5675C9.41244 10.5675 10.5625 9.41742 10.5625 7.99874C10.5625 6.58006 9.41244 5.42999 7.99375 5.42999Z" fill="#0E1438"/>
</svg>
