<svg width="16" height="16" viewBox="0 0 16 16" fill="none" xmlns="http://www.w3.org/2000/svg"><path d="M7.613 1.230 C 7.009 1.262,6.375 1.397,5.829 1.611 C 5.228 1.846,5.079 1.955,5.001 2.218 C 4.951 2.388,4.951 2.385,5.001 2.556 C 5.053 2.731,5.176 2.871,5.346 2.951 C 5.550 3.046,5.664 3.034,6.032 2.878 C 6.723 2.585,7.254 2.475,7.987 2.474 C 8.544 2.472,8.887 2.517,9.360 2.653 C 10.693 3.037,11.824 4.007,12.423 5.281 C 12.590 5.638,12.733 6.080,12.807 6.475 C 12.858 6.752,12.865 6.872,12.863 7.560 C 12.860 8.704,12.770 9.799,12.586 10.915 C 12.488 11.512,12.487 11.603,12.576 11.782 C 12.810 12.252,13.492 12.233,13.694 11.750 C 13.793 11.513,14.012 9.882,14.084 8.853 C 14.136 8.099,14.130 6.823,14.072 6.453 C 13.783 4.599,12.727 3.026,11.129 2.069 C 10.081 1.442,8.904 1.160,7.613 1.230 M3.406 3.523 C 3.179 3.575,3.101 3.648,2.841 4.046 C 2.625 4.378,2.382 4.860,2.259 5.201 C 2.019 5.864,1.928 6.342,1.892 7.133 C 1.830 8.481,1.786 8.896,1.623 9.680 C 1.533 10.116,1.535 10.237,1.641 10.417 C 1.883 10.831,2.505 10.818,2.723 10.394 C 2.876 10.094,3.119 8.456,3.120 7.707 C 3.123 6.413,3.344 5.571,3.915 4.690 C 4.110 4.389,4.160 4.276,4.160 4.138 C 4.160 3.744,3.782 3.436,3.406 3.523 M7.413 4.014 C 6.713 4.146,6.061 4.494,5.584 4.991 C 5.281 5.306,5.075 5.616,4.908 6.007 C 4.692 6.515,4.650 6.759,4.614 7.731 C 4.586 8.486,4.571 8.659,4.475 9.365 C 4.407 9.868,4.421 9.956,4.606 10.161 C 4.847 10.430,5.228 10.438,5.491 10.180 C 5.621 10.054,5.650 9.977,5.706 9.607 C 5.798 9.007,5.840 8.543,5.868 7.803 C 5.883 7.405,5.907 7.012,5.922 6.928 C 6.060 6.139,6.743 5.430,7.520 5.266 C 7.756 5.217,8.190 5.210,8.429 5.254 C 9.193 5.391,9.883 6.050,10.071 6.821 C 10.119 7.015,10.131 7.516,10.107 8.320 L 10.094 8.760 10.167 8.885 C 10.358 9.210,10.721 9.314,11.031 9.132 C 11.286 8.983,11.330 8.862,11.365 8.213 C 11.398 7.592,11.380 6.999,11.320 6.707 C 11.045 5.367,10.105 4.387,8.773 4.052 C 8.478 3.977,7.718 3.956,7.413 4.014 M7.747 6.771 C 7.616 6.831,7.483 6.968,7.429 7.096 C 7.400 7.167,7.382 7.383,7.361 7.896 C 7.320 8.935,7.254 9.538,7.079 10.467 C 6.893 11.454,6.558 12.597,6.185 13.521 C 6.052 13.849,6.020 13.956,6.021 14.071 C 6.023 14.338,6.190 14.564,6.450 14.653 C 6.602 14.705,6.680 14.704,6.840 14.649 C 7.074 14.570,7.163 14.447,7.364 13.933 C 8.148 11.928,8.520 10.169,8.614 8.018 C 8.648 7.250,8.637 7.146,8.504 6.964 C 8.342 6.745,7.994 6.656,7.747 6.771 M10.233 10.356 C 10.099 10.406,9.964 10.513,9.898 10.620 C 9.866 10.671,9.804 10.897,9.749 11.167 C 9.581 11.984,9.412 12.613,9.142 13.440 C 9.007 13.853,8.983 13.953,8.996 14.058 C 9.046 14.481,9.468 14.733,9.860 14.573 C 10.075 14.486,10.154 14.358,10.339 13.797 C 10.634 12.898,10.819 12.195,10.985 11.350 C 11.066 10.940,11.067 10.921,11.027 10.783 C 10.952 10.526,10.739 10.353,10.470 10.331 C 10.390 10.324,10.292 10.335,10.233 10.356 M4.378 11.336 C 4.235 11.363,4.099 11.446,4.014 11.557 C 3.978 11.603,3.902 11.773,3.844 11.934 C 3.786 12.095,3.696 12.335,3.645 12.467 C 3.517 12.798,3.509 12.854,3.559 13.028 C 3.670 13.407,4.066 13.594,4.413 13.430 C 4.656 13.315,4.703 13.233,4.997 12.420 C 5.088 12.170,5.120 12.042,5.120 11.933 C 5.120 11.541,4.773 11.262,4.378 11.336 " stroke="none" fill-rule="evenodd" fill="black"></path></svg>