<svg width="16" height="16" viewBox="0 0 16 16" fill="none" xmlns="http://www.w3.org/2000/svg">
<g clip-path="url(#clip0_101_121)">
<path fill-rule="evenodd" clip-rule="evenodd" d="M7.99636 1.81C4.57973 1.81 1.81 4.57973 1.81 7.99636C1.81 9.49192 2.34071 10.8635 3.22406 11.9331C4.43002 10.6856 6.12269 9.90842 7.99633 9.90842C9.86999 9.90842 11.5627 10.6856 12.7686 11.9332C13.652 10.8636 14.1827 9.49193 14.1827 7.99636C14.1827 4.57973 11.413 1.81 7.99636 1.81ZM11.7614 12.9055C10.8085 11.9198 9.47409 11.3084 7.99633 11.3084C6.51859 11.3084 5.18418 11.9198 4.23131 12.9055C5.27421 13.7065 6.57967 14.1827 7.99636 14.1827C9.41303 14.1827 10.7185 13.7065 11.7614 12.9055ZM0.410004 7.99636C0.410004 3.80653 3.80653 0.410004 7.99636 0.410004C12.1862 0.410004 15.5827 3.80653 15.5827 7.99636C15.5827 12.1862 12.1862 15.5827 7.99636 15.5827C3.80653 15.5827 0.410004 12.1862 0.410004 7.99636ZM7.99636 4.65953C7.20264 4.65953 6.55921 5.30296 6.55921 6.09667C6.55921 6.89038 7.20264 7.53381 7.99636 7.53381C8.79007 7.53381 9.4335 6.89038 9.4335 6.09667C9.4335 5.30296 8.79007 4.65953 7.99636 4.65953ZM5.15921 6.09667C5.15921 4.52976 6.42945 3.25953 7.99636 3.25953C9.56327 3.25953 10.8335 4.52976 10.8335 6.09667C10.8335 7.66358 9.56327 8.93382 7.99636 8.93382C6.42945 8.93382 5.15921 7.66358 5.15921 6.09667Z" fill="#0E1438"/>
</g>
<defs>
<clipPath id="clip0_101_121">
<rect width="16" height="16" fill="white"/>
</clipPath>
</defs>
</svg>
