<svg width="16" height="16" viewBox="0 0 16 16" fill="none" xmlns="http://www.w3.org/2000/svg">
<g clip-path="url(#clip0_1275_713)">
<path d="M6.93332 8.78455H5.63721L6.44791 4.08521H7.74395L6.93332 8.78455Z" fill="#15195A"/>
<path d="M11.6316 4.20008C11.376 4.10499 10.9705 4 10.4691 4C9.18917 4 8.28784 4.63988 8.2823 5.5547C8.27166 6.22966 8.92763 6.60455 9.41825 6.8296C9.91968 7.05959 10.0902 7.2097 10.0902 7.41468C10.0851 7.72952 9.68496 7.87462 9.31178 7.87462C8.79431 7.87462 8.51706 7.7998 8.09568 7.62466L7.92504 7.54958L7.74365 8.60446C8.04765 8.73429 8.60772 8.84952 9.18917 8.85459C10.5492 8.85459 11.4345 8.2246 11.445 7.24971C11.4502 6.71475 11.1038 6.30481 10.3571 5.96987C9.90373 5.75485 9.62612 5.60985 9.62612 5.38986C9.63145 5.18985 9.86094 4.985 10.3727 4.985C10.794 4.97497 11.1036 5.06992 11.3381 5.16494L11.4553 5.21485L11.6316 4.20008Z" fill="#15195A"/>
<path fill-rule="evenodd" clip-rule="evenodd" d="M13.9518 4.08521H14.9543L15.9999 8.78449H14.7998C14.7998 8.78449 14.6824 8.24456 14.6452 8.07955H12.9811C12.933 8.20448 12.7091 8.78449 12.7091 8.78449H11.3491L13.2743 4.4751C13.4077 4.17012 13.6426 4.08521 13.9518 4.08521ZM13.8719 5.80491C13.8719 5.80491 13.4611 6.84976 13.3544 7.11973H14.4317C14.3784 6.8848 14.133 5.7599 14.133 5.7599L14.0424 5.35501C14.0043 5.45926 13.9491 5.60262 13.9119 5.69932C13.8867 5.76484 13.8697 5.80894 13.8719 5.80491Z" fill="#15195A"/>
<path fill-rule="evenodd" clip-rule="evenodd" d="M0.021334 4.08521H2.10663C2.38932 4.09511 2.61867 4.18009 2.69328 4.48023L3.14648 6.63941L3.14661 6.63981L3.28531 7.2897L4.55464 4.08521H5.92517L3.8879 8.77959H2.5173L1.36208 4.69626C0.963496 4.47778 0.508599 4.30207 0 4.18016L0.021334 4.08521Z" fill="#15195A"/>
<path fill-rule="evenodd" clip-rule="evenodd" d="M9.48718 11.3478C9.46996 11.351 9.44801 11.3525 9.42139 11.3525C9.34778 11.3525 9.29529 11.3306 9.26397 11.2868C9.23265 11.2429 9.21698 11.1787 9.21698 11.0941V9.65146H9.40964V11.1082C9.40964 11.1395 9.41511 11.1615 9.42609 11.174C9.43707 11.1865 9.44958 11.1928 9.46368 11.1928H9.4813C9.48677 11.1928 9.495 11.1912 9.50597 11.1881L9.53182 11.3337C9.5193 11.34 9.5044 11.3447 9.48718 11.3478ZM8.90919 11.1575V11.3243H7.99756V9.78303H8.88569V9.9475H8.19257V10.4315H8.77761V10.5983H8.19257V11.1575H8.90919ZM10.279 11.3525C10.3573 11.3525 10.427 11.3408 10.4881 11.3173C10.5492 11.2938 10.6048 11.2664 10.6549 11.2351L10.5868 11.1082C10.5445 11.1348 10.5002 11.1563 10.454 11.1728C10.4078 11.1892 10.3573 11.1975 10.3025 11.1975C10.1928 11.1975 10.1039 11.1618 10.0358 11.0906C9.96766 11.0193 9.92967 10.9226 9.92185 10.8004H10.6925C10.6956 10.7863 10.6976 10.7694 10.6984 10.7499C10.6991 10.7303 10.6995 10.7103 10.6995 10.69C10.6995 10.6085 10.6894 10.5349 10.669 10.4691C10.6486 10.4033 10.6193 10.3469 10.5809 10.2999C10.5425 10.2529 10.4947 10.2169 10.4376 10.1919C10.3804 10.1668 10.3158 10.1543 10.2437 10.1543C10.1779 10.1543 10.1145 10.168 10.0534 10.1954C9.99233 10.2228 9.93789 10.2623 9.89013 10.314C9.84236 10.3657 9.80396 10.4288 9.775 10.5032C9.74603 10.5776 9.73153 10.6618 9.73153 10.7558C9.73153 10.8497 9.74563 10.9335 9.77382 11.0072C9.80202 11.0808 9.84079 11.143 9.89013 11.1939C9.93947 11.2449 9.99743 11.284 10.064 11.3114C10.1306 11.3388 10.2022 11.3525 10.279 11.3525ZM9.9195 10.6618H10.5304C10.5304 10.5459 10.5057 10.4578 10.4564 10.3974C10.407 10.3371 10.3377 10.307 10.2484 10.307C10.2077 10.307 10.169 10.3148 10.1321 10.3305C10.0953 10.3462 10.062 10.3692 10.0323 10.3998C10.0025 10.4303 9.97783 10.4675 9.95826 10.5114C9.9387 10.5553 9.92577 10.6054 9.9195 10.6618ZM11.4326 11.3525C11.5015 11.3525 11.5673 11.3396 11.63 11.3138C11.6926 11.2879 11.7498 11.2523 11.8015 11.2069L11.7169 11.0776C11.6809 11.109 11.6405 11.136 11.5959 11.1587C11.5513 11.1814 11.5023 11.1928 11.4491 11.1928C11.3974 11.1928 11.3496 11.1822 11.3057 11.161C11.2619 11.1399 11.2247 11.1101 11.1941 11.0718C11.1636 11.0334 11.1397 10.9876 11.1225 10.9343C11.1052 10.881 11.0966 10.8215 11.0966 10.7558C11.0966 10.69 11.1056 10.63 11.1236 10.576C11.1417 10.522 11.1663 10.4754 11.1977 10.4362C11.229 10.397 11.2666 10.3669 11.3104 10.3458C11.3543 10.3246 11.4021 10.314 11.4538 10.314C11.4992 10.314 11.5403 10.3234 11.5771 10.3422C11.6139 10.361 11.6488 10.3853 11.6817 10.4151L11.7803 10.2882C11.7396 10.2522 11.6926 10.2208 11.6394 10.1942C11.5861 10.1676 11.5219 10.1543 11.4467 10.1543C11.3731 10.1543 11.303 10.1676 11.2364 10.1942C11.1699 10.2208 11.1115 10.26 11.0614 10.3117C11.0113 10.3634 10.9713 10.4264 10.9416 10.5008C10.9118 10.5752 10.8969 10.6602 10.8969 10.7558C10.8969 10.8497 10.9106 10.9339 10.938 11.0083C10.9655 11.0827 11.003 11.1454 11.0508 11.1963C11.0986 11.2472 11.1554 11.286 11.2212 11.3126C11.2869 11.3392 11.3574 11.3525 11.4326 11.3525ZM12.4981 11.3396C12.4613 11.3482 12.4249 11.3525 12.3889 11.3525C12.3278 11.3525 12.2765 11.3431 12.235 11.3243C12.1935 11.3055 12.1598 11.2797 12.134 11.2468C12.1081 11.2139 12.0897 11.174 12.0787 11.127C12.0678 11.08 12.0623 11.0283 12.0623 10.9719V10.3399H11.8931V10.1942L12.0717 10.1825L12.0952 9.86292H12.2573V10.1825H12.5651V10.3399H12.2573V10.9743C12.2573 11.0447 12.2702 11.0992 12.2961 11.1376C12.3219 11.1759 12.3677 11.1951 12.4335 11.1951C12.4539 11.1951 12.4758 11.192 12.4993 11.1857C12.5228 11.1794 12.544 11.1724 12.5627 11.1646L12.6003 11.3102C12.569 11.3212 12.535 11.331 12.4981 11.3396ZM13.0162 11.3243V10.5913C13.0554 10.4942 13.1012 10.426 13.1537 10.3869C13.2061 10.3477 13.2566 10.3281 13.3052 10.3281C13.3287 10.3281 13.3483 10.3297 13.3639 10.3328C13.3796 10.336 13.3968 10.3407 13.4156 10.3469L13.4532 10.1778C13.4172 10.1621 13.3765 10.1543 13.3311 10.1543C13.2653 10.1543 13.2046 10.1754 13.149 10.2177C13.0933 10.26 13.046 10.3172 13.0068 10.3892H12.9998L12.9833 10.1825H12.8235V11.3243H13.0162ZM14.2603 11.3126C14.1969 11.3392 14.1299 11.3525 14.0594 11.3525C13.9889 11.3525 13.922 11.3392 13.8585 11.3126C13.7951 11.286 13.7391 11.2472 13.6905 11.1963C13.642 11.1454 13.6032 11.0827 13.5742 11.0083C13.5453 10.9339 13.5308 10.8497 13.5308 10.7558C13.5308 10.6602 13.5453 10.5752 13.5742 10.5008C13.6032 10.4264 13.642 10.3634 13.6905 10.3117C13.7391 10.26 13.7951 10.2208 13.8585 10.1942C13.922 10.1676 13.9889 10.1543 14.0594 10.1543C14.1299 10.1543 14.1969 10.1676 14.2603 10.1942C14.3237 10.2208 14.3797 10.26 14.4283 10.3117C14.4769 10.3634 14.5156 10.4264 14.5446 10.5008C14.5736 10.5752 14.5881 10.6602 14.5881 10.7558C14.5881 10.8497 14.5736 10.9339 14.5446 11.0083C14.5156 11.0827 14.4769 11.1454 14.4283 11.1963C14.3797 11.2472 14.3237 11.286 14.2603 11.3126ZM14.0594 11.1928C14.0108 11.1928 13.9662 11.1822 13.9255 11.161C13.8848 11.1399 13.8499 11.1101 13.8209 11.0718C13.792 11.0334 13.7696 10.9876 13.754 10.9343C13.7383 10.881 13.7305 10.8215 13.7305 10.7558C13.7305 10.69 13.7383 10.63 13.754 10.576C13.7696 10.522 13.792 10.4754 13.8209 10.4362C13.8499 10.397 13.8848 10.3669 13.9255 10.3458C13.9662 10.3246 14.0108 10.314 14.0594 10.314C14.108 10.314 14.1526 10.3246 14.1933 10.3458C14.2341 10.3669 14.2689 10.397 14.2979 10.4362C14.3269 10.4754 14.3492 10.522 14.3649 10.576C14.3805 10.63 14.3884 10.69 14.3884 10.7558C14.3884 10.8215 14.3805 10.881 14.3649 10.9343C14.3492 10.9876 14.3269 11.0334 14.2979 11.0718C14.2689 11.1101 14.2341 11.1399 14.1933 11.161C14.1526 11.1822 14.108 11.1928 14.0594 11.1928ZM15.0815 10.4973V11.3243H14.8888V10.1825H15.0486L15.065 10.3469H15.0721C15.1269 10.2921 15.1845 10.2463 15.2448 10.2095C15.3051 10.1727 15.3752 10.1543 15.4551 10.1543C15.5757 10.1543 15.6638 10.1919 15.7194 10.267C15.775 10.3422 15.8028 10.4534 15.8028 10.6007V11.3243H15.6101V10.6265C15.6101 10.5184 15.5929 10.4405 15.5584 10.3927C15.524 10.345 15.4692 10.3211 15.394 10.3211C15.3345 10.3211 15.282 10.336 15.2365 10.3657C15.1911 10.3955 15.1394 10.4393 15.0815 10.4973Z" fill="#15195A"/>
</g>
<defs>
<clipPath id="clip0_1275_713">
<rect width="16" height="16" fill="white"/>
</clipPath>
</defs>
</svg>
