<svg width="16" height="16" viewBox="0 0 16 16" fill="none" xmlns="http://www.w3.org/2000/svg">
<g clip-path="url(#clip0_354_89)">
<path fill-rule="evenodd" clip-rule="evenodd" d="M10.9274 3.36009C10.5267 4.11032 10.2449 5.15222 10.2449 6.2429C10.2449 7.33357 10.5267 8.37548 10.9274 9.1257C11.1278 9.50099 11.3445 9.77814 11.5457 9.95296C11.6334 10.0292 11.7099 10.0792 11.7744 10.1115L11.7845 10.1136L12.0157 10.1612C12.0966 10.1472 12.2219 10.0966 12.3872 9.95296C12.5884 9.77814 12.8051 9.50099 13.0055 9.1257C13.4062 8.37548 13.6879 7.33357 13.6879 6.2429C13.6879 5.15222 13.4062 4.11032 13.0055 3.36009C12.8051 2.98481 12.5884 2.70765 12.3872 2.53283C12.2219 2.38924 12.0966 2.33859 12.0157 2.32457L11.7845 2.37223L11.7744 2.37432C11.7099 2.40658 11.6334 2.45661 11.5457 2.53283C11.3445 2.70765 11.1278 2.98481 10.9274 3.36009ZM8.84493 6.2429C8.84493 7.50259 9.15322 8.7229 9.63163 9.66825C9.19555 9.5778 8.72931 9.48093 8.25683 9.3825C6.26443 8.96741 4.19374 8.53126 3.77102 8.42558C3.52059 8.36297 3.1504 8.13291 2.83574 7.7229C2.53053 7.32518 2.32001 6.81133 2.32001 6.2429C2.32001 5.67446 2.53053 5.16061 2.83574 4.7629C3.1504 4.35288 3.52059 4.12282 3.77102 4.06021C4.19374 3.95453 6.26443 3.51838 8.25683 3.1033C8.72931 3.00486 9.19555 2.90799 9.63163 2.81754C9.15322 3.76289 8.84493 4.9832 8.84493 6.2429ZM10.6415 11.3071L11.3605 11.4555C11.5503 11.5251 11.753 11.5658 11.9664 11.5658C12.487 11.5658 12.9438 11.324 13.3054 11.0098C13.6697 10.6933 13.9841 10.2653 14.2404 9.78519C14.7534 8.82472 15.0879 7.55518 15.0879 6.2429C15.0879 4.93061 14.7534 3.66107 14.2404 2.7006C13.9841 2.22053 13.6697 1.79252 13.3054 1.47602C12.9438 1.1618 12.487 0.920013 11.9664 0.920013C11.753 0.920013 11.5503 0.960648 11.3605 1.03025L10.6415 1.17872C9.92585 1.32667 8.96238 1.52625 7.97129 1.73272C6.00122 2.14316 3.88931 2.58755 3.43147 2.70201C2.80136 2.85954 2.18093 3.3166 1.72511 3.91055C1.25984 4.51681 0.920013 5.32378 0.920013 6.2429C0.920013 7.16201 1.25984 7.96898 1.72511 8.57524C1.99636 8.9287 2.32592 9.23368 2.68111 9.4559V12.6269C2.68111 13.9861 3.78298 15.088 5.14221 15.088H5.58249C6.94171 15.088 8.04358 13.9861 8.04358 12.6269V10.7681C9.00912 10.9692 9.94327 11.1627 10.6415 11.3071ZM6.64358 10.4757C5.63558 10.2644 4.69787 10.0659 4.08111 9.93109V12.6269C4.08111 13.2129 4.55618 13.688 5.14221 13.688H5.58249C6.16851 13.688 6.64358 13.2129 6.64358 12.6269V10.4757Z" fill="black"/>
</g>
<defs>
<clipPath id="clip0_354_89">
<rect width="16" height="16" fill="white"/>
</clipPath>
</defs>
</svg>
