<svg width="16" height="16" viewBox="0 0 16 16" fill="none" xmlns="http://www.w3.org/2000/svg">
<g clip-path="url(#clip0_144_28)">
<path fill-rule="evenodd" clip-rule="evenodd" d="M2.35 7.99375C2.35 4.87679 4.87679 2.35 7.99375 2.35C11.1107 2.35 13.6375 4.87679 13.6375 7.99375C13.6375 11.1107 11.1107 13.6375 7.99375 13.6375C4.87679 13.6375 2.35 11.1107 2.35 7.99375ZM7.99375 0.949997C4.10359 0.949997 0.949997 4.10359 0.949997 7.99375C0.949997 11.8839 4.10359 15.0375 7.99375 15.0375C11.8839 15.0375 15.0375 11.8839 15.0375 7.99375C15.0375 4.10359 11.8839 0.949997 7.99375 0.949997ZM8.89999 5.375C8.89999 5.85825 8.50824 6.25 8.02499 6.25C7.54174 6.25 7.14999 5.85825 7.14999 5.375C7.14999 4.89175 7.54174 4.5 8.02499 4.5C8.50824 4.5 8.89999 4.89175 8.89999 5.375ZM7.99374 8.15C8.46319 8.15 8.84374 8.53056 8.84374 9V10.7C8.84374 11.1694 8.46319 11.55 7.99374 11.55C7.5243 11.55 7.14374 11.1694 7.14374 10.7V9C7.14374 8.53056 7.5243 8.15 7.99374 8.15Z" fill="#2D2D2D"/>
</g>
<defs>
<clipPath id="clip0_144_28">
<rect width="16" height="16" fill="white"/>
</clipPath>
</defs>
</svg>
