<svg width="16" height="16" viewBox="0 0 16 16" fill="none" xmlns="http://www.w3.org/2000/svg"><path d="M13.807 2.411 C 13.659 2.464,13.585 2.520,13.474 2.663 C 13.418 2.733,11.855 4.838,10.000 7.341 C 8.145 9.843,6.617 11.891,6.606 11.892 C 6.595 11.893,5.864 11.298,4.981 10.570 C 4.099 9.842,3.334 9.221,3.282 9.190 C 3.209 9.147,3.142 9.133,2.998 9.133 C 2.834 9.133,2.792 9.144,2.679 9.214 C 2.429 9.368,2.320 9.665,2.411 9.940 C 2.444 10.038,2.497 10.113,2.608 10.218 C 2.927 10.518,6.354 13.323,6.474 13.381 C 6.575 13.431,6.630 13.440,6.756 13.430 C 7.074 13.405,6.791 13.760,10.832 8.320 C 12.852 5.599,14.531 3.322,14.562 3.259 C 14.630 3.122,14.635 2.904,14.573 2.755 C 14.452 2.465,14.100 2.307,13.807 2.411 " stroke="none" fill-rule="evenodd" fill="black"></path></svg>