<svg width="16" height="16" viewBox="0 0 16 16" fill="none" xmlns="http://www.w3.org/2000/svg">
<path fill-rule="evenodd" clip-rule="evenodd" d="M7.82268 2.2703C8.11004 2.01168 8.13334 1.56908 7.87471 1.28172C7.61609 0.994362 7.17349 0.971067 6.88613 1.22969L4.7306 3.16967C4.5831 3.30242 4.49887 3.49154 4.49887 3.68998C4.49887 3.88842 4.5831 4.07753 4.7306 4.21028L6.88613 6.15026C7.17349 6.40889 7.61609 6.38559 7.87471 6.09823C8.13334 5.81088 8.11004 5.36827 7.82268 5.10965L7.02306 4.39H9.07884C11.5494 4.39 13.5521 6.39275 13.5521 8.86328V9.07884C13.5521 9.46544 13.8655 9.77884 14.2521 9.77884C14.6387 9.77884 14.9521 9.46544 14.9521 9.07884V8.86328C14.9521 5.61955 12.3226 2.99 9.07884 2.99H7.02302L7.82268 2.2703ZM9.116 9.85182C8.82864 9.59319 8.38604 9.61649 8.12742 9.90385C7.8688 10.1912 7.89209 10.6338 8.17945 10.8924L8.9791 11.6121H6.92329C4.45276 11.6121 2.45 9.60934 2.45 7.13882V6.92327C2.45 6.53667 2.1366 6.22327 1.75 6.22327C1.3634 6.22327 1.05 6.53667 1.05 6.92327V7.13882C1.05 10.3825 3.67956 13.0121 6.92329 13.0121H8.97908L8.17945 13.7318C7.89209 13.9904 7.8688 14.433 8.12742 14.7204C8.38604 15.0077 8.82864 15.031 9.116 14.7724L11.2715 12.8324C11.419 12.6997 11.5033 12.5105 11.5033 12.3121C11.5033 12.1137 11.419 11.9245 11.2715 11.7918L9.116 9.85182Z" fill="black"/>
</svg>
