<svg width="16" height="16" viewBox="0 0 16 16" fill="none" xmlns="http://www.w3.org/2000/svg">
<path fill-rule="evenodd" clip-rule="evenodd" d="M5.92663 2.22512C5.92663 2.10079 6.02741 2.00001 6.15174 2.00001H9.85218C9.9765 2.00001 10.0773 2.10079 10.0773 2.22512L10.0773 3.15023L10.0773 3.61278C10.0773 3.73711 9.9765 3.83789 9.85218 3.83789H6.15174C6.02741 3.83789 5.92663 3.73711 5.92663 3.61278V3.15105L5.92663 3.15023L5.92663 3.1494V2.22512ZM4.52663 2.45023V2.22512C4.52663 1.32759 5.25421 0.600006 6.15174 0.600006H9.85218C10.7497 0.600006 11.4773 1.32759 11.4773 2.22512V2.45023H11.9337C13.3421 2.45023 14.4839 3.592 14.4839 5.00045V12.8639C14.4839 14.2723 13.3421 15.4141 11.9337 15.4141H4.07024C2.66179 15.4141 1.52002 14.2723 1.52002 12.8639V5.00045C1.52002 3.592 2.66179 2.45023 4.07024 2.45023H4.52663ZM4.54385 3.85023H4.07024C3.43499 3.85023 2.92002 4.3652 2.92002 5.00045V12.8639C2.92002 13.4991 3.43499 14.0141 4.07024 14.0141H11.9337C12.5689 14.0141 13.0839 13.4991 13.0839 12.8639V5.00045C13.0839 4.3652 12.5689 3.85023 11.9337 3.85023H11.4601C11.3451 4.6352 10.669 5.23789 9.85218 5.23789H6.15174C5.33487 5.23789 4.65877 4.6352 4.54385 3.85023ZM5.22046 8.23833C5.22046 7.85173 5.53386 7.53833 5.92046 7.53833H10.0835C10.4701 7.53833 10.7835 7.85173 10.7835 8.23833C10.7835 8.62493 10.4701 8.93833 10.0835 8.93833H5.92046C5.53386 8.93833 5.22046 8.62493 5.22046 8.23833ZM5.92046 10.3137C5.53386 10.3137 5.22046 10.6271 5.22046 11.0137C5.22046 11.4003 5.53386 11.7137 5.92046 11.7137H10.0835C10.4701 11.7137 10.7835 11.4003 10.7835 11.0137C10.7835 10.6271 10.4701 10.3137 10.0835 10.3137H5.92046Z" fill="black"/>
</svg>
