<svg width="16" height="16" viewBox="0 0 16 16" fill="none" xmlns="http://www.w3.org/2000/svg">
<path fill-rule="evenodd" clip-rule="evenodd" d="M2.96723 2.96724C3.33042 2.60404 3.82301 2.40001 4.33664 2.40001H11.6655C12.1791 2.40001 12.6717 2.60405 13.0349 2.96724C13.3981 3.33043 13.6021 3.82302 13.6021 4.33665V11.6655C13.6021 12.1791 13.3981 12.6717 13.0349 13.0349C12.6717 13.3981 12.1791 13.6021 11.6655 13.6021H4.33664C3.82301 13.6021 3.33042 13.3981 2.96723 13.0349C2.60404 12.6717 2.4 12.1791 2.4 11.6655V4.33665C2.4 3.82302 2.60404 3.33043 2.96723 2.96724ZM4.33664 1.10001C3.47823 1.10001 2.65498 1.44101 2.04799 2.048C1.441 2.65499 1.1 3.47824 1.1 4.33665V11.6655C1.1 12.5239 1.441 13.3471 2.04799 13.9541C2.65498 14.5611 3.47823 14.9021 4.33664 14.9021H11.6655C12.5239 14.9021 13.3471 14.5611 13.9541 13.9541C14.5611 13.3471 14.9021 12.5239 14.9021 11.6655V4.33665C14.9021 3.47824 14.5611 2.65499 13.9541 2.048C13.3471 1.44101 12.5239 1.10001 11.6655 1.10001H4.33664ZM5.19886 3.68665C4.7978 3.68665 4.41316 3.84597 4.12956 4.12956C3.84597 4.41316 3.68664 4.7978 3.68664 5.19886V6.49218C3.68664 6.85117 3.97766 7.14218 4.33664 7.14218C4.69563 7.14218 4.98664 6.85117 4.98664 6.49218V5.19886C4.98664 5.14258 5.009 5.0886 5.0488 5.0488C5.0886 5.009 5.14258 4.98665 5.19886 4.98665H6.49218C6.85117 4.98665 7.14218 4.69563 7.14218 4.33665C7.14218 3.97766 6.85117 3.68665 6.49218 3.68665H5.19886ZM9.50994 3.68665C9.15095 3.68665 8.85994 3.97766 8.85994 4.33665C8.85994 4.69563 9.15095 4.98665 9.50994 4.98665H10.8033C10.8595 4.98665 10.9135 5.009 10.9533 5.0488C10.9931 5.0886 11.0155 5.14258 11.0155 5.19886V6.49218C11.0155 6.85117 11.3065 7.14218 11.6655 7.14218C12.0245 7.14218 12.3155 6.85117 12.3155 6.49218V5.19886C12.3155 4.7978 12.1562 4.41316 11.8726 4.12956C11.589 3.84597 11.2043 3.68665 10.8033 3.68665H9.50994ZM4.98664 9.50994C4.98664 9.15095 4.69563 8.85994 4.33664 8.85994C3.97766 8.85994 3.68664 9.15095 3.68664 9.50994V10.8033C3.68664 11.2043 3.84597 11.589 4.12956 11.8726C4.41316 12.1562 4.7978 12.3155 5.19886 12.3155H6.49218C6.85117 12.3155 7.14218 12.0245 7.14218 11.6655C7.14218 11.3065 6.85117 11.0155 6.49218 11.0155H5.19886C5.14258 11.0155 5.0886 10.9931 5.0488 10.9533C5.009 10.9135 4.98664 10.8595 4.98664 10.8033V9.50994ZM12.3155 9.50994C12.3155 9.15095 12.0245 8.85994 11.6655 8.85994C11.3065 8.85994 11.0155 9.15095 11.0155 9.50994V10.8033C11.0155 10.8595 10.9931 10.9135 10.9533 10.9533C10.9135 10.9931 10.8595 11.0155 10.8033 11.0155H9.50994C9.15095 11.0155 8.85994 11.3065 8.85994 11.6655C8.85994 12.0245 9.15095 12.3155 9.50994 12.3155H10.8033C11.2043 12.3155 11.589 12.1562 11.8726 11.8726C12.1562 11.589 12.3155 11.2043 12.3155 10.8033V9.50994Z" fill="#0E1438"/>
</svg>
