<svg width="16" height="16" viewBox="0 0 16 16" fill="none" xmlns="http://www.w3.org/2000/svg">
<g clip-path="url(#clip0_1612_74)">
<path fill-rule="evenodd" clip-rule="evenodd" d="M1.83105 1.65624C1.83105 1.26964 2.14446 0.956238 2.53105 0.956238H11.7186C13.0717 0.956238 14.1686 2.05314 14.1686 3.40624V12.5937C14.1686 13.9468 13.0717 15.0437 11.7186 15.0437H2.53105C2.14446 15.0437 1.83105 14.7303 1.83105 14.3437V1.65624ZM3.23105 2.35624V13.6437H11.7186C12.2985 13.6437 12.7686 13.1736 12.7686 12.5937V3.40624C12.7686 2.82634 12.2985 2.35624 11.7186 2.35624H3.23105ZM7.4998 4.98124C6.79909 4.98124 6.23105 5.54928 6.23105 6.24999C6.23105 6.9507 6.79909 7.51874 7.4998 7.51874C8.20052 7.51874 8.76855 6.9507 8.76855 6.24999C8.76855 5.54928 8.20052 4.98124 7.4998 4.98124ZM4.83105 6.24999C4.83105 4.77608 6.02589 3.58124 7.4998 3.58124C8.97371 3.58124 10.1686 4.77608 10.1686 6.24999C10.1686 7.7239 8.97371 8.91874 7.4998 8.91874C6.02589 8.91874 4.83105 7.7239 4.83105 6.24999ZM5.53105 10.1437C5.14446 10.1437 4.83105 10.4571 4.83105 10.8437C4.83105 11.2303 5.14446 11.5437 5.53105 11.5437H9.46855C9.85515 11.5437 10.1686 11.2303 10.1686 10.8437C10.1686 10.4571 9.85515 10.1437 9.46855 10.1437H5.53105Z" fill="black"/>
</g>
<defs>
<clipPath id="clip0_1612_74">
<rect width="16" height="16" fill="white"/>
</clipPath>
</defs>
</svg>
