<svg width="16" height="16" viewBox="0 0 16 16" fill="none" xmlns="http://www.w3.org/2000/svg"><path d="M10.467 2.028 C 9.247 2.193,8.218 3.097,7.906 4.280 C 7.819 4.609,7.789 5.122,7.838 5.449 C 7.856 5.569,7.869 5.678,7.868 5.692 C 7.866 5.724,7.673 5.715,7.253 5.664 C 5.627 5.466,4.085 4.817,2.800 3.790 C 2.512 3.559,1.860 2.930,1.680 2.710 C 1.614 2.629,1.553 2.562,1.544 2.561 C 1.522 2.560,1.324 2.994,1.271 3.160 C 0.932 4.217,1.213 5.391,1.995 6.180 C 2.108 6.294,2.259 6.429,2.330 6.480 L 2.460 6.573 2.363 6.582 C 2.143 6.600,1.562 6.448,1.243 6.288 L 1.086 6.209 1.105 6.431 C 1.171 7.217,1.454 7.834,1.997 8.377 C 2.144 8.523,2.353 8.698,2.487 8.785 C 2.731 8.944,3.119 9.120,3.347 9.175 C 3.420 9.193,3.490 9.216,3.502 9.227 C 3.578 9.295,2.528 9.357,2.272 9.300 C 2.189 9.282,2.184 9.285,2.201 9.340 C 2.245 9.485,2.431 9.849,2.560 10.042 C 2.638 10.158,2.805 10.356,2.931 10.481 C 3.436 10.982,4.052 11.276,4.793 11.368 L 5.053 11.401 4.720 11.623 C 4.355 11.867,3.786 12.157,3.380 12.306 C 2.618 12.585,1.639 12.728,0.880 12.672 C 0.697 12.658,0.543 12.650,0.538 12.655 C 0.497 12.690,1.523 13.209,2.002 13.396 C 3.545 14.000,5.301 14.155,6.997 13.838 C 8.353 13.584,9.625 13.006,10.698 12.157 C 11.011 11.908,11.724 11.205,11.964 10.907 C 13.017 9.601,13.679 8.072,13.907 6.421 C 13.930 6.256,13.956 5.865,13.965 5.553 L 13.981 4.985 14.157 4.848 C 14.472 4.600,14.784 4.306,15.016 4.037 C 15.292 3.718,15.479 3.470,15.460 3.451 C 15.452 3.443,15.411 3.454,15.369 3.475 C 15.136 3.595,14.327 3.814,13.867 3.881 L 13.747 3.899 13.907 3.786 C 14.400 3.439,14.765 2.998,14.984 2.482 C 15.029 2.375,15.067 2.277,15.067 2.264 C 15.067 2.250,14.934 2.306,14.773 2.387 C 14.301 2.624,13.893 2.775,13.403 2.894 L 13.139 2.959 12.984 2.815 C 12.623 2.481,12.120 2.215,11.617 2.091 C 11.308 2.016,10.775 1.986,10.467 2.028 " stroke="none" fill-rule="evenodd"></path></svg>