<svg width="16" height="16" viewBox="0 0 16 16" fill="none" xmlns="http://www.w3.org/2000/svg">
<g clip-path="url(#clip0_702_30)">
<path d="M3.1665 10.0555V2.93276C3.1665 2.6791 3.3103 2.4477 3.54576 2.35334C4.05172 2.15058 4.99285 1.83334 5.92841 1.83334C7.30337 1.83334 8.6963 3.20372 10.0712 3.20372C10.7008 3.20372 11.333 3.06004 11.8333 2.90428C12.3052 2.75737 12.8332 3.09726 12.8332 3.59146V9.64134C12.8332 9.89501 12.6894 10.1264 12.4539 10.2207C11.948 10.4235 11.0068 10.7407 10.0712 10.7407C8.6963 10.7407 7.30337 9.37041 5.92841 9.37041C4.55347 9.37041 3.1665 10.0555 3.1665 10.0555ZM3.1665 10.0555V14.1667" stroke="black" stroke-width="1.5" stroke-linecap="round" stroke-linejoin="round"/>
</g>
<defs>
<clipPath id="clip0_702_30">
<rect width="16" height="16" fill="white"/>
</clipPath>
</defs>
</svg>
