<svg width="16" height="16" viewBox="0 0 16 16" fill="none" xmlns="http://www.w3.org/2000/svg">
<path fill-rule="evenodd" clip-rule="evenodd" d="M5.22283 5.69959C5.52637 5.41774 5.54394 4.94319 5.26209 4.63966C4.98024 4.33613 4.50569 4.31855 4.20216 4.6004L1.13966 7.44415C0.98683 7.58606 0.899994 7.7852 0.899994 7.99375C0.899994 8.2023 0.98683 8.40143 1.13966 8.54334L4.20216 11.3871C4.50569 11.6689 4.98024 11.6514 5.26209 11.3478C5.54394 11.0443 5.52637 10.5698 5.22283 10.2879L2.7522 7.99375L5.22283 5.69959ZM11.7853 4.6004C11.4818 4.31855 11.0073 4.33613 10.7254 4.63966C10.4435 4.94319 10.4611 5.41774 10.7647 5.69959L13.2353 7.99375L10.7647 10.2879C10.4611 10.5698 10.4435 11.0443 10.7254 11.3478C11.0073 11.6514 11.4818 11.6689 11.7853 11.3871L14.8478 8.54334C15.0007 8.40143 15.0875 8.2023 15.0875 7.99375C15.0875 7.7852 15.0007 7.58606 14.8478 7.44415L11.7853 4.6004Z" fill="#0E1438"/>
</svg>
