<svg width="16" height="16" viewBox="0 0 16 16" fill="none" xmlns="http://www.w3.org/2000/svg"><path d="M11.351 4.563 C 11.294 4.576,11.204 4.618,11.151 4.657 C 11.097 4.696,10.045 5.895,8.813 7.322 L 6.573 9.918 5.720 9.054 C 5.251 8.579,4.825 8.169,4.773 8.144 C 4.639 8.076,4.364 8.081,4.227 8.153 C 4.101 8.218,3.998 8.323,3.932 8.453 C 3.866 8.582,3.867 8.835,3.933 8.973 C 4.000 9.114,6.185 11.316,6.333 11.394 C 6.481 11.470,6.723 11.471,6.867 11.394 C 6.925 11.363,7.017 11.292,7.071 11.236 C 7.125 11.179,8.269 9.861,9.612 8.307 C 11.833 5.738,12.059 5.467,12.097 5.339 C 12.230 4.883,11.816 4.452,11.351 4.563 " stroke="none" fill-rule="evenodd" fill="black"></path></svg>