<svg width="16" height="16" viewBox="0 0 16 16" fill="none" xmlns="http://www.w3.org/2000/svg"><path d="M7.733 1.145 C 7.619 1.168,6.282 1.831,3.131 3.430 C 1.844 4.083,1.730 4.146,1.589 4.287 C 1.321 4.556,1.200 4.891,1.200 5.358 C 1.201 5.829,1.325 6.148,1.615 6.426 C 1.819 6.623,2.044 6.734,2.327 6.777 L 2.533 6.810 2.533 8.882 L 2.533 10.954 2.392 11.025 C 2.022 11.212,1.872 11.424,1.651 12.071 C 1.444 12.678,1.424 12.869,1.530 13.209 C 1.675 13.676,2.024 13.993,2.503 14.095 C 2.652 14.126,3.532 14.132,8.000 14.132 C 12.468 14.132,13.348 14.126,13.497 14.095 C 13.976 13.993,14.325 13.676,14.470 13.209 C 14.576 12.869,14.556 12.678,14.349 12.071 C 14.128 11.424,13.978 11.212,13.608 11.025 L 13.467 10.954 13.467 8.882 L 13.467 6.810 13.673 6.777 C 13.956 6.734,14.181 6.623,14.385 6.426 C 14.584 6.236,14.708 6.018,14.761 5.767 C 14.806 5.552,14.811 5.191,14.771 4.972 C 14.712 4.646,14.477 4.287,14.213 4.120 C 14.062 4.024,8.527 1.231,8.397 1.185 C 8.256 1.135,7.899 1.114,7.733 1.145 M10.773 3.769 L 13.533 5.164 13.533 5.349 L 13.533 5.533 8.000 5.533 L 2.467 5.533 2.467 5.349 L 2.467 5.164 5.227 3.769 C 6.745 3.002,7.993 2.374,8.000 2.374 C 8.007 2.374,9.255 3.002,10.773 3.769 M5.200 8.840 L 5.200 10.880 4.493 10.880 L 3.787 10.880 3.787 8.840 L 3.787 6.800 4.493 6.800 L 5.200 6.800 5.200 8.840 M9.547 8.840 L 9.547 10.880 8.000 10.880 L 6.453 10.880 6.453 8.840 L 6.453 6.800 8.000 6.800 L 9.547 6.800 9.547 8.840 M12.213 8.840 L 12.213 10.880 11.507 10.880 L 10.800 10.880 10.800 8.840 L 10.800 6.800 11.507 6.800 L 12.213 6.800 12.213 8.840 M13.169 12.480 C 13.232 12.670,13.276 12.838,13.267 12.853 C 13.244 12.891,2.756 12.891,2.733 12.853 C 2.724 12.838,2.768 12.670,2.831 12.480 L 2.945 12.133 8.000 12.133 L 13.055 12.133 13.169 12.480 " stroke="none" fill-rule="evenodd" fill="black"></path></svg>