<svg width="16" height="16" viewBox="0 0 16 16" fill="none" xmlns="http://www.w3.org/2000/svg">
<path fill-rule="evenodd" clip-rule="evenodd" d="M3.3 8.00058C3.3 5.40452 5.40452 3.3 8.00058 3.3C10.5966 3.3 12.7012 5.40452 12.7012 8.00058C12.7012 10.5966 10.5966 12.7012 8.00058 12.7012C5.40452 12.7012 3.3 10.5966 3.3 8.00058ZM8.00058 2C4.68655 2 2 4.68655 2 8.00058C2 11.3146 4.68655 14.0012 8.00058 14.0012C11.3146 14.0012 14.0012 11.3146 14.0012 8.00058C14.0012 4.68655 11.3146 2 8.00058 2ZM7.3506 5.04849V8.00054V8.26978L7.54098 8.46016L9.017 9.93618L9.93624 9.01694L8.6506 7.7313V5.04849H7.3506Z" fill="black"/>
</svg>
