<svg width="16" height="16" viewBox="0 0 16 16" fill="none" xmlns="http://www.w3.org/2000/svg"><path d="M9.613 3.704 C 9.569 3.715,9.497 3.744,9.453 3.767 C 9.348 3.824,5.837 7.346,5.766 7.467 C 5.613 7.728,5.590 8.100,5.706 8.413 C 5.764 8.566,5.846 8.653,7.596 10.407 C 9.256 12.070,9.438 12.244,9.556 12.283 C 10.062 12.451,10.537 11.926,10.318 11.440 C 10.277 11.348,9.876 10.931,8.606 9.660 L 6.947 8.000 8.606 6.340 C 9.876 5.069,10.277 4.652,10.318 4.560 C 10.490 4.177,10.239 3.747,9.813 3.697 C 9.747 3.690,9.657 3.693,9.613 3.704 " stroke="none" fill-rule="evenodd" fill="black"></path></svg>