<svg width="17" height="17" viewBox="0 0 17 17" fill="none" xmlns="http://www.w3.org/2000/svg">
<path fill-rule="evenodd" clip-rule="evenodd" d="M4.23847 3.0572C4.51183 3.33057 4.51183 3.77378 4.23847 4.04715C1.92007 6.36553 1.92007 10.1244 4.23847 12.4428C4.51183 12.7161 4.51183 13.1594 4.23847 13.4327C3.9651 13.7061 3.52188 13.7061 3.24852 13.4327C0.383388 10.5676 0.383388 5.92232 3.24852 3.0572C3.52188 2.78383 3.9651 2.78383 4.23847 3.0572ZM12.6341 3.0572C12.9075 2.78383 13.3507 2.78383 13.624 3.0572C16.4892 5.92232 16.4892 10.5676 13.624 13.4327C13.3507 13.7061 12.9075 13.7061 12.6341 13.4327C12.3607 13.1594 12.3607 12.7161 12.6341 12.4428C14.9525 10.1244 14.9525 6.36553 12.6341 4.04715C12.3607 3.77378 12.3607 3.33057 12.6341 3.0572ZM11.6823 4.99896C11.4089 4.72559 10.9657 4.72559 10.6923 4.99895C10.419 5.27232 10.419 5.71553 10.6923 5.9889C11.9382 7.23484 11.9382 9.25488 10.6923 10.5009C10.419 10.7743 10.419 11.2175 10.6923 11.4908C10.9657 11.7642 11.4089 11.7642 11.6823 11.4908C13.4749 9.69809 13.4749 6.79164 11.6823 4.99896ZM6.18033 4.99896C6.4537 5.27232 6.4537 5.71554 6.18033 5.98891C4.9344 7.23484 4.93439 9.25488 6.18034 10.5009C6.45371 10.7743 6.4537 11.2175 6.18032 11.4908C5.90695 11.7642 5.46374 11.7642 5.19037 11.4908C3.39772 9.69809 3.39771 6.79163 5.19038 4.99896C5.46375 4.72559 5.90697 4.72559 6.18033 4.99896ZM8.47849 8.24497C8.47849 8.26836 8.45957 8.28727 8.43619 8.28727C8.41282 8.28727 8.39389 8.26836 8.39389 8.24497C8.39389 8.22157 8.41279 8.20267 8.43619 8.20267C8.45959 8.20267 8.47849 8.22157 8.47849 8.24497ZM8.43619 7.28727C7.90734 7.28727 7.47849 7.71602 7.47849 8.24497C7.47849 8.77385 7.90731 9.20267 8.43619 9.20267C8.96508 9.20267 9.39389 8.77385 9.39389 8.24497C9.39389 7.71602 8.96505 7.28727 8.43619 7.28727Z" fill="black"/>
</svg>
