<svg width="16" height="16" viewBox="0 0 16 16" fill="none" xmlns="http://www.w3.org/2000/svg"><path d="M4.493 1.230 C 4.405 1.241,4.279 1.272,4.213 1.301 C 4.069 1.363,3.847 1.528,3.750 1.644 C 3.684 1.723,2.994 2.977,2.731 3.496 C 2.537 3.879,2.534 3.904,2.534 5.297 L 2.533 6.527 2.113 6.539 C 1.657 6.552,1.547 6.579,1.404 6.715 C 1.363 6.754,1.303 6.835,1.271 6.893 L 1.213 7.000 1.206 9.933 C 1.200 12.032,1.207 12.918,1.228 13.049 C 1.291 13.424,1.577 13.813,1.917 13.985 C 2.222 14.140,1.928 14.132,8.000 14.132 C 12.697 14.132,13.615 14.126,13.763 14.095 C 14.271 13.987,14.687 13.556,14.772 13.049 C 14.793 12.918,14.800 12.032,14.794 9.933 L 14.787 7.000 14.729 6.893 C 14.697 6.835,14.637 6.754,14.596 6.715 C 14.453 6.579,14.343 6.552,13.887 6.539 L 13.467 6.527 13.466 4.470 C 13.466 2.208,13.465 2.194,13.305 1.894 C 13.193 1.684,12.929 1.433,12.714 1.333 C 12.613 1.285,12.463 1.243,12.345 1.227 C 12.087 1.194,9.247 1.194,8.988 1.227 C 8.870 1.243,8.721 1.285,8.620 1.333 C 8.405 1.433,8.140 1.684,8.028 1.894 C 7.869 2.194,7.868 2.208,7.867 4.473 L 7.867 6.533 7.333 6.533 L 6.800 6.533 6.800 5.300 C 6.799 3.970,6.792 3.882,6.654 3.597 C 6.419 3.110,5.629 1.692,5.542 1.602 C 5.254 1.301,4.913 1.181,4.493 1.230 M12.207 4.500 L 12.214 6.533 10.667 6.533 L 9.120 6.533 9.120 5.827 L 9.120 5.120 9.713 5.119 C 10.233 5.119,10.320 5.113,10.415 5.069 C 10.912 4.844,10.910 4.148,10.413 3.929 C 10.325 3.890,10.206 3.880,9.713 3.872 L 9.120 3.862 9.120 3.175 C 9.120 2.798,9.128 2.481,9.138 2.471 C 9.148 2.461,9.841 2.456,10.678 2.460 L 12.200 2.467 12.207 4.500 M5.113 3.365 L 5.547 4.170 5.547 5.351 L 5.547 6.533 4.667 6.533 L 3.787 6.533 3.787 5.351 L 3.787 4.170 4.220 3.365 C 4.458 2.922,4.659 2.560,4.667 2.560 C 4.674 2.560,4.875 2.922,5.113 3.365 M13.540 10.327 L 13.533 12.867 8.000 12.867 L 2.467 12.867 2.460 10.327 L 2.453 7.787 8.000 7.787 L 13.547 7.787 13.540 10.327 " stroke="none" fill-rule="evenodd" fill="black"></path></svg>