<svg width="16" height="16" viewBox="0 0 16 16" fill="none" xmlns="http://www.w3.org/2000/svg">
<path fill-rule="evenodd" clip-rule="evenodd" d="M5.07125 0.720001C3.66223 0.720001 2.52 1.86223 2.52 3.27124V12.7278C2.52 14.1368 3.66223 15.279 5.07125 15.279H10.9253C12.3343 15.279 13.4765 14.1368 13.4765 12.7278V3.27124C13.4765 1.86223 12.3343 0.720001 10.9253 0.720001H5.07125ZM4.02 3.27124C4.02 2.69066 4.49066 2.22 5.07125 2.22H10.9253C11.5059 2.22 11.9765 2.69066 11.9765 3.27124V12.7278C11.9765 13.3083 11.5059 13.779 10.9253 13.779H5.07125C4.49066 13.779 4.02 13.3083 4.02 12.7278V3.27124ZM7.7731 11.5275C7.35889 11.5275 7.0231 11.8632 7.0231 12.2775C7.0231 12.6917 7.35889 13.0275 7.7731 13.0275H8.22341C8.63763 13.0275 8.97341 12.6917 8.97341 12.2775C8.97341 11.8632 8.63763 11.5275 8.22341 11.5275H7.7731Z" fill="#0E1438"/>
</svg>
