<svg width="16" height="16" viewBox="0 0 16 16" fill="none" xmlns="http://www.w3.org/2000/svg">
<g clip-path="url(#clip0_233_55)">
<path fill-rule="evenodd" clip-rule="evenodd" d="M2.4 7.99374C2.4 4.9044 4.90441 2.39999 7.99375 2.39999C11.0831 2.39999 13.5875 4.9044 13.5875 7.99374C13.5875 11.0831 11.0831 13.5875 7.99375 13.5875C4.90441 13.5875 2.4 11.0831 2.4 7.99374ZM7.99375 0.899994C4.07598 0.899994 0.900002 4.07597 0.900002 7.99374C0.900002 11.9115 4.07598 15.0875 7.99375 15.0875C11.9115 15.0875 15.0875 11.9115 15.0875 7.99374C15.0875 4.07597 11.9115 0.899994 7.99375 0.899994ZM8.74375 4.27499V4.39999H9.9625C10.3767 4.39999 10.7125 4.73578 10.7125 5.14999C10.7125 5.56421 10.3767 5.89999 9.9625 5.89999H7.44688C7.07581 5.89999 6.775 6.2008 6.775 6.57187C6.775 6.94293 7.07581 7.24374 7.44688 7.24374H8.54063C9.74012 7.24374 10.7125 8.21613 10.7125 9.41562C10.7125 10.5466 9.848 11.4757 8.74375 11.5781V11.7125C8.74375 12.1267 8.40797 12.4625 7.99375 12.4625C7.57954 12.4625 7.24375 12.1267 7.24375 11.7125V11.5875H6.025C5.61079 11.5875 5.275 11.2517 5.275 10.8375C5.275 10.4233 5.61079 10.0875 6.025 10.0875H8.54063C8.91169 10.0875 9.2125 9.78669 9.2125 9.41562C9.2125 9.04455 8.91169 8.74374 8.54063 8.74374H7.44688C6.24738 8.74374 5.275 7.77136 5.275 6.57187C5.275 5.44087 6.1395 4.51179 7.24375 4.40937V4.27499C7.24375 3.86078 7.57954 3.52499 7.99375 3.52499C8.40797 3.52499 8.74375 3.86078 8.74375 4.27499Z" fill="#2D2D2D"/>
</g>
<defs>
<clipPath id="clip0_233_55">
<rect width="16" height="16" fill="white"/>
</clipPath>
</defs>
</svg>
