<svg width="16" height="16" viewBox="0 0 16 16" fill="none" xmlns="http://www.w3.org/2000/svg">
<g clip-path="url(#clip0_99_36)">
<path fill-rule="evenodd" clip-rule="evenodd" d="M6.02794 1.3C4.96313 1.3 4.09992 2.1632 4.09992 3.22802C4.09992 4.29283 4.96313 5.15603 6.02794 5.15603C7.09276 5.15603 7.95596 4.29283 7.95596 3.22802C7.95596 2.1632 7.09276 1.3 6.02794 1.3ZM2.69992 3.22802C2.69992 1.39 4.18993 -0.1 6.02794 -0.1C7.86596 -0.1 9.35596 1.39 9.35596 3.22802C9.35596 5.06603 7.86596 6.55603 6.02794 6.55603C4.18993 6.55603 2.69992 5.06603 2.69992 3.22802ZM2.30405 13.6201C2.44175 12.9429 2.72732 12.0576 3.29873 11.3542C3.84704 10.6791 4.6805 10.1397 6.02791 10.1397C7.37533 10.1397 8.20879 10.6791 8.7571 11.3542C9.32851 12.0576 9.61407 12.9429 9.75178 13.6201C9.75644 13.643 9.75415 13.6566 9.75188 13.6645C9.74928 13.6736 9.74367 13.6855 9.73174 13.6988C9.70715 13.7261 9.65673 13.7568 9.5813 13.7568H2.47453C2.3991 13.7568 2.34868 13.7261 2.32409 13.6988C2.31216 13.6855 2.30655 13.6736 2.30395 13.6645C2.30168 13.6566 2.29939 13.643 2.30405 13.6201ZM6.02791 8.73969C4.23157 8.73969 3.0085 9.49095 2.21204 10.4715C1.43867 11.4236 1.0912 12.5588 0.932126 13.3411C0.722727 14.3709 1.56389 15.1568 2.47453 15.1568H9.5813C10.4919 15.1568 11.3331 14.3709 11.1237 13.3411C10.9646 12.5588 10.6172 11.4236 9.84379 10.4715C9.04732 9.49095 7.82426 8.73969 6.02791 8.73969ZM12.0007 8.73969C11.6141 8.73969 11.3007 9.05309 11.3007 9.43969C11.3007 9.82629 11.6141 10.1397 12.0007 10.1397C12.7067 10.1397 13.2146 10.4874 13.615 11.0546C14.03 11.6426 14.2902 12.4214 14.446 13.1234C14.5101 13.4121 14.291 13.7568 13.8421 13.7568H12.9564C12.5698 13.7568 12.2564 14.0702 12.2564 14.4568C12.2564 14.8434 12.5698 15.1568 12.9564 15.1568H13.8421C15.0302 15.1568 16.1034 14.1293 15.8128 12.82C15.6402 12.0426 15.3292 11.0554 14.7587 10.2472C14.1736 9.41829 13.2813 8.73969 12.0007 8.73969ZM11.0451 -0.1C10.6585 -0.1 10.3451 0.213401 10.3451 0.6C10.3451 0.986599 10.6585 1.3 11.0451 1.3C12.0246 1.3 12.7342 2.07201 12.7342 3.22802C12.7342 4.38403 12.0246 5.15603 11.0451 5.15603C10.6585 5.15603 10.3451 5.46944 10.3451 5.85603C10.3451 6.24263 10.6585 6.55603 11.0451 6.55603C12.9684 6.55603 14.1342 4.97484 14.1342 3.22802C14.1342 1.4812 12.9684 -0.1 11.0451 -0.1Z" fill="#0E1438"/>
</g>
<defs>
<clipPath id="clip0_99_36">
<rect width="16" height="16" fill="white"/>
</clipPath>
</defs>
</svg>
