<svg width="16" height="16" viewBox="0 0 16 16" fill="none" xmlns="http://www.w3.org/2000/svg">
<path fill-rule="evenodd" clip-rule="evenodd" d="M2.50049 4.33657C2.50049 3.79867 2.93654 3.36261 3.47445 3.36261H12.5252C13.0632 3.36261 13.4992 3.79866 13.4992 4.33657V5.84143H2.50049V4.33657ZM2.50049 7.14143V11.6634C2.50049 12.2013 2.93654 12.6374 3.47445 12.6374H12.5252C13.0632 12.6374 13.4992 12.2013 13.4992 11.6634V7.14143H2.50049ZM3.47445 1.86261C2.10812 1.86261 1.00049 2.97024 1.00049 4.33657V11.6634C1.00049 13.0298 2.10812 14.1374 3.47445 14.1374H12.5252C13.8916 14.1374 14.9992 13.0298 14.9992 11.6634V4.33657C14.9992 2.97025 13.8916 1.86261 12.5252 1.86261H3.47445ZM3.68645 9.93947C3.68645 9.58048 3.97747 9.28947 4.33645 9.28947H6.4914C6.85039 9.28947 7.1414 9.58048 7.1414 9.93947C7.1414 10.2985 6.85039 10.5895 6.4914 10.5895H4.33645C3.97747 10.5895 3.68645 10.2985 3.68645 9.93947ZM11.2322 9.28947C10.8733 9.28947 10.5822 9.58048 10.5822 9.93947C10.5822 10.2985 10.8733 10.5895 11.2322 10.5895H11.6629C12.0218 10.5895 12.3129 10.2985 12.3129 9.93947C12.3129 9.58048 12.0218 9.28947 11.6629 9.28947H11.2322Z" fill="black"/>
</svg>
