<svg width="16" height="16" viewBox="0 0 16 16" fill="none" xmlns="http://www.w3.org/2000/svg">
<path fill-rule="evenodd" clip-rule="evenodd" d="M8.00065 1.0014C6.48358 1.0014 5.08125 1.20341 4.0341 1.54915C3.51426 1.72078 3.04299 1.94045 2.68717 2.2182C2.34001 2.4892 2.00146 2.90014 2.00146 3.45102V6.42006V9.31404V12.5491C2.00146 13.1 2.34003 13.5109 2.68718 13.7819C3.04299 14.0596 3.51426 14.2793 4.0341 14.4509C5.08125 14.7967 6.48358 14.9987 8.00065 14.9987C8.4445 14.9987 8.87852 14.9814 9.29669 14.9483C8.88696 14.5724 8.55582 14.1122 8.33074 13.5952C8.22179 13.5975 8.11173 13.5987 8.00065 13.5987C6.59107 13.5987 5.3438 13.409 4.47303 13.1215C4.0339 12.9765 3.72912 12.8192 3.54862 12.6783C3.44672 12.5988 3.4119 12.5477 3.40146 12.5282V10.9697C3.60009 11.061 3.81269 11.1428 4.0341 11.2159C5.08126 11.5616 6.48358 11.7636 8.00065 11.7636C8.00273 11.7636 8.0048 11.7636 8.00687 11.7636C8.03589 11.2657 8.15597 10.7923 8.35071 10.3597C8.23524 10.3623 8.11852 10.3636 8.00065 10.3636C6.59106 10.3636 5.34379 10.174 4.47302 9.88649C4.03389 9.74151 3.72912 9.58418 3.54863 9.44329C3.44671 9.36372 3.4119 9.31271 3.40146 9.29318V8.07572C3.60009 8.16703 3.81269 8.24884 4.0341 8.32194C5.08126 8.66767 6.48358 8.86966 8.00065 8.86966C8.55702 8.86966 9.09795 8.8425 9.61159 8.79104C10.2781 8.29413 11.1047 8 12 8C12.7285 8 13.4115 8.19475 13.9998 8.53504V6.42006V3.45102C13.9998 2.90014 13.6613 2.4892 13.3141 2.2182C12.9583 1.94045 12.4871 1.72078 11.9672 1.54915C10.9201 1.20341 9.51774 1.0014 8.00065 1.0014ZM3.54863 3.32178C3.47254 3.38118 3.43385 3.42467 3.41479 3.45102C3.43385 3.47738 3.47254 3.52087 3.54863 3.58027C3.72912 3.72116 4.0339 3.8785 4.47303 4.02349C5.3438 4.31099 6.59107 4.50065 8.00065 4.50065C9.41025 4.50065 10.6575 4.31099 11.5283 4.02349C11.9674 3.8785 12.2722 3.72116 12.4527 3.58027C12.5288 3.52087 12.5675 3.47738 12.5865 3.45102C12.5675 3.42467 12.5288 3.38118 12.4527 3.32178C12.2722 3.18089 11.9674 3.02355 11.5283 2.87856C10.6575 2.59106 9.41025 2.4014 8.00065 2.4014C6.59107 2.4014 5.3438 2.59106 4.47303 2.87856C4.0339 3.02355 3.72912 3.18089 3.54863 3.32178ZM11.9672 5.3529C12.1886 5.2798 12.4012 5.19798 12.5998 5.10668V6.39921C12.5894 6.41874 12.5546 6.46975 12.4527 6.54932C12.2722 6.69021 11.9674 6.84754 11.5283 6.99253C10.6575 7.28002 9.41026 7.46966 8.00065 7.46966C6.59106 7.46966 5.3438 7.28002 4.47302 6.99252C4.0339 6.84754 3.72912 6.6902 3.54863 6.54931C3.44671 6.46975 3.4119 6.41874 3.40146 6.39921V5.10667C3.60009 5.19798 3.81269 5.2798 4.0341 5.3529C5.08125 5.69864 6.48358 5.90065 8.00065 5.90065C9.51774 5.90065 10.9201 5.69864 11.9672 5.3529ZM3.39864 12.5224C3.39806 12.5203 3.39759 12.5192 3.39751 12.5192C3.39746 12.5192 3.39752 12.5195 3.3977 12.5201C3.39788 12.5206 3.39818 12.5214 3.39864 12.5224ZM12.6038 3.42116C12.6037 3.42115 12.6032 3.42222 12.6027 3.42438C12.6032 3.42316 12.6035 3.42229 12.6037 3.42176C12.6038 3.42136 12.6038 3.42116 12.6038 3.42116ZM3.39864 3.42438C3.39772 3.42224 3.39743 3.42116 3.39751 3.42116C3.3976 3.42115 3.39806 3.42222 3.39864 3.42438Z" fill="black"/>
<path d="M13.4828 11C13.4828 11 12.4185 12.1531 11.8866 13.4828L11 12.4185" stroke="black" stroke-width="1.2" stroke-linecap="round" stroke-linejoin="round"/>
</svg>
