<svg width="16" height="16" viewBox="0 0 16 16" fill="none" xmlns="http://www.w3.org/2000/svg">
<path fill-rule="evenodd" clip-rule="evenodd" d="M3.80878 2.81501C4.08215 3.08838 4.08215 3.53159 3.80878 3.80496C1.49038 6.12335 1.49038 9.8822 3.80878 12.2006C4.08215 12.474 4.08215 12.9172 3.80878 13.1905C3.53541 13.4639 3.0922 13.4639 2.81883 13.1905C-0.0462995 10.3254 -0.0462995 5.68013 2.81883 2.81501C3.0922 2.54164 3.53541 2.54164 3.80878 2.81501ZM12.2044 2.81501C12.4778 2.54164 12.921 2.54164 13.1943 2.81501C16.0595 5.68013 16.0595 10.3254 13.1943 13.1905C12.921 13.4639 12.4778 13.4639 12.2044 13.1905C11.931 12.9172 11.931 12.474 12.2044 12.2006C14.5228 9.88221 14.5228 6.12335 12.2044 3.80496C11.931 3.53159 11.931 3.08838 12.2044 2.81501ZM11.2526 4.75677C10.9792 4.4834 10.536 4.4834 10.2626 4.75676C9.98927 5.03013 9.98927 5.47334 10.2626 5.74671C11.5085 6.99265 11.5086 9.0127 10.2626 10.2587C9.98926 10.5321 9.98928 10.9753 10.2627 11.2487C10.536 11.522 10.9792 11.522 11.2526 11.2486C13.0452 9.4559 13.0452 6.54945 11.2526 4.75677ZM5.75065 4.75677C6.02401 5.03014 6.02401 5.47335 5.75065 5.74672C4.50471 6.99265 4.5047 9.01269 5.75066 10.2587C6.02402 10.5321 6.02401 10.9753 5.75064 11.2487C5.47726 11.522 5.03405 11.522 4.76069 11.2486C2.96803 9.4559 2.96802 6.54945 4.7607 4.75677C5.03406 4.4834 5.47728 4.4834 5.75065 4.75677ZM8.04881 8.00278C8.04881 8.02617 8.02988 8.04508 8.00651 8.04508C7.98313 8.04508 7.96421 8.02617 7.96421 8.00278C7.96421 7.97938 7.98311 7.96048 8.00651 7.96048C8.02991 7.96048 8.04881 7.97938 8.04881 8.00278ZM8.00651 7.04508C7.47765 7.04508 7.04881 7.47383 7.04881 8.00278C7.04881 8.53166 7.47762 8.96048 8.00651 8.96048C8.53539 8.96048 8.96421 8.53166 8.96421 8.00278C8.96421 7.47383 8.53536 7.04508 8.00651 7.04508Z" fill="black"/>
</svg>
