<svg width="16" height="16" viewBox="0 0 16 16" fill="none" xmlns="http://www.w3.org/2000/svg">
<path d="M12.8313 3.80027C12.6635 3.80527 12.5043 3.87537 12.3874 3.99573L5.74164 10.6415L3.61551 8.51533C3.55601 8.45336 3.48475 8.40389 3.4059 8.36981C3.32705 8.33573 3.24219 8.31772 3.15629 8.31685C3.07039 8.31598 2.98518 8.33225 2.90565 8.36472C2.82612 8.39719 2.75387 8.4452 2.69313 8.50594C2.63238 8.56669 2.58437 8.63894 2.5519 8.71847C2.51943 8.798 2.50316 8.88321 2.50403 8.96911C2.50491 9.05501 2.52291 9.13987 2.55699 9.21872C2.59107 9.29757 2.64054 9.36883 2.70251 9.42833L5.28514 12.011C5.40623 12.132 5.57043 12.2 5.74164 12.2C5.91285 12.2 6.07705 12.132 6.19814 12.011L13.3004 4.90873C13.3937 4.81804 13.4574 4.70128 13.4832 4.57375C13.509 4.44622 13.4957 4.31387 13.4449 4.19404C13.3942 4.07422 13.3085 3.97251 13.199 3.90224C13.0895 3.83198 12.9613 3.79643 12.8313 3.80027Z" fill="black"/>
</svg>
