<svg width="16" height="16" viewBox="0 0 16 16" fill="none" xmlns="http://www.w3.org/2000/svg">
<path fill-rule="evenodd" clip-rule="evenodd" d="M2.35 7.99375C2.35 4.87679 4.8768 2.35 7.99375 2.35C11.1107 2.35 13.6375 4.87679 13.6375 7.99375C13.6375 11.1107 11.1107 13.6375 7.99375 13.6375C4.8768 13.6375 2.35 11.1107 2.35 7.99375ZM7.99375 0.949997C4.1036 0.949997 0.950005 4.10359 0.950005 7.99375C0.950005 11.8839 4.1036 15.0375 7.99375 15.0375C11.8839 15.0375 15.0375 11.8839 15.0375 7.99375C15.0375 4.10359 11.8839 0.949997 7.99375 0.949997ZM8.9 5.375C8.9 5.85825 8.50825 6.25 8.025 6.25C7.54175 6.25 7.15 5.85825 7.15 5.375C7.15 4.89175 7.54175 4.5 8.025 4.5C8.50825 4.5 8.9 4.89175 8.9 5.375ZM7.99375 8.15C8.46319 8.15 8.84375 8.53056 8.84375 9V10.7C8.84375 11.1694 8.46319 11.55 7.99375 11.55C7.52431 11.55 7.14375 11.1694 7.14375 10.7V9C7.14375 8.53056 7.52431 8.15 7.99375 8.15Z" fill="#0E1438"/>
</svg>
