<svg width="16" height="16" viewBox="0 0 16 16" fill="none" xmlns="http://www.w3.org/2000/svg"><path d="M7.747 0.610 C 7.614 0.670,7.458 0.840,7.410 0.977 C 7.383 1.053,7.373 1.244,7.373 1.707 C 7.373 2.328,7.374 2.336,7.441 2.467 C 7.641 2.855,8.141 2.933,8.440 2.625 C 8.504 2.559,8.572 2.461,8.591 2.406 C 8.642 2.263,8.641 1.121,8.590 0.977 C 8.542 0.840,8.386 0.670,8.253 0.610 C 8.115 0.547,7.885 0.547,7.747 0.610 M2.920 2.611 C 2.788 2.672,2.656 2.808,2.601 2.939 C 2.544 3.077,2.550 3.295,2.615 3.439 C 2.674 3.570,3.342 4.266,3.539 4.403 C 3.932 4.676,4.462 4.429,4.500 3.955 C 4.524 3.668,4.481 3.596,3.989 3.101 C 3.694 2.804,3.523 2.653,3.440 2.615 C 3.287 2.546,3.063 2.544,2.920 2.611 M12.560 2.616 C 12.409 2.684,11.604 3.485,11.535 3.636 C 11.477 3.763,11.474 4.008,11.528 4.137 C 11.578 4.259,11.741 4.421,11.862 4.472 C 12.001 4.530,12.208 4.523,12.361 4.456 C 12.537 4.378,13.305 3.616,13.384 3.440 C 13.529 3.121,13.380 2.734,13.061 2.601 C 12.923 2.544,12.705 2.550,12.560 2.616 M7.680 3.895 C 5.887 4.026,4.354 5.355,3.975 7.107 C 3.632 8.688,4.222 10.297,5.507 11.283 C 7.041 12.462,9.239 12.386,10.706 11.104 C 12.419 9.605,12.600 7.004,11.107 5.299 C 10.417 4.509,9.394 3.979,8.424 3.906 C 8.021 3.876,7.954 3.875,7.680 3.895 M8.272 5.147 C 9.448 5.259,10.429 6.075,10.760 7.217 C 10.893 7.676,10.893 8.324,10.760 8.783 C 10.530 9.578,9.957 10.253,9.222 10.599 C 8.764 10.815,8.199 10.913,7.727 10.860 C 6.334 10.703,5.287 9.656,5.147 8.280 C 5.061 7.438,5.353 6.604,5.947 5.999 C 6.195 5.745,6.422 5.580,6.733 5.427 C 7.106 5.243,7.383 5.174,7.947 5.124 C 7.969 5.122,8.115 5.132,8.272 5.147 M0.920 7.437 C 0.697 7.541,0.560 7.758,0.561 8.006 C 0.561 8.185,0.629 8.334,0.766 8.457 C 0.941 8.615,1.005 8.627,1.707 8.627 C 2.328 8.627,2.336 8.626,2.467 8.559 C 2.841 8.366,2.932 7.865,2.645 7.578 C 2.459 7.392,2.431 7.387,1.689 7.387 C 1.101 7.388,1.015 7.393,0.920 7.437 M13.520 7.450 C 12.983 7.734,13.116 8.505,13.720 8.616 C 13.817 8.634,14.092 8.641,14.413 8.635 C 15.003 8.623,15.082 8.605,15.250 8.445 C 15.504 8.204,15.504 7.796,15.250 7.555 C 15.082 7.396,15.031 7.387,14.300 7.387 C 13.656 7.387,13.636 7.388,13.520 7.450 M3.630 11.547 C 3.464 11.623,2.715 12.366,2.627 12.543 C 2.419 12.961,2.711 13.439,3.173 13.439 C 3.419 13.439,3.515 13.375,3.989 12.899 C 4.481 12.403,4.524 12.333,4.500 12.043 C 4.466 11.621,4.024 11.369,3.630 11.547 M11.799 11.571 C 11.479 11.754,11.387 12.159,11.597 12.461 C 11.734 12.658,12.430 13.326,12.561 13.385 C 12.977 13.573,13.441 13.275,13.439 12.821 C 13.438 12.584,13.370 12.480,12.912 12.022 C 12.443 11.554,12.352 11.495,12.093 11.494 C 11.965 11.494,11.907 11.509,11.799 11.571 M7.869 13.204 C 7.718 13.231,7.565 13.333,7.480 13.461 C 7.379 13.615,7.354 13.816,7.365 14.412 C 7.376 15.003,7.393 15.080,7.555 15.250 C 7.729 15.434,8.026 15.494,8.253 15.390 C 8.386 15.330,8.542 15.160,8.590 15.023 C 8.631 14.908,8.643 13.825,8.606 13.650 C 8.577 13.511,8.422 13.322,8.288 13.259 C 8.145 13.192,8.020 13.176,7.869 13.204 " stroke="none" fill-rule="evenodd" fill="black"></path></svg>