<svg width="16" height="16" viewBox="0 0 16 16" fill="none" xmlns="http://www.w3.org/2000/svg">
<path fill-rule="evenodd" clip-rule="evenodd" d="M5.07123 0.720001C3.66222 0.720001 2.51999 1.86223 2.51999 3.27124V12.7278C2.51999 14.1368 3.66222 15.279 5.07123 15.279H10.9253C12.3343 15.279 13.4765 14.1368 13.4765 12.7278V3.27124C13.4765 1.86223 12.3343 0.720001 10.9253 0.720001H5.07123ZM4.01999 3.27124C4.01999 2.69066 4.49065 2.22 5.07123 2.22H10.9253C11.5059 2.22 11.9765 2.69066 11.9765 3.27124V12.7278C11.9765 13.3083 11.5059 13.779 10.9253 13.779H5.07123C4.49065 13.779 4.01999 13.3083 4.01999 12.7278V3.27124ZM7.77309 11.5275C7.35887 11.5275 7.02309 11.8632 7.02309 12.2775C7.02309 12.6917 7.35887 13.0275 7.77309 13.0275H8.2234C8.63761 13.0275 8.9734 12.6917 8.9734 12.2775C8.9734 11.8632 8.63761 11.5275 8.2234 11.5275H7.77309Z" fill="#2D2D2D"/>
</svg>
