<svg width="16" height="16" viewBox="0 0 16 16" fill="none" xmlns="http://www.w3.org/2000/svg"><path d="M4.297 0.562 C 3.938 0.609,3.541 0.891,3.362 1.227 C 3.191 1.547,3.201 1.136,3.201 8.000 C 3.201 14.864,3.191 14.453,3.362 14.773 C 3.464 14.965,3.725 15.221,3.917 15.319 C 4.215 15.470,4.105 15.466,8.000 15.466 C 11.895 15.466,11.785 15.470,12.083 15.319 C 12.275 15.221,12.536 14.965,12.638 14.773 C 12.809 14.453,12.799 14.864,12.799 8.000 C 12.799 1.136,12.809 1.547,12.638 1.227 C 12.527 1.018,12.262 0.767,12.047 0.666 C 11.946 0.619,11.797 0.576,11.679 0.561 C 11.435 0.529,4.542 0.530,4.297 0.562 M11.533 8.000 L 11.533 14.200 8.000 14.200 L 4.467 14.200 4.460 8.027 C 4.456 4.631,4.459 1.838,4.466 1.820 C 4.476 1.793,5.198 1.788,8.006 1.793 L 11.533 1.800 11.533 8.000 M6.918 2.931 C 6.512 3.115,6.417 3.653,6.738 3.950 C 6.924 4.123,6.902 4.120,8.000 4.120 C 9.098 4.120,9.076 4.123,9.262 3.950 C 9.583 3.653,9.488 3.115,9.082 2.931 C 8.983 2.885,8.891 2.881,8.000 2.881 C 7.109 2.881,7.017 2.885,6.918 2.931 " stroke="none" fill-rule="evenodd" fill="black"></path></svg>