<svg width="16" height="16" viewBox="0 0 16 16" fill="none" xmlns="http://www.w3.org/2000/svg"><path d="M2.964 1.895 C 2.449 1.964,1.984 2.424,1.895 2.951 C 1.874 3.076,1.867 3.534,1.872 4.400 C 1.880 5.639,1.881 5.669,1.938 5.773 C 2.187 6.235,2.809 6.238,3.060 5.779 C 3.102 5.702,3.108 5.567,3.120 4.413 L 3.133 3.133 4.413 3.120 C 5.567 3.108,5.702 3.102,5.779 3.060 C 6.249 2.803,6.230 2.146,5.747 1.928 C 5.649 1.884,5.532 1.880,4.387 1.876 C 3.697 1.874,3.057 1.882,2.964 1.895 M10.382 1.895 C 10.110 1.948,9.927 2.139,9.881 2.419 C 9.854 2.581,9.923 2.794,10.041 2.915 C 10.234 3.115,10.162 3.105,11.587 3.120 L 12.867 3.133 12.880 4.413 C 12.892 5.567,12.898 5.702,12.940 5.779 C 13.214 6.280,13.932 6.216,14.092 5.676 C 14.151 5.479,14.152 3.174,14.094 2.899 C 14.041 2.649,13.917 2.431,13.719 2.241 C 13.510 2.041,13.283 1.929,13.012 1.894 C 12.772 1.863,10.540 1.863,10.382 1.895 M5.049 5.229 C 4.845 5.267,4.701 5.376,4.596 5.573 C 4.552 5.657,4.547 5.734,4.547 6.333 C 4.547 7.061,4.551 7.084,4.716 7.262 C 5.014 7.583,5.552 7.488,5.736 7.082 C 5.780 6.986,5.785 6.900,5.785 6.333 C 5.785 5.621,5.774 5.564,5.600 5.395 C 5.447 5.245,5.262 5.190,5.049 5.229 M8.030 5.230 C 7.921 5.250,7.762 5.347,7.686 5.439 C 7.561 5.591,7.561 5.592,7.546 6.573 C 7.531 7.608,7.532 7.605,7.348 7.808 C 7.238 7.930,7.095 8.003,6.869 8.052 C 6.451 8.142,6.248 8.620,6.473 8.984 C 6.637 9.250,6.910 9.330,7.309 9.230 C 7.991 9.058,8.527 8.536,8.725 7.852 C 8.784 7.648,8.787 7.604,8.787 6.653 C 8.787 5.689,8.785 5.664,8.728 5.557 C 8.592 5.303,8.320 5.175,8.030 5.230 M10.697 5.230 C 10.588 5.250,10.431 5.345,10.352 5.439 C 10.333 5.462,10.294 5.528,10.266 5.587 C 10.220 5.683,10.215 5.757,10.215 6.333 C 10.215 7.055,10.225 7.105,10.415 7.289 C 10.739 7.604,11.295 7.450,11.426 7.009 C 11.484 6.811,11.484 5.855,11.425 5.657 C 11.333 5.347,11.028 5.168,10.697 5.230 M5.809 9.870 C 5.472 9.965,5.282 10.407,5.438 10.730 C 5.521 10.900,5.639 10.993,5.982 11.158 C 7.277 11.782,8.723 11.782,10.018 11.158 C 10.182 11.080,10.358 10.978,10.410 10.933 C 10.736 10.646,10.670 10.117,10.283 9.913 C 10.203 9.871,10.126 9.855,10.000 9.855 C 9.846 9.856,9.799 9.870,9.577 9.983 C 8.568 10.498,7.455 10.502,6.442 9.994 C 6.158 9.852,5.990 9.819,5.809 9.870 M2.382 9.896 C 2.178 9.934,2.035 10.043,1.930 10.240 C 1.884 10.327,1.879 10.424,1.872 11.600 C 1.867 12.466,1.874 12.924,1.895 13.049 C 1.983 13.574,2.428 14.017,2.956 14.106 C 3.075 14.126,3.552 14.133,4.400 14.128 C 5.645 14.120,5.669 14.119,5.776 14.062 C 5.928 13.980,6.044 13.839,6.092 13.676 C 6.143 13.505,6.143 13.482,6.094 13.316 C 6.051 13.172,5.922 13.018,5.779 12.940 C 5.702 12.898,5.567 12.892,4.413 12.880 L 3.133 12.867 3.120 11.587 C 3.105 10.175,3.113 10.237,2.931 10.060 C 2.781 9.912,2.594 9.857,2.382 9.896 M13.364 9.896 C 13.254 9.917,13.095 10.013,13.019 10.106 C 12.891 10.261,12.894 10.228,12.880 11.587 L 12.867 12.867 11.587 12.880 C 10.433 12.892,10.298 12.898,10.221 12.940 C 9.762 13.191,9.765 13.813,10.227 14.062 C 10.331 14.119,10.361 14.120,11.600 14.128 C 12.448 14.133,12.925 14.126,13.044 14.106 C 13.572 14.017,14.017 13.574,14.105 13.049 C 14.126 12.924,14.133 12.466,14.128 11.600 C 14.120 10.355,14.119 10.331,14.062 10.224 C 13.925 9.970,13.654 9.842,13.364 9.896 " stroke="none" fill-rule="evenodd" fill="black"></path></svg>