<svg width="16" height="16" viewBox="0 0 16 16" fill="none" xmlns="http://www.w3.org/2000/svg">
<path fill-rule="evenodd" clip-rule="evenodd" d="M7.79894 1.04582C7.92606 0.984726 8.07406 0.984726 8.20118 1.04582L14.7289 4.18312C14.9042 4.2674 15.0086 4.44691 14.9839 4.6399C14.7576 6.4096 13.382 14.9998 8.00007 14.9998C2.61817 14.9998 1.24252 6.4096 1.01623 4.6399C0.991547 4.44691 1.09592 4.2674 1.27129 4.18312L7.79894 1.04582ZM10.4782 8.90723H9.34681C8.56543 8.90723 7.93212 9.54097 7.93212 10.3228V11.4551H5.95182V4.66078H10.4782V5.94589C10.3118 5.84933 10.1188 5.79311 9.91241 5.79311C9.28749 5.79311 8.78093 6.30019 8.78093 6.92562C8.78093 7.55095 9.28749 8.05794 9.91241 8.05794C10.1188 8.05794 10.3118 8.00172 10.4782 7.90516V8.90723Z" fill="black"/>
</svg>
