<svg width="16" height="16" viewBox="0 0 16 16" fill="none" xmlns="http://www.w3.org/2000/svg">
<g clip-path="url(#clip0_240_106)">
<path fill-rule="evenodd" clip-rule="evenodd" d="M4.47359 0C2.00289 0 0 2.00289 0 4.47359V10.6057C0 13.0764 2.00289 15.0792 4.47359 15.0792H10.6057C13.0764 15.0792 15.0792 13.0764 15.0792 10.6057V4.47359C15.0792 2.00289 13.0764 0 10.6057 0H4.47359ZM1.4 4.47359C1.4 2.77609 2.77609 1.4 4.47359 1.4H10.6057C12.3032 1.4 13.6792 2.77609 13.6792 4.47359V10.6057C13.6792 12.3032 12.3032 13.6792 10.6057 13.6792H4.47359C2.77609 13.6792 1.4 12.3032 1.4 10.6057V4.47359ZM3.19478 7.57635C3.56411 7.39168 4.01297 7.54035 4.19928 7.90831L4.20405 7.91729C4.20946 7.92731 4.21926 7.94507 4.23355 7.96946C4.26217 8.01833 4.30846 8.09325 4.37309 8.18559C4.503 8.37117 4.70313 8.6215 4.97809 8.87146C5.52305 9.36688 6.35293 9.85566 7.53962 9.85566C8.72632 9.85566 9.55619 9.36688 10.1012 8.87146C10.3761 8.6215 10.5762 8.37117 10.7062 8.18559C10.7708 8.09325 10.8171 8.01833 10.8457 7.96946C10.86 7.94507 10.8698 7.92731 10.8752 7.91729L10.8799 7.90839L4.19928 7.90831L10.88 7.90831C11.0663 7.54035 11.5151 7.39168 11.8845 7.57635C12.255 7.76159 12.4051 8.2121 12.2199 8.58258L11.5685 8.25691C12.2199 8.58259 12.2197 8.58291 12.2195 8.58324L12.2192 8.58395L12.2184 8.58554L12.2164 8.58937L12.2112 8.59961C12.207 8.60756 12.2017 8.61775 12.1951 8.63002C12.1818 8.65455 12.1635 8.68746 12.14 8.72756C12.0931 8.80767 12.0251 8.91701 11.935 9.04578C11.7554 9.30241 11.4838 9.64171 11.1102 9.98137C10.358 10.6652 9.18312 11.3557 7.53962 11.3557C5.89613 11.3557 4.72129 10.6652 3.96908 9.98137C3.59546 9.64171 3.32389 9.30241 3.14424 9.04578C3.0541 8.91701 2.98615 8.80767 2.93922 8.72756C2.91574 8.68746 2.89744 8.65455 2.88419 8.63002C2.87757 8.61775 2.8722 8.60756 2.86807 8.59961L2.8628 8.58937L2.86085 8.58554L2.86005 8.58395L2.8597 8.58324C2.85953 8.5829 2.85937 8.58258 3.53019 8.24717L2.85937 8.58258C2.67413 8.2121 2.82429 7.76159 3.19478 7.57635ZM5.65283 5.68113C5.66846 5.68113 5.68113 5.66846 5.68113 5.65283C5.68113 5.6372 5.66846 5.62453 5.65283 5.62453C5.6372 5.62453 5.62453 5.6372 5.62453 5.65283C5.62453 5.66846 5.6372 5.68113 5.65283 5.68113ZM4.68113 5.65283C4.68113 5.11618 5.11618 4.68113 5.65283 4.68113C6.18948 4.68113 6.62453 5.11618 6.62453 5.65283C6.62453 6.18948 6.18948 6.62453 5.65283 6.62453C5.11618 6.62453 4.68113 6.18948 4.68113 5.65283ZM9.45472 5.65283C9.45472 5.66846 9.44205 5.68113 9.42642 5.68113C9.41078 5.68113 9.39811 5.66846 9.39811 5.65283C9.39811 5.6372 9.41078 5.62453 9.42642 5.62453C9.44205 5.62453 9.45472 5.6372 9.45472 5.65283ZM9.42642 4.68113C8.88976 4.68113 8.45472 5.11618 8.45472 5.65283C8.45472 6.18948 8.88976 6.62453 9.42642 6.62453C9.96307 6.62453 10.3981 6.18948 10.3981 5.65283C10.3981 5.11618 9.96307 4.68113 9.42642 4.68113Z" fill="black"/>
</g>
<defs>
<clipPath id="clip0_240_106">
<rect width="16" height="16" fill="white"/>
</clipPath>
</defs>
</svg>
