<svg width="16" height="16" viewBox="0 0 16 16" fill="none" xmlns="http://www.w3.org/2000/svg"><path d="M7.869 1.897 C 7.624 1.942,7.437 2.136,7.387 2.398 C 7.369 2.491,7.360 4.173,7.360 7.263 L 7.360 11.986 5.753 10.383 C 4.462 9.094,4.127 8.773,4.044 8.747 C 3.988 8.729,3.868 8.719,3.777 8.725 C 3.497 8.742,3.291 8.926,3.224 9.217 C 3.198 9.328,3.201 9.376,3.239 9.508 L 3.284 9.667 5.449 11.834 C 7.032 13.419,7.646 14.017,7.733 14.060 C 7.813 14.099,7.903 14.119,8.000 14.119 C 8.097 14.119,8.187 14.099,8.267 14.060 C 8.354 14.017,8.968 13.419,10.551 11.834 L 12.716 9.667 12.761 9.508 C 12.839 9.237,12.746 8.982,12.511 8.820 C 12.412 8.752,12.353 8.733,12.223 8.725 C 12.132 8.719,12.012 8.729,11.956 8.747 C 11.873 8.773,11.538 9.094,10.247 10.382 L 8.641 11.985 8.634 7.173 L 8.627 2.360 8.565 2.234 C 8.435 1.971,8.168 1.842,7.869 1.897 " stroke="none" fill-rule="evenodd" fill="black"></path></svg>