<svg width="16" height="16" viewBox="0 0 16 16" fill="none" xmlns="http://www.w3.org/2000/svg">
<g clip-path="url(#clip0_41_161)">
<path fill-rule="evenodd" clip-rule="evenodd" d="M0.400002 8.09926C0.400002 3.90231 3.80231 0.5 7.99926 0.5C12.1962 0.5 15.5985 3.90231 15.5985 8.09926C15.5985 12.2962 12.1962 15.6985 7.99926 15.6985C3.80231 15.6985 0.400002 12.2962 0.400002 8.09926ZM7.99926 1.9C4.57551 1.9 1.8 4.6755 1.8 8.09926C1.8 11.523 4.57551 14.2985 7.99926 14.2985C11.423 14.2985 14.1985 11.523 14.1985 8.09926C14.1985 4.6755 11.423 1.9 7.99926 1.9ZM10.4888 5.35095C10.8241 5.54335 10.94 5.97116 10.7476 6.30648L8.5649 10.1104C7.89974 11.2696 6.20486 11.1999 5.63714 9.98997L5.2244 9.11031C5.06018 8.76032 5.21078 8.34347 5.56077 8.17926C5.91076 8.01504 6.3276 8.16564 6.49182 8.51562L6.90456 9.39528C6.99105 9.57962 7.24926 9.59024 7.3506 9.41363L9.53326 5.60972C9.72566 5.2744 10.1535 5.15854 10.4888 5.35095Z" fill="#2D2D2D"/>
</g>
<defs>
<clipPath id="clip0_41_161">
<rect width="16" height="16" fill="white"/>
</clipPath>
</defs>
</svg>
