<svg width="16" height="16" viewBox="0 0 16 16" fill="none" xmlns="http://www.w3.org/2000/svg">
<g clip-path="url(#clip0_99_64)">
<path fill-rule="evenodd" clip-rule="evenodd" d="M3.46326 0.95C2.07522 0.95 0.95 2.07522 0.95 3.46326V12.9829C0.95 14.3709 2.07522 15.4961 3.46326 15.4961H12.9829C14.3709 15.4961 15.4961 14.3709 15.4961 12.9829V3.46326C15.4961 2.07522 14.3709 0.95 12.9829 0.95H3.46326ZM2.35 3.46326C2.35 2.84842 2.84842 2.35 3.46326 2.35H12.9829C13.5977 2.35 14.0961 2.84842 14.0961 3.46326V12.9829C14.0961 13.5977 13.5977 14.0961 12.9829 14.0961H3.46326C2.84842 14.0961 2.35 13.5977 2.35 12.9829V3.46326ZM5.74478 6.56948C5.45742 6.31085 5.01482 6.33415 4.75619 6.62151C4.49757 6.90886 4.52087 7.35147 4.80822 7.61009L6.49668 9.1297L4.80822 10.6493C4.52087 10.9079 4.49757 11.3505 4.75619 11.6379C5.01482 11.9252 5.45742 11.9485 5.74478 11.6899L8.01135 9.65C8.15885 9.51725 8.24307 9.32814 8.24307 9.1297C8.24307 8.93126 8.15885 8.74214 8.01135 8.60939L5.74478 6.56948Z" fill="black"/>
</g>
<defs>
<clipPath id="clip0_99_64">
<rect width="16" height="16" fill="white"/>
</clipPath>
</defs>
</svg>
