<svg width="16" height="16" viewBox="0 0 16 16" fill="none" xmlns="http://www.w3.org/2000/svg"><path d="M9.733 2.109 C 9.640 2.150,9.058 2.717,7.152 4.621 C 5.798 5.974,4.638 7.149,4.573 7.234 C 4.420 7.436,4.344 7.643,4.327 7.907 C 4.310 8.166,4.349 8.369,4.459 8.593 C 4.532 8.742,4.802 9.022,7.024 11.248 C 8.389 12.617,9.564 13.779,9.635 13.832 C 9.741 13.911,9.791 13.929,9.934 13.940 C 10.197 13.961,10.354 13.889,10.521 13.669 C 10.594 13.572,10.600 13.548,10.600 13.335 C 10.600 13.138,10.591 13.094,10.536 13.013 C 10.501 12.962,9.367 11.813,8.016 10.460 L 5.560 8.000 8.016 5.540 C 9.367 4.187,10.501 3.038,10.536 2.987 C 10.591 2.906,10.600 2.862,10.600 2.665 C 10.600 2.452,10.594 2.428,10.521 2.331 C 10.422 2.200,10.386 2.170,10.253 2.106 C 10.111 2.037,9.889 2.039,9.733 2.109 " stroke="none" fill-rule="evenodd" fill="black"></path></svg>