<svg width="16" height="16" viewBox="0 0 16 16" fill="none" xmlns="http://www.w3.org/2000/svg">
<path fill-rule="evenodd" clip-rule="evenodd" d="M3.01733 1.37C1.58286 1.37 0.419998 2.53286 0.419998 3.96733V12.031C0.419998 13.4655 1.58286 14.6283 3.01733 14.6283H12.9783C14.4128 14.6283 15.5757 13.4655 15.5757 12.031V3.96733C15.5757 2.53286 14.4128 1.37 12.9783 1.37H3.01733ZM2.88336 2.77741C2.92734 2.77251 2.97204 2.77 3.01733 2.77H12.9783C13.0236 2.77 13.0683 2.77251 13.1123 2.77741L7.99784 7.30175L2.88336 2.77741ZM1.84408 3.72721C1.82829 3.80479 1.82 3.88509 1.82 3.96733V12.031C1.82 12.6923 2.35606 13.2283 3.01733 13.2283H12.9783C13.6396 13.2283 14.1757 12.6923 14.1757 12.031V3.96733C14.1757 3.88509 14.1674 3.8048 14.1516 3.72723L8.46164 8.76063C8.19681 8.9949 7.79886 8.9949 7.53404 8.76063L1.84408 3.72721Z" fill="#2D2D2D"/>
</svg>
