<svg width="16" height="16" viewBox="0 0 16 16" fill="none" xmlns="http://www.w3.org/2000/svg">
<path fill-rule="evenodd" clip-rule="evenodd" d="M7.25546 13.0013C7.25546 13.4155 7.59125 13.7513 8.00546 13.7513C8.41968 13.7513 8.75546 13.4155 8.75546 13.0013L8.75546 4.51193L11.3484 7.22835C11.6344 7.52798 12.1092 7.53902 12.4088 7.25301C12.7084 6.96701 12.7194 6.49226 12.4334 6.19264L8.54798 2.12215C8.40646 1.97389 8.21043 1.89001 8.00547 1.89001C7.8005 1.89001 7.60447 1.97389 7.46295 2.12215L3.57749 6.19264C3.29148 6.49226 3.30252 6.96701 3.60215 7.25301C3.90177 7.53902 4.37652 7.52798 4.66252 7.22835L7.25546 4.51194L7.25546 13.0013Z" fill="black"/>
</svg>
