<svg width="16" height="16" viewBox="0 0 16 16" fill="none" xmlns="http://www.w3.org/2000/svg"><path d="M11.747 2.106 C 11.614 2.170,11.578 2.200,11.479 2.331 C 11.406 2.428,11.400 2.452,11.400 2.665 C 11.400 2.863,11.409 2.906,11.464 2.987 C 11.500 3.038,11.745 3.298,12.009 3.565 L 12.488 4.050 11.543 4.058 L 10.597 4.067 10.385 4.170 C 10.175 4.272,10.141 4.305,6.613 7.830 L 3.052 11.387 2.453 11.387 C 1.917 11.388,1.842 11.393,1.747 11.439 C 1.614 11.503,1.578 11.533,1.479 11.665 C 1.406 11.762,1.400 11.786,1.400 11.998 C 1.400 12.208,1.406 12.235,1.478 12.335 C 1.665 12.594,1.827 12.640,2.545 12.639 C 3.184 12.638,3.376 12.612,3.627 12.490 C 3.821 12.396,3.920 12.300,7.374 8.850 L 10.921 5.307 11.693 5.307 L 12.465 5.307 11.997 5.780 C 11.393 6.391,11.400 6.380,11.400 6.667 C 11.400 6.875,11.406 6.902,11.478 7.002 C 11.606 7.180,11.738 7.258,11.935 7.274 C 12.260 7.300,12.233 7.321,13.443 6.110 C 14.654 4.899,14.633 4.927,14.607 4.601 C 14.595 4.458,14.577 4.408,14.498 4.301 C 14.446 4.231,13.950 3.721,13.395 3.168 C 12.647 2.422,12.356 2.149,12.267 2.109 C 12.111 2.038,11.889 2.037,11.747 2.106 M1.747 3.438 C 1.614 3.503,1.578 3.534,1.479 3.665 C 1.406 3.762,1.400 3.786,1.400 3.998 C 1.400 4.208,1.406 4.235,1.478 4.335 C 1.666 4.596,1.824 4.640,2.572 4.640 L 3.080 4.640 3.960 5.522 C 4.444 6.006,4.898 6.446,4.968 6.498 C 5.287 6.735,5.768 6.595,5.909 6.223 C 5.942 6.139,5.950 6.058,5.940 5.934 C 5.929 5.791,5.910 5.741,5.832 5.635 C 5.780 5.564,5.308 5.079,4.782 4.557 C 3.879 3.660,3.815 3.602,3.615 3.504 L 3.403 3.400 2.628 3.393 C 1.905 3.386,1.846 3.389,1.747 3.438 M11.747 8.772 C 11.614 8.836,11.578 8.867,11.479 8.998 C 11.406 9.095,11.400 9.119,11.400 9.331 C 11.400 9.530,11.409 9.572,11.464 9.653 C 11.500 9.705,11.745 9.966,12.010 10.233 L 12.491 10.720 11.720 10.720 L 10.949 10.720 10.333 10.108 C 9.900 9.677,9.682 9.480,9.599 9.442 C 9.445 9.372,9.222 9.371,9.080 9.439 C 8.947 9.503,8.911 9.533,8.812 9.665 C 8.739 9.762,8.733 9.786,8.733 9.999 C 8.733 10.221,8.736 10.232,8.831 10.361 C 8.885 10.434,9.209 10.770,9.551 11.109 C 10.437 11.985,10.402 11.971,11.719 11.973 L 12.465 11.973 11.997 12.447 C 11.393 13.058,11.400 13.047,11.400 13.333 C 11.400 13.542,11.406 13.569,11.478 13.669 C 11.606 13.846,11.738 13.924,11.935 13.940 C 12.260 13.966,12.233 13.987,13.443 12.777 C 14.654 11.565,14.633 11.593,14.607 11.268 C 14.595 11.124,14.577 11.074,14.498 10.968 C 14.446 10.898,13.950 10.388,13.395 9.835 C 12.647 9.089,12.356 8.816,12.267 8.776 C 12.111 8.705,11.889 8.704,11.747 8.772 " stroke="none" fill-rule="evenodd" fill="black"></path></svg>