<svg width="16" height="16" viewBox="0 0 16 16" fill="none" xmlns="http://www.w3.org/2000/svg">
<path fill-rule="evenodd" clip-rule="evenodd" d="M3.65517 2.13C2.35445 2.13 1.3 3.18445 1.3 4.48517V11.5197C1.3 12.8204 2.35445 13.8748 3.65517 13.8748H12.3448C13.6456 13.8748 14.7 12.8204 14.7 11.5197V4.48517C14.7 3.18445 13.6456 2.13 12.3448 2.13H3.65517ZM2.70044 4.45583C2.70015 4.46557 2.7 4.47536 2.7 4.48517V11.5197C2.7 12.0472 3.12765 12.4748 3.65517 12.4748H12.3448C12.8724 12.4748 13.3 12.0472 13.3 11.5197V4.48517C13.3 4.47536 13.2999 4.46558 13.2996 4.45584L8.46381 8.73362C8.19898 8.96789 7.80103 8.96789 7.53621 8.73362L2.70044 4.45583ZM12.2332 3.53H3.76683L8.00001 7.27474L12.2332 3.53Z" fill="#0E1438"/>
</svg>
