<svg width="16" height="16" viewBox="0 0 16 16" fill="none" xmlns="http://www.w3.org/2000/svg"><path d="M11.853 4.157 C 11.809 4.168,11.734 4.198,11.687 4.223 C 11.634 4.251,10.604 5.421,8.987 7.291 L 6.372 10.314 5.370 9.306 C 4.253 8.182,4.235 8.168,3.945 8.194 C 3.789 8.208,3.639 8.283,3.528 8.404 C 3.374 8.570,3.336 8.880,3.445 9.082 C 3.482 9.153,3.997 9.696,4.760 10.470 C 6.154 11.884,6.158 11.888,6.443 11.859 C 6.522 11.850,6.637 11.816,6.699 11.782 C 6.782 11.736,7.531 10.887,9.659 8.427 C 11.225 6.615,12.532 5.082,12.563 5.019 C 12.648 4.847,12.627 4.577,12.518 4.422 C 12.371 4.213,12.082 4.098,11.853 4.157 " stroke="none" fill-rule="evenodd" fill="black"></path></svg>