<svg width="16" height="16" viewBox="0 0 16 16" fill="none" xmlns="http://www.w3.org/2000/svg">
<path fill-rule="evenodd" clip-rule="evenodd" d="M8 1.3C4.3009 1.3 1.3 4.3009 1.3 8C1.3 11.6991 4.3009 14.7 8 14.7C11.6991 14.7 14.7 11.6991 14.7 8C14.7 4.3009 11.6991 1.3 8 1.3ZM2.7 8C2.7 5.0741 5.0741 2.7 8 2.7C10.9259 2.7 13.3 5.0741 13.3 8C13.3 10.9259 10.9259 13.3 8 13.3C5.0741 13.3 2.7 10.9259 2.7 8ZM10.3366 8.29062L6.76001 10.4512C6.70874 10.482 6.65023 10.4985 6.59047 10.4991C6.53071 10.4998 6.47186 10.4845 6.41995 10.4549C6.36804 10.4253 6.32494 10.3824 6.29508 10.3306C6.26522 10.2788 6.24966 10.2201 6.25001 10.1603V5.83968C6.24966 5.77992 6.26522 5.72115 6.29508 5.66938C6.32494 5.61762 6.36804 5.57473 6.41995 5.54512C6.47186 5.51551 6.53071 5.50024 6.59047 5.50087C6.65023 5.50151 6.70874 5.51803 6.76001 5.54875L10.3366 7.70937C10.3864 7.73975 10.4276 7.78243 10.4562 7.83333C10.4848 7.88422 10.4998 7.94162 10.4998 8C10.4998 8.05837 10.4848 8.11577 10.4562 8.16667C10.4276 8.21756 10.3864 8.26025 10.3366 8.29062Z" fill="black"/>
</svg>
