<svg width="16" height="16" viewBox="0 0 16 16" fill="none" xmlns="http://www.w3.org/2000/svg"><path d="M7.507 2.777 C 5.894 2.929,4.457 3.810,3.561 5.196 C 3.265 5.653,2.969 6.390,2.856 6.951 C 2.528 8.572,2.978 10.240,4.081 11.491 C 4.931 12.455,6.185 13.093,7.489 13.225 C 8.923 13.370,10.386 12.893,11.491 11.919 C 12.455 11.069,13.093 9.815,13.225 8.511 C 13.381 6.969,12.822 5.405,11.721 4.305 C 10.597 3.182,9.071 2.629,7.507 2.777 M8.376 4.026 C 9.948 4.179,11.275 5.225,11.781 6.707 C 12.112 7.678,12.045 8.834,11.607 9.720 C 11.033 10.877,10.037 11.652,8.773 11.923 C 8.369 12.010,7.631 12.010,7.227 11.923 C 5.961 11.652,4.968 10.879,4.393 9.720 C 3.955 8.834,3.888 7.678,4.219 6.707 C 4.412 6.142,4.720 5.647,5.154 5.203 C 6.005 4.335,7.171 3.909,8.376 4.026 M7.797 5.282 C 7.667 5.320,7.477 5.504,7.422 5.647 C 7.378 5.762,7.373 5.875,7.373 6.947 C 7.373 8.114,7.374 8.121,7.435 8.253 C 7.482 8.357,7.663 8.554,8.248 9.137 C 8.662 9.550,9.042 9.909,9.093 9.936 C 9.157 9.969,9.246 9.985,9.375 9.986 C 9.540 9.987,9.581 9.976,9.695 9.906 C 9.776 9.856,9.856 9.776,9.906 9.695 C 9.976 9.581,9.987 9.540,9.986 9.375 C 9.985 9.244,9.970 9.158,9.936 9.093 C 9.909 9.042,9.607 8.718,9.265 8.373 L 8.643 7.747 8.635 6.747 C 8.625 5.609,8.624 5.604,8.407 5.413 C 8.236 5.263,8.022 5.217,7.797 5.282 " stroke="none" fill-rule="evenodd" fill="black"></path></svg>