<svg width="16" height="16" viewBox="0 0 16 16" fill="none" xmlns="http://www.w3.org/2000/svg">
<g clip-path="url(#clip0_1607_34)">
<mask id="path-1-outside-1_1607_34" maskUnits="userSpaceOnUse" x="-0.420013" y="0.0999756" width="17" height="15" fill="black">
<rect fill="white" x="-0.420013" y="0.0999756" width="17" height="15"/>
<path fill-rule="evenodd" clip-rule="evenodd" d="M4.71999 4.54998C4.71999 2.64843 6.26844 1.09998 8.16999 1.09998C10.0715 1.09998 11.62 2.64843 11.62 4.54998C11.62 4.90306 11.5688 5.24132 11.469 5.56341L10.8114 5.35857C10.8909 5.10117 10.93 4.83433 10.93 4.54998C10.93 3.02173 9.69823 1.78998 8.16999 1.78998C6.64174 1.78998 5.40999 3.02173 5.40999 4.54998C5.40999 5.56476 5.95579 6.45287 6.76842 6.93263L7.0703 7.10513L6.88702 7.40701L5.01108 10.4904C5.08924 10.5713 5.16876 10.6602 5.22671 10.76C5.41133 11.0794 5.46254 11.45 5.36686 11.8058C5.27118 12.1615 5.03938 12.4621 4.71999 12.6467C4.50301 12.772 4.26448 12.83 4.02999 12.83C3.55292 12.83 3.08797 12.582 2.83327 12.14C2.45323 11.481 2.68098 10.6346 3.33999 10.2533C3.65938 10.07 4.02999 10.0174 4.38577 10.1131C4.38784 10.1137 4.38992 10.1142 4.39199 10.1147C4.39655 10.1159 4.40109 10.1169 4.40557 10.118C4.40858 10.1187 4.41157 10.1194 4.41452 10.1201C4.41943 10.1213 4.42424 10.1225 4.42889 10.1239L6.13233 7.30998C5.28331 6.68062 4.71999 5.6847 4.71999 4.54998ZM6.78999 4.54998C6.78999 3.78855 7.40856 3.16998 8.16999 3.16998C8.93141 3.16998 9.54999 3.78855 9.54999 4.54998C9.54999 4.94753 9.37749 5.30062 9.10795 5.55263L10.6281 8.30185C11.0432 8.12531 11.4866 7.99998 11.965 7.99998C13.8665 7.99998 15.415 9.54843 15.415 11.45C15.415 13.3515 13.8665 14.9 11.965 14.9C11.0378 14.9 10.1915 14.5267 9.57155 13.9297L10.0459 13.4337C10.5432 13.9121 11.2197 14.21 11.965 14.21C13.4932 14.21 14.725 12.9782 14.725 11.45C14.725 9.92173 13.4932 8.68998 11.965 8.68998C11.4812 8.68998 11.0338 8.81666 10.6389 9.03498L10.3262 9.19669L10.1645 8.89482L8.5042 5.88685C8.39774 5.9138 8.28454 5.92998 8.16999 5.92998C7.40856 5.92998 6.78999 5.3114 6.78999 4.54998ZM0.579987 11.45C0.579987 9.83683 1.68641 8.47166 3.18905 8.09701L3.36155 8.77623C2.16214 9.07541 1.26999 10.1535 1.26999 11.45C1.26999 12.9782 2.50174 14.21 4.02999 14.21C5.55823 14.21 6.78999 12.9782 6.78999 11.45V11.105H10.6389C10.7925 10.5107 11.3235 10.07 11.965 10.07C12.7264 10.07 13.345 10.6885 13.345 11.45C13.345 12.2114 12.7264 12.83 11.965 12.83C11.3235 12.83 10.7925 12.3893 10.6389 11.795H7.4153C7.23336 13.5267 5.80889 14.9 4.02999 14.9C2.12844 14.9 0.579987 13.3515 0.579987 11.45Z"/>
</mask>
<path fill-rule="evenodd" clip-rule="evenodd" d="M4.71999 4.54998C4.71999 2.64843 6.26844 1.09998 8.16999 1.09998C10.0715 1.09998 11.62 2.64843 11.62 4.54998C11.62 4.90306 11.5688 5.24132 11.469 5.56341L10.8114 5.35857C10.8909 5.10117 10.93 4.83433 10.93 4.54998C10.93 3.02173 9.69823 1.78998 8.16999 1.78998C6.64174 1.78998 5.40999 3.02173 5.40999 4.54998C5.40999 5.56476 5.95579 6.45287 6.76842 6.93263L7.0703 7.10513L6.88702 7.40701L5.01108 10.4904C5.08924 10.5713 5.16876 10.6602 5.22671 10.76C5.41133 11.0794 5.46254 11.45 5.36686 11.8058C5.27118 12.1615 5.03938 12.4621 4.71999 12.6467C4.50301 12.772 4.26448 12.83 4.02999 12.83C3.55292 12.83 3.08797 12.582 2.83327 12.14C2.45323 11.481 2.68098 10.6346 3.33999 10.2533C3.65938 10.07 4.02999 10.0174 4.38577 10.1131C4.38784 10.1137 4.38992 10.1142 4.39199 10.1147C4.39655 10.1159 4.40109 10.1169 4.40557 10.118C4.40858 10.1187 4.41157 10.1194 4.41452 10.1201C4.41943 10.1213 4.42424 10.1225 4.42889 10.1239L6.13233 7.30998C5.28331 6.68062 4.71999 5.6847 4.71999 4.54998ZM6.78999 4.54998C6.78999 3.78855 7.40856 3.16998 8.16999 3.16998C8.93141 3.16998 9.54999 3.78855 9.54999 4.54998C9.54999 4.94753 9.37749 5.30062 9.10795 5.55263L10.6281 8.30185C11.0432 8.12531 11.4866 7.99998 11.965 7.99998C13.8665 7.99998 15.415 9.54843 15.415 11.45C15.415 13.3515 13.8665 14.9 11.965 14.9C11.0378 14.9 10.1915 14.5267 9.57155 13.9297L10.0459 13.4337C10.5432 13.9121 11.2197 14.21 11.965 14.21C13.4932 14.21 14.725 12.9782 14.725 11.45C14.725 9.92173 13.4932 8.68998 11.965 8.68998C11.4812 8.68998 11.0338 8.81666 10.6389 9.03498L10.3262 9.19669L10.1645 8.89482L8.5042 5.88685C8.39774 5.9138 8.28454 5.92998 8.16999 5.92998C7.40856 5.92998 6.78999 5.3114 6.78999 4.54998ZM0.579987 11.45C0.579987 9.83683 1.68641 8.47166 3.18905 8.09701L3.36155 8.77623C2.16214 9.07541 1.26999 10.1535 1.26999 11.45C1.26999 12.9782 2.50174 14.21 4.02999 14.21C5.55823 14.21 6.78999 12.9782 6.78999 11.45V11.105H10.6389C10.7925 10.5107 11.3235 10.07 11.965 10.07C12.7264 10.07 13.345 10.6885 13.345 11.45C13.345 12.2114 12.7264 12.83 11.965 12.83C11.3235 12.83 10.7925 12.3893 10.6389 11.795H7.4153C7.23336 13.5267 5.80889 14.9 4.02999 14.9C2.12844 14.9 0.579987 13.3515 0.579987 11.45Z" fill="black"/>
<path d="M11.469 5.56341L11.4096 5.75436L11.6008 5.81394L11.6601 5.62257L11.469 5.56341ZM10.8114 5.35857L10.6203 5.29954L10.5614 5.49018L10.7519 5.54952L10.8114 5.35857ZM6.76842 6.93263L6.66673 7.10487L6.6692 7.10628L6.76842 6.93263ZM7.0703 7.10513L7.24126 7.20893L7.34784 7.03338L7.16953 6.93148L7.0703 7.10513ZM6.88702 7.40701L7.05788 7.51096L7.05797 7.5108L6.88702 7.40701ZM5.01108 10.4904L4.84022 10.3865L4.75995 10.5184L4.86728 10.6294L5.01108 10.4904ZM5.22671 10.76L5.39986 10.6599L5.39963 10.6595L5.22671 10.76ZM5.36686 11.8058L5.56 11.8577V11.8577L5.36686 11.8058ZM4.71999 12.6467L4.82002 12.8199L4.82008 12.8198L4.71999 12.6467ZM2.83327 12.14L3.00656 12.0401L3.00652 12.0401L2.83327 12.14ZM3.33999 10.2533L3.24044 10.0798L3.23981 10.0802L3.33999 10.2533ZM4.38577 10.1131L4.43835 9.92014L4.43771 9.91996L4.38577 10.1131ZM4.39199 10.1147L4.34324 10.3087L4.34325 10.3087L4.39199 10.1147ZM4.40557 10.118L4.45078 9.92314L4.45075 9.92314L4.40557 10.118ZM4.41452 10.1201L4.46138 9.92563L4.46137 9.92563L4.41452 10.1201ZM4.42889 10.1239L4.3714 10.3154L4.51977 10.36L4.59998 10.2275L4.42889 10.1239ZM6.13233 7.30998L6.30342 7.41355L6.39773 7.25776L6.25143 7.1493L6.13233 7.30998ZM9.10795 5.55263L8.97136 5.40654L8.8575 5.513L8.93293 5.64941L9.10795 5.55263ZM10.6281 8.30185L10.4531 8.39863L10.5404 8.5565L10.7064 8.4859L10.6281 8.30185ZM9.57155 13.9297L9.42702 13.7914L9.28924 13.9355L9.43281 14.0737L9.57155 13.9297ZM10.0459 13.4337L10.1846 13.2896L10.04 13.1505L9.90139 13.2955L10.0459 13.4337ZM10.6389 9.03498L10.7308 9.21269L10.7357 9.21L10.6389 9.03498ZM10.3262 9.19669L10.1499 9.29114L10.243 9.4649L10.4181 9.37434L10.3262 9.19669ZM10.1645 8.89482L10.3408 8.80037L10.3396 8.79817L10.1645 8.89482ZM8.5042 5.88685L8.6793 5.7902L8.60473 5.65509L8.45512 5.69297L8.5042 5.88685ZM3.18905 8.09701L3.38289 8.04778L3.33388 7.85477L3.14066 7.90295L3.18905 8.09701ZM3.36155 8.77623L3.40995 8.97028L3.60484 8.92167L3.5554 8.72699L3.36155 8.77623ZM6.78999 11.105V10.905H6.58999V11.105H6.78999ZM10.6389 11.105V11.305H10.7938L10.8325 11.155L10.6389 11.105ZM10.6389 11.795L10.8325 11.7449L10.7938 11.595H10.6389V11.795ZM7.4153 11.795V11.595H7.23521L7.21639 11.7741L7.4153 11.795ZM8.16999 0.899976C6.15799 0.899976 4.51999 2.53798 4.51999 4.54998H4.91999C4.91999 2.75889 6.3789 1.29998 8.16999 1.29998V0.899976ZM11.82 4.54998C11.82 2.53798 10.182 0.899976 8.16999 0.899976V1.29998C9.96107 1.29998 11.42 2.75889 11.42 4.54998H11.82ZM11.6601 5.62257C11.7659 5.28089 11.82 4.92266 11.82 4.54998H11.42C11.42 4.88346 11.3717 5.20176 11.278 5.50426L11.6601 5.62257ZM10.7519 5.54952L11.4096 5.75436L11.5285 5.37246L10.8709 5.16762L10.7519 5.54952ZM10.73 4.54998C10.73 4.81547 10.6936 5.06233 10.6203 5.29954L11.0025 5.4176C11.0882 5.14 11.13 4.85319 11.13 4.54998H10.73ZM8.16999 1.98998C9.58777 1.98998 10.73 3.13219 10.73 4.54998H11.13C11.13 2.91128 9.80868 1.58998 8.16999 1.58998V1.98998ZM5.60999 4.54998C5.60999 3.13219 6.7522 1.98998 8.16999 1.98998V1.58998C6.53129 1.58998 5.20999 2.91128 5.20999 4.54998H5.60999ZM6.8701 6.76041C6.11614 6.31528 5.60999 5.49141 5.60999 4.54998H5.20999C5.20999 5.63811 5.79544 6.59045 6.66675 7.10486L6.8701 6.76041ZM7.16953 6.93148L6.86765 6.75898L6.6692 7.10628L6.97107 7.27878L7.16953 6.93148ZM7.05797 7.5108L7.24126 7.20893L6.89934 7.00134L6.71606 7.30321L7.05797 7.5108ZM5.18194 10.5944L7.05788 7.51096L6.71615 7.30306L4.84022 10.3865L5.18194 10.5944ZM5.39963 10.6595C5.32893 10.5378 5.23524 10.4346 5.15488 10.3514L4.86728 10.6294C4.94325 10.708 5.00858 10.7827 5.05378 10.8605L5.39963 10.6595ZM5.56 11.8577C5.66975 11.4496 5.61056 11.0244 5.39986 10.6599L5.05355 10.8601C5.21211 11.1344 5.25534 11.4504 5.17372 11.7538L5.56 11.8577ZM4.82008 12.8198C5.18497 12.6089 5.45046 12.265 5.56 11.8577L5.17372 11.7538C5.09189 12.0581 4.89379 12.3152 4.61989 12.4735L4.82008 12.8198ZM4.02999 13.03C4.29744 13.03 4.57082 12.9638 4.82002 12.8199L4.61995 12.4735C4.43521 12.5802 4.23152 12.63 4.02999 12.63V13.03ZM2.65998 12.2398C2.95193 12.7465 3.48455 13.03 4.02999 13.03V12.63C3.62128 12.63 3.22402 12.4175 3.00656 12.0401L2.65998 12.2398ZM3.23981 10.0802C2.48563 10.5166 2.22466 11.485 2.66001 12.2399L3.00652 12.0401C2.68179 11.477 2.87633 10.7527 3.44017 10.4264L3.23981 10.0802ZM4.43771 9.91996C4.02913 9.81008 3.6042 9.87105 3.24044 10.0798L3.43953 10.4267C3.71456 10.2689 4.03084 10.2248 4.33382 10.3062L4.43771 9.91996ZM4.44074 9.92076C4.43973 9.9205 4.43895 9.9203 4.43835 9.92014L4.33319 10.3061C4.33674 10.307 4.34011 10.3079 4.34324 10.3087L4.44074 9.92076ZM4.45075 9.92314C4.44603 9.92204 4.44324 9.92139 4.44073 9.92076L4.34325 10.3087C4.34986 10.3104 4.35615 10.3118 4.36039 10.3128L4.45075 9.92314ZM4.46137 9.92563C4.45745 9.92469 4.4536 9.9238 4.45078 9.92314L4.36036 10.3128C4.36356 10.3135 4.36569 10.314 4.36767 10.3145L4.46137 9.92563ZM4.48638 9.93232C4.47671 9.92942 4.46791 9.92721 4.46138 9.92563L4.36766 10.3145C4.37096 10.3153 4.37178 10.3156 4.3714 10.3154L4.48638 9.93232ZM5.96124 7.2064L4.2578 10.0203L4.59998 10.2275L6.30342 7.41355L5.96124 7.2064ZM4.51999 4.54998C4.51999 5.75327 5.11766 6.80679 6.01323 7.47065L6.25143 7.1493C5.44896 6.55445 4.91999 5.61614 4.91999 4.54998H4.51999ZM8.16999 2.96998C7.2981 2.96998 6.58999 3.67809 6.58999 4.54998H6.98999C6.98999 3.89901 7.51902 3.36998 8.16999 3.36998V2.96998ZM9.74999 4.54998C9.74999 3.67809 9.04187 2.96998 8.16999 2.96998V3.36998C8.82095 3.36998 9.34999 3.89901 9.34999 4.54998H9.74999ZM9.24455 5.69872C9.55105 5.41214 9.74999 5.0075 9.74999 4.54998H9.34999C9.34999 4.88757 9.20392 5.1891 8.97136 5.40654L9.24455 5.69872ZM10.8031 8.20507L9.28298 5.45585L8.93293 5.64941L10.4531 8.39863L10.8031 8.20507ZM11.965 7.79998C11.4511 7.79998 10.9803 7.93471 10.5498 8.11781L10.7064 8.4859C11.1061 8.3159 11.522 8.19998 11.965 8.19998V7.79998ZM15.615 11.45C15.615 9.43797 13.977 7.79998 11.965 7.79998V8.19998C13.7561 8.19998 15.215 9.65889 15.215 11.45H15.615ZM11.965 15.1C13.977 15.1 15.615 13.462 15.615 11.45H15.215C15.215 13.2411 13.7561 14.7 11.965 14.7V15.1ZM9.43281 14.0737C10.0879 14.7046 10.9833 15.1 11.965 15.1V14.7C11.0923 14.7 10.295 14.3487 9.71028 13.7856L9.43281 14.0737ZM9.90139 13.2955L9.42702 13.7914L9.71608 14.0679L10.1905 13.572L9.90139 13.2955ZM11.965 14.01C11.2741 14.01 10.6466 13.734 10.1846 13.2896L9.90726 13.5779C10.4399 14.0902 11.1654 14.41 11.965 14.41V14.01ZM14.525 11.45C14.525 12.8678 13.3828 14.01 11.965 14.01V14.41C13.6037 14.41 14.925 13.0887 14.925 11.45H14.525ZM11.965 8.88998C13.3828 8.88998 14.525 10.0322 14.525 11.45H14.925C14.925 9.81128 13.6037 8.48998 11.965 8.48998V8.88998ZM10.7357 9.21C11.1027 9.00706 11.517 8.88998 11.965 8.88998V8.48998C11.4453 8.48998 10.9648 8.62625 10.5421 8.85995L10.7357 9.21ZM10.4181 9.37434L10.7308 9.21262L10.547 8.85733L10.2344 9.01905L10.4181 9.37434ZM9.98822 8.98926L10.1499 9.29114L10.5025 9.10225L10.3408 8.80037L9.98822 8.98926ZM8.32911 5.9835L9.98942 8.99147L10.3396 8.79817L8.6793 5.7902L8.32911 5.9835ZM8.16999 6.12998C8.30311 6.12998 8.43287 6.11122 8.55329 6.08073L8.45512 5.69297C8.36261 5.71639 8.26596 5.72998 8.16999 5.72998V6.12998ZM6.58999 4.54998C6.58999 5.42186 7.2981 6.12998 8.16999 6.12998V5.72998C7.51902 5.72998 6.98999 5.20094 6.98999 4.54998H6.58999ZM3.14066 7.90295C1.5502 8.29949 0.379987 9.74371 0.379987 11.45H0.779987C0.779987 9.92995 1.82263 8.64382 3.23743 8.29107L3.14066 7.90295ZM3.5554 8.72699L3.38289 8.04778L2.9952 8.14624L3.1677 8.82546L3.5554 8.72699ZM1.46999 11.45C1.46999 10.2483 2.29676 9.24795 3.40995 8.97028L3.31314 8.58217C2.02751 8.90286 1.06999 10.0588 1.06999 11.45H1.46999ZM4.02999 14.01C2.6122 14.01 1.46999 12.8678 1.46999 11.45H1.06999C1.06999 13.0887 2.39129 14.41 4.02999 14.41V14.01ZM6.58999 11.45C6.58999 12.8678 5.44777 14.01 4.02999 14.01V14.41C5.66869 14.41 6.98999 13.0887 6.98999 11.45H6.58999ZM6.58999 11.105V11.45H6.98999V11.105H6.58999ZM10.6389 10.905H6.78999V11.305H10.6389V10.905ZM11.965 9.86998C11.2281 9.86998 10.6206 10.3765 10.4453 11.0549L10.8325 11.155C10.9644 10.6449 11.4189 10.27 11.965 10.27V9.86998ZM13.545 11.45C13.545 10.5781 12.8369 9.86998 11.965 9.86998V10.27C12.616 10.27 13.145 10.799 13.145 11.45H13.545ZM11.965 13.03C12.8369 13.03 13.545 12.3219 13.545 11.45H13.145C13.145 12.1009 12.616 12.63 11.965 12.63V13.03ZM10.4453 11.845C10.6206 12.5235 11.2281 13.03 11.965 13.03V12.63C11.4189 12.63 10.9644 12.2551 10.8325 11.7449L10.4453 11.845ZM7.4153 11.995H10.6389V11.595H7.4153V11.995ZM4.02999 15.1C5.91718 15.1 7.4222 13.6434 7.6142 11.8159L7.21639 11.7741C7.04452 13.41 5.7006 14.7 4.02999 14.7V15.1ZM0.379987 11.45C0.379987 13.462 2.01799 15.1 4.02999 15.1V14.7C2.2389 14.7 0.779987 13.2411 0.779987 11.45H0.379987Z" fill="black" mask="url(#path-1-outside-1_1607_34)"/>
</g>
<defs>
<clipPath id="clip0_1607_34">
<rect width="16" height="16" fill="white"/>
</clipPath>
</defs>
</svg>
