<svg width="16" height="16" viewBox="0 0 16 16" fill="none" xmlns="http://www.w3.org/2000/svg">
<path fill-rule="evenodd" clip-rule="evenodd" d="M12.8676 4.33105C13.1996 3.99911 13.1996 3.46092 12.8676 3.12897C12.5357 2.79702 11.9975 2.79702 11.6655 3.12897L7.99827 6.79621L4.33102 3.12897C3.99907 2.79702 3.46088 2.79702 3.12894 3.12897C2.79699 3.46092 2.79699 3.99911 3.12894 4.33105L6.79619 7.99829L3.12894 11.6655C2.79699 11.9975 2.79699 12.5357 3.12894 12.8676C3.46088 13.1996 3.99907 13.1996 4.33102 12.8676L7.99827 9.20037L11.6655 12.8676C11.9975 13.1996 12.5357 13.1996 12.8676 12.8676C13.1996 12.5357 13.1996 11.9975 12.8676 11.6655L9.20036 7.99829L12.8676 4.33105Z" fill="black"/>
</svg>
