<svg width="16" height="16" viewBox="0 0 16 16" fill="none" xmlns="http://www.w3.org/2000/svg">
<path fill-rule="evenodd" clip-rule="evenodd" d="M7.99926 0.5C3.80231 0.5 0.400002 3.90231 0.400002 8.09926C0.400002 12.2962 3.80231 15.6985 7.99926 15.6985C12.1962 15.6985 15.5985 12.2962 15.5985 8.09926C15.5985 3.90231 12.1962 0.5 7.99926 0.5ZM1.8 8.09926C1.8 4.6755 4.57551 1.9 7.99926 1.9C11.423 1.9 14.1985 4.6755 14.1985 8.09926C14.1985 11.523 11.423 14.2985 7.99926 14.2985C4.57551 14.2985 1.8 11.523 1.8 8.09926ZM10.7476 6.30648C10.94 5.97116 10.8241 5.54335 10.4888 5.35095C10.1535 5.15854 9.72566 5.2744 9.53326 5.60972L7.3506 9.41363C7.24926 9.59024 6.99105 9.57962 6.90456 9.39528L6.49182 8.51562C6.3276 8.16564 5.91076 8.01504 5.56077 8.17926C5.21078 8.34347 5.06018 8.76032 5.2244 9.11031L5.63714 9.98997C6.20486 11.1999 7.89974 11.2696 8.5649 10.1104L10.7476 6.30648Z" fill="#0E1438"/>
</svg>
