<svg width="16" height="16" viewBox="0 0 16 16" fill="none" xmlns="http://www.w3.org/2000/svg"><path d="M10.927 1.385 C 10.843 1.412,10.717 1.471,10.647 1.516 C 10.577 1.561,8.472 3.648,5.970 6.152 C 1.707 10.419,1.414 10.718,1.338 10.880 C 1.203 11.168,1.197 11.269,1.205 12.867 C 1.213 14.238,1.217 14.339,1.263 14.427 C 1.333 14.557,1.435 14.662,1.560 14.729 C 1.665 14.786,1.689 14.787,3.133 14.795 C 4.731 14.803,4.832 14.797,5.120 14.662 C 5.282 14.586,5.581 14.293,9.848 10.030 C 12.352 7.528,14.437 5.425,14.481 5.358 C 14.619 5.144,14.673 4.950,14.673 4.667 C 14.673 4.384,14.619 4.190,14.481 3.975 C 14.368 3.800,12.120 1.568,11.973 1.486 C 11.907 1.448,11.788 1.399,11.708 1.376 C 11.509 1.317,11.124 1.322,10.927 1.385 M12.380 3.593 C 12.948 4.161,13.413 4.645,13.413 4.667 C 13.413 4.689,13.059 5.061,12.627 5.493 L 11.840 6.280 10.780 5.220 L 9.720 4.160 10.520 3.360 C 10.960 2.920,11.326 2.560,11.333 2.560 C 11.340 2.560,11.811 3.025,12.380 3.593 M9.893 6.120 L 10.946 7.173 7.760 10.360 L 4.573 13.547 3.513 13.547 L 2.453 13.547 2.453 12.487 L 2.453 11.427 5.633 8.247 C 7.382 6.498,8.819 5.067,8.827 5.067 C 8.834 5.067,9.314 5.541,9.893 6.120 " stroke="none" fill-rule="evenodd" fill="black"></path></svg>