<svg width="16" height="16" viewBox="0 0 16 16" fill="none" xmlns="http://www.w3.org/2000/svg"><path d="M3.631 1.895 C 3.271 1.942,2.875 2.224,2.695 2.561 C 2.526 2.878,2.534 2.602,2.534 7.980 L 2.533 12.880 2.113 12.881 C 1.635 12.881,1.549 12.905,1.377 13.081 C 1.088 13.379,1.184 13.863,1.573 14.070 C 1.664 14.118,1.872 14.120,8.000 14.120 L 14.333 14.120 14.440 14.062 C 14.915 13.806,14.900 13.151,14.415 12.931 C 14.325 12.889,14.238 12.881,13.887 12.881 L 13.467 12.880 13.466 7.980 C 13.466 2.602,13.474 2.878,13.305 2.561 C 13.193 2.351,12.929 2.100,12.714 1.999 C 12.613 1.952,12.463 1.909,12.345 1.894 C 12.101 1.862,3.875 1.864,3.631 1.895 M12.207 8.007 L 12.213 12.880 8.000 12.880 L 3.787 12.880 3.787 8.018 C 3.787 5.344,3.795 3.148,3.805 3.138 C 3.814 3.128,5.707 3.123,8.011 3.127 L 12.200 3.133 12.207 8.007 M5.715 4.560 C 5.512 4.603,5.361 4.716,5.273 4.893 C 5.119 5.203,5.262 5.589,5.585 5.736 C 5.681 5.780,5.767 5.785,6.333 5.785 C 6.900 5.785,6.986 5.780,7.082 5.736 C 7.578 5.511,7.577 4.814,7.080 4.596 C 6.991 4.557,6.880 4.548,6.400 4.543 C 6.085 4.539,5.777 4.547,5.715 4.560 M9.049 4.560 C 8.845 4.603,8.695 4.716,8.606 4.893 C 8.452 5.203,8.595 5.589,8.918 5.736 C 9.014 5.780,9.100 5.785,9.667 5.785 C 10.233 5.785,10.319 5.780,10.415 5.736 C 10.912 5.511,10.910 4.814,10.413 4.596 C 10.324 4.557,10.213 4.548,9.733 4.543 C 9.418 4.539,9.110 4.547,9.049 4.560 M5.715 7.227 C 5.512 7.269,5.361 7.382,5.273 7.560 C 5.119 7.869,5.262 8.256,5.585 8.403 C 5.681 8.446,5.767 8.452,6.333 8.452 C 6.900 8.452,6.986 8.446,7.082 8.403 C 7.578 8.177,7.577 7.481,7.080 7.263 C 6.991 7.223,6.880 7.215,6.400 7.209 C 6.085 7.206,5.777 7.214,5.715 7.227 M9.049 7.227 C 8.845 7.269,8.695 7.382,8.606 7.560 C 8.452 7.869,8.595 8.256,8.918 8.403 C 9.014 8.446,9.100 8.452,9.667 8.452 C 10.233 8.452,10.319 8.446,10.415 8.403 C 10.912 8.177,10.910 7.481,10.413 7.263 C 10.324 7.223,10.213 7.215,9.733 7.209 C 9.418 7.206,9.110 7.214,9.049 7.227 M5.715 9.893 C 5.512 9.936,5.361 10.049,5.273 10.227 C 5.119 10.536,5.262 10.923,5.585 11.069 C 5.681 11.113,5.767 11.119,6.333 11.119 C 6.900 11.119,6.986 11.113,7.082 11.069 C 7.578 10.844,7.577 10.148,7.080 9.929 C 6.991 9.890,6.880 9.881,6.400 9.876 C 6.085 9.873,5.777 9.880,5.715 9.893 M9.049 9.893 C 8.845 9.936,8.695 10.049,8.606 10.227 C 8.452 10.536,8.595 10.923,8.918 11.069 C 9.014 11.113,9.100 11.119,9.667 11.119 C 10.233 11.119,10.319 11.113,10.415 11.069 C 10.912 10.844,10.910 10.148,10.413 9.929 C 10.324 9.890,10.213 9.881,9.733 9.876 C 9.418 9.873,9.110 9.880,9.049 9.893 " stroke="none" fill-rule="evenodd" fill="black"></path></svg>