<svg width="16" height="16" viewBox="0 0 16 16" fill="none" xmlns="http://www.w3.org/2000/svg">
<path fill-rule="evenodd" clip-rule="evenodd" d="M3.65517 2.23C2.40968 2.23 1.4 3.23968 1.4 4.48517V11.5197C1.4 12.7652 2.40968 13.7748 3.65517 13.7748H12.3448C13.5903 13.7748 14.6 12.7652 14.6 11.5197V4.48517C14.6 3.23968 13.5903 2.23 12.3448 2.23H3.65517ZM3.51352 3.43943C3.55985 3.43321 3.60714 3.43 3.65517 3.43H12.3448C12.3929 3.43 12.4402 3.43321 12.4865 3.43943L8.00001 7.40825L3.51352 3.43943ZM2.62504 4.25561C2.60865 4.32952 2.6 4.40634 2.6 4.48517V11.5197C2.6 12.1024 3.07242 12.5748 3.65517 12.5748H12.3448C12.9276 12.5748 13.4 12.1024 13.4 11.5197V4.48517C13.4 4.40634 13.3914 4.32952 13.375 4.25562L8.39755 8.65872C8.17056 8.85952 7.82946 8.85952 7.60246 8.65872L2.62504 4.25561Z" fill="#0E1438"/>
</svg>
