<svg width="16" height="16" viewBox="0 0 16 16" fill="none" xmlns="http://www.w3.org/2000/svg"><path d="M12.148 0.564 C 11.932 0.594,11.727 0.703,11.541 0.884 C 11.207 1.209,11.120 1.714,11.320 2.155 C 11.404 2.338,11.662 2.596,11.845 2.680 C 12.148 2.817,12.519 2.817,12.821 2.680 C 13.005 2.596,13.263 2.338,13.346 2.155 C 13.590 1.617,13.408 1.010,12.912 0.710 C 12.681 0.571,12.434 0.523,12.148 0.564 M12.421 1.579 C 12.496 1.653,12.440 1.787,12.333 1.787 C 12.262 1.787,12.213 1.738,12.213 1.667 C 12.213 1.595,12.262 1.547,12.333 1.547 C 12.364 1.547,12.404 1.561,12.421 1.579 M8.697 1.896 C 8.588 1.917,8.431 2.012,8.352 2.106 C 8.278 2.193,8.214 2.365,8.214 2.480 C 8.213 2.690,8.259 2.792,8.440 2.982 L 8.610 3.160 5.230 6.547 C 2.349 9.433,1.828 9.968,1.697 10.165 C 0.985 11.242,1.027 12.626,1.801 13.642 C 2.754 14.892,4.509 15.179,5.835 14.303 C 6.032 14.172,6.567 13.651,9.453 10.770 L 12.840 7.390 13.018 7.560 C 13.208 7.741,13.310 7.787,13.520 7.786 C 13.966 7.784,14.260 7.283,14.052 6.880 C 14.025 6.829,12.914 5.699,11.582 4.370 C 9.687 2.478,9.140 1.947,9.067 1.925 C 8.913 1.881,8.820 1.873,8.697 1.896 M13.198 3.228 C 12.578 3.326,12.334 4.097,12.779 4.552 C 13.265 5.049,14.117 4.697,14.116 4.000 C 14.115 3.512,13.686 3.151,13.198 3.228 M11.247 7.187 L 10.547 7.880 8.120 7.873 L 5.694 7.866 7.600 5.960 L 9.506 4.053 10.727 5.273 L 11.947 6.493 11.247 7.187 M7.240 11.197 L 5.160 13.274 4.933 13.384 C 4.254 13.714,3.476 13.586,2.946 13.056 C 2.569 12.679,2.397 12.180,2.455 11.635 C 2.484 11.367,2.517 11.256,2.634 11.027 C 2.718 10.864,2.839 10.730,3.584 9.980 L 4.437 9.120 6.879 9.120 L 9.320 9.120 7.240 11.197 " stroke="none" fill-rule="evenodd" fill="black"></path></svg>