<svg width="16" height="16" viewBox="0 0 16 16" fill="none" xmlns="http://www.w3.org/2000/svg">
<path fill-rule="evenodd" clip-rule="evenodd" d="M5.42995 2.74717C5.87354 2.29261 6.63712 1.85 8.00063 1.85C9.36415 1.85 10.1277 2.29261 10.5713 2.74717C10.9443 3.12941 11.1413 3.64155 11.2361 4.28851C11.3188 4.85267 11.3164 5.45152 11.3139 6.09214L11.3139 6.09274C11.3139 6.10002 11.3139 6.1073 11.3138 6.11459H4.68742C4.68739 6.10712 4.68736 6.09965 4.68734 6.09219V6.09214C4.68483 5.45151 4.68248 4.85267 4.76516 4.28851C4.85996 3.64155 5.05694 3.12941 5.42995 2.74717ZM3.28718 6.11459C3.28413 5.48019 3.28081 4.76204 3.37995 4.08552C3.49817 3.2788 3.77157 2.44203 4.42799 1.76938C5.15853 1.02078 6.2949 0.449997 8.00063 0.449997C9.70637 0.449997 10.8427 1.02078 11.5733 1.76938C12.2297 2.44203 12.5031 3.2788 12.6213 4.08553C12.7205 4.76204 12.7171 5.48019 12.7141 6.11459H12.9571C13.8652 6.11459 14.6012 6.85068 14.6012 7.75869V12.9512C14.6012 14.3807 13.4425 15.5394 12.013 15.5394H3.9882C2.55878 15.5394 1.4 14.3807 1.4 12.9512V7.75869C1.4 6.85068 2.13609 6.11459 3.0441 6.11459H3.28718ZM2.8 7.75869C2.8 7.62388 2.90929 7.51459 3.0441 7.51459H12.9571C13.092 7.51459 13.2012 7.62388 13.2012 7.75869V12.9512C13.2012 13.6075 12.6693 14.1394 12.013 14.1394H3.9882C3.33197 14.1394 2.8 13.6075 2.8 12.9512V7.75869Z" fill="#0E1438"/>
</svg>
