<svg width="16" height="16" viewBox="0 0 16 16" fill="none" xmlns="http://www.w3.org/2000/svg">
<g clip-path="url(#clip0_354_89)">
<path d="M12.1639 9.33332C13.2684 9.33332 14.1639 8.43785 14.1639 7.33332C14.1639 6.22873 13.2684 5.33329 12.1639 5.33329M8.38344 12.1667C8.10891 12.9435 7.36804 13.5 6.49723 13.5C5.39267 13.5 4.49723 12.6045 4.49723 11.5V10.5M4.4987 4.16663V10.5M12.1639 2.73685V11.9297C12.1639 12.3785 11.7294 12.6991 11.3006 12.5667L2.30056 9.78792C2.02115 9.70165 1.83057 9.44339 1.83057 9.15092V5.51565C1.83057 5.22323 2.02115 4.96493 2.30056 4.87866L11.3006 2.09986C11.7294 1.96745 12.1639 2.28805 12.1639 2.73685Z" stroke="black" stroke-width="1.4" stroke-linecap="round" stroke-linejoin="round"/>
</g>
<defs>
<clipPath id="clip0_354_89">
<rect width="16" height="16" fill="white"/>
</clipPath>
</defs>
</svg>
