<svg width="16" height="16" viewBox="0 0 16 16" fill="none" xmlns="http://www.w3.org/2000/svg">
<path d="M12.3905 3.98586C12.5076 3.86542 12.6669 3.79526 12.8348 3.79026C12.9649 3.78642 13.0932 3.82199 13.2028 3.89231C13.3124 3.96263 13.3982 4.06441 13.4489 4.18432C13.4996 4.30423 13.513 4.43668 13.4872 4.5643C13.4614 4.69192 13.3976 4.80877 13.3042 4.89953L6.19682 12.0069C6.07565 12.128 5.91133 12.1961 5.73999 12.1961C5.56866 12.1961 5.40434 12.128 5.28316 12.0069L2.69866 9.42241C2.63665 9.36287 2.58714 9.29156 2.55303 9.21265C2.51893 9.13374 2.50091 9.04882 2.50003 8.96286C2.49916 8.87689 2.51545 8.79162 2.54794 8.71204C2.58043 8.63245 2.62848 8.56014 2.68927 8.49936C2.75005 8.43857 2.82236 8.39052 2.90194 8.35803C2.98153 8.32554 3.0668 8.30925 3.15276 8.31012C3.23873 8.311 3.32365 8.32902 3.40256 8.36312C3.48147 8.39723 3.55278 8.44674 3.61232 8.50875L5.73999 10.6364L12.3905 3.98586Z" fill="black" stroke="black" stroke-width="0.5"/>
</svg>
