<svg width="16" height="16" viewBox="0 0 16 16" fill="none" xmlns="http://www.w3.org/2000/svg">
<g clip-path="url(#clip0_233_55)">
<path fill-rule="evenodd" clip-rule="evenodd" d="M1.85999 7.99448C1.85999 4.6065 4.6065 1.85999 7.99448 1.85999C11.3825 1.85999 14.129 4.6065 14.129 7.99448C14.129 11.3825 11.3825 14.129 7.99448 14.129C4.6065 14.129 1.85999 11.3825 1.85999 7.99448ZM7.99448 0.459991C3.8333 0.459991 0.459991 3.8333 0.459991 7.99448C0.459991 12.1557 3.8333 15.529 7.99448 15.529C12.1557 15.529 15.529 12.1557 15.529 7.99448C15.529 3.8333 12.1557 0.459991 7.99448 0.459991ZM8.69445 3.98806V4.23072H10.1155C10.5021 4.23072 10.8155 4.54412 10.8155 4.93072C10.8155 5.31732 10.5021 5.63072 10.1155 5.63072H7.40531C6.94588 5.63072 6.57344 6.00316 6.57344 6.46259C6.57344 6.92202 6.94588 7.29446 7.40531 7.29446H8.58367C9.81629 7.29446 10.8155 8.2937 10.8155 9.52632C10.8155 10.7218 9.87562 11.6978 8.69445 11.7555V12.0006C8.69445 12.3872 8.38105 12.7006 7.99445 12.7006C7.60785 12.7006 7.29445 12.3872 7.29445 12.0006V11.7582H5.87344C5.48684 11.7582 5.17344 11.4448 5.17344 11.0582C5.17344 10.6716 5.48684 10.3582 5.87344 10.3582H8.58367C9.0431 10.3582 9.41554 9.98575 9.41554 9.52632C9.41554 9.0669 9.0431 8.69446 8.58367 8.69446H7.40531C6.17268 8.69446 5.17344 7.69521 5.17344 6.46259C5.17344 5.26713 6.11332 4.2912 7.29445 4.23342V3.98806C7.29445 3.60146 7.60785 3.28806 7.99445 3.28806C8.38105 3.28806 8.69445 3.60146 8.69445 3.98806Z" fill="black"/>
</g>
<defs>
<clipPath id="clip0_233_55">
<rect width="16" height="16" fill="white"/>
</clipPath>
</defs>
</svg>
