<svg width="16" height="16" viewBox="0 0 16 16" fill="none" xmlns="http://www.w3.org/2000/svg"><path d="M7.569 1.227 C 5.927 1.328,4.373 2.031,3.204 3.200 C 2.017 4.387,1.345 5.872,1.222 7.580 C 1.132 8.821,1.448 10.212,2.069 11.312 C 2.761 12.539,3.879 13.580,5.115 14.151 C 7.294 15.157,9.798 14.967,11.773 13.645 C 13.519 12.478,14.607 10.602,14.776 8.471 C 14.811 8.037,14.797 7.750,14.734 7.619 C 14.633 7.407,14.405 7.255,14.184 7.254 C 14.026 7.253,13.915 7.292,13.733 7.413 C 12.776 8.049,11.605 8.209,10.515 7.852 C 9.195 7.420,8.248 6.309,8.010 4.914 C 7.956 4.596,7.972 3.853,8.040 3.547 C 8.133 3.127,8.315 2.696,8.566 2.305 C 8.719 2.067,8.757 1.948,8.739 1.772 C 8.722 1.611,8.676 1.510,8.569 1.403 C 8.388 1.221,8.199 1.188,7.569 1.227 M6.953 2.789 C 6.668 3.643,6.635 4.701,6.868 5.573 C 7.099 6.441,7.502 7.149,8.131 7.795 C 9.067 8.756,10.310 9.283,11.640 9.283 C 12.240 9.284,12.718 9.212,13.214 9.046 L 13.446 8.968 13.428 9.099 C 13.400 9.313,13.241 9.832,13.107 10.147 C 12.526 11.508,11.446 12.578,10.091 13.130 C 8.067 13.956,5.758 13.519,4.189 12.014 C 3.275 11.137,2.711 10.056,2.519 8.812 C 2.457 8.413,2.457 7.587,2.519 7.188 C 2.827 5.200,4.142 3.560,6.013 2.828 C 6.300 2.716,6.843 2.563,6.962 2.561 L 7.030 2.560 6.953 2.789 " stroke="none" fill-rule="evenodd" fill="black"></path></svg>