<svg width="16" height="16" viewBox="0 0 16 16" fill="none" xmlns="http://www.w3.org/2000/svg">
<g clip-path="url(#clip0_526_52)">
<path d="M12.8335 8.66666C9.46383 8.95832 7.62516 10.797 7.3335 14.1667C7.0295 10.7446 5.20044 9.04806 1.8335 8.66666C5.25366 8.27219 6.93903 6.58682 7.3335 3.16666C7.7149 6.5336 9.41143 8.36266 12.8335 8.66666Z" stroke="black" stroke-width="1.5" stroke-linecap="round" stroke-linejoin="round"/>
<path d="M13.193 0.839217C13.1819 0.740997 13.0989 0.666757 13 0.666657C12.9012 0.666556 12.818 0.74063 12.8067 0.838823C12.733 1.47734 12.5421 1.92632 12.2342 2.2343C11.9262 2.54228 11.4772 2.73318 10.8386 2.80682C10.7405 2.81815 10.6664 2.90134 10.6665 3.00019C10.6666 3.09904 10.7408 3.18208 10.839 3.1932C11.467 3.26433 11.9256 3.45516 12.2408 3.76474C12.555 4.07317 12.7498 4.52206 12.8062 5.15608C12.8151 5.2565 12.8992 5.33344 13 5.33332C13.1008 5.33321 13.1848 5.25608 13.1936 5.15565C13.2476 4.53205 13.4422 4.07372 13.7579 3.75806C14.0736 3.4424 14.5319 3.24769 15.1555 3.19371C15.2559 3.18502 15.333 3.10102 15.3332 3.00021C15.3333 2.8994 15.2564 2.81523 15.1559 2.80631C14.5219 2.74999 14.073 2.5551 13.7646 2.241C13.455 1.9257 13.2642 1.46718 13.193 0.839217Z" fill="black"/>
</g>
<defs>
<clipPath id="clip0_526_52">
<rect width="16" height="16" fill="white"/>
</clipPath>
</defs>
</svg>
