<svg width="16" height="16" viewBox="0 0 16 16" fill="none" xmlns="http://www.w3.org/2000/svg">
<g clip-path="url(#clip0_132_85)">
<path fill-rule="evenodd" clip-rule="evenodd" d="M1.3975 2.625C1.3975 1.17525 2.57275 0 4.0225 0H11.9912C13.441 0 14.6162 1.17525 14.6162 2.625V13.5938H14.8037C15.218 13.5938 15.5537 13.9295 15.5537 14.3438C15.5537 14.758 15.218 15.0938 14.8037 15.0938H13.8662H10.1162H5.8975H2.1475H1.21C0.795786 15.0938 0.459999 14.758 0.459999 14.3438C0.459999 13.9295 0.795786 13.5938 1.21 13.5938H1.3975V2.625ZM6.6475 13.5938H9.36625V11.0625C9.36625 10.4412 8.86257 9.9375 8.24125 9.9375H7.7725C7.15118 9.9375 6.6475 10.4412 6.6475 11.0625V13.5938ZM10.8662 13.5938V11.0625C10.8662 9.61275 9.691 8.4375 8.24125 8.4375H7.7725C6.32275 8.4375 5.1475 9.61275 5.1475 11.0625V13.5938H2.8975V2.625C2.8975 2.00368 3.40118 1.5 4.0225 1.5H11.9912C12.6126 1.5 13.1162 2.00368 13.1162 2.625V13.5938H10.8662ZM6.13187 5.70312C6.14913 5.70312 6.16312 5.68913 6.16312 5.67188C6.16312 5.65462 6.14913 5.64062 6.13187 5.64062C6.11462 5.64062 6.10062 5.65462 6.10062 5.67188C6.10062 5.68913 6.11462 5.70312 6.13187 5.70312ZM5.16312 5.67188C5.16312 5.13685 5.59685 4.70312 6.13187 4.70312C6.6669 4.70312 7.10062 5.13685 7.10062 5.67188C7.10062 6.2069 6.6669 6.64062 6.13187 6.64062C5.59685 6.64062 5.16312 6.2069 5.16312 5.67188ZM9.91312 5.67188C9.91312 5.68913 9.89913 5.70312 9.88187 5.70312C9.86462 5.70312 9.85062 5.68913 9.85062 5.67188C9.85062 5.65462 9.86462 5.64062 9.88187 5.64062C9.89913 5.64062 9.91312 5.65462 9.91312 5.67188ZM9.88187 4.70312C9.34685 4.70312 8.91312 5.13685 8.91312 5.67188C8.91312 6.2069 9.34685 6.64062 9.88187 6.64062C10.4169 6.64062 10.8506 6.2069 10.8506 5.67188C10.8506 5.13685 10.4169 4.70312 9.88187 4.70312Z" fill="#0E1438"/>
</g>
<defs>
<clipPath id="clip0_132_85">
<rect width="16" height="16" fill="white"/>
</clipPath>
</defs>
</svg>
