<svg width="16" height="16" viewBox="0 0 16 16" fill="none" xmlns="http://www.w3.org/2000/svg"><path d="M7.907 1.438 C 7.751 1.511,3.484 5.789,3.426 5.930 C 3.279 6.285,3.494 6.689,3.875 6.775 C 3.996 6.802,4.041 6.800,4.175 6.761 C 4.333 6.716,4.338 6.711,5.940 5.112 L 7.546 3.508 7.553 8.349 L 7.560 13.191 7.641 13.321 C 7.906 13.750,8.493 13.713,8.737 13.253 C 8.785 13.164,8.787 12.974,8.800 8.340 L 8.813 3.520 10.387 5.095 C 11.302 6.011,12.005 6.694,12.067 6.727 C 12.204 6.801,12.454 6.805,12.587 6.736 C 12.929 6.558,13.055 6.169,12.869 5.857 C 12.774 5.696,8.544 1.486,8.423 1.431 C 8.291 1.371,8.042 1.374,7.907 1.438 " stroke="none" fill-rule="evenodd" fill="black"></path></svg>