<svg width="16" height="16" viewBox="0 0 16 16" fill="none" xmlns="http://www.w3.org/2000/svg">
<path fill-rule="evenodd" clip-rule="evenodd" d="M11.8718 5.20033C12.1647 4.90744 12.1647 4.43256 11.8718 4.13967C11.5789 3.84678 11.104 3.84677 10.8111 4.13967L8.00571 6.94504L5.20033 4.13967C4.90743 3.84677 4.43256 3.84678 4.13967 4.13967C3.84677 4.43256 3.84678 4.90744 4.13967 5.20033L6.94505 8.0057L4.13967 10.8111C3.84678 11.104 3.84677 11.5788 4.13967 11.8717C4.43256 12.1646 4.90743 12.1646 5.20033 11.8717L8.00571 9.06636L10.8111 11.8717C11.104 12.1646 11.5789 12.1646 11.8718 11.8717C12.1647 11.5788 12.1647 11.104 11.8718 10.8111L9.06638 8.0057L11.8718 5.20033Z" fill="#0E1438"/>
</svg>
