<svg width="16" height="16" viewBox="0 0 16 16" fill="none" xmlns="http://www.w3.org/2000/svg">
<path fill-rule="evenodd" clip-rule="evenodd" d="M8.00106 2.45C7.41874 2.45 6.85735 2.53967 6.32997 2.70595V5.62997C6.32997 7.44519 4.85848 8.91662 3.04332 8.91662H2.52515C2.8343 10.7795 4.07101 12.3289 5.74475 13.0744C5.79625 12.9457 5.86264 12.7649 5.92949 12.5421C6.07719 12.0498 6.2233 11.3647 6.2233 10.5877C6.2233 9.97198 6.40442 9.50332 6.75364 9.14319C7.0068 8.88211 7.34194 8.69925 7.58073 8.56896L7.58079 8.56893C7.61973 8.54768 7.65612 8.52783 7.68917 8.50926C7.96246 8.35573 8.1856 8.20968 8.37833 7.97775C8.56814 7.74933 8.76408 7.39297 8.89032 6.77701L10.8376 6.10893C10.5651 6.30748 10.348 6.63737 10.2618 7.058L10.2618 7.05805C10.0978 7.85816 9.81707 8.4369 9.45508 8.87252C9.096 9.30463 8.69222 9.55156 8.37487 9.72984C8.31851 9.7615 8.26734 9.78997 8.22069 9.81593L8.22033 9.81613L8.22032 9.81613C7.97339 9.95353 7.85306 10.0205 7.7587 10.1178C7.70122 10.1771 7.6233 10.2766 7.6233 10.5877C7.6233 11.5351 7.44607 12.3589 7.27044 12.9444C7.20808 13.1522 7.14544 13.3317 7.09004 13.4777C7.38645 13.5267 7.69078 13.5521 8.00106 13.5521C11.0669 13.5521 13.5521 11.0669 13.5521 8.00106C13.5521 7.25706 13.4058 6.54725 13.1402 5.89885H11.4499C11.236 5.89885 11.0239 5.97319 10.8376 6.10891L8.89033 6.77697C9.12755 5.61917 10.0719 4.49885 11.4499 4.49885H12.3081C11.2903 3.24861 9.73894 2.45 8.00106 2.45ZM10.8376 6.10891C10.8376 6.10892 10.8376 6.10893 10.8376 6.10893L11.4499 5.89885L10.8376 6.10891ZM2.47085 7.51662C2.62025 5.78843 3.56152 4.28673 4.92997 3.37621V5.62997C4.92997 6.67197 4.08529 7.51662 3.04332 7.51662H2.47085ZM1.05 8.00106C1.05 4.1621 4.1621 1.05 8.00106 1.05C11.8401 1.05 14.9521 4.1621 14.9521 8.00106C14.9521 11.8401 11.8401 14.9521 8.00106 14.9521C4.1621 14.9521 1.05 11.8401 1.05 8.00106Z" fill="black"/>
</svg>
