<svg width="16" height="16" viewBox="0 0 16 16" fill="none" xmlns="http://www.w3.org/2000/svg"><path d="M5.080 6.106 C 4.947 6.170,4.911 6.200,4.812 6.331 C 4.739 6.428,4.733 6.452,4.733 6.665 C 4.733 6.888,4.736 6.899,4.831 7.027 C 4.885 7.100,5.492 7.720,6.178 8.405 C 7.622 9.845,7.564 9.800,8.000 9.800 C 8.436 9.800,8.378 9.845,9.822 8.405 C 10.508 7.720,11.115 7.100,11.169 7.027 C 11.264 6.899,11.267 6.888,11.267 6.665 C 11.267 6.452,11.261 6.428,11.188 6.331 C 11.089 6.200,11.053 6.170,10.920 6.106 C 10.777 6.037,10.555 6.038,10.400 6.109 C 10.310 6.149,9.994 6.448,9.140 7.301 L 8.000 8.439 6.860 7.301 C 6.006 6.448,5.690 6.149,5.600 6.109 C 5.445 6.038,5.223 6.037,5.080 6.106 " stroke="none" fill-rule="evenodd" fill="black"></path></svg>