<svg width="16" height="16" viewBox="0 0 16 16" fill="none" xmlns="http://www.w3.org/2000/svg"><path d="M7.427 1.431 C 6.856 1.534,6.294 1.823,5.856 2.240 C 4.574 3.456,4.549 5.461,5.799 6.707 C 6.509 7.414,7.508 7.743,8.471 7.587 C 10.007 7.338,11.119 6.043,11.120 4.503 C 11.120 2.996,10.024 1.685,8.547 1.429 C 8.251 1.377,7.718 1.378,7.427 1.431 M8.587 2.715 C 9.118 2.889,9.607 3.378,9.777 3.907 C 9.868 4.188,9.890 4.619,9.830 4.907 C 9.718 5.438,9.316 5.944,8.813 6.187 C 8.036 6.562,7.111 6.358,6.552 5.687 C 6.384 5.485,6.223 5.156,6.170 4.907 C 6.110 4.618,6.132 4.189,6.224 3.905 C 6.407 3.334,6.918 2.849,7.503 2.691 C 7.767 2.620,8.333 2.633,8.587 2.715 M3.979 7.733 C 2.959 7.849,2.076 8.453,1.564 9.387 C 1.450 9.596,1.295 10.050,1.251 10.307 C 1.203 10.580,1.211 11.170,1.266 11.427 C 1.559 12.816,2.703 13.841,4.071 13.941 C 5.683 14.059,7.065 13.015,7.401 11.427 C 7.455 11.170,7.463 10.580,7.416 10.307 C 7.337 9.852,7.094 9.298,6.813 8.933 C 6.653 8.726,6.284 8.379,6.080 8.245 C 5.743 8.023,5.342 7.855,4.960 7.777 C 4.707 7.726,4.232 7.704,3.979 7.733 M11.304 7.734 C 10.290 7.850,9.409 8.455,8.898 9.387 C 8.783 9.596,8.628 10.050,8.584 10.307 C 8.537 10.580,8.545 11.170,8.599 11.427 C 8.784 12.301,9.297 13.039,10.038 13.495 C 11.023 14.102,12.311 14.102,13.295 13.495 C 14.315 12.867,14.896 11.699,14.773 10.528 C 14.691 9.751,14.379 9.117,13.810 8.573 C 13.383 8.164,12.870 7.895,12.293 7.777 C 12.037 7.725,11.564 7.704,11.304 7.734 M4.853 9.028 C 5.343 9.175,5.787 9.549,6.006 10.000 C 6.156 10.308,6.196 10.488,6.195 10.853 C 6.193 11.299,6.074 11.650,5.811 11.980 C 5.480 12.396,5.071 12.628,4.556 12.692 C 3.900 12.774,3.281 12.515,2.855 11.980 C 2.593 11.650,2.473 11.299,2.472 10.853 C 2.470 10.488,2.510 10.308,2.660 10.000 C 2.917 9.474,3.468 9.066,4.040 8.977 C 4.199 8.952,4.708 8.984,4.853 9.028 M12.187 9.028 C 12.676 9.175,13.120 9.549,13.340 10.000 C 13.490 10.308,13.530 10.488,13.528 10.853 C 13.527 11.299,13.407 11.650,13.145 11.980 C 12.813 12.396,12.404 12.628,11.889 12.692 C 11.233 12.774,10.615 12.515,10.189 11.980 C 9.923 11.647,9.807 11.300,9.804 10.840 C 9.802 10.478,9.837 10.324,9.994 10.000 C 10.249 9.475,10.801 9.066,11.373 8.977 C 11.532 8.952,12.042 8.984,12.187 9.028 " stroke="none" fill-rule="evenodd" fill="black"></path></svg>