<svg width="16" height="16" viewBox="0 0 16 16" fill="none" xmlns="http://www.w3.org/2000/svg">
<path d="M16 11.6787C16 13.0479 14.8851 14.1628 13.5159 14.1628H0V4.32413C0 2.95494 1.11491 1.84003 2.48411 1.84003H16V11.6787Z" fill="white"/>
<path d="M12.5086 2.67133C11.5306 2.67133 10.7286 3.4635 10.7286 4.45128V6.29969H13.2421C13.3007 6.29969 13.3692 6.29969 13.4181 6.30947C13.9853 6.33881 14.4059 6.63221 14.4059 7.14076C14.4059 7.54174 14.1223 7.88404 13.5941 7.9525V7.97206C14.1712 8.01118 14.6113 8.33392 14.6113 8.83269C14.6113 9.37059 14.1223 9.72267 13.4768 9.72267H10.7188V13.3413H13.3301C14.3081 13.3413 15.11 12.5491 15.11 11.5613V2.67133H12.5086Z" fill="url(#paint0_linear_1275_631)"/>
<path d="M11.599 9.15542H12.6259C12.6406 9.15542 12.665 9.15298 12.6895 9.15053C12.7139 9.14809 12.7384 9.14564 12.7531 9.14564C12.9487 9.10652 13.1149 8.93048 13.1149 8.68599C13.1149 8.45127 12.9487 8.27523 12.7531 8.22633C12.7237 8.21655 12.665 8.21655 12.6259 8.21655H11.599V9.15542Z" fill="url(#paint1_linear_1275_631)"/>
<path d="M12.6259 6.83758C12.8215 6.86692 12.9878 7.0234 12.9878 7.25812C12.9878 7.49284 12.8215 7.64932 12.6259 7.67866C12.6161 7.68844 12.5575 7.68844 12.5281 7.68844H11.599V6.8278H12.5281C12.5443 6.8278 12.5664 6.83076 12.5862 6.83343C12.6024 6.8356 12.6171 6.83758 12.6259 6.83758Z" fill="url(#paint2_linear_1275_631)"/>
<path d="M2.66994 2.67133C1.69195 2.67133 0.889991 3.4635 0.889991 4.45128V8.84247C1.38877 9.08697 1.90711 9.24345 2.42544 9.24345C3.04158 9.24345 3.3741 8.87181 3.3741 8.36326V6.28991H4.89977V8.35348C4.89977 9.15543 4.40099 9.81069 2.70906 9.81069C1.68217 9.81069 0.880211 9.58575 0.880211 9.58575V13.3315H3.49146C4.46945 13.3315 5.27141 12.5393 5.27141 11.5515V2.67133H2.66994Z" fill="url(#paint3_linear_1275_631)"/>
<path d="M7.58924 2.67133C6.61124 2.67133 5.80929 3.4635 5.80929 4.45128V6.7789C6.25917 6.39749 7.04156 6.15299 8.30318 6.21167C8.97799 6.24101 9.70171 6.42683 9.70171 6.42683V7.17988C9.33985 6.99406 8.90953 6.8278 8.35208 6.78868C7.39364 6.72022 6.81662 7.18966 6.81662 8.01118C6.81662 8.84247 7.39364 9.31191 8.35208 9.23367C8.90953 9.19455 9.33985 9.01851 9.70171 8.84247V9.59553C9.70171 9.59553 8.98777 9.78135 8.30318 9.81069C7.04156 9.86937 6.25917 9.62487 5.80929 9.24345V13.351H8.42053C9.39853 13.351 10.2005 12.5589 10.2005 11.5711V2.67133H7.58924Z" fill="url(#paint4_linear_1275_631)"/>
<defs>
<linearGradient id="paint0_linear_1275_631" x1="10.7267" y1="7.25665" x2="15.1217" y2="7.25665" gradientUnits="userSpaceOnUse">
<stop stop-color="#007940"/>
<stop offset="0.2285" stop-color="#00873F"/>
<stop offset="0.7433" stop-color="#40A737"/>
<stop offset="1" stop-color="#5CB531"/>
</linearGradient>
<linearGradient id="paint1_linear_1275_631" x1="10.7267" y1="7.25665" x2="15.1217" y2="7.25665" gradientUnits="userSpaceOnUse">
<stop stop-color="#007940"/>
<stop offset="0.2285" stop-color="#00873F"/>
<stop offset="0.7433" stop-color="#40A737"/>
<stop offset="1" stop-color="#5CB531"/>
</linearGradient>
<linearGradient id="paint2_linear_1275_631" x1="10.7267" y1="7.25665" x2="15.1217" y2="7.25665" gradientUnits="userSpaceOnUse">
<stop stop-color="#007940"/>
<stop offset="0.2285" stop-color="#00873F"/>
<stop offset="0.7433" stop-color="#40A737"/>
<stop offset="1" stop-color="#5CB531"/>
</linearGradient>
<linearGradient id="paint3_linear_1275_631" x1="0.887767" y1="8.00185" x2="5.35077" y2="8.00185" gradientUnits="userSpaceOnUse">
<stop stop-color="#1F286F"/>
<stop offset="0.4751" stop-color="#004E94"/>
<stop offset="0.8261" stop-color="#0066B1"/>
<stop offset="1" stop-color="#006FBC"/>
</linearGradient>
<linearGradient id="paint4_linear_1275_631" x1="5.78387" y1="8.00184" x2="10.1183" y2="8.00184" gradientUnits="userSpaceOnUse">
<stop stop-color="#6C2C2F"/>
<stop offset="0.1735" stop-color="#882730"/>
<stop offset="0.5731" stop-color="#BE1833"/>
<stop offset="0.8585" stop-color="#DC0436"/>
<stop offset="1" stop-color="#E60039"/>
</linearGradient>
</defs>
</svg>
