<svg width="16" height="16" viewBox="0 0 16 16" fill="none" xmlns="http://www.w3.org/2000/svg">
<path fill-rule="evenodd" clip-rule="evenodd" d="M5.83518 2.29C4.86177 2.29 4.07266 3.07911 4.07266 4.05253C4.07266 5.02594 4.86177 5.81505 5.83518 5.81505C6.8086 5.81505 7.59771 5.02594 7.59771 4.05253C7.59771 3.07911 6.8086 2.29 5.83518 2.29ZM2.77266 4.05253C2.77266 2.36114 4.1438 0.990002 5.83518 0.990002C7.52657 0.990002 8.89771 2.36114 8.89771 4.05253C8.89771 5.74391 7.52657 7.11505 5.83518 7.11505C4.1438 7.11505 2.77266 5.74391 2.77266 4.05253ZM2.42391 13.5939C2.55021 12.9728 2.81203 12.1615 3.33552 11.517C3.83756 10.8989 4.60062 10.4048 5.83517 10.4048C7.06973 10.4048 7.83279 10.8989 8.33483 11.517C8.85832 12.1615 9.12014 12.9728 9.24644 13.5939C9.25048 13.6139 9.24842 13.6251 9.24667 13.6312C9.2446 13.6385 9.24002 13.6484 9.22979 13.6597C9.20865 13.6832 9.16438 13.7106 9.09718 13.7106H2.57316C2.50597 13.7106 2.4617 13.6832 2.44055 13.6597C2.43033 13.6484 2.42574 13.6385 2.42368 13.6312C2.42193 13.6251 2.41986 13.6139 2.42391 13.5939ZM5.83517 9.10484C4.18375 9.10484 3.05892 9.79562 2.32645 10.6974C1.61543 11.5727 1.29613 12.6162 1.14998 13.3349C0.956674 14.2856 1.73327 15.0106 2.57316 15.0106H9.09718C9.93708 15.0106 10.7137 14.2856 10.5204 13.3349C10.3742 12.6162 10.0549 11.5727 9.34389 10.6974C8.61143 9.79562 7.4866 9.10484 5.83517 9.10484ZM11.3182 9.10484C10.9592 9.10484 10.6682 9.39586 10.6682 9.75484C10.6682 10.1138 10.9592 10.4048 11.3182 10.4048C11.9633 10.4048 12.4275 10.7223 12.7941 11.2416C13.1743 11.7802 13.4128 12.4941 13.5558 13.1381C13.6134 13.3977 13.4168 13.7106 13.0086 13.7106H12.1955C11.8365 13.7106 11.5455 14.0016 11.5455 14.3606C11.5455 14.7196 11.8365 15.0106 12.1955 15.0106H13.0086C14.1031 15.0106 15.0929 14.0638 14.8249 12.8564C14.6664 12.1423 14.3807 11.235 13.8561 10.4919C13.3179 9.72955 12.4968 9.10484 11.3182 9.10484ZM10.4409 0.990002C10.0819 0.990002 9.7909 1.28102 9.7909 1.64C9.7909 1.99899 10.0819 2.29 10.4409 2.29C11.3351 2.29 11.9841 2.99443 11.9841 4.05253C11.9841 5.11062 11.3351 5.81505 10.4409 5.81505C10.0819 5.81505 9.7909 6.10607 9.7909 6.46505C9.7909 6.82404 10.0819 7.11505 10.4409 7.11505C12.2115 7.11505 13.2841 5.65923 13.2841 4.05253C13.2841 2.44582 12.2115 0.990002 10.4409 0.990002Z" fill="#0E1438"/>
</svg>
