<svg width="16" height="16" viewBox="0 0 16 16" fill="none" xmlns="http://www.w3.org/2000/svg"><path d="M1.715 1.454 C 1.505 1.559,1.386 1.759,1.387 2.008 C 1.388 2.270,1.422 2.312,2.480 3.373 L 3.462 4.360 3.326 4.467 C 3.105 4.640,2.489 5.246,2.241 5.535 C 1.771 6.080,1.265 6.803,1.064 7.217 C 0.830 7.697,0.819 8.250,1.033 8.722 C 1.188 9.064,1.685 9.798,2.111 10.315 C 2.386 10.649,3.114 11.366,3.440 11.625 C 4.522 12.483,5.777 13.041,7.040 13.226 C 7.571 13.303,8.429 13.303,8.960 13.226 C 9.690 13.119,10.496 12.860,11.201 12.506 L 11.475 12.369 12.544 13.435 C 13.267 14.155,13.651 14.520,13.731 14.560 C 13.960 14.675,14.270 14.619,14.447 14.431 C 14.614 14.254,14.661 13.961,14.558 13.733 C 14.479 13.558,2.475 1.549,2.281 1.453 C 2.101 1.362,1.898 1.363,1.715 1.454 M7.267 2.749 C 6.769 2.807,6.549 3.003,6.549 3.387 C 6.549 3.738,6.807 4.007,7.142 4.005 C 7.196 4.005,7.498 3.996,7.813 3.985 C 8.419 3.966,8.626 3.981,9.147 4.083 C 10.019 4.255,11.016 4.739,11.813 5.377 C 12.118 5.620,12.741 6.247,12.990 6.560 C 13.242 6.877,13.583 7.365,13.736 7.626 C 13.843 7.807,13.853 7.842,13.853 8.001 C 13.853 8.170,13.846 8.189,13.685 8.455 C 13.593 8.608,13.402 8.889,13.261 9.080 C 13.120 9.270,12.983 9.474,12.956 9.533 C 12.750 9.987,13.211 10.501,13.697 10.360 C 13.883 10.306,13.980 10.218,14.240 9.865 C 14.913 8.954,15.119 8.516,15.119 8.000 C 15.119 7.582,14.998 7.257,14.639 6.707 C 13.350 4.735,11.614 3.410,9.679 2.920 C 9.134 2.782,8.801 2.742,8.120 2.732 C 7.768 2.728,7.384 2.735,7.267 2.749 M5.052 5.945 L 5.743 6.636 5.633 6.874 C 5.493 7.173,5.418 7.445,5.390 7.756 C 5.290 8.837,5.870 9.874,6.840 10.348 C 7.579 10.709,8.377 10.716,9.127 10.367 L 9.364 10.257 9.954 10.848 L 10.545 11.438 10.334 11.536 C 9.791 11.787,9.036 11.977,8.380 12.028 C 6.966 12.139,5.448 11.630,4.187 10.624 C 3.512 10.085,2.582 8.981,2.213 8.280 C 2.118 8.098,2.109 7.935,2.187 7.764 C 2.344 7.418,3.003 6.533,3.468 6.043 C 3.689 5.810,4.309 5.253,4.346 5.253 C 4.354 5.253,4.671 5.565,5.052 5.945 M8.377 9.314 C 8.340 9.351,8.023 9.387,7.880 9.371 C 7.543 9.332,7.236 9.181,7.012 8.941 C 6.730 8.640,6.628 8.362,6.644 7.937 C 6.650 7.788,6.665 7.650,6.677 7.630 C 6.694 7.603,6.923 7.817,7.550 8.443 C 8.017 8.910,8.389 9.302,8.377 9.314 " stroke="none" fill-rule="evenodd"></path></svg>