<svg width="16" height="16" viewBox="0 0 16 16" fill="none" xmlns="http://www.w3.org/2000/svg"><path d="M5.631 1.229 C 5.271 1.275,4.875 1.557,4.695 1.894 C 4.556 2.154,4.534 2.325,4.534 3.140 L 4.533 3.867 3.527 3.867 C 2.394 3.868,2.198 3.885,1.953 3.999 C 1.738 4.100,1.473 4.351,1.362 4.561 C 1.194 4.875,1.201 4.697,1.201 9.000 C 1.201 13.257,1.196 13.116,1.348 13.416 C 1.446 13.609,1.702 13.869,1.894 13.972 C 2.213 14.141,1.868 14.132,8.000 14.132 C 14.132 14.132,13.787 14.141,14.106 13.972 C 14.298 13.869,14.554 13.609,14.652 13.416 C 14.804 13.116,14.799 13.257,14.799 9.000 C 14.799 4.697,14.806 4.875,14.638 4.561 C 14.527 4.351,14.262 4.100,14.047 3.999 C 13.802 3.885,13.606 3.868,12.473 3.867 L 11.467 3.867 11.466 3.140 C 11.466 2.325,11.444 2.154,11.305 1.894 C 11.193 1.684,10.929 1.433,10.714 1.333 C 10.613 1.285,10.463 1.243,10.345 1.227 C 10.104 1.196,5.873 1.197,5.631 1.229 M10.207 3.167 L 10.214 3.867 8.000 3.867 L 5.787 3.867 5.787 3.178 C 5.787 2.799,5.795 2.481,5.805 2.471 C 5.814 2.461,6.807 2.456,8.011 2.460 L 10.200 2.467 10.207 3.167 M13.533 9.000 L 13.533 12.867 8.000 12.867 L 2.467 12.867 2.460 9.027 C 2.456 6.915,2.459 5.172,2.466 5.153 C 2.476 5.127,3.598 5.121,8.006 5.127 L 13.533 5.133 13.533 9.000 " stroke="none" fill-rule="evenodd" fill="black"></path></svg>