<svg width="16" height="16" viewBox="0 0 16 16" fill="none" xmlns="http://www.w3.org/2000/svg"><path d="M3.627 1.229 C 3.140 1.292,2.693 1.711,2.574 2.216 C 2.514 2.471,2.513 13.525,2.574 13.781 C 2.630 14.020,2.731 14.201,2.911 14.390 C 3.098 14.584,3.317 14.708,3.566 14.761 C 3.833 14.817,12.164 14.818,12.430 14.762 C 12.938 14.654,13.354 14.222,13.438 13.715 C 13.460 13.584,13.466 12.509,13.461 9.867 L 13.453 6.200 13.391 6.025 C 13.357 5.928,13.271 5.772,13.200 5.678 C 13.129 5.584,12.155 4.593,11.035 3.477 C 9.079 1.526,8.992 1.443,8.800 1.350 C 8.663 1.283,8.537 1.245,8.400 1.227 C 8.155 1.196,3.871 1.198,3.627 1.229 M7.867 4.033 C 7.867 5.748,7.871 5.800,8.017 6.086 C 8.112 6.276,8.370 6.536,8.561 6.638 C 8.853 6.794,8.920 6.799,10.647 6.800 L 12.214 6.800 12.207 10.167 L 12.200 13.533 8.000 13.533 L 3.800 13.533 3.793 8.027 C 3.789 4.998,3.792 2.505,3.799 2.487 C 3.809 2.460,4.242 2.453,5.839 2.453 L 7.867 2.453 7.867 4.033 M10.247 5.540 C 9.664 5.544,9.172 5.542,9.153 5.534 C 9.127 5.525,9.120 5.280,9.120 4.434 L 9.120 3.347 10.213 4.440 L 11.307 5.533 10.247 5.540 M5.585 8.264 C 5.179 8.448,5.084 8.986,5.404 9.284 C 5.593 9.459,5.541 9.453,6.929 9.461 C 8.333 9.470,8.390 9.464,8.578 9.299 C 8.838 9.071,8.859 8.658,8.623 8.415 C 8.423 8.209,8.468 8.215,7.000 8.215 C 5.785 8.215,5.686 8.218,5.585 8.264 M5.585 10.931 C 5.093 11.154,5.086 11.811,5.573 12.070 C 5.662 12.117,5.781 12.120,7.931 12.127 C 10.437 12.136,10.381 12.139,10.578 11.966 C 10.838 11.738,10.859 11.324,10.623 11.081 C 10.415 10.868,10.592 10.881,8.000 10.881 C 5.811 10.881,5.688 10.884,5.585 10.931 " stroke="none" fill-rule="evenodd" fill="black"></path></svg>