<svg width="16" height="16" viewBox="0 0 16 16" fill="none" xmlns="http://www.w3.org/2000/svg"><path d="M5.873 2.708 C 5.596 2.782,5.364 2.949,5.196 3.192 C 4.891 3.635,4.956 4.266,5.345 4.655 C 5.734 5.044,6.365 5.109,6.808 4.804 C 7.418 4.384,7.510 3.548,7.003 3.028 C 6.709 2.727,6.267 2.602,5.873 2.708 M9.560 2.704 C 9.146 2.807,8.813 3.131,8.708 3.532 C 8.581 4.019,8.769 4.513,9.192 4.804 C 9.523 5.031,9.968 5.058,10.347 4.874 C 10.969 4.572,11.191 3.755,10.804 3.192 C 10.519 2.779,10.031 2.587,9.560 2.704 M5.887 6.801 C 5.306 6.946,4.919 7.542,5.013 8.148 C 5.113 8.802,5.711 9.256,6.337 9.152 C 6.951 9.050,7.364 8.525,7.326 7.895 C 7.318 7.758,7.290 7.608,7.256 7.520 C 7.145 7.228,6.880 6.963,6.587 6.849 C 6.421 6.785,6.052 6.759,5.887 6.801 M9.487 6.823 C 8.982 6.991,8.666 7.433,8.667 7.972 C 8.668 8.567,9.080 9.055,9.663 9.152 C 10.146 9.232,10.649 8.969,10.866 8.524 C 11.173 7.894,10.937 7.178,10.325 6.886 C 10.155 6.804,10.098 6.791,9.885 6.783 C 9.696 6.775,9.605 6.784,9.487 6.823 M5.794 11.062 C 5.168 11.285,4.851 11.955,5.077 12.580 C 5.131 12.731,5.248 12.897,5.394 13.032 C 5.889 13.488,6.701 13.407,7.101 12.861 C 7.540 12.263,7.323 11.431,6.647 11.113 C 6.488 11.038,6.435 11.027,6.200 11.020 C 5.993 11.014,5.902 11.023,5.794 11.062 M9.480 11.060 C 8.954 11.247,8.637 11.711,8.674 12.239 C 8.691 12.479,8.759 12.670,8.894 12.854 C 9.300 13.407,10.108 13.491,10.606 13.032 C 10.752 12.897,10.869 12.731,10.923 12.580 C 11.130 12.008,10.880 11.387,10.335 11.119 C 10.167 11.036,10.125 11.027,9.882 11.020 C 9.676 11.014,9.582 11.023,9.480 11.060 " stroke="none" fill-rule="evenodd"></path></svg>