<svg width="16" height="16" viewBox="0 0 16 16" fill="none" xmlns="http://www.w3.org/2000/svg"><path d="M2.686 2.029 C 2.429 2.090,2.201 2.279,2.084 2.529 L 2.013 2.680 2.013 8.000 L 2.013 13.320 2.084 13.471 C 2.174 13.662,2.338 13.826,2.529 13.916 L 2.680 13.987 8.000 13.987 L 13.320 13.987 13.471 13.916 C 13.662 13.826,13.826 13.662,13.916 13.471 L 13.987 13.320 13.987 8.000 L 13.987 2.680 13.916 2.529 C 13.826 2.338,13.662 2.174,13.471 2.084 L 13.320 2.013 8.053 2.009 C 5.038 2.007,2.744 2.015,2.686 2.029 M5.127 3.732 C 5.436 3.850,5.702 4.186,5.757 4.528 C 5.847 5.087,5.468 5.614,4.890 5.734 C 4.595 5.795,4.190 5.659,3.974 5.425 C 3.587 5.005,3.594 4.361,3.991 3.964 C 4.117 3.837,4.291 3.734,4.451 3.688 C 4.623 3.640,4.940 3.660,5.127 3.732 M10.760 6.813 C 11.079 6.900,11.355 7.060,11.587 7.292 C 11.835 7.540,11.961 7.759,12.066 8.121 C 12.165 8.461,12.185 8.889,12.186 10.687 L 12.187 12.213 11.293 12.213 L 10.400 12.213 10.400 10.660 C 10.399 9.007,10.392 8.899,10.267 8.634 C 10.201 8.492,10.063 8.341,9.939 8.274 C 9.875 8.239,9.790 8.227,9.600 8.227 C 9.373 8.227,9.330 8.235,9.187 8.305 C 8.891 8.450,8.675 8.736,8.614 9.064 C 8.597 9.150,8.587 9.807,8.587 10.710 L 8.587 12.213 7.693 12.213 L 6.800 12.213 6.800 9.507 L 6.800 6.800 7.667 6.800 L 8.533 6.800 8.534 7.193 L 8.535 7.587 8.592 7.507 C 8.623 7.463,8.730 7.347,8.831 7.250 C 9.042 7.045,9.403 6.848,9.680 6.786 C 9.905 6.736,10.533 6.752,10.760 6.813 M5.600 9.507 L 5.600 12.213 4.707 12.213 L 3.813 12.213 3.813 9.507 L 3.813 6.800 4.707 6.800 L 5.600 6.800 5.600 9.507 " stroke="none" fill-rule="evenodd"></path></svg>