<svg width="16" height="16" viewBox="0 0 16 16" fill="none" xmlns="http://www.w3.org/2000/svg">
<path fill-rule="evenodd" clip-rule="evenodd" d="M4.75 8C4.75 8.69036 4.19036 9.25 3.5 9.25C2.80964 9.25 2.25 8.69036 2.25 8C2.25 7.30964 2.80964 6.75 3.5 6.75C4.19036 6.75 4.75 7.30964 4.75 8ZM9.25 8C9.25 8.69036 8.69036 9.25 8 9.25C7.30964 9.25 6.75 8.69036 6.75 8C6.75 7.30964 7.30964 6.75 8 6.75C8.69036 6.75 9.25 7.30964 9.25 8ZM12.5 9.25C13.1904 9.25 13.75 8.69036 13.75 8C13.75 7.30964 13.1904 6.75 12.5 6.75C11.8096 6.75 11.25 7.30964 11.25 8C11.25 8.69036 11.8096 9.25 12.5 9.25Z" fill="#2D2D2D"/>
</svg>
