<svg width="16" height="16" viewBox="0 0 16 16" fill="none" xmlns="http://www.w3.org/2000/svg"><path d="M8.080 0.839 C 7.273 0.959,6.587 1.304,6.012 1.879 C 4.720 3.171,4.582 5.179,5.686 6.637 C 5.748 6.719,5.908 6.895,6.041 7.027 L 6.282 7.267 5.522 8.523 L 4.762 9.779 4.481 9.778 C 4.287 9.777,4.151 9.791,4.040 9.824 C 3.340 10.031,2.880 10.633,2.880 11.343 C 2.880 11.794,3.031 12.159,3.346 12.470 C 4.225 13.337,5.681 12.917,5.989 11.707 C 6.058 11.436,6.031 11.060,5.923 10.787 C 5.877 10.669,5.804 10.526,5.760 10.469 L 5.681 10.365 5.732 10.282 C 5.760 10.237,6.228 9.468,6.772 8.573 C 7.726 7.006,7.760 6.945,7.709 6.907 C 7.680 6.885,7.525 6.791,7.365 6.698 C 6.863 6.408,6.533 6.057,6.293 5.560 C 6.102 5.164,6.043 4.898,6.045 4.440 C 6.046 4.128,6.058 4.024,6.115 3.806 C 6.424 2.635,7.506 1.840,8.707 1.902 C 8.868 1.911,9.100 1.942,9.222 1.972 C 10.116 2.192,10.844 2.923,11.073 3.832 C 11.161 4.183,11.155 4.767,11.060 5.120 C 11.023 5.259,11.000 5.381,11.009 5.390 C 11.025 5.406,11.977 5.707,12.010 5.707 C 12.029 5.707,12.121 5.395,12.179 5.133 C 12.246 4.826,12.245 4.071,12.177 3.760 C 12.006 2.978,11.644 2.324,11.094 1.806 C 10.578 1.320,9.951 0.997,9.275 0.867 C 8.961 0.806,8.390 0.793,8.080 0.839 M8.208 2.920 C 7.767 3.031,7.362 3.363,7.175 3.764 C 7.043 4.048,7.001 4.259,7.021 4.555 C 7.047 4.958,7.198 5.284,7.491 5.573 C 7.785 5.863,8.104 5.998,8.555 6.024 L 8.833 6.040 9.106 6.533 C 9.703 7.611,10.638 9.314,10.646 9.339 C 10.651 9.354,10.838 9.275,11.061 9.163 C 11.284 9.051,11.571 8.928,11.700 8.888 C 11.912 8.823,11.974 8.816,12.373 8.815 C 12.752 8.814,12.844 8.822,13.036 8.874 C 13.981 9.133,14.690 9.880,14.886 10.826 C 14.956 11.161,14.940 11.724,14.854 12.025 C 14.723 12.481,14.492 12.866,14.153 13.190 C 13.865 13.467,13.568 13.649,13.206 13.769 C 12.305 14.068,11.395 13.881,10.674 13.248 C 10.560 13.148,10.459 13.070,10.449 13.073 C 10.439 13.077,10.268 13.250,10.069 13.457 L 9.707 13.834 9.885 14.001 C 10.351 14.437,10.853 14.713,11.493 14.887 C 11.791 14.968,11.817 14.971,12.373 14.972 C 12.910 14.973,12.965 14.969,13.227 14.902 C 14.454 14.589,15.407 13.731,15.826 12.560 C 15.970 12.159,15.999 11.955,15.999 11.347 C 16.000 10.843,15.993 10.760,15.935 10.518 C 15.598 9.127,14.545 8.094,13.144 7.782 C 12.916 7.732,12.788 7.721,12.427 7.720 C 11.953 7.720,11.770 7.746,11.374 7.869 C 11.243 7.910,11.133 7.942,11.131 7.939 C 11.129 7.936,10.824 7.384,10.453 6.712 L 9.779 5.491 9.859 5.379 C 10.064 5.092,10.160 4.796,10.160 4.448 C 10.160 4.030,10.024 3.684,9.740 3.384 C 9.549 3.181,9.339 3.041,9.102 2.957 C 8.897 2.884,8.425 2.865,8.208 2.920 M3.479 7.826 C 2.562 8.098,1.844 8.636,1.351 9.421 C 0.770 10.346,0.644 11.521,1.014 12.573 C 1.439 13.786,2.551 14.724,3.823 14.945 C 4.165 15.005,4.782 15.000,5.114 14.936 C 5.835 14.796,6.427 14.479,6.962 13.947 C 7.415 13.497,7.731 12.965,7.906 12.360 C 7.945 12.228,7.983 12.069,7.992 12.007 L 8.007 11.893 9.455 11.893 L 10.903 11.893 10.991 12.073 C 11.118 12.331,11.417 12.628,11.680 12.756 C 12.148 12.985,12.627 12.985,13.089 12.758 C 13.321 12.643,13.601 12.390,13.729 12.178 C 13.889 11.912,13.954 11.677,13.955 11.360 C 13.956 11.127,13.944 11.044,13.885 10.867 C 13.716 10.357,13.299 9.962,12.784 9.827 C 12.575 9.771,12.163 9.772,11.973 9.828 C 11.564 9.949,11.193 10.248,11.005 10.607 L 10.904 10.800 8.959 10.800 L 7.013 10.800 7.013 11.140 C 7.013 12.024,6.784 12.632,6.250 13.166 C 5.766 13.650,5.148 13.903,4.453 13.901 C 3.979 13.900,3.630 13.814,3.234 13.600 C 2.594 13.255,2.138 12.659,1.955 11.929 C 1.884 11.647,1.891 11.017,1.969 10.720 C 2.103 10.212,2.445 9.682,2.844 9.365 C 3.091 9.168,3.502 8.960,3.800 8.879 C 3.917 8.847,4.016 8.819,4.019 8.816 C 4.022 8.813,3.965 8.579,3.893 8.295 C 3.820 8.012,3.760 7.776,3.760 7.770 C 3.760 7.750,3.689 7.764,3.479 7.826 " stroke="none" fill-rule="evenodd" fill="black"></path></svg>