<svg width="16" height="16" viewBox="0 0 16 16" fill="none" xmlns="http://www.w3.org/2000/svg">
<g clip-path="url(#clip0_412_50)">
<path d="M3.8335 14.1667L3.08505 14.215C3.11051 14.6096 3.43803 14.9167 3.8335 14.9167V14.1667ZM12.1668 14.1667V14.9167C12.5623 14.9167 12.8898 14.6096 12.9153 14.215L12.1668 14.1667ZM1.8335 3.08334C1.41928 3.08334 1.0835 3.41913 1.0835 3.83334C1.0835 4.24756 1.41928 4.58334 1.8335 4.58334V3.08334ZM14.1668 4.58334C14.581 4.58334 14.9168 4.24756 14.9168 3.83334C14.9168 3.41913 14.581 3.08334 14.1668 3.08334V4.58334ZM7.25016 7.16668C7.25016 6.75246 6.91438 6.41668 6.50016 6.41668C6.08595 6.41668 5.75016 6.75246 5.75016 7.16668H7.25016ZM5.75016 10.8333C5.75016 11.2476 6.08595 11.5833 6.50016 11.5833C6.91438 11.5833 7.25016 11.2476 7.25016 10.8333H5.75016ZM10.2502 7.16668C10.2502 6.75246 9.91438 6.41668 9.50016 6.41668C9.08595 6.41668 8.75016 6.75246 8.75016 7.16668H10.2502ZM8.75016 10.8333C8.75016 11.2476 9.08595 11.5833 9.50016 11.5833C9.91438 11.5833 10.2502 11.2476 10.2502 10.8333H8.75016ZM9.8565 4.02029C9.95975 4.42143 10.3686 4.66292 10.7698 4.55967C11.1709 4.45643 11.4124 4.04754 11.3092 3.6464L9.8565 4.02029ZM2.41839 3.88163L3.08505 14.215L4.58194 14.1184L3.91527 3.78506L2.41839 3.88163ZM3.8335 14.9167H12.1668V13.4167H3.8335V14.9167ZM12.9153 14.215L13.5819 3.88163L12.0851 3.78506L11.4184 14.1184L12.9153 14.215ZM12.8335 3.08334H3.16683V4.58334H12.8335V3.08334ZM1.8335 4.58334H3.16683V3.08334H1.8335V4.58334ZM12.8335 4.58334H14.1668V3.08334H12.8335V4.58334ZM5.75016 7.16668V10.8333H7.25016V7.16668H5.75016ZM8.75016 7.16668V10.8333H10.2502V7.16668H8.75016ZM8.00018 2.58334C8.89224 2.58334 9.64369 3.19345 9.8565 4.02029L11.3092 3.6464C10.9299 2.17293 9.59323 1.08334 8.00018 1.08334V2.58334ZM6.14385 4.02029C6.35666 3.19345 7.10811 2.58334 8.00018 2.58334V1.08334C6.40712 1.08334 5.07044 2.17293 4.69119 3.6464L6.14385 4.02029Z" fill="black"/>
</g>
<defs>
<clipPath id="clip0_412_50">
<rect width="16" height="16" fill="white"/>
</clipPath>
</defs>
</svg>
