<svg width="16" height="16" viewBox="0 0 16 16" fill="none" xmlns="http://www.w3.org/2000/svg"><path d="M7.654 1.243 C 7.366 1.320,7.097 1.519,6.923 1.783 C 6.678 2.156,1.188 11.560,1.126 11.714 C 1.047 11.910,1.021 12.219,1.065 12.433 C 1.167 12.921,1.573 13.322,2.077 13.428 C 2.341 13.484,13.659 13.484,13.923 13.428 C 14.427 13.322,14.833 12.921,14.935 12.433 C 14.979 12.218,14.953 11.910,14.873 11.713 C 14.811 11.559,9.322 2.157,9.075 1.781 C 8.896 1.509,8.598 1.299,8.290 1.228 C 8.124 1.190,7.825 1.197,7.654 1.243 M10.872 7.309 C 12.431 9.970,13.706 12.162,13.706 12.180 C 13.707 12.207,12.547 12.213,7.997 12.213 C 2.488 12.213,2.288 12.212,2.300 12.165 C 2.310 12.127,7.775 2.769,7.938 2.512 C 7.959 2.478,7.990 2.455,8.007 2.460 C 8.024 2.466,9.313 4.648,10.872 7.309 M7.747 5.439 C 7.541 5.538,7.430 5.683,7.389 5.905 C 7.350 6.119,7.350 8.282,7.389 8.494 C 7.423 8.675,7.509 8.810,7.665 8.922 C 7.764 8.994,7.792 9.000,8.000 9.000 C 8.208 9.000,8.236 8.994,8.335 8.922 C 8.491 8.810,8.577 8.675,8.611 8.494 C 8.650 8.282,8.650 6.119,8.611 5.905 C 8.554 5.592,8.312 5.388,8.000 5.388 C 7.910 5.388,7.812 5.408,7.747 5.439 M7.784 9.743 C 7.514 9.816,7.281 10.072,7.228 10.354 C 7.163 10.698,7.328 11.040,7.640 11.209 C 7.784 11.287,8.206 11.293,8.342 11.218 C 8.892 10.918,8.943 10.210,8.440 9.852 C 8.250 9.717,8.022 9.679,7.784 9.743 " stroke="none" fill-rule="evenodd" fill="black"></path></svg>