<svg width="16" height="16" viewBox="0 0 16 16" fill="none" xmlns="http://www.w3.org/2000/svg"><path d="M6.413 4.772 C 6.281 4.836,6.245 4.867,6.146 4.998 C 6.072 5.095,6.067 5.119,6.067 5.331 C 6.067 5.529,6.075 5.573,6.131 5.653 C 6.166 5.705,6.700 6.254,7.317 6.873 L 8.439 8.000 7.317 9.127 C 6.699 9.746,6.166 10.295,6.130 10.347 C 6.076 10.427,6.067 10.471,6.067 10.667 C 6.067 10.875,6.073 10.902,6.145 11.002 C 6.273 11.180,6.404 11.258,6.602 11.274 C 6.931 11.300,6.876 11.344,8.339 9.883 C 9.853 8.371,9.800 8.440,9.800 8.000 C 9.800 7.561,9.851 7.628,8.352 6.128 C 7.366 5.142,7.024 4.816,6.933 4.775 C 6.778 4.705,6.556 4.704,6.413 4.772 " stroke="none" fill-rule="evenodd" fill="black"></path></svg>