<svg width="16" height="16" viewBox="0 0 16 16" fill="none" xmlns="http://www.w3.org/2000/svg">
<g clip-path="url(#clip0_354_89)">
<path fill-rule="evenodd" clip-rule="evenodd" d="M10.9274 3.36007C10.5267 4.1103 10.2449 5.1522 10.2449 6.24288C10.2449 7.33356 10.5267 8.37546 10.9274 9.12569C11.1278 9.50097 11.3445 9.77813 11.5457 9.95295C11.6334 10.0292 11.7099 10.0792 11.7744 10.1115L11.7845 10.1136L12.0157 10.1612C12.0966 10.1472 12.2219 10.0965 12.3872 9.95295C12.5884 9.77813 12.8051 9.50097 13.0055 9.12569C13.4062 8.37546 13.6879 7.33356 13.6879 6.24288C13.6879 5.1522 13.4062 4.1103 13.0055 3.36007C12.8051 2.98479 12.5884 2.70763 12.3872 2.53281C12.2219 2.38922 12.0966 2.33858 12.0157 2.32455L11.7845 2.37221L11.7744 2.3743C11.7099 2.40657 11.6334 2.4566 11.5457 2.53281C11.3445 2.70763 11.1278 2.98479 10.9274 3.36007ZM8.84493 6.24288C8.84493 7.50258 9.15322 8.72289 9.63163 9.66824C9.19555 9.57779 8.72931 9.48091 8.25683 9.38248C6.26443 8.9674 4.19374 8.53124 3.77102 8.42557C3.52059 8.36296 3.1504 8.1329 2.83574 7.72288C2.53053 7.32517 2.32001 6.81131 2.32001 6.24288C2.32001 5.67445 2.53053 5.16059 2.83574 4.76288C3.1504 4.35286 3.52059 4.12281 3.77102 4.0602C4.19374 3.95452 6.26443 3.51836 8.25683 3.10328C8.72931 3.00485 9.19555 2.90798 9.63163 2.81752C9.15322 3.76288 8.84493 4.98318 8.84493 6.24288ZM10.6415 11.3071L11.3605 11.4555C11.5503 11.5251 11.753 11.5658 11.9664 11.5658C12.487 11.5658 12.9438 11.324 13.3054 11.0098C13.6697 10.6933 13.9841 10.2652 14.2404 9.78518C14.7534 8.8247 15.0879 7.55517 15.0879 6.24288C15.0879 4.93059 14.7534 3.66106 14.2404 2.70058C13.9841 2.22051 13.6697 1.79251 13.3054 1.476C12.9438 1.16178 12.487 0.919998 11.9664 0.919998C11.753 0.919998 11.5503 0.960632 11.3605 1.03023L10.6415 1.17871C9.92585 1.32666 8.96238 1.52623 7.97129 1.73271C6.00122 2.14314 3.88931 2.58754 3.43147 2.702C2.80136 2.85952 2.18093 3.31658 1.72511 3.91054C1.25984 4.5168 0.920013 5.32377 0.920013 6.24288C0.920013 7.162 1.25984 7.96897 1.72511 8.57522C1.99636 8.92868 2.32592 9.23366 2.68111 9.45589V12.6269C2.68111 13.9861 3.78298 15.088 5.14221 15.088H5.58249C6.94171 15.088 8.04358 13.9861 8.04358 12.6269V10.7681C9.00912 10.9692 9.94327 11.1627 10.6415 11.3071ZM6.64358 10.4757C5.63558 10.2644 4.69787 10.0659 4.08111 9.93108V12.6269C4.08111 13.2129 4.55618 13.688 5.14221 13.688H5.58249C6.16851 13.688 6.64358 13.2129 6.64358 12.6269V10.4757Z" fill="#0E1438"/>
</g>
<defs>
<clipPath id="clip0_354_89">
<rect width="16" height="16" fill="white"/>
</clipPath>
</defs>
</svg>
