<svg width="16" height="16" viewBox="0 0 16 16" fill="none" xmlns="http://www.w3.org/2000/svg">
<path fill-rule="evenodd" clip-rule="evenodd" d="M2.9 3.08281C2.9 2.4627 3.4027 1.96001 4.0228 1.96001H8.89119V5.4238C8.89119 5.83801 9.22698 6.1738 9.64119 6.1738H13.105V12.915C13.105 13.5351 12.6023 14.0378 11.9822 14.0378H4.0228C3.4027 14.0378 2.9 13.5351 2.9 12.915V3.08281ZM12.2784 4.6738L10.3912 2.78657V4.6738H12.2784ZM4.0228 0.460007C2.57427 0.460007 1.4 1.63427 1.4 3.08281V12.915C1.4 14.3635 2.57427 15.5378 4.0228 15.5378H11.9822C13.4307 15.5378 14.605 14.3635 14.605 12.915V5.1897C14.605 4.99079 14.526 4.80002 14.3853 4.65937L10.4056 0.679677C10.265 0.539024 10.0742 0.460007 9.87529 0.460007H4.0228ZM5.1456 11.0422C5.1456 10.628 5.48138 10.2922 5.8956 10.2922H10.1094C10.5236 10.2922 10.8594 10.628 10.8594 11.0422C10.8594 11.4564 10.5236 11.7922 10.1094 11.7922H5.8956C5.48138 11.7922 5.1456 11.4564 5.1456 11.0422ZM5.8956 7.483C5.48138 7.483 5.1456 7.81879 5.1456 8.233C5.1456 8.64721 5.48138 8.983 5.8956 8.983H10.1094C10.5236 8.983 10.8594 8.64721 10.8594 8.233C10.8594 7.81879 10.5236 7.483 10.1094 7.483H5.8956Z" fill="#2D2D2D"/>
</svg>
