<svg width="16" height="16" viewBox="0 0 16 16" fill="none" xmlns="http://www.w3.org/2000/svg"><path d="M2.307 2.757 C 1.892 2.889,1.557 3.217,1.433 3.610 L 1.373 3.800 1.373 8.000 L 1.373 12.200 1.434 12.392 C 1.552 12.768,1.899 13.115,2.274 13.233 L 2.467 13.293 8.000 13.293 L 13.533 13.293 13.726 13.233 C 14.101 13.115,14.448 12.768,14.566 12.392 L 14.627 12.200 14.627 8.000 L 14.627 3.800 14.567 3.610 C 14.459 3.268,14.206 2.989,13.852 2.821 L 13.667 2.733 8.040 2.728 C 3.547 2.724,2.392 2.730,2.307 2.757 M13.353 8.007 L 13.347 12.040 8.000 12.040 L 2.653 12.040 2.647 8.007 L 2.640 3.973 8.000 3.973 L 13.360 3.973 13.353 8.007 M8.973 6.090 C 8.557 6.225,8.223 6.550,8.100 6.943 C 8.043 7.124,8.040 7.176,8.040 8.000 C 8.040 8.827,8.043 8.876,8.101 9.059 C 8.219 9.435,8.565 9.781,8.941 9.899 C 9.124 9.957,9.173 9.960,10.000 9.960 C 10.827 9.960,10.876 9.957,11.059 9.899 C 11.435 9.781,11.781 9.435,11.899 9.059 C 11.957 8.876,11.960 8.827,11.960 8.000 C 11.960 7.176,11.957 7.124,11.900 6.943 C 11.793 6.602,11.540 6.322,11.185 6.154 L 11.000 6.067 10.040 6.061 C 9.315 6.057,9.054 6.064,8.973 6.090 M4.413 6.264 C 4.004 6.454,3.921 7.025,4.262 7.307 C 4.435 7.450,4.546 7.467,5.333 7.467 C 6.120 7.467,6.232 7.450,6.404 7.307 C 6.746 7.025,6.663 6.454,6.253 6.264 C 6.157 6.219,6.070 6.215,5.333 6.215 C 4.597 6.215,4.510 6.219,4.413 6.264 M10.687 8.007 L 10.680 8.707 10.000 8.707 L 9.320 8.707 9.313 8.007 L 9.306 7.307 10.000 7.307 L 10.694 7.307 10.687 8.007 M4.538 8.561 C 4.242 8.622,4.050 8.859,4.050 9.163 C 4.050 9.409,4.192 9.633,4.413 9.736 C 4.510 9.781,4.597 9.785,5.333 9.785 C 6.241 9.785,6.271 9.780,6.445 9.597 C 6.685 9.344,6.672 8.917,6.418 8.703 C 6.240 8.553,6.208 8.548,5.400 8.542 C 4.989 8.539,4.602 8.548,4.538 8.561 " stroke="none" fill-rule="evenodd" fill="black"></path></svg>