<svg width="16" height="16" viewBox="0 0 16 16" fill="none" xmlns="http://www.w3.org/2000/svg"><path d="M6.960 1.895 C 5.285 2.000,3.735 2.899,2.782 4.320 C 2.129 5.294,1.795 6.564,1.889 7.716 C 2.029 9.444,2.896 10.930,4.320 11.885 C 5.294 12.538,6.564 12.872,7.716 12.778 C 8.815 12.689,9.746 12.339,10.634 11.681 L 10.721 11.616 11.940 12.832 C 13.138 14.027,13.163 14.049,13.314 14.093 C 13.660 14.193,13.991 14.015,14.092 13.676 C 14.143 13.503,14.143 13.483,14.091 13.305 C 14.050 13.166,13.997 13.109,12.832 11.940 L 11.616 10.721 11.681 10.634 C 11.987 10.220,12.178 9.888,12.361 9.453 C 12.936 8.079,12.936 6.588,12.361 5.214 C 12.081 4.546,11.714 4.003,11.188 3.479 C 10.056 2.350,8.573 1.795,6.960 1.895 M7.643 3.146 C 8.676 3.227,9.580 3.640,10.303 4.363 C 11.025 5.085,11.442 5.994,11.519 7.017 C 11.694 9.325,10.001 11.311,7.675 11.523 C 5.936 11.682,4.231 10.679,3.509 9.071 C 3.213 8.413,3.093 7.730,3.148 7.020 C 3.191 6.449,3.272 6.134,3.510 5.596 C 4.081 4.307,5.339 3.362,6.733 3.175 C 6.851 3.159,7.013 3.143,7.093 3.138 C 7.174 3.134,7.258 3.128,7.280 3.126 C 7.302 3.123,7.466 3.133,7.643 3.146 " stroke="none" fill-rule="evenodd" fill="black"></path></svg>