<svg width="16" height="16" viewBox="0 0 16 16" fill="none" xmlns="http://www.w3.org/2000/svg"><path d="M7.569 1.229 C 5.699 1.337,3.892 2.271,2.715 3.738 C 1.488 5.267,0.973 7.242,1.305 9.147 C 1.658 11.170,2.895 12.919,4.688 13.931 C 6.008 14.676,7.646 14.957,9.147 14.695 C 11.546 14.276,13.536 12.620,14.373 10.345 C 15.124 8.305,14.854 6.032,13.645 4.227 C 13.295 3.703,12.759 3.114,12.287 2.734 C 11.220 1.874,9.818 1.312,8.560 1.240 C 8.025 1.209,7.923 1.208,7.569 1.229 M8.826 2.523 C 11.211 2.870,13.106 4.769,13.481 7.188 C 13.543 7.587,13.543 8.413,13.481 8.812 C 13.179 10.761,11.898 12.393,10.091 13.130 C 8.067 13.956,5.758 13.519,4.189 12.014 C 3.275 11.137,2.711 10.056,2.519 8.812 C 2.487 8.612,2.473 8.357,2.473 8.000 C 2.473 7.422,2.513 7.094,2.642 6.592 C 3.220 4.351,5.214 2.672,7.526 2.480 C 7.874 2.451,8.466 2.471,8.826 2.523 M7.691 4.224 C 7.400 4.359,7.243 4.604,7.244 4.920 C 7.244 5.150,7.290 5.263,7.455 5.439 C 7.822 5.831,8.458 5.724,8.698 5.230 C 8.779 5.065,8.780 4.785,8.702 4.611 C 8.531 4.232,8.060 4.052,7.691 4.224 M6.907 6.767 C 6.643 6.897,6.498 7.186,6.559 7.459 C 6.624 7.750,6.843 7.929,7.174 7.962 L 7.358 7.980 7.365 9.477 L 7.373 10.973 7.436 11.100 C 7.516 11.262,7.655 11.377,7.838 11.431 C 8.117 11.513,8.420 11.377,8.559 11.107 L 8.627 10.975 8.635 9.201 C 8.643 7.281,8.636 7.151,8.512 6.987 C 8.422 6.867,8.384 6.835,8.253 6.772 C 8.158 6.727,8.084 6.721,7.573 6.721 C 7.085 6.721,6.986 6.728,6.907 6.767 " stroke="none" fill-rule="evenodd" fill="black"></path></svg>