<svg width="16" height="16" viewBox="0 0 16 16" fill="none" xmlns="http://www.w3.org/2000/svg"><path d="M7.723 3.095 C 7.544 3.140,7.309 3.284,7.179 3.428 C 7.095 3.520,6.307 4.842,4.808 7.403 C 3.573 9.513,2.529 11.312,2.488 11.400 C 2.422 11.542,2.414 11.590,2.414 11.827 C 2.415 12.069,2.423 12.110,2.499 12.273 C 2.599 12.486,2.801 12.710,2.986 12.810 C 3.270 12.965,3.079 12.959,8.000 12.959 C 12.921 12.959,12.730 12.965,13.014 12.810 C 13.506 12.543,13.733 11.889,13.507 11.394 C 13.469 11.309,12.427 9.513,11.192 7.403 C 9.650 4.768,8.906 3.521,8.818 3.423 C 8.729 3.326,8.627 3.250,8.492 3.184 C 8.320 3.099,8.268 3.086,8.062 3.078 C 7.932 3.073,7.780 3.080,7.723 3.095 M10.160 8.017 C 11.341 10.035,12.311 11.703,12.315 11.723 C 12.323 11.754,11.673 11.760,8.000 11.760 C 4.331 11.760,3.677 11.754,3.685 11.723 C 3.696 11.674,7.983 4.349,8.000 4.349 C 8.007 4.349,8.979 6.000,10.160 8.017 M7.747 6.418 C 7.629 6.479,7.523 6.586,7.458 6.707 C 7.401 6.811,7.400 6.838,7.400 7.880 C 7.400 9.047,7.403 9.072,7.556 9.246 C 7.783 9.505,8.217 9.505,8.444 9.246 C 8.597 9.072,8.600 9.047,8.600 7.880 C 8.600 6.890,8.596 6.807,8.550 6.720 C 8.481 6.590,8.377 6.484,8.261 6.424 C 8.137 6.360,7.862 6.357,7.747 6.418 M7.707 9.842 C 7.130 10.103,7.136 10.918,7.717 11.175 C 8.189 11.383,8.719 11.030,8.719 10.507 C 8.719 10.092,8.415 9.788,8.000 9.788 C 7.883 9.788,7.788 9.805,7.707 9.842 " stroke="none" fill-rule="evenodd" fill="black"></path></svg>