<svg width="16" height="16" viewBox="0 0 16 16" fill="none" xmlns="http://www.w3.org/2000/svg"><path d="M10.147 1.219 C 8.529 1.280,7.071 2.230,6.335 3.702 C 5.984 4.405,5.819 5.286,5.893 6.068 L 5.926 6.407 4.005 8.330 C 2.452 9.886,2.072 10.281,2.014 10.397 C 1.881 10.662,1.868 10.804,1.868 11.907 C 1.868 13.011,1.881 13.153,2.015 13.416 C 2.112 13.609,2.368 13.869,2.561 13.972 C 2.836 14.119,2.969 14.132,4.093 14.132 C 5.560 14.132,5.502 14.151,6.231 13.428 C 6.831 12.832,6.800 12.907,6.800 12.062 L 6.800 11.467 7.395 11.467 C 8.256 11.467,8.138 11.523,8.937 10.728 L 9.594 10.074 9.922 10.106 C 10.551 10.166,11.270 10.070,11.889 9.842 C 13.083 9.401,14.068 8.416,14.508 7.222 C 14.696 6.712,14.781 6.230,14.781 5.667 C 14.781 5.231,14.751 4.979,14.651 4.582 C 14.450 3.778,14.070 3.111,13.475 2.516 C 12.593 1.634,11.407 1.172,10.147 1.219 M10.627 2.481 C 10.788 2.496,11.010 2.532,11.120 2.561 C 12.651 2.956,13.666 4.395,13.519 5.959 C 13.476 6.418,13.378 6.749,13.165 7.159 C 12.518 8.405,11.111 9.080,9.719 8.814 C 9.448 8.762,9.286 8.763,9.157 8.816 C 9.086 8.845,8.837 9.073,8.373 9.535 L 7.693 10.211 6.827 10.219 L 5.960 10.227 5.851 10.298 C 5.708 10.391,5.609 10.512,5.575 10.634 C 5.558 10.692,5.547 11.070,5.547 11.547 L 5.547 12.361 5.286 12.621 L 5.025 12.881 4.079 12.874 L 3.133 12.867 3.126 11.921 L 3.119 10.975 5.131 8.961 C 6.628 7.461,7.154 6.919,7.186 6.840 C 7.235 6.721,7.242 6.488,7.201 6.348 C 7.104 6.018,7.116 5.310,7.227 4.881 C 7.454 4.002,8.051 3.246,8.841 2.835 C 9.302 2.595,9.671 2.498,10.280 2.457 C 10.309 2.455,10.465 2.466,10.627 2.481 M10.084 3.921 C 9.686 3.975,9.383 4.131,9.080 4.437 C 8.724 4.798,8.575 5.160,8.575 5.667 C 8.575 6.173,8.724 6.536,9.080 6.896 C 9.447 7.268,9.820 7.425,10.333 7.425 C 10.838 7.425,11.217 7.268,11.576 6.909 C 11.934 6.550,12.092 6.171,12.092 5.667 C 12.092 5.154,11.935 4.781,11.563 4.413 C 11.164 4.019,10.642 3.845,10.084 3.921 M10.573 5.154 C 10.656 5.194,10.800 5.338,10.846 5.425 C 10.899 5.528,10.899 5.805,10.846 5.909 C 10.740 6.113,10.559 6.224,10.333 6.224 C 10.108 6.224,9.926 6.113,9.821 5.909 C 9.767 5.805,9.768 5.528,9.822 5.423 C 9.875 5.320,10.060 5.152,10.139 5.135 C 10.173 5.128,10.224 5.117,10.253 5.111 C 10.324 5.097,10.507 5.121,10.573 5.154 " stroke="none" fill-rule="evenodd" fill="black"></path></svg>