<svg width="16" height="16" viewBox="0 0 16 16" fill="none" xmlns="http://www.w3.org/2000/svg">
<path fill-rule="evenodd" clip-rule="evenodd" d="M10.2603 4.20041C9.95681 3.91856 9.48226 3.93613 9.20041 4.23966C8.91855 4.5432 8.93613 5.01775 9.23966 5.2996L11.3401 7.25H2.75C2.33579 7.25 2 7.58579 2 8C2 8.41422 2.33579 8.75 2.75 8.75H11.3401L9.23966 10.7004C8.93613 10.9823 8.91855 11.4568 9.20041 11.7603C9.48226 12.0639 9.95681 12.0815 10.2603 11.7996L13.7585 8.55131C13.907 8.41428 14 8.218 14 8C14 7.78205 13.907 7.5858 13.7586 7.44877L10.2603 4.20041Z" fill="black"/>
</svg>
