<svg width="17" height="17" viewBox="0 0 17 17" fill="none" xmlns="http://www.w3.org/2000/svg">
<path d="M5.11934 4.93184H5.12762M5.11934 11.5525H5.12762M11.74 4.93184H11.7483M11.74 11.5525H11.7483M9.46417 8.24219C9.46417 8.51655 9.35518 8.77967 9.16118 8.97368C8.96717 9.16768 8.70405 9.27667 8.42969 9.27667C8.15533 9.27667 7.8922 9.16768 7.6982 8.97368C7.50419 8.77967 7.3952 8.51655 7.3952 8.24219C7.3952 7.96783 7.50419 7.7047 7.6982 7.5107C7.8922 7.31669 8.15533 7.2077 8.42969 7.2077C8.70405 7.2077 8.96717 7.31669 9.16118 7.5107C9.35518 7.7047 9.46417 7.96783 9.46417 8.24219ZM9.46417 3.27667C9.46417 3.55103 9.35518 3.81416 9.16118 4.00816C8.96717 4.20216 8.70405 4.31115 8.42969 4.31115C8.15533 4.31115 7.8922 4.20216 7.6982 4.00816C7.50419 3.81416 7.3952 3.55103 7.3952 3.27667C7.3952 3.00231 7.50419 2.73918 7.6982 2.54518C7.8922 2.35118 8.15533 2.24219 8.42969 2.24219C8.70405 2.24219 8.96717 2.35118 9.16118 2.54518C9.35518 2.73918 9.46417 3.00231 9.46417 3.27667ZM14.4297 8.24219C14.4297 8.51655 14.3207 8.77967 14.1267 8.97368C13.9327 9.16768 13.6696 9.27667 13.3952 9.27667C13.1208 9.27667 12.8577 9.16768 12.6637 8.97368C12.4697 8.77967 12.3607 8.51655 12.3607 8.24219C12.3607 7.96783 12.4697 7.7047 12.6637 7.5107C12.8577 7.31669 13.1208 7.2077 13.3952 7.2077C13.6696 7.2077 13.9327 7.31669 14.1267 7.5107C14.3207 7.7047 14.4297 7.96783 14.4297 8.24219ZM4.49865 8.24219C4.49865 8.51655 4.38966 8.77967 4.19566 8.97368C4.00166 9.16768 3.73853 9.27667 3.46417 9.27667C3.18981 9.27667 2.92668 9.16768 2.73268 8.97368C2.53868 8.77967 2.42969 8.51655 2.42969 8.24219C2.42969 7.96783 2.53868 7.7047 2.73268 7.5107C2.92668 7.31669 3.18981 7.2077 3.46417 7.2077C3.73853 7.2077 4.00166 7.31669 4.19566 7.5107C4.38966 7.7047 4.49865 7.96783 4.49865 8.24219ZM9.46417 13.2077C9.46417 13.4821 9.35518 13.7452 9.16118 13.9392C8.96717 14.1332 8.70405 14.2422 8.42969 14.2422C8.15533 14.2422 7.8922 14.1332 7.6982 13.9392C7.50419 13.7452 7.3952 13.4821 7.3952 13.2077C7.3952 12.9333 7.50419 12.6702 7.6982 12.4762C7.8922 12.2822 8.15533 12.1732 8.42969 12.1732C8.70405 12.1732 8.96717 12.2822 9.16118 12.4762C9.35518 12.6702 9.46417 12.9333 9.46417 13.2077Z" stroke="black" stroke-width="1.3" stroke-linecap="round" stroke-linejoin="round"/>
</svg>
