<svg width="16" height="16" viewBox="0 0 16 16" fill="none" xmlns="http://www.w3.org/2000/svg"><path d="M5.277 1.053 C 5.189 1.101,5.136 1.228,5.154 1.344 C 5.163 1.398,5.303 1.635,5.503 1.934 L 5.836 2.434 5.605 2.579 C 5.247 2.804,5.102 2.919,4.812 3.212 C 4.520 3.506,4.246 3.890,4.095 4.218 C 4.000 4.423,3.867 4.804,3.867 4.870 C 3.867 4.901,4.515 4.907,8.000 4.907 C 10.588 4.907,12.133 4.897,12.133 4.881 C 12.133 4.815,11.983 4.390,11.893 4.200 C 11.584 3.554,11.025 2.950,10.387 2.574 C 10.299 2.522,10.210 2.469,10.190 2.456 C 10.161 2.438,10.220 2.333,10.459 1.983 C 10.874 1.374,10.900 1.315,10.824 1.165 C 10.742 1.006,10.505 0.958,10.370 1.073 C 10.331 1.106,10.141 1.369,9.946 1.658 L 9.593 2.182 9.491 2.146 C 9.321 2.086,8.852 1.978,8.627 1.947 C 8.311 1.904,7.629 1.911,7.295 1.960 C 7.136 1.984,6.871 2.042,6.704 2.090 L 6.401 2.177 6.028 1.626 C 5.791 1.277,5.629 1.064,5.586 1.045 C 5.495 1.003,5.363 1.007,5.277 1.053 M6.612 3.492 C 6.710 3.562,6.799 3.732,6.799 3.854 C 6.800 3.961,6.698 4.157,6.608 4.223 C 6.505 4.298,6.275 4.312,6.148 4.252 C 5.839 4.106,5.828 3.629,6.129 3.466 C 6.263 3.393,6.490 3.405,6.612 3.492 M9.871 3.472 C 10.019 3.556,10.084 3.672,10.084 3.855 C 10.084 4.129,9.885 4.310,9.610 4.287 C 9.440 4.273,9.346 4.213,9.260 4.064 C 9.134 3.842,9.236 3.535,9.467 3.443 C 9.584 3.397,9.759 3.409,9.871 3.472 M2.760 5.520 C 2.480 5.560,2.196 5.778,2.071 6.049 C 2.014 6.173,2.013 6.181,2.006 8.451 C 2.000 10.519,2.003 10.742,2.043 10.865 C 2.170 11.251,2.498 11.493,2.893 11.493 C 2.986 11.493,3.094 11.482,3.132 11.467 L 3.200 11.441 3.200 8.495 L 3.200 5.549 3.100 5.533 C 3.045 5.524,2.976 5.513,2.947 5.509 C 2.917 5.505,2.833 5.510,2.760 5.520 M3.799 5.527 C 3.791 5.546,3.789 7.073,3.793 8.921 C 3.799 12.017,3.804 12.289,3.846 12.394 C 3.951 12.657,4.143 12.849,4.406 12.954 C 4.512 12.997,4.778 13.000,7.987 13.000 C 10.819 13.000,11.473 12.993,11.560 12.964 C 11.824 12.875,12.075 12.624,12.164 12.360 C 12.193 12.273,12.200 11.634,12.200 8.880 L 12.200 5.507 8.006 5.500 C 4.613 5.494,3.809 5.500,3.799 5.527 M13.040 5.510 C 13.018 5.514,12.955 5.524,12.900 5.533 L 12.800 5.549 12.800 8.495 L 12.800 11.441 12.873 11.470 C 12.989 11.515,13.332 11.485,13.471 11.418 C 13.666 11.323,13.803 11.187,13.899 10.993 L 13.987 10.814 13.987 8.494 L 13.987 6.173 13.928 6.046 C 13.840 5.860,13.652 5.672,13.473 5.593 C 13.333 5.531,13.139 5.494,13.040 5.510 M4.992 14.313 C 5.003 15.000,5.006 15.033,5.071 15.206 C 5.380 16.020,6.417 16.261,7.026 15.661 C 7.187 15.502,7.262 15.383,7.337 15.169 C 7.391 15.015,7.397 14.937,7.408 14.300 L 7.419 13.600 6.200 13.600 L 4.982 13.600 4.992 14.313 M8.592 14.313 C 8.603 15.001,8.606 15.033,8.672 15.207 C 8.984 16.030,10.014 16.261,10.637 15.648 C 10.816 15.472,10.949 15.204,10.986 14.947 C 11.000 14.844,11.013 14.499,11.013 14.180 L 11.013 13.600 9.797 13.600 L 8.582 13.600 8.592 14.313 " stroke="none" fill-rule="evenodd"></path></svg>