<svg width="16" height="16" viewBox="0 0 16 16" fill="none" xmlns="http://www.w3.org/2000/svg"><path d="M3.049 2.563 C 2.676 2.631,2.467 2.980,2.573 3.352 C 2.617 3.506,2.627 3.517,4.862 5.753 L 7.106 8.000 4.862 10.247 C 2.627 12.483,2.617 12.494,2.573 12.648 C 2.432 13.140,2.860 13.568,3.352 13.427 C 3.506 13.383,3.517 13.373,5.753 11.138 L 8.000 8.894 10.247 11.138 C 12.430 13.319,12.497 13.383,12.638 13.424 C 12.817 13.477,12.837 13.477,13.009 13.426 C 13.344 13.326,13.525 12.990,13.427 12.649 C 13.383 12.494,13.379 12.489,11.138 10.247 L 8.894 8.000 11.138 5.753 C 13.319 3.570,13.383 3.503,13.424 3.362 C 13.477 3.183,13.477 3.163,13.426 2.991 C 13.345 2.719,13.119 2.555,12.826 2.555 C 12.737 2.555,12.630 2.574,12.570 2.602 C 12.500 2.633,11.744 3.370,10.233 4.877 L 8.000 7.106 5.767 4.877 C 4.352 3.465,3.499 2.633,3.440 2.608 C 3.315 2.553,3.183 2.538,3.049 2.563 " stroke="none" fill-rule="evenodd" fill="black"></path></svg>