<svg width="16" height="16" viewBox="0 0 16 16" fill="none" xmlns="http://www.w3.org/2000/svg">
<path d="M14.25 14.25V8.00007C14.25 5.76645 13.0375 3.65548 11.2353 2.61209M1.7605 10.3707V14.25" stroke="black" stroke-width="1.4" stroke-linecap="round" stroke-linejoin="round"/>
<path d="M1.7605 8.21552C1.54517 4.12069 4.67529 1.75 8.00525 1.75" stroke="black" stroke-width="1.4" stroke-linecap="round" stroke-linejoin="round"/>
<path d="M8.00525 5.19827C9.55127 5.19827 10.8046 6.27586 10.8046 8.21551" stroke="black" stroke-width="1.4" stroke-linecap="round" stroke-linejoin="round"/>
<path d="M10.8046 10.3707V11.6638" stroke="black" stroke-width="1.4" stroke-linecap="round" stroke-linejoin="round"/>
<path d="M5.20589 11.2328V12.5259C5.20589 13.6035 4.34454 14.25 4.34454 14.25" stroke="black" stroke-width="1.4" stroke-linecap="round" stroke-linejoin="round"/>
<path d="M7.78992 8.64658V11.6638C7.78992 13.1724 8.47899 14.25 10.3739 14.25" stroke="black" stroke-width="1.4" stroke-linecap="round" stroke-linejoin="round"/>
<path d="M5.52122 6.70691C5.31976 7.09381 5.20587 7.53355 5.20587 8.00001V9.0776" stroke="black" stroke-width="1.4" stroke-linecap="round" stroke-linejoin="round"/>
</svg>
