<svg width="16" height="16" viewBox="0 0 16 16" fill="none" xmlns="http://www.w3.org/2000/svg"><path d="M5.213 2.104 C 5.082 2.165,4.949 2.301,4.895 2.432 C 4.837 2.570,4.843 2.788,4.909 2.933 C 4.950 3.026,5.519 3.610,7.434 5.527 L 9.906 8.000 7.434 10.473 C 5.519 12.390,4.950 12.974,4.909 13.067 C 4.719 13.487,5.015 13.944,5.476 13.946 C 5.565 13.946,5.674 13.928,5.729 13.903 C 5.859 13.844,10.790 8.926,10.935 8.711 C 11.219 8.288,11.219 7.711,10.934 7.289 C 10.871 7.196,9.837 6.142,8.341 4.648 C 6.412 2.720,5.826 2.150,5.733 2.108 C 5.580 2.040,5.356 2.038,5.213 2.104 " stroke="none" fill-rule="evenodd" fill="black"></path></svg>