<svg width="16" height="16" viewBox="0 0 16 16" fill="none" xmlns="http://www.w3.org/2000/svg">
<g clip-path="url(#clip0_1692_32)">
<path d="M5 3.83332C5 3.18899 5.52233 2.66666 6.16667 2.66666C6.811 2.66666 7.33333 3.18899 7.33333 3.83332C7.33333 4.47766 6.811 4.99999 6.16667 4.99999C5.52233 4.99999 5 4.47766 5 3.83332Z" fill="black"/>
<path d="M8.6665 3.83332C8.6665 3.18899 9.18884 2.66666 9.83317 2.66666C10.4775 2.66666 10.9998 3.18899 10.9998 3.83332C10.9998 4.47766 10.4775 4.99999 9.83317 4.99999C9.18884 4.99999 8.6665 4.47766 8.6665 3.83332Z" fill="black"/>
<path d="M5 12.1667C5 11.5223 5.52233 11 6.16667 11C6.811 11 7.33333 11.5223 7.33333 12.1667C7.33333 12.811 6.811 13.3333 6.16667 13.3333C5.52233 13.3333 5 12.811 5 12.1667Z" fill="black"/>
<path d="M8.6665 12.1667C8.6665 11.5223 9.18884 11 9.83317 11C10.4775 11 10.9998 11.5223 10.9998 12.1667C10.9998 12.811 10.4775 13.3333 9.83317 13.3333C9.18884 13.3333 8.6665 12.811 8.6665 12.1667Z" fill="black"/>
<path d="M5 7.93333C5 7.289 5.52233 6.76666 6.16667 6.76666C6.811 6.76666 7.33333 7.289 7.33333 7.93333V8C7.33333 8.64433 6.811 9.16666 6.16667 9.16666C5.52233 9.16666 5 8.64433 5 8V7.93333Z" fill="black"/>
<path d="M8.6665 7.93333C8.6665 7.289 9.18884 6.76666 9.83317 6.76666C10.4775 6.76666 10.9998 7.289 10.9998 7.93333V8C10.9998 8.64433 10.4775 9.16666 9.83317 9.16666C9.18884 9.16666 8.6665 8.64433 8.6665 8V7.93333Z" fill="black"/>
</g>
<defs>
<clipPath id="clip0_1692_32">
<rect width="16" height="16" fill="white"/>
</clipPath>
</defs>
</svg>
