<svg width="16" height="16" viewBox="0 0 16 16" fill="none" xmlns="http://www.w3.org/2000/svg">
<g clip-path="url(#clip0_338_159)">
<path d="M8.00004 6V8.4M8.00004 10.5V10.4933M7.42477 2.14876L1.75453 11.8297C1.49422 12.2741 1.81473 12.8333 2.32978 12.8333H13.6703C14.1854 12.8333 14.5058 12.2741 14.2456 11.8297L8.57531 2.14876C8.31777 1.70912 7.68231 1.70912 7.42477 2.14876ZM8.16671 10.5C8.16671 10.592 8.09211 10.6666 8.00004 10.6666C7.90797 10.6666 7.83337 10.592 7.83337 10.5C7.83337 10.4079 7.90797 10.3333 8.00004 10.3333C8.09211 10.3333 8.16671 10.4079 8.16671 10.5Z" stroke="black" stroke-width="1.5" stroke-linecap="round"/>
</g>
<defs>
<clipPath id="clip0_338_159">
<rect width="16" height="16" fill="white"/>
</clipPath>
</defs>
</svg>
