<svg width="16" height="16" viewBox="0 0 16 16" fill="none" xmlns="http://www.w3.org/2000/svg"><path d="M7.869 1.229 C 7.617 1.278,7.435 1.472,7.385 1.744 C 7.367 1.841,7.359 2.224,7.365 2.770 C 7.373 3.620,7.375 3.643,7.436 3.767 C 7.516 3.929,7.655 4.044,7.838 4.097 C 8.117 4.179,8.420 4.043,8.559 3.774 C 8.624 3.646,8.627 3.621,8.636 3.074 L 8.645 2.507 8.708 2.507 C 8.742 2.507,8.897 2.531,9.051 2.561 C 11.352 3.005,13.119 4.850,13.481 7.188 C 13.543 7.587,13.543 8.413,13.481 8.812 C 13.237 10.386,12.374 11.738,11.040 12.632 C 10.029 13.310,8.704 13.641,7.489 13.519 C 5.640 13.333,4.062 12.300,3.153 10.680 C 2.332 9.217,2.238 7.355,2.909 5.827 C 3.030 5.551,3.049 5.483,3.050 5.333 C 3.053 4.971,2.801 4.720,2.436 4.720 C 2.132 4.720,1.963 4.862,1.783 5.267 C 0.850 7.368,1.067 9.849,2.355 11.773 C 3.028 12.780,4.047 13.658,5.115 14.151 C 7.294 15.157,9.798 14.967,11.773 13.645 C 12.960 12.851,13.880 11.683,14.373 10.345 C 15.124 8.305,14.854 6.032,13.645 4.227 C 13.295 3.703,12.759 3.114,12.287 2.734 C 11.212 1.867,9.804 1.306,8.543 1.240 C 8.384 1.232,8.193 1.221,8.120 1.216 C 8.047 1.211,7.934 1.217,7.869 1.229 M3.500 3.065 C 3.131 3.158,2.936 3.609,3.112 3.959 C 3.134 4.004,3.764 4.653,4.510 5.401 L 5.868 6.763 5.775 6.964 C 5.601 7.340,5.561 7.535,5.561 8.000 C 5.561 8.492,5.605 8.686,5.814 9.107 C 6.120 9.723,6.683 10.182,7.373 10.378 C 7.554 10.430,7.650 10.439,8.000 10.439 C 8.492 10.439,8.686 10.395,9.107 10.186 C 9.723 9.880,10.182 9.317,10.378 8.627 C 10.430 8.446,10.439 8.350,10.439 8.000 C 10.439 7.650,10.430 7.554,10.378 7.373 C 10.181 6.680,9.714 6.114,9.080 5.800 C 8.697 5.610,8.488 5.564,8.000 5.564 C 7.531 5.564,7.333 5.604,6.969 5.773 L 6.763 5.868 5.401 4.510 C 4.653 3.764,4.002 3.133,3.956 3.110 C 3.853 3.058,3.617 3.035,3.500 3.065 M8.515 6.915 C 8.770 7.041,8.960 7.231,9.088 7.490 C 9.185 7.687,9.187 7.697,9.187 8.000 C 9.187 8.303,9.185 8.314,9.088 8.509 C 8.867 8.956,8.483 9.200,8.000 9.200 C 7.517 9.200,7.133 8.956,6.912 8.509 C 6.815 8.314,6.813 8.303,6.813 8.000 C 6.813 7.697,6.815 7.687,6.912 7.490 C 7.031 7.251,7.217 7.054,7.437 6.937 C 7.652 6.823,7.759 6.801,8.060 6.810 C 8.296 6.818,8.338 6.827,8.515 6.915 " stroke="none" fill-rule="evenodd" fill="black"></path></svg>