<svg width="16" height="16" viewBox="0 0 16 16" fill="none" xmlns="http://www.w3.org/2000/svg">
<path fill-rule="evenodd" clip-rule="evenodd" d="M3.6 8C3.6 8.76215 2.98215 9.38 2.22 9.38C1.45784 9.38 0.839996 8.76215 0.839996 8C0.839996 7.23784 1.45784 6.62 2.22 6.62C2.98215 6.62 3.6 7.23784 3.6 8ZM9.37504 8C9.37504 8.76215 8.75719 9.38 7.99504 9.38C7.23289 9.38 6.61504 8.76215 6.61504 8C6.61504 7.23784 7.23289 6.62 7.99504 6.62C8.75719 6.62 9.37504 7.23784 9.37504 8ZM13.7701 9.38C14.5322 9.38 15.1501 8.76215 15.1501 8C15.1501 7.23784 14.5322 6.62 13.7701 6.62C13.0079 6.62 12.3901 7.23784 12.3901 8C12.3901 8.76215 13.0079 9.38 13.7701 9.38Z" fill="black"/>
</svg>
