<svg width="16" height="16" viewBox="0 0 16 16" fill="none" xmlns="http://www.w3.org/2000/svg">
<g clip-path="url(#clip0_1564_3641)">
<path d="M5.66504 5.66504C5.57116 5.7589 5.49669 5.87033 5.44588 5.99297C5.39508 6.11562 5.36893 6.24707 5.36893 6.37982C5.36893 6.51257 5.39508 6.64402 5.44588 6.76666C5.49669 6.8893 5.57116 7.00074 5.66504 7.0946L7.09843 8.52799L8.52798 7.09843L7.09459 5.66504C7.00073 5.57116 6.8893 5.49669 6.76666 5.44589C6.64402 5.39508 6.51257 5.36893 6.37982 5.36893C6.24707 5.36893 6.11562 5.39508 5.99297 5.44589C5.87033 5.49669 5.7589 5.57116 5.66504 5.66504Z" fill="black"/>
<path d="M1.5 6.10014H3.03338H1.5ZM2.84746 2.84746L3.93168 3.93168L2.84746 2.84746ZM6.10013 1.5V3.03338V1.5ZM9.35281 2.84746L8.26859 3.93168L9.35281 2.84746ZM3.93168 8.26859L2.84746 9.35282L3.93168 8.26859Z" fill="black"/>
<path d="M1.5 6.10014H3.03338M2.84746 2.84746L3.93168 3.93168M6.10013 1.5V3.03338M9.35281 2.84746L8.26859 3.93168M3.93168 8.26859L2.84746 9.35282M5.66208 5.66214C6.05524 5.26898 6.69274 5.26903 7.08596 5.66226L14.205 12.7813C14.5983 13.1746 14.5983 13.8121 14.2052 14.2052C13.812 14.5984 13.1745 14.5983 12.7813 14.2051L5.66219 7.08603C5.26897 6.6928 5.26892 6.05531 5.66208 5.66214ZM5.66504 5.66504C5.57116 5.7589 5.49669 5.87033 5.44588 5.99297C5.39508 6.11562 5.36893 6.24707 5.36893 6.37982C5.36893 6.51257 5.39508 6.64402 5.44588 6.76666C5.49669 6.8893 5.57116 7.00074 5.66504 7.0946L7.09843 8.52799L8.52798 7.09843L7.09459 5.66504C7.00073 5.57116 6.8893 5.49669 6.76666 5.44589C6.64402 5.39508 6.51257 5.36893 6.37982 5.36893C6.24707 5.36893 6.11562 5.39508 5.99297 5.44589C5.87033 5.49669 5.7589 5.57116 5.66504 5.66504Z" stroke="black" stroke-width="1.2" stroke-miterlimit="10" stroke-linecap="round"/>
</g>
<defs>
<clipPath id="clip0_1564_3641">
<rect width="16" height="16" fill="white"/>
</clipPath>
</defs>
</svg>
