<svg width="16" height="16" viewBox="0 0 16 16" fill="none" xmlns="http://www.w3.org/2000/svg">
<path d="M1.75 13.25H14.25C14.8023 13.25 15.25 12.8023 15.25 12.25V3.75C15.25 3.19772 14.8023 2.75 14.25 2.75H8H4.875H1.75C1.19772 2.75 0.75 3.19772 0.75 3.75V12.25C0.75 12.8023 1.19771 13.25 1.75 13.25Z" stroke="black" stroke-width="1.3" stroke-linecap="round" stroke-linejoin="round"/>
<path d="M3.44226 12.6064C3.8764 11.084 4.83317 9.35645 5.94369 9.35645C7.0542 9.35645 8.01097 11.084 8.44511 12.6064M5.94373 8.85645C6.91022 8.85645 7.69373 8.07294 7.69373 7.10645C7.69373 6.13995 6.91022 5.35645 5.94373 5.35645C4.97723 5.35645 4.19373 6.13995 4.19373 7.10645C4.19373 8.07294 4.97723 8.85645 5.94373 8.85645Z" stroke="black" stroke-width="1.3" stroke-linecap="round" stroke-linejoin="round"/>
<path d="M11.3434 4.27954L11.9815 4.83465L12.7063 4.39878L12.8383 5.23417L13.6737 5.36616L13.2378 6.09094L13.7929 6.72903L12.9931 7.00408L13.0082 7.8497L12.2187 7.5463L11.6867 8.20378L11.277 7.46391L10.4468 7.62561L10.6085 6.79545L9.86865 6.38571L10.5261 5.85371L10.2227 5.06424L11.0684 5.07933L11.3434 4.27954Z" stroke="black" stroke-width="0.8" stroke-linejoin="round"/>
</svg>
