<svg width="16" height="16" viewBox="0 0 16 16" fill="none" xmlns="http://www.w3.org/2000/svg"><path d="M3.627 1.229 C 3.267 1.276,2.876 1.554,2.696 1.892 C 2.524 2.215,2.534 1.827,2.534 8.000 C 2.534 14.119,2.526 13.776,2.683 14.086 C 2.779 14.276,3.036 14.536,3.227 14.638 C 3.505 14.786,3.631 14.799,4.815 14.800 C 6.035 14.800,6.079 14.794,6.262 14.612 C 6.555 14.319,6.508 13.876,6.159 13.640 L 6.040 13.560 4.920 13.547 L 3.800 13.533 3.800 8.000 L 3.800 2.467 5.833 2.460 L 7.867 2.453 7.867 4.033 C 7.867 5.748,7.871 5.800,8.017 6.086 C 8.112 6.276,8.370 6.536,8.561 6.638 C 8.853 6.794,8.920 6.799,10.647 6.800 L 12.214 6.800 12.207 10.167 L 12.200 13.533 11.080 13.547 L 9.960 13.560 9.851 13.631 C 9.637 13.770,9.546 13.935,9.547 14.187 C 9.548 14.436,9.740 14.688,9.983 14.760 C 10.172 14.816,12.166 14.818,12.430 14.762 C 12.938 14.654,13.354 14.222,13.438 13.715 C 13.460 13.584,13.466 12.509,13.461 9.867 L 13.453 6.200 13.391 6.025 C 13.357 5.928,13.271 5.772,13.200 5.678 C 13.129 5.584,12.155 4.593,11.035 3.477 C 9.079 1.526,8.992 1.443,8.800 1.350 C 8.663 1.283,8.537 1.245,8.400 1.227 C 8.155 1.196,3.871 1.198,3.627 1.229 M10.247 5.540 C 9.664 5.544,9.172 5.542,9.153 5.534 C 9.127 5.525,9.120 5.280,9.120 4.434 L 9.120 3.347 10.213 4.440 L 11.307 5.533 10.247 5.540 M7.869 8.564 C 7.624 8.609,7.437 8.803,7.387 9.064 C 7.371 9.149,7.360 9.736,7.360 10.501 L 7.360 11.796 7.033 11.475 C 6.854 11.299,6.665 11.133,6.613 11.106 C 6.490 11.041,6.181 11.038,6.063 11.101 C 5.956 11.157,5.825 11.288,5.767 11.396 C 5.703 11.514,5.705 11.823,5.771 11.947 C 5.828 12.056,7.447 13.693,7.635 13.832 C 7.741 13.911,7.791 13.929,7.934 13.940 C 8.255 13.966,8.250 13.970,9.271 12.950 C 9.771 12.449,10.203 11.998,10.230 11.947 C 10.295 11.822,10.297 11.514,10.233 11.396 C 10.175 11.288,10.044 11.157,9.937 11.101 C 9.819 11.038,9.510 11.041,9.387 11.106 C 9.335 11.133,9.147 11.298,8.968 11.474 L 8.643 11.793 8.635 10.410 L 8.627 9.027 8.565 8.901 C 8.435 8.638,8.168 8.509,7.869 8.564 " stroke="none" fill-rule="evenodd" fill="black"></path></svg>