<svg width="16" height="16" viewBox="0 0 16 16" fill="none" xmlns="http://www.w3.org/2000/svg"><path d="M7.569 1.229 C 5.699 1.337,3.892 2.271,2.715 3.738 C 1.488 5.267,0.973 7.242,1.305 9.147 C 1.658 11.170,2.895 12.919,4.688 13.931 C 6.008 14.676,7.646 14.957,9.147 14.695 C 11.546 14.276,13.536 12.620,14.373 10.345 C 15.124 8.305,14.854 6.032,13.645 4.227 C 13.295 3.703,12.759 3.114,12.287 2.734 C 11.220 1.874,9.818 1.312,8.560 1.240 C 8.025 1.209,7.923 1.208,7.569 1.229 M8.826 2.523 C 11.211 2.870,13.106 4.769,13.481 7.188 C 13.543 7.587,13.543 8.413,13.481 8.812 C 13.179 10.761,11.898 12.393,10.091 13.130 C 8.067 13.956,5.758 13.519,4.189 12.014 C 3.275 11.137,2.711 10.056,2.519 8.812 C 2.487 8.612,2.473 8.357,2.473 8.000 C 2.473 7.422,2.513 7.094,2.642 6.592 C 3.220 4.351,5.214 2.672,7.526 2.480 C 7.874 2.451,8.466 2.471,8.826 2.523 M7.832 3.637 C 7.668 3.682,7.523 3.800,7.444 3.954 C 7.394 4.051,7.378 4.136,7.364 4.374 L 7.347 4.673 7.157 4.721 C 6.503 4.887,5.949 5.379,5.748 5.974 C 5.620 6.351,5.642 6.828,5.805 7.195 C 5.953 7.530,6.282 7.893,6.612 8.086 C 6.706 8.140,7.205 8.354,7.722 8.561 C 8.239 8.768,8.715 8.971,8.781 9.012 C 9.133 9.236,9.178 9.555,8.895 9.830 C 8.695 10.024,8.523 10.086,8.135 10.101 C 7.617 10.121,7.357 10.029,7.053 9.719 C 6.827 9.489,6.694 9.428,6.454 9.445 C 6.265 9.459,6.114 9.550,5.991 9.724 C 5.882 9.879,5.863 10.123,5.946 10.299 C 6.022 10.461,6.282 10.743,6.494 10.895 C 6.685 11.031,7.048 11.208,7.230 11.254 L 7.353 11.285 7.366 11.599 C 7.381 11.961,7.432 12.106,7.594 12.239 C 7.698 12.325,7.887 12.400,8.000 12.400 C 8.113 12.400,8.302 12.325,8.406 12.239 C 8.565 12.108,8.619 11.961,8.634 11.613 L 8.647 11.311 8.744 11.293 C 9.181 11.212,9.760 10.829,10.020 10.449 C 10.363 9.949,10.429 9.333,10.195 8.805 C 10.050 8.477,9.722 8.112,9.401 7.921 C 9.316 7.871,8.825 7.660,8.310 7.452 C 7.795 7.245,7.324 7.050,7.263 7.019 C 7.121 6.946,6.967 6.766,6.931 6.631 C 6.853 6.341,7.046 6.080,7.434 5.949 C 7.561 5.906,7.665 5.893,7.891 5.893 C 8.415 5.893,8.665 5.989,8.977 6.308 C 9.192 6.529,9.296 6.573,9.553 6.554 C 9.735 6.541,9.888 6.447,10.009 6.276 C 10.118 6.121,10.137 5.877,10.054 5.701 C 9.978 5.539,9.718 5.257,9.506 5.105 C 9.315 4.969,8.952 4.792,8.770 4.746 L 8.647 4.715 8.634 4.404 C 8.626 4.218,8.605 4.056,8.581 4.000 C 8.458 3.709,8.137 3.554,7.832 3.637 " stroke="none" fill-rule="evenodd" fill="black"></path></svg>