<svg width="16" height="16" viewBox="0 0 16 16" fill="none" xmlns="http://www.w3.org/2000/svg">
<path fill-rule="evenodd" clip-rule="evenodd" d="M1.85 8.00683C1.85 7.90128 1.91611 7.51081 2.14068 6.94238C2.356 6.39734 2.69368 5.74922 3.17796 5.13042C4.13727 3.90464 5.6609 2.79999 8.00193 2.79999C10.343 2.79999 11.8666 3.90464 12.8259 5.13042C13.3102 5.74922 13.6479 6.39734 13.8632 6.94238C14.0878 7.51081 14.1539 7.90128 14.1539 8.00683C14.1539 8.11239 14.0878 8.50285 13.8632 9.07129C13.6479 9.61633 13.3102 10.2644 12.8259 10.8832C11.8666 12.109 10.343 13.2137 8.00193 13.2137C5.6609 13.2137 4.13727 12.109 3.17796 10.8832C2.69368 10.2644 2.356 9.61633 2.14068 9.07129C1.91611 8.50285 1.85 8.11239 1.85 8.00683ZM8.00193 1.39999C5.14494 1.39999 3.24261 2.77622 2.07545 4.26759C1.4965 5.00736 1.09583 5.77688 0.838604 6.42798C0.590624 7.05568 0.449997 7.63984 0.449997 8.00683C0.449997 8.37383 0.590624 8.95799 0.838604 9.58569C1.09583 10.2368 1.4965 11.0063 2.07545 11.7461C3.24261 13.2374 5.14494 14.6137 8.00193 14.6137C10.8589 14.6137 12.7613 13.2374 13.9284 11.7461C14.5074 11.0063 14.908 10.2368 15.1653 9.58569C15.4132 8.95799 15.5539 8.37383 15.5539 8.00683C15.5539 7.63984 15.4132 7.05568 15.1653 6.42798C14.908 5.77688 14.5074 5.00736 13.9284 4.26759C12.7613 2.77622 10.8589 1.39999 8.00193 1.39999ZM6.57547 8.00683C6.57547 7.21902 7.21412 6.58037 8.00193 6.58037C8.78974 6.58037 9.42839 7.21902 9.42839 8.00683C9.42839 8.79465 8.78974 9.4333 8.00193 9.4333C7.21412 9.4333 6.57547 8.79465 6.57547 8.00683ZM8.00193 5.18037C6.44092 5.18037 5.17547 6.44582 5.17547 8.00683C5.17547 9.56785 6.44092 10.8333 8.00193 10.8333C9.56294 10.8333 10.8284 9.56785 10.8284 8.00683C10.8284 6.44582 9.56294 5.18037 8.00193 5.18037Z" fill="#0E1438"/>
</svg>
