<svg width="16" height="16" viewBox="0 0 16 16" fill="none" xmlns="http://www.w3.org/2000/svg"><path d="M8.277 0.637 C 8.131 0.675,7.953 0.774,7.848 0.875 C 7.717 1.002,2.012 9.273,1.927 9.459 C 1.709 9.937,1.952 10.524,2.453 10.727 C 2.600 10.787,2.602 10.787,4.567 10.794 L 6.533 10.802 6.533 12.640 C 6.533 14.544,6.539 14.652,6.646 14.864 C 6.732 15.035,6.919 15.213,7.100 15.297 C 7.245 15.363,7.298 15.373,7.507 15.373 C 7.715 15.373,7.767 15.363,7.898 15.299 C 7.981 15.258,8.095 15.180,8.152 15.125 C 8.285 14.995,13.984 6.733,14.076 6.536 C 14.132 6.417,14.146 6.346,14.146 6.187 C 14.146 6.077,14.131 5.937,14.113 5.876 C 14.037 5.625,13.785 5.363,13.520 5.261 C 13.411 5.219,13.222 5.214,11.433 5.206 L 9.467 5.197 9.466 3.352 C 9.466 1.912,9.458 1.474,9.430 1.356 C 9.332 0.938,8.975 0.641,8.548 0.623 C 8.445 0.619,8.323 0.625,8.277 0.637 M8.296 5.893 C 8.383 6.081,8.586 6.283,8.773 6.371 L 8.920 6.440 10.778 6.453 L 12.636 6.467 10.218 9.973 L 7.800 13.480 7.787 11.867 L 7.773 10.253 7.704 10.107 C 7.617 9.919,7.414 9.717,7.227 9.629 L 7.080 9.560 5.222 9.547 L 3.364 9.533 5.782 6.027 L 8.200 2.520 8.213 4.133 L 8.227 5.747 8.296 5.893 " stroke="none" fill-rule="evenodd" fill="black"></path></svg>