<svg width="16" height="16" viewBox="0 0 16 16" fill="none" xmlns="http://www.w3.org/2000/svg">
<g clip-path="url(#clip0_338_159)">
<path fill-rule="evenodd" clip-rule="evenodd" d="M8.93658 2.94723C8.55113 2.17775 7.45299 2.17755 7.06725 2.94689L2.47405 12.108C2.12549 12.8032 2.63094 13.622 3.40862 13.622H12.5908C13.3683 13.622 13.8738 12.8035 13.5256 12.1083L8.93658 2.94723ZM5.81575 2.31941C6.71802 0.519832 9.2867 0.520299 10.1883 2.32021L14.7773 11.4813C15.5919 13.1074 14.4095 15.022 12.5908 15.022H3.40862C1.58952 15.022 0.407219 13.1067 1.22254 11.4805L5.81575 2.31941ZM7.99914 5.34925C8.4962 5.34925 8.89914 5.75219 8.89914 6.24925V7.99471C8.89914 8.49177 8.4962 8.89471 7.99914 8.89471C7.50208 8.89471 7.09914 8.49177 7.09914 7.99471V6.24925C7.09914 5.75219 7.50208 5.34925 7.99914 5.34925ZM8.01277 11.4856C8.01277 11.4867 8.01246 11.4888 8.01151 11.4911C8.01068 11.493 8.00968 11.4944 8.00877 11.4953C8.00787 11.4962 8.00653 11.4972 8.00458 11.498C8.00232 11.499 8.00019 11.4993 7.99913 11.4993C7.99808 11.4993 7.99594 11.499 7.99369 11.498C7.99173 11.4972 7.9904 11.4962 7.98949 11.4953C7.98859 11.4944 7.98758 11.493 7.98676 11.4911C7.9858 11.4888 7.9855 11.4867 7.9855 11.4856C7.9855 11.485 7.98562 11.4839 7.98594 11.4826C7.98613 11.4819 7.9864 11.481 7.98676 11.4802C7.9872 11.4791 7.9877 11.4783 7.98821 11.4775C7.98864 11.4769 7.98908 11.4764 7.98949 11.476C7.9904 11.4751 7.99173 11.4741 7.99369 11.4733C7.99594 11.4723 7.99808 11.472 7.99913 11.472C7.99987 11.472 8.00113 11.4721 8.00259 11.4726C8.00322 11.4727 8.00389 11.473 8.00458 11.4733C8.00529 11.4736 8.00592 11.4739 8.00648 11.4742C8.00745 11.4748 8.0082 11.4754 8.00877 11.476C8.00968 11.4769 8.01068 11.4782 8.01151 11.4802C8.01246 11.4824 8.01277 11.4846 8.01277 11.4856ZM7.99913 10.5993C7.50961 10.5993 7.11277 10.9961 7.11277 11.4856C7.11277 11.9752 7.50961 12.372 7.99913 12.372C8.48866 12.372 8.8855 11.9752 8.8855 11.4856C8.8855 10.9961 8.48866 10.5993 7.99913 10.5993Z" fill="#0E1438"/>
</g>
<defs>
<clipPath id="clip0_338_159">
<rect width="16" height="16" fill="white"/>
</clipPath>
</defs>
</svg>
