<svg width="16" height="16" viewBox="0 0 16 16" fill="none" xmlns="http://www.w3.org/2000/svg"><path d="M7.598 1.228 C 6.684 1.276,5.884 1.485,5.053 1.892 C 4.314 2.255,3.759 2.645,3.213 3.186 C 1.983 4.406,1.299 5.968,1.212 7.760 C 1.155 8.921,1.481 10.270,2.069 11.312 C 2.761 12.539,3.879 13.580,5.115 14.151 C 7.294 15.157,9.798 14.967,11.773 13.645 C 12.780 12.972,13.658 11.953,14.151 10.885 C 15.218 8.573,14.938 5.935,13.409 3.901 C 13.184 3.602,12.639 3.030,12.348 2.788 C 11.259 1.884,9.837 1.307,8.529 1.240 C 8.377 1.232,8.187 1.222,8.107 1.217 C 8.026 1.213,7.797 1.218,7.598 1.228 M8.609 2.498 C 8.711 2.512,8.723 2.520,8.710 2.570 C 8.701 2.601,8.573 3.120,8.424 3.724 L 8.154 4.821 7.094 5.087 C 6.510 5.233,5.965 5.384,5.881 5.423 C 5.643 5.532,5.421 5.774,5.256 6.102 C 5.139 6.335,5.112 6.371,5.073 6.349 C 4.931 6.272,3.347 5.057,3.347 5.026 C 3.347 5.005,3.425 4.877,3.520 4.741 C 3.733 4.437,4.355 3.804,4.673 3.570 C 5.706 2.806,6.926 2.423,8.173 2.470 C 8.349 2.477,8.545 2.489,8.609 2.498 M10.440 3.039 C 11.060 3.343,11.528 3.684,11.993 4.171 C 12.825 5.041,13.330 6.094,13.495 7.307 C 13.542 7.651,13.535 8.465,13.481 8.812 C 13.181 10.760,11.898 12.393,10.091 13.130 C 8.067 13.956,5.758 13.519,4.189 12.014 C 3.275 11.137,2.710 10.052,2.519 8.812 C 2.464 8.455,2.456 7.669,2.504 7.307 C 2.565 6.846,2.721 6.213,2.774 6.213 C 2.788 6.213,3.163 6.485,3.607 6.818 C 4.050 7.150,4.485 7.456,4.573 7.497 C 4.821 7.612,5.066 7.643,5.323 7.590 C 5.810 7.491,6.102 7.240,6.357 6.701 L 6.434 6.539 7.490 6.274 C 8.099 6.121,8.612 5.977,8.701 5.935 C 8.903 5.839,9.172 5.570,9.268 5.368 C 9.312 5.277,9.461 4.738,9.632 4.053 C 9.791 3.415,9.927 2.878,9.934 2.858 C 9.952 2.808,10.015 2.831,10.440 3.039 M7.275 8.051 C 7.053 8.122,6.912 8.214,6.697 8.427 C 6.481 8.641,6.398 8.759,6.313 8.980 C 6.234 9.187,6.229 9.623,6.304 9.838 C 6.368 10.023,7.266 11.379,7.449 11.568 C 7.609 11.733,7.789 11.842,8.013 11.911 C 8.153 11.954,8.273 11.960,8.973 11.960 C 9.724 11.960,9.785 11.956,9.960 11.901 C 10.343 11.780,10.583 11.560,10.805 11.128 C 11.058 10.634,11.080 10.561,11.080 10.227 C 11.080 9.919,11.052 9.804,10.915 9.560 C 10.811 9.374,10.617 9.214,9.920 8.745 C 8.908 8.063,8.930 8.073,8.267 8.027 C 7.705 7.989,7.452 7.995,7.275 8.051 M8.240 9.276 L 8.493 9.293 9.167 9.745 C 9.573 10.018,9.840 10.213,9.839 10.238 C 9.839 10.261,9.788 10.376,9.726 10.493 L 9.613 10.707 8.981 10.714 L 8.348 10.721 7.921 10.081 C 7.686 9.729,7.493 9.432,7.493 9.422 C 7.493 9.411,7.526 9.369,7.565 9.328 C 7.645 9.245,7.711 9.240,8.240 9.276 " stroke="none" fill-rule="evenodd" fill="black"></path></svg>