<svg width="16" height="16" viewBox="0 0 16 16" fill="none" xmlns="http://www.w3.org/2000/svg">
<path d="M9.03448 11.931H6.96552M2 8.62069C2 8.62069 2.33848 8.32772 3.03448 7.98841M3.03448 7.98841C3.99448 7.52166 5.63228 6.96552 8 6.96552C10.3677 6.96552 12.0055 7.52166 12.9655 7.98841M3.03448 7.98841L3.50124 3.48469C3.54343 3.07731 3.73514 2.70004 4.03934 2.42581C4.34353 2.15158 4.73858 1.99987 5.14814 2H10.8527C11.2621 2.00007 11.657 2.15188 11.961 2.42609C12.265 2.7003 12.4566 3.07746 12.4988 3.48469L12.9655 7.98841M12.9655 7.98841C13.6615 8.32772 14 8.62069 14 8.62069M6.55172 12.1379C6.55172 12.6318 6.35554 13.1054 6.00634 13.4546C5.65713 13.8038 5.18351 14 4.68966 14C4.1958 14 3.72218 13.8038 3.37297 13.4546C3.02377 13.1054 2.82759 12.6318 2.82759 12.1379C2.82759 11.6441 3.02377 11.1705 3.37297 10.8212C3.72218 10.472 4.1958 10.2759 4.68966 10.2759C5.18351 10.2759 5.65713 10.472 6.00634 10.8212C6.35554 11.1705 6.55172 11.6441 6.55172 12.1379ZM13.1724 12.1379C13.1724 12.6318 12.9762 13.1054 12.627 13.4546C12.2778 13.8038 11.8042 14 11.3103 14C10.8165 14 10.3429 13.8038 9.99366 13.4546C9.64446 13.1054 9.44828 12.6318 9.44828 12.1379C9.44828 11.6441 9.64446 11.1705 9.99366 10.8212C10.3429 10.472 10.8165 10.2759 11.3103 10.2759C11.8042 10.2759 12.2778 10.472 12.627 10.8212C12.9762 11.1705 13.1724 11.6441 13.1724 12.1379Z" stroke="black" stroke-width="1.4" stroke-linecap="round" stroke-linejoin="round"/>
</svg>
