<svg width="16" height="16" viewBox="0 0 16 16" fill="none" xmlns="http://www.w3.org/2000/svg"><path d="M2.700 2.414 C 2.236 2.514,1.821 2.943,1.733 3.410 C 1.697 3.607,1.697 12.393,1.733 12.590 C 1.823 13.068,2.265 13.511,2.744 13.600 C 2.941 13.637,13.059 13.637,13.256 13.600 C 13.735 13.511,14.177 13.068,14.267 12.590 C 14.303 12.393,14.303 3.607,14.267 3.410 C 14.203 3.071,13.922 2.693,13.607 2.525 C 13.312 2.367,13.571 2.374,7.987 2.376 C 3.779 2.377,2.837 2.384,2.700 2.414 M13.040 8.000 L 13.040 12.373 8.000 12.373 L 2.960 12.373 2.960 8.000 L 2.960 3.627 8.000 3.627 L 13.040 3.627 13.040 8.000 M7.519 4.762 C 6.964 4.881,6.407 5.262,6.090 5.738 C 5.767 6.224,5.641 6.845,5.749 7.416 C 5.955 8.505,6.894 9.283,8.000 9.283 C 8.634 9.283,9.159 9.064,9.622 8.607 C 10.695 7.547,10.437 5.746,9.107 5.000 C 8.757 4.804,8.419 4.720,7.987 4.723 C 7.825 4.724,7.615 4.741,7.519 4.762 M8.459 6.074 C 8.866 6.275,9.096 6.721,9.021 7.162 C 8.903 7.849,8.192 8.226,7.562 7.937 C 6.975 7.669,6.779 6.899,7.167 6.389 C 7.298 6.217,7.424 6.119,7.616 6.038 C 7.752 5.981,7.807 5.973,8.027 5.979 C 8.253 5.986,8.302 5.997,8.459 6.074 M6.080 10.096 C 5.873 10.185,5.707 10.440,5.707 10.667 C 5.707 10.909,5.896 11.177,6.124 11.257 C 6.207 11.286,6.576 11.293,8.000 11.293 C 9.424 11.293,9.793 11.286,9.876 11.257 C 10.104 11.177,10.293 10.909,10.293 10.667 C 10.293 10.436,10.125 10.183,9.914 10.095 C 9.767 10.033,6.222 10.034,6.080 10.096 " stroke="none" fill-rule="evenodd" fill="black"></path></svg>