<svg width="16" height="16" viewBox="0 0 16 16" fill="none" xmlns="http://www.w3.org/2000/svg"><path d="M4.187 2.561 C 3.875 2.609,3.632 2.739,3.420 2.972 C 3.350 3.048,2.814 3.880,2.227 4.819 L 1.161 6.527 0.760 6.539 C 0.327 6.552,0.211 6.581,0.073 6.713 L 0.000 6.783 -0.000 7.166 L -0.000 7.549 0.073 7.618 C 0.210 7.747,0.336 7.785,0.620 7.786 L 0.880 7.787 0.880 10.075 C 0.880 12.102,0.885 12.380,0.923 12.508 C 1.066 12.991,1.457 13.351,1.932 13.438 C 2.137 13.475,3.197 13.475,3.402 13.438 C 3.979 13.332,4.453 12.784,4.453 12.222 L 4.453 12.080 8.000 12.080 L 11.547 12.080 11.547 12.222 C 11.547 12.784,12.021 13.332,12.598 13.438 C 12.803 13.475,13.863 13.475,14.068 13.438 C 14.543 13.351,14.934 12.991,15.077 12.508 C 15.115 12.380,15.120 12.102,15.120 10.075 L 15.120 7.787 15.380 7.786 C 15.664 7.785,15.790 7.747,15.927 7.618 L 16.000 7.549 16.000 7.166 L 16.000 6.783 15.927 6.713 C 15.789 6.581,15.673 6.552,15.240 6.539 L 14.839 6.527 13.773 4.819 C 13.186 3.880,12.650 3.048,12.580 2.972 C 12.424 2.800,12.240 2.679,12.020 2.604 L 11.853 2.547 8.093 2.543 C 6.025 2.541,4.267 2.549,4.187 2.561 M12.758 5.560 L 13.867 7.333 13.867 9.773 L 13.867 12.213 13.333 12.213 L 12.800 12.213 12.800 11.812 C 12.800 11.591,12.786 11.354,12.769 11.285 C 12.725 11.111,12.515 10.902,12.341 10.858 C 12.162 10.813,3.838 10.813,3.659 10.858 C 3.485 10.902,3.275 11.111,3.231 11.285 C 3.214 11.354,3.200 11.591,3.200 11.812 L 3.200 12.213 2.667 12.213 L 2.133 12.213 2.133 9.773 L 2.133 7.333 3.242 5.560 L 4.350 3.787 8.000 3.787 L 11.650 3.787 12.758 5.560 M3.553 8.136 C 3.310 8.257,3.165 8.555,3.224 8.812 C 3.263 8.981,3.359 9.121,3.502 9.218 L 3.613 9.293 4.452 9.301 C 5.410 9.311,5.440 9.306,5.623 9.108 C 5.852 8.859,5.841 8.480,5.597 8.248 C 5.425 8.085,5.393 8.080,4.488 8.080 C 3.706 8.080,3.661 8.083,3.553 8.136 M10.573 8.131 C 10.442 8.192,10.309 8.328,10.255 8.459 C 10.199 8.592,10.203 8.815,10.263 8.947 C 10.325 9.083,10.501 9.241,10.632 9.280 C 10.700 9.301,11.001 9.308,11.560 9.302 L 12.387 9.293 12.498 9.218 C 12.641 9.121,12.737 8.981,12.776 8.812 C 12.835 8.554,12.688 8.254,12.445 8.136 C 12.336 8.083,12.288 8.080,11.505 8.081 C 10.758 8.081,10.670 8.086,10.573 8.131 " stroke="none" fill-rule="evenodd" fill="black"></path></svg>