<svg width="16" height="16" viewBox="0 0 16 16" fill="none" xmlns="http://www.w3.org/2000/svg"><path d="M7.253 1.266 C 6.525 1.372,5.886 1.585,5.273 1.923 C 3.429 2.943,2.291 4.959,2.383 7.040 C 2.470 8.983,3.394 10.917,5.208 12.950 C 5.639 13.433,6.450 14.226,6.653 14.364 C 7.373 14.852,8.293 14.919,9.053 14.539 C 9.317 14.407,9.514 14.248,9.984 13.788 C 13.299 10.539,14.405 7.179,13.070 4.413 C 12.795 3.842,12.504 3.422,12.071 2.968 C 11.225 2.080,10.171 1.518,8.933 1.293 C 8.589 1.231,7.605 1.215,7.253 1.266 M8.660 2.521 C 9.626 2.675,10.436 3.092,11.120 3.787 C 12.164 4.849,12.574 6.305,12.263 7.853 C 12.003 9.149,11.184 10.619,9.927 12.046 C 9.584 12.436,8.752 13.257,8.601 13.356 C 8.249 13.585,7.754 13.585,7.399 13.357 C 7.233 13.250,6.314 12.330,5.963 11.920 C 3.874 9.481,3.176 7.204,3.924 5.267 C 4.137 4.715,4.461 4.213,4.879 3.788 C 5.574 3.082,6.364 2.679,7.387 2.511 C 7.635 2.470,8.374 2.476,8.660 2.521 M7.693 4.453 C 6.848 4.572,6.131 5.104,5.794 5.863 C 5.587 6.330,5.538 6.927,5.665 7.425 C 5.842 8.116,6.309 8.692,6.943 9.000 C 7.321 9.184,7.543 9.234,7.987 9.236 C 8.382 9.238,8.522 9.213,8.883 9.078 C 9.418 8.877,9.931 8.398,10.169 7.880 C 10.338 7.512,10.399 7.235,10.399 6.840 C 10.399 6.445,10.338 6.168,10.169 5.800 C 9.929 5.276,9.404 4.793,8.853 4.589 C 8.512 4.463,8.025 4.406,7.693 4.453 M8.214 5.707 C 8.524 5.766,8.800 5.955,8.973 6.227 C 9.099 6.424,9.147 6.592,9.147 6.840 C 9.147 7.088,9.099 7.256,8.973 7.453 C 8.698 7.885,8.195 8.086,7.706 7.960 C 7.392 7.879,7.113 7.647,6.957 7.340 C 6.869 7.168,6.867 7.154,6.867 6.840 C 6.867 6.527,6.869 6.512,6.956 6.342 C 7.200 5.861,7.699 5.609,8.214 5.707 " stroke="none" fill-rule="evenodd" fill="black"></path></svg>