<svg width="16" height="16" viewBox="0 0 16 16" fill="none" xmlns="http://www.w3.org/2000/svg">
<g clip-path="url(#clip0_131_37)">
<path d="M10.8333 3.16665H12.8333C13.2015 3.16665 13.5 3.46513 13.5 3.83331V13.5C13.5 13.8682 13.2015 14.1666 12.8333 14.1666H3.16667C2.79848 14.1666 2.5 13.8682 2.5 13.5V3.83331C2.5 3.46513 2.79848 3.16665 3.16667 3.16665H5.16667M5.83333 4.83331H10.1667C10.5349 4.83331 10.8333 4.53483 10.8333 4.16665V2.49998C10.8333 2.13179 10.5349 1.83331 10.1667 1.83331H5.83333C5.46515 1.83331 5.16667 2.13179 5.16667 2.49998V4.16665C5.16667 4.53483 5.46515 4.83331 5.83333 4.83331Z" stroke="black" stroke-width="1.5" stroke-linecap="square" stroke-linejoin="round"/>
</g>
<defs>
<clipPath id="clip0_131_37">
<rect width="16" height="16" fill="white"/>
</clipPath>
</defs>
</svg>
