<svg width="16" height="16" viewBox="0 0 16 16" fill="none" xmlns="http://www.w3.org/2000/svg">
<path fill-rule="evenodd" clip-rule="evenodd" d="M7.05388 1.6244C5.91846 1.6244 4.99802 2.54484 4.99802 3.68025C4.99802 4.81567 5.91846 5.73611 7.05388 5.73611C8.1893 5.73611 9.10973 4.81567 9.10973 3.68025C9.10973 2.54484 8.1893 1.6244 7.05388 1.6244ZM3.68893 3.68025C3.68893 1.82185 5.19547 0.315308 7.05388 0.315308C8.91229 0.315308 10.4188 1.82185 10.4188 3.68025C10.4188 5.53866 8.91229 7.0452 7.05388 7.0452C5.19547 7.0452 3.68893 5.53866 3.68893 3.68025ZM3.59335 10.1403C2.83322 10.594 2.37457 11.1767 2.09446 11.7071C2.00049 11.885 2.03005 12.0215 2.12438 12.14C2.23609 12.2802 2.46176 12.4078 2.75684 12.4078H11.252V13.7169H2.75684C2.09959 13.7169 1.48231 13.4351 1.10033 12.9554C0.700969 12.454 0.586117 11.7599 0.936879 11.0958C1.31096 10.3874 1.92511 9.61148 2.92238 9.01619C3.91915 8.42121 5.26044 8.0295 7.05386 8.0295C8.10478 8.0295 9.00045 8.16401 9.76252 8.3951C9.73602 8.55763 9.72224 8.72446 9.72224 8.89459C9.72224 9.21531 9.76919 9.52439 9.85754 9.81525C9.15478 9.53044 8.24187 9.33859 7.05386 9.33859C5.4547 9.33859 4.35399 9.68622 3.59335 10.1403ZM12.002 12.1151C12.0812 12.0024 12.1007 11.8727 12.0133 11.7071C12.0095 11.7 12.0058 11.693 12.002 11.6859V11.1089C11.0751 10.7534 10.4722 9.90176 10.4722 8.89459C10.4722 8.8149 10.4763 8.7361 10.4841 8.65839C10.7349 8.76672 10.9683 8.88664 11.1853 9.01619C12.1826 9.61148 12.7968 10.3874 13.1708 11.0958C13.5216 11.7599 13.4068 12.454 13.0074 12.9554C12.7558 13.2714 12.402 13.5016 12.002 13.6218V12.1151Z" fill="black"/>
<path d="M12.8761 6.53943C11.5348 6.53943 10.4722 7.59848 10.4722 8.89451C10.4722 9.90168 11.0751 10.7533 12.002 11.1088V14.7747C12.002 14.8636 12.0472 14.9303 12.1075 15.0043L12.7404 15.6264C12.8157 15.7005 12.9213 15.7078 13.0042 15.6264L14.2022 14.4563C14.2776 14.3748 14.2776 14.2711 14.2022 14.1971L13.4562 13.4639L14.4886 12.4715C14.564 12.4049 14.564 12.2938 14.4735 12.2049L13.4638 11.2199C14.6242 10.7533 15.2722 9.9239 15.2722 8.89451C15.2722 7.59848 14.2022 6.53943 12.8761 6.53943ZM12.8685 7.64292C13.2755 7.64292 13.6069 7.96878 13.6069 8.36866C13.6069 8.78341 13.2755 9.10928 12.8685 9.10928C12.4616 9.10928 12.1225 8.78341 12.1225 8.36866C12.1225 7.96878 12.4541 7.64292 12.8685 7.64292Z" fill="black"/>
</svg>
