<svg width="16" height="16" viewBox="0 0 16 16" fill="none" xmlns="http://www.w3.org/2000/svg"><path d="M2.964 1.895 C 2.604 1.942,2.208 2.224,2.028 2.561 C 1.862 2.874,1.868 2.716,1.867 6.803 L 1.867 10.527 1.447 10.539 C 0.991 10.552,0.880 10.579,0.738 10.715 C 0.696 10.754,0.636 10.835,0.604 10.893 C 0.549 10.996,0.546 11.035,0.538 11.963 C 0.530 13.015,0.542 13.141,0.683 13.419 C 0.779 13.609,1.036 13.870,1.227 13.972 C 1.547 14.142,1.136 14.132,8.000 14.132 C 14.864 14.132,14.453 14.142,14.773 13.972 C 14.965 13.869,15.221 13.609,15.319 13.416 C 15.449 13.159,15.466 13.002,15.466 12.025 C 15.467 11.028,15.454 10.932,15.299 10.755 C 15.150 10.586,15.032 10.551,14.553 10.538 L 14.133 10.527 14.133 6.803 C 14.132 2.716,14.138 2.874,13.972 2.561 C 13.860 2.351,13.595 2.100,13.380 1.999 C 13.279 1.952,13.130 1.909,13.012 1.894 C 12.768 1.862,3.209 1.864,2.964 1.895 M12.873 6.833 L 12.880 10.533 8.000 10.533 L 3.120 10.533 3.120 6.844 C 3.120 4.816,3.128 3.148,3.138 3.138 C 3.148 3.128,5.341 3.123,8.011 3.127 L 12.867 3.133 12.873 6.833 M14.207 12.327 L 14.200 12.867 8.000 12.867 L 1.800 12.867 1.793 12.327 L 1.786 11.787 8.000 11.787 L 14.214 11.787 14.207 12.327 " stroke="none" fill-rule="evenodd" fill="black"></path></svg>