<svg width="16" height="16" viewBox="0 0 16 16" fill="none" xmlns="http://www.w3.org/2000/svg">
<path fill-rule="evenodd" clip-rule="evenodd" d="M2.45 8.21874C2.45 6.47442 3.16277 5.31747 4.18516 4.57392C5.23647 3.80933 6.66496 3.44999 8.09375 3.44999C9.52254 3.44999 10.951 3.80933 12.0023 4.57392C13.0247 5.31747 13.7375 6.47442 13.7375 8.21874C13.7375 9.96305 13.0247 11.12 12.0023 11.8636C10.951 12.6281 9.52254 12.9875 8.09375 12.9875C7.66532 12.9875 7.23361 12.955 6.81022 12.8879C6.52424 12.8426 6.21605 12.8352 5.90315 12.8938L3.09669 13.4201C2.97573 13.4427 2.86976 13.3368 2.89244 13.2158L3.12186 11.9922C3.24093 11.3572 3.08377 10.752 2.86012 10.2632C2.60407 9.70351 2.45 9.02904 2.45 8.21874ZM8.09375 2.04999C6.46004 2.04999 4.71666 2.45627 3.36172 3.44168C1.97786 4.44813 1.05 6.02555 1.05 8.21874C1.05 9.21059 1.23962 10.0863 1.58703 10.8456C1.73955 11.179 1.7934 11.4806 1.74584 11.7342L1.51642 12.9578C1.31229 14.0465 2.266 15.0002 3.3547 14.7961L6.16115 14.2699C6.28946 14.2458 6.43358 14.2457 6.59094 14.2706C7.09018 14.3498 7.59534 14.3875 8.09375 14.3875C9.72746 14.3875 11.4708 13.9812 12.8258 12.9958C14.2096 11.9893 15.1375 10.4119 15.1375 8.21874C15.1375 6.02555 14.2096 4.44813 12.8258 3.44168C11.4708 2.45627 9.72746 2.04999 8.09375 2.04999ZM5.39503 9.24997C5.93351 9.24997 6.37003 8.81345 6.37003 8.27497C6.37003 7.7365 5.93351 7.29997 5.39503 7.29997C4.85655 7.29997 4.42003 7.7365 4.42003 8.27497C4.42003 8.81345 4.85655 9.24997 5.39503 9.24997ZM9.07001 8.27497C9.07001 8.81345 8.63349 9.24997 8.09501 9.24997C7.55653 9.24997 7.12001 8.81345 7.12001 8.27497C7.12001 7.7365 7.55653 7.29997 8.09501 7.29997C8.63349 7.29997 9.07001 7.7365 9.07001 8.27497ZM10.795 9.24997C11.3335 9.24997 11.77 8.81345 11.77 8.27497C11.77 7.7365 11.3335 7.29997 10.795 7.29997C10.2565 7.29997 9.82002 7.7365 9.82002 8.27497C9.82002 8.81345 10.2565 9.24997 10.795 9.24997Z" fill="black"/>
</svg>
