<svg width="16" height="16" viewBox="0 0 16 16" fill="none" xmlns="http://www.w3.org/2000/svg">
<path fill-rule="evenodd" clip-rule="evenodd" d="M3.32229 0.839996C1.95136 0.839996 0.839996 1.95136 0.839996 3.32229V12.6793C0.839996 14.0502 1.95136 15.1616 3.32229 15.1616H10.897C11.2836 15.1616 11.597 14.8482 11.597 14.4616C11.597 14.075 11.2836 13.7616 10.897 13.7616H3.32229C2.72455 13.7616 2.24 13.277 2.24 12.6793V3.32229C2.24 2.72455 2.72455 2.24 3.32229 2.24H10.897C11.2836 2.24 11.597 1.9266 11.597 1.54C11.597 1.1534 11.2836 0.839996 10.897 0.839996H3.32229ZM10.8297 4.62825C11.0927 4.34495 11.5356 4.32855 11.8189 4.59161L14.9379 7.48783C15.0806 7.62028 15.1616 7.80614 15.1616 8.00079C15.1616 8.19543 15.0806 8.38129 14.9379 8.51374L11.8189 11.41C11.5356 11.673 11.0927 11.6566 10.8297 11.3733C10.5666 11.09 10.583 10.6471 10.8663 10.3841L12.6791 8.70079H6.88685C6.50025 8.70079 6.18685 8.38739 6.18685 8.00079C6.18685 7.61419 6.50025 7.30079 6.88685 7.30079H12.6791L10.8663 5.61752C10.583 5.35446 10.5666 4.91155 10.8297 4.62825Z" fill="#0E1438"/>
</svg>
