<svg width="16" height="16" viewBox="0 0 16 16" fill="none" xmlns="http://www.w3.org/2000/svg"><path d="M4.046 1.893 C 3.760 1.930,3.475 2.076,3.278 2.285 C 3.140 2.431,1.322 4.800,1.264 4.909 C 1.225 4.982,1.213 5.079,1.205 5.396 C 1.180 6.300,1.332 6.861,1.746 7.406 L 1.893 7.599 1.893 10.300 C 1.893 12.642,1.899 13.023,1.934 13.159 C 2.041 13.569,2.348 13.901,2.767 14.061 L 2.920 14.120 8.000 14.120 L 13.080 14.120 13.233 14.061 C 13.652 13.901,13.959 13.569,14.066 13.159 C 14.101 13.023,14.107 12.642,14.107 10.300 L 14.107 7.599 14.254 7.406 C 14.668 6.861,14.820 6.300,14.795 5.396 C 14.787 5.079,14.775 4.982,14.736 4.909 C 14.678 4.800,12.860 2.431,12.722 2.285 C 12.589 2.144,12.388 2.015,12.185 1.942 L 12.013 1.880 8.107 1.876 C 5.958 1.874,4.131 1.882,4.046 1.893 M12.339 3.820 L 12.878 4.520 10.439 4.527 C 9.098 4.531,6.902 4.531,5.561 4.527 L 3.122 4.520 3.661 3.820 L 4.200 3.120 8.000 3.120 L 11.800 3.120 12.339 3.820 M5.307 5.931 C 5.307 6.410,4.916 6.925,4.403 7.123 C 4.191 7.205,3.724 7.224,3.504 7.161 C 3.109 7.047,2.774 6.773,2.604 6.424 C 2.521 6.253,2.454 5.992,2.454 5.833 C 2.453 5.789,2.539 5.787,3.880 5.787 L 5.307 5.787 5.307 5.931 M9.427 5.893 C 9.419 5.952,9.407 6.051,9.399 6.113 C 9.373 6.309,9.216 6.595,9.031 6.779 C 8.738 7.072,8.425 7.200,8.000 7.200 C 7.575 7.200,7.262 7.072,6.969 6.779 C 6.782 6.593,6.627 6.309,6.600 6.107 C 6.592 6.041,6.579 5.942,6.572 5.887 L 6.559 5.787 8.000 5.787 L 9.441 5.787 9.427 5.893 M13.546 5.833 C 13.546 5.992,13.479 6.253,13.396 6.424 C 13.226 6.773,12.891 7.047,12.496 7.161 C 12.276 7.224,11.809 7.205,11.597 7.123 C 11.084 6.925,10.693 6.410,10.693 5.931 L 10.693 5.787 12.120 5.787 C 13.461 5.787,13.547 5.789,13.546 5.833 M6.416 7.950 C 7.093 8.447,8.041 8.589,8.867 8.316 C 9.243 8.192,9.669 7.926,9.940 7.648 L 10.053 7.532 10.233 7.703 C 10.569 8.022,10.981 8.250,11.453 8.379 C 11.792 8.471,12.359 8.472,12.780 8.383 L 12.854 8.367 12.847 10.617 L 12.840 12.867 11.420 12.874 L 10.000 12.880 10.000 12.106 C 10.000 11.112,9.956 10.868,9.704 10.479 C 9.244 9.767,8.434 9.424,7.594 9.584 C 7.071 9.685,6.600 10.009,6.296 10.479 C 6.044 10.868,6.000 11.112,6.000 12.106 L 6.000 12.880 4.580 12.874 L 3.160 12.867 3.153 10.617 L 3.146 8.367 3.220 8.383 C 3.641 8.472,4.208 8.471,4.547 8.379 C 5.023 8.249,5.442 8.016,5.760 7.704 L 5.933 7.533 6.093 7.682 C 6.181 7.764,6.326 7.885,6.416 7.950 M8.344 10.883 C 8.533 10.977,8.672 11.142,8.718 11.325 C 8.735 11.390,8.747 11.739,8.747 12.158 L 8.747 12.880 8.000 12.880 L 7.253 12.880 7.253 12.158 C 7.253 11.739,7.265 11.390,7.282 11.325 C 7.358 11.024,7.664 10.800,8.000 10.800 C 8.146 10.800,8.208 10.815,8.344 10.883 " stroke="none" fill-rule="evenodd" fill="black"></path></svg>