<svg width="16" height="16" viewBox="0 0 16 16" fill="none" xmlns="http://www.w3.org/2000/svg">
<g clip-path="url(#clip0_1459_83)">
<path d="M6.19255 5.31034C6.35939 4.97361 6.61704 4.69023 6.93643 4.4922C7.25581 4.29417 7.6242 4.18938 8 4.18966C8.40028 4.18964 8.79152 4.3087 9.12393 4.53171C9.45634 4.75471 9.71489 5.07156 9.86668 5.44195C10.0185 5.81234 10.0566 6.21951 9.97632 6.61165C9.896 7.0038 9.70084 7.36318 9.41566 7.64407C8.96738 8.08607 8.42228 8.56303 8.15869 9.12338M8 11.8103V11.8193M8 14.5C7.14641 14.5 6.30117 14.3319 5.51256 14.0052C4.72394 13.6786 4.00739 13.1998 3.40381 12.5962C2.80022 11.9926 2.32144 11.2761 1.99478 10.4874C1.66813 9.69883 1.5 8.85359 1.5 8C1.5 7.14641 1.66813 6.30117 1.99478 5.51256C2.32144 4.72394 2.80022 4.00739 3.40381 3.40381C4.00739 2.80023 4.72394 2.32144 5.51256 1.99478C6.30117 1.66813 7.14641 1.5 8 1.5C9.72391 1.5 11.3772 2.18482 12.5962 3.40381C13.8152 4.62279 14.5 6.27609 14.5 8C14.5 9.72391 13.8152 11.3772 12.5962 12.5962C11.3772 13.8152 9.72391 14.5 8 14.5Z" stroke="black" stroke-width="1.4" stroke-linecap="round" stroke-linejoin="round"/>
</g>
<defs>
<clipPath id="clip0_1459_83">
<rect width="16" height="16" fill="white"/>
</clipPath>
</defs>
</svg>
