<svg width="16" height="16" viewBox="0 0 16 16" fill="none" xmlns="http://www.w3.org/2000/svg"><path d="M2.964 1.895 C 2.604 1.942,2.208 2.224,2.028 2.561 C 1.859 2.878,1.868 2.600,1.868 8.000 C 1.868 13.346,1.861 13.113,2.015 13.416 C 2.112 13.609,2.368 13.869,2.561 13.972 C 2.878 14.141,2.600 14.132,8.000 14.132 C 13.400 14.132,13.122 14.141,13.439 13.972 C 13.632 13.869,13.888 13.609,13.985 13.416 C 14.139 13.113,14.132 13.346,14.132 8.000 C 14.132 2.600,14.141 2.878,13.972 2.561 C 13.860 2.351,13.595 2.100,13.380 1.999 C 13.279 1.952,13.130 1.909,13.012 1.894 C 12.768 1.862,3.209 1.864,2.964 1.895 M12.873 5.774 L 12.880 8.416 12.690 8.586 C 12.142 9.077,11.740 9.326,11.224 9.494 C 10.830 9.623,10.545 9.664,10.040 9.664 C 9.550 9.665,9.324 9.627,8.920 9.476 C 8.282 9.238,7.833 8.914,6.948 8.053 C 6.463 7.581,6.392 7.522,6.186 7.420 C 5.880 7.269,5.654 7.218,5.293 7.219 C 4.736 7.221,4.488 7.330,3.693 7.924 L 3.133 8.342 3.126 5.765 C 3.123 4.347,3.125 3.172,3.132 3.153 C 3.142 3.127,4.131 3.121,8.006 3.127 L 12.867 3.133 12.873 5.774 M9.915 3.896 C 9.673 3.921,9.389 4.014,9.178 4.138 C 9.095 4.187,8.918 4.335,8.785 4.467 C 8.579 4.670,8.523 4.745,8.418 4.960 C 8.253 5.295,8.202 5.546,8.220 5.933 C 8.245 6.447,8.424 6.853,8.785 7.215 C 9.147 7.576,9.553 7.755,10.067 7.780 C 10.454 7.798,10.705 7.747,11.040 7.583 C 11.258 7.476,11.329 7.422,11.547 7.203 C 11.755 6.994,11.822 6.905,11.912 6.720 C 12.070 6.398,12.115 6.205,12.117 5.840 C 12.118 5.601,12.105 5.488,12.059 5.325 C 11.786 4.369,10.922 3.792,9.915 3.896 M10.467 5.198 C 10.601 5.257,10.782 5.453,10.829 5.589 C 10.848 5.646,10.863 5.767,10.862 5.858 C 10.858 6.140,10.702 6.367,10.430 6.487 C 10.289 6.550,9.985 6.542,9.853 6.473 C 9.628 6.355,9.467 6.088,9.467 5.832 C 9.466 5.315,9.985 4.986,10.467 5.198 M5.519 8.496 C 5.647 8.534,5.710 8.586,6.171 9.036 C 6.900 9.748,7.350 10.096,7.947 10.408 C 8.897 10.906,9.960 11.048,11.065 10.826 C 11.620 10.714,12.240 10.466,12.680 10.178 L 12.867 10.056 12.874 11.435 C 12.877 12.193,12.875 12.828,12.868 12.847 C 12.858 12.873,11.869 12.879,7.994 12.873 L 3.133 12.867 3.133 11.387 L 3.133 9.907 3.960 9.287 C 4.982 8.522,4.962 8.536,5.085 8.492 C 5.221 8.444,5.348 8.445,5.519 8.496 " stroke="none" fill-rule="evenodd" fill="black"></path></svg>