<svg width="16" height="16" viewBox="0 0 16 16" fill="none" xmlns="http://www.w3.org/2000/svg">
<path fill-rule="evenodd" clip-rule="evenodd" d="M3.72746 2.20999C2.44204 2.20999 1.39999 3.25203 1.39999 4.53746V11.4542C1.39999 12.7396 2.44204 13.7817 3.72746 13.7817H12.2717C13.5571 13.7817 14.5991 12.7396 14.5991 11.4542V4.53746C14.5991 3.25203 13.5571 2.20999 12.2717 2.20999H3.72746ZM2.8 4.53423C2.8 4.5353 2.79999 4.53638 2.79999 4.53746V11.4542C2.79999 11.9664 3.21523 12.3817 3.72746 12.3817H12.2717C12.7839 12.3817 13.1991 11.9664 13.1991 11.4542V4.53746C13.1991 4.53637 13.1991 4.53529 13.1991 4.53421L8.46335 8.72354C8.19852 8.95781 7.80057 8.95781 7.53575 8.72354L2.8 4.53423ZM12.1309 3.60999H3.86818L7.99955 7.26466L12.1309 3.60999Z" fill="black"/>
</svg>
