<svg width="16" height="16" viewBox="0 0 16 16" fill="none" xmlns="http://www.w3.org/2000/svg">
<path fill-rule="evenodd" clip-rule="evenodd" d="M10.613 0.999976C8.18541 0.999976 6.2174 2.96798 6.2174 5.39563C6.2174 5.58025 6.22881 5.76249 6.25104 5.94161L1.20503 10.9876C1.07376 11.1189 1.00001 11.2969 1.00001 11.4826V14.3087C1.00001 14.6953 1.31341 15.0087 1.70001 15.0087H4.52609C4.71174 15.0087 4.88979 14.9349 5.02107 14.8036L5.67324 14.1515C5.80452 14.0202 5.87827 13.8421 5.87827 13.6565V12.8348H6.70001C6.88566 12.8348 7.0637 12.761 7.19498 12.6297L8.28194 11.5428C8.41321 11.4115 8.48696 11.2335 8.48696 11.0478V10.2261H9.3087C9.49435 10.2261 9.6724 10.1523 9.80368 10.021L10.0671 9.75764C10.2462 9.77987 10.4284 9.79128 10.613 9.79128C13.0407 9.79128 15.0087 7.82327 15.0087 5.39563C15.0087 2.96798 13.0407 0.999976 10.613 0.999976ZM7.6174 5.39563C7.6174 3.74118 8.9586 2.39998 10.613 2.39998C12.2675 2.39998 13.6087 3.74118 13.6087 5.39563C13.6087 7.05007 12.2675 8.39128 10.613 8.39128C10.3935 8.39128 10.1802 8.36779 9.97547 8.32342C9.74285 8.27301 9.50055 8.34426 9.33225 8.51257L9.01875 8.82606H7.78696C7.40036 8.82606 7.08696 9.13946 7.08696 9.52606V10.7579L6.41006 11.4348H5.17827C4.79167 11.4348 4.47827 11.7482 4.47827 12.1348V13.3665L4.23614 13.6087H2.40001V11.7725L7.49611 6.67645C7.66441 6.50815 7.73566 6.26586 7.68526 6.03325C7.64089 5.82844 7.6174 5.6152 7.6174 5.39563ZM11.3232 5.29424C11.7393 5.29424 12.0768 4.95682 12.0768 4.54061C12.0768 4.1244 11.7393 3.78699 11.3232 3.78699C10.907 3.78699 10.5696 4.1244 10.5696 4.54061C10.5696 4.95682 10.907 5.29424 11.3232 5.29424Z" fill="black"/>
</svg>
