<svg width="16" height="16" viewBox="0 0 16 16" fill="none" xmlns="http://www.w3.org/2000/svg">
<g clip-path="url(#clip0_1641_24)">
<path fill-rule="evenodd" clip-rule="evenodd" d="M0.5 3.86207L7.99999 0.5L15.5 3.86207C15.5 3.86207 14.8668 15.5 7.99999 15.5C1.1332 15.5 0.5 3.86207 0.5 3.86207ZM10.3333 8.87503H9.16687C8.36127 8.87503 7.70833 9.52797 7.70833 10.3335V11.5001H5.66666V4.49988H10.3333V5.82393C10.1617 5.72444 9.96277 5.66652 9.75 5.66652C9.10571 5.66652 8.58345 6.18897 8.58345 6.83335C8.58345 7.47764 9.10571 8 9.75 8C9.96277 8 10.1617 7.94207 10.3333 7.84259V8.87503Z" fill="black"/>
</g>
<defs>
<clipPath id="clip0_1641_24">
<rect width="16" height="16" fill="white"/>
</clipPath>
</defs>
</svg>
