<svg width="16" height="16" viewBox="0 0 16 16" fill="none" xmlns="http://www.w3.org/2000/svg">
<g clip-path="url(#clip0_12_50)">
<path d="M8 -3.49691e-07C9.05057 -3.95613e-07 10.0909 0.206926 11.0615 0.608963C12.0321 1.011 12.914 1.60028 13.6569 2.34315C14.3997 3.08601 14.989 3.96793 15.391 4.93853C15.7931 5.90914 16 6.94942 16 8L14.4 8C14.4 7.15954 14.2345 6.32731 13.9128 5.55083C13.5912 4.77434 13.1198 4.06881 12.5255 3.47452C11.9312 2.88022 11.2257 2.4088 10.4492 2.08717C9.67269 1.76554 8.84046 1.6 8 1.6L8 -3.49691e-07Z" fill="black"/>
</g>
<defs>
<clipPath id="clip0_12_50">
<rect width="16" height="16" fill="white"/>
</clipPath>
</defs>
</svg>
