<svg width="16" height="16" viewBox="0 0 16 16" fill="none" xmlns="http://www.w3.org/2000/svg"><path d="M4.103 5.664 C 3.864 5.749,3.680 6.003,3.680 6.247 C 3.680 6.491,3.631 6.436,5.544 8.354 C 6.536 9.349,7.395 10.190,7.454 10.225 C 7.729 10.387,8.093 10.413,8.413 10.294 C 8.566 10.236,8.653 10.154,10.407 8.404 C 12.070 6.744,12.244 6.562,12.283 6.444 C 12.451 5.938,11.926 5.463,11.440 5.682 C 11.348 5.723,10.931 6.124,9.660 7.394 L 8.000 9.053 6.340 7.394 C 5.069 6.124,4.652 5.723,4.560 5.682 C 4.423 5.620,4.244 5.613,4.103 5.664 " stroke="none" fill-rule="evenodd" fill="black"></path></svg>