<svg width="16" height="16" viewBox="0 0 16 16" fill="none" xmlns="http://www.w3.org/2000/svg">
<g clip-path="url(#clip0_1431_48)">
<path d="M13.6459 5.75343L14.0336 6.1436L14.0349 6.14227L13.6459 5.75343ZM12.4491 5.75343L12.0601 6.14226L12.0614 6.1436L12.4491 5.75343ZM11.7466 5.05062L11.3566 5.43846L11.3576 5.43944L11.7466 5.05062ZM11.4997 4.45234H10.9497H11.4997ZM11.7466 3.85406L11.3577 3.46515L11.3566 3.46622L11.7466 3.85406ZM13.3369 2.26375L12.9481 1.87467L12.948 1.87484L13.3369 2.26375ZM13.3288 2.22062L13.5493 1.71674L13.5452 1.71501L13.3288 2.22062ZM10.1266 2.84375L10.514 3.23409L10.5141 3.23402L10.1266 2.84375ZM9.56813 5.90625L9.03864 6.05506L9.03866 6.05512L9.56813 5.90625ZM9.32844 6.75437L8.95521 6.35039L8.95405 6.35147L9.32844 6.75437ZM3.92219 11.7781L4.28915 12.1879L4.29658 12.181L3.92219 11.7781ZM5.72125 13.5762L5.31954 13.2004L5.31132 13.2096L5.72125 13.5762ZM10.7884 8.16062L11.1901 8.5364L11.1913 8.53501L10.7884 8.16062ZM11.625 7.92L11.4826 8.45124L11.483 8.45136L11.625 7.92ZM14.6584 7.35937L14.2725 6.96755L14.2725 6.96756L14.6584 7.35937ZM15.2866 4.16156L15.7812 3.921L15.778 3.91464L15.2866 4.16156ZM15.2441 4.15468L14.8555 3.76541L14.8551 3.76585L15.2441 4.15468ZM6.61654 9.26926C6.8343 9.48103 7.1825 9.47619 7.39428 9.25843C7.60606 9.04067 7.60121 8.69247 7.38345 8.48069L6.61654 9.26926ZM6.03125 7.92841L5.6436 8.3186L5.64701 8.32193L6.03125 7.92841ZM5.92718 7.26122L5.44671 6.99355C5.44412 6.99821 5.4416 7.0029 5.43914 7.00762L5.92718 7.26122ZM6.03656 7.11685L5.65256 6.72305L5.64881 6.72678L6.03656 7.11685ZM6.52656 6.63903L6.91058 7.03285L6.91582 7.02759L6.52656 6.63903ZM6.7025 6.5181L6.47988 6.01516L6.47918 6.01548L6.7025 6.5181ZM7.3275 6.63122L6.94271 7.02422L6.94442 7.02588L7.3275 6.63122ZM7.98772 8.04139C8.20528 8.25338 8.55349 8.24886 8.76548 8.03131C8.97746 7.81376 8.97295 7.46554 8.7554 7.25356L7.98772 8.04139ZM10.2831 8.70043C10.0607 8.49352 9.71268 8.50607 9.50576 8.72845C9.29885 8.95084 9.3114 9.29886 9.53379 9.50577L10.2831 8.70043ZM13.3459 12.2097L12.994 12.6323L12.9961 12.6341L13.3459 12.2097ZM13.3753 12.8322L12.9871 12.4426L12.9865 12.4432L13.3753 12.8322ZM12.3322 13.875L12.7166 14.2684L12.721 14.2639L12.3322 13.875ZM11.6981 13.8512L11.2815 14.2103L11.2854 14.2148L11.6981 13.8512ZM8.99327 10.1272C8.78323 9.90773 8.43508 9.90011 8.21564 10.1101C7.9962 10.3202 7.98857 10.6683 8.1986 10.8878L8.99327 10.1272ZM0.541874 6.04688L0.157472 5.65351C0.152559 5.65831 0.147737 5.66321 0.143007 5.66819L0.541874 6.04688ZM1.46094 5.14875L1.84534 5.54212L1.84651 5.54096L1.46094 5.14875ZM1.5675 5.10656L1.55488 5.65642C1.56106 5.65656 1.56724 5.6566 1.57343 5.65653L1.5675 5.10656ZM1.67406 5.14875L2.06091 4.7577L2.05484 4.75188L1.67406 5.14875ZM1.93 5.23531L1.87004 4.6885L1.85995 4.68979L1.93 5.23531ZM2.26031 5.10656L2.63933 5.50514L2.64257 5.50201L2.26031 5.10656ZM2.39594 4.33969L1.95678 4.00837L1.95008 4.01765L2.39594 4.33969ZM3.01406 3.63344L2.6291 3.24062L2.62756 3.24214L3.01406 3.63344ZM5.19844 2.24438L5.40387 2.75457L5.40455 2.7543L5.19844 2.24438ZM6.45844 2L6.45789 2.55H6.45844V2ZM7.90406 2.48969L8.2833 2.09111L8.27329 2.08205L7.90406 2.48969ZM8.22531 2.85344L8.0351 3.3695C8.26318 3.45356 8.51939 3.37794 8.66526 3.18351C8.81113 2.98907 8.81208 2.72194 8.66758 2.52648L8.22531 2.85344ZM7.9375 2.76688L8.06355 2.23138L8.05163 2.22885L7.9375 2.76688ZM7.3125 2.7275L7.35732 3.27567L7.35821 3.2756L7.3125 2.7275ZM6.125 3.165L5.78548 2.7323L5.78369 2.73371L6.125 3.165ZM5.47469 4.56219L4.92536 4.535L4.92532 4.53573L5.47469 4.56219ZM6.60281 6.29625L7.01247 5.92926C7.00577 5.92179 6.99887 5.9145 6.99178 5.9074L6.60281 6.29625ZM6.59219 6.5825L6.21083 6.18612L6.20565 6.19124L6.59219 6.5825ZM6.02281 7.145L6.40788 7.53772L6.40935 7.53627L6.02281 7.145ZM5.72469 7.14781L5.33578 7.53672C5.3395 7.54044 5.34328 7.54411 5.3471 7.54773L5.72469 7.14781ZM3.74656 5.74125L3.80582 5.19443L3.8008 5.19393L3.74656 5.74125ZM3.17562 5.86219L3.4405 6.34427L3.44711 6.34051L3.17562 5.86219ZM3.09312 5.92469L2.70078 5.53922L2.69784 5.54226L3.09312 5.92469ZM3.10625 6.55219L2.72729 6.95082L2.73047 6.9538L3.10625 6.55219ZM3.15969 6.60219L3.54311 6.20773L3.53546 6.20058L3.15969 6.60219ZM3.15969 6.80969L2.77633 6.4153L2.77543 6.41619L3.15969 6.80969ZM2.24156 7.70625L1.85724 7.31269L1.85023 7.31978L2.24156 7.70625ZM2.135 7.75L2.14187 7.19991L2.12954 7.20003L2.135 7.75ZM2.02844 7.70781L1.64426 8.10143L1.648 8.10501L2.02844 7.70781ZM0.541874 6.25688L0.143007 6.63556C0.147813 6.64063 0.152715 6.6456 0.157711 6.65047L0.541874 6.25688ZM0.499969 6.15188H1.04997H0.499969ZM13.2583 5.36327C13.2023 5.41894 13.1265 5.45018 13.0475 5.45018V6.55018C13.417 6.55018 13.7715 6.40402 14.0336 6.1436L13.2583 5.36327ZM13.0475 5.45018C12.9685 5.45018 12.8927 5.41894 12.8367 5.36327L12.0614 6.1436C12.3235 6.40402 12.678 6.55018 13.0475 6.55018V5.45018ZM12.8381 5.36461L12.1356 4.6618L11.3576 5.43944L12.0601 6.14226L12.8381 5.36461ZM12.1365 4.66278C12.0809 4.60686 12.0497 4.5312 12.0497 4.45234H10.9497C10.9497 4.8219 11.096 5.17642 11.3566 5.43846L12.1365 4.66278ZM12.0497 4.45234C12.0497 4.37348 12.0809 4.29782 12.1365 4.24189L11.3566 3.46622C11.096 3.72826 10.9497 4.08279 10.9497 4.45234H12.0497ZM12.1355 4.24297L13.7258 2.65265L12.948 1.87484L11.3577 3.46515L12.1355 4.24297ZM13.7256 2.65282C13.792 2.58647 13.8412 2.50491 13.8689 2.41523L12.818 2.09037C12.8432 2.00896 12.8878 1.93491 12.9481 1.87467L13.7256 2.65282ZM13.8689 2.41523C13.8967 2.32556 13.9021 2.23047 13.8847 2.13821L12.8037 2.34187C12.7879 2.25811 12.7928 2.17177 12.818 2.09037L13.8689 2.41523ZM13.8847 2.13821C13.8673 2.04592 13.8277 1.95932 13.7692 1.8859L12.9086 2.57093C12.8555 2.50427 12.8195 2.42565 12.8037 2.34187L13.8847 2.13821ZM13.7692 1.8859C13.7108 1.81246 13.6353 1.7544 13.5493 1.71676L13.1082 2.72448C13.0302 2.69031 12.9616 2.6376 12.9086 2.57093L13.7692 1.8859ZM13.5452 1.71501C12.3162 1.18884 10.7456 1.45397 9.73903 2.45347L10.5141 3.23402C11.1975 2.55539 12.2888 2.37365 13.1123 2.72623L13.5452 1.71501ZM9.73909 2.45341C8.72527 3.45979 8.71789 4.91383 9.03864 6.05506L10.0976 5.75743C9.82586 4.79053 9.91036 3.83333 10.514 3.23409L9.73909 2.45341ZM9.03866 6.05512C9.05332 6.10724 9.05328 6.16241 9.03855 6.21452L10.0971 6.51367C10.167 6.26644 10.1671 6.0047 10.0976 5.75738L9.03866 6.05512ZM9.03855 6.21452C9.02383 6.26662 8.99498 6.31365 8.95521 6.35039L9.70167 7.15835C9.89038 6.98401 10.0272 6.7609 10.0971 6.51367L9.03855 6.21452ZM8.95405 6.35147L3.5478 11.3752L4.29658 12.181L9.70284 7.15727L8.95405 6.35147ZM3.55529 11.3684C3.37054 11.5338 3.22147 11.7352 3.11719 11.9602L4.11523 12.4227C4.15661 12.3334 4.21577 12.2535 4.28909 12.1879L3.55529 11.3684ZM3.11719 11.9602C3.01291 12.1852 2.95562 12.4291 2.94882 12.677L4.04841 12.7072C4.05111 12.6088 4.07384 12.512 4.11523 12.4227L3.11719 11.9602ZM2.94882 12.677C2.94202 12.9249 2.98586 13.1716 3.07764 13.402L4.09953 12.9949C4.06311 12.9035 4.04571 12.8056 4.04841 12.7072L2.94882 12.677ZM3.07764 13.402C3.16942 13.6324 3.30723 13.8416 3.48264 14.017L4.26025 13.2389C4.19064 13.1694 4.13595 13.0863 4.09953 12.9949L3.07764 13.402ZM3.48264 14.017C3.65805 14.1923 3.86737 14.33 4.0978 14.4216L4.50438 13.3995C4.41293 13.3632 4.32986 13.3085 4.26025 13.2389L3.48264 14.017ZM4.0978 14.4216C4.32824 14.5133 4.57495 14.557 4.82285 14.5501L4.79211 13.4505C4.69373 13.4533 4.59583 13.4359 4.50438 13.3995L4.0978 14.4216ZM4.82285 14.5501C5.07075 14.5431 5.31463 14.4857 5.53959 14.3813L5.07655 13.3835C4.98728 13.425 4.89049 13.4478 4.79211 13.4505L4.82285 14.5501ZM5.53959 14.3813C5.76454 14.2769 5.96585 14.1278 6.13118 13.9429L5.31132 13.2096C5.24571 13.2829 5.16582 13.3421 5.07655 13.3835L5.53959 14.3813ZM6.12287 13.952L11.1901 8.5364L10.3868 7.78485L5.31964 13.2005L6.12287 13.952ZM11.1913 8.53501C11.2277 8.4959 11.274 8.46743 11.3253 8.45267L11.0213 7.39553C10.7778 7.46556 10.558 7.60064 10.3855 7.78623L11.1913 8.53501ZM11.3253 8.45267C11.3766 8.43791 11.431 8.43741 11.4826 8.45124L11.7674 7.38875C11.5227 7.32315 11.2647 7.3255 11.0213 7.39553L11.3253 8.45267ZM11.483 8.45136C12.6146 8.75371 14.0445 8.73625 15.0444 7.75118L14.2725 6.96756C13.6736 7.55749 12.7266 7.64504 11.767 7.38864L11.483 8.45136ZM15.0444 7.75119C15.5726 7.23092 15.8758 6.53213 15.9927 5.85802C16.1085 5.18951 16.0523 4.47847 15.7812 3.92102L14.792 4.40209C14.9371 4.70058 14.9963 5.16533 14.9088 5.67018C14.8223 6.16943 14.6034 6.64157 14.2725 6.96755L15.0444 7.75119ZM15.778 3.91464C15.7371 3.83313 15.6774 3.7625 15.6038 3.70856L14.9533 4.59557C14.8865 4.5466 14.8323 4.48248 14.7951 4.40848L15.778 3.91464ZM15.6038 3.70856C15.5302 3.6546 15.4449 3.61888 15.3549 3.60432L15.1792 4.6902C15.0975 4.67698 15.0201 4.64456 14.9533 4.59557L15.6038 3.70856ZM15.3549 3.60432C15.2649 3.58975 15.1726 3.59676 15.0858 3.62476L15.4235 4.67164C15.3447 4.69707 15.261 4.70343 15.1792 4.6902L15.3549 3.60432ZM15.0858 3.62476C14.999 3.65276 14.9201 3.70096 14.8555 3.76541L15.6326 4.54396C15.574 4.60247 15.5023 4.64622 15.4235 4.67164L15.0858 3.62476ZM14.8551 3.76585L13.257 5.3646L14.0349 6.14227L15.633 4.54352L14.8551 3.76585ZM7.38345 8.48069C6.83717 7.94941 6.59026 7.70554 6.41549 7.53489L5.64701 8.32193C5.8166 8.48753 6.07032 8.73804 6.61654 9.26926L7.38345 8.48069ZM6.41888 7.53823C6.41586 7.53523 6.41387 7.53133 6.41322 7.52712L5.32636 7.69664C5.36314 7.93247 5.47429 8.15037 5.64361 8.31859L6.41888 7.53823ZM6.41322 7.52712C6.41256 7.52291 6.41326 7.5186 6.41523 7.51482L5.43914 7.00762C5.32909 7.21941 5.28957 7.46082 5.32636 7.69664L6.41322 7.52712ZM6.40766 7.52889C6.41215 7.52083 6.41775 7.51343 6.4243 7.50692L5.64881 6.72678C5.5693 6.80581 5.50127 6.89561 5.44671 6.99355L6.40766 7.52889ZM6.42054 7.51062L6.91054 7.03281L6.14258 6.24526L5.65258 6.72307L6.42054 7.51062ZM6.91582 7.02759C6.9187 7.0247 6.92209 7.02237 6.92582 7.02072L6.47918 6.01548C6.35172 6.0721 6.23582 6.15178 6.1373 6.25048L6.91582 7.02759ZM6.92512 7.02103C6.92803 7.01974 6.93127 7.01935 6.9344 7.01992L7.13032 5.93751C6.91062 5.89774 6.68404 5.92479 6.47988 6.01516L6.92512 7.02103ZM6.9344 7.01992C6.93754 7.02049 6.94044 7.02198 6.94272 7.02422L7.71228 6.23823C7.55274 6.08203 7.35002 5.97727 7.13032 5.93751L6.9344 7.01992ZM6.94442 7.02588C7.11432 7.19079 7.42587 7.4939 7.98772 8.04139L8.7554 7.25356C8.19351 6.70604 7.8813 6.40228 7.71057 6.23656L6.94442 7.02588ZM9.53379 9.50577C10.8115 10.6945 12.3747 12.1166 12.994 12.6323L13.6979 11.787C13.1059 11.294 11.5648 9.89293 10.2831 8.70043L9.53379 9.50577ZM12.9961 12.6341C12.9822 12.6226 12.9708 12.6083 12.9627 12.5922L13.9463 12.0996C13.8856 11.9785 13.8003 11.8714 13.6958 11.7853L12.9961 12.6341ZM12.9627 12.5922C12.9546 12.576 12.95 12.5584 12.9492 12.5403L14.0479 12.4885C14.0416 12.3532 14.0069 12.2207 13.9463 12.0996L12.9627 12.5922ZM12.9492 12.5403C12.9483 12.5223 12.9512 12.5043 12.9578 12.4874L13.9833 12.8852C14.0323 12.7589 14.0543 12.6238 14.0479 12.4885L12.9492 12.5403ZM12.9578 12.4874C12.9643 12.4706 12.9743 12.4553 12.9871 12.4426L13.7636 13.2217C13.8595 13.1261 13.9344 13.0115 13.9833 12.8852L12.9578 12.4874ZM12.9865 12.4432L11.9433 13.486L12.721 14.2639L13.7642 13.2211L12.9865 12.4432ZM11.9478 13.4816C11.9587 13.4709 11.9717 13.4626 11.9859 13.4571L12.3819 14.4834C12.5069 14.4351 12.6207 14.362 12.7166 14.2684L11.9478 13.4816ZM11.9859 13.4571C12.0002 13.4516 12.0154 13.4491 12.0306 13.4496L11.9895 14.5489C12.1233 14.5539 12.2569 14.5316 12.3819 14.4834L11.9859 13.4571ZM12.0306 13.4496C12.0459 13.4502 12.0609 13.4539 12.0747 13.4604L11.6031 14.4542C11.7241 14.5116 11.8556 14.5438 11.9895 14.5489L12.0306 13.4496ZM12.0747 13.4604C12.0885 13.467 12.1008 13.4762 12.1109 13.4877L11.2854 14.2148C11.3739 14.3153 11.482 14.3968 11.6031 14.4542L12.0747 13.4604ZM12.1147 13.4922C11.5878 12.8808 10.1864 11.3737 8.99327 10.1272L8.1986 10.8878C9.39176 12.1344 10.7753 13.6229 11.2815 14.2103L12.1147 13.4922ZM0.926277 6.44024L1.84534 5.54212L1.07653 4.75539L0.157472 5.65351L0.926277 6.44024ZM1.84651 5.54096C1.8081 5.57873 1.76249 5.60841 1.7124 5.62824L1.30749 4.60548C1.22079 4.6398 1.14186 4.69117 1.07536 4.75654L1.84651 5.54096ZM1.7124 5.62824C1.6623 5.64808 1.60874 5.65766 1.55488 5.65642L1.58012 4.55671C1.4869 4.55457 1.3942 4.57115 1.30749 4.60548L1.7124 5.62824ZM1.57343 5.65653C1.46913 5.65766 1.36855 5.61784 1.29329 5.54563L2.05484 4.75188C1.92231 4.62473 1.74521 4.55462 1.56157 4.5566L1.57343 5.65653ZM1.28726 5.53976C1.37995 5.63145 1.49232 5.70082 1.61582 5.74259L1.96825 4.70057C2.00306 4.71235 2.03473 4.7319 2.06086 4.75774L1.28726 5.53976ZM1.61582 5.74259C1.73933 5.78436 1.87073 5.79744 2.00005 5.78084L1.85995 4.68979C1.8964 4.68511 1.93344 4.6888 1.96825 4.70057L1.61582 5.74259ZM1.98995 5.78204C2.15307 5.76415 2.42645 5.70755 2.63932 5.50513L1.8813 4.708C1.89618 4.69386 1.90867 4.68575 1.91539 4.68187C1.92203 4.67803 1.92475 4.67731 1.92199 4.67831C1.91932 4.67928 1.91337 4.68117 1.90383 4.68324C1.89437 4.68529 1.883 4.68717 1.87005 4.68859L1.98995 5.78204ZM2.64257 5.50201C2.80324 5.3467 2.86236 5.1619 2.88226 5.01743C2.90002 4.88848 2.88955 4.76238 2.88513 4.70117C2.87909 4.61759 2.87815 4.59325 2.87954 4.57685C2.88008 4.57047 2.8776 4.61216 2.84179 4.66173L1.95008 4.01765C1.83178 4.18144 1.79453 4.35344 1.78347 4.48395C1.77326 4.60443 1.78388 4.72355 1.78799 4.78047C1.79373 4.85978 1.79201 4.87123 1.79254 4.86736C1.79521 4.84798 1.81113 4.77581 1.87805 4.71112L2.64257 5.50201ZM2.835 4.67094C3.00762 4.44213 3.19664 4.22616 3.40057 4.02474L2.62756 3.24214C2.38574 3.481 2.16159 3.7371 1.95688 4.00844L2.835 4.67094ZM3.39902 4.02626C3.55894 3.86954 4.24431 3.22146 5.40387 2.75457L4.99301 1.73418C3.64882 2.27542 2.84419 3.02984 2.6291 3.24062L3.39902 4.02626ZM5.40455 2.7543C5.73924 2.61901 6.0969 2.54965 6.45789 2.55L6.45898 1.45C5.95634 1.44951 5.45834 1.54609 4.99233 1.73446L5.40455 2.7543ZM6.45844 2.55C7.01615 2.55 7.43131 2.80356 7.53484 2.89733L8.27329 2.08205C7.98557 1.82144 7.31259 1.45 6.45844 1.45V2.55ZM7.52494 2.88815C7.61928 2.9779 7.70564 3.07569 7.78305 3.1804L8.66758 2.52648C8.55229 2.37054 8.42368 2.22491 8.28318 2.09123L7.52494 2.88815ZM8.41552 2.33738C8.30045 2.29496 8.1829 2.25961 8.06352 2.23151L7.81148 3.30224C7.88732 3.3201 7.962 3.34256 8.0351 3.3695L8.41552 2.33738ZM8.05163 2.22885C7.79383 2.17416 7.52942 2.1575 7.26679 2.1794L7.35821 3.2756C7.51386 3.26262 7.67057 3.27249 7.82337 3.3049L8.05163 2.22885ZM7.26768 2.17933C6.7566 2.22112 6.14836 2.44758 5.78549 2.7323L6.46451 3.5977C6.63851 3.46118 7.03528 3.30201 7.35732 3.27567L7.26768 2.17933ZM5.78369 2.73371C5.194 3.20037 4.96039 3.8274 4.92536 4.535L6.02401 4.58938C6.04774 4.1101 6.18725 3.81713 6.46631 3.59629L5.78369 2.73371ZM4.92532 4.53573C4.91885 4.67016 4.9201 4.82448 4.95915 4.9952C4.99865 5.16787 5.07018 5.32935 5.17265 5.49401C5.36489 5.8029 5.69623 6.16733 6.21384 6.6851L6.99178 5.9074C6.46627 5.38173 6.22292 5.09976 6.10656 4.91279C6.05474 4.82952 6.0385 4.78071 6.03145 4.74991C6.02396 4.71716 6.0199 4.67484 6.02405 4.58865L4.92532 4.53573ZM6.19315 6.66324C6.13373 6.59691 6.10237 6.51011 6.10568 6.42112L7.20492 6.46192C7.21219 6.26614 7.14319 6.07519 7.01247 5.92926L6.19315 6.66324ZM6.10568 6.42112C6.10898 6.33213 6.14669 6.2479 6.21086 6.18615L6.97351 6.97885C7.11469 6.84302 7.19765 6.6577 7.20492 6.46192L6.10568 6.42112ZM6.20565 6.19124L5.63627 6.75374L6.40935 7.53627L6.97873 6.97377L6.20565 6.19124ZM5.63775 6.75228C5.69959 6.69165 5.78252 6.65732 5.86913 6.6565L5.8795 7.75645C6.07728 7.75458 6.26665 7.67619 6.40787 7.53772L5.63775 6.75228ZM5.86913 6.6565C5.95574 6.65568 6.0393 6.68844 6.10227 6.7479L5.3471 7.54773C5.49091 7.68351 5.68173 7.75832 5.8795 7.75645L5.86913 6.6565ZM6.1136 6.7589C5.41111 6.05642 4.91646 5.67498 4.60389 5.48519L4.03298 6.42544C4.24229 6.55253 4.66701 6.86796 5.33578 7.53672L6.1136 6.7589ZM4.60389 5.48519C4.26952 5.28216 3.98138 5.21348 3.80581 5.19445L3.68731 6.28805C3.71362 6.2909 3.84548 6.31159 4.03298 6.42544L4.60389 5.48519ZM3.8008 5.19393C3.48946 5.16308 3.17622 5.22943 2.90414 5.38386L3.44711 6.34051C3.52152 6.29828 3.60719 6.28013 3.69233 6.28857L3.8008 5.19393ZM2.91077 5.38016C2.8334 5.42267 2.76266 5.47626 2.70079 5.53923L3.48546 6.31014C3.4722 6.32363 3.45705 6.33511 3.44048 6.34422L2.91077 5.38016ZM2.69784 5.54226C2.60676 5.6364 2.53523 5.74765 2.48738 5.86958L3.51135 6.27143C3.50613 6.28473 3.49834 6.29685 3.48841 6.30712L2.69784 5.54226ZM2.48738 5.86958C2.43953 5.99151 2.4163 6.12172 2.41904 6.25268L3.5188 6.22967C3.5191 6.24395 3.51657 6.25814 3.51135 6.27143L2.48738 5.86958ZM2.41904 6.25268C2.42178 6.38363 2.45043 6.51275 2.50334 6.63258L3.50961 6.18826C3.51538 6.20132 3.5185 6.2154 3.5188 6.22967L2.41904 6.25268ZM2.50334 6.63258C2.55625 6.7524 2.63237 6.86056 2.7273 6.95081L3.4852 6.15357C3.49555 6.16341 3.50384 6.1752 3.50961 6.18826L2.50334 6.63258ZM2.73047 6.9538L2.78391 7.0038L3.53546 6.20058L3.48203 6.15058L2.73047 6.9538ZM2.77633 6.99657C2.73747 6.9588 2.70658 6.91362 2.68549 6.8637L3.69875 6.43555C3.66259 6.34999 3.60964 6.27254 3.54304 6.2078L2.77633 6.99657ZM2.68549 6.8637C2.66439 6.81377 2.65353 6.76013 2.65353 6.70594H3.75353C3.75353 6.61306 3.7349 6.52111 3.69875 6.43555L2.68549 6.8637ZM2.65353 6.70594C2.65353 6.65175 2.66439 6.5981 2.68549 6.54818L3.69875 6.97633C3.7349 6.89077 3.75353 6.79882 3.75353 6.70594H2.65353ZM2.68549 6.54818C2.70658 6.49826 2.73747 6.45308 2.77633 6.4153L3.54304 7.20407C3.60965 7.13933 3.66259 7.06189 3.69875 6.97633L2.68549 6.54818ZM2.77543 6.41619L1.8573 7.31275L2.62582 8.09975L3.54395 7.20319L2.77543 6.41619ZM1.85023 7.31978C1.8883 7.28123 1.93375 7.25077 1.98385 7.2302L2.40163 8.24777C2.48835 8.21217 2.56701 8.15944 2.63289 8.09273L1.85023 7.31978ZM1.98385 7.2302C2.03396 7.20962 2.0877 7.19937 2.14187 7.20004L2.12813 8.29996C2.22188 8.30113 2.3149 8.28338 2.40163 8.24777L1.98385 7.2302ZM2.12954 7.20003C2.23352 7.199 2.33378 7.23869 2.40888 7.31062L1.648 8.10501C1.78039 8.23182 1.95714 8.3018 2.14046 8.29997L2.12954 7.20003ZM2.4126 7.31422L0.926038 5.86328L0.157711 6.65047L1.64427 8.10141L2.4126 7.31422ZM0.940742 5.87819C1.01087 5.95205 1.04997 6.05002 1.04997 6.15188H-0.0500305C-0.0500305 6.33188 0.0190682 6.50502 0.143007 6.63556L0.940742 5.87819ZM1.04997 6.15188C1.04997 6.25373 1.01087 6.3517 0.940742 6.42556L0.143007 5.66819C0.0190682 5.79873 -0.0500305 5.97187 -0.0500305 6.15188H1.04997Z" fill="black"/>
</g>
<defs>
<clipPath id="clip0_1431_48">
<rect width="16" height="16" fill="white"/>
</clipPath>
</defs>
</svg>
