<svg width="16" height="16" viewBox="0 0 16 16" fill="none" xmlns="http://www.w3.org/2000/svg"><path d="M7.267 1.949 C 5.889 2.090,4.571 2.609,3.370 3.482 C 2.985 3.762,2.729 3.982,2.337 4.369 C 1.895 4.805,1.833 4.924,1.894 5.216 C 1.920 5.341,1.948 5.390,2.063 5.507 C 2.208 5.657,2.324 5.707,2.520 5.706 C 2.709 5.705,2.846 5.616,3.213 5.258 C 4.411 4.086,5.775 3.394,7.250 3.211 C 7.645 3.163,8.355 3.163,8.750 3.211 C 9.745 3.335,10.699 3.695,11.595 4.285 C 12.016 4.563,12.381 4.861,12.787 5.258 C 13.154 5.616,13.291 5.705,13.480 5.706 C 13.676 5.707,13.792 5.657,13.937 5.507 C 14.052 5.390,14.080 5.341,14.106 5.216 C 14.167 4.924,14.105 4.806,13.662 4.369 C 13.270 3.981,13.013 3.761,12.630 3.482 C 11.414 2.598,10.106 2.088,8.697 1.947 C 8.380 1.916,7.581 1.917,7.267 1.949 M2.346 8.077 C 1.954 8.205,1.767 8.605,1.941 8.947 C 2.029 9.121,2.560 9.642,3.047 10.034 C 3.496 10.395,4.006 10.729,4.471 10.967 C 4.593 11.029,4.693 11.090,4.693 11.102 C 4.693 11.115,4.520 11.412,4.307 11.763 C 4.095 12.114,3.908 12.451,3.892 12.511 C 3.816 12.795,3.994 13.123,4.287 13.236 C 4.528 13.329,4.822 13.250,4.977 13.050 C 5.021 12.993,5.247 12.631,5.480 12.246 C 5.806 11.706,5.913 11.548,5.945 11.561 C 6.117 11.628,6.861 11.775,7.177 11.804 L 7.356 11.821 7.365 12.731 L 7.373 13.642 7.441 13.774 C 7.580 14.043,7.883 14.179,8.162 14.097 C 8.345 14.044,8.484 13.929,8.564 13.767 C 8.625 13.643,8.627 13.622,8.635 12.732 L 8.644 11.824 8.929 11.791 C 9.085 11.772,9.351 11.727,9.520 11.691 C 9.689 11.654,9.863 11.618,9.907 11.610 C 9.986 11.595,9.997 11.608,10.511 12.337 C 10.799 12.746,11.056 13.100,11.084 13.123 C 11.231 13.252,11.480 13.307,11.675 13.255 C 11.813 13.218,11.983 13.071,12.061 12.922 C 12.135 12.781,12.138 12.532,12.069 12.400 C 12.042 12.349,11.834 12.044,11.608 11.724 C 11.382 11.403,11.201 11.138,11.205 11.135 C 11.210 11.131,11.357 11.054,11.533 10.962 C 12.056 10.690,12.492 10.405,12.953 10.034 C 13.427 9.653,13.974 9.115,14.060 8.947 C 14.209 8.652,14.084 8.288,13.777 8.127 C 13.634 8.051,13.363 8.048,13.227 8.119 C 13.176 8.146,12.972 8.325,12.774 8.517 C 12.336 8.942,12.070 9.158,11.605 9.468 C 10.716 10.061,9.768 10.420,8.720 10.562 C 8.418 10.603,7.596 10.603,7.280 10.561 C 6.247 10.426,5.287 10.062,4.395 9.468 C 3.930 9.158,3.664 8.942,3.226 8.517 C 3.028 8.325,2.828 8.148,2.782 8.124 C 2.682 8.073,2.440 8.046,2.346 8.077 " stroke="none" fill-rule="evenodd" fill="black"></path></svg>