<svg width="16" height="16" viewBox="0 0 16 16" fill="none" xmlns="http://www.w3.org/2000/svg"><path d="M7.852 0.562 C 7.650 0.588,7.482 0.675,7.326 0.832 C 7.196 0.964,7.128 1.095,6.346 2.730 C 5.757 3.962,5.491 4.493,5.453 4.508 C 5.424 4.520,4.556 4.640,3.524 4.774 C 2.493 4.908,1.593 5.035,1.524 5.056 C 1.362 5.105,1.170 5.249,1.056 5.406 C 0.854 5.684,0.825 6.063,0.982 6.381 C 1.057 6.534,1.189 6.666,2.505 7.908 C 3.439 8.789,3.941 9.281,3.934 9.307 C 3.928 9.329,3.769 10.163,3.582 11.160 C 3.192 13.240,3.187 13.286,3.328 13.578 C 3.467 13.866,3.716 14.050,4.049 14.112 C 4.345 14.167,4.391 14.147,6.266 13.134 C 7.205 12.628,7.985 12.213,8.000 12.213 C 8.016 12.213,8.795 12.628,9.733 13.134 C 11.608 14.147,11.654 14.167,11.951 14.112 C 12.284 14.050,12.533 13.866,12.672 13.578 C 12.812 13.287,12.808 13.240,12.418 11.160 C 12.231 10.163,12.072 9.329,12.066 9.306 C 12.058 9.280,12.550 8.798,13.495 7.908 C 14.812 6.665,14.942 6.535,15.018 6.382 C 15.175 6.063,15.146 5.684,14.944 5.406 C 14.830 5.249,14.638 5.105,14.476 5.056 C 14.407 5.035,13.507 4.908,12.476 4.774 C 11.444 4.640,10.576 4.520,10.547 4.508 C 10.509 4.493,10.243 3.962,9.654 2.730 C 8.843 1.034,8.809 0.968,8.663 0.823 C 8.442 0.604,8.178 0.519,7.852 0.562 M8.749 3.738 C 9.151 4.577,9.518 5.313,9.565 5.375 C 9.672 5.514,9.864 5.644,10.039 5.694 C 10.142 5.723,13.361 6.160,13.474 6.160 C 13.487 6.160,13.494 6.170,13.489 6.181 C 13.484 6.193,12.930 6.722,12.258 7.358 C 11.586 7.993,11.002 8.560,10.959 8.618 C 10.847 8.774,10.787 8.971,10.793 9.173 C 10.795 9.269,10.934 10.079,11.102 10.973 C 11.270 11.868,11.405 12.603,11.403 12.606 C 11.400 12.609,10.774 12.275,10.012 11.863 C 8.186 10.876,8.281 10.920,8.000 10.920 C 7.718 10.920,7.810 10.877,5.988 11.863 C 5.226 12.275,4.600 12.609,4.597 12.606 C 4.594 12.603,4.729 11.868,4.897 10.973 C 5.066 10.079,5.205 9.269,5.207 9.173 C 5.210 8.970,5.151 8.770,5.041 8.618 C 4.998 8.560,4.414 7.993,3.742 7.358 C 3.070 6.722,2.516 6.193,2.511 6.181 C 2.506 6.170,2.513 6.160,2.526 6.160 C 2.639 6.160,5.858 5.723,5.961 5.694 C 6.136 5.644,6.329 5.514,6.435 5.375 C 6.482 5.313,6.849 4.577,7.251 3.738 C 7.654 2.899,7.990 2.213,8.000 2.213 C 8.010 2.213,8.347 2.899,8.749 3.738 " stroke="none" fill-rule="evenodd" fill="black"></path></svg>