<svg width="16" height="16" viewBox="0 0 16 16" fill="none" xmlns="http://www.w3.org/2000/svg">
<path d="M11.1931 5.08246C11.2782 4.99487 11.3941 4.94384 11.5162 4.94021C11.6108 4.93742 11.7041 4.96328 11.7838 5.01442C11.8635 5.06556 11.9259 5.13959 11.9628 5.2268C11.9997 5.31401 12.0094 5.41033 11.9907 5.50315C11.9719 5.59596 11.9255 5.68094 11.8576 5.74695L6.6886 10.916C6.60047 11.004 6.48096 11.0535 6.35636 11.0535C6.23175 11.0535 6.11225 11.004 6.02412 10.916L4.14448 9.03632C4.09938 8.99302 4.06337 8.94115 4.03857 8.88376C4.01376 8.82637 4.00066 8.76461 4.00002 8.7021C3.99939 8.63958 4.01123 8.57756 4.03486 8.51968C4.0585 8.4618 4.09344 8.40921 4.13765 8.365C4.18186 8.3208 4.23444 8.28585 4.29232 8.26222C4.35021 8.23859 4.41222 8.22675 4.47474 8.22738C4.53726 8.22802 4.59902 8.24112 4.65641 8.26593C4.7138 8.29073 4.76566 8.32674 4.80896 8.37183L6.35636 9.91923L11.1931 5.08246Z" fill="#2D2D2D" stroke="#2D2D2D" stroke-width="0.5"/>
</svg>
