<svg width="16" height="16" viewBox="0 0 16 16" fill="none" xmlns="http://www.w3.org/2000/svg">
<g clip-path="url(#clip0_42_94)">
<path fill-rule="evenodd" clip-rule="evenodd" d="M8.28514 0.391245C8.10298 0.309587 7.89463 0.309587 7.71246 0.391245L0.741639 3.5161C0.505287 3.62205 0.346758 3.84985 0.329529 4.10829L1.02798 4.15485C0.329529 4.10829 0.32951 4.10857 0.329489 4.1089L0.329432 4.10976L0.329274 4.11221L0.328785 4.12006L0.327209 4.14731C0.325927 4.17052 0.324231 4.20373 0.322403 4.24629C0.318747 4.33137 0.314559 4.4539 0.312104 4.60853C0.307199 4.91759 0.309201 5.3561 0.336429 5.88123C0.390678 6.92745 0.545978 8.3368 0.956412 9.75753C1.36545 11.1734 2.04161 12.6485 3.1696 13.7765C4.31578 14.9227 5.89135 15.6717 7.9988 15.6717C10.1063 15.6717 11.6818 14.9227 12.828 13.7765C13.956 12.6485 14.6322 11.1734 15.0412 9.75753C15.4516 8.3368 15.6069 6.92745 15.6612 5.88123C15.6884 5.3561 15.6904 4.91759 15.6855 4.60853C15.683 4.4539 15.6789 4.33137 15.6752 4.24629C15.6734 4.20373 15.6717 4.17052 15.6704 4.14731L15.6688 4.12006L15.6683 4.11221L15.6682 4.10976L15.6681 4.1089C15.6681 4.10857 15.6681 4.10829 14.9696 4.15485L15.6681 4.10829C15.6508 3.84985 15.4923 3.62205 15.256 3.5161L8.28514 0.391245ZM1.71193 4.63075L1.71218 4.61526L7.9988 1.79712L14.2854 4.61526L14.2857 4.63075C14.2902 4.91323 14.2884 5.31978 14.2631 5.80873C14.2121 6.79066 14.067 8.08551 13.6962 9.36898C13.324 10.6573 12.7382 11.8864 11.8381 12.7866C10.9561 13.6685 9.73732 14.2717 7.9988 14.2717C6.26029 14.2717 5.04151 13.6685 4.15955 12.7866C3.25938 11.8864 2.67359 10.6573 2.30141 9.36898C1.93063 8.08551 1.78547 6.79066 1.73455 5.80873C1.7092 5.31978 1.70744 4.91323 1.71193 4.63075ZM10.7296 6.2473C10.956 5.93389 10.8854 5.49633 10.572 5.26998C10.2586 5.04363 9.82102 5.11421 9.59467 5.42761L6.99777 9.02332L6.37318 8.27381C6.12568 7.97681 5.68429 7.93669 5.38729 8.18418C5.0903 8.43168 5.05017 8.87307 5.29767 9.17007L6.49954 10.6123C6.63797 10.7784 6.84541 10.8712 7.06152 10.8638C7.27764 10.8563 7.47816 10.7493 7.60477 10.574L10.7296 6.2473Z" fill="#0E1438"/>
</g>
<defs>
<clipPath id="clip0_42_94">
<rect width="16" height="16" fill="white"/>
</clipPath>
</defs>
</svg>
