<svg width="16" height="16" viewBox="0 0 16 16" fill="none" xmlns="http://www.w3.org/2000/svg">
<path fill-rule="evenodd" clip-rule="evenodd" d="M1.4 3.75001C1.4 3.55671 1.5567 3.40001 1.75 3.40001H8H14.25C14.4433 3.40001 14.6 3.55671 14.6 3.75001V12.25C14.6 12.4433 14.4433 12.6 14.25 12.6H8.56019C8.32682 11.8533 7.97777 11.066 7.53812 10.4332C7.32122 10.121 7.05255 9.80474 6.7344 9.55864C7.43275 9.139 7.9 8.37407 7.9 7.50001C7.9 6.17452 6.82548 5.10001 5.5 5.10001C4.17452 5.10001 3.1 6.17452 3.1 7.50001C3.1 8.37405 3.56723 9.13897 4.26555 9.55862C3.94738 9.80472 3.6787 10.121 3.46179 10.4332C3.02215 11.066 2.67309 11.8533 2.43972 12.6H1.75C1.5567 12.6 1.4 12.4433 1.4 12.25V3.75001ZM6.4705 11.1749C6.74888 11.5756 6.99548 12.0797 7.18737 12.6H3.81255C4.00444 12.0797 4.25104 11.5756 4.52942 11.1749C4.93712 10.5881 5.28424 10.4 5.49996 10.4C5.71568 10.4 6.0628 10.5881 6.4705 11.1749ZM1.75 2.10001C0.838729 2.10001 0.0999985 2.83874 0.0999985 3.75001V12.25C0.0999985 13.1613 0.838728 13.9 1.75 13.9H14.25C15.1613 13.9 15.9 13.1613 15.9 12.25V3.75001C15.9 2.83874 15.1613 2.10001 14.25 2.10001H8H1.75ZM4.4 7.50001C4.4 6.89249 4.89249 6.40001 5.5 6.40001C6.10751 6.40001 6.6 6.89249 6.6 7.50001C6.6 8.10752 6.10751 8.60001 5.5 8.60001C4.89249 8.60001 4.4 8.10752 4.4 7.50001ZM10.75 6.10001C10.391 6.10001 10.1 6.39102 10.1 6.75001C10.1 7.10899 10.391 7.40001 10.75 7.40001H12.25C12.609 7.40001 12.9 7.10899 12.9 6.75001C12.9 6.39102 12.609 6.10001 12.25 6.10001H10.75ZM10.75 9.10001C10.391 9.10001 10.1 9.39102 10.1 9.75001C10.1 10.109 10.391 10.4 10.75 10.4H12.25C12.609 10.4 12.9 10.109 12.9 9.75001C12.9 9.39102 12.609 9.10001 12.25 9.10001H10.75Z" fill="#0E1438"/>
</svg>
