<svg width="16" height="16" viewBox="0 0 16 16" fill="none" xmlns="http://www.w3.org/2000/svg">
<path fill-rule="evenodd" clip-rule="evenodd" d="M2.92999 3.11195C2.92999 2.49784 3.42783 2 4.04194 2H5.15388V13.0682H4.04194C3.42782 13.0682 2.92999 12.5703 2.92999 11.9562V3.11195ZM5.15388 14.5682V14.7491C5.15388 15.1633 5.48966 15.4991 5.90388 15.4991C6.31809 15.4991 6.65388 15.1633 6.65388 14.7491V14.5682H11.9554C13.398 14.5682 14.5674 13.3988 14.5674 11.9562V3.11195C14.5674 1.66942 13.398 0.5 11.9554 0.5H5.90388H4.04194C2.5994 0.5 1.42999 1.66941 1.42999 3.11195V11.9562C1.42999 13.3988 2.59941 14.5682 4.04194 14.5682H5.15388ZM6.65388 2H11.9554C12.5695 2 13.0674 2.49783 13.0674 3.11195V11.9562C13.0674 12.5704 12.5696 13.0682 11.9554 13.0682H6.65388V2ZM9.62779 4.22389C9.21358 4.22389 8.87779 4.55967 8.87779 4.97389C8.87779 5.3881 9.21358 5.72389 9.62779 5.72389H10.093C10.5072 5.72389 10.843 5.3881 10.843 4.97389C10.843 4.55967 10.5072 4.22389 10.093 4.22389H9.62779ZM8.87779 7.76682C8.87779 7.3526 9.21358 7.01682 9.62779 7.01682H10.093C10.5072 7.01682 10.843 7.3526 10.843 7.76682C10.843 8.18103 10.5072 8.51682 10.093 8.51682H9.62779C9.21358 8.51682 8.87779 8.18103 8.87779 7.76682Z" fill="black"/>
</svg>
