<svg width="16" height="16" viewBox="0 0 16 16" fill="none" xmlns="http://www.w3.org/2000/svg"><path d="M7.667 1.466 C 7.374 1.544,2.911 3.086,2.747 3.166 C 2.464 3.303,2.222 3.586,2.102 3.920 L 2.040 4.093 2.040 6.253 C 2.041 8.182,2.046 8.448,2.088 8.733 C 2.256 9.865,2.683 10.807,3.419 11.667 C 4.191 12.569,5.303 13.361,7.332 14.454 C 7.751 14.680,7.813 14.706,7.963 14.715 C 8.165 14.728,8.208 14.710,8.965 14.292 C 10.503 13.443,11.324 12.890,12.065 12.205 C 12.900 11.433,13.509 10.444,13.770 9.436 C 13.953 8.729,13.979 8.256,13.968 5.907 L 13.960 4.093 13.898 3.920 C 13.779 3.587,13.536 3.303,13.253 3.166 C 13.078 3.080,8.510 1.507,8.280 1.452 C 8.068 1.402,7.893 1.406,7.667 1.466 M10.344 3.467 C 11.624 3.907,12.677 4.267,12.683 4.267 C 12.690 4.267,12.691 5.248,12.686 6.447 C 12.677 8.587,12.676 8.631,12.618 8.893 C 12.459 9.602,12.179 10.184,11.732 10.733 C 11.239 11.340,10.476 11.958,9.480 12.560 C 9.088 12.797,8.032 13.387,8.000 13.387 C 7.968 13.387,6.912 12.797,6.520 12.560 C 4.619 11.411,3.694 10.331,3.381 8.892 C 3.325 8.634,3.323 8.563,3.314 6.451 L 3.304 4.275 4.379 3.906 C 4.970 3.703,6.017 3.342,6.707 3.103 C 7.396 2.865,7.973 2.669,7.989 2.668 C 8.005 2.667,9.065 3.027,10.344 3.467 M8.135 4.405 C 8.015 4.439,7.860 4.551,7.792 4.653 C 7.522 5.055,6.276 7.160,6.245 7.266 C 6.212 7.377,6.211 7.427,6.238 7.557 C 6.256 7.643,6.290 7.745,6.313 7.784 C 6.388 7.904,6.543 8.056,6.653 8.116 C 6.756 8.171,6.796 8.174,7.633 8.181 C 8.114 8.186,8.507 8.196,8.507 8.203 C 8.507 8.211,8.163 8.765,7.742 9.435 C 7.322 10.105,6.956 10.701,6.930 10.760 C 6.716 11.230,7.182 11.746,7.684 11.596 C 7.896 11.532,7.958 11.447,9.028 9.742 C 9.596 8.837,10.075 8.060,10.094 8.015 C 10.159 7.859,10.168 7.695,10.120 7.529 C 10.049 7.283,9.927 7.138,9.693 7.025 C 9.561 6.961,9.555 6.961,8.713 6.960 C 8.248 6.960,7.867 6.955,7.867 6.948 C 7.867 6.942,8.084 6.579,8.350 6.142 C 8.616 5.704,8.856 5.299,8.883 5.240 C 8.952 5.090,8.947 4.896,8.869 4.730 C 8.796 4.572,8.668 4.465,8.490 4.411 C 8.348 4.368,8.266 4.367,8.135 4.405 " stroke="none" fill-rule="evenodd" fill="black"></path></svg>