<svg width="16" height="16" viewBox="0 0 16 16" fill="none" xmlns="http://www.w3.org/2000/svg">
<path fill-rule="evenodd" clip-rule="evenodd" d="M7.99755 1.96001C8.32892 1.96001 8.59755 2.22864 8.59755 2.56001V2.74367C11.0383 3.01935 12.9757 4.95673 13.2514 7.39751H13.435C13.7664 7.39751 14.035 7.66614 14.035 7.99751C14.035 8.32888 13.7664 8.59751 13.435 8.59751H13.2514C12.9757 11.0383 11.0383 12.9757 8.59755 13.2513V13.435C8.59755 13.7664 8.32892 14.035 7.99755 14.035C7.66618 14.035 7.39755 13.7664 7.39755 13.435V13.2513C4.95678 12.9757 3.0194 11.0383 2.74372 8.59751H2.56001C2.22864 8.59751 1.96001 8.32888 1.96001 7.99751C1.96001 7.66614 2.22864 7.39751 2.56001 7.39751H2.74372C3.0194 4.95673 4.95678 3.01935 7.39755 2.74367V2.56001C7.39755 2.22864 7.66618 1.96001 7.99755 1.96001ZM3.95378 8.59751H5.93501C6.26638 8.59751 6.53501 8.32888 6.53501 7.99751C6.53501 7.66614 6.26638 7.39751 5.93501 7.39751H3.95378C4.2152 5.62032 5.62036 4.21516 7.39755 3.95373V5.93501C7.39755 6.26638 7.66618 6.53501 7.99755 6.53501C8.32892 6.53501 8.59755 6.26638 8.59755 5.93501V3.95373C10.3747 4.21516 11.7799 5.62032 12.0413 7.39751H10.06C9.72864 7.39751 9.46001 7.66614 9.46001 7.99751C9.46001 8.32888 9.72864 8.59751 10.06 8.59751H12.0413C11.7799 10.3747 10.3747 11.7799 8.59755 12.0413V10.06C8.59755 9.72864 8.32892 9.46001 7.99755 9.46001C7.66618 9.46001 7.39755 9.72864 7.39755 10.06V12.0413C5.62036 11.7799 4.2152 10.3747 3.95378 8.59751Z" fill="#0E1438"/>
</svg>
