<svg width="16" height="16" viewBox="0 0 16 16" fill="none" xmlns="http://www.w3.org/2000/svg"><path d="M7.569 1.229 C 5.699 1.337,3.892 2.271,2.715 3.738 C 1.488 5.267,0.973 7.242,1.305 9.147 C 1.658 11.170,2.895 12.919,4.688 13.931 C 6.008 14.676,7.646 14.957,9.147 14.695 C 11.546 14.276,13.536 12.620,14.373 10.345 C 15.124 8.305,14.854 6.032,13.645 4.227 C 13.295 3.703,12.759 3.114,12.287 2.734 C 11.220 1.874,9.818 1.312,8.560 1.240 C 8.025 1.209,7.923 1.208,7.569 1.229 M8.826 2.523 C 11.211 2.870,13.106 4.769,13.481 7.188 C 13.543 7.587,13.543 8.413,13.481 8.812 C 13.179 10.761,11.898 12.393,10.091 13.130 C 8.067 13.956,5.758 13.519,4.189 12.014 C 3.275 11.137,2.711 10.056,2.519 8.812 C 2.487 8.612,2.473 8.357,2.473 8.000 C 2.473 7.422,2.513 7.094,2.642 6.592 C 3.220 4.351,5.214 2.672,7.526 2.480 C 7.874 2.451,8.466 2.471,8.826 2.523 M6.964 4.562 C 6.445 4.629,5.984 5.089,5.893 5.630 C 5.849 5.888,5.870 6.304,5.932 6.427 C 6.172 6.899,6.809 6.910,7.059 6.445 C 7.091 6.387,7.110 6.272,7.119 6.080 L 7.133 5.800 8.000 5.800 L 8.867 5.800 8.874 6.233 L 8.881 6.665 8.362 7.012 C 7.817 7.376,7.696 7.477,7.569 7.677 C 7.423 7.907,7.376 8.125,7.374 8.573 C 7.373 8.940,7.379 8.984,7.436 9.100 C 7.563 9.359,7.853 9.502,8.125 9.441 C 8.308 9.400,8.472 9.275,8.556 9.112 C 8.612 9.003,8.623 8.938,8.634 8.654 L 8.647 8.324 9.116 8.011 C 9.776 7.571,9.921 7.423,10.059 7.045 C 10.107 6.915,10.117 6.815,10.127 6.355 C 10.135 6.004,10.128 5.751,10.107 5.627 C 10.014 5.076,9.557 4.631,9.012 4.561 C 8.774 4.530,7.204 4.531,6.964 4.562 M7.865 9.895 C 7.245 9.993,7.000 10.764,7.445 11.218 C 7.932 11.715,8.784 11.364,8.783 10.667 C 8.782 10.179,8.353 9.818,7.865 9.895 " stroke="none" fill-rule="evenodd" fill="black"></path></svg>