<svg width="16" height="16" viewBox="0 0 16 16" fill="none" xmlns="http://www.w3.org/2000/svg"><path d="M2.964 1.895 C 2.450 1.962,1.984 2.423,1.894 2.954 C 1.873 3.080,1.866 3.481,1.873 4.229 C 1.882 5.274,1.885 5.327,1.941 5.476 C 1.973 5.562,2.025 5.676,2.057 5.729 C 2.089 5.783,2.959 6.673,3.990 7.707 L 5.865 9.587 5.873 11.960 L 5.880 14.333 5.938 14.440 C 6.041 14.632,6.206 14.750,6.420 14.786 C 6.518 14.802,6.757 14.743,8.154 14.356 C 9.945 13.859,9.921 13.869,10.052 13.614 L 10.120 13.481 10.127 11.534 L 10.134 9.587 12.010 7.707 C 13.041 6.673,13.911 5.783,13.943 5.729 C 13.975 5.676,14.027 5.562,14.059 5.476 C 14.115 5.327,14.118 5.274,14.127 4.229 C 14.134 3.481,14.127 3.080,14.106 2.954 C 14.014 2.410,13.554 1.964,13.012 1.894 C 12.768 1.862,3.209 1.864,2.964 1.895 M12.874 4.106 L 12.881 5.078 10.991 6.972 C 9.952 8.014,9.076 8.910,9.044 8.963 C 8.888 9.226,8.895 9.141,8.880 11.077 L 8.867 12.862 8.027 13.096 C 7.565 13.225,7.172 13.332,7.153 13.332 C 7.127 13.333,7.120 12.925,7.120 11.379 C 7.120 9.252,7.120 9.252,6.969 8.987 C 6.927 8.914,6.154 8.119,5.010 6.973 L 3.120 5.079 3.120 4.117 C 3.120 3.588,3.128 3.148,3.138 3.138 C 3.148 3.128,5.341 3.123,8.011 3.127 L 12.867 3.133 12.874 4.106 " stroke="none" fill-rule="evenodd" fill="black"></path></svg>