<svg width="16" height="16" viewBox="0 0 16 16" fill="none" xmlns="http://www.w3.org/2000/svg">
<path fill-rule="evenodd" clip-rule="evenodd" d="M7.25547 13.3713C7.25547 13.7855 7.59125 14.1213 8.00547 14.1213C8.41968 14.1213 8.75547 13.7855 8.75547 13.3713L8.75547 4.51192L11.3484 7.22834C11.6344 7.52796 12.1092 7.53901 12.4088 7.253C12.7084 6.967 12.7194 6.49225 12.4334 6.19263L8.54798 2.12214C8.40646 1.97388 8.21043 1.89 8.00547 1.89C7.8005 1.89 7.60447 1.97388 7.46295 2.12214L3.57749 6.19263C3.29148 6.49225 3.30252 6.967 3.60215 7.253C3.90177 7.53901 4.37652 7.52796 4.66252 7.22834L7.25547 4.51192L7.25547 13.3713Z" fill="black"/>
</svg>
