<svg width="16" height="16" viewBox="0 0 16 16" fill="none" xmlns="http://www.w3.org/2000/svg">
<path fill-rule="evenodd" clip-rule="evenodd" d="M5.92661 2.22512C5.92661 2.10079 6.02739 2.00001 6.15172 2.00001H9.85216C9.97648 2.00001 10.0773 2.10079 10.0773 2.22512L10.0773 3.15023L10.0773 3.61278C10.0773 3.73711 9.97648 3.83789 9.85216 3.83789H6.15172C6.02739 3.83789 5.92661 3.73711 5.92661 3.61278V3.15105L5.92661 3.15023L5.92661 3.1494V2.22512ZM4.52661 2.45023V2.22512C4.52661 1.32759 5.25419 0.600006 6.15172 0.600006H9.85216C10.7497 0.600006 11.4773 1.32759 11.4773 2.22512V2.45023H11.9337C13.3421 2.45023 14.4839 3.592 14.4839 5.00045V12.8639C14.4839 14.2723 13.3421 15.4141 11.9337 15.4141H4.07022C2.66177 15.4141 1.52 14.2723 1.52 12.8639V5.00045C1.52 3.592 2.66177 2.45023 4.07022 2.45023H4.52661ZM4.54383 3.85023H4.07022C3.43497 3.85023 2.92 4.3652 2.92 5.00045V12.8639C2.92 13.4991 3.43497 14.0141 4.07022 14.0141H11.9337C12.5689 14.0141 13.0839 13.4991 13.0839 12.8639V5.00045C13.0839 4.3652 12.5689 3.85023 11.9337 3.85023H11.46C11.3451 4.6352 10.669 5.23789 9.85216 5.23789H6.15172C5.33485 5.23789 4.65875 4.6352 4.54383 3.85023ZM5.22044 8.23833C5.22044 7.85173 5.53384 7.53833 5.92044 7.53833H10.0834C10.47 7.53833 10.7834 7.85173 10.7834 8.23833C10.7834 8.62493 10.47 8.93833 10.0834 8.93833H5.92044C5.53384 8.93833 5.22044 8.62493 5.22044 8.23833ZM5.92044 10.3137C5.53384 10.3137 5.22044 10.6271 5.22044 11.0137C5.22044 11.4003 5.53384 11.7137 5.92044 11.7137H10.0834C10.47 11.7137 10.7834 11.4003 10.7834 11.0137C10.7834 10.6271 10.47 10.3137 10.0834 10.3137H5.92044Z" fill="#2D2D2D"/>
</svg>
