<svg width="16" height="16" viewBox="0 0 16 16" fill="none" xmlns="http://www.w3.org/2000/svg"><path d="M7.560 1.403 C 7.531 1.410,7.411 1.434,7.293 1.456 C 6.071 1.690,5.035 2.649,4.682 3.876 C 4.572 4.257,4.556 4.403,4.541 5.153 L 4.527 5.867 4.190 5.867 C 4.005 5.868,3.763 5.880,3.653 5.894 C 3.138 5.960,2.697 6.364,2.574 6.882 C 2.515 7.137,2.514 13.527,2.574 13.781 C 2.630 14.020,2.731 14.201,2.911 14.390 C 3.098 14.584,3.317 14.708,3.566 14.761 C 3.836 14.818,12.164 14.818,12.434 14.761 C 12.683 14.708,12.902 14.584,13.089 14.390 C 13.274 14.196,13.376 14.008,13.428 13.763 C 13.485 13.498,13.484 7.165,13.427 6.899 C 13.374 6.649,13.250 6.431,13.052 6.241 C 12.747 5.948,12.484 5.869,11.807 5.867 L 11.467 5.867 11.467 5.323 C 11.467 4.673,11.434 4.314,11.345 3.975 C 11.008 2.698,10.013 1.742,8.720 1.453 C 8.526 1.409,7.684 1.373,7.560 1.403 M8.680 2.729 C 9.246 2.914,9.759 3.375,10.011 3.924 C 10.165 4.261,10.193 4.441,10.207 5.193 L 10.220 5.867 8.000 5.867 L 5.780 5.867 5.795 5.180 C 5.811 4.414,5.835 4.257,5.986 3.929 C 6.275 3.303,6.853 2.828,7.507 2.678 C 7.616 2.653,7.793 2.644,8.067 2.650 C 8.411 2.658,8.497 2.669,8.680 2.729 M12.200 10.333 L 12.200 13.533 8.000 13.533 L 3.800 13.533 3.793 10.360 C 3.789 8.615,3.792 7.172,3.799 7.153 C 3.809 7.127,4.665 7.121,8.006 7.127 L 12.200 7.133 12.200 10.333 M7.747 8.772 C 7.541 8.871,7.430 9.016,7.389 9.238 C 7.350 9.449,7.350 11.218,7.389 11.428 C 7.444 11.724,7.650 11.917,7.935 11.940 C 8.227 11.964,8.449 11.835,8.571 11.573 C 8.625 11.458,8.627 11.414,8.627 10.333 C 8.627 9.251,8.625 9.209,8.571 9.093 C 8.421 8.773,8.048 8.628,7.747 8.772 " stroke="none" fill-rule="evenodd" fill="black"></path></svg>