<svg width="16" height="16" viewBox="0 0 16 16" fill="none" xmlns="http://www.w3.org/2000/svg"><path d="M7.680 0.397 C 7.492 0.458,7.356 0.572,7.263 0.747 C 7.218 0.831,7.213 0.920,7.205 1.633 L 7.197 2.427 7.125 2.427 C 7.021 2.427,6.665 2.498,6.373 2.576 C 5.735 2.749,5.049 3.092,4.493 3.516 C 4.277 3.681,3.818 4.128,3.614 4.373 C 3.029 5.073,2.611 5.992,2.454 6.920 L 2.409 7.187 1.624 7.200 C 0.753 7.215,0.756 7.215,0.554 7.408 C 0.275 7.675,0.337 8.148,0.679 8.359 L 0.809 8.440 1.611 8.453 L 2.413 8.467 2.421 8.547 C 2.425 8.591,2.458 8.773,2.495 8.952 C 2.831 10.598,3.948 12.022,5.483 12.760 C 5.916 12.968,6.516 13.154,6.993 13.228 L 7.200 13.261 7.200 13.985 C 7.200 14.788,7.216 14.898,7.359 15.071 C 7.641 15.412,8.213 15.330,8.403 14.920 C 8.447 14.824,8.452 14.736,8.453 14.038 L 8.453 13.262 8.733 13.216 C 9.578 13.079,10.406 12.723,11.115 12.194 C 11.368 12.005,11.846 11.545,12.058 11.287 C 12.652 10.562,13.068 9.647,13.216 8.733 L 13.262 8.453 14.038 8.453 C 14.903 8.452,14.939 8.446,15.112 8.263 C 15.352 8.011,15.338 7.584,15.085 7.370 C 14.907 7.220,14.876 7.215,14.037 7.205 L 13.260 7.196 13.228 6.991 C 12.956 5.244,11.818 3.705,10.227 2.933 C 9.731 2.692,9.278 2.547,8.733 2.454 L 8.467 2.409 8.453 1.609 L 8.440 0.809 8.359 0.679 C 8.254 0.508,8.082 0.401,7.890 0.386 C 7.811 0.380,7.717 0.385,7.680 0.397 M7.200 4.528 C 7.200 5.465,7.212 5.560,7.359 5.738 C 7.641 6.079,8.213 5.996,8.403 5.587 C 8.448 5.489,8.452 5.400,8.453 4.578 L 8.453 3.675 8.567 3.693 C 8.789 3.728,9.164 3.837,9.427 3.945 C 10.500 4.384,11.364 5.275,11.774 6.365 C 11.854 6.578,11.973 7.035,11.973 7.130 L 11.973 7.196 11.073 7.205 C 10.071 7.214,10.093 7.211,9.887 7.408 C 9.608 7.675,9.670 8.148,10.012 8.359 L 10.142 8.440 11.058 8.448 L 11.973 8.455 11.973 8.528 C 11.973 8.736,11.772 9.359,11.585 9.735 C 11.293 10.320,10.728 10.960,10.183 11.322 C 9.703 11.641,8.980 11.931,8.547 11.978 L 8.467 11.987 8.453 11.065 L 8.440 10.142 8.359 10.012 C 8.309 9.931,8.229 9.851,8.148 9.801 C 7.911 9.654,7.577 9.702,7.383 9.911 C 7.213 10.094,7.214 10.088,7.205 11.082 L 7.197 11.992 7.072 11.971 C 6.653 11.904,6.051 11.676,5.661 11.436 C 4.897 10.969,4.281 10.247,3.945 9.427 C 3.837 9.164,3.728 8.789,3.693 8.567 L 3.675 8.453 4.578 8.453 C 5.584 8.452,5.602 8.449,5.779 8.263 C 6.071 7.955,5.985 7.462,5.606 7.275 C 5.483 7.215,5.460 7.213,4.580 7.205 C 3.911 7.198,3.680 7.188,3.680 7.165 C 3.680 7.096,3.814 6.589,3.881 6.400 C 3.985 6.110,4.219 5.663,4.409 5.394 C 4.614 5.102,5.091 4.623,5.379 4.418 C 5.628 4.242,6.063 4.008,6.335 3.904 C 6.526 3.832,7.071 3.683,7.153 3.681 C 7.197 3.680,7.200 3.738,7.200 4.528 " stroke="none" fill-rule="evenodd" fill="black"></path></svg>