<svg width="16" height="16" viewBox="0 0 16 16" fill="none" xmlns="http://www.w3.org/2000/svg">
<path fill-rule="evenodd" clip-rule="evenodd" d="M1.74999 3.48002C1.57988 3.48002 1.44999 3.61575 1.44999 3.77335V12.2167C1.44999 12.3743 1.57988 12.51 1.74999 12.51H2.80463C2.80808 12.4927 2.81226 12.4754 2.81718 12.4581C3.04819 11.648 3.42208 10.7654 3.90553 10.0696C4.12244 9.75739 4.39112 9.44111 4.70928 9.195C4.01096 8.77535 3.54373 8.01043 3.54373 7.13639C3.54373 5.81091 4.61825 4.73639 5.94373 4.73639C7.26922 4.73639 8.34373 5.81091 8.34373 7.13639C8.34373 8.01045 7.87648 8.77538 7.17814 9.19503C7.49629 9.44113 7.76496 9.7574 7.98186 10.0696C8.4653 10.7654 8.8392 11.648 9.0702 12.4581C9.07513 12.4754 9.0793 12.4927 9.08275 12.51H14.25C14.4201 12.51 14.55 12.3743 14.55 12.2167V3.77335C14.55 3.61575 14.4201 3.48002 14.25 3.48002H7.99999H4.87499H1.74999ZM6.91424 10.8113C7.24123 11.282 7.52439 11.8953 7.72652 12.51H4.16087C4.363 11.8953 4.64616 11.282 4.97315 10.8113C5.38085 10.2245 5.72798 10.0364 5.94369 10.0364C6.15941 10.0364 6.50653 10.2245 6.91424 10.8113ZM0.0499878 3.77335C0.0499878 2.83374 0.815526 2.08002 1.74999 2.08002H4.87499H7.99999H14.25C15.1844 2.08002 15.95 2.83374 15.95 3.77335V12.2167C15.95 13.1563 15.1844 13.91 14.25 13.91H1.74999C0.815525 13.91 0.0499878 13.1563 0.0499878 12.2167V3.77335ZM5.94373 6.03639C5.33622 6.03639 4.84373 6.52888 4.84373 7.13639C4.84373 7.7439 5.33622 8.23639 5.94373 8.23639C6.55125 8.23639 7.04373 7.7439 7.04373 7.13639C7.04373 6.52888 6.55125 6.03639 5.94373 6.03639ZM11.606 4.0077C11.5056 3.92039 11.3684 3.88869 11.2399 3.92312C11.1114 3.95755 11.0084 4.05361 10.9652 4.1794L10.7847 4.70415L10.2299 4.69425C10.0969 4.69188 9.97139 4.75578 9.89509 4.86475C9.81879 4.97373 9.80165 5.1135 9.84937 5.23768L10.0484 5.75565L9.61706 6.10469C9.51364 6.18837 9.45859 6.31799 9.47019 6.45051C9.48178 6.58303 9.5585 6.70112 9.67488 6.76557L10.1603 7.03441L10.0542 7.57908C10.0288 7.70965 10.0699 7.84433 10.164 7.93839C10.2581 8.03246 10.3927 8.07361 10.5233 8.04817L11.068 7.94208L11.3368 8.42752C11.4013 8.54389 11.5194 8.62061 11.6519 8.63221C11.7844 8.6438 11.914 8.58875 11.9977 8.48534L12.3467 8.05396L12.8647 8.25302C12.9889 8.30074 13.1287 8.28361 13.2376 8.2073C13.3466 8.131 13.4105 8.00552 13.4081 7.87251L13.3982 7.31769L13.923 7.13723C14.0488 7.09397 14.1448 6.991 14.1793 6.8625C14.2137 6.73401 14.182 6.5968 14.0947 6.49644L13.7305 6.07778L14.0165 5.60225C14.085 5.48825 14.0924 5.34762 14.0362 5.22705C13.98 5.10649 13.8675 5.02176 13.7361 5.001L13.188 4.91441L13.1014 4.3663C13.0806 4.2349 12.9959 4.12242 12.8753 4.0662C12.7548 4.00998 12.6141 4.01738 12.5001 4.08593L12.0246 4.37191L11.606 4.0077ZM11.4466 5.23935L11.5287 5.00082L11.719 5.16638C11.8498 5.28019 12.039 5.29675 12.1877 5.20738L12.4038 5.07739L12.4432 5.32654C12.4702 5.49782 12.6046 5.63215 12.7759 5.65922L13.025 5.69858L12.895 5.91474C12.8056 6.06334 12.8222 6.2526 12.936 6.38343L13.1016 6.57373L12.863 6.65576C12.6991 6.71215 12.5901 6.86778 12.5932 7.04115L12.5977 7.29336L12.3622 7.20287C12.2004 7.14067 12.0169 7.18984 11.9078 7.32464L11.7491 7.52073L11.6269 7.30007C11.5429 7.14837 11.3707 7.06808 11.2005 7.10123L10.9529 7.14946L11.0012 6.90187C11.0343 6.73167 10.954 6.55948 10.8023 6.47547L10.5817 6.35327L10.7778 6.1946C10.9126 6.08553 10.9617 5.90202 10.8995 5.74016L10.809 5.50471L11.0612 5.50921C11.2346 5.5123 11.3902 5.40333 11.4466 5.23935Z" fill="black"/>
</svg>
