<svg width="16" height="16" viewBox="0 0 16 16" fill="none" xmlns="http://www.w3.org/2000/svg">
<path fill-rule="evenodd" clip-rule="evenodd" d="M13.1888 3.27149C13.3271 3.12915 13.5154 3.04624 13.7138 3.04033C13.8676 3.03579 14.0192 3.07783 14.1487 3.16093C14.2782 3.24403 14.3796 3.36432 14.4396 3.50604C14.4996 3.64775 14.5153 3.80428 14.4848 3.9551C14.4543 4.10593 14.379 4.24402 14.2686 4.35128L5.86897 12.7509C5.72577 12.8941 5.53157 12.9745 5.32908 12.9745C5.1266 12.9745 4.9324 12.8941 4.78919 12.7509L1.73478 9.6965C1.66149 9.62614 1.60298 9.54186 1.56267 9.4486C1.52237 9.35535 1.50107 9.25498 1.50004 9.15339C1.49901 9.0518 1.51825 8.95103 1.55665 8.85697C1.59506 8.76291 1.65184 8.67746 1.72368 8.60562C1.79552 8.53378 1.88097 8.477 1.97503 8.4386C2.06908 8.4002 2.16986 8.38095 2.27145 8.38198C2.37304 8.38302 2.4734 8.40431 2.56666 8.44462C2.65992 8.48493 2.7442 8.54343 2.81456 8.61672L5.32908 11.1312L13.1888 3.27149Z" fill="#0E1438"/>
<path d="M13.7138 3.04033L13.7064 2.79043L13.7064 2.79044L13.7138 3.04033ZM13.1888 3.27149L13.3656 3.44829L13.3681 3.44571L13.1888 3.27149ZM14.1487 3.16093L14.2837 2.95052L14.1487 3.16093ZM14.4396 3.50604L14.6698 3.4086L14.6698 3.4086L14.4396 3.50604ZM14.2686 4.35128L14.0943 4.17199L14.0918 4.1745L14.2686 4.35128ZM5.86897 12.7509L6.04571 12.9277L6.04575 12.9277L5.86897 12.7509ZM4.78919 12.7509L4.61241 12.9277L4.61245 12.9277L4.78919 12.7509ZM1.73478 9.6965L1.91159 9.51969L1.90792 9.51617L1.73478 9.6965ZM1.56267 9.4486L1.79216 9.34942L1.79216 9.34942L1.56267 9.4486ZM1.50004 9.15339L1.25005 9.15594L1.50004 9.15339ZM1.55665 8.85697L1.3252 8.76247L1.3252 8.76248L1.55665 8.85697ZM1.72368 8.60562L1.90045 8.7824L1.72368 8.60562ZM1.97503 8.4386L2.06952 8.67005L2.06952 8.67005L1.97503 8.4386ZM2.56666 8.44462L2.46748 8.6741L2.46748 8.6741L2.56666 8.44462ZM2.81456 8.61672L2.63418 8.7899L2.63778 8.7935L2.81456 8.61672ZM5.32908 11.1312L5.15231 11.308L5.32908 11.4848L5.50586 11.308L5.32908 11.1312ZM13.7064 2.79044C13.443 2.79828 13.1931 2.90834 13.0095 3.09728L13.3681 3.44571C13.4612 3.34996 13.5878 3.29419 13.7213 3.29021L13.7064 2.79044ZM14.2837 2.95052C14.1118 2.84021 13.9106 2.78441 13.7064 2.79043L13.7212 3.29022C13.8246 3.28717 13.9266 3.31544 14.0137 3.37134L14.2837 2.95052ZM14.6698 3.4086C14.5902 3.22049 14.4557 3.06083 14.2837 2.95052L14.0137 3.37134C14.1008 3.42724 14.169 3.50815 14.2094 3.60347L14.6698 3.4086ZM14.7299 4.00467C14.7704 3.80447 14.7494 3.59671 14.6698 3.4086L14.2094 3.60347C14.2497 3.69879 14.2603 3.80408 14.2398 3.90553L14.7299 4.00467ZM14.4429 4.53054C14.5893 4.38817 14.6894 4.20488 14.7299 4.00467L14.2398 3.90553C14.2193 4.00698 14.1686 4.09987 14.0944 4.17201L14.4429 4.53054ZM6.04575 12.9277L14.4454 4.52805L14.0918 4.1745L5.6922 12.5741L6.04575 12.9277ZM5.32908 13.2245C5.59785 13.2245 5.85562 13.1177 6.04571 12.9277L5.69223 12.5741C5.59591 12.6704 5.46528 12.7245 5.32908 12.7245V13.2245ZM4.61245 12.9277C4.80254 13.1177 5.06031 13.2245 5.32908 13.2245V12.7245C5.19288 12.7245 5.06226 12.6704 4.96593 12.5741L4.61245 12.9277ZM1.558 9.87328L4.61241 12.9277L4.96597 12.5741L1.91155 9.51973L1.558 9.87328ZM1.33319 9.54779C1.38669 9.67158 1.46436 9.78344 1.56163 9.87684L1.90792 9.51617C1.85862 9.46884 1.81927 9.41215 1.79216 9.34942L1.33319 9.54779ZM1.25005 9.15594C1.25142 9.29078 1.27969 9.424 1.33319 9.54779L1.79216 9.34942C1.76504 9.28669 1.75072 9.21918 1.75003 9.15085L1.25005 9.15594ZM1.3252 8.76248C1.27423 8.88732 1.24868 9.02109 1.25005 9.15594L1.75003 9.15085C1.74933 9.08252 1.76228 9.01473 1.78811 8.95146L1.3252 8.76248ZM1.5469 8.42884C1.45154 8.5242 1.37617 8.63762 1.3252 8.76247L1.78811 8.95146C1.81394 8.8882 1.85213 8.83072 1.90045 8.7824L1.5469 8.42884ZM1.88053 8.20715C1.75568 8.25812 1.64226 8.33349 1.5469 8.42884L1.90045 8.7824C1.94878 8.73408 2.00625 8.69588 2.06952 8.67005L1.88053 8.20715ZM2.27399 8.132C2.13915 8.13063 2.00538 8.15617 1.88053 8.20715L2.06952 8.67005C2.13279 8.64422 2.20057 8.63128 2.26891 8.63197L2.27399 8.132ZM2.66585 8.21514C2.54206 8.16163 2.40884 8.13337 2.27399 8.132L2.26891 8.63197C2.33724 8.63267 2.40475 8.64699 2.46748 8.6741L2.66585 8.21514ZM2.9949 8.44358C2.9015 8.3463 2.78963 8.26864 2.66584 8.21514L2.46748 8.6741C2.53021 8.70121 2.58689 8.74057 2.63422 8.78986L2.9949 8.44358ZM5.50586 10.9545L2.99134 8.43994L2.63778 8.7935L5.15231 11.308L5.50586 10.9545ZM13.0121 3.09472L5.15231 10.9545L5.50586 11.308L13.3656 3.44827L13.0121 3.09472Z" fill="#0E1438"/>
</svg>
