<svg width="16" height="16" viewBox="0 0 16 16" fill="none" xmlns="http://www.w3.org/2000/svg">
<path d="M5.5 13.5H3.16667C2.79848 13.5 2.5 13.2015 2.5 12.8333V10.5M10.5 13.5H12.8333C13.2015 13.5 13.5 13.2015 13.5 12.8333V10.5M2.5 5.5V3.16667C2.5 2.79848 2.79848 2.5 3.16667 2.5H5.5M10.5 2.5H12.8333C13.2015 2.5 13.5 2.79848 13.5 3.16667V5.5" stroke="black" stroke-width="1.5" stroke-linecap="round" stroke-linejoin="round"/>
<path d="M5.1665 9.49999V6.49999C5.1665 6.1318 5.46498 5.83332 5.83317 5.83332H6.2237C6.4005 5.83332 6.57008 5.76308 6.6951 5.63806L6.97124 5.36192C7.09624 5.2369 7.26584 5.16666 7.44264 5.16666H8.55704C8.73384 5.16666 8.90344 5.2369 9.02844 5.36192L9.30457 5.63806C9.42957 5.76308 9.59917 5.83332 9.77597 5.83332H10.1665C10.5347 5.83332 10.8332 6.1318 10.8332 6.49999V9.49999C10.8332 9.86819 10.5347 10.1667 10.1665 10.1667H5.83317C5.46498 10.1667 5.1665 9.86819 5.1665 9.49999Z" stroke="black" stroke-width="1.1" stroke-linecap="round" stroke-linejoin="round"/>
<path d="M8 7.89999V7.88999M8.5 7.89999C8.5 8.17613 8.27613 8.39999 8 8.39999C7.72387 8.39999 7.5 8.17613 7.5 7.89999C7.5 7.62386 7.72387 7.39999 8 7.39999C8.27613 7.39999 8.5 7.62386 8.5 7.89999Z" stroke="black" stroke-linecap="round" stroke-linejoin="round"/>
</svg>
