<svg width="16" height="16" viewBox="0 0 16 16" fill="none" xmlns="http://www.w3.org/2000/svg">
<path d="M6.06034 5.19828H9.07759M6.06034 7.78448H9.07759M12.8491 1.75C12.0754 1.75 11.6638 2.61841 11.6638 3.68966V3.90517M12.8491 1.75C13.6228 1.75 14.25 2.61841 14.25 3.68966V3.90517H11.6638M12.8491 1.75H5.19828C4.24606 1.75 3.47414 2.52192 3.47414 3.47414V12.0948M11.6638 3.90517V12.3103C11.6638 13.3816 10.8211 14.25 10.0474 14.25M3.47414 12.0948H8.64655V12.3103C8.64655 13.3816 9.27371 14.25 10.0474 14.25M3.47414 12.0948H1.75V12.5259C1.75 13.4781 2.52192 14.25 3.47414 14.25H10.0474" stroke="black" stroke-width="1.4" stroke-linecap="round" stroke-linejoin="round"/>
</svg>
