<svg width="16" height="16" viewBox="0 0 16 16" fill="none" xmlns="http://www.w3.org/2000/svg"><path d="M3.472 3.038 C 3.343 3.071,3.217 3.169,3.001 3.407 C 2.244 4.239,1.723 5.189,1.439 6.252 C 0.829 8.539,1.455 10.983,3.085 12.683 C 3.322 12.930,3.403 12.972,3.640 12.972 C 3.847 12.972,3.942 12.934,4.078 12.798 C 4.189 12.687,4.240 12.584,4.258 12.432 C 4.287 12.180,4.243 12.100,3.798 11.600 C 3.144 10.866,2.680 9.856,2.519 8.812 C 2.457 8.413,2.457 7.587,2.519 7.188 C 2.680 6.144,3.144 5.134,3.798 4.400 C 4.141 4.015,4.211 3.921,4.242 3.805 C 4.278 3.674,4.260 3.475,4.202 3.364 C 4.151 3.265,4.017 3.130,3.919 3.080 C 3.825 3.031,3.588 3.009,3.472 3.038 M12.193 3.038 C 11.899 3.113,11.689 3.448,11.746 3.752 C 11.774 3.900,11.824 3.982,12.009 4.181 C 12.928 5.165,13.424 6.290,13.522 7.614 C 13.635 9.138,13.104 10.639,12.051 11.776 C 11.777 12.072,11.748 12.127,11.748 12.360 C 11.748 12.567,11.786 12.662,11.922 12.798 C 12.058 12.934,12.153 12.972,12.360 12.972 C 12.597 12.972,12.678 12.930,12.915 12.683 C 14.017 11.534,14.660 10.063,14.778 8.420 C 14.879 7.025,14.481 5.508,13.704 4.319 C 13.360 3.793,12.838 3.182,12.649 3.085 C 12.547 3.032,12.312 3.008,12.193 3.038 M5.320 5.010 C 5.070 5.125,4.572 5.764,4.345 6.260 C 3.818 7.411,3.818 8.587,4.345 9.740 C 4.578 10.250,5.087 10.894,5.339 10.999 C 5.561 11.091,5.847 11.029,6.024 10.851 C 6.143 10.732,6.194 10.605,6.194 10.427 C 6.194 10.230,6.145 10.126,5.949 9.905 C 5.391 9.279,5.134 8.500,5.222 7.706 C 5.290 7.099,5.508 6.609,5.930 6.120 C 6.147 5.869,6.194 5.772,6.195 5.573 C 6.196 5.329,6.056 5.114,5.827 5.010 C 5.688 4.946,5.458 4.947,5.320 5.010 M10.173 5.010 C 9.947 5.113,9.804 5.332,9.805 5.573 C 9.806 5.768,9.856 5.876,10.041 6.082 C 10.603 6.708,10.866 7.498,10.778 8.296 C 10.710 8.905,10.472 9.433,10.051 9.905 C 9.855 10.126,9.806 10.230,9.806 10.427 C 9.806 10.605,9.857 10.732,9.976 10.851 C 10.153 11.029,10.439 11.091,10.661 10.999 C 10.913 10.894,11.422 10.250,11.655 9.740 C 11.855 9.304,11.954 8.962,12.015 8.507 C 12.116 7.751,11.996 7.004,11.655 6.260 C 11.422 5.750,10.913 5.106,10.661 5.001 C 10.528 4.946,10.305 4.950,10.173 5.010 M7.707 6.918 C 7.394 7.005,7.122 7.237,6.979 7.539 C 6.899 7.707,6.893 7.740,6.893 8.000 C 6.893 8.260,6.899 8.293,6.979 8.461 C 7.091 8.698,7.302 8.909,7.539 9.021 C 7.707 9.101,7.740 9.107,8.000 9.107 C 8.260 9.107,8.293 9.101,8.461 9.021 C 8.573 8.968,8.697 8.880,8.788 8.788 C 8.880 8.697,8.968 8.573,9.021 8.461 C 9.101 8.293,9.107 8.260,9.107 8.000 C 9.107 7.740,9.101 7.707,9.021 7.539 C 8.923 7.332,8.711 7.104,8.531 7.012 C 8.280 6.883,7.962 6.847,7.707 6.918 " stroke="none" fill-rule="evenodd" fill="black"></path></svg>