<svg width="16" height="16" viewBox="0 0 16 16" fill="none" xmlns="http://www.w3.org/2000/svg"><path d="M11.627 1.437 C 11.546 1.463,11.426 1.512,11.360 1.545 C 11.188 1.632,7.516 5.299,7.433 5.467 C 7.374 5.585,7.373 5.603,7.373 6.707 C 7.373 7.727,7.378 7.838,7.422 7.953 C 7.480 8.103,7.658 8.270,7.808 8.315 C 7.954 8.359,10.043 8.359,10.197 8.316 C 10.292 8.289,10.564 8.028,12.206 6.390 C 14.229 4.372,14.215 4.388,14.306 4.039 C 14.385 3.736,14.343 3.392,14.193 3.109 C 14.101 2.934,12.931 1.742,12.709 1.596 C 12.399 1.393,11.962 1.329,11.627 1.437 M2.520 2.454 C 2.296 2.480,2.140 2.533,1.968 2.643 C 1.796 2.754,1.592 2.983,1.512 3.153 C 1.367 3.465,1.373 3.210,1.373 8.400 C 1.373 12.919,1.376 13.224,1.420 13.384 C 1.483 13.609,1.581 13.785,1.733 13.944 C 1.887 14.104,2.016 14.187,2.240 14.269 L 2.413 14.333 7.333 14.333 L 12.253 14.333 12.427 14.269 C 12.845 14.116,13.122 13.820,13.244 13.398 C 13.285 13.256,13.291 13.025,13.300 11.184 C 13.307 9.785,13.301 9.077,13.282 8.970 C 13.246 8.775,13.145 8.626,12.977 8.522 C 12.867 8.454,12.821 8.442,12.667 8.442 C 12.512 8.442,12.466 8.454,12.357 8.522 C 12.193 8.623,12.088 8.774,12.054 8.957 C 12.037 9.045,12.027 9.870,12.027 11.097 L 12.027 13.093 7.333 13.093 L 2.640 13.093 2.647 8.393 L 2.653 3.693 4.747 3.680 C 6.275 3.670,6.859 3.658,6.910 3.635 C 7.130 3.537,7.288 3.292,7.286 3.055 C 7.283 2.816,7.179 2.639,6.966 2.514 L 6.840 2.440 4.773 2.437 C 3.637 2.435,2.623 2.443,2.520 2.454 M12.566 3.166 C 12.856 3.456,13.093 3.705,13.093 3.720 C 13.093 3.734,12.340 4.500,11.420 5.420 L 9.747 7.093 9.193 7.093 L 8.640 7.093 8.640 6.527 L 8.640 5.960 10.300 4.300 C 11.213 3.387,11.978 2.640,12.000 2.640 C 12.022 2.640,12.277 2.877,12.566 3.166 " stroke="none" fill-rule="evenodd"></path></svg>