<svg width="16" height="16" viewBox="0 0 16 16" fill="none" xmlns="http://www.w3.org/2000/svg"><path d="M7.107 3.424 C 6.889 3.519,6.721 3.770,6.721 4.000 C 6.721 4.144,6.815 4.357,6.923 4.459 C 7.107 4.631,7.050 4.626,8.839 4.635 L 10.464 4.642 7.996 7.115 C 6.638 8.474,5.499 9.629,5.464 9.680 C 5.409 9.760,5.400 9.805,5.400 10.000 C 5.400 10.208,5.406 10.236,5.478 10.335 C 5.606 10.513,5.738 10.591,5.935 10.607 C 6.275 10.634,6.085 10.801,8.859 8.032 L 11.358 5.537 11.365 7.162 C 11.374 8.950,11.369 8.893,11.541 9.077 C 11.643 9.185,11.856 9.279,12.000 9.279 C 12.233 9.279,12.478 9.115,12.579 8.893 C 12.624 8.794,12.627 8.634,12.635 6.440 C 12.640 4.798,12.633 4.041,12.613 3.920 C 12.572 3.683,12.466 3.541,12.253 3.439 C 12.150 3.390,12.059 3.388,9.667 3.388 C 7.681 3.389,7.171 3.396,7.107 3.424 " stroke="none" fill-rule="evenodd" fill="black"></path></svg>