<svg width="16" height="16" viewBox="0 0 16 16" fill="none" xmlns="http://www.w3.org/2000/svg">
<g clip-path="url(#clip0_542_38)">
<path d="M7.6998 1.35527C7.82047 1.10378 8.17953 1.10378 8.3002 1.35527L10.0126 4.92487C10.0612 5.02612 10.1578 5.09602 10.2694 5.11065L14.2103 5.62736C14.488 5.66378 14.5991 6.00519 14.3957 6.19724L11.5139 8.91832C11.4319 8.99566 11.3949 9.10912 11.4155 9.21979L12.1391 13.1069C12.1902 13.3811 11.8996 13.592 11.6535 13.4592L8.1584 11.5723C8.0596 11.519 7.9404 11.519 7.8416 11.5723L4.34646 13.4592C4.10042 13.592 3.80982 13.3811 3.86088 13.1069L4.5845 9.21979C4.60509 9.10912 4.56807 8.99566 4.48613 8.91832L1.60434 6.19724C1.40095 6.00519 1.51202 5.66378 1.78975 5.62736L5.7306 5.11065C5.8422 5.09602 5.93882 5.02612 5.98739 4.92487L7.6998 1.35527Z" stroke="black" stroke-width="1.5" stroke-linecap="round" stroke-linejoin="round"/>
</g>
<defs>
<clipPath id="clip0_542_38">
<rect width="16" height="16" fill="white"/>
</clipPath>
</defs>
</svg>
