<svg width="16" height="16" viewBox="0 0 16 16" fill="none" xmlns="http://www.w3.org/2000/svg">
<g clip-path="url(#clip0_144_28)">
<path fill-rule="evenodd" clip-rule="evenodd" d="M2.35001 7.99376C2.35001 4.87681 4.87681 2.35001 7.99376 2.35001C11.1107 2.35001 13.6375 4.87681 13.6375 7.99376C13.6375 11.1107 11.1107 13.6375 7.99376 13.6375C4.87681 13.6375 2.35001 11.1107 2.35001 7.99376ZM7.99376 0.950012C4.10361 0.950012 0.950012 4.10361 0.950012 7.99376C0.950012 11.8839 4.10361 15.0375 7.99376 15.0375C11.8839 15.0375 15.0375 11.8839 15.0375 7.99376C15.0375 4.10361 11.8839 0.950012 7.99376 0.950012ZM8.90001 5.37502C8.90001 5.85826 8.50826 6.25002 8.02501 6.25002C7.54176 6.25002 7.15001 5.85826 7.15001 5.37502C7.15001 4.89177 7.54176 4.50002 8.02501 4.50002C8.50826 4.50002 8.90001 4.89177 8.90001 5.37502ZM7.99376 8.15002C8.4632 8.15002 8.84376 8.53057 8.84376 9.00002V10.7C8.84376 11.1695 8.4632 11.55 7.99376 11.55C7.52432 11.55 7.14376 11.1695 7.14376 10.7V9.00002C7.14376 8.53057 7.52432 8.15002 7.99376 8.15002Z" fill="black"/>
</g>
<defs>
<clipPath id="clip0_144_28">
<rect width="16" height="16" fill="white"/>
</clipPath>
</defs>
</svg>
