<svg width="16" height="16" viewBox="0 0 16 16" fill="none" xmlns="http://www.w3.org/2000/svg">
<path fill-rule="evenodd" clip-rule="evenodd" d="M12.9107 1.5077C12.3004 0.897437 11.311 0.897435 10.7007 1.5077L2.11773 10.0907C2.02568 10.1828 1.96113 10.2986 1.93131 10.4254L1.06862 14.0918C1.0131 14.3278 1.08362 14.5757 1.25504 14.7471C1.42646 14.9185 1.67437 14.989 1.91034 14.9335L5.57677 14.0708C5.70348 14.041 5.81937 13.9764 5.91142 13.8844L14.4944 5.30139C15.1047 4.69112 15.1047 3.70168 14.4944 3.09141L12.9107 1.5077ZM11.6907 2.49765C11.7542 2.43412 11.8572 2.43412 11.9208 2.49765L13.5045 4.08136C13.568 4.1449 13.568 4.24791 13.5045 4.31144L12.419 5.39688L10.6052 3.5831L11.6907 2.49765ZM9.61529 4.57305L3.24849 10.9399L2.6904 13.3117L5.06227 12.7536L11.4291 6.38683L9.61529 4.57305Z" fill="#0E1438"/>
</svg>
