<svg width="16" height="16" viewBox="0 0 16 16" fill="none" xmlns="http://www.w3.org/2000/svg"><path d="M9.320 2.517 C 9.085 2.628,8.960 2.816,8.960 3.059 C 8.960 3.358,8.853 3.235,10.989 5.374 C 12.073 6.459,12.960 7.356,12.960 7.367 C 12.960 7.378,10.350 7.387,7.159 7.387 C 0.751 7.387,1.262 7.373,1.070 7.555 C 0.945 7.673,0.881 7.824,0.881 8.000 C 0.881 8.252,1.027 8.471,1.267 8.579 C 1.368 8.624,1.653 8.627,7.173 8.634 L 12.972 8.641 10.995 10.620 C 8.847 12.771,8.960 12.642,8.961 12.947 C 8.962 13.273,9.241 13.546,9.573 13.546 C 9.834 13.546,9.699 13.669,12.449 10.925 C 14.218 9.159,15.034 8.327,15.069 8.253 C 15.134 8.114,15.134 7.886,15.069 7.747 C 15.034 7.673,14.220 6.843,12.449 5.076 C 9.684 2.315,9.836 2.453,9.560 2.454 C 9.501 2.454,9.393 2.482,9.320 2.517 " stroke="none" fill-rule="evenodd" fill="black"></path></svg>