<svg width="16" height="16" viewBox="0 0 16 16" fill="none" xmlns="http://www.w3.org/2000/svg">
<path d="M12.3905 3.98588C12.5076 3.86543 12.6669 3.79528 12.8348 3.79027C12.9649 3.78644 13.0932 3.82201 13.2028 3.89232C13.3124 3.96264 13.3982 4.06442 13.4489 4.18434C13.4996 4.30425 13.513 4.43669 13.4872 4.56432C13.4614 4.69194 13.3976 4.80879 13.3042 4.89954L6.19682 12.0069C6.07565 12.1281 5.91133 12.1961 5.73999 12.1961C5.56866 12.1961 5.40434 12.1281 5.28316 12.0069L2.69866 9.42243C2.63665 9.36289 2.58714 9.29157 2.55303 9.21266C2.51893 9.13375 2.50091 9.04883 2.50003 8.96287C2.49916 8.87691 2.51545 8.79164 2.54794 8.71205C2.58043 8.63246 2.62848 8.56016 2.68927 8.49937C2.75005 8.43858 2.82236 8.39054 2.90194 8.35804C2.98153 8.32555 3.0668 8.30927 3.15276 8.31014C3.23873 8.31101 3.32365 8.32903 3.40256 8.36314C3.48147 8.39724 3.55278 8.44675 3.61232 8.50876L5.73999 10.6364L12.3905 3.98588Z" fill="#2D2D2D" stroke="#2D2D2D" stroke-width="0.5"/>
</svg>
