<svg width="16" height="16" viewBox="0 0 16 16" fill="none" xmlns="http://www.w3.org/2000/svg"><path d="M2.297 1.895 C 1.938 1.942,1.541 2.224,1.362 2.561 C 1.194 2.876,1.201 2.664,1.201 7.333 C 1.201 11.954,1.196 11.782,1.348 12.083 C 1.492 12.367,1.826 12.645,2.147 12.749 C 2.226 12.775,2.624 12.788,3.710 12.799 L 5.166 12.813 4.942 13.587 C 4.704 14.406,4.681 14.551,4.758 14.733 C 4.937 15.158,5.484 15.253,5.792 14.912 C 5.903 14.789,5.902 14.792,6.242 13.593 L 6.467 12.800 8.000 12.800 L 9.533 12.800 9.758 13.593 C 10.098 14.792,10.097 14.789,10.208 14.912 C 10.516 15.253,11.063 15.158,11.242 14.733 C 11.319 14.551,11.296 14.406,11.058 13.587 L 10.834 12.813 12.290 12.799 C 13.376 12.788,13.774 12.775,13.853 12.749 C 14.174 12.645,14.508 12.367,14.652 12.083 C 14.804 11.782,14.799 11.954,14.799 7.333 C 14.799 2.664,14.806 2.876,14.638 2.561 C 14.527 2.351,14.262 2.100,14.047 1.999 C 13.946 1.952,13.797 1.909,13.679 1.894 C 13.434 1.862,2.543 1.864,2.297 1.895 M13.533 7.333 L 13.533 11.533 8.000 11.533 L 2.467 11.533 2.460 7.360 C 2.456 5.065,2.459 3.172,2.466 3.153 C 2.476 3.127,3.598 3.121,8.006 3.127 L 13.533 3.133 13.533 7.333 M7.869 4.564 C 7.621 4.609,7.435 4.804,7.386 5.072 C 7.368 5.170,7.361 5.986,7.366 7.432 L 7.373 9.641 7.441 9.774 C 7.639 10.158,8.136 10.239,8.439 9.936 C 8.502 9.873,8.570 9.775,8.590 9.717 C 8.620 9.632,8.627 9.201,8.627 7.320 L 8.627 5.027 8.565 4.901 C 8.435 4.638,8.168 4.509,7.869 4.564 M10.697 6.563 C 10.588 6.584,10.431 6.679,10.352 6.772 C 10.333 6.795,10.294 6.861,10.266 6.920 C 10.217 7.021,10.215 7.099,10.215 8.333 C 10.215 9.549,10.218 9.648,10.264 9.749 C 10.484 10.234,11.140 10.248,11.396 9.773 C 11.453 9.668,11.453 9.649,11.453 8.333 C 11.453 7.012,11.453 6.999,11.395 6.891 C 11.259 6.636,10.987 6.509,10.697 6.563 M5.049 7.896 C 4.845 7.934,4.701 8.043,4.596 8.240 C 4.552 8.324,4.547 8.401,4.547 9.000 C 4.547 9.728,4.551 9.751,4.716 9.929 C 5.014 10.250,5.552 10.155,5.736 9.749 C 5.780 9.653,5.785 9.566,5.785 9.000 C 5.785 8.287,5.774 8.231,5.600 8.061 C 5.447 7.912,5.262 7.857,5.049 7.896 " stroke="none" fill-rule="evenodd" fill="black"></path></svg>