<svg width="16" height="16" viewBox="0 0 16 16" fill="none" xmlns="http://www.w3.org/2000/svg">
<g clip-path="url(#clip0_1658_22)">
<path d="M14.75 8C14.75 6.20979 14.0388 4.4929 12.773 3.22703C11.5071 1.96116 9.79021 1.25 8 1.25M14.75 8H1.25M14.75 8C14.75 8.64614 14.6597 9.27086 14.4893 9.86207M8 1.25C6.20979 1.25 4.4929 1.96116 3.22703 3.22703C1.96116 4.4929 1.25 6.20979 1.25 8M8 1.25C6.84272 1.25 4.97414 3.81034 4.97414 8C4.97414 8.6629 5.02069 9.28483 5.10448 9.86207M8 1.25C9.15728 1.25 11.0259 3.81034 11.0259 8C11.0259 8.6629 10.9793 9.28483 10.8955 9.86207M1.25 8C1.25 8.64614 1.34031 9.27086 1.51069 9.86207M1.71552 12.4224L2.18103 14.75L3.34483 13.3534L4.50862 14.75L4.97414 12.4224M6.37069 12.4224L6.83621 14.75L8 13.3534L9.16379 14.75L9.62931 12.4224M11.0259 12.4224L11.4914 14.75L12.6552 13.3534L13.819 14.75L14.2845 12.4224" stroke="black" stroke-width="1.5" stroke-linecap="round" stroke-linejoin="round"/>
</g>
<defs>
<clipPath id="clip0_1658_22">
<rect width="16" height="16" fill="white"/>
</clipPath>
</defs>
</svg>
