<svg width="16" height="16" viewBox="0 0 16 16" fill="none" xmlns="http://www.w3.org/2000/svg">
<g clip-path="url(#clip0_225_91)">
<path fill-rule="evenodd" clip-rule="evenodd" d="M7.4987 2.24344C9.22328 0.518868 12.0194 0.518869 13.7439 2.24344C15.4685 3.96802 15.4685 6.76411 13.7439 8.48868L12.6491 9.58353C12.3757 9.8569 11.9325 9.8569 11.6591 9.58353C11.3858 9.31017 11.3858 8.86695 11.6591 8.59358L12.754 7.49873C13.9318 6.32089 13.9318 4.41123 12.754 3.23339C11.5761 2.05555 9.66649 2.05555 8.48865 3.23339L7.3938 4.32824C7.12043 4.60161 6.67722 4.60161 6.40385 4.32824C6.13048 4.05488 6.13048 3.61166 6.40385 3.33829L7.4987 2.24344ZM4.32821 6.40388C4.60158 6.67725 4.60158 7.12046 4.32821 7.39383L3.23336 8.48868C2.05552 9.66652 2.05552 11.5762 3.23336 12.754C4.4112 13.9319 6.32086 13.9319 7.4987 12.754L8.59355 11.6592C8.86692 11.3858 9.31013 11.3858 9.5835 11.6592C9.85687 11.9325 9.85687 12.3757 9.5835 12.6491L8.48865 13.744C6.76407 15.4685 3.96799 15.4685 2.24341 13.744C0.518839 12.0194 0.518838 9.22331 2.24341 7.49873L3.33826 6.40388C3.61163 6.13051 4.05485 6.13051 4.32821 6.40388ZM10.4593 6.5179C10.7327 6.24453 10.7327 5.80132 10.4593 5.52795C10.186 5.25458 9.74275 5.25458 9.46939 5.52795L5.52792 9.46942C5.25455 9.74278 5.25455 10.186 5.52792 10.4594C5.80129 10.7327 6.2445 10.7327 6.51787 10.4594L10.4593 6.5179Z" fill="black"/>
</g>
<defs>
<clipPath id="clip0_225_91">
<rect width="16" height="16" fill="white"/>
</clipPath>
</defs>
</svg>
