<svg width="16" height="16" viewBox="0 0 16 16" fill="none" xmlns="http://www.w3.org/2000/svg"><path d="M9.205 3.230 C 9.000 3.268,8.821 3.417,8.747 3.613 C 8.700 3.737,8.710 3.956,8.769 4.085 C 8.807 4.170,9.239 4.617,10.397 5.773 C 11.264 6.639,11.973 7.356,11.973 7.367 C 11.973 7.378,9.806 7.387,7.157 7.387 C 2.661 7.387,2.335 7.390,2.245 7.432 C 1.979 7.558,1.831 7.851,1.892 8.125 C 1.933 8.310,2.059 8.472,2.226 8.559 L 2.359 8.627 7.172 8.634 L 11.986 8.641 10.394 10.234 C 9.245 11.384,8.790 11.856,8.759 11.930 C 8.612 12.285,8.828 12.689,9.208 12.775 C 9.329 12.802,9.375 12.800,9.509 12.761 L 9.667 12.716 11.834 10.551 C 13.293 9.094,14.018 8.352,14.052 8.280 C 14.133 8.111,14.143 7.995,14.094 7.822 C 14.049 7.667,14.045 7.662,11.885 5.499 C 10.398 4.011,9.687 3.316,9.613 3.282 C 9.478 3.219,9.351 3.203,9.205 3.230 " stroke="none" fill-rule="evenodd" fill="black"></path></svg>