<svg width="16" height="16" viewBox="0 0 16 16" fill="none" xmlns="http://www.w3.org/2000/svg">
<path d="M5.62931 1.75H5.19827C3.29384 1.75 1.75 3.29384 1.75 5.19827V5.62931" stroke="black" stroke-width="1.4" stroke-linecap="round" stroke-linejoin="round"/>
<path d="M5.62931 14.25H5.19827C3.29384 14.25 1.75 12.7061 1.75 10.8017V10.3707" stroke="black" stroke-width="1.4" stroke-linecap="round" stroke-linejoin="round"/>
<path d="M10.3707 1.75H10.8017C12.7062 1.75 14.25 3.29384 14.25 5.19827V5.62931" stroke="black" stroke-width="1.4" stroke-linecap="round" stroke-linejoin="round"/>
<path d="M10.3707 14.25H10.8017C12.7062 14.25 14.25 12.7061 14.25 10.8017V10.3707" stroke="black" stroke-width="1.4" stroke-linecap="round" stroke-linejoin="round"/>
<path d="M6.70689 6.27585C6.70689 6.51391 6.51391 6.70689 6.27585 6.70689C6.0378 6.70689 5.84482 6.51391 5.84482 6.27585C5.84482 6.0378 6.0378 5.84482 6.27585 5.84482C6.51391 5.84482 6.70689 6.0378 6.70689 6.27585Z" stroke="black" stroke-width="0.9" stroke-linecap="round" stroke-linejoin="round"/>
<path d="M10.1552 6.27585C10.1552 6.51391 9.96219 6.70689 9.72413 6.70689C9.48608 6.70689 9.2931 6.51391 9.2931 6.27585C9.2931 6.0378 9.48608 5.84482 9.72413 5.84482C9.96219 5.84482 10.1552 6.0378 10.1552 6.27585Z" stroke="black" stroke-width="0.9" stroke-linecap="round" stroke-linejoin="round"/>
<path d="M5.19827 8.64651C5.19827 8.64651 5.41378 10.8017 7.99999 10.8017C10.5862 10.8017 10.8017 8.64651 10.8017 8.64651" stroke="black" stroke-width="1.4" stroke-linecap="round" stroke-linejoin="round"/>
</svg>
