<svg width="16" height="16" viewBox="0 0 16 16" fill="none" xmlns="http://www.w3.org/2000/svg">
<g clip-path="url(#clip0_1658_22)">
<path d="M14.5 8C14.5 6.27609 13.8152 4.62279 12.5962 3.40381C11.3772 2.18482 9.72391 1.5 8 1.5M14.5 8H1.5M14.5 8C14.5 8.62221 14.413 9.22379 14.249 9.7931M8 1.5C6.27609 1.5 4.62279 2.18482 3.40381 3.40381C2.18482 4.62279 1.5 6.27609 1.5 8M8 1.5C6.88559 1.5 5.08621 3.96552 5.08621 8C5.08621 8.63834 5.13103 9.23724 5.21172 9.7931M8 1.5C9.11441 1.5 10.9138 3.96552 10.9138 8C10.9138 8.63834 10.869 9.23724 10.7883 9.7931M1.5 8C1.5 8.62221 1.58697 9.22379 1.75103 9.7931M1.94828 12.2586L2.39655 14.5L3.51724 13.1552L4.63793 14.5L5.08621 12.2586M6.43103 12.2586L6.87931 14.5L8 13.1552L9.12069 14.5L9.56897 12.2586M10.9138 12.2586L11.3621 14.5L12.4828 13.1552L13.6034 14.5L14.0517 12.2586" stroke="black" stroke-width="1.4" stroke-linecap="round" stroke-linejoin="round"/>
</g>
<defs>
<clipPath id="clip0_1658_22">
<rect width="16" height="16" fill="white"/>
</clipPath>
</defs>
</svg>
