<svg width="16" height="16" viewBox="0 0 16 16" fill="none" xmlns="http://www.w3.org/2000/svg">
<path d="M4.68966 4.68966H4.69793M4.68966 11.3103H4.69793M11.3103 4.68966H11.3186M11.3103 11.3103H11.3186M9.03448 8C9.03448 8.27436 8.92549 8.53749 8.73149 8.73149C8.53749 8.92549 8.27436 9.03448 8 9.03448C7.72564 9.03448 7.46251 8.92549 7.26851 8.73149C7.07451 8.53749 6.96552 8.27436 6.96552 8C6.96552 7.72564 7.07451 7.46251 7.26851 7.26851C7.46251 7.07451 7.72564 6.96552 8 6.96552C8.27436 6.96552 8.53749 7.07451 8.73149 7.26851C8.92549 7.46251 9.03448 7.72564 9.03448 8ZM9.03448 3.03448C9.03448 3.30884 8.92549 3.57197 8.73149 3.76597C8.53749 3.95998 8.27436 4.06897 8 4.06897C7.72564 4.06897 7.46251 3.95998 7.26851 3.76597C7.07451 3.57197 6.96552 3.30884 6.96552 3.03448C6.96552 2.76012 7.07451 2.497 7.26851 2.30299C7.46251 2.10899 7.72564 2 8 2C8.27436 2 8.53749 2.10899 8.73149 2.30299C8.92549 2.497 9.03448 2.76012 9.03448 3.03448ZM14 8C14 8.27436 13.891 8.53749 13.697 8.73149C13.503 8.92549 13.2399 9.03448 12.9655 9.03448C12.6912 9.03448 12.428 8.92549 12.234 8.73149C12.04 8.53749 11.931 8.27436 11.931 8C11.931 7.72564 12.04 7.46251 12.234 7.26851C12.428 7.07451 12.6912 6.96552 12.9655 6.96552C13.2399 6.96552 13.503 7.07451 13.697 7.26851C13.891 7.46251 14 7.72564 14 8ZM4.06897 8C4.06897 8.27436 3.95998 8.53749 3.76597 8.73149C3.57197 8.92549 3.30884 9.03448 3.03448 9.03448C2.76012 9.03448 2.497 8.92549 2.30299 8.73149C2.10899 8.53749 2 8.27436 2 8C2 7.72564 2.10899 7.46251 2.30299 7.26851C2.497 7.07451 2.76012 6.96552 3.03448 6.96552C3.30884 6.96552 3.57197 7.07451 3.76597 7.26851C3.95998 7.46251 4.06897 7.72564 4.06897 8ZM9.03448 12.9655C9.03448 13.2399 8.92549 13.503 8.73149 13.697C8.53749 13.891 8.27436 14 8 14C7.72564 14 7.46251 13.891 7.26851 13.697C7.07451 13.503 6.96552 13.2399 6.96552 12.9655C6.96552 12.6912 7.07451 12.428 7.26851 12.234C7.46251 12.04 7.72564 11.931 8 11.931C8.27436 11.931 8.53749 12.04 8.73149 12.234C8.92549 12.428 9.03448 12.6912 9.03448 12.9655Z" stroke="black" stroke-width="1.3" stroke-linecap="round" stroke-linejoin="round"/>
</svg>
