<svg width="16" height="16" viewBox="0 0 16 16" fill="none" xmlns="http://www.w3.org/2000/svg">
<path fill-rule="evenodd" clip-rule="evenodd" d="M2.55002 3.33487C2.55002 2.90141 2.90141 2.55002 3.33487 2.55002H10.7591C11.3097 2.55002 11.7561 2.99638 11.7561 3.54699V4.11972H3.33487C2.90141 4.11972 2.55002 3.76833 2.55002 3.33487ZM13.1561 3.54699V4.11972H14.1522C14.1525 4.11972 14.1528 4.11972 14.1531 4.11972C14.5397 4.11972 14.8531 4.43312 14.8531 4.81972V12.4561C14.8531 13.7799 13.7799 14.8531 12.4561 14.8531H3.54699C2.22319 14.8531 1.15002 13.7799 1.15002 12.4561V3.54699C1.15002 3.52113 1.15143 3.49558 1.15416 3.47044C1.15142 3.42561 1.15002 3.3804 1.15002 3.33487C1.15002 2.12821 2.12821 1.15002 3.33487 1.15002H10.7591C12.083 1.15002 13.1561 2.22319 13.1561 3.54699ZM2.55002 5.37452V12.4561C2.55002 13.0067 2.99638 13.4531 3.54699 13.4531H12.4561C13.0067 13.4531 13.4531 13.0067 13.4531 12.4561V5.51972H12.4561H3.33487C3.05824 5.51972 2.79361 5.46831 2.55002 5.37452ZM11.3955 8.92578C11.4374 8.92578 11.4712 8.8919 11.4712 8.85002C11.4712 8.80815 11.4374 8.77427 11.3955 8.77427C11.3536 8.77427 11.3197 8.80815 11.3197 8.85002C11.3197 8.8919 11.3536 8.92578 11.3955 8.92578ZM10.4712 8.85002C10.4712 8.33961 10.8851 7.92578 11.3955 7.92578C11.9059 7.92578 12.3197 8.33961 12.3197 8.85002C12.3197 9.36043 11.9059 9.77427 11.3955 9.77427C10.8851 9.77427 10.4712 9.36043 10.4712 8.85002Z" fill="black"/>
</svg>
