<svg width="16" height="16" viewBox="0 0 16 16" fill="none" xmlns="http://www.w3.org/2000/svg"><path d="M5.627 1.229 C 5.372 1.262,5.114 1.399,4.911 1.610 C 4.711 1.820,4.600 2.042,4.556 2.327 L 4.524 2.533 3.855 2.534 C 3.064 2.535,2.851 2.558,2.620 2.666 C 2.405 2.767,2.140 3.018,2.028 3.227 C 1.859 3.545,1.868 3.266,1.868 8.667 C 1.868 14.013,1.861 13.780,2.015 14.083 C 2.112 14.275,2.368 14.536,2.561 14.638 C 2.878 14.807,2.600 14.799,8.000 14.799 C 13.400 14.799,13.122 14.807,13.439 14.638 C 13.632 14.536,13.888 14.275,13.985 14.083 C 14.139 13.780,14.132 14.013,14.132 8.667 C 14.132 3.266,14.141 3.545,13.972 3.227 C 13.860 3.018,13.595 2.767,13.380 2.666 C 13.149 2.558,12.936 2.535,12.145 2.534 L 11.476 2.533 11.445 2.327 C 11.357 1.753,10.904 1.300,10.345 1.227 C 10.102 1.196,5.873 1.197,5.627 1.229 M10.200 3.333 L 10.200 4.200 8.000 4.200 L 5.800 4.200 5.793 3.360 C 5.789 2.898,5.792 2.505,5.799 2.487 C 5.809 2.460,6.256 2.454,8.006 2.460 L 10.200 2.467 10.200 3.333 M4.534 4.020 C 4.535 4.494,4.657 4.814,4.944 5.089 C 5.137 5.274,5.326 5.376,5.570 5.428 C 5.830 5.484,10.170 5.484,10.430 5.428 C 10.674 5.376,10.863 5.274,11.056 5.089 C 11.343 4.813,11.465 4.494,11.466 4.020 L 11.467 3.786 12.167 3.793 L 12.867 3.800 12.867 8.667 L 12.867 13.533 8.000 13.533 L 3.133 13.533 3.126 8.693 C 3.123 6.031,3.125 3.838,3.132 3.820 C 3.142 3.795,3.308 3.787,3.839 3.787 L 4.533 3.787 4.534 4.020 " stroke="none" fill-rule="evenodd" fill="black"></path></svg>