<svg width="16" height="16" viewBox="0 0 16 16" fill="none" xmlns="http://www.w3.org/2000/svg">
<path fill-rule="evenodd" clip-rule="evenodd" d="M2.66122 8.23084L2.09119 6.84179L1.52441 8.23084H2.66122ZM8.1287 9.73433L8.12554 7.00542L6.91789 9.73433H6.18664L4.97584 7.00301V9.73433H3.28191L2.9619 8.95715H1.22783L0.904555 9.73433H0L1.49141 6.25H2.7288L4.14527 9.54894V6.25H5.50457L6.59452 8.6137L7.59576 6.25H8.98238V9.73433H8.1287ZM10.3079 9.02136V8.32794H12.1363V7.61686H10.3079V6.98324H12.3959L13.3069 7.99888L12.3555 9.02136H10.3079ZM15.9507 9.74767H14.8685L13.843 8.59393L12.7772 9.74767H9.47825V6.2625H12.828L13.8526 7.40489L14.912 6.2625H16L14.3815 8.00508L15.9507 9.74767Z" fill="#002663"/>
</svg>
