<svg width="16" height="16" viewBox="0 0 16 16" fill="none" xmlns="http://www.w3.org/2000/svg">
<path fill-rule="evenodd" clip-rule="evenodd" d="M1.6504 2.49616C2.04795 1.62154 2.92003 1.06 3.88077 1.06H12.1269C13.0877 1.06 13.9598 1.62154 14.3573 2.49616L14.8279 3.53146C14.8622 3.60694 14.8926 3.68394 14.919 3.76217C14.9998 3.87631 15.0473 4.01572 15.0473 4.16621C15.0473 4.23368 15.0453 4.30149 15.0412 4.36945C15.0454 4.42787 15.0475 4.48651 15.0475 4.54527V12.4788C15.0475 13.8319 13.9506 14.9288 12.5975 14.9288H3.41018C2.0571 14.9288 0.960205 13.8319 0.960205 12.4788V4.54527C0.960205 4.48761 0.962241 4.43006 0.966289 4.37272C0.962077 4.30367 0.959991 4.23476 0.959991 4.16621C0.959991 4.01521 1.00781 3.87537 1.08912 3.76101C1.11542 3.68318 1.14567 3.60656 1.17981 3.53146L1.6504 2.49616ZM13.6353 4.38556C13.5991 4.71343 13.4829 5.01195 13.3081 5.23092C13.1091 5.48009 12.8161 5.65368 12.3786 5.65368C11.4986 5.65368 10.8911 4.91451 10.8911 4.16621C10.8911 3.77961 10.5777 3.46621 10.1911 3.46621C9.80451 3.46621 9.49111 3.77961 9.49111 4.16621C9.49111 4.91451 8.88358 5.65368 8.00364 5.65368C7.12371 5.65368 6.51618 4.91451 6.51618 4.16621C6.51618 3.77961 6.20278 3.46621 5.81618 3.46621C5.42958 3.46621 5.11618 3.77961 5.11618 4.16621C5.11618 4.91451 4.50864 5.65368 3.62871 5.65368C3.19114 5.65368 2.89814 5.48009 2.6992 5.23092C2.52466 5.01232 2.40853 4.71442 2.37217 4.38719C2.38668 4.29197 2.41425 4.19894 2.45432 4.11079L2.92491 3.07549C3.09529 2.70065 3.46903 2.46 3.88077 2.46H12.1269C12.5387 2.46 12.9124 2.70065 13.0828 3.07549L13.5534 4.11079C13.5932 4.19843 13.6207 4.2909 13.6353 4.38556ZM10.1911 6.04383C10.6971 6.64266 11.4531 7.05368 12.3786 7.05368C12.8599 7.05368 13.2857 6.93972 13.6475 6.74183V12.4788C13.6475 13.0587 13.1774 13.5288 12.5975 13.5288H10.672V11.1655C10.672 9.81238 9.57515 8.71549 8.22207 8.71549H7.78458C6.4315 8.71549 5.3346 9.81238 5.3346 11.1655V13.5288H3.41018C2.83029 13.5288 2.36021 13.0587 2.36021 12.4788V6.74206C2.72193 6.93981 3.14756 7.05368 3.62871 7.05368C4.55421 7.05368 5.31021 6.64267 5.81618 6.04384C6.32214 6.64267 7.07814 7.05368 8.00364 7.05368C8.92915 7.05368 9.68515 6.64266 10.1911 6.04383ZM6.7346 11.1655C6.7346 10.5856 7.20469 10.1155 7.78458 10.1155H8.22207C8.80195 10.1155 9.27204 10.5856 9.27204 11.1655V13.5279H6.7346V11.1655Z" fill="black"/>
</svg>
