<svg width="16" height="16" viewBox="0 0 16 16" fill="none" xmlns="http://www.w3.org/2000/svg"><path d="M1.715 2.563 C 1.512 2.600,1.368 2.709,1.263 2.907 C 1.215 2.997,1.213 3.171,1.206 7.600 C 1.201 10.865,1.207 12.251,1.228 12.377 C 1.315 12.904,1.760 13.351,2.285 13.438 C 2.417 13.460,4.078 13.466,8.400 13.461 L 14.333 13.453 14.440 13.396 C 14.902 13.147,14.905 12.525,14.445 12.273 C 14.365 12.229,14.014 12.226,8.413 12.213 L 2.467 12.200 2.453 7.587 C 2.439 2.466,2.456 2.913,2.265 2.726 C 2.114 2.579,1.928 2.523,1.715 2.563 M9.715 3.894 C 9.513 3.935,9.362 4.049,9.273 4.227 C 9.119 4.536,9.262 4.923,9.585 5.069 C 9.683 5.114,9.772 5.119,10.507 5.119 L 11.320 5.120 9.995 6.445 L 8.671 7.769 8.388 7.500 C 8.233 7.351,8.042 7.194,7.964 7.149 C 7.595 6.938,7.075 6.939,6.695 7.151 C 6.586 7.213,6.207 7.574,5.249 8.531 C 3.968 9.809,3.950 9.829,3.906 9.981 C 3.765 10.474,4.193 10.902,4.686 10.760 C 4.837 10.716,4.861 10.694,6.085 9.473 L 7.330 8.231 7.620 8.509 C 7.780 8.662,7.970 8.819,8.044 8.859 C 8.418 9.062,8.907 9.063,9.291 8.860 C 9.390 8.808,9.801 8.417,10.820 7.402 L 12.213 6.015 12.214 6.828 C 12.215 7.742,12.219 7.766,12.415 7.956 C 12.712 8.245,13.196 8.149,13.404 7.760 C 13.451 7.672,13.453 7.575,13.453 6.000 C 13.453 4.343,13.453 4.333,13.396 4.227 C 13.322 4.090,13.215 3.989,13.080 3.928 C 12.981 3.884,12.853 3.880,11.400 3.876 C 10.535 3.873,9.777 3.881,9.715 3.894 " stroke="none" fill-rule="evenodd" fill="black"></path></svg>