<svg width="16" height="16" viewBox="0 0 16 16" fill="none" xmlns="http://www.w3.org/2000/svg">
<g clip-path="url(#clip0_154_45)">
<path fill-rule="evenodd" clip-rule="evenodd" d="M6.72501 1.65C6.72501 1.2634 6.41161 0.949997 6.02501 0.949997C5.63841 0.949997 5.32501 1.2634 5.32501 1.65V3.575H2.52501C2.13841 3.575 1.82501 3.8884 1.82501 4.275V12.0233C1.29005 12.4727 0.950012 13.1466 0.950012 13.9V14.3375C0.950012 14.7241 1.26341 15.0375 1.65001 15.0375H14.3375C14.7241 15.0375 15.0375 14.7241 15.0375 14.3375V13.9C15.0375 13.1466 14.6975 12.4727 14.1625 12.0233V4.275C14.1625 3.8884 13.8491 3.575 13.4625 3.575H10.6625V1.65C10.6625 1.2634 10.3491 0.949997 9.96251 0.949997C9.57591 0.949997 9.26251 1.2634 9.26251 1.65V3.575H6.72501V1.65ZM12.7625 8.79294V11.4562C12.7047 11.4521 12.6464 11.45 12.5875 11.45H3.40001C3.34117 11.45 3.28281 11.4521 3.22501 11.4562V9.08025C3.51487 9.15016 3.88134 9.22369 4.30283 9.27628C5.35684 9.40781 6.7932 9.41319 8.24069 8.86752C9.40453 8.42877 10.5932 8.4234 11.5113 8.53797C11.9672 8.59486 12.3469 8.68016 12.6102 8.75041C12.6666 8.76546 12.7175 8.77979 12.7625 8.79294ZM12.7625 7.34479V4.975H3.22501V7.63209C3.27003 7.64524 3.32095 7.65957 3.37735 7.67462C3.64061 7.74488 4.02033 7.83017 4.47619 7.88706C5.39436 8.00164 6.583 7.99626 7.74684 7.55751C9.19433 7.01184 10.6307 7.01722 11.6847 7.14875C12.1062 7.20134 12.4727 7.27487 12.7625 7.34479ZM2.38309 13.6375H13.6044C13.4879 13.1846 13.0768 12.85 12.5875 12.85H3.40001C2.91075 12.85 2.49965 13.1846 2.38309 13.6375Z" fill="#2D2D2D"/>
</g>
<defs>
<clipPath id="clip0_154_45">
<rect width="16" height="16" fill="white"/>
</clipPath>
</defs>
</svg>
