<svg width="16" height="16" viewBox="0 0 16 16" fill="none" xmlns="http://www.w3.org/2000/svg">
<path fill-rule="evenodd" clip-rule="evenodd" d="M2.40001 4.33398C2.40001 3.74085 2.88083 3.26002 3.47397 3.26002H12.5248C13.1179 3.26002 13.5987 3.74084 13.5987 4.33398V5.83885H2.40001V4.33398ZM2.40001 7.13885V11.6608C2.40001 12.254 2.88083 12.7348 3.47397 12.7348H12.5248C13.1179 12.7348 13.5987 12.254 13.5987 11.6608V7.13885H2.40001ZM3.47397 1.96002C2.16286 1.96002 1.10001 3.02288 1.10001 4.33398V11.6608C1.10001 12.9719 2.16287 14.0348 3.47397 14.0348H12.5248C13.8359 14.0348 14.8987 12.9719 14.8987 11.6608V4.33398C14.8987 3.02289 13.8359 1.96002 12.5248 1.96002H3.47397ZM3.68597 9.93688C3.68597 9.57789 3.97698 9.28688 4.33597 9.28688H6.49092C6.8499 9.28688 7.14092 9.57789 7.14092 9.93688C7.14092 10.2959 6.8499 10.5869 6.49092 10.5869H4.33597C3.97698 10.5869 3.68597 10.2959 3.68597 9.93688ZM11.2318 9.28688C10.8728 9.28688 10.5818 9.57789 10.5818 9.93688C10.5818 10.2959 10.8728 10.5869 11.2318 10.5869H11.6624C12.0214 10.5869 12.3124 10.2959 12.3124 9.93688C12.3124 9.57789 12.0214 9.28688 11.6624 9.28688H11.2318Z" fill="black"/>
</svg>
