<svg width="16" height="16" viewBox="0 0 16 16" fill="none" xmlns="http://www.w3.org/2000/svg">
<path fill-rule="evenodd" clip-rule="evenodd" d="M1.82999 1.66002C1.82999 1.27342 2.14339 0.960022 2.52999 0.960022H11.7175C13.0706 0.960022 14.1675 2.05692 14.1675 3.41002V12.5975C14.1675 13.9506 13.0706 15.0475 11.7175 15.0475H2.52999C2.14339 15.0475 1.82999 14.7341 1.82999 14.3475V1.66002ZM3.22999 2.36002V13.6475H11.7175C12.2974 13.6475 12.7675 13.1774 12.7675 12.5975V3.41002C12.7675 2.83012 12.2974 2.36002 11.7175 2.36002H3.22999ZM7.49874 4.98502C6.79803 4.98502 6.22999 5.55306 6.22999 6.25377C6.22999 6.95448 6.79803 7.52252 7.49874 7.52252C8.19945 7.52252 8.76749 6.95448 8.76749 6.25377C8.76749 5.55306 8.19945 4.98502 7.49874 4.98502ZM4.82999 6.25377C4.82999 4.77986 6.02483 3.58502 7.49874 3.58502C8.97265 3.58502 10.1675 4.77986 10.1675 6.25377C10.1675 7.72768 8.97265 8.92252 7.49874 8.92252C6.02483 8.92252 4.82999 7.72768 4.82999 6.25377ZM5.52999 10.1475C5.14339 10.1475 4.82999 10.4609 4.82999 10.8475C4.82999 11.2341 5.14339 11.5475 5.52999 11.5475H9.46749C9.85409 11.5475 10.1675 11.2341 10.1675 10.8475C10.1675 10.4609 9.85409 10.1475 9.46749 10.1475H5.52999Z" fill="black"/>
</svg>
