<svg width="16" height="16" viewBox="0 0 16 16" fill="none" xmlns="http://www.w3.org/2000/svg">
<path d="M5.64286 2.5L6.14209 2.16718C6.03081 2.00026 5.84347 1.9 5.64286 1.9V2.5ZM7.21429 4.85714L7.63855 5.28141C7.84079 5.07917 7.87217 4.7623 7.71352 4.52432L7.21429 4.85714ZM5.97197 6.09946L5.5477 5.6752L5.5477 5.6752L5.97197 6.09946ZM11.1429 8.78571L11.4757 8.28648C11.2377 8.12783 10.9208 8.15921 10.7186 8.36145L11.1429 8.78571ZM13.5 10.3571H14.1C14.1 10.1565 13.9997 9.96919 13.8328 9.85791L13.5 10.3571ZM5.82146 6.85748L6.36385 6.60094L6.36385 6.60093L5.82146 6.85748ZM7.21429 8.78571L6.80024 9.21996L7.21429 8.78571ZM9.12435 10.1485L8.84897 10.6815L8.84897 10.6815L9.12435 10.1485ZM3.5 3.1H5.64286V1.9H3.5V3.1ZM5.14363 2.83282L6.71506 5.18996L7.71352 4.52432L6.14209 2.16718L5.14363 2.83282ZM6.79002 4.43288L5.5477 5.6752L6.39623 6.52372L7.63855 5.28141L6.79002 4.43288ZM10.3449 10.4322L11.5671 9.20998L10.7186 8.36145L9.49635 9.58369L10.3449 10.4322ZM10.81 9.28494L13.1672 10.8564L13.8328 9.85791L11.4757 8.28648L10.81 9.28494ZM12.9 10.3571V12.5H14.1V10.3571H12.9ZM5.27907 7.11403C5.51765 7.61843 5.99039 8.44777 6.80024 9.21996L7.62833 8.35147C6.95644 7.71083 6.56102 7.01779 6.36385 6.60094L5.27907 7.11403ZM6.80024 9.21996C7.57655 9.96016 8.36213 10.43 8.84897 10.6815L9.39973 9.6154C8.98183 9.39952 8.29926 8.99119 7.62833 8.35147L6.80024 9.21996ZM12.9 12.5C12.9 12.7209 12.7209 12.9 12.5 12.9V14.1C13.3837 14.1 14.1 13.3837 14.1 12.5H12.9ZM9.49635 9.58369C9.47354 9.60651 9.45001 9.61649 9.43347 9.61955C9.41879 9.62228 9.40894 9.62016 9.39973 9.6154L8.84897 10.6815C9.37287 10.9522 9.96873 10.8084 10.3449 10.4322L9.49635 9.58369ZM12.5 12.9C7.30852 12.9 3.1 8.69148 3.1 3.5H1.9C1.9 9.35422 6.64578 14.1 12.5 14.1V12.9ZM5.5477 5.6752C5.19116 6.03174 5.03445 6.59686 5.27907 7.11403L6.36385 6.60093C6.36174 6.59649 6.36015 6.59145 6.36246 6.5804C6.36522 6.56723 6.37425 6.5457 6.39623 6.52372L5.5477 5.6752ZM3.5 1.9C2.61634 1.9 1.9 2.61634 1.9 3.5H3.1C3.1 3.27909 3.27909 3.1 3.5 3.1V1.9Z" fill="#0E1438"/>
</svg>
