<svg width="16" height="16" viewBox="0 0 16 16" fill="none" xmlns="http://www.w3.org/2000/svg"><path d="M7.569 1.229 C 5.699 1.337,3.892 2.271,2.715 3.738 C 1.488 5.267,0.973 7.242,1.305 9.147 C 1.658 11.170,2.895 12.919,4.688 13.931 C 6.008 14.676,7.646 14.957,9.147 14.695 C 11.546 14.276,13.536 12.620,14.373 10.345 C 15.124 8.305,14.854 6.032,13.645 4.227 C 13.295 3.703,12.759 3.114,12.287 2.734 C 11.220 1.874,9.818 1.312,8.560 1.240 C 8.025 1.209,7.923 1.208,7.569 1.229 M8.826 2.523 C 11.211 2.870,13.106 4.769,13.481 7.188 C 13.543 7.587,13.543 8.413,13.481 8.812 C 13.179 10.761,11.898 12.393,10.091 13.130 C 8.067 13.956,5.758 13.519,4.189 12.014 C 3.275 11.137,2.711 10.056,2.519 8.812 C 2.487 8.612,2.473 8.357,2.473 8.000 C 2.473 7.422,2.513 7.094,2.642 6.592 C 3.220 4.351,5.214 2.672,7.526 2.480 C 7.874 2.451,8.466 2.471,8.826 2.523 M9.720 5.201 C 9.458 5.239,6.737 6.002,6.602 6.075 C 6.405 6.181,6.180 6.403,6.083 6.585 C 6.022 6.699,5.882 7.165,5.595 8.206 C 5.131 9.892,5.125 9.931,5.273 10.246 C 5.377 10.469,5.531 10.623,5.754 10.727 C 6.069 10.875,6.109 10.869,7.789 10.406 C 8.615 10.179,9.307 9.974,9.388 9.933 C 9.581 9.835,9.816 9.605,9.918 9.413 C 9.978 9.301,10.121 8.824,10.405 7.794 C 10.869 6.108,10.875 6.069,10.727 5.754 C 10.634 5.555,10.473 5.385,10.293 5.293 C 10.185 5.238,10.116 5.220,9.907 5.189 C 9.877 5.185,9.793 5.190,9.720 5.201 M9.429 6.607 C 9.421 6.632,9.283 7.138,9.122 7.730 C 8.960 8.323,8.823 8.813,8.816 8.819 C 8.800 8.835,6.579 9.441,6.570 9.432 C 6.561 9.423,7.167 7.197,7.182 7.182 C 7.193 7.172,9.378 6.567,9.422 6.562 C 9.434 6.561,9.437 6.581,9.429 6.607 " stroke="none" fill-rule="evenodd" fill="black"></path></svg>