<svg width="16" height="16" viewBox="0 0 16 16" fill="none" xmlns="http://www.w3.org/2000/svg">
<path fill-rule="evenodd" clip-rule="evenodd" d="M0.099823 3.69313C0.099823 2.75804 0.857862 2 1.79295 2H14.2071C15.1421 2 15.9002 2.75804 15.9002 3.69313V12.1347C15.9002 13.0698 15.1421 13.8278 14.2071 13.8278H1.79295C0.857862 13.8278 0.099823 13.0698 0.099823 12.1347V3.69313ZM1.79295 3.4C1.63106 3.4 1.49982 3.53124 1.49982 3.69313V12.1347C1.49982 12.2966 1.63106 12.4278 1.79295 12.4278H14.2071C14.3689 12.4278 14.5002 12.2966 14.5002 12.1347V3.69313C14.5002 3.53124 14.3689 3.4 14.2071 3.4H1.79295Z" fill="black"/>
<rect x="2.5" y="8.25" width="2" height="1.5" rx="0.75" fill="black"/>
<rect x="5.5" y="8.25" width="2" height="1.5" rx="0.75" fill="black"/>
<rect x="8.5" y="8.25" width="2" height="1.5" rx="0.75" fill="black"/>
<rect x="11.5" y="8.25" width="2" height="1.5" rx="0.75" fill="black"/>
</svg>
