<svg width="16" height="16" viewBox="0 0 16 16" fill="none" xmlns="http://www.w3.org/2000/svg">
<path fill-rule="evenodd" clip-rule="evenodd" d="M5.07124 0.770001C3.68984 0.770001 2.57 1.88985 2.57 3.27124V12.7278C2.57 14.1092 3.68984 15.229 5.07124 15.229H10.9253C12.3067 15.229 13.4265 14.1092 13.4265 12.7278V3.27124C13.4265 1.88985 12.3067 0.770001 10.9253 0.770001H5.07124ZM3.97 3.27124C3.97 2.66304 4.46304 2.17 5.07124 2.17H10.9253C11.5335 2.17 12.0265 2.66304 12.0265 3.27124V12.7278C12.0265 13.336 11.5335 13.829 10.9253 13.829H5.07124C4.46304 13.829 3.97 13.336 3.97 12.7278V3.27124ZM7.77309 11.5275C7.35888 11.5275 7.02309 11.8632 7.02309 12.2775C7.02309 12.6917 7.35888 13.0275 7.77309 13.0275H8.2234C8.63762 13.0275 8.9734 12.6917 8.9734 12.2775C8.9734 11.8632 8.63762 11.5275 8.2234 11.5275H7.77309Z" fill="black"/>
</svg>
