<svg width="16" height="16" viewBox="0 0 16 16" fill="none" xmlns="http://www.w3.org/2000/svg"><path d="M7.840 0.610 C 7.679 0.663,7.577 0.753,6.933 1.404 C 6.177 2.171,6.091 2.287,5.957 2.733 C 5.895 2.943,5.886 3.019,5.886 3.333 C 5.886 3.647,5.895 3.724,5.957 3.933 C 5.997 4.065,6.080 4.262,6.141 4.371 C 6.362 4.760,6.820 5.164,7.201 5.307 L 7.360 5.367 7.360 5.617 L 7.360 5.867 5.433 5.867 C 4.374 5.868,3.419 5.880,3.312 5.894 C 3.042 5.929,2.809 6.045,2.601 6.249 C 2.424 6.424,2.325 6.589,2.255 6.832 C 2.216 6.963,2.212 7.149,2.219 8.364 L 2.227 9.747 2.299 9.914 C 2.338 10.006,2.407 10.128,2.452 10.185 L 2.533 10.288 2.534 11.937 C 2.534 13.754,2.539 13.812,2.695 14.106 C 2.798 14.298,3.058 14.554,3.251 14.652 C 3.551 14.804,3.380 14.799,8.000 14.799 C 12.620 14.799,12.449 14.804,12.749 14.652 C 12.942 14.554,13.202 14.298,13.305 14.106 C 13.461 13.812,13.466 13.754,13.466 11.937 L 13.467 10.288 13.548 10.185 C 13.593 10.128,13.662 10.006,13.701 9.914 L 13.773 9.747 13.781 8.364 C 13.788 7.149,13.784 6.963,13.745 6.832 C 13.675 6.589,13.576 6.424,13.399 6.249 C 13.191 6.045,12.958 5.929,12.688 5.894 C 12.581 5.880,11.626 5.868,10.567 5.867 L 8.640 5.867 8.640 5.618 L 8.640 5.369 8.818 5.296 C 9.408 5.054,9.889 4.502,10.058 3.873 C 10.129 3.606,10.136 3.110,10.072 2.847 C 10.015 2.614,9.911 2.370,9.792 2.187 C 9.667 1.995,8.417 0.731,8.283 0.662 C 8.168 0.603,7.943 0.576,7.840 0.610 M8.369 2.464 C 8.795 2.898,8.860 3.013,8.860 3.333 C 8.860 3.498,8.847 3.570,8.793 3.687 C 8.538 4.243,7.816 4.376,7.387 3.947 C 7.218 3.778,7.137 3.579,7.137 3.333 C 7.137 3.018,7.206 2.896,7.631 2.464 C 7.824 2.268,7.990 2.107,8.000 2.107 C 8.010 2.107,8.176 2.268,8.369 2.464 M12.527 8.298 L 12.520 9.476 11.947 9.790 C 11.631 9.963,11.366 10.105,11.356 10.106 C 11.346 10.106,11.081 9.953,10.767 9.765 C 10.135 9.387,9.999 9.333,9.667 9.333 C 9.335 9.333,9.198 9.387,8.569 9.763 L 8.000 10.104 7.431 9.763 C 6.802 9.387,6.665 9.333,6.333 9.333 C 6.001 9.333,5.865 9.387,5.233 9.765 C 4.919 9.953,4.654 10.106,4.644 10.106 C 4.634 10.105,4.369 9.963,4.053 9.790 L 3.480 9.476 3.473 8.298 L 3.466 7.120 8.000 7.120 L 12.534 7.120 12.527 8.298 M6.872 10.889 C 7.417 11.216,7.595 11.299,7.820 11.331 C 8.216 11.386,8.429 11.312,9.187 10.853 C 9.436 10.702,9.652 10.579,9.667 10.579 C 9.681 10.579,9.938 10.726,10.237 10.906 C 10.536 11.085,10.848 11.256,10.931 11.285 C 11.271 11.404,11.616 11.372,11.987 11.186 C 12.089 11.135,12.182 11.093,12.194 11.093 C 12.205 11.093,12.211 11.642,12.207 12.313 L 12.200 13.533 8.000 13.533 L 3.800 13.533 3.793 12.313 C 3.789 11.642,3.795 11.093,3.806 11.093 C 3.818 11.093,3.911 11.135,4.013 11.186 C 4.384 11.372,4.729 11.404,5.069 11.285 C 5.152 11.256,5.470 11.082,5.776 10.898 C 6.270 10.602,6.339 10.568,6.387 10.597 C 6.416 10.616,6.634 10.747,6.872 10.889 " stroke="none" fill-rule="evenodd" fill="black"></path></svg>