<svg width="16" height="16" viewBox="0 0 16 16" fill="none" xmlns="http://www.w3.org/2000/svg">
<path d="M13.4749 2.00208C13.4543 2.00568 13.4336 2.01108 13.4149 2.01647C13.1919 2.06505 13.0345 2.25757 13.0401 2.47707V8.00419C13.0401 9.28162 11.9719 10.3072 10.6413 10.3072H3.6548L5.70877 8.33524C5.86431 8.1967 5.90554 7.9772 5.81184 7.79548C5.72001 7.61197 5.51199 7.51121 5.30397 7.5436C5.19715 7.55439 5.09595 7.60117 5.01911 7.67314L2.21552 10.3791C2.18928 10.3953 2.16304 10.4151 2.14055 10.4367C2.12931 10.4457 2.11994 10.4547 2.11057 10.4655C2.08808 10.4925 2.06747 10.5213 2.0506 10.5518C2.04498 10.5608 2.03936 10.5716 2.03561 10.5806C2.03561 10.586 2.03561 10.5896 2.03561 10.595C2.02998 10.604 2.02436 10.6148 2.02061 10.6238C2.01499 10.6418 2.00937 10.6616 2.00562 10.6814C1.99813 10.73 1.99813 10.7767 2.00562 10.8253C2.00562 10.8343 2.00562 10.8451 2.00562 10.8541C2.00562 10.8595 2.00562 10.8631 2.00562 10.8685C2.00937 10.8775 2.01499 10.8883 2.02061 10.8973C2.02061 10.9027 2.02061 10.9063 2.02061 10.9117C2.02436 10.9207 2.02998 10.9315 2.03561 10.9405C2.03936 10.9495 2.04498 10.9603 2.0506 10.9693C2.0506 10.9747 2.0506 10.9783 2.0506 10.9837C2.06747 11.0142 2.08808 11.043 2.11057 11.07C2.11994 11.0808 2.12931 11.0898 2.14055 11.0988C2.15555 11.1096 2.17054 11.1186 2.18553 11.1276L5.01911 13.8624C5.21027 14.0459 5.51761 14.0459 5.70877 13.8624C5.89992 13.6788 5.89992 13.3838 5.70877 13.2003L3.6548 11.2283H10.6413C12.491 11.2283 13.9996 9.77999 13.9996 8.00419V2.47707C14.0052 2.34393 13.949 2.21618 13.8497 2.12622C13.7485 2.03447 13.6117 1.98949 13.4749 2.00208Z" fill="black" stroke="black" stroke-width="0.4"/>
</svg>
