<svg width="16" height="16" viewBox="0 0 16 16" fill="none" xmlns="http://www.w3.org/2000/svg">
<path d="M16 3.03902C15.4111 3.30055 14.7785 3.47654 14.1145 3.55592C14.7927 3.14978 15.3126 2.50673 15.5576 1.73999C14.9237 2.11598 14.221 2.3892 13.4727 2.53688C12.874 1.89875 12.0211 1.5 11.0771 1.5C9.26426 1.5 7.79478 2.9701 7.79478 4.78234C7.79478 5.03956 7.82431 5.29062 7.8797 5.53C5.1518 5.39339 2.73343 4.08636 1.1138 2.09998C0.831968 2.58488 0.670128 3.14855 0.670128 3.75099C0.670128 4.88941 1.24918 5.89429 2.12976 6.48258C1.59194 6.46535 1.0855 6.31766 0.643052 6.07213C0.643052 6.08628 0.643052 6.09921 0.643052 6.11336C0.643052 7.70407 1.77409 9.03079 3.27618 9.3317C3.00112 9.40677 2.71066 9.44677 2.41098 9.44677C2.19992 9.44677 1.99377 9.42585 1.79378 9.38831C2.21161 10.6923 3.42387 11.6418 4.86012 11.6682C3.73709 12.5488 2.32176 13.0737 0.783355 13.0737C0.518749 13.0737 0.257221 13.0583 0 13.0276C1.45287 13.9586 3.17772 14.502 5.03181 14.502C11.0697 14.502 14.3705 9.50031 14.3705 5.16263C14.3705 5.02048 14.3674 4.87895 14.3613 4.73803C15.0031 4.27466 15.56 3.69684 16 3.03902Z" fill="#0E1438"/>
</svg>
