<svg width="16" height="16" viewBox="0 0 16 16" fill="none" xmlns="http://www.w3.org/2000/svg">
<path fill-rule="evenodd" clip-rule="evenodd" d="M8.00743 1.5C4.41348 1.5 1.5 4.41348 1.5 8.00743C1.5 11.6014 4.41348 14.5149 8.00743 14.5149C11.6014 14.5149 14.5149 11.6014 14.5149 8.00743C14.5149 4.41348 11.6014 1.5 8.00743 1.5ZM2.7 8.00743C2.7 5.07622 5.07622 2.7 8.00743 2.7C10.9387 2.7 13.3149 5.07622 13.3149 8.00743C13.3149 10.9387 10.9387 13.3149 8.00743 13.3149C5.07622 13.3149 2.7 10.9387 2.7 8.00743ZM10.3612 6.4727C10.5261 6.18528 10.4268 5.81859 10.1394 5.65367C9.85196 5.48875 9.48527 5.58806 9.32036 5.87548L7.45148 9.13254C7.36496 9.28332 7.14452 9.27425 7.07068 9.11688L6.71727 8.36368C6.57651 8.06369 6.21921 7.93461 5.91922 8.07536C5.61923 8.21612 5.49015 8.57342 5.63091 8.87341L5.98432 9.62661C6.47064 10.6631 7.92251 10.7228 8.49231 9.72976L10.3612 6.4727Z" fill="#0E1438"/>
</svg>
