<svg width="16" height="16" viewBox="0 0 16 16" fill="none" xmlns="http://www.w3.org/2000/svg">
<path fill-rule="evenodd" clip-rule="evenodd" d="M5.27046 3.09931C5.66313 2.55928 6.42518 1.95001 8.01019 1.95001C8.75385 1.95001 9.37075 2.22924 9.81626 2.52672C10.0375 2.67448 10.2091 2.822 10.3233 2.93034C10.3801 2.98424 10.4219 3.02766 10.4477 3.05545C10.4605 3.06932 10.4693 3.07922 10.4739 3.08449L10.4772 3.0882L10.4775 3.08864C10.7429 3.40433 11.2139 3.4466 11.5313 3.1825C11.8497 2.91758 11.893 2.44469 11.6281 2.12627L11.0516 2.60596C11.6281 2.12627 11.6279 2.12604 11.6277 2.12581L11.6273 2.12532L11.6264 2.12424L11.6243 2.12168L11.6186 2.11504L11.602 2.09585C11.5886 2.08053 11.5704 2.06022 11.5477 2.03565C11.5021 1.98655 11.4379 1.92013 11.3558 1.84223C11.1922 1.68695 10.9543 1.48298 10.6492 1.27925C10.042 0.873761 9.13815 0.450012 8.01019 0.450012C5.95825 0.450012 4.73978 1.27854 4.05727 2.21717C3.61875 2.82025 3.4331 3.49725 3.35074 4.13776C3.2796 4.69105 3.2812 5.2661 3.2826 5.77171V5.77172C3.28279 5.84053 3.28298 5.90806 3.28298 5.97408V6.07379H3.09725C2.1651 6.07379 1.41144 6.83032 1.41144 7.76109V12.9162C1.41144 14.3647 2.58407 15.5408 4.03306 15.5408H11.9875C13.4365 15.5408 14.6091 14.3647 14.6091 12.9162V7.76109C14.6091 6.83033 13.8555 6.07379 12.9233 6.07379H4.78298V5.97408L4.78271 5.76495C4.78169 5.24804 4.78077 4.778 4.8385 4.32905C4.90238 3.8322 5.03218 3.42702 5.27046 3.09932L5.27046 3.09931ZM2.91144 7.76109C2.91144 7.65652 2.99575 7.57379 3.09725 7.57379H12.9233C13.0248 7.57379 13.1091 7.65651 13.1091 7.76109V12.9162C13.1091 13.5385 12.6058 14.0408 11.9875 14.0408H4.03306C3.41472 14.0408 2.91144 13.5385 2.91144 12.9162V7.76109Z" fill="black"/>
</svg>
