<svg width="16" height="16" viewBox="0 0 16 16" fill="none" xmlns="http://www.w3.org/2000/svg">
<path fill-rule="evenodd" clip-rule="evenodd" d="M12.9534 2.44999C12.864 2.44999 12.7916 2.52243 12.7916 2.61179V13.3845C12.7916 13.4739 12.864 13.5463 12.9534 13.5463H13.3843C13.4736 13.5463 13.5461 13.4739 13.5461 13.3845V2.61179C13.5461 2.52243 13.4736 2.44999 13.3843 2.44999H12.9534ZM11.3916 2.61179C11.3916 1.74923 12.0908 1.04999 12.9534 1.04999H13.3843C14.2468 1.04999 14.9461 1.74923 14.9461 2.61179V13.3845C14.9461 14.2471 14.2468 14.9463 13.3843 14.9463H12.9534C12.0908 14.9463 11.3916 14.2471 11.3916 13.3845V2.61179ZM5.66174 2.44999L1.25501 6.85671C0.981646 7.13008 0.981646 7.57329 1.25501 7.84666C1.52838 8.12003 1.9716 8.12003 2.24496 7.84666L6.65168 3.43994V4.76629C6.65168 5.15289 6.96509 5.46629 7.35168 5.46629C7.73828 5.46629 8.05168 5.15289 8.05168 4.76629V1.74999C8.05168 1.36339 7.73828 1.04999 7.35168 1.04999H4.33539C3.94879 1.04999 3.63539 1.36339 3.63539 1.74999C3.63539 2.13659 3.94879 2.44999 4.33539 2.44999H5.66174ZM2.61179 11.068C2.52243 11.068 2.44999 11.1404 2.44999 11.2298V13.3845C2.44999 13.4739 2.52243 13.5463 2.61179 13.5463H3.04269C3.13205 13.5463 3.20449 13.4739 3.20449 13.3845V11.2298C3.20449 11.1404 3.13205 11.068 3.04269 11.068H2.61179ZM1.04999 11.2298C1.04999 10.3672 1.74923 9.66798 2.61179 9.66798H3.04269C3.90525 9.66798 4.60449 10.3672 4.60449 11.2298V13.3845C4.60449 14.2471 3.90525 14.9463 3.04269 14.9463H2.61179C1.74923 14.9463 1.04999 14.2471 1.04999 13.3845V11.2298ZM7.62078 8.64439C7.62078 8.55503 7.69323 8.48259 7.78259 8.48259H8.21349C8.30285 8.48259 8.37529 8.55503 8.37529 8.64439V13.3845C8.37529 13.4739 8.30285 13.5463 8.21349 13.5463H7.78259C7.69322 13.5463 7.62078 13.4739 7.62078 13.3845V8.64439ZM7.78259 7.08259C6.92003 7.08259 6.22079 7.78183 6.22079 8.64439V13.3845C6.22079 14.2471 6.92003 14.9463 7.78259 14.9463H8.21349C9.07605 14.9463 9.77529 14.2471 9.77529 13.3845V8.64439C9.77529 7.78183 9.07605 7.08259 8.21349 7.08259H7.78259Z" fill="black"/>
</svg>
