<svg width="16" height="16" viewBox="0 0 16 16" fill="none" xmlns="http://www.w3.org/2000/svg">
<g clip-path="url(#clip0_946_36)">
<path fill-rule="evenodd" clip-rule="evenodd" d="M7.7 1C4.0009 1 1 4.0009 1 7.7C1 11.3991 4.0009 14.4 7.7 14.4C11.3991 14.4 14.4 11.3991 14.4 7.7C14.4 4.0009 11.3991 1 7.7 1ZM2.4 7.7C2.4 4.7741 4.7741 2.4 7.7 2.4C10.6259 2.4 13 4.7741 13 7.7C13 10.6259 10.6259 13 7.7 13C4.7741 13 2.4 10.6259 2.4 7.7ZM10.0366 7.99062L6.46001 10.1512C6.40874 10.182 6.35023 10.1985 6.29047 10.1991C6.23071 10.1998 6.17186 10.1845 6.11995 10.1549C6.06804 10.1253 6.02494 10.0824 5.99508 10.0306C5.96522 9.97885 5.94966 9.92007 5.95001 9.86031V5.53968C5.94966 5.47992 5.96522 5.42115 5.99508 5.36938C6.02494 5.31762 6.06804 5.27473 6.11995 5.24512C6.17186 5.21551 6.23071 5.20024 6.29047 5.20087C6.35023 5.20151 6.40874 5.21803 6.46001 5.24875L10.0366 7.40937C10.0864 7.43974 10.1276 7.48243 10.1562 7.53333C10.1848 7.58422 10.1998 7.64162 10.1998 7.7C10.1998 7.75837 10.1848 7.81577 10.1562 7.86667C10.1276 7.91756 10.0864 7.96025 10.0366 7.99062Z" fill="black"/>
</g>
<defs>
<clipPath id="clip0_946_36">
<rect width="16" height="16" fill="white"/>
</clipPath>
</defs>
</svg>
