<svg width="16" height="16" viewBox="0 0 16 16" fill="none" xmlns="http://www.w3.org/2000/svg"><path d="M2.964 1.894 C 2.603 1.943,2.208 2.225,2.028 2.561 C 1.902 2.799,1.868 3.009,1.867 3.560 C 1.866 5.206,2.118 6.526,2.695 7.891 C 3.715 10.303,5.697 12.285,8.109 13.305 C 9.474 13.882,10.794 14.134,12.440 14.133 C 13.179 14.132,13.440 14.051,13.755 13.723 C 13.941 13.529,14.043 13.341,14.095 13.097 C 14.141 12.879,14.150 10.544,14.105 10.270 C 14.061 9.999,13.947 9.782,13.740 9.574 C 13.562 9.397,13.532 9.380,12.437 8.833 C 11.771 8.500,11.260 8.261,11.177 8.243 C 10.987 8.203,10.736 8.206,10.564 8.252 C 10.312 8.319,10.141 8.427,9.850 8.703 L 9.569 8.969 9.364 8.869 C 8.402 8.394,7.652 7.651,7.154 6.676 L 7.029 6.432 7.294 6.154 C 7.571 5.865,7.680 5.692,7.748 5.436 C 7.804 5.226,7.797 4.936,7.732 4.742 C 7.701 4.652,7.436 4.098,7.142 3.511 C 6.695 2.620,6.585 2.420,6.474 2.302 C 6.308 2.127,6.129 2.011,5.913 1.938 C 5.754 1.885,5.690 1.882,4.440 1.877 C 3.721 1.874,3.057 1.882,2.964 1.894 M6.045 4.118 L 6.544 5.115 6.295 5.376 C 6.158 5.519,6.011 5.691,5.969 5.758 C 5.792 6.036,5.734 6.444,5.826 6.763 C 5.885 6.969,6.187 7.550,6.407 7.883 C 6.866 8.574,7.425 9.133,8.115 9.591 C 8.422 9.795,8.965 10.083,9.189 10.162 C 9.505 10.273,9.948 10.218,10.242 10.031 C 10.309 9.989,10.481 9.842,10.624 9.705 L 10.885 9.456 11.883 9.955 L 12.881 10.454 12.874 11.660 L 12.867 12.867 12.173 12.865 C 11.792 12.864,11.354 12.849,11.200 12.831 C 9.420 12.623,7.864 11.986,6.520 10.917 C 5.960 10.471,5.212 9.680,4.785 9.080 C 3.962 7.926,3.407 6.526,3.215 5.120 C 3.141 4.579,3.087 3.189,3.138 3.138 C 3.148 3.128,3.694 3.120,4.351 3.120 L 5.547 3.120 6.045 4.118 " stroke="none" fill-rule="evenodd" fill="black"></path></svg>