<svg width="16" height="16" viewBox="0 0 16 16" fill="none" xmlns="http://www.w3.org/2000/svg"><path d="M6.987 2.817 C 6.950 2.822,6.830 2.840,6.720 2.856 C 6.156 2.936,5.520 3.165,5.040 3.461 C 3.629 4.329,2.800 5.795,2.800 7.423 C 2.800 9.059,3.619 10.523,5.021 11.393 C 5.734 11.836,6.541 12.059,7.427 12.060 C 8.049 12.060,8.514 11.977,9.085 11.764 C 9.434 11.634,9.939 11.361,10.147 11.190 L 10.227 11.124 11.147 12.038 C 12.163 13.048,12.177 13.058,12.465 13.035 C 12.873 13.001,13.143 12.575,12.999 12.193 C 12.960 12.087,12.802 11.916,12.038 11.147 L 11.124 10.227 11.190 10.147 C 11.275 10.043,11.491 9.686,11.598 9.471 C 11.780 9.109,11.940 8.598,12.017 8.136 C 12.073 7.800,12.074 7.060,12.019 6.733 C 11.847 5.719,11.432 4.895,10.739 4.190 C 9.842 3.278,8.665 2.790,7.392 2.804 C 7.206 2.806,7.023 2.812,6.987 2.817 M7.989 4.093 C 9.380 4.318,10.517 5.440,10.763 6.829 C 10.859 7.371,10.803 8.064,10.623 8.566 C 9.981 10.354,8.005 11.268,6.230 10.600 C 5.294 10.248,4.539 9.457,4.215 8.488 C 3.986 7.806,4.001 6.962,4.253 6.262 C 4.641 5.187,5.628 4.336,6.734 4.123 C 6.851 4.101,6.971 4.077,7.000 4.071 C 7.132 4.043,7.768 4.057,7.989 4.093 " stroke="none" fill-rule="evenodd" fill="black"></path></svg>