<svg width="16" height="16" viewBox="0 0 16 16" fill="none" xmlns="http://www.w3.org/2000/svg">
<path fill-rule="evenodd" clip-rule="evenodd" d="M1.31376 8.60942C1.15547 8.74476 0.95397 8.80394 0.63175 8.80394H0.498045V7.18886H0.63175C0.95397 7.18886 1.14774 7.24406 1.31376 7.38613C1.48512 7.53295 1.5881 7.75944 1.5881 7.9937C1.5881 8.2291 1.48512 8.46365 1.31376 8.60942ZM0.731562 6.77515H0V9.21783H0.727102C1.11404 9.21783 1.39335 9.12972 1.63816 8.9353C1.92896 8.70502 2.10152 8.35732 2.10152 7.99711C2.10152 7.27601 1.53855 6.77515 0.731562 6.77515Z" fill="#201D1C"/>
<path fill-rule="evenodd" clip-rule="evenodd" d="M2.33116 6.77515H2.82723V9.21783H2.33116V6.77515Z" fill="#201D1C"/>
<path fill-rule="evenodd" clip-rule="evenodd" d="M4.04544 7.71138C3.74602 7.6063 3.6585 7.5363 3.6585 7.40428C3.6585 7.25082 3.81491 7.13445 4.02998 7.13445C4.17905 7.13445 4.30185 7.19155 4.43268 7.33106L4.69167 7.00594C4.47768 6.82574 4.22157 6.7345 3.94237 6.7345C3.4906 6.7345 3.14628 7.03524 3.14628 7.43292C3.14628 7.77056 3.30635 7.94185 3.77348 8.10451C3.96873 8.16947 4.06794 8.21386 4.11819 8.24393C4.21771 8.30548 4.26726 8.39368 4.26726 8.49564C4.26726 8.69434 4.10273 8.8404 3.88032 8.8404C3.64354 8.8404 3.45195 8.72696 3.33727 8.51395L3.01634 8.81137C3.24579 9.13308 3.52083 9.27686 3.89975 9.27686C4.41653 9.27686 4.78067 8.94577 4.78067 8.47421C4.78067 8.08563 4.61178 7.90951 4.04544 7.71138Z" fill="#201D1C"/>
<path fill-rule="evenodd" clip-rule="evenodd" d="M4.93707 7.99713C4.93707 8.71547 5.52631 9.27211 6.28483 9.27211C6.49872 9.27211 6.68208 9.2317 6.90786 9.12975V8.56837C6.70834 8.76024 6.53321 8.83592 6.30663 8.83592C5.80541 8.83592 5.45039 8.48889 5.45039 7.99372C5.45039 7.52585 5.81691 7.15521 6.28483 7.15521C6.52092 7.15521 6.70131 7.23525 6.90786 7.42997V6.86925C6.68971 6.76369 6.51071 6.71997 6.29504 6.71997C5.54088 6.71997 4.93707 7.28751 4.93707 7.99713Z" fill="#201D1C"/>
<path fill-rule="evenodd" clip-rule="evenodd" d="M10.941 8.41508L10.2603 6.77515H9.71754L10.7997 9.27948H11.0666L12.1697 6.77515H11.6312L10.941 8.41508Z" fill="#201D1C"/>
<path fill-rule="evenodd" clip-rule="evenodd" d="M12.3956 9.21783H13.8073V8.80394H12.8937V8.14459H13.7726V7.73079H12.8937V7.18885H13.8073V6.77515H12.3956V9.21783Z" fill="#201D1C"/>
<path fill-rule="evenodd" clip-rule="evenodd" d="M14.7796 7.8984H14.6351V7.15957H14.7877C15.0988 7.15957 15.2654 7.28448 15.2654 7.52244C15.2654 7.76695 15.0988 7.8984 14.7796 7.8984ZM15.778 7.49586C15.778 7.03843 15.4501 6.77515 14.8753 6.77515H14.136V9.21783H14.6351V8.23573H14.6998L15.3876 9.21783H16L15.1969 8.18831C15.5722 8.1149 15.778 7.86964 15.778 7.49586Z" fill="#201D1C"/>
<path fill-rule="evenodd" clip-rule="evenodd" d="M9.78772 8.00277C9.78772 8.70603 9.19224 9.27604 8.45701 9.27604C7.72198 9.27604 7.1264 8.70603 7.1264 8.00277C7.1264 7.29941 7.72198 6.72931 8.45701 6.72931C9.19224 6.72931 9.78772 7.29941 9.78772 8.00277Z" fill="url(#paint0_linear_1275_653)"/>
<path fill-rule="evenodd" clip-rule="evenodd" d="M9.78772 8.00277C9.78772 8.70603 9.19224 9.27604 8.45701 9.27604C7.72198 9.27604 7.1264 8.70603 7.1264 8.00277C7.1264 7.29941 7.72198 6.72931 8.45701 6.72931C9.19224 6.72931 9.78772 7.29941 9.78772 8.00277Z" fill="url(#paint1_radial_1275_653)"/>
<defs>
<linearGradient id="paint0_linear_1275_653" x1="7.64063" y1="6.96994" x2="9.29688" y2="8.96994" gradientUnits="userSpaceOnUse">
<stop stop-color="#E6772F"/>
<stop offset="1" stop-color="#EA9D2C"/>
</linearGradient>
<radialGradient id="paint1_radial_1275_653" cx="0" cy="0" r="1" gradientUnits="userSpaceOnUse" gradientTransform="translate(8.75 8.53244) rotate(-128.1) scale(1.74728 1.82589)">
<stop stop-color="#EA9D2C" stop-opacity="0"/>
<stop offset="0.328125" stop-color="#DF7624" stop-opacity="0"/>
<stop offset="0.760188" stop-color="#BF4B23" stop-opacity="0.75"/>
<stop offset="1" stop-color="#7D3017"/>
</radialGradient>
</defs>
</svg>
