<svg width="16" height="16" viewBox="0 0 16 16" fill="none" xmlns="http://www.w3.org/2000/svg">
<g clip-path="url(#clip0_314_28)">
<path fill-rule="evenodd" clip-rule="evenodd" d="M12.9782 1.41167C12.3627 0.796111 11.3647 0.796109 10.7491 1.41167L2.03128 10.1295C1.93923 10.2215 1.87467 10.3374 1.84486 10.4641L0.968621 14.1882C0.913097 14.4241 0.98362 14.672 1.15504 14.8435C1.32646 15.0149 1.57436 15.0854 1.81034 15.0299L5.53436 14.1536C5.66107 14.1238 5.77696 14.0593 5.869 13.9672L14.5868 5.24939C15.2024 4.63383 15.2024 3.63582 14.5868 3.02026L12.9782 1.41167ZM11.7391 2.40162C11.8079 2.33279 11.9195 2.33279 11.9883 2.40162L13.5969 4.01021C13.6657 4.07903 13.6657 4.19062 13.5969 4.25944L12.4866 5.36972L10.6288 3.51189L11.7391 2.40162ZM9.63883 4.50184L3.16203 10.9786L2.5904 13.4081L5.01986 12.8365L11.4967 6.35967L9.63883 4.50184Z" fill="black"/>
</g>
<defs>
<clipPath id="clip0_314_28">
<rect width="16" height="16" fill="white"/>
</clipPath>
</defs>
</svg>
