<svg width="16" height="16" viewBox="0 0 16 16" fill="none" xmlns="http://www.w3.org/2000/svg"><path d="M12.870 0.728 C 12.828 0.769,12.802 0.836,12.790 0.935 C 12.688 1.729,12.349 2.270,11.784 2.543 C 11.517 2.672,11.224 2.759,10.955 2.789 C 10.835 2.803,10.773 2.825,10.728 2.869 C 10.589 3.009,10.692 3.179,10.935 3.210 C 11.230 3.248,11.540 3.338,11.787 3.458 C 11.994 3.558,12.076 3.617,12.240 3.783 C 12.549 4.097,12.700 4.432,12.782 4.985 C 12.822 5.257,12.871 5.333,13.004 5.333 C 13.128 5.333,13.186 5.236,13.221 4.969 C 13.357 3.949,13.949 3.357,14.969 3.221 C 15.236 3.186,15.333 3.128,15.333 3.004 C 15.333 2.872,15.262 2.831,14.933 2.775 C 14.383 2.681,14.092 2.546,13.784 2.241 C 13.618 2.077,13.558 1.993,13.458 1.787 C 13.338 1.540,13.248 1.230,13.210 0.935 C 13.179 0.692,13.009 0.589,12.870 0.728 M7.166 2.571 C 7.095 2.590,6.994 2.642,6.939 2.686 C 6.784 2.811,6.729 2.952,6.667 3.387 C 6.511 4.481,6.162 5.448,5.682 6.120 C 4.938 7.158,3.699 7.784,1.907 8.027 C 1.497 8.083,1.294 8.237,1.225 8.544 C 1.166 8.808,1.311 9.107,1.553 9.222 C 1.616 9.252,1.805 9.296,1.973 9.319 C 2.863 9.444,3.510 9.628,4.149 9.937 C 5.630 10.654,6.432 11.937,6.681 13.987 C 6.728 14.379,6.781 14.518,6.929 14.641 C 7.055 14.745,7.278 14.811,7.423 14.788 C 7.633 14.755,7.844 14.586,7.917 14.393 C 7.933 14.353,7.965 14.161,7.988 13.967 C 8.162 12.532,8.613 11.474,9.377 10.710 C 10.142 9.945,11.201 9.494,12.640 9.321 C 13.047 9.272,13.183 9.221,13.308 9.071 C 13.477 8.866,13.502 8.583,13.370 8.354 C 13.250 8.145,13.104 8.072,12.720 8.027 C 10.209 7.733,8.824 6.632,8.214 4.446 C 8.125 4.125,8.046 3.732,7.985 3.307 C 7.961 3.138,7.927 2.964,7.908 2.920 C 7.793 2.644,7.464 2.489,7.166 2.571 M7.435 5.957 C 7.484 6.065,7.599 6.280,7.690 6.433 C 8.243 7.362,8.945 8.029,9.878 8.509 C 10.033 8.588,10.159 8.659,10.160 8.667 C 10.160 8.674,10.031 8.745,9.873 8.825 C 8.807 9.366,7.952 10.237,7.442 11.302 C 7.391 11.407,7.343 11.493,7.335 11.493 C 7.327 11.493,7.254 11.364,7.173 11.207 C 6.689 10.264,5.972 9.519,5.034 8.986 C 4.876 8.896,4.675 8.792,4.587 8.754 C 4.499 8.716,4.427 8.678,4.427 8.669 C 4.427 8.660,4.545 8.597,4.689 8.527 C 5.261 8.251,5.767 7.884,6.215 7.420 C 6.637 6.984,7.043 6.393,7.238 5.935 C 7.279 5.839,7.320 5.760,7.330 5.760 C 7.339 5.760,7.387 5.849,7.435 5.957 " stroke="none" fill-rule="evenodd" fill="black"></path></svg>