<svg width="17" height="17" viewBox="0 0 17 17" fill="none" xmlns="http://www.w3.org/2000/svg">
<g clip-path="url(#clip0_1459_83)">
<path d="M6.62224 5.55253C6.78907 5.2158 7.04673 4.93242 7.36612 4.73439C7.6855 4.53635 8.05389 4.43156 8.42969 4.43184C8.82997 4.43182 9.22121 4.55089 9.55362 4.77389C9.88603 4.9969 10.1446 5.31375 10.2964 5.68414C10.4482 6.05453 10.4863 6.4617 10.406 6.85384C10.3257 7.24598 10.1305 7.60537 9.84534 7.88626C9.39707 8.32826 8.85196 8.80522 8.58838 9.36557M8.42969 12.0525V12.0615M8.42969 14.7422C7.5761 14.7422 6.73086 14.5741 5.94225 14.2474C5.15363 13.9207 4.43707 13.442 3.83349 12.8384C3.22991 12.2348 2.75113 11.5182 2.42447 10.7296C2.09781 9.94101 1.92969 9.09578 1.92969 8.24219C1.92969 7.3886 2.09781 6.54336 2.42447 5.75475C2.75113 4.96613 3.22991 4.24957 3.83349 3.64599C4.43707 3.04241 5.15363 2.56363 5.94225 2.23697C6.73086 1.91031 7.5761 1.74219 8.42969 1.74219C10.1536 1.74219 11.8069 2.42701 13.0259 3.64599C14.2449 4.86498 14.9297 6.51828 14.9297 8.24219C14.9297 9.96609 14.2449 11.6194 13.0259 12.8384C11.8069 14.0574 10.1536 14.7422 8.42969 14.7422Z" stroke="black" stroke-width="1.5" stroke-linecap="round" stroke-linejoin="round"/>
</g>
<defs>
<clipPath id="clip0_1459_83">
<rect width="16" height="16" fill="white" transform="translate(0.429688 0.242188)"/>
</clipPath>
</defs>
</svg>
