<svg width="16" height="16" viewBox="0 0 16 16" fill="none" xmlns="http://www.w3.org/2000/svg">
<g clip-path="url(#clip0_233_55)">
<path fill-rule="evenodd" clip-rule="evenodd" d="M2.39999 7.99374C2.39999 4.9044 4.9044 2.39999 7.99374 2.39999C11.0831 2.39999 13.5875 4.9044 13.5875 7.99374C13.5875 11.0831 11.0831 13.5875 7.99374 13.5875C4.9044 13.5875 2.39999 11.0831 2.39999 7.99374ZM7.99374 0.899994C4.07597 0.899994 0.899994 4.07597 0.899994 7.99374C0.899994 11.9115 4.07597 15.0875 7.99374 15.0875C11.9115 15.0875 15.0875 11.9115 15.0875 7.99374C15.0875 4.07597 11.9115 0.899994 7.99374 0.899994ZM8.74374 4.27499V4.39999H9.96249C10.3767 4.39999 10.7125 4.73578 10.7125 5.14999C10.7125 5.56421 10.3767 5.89999 9.96249 5.89999H7.44687C7.0758 5.89999 6.77499 6.2008 6.77499 6.57187C6.77499 6.94293 7.0758 7.24374 7.44687 7.24374H8.54062C9.74011 7.24374 10.7125 8.21613 10.7125 9.41562C10.7125 10.5466 9.84799 11.4757 8.74374 11.5781V11.7125C8.74374 12.1267 8.40796 12.4625 7.99374 12.4625C7.57953 12.4625 7.24374 12.1267 7.24374 11.7125V11.5875H6.02499C5.61078 11.5875 5.27499 11.2517 5.27499 10.8375C5.27499 10.4233 5.61078 10.0875 6.02499 10.0875H8.54062C8.91168 10.0875 9.21249 9.78669 9.21249 9.41562C9.21249 9.04455 8.91168 8.74374 8.54062 8.74374H7.44687C6.24738 8.74374 5.27499 7.77136 5.27499 6.57187C5.27499 5.44087 6.13949 4.51179 7.24374 4.40937V4.27499C7.24374 3.86078 7.57953 3.52499 7.99374 3.52499C8.40796 3.52499 8.74374 3.86078 8.74374 4.27499Z" fill="black"/>
</g>
<defs>
<clipPath id="clip0_233_55">
<rect width="16" height="16" fill="white"/>
</clipPath>
</defs>
</svg>
