<svg width="16" height="16" viewBox="0 0 16 16" fill="none" xmlns="http://www.w3.org/2000/svg"><path d="M7.550 1.229 C 7.341 1.256,7.044 1.394,6.880 1.540 C 6.807 1.605,6.587 1.906,6.322 2.303 C 6.032 2.739,5.870 2.960,5.839 2.960 C 5.814 2.960,5.507 2.894,5.157 2.814 C 4.475 2.657,4.300 2.640,4.045 2.706 C 3.763 2.780,3.631 2.869,3.262 3.233 C 2.890 3.601,2.791 3.744,2.706 4.039 C 2.638 4.272,2.666 4.552,2.825 5.225 C 2.899 5.539,2.960 5.816,2.960 5.840 C 2.960 5.869,2.735 6.035,2.337 6.300 C 1.994 6.528,1.671 6.753,1.619 6.799 C 1.489 6.913,1.353 7.125,1.277 7.333 C 1.218 7.493,1.213 7.547,1.213 8.000 C 1.213 8.454,1.218 8.507,1.277 8.667 C 1.422 9.060,1.520 9.156,2.305 9.679 C 2.726 9.959,2.960 10.131,2.960 10.159 C 2.960 10.184,2.899 10.461,2.825 10.775 C 2.624 11.627,2.623 11.862,2.819 12.252 C 2.914 12.442,3.533 13.065,3.730 13.169 C 4.124 13.378,4.361 13.379,5.225 13.175 C 5.539 13.101,5.816 13.040,5.841 13.040 C 5.869 13.040,6.041 13.274,6.321 13.695 C 6.844 14.480,6.940 14.578,7.333 14.723 C 7.493 14.782,7.546 14.787,8.000 14.787 C 8.453 14.787,8.507 14.782,8.667 14.723 C 8.884 14.644,9.090 14.508,9.220 14.361 C 9.276 14.298,9.501 13.976,9.720 13.644 C 9.957 13.286,10.137 13.041,10.162 13.041 C 10.185 13.040,10.461 13.101,10.775 13.175 C 11.639 13.379,11.876 13.378,12.270 13.169 C 12.467 13.065,13.086 12.442,13.181 12.252 C 13.377 11.862,13.376 11.627,13.175 10.775 C 13.101 10.461,13.040 10.185,13.041 10.162 C 13.041 10.137,13.286 9.957,13.644 9.720 C 13.976 9.501,14.298 9.276,14.361 9.220 C 14.508 9.090,14.644 8.884,14.723 8.667 C 14.782 8.507,14.787 8.453,14.787 8.000 C 14.787 7.547,14.782 7.493,14.723 7.333 C 14.647 7.125,14.511 6.913,14.381 6.799 C 14.329 6.753,14.006 6.528,13.663 6.300 C 13.265 6.035,13.040 5.869,13.040 5.840 C 13.040 5.816,13.101 5.539,13.175 5.225 C 13.334 4.552,13.362 4.272,13.294 4.039 C 13.209 3.744,13.110 3.601,12.738 3.233 C 12.369 2.869,12.237 2.780,11.955 2.706 C 11.700 2.640,11.525 2.657,10.843 2.814 C 10.493 2.894,10.187 2.960,10.163 2.959 C 10.137 2.959,9.956 2.711,9.693 2.316 C 9.224 1.610,9.111 1.485,8.813 1.343 C 8.536 1.211,8.037 1.166,7.550 1.229 M8.680 3.059 C 9.230 3.890,9.356 4.016,9.776 4.161 C 10.034 4.250,10.240 4.233,10.991 4.062 L 11.656 3.910 11.873 4.127 L 12.090 4.344 11.938 5.009 C 11.737 5.893,11.739 6.082,11.954 6.488 C 12.071 6.710,12.260 6.869,12.941 7.320 L 13.545 7.720 13.545 8.000 L 13.545 8.280 12.941 8.680 C 12.260 9.131,12.071 9.290,11.954 9.512 C 11.739 9.918,11.737 10.107,11.938 10.990 L 12.090 11.655 11.879 11.868 C 11.763 11.984,11.652 12.080,11.632 12.080 C 11.612 12.080,11.310 12.014,10.960 11.933 C 10.110 11.737,9.916 11.740,9.512 11.954 C 9.290 12.071,9.131 12.260,8.680 12.941 L 8.280 13.545 8.000 13.545 L 7.720 13.545 7.320 12.941 C 6.869 12.260,6.710 12.071,6.488 11.954 C 6.084 11.740,5.890 11.737,5.040 11.933 C 4.690 12.014,4.388 12.080,4.368 12.080 C 4.348 12.080,4.237 11.984,4.121 11.868 L 3.910 11.655 4.062 10.990 C 4.263 10.107,4.261 9.918,4.046 9.512 C 3.929 9.290,3.740 9.131,3.059 8.680 L 2.455 8.280 2.455 8.000 L 2.455 7.720 3.059 7.320 C 3.740 6.869,3.929 6.710,4.046 6.488 C 4.261 6.082,4.263 5.893,4.062 5.009 L 3.910 4.344 4.127 4.127 L 4.344 3.910 5.009 4.062 C 5.760 4.233,5.966 4.250,6.224 4.161 C 6.644 4.016,6.770 3.890,7.320 3.059 L 7.720 2.455 8.000 2.455 L 8.280 2.455 8.680 3.059 M7.542 5.587 C 6.628 5.760,5.884 6.453,5.622 7.373 C 5.570 7.554,5.561 7.650,5.561 8.000 C 5.561 8.492,5.605 8.686,5.814 9.107 C 6.120 9.723,6.683 10.182,7.373 10.378 C 7.554 10.430,7.650 10.439,8.000 10.439 C 8.350 10.439,8.446 10.430,8.627 10.378 C 9.317 10.182,9.880 9.723,10.186 9.107 C 10.395 8.686,10.439 8.492,10.439 8.000 C 10.439 7.517,10.396 7.322,10.199 6.915 C 9.902 6.301,9.289 5.798,8.627 5.625 C 8.345 5.551,7.825 5.533,7.542 5.587 M8.515 6.915 C 8.770 7.041,8.960 7.231,9.088 7.490 C 9.185 7.687,9.187 7.697,9.187 8.000 C 9.187 8.303,9.185 8.314,9.088 8.509 C 8.867 8.956,8.483 9.200,8.000 9.200 C 7.517 9.200,7.133 8.956,6.912 8.509 C 6.815 8.314,6.813 8.303,6.813 8.001 C 6.813 7.702,6.816 7.687,6.909 7.493 C 7.024 7.256,7.212 7.057,7.437 6.937 C 7.652 6.823,7.759 6.801,8.060 6.810 C 8.296 6.818,8.338 6.827,8.515 6.915 " stroke="none" fill-rule="evenodd" fill="black"></path></svg>