<svg width="16" height="16" viewBox="0 0 16 16" fill="none" xmlns="http://www.w3.org/2000/svg"><path d="M2.307 2.757 C 1.892 2.889,1.557 3.217,1.433 3.610 L 1.373 3.800 1.373 8.000 L 1.373 12.200 1.434 12.392 C 1.552 12.768,1.899 13.115,2.274 13.233 L 2.467 13.293 8.000 13.293 L 13.533 13.293 13.726 13.233 C 14.101 13.115,14.448 12.768,14.566 12.392 L 14.627 12.200 14.627 8.000 L 14.627 3.800 14.567 3.610 C 14.459 3.268,14.206 2.989,13.852 2.821 L 13.667 2.733 8.040 2.728 C 3.547 2.724,2.392 2.730,2.307 2.757 M13.353 8.007 L 13.347 12.040 8.000 12.040 L 2.653 12.040 2.647 8.007 L 2.640 3.973 8.000 3.973 L 13.360 3.973 13.353 8.007 M4.413 6.106 C 4.281 6.170,4.245 6.200,4.146 6.331 C 4.072 6.428,4.067 6.452,4.067 6.665 C 4.067 6.875,4.073 6.902,4.145 7.002 C 4.327 7.254,4.546 7.322,5.117 7.301 C 5.497 7.287,5.632 7.245,5.780 7.093 C 5.907 6.962,5.957 6.809,5.940 6.600 C 5.921 6.365,5.814 6.215,5.587 6.106 C 5.494 6.061,5.419 6.055,5.000 6.055 C 4.581 6.055,4.506 6.061,4.413 6.106 " stroke="none" fill-rule="evenodd" fill="black"></path></svg>