<svg width="16" height="16" viewBox="0 0 16 16" fill="none" xmlns="http://www.w3.org/2000/svg">
<path fill-rule="evenodd" clip-rule="evenodd" d="M8.00119 1.10001C8.36017 1.10001 8.65119 1.39102 8.65119 1.75001V2.76371C8.65119 3.1227 8.36017 3.41371 8.00119 3.41371C7.6422 3.41371 7.35119 3.1227 7.35119 2.76371V1.75001C7.35119 1.39102 7.6422 1.10001 8.00119 1.10001ZM8.00119 6.45483C7.14716 6.45483 6.45483 7.14716 6.45483 8.00119C6.45483 8.85522 7.14716 9.54755 8.00119 9.54755C8.85522 9.54755 9.54755 8.85522 9.54755 8.00119C9.54755 7.14716 8.85522 6.45483 8.00119 6.45483ZM5.15483 8.00119C5.15483 6.42919 6.42919 5.15483 8.00119 5.15483C9.57319 5.15483 10.8476 6.42919 10.8476 8.00119C10.8476 9.57319 9.57319 10.8476 8.00119 10.8476C6.42919 10.8476 5.15483 9.57319 5.15483 8.00119ZM12.0088 4.91282C12.2626 4.65897 12.2626 4.24741 12.0088 3.99358C11.7549 3.73974 11.3434 3.73975 11.0895 3.9936L10.2893 4.79386C10.0355 5.04771 10.0355 5.45927 10.2893 5.7131C10.5432 5.96694 10.9548 5.96692 11.2086 5.71308L12.0088 4.91282ZM12.5887 8.00127C12.5887 7.64229 12.8797 7.35127 13.2387 7.35127H14.2524C14.6114 7.35127 14.9024 7.64229 14.9024 8.00127C14.9024 8.36026 14.6114 8.65127 14.2524 8.65127H13.2387C12.8797 8.65127 12.5887 8.36026 12.5887 8.00127ZM11.2086 10.2894C10.9547 10.0355 10.5432 10.0355 10.2893 10.2894C10.0355 10.5432 10.0355 10.9548 10.2893 11.2086L11.0896 12.0088C11.3434 12.2627 11.755 12.2627 12.0088 12.0088C12.2626 11.755 12.2626 11.3434 12.0088 11.0896L11.2086 10.2894ZM8.00119 12.5887C8.36017 12.5887 8.65119 12.8797 8.65119 13.2387V14.2524C8.65119 14.6114 8.36017 14.9024 8.00119 14.9024C7.6422 14.9024 7.35119 14.6114 7.35119 14.2524V13.2387C7.35119 12.8797 7.6422 12.5887 8.00119 12.5887ZM5.71303 11.2086C5.96688 10.9547 5.96688 10.5432 5.71305 10.2893C5.45921 10.0355 5.04765 10.0355 4.79381 10.2893L3.99356 11.0896C3.73972 11.3434 3.73971 11.7549 3.99355 12.0088C4.24738 12.2626 4.65894 12.2626 4.91279 12.0088L5.71303 11.2086ZM1.1 8.00127C1.1 7.64229 1.39102 7.35127 1.75 7.35127H2.76371C3.12269 7.35127 3.41371 7.64229 3.41371 8.00127C3.41371 8.36026 3.12269 8.65127 2.76371 8.65127H1.75C1.39102 8.65127 1.1 8.36026 1.1 8.00127ZM4.9128 3.9936C4.65897 3.73975 4.24741 3.73974 3.99357 3.99358C3.73972 4.24741 3.73971 4.65897 3.99354 4.91282L4.79379 5.7131C5.04762 5.96695 5.45918 5.96696 5.71303 5.71313C5.96688 5.45929 5.96689 5.04774 5.71305 4.79389L4.9128 3.9936Z" fill="#2D2D2D"/>
</svg>
