<svg width="16" height="16" viewBox="0 0 16 16" fill="none" xmlns="http://www.w3.org/2000/svg">
<path d="M14.4391 11.5053C14.0876 12.2862 13.9182 12.6352 13.466 13.3243C12.8329 14.2873 11.94 15.4897 10.8369 15.4973C9.85486 15.5062 9.60138 14.8566 8.26775 14.8681C6.93539 14.8745 6.65771 15.5101 5.67436 15.4999C4.57 15.4897 3.7255 14.407 3.09243 13.4453C1.3219 10.7487 1.13465 7.58724 2.22882 5.90587C3.00327 4.71362 4.22736 4.01305 5.37757 4.01305C6.54944 4.01305 7.28567 4.6563 8.25374 4.6563C9.19378 4.6563 9.7657 4.01178 11.121 4.01178C12.1451 4.01178 13.2278 4.56969 14.0022 5.53265C11.47 6.92106 11.8814 10.5373 14.4391 11.5053ZM10.0918 2.93544C10.5847 2.30238 10.9592 1.40947 10.8229 0.5C10.0192 0.554772 9.07914 1.0681 8.53014 1.73301C8.0321 2.33932 7.6194 3.2386 7.7799 4.10858C8.65752 4.1366 9.56572 3.61309 10.0918 2.93544Z" fill="black"/>
</svg>
