<svg width="16" height="16" viewBox="0 0 16 16" fill="none" xmlns="http://www.w3.org/2000/svg">
<g clip-path="url(#clip0_99_64)">
<path fill-rule="evenodd" clip-rule="evenodd" d="M3.46327 0.95C2.07524 0.95 0.950015 2.07522 0.950015 3.46326V12.9829C0.950015 14.3709 2.07524 15.4961 3.46327 15.4961H12.9829C14.3709 15.4961 15.4961 14.3709 15.4961 12.9829V3.46326C15.4961 2.07522 14.3709 0.95 12.9829 0.95H3.46327ZM2.35002 3.46326C2.35002 2.84842 2.84844 2.35 3.46327 2.35H12.9829C13.5977 2.35 14.0961 2.84842 14.0961 3.46326V12.9829C14.0961 13.5977 13.5977 14.0961 12.9829 14.0961H3.46327C2.84844 14.0961 2.35002 13.5977 2.35002 12.9829V3.46326ZM5.74479 6.56948C5.45743 6.31085 5.01483 6.33415 4.75621 6.62151C4.49759 6.90886 4.52088 7.35147 4.80824 7.61009L6.49669 9.1297L4.80824 10.6493C4.52088 10.9079 4.49759 11.3505 4.75621 11.6379C5.01483 11.9252 5.45743 11.9485 5.74479 11.6899L8.01136 9.65C8.15886 9.51725 8.24309 9.32814 8.24309 9.1297C8.24309 8.93126 8.15886 8.74214 8.01136 8.60939L5.74479 6.56948Z" fill="#2D2D2D"/>
</g>
<defs>
<clipPath id="clip0_99_64">
<rect width="16" height="16" fill="white"/>
</clipPath>
</defs>
</svg>
