<svg width="16" height="16" viewBox="0 0 16 16" fill="none" xmlns="http://www.w3.org/2000/svg">
<path fill-rule="evenodd" clip-rule="evenodd" d="M0.899994 2.53999C0.899994 2.12578 1.23578 1.78999 1.64999 1.78999H14.3375C14.7517 1.78999 15.0875 2.12578 15.0875 2.53999C15.0875 2.95421 14.7517 3.28999 14.3375 3.28999H1.64999C1.23578 3.28999 0.899994 2.95421 0.899994 2.53999ZM0.899994 13.4775C0.899994 13.0633 1.23578 12.7275 1.64999 12.7275H14.3375C14.7517 12.7275 15.0875 13.0633 15.0875 13.4775C15.0875 13.8917 14.7517 14.2275 14.3375 14.2275H1.64999C1.23578 14.2275 0.899994 13.8917 0.899994 13.4775ZM1.64999 7.25874C1.23578 7.25874 0.899994 7.59453 0.899994 8.00874C0.899994 8.42296 1.23578 8.75874 1.64999 8.75874H14.3375C14.7517 8.75874 15.0875 8.42296 15.0875 8.00874C15.0875 7.59453 14.7517 7.25874 14.3375 7.25874H1.64999Z" fill="#0E1438"/>
</svg>
