<svg width="16" height="16" viewBox="0 0 16 16" fill="none" xmlns="http://www.w3.org/2000/svg">
<path fill-rule="evenodd" clip-rule="evenodd" d="M1.83 1.65C1.83 1.2634 2.1434 0.949997 2.53 0.949997H11.7175C13.0706 0.949997 14.1675 2.0469 14.1675 3.4V12.5875C14.1675 13.9406 13.0706 15.0375 11.7175 15.0375H2.53C2.1434 15.0375 1.83 14.7241 1.83 14.3375V1.65ZM3.23 2.35V13.6375H11.7175C12.2974 13.6375 12.7675 13.1674 12.7675 12.5875V3.4C12.7675 2.8201 12.2974 2.35 11.7175 2.35H3.23ZM7.49875 4.975C6.79804 4.975 6.23 5.54304 6.23 6.24375C6.23 6.94446 6.79804 7.5125 7.49875 7.5125C8.19946 7.5125 8.7675 6.94446 8.7675 6.24375C8.7675 5.54304 8.19946 4.975 7.49875 4.975ZM4.83 6.24375C4.83 4.76984 6.02484 3.575 7.49875 3.575C8.97266 3.575 10.1675 4.76984 10.1675 6.24375C10.1675 7.71766 8.97266 8.9125 7.49875 8.9125C6.02484 8.9125 4.83 7.71766 4.83 6.24375ZM5.53 10.1375C5.1434 10.1375 4.83 10.4509 4.83 10.8375C4.83 11.2241 5.1434 11.5375 5.53 11.5375H9.4675C9.8541 11.5375 10.1675 11.2241 10.1675 10.8375C10.1675 10.4509 9.8541 10.1375 9.4675 10.1375H5.53Z" fill="#0E1438"/>
</svg>
