<svg width="16" height="16" viewBox="0 0 16 16" fill="none" xmlns="http://www.w3.org/2000/svg"><path d="M7.569 1.229 C 5.699 1.337,3.892 2.271,2.715 3.738 C 1.488 5.267,0.973 7.242,1.305 9.147 C 1.658 11.170,2.895 12.919,4.688 13.931 C 6.008 14.676,7.646 14.957,9.147 14.695 C 11.546 14.276,13.536 12.620,14.373 10.345 C 15.124 8.305,14.854 6.032,13.645 4.227 C 13.295 3.703,12.759 3.114,12.287 2.734 C 11.220 1.874,9.818 1.312,8.560 1.240 C 8.025 1.209,7.923 1.208,7.569 1.229 M8.826 2.523 C 9.402 2.607,9.990 2.796,10.525 3.070 C 10.786 3.204,11.349 3.563,11.407 3.633 C 11.432 3.662,11.291 3.815,10.699 4.407 L 9.960 5.145 9.740 5.016 C 8.685 4.399,7.315 4.399,6.260 5.016 L 6.040 5.145 5.301 4.407 C 4.751 3.858,4.569 3.661,4.590 3.636 C 4.605 3.618,4.721 3.532,4.849 3.445 C 6.030 2.638,7.412 2.318,8.826 2.523 M5.121 6.078 C 5.108 6.101,5.049 6.204,4.989 6.307 C 4.766 6.687,4.610 7.193,4.559 7.700 C 4.492 8.375,4.661 9.134,5.012 9.733 L 5.145 9.960 4.407 10.699 C 3.815 11.291,3.662 11.432,3.633 11.407 C 3.563 11.349,3.204 10.786,3.070 10.525 C 2.654 9.713,2.473 8.947,2.473 8.000 C 2.473 7.422,2.513 7.094,2.642 6.592 C 2.812 5.932,3.190 5.153,3.581 4.658 L 3.662 4.555 4.402 5.296 C 4.976 5.869,5.138 6.046,5.121 6.078 M12.600 4.918 C 13.066 5.620,13.353 6.358,13.481 7.188 C 13.543 7.587,13.543 8.413,13.481 8.812 C 13.387 9.419,13.203 9.991,12.930 10.525 C 12.796 10.786,12.437 11.349,12.367 11.407 C 12.338 11.432,12.185 11.291,11.593 10.699 L 10.855 9.960 10.988 9.733 C 11.339 9.134,11.508 8.375,11.441 7.700 C 11.388 7.175,11.235 6.688,10.988 6.267 L 10.855 6.040 11.593 5.301 C 12.185 4.709,12.338 4.568,12.367 4.593 C 12.388 4.610,12.492 4.756,12.600 4.918 M8.577 5.868 C 9.308 6.054,9.939 6.688,10.138 7.436 C 10.215 7.725,10.214 8.276,10.137 8.567 C 10.028 8.978,9.758 9.398,9.413 9.692 C 8.608 10.381,7.392 10.381,6.587 9.692 C 6.242 9.397,5.972 8.977,5.863 8.567 C 5.787 8.277,5.786 7.725,5.862 7.437 C 6.087 6.586,6.841 5.920,7.702 5.813 C 7.942 5.783,8.345 5.808,8.577 5.868 M6.307 11.011 C 6.687 11.234,7.193 11.390,7.700 11.441 C 8.375 11.508,9.134 11.339,9.733 10.988 L 9.960 10.855 10.699 11.593 C 11.258 12.151,11.431 12.339,11.410 12.364 C 11.359 12.426,10.844 12.764,10.613 12.888 C 9.842 13.303,8.873 13.547,8.000 13.547 C 6.822 13.547,5.556 13.119,4.658 12.418 L 4.555 12.338 5.296 11.598 C 5.869 11.024,6.046 10.862,6.078 10.879 C 6.101 10.892,6.204 10.951,6.307 11.011 " stroke="none" fill-rule="evenodd" fill="black"></path></svg>