<svg width="16" height="16" viewBox="0 0 16 16" fill="none" xmlns="http://www.w3.org/2000/svg"><path d="M7.869 0.564 C 7.624 0.609,7.437 0.803,7.387 1.064 C 7.372 1.143,7.360 1.365,7.360 1.558 L 7.360 1.909 7.100 1.943 C 6.745 1.991,6.207 2.130,5.853 2.266 C 5.692 2.328,5.543 2.380,5.522 2.382 C 5.500 2.385,5.406 2.251,5.294 2.060 C 5.188 1.880,5.067 1.695,5.025 1.649 C 4.747 1.354,4.201 1.432,4.034 1.792 C 3.903 2.074,3.926 2.193,4.202 2.674 C 4.311 2.864,4.399 3.026,4.399 3.036 C 4.398 3.045,4.335 3.098,4.259 3.153 C 3.943 3.381,3.381 3.943,3.153 4.259 C 3.098 4.335,3.043 4.398,3.031 4.399 C 3.018 4.399,2.894 4.333,2.755 4.251 C 2.325 3.998,2.265 3.973,2.076 3.974 C 1.943 3.974,1.879 3.990,1.774 4.047 C 1.430 4.236,1.360 4.741,1.639 5.013 C 1.690 5.062,1.879 5.188,2.059 5.293 C 2.256 5.408,2.385 5.500,2.381 5.522 C 2.378 5.543,2.321 5.707,2.254 5.887 C 2.103 6.293,2.006 6.667,1.948 7.067 L 1.903 7.373 1.425 7.387 C 0.960 7.400,0.944 7.402,0.835 7.473 C 0.692 7.565,0.597 7.706,0.558 7.880 C 0.498 8.146,0.645 8.440,0.899 8.563 C 1.010 8.617,1.075 8.625,1.467 8.635 L 1.910 8.647 1.942 8.901 C 1.986 9.247,2.106 9.715,2.254 10.111 C 2.321 10.292,2.382 10.458,2.388 10.480 C 2.397 10.508,2.310 10.570,2.088 10.693 C 1.593 10.968,1.468 11.112,1.467 11.415 C 1.465 11.860,1.893 12.155,2.307 11.993 C 2.351 11.976,2.529 11.881,2.702 11.781 C 2.876 11.681,3.026 11.601,3.036 11.601 C 3.045 11.602,3.098 11.665,3.153 11.741 C 3.381 12.057,3.943 12.619,4.259 12.847 C 4.335 12.902,4.398 12.955,4.399 12.965 C 4.399 12.976,4.314 13.132,4.209 13.312 C 3.928 13.794,3.902 13.927,4.034 14.208 C 4.202 14.568,4.747 14.646,5.025 14.351 C 5.067 14.305,5.188 14.120,5.294 13.940 C 5.408 13.744,5.500 13.615,5.522 13.619 C 5.543 13.622,5.708 13.679,5.889 13.746 C 6.278 13.891,6.741 14.010,7.097 14.057 L 7.354 14.091 7.364 14.532 C 7.374 14.926,7.381 14.987,7.436 15.100 C 7.562 15.358,7.853 15.502,8.125 15.441 C 8.309 15.400,8.472 15.275,8.557 15.110 C 8.618 14.991,8.624 14.946,8.635 14.536 L 8.647 14.091 8.903 14.056 C 9.344 13.998,9.866 13.856,10.293 13.680 C 10.399 13.636,10.495 13.606,10.505 13.613 C 10.516 13.619,10.610 13.773,10.715 13.955 C 10.992 14.436,11.144 14.552,11.467 14.528 C 11.758 14.507,11.991 14.290,12.038 13.994 C 12.063 13.838,12.015 13.703,11.798 13.326 C 11.689 13.136,11.601 12.974,11.601 12.964 C 11.602 12.955,11.665 12.902,11.741 12.847 C 12.057 12.619,12.619 12.057,12.847 11.741 C 12.902 11.665,12.955 11.602,12.964 11.601 C 12.974 11.601,13.124 11.681,13.298 11.781 C 13.695 12.009,13.767 12.038,13.933 12.038 C 14.242 12.037,14.505 11.785,14.528 11.467 C 14.552 11.141,14.437 10.992,13.951 10.716 C 13.765 10.611,13.609 10.521,13.604 10.517 C 13.599 10.513,13.643 10.386,13.701 10.235 C 13.888 9.754,13.997 9.345,14.056 8.903 L 14.091 8.646 14.532 8.636 C 14.926 8.626,14.987 8.619,15.100 8.564 C 15.354 8.440,15.503 8.145,15.443 7.884 C 15.401 7.703,15.325 7.589,15.178 7.486 L 15.053 7.400 14.575 7.387 L 14.096 7.373 14.051 7.067 C 13.978 6.578,13.857 6.137,13.680 5.707 C 13.636 5.601,13.606 5.505,13.613 5.494 C 13.620 5.483,13.775 5.388,13.957 5.283 C 14.438 5.006,14.552 4.856,14.528 4.533 C 14.504 4.201,14.260 3.975,13.924 3.974 C 13.735 3.973,13.675 3.998,13.245 4.251 C 13.106 4.333,12.982 4.399,12.969 4.399 C 12.957 4.398,12.902 4.335,12.847 4.259 C 12.619 3.943,12.057 3.381,11.741 3.153 C 11.665 3.098,11.602 3.045,11.601 3.036 C 11.601 3.026,11.689 2.864,11.798 2.674 C 12.015 2.297,12.063 2.162,12.038 2.006 C 11.957 1.501,11.332 1.284,10.986 1.641 C 10.936 1.693,10.809 1.882,10.705 2.061 C 10.594 2.250,10.499 2.385,10.477 2.382 C 10.457 2.380,10.311 2.329,10.152 2.268 C 9.799 2.133,9.247 1.989,8.903 1.944 L 8.647 1.909 8.635 1.467 C 8.625 1.076,8.617 1.010,8.563 0.900 C 8.437 0.639,8.168 0.509,7.869 0.564 M8.389 3.148 C 9.199 3.213,9.914 3.450,10.600 3.881 C 11.503 4.448,12.209 5.323,12.584 6.340 C 12.670 6.572,12.786 7.031,12.814 7.247 L 12.832 7.387 11.438 7.380 L 10.044 7.373 9.972 7.197 C 9.727 6.599,9.162 6.105,8.537 5.944 C 8.348 5.895,8.025 5.880,7.604 5.902 L 7.515 5.907 6.823 4.709 C 6.442 4.051,6.141 3.503,6.152 3.491 C 6.194 3.451,6.747 3.281,7.010 3.227 C 7.254 3.178,7.649 3.133,7.936 3.124 C 7.996 3.122,8.200 3.132,8.389 3.148 M5.756 5.364 C 6.125 6.003,6.427 6.534,6.427 6.542 C 6.427 6.550,6.364 6.645,6.286 6.752 C 6.009 7.139,5.887 7.520,5.887 8.000 C 5.887 8.481,6.009 8.861,6.288 9.250 C 6.366 9.358,6.424 9.461,6.417 9.479 C 6.405 9.512,5.144 11.700,5.076 11.808 L 5.038 11.869 4.957 11.811 C 4.797 11.697,4.396 11.296,4.213 11.067 C 3.293 9.912,2.936 8.442,3.229 7.004 C 3.437 5.981,4.023 4.988,4.825 4.302 C 4.983 4.167,5.030 4.139,5.055 4.166 C 5.072 4.185,5.387 4.724,5.756 5.364 M8.364 7.213 C 8.542 7.293,8.708 7.461,8.793 7.646 C 8.888 7.854,8.888 8.146,8.793 8.354 C 8.545 8.895,7.857 9.038,7.406 8.642 C 7.352 8.594,7.269 8.477,7.222 8.382 C 7.018 7.967,7.174 7.460,7.571 7.244 C 7.822 7.107,8.105 7.096,8.364 7.213 M12.812 8.767 C 12.783 8.980,12.666 9.439,12.582 9.666 C 12.334 10.342,11.883 11.031,11.364 11.526 C 10.059 12.772,8.171 13.194,6.457 12.623 C 6.301 12.571,6.164 12.520,6.152 12.509 C 6.141 12.497,6.442 11.949,6.823 11.291 L 7.515 10.093 7.604 10.099 C 7.653 10.103,7.837 10.107,8.013 10.109 C 8.374 10.114,8.622 10.062,8.915 9.922 C 9.361 9.710,9.813 9.229,9.975 8.797 L 10.033 8.640 11.432 8.640 L 12.830 8.640 12.812 8.767 " stroke="none" fill-rule="evenodd" fill="black"></path></svg>