<svg width="16" height="16" viewBox="0 0 16 16" fill="none" xmlns="http://www.w3.org/2000/svg">
<path fill-rule="evenodd" clip-rule="evenodd" d="M2.44408 3.65653C2.47717 3.68977 2.52972 3.73553 2.61206 3.79281C2.86115 3.96609 3.26153 4.15479 3.80445 4.32814C4.88214 4.67225 6.38524 4.91305 8.00435 4.91305C9.62347 4.91305 11.1266 4.67225 12.2043 4.32814C12.7472 4.15479 13.1476 3.96609 13.3966 3.79281C13.479 3.73553 13.5315 3.68977 13.5646 3.65653C13.5315 3.62328 13.479 3.57752 13.3966 3.52025C13.1476 3.34697 12.7472 3.15827 12.2043 2.98491C11.1266 2.64081 9.62347 2.40001 8.00435 2.40001C6.38524 2.40001 4.88214 2.64081 3.80445 2.98491C3.26153 3.15827 2.86115 3.34697 2.61206 3.52025C2.52972 3.57752 2.47717 3.62328 2.44408 3.65653ZM3.37861 1.65125C4.61266 1.25722 6.26173 1.00001 8.00435 1.00001C9.74697 1.00001 11.3961 1.25722 12.6301 1.65125C13.2431 1.84696 13.7884 2.08736 14.1961 2.37098C14.5656 2.62802 15.0087 3.05303 15.0087 3.65653V8.00435V12.3522C15.0087 12.9557 14.5656 13.3807 14.1961 13.6377C13.7884 13.9213 13.2431 14.1617 12.6301 14.3575C11.3961 14.7515 9.74697 15.0087 8.00435 15.0087C6.26173 15.0087 4.61266 14.7515 3.37861 14.3575C2.76566 14.1617 2.22027 13.9213 1.81258 13.6377C1.44308 13.3807 1.00001 12.9557 1.00001 12.3522V8.00435V3.65653C1.00001 3.05303 1.44308 2.62802 1.81258 2.37098C2.22027 2.08736 2.76566 1.84696 3.37861 1.65125ZM2.40001 5.27938V7.95374C2.4188 7.97991 2.4729 8.04383 2.61206 8.14063C2.86115 8.31391 3.26153 8.50261 3.80445 8.67597C4.88214 9.02007 6.38524 9.26088 8.00435 9.26088C9.62347 9.26088 11.1266 9.02007 12.2043 8.67597C12.7472 8.50261 13.1476 8.31392 13.3966 8.14063C13.5358 8.04383 13.5899 7.97991 13.6087 7.95374V5.27938C13.3139 5.4215 12.9832 5.54906 12.6301 5.66181C11.3961 6.05584 9.74697 6.31305 8.00435 6.31305C6.26173 6.31305 4.61266 6.05584 3.37861 5.66181C3.02552 5.54906 2.69485 5.4215 2.40001 5.27938ZM13.6087 9.62721C13.3139 9.76932 12.9832 9.89689 12.6301 10.0096C11.3961 10.4037 9.74697 10.6609 8.00435 10.6609C6.26173 10.6609 4.61266 10.4037 3.37861 10.0096C3.02552 9.89689 2.69485 9.76932 2.40001 9.62721V12.3016C2.4188 12.3277 2.4729 12.3917 2.61206 12.4885C2.86115 12.6617 3.26153 12.8504 3.80445 13.0238C4.88214 13.3679 6.38524 13.6087 8.00435 13.6087C9.62347 13.6087 11.1266 13.3679 12.2043 13.0238C12.7472 12.8504 13.1476 12.6617 13.3966 12.4885C13.5358 12.3917 13.5899 12.3277 13.6087 12.3016V9.62721Z" fill="#2D2D2D"/>
</svg>
