<svg width="16" height="16" viewBox="0 0 16 16" fill="none" xmlns="http://www.w3.org/2000/svg">
<path fill-rule="evenodd" clip-rule="evenodd" d="M8.45 2.75C8.45 2.3634 8.1366 2.05 7.75 2.05C7.3634 2.05 7.05 2.3634 7.05 2.75V7.05H2.75C2.3634 7.05 2.05 7.3634 2.05 7.75C2.05 8.1366 2.3634 8.45 2.75 8.45H7.05V12.75C7.05 13.1366 7.3634 13.45 7.75 13.45C8.1366 13.45 8.45 13.1366 8.45 12.75V8.45H12.75C13.1366 8.45 13.45 8.1366 13.45 7.75C13.45 7.3634 13.1366 7.05 12.75 7.05H8.45V2.75Z" fill="#0E1438"/>
</svg>
