<svg width="16" height="16" viewBox="0 0 16 16" fill="none" xmlns="http://www.w3.org/2000/svg">
<path fill-rule="evenodd" clip-rule="evenodd" d="M7.99921 1.5C8.38581 1.5 8.69921 1.8134 8.69921 2.2V8.01636L10.0859 6.52301C10.349 6.23971 10.7919 6.2233 11.0752 6.48637C11.3585 6.74943 11.3749 7.19234 11.1118 7.47564L8.51792 10.2691C8.38985 10.4103 8.20489 10.499 7.99921 10.499C7.79436 10.499 7.61006 10.411 7.48205 10.2708L4.88658 7.47564C4.62352 7.19234 4.63992 6.74943 4.92322 6.48637C5.20652 6.2233 5.64943 6.23971 5.91249 6.52301L7.29921 8.0164V2.2C7.29921 1.8134 7.61261 1.5 7.99921 1.5ZM2.2 9.49889C2.5866 9.49889 2.9 9.81229 2.9 10.1989V11.3987C2.9 12.3375 3.66097 13.0984 4.59969 13.0984H11.3988C12.3375 13.0984 13.0985 12.3375 13.0985 11.3987V10.1989C13.0985 9.81229 13.4119 9.49889 13.7985 9.49889C14.1851 9.49889 14.4985 9.81229 14.4985 10.1989V11.3987C14.4985 13.1107 13.1107 14.4984 11.3988 14.4984H4.59969C2.88779 14.4984 1.5 13.1107 1.5 11.3987V10.1989C1.5 9.81229 1.8134 9.49889 2.2 9.49889Z" fill="black"/>
</svg>
