<svg width="16" height="16" viewBox="0 0 16 16" fill="none" xmlns="http://www.w3.org/2000/svg"><path d="M2.964 1.895 C 2.604 1.942,2.208 2.224,2.028 2.561 C 1.859 2.878,1.868 2.600,1.868 8.000 C 1.868 13.346,1.861 13.113,2.015 13.416 C 2.112 13.609,2.368 13.869,2.561 13.972 C 2.878 14.141,2.600 14.132,8.000 14.132 C 13.400 14.132,13.122 14.141,13.439 13.972 C 13.632 13.869,13.888 13.609,13.985 13.416 C 14.139 13.113,14.132 13.346,14.132 8.000 C 14.132 2.600,14.141 2.878,13.972 2.561 C 13.860 2.351,13.595 2.100,13.380 1.999 C 13.279 1.952,13.130 1.909,13.012 1.894 C 12.768 1.862,3.209 1.864,2.964 1.895 M12.867 8.000 L 12.867 12.867 8.000 12.867 L 3.133 12.867 3.126 8.027 C 3.123 5.365,3.125 3.172,3.132 3.153 C 3.142 3.127,4.131 3.121,8.006 3.127 L 12.867 3.133 12.867 8.000 M6.573 5.436 C 6.504 5.469,6.149 5.808,5.571 6.390 C 4.760 7.209,4.669 7.309,4.602 7.463 C 4.448 7.814,4.448 8.186,4.602 8.537 C 4.669 8.691,4.760 8.791,5.571 9.610 C 6.217 10.261,6.499 10.527,6.581 10.565 C 6.939 10.727,7.354 10.515,7.441 10.125 C 7.468 10.004,7.466 9.959,7.428 9.825 C 7.383 9.670,7.363 9.647,6.552 8.833 L 5.722 8.000 6.552 7.167 C 7.364 6.352,7.383 6.330,7.428 6.175 C 7.506 5.904,7.414 5.650,7.178 5.487 C 7.071 5.413,7.026 5.400,6.867 5.393 C 6.725 5.387,6.654 5.397,6.573 5.436 M8.960 5.406 C 8.864 5.443,8.694 5.580,8.643 5.662 C 8.544 5.823,8.520 5.994,8.572 6.175 C 8.617 6.330,8.636 6.352,9.448 7.167 L 10.278 8.000 9.448 8.833 C 8.637 9.647,8.617 9.670,8.572 9.825 C 8.534 9.959,8.532 10.004,8.559 10.125 C 8.646 10.515,9.061 10.727,9.419 10.565 C 9.501 10.527,9.783 10.261,10.429 9.610 C 11.240 8.791,11.331 8.691,11.398 8.537 C 11.552 8.186,11.552 7.814,11.398 7.463 C 11.331 7.309,11.240 7.209,10.429 6.390 C 9.835 5.792,9.497 5.471,9.427 5.438 C 9.323 5.389,9.052 5.371,8.960 5.406 " stroke="none" fill-rule="evenodd" fill="black"></path></svg>