<svg width="16" height="16" viewBox="0 0 16 16" fill="none" xmlns="http://www.w3.org/2000/svg">
<path fill-rule="evenodd" clip-rule="evenodd" d="M0.900024 2.54001C0.900024 2.12579 1.23581 1.79001 1.65002 1.79001H14.3375C14.7517 1.79001 15.0875 2.12579 15.0875 2.54001C15.0875 2.95422 14.7517 3.29001 14.3375 3.29001H1.65002C1.23581 3.29001 0.900024 2.95422 0.900024 2.54001ZM0.900024 13.4775C0.900024 13.0633 1.23581 12.7275 1.65002 12.7275H14.3375C14.7517 12.7275 15.0875 13.0633 15.0875 13.4775C15.0875 13.8917 14.7517 14.2275 14.3375 14.2275H1.65002C1.23581 14.2275 0.900024 13.8917 0.900024 13.4775ZM1.65002 7.25876C1.23581 7.25876 0.900024 7.59454 0.900024 8.00876C0.900024 8.42297 1.23581 8.75876 1.65002 8.75876H14.3375C14.7517 8.75876 15.0875 8.42297 15.0875 8.00876C15.0875 7.59454 14.7517 7.25876 14.3375 7.25876H1.65002Z" fill="black"/>
</svg>
