<svg width="16" height="16" viewBox="0 0 16 16" fill="none" xmlns="http://www.w3.org/2000/svg">
<path fill-rule="evenodd" clip-rule="evenodd" d="M5.76072 4.45389C5.76072 3.22014 6.76087 2.22 7.99462 2.22C9.22836 2.22 10.2285 3.22014 10.2285 4.45389C10.2285 5.68763 9.22836 6.68778 7.99462 6.68778C6.76087 6.68778 5.76072 5.68763 5.76072 4.45389ZM7.99462 0.919995C6.0429 0.919995 4.46072 2.50217 4.46072 4.45389C4.46072 6.4056 6.0429 7.98778 7.99462 7.98778C9.94633 7.98778 11.5285 6.4056 11.5285 4.45389C11.5285 2.50217 9.94633 0.919995 7.99462 0.919995ZM2.67667 12.9729C2.97804 12.4022 3.47158 11.7753 4.28877 11.2875C5.10648 10.7994 6.28618 10.428 7.99459 10.428C9.70301 10.428 10.8827 10.7994 11.7004 11.2875C12.5176 11.7753 13.0111 12.4022 13.3125 12.9729C13.4216 13.1795 13.3871 13.3444 13.2759 13.4841C13.1475 13.6453 12.8935 13.7866 12.5667 13.7866H3.42252C3.0957 13.7866 2.84169 13.6453 2.71325 13.4841C2.60206 13.3444 2.56757 13.1795 2.67667 12.9729ZM7.99459 9.128C6.09327 9.128 4.67465 9.54322 3.62246 10.1713C2.56977 10.7997 1.92182 11.6184 1.52713 12.3658C1.16303 13.0552 1.28221 13.7739 1.6963 14.2939C2.09315 14.7922 2.73605 15.0866 3.42252 15.0866H12.5667C13.2531 15.0866 13.896 14.7922 14.2929 14.2939C14.707 13.7739 14.8262 13.0552 14.4621 12.3658C14.0674 11.6184 13.4194 10.7997 12.3667 10.1713C11.3145 9.54322 9.89592 9.128 7.99459 9.128Z" fill="black"/>
</svg>
