<svg width="16" height="16" viewBox="0 0 16 16" fill="none" xmlns="http://www.w3.org/2000/svg"><path d="M10.267 2.098 C 10.211 2.124,9.149 3.165,7.621 4.691 C 5.077 7.232,5.069 7.241,4.968 7.453 C 4.867 7.665,4.867 7.669,4.867 8.000 C 4.867 8.323,4.870 8.340,4.958 8.533 C 5.048 8.731,5.084 8.768,7.598 11.287 C 9.383 13.076,10.180 13.858,10.259 13.896 C 10.559 14.042,10.952 13.896,11.096 13.587 C 11.161 13.447,11.161 13.219,11.095 13.080 C 11.061 13.007,10.271 12.200,8.576 10.507 C 7.218 9.150,6.107 8.022,6.107 8.000 C 6.107 7.978,7.218 6.850,8.576 5.493 C 10.271 3.800,11.061 2.993,11.095 2.920 C 11.161 2.781,11.161 2.553,11.096 2.413 C 11.035 2.282,10.899 2.149,10.768 2.095 C 10.639 2.041,10.385 2.043,10.267 2.098 " stroke="none" fill-rule="evenodd" fill="black"></path></svg>