<svg width="16" height="16" viewBox="0 0 16 16" fill="none" xmlns="http://www.w3.org/2000/svg">
<g clip-path="url(#clip0_38_44)">
<path d="M14.5038 6.00308C14.8737 5.81669 15.0225 5.36573 14.8361 4.99582C14.6497 4.6259 14.1988 4.47713 13.8289 4.66351L14.5038 6.00308ZM2.17049 4.66351C1.80058 4.47713 1.34961 4.6259 1.16323 4.99581C0.976841 5.36573 1.12562 5.81669 1.49553 6.00308L2.17049 4.66351ZM8.29964 8.28929L8.63712 8.95907L8.29964 8.28929ZM7.69968 8.28929L7.36221 8.95907L7.69968 8.28929ZM13.4163 3.83329V12.1666H14.9163V3.83329H13.4163ZM13.4997 12.0833H2.49967V13.5833H13.4997V12.0833ZM2.58301 12.1666V3.83329H1.08301V12.1666H2.58301ZM2.49967 3.91663H13.4997V2.41663H2.49967V3.91663ZM13.8289 4.66351L7.96217 7.61951L8.63712 8.95907L14.5038 6.00308L13.8289 4.66351ZM8.03716 7.61951L2.17049 4.66351L1.49553 6.00308L7.36221 8.95907L8.03716 7.61951ZM2.58301 3.83329C2.58301 3.87932 2.5457 3.91663 2.49967 3.91663V2.41663C1.71727 2.41663 1.08301 3.05089 1.08301 3.83329H2.58301ZM2.49967 12.0833C2.5457 12.0833 2.58301 12.1206 2.58301 12.1666H1.08301C1.08301 12.949 1.71727 13.5833 2.49967 13.5833V12.0833ZM13.4163 12.1666C13.4163 12.1206 13.4536 12.0833 13.4997 12.0833V13.5833C14.2821 13.5833 14.9163 12.949 14.9163 12.1666H13.4163ZM7.96217 7.61951C7.98575 7.60762 8.01358 7.60762 8.03716 7.61951L7.36221 8.95907C7.76317 9.1611 8.23616 9.1611 8.63712 8.95907L7.96217 7.61951ZM14.9163 3.83329C14.9163 3.05089 14.2821 2.41663 13.4997 2.41663V3.91663C13.4537 3.91663 13.4163 3.87932 13.4163 3.83329H14.9163Z" fill="black"/>
</g>
<defs>
<clipPath id="clip0_38_44">
<rect width="16" height="16" fill="white"/>
</clipPath>
</defs>
</svg>
