<svg width="16" height="16" viewBox="0 0 16 16" fill="none" xmlns="http://www.w3.org/2000/svg"><path d="M4.359 4.131 C 4.285 4.174,4.192 4.255,4.152 4.312 C 4.018 4.505,4.011 4.811,4.137 4.995 C 4.169 5.042,4.850 5.737,5.650 6.540 L 7.106 8.000 5.624 9.487 C 4.639 10.475,4.126 11.008,4.095 11.076 C 4.037 11.203,4.034 11.448,4.088 11.577 C 4.139 11.699,4.301 11.861,4.423 11.912 C 4.552 11.966,4.797 11.963,4.924 11.905 C 4.992 11.874,5.529 11.357,6.513 10.376 L 8.000 8.895 9.487 10.376 C 10.471 11.357,11.008 11.874,11.076 11.905 C 11.203 11.963,11.448 11.966,11.577 11.912 C 11.699 11.861,11.861 11.699,11.912 11.577 C 11.966 11.448,11.963 11.203,11.905 11.076 C 11.874 11.008,11.357 10.471,10.376 9.486 L 8.894 8.000 10.350 6.540 C 11.150 5.737,11.831 5.042,11.863 4.995 C 11.895 4.949,11.931 4.856,11.944 4.789 C 12.017 4.398,11.734 4.054,11.339 4.054 C 11.221 4.053,11.138 4.070,11.059 4.109 C 10.985 4.147,10.448 4.664,9.473 5.636 L 8.000 7.106 6.527 5.636 C 5.552 4.664,5.015 4.147,4.941 4.109 C 4.769 4.023,4.531 4.032,4.359 4.131 " stroke="none" fill-rule="evenodd" fill="black"></path></svg>