<svg width="16" height="16" viewBox="0 0 16 16" fill="none" xmlns="http://www.w3.org/2000/svg"><path d="M4.724 1.896 C 4.402 1.925,4.128 2.001,3.817 2.148 C 3.059 2.507,2.528 3.142,2.301 3.960 C 2.235 4.202,2.228 4.268,2.228 4.667 C 2.228 5.064,2.235 5.132,2.300 5.368 C 2.542 6.240,3.121 6.905,3.929 7.239 C 4.637 7.531,5.377 7.530,6.080 7.234 C 6.873 6.901,7.464 6.222,7.699 5.373 C 7.765 5.132,7.772 5.065,7.772 4.667 C 7.772 4.268,7.765 4.202,7.699 3.960 C 7.473 3.143,6.939 2.506,6.183 2.148 C 5.879 2.004,5.607 1.927,5.337 1.906 C 5.225 1.898,5.097 1.887,5.053 1.882 C 5.009 1.878,4.861 1.884,4.724 1.896 M10.724 1.896 C 10.402 1.925,10.128 2.001,9.817 2.148 C 9.059 2.507,8.528 3.142,8.301 3.960 C 8.235 4.202,8.228 4.268,8.228 4.667 C 8.228 5.064,8.235 5.132,8.300 5.368 C 8.542 6.240,9.121 6.905,9.929 7.239 C 10.637 7.531,11.377 7.530,12.080 7.234 C 12.873 6.901,13.464 6.222,13.699 5.373 C 13.765 5.132,13.772 5.065,13.772 4.667 C 13.772 4.268,13.765 4.202,13.699 3.960 C 13.473 3.143,12.939 2.506,12.183 2.148 C 11.879 2.004,11.607 1.927,11.337 1.906 C 11.225 1.898,11.097 1.887,11.053 1.882 C 11.009 1.878,10.861 1.884,10.724 1.896 M5.480 3.202 C 5.570 3.230,5.720 3.302,5.813 3.362 C 6.659 3.909,6.784 5.054,6.075 5.763 C 5.479 6.359,4.519 6.357,3.921 5.759 C 3.443 5.281,3.329 4.589,3.627 3.981 C 3.846 3.536,4.271 3.222,4.757 3.145 C 4.948 3.115,5.285 3.142,5.480 3.202 M11.480 3.202 C 11.570 3.230,11.720 3.302,11.813 3.362 C 12.659 3.909,12.784 5.054,12.075 5.763 C 11.479 6.359,10.519 6.357,9.921 5.759 C 9.443 5.281,9.329 4.589,9.627 3.981 C 9.846 3.536,10.271 3.222,10.757 3.145 C 10.948 3.115,11.285 3.142,11.480 3.202 M4.760 7.886 C 3.201 7.942,1.723 8.907,0.887 10.413 C 0.539 11.041,0.272 11.836,0.143 12.630 C 0.090 12.953,0.114 13.159,0.231 13.407 C 0.394 13.751,0.782 14.041,1.165 14.105 C 1.296 14.127,2.382 14.133,5.067 14.128 L 8.787 14.120 8.967 14.050 C 9.295 13.922,9.543 13.682,9.699 13.343 C 9.800 13.122,9.811 12.851,9.735 12.467 C 9.449 11.025,8.914 9.982,8.032 9.144 C 7.124 8.283,5.977 7.842,4.760 7.886 M10.853 7.885 C 10.121 7.922,9.295 8.169,9.122 8.403 C 9.048 8.504,8.987 8.676,8.987 8.785 C 8.987 9.110,9.291 9.413,9.618 9.413 C 9.667 9.413,9.812 9.377,9.940 9.332 C 10.293 9.210,10.437 9.178,10.781 9.146 C 11.718 9.059,12.668 9.424,13.363 10.139 C 13.934 10.725,14.378 11.615,14.571 12.560 L 14.633 12.867 12.803 12.880 C 11.125 12.892,10.966 12.897,10.888 12.940 C 10.429 13.191,10.432 13.813,10.893 14.062 C 10.999 14.120,11.013 14.120,12.827 14.128 C 14.107 14.133,14.708 14.126,14.835 14.105 C 15.218 14.041,15.606 13.751,15.769 13.407 C 15.886 13.159,15.910 12.953,15.857 12.630 C 15.528 10.610,14.445 9.021,12.906 8.297 C 12.278 8.002,11.525 7.851,10.853 7.885 M5.535 9.188 C 6.401 9.343,7.235 9.932,7.769 10.766 C 8.124 11.321,8.397 12.053,8.519 12.780 L 8.536 12.880 4.951 12.880 L 1.366 12.880 1.404 12.673 C 1.668 11.243,2.418 10.083,3.440 9.526 C 4.101 9.166,4.789 9.055,5.535 9.188 " stroke="none" fill-rule="evenodd" fill="black"></path></svg>