<svg width="16" height="16" viewBox="0 0 16 16" fill="none" xmlns="http://www.w3.org/2000/svg">
<path fill-rule="evenodd" clip-rule="evenodd" d="M2.96526 0.350006C1.5209 0.350006 0.350006 1.5209 0.350006 2.96526V13.0204C0.350006 14.4647 1.5209 15.6356 2.96526 15.6356H11.1051C11.4917 15.6356 11.8051 15.3222 11.8051 14.9356C11.8051 14.549 11.4917 14.2356 11.1051 14.2356H2.96526C2.2941 14.2356 1.75001 13.6915 1.75001 13.0204V2.96526C1.75001 2.2941 2.2941 1.75001 2.96526 1.75001H11.1051C11.4917 1.75001 11.8051 1.43661 11.8051 1.05001C11.8051 0.663407 11.4917 0.350006 11.1051 0.350006H2.96526ZM11.071 4.40418C11.334 4.12089 11.7769 4.10448 12.0602 4.36754L15.4119 7.47984C15.5546 7.61229 15.6356 7.79814 15.6356 7.99279C15.6356 8.18744 15.5546 8.3733 15.4119 8.50575L12.0602 11.618C11.7769 11.8811 11.334 11.8647 11.071 11.5814C10.8079 11.2981 10.8243 10.8552 11.1076 10.5921L13.153 8.69281H6.79575C6.40915 8.69281 6.09575 8.37941 6.09575 7.99281C6.09575 7.60621 6.40915 7.29281 6.79575 7.29281H13.1531L11.1076 5.39346C10.8243 5.13039 10.8079 4.68748 11.071 4.40418Z" fill="#0E1438"/>
</svg>
