<svg width="16" height="16" viewBox="0 0 16 16" fill="none" xmlns="http://www.w3.org/2000/svg">
<path fill-rule="evenodd" clip-rule="evenodd" d="M3.9882 1.85C3.33198 1.85 2.8 2.38197 2.8 3.0382V12.9512C2.8 13.6075 3.33198 14.1394 3.9882 14.1394H12.013C12.6693 14.1394 13.2012 13.6075 13.2012 12.9512V7.04254H10.5969C9.16747 7.04254 8.0087 5.88377 8.0087 4.45434V1.85H3.9882ZM9.4087 2.83995L12.2113 5.64254H10.5969C9.94067 5.64254 9.4087 5.11057 9.4087 4.45434V2.83995ZM1.4 3.0382C1.4 1.60877 2.55878 0.449997 3.9882 0.449997H8.7087C8.89435 0.449997 9.0724 0.523747 9.20367 0.655022L14.3962 5.84757C14.5275 5.97884 14.6012 6.15689 14.6012 6.34254V12.9512C14.6012 14.3807 13.4425 15.5394 12.013 15.5394H3.9882C2.55878 15.5394 1.4 14.3807 1.4 12.9512V3.0382ZM4.2323 11.5351C4.2323 11.1485 4.5457 10.8351 4.9323 10.8351H11.0689C11.4555 10.8351 11.7689 11.1485 11.7689 11.5351C11.7689 11.9217 11.4555 12.2351 11.0689 12.2351H4.9323C4.5457 12.2351 4.2323 11.9217 4.2323 11.5351ZM4.9323 8.00279C4.5457 8.00279 4.2323 8.31619 4.2323 8.70279C4.2323 9.08939 4.5457 9.40279 4.9323 9.40279H7.29255C7.67915 9.40279 7.99255 9.08939 7.99255 8.70279C7.99255 8.31619 7.67915 8.00279 7.29255 8.00279H4.9323Z" fill="#2D2D2D"/>
</svg>
