<svg width="16" height="16" viewBox="0 0 16 16" fill="none" xmlns="http://www.w3.org/2000/svg"><path d="M6.099 3.708 C 5.728 3.799,5.526 4.213,5.682 4.560 C 5.723 4.652,6.124 5.069,7.394 6.340 L 9.053 8.000 7.394 9.660 C 6.124 10.931,5.723 11.348,5.682 11.440 C 5.577 11.672,5.629 11.945,5.812 12.128 C 5.988 12.304,6.214 12.359,6.444 12.283 C 6.562 12.244,6.744 12.070,8.404 10.407 C 10.154 8.653,10.236 8.566,10.294 8.413 C 10.410 8.100,10.387 7.728,10.234 7.467 C 10.156 7.334,6.647 3.820,6.533 3.761 C 6.414 3.699,6.229 3.676,6.099 3.708 " stroke="none" fill-rule="evenodd" fill="black"></path></svg>