<svg width="16" height="16" viewBox="0 0 16 16" fill="none" xmlns="http://www.w3.org/2000/svg"><path d="M7.680 1.229 C 7.178 1.271,6.607 1.476,6.156 1.776 C 5.744 2.050,5.317 2.528,5.092 2.968 L 4.974 3.198 3.320 3.206 C 1.496 3.214,1.596 3.205,1.404 3.383 C 1.091 3.673,1.169 4.193,1.553 4.385 C 1.684 4.450,1.711 4.453,2.139 4.453 L 2.587 4.453 2.587 4.520 C 2.587 4.631,3.197 14.111,3.212 14.233 C 3.238 14.446,3.369 14.628,3.573 14.737 C 3.663 14.785,3.823 14.787,8.000 14.787 C 12.177 14.787,12.337 14.785,12.427 14.737 C 12.631 14.628,12.762 14.445,12.788 14.233 C 12.804 14.105,13.413 4.645,13.413 4.529 L 13.413 4.453 13.861 4.453 C 14.289 4.453,14.316 4.450,14.447 4.385 C 14.831 4.193,14.909 3.673,14.596 3.383 C 14.404 3.205,14.504 3.214,12.679 3.206 L 11.024 3.198 10.936 3.019 C 10.499 2.130,9.582 1.441,8.605 1.269 C 8.311 1.218,7.986 1.203,7.680 1.229 M8.537 2.536 C 8.878 2.631,9.251 2.853,9.492 3.104 L 9.584 3.200 8.000 3.200 L 6.416 3.200 6.508 3.104 C 6.818 2.780,7.287 2.541,7.733 2.478 C 7.943 2.449,8.319 2.476,8.537 2.536 M12.160 4.487 C 12.160 4.570,11.598 13.282,11.585 13.407 L 11.569 13.547 8.000 13.547 L 4.431 13.547 4.415 13.407 C 4.402 13.282,3.840 4.570,3.840 4.487 C 3.840 4.460,4.690 4.453,8.000 4.453 C 11.310 4.453,12.160 4.460,12.160 4.487 M6.373 6.559 C 6.185 6.596,6.031 6.716,5.930 6.907 C 5.882 6.995,5.880 7.100,5.880 9.000 C 5.880 10.900,5.882 11.005,5.930 11.093 C 6.183 11.570,6.823 11.579,7.053 11.109 L 7.121 10.971 7.114 8.970 L 7.107 6.969 7.027 6.841 C 6.896 6.631,6.617 6.511,6.373 6.559 M9.381 6.559 C 9.207 6.592,9.037 6.719,8.955 6.877 L 8.880 7.019 8.880 8.998 L 8.880 10.976 8.949 11.114 C 9.181 11.580,9.817 11.569,10.070 11.093 C 10.118 11.005,10.120 10.900,10.120 9.000 C 10.120 7.002,10.120 7.000,10.062 6.893 C 9.924 6.636,9.659 6.506,9.381 6.559 " stroke="none" fill-rule="evenodd"></path></svg>