<svg width="16" height="16" viewBox="0 0 16 16" fill="none" xmlns="http://www.w3.org/2000/svg"><path d="M7.704 1.230 C 6.818 1.299,5.975 1.726,5.395 2.400 C 4.907 2.967,4.637 3.596,4.561 4.343 C 4.546 4.495,4.533 4.900,4.533 5.243 L 4.533 5.867 4.193 5.867 C 4.006 5.868,3.763 5.880,3.653 5.894 C 3.138 5.960,2.697 6.364,2.574 6.882 C 2.515 7.137,2.514 13.527,2.574 13.781 C 2.630 14.020,2.731 14.201,2.911 14.390 C 3.098 14.584,3.317 14.708,3.566 14.761 C 3.836 14.818,12.164 14.818,12.434 14.761 C 12.683 14.708,12.902 14.584,13.089 14.390 C 13.274 14.196,13.376 14.008,13.428 13.763 C 13.485 13.498,13.484 7.165,13.427 6.899 C 13.374 6.649,13.250 6.431,13.052 6.241 C 12.844 6.041,12.616 5.929,12.345 5.894 C 12.227 5.879,10.851 5.868,8.964 5.867 L 5.780 5.867 5.793 5.087 C 5.805 4.410,5.814 4.280,5.861 4.103 C 6.065 3.347,6.684 2.729,7.436 2.529 C 7.702 2.458,8.248 2.452,8.515 2.516 C 8.873 2.603,9.271 2.826,9.541 3.092 C 9.855 3.402,10.024 3.707,10.157 4.200 C 10.232 4.480,10.242 4.499,10.369 4.616 C 10.495 4.732,10.651 4.800,10.794 4.800 C 10.916 4.800,11.117 4.715,11.212 4.622 C 11.423 4.417,11.454 4.230,11.347 3.809 C 11.186 3.175,10.905 2.686,10.441 2.227 C 9.694 1.488,8.756 1.147,7.704 1.230 M12.200 10.333 L 12.200 13.533 8.000 13.533 L 3.800 13.533 3.793 10.360 C 3.789 8.615,3.792 7.172,3.799 7.153 C 3.809 7.127,4.665 7.121,8.006 7.127 L 12.200 7.133 12.200 10.333 M7.747 8.772 C 7.541 8.871,7.430 9.016,7.389 9.238 C 7.350 9.449,7.350 11.218,7.389 11.428 C 7.444 11.724,7.650 11.917,7.935 11.940 C 8.227 11.964,8.449 11.835,8.571 11.573 C 8.625 11.458,8.627 11.414,8.627 10.333 C 8.627 9.251,8.625 9.209,8.571 9.093 C 8.421 8.773,8.048 8.628,7.747 8.772 " stroke="none" fill-rule="evenodd" fill="black"></path></svg>