<svg width="16" height="16" viewBox="0 0 16 16" fill="none" xmlns="http://www.w3.org/2000/svg"><path d="M7.733 0.409 C 7.546 0.453,7.433 0.504,7.267 0.617 C 7.069 0.751,2.323 4.643,2.210 4.764 C 2.093 4.889,1.996 5.058,1.930 5.253 C 1.882 5.394,1.880 5.559,1.880 9.013 C 1.880 12.883,1.876 12.766,2.015 13.050 C 2.158 13.342,2.458 13.600,2.767 13.698 C 2.913 13.744,3.164 13.747,8.000 13.747 C 12.836 13.747,13.087 13.744,13.233 13.698 C 13.540 13.601,13.844 13.340,13.981 13.055 C 14.125 12.757,14.120 12.906,14.120 9.013 C 14.120 5.559,14.118 5.394,14.070 5.253 C 14.004 5.058,13.907 4.889,13.790 4.764 C 13.667 4.632,8.918 0.741,8.714 0.605 C 8.424 0.411,8.044 0.335,7.733 0.409 M10.448 3.616 L 12.880 5.606 12.880 8.996 C 12.879 10.861,12.872 12.414,12.863 12.447 L 12.847 12.507 8.000 12.507 L 3.153 12.507 3.137 12.447 C 3.128 12.414,3.121 10.861,3.120 8.996 L 3.120 5.606 5.552 3.616 C 6.889 2.522,7.991 1.627,8.000 1.627 C 8.009 1.627,9.111 2.522,10.448 3.616 " stroke="none" fill-rule="evenodd" fill="black"></path></svg>