<svg width="16" height="16" viewBox="0 0 16 16" fill="none" xmlns="http://www.w3.org/2000/svg">
<path fill-rule="evenodd" clip-rule="evenodd" d="M4.33665 2.45002C3.29468 2.45002 2.45 3.2947 2.45 4.33666V11.6655C2.45 12.7074 3.29468 13.5521 4.33665 13.5521H9.94104C10.983 13.5521 11.8277 12.7074 11.8277 11.6655V11.2344C11.8277 10.8478 12.1411 10.5344 12.5277 10.5344C12.9143 10.5344 13.2277 10.8478 13.2277 11.2344V11.6655C13.2277 13.4806 11.7562 14.9521 9.94104 14.9521H4.33665C2.52148 14.9521 1.05 13.4806 1.05 11.6655V4.33666C1.05 2.5215 2.52148 1.05002 4.33665 1.05002H6.49218C6.87878 1.05002 7.19218 1.36342 7.19218 1.75002C7.19218 2.13662 6.87878 2.45002 6.49218 2.45002H4.33665ZM11.1898 1.69553C12.0505 0.834847 13.4459 0.834847 14.3066 1.69553C15.1673 2.55622 15.1673 3.95166 14.3066 4.81235L11.4759 7.6431C11.1509 7.96808 10.7437 8.19863 10.2978 8.31009L7.95529 8.89573C7.71675 8.95536 7.46441 8.88547 7.29054 8.7116C7.11668 8.53773 7.04678 8.28539 7.10642 8.04685L7.69205 5.70432C7.80352 5.25845 8.03406 4.85126 8.35904 4.52629L11.1898 1.69553ZM13.3167 2.68548C13.0027 2.37153 12.4937 2.37153 12.1797 2.68548L9.34899 5.51624C9.20344 5.66179 9.10018 5.84417 9.05025 6.04387L8.74758 7.25457L9.95827 6.95189C10.158 6.90197 10.3404 6.79871 10.4859 6.65315L13.3167 3.8224C13.6306 3.50845 13.6306 2.99943 13.3167 2.68548ZM4.33664 10.1033C3.95004 10.1033 3.63664 10.4167 3.63664 10.8033C3.63664 11.1899 3.95004 11.5033 4.33664 11.5033H9.94103C10.3276 11.5033 10.641 11.1899 10.641 10.8033C10.641 10.4167 10.3276 10.1033 9.94103 10.1033H4.33664ZM3.63664 8.21662C3.63664 7.83002 3.95004 7.51662 4.33664 7.51662H5.62996C6.01656 7.51662 6.32996 7.83002 6.32996 8.21662C6.32996 8.60322 6.01656 8.91662 5.62996 8.91662H4.33664C3.95004 8.91662 3.63664 8.60322 3.63664 8.21662ZM4.33664 4.92999C3.95004 4.92999 3.63664 5.24339 3.63664 5.62999C3.63664 6.01659 3.95004 6.32999 4.33664 6.32999H5.62996C6.01656 6.32999 6.32996 6.01659 6.32996 5.62999C6.32996 5.24339 6.01656 4.92999 5.62996 4.92999H4.33664Z" fill="black"/>
</svg>
