<svg width="16" height="16" viewBox="0 0 16 16" fill="none" xmlns="http://www.w3.org/2000/svg">
<g clip-path="url(#clip0_1557_164)">
<path d="M8.00016 14.1667C11.4059 14.1667 14.1668 11.4057 14.1668 8.00001C14.1668 4.59426 11.4059 1.83334 8.00016 1.83334M8.00016 14.1667C4.59441 14.1667 1.8335 11.4057 1.8335 8.00001C1.8335 4.59426 4.59441 1.83334 8.00016 1.83334M8.00016 14.1667C6.43536 14.1667 5.16683 11.4057 5.16683 8.00001C5.16683 4.59426 6.43536 1.83334 8.00016 1.83334M8.00016 14.1667C9.56496 14.1667 10.8335 11.4057 10.8335 8.00001C10.8335 4.59426 9.56496 1.83334 8.00016 1.83334M14.0002 8.00001H2.00016" stroke="black" stroke-width="1.5" stroke-linecap="square"/>
</g>
<defs>
<clipPath id="clip0_1557_164">
<rect width="16" height="16" fill="white"/>
</clipPath>
</defs>
</svg>
