<svg width="16" height="16" viewBox="0 0 16 16" fill="none" xmlns="http://www.w3.org/2000/svg">
<path fill-rule="evenodd" clip-rule="evenodd" d="M8.58427 4.42023C8.34371 3.94 7.65836 3.93987 7.41763 4.42002L4.12173 10.9936C3.9042 11.4275 4.21965 11.9386 4.705 11.9386H11.2938C11.779 11.9386 12.0945 11.4277 11.8771 10.9939L8.58427 4.42023ZM6.34491 3.88218C7.02839 2.51898 8.9742 2.51933 9.65719 3.88279L12.9501 10.4564C13.5671 11.6882 12.6715 13.1386 11.2938 13.1386H4.705C3.32701 13.1386 2.4314 11.6876 3.04901 10.4558L6.34491 3.88218ZM7.99893 6.04572C8.38553 6.04572 8.69893 6.35912 8.69893 6.74572V7.9982C8.69893 8.3848 8.38553 8.6982 7.99893 8.6982C7.61233 8.6982 7.29893 8.3848 7.29893 7.9982V6.74572C7.29893 6.35912 7.61233 6.04572 7.99893 6.04572ZM8 11.2C8.3866 11.2 8.7 10.8866 8.7 10.5C8.7 10.1134 8.3866 9.79999 8 9.79999C7.6134 9.79999 7.3 10.1134 7.3 10.5C7.3 10.8866 7.6134 11.2 8 11.2Z" fill="black"/>
</svg>
