<svg width="16" height="16" viewBox="0 0 16 16" fill="none" xmlns="http://www.w3.org/2000/svg">
<path fill-rule="evenodd" clip-rule="evenodd" d="M3.40721 0.950012C2.53737 0.950012 1.83221 1.65516 1.83221 2.52501V9.96251C1.83221 9.99893 1.835 10.0347 1.84036 10.0696L1.19437 13.138C0.988279 14.117 1.73519 15.0375 2.73559 15.0375H13.2663C14.2667 15.0375 15.0136 14.117 14.8075 13.138L14.1616 10.0697C14.1669 10.0348 14.1697 9.99896 14.1697 9.96251V2.52501C14.1697 1.65516 13.4646 0.950012 12.5947 0.950012H3.40721ZM12.8557 10.6625H3.14623L2.56434 13.4265C2.54144 13.5352 2.62443 13.6375 2.73559 13.6375H13.2663C13.3775 13.6375 13.4605 13.5352 13.4376 13.4265L12.8557 10.6625ZM3.23221 2.52501C3.23221 2.42836 3.31056 2.35001 3.40721 2.35001H12.5947C12.6914 2.35001 12.7697 2.42836 12.7697 2.52501V9.26251H3.23221V2.52501Z" fill="black"/>
</svg>
