<svg width="16" height="16" viewBox="0 0 16 16" fill="none" xmlns="http://www.w3.org/2000/svg">
<path fill-rule="evenodd" clip-rule="evenodd" d="M3.40721 0.949997C2.53737 0.949997 1.83221 1.65515 1.83221 2.525V9.9625C1.83221 9.99891 1.835 10.0347 1.84036 10.0696L1.19437 13.138C0.988279 14.117 1.73519 15.0375 2.73559 15.0375H13.2663C14.2667 15.0375 15.0136 14.117 14.8075 13.138L14.1616 10.0697C14.1669 10.0347 14.1697 9.99895 14.1697 9.9625V2.525C14.1697 1.65515 13.4646 0.949997 12.5947 0.949997H3.40721ZM12.8557 10.6625H3.14623L2.56434 13.4264C2.54144 13.5352 2.62443 13.6375 2.73559 13.6375H13.2663C13.3775 13.6375 13.4605 13.5352 13.4376 13.4264L12.8557 10.6625ZM3.23221 2.525C3.23221 2.42835 3.31056 2.35 3.40721 2.35H12.5947C12.6914 2.35 12.7697 2.42835 12.7697 2.525V9.2625H3.23221V2.525Z" fill="#0E1438"/>
</svg>
