<svg width="16" height="16" viewBox="0 0 16 16" fill="none" xmlns="http://www.w3.org/2000/svg">
<path fill-rule="evenodd" clip-rule="evenodd" d="M1.79313 3.48002C1.63124 3.48002 1.50001 3.61126 1.50001 3.77315V12.2147C1.50001 12.3766 1.63124 12.5079 1.79313 12.5079H8.00019H14.2072C14.3691 12.5079 14.5004 12.3766 14.5004 12.2147V3.77315C14.5004 3.61126 14.3691 3.48002 14.2072 3.48002H8.00019H1.79313ZM0.100006 3.77315C0.100006 2.83806 0.858046 2.08002 1.79313 2.08002H8.00019H14.2072C15.1423 2.08002 15.9004 2.83806 15.9004 3.77315V12.2147C15.9004 13.1498 15.1423 13.9079 14.2072 13.9079H8.00019H1.79313C0.858045 13.9079 0.100006 13.1498 0.100006 12.2147V3.77315ZM4.50751 5.71456C3.93426 5.71456 3.46954 6.17927 3.46954 6.75253C3.46954 7.32579 3.93426 7.7905 4.50751 7.7905C5.08077 7.7905 5.54549 7.32579 5.54549 6.75253C5.54549 6.17927 5.08077 5.71456 4.50751 5.71456ZM2.06954 6.75253C2.06954 5.40607 3.16106 4.31456 4.50751 4.31456C5.85397 4.31456 6.94549 5.40607 6.94549 6.75253C6.94549 8.09899 5.85397 9.1905 4.50751 9.1905C3.16106 9.1905 2.06954 8.09899 2.06954 6.75253ZM8.3486 6.75253C8.3486 6.36593 8.662 6.05253 9.0486 6.05253H12.221C12.6076 6.05253 12.921 6.36593 12.921 6.75253C12.921 7.13913 12.6076 7.45253 12.221 7.45253H9.0486C8.662 7.45253 8.3486 7.13913 8.3486 6.75253ZM9.47066 9.73191C9.47066 9.34531 9.78406 9.03191 10.1707 9.03191H12.221C12.6076 9.03191 12.921 9.34531 12.921 9.73191C12.921 10.1185 12.6076 10.4319 12.221 10.4319H10.1707C9.78406 10.4319 9.47066 10.1185 9.47066 9.73191Z" fill="black"/>
</svg>
