<svg width="16" height="16" viewBox="0 0 16 16" fill="none" xmlns="http://www.w3.org/2000/svg">
<path fill-rule="evenodd" clip-rule="evenodd" d="M2.4 7.9982C2.4 4.9064 4.9064 2.4 7.9982 2.4C11.09 2.4 13.5964 4.9064 13.5964 7.9982C13.5964 11.09 11.09 13.5964 7.9982 13.5964C4.9064 13.5964 2.4 11.09 2.4 7.9982ZM7.9982 1C4.1332 1 1 4.1332 1 7.9982C1 11.8632 4.1332 14.9964 7.9982 14.9964C11.8632 14.9964 14.9964 11.8632 14.9964 7.9982C14.9964 4.1332 11.8632 1 7.9982 1ZM7.2982 4.52334V7.99821V8.28816L7.50323 8.49318L9.24066 10.2306L10.2306 9.24067L8.6982 7.70826V4.52334H7.2982Z" fill="black"/>
</svg>
