<svg width="16" height="16" viewBox="0 0 16 16" fill="none" xmlns="http://www.w3.org/2000/svg">
<path fill-rule="evenodd" clip-rule="evenodd" d="M4.33666 2.45C3.2947 2.45 2.45002 3.29468 2.45002 4.33665V11.6655C2.45002 12.7074 3.2947 13.5521 4.33666 13.5521H9.94105C10.983 13.5521 11.8277 12.7074 11.8277 11.6655V11.2344C11.8277 10.8478 12.1411 10.5344 12.5277 10.5344C12.9143 10.5344 13.2277 10.8478 13.2277 11.2344V11.6655C13.2277 13.4806 11.7562 14.9521 9.94105 14.9521H4.33666C2.5215 14.9521 1.05002 13.4806 1.05002 11.6655V4.33665C1.05002 2.52148 2.5215 1.05 4.33666 1.05H6.4922C6.8788 1.05 7.1922 1.3634 7.1922 1.75C7.1922 2.1366 6.8788 2.45 6.4922 2.45H4.33666ZM11.1898 1.69552C12.0505 0.834832 13.4459 0.834832 14.3066 1.69552C15.1673 2.5562 15.1673 3.95165 14.3066 4.81233L11.4759 7.64309C11.1509 7.96806 10.7437 8.19861 10.2978 8.31008L7.95531 8.89571C7.71677 8.95535 7.46443 8.88545 7.29056 8.71159C7.11669 8.53772 7.0468 8.28538 7.10643 8.04684L7.69207 5.7043C7.80353 5.25844 8.03408 4.85125 8.35906 4.52627L11.1898 1.69552ZM13.3167 2.68547C13.0027 2.37152 12.4937 2.37152 12.1798 2.68547L9.34901 5.51622C9.20345 5.66178 9.10019 5.84415 9.05027 6.04385L8.74759 7.25455L9.95829 6.95188C10.158 6.90195 10.3404 6.79869 10.4859 6.65314L13.3167 3.82238C13.6306 3.50843 13.6306 2.99942 13.3167 2.68547ZM4.33665 10.1033C3.95006 10.1033 3.63665 10.4167 3.63665 10.8033C3.63665 11.1899 3.95006 11.5033 4.33665 11.5033H9.94105C10.3276 11.5033 10.641 11.1899 10.641 10.8033C10.641 10.4167 10.3276 10.1033 9.94105 10.1033H4.33665ZM3.63665 8.21661C3.63665 7.83001 3.95006 7.51661 4.33665 7.51661H5.62998C6.01658 7.51661 6.32998 7.83001 6.32998 8.21661C6.32998 8.60321 6.01658 8.91661 5.62998 8.91661H4.33665C3.95006 8.91661 3.63665 8.60321 3.63665 8.21661ZM4.33665 4.92997C3.95006 4.92997 3.63665 5.24337 3.63665 5.62997C3.63665 6.01657 3.95006 6.32997 4.33665 6.32997H5.62998C6.01658 6.32997 6.32998 6.01657 6.32998 5.62997C6.32998 5.24337 6.01658 4.92997 5.62998 4.92997H4.33665Z" fill="#0E1438"/>
</svg>
