<svg width="16" height="16" viewBox="0 0 16 16" fill="none" xmlns="http://www.w3.org/2000/svg">
<g clip-path="url(#clip0_1431_56)">
<path d="M8.83376 2.49999L9.50043 3.16666M9.50043 3.16666L12.8338 6.49999M9.50043 3.16666L2.50042 10.1667C1.57994 11.0871 1.57994 12.5795 2.50042 13.5C3.42089 14.4205 4.91328 14.4205 5.83375 13.5L12.8338 6.49999M12.8338 6.49999L13.5004 7.16666M4.49258 8.49999H10.49M13.3335 3.99999V3.99332M12.8338 1.66666C12.8338 1.9428 12.6099 2.16666 12.3338 2.16666C12.0576 2.16666 11.8338 1.9428 11.8338 1.66666C11.8338 1.39052 12.0576 1.16666 12.3338 1.16666C12.6099 1.16666 12.8338 1.39052 12.8338 1.66666ZM13.5002 3.99999C13.5002 4.09204 13.4256 4.16666 13.3335 4.16666C13.2414 4.16666 13.1668 4.09204 13.1668 3.99999C13.1668 3.90794 13.2414 3.83332 13.3335 3.83332C13.4256 3.83332 13.5002 3.90794 13.5002 3.99999Z" stroke="black" stroke-width="1.5" stroke-linecap="round" stroke-linejoin="round"/>
</g>
<defs>
<clipPath id="clip0_1431_56">
<rect width="16" height="16" fill="white"/>
</clipPath>
</defs>
</svg>
