<svg width="16" height="16" viewBox="0 0 16 16" fill="none" xmlns="http://www.w3.org/2000/svg">
<path d="M13.1333 3.80002V3.33335C13.1323 2.96238 12.9844 2.60691 12.7221 2.34459C12.4598 2.08227 12.1043 1.93443 11.7333 1.93335H2.4C2.02903 1.93443 1.67356 2.08227 1.41124 2.34459C1.14892 2.60691 1.00108 2.96238 1 3.33335V10.8C1.00108 11.171 1.14892 11.5265 1.41124 11.7888C1.67356 12.0511 2.02903 12.1989 2.4 12.2H2.86667M4.67471 4.26668H13.6586C14.3994 4.26668 15 4.86724 15 5.60806V12.7253C15 13.4661 14.3994 14.0667 13.6586 14.0667H4.67471C3.93389 14.0667 3.33333 13.4661 3.33333 12.7253V5.60806C3.33333 4.86724 3.93389 4.26668 4.67471 4.26668Z" stroke="black" stroke-width="1.4" stroke-linejoin="round"/>
<path d="M10.0903 11.8144C10.3257 12.0477 10.7056 12.046 10.9388 11.8107C11.1721 11.5754 11.1705 11.1955 10.9351 10.9622L10.0903 11.8144ZM7.97084 8.86859L8.39325 8.44247L8.39254 8.44177L7.97084 8.86859ZM6.74059 8.8333L6.34406 8.38301L6.34363 8.38338L6.74059 8.8333ZM2.93638 11.3896C2.6879 11.6088 2.66419 11.988 2.88343 12.2365C3.10266 12.4849 3.48182 12.5087 3.7303 12.2894L2.93638 11.3896ZM7.8465 13.6409C7.61134 13.8743 7.60995 14.2542 7.84341 14.4894C8.07687 14.7246 8.45677 14.7259 8.69194 14.4925L7.8465 13.6409ZM11.7281 10.6329L11.3068 10.2057L11.3054 10.2071L11.7281 10.6329ZM12.9373 10.5783L13.3198 10.116L13.3185 10.1149L12.9373 10.5783ZM14.6175 12.7472C14.8729 12.9584 15.2511 12.9227 15.4623 12.6674C15.6735 12.412 15.6378 12.0338 15.3825 11.8226L14.6175 12.7472ZM11.7076 6.9395C11.7076 7.09619 11.5785 7.23055 11.4102 7.23055V8.43055C12.2331 8.43055 12.9076 7.76703 12.9076 6.9395H11.7076ZM11.4102 7.23055C11.2418 7.23055 11.1127 7.09619 11.1127 6.9395H9.91272C9.91272 7.76704 10.5872 8.43055 11.4102 8.43055V7.23055ZM11.1127 6.9395C11.1127 6.78282 11.2418 6.64846 11.4102 6.64846V5.44846C10.5872 5.44846 9.91272 6.11197 9.91272 6.9395H11.1127ZM11.4102 6.64846C11.5785 6.64846 11.7076 6.78282 11.7076 6.9395H12.9076C12.9076 6.11197 12.2331 5.44846 11.4102 5.44846V6.64846ZM10.9351 10.9622L8.39325 8.44247L7.54844 9.29471L10.0903 11.8144L10.9351 10.9622ZM8.39254 8.44177C8.12197 8.17445 7.76007 8.01972 7.37988 8.00881L7.34547 9.20832C7.42194 9.21051 7.49473 9.24163 7.54915 9.2954L8.39254 8.44177ZM7.37988 8.00881C6.99968 7.99791 6.6295 8.13164 6.34406 8.38301L7.13713 9.28358C7.19454 9.23302 7.269 9.20613 7.34547 9.20832L7.37988 8.00881ZM6.34363 8.38338L2.93638 11.3896L3.7303 12.2894L7.13755 9.28321L6.34363 8.38338ZM8.69194 14.4925L12.1508 11.0587L11.3054 10.2071L7.8465 13.6409L8.69194 14.4925ZM12.1494 11.0601C12.2029 11.0073 12.2742 10.9762 12.3493 10.9728L12.2952 9.774C11.9237 9.79076 11.5716 9.94455 11.3068 10.2057L12.1494 11.0601ZM12.3493 10.9728C12.4244 10.9694 12.4981 10.994 12.5562 11.0417L13.3185 10.1149C13.0313 9.87871 12.6667 9.75725 12.2952 9.774L12.3493 10.9728ZM12.5549 11.0406L14.6175 12.7472L15.3825 11.8226L13.3198 10.116L12.5549 11.0406Z" fill="black"/>
</svg>
