<svg width="16" height="16" viewBox="0 0 16 16" fill="none" xmlns="http://www.w3.org/2000/svg"><path d="M2.964 1.895 C 2.604 1.943,2.208 2.224,2.028 2.561 C 1.859 2.878,1.868 2.600,1.868 8.000 C 1.868 12.125,1.874 12.949,1.905 13.097 C 2.013 13.604,2.444 14.020,2.951 14.105 C 3.080 14.126,3.795 14.133,5.400 14.128 L 7.667 14.120 7.776 14.062 C 7.928 13.980,8.044 13.839,8.092 13.676 C 8.143 13.505,8.143 13.482,8.094 13.316 C 8.051 13.172,7.922 13.018,7.779 12.940 C 7.700 12.897,7.520 12.892,5.413 12.880 L 3.133 12.867 3.133 8.000 L 3.133 3.133 5.413 3.120 C 7.520 3.108,7.700 3.103,7.779 3.060 C 8.249 2.803,8.230 2.146,7.747 1.928 C 7.647 1.883,7.496 1.880,5.387 1.876 C 4.147 1.874,3.057 1.883,2.964 1.895 M10.346 4.397 C 10.158 4.459,10.021 4.574,9.931 4.747 C 9.862 4.880,9.866 5.129,9.939 5.267 C 9.971 5.326,10.431 5.807,10.985 6.360 C 11.529 6.902,11.973 7.355,11.973 7.367 C 11.973 7.378,10.596 7.387,8.913 7.387 C 5.949 7.388,5.850 7.389,5.747 7.439 C 5.614 7.503,5.578 7.533,5.479 7.665 C 5.406 7.762,5.400 7.786,5.400 7.998 C 5.400 8.208,5.406 8.235,5.478 8.335 C 5.590 8.491,5.725 8.577,5.906 8.611 C 6.013 8.631,7.000 8.640,9.025 8.640 L 11.986 8.640 10.982 9.647 C 10.430 10.200,9.957 10.695,9.930 10.747 C 9.866 10.872,9.866 11.129,9.931 11.253 C 10.109 11.596,10.498 11.721,10.809 11.536 C 10.870 11.500,11.624 10.765,12.484 9.902 C 13.994 8.388,14.050 8.328,14.091 8.188 C 14.143 8.009,14.143 7.991,14.091 7.812 C 14.050 7.672,13.994 7.612,12.484 6.098 C 11.624 5.235,10.870 4.500,10.808 4.463 C 10.687 4.391,10.462 4.359,10.346 4.397 " stroke="none" fill-rule="evenodd" fill="black"></path></svg>