<svg width="16" height="16" viewBox="0 0 16 16" fill="none" xmlns="http://www.w3.org/2000/svg">
<g clip-path="url(#clip0_739_26)">
<path d="M8.00027 6.75001V8.25001M8.00027 9.56248V9.55831M7.64073 4.34298L4.09682 10.3936C3.93413 10.6713 4.13445 11.0208 4.45636 11.0208H11.5442C11.8661 11.0208 12.0664 10.6713 11.9037 10.3936L8.35981 4.34298C8.19885 4.06821 7.80169 4.06821 7.64073 4.34298ZM8.10444 9.56248C8.10444 9.62002 8.05781 9.66665 8.00027 9.66665C7.94273 9.66665 7.8961 9.62002 7.8961 9.56248C7.8961 9.50494 7.94273 9.45831 8.00027 9.45831C8.05781 9.45831 8.10444 9.50494 8.10444 9.56248Z" stroke="black" stroke-linecap="round"/>
</g>
<defs>
<clipPath id="clip0_739_26">
<rect width="16" height="16" fill="white"/>
</clipPath>
</defs>
</svg>
