<svg width="16" height="16" viewBox="0 0 16 16" fill="none" xmlns="http://www.w3.org/2000/svg"><path d="M9.059 1.414 C 8.863 1.463,8.658 1.582,8.489 1.744 C 8.333 1.893,8.254 2.020,7.565 3.227 L 6.812 4.547 4.519 5.203 C 2.096 5.897,1.996 5.932,1.772 6.149 C 1.342 6.568,1.254 7.264,1.570 7.753 C 1.615 7.823,2.234 8.462,2.946 9.173 C 3.658 9.885,4.240 10.478,4.240 10.493 C 4.240 10.507,3.623 11.137,2.869 11.893 C 1.698 13.066,1.494 13.282,1.469 13.373 C 1.366 13.756,1.570 14.108,1.941 14.188 C 2.054 14.212,2.106 14.210,2.233 14.173 C 2.385 14.130,2.406 14.110,3.767 12.752 L 5.146 11.374 6.500 12.723 C 7.760 13.978,7.865 14.076,8.025 14.146 C 8.260 14.248,8.536 14.286,8.765 14.247 C 9.159 14.179,9.540 13.903,9.706 13.564 C 9.754 13.466,10.046 12.493,10.426 11.160 C 10.778 9.928,11.076 8.896,11.090 8.867 C 11.104 8.834,11.624 8.523,12.401 8.080 C 13.854 7.253,13.954 7.181,14.122 6.842 C 14.310 6.460,14.310 6.074,14.119 5.684 C 14.023 5.487,13.956 5.416,12.123 3.583 C 11.080 2.540,10.171 1.650,10.103 1.604 C 9.883 1.457,9.720 1.407,9.427 1.398 C 9.280 1.393,9.114 1.400,9.059 1.414 M11.213 4.455 C 12.857 6.100,13.022 6.272,12.979 6.305 C 12.953 6.324,12.347 6.674,11.633 7.082 C 10.204 7.898,10.129 7.951,9.978 8.273 C 9.934 8.365,9.608 9.460,9.253 10.707 C 8.898 11.953,8.597 12.985,8.583 12.999 C 8.556 13.028,2.640 7.130,2.640 7.075 C 2.640 7.037,2.460 7.091,5.107 6.335 C 6.391 5.968,7.279 5.701,7.382 5.651 C 7.699 5.495,7.754 5.418,8.584 3.966 C 9.000 3.237,9.354 2.640,9.370 2.640 C 9.387 2.640,10.216 3.457,11.213 4.455 " stroke="none" fill-rule="evenodd" fill="black"></path></svg>