<svg width="16" height="16" viewBox="0 0 16 16" fill="none" xmlns="http://www.w3.org/2000/svg">
<path d="M7.92216 5.49752L6.85323 10.495H5.56027L6.62932 5.49752H7.92216ZM13.3615 8.72445L14.042 6.8478L14.4336 8.72445H13.3615ZM14.8045 10.495H16L14.9556 5.49752H13.8528C13.6043 5.49752 13.3948 5.64162 13.302 5.86384L11.3621 10.495H12.7199L12.9894 9.74865H14.6479L14.8045 10.495ZM11.4294 8.86349C11.435 7.54457 9.60616 7.47151 9.61841 6.88219C9.62235 6.70314 9.7932 6.51239 10.1666 6.46361C10.3517 6.43978 10.8626 6.42045 11.4417 6.68729L11.6682 5.62712C11.3571 5.5146 10.9569 5.40625 10.4588 5.40625C9.18072 5.40625 8.28162 6.08515 8.27443 7.0581C8.26622 7.77758 8.91669 8.17874 9.40575 8.41838C9.90998 8.66331 10.0789 8.82033 10.0764 9.03918C10.073 9.37447 9.67439 9.52295 9.30324 9.52857C8.65288 9.53869 8.27589 9.35278 7.97544 9.21272L7.74075 10.3083C8.04333 10.4468 8.60084 10.5673 9.17813 10.5735C10.537 10.5735 11.4254 9.90253 11.4294 8.86349ZM6.07473 5.49752L3.97991 10.495H2.61345L1.5825 6.50666C1.52 6.2614 1.46549 6.17125 1.27542 6.06762C0.964517 5.89879 0.451292 5.74087 0 5.64263L0.0305735 5.49752H2.23049C2.51071 5.49752 2.76283 5.68399 2.82701 6.00681L3.37159 8.8989L4.71648 5.49752H6.07473Z" fill="#1434CB"/>
</svg>
