<svg width="16" height="16" viewBox="0 0 16 16" fill="none" xmlns="http://www.w3.org/2000/svg"><path d="M5.223 2.103 C 3.820 2.571,2.610 2.987,2.533 3.029 C 2.208 3.207,1.949 3.583,1.892 3.964 C 1.873 4.093,1.867 4.862,1.874 6.338 C 1.885 8.673,1.885 8.673,2.028 9.280 C 2.279 10.342,2.878 11.348,3.771 12.207 C 4.566 12.971,5.405 13.549,7.040 14.460 C 7.769 14.866,7.815 14.886,8.000 14.886 C 8.185 14.886,8.231 14.866,8.960 14.460 C 10.595 13.549,11.434 12.971,12.229 12.207 C 13.122 11.348,13.721 10.342,13.972 9.280 C 14.115 8.673,14.115 8.673,14.126 6.338 C 14.133 4.862,14.127 4.093,14.108 3.964 C 14.049 3.574,13.787 3.199,13.448 3.021 C 13.363 2.976,12.153 2.560,10.759 2.097 C 8.231 1.255,8.224 1.253,7.999 1.253 C 7.774 1.254,7.766 1.256,5.223 2.103 M10.467 3.315 L 12.867 4.120 12.867 6.240 C 12.867 8.496,12.865 8.542,12.733 9.067 C 12.646 9.410,12.557 9.641,12.385 9.968 C 11.908 10.872,11.196 11.588,9.940 12.423 C 9.429 12.763,8.076 13.547,7.999 13.547 C 7.965 13.547,7.389 13.231,6.867 12.926 C 4.574 11.586,3.484 10.343,3.192 8.736 C 3.135 8.421,3.134 8.361,3.134 6.267 L 3.133 4.120 5.533 3.315 C 6.853 2.873,7.963 2.511,8.000 2.511 C 8.037 2.511,9.147 2.873,10.467 3.315 M9.640 5.746 C 9.581 5.768,9.528 5.786,9.521 5.786 C 9.514 5.786,9.019 6.275,8.421 6.873 L 7.333 7.959 6.927 7.556 C 6.703 7.334,6.478 7.130,6.427 7.104 C 6.365 7.072,6.274 7.055,6.158 7.054 C 6.008 7.053,5.963 7.065,5.852 7.134 C 5.674 7.244,5.567 7.421,5.552 7.629 C 5.532 7.900,5.586 7.976,6.339 8.724 C 6.956 9.337,7.010 9.384,7.145 9.424 C 7.324 9.477,7.342 9.477,7.522 9.424 C 7.661 9.384,7.718 9.330,8.994 8.058 C 10.470 6.586,10.469 6.587,10.448 6.295 C 10.419 5.890,10.005 5.609,9.640 5.746 " stroke="none" fill-rule="evenodd" fill="black"></path></svg>