<svg width="16" height="16" viewBox="0 0 16 16" fill="none" xmlns="http://www.w3.org/2000/svg"><path d="M6.538 3.230 C 6.475 3.242,6.385 3.275,6.338 3.304 C 6.292 3.333,5.285 4.327,4.102 5.512 C 1.955 7.662,1.951 7.667,1.906 7.822 C 1.857 7.995,1.867 8.111,1.948 8.280 C 1.982 8.352,2.707 9.094,4.166 10.551 L 6.333 12.716 6.491 12.761 C 6.625 12.800,6.671 12.802,6.792 12.775 C 7.172 12.689,7.388 12.285,7.241 11.930 C 7.210 11.856,6.755 11.384,5.606 10.234 L 4.014 8.641 8.828 8.634 L 13.641 8.627 13.774 8.559 C 14.148 8.366,14.239 7.865,13.951 7.578 C 13.742 7.368,14.231 7.387,8.843 7.387 C 6.194 7.387,4.027 7.378,4.027 7.367 C 4.027 7.356,4.736 6.639,5.603 5.773 C 6.761 4.617,7.193 4.170,7.231 4.085 C 7.263 4.016,7.284 3.913,7.284 3.824 C 7.284 3.430,6.940 3.156,6.538 3.230 " stroke="none" fill-rule="evenodd" fill="black"></path></svg>