<svg width="16" height="16" viewBox="0 0 16 16" fill="none" xmlns="http://www.w3.org/2000/svg"><path d="M10.511 0.040 C 9.229 0.273,8.198 1.322,7.984 2.613 C 7.944 2.855,7.937 3.067,7.964 3.170 C 7.981 3.233,7.986 3.234,8.211 3.219 C 8.778 3.181,9.381 2.905,9.823 2.482 C 10.303 2.021,10.617 1.441,10.749 0.766 C 10.798 0.513,10.817 0.128,10.784 0.042 C 10.765 -0.006,10.769 -0.006,10.511 0.040 M10.107 3.424 C 9.798 3.479,9.515 3.563,9.094 3.725 C 8.500 3.954,8.348 4.002,8.160 4.018 C 7.937 4.037,7.772 3.994,7.170 3.759 C 6.410 3.463,6.035 3.391,5.520 3.441 C 4.330 3.557,3.302 4.297,2.762 5.427 C 2.565 5.839,2.417 6.343,2.343 6.853 C 2.296 7.183,2.304 8.024,2.359 8.440 C 2.494 9.466,2.781 10.417,3.217 11.287 C 3.699 12.248,4.563 13.367,5.097 13.722 C 5.471 13.971,5.860 14.049,6.294 13.962 C 6.418 13.937,6.712 13.840,6.947 13.747 C 7.632 13.474,7.720 13.454,8.267 13.454 C 8.811 13.453,8.930 13.479,9.507 13.724 C 9.697 13.805,9.949 13.894,10.067 13.922 C 10.307 13.980,10.669 13.989,10.885 13.944 C 11.064 13.906,11.360 13.769,11.533 13.643 C 11.870 13.399,12.342 12.848,12.794 12.171 C 13.122 11.680,13.394 11.137,13.601 10.558 L 13.703 10.276 13.551 10.202 C 12.593 9.735,11.934 8.774,11.841 7.708 C 11.749 6.646,12.234 5.579,13.102 4.937 L 13.332 4.766 13.280 4.693 C 13.167 4.535,12.841 4.209,12.659 4.072 C 12.277 3.785,11.808 3.565,11.368 3.465 C 11.061 3.395,10.390 3.374,10.107 3.424 " stroke="none" fill-rule="evenodd"></path></svg>