<svg width="16" height="16" viewBox="0 0 16 16" fill="none" xmlns="http://www.w3.org/2000/svg">
<path fill-rule="evenodd" clip-rule="evenodd" d="M1.40001 3.75001C1.40001 3.55671 1.55671 3.40001 1.75001 3.40001H8.00001H14.25C14.4433 3.40001 14.6 3.55671 14.6 3.75001V12.25C14.6 12.4433 14.4433 12.6 14.25 12.6H8.5602C8.32683 11.8533 7.97778 11.066 7.53813 10.4332C7.32123 10.121 7.05256 9.80474 6.73441 9.55864C7.43276 9.139 7.90001 8.37407 7.90001 7.50001C7.90001 6.17452 6.82549 5.10001 5.50001 5.10001C4.17452 5.10001 3.10001 6.17452 3.10001 7.50001C3.10001 8.37405 3.56724 9.13897 4.26556 9.55862C3.94739 9.80472 3.67871 10.121 3.4618 10.4332C3.02215 11.066 2.6731 11.8533 2.43973 12.6H1.75001C1.55671 12.6 1.40001 12.4433 1.40001 12.25V3.75001ZM6.47051 11.1749C6.74889 11.5756 6.99549 12.0797 7.18738 12.6H3.81256C4.00445 12.0797 4.25105 11.5756 4.52942 11.1749C4.93713 10.5881 5.28425 10.4 5.49997 10.4C5.71568 10.4 6.06281 10.5881 6.47051 11.1749ZM1.75001 2.10001C0.838736 2.10001 0.100006 2.83874 0.100006 3.75001V12.25C0.100006 13.1613 0.838736 13.9 1.75001 13.9H14.25C15.1613 13.9 15.9 13.1613 15.9 12.25V3.75001C15.9 2.83874 15.1613 2.10001 14.25 2.10001H8.00001H1.75001ZM4.40001 7.50001C4.40001 6.89249 4.89249 6.40001 5.50001 6.40001C6.10752 6.40001 6.60001 6.89249 6.60001 7.50001C6.60001 8.10752 6.10752 8.60001 5.50001 8.60001C4.89249 8.60001 4.40001 8.10752 4.40001 7.50001ZM10.75 6.10001C10.391 6.10001 10.1 6.39102 10.1 6.75001C10.1 7.10899 10.391 7.40001 10.75 7.40001H12.25C12.609 7.40001 12.9 7.10899 12.9 6.75001C12.9 6.39102 12.609 6.10001 12.25 6.10001H10.75ZM10.75 9.10001C10.391 9.10001 10.1 9.39102 10.1 9.75001C10.1 10.109 10.391 10.4 10.75 10.4H12.25C12.609 10.4 12.9 10.109 12.9 9.75001C12.9 9.39102 12.609 9.10001 12.25 9.10001H10.75Z" fill="black"/>
</svg>
