<svg width="16" height="16" viewBox="0 0 16 16" fill="none" xmlns="http://www.w3.org/2000/svg"><path d="M7.240 1.427 C 5.855 1.586,4.657 2.130,3.551 3.102 C 3.327 3.298,2.938 3.709,2.787 3.909 C 2.753 3.954,2.748 3.917,2.748 3.581 C 2.746 3.107,2.704 2.970,2.505 2.790 C 2.202 2.518,1.798 2.518,1.495 2.790 C 1.402 2.874,1.347 2.952,1.308 3.055 C 1.255 3.197,1.253 3.254,1.253 4.667 C 1.253 6.064,1.256 6.138,1.306 6.273 C 1.374 6.453,1.545 6.624,1.729 6.694 C 1.861 6.744,1.938 6.747,3.333 6.747 C 4.729 6.747,4.806 6.744,4.938 6.694 C 5.447 6.501,5.575 5.820,5.172 5.457 C 4.958 5.265,4.896 5.253,4.089 5.253 C 3.703 5.253,3.387 5.248,3.387 5.241 C 3.387 5.214,3.589 4.912,3.735 4.720 C 4.226 4.076,4.931 3.508,5.696 3.142 C 6.314 2.847,6.923 2.689,7.636 2.642 C 8.452 2.588,9.211 2.701,9.947 2.987 C 11.749 3.689,13.028 5.293,13.321 7.218 C 13.380 7.607,13.380 8.393,13.321 8.782 C 13.054 10.540,11.972 12.027,10.385 12.820 C 8.697 13.664,6.659 13.547,5.087 12.518 C 4.092 11.867,3.421 11.039,2.963 9.898 C 2.859 9.638,2.765 9.521,2.600 9.443 C 2.203 9.256,1.724 9.555,1.726 9.986 C 1.728 10.253,2.101 11.079,2.473 11.637 C 3.714 13.504,5.772 14.613,7.994 14.613 C 9.068 14.613,9.972 14.402,10.947 13.922 C 12.958 12.933,14.346 10.937,14.586 8.688 C 14.647 8.114,14.614 7.343,14.504 6.773 C 14.108 4.713,12.790 2.982,10.920 2.068 C 9.942 1.589,9.027 1.382,7.933 1.390 C 7.713 1.392,7.401 1.408,7.240 1.427 M7.747 4.771 C 7.688 4.798,7.602 4.861,7.555 4.910 C 7.382 5.092,7.387 5.047,7.387 6.672 C 7.388 8.058,7.391 8.153,7.438 8.253 C 7.508 8.403,9.629 10.516,9.766 10.572 C 9.980 10.661,10.251 10.609,10.423 10.445 C 10.608 10.270,10.668 9.972,10.562 9.747 C 10.529 9.677,10.186 9.315,9.563 8.693 L 8.613 7.747 8.613 6.467 C 8.612 5.039,8.616 5.071,8.423 4.888 C 8.245 4.719,7.963 4.670,7.747 4.771 " stroke="none" fill-rule="evenodd" fill="black"></path></svg>