<svg width="16" height="16" viewBox="0 0 16 16" fill="none" xmlns="http://www.w3.org/2000/svg">
<path d="M14.8638 6.62905H14.3V6.6H8V9.4H11.956C11.3789 11.0299 9.82805 12.2 8 12.2C5.68055 12.2 3.8 10.3194 3.8 8C3.8 5.68055 5.68055 3.8 8 3.8C9.07065 3.8 10.0447 4.2039 10.7863 4.86365L12.7663 2.8837C11.5161 1.71855 9.8438 1 8 1C4.13425 1 1 4.13425 1 8C1 11.8657 4.13425 15 8 15C11.8657 15 15 11.8657 15 8C15 7.53065 14.9517 7.0725 14.8638 6.62905Z" fill="#FFC107"/>
<path d="M1.8071 4.74185L4.10695 6.4285C4.72925 4.8878 6.23635 3.8 8 3.8C9.07065 3.8 10.0447 4.2039 10.7863 4.86365L12.7663 2.8837C11.5161 1.71855 9.8438 1 8 1C5.3113 1 2.9796 2.51795 1.8071 4.74185Z" fill="#FF3D00"/>
<path d="M7.99997 15C9.80807 15 11.451 14.3081 12.6931 13.1828L10.5266 11.3495C9.82382 11.8819 8.95022 12.2 7.99997 12.2C6.17927 12.2 4.63332 11.0391 4.05092 9.41891L1.76822 11.1777C2.92672 13.4446 5.27942 15 7.99997 15Z" fill="#4CAF50"/>
<path d="M14.8638 6.62906H14.3V6.60001H8V9.40001H11.9561C11.6789 10.183 11.1752 10.8581 10.5256 11.3499C10.5259 11.3495 10.5263 11.3495 10.5266 11.3492L12.6931 13.1825C12.5398 13.3218 15 11.5 15 8.00001C15 7.53066 14.9517 7.07251 14.8638 6.62906Z" fill="#1976D2"/>
</svg>
