<svg width="16" height="16" viewBox="0 0 16 16" fill="none" xmlns="http://www.w3.org/2000/svg">
<g clip-path="url(#clip0_407_37)">
<path d="M14.375 2.50932C14.375 2.02369 13.9813 1.63 13.4957 1.63H9.75862C8.78736 1.63 8 2.41737 8 3.38863V14.38L8.72844 13.6516C9.38806 12.9919 10.2827 12.6214 11.2155 12.6214H13.4957C13.9813 12.6214 14.375 12.2277 14.375 11.7421V2.50932Z" stroke="black" stroke-width="1.4" stroke-linecap="round" stroke-linejoin="round"/>
<path d="M1.625 2.50932C1.625 2.02369 2.01868 1.63 2.50431 1.63H6.24138C7.21264 1.63 8 2.41737 8 3.38863V14.38L7.27156 13.6516C6.61194 12.9919 5.71732 12.6214 4.78449 12.6214H2.50431C2.01868 12.6214 1.625 12.2277 1.625 11.7421V2.50932Z" stroke="black" stroke-width="1.4" stroke-linecap="round" stroke-linejoin="round"/>
</g>
<defs>
<clipPath id="clip0_407_37">
<rect width="16" height="16" fill="white"/>
</clipPath>
</defs>
</svg>
