<svg width="16" height="16" viewBox="0 0 16 16" fill="none" xmlns="http://www.w3.org/2000/svg">
<g clip-path="url(#clip0_1593_48)">
<path fill-rule="evenodd" clip-rule="evenodd" d="M9.18755 3.75254V2.26128H6.20504V3.75254H9.18755ZM1.73126 5.24379V13.4457H9.10138C9.13167 13.9775 9.26646 14.4813 9.48552 14.937H1.73126C0.903615 14.937 0.240005 14.2734 0.240005 13.4457L0.247462 5.24379C0.247462 4.41615 0.903615 3.75254 1.73126 3.75254H4.71378V2.26128C4.71378 1.43363 5.37739 0.77002 6.20504 0.77002H9.18755C10.0152 0.77002 10.6788 1.43363 10.6788 2.26128V3.75254H13.6613C14.489 3.75254 15.1526 4.41615 15.1526 5.24379V9.82663C14.7062 9.55198 14.2015 9.36304 13.6613 9.28273V5.24379H1.73126ZM15.5549 12.394C15.8282 12.1207 15.8282 11.6774 15.5549 11.4041C15.2815 11.1307 14.8383 11.1307 14.5649 11.4041L12.4263 13.5427L11.5782 12.6946C11.3048 12.4212 10.8616 12.4212 10.5882 12.6946C10.3149 12.9679 10.3149 13.4111 10.5882 13.6845L11.9314 15.0276C12.0626 15.1589 12.2407 15.2327 12.4263 15.2327C12.612 15.2327 12.79 15.1589 12.9213 15.0276L15.5549 12.394Z" fill="black"/>
</g>
<defs>
<clipPath id="clip0_1593_48">
<rect width="16" height="16" fill="white"/>
</clipPath>
</defs>
</svg>
