<svg width="16" height="16" viewBox="0 0 16 16" fill="none" xmlns="http://www.w3.org/2000/svg">
<path fill-rule="evenodd" clip-rule="evenodd" d="M3.94992 7.99495C3.94992 8.80954 3.28955 9.4699 2.47496 9.4699C1.66036 9.4699 1 8.80954 1 7.99495C1 7.18035 1.66036 6.51999 2.47496 6.51999C3.28955 6.51999 3.94992 7.18035 3.94992 7.99495ZM9.72496 7.99495C9.72496 8.80954 9.0646 9.4699 8.25 9.4699C7.4354 9.4699 6.77504 8.80954 6.77504 7.99495C6.77504 7.18035 7.4354 6.51999 8.25 6.51999C9.0646 6.51999 9.72496 7.18035 9.72496 7.99495ZM14.025 9.4699C14.8396 9.4699 15.5 8.80954 15.5 7.99495C15.5 7.18035 14.8396 6.51999 14.025 6.51999C13.2104 6.51999 12.5501 7.18035 12.5501 7.99495C12.5501 8.80954 13.2104 9.4699 14.025 9.4699Z" fill="black"/>
</svg>
