<svg width="16" height="16" viewBox="0 0 16 16" fill="none" xmlns="http://www.w3.org/2000/svg">
<path fill-rule="evenodd" clip-rule="evenodd" d="M1.5 2.99984C1.5 2.1715 2.1715 1.5 2.99984 1.5H5.79927C6.62761 1.5 7.2991 2.17151 7.2991 2.99984V12.998C7.2991 13.8263 6.6276 14.4978 5.79927 14.4978H2.99984C2.17151 14.4978 1.5 13.8263 1.5 12.998V2.99984ZM2.99984 2.9C2.9447 2.9 2.9 2.9447 2.9 2.99984V12.998C2.9 13.0531 2.94469 13.0978 2.99984 13.0978H5.79927C5.85441 13.0978 5.8991 13.0531 5.8991 12.998V2.99984C5.8991 2.9447 5.8544 2.9 5.79927 2.9H2.99984ZM8.69852 2.99984C8.69852 2.17151 9.37 1.5 10.1984 1.5H12.9978C13.8261 1.5 14.4976 2.17151 14.4976 2.99984V5.79947C14.4976 6.62784 13.8261 7.29926 12.9978 7.29926H10.1984C9.37005 7.29926 8.69852 6.62784 8.69852 5.79947V2.99984ZM10.1984 2.9C10.1432 2.9 10.0985 2.94469 10.0985 2.99984V5.79947C10.0985 5.85456 10.1432 5.89926 10.1984 5.89926H12.9978C13.053 5.89926 13.0976 5.85456 13.0976 5.79947V2.99984C13.0976 2.94469 13.0529 2.9 12.9978 2.9H10.1984ZM10.1984 8.69849C9.37001 8.69849 8.69852 9.36998 8.69852 10.1983V12.9979C8.69852 13.8263 9.37001 14.4978 10.1984 14.4978H12.9978C13.8261 14.4978 14.4976 13.8263 14.4976 12.9979V10.1983C14.4976 9.36998 13.8261 8.69849 12.9978 8.69849H10.1984ZM10.0985 10.1983C10.0985 10.1432 10.1432 10.0985 10.1984 10.0985H12.9978C13.0529 10.0985 13.0976 10.1432 13.0976 10.1983V12.9979C13.0976 13.0531 13.0529 13.0978 12.9978 13.0978H10.1984C10.1432 13.0978 10.0985 13.0531 10.0985 12.9979V10.1983Z" fill="black"/>
</svg>
