<svg width="16" height="16" viewBox="0 0 16 16" fill="none" xmlns="http://www.w3.org/2000/svg">
<path fill-rule="evenodd" clip-rule="evenodd" d="M8.00116 1.10001C8.36015 1.10001 8.65116 1.39102 8.65116 1.75001V2.76371C8.65116 3.1227 8.36015 3.41371 8.00116 3.41371C7.64218 3.41371 7.35116 3.1227 7.35116 2.76371V1.75001C7.35116 1.39102 7.64218 1.10001 8.00116 1.10001ZM8.00117 6.45483C7.14713 6.45483 6.4548 7.14716 6.4548 8.00119C6.4548 8.85522 7.14713 9.54755 8.00117 9.54755C8.8552 9.54755 9.54753 8.85522 9.54753 8.00119C9.54753 7.14716 8.8552 6.45483 8.00117 6.45483ZM5.1548 8.00119C5.1548 6.42919 6.42916 5.15483 8.00117 5.15483C9.57317 5.15483 10.8475 6.42919 10.8475 8.00119C10.8475 9.57319 9.57317 10.8476 8.00117 10.8476C6.42916 10.8476 5.1548 9.57319 5.1548 8.00119ZM12.0088 4.91282C12.2626 4.65897 12.2626 4.24741 12.0088 3.99358C11.7549 3.73974 11.3433 3.73975 11.0895 3.9936L10.2893 4.79386C10.0355 5.04771 10.0355 5.45927 10.2893 5.7131C10.5432 5.96694 10.9547 5.96692 11.2086 5.71308L12.0088 4.91282ZM12.5886 8.00127C12.5886 7.64229 12.8797 7.35127 13.2386 7.35127H14.2523C14.6113 7.35127 14.9023 7.64229 14.9023 8.00127C14.9023 8.36026 14.6113 8.65127 14.2523 8.65127H13.2386C12.8797 8.65127 12.5886 8.36026 12.5886 8.00127ZM11.2085 10.2894C10.9547 10.0355 10.5431 10.0355 10.2893 10.2894C10.0355 10.5432 10.0355 10.9548 10.2893 11.2086L11.0895 12.0088C11.3434 12.2627 11.7549 12.2627 12.0088 12.0088C12.2626 11.755 12.2626 11.3434 12.0088 11.0896L11.2085 10.2894ZM8.00116 12.5887C8.36015 12.5887 8.65116 12.8797 8.65116 13.2387V14.2524C8.65116 14.6114 8.36015 14.9024 8.00116 14.9024C7.64218 14.9024 7.35116 14.6114 7.35116 14.2524V13.2387C7.35116 12.8797 7.64218 12.5887 8.00116 12.5887ZM5.71301 11.2086C5.96685 10.9547 5.96686 10.5432 5.71302 10.2893C5.45919 10.0355 5.04763 10.0355 4.79378 10.2893L3.99354 11.0896C3.73969 11.3434 3.73969 11.7549 3.99352 12.0088C4.24736 12.2626 4.65892 12.2626 4.91276 12.0088L5.71301 11.2086ZM1.09998 8.00127C1.09998 7.64229 1.39099 7.35127 1.74998 7.35127H2.76368C3.12267 7.35127 3.41368 7.64229 3.41368 8.00127C3.41368 8.36026 3.12267 8.65127 2.76368 8.65127H1.74998C1.39099 8.65127 1.09998 8.36026 1.09998 8.00127ZM4.91278 3.9936C4.65895 3.73975 4.24739 3.73974 3.99354 3.99358C3.73969 4.24741 3.73968 4.65897 3.99352 4.91282L4.79376 5.7131C5.0476 5.96695 5.45916 5.96696 5.713 5.71313C5.96685 5.45929 5.96686 5.04774 5.71303 4.79389L4.91278 3.9936Z" fill="black"/>
</svg>
