<svg width="16" height="16" viewBox="0 0 16 16" fill="none" xmlns="http://www.w3.org/2000/svg">
<path fill-rule="evenodd" clip-rule="evenodd" d="M7.34999 2.35001C6.77009 2.35001 6.29999 2.82011 6.29999 3.40001V3.57501H9.71249V3.40001C9.71249 2.82011 9.24239 2.35001 8.66249 2.35001H7.34999ZM11.1125 3.57501V3.40001C11.1125 2.04691 10.0156 0.950012 8.66249 0.950012H7.34999C5.9969 0.950012 4.89999 2.04691 4.89999 3.40001V3.57501H2.97499H2.09999C1.71339 3.57501 1.39999 3.88841 1.39999 4.27501C1.39999 4.66161 1.71339 4.97501 2.09999 4.97501H2.33322L3.01363 12.7998C3.12373 14.0658 4.18359 15.0375 5.45442 15.0375H10.5581C11.8289 15.0375 12.8888 14.0658 12.9989 12.7998L13.6793 4.97501H13.9125C14.2991 4.97501 14.6125 4.66161 14.6125 4.27501C14.6125 3.88841 14.2991 3.57501 13.9125 3.57501H13.0375H11.1125ZM12.274 4.97501H10.4125H5.59999H3.7385L4.40837 12.6785C4.45555 13.2211 4.90978 13.6375 5.45442 13.6375H10.5581C11.1027 13.6375 11.5569 13.2211 11.6041 12.6785L12.274 4.97501ZM6.47499 6.20001C6.86159 6.20001 7.17499 6.51341 7.17499 6.90001V11.7125C7.17499 12.0991 6.86159 12.4125 6.47499 12.4125C6.08839 12.4125 5.77499 12.0991 5.77499 11.7125V6.90001C5.77499 6.51341 6.08839 6.20001 6.47499 6.20001ZM10.2375 6.90001C10.2375 6.51341 9.92409 6.20001 9.53749 6.20001C9.15089 6.20001 8.83749 6.51341 8.83749 6.90001V11.7125C8.83749 12.0991 9.15089 12.4125 9.53749 12.4125C9.92409 12.4125 10.2375 12.0991 10.2375 11.7125V6.90001Z" fill="black"/>
</svg>
