<svg width="16" height="16" viewBox="0 0 16 16" fill="none" xmlns="http://www.w3.org/2000/svg">
<path fill-rule="evenodd" clip-rule="evenodd" d="M8 1.5C4.41136 1.5 1.5 4.41136 1.5 8C1.5 11.5886 4.41136 14.5 8 14.5C11.5886 14.5 14.5 11.5886 14.5 8C14.5 4.41136 11.5886 1.5 8 1.5ZM2.5 8C2.5 4.96364 4.96364 2.5 8 2.5C11.0364 2.5 13.5 4.96364 13.5 8C13.5 11.0364 11.0364 13.5 8 13.5C4.96364 13.5 2.5 11.0364 2.5 8ZM10.3366 8.29062L6.76001 10.4512C6.70874 10.482 6.65023 10.4985 6.59047 10.4991C6.53071 10.4998 6.47186 10.4845 6.41995 10.4549C6.36804 10.4253 6.32494 10.3824 6.29508 10.3306C6.26522 10.2788 6.24966 10.2201 6.25001 10.1603V5.83968C6.24966 5.77992 6.26522 5.72115 6.29508 5.66938C6.32494 5.61762 6.36804 5.57473 6.41995 5.54512C6.47186 5.51551 6.53071 5.50024 6.59047 5.50087C6.65023 5.50151 6.70874 5.51803 6.76001 5.54875L10.3366 7.70937C10.3864 7.73975 10.4276 7.78243 10.4562 7.83333C10.4848 7.88422 10.4998 7.94162 10.4998 8C10.4998 8.05837 10.4848 8.11577 10.4562 8.16667C10.4276 8.21756 10.3864 8.26025 10.3366 8.29062Z" fill="black"/>
</svg>
