<svg width="16" height="16" viewBox="0 0 16 16" fill="none" xmlns="http://www.w3.org/2000/svg">
<path d="M5.69067 5.19044C6.03747 5.36128 6.4571 5.21864 6.62794 4.87183C6.79878 4.52503 6.65614 4.1054 6.30933 3.93456L5.69067 5.19044ZM3.7 9.1875C3.7 8.8009 3.3866 8.4875 3 8.4875C2.6134 8.4875 2.3 8.8009 2.3 9.1875H3.7ZM8.49497 2.30747C8.76834 2.03411 8.76834 1.59089 8.49497 1.31753C8.22161 1.04416 7.77839 1.04416 7.50503 1.31753L8.49497 2.30747ZM5.5 4.3125L5.00503 3.81753C4.73166 4.09089 4.73166 4.53411 5.00503 4.80747L5.5 4.3125ZM7.50503 7.30747C7.77839 7.58084 8.22161 7.58084 8.49497 7.30747C8.76834 7.03411 8.76834 6.59089 8.49497 6.31753L7.50503 7.30747ZM6 4.5625C6.30933 3.93456 6.30977 3.93477 6.31021 3.93499C6.31035 3.93506 6.31079 3.93528 6.31108 3.93542C6.31165 3.9357 6.31222 3.93599 6.31279 3.93627C6.31391 3.93683 6.31502 3.93739 6.3161 3.93794C6.31827 3.93904 6.32038 3.94012 6.32242 3.94119C6.32648 3.94332 6.33043 3.94545 6.33432 3.94763C6.34175 3.9518 6.35048 3.95697 6.36025 3.96347C6.37146 3.97092 6.41958 4.0028 6.47007 4.0657C6.517 4.12416 6.64053 4.3061 6.5938 4.56719C6.54723 4.82733 6.37062 4.94743 6.32707 4.9738C6.25977 5.01455 6.28297 4.97697 6.59977 4.94183C6.88032 4.91071 7.32173 4.8875 8 4.8875V3.4875C7.29765 3.4875 6.79874 3.51117 6.44542 3.55036C6.12835 3.58553 5.82414 3.6417 5.60199 3.7762C5.48102 3.84944 5.27013 4.01642 5.2157 4.32051C5.1611 4.62554 5.30317 4.8485 5.37833 4.94212C5.45704 5.04016 5.54306 5.10134 5.58512 5.1293C5.61031 5.14605 5.63269 5.15929 5.64993 5.16895C5.65872 5.17387 5.66661 5.17811 5.67338 5.18166C5.67678 5.18343 5.67993 5.18506 5.68281 5.18652C5.68425 5.18725 5.68563 5.18794 5.68694 5.18859C5.68759 5.18892 5.68823 5.18924 5.68885 5.18955C5.68916 5.1897 5.68962 5.18993 5.68977 5.19C5.69022 5.19022 5.69067 5.19044 6 4.5625ZM8 4.8875C8.85046 4.8875 9.68182 5.13969 10.389 5.61218L11.1667 4.44812C10.2294 3.8218 9.12735 3.4875 8 3.4875V4.8875ZM10.389 5.61218C11.0961 6.08467 11.6472 6.75624 11.9727 7.54196L13.2661 7.0062C12.8347 5.96467 12.1041 5.07445 11.1667 4.44812L10.389 5.61218ZM11.9727 7.54196C12.2981 8.32768 12.3833 9.19227 12.2174 10.0264L13.5905 10.2995C13.8104 9.19382 13.6975 8.04774 13.2661 7.0062L11.9727 7.54196ZM12.2174 10.0264C12.0515 10.8605 11.6419 11.6267 11.0406 12.2281L12.0305 13.218C12.8277 12.4208 13.3705 11.4052 13.5905 10.2995L12.2174 10.0264ZM11.0406 12.2281C10.4392 12.8294 9.67301 13.239 8.83889 13.4049L9.11201 14.778C10.2177 14.558 11.2333 14.0152 12.0305 13.218L11.0406 12.2281ZM8.83889 13.4049C8.00477 13.5708 7.14018 13.4856 6.35446 13.1602L5.8187 14.4536C6.86024 14.885 8.00632 14.9979 9.11201 14.778L8.83889 13.4049ZM6.35446 13.1602C5.56874 12.8347 4.89717 12.2836 4.42468 11.5765L3.26062 12.3542C3.88695 13.2916 4.77717 14.0222 5.8187 14.4536L6.35446 13.1602ZM4.42468 11.5765C3.95219 10.8693 3.7 10.038 3.7 9.1875H2.3C2.3 10.3149 2.6343 11.4169 3.26062 12.3542L4.42468 11.5765ZM7.50503 1.31753L5.00503 3.81753L5.99497 4.80747L8.49497 2.30747L7.50503 1.31753ZM5.00503 4.80747L7.50503 7.30747L8.49497 6.31753L5.99497 3.81753L5.00503 4.80747Z" fill="black"/>
</svg>
