<svg width="16" height="16" viewBox="0 0 16 16" fill="none" xmlns="http://www.w3.org/2000/svg"><path d="M4.547 2.604 C 2.728 3.478,1.207 4.216,1.166 4.245 C 1.062 4.319,1.006 4.444,1.007 4.599 C 1.009 4.941,1.290 6.438,1.532 7.400 C 2.393 10.829,3.769 13.208,5.521 14.296 C 7.024 15.229,8.948 15.231,10.446 14.300 C 11.263 13.792,12.067 12.926,12.687 11.887 C 13.743 10.117,14.528 7.683,14.932 4.931 C 14.992 4.524,14.980 4.425,14.858 4.293 C 14.808 4.239,13.798 3.741,11.453 2.614 C 8.414 1.155,8.107 1.013,7.986 1.014 C 7.866 1.014,7.544 1.163,4.547 2.604 M10.453 5.307 L 10.453 5.948 10.350 5.895 C 10.293 5.866,10.167 5.829,10.069 5.814 C 9.524 5.727,8.984 6.064,8.823 6.592 C 8.658 7.137,8.917 7.715,9.433 7.953 C 9.577 8.019,9.659 8.038,9.840 8.047 C 10.058 8.058,10.175 8.035,10.407 7.935 C 10.450 7.916,10.453 7.948,10.453 8.410 L 10.453 8.907 9.833 8.907 C 9.139 8.908,8.959 8.933,8.698 9.064 C 8.467 9.181,8.214 9.427,8.097 9.649 C 7.942 9.944,7.921 10.086,7.920 10.820 L 7.920 11.467 6.933 11.467 L 5.947 11.467 5.947 8.067 L 5.947 4.667 8.200 4.667 L 10.453 4.667 10.453 5.307 " stroke="none" fill-rule="evenodd"></path></svg>