<svg width="16" height="16" viewBox="0 0 16 16" fill="none" xmlns="http://www.w3.org/2000/svg"><path d="M3.107 1.892 C 2.975 1.903,2.819 1.926,2.760 1.945 C 2.371 2.071,2.055 2.401,1.929 2.813 C 1.883 2.963,1.880 3.109,1.880 4.987 C 1.880 6.900,1.882 7.005,1.930 7.093 C 1.999 7.224,2.102 7.328,2.227 7.396 C 2.333 7.453,2.336 7.453,4.597 7.461 C 7.163 7.469,7.064 7.476,7.270 7.271 C 7.474 7.067,7.467 7.159,7.467 4.667 C 7.467 2.232,7.470 2.283,7.299 2.089 C 7.252 2.035,7.159 1.966,7.093 1.936 C 6.976 1.881,6.938 1.880,5.160 1.877 C 4.163 1.875,3.239 1.882,3.107 1.892 M9.049 1.893 C 8.841 1.936,8.701 2.044,8.596 2.240 C 8.549 2.329,8.547 2.441,8.547 4.667 C 8.547 6.892,8.549 7.004,8.596 7.093 C 8.666 7.224,8.769 7.328,8.893 7.396 C 9.000 7.453,9.002 7.453,11.264 7.461 C 13.830 7.469,13.731 7.476,13.937 7.270 C 14.142 7.065,14.137 7.126,14.127 4.902 C 14.119 3.104,14.114 2.935,14.070 2.800 C 13.928 2.368,13.605 2.050,13.185 1.930 C 13.043 1.889,12.823 1.884,11.093 1.877 C 10.030 1.873,9.110 1.881,9.049 1.893 M6.213 4.667 L 6.213 6.213 4.667 6.213 L 3.120 6.213 3.120 4.709 C 3.120 3.376,3.125 3.199,3.162 3.162 C 3.199 3.125,3.376 3.120,4.709 3.120 L 6.213 3.120 6.213 4.667 M12.827 3.146 C 12.861 3.168,12.868 3.375,12.874 4.692 L 12.881 6.213 11.334 6.213 L 9.787 6.213 9.787 4.667 L 9.787 3.120 11.287 3.120 C 12.185 3.121,12.803 3.131,12.827 3.146 M2.382 8.561 C 2.176 8.602,2.034 8.711,1.930 8.907 C 1.882 8.995,1.880 9.100,1.880 11.013 C 1.880 12.891,1.883 13.037,1.929 13.187 C 2.062 13.622,2.378 13.938,2.813 14.071 C 2.963 14.117,3.109 14.120,4.987 14.120 L 7.000 14.120 7.109 14.062 C 7.261 13.980,7.377 13.839,7.426 13.676 C 7.487 13.467,7.487 9.200,7.426 8.991 C 7.375 8.820,7.251 8.675,7.093 8.602 C 6.975 8.547,6.943 8.547,4.733 8.542 C 3.501 8.540,2.443 8.548,2.382 8.561 M9.049 8.561 C 8.842 8.602,8.701 8.711,8.596 8.907 C 8.549 8.996,8.547 9.108,8.547 11.333 C 8.547 13.559,8.549 13.671,8.596 13.760 C 8.666 13.891,8.769 13.995,8.893 14.062 C 9.000 14.120,9.001 14.120,11.013 14.120 C 12.891 14.120,13.037 14.117,13.187 14.071 C 13.615 13.940,13.928 13.631,14.070 13.200 C 14.114 13.065,14.119 12.896,14.127 11.098 C 14.137 8.930,14.139 8.952,13.966 8.756 C 13.919 8.702,13.826 8.633,13.760 8.602 C 13.642 8.547,13.609 8.547,11.400 8.542 C 10.168 8.540,9.110 8.548,9.049 8.561 M6.213 11.333 L 6.213 12.880 4.683 12.880 L 3.153 12.880 3.137 12.820 C 3.128 12.787,3.121 12.091,3.120 11.273 L 3.120 9.787 4.667 9.787 L 6.213 9.787 6.213 11.333 M12.880 11.250 C 12.880 12.055,12.873 12.751,12.863 12.797 L 12.847 12.880 11.317 12.880 L 9.787 12.880 9.787 11.333 L 9.787 9.787 11.333 9.787 L 12.880 9.787 12.880 11.250 " stroke="none" fill-rule="evenodd" fill="black"></path></svg>