<svg width="16" height="17" viewBox="0 0 16 17" fill="none" xmlns="http://www.w3.org/2000/svg">
<path d="M11.3438 6L7.6875 15H9.16375L9.92906 13.1875H12.7584L13.5238 15H15L11.3438 6ZM10.5097 11.8125L11.3438 9.24531L12.1778 11.8125H10.5097ZM8.5 10.5C8.49219 10.4941 7.85656 10.0072 7.08063 9.16656C8.3175 7.49031 9.01813 5.585 9.30406 4.6875H11V3.3125H6.6875V2H5.3125V3.3125H1V4.6875H7.85156C7.55406 5.52969 7.00625 6.85938 6.17063 8.07375C5.14938 6.71625 4.6975 5.7025 4.69156 5.69187L4.46875 5.25L3.28125 5.9375L3.49594 6.37063C3.52375 6.41938 4.03313 7.555 5.20563 9.07594C5.23438 9.11375 5.26344 9.15063 5.2925 9.1875C3.73875 10.9644 2.50656 11.6591 2.49062 11.6709L2 12L2.71875 13.125L3.32188 12.7666C3.39063 12.7144 4.61344 12.0166 6.19688 10.2422C6.96313 11.0634 7.5475 11.5181 7.58125 11.5444L7.96875 11.8125L8.5 10.5Z" fill="#2D2D2D"/>
</svg>
