<svg width="166" height="100" viewBox="0 0 166 100" fill="none" xmlns="http://www.w3.org/2000/svg">
<path d="M165.75 2.10999C165.5 1.84999 165.28 2.12999 164.92 2.12999C164.56 2.12999 164.56 2.43999 164.2 2.43999C163.84 2.43999 163.85 2.12999 163.49 2.12999C163.13 2.12999 163.13 1.95999 162.78 1.94999C162.43 1.93999 162.42 2.04999 162.06 2.03999C161.7 2.02999 161.7 2.48999 161.34 2.48999C160.98 2.48999 160.98 2.22999 160.63 2.21999C160.28 2.20999 160.27 2.29999 159.91 2.29999C159.55 2.29999 159.55 2.08999 159.2 2.08999C158.85 2.08999 158.84 2.33999 158.48 2.33999C158.12 2.33999 158.12 2.11999 157.77 2.10999C157.42 2.09999 157.41 1.82999 157.06 1.82999C156.71 1.82999 156.7 2.26999 156.34 2.26999C155.98 2.26999 155.98 2.30999 155.62 2.30999C155.26 2.30999 155.26 2.32999 154.9 2.31999C154.54 2.30999 154.54 1.97999 154.19 1.97999C153.84 1.97999 153.83 2.21999 153.47 2.21999C153.11 2.21999 153.11 2.19999 152.75 2.19999C152.39 2.19999 152.39 2.06999 152.03 2.06999C151.67 2.06999 151.67 1.95999 151.31 1.94999C150.95 1.93999 150.95 2.17999 150.59 2.16999C150.23 2.15999 150.23 2.00999 149.87 2.00999C149.51 2.00999 149.51 2.34999 149.15 2.34999C148.79 2.34999 148.79 1.98999 148.43 1.98999C148.07 1.98999 148.07 2.06999 147.71 2.06999C147.35 2.06999 147.35 2.13999 146.99 2.12999C146.63 2.11999 146.63 1.93999 146.27 1.93999C145.91 1.93999 145.91 1.67999 145.55 1.67999C145.19 1.67999 145.19 1.90999 144.83 1.89999C144.47 1.88999 144.47 1.78999 144.11 1.78999C143.75 1.78999 143.75 2.01999 143.39 2.01999C143.03 2.01999 143.03 1.93999 142.67 1.93999C142.31 1.93999 142.31 1.85999 141.95 1.85999C141.59 1.85999 141.59 1.91999 141.23 1.91999C140.87 1.91999 140.87 2.11999 140.51 2.10999C140.15 2.09999 140.16 1.67999 139.8 1.67999C139.44 1.67999 139.44 1.80999 139.08 1.80999C138.72 1.80999 138.72 2.10999 138.36 2.10999C138 2.10999 138 1.81999 137.65 1.81999C137.3 1.81999 137.29 2.15999 136.93 2.14999C136.57 2.13999 136.57 2.19999 136.21 2.18999C135.85 2.17999 135.85 2.03999 135.49 2.02999C135.13 2.01999 135.13 2.04999 134.77 2.04999C134.41 2.04999 134.41 2.03999 134.05 2.02999C133.69 2.01999 133.7 1.67999 133.34 1.66999C132.98 1.65999 132.98 1.91999 132.62 1.91999C132.26 1.91999 132.27 1.50999 131.91 1.49999C131.55 1.48999 131.54 2.12999 131.19 2.12999C130.84 2.12999 130.83 2.06999 130.47 2.05999C130.11 2.04999 130.11 1.91999 129.75 1.91999C129.39 1.91999 129.4 1.54999 129.04 1.53999C128.68 1.52999 128.68 1.84999 128.32 1.84999C127.96 1.84999 127.96 1.76999 127.6 1.76999C127.24 1.76999 127.24 1.95999 126.88 1.95999C126.52 1.95999 126.52 1.97999 126.16 1.97999C125.8 1.97999 125.8 2.10999 125.44 2.09999C125.08 2.08999 125.09 1.62999 124.73 1.61999C124.37 1.60999 124.37 1.92999 124.01 1.92999C123.65 1.92999 123.65 1.67999 123.29 1.67999C122.93 1.67999 122.93 1.86999 122.57 1.86999C122.21 1.86999 122.21 1.59999 121.85 1.59999C121.49 1.59999 121.49 1.74999 121.13 1.73999C120.77 1.72999 120.77 1.83999 120.41 1.82999C120.05 1.81999 120.05 1.60999 119.69 1.59999C119.33 1.58999 119.33 1.70999 118.97 1.69999C118.61 1.68999 118.61 1.71999 118.25 1.70999C117.89 1.69999 117.89 1.97999 117.53 1.97999C117.17 1.97999 117.18 1.34999 116.82 1.33999C116.46 1.32999 116.46 1.73999 116.1 1.72999C115.74 1.71999 115.74 1.52999 115.38 1.52999C115.02 1.52999 115.02 1.40999 114.66 1.40999C114.3 1.40999 114.3 1.83999 113.94 1.83999C113.58 1.83999 113.58 1.83999 113.22 1.82999C112.86 1.81999 112.86 1.63999 112.5 1.62999C112.14 1.61999 112.14 1.57999 111.78 1.56999C111.42 1.55999 111.42 1.52999 111.06 1.52999C110.7 1.52999 110.7 1.41999 110.34 1.41999C109.98 1.41999 109.98 1.74999 109.62 1.74999C109.26 1.74999 109.26 1.76999 108.9 1.76999C108.54 1.76999 108.54 1.77999 108.18 1.76999C107.82 1.75999 107.82 1.38999 107.47 1.37999C107.12 1.36999 107.11 1.37999 106.75 1.36999C106.39 1.35999 106.39 1.43999 106.03 1.42999C105.67 1.41999 105.67 1.40999 105.31 1.40999C104.95 1.40999 104.95 1.27999 104.59 1.26999C104.23 1.25999 104.23 1.54999 103.87 1.53999C103.51 1.52999 103.51 1.11999 103.15 1.11999C102.79 1.11999 102.79 1.28999 102.43 1.27999C102.07 1.26999 102.07 1.27999 101.71 1.27999C101.35 1.27999 101.35 1.52999 100.99 1.52999C100.63 1.52999 100.63 1.52999 100.27 1.51999C99.9098 1.50999 99.9098 1.31999 99.5498 1.31999C99.1898 1.31999 99.1897 1.72999 98.8297 1.72999C98.4697 1.72999 98.4798 1.18999 98.1198 1.18999C97.7598 1.18999 97.7498 1.72999 97.3898 1.72999C97.0298 1.72999 97.0298 1.65999 96.6698 1.65999C96.3098 1.65999 96.3197 1.11999 95.9597 1.11999C95.5997 1.11999 95.5898 1.69999 95.2298 1.69999C94.8698 1.69999 94.8798 1.09999 94.5198 1.09999C94.1598 1.09999 94.1498 1.64999 93.7898 1.63999C93.4298 1.62999 93.4397 1.04999 93.0797 1.04999C92.7197 1.04999 92.7097 1.53999 92.3497 1.53999C91.9897 1.53999 91.9898 1.57999 91.6298 1.56999C91.2698 1.55999 91.2698 1.16999 90.9098 1.15999C90.5498 1.14999 90.5398 1.60999 90.1798 1.60999C89.8198 1.60999 89.8197 1.41999 89.4597 1.41999C89.0997 1.41999 89.0998 1.56999 88.7398 1.56999C88.3798 1.56999 88.3798 1.65999 88.0198 1.65999C87.6598 1.65999 87.6598 1.59999 87.2998 1.59999C86.9398 1.59999 86.9397 1.63999 86.5797 1.63999C86.2197 1.63999 86.2198 1.40999 85.8598 1.40999C85.4998 1.40999 85.4998 1.40999 85.1398 1.39999C84.7798 1.38999 84.7798 1.39999 84.4198 1.38999C84.0598 1.37999 84.0597 1.41999 83.6997 1.41999C83.3397 1.41999 83.3398 1.51999 82.9798 1.50999C82.6198 1.49999 82.6198 1.34999 82.2598 1.34999C81.8998 1.34999 81.8998 1.09999 81.5398 1.09999C81.1798 1.09999 81.1797 1.27999 80.8197 1.27999C80.4597 1.27999 80.4597 0.919991 80.0997 0.919991C79.7397 0.919991 79.7398 0.919991 79.3798 0.919991C79.0198 0.919991 79.0198 0.929991 78.6598 0.919991C78.2998 0.909991 78.2997 1.13999 77.9397 1.13999C77.5797 1.13999 77.5797 0.98999 77.2197 0.98999C76.8597 0.98999 76.8598 1.00999 76.4998 1.00999C76.1398 1.00999 76.1398 1.10999 75.7798 1.09999C75.4198 1.08999 75.4198 1.45999 75.0598 1.45999C74.6998 1.45999 74.7097 0.899994 74.3497 0.899994C73.9897 0.899994 73.9898 0.979988 73.6298 0.979988C73.2698 0.979988 73.2698 0.849991 72.9098 0.849991C72.5498 0.849991 72.5497 0.839989 72.1897 0.839989C71.8297 0.839989 71.8297 0.969991 71.4697 0.959991C71.1097 0.949991 71.1098 1.13999 70.7498 1.12999C70.3898 1.11999 70.3898 1.28999 70.0298 1.27999C69.6698 1.26999 69.6698 0.889992 69.3098 0.889992C68.9498 0.889992 68.9497 1.09999 68.5897 1.09999C68.2297 1.09999 68.2298 0.88999 67.8698 0.87999C67.5098 0.86999 67.4998 1.28999 67.1398 1.27999C66.7798 1.26999 66.7798 1.43999 66.4198 1.43999C66.0598 1.43999 66.0697 0.829987 65.7097 0.829987C65.3497 0.829987 65.3498 0.869987 64.9898 0.869987C64.6298 0.869987 64.6298 1.06999 64.2698 1.05999C63.9098 1.04999 63.9098 0.81999 63.5498 0.80999C63.1898 0.79999 63.1897 1.13999 62.8297 1.13999C62.4697 1.13999 62.4698 0.999992 62.1098 0.999992C61.7498 0.999992 61.7498 0.929993 61.3898 0.929993C61.0298 0.929993 61.0298 1.18999 60.6598 1.18999C60.2898 1.18999 60.2997 0.779991 59.9397 0.779991C59.5797 0.779991 59.5797 0.829987 59.2197 0.829987C58.8597 0.829987 58.8598 1.06999 58.4898 1.05999C58.1198 1.04999 58.1298 0.969991 57.7698 0.959991C57.4098 0.949991 57.3998 1.31999 57.0398 1.31999C56.6798 1.31999 56.6797 1.09999 56.3197 1.09999C55.9597 1.09999 55.9598 0.819992 55.5998 0.819992C55.2397 0.819992 55.2298 1.30999 54.8698 1.29999C54.5098 1.28999 54.5098 0.929991 54.1498 0.919991C53.7898 0.909991 53.7898 1.03999 53.4298 1.02999C53.0698 1.01999 53.0697 0.729994 52.7097 0.719994C52.3497 0.709994 52.3498 1.08999 51.9898 1.07999C51.6298 1.06999 51.6298 0.909988 51.2698 0.909988C50.9098 0.909988 50.9098 0.739988 50.5498 0.729988C50.1898 0.719988 50.1897 0.729988 49.8297 0.729988C49.4697 0.729988 49.4698 0.599989 49.1098 0.589989C48.7498 0.579989 48.7398 0.949989 48.3798 0.949989C48.0198 0.949989 48.0198 1.06999 47.6598 1.05999C47.2998 1.04999 47.2997 0.629987 46.9397 0.619987C46.5797 0.609987 46.5797 0.549993 46.2097 0.539993C45.8397 0.529993 45.8498 0.549993 45.4798 0.539993C45.1098 0.529993 45.1198 0.589989 44.7498 0.589989C44.3798 0.589989 44.3798 1.08999 44.0198 1.08999C43.6598 1.08999 43.6598 0.769987 43.2998 0.759987C42.9398 0.749987 42.9297 0.959989 42.5697 0.949989C42.2097 0.939989 42.2097 1.02999 41.8397 1.02999C41.4697 1.02999 41.4798 0.979988 41.1098 0.979988C40.7398 0.979988 40.7498 0.749992 40.3798 0.749992C40.0098 0.749992 40.0098 0.729988 39.6498 0.729988C39.2898 0.729988 39.2798 0.969994 38.9198 0.969994C38.6798 0.969994 38.4497 0.949989 38.2097 0.949989C37.9697 0.949989 37.7398 0.429993 37.4998 0.429993C37.2598 0.429993 37.0198 0.539993 36.7898 0.539993C36.5598 0.539993 36.3097 0.539993 36.0797 0.539993C35.8497 0.539993 35.6098 0.689987 35.3698 0.689987C35.1298 0.689987 34.8998 0.779991 34.6598 0.779991C34.4198 0.779991 34.1897 0.869987 33.9497 0.869987C33.7097 0.869987 33.4698 0.459991 33.2298 0.459991C32.9898 0.459991 32.7598 0.739992 32.5198 0.749992C32.2798 0.759992 32.0398 0.569987 31.7998 0.579987C31.5598 0.589987 31.3498 1.17999 31.1098 1.18999C30.8698 1.19999 30.6398 1.18999 30.3998 1.18999C30.1598 1.18999 29.9098 0.889994 29.6698 0.899994C29.4298 0.909994 29.1797 0.669993 28.9397 0.679993C28.6997 0.689993 28.4698 0.829991 28.2298 0.849991C27.9898 0.869991 27.7598 0.989987 27.5298 1.00999C27.2998 1.02999 27.0697 1.22999 26.8397 1.24999C26.6097 1.26999 26.3297 0.96999 26.0997 0.98999C25.8697 1.00999 25.6698 1.40999 25.4298 1.43999C25.1898 1.46999 24.9698 1.55999 24.7298 1.58999C24.4898 1.61999 24.2198 1.39999 23.9898 1.43999C23.7598 1.47999 23.4998 1.42999 23.2698 1.45999C23.0398 1.48999 22.7997 1.53999 22.5697 1.58999C22.3397 1.63999 22.1098 1.74999 21.8798 1.78999C21.6498 1.82999 21.4698 2.13999 21.2398 2.18999C21.0098 2.23999 20.7498 2.16999 20.5198 2.22999C20.2898 2.28999 19.9998 2.09999 19.7698 2.15999C19.5398 2.21999 19.4098 2.66999 19.1798 2.72999C18.9498 2.78999 18.5697 2.32999 18.3397 2.39999C18.1097 2.46999 17.9598 2.80999 17.7398 2.87999C17.5198 2.94999 17.2997 3.06999 17.0797 3.14999C16.8597 3.22999 16.7198 3.54999 16.4998 3.62999C16.2798 3.70999 15.8898 3.36999 15.6698 3.44999C15.4498 3.52999 15.1797 3.50999 14.9597 3.59999C14.7397 3.68999 14.7698 4.35999 14.5498 4.45999C14.3298 4.55999 13.9798 4.33999 13.7698 4.44999C13.5598 4.55999 13.3298 4.61999 13.1098 4.72999C12.8898 4.83999 12.5998 4.79999 12.3998 4.90999C12.1998 5.01999 12.0798 5.31999 11.8798 5.43999C11.6798 5.55999 11.4998 5.72999 11.2998 5.85999C11.0998 5.98999 11.0297 6.30999 10.8297 6.43999C10.6297 6.56999 10.2498 6.43999 10.0598 6.56999C9.86983 6.69999 9.67976 6.85999 9.48976 6.99999C9.29976 7.13999 9.15974 7.34999 8.96974 7.49999C8.77974 7.64999 8.62971 7.82999 8.43971 7.97999C8.24971 8.12999 8.08982 8.29999 7.91982 8.45999C7.74982 8.61999 7.33981 8.52999 7.15981 8.68999C6.97981 8.84999 7.02976 9.23999 6.85976 9.40999C6.68976 9.57999 6.71982 9.92999 6.54982 10.1C6.37982 10.27 5.81981 10.07 5.65981 10.24C5.49981 10.41 5.32983 10.59 5.17983 10.77C5.02983 10.95 5.09972 11.32 4.94972 11.51C4.79972 11.7 4.85974 12.04 4.71974 12.23C4.57974 12.42 4.48975 12.63 4.34975 12.83C4.20975 13.03 3.75978 13 3.62978 13.2C3.49978 13.4 3.46975 13.66 3.34975 13.86C3.22975 14.06 3.22977 14.34 3.11977 14.54C3.00977 14.74 2.97978 15 2.87978 15.21C2.77978 15.42 2.38981 15.49 2.28981 15.71C2.18981 15.93 1.80973 16.02 1.70973 16.24C1.60973 16.46 2.06975 16.9 1.97975 17.12C1.88975 17.34 1.81977 17.56 1.74977 17.78C1.67977 18 1.61982 18.22 1.54982 18.45C1.47982 18.68 1.06978 18.8 1.00978 19.03C0.949783 19.26 1.24972 19.57 1.19972 19.8C1.14972 20.03 0.479715 20.14 0.439715 20.38C0.399715 20.62 0.769763 20.92 0.739763 21.15C0.709763 21.38 0.319822 21.58 0.299822 21.82C0.279822 22.06 0.689817 22.32 0.669817 22.56C0.649817 22.8 0.239754 23.02 0.229754 23.26C0.219754 23.5 0.499783 23.73 0.509783 23.97C0.509783 24.21 0.249793 24.47 0.269793 24.71C0.289793 24.95 0.869798 25.14 0.899798 25.38C0.929798 25.62 0.329759 25.94 0.359759 26.17C0.389759 26.4 0.849788 26.58 0.889788 26.82C0.929788 27.06 1.10981 27.26 1.15981 27.5C1.20981 27.74 0.959793 28.04 1.01979 28.27C1.07979 28.5 1.03976 28.77 1.10976 29C1.17976 29.23 1.41977 29.41 1.49977 29.64C1.57977 29.87 1.49973 30.16 1.57973 30.38C1.65973 30.6 2.13975 30.67 2.22975 30.89C2.31975 31.11 2.29981 31.38 2.40981 31.6C2.51981 31.82 2.62976 32.02 2.73976 32.24C2.84976 32.46 2.63979 32.85 2.76979 33.06C2.89979 33.27 3.20974 33.36 3.33974 33.56C3.46974 33.76 3.6398 33.94 3.7798 34.14C3.9198 34.34 3.99979 34.58 4.13979 34.77C4.27979 34.96 4.73979 34.91 4.88979 35.09C5.03979 35.27 4.79973 35.79 4.95973 35.97C5.11973 36.15 5.49981 36.13 5.65981 36.31C5.81981 36.49 5.87982 36.77 6.04982 36.94C6.21982 37.11 6.43976 37.23 6.60976 37.4C6.77976 37.57 6.91975 37.78 7.09975 37.94C7.27975 38.1 7.69979 37.97 7.88979 38.13C8.07979 38.29 8.03975 38.7 8.22975 38.85C8.41975 39 8.68978 39.04 8.87978 39.18C9.06978 39.32 9.02975 39.8 9.22975 39.94C9.42975 40.08 9.62973 40.22 9.82973 40.36C10.0297 40.5 10.4498 40.29 10.6598 40.41C10.8698 40.53 10.9398 40.88 11.1498 41C11.3598 41.12 11.7898 40.86 11.9998 40.97C12.2098 41.08 12.2798 41.46 12.4898 41.57C12.6998 41.68 12.9598 41.7 13.1798 41.81C13.3998 41.92 13.4997 42.24 13.7197 42.34C13.9397 42.44 14.3198 42.19 14.5398 42.29C14.7598 42.39 14.7698 42.94 14.9898 43.04C15.2098 43.14 15.5598 42.92 15.7898 43.01C16.0198 43.1 16.1398 43.42 16.3698 43.51C16.5998 43.6 16.7698 43.81 16.9998 43.9C17.2298 43.99 17.4697 44.04 17.6897 44.12C17.9097 44.2 18.1998 44.13 18.4298 44.21C18.6598 44.29 18.8798 44.39 19.1098 44.46C19.3398 44.53 19.6698 44.29 19.8998 44.36C20.1298 44.43 20.3898 44.38 20.6198 44.44C20.8498 44.5 20.9198 45.16 21.1498 45.22C21.3798 45.28 21.6898 45.08 21.9198 45.14C22.1498 45.2 22.3298 45.51 22.5598 45.56C22.7898 45.61 23.0798 45.48 23.3098 45.53C23.5398 45.58 23.8198 45.45 24.0598 45.5C24.2998 45.55 24.4497 45.98 24.6897 46.03C24.9297 46.08 25.1698 46.13 25.3998 46.18C25.6298 46.23 25.9298 45.94 26.1698 45.99C26.4098 46.04 26.6898 45.8 26.9198 45.84C27.1498 45.88 27.2998 46.56 27.5298 46.59C27.7598 46.62 28.0897 46.05 28.3297 46.08C28.5697 46.11 28.7998 46.23 29.0298 46.26C29.2598 46.29 29.4697 46.65 29.7097 46.67C29.9497 46.69 30.1798 46.81 30.4198 46.83C30.6598 46.85 30.9198 46.68 31.1598 46.7C31.3998 46.72 31.6498 46.55 31.8898 46.57C32.1298 46.59 32.3497 46.92 32.5897 46.93C32.8297 46.94 33.0897 46.53 33.3297 46.54C33.5697 46.55 33.8098 46.66 34.0398 46.66C34.2698 46.66 34.5098 46.9 34.7398 46.9C34.9798 46.9 35.2197 47.09 35.4597 47.09C35.6997 47.09 35.9497 46.49 36.1897 46.49C36.4297 46.49 36.6698 46.71 36.9098 46.72C37.1498 46.73 37.3898 46.83 37.6298 46.83C37.8698 46.83 38.1097 46.87 38.3498 46.88C38.5898 46.89 38.8297 47.01 39.0697 47.01C39.3097 47.01 39.5498 47.04 39.7898 47.04C40.0298 47.04 40.2798 46.71 40.5198 46.72C40.7598 46.73 40.9998 46.97 41.2398 46.98C41.4798 46.99 41.7197 47.05 41.9597 47.05C42.1997 47.05 42.4398 47.07 42.6798 47.08C42.9198 47.09 43.1598 47.08 43.4098 47.08C43.6598 47.08 43.8998 46.94 44.1398 46.94C44.3798 46.94 44.6298 46.78 44.8698 46.78C45.1098 46.78 45.3497 46.92 45.5897 46.93C45.8297 46.94 46.0797 46.9 46.3197 46.9C46.5597 46.9 46.7998 46.97 47.0498 46.97C47.2998 46.97 47.5298 47.1 47.7798 47.1C48.0298 47.1 48.2698 47 48.5098 47C48.7498 47 48.9998 47.04 49.2398 47.05C49.4798 47.06 49.7197 47.14 49.9697 47.15C50.2197 47.16 50.4597 46.99 50.6997 46.99C50.9397 46.99 51.1798 47.26 51.4198 47.27C51.6598 47.28 51.8998 47.4 52.1498 47.41C52.3998 47.42 52.6398 47.07 52.8898 47.08C53.1398 47.09 53.3698 47.25 53.6198 47.26C53.8698 47.27 54.0997 47.43 54.3397 47.44C54.5797 47.45 54.8397 47.05 55.0797 47.05C55.3197 47.05 55.5598 47.36 55.7998 47.37C56.0398 47.38 56.2798 47.49 56.5298 47.5C56.7798 47.51 57.0198 47.2 57.2698 47.2C57.5198 47.2 57.7598 47.26 57.9998 47.26C58.2398 47.26 58.4797 47.55 58.7197 47.55C58.9597 47.55 59.2197 47.09 59.4597 47.1C59.6997 47.11 59.9398 47.32 60.1798 47.33C60.4198 47.34 60.6698 47.06 60.9198 47.07C61.1698 47.08 61.3998 47.31 61.6398 47.32C61.8798 47.33 62.1198 47.39 62.3698 47.4C62.6198 47.41 62.8497 47.7 63.0897 47.7C63.3297 47.7 63.5897 47.1 63.8297 47.11C64.0697 47.12 64.2998 47.74 64.5398 47.75C64.7798 47.76 65.0298 47.56 65.2698 47.57C65.5098 47.58 65.7698 47.27 65.9998 47.28C66.2298 47.29 66.4797 47.35 66.7197 47.36C66.9597 47.37 67.1898 47.7 67.4298 47.71C67.6698 47.72 67.9098 47.76 68.1498 47.77C68.3898 47.78 68.6498 47.29 68.8898 47.3C69.1298 47.31 69.3597 47.61 69.5997 47.62C69.8397 47.63 70.0997 47.3 70.3297 47.31C70.5597 47.32 70.7998 47.58 71.0398 47.59C71.2798 47.6 71.5198 47.64 71.7598 47.65C71.9998 47.66 72.2297 48.06 72.4597 48.07C72.7097 48.08 72.9498 48.02 73.1798 48.03C73.4298 48.04 73.6798 47.87 73.9098 47.88C74.1598 47.89 74.4098 47.66 74.6398 47.67C74.8898 47.68 75.1398 47.66 75.3598 47.67C75.6098 47.69 75.8098 48.26 76.0398 48.28C76.2998 48.3 76.5398 48.31 76.7498 48.33C77.0198 48.35 77.4598 48.3 77.6598 48.33C77.4198 48.33 76.9998 48.01 76.7698 48.02C76.5398 48.03 76.2898 48.12 76.0598 48.14C75.8298 48.16 75.5597 47.98 75.3197 48.01C75.0797 48.04 74.8397 48.05 74.5997 48.09C74.3597 48.13 74.1697 48.5 73.9397 48.54C73.7097 48.58 73.4197 48.37 73.1897 48.42C72.9597 48.47 72.7798 48.81 72.5398 48.86C72.2998 48.91 71.9798 48.59 71.7498 48.65C71.5198 48.71 71.3598 49.06 71.1298 49.13C70.8998 49.2 70.6098 49.07 70.3798 49.14C70.1498 49.21 69.9197 49.29 69.6897 49.37C69.4597 49.45 69.3798 49.91 69.1598 50C68.9398 50.09 68.6697 50.07 68.4597 50.16C68.2497 50.25 67.8997 50.09 67.6897 50.19C67.4797 50.29 67.4598 50.8 67.2498 50.91C67.0398 51.02 66.6898 50.87 66.4798 50.99C66.2698 51.11 66.1898 51.43 65.9798 51.56C65.7698 51.69 65.4798 51.65 65.2798 51.78C65.0798 51.91 65.0098 52.22 64.8098 52.36C64.6098 52.5 64.2597 52.42 64.0697 52.56C63.8797 52.7 63.6597 52.81 63.4697 52.96C63.2797 53.11 63.1197 53.29 62.9397 53.45C62.7597 53.61 62.4098 53.59 62.2398 53.75C62.0698 53.91 61.8597 54.06 61.6897 54.23C61.5197 54.4 61.5298 54.75 61.3698 54.92C61.2098 55.09 61.1998 55.41 61.0398 55.59C60.8798 55.77 60.5398 55.79 60.3898 55.98C60.2398 56.17 59.8998 56.21 59.7498 56.4C59.5998 56.59 59.5198 56.84 59.3798 57.03C59.2398 57.22 59.5498 57.73 59.4198 57.93C59.2898 58.13 58.9198 58.18 58.7998 58.38C58.6798 58.58 58.5897 58.81 58.4697 59.02C58.3497 59.23 58.3898 59.52 58.2798 59.73C58.1698 59.94 58.0298 60.13 57.9298 60.35C57.8298 60.57 57.3898 60.62 57.2898 60.84C57.1898 61.06 57.3598 61.39 57.2598 61.61C57.1598 61.83 57.3098 62.14 57.2298 62.36C57.1498 62.58 56.4698 62.59 56.3898 62.82C56.3098 63.05 56.4698 63.35 56.3898 63.58C56.3098 63.81 56.3498 64.07 56.2898 64.3C56.2298 64.53 56.3698 64.81 56.3098 65.04C56.2498 65.27 55.8198 65.42 55.7698 65.65C55.7198 65.88 55.6798 66.12 55.6398 66.36C55.5998 66.6 55.6998 66.86 55.6598 67.09C55.6198 67.32 55.4697 67.55 55.4397 67.78C55.4097 68.01 55.6598 68.28 55.6398 68.52C55.6198 68.76 55.1998 68.96 55.1798 69.2C55.1598 69.44 55.4797 69.7 55.4697 69.94C55.4597 70.18 55.1898 70.41 55.1798 70.65C55.1698 70.89 55.0398 71.14 55.0398 71.37C55.0398 71.6 55.0398 71.86 55.0498 72.1C55.0598 72.34 55.1698 72.58 55.1798 72.82C55.1898 73.06 55.2398 73.3 55.2598 73.54C55.2798 73.78 55.3398 74.02 55.3698 74.25C55.3998 74.48 55.7897 74.67 55.8297 74.91C55.8697 75.15 55.9398 75.37 55.9798 75.6C56.0198 75.83 56.0698 76.06 56.1298 76.29C56.1898 76.52 56.2697 76.74 56.3297 76.97C56.3897 77.2 56.2998 77.47 56.3598 77.7C56.4198 77.93 56.1798 78.26 56.2598 78.49C56.3398 78.72 56.6698 78.85 56.7598 79.07C56.8498 79.29 56.7598 79.58 56.8598 79.8C56.9598 80.02 57.2998 80.13 57.3998 80.35C57.4998 80.57 57.6097 80.77 57.7097 80.99C57.8097 81.21 58.0997 81.32 58.2097 81.53C58.3197 81.74 58.0198 82.17 58.1398 82.38C58.2598 82.59 58.4998 82.73 58.6198 82.93C58.7398 83.13 58.8798 83.33 59.0098 83.53C59.1398 83.73 59.4998 83.77 59.6298 83.97C59.7598 84.17 59.6498 84.53 59.7898 84.72C59.9298 84.91 59.8097 85.3 59.9497 85.49C60.0897 85.68 60.4898 85.68 60.6398 85.86C60.7898 86.04 61.0798 86.11 61.2298 86.29C61.3798 86.47 61.3798 86.79 61.5398 86.96C61.6998 87.13 61.7598 87.41 61.9198 87.58C62.0798 87.75 62.3198 87.86 62.4798 88.03C62.6398 88.2 62.9197 88.27 63.0897 88.43C63.2597 88.59 63.5598 88.62 63.7298 88.78C63.8998 88.94 64.0498 89.13 64.2298 89.29C64.4098 89.45 64.3798 89.84 64.5598 90C64.7398 90.16 64.9097 90.33 65.0897 90.48C65.2697 90.63 65.5197 90.7 65.7097 90.84C65.8997 90.98 66.2998 90.84 66.4998 90.98C66.6998 91.12 66.5798 91.68 66.7798 91.81C66.9798 91.94 67.4498 91.67 67.6498 91.81C67.8498 91.95 67.7597 92.51 67.9597 92.64C68.1597 92.77 68.6397 92.45 68.8397 92.57C69.0397 92.69 69.0798 93.09 69.2898 93.21C69.4998 93.33 69.8897 93.11 70.0997 93.22C70.3097 93.33 70.2998 93.86 70.5098 93.97C70.7198 94.08 70.8998 94.25 71.1198 94.36C71.3398 94.47 71.6297 94.4 71.8497 94.5C72.0697 94.6 72.3298 94.59 72.5498 94.68C72.7698 94.77 72.9897 94.85 73.2097 94.94C73.4297 95.03 73.6898 95.01 73.9098 95.1C74.1298 95.19 74.3298 95.32 74.5498 95.4C74.7698 95.48 74.9198 95.76 75.1498 95.84C75.3798 95.92 75.5598 96.12 75.7898 96.19C76.0198 96.26 76.2197 96.41 76.4497 96.48C76.6797 96.55 77.0098 96.27 77.2398 96.34C77.4698 96.41 77.5798 96.88 77.8098 96.94C78.0398 97 78.2898 97.02 78.5198 97.07C78.7498 97.12 78.9797 97.23 79.2097 97.29C79.4397 97.35 79.7297 97.19 79.9597 97.24C80.1897 97.29 80.4897 97.05 80.7197 97.1C80.9497 97.15 81.1298 97.45 81.3698 97.49C81.6098 97.53 81.8497 97.53 82.0797 97.57C82.3097 97.61 82.5897 97.38 82.8297 97.42C83.0697 97.46 83.2097 98.05 83.4497 98.09C83.6897 98.13 83.9497 97.97 84.1897 98C84.4297 98.03 84.6998 97.81 84.9298 97.84C85.1598 97.87 85.3698 98.14 85.6098 98.16C85.8498 98.18 86.1197 97.91 86.3497 97.93C86.5798 97.95 86.7898 98.32 87.0298 98.35C87.2698 98.38 87.5198 98.16 87.7598 98.18C87.9998 98.2 88.1997 98.64 88.4397 98.66C88.6797 98.68 88.9497 98.23 89.1897 98.25C89.4297 98.27 89.6598 98.36 89.8998 98.37C90.1398 98.38 90.3697 98.55 90.5997 98.56C90.8298 98.57 91.0797 98.5 91.3197 98.51C91.5597 98.52 91.7998 98.49 92.0398 98.5C92.2798 98.51 92.5098 98.84 92.7398 98.85C92.9698 98.86 93.2197 98.73 93.4597 98.74C93.6997 98.75 93.9298 98.99 94.1698 99C94.4098 99.01 94.6498 98.55 94.8898 98.55C95.1298 98.55 95.3697 98.63 95.5997 98.63C95.8298 98.63 96.0798 98.97 96.3098 98.97C96.5398 98.97 96.7898 98.76 97.0298 98.76C97.2698 98.76 97.5098 98.41 97.7398 98.41C97.9698 98.41 98.2197 98.86 98.4597 98.86C98.6997 98.86 98.9298 98.57 99.1698 98.56C99.4098 98.55 99.6498 98.57 99.8898 98.56C100.13 98.55 100.37 98.58 100.61 98.58C100.85 98.58 101.09 98.59 101.32 98.58C101.55 98.57 101.79 98.28 102.03 98.28C102.27 98.28 102.51 98.89 102.75 98.89C103.11 98.89 103.11 98.35 103.47 98.35C103.83 98.35 103.83 98.51 104.19 98.51C104.55 98.51 104.55 98.94 104.91 98.94C105.27 98.94 105.27 98.65 105.63 98.65C105.99 98.65 105.99 98.72 106.35 98.72C106.71 98.72 106.71 98.79 107.07 98.79C107.43 98.79 107.43 98.95 107.79 98.95C108.15 98.95 108.15 98.95 108.51 98.95C108.87 98.95 108.87 98.93 109.23 98.93C109.59 98.93 109.59 98.91 109.95 98.91C110.31 98.91 110.31 98.39 110.67 98.39C111.03 98.39 111.03 98.89 111.39 98.89C111.75 98.89 111.75 98.57 112.11 98.57C112.47 98.57 112.47 98.93 112.83 98.93C113.19 98.93 113.19 98.31 113.55 98.31C113.91 98.31 113.91 98.44 114.27 98.44C114.63 98.44 114.63 98.82 114.99 98.82C115.35 98.82 115.35 98.57 115.71 98.57C116.07 98.57 116.07 98.83 116.43 98.83C116.79 98.83 116.79 98.31 117.15 98.31C117.51 98.31 117.51 98.42 117.86 98.42C118.21 98.42 118.22 98.43 118.57 98.43C118.92 98.43 118.93 98.45 119.29 98.45C119.65 98.45 119.65 98.43 120.01 98.43C120.37 98.43 120.37 98.72 120.73 98.72C121.09 98.72 121.09 98.55 121.45 98.55C121.81 98.55 121.81 98.91 122.17 98.91C122.53 98.91 122.53 98.33 122.89 98.33C123.25 98.33 123.25 98.61 123.61 98.61C123.97 98.61 123.97 98.61 124.33 98.61C124.69 98.61 124.69 98.83 125.05 98.84C125.41 98.85 125.41 98.43 125.77 98.44C126.13 98.45 126.13 99.02 126.49 99.02C126.85 99.02 126.85 98.98 127.21 98.98C127.57 98.98 127.57 98.84 127.93 98.84C128.29 98.84 128.29 98.87 128.65 98.87C129.01 98.87 129.01 98.66 129.37 98.66C129.73 98.66 129.73 98.68 130.09 98.68C130.45 98.68 130.45 98.61 130.81 98.61C131.17 98.61 131.17 98.48 131.53 98.49C131.89 98.5 131.89 98.79 132.25 98.79C132.61 98.79 132.61 98.63 132.97 98.63C133.33 98.63 133.33 98.71 133.69 98.71C134.05 98.71 134.05 98.67 134.41 98.67C134.77 98.67 134.77 98.98 135.13 98.98C135.49 98.98 135.49 98.98 135.85 98.98C136.21 98.98 136.21 98.83 136.57 98.83C136.93 98.83 136.93 98.78 137.29 98.78C137.65 98.78 137.65 98.38 138.01 98.39C138.37 98.4 138.37 98.45 138.73 98.45C139.09 98.45 139.09 99.05 139.45 99.05C139.81 99.05 139.81 99.03 140.17 99.03C140.53 99.03 140.53 98.57 140.89 98.57C141.25 98.57 141.25 99.04 141.61 99.04C141.97 99.04 141.97 98.43 142.33 98.43C142.69 98.43 142.69 98.87 143.05 98.87C143.41 98.87 143.41 99.04 143.77 99.05C144.13 99.06 144.13 98.9 144.49 98.9C144.85 98.9 144.85 99.09 145.21 99.09C145.57 99.09 145.57 98.47 145.93 98.47C146.29 98.47 146.29 98.67 146.65 98.67C147.01 98.67 147.01 98.45 147.37 98.45C147.73 98.45 147.73 98.92 148.09 98.92C148.45 98.92 148.45 99.04 148.81 99.04C149.17 99.04 149.17 98.77 149.53 98.77C149.89 98.77 149.89 98.93 150.25 98.93C150.61 98.93 150.61 99.04 150.97 99.04C151.33 99.04 151.33 98.91 151.69 98.91C152.05 98.91 152.05 98.74 152.41 98.74C152.77 98.74 152.77 98.95 153.13 98.95C153.49 98.95 153.49 98.84 153.85 98.84C154.21 98.84 154.21 98.75 154.57 98.75C154.93 98.75 154.93 98.92 155.29 98.92C155.65 98.92 155.65 98.93 156.01 98.93C156.37 98.93 156.37 99.04 156.73 99.04C157.09 99.04 157.09 98.9 157.45 98.9C157.81 98.9 157.81 98.72 158.17 98.72C158.53 98.72 158.53 98.92 158.9 98.92C159.27 98.92 159.26 99.06 159.62 99.07C159.98 99.08 159.98 98.58 160.35 98.59C160.72 98.6 160.71 98.56 161.07 98.56C161.43 98.56 161.43 98.77 161.8 98.77C162.17 98.77 162.16 98.44 162.53 98.44C162.9 98.44 162.89 98.89 163.26 98.89C163.63 98.89 163.85 99.17 164.11 98.91C164.37 98.65 163.93 98.42 163.93 98.06C163.93 97.7 164.29 97.71 164.3 97.35C164.31 96.99 164.3 96.99 164.31 96.63C164.32 96.27 163.88 96.26 163.89 95.91C163.9 95.56 164.37 95.56 164.37 95.2C164.37 94.84 163.94 94.83 163.95 94.48C163.96 94.13 164.42 94.13 164.42 93.77C164.42 93.41 164.04 93.4 164.04 93.05C164.04 92.7 163.79 92.69 163.8 92.33C163.81 91.97 163.93 91.97 163.94 91.62C163.95 91.27 164.4 91.27 164.41 90.91C164.42 90.55 164.41 90.55 164.41 90.19C164.41 89.83 164.01 89.82 164.02 89.46C164.03 89.1 164.37 89.11 164.37 88.75C164.37 88.39 163.92 88.38 163.93 88.02C163.94 87.66 164.32 87.67 164.33 87.31C164.34 86.95 163.85 86.94 163.86 86.58C163.87 86.22 164.13 86.22 164.14 85.87C164.15 85.52 164.02 85.51 164.03 85.15C164.04 84.79 163.9 84.79 163.91 84.43C163.92 84.07 164.22 84.08 164.23 83.72C164.24 83.36 164.58 83.37 164.59 83.01C164.6 82.65 164.17 82.64 164.18 82.28C164.19 81.92 164.36 81.92 164.36 81.56C164.36 81.2 164.14 81.2 164.15 80.84C164.16 80.48 164.48 80.49 164.49 80.13C164.5 79.77 164.61 79.77 164.62 79.41C164.63 79.05 164.32 79.05 164.32 78.69C164.32 78.33 164.65 78.34 164.65 77.98C164.65 77.62 164.47 77.62 164.48 77.26C164.49 76.9 164.53 76.9 164.54 76.54C164.55 76.18 164.39 76.18 164.4 75.82C164.41 75.46 164.55 75.46 164.56 75.11C164.57 74.76 164.6 74.75 164.61 74.39C164.62 74.03 164.68 74.03 164.68 73.67C164.68 73.31 164.18 73.3 164.18 72.94C164.18 72.58 164.16 72.58 164.18 72.22C164.2 71.86 164.53 71.87 164.54 71.51C164.55 71.15 164.71 71.15 164.72 70.79C164.73 70.43 164.56 70.43 164.56 70.07C164.56 69.71 164.53 69.71 164.54 69.35C164.55 68.99 164.89 69 164.9 68.64C164.91 68.28 164.9 68.28 164.9 67.92C164.9 67.56 164.52 67.55 164.53 67.19C164.54 66.83 164.88 66.84 164.88 66.48C164.88 66.12 164.68 66.12 164.69 65.76C164.7 65.4 164.52 65.4 164.53 65.04C164.54 64.68 164.87 64.69 164.88 64.33C164.89 63.97 164.97 63.97 164.97 63.61C164.97 63.25 164.93 63.25 164.93 62.89C164.93 62.53 164.9 62.53 164.91 62.17C164.92 61.81 164.69 61.81 164.7 61.45C164.71 61.09 164.99 61.1 165 60.74C165.01 60.38 164.52 60.37 164.53 60.01C164.54 59.65 164.86 59.66 164.87 59.3C164.88 58.94 164.78 58.94 164.79 58.58C164.8 58.22 164.87 58.22 164.88 57.86C164.89 57.5 164.73 57.5 164.74 57.14C164.75 56.78 164.7 56.78 164.71 56.42C164.72 56.06 164.58 56.06 164.58 55.7C164.58 55.34 164.81 55.34 164.82 54.98C164.83 54.62 164.82 54.62 164.82 54.26C164.82 53.9 164.57 53.9 164.58 53.53C164.59 53.16 165.18 53.18 165.18 52.82C165.18 52.46 164.61 52.45 164.61 52.09C164.61 51.73 165.15 51.74 165.15 51.38C165.15 51.02 164.8 51.01 164.81 50.65C164.82 50.29 165.19 50.3 165.2 49.94C165.21 49.58 165.1 49.58 165.11 49.22C165.12 48.86 164.66 48.85 164.67 48.5C164.68 48.15 164.61 48.14 164.62 47.78C164.63 47.42 164.77 47.42 164.78 47.07C164.79 46.72 165.07 46.72 165.07 46.36C165.07 46 164.66 45.99 164.66 45.63C164.66 45.27 164.64 45.27 164.66 44.91C164.68 44.55 165.12 44.56 165.12 44.2C165.12 43.84 165.12 43.84 165.12 43.48C165.12 43.12 165.03 43.12 165.04 42.76C165.05 42.4 164.87 42.4 164.87 42.04C164.87 41.68 164.92 41.68 164.93 41.32C164.94 40.96 165.19 40.97 165.2 40.61C165.21 40.25 165.26 40.25 165.27 39.89C165.28 39.53 165.41 39.53 165.42 39.17C165.43 38.81 165.09 38.81 165.09 38.45C165.09 38.09 165.03 38.09 165.04 37.73C165.05 37.37 165.01 37.37 165.02 37.01C165.03 36.65 165.31 36.66 165.32 36.3C165.33 35.94 165.1 35.94 165.11 35.58C165.12 35.22 165.23 35.22 165.24 34.86C165.25 34.5 164.9 34.49 164.9 34.14C164.9 33.79 165.4 33.79 165.41 33.43C165.42 33.07 164.98 33.06 164.99 32.7C165 32.34 165.19 32.34 165.2 31.98C165.21 31.62 165.1 31.62 165.11 31.26C165.12 30.9 165.38 30.9 165.39 30.54C165.4 30.18 165.3 30.18 165.31 29.82C165.32 29.46 165.33 29.46 165.34 29.1C165.35 28.74 165.18 28.74 165.18 28.38C165.18 28.02 165.5 28.03 165.51 27.67C165.52 27.31 165.45 27.31 165.45 26.95C165.45 26.59 165.54 26.59 165.55 26.23C165.56 25.87 165.47 25.87 165.47 25.51C165.47 25.15 165.03 25.14 165.03 24.78C165.03 24.42 165.68 24.43 165.69 24.07C165.7 23.71 165.24 23.7 165.25 23.34C165.26 22.98 165.12 22.98 165.13 22.62C165.14 22.26 165.11 22.26 165.12 21.9C165.13 21.54 165.35 21.54 165.36 21.18C165.37 20.82 165.47 20.82 165.48 20.46C165.49 20.1 165.58 20.1 165.59 19.74C165.6 19.38 165.35 19.37 165.36 19.01C165.37 18.65 165.34 18.65 165.35 18.29C165.36 17.93 165.6 17.93 165.6 17.57C165.6 17.21 165.25 17.2 165.26 16.84C165.27 16.48 165.33 16.48 165.33 16.12C165.33 15.76 165.42 15.76 165.42 15.4C165.42 15.04 165.82 15.05 165.82 14.69C165.82 14.33 165.72 14.33 165.73 13.97C165.74 13.61 165.87 13.61 165.88 13.25C165.89 12.89 165.78 12.89 165.79 12.52C165.8 12.15 165.81 12.16 165.82 11.8C165.83 11.44 165.89 11.44 165.9 11.08C165.91 10.72 165.33 10.71 165.34 10.35C165.35 9.98999 165.44 9.98999 165.44 9.62999C165.44 9.26999 165.69 9.26999 165.7 8.90999C165.71 8.54999 165.77 8.54999 165.78 8.18999C165.79 7.82999 165.75 7.82999 165.76 7.45999C165.77 7.08999 165.47 7.08999 165.47 6.72999C165.47 6.36999 165.38 6.36999 165.39 5.99999C165.4 5.62999 165.61 5.63999 165.61 5.27999C165.61 4.91999 165.49 4.90999 165.5 4.54999C165.51 4.18999 165.65 4.18999 165.66 3.81999C165.67 3.44999 165.71 3.45999 165.82 3.10999C165.95 2.66999 166.14 2.50999 165.88 2.24999L165.75 2.10999Z" fill="white"/>
</svg>
