<svg width="135" height="39" viewBox="0 0 135 39" fill="none" xmlns="http://www.w3.org/2000/svg">
<path d="M42.5002 18.65C42.3302 18.63 42.2202 18.97 41.9302 18.96C41.7202 18.96 41.4902 18.61 41.2302 18.61C41.0102 18.61 40.7802 18.92 40.5302 18.93C40.3002 18.93 40.0602 18.54 39.8202 18.55C39.5802 18.56 39.3602 18.66 39.1202 18.67C38.8802 18.68 38.6502 18.75 38.4202 18.76C38.1902 18.77 37.9602 19.18 37.7302 19.18C37.5002 19.18 37.2602 19.29 37.0302 19.3C36.7902 19.3 36.5302 18.82 36.3102 18.82C36.0502 18.82 35.8202 18.92 35.6102 18.92C35.3302 18.92 35.0902 19.3 34.9202 19.3C34.6702 19.3 34.4302 19.37 34.1802 19.36C33.9302 19.35 33.6902 18.9 33.4502 18.9C33.2102 18.9 32.9602 19.27 32.7102 19.27C32.4602 19.27 32.2202 19.04 31.9802 19.04C31.7402 19.04 31.4902 19.28 31.2402 19.27C30.9902 19.26 30.7502 18.92 30.5102 18.91C30.2702 18.9 30.0202 19.09 29.7702 19.09C29.5202 19.09 29.2802 18.83 29.0402 18.83C28.8002 18.83 28.5502 18.83 28.3002 18.83C28.0502 18.83 27.8102 18.98 27.5602 18.97C27.3102 18.96 27.0702 18.96 26.8202 18.96C26.5702 18.96 26.3302 18.94 26.0902 18.94C25.8502 18.94 25.6102 18.6 25.3602 18.6C25.1102 18.6 24.8702 18.6 24.6302 18.6C24.3902 18.6 24.1302 19.24 23.8902 19.23C23.6502 19.22 23.4102 18.88 23.1602 18.87C22.9102 18.86 22.6702 18.96 22.4202 18.95C22.1702 18.94 21.9402 18.56 21.6902 18.55C21.4402 18.54 21.2002 18.55 20.9602 18.54C20.7202 18.53 20.4702 18.52 20.2302 18.51C19.9902 18.5 19.7402 18.73 19.4902 18.73C19.2402 18.73 19.0002 18.93 18.7502 18.93C18.5002 18.93 18.2602 18.86 18.0202 18.86C17.7802 18.86 17.5302 18.9 17.2902 18.89C17.0502 18.88 16.8102 18.51 16.5602 18.51C16.3102 18.51 16.0602 18.91 15.8202 18.9C15.5802 18.89 15.3302 19.01 15.0802 19C14.8302 18.99 14.6002 18.7 14.3502 18.69C14.1002 18.68 13.8602 18.69 13.6202 18.69C13.3802 18.69 13.1402 18.38 12.8902 18.37C12.6402 18.36 12.3902 18.86 12.1502 18.86C11.9102 18.86 11.6602 18.62 11.4202 18.62C11.1802 18.62 10.9302 18.38 10.6902 18.38C10.4602 18.38 10.2202 18.72 9.97017 18.71C9.72017 18.7 9.54016 18.36 9.30016 18.33C9.06016 18.3 8.84015 18.29 8.61015 18.25C8.38015 18.21 8.18018 18.06 7.95018 18C7.72018 17.94 7.32016 18.55 7.09016 18.48C6.86016 18.41 6.74018 18 6.51018 17.92C6.28018 17.84 6.11018 17.65 5.89018 17.56C5.67018 17.47 5.47018 17.36 5.26018 17.25C5.05018 17.14 4.62017 17.44 4.41017 17.33C4.20017 17.22 4.13016 16.86 3.93016 16.73C3.73016 16.6 3.37016 16.68 3.18016 16.54C2.99016 16.4 2.92017 16.09 2.75017 15.93C2.58017 15.77 2.61018 15.4 2.45018 15.23C2.29018 15.06 2.24016 14.82 2.09016 14.63C1.94016 14.44 1.57017 14.43 1.44017 14.23C1.31017 14.03 1.29017 13.78 1.19017 13.56C1.09017 13.34 0.620167 13.29 0.530167 13.06C0.440167 12.83 0.580178 12.53 0.510178 12.3C0.440178 12.07 0.660153 11.79 0.610153 11.55C0.560153 11.31 0.0501569 11.15 0.0201569 10.91C-0.00984314 10.67 0.160162 10.41 0.150162 10.17C0.150162 9.92001 0.150181 9.66003 0.170181 9.41003C0.190181 9.16003 0.530175 8.95002 0.570175 8.71002C0.610175 8.47002 0.620161 8.23002 0.680161 7.99002C0.740161 7.75002 0.770174 7.51002 0.850174 7.27002C0.930174 7.03002 1.18017 6.88003 1.28017 6.66003C1.38017 6.44003 0.940165 5.93002 1.06017 5.71002C1.18017 5.49002 1.58016 5.42003 1.71016 5.22003C1.84016 5.02003 2.09017 4.88003 2.25017 4.69003C2.41017 4.50003 2.36017 4.11002 2.53017 3.93002C2.70017 3.75002 3.11016 3.81002 3.30016 3.65002C3.49016 3.49002 3.64016 3.29001 3.84016 3.14001C4.04016 2.99001 4.34016 3.01002 4.55016 2.90002C4.76016 2.79002 4.93017 2.64002 5.13017 2.55002C5.33017 2.46002 5.61015 2.55003 5.83015 2.47003C6.05015 2.39003 6.18016 2.10001 6.40016 2.04001C6.62016 1.98001 6.88017 2.09001 7.10017 2.04001C7.32017 1.99001 7.53018 1.93002 7.76018 1.90002C7.99018 1.87002 8.21017 1.88002 8.44017 1.86002C8.67017 1.84002 8.87017 1.59002 9.10017 1.58002C9.33017 1.57002 9.55017 1.40001 9.78017 1.39001C10.0102 1.38001 10.2402 1.44003 10.4802 1.44003C10.7202 1.44003 10.9402 1.13004 11.1702 1.13004C11.4002 1.13004 11.6302 1.23001 11.8602 1.23001C12.1002 1.23001 12.3402 1.46002 12.5802 1.46002C12.8202 1.46002 13.0602 1.57001 13.3002 1.57001C13.5402 1.57001 13.7802 1.20001 14.0202 1.20001C14.2602 1.20001 14.5002 1.57001 14.7402 1.57001C14.9802 1.57001 15.2202 1.14001 15.4602 1.14001C15.7002 1.14001 15.9402 1.10001 16.1802 1.10001C16.4202 1.10001 16.6602 1.07001 16.9002 1.07001C17.1402 1.07001 17.3802 1.60001 17.6202 1.60001C17.8602 1.60001 18.1002 1.26001 18.3402 1.26001C18.5802 1.26001 18.8202 1.14001 19.0602 1.14001C19.3002 1.14001 19.5402 1.68002 19.7802 1.68002C20.0202 1.68002 20.2602 1.16003 20.5002 1.16003C20.7402 1.16003 20.9802 1.35001 21.2202 1.35001C21.4602 1.35001 21.7002 1.52002 21.9402 1.52002C22.1802 1.52002 22.4202 1.63004 22.6602 1.63004C22.9002 1.63004 23.1402 1.17001 23.3802 1.17001C23.6202 1.17001 23.8602 1.46002 24.1002 1.46002C24.3402 1.46002 24.5802 1.27002 24.8202 1.27002C25.0602 1.27002 25.3002 1.11002 25.5402 1.11002C25.7802 1.11002 26.0202 1.60001 26.2602 1.60001C26.5002 1.60001 26.7402 1.11002 26.9802 1.11002C27.2202 1.11002 27.4602 1.05002 27.7002 1.05002C27.9402 1.05002 28.1802 1.49002 28.4202 1.49002C28.6602 1.49002 28.9002 1.12003 29.1402 1.12003C29.3802 1.12003 29.6202 1.61002 29.8602 1.61002C30.1002 1.61002 30.3402 1.23001 30.5802 1.23001C30.8202 1.23001 31.0602 1.40002 31.3002 1.40002C31.5402 1.40002 31.7802 1.18002 32.0202 1.18002C32.2602 1.18002 32.5002 1.18002 32.7402 1.18002C32.9802 1.18002 33.2202 1.25002 33.4602 1.24002C33.7002 1.23002 33.9402 1.34003 34.1802 1.34003C34.4202 1.34003 34.6602 1.03003 34.9002 1.03003C35.1402 1.03003 35.3802 1.24002 35.6202 1.24002C35.8602 1.24002 36.1002 1.13004 36.3402 1.13004C36.5802 1.13004 36.8202 1.62003 37.0602 1.62003C37.3002 1.62003 37.5402 1.21002 37.7802 1.21002C38.0202 1.21002 38.2602 1.15002 38.5002 1.15002C38.7402 1.15002 38.9802 1.65002 39.2202 1.65002C39.4602 1.65002 39.7002 1.47003 39.9402 1.47003C40.1802 1.47003 40.4202 1.22003 40.6602 1.22003C40.9002 1.22003 41.1402 1.26001 41.3802 1.26001C41.6202 1.26001 41.8602 1.06003 42.1002 1.06003C42.3402 1.06003 42.5802 1.51001 42.8202 1.51001C43.0602 1.51001 43.3002 1.18002 43.5402 1.18002C43.7802 1.18002 44.0202 1.47003 44.2602 1.47003C44.5002 1.47003 44.7402 1.21002 44.9802 1.21002C45.2202 1.21002 45.4602 1.45001 45.7002 1.45001C45.9402 1.45001 46.1802 1.11002 46.4202 1.11002C46.6602 1.11002 46.9002 1.67001 47.1402 1.67001C47.3802 1.67001 47.6202 1.18002 47.8602 1.18002C48.1002 1.18002 48.3402 1.41003 48.5802 1.41003C48.8202 1.41003 49.0602 1.02002 49.3002 1.02002C49.5402 1.02002 49.7802 1.15002 50.0202 1.15002C50.2602 1.15002 50.5002 1.21002 50.7402 1.21002C50.9802 1.21002 51.2202 1.65002 51.4602 1.65002C51.7002 1.65002 51.9402 1.29001 52.1802 1.29001C52.4202 1.29001 52.6602 1.31003 52.9002 1.31003C53.1402 1.31003 53.3802 1.28003 53.6202 1.28003C53.8602 1.28003 54.1002 1.31003 54.3402 1.31003C54.5802 1.31003 54.8202 1.59003 55.0602 1.59003C55.3002 1.59003 55.5402 1.66003 55.7802 1.66003C56.0202 1.66003 56.2602 1.62003 56.5002 1.62003C56.7402 1.62003 56.9802 1.38004 57.2202 1.38004C57.4602 1.38004 57.7002 1.08002 57.9402 1.08002C58.1802 1.08002 58.4202 1.11002 58.6602 1.11002C58.9002 1.11002 59.1402 1.54001 59.3802 1.54001C59.6202 1.54001 59.8602 1.45001 60.1002 1.45001C60.3402 1.45001 60.5802 1.34003 60.8202 1.34003C61.0602 1.34003 61.3002 1.04001 61.5402 1.04001C61.7802 1.04001 62.0202 1.12003 62.2602 1.12003C62.5002 1.12003 62.7402 1.03003 62.9802 1.03003C63.2202 1.03003 63.4602 1.16003 63.7002 1.16003C63.9402 1.16003 64.1802 1.60001 64.4202 1.60001C64.6602 1.60001 64.9002 1.24002 65.1402 1.24002C65.3802 1.24002 65.6202 1.21002 65.8602 1.21002C66.1002 1.21002 66.3402 1.51001 66.5802 1.51001C66.8202 1.51001 67.0602 1.15002 67.3002 1.15002C67.5402 1.15002 67.7802 0.970032 68.0202 0.970032C68.2602 0.970032 68.5002 1.37003 68.7402 1.37003C68.9802 1.37003 69.2202 1.58002 69.4602 1.58002C69.7002 1.58002 69.9402 0.950012 70.1802 0.950012C70.4202 0.950012 70.6602 1.31003 70.9002 1.31003C71.1402 1.31003 71.3802 1.51001 71.6202 1.51001C71.8602 1.51001 72.1002 1.13004 72.3402 1.13004C72.5802 1.13004 72.8202 1.52002 73.0602 1.52002C73.3002 1.52002 73.5402 1.33002 73.7802 1.33002C74.0202 1.33002 74.2602 1.29001 74.5002 1.29001C74.7402 1.29001 74.9802 1.48001 75.2202 1.48001C75.4602 1.48001 75.7002 1.51003 75.9402 1.50003C76.1802 1.49003 76.4202 1.57001 76.6602 1.57001C76.9002 1.57001 77.1402 1.50003 77.3802 1.50003C77.6202 1.50003 77.8602 1.38004 78.1002 1.38004C78.3402 1.38004 78.5802 1.54001 78.8202 1.54001C79.0602 1.54001 79.3002 1.42001 79.5402 1.42001C79.7802 1.42001 80.0202 1.14001 80.2602 1.14001C80.5002 1.14001 80.7402 1.07001 80.9802 1.07001C81.2202 1.07001 81.4602 1.33002 81.7002 1.33002C81.9402 1.33002 82.1802 0.960022 82.4202 0.960022C82.6602 0.960022 82.9002 1.45001 83.1402 1.45001C83.3802 1.45001 83.6202 1.07001 83.8602 1.07001C84.1002 1.07001 84.3402 1.13004 84.5802 1.13004C84.8202 1.13004 85.0602 1.29001 85.3002 1.29001C85.5402 1.29001 85.7802 1.00003 86.0202 1.00003C86.2602 1.00003 86.5002 1.17001 86.7402 1.17001C86.9802 1.17001 87.2202 1.21002 87.4602 1.21002C87.7002 1.21002 87.9402 0.900024 88.1802 0.900024C88.4202 0.900024 88.6602 1.43002 88.9002 1.43002C89.1402 1.43002 89.3802 0.930023 89.6202 0.930023C89.8602 0.930023 90.1002 1.45001 90.3402 1.45001C90.5802 1.45001 90.8202 1.18002 91.0602 1.18002C91.3002 1.18002 91.5402 1.10001 91.7802 1.10001C92.0202 1.10001 92.2602 0.920013 92.5002 0.920013C92.7402 0.920013 92.9802 1.06003 93.2202 1.06003C93.4602 1.06003 93.7002 1.20002 93.9402 1.21002C94.1802 1.22002 94.4202 1.18003 94.6602 1.19003C94.9002 1.20003 95.1402 1.01001 95.3802 1.01001C95.6202 1.01001 95.8602 1.14001 96.1002 1.14001C96.3402 1.14001 96.5802 0.970011 96.8202 0.980011C97.0602 0.990011 97.2902 1.27002 97.5302 1.27002C97.7702 1.27002 98.0102 1.27002 98.2502 1.27002C98.4902 1.27002 98.7302 1.03003 98.9702 1.03003C99.2102 1.03003 99.4502 1.11003 99.6902 1.12003C99.9302 1.13003 100.16 1.41001 100.4 1.42001C100.64 1.43001 100.89 1.15002 101.13 1.15002C101.37 1.15002 101.6 1.65003 101.83 1.66003C102.06 1.67003 102.32 1.38001 102.56 1.39001C102.8 1.40001 103.05 1.10002 103.29 1.11002C103.53 1.12002 103.75 1.73001 103.99 1.73001C104.23 1.73001 104.49 1.21003 104.73 1.22003C104.97 1.23003 105.21 1.30003 105.45 1.31003C105.69 1.32003 105.93 1.38001 106.17 1.39001C106.41 1.40001 106.63 1.78001 106.87 1.79001C107.11 1.80001 107.37 1.32002 107.61 1.33002C107.85 1.34002 108.06 1.90001 108.3 1.92001C108.54 1.94001 108.8 1.44001 109.04 1.45001C109.28 1.46001 109.51 1.68001 109.75 1.70001C109.99 1.72001 110.21 1.97001 110.45 1.98001C110.68 1.99001 110.92 1.98003 111.16 2.00003C111.4 2.02003 111.62 2.14003 111.86 2.16003C112.1 2.18003 112.32 2.22003 112.56 2.25003C112.8 2.28003 113.07 1.98002 113.31 2.02002C113.55 2.06002 113.8 1.99001 114.04 2.04001C114.28 2.09001 114.45 2.42003 114.68 2.47003C114.91 2.52003 115.24 2.21002 115.47 2.27002C115.7 2.33002 115.92 2.46001 116.15 2.54001C116.38 2.62001 116.66 2.58001 116.88 2.67001C117.1 2.76001 117.1 3.34001 117.32 3.45001C117.54 3.56001 117.78 3.56002 117.99 3.68002C118.2 3.80002 118.41 3.89003 118.61 4.03003C118.81 4.17003 119.13 4.13003 119.32 4.28003C119.51 4.43003 119.74 4.57003 119.91 4.75003C120.08 4.93003 120.04 5.30002 120.19 5.49002C120.34 5.68002 120.55 5.82002 120.69 6.02002C120.83 6.22002 121.04 6.38001 121.16 6.60001C121.28 6.82001 121.22 7.11003 121.32 7.34003C121.42 7.57003 121.54 7.77001 121.61 8.01001C121.68 8.25001 121.79 8.46001 121.85 8.70001C121.91 8.94001 122.2 9.15001 122.23 9.39001C122.26 9.63001 122.1 9.91002 122.11 10.15C122.12 10.39 121.84 10.63 121.82 10.87C121.8 11.11 121.99 11.37 121.95 11.61C121.91 11.85 122.03 12.14 121.97 12.38C121.91 12.62 121.85 12.88 121.75 13.11C121.65 13.34 121.55 13.59 121.43 13.8C121.31 14.01 121.08 14.18 120.93 14.38C120.78 14.58 120.55 14.71 120.38 14.89C120.2 15.09 119.82 15.04 119.63 15.19C119.43 15.36 119.44 15.81 119.23 15.94C119.02 16.07 118.59 15.84 118.36 15.95C118.13 16.06 118.07 16.54 117.83 16.64C117.59 16.74 117.15 16.72 116.91 16.81C117.15 16.81 117.55 17.11 117.79 17.11C118.03 17.11 118.28 16.66 118.52 16.66C118.76 16.66 119 16.48 119.25 16.48C119.5 16.48 119.73 16.82 119.97 16.82C120.21 16.82 120.46 16.62 120.7 16.62C120.94 16.62 121.19 16.56 121.43 16.57C121.67 16.58 121.9 16.9 122.15 16.91C122.4 16.92 122.62 17.1 122.86 17.11C123.1 17.12 123.34 17.14 123.58 17.16C123.82 17.18 124.06 17.13 124.3 17.16C124.54 17.19 124.8 17 125.04 17.03C125.28 17.06 125.46 17.51 125.7 17.55C125.94 17.59 126.17 17.61 126.41 17.65C126.65 17.69 126.88 17.68 127.11 17.73C127.34 17.78 127.59 17.7 127.83 17.76C128.07 17.82 128.23 18.06 128.46 18.13C128.69 18.2 128.96 18.1 129.18 18.18C129.4 18.26 129.75 18.02 129.98 18.11C130.21 18.2 130.41 18.35 130.62 18.45C130.83 18.55 130.85 19 131.06 19.13C131.27 19.26 131.41 19.42 131.6 19.57C131.79 19.72 131.97 19.82 132.15 19.99C132.33 20.16 132.85 19.99 133.01 20.17C133.17 20.35 133.06 20.74 133.19 20.94C133.32 21.14 133.24 21.44 133.34 21.66C133.36 21.71 133.55 21.67 133.58 21.72C133.68 21.93 133.6 22.2 133.68 22.42C133.76 22.64 134.06 22.77 134.13 22.99C134.2 23.21 133.95 23.51 134.01 23.74C134.07 23.97 134.11 24.17 134.15 24.4C134.19 24.63 134.79 24.77 134.81 25.01C134.83 25.25 134.9 25.49 134.91 25.72C134.92 25.95 134.91 26.2 134.91 26.44C134.91 26.68 134.31 26.88 134.29 27.11C134.27 27.34 134.86 27.64 134.83 27.87C134.8 28.1 134.43 28.28 134.39 28.51C134.35 28.74 134.03 28.89 133.96 29.11C133.89 29.34 133.88 29.56 133.8 29.77C133.72 29.98 133.76 30.25 133.67 30.45C133.58 30.65 133.43 30.84 133.31 31.04C133.19 31.24 133.04 31.4 132.91 31.59C132.78 31.78 132.55 31.88 132.41 32.05C132.27 32.22 132.35 32.6 132.19 32.76C132.03 32.92 132.04 33.3 131.87 33.45C131.7 33.6 131.19 33.34 131 33.48C130.81 33.62 130.62 33.71 130.42 33.83C130.22 33.95 130.31 34.6 130.11 34.7C129.91 34.8 129.55 34.62 129.34 34.7C129.13 34.78 128.8 34.52 128.58 34.59C128.35 34.66 128.3 35.34 128.07 35.41C127.84 35.48 127.51 35.16 127.28 35.22C127.05 35.28 126.76 35.08 126.53 35.13C126.3 35.18 126.18 35.82 125.94 35.86C125.7 35.9 125.43 35.72 125.19 35.76C124.95 35.8 124.69 35.65 124.45 35.68C124.21 35.71 123.99 35.88 123.76 35.9C123.53 35.92 123.3 36.15 123.06 36.17C122.82 36.19 122.57 36.02 122.33 36.04C122.09 36.06 121.86 36.26 121.63 36.28C121.4 36.3 121.13 35.79 120.89 35.8C120.65 35.81 120.42 36.07 120.19 36.08C119.96 36.09 119.71 36.14 119.48 36.15C119.25 36.16 119 36.01 118.76 36.02C118.52 36.03 118.28 35.85 118.04 35.85C117.8 35.85 117.57 36.37 117.33 36.38C117.09 36.39 116.84 35.89 116.61 35.89C116.38 35.89 116.14 36.23 115.9 36.23C115.66 36.23 115.43 36.31 115.19 36.31C114.95 36.31 114.72 36.31 114.48 36.33C114.24 36.35 114 35.99 113.76 35.99C113.52 35.99 113.3 36.56 113.06 36.57C112.82 36.58 112.58 36.55 112.35 36.56C112.12 36.57 111.87 36.23 111.63 36.24C111.39 36.25 111.15 36.21 110.92 36.22C110.69 36.23 110.45 36.44 110.21 36.44C109.97 36.44 109.73 36.29 109.49 36.29C109.25 36.29 109.01 36.06 108.77 36.06C108.53 36.06 108.3 36.3 108.06 36.31C107.82 36.32 107.59 36.66 107.36 36.67C107.13 36.68 106.87 36.11 106.64 36.11C106.41 36.11 106.17 36.58 105.94 36.58C105.71 36.58 105.46 36.26 105.22 36.26C104.98 36.26 104.75 36.68 104.52 36.69C104.29 36.7 104.05 36.82 103.81 36.82C103.57 36.82 103.33 36.58 103.09 36.58C102.85 36.58 102.61 36.41 102.37 36.42C102.13 36.43 101.9 36.55 101.66 36.55C101.42 36.55 101.18 36.29 100.94 36.29C100.7 36.29 100.46 36.35 100.22 36.35C99.9802 36.35 99.7402 36.3 99.5002 36.3C99.2602 36.3 99.0202 36.45 98.7802 36.46C98.5402 36.47 98.3102 36.79 98.0702 36.8C97.8302 36.81 97.5902 36.81 97.3502 36.82C97.1102 36.83 96.8702 36.91 96.6302 36.91C96.3902 36.91 96.1502 36.89 95.9102 36.89C95.6702 36.89 95.4302 36.91 95.1902 36.91C94.9502 36.91 94.7002 36.66 94.4602 36.66C94.2202 36.66 93.9802 36.77 93.7402 36.78C93.5002 36.79 93.2602 36.73 93.0202 36.74C92.7802 36.75 92.5302 36.43 92.2902 36.44C92.0502 36.45 91.8102 36.66 91.5702 36.67C91.3302 36.68 91.0902 36.55 90.8502 36.56C90.6102 36.57 90.3802 36.84 90.1402 36.85C89.9002 36.86 89.6602 36.8 89.4202 36.8C89.1802 36.8 88.9302 36.56 88.6902 36.57C88.4502 36.58 88.2102 36.63 87.9702 36.64C87.7302 36.65 87.4902 36.54 87.2502 36.55C87.0102 36.56 86.7702 36.6 86.5302 36.61C86.2902 36.62 86.0702 37.25 85.8302 37.26C85.5902 37.27 85.3402 37.03 85.1002 37.04C84.8602 37.05 84.6102 36.81 84.3702 36.82C84.1302 36.83 83.9002 37.11 83.6602 37.12C83.4202 37.13 83.1802 37.12 82.9402 37.14C82.7002 37.16 82.4502 36.73 82.2102 36.73C81.9702 36.73 81.7402 37.03 81.5002 37.04C81.2602 37.05 81.0202 36.94 80.7802 36.94C80.5402 36.94 80.2902 36.8 80.0502 36.81C79.8102 36.82 79.5802 37.3 79.3402 37.3C79.1002 37.3 78.8402 36.79 78.6002 36.8C78.3602 36.81 78.1302 37.05 77.8902 37.05C77.6502 37.05 77.4202 37.5 77.1802 37.5C76.9402 37.5 76.6902 37.05 76.4502 37.06C76.2102 37.07 75.9602 36.87 75.7202 36.87C75.4802 36.87 75.2602 37.54 75.0202 37.55C74.7802 37.56 74.5402 37.47 74.3002 37.48C74.0602 37.49 73.8102 37.18 73.5702 37.18C73.3302 37.18 73.0902 37.28 72.8502 37.29C72.6102 37.3 72.3702 37.36 72.1302 37.37C71.8902 37.38 71.6402 37.09 71.4002 37.09C71.1602 37.09 70.9302 37.63 70.6902 37.63C70.4502 37.63 70.2002 37.26 69.9602 37.27C69.7202 37.28 69.4802 37.35 69.2402 37.35C69.0002 37.35 68.7502 37.19 68.5102 37.2C68.2702 37.21 68.0402 37.51 67.8002 37.52C67.5602 37.53 67.3302 37.79 67.0902 37.8C66.8502 37.81 66.6002 37.63 66.3602 37.63C66.1202 37.63 65.8702 37.36 65.6302 37.37C65.3902 37.38 65.1602 37.84 64.9202 37.85C64.6802 37.86 64.4302 37.46 64.1902 37.47C63.9502 37.48 63.7002 37.27 63.4602 37.27C63.2202 37.27 62.9802 37.33 62.7402 37.34C62.5002 37.35 62.2602 37.54 62.0202 37.55C61.7802 37.56 61.5502 37.84 61.3102 37.85C61.0702 37.86 60.8302 37.76 60.5902 37.77C60.3502 37.78 60.1102 37.88 59.8702 37.89C59.6302 37.9 59.3802 37.52 59.1402 37.52C58.9002 37.52 58.6702 37.77 58.4202 37.77C58.1702 37.77 57.9402 37.99 57.7002 37.99C57.4602 37.99 57.2002 37.45 56.9602 37.46C56.7202 37.47 56.4902 38.01 56.2502 38.02C56.0102 38.03 55.7602 37.75 55.5202 37.76C55.2802 37.77 55.0302 37.59 54.7902 37.59C54.5502 37.59 54.3102 37.54 54.0702 37.54C53.8302 37.54 53.6002 37.86 53.3602 37.87C53.1202 37.88 52.8802 38.09 52.6402 38.09C52.4002 38.09 52.1502 37.8 51.9102 37.81C51.6702 37.82 51.4202 37.62 51.1802 37.63C50.9402 37.64 50.7102 38.1 50.4702 38.11C50.2302 38.11 49.9802 37.79 49.7402 37.79C49.5002 37.79 49.2602 37.85 49.0202 37.86C48.7802 37.87 48.5402 37.81 48.3002 37.8C48.0602 37.79 47.8202 37.78 47.5802 37.77C47.3402 37.76 47.0702 38.26 46.8302 38.24C46.5902 38.22 46.3502 38.1 46.1002 38.08C45.8502 38.06 45.6102 38.02 45.3702 37.99C45.1302 37.96 44.9402 37.61 44.7002 37.57C44.4602 37.53 44.1402 37.86 43.9102 37.8C43.6802 37.74 43.5702 37.19 43.3402 37.12C43.1102 37.05 42.8802 37.01 42.6502 36.93C42.4202 36.85 42.1902 36.81 41.9702 36.71C41.7502 36.61 41.6402 36.36 41.4202 36.24C41.2002 36.12 41.0302 36.02 40.8202 35.89C40.6102 35.76 40.1802 35.99 39.9902 35.84C39.8002 35.69 39.8902 35.22 39.7102 35.06C39.5302 34.9 39.3302 34.8 39.1602 34.63C38.9902 34.46 38.7802 34.35 38.6202 34.17C38.4602 33.99 38.2702 33.85 38.1302 33.66C37.9902 33.47 37.5402 33.48 37.4102 33.28C37.2802 33.08 37.6602 32.58 37.5402 32.37C37.4202 32.16 37.2802 31.99 37.1802 31.77C37.0802 31.55 36.8402 31.41 36.7602 31.18C36.6802 30.95 36.4602 30.78 36.3902 30.55C36.3202 30.32 36.1502 30.11 36.1002 29.87C36.0502 29.63 35.9502 29.4 35.9202 29.16C35.8902 28.92 36.3702 28.63 36.3502 28.39C36.3302 28.15 35.9802 27.93 35.9802 27.69C35.9802 27.45 36.0702 27.21 36.0802 26.97C36.0902 26.73 36.0402 26.48 36.0602 26.25C36.0802 26.02 36.3302 25.81 36.3702 25.57C36.4102 25.33 36.0802 25.02 36.1402 24.78C36.2002 24.54 36.4702 24.36 36.5402 24.14C36.6102 23.92 36.7202 23.69 36.8102 23.47C36.9002 23.25 36.7902 22.92 36.9002 22.71C37.0102 22.5 37.3802 22.42 37.5102 22.22C37.6402 22.02 37.9402 21.95 38.0802 21.76C38.2202 21.57 37.9702 21.05 38.1302 20.87C38.2902 20.69 38.4902 20.52 38.6702 20.36C38.8502 20.2 39.3302 20.43 39.5302 20.29C39.7302 20.15 39.8702 19.98 40.0802 19.86C40.2902 19.74 40.4302 19.51 40.6602 19.42C40.8902 19.33 41.1002 19.24 41.3302 19.18C41.5602 19.12 41.8402 19.38 42.0802 19.35C42.3202 19.32 42.3802 18.72 42.6202 18.71L42.5002 18.65Z" fill="white"/>
</svg>
