<svg width="307" height="102" viewBox="0 0 307 102" fill="none" xmlns="http://www.w3.org/2000/svg">
<path d="M77.87 0.679962C78.11 0.679962 78.35 0.679962 78.59 0.679962C78.83 0.679962 79.07 1.13996 79.32 1.13996C79.57 1.13996 79.8 0.799957 80.04 0.799957C80.28 0.799957 80.52 0.859962 80.76 0.859962C81 0.859962 81.24 0.67996 81.48 0.66996C81.72 0.65996 81.96 0.619957 82.2 0.619957C82.44 0.619957 82.68 1.13996 82.93 1.13996C83.18 1.13996 83.41 0.73996 83.65 0.73996C83.89 0.73996 84.13 1.00996 84.37 1.00996C84.61 1.00996 84.85 1.13996 85.09 1.12996C85.33 1.11996 85.57 1.28996 85.81 1.27996C86.05 1.26996 86.29 1.25996 86.53 1.25996C86.77 1.25996 87.01 0.689957 87.25 0.689957C87.49 0.689957 87.73 0.73996 87.97 0.73996C88.21 0.73996 88.45 0.66996 88.69 0.66996C88.93 0.66996 89.17 0.839958 89.41 0.839958C89.65 0.839958 89.89 0.699959 90.13 0.699959C90.37 0.699959 90.61 1.12996 90.85 1.12996C91.09 1.12996 91.33 0.949959 91.57 0.949959C91.81 0.949959 92.05 1.06996 92.29 1.06996C92.53 1.06996 92.77 1.25996 93.01 1.25996C93.25 1.25996 93.49 1.24996 93.73 1.24996C93.97 1.24996 94.21 1.17996 94.45 1.17996C94.69 1.17996 94.93 0.839958 95.17 0.839958C95.41 0.839958 95.65 0.91996 95.89 0.91996C96.13 0.91996 96.37 0.819962 96.61 0.819962C96.85 0.819962 97.09 1.13996 97.33 1.13996C97.57 1.13996 97.81 0.999962 98.05 0.999962C98.29 0.999962 98.53 0.939962 98.77 0.929962C99.01 0.919962 99.25 1.12996 99.49 1.12996C99.73 1.12996 99.97 0.66996 100.21 0.66996C100.45 0.66996 100.69 0.91996 100.93 0.91996C101.17 0.91996 101.41 0.999962 101.65 0.999962C101.89 0.999962 102.13 1.12996 102.37 1.12996C102.61 1.12996 102.85 1.12996 103.09 1.12996C103.33 1.12996 103.57 0.599958 103.81 0.589958C104.05 0.579958 104.29 1.15996 104.53 1.15996C104.77 1.15996 105.01 1.01996 105.25 1.01996C105.49 1.01996 105.73 0.689962 105.97 0.679962C106.21 0.669962 106.45 0.879959 106.69 0.879959C106.93 0.879959 107.17 0.749962 107.41 0.749962C107.65 0.749962 107.89 0.73996 108.13 0.73996C108.37 0.73996 108.61 0.559957 108.85 0.549957C109.09 0.539957 109.33 0.91996 109.57 0.91996C109.81 0.91996 110.05 0.91996 110.29 0.91996C110.53 0.91996 110.77 0.629957 111.01 0.619957C111.25 0.609957 111.49 0.66996 111.73 0.66996C111.97 0.66996 112.21 0.559959 112.45 0.559959C112.69 0.559959 112.93 0.749962 113.17 0.749962C113.41 0.749962 113.65 0.789963 113.89 0.789963C114.13 0.789963 114.37 0.539963 114.61 0.539963C114.85 0.539963 115.09 0.719963 115.33 0.719963C115.57 0.719963 115.81 0.66996 116.05 0.66996C116.29 0.66996 116.53 0.929962 116.77 0.929962C117.01 0.929962 117.25 1.08996 117.49 1.08996C117.73 1.08996 117.97 0.91996 118.21 0.91996C118.45 0.91996 118.69 0.889961 118.93 0.889961C119.17 0.889961 119.41 1.14996 119.65 1.14996C119.89 1.14996 120.13 1.03996 120.37 1.03996C120.61 1.03996 120.85 1.00996 121.09 1.00996C121.33 1.00996 121.57 1.02996 121.81 1.02996C122.05 1.02996 122.29 0.799957 122.53 0.799957C122.77 0.799957 123.01 1.11996 123.25 1.11996C123.49 1.11996 123.73 0.819962 123.97 0.819962C124.21 0.819962 124.45 0.509956 124.69 0.509956C124.93 0.509956 125.17 0.749962 125.41 0.749962C125.65 0.749962 125.89 1.10996 126.13 1.10996C126.37 1.10996 126.61 1.09996 126.85 1.09996C127.09 1.09996 127.33 0.959961 127.57 0.959961C127.81 0.959961 128.05 1.13996 128.29 1.12996C128.53 1.11996 128.77 0.969963 129.01 0.969963C129.25 0.969963 129.49 0.839958 129.73 0.839958C129.97 0.839958 130.21 1.02996 130.45 1.02996C130.69 1.02996 130.93 0.719963 131.17 0.719963C131.41 0.719963 131.65 0.959961 131.89 0.959961C132.13 0.959961 132.37 0.889961 132.61 0.889961C132.85 0.889961 133.09 0.459961 133.33 0.459961C133.57 0.459961 133.81 0.539963 134.05 0.539963C134.29 0.539963 134.53 0.73996 134.77 0.73996C135.01 0.73996 135.25 0.439957 135.49 0.439957C135.73 0.439957 135.97 0.939957 136.21 0.939957C136.45 0.939957 136.69 1.01996 136.93 1.01996C137.17 1.01996 137.41 0.679962 137.65 0.679962C137.89 0.679962 138.13 0.969963 138.37 0.969963C138.61 0.969963 138.85 0.73996 139.09 0.73996C139.33 0.73996 139.57 0.789963 139.81 0.789963C140.05 0.789963 140.29 0.48996 140.53 0.48996C140.77 0.48996 141.01 0.98996 141.25 0.98996C141.49 0.98996 141.73 0.409958 141.97 0.409958C142.21 0.409958 142.45 0.609962 142.69 0.609962C142.93 0.609962 143.17 0.679962 143.41 0.679962C143.65 0.679962 143.89 0.459961 144.13 0.459961C144.37 0.459961 144.61 1.04996 144.85 1.04996C145.09 1.04996 145.33 0.869957 145.57 0.869957C145.81 0.869957 146.05 1.04996 146.29 1.04996C146.53 1.04996 146.77 0.689957 147.01 0.689957C147.25 0.689957 147.49 1.03996 147.73 1.02996C147.97 1.01996 148.21 0.949959 148.45 0.949959C148.69 0.949959 148.93 1.00996 149.17 1.00996C149.41 1.00996 149.65 0.529958 149.89 0.519958C150.13 0.509959 150.37 0.829956 150.61 0.829956C150.85 0.829956 151.09 0.859962 151.33 0.859962C151.57 0.859962 151.81 1.02996 152.05 1.02996C152.29 1.02996 152.53 0.769958 152.77 0.769958C153.01 0.769958 153.25 1.00996 153.49 1.00996C153.73 1.00996 153.97 0.979958 154.21 0.979958C154.45 0.979958 154.69 0.809959 154.93 0.809959C155.17 0.809959 155.41 0.549957 155.65 0.549957C155.89 0.549957 156.13 0.549957 156.37 0.549957C156.61 0.549957 156.85 0.719963 157.09 0.719963C157.33 0.719963 157.57 0.339958 157.81 0.339958C158.05 0.339958 158.29 0.399963 158.53 0.399963C158.77 0.399963 159.01 0.469963 159.25 0.469963C159.49 0.469963 159.73 0.549957 159.97 0.549957C160.21 0.549957 160.45 0.34996 160.69 0.34996C160.93 0.34996 161.17 0.839958 161.41 0.839958C161.65 0.839958 161.89 0.899963 162.13 0.899963C162.37 0.899963 162.61 0.509956 162.85 0.509956C163.09 0.509956 163.33 0.529961 163.57 0.529961C163.81 0.529961 164.05 0.589958 164.29 0.589958C164.53 0.589958 164.77 0.699959 165.01 0.699959C165.25 0.699959 165.49 0.84996 165.73 0.84996C165.97 0.84996 166.21 0.329956 166.45 0.329956C166.69 0.329956 166.93 0.73996 167.17 0.73996C167.41 0.73996 167.65 0.629959 167.89 0.629959C168.13 0.629959 168.37 0.35996 168.61 0.34996C168.85 0.33996 169.09 1.00996 169.33 1.00996C169.57 1.00996 169.81 0.869957 170.05 0.869957C170.29 0.869957 170.53 0.679962 170.77 0.679962C171.01 0.679962 171.25 0.479958 171.49 0.479958C171.73 0.479958 171.97 0.769958 172.21 0.769958C172.45 0.769958 172.69 0.309959 172.93 0.309959C173.17 0.309959 173.41 0.419958 173.65 0.409958C173.89 0.399958 174.13 0.479958 174.37 0.479958C174.61 0.479958 174.85 0.719963 175.09 0.719963C175.33 0.719963 175.57 0.369957 175.81 0.369957C176.05 0.369957 176.29 0.529961 176.53 0.529961C176.77 0.529961 177.01 0.779961 177.25 0.779961C177.49 0.779961 177.73 0.309959 177.97 0.309959C178.21 0.309959 178.45 0.569962 178.69 0.569962C178.93 0.569962 179.17 0.679962 179.41 0.679962C179.65 0.679962 179.89 0.439957 180.13 0.439957C180.37 0.439957 180.61 0.539961 180.85 0.529961C181.09 0.519961 181.33 0.659958 181.57 0.659958C181.81 0.659958 182.05 0.699959 182.29 0.699959C182.53 0.699959 182.77 0.359962 183.01 0.359962C183.25 0.359962 183.49 0.529961 183.73 0.529961C183.97 0.529961 184.21 0.729958 184.45 0.729958C184.69 0.729958 184.93 0.959961 185.17 0.959961C185.41 0.959961 185.65 0.91996 185.89 0.91996C186.13 0.91996 186.37 0.409958 186.6 0.409958C186.83 0.409958 187.08 0.889961 187.32 0.889961C187.56 0.889961 187.8 0.829956 188.04 0.829956C188.28 0.829956 188.52 0.759956 188.76 0.759956C189 0.759956 189.24 0.73996 189.48 0.73996C189.72 0.73996 189.96 0.279961 190.19 0.279961C190.42 0.279961 190.67 0.359962 190.91 0.359962C191.15 0.359962 191.39 0.729958 191.63 0.729958C191.87 0.729958 192.11 0.299957 192.34 0.299957C192.57 0.299957 192.82 0.579956 193.06 0.579956C193.3 0.579956 193.54 0.369957 193.78 0.369957C194.02 0.369957 194.26 0.259956 194.5 0.259956C194.74 0.259956 194.98 0.829962 195.22 0.819962C195.46 0.809962 195.7 0.339958 195.93 0.339958C196.16 0.339958 196.41 0.269958 196.65 0.269958C196.89 0.269958 197.13 0.579956 197.37 0.579956C197.61 0.579956 197.85 0.629959 198.09 0.629959C198.33 0.629959 198.57 0.84996 198.81 0.84996C199.05 0.84996 199.29 0.689957 199.53 0.689957C199.77 0.689957 200.01 0.719963 200.25 0.719963C200.49 0.719963 200.73 0.719963 200.97 0.719963C201.21 0.719963 201.45 0.639959 201.69 0.629959C201.93 0.619959 202.17 0.439957 202.41 0.439957C202.65 0.439957 202.89 0.559959 203.13 0.559959C203.37 0.559959 203.61 0.899963 203.85 0.899963C204.09 0.899963 204.33 0.729958 204.57 0.729958C204.81 0.729958 205.05 0.589958 205.29 0.589958C205.53 0.589958 205.77 0.529958 206.01 0.519958C206.25 0.509959 206.49 0.329956 206.73 0.329956C206.97 0.329956 207.21 0.679962 207.45 0.679962C207.69 0.679962 207.93 0.84996 208.17 0.84996C208.41 0.84996 208.65 0.259956 208.88 0.259956C209.11 0.259956 209.36 0.709961 209.6 0.709961C209.84 0.709961 210.08 0.339958 210.31 0.339958C210.54 0.339958 210.79 0.409958 211.03 0.409958C211.27 0.409958 211.51 0.549957 211.75 0.549957C211.99 0.549957 212.23 0.209961 212.47 0.209961C212.71 0.209961 212.95 0.789963 213.19 0.789963C213.43 0.789963 213.67 0.34996 213.9 0.34996C214.13 0.34996 214.38 0.259962 214.62 0.249962C214.86 0.239962 215.1 0.309959 215.34 0.309959C215.58 0.309959 215.82 0.469963 216.06 0.469963C216.3 0.469963 216.54 0.789963 216.78 0.789963C217.02 0.789963 217.26 0.379959 217.5 0.379959C217.74 0.379959 217.98 0.519958 218.22 0.519958C218.46 0.519958 218.7 0.249962 218.94 0.249962C219.18 0.249962 219.42 0.48996 219.66 0.48996C219.9 0.48996 220.14 0.649963 220.38 0.649963C220.62 0.649963 220.86 0.699959 221.1 0.699959C221.34 0.699959 221.58 0.759956 221.82 0.759956C222.06 0.759956 222.3 0.359962 222.54 0.359962C222.78 0.359962 223.02 0.679962 223.26 0.679962C223.5 0.679962 223.74 0.249962 223.98 0.249962C224.22 0.249962 224.46 0.299957 224.7 0.299957C224.94 0.299957 225.18 0.48996 225.42 0.48996C225.66 0.48996 225.9 0.289963 226.14 0.289963C226.38 0.289963 226.62 0.48996 226.86 0.48996C227.1 0.48996 227.34 0.409958 227.58 0.409958C227.82 0.409958 228.06 0.559959 228.3 0.559959C228.54 0.559959 228.78 0.549957 229.02 0.549957C229.26 0.549957 229.5 0.149963 229.74 0.149963C229.98 0.149963 230.22 0.67996 230.46 0.66996C230.7 0.65996 230.94 0.159958 231.18 0.159958C231.42 0.159958 231.66 0.73996 231.9 0.73996C232.14 0.73996 232.38 0.799957 232.62 0.799957C232.86 0.799957 233.1 0.449959 233.34 0.449959C233.58 0.449959 233.82 0.449959 234.06 0.449959C234.3 0.449959 234.54 0.519958 234.78 0.519958C235.02 0.519958 235.26 0.379959 235.5 0.379959C235.74 0.379959 235.98 0.369957 236.22 0.369957C236.46 0.369957 236.7 0.369957 236.94 0.369957C237.18 0.369957 237.42 0.459961 237.66 0.459961C237.9 0.459961 238.14 0.539963 238.38 0.539963C238.62 0.539963 238.86 0.129959 239.1 0.129959C239.34 0.129959 239.58 0.589958 239.82 0.589958C240.06 0.589958 240.3 0.369957 240.54 0.369957C240.78 0.369957 241.02 0.479958 241.26 0.479958C241.5 0.479958 241.74 0.279961 241.98 0.279961C242.22 0.279961 242.46 0.779961 242.7 0.779961C242.94 0.779961 243.18 0.59996 243.42 0.59996C243.66 0.59996 243.9 0.319962 244.14 0.319962C244.38 0.319962 244.62 0.269958 244.86 0.269958C245.1 0.269958 245.34 0.459961 245.58 0.459961C245.82 0.459961 246.06 0.549957 246.3 0.549957C246.54 0.549957 246.78 0.339958 247.02 0.339958C247.26 0.339958 247.5 0.309959 247.74 0.309959C247.98 0.309959 248.22 0.269958 248.46 0.269958C248.7 0.269958 248.94 0.519958 249.18 0.519958C249.42 0.519958 249.66 0.509956 249.9 0.509956C250.14 0.509956 250.38 0.299957 250.62 0.299957C250.86 0.299957 251.1 0.149963 251.34 0.149963C251.58 0.149963 251.82 0.549957 252.06 0.549957C252.3 0.549957 252.54 0.679962 252.78 0.679962C253.02 0.679962 253.26 0.399963 253.5 0.399963C253.74 0.399963 253.98 0.729958 254.22 0.729958C254.46 0.729958 254.7 0.579956 254.94 0.579956C255.18 0.579956 255.42 0.699959 255.66 0.699959C255.9 0.699959 256.14 0.679962 256.38 0.679962C256.62 0.679962 256.86 0.309959 257.1 0.309959C257.34 0.309959 257.58 0.109962 257.82 0.109962C258.06 0.109962 258.3 0.34996 258.54 0.34996C258.78 0.34996 259.02 0.269958 259.26 0.269958C259.5 0.269958 259.74 0.219963 259.98 0.219963C260.22 0.219963 260.46 0.189957 260.7 0.189957C260.94 0.189957 261.18 0.34996 261.42 0.34996C261.66 0.34996 261.9 0.479958 262.14 0.479958C262.38 0.479958 262.62 0.219963 262.86 0.219963C263.1 0.219963 263.34 0.269958 263.58 0.269958C263.82 0.269958 264.06 0.16996 264.3 0.16996C264.54 0.16996 264.78 0.339958 265.02 0.339958C265.26 0.339958 265.5 0.279961 265.74 0.279961C265.98 0.279961 266.23 0.549957 266.47 0.549957C266.71 0.549957 266.95 0.229958 267.2 0.229958C267.45 0.229958 267.69 0.309959 267.93 0.309959C268.17 0.309959 268.4 0.309959 268.64 0.309959C268.88 0.309959 269.12 0.129959 269.35 0.129959C269.58 0.129959 269.83 0.66996 270.06 0.66996C270.29 0.66996 270.54 0.459961 270.77 0.459961C271 0.459961 271.25 0.139961 271.49 0.139961C271.73 0.139961 271.96 0.34996 272.2 0.34996C272.44 0.34996 272.68 0.0799561 272.92 0.0799561C273.16 0.0799561 273.39 0.439957 273.63 0.439957C273.87 0.439957 274.11 0.199959 274.35 0.199959C274.59 0.199959 274.81 0.649958 275.05 0.659958C275.29 0.669958 275.54 0.33996 275.78 0.34996C276.02 0.35996 276.27 0.189959 276.5 0.199959C276.73 0.209959 276.96 0.599962 277.19 0.609962C277.42 0.619962 277.66 0.64996 277.9 0.66996C278.14 0.68996 278.37 0.789957 278.61 0.799957C278.85 0.809957 279.07 0.989956 279.31 1.00996C279.55 1.02996 279.85 0.39996 280.08 0.41996C280.31 0.43996 280.54 0.659957 280.77 0.689957C281 0.719957 281.22 0.95996 281.45 0.98996C281.68 1.01996 281.94 0.899962 282.18 0.929962C282.42 0.959962 282.68 0.839959 282.91 0.879959C283.14 0.919959 283.37 1.00996 283.61 1.04996C283.85 1.08996 284.11 0.979958 284.34 1.01996C284.57 1.05996 284.69 1.70996 284.92 1.75996C285.15 1.80996 285.49 1.35996 285.72 1.40996C285.95 1.45996 286.18 1.56996 286.41 1.61996C286.64 1.66996 286.86 1.80996 287.09 1.86996C287.32 1.92996 287.56 1.95996 287.79 2.01996C288.02 2.07996 288.16 2.43996 288.39 2.50996C288.62 2.57996 288.9 2.45996 289.13 2.52996C289.36 2.59996 289.48 2.96996 289.7 3.04996C289.92 3.12996 290.14 3.21996 290.36 3.30996C290.58 3.39996 290.8 3.46996 291.02 3.55996C291.24 3.64996 291.71 3.14996 291.93 3.23996C292.15 3.32996 292.35 3.47996 292.57 3.57996C292.79 3.67996 292.84 4.13996 293.06 4.24996C293.28 4.35996 293.67 4.12996 293.88 4.24996C294.09 4.36996 294.02 4.98996 294.23 5.10996C294.44 5.22996 294.71 5.23996 294.91 5.36996C295.11 5.49996 295.43 5.44996 295.63 5.57996C295.83 5.70996 295.84 6.12996 296.04 6.26996C296.24 6.40996 296.75 6.10995 296.94 6.24995C297.13 6.38995 297.1 6.84995 297.29 6.99995C297.48 7.14995 297.68 7.27996 297.87 7.43996C298.06 7.59996 298.34 7.62996 298.52 7.78996C298.7 7.94996 299.08 7.89996 299.25 8.06996C299.42 8.23996 299.25 8.76996 299.43 8.93996C299.61 9.10996 299.94 9.10996 300.11 9.28996C300.28 9.46996 300.49 9.59995 300.65 9.77995C300.81 9.95995 300.9 10.2 301.06 10.39C301.22 10.58 301.12 10.97 301.27 11.16C301.42 11.35 301.58 11.52 301.73 11.71C301.88 11.9 302.15 12 302.29 12.19C302.43 12.38 302.92 12.34 303.06 12.54C303.2 12.74 302.89 13.23 303.02 13.43C303.15 13.63 303.28 13.83 303.4 14.04C303.52 14.25 304.15 14.18 304.26 14.39C304.37 14.6 304.28 14.93 304.39 15.15C304.5 15.37 304.39 15.69 304.48 15.91C304.57 16.13 304.88 16.26 304.97 16.49C305.06 16.72 304.9 17.04 304.97 17.26C305.04 17.48 305.56 17.57 305.64 17.8C305.72 18.03 305.53 18.35 305.59 18.58C305.65 18.81 305.61 19.07 305.67 19.31C305.73 19.55 305.67 19.8 305.72 20.04C305.77 20.28 305.75 20.52 305.8 20.75C305.85 20.98 306.08 21.19 306.12 21.43C306.16 21.67 306.21 21.9 306.23 22.15C306.25 22.4 306.45 22.62 306.46 22.86C306.47 23.1 306.19 23.35 306.19 23.59C306.19 23.83 306.24 24.07 306.23 24.31C306.23 24.55 306.32 24.79 306.3 25.03C306.28 25.27 306.47 25.53 306.44 25.77C306.41 26.01 305.98 26.2 305.95 26.44C305.92 26.68 305.87 26.91 305.83 27.14C305.79 27.37 306.28 27.72 306.24 27.95C306.2 28.18 306.03 28.41 305.98 28.64C305.93 28.87 305.36 28.97 305.29 29.2C305.22 29.43 305.51 29.76 305.44 29.99C305.37 30.22 305.35 30.47 305.27 30.69C305.19 30.91 305.23 31.2 305.14 31.42C305.05 31.64 304.45 31.65 304.35 31.86C304.25 32.07 304.63 32.53 304.53 32.74C304.43 32.95 304.35 33.2 304.23 33.41C304.11 33.62 303.53 33.57 303.41 33.77C303.29 33.97 303.24 34.22 303.11 34.42C302.98 34.62 303.01 34.93 302.87 35.12C302.73 35.31 302.54 35.48 302.4 35.67C302.26 35.86 301.85 35.84 301.7 36.03C301.55 36.22 301.6 36.56 301.45 36.75C301.3 36.94 301.32 37.28 301.16 37.46C301 37.64 300.6 37.59 300.43 37.76C300.26 37.93 300.3 38.32 300.13 38.48C299.96 38.64 299.73 38.76 299.55 38.92C299.37 39.08 299.11 39.14 298.92 39.3C298.73 39.46 298.48 39.51 298.29 39.66C298.1 39.81 297.87 39.89 297.68 40.04C297.49 40.19 297.39 40.44 297.19 40.58C296.99 40.72 296.66 40.65 296.46 40.78C296.26 40.91 296.3 41.4 296.1 41.53C295.9 41.66 295.68 41.76 295.47 41.88C295.26 42 294.85 41.77 294.65 41.89C294.45 42.01 294.29 42.22 294.08 42.33C293.87 42.44 293.79 42.8 293.58 42.91C293.37 43.02 293.06 42.94 292.85 43.05C292.64 43.16 292.42 43.24 292.2 43.35C291.98 43.46 291.97 44 291.75 44.1C291.53 44.2 291.16 43.95 290.94 44.04C290.72 44.13 290.44 44.08 290.22 44.17C290 44.26 289.82 44.47 289.6 44.55C289.38 44.63 289.3 45.11 289.07 45.19C288.84 45.27 288.47 44.94 288.24 45.02C288.01 45.1 287.76 45.1 287.54 45.18C287.32 45.26 287.12 45.43 286.89 45.51C286.66 45.59 286.51 45.91 286.28 45.97C286.05 46.03 285.77 45.93 285.54 45.99C285.31 46.05 285.04 45.98 284.81 46.04C284.58 46.1 284.4 46.39 284.17 46.45C283.94 46.51 283.71 46.59 283.48 46.65C283.25 46.71 283.02 46.8 282.79 46.86C282.56 46.92 282.32 46.97 282.08 47.02C281.84 47.07 281.63 47.24 281.4 47.28C281.17 47.32 280.84 46.92 280.61 46.96C280.38 47 280.21 47.48 279.97 47.52C279.73 47.56 279.46 47.37 279.22 47.41C278.98 47.45 278.76 47.57 278.52 47.61C278.28 47.65 278.02 47.54 277.79 47.57C277.56 47.6 277.33 47.76 277.09 47.79C276.85 47.82 276.61 47.81 276.37 47.84C276.13 47.87 275.87 47.62 275.63 47.64C275.39 47.66 275.18 48.11 274.95 48.13C274.72 48.15 274.44 47.8 274.21 47.81C273.98 47.82 273.74 48.07 273.51 48.08C273.28 48.09 273.03 48.06 272.79 48.07C272.55 48.08 272.32 48 272.08 48C271.84 48 271.6 48.18 271.36 48.18C271.12 48.18 270.88 48.29 270.64 48.29C270.4 48.29 270.16 48.3 269.92 48.3C269.68 48.3 269.44 48.04 269.2 48.04C268.96 48.04 268.72 47.97 268.48 47.97C268.24 47.97 268 47.85 267.76 47.86C267.52 47.87 267.28 47.67 267.04 47.68C266.8 47.69 266.57 48.22 266.33 48.22C266.09 48.22 265.84 47.78 265.6 47.78C265.36 47.78 265.12 47.88 264.88 47.89C264.64 47.9 264.4 47.88 264.16 47.89C263.92 47.9 263.69 48.4 263.45 48.4C263.21 48.4 262.96 47.95 262.72 47.96C262.48 47.97 262.24 47.82 262 47.82C261.76 47.82 261.52 47.82 261.28 47.82C261.04 47.82 260.81 48.32 260.57 48.32C260.33 48.32 260.08 48.07 259.84 48.08C259.6 48.09 259.36 47.98 259.12 47.99C258.88 48 258.64 48.03 258.4 48.03C258.16 48.03 257.92 48.24 257.68 48.24C257.44 48.24 257.2 48.48 256.96 48.48C256.72 48.48 256.47 48.02 256.23 48.02C255.99 48.02 255.75 48.26 255.51 48.26C255.27 48.26 255.02 47.96 254.78 47.97C254.54 47.98 254.3 48.02 254.06 48.02C253.82 48.02 253.58 48.18 253.34 48.19C253.1 48.2 252.86 48.1 252.62 48.11C252.38 48.12 252.14 48.29 251.9 48.3C251.66 48.31 251.42 48.22 251.18 48.23C250.94 48.24 250.71 48.59 250.47 48.59C250.23 48.59 249.98 48.16 249.74 48.17C249.5 48.18 249.26 48.24 249.02 48.25C248.78 48.26 248.54 48.11 248.3 48.12C248.06 48.13 247.83 48.39 247.59 48.39C247.35 48.39 247.11 48.35 246.87 48.35C246.63 48.35 246.39 48.43 246.15 48.43C245.91 48.43 245.67 48.27 245.43 48.27C245.19 48.27 244.95 48.4 244.71 48.4C244.47 48.4 244.23 48.6 243.99 48.61C243.75 48.62 243.5 48.41 243.26 48.41C243.02 48.41 242.78 48.48 242.54 48.49C242.3 48.5 242.06 48.7 241.82 48.71C241.58 48.72 241.34 48.57 241.1 48.57C240.86 48.57 240.63 48.92 240.39 48.93C240.15 48.94 239.89 48.28 239.65 48.28C239.41 48.28 239.18 48.63 238.94 48.63C238.7 48.63 238.45 48.43 238.21 48.44C237.97 48.45 237.74 48.98 237.5 48.99C237.26 49 237.01 48.74 236.77 48.75C236.53 48.76 236.29 48.75 236.05 48.75C235.81 48.75 235.57 48.64 235.33 48.65C235.09 48.66 234.85 48.83 234.61 48.84C234.37 48.85 234.13 49.03 233.89 49.03C233.65 49.03 233.41 48.87 233.17 48.87C232.93 48.87 232.69 49.1 232.45 49.11C232.21 49.12 231.96 48.73 231.72 48.74C231.48 48.75 231.25 49.02 231.01 49.03C230.77 49.04 230.53 49.18 230.29 49.18C230.05 49.18 229.8 48.84 229.56 48.85C229.32 48.86 229.08 48.82 228.84 48.82C228.6 48.82 228.36 48.75 228.12 48.76C227.88 48.77 227.64 48.7 227.4 48.7C227.16 48.7 226.93 49.24 226.69 49.24C226.45 49.24 226.21 49.24 225.97 49.24C225.73 49.24 225.49 49.23 225.25 49.24C225.01 49.25 224.76 48.91 224.52 48.91C224.28 48.91 224.04 48.93 223.8 48.93C223.56 48.93 223.32 48.87 223.08 48.87C222.84 48.87 222.61 49.32 222.37 49.32C222.13 49.32 221.88 48.88 221.64 48.89C221.4 48.9 221.16 48.98 220.92 48.99C220.68 49 220.45 49.32 220.2 49.32C219.95 49.32 219.71 48.97 219.47 48.98C219.23 48.99 218.99 49.04 218.75 49.04C218.51 49.04 218.26 48.77 218.02 48.78C217.78 48.79 217.55 49.35 217.31 49.35C217.07 49.35 216.83 49.28 216.59 49.28C216.35 49.28 216.1 48.97 215.86 48.97C215.62 48.97 215.38 48.97 215.14 48.97C214.9 48.97 214.66 49.06 214.42 49.07C214.18 49.08 213.94 49.05 213.7 49.05C213.46 49.05 213.22 48.89 212.97 48.89C212.72 48.89 212.49 49.09 212.25 49.09C212.01 49.09 211.76 48.87 211.52 48.87C211.28 48.87 211.04 48.83 210.8 48.83C210.56 48.83 210.32 49.33 210.08 49.33C209.84 49.33 209.6 49.21 209.35 49.21C209.1 49.21 208.87 49.35 208.63 49.36C208.39 49.37 208.15 49.42 207.91 49.42C207.67 49.42 207.43 49.3 207.18 49.3C206.93 49.3 206.7 49.3 206.46 49.3C206.22 49.3 205.97 48.94 205.73 48.95C205.49 48.96 205.25 49.32 205.01 49.32C204.77 49.32 204.53 49.59 204.29 49.6C204.05 49.61 203.8 48.92 203.56 48.93C203.32 48.94 203.08 49.03 202.84 49.04C202.6 49.05 202.36 49.49 202.12 49.49C201.88 49.49 201.64 49.55 201.4 49.56C201.16 49.57 200.91 49.19 200.67 49.19C200.43 49.19 200.19 49.3 199.95 49.3C199.71 49.3 199.47 49.27 199.23 49.28C198.99 49.29 198.75 49.53 198.51 49.53C198.27 49.53 198.02 49.13 197.78 49.14C197.54 49.15 197.3 49.48 197.06 49.48C196.82 49.48 196.57 49.06 196.33 49.06C196.09 49.06 195.85 49.49 195.61 49.49C195.37 49.49 195.12 49.04 194.88 49.04C194.64 49.04 194.4 49.13 194.16 49.13C193.92 49.13 193.68 49.67 193.44 49.67C193.2 49.67 192.96 49.67 192.72 49.67C192.48 49.67 192.23 49.12 191.99 49.12C191.77 49.12 191.54 49.17 191.27 49.16C191.05 49.16 190.8 49.43 190.55 49.43C190.32 49.43 190.08 49.32 189.83 49.32C189.6 49.32 189.36 49.31 189.1 49.3C188.87 49.3 188.62 49.55 188.37 49.55C188.13 49.55 187.9 49.36 187.65 49.35C187.4 49.34 187.17 49.55 186.92 49.54C186.67 49.53 186.45 49.12 186.2 49.12C185.95 49.12 185.72 49.06 185.47 49.05C185.22 49.04 184.99 48.93 184.75 48.93C184.51 48.93 184.26 49.18 184.02 49.18C183.78 49.18 183.54 48.94 183.3 48.93C183.06 48.92 182.82 48.94 182.57 48.93C182.32 48.92 182.08 49.33 181.83 49.33C181.58 49.33 181.35 49.43 181.1 49.42C180.85 49.41 180.62 49.42 180.37 49.41C180.12 49.4 179.89 49.06 179.65 49.06C179.41 49.06 179.16 49.4 178.91 49.39C178.66 49.38 178.42 49.36 178.18 49.36C177.94 49.36 177.7 48.87 177.46 48.87C177.22 48.87 176.97 49.11 176.72 49.11C176.47 49.11 176.23 49.14 175.99 49.14C175.75 49.14 175.49 49.43 175.25 49.43C175.01 49.43 174.76 48.87 174.52 48.87C174.28 48.87 174.02 49.24 173.78 49.24C173.54 49.24 173.29 48.85 173.05 48.85C172.81 48.85 172.56 49.1 172.32 49.1C172.08 49.1 171.83 48.93 171.59 48.93C171.35 48.93 171.1 49.14 170.86 49.14C170.62 49.14 170.37 48.77 170.13 48.78C169.88 48.78 169.64 48.96 169.4 48.97C169.15 48.97 168.92 49.41 168.69 49.42C168.44 49.42 168.17 48.89 167.94 48.9C167.68 48.91 167.46 49.33 167.24 49.35C166.97 49.37 166.5 49.5 166.29 49.53C166.53 49.53 166.99 49.32 167.23 49.33C167.47 49.34 167.68 49.67 167.92 49.69C168.16 49.71 168.46 49.09 168.7 49.11C168.94 49.13 169.19 49.15 169.42 49.18C169.65 49.21 169.86 49.52 170.09 49.56C170.32 49.6 170.58 49.56 170.82 49.61C171.06 49.66 171.19 50.17 171.42 50.22C171.65 50.27 171.98 49.96 172.21 50.02C172.44 50.08 172.62 50.33 172.85 50.4C173.08 50.47 173.34 50.45 173.56 50.52C173.78 50.59 173.98 50.77 174.2 50.86C174.42 50.95 174.6 51.15 174.82 51.24C175.04 51.33 175.36 51.18 175.58 51.28C175.8 51.38 176.15 51.2 176.37 51.3C176.59 51.4 176.52 52.06 176.73 52.17C176.94 52.28 177.3 52.13 177.5 52.25C177.7 52.37 178.09 52.21 178.29 52.33C178.49 52.45 178.47 52.95 178.67 53.08C178.87 53.21 179.11 53.28 179.31 53.42C179.51 53.56 179.82 53.55 180 53.7C180.18 53.85 180.1 54.34 180.28 54.49C180.46 54.64 181.02 54.37 181.2 54.52C181.38 54.67 181.19 55.24 181.36 55.41C181.53 55.58 181.79 55.65 181.96 55.82C182.13 55.99 182.54 55.94 182.7 56.12C182.86 56.3 182.78 56.69 182.94 56.87C183.1 57.05 183.07 57.38 183.22 57.56C183.37 57.74 183.55 57.9 183.69 58.09C183.83 58.28 184.16 58.34 184.3 58.53C184.44 58.72 184.33 59.08 184.46 59.28C184.59 59.48 184.73 59.67 184.85 59.87C184.97 60.07 185.52 60.03 185.63 60.24C185.74 60.45 185.88 60.66 185.99 60.87C186.1 61.08 186.06 61.37 186.17 61.59C186.28 61.81 186.14 62.13 186.24 62.35C186.34 62.57 186.93 62.58 187.02 62.8C187.11 63.02 187.02 63.33 187.1 63.55C187.18 63.77 187.03 64.09 187.1 64.31C187.17 64.53 187.25 64.76 187.33 64.99C187.41 65.22 187.7 65.38 187.77 65.61C187.84 65.84 188.06 66.03 188.12 66.27C188.18 66.51 188.03 66.79 188.08 67.02C188.13 67.25 188.11 67.5 188.15 67.74C188.19 67.98 188.47 68.17 188.51 68.41C188.55 68.65 188.38 68.92 188.41 69.16C188.44 69.4 188.22 69.66 188.25 69.9C188.28 70.14 188.3 70.37 188.32 70.61C188.34 70.85 188.44 71.08 188.46 71.31C188.48 71.54 188.32 71.79 188.33 72.03C188.34 72.27 188.7 72.5 188.7 72.74C188.7 72.98 188.85 73.22 188.85 73.46C188.85 73.7 188.81 73.94 188.8 74.18C188.79 74.42 188.57 74.65 188.55 74.89C188.53 75.13 188.43 75.36 188.41 75.6C188.39 75.84 188.46 76.09 188.43 76.32C188.4 76.55 188.59 76.83 188.55 77.07C188.51 77.31 188.48 77.56 188.44 77.79C188.4 78.02 187.98 78.19 187.93 78.43C187.88 78.67 187.76 78.88 187.7 79.12C187.64 79.36 187.98 79.7 187.91 79.93C187.84 80.16 187.35 80.26 187.27 80.49C187.19 80.72 187.52 81.09 187.44 81.31C187.36 81.53 187.37 81.81 187.28 82.03C187.19 82.25 186.91 82.41 186.82 82.63C186.73 82.85 186.58 83.06 186.48 83.28C186.38 83.5 186.24 83.7 186.13 83.92C186.02 84.14 185.83 84.31 185.71 84.52C185.59 84.73 185.33 84.86 185.21 85.07C185.09 85.28 184.94 85.46 184.81 85.67C184.68 85.88 184.98 86.35 184.85 86.55C184.72 86.75 184.14 86.66 184.01 86.86C183.88 87.06 183.86 87.34 183.71 87.53C183.56 87.72 183.51 87.98 183.37 88.18C183.23 88.38 183.06 88.55 182.91 88.74C182.76 88.93 182.7 89.2 182.54 89.38C182.38 89.56 182.23 89.76 182.07 89.94C181.91 90.12 181.44 90.01 181.28 90.19C181.12 90.37 181.03 90.61 180.86 90.78C180.69 90.95 180.74 91.34 180.56 91.51C180.38 91.68 180.22 91.86 180.04 92.02C179.86 92.18 179.6 92.2599 179.42 92.42C179.24 92.58 179.21 92.92 179.02 93.08C178.83 93.24 178.34 93.01 178.15 93.16C177.96 93.31 177.74 93.41 177.55 93.56C177.36 93.71 177.53 94.34 177.33 94.48C177.13 94.62 176.79 94.56 176.59 94.7C176.39 94.84 176 94.69 175.8 94.82C175.6 94.95 175.54 95.3 175.33 95.43C175.12 95.56 174.84 95.56 174.63 95.68C174.42 95.8 174.23 95.95 174.02 96.07C173.81 96.19 173.8 96.68 173.59 96.79C173.38 96.9 172.96 96.64 172.75 96.75C172.54 96.86 172.5 97.33 172.28 97.44C172.06 97.55 171.84 97.66 171.62 97.76C171.4 97.86 170.96 97.46 170.74 97.56C170.52 97.66 170.46 98.14 170.24 98.23C170.02 98.32 169.86 98.61 169.64 98.69C169.42 98.77 169.05 98.48 168.83 98.56C168.61 98.64 168.49 99.05 168.27 99.13C168.05 99.21 167.73 99.04 167.51 99.11C167.29 99.18 167.14 99.53 166.91 99.59C166.68 99.65 166.44 99.72 166.21 99.78C165.98 99.84 165.62 99.42 165.39 99.49C165.16 99.56 164.92 99.56 164.69 99.62C164.46 99.68 164.28 99.95 164.05 100.01C163.82 100.07 163.54 99.89 163.3 99.94C163.06 99.99 162.85 100.1 162.61 100.14C162.37 100.18 162.22 100.66 161.99 100.7C161.76 100.74 161.5 100.66 161.26 100.7C161.02 100.74 160.73 100.42 160.5 100.46C160.27 100.5 160.1 101 159.86 101.04C159.62 101.08 159.34 100.79 159.11 100.82C158.88 100.85 158.66 101.04 158.42 101.07C158.18 101.1 157.94 101.05 157.7 101.07C157.46 101.09 157.24 101.25 157 101.27C156.76 101.29 156.52 101.28 156.28 101.3C156.04 101.32 155.77 100.91 155.53 100.93C155.29 100.95 155.08 101.25 154.84 101.27C154.6 101.29 154.39 101.66 154.15 101.67C153.91 101.68 153.65 101.21 153.41 101.22C153.17 101.23 152.94 101.26 152.7 101.27C152.46 101.28 152.24 101.72 152 101.73C151.76 101.74 151.52 101.76 151.28 101.77C151.04 101.78 150.79 101.3 150.55 101.31C150.31 101.32 150.08 101.83 149.85 101.84C149.62 101.85 149.37 101.82 149.13 101.82C148.89 101.82 148.65 101.39 148.41 101.39C148.17 101.39 147.93 101.35 147.69 101.35C147.45 101.35 147.21 101.42 146.97 101.41C146.73 101.4 146.49 101.33 146.25 101.33C146.01 101.33 145.77 101.54 145.53 101.54C145.29 101.54 145.05 101.79 144.81 101.79C144.57 101.79 144.33 101.83 144.09 101.83C143.85 101.83 143.62 101.41 143.38 101.41C143.14 101.41 142.9 101.58 142.66 101.57C142.42 101.56 142.19 101.33 141.95 101.33C141.71 101.33 141.47 101.62 141.23 101.62C141 101.62 140.76 101.47 140.52 101.46C140.28 101.45 140.05 101.32 139.8 101.32C139.55 101.32 139.32 101.46 139.08 101.45C138.84 101.44 138.6 101.53 138.36 101.52C138.12 101.51 137.89 101.11 137.65 101.11C137.41 101.11 137.17 101.64 136.93 101.64C136.69 101.64 136.46 101.23 136.22 101.23C135.98 101.23 135.74 101.49 135.5 101.49C135.26 101.49 135.03 101.15 134.79 101.15C134.55 101.15 134.31 101.54 134.07 101.53C133.83 101.52 133.59 101.7 133.35 101.69C133.11 101.68 132.88 101.44 132.64 101.44C132.4 101.44 132.17 101.32 131.92 101.32C131.67 101.32 131.44 101.45 131.2 101.44C130.96 101.43 130.73 101.07 130.49 101.07C130.25 101.07 130.01 101.69 129.77 101.69C129.53 101.69 129.29 101.61 129.05 101.61C128.81 101.61 128.58 101.15 128.34 101.14C128.1 101.13 127.86 101.6 127.62 101.6C127.38 101.6 127.15 101.21 126.91 101.2C126.67 101.19 126.43 101.17 126.19 101.17C125.95 101.17 125.71 101.62 125.47 101.62C125.23 101.62 124.99 101.38 124.75 101.37C124.51 101.36 124.27 101.49 124.03 101.49C123.79 101.49 123.56 101.06 123.32 101.06C123.08 101.06 122.85 100.98 122.61 100.98C122.37 100.98 122.13 101.22 121.9 101.22C121.67 101.22 121.43 101.05 121.19 101.05C120.95 101.05 120.71 101.3 120.48 101.3C120.25 101.3 120.01 101.38 119.77 101.38C119.53 101.38 119.3 101.35 119.06 101.35C118.82 101.35 118.58 101.38 118.35 101.38C118.12 101.38 117.88 101.21 117.64 101.21C117.4 101.21 117.16 101.54 116.92 101.54C116.68 101.54 116.45 101.01 116.21 101C115.97 100.99 115.73 101.25 115.49 101.25C115.25 101.25 115.01 101.39 114.77 101.39C114.53 101.39 114.3 101.17 114.06 101.17C113.82 101.17 113.58 101.04 113.35 101.03C113.12 101.02 112.87 101.44 112.63 101.44C112.39 101.44 112.15 101.44 111.91 101.44C111.67 101.44 111.43 101.44 111.19 101.44C110.95 101.44 110.72 100.98 110.48 100.98C110.24 100.98 110 100.95 109.76 100.95C109.52 100.95 109.28 100.95 109.04 100.95C108.8 100.95 108.56 101.28 108.32 101.28C108.08 101.28 107.84 101.02 107.6 101.02C107.36 101.02 107.12 101.29 106.88 101.29C106.64 101.29 106.4 101.27 106.16 101.27C105.92 101.27 105.68 100.99 105.44 100.99C105.2 100.99 104.96 101.06 104.72 101.06C104.48 101.06 104.24 101.21 104 101.21C103.76 101.21 103.52 101.15 103.28 101.15C103.04 101.15 102.8 101.1 102.56 101.1C102.32 101.1 102.08 101.16 101.84 101.16C101.6 101.16 101.36 101.36 101.12 101.36C100.88 101.36 100.64 100.92 100.4 100.92C100.16 100.92 99.92 101.47 99.68 101.47C99.44 101.47 99.2 100.98 98.96 100.98C98.72 100.98 98.48 101.13 98.24 101.13C98 101.13 97.76 100.84 97.52 100.84C97.28 100.84 97.04 101.38 96.8 101.38C96.56 101.38 96.32 101.2 96.08 101.2C95.84 101.2 95.6 100.95 95.36 100.95C95.12 100.95 94.88 101.19 94.64 101.19C94.4 101.19 94.16 101.23 93.92 101.23C93.68 101.23 93.44 100.93 93.2 100.93C92.96 100.93 92.72 101.28 92.48 101.28C92.24 101.28 92 100.86 91.76 100.86C91.52 100.86 91.28 101.05 91.04 101.05C90.8 101.05 90.56 101.2 90.32 101.2C90.08 101.2 89.84 101.2 89.6 101.2C89.36 101.2 89.12 100.82 88.88 100.82C88.64 100.82 88.4 100.78 88.16 100.78C87.92 100.78 87.68 100.92 87.44 100.92C87.2 100.92 86.96 101.24 86.72 101.24C86.48 101.24 86.24 101.45 86 101.45C85.76 101.45 85.52 100.87 85.28 100.87C85.04 100.87 84.8 100.77 84.56 100.77C84.32 100.77 84.08 101.05 83.84 101.05C83.6 101.05 83.36 101.29 83.12 101.29C82.88 101.29 82.64 101.08 82.4 101.08C82.16 101.08 81.92 100.82 81.68 100.82C81.44 100.82 81.2 101.11 80.96 101.11C80.72 101.11 80.48 101.17 80.24 101.17C80 101.17 79.76 101.17 79.52 101.17C79.28 101.17 79.04 101.13 78.8 101.13C78.56 101.13 78.32 101.15 78.08 101.15C77.84 101.15 77.6 100.92 77.36 100.92C77.12 100.92 76.88 101.18 76.64 101.18C76.4 101.18 76.16 101.44 75.92 101.44C75.68 101.44 75.44 100.75 75.2 100.75C74.96 100.75 74.72 100.87 74.48 100.87C74.24 100.87 74 100.83 73.76 100.83C73.52 100.83 73.28 101.04 73.04 101.04C72.8 101.04 72.56 101.42 72.32 101.41C72.08 101.4 71.84 101.21 71.6 101.21C71.36 101.21 71.12 100.78 70.88 100.78C70.64 100.78 70.4 101.06 70.16 101.06C69.92 101.06 69.68 101.29 69.44 101.29C69.2 101.29 68.96 101.26 68.72 101.26C68.48 101.26 68.24 100.72 68 100.72C67.76 100.72 67.52 101.09 67.28 101.09C67.04 101.09 66.8 100.88 66.56 100.88C66.32 100.88 66.08 101.16 65.84 101.16C65.6 101.16 65.36 100.96 65.12 100.96C64.88 100.96 64.64 101.03 64.4 101.03C64.16 101.03 63.92 101.16 63.68 101.16C63.44 101.16 63.2 100.85 62.96 100.85C62.72 100.85 62.48 100.83 62.24 100.83C62 100.83 61.76 101.28 61.52 101.28C61.28 101.28 61.04 101.08 60.8 101.08C60.56 101.08 60.32 100.98 60.08 100.98C59.84 100.98 59.6 101.29 59.36 101.29C59.12 101.29 58.88 101.06 58.64 101.05C58.4 101.04 58.16 101.25 57.92 101.25C57.68 101.25 57.44 101.33 57.2 101.33C56.96 101.33 56.72 100.97 56.48 100.97C56.24 100.97 56 101.16 55.76 101.16C55.52 101.16 55.28 101.09 55.04 101.09C54.8 101.09 54.56 100.71 54.32 100.71C54.08 100.71 53.84 101.33 53.6 101.33C53.36 101.33 53.12 101.36 52.88 101.36C52.64 101.36 52.4 101.11 52.16 101.11C51.92 101.11 51.68 100.86 51.44 100.85C51.2 100.84 50.96 101.03 50.72 101.03C50.48 101.03 50.24 101.23 50 101.23C49.76 101.23 49.52 101.18 49.28 101.18C49.04 101.18 48.8 100.76 48.56 100.76C48.32 100.76 48.08 100.9 47.84 100.9C47.6 100.9 47.36 101.13 47.12 101.13C46.88 101.13 46.64 100.81 46.4 100.8C46.16 100.79 45.92 100.96 45.68 100.96C45.44 100.96 45.2 101.06 44.96 101.06C44.72 101.06 44.48 101.06 44.24 101.06C44 101.06 43.76 100.76 43.52 100.76C43.28 100.76 43.04 101.24 42.8 101.24C42.56 101.24 42.32 100.9 42.08 100.9C41.84 100.9 41.6 100.72 41.36 100.72C41.12 100.72 40.88 100.75 40.64 100.75C40.4 100.75 40.16 100.71 39.92 100.71C39.68 100.71 39.44 101 39.2 101C38.96 101 38.72 100.89 38.48 100.89C38.24 100.89 38 100.86 37.76 100.86C37.52 100.86 37.28 101.35 37.04 101.35C36.8 101.35 36.56 100.99 36.32 100.99C36.08 100.99 35.84 100.98 35.6 100.98C35.36 100.98 35.12 100.96 34.88 100.96C34.64 100.96 34.4 100.99 34.16 100.99C33.92 100.99 33.68 100.95 33.44 100.95C33.2 100.95 32.96 101.33 32.72 101.33C32.48 101.33 32.24 100.79 32 100.79C31.76 100.79 31.52 101.01 31.28 101.01C31.04 101.01 30.8 101.34 30.56 101.34C30.32 101.34 30.08 100.76 29.84 100.76C29.6 100.76 29.36 101.06 29.12 101.06C28.88 101.06 28.64 100.93 28.4 100.93C28.16 100.93 27.92 101.06 27.68 101.06C27.44 101.06 27.2 100.89 26.96 100.89C26.72 100.89 26.48 100.81 26.24 100.81C26 100.81 25.76 101.03 25.52 101.03C25.28 101.03 25.04 101.11 24.8 101.11C24.56 101.11 24.32 101.34 24.08 101.34C23.84 101.34 23.6 101.13 23.36 101.13C23.12 101.13 22.88 101.06 22.64 101.06C22.4 101.06 22.16 100.69 21.92 100.69C21.68 100.69 21.44 100.88 21.2 100.88C20.96 100.88 20.72 101.18 20.48 101.18C20.24 101.18 20 100.88 19.76 100.88C19.52 100.88 19.28 101.16 19.04 101.16C18.8 101.16 18.56 101.29 18.32 101.29C18.08 101.29 17.84 101.15 17.6 101.15C17.36 101.15 17.12 101.15 16.88 101.15C16.64 101.15 16.4 101.1 16.16 101.1C15.92 101.1 15.68 100.88 15.44 100.88C15.2 100.88 14.96 101.33 14.72 101.33C14.48 101.33 14.24 100.98 14 100.98C13.76 100.98 13.52 101.24 13.28 101.24C13.04 101.24 12.8 101.05 12.56 101.05C12.32 101.05 12.08 100.67 11.84 100.67C11.6 100.67 11.36 100.83 11.12 100.83C10.88 100.83 10.64 100.65 10.4 100.65C10.16 100.65 9.92 101.05 9.68 101.05C9.44 101.05 9.19 101.25 8.96 101.25C8.73 101.25 8.48 100.66 8.24 100.66C8 100.66 7.76 100.76 7.52 100.76C7.28 100.76 7.04 100.78 6.8 100.78C6.56 100.78 6.32 101.19 6.09 101.19C5.84 101.19 5.61 101.17 5.38 101.17C5.13 101.17 4.89 101.25 4.66 101.25C4.41 101.25 4.17 101.33 3.94 101.33C3.69 101.33 3.45 100.9 3.23 100.9C2.98 100.9 2.74 100.72 2.52 100.72C2.26 100.72 2.02 101.12 1.81 101.12C1.53 101.12 1.29 100.91 1.09 100.91C0.63 100.91 0.42 101.35 0.31 101.02C0.2 100.69 0.27 100.63 0.27 100.27C0.27 99.91 0.58 99.91 0.58 99.55C0.58 99.19 0.33 99.19 0.33 98.83C0.33 98.47 0.37 98.47 0.37 98.11C0.37 97.75 0.58 97.75 0.58 97.39C0.58 97.03 0.36 97.03 0.36 96.67C0.36 96.31 0.46 96.31 0.46 95.95C0.46 95.59 0.37 95.59 0.37 95.23C0.37 94.87 0.63 94.87 0.63 94.51C0.63 94.15 0.06 94.15 0.06 93.79C0.06 93.43 0.22 93.43 0.22 93.07C0.22 92.71 0.11 92.71 0.11 92.35C0.11 91.99 0.65 91.99 0.65 91.63C0.65 91.27 0.3 91.27 0.3 90.91C0.3 90.55 0.7 90.55 0.7 90.19C0.7 89.83 0.26 89.83 0.26 89.47C0.26 89.11 0.63 89.11 0.63 88.75C0.63 88.39 0.52 88.39 0.52 88.03C0.52 87.67 0.13 87.67 0.13 87.31C0.13 86.95 0.73 86.95 0.73 86.59C0.73 86.23 0.51 86.23 0.51 85.87C0.51 85.51 0.67 85.51 0.67 85.15C0.67 84.79 0.52 84.79 0.52 84.43C0.52 84.07 0.37 84.07 0.37 83.71C0.37 83.35 0.59 83.35 0.59 82.99C0.59 82.63 0.4 82.63 0.4 82.27C0.4 81.91 0.28 81.91 0.28 81.55C0.28 81.19 0.11 81.19 0.11 80.83C0.11 80.47 0.57 80.47 0.57 80.11C0.57 79.75 0.61 79.75 0.61 79.39C0.61 79.03 0.47 79.03 0.47 78.67C0.47 78.31 0.15 78.31 0.15 77.95C0.15 77.59 0.74 77.59 0.74 77.23C0.74 76.87 0.32 76.87 0.32 76.51C0.32 76.15 0.58 76.15 0.58 75.79C0.58 75.43 0.12 75.43 0.12 75.07C0.12 74.71 0.77 74.71 0.77 74.35C0.77 73.99 0.7 73.99 0.7 73.63C0.7 73.27 0.31 73.27 0.31 72.91C0.31 72.55 0.63 72.55 0.63 72.19C0.63 71.83 0.5 71.83 0.5 71.47C0.5 71.11 0.31 71.11 0.31 70.75C0.31 70.39 0.25 70.39 0.25 70.03C0.25 69.67 0.41 69.67 0.41 69.31C0.41 68.95 0.26 68.95 0.26 68.59C0.26 68.23 0.14 68.23 0.14 67.87C0.14 67.51 0.14 67.51 0.14 67.15C0.14 66.79 0.69 66.79 0.69 66.43C0.69 66.07 0 65.97 0 65.61C0 65.25 0.46 65.25 0.46 64.89C0.46 64.53 0.41 64.53 0.41 64.17C0.41 63.81 0.54 63.81 0.54 63.45C0.54 63.09 0.2 63.09 0.2 62.73C0.2 62.37 0.12 62.37 0.12 62.01C0.12 61.65 0.31 61.65 0.31 61.29C0.31 60.93 0.11 60.93 0.11 60.57C0.11 60.21 0.12 60.21 0.12 59.85C0.12 59.49 0.28 59.49 0.28 59.13C0.28 58.77 0.22 58.77 0.22 58.41C0.22 58.05 0.12 58.05 0.12 57.69C0.12 57.33 0.02 57.33 0.02 56.97C0.02 56.61 0.4 56.61 0.4 56.25C0.4 55.89 0.47 55.89 0.47 55.53C0.47 55.17 0.07 55.17 0.07 54.81C0.07 54.45 0.05 54.45 0.05 54.09C0.05 53.73 0.26 53.73 0.26 53.37C0.26 53.01 0.36 53.01 0.36 52.65C0.36 52.29 0.36 52.29 0.36 51.93C0.36 51.57 0.32 51.57 0.32 51.21C0.32 50.85 0.03 50.85 0.03 50.49C0.03 50.13 0.4 50.13 0.4 49.77C0.4 49.41 0.07 49.41 0.07 49.05C0.07 48.69 0.56 48.69 0.56 48.33C0.56 47.97 0.33 47.97 0.33 47.61C0.33 47.25 0.34 47.25 0.34 46.89C0.34 46.53 0.61 46.53 0.61 46.17C0.61 45.81 0.48 45.81 0.48 45.45C0.48 45.09 0.09 45.09 0.09 44.73C0.09 44.37 0.31 44.37 0.31 44.01C0.31 43.65 0.41 43.65 0.41 43.29C0.41 42.93 0.4 42.93 0.4 42.57C0.4 42.21 0.17 42.21 0.17 41.85C0.17 41.49 0.13 41.49 0.13 41.13C0.13 40.77 0.04 40.77 0.04 40.41C0.04 40.05 0.23 40.05 0.23 39.69C0.23 39.33 0.36 39.33 0.36 38.97C0.36 38.61 0.4 38.61 0.4 38.25C0.4 37.89 0.66 37.89 0.66 37.53C0.66 37.17 0.53 37.17 0.53 36.81C0.53 36.45 0.09 36.45 0.09 36.09C0.09 35.73 0.52 35.73 0.52 35.37C0.52 35.01 0.03 35.01 0.03 34.65C0.03 34.29 0.33 34.29 0.33 33.93C0.33 33.57 0.19 33.57 0.19 33.21C0.19 32.85 0.01 32.85 0.01 32.49C0.01 32.13 0.28 32.13 0.28 31.77C0.28 31.41 0.36 31.41 0.36 31.05C0.36 30.69 0.5 30.69 0.5 30.33C0.5 29.97 0.37 29.97 0.37 29.6C0.37 29.23 0.2 29.24 0.2 28.88C0.2 28.52 0.62 28.52 0.62 28.16C0.62 27.8 0.02 27.8 0.02 27.44C0.02 27.08 0.6 27.08 0.6 26.72C0.6 26.36 0.48 26.36 0.48 26C0.48 25.64 0.45 25.64 0.45 25.28C0.45 24.92 0.5 24.92 0.5 24.56C0.5 24.2 0.37 24.2 0.37 23.84C0.37 23.48 0.57 23.48 0.57 23.11C0.57 22.74 0.4 22.75 0.4 22.38C0.4 22.01 0.63 22.02 0.63 21.65C0.63 21.28 0.51 21.29 0.51 20.93C0.51 20.57 0.47 20.57 0.47 20.21C0.47 19.85 0.65 19.85 0.65 19.49C0.65 19.13 0.65 19.13 0.65 18.77C0.65 18.41 0.06 18.41 0.06 18.04C0.06 17.67 0.17 17.68 0.17 17.31C0.17 16.94 0.54 16.95 0.54 16.58C0.54 16.21 0.28 16.22 0.28 15.85C0.28 15.48 0.56 15.49 0.56 15.12C0.56 14.75 0.58 14.76 0.58 14.4C0.58 14.04 0.54 14.04 0.54 13.68C0.54 13.32 0.06 13.32 0.06 12.96C0.06 12.6 0.06 12.6 0.06 12.23C0.06 11.86 0.53 11.87 0.53 11.5C0.53 11.13 0.26 11.14 0.26 10.77C0.26 10.4 0.14 10.41 0.14 10.05C0.14 9.68996 0.05 9.68996 0.05 9.31996C0.05 8.94996 0.37 8.95997 0.37 8.58997C0.37 8.21997 0.16 8.22995 0.16 7.85995C0.16 7.48995 0.35 7.49996 0.35 7.12996C0.35 6.75996 0.27 6.76996 0.27 6.39996C0.27 6.02996 0.57 6.03996 0.57 5.66996C0.57 5.29996 0.39 5.30996 0.39 4.93996C0.39 4.56996 0.48 4.57996 0.48 4.20996C0.48 3.83996 0.07 3.83996 0.07 3.47996C0.07 3.11996 0.2 3.10996 0.2 2.74996C0.2 2.38996 0.32 2.37996 0.32 2.01996C0.32 1.65996 0.28 1.64996 0.4 1.29996C0.52 0.949957 0.59 1.47996 1.06 1.47996C1.26 1.47996 1.5 1.50996 1.77 1.50996C1.99 1.50996 2.22 1.60996 2.48 1.60996C2.7 1.60996 2.94 1.29996 3.19 1.29996C3.42 1.29996 3.65 0.969963 3.9 0.969963C4.13 0.969963 4.37 1.54996 4.62 1.54996C4.85 1.54996 5.09 1.30996 5.33 1.30996C5.56 1.30996 5.8 1.20996 6.05 1.20996C6.28 1.20996 6.52 1.11996 6.77 1.11996C7.02 1.11996 7.24 1.41996 7.49 1.41996C7.74 1.41996 7.96 1.03996 8.21 1.03996C8.46 1.03996 8.68 0.929962 8.93 0.929962C9.18 0.929962 9.4 1.04996 9.65 1.04996C9.9 1.04996 10.13 1.10996 10.37 1.10996C10.61 1.10996 10.85 1.30996 11.09 1.30996C11.33 1.30996 11.57 1.52996 11.81 1.52996C12.05 1.52996 12.29 1.35996 12.53 1.35996C12.77 1.35996 13.01 1.09996 13.25 1.09996C13.49 1.09996 13.73 1.26996 13.97 1.26996C14.21 1.26996 14.45 1.12996 14.69 1.12996C14.93 1.12996 15.16 1.33996 15.4 1.33996C15.64 1.33996 15.87 1.21996 16.11 1.21996C16.35 1.21996 16.58 1.04996 16.82 1.04996C17.06 1.04996 17.29 1.58996 17.53 1.58996C17.77 1.58996 18 1.21996 18.24 1.21996C18.48 1.21996 18.71 1.18996 18.95 1.18996C19.19 1.18996 19.42 1.11996 19.66 1.11996C19.9 1.11996 20.13 1.28996 20.37 1.28996C20.61 1.28996 20.84 1.28996 21.08 1.28996C21.32 1.28996 21.55 0.999962 21.79 0.999962C22.03 0.999962 22.27 1.37996 22.51 1.37996C22.75 1.37996 22.99 1.47996 23.23 1.47996C23.47 1.47996 23.7 1.25996 23.94 1.25996C24.18 1.25996 24.42 1.17996 24.66 1.17996C24.9 1.17996 25.14 1.26996 25.38 1.26996C25.62 1.26996 25.86 1.51996 26.1 1.50996C26.34 1.49996 26.58 1.52996 26.82 1.51996C27.06 1.50996 27.3 1.19996 27.54 1.19996C27.78 1.19996 28.02 0.879959 28.26 0.879959C28.5 0.879959 28.74 1.30996 28.98 1.30996C29.22 1.30996 29.46 1.30996 29.7 1.30996C29.94 1.30996 30.18 1.46996 30.42 1.46996C30.66 1.46996 30.9 1.37996 31.14 1.36996C31.38 1.35996 31.62 1.05996 31.86 1.05996C32.1 1.05996 32.33 0.979963 32.57 0.969963C32.81 0.959963 33.05 1.02996 33.28 1.02996C33.51 1.02996 33.76 1.28996 34 1.28996C34.24 1.28996 34.48 1.10996 34.71 1.10996C34.94 1.10996 35.19 1.28996 35.43 1.28996C35.67 1.28996 35.91 1.25996 36.15 1.25996C36.39 1.25996 36.63 1.09996 36.87 1.09996C37.11 1.09996 37.35 1.09996 37.59 1.09996C37.83 1.09996 38.07 1.38996 38.31 1.38996C38.55 1.38996 38.79 1.27996 39.03 1.27996C39.27 1.27996 39.51 1.25996 39.75 1.25996C39.99 1.25996 40.23 1.35996 40.47 1.35996C40.71 1.35996 40.95 0.869957 41.19 0.869957C41.43 0.869957 41.67 1.17996 41.91 1.17996C42.15 1.17996 42.39 1.29996 42.63 1.29996C42.87 1.29996 43.11 1.49996 43.35 1.49996C43.59 1.49996 43.83 1.40996 44.07 1.40996C44.31 1.40996 44.55 1.48996 44.79 1.47996C45.03 1.46996 45.27 1.39996 45.51 1.39996C45.75 1.39996 45.99 1.11996 46.23 1.11996C46.47 1.11996 46.71 1.41996 46.95 1.41996C47.19 1.41996 47.43 0.84996 47.67 0.84996C47.91 0.84996 48.15 1.18996 48.39 1.18996C48.63 1.18996 48.87 1.20996 49.11 1.20996C49.35 1.20996 49.59 0.869957 49.83 0.869957C50.07 0.869957 50.31 0.839958 50.55 0.839958C50.79 0.839958 51.03 0.779961 51.27 0.779961C51.51 0.779961 51.75 1.29996 51.99 1.29996C52.23 1.29996 52.47 1.38996 52.71 1.38996C52.95 1.38996 53.19 0.819962 53.43 0.819962C53.67 0.819962 53.91 0.949959 54.15 0.949959C54.39 0.949959 54.63 1.40996 54.87 1.40996C55.11 1.40996 55.35 1.16996 55.59 1.16996C55.83 1.16996 56.07 0.959959 56.31 0.949959C56.55 0.939959 56.79 1.18996 57.03 1.18996C57.27 1.18996 57.51 1.26996 57.75 1.26996C57.99 1.26996 58.23 0.869957 58.47 0.869957C58.71 0.869957 58.95 1.29996 59.19 1.28996C59.43 1.27996 59.67 0.809959 59.91 0.809959C60.15 0.809959 60.39 1.35996 60.63 1.35996C60.87 1.35996 61.11 0.839958 61.35 0.839958C61.59 0.839958 61.83 0.779961 62.07 0.779961C62.31 0.779961 62.55 1.22996 62.79 1.22996C63.03 1.22996 63.27 1.16996 63.51 1.16996C63.75 1.16996 63.99 0.999962 64.23 0.999962C64.47 0.999962 64.71 1.04996 64.95 1.04996C65.19 1.04996 65.43 1.26996 65.67 1.26996C65.91 1.26996 66.15 1.38996 66.39 1.38996C66.63 1.38996 66.87 1.38996 67.11 1.38996C67.35 1.38996 67.59 1.37996 67.83 1.37996C68.07 1.37996 68.31 1.13996 68.55 1.13996C68.79 1.13996 69.03 1.17996 69.27 1.17996C69.51 1.17996 69.75 1.31996 69.99 1.31996C70.23 1.31996 70.47 0.92996 70.71 0.91996C70.95 0.90996 71.19 1.34996 71.43 1.34996C71.67 1.34996 71.91 0.699959 72.15 0.699959C72.39 0.699959 72.63 1.31996 72.87 1.31996C73.11 1.31996 73.35 1.36996 73.59 1.36996C73.83 1.36996 74.07 0.909958 74.31 0.909958C74.55 0.909958 74.79 0.789963 75.03 0.789963C75.27 0.789963 75.51 1.06996 75.75 1.06996C75.99 1.06996 76.23 1.11996 76.47 1.11996C76.71 1.11996 76.95 0.769958 77.18 0.769958C77.41 0.769958 77.65 0.729963 77.89 0.719963L77.87 0.679962Z" fill="white"/>
</svg>
