<svg width="21" height="35" viewBox="0 0 21 35" fill="none" xmlns="http://www.w3.org/2000/svg">
<path d="M4.30588 34.5715C4.13523 34.5715 3.99561 34.5353 3.88702 34.5043C3.86633 34.4991 3.84048 34.494 3.81979 34.4888C3.675 34.4733 3.49403 34.4474 3.31821 34.3957C3.12688 34.344 2.98726 34.2354 2.88901 34.1372C2.73387 34.1372 2.55289 34.101 2.3719 33.982C2.14437 33.8321 2.04095 33.6201 1.98407 33.5115C1.92201 33.4391 1.87546 33.3667 1.83926 33.2943C1.66344 33.2426 1.46694 33.1392 1.32215 32.922C1.17219 32.6944 1.16185 32.4669 1.16185 32.3221C1.11531 32.229 1.06877 32.1411 1.0274 32.0429C0.93949 31.836 0.944664 31.6395 0.965348 31.5051C0.949835 31.4844 0.939516 31.4585 0.924002 31.4327C0.779212 31.3189 0.598225 31.1431 0.536172 30.8587C0.47929 30.6053 0.541345 30.3933 0.603398 30.2537C0.582714 30.1761 0.567187 30.0985 0.556845 30.021C0.541331 29.9176 0.541316 29.8141 0.541316 29.7159V29.7056C0.494776 29.6176 0.443066 29.5091 0.412039 29.3798C0.339644 29.2557 0.25693 29.0954 0.241416 28.8782C0.236245 28.8006 0.231059 28.723 0.225888 28.6455L0.194863 28.1129C0.17935 27.8802 0.262097 27.6992 0.334492 27.5699C0.318979 27.4975 0.308643 27.4199 0.308643 27.3475C0.308643 27.2648 0.313803 27.1872 0.329316 27.12C0.225894 26.9907 0.137984 26.8149 0.132812 26.5874V26.1996C0.132812 25.9514 0.231072 25.76 0.303467 25.6411C0.303467 25.6256 0.303467 25.6049 0.303467 25.5894L0.318964 25.1136C0.282766 24.9895 0.251742 24.8447 0.256913 24.6741V24.5138C0.262084 24.4414 0.267271 24.3638 0.272442 24.2914C0.282784 24.1208 0.334479 23.9812 0.38619 23.8777C0.360335 23.7743 0.344823 23.6606 0.355165 23.5261C0.365507 23.3503 0.432746 23.2055 0.49997 23.0969C0.479286 23.0038 0.463753 22.8952 0.479266 22.7763C0.489608 22.6625 0.520642 22.5643 0.551668 22.4816C0.499958 22.3523 0.458582 22.192 0.479266 22.0058C0.510292 21.7576 0.629232 21.5818 0.742996 21.4629C0.670601 21.3129 0.598226 21.1112 0.634423 20.8682C0.634423 20.8578 0.634423 20.832 0.634423 20.8113C0.634423 20.7027 0.634407 20.5941 0.64992 20.4855C0.691289 20.2425 0.815393 20.0718 0.939499 19.9581C0.867104 19.8029 0.80506 19.5961 0.8516 19.3531C0.8516 19.3272 0.851605 19.3013 0.856776 19.2703C0.861947 19.1669 0.872293 19.0686 0.892977 18.9704V18.9445C0.892977 18.8566 0.8878 18.7274 0.918826 18.5877C0.955024 18.4223 1.02742 18.293 1.11015 18.1947C1.09464 18.0913 1.09462 17.9724 1.12565 17.8483C1.1877 17.5794 1.35837 17.4087 1.46696 17.3156C1.5135 17.2277 1.56522 17.1554 1.60659 17.0985C1.61693 17.0002 1.62725 16.8968 1.65311 16.8037L1.73069 16.5141C1.72035 16.3797 1.71518 16.2246 1.76689 16.0436C1.82894 15.8316 1.94786 15.6919 2.04094 15.5937C2.05645 15.5058 2.07196 15.423 2.09782 15.3403C2.09782 15.3248 2.103 15.2989 2.10817 15.2782C2.11851 15.1955 2.13404 15.1128 2.15472 15.0352C2.15472 14.9421 2.15471 14.8439 2.17539 14.7353C2.14954 14.5853 2.12885 14.394 2.20642 14.1768C2.21676 14.1458 2.22193 14.1148 2.23227 14.0786C2.25295 13.9855 2.27882 13.8976 2.30985 13.8097C2.38224 13.6028 2.52185 13.4632 2.65112 13.3753C2.66147 13.3029 2.67697 13.2253 2.708 13.1426C2.7442 13.0495 2.79074 12.9719 2.83728 12.9047C2.81142 12.7548 2.81144 12.5789 2.88901 12.3876C2.97691 12.1756 3.1217 12.0412 3.24581 11.9532C3.26649 11.8808 3.28718 11.8084 3.31304 11.7412C3.35441 11.643 3.4061 11.5654 3.45263 11.5034C3.43712 11.3586 3.44748 11.1827 3.53021 10.9966L3.58709 10.8622C3.61811 10.7898 3.64914 10.7174 3.68016 10.645C3.74222 10.5105 3.82496 10.4123 3.91287 10.3399C3.91287 10.2209 3.93872 10.0917 4.00594 9.95721C4.05765 9.85379 4.11973 9.76071 4.19213 9.66763L4.2283 9.61592C4.26449 9.5487 4.31104 9.46596 4.36275 9.38839C4.38343 9.36254 4.39897 9.33151 4.41448 9.30565C4.45068 9.23326 4.49204 9.16086 4.5334 9.09364C4.5334 9.09364 4.5334 9.08847 4.5334 9.0833C4.5334 8.93851 4.55408 8.75235 4.65233 8.56619C4.74024 8.40589 4.85917 8.29729 4.97293 8.2249C4.99362 8.13182 5.02465 8.02839 5.08154 7.92497C5.10222 7.88877 5.1229 7.84741 5.14359 7.80604C5.17978 7.73365 5.216 7.65608 5.25737 7.58885C5.30908 7.49577 5.37629 7.4182 5.44352 7.36132C5.44352 7.21136 5.46937 7.04589 5.56762 6.88042C5.65553 6.73563 5.76929 6.63738 5.88822 6.57533C5.90891 6.4719 5.9451 6.3633 6.01232 6.25988C6.13126 6.06855 6.29675 5.96513 6.44671 5.90825C6.44671 5.89791 6.45186 5.88757 6.45703 5.87723C6.45703 5.71692 6.48289 5.49458 6.62768 5.28773C6.65354 5.24636 6.67941 5.21016 6.70526 5.16879C6.74663 5.10157 6.788 5.02916 6.83454 4.96711C7.01553 4.70856 7.27407 4.62066 7.4654 4.58963C7.48091 4.48104 7.51196 4.35176 7.58435 4.22765C7.62055 4.0932 7.66706 3.92774 7.786 3.76743C7.81703 3.72607 7.84808 3.68469 7.87393 3.64332C7.92047 3.58126 7.96181 3.51405 8.00835 3.45717C8.12729 3.30721 8.26693 3.21929 8.38586 3.16241C8.40655 3.11587 8.43238 3.06416 8.46341 3.01245C8.49961 2.86248 8.55652 2.66599 8.71682 2.49018C8.83058 2.36607 8.94951 2.28849 9.03225 2.23678L9.0581 2.21093C9.10981 2.1282 9.19255 1.99892 9.32183 1.88515C9.53901 1.699 9.77688 1.6628 9.96303 1.6628C10.0096 1.61626 10.0665 1.56972 10.1285 1.52835L10.2112 1.4663C10.2681 1.42493 10.3198 1.38356 10.3819 1.34736C10.475 1.21808 10.6146 1.04745 10.8524 0.954367C11.1679 0.82509 11.442 0.912992 11.623 0.995729C11.6695 0.985387 11.7264 0.975046 11.7833 0.964704C11.9177 0.907822 12.1297 0.830254 12.3934 0.866452C12.5693 0.892307 12.7089 0.959536 12.8071 1.01642C12.9933 1.0009 13.2415 1.01641 13.4794 1.18706C13.6603 1.31633 13.8103 1.48182 13.9137 1.61626L13.9706 1.67831C14.0637 1.77657 14.1878 1.91101 14.2757 2.09199C14.3791 2.29884 14.3895 2.50051 14.3947 2.62461V2.67633C14.4308 2.79526 14.4308 2.90902 14.4153 3.01245C14.5394 3.14689 14.6532 3.33306 14.6636 3.58644C14.6739 3.78812 14.6118 3.95359 14.5394 4.08286C14.5808 4.19663 14.6067 4.32591 14.5963 4.47587C14.586 4.63617 14.5343 4.77061 14.4774 4.87404C14.5084 4.98263 14.5291 5.11192 14.5084 5.25671C14.4929 5.41184 14.436 5.54112 14.3636 5.64454C14.3998 5.7583 14.4153 5.88758 14.3895 6.03237C14.3584 6.23404 14.2602 6.38916 14.1568 6.50292C14.1671 6.58566 14.1671 6.67874 14.1464 6.77699C14.1309 6.87007 14.1051 6.95799 14.0792 7.0459C14.0689 7.08209 14.0585 7.11829 14.0482 7.15448C14.0223 7.27859 13.981 7.37684 13.9344 7.45957C13.9603 7.58885 13.9758 7.74398 13.9344 7.92497C13.8879 8.11113 13.8 8.25075 13.7431 8.33349C13.7431 8.33349 13.7431 8.33865 13.7379 8.34382C13.7224 8.39036 13.7069 8.43691 13.6862 8.48345C13.7379 8.63859 13.7741 8.84026 13.7069 9.06779C13.6552 9.2436 13.5569 9.37288 13.4587 9.46595C13.4587 9.56421 13.4535 9.67281 13.4121 9.7814C13.3449 9.98307 13.2312 10.1175 13.1381 10.2054C13.1329 10.2468 13.1226 10.283 13.1122 10.3244C13.1329 10.4743 13.1536 10.6656 13.0709 10.8828V10.8932C13.0709 10.9811 13.0502 11.1155 12.9933 11.2603C12.9312 11.4258 12.8382 11.5447 12.7761 11.6223C12.7709 11.7102 12.7502 11.8343 12.6985 11.9688C12.6934 11.9894 12.6882 12.0153 12.683 12.0412C12.6623 12.1394 12.6313 12.2428 12.5951 12.3359C12.5589 12.429 12.5124 12.5169 12.4607 12.6048C12.4452 12.6307 12.4296 12.6513 12.4193 12.6772C12.3883 12.7496 12.3572 12.8168 12.3262 12.8892C12.3055 12.9306 12.2849 12.9771 12.2642 13.0185C12.2176 13.1271 12.1607 13.215 12.1039 13.2822C12.1401 13.2512 12.1814 13.2202 12.2228 13.1891C12.2435 13.1736 12.2642 13.1633 12.2797 13.1478C12.4348 12.9875 12.6158 12.9202 12.7399 12.884C12.7606 12.8634 12.7813 12.8478 12.802 12.8272C12.8381 12.791 12.8744 12.7599 12.9106 12.7237C12.9468 12.6875 12.9778 12.6513 13.0088 12.6151C13.0605 12.5531 13.1174 12.491 13.1743 12.4341C13.226 12.3773 13.2828 12.3256 13.3397 12.279C13.3759 12.1187 13.4432 11.9222 13.619 11.7516C13.831 11.5447 14.0844 11.4982 14.2498 11.4827C14.2654 11.4723 14.2861 11.4568 14.3016 11.4465C14.3274 11.4258 14.3533 11.4103 14.3739 11.3896C14.4463 11.3224 14.5239 11.2707 14.5912 11.2293C14.6377 11.0742 14.7153 10.8983 14.8859 10.7535C14.9583 10.6915 15.0307 10.6501 15.0979 10.6139C15.1444 10.4588 15.2272 10.2933 15.3927 10.1589C15.5478 10.0296 15.7184 9.98306 15.8684 9.96755C15.9149 9.90033 15.977 9.83828 16.0494 9.7814C16.1683 9.68832 16.2924 9.64177 16.3959 9.61074C16.4631 9.50732 16.5562 9.39873 16.6906 9.31599C16.8199 9.23325 16.9491 9.19706 17.0629 9.17638C17.1405 9.07295 17.2543 8.96437 17.4094 8.89197C17.6369 8.78338 17.8593 8.79889 18.0248 8.83508C18.123 8.7782 18.2419 8.72649 18.3919 8.70581C18.6453 8.66961 18.8418 8.7058 18.9814 8.73683C19.1727 8.73166 19.4675 8.72649 19.7415 8.93333L19.7829 8.95918C19.9122 9.03675 20.1345 9.1712 20.2793 9.41424C20.4707 9.73485 20.4034 10.0503 20.3362 10.2364C20.3466 10.2726 20.3569 10.3088 20.3672 10.3502C20.4913 10.5002 20.6465 10.7174 20.6413 11.0276C20.6413 11.3275 20.4913 11.5396 20.3621 11.674C20.3621 11.7412 20.3621 11.8188 20.3414 11.9015C20.3207 12.036 20.269 12.1446 20.2225 12.2325C20.2535 12.3618 20.269 12.5169 20.2276 12.6927C20.1966 12.8375 20.1397 12.9461 20.1035 13.0288L20.0777 13.0857C20.057 13.1684 20.0208 13.2667 19.9794 13.3598C19.9691 13.3856 19.9536 13.4115 19.9484 13.4373C19.9225 13.5252 19.8967 13.608 19.8708 13.6907L19.8605 13.7218C19.876 13.8614 19.8812 14.0372 19.8191 14.2285C19.7829 14.3319 19.7364 14.4147 19.695 14.4871C19.7209 14.637 19.7312 14.818 19.6588 15.0093C19.5916 15.1852 19.4882 15.3041 19.3796 15.392C19.3796 15.4954 19.3589 15.604 19.3072 15.7178C19.2141 15.9401 19.0538 16.0746 18.9193 16.1573C18.9659 16.3383 18.9866 16.571 18.8625 16.8192C18.7539 17.0364 18.5832 17.1657 18.4333 17.2381C18.4229 17.2691 18.4126 17.3001 18.3971 17.3363C18.3815 17.4708 18.3557 17.6311 18.2678 17.8017C18.2161 17.8948 18.1592 17.9724 18.0971 18.0344C18.1023 18.1792 18.0816 18.3395 17.9937 18.505C17.9213 18.6395 17.8334 18.7377 17.7765 18.7997L17.7403 18.8411C17.6628 18.9859 17.5387 19.0945 17.4611 19.1617C17.4404 19.1979 17.4145 19.2289 17.3887 19.2548C17.4145 19.4254 17.4042 19.6271 17.2904 19.8288C17.1663 20.0512 16.9854 20.1649 16.8199 20.227C16.8251 20.3873 16.8147 20.5889 16.6958 20.7906C16.551 21.044 16.3235 21.1578 16.1477 21.2095C16.127 21.2457 16.1114 21.2767 16.0907 21.3129C16.0701 21.3491 16.0494 21.3905 16.0339 21.4267C16.0339 21.4267 16.0339 21.4318 16.0339 21.437C16.0546 21.618 16.0597 21.8507 15.9201 22.0834C15.8426 22.2127 15.7495 22.3006 15.6512 22.3678C15.6357 22.4816 15.5995 22.6057 15.5219 22.7298C15.4444 22.859 15.3513 22.9521 15.2892 23.0142L15.253 23.0504C15.1548 23.2107 14.9997 23.3193 14.9014 23.3813C14.8704 23.4227 14.8342 23.4589 14.8083 23.4899C14.798 23.6347 14.767 23.8002 14.6584 23.9708C14.6015 24.0587 14.5394 24.1363 14.4722 24.2087L14.4463 24.2345C14.4205 24.3276 14.3895 24.4259 14.3378 24.5241C14.3171 24.6586 14.2757 24.8344 14.1619 25.005C14.1102 25.0774 14.0533 25.1498 13.9965 25.2222C13.9758 25.2481 13.9499 25.2791 13.9292 25.305L13.8465 25.4291C13.8051 25.4963 13.7638 25.5583 13.7224 25.6256C13.6449 25.7393 13.5518 25.8221 13.4794 25.8841C13.4535 26.0031 13.407 26.1375 13.3139 26.2668C13.2001 26.4271 13.0657 26.5253 12.9778 26.5822L12.9623 26.6132C12.9157 26.696 12.8692 26.7735 12.8123 26.8511C12.7037 27.0011 12.5744 27.0942 12.4917 27.151C12.4917 27.1614 12.4813 27.1665 12.4762 27.1769C12.4296 27.2648 12.3779 27.3475 12.321 27.4303C12.228 27.5544 12.1194 27.6371 12.0159 27.694C11.9849 27.8026 11.9384 27.9164 11.8505 28.025C11.7574 28.1491 11.654 28.2318 11.5816 28.2887L11.5402 28.3197C11.504 28.3662 11.4627 28.4076 11.4213 28.4438C11.4213 28.6145 11.3799 28.8058 11.2351 28.9868C11.1162 29.1367 10.9766 29.2246 10.8938 29.2815C10.8835 29.297 10.8731 29.3125 10.8628 29.3229C10.8111 29.4005 10.7594 29.4728 10.7025 29.5452C10.6766 29.5763 10.6559 29.6073 10.6301 29.6435C10.5784 29.7159 10.5318 29.7883 10.475 29.8555C10.3198 30.0417 10.1233 30.1244 9.99406 30.1709L9.85961 30.3261C9.8079 30.3881 9.75101 30.4347 9.6993 30.476C9.68379 30.6415 9.63208 30.8328 9.47695 31.0035C9.31148 31.1896 9.12016 31.2672 9.00122 31.3086C8.96502 31.3344 8.93399 31.3603 8.89779 31.381C8.86677 31.5206 8.80472 31.6809 8.67544 31.8205C8.60305 31.8981 8.53064 31.9601 8.46859 32.0015C8.42722 32.1463 8.35999 32.3118 8.21003 32.4617C8.10144 32.5755 7.98252 32.6479 7.90496 32.6944L7.8584 32.7255C7.68776 32.8909 7.47574 32.9426 7.34129 32.9737C7.27407 33.015 7.21203 33.0461 7.15514 33.0668C7.09309 33.1857 7 33.3201 6.85004 33.4287C6.74661 33.5063 6.63804 33.5477 6.54496 33.5787C6.47257 33.7235 6.35364 33.8734 6.16231 33.9769C6.05371 34.0337 5.94511 34.0803 5.83135 34.1268L5.74345 34.163C5.5728 34.2354 5.41249 34.2509 5.30907 34.2613H5.25737C5.14877 34.3026 5.04533 34.3078 4.94708 34.3026C4.81264 34.4474 4.61613 34.5767 4.33172 34.587C4.31621 34.587 4.30586 34.587 4.29035 34.587L4.30588 34.5715ZM3.90252 32.9375C3.93871 32.9375 3.97492 32.9478 4.00594 32.953C4.11971 32.8185 4.29036 32.6893 4.5334 32.6479C4.76093 32.6117 4.96261 32.6634 5.08671 32.7151C5.1074 32.7151 5.13326 32.7099 5.15912 32.7048L5.23666 32.6841C5.30389 32.529 5.40732 32.3531 5.609 32.2239C5.71242 32.1566 5.81582 32.1204 5.9089 32.0998C5.96578 32.0118 6.03817 31.9188 6.13643 31.836C6.29156 31.7119 6.44671 31.6602 6.54496 31.6292C6.69492 31.5206 6.85005 31.4792 6.95864 31.4585C6.9845 31.443 7.00519 31.4223 7.03104 31.412C7.07241 31.2776 7.13444 31.1276 7.26372 30.988C7.31543 30.9311 7.36716 30.8897 7.41887 30.8484C7.44473 30.6881 7.50159 30.5071 7.65155 30.3416C7.80151 30.1761 7.97733 30.0986 8.08075 30.0572C8.11178 30.0313 8.14798 30.0055 8.17901 29.9848C8.19969 29.8348 8.25659 29.6745 8.38586 29.5246C8.51514 29.3746 8.66508 29.2919 8.75299 29.2453L8.93917 29.0281C9.08913 28.8523 9.25978 28.7696 9.39423 28.7282C9.4356 28.6713 9.47697 28.6093 9.52351 28.5524C9.54936 28.5214 9.57002 28.4904 9.5907 28.4593C9.63724 28.3869 9.6838 28.3197 9.74068 28.2525C9.77171 28.2163 9.80273 28.1801 9.83376 28.1491C9.82341 27.9629 9.84926 27.7354 10.0147 27.5285C10.1699 27.332 10.3612 27.2441 10.4853 27.1976C10.5112 27.1769 10.5319 27.1562 10.5525 27.1355C10.5784 27.0011 10.6249 26.8408 10.7387 26.6908C10.8731 26.515 11.0335 26.4219 11.1627 26.3702C11.1989 26.303 11.2403 26.2358 11.2868 26.1737C11.3954 26.0237 11.5247 25.9307 11.6074 25.8738C11.6126 25.8583 11.6229 25.8479 11.6281 25.8324C11.6695 25.7548 11.716 25.6825 11.7677 25.6101C11.8505 25.4963 11.9384 25.4187 12.0159 25.3618C12.0418 25.2481 12.0883 25.1188 12.1762 24.9895C12.2848 24.8292 12.4193 24.7361 12.502 24.6741C12.5175 24.6482 12.5382 24.6172 12.5537 24.5914C12.5899 24.5345 12.6261 24.4776 12.6623 24.4207C12.714 24.3483 12.7657 24.2811 12.8226 24.2139C12.8226 24.2139 12.833 24.2035 12.8382 24.1983C12.8588 24.0846 12.8899 23.9501 12.9674 23.8105C13.0036 23.6812 13.045 23.5468 13.1381 23.402C13.1795 23.3348 13.2311 23.2727 13.2829 23.2107C13.2932 23.0659 13.3242 22.8901 13.4328 22.7143C13.5104 22.5901 13.6035 22.4971 13.6604 22.4402L13.6965 22.3988C13.7948 22.2385 13.9499 22.1299 14.043 22.073C14.0637 22.042 14.0896 22.0162 14.1102 21.9903C14.1102 21.8403 14.1361 21.6542 14.2447 21.4732C14.3119 21.3594 14.3946 21.2767 14.4774 21.2146C14.4877 21.0905 14.5188 20.9613 14.5963 20.8268C14.6222 20.7854 14.6377 20.7492 14.6584 20.7079C14.6946 20.6355 14.7308 20.5631 14.7721 20.4959C14.798 20.4545 14.8187 20.4131 14.8394 20.3666C14.8756 20.2994 14.9066 20.2321 14.948 20.1649C15.0462 19.9994 15.1755 19.896 15.3048 19.8236C15.3254 19.7409 15.3513 19.653 15.403 19.5702C15.4185 19.4823 15.4547 19.3531 15.5323 19.2186C15.6047 19.0893 15.6977 18.9962 15.796 18.929C15.8063 18.8153 15.8322 18.6963 15.8994 18.5774C16.0028 18.3964 16.1321 18.2826 16.2149 18.2154C16.3028 18.0861 16.401 17.9982 16.4631 17.9465C16.4838 17.9155 16.4993 17.8896 16.52 17.8638C16.4941 17.6931 16.4993 17.4915 16.613 17.2846C16.6958 17.1347 16.8044 17.0261 16.8974 16.9537C16.9129 16.8813 16.9336 16.7985 16.9698 16.7158C16.9905 16.5865 17.0215 16.4417 17.0991 16.2866C17.1663 16.1625 17.2491 16.0694 17.337 16.0022C17.337 15.8936 17.3628 15.7695 17.4197 15.6506C17.4301 15.6247 17.4404 15.5937 17.4507 15.5627C17.4766 15.4799 17.5076 15.3972 17.5438 15.3144C17.6059 15.1697 17.699 15.0662 17.7921 14.9887C17.7921 14.8904 17.8127 14.7818 17.8541 14.6681C17.9162 14.5129 18.0092 14.3992 18.1075 14.3164C18.1075 14.2233 18.123 14.1199 18.1592 14.0113C18.2005 13.8872 18.2678 13.789 18.3195 13.7114C18.3143 13.5976 18.3195 13.4632 18.3609 13.3184L18.4074 13.1736C18.4281 13.1064 18.4488 13.0443 18.4695 12.9771C18.4953 12.8892 18.5315 12.8013 18.5677 12.7134C18.5781 12.6875 18.5884 12.6617 18.5987 12.6358C18.6194 12.5583 18.6453 12.4859 18.6815 12.4083C18.6453 12.2739 18.6194 12.1084 18.6556 11.917C18.6918 11.7464 18.759 11.6223 18.8211 11.5292C18.8211 11.4516 18.8159 11.3482 18.8314 11.2345C18.847 11.1104 18.8883 11.0069 18.94 10.919C18.9142 10.8518 18.8935 10.7742 18.8831 10.6915C18.878 10.6656 18.8625 10.6346 18.8521 10.6036C18.8366 10.5571 18.8211 10.5105 18.8056 10.464C18.7797 10.3812 18.7694 10.3037 18.7642 10.2313C18.7487 10.2313 18.7332 10.2261 18.7177 10.2209C18.7125 10.2209 18.7073 10.2209 18.7022 10.2209C18.6349 10.2675 18.5522 10.314 18.4539 10.3502C18.3195 10.4019 18.1902 10.4123 18.0816 10.4071C18.0299 10.4588 17.9679 10.5053 17.8955 10.5467C17.7817 10.6088 17.6731 10.6398 17.5748 10.6605C17.518 10.738 17.4456 10.8104 17.3525 10.8777C17.2698 10.9397 17.1819 10.9759 17.1043 11.0069C17.0526 11.1155 16.9698 11.2293 16.8457 11.3275C16.7268 11.4258 16.5975 11.4723 16.4786 11.4982C16.432 11.5861 16.3648 11.6688 16.2718 11.7464C16.189 11.8136 16.1011 11.8602 16.0235 11.8964C15.977 12.0256 15.8994 12.1704 15.765 12.2894C15.646 12.398 15.522 12.46 15.4392 12.5014C15.4237 12.5117 15.4185 12.5117 15.4133 12.5117C15.3513 12.5634 15.2892 12.6151 15.222 12.6617C15.1962 12.6824 15.1703 12.6979 15.1445 12.7186C15.0204 12.8323 14.8859 12.8995 14.7618 12.9357C14.7204 13.034 14.6584 13.1271 14.5653 13.2202C14.5136 13.2719 14.4619 13.3184 14.4101 13.365C14.3688 13.4063 14.3222 13.4425 14.286 13.4839C14.2498 13.5201 14.2188 13.5614 14.1826 13.5976C14.1309 13.6545 14.0844 13.7114 14.0275 13.7631C13.9758 13.82 13.9189 13.8717 13.862 13.9234C13.8258 13.9596 13.7896 13.9907 13.7534 14.0268C13.5828 14.2027 13.3915 14.2699 13.2674 14.3061C13.2312 14.3371 13.195 14.363 13.1588 14.394C13.1381 14.4095 13.1174 14.4199 13.1019 14.4354C13.0812 14.4561 13.0553 14.4871 13.0295 14.5181C13.0036 14.5491 12.9778 14.5802 12.9519 14.606C12.9209 14.6939 12.8847 14.7922 12.8175 14.8956C12.7813 15.0455 12.7192 15.242 12.5486 15.4127C12.4917 15.4696 12.4348 15.5213 12.3727 15.573C12.3417 15.5989 12.3107 15.6247 12.2797 15.6557C12.1142 15.8264 11.9229 15.8884 11.7677 15.9195C11.7315 15.966 11.7005 16.0074 11.6591 16.0487C11.6384 16.0953 11.6074 16.147 11.5712 16.2039C11.5402 16.3538 11.4833 16.5452 11.323 16.7158C11.2558 16.7882 11.1731 16.8554 11.0955 16.9227C11.08 16.9382 11.0593 16.9485 11.0438 16.964L11.0335 16.9899C10.9766 17.0829 10.9197 17.1709 10.8473 17.2484C10.7439 17.3674 10.6301 17.4449 10.5577 17.4915C10.5474 17.5018 10.537 17.5018 10.537 17.5018C10.4284 17.6156 10.3043 17.688 10.1906 17.7293C10.1544 17.8224 10.1078 17.9155 10.0354 18.0034C9.79757 18.2982 9.37869 18.3757 9.04774 18.1844C8.71679 17.9931 8.57202 17.5949 8.70647 17.2381C8.71681 17.2071 8.72714 17.1709 8.73232 17.1347C8.74783 17.0726 8.76336 17.0157 8.77887 16.9588C8.77887 16.9537 8.77884 16.9433 8.78401 16.9382C8.79436 16.902 8.8047 16.8709 8.82022 16.8399C8.86675 16.7106 8.93915 16.6124 9.01154 16.5348C9.00637 16.4314 9.01155 16.3228 9.04774 16.2039C9.04774 16.0694 9.06327 15.9091 9.1305 15.7333C9.22875 15.4954 9.39938 15.3558 9.53383 15.2731C9.48729 15.1076 9.4666 14.9007 9.55968 14.6784C9.66827 14.4198 9.86478 14.2802 9.98888 14.2027C9.99923 14.1872 10.0096 14.1716 10.0251 14.1561C10.0096 14.0165 10.0147 13.851 10.0871 13.6752C10.1647 13.4891 10.2888 13.3649 10.4077 13.2822C10.4181 13.1995 10.4388 13.1167 10.4801 13.0288C10.4957 12.9875 10.5112 12.9461 10.5215 12.9099C10.5474 12.8323 10.5732 12.7548 10.6042 12.6824C10.6818 12.4962 10.8008 12.3721 10.8731 12.2945C10.8938 12.2532 10.9145 12.2118 10.9352 12.1653C10.9559 12.1239 10.9766 12.0773 10.9972 12.036C11.0334 11.9481 11.08 11.8602 11.1265 11.7774C11.142 11.7516 11.1576 11.7309 11.1679 11.705C11.1679 11.6895 11.1782 11.6637 11.1834 11.6378C11.2041 11.5551 11.2248 11.4672 11.2558 11.3896C11.2713 11.2551 11.292 11.1259 11.3437 10.9863C11.4006 10.8363 11.4885 10.7225 11.5506 10.645C11.5557 10.5932 11.5661 10.5364 11.5816 10.464C11.5609 10.3192 11.5402 10.1227 11.6178 9.91068C11.623 9.88999 11.6281 9.86413 11.6333 9.83827C11.654 9.74519 11.6747 9.65211 11.7005 9.55903C11.7367 9.44527 11.7936 9.35737 11.8505 9.2798C11.8298 9.15053 11.8298 9.00573 11.8815 8.8506C11.9332 8.69029 12.016 8.57136 12.109 8.47828C12.1039 8.3852 12.109 8.28178 12.1401 8.17319C12.1659 8.08528 12.2021 7.99736 12.2383 7.90946C12.2487 7.8836 12.259 7.85775 12.2693 7.83189C12.2952 7.7233 12.3417 7.6354 12.3779 7.563C12.3521 7.4389 12.3365 7.28893 12.3779 7.11828C12.4193 6.93729 12.5072 6.79768 12.5537 6.71494C12.5641 6.67357 12.5744 6.62703 12.5899 6.58566C12.5382 6.44604 12.4968 6.27024 12.533 6.06339C12.5589 5.9186 12.6106 5.80484 12.6778 5.70659C12.652 5.60317 12.6365 5.4894 12.6572 5.36012C12.683 5.15845 12.7709 5.00331 12.8692 4.88955C12.8588 4.81715 12.8537 4.74476 12.864 4.66202C12.8743 4.55343 12.9054 4.45518 12.9416 4.37244C12.8847 4.25351 12.8485 4.11389 12.8537 3.95359C12.8537 3.85533 12.8743 3.76742 12.9002 3.68986C12.833 3.5916 12.7813 3.47267 12.7606 3.32271C12.7244 3.08484 12.7916 2.88834 12.8485 2.75907C12.8485 2.73838 12.8485 2.72287 12.8485 2.70735C12.8485 2.70735 12.8382 2.69701 12.8382 2.69184C12.7968 2.6453 12.7554 2.60393 12.7192 2.56256C12.7192 2.56256 12.7089 2.55222 12.7037 2.54705C12.5848 2.54705 12.4503 2.53671 12.3159 2.47983C12.2797 2.46431 12.2435 2.44881 12.2073 2.42813C12.1401 2.44881 12.0676 2.46432 11.9849 2.46949C11.9849 2.46949 11.9694 2.47983 11.9487 2.485C11.897 2.50051 11.8401 2.5212 11.7833 2.53154C11.623 2.57291 11.4833 2.56257 11.3592 2.53154C11.323 2.55739 11.2868 2.58326 11.2455 2.60394C11.2093 2.62463 11.1782 2.65047 11.1472 2.67633C11.1162 2.69701 11.0851 2.72287 11.0489 2.74356C10.9766 2.83663 10.899 2.92971 10.7852 3.01245C10.5991 3.15724 10.3974 3.19344 10.2319 3.19861C10.2113 3.22447 10.1854 3.2555 10.1544 3.28135C10.082 3.34858 10.0147 3.40546 9.95268 3.44683C9.92166 3.54508 9.8803 3.65367 9.80791 3.76226C9.76137 3.88636 9.70965 4.02598 9.60105 4.1656C9.46143 4.34142 9.2908 4.42933 9.16152 4.48105C9.16152 4.48105 9.16152 4.48621 9.15635 4.49138C9.13566 4.51724 9.11498 4.54827 9.0943 4.57412C9.07361 4.65169 9.04777 4.7396 9.0064 4.83267C8.99606 4.98781 8.965 5.20498 8.82022 5.40666C8.75816 5.49457 8.68578 5.57214 8.60821 5.64454C8.5927 5.66005 8.57717 5.67556 8.56166 5.69108C8.40653 5.90826 8.18934 5.99616 8.00835 6.03753C8.00318 6.13061 7.98253 6.23404 7.94116 6.33746C7.94116 6.49259 7.91527 6.69943 7.78082 6.90111C7.68774 7.04072 7.57401 7.13381 7.45507 7.19586C7.43439 7.28894 7.40335 7.38719 7.34129 7.48544C7.26373 7.61472 7.16031 7.70262 7.05689 7.76984C7.04138 7.87844 7.01034 7.98704 6.94311 8.1008C6.82418 8.30247 6.65353 8.41622 6.52426 8.47828C6.51908 8.48862 6.51393 8.50414 6.50876 8.51448C6.50876 8.65927 6.48808 8.84543 6.38466 9.03676C6.29675 9.19189 6.18296 9.29531 6.0692 9.3677C6.05369 9.45561 6.02266 9.54869 5.97612 9.64177C5.93993 9.70899 5.90375 9.77104 5.86755 9.8331C5.84169 9.87447 5.81583 9.92101 5.79515 9.96237C5.75378 10.0399 5.70723 10.1123 5.66069 10.1899C5.64001 10.2158 5.61934 10.2468 5.609 10.2778C5.57797 10.3347 5.54694 10.3916 5.50557 10.4485C5.52625 10.6036 5.52625 10.7949 5.43317 10.9966C5.32974 11.2138 5.16426 11.3431 5.03498 11.4206C5.06084 11.5758 5.06601 11.7774 4.97293 11.9894C4.90571 12.1446 4.81263 12.2583 4.7454 12.3307C4.72472 12.4393 4.6937 12.5479 4.65233 12.6462C4.60062 12.7703 4.52825 12.8685 4.45068 12.9461C4.45585 13.065 4.44548 13.1943 4.3886 13.3339C4.34206 13.458 4.27485 13.5563 4.2128 13.6338C4.2128 13.7476 4.20246 13.8872 4.15075 14.0268C4.05767 14.2802 3.88185 14.425 3.72672 14.5078C3.7474 14.6319 3.75773 14.7818 3.71636 14.9525C3.71636 15.0818 3.71637 15.2317 3.65949 15.3972C3.65949 15.4127 3.65431 15.4385 3.64914 15.4592C3.63363 15.5575 3.61811 15.6557 3.58709 15.754C3.58192 15.7798 3.57676 15.8109 3.57159 15.8367C3.55608 15.9298 3.54057 16.0229 3.50954 16.116C3.45783 16.2814 3.3699 16.4055 3.29233 16.4986C3.29233 16.5917 3.28201 16.6899 3.25099 16.7985L3.15791 17.2019C3.14757 17.3105 3.13721 17.4191 3.11136 17.5225C3.05448 17.7397 2.93555 17.8948 2.85798 17.9775C2.82178 18.0603 2.77524 18.1327 2.7287 18.1947C2.74422 18.2982 2.74421 18.4171 2.71835 18.5515C2.67181 18.7687 2.54772 18.9238 2.4443 19.0273C2.4443 19.0893 2.43393 19.1566 2.41842 19.2341C2.41842 19.2652 2.41328 19.291 2.41328 19.322C2.41328 19.3375 2.41328 19.3531 2.41328 19.3634C2.49084 19.5185 2.56839 19.7357 2.52185 19.9943V20.0305C2.52702 20.1391 2.52186 20.2528 2.50635 20.3614C2.46498 20.5993 2.34085 20.7648 2.22192 20.8785C2.28914 21.0233 2.34605 21.2095 2.31502 21.437C2.31502 21.4577 2.31502 21.4835 2.31502 21.5094C2.31502 21.6076 2.31501 21.7059 2.30467 21.799C2.28399 21.9593 2.22195 22.0886 2.15472 22.192C2.18058 22.2902 2.19091 22.3988 2.18057 22.5177C2.16506 22.6522 2.12369 22.7711 2.08232 22.8642C2.11334 22.9728 2.13404 23.0969 2.1237 23.2417C2.10818 23.4279 2.04093 23.5727 1.96854 23.6864C1.98405 23.7692 1.99441 23.8622 1.98924 23.9605C1.97373 24.1777 1.89097 24.3431 1.83409 24.4466V24.6276C1.85994 24.7568 1.89616 24.8913 1.89099 25.0567L1.88064 25.4187C1.88064 25.4808 1.88063 25.548 1.87546 25.6101C1.87546 25.6669 1.87029 25.7238 1.87029 25.7807C1.87029 25.972 1.80824 26.1272 1.74619 26.2409C1.88581 26.3754 2.0306 26.5822 2.04094 26.8718C2.04094 27.089 1.97371 27.2596 1.90649 27.3786C1.922 27.451 1.93234 27.5285 1.93751 27.6009C1.94786 27.8543 1.85477 28.0508 1.77204 28.1801L1.79274 28.5266C1.79274 28.5266 1.79274 28.5731 1.79274 28.5989C1.84445 28.692 1.90131 28.8058 1.93234 28.9454C1.99956 29.0643 2.07713 29.2195 2.09782 29.416C2.10816 29.4987 2.10817 29.5814 2.10817 29.6694C2.10817 29.7056 2.10817 29.7366 2.10817 29.7728C2.10817 29.809 2.12367 29.8452 2.13402 29.8814C2.1547 29.9589 2.1754 30.0365 2.18575 30.1141C2.20643 30.233 2.20126 30.3416 2.18575 30.4347C2.2478 30.5122 2.30467 30.6053 2.34087 30.7243C2.40293 30.8277 2.45981 30.9311 2.50635 31.0552C2.57357 31.2517 2.56324 31.4223 2.54255 31.5516C2.55289 31.5723 2.56321 31.593 2.57872 31.6188L2.6201 31.6912C2.65113 31.7533 2.67699 31.8153 2.6925 31.8722C2.80627 31.9239 2.92003 31.9963 3.01828 32.1153C3.13722 32.2601 3.19408 32.41 3.22511 32.5083C3.23028 32.5186 3.24064 32.529 3.24581 32.5393C3.34406 32.5496 3.45265 32.5703 3.56642 32.622C3.73189 32.6996 3.84565 32.8082 3.92322 32.9013L3.90252 32.9375ZM5.15912 32.7203C5.15912 32.7203 5.15911 32.7203 5.15394 32.7203H5.15912ZM3.09068 32.4307C3.09068 32.4307 3.09066 32.4307 3.09583 32.4307C3.09583 32.4307 3.09586 32.4307 3.09068 32.4307ZM9.14082 31.1845C9.14082 31.1845 9.14085 31.1845 9.13567 31.1897C9.13567 31.1897 9.13565 31.1896 9.14082 31.1845ZM10.1233 30.0313H10.1182C10.1182 30.0313 10.1182 30.0313 10.1233 30.0313ZM0.38619 29.2505C0.38619 29.2505 0.38619 29.2557 0.38619 29.2608C0.38619 29.2608 0.38619 29.2557 0.38619 29.2505ZM2.18575 21.0802V21.0905C2.18575 21.0905 2.18575 21.0854 2.18575 21.0802ZM2.39257 19.6323C2.39257 19.6323 2.39257 19.6375 2.39257 19.6426C2.39257 19.6426 2.39257 19.6375 2.39257 19.6323ZM17.5231 19.0686C17.5231 19.0686 17.5231 19.0686 17.5231 19.0738C17.5231 19.0738 17.5231 19.0738 17.5231 19.0686ZM11.473 16.3745C11.473 16.3745 11.4678 16.3797 11.4627 16.3849C11.4627 16.3849 11.4678 16.3797 11.473 16.3745ZM9.08395 16.1625C9.08395 16.1625 9.08395 16.1625 9.08395 16.1677C9.08395 16.1677 9.08395 16.1677 9.08395 16.1625ZM3.69052 14.6784C3.69052 14.6784 3.69052 14.6784 3.69052 14.6836C3.69052 14.6836 3.69052 14.6836 3.69052 14.6784ZM13.4018 14.2234L13.3915 14.2337C13.3915 14.2337 13.3966 14.2285 13.4018 14.2234ZM4.95744 11.6223C4.95744 11.6223 4.95744 11.6223 4.95744 11.6275C4.95744 11.6275 4.95744 11.6275 4.95744 11.6223ZM13.0915 10.4536C13.0915 10.4536 13.0915 10.4588 13.0915 10.464C13.0915 10.464 13.0915 10.4588 13.0915 10.4536ZM11.6333 10.3399C11.6333 10.3399 11.6333 10.3399 11.6333 10.345C11.6333 10.345 11.6333 10.345 11.6333 10.3399ZM6.45188 8.67996C6.45188 8.67996 6.45188 8.67995 6.45188 8.68512C6.45188 8.68512 6.45188 8.68513 6.45188 8.67996ZM7.87393 6.52879C7.87393 6.52879 7.86875 6.53913 7.86358 6.5443C7.86358 6.5443 7.86876 6.53396 7.87393 6.52879ZM7.3258 4.80681C7.3258 4.80681 7.32062 4.81715 7.31545 4.82232C7.31545 4.82232 7.32063 4.81198 7.3258 4.80681Z" fill="black"/>
</svg>
