<svg width="28" height="31" viewBox="0 0 28 31" fill="none" xmlns="http://www.w3.org/2000/svg">
<path d="M20.6724 4.26478C20.7242 4.0993 20.8741 3.95969 20.9155 3.78905C20.9414 3.68562 20.8793 3.55118 20.8948 3.43224C20.9103 3.31848 20.9052 3.20471 20.9103 3.09095C20.9155 2.97718 21.0758 2.85825 21.0706 2.73932C21.0655 2.62038 20.9258 2.51695 20.9 2.40319C20.8741 2.28942 20.8586 2.17567 20.8121 2.07224C20.7655 1.96882 20.781 1.79817 20.7035 1.71026C20.6259 1.62235 20.4553 1.63787 20.3467 1.58099C20.2329 1.51893 20.1243 1.42586 19.995 1.40517C19.8658 1.38449 19.7365 1.41551 19.6021 1.42068C19.4676 1.42586 19.3228 1.30693 19.1935 1.33278C19.0642 1.35864 19.0126 1.67407 18.8884 1.71026C18.7643 1.74646 18.6247 1.71026 18.5058 1.7568C18.3868 1.80334 18.2886 1.90159 18.1748 1.9533C18.0611 2.00502 17.818 1.80852 17.7042 1.8654C17.5801 1.92746 17.544 2.14981 17.4354 2.20152C17.3268 2.25323 17.1199 2.12912 17.0113 2.19117C16.9027 2.25322 16.9027 2.51178 16.7941 2.56866C16.6855 2.62555 16.4839 2.52213 16.3753 2.58935C16.2667 2.65658 16.1891 2.76517 16.0857 2.83239C15.9823 2.89962 15.9823 3.13231 15.8789 3.19954C15.7755 3.26676 15.5014 3.07544 15.398 3.14266C15.2945 3.20989 15.2532 3.37536 15.1549 3.44775C15.0567 3.52015 14.9015 3.52015 14.8033 3.59254C14.705 3.66494 14.643 3.79937 14.5447 3.87177C14.4465 3.94416 14.3896 4.07862 14.2914 4.15101C14.2086 4.21306 14.0587 4.18721 13.9759 4.24926C13.8932 4.31132 13.8673 4.45094 13.7846 4.51299C13.7019 4.57505 13.6605 4.68881 13.5777 4.75603C13.4795 4.8336 13.4381 4.97838 13.345 5.05595C13.252 5.13352 13.0038 5.0301 12.9107 5.10766C12.8176 5.18523 12.709 5.25246 12.6159 5.33519C12.5228 5.41793 12.4763 5.55237 12.3832 5.63511C12.2901 5.71785 12.3108 5.92469 12.2177 6.00743C12.1247 6.09016 11.8299 5.94538 11.7368 6.03329C11.6438 6.1212 11.7058 6.36423 11.6179 6.44697C11.53 6.52971 11.3438 6.51936 11.2559 6.60727C11.168 6.69518 11.2456 6.94857 11.1577 7.03648C11.0698 7.12439 10.744 6.97442 10.6561 7.06233C10.5682 7.15024 10.5061 7.264 10.4234 7.35191C10.3407 7.43982 10.3975 7.66735 10.3148 7.76043C10.2321 7.85351 10.0252 7.83282 9.94246 7.92073C9.85972 8.00864 9.82355 8.14826 9.74081 8.24133C9.65807 8.33441 9.64772 8.48955 9.57016 8.58263C9.49259 8.67571 9.43055 8.78946 9.35298 8.88254C9.27541 8.97562 9.13061 9.01699 9.04787 9.11007C8.96514 9.20315 8.94964 9.34794 8.87207 9.44619C8.79451 9.54444 8.76346 9.67889 8.68589 9.77197C8.60832 9.86505 8.53075 9.96331 8.45319 10.0564C8.37562 10.1495 8.0757 10.0771 8.00331 10.1753C7.93091 10.2736 8.10673 10.5683 8.03433 10.6666C7.96194 10.7648 7.69822 10.7234 7.62583 10.8217C7.55343 10.9199 7.49654 11.0337 7.42415 11.1371C7.35175 11.2406 7.22249 11.2974 7.1501 11.4009C7.0777 11.5043 7.15009 11.706 7.08287 11.8042C7.01565 11.9025 6.97943 12.0317 6.90704 12.1352C6.83464 12.2386 6.68468 12.2851 6.61746 12.3885C6.55024 12.492 6.56576 12.6523 6.49854 12.7505C6.43131 12.8488 6.3589 12.9522 6.29168 13.0556C6.22446 13.159 6.09003 13.2211 6.02281 13.3245C5.95558 13.4279 5.91938 13.552 5.85215 13.6555C5.78493 13.7589 5.7694 13.8933 5.70735 14.0019C5.64529 14.1105 5.62463 14.2398 5.56257 14.3484C5.50052 14.457 5.26782 14.4621 5.20577 14.5707C5.14371 14.6793 5.05064 14.7672 4.98859 14.8758C4.92654 14.9844 5.04547 15.1913 4.98859 15.2999C4.93171 15.4084 4.87999 15.5222 4.81794 15.6256C4.75588 15.7291 4.60591 15.7911 4.54903 15.8997C4.49215 16.0083 4.38874 16.0962 4.33185 16.2048C4.27497 16.3134 4.2129 16.422 4.15602 16.5357C4.09914 16.6495 4.06295 16.7684 4.00607 16.877C3.94919 16.9856 4.03193 17.1666 3.98022 17.2752C3.92851 17.3838 3.70098 17.4148 3.64927 17.5286C3.59756 17.6423 3.70098 17.8233 3.64927 17.9371C3.59756 18.0509 3.31315 18.056 3.26661 18.1698C3.22007 18.2836 3.27695 18.4439 3.22524 18.5576C3.17352 18.6714 3.12183 18.7852 3.07529 18.8989C3.02875 19.0127 2.85291 19.0747 2.8012 19.1885C2.74949 19.3023 2.7702 19.4471 2.72366 19.5608C2.67712 19.6746 2.81672 19.8659 2.77535 19.9797C2.73399 20.0934 2.57887 20.171 2.53751 20.2848C2.49614 20.3985 2.40304 20.502 2.36167 20.6157C2.32031 20.7295 2.28412 20.8536 2.24275 20.9674C2.20138 21.0811 2.27377 21.2414 2.2324 21.3604C2.19103 21.4793 2.17034 21.5982 2.13415 21.7172C2.09795 21.8361 2.10312 21.9654 2.06692 22.0843C2.03072 22.2032 1.89626 22.2911 1.86006 22.4101C1.82387 22.529 1.72564 22.6273 1.68944 22.7462C1.65324 22.8651 1.60154 22.9789 1.56534 23.0978C1.52914 23.2168 1.36884 23.2995 1.33781 23.4236C1.30679 23.5477 1.33781 23.6822 1.30679 23.8011C1.27576 23.92 1.46192 24.0959 1.43606 24.2148C1.41021 24.3337 1.16199 24.4061 1.13613 24.525C1.11028 24.644 1.32229 24.825 1.29643 24.9439C1.27058 25.0577 1.09477 25.1456 1.07408 25.2697C1.0534 25.3938 1.11027 25.5179 1.09475 25.642C1.07924 25.7661 1.16197 25.8902 1.15163 26.0092C1.14129 26.1281 1.00167 26.2418 0.996503 26.3659C0.991332 26.4901 0.949955 26.609 0.955126 26.7331C0.960297 26.8572 0.893085 26.9865 0.903428 27.1054C0.91377 27.2244 0.996523 27.3433 1.01721 27.4674C1.03789 27.5915 1.14648 27.6897 1.17233 27.8087C1.19819 27.9276 1.03271 28.1138 1.07408 28.2275C1.11545 28.3413 1.45158 28.331 1.50329 28.4396C1.555 28.5481 1.36367 28.8067 1.43606 28.9049C1.50846 29.0032 1.64288 29.0704 1.73079 29.1583C1.8187 29.2463 1.9273 29.3186 2.03072 29.3859C2.13414 29.4531 2.23756 29.5358 2.35132 29.5875C2.45992 29.6341 2.60472 29.6134 2.72366 29.6444C2.83742 29.6703 2.95118 29.7944 3.07529 29.8099C3.19422 29.8202 3.32866 29.7375 3.45276 29.7375C3.57687 29.7375 3.73202 29.8409 3.85612 29.8254C3.98023 29.8099 4.1095 29.722 4.2336 29.691C4.35771 29.6599 4.48183 29.6031 4.60594 29.5617C4.73004 29.5203 4.88515 29.5617 5.00409 29.51C5.12302 29.4583 5.24713 29.4065 5.36607 29.3548C5.485 29.3031 5.46948 28.9722 5.58325 28.9153C5.69701 28.8584 5.83146 28.8532 5.94005 28.8015C6.04864 28.7498 6.25031 28.8636 6.35891 28.8015C6.4675 28.7395 6.51923 28.5688 6.63299 28.512C6.74675 28.4551 6.92255 28.5223 7.03114 28.4654C7.13973 28.4085 7.25868 28.3568 7.36727 28.2999C7.47587 28.2431 7.57411 28.1603 7.68788 28.1034C7.80164 28.0466 7.78615 27.7673 7.89991 27.7053C8.01367 27.6432 8.1171 27.5812 8.22569 27.5191C8.33428 27.4571 8.5618 27.607 8.67039 27.545C8.77899 27.4829 8.82035 27.3019 8.92377 27.2399C9.02719 27.1778 9.10993 27.064 9.21853 26.9968C9.32712 26.9296 9.40987 26.8313 9.51846 26.7693C9.62705 26.7072 9.81836 26.7796 9.92179 26.7176C10.0252 26.6555 10.0769 26.4952 10.1855 26.428C10.2941 26.3608 10.4493 26.3815 10.5527 26.3143C10.6561 26.247 10.744 26.1488 10.8474 26.0815C10.9508 26.0143 11.1422 26.0815 11.2456 26.0143C11.349 25.9471 11.4111 25.8023 11.5145 25.7351C11.6179 25.6679 11.7523 25.642 11.8558 25.5748C11.9592 25.5076 11.954 25.2645 12.0574 25.1973C12.1609 25.1301 12.3057 25.1197 12.4091 25.0525C12.5125 24.9853 12.6521 24.9698 12.7555 24.8974C12.8589 24.825 12.9882 24.794 13.0917 24.7267C13.1951 24.6595 13.3399 24.6492 13.4433 24.5768C13.5467 24.5044 13.6605 24.4475 13.7639 24.3803C13.8673 24.313 14.0018 24.282 14.1052 24.2096C14.2086 24.1372 14.2241 23.9356 14.3276 23.8683C14.431 23.8011 14.4361 23.5891 14.5396 23.5167C14.643 23.4443 14.917 23.6201 15.0205 23.5529C15.1239 23.4857 15.1549 23.3099 15.2583 23.2375C15.3618 23.1651 15.4341 23.0513 15.5376 22.9841C15.641 22.9169 15.7134 22.8031 15.8168 22.7307C15.9202 22.6583 16.1116 22.7152 16.215 22.6428C16.3184 22.5704 16.3029 22.3377 16.4063 22.2653C16.5097 22.1929 16.577 22.074 16.6752 22.0067C16.7735 21.9343 16.9079 21.9137 17.0062 21.8413C17.1044 21.7689 17.2233 21.7275 17.3216 21.6551C17.4198 21.5827 17.5801 21.593 17.6784 21.5207C17.7766 21.4483 17.9421 21.4689 18.0404 21.3914C18.1386 21.3138 18.1852 21.1742 18.2782 21.1018C18.3713 21.0294 18.392 20.8484 18.4851 20.7709C18.5782 20.6933 18.7333 20.6933 18.8264 20.6157C18.9195 20.5381 18.9763 20.4089 19.0694 20.3365C19.1625 20.2641 19.328 20.2693 19.421 20.1917C19.5141 20.1141 19.571 19.99 19.6693 19.9125C19.7675 19.8349 19.8037 19.6901 19.8968 19.6125C19.9899 19.535 20.2639 19.6746 20.357 19.5919C20.4501 19.5091 20.4191 19.2867 20.5121 19.2092C20.6052 19.1316 20.688 19.0385 20.781 18.961C20.8741 18.8834 20.9413 18.7748 21.0344 18.6921C21.1275 18.6093 21.2775 18.599 21.3654 18.5163C21.4533 18.4335 21.5463 18.3508 21.6394 18.2732C21.7325 18.1957 21.717 17.9992 21.8049 17.9164C21.8928 17.8337 22.1152 17.8957 22.2083 17.813C22.3013 17.7303 22.4254 17.6837 22.5133 17.601C22.6013 17.5182 22.6168 17.3528 22.7047 17.2649C22.7926 17.177 22.8546 17.0684 22.9426 16.9804C23.0305 16.8925 23.1494 16.8408 23.2425 16.7581C23.3356 16.6754 23.5062 16.6754 23.5941 16.5926C23.682 16.5099 23.7751 16.422 23.863 16.3341C23.9509 16.2462 23.9199 16.0393 24.0026 15.9514C24.0854 15.8635 24.0543 15.6618 24.1422 15.5739C24.2302 15.486 24.4732 15.5481 24.5559 15.455C24.6387 15.3619 24.7266 15.274 24.8093 15.1809C24.892 15.0878 25.0368 15.0516 25.1196 14.9534C25.2023 14.8551 25.2437 14.731 25.3213 14.638C25.3988 14.5449 25.3523 14.3484 25.4298 14.2501C25.5074 14.1519 25.5436 14.0278 25.616 13.9295C25.6884 13.8313 25.7866 13.7537 25.859 13.6503C25.9314 13.5469 26.1124 13.521 26.1796 13.4227C26.2469 13.3245 26.2365 13.1642 26.2986 13.0608C26.3606 12.9574 26.5054 12.8901 26.5675 12.7764C26.6295 12.6626 26.6709 12.5437 26.7174 12.4247C26.764 12.3058 26.733 12.161 26.7692 12.0421C26.8054 11.9231 26.826 11.799 26.8416 11.6749C26.8571 11.5508 27.0122 11.4164 26.9967 11.2923C26.9812 11.1682 26.8984 11.0337 26.8519 10.9148C26.8053 10.7959 26.7329 10.6821 26.6502 10.5787C26.5726 10.4804 26.5106 10.3511 26.4175 10.2787C26.3245 10.2063 26.1021 10.3718 25.9883 10.3253C25.8746 10.2787 25.828 10.0977 25.7091 10.0771C25.5902 10.0564 25.4764 9.97882 25.3574 9.97365C25.2385 9.96848 25.1092 9.86505 24.9851 9.8754C24.861 9.88574 24.7421 9.94262 24.6232 9.95814C24.5042 9.97365 24.3698 9.95813 24.256 9.98398C24.1423 10.0098 24.0233 10.0771 23.9147 10.1081C23.7906 10.1391 23.7079 10.3149 23.5838 10.3511C23.4597 10.3873 23.2942 10.2736 23.1701 10.3098C23.046 10.346 23.015 10.6666 22.896 10.7028C22.7771 10.739 22.6013 10.6149 22.4772 10.6562C22.3531 10.6976 22.2341 10.7286 22.11 10.77C21.9859 10.8114 21.929 11.0182 21.8101 11.0647C21.6911 11.1113 21.5774 11.1682 21.4636 11.2199C21.3499 11.2716 21.2413 11.344 21.1223 11.3905C21.0034 11.4371 20.7811 11.2406 20.6673 11.2923C20.5535 11.344 20.4139 11.3543 20.295 11.406C20.176 11.4577 20.1864 11.7784 20.0674 11.8301C19.9485 11.8818 19.8089 11.8766 19.6951 11.9335C19.5814 11.9904 19.359 11.8352 19.2452 11.8921C19.1315 11.949 19.0746 12.1196 18.9608 12.1765C18.8471 12.2334 18.785 12.3937 18.6764 12.4558C18.5678 12.5178 18.392 12.4713 18.2834 12.5333C18.1748 12.5954 18.0404 12.6212 17.9266 12.6833C17.8128 12.7453 17.8077 12.9884 17.6991 13.0504C17.5905 13.1125 17.3681 12.9936 17.2595 13.0608C17.151 13.128 17.182 13.4072 17.0734 13.4745C16.9648 13.5417 16.7011 13.3762 16.5976 13.4486C16.4942 13.521 16.5408 13.8106 16.4373 13.8882C16.3339 13.9657 16.2512 14.0588 16.1477 14.1364C16.0443 14.2139 15.8065 14.1002 15.703 14.1777C15.5996 14.2553 15.5169 14.3535 15.4135 14.4311C15.31 14.5087 15.2635 14.6535 15.1653 14.731C15.067 14.8086 14.9481 14.8655 14.8498 14.943C14.7516 15.0206 14.5758 15.0051 14.4775 15.0827C14.3793 15.1602 14.2345 15.1861 14.1362 15.2585C14.038 15.3309 13.9345 15.4085 13.8311 15.486C13.7277 15.5636 13.6294 15.6412 13.5312 15.7135C13.4329 15.7859 13.3968 15.9618 13.2933 16.0341C13.1899 16.1065 13.071 16.1634 12.9676 16.2307C12.8641 16.2979 12.7193 16.3082 12.6108 16.3806C12.5022 16.453 12.5073 16.6909 12.3987 16.7529C12.2901 16.815 12.2798 16.7529 12.1712 16.815C12.2694 16.7271 12.0988 16.5771 12.1919 16.4944C12.285 16.4116 12.6004 16.5461 12.6883 16.4633C12.7762 16.3806 12.8951 16.303 12.9831 16.2151C13.071 16.1272 12.9986 15.8687 13.0865 15.7756C13.1744 15.6825 13.2209 15.5481 13.3088 15.4602C13.3967 15.3722 13.5933 15.3774 13.6812 15.2843C13.7691 15.1913 13.8777 15.1137 13.9604 15.0258C14.0431 14.9379 14.0018 14.7103 14.0845 14.6173C14.1672 14.5242 14.2862 14.457 14.3689 14.3639C14.4516 14.2708 14.6119 14.2398 14.6947 14.1467C14.7774 14.0536 14.7722 13.883 14.855 13.7899C14.9377 13.6968 15.0049 13.5882 15.0825 13.4951C15.1601 13.4021 15.2635 13.3245 15.3462 13.2263C15.429 13.128 15.4704 13.0091 15.5531 12.9108C15.6358 12.8126 15.884 12.8539 15.9616 12.7557C16.0392 12.6574 15.9926 12.4609 16.0702 12.3627C16.1478 12.2644 16.4322 12.3213 16.5046 12.2231C16.577 12.1248 16.5097 11.9128 16.5873 11.8145C16.6649 11.7163 16.6235 11.5301 16.6959 11.4319C16.7683 11.3336 17.0372 11.3698 17.1096 11.2664C17.182 11.163 17.182 11.013 17.2544 10.9096C17.3268 10.8062 17.3371 10.6666 17.4095 10.5631C17.4819 10.4597 17.6008 10.3925 17.668 10.2839C17.7353 10.1753 17.7146 10.015 17.7818 9.9116C17.8491 9.80818 17.9111 9.69959 17.9732 9.59099C18.0352 9.4824 18.0817 9.36863 18.149 9.26004C18.2162 9.15144 18.4489 9.14628 18.5109 9.03769C18.573 8.92909 18.6195 8.81016 18.6816 8.70157C18.7385 8.59815 18.8626 8.53092 18.9195 8.4275C18.9764 8.32408 18.8367 8.11205 18.8936 8.00863C18.9505 7.90521 19.0798 7.84316 19.1315 7.73456C19.1832 7.62597 19.1004 7.45533 19.1521 7.35191C19.2039 7.24849 19.2763 7.15541 19.328 7.04682C19.3797 6.93823 19.6175 6.92788 19.6693 6.81929C19.721 6.7107 19.7779 6.60728 19.8244 6.50386C19.8709 6.40044 19.9537 6.30219 20.0002 6.19359C20.0467 6.085 19.9692 5.92469 20.0157 5.8161C20.0674 5.68682 20.0054 5.51101 20.0623 5.38173C20.1191 5.25245 20.4294 5.23694 20.4863 5.10766C20.5432 4.97839 20.4139 4.77671 20.4604 4.64743C20.507 4.51815 20.5742 4.39922 20.6156 4.26478H20.6724Z" fill="#CFBFFE"/>
<path d="M3.84618 30.596C3.69105 30.596 3.5566 30.5598 3.45835 30.5288C3.32907 30.565 3.18429 30.596 3.01364 30.5805C2.78095 30.5598 2.60513 30.4616 2.50171 30.3943C2.37244 30.3892 2.2173 30.3736 2.04665 30.3013C1.88635 30.234 1.75707 30.1409 1.65882 30.0737L1.59677 30.0324C1.46233 29.9445 1.31751 29.841 1.18306 29.7117L1.15204 29.6911C1.05896 29.6238 0.919348 29.5204 0.805584 29.3601C0.696991 29.205 0.655629 29.0447 0.650458 28.8947C0.526352 28.8068 0.417751 28.6775 0.350527 28.4966C0.262618 28.2587 0.298816 28.0467 0.350527 27.8864C0.314329 27.814 0.283316 27.7312 0.267803 27.633C0.210921 27.4985 0.15404 27.3589 0.138526 27.1779C0.123013 26.9866 0.159188 26.8263 0.179872 26.7332C0.179872 26.7177 0.179877 26.7125 0.185048 26.7125C0.185048 26.5884 0.205731 26.485 0.216074 26.4074C0.216074 26.3867 0.226426 26.3661 0.226426 26.3402C0.226426 26.1592 0.288469 26.0144 0.34535 25.9007C0.324666 25.8128 0.314335 25.7093 0.324678 25.6007C0.303993 25.4715 0.283299 25.3163 0.314325 25.1405C0.33501 25.0319 0.371208 24.9337 0.412577 24.8509C0.366037 24.7113 0.340183 24.5407 0.381552 24.3545C0.417749 24.2097 0.479806 24.096 0.54703 24.008C0.526346 23.9046 0.521175 23.7857 0.54703 23.6616C0.54703 23.5271 0.547039 23.3875 0.588407 23.2272C0.65046 23.0049 0.779721 22.8497 0.862458 22.7618C0.877971 22.7256 0.888322 22.6894 0.903836 22.6532C0.919349 22.617 0.934871 22.5757 0.945213 22.5395C0.991753 22.3792 1.06933 22.2551 1.11587 22.1775C1.12621 22.162 1.12618 22.1672 1.12101 22.1775C1.17272 22.0068 1.26064 21.8827 1.32787 21.8C1.34338 21.6914 1.3589 21.5828 1.39509 21.4846C1.40544 21.4484 1.41578 21.407 1.42612 21.3656C1.43646 21.3191 1.44681 21.2777 1.46232 21.2312C1.44681 21.0916 1.44162 20.9157 1.50884 20.7192L1.56057 20.5693C1.58126 20.5021 1.60711 20.4297 1.6278 20.3624C1.67951 20.228 1.74156 20.1246 1.78292 20.0522L1.81395 20.0005C1.84498 19.9074 1.89669 19.8298 1.94323 19.7626C1.92254 19.6333 1.92772 19.4834 1.97943 19.323C1.99494 19.1886 2.01563 19.049 2.07768 18.899C2.16559 18.687 2.31039 18.5526 2.40864 18.4698C2.41898 18.444 2.43446 18.4181 2.44481 18.3923L2.46033 18.3561C2.46033 18.2164 2.46033 18.0406 2.54823 17.8596C2.6258 17.689 2.74475 17.5701 2.85852 17.4873C2.86886 17.3942 2.8947 17.296 2.94124 17.1977C3.01364 17.0478 3.1119 16.9392 3.21015 16.8616C3.22049 16.7582 3.24634 16.6444 3.30322 16.5307C3.32391 16.4945 3.33423 16.4531 3.34974 16.4169C3.38077 16.3393 3.4118 16.2618 3.45317 16.1842L3.629 15.8481C3.68071 15.7447 3.75311 15.6516 3.82551 15.5637L3.86171 15.5171C3.94962 15.3517 4.08405 15.2379 4.16678 15.1707C4.17713 15.1552 4.18229 15.1397 4.19263 15.1241C4.17195 14.9483 4.16679 14.7208 4.30124 14.4933C4.34778 14.4054 4.40984 14.3226 4.47707 14.2451C4.49258 14.2244 4.50808 14.2037 4.52359 14.183C4.63735 13.9865 4.79765 13.8779 4.93209 13.8107C4.95795 13.7486 4.98898 13.6814 5.03034 13.609V13.5883C5.06137 13.5056 5.10276 13.3867 5.18033 13.2574C5.19584 13.2367 5.20619 13.2057 5.21653 13.1798C5.2579 13.0919 5.29924 13.0092 5.35095 12.9264C5.45437 12.7661 5.57849 12.6627 5.65606 12.6007C5.68708 12.5541 5.71811 12.5076 5.74913 12.4662L5.78533 12.4145C5.81119 12.2852 5.85257 12.1301 5.95599 11.9698C6.05941 11.8146 6.18351 11.7216 6.27142 11.6595C6.28693 11.6233 6.30243 11.5871 6.32311 11.5561C6.32311 11.3906 6.35416 11.1734 6.50412 10.9666C6.60237 10.8321 6.71096 10.7391 6.78852 10.6822C6.79369 10.6822 6.79888 10.6718 6.80405 10.6718C6.81956 10.6512 6.82988 10.6305 6.8454 10.6098C6.89194 10.5322 6.93849 10.4598 6.9902 10.3874C7.05743 10.2995 7.12981 10.2323 7.2022 10.1806C7.21255 10.0358 7.26427 9.87549 7.37803 9.72553C7.56419 9.48249 7.82273 9.4101 8.00889 9.38424L8.04509 9.34288C8.09163 9.23946 8.14336 9.13603 8.22092 9.03261C8.27263 8.91368 8.32951 8.77405 8.44327 8.6396C8.56221 8.49998 8.69664 8.41725 8.77938 8.36554C8.78455 8.35519 8.78973 8.34486 8.7949 8.33969C8.8311 8.28281 8.87245 8.22592 8.90865 8.17421C8.95002 8.05527 9.00692 7.92083 9.11551 7.78638C9.17756 7.66744 9.23962 7.54851 9.34821 7.42957C9.43612 7.33132 9.53436 7.26927 9.62744 7.22273C9.66364 7.09863 9.73085 6.96935 9.84462 6.85042C9.86013 6.8349 9.87566 6.80905 9.89117 6.78836C9.95322 6.70563 10.0153 6.62288 10.0825 6.55566C10.2169 6.41604 10.3772 6.34882 10.522 6.31779C10.5634 6.24023 10.6151 6.16266 10.6927 6.09027C10.7702 6.0127 10.853 5.961 10.9357 5.91963C10.9771 5.78001 11.0495 5.63521 11.1891 5.50593C11.3494 5.35597 11.5304 5.29909 11.6907 5.2784C11.7217 5.23186 11.7631 5.18015 11.8097 5.13361C11.882 5.01985 11.9596 4.90091 12.0889 4.79232C12.1561 4.73544 12.2285 4.68373 12.3009 4.63202C12.3319 4.60616 12.3681 4.58549 12.3991 4.55963C12.5749 4.41484 12.7663 4.36313 12.9214 4.35279C12.9524 4.31659 12.9886 4.28039 13.0248 4.24419C13.0662 4.18214 13.1179 4.10975 13.1903 4.04252C13.2472 3.93393 13.3351 3.79948 13.4903 3.68054C13.6144 3.58746 13.7385 3.54094 13.8419 3.51508C13.8936 3.45303 13.9505 3.39097 14.0229 3.32891C14.1056 3.22032 14.1935 3.10656 14.3331 3.00831C14.4469 2.92557 14.5607 2.87902 14.6486 2.85317C14.7158 2.74975 14.8089 2.63598 14.9485 2.54808C15.1191 2.43431 15.2743 2.40846 15.4449 2.40329C15.5018 2.33606 15.569 2.27402 15.6569 2.22231L15.6673 2.20678C15.7293 2.14473 15.8276 2.05166 15.962 1.97409C16.0809 1.90687 16.1947 1.87067 16.3033 1.85515C16.3757 1.74656 16.4791 1.63796 16.6291 1.5604C16.7739 1.48283 16.9187 1.45698 17.048 1.45181C17.1255 1.3639 17.2186 1.28117 17.3479 1.21912C17.6012 1.09502 17.8494 1.12603 18.0201 1.17257C18.077 1.14154 18.139 1.10535 18.2114 1.07949C18.2994 1.04847 18.3769 1.02778 18.4493 1.01744C18.5682 0.846796 18.7492 0.67098 19.0388 0.614098C19.3025 0.567558 19.5145 0.634785 19.6438 0.681325C19.7576 0.665811 19.9334 0.650303 20.1299 0.686501C20.3574 0.73304 20.5229 0.836453 20.6315 0.903677L20.6522 0.914014C20.8177 0.950211 21.0659 1.01744 21.2572 1.22946C21.4589 1.45181 21.5002 1.7052 21.5209 1.83448V1.84482C21.5726 1.96892 21.5985 2.08785 21.614 2.18093C21.7019 2.31021 21.8105 2.49121 21.8208 2.73942C21.8364 2.99797 21.7329 3.19446 21.6554 3.32374C21.6554 3.39096 21.6554 3.45302 21.645 3.52024C21.6657 3.64952 21.6864 3.80982 21.645 4.00115C21.5933 4.2235 21.4847 4.39415 21.4175 4.50274C21.4071 4.52343 21.3916 4.54412 21.3813 4.56481C21.3503 4.65272 21.3141 4.73545 21.2779 4.82336C21.3089 4.99401 21.3296 5.21119 21.2313 5.44906C21.1383 5.67141 20.9779 5.80585 20.8332 5.89376C20.8332 5.92479 20.8228 5.96099 20.8125 5.99719C20.828 6.14198 20.8332 6.33849 20.7401 6.5505C20.6987 6.64358 20.647 6.73148 20.5901 6.81421C20.5798 6.8349 20.5643 6.85042 20.5539 6.8711C20.5281 6.93316 20.4919 7.00038 20.4557 7.06761L20.3936 7.19171C20.2799 7.43475 20.0937 7.55886 19.9489 7.63125C19.9541 7.77604 19.9386 7.95186 19.8455 8.13285C19.8093 8.20007 19.7679 8.26212 19.7317 8.30866C19.7473 8.46379 19.7317 8.64995 19.6283 8.83611C19.5404 8.99641 19.4318 9.09983 19.3646 9.16189C19.3542 9.18257 19.3439 9.20325 19.3336 9.22394C19.2974 9.3015 19.256 9.38425 19.2146 9.46182C19.0854 9.679 18.9043 9.79276 18.7647 9.85481C18.7337 9.91169 18.7027 9.97375 18.6716 10.0255L18.5889 10.1599C18.5682 10.1961 18.5424 10.2375 18.5217 10.2737C18.4958 10.4081 18.4596 10.5736 18.351 10.7339C18.2631 10.8632 18.1649 10.9562 18.0977 11.0183C18.0615 11.1166 18.0253 11.2148 17.9684 11.3131C17.9322 11.4423 17.8857 11.5923 17.7771 11.7371C17.6581 11.9026 17.5133 11.9956 17.3789 12.0525C17.3737 12.068 17.3634 12.0887 17.3582 12.1042C17.3582 12.1404 17.3582 12.1766 17.3479 12.218C17.4047 12.1508 17.4771 12.0887 17.5702 12.0422C17.6633 11.9853 17.7667 11.9439 17.8753 11.9077C17.896 11.8974 17.9219 11.8922 17.9425 11.8819C18.0822 11.8043 18.2218 11.7733 18.3304 11.7629C18.3821 11.7061 18.4441 11.644 18.5269 11.5923C18.6148 11.4785 18.7389 11.3337 18.9302 11.2407C19.1784 11.1165 19.4111 11.1321 19.5766 11.1683C19.6593 11.008 19.7886 10.8425 20.0058 10.7391C20.1144 10.6925 20.223 10.6615 20.3368 10.6305C20.3574 10.6305 20.3781 10.6201 20.404 10.615C20.6574 10.5064 20.8952 10.5426 21.0659 10.5994C21.1124 10.5736 21.159 10.5529 21.2107 10.5322C21.2469 10.5167 21.2882 10.496 21.3296 10.4805C21.3554 10.4702 21.3813 10.4598 21.402 10.4443C21.5002 10.315 21.645 10.1599 21.8777 10.0772C21.9553 10.0461 22.038 10.0255 22.1208 9.9996C22.1673 9.98409 22.2138 9.97375 22.2552 9.95824C22.3534 9.92204 22.4465 9.91169 22.5345 9.90652C22.6327 9.77725 22.7723 9.66349 22.974 9.60143C23.1291 9.55489 23.2739 9.55489 23.3928 9.57041C23.4859 9.50318 23.5997 9.43596 23.7393 9.39459L23.791 9.3739C23.8996 9.32736 24.0082 9.28599 24.1168 9.26014C24.2306 9.23428 24.3495 9.22911 24.4684 9.22394C24.4943 9.22394 24.515 9.22394 24.5408 9.22394L24.5977 9.20843C24.6908 9.18257 24.8149 9.14638 24.9649 9.13604C25.1976 9.11535 25.3941 9.19291 25.5026 9.23945C25.6578 9.26013 25.7871 9.31185 25.8698 9.34288C26.0353 9.37908 26.1645 9.45146 26.268 9.52903C26.4593 9.50835 26.6868 9.52903 26.8988 9.68933C27.0695 9.81861 27.1729 9.97374 27.2453 10.0772L27.2815 10.1289C27.3746 10.2478 27.509 10.4443 27.5969 10.6615L27.628 10.7235C27.6848 10.8425 27.7727 11.0235 27.7934 11.251C27.8245 11.5561 27.69 11.7888 27.6176 11.9129C27.597 12.0267 27.5763 12.1353 27.5452 12.249C27.5401 12.3938 27.5297 12.5696 27.4522 12.7558L27.416 12.8437C27.3694 12.9575 27.3229 13.0661 27.2711 13.1695C27.1936 13.3246 27.085 13.4332 27.0023 13.5056C26.9764 13.6194 26.935 13.7486 26.8471 13.8831C26.7127 14.0848 26.5368 14.1882 26.4231 14.2502C26.3869 14.2916 26.3507 14.333 26.3145 14.3743C26.2938 14.395 26.2783 14.4105 26.2576 14.4312L26.2369 14.4778C26.2111 14.5243 26.1904 14.5708 26.1594 14.6174C26.1387 14.7725 26.0921 14.9794 25.9422 15.1655L25.9215 15.2017C25.8801 15.2793 25.8181 15.3827 25.7302 15.4913C25.6009 15.6412 25.4561 15.724 25.3734 15.7757C25.332 15.8222 25.2855 15.8688 25.2441 15.9153L25.1562 16.0084C25.0373 16.1428 24.8976 16.2152 24.7684 16.2566C24.7529 16.2876 24.7373 16.3238 24.7166 16.3549C24.6856 16.51 24.6236 16.7272 24.4426 16.9082C24.3909 16.965 24.3288 17.0167 24.2719 17.0736L24.1685 17.1719C24.003 17.3322 23.8221 17.3994 23.7031 17.4356C23.6514 17.477 23.5997 17.5132 23.5428 17.5494L23.4911 17.5856C23.4911 17.5856 23.4808 17.6063 23.4652 17.6218C23.4239 17.6735 23.3825 17.7252 23.3411 17.7717C23.2894 17.8958 23.2118 18.0561 23.0619 18.1958C22.9533 18.294 22.8447 18.3612 22.7723 18.4026L22.7258 18.4285C22.6172 18.5319 22.4931 18.5836 22.3742 18.6198C22.3276 18.7077 22.2656 18.7956 22.1777 18.8732L21.8984 19.1214C21.7639 19.2455 21.6192 19.3075 21.5261 19.3437C21.5261 19.3437 21.5209 19.3489 21.5157 19.3541C21.4485 19.4316 21.3813 19.504 21.3037 19.5713C21.2727 19.5971 21.2417 19.6281 21.2055 19.6592C21.2003 19.6643 21.19 19.6695 21.1848 19.6799C21.1434 19.8402 21.0659 20.047 20.8694 20.2073C20.678 20.3676 20.466 20.4142 20.2954 20.4142C20.2592 20.4555 20.2178 20.4917 20.1713 20.5331C20.1196 20.6106 20.042 20.7141 19.9179 20.8123C19.7834 20.9209 19.6438 20.9726 19.5404 21.0037C19.4783 21.0864 19.406 21.164 19.3077 21.2415C19.2095 21.3191 19.1112 21.3656 19.0285 21.4018C18.9819 21.4897 18.9147 21.588 18.8165 21.6759C18.7441 21.7845 18.6561 21.9138 18.5113 22.0224C18.3304 22.1568 18.1442 22.1982 18.0356 22.224C17.9063 22.2964 17.7822 22.3274 17.6943 22.3481C17.6426 22.3792 17.5857 22.4102 17.534 22.4412C17.5082 22.4567 17.4875 22.4671 17.4616 22.4826C17.3375 22.5757 17.2134 22.6222 17.1307 22.6532C17.1048 22.6843 17.079 22.7204 17.0428 22.7515C16.9859 22.917 16.8928 23.1238 16.6756 23.2789C16.4998 23.403 16.324 23.4392 16.1895 23.4548C16.1275 23.5168 16.0603 23.5737 15.993 23.6202L15.9724 23.6461C15.9258 23.6978 15.8741 23.7443 15.8224 23.7909C15.7552 23.915 15.6517 24.0701 15.4759 24.189C15.3053 24.308 15.1295 24.3442 14.9692 24.3442H14.9588C14.9588 24.3442 14.9381 24.37 14.9226 24.3855C14.8554 24.5303 14.7572 24.7165 14.5503 24.8561C14.4314 24.9388 14.3228 24.9854 14.24 25.0164L14.1832 25.0423C14.1418 25.0733 14.0746 25.1147 14.0022 25.1509C13.9608 25.1767 13.9194 25.1974 13.8781 25.2233C13.7333 25.3215 13.5988 25.3629 13.5057 25.3939C13.4902 25.3991 13.4851 25.3991 13.4851 25.3991C13.4075 25.4456 13.3247 25.487 13.2368 25.5232C13.2162 25.5335 13.1955 25.5387 13.1748 25.5542C13.0507 25.6369 12.9214 25.6835 12.8335 25.7093C12.7611 25.7507 12.6887 25.7817 12.6267 25.8076C12.5594 25.9524 12.456 26.1127 12.275 26.2316C12.1819 26.2937 12.0786 26.3402 11.9751 26.3816C11.8976 26.4798 11.7993 26.5884 11.6597 26.6763C11.4787 26.7901 11.2977 26.8211 11.1633 26.8263C11.096 26.8832 11.0288 26.9349 10.9564 26.9814C10.8323 27.059 10.7082 27.0952 10.6151 27.121C10.5427 27.2141 10.4496 27.3124 10.3152 27.3899C10.1342 27.4985 9.94806 27.5244 9.80845 27.5295C9.74122 27.5813 9.67399 27.633 9.60159 27.6743C9.56022 27.7209 9.50334 27.7778 9.43611 27.8295C9.35855 27.9536 9.24478 28.1139 9.04311 28.2276C8.83109 28.3518 8.61907 28.3569 8.45877 28.3362C8.38638 28.4966 8.27263 28.6724 8.05544 28.7913C8.01925 28.812 7.98822 28.8327 7.95719 28.8534C7.8848 28.8999 7.81241 28.9516 7.73484 28.9878C7.66762 29.024 7.5952 29.0602 7.52281 29.0912C7.47627 29.1119 7.43489 29.1326 7.38835 29.1584C7.24874 29.2308 7.11429 29.2567 7.00052 29.267C6.92813 29.3498 6.82991 29.4325 6.7058 29.4946C6.48862 29.6032 6.28175 29.6032 6.13179 29.5876C6.05939 29.7583 5.92494 29.9548 5.67673 30.0634C5.54745 30.1203 5.41303 30.1823 5.28375 30.234C5.08725 30.3116 4.91141 30.3168 4.80282 30.3168H4.7925L4.73562 30.3375C4.62703 30.3788 4.51843 30.4202 4.40984 30.446L4.37364 30.4667C4.28056 30.5081 4.13577 30.5753 3.95478 30.6012C3.90824 30.6063 3.86169 30.6115 3.81515 30.6115L3.84618 30.596ZM3.4687 28.9568C3.60832 28.9568 3.73242 28.9878 3.82033 29.0137C3.90307 28.9775 3.98062 28.9516 4.06336 28.9309C4.1099 28.9206 4.15645 28.8999 4.20299 28.8792C4.25987 28.8585 4.31676 28.8378 4.37364 28.8172C4.54428 28.7603 4.69424 28.7551 4.7925 28.7551C4.85972 28.5741 4.98381 28.3414 5.25787 28.207C5.38715 28.1449 5.51127 28.1139 5.59401 28.0932L5.6457 28.0777C5.78532 28.0105 5.92496 27.9898 6.04906 27.995C6.11629 27.9277 6.19384 27.8657 6.29726 27.814C6.49894 27.7105 6.69027 27.7002 6.81955 27.7054C6.83506 27.695 6.85573 27.6899 6.87125 27.6795C6.92296 27.6537 6.96951 27.633 7.01605 27.6071C7.04708 27.5916 7.07293 27.5709 7.10395 27.5502C7.17118 27.3692 7.28495 27.1521 7.53834 27.0124L7.85894 26.8315C8.02959 26.7332 8.20023 26.7125 8.34502 26.7177C8.4019 26.6608 8.46911 26.6039 8.55185 26.5574C8.6139 26.4902 8.70698 26.3971 8.84143 26.3195C8.84143 26.3195 8.86211 26.2988 8.87763 26.2833C8.96036 26.2109 9.0431 26.1437 9.13618 26.092C9.28614 26.0041 9.4361 25.9679 9.55504 25.9627C9.61709 25.8903 9.69467 25.8179 9.79809 25.761C9.95323 25.668 10.1032 25.6318 10.2066 25.6111C10.2842 25.5387 10.3669 25.4715 10.46 25.4198C10.6099 25.3267 10.7651 25.2905 10.8892 25.275C10.9512 25.2077 11.0236 25.1405 11.1219 25.0785C11.1788 25.0423 11.2408 25.0112 11.3029 24.9802C11.3649 24.8302 11.4683 24.6648 11.6597 24.5407C11.7993 24.4476 11.9337 24.4062 12.0217 24.3804C12.0423 24.3752 12.0423 24.3752 12.0475 24.3752C12.1664 24.3028 12.2802 24.2666 12.3578 24.2356C12.3888 24.2252 12.3681 24.2356 12.3578 24.2459C12.4509 24.1839 12.5439 24.1373 12.6422 24.096C12.6629 24.0856 12.6836 24.0804 12.7042 24.0649C12.8387 23.977 12.9731 23.9357 13.0662 23.9046C13.0766 23.9046 13.0817 23.8995 13.0869 23.8995C13.1386 23.8684 13.1903 23.8374 13.242 23.8064C13.2834 23.7805 13.3247 23.7598 13.3661 23.7288C13.4385 23.6823 13.5161 23.6409 13.5936 23.6047C13.635 23.5271 13.6867 23.4392 13.7643 23.3565C13.8264 23.2117 13.9246 23.01 14.1366 22.8704C14.328 22.736 14.5296 22.7101 14.7003 22.7205C14.7416 22.6739 14.7934 22.6325 14.8502 22.5912L14.8761 22.5601C14.9537 22.4774 15.0364 22.3998 15.1295 22.3326L15.1605 22.3016C15.2381 22.2189 15.3208 22.1465 15.4087 22.0792C15.5121 22.0068 15.6207 21.9655 15.7138 21.9396C15.7759 21.831 15.8586 21.7173 15.993 21.6242L16.0034 21.6035C16.0603 21.5414 16.143 21.4432 16.2671 21.3605C16.3912 21.2725 16.5153 21.2208 16.598 21.1898C16.6187 21.1795 16.6084 21.1898 16.598 21.2002C16.6756 21.1433 16.7584 21.0967 16.8411 21.0502C16.867 21.0347 16.8876 21.0243 16.9135 21.0088C17.0841 20.8847 17.2548 20.8434 17.3582 20.8175C17.4513 20.7606 17.5444 20.7296 17.6219 20.7089C17.653 20.6675 17.6891 20.621 17.7305 20.5745C17.7926 20.4452 17.8805 20.2745 18.0563 20.1401C18.1804 20.047 18.3045 19.9953 18.3976 19.9591C18.4596 19.8764 18.532 19.7884 18.6303 19.7109C18.7699 19.6023 18.9095 19.5506 19.0181 19.5196C19.0543 19.4678 19.1009 19.411 19.1629 19.3541C19.2301 19.2455 19.3129 19.1162 19.4473 19.0024C19.5869 18.8835 19.7369 18.8318 19.8765 18.8111C19.9231 18.7387 19.98 18.6715 20.0523 18.6094C20.0937 18.5732 20.1247 18.5422 20.1609 18.5112C20.2126 18.4647 20.2643 18.4129 20.316 18.3664C20.3316 18.3509 20.3471 18.3302 20.3626 18.3147C20.4247 18.2423 20.4919 18.1647 20.5643 18.1027C20.7039 17.9786 20.8539 17.9165 20.9469 17.8803L21.04 17.7976C21.0865 17.658 21.1589 17.4873 21.3192 17.3374C21.5261 17.146 21.7588 17.1047 21.9087 17.0892C21.9294 17.0736 21.9501 17.0633 21.9656 17.053C22.0173 16.9392 22.0897 16.8099 22.2139 16.6961C22.2242 16.6858 22.2397 16.6651 22.2501 16.6444C22.3121 16.5617 22.3793 16.4841 22.4517 16.4117C22.5293 16.3393 22.6172 16.2773 22.7103 16.2152L22.762 16.179C22.9068 16.0394 23.0774 15.9722 23.1912 15.936L23.2325 15.8946C23.2532 15.7912 23.2946 15.6826 23.3566 15.5689C23.3877 15.4189 23.4445 15.2069 23.6152 15.0311C23.8014 14.8346 24.0237 14.7725 24.184 14.7466C24.2099 14.7156 24.2409 14.6898 24.2668 14.6587C24.3753 14.5346 24.4994 14.4571 24.5822 14.4054C24.6029 14.364 24.6236 14.3278 24.6494 14.2916C24.6701 14.1416 24.7115 13.9451 24.8563 13.7641L24.8769 13.7228C24.9235 13.6297 24.9752 13.5418 25.0321 13.4591C25.089 13.3867 25.1458 13.3194 25.2079 13.2522C25.2286 13.2315 25.2441 13.216 25.2596 13.1953C25.3475 13.066 25.4561 12.9781 25.5543 12.9213C25.5802 12.8333 25.6164 12.7403 25.6733 12.6472C25.7612 12.5024 25.875 12.4041 25.9474 12.3421C25.9629 12.3007 25.9784 12.2594 25.9991 12.218L26.0146 12.187C26.0146 12.068 26.0249 11.9491 26.0663 11.8198C26.0922 11.7371 26.1077 11.6595 26.118 11.5768C26.1335 11.4579 26.1697 11.3544 26.2059 11.2665C26.1956 11.2407 26.1852 11.2148 26.1749 11.189C26.1749 11.1786 26.1542 11.1476 26.1232 11.101C26.0094 11.101 25.875 11.0907 25.7405 11.039C25.5647 10.9666 25.4406 10.8528 25.363 10.7597C25.3475 10.7597 25.3372 10.7494 25.3217 10.7442C25.3113 10.7442 25.3061 10.7391 25.301 10.7339C25.1872 10.7184 25.089 10.6925 25.0166 10.6615C24.939 10.6822 24.8614 10.7029 24.7839 10.7132C24.7011 10.7236 24.6132 10.7287 24.5201 10.7339C24.4943 10.7339 24.4736 10.7339 24.4478 10.7339C24.4581 10.7339 24.4477 10.7442 24.4219 10.7546C24.3857 10.7701 24.3495 10.7856 24.3081 10.8011C24.1995 10.9045 24.0547 11.0235 23.8427 11.0855C23.76 11.1114 23.6773 11.1217 23.6049 11.1217C23.5066 11.251 23.3722 11.3648 23.1757 11.432C22.9378 11.5096 22.731 11.4734 22.5913 11.4372C22.5862 11.4372 22.5758 11.4372 22.5707 11.4423C22.4724 11.5664 22.3379 11.7009 22.1259 11.7836C22.0846 11.7991 22.038 11.8198 21.9915 11.8405C21.9243 11.8715 21.857 11.9026 21.7898 11.9284C21.7588 11.9439 21.7329 11.9594 21.7019 11.975C21.6244 12.0215 21.5416 12.0629 21.4589 12.0991C21.2262 12.1973 21.009 12.1714 20.8487 12.1301C20.7659 12.28 20.6418 12.43 20.4402 12.5283C20.2902 12.5955 20.1557 12.6213 20.0627 12.6369C20.0472 12.6369 20.0368 12.6369 20.0368 12.6369C19.8713 12.7092 19.711 12.7196 19.5714 12.7041C19.5404 12.7351 19.5042 12.761 19.4628 12.792C19.3749 12.9006 19.2612 13.0299 19.0854 13.1229C18.8889 13.2264 18.6975 13.247 18.5837 13.2522C18.5579 13.2626 18.5372 13.2729 18.5113 13.2832C18.4389 13.428 18.3304 13.5883 18.1339 13.7073C18.0253 13.7693 17.9167 13.8055 17.8133 13.821C17.7512 13.9245 17.6633 14.0279 17.5392 14.1106C17.4151 14.1933 17.2858 14.2347 17.1669 14.2502C17.11 14.3433 17.0324 14.4364 16.9238 14.5088C16.898 14.5295 16.8773 14.5501 16.8514 14.5708C16.7842 14.6329 16.717 14.6949 16.6394 14.7466C16.4326 14.8966 16.205 14.9225 16.0499 14.9225C16.0292 14.9432 16.0034 14.9638 15.9827 14.9845C15.9103 15.0931 15.8172 15.2224 15.6776 15.331C15.6052 15.3827 15.5328 15.4344 15.4553 15.4809C15.4242 15.5016 15.388 15.5223 15.357 15.543C15.1812 15.6774 14.995 15.724 14.8864 15.7498C14.7933 15.8067 14.7054 15.8429 14.6434 15.8688L14.209 16.1842C14.178 16.2101 14.147 16.2359 14.1108 16.2566C14.0435 16.3807 13.9453 16.5307 13.7695 16.6496C13.6971 16.7013 13.6195 16.7479 13.5368 16.7944C13.5109 16.8099 13.4851 16.8254 13.4592 16.8409C13.423 16.872 13.3868 16.8978 13.3506 16.9288C13.3196 16.9547 13.2886 16.9754 13.2627 17.0012C13.2214 17.0426 13.1748 17.0788 13.1283 17.1098C13.061 17.2133 12.968 17.3218 12.8335 17.4046C12.6836 17.4977 12.5491 17.5339 12.4353 17.5442C12.1251 17.6424 11.7734 17.5339 11.5769 17.2598C11.4528 17.0891 11.4115 16.8875 11.4373 16.6961C11.3753 16.2876 11.5666 16.0342 11.6959 15.9153C11.882 15.7395 12.1044 15.6878 12.2854 15.6774C12.3009 15.6671 12.3164 15.6619 12.3319 15.6516C12.3681 15.5068 12.4302 15.3517 12.5698 15.2172V15.2017C12.6163 15.1293 12.6784 15.0156 12.7818 14.907C12.9473 14.7363 13.1386 14.6639 13.2627 14.6225C13.2782 14.607 13.2937 14.5967 13.3092 14.5812C13.3351 14.4312 13.3972 14.2399 13.5471 14.0744C13.6195 13.9917 13.7023 13.9245 13.785 13.8572C13.8057 13.8417 13.8212 13.8262 13.8419 13.8107C13.9298 13.7124 14.0332 13.64 14.1159 13.5935C14.1573 13.4849 14.2142 13.3608 14.3176 13.247C14.3435 13.216 14.3642 13.185 14.39 13.1488C14.4366 13.0816 14.4831 13.0195 14.54 12.9575C14.5968 12.8902 14.6589 12.8282 14.721 12.7713C14.7468 12.7454 14.7727 12.7248 14.7985 12.6937C14.7985 12.6834 14.814 12.6679 14.8244 12.6472C14.8761 12.5593 14.933 12.4714 14.995 12.3886C15.1036 12.2542 15.2329 12.1766 15.3518 12.1249C15.3829 12.037 15.4294 11.9439 15.5018 11.856C15.6104 11.7112 15.7448 11.6285 15.8741 11.5768C15.8845 11.5406 15.9 11.5044 15.9155 11.4682C15.9362 11.3234 15.9724 11.1269 16.1068 10.9459C16.2361 10.7649 16.4067 10.6718 16.5567 10.6201C16.5774 10.5736 16.5981 10.5271 16.6291 10.4857C16.6705 10.3616 16.717 10.2323 16.8049 10.103C16.8773 9.99443 16.9549 9.91687 17.0169 9.85999C17.0428 9.74105 17.079 9.6066 17.1669 9.47216C17.1979 9.42044 17.2289 9.36872 17.26 9.31701L17.3582 9.15671C17.3789 9.12568 17.3944 9.0895 17.4099 9.0533C17.4461 8.9809 17.4823 8.90334 17.5289 8.83095C17.653 8.6241 17.8288 8.5155 17.9684 8.44828C17.9942 8.39139 18.0201 8.33968 18.0511 8.28797C18.0822 8.23626 18.1132 8.18455 18.1494 8.14318C18.1339 7.98805 18.1494 7.80707 18.2476 7.61574C18.2942 7.52783 18.3459 7.46061 18.3976 7.40372C18.3976 7.27962 18.4235 7.12965 18.4958 6.97969C18.532 6.9073 18.5734 6.84525 18.6096 6.77803C18.6303 6.747 18.6458 6.71596 18.6613 6.68494C18.7751 6.44707 18.9612 6.32297 19.1009 6.25574C19.1164 6.22472 19.1319 6.1937 19.1474 6.16267C19.1784 6.09545 19.2198 6.02821 19.256 5.96099C19.2508 5.85757 19.256 5.73346 19.2922 5.60418C19.2922 5.44905 19.2922 5.25772 19.3801 5.05605C19.4576 4.87506 19.5818 4.75096 19.7007 4.66822C19.7007 4.56997 19.7214 4.46655 19.7628 4.35795C19.7886 4.29073 19.8145 4.22352 19.8455 4.16146C19.8662 4.11493 19.892 4.06321 19.9075 4.0115C19.9593 3.84602 20.042 3.72191 20.0989 3.62883C20.0885 3.53575 20.0834 3.42716 20.0989 3.30822C20.104 3.26686 20.0989 3.23066 20.0989 3.19446C20.0989 3.14275 20.0989 3.08587 20.104 3.03416C20.1092 2.92039 20.1351 2.82732 20.1713 2.74458C20.1454 2.6877 20.1247 2.62565 20.1092 2.55843L20.0937 2.47569C20.0885 2.44466 20.0834 2.40846 20.073 2.37744C20.0627 2.35675 20.0523 2.33089 20.042 2.30503C20.0161 2.29469 19.9851 2.27919 19.9592 2.26367C19.9075 2.23782 19.8558 2.20679 19.8041 2.1706C19.7369 2.17577 19.6697 2.18611 19.5973 2.18611C19.5611 2.18611 19.5249 2.18611 19.4939 2.18611C19.3956 2.2947 19.2612 2.39294 19.0854 2.44982C18.9457 2.49119 18.8268 2.49637 18.7337 2.50154C18.6458 2.56359 18.5579 2.62047 18.4596 2.66184C18.289 2.73941 18.1235 2.74975 17.9839 2.72907C17.9219 2.79112 17.8495 2.84283 17.7564 2.88937C17.6426 2.94625 17.534 2.9721 17.4306 2.98244C17.3634 3.07552 17.2703 3.1686 17.1462 3.241C16.9704 3.34442 16.7997 3.35994 16.6498 3.35994C16.5877 3.51507 16.4843 3.7064 16.2723 3.84602C16.0706 3.9753 15.8637 3.99599 15.6931 3.98047C15.6569 4.01667 15.6155 4.05286 15.5638 4.08389C15.4397 4.17179 15.3156 4.21316 15.2225 4.24419C15.1657 4.31658 15.0984 4.38899 15.0157 4.46138C14.9381 4.56997 14.8502 4.67856 14.7158 4.77681C14.6175 4.8492 14.5141 4.89574 14.421 4.9216C14.3848 4.97331 14.3383 5.02503 14.2814 5.07674C14.2297 5.14913 14.1728 5.2267 14.0901 5.30427C14.0229 5.41286 13.9401 5.53696 13.8005 5.65072C13.5781 5.83171 13.3299 5.85758 13.1593 5.85758C13.1438 5.86792 13.1334 5.87826 13.1179 5.8886C13.0817 5.94548 13.0455 6.00236 12.999 6.05924C12.9576 6.2092 12.88 6.41087 12.6991 6.57635C12.5646 6.69528 12.4198 6.75733 12.2802 6.78319C12.2388 6.85558 12.1819 6.93316 12.1095 7.00038C12.0423 7.06243 11.9751 7.10898 11.9079 7.15035C11.8717 7.28997 11.8045 7.44509 11.67 7.57954C11.4839 7.7657 11.2615 7.82257 11.0753 7.83292C11.0443 7.97771 10.9823 8.13801 10.8478 8.28797C10.7134 8.43276 10.5582 8.50516 10.4341 8.54653C10.4083 8.5879 10.3824 8.63444 10.3462 8.67581C10.2997 8.79991 10.2376 8.94988 10.1187 9.0895C10.1032 9.11018 10.0877 9.13603 10.0721 9.15671C10.0204 9.23428 9.96875 9.31184 9.9067 9.38424C9.80845 9.498 9.69982 9.57557 9.61709 9.62728C9.57572 9.71519 9.52919 9.80827 9.46196 9.90135C9.40508 10.0203 9.35339 10.1392 9.25514 10.253L9.02761 10.5322C8.95521 10.6253 8.86728 10.6977 8.77938 10.7442C8.75869 10.8683 8.71215 10.9976 8.61907 11.1269C8.45877 11.3337 8.25712 11.4216 8.09682 11.4682C8.07097 11.5096 8.0451 11.5458 8.01924 11.5871C7.96753 11.6647 7.90547 11.7216 7.85376 11.7733C7.83825 11.9129 7.79688 12.0835 7.68829 12.2438C7.68829 12.249 7.67795 12.2697 7.66761 12.2904C7.62624 12.3835 7.57451 12.4817 7.51763 12.5645C7.43489 12.6834 7.34181 12.7713 7.25908 12.8282C7.23322 12.9316 7.19187 13.0505 7.1143 13.1695L7.0057 13.3246C6.97467 13.3711 6.93847 13.4177 6.90745 13.4694C6.8092 13.6194 6.69544 13.7176 6.61787 13.7797C6.61787 13.79 6.60754 13.8003 6.60237 13.8159C6.56617 13.8986 6.52481 13.9813 6.47827 14.0589V14.0796C6.44725 14.1572 6.41103 14.2761 6.33347 14.395V14.4157C6.30761 14.4933 6.26623 14.6122 6.19384 14.7363C6.06456 14.9535 5.8784 15.0621 5.74396 15.1293C5.7543 15.2844 5.74398 15.4758 5.63538 15.6671C5.6147 15.7085 5.58884 15.755 5.56816 15.8015C5.53713 15.8636 5.5061 15.9308 5.46991 15.9929C5.37165 16.179 5.22686 16.2928 5.14412 16.36C5.10276 16.4221 5.06139 16.479 5.01485 16.5358L4.97865 16.5824L4.82352 16.8823C4.80284 16.9185 4.7873 16.9599 4.77179 17.0012C4.76145 17.0219 4.75111 17.0426 4.74594 17.0685C4.75628 17.2184 4.75112 17.4098 4.65287 17.6166C4.59081 17.751 4.49775 17.8493 4.40984 17.9269C4.40467 18.0303 4.38397 18.1492 4.32709 18.2682C4.23918 18.4595 4.10473 18.5836 3.97546 18.6612C3.96511 18.7284 3.94443 18.806 3.90823 18.8783L3.83583 19.0438C3.80997 19.1007 3.78414 19.1524 3.76346 19.2093C3.69106 19.3799 3.58246 19.4989 3.49455 19.5816C3.49455 19.5971 3.49454 19.6126 3.48937 19.6281C3.53591 19.7936 3.5721 20.0211 3.47902 20.2745C3.40146 20.4762 3.27219 20.6107 3.19462 20.6882C3.16359 20.7503 3.12739 20.8123 3.09119 20.8744L3.06017 20.9261C3.04982 20.9519 3.03433 21.0088 3.01882 21.0605L2.99812 21.1329C3.01363 21.2674 3.01882 21.4432 2.95677 21.6294C2.94126 21.6707 2.93091 21.7121 2.92057 21.7535C2.89988 21.831 2.88437 21.9034 2.85852 21.9758V22.012C2.843 22.1206 2.82749 22.2292 2.79129 22.3378C2.72924 22.5343 2.62063 22.6687 2.55341 22.7515C2.51204 22.8601 2.45515 22.9428 2.41896 23.0049C2.40862 23.0204 2.40863 23.0255 2.40346 23.0255C2.38278 23.0876 2.36209 23.1497 2.33623 23.2117C2.32072 23.2531 2.3052 23.2893 2.29486 23.3306C2.24832 23.5013 2.15525 23.6306 2.07768 23.7236C2.07768 23.7288 2.07768 23.7392 2.07768 23.7443C2.16042 23.9098 2.23798 24.1425 2.17076 24.4217C2.13973 24.5458 2.08801 24.6441 2.03113 24.7268C2.06215 24.8458 2.0725 24.9802 2.03113 25.1354C1.99493 25.3008 1.91737 25.4301 1.84498 25.5232C1.84498 25.5646 1.84498 25.6059 1.84498 25.6525C1.876 25.7714 1.91219 25.9162 1.89667 26.092C1.88116 26.3092 1.79327 26.4746 1.72605 26.5781C1.72605 26.6143 1.71569 26.6505 1.71052 26.6867C1.71052 26.7074 1.70017 26.728 1.70017 26.7539C1.70017 26.8728 1.68468 26.9814 1.664 27.0642C1.68986 27.1314 1.71568 27.1986 1.7312 27.271C1.79325 27.3692 1.8553 27.4882 1.89667 27.6381C1.91219 27.695 1.91738 27.7571 1.92255 27.8088C2.01563 27.8812 2.10353 27.9743 2.16558 28.1035C2.26383 28.2949 2.27416 28.4759 2.25348 28.631C2.30519 28.6775 2.36725 28.7189 2.42413 28.7551L2.52239 28.8223C2.52239 28.8223 2.56375 28.8534 2.58444 28.8689C2.70337 28.8792 2.79645 28.8895 2.87919 28.9102C2.98261 28.9361 3.07053 28.9775 3.14292 29.0137C3.22566 28.993 3.31357 28.9775 3.40665 28.9775H3.42732L3.4687 28.9568ZM8.30882 28.3621L8.28815 28.3724C8.28815 28.3724 8.29848 28.3673 8.30882 28.3621ZM1.77257 26.3816C1.77257 26.3816 1.77257 26.3867 1.77257 26.3919C1.77257 26.3919 1.77257 26.3867 1.77257 26.3816ZM14.7933 24.4941C14.7933 24.4941 14.7933 24.4941 14.7882 24.4941C14.7882 24.4941 14.7882 24.4941 14.7933 24.4941ZM0.821112 22.8756C0.821112 22.8756 0.821112 22.8808 0.821112 22.8859C0.821112 22.8859 0.821112 22.8807 0.821112 22.8756ZM2.59996 22.6274C2.59996 22.6274 2.59996 22.6325 2.59996 22.6377C2.59996 22.6377 2.59996 22.6325 2.59996 22.6274ZM18.1597 22.131C18.1597 22.131 18.1597 22.1309 18.1545 22.1361C18.1545 22.1361 18.1545 22.1361 18.1597 22.131ZM2.97744 21.2053V21.2208C2.97744 21.2208 2.97744 21.2105 2.97744 21.2053ZM3.448 19.8246C3.448 19.8246 3.448 19.8246 3.448 19.8298C3.448 19.8298 3.448 19.8298 3.448 19.8246ZM24.6081 16.4686C24.6081 16.4686 24.5977 16.479 24.5925 16.4841C24.5925 16.4841 24.6029 16.4738 24.6081 16.4686ZM24.0237 14.9121C24.0237 14.9121 24.0237 14.9173 24.0186 14.9225V14.9121H24.0237ZM4.30641 14.9018C4.30641 14.9018 4.30641 14.9018 4.30641 14.907C4.30641 14.907 4.30641 14.907 4.30641 14.9018ZM26.0766 14.7105C26.0766 14.7105 26.0766 14.7104 26.0766 14.7156C26.0766 14.7156 26.0766 14.7156 26.0766 14.7105ZM26.0353 12.1094C26.0353 12.1094 26.0353 12.1094 26.0353 12.1146V12.1094ZM18.6458 11.4785C18.6458 11.4785 18.6458 11.4785 18.6406 11.4785C18.6406 11.4785 18.6406 11.4785 18.6458 11.4785ZM22.7775 11.3803C22.7775 11.3803 22.7775 11.3803 22.7672 11.3803C22.7672 11.3803 22.7723 11.3803 22.7775 11.3803ZM6.44725 11.3441C6.44725 11.3441 6.44724 11.3492 6.44207 11.3544C6.44207 11.3544 6.44208 11.3544 6.44725 11.3441ZM19.4163 11.22C19.4163 11.22 19.4111 11.22 19.406 11.22C19.406 11.22 19.4111 11.22 19.4163 11.22ZM25.5957 10.827H25.6061C25.6061 10.827 25.6009 10.827 25.5957 10.827ZM21.583 10.3357C21.583 10.3357 21.583 10.3357 21.5778 10.3357C21.5778 10.3357 21.5778 10.3357 21.583 10.3357ZM7.86412 9.54972C7.86412 9.54972 7.85893 9.56006 7.85376 9.56523L7.86412 9.54972ZM10.9978 7.86912C10.9978 7.86912 10.9978 7.86912 10.9978 7.87429C10.9978 7.87429 10.9978 7.87429 10.9978 7.86912ZM12.9162 6.19369C12.9162 6.19369 12.9059 6.19886 12.9059 6.20403C12.9059 6.20403 12.9162 6.19887 12.9162 6.19369ZM13.4178 5.6921H13.4075C13.4075 5.6921 13.4127 5.6921 13.4178 5.6921ZM19.3646 5.4956C19.3646 5.4956 19.3646 5.4956 19.3646 5.50077C19.3646 5.50077 19.3646 5.50077 19.3646 5.4956ZM13.3144 3.88738H13.3092C13.3092 3.88738 13.3092 3.88738 13.3144 3.88738ZM21.5209 1.73105C21.5209 1.73105 21.5209 1.73622 21.5209 1.74139C21.5209 1.74139 21.5209 1.73622 21.5209 1.73105Z" fill="black"/>
</svg>
