<svg width="99" height="96" viewBox="0 0 99 96" fill="none" xmlns="http://www.w3.org/2000/svg">
<path d="M52.6402 1.15999C52.4002 1.14999 52.1902 0.459993 51.9502 0.449993C51.7102 0.439993 51.4502 0.889996 51.2102 0.889996C50.9702 0.889996 50.7302 0.649998 50.4902 0.649998C50.2502 0.649998 50.0102 0.859997 49.7702 0.859997C49.5302 0.859997 49.2802 0.479994 49.0402 0.489994C48.8002 0.499994 48.5502 0.519995 48.3102 0.529995C48.0702 0.539995 47.8202 0.469992 47.5802 0.479992C47.3402 0.489992 47.0902 0.519997 46.8502 0.539997C46.6102 0.559997 46.4102 1.10999 46.1702 1.12999C45.9302 1.14999 45.6502 0.759995 45.4102 0.779995C45.1702 0.799995 44.9602 1.11 44.7202 1.14C44.4802 1.17 44.2402 1.19 44.0002 1.22C43.7602 1.25 43.4702 0.899991 43.2302 0.939991C42.9902 0.979991 42.7602 1.07999 42.5202 1.11999C42.2802 1.15999 42.0402 1.21999 41.8102 1.25999C41.5802 1.29999 41.4302 1.86999 41.2002 1.91999C40.9702 1.96999 40.6302 1.51999 40.3902 1.55999C40.1502 1.59999 40.0302 2.16999 39.7902 2.22999C39.5502 2.28999 39.1902 1.77999 38.9602 1.83999C38.7302 1.89999 38.6002 2.37999 38.3602 2.43999C38.1202 2.49999 37.8402 2.34 37.6002 2.4C37.3602 2.46 37.1902 2.73999 36.9602 2.79999C36.7302 2.85999 36.4702 2.83 36.2402 2.9C36.0102 2.97 35.7302 2.89 35.5002 2.96C35.2702 3.03 35.0902 3.24 34.8602 3.32C34.6302 3.4 34.4702 3.65999 34.2402 3.73999C34.0102 3.81999 33.6502 3.50999 33.4202 3.59999C33.1902 3.68999 32.9802 3.8 32.7502 3.89C32.5202 3.98 32.2502 3.93999 32.0302 4.02999C31.8102 4.11999 31.6802 4.44 31.4502 4.54C31.2202 4.64 30.9702 4.64 30.7502 4.73C30.5302 4.82 30.2402 4.77 30.0202 4.87C29.8002 4.97 29.5502 4.99999 29.3302 5.09999C29.1102 5.19999 28.9202 5.37 28.7002 5.48C28.4802 5.59 28.4702 6.1 28.2502 6.21C28.0302 6.32 27.7002 6.18999 27.4902 6.29999C27.2802 6.40999 27.0302 6.46 26.8202 6.57C26.6102 6.68 26.3202 6.65999 26.1002 6.76999C25.8802 6.87999 25.8702 7.34999 25.6602 7.46999C25.4502 7.58999 25.1302 7.50999 24.9202 7.62999C24.7102 7.74999 24.6902 8.19 24.4802 8.31C24.2702 8.43 24.0102 8.44999 23.8002 8.57999C23.5902 8.70999 23.4402 8.91 23.2402 9.04C23.0402 9.17 22.8402 9.3 22.6402 9.43C22.4402 9.56 22.3002 9.78999 22.1002 9.91999C21.9002 10.05 21.5202 9.92 21.3202 10.06C21.1202 10.2 20.7802 10.14 20.5902 10.28C20.4002 10.42 20.2802 10.67 20.0802 10.82C19.8802 10.97 19.5602 10.94 19.3702 11.08C19.1802 11.22 19.3702 11.87 19.1802 12.02C18.9902 12.17 18.6702 12.14 18.4802 12.3C18.2902 12.46 17.8502 12.29 17.6602 12.44C17.4702 12.59 17.4502 12.94 17.2602 13.09C17.0702 13.24 17.0502 13.58 16.8702 13.74C16.6902 13.9 16.4002 13.93 16.2202 14.09C16.0402 14.25 15.7802 14.33 15.6102 14.49C15.4402 14.65 15.5302 15.1 15.3502 15.27C15.1702 15.44 14.8102 15.4 14.6402 15.57C14.4702 15.74 14.4502 16.06 14.2802 16.23C14.1102 16.4 13.7002 16.34 13.5402 16.52C13.3802 16.7 13.5402 17.19 13.3902 17.36C13.2402 17.53 12.6202 17.31 12.4602 17.49C12.3002 17.67 12.5002 18.17 12.3502 18.36C12.2002 18.55 11.7402 18.47 11.5902 18.66C11.4402 18.85 11.5102 19.22 11.3602 19.41C11.2102 19.6 10.7402 19.53 10.5902 19.72C10.4402 19.91 10.3402 20.14 10.1902 20.33C10.0402 20.52 10.2702 20.99 10.1202 21.19C9.97018 21.39 9.88017 21.6 9.74017 21.8C9.60017 22 9.15019 21.97 9.01019 22.17C8.87019 22.37 8.85021 22.64 8.71021 22.84C8.57021 23.04 8.62017 23.36 8.49017 23.56C8.36017 23.76 8.17016 23.92 8.04016 24.12C7.91016 24.32 7.81018 24.54 7.68018 24.75C7.55018 24.96 7.24018 25.05 7.12018 25.26C7.00018 25.47 6.67017 25.56 6.55017 25.77C6.43017 25.98 6.42017 26.25 6.30017 26.46C6.18017 26.67 6.04018 26.87 5.93018 27.08C5.82018 27.29 5.78017 27.55 5.67017 27.76C5.56017 27.97 5.23018 28.08 5.12018 28.3C5.01018 28.52 5.16018 28.85 5.06018 29.07C4.96018 29.29 4.64016 29.41 4.54016 29.63C4.44016 29.85 4.57016 30.17 4.48016 30.39C4.39016 30.61 4.39017 30.87 4.30017 31.1C4.21017 31.33 3.82016 31.43 3.73016 31.65C3.64016 31.87 3.9702 32.26 3.8902 32.48C3.8102 32.7 3.87016 32.98 3.79016 33.21C3.71016 33.44 3.40019 33.58 3.32019 33.81C3.24019 34.04 3.42021 34.34 3.34021 34.57C3.26021 34.8 3.19019 35.02 3.13019 35.26C3.07019 35.5 2.5802 35.6 2.5202 35.84C2.4602 36.08 2.59021 36.36 2.53021 36.59C2.47021 36.82 2.14021 36.99 2.09021 37.22C2.04021 37.45 2.33021 37.77 2.28021 38.01C2.23021 38.25 1.72017 38.38 1.67017 38.62C1.62017 38.86 1.6302 39.11 1.5802 39.34C1.5302 39.57 1.38021 39.8 1.34021 40.03C1.30021 40.26 1.73019 40.59 1.69019 40.83C1.65019 41.07 1.71018 41.32 1.68018 41.56C1.65018 41.8 1.06021 41.96 1.03021 42.2C1.00021 42.44 0.990205 42.69 0.960205 42.92C0.930205 43.15 1.50015 43.47 1.47015 43.71C1.44015 43.95 0.86021 44.13 0.84021 44.37C0.82021 44.61 1.02018 44.87 1.00018 45.11C0.980183 45.35 0.650198 45.57 0.640198 45.81C0.630198 46.05 0.760183 46.3 0.750183 46.54C0.740183 46.78 1.08019 47.04 1.07019 47.28C1.06019 47.52 0.810171 47.76 0.800171 48C0.790171 48.24 1.17017 48.48 1.17017 48.73C1.17017 48.98 0.960205 49.21 0.960205 49.45C0.960205 49.69 0.670176 49.94 0.680176 50.18C0.690176 50.42 1.27021 50.64 1.28021 50.88C1.29021 51.12 0.980183 51.37 1.00018 51.61C1.02018 51.85 1.23018 52.08 1.25018 52.32C1.27018 52.56 1.16018 52.81 1.18018 53.05C1.20018 53.29 1.45015 53.51 1.47015 53.75C1.49015 53.99 1.01021 54.28 1.03021 54.52C1.05021 54.76 1.19015 54.99 1.22015 55.23C1.25015 55.47 1.34018 55.7 1.37018 55.94C1.40018 56.18 1.63017 56.39 1.67017 56.63C1.71017 56.87 1.25016 57.19 1.29016 57.43C1.33016 57.67 1.95018 57.8 2.00018 58.04C2.05018 58.28 1.75016 58.58 1.79016 58.82C1.83016 59.06 1.7202 59.33 1.7702 59.57C1.8202 59.81 2.31018 59.94 2.37018 60.18C2.43018 60.42 2.5202 60.64 2.5802 60.87C2.6402 61.1 2.2702 61.45 2.3302 61.68C2.3902 61.91 2.5102 62.13 2.5802 62.36C2.6502 62.59 2.88019 62.78 2.94019 63.01C3.00019 63.24 3.3202 63.4 3.3902 63.63C3.4602 63.86 3.47016 64.11 3.54016 64.34C3.61016 64.57 3.36019 64.91 3.44019 65.14C3.52019 65.37 3.4402 65.65 3.5202 65.88C3.6002 66.11 3.7502 66.32 3.8302 66.54C3.9102 66.76 4.57021 66.77 4.65021 67C4.73021 67.23 4.46017 67.59 4.55017 67.82C4.64017 68.05 4.7902 68.24 4.8902 68.46C4.9902 68.68 5.03019 68.93 5.13019 69.15C5.23019 69.37 5.2202 69.64 5.3302 69.86C5.4402 70.08 5.5402 70.3 5.6402 70.51C5.7402 70.72 5.98021 70.88 6.09021 71.1C6.20021 71.32 6.62016 71.37 6.73016 71.58C6.84016 71.79 6.97021 71.99 7.09021 72.2C7.21021 72.41 7.22021 72.67 7.34021 72.88C7.46021 73.09 7.09021 73.58 7.21021 73.79C7.3302 74 7.74017 74.04 7.86017 74.24C7.98017 74.44 7.86018 74.81 8.00018 75.01C8.14018 75.21 8.7602 75.09 8.8902 75.29C9.0202 75.49 8.8202 75.91 8.96021 76.11C9.10021 76.31 9.37018 76.42 9.50018 76.61C9.63018 76.8 9.83015 76.97 9.97015 77.16C10.1102 77.35 10.3502 77.48 10.4902 77.67C10.6302 77.86 10.6602 78.14 10.8102 78.33C10.9602 78.52 11.0402 78.76 11.1902 78.95C11.3402 79.14 11.6902 79.16 11.8402 79.35C11.9902 79.54 11.9402 79.89 12.1002 80.07C12.2602 80.25 12.2202 80.6 12.3902 80.78C12.5602 80.96 13.0502 80.83 13.2202 81.01C13.3802 81.19 13.1502 81.73 13.3202 81.91C13.4902 82.09 13.7802 82.15 13.9402 82.32C14.1002 82.49 14.5802 82.36 14.7502 82.53C14.9202 82.7 14.7502 83.22 14.9302 83.39C15.1102 83.56 15.4102 83.58 15.5902 83.74C15.7702 83.9 15.9902 84.02 16.1702 84.18C16.3502 84.34 16.5602 84.46 16.7502 84.62C16.9402 84.78 16.9702 85.1 17.1602 85.26C17.3502 85.42 17.6902 85.37 17.8802 85.52C18.0702 85.67 18.1702 85.93 18.3602 86.07C18.5502 86.21 18.7102 86.4 18.9102 86.54C19.1102 86.68 19.3302 86.78 19.5202 86.92C19.7102 87.06 19.8602 87.28 20.0502 87.42C20.2402 87.56 20.5102 87.61 20.7102 87.74C20.9102 87.87 21.1002 88.03 21.3002 88.16C21.5002 88.29 21.8802 88.15 22.0802 88.27C22.2802 88.39 22.2702 88.89 22.4702 89.01C22.6702 89.13 22.9402 89.16 23.1502 89.28C23.3602 89.4 23.6502 89.37 23.8602 89.49C24.0702 89.61 24.3502 89.59 24.5602 89.7C24.7702 89.81 24.9902 89.9 25.2102 90.01C25.4302 90.12 25.6402 90.22 25.8502 90.33C26.0602 90.44 26.2302 90.65 26.4402 90.75C26.6502 90.85 26.7502 91.23 26.9702 91.33C27.1902 91.43 27.3702 91.62 27.5902 91.71C27.8102 91.8 28.0702 91.81 28.3002 91.9C28.5302 91.99 28.8202 91.88 29.0502 91.97C29.2802 92.06 29.5602 91.98 29.7802 92.06C30.0002 92.14 30.1302 92.51 30.3602 92.59C30.5902 92.67 30.8202 92.74 31.0502 92.82C31.2802 92.9 31.5802 92.75 31.8102 92.82C32.0402 92.89 32.1902 93.22 32.4202 93.29C32.6502 93.36 32.9302 93.25 33.1602 93.31C33.3902 93.37 33.5702 93.64 33.8002 93.7C34.0302 93.76 34.2402 93.96 34.4702 94.01C34.7002 94.06 35.0502 93.64 35.2802 93.69C35.5102 93.74 35.7602 93.73 36.0002 93.77C36.2402 93.81 36.4602 93.89 36.7002 93.94C36.9402 93.99 37.1302 94.24 37.3702 94.28C37.6102 94.32 37.9002 94.01 38.1402 94.04C38.3802 94.07 38.5902 94.28 38.8302 94.31C39.0702 94.34 39.3002 94.42 39.5402 94.45C39.7802 94.48 39.9702 94.91 40.2102 94.94C40.4502 94.97 40.6902 94.99 40.9302 95.01C41.1702 95.03 41.4402 94.63 41.6802 94.64C41.9202 94.65 42.1502 94.74 42.3902 94.76C42.6302 94.78 42.8502 95.14 43.0902 95.15C43.3302 95.16 43.5802 95.12 43.8202 95.13C44.0602 95.14 44.3102 94.87 44.5502 94.87C44.7902 94.87 45.0302 95.13 45.2702 95.13C45.5102 95.13 45.7502 94.79 45.9902 94.79C46.2302 94.79 46.4702 94.84 46.7102 94.83C46.9502 94.82 47.1802 94.54 47.4202 94.53C47.6602 94.52 47.9202 94.92 48.1602 94.9C48.4002 94.88 48.6402 94.83 48.8802 94.81C49.1202 94.79 49.3502 94.63 49.5902 94.61C49.8302 94.59 50.0802 94.67 50.3202 94.65C50.5602 94.63 50.7702 94.34 51.0102 94.31C51.2502 94.28 51.4802 94.22 51.7202 94.19C51.9602 94.16 52.2502 94.54 52.4902 94.5C52.7302 94.46 52.9002 94.03 53.1402 94C53.3802 93.97 53.6802 94.33 53.9202 94.29C54.1602 94.25 54.3502 93.98 54.5902 93.93C54.8302 93.88 55.1202 94.12 55.3502 94.08C55.5802 94.04 55.7302 93.54 55.9602 93.49C56.1902 93.44 56.4302 93.39 56.6602 93.34C56.8902 93.29 57.2101 93.56 57.4401 93.51C57.6701 93.46 57.8802 93.29 58.1102 93.23C58.3402 93.17 58.5702 93.08 58.8002 93.02C59.0302 92.96 59.1802 92.61 59.4102 92.54C59.6402 92.47 60.0302 92.95 60.2602 92.88C60.4902 92.81 60.5502 92.18 60.7802 92.11C61.0102 92.04 61.2502 92 61.4702 91.93C61.6902 91.86 62.0002 92 62.2202 91.93C62.4402 91.86 62.7402 91.96 62.9702 91.88C63.2002 91.8 63.3302 91.47 63.5602 91.38C63.7902 91.29 64.0202 91.23 64.2402 91.15C64.4602 91.07 64.8402 91.35 65.0602 91.26C65.2802 91.17 65.4202 90.86 65.6402 90.77C65.8602 90.68 66.0402 90.47 66.2602 90.38C66.4802 90.29 66.7902 90.38 67.0102 90.29C67.2302 90.2 67.3102 89.78 67.5302 89.68C67.7502 89.58 68.0902 89.75 68.3102 89.64C68.5302 89.53 68.6402 89.21 68.8502 89.1C69.0602 88.99 69.3402 89.01 69.5602 88.9C69.7802 88.79 69.9502 88.62 70.1702 88.51C70.3902 88.4 70.7002 88.48 70.9102 88.37C71.1202 88.26 71.1201 87.76 71.3301 87.64C71.5401 87.52 71.9402 87.75 72.1502 87.64C72.3602 87.53 72.4102 87.13 72.6202 87.01C72.8302 86.89 72.9702 86.66 73.1802 86.54C73.3902 86.42 73.8601 86.74 74.0701 86.61C74.2801 86.48 74.2002 85.92 74.4102 85.79C74.6202 85.66 74.9302 85.72 75.1302 85.59C75.3302 85.46 75.4802 85.24 75.6702 85.11C75.8602 84.98 76.2102 85.06 76.4102 84.92C76.6102 84.78 76.6102 84.36 76.8002 84.23C76.9902 84.1 77.1702 83.93 77.3702 83.79C77.5702 83.65 78.0201 83.86 78.2101 83.72C78.4001 83.58 78.3302 83.08 78.5202 82.94C78.7102 82.8 79.0402 82.83 79.2302 82.68C79.4202 82.53 79.5201 82.28 79.7101 82.13C79.9001 81.98 80.0602 81.81 80.2502 81.66C80.4402 81.51 80.9402 81.73 81.1202 81.57C81.3002 81.41 81.1501 80.87 81.3301 80.71C81.5101 80.55 82.0201 80.76 82.2001 80.6C82.3801 80.44 82.6002 80.32 82.7802 80.16C82.9602 80 83.0102 79.7 83.1802 79.53C83.3502 79.36 83.6601 79.33 83.8301 79.16C84.0001 78.99 84.0502 78.69 84.2202 78.52C84.3902 78.35 84.5802 78.2 84.7502 78.03C84.9202 77.86 85.0802 77.68 85.2502 77.5C85.4202 77.32 85.6801 77.24 85.8401 77.06C86.0002 76.88 86.0102 76.56 86.1702 76.38C86.3302 76.2 86.4602 75.99 86.6102 75.81C86.7602 75.63 87.0902 75.59 87.2502 75.4C87.4102 75.21 87.4201 74.91 87.5701 74.73C87.7201 74.55 87.6202 74.15 87.7702 73.97C87.9202 73.79 88.0202 73.56 88.1702 73.37C88.3202 73.18 88.6702 73.15 88.8102 72.96C88.9502 72.77 89.1901 72.64 89.3301 72.45C89.4701 72.26 89.4501 71.95 89.5901 71.75C89.7301 71.55 90.0501 71.49 90.1901 71.29C90.3301 71.09 90.4501 70.88 90.5801 70.68C90.7101 70.48 90.6901 70.18 90.8201 69.98C90.9501 69.78 91.0402 69.55 91.1702 69.35C91.3002 69.15 91.3502 68.9 91.4702 68.69C91.5902 68.48 92.2302 68.58 92.3502 68.37C92.4702 68.16 92.1502 67.7 92.2702 67.49C92.3902 67.28 92.4302 67.03 92.5402 66.82C92.6502 66.61 92.8702 66.45 92.9802 66.24C93.0902 66.03 93.5402 65.99 93.6502 65.78C93.7602 65.57 93.6001 65.22 93.7101 65C93.8201 64.78 93.7102 64.47 93.8102 64.25C93.9102 64.03 94.2902 63.94 94.3902 63.73C94.4902 63.52 94.6502 63.32 94.7402 63.1C94.8302 62.88 95.0602 62.71 95.1502 62.49C95.2402 62.27 95.0502 61.93 95.1502 61.71C95.2502 61.49 95.3501 61.28 95.4401 61.05C95.5301 60.82 95.5502 60.58 95.6302 60.36C95.7102 60.14 96.0902 60.01 96.1602 59.78C96.2302 59.55 96.0802 59.25 96.1602 59.02C96.2402 58.79 96.5602 58.64 96.6302 58.41C96.7002 58.18 96.6502 57.91 96.7202 57.68C96.7902 57.45 96.7701 57.19 96.8301 56.96C96.8901 56.73 96.9102 56.48 96.9702 56.25C97.0302 56.02 96.8402 55.73 96.9002 55.49C96.9602 55.25 97.3901 55.11 97.4401 54.88C97.4901 54.65 97.7901 54.46 97.8401 54.22C97.8902 53.98 97.7502 53.71 97.7902 53.47C97.8302 53.23 97.5002 52.93 97.5402 52.69C97.5802 52.45 98.0102 52.28 98.0502 52.04C98.0902 51.8 97.9902 51.54 98.0202 51.31C98.0502 51.08 97.9301 50.82 97.9601 50.58C97.9901 50.34 98.3902 50.14 98.4202 49.9C98.4502 49.66 98.2202 49.4 98.2402 49.16C98.2602 48.92 98.1002 48.67 98.1202 48.43C98.1402 48.19 98.0302 47.94 98.0402 47.7C98.0502 47.46 98.4002 47.24 98.4102 47C98.4202 46.76 98.4601 46.52 98.4601 46.29C98.4601 46.06 98.3402 45.81 98.3502 45.57C98.3602 45.33 98.4202 45.09 98.4202 44.86C98.4202 44.63 98.2202 44.39 98.2202 44.15C98.2202 43.91 98.6602 43.66 98.6602 43.42C98.6602 43.18 98.2201 42.96 98.2101 42.72C98.2001 42.48 98.6502 42.22 98.6402 41.98C98.6302 41.74 98.6202 41.5 98.6002 41.26C98.5802 41.02 98.5302 40.78 98.5102 40.54C98.4902 40.3 97.9902 40.11 97.9702 39.87C97.9502 39.63 97.8701 39.4 97.8401 39.17C97.8102 38.94 98.0202 38.67 97.9902 38.43C97.9602 38.19 98.1702 37.92 98.1302 37.68C98.0902 37.44 98.0802 37.2 98.0402 36.96C98.0002 36.72 97.9702 36.48 97.9302 36.25C97.8902 36.02 97.4802 35.85 97.4302 35.62C97.3802 35.39 97.5702 35.1 97.5202 34.87C97.4702 34.64 97.4802 34.39 97.4302 34.15C97.3802 33.91 97.2302 33.7 97.1702 33.47C97.1102 33.24 97.2202 32.96 97.1502 32.73C97.0802 32.5 96.6702 32.37 96.6002 32.14C96.5302 31.91 96.6702 31.62 96.6002 31.39C96.5302 31.16 96.0101 31.08 95.9401 30.85C95.8701 30.62 96.3102 30.21 96.2302 29.99C96.1502 29.77 95.6702 29.69 95.5901 29.46C95.5101 29.23 95.7702 28.88 95.6802 28.65C95.5902 28.42 95.5501 28.18 95.4501 27.96C95.3501 27.74 95.1002 27.59 95.0002 27.37C94.9002 27.15 94.6702 27 94.5602 26.78C94.4502 26.56 94.5601 26.25 94.4401 26.04C94.3201 25.83 94.2202 25.61 94.1102 25.4C94.0002 25.19 93.6102 25.13 93.4902 24.92C93.3702 24.71 93.1302 24.58 93.0102 24.37C92.8902 24.17 93.0302 23.81 92.9002 23.6C92.7702 23.39 92.4002 23.35 92.2802 23.15C92.1602 22.95 92.0701 22.72 91.9401 22.52C91.8101 22.32 92.0102 21.9 91.8702 21.7C91.7302 21.5 91.3602 21.48 91.2202 21.29C91.0802 21.1 90.9402 20.91 90.8002 20.72C90.6602 20.53 90.3002 20.51 90.1502 20.32C90.0002 20.13 90.1502 19.72 90.0002 19.53C89.8502 19.34 89.8102 19.07 89.6602 18.89C89.5102 18.71 89.0302 18.81 88.8702 18.63C88.7102 18.45 88.7102 18.14 88.5602 17.96C88.4102 17.78 88.1602 17.68 88.0002 17.5C87.8402 17.32 88.0001 16.85 87.8301 16.67C87.6601 16.49 87.0802 16.73 86.9102 16.56C86.7402 16.39 86.7202 16.09 86.5502 15.92C86.3802 15.75 86.3102 15.49 86.1402 15.32C85.9702 15.15 85.6602 15.14 85.4802 14.98C85.3002 14.82 85.0402 14.76 84.8702 14.6C84.7002 14.44 84.7902 13.97 84.6102 13.81C84.4302 13.65 84.1602 13.6 83.9802 13.44C83.8002 13.28 83.6102 13.15 83.4202 12.99C83.2302 12.83 82.9802 12.78 82.7902 12.63C82.6002 12.48 82.3801 12.38 82.1901 12.23C82.0001 12.08 81.7802 11.98 81.5901 11.84C81.4001 11.7 81.4202 11.27 81.2302 11.13C81.0402 10.99 80.6501 11.12 80.4601 10.98C80.2701 10.84 80.1902 10.53 80.0002 10.4C79.8102 10.27 79.6102 10.12 79.4202 9.98999C79.2302 9.85999 78.8802 9.95 78.6802 9.82C78.4802 9.69 78.3202 9.49999 78.1202 9.37999C77.9202 9.25999 77.7602 9.05999 77.5602 8.93999C77.3602 8.81999 77.3602 8.35 77.1602 8.23C76.9602 8.11 76.5902 8.25999 76.3802 8.13999C76.1702 8.01999 75.9502 7.94 75.7402 7.82C75.5302 7.7 75.3802 7.49 75.1702 7.37C74.9602 7.25 74.7202 7.20999 74.5102 7.09999C74.3002 6.98999 74.1202 6.82 73.9102 6.71C73.7002 6.6 73.6302 6.20999 73.4102 6.09999C73.1902 5.98999 72.7602 6.33999 72.5502 6.23999C72.3402 6.13999 72.3202 5.61 72.1002 5.51C71.8802 5.41 71.5401 5.58999 71.3201 5.48999C71.1001 5.38999 70.9402 5.16 70.7202 5.07C70.5002 4.98 70.1002 5.31999 69.8802 5.21999C69.6602 5.11999 69.6701 4.47999 69.4501 4.38999C69.2301 4.29999 68.9902 4.23 68.7702 4.15C68.5502 4.07 68.3302 3.95 68.1102 3.86C67.8902 3.77 67.6302 3.77999 67.4002 3.69999C67.1702 3.61999 66.8702 3.76 66.6502 3.68C66.4302 3.6 66.1402 3.71 65.9102 3.64C65.6802 3.57 65.6002 3.05999 65.3702 2.98999C65.1402 2.91999 64.8402 3.06999 64.6102 3.00999C64.3802 2.94999 64.1302 2.93999 63.9002 2.86999C63.6702 2.79999 63.4102 2.84 63.1802 2.78C62.9502 2.72 62.7802 2.42 62.5502 2.36C62.3202 2.3 62.0701 2.28999 61.8401 2.23999C61.6101 2.18999 61.3502 2.25999 61.1102 2.19999C60.8702 2.13999 60.6402 2.12999 60.4102 2.07999C60.1802 2.02999 60.0402 1.51 59.8102 1.46C59.5802 1.41 59.3002 1.58 59.0602 1.53C58.8202 1.48 58.5402 1.72999 58.3002 1.68999C58.0602 1.64999 57.8302 1.65999 57.5901 1.61999C57.3501 1.57999 57.1602 1.26999 56.9302 1.23999C56.7002 1.20999 56.4802 0.979993 56.2502 0.949993C56.0202 0.919993 55.7302 1.28 55.4902 1.25C55.2502 1.22 55.0702 0.699997 54.8302 0.679997C54.5902 0.659997 54.3102 1.06999 54.0802 1.04999C53.8502 1.02999 53.6102 1.02999 53.3702 1.01999C53.1302 1.00999 52.8902 1.17999 52.6502 1.16999L52.6402 1.15999Z" fill="white"/>
</svg>
