<svg width="24" height="16" viewBox="0 0 24 16" fill="none" xmlns="http://www.w3.org/2000/svg">
<g clip-path="url(#clip0_3242_62029)">
<path d="M1.23077 3.05176e-05H22.7692C23.449 3.05176e-05 24 0.551077 24 1.2308V14.1539C24 14.8336 23.449 15.3846 22.7692 15.3846H1.23077C0.551046 15.3846 0 14.8336 0 14.1539V1.2308C0 0.551077 0.551046 3.05176e-05 1.23077 3.05176e-05Z" fill="#2557D6"/>
<path d="M0.00796635 7.25199H1.16L1.41975 6.65168H2.00129L2.26037 7.25199H4.52707V6.79307L4.72941 7.25399H5.90612L6.10846 6.78624V7.25202H11.7417L11.7391 6.26661H11.8481C11.9243 6.26916 11.9466 6.2759 11.9466 6.39664V7.25202H14.8602V7.02264C15.0952 7.14325 15.4607 7.25202 15.9416 7.25202H17.1674L17.4297 6.65171H18.0112L18.2677 7.25202H20.6297V6.68181L20.9874 7.25202H22.8802V3.48248H21.007V3.92765L20.7448 3.48248H18.8226V3.92765L18.5817 3.48248H15.9854C15.5509 3.48248 15.1688 3.54061 14.8602 3.70258V3.48248H13.0686V3.70258C12.8722 3.53562 12.6046 3.48248 12.307 3.48248H5.76117L5.32197 4.45605L4.87092 3.48248H2.80923V3.92765L2.5827 3.48248H0.824397L0.0078125 5.27467V7.25193H0.00790481L0.00796635 7.25199ZM7.27997 6.7083H6.58877L6.58621 4.59156L5.60852 6.70827H5.01652L4.03627 4.58968V6.70827H2.66489L2.40581 6.10544H1.0019L0.740213 6.70827H0.00787404L1.21529 4.00559H2.2171L3.36384 6.56448V4.00559H4.46434L5.34674 5.83904L6.15732 4.00559H7.27994L7.27997 6.7083ZM2.17535 5.54451L1.71387 4.46707L1.25495 5.54451H2.17535ZM10.0307 6.70824H7.77834V4.00556H10.0307V4.56836H8.45261V5.05553H9.99292V5.60953H8.45258V6.14928H10.0307L10.0307 6.70824ZM13.2049 4.73347C13.2049 5.16436 12.9047 5.38701 12.7298 5.45384C12.8774 5.50762 13.0034 5.6027 13.0634 5.68144C13.1586 5.81587 13.175 5.93593 13.175 6.17731V6.70824H12.4949L12.4923 6.36741C12.4923 6.20479 12.5086 5.97091 12.3859 5.84088C12.2874 5.74581 12.1372 5.72519 11.8945 5.72519H11.1707V6.70827H10.4964V4.00556H12.0472C12.3918 4.00556 12.6457 4.01427 12.8637 4.13501C13.077 4.25574 13.2049 4.43199 13.2049 4.73347ZM12.3526 5.13476C12.2599 5.18867 12.1504 5.19045 12.019 5.19045H11.2V4.59014H12.0302C12.1477 4.59014 12.2703 4.59519 12.35 4.63888C12.4374 4.67827 12.4915 4.76205 12.4915 4.87781C12.4915 4.99596 12.44 5.09101 12.3526 5.13476ZM14.2863 6.70824H13.5983V4.00556H14.2863V6.70824ZM22.2727 6.70824H21.3173L20.0393 4.67971V6.70824H18.6661L18.4037 6.10541H17.0031L16.7486 6.70824H15.9594C15.6318 6.70824 15.2167 6.63879 14.9818 6.40931C14.7448 6.17984 14.6215 5.86901 14.6215 5.37753C14.6215 4.9767 14.6952 4.61027 14.985 4.3207C15.203 4.10501 15.5444 4.00556 16.009 4.00556H16.6618V4.58467H16.0226C15.7766 4.58467 15.6376 4.61974 15.5038 4.74476C15.3889 4.85858 15.31 5.07368 15.31 5.35698C15.31 5.64651 15.3701 5.85531 15.4954 5.99168C15.5991 6.09864 15.7878 6.13107 15.9653 6.13107H16.2681L17.2184 4.00565H18.2287L19.3703 6.56199V4.00568H20.3969L21.5821 5.88796V4.00568H22.2727V6.70824ZM18.1743 5.54454L17.7077 4.4671L17.2436 5.54454H18.1743ZM23.9909 11.0239C23.8271 11.2534 23.508 11.3697 23.0759 11.3697H21.7738V10.79H23.0706C23.1993 10.79 23.2893 10.7738 23.3435 10.7231C23.3947 10.6777 23.4237 10.6137 23.4232 10.5468C23.4232 10.468 23.3905 10.4055 23.3409 10.368C23.2919 10.3267 23.2207 10.308 23.1033 10.308C22.4702 10.2874 21.6804 10.3267 21.6804 9.47128C21.6804 9.07922 21.9402 8.66648 22.6477 8.66648H23.9908V8.12867H22.7429C22.3663 8.12867 22.0927 8.21513 21.899 8.34941V8.12864H20.0533C19.7581 8.12864 19.4117 8.19876 19.2478 8.34941V8.12864H15.9518V8.34941C15.6895 8.16811 15.247 8.12864 15.0426 8.12864H12.8686V8.34941C12.661 8.15685 12.1996 8.12864 11.9182 8.12864H9.48511L8.92837 8.70599L8.40686 8.12864H4.77209V11.9006H8.33824L8.91197 11.3141L9.45243 11.9006L11.6506 11.9025V11.0152H11.8667C12.1583 11.0195 12.5024 11.0082 12.8058 10.8825V11.9005H14.619V10.9174H14.7065C14.8181 10.9174 14.8291 10.9218 14.8291 11.0286V11.9004H20.3371C20.6867 11.9004 21.0523 11.8147 21.2547 11.659V11.9004H23.0018C23.3654 11.9004 23.7204 11.8516 23.9906 11.7266L23.9906 11.0238L23.9909 11.0239ZM13.0697 9.57301C13.0697 10.324 12.4849 10.479 11.8955 10.479H11.0542V11.3857H9.74372L8.91344 10.4908L8.05061 11.3857H5.37978V8.68239H8.09163L8.9212 9.56851L9.77889 8.68239H11.9334C12.4684 8.68239 13.0697 8.82433 13.0697 9.57301ZM7.70904 10.8171H6.05126V10.2793H7.53157V9.72771H6.05126V9.23621H7.74169L8.4792 10.024L7.70904 10.8171ZM10.3801 11.1267L9.34492 10.0255L10.3801 8.95931V11.1267ZM11.9111 9.92464H11.0398V9.23621H11.9189C12.1624 9.23621 12.3314 9.33128 12.3314 9.56765C12.3314 9.80147 12.1702 9.92464 11.9111 9.92464ZM16.476 8.68239H18.7264V9.24147H17.1475V9.73294H18.6879V10.2845H17.1475V10.8224L18.7264 10.8248V11.3857H16.476L16.476 8.68239ZM15.6108 10.1294C15.7609 10.1825 15.8836 10.2776 15.9411 10.3564C16.0363 10.4884 16.0501 10.6116 16.0528 10.8498V11.3857H15.3758V11.0475C15.3758 10.8849 15.3922 10.6441 15.2669 10.5184C15.1684 10.4215 15.0182 10.3984 14.7722 10.3984H14.0516V11.3858H13.3741V8.68242H14.9308C15.2721 8.68242 15.5207 8.69688 15.7421 8.80999C15.9548 8.93319 16.0887 9.1019 16.0887 9.41033C16.0887 9.84178 15.7883 10.062 15.6108 10.1294ZM15.2298 9.78768C15.1395 9.83898 15.028 9.84341 14.8969 9.84341H14.0778V9.23627H14.908C15.028 9.23627 15.1482 9.23873 15.2298 9.2851C15.3171 9.32888 15.3694 9.41267 15.3694 9.52827C15.3694 9.6439 15.3171 9.73707 15.2298 9.78768ZM21.3165 9.9599C21.4479 10.09 21.5182 10.2544 21.5182 10.5326C21.5182 11.1141 21.139 11.3856 20.459 11.3856H19.1457V10.8059H20.4537C20.5816 10.8059 20.6723 10.7898 20.7291 10.739C20.7755 10.6972 20.8088 10.6365 20.8088 10.5627C20.8088 10.4839 20.7728 10.4214 20.7265 10.3839C20.6749 10.3427 20.6038 10.324 20.4864 10.324C19.8558 10.3033 19.0662 10.3427 19.0662 9.48728C19.0662 9.09516 19.3232 8.68242 20.0302 8.68242H21.3819V9.25781H20.145C20.0225 9.25781 19.9427 9.26227 19.8749 9.30664C19.8011 9.35039 19.7737 9.41538 19.7737 9.50107C19.7737 9.60304 19.8364 9.67245 19.9212 9.70248C19.9923 9.72618 20.0688 9.7331 20.1836 9.7331L20.5466 9.74251C20.9126 9.75101 21.1638 9.81168 21.3165 9.9599ZM23.9921 9.23621H22.7632C22.6406 9.23621 22.559 9.24064 22.4904 9.28504C22.4192 9.32882 22.3918 9.39378 22.3918 9.47956C22.3918 9.58153 22.4519 9.65088 22.5393 9.68091C22.6104 9.70464 22.6868 9.71156 22.7991 9.71156L23.1646 9.72091C23.5333 9.72965 23.7794 9.79039 23.9295 9.93851C23.9569 9.95913 23.9732 9.98227 23.992 10.0054V9.23621H23.9921Z" fill="white"/>
</g>
<defs>
<clipPath id="clip0_3242_62029">
<rect width="24" height="15.3846" fill="white"/>
</clipPath>
</defs>
</svg>
