<svg width="24" height="16" viewBox="0 0 24 16" fill="none" xmlns="http://www.w3.org/2000/svg"><path d="M9.700 0.162 C 5.784 0.178,2.149 0.202,1.623 0.215 C 0.546 0.243,0.618 0.224,0.230 0.593 L 0.000 0.812 -0.000 7.670 L -0.000 14.527 0.247 14.785 C 0.384 14.926,0.576 15.096,0.674 15.161 L 0.854 15.280 9.797 15.278 C 19.977 15.276,23.118 15.245,23.316 15.142 C 23.385 15.106,23.567 14.959,23.721 14.814 L 24.000 14.550 24.000 7.722 L 24.000 0.894 23.680 0.507 L 23.359 0.120 20.090 0.127 C 18.291 0.130,13.616 0.146,9.700 0.162 M7.408 5.030 C 7.623 5.261,7.619 5.226,7.632 6.950 C 7.645 8.558,7.645 8.560,7.562 8.560 C 7.463 8.560,6.680 8.311,6.427 8.199 C 6.140 8.072,6.133 8.053,6.212 7.586 C 6.317 6.964,6.349 7.021,5.855 6.944 C 5.328 6.862,5.280 6.838,5.280 6.659 L 5.280 6.520 5.980 6.520 L 6.680 6.520 6.680 6.400 L 6.680 6.280 5.980 6.280 L 5.280 6.280 5.280 5.940 L 5.280 5.600 5.065 5.600 C 4.947 5.600,4.794 5.611,4.725 5.625 L 4.600 5.650 4.600 5.945 L 4.600 6.240 3.900 6.240 L 3.200 6.240 3.200 6.380 L 3.200 6.520 3.900 6.520 L 4.600 6.520 4.600 6.720 L 4.600 6.920 4.130 6.921 C 3.624 6.921,3.468 6.944,3.491 7.015 C 3.520 7.101,3.799 7.156,4.646 7.241 C 5.116 7.288,5.515 7.341,5.533 7.358 C 5.580 7.403,5.417 7.708,5.318 7.761 C 5.259 7.793,4.968 7.792,4.265 7.758 C 3.164 7.705,3.173 7.703,2.903 8.002 C 2.712 8.213,2.640 8.386,2.641 8.629 C 2.643 9.116,3.042 9.484,3.637 9.546 C 4.074 9.592,4.650 9.372,5.273 8.921 C 5.455 8.788,5.621 8.680,5.641 8.680 C 5.768 8.680,7.675 9.620,7.705 9.698 C 7.732 9.768,7.637 9.954,7.413 10.270 L 7.236 10.520 5.708 10.519 C 4.103 10.517,3.085 10.477,2.813 10.403 C 2.594 10.345,2.464 10.235,2.361 10.022 C 2.267 9.827,2.237 9.288,2.180 6.680 L 2.154 5.500 2.301 5.352 C 2.493 5.160,2.720 5.086,3.260 5.037 C 3.718 4.995,5.496 4.937,6.643 4.926 L 7.305 4.920 7.408 5.030 M13.502 6.138 C 13.621 6.258,13.622 6.281,13.517 6.415 C 13.422 6.535,13.362 6.544,13.203 6.461 C 13.007 6.360,13.004 6.204,13.195 6.100 C 13.342 6.020,13.390 6.026,13.502 6.138 M4.200 8.162 C 4.529 8.214,4.820 8.308,4.882 8.382 C 4.921 8.429,4.901 8.467,4.775 8.585 C 4.439 8.898,3.971 9.126,3.643 9.134 C 3.450 9.139,3.124 8.966,3.007 8.796 C 2.841 8.555,2.970 8.189,3.235 8.148 C 3.450 8.115,3.948 8.122,4.200 8.162 " fill="white" stroke="none" fill-rule="evenodd"></path></svg>