<svg width="24" height="16" viewBox="0 0 24 16" fill="none" xmlns="http://www.w3.org/2000/svg">
<g clip-path="url(#clip0_3242_62022)">
<path d="M1.23077 0H22.7692C23.449 0 24 0.551046 24 1.23077V14.1538C24 14.8336 23.449 15.3846 22.7692 15.3846H1.23077C0.551046 15.3846 0 14.8336 0 14.1538V1.23077C0 0.551046 0.551046 0 1.23077 0Z" fill="white"/>
<path d="M3.51567 7.93692C3.36797 7.95541 3.10942 8.01076 2.9617 8.14002C2.51853 8.52769 2.77705 9.21073 3.68188 9.21073C4.1989 9.21073 4.71594 8.87842 5.12219 8.3615C4.5313 8.08458 4.05117 7.8815 3.51567 7.93692Z" fill="#2BA6DF"/>
<path d="M6.8255 8.41232C7.65645 8.68924 7.8411 8.7077 7.8411 8.7077V5.75392C7.8411 5.25549 7.43485 4.84937 6.91784 4.84937H3.03999C2.54141 4.84937 2.1167 5.25552 2.1167 5.75398V9.6309C2.1167 10.1293 2.52295 10.5355 3.03999 10.5355H6.91784C7.41639 10.5355 7.8411 10.1293 7.8411 9.63084V9.59395C7.8411 9.59395 6.36387 8.98475 5.60676 8.61552C5.10821 9.22472 4.4619 9.61241 3.77867 9.61241C2.63381 9.61241 2.24602 8.61552 2.79999 7.96937C2.91076 7.82167 3.1139 7.69244 3.42781 7.61863C3.90793 7.50783 4.6835 7.69244 5.40365 7.93247C5.53288 7.69244 5.64368 7.43401 5.71756 7.15709H3.48322V6.93555H4.62808V6.4925H3.2247V6.27097H4.62808V5.69869C4.62808 5.69869 4.62808 5.60638 4.72039 5.60638H5.27439V6.28946H6.65931V6.49256H5.27439V6.89869H6.40079C6.29002 7.34173 6.12381 7.74789 5.92067 8.09863C6.28999 8.22786 6.6039 8.33866 6.8255 8.41244V8.41232Z" fill="#2BA6DF"/>
<path d="M10.4766 6.19138L11.6953 8.83128H11.049L10.7166 8.12971H9.71948L9.38711 8.83128H8.9624L10.1996 6.26519C10.1996 6.26519 10.2365 6.19135 10.3104 6.19135H10.4766L10.4766 6.19138ZM9.83028 7.88975H10.6058L10.2181 7.05898L9.83028 7.88975ZM12.521 8.85227H11.9301V6.34156C11.9301 6.26775 11.967 6.23076 12.0593 6.23076H12.521V8.85227ZM13.6289 8.8351H13.038V6.93362C13.038 6.85978 13.0749 6.82282 13.1672 6.82282H13.6289V8.8351ZM14.3514 6.8623H14.7393V7.04691C14.8131 6.99153 14.887 6.93611 14.9793 6.91768C15.0717 6.88079 15.164 6.8623 15.2932 6.8623C15.4224 6.8623 15.5333 6.88079 15.6256 6.93611C15.7364 6.99153 15.8102 7.04691 15.8841 7.13922C15.9579 7.23153 16.0134 7.32384 16.0503 7.43464C16.0872 7.54541 16.1057 7.65615 16.1057 7.78535C16.1057 7.9515 16.0872 8.09919 16.0319 8.22842C15.9765 8.35762 15.921 8.48685 15.8287 8.57916C15.7364 8.67147 15.6441 8.76374 15.5148 8.81916C15.3855 8.87451 15.2563 8.89298 15.1086 8.89298H14.9054C14.8501 8.89298 14.7946 8.87448 14.7393 8.85605V9.52067H14.1483V7.10227C14.1299 6.8623 14.2222 6.8623 14.3514 6.8623ZM14.7392 8.30224C14.7392 8.35765 14.7392 8.39455 14.7577 8.43147C14.7762 8.46839 14.7946 8.50528 14.8315 8.54227C14.8684 8.57916 14.9054 8.59762 14.9424 8.61608C14.9793 8.63458 15.0347 8.63458 15.0901 8.63458C15.1454 8.63458 15.1824 8.61608 15.2378 8.57916C15.2747 8.54227 15.3301 8.50531 15.3486 8.43147C15.3671 8.35765 15.404 8.30224 15.4224 8.20993C15.441 8.11762 15.4594 8.04378 15.4594 7.93301C15.4594 7.80381 15.4594 7.69304 15.4409 7.60073C15.4224 7.50842 15.404 7.43458 15.3671 7.36073C15.3301 7.30535 15.2932 7.24993 15.2563 7.21304C15.2194 7.17611 15.1639 7.15762 15.1085 7.15762C15.0716 7.15762 15.0347 7.15762 14.9978 7.17611C14.9608 7.19461 14.9239 7.21304 14.9054 7.2315C14.8685 7.24996 14.85 7.28691 14.8131 7.30535C14.7761 7.34224 14.7577 7.36073 14.7392 7.39765V8.30227V8.30224ZM17.2324 6.8623C17.3801 6.8623 17.4909 6.88079 17.6017 6.89922C17.694 6.91768 17.7864 6.95461 17.8602 7.00999C17.9341 7.06541 17.971 7.12076 18.0079 7.17615C18.0448 7.24999 18.0634 7.32384 18.0634 7.39765V8.85605H17.4724V8.70836C17.4355 8.74528 17.3986 8.76374 17.3801 8.78218L17.2693 8.83759C17.2324 8.85605 17.1954 8.87448 17.1401 8.87448C17.0847 8.89298 17.0293 8.89298 16.9739 8.89298C16.8816 8.89298 16.8077 8.87448 16.7338 8.85605C16.66 8.83759 16.6046 8.80067 16.5492 8.74528C16.4938 8.70836 16.4568 8.65298 16.4383 8.57913C16.4199 8.52374 16.4014 8.44993 16.4014 8.37605C16.4014 8.30218 16.4199 8.22833 16.4383 8.17298C16.4568 8.11756 16.5122 8.06218 16.5492 8.00682C16.5861 7.95141 16.6599 7.91451 16.7153 7.87759C16.7892 7.84067 16.8446 7.80378 16.937 7.76679C17.0107 7.72993 17.0846 7.71144 17.177 7.67455C17.2508 7.65605 17.3431 7.61913 17.417 7.6007L17.4909 7.58224V7.37913C17.4909 7.32375 17.4909 7.26836 17.4724 7.21301L17.417 7.10221C17.3985 7.08375 17.3616 7.04682 17.3432 7.04682C17.3062 7.02836 17.2694 7.02836 17.2324 7.02836C17.2324 7.02836 16.9184 7.02836 16.6414 7.26836L16.5122 7.06525C16.4569 7.10227 16.7892 6.8623 17.2324 6.8623ZM17.4354 7.84073C17.3801 7.85922 17.3247 7.89611 17.2694 7.93304L17.1031 8.04384C17.0477 8.08073 17.0108 8.11765 16.9924 8.17304C16.9554 8.20996 16.9554 8.26535 16.9554 8.30227C16.9554 8.33919 16.9554 8.37611 16.9739 8.41307C16.9923 8.44996 16.9923 8.46845 17.0108 8.50538C17.0293 8.54227 17.0477 8.54227 17.0662 8.56076C17.0846 8.57922 17.1031 8.57922 17.14 8.57922C17.1954 8.57922 17.2324 8.56076 17.2878 8.5423L17.454 8.43153V7.84076L17.4354 7.84073ZM18.8679 9.50221H18.4801L18.4616 9.15147C18.4616 9.15147 18.9418 9.16993 19.0894 8.98531C19.1449 8.91147 19.1818 8.70842 19.1818 8.70842L18.2216 6.86233H18.8679L19.4773 8.0623L20.0128 6.8623H20.4375L19.4588 9.04073C19.4219 9.11458 19.2742 9.50224 18.8679 9.50221Z" fill="#3F3A39"/>
<path d="M13.3355 6.54154C13.4987 6.54154 13.6309 6.42445 13.6309 6.28C13.6309 6.13556 13.4987 6.01846 13.3355 6.01846C13.1723 6.01846 13.04 6.13556 13.04 6.28C13.04 6.42445 13.1723 6.54154 13.3355 6.54154Z" fill="#2BA6DF"/>
<path d="M21.0361 5.32031H20.833V5.28336H21.2761V5.32031H21.0731V5.89259H21.0177V5.32031H21.0361ZM21.3659 5.28336H21.4397L21.569 5.63412L21.6244 5.76336C21.6429 5.72643 21.6613 5.67105 21.6797 5.63412L21.809 5.28336H21.8829V5.91105H21.8091V5.3572L21.7537 5.50493L21.6244 5.87416H21.5875L21.4583 5.50493L21.4029 5.3572V5.91105H21.3474V5.28336H21.3659Z" fill="#3F3A39"/>
</g>
<defs>
<clipPath id="clip0_3242_62022">
<rect width="24" height="15.3846" fill="white"/>
</clipPath>
</defs>
</svg>
