<svg width="24" height="16" viewBox="0 0 24 16" fill="none" xmlns="http://www.w3.org/2000/svg"><path d="M10.106 0.158 L 0.592 0.180 0.455 0.340 C 0.236 0.598,0.113 0.887,0.077 1.232 C 0.039 1.589,0.029 4.616,0.065 4.750 C 0.078 4.800,0.101 4.840,0.116 4.840 C 0.131 4.840,0.240 4.673,0.359 4.470 C 0.736 3.826,0.866 3.653,1.008 3.602 C 1.135 3.558,1.966 3.484,2.382 3.481 L 2.583 3.480 2.689 3.690 L 2.795 3.900 2.798 3.690 L 2.800 3.480 3.833 3.480 L 4.865 3.480 4.976 3.710 C 5.036 3.837,5.129 3.993,5.181 4.058 C 5.276 4.176,5.276 4.176,5.363 4.098 C 5.410 4.055,5.517 3.921,5.600 3.800 L 5.750 3.580 9.465 3.580 C 11.508 3.580,13.547 3.564,13.995 3.544 L 14.810 3.507 14.877 3.596 C 14.943 3.684,14.948 3.684,15.522 3.643 C 15.840 3.620,16.609 3.572,17.232 3.538 C 18.525 3.466,18.593 3.474,18.719 3.713 L 18.796 3.860 18.798 3.670 L 18.800 3.480 19.775 3.480 L 20.751 3.480 20.816 3.580 C 20.852 3.635,20.899 3.680,20.920 3.680 C 20.941 3.680,20.970 3.635,20.984 3.580 L 21.009 3.480 21.944 3.480 L 22.880 3.480 22.880 5.360 L 22.880 7.240 21.930 7.240 L 20.979 7.240 20.810 6.970 L 20.642 6.700 20.641 6.970 L 20.640 7.240 19.446 7.240 L 18.253 7.240 18.143 6.960 L 18.033 6.680 17.720 6.680 L 17.407 6.680 17.301 6.950 L 17.195 7.220 14.583 7.225 L 11.971 7.230 11.948 6.825 C 11.925 6.418,11.898 6.280,11.840 6.280 C 11.785 6.280,11.761 6.452,11.761 6.850 L 11.760 7.240 8.940 7.240 L 6.120 7.240 6.118 7.030 L 6.115 6.820 6.009 7.030 L 5.903 7.240 5.442 7.239 C 5.096 7.238,4.925 7.218,4.761 7.162 C 4.547 7.088,4.542 7.088,4.489 7.163 C 4.439 7.236,4.375 7.240,3.391 7.240 L 2.347 7.240 2.115 7.019 C 1.869 6.784,1.641 6.661,1.522 6.699 C 1.446 6.724,1.280 6.943,1.196 7.130 L 1.147 7.240 0.574 7.240 L 0.000 7.240 0.000 10.870 L 0.000 14.500 0.204 14.749 C 0.529 15.146,0.673 15.199,1.568 15.246 C 2.697 15.306,22.233 15.312,22.751 15.253 C 23.220 15.199,23.434 15.101,23.631 14.851 C 23.909 14.497,23.955 14.223,23.989 12.753 L 24.012 11.726 23.856 11.760 C 23.672 11.801,22.517 11.872,21.780 11.889 C 21.262 11.900,21.260 11.900,21.247 11.806 C 21.236 11.730,21.216 11.717,21.140 11.736 C 20.660 11.857,19.179 11.919,16.756 11.919 L 14.852 11.920 14.827 11.538 C 14.813 11.328,14.785 11.126,14.764 11.088 C 14.731 11.029,14.720 11.035,14.683 11.132 C 14.659 11.194,14.628 11.397,14.614 11.582 L 14.588 11.920 13.714 11.920 L 12.840 11.920 12.840 11.610 C 12.839 11.440,12.828 11.232,12.814 11.150 L 12.790 11.000 12.581 11.000 C 12.466 11.000,12.208 11.012,12.006 11.026 L 11.640 11.052 11.640 11.486 L 11.640 11.920 10.569 11.920 L 9.498 11.920 9.200 11.620 L 8.902 11.320 8.600 11.620 L 8.298 11.920 6.549 11.920 L 4.800 11.920 4.800 10.386 C 4.800 9.543,4.788 8.688,4.774 8.486 L 4.748 8.120 6.571 8.120 L 8.393 8.120 8.656 8.410 L 8.918 8.700 9.214 8.406 L 9.510 8.112 10.305 8.157 C 10.742 8.182,11.485 8.230,11.956 8.264 L 12.813 8.325 12.899 8.217 L 12.985 8.109 14.202 8.196 C 14.872 8.244,15.542 8.294,15.690 8.307 L 15.960 8.331 15.960 8.226 L 15.960 8.120 17.595 8.120 C 19.197 8.120,19.231 8.122,19.252 8.200 C 19.271 8.275,19.306 8.280,19.778 8.280 C 20.561 8.280,22.802 8.204,23.378 8.158 C 23.663 8.135,23.920 8.097,23.948 8.073 C 24.010 8.022,24.016 5.624,23.961 2.920 C 23.918 0.840,23.906 0.779,23.454 0.278 L 23.311 0.120 21.465 0.128 C 20.450 0.132,15.339 0.146,10.106 0.158 M3.360 4.110 C 3.360 4.422,3.235 5.821,3.204 5.852 C 3.169 5.887,2.968 5.551,2.470 4.620 L 2.214 4.140 1.977 4.108 C 1.621 4.060,1.299 4.091,1.195 4.182 C 1.091 4.275,0.863 4.746,0.500 5.619 C 0.187 6.373,0.124 6.580,0.188 6.644 C 0.213 6.669,0.349 6.698,0.491 6.709 L 0.749 6.730 0.861 6.445 L 0.973 6.160 1.536 6.160 C 1.846 6.159,2.166 6.148,2.247 6.135 L 2.393 6.111 2.534 6.415 L 2.675 6.720 3.351 6.720 L 4.028 6.720 4.078 6.059 C 4.105 5.696,4.141 5.349,4.157 5.289 L 4.186 5.180 4.286 5.340 C 4.341 5.428,4.529 5.774,4.703 6.110 L 5.020 6.719 5.306 6.720 L 5.592 6.720 5.979 5.990 C 6.373 5.248,6.422 5.168,6.461 5.207 C 6.487 5.234,6.545 5.759,6.581 6.310 L 6.609 6.720 6.944 6.720 L 7.280 6.720 7.280 5.355 L 7.280 3.990 7.130 4.014 C 7.048 4.028,6.791 4.039,6.560 4.040 L 6.140 4.040 5.811 4.695 C 5.629 5.055,5.446 5.393,5.403 5.445 C 5.305 5.565,5.330 5.598,4.841 4.698 L 4.461 4.000 3.911 4.000 L 3.360 4.000 3.360 4.110 M7.800 5.360 L 7.800 6.720 8.920 6.720 L 10.040 6.720 10.040 6.440 L 10.040 6.160 9.240 6.160 L 8.440 6.160 8.440 5.880 L 8.440 5.600 9.220 5.600 L 10.000 5.600 10.000 5.340 L 10.000 5.080 9.630 5.078 C 9.427 5.077,9.125 5.061,8.961 5.042 C 8.711 5.013,8.647 4.990,8.571 4.901 C 8.455 4.766,8.454 4.657,8.570 4.623 C 8.620 4.609,8.970 4.586,9.350 4.573 L 10.040 4.548 10.040 4.274 L 10.040 4.000 8.920 4.000 L 7.800 4.000 7.800 5.360 M10.520 5.355 L 10.520 6.720 10.840 6.720 L 11.160 6.720 11.161 6.430 C 11.162 6.094,11.212 5.843,11.287 5.793 C 11.316 5.774,11.448 5.769,11.580 5.782 C 12.174 5.842,12.312 5.945,12.422 6.412 L 12.495 6.720 12.827 6.720 L 13.160 6.720 13.160 6.570 C 13.159 6.408,13.042 5.884,12.944 5.611 C 12.886 5.447,12.888 5.434,13.002 5.182 C 13.202 4.741,13.136 4.432,12.805 4.263 C 12.663 4.191,11.925 4.097,10.870 4.017 L 10.520 3.991 10.520 5.355 M13.600 5.360 L 13.600 6.720 13.940 6.720 L 14.280 6.720 14.280 5.360 L 14.280 4.000 13.940 4.000 L 13.600 4.000 13.600 5.360 M16.064 4.066 C 15.456 4.176,15.047 4.362,14.913 4.589 C 14.705 4.942,14.641 5.635,14.787 5.960 C 14.992 6.421,15.476 6.653,16.344 6.706 L 16.748 6.731 16.861 6.446 L 16.973 6.160 17.536 6.160 C 17.846 6.159,18.166 6.148,18.247 6.135 L 18.393 6.111 18.534 6.415 L 18.675 6.720 19.351 6.720 L 20.026 6.720 20.075 6.065 C 20.130 5.324,20.157 5.120,20.201 5.120 C 20.218 5.120,20.477 5.480,20.778 5.920 L 21.325 6.720 21.802 6.720 L 22.280 6.720 22.280 5.360 L 22.280 4.000 22.065 4.000 C 21.947 4.000,21.796 4.011,21.731 4.024 L 21.612 4.048 21.543 4.714 C 21.505 5.080,21.459 5.395,21.441 5.414 C 21.422 5.433,21.176 5.123,20.894 4.724 L 20.381 4.000 19.878 4.000 L 19.374 4.000 19.304 4.890 C 19.266 5.380,19.221 5.794,19.204 5.811 C 19.171 5.845,18.843 5.257,18.454 4.470 L 18.222 4.000 17.715 4.000 L 17.209 4.000 16.736 5.065 L 16.263 6.129 16.074 6.107 C 15.970 6.094,15.813 6.047,15.725 6.002 C 15.535 5.906,15.478 5.756,15.485 5.380 C 15.495 4.856,15.551 4.798,16.181 4.666 L 16.620 4.574 16.632 4.287 L 16.644 4.000 16.512 4.004 C 16.439 4.007,16.238 4.034,16.064 4.066 M11.800 4.682 C 12.330 4.765,12.461 4.863,12.275 5.036 C 12.165 5.139,11.873 5.200,11.498 5.200 L 11.200 5.200 11.200 4.980 C 11.200 4.739,11.302 4.579,11.432 4.615 C 11.469 4.625,11.635 4.655,11.800 4.682 M17.851 4.943 C 17.890 5.072,17.926 5.260,17.931 5.359 L 17.940 5.540 17.753 5.538 C 17.511 5.535,17.425 5.465,17.453 5.293 C 17.484 5.102,17.685 4.675,17.735 4.692 C 17.759 4.700,17.811 4.813,17.851 4.943 M1.839 4.948 C 1.973 5.232,1.985 5.375,1.885 5.475 C 1.784 5.576,1.652 5.584,1.527 5.496 C 1.451 5.443,1.440 5.410,1.463 5.306 C 1.496 5.156,1.685 4.760,1.724 4.760 C 1.739 4.760,1.791 4.844,1.839 4.948 M9.367 9.115 L 8.939 9.561 8.520 9.140 L 8.101 8.720 6.751 8.720 L 5.400 8.720 5.400 10.060 L 5.400 11.400 6.709 11.400 L 8.019 11.400 8.470 10.951 L 8.920 10.501 9.343 10.951 L 9.767 11.400 10.403 11.400 L 11.040 11.400 11.040 10.940 L 11.040 10.480 11.291 10.480 C 11.671 10.480,12.180 10.406,12.420 10.317 C 12.652 10.230,12.900 9.994,12.944 9.819 C 12.989 9.641,12.939 9.284,12.853 9.168 C 12.616 8.849,12.424 8.813,10.287 8.696 L 9.794 8.669 9.367 9.115 M13.360 10.040 L 13.360 11.400 13.696 11.400 L 14.033 11.400 14.046 10.981 C 14.065 10.421,14.075 10.410,14.545 10.476 C 15.144 10.560,15.201 10.607,15.340 11.130 L 15.412 11.400 15.726 11.400 L 16.040 11.400 16.039 11.230 C 16.039 11.015,15.944 10.611,15.835 10.358 L 15.751 10.163 15.882 9.851 C 16.036 9.481,16.055 9.248,15.940 9.118 C 15.829 8.993,15.585 8.892,15.279 8.844 C 15.004 8.801,13.677 8.680,13.478 8.680 L 13.360 8.680 13.360 10.040 M16.480 10.040 L 16.480 11.400 17.600 11.400 L 18.720 11.400 18.720 11.120 L 18.720 10.840 17.940 10.840 L 17.160 10.840 17.160 10.560 L 17.160 10.280 17.920 10.280 L 18.680 10.280 18.680 10.000 L 18.680 9.720 17.920 9.720 L 17.160 9.720 17.160 9.480 L 17.160 9.240 17.940 9.240 L 18.720 9.240 18.720 8.960 L 18.720 8.680 17.600 8.680 L 16.480 8.680 16.480 10.040 M20.560 8.725 C 19.589 8.811,19.223 8.997,19.140 9.446 C 19.080 9.768,19.307 9.999,19.920 10.240 C 20.352 10.409,20.640 10.552,20.640 10.596 C 20.640 10.696,20.079 10.799,19.530 10.800 L 19.160 10.800 19.160 11.100 L 19.160 11.400 19.551 11.400 C 20.027 11.400,20.553 11.339,20.815 11.254 C 21.275 11.104,21.574 10.630,21.418 10.300 C 21.362 10.183,21.292 10.130,21.025 10.003 C 20.846 9.918,20.516 9.780,20.290 9.695 C 20.065 9.611,19.880 9.528,19.880 9.512 C 19.880 9.450,20.369 9.361,21.070 9.298 L 21.360 9.272 21.360 8.976 L 21.360 8.680 21.150 8.686 C 21.034 8.689,20.769 8.706,20.560 8.725 M23.420 8.707 C 22.678 8.755,22.147 8.886,21.915 9.078 C 21.749 9.215,21.703 9.375,21.758 9.620 C 21.814 9.865,22.001 9.998,22.630 10.239 C 23.288 10.491,23.384 10.543,23.320 10.620 C 23.248 10.706,22.904 10.764,22.310 10.789 L 21.760 10.812 21.760 11.086 L 21.760 11.360 22.116 11.360 C 22.879 11.360,23.665 11.233,23.888 11.074 C 23.992 11.001,24.000 10.974,24.000 10.727 C 23.999 10.580,23.988 10.366,23.974 10.251 L 23.949 10.042 23.645 9.926 C 23.477 9.863,23.146 9.743,22.910 9.660 C 22.674 9.577,22.480 9.495,22.480 9.478 C 22.480 9.434,22.815 9.368,23.448 9.288 L 23.980 9.220 23.992 8.950 L 24.004 8.680 23.812 8.687 C 23.706 8.691,23.530 8.700,23.420 8.707 M8.110 9.630 L 8.470 10.020 8.075 10.436 L 7.679 10.852 7.110 10.827 C 6.455 10.799,6.276 10.759,6.162 10.613 C 5.971 10.370,6.080 10.321,6.882 10.291 L 7.520 10.268 7.520 9.994 L 7.520 9.720 6.780 9.720 L 6.040 9.720 6.040 9.480 L 6.040 9.240 6.896 9.240 L 7.751 9.240 8.110 9.630 M14.588 9.300 C 15.118 9.386,15.249 9.466,15.175 9.657 C 15.135 9.764,14.977 9.804,14.510 9.829 L 14.080 9.852 14.080 9.649 C 14.080 9.441,14.134 9.240,14.189 9.240 C 14.206 9.240,14.385 9.267,14.588 9.300 M10.263 9.379 C 10.298 9.518,10.267 10.786,10.228 10.826 C 10.195 10.859,9.645 10.291,9.559 10.135 C 9.521 10.066,9.525 10.021,9.580 9.905 C 9.648 9.763,10.127 9.280,10.201 9.280 C 10.221 9.280,10.250 9.325,10.263 9.379 M11.743 9.323 C 12.108 9.390,12.240 9.466,12.240 9.607 C 12.240 9.789,11.976 9.891,11.450 9.912 L 11.040 9.929 11.040 9.668 C 11.040 9.524,11.051 9.378,11.064 9.343 C 11.094 9.267,11.385 9.258,11.743 9.323 " fill="#2557D6" stroke="none" fill-rule="evenodd"></path></svg>