<svg width="24" height="16" viewBox="0 0 24 16" fill="none" xmlns="http://www.w3.org/2000/svg">
<g clip-path="url(#clip0_3242_62032)">
<path d="M22.7692 0H1.23077C0.551046 0 0 0.551046 0 1.23077V14.1538C0 14.8336 0.551046 15.3846 1.23077 15.3846H22.7692C23.449 15.3846 24 14.8336 24 14.1538V1.23077C24 0.551046 23.449 0 22.7692 0Z" fill="#000C9D"/>
<path d="M21.1339 9.99137V9.8746H21.2914V9.52777H21.4205L21.4329 9.87457H21.785L21.4594 9.10319L21.5815 9.05005L21.9407 9.88516V9.99134H21.4347V10.2885H21.2913V9.99134H21.1339V9.99137ZM20.5313 9.05014C20.6552 9.05014 20.7737 9.09257 20.8763 9.19168L20.7967 9.28189C20.7153 9.2058 20.6428 9.16866 20.5384 9.16866C20.4092 9.16866 20.3066 9.24119 20.3066 9.37565C20.3066 9.52251 20.4216 9.58977 20.5384 9.58977H20.6109L20.6286 9.70654H20.526C20.3827 9.70654 20.273 9.76316 20.273 9.93826C20.273 10.0904 20.3738 10.1878 20.5454 10.1878C20.6445 10.1878 20.7471 10.147 20.8161 10.0656L20.9152 10.147C20.8232 10.2603 20.6781 10.3081 20.5419 10.3081C20.2907 10.3081 20.119 10.1488 20.119 9.93823C20.119 9.749 20.2535 9.64989 20.3968 9.63925C20.2676 9.61448 20.1579 9.503 20.1579 9.3562C20.158 9.18993 20.3031 9.05014 20.5313 9.05014ZM19.4704 9.05014C19.635 9.05014 19.7447 9.10848 19.842 9.22525L19.7394 9.30312C19.6615 9.21285 19.5961 9.17393 19.4758 9.17393C19.3395 9.17393 19.2581 9.25885 19.2581 9.39513C19.2581 9.595 19.3572 9.72771 19.8172 10.1683V10.2885H19.0936L19.0759 10.163H19.6492C19.2475 9.79669 19.1042 9.61448 19.1042 9.39159C19.1042 9.19694 19.2404 9.05014 19.4704 9.05014ZM17.9708 10.1683H18.2256V9.07137H18.3548L18.7156 9.29426L18.652 9.39866L18.3724 9.23057V10.1683H18.6732V10.2886H17.9708L17.9708 10.1683ZM15.8297 9.99137V9.8746H15.9871V9.52777H16.1163L16.1286 9.87457H16.4807L16.1552 9.10319L16.2772 9.05005L16.6364 9.88516V9.99134H16.1304V10.2885H15.9871V9.99134H15.8297V9.99137ZM15.2271 9.05014C15.3509 9.05014 15.4694 9.09257 15.572 9.19168L15.4924 9.28189C15.411 9.2058 15.3385 9.16866 15.2341 9.16866C15.105 9.16866 15.0024 9.24119 15.0024 9.37565C15.0024 9.52251 15.1173 9.58977 15.2341 9.58977H15.3066L15.3243 9.70654H15.2217C15.0784 9.70654 14.9688 9.76316 14.9688 9.93826C14.9688 10.0904 15.0696 10.1878 15.2412 10.1878C15.3403 10.1878 15.4429 10.147 15.5119 10.0656L15.6109 10.147C15.519 10.2603 15.3739 10.3081 15.2376 10.3081C14.9864 10.3081 14.8148 10.1488 14.8148 9.93823C14.8148 9.749 14.9492 9.64989 15.0926 9.63925C14.9634 9.61448 14.8537 9.503 14.8537 9.3562C14.8537 9.18993 14.9988 9.05014 15.2271 9.05014ZM14.1662 9.05014C14.3308 9.05014 14.4404 9.10848 14.5377 9.22525L14.4351 9.30312C14.3573 9.21285 14.2918 9.17393 14.1716 9.17393C14.0353 9.17393 13.9539 9.25885 13.9539 9.39513C13.9539 9.595 14.053 9.72771 14.513 10.1683V10.2885H13.7894L13.7717 10.163H14.3449C13.9433 9.79669 13.8 9.61448 13.8 9.39159C13.8 9.19694 13.9362 9.05014 14.1662 9.05014ZM12.6666 10.1683H12.9213V9.07137H13.0505L13.4114 9.29426L13.3477 9.39866L13.0682 9.23057V10.1683H13.3689V10.2886H12.6666L12.6666 10.1683ZM10.5254 9.99137V9.8746H10.6829V9.52777H10.812L10.8244 9.87457H11.1765L10.8509 9.10319L10.973 9.05005L11.3322 9.88516V9.99134H10.8262V10.2885H10.6829V9.99134H10.5254V9.99137ZM9.92281 9.05014C10.0466 9.05014 10.1652 9.09257 10.2678 9.19168L10.1882 9.28189C10.1068 9.2058 10.0343 9.16866 9.92986 9.16866C9.80072 9.16866 9.69811 9.24119 9.69811 9.37565C9.69811 9.52251 9.81309 9.58977 9.92986 9.58977H10.0024L10.0201 9.70654H9.91749C9.77417 9.70654 9.66444 9.76316 9.66444 9.93826C9.66444 10.0904 9.7653 10.1878 9.9369 10.1878C10.036 10.1878 10.1386 10.147 10.2076 10.0656L10.3067 10.147C10.2147 10.2603 10.0696 10.3081 9.93337 10.3081C9.68214 10.3081 9.51054 10.1488 9.51054 9.93823C9.51054 9.749 9.645 9.64989 9.78829 9.63925C9.65915 9.61448 9.54946 9.503 9.54946 9.3562C9.54952 9.18993 9.6946 9.05014 9.92281 9.05014ZM8.86198 9.05014C9.02651 9.05014 9.1362 9.10848 9.23352 9.22525L9.13091 9.30312C9.05306 9.21285 8.98758 9.17393 8.86727 9.17393C8.73106 9.17393 8.64967 9.25885 8.64967 9.39513C8.64967 9.595 8.74875 9.72771 9.20875 10.1683V10.2885H8.48512L8.46743 10.163H9.04066C8.63906 9.79669 8.49574 9.61448 8.49574 9.39159C8.49574 9.19694 8.63198 9.05014 8.86198 9.05014ZM7.36235 10.1683H7.61712V9.07137H7.74629L8.10721 9.29426L8.04352 9.39866L7.76398 9.23057V10.1683H8.06475V10.2886H7.36235V10.1683ZM5.22121 9.99137V9.8746H5.37866V9.52777H5.50783L5.5202 9.87457H5.87229L5.54675 9.10319L5.66881 9.05005L6.02798 9.88516V9.99134H5.52198V10.2885H5.37866V9.99134H5.22121V9.99137ZM4.6186 9.05014C4.74244 9.05014 4.86097 9.09257 4.96358 9.19168L4.88398 9.28189C4.8026 9.2058 4.73004 9.16866 4.62567 9.16866C4.49651 9.16866 4.39389 9.24119 4.39389 9.37565C4.39389 9.52251 4.50891 9.58977 4.62567 9.58977H4.6982L4.71589 9.70654H4.61327C4.46998 9.70654 4.36029 9.76316 4.36029 9.93826C4.36029 10.0904 4.46112 10.1878 4.63275 10.1878C4.73183 10.1878 4.83444 10.147 4.90343 10.0656L5.00251 10.147C4.91051 10.2603 4.76543 10.3081 4.62921 10.3081C4.37798 10.3081 4.20635 10.1488 4.20635 9.93823C4.20635 9.749 4.34081 9.64989 4.48414 9.63925C4.35497 9.61448 4.24527 9.503 4.24527 9.3562C4.24527 9.18993 4.39035 9.05014 4.6186 9.05014ZM3.55774 9.05014C3.72229 9.05014 3.83198 9.10848 3.92927 9.22525L3.82666 9.30312C3.74881 9.21285 3.68337 9.17393 3.56306 9.17393C3.42681 9.17393 3.34543 9.25885 3.34543 9.39513C3.34543 9.595 3.44451 9.72771 3.90451 10.1683V10.2885H3.18091L3.16321 10.163H3.73644C3.33481 9.79669 3.19152 9.61448 3.19152 9.39159C3.19152 9.19694 3.32774 9.05014 3.55774 9.05014ZM2.05811 10.1683H2.31287V9.07137H2.44204L2.80297 9.29426L2.73927 9.39866L2.45974 9.23057V10.1683H2.76051V10.2886H2.05811V10.1683Z" fill="white" fill-opacity="0.196"/>
<path d="M21.8273 13.2237H21.629V12.5392L21.8448 12.5825V12.4719L21.6302 12.4287H21.5088V13.2237H21.3105V13.3259H21.8273L21.8273 13.2237ZM21.0437 13.2237H20.8453V12.5392L21.0611 12.5825V12.4719L20.8465 12.4287H20.7252V13.2237H20.5269V13.3259H21.0437L21.0437 13.2237ZM19.7846 13.2237H19.3609V13.3259H19.9307V13.2237C19.8846 13.1761 19.8219 13.1121 19.7425 13.032C19.6629 12.9515 19.6128 12.8996 19.5923 12.8763C19.5534 12.8327 19.5264 12.7959 19.5112 12.7658C19.4956 12.7353 19.4877 12.7055 19.4877 12.6763C19.4877 12.6286 19.5045 12.5897 19.5382 12.5596C19.5715 12.5296 19.6149 12.5146 19.6687 12.5146C19.7067 12.5146 19.747 12.5212 19.7894 12.5344C19.8315 12.5477 19.8765 12.5677 19.9246 12.5945V12.4719C19.8758 12.4523 19.8301 12.4375 19.7876 12.4275C19.7452 12.4175 19.7063 12.4125 19.671 12.4125C19.5781 12.4125 19.504 12.4357 19.4487 12.4821C19.3934 12.5287 19.3657 12.5907 19.3657 12.6685C19.3657 12.7053 19.3728 12.7404 19.3868 12.7737C19.4004 12.8065 19.4255 12.8454 19.4619 12.8903C19.4719 12.9019 19.5038 12.9355 19.5575 12.9912C19.6111 13.0465 19.6869 13.124 19.7846 13.2238V13.2237ZM18.7377 12.8421C18.6796 12.8545 18.6344 12.8804 18.6019 12.9196C18.5691 12.9589 18.5526 13.0074 18.5526 13.0651C18.5526 13.1536 18.5831 13.2221 18.644 13.2706C18.7049 13.3191 18.7914 13.3433 18.9036 13.3433C18.9413 13.3433 18.9801 13.3395 19.0202 13.3319C19.0598 13.3247 19.1009 13.3136 19.1434 13.2989V13.1816C19.1097 13.2013 19.0729 13.2161 19.0328 13.2261C18.9927 13.2361 18.9509 13.2411 18.9072 13.2411C18.831 13.2411 18.7732 13.2261 18.7335 13.196C18.6934 13.166 18.6734 13.1223 18.6734 13.065C18.6734 13.0121 18.692 12.9708 18.7293 12.9412C18.7661 12.9112 18.8176 12.8962 18.8838 12.8962H18.9883V12.7964H18.8789C18.8192 12.7964 18.7735 12.7846 18.7419 12.761C18.7103 12.7369 18.6944 12.7024 18.6944 12.6576C18.6944 12.6115 18.7108 12.5762 18.7437 12.5518C18.7762 12.5269 18.8228 12.5146 18.8837 12.5146C18.917 12.5146 18.9526 12.5182 18.9907 12.5254C19.0288 12.5326 19.0707 12.5438 19.1163 12.559V12.4509C19.0703 12.438 19.0272 12.4284 18.9871 12.422C18.9467 12.4156 18.9086 12.4124 18.8729 12.4124C18.7808 12.4124 18.7079 12.4335 18.6542 12.4755C18.6005 12.5172 18.5737 12.5736 18.5737 12.645C18.5737 12.6946 18.5879 12.7367 18.6164 12.7712C18.6448 12.8052 18.6853 12.8289 18.7377 12.8421ZM17.9289 12.4287H17.4523V12.5308H17.8177V12.7508C17.8001 12.7448 17.7824 12.7403 17.7648 12.7375C17.7472 12.7343 17.7295 12.7327 17.7119 12.7327C17.6117 12.7327 17.5324 12.7602 17.4739 12.8151C17.4154 12.8699 17.3861 12.9443 17.3861 13.038C17.3861 13.1346 17.4162 13.2096 17.4763 13.2634C17.5364 13.3167 17.6212 13.3433 17.7305 13.3433C17.7682 13.3433 17.8067 13.3401 17.8459 13.3337C17.8848 13.3273 17.925 13.3177 17.9667 13.3048V13.1828C17.9307 13.2025 17.8934 13.2171 17.8549 13.2267C17.8165 13.2364 17.7758 13.2412 17.7329 13.2412C17.6636 13.2412 17.6087 13.2229 17.5682 13.1865C17.5278 13.15 17.5076 13.1005 17.5076 13.038C17.5076 12.9756 17.5278 12.926 17.5682 12.8896C17.6087 12.8531 17.6636 12.8349 17.7329 12.8349C17.7654 12.8349 17.7978 12.8385 17.8303 12.8458C17.8623 12.853 17.8952 12.8642 17.9289 12.8794V12.4287ZM16.8868 12.8998C16.9445 12.8998 16.99 12.9152 17.0232 12.9461C17.0561 12.9769 17.0725 13.0194 17.0725 13.0735C17.0725 13.1276 17.0561 13.17 17.0232 13.2008C16.99 13.2317 16.9445 13.2472 16.8868 13.2472C16.8291 13.2472 16.7836 13.2317 16.7503 13.2009C16.7171 13.1696 16.7005 13.1272 16.7005 13.0735C16.7005 13.0194 16.7171 12.9769 16.7503 12.9461C16.7832 12.9152 16.8287 12.8998 16.8868 12.8998ZM17.0082 12.8481C17.0602 12.8353 17.1009 12.8111 17.1302 12.7754C17.159 12.7397 17.1734 12.6963 17.1734 12.645C17.1734 12.5733 17.148 12.5166 17.0971 12.475C17.0458 12.4333 16.9757 12.4125 16.8868 12.4125C16.7974 12.4125 16.7273 12.4333 16.6765 12.4749C16.6256 12.5166 16.6001 12.5733 16.6001 12.645C16.6001 12.6963 16.6148 12.7397 16.644 12.7754C16.6729 12.8111 16.7131 12.8353 16.7648 12.8481C16.7063 12.8617 16.6609 12.8884 16.6284 12.928C16.5955 12.9677 16.5791 13.0162 16.5791 13.0735C16.5791 13.1604 16.6057 13.2271 16.659 13.2736C16.7119 13.3201 16.7879 13.3434 16.8868 13.3434C16.9857 13.3434 17.0619 13.3201 17.1152 13.2736C17.1681 13.2271 17.1945 13.1604 17.1945 13.0735C17.1945 13.0162 17.1781 12.9677 17.1452 12.928C17.1124 12.8884 17.0667 12.8617 17.0082 12.8481ZM17.0527 12.6564C17.0527 12.7029 17.0382 12.7391 17.0094 12.7652C16.9801 12.7912 16.9393 12.8043 16.8868 12.8043C16.8347 12.8043 16.7941 12.7912 16.7648 12.7652C16.7352 12.7391 16.7204 12.7029 16.7204 12.6564C16.7204 12.6099 16.7352 12.5737 16.7648 12.5476C16.7941 12.5216 16.8347 12.5085 16.8868 12.5085C16.9393 12.5085 16.9802 12.5216 17.0094 12.5476C17.0382 12.5737 17.0527 12.6099 17.0527 12.6564Z" fill="white" fill-opacity="0.196"/>
<path d="M14.0355 13.1939H13.8372V12.5094L14.0529 12.5526V12.442L13.8384 12.3988H13.717V13.1939H13.5187V13.296H14.0355V13.1939H14.0355ZM12.9051 12.8122C12.847 12.8247 12.8017 12.8505 12.7693 12.8898C12.7364 12.929 12.72 12.9775 12.72 13.0352C12.72 13.1237 12.7504 13.1923 12.8113 13.2408C12.8722 13.2892 12.9588 13.3135 13.071 13.3135C13.1086 13.3135 13.1475 13.3097 13.1876 13.302C13.2272 13.2948 13.2683 13.2838 13.3108 13.269V13.1518C13.2771 13.1715 13.2402 13.1863 13.2001 13.1963C13.1601 13.2063 13.1182 13.2113 13.0745 13.2113C12.9985 13.2113 12.9406 13.1963 12.9009 13.1662C12.8608 13.1361 12.8408 13.0925 12.8408 13.0352C12.8408 12.9823 12.8594 12.9411 12.8967 12.9114C12.9335 12.8813 12.985 12.8663 13.0511 12.8663H13.1557V12.7666H13.0463C12.9866 12.7666 12.9409 12.7547 12.9093 12.7311C12.8776 12.7071 12.8618 12.6727 12.8618 12.6278C12.8618 12.5817 12.8782 12.5464 12.9111 12.522C12.9436 12.4972 12.9902 12.4848 13.0511 12.4848C13.0844 12.4848 13.12 12.4883 13.1581 12.4956C13.1961 12.5028 13.2381 12.514 13.2837 12.5292V12.421C13.2376 12.4082 13.1946 12.3986 13.1545 12.3922C13.1141 12.3857 13.076 12.3826 13.0404 12.3826C12.9482 12.3826 12.8753 12.4036 12.8216 12.4457C12.7679 12.4873 12.7411 12.5439 12.7411 12.6152C12.7411 12.6648 12.7553 12.7069 12.7837 12.7414C12.8121 12.7754 12.8526 12.799 12.9051 12.8122ZM12.3846 13.1939H11.9609V13.296H12.5307V13.1939C12.4846 13.1462 12.4219 13.0823 12.3426 13.0022C12.2629 12.9216 12.2128 12.8698 12.1923 12.8465C12.1535 12.8029 12.1264 12.766 12.1112 12.7359C12.0956 12.7055 12.0878 12.6756 12.0878 12.6464C12.0878 12.5987 12.1046 12.5599 12.1382 12.5298C12.1715 12.4997 12.215 12.4847 12.2687 12.4847C12.3067 12.4847 12.347 12.4913 12.3895 12.5046C12.4315 12.5178 12.4766 12.5378 12.5247 12.5647V12.4421C12.4758 12.4225 12.4301 12.4076 12.3877 12.3976C12.3452 12.3876 12.3063 12.3826 12.2711 12.3826C12.1781 12.3826 12.104 12.4059 12.0487 12.4523C11.9934 12.4988 11.9658 12.5609 11.9658 12.6386C11.9658 12.6755 11.9728 12.7106 11.9869 12.7438C12.0005 12.7767 12.0255 12.8156 12.062 12.8604C12.072 12.872 12.1038 12.9057 12.1575 12.9613C12.2112 13.0166 12.2869 13.0941 12.3846 13.194V13.1939ZM11.6845 13.1939H11.4862V12.5094L11.702 12.5526V12.442L11.4874 12.3988H11.3661V13.1939H11.1677V13.296H11.6846V13.1939H11.6845ZM10.1623 12.8122C10.1042 12.8247 10.0589 12.8505 10.0265 12.8898C9.99362 12.929 9.97716 12.9775 9.97716 13.0352C9.97716 13.1237 10.0076 13.1923 10.0685 13.2408C10.1294 13.2892 10.216 13.3135 10.3282 13.3135C10.3658 13.3135 10.4047 13.3097 10.4448 13.302C10.4844 13.2948 10.5255 13.2838 10.568 13.269V13.1518C10.5343 13.1715 10.4974 13.1863 10.4574 13.1963C10.4173 13.2063 10.3754 13.2113 10.3318 13.2113C10.2557 13.2113 10.1978 13.1963 10.1581 13.1662C10.118 13.1361 10.098 13.0925 10.098 13.0352C10.098 12.9823 10.1166 12.9411 10.1538 12.9114C10.1907 12.8813 10.2422 12.8663 10.3083 12.8663H10.4129V12.7666H10.3035C10.2438 12.7666 10.1981 12.7547 10.1665 12.7311C10.1349 12.7071 10.119 12.6727 10.119 12.6278C10.119 12.5817 10.1354 12.5464 10.1683 12.522C10.2008 12.4972 10.2474 12.4848 10.3083 12.4848C10.3416 12.4848 10.3772 12.4883 10.4153 12.4956C10.4534 12.5028 10.4953 12.514 10.5409 12.5292V12.421C10.4949 12.4082 10.4518 12.3986 10.4117 12.3922C10.3713 12.3857 10.3332 12.3826 10.2975 12.3826C10.2054 12.3826 10.1325 12.4036 10.0788 12.4457C10.0251 12.4873 9.99827 12.5439 9.99827 12.6152C9.99827 12.6648 10.0125 12.7069 10.0409 12.7414C10.0693 12.7754 10.1098 12.799 10.1623 12.8122ZM9.41292 12.5045L9.71938 12.9835H9.41292V12.5045ZM9.44476 12.3988H9.29212V12.9835H9.16412V13.0845H9.29212V13.296H9.41288V13.0845H9.81796V12.9673L9.44476 12.3988ZM8.96156 12.3988H8.48501V12.5009H8.85039V12.7209C8.83276 12.7149 8.81513 12.7105 8.7975 12.7076C8.77987 12.7044 8.76224 12.7028 8.74464 12.7028C8.64448 12.7028 8.56516 12.7303 8.50664 12.7852C8.44815 12.8401 8.41892 12.9144 8.41892 13.0081C8.41892 13.1047 8.44898 13.1798 8.50907 13.2335C8.56916 13.2868 8.6539 13.3134 8.76325 13.3134C8.80092 13.3134 8.83938 13.3102 8.87864 13.3038C8.9175 13.2975 8.95778 13.2878 8.99944 13.275V13.153C8.96338 13.1726 8.92612 13.1872 8.88765 13.1968C8.84919 13.2065 8.80852 13.2113 8.76565 13.2113C8.69633 13.2113 8.64144 13.1931 8.60101 13.1566C8.56055 13.1202 8.5403 13.0707 8.5403 13.0082C8.5403 12.9457 8.56055 12.8962 8.60101 12.8597C8.64144 12.8232 8.69633 12.8051 8.76565 12.8051C8.79812 12.8051 8.83055 12.8087 8.86301 12.8159C8.89507 12.8231 8.9279 12.8344 8.96156 12.8496V12.3988ZM8.17793 12.3988H7.70135V12.5009H8.06673V12.7209C8.0491 12.7149 8.03147 12.7105 8.01387 12.7076C7.99624 12.7044 7.97861 12.7028 7.96095 12.7028C7.86079 12.7028 7.78147 12.7303 7.72301 12.7852C7.66452 12.8401 7.63525 12.9144 7.63525 13.0081C7.63525 13.1047 7.66532 13.1798 7.72541 13.2335C7.7855 13.2868 7.87024 13.3134 7.97959 13.3134C8.01725 13.3134 8.05572 13.3102 8.09498 13.3038C8.13384 13.2975 8.17412 13.2878 8.21578 13.275V13.153C8.17972 13.1726 8.14245 13.1872 8.10399 13.1968C8.06553 13.2065 8.02488 13.2113 7.98202 13.2113C7.9127 13.2113 7.85781 13.1931 7.81735 13.1566C7.77689 13.1202 7.75664 13.0707 7.75664 13.0082C7.75664 12.9457 7.77689 12.8962 7.81735 12.8597C7.85781 12.8232 7.9127 12.8051 7.98202 12.8051C8.01448 12.8051 8.04692 12.8087 8.07938 12.8159C8.11144 12.8231 8.14427 12.8344 8.17793 12.8496V12.3988Z" fill="white" fill-opacity="0.196"/>
<path d="M24 2.04141H0V5.17987H24V2.04141Z" fill="#333333"/>
<path d="M0.953613 5.8877H18.2459V8.34923H0.953613V5.8877Z" fill="white"/>
<path d="M15.8108 7.53691H15.5893V6.58307H15.4769L15.1631 6.77691L15.2185 6.86768L15.4615 6.72153V7.53691H15.2V7.64153H15.8108V7.53691ZM16.3517 6.56461C16.2087 6.56461 16.1132 6.61537 16.0286 6.71691L16.1179 6.78461C16.1855 6.70614 16.2425 6.6723 16.3471 6.6723C16.4655 6.6723 16.5363 6.74614 16.5363 6.86461C16.5363 7.03845 16.4501 7.15384 16.0501 7.53691V7.64153H16.6794L16.6947 7.5323H16.1963C16.5455 7.21384 16.6701 7.05537 16.6701 6.86153C16.6702 6.6923 16.5517 6.56461 16.3517 6.56461ZM17.2742 6.56461C17.1665 6.56461 17.0634 6.60153 16.9742 6.68768L17.0434 6.76614C17.1142 6.69999 17.1772 6.66768 17.268 6.66768C17.3803 6.66768 17.4695 6.73076 17.4695 6.84768C17.4695 6.97537 17.3695 7.03384 17.268 7.03384H17.2049L17.1895 7.13537H17.2787C17.4034 7.13537 17.4987 7.18461 17.4987 7.33691C17.4987 7.46922 17.4111 7.55384 17.2618 7.55384C17.1757 7.55384 17.0864 7.51845 17.0265 7.44768L16.9403 7.51845C17.0203 7.61691 17.1464 7.65845 17.2649 7.65845C17.4834 7.65845 17.6326 7.51999 17.6326 7.33691C17.6326 7.1723 17.5157 7.08614 17.3911 7.07691C17.5034 7.05537 17.5987 6.95845 17.5987 6.83076C17.5988 6.68614 17.4726 6.56461 17.2742 6.56461Z" fill="black"/>
<path d="M1.72284 10.9209H4.27669C4.70152 10.9209 5.04592 11.2653 5.04592 11.6902V13.0748C5.04592 13.4996 4.70152 13.844 4.27669 13.844H1.72284C1.29801 13.844 0.953613 13.4996 0.953613 13.0748V11.6902C0.953613 11.2653 1.29801 10.9209 1.72284 10.9209Z" fill="#A5A5A5"/>
</g>
<defs>
<clipPath id="clip0_3242_62032">
<rect width="24" height="15.3846" fill="white"/>
</clipPath>
</defs>
</svg>
