<svg width="24" height="16" viewBox="0 0 24 16" fill="none" xmlns="http://www.w3.org/2000/svg">
<g clip-path="url(#clip0_3242_62041)">
<path d="M1.23077 0H22.7692C23.4492 0 24 0.550769 24 1.23077V14.1538C24 14.8338 23.4492 15.3846 22.7692 15.3846H1.23077C0.550769 15.3846 0 14.8338 0 14.1538V1.23077C0 0.550769 0.550769 0 1.23077 0Z" fill="#000C9D"/>
<path d="M5.45244 3.28925H2.05859V6.35694H5.45244V3.28925Z" fill="#9D9400"/>
<path d="M2.91406 8.74153V8.6246H2.75714V8.27691H2.62791L2.6156 8.62768H2.26483L2.59099 7.85537L2.46791 7.80306L2.10791 8.63691V8.74153H2.61253V9.03999H2.75714V8.74153H2.91406ZM3.51714 7.80306C3.39406 7.80306 3.27406 7.84614 3.17253 7.9446L3.25253 8.03383C3.33253 7.95691 3.40637 7.91999 3.51099 7.91999C3.64022 7.91999 3.74176 7.99383 3.74176 8.12614C3.74176 8.27383 3.62791 8.34153 3.51099 8.34153H3.43714L3.41868 8.45845H3.52022C3.66483 8.45845 3.77253 8.51383 3.77253 8.68922C3.77253 8.83999 3.67099 8.93845 3.49868 8.93845C3.40022 8.93845 3.2956 8.89845 3.22791 8.81537L3.12945 8.89537C3.22176 9.00922 3.36637 9.05537 3.50176 9.05537C3.75406 9.05537 3.92329 8.89537 3.92329 8.68614C3.92329 8.49537 3.78791 8.39691 3.64637 8.38768C3.7756 8.36306 3.88637 8.2523 3.88637 8.1046C3.88945 7.94153 3.74483 7.80306 3.51714 7.80306ZM4.57868 7.80306C4.4156 7.80306 4.30483 7.86153 4.20637 7.97845L4.30791 8.05537C4.38483 7.96614 4.45253 7.92614 4.57253 7.92614C4.70791 7.92614 4.79099 8.0123 4.79099 8.14768C4.79099 8.34768 4.69253 8.47999 4.23099 8.91999V9.03999H4.95406L4.97253 8.91383H4.40022C4.80329 8.54768 4.94483 8.36614 4.94483 8.14153C4.94483 7.94768 4.80945 7.80306 4.57868 7.80306ZM6.07714 8.91999H5.82176V7.8246H5.69253L5.33253 8.04614L5.39714 8.15076L5.67714 7.98153V8.91999H5.3756V9.03999H6.07714V8.91999ZM8.21868 8.74153V8.6246H8.06176V8.27691H7.93253L7.92022 8.6246H7.56945L7.8956 7.8523L7.77253 7.79999L7.41253 8.63383V8.73845H7.91714V9.03691H8.06176V8.73845L8.21868 8.74153ZM8.82176 7.80306C8.69868 7.80306 8.57868 7.84614 8.47714 7.9446L8.55714 8.03383C8.63714 7.95691 8.71099 7.91999 8.8156 7.91999C8.94483 7.91999 9.04637 7.99383 9.04637 8.12614C9.04637 8.27383 8.93253 8.34153 8.8156 8.34153H8.74176L8.72329 8.45845H8.82483C8.96945 8.45845 9.07714 8.51383 9.07714 8.68922C9.07714 8.83999 8.9756 8.93845 8.80329 8.93845C8.70483 8.93845 8.60022 8.89845 8.53253 8.81537L8.43406 8.89537C8.52637 9.00922 8.67099 9.05537 8.80637 9.05537C9.05868 9.05537 9.22791 8.89537 9.22791 8.68614C9.22791 8.49537 9.09253 8.39691 8.95099 8.38768C9.08022 8.36306 9.19099 8.2523 9.19099 8.1046C9.19406 7.94153 9.04945 7.80306 8.82176 7.80306ZM9.8833 7.80306C9.72022 7.80306 9.60945 7.86153 9.51099 7.97845L9.61253 8.05537C9.68945 7.96614 9.75714 7.92614 9.87714 7.92614C10.0125 7.92614 10.0956 8.0123 10.0956 8.14768C10.0956 8.34768 9.99714 8.47999 9.5356 8.91999V9.03999H10.2587L10.2771 8.91383H9.70483C10.1079 8.54768 10.2494 8.36614 10.2494 8.14153C10.2494 7.94768 10.111 7.80306 9.8833 7.80306ZM11.3818 8.91999H11.1264V7.8246H10.9971L10.6371 8.04614L10.7018 8.15076L10.9818 7.98153V8.91999H10.6802V9.03999H11.3818V8.91999ZM13.5233 8.74153V8.6246H13.3664V8.27691H13.2371L13.2248 8.6246H12.8741L13.2002 7.8523L13.0771 7.79999L12.7171 8.63383V8.73845H13.2218V9.03691H13.3664V8.73845L13.5233 8.74153ZM14.1264 7.80306C14.0033 7.80306 13.8833 7.84614 13.7818 7.9446L13.8618 8.03383C13.9418 7.95691 14.0156 7.91999 14.1202 7.91999C14.2494 7.91999 14.351 7.99383 14.351 8.12614C14.351 8.27383 14.2371 8.34153 14.1202 8.34153H14.0464L14.0279 8.45845H14.1294C14.2741 8.45845 14.3818 8.51383 14.3818 8.68922C14.3818 8.83999 14.2802 8.93845 14.1079 8.93845C14.0094 8.93845 13.9048 8.89845 13.8371 8.81537L13.7387 8.89537C13.831 9.00922 13.9756 9.05537 14.111 9.05537C14.3633 9.05537 14.5325 8.89537 14.5325 8.68614C14.5325 8.49537 14.3971 8.39691 14.2556 8.38768C14.3848 8.36306 14.4956 8.2523 14.4956 8.1046C14.4987 7.94153 14.3541 7.80306 14.1264 7.80306ZM15.1879 7.80306C15.0248 7.80306 14.9141 7.86153 14.8156 7.97845L14.9171 8.05537C14.9941 7.96614 15.0618 7.92614 15.1818 7.92614C15.3171 7.92614 15.4002 8.0123 15.4002 8.14768C15.4002 8.34768 15.3018 8.47999 14.8402 8.91999V9.03999H15.5633L15.5818 8.91383H15.0094C15.4125 8.54768 15.5541 8.36614 15.5541 8.14153C15.5541 7.94768 15.4156 7.80306 15.1879 7.80306ZM16.6864 8.91999H16.431V7.8246H16.3018L15.9418 8.04614L16.0064 8.15076L16.2864 7.98153V8.91999H15.9848V9.03999H16.6864V8.91999ZM18.8279 8.74153V8.6246H18.671V8.27691H18.5418L18.5294 8.6246H18.1787L18.5048 7.8523L18.3818 7.79999L18.0218 8.63383V8.73845H18.5264V9.03691H18.671V8.73845L18.8279 8.74153ZM19.431 7.80306C19.3079 7.80306 19.1879 7.84614 19.0864 7.9446L19.1664 8.03383C19.2464 7.95691 19.3202 7.91999 19.4248 7.91999C19.5541 7.91999 19.6556 7.99383 19.6556 8.12614C19.6556 8.27383 19.5418 8.34153 19.4248 8.34153H19.351L19.3325 8.45845H19.4341C19.5787 8.45845 19.6864 8.51383 19.6864 8.68922C19.6864 8.83999 19.5848 8.93845 19.4125 8.93845C19.3141 8.93845 19.2094 8.89845 19.1418 8.81537L19.0433 8.89537C19.1356 9.00922 19.2802 9.05537 19.4156 9.05537C19.6679 9.05537 19.8371 8.89537 19.8371 8.68614C19.8371 8.49537 19.7018 8.39691 19.5602 8.38768C19.6894 8.36306 19.8002 8.2523 19.8002 8.1046C19.8033 7.94153 19.6587 7.80306 19.431 7.80306ZM20.4894 7.80306C20.3264 7.80306 20.2156 7.86153 20.1171 7.97845L20.2187 8.05537C20.2956 7.96614 20.3633 7.92614 20.4833 7.92614C20.6187 7.92614 20.7018 8.0123 20.7018 8.14768C20.7018 8.34768 20.6033 8.47999 20.1418 8.91999V9.03999H20.8648L20.8833 8.91383H20.311C20.7141 8.54768 20.8556 8.36614 20.8556 8.14153C20.8556 7.94768 20.7202 7.80306 20.4894 7.80306ZM21.991 8.91999H21.7356V7.8246H21.6064L21.2464 8.04614L21.311 8.15076L21.591 7.98153V8.91999H21.2894V9.03999H21.991V8.91999Z" fill="white"/>
<path d="M2.22159 11.9754H2.41851V11.2923L2.20312 11.3354V11.2246L2.41851 11.1815H2.53851V11.9754H2.73851V12.0769H2.22159V11.9754ZM3.0062 11.9754H3.20313V11.2923L2.98774 11.3354V11.2246L3.20313 11.1815H3.32313V11.9754H3.52005V12.0769H3.0062V11.9754ZM4.26466 11.9754H4.68928V12.0769H4.12005V11.9754C4.1662 11.9292 4.22774 11.8646 4.30774 11.7846C4.38774 11.7046 4.43697 11.6523 4.45851 11.6277C4.49851 11.5846 4.52313 11.5477 4.53851 11.5169C4.55389 11.4862 4.56313 11.4554 4.56313 11.4277C4.56313 11.3815 4.54774 11.3415 4.51389 11.3108C4.48005 11.28 4.43697 11.2646 4.38466 11.2646C4.34774 11.2646 4.30774 11.2708 4.26466 11.2831C4.22159 11.2954 4.17851 11.3169 4.12928 11.3446V11.2215C4.17851 11.2031 4.22466 11.1877 4.26774 11.1785C4.31082 11.1692 4.34774 11.1631 4.38466 11.1631C4.47697 11.1631 4.55082 11.1877 4.6062 11.2339C4.66159 11.28 4.68928 11.3415 4.68928 11.4215C4.68928 11.4585 4.68312 11.4923 4.66774 11.5262C4.65543 11.56 4.62774 11.5969 4.59389 11.6431C4.58466 11.6554 4.55082 11.6892 4.49851 11.7446C4.43697 11.7969 4.36313 11.8769 4.26466 11.9754ZM5.31082 11.5939C5.36928 11.6062 5.41543 11.6308 5.4462 11.6708C5.48005 11.7108 5.49543 11.76 5.49543 11.8154C5.49543 11.9046 5.46466 11.9723 5.40313 12.0215C5.34159 12.0708 5.25543 12.0954 5.14466 12.0954C5.10774 12.0954 5.06774 12.0923 5.02774 12.0831C4.98774 12.0769 4.94774 12.0646 4.90466 12.0492V11.9323C4.93851 11.9508 4.97543 11.9662 5.01543 11.9754C5.05543 11.9846 5.09851 11.9908 5.14159 11.9908C5.21851 11.9908 5.27697 11.9754 5.31389 11.9446C5.35389 11.9139 5.37543 11.8708 5.37543 11.8123C5.37543 11.76 5.35697 11.7169 5.32005 11.6892C5.28312 11.6585 5.23082 11.6431 5.1662 11.6431H5.06159V11.5446H5.17236C5.23082 11.5446 5.27697 11.5323 5.31082 11.5077C5.34159 11.4831 5.35697 11.4492 5.35697 11.4031C5.35697 11.3569 5.34159 11.3231 5.30774 11.2985C5.27389 11.2739 5.22774 11.2615 5.1662 11.2615C5.13236 11.2615 5.09851 11.2646 5.05851 11.2739C5.02159 11.28 4.97851 11.2923 4.93236 11.3077V11.2C4.97851 11.1877 5.02159 11.1785 5.06159 11.1723C5.10159 11.1662 5.14159 11.1631 5.17543 11.1631C5.26774 11.1631 5.34159 11.1846 5.39389 11.2246C5.4462 11.2677 5.47389 11.3231 5.47389 11.3939C5.47389 11.4431 5.45851 11.4862 5.43082 11.52C5.40313 11.5569 5.36313 11.5815 5.31082 11.5939ZM6.12005 11.1815H6.59697V11.2831H6.23082V11.5015C6.24928 11.4954 6.26466 11.4923 6.28313 11.4892C6.30159 11.4862 6.31697 11.4831 6.33543 11.4831C6.43697 11.4831 6.51389 11.5108 6.57236 11.5662C6.63082 11.6215 6.66159 11.6954 6.66159 11.7877C6.66159 11.88 6.63082 11.96 6.57236 12.0123C6.51082 12.0646 6.42774 12.0923 6.31697 12.0923C6.28005 12.0923 6.24005 12.0892 6.20005 12.0831C6.16005 12.0769 6.12005 12.0677 6.08005 12.0554V11.9323C6.11697 11.9508 6.15389 11.9662 6.19082 11.9754C6.22774 11.9846 6.27082 11.9908 6.31389 11.9908C6.38466 11.9908 6.43697 11.9723 6.48005 11.9354C6.52313 11.8985 6.54159 11.8492 6.54159 11.7877C6.54159 11.7262 6.52005 11.6769 6.48005 11.64C6.44005 11.6031 6.38466 11.5846 6.31389 11.5846C6.28005 11.5846 6.24928 11.5877 6.21543 11.5969C6.18466 11.6031 6.15082 11.6154 6.11697 11.6308L6.12005 11.1815ZM7.16313 11.6523C7.10466 11.6523 7.05851 11.6677 7.02774 11.6985C6.99389 11.7292 6.97851 11.7723 6.97851 11.8246C6.97851 11.8769 6.99389 11.92 7.02774 11.9508C7.06159 11.9815 7.10774 11.9969 7.16313 11.9969C7.22159 11.9969 7.26774 11.9815 7.29851 11.9508C7.33236 11.92 7.34774 11.8769 7.34774 11.8246C7.34774 11.7692 7.33236 11.7292 7.29851 11.6985C7.26774 11.6677 7.22159 11.6523 7.16313 11.6523ZM7.04005 11.6C6.98774 11.5877 6.94774 11.5631 6.91697 11.5262C6.88928 11.4892 6.87389 11.4462 6.87389 11.3969C6.87389 11.3262 6.89851 11.2677 6.95082 11.2277C7.00312 11.1846 7.07082 11.1662 7.16005 11.1662C7.24928 11.1662 7.32005 11.1877 7.36928 11.2277C7.42159 11.2708 7.4462 11.3262 7.4462 11.3969C7.4462 11.4492 7.43082 11.4923 7.40313 11.5262C7.37543 11.5631 7.33543 11.5846 7.28313 11.6C7.34159 11.6123 7.38774 11.64 7.41851 11.68C7.45236 11.72 7.46774 11.7692 7.46774 11.8246C7.46774 11.9108 7.44005 11.9785 7.38774 12.0246C7.33543 12.0708 7.25851 12.0954 7.16005 12.0954C7.06159 12.0954 6.98466 12.0708 6.93236 12.0246C6.88005 11.9785 6.85236 11.9108 6.85236 11.8246C6.85236 11.7662 6.86774 11.72 6.90159 11.68C6.93851 11.64 6.98159 11.6123 7.04005 11.6ZM6.99697 11.4092C6.99697 11.4554 7.01236 11.4923 7.04005 11.5169C7.06774 11.5415 7.11082 11.5569 7.16313 11.5569C7.21543 11.5569 7.25543 11.5446 7.2862 11.5169C7.31697 11.4923 7.32928 11.4554 7.32928 11.4092C7.32928 11.3631 7.31389 11.3262 7.2862 11.3015C7.25543 11.2769 7.21543 11.2615 7.16313 11.2615C7.11082 11.2615 7.07082 11.2739 7.04005 11.3015C7.01236 11.3262 6.99697 11.3631 6.99697 11.4092Z" fill="white" fill-opacity="0.78"/>
<path d="M10.0155 11.9446H10.2125V11.2615L9.99707 11.3046V11.1938L10.2125 11.1508H10.3325V11.9446H10.5294V12.0461H10.0125L10.0155 11.9446ZM11.1448 11.5631C11.2032 11.5754 11.2494 11.6 11.2801 11.64C11.314 11.68 11.3294 11.7292 11.3294 11.7846C11.3294 11.8738 11.2986 11.9415 11.2371 11.9908C11.1755 12.04 11.0894 12.0646 10.9786 12.0646C10.9417 12.0646 10.9017 12.0615 10.8617 12.0523C10.8217 12.0461 10.7817 12.0338 10.7386 12.0184V11.9015C10.7725 11.92 10.8094 11.9354 10.8494 11.9446C10.8894 11.9538 10.9325 11.96 10.9755 11.96C11.0525 11.96 11.1109 11.9446 11.1478 11.9138C11.1878 11.8831 11.2094 11.84 11.2094 11.7815C11.2094 11.7292 11.1909 11.6861 11.154 11.6584C11.1171 11.6277 11.0648 11.6123 11.0001 11.6123H10.8925V11.5138H11.0032C11.0617 11.5138 11.1078 11.5015 11.1417 11.4769C11.1725 11.4523 11.1878 11.4184 11.1878 11.3723C11.1878 11.3261 11.1725 11.2923 11.1386 11.2677C11.1048 11.2431 11.0586 11.2308 11.0001 11.2308C10.9663 11.2308 10.9325 11.2338 10.8925 11.2431C10.8555 11.2492 10.8125 11.2615 10.7663 11.2769V11.1692C10.8125 11.1569 10.8555 11.1477 10.8955 11.1415C10.9355 11.1354 10.9755 11.1323 11.0094 11.1323C11.1017 11.1323 11.1755 11.1538 11.2278 11.1969C11.2801 11.24 11.3078 11.2954 11.3078 11.3661C11.3078 11.4154 11.2925 11.4584 11.2648 11.4923C11.2371 11.5261 11.1971 11.5508 11.1448 11.5631ZM11.6648 11.9446H12.0894V12.0461H11.5201V11.9446C11.5663 11.8954 11.6278 11.8338 11.7078 11.7538C11.7878 11.6738 11.8371 11.6215 11.8586 11.5969C11.8986 11.5538 11.9232 11.5169 11.9386 11.4861C11.954 11.4554 11.9632 11.4246 11.9632 11.3969C11.9632 11.3508 11.9478 11.3108 11.914 11.28C11.8801 11.2492 11.8371 11.2338 11.7848 11.2338C11.7478 11.2338 11.7078 11.24 11.6648 11.2523C11.6217 11.2646 11.5786 11.2861 11.5294 11.3138V11.1908C11.5786 11.1723 11.6248 11.1569 11.6678 11.1477C11.7109 11.1384 11.7478 11.1323 11.7848 11.1323C11.8771 11.1323 11.9509 11.1569 12.0063 11.2031C12.0617 11.2492 12.0894 11.3108 12.0894 11.3908C12.0894 11.4277 12.0832 11.4615 12.0678 11.4954C12.0555 11.5292 12.0278 11.5661 11.994 11.6123C11.9848 11.6246 11.9509 11.6584 11.8986 11.7138C11.8371 11.7692 11.7632 11.8461 11.6648 11.9446ZM12.3663 11.9446H12.5632V11.2615L12.3478 11.3046V11.1938L12.5632 11.1508H12.6832V11.9446H12.8801V12.0461H12.3632L12.3663 11.9446ZM13.8863 11.5631C13.9448 11.5754 13.9909 11.6 14.0217 11.64C14.0555 11.68 14.0709 11.7292 14.0709 11.7846C14.0709 11.8738 14.0401 11.9415 13.9786 11.9908C13.9171 12.04 13.8309 12.0646 13.7201 12.0646C13.6832 12.0646 13.6432 12.0615 13.6032 12.0523C13.5632 12.0461 13.5232 12.0338 13.4801 12.0184V11.9015C13.514 11.92 13.5509 11.9354 13.5909 11.9446C13.6309 11.9538 13.674 11.96 13.7171 11.96C13.794 11.96 13.8525 11.9446 13.8894 11.9138C13.9294 11.8831 13.9509 11.84 13.9509 11.7815C13.9509 11.7292 13.9325 11.6861 13.8955 11.6584C13.8586 11.6277 13.8063 11.6123 13.7417 11.6123H13.6371V11.5138H13.7478C13.8063 11.5138 13.8525 11.5015 13.8863 11.4769C13.9171 11.4523 13.9325 11.4184 13.9325 11.3723C13.9325 11.3261 13.9171 11.2923 13.8832 11.2677C13.8494 11.2431 13.8032 11.2308 13.7417 11.2308C13.7078 11.2308 13.674 11.2338 13.634 11.2431C13.5971 11.2492 13.554 11.2615 13.5078 11.2769V11.1692C13.554 11.1569 13.5971 11.1477 13.6371 11.1415C13.6771 11.1354 13.7171 11.1323 13.7509 11.1323C13.8432 11.1323 13.9171 11.1538 13.9694 11.1969C14.0217 11.24 14.0494 11.2954 14.0494 11.3661C14.0494 11.4154 14.034 11.4584 14.0063 11.4923C13.9817 11.5261 13.9386 11.5508 13.8863 11.5631ZM14.6371 11.2554L14.3294 11.7354H14.6371V11.2554ZM14.6032 11.1508H14.7571V11.7354H14.8863V11.8369H14.7571V12.0492H14.6371V11.8369H14.2309V11.72L14.6032 11.1508ZM15.0894 11.1508H15.5663V11.2523H15.2001V11.4708C15.2186 11.4646 15.234 11.4615 15.2525 11.4584C15.2709 11.4554 15.2863 11.4523 15.3048 11.4523C15.4063 11.4523 15.4832 11.48 15.5417 11.5354C15.6001 11.5908 15.6309 11.6646 15.6309 11.7569C15.6309 11.8492 15.6001 11.9292 15.5417 11.9815C15.4801 12.0338 15.3971 12.0615 15.2863 12.0615C15.2494 12.0615 15.2094 12.0584 15.1694 12.0523C15.1294 12.0461 15.0894 12.0369 15.0494 12.0246V11.9015C15.0863 11.92 15.1232 11.9354 15.1601 11.9446C15.1971 11.9538 15.2401 11.96 15.2832 11.96C15.354 11.96 15.4063 11.9415 15.4494 11.9046C15.4894 11.8677 15.5109 11.8184 15.5109 11.7569C15.5109 11.6954 15.4894 11.6461 15.4494 11.6092C15.4094 11.5723 15.354 11.5538 15.2832 11.5538C15.2494 11.5538 15.2186 11.5569 15.1848 11.5661C15.154 11.5723 15.1201 11.5846 15.0863 11.6V11.1508H15.0894ZM15.8709 11.1508H16.3478V11.2523H15.9817V11.4708C16.0001 11.4646 16.0155 11.4615 16.034 11.4584C16.0525 11.4554 16.0678 11.4523 16.0863 11.4523C16.1878 11.4523 16.2648 11.48 16.3232 11.5354C16.3817 11.5908 16.4125 11.6646 16.4125 11.7569C16.4125 11.8492 16.3817 11.9292 16.3232 11.9815C16.2617 12.0338 16.1786 12.0615 16.0678 12.0615C16.0309 12.0615 15.9909 12.0584 15.9509 12.0523C15.9109 12.0461 15.8709 12.0369 15.8309 12.0246V11.9015C15.8678 11.92 15.9048 11.9354 15.9417 11.9446C15.9786 11.9538 16.0217 11.96 16.0648 11.96C16.1355 11.96 16.1878 11.9415 16.2309 11.9046C16.2709 11.8677 16.2925 11.8184 16.2925 11.7569C16.2925 11.6954 16.2709 11.6461 16.2309 11.6092C16.1909 11.5723 16.1355 11.5538 16.0648 11.5538C16.0309 11.5538 16.0001 11.5569 15.9663 11.5661C15.9355 11.5723 15.9017 11.5846 15.8678 11.6L15.8709 11.1508Z" fill="white" fill-opacity="0.78"/>
<path d="M23.2709 6.56307V6.48614H23.1663V6.25845H23.0802L23.0709 6.48614H22.8402L23.0556 5.97845L22.9756 5.9446L22.7386 6.4923V6.56307H23.0709V6.75999H23.1663V6.56307H23.2709ZM22.3202 5.94153C22.2402 5.94153 22.1602 5.96922 22.0925 6.03384L22.1448 6.0923C22.1971 6.04307 22.2463 6.01845 22.314 6.01845C22.4002 6.01845 22.4679 6.06768 22.4679 6.15384C22.4679 6.24922 22.3909 6.29537 22.314 6.29537H22.2648L22.2525 6.3723H22.3202C22.4156 6.3723 22.4863 6.40922 22.4863 6.52614C22.4863 6.62768 22.4186 6.68922 22.3079 6.68922C22.2432 6.68922 22.1756 6.66153 22.1294 6.60922L22.0648 6.66153C22.1263 6.73537 22.2217 6.76614 22.3109 6.76614C22.4771 6.76614 22.5879 6.66153 22.5879 6.52307C22.5879 6.39999 22.4986 6.3323 22.4063 6.32614C22.4925 6.31076 22.5632 6.23691 22.5632 6.14153C22.5663 6.03384 22.4709 5.94153 22.3202 5.94153ZM21.6279 5.94153C21.5202 5.94153 21.4463 5.97845 21.3848 6.05537L21.4525 6.10768C21.5048 6.04922 21.5479 6.02153 21.6248 6.02153C21.714 6.02153 21.7694 6.07691 21.7694 6.16614C21.7694 6.29845 21.7048 6.3846 21.4032 6.67384V6.75384H21.8802L21.8925 6.67076H21.514C21.7786 6.43076 21.8709 6.31076 21.8709 6.16307C21.8679 6.03999 21.7786 5.94153 21.6279 5.94153ZM21.2002 6.67691H21.034V5.95691H20.9479L20.7109 6.1046L20.754 6.1723L20.9386 6.06153V6.67691H20.7386V6.75691H21.2002V6.67691Z" fill="white"/>
</g>
<defs>
<clipPath id="clip0_3242_62041">
<rect width="24" height="15.3846" fill="white"/>
</clipPath>
</defs>
</svg>
