<svg width="24" height="16" viewBox="0 0 24 16" fill="none" xmlns="http://www.w3.org/2000/svg"><path d="M9.700 0.162 C 5.784 0.178,2.149 0.202,1.623 0.215 C 0.546 0.243,0.618 0.224,0.230 0.593 L 0.000 0.812 -0.000 7.670 L -0.000 14.527 0.247 14.785 C 0.384 14.926,0.576 15.096,0.674 15.161 L 0.854 15.280 9.797 15.278 C 19.977 15.276,23.118 15.245,23.316 15.142 C 23.385 15.106,23.567 14.959,23.721 14.814 L 24.000 14.550 24.000 7.722 L 24.000 0.894 23.680 0.507 L 23.359 0.120 20.090 0.127 C 18.291 0.130,13.616 0.146,9.700 0.162 M18.240 7.120 L 18.240 8.360 9.600 8.360 L 0.960 8.360 0.960 7.120 L 0.960 5.880 9.600 5.880 L 18.240 5.880 18.240 7.120 M16.267 6.586 C 16.253 6.601,16.276 6.668,16.318 6.736 C 16.389 6.852,16.390 6.878,16.339 7.120 C 16.222 7.666,16.296 7.773,16.457 7.290 C 16.586 6.901,16.587 6.783,16.462 6.658 C 16.361 6.558,16.313 6.540,16.267 6.586 M17.107 6.627 C 17.055 6.678,17.081 6.709,17.240 6.780 C 17.328 6.820,17.400 6.862,17.400 6.873 C 17.400 6.885,17.360 6.937,17.312 6.989 C 17.227 7.079,17.227 7.086,17.292 7.197 C 17.381 7.348,17.379 7.372,17.256 7.517 L 17.152 7.641 17.256 7.601 C 17.567 7.483,17.600 7.449,17.598 7.249 C 17.594 6.950,17.522 6.795,17.340 6.692 C 17.165 6.593,17.146 6.587,17.107 6.627 M15.318 6.763 C 15.285 6.826,15.290 6.925,15.340 7.171 C 15.414 7.535,15.463 7.652,15.533 7.629 C 15.614 7.601,15.594 6.918,15.509 6.788 C 15.424 6.658,15.378 6.652,15.318 6.763 M4.724 11.132 L 4.908 11.300 4.954 12.319 L 5.001 13.337 4.752 13.589 L 4.502 13.840 2.993 13.840 L 1.484 13.840 1.383 13.708 C 1.159 13.413,1.075 12.970,1.066 12.025 C 1.058 11.224,1.115 11.121,1.604 11.060 C 1.824 11.033,3.353 10.977,4.140 10.968 L 4.540 10.964 4.724 11.132 " fill="#000C9D" stroke="none" fill-rule="evenodd"></path></svg>