<svg width="24" height="16" viewBox="0 0 24 16" fill="none" xmlns="http://www.w3.org/2000/svg"><path d="M9.700 0.162 C 5.784 0.178,2.149 0.202,1.623 0.215 C 0.546 0.243,0.618 0.224,0.230 0.593 L 0.000 0.812 -0.000 7.670 L -0.000 14.527 0.247 14.785 C 0.384 14.926,0.576 15.096,0.674 15.161 L 0.854 15.280 9.797 15.278 C 19.977 15.276,23.118 15.245,23.316 15.142 C 23.385 15.106,23.567 14.959,23.721 14.814 L 24.000 14.550 24.000 7.722 L 24.000 0.894 23.680 0.507 L 23.359 0.120 20.090 0.127 C 18.291 0.130,13.616 0.146,9.700 0.162 M5.440 4.840 L 5.440 6.360 3.760 6.360 L 2.080 6.360 2.080 4.840 L 2.080 3.320 3.760 3.320 L 5.440 3.320 5.440 4.840 M21.677 6.065 C 21.764 6.176,21.788 6.320,21.720 6.320 C 21.698 6.320,21.680 6.296,21.680 6.266 C 21.680 6.237,21.644 6.180,21.600 6.140 C 21.517 6.065,21.492 5.960,21.557 5.960 C 21.578 5.960,21.632 6.007,21.677 6.065 M22.378 6.049 C 22.472 6.183,22.460 6.528,22.357 6.646 L 22.275 6.740 22.295 6.640 C 22.306 6.585,22.338 6.464,22.366 6.371 C 22.412 6.215,22.409 6.195,22.328 6.108 C 22.280 6.057,22.240 6.003,22.240 5.987 C 22.240 5.929,22.318 5.964,22.378 6.049 M20.936 6.143 C 20.975 6.246,20.964 6.633,20.920 6.660 C 20.895 6.676,20.890 6.598,20.906 6.443 C 20.924 6.275,20.916 6.183,20.881 6.141 C 20.852 6.106,20.848 6.080,20.871 6.080 C 20.893 6.080,20.922 6.108,20.936 6.143 M23.160 6.568 C 23.160 6.638,23.139 6.680,23.103 6.680 C 23.030 6.680,22.880 6.491,22.880 6.399 C 22.880 6.334,22.889 6.334,23.020 6.393 C 23.131 6.444,23.160 6.479,23.160 6.568 M21.720 6.720 C 21.720 6.742,21.675 6.760,21.620 6.760 C 21.565 6.760,21.520 6.742,21.520 6.720 C 21.520 6.698,21.565 6.680,21.620 6.680 C 21.675 6.680,21.720 6.698,21.720 6.720 M10.004 7.924 C 10.068 7.993,10.120 8.067,10.120 8.089 C 10.120 8.112,10.065 8.292,9.997 8.489 L 9.874 8.848 9.967 8.948 L 10.060 9.047 9.940 9.033 C 9.782 9.016,9.768 8.898,9.877 8.509 C 9.923 8.347,9.960 8.178,9.960 8.134 C 9.960 8.052,9.819 7.961,9.688 7.959 C 9.633 7.958,9.637 7.943,9.714 7.879 C 9.840 7.774,9.868 7.778,10.004 7.924 M3.547 7.918 C 3.618 7.961,3.695 8.033,3.719 8.078 C 3.783 8.198,3.814 8.643,3.767 8.764 C 3.727 8.866,3.510 9.000,3.384 9.000 C 3.288 9.000,3.307 8.932,3.410 8.905 C 3.459 8.892,3.554 8.836,3.620 8.781 L 3.740 8.680 3.591 8.557 L 3.441 8.433 3.541 8.303 C 3.595 8.231,3.640 8.155,3.640 8.134 C 3.640 8.112,3.568 8.054,3.480 8.005 C 3.323 7.916,3.272 7.840,3.370 7.840 C 3.397 7.840,3.477 7.875,3.547 7.918 M14.156 7.898 C 14.304 7.974,14.379 8.164,14.379 8.460 C 14.378 8.707,14.286 8.934,14.166 8.980 C 14.064 9.019,14.067 8.967,14.175 8.839 C 14.301 8.689,14.301 8.694,14.197 8.525 L 14.115 8.390 14.198 8.303 C 14.312 8.181,14.303 8.147,14.120 8.020 C 13.888 7.859,13.914 7.773,14.156 7.898 M15.212 7.915 C 15.445 8.068,15.456 8.124,15.315 8.439 C 15.245 8.594,15.182 8.715,15.173 8.707 C 15.165 8.698,15.189 8.565,15.226 8.411 C 15.304 8.083,15.285 8.000,15.131 7.999 C 15.070 7.999,14.993 7.981,14.960 7.959 C 14.907 7.924,14.907 7.916,14.960 7.881 C 15.045 7.825,15.085 7.830,15.212 7.915 M20.535 7.923 C 20.731 8.078,20.737 8.131,20.597 8.502 C 20.473 8.830,20.471 8.844,20.541 8.921 C 20.620 9.008,20.599 9.064,20.501 9.026 C 20.389 8.983,20.384 8.870,20.476 8.509 C 20.563 8.171,20.564 8.151,20.497 8.077 C 20.459 8.035,20.403 8.000,20.374 8.000 C 20.318 8.000,20.300 7.913,20.347 7.867 C 20.389 7.824,20.422 7.834,20.535 7.923 M8.871 7.942 C 9.014 8.042,9.087 8.230,9.094 8.509 C 9.100 8.755,9.094 8.772,8.962 8.889 C 8.793 9.041,8.740 8.967,8.899 8.801 C 9.013 8.682,9.004 8.599,8.863 8.482 C 8.808 8.436,8.812 8.418,8.899 8.314 C 8.985 8.212,9.000 8.080,8.926 8.080 C 8.912 8.080,8.846 8.035,8.780 7.981 C 8.645 7.871,8.722 7.838,8.871 7.942 M4.654 7.963 C 4.802 8.004,4.807 8.011,4.790 8.153 C 4.780 8.234,4.738 8.422,4.696 8.570 C 4.635 8.791,4.630 8.855,4.671 8.920 C 4.739 9.029,4.734 9.040,4.619 9.040 C 4.562 9.040,4.506 9.011,4.493 8.975 C 4.479 8.940,4.518 8.738,4.578 8.527 C 4.701 8.104,4.707 8.133,4.455 7.972 C 4.356 7.909,4.445 7.905,4.654 7.963 M11.057 8.210 C 11.094 8.370,11.134 8.612,11.148 8.749 C 11.174 9.028,11.137 9.075,10.948 9.003 C 10.845 8.964,10.844 8.960,10.901 8.823 C 10.937 8.737,10.960 8.550,10.960 8.340 L 10.960 7.998 10.836 8.062 C 10.680 8.143,10.629 8.099,10.761 7.998 C 10.940 7.860,10.985 7.893,11.057 8.210 M19.552 8.010 C 19.655 8.095,19.720 8.307,19.720 8.554 C 19.720 8.831,19.648 8.947,19.450 8.985 C 19.287 9.016,19.283 8.961,19.441 8.871 C 19.607 8.777,19.627 8.696,19.520 8.552 C 19.433 8.434,19.432 8.425,19.496 8.291 C 19.565 8.148,19.533 8.040,19.423 8.040 C 19.397 8.040,19.340 8.012,19.298 7.977 C 19.224 7.918,19.227 7.916,19.356 7.937 C 19.431 7.950,19.519 7.983,19.552 8.010 M5.631 7.993 C 5.707 8.042,5.752 8.241,5.783 8.662 L 5.811 9.040 5.700 9.040 C 5.599 9.040,5.592 9.030,5.614 8.919 C 5.627 8.853,5.650 8.659,5.664 8.488 C 5.690 8.181,5.689 8.177,5.585 8.130 C 5.480 8.082,5.456 8.037,5.507 7.987 C 5.541 7.952,5.568 7.954,5.631 7.993 M16.233 7.995 C 16.273 8.020,16.263 8.035,16.193 8.054 C 16.050 8.092,16.026 8.085,16.080 8.020 C 16.137 7.951,16.159 7.948,16.233 7.995 M21.551 7.993 C 21.627 8.042,21.672 8.241,21.703 8.662 L 21.731 9.040 21.620 9.040 C 21.519 9.040,21.512 9.030,21.534 8.919 C 21.547 8.853,21.570 8.659,21.584 8.488 C 21.610 8.181,21.609 8.177,21.505 8.130 C 21.400 8.082,21.376 8.037,21.427 7.987 C 21.461 7.952,21.488 7.954,21.551 7.993 M13.060 8.160 C 13.045 8.207,13.024 8.237,13.013 8.226 C 13.002 8.215,13.005 8.167,13.020 8.120 C 13.035 8.073,13.056 8.043,13.067 8.054 C 13.078 8.065,13.075 8.113,13.060 8.160 M16.375 8.500 C 16.405 8.825,16.365 9.014,16.261 9.034 C 16.200 9.046,16.192 9.029,16.212 8.928 C 16.226 8.861,16.249 8.640,16.265 8.436 C 16.295 8.029,16.333 8.051,16.375 8.500 M2.368 8.310 C 2.356 8.370,2.339 8.397,2.330 8.369 C 2.313 8.318,2.343 8.200,2.373 8.200 C 2.382 8.200,2.379 8.250,2.368 8.310 M7.785 8.507 C 7.817 8.520,7.885 8.492,7.934 8.445 L 8.024 8.361 8.112 8.542 L 8.200 8.723 8.113 8.841 C 8.064 8.907,8.016 8.960,8.006 8.960 C 7.996 8.960,7.898 8.903,7.790 8.833 L 7.592 8.707 7.620 8.483 C 7.655 8.202,7.696 8.135,7.713 8.332 C 7.720 8.421,7.750 8.494,7.785 8.507 M18.245 8.387 C 18.210 8.447,18.202 8.449,18.201 8.397 C 18.200 8.329,18.242 8.269,18.270 8.297 C 18.280 8.306,18.268 8.347,18.245 8.387 M18.672 8.488 C 18.731 8.547,18.735 8.778,18.678 8.883 C 18.641 8.953,18.627 8.955,18.528 8.904 C 18.469 8.873,18.387 8.812,18.348 8.769 C 18.278 8.691,18.280 8.686,18.427 8.565 C 18.598 8.424,18.606 8.422,18.672 8.488 M13.360 8.639 C 13.360 8.881,13.267 8.942,13.089 8.818 C 12.961 8.728,12.979 8.653,13.150 8.565 C 13.327 8.474,13.360 8.486,13.360 8.639 M2.785 8.626 C 2.814 8.742,2.764 8.925,2.697 8.948 C 2.644 8.965,2.320 8.734,2.320 8.678 C 2.320 8.626,2.549 8.524,2.669 8.522 C 2.733 8.520,2.766 8.550,2.785 8.626 M15.199 8.958 C 15.231 8.979,15.245 9.008,15.231 9.023 C 15.194 9.059,15.080 9.013,15.080 8.961 C 15.080 8.910,15.121 8.909,15.199 8.958 M13.797 11.206 C 13.868 11.282,13.990 11.703,13.952 11.741 C 13.944 11.750,13.884 11.714,13.819 11.662 L 13.700 11.568 13.780 11.480 C 13.859 11.392,13.859 11.392,13.769 11.319 C 13.720 11.279,13.658 11.239,13.632 11.231 C 13.582 11.214,13.623 11.120,13.681 11.120 C 13.701 11.120,13.753 11.159,13.797 11.206 M4.506 11.255 L 4.617 11.350 4.542 11.515 C 4.501 11.606,4.460 11.673,4.451 11.664 C 4.442 11.655,4.462 11.593,4.497 11.527 L 4.559 11.406 4.420 11.360 C 4.269 11.310,4.221 11.262,4.260 11.200 C 4.301 11.134,4.389 11.154,4.506 11.255 M5.158 11.199 C 5.198 11.220,5.241 11.265,5.254 11.299 C 5.275 11.355,5.266 11.355,5.159 11.299 C 5.094 11.266,5.040 11.220,5.040 11.199 C 5.040 11.150,5.066 11.150,5.158 11.199 M11.042 11.221 C 11.171 11.288,11.191 11.320,11.104 11.320 C 11.046 11.320,10.837 11.164,10.892 11.161 C 10.910 11.161,10.977 11.187,11.042 11.221 M15.323 11.331 C 15.336 11.410,15.397 11.541,15.458 11.621 L 15.570 11.768 15.464 11.874 L 15.358 11.980 15.382 11.860 C 15.398 11.774,15.376 11.685,15.303 11.548 C 15.246 11.442,15.200 11.310,15.200 11.255 C 15.200 11.102,15.296 11.161,15.323 11.331 M16.137 11.259 C 16.123 11.314,16.131 11.413,16.154 11.479 C 16.201 11.614,16.164 11.636,16.071 11.530 C 15.942 11.382,15.916 11.290,15.983 11.223 C 16.083 11.123,16.166 11.143,16.137 11.259 M2.535 11.546 C 2.549 11.736,2.572 11.934,2.585 11.986 C 2.606 12.070,2.595 12.080,2.480 12.080 C 2.365 12.080,2.353 12.070,2.375 11.990 C 2.388 11.941,2.411 11.760,2.425 11.590 L 2.452 11.280 2.326 11.305 C 2.255 11.319,2.200 11.313,2.200 11.292 C 2.200 11.225,2.249 11.200,2.381 11.200 L 2.508 11.200 2.535 11.546 M7.280 11.240 C 7.280 11.262,7.247 11.280,7.208 11.280 C 7.168 11.280,7.100 11.306,7.058 11.338 C 6.981 11.394,6.981 11.397,7.069 11.486 L 7.158 11.576 7.259 11.481 L 7.360 11.386 7.360 11.595 C 7.360 11.804,7.360 11.804,7.271 11.742 C 7.068 11.600,7.014 11.716,7.187 11.921 C 7.278 12.029,7.283 12.046,7.220 12.034 C 7.143 12.019,6.984 11.747,6.937 11.550 C 6.916 11.460,6.935 11.418,7.040 11.320 C 7.168 11.201,7.280 11.163,7.280 11.240 M10.265 11.693 C 10.226 12.070,10.182 12.048,10.159 11.640 C 10.134 11.203,10.152 11.126,10.232 11.321 C 10.271 11.416,10.281 11.534,10.265 11.693 M11.882 11.261 C 11.947 11.295,12.000 11.332,12.000 11.345 C 12.000 11.357,11.961 11.495,11.914 11.652 C 11.853 11.853,11.841 11.940,11.874 11.951 C 11.958 11.979,11.922 12.040,11.820 12.040 C 11.703 12.040,11.702 12.023,11.781 11.684 C 11.835 11.456,11.835 11.419,11.781 11.336 C 11.680 11.181,11.699 11.167,11.882 11.261 M12.625 11.693 C 12.586 12.070,12.542 12.048,12.519 11.640 C 12.494 11.203,12.512 11.126,12.592 11.321 C 12.631 11.416,12.641 11.534,12.625 11.693 M3.265 11.733 C 3.226 12.110,3.182 12.088,3.159 11.680 C 3.134 11.243,3.152 11.166,3.232 11.361 C 3.271 11.456,3.281 11.574,3.265 11.733 M6.373 11.412 C 6.393 11.496,6.397 11.577,6.382 11.592 C 6.340 11.633,6.202 11.432,6.201 11.327 C 6.199 11.171,6.332 11.237,6.373 11.412 M5.398 11.732 L 5.400 11.844 5.261 11.738 L 5.123 11.633 5.211 11.513 L 5.300 11.394 5.348 11.507 C 5.375 11.569,5.397 11.670,5.398 11.732 M11.199 11.713 C 11.200 11.863,11.139 12.000,11.072 12.000 C 11.048 12.000,11.060 11.964,11.099 11.921 C 11.161 11.853,11.164 11.826,11.121 11.722 C 11.064 11.584,11.097 11.419,11.162 11.521 C 11.182 11.554,11.199 11.640,11.199 11.713 M14.744 11.627 C 14.759 11.707,14.753 11.802,14.732 11.837 C 14.684 11.913,14.562 11.935,14.481 11.882 C 14.431 11.850,14.439 11.826,14.531 11.730 C 14.591 11.667,14.640 11.585,14.640 11.548 C 14.640 11.421,14.716 11.479,14.744 11.627 M14.407 11.609 C 14.379 11.637,14.360 11.640,14.360 11.615 C 14.360 11.592,14.372 11.561,14.387 11.547 C 14.401 11.532,14.423 11.529,14.434 11.541 C 14.445 11.552,14.433 11.583,14.407 11.609 M16.280 11.861 C 16.280 11.893,16.026 12.040,15.970 12.040 C 15.943 12.040,15.920 12.022,15.920 12.000 C 15.920 11.978,15.962 11.960,16.012 11.960 C 16.063 11.960,16.140 11.934,16.182 11.901 C 16.269 11.836,16.280 11.831,16.280 11.861 M5.360 11.942 C 5.360 11.974,5.075 12.088,5.052 12.065 C 5.042 12.055,5.084 12.019,5.146 11.985 C 5.262 11.922,5.360 11.902,5.360 11.942 M6.460 11.960 C 6.446 11.982,6.417 12.000,6.395 12.000 C 6.373 12.000,6.366 11.982,6.380 11.960 C 6.394 11.938,6.423 11.920,6.445 11.920 C 6.467 11.920,6.474 11.938,6.460 11.960 M4.440 12.040 C 4.440 12.062,4.422 12.080,4.400 12.080 C 4.378 12.080,4.360 12.062,4.360 12.040 C 4.360 12.018,4.378 12.000,4.400 12.000 C 4.422 12.000,4.440 12.018,4.440 12.040 " fill="#000C9D" stroke="none" fill-rule="evenodd"></path></svg>