<svg width="24" height="16" viewBox="0 0 24 16" fill="none" xmlns="http://www.w3.org/2000/svg"><path d="M16.260 0.467 C 12.161 0.479,3.231 0.562,2.136 0.598 C 0.969 0.637,0.909 0.652,0.522 1.021 C 0.188 1.340,0.163 1.412,0.119 2.150 C 0.077 2.875,0.073 12.886,0.114 14.004 C 0.141 14.728,0.145 14.753,0.248 14.888 C 0.437 15.135,0.856 15.529,0.993 15.587 C 1.220 15.683,2.045 15.717,4.780 15.743 L 7.420 15.769 8.780 15.402 C 12.941 14.281,15.408 13.500,17.560 12.621 C 19.639 11.771,22.094 10.523,23.557 9.571 L 24.013 9.274 23.986 6.539 C 23.955 3.371,23.905 1.873,23.820 1.577 C 23.742 1.303,23.547 1.060,23.137 0.722 L 22.795 0.440 20.807 0.450 C 19.714 0.455,17.668 0.463,16.260 0.467 M2.842 5.538 C 3.790 5.686,4.135 5.843,4.419 6.257 L 4.572 6.479 4.546 6.960 C 4.516 7.533,4.467 7.668,4.192 7.948 C 3.858 8.287,3.441 8.420,2.564 8.466 L 2.067 8.493 2.091 7.036 C 2.113 5.678,2.128 5.440,2.194 5.440 C 2.208 5.440,2.500 5.484,2.842 5.538 M5.680 6.960 L 5.680 8.480 5.360 8.480 L 5.040 8.480 5.040 6.960 L 5.040 5.440 5.360 5.440 L 5.680 5.440 5.680 6.960 M7.571 5.605 C 7.720 5.652,7.852 5.708,7.865 5.729 C 7.878 5.750,7.856 5.828,7.815 5.903 L 7.742 6.040 7.316 6.040 C 6.984 6.040,6.879 6.053,6.839 6.101 C 6.775 6.179,6.803 6.210,7.405 6.728 C 7.662 6.949,7.904 7.187,7.942 7.258 C 8.044 7.448,8.007 7.783,7.856 8.026 C 7.566 8.495,6.897 8.573,6.197 8.219 C 5.901 8.069,5.888 8.031,6.067 7.839 L 6.221 7.675 6.539 7.797 C 6.715 7.865,6.914 7.920,6.981 7.920 C 7.139 7.920,7.437 7.707,7.439 7.593 C 7.440 7.578,7.199 7.376,6.903 7.143 C 6.382 6.733,6.200 6.533,6.200 6.373 C 6.200 6.156,6.332 5.866,6.506 5.696 C 6.785 5.425,6.958 5.410,7.571 5.605 M14.817 5.613 C 14.907 5.708,15.155 6.075,15.370 6.428 C 15.584 6.781,15.786 7.092,15.818 7.118 C 15.895 7.182,16.008 7.006,16.450 6.133 C 16.803 5.435,16.812 5.426,17.063 5.521 C 17.159 5.558,17.168 5.578,17.150 5.712 C 17.130 5.862,16.916 6.416,16.341 7.810 L 16.031 8.560 15.855 8.560 C 15.679 8.560,15.679 8.560,15.576 8.330 C 15.310 7.733,14.599 5.886,14.538 5.632 C 14.510 5.516,14.538 5.440,14.609 5.440 C 14.634 5.440,14.727 5.518,14.817 5.613 M19.480 5.700 L 19.480 5.960 18.900 5.960 L 18.320 5.960 18.320 6.300 L 18.320 6.640 18.880 6.640 L 19.440 6.640 19.440 6.900 L 19.440 7.160 18.879 7.160 L 18.317 7.160 18.329 7.570 L 18.340 7.980 18.910 7.991 L 19.480 8.002 19.480 8.241 L 19.480 8.480 18.580 8.480 L 17.680 8.480 17.680 6.960 L 17.680 5.440 18.580 5.440 L 19.480 5.440 19.480 5.700 M20.868 5.563 C 21.387 5.650,21.658 5.762,21.742 5.923 C 21.817 6.068,21.818 6.561,21.744 6.731 C 21.713 6.802,21.608 6.949,21.511 7.058 L 21.333 7.256 21.581 7.638 C 21.935 8.185,22.016 8.353,21.957 8.423 C 21.931 8.455,21.840 8.480,21.749 8.480 C 21.596 8.480,21.566 8.457,21.143 8.020 C 20.897 7.767,20.677 7.560,20.653 7.560 C 20.586 7.560,20.561 7.706,20.561 8.110 L 20.560 8.480 20.234 8.480 L 19.907 8.480 19.934 7.021 C 19.949 6.219,19.973 5.534,19.986 5.498 C 20.014 5.426,20.083 5.431,20.868 5.563 M10.607 5.629 C 10.689 5.700,10.792 5.911,10.825 6.075 L 10.849 6.197 10.715 6.158 C 10.641 6.136,10.400 6.108,10.179 6.094 C 9.824 6.072,9.760 6.078,9.619 6.151 C 9.400 6.264,9.215 6.467,9.142 6.675 C 9.013 7.041,9.083 7.286,9.413 7.622 C 9.717 7.931,9.856 7.977,10.364 7.938 C 10.764 7.906,10.840 7.936,10.840 8.123 C 10.840 8.350,10.770 8.427,10.516 8.481 C 10.154 8.558,9.821 8.515,9.470 8.346 C 9.151 8.193,8.816 7.920,8.683 7.705 C 8.581 7.540,8.480 7.069,8.480 6.761 C 8.480 6.547,8.495 6.508,8.659 6.290 C 8.887 5.986,9.165 5.731,9.351 5.653 C 9.655 5.526,10.471 5.510,10.607 5.629 M13.143 5.563 C 13.554 5.638,14.031 5.991,14.204 6.349 C 14.284 6.514,14.290 6.570,14.268 7.001 C 14.254 7.279,14.219 7.532,14.184 7.617 C 14.035 7.974,13.369 8.420,12.915 8.467 C 12.484 8.511,11.972 8.323,11.637 7.997 C 11.345 7.713,11.285 7.560,11.255 7.028 C 11.229 6.581,11.231 6.568,11.341 6.365 C 11.496 6.080,11.845 5.706,12.049 5.605 C 12.246 5.507,12.734 5.489,13.143 5.563 M20.585 5.989 C 20.552 6.021,20.554 6.592,20.586 6.714 C 20.608 6.797,20.629 6.806,20.751 6.786 C 20.931 6.757,21.190 6.585,21.249 6.457 C 21.286 6.375,21.280 6.339,21.214 6.249 C 21.098 6.089,20.664 5.910,20.585 5.989 M2.800 6.040 C 2.764 6.062,2.745 6.331,2.729 7.042 L 2.708 8.013 2.887 7.988 C 3.160 7.951,3.420 7.822,3.644 7.612 C 4.088 7.197,4.130 6.810,3.767 6.471 C 3.499 6.220,2.924 5.964,2.800 6.040 " fill="#4D4D4D" stroke="none" fill-rule="evenodd"></path></svg>