<svg width="24" height="16" viewBox="0 0 24 16" fill="none" xmlns="http://www.w3.org/2000/svg"><path d="M9.700 0.162 C 5.784 0.178,2.149 0.202,1.623 0.215 C 0.546 0.243,0.618 0.224,0.230 0.593 L 0.000 0.812 -0.000 7.670 L -0.000 14.527 0.247 14.785 C 0.384 14.926,0.576 15.096,0.674 15.161 L 0.854 15.280 9.797 15.278 C 19.977 15.276,23.118 15.245,23.316 15.142 C 23.385 15.106,23.567 14.959,23.721 14.814 L 24.000 14.550 24.000 7.722 L 24.000 0.894 23.680 0.507 L 23.359 0.120 20.090 0.127 C 18.291 0.130,13.616 0.146,9.700 0.162 M15.146 3.058 C 15.850 3.405,16.337 3.740,16.776 4.176 C 17.455 4.852,18.059 5.779,18.160 6.300 C 18.237 6.701,18.295 8.119,18.254 8.582 C 18.217 9.001,18.202 9.050,17.990 9.491 C 17.673 10.151,17.336 10.624,16.800 11.163 C 15.487 12.484,14.203 12.887,11.500 12.829 C 9.530 12.786,8.544 12.468,7.465 11.529 C 6.891 11.029,6.496 10.496,6.008 9.560 L 5.726 9.020 5.698 7.777 L 5.670 6.534 5.838 6.137 C 6.408 4.794,7.125 3.952,8.286 3.261 C 8.834 2.935,9.037 2.869,9.580 2.840 C 9.844 2.825,11.087 2.810,12.342 2.807 L 14.625 2.800 15.146 3.058 M9.680 3.280 C 9.295 3.301,9.235 3.316,8.960 3.456 C 8.354 3.766,7.995 4.033,7.458 4.574 C 6.540 5.498,6.189 6.266,6.131 7.480 C 6.066 8.856,6.524 9.970,7.577 10.992 C 8.397 11.789,9.145 12.150,10.172 12.245 C 10.854 12.307,11.456 12.272,11.887 12.145 C 12.318 12.017,12.828 11.784,13.187 11.550 C 13.917 11.074,14.650 10.183,14.989 9.360 C 15.236 8.763,15.259 8.619,15.257 7.700 C 15.256 6.966,15.245 6.821,15.170 6.553 C 14.937 5.717,14.595 5.162,13.894 4.479 C 13.633 4.225,13.312 3.946,13.180 3.859 C 12.755 3.579,12.296 3.370,12.008 3.326 C 11.683 3.276,10.261 3.248,9.680 3.280 M12.306 5.255 C 12.621 5.502,12.990 5.945,13.329 6.484 L 13.565 6.860 13.538 7.680 L 13.511 8.500 13.306 8.875 C 13.193 9.081,12.984 9.394,12.840 9.571 C 12.578 9.895,12.109 10.296,12.025 10.269 C 11.998 10.260,11.968 10.093,11.951 9.857 C 11.909 9.296,11.893 5.150,11.932 5.090 C 11.983 5.012,12.013 5.026,12.306 5.255 M9.500 7.680 C 9.500 9.582,9.488 10.208,9.452 10.244 C 9.388 10.308,9.261 10.224,8.905 9.883 C 8.629 9.619,8.301 9.213,8.024 8.794 L 7.874 8.569 7.887 7.694 L 7.900 6.820 8.048 6.557 C 8.129 6.413,8.278 6.183,8.378 6.048 C 8.745 5.549,9.359 5.023,9.458 5.122 C 9.486 5.150,9.500 5.974,9.500 7.680 " fill="#0079BE" stroke="none" fill-rule="evenodd"></path></svg>