<svg width="24" height="16" viewBox="0 0 24 16" fill="none" xmlns="http://www.w3.org/2000/svg">
<g clip-path="url(#clip0_3242_62053)">
<path fill-rule="evenodd" clip-rule="evenodd" d="M1.69206 0.384613C0.757754 0.384613 0 1.14246 0 2.07704V14.1076C0 15.0423 0.757508 15.8 1.69206 15.8H22.3079C23.2422 15.8 24 15.0422 24 14.1076V2.07704C24 1.14227 23.2425 0.384613 22.3079 0.384613H1.69206Z" fill="#4D4D4D"/>
<path fill-rule="evenodd" clip-rule="evenodd" d="M10.0662 5.36594C10.3381 5.36594 10.5661 5.42083 10.8436 5.55332V6.25335C10.5807 6.01141 10.3527 5.91015 10.0511 5.91015C9.4584 5.91015 8.99225 6.37215 8.99225 6.95784C8.99225 7.57554 9.44397 8.01003 10.0806 8.01003C10.3671 8.01003 10.5909 7.91403 10.8436 7.67597V8.37637C10.5562 8.50375 10.3233 8.55409 10.0511 8.55409C9.08874 8.55409 8.34093 7.85883 8.34093 6.96218C8.34093 6.07523 9.10865 5.36594 10.0662 5.36594ZM7.07806 5.38523C7.43333 5.38523 7.75837 5.49969 8.03016 5.72351L7.69945 6.13114C7.53483 5.95741 7.37914 5.88412 7.18979 5.88412C6.91739 5.88412 6.71902 6.03012 6.71902 6.22224C6.71902 6.38698 6.83037 6.47418 7.2096 6.60631C7.92853 6.85381 8.1416 7.07326 8.1416 7.55787C8.1416 8.14843 7.6808 8.55951 7.02406 8.55951C6.54314 8.55951 6.19348 8.3812 5.90228 7.97883L6.31053 7.60867C6.45606 7.8736 6.6989 8.01551 7.00037 8.01551C7.28231 8.01551 7.49105 7.83237 7.49105 7.58523C7.49105 7.45711 7.42782 7.34726 7.30157 7.2696C7.238 7.23283 7.1121 7.178 6.86465 7.09584C6.27108 6.89467 6.06742 6.67963 6.06742 6.25938C6.06742 5.76015 6.50477 5.38523 7.07806 5.38523ZM14.3003 5.4384H14.9907L15.8548 7.48738L16.7301 5.4384H17.4152L16.0154 8.5672H15.6753L14.3003 5.4384ZM2.07422 5.44307H3.00191C4.0269 5.44307 4.74142 6.07021 4.74142 6.97049C4.74142 7.41941 4.52283 7.85344 4.15317 8.14147C3.84216 8.38458 3.48776 8.49363 2.99705 8.49363H2.07422V5.44307ZM5.03222 5.44307H5.66422V8.49363H5.03222V5.44307ZM17.701 5.44307H19.4933V5.96H18.3326V6.63707H19.4506V7.15372H18.3326V7.97717H19.4934V8.49363H17.701L17.701 5.44307ZM19.912 5.44307H20.849C21.578 5.44307 21.9957 5.77261 21.9957 6.34375C21.9957 6.81083 21.7337 7.11729 21.2576 7.20852L22.2776 8.49363H21.5003L20.6256 7.26815H20.5432V8.49363H19.912V5.44307ZM20.5432 5.92357V6.84741H20.7279C21.1315 6.84741 21.3454 6.68243 21.3454 6.37578C21.3454 6.07892 21.1314 5.92357 20.7378 5.92357H20.5432ZM2.70579 5.95997V7.97717H2.87539C3.28379 7.97717 3.54173 7.90351 3.74031 7.73471C3.95886 7.55147 4.09034 7.25886 4.09034 6.96609C4.09034 6.67381 3.95886 6.38994 3.74031 6.20667C3.53154 6.02883 3.28379 5.95997 2.87539 5.95997H2.70579Z" fill="white"/>
<path fill-rule="evenodd" clip-rule="evenodd" d="M12.7733 5.34491C13.7253 5.34491 14.497 6.07045 14.497 6.96673V6.96774C14.497 7.86405 13.7253 8.59057 12.7733 8.59057C11.8213 8.59057 11.0496 7.86402 11.0496 6.96774V6.96673C11.0496 6.07042 11.8213 5.34488 12.7733 5.34488L12.7733 5.34491ZM23.9994 9.25722C23.1979 9.82122 17.197 13.8523 6.80713 15.7994H22.3074C23.2417 15.7994 23.9995 15.0415 23.9995 14.1069V9.25709L23.9994 9.25722Z" fill="#F47216"/>
</g>
<defs>
<clipPath id="clip0_3242_62053">
<rect width="24" height="15.3846" fill="white" transform="translate(0 0.384613)"/>
</clipPath>
</defs>
</svg>
