<svg width="24" height="16" viewBox="0 0 24 16" fill="none" xmlns="http://www.w3.org/2000/svg">
<g clip-path="url(#clip0_3242_62048)">
<path d="M1.23077 0H22.7692C23.449 0 24 0.551046 24 1.23077V14.1538C24 14.8336 23.449 15.3846 22.7692 15.3846H1.23077C0.551046 15.3846 0 14.8336 0 14.1538V1.23077C0 0.551046 0.551046 0 1.23077 0Z" fill="#0079BE"/>
<path d="M18.4592 7.73691C18.4592 4.67799 15.9059 2.56368 13.1084 2.56461H10.701C7.8701 2.56359 5.54004 4.67861 5.54004 7.73691C5.54004 10.5348 7.8701 12.8335 10.701 12.82H13.1084C15.9058 12.8334 18.4592 10.534 18.4592 7.73691Z" fill="white"/>
<path d="M10.7161 2.99783C8.12933 2.99866 6.03333 5.09962 6.03271 7.6926C6.03333 10.2852 8.12945 12.3858 10.7161 12.3868C13.3035 12.3859 15.4001 10.2851 15.4004 7.6926C15.4001 5.09962 13.3035 2.99876 10.7161 2.99783Z" fill="#0079BE"/>
<path d="M7.75586 7.68C7.75832 6.41289 8.54804 5.3324 9.66171 4.90308V10.4563C8.54804 10.0271 7.75829 8.94723 7.75586 7.68ZM11.7866 10.4577V4.90289C12.9007 5.3312 13.6917 6.41234 13.6937 7.68003C13.6917 8.94809 12.9007 10.0284 11.7866 10.4575V10.4577Z" fill="white"/>
</g>
<defs>
<clipPath id="clip0_3242_62048">
<rect width="24" height="15.3846" fill="white"/>
</clipPath>
</defs>
</svg>
