<svg width="24" height="16" viewBox="0 0 24 16" fill="none" xmlns="http://www.w3.org/2000/svg">
<g clip-path="url(#clip0_3242_62058)">
<path d="M1.28246 0.384613H22.7637C23.4722 0.384613 24.0462 0.968705 24.0462 1.68984V14.4486C24.0462 15.1698 23.4722 15.7538 22.7637 15.7538H1.28246C0.573908 15.7538 0 15.1698 0 14.4486V1.68984C0 0.968705 0.573908 0.384613 1.28246 0.384613Z" fill="black"/>
<path d="M5.14591 5.96615C5.35515 5.89538 5.57976 5.85845 5.81361 5.85845C6.83515 5.85845 7.68745 6.58464 7.8813 7.54768L9.32745 7.2523C8.99515 5.61538 7.54899 4.3815 5.81361 4.3815C5.41668 4.3815 5.03515 4.44615 4.67822 4.56612L5.14591 5.96615Z" fill="#FFF100"/>
<path d="M3.43823 10.6554L4.4167 9.5477C3.97977 9.16 3.70593 8.59693 3.70593 7.96616C3.70593 7.3385 3.97977 6.77231 4.4167 6.3877L3.43823 5.28311C2.6967 5.94154 2.229 6.8985 2.229 7.96927C2.229 9.03693 2.6967 9.9969 3.43823 10.6554Z" fill="#00A3DF"/>
<path d="M7.88145 8.39076C7.68452 9.35384 6.83529 10.0769 5.81375 10.0769C5.57991 10.0769 5.35529 10.04 5.14299 9.96922L4.67529 11.3692C5.03222 11.4892 5.41683 11.5538 5.81375 11.5538C7.54914 11.5538 8.99529 10.3231 9.3276 8.68615L7.88145 8.39076Z" fill="#EE4023"/>
<path d="M14.1461 9.38155C13.9061 9.61543 13.583 9.75693 13.2261 9.75078C12.9799 9.7477 12.7523 9.67386 12.5615 9.55078L12.0814 10.3139C12.4107 10.52 12.7953 10.6431 13.2138 10.6492C13.8199 10.6585 14.3737 10.4185 14.7769 10.0277L14.1461 9.38155ZM13.2784 6.27078C12.0722 6.25232 11.0753 7.21847 11.0569 8.42462C11.0507 8.87693 11.1799 9.30155 11.4107 9.65232L15.3738 7.9569C15.1522 7.00616 14.303 6.28921 13.2784 6.27078ZM11.9645 8.5969C11.9584 8.54767 11.9553 8.49536 11.9553 8.44306C11.9676 7.73229 12.5522 7.16306 13.263 7.17539C13.6507 7.18152 13.9953 7.3569 14.2261 7.63383L11.9645 8.5969ZM16.6199 5.28613V9.51075L17.3523 9.81536L17.0045 10.6492L16.2784 10.3477C16.1153 10.2769 16.0045 10.1692 15.9215 10.0461C15.8414 9.92306 15.7799 9.75072 15.7799 9.52306V5.28613H16.6199ZM19.263 7.23998C19.3923 7.1969 19.5277 7.17536 19.6723 7.17536C20.2969 7.17536 20.8138 7.61841 20.9338 8.20613L21.8169 8.02459C21.6138 7.02459 20.7307 6.27383 19.6723 6.27383C19.4292 6.27383 19.1953 6.31386 18.98 6.38463L19.263 7.23998ZM18.2199 10.0984L18.8169 9.42459C18.5492 9.18767 18.383 8.84306 18.383 8.45844C18.383 8.07382 18.5522 7.72924 18.8169 7.49536L18.2199 6.82155C17.7677 7.22155 17.4815 7.80924 17.4815 8.46155C17.4815 9.11386 17.7677 9.69844 18.2199 10.0984ZM20.9338 8.71995C20.8138 9.30767 20.2938 9.75072 19.6723 9.75072C19.5307 9.75072 19.3923 9.7261 19.263 9.68306L18.9769 10.5384C19.1953 10.6123 19.4292 10.6523 19.6723 10.6523C20.7307 10.6523 21.6138 9.90152 21.8169 8.90152L20.9338 8.71995Z" fill="white"/>
</g>
<defs>
<clipPath id="clip0_3242_62058">
<rect width="24" height="15.3846" fill="white" transform="translate(0 0.384613)"/>
</clipPath>
</defs>
</svg>
