<svg width="24" height="16" viewBox="0 0 24 16" fill="none" xmlns="http://www.w3.org/2000/svg">
<g clip-path="url(#clip0_3242_62064)">
<path d="M1.23077 0.384613H22.7692C23.449 0.384613 24 0.935659 24 1.61538V14.5385C24 15.2182 23.449 15.7692 22.7692 15.7692H1.23077C0.551046 15.7692 0 15.2182 0 14.5385V1.61538C0 0.935659 0.551046 0.384613 1.23077 0.384613Z" fill="#000C9D"/>
<path d="M5.45306 3.67416H2.05859V6.74121H5.45306V3.67416Z" fill="#9D9400"/>
<path d="M2.91419 9.12769V9.01092H2.75674V8.66415H2.62758L2.61521 9.01092H2.26311L2.58865 8.23954L2.46659 8.18646L2.10742 9.02157V9.12769H2.61342V9.42492H2.75674V9.12769H2.91419ZM3.51684 8.18649C3.39299 8.18649 3.27444 8.22899 3.17182 8.32803L3.25145 8.41831C3.33284 8.34222 3.40536 8.30508 3.50976 8.30508C3.6389 8.30508 3.74151 8.3776 3.74151 8.51206C3.74151 8.65892 3.62653 8.72619 3.50976 8.72619H3.43721L3.41951 8.84295H3.52213C3.66545 8.84295 3.77514 8.89957 3.77514 9.07468C3.77514 9.22683 3.67428 9.32412 3.50268 9.32412C3.40361 9.32412 3.30099 9.28345 3.23198 9.20206L3.1329 9.28345C3.2249 9.39668 3.36998 9.44443 3.50622 9.44443C3.75745 9.44443 3.92905 9.28523 3.92905 9.07465C3.92905 8.88535 3.79459 8.78631 3.6513 8.77566C3.78044 8.75083 3.89013 8.63936 3.89013 8.49262C3.89013 8.32628 3.74505 8.18649 3.51684 8.18649ZM4.57767 8.18649C4.41314 8.18649 4.30345 8.24483 4.20613 8.36166L4.30874 8.43948C4.38659 8.3492 4.45207 8.31034 4.57238 8.31034C4.70859 8.31034 4.78998 8.39526 4.78998 8.53151C4.78998 8.73139 4.6909 8.86409 4.2309 9.30465V9.42489H4.95453L4.97222 9.29935H4.39899C4.80059 8.93308 4.94391 8.75086 4.94391 8.52797C4.94391 8.33335 4.80767 8.18649 4.57767 8.18649ZM6.0773 9.30462H5.82253V8.20775H5.69336L5.33244 8.43065L5.39613 8.53505L5.67567 8.36695V9.30468H5.3749V9.42492H6.0773V9.30462ZM8.21844 9.12769V9.01092H8.06099V8.66415H7.93182L7.91945 9.01092H7.56736L7.8929 8.23954L7.77084 8.18646L7.41167 9.02157V9.12769H7.91767V9.42492H8.06099V9.12769H8.21844ZM8.82105 8.18649C8.69721 8.18649 8.57868 8.22899 8.47607 8.32803L8.55567 8.41831C8.63705 8.34222 8.70961 8.30508 8.81398 8.30508C8.94314 8.30508 9.04576 8.3776 9.04576 8.51206C9.04576 8.65892 8.93074 8.72619 8.81398 8.72619H8.74145L8.72376 8.84295H8.82638C8.96967 8.84295 9.07936 8.89957 9.07936 9.07468C9.07936 9.22683 8.97853 9.32412 8.8069 9.32412C8.70782 9.32412 8.60521 9.28345 8.53622 9.20206L8.43714 9.28345C8.52914 9.39668 8.67422 9.44443 8.81044 9.44443C9.06167 9.44443 9.2333 9.28523 9.2333 9.07465C9.2333 8.88535 9.09884 8.78631 8.95551 8.77566C9.08468 8.75083 9.19438 8.63936 9.19438 8.49262C9.19438 8.32628 9.0493 8.18649 8.82105 8.18649ZM9.88191 8.18649C9.71736 8.18649 9.60767 8.24483 9.51038 8.36166L9.61299 8.43948C9.69084 8.3492 9.75628 8.31034 9.87659 8.31034C10.0128 8.31034 10.0942 8.39526 10.0942 8.53151C10.0942 8.73139 9.99511 8.86409 9.53511 9.30465V9.42489H10.2587L10.2764 9.29935H9.70321C10.1048 8.93308 10.2481 8.75086 10.2481 8.52797C10.2481 8.33335 10.1119 8.18649 9.88191 8.18649ZM11.3815 9.30462H11.1267V8.20775H10.9976L10.6367 8.43065L10.7004 8.53505L10.9799 8.36695V9.30468H10.6792V9.42492H11.3816L11.3815 9.30462ZM13.5227 9.12769V9.01092H13.3652V8.66415H13.236L13.2237 9.01092H12.8716L13.1971 8.23954L13.075 8.18646L12.7159 9.02157V9.12769H13.2219V9.42492H13.3651V9.12769H13.5227ZM14.1253 8.18649C14.0015 8.18649 13.8829 8.22899 13.7803 8.32803L13.8599 8.41831C13.9413 8.34222 14.0138 8.30508 14.1182 8.30508C14.2473 8.30508 14.3499 8.3776 14.3499 8.51206C14.3499 8.65892 14.235 8.72619 14.1182 8.72619H14.0457L14.028 8.84295H14.1306C14.2739 8.84295 14.3837 8.89957 14.3837 9.07468C14.3837 9.22683 14.2828 9.32412 14.1112 9.32412C14.0121 9.32412 13.9095 9.28345 13.8405 9.20206L13.7414 9.28345C13.8334 9.39668 13.9784 9.44443 14.1148 9.44443C14.3659 9.44443 14.5376 9.28523 14.5376 9.07465C14.5376 8.88535 14.4031 8.78631 14.2599 8.77566C14.389 8.75083 14.4987 8.63936 14.4987 8.49262C14.4986 8.32628 14.3535 8.18649 14.1253 8.18649ZM15.1862 8.18649C15.0216 8.18649 14.9119 8.24483 14.8146 8.36166L14.9173 8.43948C14.9951 8.3492 15.0606 8.31034 15.1808 8.31034C15.3171 8.31034 15.3984 8.39526 15.3984 8.53151C15.3984 8.73139 15.2994 8.86409 14.8393 9.30465V9.42489H15.563L15.5807 9.29935H15.0074C15.4091 8.93308 15.5524 8.75086 15.5524 8.52797C15.5524 8.33332 15.4161 8.18649 15.1861 8.18649H15.1862ZM16.6857 9.30462H16.431V8.20775H16.3019L15.941 8.43065L16.0047 8.53505L16.2842 8.36695V9.30468H15.9834V9.42492H16.6858L16.6857 9.30462ZM18.8269 9.12769V9.01092H18.6695V8.66415H18.5403L18.528 9.01092H18.1759L18.5014 8.23954L18.3794 8.18646L18.0202 9.02157V9.12769H18.5262V9.42492H18.6695V9.12769H18.8269ZM19.4295 8.18649C19.3057 8.18649 19.1871 8.22899 19.0845 8.32803L19.1642 8.41831C19.2456 8.34222 19.3181 8.30508 19.4225 8.30508C19.5516 8.30508 19.6543 8.3776 19.6543 8.51206C19.6543 8.65892 19.5393 8.72619 19.4225 8.72619H19.35L19.3323 8.84295H19.4349C19.5782 8.84295 19.6879 8.89957 19.6879 9.07468C19.6879 9.22683 19.5871 9.32412 19.4155 9.32412C19.3164 9.32412 19.2138 9.28345 19.1448 9.20206L19.0457 9.28345C19.1377 9.39668 19.2828 9.44443 19.419 9.44443C19.6703 9.44443 19.8419 9.28523 19.8419 9.07465C19.8419 8.88535 19.7074 8.78631 19.5641 8.77566C19.6932 8.75083 19.803 8.63936 19.803 8.49262C19.803 8.32628 19.6579 8.18649 19.4297 8.18649H19.4295ZM20.4903 8.18649C20.3258 8.18649 20.2161 8.24483 20.1188 8.36166L20.2214 8.43948C20.2993 8.3492 20.3647 8.31034 20.485 8.31034C20.6213 8.31034 20.7026 8.39526 20.7026 8.53151C20.7026 8.73139 20.6035 8.86409 20.1435 9.30465V9.42489H20.8672L20.8849 9.29935H20.3116C20.7133 8.93308 20.8566 8.75086 20.8566 8.52797C20.8567 8.33335 20.7203 8.18649 20.4903 8.18649ZM21.99 9.30462H21.7353V8.20775H21.6061L21.2452 8.43065L21.3088 8.53505L21.5884 8.36695V9.30468H21.2876V9.42492H21.99V9.30462Z" fill="white"/>
<path d="M2.22204 12.36H2.42034V11.6755L2.20459 11.7188V11.6082L2.41914 11.5649H2.54053V12.36H2.73887V12.4622H2.22204V12.36ZM3.00567 12.36H3.20401V11.6755L2.98825 11.7188V11.6082L3.20281 11.5649H3.32419V12.36H3.5225V12.4622H3.00567V12.36ZM4.26468 12.36H4.68837V12.4622H4.11865V12.36C4.16471 12.3123 4.22742 12.2485 4.30677 12.1683C4.3865 12.0878 4.43656 12.0359 4.45699 12.0126C4.49585 11.9689 4.5229 11.9321 4.53813 11.902C4.55376 11.8716 4.56157 11.8418 4.56157 11.8125C4.56157 11.7648 4.54474 11.726 4.51111 11.6959C4.47785 11.6658 4.43434 11.6508 4.38065 11.6508C4.34259 11.6508 4.30234 11.6574 4.25988 11.6707C4.21782 11.6839 4.17277 11.7039 4.12468 11.7308V11.6082C4.17354 11.5886 4.21921 11.5737 4.2617 11.5638C4.30416 11.5537 4.34302 11.5488 4.37828 11.5488C4.47124 11.5488 4.54533 11.572 4.60062 11.6185C4.65591 11.665 4.68357 11.727 4.68357 11.8048C4.68357 11.8417 4.67656 11.8767 4.66253 11.9099C4.64893 11.9428 4.62388 11.9817 4.58742 12.0265C4.57739 12.0381 4.54554 12.0718 4.49185 12.1275C4.43816 12.1827 4.36244 12.2602 4.26468 12.36ZM5.31157 11.9784C5.36967 11.9908 5.41493 12.0167 5.44739 12.056C5.48022 12.0952 5.49665 12.1437 5.49665 12.2014C5.49665 12.2899 5.46619 12.3585 5.40533 12.407C5.34444 12.4554 5.25788 12.4797 5.1457 12.4797C5.10804 12.4797 5.06917 12.4758 5.02911 12.4682C4.98945 12.461 4.94841 12.45 4.90591 12.4352V12.318C4.93954 12.3377 4.97644 12.3524 5.0165 12.3625C5.05656 12.3724 5.09844 12.3775 5.1421 12.3775C5.21822 12.3775 5.27613 12.3625 5.31579 12.3324C5.35585 12.3023 5.37588 12.2587 5.37588 12.2013C5.37588 12.1484 5.35727 12.1071 5.31997 12.0776C5.28311 12.0475 5.23161 12.0325 5.16551 12.0325H5.06096V11.9328H5.17034C5.23004 11.9328 5.27573 11.9209 5.30736 11.8973C5.33902 11.8733 5.35484 11.8389 5.35484 11.794C5.35484 11.7479 5.33841 11.7126 5.30557 11.6882C5.27311 11.6633 5.22644 11.6509 5.16554 11.6509C5.13228 11.6509 5.09662 11.6545 5.05856 11.6618C5.0205 11.669 4.97865 11.6802 4.93296 11.6954V11.5873C4.97905 11.5744 5.0221 11.5648 5.06219 11.5584C5.10262 11.552 5.14068 11.5488 5.17634 11.5488C5.2685 11.5488 5.34142 11.5698 5.39511 11.6119C5.44881 11.6535 5.47564 11.71 5.47564 11.7814C5.47564 11.831 5.46142 11.873 5.43296 11.9076C5.4045 11.9416 5.36404 11.9652 5.31157 11.9784ZM6.12047 11.5649H6.59702V11.6671H6.23167V11.887C6.2493 11.881 6.26693 11.8766 6.28456 11.8738C6.30219 11.8706 6.31982 11.869 6.33745 11.869C6.43761 11.869 6.51693 11.8965 6.57542 11.9513C6.63391 12.0062 6.66317 12.0805 6.66317 12.1743C6.66317 12.2709 6.63311 12.3459 6.57302 12.3996C6.5129 12.4529 6.42816 12.4796 6.31881 12.4796C6.28114 12.4796 6.24268 12.4764 6.20342 12.47C6.16456 12.4636 6.12431 12.4539 6.08262 12.4411V12.3191C6.11868 12.3388 6.15594 12.3534 6.19441 12.363C6.23287 12.3726 6.27354 12.3774 6.31641 12.3774C6.38573 12.3774 6.44062 12.3591 6.48108 12.3227C6.52154 12.2863 6.54176 12.2368 6.54176 12.1743C6.54176 12.1118 6.52154 12.0623 6.48108 12.0259C6.44062 11.9894 6.38573 11.9713 6.31641 11.9713C6.28394 11.9713 6.25151 11.9749 6.21905 11.9821C6.18702 11.9893 6.15416 12.0006 6.1205 12.0157L6.12047 11.5649ZM7.16253 12.0361C7.10484 12.0361 7.05936 12.0515 7.0261 12.0824C6.99327 12.1133 6.97684 12.1558 6.97684 12.2098C6.97684 12.2639 6.99327 12.3064 7.0261 12.3372C7.05939 12.3681 7.10487 12.3835 7.16253 12.3835C7.22022 12.3835 7.26573 12.3681 7.29896 12.3373C7.33219 12.306 7.34881 12.2635 7.34881 12.2098C7.34881 12.1558 7.33219 12.1133 7.29896 12.0824C7.2661 12.0515 7.22062 12.0361 7.16253 12.0361ZM7.04114 11.9844C6.98905 11.9716 6.94837 11.9474 6.91914 11.9117C6.89028 11.8761 6.87588 11.8326 6.87588 11.7814C6.87588 11.7096 6.90133 11.6529 6.95219 11.6113C7.00348 11.5696 7.07357 11.5489 7.16253 11.5489C7.25188 11.5489 7.32201 11.5697 7.37287 11.6112C7.42373 11.6529 7.44917 11.7096 7.44917 11.7814C7.44917 11.8326 7.43456 11.8761 7.40533 11.9117C7.37647 11.9474 7.33619 11.9716 7.28453 11.9844C7.34299 11.998 7.38847 12.0247 7.42096 12.0643C7.45379 12.104 7.47022 12.1525 7.47022 12.2098C7.47022 12.2967 7.44357 12.3634 7.39028 12.41C7.33739 12.4564 7.26148 12.4797 7.16253 12.4797C7.06357 12.4797 6.98745 12.4564 6.93416 12.41C6.88127 12.3634 6.85484 12.2967 6.85484 12.2098C6.85484 12.1525 6.87127 12.104 6.90413 12.0643C6.93696 12.0247 6.98262 11.9981 7.04114 11.9844ZM6.99665 11.7928C6.99665 11.8392 7.01108 11.8755 7.03994 11.9015C7.06917 11.9276 7.11004 11.9406 7.16253 11.9406C7.21462 11.9406 7.2553 11.9275 7.28453 11.9015C7.31416 11.8754 7.32899 11.8392 7.32899 11.7927C7.32899 11.7462 7.31419 11.71 7.28453 11.6839C7.25527 11.6579 7.21462 11.6448 7.16253 11.6448C7.11004 11.6448 7.06917 11.6579 7.03994 11.6839C7.01108 11.71 6.99665 11.7462 6.99665 11.7928Z" fill="white" fill-opacity="0.784"/>
<path d="M10.0141 12.3302H10.2123V11.6457L9.99658 11.6889V11.5783L10.2111 11.5351H10.3326V12.3302H10.5308V12.4323H10.014L10.0141 12.3302ZM11.1445 11.9485C11.2026 11.9609 11.2478 11.9868 11.2803 12.0261C11.3131 12.0653 11.3296 12.1138 11.3296 12.1715C11.3296 12.26 11.2992 12.3286 11.2382 12.377C11.1774 12.4255 11.0908 12.4498 10.9786 12.4498C10.941 12.4498 10.9021 12.446 10.862 12.4383C10.8224 12.4312 10.7813 12.4201 10.7388 12.4053V12.2881C10.7725 12.3078 10.8094 12.3226 10.8494 12.3326C10.8895 12.3426 10.9314 12.3476 10.975 12.3476C11.0512 12.3476 11.109 12.3326 11.1487 12.3025C11.1888 12.2724 11.2088 12.2288 11.2088 12.1715C11.2088 12.1186 11.1902 12.0773 11.153 12.0477C11.1161 12.0176 11.0646 12.0026 10.9985 12.0026H10.8939V11.9029H11.0034C11.063 11.9029 11.1087 11.891 11.1404 11.8674C11.172 11.8434 11.1878 11.809 11.1878 11.7641C11.1878 11.718 11.1714 11.6827 11.1385 11.6583C11.1061 11.6334 11.0594 11.6211 10.9985 11.6211C10.9653 11.6211 10.9296 11.6246 10.8915 11.6318C10.8534 11.639 10.8115 11.6503 10.7659 11.6656V11.5573C10.812 11.5445 10.855 11.5349 10.8951 11.5285C10.9355 11.522 10.9736 11.5189 11.0092 11.5189C11.1014 11.5189 11.1743 11.54 11.228 11.582C11.2817 11.6237 11.3085 11.6802 11.3085 11.7515C11.3085 11.8011 11.2943 11.8432 11.2658 11.8777C11.2374 11.9117 11.197 11.9353 11.1445 11.9485ZM11.6649 12.3302H12.0886V12.4323H11.5189V12.3302C11.565 12.2824 11.6277 12.2186 11.707 12.1385C11.7867 12.0579 11.8368 12.006 11.8572 11.9828C11.8961 11.9391 11.9232 11.9023 11.9384 11.8722C11.954 11.8418 11.9618 11.8119 11.9618 11.7827C11.9618 11.735 11.945 11.6962 11.9114 11.6661C11.8781 11.636 11.8346 11.621 11.7809 11.621C11.7429 11.621 11.7026 11.6276 11.6601 11.6409C11.6181 11.6541 11.573 11.6741 11.5249 11.701V11.5784C11.5738 11.5587 11.6194 11.5439 11.6619 11.5339C11.7043 11.5239 11.7433 11.5189 11.7785 11.5189C11.8714 11.5189 11.9455 11.5422 12.0008 11.5887C12.0561 11.6351 12.0838 11.6972 12.0838 11.775C12.0838 11.8118 12.0768 11.8469 12.0627 11.8802C12.0491 11.913 12.0241 11.9518 11.9876 11.9967C11.9776 12.0083 11.9458 12.042 11.8921 12.0976C11.8384 12.1529 11.7627 12.2304 11.6649 12.3302ZM12.365 12.3302H12.5634V11.6457L12.3476 11.6889V11.5783L12.5622 11.5351H12.6835V12.3302H12.8818V12.4323H12.365L12.365 12.3302ZM13.8872 11.9485C13.9454 11.9609 13.9906 11.9868 14.023 12.0261C14.0559 12.0653 14.0724 12.1138 14.0724 12.1715C14.0724 12.26 14.0419 12.3286 13.981 12.377C13.9201 12.4255 13.8336 12.4498 13.7214 12.4498C13.6837 12.4498 13.6449 12.446 13.6048 12.4383C13.5651 12.4312 13.5241 12.4201 13.4816 12.4053V12.2881C13.5153 12.3078 13.5521 12.3226 13.5922 12.3326C13.6323 12.3426 13.6742 12.3476 13.7178 12.3476C13.7939 12.3476 13.8518 12.3326 13.8915 12.3025C13.9316 12.2724 13.9516 12.2288 13.9516 12.1715C13.9516 12.1186 13.933 12.0773 13.8958 12.0477C13.8589 12.0176 13.8074 12.0026 13.7413 12.0026H13.6368V11.9029H13.7461C13.8058 11.9029 13.8515 11.891 13.8831 11.8674C13.9148 11.8434 13.9306 11.809 13.9306 11.7641C13.9306 11.718 13.9142 11.6827 13.8813 11.6583C13.8488 11.6334 13.8022 11.6211 13.7413 11.6211C13.708 11.6211 13.6724 11.6246 13.6343 11.6318C13.5962 11.639 13.5543 11.6503 13.5087 11.6656V11.5573C13.5547 11.5445 13.5978 11.5349 13.6379 11.5285C13.6783 11.522 13.7164 11.5189 13.752 11.5189C13.8442 11.5189 13.9171 11.54 13.9708 11.582C14.0245 11.6237 14.0513 11.6802 14.0513 11.7515C14.0513 11.8011 14.0371 11.8432 14.0086 11.8777C13.9802 11.9117 13.9398 11.9353 13.8872 11.9485ZM14.6366 11.6408L14.3302 12.1198H14.6366V11.6408ZM14.6048 11.5351H14.7574V12.1198H14.8854V12.2208H14.7574V12.4323H14.6366V12.2208H14.2315V12.1035L14.6048 11.535H14.6048V11.5351ZM15.088 11.5351H15.5645V11.6373H15.1991V11.8571C15.2168 11.8511 15.2344 11.8467 15.2521 11.8439C15.2697 11.8407 15.2874 11.8391 15.305 11.8391C15.4051 11.8391 15.4845 11.8666 15.543 11.9214C15.6014 11.9764 15.6307 12.0506 15.6307 12.1444C15.6307 12.241 15.6006 12.3161 15.5405 12.3698C15.4804 12.423 15.3957 12.4497 15.2863 12.4497C15.2486 12.4497 15.2102 12.4465 15.1709 12.4401C15.1321 12.4337 15.0918 12.4241 15.0501 12.4112V12.2892C15.0862 12.3089 15.1234 12.3235 15.1619 12.3331C15.2003 12.3428 15.241 12.3475 15.2839 12.3475C15.3532 12.3475 15.4081 12.3293 15.4486 12.2929C15.489 12.2564 15.5093 12.207 15.5093 12.1445C15.5093 12.082 15.4891 12.0325 15.4486 11.9961C15.4082 11.9596 15.3532 11.9414 15.2839 11.9414C15.2515 11.9414 15.2191 11.945 15.1866 11.9522C15.1545 11.9594 15.1217 11.9707 15.088 11.9859V11.5351ZM15.8716 11.5351H16.3482V11.6373H15.9827V11.8571C16.0003 11.8511 16.018 11.8467 16.0357 11.8439C16.0532 11.8407 16.0709 11.8391 16.0886 11.8391C16.1887 11.8391 16.268 11.8666 16.3265 11.9214C16.385 11.9764 16.4143 12.0506 16.4143 12.1444C16.4143 12.241 16.3842 12.3161 16.3241 12.3698C16.264 12.423 16.1793 12.4497 16.0699 12.4497C16.0322 12.4497 15.9937 12.4465 15.9545 12.4401C15.9156 12.4337 15.8754 12.4241 15.8337 12.4112V12.2892C15.8698 12.3089 15.907 12.3235 15.9455 12.3331C15.9839 12.3428 16.0246 12.3475 16.0675 12.3475C16.1368 12.3475 16.1917 12.3293 16.2322 12.2929C16.2726 12.2564 16.2929 12.207 16.2929 12.1445C16.2929 12.082 16.2726 12.0325 16.2322 11.9961C16.1917 11.9596 16.1368 11.9414 16.0675 11.9414C16.035 11.9414 16.0026 11.945 15.9701 11.9522C15.938 11.9594 15.9053 11.9707 15.8716 11.9859V11.5351Z" fill="white" fill-opacity="0.784"/>
</g>
<defs>
<clipPath id="clip0_3242_62064">
<rect width="24" height="15.3846" fill="white" transform="translate(0 0.384613)"/>
</clipPath>
</defs>
</svg>
