<svg width="24" height="16" viewBox="0 0 24 16" fill="none" xmlns="http://www.w3.org/2000/svg"><path d="M12.000 0.524 C 5.825 0.555,1.527 0.615,0.913 0.678 C 0.723 0.698,0.514 0.742,0.449 0.775 C 0.275 0.865,0.166 1.157,0.120 1.650 C 0.062 2.276,0.000 7.275,0.000 11.326 L 0.000 14.952 0.304 15.236 C 0.528 15.446,0.661 15.536,0.814 15.584 C 1.121 15.682,4.316 15.713,14.561 15.717 L 23.222 15.720 23.611 15.329 L 24.000 14.939 24.000 8.095 L 24.000 1.251 23.833 1.056 C 23.741 0.948,23.584 0.775,23.484 0.670 L 23.303 0.480 20.662 0.487 C 19.209 0.490,15.311 0.507,12.000 0.524 M5.440 5.200 L 5.440 6.720 3.760 6.720 L 2.080 6.720 2.080 5.200 L 2.080 3.680 3.760 3.680 L 5.440 3.680 5.440 5.200 M4.662 8.298 C 4.777 8.413,4.786 8.549,4.701 8.900 C 4.669 9.032,4.642 9.197,4.641 9.268 C 4.640 9.407,4.577 9.473,4.511 9.407 C 4.481 9.377,4.499 9.244,4.572 8.960 C 4.629 8.738,4.667 8.533,4.657 8.506 C 4.646 8.478,4.583 8.424,4.517 8.384 C 4.420 8.327,4.405 8.302,4.443 8.257 C 4.508 8.178,4.549 8.185,4.662 8.298 M9.963 8.317 C 10.113 8.466,10.113 8.593,9.963 8.900 C 9.826 9.182,9.807 9.148,9.920 8.820 C 9.964 8.692,10.000 8.564,10.000 8.536 C 10.000 8.508,9.928 8.442,9.841 8.390 C 9.718 8.316,9.692 8.284,9.729 8.247 C 9.799 8.177,9.834 8.188,9.963 8.317 M15.312 8.323 C 15.404 8.391,15.480 8.462,15.480 8.480 C 15.480 8.498,15.417 8.678,15.340 8.880 C 15.181 9.296,15.177 9.320,15.260 9.320 C 15.339 9.320,15.337 9.385,15.257 9.416 C 15.046 9.497,15.030 9.378,15.187 8.895 L 15.295 8.566 15.187 8.404 C 15.022 8.153,15.053 8.133,15.312 8.323 M3.628 8.375 C 3.764 8.499,3.777 8.531,3.792 8.768 C 3.805 8.973,3.791 9.060,3.726 9.188 C 3.645 9.348,3.547 9.422,3.476 9.378 C 3.411 9.337,3.438 9.283,3.555 9.223 C 3.706 9.144,3.726 9.081,3.649 8.922 C 3.597 8.815,3.594 8.769,3.633 8.666 C 3.677 8.551,3.672 8.534,3.584 8.469 C 3.530 8.430,3.444 8.363,3.393 8.320 L 3.300 8.243 3.391 8.241 C 3.440 8.241,3.547 8.301,3.628 8.375 M8.979 8.401 C 9.038 8.460,9.061 8.549,9.073 8.756 C 9.098 9.198,8.991 9.400,8.731 9.400 C 8.676 9.400,8.677 9.390,8.739 9.321 C 8.778 9.278,8.844 9.231,8.885 9.218 C 8.951 9.198,8.960 9.151,8.960 8.838 L 8.960 8.482 8.800 8.400 C 8.712 8.355,8.640 8.307,8.640 8.294 C 8.640 8.243,8.904 8.326,8.979 8.401 M14.268 8.382 C 14.376 8.452,14.415 8.640,14.392 8.967 C 14.377 9.172,14.356 9.227,14.265 9.306 C 14.205 9.358,14.110 9.400,14.055 9.400 C 13.926 9.400,13.967 9.335,14.143 9.261 C 14.305 9.194,14.321 9.090,14.198 8.917 L 14.116 8.802 14.204 8.683 C 14.306 8.546,14.277 8.482,14.079 8.399 C 14.013 8.372,13.960 8.333,13.960 8.311 C 13.960 8.261,14.149 8.305,14.268 8.382 M16.311 8.411 C 16.339 8.468,16.366 8.687,16.371 8.896 C 16.378 9.211,16.368 9.289,16.311 9.346 C 16.209 9.449,16.190 9.395,16.237 9.134 C 16.270 8.950,16.266 8.853,16.220 8.680 C 16.147 8.407,16.143 8.268,16.210 8.290 C 16.238 8.299,16.283 8.353,16.311 8.411 M19.518 8.358 C 19.706 8.546,19.736 9.186,19.563 9.326 C 19.472 9.400,19.320 9.427,19.320 9.370 C 19.321 9.354,19.386 9.298,19.464 9.247 C 19.614 9.150,19.616 9.141,19.514 8.889 C 19.472 8.783,19.471 8.743,19.513 8.677 C 19.580 8.570,19.543 8.463,19.419 8.407 C 19.365 8.382,19.320 8.343,19.320 8.321 C 19.320 8.253,19.435 8.275,19.518 8.358 M20.630 8.385 C 20.679 8.416,20.719 8.455,20.718 8.471 C 20.717 8.487,20.674 8.698,20.623 8.940 C 20.555 9.267,20.514 9.383,20.465 9.393 C 20.366 9.413,20.382 9.212,20.508 8.838 L 20.616 8.519 20.478 8.398 C 20.351 8.286,20.348 8.278,20.440 8.302 C 20.495 8.317,20.581 8.354,20.630 8.385 M5.604 8.402 C 5.552 8.446,5.500 8.473,5.489 8.462 C 5.454 8.428,5.566 8.320,5.635 8.321 C 5.685 8.322,5.678 8.341,5.604 8.402 M10.995 8.470 C 11.117 8.711,11.218 9.228,11.166 9.344 C 11.122 9.440,11.002 9.469,10.863 9.416 C 10.785 9.386,10.780 9.320,10.856 9.320 C 10.939 9.320,10.960 9.227,10.957 8.867 C 10.954 8.524,10.917 8.348,10.865 8.433 C 10.831 8.487,10.680 8.498,10.680 8.446 C 10.680 8.414,10.825 8.329,10.889 8.323 C 10.905 8.321,10.953 8.387,10.995 8.470 M21.635 8.450 C 21.698 8.649,21.763 9.194,21.736 9.300 C 21.712 9.399,21.620 9.457,21.553 9.416 C 21.529 9.401,21.525 9.245,21.542 9.002 L 21.569 8.613 21.455 8.523 C 21.344 8.436,21.343 8.431,21.418 8.377 C 21.536 8.290,21.590 8.308,21.635 8.450 M5.801 8.985 C 5.848 9.380,5.838 9.440,5.726 9.440 C 5.603 9.440,5.563 9.364,5.624 9.246 C 5.659 9.179,5.681 8.999,5.683 8.760 C 5.688 8.314,5.730 8.395,5.801 8.985 M13.014 8.609 C 13.003 8.627,13.006 8.697,13.021 8.764 C 13.046 8.879,13.057 8.885,13.213 8.873 C 13.399 8.858,13.427 8.903,13.382 9.144 C 13.352 9.302,13.263 9.322,13.076 9.211 C 12.962 9.144,12.960 9.136,12.961 8.801 C 12.961 8.578,12.974 8.480,12.998 8.518 C 13.018 8.550,13.026 8.591,13.014 8.609 M7.666 8.690 C 7.655 8.717,7.646 8.695,7.646 8.640 C 7.646 8.585,7.655 8.563,7.666 8.590 C 7.678 8.617,7.678 8.662,7.666 8.690 M2.400 8.778 C 2.400 8.911,2.405 8.916,2.570 8.928 C 2.728 8.939,2.741 8.949,2.752 9.063 C 2.772 9.267,2.678 9.307,2.450 9.194 C 2.238 9.089,2.205 9.008,2.280 8.779 C 2.339 8.601,2.400 8.600,2.400 8.778 M18.320 8.798 C 18.320 8.907,18.422 8.926,18.534 8.838 L 18.633 8.760 18.720 8.900 L 18.807 9.040 18.720 9.180 C 18.672 9.257,18.617 9.320,18.596 9.320 C 18.575 9.320,18.478 9.246,18.379 9.155 C 18.205 8.994,18.167 8.893,18.224 8.744 C 18.255 8.664,18.320 8.701,18.320 8.798 M7.831 8.960 C 8.031 8.960,8.139 9.037,8.102 9.153 C 8.035 9.366,7.667 9.187,7.623 8.920 C 7.604 8.806,7.607 8.797,7.639 8.870 C 7.669 8.941,7.710 8.960,7.831 8.960 M9.942 9.379 C 10.004 9.426,10.007 9.438,9.958 9.439 C 9.923 9.439,9.860 9.414,9.818 9.381 C 9.756 9.334,9.753 9.322,9.802 9.321 C 9.837 9.321,9.900 9.346,9.942 9.379 M11.080 11.600 C 11.177 11.676,11.178 11.678,11.093 11.679 C 10.966 11.680,10.880 11.639,10.880 11.576 C 10.880 11.498,10.962 11.508,11.080 11.600 M13.806 11.597 C 13.858 11.639,13.891 11.682,13.880 11.693 C 13.848 11.725,13.600 11.608,13.600 11.562 C 13.600 11.496,13.702 11.513,13.806 11.597 M4.479 11.737 C 4.527 11.828,4.525 11.857,4.466 11.970 C 4.401 12.095,4.399 12.095,4.420 11.990 C 4.434 11.920,4.411 11.820,4.359 11.717 C 4.282 11.567,4.281 11.558,4.349 11.594 C 4.390 11.616,4.448 11.680,4.479 11.737 M5.241 11.681 C 5.364 11.796,5.370 11.814,5.349 12.017 C 5.337 12.136,5.297 12.284,5.261 12.346 C 5.199 12.454,5.197 12.454,5.220 12.360 C 5.233 12.305,5.248 12.154,5.252 12.024 C 5.260 11.808,5.251 11.781,5.150 11.706 C 5.041 11.625,5.007 11.560,5.076 11.560 C 5.095 11.560,5.170 11.615,5.241 11.681 M6.400 11.721 C 6.400 11.810,6.429 11.927,6.465 11.981 C 6.573 12.147,6.457 12.091,6.283 11.894 C 6.099 11.685,6.091 11.661,6.190 11.603 C 6.340 11.516,6.400 11.550,6.400 11.721 M10.306 11.842 C 10.427 12.207,10.462 12.440,10.394 12.439 C 10.364 12.439,10.317 12.424,10.289 12.406 C 10.236 12.373,10.077 11.646,10.109 11.588 C 10.153 11.510,10.226 11.604,10.306 11.842 M11.810 11.672 C 11.901 11.750,11.897 11.898,11.799 12.114 C 11.702 12.328,11.702 12.320,11.800 12.320 C 11.844 12.320,11.880 12.338,11.880 12.359 C 11.880 12.402,11.689 12.462,11.657 12.430 C 11.646 12.419,11.685 12.272,11.743 12.102 L 11.849 11.794 11.735 11.671 C 11.623 11.551,11.670 11.552,11.810 11.672 M12.666 11.842 C 12.787 12.207,12.822 12.440,12.754 12.439 C 12.724 12.439,12.677 12.424,12.649 12.406 C 12.596 12.373,12.437 11.646,12.469 11.588 C 12.513 11.510,12.586 11.604,12.666 11.842 M7.256 11.690 C 7.325 11.798,7.421 12.113,7.393 12.140 C 7.369 12.164,7.006 12.100,6.972 12.065 C 6.923 12.017,7.041 11.838,7.150 11.795 C 7.259 11.752,7.259 11.752,7.170 11.717 C 7.069 11.678,7.048 11.600,7.139 11.600 C 7.172 11.600,7.224 11.640,7.256 11.690 M15.346 11.800 C 15.393 11.899,15.444 12.034,15.459 12.100 C 15.480 12.198,15.451 12.172,15.303 11.962 C 15.108 11.688,15.076 11.586,15.190 11.607 C 15.228 11.614,15.299 11.701,15.346 11.800 M16.057 11.690 C 16.152 11.835,16.244 12.080,16.204 12.080 C 16.157 12.080,15.920 11.724,15.920 11.653 C 15.920 11.571,15.992 11.590,16.057 11.690 M3.217 11.976 C 3.232 12.072,3.231 12.202,3.215 12.264 C 3.190 12.365,3.184 12.369,3.156 12.299 C 3.113 12.188,3.113 11.800,3.155 11.800 C 3.175 11.800,3.203 11.879,3.217 11.976 M13.976 11.863 C 13.989 11.898,14.000 11.979,14.000 12.044 L 14.000 12.162 13.832 12.076 L 13.663 11.990 13.782 11.895 C 13.922 11.783,13.944 11.780,13.976 11.863 M11.160 11.960 C 11.244 12.044,11.268 12.160,11.200 12.160 C 11.139 12.160,11.000 12.007,11.000 11.940 C 11.000 11.857,11.065 11.865,11.160 11.960 M14.720 12.080 C 14.720 12.267,14.713 12.280,14.620 12.280 C 14.501 12.280,14.487 12.180,14.581 11.998 C 14.671 11.825,14.720 11.854,14.720 12.080 M2.440 12.300 C 2.417 12.361,2.389 12.402,2.378 12.391 C 2.367 12.380,2.377 12.321,2.400 12.260 C 2.423 12.199,2.451 12.158,2.462 12.169 C 2.473 12.180,2.463 12.239,2.440 12.300 M15.407 12.329 C 15.379 12.357,15.360 12.360,15.360 12.335 C 15.360 12.312,15.372 12.281,15.387 12.267 C 15.401 12.252,15.423 12.249,15.434 12.261 C 15.445 12.272,15.433 12.303,15.407 12.329 M16.159 12.362 C 16.065 12.434,15.960 12.464,15.960 12.419 C 15.960 12.384,16.215 12.242,16.238 12.264 C 16.249 12.276,16.214 12.320,16.159 12.362 M11.160 12.340 C 11.160 12.373,11.131 12.400,11.095 12.400 C 11.042 12.400,11.039 12.389,11.080 12.340 C 11.107 12.307,11.137 12.280,11.145 12.280 C 11.153 12.280,11.160 12.307,11.160 12.340 M6.406 12.401 C 6.303 12.487,6.240 12.502,6.240 12.442 C 6.240 12.394,6.360 12.322,6.440 12.323 C 6.482 12.323,6.471 12.347,6.406 12.401 M4.440 12.400 C 4.440 12.422,4.404 12.440,4.360 12.440 C 4.316 12.440,4.280 12.422,4.280 12.400 C 4.280 12.378,4.316 12.360,4.360 12.360 C 4.404 12.360,4.440 12.378,4.440 12.400 M7.220 12.400 C 7.251 12.451,7.198 12.451,7.120 12.400 C 7.068 12.367,7.069 12.361,7.128 12.361 C 7.165 12.360,7.206 12.378,7.220 12.400 " fill="#000C9D" stroke="none" fill-rule="evenodd"></path></svg>