<svg width="24" height="16" viewBox="0 0 24 16" fill="none" xmlns="http://www.w3.org/2000/svg">
<g clip-path="url(#clip0_3242_62078)">
<path d="M22.2871 0.384613H1.71286C0.78158 0.384613 0.0239258 1.14227 0.0239258 2.07354V14.0803C0.0239258 15.0116 0.78158 15.7692 1.71286 15.7692H22.2871C23.2183 15.7692 23.976 15.0116 23.976 14.0803V2.07354C23.976 1.14227 23.2183 0.384613 22.2871 0.384613Z" fill="white"/>
<path d="M10.267 12.6582L1.46826 12.6614V12.6402C1.46826 12.6286 1.4823 12.5531 1.49943 12.4724C1.5166 12.3918 1.54325 12.2635 1.55873 12.1874C1.57414 12.1112 1.60055 11.9819 1.61735 11.8998C1.65868 11.6994 1.69952 11.4988 1.73984 11.2982C1.75572 11.2191 1.78216 11.0897 1.79868 11.0107C1.81974 10.9095 1.84056 10.8084 1.86123 10.7071C1.8791 10.6193 1.90628 10.4851 1.92163 10.4089C1.93699 10.3328 1.96137 10.2154 1.97583 10.1481C1.99026 10.0807 2.00872 9.98968 2.01676 9.94571C2.02484 9.9018 2.05097 9.77237 2.07483 9.65819C2.09492 9.56248 2.11445 9.46664 2.13333 9.37068C2.14165 9.32676 2.16809 9.19733 2.19211 9.08316C2.21609 8.96899 2.24244 8.83959 2.25067 8.79564C2.2589 8.75173 2.2854 8.62233 2.30953 8.50812C2.33373 8.39389 2.35983 8.26695 2.36751 8.22595C2.37525 8.18496 2.39637 8.07954 2.41449 7.99168C2.43258 7.90383 2.46685 7.7385 2.49062 7.62429C2.51442 7.51006 2.55507 7.3112 2.58096 7.18228C2.60691 7.05347 2.63789 6.90014 2.64984 6.84155C2.68494 6.66934 2.72034 6.49716 2.75612 6.32511C2.77374 6.24011 2.80239 6.10115 2.8198 6.01622C2.83725 5.93128 2.86409 5.79951 2.87947 5.72339C2.89485 5.64726 2.92111 5.52029 2.93782 5.44118C2.95452 5.36214 2.98326 5.22313 3.00169 5.13235C3.02011 5.04155 3.05097 4.9026 3.07026 4.82352C3.08954 4.74445 3.11681 4.64861 3.13088 4.61057C3.14491 4.57246 3.18369 4.48998 3.21704 4.42715L3.27769 4.31301L3.33281 4.24078C3.36309 4.20111 3.41723 4.13837 3.45306 4.1014C3.4889 4.06443 3.54933 4.00879 3.58744 3.97777C3.62549 3.94672 3.68061 3.90484 3.70987 3.88469C3.73917 3.86455 3.79668 3.82927 3.83768 3.8063C3.87867 3.78333 3.93622 3.75327 3.96548 3.73948C3.99478 3.72569 4.05469 3.70048 4.0986 3.6835C4.14251 3.66655 4.22638 3.63808 4.28494 3.6203C4.3435 3.60249 4.45346 3.57565 4.52928 3.5607C4.6051 3.54571 4.72486 3.52569 4.79552 3.5162L4.9239 3.49894L13.7281 3.49563L22.5324 3.49222V3.51341C22.5324 3.52504 22.5183 3.60056 22.501 3.68119C22.4793 3.78324 22.4579 3.88534 22.4369 3.98757C22.4189 4.07542 22.3927 4.20243 22.3785 4.26977C22.3586 4.36558 22.3388 4.46142 22.3192 4.55729C22.3006 4.64809 22.2721 4.78707 22.2558 4.86612C22.2395 4.94519 22.2131 5.07459 22.1971 5.15363C22.1811 5.23274 22.1546 5.36211 22.1381 5.44115C22.1188 5.5334 22.0999 5.62571 22.0811 5.71807C22.0664 5.79128 22.0396 5.92305 22.0217 6.0109C22.0037 6.09873 21.975 6.23774 21.9577 6.31973C21.9405 6.40172 21.9142 6.52873 21.8993 6.60194C21.8844 6.67514 21.8577 6.80691 21.8398 6.89474C21.8219 6.98259 21.7932 7.12161 21.776 7.20363C21.7587 7.28562 21.733 7.4102 21.7188 7.48049C21.6794 7.67576 21.6397 7.87103 21.5998 8.06621C21.5854 8.13647 21.5597 8.26108 21.5427 8.34307C21.521 8.44772 21.4994 8.55244 21.478 8.65721C21.4594 8.74801 21.4328 8.87736 21.4189 8.94476C21.405 9.01207 21.379 9.13905 21.3611 9.2269C21.3401 9.3299 21.319 9.4328 21.2977 9.53573C21.2808 9.61775 21.2543 9.74715 21.2387 9.82331C21.2232 9.89943 21.1963 10.0312 21.1788 10.1161C21.1614 10.201 21.1329 10.34 21.1155 10.4249C21.0981 10.5099 21.0721 10.6369 21.0576 10.7072C21.0379 10.803 21.0184 10.8988 20.9989 10.9947C20.978 11.0973 20.9565 11.1999 20.9344 11.3023L20.9023 11.4502L20.8641 11.5526C20.8431 11.6088 20.8115 11.6837 20.7939 11.7188C20.7764 11.7539 20.7405 11.8159 20.7143 11.8566C20.6881 11.8972 20.6515 11.9493 20.6331 11.9723C20.6146 11.9953 20.5592 12.0547 20.5097 12.1043L20.42 12.1944L20.3335 12.2558C20.286 12.2896 20.2348 12.324 20.2198 12.3322C20.2047 12.3404 20.1475 12.3697 20.0925 12.3971C20.0375 12.4246 19.9599 12.4597 19.92 12.4749C19.8801 12.4903 19.801 12.5163 19.7443 12.5328C19.6875 12.5493 19.6267 12.5656 19.6092 12.569C19.5916 12.5723 19.5306 12.5849 19.4737 12.597C19.4167 12.6091 19.3017 12.6271 19.2181 12.637L19.0661 12.6552L10.2674 12.6582H10.267ZM7.13662 10.3823H7.36558L7.37202 10.3655C7.37562 10.3562 7.3785 10.3344 7.3785 10.3171C7.3785 10.2997 7.38606 10.2366 7.3953 10.1769C7.40451 10.1171 7.42613 9.97952 7.44339 9.87118C7.46062 9.76282 7.48641 9.59988 7.50072 9.50911C7.51432 9.42313 7.52725 9.33702 7.53957 9.25086C7.5466 9.1996 7.55517 9.15769 7.55864 9.15769C7.56207 9.15769 7.57688 9.18032 7.59152 9.20802L7.61812 9.25835L7.67714 9.31786L7.73619 9.37734L7.80884 9.40645L7.88153 9.43553L7.96812 9.44674L8.05475 9.45795L8.16465 9.45122L8.27459 9.44444L8.39361 9.41367L8.51267 9.38281L8.57654 9.3537C8.6117 9.33767 8.67397 9.30266 8.71497 9.27597L8.78953 9.22742L8.85902 9.15793C8.89725 9.11979 8.95117 9.0585 8.97881 9.02177C9.00651 8.98514 9.02914 8.95244 9.02914 8.94918C9.02914 8.94593 9.04274 8.9232 9.05936 8.8987C9.07597 8.87422 9.10993 8.80621 9.13487 8.74768C9.15983 8.68912 9.19877 8.5837 9.22149 8.51341L9.26277 8.3856L9.28411 8.27493C9.29584 8.21407 9.31095 8.11341 9.31767 8.05128L9.32986 7.93834L9.3228 7.8425L9.31577 7.74666L9.2935 7.65082L9.2713 7.55499L9.23531 7.48325L9.19935 7.41146L9.12986 7.33782L9.0604 7.26418L8.9782 7.22168L8.89599 7.17921L8.80546 7.1575L8.71494 7.13585L8.62441 7.12922L8.53392 7.12256L8.4331 7.13413L8.33223 7.14574L8.24996 7.16678L8.16766 7.18778L8.09615 7.22088C8.05684 7.23906 7.9996 7.26999 7.96901 7.28955C7.9384 7.30917 7.9068 7.33165 7.89882 7.3396C7.89086 7.34755 7.87173 7.36232 7.85638 7.37233L7.8284 7.39067L7.84793 7.2971C7.85871 7.24567 7.86768 7.19761 7.86792 7.19024L7.86835 7.17694H7.47787L7.44367 7.39257C7.42481 7.5112 7.39509 7.69449 7.37758 7.79994C7.33898 8.03252 7.29992 8.26501 7.2604 8.49744C7.24299 8.59991 7.21422 8.76288 7.19644 8.85951C7.17866 8.95615 7.15265 9.09753 7.13858 9.17369C7.12455 9.24981 7.09808 9.39355 7.07984 9.49311C7.05831 9.61029 7.03657 9.72744 7.01462 9.84453C6.99383 9.95465 6.97258 10.0647 6.95093 10.1746C6.93349 10.2625 6.91666 10.3452 6.91343 10.3583L6.90763 10.3823H7.13662V10.3823ZM8.12234 9.15109L8.03344 9.15646L7.97534 9.14614L7.91721 9.13588L7.85819 9.10895L7.79914 9.08199L7.75793 9.04263L7.71669 9.00329L7.69289 8.95004C7.67978 8.92075 7.66298 8.871 7.65552 8.83943L7.64195 8.78216L7.64738 8.69038L7.65285 8.59865L7.68027 8.45485C7.70097 8.34494 7.72105 8.23489 7.74046 8.12474C7.75848 8.02224 7.78581 7.87204 7.80113 7.79098L7.82899 7.64358L7.89003 7.59279C7.92363 7.5649 7.97681 7.52741 8.00826 7.5096L8.06538 7.47717L8.1399 7.45411L8.21446 7.43102L8.3103 7.42537L8.40614 7.41975L8.4842 7.43639L8.56223 7.453L8.61732 7.47837L8.67238 7.50373L8.71856 7.55016L8.76478 7.59659L8.78965 7.64579C8.80338 7.67284 8.82263 7.72575 8.83243 7.7634L8.85027 7.83185L8.8448 8.03421L8.83934 8.23658L8.81201 8.35618C8.79696 8.42196 8.76834 8.52259 8.74838 8.57977L8.71211 8.68384L8.66765 8.76804C8.6432 8.81437 8.60553 8.87696 8.58391 8.90711C8.56229 8.93727 8.52781 8.97645 8.50729 8.99401C8.48245 9.01514 8.45702 9.03553 8.43101 9.05515L8.39198 9.0843L8.30161 9.11503L8.21124 9.14577L8.12234 9.15109ZM10.3336 9.44385L10.4508 9.44521L10.5679 9.43452C10.6324 9.42865 10.7378 9.4164 10.8021 9.40728C10.8666 9.39822 10.9779 9.37789 11.0495 9.36217L11.1797 9.33352L11.1862 9.28549C11.1897 9.25915 11.2044 9.18056 11.2187 9.11092L11.2447 8.98425L11.2389 8.97854L11.2332 8.9728L11.1934 8.99199C11.1715 9.00255 11.1033 9.02779 11.0419 9.04803L10.9302 9.08479L10.8129 9.10754L10.6957 9.13023L10.5093 9.13063L10.323 9.13097L10.2591 9.11058C10.224 9.09937 10.1723 9.07886 10.1442 9.06495L10.0933 9.03974L10.0513 9.00175L10.0092 8.96374L9.97635 8.90641L9.94353 8.84901L9.92295 8.77709L9.90238 8.70512L9.90226 8.57197L9.9021 8.43882L9.92034 8.32007L9.93868 8.20126L10.0989 8.19377L10.2591 8.18628L10.8515 8.19011L11.4439 8.19389L11.4618 8.11804C11.4716 8.07631 11.4867 7.99005 11.4952 7.92637L11.5107 7.81054L11.5111 7.71313L11.5114 7.61569L11.4946 7.54298L11.4777 7.47023L11.4498 7.42211C11.4345 7.39564 11.4074 7.35726 11.3897 7.33681C11.3721 7.31639 11.3405 7.28755 11.3195 7.27281C11.2986 7.25807 11.2575 7.2332 11.2282 7.21763L11.175 7.18932L11.082 7.1669L10.9889 7.14451L10.8744 7.13355L10.7597 7.12262L10.6532 7.12956L10.5468 7.13647L10.4189 7.16103L10.2912 7.1856L10.2113 7.21751C10.1673 7.23501 10.1003 7.2671 10.0622 7.28869C10.0241 7.31027 9.97144 7.3454 9.94512 7.36672C9.91872 7.38809 9.87305 7.42964 9.84367 7.45902C9.81425 7.48841 9.7707 7.5412 9.747 7.57633C9.72323 7.61152 9.68681 7.67379 9.66599 7.71476C9.64523 7.75578 9.61818 7.8133 9.60586 7.84256C9.59361 7.87183 9.5712 7.93174 9.55621 7.97565C9.54116 8.01962 9.51752 8.10346 9.50373 8.16205C9.48745 8.23301 9.47339 8.30444 9.46157 8.3763L9.44456 8.48408L9.44474 8.64253L9.44492 8.80099L9.46108 8.8702C9.46995 8.90828 9.48702 8.96579 9.49888 8.99801C9.51073 9.03022 9.53278 9.07812 9.5478 9.1045C9.56281 9.13088 9.59484 9.17326 9.61898 9.19881C9.64308 9.22429 9.68684 9.26305 9.71614 9.28482C9.74537 9.30659 9.79751 9.3373 9.83194 9.35296L9.89455 9.38146L9.98185 9.40258C10.0298 9.41419 10.1023 9.42795 10.1429 9.43317C10.1833 9.43823 10.2692 9.44315 10.3336 9.44385ZM10.5342 7.94368C10.2394 7.94368 9.99819 7.9416 9.99819 7.93899C9.99819 7.93644 10.0108 7.89928 10.0262 7.85644C10.0415 7.81364 10.0685 7.74995 10.0861 7.71491L10.1182 7.65113L10.1886 7.58109L10.2591 7.51098L10.3283 7.47791C10.3664 7.4597 10.4167 7.43989 10.4401 7.43384C10.4636 7.42782 10.5306 7.41984 10.5892 7.41612L10.6957 7.40928L10.7775 7.41981L10.8593 7.43031L10.9187 7.45752L10.9782 7.48476L11.0108 7.51992C11.0287 7.53923 11.05 7.56773 11.0583 7.58314L11.0731 7.61127L11.0829 7.6737L11.0928 7.73607L11.0815 7.83989L11.0703 7.94378H10.5342V7.94368ZM13.7201 9.44391L13.8373 9.44521L13.9704 9.42942C14.0435 9.42076 14.1409 9.40639 14.1869 9.39745C14.2423 9.38631 14.2974 9.37323 14.3519 9.3583C14.3968 9.34559 14.4374 9.33186 14.4422 9.32781C14.4469 9.32372 14.4596 9.27542 14.4704 9.22042C14.4811 9.16543 14.4947 9.0917 14.5005 9.05654C14.5062 9.02138 14.5093 8.99076 14.5071 8.98846C14.505 8.98615 14.4972 8.98913 14.4897 8.99503C14.4822 9.00099 14.43 9.02297 14.3736 9.04391L14.2711 9.08199L14.125 9.11027L13.979 9.13856L13.8548 9.13435L13.7307 9.13011L13.6602 9.10561L13.5896 9.08113L13.5351 9.0335L13.4807 8.98582L13.4445 8.91995L13.4084 8.85414L13.3911 8.76604L13.3739 8.678L13.3741 8.56374L13.3741 8.44947L13.3951 8.31104L13.416 8.17255L13.4381 8.09799C13.4503 8.057 13.4641 8.00909 13.4688 7.99153C13.4734 7.97393 13.4929 7.92363 13.5121 7.87966C13.5313 7.83575 13.5656 7.76785 13.5883 7.72882L13.6295 7.65783L13.6801 7.60535L13.7307 7.55287L13.7843 7.51964L13.838 7.48638L13.9068 7.46516C13.9447 7.45353 14.0116 7.43836 14.0555 7.43157L14.1354 7.4191L14.2525 7.42497L14.3697 7.43083L14.5081 7.45853L14.6466 7.4862L14.7028 7.50723C14.7338 7.51875 14.7605 7.52827 14.7622 7.52827C14.7638 7.52827 14.7713 7.48872 14.7787 7.44038C14.7861 7.39211 14.7993 7.31258 14.808 7.26375C14.8168 7.21487 14.8218 7.1728 14.8192 7.17025C14.8166 7.16767 14.775 7.16107 14.7268 7.15554C14.6785 7.15007 14.5472 7.14031 14.4351 7.13383L14.2312 7.12213L14.0874 7.13312L13.9437 7.14418L13.8372 7.16653L13.7307 7.18892L13.6621 7.21634C13.6244 7.23142 13.5691 7.25865 13.5393 7.27686C13.5107 7.29425 13.4826 7.31236 13.455 7.33122C13.4384 7.34295 13.3882 7.38864 13.3433 7.43283L13.2618 7.51307L13.2162 7.57977C13.1912 7.61646 13.1479 7.69296 13.12 7.74976L13.0692 7.85307L13.0303 7.96484C13.009 8.02635 12.9791 8.12698 12.964 8.18849L12.9365 8.30032L12.9265 8.40151L12.9166 8.50269L12.9167 8.63578L12.9168 8.76886L12.9269 8.84631L12.9369 8.92376L12.9688 9.00341L13.0007 9.08307L13.0376 9.14064L13.0743 9.19822L13.1329 9.25589L13.1915 9.31353L13.2535 9.34633L13.3155 9.37903L13.3969 9.40166C13.4416 9.41407 13.5063 9.42835 13.5406 9.43335C13.575 9.43836 13.6557 9.44305 13.7202 9.44376H13.7201V9.44391ZM15.4718 9.43998L15.6156 9.43584L15.7061 9.41268L15.7966 9.38947L15.8552 9.36183C15.8874 9.34663 15.9401 9.31654 15.9723 9.29501C16.0045 9.27352 16.0544 9.23261 16.0831 9.20415C16.1118 9.17565 16.1544 9.12707 16.1778 9.09615C16.2011 9.06523 16.2216 9.04137 16.2233 9.04309C16.2251 9.04481 16.2197 9.094 16.2114 9.15247C16.2031 9.21097 16.1962 9.28875 16.1961 9.32538L16.1959 9.3919H16.5868L16.5928 9.2402L16.5987 9.08844L16.6266 8.89142C16.6419 8.78305 16.6667 8.62251 16.6817 8.53469C16.6966 8.44686 16.7226 8.29833 16.7394 8.20458C16.7562 8.11083 16.7828 7.96469 16.7985 7.87975L16.8271 7.72538L16.8281 7.59199L16.829 7.45859L16.7989 7.39696L16.7687 7.3353L16.7279 7.29606L16.6869 7.25678L16.6198 7.22282L16.5526 7.18879L16.4526 7.1665L16.3525 7.14421L16.2147 7.13377L16.077 7.12326L15.8995 7.13426C15.8018 7.14028 15.6645 7.15219 15.5943 7.16073L15.4665 7.17624L15.3794 7.17657L15.2923 7.17691L15.2796 7.23817C15.2726 7.27183 15.2532 7.35182 15.2366 7.41597C15.2198 7.48009 15.2078 7.5341 15.2096 7.53598C15.2115 7.53785 15.2581 7.52729 15.3131 7.51249C15.3682 7.49765 15.4851 7.47333 15.573 7.45832L15.7327 7.43111L15.8765 7.42521L16.0202 7.41929L16.1129 7.43553L16.2055 7.45175L16.2673 7.48224L16.3291 7.51276L16.3637 7.56435L16.3983 7.61594L16.3978 7.69722L16.3973 7.77857L16.379 7.86777L16.3606 7.95704L15.9774 7.95842L15.5942 7.95978L15.4688 7.99417C15.3999 8.01308 15.3235 8.0382 15.2991 8.04993C15.2747 8.06176 15.2504 8.0714 15.2449 8.0714C15.2395 8.0714 15.1985 8.09409 15.1538 8.12194L15.0724 8.17246L15.0084 8.23639C14.9732 8.27158 14.9282 8.32428 14.9084 8.35357C14.8886 8.38284 14.8565 8.44401 14.837 8.48952L14.8016 8.57221L14.7853 8.6652L14.769 8.75818V8.95333L14.7846 9.03458L14.8001 9.11583L14.8289 9.1688C14.8448 9.19791 14.8739 9.24063 14.8936 9.26366L14.9295 9.30555L14.9931 9.34424L15.0568 9.38296L15.1297 9.40353C15.1698 9.41486 15.2309 9.42862 15.2654 9.43412L15.3281 9.44398L15.4719 9.43986H15.4718V9.43998ZM15.6049 9.14215L15.5198 9.14663L15.4633 9.13223C15.4323 9.12434 15.3852 9.10674 15.3587 9.09311L15.3105 9.0683L15.2842 9.03701C15.2697 9.01975 15.2476 8.986 15.235 8.96189L15.2122 8.91804L15.2078 8.81569L15.2033 8.71331L15.2213 8.65122C15.2312 8.61711 15.2545 8.55778 15.2731 8.51952L15.3068 8.4499L15.3714 8.38582L15.436 8.3217L15.5045 8.28869L15.573 8.25574L15.6582 8.23547L15.7434 8.2152H16.2759L16.2927 8.2222L16.3096 8.22914L16.2954 8.31276C16.2876 8.3587 16.269 8.44183 16.254 8.49747C16.2392 8.55314 16.2128 8.63492 16.1955 8.67923C16.1782 8.72357 16.1641 8.76279 16.1641 8.76632C16.1641 8.76991 16.1466 8.80218 16.1252 8.83811L16.0863 8.90343L16.0224 8.96672C15.9873 9.00148 15.9547 9.02994 15.95 9.02994C15.9453 9.02994 15.9238 9.04198 15.9021 9.0566L15.8629 9.08319L15.7765 9.11055L15.6902 9.13785L15.6049 9.14215ZM19.0712 9.44376L19.1724 9.44505L19.2683 9.42948C19.321 9.42095 19.3881 9.40716 19.4173 9.39887C19.4466 9.39055 19.4994 9.36908 19.5344 9.35109L19.5984 9.31835L19.6533 9.26996L19.7083 9.22156L19.7662 9.14439C19.798 9.10192 19.8269 9.06001 19.8302 9.05119L19.8364 9.03519L19.831 9.08844C19.8272 9.12409 19.8223 9.15959 19.8163 9.19497C19.8111 9.22423 19.8038 9.28055 19.8 9.32007L19.7929 9.39193H20.2107V9.24818L20.2425 8.9766C20.26 8.82724 20.2859 8.62841 20.3 8.53466C20.3142 8.44091 20.336 8.30681 20.3486 8.23651C20.361 8.16622 20.3833 8.03919 20.3978 7.95431C20.4124 7.8694 20.4388 7.72081 20.4564 7.6242C20.474 7.52753 20.5022 7.37418 20.5191 7.28344C20.5359 7.19263 20.5621 7.05122 20.5773 6.96926C20.5924 6.88731 20.6196 6.74347 20.6376 6.64981C20.6565 6.55204 20.676 6.45442 20.6961 6.35695C20.7103 6.28964 20.7219 6.23089 20.7218 6.2265V6.21849H20.266L20.2593 6.28506C20.2556 6.32167 20.2381 6.44266 20.2205 6.55397C20.1996 6.68537 20.1784 6.81671 20.1567 6.94795C20.1441 7.02368 20.1316 7.0994 20.1192 7.17516L20.1135 7.21063L20.0955 7.20301C20.0856 7.19881 20.032 7.18391 19.9764 7.16994L19.8752 7.14454L19.7368 7.13374L19.5983 7.12296L19.4812 7.13383L19.3641 7.14476L19.2576 7.17169L19.1511 7.19859L19.0499 7.24794L18.9487 7.29728L18.8742 7.35241L18.7996 7.40759L18.7352 7.47668C18.6998 7.5146 18.6487 7.57743 18.6216 7.61619L18.5723 7.68672L18.5144 7.80716C18.4826 7.87342 18.4438 7.96116 18.4283 8.00215C18.4128 8.04318 18.3854 8.13404 18.3675 8.20412L18.3349 8.33155L18.3188 8.49701L18.3028 8.66243L18.3148 8.79552L18.327 8.92867L18.3412 8.97657C18.3491 9.00292 18.3656 9.0499 18.3779 9.08089L18.4004 9.13739L18.4414 9.19285L18.4824 9.24837L18.5292 9.28669L18.576 9.32504L18.6399 9.3568C18.6751 9.37418 18.734 9.39678 18.7709 9.40688C18.8078 9.41698 18.8677 9.42914 18.904 9.43384C18.9404 9.43863 19.0156 9.44309 19.0712 9.44376ZM19.2528 9.14169L19.1724 9.1459L19.1182 9.13616C19.0883 9.13079 19.0406 9.11635 19.012 9.10413L18.9601 9.08193L18.9165 9.04613L18.8728 9.01038L18.8404 8.94826L18.808 8.88617L18.7932 8.81695L18.7784 8.74771L18.7797 8.60928L18.7809 8.47085L18.7981 8.34835L18.8153 8.22592L18.8419 8.14077C18.8567 8.09391 18.8687 8.04966 18.8688 8.04247C18.8689 8.03535 18.8833 7.99702 18.901 7.95735C18.9216 7.91144 18.9434 7.86606 18.9664 7.82128C18.9848 7.78612 19.0191 7.73137 19.0427 7.69953C19.0663 7.66774 19.1083 7.61981 19.1361 7.593C19.1638 7.56632 19.208 7.53116 19.2342 7.51503L19.2819 7.48571L19.3656 7.45675L19.4493 7.42776L19.6251 7.42767H19.8008L19.9019 7.45577C19.9576 7.47118 20.0167 7.48909 20.0332 7.49554L20.0633 7.50727L20.0575 7.53647C20.0543 7.55256 20.0416 7.62322 20.0294 7.69348C20.0171 7.76377 19.993 7.89796 19.9758 7.99168C19.9585 8.0854 19.9321 8.22678 19.9169 8.30582C19.9018 8.38486 19.8799 8.48552 19.8683 8.5294C19.8563 8.57455 19.8441 8.61962 19.8318 8.66461C19.8233 8.69504 19.8032 8.7478 19.7871 8.78176C19.771 8.81573 19.7428 8.86513 19.7244 8.89145C19.706 8.9178 19.675 8.95437 19.6554 8.97261C19.6358 8.99091 19.5934 9.02334 19.5612 9.04474L19.5027 9.08371L19.418 9.11058L19.3333 9.13745L19.2528 9.14169ZM3.58016 9.39193H3.83887L3.85745 9.27748C3.86765 9.2145 3.88761 9.09348 3.90176 9.00857L3.96032 8.65715C3.97838 8.54878 4.00546 8.38824 4.02048 8.30042C4.0355 8.21256 4.05939 8.07628 4.07351 7.99761C4.08767 7.91884 4.10195 7.85175 4.1052 7.84849L4.11119 7.84253H5.50265L5.51039 7.85027L5.51813 7.85801L5.50603 7.91949C5.49943 7.95333 5.47981 8.05761 5.46246 8.15136C5.44511 8.24508 5.41594 8.4032 5.3976 8.50281C5.37835 8.60759 5.35876 8.71227 5.33883 8.81692C5.32476 8.89013 5.29633 9.04345 5.27563 9.15769C5.25497 9.27189 5.23808 9.37132 5.23814 9.37866L5.23826 9.39196H5.75787L5.76935 9.32544C5.77571 9.28884 5.78584 9.22294 5.79198 9.179C5.79806 9.13506 5.81283 9.04155 5.82472 8.97132C5.8366 8.90106 5.86034 8.76205 5.87751 8.66249C5.89464 8.56294 5.92338 8.39279 5.94132 8.28442C5.95925 8.17605 5.98584 8.01791 6.00046 7.93303C6.01895 7.82641 6.0382 7.71992 6.05819 7.61358C6.07536 7.52277 6.10398 7.36945 6.12179 7.27275C6.1396 7.17614 6.16622 7.03 6.18102 6.94795C6.19582 6.86596 6.22278 6.7174 6.24096 6.61784C6.25914 6.51829 6.28208 6.40212 6.29194 6.35959L6.30987 6.28239H5.78375L5.7766 6.333C5.7727 6.36076 5.75999 6.43866 5.74838 6.50604C5.73674 6.57338 5.71567 6.69317 5.70149 6.77224C5.6873 6.85135 5.66138 7.00228 5.64388 7.10773C5.62671 7.211 5.61019 7.31436 5.59432 7.41787L5.57657 7.53628L5.19042 7.54411L4.80424 7.55191L4.48082 7.54424C4.30293 7.54003 4.15639 7.53573 4.15517 7.53472C4.15397 7.53367 4.16002 7.49231 4.16861 7.44275C4.17995 7.37885 4.19201 7.3151 4.20482 7.25147C4.22116 7.16991 4.23703 7.08826 4.25242 7.00648C4.26731 6.92744 4.28414 6.82924 4.28988 6.78821C4.29559 6.74725 4.3076 6.67892 4.31653 6.63645C4.32547 6.59401 4.34242 6.50456 4.35421 6.43771C4.36597 6.37083 4.37853 6.30852 4.38213 6.29928L4.38858 6.28236H3.8667L3.85002 6.37556C3.84081 6.42681 3.82856 6.49986 3.82278 6.53794C3.81698 6.57599 3.79754 6.69821 3.77958 6.80949C3.76161 6.92078 3.73508 7.08611 3.72062 7.17688L3.66218 7.54427C3.64164 7.67226 3.61996 7.80003 3.5972 7.92762C3.57826 8.0324 3.55894 8.13711 3.53926 8.24177C3.52541 8.315 3.49903 8.45396 3.48061 8.55062C3.46129 8.6519 3.44136 8.75308 3.42088 8.85414C3.40645 8.9244 3.39051 9.00587 3.38547 9.03516C3.38038 9.06443 3.36392 9.14894 3.34881 9.22288C3.33373 9.29679 3.32139 9.36509 3.32139 9.37461V9.39187H3.58016V9.39193ZM6.44453 9.39193H6.67357L6.68002 9.3751C6.68362 9.36579 6.6865 9.3415 6.6865 9.32111C6.6865 9.30066 6.70094 9.19441 6.7185 9.08503C6.7587 8.83575 6.79988 8.58664 6.84207 8.33767C6.86016 8.23277 6.87916 8.12805 6.89915 8.02353C6.9161 7.9357 6.94215 7.79908 6.95701 7.72007C6.97184 7.641 7.00107 7.49056 7.02192 7.38572C7.04277 7.28095 7.06243 7.19101 7.06559 7.18588L7.07139 7.17651L6.83977 7.17937L6.60814 7.18222L6.58879 7.32072C6.57823 7.39684 6.55501 7.54783 6.53726 7.65614C6.51954 7.76447 6.49271 7.92987 6.47763 8.02353C6.45939 8.13555 6.43992 8.24738 6.41928 8.35901C6.40224 8.44978 6.37614 8.58873 6.36125 8.66781C6.34638 8.74691 6.3197 8.88589 6.30195 8.97666C6.2842 9.06747 6.2604 9.18726 6.24904 9.2429C6.23765 9.29857 6.22546 9.35486 6.22189 9.36804L6.21548 9.39196H6.44453V9.39193ZM11.8018 9.39193H12.0291L12.036 9.29572C12.0398 9.24284 12.0526 9.13619 12.0646 9.05878C12.0766 8.98136 12.1011 8.827 12.1191 8.71574C12.1418 8.57817 12.1665 8.44094 12.1933 8.30407C12.2162 8.18898 12.242 8.07456 12.2508 8.04984C12.2595 8.02512 12.2666 7.99831 12.2666 7.99033C12.2666 7.98225 12.2837 7.93853 12.3046 7.89314C12.3255 7.84772 12.3644 7.7782 12.3911 7.73862L12.4397 7.66664L12.5046 7.60645L12.5696 7.54633L12.6497 7.50806L12.7298 7.46977L12.8523 7.47042L12.9747 7.47106L13.0349 7.48902C13.068 7.49891 13.098 7.50702 13.1015 7.50702C13.105 7.50702 13.1078 7.49572 13.1078 7.48187C13.1078 7.46808 13.1198 7.39795 13.1344 7.32603C13.1491 7.25414 13.1611 7.1923 13.1611 7.18858C13.1611 7.18486 13.1263 7.17126 13.0839 7.15836C13.0414 7.14547 12.9827 7.13195 12.9534 7.1283L12.9002 7.12173L12.831 7.13395C12.7929 7.14071 12.7363 7.15554 12.7052 7.16699C12.674 7.17845 12.6226 7.20436 12.5909 7.22463C12.5593 7.2449 12.51 7.28439 12.4815 7.31236C12.4529 7.34037 12.4049 7.39684 12.3747 7.43784C12.3513 7.46968 12.3279 7.50165 12.3047 7.53367L12.2895 7.55495L12.2987 7.51236C12.3038 7.4889 12.318 7.41222 12.3302 7.34196C12.3424 7.27167 12.3551 7.20575 12.3581 7.19555L12.3638 7.17688H11.9577V7.20258C11.9577 7.21668 11.9457 7.30174 11.9311 7.39156C11.9164 7.48147 11.8922 7.63157 11.8774 7.72532C11.8626 7.81904 11.8361 7.98195 11.8188 8.0874C11.8002 8.19936 11.7807 8.3112 11.7601 8.42282C11.72 8.63599 11.679 8.84898 11.6371 9.06179C11.6192 9.15259 11.5977 9.25976 11.5894 9.30008C11.5811 9.34031 11.5744 9.37743 11.5744 9.38256V9.39193H11.8018ZM17.199 9.39193H17.4315V9.24963L17.4582 9.07318C17.473 8.97617 17.4973 8.82245 17.5123 8.73171C17.5273 8.64091 17.5459 8.52594 17.5538 8.4761C17.5616 8.42635 17.5824 8.31853 17.5999 8.23654C17.6175 8.15449 17.6394 8.06587 17.6486 8.03952C17.6579 8.01318 17.6655 7.98548 17.6656 7.97805C17.6657 7.97062 17.6855 7.92277 17.7097 7.87174L17.7535 7.77894L17.8115 7.70198L17.8694 7.62509L17.9327 7.57746C17.9675 7.55124 18.0236 7.51654 18.0572 7.5002L18.1184 7.47057L18.2515 7.47146L18.3846 7.47241L18.437 7.48921L18.4894 7.50607L18.4982 7.50057L18.507 7.4951L18.5076 7.46114C18.5078 7.44247 18.5192 7.37292 18.5328 7.30659L18.5578 7.18603L18.5298 7.1751C18.5029 7.16518 18.4758 7.15594 18.4485 7.1474L18.3953 7.1306L18.2995 7.13088L18.2036 7.13113L18.1255 7.15864L18.0474 7.18609L17.9887 7.22147L17.9301 7.25684L17.8539 7.33671L17.7776 7.41659L17.7367 7.47855C17.7141 7.51261 17.6943 7.53899 17.6926 7.53711C17.6908 7.53524 17.7031 7.46424 17.7198 7.37934C17.7365 7.29437 17.7503 7.2141 17.7506 7.20092L17.7511 7.17694H17.357V7.18376C17.357 7.18747 17.3472 7.2558 17.3352 7.33549C17.3232 7.41526 17.2991 7.56911 17.2817 7.67748C17.2607 7.8071 17.2395 7.93665 17.218 8.06618C17.1994 8.17814 17.1797 8.28998 17.1592 8.40163C17.1444 8.48067 17.1182 8.61969 17.1009 8.71046C17.0836 8.80126 17.0551 8.94743 17.0377 9.03529L16.9863 9.29348L16.9666 9.39196H17.199V9.39193ZM6.89501 6.79334L6.95962 6.79358L7.01102 6.77608L7.06246 6.75858L7.10794 6.71242L7.15345 6.6663L7.17737 6.60479L7.20135 6.54332L7.20218 6.45279L7.20304 6.36232L7.18176 6.32698L7.16045 6.29163L7.12338 6.26873L7.08629 6.24576H6.92618L6.87167 6.27017L6.81716 6.29452L6.78554 6.32842L6.75391 6.36232L6.72903 6.42091L6.70419 6.47944L6.69949 6.57068L6.69482 6.66191L6.71792 6.7073L6.74107 6.75262L6.78572 6.77289L6.83034 6.79312L6.89501 6.79334Z" fill="#B3131B"/>
</g>
<defs>
<clipPath id="clip0_3242_62078">
<rect width="24" height="15.3846" fill="white" transform="translate(0 0.384613)"/>
</clipPath>
</defs>
</svg>
