<svg width="24" height="16" viewBox="0 0 24 16" fill="none" xmlns="http://www.w3.org/2000/svg"><path d="M9.360 0.561 C 3.301 0.580,1.097 0.599,0.975 0.634 C 0.845 0.671,0.761 0.740,0.571 0.970 C 0.439 1.130,0.257 1.366,0.166 1.497 L 0.000 1.733 -0.000 8.090 L -0.000 14.446 0.186 14.687 C 0.437 15.014,0.893 15.465,1.114 15.605 L 1.296 15.720 11.954 15.720 L 22.612 15.720 22.876 15.573 C 23.443 15.256,23.795 14.738,23.878 14.100 C 23.942 13.607,23.999 9.497,24.000 5.404 L 24.000 1.707 23.839 1.494 C 23.751 1.377,23.515 1.110,23.315 0.901 L 22.951 0.520 20.265 0.527 C 18.788 0.532,13.881 0.547,9.360 0.561 M8.941 4.646 C 9.117 4.801,9.200 4.955,9.200 5.128 C 9.200 5.407,8.918 5.672,8.679 5.620 C 8.435 5.566,8.191 5.133,8.277 4.908 C 8.318 4.801,8.656 4.520,8.744 4.520 C 8.773 4.520,8.862 4.577,8.941 4.646 M3.805 4.720 L 4.280 4.720 4.281 5.650 C 4.281 6.162,4.292 6.620,4.305 6.670 L 4.329 6.760 5.300 6.760 L 6.270 6.760 6.295 6.635 C 6.309 6.566,6.320 6.107,6.320 5.615 L 6.320 4.720 6.830 4.719 C 7.111 4.719,7.380 4.708,7.430 4.695 L 7.520 4.671 7.520 7.375 L 7.520 10.080 6.920 10.080 L 6.320 10.080 6.320 9.266 C 6.320 8.818,6.308 8.314,6.294 8.146 L 6.268 7.840 5.300 7.840 L 4.331 7.840 4.305 8.026 C 4.291 8.128,4.280 8.632,4.280 9.146 L 4.280 10.080 3.680 10.080 L 3.080 10.080 3.080 7.375 L 3.080 4.670 3.205 4.695 C 3.274 4.709,3.544 4.720,3.805 4.720 M12.668 6.219 C 12.840 6.274,13.074 6.382,13.189 6.459 C 13.916 6.951,14.165 8.092,13.741 8.989 C 13.410 9.690,12.805 10.032,11.765 10.104 L 11.369 10.131 11.345 10.275 C 11.332 10.355,11.321 10.695,11.320 11.030 L 11.320 11.640 10.720 11.640 L 10.120 11.640 10.118 11.070 C 10.116 10.757,10.103 10.428,10.087 10.340 L 10.059 10.180 9.659 10.038 C 9.140 9.853,8.952 9.752,8.754 9.554 C 8.391 9.191,8.260 8.642,8.160 7.061 C 8.138 6.709,8.120 6.363,8.120 6.291 L 8.120 6.160 8.760 6.160 L 9.400 6.160 9.400 7.436 L 9.400 8.712 9.545 8.839 C 9.749 9.018,9.948 9.108,10.007 9.049 C 10.090 8.966,10.114 8.603,10.117 7.370 L 10.120 6.160 10.615 6.160 L 11.110 6.160 11.135 6.285 C 11.149 6.354,11.160 6.471,11.160 6.545 L 11.160 6.679 11.370 6.545 C 11.751 6.302,12.121 6.132,12.288 6.123 C 12.325 6.122,12.496 6.165,12.668 6.219 M20.694 6.178 C 20.730 6.272,20.809 7.078,20.788 7.133 C 20.777 7.161,20.645 7.233,20.494 7.293 C 20.132 7.438,19.915 7.590,19.832 7.761 C 19.747 7.933,19.680 8.707,19.680 9.506 L 19.680 10.080 19.080 10.080 L 18.480 10.080 18.480 8.510 C 18.480 7.646,18.468 6.765,18.454 6.550 L 18.428 6.160 18.954 6.160 L 19.480 6.160 19.481 6.370 C 19.482 6.725,19.498 6.727,19.987 6.432 C 20.542 6.096,20.648 6.058,20.694 6.178 M16.674 6.242 C 17.127 6.315,17.477 6.563,17.674 6.949 C 17.785 7.166,17.908 7.600,17.981 8.036 C 18.033 8.346,18.035 8.421,17.992 8.463 C 17.956 8.498,17.597 8.534,16.840 8.579 C 16.235 8.615,15.708 8.653,15.670 8.665 C 15.608 8.683,15.606 8.695,15.654 8.764 C 15.685 8.807,15.810 8.921,15.934 9.017 L 16.158 9.191 16.609 9.219 C 17.254 9.258,17.567 9.311,17.655 9.398 C 17.746 9.488,17.810 9.799,17.752 9.870 C 17.682 9.954,17.323 10.040,16.832 10.089 C 16.419 10.130,16.330 10.127,16.068 10.066 C 15.296 9.884,14.764 9.426,14.577 8.780 C 14.484 8.461,14.484 7.897,14.577 7.580 C 14.671 7.259,14.872 6.937,15.129 6.696 C 15.608 6.245,15.994 6.132,16.674 6.242 M15.889 7.118 C 15.690 7.262,15.558 7.494,15.631 7.567 C 15.735 7.671,16.585 7.717,16.760 7.628 C 16.911 7.552,16.905 7.453,16.739 7.297 C 16.558 7.126,16.415 7.050,16.214 7.018 C 16.083 6.997,16.034 7.012,15.889 7.118 M11.639 7.281 C 11.435 7.500,11.321 8.046,11.320 8.810 L 11.320 9.160 11.493 9.160 C 11.744 9.160,12.115 9.084,12.284 8.998 C 12.445 8.916,12.626 8.720,12.688 8.562 C 12.745 8.415,12.738 7.929,12.675 7.720 C 12.604 7.481,12.383 7.265,12.149 7.206 C 11.858 7.133,11.764 7.147,11.639 7.281 " fill="#F37421" stroke="none" fill-rule="evenodd"></path></svg>