<svg width="24" height="16" viewBox="0 0 24 16" fill="none" xmlns="http://www.w3.org/2000/svg"><path d="M14.620 0.483 C 8.356 0.517,2.353 0.589,1.599 0.639 C 1.196 0.665,1.039 0.693,0.898 0.761 C 0.671 0.871,0.346 1.204,0.150 1.527 L 0.000 1.775 0.000 8.114 L 0.000 14.453 0.161 14.661 C 0.376 14.940,1.074 15.614,1.233 15.696 C 1.350 15.757,2.215 15.761,12.085 15.751 L 22.811 15.740 23.311 15.220 C 23.586 14.934,23.855 14.633,23.909 14.552 L 24.008 14.404 23.994 8.049 L 23.980 1.694 23.876 1.537 C 23.818 1.451,23.569 1.169,23.322 0.910 L 22.872 0.440 21.466 0.447 C 20.693 0.451,17.612 0.467,14.620 0.483 " fill="white" stroke="none" fill-rule="evenodd"></path></svg>