<svg width="24" height="16" viewBox="0 0 24 16" fill="none" xmlns="http://www.w3.org/2000/svg">
<g clip-path="url(#clip0_3242_62070)">
<path d="M22.286 0.384613H1.71364C0.781337 0.384613 0.0244141 1.14154 0.0244141 2.07384V14.08C0.0244141 15.0123 0.781337 15.7692 1.71364 15.7692H22.289C23.2213 15.7692 23.9783 15.0123 23.9783 14.08V2.07384C23.9752 1.14154 23.2183 0.384613 22.286 0.384613Z" fill="#F37421"/>
<path d="M3.07715 4.68924V10.0739H4.29869V7.82155H6.30484V10.0739H7.52023V4.68924H6.30484V6.76001H4.29869V4.68924H3.07715Z" fill="white"/>
<path d="M18.0371 8.50769C18.0525 8.41846 18.0771 8.23692 18.0771 8.02769C18.0771 7.06153 17.5971 6.07692 16.3356 6.07692C14.9787 6.07692 14.3633 7.1723 14.3633 8.16307C14.3633 9.38461 15.1233 10.1538 16.4494 10.1538C16.9756 10.1538 17.4648 10.0738 17.8648 9.91384L17.7048 9.0923C17.3787 9.19692 17.0402 9.2523 16.6248 9.2523C16.0587 9.2523 15.5633 9.0123 15.5233 8.51077H18.0371V8.50769ZM15.511 7.67692C15.5417 7.35077 15.751 6.88615 16.2617 6.88615C16.8217 6.88615 16.9479 7.38153 16.9479 7.67692H15.511Z" fill="white"/>
<path d="M18.4649 10.0738H19.6802V8.09231C19.6802 7.99692 19.6895 7.90154 19.7049 7.82154C19.7849 7.44616 20.0895 7.20616 20.5356 7.20616C20.671 7.20616 20.7756 7.22154 20.8618 7.23692V6.09539C20.7725 6.08 20.7172 6.08 20.6064 6.08C20.231 6.08 19.751 6.32 19.551 6.88616H19.5202L19.4802 6.16616H18.4341C18.4495 6.50154 18.4649 6.87692 18.4649 7.45231V10.0738Z" fill="white"/>
<path fill-rule="evenodd" clip-rule="evenodd" d="M8.75401 4.47385C9.09862 4.47385 9.37862 4.75385 9.37862 5.09846C9.37862 5.44308 9.09862 5.72308 8.75401 5.72308C8.40939 5.72308 8.12939 5.44308 8.12939 5.09846C8.12939 4.75385 8.40939 4.47385 8.75401 4.47385Z" fill="#FFE700"/>
<path fill-rule="evenodd" clip-rule="evenodd" d="M11.3202 9.16307H11.9294C12.5417 9.16307 12.8186 8.7723 12.8186 8.36307C12.8186 7.95384 12.7879 7.03077 12.034 7.03077C11.1663 7.03077 11.3048 8.17846 11.3109 8.77846C11.3079 8.90769 11.3171 9.03692 11.3202 9.16307ZM8.12939 6.16307H9.37862V8.36615C9.37862 8.77538 9.60632 9.16615 10.1079 9.16615C10.1109 8.17538 10.1079 7.15384 10.074 6.16307H11.1171C11.1386 6.35384 11.1602 6.54461 11.1786 6.73538C11.6709 5.75077 13.2248 5.96615 13.7479 6.8C14.2863 7.65846 14.4709 10.12 11.9294 10.12H11.3386C11.3448 10.6185 11.3448 11.12 11.3448 11.6215H10.0955C10.0955 11.1415 10.0986 10.6369 10.1017 10.12C8.75093 10.1138 8.12939 9.25846 8.12939 8.36615V6.16307Z" fill="white"/>
</g>
<defs>
<clipPath id="clip0_3242_62070">
<rect width="24" height="15.3846" fill="white" transform="translate(0 0.384613)"/>
</clipPath>
</defs>
</svg>
