<svg width="24" height="17" viewBox="0 0 24 17" fill="none" xmlns="http://www.w3.org/2000/svg"><path d="M16.280 0.827 C 12.115 0.839,3.442 0.920,2.066 0.960 C 0.646 1.002,0.635 1.004,0.255 1.390 L 0.040 1.609 0.040 8.431 L 0.040 15.253 0.198 15.462 C 0.409 15.742,0.664 15.945,0.882 16.006 C 1.022 16.046,3.182 16.059,11.080 16.070 C 20.889 16.083,22.808 16.065,23.180 15.957 C 23.291 15.925,23.438 15.814,23.670 15.588 L 24.000 15.266 23.996 11.183 C 23.994 8.937,23.978 5.921,23.962 4.480 C 23.928 1.403,23.964 1.649,23.468 1.132 L 23.149 0.800 21.064 0.810 C 19.918 0.815,17.765 0.823,16.280 0.827 M19.427 3.570 C 19.412 4.037,19.389 6.256,19.375 8.500 L 19.349 12.580 19.205 12.780 C 18.901 13.200,18.289 13.803,17.901 14.066 L 17.701 14.200 11.125 14.200 L 4.549 14.200 4.576 12.530 C 4.648 8.060,4.731 5.089,4.800 4.513 C 4.851 4.088,4.958 3.888,5.328 3.522 C 5.766 3.088,6.015 2.962,6.513 2.919 C 7.244 2.857,13.846 2.747,18.056 2.727 L 19.453 2.720 19.427 3.570 M12.839 3.522 C 11.517 3.584,11.122 3.661,10.701 3.941 C 10.442 4.113,10.323 4.255,10.184 4.562 C 10.045 4.866,10.005 5.170,9.975 6.160 C 9.951 6.912,9.956 7.027,10.010 7.072 C 10.062 7.115,10.154 7.112,10.526 7.055 C 10.853 7.006,11.249 6.985,11.940 6.983 C 12.954 6.980,13.324 7.010,13.417 7.102 C 13.472 7.157,13.578 7.556,13.546 7.588 C 13.537 7.596,13.379 7.585,13.195 7.561 C 13.011 7.538,12.586 7.507,12.252 7.493 L 11.644 7.468 11.492 7.583 C 11.107 7.875,10.985 8.083,10.987 8.441 C 10.989 8.881,11.275 9.350,11.594 9.439 C 11.674 9.461,12.150 9.480,12.650 9.480 L 13.560 9.480 13.560 9.602 C 13.560 9.885,13.247 10.001,12.260 10.083 C 11.554 10.142,11.244 10.118,10.616 9.957 C 10.159 9.840,10.108 9.835,10.051 9.892 C 9.996 9.946,9.986 10.183,9.968 11.697 L 9.949 13.440 10.649 13.440 C 11.476 13.440,12.267 13.384,12.669 13.297 C 13.036 13.218,13.325 13.029,13.734 12.601 L 14.040 12.281 14.040 7.880 L 14.040 3.480 13.750 3.486 C 13.591 3.490,13.181 3.506,12.839 3.522 M7.900 3.564 C 7.504 3.581,7.049 3.614,6.889 3.638 C 6.318 3.720,5.829 4.078,5.591 4.587 C 5.468 4.850,5.466 4.862,5.431 5.757 C 5.380 7.088,5.405 9.031,5.476 9.169 C 5.573 9.358,6.111 9.476,6.888 9.479 L 7.276 9.480 7.377 9.347 C 7.433 9.274,7.505 9.140,7.537 9.049 C 7.615 8.826,7.680 8.100,7.680 7.430 L 7.680 6.880 8.380 6.880 L 9.080 6.880 9.080 7.030 C 9.079 7.328,8.959 8.875,8.921 9.075 C 8.867 9.358,8.796 9.480,8.560 9.692 C 8.324 9.904,8.106 9.987,7.637 10.041 C 7.041 10.109,5.844 10.074,5.464 9.978 L 5.348 9.948 5.370 11.603 L 5.392 13.257 5.486 13.333 C 5.575 13.405,5.640 13.408,6.660 13.389 C 8.170 13.360,8.391 13.309,8.847 12.887 C 9.191 12.569,9.276 12.401,9.323 11.953 C 9.375 11.452,9.438 7.965,9.439 5.510 L 9.440 3.520 9.030 3.526 C 8.805 3.529,8.296 3.546,7.900 3.564 M16.446 3.563 C 16.004 3.620,15.769 3.682,15.531 3.802 C 15.228 3.954,14.828 4.316,14.726 4.530 C 14.617 4.757,14.560 5.321,14.560 6.158 L 14.560 6.840 15.800 6.840 L 17.040 6.840 17.040 5.180 L 17.040 3.520 16.870 3.525 C 16.777 3.528,16.586 3.545,16.446 3.563 M15.387 7.387 C 15.372 7.401,15.360 7.584,15.360 7.792 L 15.360 8.171 15.670 8.148 C 15.841 8.136,16.072 8.097,16.184 8.063 C 16.384 8.002,16.600 7.845,16.600 7.761 C 16.600 7.677,16.337 7.561,15.919 7.462 C 15.458 7.351,15.426 7.347,15.387 7.387 M15.360 9.103 L 15.360 9.532 15.750 9.506 C 16.238 9.473,16.401 9.428,16.557 9.283 C 16.792 9.064,16.689 8.929,16.188 8.803 C 16.030 8.763,15.778 8.717,15.630 8.702 L 15.360 8.674 15.360 9.103 M14.560 11.740 L 14.560 13.400 15.800 13.400 L 17.040 13.400 17.040 11.740 L 17.040 10.080 15.800 10.080 L 14.560 10.080 14.560 11.740 " fill="#0E4C96" stroke="none" fill-rule="evenodd"></path></svg>