<svg width="24" height="17" viewBox="0 0 24 17" fill="none" xmlns="http://www.w3.org/2000/svg">
<g clip-path="url(#clip0_3242_62081)">
<path d="M1.23077 0.769226H22.7692C23.449 0.769226 24 1.32027 24 2V14.9231C24 15.6028 23.449 16.1538 22.7692 16.1538H1.23077C0.551046 16.1538 0 15.6028 0 14.9231V2C0 1.32027 0.551046 0.769226 1.23077 0.769226Z" fill="#0E4C96"/>
<path d="M19.4538 11.8852C19.4538 13.1657 18.416 14.204 17.135 14.204H4.54639V5.03845C4.54639 3.75765 5.58433 2.71938 6.86531 2.71938L19.4536 2.71935L19.4536 11.8852L19.4538 11.8852Z" fill="white"/>
<path d="M15.3497 8.66276C15.7092 8.67055 16.0709 8.64688 16.429 8.67507C16.7917 8.74273 16.8791 9.29178 16.5569 9.47162C16.3371 9.59012 16.0759 9.51572 15.8375 9.53664H15.3498L15.3497 8.66276ZM16.6369 7.67368C16.7168 7.95565 16.445 8.20882 16.1733 8.16999H15.3497C15.3554 7.90408 15.3384 7.6155 15.3581 7.36359C15.6881 7.37285 16.0211 7.34464 16.3491 7.37833C16.4901 7.41375 16.608 7.52962 16.6369 7.67368ZM18.6193 3.49215C18.6346 4.03064 18.6215 4.59759 18.6259 5.14701C18.6248 7.38073 18.6281 9.61439 18.6242 11.8482C18.6097 12.6854 17.8678 13.4127 17.0365 13.4294C16.2043 13.4328 15.372 13.4299 14.5398 13.4308V10.0539C15.4466 10.0492 16.3539 10.0633 17.2603 10.0468C17.6808 10.0203 18.1413 9.74292 18.1609 9.28018C18.2105 8.81547 17.7723 8.49399 17.3563 8.44322C17.1963 8.43907 17.2011 8.39658 17.3563 8.37808C17.7529 8.29233 18.0646 7.88168 17.9478 7.47042C17.8483 7.03787 17.3702 6.87045 16.9725 6.87129C16.1617 6.86575 15.3507 6.87049 14.5399 6.86892C14.5451 6.23849 14.529 5.60738 14.5487 4.97741C14.6129 4.15538 15.3735 3.4775 16.1932 3.49218L18.6193 3.49215Z" fill="url(#paint0_linear_3242_62081)"/>
<path d="M5.37652 5.06276C5.39726 4.22698 6.14233 3.5055 6.97267 3.49332C7.80172 3.49076 8.63085 3.49295 9.45996 3.49221C9.45769 6.28867 9.46452 9.08544 9.45652 11.8817C9.42458 12.7074 8.68759 13.4151 7.86639 13.4297C7.03575 13.4327 6.20501 13.4301 5.37433 13.431V9.94021C6.18119 10.1308 7.02732 10.212 7.85042 10.0855C8.34252 10.0063 8.88082 9.76473 9.04741 9.25427C9.17006 8.81762 9.10101 8.35808 9.11922 7.90993V6.86919H7.6947C7.6883 7.55747 7.70781 8.24701 7.68439 8.93458C7.64599 9.35716 7.22759 9.62565 6.82901 9.61132C6.33467 9.61655 5.35522 9.25319 5.35522 9.25319C5.35276 7.96341 5.36956 6.3483 5.37652 5.06304V5.06276Z" fill="url(#paint1_linear_3242_62081)"/>
<path d="M9.99154 7.28892C9.91665 7.30482 9.9765 7.0335 9.9573 6.93058C9.96237 6.27981 9.94662 5.62833 9.966 4.97802C10.0301 4.15252 10.7965 3.47292 11.6195 3.49224H14.0431C14.0408 6.28867 14.0476 9.08547 14.0397 11.8818C14.0077 12.7074 13.2707 13.4151 12.4495 13.4297C11.6188 13.4328 10.788 13.4302 9.95726 13.431V9.60642C10.5246 10.0719 11.2957 10.1444 12.0026 10.1456C12.5354 10.1454 13.0652 10.0633 13.5826 9.94039V9.23971C12.9994 9.53036 12.3139 9.71498 11.6674 9.54799C11.2165 9.43568 10.8891 8.99993 10.8965 8.53455C10.8442 8.05061 11.128 7.53962 11.6036 7.39575C12.194 7.21088 12.8376 7.35227 13.3911 7.59258C13.5097 7.6547 13.6301 7.73168 13.5826 7.53347V6.9827C12.6569 6.76252 11.6718 6.68141 10.7417 6.92104C10.4725 6.99701 10.2103 7.11218 9.99154 7.28898V7.28892Z" fill="url(#paint2_linear_3242_62081)"/>
</g>
<defs>
<linearGradient id="paint0_linear_3242_62081" x1="14.524" y1="8.47968" x2="18.6123" y2="8.47968" gradientUnits="userSpaceOnUse">
<stop stop-color="#007B40"/>
<stop offset="1" stop-color="#55B330"/>
</linearGradient>
<linearGradient id="paint1_linear_3242_62081" x1="5.38406" y1="8.47968" x2="9.46907" y2="8.47968" gradientUnits="userSpaceOnUse">
<stop stop-color="#1D2970"/>
<stop offset="1" stop-color="#006DBA"/>
</linearGradient>
<linearGradient id="paint2_linear_3242_62081" x1="9.96062" y1="8.58876" x2="14.0476" y2="8.58876" gradientUnits="userSpaceOnUse">
<stop stop-color="#6E2B2F"/>
<stop offset="1" stop-color="#E30138"/>
</linearGradient>
<clipPath id="clip0_3242_62081">
<rect width="24" height="15.3846" fill="white" transform="translate(0 0.769226)"/>
</clipPath>
</defs>
</svg>
