<svg width="24" height="17" viewBox="0 0 24 17" fill="none" xmlns="http://www.w3.org/2000/svg">
<g clip-path="url(#clip0_3242_62087)">
<path d="M1.23077 0.769226H22.7692C23.449 0.769226 24 1.32027 24 2V14.9231C24 15.6028 23.449 16.1538 22.7692 16.1538H1.23077C0.551046 16.1538 0 15.6028 0 14.9231V2C0 1.32027 0.551046 0.769226 1.23077 0.769226Z" fill="black"/>
<path d="M21.231 8.46185C21.231 11.5122 18.7586 13.9849 15.7085 13.9849C12.6586 13.9849 10.186 11.5123 10.186 8.46185C10.186 5.41135 12.6586 2.93846 15.7085 2.93846C18.7587 2.93846 21.231 5.41129 21.231 8.46185Z" fill="#D9222A"/>
<path d="M11.4421 11.9689C11.2892 11.7834 11.1487 11.588 11.0214 11.384H12.9787C13.0965 11.1956 13.2027 11.0003 13.2969 10.799H10.7033C10.6143 10.6088 10.5362 10.4136 10.4696 10.2144H13.5304C13.7146 9.66351 13.8144 9.0744 13.8144 8.46169C13.8144 8.06028 13.7715 7.66902 13.6904 7.29209H10.3101C10.3526 7.09431 10.4062 6.89908 10.4703 6.70717H13.53C13.4632 6.50803 13.3853 6.31283 13.2964 6.12246H10.704C10.7982 5.92132 10.9045 5.72603 11.0221 5.5376H12.9781C12.8506 5.33394 12.7101 5.13877 12.5575 4.95323H11.4428C11.6142 4.74514 11.8005 4.54975 12.0001 4.36862C11.02 3.47991 9.71898 2.93837 8.29181 2.93837C5.24169 2.9384 2.76904 5.41123 2.76904 8.46175C2.76904 11.5121 5.2416 13.9848 8.29181 13.9848C9.71914 13.9848 11.02 13.4434 12.0001 12.5548C12.2001 12.3734 12.3866 12.1776 12.5581 11.9691H11.4421" fill="#0097D0"/>
<path d="M20.4947 11.5397C20.4947 11.4412 20.5746 11.3613 20.6732 11.3613C20.7717 11.3613 20.8514 11.4412 20.8514 11.5397C20.8514 11.6383 20.7717 11.7182 20.6732 11.7182C20.5746 11.7182 20.4947 11.6383 20.4947 11.5398V11.5397ZM20.6732 11.6753C20.748 11.6754 20.8086 11.6148 20.8087 11.54V11.5397C20.8087 11.465 20.7481 11.4044 20.6734 11.4044H20.6732C20.5984 11.4043 20.5377 11.4648 20.5376 11.5396V11.5397C20.5375 11.6146 20.5982 11.6753 20.673 11.6753H20.6732ZM20.649 11.618H20.6125V11.4613H20.6787C20.6924 11.4613 20.7065 11.4615 20.7187 11.4693C20.7315 11.478 20.7385 11.4931 20.7385 11.5084C20.7385 11.5263 20.7282 11.5426 20.7115 11.5489L20.7402 11.618H20.6997L20.6759 11.5562H20.649V11.618ZM20.649 11.5294H20.6692C20.6768 11.5294 20.6847 11.5299 20.6915 11.5263C20.6976 11.5223 20.7008 11.5151 20.7008 11.5082C20.7005 11.5018 20.6972 11.4959 20.6919 11.4923C20.6854 11.4885 20.6753 11.4893 20.6685 11.4893H20.649V11.5294ZM11.9216 9.9539C11.6856 10.0165 11.4573 10.047 11.216 10.0465C10.4463 10.0458 10.0454 9.6952 10.0454 9.02495C10.0454 8.2416 10.5558 7.66544 11.2485 7.66544C11.8152 7.66544 12.177 7.98852 12.177 8.49455C12.177 8.66249 12.1525 8.82597 12.0925 9.0575H10.7236C10.6749 9.38467 10.914 9.5284 11.3209 9.5284C11.5648 9.5284 11.7853 9.48455 12.0294 9.38649L11.9216 9.9539ZM11.5535 8.59541C11.5535 8.54597 11.6297 8.19443 11.2335 8.18673C11.0148 8.18673 10.8579 8.33212 10.7944 8.59541H11.5535ZM12.3853 8.44187C12.3853 8.73123 12.5483 8.9311 12.9185 9.0799C13.2016 9.19593 13.2462 9.22938 13.2462 9.33286C13.2462 9.4763 13.1211 9.54224 12.8434 9.54043C12.6348 9.53892 12.4445 9.51366 12.2199 9.45132L12.1205 9.97913C12.3202 10.0254 12.6002 10.0407 12.8482 10.0465C13.5875 10.0465 13.9287 9.8044 13.9287 9.28132C13.9287 8.96695 13.7864 8.78184 13.4354 8.644C13.142 8.5268 13.1075 8.50129 13.1075 8.39526C13.1075 8.27064 13.2237 8.20757 13.4505 8.20757C13.5878 8.20757 13.7761 8.22027 13.9545 8.24163L14.0548 7.71117C13.8729 7.68578 13.5968 7.6655 13.4371 7.6655C12.654 7.66557 12.383 8.01815 12.3853 8.44187ZM9.67018 10.0086H9.09596L9.10965 9.76803C8.93455 9.95787 8.70135 10.0462 8.38479 10.0462C8.01018 10.0462 7.7535 9.79009 7.7535 9.42172C7.7535 8.8619 8.19965 8.53895 8.96673 8.53895C9.04556 8.53895 9.14581 8.5448 9.24876 8.55624C9.27005 8.48138 9.27584 8.4492 9.27584 8.4083C9.27584 8.25507 9.15519 8.19867 8.83236 8.19867C8.51415 8.19997 8.29941 8.24701 8.10018 8.30061L8.19824 7.78677C8.54273 7.69917 8.76839 7.66547 9.02362 7.66547C9.61762 7.66547 9.93132 7.8983 9.93132 8.33612C9.93645 8.45292 9.89568 8.68729 9.87532 8.78984C9.85196 8.93917 9.68735 9.80443 9.67018 10.0086ZM9.16618 8.98738C9.09338 8.97993 9.06172 8.97778 9.01196 8.97778C8.6203 8.97778 8.42172 9.0943 8.42172 9.32446C8.42172 9.46883 8.51864 9.55935 8.66965 9.55935C8.95107 9.55932 9.15427 9.3239 9.16618 8.98738ZM15.1388 9.97234C14.9503 10.0241 14.8035 10.0465 14.6447 10.0465C14.2929 10.0465 14.1009 9.8667 14.1009 9.54649C14.0898 9.45852 14.1757 9.05234 14.1952 8.93917C14.2147 8.82557 14.5194 7.17018 14.5194 7.17018H15.2029L15.0994 7.71787H15.45L15.3547 8.27698H15.0026C15.0026 8.27698 14.8094 9.24714 14.8094 9.3211C14.8094 9.43883 14.8807 9.48994 15.0443 9.48994C15.1226 9.48994 15.1831 9.48264 15.2298 9.46864L15.1388 9.97234ZM18.1925 7.66544C17.6916 7.66544 17.3002 7.8716 17.0729 8.216L17.2702 7.70532C16.9066 7.57187 16.6722 7.76227 16.4602 8.03301C16.4602 8.03301 16.4247 8.07803 16.3894 8.11917V7.71763H15.7477C15.6607 8.42624 15.507 9.1447 15.3867 9.85443L15.3578 10.0089H16.0482C16.1136 9.64864 16.1674 9.35621 16.221 9.12314C16.3677 8.48354 16.6145 8.28803 16.985 8.37443C16.8995 8.5584 16.8525 8.7711 16.8525 9.00686C16.8525 9.57855 17.1631 10.0465 17.9341 10.0465C18.7121 10.0465 19.2755 9.63083 19.2755 8.68313C19.2755 8.11147 18.9001 7.66544 18.1925 7.66544ZM17.9916 9.49058C17.7478 9.49443 17.6 9.28981 17.6 8.98381C17.6 8.62095 17.8157 8.2111 18.1622 8.2111C18.4418 8.2111 18.5376 8.43273 18.5376 8.66892C18.5377 9.1852 18.3261 9.49058 17.9916 9.49058ZM7.4319 10.0089H6.74442L7.15304 7.85649L6.21239 10.0089H5.58572L5.4711 7.86892L5.06125 10.0089H4.4375L4.96879 7.20904H6.04304L6.13264 8.76984L6.81316 7.20904H7.97378L7.4319 10.0089Z" fill="black"/>
<path d="M19.3277 9.65784C19.3278 9.5594 19.4076 9.47959 19.506 9.47953C19.6046 9.47953 19.6844 9.55953 19.6844 9.65784C19.6846 9.75633 19.6049 9.83633 19.5064 9.83651C19.4079 9.8367 19.3279 9.757 19.3277 9.65851V9.65784ZM19.506 9.79362C19.581 9.79353 19.6416 9.73276 19.6417 9.65784C19.6416 9.58294 19.5809 9.52233 19.506 9.52233C19.4312 9.52233 19.3704 9.58297 19.3704 9.65784C19.3704 9.73276 19.4311 9.79353 19.506 9.79362ZM19.482 9.7362H19.4454V9.57977H19.5116C19.5254 9.57977 19.5395 9.57977 19.5517 9.58747C19.5643 9.59608 19.5716 9.6111 19.5716 9.62657C19.5716 9.64442 19.5612 9.66091 19.5444 9.6671L19.5731 9.7362H19.5326L19.5089 9.67439H19.482V9.7362ZM19.482 9.64734H19.5022C19.5096 9.64734 19.5177 9.64787 19.5245 9.64439C19.5304 9.64024 19.5338 9.63347 19.5336 9.62627C19.5334 9.61993 19.5302 9.61408 19.5249 9.61051C19.5184 9.60651 19.5082 9.60756 19.5014 9.60756H19.482V9.64734ZM12.094 9.78131C11.8581 9.84387 11.6297 9.87451 11.3886 9.87399C10.6188 9.87322 10.2179 9.5226 10.2179 8.8522C10.2179 8.06913 10.7281 7.49279 11.4209 7.49279C11.9877 7.49279 12.3493 7.8158 12.3493 8.3218C12.3493 8.49002 12.3247 8.65319 12.265 8.88491H10.8962C10.8475 9.21196 11.0863 9.35593 11.4933 9.35593C11.7372 9.35593 11.9576 9.31208 12.2019 9.21387L12.094 9.78131ZM11.7259 8.42285C11.7259 8.3735 11.8019 8.02184 11.4059 8.01424C11.1872 8.01424 11.0304 8.15977 10.9668 8.42285H11.7259ZM12.5578 8.26913C12.5578 8.5586 12.7205 8.75836 13.0909 8.90747C13.3741 9.0234 13.4185 9.05691 13.4185 9.16014C13.4185 9.30374 13.2935 9.36968 13.0159 9.36783C12.8072 9.36645 12.6169 9.34107 12.3924 9.27873L12.2928 9.8063C12.4925 9.85297 12.7727 9.86824 13.0206 9.87399C13.7598 9.87399 14.1012 9.63184 14.1012 9.10876C14.1012 8.79439 13.9588 8.60913 13.6076 8.47144C13.3142 8.35427 13.2798 8.32873 13.2798 8.22273C13.2798 8.09808 13.3962 8.03504 13.6228 8.03504C13.7603 8.03504 13.9484 8.04784 14.127 8.06922L14.227 7.53857C14.0451 7.51322 13.7692 7.49297 13.6096 7.49297C12.8263 7.49297 12.5554 7.84537 12.5578 8.26913ZM9.84266 9.8362H9.26832L9.28217 9.59559C9.10691 9.78507 8.87371 9.87353 8.55731 9.87353C8.18266 9.87353 7.92589 9.61734 7.92589 9.24925C7.92589 8.68916 8.37189 8.36633 9.13909 8.36633C9.21792 8.36633 9.31805 8.3722 9.42125 8.38362C9.44254 8.30876 9.4482 8.2767 9.4482 8.23568C9.4482 8.08236 9.32768 8.02605 9.00485 8.02605C8.68666 8.02737 8.47192 8.07451 8.27266 8.12799L8.37063 7.61427C8.71525 7.52657 8.94076 7.49288 9.19614 7.49288C9.79011 7.49288 10.1037 7.72568 10.1037 8.16337C10.1088 8.28033 10.068 8.51451 10.0478 8.61734C10.0244 8.76657 9.85974 9.6318 9.84266 9.8362ZM9.33845 8.81473C9.26589 8.80722 9.23408 8.80513 9.18423 8.80513C8.79282 8.80513 8.59408 8.92165 8.59408 9.1518C8.59408 9.29627 8.69112 9.3867 8.84192 9.3867C9.12359 9.3867 9.32679 9.15119 9.33845 8.81473ZM15.3111 9.7999C15.1228 9.85144 14.9758 9.87399 14.8171 9.87399C14.4653 9.87399 14.2734 9.69411 14.2734 9.37387C14.2622 9.28605 14.3483 8.87974 14.3676 8.76657C14.3871 8.65297 14.6918 6.99759 14.6918 6.99759H15.3752L15.272 7.54528H15.6224L15.5272 8.10436H15.1752C15.1752 8.10436 14.9818 9.07451 14.9818 9.14851C14.9818 9.2662 15.0532 9.3171 15.2167 9.3171C15.2949 9.3171 15.3554 9.31005 15.4022 9.29584L15.3111 9.7999ZM18.7101 8.4963C18.7101 9.01245 18.4984 9.31811 18.1638 9.31811C17.9201 9.32156 17.7723 9.11734 17.7723 8.81119C17.7723 8.44836 17.9879 8.03848 18.3344 8.03848C18.6142 8.03848 18.7101 8.26042 18.7101 8.4963ZM19.4479 8.51067C19.4479 7.93897 19.0723 7.49282 18.365 7.49282C17.5512 7.49282 17.025 8.03519 17.025 8.8343C17.025 9.40596 17.3353 9.87402 18.1065 9.87402C18.8846 9.87399 19.448 9.45824 19.4479 8.51067ZM15.9199 7.54504C15.8331 8.25362 15.6794 8.97196 15.5592 9.68196L15.5301 9.83645H16.2204C16.4693 8.4654 16.5528 8.07479 17.074 8.21236L17.3248 7.5635C16.9612 7.43002 16.7271 7.62054 16.5153 7.89144C16.5344 7.76956 16.5704 7.65196 16.5617 7.54504H15.9199ZM7.60423 9.83642H6.91694L7.3254 7.68384L6.38463 9.83642H5.75808L5.64346 7.69627L5.23362 9.83642H4.60986L5.141 7.03642H6.21549L6.27229 8.76977L7.02845 7.03642H8.14614L7.60423 9.83642Z" fill="white"/>
</g>
<defs>
<clipPath id="clip0_3242_62087">
<rect width="24" height="15.3846" fill="white" transform="translate(0 0.769226)"/>
</clipPath>
</defs>
</svg>
