<svg width="24" height="17" viewBox="0 0 24 17" fill="none" xmlns="http://www.w3.org/2000/svg"><path d="M9.780 0.843 C 5.248 0.859,1.358 0.884,1.135 0.900 C 0.860 0.918,0.693 0.950,0.615 0.997 C 0.455 1.094,0.177 1.468,0.122 1.660 C 0.033 1.973,-0.009 5.150,0.016 9.780 C 0.040 14.390,0.063 15.168,0.184 15.423 C 0.268 15.600,0.587 15.879,0.789 15.954 C 0.899 15.994,1.304 16.018,2.280 16.042 C 4.036 16.085,21.047 16.084,22.160 16.041 C 23.243 16.000,23.309 15.980,23.717 15.568 L 24.013 15.268 23.986 8.744 C 23.970 4.771,23.944 2.114,23.920 1.948 C 23.867 1.588,23.805 1.478,23.447 1.110 L 23.146 0.800 20.583 0.807 C 19.173 0.811,14.312 0.827,9.780 0.843 M2.600 5.525 C 3.227 5.575,3.703 5.656,3.792 5.729 C 3.887 5.807,4.070 6.230,4.578 7.540 C 4.834 8.199,5.059 8.755,5.078 8.774 C 5.128 8.824,5.220 8.628,5.674 7.512 C 6.118 6.420,6.386 5.862,6.526 5.734 C 6.673 5.599,7.087 5.541,8.510 5.457 L 8.960 5.430 8.960 8.435 L 8.960 11.440 8.046 11.440 L 7.132 11.440 7.106 9.890 C 7.078 8.242,7.057 7.908,6.985 7.932 C 6.931 7.950,6.473 9.246,6.074 10.510 L 5.781 11.440 5.215 11.440 C 4.734 11.440,4.636 11.429,4.565 11.370 C 4.468 11.289,4.411 11.144,3.859 9.560 C 3.381 8.188,3.280 7.920,3.240 7.920 C 3.179 7.920,3.159 8.268,3.134 9.830 L 3.107 11.440 2.213 11.440 L 1.320 11.440 1.320 8.435 L 1.320 5.430 1.690 5.456 C 1.893 5.470,2.303 5.501,2.600 5.525 M11.654 7.050 C 11.680 8.638,11.698 8.960,11.764 8.960 C 11.808 8.960,12.084 8.489,12.765 7.249 C 13.516 5.883,13.642 5.693,13.835 5.641 C 14.010 5.594,14.846 5.497,15.410 5.458 L 15.800 5.430 15.800 8.435 L 15.800 11.440 14.900 11.440 L 14.000 11.440 13.997 10.410 C 13.994 9.115,13.946 7.930,13.895 7.879 C 13.847 7.831,13.679 8.109,12.920 9.500 C 11.974 11.231,11.930 11.297,11.660 11.364 C 11.572 11.386,11.127 11.415,10.670 11.428 L 9.840 11.451 9.840 8.446 L 9.840 5.440 10.733 5.440 L 11.627 5.440 11.654 7.050 M17.022 5.790 C 16.988 6.233,16.960 6.400,16.918 6.400 C 16.864 6.400,16.710 5.954,16.690 5.738 C 16.673 5.556,16.681 5.532,16.766 5.491 C 16.818 5.466,16.903 5.444,16.955 5.443 C 17.049 5.440,17.049 5.440,17.022 5.790 M22.300 8.277 L 22.500 8.307 22.091 8.707 C 21.636 9.151,21.418 9.289,21.029 9.379 C 20.708 9.454,19.810 9.519,19.090 9.519 L 18.560 9.520 18.560 10.500 L 18.560 11.480 17.660 11.480 L 16.760 11.480 16.760 9.833 L 16.760 8.187 19.430 8.217 C 20.898 8.233,22.190 8.260,22.300 8.277 " fill="white" stroke="none" fill-rule="evenodd"></path></svg>