<svg width="24" height="17" viewBox="0 0 24 17" fill="none" xmlns="http://www.w3.org/2000/svg">
<g clip-path="url(#clip0_3242_62101)">
<path d="M1.23077 0.769226H22.7692C23.4492 0.769226 24 1.32 24 2V14.9231C24 15.6031 23.4492 16.1538 22.7692 16.1538H1.23077C0.550769 16.1538 0 15.6031 0 14.9231V2C0 1.32 0.550769 0.769226 1.23077 0.769226Z" fill="white"/>
<path d="M16.7412 8.16922V11.4923H18.5874V9.52307H20.6797C21.5597 9.51691 22.3074 8.95384 22.5904 8.16922H16.7412Z" fill="#37A72E"/>
<path d="M16.4951 5.43077C16.6028 6.78769 17.889 7.86154 19.4582 7.86154C19.4643 7.86154 22.6674 7.86154 22.6674 7.86154C22.692 7.73846 22.7043 7.60923 22.7043 7.47692C22.7043 6.35077 21.7967 5.44 20.6736 5.43077H16.4951Z" fill="url(#paint0_linear_3242_62101)"/>
<path d="M13.7628 7.82769C13.7844 7.79077 13.8182 7.76923 13.8613 7.76923C13.9228 7.76923 13.969 7.81846 13.9721 7.87692V11.4615H15.8182V5.43077H13.9721C13.7382 5.44 13.4736 5.60923 13.3751 5.82154L11.9074 8.97231C11.9044 8.98462 11.8982 8.99692 11.8921 9.00923C11.8705 9.04 11.8336 9.06154 11.7905 9.06154C11.7228 9.06154 11.6674 9.00616 11.6674 8.93846V5.43077H9.82129V11.4615H11.6674C11.8982 11.4492 12.1567 11.28 12.2551 11.0708L13.7628 7.83692C13.7597 7.83385 13.7628 7.83077 13.7628 7.82769Z" fill="#37A72E"/>
<path d="M6.87065 7.9323L5.79065 11.4615H4.46142L3.38449 7.92923C3.37526 7.87384 3.32603 7.83077 3.26449 7.83077C3.1968 7.83077 3.14449 7.88615 3.14449 7.95077V11.4585H1.29834V5.42769H2.88296H3.35372C3.69219 5.42769 4.04911 5.6923 4.14757 6.01538L5.04603 8.95384C5.09219 9.10153 5.16296 9.09846 5.20911 8.95384L6.10757 6.01538C6.20603 5.68923 6.56296 5.42769 6.90142 5.42769H7.37219H8.9568V11.4585H7.11065V7.95077C7.11065 7.95077 7.11065 7.95077 7.11065 7.94769C7.11065 7.88 7.05526 7.82769 6.99065 7.82769C6.92911 7.83077 6.87988 7.87384 6.87065 7.9323Z" fill="#37A72E"/>
</g>
<defs>
<linearGradient id="paint0_linear_3242_62101" x1="16.4959" y1="6.64616" x2="22.704" y2="6.64616" gradientUnits="userSpaceOnUse">
<stop stop-color="#00A0E5"/>
<stop offset="1" stop-color="#0077C3"/>
</linearGradient>
<clipPath id="clip0_3242_62101">
<rect width="24" height="15.3846" fill="white" transform="translate(0 0.769226)"/>
</clipPath>
</defs>
</svg>
