<svg width="24" height="17" viewBox="0 0 24 17" fill="none" xmlns="http://www.w3.org/2000/svg">
<g clip-path="url(#clip0_3242_62093)">
<path d="M1.23077 0.769226H22.7692C23.449 0.769226 24 1.32027 24 2V14.9231C24 15.6028 23.449 16.1538 22.7692 16.1538H1.23077C0.551046 16.1538 0 15.6028 0 14.9231V2C0 1.32027 0.551046 0.769226 1.23077 0.769226Z" fill="#16366F"/>
<path d="M13.8155 8.46154C13.8155 11.5121 11.3426 13.9846 8.29212 13.9846C5.24166 13.9846 2.76904 11.512 2.76904 8.46154C2.76904 5.41129 5.24172 2.93846 8.29212 2.93846C11.3425 2.93846 13.8155 5.41138 13.8155 8.46154Z" fill="#D9222A"/>
<path d="M15.7076 2.93834C14.2805 2.93834 12.9801 3.47975 11.9999 4.36806C11.8002 4.54926 11.6138 4.74459 11.4422 4.95255H12.5581C12.7109 5.13831 12.8515 5.33372 12.9791 5.53757H11.0211C10.9034 5.72591 10.7971 5.92123 10.703 6.12243H13.2972C13.3862 6.31274 13.4643 6.50797 13.531 6.70717H10.4691C10.4048 6.89902 10.3512 7.09428 10.3086 7.29206H13.6914C13.7741 7.67637 13.8158 8.0684 13.8157 8.46154C13.8157 9.07489 13.7156 9.66502 13.531 10.216H10.4691C10.5356 10.4154 10.6137 10.6106 10.7027 10.8009H13.2971C13.2028 11.0022 13.0965 11.1975 12.9787 11.3859H11.0211C11.1489 11.5899 11.2897 11.7853 11.4421 11.9704H12.5578C12.3864 12.1788 12.1999 12.3743 11.9999 12.5554C12.9802 13.4436 14.2805 13.9848 15.7076 13.9848C18.758 13.9847 21.231 11.5121 21.231 8.46169C21.231 5.41154 18.7581 2.93862 15.7076 2.93862" fill="#EE9F2D"/>
<path d="M20.495 11.5403C20.495 11.4418 20.5747 11.3618 20.6733 11.3618C20.7719 11.3618 20.8517 11.4418 20.8517 11.5403C20.8517 11.6387 20.7719 11.7187 20.6733 11.7187C20.5748 11.7187 20.495 11.6388 20.495 11.5403ZM20.6733 11.6759C20.7483 11.6759 20.8089 11.6152 20.809 11.5403C20.809 11.4654 20.7483 11.4048 20.6735 11.4048H20.6733C20.5986 11.4047 20.5379 11.4652 20.5378 11.5399V11.5403C20.5377 11.6152 20.5983 11.6759 20.6732 11.676C20.6732 11.6759 20.6733 11.6759 20.6733 11.6759ZM20.6492 11.6187H20.6127V11.462H20.6788C20.6927 11.462 20.7067 11.462 20.719 11.4698C20.7317 11.4783 20.7388 11.4935 20.7388 11.5091C20.7388 11.5266 20.7285 11.5431 20.7117 11.5495L20.7405 11.6187H20.7L20.676 11.5567H20.6493L20.6492 11.6187ZM20.6492 11.5298H20.6695C20.6771 11.5298 20.685 11.5304 20.6918 11.5267C20.6978 11.5229 20.7009 11.5157 20.7009 11.5087C20.7009 11.5027 20.6972 11.4958 20.692 11.4929C20.6857 11.4888 20.6755 11.4897 20.6687 11.4897H20.6492V11.5298ZM7.00309 9.0663C6.94016 9.05901 6.91247 9.05704 6.86924 9.05704C6.52939 9.05704 6.35733 9.17362 6.35733 9.40375C6.35733 9.54562 6.44133 9.63593 6.57232 9.63593C6.81656 9.63593 6.99259 9.40332 7.00309 9.0663ZM7.43912 10.0816H6.94232L6.95373 9.84538C6.80219 10.0321 6.60001 10.1208 6.32527 10.1208C6.00029 10.1208 5.77745 9.86692 5.77745 9.49833C5.77745 8.94375 6.16502 8.62018 6.83029 8.62018C6.89822 8.62018 6.98539 8.62633 7.07462 8.63768C7.09324 8.56258 7.0981 8.53042 7.0981 8.48999C7.0981 8.33898 6.99361 8.28267 6.71349 8.28267C6.42016 8.27935 6.17822 8.35255 6.07887 8.38525C6.08515 8.34741 6.16195 7.8727 6.16195 7.8727C6.46078 7.78513 6.65785 7.75218 6.87964 7.75218C7.3945 7.75218 7.66721 7.98332 7.66672 8.42024C7.6677 8.53732 7.64835 8.68178 7.6181 8.87165C7.56604 9.20184 7.45441 9.90913 7.43912 10.0816ZM5.52656 10.0816H4.92693L5.27041 7.92781L4.50349 10.0816H4.09487L4.04441 7.94012L3.68336 10.0816H3.12207L3.59093 7.2799H4.45309L4.50539 8.84808L5.0313 7.2799H5.99029L5.52656 10.0816ZM16.449 9.0663C16.3863 9.05901 16.3585 9.05704 16.3154 9.05704C15.9757 9.05704 15.8036 9.17362 15.8036 9.40375C15.8036 9.54562 15.8875 9.63593 16.0185 9.63593C16.2627 9.63593 16.4389 9.40332 16.449 9.0663ZM16.8854 10.0816H16.3887L16.3999 9.84538C16.2483 10.0321 16.046 10.1208 15.7716 10.1208C15.4465 10.1208 15.2239 9.86692 15.2239 9.49833C15.2239 8.94375 15.6112 8.62018 16.2766 8.62018C16.3445 8.62018 16.4315 8.62633 16.5207 8.63768C16.5393 8.56258 16.5442 8.53042 16.5442 8.48999C16.5442 8.33898 16.4398 8.28267 16.1597 8.28267C15.8663 8.27935 15.6247 8.35255 15.5249 8.38525C15.5312 8.34741 15.6083 7.8727 15.6083 7.8727C15.9071 7.78513 16.104 7.75218 16.3255 7.75218C16.8407 7.75218 17.1134 7.98332 17.1129 8.42024C17.1139 8.53732 17.0945 8.68178 17.0643 8.87165C17.0125 9.20184 16.9006 9.90913 16.8854 10.0816ZM10.1042 10.0469C9.94007 10.0986 9.81213 10.1208 9.67342 10.1208C9.36687 10.1208 9.19958 9.94461 9.19958 9.62024C9.19521 9.51962 9.24367 9.25473 9.28173 9.01295C9.31635 8.80012 9.54173 7.45818 9.54173 7.45818H10.1378L10.0682 7.80307H10.4282L10.3468 8.35064H9.98555C9.91632 8.78396 9.81773 9.32372 9.81659 9.39525C9.81659 9.5127 9.87927 9.56396 10.0218 9.56396C10.0902 9.56396 10.1431 9.55701 10.1835 9.54242L10.1042 10.0469ZM11.9316 10.0285C11.7269 10.091 11.5293 10.1213 11.3199 10.1208C10.6528 10.1201 10.305 9.77168 10.305 9.10442C10.305 8.32556 10.7474 7.75221 11.348 7.75221C11.8394 7.75221 12.1533 8.07322 12.1533 8.5767C12.1533 8.74375 12.1317 8.90682 12.0798 9.13707H10.8929C10.8528 9.46759 11.0643 9.60528 11.411 9.60528C11.6243 9.60528 11.8167 9.56128 12.0307 9.46181L11.9316 10.0285ZM11.5966 8.67772C11.5999 8.63024 11.6598 8.27104 11.3193 8.27104C11.1294 8.27104 10.9937 8.41578 10.9384 8.67772H11.5966ZM7.79909 8.52335C7.79909 8.81156 7.93881 9.01027 8.25573 9.15953C8.49856 9.27365 8.53613 9.3075 8.53613 9.41092C8.53613 9.55298 8.42906 9.61707 8.19176 9.61707C8.01293 9.61707 7.84653 9.58916 7.65459 9.52722C7.65459 9.52722 7.57573 10.0294 7.57213 10.0534C7.70844 10.0831 7.82998 10.1107 8.19613 10.1208C8.82881 10.1208 9.12099 9.8799 9.12099 9.35925C9.12099 9.04618 8.99869 8.86245 8.69832 8.72439C8.4469 8.60901 8.41804 8.58322 8.41804 8.47682C8.41804 8.35362 8.51767 8.29079 8.71152 8.29079C8.82921 8.29079 8.98998 8.30335 9.14229 8.32504L9.22767 7.79658C9.07241 7.77196 8.83702 7.75221 8.69998 7.75221C8.02921 7.75221 7.79702 8.10258 7.79909 8.52335ZM14.848 7.81208C15.0146 7.81208 15.1698 7.85578 15.3838 7.96347L15.4819 7.35541C15.394 7.32095 15.0848 7.11848 14.8229 7.11848C14.4216 7.11848 14.0824 7.31756 13.8438 7.64618C13.4958 7.53092 13.3528 7.76387 13.1774 7.99593L13.0216 8.03221C13.0334 7.95581 13.0441 7.8799 13.0405 7.8031H12.4899C12.4146 8.50824 12.2813 9.22248 12.1769 9.92848L12.1497 10.0816H12.7496C12.8497 9.43104 12.9046 9.01448 12.9379 8.73261L13.1638 8.60695C13.1975 8.48141 13.3032 8.43901 13.5151 8.44412C13.4866 8.59821 13.4723 8.75458 13.4725 8.91132C13.4725 9.6567 13.8747 10.1208 14.5202 10.1208C14.6865 10.1208 14.8292 10.0989 15.0501 10.039L15.1557 9.40027C14.9569 9.49812 14.7938 9.54415 14.6461 9.54415C14.2975 9.54415 14.0866 9.28685 14.0866 8.86156C14.0866 8.24464 14.4003 7.81208 14.848 7.81208Z" fill="black"/>
<path d="M5.69893 9.91508H5.0992L5.4429 7.7616L4.67597 9.91508H4.2673L4.21677 7.77391L3.85576 9.91508H3.29443L3.7633 7.11378H4.62545L4.6497 8.848L5.23136 7.11378H6.16265L5.69893 9.91508Z" fill="white"/>
<path d="M19.9238 7.28L19.7909 8.08948C19.6269 7.87372 19.4508 7.71757 19.2182 7.71757C18.9156 7.71757 18.6403 7.94692 18.46 8.28449C18.209 8.23243 17.9493 8.14409 17.9493 8.14409L17.9492 8.14615C17.9695 7.95744 17.9775 7.84231 17.9757 7.8032H17.425C17.35 8.50834 17.2167 9.22258 17.1124 9.92858L17.085 10.0817H17.6847C17.7657 9.55563 17.8278 9.11883 17.8734 8.77243C18.0783 8.58729 18.1809 8.42575 18.3879 8.43652C18.2963 8.65824 18.2425 8.91357 18.2425 9.17551C18.2425 9.74514 18.5307 10.1209 18.9667 10.1209C19.1864 10.1209 19.355 10.0451 19.5195 9.86951L19.4914 10.0813H20.0586L20.5152 7.28H19.9238ZM19.1739 9.55514C18.9698 9.55514 18.8668 9.40409 18.8668 9.106C18.8668 8.65821 19.0597 8.34061 19.3318 8.34061C19.5378 8.34061 19.6493 8.49766 19.6493 8.78701C19.6493 9.23874 19.4533 9.55514 19.1739 9.55514Z" fill="black"/>
<path d="M7.17509 8.9003C7.11226 8.89304 7.08445 8.89107 7.04137 8.89107C6.70149 8.89107 6.52955 9.00762 6.52955 9.23775C6.52955 9.37941 6.61355 9.46996 6.74432 9.46996C6.98878 9.46993 7.16481 9.23738 7.17509 8.9003ZM7.61137 9.91519H7.11457L7.12586 9.67941C6.97445 9.86569 6.77201 9.95479 6.49752 9.95479C6.17238 9.95479 5.94971 9.70095 5.94971 9.33236C5.94971 8.77753 6.33712 8.45415 7.00251 8.45415C7.07048 8.45415 7.15765 8.4603 7.24675 8.47172C7.26534 8.39658 7.2702 8.36442 7.2702 8.32378C7.2702 8.17276 7.16586 8.1167 6.88571 8.1167C6.59226 8.11338 6.35048 8.18661 6.25097 8.21892C6.25725 8.18119 6.33405 7.70698 6.33405 7.70698C6.63278 7.61904 6.83008 7.58605 7.05161 7.58605C7.56663 7.58605 7.83943 7.81738 7.83894 8.2539C7.83983 8.37144 7.82032 8.51581 7.7902 8.70544C7.73829 9.03544 7.62651 9.74313 7.61137 9.91519ZM15.6538 7.18929L15.5556 7.7975C15.3418 7.68993 15.1864 7.64609 15.02 7.64609C14.5723 7.64609 14.2585 8.07864 14.2585 8.69553C14.2585 9.12079 14.4695 9.37802 14.818 9.37802C14.9656 9.37802 15.1286 9.33212 15.3273 9.23412L15.2221 9.87258C15.001 9.93285 14.8585 9.95479 14.692 9.95479C14.0466 9.95479 13.6444 9.49067 13.6444 8.74528C13.6444 7.74375 14.2 7.04375 14.9948 7.04375C15.2565 7.04378 15.5659 7.15479 15.6538 7.18929ZM16.6213 8.9003C16.5585 8.89304 16.5308 8.89107 16.4876 8.89107C16.1478 8.89107 15.9757 9.00762 15.9757 9.23775C15.9757 9.37941 16.0597 9.46996 16.1906 9.46996C16.4348 9.46993 16.611 9.23738 16.6213 8.9003ZM17.0576 9.91519H16.5606L16.572 9.67941C16.4205 9.86569 16.2182 9.95479 15.9437 9.95479C15.6187 9.95479 15.3959 9.70095 15.3959 9.33236C15.3959 8.77753 15.7834 8.45415 16.4486 8.45415C16.5167 8.45415 16.6037 8.4603 16.6929 8.47172C16.7114 8.39658 16.7164 8.36442 16.7164 8.32378C16.7164 8.17276 16.612 8.1167 16.3319 8.1167C16.0386 8.11338 15.7966 8.18661 15.6972 8.21892C15.7034 8.18119 15.7804 7.70698 15.7804 7.70698C16.0791 7.61904 16.2762 7.58605 16.4978 7.58605C17.0129 7.58605 17.2856 7.81738 17.2849 8.2539C17.286 8.37144 17.2666 8.51581 17.2364 8.70544C17.1846 9.03544 17.0725 9.74313 17.0576 9.91519ZM10.2763 9.88067C10.1121 9.93236 9.98414 9.95479 9.84555 9.95479C9.539 9.95479 9.37171 9.77861 9.37171 9.4543C9.36746 9.35335 9.41592 9.08873 9.45401 8.84698C9.48848 8.63387 9.71389 7.29212 9.71389 7.29212H10.3098L10.2403 7.6371H10.5462L10.4648 8.18442H10.1579C10.0886 8.61799 9.98977 9.15732 9.98875 9.22901C9.98875 9.34685 10.0516 9.39772 10.194 9.39772C10.2623 9.39772 10.3152 9.39104 10.3557 9.37642L10.2763 9.88067ZM12.1038 9.86249C11.8992 9.92504 11.7013 9.95519 11.4921 9.95479C10.8249 9.95415 10.4771 9.60568 10.4771 8.93839C10.4771 8.15929 10.9196 7.58609 11.5202 7.58609C12.0116 7.58609 12.3254 7.90698 12.3254 8.4107C12.3254 8.57787 12.3039 8.74095 12.2521 8.97107H11.0652C11.025 9.30156 11.2365 9.43941 11.5832 9.43941C11.7965 9.43941 11.989 9.39529 12.2028 9.29553L12.1038 9.86249ZM11.7686 8.51135C11.7722 8.46402 11.832 8.10467 11.4913 8.10467C11.3016 8.10467 11.1658 8.24981 11.1105 8.51135H11.7686ZM7.97109 8.35738C7.97109 8.64553 8.11085 8.84402 8.42777 8.99353C8.67057 9.10762 8.70814 9.14159 8.70814 9.24492C8.70814 9.38698 8.60097 9.45107 8.36392 9.45107C8.18494 9.45107 8.01854 9.42313 7.82648 9.36122C7.82648 9.36122 7.74789 9.86338 7.74432 9.88738C7.88032 9.91713 8.00198 9.9443 8.36814 9.95479C9.00097 9.95479 9.29303 9.7139 9.29303 9.19338C9.29303 8.88015 9.17085 8.69645 8.87032 8.55839C8.61903 8.44276 8.58995 8.41738 8.58995 8.31082C8.58995 8.18775 8.6898 8.12442 8.88352 8.12442C9.00109 8.12442 9.16186 8.13735 9.31441 8.15904L9.39968 7.63042C9.24457 7.60581 9.00918 7.58609 8.87211 7.58609C8.20121 7.58609 7.96918 7.93621 7.97109 8.35738ZM20.2311 9.91519H19.6638L19.692 9.7031C19.5275 9.87901 19.3589 9.95479 19.1392 9.95479C18.7032 9.95479 18.4152 9.57901 18.4152 9.00941C18.4152 8.25156 18.862 7.6127 19.3908 7.6127C19.6234 7.6127 19.7995 7.70772 19.9633 7.92335L20.0964 7.11387H20.6878L20.2311 9.91519ZM19.3466 9.38876C19.6259 9.38876 19.822 9.07236 19.822 8.62098C19.822 8.33159 19.7103 8.17455 19.5043 8.17455C19.2324 8.17455 19.0392 8.49199 19.0392 8.93993C19.0392 9.23796 19.1425 9.38876 19.3466 9.38876ZM17.5976 7.6371C17.5226 8.34224 17.3892 9.05649 17.2849 9.76212L17.2575 9.91519H17.8572C18.0717 8.52212 18.1236 8.25005 18.46 8.28415C18.5136 7.99904 18.6132 7.74929 18.6876 7.62325C18.4364 7.57095 18.2962 7.71289 18.1126 7.98249C18.1271 7.86596 18.1536 7.75276 18.1484 7.6371H17.5976ZM12.6616 7.6371C12.5864 8.34224 12.453 9.05649 12.3488 9.76212L12.3215 9.91519H12.9215C13.1357 8.52212 13.1875 8.25005 13.5236 8.28415C13.5775 7.99904 13.6772 7.74929 13.7513 7.62325C13.5004 7.57095 13.36 7.71289 13.1766 7.98249C13.1911 7.86596 13.2174 7.75276 13.2124 7.6371H12.6616ZM20.4945 9.73685C20.4945 9.63796 20.5744 9.55839 20.6729 9.55839C20.7712 9.5583 20.8511 9.63799 20.8512 9.73639V9.73685C20.8512 9.83532 20.7713 9.91513 20.6729 9.91519C20.5744 9.91513 20.4946 9.83532 20.4945 9.73685ZM20.6729 9.87236C20.7477 9.87239 20.8084 9.81175 20.8084 9.73695V9.73689C20.8084 9.66202 20.7478 9.60132 20.673 9.60125H20.6729C20.598 9.60128 20.5372 9.66199 20.5372 9.73689C20.5373 9.81172 20.598 9.87236 20.6729 9.87236ZM20.6488 9.81482H20.6122V9.65839H20.6785C20.6922 9.65839 20.7064 9.65864 20.7184 9.66621C20.7312 9.67492 20.7385 9.68981 20.7385 9.70541C20.7385 9.7231 20.7281 9.73965 20.7112 9.74593L20.7401 9.81473H20.6995L20.6755 9.75295H20.6488V9.81473V9.81482ZM20.6488 9.72621H20.6689C20.6764 9.72621 20.6847 9.72676 20.6913 9.72313C20.6973 9.71929 20.7004 9.71202 20.7004 9.70507C20.7001 9.69861 20.6968 9.69264 20.6916 9.68895C20.6853 9.68535 20.6749 9.68633 20.6681 9.68633H20.6487L20.6488 9.72621Z" fill="white"/>
</g>
<defs>
<clipPath id="clip0_3242_62093">
<rect width="24" height="15.3846" fill="white" transform="translate(0 0.769226)"/>
</clipPath>
</defs>
</svg>
