<svg width="24" height="17" viewBox="0 0 24 17" fill="none" xmlns="http://www.w3.org/2000/svg"><path d="M16.280 0.827 C 12.115 0.839,3.442 0.920,2.066 0.960 C 0.646 1.002,0.635 1.004,0.255 1.390 L 0.040 1.609 0.040 8.431 L 0.040 15.253 0.198 15.462 C 0.409 15.742,0.664 15.945,0.882 16.006 C 1.022 16.046,3.182 16.059,11.080 16.070 C 20.889 16.083,22.808 16.065,23.180 15.957 C 23.291 15.925,23.438 15.814,23.670 15.588 L 24.000 15.266 23.996 11.183 C 23.994 8.937,23.978 5.921,23.962 4.480 C 23.928 1.403,23.964 1.649,23.468 1.132 L 23.149 0.800 21.064 0.810 C 19.918 0.815,17.765 0.823,16.280 0.827 M17.440 3.328 C 18.908 3.899,19.965 4.891,20.679 6.365 C 20.790 6.593,20.898 6.879,20.919 7.000 C 20.977 7.323,21.039 8.483,21.040 9.235 L 21.040 9.890 20.753 10.434 C 19.961 11.932,19.147 12.803,18.000 13.380 C 17.240 13.762,16.910 13.832,15.698 13.866 C 14.809 13.891,14.767 13.889,14.498 13.801 C 13.537 13.485,12.477 12.966,12.229 12.691 C 12.162 12.616,12.163 12.602,12.255 12.357 L 12.351 12.101 11.886 11.938 C 11.368 11.758,11.190 11.660,11.209 11.565 C 11.225 11.481,11.405 11.457,12.291 11.421 L 13.002 11.391 13.061 11.278 C 13.146 11.114,13.135 11.004,13.030 10.961 C 12.980 10.941,12.544 10.895,12.060 10.859 C 10.782 10.764,10.686 10.739,10.668 10.497 L 10.660 10.380 11.560 10.332 C 13.688 10.219,13.430 10.249,13.599 10.096 L 13.749 9.961 14.219 10.022 C 14.779 10.096,14.876 10.086,14.686 9.977 C 14.127 9.656,14.053 9.601,13.926 9.416 L 13.792 9.220 13.820 8.780 C 13.848 8.340,13.930 7.713,13.975 7.600 C 13.994 7.554,13.930 7.518,13.706 7.445 C 13.417 7.352,13.394 7.350,12.416 7.378 C 11.373 7.407,10.405 7.462,10.374 7.493 C 10.364 7.503,10.382 7.615,10.416 7.743 L 10.476 7.974 10.340 8.218 C 10.265 8.352,10.157 8.585,10.100 8.736 L 9.997 9.011 10.082 9.297 C 10.129 9.455,10.161 9.637,10.153 9.702 C 10.142 9.802,10.114 9.828,9.967 9.875 C 9.728 9.950,9.619 9.896,9.557 9.672 C 9.474 9.375,9.636 7.889,9.785 7.575 C 9.822 7.498,9.919 7.410,10.039 7.344 C 10.237 7.236,10.371 7.070,10.421 6.870 L 10.449 6.760 11.234 6.760 C 11.984 6.759,13.015 6.707,13.250 6.657 C 13.419 6.621,13.461 6.506,13.380 6.296 L 13.313 6.120 12.017 6.120 C 11.304 6.120,10.720 6.109,10.720 6.096 C 10.720 6.084,10.785 5.958,10.863 5.816 L 11.007 5.560 11.733 5.558 C 12.645 5.555,12.776 5.535,12.792 5.396 C 12.803 5.305,12.775 5.281,12.532 5.171 C 12.382 5.104,12.157 5.017,12.032 4.979 C 11.906 4.941,11.773 4.877,11.736 4.836 C 11.673 4.766,11.677 4.755,11.805 4.634 C 12.215 4.246,13.827 3.324,14.240 3.241 C 14.339 3.221,15.041 3.209,15.800 3.215 C 17.169 3.226,17.182 3.227,17.440 3.328 M4.641 7.650 C 4.641 8.175,4.662 8.360,4.719 8.360 C 4.747 8.360,4.981 7.795,5.145 7.329 L 5.220 7.117 5.500 7.144 C 5.833 7.176,5.953 7.216,5.987 7.304 C 6.044 7.453,5.714 9.834,5.629 9.888 C 5.546 9.941,5.332 9.923,5.279 9.859 C 5.239 9.810,5.238 9.667,5.277 9.135 C 5.320 8.546,5.317 8.386,5.265 8.443 C 5.256 8.453,5.128 8.739,4.979 9.080 C 4.605 9.938,4.573 9.979,4.461 9.762 C 4.414 9.671,4.200 8.614,4.200 8.471 C 4.200 8.454,4.185 8.440,4.166 8.440 C 4.147 8.440,4.100 8.588,4.062 8.770 C 3.835 9.855,3.809 9.920,3.599 9.920 C 3.352 9.920,3.355 9.702,3.623 8.228 C 3.755 7.506,3.823 7.280,3.928 7.215 C 4.001 7.170,4.234 7.130,4.450 7.125 L 4.640 7.120 4.641 7.650 M19.919 7.402 C 19.895 7.447,19.882 7.541,19.890 7.612 L 19.904 7.740 19.972 7.591 C 20.048 7.425,20.059 7.320,20.001 7.320 C 19.980 7.320,19.943 7.357,19.919 7.402 M13.200 7.758 L 13.200 7.876 13.370 7.800 C 13.505 7.739,13.542 7.734,13.552 7.777 C 13.581 7.906,12.886 9.619,12.742 9.774 C 12.660 9.862,12.385 9.958,12.340 9.913 C 12.331 9.905,12.367 9.637,12.419 9.319 C 12.471 9.000,12.546 8.492,12.586 8.190 L 12.658 7.640 12.929 7.640 L 13.200 7.640 13.200 7.758 M9.193 7.765 C 9.344 7.859,9.324 7.914,9.076 8.083 C 8.944 8.173,8.825 8.273,8.812 8.306 C 8.800 8.338,8.859 8.512,8.943 8.691 C 9.046 8.912,9.102 9.091,9.112 9.243 C 9.128 9.457,9.122 9.476,8.987 9.610 C 8.719 9.878,8.167 10.007,8.000 9.840 C 7.830 9.670,7.932 9.527,8.289 9.438 C 8.602 9.360,8.603 9.341,8.320 8.784 C 8.123 8.396,8.075 8.266,8.096 8.182 C 8.130 8.048,8.440 7.733,8.566 7.706 C 8.723 7.673,9.102 7.708,9.193 7.765 M7.431 7.787 C 7.503 7.799,7.581 7.845,7.604 7.888 C 7.692 8.052,7.629 9.373,7.519 9.661 C 7.461 9.815,7.331 9.853,6.794 9.872 L 6.287 9.890 6.228 9.775 C 6.034 9.400,6.064 9.079,6.316 8.840 C 6.397 8.763,6.611 8.621,6.792 8.524 C 6.972 8.427,7.120 8.334,7.120 8.317 C 7.120 8.273,7.029 8.250,6.640 8.199 C 6.453 8.174,6.292 8.145,6.281 8.135 C 6.247 8.100,6.448 7.765,6.514 7.745 C 6.588 7.722,7.231 7.752,7.431 7.787 M11.909 7.824 C 12.035 7.904,12.148 8.144,12.204 8.449 C 12.261 8.759,12.234 8.902,12.110 8.935 C 12.061 8.948,11.806 8.959,11.545 8.959 L 11.070 8.960 11.093 9.107 C 11.133 9.352,11.187 9.378,11.696 9.394 L 12.150 9.408 12.090 9.562 C 11.983 9.834,11.876 9.900,11.547 9.898 C 10.904 9.895,10.548 9.452,10.643 8.772 C 10.705 8.335,10.762 8.194,11.015 7.866 L 11.133 7.712 11.477 7.739 C 11.666 7.754,11.860 7.793,11.909 7.824 M14.680 7.792 C 14.680 7.832,14.735 7.849,15.047 7.902 C 15.225 7.933,15.387 7.891,15.326 7.830 C 15.268 7.772,14.680 7.737,14.680 7.792 M17.385 7.989 C 17.296 8.290,17.129 9.777,17.155 10.030 C 17.161 10.091,17.354 10.095,17.505 10.038 L 17.615 9.996 17.483 9.916 C 17.367 9.846,17.355 9.821,17.375 9.708 C 17.473 9.170,17.518 7.988,17.443 7.942 C 17.422 7.929,17.396 7.951,17.385 7.989 M15.560 8.072 C 15.560 8.271,15.774 8.357,16.270 8.359 C 16.588 8.360,16.658 8.302,16.390 8.260 C 16.101 8.215,15.764 8.113,15.716 8.055 C 15.651 7.977,15.560 7.987,15.560 8.072 M11.301 8.278 L 11.147 8.437 11.256 8.478 C 11.316 8.501,11.388 8.520,11.417 8.520 C 11.504 8.520,11.720 8.434,11.720 8.399 C 11.720 8.356,11.521 8.120,11.485 8.120 C 11.469 8.120,11.387 8.191,11.301 8.278 M18.384 8.322 C 18.253 8.437,18.240 8.467,18.241 8.654 C 18.242 9.050,18.419 9.705,18.577 9.898 C 18.680 10.023,18.966 10.064,19.426 10.020 C 19.745 9.989,19.750 9.929,19.434 9.923 C 19.221 9.919,18.785 9.774,18.699 9.679 C 18.635 9.608,18.620 9.498,18.596 8.916 C 18.581 8.541,18.559 8.226,18.548 8.215 C 18.537 8.204,18.464 8.252,18.384 8.322 M19.350 8.224 C 19.295 8.278,19.626 9.011,19.695 8.988 C 19.720 8.980,19.745 8.865,19.752 8.733 C 19.763 8.497,19.760 8.490,19.602 8.346 C 19.441 8.201,19.395 8.179,19.350 8.224 M16.290 8.940 C 16.102 9.021,16.134 9.122,16.366 9.180 C 16.500 9.214,16.620 9.072,16.557 8.954 C 16.510 8.866,16.464 8.864,16.290 8.940 M6.753 9.078 C 6.617 9.213,6.601 9.247,6.639 9.318 C 6.663 9.363,6.702 9.400,6.725 9.400 C 6.809 9.400,6.990 9.267,7.054 9.160 C 7.114 9.058,7.113 9.046,7.046 8.985 C 6.946 8.895,6.931 8.899,6.753 9.078 M15.328 9.366 C 15.349 9.703,15.411 9.857,15.573 9.976 C 15.670 10.048,15.743 10.060,16.093 10.060 C 16.512 10.060,16.720 10.027,16.720 9.961 C 16.720 9.867,16.562 9.843,16.219 9.885 C 15.877 9.926,15.867 9.925,15.774 9.832 C 15.722 9.780,15.617 9.594,15.541 9.419 C 15.357 8.997,15.303 8.984,15.328 9.366 " fill="#16366F" stroke="none" fill-rule="evenodd"></path></svg>