<svg width="24" height="17" viewBox="0 0 24 17" fill="none" xmlns="http://www.w3.org/2000/svg"><path d="M9.520 0.923 C 1.131 0.958,1.157 0.958,0.940 1.071 C 0.751 1.170,0.531 1.366,0.224 1.710 L 0.000 1.959 0.000 8.423 L 0.000 14.886 0.182 15.123 C 0.477 15.506,0.933 15.953,1.103 16.024 C 1.243 16.083,1.645 16.094,4.780 16.123 C 6.716 16.141,11.579 16.156,15.587 16.158 L 22.874 16.160 23.257 15.750 C 23.467 15.525,23.722 15.232,23.823 15.100 L 24.006 14.860 23.989 8.460 C 23.974 2.403,23.969 2.052,23.902 1.920 C 23.862 1.843,23.623 1.578,23.371 1.330 L 22.911 0.880 19.746 0.887 C 18.005 0.890,13.403 0.907,9.520 0.923 " fill="white" stroke="none" fill-rule="evenodd"></path></svg>