<svg width="24" height="17" viewBox="0 0 24 17" fill="none" xmlns="http://www.w3.org/2000/svg">
<g clip-path="url(#clip0_3242_62110)">
<path d="M22.3077 0.769226H1.69231C0.759169 0.769226 0 1.5284 0 2.46153V14.4923C0 15.4254 0.759169 16.1846 1.69231 16.1846H22.3077C23.2408 16.1846 24 15.4254 24 14.4923V2.46153C24 1.5284 23.2408 0.769226 22.3077 0.769226Z" fill="white"/>
<path d="M5.181 5.99538C4.92257 5.81771 4.58534 5.72867 4.16931 5.72867H2.55866C2.43113 5.72867 2.36066 5.79245 2.34728 5.91987L1.69297 10.0269C1.68617 10.0673 1.69626 10.1042 1.72316 10.1377C1.74989 10.1713 1.78353 10.1881 1.8238 10.1881H2.58885C2.72303 10.1881 2.79679 10.1244 2.81033 9.99679L2.99149 8.88956C2.99811 8.8359 3.02171 8.79227 3.06199 8.75867C3.10223 8.72513 3.15257 8.70316 3.21297 8.69313C3.27337 8.68316 3.33033 8.67815 3.38411 8.67815C3.43774 8.67815 3.50146 8.68153 3.5754 8.68821C3.64916 8.69491 3.69617 8.69818 3.71633 8.69818C4.29343 8.69818 4.74642 8.53556 5.07531 8.20999C5.40405 7.88454 5.5686 7.43325 5.5686 6.85602C5.5686 6.46008 5.43931 6.17319 5.181 5.99525V5.99538ZM4.35054 7.22861C4.31688 7.46353 4.22974 7.61781 4.08882 7.69165C3.94786 7.76559 3.74654 7.80233 3.48485 7.80233L3.15263 7.81242L3.3238 6.73528C3.33716 6.66153 3.38076 6.62461 3.45463 6.62461H3.64596C3.91426 6.62461 4.109 6.66328 4.2298 6.74033C4.35054 6.81756 4.39082 6.98039 4.35054 7.22861Z" fill="#003087"/>
<path d="M22.1784 5.72861H21.4335C21.3595 5.72861 21.3159 5.76553 21.3026 5.83935L20.6483 10.027L20.6382 10.0472C20.6382 10.0809 20.6516 10.1126 20.6785 10.1428C20.7052 10.1729 20.7389 10.1881 20.7792 10.1881H21.4436C21.571 10.1881 21.6414 10.1245 21.655 9.99685L22.3094 5.87962V5.86962C22.3093 5.77568 22.2655 5.7287 22.1784 5.7287V5.72861Z" fill="#009CDE"/>
<path d="M13.1786 7.34954C13.1786 7.31606 13.1651 7.28413 13.1384 7.25397C13.1114 7.22379 13.0812 7.20862 13.0478 7.20862H12.2726C12.1987 7.20862 12.1383 7.24234 12.0914 7.30926L11.0244 8.87973L10.5815 7.36973C10.5478 7.2624 10.474 7.20862 10.36 7.20862H9.60492C9.57129 7.20862 9.54108 7.22376 9.5144 7.25397C9.48748 7.28413 9.47412 7.3161 9.47412 7.34954C9.47412 7.36308 9.53957 7.56096 9.6704 7.94348C9.80123 8.32606 9.94218 8.7388 10.0932 9.18176C10.2442 9.62465 10.323 9.85963 10.3298 9.88631C9.77941 10.638 9.50434 11.0407 9.50434 11.0943C9.50434 11.1816 9.54794 11.2252 9.6352 11.2252H10.4103C10.4841 11.2252 10.5445 11.1917 10.5915 11.1246L13.1585 7.41994C13.1718 7.40662 13.1786 7.38323 13.1786 7.34951V7.34954Z" fill="#003087"/>
<path d="M20.3967 7.20861H19.6316C19.5376 7.20861 19.4807 7.31935 19.4606 7.54083C19.2859 7.27252 18.9673 7.13812 18.5042 7.13812C18.021 7.13812 17.6099 7.31935 17.271 7.68175C16.9321 8.04418 16.7627 8.4704 16.7627 8.96025C16.7627 9.35628 16.8784 9.67166 17.1099 9.90646C17.3414 10.1415 17.6518 10.2588 18.0412 10.2588C18.2357 10.2588 18.4337 10.2185 18.635 10.138C18.8364 10.0575 18.994 9.95015 19.1082 9.81588C19.1082 9.82261 19.1014 9.85274 19.0881 9.9064C19.0746 9.96018 19.068 10.0006 19.068 10.0272C19.068 10.1347 19.1115 10.1882 19.1989 10.1882H19.8935C20.0208 10.1882 20.0948 10.1246 20.1148 9.99698L20.5276 7.36963C20.5342 7.32935 20.5242 7.29249 20.4974 7.25889C20.4705 7.22545 20.437 7.20861 20.3967 7.20861ZM19.083 9.19175C18.9119 9.35954 18.7055 9.44342 18.464 9.44342C18.2692 9.44342 18.1117 9.38981 17.9908 9.28237C17.87 9.1752 17.8096 9.02754 17.8096 8.83942C17.8096 8.59129 17.8935 8.38145 18.0613 8.21031C18.2289 8.03917 18.4371 7.9536 18.6854 7.9536C18.8732 7.9536 19.0292 8.00898 19.1535 8.11966C19.2775 8.2304 19.3398 8.38314 19.3398 8.57775C19.3397 8.81932 19.2541 9.02406 19.083 9.19175Z" fill="#009CDE"/>
<path d="M8.96072 7.20861H8.19568C8.10158 7.20861 8.04466 7.31935 8.02451 7.54083C7.84331 7.27252 7.52451 7.13812 7.06817 7.13812C6.58497 7.13812 6.17386 7.31935 5.835 7.68175C5.49604 8.04418 5.32666 8.4704 5.32666 8.96025C5.32666 9.35628 5.44244 9.67166 5.67398 9.90646C5.90552 10.1415 6.21583 10.2588 6.60512 10.2588C6.79294 10.2588 6.98768 10.2185 7.18897 10.138C7.39029 10.0575 7.55137 9.95015 7.67217 9.81588C7.64524 9.89637 7.63189 9.96686 7.63189 10.0272C7.63189 10.1347 7.67549 10.1882 7.76275 10.1882H8.45734C8.58475 10.1882 8.65866 10.1246 8.67881 9.99698L9.09152 7.36963C9.09814 7.32935 9.08808 7.29249 9.06134 7.25889C9.03448 7.22545 9.00097 7.20861 8.96072 7.20861ZM7.64703 9.19674C7.47586 9.36138 7.26604 9.44342 7.01789 9.44342C6.82315 9.44342 6.66712 9.38981 6.54977 9.28237C6.43226 9.1752 6.37358 9.02754 6.37358 8.83942C6.37358 8.59129 6.45743 8.38145 6.62528 8.21031C6.79294 8.03917 7.001 7.9536 7.2494 7.9536C7.43721 7.9536 7.59324 8.00898 7.71752 8.11969C7.84158 8.23043 7.90374 8.38317 7.90374 8.57778C7.90374 8.82606 7.81817 9.03249 7.64703 9.19674Z" fill="#003087"/>
<path d="M16.6166 5.99538C16.3582 5.81771 16.021 5.72867 15.6049 5.72867H14.0043C13.87 5.72867 13.7962 5.79245 13.7829 5.91987L13.1285 10.0269C13.1217 10.0673 13.1318 10.1042 13.1587 10.1377C13.1853 10.1713 13.2191 10.1881 13.2594 10.1881H14.0848C14.1653 10.1881 14.219 10.1445 14.2458 10.0572L14.4271 8.88956C14.4337 8.8359 14.4572 8.79227 14.4975 8.75867C14.5378 8.72513 14.5881 8.70319 14.6486 8.69313C14.7089 8.68316 14.7658 8.67815 14.8197 8.67815C14.8733 8.67815 14.937 8.68153 15.0109 8.68821C15.0847 8.69491 15.1318 8.69818 15.1518 8.69818C15.729 8.69818 16.1819 8.53556 16.5108 8.20999C16.8397 7.88454 17.0041 7.43325 17.0041 6.85602C17.0042 6.46011 16.8749 6.17322 16.6166 5.99528V5.99538ZM15.5848 7.65138C15.4371 7.75202 15.2156 7.80233 14.9204 7.80233L14.5982 7.81242L14.7694 6.73528C14.7827 6.66153 14.8263 6.62461 14.9002 6.62461H15.0814C15.229 6.62461 15.3464 6.63131 15.4338 6.6447C15.5209 6.65824 15.6049 6.70005 15.6854 6.77051C15.766 6.84101 15.8062 6.94338 15.8062 7.07759C15.8062 7.35944 15.7323 7.55067 15.5848 7.65138Z" fill="#009CDE"/>
</g>
<defs>
<clipPath id="clip0_3242_62110">
<rect width="24" height="15.3846" fill="white" transform="translate(0 0.769226)"/>
</clipPath>
</defs>
</svg>
