<svg width="24" height="16" viewBox="0 0 24 16" fill="none" xmlns="http://www.w3.org/2000/svg"><path d="M9.596 0.359 C 1.786 0.377,0.603 0.388,0.542 0.439 C 0.503 0.471,0.365 0.627,0.236 0.785 L -0.000 1.074 0.002 6.327 C 0.004 11.704,0.042 14.542,0.113 14.720 C 0.136 14.775,0.291 14.978,0.459 15.170 L 0.764 15.520 11.978 15.520 L 23.192 15.520 23.596 15.097 L 24.000 14.673 24.000 7.840 L 24.000 1.007 23.822 0.788 C 23.723 0.668,23.572 0.513,23.486 0.445 L 23.328 0.320 20.954 0.329 C 19.648 0.334,14.537 0.348,9.596 0.359 M6.157 5.224 C 6.168 5.235,6.137 5.571,6.088 5.972 C 6.039 6.372,5.999 6.811,6.000 6.947 C 6.000 7.166,6.012 7.204,6.105 7.277 C 6.243 7.385,6.284 7.382,6.410 7.250 C 6.545 7.109,6.661 6.854,6.957 6.044 C 7.089 5.685,7.225 5.348,7.259 5.296 C 7.331 5.186,7.446 5.172,7.537 5.263 C 7.615 5.341,7.616 5.431,7.542 5.814 C 7.350 6.817,6.983 7.493,6.538 7.663 C 6.288 7.758,5.685 7.729,5.530 7.614 C 5.327 7.464,5.300 7.352,5.354 6.874 C 5.422 6.254,5.595 5.355,5.666 5.245 C 5.722 5.159,5.746 5.153,5.933 5.178 C 6.046 5.193,6.147 5.214,6.157 5.224 M15.206 5.242 C 15.969 5.319,16.081 5.378,16.078 5.696 C 16.076 5.901,16.006 6.111,15.862 6.349 C 15.771 6.500,15.444 6.684,15.100 6.779 C 14.655 6.902,14.647 6.908,14.480 7.241 C 14.334 7.531,14.120 7.800,14.036 7.800 C 13.881 7.800,13.909 7.333,14.124 6.360 C 14.288 5.619,14.390 5.290,14.471 5.242 C 14.560 5.191,14.699 5.191,15.206 5.242 M15.004 5.695 C 14.905 5.801,14.791 6.131,14.825 6.218 C 14.837 6.249,14.874 6.285,14.909 6.298 C 15.006 6.335,15.306 6.169,15.398 6.028 L 15.480 5.900 15.321 5.750 C 15.234 5.668,15.148 5.600,15.129 5.600 C 15.110 5.600,15.054 5.643,15.004 5.695 M10.047 6.146 C 10.087 6.183,10.120 6.235,10.120 6.263 C 10.120 6.316,9.883 6.480,9.805 6.480 C 9.731 6.480,9.754 6.298,9.843 6.185 C 9.940 6.061,9.951 6.059,10.047 6.146 M18.284 6.370 C 18.337 6.420,18.418 6.512,18.464 6.576 L 18.548 6.693 18.741 6.545 C 19.096 6.274,19.264 6.305,19.126 6.615 C 18.821 7.305,18.085 8.506,17.769 8.831 C 17.599 9.005,17.386 9.119,17.331 9.064 C 17.320 9.053,17.463 8.787,17.650 8.472 L 17.989 7.900 18.017 7.121 C 18.033 6.693,18.055 6.328,18.065 6.311 C 18.100 6.255,18.186 6.278,18.284 6.370 M8.972 6.397 C 9.112 6.450,9.131 6.545,9.079 6.928 C 9.010 7.431,8.773 7.800,8.519 7.800 C 8.440 7.800,8.433 7.786,8.456 7.670 C 8.536 7.276,8.531 6.880,8.447 6.880 C 8.429 6.880,8.328 7.029,8.220 7.210 C 7.987 7.606,7.845 7.800,7.790 7.800 C 7.763 7.800,7.756 7.611,7.769 7.250 C 7.790 6.675,7.845 6.450,7.986 6.362 C 8.071 6.309,8.810 6.335,8.972 6.397 M13.344 6.409 C 13.468 6.466,13.497 6.582,13.467 6.914 C 13.437 7.261,13.339 7.580,13.231 7.679 C 13.149 7.756,12.897 7.830,12.856 7.790 C 12.845 7.779,12.858 7.619,12.885 7.434 C 12.940 7.056,12.913 6.843,12.820 6.920 C 12.789 6.946,12.683 7.105,12.583 7.274 C 12.358 7.659,12.243 7.789,12.195 7.714 C 12.124 7.602,12.192 6.644,12.283 6.474 C 12.304 6.434,12.380 6.384,12.451 6.362 C 12.605 6.315,13.206 6.346,13.344 6.409 M17.417 6.344 C 17.504 6.378,17.498 6.512,17.372 7.233 L 17.264 7.851 16.818 7.826 C 16.394 7.802,16.092 7.733,15.973 7.635 C 15.940 7.607,15.920 7.504,15.920 7.361 C 15.920 7.063,16.094 6.705,16.348 6.481 L 16.531 6.320 16.942 6.320 C 17.168 6.320,17.382 6.331,17.417 6.344 M11.649 6.459 C 11.745 6.499,11.778 6.725,11.725 6.987 C 11.648 7.372,11.442 7.612,11.079 7.740 C 10.851 7.821,10.712 7.787,10.562 7.616 C 10.459 7.499,10.440 7.444,10.440 7.269 C 10.441 7.034,10.560 6.741,10.742 6.525 L 10.856 6.390 11.218 6.411 C 11.417 6.422,11.611 6.444,11.649 6.459 M9.952 6.648 C 10.013 6.709,10.013 7.044,9.954 7.470 C 9.912 7.774,9.901 7.800,9.817 7.800 C 9.698 7.800,9.510 7.728,9.471 7.667 C 9.374 7.514,9.524 6.904,9.705 6.715 C 9.825 6.589,9.879 6.575,9.952 6.648 M11.098 6.738 C 10.955 6.955,10.890 7.360,10.996 7.360 C 11.112 7.360,11.306 6.908,11.263 6.739 C 11.232 6.614,11.179 6.613,11.098 6.738 M16.590 6.790 C 16.460 6.936,16.389 7.400,16.497 7.400 C 16.647 7.400,16.842 6.954,16.760 6.800 C 16.707 6.702,16.671 6.700,16.590 6.790 M12.948 8.559 C 13.129 8.628,13.195 8.633,13.448 8.600 C 13.609 8.580,13.846 8.562,13.975 8.561 L 14.210 8.560 14.189 8.691 C 14.178 8.763,14.110 8.972,14.039 9.156 C 13.884 9.558,13.702 9.760,13.405 9.858 C 13.292 9.896,13.200 9.943,13.200 9.963 C 13.200 9.983,13.288 10.000,13.395 10.000 C 13.502 10.000,13.645 10.011,13.712 10.024 L 13.834 10.049 13.595 10.349 C 13.464 10.515,13.366 10.659,13.377 10.671 C 13.389 10.682,13.439 10.712,13.489 10.737 C 13.603 10.793,13.628 10.966,13.537 11.058 C 13.478 11.116,13.415 11.122,13.084 11.099 C 12.851 11.083,12.626 11.090,12.510 11.117 C 12.344 11.155,12.297 11.150,12.139 11.076 C 12.040 11.029,11.949 10.975,11.937 10.955 C 11.880 10.862,12.292 9.132,12.444 8.829 C 12.527 8.664,12.671 8.480,12.717 8.480 C 12.730 8.480,12.834 8.516,12.948 8.559 M17.060 8.665 C 17.197 8.954,16.988 9.096,16.559 9.004 C 16.446 8.979,16.338 8.969,16.319 8.980 C 16.227 9.037,15.840 10.262,15.840 10.497 C 15.840 10.545,15.863 10.616,15.891 10.655 C 15.940 10.721,15.948 10.721,16.044 10.645 C 16.100 10.601,16.189 10.485,16.241 10.387 L 16.335 10.209 16.220 10.110 L 16.105 10.011 16.297 9.833 L 16.488 9.655 16.378 9.525 C 16.300 9.432,16.281 9.383,16.312 9.352 C 16.338 9.326,16.625 9.301,17.032 9.289 C 17.903 9.264,17.916 9.277,17.415 9.663 L 17.308 9.746 17.454 9.836 C 17.534 9.886,17.600 9.940,17.600 9.956 C 17.600 9.972,17.492 10.037,17.360 10.100 C 17.228 10.163,17.120 10.217,17.120 10.220 C 17.120 10.223,17.165 10.358,17.220 10.520 C 17.341 10.875,17.344 10.944,17.240 11.000 C 17.149 11.049,17.010 10.991,16.806 10.819 L 16.682 10.715 16.502 10.839 C 16.196 11.049,16.052 11.080,15.385 11.079 C 14.820 11.078,14.301 11.034,14.249 10.982 C 14.204 10.937,14.477 9.836,14.763 8.918 L 14.886 8.520 15.939 8.520 L 16.991 8.520 17.060 8.665 M11.918 8.699 C 12.153 8.818,12.187 8.863,12.086 8.917 C 11.947 8.991,11.331 9.155,11.084 9.183 C 10.854 9.209,10.840 9.205,10.840 9.127 C 10.840 9.028,11.050 8.777,11.220 8.673 C 11.394 8.568,11.679 8.578,11.918 8.699 M15.471 8.942 C 15.341 9.013,15.227 9.189,15.339 9.146 C 15.376 9.132,15.420 9.120,15.436 9.120 C 15.480 9.120,15.640 8.962,15.640 8.918 C 15.640 8.867,15.600 8.872,15.471 8.942 M13.047 8.962 C 12.936 9.007,12.968 9.080,13.100 9.080 C 13.238 9.080,13.409 9.007,13.380 8.960 C 13.350 8.911,13.172 8.912,13.047 8.962 M11.702 9.375 C 11.855 9.400,11.979 9.438,11.977 9.460 C 11.975 9.482,11.871 9.561,11.745 9.637 L 11.517 9.773 11.658 9.918 C 11.736 9.998,11.800 10.081,11.800 10.102 C 11.800 10.124,11.674 10.219,11.520 10.314 C 11.366 10.409,11.240 10.500,11.240 10.517 C 11.240 10.533,11.294 10.628,11.361 10.728 C 11.498 10.936,11.487 11.016,11.311 11.077 C 11.022 11.178,10.793 11.073,10.723 10.808 C 10.702 10.727,10.656 10.547,10.620 10.410 L 10.556 10.160 10.718 9.933 C 10.807 9.809,10.880 9.694,10.880 9.678 C 10.880 9.662,10.844 9.640,10.800 9.628 C 10.739 9.613,10.720 9.574,10.720 9.467 C 10.720 9.390,10.742 9.317,10.770 9.306 C 10.834 9.278,11.346 9.316,11.702 9.375 M12.863 9.476 C 12.887 9.502,12.977 9.534,13.063 9.547 C 13.182 9.565,13.209 9.559,13.177 9.524 C 13.153 9.498,13.063 9.466,12.977 9.453 C 12.858 9.435,12.831 9.441,12.863 9.476 M15.203 9.664 C 15.075 9.771,15.041 9.880,15.135 9.880 C 15.205 9.880,15.400 9.685,15.400 9.615 C 15.400 9.533,15.340 9.548,15.203 9.664 M12.584 10.130 C 12.491 10.272,12.426 10.582,12.471 10.663 C 12.507 10.727,12.519 10.725,12.613 10.631 C 12.724 10.520,12.783 10.298,12.744 10.140 C 12.712 10.016,12.660 10.013,12.584 10.130 M14.958 10.394 C 14.853 10.478,14.874 10.600,14.993 10.600 C 15.091 10.600,15.216 10.459,15.186 10.381 C 15.155 10.299,15.069 10.304,14.958 10.394 " fill="white" stroke="none" fill-rule="evenodd"></path></svg>