<svg width="24" height="16" viewBox="0 0 24 16" fill="none" xmlns="http://www.w3.org/2000/svg">
<g clip-path="url(#clip0_3242_62118)">
<path d="M1.23077 0.15387H22.7692C23.449 0.15387 24 0.704916 24 1.38464V14.3077C24 14.9875 23.449 15.5385 22.7692 15.5385H1.23077C0.551046 15.5385 0 14.9875 0 14.3077V1.38464C0 0.704916 0.551046 0.15387 1.23077 0.15387Z" fill="white"/>
<path d="M6.65856 2.30128H11.0398C11.6512 2.30128 12.0332 2.80608 11.8899 3.42344L9.84893 12.269C9.70566 12.8863 9.09111 13.3911 8.47976 13.3911H4.09853C3.48714 13.3911 3.10508 12.8863 3.24837 12.269L5.28933 3.42344C5.43262 2.80288 6.04397 2.30128 6.65533 2.30128H6.65856Z" fill="#D10429"/>
<path d="M10.6565 2.30128H15.6971C16.3084 2.30128 16.0314 2.80608 15.8881 3.42344L13.8471 12.269C13.7038 12.8863 13.7484 13.3911 13.137 13.3911H8.0967C7.48218 13.3911 7.10326 12.8863 7.24972 12.269L9.29076 3.42344C9.43402 2.80288 10.0453 2.30128 10.6599 2.30128H10.6567H10.6565Z" fill="#022E64"/>
<path d="M15.5203 2.30128H19.9018C20.5132 2.30128 20.8952 2.80608 20.7519 3.42344L18.7109 12.269C18.5676 12.8863 17.9531 13.3911 17.3417 13.3911H12.9605C12.346 13.3911 11.9671 12.8863 12.1104 12.269L14.1514 3.42344C14.2946 2.80288 14.906 2.30128 15.5173 2.30128H15.5205H15.5203Z" fill="#076F74"/>
<path d="M14.7849 10.6403H15.1988L15.3166 10.2384H14.9058L14.7849 10.6403ZM15.116 9.53418L14.9727 10.0101C14.9727 10.0101 15.1287 9.92968 15.2147 9.90396C15.3007 9.88467 15.428 9.86858 15.428 9.86858L15.5267 9.53741H15.1129L15.116 9.53418ZM15.3229 8.85255L15.1861 9.30913C15.1861 9.30913 15.3389 9.23836 15.4249 9.21593C15.5108 9.19341 15.6382 9.18698 15.6382 9.18698L15.7369 8.85578H15.3261L15.3229 8.85255ZM16.2368 8.85255L15.7019 10.6371H15.8452L15.7337 11.0069H15.5904L15.5554 11.1194H15.0459L15.081 11.0069H14.0493L14.1512 10.6661H14.2563L14.7976 8.85258L14.9059 8.48602H15.4249L15.3707 8.66928C15.3707 8.66928 15.5076 8.56962 15.6414 8.53421C15.772 8.49888 16.5234 8.48602 16.5234 8.48602L16.412 8.84938H16.2337L16.2368 8.85255Z" fill="#FEFEFE"/>
<path d="M16.4487 8.48587H17.0027L17.0091 8.69486C17.0059 8.73021 17.0346 8.7463 17.1014 8.7463H17.2129L17.111 9.09039H16.8117C16.5537 9.10969 16.455 8.99716 16.4614 8.87175L16.4518 8.48907L16.4487 8.48587ZM16.5169 10.1228H15.9883L16.0774 9.81735H16.6824L16.7684 9.53759H16.173L16.2749 9.19353H17.9306L17.8287 9.53759H17.2715L17.1855 9.81735H17.7427L17.6504 10.1228H17.0486L16.9403 10.2514H17.1855L17.246 10.6373C17.2524 10.6758 17.2524 10.7016 17.2651 10.7177C17.2778 10.7305 17.3511 10.7369 17.3925 10.7369H17.4657L17.3511 11.1132H17.1632C17.1346 11.1132 17.09 11.11 17.0295 11.11C16.9721 11.1035 16.934 11.0713 16.8957 11.0521C16.8607 11.036 16.8098 10.9942 16.797 10.9202L16.7397 10.5344L16.4659 10.9138C16.3799 11.0328 16.2621 11.126 16.0615 11.126H15.6794L15.7813 10.7916H15.9278C15.9692 10.7916 16.0074 10.7756 16.0361 10.7594C16.0647 10.7466 16.0902 10.7337 16.1157 10.692L16.5169 10.1228ZM10.7353 9.28587H12.1332L12.0313 9.6235H11.4741L11.3881 9.90962H11.9613L11.8562 10.2569H11.2862L11.1461 10.7231C11.1302 10.7746 11.283 10.781 11.3372 10.781L11.6237 10.7424L11.5091 11.1283H10.8659C10.815 11.1283 10.7768 11.1218 10.7194 11.109C10.6653 11.0961 10.6398 11.0704 10.6175 11.035C10.5952 10.9965 10.557 10.9675 10.5825 10.8839L10.7671 10.2666H10.4487L10.5538 9.91289H10.8722L10.9582 9.62673H10.6398L10.7417 9.28907L10.7353 9.28587ZM11.7011 8.67556H12.2742L12.1692 9.02602H11.3859L11.2999 9.09999C11.2617 9.13538 11.2521 9.12252 11.2044 9.14824C11.1598 9.1707 11.0675 9.21572 10.9465 9.21572H10.6949L10.7968 8.87812H10.8732C10.9369 8.87812 10.9815 8.87166 11.0038 8.85882C11.0293 8.84276 11.0579 8.80738 11.0865 8.74947L11.2298 8.48584H11.7998L11.7011 8.67876V8.67556ZM12.7813 9.25433C12.7813 9.25433 12.9373 9.10969 13.2048 9.06467C13.2653 9.05181 13.6474 9.05818 13.6474 9.05818L13.7047 8.86526H12.8991L12.7813 9.25756L12.7813 9.25433ZM13.5391 9.40224H12.7399L12.6921 9.56621H13.3863C13.4691 9.55658 13.485 9.56941 13.4914 9.56301L13.5423 9.40224H13.5391ZM12.5011 8.48907H12.9883L12.9183 8.73667C12.9183 8.73667 13.0711 8.61129 13.1793 8.56624C13.2876 8.52766 13.5296 8.48907 13.5296 8.48907L14.3193 8.48587L14.0486 9.39261C14.004 9.54695 13.9499 9.64664 13.9181 9.69486C13.8894 9.73987 13.8544 9.78166 13.7843 9.82024C13.7175 9.85562 13.6569 9.87812 13.5997 9.88135C13.5487 9.88455 13.4659 9.88778 13.3577 9.88778H12.5967L12.3833 10.6048C12.3642 10.6755 12.3547 10.7109 12.3674 10.7301C12.3769 10.7462 12.4056 10.7655 12.4406 10.7655L12.7749 10.7334L12.6603 11.1257H12.2846C12.1636 11.1257 12.0776 11.1225 12.0171 11.1192C11.9598 11.1128 11.8993 11.1192 11.8579 11.0871C11.8229 11.0549 11.7688 11.0131 11.7719 10.9713C11.7751 10.9327 11.791 10.8684 11.8165 10.7784L12.5011 8.48907Z" fill="#FEFEFE"/>
<path d="M13.921 9.93202L13.8765 10.1506C13.8574 10.2181 13.8414 10.2696 13.7905 10.3146C13.7364 10.3597 13.6759 10.4079 13.5294 10.4079L13.2588 10.4207L13.2556 10.6651C13.2524 10.7326 13.2716 10.7261 13.2811 10.739C13.2938 10.7519 13.3033 10.7551 13.3161 10.7615L13.4021 10.7551L13.66 10.7422L13.5517 11.1024H13.2556C13.0486 11.1024 12.8926 11.0959 12.8448 11.0573C12.7939 11.0252 12.7875 10.9866 12.7875 10.9158L12.8066 9.95765H13.2811L13.2747 10.1538H13.3893C13.4275 10.1538 13.4562 10.1506 13.4721 10.1409C13.488 10.1313 13.4976 10.1152 13.504 10.0927L13.5517 9.93836H13.9243L13.921 9.93202ZM7.17119 5.13202C7.15528 5.20919 6.84962 6.62716 6.84962 6.62716C6.78273 6.91331 6.73498 7.11913 6.57578 7.25094C6.48344 7.32811 6.37516 7.36347 6.25101 7.36347C6.05039 7.36347 5.93578 7.2638 5.91667 7.07411L5.91347 7.0098C5.91347 7.0098 5.97396 6.62716 5.97396 6.62396C5.97396 6.62396 6.29239 5.33137 6.34972 5.16094C6.35288 5.15131 6.35288 5.14488 6.35288 5.14165C5.73196 5.14811 5.62055 5.14165 5.61418 5.13202C5.61098 5.14488 5.59507 5.22525 5.59507 5.22525L5.27027 6.68187L5.24159 6.80402L5.1875 7.20919C5.1875 7.32814 5.20978 7.4278 5.25756 7.5082C5.40719 7.77187 5.8307 7.81045 6.0695 7.81045C6.37836 7.81045 6.66812 7.74291 6.86233 7.62396C7.20304 7.42137 7.29218 7.10307 7.36861 6.82334L7.40682 6.67863C7.40682 6.67863 7.73479 5.33783 7.79212 5.1642C7.79528 5.15454 7.79528 5.14811 7.79848 5.14491C7.34633 5.14811 7.21578 5.14491 7.17119 5.13525V5.13202ZM8.9875 7.79734C8.76778 7.79411 8.68818 7.79411 8.43027 7.80697L8.4207 7.78768C8.44298 7.68799 8.46845 7.59156 8.48756 7.49187L8.51941 7.35682C8.56716 7.14783 8.61175 6.90023 8.61812 6.8263C8.62448 6.78128 8.63719 6.66876 8.50984 6.66876C8.45572 6.66876 8.40159 6.69445 8.3443 6.72017C8.31242 6.83273 8.25193 7.14783 8.22008 7.28931C8.15639 7.59156 8.15322 7.62691 8.12458 7.77485L8.10547 7.79411C7.87941 7.79091 7.79981 7.79091 7.5387 7.80377L7.52596 7.78125C7.57055 7.60119 7.61193 7.42113 7.65335 7.24107C7.76159 6.75553 7.79027 6.56907 7.81888 6.32147L7.84119 6.3086C8.09593 6.27325 8.15642 6.26359 8.43344 6.20894L8.45572 6.23467L8.41433 6.389C8.46208 6.36008 8.50667 6.33113 8.55442 6.3086C8.68498 6.2443 8.82827 6.225 8.90787 6.225C9.02885 6.225 9.16261 6.26039 9.21673 6.40187C9.26768 6.52725 9.23581 6.68159 9.16578 6.98707L9.13076 7.1414C9.0607 7.48223 9.04799 7.54331 9.00975 7.77482L8.9843 7.79411L8.9875 7.79734ZM9.88156 7.79817C9.74784 7.79817 9.66187 7.79497 9.5791 7.79817C9.4963 7.79817 9.4167 7.80463 9.29252 7.80783L9.28615 7.79817L9.27978 7.78531C9.31479 7.6567 9.33073 7.61168 9.34984 7.56667C9.36575 7.52165 9.38165 7.47663 9.41353 7.34482C9.45172 7.17439 9.47719 7.05543 9.4931 6.94931C9.51221 6.84962 9.52178 6.76285 9.53452 6.66316L9.54405 6.65673L9.55359 6.6471C9.68735 6.6278 9.77015 6.61494 9.85612 6.60208C9.94208 6.58922 10.0312 6.57316 10.1681 6.54743L10.1745 6.5603L10.1777 6.57316L10.1013 6.89147C10.0758 6.99759 10.0504 7.10368 10.0281 7.2098C9.98027 7.43488 9.95802 7.51848 9.94848 7.57956C9.93575 7.63743 9.93252 7.66639 9.91341 7.78214L9.90067 7.79177L9.88793 7.80143L9.88156 7.79817ZM11.2952 7.00817C11.2856 7.06605 11.2347 7.2815 11.1678 7.37153C11.12 7.43903 11.0659 7.48085 11.0022 7.48085C10.9831 7.48085 10.8748 7.48085 10.8717 7.31685C10.8717 7.23648 10.8876 7.15285 10.9067 7.06285C10.964 6.80239 11.0341 6.58697 11.2092 6.58697C11.3461 6.58697 11.3557 6.74774 11.2952 7.00817ZM11.8715 7.0339C11.9479 6.69307 11.8874 6.5323 11.8142 6.43583C11.6995 6.28793 11.4958 6.23971 11.2856 6.23971C11.1582 6.23971 10.8589 6.25257 10.6233 6.47122C10.4546 6.62876 10.375 6.8442 10.3304 7.04999C10.2826 7.25897 10.2285 7.63519 10.5724 7.77667C10.6774 7.82168 10.8303 7.83451 10.929 7.83451C11.1805 7.83451 11.4385 7.7638 11.6327 7.55802C11.7823 7.39082 11.8492 7.14002 11.8746 7.0339H11.8715ZM17.2385 7.83636C16.9711 7.83316 16.8947 7.83316 16.6494 7.84602L16.6335 7.82673C16.7004 7.5727 16.7673 7.31547 16.8277 7.05823C16.9041 6.72383 16.9233 6.58236 16.9488 6.38623L16.9678 6.37017C17.2321 6.33159 17.3054 6.32196 17.5824 6.27051L17.5888 6.293C17.5378 6.50522 17.4901 6.71423 17.4391 6.92322C17.3372 7.36374 17.3022 7.58882 17.264 7.82033L17.2385 7.83962V7.83636Z" fill="#FEFEFE"/>
<path d="M16.8538 7.0511C16.841 7.10574 16.7901 7.32439 16.7232 7.41442C16.6786 7.47873 16.5704 7.52054 16.5099 7.52054C16.4908 7.52054 16.3857 7.52054 16.3793 7.35977C16.3793 7.27937 16.3953 7.19577 16.4144 7.10574C16.4717 6.85174 16.5418 6.6363 16.7169 6.6363C16.8538 6.6363 16.9143 6.79384 16.8538 7.0543V7.0511ZM17.3792 7.07682C17.4555 6.73599 17.1435 7.0479 17.0958 6.93534C17.0193 6.75848 17.0671 6.40479 16.7614 6.28584C16.6436 6.23759 16.3666 6.2987 16.131 6.51734C15.9654 6.67168 15.8826 6.8871 15.8381 7.09288C15.7902 7.29867 15.7361 7.67811 16.0768 7.80993C16.1851 7.85814 16.2838 7.87101 16.3825 7.86457C16.7265 7.84528 16.9875 7.32116 17.1818 7.11537C17.3313 6.9514 17.3569 7.17648 17.3792 7.07682ZM13.381 7.79722C13.1613 7.79399 13.0849 7.79399 12.827 7.80685L12.8174 7.78756C12.8397 7.68787 12.8652 7.59144 12.8874 7.49174L12.9161 7.3567C12.9639 7.14771 13.0116 6.90011 13.0148 6.82617C13.0212 6.78116 13.0339 6.66864 12.9097 6.66864C12.8556 6.66864 12.7983 6.69433 12.7442 6.72005C12.7155 6.8326 12.6518 7.14771 12.62 7.28919C12.5595 7.59144 12.5531 7.62679 12.5245 7.77473L12.5053 7.79399C12.2793 7.79079 12.1997 7.79079 11.9386 7.80365L11.9258 7.78113C11.9704 7.60107 12.0118 7.421 12.0532 7.24094C12.1615 6.7554 12.187 6.56894 12.2188 6.32134L12.2379 6.30848C12.4926 6.27313 12.5563 6.26347 12.8301 6.20882L12.8525 6.23454L12.8142 6.38888C12.8588 6.35996 12.9066 6.331 12.9512 6.30848C13.0817 6.24417 13.225 6.22488 13.3045 6.22488C13.4256 6.22488 13.5561 6.26027 13.6134 6.40174C13.6644 6.52713 13.6294 6.68147 13.5593 6.98694L13.5243 7.14128C13.451 7.48211 13.4415 7.54319 13.4032 7.7747L13.3778 7.79399L13.381 7.79722ZM15.2887 5.1351L15.1041 5.13833C14.6264 5.14476 14.4354 5.14153 14.359 5.1319C14.3526 5.16728 14.3399 5.22836 14.3399 5.22836C14.3399 5.22836 14.1679 6.02577 14.1679 6.02897C14.1679 6.02897 13.7604 7.7267 13.7413 7.80707C14.1584 7.80064 14.3271 7.80064 14.4004 7.8103C14.4163 7.7299 14.5118 7.25725 14.515 7.25725C14.515 7.25725 14.5978 6.90999 14.601 6.89713C14.601 6.89713 14.6264 6.86174 14.6519 6.84568H14.6901C15.0499 6.84568 15.4543 6.84568 15.7728 6.61097C15.9893 6.4502 16.1357 6.20904 16.2026 5.91965C16.2185 5.84891 16.2313 5.76531 16.2313 5.67851C16.2313 5.56596 16.209 5.45667 16.1453 5.36984C15.9829 5.14153 15.6613 5.13833 15.2887 5.1351ZM15.5275 5.9679C15.4893 6.14473 15.3747 6.29587 15.2282 6.3666C15.1072 6.42768 14.9608 6.43411 14.8079 6.43411H14.7092L14.7156 6.39553C14.7156 6.39553 14.8971 5.59811 14.8971 5.60134L14.9034 5.55953L14.9066 5.52737L14.9799 5.53384C14.9799 5.53384 15.3556 5.56596 15.362 5.56596C15.5084 5.62384 15.5721 5.77174 15.5275 5.9679ZM19.4417 6.23454L19.4194 6.20882C19.1488 6.26347 19.0978 6.27313 18.8494 6.30851L18.8304 6.32777C18.8304 6.331 18.8272 6.33424 18.8272 6.34064V6.33744C18.6425 6.7715 18.6457 6.67827 18.4961 7.0191C18.4961 7.003 18.4961 6.99337 18.4928 6.97728L18.4546 6.23774L18.4324 6.21202C18.1458 6.2667 18.1394 6.27633 17.8783 6.31171L17.8592 6.331C17.856 6.34064 17.856 6.3503 17.856 6.35993L17.8592 6.36316C17.891 6.53356 17.8847 6.49497 17.9165 6.76187C17.9324 6.89368 17.9515 7.02553 17.9674 7.15414C17.9929 7.37279 18.0089 7.47888 18.0407 7.81008C17.8623 8.10587 17.8209 8.21842 17.649 8.47882L17.6586 8.50454C17.9165 8.49494 17.9738 8.49494 18.1649 8.49494L18.2063 8.4467C18.3496 8.13485 19.4449 6.23777 19.4449 6.23777L19.4417 6.23454ZM10.1272 6.44753C10.2737 6.34464 10.2928 6.20316 10.1686 6.12922C10.0444 6.05525 9.82473 6.07777 9.67824 6.18067C9.53178 6.28036 9.51587 6.4218 9.64005 6.49897C9.76104 6.56974 9.98073 6.55042 10.1272 6.44753Z" fill="#FEFEFE"/>
<path d="M18.164 8.48925L17.9506 8.85907C17.8837 8.98445 17.7564 9.08091 17.559 9.08091L17.2183 9.07448L17.317 8.74008H17.3838C17.4188 8.74008 17.4443 8.73688 17.4634 8.72722C17.4825 8.72079 17.4921 8.70793 17.508 8.68864L17.6354 8.48608H18.1672L18.164 8.48925Z" fill="#FEFEFE"/>
</g>
<defs>
<clipPath id="clip0_3242_62118">
<rect width="24" height="15.3846" fill="white" transform="translate(0 0.15387)"/>
</clipPath>
</defs>
</svg>
