<svg width="24" height="16" viewBox="0 0 24 16" fill="none" xmlns="http://www.w3.org/2000/svg"><path d="M9.596 0.359 C 1.786 0.377,0.603 0.388,0.542 0.439 C 0.503 0.471,0.365 0.627,0.236 0.785 L -0.000 1.074 0.002 6.327 C 0.004 11.704,0.042 14.542,0.113 14.720 C 0.136 14.775,0.291 14.978,0.459 15.170 L 0.764 15.520 11.978 15.520 L 23.192 15.520 23.596 15.097 L 24.000 14.673 24.000 7.840 L 24.000 1.007 23.822 0.788 C 23.723 0.668,23.572 0.513,23.486 0.445 L 23.328 0.320 20.954 0.329 C 19.648 0.334,14.537 0.348,9.596 0.359 M8.066 7.884 L 6.780 10.887 6.080 10.871 C 5.608 10.859,5.344 10.837,5.270 10.800 C 5.201 10.767,5.124 10.670,5.064 10.544 C 4.936 10.269,4.238 7.971,3.719 6.114 L 3.588 5.648 2.934 5.360 C 2.574 5.201,2.280 5.056,2.280 5.036 C 2.280 4.989,3.748 4.991,4.400 5.039 C 4.865 5.073,4.906 5.082,4.988 5.178 C 5.096 5.303,5.219 5.699,5.637 7.266 C 5.992 8.596,6.028 8.710,6.075 8.657 C 6.093 8.636,6.382 7.981,6.716 7.200 C 7.525 5.313,7.622 5.118,7.801 5.031 C 7.939 4.963,8.521 4.897,9.086 4.886 L 9.352 4.880 8.066 7.884 M10.960 4.965 C 11.103 4.986,11.278 5.021,11.350 5.044 C 11.472 5.084,11.480 5.097,11.480 5.273 C 11.479 5.905,10.721 10.325,10.558 10.644 C 10.492 10.773,10.455 10.799,10.279 10.836 C 10.167 10.860,9.915 10.880,9.718 10.880 C 9.407 10.880,9.349 10.869,9.276 10.796 C 9.201 10.721,9.194 10.683,9.218 10.446 C 9.259 10.042,9.373 9.258,9.722 6.991 C 9.897 5.853,10.040 4.911,10.040 4.898 C 10.040 4.871,10.583 4.910,10.960 4.965 M21.311 7.230 C 21.872 9.918,21.960 10.382,21.960 10.642 L 21.960 10.829 21.774 10.855 C 21.672 10.869,21.369 10.880,21.101 10.880 L 20.613 10.880 20.562 10.590 C 20.534 10.431,20.487 10.241,20.457 10.170 L 20.404 10.040 19.348 10.040 L 18.291 10.040 18.137 10.460 L 17.983 10.880 17.402 10.878 C 16.854 10.877,16.509 10.843,16.451 10.785 C 16.413 10.747,16.539 10.371,16.802 9.735 C 17.392 8.309,18.799 5.410,19.008 5.191 C 19.121 5.073,19.183 5.046,19.441 5.002 C 19.791 4.943,20.286 4.894,20.601 4.886 L 20.821 4.880 21.311 7.230 M16.366 5.030 C 16.422 5.086,16.427 5.303,16.383 5.810 L 16.353 6.160 15.359 6.160 L 14.366 6.160 14.243 6.309 C 14.175 6.391,14.120 6.479,14.120 6.504 C 14.120 6.562,14.462 6.860,15.180 7.428 C 16.202 8.236,16.272 8.360,16.157 9.185 C 16.099 9.602,15.982 9.815,15.628 10.144 C 14.981 10.747,14.640 10.856,13.400 10.859 C 12.615 10.860,12.470 10.845,11.984 10.715 L 11.828 10.674 11.856 10.151 C 11.871 9.863,11.903 9.592,11.926 9.549 C 11.973 9.461,11.884 9.458,12.940 9.580 C 13.606 9.656,13.782 9.655,14.019 9.574 C 14.209 9.510,14.600 9.184,14.600 9.091 C 14.600 9.066,14.263 8.771,13.850 8.435 C 12.999 7.741,12.687 7.444,12.588 7.234 C 12.512 7.072,12.495 6.534,12.557 6.267 C 12.650 5.869,13.069 5.453,13.699 5.136 L 14.059 4.955 15.188 4.967 C 16.019 4.977,16.329 4.993,16.366 5.030 M19.480 7.068 C 19.370 7.303,18.961 8.514,18.960 8.608 C 18.960 8.698,19.119 8.726,19.667 8.734 L 20.100 8.740 20.112 8.638 C 20.126 8.521,19.845 7.396,19.729 7.102 C 19.686 6.993,19.633 6.898,19.611 6.890 C 19.588 6.883,19.530 6.963,19.480 7.068 " fill="#0E4595" stroke="none" fill-rule="evenodd"></path></svg>