<svg width="24" height="16" viewBox="0 0 24 16" fill="none" xmlns="http://www.w3.org/2000/svg">
<g clip-path="url(#clip0_3242_62128)">
<path d="M1.23077 0.15387H22.7692C23.449 0.15387 24 0.704916 24 1.38464V14.3077C24 14.9875 23.449 15.5385 22.7692 15.5385H1.23077C0.551046 15.5385 0 14.9875 0 14.3077V1.38464C0 0.704916 0.551046 0.15387 1.23077 0.15387Z" fill="#0E4595"/>
<path d="M9.02144 10.884L10.0479 4.86064H11.6898L10.6625 10.884H9.02144ZM16.5941 4.99049C16.2688 4.86846 15.7591 4.7375 15.1226 4.7375C13.5003 4.7375 12.3575 5.55443 12.3478 6.72529C12.3386 7.59083 13.1637 8.07366 13.7864 8.36178C14.4255 8.65701 14.6403 8.84529 14.6373 9.10895C14.6332 9.51267 14.1269 9.69713 13.655 9.69713C12.9979 9.69713 12.6488 9.60584 12.1096 9.38095L11.898 9.28526L11.6676 10.6337C12.0511 10.8018 12.7602 10.9474 13.4965 10.955C15.2223 10.955 16.3426 10.1474 16.3554 8.89707C16.3615 8.21187 15.9241 7.69043 14.9769 7.26052C14.4031 6.9819 14.0516 6.79593 14.0553 6.51381C14.0553 6.26344 14.3528 5.99569 14.9956 5.99569C15.5325 5.98738 15.9214 6.10446 16.2244 6.22646L16.3715 6.296L16.5941 4.99049ZM20.819 4.86055H19.5503C19.1573 4.86055 18.8632 4.96784 18.6906 5.36006L16.2523 10.8801H17.9763C17.9763 10.8801 18.2582 10.1378 18.3219 9.97489C18.5104 9.97489 20.1852 9.97747 20.4246 9.97747C20.4737 10.1883 20.6243 10.8801 20.6243 10.8801H22.1478L20.819 4.86036V4.86055ZM18.8061 8.75009C18.9419 8.40304 19.4603 7.0663 19.4603 7.0663C19.4505 7.08236 19.595 6.71756 19.6779 6.49141L19.7889 7.01076C19.7889 7.01076 20.1033 8.44858 20.169 8.75009H18.8061ZM7.62766 4.86055L6.02027 8.96824L5.84898 8.13347C5.54975 7.17123 4.61744 6.1287 3.5752 5.60676L5.04492 10.8745L6.78203 10.8725L9.36676 4.86049H7.62766" fill="white"/>
<path d="M4.52042 4.86034H1.873L1.85205 4.98566C3.91168 5.48425 5.27451 6.68914 5.84036 8.13674L5.26467 5.36874C5.16528 4.98735 4.87707 4.87354 4.52048 4.86021" fill="#F2AE14"/>
</g>
<defs>
<clipPath id="clip0_3242_62128">
<rect width="24" height="15.3846" fill="white" transform="translate(0 0.15387)"/>
</clipPath>
</defs>
</svg>
