<svg width="71" height="20" viewBox="0 0 71 20" fill="none" xmlns="http://www.w3.org/2000/svg">
<path d="M22.867 9.61299C22.7791 9.60265 22.7222 9.77846 22.5723 9.77329C22.4637 9.77329 22.3447 9.5923 22.2103 9.5923C22.0965 9.5923 21.9776 9.75261 21.8483 9.75778C21.7294 9.75778 21.6053 9.5561 21.4812 9.56127C21.3571 9.56644 21.2433 9.61815 21.1192 9.62332C20.9951 9.62849 20.8762 9.66469 20.7572 9.66986C20.6383 9.67503 20.5193 9.88705 20.4004 9.88705C20.2815 9.88705 20.1574 9.94393 20.0384 9.9491C19.9143 9.9491 19.7799 9.70089 19.6661 9.70089C19.5317 9.70089 19.4127 9.7526 19.3041 9.7526C19.1593 9.7526 19.0353 9.9491 18.9473 9.9491C18.8181 9.9491 18.694 9.9853 18.5647 9.98013C18.4354 9.97496 18.3113 9.74226 18.1872 9.74226C18.0631 9.74226 17.9338 9.93359 17.8045 9.93359C17.6752 9.93359 17.5512 9.81465 17.427 9.81465C17.3029 9.81465 17.1737 9.93876 17.0444 9.93359C16.9151 9.92842 16.791 9.75261 16.6669 9.74744C16.5428 9.74227 16.4135 9.84052 16.2842 9.84052C16.155 9.84052 16.0309 9.70606 15.9067 9.70606C15.7826 9.70606 15.6534 9.70606 15.5241 9.70606C15.3948 9.70606 15.2707 9.78364 15.1414 9.77847C15.0121 9.77329 14.888 9.77329 14.7588 9.77329C14.6295 9.77329 14.5054 9.76295 14.3813 9.76295C14.2572 9.76295 14.1331 9.58712 14.0038 9.58712C13.8745 9.58712 13.7504 9.58712 13.6263 9.58712C13.5022 9.58712 13.3678 9.91807 13.2436 9.9129C13.1195 9.90773 12.9954 9.73192 12.8662 9.72675C12.7369 9.72158 12.6128 9.77328 12.4835 9.76811C12.3542 9.76294 12.2353 9.56644 12.106 9.56127C11.9767 9.5561 11.8526 9.56127 11.7285 9.5561C11.6044 9.55093 11.4751 9.54576 11.351 9.54058C11.2269 9.53541 11.0976 9.65435 10.9684 9.65435C10.8391 9.65435 10.715 9.75778 10.5857 9.75778C10.4564 9.75778 10.3323 9.72158 10.2082 9.72158C10.0841 9.72158 9.95484 9.74226 9.83073 9.73709C9.70663 9.73192 9.58252 9.54058 9.45324 9.54058C9.32396 9.54058 9.19469 9.74744 9.07059 9.74226C8.94648 9.73709 8.81719 9.79915 8.68792 9.79398C8.55864 9.78881 8.43971 9.63885 8.31044 9.63368C8.18116 9.6285 8.05705 9.63368 7.93294 9.63368C7.80884 9.63368 7.68474 9.47337 7.55546 9.4682C7.42619 9.46303 7.2969 9.72158 7.17279 9.72158C7.04869 9.72158 6.91942 9.59747 6.79532 9.59747C6.67121 9.59747 6.54193 9.47337 6.41782 9.47337C6.29889 9.47337 6.17478 9.64918 6.0455 9.64401C5.91623 9.63884 5.82314 9.46302 5.69903 9.44751C5.57493 9.432 5.46116 9.42683 5.34223 9.40615C5.22329 9.38546 5.11989 9.3079 5.00095 9.27687C4.88202 9.24584 4.67517 9.56127 4.55623 9.52507C4.4373 9.48887 4.37525 9.27686 4.25632 9.23549C4.13738 9.19412 4.04947 9.09588 3.93571 9.04934C3.82195 9.0028 3.71852 8.94592 3.60993 8.88904C3.50134 8.83216 3.27898 8.98728 3.17039 8.9304C3.06179 8.87352 3.02559 8.68736 2.92217 8.62013C2.81875 8.55291 2.63259 8.59428 2.53434 8.52188C2.43609 8.44949 2.39989 8.28919 2.31199 8.20645C2.22408 8.12372 2.2396 7.93238 2.15686 7.84447C2.07412 7.75656 2.04826 7.63247 1.97069 7.53422C1.89313 7.43597 1.7018 7.43079 1.63458 7.32736C1.56735 7.22394 1.55701 7.09467 1.5053 6.98091C1.45359 6.86715 1.21055 6.84129 1.16401 6.72236C1.11747 6.60342 1.18987 6.44829 1.15367 6.32935C1.11747 6.21042 1.23122 6.06563 1.20537 5.94152C1.17951 5.81741 0.915789 5.73468 0.900276 5.61058C0.884763 5.48647 0.972674 5.35201 0.967502 5.22791C0.967502 5.09863 0.967513 4.96419 0.977855 4.83492C0.988197 4.70564 1.16401 4.59704 1.18469 4.47294C1.20538 4.34883 1.21054 4.22472 1.24157 4.10062C1.2726 3.97651 1.28812 3.85241 1.32948 3.7283C1.37085 3.60419 1.50013 3.52664 1.55184 3.41287C1.60355 3.29911 1.37602 3.03538 1.43807 2.92161C1.50013 2.80785 1.70697 2.77166 1.77419 2.66824C1.84141 2.56481 1.97069 2.49242 2.05343 2.39417C2.13617 2.29592 2.11031 2.09424 2.19822 2.00116C2.28613 1.90808 2.49814 1.93911 2.59639 1.85637C2.69464 1.77364 2.77221 1.67021 2.87563 1.59264C2.97905 1.51508 3.13418 1.52542 3.24277 1.46854C3.35137 1.41166 3.43928 1.33409 3.5427 1.28755C3.64613 1.24101 3.79091 1.28756 3.90467 1.24619C4.01843 1.20482 4.08566 1.05485 4.19943 1.02382C4.31319 0.992794 4.44764 1.04968 4.56141 1.02382C4.67517 0.997965 4.78376 0.966947 4.9027 0.951434C5.02163 0.935921 5.13539 0.941087 5.25433 0.930745C5.37326 0.920403 5.47669 0.791127 5.59562 0.785956C5.71456 0.780785 5.82832 0.692875 5.94725 0.687704C6.06619 0.682533 6.18513 0.713569 6.30923 0.713569C6.43334 0.713569 6.5471 0.553267 6.66604 0.553267C6.78497 0.553267 6.90389 0.604965 7.02283 0.604965C7.14693 0.604965 7.27104 0.723905 7.39515 0.723905C7.51925 0.723905 7.64336 0.780779 7.76746 0.780779C7.89157 0.780779 8.01568 0.589452 8.13978 0.589452C8.26389 0.589452 8.38799 0.780779 8.5121 0.780779C8.63621 0.780779 8.76031 0.558427 8.88442 0.558427C9.00852 0.558427 9.13263 0.537738 9.25674 0.537738C9.38084 0.537738 9.50495 0.522226 9.62905 0.522226C9.75316 0.522226 9.87727 0.796292 10.0014 0.796292C10.1255 0.796292 10.2496 0.620477 10.3737 0.620477C10.4978 0.620477 10.6219 0.558427 10.746 0.558427C10.8701 0.558427 10.9942 0.83767 11.1183 0.83767C11.2424 0.83767 11.3665 0.568779 11.4906 0.568779C11.6148 0.568779 11.7389 0.667015 11.863 0.667015C11.9871 0.667015 12.1112 0.75493 12.2353 0.75493C12.3594 0.75493 12.4835 0.81182 12.6076 0.81182C12.7317 0.81182 12.8558 0.57394 12.9799 0.57394C13.104 0.57394 13.2281 0.723905 13.3522 0.723905C13.4763 0.723905 13.6004 0.625653 13.7246 0.625653C13.8487 0.625653 13.9728 0.542914 14.0969 0.542914C14.221 0.542914 14.3451 0.796292 14.4692 0.796292C14.5933 0.796292 14.7174 0.542914 14.8415 0.542914C14.9656 0.542914 15.0897 0.511889 15.2138 0.511889C15.3379 0.511889 15.462 0.739418 15.5861 0.739418C15.7103 0.739418 15.8344 0.54809 15.9585 0.54809C16.0826 0.54809 16.2067 0.801468 16.3308 0.801468C16.4549 0.801468 16.579 0.604965 16.7031 0.604965C16.8272 0.604965 16.9513 0.69288 17.0754 0.69288C17.1995 0.69288 17.3236 0.579116 17.4477 0.579116C17.5718 0.579116 17.6959 0.579116 17.82 0.579116C17.9441 0.579116 18.0682 0.615312 18.1924 0.610141C18.3165 0.60497 18.4406 0.661855 18.5647 0.661855C18.6888 0.661855 18.8129 0.501553 18.937 0.501553C19.0611 0.501553 19.1852 0.610141 19.3093 0.610141C19.4334 0.610141 19.5575 0.553267 19.6816 0.553267C19.8057 0.553267 19.9298 0.806644 20.0539 0.806644C20.1781 0.806644 20.3022 0.594628 20.4263 0.594628C20.5504 0.594628 20.6745 0.563603 20.7986 0.563603C20.9227 0.563603 21.0468 0.822157 21.1709 0.822157C21.295 0.822157 21.4191 0.729081 21.5432 0.729081C21.6673 0.729081 21.7914 0.599804 21.9155 0.599804C22.0396 0.599804 22.1637 0.620477 22.2879 0.620477C22.412 0.620477 22.5361 0.517065 22.6602 0.517065C22.7843 0.517065 22.9084 0.749754 23.0325 0.749754C23.1566 0.749754 23.2807 0.579116 23.4048 0.579116C23.5289 0.579116 23.653 0.729081 23.7771 0.729081C23.9012 0.729081 24.0253 0.594628 24.1494 0.594628C24.2736 0.594628 24.3977 0.718729 24.5218 0.718729C24.6459 0.718729 24.77 0.542914 24.8941 0.542914C25.0182 0.542914 25.1423 0.832493 25.2664 0.832493C25.3905 0.832493 25.5146 0.579116 25.6387 0.579116C25.7628 0.579116 25.8869 0.698056 26.011 0.698056C26.1351 0.698056 26.2592 0.496377 26.3833 0.496377C26.5074 0.496377 26.6316 0.563603 26.7557 0.563603C26.8798 0.563603 27.0039 0.594628 27.128 0.594628C27.2521 0.594628 27.3762 0.822157 27.5003 0.822157C27.6244 0.822157 27.7485 0.63599 27.8726 0.63599C27.9967 0.63599 28.1208 0.646342 28.2449 0.646342C28.369 0.646342 28.4931 0.63083 28.6172 0.63083C28.7414 0.63083 28.8655 0.646342 28.9896 0.646342C29.1137 0.646342 29.2378 0.791132 29.3619 0.791132C29.486 0.791132 29.6101 0.827333 29.7342 0.827333C29.8583 0.827333 29.9824 0.806644 30.1065 0.806644C30.2306 0.806644 30.3547 0.682544 30.4788 0.682544C30.6029 0.682544 30.727 0.527402 30.8512 0.527402C30.9753 0.527402 31.0994 0.542914 31.2235 0.542914C31.3476 0.542914 31.4717 0.765267 31.5958 0.765267C31.7199 0.765267 31.844 0.718729 31.9681 0.718729C32.0922 0.718729 32.2163 0.661855 32.3404 0.661855C32.4645 0.661855 32.5886 0.506713 32.7127 0.506713C32.8369 0.506713 32.961 0.54809 33.0851 0.54809C33.2092 0.54809 33.3333 0.501553 33.4574 0.501553C33.5815 0.501553 33.7056 0.568779 33.8297 0.568779C33.9538 0.568779 34.0779 0.796292 34.202 0.796292C34.3261 0.796292 34.4502 0.610141 34.5743 0.610141C34.6984 0.610141 34.8225 0.594628 34.9466 0.594628C35.0707 0.594628 35.1949 0.749754 35.319 0.749754C35.4431 0.749754 35.5672 0.563603 35.6913 0.563603C35.8154 0.563603 35.9395 0.470527 36.0636 0.470527C36.1877 0.470527 36.3118 0.677367 36.4359 0.677367C36.56 0.677367 36.6841 0.785956 36.8082 0.785956C36.9323 0.785956 37.0564 0.460175 37.1805 0.460175C37.3047 0.460175 37.4288 0.646342 37.5529 0.646342C37.677 0.646342 37.8011 0.749754 37.9252 0.749754C38.0493 0.749754 38.1734 0.553267 38.2975 0.553267C38.4216 0.553267 38.5457 0.75493 38.6698 0.75493C38.7939 0.75493 38.918 0.656679 39.0421 0.656679C39.1662 0.656679 39.2904 0.63599 39.4145 0.63599C39.5386 0.63599 39.6627 0.734242 39.7868 0.734242C39.9109 0.734242 40.035 0.749765 40.1591 0.744594C40.2832 0.739423 40.4073 0.780779 40.5314 0.780779C40.6555 0.780779 40.7796 0.744594 40.9037 0.744594C41.0278 0.744594 41.1519 0.682544 41.276 0.682544C41.4002 0.682544 41.5243 0.765267 41.6484 0.765267C41.7725 0.765267 41.8966 0.703216 42.0207 0.703216C42.1448 0.703216 42.2689 0.558427 42.393 0.558427C42.5171 0.558427 42.6412 0.522226 42.7653 0.522226C42.8894 0.522226 43.0135 0.656679 43.1376 0.656679C43.2617 0.656679 43.3858 0.465351 43.51 0.465351C43.6341 0.465351 43.7582 0.718729 43.8823 0.718729C44.0064 0.718729 44.1305 0.522226 44.2546 0.522226C44.3787 0.522226 44.5028 0.553267 44.6269 0.553267C44.751 0.553267 44.8751 0.63599 44.9992 0.63599C45.1233 0.63599 45.2474 0.48604 45.3715 0.48604C45.4956 0.48604 45.6197 0.57394 45.7438 0.57394C45.868 0.57394 45.9921 0.594628 46.1162 0.594628C46.2403 0.594628 46.3644 0.434326 46.4885 0.434326C46.6126 0.434326 46.7367 0.708393 46.8608 0.708393C46.9849 0.708393 47.109 0.449839 47.2331 0.449839C47.3572 0.449839 47.4813 0.718729 47.6054 0.718729C47.7295 0.718729 47.8537 0.579116 47.9778 0.579116C48.1019 0.579116 48.226 0.537738 48.3501 0.537738C48.4742 0.537738 48.5983 0.444663 48.7224 0.444663C48.8465 0.444663 48.9706 0.517065 49.0947 0.517065C49.2188 0.517065 49.3429 0.589457 49.467 0.594628C49.5911 0.599799 49.7152 0.579121 49.8393 0.584292C49.9635 0.589463 50.0876 0.4912 50.2117 0.4912C50.3358 0.4912 50.4599 0.558427 50.584 0.558427C50.7081 0.558427 50.8322 0.470517 50.9563 0.475688C51.0804 0.480859 51.1993 0.625653 51.3234 0.625653C51.4475 0.625653 51.5717 0.625653 51.6958 0.625653C51.8199 0.625653 51.944 0.501553 52.0681 0.501553C52.1922 0.501553 52.3163 0.542919 52.4404 0.54809C52.5645 0.553262 52.6834 0.698045 52.8075 0.703216C52.9316 0.708388 53.0609 0.563603 53.185 0.563603C53.3091 0.563603 53.4281 0.822162 53.547 0.827333C53.6659 0.832504 53.8004 0.682533 53.9245 0.687704C54.0486 0.692875 54.1779 0.537743 54.302 0.542914C54.4261 0.548085 54.5398 0.863519 54.664 0.863519C54.7881 0.863519 54.9225 0.594633 55.0466 0.599804C55.1707 0.604975 55.2948 0.641171 55.4189 0.646342C55.543 0.651513 55.6672 0.682533 55.7913 0.687704C55.9154 0.692875 56.0291 0.889373 56.1532 0.894544C56.2773 0.899715 56.4118 0.651508 56.5359 0.656679C56.66 0.66185 56.7686 0.951428 56.8927 0.96177C57.0168 0.972112 57.1513 0.713558 57.2754 0.718729C57.3995 0.7239 57.5184 0.837664 57.6425 0.848006C57.7666 0.858348 57.8804 0.987624 58.0045 0.992796C58.1234 0.997967 58.2475 0.992806 58.3716 1.00315C58.4957 1.01349 58.6095 1.07554 58.7336 1.08589C58.8577 1.09623 58.9715 1.11691 59.0956 1.13242C59.2197 1.14794 59.3593 0.9928 59.4834 1.01348C59.6075 1.03417 59.7368 0.997965 59.8609 1.02382C59.985 1.04968 60.0729 1.22033 60.1918 1.24619C60.3108 1.27204 60.4814 1.11173 60.6004 1.14276C60.7193 1.17379 60.8331 1.24101 60.952 1.28237C61.0709 1.32374 61.2157 1.30306 61.3295 1.3496C61.4432 1.39614 61.4432 1.69606 61.557 1.75294C61.6708 1.80983 61.7949 1.80983 61.9035 1.87188C62.0121 1.93394 62.1206 1.98048 62.2241 2.05288C62.3275 2.12527 62.493 2.10459 62.5912 2.18215C62.6895 2.25972 62.8084 2.33211 62.8963 2.42519C62.9842 2.51827 62.9635 2.7096 63.0411 2.80785C63.1187 2.9061 63.2273 2.97849 63.2997 3.08191C63.3721 3.18534 63.4806 3.26807 63.5427 3.38183C63.6048 3.49559 63.5737 3.64557 63.6254 3.7645C63.6771 3.88344 63.7392 3.98685 63.7754 4.11095C63.8116 4.23506 63.8685 4.34365 63.8995 4.46776C63.9305 4.59187 64.0805 4.70046 64.096 4.82457C64.1115 4.94867 64.0288 5.09347 64.0339 5.21757C64.0391 5.34168 63.8943 5.46578 63.884 5.58989C63.8736 5.714 63.9719 5.84844 63.9512 5.97254C63.9305 6.09665 63.9926 6.24662 63.9616 6.37073C63.9305 6.49483 63.8995 6.62927 63.8478 6.74821C63.7961 6.86714 63.7444 6.99642 63.6823 7.10501C63.6203 7.2136 63.5013 7.30152 63.4238 7.40494C63.3462 7.50836 63.2273 7.57558 63.1394 7.66866C63.0463 7.77208 62.8498 7.74623 62.7515 7.8238C62.6481 7.91171 62.6533 8.14441 62.5447 8.21163C62.4361 8.27885 62.2137 8.15991 62.0948 8.21679C61.9759 8.27367 61.9448 8.52189 61.8207 8.5736C61.6966 8.62531 61.4691 8.61497 61.345 8.66151C61.4691 8.66151 61.6759 8.81664 61.8 8.81664C61.9242 8.81664 62.0534 8.58395 62.1775 8.58395C62.3016 8.58395 62.4257 8.49086 62.555 8.49086C62.6843 8.49086 62.8032 8.66667 62.9273 8.66667C63.0514 8.66667 63.1807 8.56326 63.3048 8.56326C63.4289 8.56326 63.5582 8.53222 63.6823 8.53739C63.8064 8.54257 63.9254 8.70805 64.0546 8.71322C64.1839 8.7184 64.2977 8.81147 64.4218 8.81664C64.5459 8.82181 64.67 8.83216 64.7941 8.8425C64.9182 8.85284 65.0423 8.82699 65.1664 8.8425C65.2905 8.85802 65.425 8.75976 65.5491 8.77528C65.6732 8.79079 65.7663 9.02348 65.8904 9.04417C66.0145 9.06485 66.1334 9.0752 66.2575 9.09588C66.3816 9.11656 66.5005 9.11139 66.6195 9.13724C66.7384 9.1631 66.8677 9.12173 66.9918 9.15275C67.1159 9.18378 67.1986 9.3079 67.3176 9.3441C67.4365 9.38029 67.5761 9.32858 67.6899 9.36995C67.8037 9.41131 67.9847 9.2872 68.1036 9.33374C68.2225 9.38028 68.3259 9.45785 68.4345 9.50956C68.5431 9.56127 68.5535 9.79398 68.6621 9.8612C68.7707 9.92843 68.8431 10.0112 68.9413 10.0887C69.0396 10.1663 69.1326 10.218 69.2257 10.3059C69.3188 10.3938 69.5877 10.3059 69.6704 10.399C69.7532 10.4921 69.6963 10.6937 69.7635 10.7972C69.8307 10.9006 69.7894 11.0557 69.8411 11.1695C69.8514 11.1953 69.9497 11.1747 69.9652 11.2005C70.0169 11.3091 69.9755 11.4487 70.0169 11.5625C70.0582 11.6762 70.2134 11.7435 70.2496 11.8572C70.2858 11.971 70.1565 12.1261 70.1875 12.2451C70.2186 12.364 70.2392 12.4674 70.2599 12.5864C70.2806 12.7053 70.5909 12.7777 70.6012 12.9018C70.6116 13.0259 70.6478 13.15 70.6529 13.2689C70.6581 13.3879 70.6529 13.5172 70.6529 13.6413C70.6529 13.7654 70.3427 13.8688 70.3323 13.9877C70.322 14.1066 70.6271 14.2618 70.6116 14.3807C70.596 14.4997 70.4047 14.5927 70.384 14.7117C70.3634 14.8306 70.1979 14.9082 70.1617 15.0219C70.1255 15.1409 70.1203 15.2546 70.0789 15.3632C70.0376 15.4718 70.0583 15.6114 70.0117 15.7149C69.9652 15.8183 69.8876 15.9165 69.8256 16.0199C69.7635 16.1234 69.6859 16.2061 69.6187 16.3044C69.5515 16.4026 69.4326 16.4543 69.3602 16.5422C69.2878 16.6301 69.3291 16.8266 69.2464 16.9094C69.1637 16.9921 69.1688 17.1886 69.0809 17.2662C68.993 17.3437 68.7293 17.2093 68.631 17.2817C68.5328 17.3541 68.4345 17.4006 68.3311 17.4627C68.2277 17.5247 68.2742 17.8608 68.1708 17.9126C68.0674 17.9643 67.8812 17.8712 67.7726 17.9126C67.664 17.9539 67.4934 17.8195 67.3796 17.8557C67.2607 17.8919 67.2348 18.2435 67.1159 18.2797C66.997 18.3159 66.8263 18.1504 66.7074 18.1815C66.5885 18.2125 66.4385 18.1091 66.3196 18.1349C66.2006 18.1608 66.1386 18.4917 66.0145 18.5124C65.8904 18.5331 65.7507 18.44 65.6266 18.4607C65.5025 18.4814 65.3681 18.4038 65.244 18.4193C65.1199 18.4348 65.0061 18.5228 64.8872 18.5331C64.7682 18.5434 64.6493 18.6624 64.5252 18.6727C64.4011 18.6831 64.2718 18.5951 64.1477 18.6055C64.0236 18.6158 63.9047 18.7193 63.7857 18.7296C63.6668 18.7399 63.5272 18.4762 63.4031 18.4814C63.279 18.4866 63.16 18.621 63.0411 18.6262C62.9222 18.6313 62.7929 18.6572 62.674 18.6624C62.555 18.6675 62.4257 18.59 62.3016 18.5951C62.1775 18.6003 62.0534 18.5072 61.9293 18.5072C61.8052 18.5072 61.6863 18.7761 61.5622 18.7813C61.4381 18.7865 61.3088 18.5279 61.1898 18.5279C61.0709 18.5279 60.9468 18.7037 60.8227 18.7037C60.6986 18.7037 60.5797 18.7451 60.4556 18.7451C60.3315 18.7451 60.2125 18.7451 60.0884 18.7554C59.9643 18.7658 59.8402 18.5796 59.7161 18.5796C59.592 18.5796 59.4782 18.8744 59.3541 18.8795C59.23 18.8847 59.1059 18.8692 58.987 18.8744C58.868 18.8796 58.7388 18.7037 58.6147 18.7089C58.4906 18.7141 58.3665 18.6934 58.2475 18.6986C58.1286 18.7037 58.0045 18.8123 57.8804 18.8123C57.7563 18.8123 57.6322 18.7348 57.508 18.7348C57.3839 18.7348 57.2598 18.6158 57.1357 18.6158C57.0116 18.6158 56.8927 18.7399 56.7686 18.7451C56.6445 18.7503 56.5255 18.9261 56.4066 18.9313C56.2877 18.9364 56.1532 18.6417 56.0343 18.6417C55.9154 18.6417 55.7913 18.8847 55.6723 18.8847C55.5534 18.8847 55.4241 18.7192 55.3 18.7192C55.1759 18.7192 55.057 18.9364 54.938 18.9416C54.8191 18.9468 54.695 19.0088 54.5709 19.0088C54.4468 19.0088 54.3227 18.8847 54.1986 18.8847C54.0745 18.8847 53.9503 18.7968 53.8262 18.802C53.7021 18.8072 53.5832 18.8692 53.4591 18.8692C53.335 18.8692 53.2109 18.7348 53.0868 18.7348C52.9627 18.7348 52.8386 18.7658 52.7145 18.7658C52.5904 18.7658 52.4663 18.7399 52.3421 18.7399C52.218 18.7399 52.0939 18.8175 51.9698 18.8227C51.8457 18.8278 51.7268 18.9933 51.6027 18.9985C51.4786 19.0037 51.3545 19.0037 51.2304 19.0088C51.1063 19.014 50.9822 19.0554 50.858 19.0554C50.7339 19.0554 50.6098 19.045 50.4857 19.045C50.3616 19.045 50.2375 19.0554 50.1134 19.0554C49.9893 19.0554 49.86 18.9261 49.7359 18.9261C49.6118 18.9261 49.4877 18.983 49.3636 18.9882C49.2395 18.9933 49.1154 18.9623 48.9913 18.9675C48.8672 18.9726 48.7379 18.8072 48.6138 18.8123C48.4897 18.8175 48.3656 18.9261 48.2415 18.9313C48.1174 18.9364 47.9933 18.8692 47.8692 18.8744C47.7451 18.8796 47.6261 19.0192 47.502 19.0243C47.3779 19.0295 47.2538 18.9985 47.1297 18.9985C47.0056 18.9985 46.8763 18.8744 46.7522 18.8795C46.6281 18.8847 46.504 18.9106 46.3799 18.9157C46.2558 18.9209 46.1317 18.864 46.0076 18.8692C45.8835 18.8744 45.7594 18.8951 45.6353 18.9002C45.5112 18.9054 45.3974 19.2312 45.2733 19.2364C45.1492 19.2415 45.0199 19.1174 44.8958 19.1226C44.7717 19.1278 44.6424 19.0037 44.5183 19.0088C44.3942 19.014 44.2753 19.1588 44.1512 19.164C44.0271 19.1691 43.903 19.164 43.7788 19.1743C43.6547 19.1846 43.5255 18.9623 43.4014 18.9623C43.2772 18.9623 43.1583 19.1174 43.0342 19.1226C42.9101 19.1278 42.786 19.0709 42.6619 19.0709C42.5378 19.0709 42.4085 18.9985 42.2844 19.0037C42.1603 19.0088 42.0414 19.257 41.9173 19.257C41.7931 19.257 41.6587 18.9933 41.5346 18.9985C41.4105 19.0037 41.2916 19.1278 41.1675 19.1278C41.0434 19.1278 40.9244 19.3605 40.8003 19.3605C40.6762 19.3605 40.5469 19.1278 40.4228 19.1329C40.2987 19.1381 40.1694 19.0347 40.0453 19.0347C39.9212 19.0347 39.8075 19.3811 39.6833 19.3863C39.5592 19.3915 39.4351 19.3449 39.311 19.3501C39.1869 19.3553 39.0577 19.195 38.9335 19.195C38.8094 19.195 38.6853 19.2467 38.5612 19.2519C38.4371 19.257 38.313 19.2881 38.1889 19.2932C38.0648 19.2984 37.9355 19.1485 37.8114 19.1485C37.6873 19.1485 37.5684 19.4277 37.4443 19.4277C37.3202 19.4277 37.1909 19.2364 37.0668 19.2415C36.9427 19.2467 36.8186 19.2829 36.6945 19.2829C36.5704 19.2829 36.4411 19.2002 36.317 19.2053C36.1929 19.2105 36.0739 19.3656 35.9498 19.3708C35.8257 19.376 35.7068 19.5104 35.5827 19.5156C35.4586 19.5208 35.3293 19.4277 35.2052 19.4277C35.0811 19.4277 34.9518 19.2881 34.8277 19.2932C34.7036 19.2984 34.5847 19.5363 34.4606 19.5414C34.3365 19.5466 34.2072 19.3398 34.0831 19.345C33.959 19.3501 33.8297 19.2415 33.7056 19.2415C33.5815 19.2415 33.4574 19.2726 33.3333 19.2777C33.2092 19.2829 33.0851 19.3811 32.9609 19.3863C32.8368 19.3915 32.7179 19.5363 32.5938 19.5414C32.4697 19.5466 32.3456 19.4949 32.2215 19.5001C32.0974 19.5053 31.9733 19.557 31.8492 19.5621C31.7251 19.5673 31.5958 19.3708 31.4717 19.3708C31.3476 19.3708 31.2286 19.5001 31.0994 19.5001C30.9701 19.5001 30.8512 19.6138 30.7271 19.6138C30.6029 19.6138 30.4685 19.3346 30.3444 19.3398C30.2203 19.345 30.1013 19.6242 29.9772 19.6294C29.8531 19.6345 29.7239 19.4897 29.5997 19.4949C29.4756 19.5001 29.3464 19.407 29.2223 19.407C29.0982 19.407 28.9741 19.3811 28.85 19.3811C28.7258 19.3811 28.6069 19.5466 28.4828 19.5518C28.3587 19.557 28.2346 19.6656 28.1105 19.6656C27.9864 19.6656 27.8571 19.5156 27.733 19.5208C27.6089 19.5259 27.4796 19.4225 27.3555 19.4277C27.2314 19.4329 27.1125 19.6707 26.9884 19.6759C26.8643 19.6759 26.735 19.5104 26.6109 19.5104C26.4868 19.5104 26.3627 19.5414 26.2385 19.5466C26.1144 19.5518 25.9903 19.5208 25.8662 19.5156C25.7421 19.5104 25.618 19.5053 25.4939 19.5001C25.3698 19.4949 25.2302 19.7535 25.1061 19.7431C24.982 19.7328 24.8579 19.6707 24.7286 19.6604C24.5993 19.65 24.4752 19.6294 24.3511 19.6138C24.227 19.5983 24.1288 19.4173 24.0047 19.3967C23.8805 19.376 23.7151 19.5466 23.5961 19.5156C23.4772 19.4846 23.4203 19.2002 23.3014 19.164C23.1824 19.1278 23.0635 19.1071 22.9446 19.0657C22.8256 19.0243 22.7067 19.0037 22.5929 18.952C22.4792 18.9002 22.4223 18.771 22.3085 18.7089C22.1948 18.6469 22.1069 18.5951 21.9983 18.5279C21.8897 18.4607 21.6673 18.5796 21.5691 18.5021C21.4708 18.4245 21.5174 18.1815 21.4243 18.0987C21.3312 18.016 21.2278 17.9643 21.1399 17.8764C21.052 17.7885 20.9434 17.7316 20.8606 17.6385C20.7779 17.5454 20.6797 17.473 20.6073 17.3748C20.5349 17.2765 20.3022 17.2817 20.2349 17.1783C20.1677 17.0749 20.3642 16.8163 20.3022 16.7077C20.2401 16.5991 20.1677 16.5112 20.116 16.3974C20.0643 16.2837 19.9402 16.2113 19.8988 16.0923C19.8575 15.9734 19.7437 15.8855 19.7075 15.7666C19.6713 15.6476 19.5834 15.539 19.5575 15.4149C19.5317 15.2908 19.48 15.1719 19.4645 15.0478C19.4489 14.9237 19.6971 14.7737 19.6868 14.6496C19.6765 14.5255 19.4955 14.4118 19.4955 14.2876C19.4955 14.1635 19.542 14.0394 19.5472 13.9153C19.5523 13.7912 19.5265 13.6619 19.5368 13.543C19.5472 13.4241 19.6765 13.3155 19.6971 13.1914C19.7178 13.0673 19.5472 12.907 19.5782 12.7829C19.6092 12.6588 19.7489 12.5657 19.7851 12.4519C19.8213 12.3381 19.8781 12.2192 19.9247 12.1054C19.9712 11.9917 19.9143 11.821 19.9712 11.7124C20.0281 11.6039 20.2194 11.5625 20.2867 11.4591C20.3539 11.3556 20.509 11.3194 20.5814 11.2212C20.6538 11.1229 20.5245 10.854 20.6073 10.761C20.69 10.6679 20.7934 10.58 20.8865 10.4972C20.9796 10.4145 21.2278 10.5334 21.3312 10.461C21.4346 10.3886 21.507 10.3007 21.6156 10.2387C21.7242 10.1766 21.7966 10.0577 21.9155 10.0112C22.0345 9.96461 22.1431 9.91808 22.262 9.88705C22.3809 9.85603 22.5257 9.99047 22.6498 9.97495C22.7739 9.95944 22.805 9.64918 22.9291 9.64401L22.867 9.61299Z" fill="white"/>
</svg>
