<svg width="151" height="53" viewBox="0 0 151 53" fill="none" xmlns="http://www.w3.org/2000/svg">
<path d="M32.2672 0.446498C32.3913 0.446498 32.5154 0.446498 32.6395 0.446498C32.7636 0.446498 32.8877 0.684367 33.017 0.684367C33.1463 0.684367 33.2652 0.508549 33.3893 0.508549C33.5134 0.508549 33.6375 0.539578 33.7616 0.539578C33.8857 0.539578 34.0098 0.446497 34.1339 0.441326C34.258 0.436155 34.3821 0.415469 34.5062 0.415469C34.6304 0.415469 34.7545 0.684367 34.8837 0.684367C35.013 0.684367 35.132 0.477523 35.2561 0.477523C35.3802 0.477523 35.5043 0.617141 35.6284 0.617141C35.7525 0.617141 35.8766 0.684366 36.0007 0.679195C36.1248 0.674024 36.2489 0.761933 36.373 0.756762C36.4971 0.751591 36.6212 0.746418 36.7453 0.746418C36.8694 0.746418 36.9935 0.451666 37.1176 0.451666C37.2417 0.451666 37.3659 0.477523 37.49 0.477523C37.6141 0.477523 37.7382 0.441326 37.8623 0.441326C37.9864 0.441326 38.1105 0.529233 38.2346 0.529233C38.3587 0.529233 38.4828 0.456839 38.6069 0.456839C38.731 0.456839 38.8551 0.679195 38.9792 0.679195C39.1033 0.679195 39.2274 0.586116 39.3515 0.586116C39.4757 0.586116 39.5998 0.64817 39.7239 0.64817C39.848 0.64817 39.9721 0.746418 40.0962 0.746418C40.2203 0.746418 40.3444 0.741249 40.4685 0.741249C40.5926 0.741249 40.7167 0.705052 40.8408 0.705052C40.9649 0.705052 41.089 0.529233 41.2131 0.529233C41.3372 0.529233 41.4613 0.570603 41.5855 0.570603C41.7096 0.570603 41.8337 0.518893 41.9578 0.518893C42.0819 0.518893 42.206 0.684367 42.3301 0.684367C42.4542 0.684367 42.5783 0.611973 42.7024 0.611973C42.8265 0.611973 42.9506 0.580946 43.0747 0.575775C43.1988 0.570604 43.3229 0.679195 43.447 0.679195C43.5711 0.679195 43.6953 0.441326 43.8194 0.441326C43.9435 0.441326 44.0676 0.570603 44.1917 0.570603C44.3158 0.570603 44.4399 0.611973 44.564 0.611973C44.6881 0.611973 44.8122 0.679195 44.9363 0.679195C45.0604 0.679195 45.1845 0.679195 45.3086 0.679195C45.4327 0.679195 45.5568 0.405128 45.6809 0.399956C45.8051 0.394785 45.9292 0.694708 46.0533 0.694708C46.1774 0.694708 46.3015 0.622313 46.4256 0.622313C46.5497 0.622313 46.6738 0.451669 46.7979 0.446498C46.922 0.441327 47.0461 0.549918 47.1702 0.549918C47.2943 0.549918 47.4184 0.482696 47.5425 0.482696C47.6666 0.482696 47.7907 0.477523 47.9149 0.477523C48.039 0.477523 48.1631 0.384443 48.2872 0.379272C48.4113 0.374101 48.5354 0.570603 48.6595 0.570603C48.7836 0.570603 48.9077 0.570603 49.0318 0.570603C49.1559 0.570603 49.28 0.42064 49.4041 0.415469C49.5282 0.410298 49.6523 0.441326 49.7764 0.441326C49.9005 0.441326 50.0246 0.384444 50.1488 0.384444C50.2729 0.384444 50.397 0.482696 50.5211 0.482696C50.6452 0.482696 50.7693 0.50338 50.8934 0.50338C51.0175 0.50338 51.1416 0.374103 51.2657 0.374103C51.3898 0.374103 51.5139 0.467183 51.638 0.467183C51.7621 0.467183 51.8862 0.441326 52.0103 0.441326C52.1345 0.441326 52.2586 0.575775 52.3827 0.575775C52.5068 0.575775 52.6309 0.65851 52.755 0.65851C52.8791 0.65851 53.0032 0.570603 53.1273 0.570603C53.2514 0.570603 53.3755 0.55509 53.4996 0.55509C53.6237 0.55509 53.7478 0.689539 53.8719 0.689539C53.996 0.689539 54.1201 0.632657 54.2443 0.632657C54.3684 0.632657 54.4925 0.617141 54.6166 0.617141C54.7407 0.617141 54.8648 0.627485 54.9889 0.627485C55.113 0.627485 55.2371 0.508549 55.3612 0.508549C55.4853 0.508549 55.6094 0.674023 55.7335 0.674023C55.8576 0.674023 55.9817 0.518893 56.1058 0.518893C56.2299 0.518893 56.3541 0.358587 56.4782 0.358587C56.6023 0.358587 56.7264 0.482696 56.8505 0.482696C56.9746 0.482696 57.0987 0.668855 57.2228 0.668855C57.3469 0.668855 57.471 0.663682 57.5951 0.663682C57.7192 0.663682 57.8433 0.591288 57.9674 0.591288C58.0915 0.591288 58.2156 0.684366 58.3397 0.679195C58.4638 0.674024 58.588 0.59646 58.7121 0.59646C58.8362 0.59646 58.9603 0.529233 59.0844 0.529233C59.2085 0.529233 59.3326 0.627485 59.4567 0.627485C59.5808 0.627485 59.7049 0.467183 59.829 0.467183C59.9531 0.467183 60.0772 0.591288 60.2013 0.591288C60.3254 0.591288 60.4495 0.55509 60.5736 0.55509C60.6978 0.55509 60.8219 0.332734 60.946 0.332734C61.0701 0.332734 61.1942 0.374103 61.3183 0.374103C61.4424 0.374103 61.5665 0.477523 61.6906 0.477523C61.8147 0.477523 61.9388 0.32239 62.0629 0.32239C62.187 0.32239 62.3111 0.580943 62.4352 0.580943C62.5593 0.580943 62.6834 0.622313 62.8075 0.622313C62.9317 0.622313 63.0558 0.446498 63.1799 0.446498C63.304 0.446498 63.4281 0.59646 63.5522 0.59646C63.6763 0.59646 63.8004 0.477523 63.9245 0.477523C64.0486 0.477523 64.1727 0.50338 64.2968 0.50338C64.4209 0.50338 64.545 0.348247 64.6691 0.348247C64.7932 0.348247 64.9174 0.6068 65.0415 0.6068C65.1656 0.6068 65.2897 0.306877 65.4138 0.306877C65.5379 0.306877 65.662 0.410301 65.7861 0.410301C65.9102 0.410301 66.0343 0.446498 66.1584 0.446498C66.2825 0.446498 66.4066 0.332734 66.5307 0.332734C66.6548 0.332734 66.7789 0.637826 66.903 0.637826C67.0272 0.637826 67.1513 0.544746 67.2754 0.544746C67.3995 0.544746 67.5236 0.637826 67.6477 0.637826C67.7718 0.637826 67.8959 0.451666 68.02 0.451666C68.1441 0.451666 68.2682 0.632656 68.3923 0.627485C68.5164 0.622314 68.6405 0.586116 68.7646 0.586116C68.8887 0.586116 69.0128 0.617141 69.1369 0.617141C69.2611 0.617141 69.3852 0.36893 69.5093 0.363759C69.6334 0.358588 69.7575 0.524061 69.8816 0.524061C70.0057 0.524061 70.1298 0.539578 70.2539 0.539578C70.378 0.539578 70.5021 0.627485 70.6262 0.627485C70.7503 0.627485 70.8744 0.493036 70.9985 0.493036C71.1226 0.493036 71.2468 0.617141 71.3709 0.617141C71.495 0.617141 71.6191 0.601628 71.7432 0.601628C71.8673 0.601628 71.9914 0.513721 72.1155 0.513721C72.2396 0.513721 72.3637 0.379272 72.4878 0.379272C72.6119 0.379272 72.736 0.379272 72.8601 0.379272C72.9842 0.379272 73.1083 0.467183 73.2324 0.467183C73.3565 0.467183 73.4807 0.27068 73.6048 0.27068C73.7289 0.27068 73.853 0.301709 73.9771 0.301709C74.1012 0.301709 74.2253 0.337906 74.3494 0.337906C74.4735 0.337906 74.5976 0.379272 74.7217 0.379272C74.8458 0.379272 74.9699 0.275852 75.094 0.275852C75.2181 0.275852 75.3422 0.529233 75.4664 0.529233C75.5905 0.529233 75.7146 0.560263 75.8387 0.560263C75.9628 0.560263 76.0869 0.358587 76.211 0.358587C76.3351 0.358587 76.4592 0.368931 76.5833 0.368931C76.7074 0.368931 76.8315 0.399956 76.9556 0.399956C77.0797 0.399956 77.2038 0.456839 77.3279 0.456839C77.452 0.456839 77.5761 0.534406 77.7003 0.534406C77.8244 0.534406 77.9485 0.265507 78.0726 0.265507C78.1967 0.265507 78.3208 0.477523 78.4449 0.477523C78.569 0.477523 78.6931 0.420641 78.8172 0.420641C78.9413 0.420641 79.0654 0.281023 79.1895 0.275852C79.3136 0.270681 79.4377 0.617141 79.5618 0.617141C79.6859 0.617141 79.8101 0.544746 79.9342 0.544746C80.0583 0.544746 80.1824 0.446498 80.3065 0.446498C80.4306 0.446498 80.5547 0.343074 80.6788 0.343074C80.8029 0.343074 80.927 0.493036 81.0511 0.493036C81.1752 0.493036 81.2993 0.255167 81.4234 0.255167C81.5475 0.255167 81.6716 0.312048 81.7957 0.306877C81.9198 0.301706 82.044 0.343074 82.1681 0.343074C82.2922 0.343074 82.4163 0.467183 82.5404 0.467183C82.6645 0.467183 82.7886 0.286192 82.9127 0.286192C83.0368 0.286192 83.1609 0.368931 83.285 0.368931C83.4091 0.368931 83.5332 0.498208 83.6573 0.498208C83.7814 0.498208 83.9055 0.255167 84.0297 0.255167C84.1538 0.255167 84.2779 0.389616 84.402 0.389616C84.5261 0.389616 84.6502 0.446498 84.7743 0.446498C84.8984 0.446498 85.0225 0.32239 85.1466 0.32239C85.2707 0.32239 85.3948 0.374102 85.5189 0.368931C85.643 0.36376 85.7671 0.436154 85.8912 0.436154C86.0153 0.436154 86.1394 0.456839 86.2636 0.456839C86.3877 0.456839 86.5118 0.281024 86.6359 0.281024C86.76 0.281024 86.8841 0.368931 87.0082 0.368931C87.1323 0.368931 87.2564 0.472351 87.3805 0.472351C87.5046 0.472351 87.6287 0.591288 87.7528 0.591288C87.8769 0.591288 88.001 0.570603 88.1251 0.570603C88.2492 0.570603 88.3734 0.306877 88.4923 0.306877C88.6112 0.306877 88.7405 0.55509 88.8646 0.55509C88.9887 0.55509 89.1128 0.524061 89.2369 0.524061C89.361 0.524061 89.4851 0.487864 89.6092 0.487864C89.7333 0.487864 89.8575 0.477523 89.9816 0.477523C90.1057 0.477523 90.2298 0.239654 90.3487 0.239654C90.4676 0.239654 90.5969 0.281024 90.721 0.281024C90.8451 0.281024 90.9692 0.472351 91.0933 0.472351C91.2175 0.472351 91.3416 0.249995 91.4605 0.249995C91.5794 0.249995 91.7087 0.394784 91.8328 0.394784C91.9569 0.394784 92.081 0.286192 92.2051 0.286192C92.3292 0.286192 92.4533 0.22931 92.5774 0.22931C92.7015 0.22931 92.8257 0.524064 92.9498 0.518893C93.0739 0.513722 93.198 0.27068 93.3169 0.27068C93.4358 0.27068 93.5651 0.234482 93.6892 0.234482C93.8133 0.234482 93.9374 0.394784 94.0615 0.394784C94.1856 0.394784 94.3097 0.420641 94.4339 0.420641C94.558 0.420641 94.6821 0.534406 94.8062 0.534406C94.9303 0.534406 95.0544 0.451666 95.1785 0.451666C95.3026 0.451666 95.4267 0.467183 95.5508 0.467183C95.6749 0.467183 95.799 0.467183 95.9231 0.467183C96.0472 0.467183 96.1713 0.425812 96.2954 0.420641C96.4196 0.41547 96.5437 0.32239 96.6678 0.32239C96.7919 0.32239 96.916 0.384444 97.0401 0.384444C97.1642 0.384444 97.2883 0.560263 97.4124 0.560263C97.5365 0.560263 97.6606 0.472351 97.7847 0.472351C97.9088 0.472351 98.0329 0.399956 98.157 0.399956C98.2811 0.399956 98.4052 0.36893 98.5293 0.363759C98.6535 0.358588 98.7776 0.265507 98.9017 0.265507C99.0258 0.265507 99.1499 0.446498 99.274 0.446498C99.3981 0.446498 99.5222 0.534406 99.6463 0.534406C99.7704 0.534406 99.8945 0.22931 100.013 0.22931C100.132 0.22931 100.262 0.462011 100.386 0.462011C100.51 0.462011 100.634 0.27068 100.753 0.27068C100.872 0.27068 101.001 0.306877 101.125 0.306877C101.249 0.306877 101.373 0.379272 101.498 0.379272C101.622 0.379272 101.746 0.203457 101.87 0.203457C101.994 0.203457 102.118 0.50338 102.242 0.50338C102.366 0.50338 102.49 0.275852 102.609 0.275852C102.728 0.275852 102.858 0.229313 102.982 0.224142C103.106 0.218971 103.23 0.255167 103.354 0.255167C103.478 0.255167 103.602 0.337906 103.726 0.337906C103.85 0.337906 103.974 0.50338 104.099 0.50338C104.223 0.50338 104.347 0.291364 104.471 0.291364C104.595 0.291364 104.719 0.363759 104.843 0.363759C104.967 0.363759 105.091 0.224142 105.216 0.224142C105.34 0.224142 105.464 0.348247 105.588 0.348247C105.712 0.348247 105.836 0.430986 105.96 0.430986C106.084 0.430986 106.208 0.456839 106.333 0.456839C106.457 0.456839 106.581 0.487864 106.705 0.487864C106.829 0.487864 106.953 0.281024 107.077 0.281024C107.201 0.281024 107.325 0.446498 107.449 0.446498C107.574 0.446498 107.698 0.224142 107.822 0.224142C107.946 0.224142 108.07 0.249995 108.194 0.249995C108.318 0.249995 108.442 0.348247 108.566 0.348247C108.691 0.348247 108.815 0.244827 108.939 0.244827C109.063 0.244827 109.187 0.348247 109.311 0.348247C109.435 0.348247 109.559 0.306877 109.683 0.306877C109.807 0.306877 109.932 0.384444 110.056 0.384444C110.18 0.384444 110.304 0.379272 110.428 0.379272C110.552 0.379272 110.676 0.172432 110.8 0.172432C110.924 0.172432 111.049 0.446497 111.173 0.441326C111.297 0.436155 111.421 0.1776 111.545 0.1776C111.669 0.1776 111.793 0.477523 111.917 0.477523C112.041 0.477523 112.165 0.508549 112.29 0.508549C112.414 0.508549 112.538 0.327562 112.662 0.327562C112.786 0.327562 112.91 0.327562 113.034 0.327562C113.158 0.327562 113.282 0.363759 113.407 0.363759C113.531 0.363759 113.655 0.291364 113.779 0.291364C113.903 0.291364 114.027 0.286192 114.151 0.286192C114.275 0.286192 114.399 0.286192 114.523 0.286192C114.648 0.286192 114.772 0.332734 114.896 0.332734C115.02 0.332734 115.144 0.374103 115.268 0.374103C115.392 0.374103 115.516 0.162087 115.64 0.162087C115.765 0.162087 115.889 0.399956 116.013 0.399956C116.137 0.399956 116.261 0.286192 116.385 0.286192C116.509 0.286192 116.633 0.343074 116.757 0.343074C116.881 0.343074 117.006 0.239654 117.13 0.239654C117.254 0.239654 117.378 0.498208 117.502 0.498208C117.626 0.498208 117.75 0.405129 117.874 0.405129C117.998 0.405129 118.123 0.260339 118.247 0.260339C118.371 0.260339 118.495 0.234482 118.619 0.234482C118.743 0.234482 118.867 0.332734 118.991 0.332734C119.115 0.332734 119.24 0.379272 119.364 0.379272C119.488 0.379272 119.612 0.27068 119.736 0.27068C119.86 0.27068 119.984 0.255167 120.108 0.255167C120.232 0.255167 120.356 0.234482 120.481 0.234482C120.605 0.234482 120.729 0.363759 120.853 0.363759C120.977 0.363759 121.101 0.358587 121.225 0.358587C121.349 0.358587 121.473 0.249995 121.598 0.249995C121.722 0.249995 121.846 0.172432 121.97 0.172432C122.094 0.172432 122.218 0.379272 122.342 0.379272C122.466 0.379272 122.59 0.446498 122.714 0.446498C122.839 0.446498 122.963 0.301709 123.087 0.301709C123.211 0.301709 123.335 0.472351 123.459 0.472351C123.583 0.472351 123.707 0.394784 123.831 0.394784C123.956 0.394784 124.08 0.456839 124.204 0.456839C124.328 0.456839 124.452 0.446498 124.576 0.446498C124.7 0.446498 124.824 0.255167 124.948 0.255167C125.072 0.255167 125.197 0.151747 125.321 0.151747C125.445 0.151747 125.569 0.275852 125.693 0.275852C125.817 0.275852 125.941 0.234482 126.065 0.234482C126.189 0.234482 126.314 0.208629 126.438 0.208629C126.562 0.208629 126.686 0.193113 126.81 0.193113C126.934 0.193113 127.058 0.275852 127.182 0.275852C127.306 0.275852 127.431 0.343074 127.555 0.343074C127.679 0.343074 127.803 0.208629 127.927 0.208629C128.051 0.208629 128.175 0.234482 128.299 0.234482C128.423 0.234482 128.547 0.182772 128.672 0.182772C128.796 0.182772 128.92 0.27068 129.044 0.27068C129.168 0.27068 129.292 0.239654 129.416 0.239654C129.54 0.239654 129.67 0.379272 129.794 0.379272C129.918 0.379272 130.042 0.213797 130.171 0.213797C130.3 0.213797 130.425 0.255167 130.549 0.255167C130.673 0.255167 130.792 0.255167 130.916 0.255167C131.04 0.255167 131.164 0.162087 131.283 0.162087C131.402 0.162087 131.531 0.441326 131.65 0.441326C131.769 0.441326 131.898 0.332734 132.017 0.332734C132.136 0.332734 132.265 0.16726 132.39 0.16726C132.514 0.16726 132.633 0.275852 132.757 0.275852C132.881 0.275852 133.005 0.13623 133.129 0.13623C133.253 0.13623 133.372 0.32239 133.496 0.32239C133.62 0.32239 133.744 0.198285 133.868 0.198285C133.993 0.198285 134.106 0.430983 134.23 0.436154C134.355 0.441325 134.484 0.270681 134.608 0.275852C134.732 0.281023 134.861 0.193114 134.98 0.198285C135.099 0.203456 135.218 0.40513 135.337 0.410301C135.456 0.415472 135.58 0.430984 135.704 0.441326C135.828 0.451668 135.947 0.503378 136.071 0.508549C136.195 0.51372 136.309 0.606799 136.433 0.617141C136.557 0.627483 136.713 0.301707 136.832 0.312049C136.95 0.322391 137.069 0.436153 137.188 0.451666C137.307 0.46718 137.421 0.591287 137.54 0.6068C137.659 0.622314 137.793 0.560262 137.917 0.575775C138.042 0.591288 138.176 0.529234 138.295 0.549918C138.414 0.570602 138.533 0.617141 138.657 0.637826C138.781 0.65851 138.915 0.601629 139.034 0.622313C139.153 0.642997 139.215 0.979116 139.334 1.00497C139.453 1.03083 139.629 0.798129 139.748 0.823985C139.867 0.84984 139.986 0.906721 140.105 0.932577C140.224 0.958432 140.338 1.03083 140.456 1.06185C140.575 1.09288 140.699 1.10839 140.818 1.13942C140.937 1.17045 141.01 1.3566 141.129 1.3928C141.248 1.429 141.392 1.36695 141.511 1.40315C141.63 1.43934 141.692 1.63067 141.806 1.67204C141.92 1.71341 142.034 1.75995 142.147 1.80649C142.261 1.85303 142.375 1.88923 142.489 1.93577C142.602 1.98231 142.845 1.72375 142.959 1.77029C143.073 1.81683 143.176 1.8944 143.29 1.94611C143.404 1.99782 143.43 2.23569 143.544 2.29257C143.657 2.34945 143.859 2.23052 143.968 2.29257C144.076 2.35463 144.04 2.67523 144.149 2.73729C144.257 2.79934 144.397 2.80451 144.5 2.87173C144.604 2.93895 144.769 2.9131 144.873 2.98032C144.976 3.04755 144.981 3.26473 145.085 3.33713C145.188 3.40952 145.452 3.25439 145.55 3.32678C145.648 3.39918 145.633 3.63705 145.731 3.71461C145.829 3.79218 145.933 3.85941 146.031 3.94214C146.129 4.02488 146.274 4.0404 146.367 4.12313C146.46 4.20587 146.657 4.18002 146.744 4.26792C146.832 4.35583 146.744 4.6299 146.838 4.7178C146.931 4.80571 147.101 4.80572 147.189 4.8988C147.277 4.99187 147.386 5.05909 147.468 5.15217C147.551 5.24525 147.598 5.36936 147.68 5.46761C147.763 5.56586 147.711 5.76753 147.789 5.86578C147.867 5.96403 147.949 6.05194 148.027 6.1502C148.104 6.24845 148.244 6.30015 148.316 6.3984C148.389 6.49666 148.642 6.47597 148.715 6.5794C148.787 6.68282 148.627 6.9362 148.694 7.03962C148.761 7.14304 148.828 7.24646 148.89 7.35506C148.953 7.46365 149.278 7.42745 149.335 7.53604C149.392 7.64463 149.346 7.81528 149.402 7.92905C149.459 8.04281 149.402 8.20828 149.449 8.32205C149.495 8.43581 149.656 8.50303 149.702 8.62197C149.749 8.7409 149.666 8.90638 149.702 9.02014C149.739 9.13391 150.007 9.18044 150.049 9.29938C150.09 9.41831 149.992 9.58379 150.023 9.70272C150.054 9.82166 150.033 9.95611 150.064 10.0802C150.095 10.2043 150.064 10.3336 150.09 10.4577C150.116 10.5818 150.106 10.7059 150.132 10.8248C150.157 10.9438 150.276 11.0524 150.297 11.1765C150.318 11.3006 150.344 11.4195 150.354 11.5488C150.364 11.6781 150.468 11.7918 150.473 11.9159C150.478 12.04 150.333 12.1693 150.333 12.2934C150.333 12.4175 150.359 12.5416 150.354 12.6658C150.354 12.7899 150.4 12.914 150.39 13.0381C150.38 13.1622 150.478 13.2966 150.462 13.4207C150.447 13.5448 150.225 13.6431 150.209 13.7672C150.194 13.8913 150.168 14.0102 150.147 14.1292C150.126 14.2481 150.38 14.4291 150.359 14.548C150.338 14.667 150.25 14.7859 150.225 14.9048C150.199 15.0238 149.904 15.0755 149.868 15.1944C149.832 15.3133 149.982 15.484 149.945 15.6029C149.909 15.7219 149.899 15.8511 149.857 15.9649C149.816 16.0787 149.837 16.2286 149.79 16.3424C149.744 16.4561 149.433 16.4613 149.382 16.5699C149.33 16.6785 149.527 16.9164 149.475 17.025C149.423 17.1336 149.382 17.2628 149.32 17.3714C149.258 17.48 148.958 17.4542 148.896 17.5576C148.834 17.661 148.808 17.7903 148.74 17.8937C148.673 17.9971 148.689 18.1574 148.616 18.2557C148.544 18.3539 148.446 18.4418 148.373 18.5401C148.301 18.6383 148.089 18.628 148.011 18.7262C147.934 18.8245 147.96 19.0003 147.882 19.0986C147.805 19.1968 147.815 19.3726 147.732 19.4657C147.649 19.5588 147.443 19.5329 147.355 19.6209C147.267 19.7088 147.287 19.9104 147.2 19.9932C147.112 20.0759 146.993 20.138 146.9 20.2207C146.807 20.3034 146.672 20.3345 146.574 20.4172C146.476 20.4999 146.346 20.5258 146.248 20.6034C146.15 20.6809 146.031 20.7223 145.933 20.7999C145.834 20.8774 145.783 21.0067 145.679 21.0791C145.576 21.1515 145.405 21.1153 145.302 21.1825C145.198 21.2497 145.219 21.5031 145.116 21.5703C145.012 21.6376 144.898 21.6893 144.79 21.7513C144.681 21.8134 144.469 21.6944 144.366 21.7565C144.262 21.8186 144.18 21.9271 144.071 21.984C143.962 22.0409 143.921 22.2271 143.812 22.284C143.704 22.3408 143.544 22.2995 143.435 22.3563C143.326 22.4132 143.213 22.4546 143.099 22.5115C142.985 22.5684 142.98 22.8476 142.866 22.8993C142.752 22.951 142.561 22.8217 142.447 22.8683C142.334 22.9148 142.189 22.889 142.075 22.9355C141.961 22.982 141.868 23.0906 141.754 23.132C141.641 23.1734 141.599 23.4216 141.48 23.463C141.361 23.5043 141.17 23.3337 141.051 23.3751C140.932 23.4164 140.803 23.4164 140.689 23.4578C140.575 23.4992 140.472 23.5871 140.353 23.6284C140.234 23.6698 140.157 23.8353 140.038 23.8663C139.919 23.8973 139.774 23.8456 139.655 23.8766C139.536 23.9077 139.396 23.8715 139.277 23.9025C139.158 23.9335 139.065 24.0835 138.946 24.1145C138.828 24.1455 138.709 24.1869 138.59 24.2179C138.471 24.249 138.352 24.2955 138.233 24.3265C138.114 24.3576 137.99 24.3834 137.866 24.4093C137.742 24.4351 137.633 24.523 137.514 24.5437C137.395 24.5644 137.225 24.3576 137.106 24.3782C136.987 24.3989 136.899 24.6471 136.775 24.6678C136.651 24.6885 136.511 24.5903 136.387 24.6109C136.263 24.6316 136.149 24.6937 136.025 24.7144C135.901 24.735 135.766 24.6782 135.647 24.6937C135.528 24.7092 135.409 24.7919 135.285 24.8074C135.161 24.823 135.037 24.8178 134.913 24.8333C134.789 24.8488 134.654 24.7195 134.53 24.7299C134.406 24.7402 134.298 24.9729 134.179 24.9833C134.06 24.9936 133.915 24.8126 133.796 24.8178C133.677 24.823 133.553 24.9522 133.434 24.9574C133.315 24.9626 133.186 24.9471 133.062 24.9522C132.938 24.9574 132.819 24.916 132.695 24.916C132.571 24.916 132.446 25.0091 132.322 25.0091C132.198 25.0091 132.074 25.066 131.95 25.066C131.826 25.066 131.702 25.0712 131.578 25.0712C131.454 25.0712 131.329 24.9367 131.205 24.9367C131.081 24.9367 130.957 24.9005 130.833 24.9005C130.709 24.9005 130.585 24.8385 130.461 24.8436C130.337 24.8488 130.213 24.7454 130.088 24.7506C129.964 24.7557 129.845 25.0298 129.721 25.0298C129.597 25.0298 129.468 24.8023 129.344 24.8023C129.22 24.8023 129.096 24.854 128.971 24.8591C128.847 24.8643 128.723 24.854 128.599 24.8591C128.475 24.8643 128.356 25.1229 128.232 25.1229C128.108 25.1229 127.979 24.8902 127.855 24.8953C127.73 24.9005 127.606 24.823 127.482 24.823C127.358 24.823 127.234 24.823 127.11 24.823C126.986 24.823 126.867 25.0815 126.743 25.0815C126.619 25.0815 126.489 24.9522 126.365 24.9574C126.241 24.9626 126.117 24.9057 125.993 24.9109C125.869 24.916 125.745 24.9315 125.621 24.9315C125.497 24.9315 125.372 25.0401 125.248 25.0401C125.124 25.0401 125 25.1642 124.876 25.1642C124.752 25.1642 124.623 24.9264 124.499 24.9264C124.374 24.9264 124.25 25.0505 124.126 25.0505C124.002 25.0505 123.873 24.8953 123.749 24.9005C123.625 24.9057 123.5 24.9264 123.376 24.9264C123.252 24.9264 123.128 25.0091 123.004 25.0143C122.88 25.0195 122.756 24.9677 122.632 24.9729C122.508 24.9781 122.384 25.066 122.259 25.0712C122.135 25.0763 122.011 25.0298 121.887 25.035C121.763 25.0401 121.644 25.2211 121.52 25.2211C121.396 25.2211 121.267 24.9988 121.142 25.0039C121.018 25.0091 120.894 25.0401 120.77 25.0453C120.646 25.0505 120.522 24.9729 120.398 24.9781C120.274 24.9833 120.155 25.1177 120.031 25.1177C119.907 25.1177 119.782 25.097 119.658 25.097C119.534 25.097 119.41 25.1384 119.286 25.1384C119.162 25.1384 119.038 25.0557 118.914 25.0557C118.79 25.0557 118.666 25.1229 118.541 25.1229C118.417 25.1229 118.293 25.2263 118.169 25.2315C118.045 25.2366 117.916 25.128 117.792 25.128C117.668 25.128 117.543 25.1642 117.419 25.1694C117.295 25.1746 117.171 25.278 117.047 25.2832C116.923 25.2883 116.799 25.2108 116.675 25.2108C116.551 25.2108 116.432 25.3918 116.308 25.3969C116.183 25.4021 116.049 25.0608 115.925 25.0608C115.801 25.0608 115.682 25.2418 115.558 25.2418C115.434 25.2418 115.304 25.1384 115.18 25.1436C115.056 25.1487 114.937 25.4228 114.813 25.428C114.689 25.4331 114.56 25.2987 114.436 25.3039C114.311 25.309 114.187 25.3039 114.063 25.3039C113.939 25.3039 113.815 25.247 113.691 25.2522C113.567 25.2573 113.443 25.3452 113.319 25.3504C113.195 25.3556 113.07 25.4486 112.946 25.4486C112.822 25.4486 112.698 25.3659 112.574 25.3659C112.45 25.3659 112.326 25.4848 112.202 25.49C112.078 25.4952 111.948 25.2935 111.824 25.2987C111.7 25.3039 111.581 25.4435 111.457 25.4486C111.333 25.4538 111.209 25.5262 111.085 25.5262C110.961 25.5262 110.831 25.3504 110.707 25.3556C110.583 25.3607 110.459 25.3401 110.335 25.3401C110.211 25.3401 110.087 25.3039 109.963 25.309C109.838 25.3142 109.714 25.278 109.59 25.278C109.466 25.278 109.347 25.5572 109.223 25.5572C109.099 25.5572 108.975 25.5572 108.851 25.5572C108.727 25.5572 108.603 25.5521 108.479 25.5572C108.354 25.5624 108.225 25.3866 108.101 25.3866C107.977 25.3866 107.853 25.3969 107.729 25.3969C107.605 25.3969 107.48 25.3659 107.356 25.3659C107.232 25.3659 107.113 25.5986 106.989 25.5986C106.865 25.5986 106.736 25.3711 106.612 25.3763C106.488 25.3814 106.364 25.4228 106.239 25.428C106.115 25.4331 105.996 25.5986 105.867 25.5986C105.738 25.5986 105.614 25.4176 105.49 25.4228C105.366 25.428 105.241 25.4538 105.117 25.4538C104.993 25.4538 104.864 25.3142 104.74 25.3194C104.616 25.3245 104.497 25.6141 104.373 25.6141C104.249 25.6141 104.124 25.5779 104 25.5779C103.876 25.5779 103.747 25.4176 103.623 25.4176C103.499 25.4176 103.375 25.4176 103.251 25.4176C103.126 25.4176 103.002 25.4642 102.878 25.4693C102.754 25.4745 102.63 25.459 102.506 25.459C102.382 25.459 102.258 25.3763 102.128 25.3763C101.999 25.3763 101.88 25.4797 101.756 25.4797C101.632 25.4797 101.503 25.3659 101.379 25.3659C101.255 25.3659 101.13 25.3452 101.006 25.3452C100.882 25.3452 100.758 25.6038 100.634 25.6038C100.51 25.6038 100.386 25.5417 100.256 25.5417C100.127 25.5417 100.008 25.6141 99.8842 25.6193C99.7601 25.6245 99.636 25.6503 99.5119 25.6503C99.3878 25.6503 99.2636 25.5883 99.1344 25.5883C99.0051 25.5883 98.8862 25.5883 98.7621 25.5883C98.6379 25.5883 98.5087 25.4021 98.3846 25.4073C98.2605 25.4125 98.1363 25.5986 98.0122 25.5986C97.8881 25.5986 97.764 25.7382 97.6399 25.7434C97.5158 25.7486 97.3865 25.3918 97.2624 25.3969C97.1383 25.4021 97.0142 25.4487 96.8901 25.4538C96.766 25.459 96.6419 25.6865 96.5178 25.6865C96.3937 25.6865 96.2696 25.7176 96.1455 25.7227C96.0214 25.7279 95.8921 25.5314 95.768 25.5314C95.6439 25.5314 95.5198 25.5883 95.3957 25.5883C95.2716 25.5883 95.1475 25.5728 95.0234 25.5779C94.8993 25.5831 94.7751 25.7072 94.651 25.7072C94.5269 25.7072 94.3977 25.5004 94.2736 25.5055C94.1494 25.5107 94.0253 25.6814 93.9012 25.6814C93.7771 25.6814 93.6479 25.4642 93.5237 25.4642C93.3996 25.4642 93.2755 25.6865 93.1514 25.6865C93.0273 25.6865 92.8981 25.4538 92.7739 25.4538C92.6498 25.4538 92.5257 25.5004 92.4016 25.5004C92.2775 25.5004 92.1534 25.7796 92.0293 25.7796C91.9052 25.7796 91.7811 25.7796 91.657 25.7796C91.5329 25.7796 91.4036 25.4952 91.2795 25.4952C91.1657 25.4952 91.0468 25.521 90.9072 25.5159C90.7934 25.5159 90.6641 25.6555 90.5349 25.6555C90.4159 25.6555 90.2918 25.5986 90.1625 25.5986C90.0436 25.5986 89.9195 25.5934 89.7851 25.5883C89.6661 25.5883 89.5368 25.7175 89.4076 25.7175C89.2835 25.7175 89.1645 25.6193 89.0353 25.6141C88.906 25.609 88.787 25.7176 88.6578 25.7124C88.5285 25.7072 88.4147 25.4952 88.2854 25.4952C88.1562 25.4952 88.0372 25.4642 87.908 25.459C87.7787 25.4538 87.6597 25.3969 87.5356 25.3969C87.4115 25.3969 87.2823 25.5262 87.1582 25.5262C87.034 25.5262 86.9099 25.4021 86.7858 25.3969C86.6617 25.3918 86.5376 25.4021 86.4084 25.3969C86.2791 25.3918 86.155 25.6038 86.0257 25.6038C85.8964 25.6038 85.7775 25.6555 85.6482 25.6503C85.5189 25.6451 85.4 25.6503 85.2707 25.6452C85.1414 25.64 85.0225 25.4642 84.8984 25.4642C84.7743 25.4642 84.645 25.64 84.5157 25.6348C84.3865 25.6296 84.2623 25.6193 84.1382 25.6193C84.0141 25.6193 83.89 25.3659 83.7659 25.3659C83.6418 25.3659 83.5125 25.49 83.3833 25.49C83.254 25.49 83.1299 25.5055 83.0058 25.5055C82.8817 25.5055 82.7472 25.6555 82.6231 25.6555C82.499 25.6555 82.3697 25.3659 82.2456 25.3659C82.1215 25.3659 81.9871 25.5572 81.863 25.5572C81.7389 25.5572 81.6096 25.3556 81.4855 25.3556C81.3614 25.3556 81.2321 25.4849 81.108 25.4849C80.9839 25.4849 80.8546 25.3969 80.7305 25.3969C80.6064 25.3969 80.4771 25.5055 80.353 25.5055C80.2289 25.5055 80.0996 25.3142 79.9755 25.3194C79.8463 25.3194 79.7221 25.4125 79.598 25.4176C79.4688 25.4176 79.3498 25.6451 79.2309 25.6503C79.1016 25.6503 78.962 25.3763 78.8431 25.3814C78.7086 25.3866 78.5949 25.6038 78.4811 25.6141C78.3415 25.6245 78.0984 25.6917 77.9898 25.7072C78.1139 25.7072 78.3518 25.5986 78.4759 25.6038C78.6 25.609 78.7086 25.7796 78.8327 25.7899C78.9568 25.8003 79.112 25.4797 79.2361 25.49C79.3602 25.5004 79.4894 25.5107 79.6084 25.5262C79.7273 25.5417 79.8359 25.702 79.9548 25.7227C80.0738 25.7434 80.2082 25.7227 80.3323 25.7486C80.4564 25.7744 80.5237 26.0382 80.6426 26.064C80.7615 26.0899 80.9322 25.9296 81.0511 25.9606C81.17 25.9916 81.2631 26.1209 81.3821 26.1571C81.501 26.1933 81.6354 26.1829 81.7492 26.2191C81.863 26.2553 81.9664 26.3484 82.0802 26.395C82.1939 26.4415 82.287 26.5449 82.4008 26.5915C82.5145 26.638 82.68 26.5604 82.7938 26.6121C82.9075 26.6639 83.0885 26.5708 83.2023 26.6225C83.316 26.6742 83.2798 27.0155 83.3884 27.0724C83.497 27.1292 83.6832 27.0517 83.7866 27.1137C83.89 27.1758 84.0917 27.0931 84.1951 27.1551C84.2985 27.2172 84.2882 27.4757 84.3916 27.5429C84.495 27.6102 84.6192 27.6464 84.7226 27.7188C84.826 27.7911 84.9863 27.786 85.0794 27.8635C85.1725 27.9411 85.1311 28.1945 85.2242 28.2721C85.3172 28.3496 85.6068 28.21 85.6999 28.2876C85.793 28.3651 85.6947 28.6599 85.7826 28.7478C85.8706 28.8357 86.005 28.8719 86.0929 28.9598C86.1808 29.0477 86.3928 29.0219 86.4756 29.1149C86.5583 29.208 86.5169 29.4097 86.5997 29.5028C86.6824 29.5959 86.6669 29.7665 86.7445 29.8596C86.822 29.9527 86.9151 30.0354 86.9875 30.1337C87.0599 30.2319 87.2305 30.2629 87.3029 30.3612C87.3753 30.4594 87.3185 30.6456 87.3857 30.749C87.4529 30.8524 87.5253 30.9507 87.5874 31.0541C87.6494 31.1575 87.9338 31.1368 87.9907 31.2454C88.0476 31.354 88.12 31.4626 88.1769 31.5712C88.2337 31.6798 88.2131 31.8298 88.2699 31.9435C88.3268 32.0573 88.2544 32.2228 88.3061 32.3365C88.3578 32.4503 88.6629 32.4555 88.7095 32.5692C88.756 32.683 88.7095 32.8433 88.7508 32.9571C88.7922 33.0708 88.7146 33.2363 88.7508 33.3501C88.787 33.4638 88.8284 33.5828 88.8698 33.7017C88.9111 33.8206 89.0611 33.9034 89.0973 34.0223C89.1335 34.1412 89.2473 34.2395 89.2783 34.3636C89.3093 34.4877 89.2318 34.6325 89.2576 34.7514C89.2835 34.8704 89.2731 34.9996 89.2938 35.1237C89.3145 35.2478 89.4593 35.3461 89.48 35.4702C89.5006 35.5943 89.4127 35.7339 89.4283 35.858C89.4438 35.9821 89.33 36.1166 89.3455 36.2407C89.361 36.3648 89.3714 36.4837 89.3817 36.6078C89.3921 36.7319 89.4438 36.8509 89.4541 36.9698C89.4645 37.0887 89.3817 37.218 89.3869 37.3421C89.3921 37.4662 89.5782 37.5852 89.5782 37.7093C89.5782 37.8334 89.6558 37.9575 89.6558 38.0816C89.6558 38.2057 89.6351 38.3298 89.6299 38.4539C89.6248 38.578 89.511 38.6969 89.5007 38.8211C89.4903 38.9452 89.4386 39.0641 89.4283 39.1882C89.4179 39.3123 89.4541 39.4416 89.4386 39.5605C89.4231 39.6795 89.5213 39.8242 89.5007 39.9484C89.48 40.0725 89.4645 40.2017 89.4438 40.3207C89.4231 40.4396 89.2059 40.5275 89.18 40.6516C89.1542 40.7757 89.0921 40.8843 89.0611 41.0084C89.0301 41.1325 89.2059 41.3083 89.1697 41.4273C89.1335 41.5462 88.8801 41.5979 88.8388 41.7169C88.7974 41.8358 88.968 42.0271 88.9267 42.1409C88.8853 42.2547 88.8905 42.3994 88.8439 42.5132C88.7974 42.627 88.6526 42.7097 88.6061 42.8235C88.5595 42.9372 88.4819 43.0458 88.4302 43.1596C88.3785 43.2734 88.3061 43.3768 88.2493 43.4905C88.1924 43.6043 88.0941 43.6922 88.0321 43.8008C87.97 43.9094 87.8356 43.9766 87.7735 44.0852C87.7115 44.1938 87.6339 44.2869 87.5667 44.3955C87.4994 44.5041 87.6546 44.7471 87.5874 44.8505C87.5201 44.954 87.2202 44.9074 87.153 45.0108C87.0858 45.1143 87.0754 45.259 86.9979 45.3573C86.9203 45.4555 86.8944 45.59 86.822 45.6934C86.7496 45.7968 86.6617 45.8847 86.5842 45.983C86.5066 46.0812 86.4756 46.2209 86.3928 46.3139C86.3101 46.407 86.2325 46.5104 86.1498 46.6035C86.0671 46.6966 85.824 46.6397 85.7413 46.7328C85.6585 46.8259 85.612 46.95 85.5241 47.0379C85.4362 47.1258 85.462 47.3275 85.369 47.4154C85.2759 47.5033 85.1931 47.5964 85.1001 47.6791C85.007 47.7618 84.8725 47.8032 84.7795 47.886C84.6864 47.9687 84.6709 48.1445 84.5726 48.2272C84.4744 48.31 84.221 48.191 84.1227 48.2686C84.0245 48.3462 83.9107 48.3979 83.8125 48.4755C83.7142 48.553 83.8021 48.8788 83.6987 48.9512C83.5953 49.0236 83.4195 48.9926 83.316 49.065C83.2126 49.1374 83.011 49.0598 82.9075 49.127C82.8041 49.1942 82.7731 49.3752 82.6645 49.4424C82.5559 49.5097 82.4111 49.5097 82.3025 49.5717C82.1939 49.6338 82.0957 49.7113 81.9871 49.7734C81.8785 49.8355 81.8733 50.0888 81.7647 50.1457C81.6561 50.2026 81.4389 50.0681 81.3303 50.125C81.2218 50.1819 81.2011 50.425 81.0873 50.4818C80.9735 50.5387 80.8598 50.5956 80.746 50.6473C80.6323 50.699 80.4047 50.4922 80.291 50.5439C80.1772 50.5956 80.1462 50.8438 80.0324 50.8904C79.9186 50.9369 79.8359 51.0868 79.7221 51.1282C79.6084 51.1696 79.4171 51.0196 79.3033 51.061C79.1895 51.1024 79.1275 51.3144 79.0137 51.3557C78.8999 51.3971 78.7345 51.3092 78.6207 51.3454C78.5069 51.3816 78.4294 51.5626 78.3104 51.5936C78.1915 51.6246 78.0674 51.6608 77.9485 51.6919C77.8295 51.7229 77.6434 51.5057 77.5244 51.5419C77.4055 51.5781 77.2814 51.5781 77.1625 51.6091C77.0435 51.6402 76.9504 51.7798 76.8315 51.8108C76.7126 51.8418 76.5678 51.7487 76.4437 51.7746C76.3196 51.8005 76.211 51.8573 76.0869 51.878C75.9628 51.8987 75.8852 52.1469 75.7663 52.1676C75.6473 52.1883 75.5129 52.1469 75.3888 52.1676C75.2647 52.1883 75.1147 52.0228 74.9958 52.0435C74.8768 52.0642 74.7889 52.3227 74.6648 52.3434C74.5407 52.3641 74.3959 52.2141 74.277 52.2297C74.1581 52.2452 74.0443 52.3434 73.9202 52.3589C73.7961 52.3744 73.672 52.3486 73.5479 52.3589C73.4238 52.3693 73.31 52.452 73.1859 52.4624C73.0618 52.4727 72.9377 52.4675 72.8136 52.4779C72.6895 52.4882 72.5499 52.2762 72.4258 52.2865C72.3016 52.2969 72.1931 52.452 72.0689 52.4624C71.9448 52.4727 71.8362 52.664 71.7121 52.6692C71.588 52.6744 71.4536 52.4313 71.3295 52.4365C71.2054 52.4417 71.0864 52.4572 70.9623 52.4624C70.8382 52.4675 70.7245 52.6951 70.6004 52.7002C70.4763 52.7054 70.3522 52.7157 70.228 52.7209C70.1039 52.7261 69.9747 52.4779 69.8506 52.483C69.7265 52.4882 69.6075 52.7519 69.4886 52.7571C69.3697 52.7623 69.2404 52.7468 69.1163 52.7468C68.9922 52.7468 68.8681 52.5244 68.744 52.5244C68.6198 52.5244 68.4957 52.5037 68.3716 52.5037C68.2475 52.5037 68.1234 52.5399 67.9993 52.5348C67.8752 52.5296 67.7511 52.4934 67.627 52.4934C67.5029 52.4934 67.3788 52.602 67.2547 52.602C67.1306 52.602 67.0065 52.7313 66.8824 52.7313C66.7583 52.7313 66.6341 52.7519 66.51 52.7519C66.3859 52.7519 66.267 52.5348 66.1429 52.5348C66.0188 52.5348 65.8947 52.6227 65.7706 52.6175C65.6465 52.6123 65.5275 52.4934 65.4034 52.4934C65.2793 52.4934 65.1552 52.6433 65.0311 52.6433C64.9122 52.6433 64.7881 52.5658 64.664 52.5606C64.5399 52.5554 64.4209 52.4882 64.2917 52.4882C64.1624 52.4882 64.0434 52.5606 63.9193 52.5554C63.7952 52.5503 63.6711 52.5968 63.547 52.5916C63.4229 52.5865 63.304 52.3796 63.1799 52.3796C63.0558 52.3796 62.9317 52.6537 62.8075 52.6537C62.6834 52.6537 62.5645 52.4417 62.4404 52.4417C62.3163 52.4417 62.1922 52.5761 62.0681 52.5761C61.944 52.5761 61.825 52.4003 61.7009 52.4003C61.5768 52.4003 61.4527 52.602 61.3286 52.5968C61.2045 52.5916 61.0804 52.6847 60.9563 52.6795C60.8322 52.6744 60.7133 52.5503 60.5892 52.5503C60.4651 52.5503 60.3461 52.4882 60.2168 52.4882C60.0876 52.4882 59.9686 52.5554 59.8445 52.5503C59.7204 52.5451 59.6015 52.3589 59.4774 52.3589C59.3533 52.3589 59.2292 52.6795 59.1051 52.6795C58.981 52.6795 58.8569 52.6382 58.7327 52.6382C58.6086 52.6382 58.4897 52.4003 58.3656 52.3951C58.2415 52.39 58.1174 52.633 57.9933 52.633C57.8692 52.633 57.7502 52.4313 57.6261 52.4262C57.502 52.421 57.3779 52.4106 57.2538 52.4106C57.1297 52.4106 57.0056 52.6433 56.8815 52.6433C56.7574 52.6433 56.6333 52.5192 56.5092 52.5141C56.3851 52.5089 56.261 52.5761 56.1369 52.5761C56.0128 52.5761 55.8938 52.3538 55.7697 52.3538C55.6456 52.3538 55.5267 52.3124 55.4026 52.3124C55.2785 52.3124 55.1544 52.4365 55.0354 52.4365C54.9165 52.4365 54.7924 52.3486 54.6683 52.3486C54.5442 52.3486 54.4201 52.4779 54.3011 52.4779C54.1822 52.4779 54.0581 52.5192 53.934 52.5192C53.8099 52.5192 53.6909 52.5037 53.5668 52.5037C53.4427 52.5037 53.3186 52.5192 53.1997 52.5192C53.0808 52.5192 52.9567 52.4313 52.8325 52.4313C52.7084 52.4313 52.5843 52.602 52.4602 52.602C52.3361 52.602 52.2172 52.3279 52.0931 52.3227C51.969 52.3176 51.8449 52.452 51.7208 52.452C51.5967 52.452 51.4726 52.5244 51.3484 52.5244C51.2243 52.5244 51.1054 52.4106 50.9813 52.4106C50.8572 52.4106 50.7331 52.3434 50.6142 52.3382C50.4952 52.3331 50.3659 52.5503 50.2418 52.5503C50.1177 52.5503 49.9936 52.5503 49.8695 52.5503C49.7454 52.5503 49.6213 52.5503 49.4972 52.5503C49.3731 52.5503 49.2542 52.3124 49.1301 52.3124C49.006 52.3124 48.8818 52.2969 48.7577 52.2969C48.6336 52.2969 48.5095 52.2969 48.3854 52.2969C48.2613 52.2969 48.1372 52.4675 48.0131 52.4675C47.889 52.4675 47.7649 52.3331 47.6408 52.3331C47.5167 52.3331 47.3926 52.4727 47.2685 52.4727C47.1444 52.4727 47.0203 52.4624 46.8962 52.4624C46.772 52.4624 46.6479 52.3176 46.5238 52.3176C46.3997 52.3176 46.2756 52.3538 46.1515 52.3538C46.0274 52.3538 45.9033 52.4313 45.7792 52.4313C45.6551 52.4313 45.531 52.4003 45.4069 52.4003C45.2828 52.4003 45.1587 52.3744 45.0346 52.3744C44.9105 52.3744 44.7863 52.4055 44.6622 52.4055C44.5381 52.4055 44.414 52.5089 44.2899 52.5089C44.1658 52.5089 44.0417 52.2814 43.9176 52.2814C43.7935 52.2814 43.6694 52.5658 43.5453 52.5658C43.4212 52.5658 43.2971 52.3124 43.173 52.3124C43.0489 52.3124 42.9248 52.39 42.8007 52.39C42.6766 52.39 42.5524 52.24 42.4283 52.24C42.3042 52.24 42.1801 52.5192 42.056 52.5192C41.9319 52.5192 41.8078 52.4262 41.6837 52.4262C41.5596 52.4262 41.4355 52.2969 41.3114 52.2969C41.1873 52.2969 41.0632 52.421 40.9391 52.421C40.815 52.421 40.6909 52.4417 40.5668 52.4417C40.4426 52.4417 40.3185 52.2865 40.1944 52.2865C40.0703 52.2865 39.9462 52.4675 39.8221 52.4675C39.698 52.4675 39.5739 52.2503 39.4498 52.2503C39.3257 52.2503 39.2016 52.3486 39.0775 52.3486C38.9534 52.3486 38.8293 52.4262 38.7052 52.4262C38.5811 52.4262 38.457 52.4262 38.3328 52.4262C38.2087 52.4262 38.0846 52.2297 37.9605 52.2297C37.8364 52.2297 37.7123 52.209 37.5882 52.209C37.4641 52.209 37.34 52.2814 37.2159 52.2814C37.0918 52.2814 36.9677 52.4468 36.8436 52.4468C36.7195 52.4468 36.5954 52.5554 36.4713 52.5554C36.3472 52.5554 36.223 52.2555 36.0989 52.2555C35.9748 52.2555 35.8507 52.2038 35.7266 52.2038C35.6025 52.2038 35.4784 52.3486 35.3543 52.3486C35.2302 52.3486 35.1061 52.4727 34.982 52.4727C34.8579 52.4727 34.7338 52.3641 34.6097 52.3641C34.4856 52.3641 34.3615 52.2297 34.2374 52.2297C34.1132 52.2297 33.9891 52.3796 33.865 52.3796C33.7409 52.3796 33.6168 52.4106 33.4927 52.4106C33.3686 52.4106 33.2445 52.4106 33.1204 52.4106C32.9963 52.4106 32.8722 52.39 32.7481 52.39C32.624 52.39 32.4999 52.4003 32.3758 52.4003C32.2517 52.4003 32.1276 52.2814 32.0034 52.2814C31.8793 52.2814 31.7552 52.4158 31.6311 52.4158C31.507 52.4158 31.3829 52.5503 31.2588 52.5503C31.1347 52.5503 31.0106 52.1935 30.8865 52.1935C30.7624 52.1935 30.6383 52.2555 30.5142 52.2555C30.3901 52.2555 30.266 52.2348 30.1419 52.2348C30.0178 52.2348 29.8937 52.3434 29.7695 52.3434C29.6454 52.3434 29.5213 52.5399 29.3972 52.5348C29.2731 52.5296 29.149 52.4313 29.0249 52.4313C28.9008 52.4313 28.7767 52.209 28.6526 52.209C28.5285 52.209 28.4044 52.3538 28.2803 52.3538C28.1562 52.3538 28.0321 52.4727 27.908 52.4727C27.7839 52.4727 27.6597 52.4572 27.5356 52.4572C27.4115 52.4572 27.2874 52.1779 27.1633 52.1779C27.0392 52.1779 26.9151 52.3693 26.791 52.3693C26.6669 52.3693 26.5428 52.2607 26.4187 52.2607C26.2946 52.2607 26.1705 52.4055 26.0464 52.4055C25.9223 52.4055 25.7982 52.3021 25.6741 52.3021C25.5499 52.3021 25.4258 52.3382 25.3017 52.3382C25.1776 52.3382 25.0535 52.4055 24.9294 52.4055C24.8053 52.4055 24.6812 52.2452 24.5571 52.2452C24.433 52.2452 24.3089 52.2348 24.1848 52.2348C24.0607 52.2348 23.9366 52.4675 23.8125 52.4675C23.6884 52.4675 23.5643 52.3641 23.4401 52.3641C23.316 52.3641 23.1919 52.3124 23.0678 52.3124C22.9437 52.3124 22.8196 52.4727 22.6955 52.4727C22.5714 52.4727 22.4473 52.3538 22.3232 52.3486C22.1991 52.3434 22.075 52.452 21.9509 52.452C21.8268 52.452 21.7027 52.4934 21.5786 52.4934C21.4545 52.4934 21.3303 52.3072 21.2062 52.3072C21.0821 52.3072 20.958 52.4055 20.8339 52.4055C20.7098 52.4055 20.5857 52.3693 20.4616 52.3693C20.3375 52.3693 20.2134 52.1728 20.0893 52.1728C19.9652 52.1728 19.8411 52.4934 19.717 52.4934C19.5929 52.4934 19.4688 52.5089 19.3447 52.5089C19.2205 52.5089 19.0964 52.3796 18.9723 52.3796C18.8482 52.3796 18.7241 52.2503 18.6 52.2452C18.4759 52.24 18.3518 52.3382 18.2277 52.3382C18.1036 52.3382 17.9795 52.4417 17.8554 52.4417C17.7313 52.4417 17.6072 52.4158 17.4831 52.4158C17.359 52.4158 17.2349 52.1986 17.1107 52.1986C16.9866 52.1986 16.8625 52.271 16.7384 52.271C16.6143 52.271 16.4902 52.39 16.3661 52.39C16.242 52.39 16.1179 52.2245 15.9938 52.2193C15.8697 52.2141 15.7456 52.3021 15.6215 52.3021C15.4974 52.3021 15.3733 52.3538 15.2492 52.3538C15.1251 52.3538 15.0009 52.3538 14.8768 52.3538C14.7527 52.3538 14.6286 52.1986 14.5045 52.1986C14.3804 52.1986 14.2563 52.4468 14.1322 52.4468C14.0081 52.4468 13.884 52.271 13.7599 52.271C13.6358 52.271 13.5117 52.1779 13.3876 52.1779C13.2635 52.1779 13.1394 52.1935 13.0153 52.1935C12.8911 52.1935 12.767 52.1728 12.6429 52.1728C12.5188 52.1728 12.3947 52.3227 12.2706 52.3227C12.1465 52.3227 12.0224 52.2659 11.8983 52.2659C11.7742 52.2659 11.6501 52.2503 11.526 52.2503C11.4019 52.2503 11.2778 52.5037 11.1537 52.5037C11.0296 52.5037 10.9055 52.3176 10.7814 52.3176C10.6572 52.3176 10.5331 52.3124 10.409 52.3124C10.2849 52.3124 10.1608 52.3021 10.0367 52.3021C9.91261 52.3021 9.7885 52.3176 9.6644 52.3176C9.54029 52.3176 9.41619 52.2969 9.29208 52.2969C9.16797 52.2969 9.04387 52.4934 8.91976 52.4934C8.79566 52.4934 8.67155 52.2141 8.54745 52.2141C8.42334 52.2141 8.29923 52.3279 8.17513 52.3279C8.05102 52.3279 7.92692 52.4986 7.80281 52.4986C7.6787 52.4986 7.5546 52.1986 7.43049 52.1986C7.30639 52.1986 7.18228 52.3538 7.05818 52.3538C6.93407 52.3538 6.80996 52.2865 6.68586 52.2865C6.56175 52.2865 6.43765 52.3538 6.31354 52.3538C6.18943 52.3538 6.06533 52.2659 5.94122 52.2659C5.81712 52.2659 5.69301 52.2245 5.56891 52.2245C5.4448 52.2245 5.32069 52.3382 5.19659 52.3382C5.07248 52.3382 4.94838 52.3796 4.82427 52.3796C4.70016 52.3796 4.57606 52.4986 4.45195 52.4986C4.32785 52.4986 4.20374 52.39 4.07964 52.39C3.95553 52.39 3.83142 52.3538 3.70732 52.3538C3.58321 52.3538 3.45911 52.1624 3.335 52.1624C3.21089 52.1624 3.08679 52.2607 2.96268 52.2607C2.83858 52.2607 2.71447 52.4158 2.59036 52.4158C2.46626 52.4158 2.34215 52.2607 2.21805 52.2607C2.09394 52.2607 1.96984 52.4055 1.84573 52.4055C1.72162 52.4055 1.59752 52.4727 1.47341 52.4727C1.34931 52.4727 1.2252 52.4003 1.1011 52.4003C0.976989 52.4003 0.852883 52.4003 0.728777 52.4003C0.604671 52.4003 0.480566 52.3744 0.35646 52.3744C0.232354 52.3744 0.108248 52.2607 -0.0158579 52.2607C-0.139964 52.2607 -0.264069 52.4934 -0.388175 52.4934C-0.512281 52.4934 -0.636387 52.3124 -0.760493 52.3124C-0.884599 52.3124 -1.0087 52.4468 -1.13281 52.4468C-1.25692 52.4468 -1.38102 52.3486 -1.50513 52.3486C-1.62923 52.3486 -1.75334 52.1521 -1.87745 52.1521C-2.00155 52.1521 -2.12566 52.2348 -2.24976 52.2348C-2.37387 52.2348 -2.49797 52.1418 -2.62208 52.1418C-2.74619 52.1418 -2.87029 52.3486 -2.9944 52.3486C-3.1185 52.3486 -3.24778 52.452 -3.36672 52.452C-3.48565 52.452 -3.61493 52.1469 -3.73903 52.1469C-3.86314 52.1469 -3.98724 52.1986 -4.11135 52.1986C-4.23546 52.1986 -4.35956 52.209 -4.48367 52.209C-4.60777 52.209 -4.73188 52.421 -4.85081 52.421C-4.98009 52.421 -5.09903 52.4106 -5.21796 52.4106C-5.34724 52.4106 -5.47134 52.452 -5.59028 52.452C-5.71956 52.452 -5.84366 52.4934 -5.9626 52.4934C-6.09187 52.4934 -6.21598 52.271 -6.32974 52.271C-6.45902 52.271 -6.58313 52.1779 -6.69689 52.1779C-6.83134 52.1779 -6.95544 52.3848 -7.06404 52.3848C-7.20883 52.3848 -7.33293 52.2762 -7.43635 52.2762C-7.67422 52.2762 -7.78281 52.5037 -7.8397 52.3331C-7.89658 52.1624 -7.86038 52.1314 -7.86038 51.9452C-7.86038 51.7591 -7.70008 51.7591 -7.70008 51.5729C-7.70008 51.3868 -7.82935 51.3868 -7.82935 51.2006C-7.82935 51.0145 -7.80867 51.0145 -7.80867 50.8283C-7.80867 50.6421 -7.70008 50.6421 -7.70008 50.456C-7.70008 50.2698 -7.81384 50.2698 -7.81384 50.0837C-7.81384 49.8975 -7.76213 49.8975 -7.76213 49.7113C-7.76213 49.5252 -7.80867 49.5252 -7.80867 49.339C-7.80867 49.1529 -7.67422 49.1529 -7.67422 48.9667C-7.67422 48.7806 -7.96897 48.7806 -7.96897 48.5944C-7.96897 48.4082 -7.88624 48.4082 -7.88624 48.2221C-7.88624 48.0359 -7.94312 48.0359 -7.94312 47.8498C-7.94312 47.6636 -7.66388 47.6636 -7.66388 47.4774C-7.66388 47.2913 -7.84487 47.2913 -7.84487 47.1051C-7.84487 46.919 -7.63802 46.919 -7.63802 46.7328C-7.63802 46.5466 -7.86555 46.5466 -7.86555 46.3605C-7.86555 46.1743 -7.67422 46.1743 -7.67422 45.9882C-7.67422 45.802 -7.7311 45.802 -7.7311 45.6158C-7.7311 45.4297 -7.93278 45.4297 -7.93278 45.2435C-7.93278 45.0574 -7.62251 45.0574 -7.62251 44.8712C-7.62251 44.6851 -7.73628 44.6851 -7.73628 44.4989C-7.73628 44.3127 -7.65354 44.3127 -7.65354 44.1266C-7.65354 43.9404 -7.7311 43.9404 -7.7311 43.7543C-7.7311 43.5681 -7.80867 43.5681 -7.80867 43.3819C-7.80867 43.1958 -7.69491 43.1958 -7.69491 43.0096C-7.69491 42.8235 -7.79316 42.8235 -7.79316 42.6373C-7.79316 42.4512 -7.85521 42.4512 -7.85521 42.265C-7.85521 42.0788 -7.94312 42.0788 -7.94312 41.8927C-7.94312 41.7065 -7.70525 41.7065 -7.70525 41.5204C-7.70525 41.3342 -7.68456 41.3342 -7.68456 41.148C-7.68456 40.9619 -7.75696 40.9619 -7.75696 40.7757C-7.75696 40.5896 -7.92243 40.5896 -7.92243 40.4034C-7.92243 40.2173 -7.61734 40.2173 -7.61734 40.0311C-7.61734 39.8449 -7.83453 39.8449 -7.83453 39.6588C-7.83453 39.4726 -7.70008 39.4726 -7.70008 39.2865C-7.70008 39.1003 -7.93795 39.1003 -7.93795 38.9141C-7.93795 38.728 -7.60183 38.728 -7.60183 38.5418C-7.60183 38.3557 -7.63802 38.3557 -7.63802 38.1695C-7.63802 37.9833 -7.8397 37.9833 -7.8397 37.7972C-7.8397 37.611 -7.67422 37.611 -7.67422 37.4249C-7.67422 37.2387 -7.74145 37.2387 -7.74145 37.0525C-7.74145 36.8664 -7.8397 36.8664 -7.8397 36.6802C-7.8397 36.4941 -7.87072 36.4941 -7.87072 36.3079C-7.87072 36.1218 -7.78799 36.1218 -7.78799 35.9356C-7.78799 35.7494 -7.86555 35.7494 -7.86555 35.5633C-7.86555 35.3771 -7.9276 35.3771 -7.9276 35.191C-7.9276 35.0048 -7.9276 35.0048 -7.9276 34.8186C-7.9276 34.6325 -7.6432 34.6325 -7.6432 34.4463C-7.6432 34.2602 -8 34.2085 -8 34.0223C-8 33.8361 -7.76213 33.8361 -7.76213 33.65C-7.76213 33.4638 -7.78799 33.4638 -7.78799 33.2777C-7.78799 33.0915 -7.72076 33.0915 -7.72076 32.9053C-7.72076 32.7192 -7.89658 32.7192 -7.89658 32.533C-7.89658 32.3469 -7.93795 32.3469 -7.93795 32.1607C-7.93795 31.9746 -7.8397 31.9746 -7.8397 31.7884C-7.8397 31.6022 -7.94312 31.6022 -7.94312 31.4161C-7.94312 31.2299 -7.93795 31.2299 -7.93795 31.0438C-7.93795 30.8576 -7.85521 30.8576 -7.85521 30.6714C-7.85521 30.4853 -7.88624 30.4853 -7.88624 30.2991C-7.88624 30.113 -7.93795 30.113 -7.93795 29.9268C-7.93795 29.7406 -7.98966 29.7406 -7.98966 29.5545C-7.98966 29.3683 -7.79316 29.3683 -7.79316 29.1822C-7.79316 28.996 -7.75696 28.996 -7.75696 28.8098C-7.75696 28.6237 -7.9638 28.6237 -7.9638 28.4375C-7.9638 28.2514 -7.97414 28.2514 -7.97414 28.0652C-7.97414 27.8791 -7.86555 27.8791 -7.86555 27.6929C-7.86555 27.5067 -7.81384 27.5067 -7.81384 27.3206C-7.81384 27.1344 -7.81384 27.1344 -7.81384 26.9483C-7.81384 26.7621 -7.83453 26.7621 -7.83453 26.5759C-7.83453 26.3898 -7.98449 26.3898 -7.98449 26.2036C-7.98449 26.0175 -7.79316 26.0175 -7.79316 25.8313C-7.79316 25.6452 -7.9638 25.6452 -7.9638 25.459C-7.9638 25.2728 -7.71042 25.2728 -7.71042 25.0867C-7.71042 24.9005 -7.82935 24.9005 -7.82935 24.7144C-7.82935 24.5282 -7.82418 24.5282 -7.82418 24.342C-7.82418 24.1559 -7.68456 24.1559 -7.68456 23.9697C-7.68456 23.7836 -7.75179 23.7836 -7.75179 23.5974C-7.75179 23.4113 -7.95346 23.4113 -7.95346 23.2251C-7.95346 23.0389 -7.8397 23.0389 -7.8397 22.8528C-7.8397 22.6666 -7.78799 22.6666 -7.78799 22.4805C-7.78799 22.2943 -7.79316 22.2943 -7.79316 22.1081C-7.79316 21.922 -7.91209 21.922 -7.91209 21.7358C-7.91209 21.5497 -7.93278 21.5497 -7.93278 21.3635C-7.93278 21.1773 -7.97932 21.1773 -7.97932 20.9912C-7.97932 20.805 -7.88107 20.805 -7.88107 20.6189C-7.88107 20.4327 -7.81384 20.4327 -7.81384 20.2465C-7.81384 20.0604 -7.79316 20.0604 -7.79316 19.8742C-7.79316 19.6881 -7.65871 19.6881 -7.65871 19.5019C-7.65871 19.3158 -7.72593 19.3158 -7.72593 19.1296C-7.72593 18.9434 -7.95346 18.9434 -7.95346 18.7573C-7.95346 18.5711 -7.7311 18.5711 -7.7311 18.385C-7.7311 18.1988 -7.98449 18.1988 -7.98449 18.0126C-7.98449 17.8265 -7.82935 17.8265 -7.82935 17.6403C-7.82935 17.4542 -7.90175 17.4542 -7.90175 17.268C-7.90175 17.0819 -7.99483 17.0819 -7.99483 16.8957C-7.99483 16.7095 -7.85521 16.7095 -7.85521 16.5234C-7.85521 16.3372 -7.81384 16.3372 -7.81384 16.1511C-7.81384 15.9649 -7.74145 15.9649 -7.74145 15.7787C-7.74145 15.5926 -7.80867 15.5926 -7.80867 15.4013C-7.80867 15.2099 -7.89658 15.2151 -7.89658 15.0289C-7.89658 14.8428 -7.67939 14.8428 -7.67939 14.6566C-7.67939 14.4705 -7.98966 14.4705 -7.98966 14.2843C-7.98966 14.0981 -7.68974 14.0981 -7.68974 13.912C-7.68974 13.7258 -7.75179 13.7258 -7.75179 13.5397C-7.75179 13.3535 -7.7673 13.3535 -7.7673 13.1673C-7.7673 12.9812 -7.74145 12.9812 -7.74145 12.795C-7.74145 12.6089 -7.80867 12.6089 -7.80867 12.4227C-7.80867 12.2366 -7.70525 12.2365 -7.70525 12.0452C-7.70525 11.8539 -7.79316 11.8591 -7.79316 11.6677C-7.79316 11.4764 -7.67422 11.4816 -7.67422 11.2902C-7.67422 11.0989 -7.73628 11.1041 -7.73628 10.9179C-7.73628 10.7318 -7.75696 10.7318 -7.75696 10.5456C-7.75696 10.3595 -7.66388 10.3595 -7.66388 10.1733C-7.66388 9.98713 -7.66388 9.98713 -7.66388 9.80097C-7.66388 9.61482 -7.96897 9.61482 -7.96897 9.42349C-7.96897 9.23216 -7.91209 9.23733 -7.91209 9.046C-7.91209 8.85467 -7.72076 8.85984 -7.72076 8.66851C-7.72076 8.47718 -7.85521 8.48235 -7.85521 8.29102C-7.85521 8.09969 -7.71042 8.10486 -7.71042 7.91353C-7.71042 7.7222 -7.70008 7.72737 -7.70008 7.54122C-7.70008 7.35506 -7.72076 7.35506 -7.72076 7.1689C-7.72076 6.98274 -7.96897 6.98274 -7.96897 6.79658C-7.96897 6.61042 -7.96897 6.61042 -7.96897 6.41909C-7.96897 6.22776 -7.72593 6.23293 -7.72593 6.0416C-7.72593 5.85027 -7.86555 5.85544 -7.86555 5.66411C-7.86555 5.47278 -7.9276 5.47795 -7.9276 5.29179C-7.9276 5.10564 -7.97414 5.10564 -7.97414 4.91431C-7.97414 4.72298 -7.80867 4.72815 -7.80867 4.53682C-7.80867 4.34549 -7.91726 4.35066 -7.91726 4.15933C-7.91726 3.968 -7.81901 3.97317 -7.81901 3.78184C-7.81901 3.59051 -7.86038 3.59568 -7.86038 3.40435C-7.86038 3.21302 -7.70525 3.21819 -7.70525 3.02686C-7.70525 2.83553 -7.79833 2.8407 -7.79833 2.64937C-7.79833 2.45804 -7.75179 2.46322 -7.75179 2.27189C-7.75179 2.08056 -7.9638 2.08056 -7.9638 1.8944C-7.9638 1.70824 -7.89658 1.70307 -7.89658 1.51691C-7.89658 1.33075 -7.83453 1.32558 -7.83453 1.13942C-7.83453 0.953262 -7.85521 0.94809 -7.79316 0.767102C-7.7311 0.586115 -7.69491 0.860182 -7.45187 0.860182C-7.34844 0.860182 -7.22434 0.875695 -7.08472 0.875695C-6.97096 0.875695 -6.85202 0.927409 -6.71757 0.927409C-6.60381 0.927409 -6.4797 0.767102 -6.35043 0.767102C-6.23149 0.767102 -6.11256 0.59646 -5.98328 0.59646C-5.86435 0.59646 -5.74024 0.896379 -5.61096 0.896379C-5.49203 0.896379 -5.36792 0.772275 -5.24382 0.772275C-5.12488 0.772275 -5.00078 0.720565 -4.8715 0.720565C-4.75256 0.720565 -4.62846 0.674023 -4.49918 0.674023C-4.3699 0.674023 -4.25614 0.829157 -4.12686 0.829157C-3.99759 0.829157 -3.88382 0.632657 -3.75455 0.632657C-3.62527 0.632657 -3.51151 0.575775 -3.38223 0.575775C-3.25295 0.575775 -3.13919 0.637826 -3.00991 0.637826C-2.88063 0.637826 -2.7617 0.668855 -2.63759 0.668855C-2.51349 0.668855 -2.38938 0.772275 -2.26528 0.772275C-2.14117 0.772275 -2.01706 0.886039 -1.89296 0.886039C-1.76885 0.886039 -1.64475 0.798132 -1.52064 0.798132C-1.39654 0.798132 -1.27243 0.663682 -1.14832 0.663682C-1.02422 0.663682 -0.900112 0.75159 -0.776006 0.75159C-0.6519 0.75159 -0.527794 0.679195 -0.403689 0.679195C-0.279583 0.679195 -0.160648 0.787787 -0.0365421 0.787787C0.0875637 0.787787 0.206499 0.725737 0.330605 0.725737C0.454711 0.725737 0.573645 0.637826 0.697751 0.637826C0.821857 0.637826 0.940792 0.917064 1.0649 0.917064C1.189 0.917064 1.30794 0.725737 1.43204 0.725737C1.55615 0.725737 1.67508 0.71022 1.79919 0.71022C1.9233 0.71022 2.04223 0.674023 2.16634 0.674023C2.29044 0.674023 2.40938 0.761934 2.53348 0.761934C2.65759 0.761934 2.77652 0.761934 2.90063 0.761934C3.02474 0.761934 3.14367 0.611973 3.26778 0.611973C3.39188 0.611973 3.51599 0.808472 3.64009 0.808472C3.7642 0.808472 3.8883 0.860182 4.01241 0.860182C4.13652 0.860182 4.25545 0.746418 4.37956 0.746418C4.50366 0.746418 4.62777 0.705052 4.75187 0.705052C4.87598 0.705052 5.00009 0.75159 5.12419 0.75159C5.2483 0.75159 5.3724 0.880866 5.49651 0.875695C5.62062 0.870524 5.74472 0.886038 5.86883 0.880867C5.99293 0.875696 6.11704 0.715392 6.24115 0.715392C6.36525 0.715392 6.48936 0.549918 6.61346 0.549918C6.73757 0.549918 6.86167 0.772275 6.98578 0.772275C7.10989 0.772275 7.23399 0.772275 7.3581 0.772275C7.4822 0.772275 7.60631 0.855014 7.73042 0.855014C7.85452 0.855014 7.97863 0.808471 8.10273 0.8033C8.22684 0.798129 8.35094 0.642998 8.47505 0.642998C8.59916 0.642998 8.71809 0.601631 8.8422 0.59646C8.9663 0.591289 9.09041 0.627485 9.20934 0.627485C9.32828 0.627485 9.45755 0.761934 9.58166 0.761934C9.70577 0.761934 9.82987 0.668855 9.94881 0.668855C10.0677 0.668855 10.197 0.761934 10.3211 0.761934C10.4452 0.761934 10.5693 0.746418 10.6934 0.746418C10.8175 0.746418 10.9417 0.663682 11.0658 0.663682C11.1899 0.663682 11.314 0.663682 11.4381 0.663682C11.5622 0.663682 11.6863 0.813644 11.8104 0.813644C11.9345 0.813644 12.0586 0.756762 12.1827 0.756762C12.3068 0.756762 12.4309 0.746418 12.555 0.746418C12.6791 0.746418 12.8032 0.798132 12.9273 0.798132C13.0515 0.798132 13.1756 0.544746 13.2997 0.544746C13.4238 0.544746 13.5479 0.705052 13.672 0.705052C13.7961 0.705052 13.9202 0.767102 14.0443 0.767102C14.1684 0.767102 14.2925 0.870526 14.4166 0.870526C14.5407 0.870526 14.6648 0.823985 14.7889 0.823985C14.913 0.823985 15.0371 0.865353 15.1613 0.860182C15.2854 0.855011 15.4095 0.818816 15.5336 0.818816C15.6577 0.818816 15.7818 0.674023 15.9059 0.674023C16.03 0.674023 16.1541 0.829157 16.2782 0.829157C16.4023 0.829157 16.5264 0.534406 16.6505 0.534406C16.7746 0.534406 16.8987 0.71022 17.0228 0.71022C17.1469 0.71022 17.2711 0.720565 17.3952 0.720565C17.5193 0.720565 17.6434 0.544746 17.7675 0.544746C17.8916 0.544746 18.0157 0.529233 18.1398 0.529233C18.2639 0.529233 18.388 0.498208 18.5121 0.498208C18.6362 0.498208 18.7603 0.767102 18.8844 0.767102C19.0085 0.767102 19.1326 0.813644 19.2567 0.813644C19.3809 0.813644 19.505 0.518893 19.6291 0.518893C19.7532 0.518893 19.8773 0.586116 20.0014 0.586116C20.1255 0.586116 20.2496 0.823985 20.3737 0.823985C20.4978 0.823985 20.6219 0.69988 20.746 0.69988C20.8701 0.69988 20.9942 0.591287 21.1183 0.586116C21.2424 0.580944 21.3665 0.71022 21.4906 0.71022C21.6148 0.71022 21.7389 0.75159 21.863 0.75159C21.9871 0.75159 22.1112 0.544746 22.2353 0.544746C22.3594 0.544746 22.4835 0.767105 22.6076 0.761934C22.7317 0.756763 22.8558 0.513721 22.9799 0.513721C23.104 0.513721 23.2281 0.798132 23.3522 0.798132C23.4763 0.798132 23.6004 0.529233 23.7246 0.529233C23.8487 0.529233 23.9728 0.498208 24.0969 0.498208C24.221 0.498208 24.3451 0.730905 24.4692 0.730905C24.5933 0.730905 24.7174 0.69988 24.8415 0.69988C24.9656 0.69988 25.0897 0.611973 25.2138 0.611973C25.3379 0.611973 25.462 0.637826 25.5861 0.637826C25.7102 0.637826 25.8344 0.75159 25.9585 0.75159C26.0826 0.75159 26.2067 0.813644 26.3308 0.813644C26.4549 0.813644 26.579 0.813644 26.7031 0.813644C26.8272 0.813644 26.9513 0.808472 27.0754 0.808472C27.1995 0.808472 27.3236 0.684367 27.4477 0.684367C27.5718 0.684367 27.6959 0.705052 27.82 0.705052C27.9442 0.705052 28.0683 0.777447 28.1924 0.777447C28.3165 0.777447 28.4406 0.575774 28.5647 0.570603C28.6888 0.565432 28.8129 0.792959 28.937 0.792959C29.0611 0.792959 29.1852 0.456839 29.3093 0.456839C29.4334 0.456839 29.5575 0.777447 29.6816 0.777447C29.8057 0.777447 29.9298 0.8033 30.054 0.8033C30.1781 0.8033 30.3022 0.565431 30.4263 0.565431C30.5504 0.565431 30.6745 0.50338 30.7986 0.50338C30.9227 0.50338 31.0468 0.64817 31.1709 0.64817C31.295 0.64817 31.4191 0.674023 31.5432 0.674023C31.6673 0.674023 31.7914 0.493036 31.9104 0.493036C32.0293 0.493036 32.1534 0.472354 32.2775 0.467183L32.2672 0.446498Z" fill="white"/>
</svg>
