<svg width="415" height="270" viewBox="0 0 415 270" fill="none" xmlns="http://www.w3.org/2000/svg">
<path d="M401.447 1.0787C396.061 1.0787 396.061 1.43594 390.672 1.43594C385.285 1.43594 385.285 1.26508 379.899 1.26508C374.512 1.26508 374.512 1.34792 369.126 1.34792C363.74 1.34792 363.74 0.659322 358.353 0.659322C354.762 0.659322 351.17 0.657596 347.578 0.654145C342.191 0.654145 342.191 0.985501 336.802 0.985501C331.412 0.985501 331.415 1.10976 326.026 1.10976C320.64 1.10976 320.64 1.98993 315.25 1.98993C309.864 1.98993 309.864 1.87084 304.474 1.87084C299.088 1.87084 299.088 0.540241 293.699 0.540241C288.312 0.540241 288.312 0.592015 282.923 0.592015C277.534 0.592015 277.537 1.61715 272.147 1.61715C266.761 1.61715 266.761 0.586838 261.374 0.586838C255.988 0.586838 255.988 1.94851 250.602 1.94851C245.215 1.94851 245.215 0.985501 239.826 0.985501C234.439 0.985501 234.439 0.60237 229.053 0.60237C223.667 0.60237 223.667 0.938904 218.28 0.938904C212.894 0.938904 212.894 0.519531 207.507 0.519531C202.121 0.519531 202.121 1.89155 196.735 1.89155C191.348 1.89155 191.348 1.45665 185.959 1.45665C180.57 1.45665 180.572 1.93815 175.183 1.93815C169.797 1.93815 169.797 0.892307 164.407 0.892307C159.021 0.892307 159.021 0.633435 153.632 0.633435C148.245 0.633435 148.245 1.2392 142.856 1.2392C137.469 1.2392 137.469 0.881952 132.08 0.881952C126.694 0.881952 126.694 0.638612 121.304 0.638612C115.918 0.638612 115.918 0.938904 110.529 0.938904C105.139 0.938904 105.139 1.32203 99.7527 1.32203C94.3664 1.32203 94.3664 0.861243 88.977 0.861243C83.5906 0.861243 83.5906 1.10458 78.2012 1.10458C72.8118 1.10458 72.8118 1.30133 67.4254 1.30133C62.0361 1.30133 62.0361 0.938904 56.6497 0.938904C53.0568 0.938904 49.4648 0.932001 45.8739 0.918194C40.4845 0.918194 40.4845 0.669677 35.0981 0.669677C29.7088 0.669677 29.7088 0.980324 24.3194 0.980324C18.93 0.980324 18.93 1.37899 13.5406 1.37899C9.91586 1.37899 6.50308 3.56387 4.12638 7.6644C1.75267 11.7649 0.0418013 17.6776 0.0418013 23.9526C0.0418013 33.184 0.662849 33.184 0.662849 42.4206C0.662849 51.652 0.698678 51.652 0.698678 60.8885C0.698678 70.1199 0.42697 70.1199 0.42697 79.3565C0.42697 88.5878 0.850954 88.5878 0.850954 97.8244C0.850954 107.056 0.271708 107.056 0.271708 116.287C0.271708 125.519 0.182134 125.519 0.182134 134.755C0.182134 143.986 0.492658 143.986 0.492658 153.223C0.492658 162.46 0.0418013 162.46 0.0418013 171.691C0.0418013 177.849 0.0418013 184.005 0.0418013 190.159C0.0418013 199.395 0.600147 199.395 0.600147 208.627C0.600147 217.863 0 217.863 0 227.1C0 236.337 0.552374 236.337 0.552374 245.573C0.552374 251.838 1.56456 258.056 3.93828 262.099C6.31498 266.148 9.91586 267.924 13.5466 267.67C18.933 267.572 18.936 267.101 24.3224 267.101C29.7088 267.101 29.7088 267.38 35.0951 267.38C40.4815 267.38 40.4815 268.385 45.8679 268.385C51.2543 268.385 51.2543 268.359 56.6407 268.359C62.0271 268.359 65.6106 269.5 71 269.5C76.3894 269.5 72.8029 268.219 78.1923 268.219C83.5816 268.219 83.5786 267.204 88.968 267.204C94.3574 267.204 94.3544 268.059 99.7438 268.059C105.133 268.059 105.13 266.992 110.52 266.992C115.909 266.992 115.906 267.577 121.295 267.577C126.685 267.577 126.682 267.298 132.071 267.298C137.46 267.298 137.458 266.997 142.847 266.997C148.236 266.997 148.233 267.676 153.62 267.676C159.006 267.676 159.006 268.442 164.392 268.442C169.779 268.442 169.779 267.494 175.168 267.494C180.558 267.494 180.555 267.872 185.941 267.872C191.327 267.872 191.327 267.37 196.714 267.37C202.1 267.37 202.1 268.09 207.487 268.09C212.873 268.09 212.873 268.338 218.259 268.338C223.646 268.338 223.646 267.65 229.035 267.65C234.424 267.65 234.421 268.364 239.811 268.364C245.2 268.364 245.197 267.96 250.587 267.96C255.976 267.96 255.973 268.069 261.362 268.069C266.752 268.069 266.749 267.727 272.138 267.727C277.528 267.727 277.111 267 282.5 267C287.889 267 288.3 268.121 293.69 268.121C299.079 268.121 300.111 267.494 305.5 267.494C310.889 267.494 309.855 267.127 315.241 267.127C320.628 267.127 320.628 267.08 326.017 267.08C331.406 267.08 331.403 267.841 336.793 267.841C342.182 267.841 342.182 268.204 347.569 268.204C352.955 268.204 352.958 267.826 358.344 267.826C363.731 267.826 363.734 267.753 369.12 267.753C374.507 267.753 374.51 268.52 379.896 268.52C385.282 268.52 385.285 268.504 390.675 268.504C396.064 268.504 396.064 267.551 401.453 267.65C405.084 267.909 408.628 266.065 411.005 262.011C413.379 257.968 414.689 251.848 414.689 245.589C414.689 236.357 414.469 236.357 414.469 227.121C414.469 217.889 414.898 217.889 414.898 208.653C414.898 199.421 415 199.421 415 190.185C415 180.953 414.937 180.953 414.937 171.717C414.937 162.485 414.895 162.485 414.895 153.254C414.895 144.023 414.606 144.023 414.606 134.786C414.606 125.555 414.967 125.555 414.967 116.318C414.967 107.082 414.352 107.082 414.352 97.8503C414.352 88.6137 414.77 88.6137 414.77 79.3823C414.77 70.1458 414.651 70.1458 414.651 60.9144C414.651 51.6778 414.752 51.6778 414.752 42.4413C414.752 33.2047 414.555 33.2047 414.555 23.9682C414.555 17.6931 413.053 12.1222 410.671 8.01129C408.294 3.91076 405.075 1.09423 401.45 1.09423L401.447 1.0787Z" fill="#CFBFFE"/>
</svg>
