<svg width="52" height="50" viewBox="0 0 52 50" fill="none" xmlns="http://www.w3.org/2000/svg">
<path d="M27.7805 0.729047C27.6564 0.723876 27.5478 0.367072 27.4237 0.361901C27.2996 0.35673 27.1652 0.58943 27.041 0.58943C26.9169 0.58943 26.7928 0.465325 26.6687 0.465325C26.5446 0.465325 26.4205 0.573917 26.2964 0.573917C26.1723 0.573917 26.043 0.377415 25.9189 0.382586C25.7948 0.387757 25.6655 0.3981 25.5414 0.403271C25.4173 0.408442 25.288 0.372243 25.1639 0.377414C25.0398 0.382585 24.9105 0.398101 24.7864 0.408443C24.6623 0.418785 24.5589 0.703193 24.4348 0.713535C24.3107 0.723877 24.1659 0.522206 24.0418 0.532548C23.9177 0.54289 23.8091 0.703194 23.685 0.718707C23.5609 0.73422 23.4368 0.744563 23.3127 0.760076C23.1886 0.77559 23.0386 0.594599 22.9145 0.615283C22.7904 0.635967 22.6715 0.687678 22.5474 0.708363C22.4233 0.729047 22.2992 0.760073 22.1802 0.780757C22.0613 0.801442 21.9837 1.09619 21.8648 1.12205C21.7459 1.14791 21.57 0.915207 21.4459 0.935891C21.3218 0.956575 21.2598 1.25133 21.1357 1.28235C21.0115 1.31338 20.8254 1.04965 20.7065 1.08068C20.5875 1.11171 20.5203 1.35992 20.3962 1.39094C20.2721 1.42197 20.1273 1.33924 20.0032 1.37026C19.8791 1.40129 19.7912 1.54608 19.6723 1.5771C19.5533 1.60813 19.4189 1.59262 19.2999 1.62882C19.181 1.66502 19.0362 1.62365 18.9173 1.65984C18.7983 1.69604 18.7053 1.80463 18.5863 1.846C18.4674 1.88737 18.3846 2.02182 18.2657 2.06319C18.1468 2.10455 17.9606 1.94425 17.8417 1.99079C17.7227 2.03733 17.6142 2.09421 17.4952 2.14075C17.3763 2.18729 17.2367 2.1666 17.1229 2.21314C17.0092 2.25968 16.9419 2.42516 16.823 2.47687C16.7041 2.52858 16.5748 2.52859 16.461 2.57513C16.3472 2.62167 16.1973 2.59581 16.0835 2.64752C15.9698 2.69923 15.8405 2.71474 15.7267 2.76645C15.613 2.81816 15.5147 2.90607 15.4009 2.96296C15.2872 3.01984 15.282 3.28356 15.1682 3.34044C15.0545 3.39732 14.8838 3.3301 14.7752 3.38698C14.6666 3.44386 14.5374 3.46972 14.4288 3.5266C14.3202 3.58348 14.1702 3.57314 14.0564 3.63002C13.9427 3.6869 13.9375 3.92994 13.8289 3.992C13.7203 4.05405 13.5549 4.01268 13.4463 4.07473C13.3377 4.13679 13.3273 4.36432 13.2187 4.42637C13.1101 4.48842 12.9757 4.49876 12.8671 4.56599C12.7585 4.63321 12.6809 4.73663 12.5775 4.80386C12.4741 4.87108 12.3707 4.93831 12.2673 5.00553C12.1639 5.07275 12.0914 5.19168 11.988 5.25891C11.8846 5.32613 11.6881 5.25892 11.5847 5.33131C11.4813 5.40371 11.3055 5.37267 11.2072 5.44507C11.109 5.51746 11.0469 5.64674 10.9435 5.72431C10.8401 5.80188 10.6746 5.78636 10.5763 5.85875C10.4781 5.93115 10.5763 6.26727 10.4781 6.34484C10.3798 6.4224 10.2143 6.40689 10.1161 6.48963C10.0178 6.57236 9.79031 6.48445 9.69206 6.56202C9.59381 6.63959 9.58349 6.82058 9.48523 6.89815C9.38698 6.97571 9.37663 7.15153 9.28356 7.23426C9.19048 7.317 9.0405 7.33252 8.94742 7.41525C8.85434 7.49799 8.7199 7.53936 8.63199 7.62209C8.54409 7.70483 8.59062 7.93753 8.49754 8.02544C8.40446 8.11334 8.21832 8.09266 8.13042 8.18057C8.04251 8.26848 8.03217 8.43396 7.94426 8.52186C7.85636 8.60977 7.64432 8.57874 7.56158 8.67182C7.47884 8.7649 7.5616 9.01828 7.48403 9.10619C7.40646 9.1941 7.08586 9.08034 7.00312 9.17342C6.92039 9.2665 7.02379 9.52505 6.94622 9.6233C6.86865 9.72155 6.63081 9.68018 6.55324 9.77843C6.47568 9.87668 6.51185 10.068 6.43429 10.1663C6.35672 10.2645 6.1137 10.2283 6.03614 10.3266C5.95857 10.4248 5.90685 10.5437 5.82928 10.642C5.75171 10.7403 5.87065 10.9833 5.79308 11.0867C5.71551 11.1901 5.66897 11.2987 5.59658 11.4021C5.52418 11.5056 5.29149 11.4901 5.2191 11.5935C5.1467 11.6969 5.13637 11.8365 5.06397 11.9399C4.99158 12.0434 5.01742 12.2088 4.95019 12.3123C4.88297 12.4157 4.78471 12.4984 4.71749 12.6018C4.65026 12.7053 4.59856 12.819 4.53134 12.9276C4.46411 13.0362 4.30381 13.0828 4.24176 13.1913C4.1797 13.2999 4.00905 13.3465 3.947 13.4551C3.88495 13.5637 3.87978 13.7033 3.81772 13.8119C3.75567 13.9205 3.68328 14.0239 3.6264 14.1325C3.56952 14.2411 3.54883 14.3755 3.49194 14.4841C3.43506 14.5927 3.26442 14.6496 3.20754 14.7633C3.15066 14.8771 3.22823 15.0478 3.17652 15.1615C3.12481 15.2753 2.95932 15.3373 2.90761 15.4511C2.8559 15.5649 2.92312 15.7303 2.87658 15.8441C2.83004 15.9579 2.83005 16.0923 2.78351 16.2113C2.73697 16.3302 2.53529 16.3819 2.48875 16.4957C2.44221 16.6094 2.61288 16.8111 2.57151 16.9249C2.53014 17.0386 2.56115 17.1834 2.51978 17.3023C2.47841 17.4213 2.31812 17.4937 2.27675 17.6126C2.23539 17.7316 2.32847 17.8867 2.28711 18.0056C2.24574 18.1246 2.20953 18.2383 2.1785 18.3624C2.14748 18.4865 1.8941 18.5382 1.86307 18.6623C1.83205 18.7865 1.89928 18.9312 1.86825 19.0502C1.83722 19.1691 1.66658 19.257 1.64072 19.3759C1.61487 19.4949 1.76483 19.6604 1.73897 19.7845C1.71312 19.9086 1.44937 19.9758 1.42351 20.0999C1.39766 20.224 1.40285 20.3533 1.37699 20.4722C1.35114 20.5912 1.27357 20.7101 1.25289 20.829C1.23221 20.948 1.45455 21.1186 1.43387 21.2427C1.41318 21.3668 1.4442 21.4961 1.42869 21.6202C1.41318 21.7443 1.1081 21.827 1.09259 21.9512C1.07708 22.0753 1.0719 22.2045 1.05639 22.3235C1.04087 22.4424 1.3356 22.6079 1.32009 22.732C1.30457 22.8561 1.00468 22.9492 0.994337 23.0733C0.983995 23.1974 1.0874 23.3318 1.07706 23.4559C1.06672 23.58 0.89608 23.6938 0.890909 23.8179C0.885738 23.942 0.952954 24.0713 0.947783 24.1954C0.942612 24.3195 1.11843 24.4539 1.11326 24.5781C1.10809 24.7022 0.978803 24.8263 0.973632 24.9504C0.968461 25.0745 1.16496 25.1986 1.16496 25.3279C1.16496 25.4571 1.05639 25.5761 1.05639 25.7002C1.05639 25.8243 0.906411 25.9536 0.911582 26.0777C0.916753 26.2018 1.21669 26.3155 1.22187 26.4396C1.22704 26.5637 1.06672 26.693 1.07706 26.8171C1.0874 26.9412 1.19599 27.0602 1.20634 27.1843C1.21668 27.3084 1.15979 27.4377 1.17014 27.5618C1.18048 27.6859 1.30974 27.7996 1.32009 27.9237C1.33043 28.0478 1.08225 28.1978 1.09259 28.3219C1.10293 28.446 1.1753 28.565 1.19081 28.6891C1.20632 28.8132 1.25287 28.9321 1.26839 29.0562C1.2839 29.1803 1.40283 29.2889 1.42351 29.413C1.4442 29.5371 1.20633 29.7026 1.22701 29.8267C1.24769 29.9508 1.56831 30.018 1.59417 30.1421C1.62002 30.2662 1.46488 30.4214 1.48556 30.5455C1.50625 30.6696 1.44939 30.8092 1.47524 30.9333C1.5011 31.0574 1.75447 31.1246 1.7855 31.2487C1.81652 31.3728 1.86307 31.4866 1.8941 31.6055C1.92513 31.7245 1.7338 31.9055 1.76482 32.0244C1.79585 32.1433 1.8579 32.2571 1.8941 32.376C1.9303 32.495 2.04922 32.5932 2.08025 32.7122C2.11128 32.8311 2.27676 32.9138 2.31295 33.0328C2.34915 33.1517 2.3543 33.281 2.3905 33.3999C2.4267 33.5188 2.29744 33.6947 2.3388 33.8136C2.38017 33.9325 2.33881 34.0773 2.38018 34.1963C2.42155 34.3152 2.49911 34.4238 2.54048 34.5376C2.58185 34.6513 2.92315 34.6565 2.96452 34.7754C3.00588 34.8944 2.86625 35.0805 2.91279 35.1994C2.95933 35.3184 3.03691 35.4166 3.08862 35.5304C3.14033 35.6442 3.16101 35.7734 3.21272 35.8872C3.26443 36.001 3.25926 36.1406 3.31614 36.2543C3.37303 36.3681 3.42474 36.4819 3.47645 36.5905C3.52816 36.6991 3.65227 36.7818 3.70915 36.8956C3.76603 37.0093 3.98319 37.0352 4.04008 37.1438C4.09696 37.2524 4.16421 37.3558 4.22626 37.4644C4.28831 37.573 4.29348 37.7074 4.35554 37.816C4.41759 37.9246 4.22626 38.178 4.28831 38.2866C4.35036 38.3952 4.56236 38.4159 4.62441 38.5193C4.68646 38.6227 4.62442 38.814 4.69681 38.9175C4.76921 39.0209 5.08982 38.9588 5.15705 39.0622C5.22427 39.1657 5.12085 39.3828 5.19325 39.4863C5.26564 39.5897 5.40525 39.6466 5.47247 39.7448C5.5397 39.8431 5.64311 39.931 5.7155 40.0292C5.7879 40.1275 5.91201 40.1947 5.98441 40.293C6.0568 40.3912 6.07232 40.536 6.14988 40.6342C6.22745 40.7325 6.26882 40.8566 6.34639 40.9549C6.42395 41.0531 6.60495 41.0634 6.68252 41.1617C6.76009 41.2599 6.7342 41.4409 6.81694 41.534C6.89968 41.6271 6.87902 41.8081 6.96692 41.9012C7.05483 41.9942 7.30819 41.927 7.3961 42.0201C7.47884 42.1132 7.35992 42.3924 7.44783 42.4855C7.53574 42.5786 7.6857 42.6096 7.76843 42.6975C7.85117 42.7854 8.09938 42.7182 8.18729 42.8061C8.2752 42.894 8.18729 43.1629 8.28037 43.2508C8.37344 43.3387 8.52859 43.3491 8.62167 43.4318C8.71475 43.5145 8.82849 43.5766 8.92157 43.6593C9.01465 43.7421 9.12325 43.8041 9.22151 43.8869C9.31976 43.9696 9.33525 44.1351 9.43351 44.2178C9.53176 44.3005 9.70759 44.2747 9.80584 44.3523C9.90409 44.4298 9.95579 44.5643 10.054 44.6367C10.1523 44.7091 10.235 44.8073 10.3384 44.8797C10.4419 44.9521 10.5557 45.0038 10.6539 45.0762C10.7522 45.1486 10.8297 45.2624 10.928 45.3348C11.0262 45.4071 11.1658 45.433 11.2693 45.5002C11.3727 45.5675 11.4709 45.6502 11.5743 45.7174C11.6778 45.7846 11.8743 45.7122 11.9777 45.7743C12.0811 45.8364 12.0759 46.0949 12.1793 46.157C12.2828 46.219 12.4224 46.2345 12.531 46.2966C12.6396 46.3586 12.7895 46.3431 12.8981 46.4052C13.0067 46.4672 13.1515 46.4569 13.2601 46.5138C13.3687 46.5706 13.4825 46.6172 13.5962 46.6741C13.71 46.731 13.8186 46.7827 13.9272 46.8395C14.0358 46.8964 14.1237 47.005 14.2323 47.0567C14.3409 47.1084 14.3926 47.3049 14.5063 47.3566C14.6201 47.4084 14.7132 47.5066 14.827 47.5531C14.9407 47.5997 15.0752 47.6049 15.1941 47.6514C15.313 47.6979 15.463 47.6411 15.5819 47.6876C15.7009 47.7341 15.8457 47.6928 15.9594 47.7341C16.0732 47.7755 16.1404 47.9668 16.2593 48.0082C16.3783 48.0496 16.4972 48.0858 16.6161 48.1271C16.7351 48.1685 16.8902 48.0909 17.0091 48.1271C17.1281 48.1633 17.2056 48.334 17.3246 48.3702C17.4435 48.4064 17.5883 48.3495 17.7072 48.3805C17.8262 48.4116 17.9192 48.5512 18.0382 48.5822C18.1571 48.6132 18.2657 48.7166 18.3846 48.7425C18.5036 48.7684 18.6846 48.5512 18.8035 48.577C18.9225 48.6029 19.0517 48.5977 19.1758 48.6184C19.2999 48.6391 19.4137 48.6804 19.5378 48.7063C19.6619 48.7322 19.7602 48.8614 19.8843 48.8821C20.0084 48.9028 20.1583 48.7425 20.2824 48.758C20.4066 48.7735 20.5151 48.8821 20.6392 48.8976C20.7634 48.9131 20.8823 48.9545 21.0064 48.97C21.1305 48.9855 21.2288 49.2079 21.3529 49.2234C21.477 49.2389 21.6011 49.2493 21.7252 49.2596C21.8493 49.2699 21.9889 49.0631 22.113 49.0683C22.2371 49.0734 22.356 49.12 22.4802 49.1303C22.6043 49.1407 22.718 49.3268 22.8421 49.332C22.9662 49.3372 23.0955 49.3165 23.2196 49.3217C23.3437 49.3268 23.473 49.1872 23.5971 49.1872C23.7212 49.1872 23.8453 49.3217 23.9694 49.3217C24.0935 49.3217 24.2176 49.1458 24.3417 49.1458C24.4658 49.1458 24.59 49.1717 24.7141 49.1665C24.8382 49.1614 24.9571 49.0166 25.0812 49.0114C25.2053 49.0062 25.3397 49.2131 25.4638 49.2027C25.5879 49.1924 25.7121 49.1665 25.8362 49.1562C25.9603 49.1458 26.0792 49.0631 26.2033 49.0528C26.3274 49.0424 26.4567 49.0838 26.5808 49.0734C26.7049 49.0631 26.8135 48.9131 26.9376 48.8976C27.0617 48.8821 27.1806 48.8511 27.3047 48.8356C27.4288 48.8201 27.5788 49.0166 27.7029 48.9959C27.827 48.9752 27.915 48.7528 28.0391 48.7373C28.1632 48.7218 28.3183 48.908 28.4424 48.8873C28.5665 48.8666 28.6648 48.727 28.7889 48.7011C28.913 48.6753 29.0629 48.7994 29.1818 48.7787C29.3008 48.758 29.3784 48.4995 29.4973 48.4736C29.6162 48.4477 29.7404 48.4219 29.8593 48.396C29.9782 48.3702 30.1436 48.5098 30.2626 48.4839C30.3815 48.4581 30.4901 48.3702 30.6091 48.3392C30.728 48.3081 30.847 48.2616 30.9659 48.2306C31.0848 48.1995 31.1624 48.0185 31.2813 47.9824C31.4003 47.9462 31.6019 48.1944 31.7209 48.1582C31.8398 48.122 31.8708 47.7962 31.9898 47.76C32.1087 47.7238 32.2328 47.7031 32.3465 47.6669C32.4603 47.6307 32.6206 47.7031 32.7344 47.6669C32.8481 47.6307 33.0033 47.6824 33.1222 47.6411C33.2411 47.5997 33.3084 47.429 33.4273 47.3825C33.5463 47.336 33.6652 47.3049 33.7789 47.2636C33.8927 47.2222 34.0892 47.367 34.203 47.3205C34.3168 47.2739 34.3891 47.1136 34.5029 47.0671C34.6167 47.0205 34.7097 46.9119 34.8235 46.8654C34.9373 46.8189 35.0976 46.8654 35.2113 46.8189C35.3251 46.7723 35.3665 46.5551 35.4802 46.5034C35.594 46.4517 35.7698 46.5396 35.8836 46.4827C35.9974 46.4259 36.0542 46.2604 36.1628 46.2035C36.2714 46.1466 36.4162 46.157 36.53 46.1001C36.6438 46.0432 36.7317 45.9553 36.8454 45.8984C36.9592 45.8415 37.1195 45.8829 37.2281 45.826C37.3367 45.7691 37.3366 45.5106 37.4452 45.4485C37.5538 45.3865 37.7607 45.5054 37.8693 45.4485C37.9779 45.3916 38.0037 45.1848 38.1123 45.1227C38.2209 45.0607 38.2933 44.9418 38.4019 44.8797C38.5105 44.8177 38.7535 44.9831 38.8621 44.9159C38.9707 44.8487 38.9294 44.5591 39.0379 44.4919C39.1465 44.4246 39.3068 44.4557 39.4102 44.3885C39.5137 44.3212 39.5913 44.2075 39.6895 44.1402C39.7878 44.073 39.9687 44.1144 40.0722 44.042C40.1756 43.9696 40.1756 43.7524 40.2738 43.6852C40.3721 43.618 40.4651 43.5301 40.5686 43.4577C40.672 43.3853 40.9047 43.4939 41.0029 43.4215C41.1012 43.3491 41.065 43.0905 41.1633 43.0181C41.2615 42.9457 41.4321 42.9612 41.5304 42.8837C41.6286 42.8061 41.6803 42.6768 41.7786 42.5993C41.8768 42.5217 41.9596 42.4338 42.0578 42.3562C42.1561 42.2787 42.4146 42.3924 42.5077 42.3097C42.6008 42.2269 42.5232 41.9477 42.6163 41.865C42.7094 41.7822 42.9731 41.8908 43.0662 41.8081C43.1593 41.7253 43.2731 41.6633 43.3661 41.5806C43.4592 41.4978 43.4851 41.3427 43.573 41.2548C43.6609 41.1669 43.8212 41.1514 43.9091 41.0634C43.997 40.9755 44.0228 40.8204 44.1107 40.7325C44.1986 40.6446 44.2969 40.567 44.3848 40.4791C44.4727 40.3912 44.5555 40.2981 44.6434 40.205C44.7313 40.112 44.8657 40.0706 44.9485 39.9775C45.0312 39.8844 45.0364 39.719 45.1191 39.6259C45.2019 39.5328 45.2691 39.4242 45.3466 39.3311C45.4242 39.2381 45.5949 39.2174 45.6776 39.1191C45.7603 39.0209 45.7655 38.8657 45.843 38.7727C45.9206 38.6796 45.8689 38.4727 45.9465 38.3797C46.0241 38.2866 46.0758 38.1676 46.1534 38.0694C46.2309 37.9711 46.4119 37.9556 46.4843 37.8574C46.5567 37.7591 46.6808 37.6919 46.7532 37.5937C46.8255 37.4954 46.8152 37.3351 46.8876 37.2317C46.96 37.1283 47.1255 37.0972 47.1979 36.9938C47.2703 36.8904 47.3323 36.7818 47.3995 36.6784C47.4668 36.575 47.4564 36.4198 47.5236 36.3164C47.5909 36.213 47.6375 36.094 47.7047 35.9906C47.7719 35.8872 47.7977 35.7579 47.8598 35.6493C47.9218 35.5407 48.2528 35.5925 48.3148 35.4839C48.3769 35.3753 48.2114 35.1374 48.2735 35.0288C48.3355 34.9202 48.3562 34.7909 48.4131 34.6823C48.47 34.5737 48.5837 34.491 48.6406 34.3824C48.6975 34.2738 48.9302 34.2531 48.9871 34.1445C49.044 34.036 48.9612 33.855 49.0181 33.7412C49.075 33.6274 49.0181 33.4671 49.0698 33.3534C49.1216 33.2396 49.318 33.1931 49.3697 33.0845C49.4215 32.9759 49.5042 32.8725 49.5507 32.7587C49.5973 32.6449 49.7162 32.557 49.7628 32.4433C49.8093 32.3295 49.711 32.1537 49.7628 32.0399C49.8145 31.9262 49.8661 31.8176 49.9127 31.6986C49.9592 31.5797 49.9696 31.4556 50.011 31.3418C50.0523 31.2281 50.2488 31.1608 50.285 31.0419C50.3212 30.923 50.2437 30.7678 50.285 30.6489C50.3264 30.53 50.4919 30.4524 50.5281 30.3335C50.5643 30.2145 50.5384 30.0749 50.5746 29.956C50.6108 29.837 50.6004 29.7026 50.6315 29.5837C50.6625 29.4647 50.6728 29.3354 50.7039 29.2165C50.7349 29.0976 50.6367 28.9476 50.6677 28.8235C50.6987 28.6994 50.921 28.627 50.9469 28.5081C50.9727 28.3891 51.1279 28.2909 51.1537 28.1668C51.1796 28.0427 51.1072 27.9031 51.1279 27.7789C51.1486 27.6548 50.978 27.4997 50.9986 27.3756C51.0193 27.2515 51.2417 27.1636 51.2624 27.0395C51.2831 26.9154 51.2313 26.7809 51.2469 26.662C51.2624 26.5431 51.2003 26.4086 51.2158 26.2845C51.2313 26.1604 51.4382 26.057 51.4537 25.9329C51.4692 25.8088 51.3503 25.6743 51.3606 25.5502C51.3709 25.4261 51.2882 25.2968 51.2985 25.1727C51.3089 25.0486 51.252 24.9193 51.2572 24.7952C51.2624 24.6711 51.4434 24.5574 51.4485 24.4333C51.4537 24.3092 51.4743 24.1851 51.4743 24.0661C51.4743 23.9472 51.4123 23.8179 51.4175 23.6938C51.4226 23.5697 51.4537 23.4456 51.4537 23.3267C51.4537 23.2077 51.3502 23.0836 51.3502 22.9595C51.3502 22.8354 51.5778 22.7061 51.5778 22.582C51.5778 22.4579 51.3502 22.3441 51.3451 22.22C51.3399 22.0959 51.5726 21.9615 51.5675 21.8374C51.5623 21.7133 51.5571 21.5892 51.5467 21.4651C51.5364 21.341 51.5106 21.2169 51.5002 21.0927C51.4899 20.9686 51.2313 20.8704 51.221 20.7463C51.2106 20.6222 51.1693 20.5032 51.1537 20.3843C51.1382 20.2654 51.2468 20.1258 51.2313 20.0017C51.2158 19.8775 51.3244 19.7379 51.3037 19.6138C51.283 19.4897 51.2779 19.3656 51.2572 19.2415C51.2365 19.1174 51.221 18.9933 51.2003 18.8744C51.1796 18.7554 50.9676 18.6675 50.9418 18.5486C50.9159 18.4296 51.0142 18.2797 50.9883 18.1608C50.9624 18.0418 50.9676 17.9125 50.9418 17.7884C50.9159 17.6643 50.8383 17.5557 50.8073 17.4368C50.7763 17.3179 50.8332 17.1731 50.797 17.0541C50.7608 16.9352 50.5487 16.868 50.5125 16.749C50.4763 16.6301 50.5487 16.4801 50.5125 16.3612C50.4763 16.2423 50.2074 16.2009 50.1712 16.082C50.135 15.963 50.3626 15.751 50.3212 15.6373C50.2798 15.5235 50.0316 15.4821 49.9903 15.3632C49.9489 15.2443 50.0834 15.0633 50.0368 14.9443C49.9903 14.8254 49.9696 14.7013 49.9178 14.5875C49.8661 14.4738 49.7369 14.3962 49.6852 14.2824C49.6335 14.1687 49.5146 14.0911 49.4577 13.9773C49.4008 13.8636 49.4576 13.7033 49.3956 13.5947C49.3335 13.4861 49.2818 13.3723 49.2249 13.2637C49.1681 13.1551 48.9664 13.1241 48.9043 13.0155C48.8423 12.9069 48.7182 12.8397 48.6561 12.7311C48.5941 12.6277 48.6665 12.4415 48.5993 12.3329C48.532 12.2244 48.3407 12.2037 48.2787 12.1002C48.2166 11.9968 48.17 11.8779 48.1028 11.7745C48.0356 11.671 48.139 11.4539 48.0666 11.3504C47.9942 11.247 47.8029 11.2367 47.7305 11.1384C47.6581 11.0402 47.5857 10.9419 47.5133 10.8437C47.441 10.7454 47.2548 10.7351 47.1772 10.6368C47.0996 10.5386 47.1772 10.3266 47.0996 10.2283C47.0221 10.1301 47.0014 9.99044 46.9238 9.89736C46.8463 9.80428 46.598 9.856 46.5153 9.76292C46.4326 9.66984 46.4326 9.50954 46.355 9.41646C46.2775 9.32338 46.1482 9.27166 46.0654 9.17858C45.9827 9.08551 46.0654 8.84246 45.9775 8.74938C45.8896 8.6563 45.5897 8.78042 45.5018 8.69251C45.4139 8.6046 45.4035 8.44946 45.3156 8.36155C45.2277 8.27365 45.1915 8.1392 45.1036 8.05129C45.0157 7.96339 44.8554 7.95822 44.7623 7.87548C44.6692 7.79274 44.5348 7.76171 44.4469 7.67898C44.359 7.59624 44.4055 7.3532 44.3124 7.27046C44.2193 7.18773 44.0797 7.16187 43.9866 7.07913C43.8936 6.99639 43.7953 6.92917 43.6971 6.84643C43.5988 6.76369 43.4696 6.73784 43.3713 6.66027C43.2731 6.58271 43.1592 6.531 43.061 6.45343C42.9627 6.37587 42.849 6.32416 42.7507 6.25176C42.6525 6.17937 42.6628 5.95701 42.5646 5.88461C42.4663 5.81222 42.2647 5.87944 42.1664 5.80705C42.0682 5.73465 42.0268 5.57435 41.9286 5.50712C41.8303 5.4399 41.7269 5.36233 41.6287 5.29511C41.5304 5.22788 41.3494 5.27443 41.246 5.2072C41.1426 5.13998 41.0598 5.04173 40.9564 4.97967C40.853 4.91762 40.7703 4.8142 40.6668 4.75214C40.5634 4.69009 40.5634 4.44706 40.46 4.385C40.3566 4.32295 40.1652 4.40051 40.0566 4.33846C39.948 4.2764 39.8343 4.23504 39.7257 4.17299C39.6171 4.11093 39.5395 4.00234 39.431 3.94029C39.3224 3.87824 39.1982 3.85755 39.0896 3.80067C38.9811 3.74379 38.888 3.65588 38.7794 3.599C38.6708 3.54211 38.6346 3.34044 38.5208 3.28356C38.4071 3.22668 38.1847 3.40767 38.0761 3.35596C37.9675 3.30424 37.9572 3.03018 37.8434 2.97847C37.7296 2.92676 37.5538 3.01984 37.44 2.96812C37.3263 2.91641 37.2436 2.79748 37.1298 2.75094C37.016 2.7044 36.8092 2.88021 36.6954 2.8285C36.5817 2.77679 36.5868 2.44584 36.4731 2.3993C36.3593 2.35276 36.2352 2.31657 36.1215 2.2752C36.0077 2.23383 35.8939 2.17178 35.7801 2.12524C35.6664 2.0787 35.532 2.08387 35.413 2.0425C35.2941 2.00113 35.139 2.07353 35.0252 2.03216C34.9114 1.99079 34.7615 2.04767 34.6425 2.01148C34.5236 1.97528 34.4822 1.71155 34.3633 1.67536C34.2443 1.63916 34.0892 1.71672 33.9703 1.6857C33.8513 1.65467 33.7221 1.6495 33.6031 1.6133C33.4842 1.5771 33.3498 1.59779 33.2308 1.56676C33.1119 1.53574 33.024 1.38061 32.9051 1.34958C32.7861 1.31855 32.6568 1.31338 32.5379 1.28752C32.4189 1.26167 32.2845 1.29787 32.1604 1.26684C32.0363 1.23581 31.9174 1.23064 31.7984 1.20479C31.6795 1.17893 31.6071 0.910037 31.4882 0.884181C31.3693 0.858326 31.2245 0.946234 31.1004 0.920379C30.9763 0.894523 30.8315 1.0238 30.7074 1.00311C30.5832 0.982429 30.4643 0.987601 30.3402 0.966916C30.2161 0.946232 30.1179 0.78593 29.9989 0.770417C29.88 0.754904 29.7662 0.635968 29.6473 0.620455C29.5283 0.604942 29.3784 0.791102 29.2542 0.775589C29.1301 0.760076 29.0371 0.49118 28.913 0.480838C28.7889 0.470496 28.6441 0.682507 28.5251 0.672165C28.4062 0.661823 28.2821 0.661824 28.158 0.656653C28.0339 0.651481 27.9098 0.739391 27.7857 0.734219L27.7805 0.729047Z" fill="white"/>
</svg>
