<svg width="23" height="35" viewBox="0 0 23 35" fill="none" xmlns="http://www.w3.org/2000/svg">
<path d="M0.870644 6.62995C0.620644 6.72995 0.160639 7.50995 0.240639 7.67995C0.260639 7.28995 0.670633 6.31995 1.14063 6.05995C1.36063 5.89995 1.28065 5.96995 1.31065 5.94995H1.32066C1.27066 6.03995 1.63065 5.70995 1.69065 5.67995C1.84065 5.59995 1.75065 5.59994 2.31065 5.32994C2.97065 5.06994 3.64064 5.20995 4.05064 5.41995C4.11064 5.44995 4.07065 5.42994 3.88065 5.39994C3.66065 5.34994 3.03066 5.42995 2.82066 5.70995C2.79066 5.73995 2.72064 5.83994 2.77064 5.78994C2.87064 5.62994 3.44064 5.17995 3.40064 5.24995C3.32064 5.27995 3.03065 5.79994 3.31065 5.35994C3.55065 4.95994 4.15065 4.59995 3.94065 4.76995C3.74065 5.03995 3.96064 4.74995 4.15064 4.56995C4.32064 4.41995 4.69065 4.11995 4.41065 4.42995C4.36065 4.50995 4.33063 4.57995 4.42063 4.42995C4.68063 4.03995 5.04065 3.72995 5.53065 3.56995C5.93065 3.44995 6.32064 3.50995 6.52064 3.56995C6.89064 3.70995 7.02064 3.77995 6.80064 3.72995C6.45064 3.64995 5.86065 3.92995 5.72065 4.34995C5.60065 4.77995 5.71064 4.70994 5.68064 4.50994C5.65064 4.09994 5.86066 3.39994 6.32066 3.11994C6.66066 2.81994 7.44064 2.76995 7.77064 2.94995C7.87064 2.98995 7.90064 2.99995 7.83064 2.99995C7.77064 2.99995 7.57064 2.99995 7.43064 3.06995C7.24064 3.16995 7.20063 3.25994 7.17063 3.35994C7.41063 2.73994 8.27063 2.19995 8.95063 2.44995C9.17063 2.49995 8.81064 2.46995 8.71064 2.56995C8.62064 2.59995 8.38063 2.94995 8.45063 3.02995C8.45063 2.80995 8.49064 2.02994 8.93064 1.78994C9.15064 1.63994 9.41064 1.53995 9.62064 1.51995C9.93064 1.39995 10.6207 0.829949 11.0707 0.959949C11.2307 0.969949 11.0707 0.999944 11.1307 1.00994L11.4107 1.02995C11.8407 1.04995 12.0607 1.61995 11.7607 1.91995C11.6007 2.08995 11.1406 2.16994 11.0306 2.14994C10.9106 2.17994 11.1106 2.14994 11.0306 2.18994C10.8506 2.34994 10.6807 2.54994 10.3507 2.78994C10.2307 2.88994 9.95063 2.95995 9.92063 3.04995C10.1606 2.92995 10.1306 2.42995 10.2006 2.98995C10.3106 3.66995 9.64063 4.37995 8.95063 4.34995C8.74063 4.34995 8.61066 4.31995 8.57066 4.31995C8.50066 4.34995 8.86064 4.34994 8.96064 4.25994C8.99064 4.29994 9.20065 3.95994 9.09065 4.21994C8.93065 4.58994 8.72066 4.86995 8.26066 5.09995C7.88066 5.28995 7.38063 5.19995 7.11063 5.12995C7.07063 5.12995 7.12065 5.15995 7.28065 5.16995C7.65065 5.19995 8.05064 4.83995 8.12064 4.52995C8.16064 4.39995 8.15065 4.35995 8.16065 4.38995C8.15065 4.45995 8.30064 4.67995 8.08064 5.36995C7.95064 5.70995 7.64064 6.03995 7.33064 6.17995C7.00064 6.35995 6.56066 6.37994 6.32066 6.32994C5.83066 6.21994 5.71066 6.13995 5.82066 6.20995C6.05066 6.33995 6.72064 6.18994 6.90064 5.89994C6.90064 5.99994 6.41066 6.61995 6.26066 6.67995C6.22066 6.71995 6.28066 6.67994 6.32066 6.64994C6.37066 6.60994 6.42063 6.54994 6.36063 6.64994C6.29063 6.75994 6.13065 6.95994 6.00065 7.07994C5.58065 7.42994 5.93064 7.19995 6.02064 7.04995C6.14064 6.94995 5.65064 7.68995 5.43064 7.81995C5.16064 8.04995 5.51063 7.76995 5.45063 7.83995C5.29063 8.08995 4.91065 8.46995 4.59065 8.61995C4.02065 8.95995 3.19066 8.85995 2.76066 8.67995C2.69066 8.65995 2.69065 8.67994 2.84065 8.71994C2.97065 8.75994 3.35063 8.79995 3.70063 8.65995C4.13063 8.44995 3.93065 8.53994 3.97065 8.53994C3.97065 8.54994 4.01066 8.51995 3.98066 8.55995C3.93066 8.62995 3.67065 8.86995 3.56065 8.95995C3.54065 8.97995 3.39065 9.08994 3.56065 8.96994C3.75065 8.83994 3.99065 8.51994 4.06065 8.28994C4.14065 8.06994 4.14063 7.98995 4.14063 8.08995C4.20063 8.52995 3.63064 9.62994 3.15064 9.85994C0.960643 11.3099 -1.25935 8.08995 0.880654 6.55995L0.870644 6.62995Z" fill="white"/>
<path d="M3.33063 17.2199C2.97063 17.2999 2.44064 17.7799 2.34064 18.0899C2.26064 18.2999 2.29064 18.2499 2.37064 18.0299C2.41064 17.9299 2.49064 17.7399 2.62064 17.5199C3.31064 16.2999 5.17065 16.1799 6.01065 17.0199C6.06065 17.0799 5.91063 16.9099 5.42063 16.8199C5.19063 16.7899 4.95063 16.8199 4.77063 16.8699C4.82063 16.8599 5.04064 16.7999 5.21064 16.7899C5.59064 16.7299 6.11064 16.8599 6.06064 16.8599C5.71064 16.8299 5.44063 16.8599 5.08063 17.1799C4.88063 17.3899 4.92065 17.3499 5.22065 17.0399C5.44065 16.8399 5.73065 16.6599 6.01065 16.5699L6.13065 16.5299C6.19065 16.5099 6.08065 16.5499 6.07065 16.5499C5.77065 16.6399 5.40065 17.0599 5.38065 17.1799C5.33065 17.3199 5.38063 17.1699 5.58063 16.8299C5.79063 16.4599 6.36065 16.0199 6.82065 15.9399C7.09065 15.8699 7.45063 15.8599 7.74063 15.9399C8.09063 15.9899 8.67064 16.3899 8.71064 16.4799C8.48064 16.3099 7.95064 16.2099 7.62064 16.3399C7.81064 16.2899 8.17063 16.2299 8.36063 16.2399C8.42063 16.2399 8.40065 16.2399 8.38065 16.2499C8.31065 16.2699 8.35063 16.2699 8.33063 16.2799C8.31063 16.2799 8.13065 16.3999 8.13065 16.4199C8.13065 16.4199 8.47065 16.1499 8.72065 16.0699C8.82065 16.0299 9.01063 15.9699 8.99063 15.9799C8.94063 15.9999 8.86063 16.0399 8.77063 16.0999C8.58063 16.2299 8.49064 16.4199 8.62064 16.2399C8.99064 15.7399 9.71063 15.3799 10.4506 15.4799C10.8406 15.5399 11.0306 15.6499 10.8706 15.5999C10.4806 15.5199 10.1106 15.7399 9.94065 16.0299C9.89065 16.1499 9.94063 16.0299 10.1406 15.7399C10.5906 15.1699 11.2106 14.9799 11.8806 15.0699C12.1406 15.1199 11.9806 15.0899 11.8806 15.1099C11.5206 15.1999 12.3206 15.0099 12.4306 15.0399C12.7206 15.0399 13.5006 14.7999 13.9306 14.7899C14.0306 14.7699 13.9206 14.7999 13.8606 14.8599C13.7806 14.9399 13.8007 14.9199 14.0107 14.7299C14.4707 14.3799 14.9706 14.2799 15.5006 14.4299C15.7306 14.5099 15.7006 14.4999 15.5806 14.4899C15.5006 14.4799 15.3006 14.5499 15.5506 14.4899C15.7006 14.4499 15.9806 14.4399 16.0806 14.4599C16.1706 14.4599 16.0906 14.4799 16.1306 14.4799C16.2406 14.4499 15.9906 14.5299 15.9206 14.6499C15.8706 14.7699 15.8406 14.7699 15.9206 14.6499C15.9706 14.5399 16.1106 14.2499 16.4006 14.0599C16.6006 13.9299 16.7406 13.8999 16.8906 13.8699C17.0106 13.8399 17.2607 13.7599 17.4807 13.7099C17.6607 13.6599 17.9706 13.6499 18.1706 13.7099C18.3806 13.7799 18.3907 13.7899 18.3207 13.7799C18.2607 13.7799 18.2207 13.8099 18.2907 13.7899C18.3307 13.7799 18.3106 13.7999 18.3706 13.7699C18.4606 13.6899 18.8906 13.4899 18.9906 13.4999C18.9906 13.4999 19.0106 13.4999 19.1606 13.3999C19.3106 13.2999 19.4806 13.2299 19.6106 13.1999C19.9406 13.1199 20.2707 13.3199 20.3507 13.6499C20.4307 14.1099 20.1806 14.2399 19.9106 14.4299C19.9106 14.4299 19.7806 14.5699 19.6206 14.6699C19.4706 14.7599 19.2907 14.8199 19.2907 14.8299C18.9907 15.0999 18.6906 15.2799 18.2006 15.2799C17.9406 15.2599 17.7706 15.1899 17.8006 15.2099C17.8206 15.2299 17.9206 15.2299 17.9206 15.2299L17.4306 15.4499L17.2806 15.5099C17.2106 15.5399 17.3506 15.4999 17.3806 15.4699C17.5206 15.3899 17.5607 15.2699 17.5407 15.3399C17.5207 15.3899 17.4906 15.5799 17.2706 15.8399C16.8506 16.2899 16.4707 16.3099 16.0407 16.3399C15.9507 16.3399 16.0406 16.3499 16.0006 16.3599C16.0706 16.3399 15.6906 16.4799 15.4106 16.4499C15.0906 16.4299 14.9006 16.3299 14.9406 16.3599C15.0906 16.3999 15.2106 16.4199 15.3606 16.3199C15.4306 16.2499 15.3307 16.3999 15.1007 16.5899C14.8907 16.7599 14.5907 16.8599 14.5107 16.8899C14.3407 16.9599 14.0906 16.9899 13.9506 17.0499C13.5606 17.1899 13.1006 17.3999 12.6706 17.4599C12.3906 17.4999 12.8307 17.4599 12.1007 17.6099C11.8107 17.6499 11.4607 17.5799 11.5407 17.6099C11.8107 17.6699 12.0406 17.5399 12.2506 17.2999C12.3406 17.1699 12.3206 17.2299 12.1606 17.5099C12.0206 17.7899 11.5607 18.1599 11.2307 18.2399C10.9907 18.3399 10.5506 18.3899 10.2206 18.3099C9.88065 18.2199 9.89064 18.2399 10.0906 18.2799C10.4406 18.3499 10.7806 18.1499 10.9206 17.9699C10.9406 17.9499 10.7406 18.2999 10.3906 18.5399C9.30063 19.1099 10.3206 18.5699 10.0306 18.7599C9.60064 19.1399 9.03063 19.3299 8.45063 19.3799C8.38063 19.3999 8.59063 19.3799 8.49063 19.3999C7.93063 19.6499 6.89066 19.2799 6.73066 19.0899C6.55066 18.9599 6.48064 18.9199 6.59064 18.9999C7.11064 19.3899 8.10065 19.1799 8.41065 18.6099C8.51065 18.4299 8.50063 18.4699 8.36063 18.7799C8.21063 19.1899 7.54063 19.7399 7.14063 19.8399C7.20063 19.8199 7.25065 19.8099 7.32065 19.7699C7.42065 19.7299 7.54064 19.6399 7.62064 19.5699C7.78064 19.3899 7.72065 19.5199 7.38065 19.8599C6.72065 20.4199 6.05065 20.5399 5.32065 20.4299C5.08065 20.3899 5.42063 20.4699 5.61063 20.4499C5.69063 20.4499 5.81063 20.4199 5.77063 20.4299C5.50063 20.5099 5.16064 20.5499 4.84064 20.4999C4.16064 20.3899 3.85063 20.0999 3.74063 20.0499C3.63063 19.9599 3.68063 20.0799 4.08063 20.2199C4.27063 20.2799 4.55063 20.3099 4.77063 20.2799C5.16063 20.2599 5.73064 19.8799 5.90064 19.5499C5.99064 19.4199 6.02064 19.3199 6.03064 19.2999C6.03064 19.8299 5.19065 20.8899 4.47065 21.0299C1.93065 21.7399 0.790653 18.0499 3.29065 17.2099L3.33063 17.2199Z" fill="white"/>
<path d="M3.39062 27.5499C3.96062 27.7399 4.56063 27.7799 5.19063 28.2999C5.55063 28.6299 5.21063 28.2999 4.94063 28.2099C4.62063 28.1099 4.80062 28.1799 4.77062 28.1799C4.77062 28.1799 4.77063 28.1799 4.84063 28.1899L5.15063 28.2299L5.43062 28.2899C5.43062 28.2899 5.33064 28.2799 5.23064 28.2899C4.84064 28.3399 4.99064 28.3199 5.38064 28.2699C6.15064 28.1499 7.24064 28.6399 7.60064 29.3299C7.60064 29.3399 7.54062 29.2399 7.39062 29.1199C7.00062 28.7799 6.36062 28.7399 5.93062 28.9699C5.75062 29.1099 5.99064 28.8599 6.63064 28.6999C7.32064 28.5799 7.84064 28.6799 8.41063 29.1099C8.98063 29.6099 9.03063 29.9999 9.06063 30.0299C9.09063 30.1299 8.97062 29.7499 8.46062 29.4899C8.31062 29.4199 8.20062 29.3899 8.05062 29.3799C7.99062 29.3799 7.87062 29.3799 7.77062 29.3999C7.67062 29.4199 7.64062 29.4399 7.77062 29.3999C8.04062 29.3099 8.69063 29.2999 8.91063 29.4099C9.08063 29.4299 9.35063 29.4499 9.50063 29.4899C9.59063 29.5099 9.50063 29.4899 9.44063 29.4899C9.38063 29.4899 9.30063 29.4899 9.22063 29.4899C9.06063 29.5099 8.88062 29.5799 8.83062 29.6099C8.77062 29.6499 8.81061 29.6299 8.95061 29.5499C9.66061 29.1199 10.8406 29.3299 11.3706 29.9599C11.5506 30.1299 11.1606 29.7799 10.9406 29.7899C11.2806 29.8299 11.8806 30.1899 12.0406 30.4399C12.0406 30.4199 11.6606 30.1999 11.5906 30.2199C11.3906 30.1799 10.9406 30.3199 11.5006 30.1899C12.1206 30.0499 12.9106 30.3599 13.2006 30.6299C13.1706 30.6099 12.9406 30.5299 12.9906 30.5499C13.1606 30.5799 13.5106 30.7099 13.6706 30.8199C13.7806 30.8799 13.6006 30.8099 13.6406 30.8399C13.5206 30.8199 13.3106 30.8199 13.1606 30.8699C12.9506 30.9299 12.8406 31.0299 12.8106 31.0699C12.7406 31.1499 12.8106 31.0699 12.9606 30.9299C13.6406 30.1199 15.0906 30.2499 15.5406 31.2599C15.6806 31.5499 15.6906 31.6799 15.6906 31.6799C15.6806 31.6599 15.6706 31.6299 15.5706 31.5099C15.3606 31.2299 14.8106 31.1099 14.5306 31.3099C14.4706 31.3699 14.6706 31.1699 15.1406 31.0499C15.3606 30.9999 15.6006 31.0099 15.7706 31.0499C15.8106 31.0499 15.7206 31.0499 15.6506 31.0499C15.4706 31.0799 15.3706 31.1499 15.7106 31.0199C16.3106 30.8299 16.9506 31.0499 17.3006 31.3399C17.3306 31.3599 17.1806 31.2999 17.2106 31.3199C17.4606 31.3399 17.9906 31.6799 18.1006 31.9099C18.2406 32.1399 18.2306 32.0699 18.0606 31.9499C17.8906 31.8599 17.8606 31.8499 17.6806 31.8699C17.5206 31.9099 17.4706 31.9599 17.7706 31.8299C18.3706 31.5499 19.2806 31.9499 19.4906 32.4399C19.5806 32.5899 19.4906 32.4399 19.3306 32.3699C19.0206 32.2799 19.7106 32.4799 19.7706 32.4999C20.0506 32.5699 19.7006 32.4999 19.5906 32.5799C19.4406 32.6599 19.4906 32.6699 19.5906 32.5599C20.1406 31.9399 21.2806 32.1099 21.5606 32.9499C21.5506 32.9299 21.5006 32.8799 21.4306 32.8499C21.3806 32.8199 21.2706 32.7999 21.3606 32.8299L22.0206 32.9799C22.8806 33.1699 22.6706 34.4799 21.7906 34.3899C21.3706 34.3199 21.1206 34.3899 20.6806 34.1899C20.5206 34.0999 20.3906 33.9699 20.3006 33.8699C20.1506 33.6599 20.1006 33.5599 20.1406 33.6399C20.2106 33.7399 20.3506 33.8099 20.5106 33.8099C20.7406 33.7899 20.8006 33.6799 20.7506 33.7599C20.6406 33.9599 20.0206 34.3599 19.6106 34.2499C19.4906 34.2399 19.1706 34.1799 19.0506 34.1599C18.9206 34.1199 18.9706 34.1899 18.5206 34.0299C18.1406 33.8599 17.9306 33.5099 17.9106 33.4699C17.8406 33.3999 18.0006 33.6199 18.1506 33.6499C18.2606 33.6999 18.3706 33.6799 18.4606 33.6499C18.5506 33.5999 18.3106 33.7799 17.9206 33.8499C17.7306 33.8799 17.5706 33.8599 17.4306 33.8499C17.2606 33.8199 17.0706 33.7599 16.9006 33.6399C16.5406 33.3899 16.4206 33.1099 16.4306 33.1599C16.4106 33.1999 16.7406 33.4199 16.7706 33.3999C16.5806 33.3799 16.2206 33.2299 16.0706 33.1199C15.9406 33.0399 16.1206 33.1599 16.1106 33.1499C16.0706 33.1499 16.2806 33.1899 16.4006 33.1499C16.5306 33.0899 16.2306 33.2799 15.8206 33.3299C15.6406 33.3499 15.4306 33.3299 15.3606 33.3099C15.4306 33.3299 15.5406 33.3399 15.6606 33.3099C15.9106 33.2399 15.9306 33.1899 15.6806 33.3699C14.6406 33.9799 13.6106 33.2899 13.3306 32.4199C13.3306 32.5199 13.7306 32.9299 14.1206 32.9199C14.3906 32.9499 14.6906 32.7999 14.8106 32.6899C14.6506 32.9999 13.9006 33.5599 13.3606 33.4699C13.0806 33.4699 12.5806 33.3099 12.3906 33.1999C12.3506 33.1999 12.4806 33.2499 12.4406 33.2399C12.2606 33.2299 11.8206 33.0699 11.6106 32.9099C11.4106 32.7799 11.6906 32.9799 11.7306 32.9699C11.7506 32.9799 11.8706 33.0199 12.0506 32.9899C12.1206 32.9799 12.1306 32.9799 12.0006 33.0199C11.4806 33.1799 10.9006 33.1299 10.4006 32.8599C10.2006 32.7499 10.0206 32.5899 9.95061 32.5199C9.87061 32.4399 9.89062 32.4699 9.96062 32.5399C10.0706 32.6299 10.2206 32.7099 10.3506 32.7399C10.2606 32.7199 10.1906 32.7099 10.0906 32.6699C9.64063 32.5799 8.85061 31.8299 9.42061 32.2899C9.69061 32.4299 9.75064 32.4399 10.0706 32.4199C10.3106 32.3999 10.6406 32.1899 10.2406 32.4199C9.93062 32.6099 9.31064 32.7099 8.91063 32.6199C8.77063 32.6599 8.42063 32.6199 8.22063 32.5899C8.26063 32.6199 8.60064 32.6099 8.63064 32.5899C8.22064 32.7599 7.42063 32.7599 6.97063 32.5099C6.25063 32.1599 6.02062 31.5499 5.96062 31.4599C5.90062 31.2899 5.86063 31.4499 6.25063 31.8099C6.65063 32.0999 6.92062 32.1699 7.39062 32.0999C7.81062 31.9799 7.87062 31.8899 7.49062 32.1299C6.78062 32.5199 5.73062 32.4399 5.08062 31.8899C4.84062 31.6999 4.71063 31.5099 4.65063 31.4299C4.59063 31.3499 4.59062 31.3699 4.68062 31.4799C4.91062 31.7499 5.39064 31.9799 5.73064 31.9399C5.83064 31.9399 5.90064 31.9199 5.79064 31.9399C5.53064 32.0399 4.92064 32.0199 4.63064 31.9699C4.22064 32.0199 3.32062 31.8299 2.86062 31.4299C2.69062 31.2999 2.65063 31.2499 2.72063 31.3199C2.86063 31.4799 3.37063 31.6499 3.25063 31.6099C3.03063 31.5799 2.81064 31.5099 2.60064 31.4899C-0.169362 31.0299 0.630636 26.9299 3.38064 27.5699L3.39062 27.5499Z" fill="white"/>
</svg>
