<svg width="926" height="701" viewBox="0 0 926 701" fill="none" xmlns="http://www.w3.org/2000/svg">
<path d="M489 394C489 84.3995 832 3.94103 832 3.94103M475 394C475 84.3995 672 3 672 3M503 394C503 98.5151 925 62.2852 925 62.2852M437.5 394C437.5 84.3995 94 3.94103 94 3.94103M451 394C451 84.3995 254 3 254 3M423 394C423 98.5151 1 62.2852 1 62.2852M423 442V701M437 442V701M451 442V701M475 442V701M489 442V701M503 442V701" stroke="url(#paint0_linear_2998_23430)" stroke-width="6" style="mix-blend-mode:overlay"/>
<defs>
<linearGradient id="paint0_linear_2998_23430" x1="463" y1="442" x2="463" y2="701" gradientUnits="userSpaceOnUse">
<stop/>
<stop offset="1" stop-opacity="0"/>
</linearGradient>
</defs>
</svg>
