<svg width="40" height="40" viewBox="0 0 40 40" fill="none" xmlns="http://www.w3.org/2000/svg">
<path fill-rule="evenodd" clip-rule="evenodd" d="M19.5112 3.08075C19.82 2.93256 20.1795 2.93256 20.4884 3.08075L36.3696 10.6999C36.7967 10.9048 37.051 11.3418 36.9908 11.8117C36.4394 16.114 33.0916 36.9698 19.9998 36.9698C6.90796 36.9698 3.56012 16.114 3.00878 11.8117C2.94856 11.3418 3.20285 10.9048 3.62996 10.6999L19.5112 3.08075ZM26.0289 22.1733H23.2763C21.3753 22.1733 19.8345 23.7124 19.8345 25.6111V28.3611H15.0165V11.8604H26.0289V14.9814C25.624 14.7469 25.1545 14.6103 24.6524 14.6103C23.132 14.6103 21.8996 15.8418 21.8996 17.3608C21.8996 18.8795 23.132 20.1107 24.6524 20.1107C25.1545 20.1107 25.624 19.9742 26.0289 19.7397V22.1733Z" fill="black"/>
</svg>
