<svg width="40" height="41" viewBox="0 0 40 41" fill="none">
<path d="M14.684 7.16666H13.7932C9.85736 7.16666 6.66675 10.3573 6.66675 14.2931V15.1839" stroke="black" stroke-width="2.5" stroke-linecap="round" stroke-linejoin="round"/>
<path d="M14.684 33H13.7932C9.85736 33 6.66675 29.8094 6.66675 25.8735V24.9827" stroke="black" stroke-width="2.5" stroke-linecap="round" stroke-linejoin="round"/>
<path d="M24.4829 7.16666H25.3737C29.3095 7.16666 32.5002 10.3573 32.5002 14.2931V15.1839" stroke="black" stroke-width="2.5" stroke-linecap="round" stroke-linejoin="round"/>
<path d="M24.4829 33H25.3737C29.3095 33 32.5002 29.8094 32.5002 25.8735V24.9827" stroke="black" stroke-width="2.5" stroke-linecap="round" stroke-linejoin="round"/>
<path d="M16.9112 16.5201C16.9112 17.0121 16.5124 17.4109 16.0204 17.4109C15.5285 17.4109 15.1296 17.0121 15.1296 16.5201C15.1296 16.0281 15.5285 15.6293 16.0204 15.6293C16.5124 15.6293 16.9112 16.0281 16.9112 16.5201Z" stroke="black" stroke-width="1.66667" stroke-linecap="round" stroke-linejoin="round"/>
<path d="M24.0377 16.5201C24.0377 17.0121 23.6389 17.4109 23.1469 17.4109C22.6549 17.4109 22.2561 17.0121 22.2561 16.5201C22.2561 16.0281 22.6549 15.6293 23.1469 15.6293C23.6389 15.6293 24.0377 16.0281 24.0377 16.5201Z" stroke="black" stroke-width="1.66667" stroke-linecap="round" stroke-linejoin="round"/>
<path d="M13.7932 21.4195C13.7932 21.4195 14.2386 25.8735 19.5834 25.8735C24.9283 25.8735 25.3737 21.4195 25.3737 21.4195" stroke="black" stroke-width="2.5" stroke-linecap="round" stroke-linejoin="round"/>
</svg>
