<svg width="40" height="40" viewBox="0 0 40 40" fill="none" xmlns="http://www.w3.org/2000/svg">
<path d="M35 13.3333L30.5 7.33329C30.1852 6.91361 29.6913 6.66663 29.1667 6.66663H10.8333C10.3087 6.66663 9.81475 6.91361 9.5 7.33329L5 13.3333M35 13.3333V15C35 16.4808 34.3562 17.8113 33.3333 18.7268M35 13.3333H5M5 13.3333V15C5 16.4808 5.64375 17.8113 6.66667 18.7268M33.3333 18.7268C32.4487 19.5185 31.2807 20 30 20C27.2385 20 25 17.7615 25 15M33.3333 18.7268V31.6666C33.3333 32.5871 32.5872 33.3333 31.6667 33.3333H8.33333C7.41287 33.3333 6.66667 32.5871 6.66667 31.6666V18.7268M6.66667 18.7268C7.55127 19.5185 8.71942 20 10 20C12.7614 20 15 17.7615 15 15M25 15V13.3333M25 15C25 17.7615 22.7615 20 20 20C17.2385 20 15 17.7615 15 15M15 15V13.3333M23.3333 33.3333V28.3333C23.3333 26.4923 21.841 25 20 25C18.159 25 16.6667 26.4923 16.6667 28.3333V33.3333" stroke="black" stroke-width="3.33333" stroke-linecap="round" stroke-linejoin="round"/>
</svg>
