<svg width="25" height="24" viewBox="0 0 25 24" fill="none">
<path fill-rule="evenodd" clip-rule="evenodd" d="M12.8068 4.06562C12.6116 3.97813 12.3884 3.97813 12.1932 4.06562L4.94323 7.31562C4.68999 7.42914 4.52014 7.67321 4.50168 7.95011L5.25002 8C4.50168 7.95011 4.50166 7.95041 4.50164 7.95076L4.50158 7.95166L4.50141 7.95425L4.5009 7.96247L4.49925 7.99094C4.49792 8.01517 4.49615 8.0498 4.49424 8.09415C4.49043 8.18283 4.48607 8.31046 4.48351 8.4715C4.47841 8.79335 4.48049 9.24992 4.50884 9.79665C4.56531 10.8858 4.72699 12.3534 5.15448 13.8332C5.58048 15.3078 6.28514 16.8458 7.46187 18.0225C8.6581 19.2188 10.3024 20 12.5 20C14.6976 20 16.3419 19.2188 17.5381 18.0225C18.7149 16.8458 19.4195 15.3078 19.8455 13.8332C20.273 12.3534 20.4347 10.8858 20.4912 9.79665C20.5195 9.24992 20.5216 8.79335 20.5165 8.4715C20.514 8.31046 20.5096 8.18283 20.5058 8.09415C20.5039 8.0498 20.5021 8.01517 20.5008 7.99094L20.4991 7.96247L20.4986 7.95425L20.4984 7.95166L20.4984 7.95076C20.4984 7.95041 20.4983 7.95011 19.75 8L20.4983 7.95011C20.4799 7.67321 20.31 7.42914 20.0568 7.31562L12.8068 4.06562ZM5.98333 8.4953L5.98336 8.49317L12.5 5.57191L19.0167 8.49317L19.0167 8.4953C19.0214 8.78868 19.0195 9.21101 18.9932 9.71898C18.9403 10.7392 18.7895 12.0841 18.4045 13.4168C18.018 14.7547 17.4101 16.0292 16.4775 16.9619C15.5643 17.875 14.3024 18.5 12.5 18.5C10.6977 18.5 9.43567 17.875 8.52253 16.9619C7.58989 16.0292 6.98206 14.7547 6.59555 13.4168C6.21055 12.0841 6.05973 10.7392 6.00683 9.71898C5.98049 9.21101 5.97867 8.78868 5.98333 8.4953ZM15.358 10.1891C15.6005 9.85332 15.5249 9.38451 15.1891 9.14199C14.8533 8.89947 14.3845 8.97509 14.142 9.31088L11.4577 13.0277L10.8262 12.2699C10.561 11.9517 10.0881 11.9087 9.76986 12.1738C9.45165 12.439 9.40866 12.9119 9.67383 13.2301L10.9238 14.7301C11.0722 14.9081 11.2944 15.0076 11.526 14.9995C11.7575 14.9915 11.9724 14.8769 12.108 14.6891L15.358 10.1891Z" fill="black"/>
</svg>
