<svg width="40" height="40" viewBox="0 0 40 40" fill="none" xmlns="http://www.w3.org/2000/svg">
<g clip-path="url(#clip0_1563_77)">
<path fill-rule="evenodd" clip-rule="evenodd" d="M28.476 4.99999C29.7778 3.69824 31.8883 3.69824 33.1902 4.99999L34.9997 6.80964C36.3015 8.11139 36.3015 10.2219 34.9997 11.5237L11.5234 35C10.2217 36.3018 8.11113 36.3018 6.8094 35L4.99975 33.1903C3.698 31.8886 3.698 29.778 4.99975 28.4763L28.476 4.99999ZM26.9402 11.25L28.7497 13.0596L32.6427 9.16666L30.833 7.35701L26.9402 11.25ZM26.3927 15.4167L24.583 13.607L7.35677 30.8333L9.16642 32.643L26.3927 15.4167Z" fill="black"/>
<path d="M16.4181 3.45753C16.5794 3.37689 16.7101 3.24613 16.7908 3.08486L17.5878 1.49068C17.895 0.876478 18.7715 0.876478 19.0786 1.49068L19.8756 3.08486C19.9563 3.24613 20.0871 3.37689 20.2483 3.45753L21.8425 4.25461C22.4566 4.56173 22.4566 5.43823 21.8425 5.74533L20.2483 6.54241C20.0871 6.62304 19.9563 6.75383 19.8756 6.91509L19.0786 8.50926C18.7715 9.12348 17.895 9.12348 17.5878 8.50926L16.7908 6.91509C16.7101 6.75383 16.5794 6.62304 16.4181 6.54241L14.8239 5.74533C14.2097 5.43823 14.2097 4.56173 14.8239 4.25461L16.4181 3.45753Z" fill="black"/>
<path d="M31.4181 21.7909C31.5792 21.7104 31.7101 21.5795 31.7907 21.4182L32.5877 19.824C32.8949 19.2099 33.7714 19.2099 34.0786 19.824L34.8756 21.4182C34.9562 21.5795 35.0871 21.7104 35.2482 21.7909L36.8424 22.588C37.4566 22.8952 37.4566 23.7717 36.8424 24.0787L35.2482 24.8759C35.0871 24.9565 34.9562 25.0872 34.8756 25.2485L34.0786 26.8427C33.7714 27.4569 32.8949 27.4569 32.5877 26.8427L31.7907 25.2485C31.7101 25.0872 31.5792 24.9565 31.4181 24.8759L29.8239 24.0787C29.2097 23.7717 29.2097 22.8952 29.8239 22.588L31.4181 21.7909Z" fill="black"/>
<path d="M8.08461 11.7909C8.24588 11.7103 8.37665 11.5795 8.45728 11.4182L9.25438 9.82405C9.56148 9.20985 10.438 9.20985 10.7451 9.82407L11.5422 11.4182C11.6228 11.5795 11.7536 11.7103 11.9148 11.7909L13.509 12.588C14.1232 12.8951 14.1232 13.7716 13.509 14.0787L11.9148 14.8758C11.7536 14.9564 11.6228 15.0872 11.5422 15.2485L10.7451 16.8427C10.438 17.4568 9.56148 17.4568 9.25438 16.8427L8.45728 15.2485C8.37665 15.0872 8.24588 14.9564 8.08461 14.8758L6.49045 14.0787C5.87623 13.7716 5.87623 12.8951 6.49045 12.588L8.08461 11.7909Z" fill="black"/>
</g>
<defs>
<clipPath id="clip0_1563_77">
<rect width="40" height="40" fill="white"/>
</clipPath>
</defs>
</svg>
