<svg width="40" height="40" viewBox="0 0 40 40" fill="none" xmlns="http://www.w3.org/2000/svg">
<g clip-path="url(#clip0_243_57)">
<path d="M24.714 24.714C22.1105 27.3175 17.8895 27.3175 15.2859 24.714M15.4167 15.8333V15.8167M24.5833 15.8333V15.8167M30.6065 9.3934C36.4645 15.2513 36.4645 24.7487 30.6065 30.6065C24.7487 36.4645 15.2512 36.4645 9.3934 30.6065C3.53553 24.7487 3.53553 15.2512 9.3934 9.3934C15.2513 3.53553 24.7487 3.53553 30.6065 9.3934ZM15.8333 15.8333C15.8333 16.2936 15.6468 16.6667 15.4167 16.6667C15.1865 16.6667 15 16.2936 15 15.8333C15 15.3731 15.1865 15 15.4167 15C15.6468 15 15.8333 15.3731 15.8333 15.8333ZM25 15.8333C25 16.2936 24.8135 16.6667 24.5833 16.6667C24.3532 16.6667 24.1667 16.2936 24.1667 15.8333C24.1667 15.3731 24.3532 15 24.5833 15C24.8135 15 25 15.3731 25 15.8333Z" stroke="black" stroke-width="3.33333" stroke-linecap="round" stroke-linejoin="round"/>
</g>
<defs>
<clipPath id="clip0_243_57">
<rect width="40" height="40" fill="white"/>
</clipPath>
</defs>
</svg>
