<svg width="40" height="40" viewBox="0 0 40 40" fill="none" xmlns="http://www.w3.org/2000/svg">
<g clip-path="url(#clip0_1993_364)">
<path d="M6.66667 11.6666H11.608C12.1653 11.6666 12.6857 11.3881 12.9948 10.9245L15.3385 7.40879C15.6477 6.94513 16.168 6.66663 16.7253 6.66663H23.2747C23.832 6.66663 24.3523 6.94513 24.6615 7.40879L27.0052 10.9245C27.3143 11.3881 27.8347 11.6666 28.392 11.6666H33.3333C34.2538 11.6666 35 12.4128 35 13.3333V31.6666C35 32.5871 34.2538 33.3333 33.3333 33.3333H6.66667C5.7462 33.3333 5 32.5871 5 31.6666V13.3333C5 12.4128 5.7462 11.6666 6.66667 11.6666Z" stroke="black" stroke-width="3.33333" stroke-linecap="square" stroke-linejoin="round"/>
<path d="M25 21.6666C25 24.4281 22.7615 26.6666 20 26.6666C17.2385 26.6666 15 24.4281 15 21.6666C15 18.9051 17.2385 16.6666 20 16.6666C22.7615 16.6666 25 18.9051 25 21.6666Z" stroke="black" stroke-width="3.33333" stroke-linecap="square" stroke-linejoin="round"/>
</g>
<defs>
<clipPath id="clip0_1993_364">
<rect width="40" height="40" rx="6" fill="white"/>
</clipPath>
</defs>
</svg>
