<svg width="40" height="40" viewBox="0 0 40 40" fill="none">
<path fill-rule="evenodd" clip-rule="evenodd" d="M19.9975 6.06006C12.3 6.06006 6.06 12.3001 6.06 19.9976C6.06 27.695 12.3 33.9351 19.9975 33.9351C27.695 33.9351 33.935 27.695 33.935 19.9976C33.935 12.3001 27.695 6.06006 19.9975 6.06006ZM8.56 19.9976C8.56 13.6808 13.6807 8.56006 19.9975 8.56006C26.3143 8.56006 31.435 13.6808 31.435 19.9976C31.435 26.3143 26.3143 31.4351 19.9975 31.4351C13.6807 31.4351 8.56 26.3143 8.56 19.9976ZM25.0192 16.6821C25.3628 16.0834 25.1559 15.3194 24.5571 14.9758C23.9583 14.6323 23.1944 14.8391 22.8508 15.4379L18.837 22.4332C18.6356 22.7841 18.1225 22.763 17.9507 22.3967L17.1916 20.7791C16.8984 20.1541 16.154 19.8852 15.529 20.1784C14.9041 20.4717 14.6351 21.216 14.9284 21.841L15.6874 23.4587C16.7186 25.6564 19.7972 25.7831 21.0054 23.6774L25.0192 16.6821Z" fill="black"/>
</svg>
