<svg width="40" height="40" viewBox="0 0 40 40" fill="none">
<path fill-rule="evenodd" clip-rule="evenodd" d="M12.5348 10.4135C14.5947 8.80704 17.1858 7.85 20.0005 7.85C26.711 7.85 32.1509 13.2899 32.1509 20.0005C32.1509 22.8151 31.1939 25.4062 29.5875 27.4661L12.5348 10.4135ZM10.4135 12.5348C8.80704 14.5947 7.85 17.1858 7.85 20.0005C7.85 26.711 13.2899 32.1509 20.0005 32.1509C22.8151 32.1509 25.4062 31.1939 27.4661 29.5875L10.4135 12.5348ZM20.0005 4.85C11.6331 4.85 4.85 11.6331 4.85 20.0005C4.85 28.3678 11.6331 35.1509 20.0005 35.1509C28.3678 35.1509 35.1509 28.3678 35.1509 20.0005C35.1509 11.6331 28.3678 4.85 20.0005 4.85Z" fill="black"/>
</svg>
