<svg width="1349" height="373" viewBox="0 0 1349 373" fill="none" xmlns="http://www.w3.org/2000/svg">
<path d="M0.493664 153.582C0.317103 154.05 0.318462 154.05 0.320992 154.051L0.33191 154.055L0.374775 154.071C0.412678 154.085 0.469209 154.106 0.544217 154.134C0.694232 154.19 0.918153 154.272 1.21476 154.38C1.80798 154.595 2.69194 154.911 3.85692 155.316C6.18687 156.126 9.64088 157.29 14.141 158.71C23.1412 161.549 36.3261 165.412 53.072 169.504C86.5634 177.688 134.302 186.794 191.297 190.481C305.286 197.856 456.323 183.559 604.466 96.8548C752.388 10.28 903.211 -4.00242 1017.07 3.36344C1073.99 7.04638 1121.67 16.141 1155.12 24.3142C1171.84 28.4007 1185 32.2568 1193.98 35.0905C1198.48 36.5074 1201.92 37.6686 1204.24 38.4753C1204.73 38.6467 1205.18 38.8021 1205.57 38.9406C1205.92 39.0663 1206.24 39.178 1206.51 39.275C1206.64 39.3226 1206.76 39.3666 1206.87 39.407C1206.98 39.4478 1207.08 39.4848 1207.18 39.5181L1207.29 39.5617C1207.39 39.5964 1207.47 39.6259 1207.54 39.6502L1207.7 39.712L1207.75 39.7314C1207.76 39.7322 1207.76 39.7326 1207.93 39.2648C1208.11 38.797 1208.11 38.7965 1208.11 38.7955L1208.09 38.7914L1208.05 38.7753L1207.98 38.7503L1207.88 38.7124C1207.81 38.6854 1207.72 38.652 1207.61 38.6124C1207.5 38.5707 1207.36 38.5221 1207.21 38.4669C1206.62 38.2518 1205.73 37.9356 1204.57 37.5307C1202.24 36.721 1198.79 35.5567 1194.29 34.1368C1185.29 31.2971 1172.1 27.435 1155.35 23.3428C1121.86 15.1584 1074.12 6.05287 1017.13 2.36555C903.141 -5.009 752.104 9.2878 603.961 95.9917C456.039 182.566 305.216 196.849 191.361 189.483C134.435 185.8 86.7553 176.706 53.3094 168.532C36.5867 164.446 23.4231 160.59 14.4419 157.756C9.95133 156.339 6.50645 155.178 4.18518 154.371C3.02455 153.968 2.14482 153.653 1.55575 153.44C1.26121 153.333 1.03933 153.251 0.891341 153.196C0.817345 153.169 0.761818 153.148 0.724915 153.134L0.683546 153.119L0.673372 153.115C0.671213 153.114 0.670224 153.114 0.493664 153.582Z" fill="url(#paint0_radial_4173_93969)" fill-opacity="0.45"/>
<path d="M7.19707 162.162C7.02051 162.63 7.02187 162.63 7.0244 162.631L7.03531 162.635L7.07818 162.651C7.11608 162.666 7.17261 162.687 7.24762 162.714C7.39764 162.77 7.62156 162.852 7.91816 162.96C8.51138 163.175 9.39535 163.491 10.5603 163.896C12.8903 164.706 16.3443 165.87 20.8444 167.29C29.8446 170.13 43.0295 173.992 59.7754 178.084C93.2668 186.268 141.005 195.374 198 199.061C311.989 206.436 463.026 192.139 611.169 105.435C759.091 18.8603 909.914 4.57782 1023.77 11.9437C1080.69 15.6266 1128.37 24.7212 1161.82 32.8944C1178.54 36.9809 1191.71 40.837 1200.69 43.6707C1205.18 45.0876 1208.62 46.2488 1210.94 47.0555C1212.11 47.4589 1212.99 47.7735 1213.57 47.9872C1213.87 48.094 1214.09 48.1756 1214.24 48.2304L1214.4 48.2923L1214.46 48.3116C1214.46 48.3117 1214.46 48.3117 1214.46 48.3116C1214.46 48.3114 1214.46 48.3111 1214.46 48.3101C1214.46 48.308 1214.46 48.3034 1214.47 48.293C1214.47 48.2791 1214.48 48.2548 1214.5 48.2128C1214.52 48.1457 1214.57 48.0332 1214.64 47.845C1214.7 47.6683 1214.74 47.5583 1214.77 47.4897C1214.81 47.3767 1214.81 47.3763 1214.81 47.3757L1214.8 47.3716L1214.76 47.3555L1214.69 47.3305L1214.59 47.2926C1214.44 47.237 1214.21 47.1547 1213.92 47.0471C1213.32 46.832 1212.44 46.5158 1211.27 46.111C1208.94 45.3013 1205.49 44.1369 1200.99 42.7171C1191.99 39.8773 1178.8 36.0152 1162.06 31.923C1128.57 23.7386 1080.83 14.6331 1023.83 10.9458C909.844 3.57124 758.807 17.868 610.664 104.572C462.742 191.147 311.919 205.429 198.065 198.063C141.138 194.38 93.4587 185.286 60.0128 177.113C43.2901 173.026 30.1265 169.17 21.1453 166.336C16.6547 164.919 13.2099 163.758 10.8886 162.951C9.72795 162.548 8.84822 162.233 8.25915 162.02C7.96461 161.913 7.74274 161.831 7.59474 161.777C7.52075 161.749 7.46522 161.728 7.42832 161.715L7.38695 161.699L7.37678 161.695C7.37462 161.695 7.37363 161.694 7.19707 162.162Z" fill="url(#paint1_radial_4173_93969)" fill-opacity="0.45"/>
<path d="M13.7279 171.211C13.7254 171.21 13.724 171.209 13.9006 170.742C14.0771 170.274 14.0781 170.274 14.0803 170.275L14.0904 170.279L14.1318 170.294C14.1687 170.308 14.2242 170.329 14.2982 170.356C14.4462 170.411 14.6681 170.493 14.9626 170.599C15.5517 170.813 16.4314 171.128 17.5921 171.531C19.9133 172.338 23.3582 173.499 27.8488 174.916C36.83 177.75 49.9936 181.606 66.7163 185.692C100.162 193.865 147.842 202.96 204.768 206.643C318.623 214.009 469.445 199.726 617.368 113.152C765.51 26.4477 916.548 12.1509 1030.54 19.5255C1087.53 23.2128 1135.27 32.3184 1168.76 40.5027C1185.51 44.5949 1198.69 48.457 1207.69 51.2968C1212.19 52.7166 1215.65 53.881 1217.98 54.6907C1219.14 55.0955 1220.03 55.4117 1220.62 55.6268C1220.92 55.7344 1221.14 55.8168 1221.29 55.8723L1221.39 55.9102L1221.46 55.9352L1221.5 55.9513L1221.51 55.9554C1221.51 55.9557 1221.51 55.9559 1221.51 55.9635C1221.51 55.9683 1221.51 55.9759 1221.5 55.9882C1221.49 56.0347 1221.44 56.1479 1221.34 56.4247C1221.23 56.7075 1221.19 56.8192 1221.17 56.8632C1221.16 56.8919 1221.16 56.8916 1221.16 56.8913L1221.11 56.872L1220.94 56.8101L1220.72 56.7297C1220.6 56.6845 1220.45 56.6301 1220.28 56.5669C1219.69 56.3532 1218.81 56.0386 1217.65 55.6352C1215.33 54.8285 1211.88 53.6673 1207.39 52.2504C1198.41 49.4167 1185.25 45.5606 1168.52 41.4741C1135.08 33.3009 1087.4 24.2063 1030.47 20.5234C916.617 13.1575 765.795 27.44 617.873 114.015C469.73 200.719 318.693 215.015 204.704 207.641C147.708 203.954 99.9703 194.848 66.4789 186.664C49.733 182.571 36.5481 178.709 27.5479 175.87C23.0478 174.45 19.5938 173.285 17.2638 172.476C16.0988 172.071 15.2149 171.755 14.6217 171.54C14.325 171.432 14.1011 171.35 13.9511 171.294C13.8761 171.266 13.8196 171.245 13.7817 171.231L13.7388 171.215L13.7279 171.211Z" fill="url(#paint2_radial_4173_93969)" fill-opacity="0.45"/>
<path d="M20.604 179.322C20.4274 179.79 20.4288 179.79 20.4313 179.791L20.4422 179.795L20.4851 179.811C20.523 179.825 20.5795 179.847 20.6545 179.874C20.8045 179.93 21.0284 180.012 21.3251 180.12C21.9183 180.335 22.8022 180.651 23.9672 181.056C26.2972 181.866 29.7512 183.03 34.2513 184.45C43.2515 187.29 56.4364 191.152 73.1823 195.244C106.674 203.428 154.412 212.534 211.407 216.221C325.396 223.596 476.433 209.299 624.576 122.595C772.498 36.0202 923.321 21.7377 1037.18 29.1036C1094.1 32.7865 1141.78 41.8811 1175.23 50.0543C1191.95 54.1408 1205.11 57.9969 1214.09 60.8306C1218.59 62.2475 1222.03 63.4087 1224.35 64.2154C1224.83 64.3802 1225.25 64.5302 1225.63 64.6645C1226.18 64.859 1226.63 65.0207 1226.98 65.1471L1227.25 65.2457C1227.42 65.3055 1227.55 65.3538 1227.65 65.3903L1227.81 65.4521L1227.86 65.4715C1227.86 65.4715 1227.86 65.4718 1227.86 65.4715L1227.87 65.4698L1227.87 65.4669L1227.87 65.4519L1227.88 65.4299L1227.91 65.3433C1227.94 65.2743 1227.98 65.1681 1228.04 65.0049C1228.22 64.5371 1228.22 64.5366 1228.22 64.5356L1228.2 64.5315L1228.16 64.5154L1228.09 64.4904L1227.99 64.4525C1227.89 64.4133 1227.74 64.3608 1227.57 64.2955L1227.32 64.207C1226.73 63.9919 1225.84 63.6757 1224.68 63.2708C1222.35 62.4611 1218.9 61.2968 1214.4 59.8769C1205.4 57.0372 1192.21 53.1751 1175.46 49.0829C1141.97 40.8985 1094.24 31.793 1037.24 28.1057C923.251 20.7311 772.214 35.0279 624.071 121.732C476.149 208.307 325.326 222.589 211.472 215.223C154.545 211.54 106.866 202.446 73.4197 194.272C56.697 190.186 43.5334 186.33 34.5522 183.496C30.0616 182.079 26.6167 180.918 24.2955 180.111C23.1348 179.708 22.2551 179.393 21.666 179.18C21.3715 179.073 21.1496 178.991 21.0016 178.936C20.9276 178.909 20.8721 178.888 20.8352 178.875L20.7938 178.859L20.7837 178.855C20.7815 178.854 20.7805 178.854 20.604 179.322Z" fill="url(#paint3_radial_4173_93969)" fill-opacity="0.45"/>
<path d="M27.1347 188.371C27.1322 188.37 27.1308 188.37 27.3074 187.902C27.4839 187.434 27.4849 187.435 27.4871 187.436L27.4972 187.439L27.5386 187.455C27.5755 187.469 27.631 187.489 27.705 187.517C27.853 187.571 28.0749 187.653 28.3694 187.76C28.9585 187.974 29.8382 188.288 30.9989 188.692C33.3202 189.498 36.765 190.66 41.2556 192.076C50.2368 194.91 63.4004 198.766 80.1231 202.853C113.569 211.026 161.249 220.121 218.175 223.803C332.03 231.169 482.852 216.887 630.774 130.312C778.917 43.6082 929.954 29.3114 1043.94 36.6859C1100.94 40.3732 1148.68 49.4788 1182.17 57.6632C1198.91 61.7554 1212.1 65.6174 1221.1 68.4572C1225.6 69.877 1229.05 71.0414 1231.38 71.8511C1232.55 72.2559 1233.43 72.5721 1234.03 72.7873C1234.32 72.8948 1234.55 72.9772 1234.7 73.0327L1234.8 73.0706L1234.87 73.0956L1234.92 73.1159C1234.92 73.1168 1234.92 73.1173 1234.75 73.5851C1234.65 73.8531 1234.6 73.9674 1234.58 74.0161C1234.57 74.0524 1234.57 74.0521 1234.57 74.0517L1234.56 74.0479L1234.52 74.0324L1234.35 73.9706C1234.2 73.9158 1233.98 73.8342 1233.68 73.7274C1233.1 73.5136 1232.22 73.199 1231.05 72.7957C1228.73 71.989 1225.29 70.8277 1220.8 69.4109C1211.82 66.5772 1198.65 62.721 1181.93 58.6345C1148.48 50.4613 1100.81 41.3667 1043.88 37.6838C930.024 30.3179 779.202 44.6004 631.279 131.175C483.137 217.879 332.099 232.176 218.111 224.801C161.115 221.114 113.377 212.008 79.8857 203.824C63.1398 199.732 49.9549 195.87 40.9547 193.03C36.4546 191.61 33.0006 190.446 30.6706 189.636C29.5056 189.231 28.6217 188.915 28.0285 188.7C27.7319 188.592 27.5079 188.51 27.3579 188.455C27.2829 188.427 27.2264 188.406 27.1885 188.392L27.1456 188.375L27.1347 188.371Z" fill="url(#paint4_radial_4173_93969)" fill-opacity="0.45"/>
<path d="M34.0109 196.482C33.8343 196.95 33.8357 196.95 33.8382 196.951L33.8491 196.955L33.892 196.971C33.9299 196.985 33.9864 197.006 34.0614 197.034C34.2114 197.09 34.4353 197.172 34.7319 197.28C35.3252 197.495 36.2091 197.811 37.3741 198.216C39.7041 199.026 43.1581 200.19 47.6582 201.61C56.6584 204.449 69.8433 208.312 86.5892 212.404C120.081 220.588 167.819 229.694 224.814 233.381C338.803 240.756 489.84 226.459 637.983 139.755C785.905 53.1801 936.728 38.8976 1050.58 46.2635C1107.51 49.9464 1155.19 59.041 1188.63 67.2142C1205.36 71.3007 1218.52 75.1568 1227.5 77.9905C1231.99 79.4074 1235.44 80.5686 1237.76 81.3753C1238.92 81.7787 1239.8 82.0933 1240.39 82.307C1240.68 82.4139 1240.9 82.4955 1241.05 82.5502L1241.22 82.6121L1241.27 82.6314C1241.27 82.6319 1241.27 82.6322 1241.31 82.5302C1241.34 82.4629 1241.38 82.3509 1241.45 82.1648C1241.63 81.697 1241.63 81.6965 1241.62 81.6955L1241.61 81.6914L1241.57 81.6754L1241.5 81.6503L1241.4 81.6124C1241.25 81.5569 1241.03 81.4745 1240.73 81.3669C1240.14 81.1518 1239.25 80.8356 1238.09 80.4308C1235.76 79.6211 1232.3 78.4567 1227.8 77.0369C1218.8 74.1971 1205.62 70.335 1188.87 66.2428C1155.38 58.0585 1107.64 48.9529 1050.65 45.2656C936.658 37.891 785.621 52.1879 637.478 138.892C489.556 225.467 338.733 239.749 224.879 232.383C167.952 228.7 120.272 219.606 86.8266 211.432C70.1039 207.346 56.9403 203.49 47.9591 200.656C43.4685 199.239 40.0236 198.078 37.7024 197.271C36.5417 196.868 35.662 196.553 35.0729 196.34C34.7784 196.233 34.5565 196.151 34.4085 196.096C34.3345 196.069 34.279 196.048 34.2421 196.035L34.2007 196.019L34.1906 196.015C34.1884 196.014 34.1874 196.014 34.0109 196.482Z" fill="url(#paint5_radial_4173_93969)" fill-opacity="0.45"/>
<path d="M40.5416 205.531C40.5391 205.53 40.5377 205.53 40.7143 205.062C40.8908 204.594 40.8918 204.595 40.894 204.595L40.9041 204.599L40.9455 204.615C40.9824 204.629 41.0379 204.649 41.1119 204.677C41.2599 204.731 41.4818 204.813 41.7763 204.92C42.3654 205.133 43.2451 205.448 44.4058 205.852C46.727 206.658 50.1719 207.819 54.6625 209.236C63.6437 212.07 76.8073 215.926 93.53 220.013C126.976 228.186 174.655 237.28 231.582 240.963C345.437 248.329 496.259 234.047 644.181 147.472C792.324 60.7681 943.361 46.4712 1057.35 53.8458C1114.35 57.5331 1162.08 66.6386 1195.58 74.823C1212.32 78.9152 1225.51 82.7774 1234.51 85.6171C1239.01 87.037 1242.46 88.2012 1244.79 89.0109C1245.96 89.4158 1246.84 89.732 1247.43 89.9471C1247.73 90.0548 1247.95 90.1371 1248.1 90.1926L1248.21 90.2306L1248.27 90.2556L1248.32 90.2717L1248.33 90.2757C1248.33 90.2759 1248.33 90.2761 1248.33 90.2818L1248.32 90.2936L1248.31 90.3169C1248.3 90.3682 1248.25 90.4836 1248.15 90.745C1247.98 91.2128 1247.98 91.2125 1247.97 91.2116L1247.92 91.1923L1247.76 91.1304C1247.61 91.0756 1247.39 90.994 1247.09 90.8872C1246.5 90.6736 1245.62 90.3589 1244.46 89.9555C1242.14 89.1488 1238.7 87.9876 1234.21 86.5707C1225.22 83.737 1212.06 79.881 1195.34 75.7944C1161.89 67.6212 1114.21 58.5266 1057.29 54.8437C943.431 47.4778 792.609 61.7603 644.686 148.335C496.544 235.039 345.506 249.336 231.517 241.961C174.522 238.274 126.784 229.168 93.2926 220.984C76.5467 216.892 63.3618 213.03 54.3616 210.19C49.8615 208.77 46.4075 207.606 44.0775 206.796C42.9125 206.391 42.0286 206.075 41.4354 205.86C41.1387 205.752 40.9148 205.67 40.7648 205.614C40.6898 205.587 40.6333 205.566 40.5954 205.551L40.5525 205.535L40.5416 205.531Z" fill="url(#paint6_radial_4173_93969)" fill-opacity="0.45"/>
<path d="M47.4177 213.642C47.2411 214.109 47.2425 214.11 47.245 214.111L47.2559 214.115L47.2988 214.131C47.3367 214.145 47.3932 214.166 47.4682 214.194C47.6182 214.25 47.8422 214.332 48.1388 214.44C48.732 214.655 49.616 214.971 50.7809 215.376C53.1109 216.185 56.5649 217.35 61.065 218.77C70.0652 221.609 83.2501 225.471 99.996 229.564C133.487 237.748 181.226 246.854 238.221 250.541C352.21 257.915 503.247 243.619 651.39 156.915C799.312 70.34 950.135 56.0575 1063.99 63.4234C1120.92 67.1063 1168.6 76.2009 1202.04 84.3741C1218.76 88.4606 1231.93 92.3167 1240.91 95.1504C1245.4 96.5673 1248.84 97.7285 1251.17 98.5352C1252.33 98.9386 1253.21 99.2532 1253.79 99.4669L1253.99 99.5382L1254.18 99.6086C1254.29 99.6489 1254.39 99.6829 1254.46 99.7101L1254.63 99.7719L1254.68 99.7913C1254.68 99.7921 1254.68 99.7925 1254.86 99.3247C1255.03 98.8569 1255.03 98.8564 1255.03 98.8554L1255.02 98.8513L1254.98 98.8352L1254.91 98.8102L1254.81 98.7723C1254.72 98.7417 1254.62 98.703 1254.49 98.6563C1254.39 98.6183 1254.27 98.5751 1254.14 98.5268C1253.74 98.3825 1253.21 98.1927 1252.55 97.9611C1252.23 97.8475 1251.88 97.7239 1251.49 97.5906C1249.16 96.7809 1245.71 95.6166 1241.21 94.1968C1232.21 91.357 1219.02 87.4949 1202.28 83.4027C1168.79 75.2183 1121.05 66.1128 1064.05 62.4255C950.065 55.051 799.028 69.3478 650.885 156.052C502.963 242.626 352.14 256.909 238.285 249.543C181.359 245.86 133.679 236.766 100.233 228.592C83.5107 224.506 70.3471 220.65 61.3659 217.816C56.8754 216.399 53.4305 215.238 51.1092 214.431C49.9486 214.028 49.0688 213.713 48.4798 213.499C48.1852 213.393 47.9633 213.311 47.8154 213.256C47.7414 213.229 47.6858 213.208 47.6489 213.194L47.6076 213.179L47.5974 213.175C47.5952 213.174 47.5942 213.174 47.4177 213.642Z" fill="url(#paint7_radial_4173_93969)" fill-opacity="0.45"/>
<path d="M53.9485 222.691C53.9459 222.69 53.9446 222.69 54.1211 222.222C54.2977 221.754 54.2987 221.755 54.3009 221.755L54.311 221.759L54.3524 221.775C54.3893 221.788 54.4448 221.809 54.5188 221.837C54.6668 221.891 54.8887 221.973 55.1832 222.08C55.7723 222.293 56.652 222.608 57.8127 223.011C60.1339 223.818 63.5788 224.979 68.0694 226.396C77.0505 229.23 90.2142 233.086 106.937 237.173C140.383 245.346 188.062 254.44 244.989 258.123C358.843 265.489 509.666 251.207 657.588 164.632C805.731 77.928 956.768 63.6312 1070.76 71.0057C1127.75 74.693 1175.49 83.7985 1208.98 91.9829C1225.73 96.0751 1238.91 99.9372 1247.91 102.777C1252.41 104.197 1255.87 105.361 1258.2 106.171C1258.78 106.373 1259.29 106.552 1259.73 106.709C1260.17 106.866 1260.54 106.999 1260.84 107.107C1261.14 107.215 1261.36 107.297 1261.51 107.353L1261.61 107.39L1261.68 107.415L1261.72 107.432L1261.73 107.436C1261.74 107.437 1261.74 107.437 1261.56 107.905C1261.38 108.373 1261.38 108.372 1261.38 108.371L1261.33 108.352L1261.16 108.29C1261.01 108.236 1260.79 108.154 1260.5 108.047C1259.91 107.833 1259.03 107.519 1257.87 107.115C1255.55 106.309 1252.1 105.147 1247.61 103.731C1238.63 100.897 1225.47 97.0408 1208.74 92.9543C1175.3 84.7811 1127.62 75.6865 1070.69 72.0036C956.838 64.6378 806.015 78.9202 658.093 165.495C509.95 252.199 358.913 266.496 244.924 259.121C187.929 255.434 140.191 246.328 106.7 238.144C89.9536 234.052 76.7687 230.19 67.7685 227.35C63.2684 225.93 59.8144 224.766 57.4844 223.956C56.3194 223.551 55.4355 223.235 54.8422 223.02C54.5456 222.912 54.3217 222.83 54.1717 222.774C54.0967 222.747 54.0402 222.726 54.0023 222.711L53.9594 222.695L53.9485 222.691Z" fill="url(#paint8_radial_4173_93969)" fill-opacity="0.45"/>
<path d="M60.8246 230.802C60.648 231.27 60.6493 231.27 60.6519 231.271L60.6628 231.276L60.7057 231.292C60.7436 231.306 60.8001 231.327 60.8751 231.355C61.0251 231.41 61.249 231.492 61.5457 231.6C62.1389 231.815 63.0228 232.131 64.1878 232.536C66.5178 233.346 69.9718 234.51 74.4719 235.93C83.4721 238.77 96.657 242.632 113.403 246.724C146.894 254.908 194.632 264.014 251.628 267.701C365.617 275.076 516.654 260.779 664.797 174.075C812.719 87.5005 963.541 73.218 1077.4 80.5838C1134.32 84.2668 1182 93.3614 1215.45 101.535C1232.17 105.621 1245.33 109.477 1254.32 112.311C1258.81 113.728 1262.25 114.889 1264.57 115.696C1265.73 116.099 1266.61 116.414 1267.2 116.627C1267.5 116.734 1267.72 116.816 1267.87 116.871L1268.03 116.932L1268.08 116.952C1268.09 116.953 1268.09 116.953 1268.26 116.485C1268.44 116.017 1268.44 116.017 1268.44 116.016L1268.43 116.012L1268.38 115.996L1268.32 115.971L1268.21 115.933L1267.98 115.846L1267.82 115.79L1267.54 115.687C1266.95 115.472 1266.07 115.156 1264.9 114.751C1262.57 113.941 1259.12 112.777 1254.62 111.357C1245.62 108.518 1232.43 104.655 1215.69 100.563C1182.19 92.3788 1134.46 83.2733 1077.46 79.586C963.472 72.2114 812.434 86.5082 664.292 173.212C516.369 259.787 365.547 274.069 251.692 266.703C194.766 263.021 147.086 253.926 113.64 245.753C96.9176 241.666 83.754 237.81 74.7728 234.976C70.2822 233.56 66.8373 232.398 64.5161 231.592C63.3554 231.188 62.4757 230.874 61.8866 230.66C61.5921 230.553 61.3702 230.472 61.2222 230.417C61.1482 230.389 61.0927 230.369 61.0558 230.355L61.0144 230.339L61.0043 230.336C61.0021 230.335 61.0011 230.334 60.8246 230.802Z" fill="url(#paint9_radial_4173_93969)" fill-opacity="0.45"/>
<path d="M67.3553 239.851C67.3528 239.85 67.3514 239.85 67.528 239.382C67.7045 238.914 67.7055 238.914 67.7077 238.915L67.7179 238.919L67.7592 238.935C67.7961 238.948 67.8517 238.969 67.9257 238.996C68.0736 239.051 68.2955 239.133 68.5901 239.24C69.1791 239.453 70.0589 239.768 71.2195 240.171C73.5408 240.978 76.9856 242.139 81.4762 243.556C90.4574 246.39 103.621 250.246 120.344 254.332C153.79 262.506 201.469 271.6 258.396 275.283C372.25 282.649 523.073 268.367 670.995 181.792C819.138 95.0879 970.175 80.7911 1084.16 88.1657C1141.16 91.853 1188.9 100.959 1222.39 109.143C1239.13 113.235 1252.32 117.097 1261.32 119.937C1265.82 121.357 1269.27 122.521 1271.6 123.331C1272.77 123.736 1273.65 124.052 1274.25 124.267C1274.54 124.375 1274.77 124.457 1274.92 124.512L1275.02 124.55L1275.09 124.575L1275.13 124.592L1275.14 124.596C1275.14 124.596 1275.14 124.596 1275.12 124.65C1275.1 124.707 1275.06 124.824 1274.97 125.065C1274.79 125.533 1274.79 125.532 1274.79 125.531L1274.74 125.512L1274.57 125.45C1274.48 125.417 1274.36 125.374 1274.22 125.322C1274.13 125.287 1274.02 125.249 1273.91 125.207C1273.32 124.993 1272.44 124.679 1271.28 124.275C1268.95 123.469 1265.51 122.307 1261.02 120.891C1252.04 118.057 1238.87 114.201 1222.15 110.114C1188.71 101.941 1141.03 92.8465 1084.1 89.1635C970.245 81.7977 819.422 96.0801 671.5 182.655C523.357 269.359 372.32 283.656 258.331 276.281C201.336 272.594 153.598 263.488 120.106 255.304C103.36 251.212 90.1755 247.349 81.1753 244.51C76.6752 243.09 73.2212 241.926 70.8912 241.116C69.7263 240.711 68.8423 240.395 68.2491 240.18C67.9525 240.072 67.7285 239.99 67.5785 239.934C67.5035 239.906 67.447 239.885 67.4091 239.871L67.3662 239.855L67.3553 239.851Z" fill="url(#paint10_radial_4173_93969)" fill-opacity="0.45"/>
<path d="M74.2314 247.962C74.0549 248.43 74.0562 248.43 74.0588 248.431L74.0697 248.435L74.1126 248.451C74.1505 248.466 74.207 248.487 74.282 248.514C74.432 248.57 74.6559 248.652 74.9525 248.76C75.5458 248.975 76.4297 249.291 77.5947 249.696C79.9247 250.506 83.3787 251.67 87.8788 253.09C96.879 255.93 110.064 259.792 126.81 263.884C160.301 272.068 208.039 281.174 265.035 284.861C379.024 292.236 530.061 277.939 678.204 191.235C826.126 104.66 976.948 90.3779 1090.8 97.7437C1147.73 101.427 1195.41 110.521 1228.85 118.694C1245.58 122.781 1258.74 126.637 1267.72 129.471C1272.21 130.888 1275.66 132.049 1277.98 132.856C1279.14 133.259 1280.02 133.574 1280.61 133.787C1280.9 133.894 1281.12 133.976 1281.27 134.03L1281.44 134.092L1281.49 134.112C1281.49 134.112 1281.49 134.112 1281.49 134.106C1281.5 134.098 1281.51 134.079 1281.52 134.035C1281.55 133.971 1281.59 133.856 1281.67 133.645C1281.73 133.494 1281.77 133.391 1281.79 133.322L1281.81 133.266L1281.83 133.229C1281.83 133.211 1281.84 133.2 1281.84 133.192C1281.84 133.176 1281.84 133.176 1281.84 133.176L1281.83 133.172L1281.79 133.156L1281.72 133.131L1281.62 133.093C1281.47 133.037 1281.25 132.955 1280.95 132.847C1280.36 132.632 1279.47 132.316 1278.31 131.911C1275.98 131.101 1272.52 129.937 1268.02 128.517C1259.02 125.677 1245.84 121.815 1229.09 117.723C1195.6 109.539 1147.86 100.433 1090.87 96.7458C976.878 89.3713 825.841 103.668 677.698 190.372C529.776 276.947 378.954 291.229 265.099 283.863C208.173 280.18 160.493 271.086 127.047 262.913C110.324 258.826 97.1608 254.97 88.1797 252.136C83.6891 250.719 80.2442 249.558 77.923 248.752C76.7623 248.348 75.8826 248.034 75.2935 247.82C74.999 247.713 74.7771 247.631 74.6291 247.577C74.5551 247.549 74.4996 247.529 74.4627 247.515L74.4213 247.499L74.4111 247.495C74.409 247.495 74.408 247.494 74.2314 247.962Z" fill="url(#paint11_radial_4173_93969)" fill-opacity="0.45"/>
<path d="M80.7622 257.011C80.7597 257.01 80.7583 257.01 80.9349 256.542C81.1114 256.074 81.1124 256.075 81.1146 256.075L81.1247 256.079L81.1661 256.095C81.203 256.109 81.2585 256.129 81.3325 256.157C81.4805 256.211 81.7024 256.293 81.9969 256.4C82.586 256.613 83.4657 256.928 84.6264 257.331C86.9476 258.138 90.3925 259.299 94.8831 260.716C103.864 263.55 117.028 267.406 133.751 271.493C167.196 279.666 214.876 288.76 271.803 292.443C385.657 299.809 536.48 285.527 684.402 198.952C832.545 112.248 983.582 97.9512 1097.57 105.326C1154.57 109.013 1202.3 118.119 1235.8 126.303C1252.54 130.395 1265.73 134.257 1274.73 137.097C1279.23 138.517 1282.68 139.681 1285.01 140.491C1286.18 140.896 1287.06 141.212 1287.65 141.427C1287.95 141.535 1288.17 141.617 1288.32 141.673L1288.43 141.711L1288.49 141.736L1288.54 141.752L1288.55 141.756C1288.55 141.757 1288.55 141.757 1288.37 142.225C1288.2 142.693 1288.2 142.692 1288.19 142.692L1288.14 142.672L1287.98 142.61C1287.83 142.556 1287.61 142.474 1287.31 142.367C1286.72 142.154 1285.84 141.839 1284.68 141.436C1282.36 140.629 1278.92 139.468 1274.43 138.051C1265.44 135.217 1252.28 131.361 1235.56 127.274C1202.11 119.101 1154.43 110.007 1097.51 106.324C983.652 98.9578 832.829 113.24 684.907 199.815C536.764 286.519 385.727 300.816 271.738 293.441C214.743 289.754 167.005 280.648 133.513 272.464C116.767 268.372 103.582 264.51 94.5822 261.67C90.0821 260.25 86.6281 259.086 84.2981 258.276C83.1331 257.871 82.2492 257.555 81.656 257.34C81.3593 257.232 81.1354 257.15 80.9854 257.094C80.9104 257.067 80.8539 257.046 80.816 257.031L80.7622 257.011Z" fill="url(#paint12_radial_4173_93969)" fill-opacity="0.45"/>
<path d="M87.6383 265.122C87.4617 265.59 87.4631 265.59 87.4656 265.591L87.5194 265.611C87.5573 265.626 87.6138 265.647 87.6888 265.674C87.8388 265.73 88.0628 265.812 88.3594 265.92C88.9526 266.135 89.8366 266.451 91.0015 266.856C93.3315 267.666 96.7855 268.83 101.286 270.25C110.286 273.09 123.471 276.952 140.217 281.044C173.708 289.228 221.446 298.334 278.441 302.021C392.43 309.396 543.468 295.099 691.61 208.395C839.533 121.82 990.355 107.538 1104.21 114.904C1161.14 118.587 1208.82 127.681 1242.26 135.854C1258.98 139.941 1272.15 143.797 1281.13 146.631C1285.62 148.048 1289.06 149.209 1291.39 150.016C1292.55 150.419 1293.43 150.734 1294.02 150.947C1294.31 151.054 1294.53 151.136 1294.68 151.19L1294.85 151.252L1294.9 151.272C1294.9 151.272 1294.9 151.272 1294.91 151.242C1294.93 151.198 1294.97 151.086 1295.08 150.805C1295.15 150.624 1295.19 150.513 1295.21 150.445C1295.25 150.337 1295.25 150.336 1295.25 150.336L1295.24 150.332L1295.2 150.316L1295.13 150.29L1295.03 150.253C1294.88 150.197 1294.65 150.115 1294.36 150.007C1293.76 149.792 1292.88 149.476 1291.71 149.071C1289.38 148.261 1285.93 147.097 1281.43 145.677C1272.43 142.837 1259.24 138.975 1242.5 134.883C1209.01 126.699 1161.27 117.593 1104.27 113.906C990.285 106.531 839.248 120.828 691.105 207.532C543.183 294.107 392.361 308.389 278.506 301.023C221.579 297.34 173.9 288.246 140.454 280.073C123.731 275.986 110.568 272.13 101.587 269.296C97.0959 267.879 93.6511 266.718 91.3298 265.911C90.1692 265.508 89.2894 265.193 88.7003 264.98C88.4058 264.873 88.1839 264.791 88.0359 264.737C87.962 264.709 87.9064 264.688 87.8695 264.675L87.8282 264.659L87.818 264.655C87.8158 264.655 87.8148 264.654 87.6383 265.122Z" fill="url(#paint13_radial_4173_93969)" fill-opacity="0.45"/>
<path d="M94.169 274.171C94.1665 274.17 94.1651 274.17 94.3417 273.702C94.5182 273.234 94.5192 273.235 94.5214 273.235L94.5316 273.239L94.5729 273.255C94.6098 273.268 94.6654 273.289 94.7394 273.316C94.8873 273.371 95.1092 273.453 95.4038 273.56C95.9928 273.773 96.8726 274.088 98.0332 274.491C100.354 275.298 103.799 276.459 108.29 277.876C117.271 280.71 130.435 284.566 147.157 288.652C180.603 296.826 228.283 305.92 285.209 309.603C399.064 316.969 549.887 302.687 697.809 216.112C845.952 129.408 996.989 115.111 1110.98 122.486C1167.97 126.173 1215.71 135.279 1249.2 143.463C1265.95 147.555 1279.13 151.417 1288.13 154.257C1292.63 155.677 1296.09 156.841 1298.42 157.651C1299.58 158.056 1300.47 158.372 1301.06 158.587C1301.36 158.695 1301.58 158.777 1301.73 158.833L1301.83 158.87L1301.9 158.895L1301.94 158.912L1301.95 158.916C1301.96 158.917 1301.96 158.917 1301.78 159.385C1301.6 159.853 1301.6 159.852 1301.6 159.852L1301.55 159.832L1301.38 159.77C1301.3 159.74 1301.19 159.701 1301.07 159.654L1300.9 159.592L1300.72 159.527C1300.13 159.313 1299.25 158.999 1298.09 158.595C1295.77 157.789 1292.32 156.628 1287.83 155.211C1278.85 152.377 1265.69 148.521 1248.97 144.434C1215.52 136.261 1167.84 127.167 1110.91 123.484C997.058 116.118 846.236 130.4 698.314 216.975C550.171 303.679 399.134 317.976 285.145 310.601C228.15 306.914 180.411 297.808 146.92 289.624C130.174 285.532 116.989 281.67 107.989 278.83C103.489 277.41 100.035 276.246 97.7049 275.436C96.54 275.031 95.656 274.715 95.0628 274.5C94.7662 274.392 94.5422 274.31 94.3922 274.254C94.3172 274.227 94.2607 274.205 94.2228 274.191L94.169 274.171Z" fill="url(#paint14_radial_4173_93969)" fill-opacity="0.45"/>
<path d="M101.045 282.282C100.869 282.75 100.87 282.75 100.872 282.751L100.926 282.771C100.964 282.785 101.021 282.807 101.096 282.834C101.246 282.89 101.47 282.972 101.766 283.08C102.359 283.295 103.243 283.611 104.408 284.016C106.738 284.826 110.192 285.99 114.692 287.41C123.693 290.25 136.878 294.112 153.624 298.204C187.115 306.388 234.853 315.494 291.848 319.181C405.837 326.556 556.874 312.259 705.017 225.555C852.939 138.98 1003.76 124.698 1117.62 132.064C1174.54 135.746 1222.22 144.841 1255.67 153.014C1272.39 157.101 1285.55 160.957 1294.54 163.791C1299.03 165.207 1302.47 166.369 1304.79 167.175C1305.51 167.424 1306.12 167.639 1306.62 167.817L1306.9 167.92L1307.07 167.981C1307.2 168.026 1307.32 168.068 1307.42 168.107L1307.64 168.187L1307.83 168.255C1307.93 168.292 1308.02 168.324 1308.09 168.35L1308.25 168.412L1308.3 168.431C1308.31 168.432 1308.31 168.433 1308.48 167.965C1308.66 167.497 1308.66 167.497 1308.66 167.496L1308.65 167.492L1308.6 167.475L1308.54 167.45L1308.43 167.413C1308.28 167.357 1308.06 167.275 1307.76 167.167C1307.17 166.952 1306.29 166.636 1305.12 166.231C1302.79 165.421 1299.34 164.257 1294.84 162.837C1285.84 159.997 1272.65 156.135 1255.91 152.043C1222.41 143.859 1174.68 134.753 1117.68 131.066C1003.69 123.691 852.655 137.988 704.512 224.692C556.59 311.267 405.767 325.549 291.913 318.183C234.986 314.5 187.307 305.406 153.861 297.232C137.138 293.146 123.975 289.29 114.993 286.456C110.503 285.039 107.058 283.878 104.737 283.071C103.576 282.668 102.696 282.353 102.107 282.14C101.813 282.033 101.591 281.951 101.443 281.896C101.369 281.869 101.313 281.848 101.276 281.835L101.235 281.819L101.225 281.815C101.223 281.814 101.222 281.814 101.045 282.282Z" fill="url(#paint15_radial_4173_93969)" fill-opacity="0.45"/>
<path d="M107.576 291.331C107.573 291.33 107.572 291.33 107.749 290.862C107.925 290.394 107.926 290.395 107.928 290.395L107.938 290.399L107.98 290.415C108.017 290.429 108.072 290.449 108.146 290.477C108.294 290.531 108.516 290.613 108.811 290.72C109.4 290.934 110.279 291.248 111.44 291.652C113.761 292.458 117.206 293.62 121.697 295.036C130.678 297.87 143.842 301.726 160.564 305.813C194.01 313.986 241.69 323.08 298.616 326.763C412.471 334.129 563.293 319.847 711.216 233.272C859.358 146.568 1010.4 132.271 1124.38 139.646C1181.38 143.333 1229.12 152.439 1262.61 160.623C1279.36 164.715 1292.54 168.577 1301.54 171.417C1306.04 172.837 1309.49 174.001 1311.82 174.811C1312.99 175.216 1313.87 175.532 1314.47 175.747C1314.66 175.819 1314.83 175.879 1314.96 175.928L1315.14 175.993L1315.24 176.031L1315.31 176.056L1315.35 176.072L1315.36 176.076C1315.36 176.077 1315.36 176.077 1315.19 176.545C1315.01 177.013 1315.01 177.012 1315.01 177.012L1314.96 176.992L1314.79 176.931L1314.64 176.875L1314.42 176.796C1314.33 176.763 1314.24 176.727 1314.13 176.687C1313.54 176.474 1312.66 176.159 1311.5 175.756C1309.17 174.949 1305.73 173.788 1301.24 172.371C1292.26 169.537 1279.09 165.681 1262.37 161.594C1228.93 153.421 1181.25 144.327 1124.32 140.644C1010.47 133.278 859.643 147.56 711.721 234.135C563.578 320.839 412.541 335.136 298.552 327.761C241.556 324.074 193.818 314.968 160.327 306.784C143.581 302.692 130.396 298.83 121.396 295.99C116.896 294.57 113.442 293.406 111.112 292.596C109.947 292.191 109.063 291.875 108.47 291.66C108.173 291.552 107.949 291.47 107.799 291.414C107.724 291.387 107.668 291.366 107.63 291.352L107.576 291.331Z" fill="url(#paint16_radial_4173_93969)" fill-opacity="0.45"/>
<path d="M114.452 299.442C114.275 299.91 114.277 299.91 114.279 299.911L114.333 299.931C114.371 299.946 114.428 299.967 114.503 299.994C114.653 300.05 114.876 300.132 115.173 300.24C115.766 300.455 116.65 300.771 117.815 301.176C120.145 301.986 123.599 303.15 128.099 304.57C137.1 307.41 150.284 311.272 167.03 315.364C200.522 323.548 248.26 332.654 305.255 336.341C419.244 343.716 570.281 329.419 718.424 242.715C866.346 156.14 1017.17 141.858 1131.02 149.224C1187.95 152.907 1235.63 162.001 1269.08 170.174C1285.8 174.261 1298.96 178.117 1307.94 180.951C1312.43 182.368 1315.88 183.529 1318.2 184.336C1319.36 184.739 1320.24 185.054 1320.83 185.267C1321.12 185.374 1321.35 185.456 1321.49 185.51L1321.66 185.572L1321.71 185.592C1321.71 185.592 1321.71 185.592 1321.74 185.518C1321.77 185.455 1321.81 185.339 1321.89 185.125C1322.07 184.657 1322.07 184.657 1322.06 184.656L1322.05 184.652L1322.01 184.636L1321.94 184.611L1321.84 184.573C1321.69 184.517 1321.47 184.435 1321.17 184.327L1320.88 184.223C1320.74 184.173 1320.59 184.118 1320.43 184.06C1320.14 183.956 1319.81 183.84 1319.44 183.711C1319.16 183.612 1318.86 183.505 1318.53 183.391C1316.2 182.581 1312.74 181.417 1308.24 179.997C1299.24 177.157 1286.06 173.295 1269.31 169.203C1235.82 161.019 1188.08 151.913 1131.09 148.226C1017.1 140.851 866.062 155.148 717.919 241.852C569.997 328.427 419.174 342.709 305.32 335.343C248.393 331.66 200.714 322.566 167.268 314.393C150.545 310.306 137.381 306.45 128.4 303.616C123.91 302.199 120.465 301.038 118.144 300.232C116.983 299.828 116.103 299.514 115.514 299.3C115.22 299.193 114.998 299.111 114.85 299.057C114.776 299.029 114.72 299.009 114.683 298.995L114.642 298.979L114.632 298.975C114.63 298.975 114.629 298.974 114.452 299.442Z" fill="url(#paint17_radial_4173_93969)" fill-opacity="0.45"/>
<path d="M120.983 308.491C120.98 308.49 120.979 308.49 121.155 308.022C121.332 307.554 121.333 307.555 121.335 307.555L121.345 307.559L121.387 307.575C121.424 307.589 121.479 307.609 121.553 307.637C121.701 307.691 121.923 307.773 122.218 307.88C122.807 308.093 123.686 308.408 124.847 308.811C127.168 309.618 130.613 310.779 135.104 312.196C144.085 315.03 157.249 318.886 173.971 322.973C207.417 331.146 255.097 340.24 312.023 343.923C425.878 351.289 576.7 337.007 724.622 250.432C872.765 163.728 1023.8 149.431 1137.79 156.806C1194.79 160.493 1242.52 169.599 1276.02 177.783C1292.76 181.875 1305.95 185.737 1314.95 188.577C1319.45 189.997 1322.9 191.161 1325.23 191.971C1326.4 192.376 1327.28 192.692 1327.87 192.907C1328.17 193.015 1328.39 193.097 1328.54 193.153L1328.65 193.191L1328.71 193.216L1328.76 193.232L1328.77 193.236C1328.77 193.237 1328.77 193.237 1328.59 193.705C1328.42 194.173 1328.42 194.172 1328.41 194.172L1328.36 194.152L1328.2 194.09C1328.05 194.036 1327.83 193.954 1327.53 193.847C1326.94 193.634 1326.06 193.319 1324.9 192.916C1322.58 192.109 1319.14 190.948 1314.65 189.531C1305.67 186.697 1292.5 182.841 1275.78 178.754C1242.33 170.581 1194.65 161.487 1137.73 157.804C1023.87 150.438 873.05 164.72 725.128 251.295C576.985 337.999 425.948 352.296 311.959 344.921C254.963 341.234 207.225 332.128 173.734 323.944C156.988 319.852 143.803 315.99 134.803 313.15C130.303 311.73 126.849 310.566 124.519 309.756C123.354 309.351 122.47 309.035 121.877 308.82C121.58 308.712 121.356 308.63 121.206 308.574C121.131 308.547 121.074 308.526 121.037 308.511L120.983 308.491Z" fill="url(#paint18_radial_4173_93969)" fill-opacity="0.45"/>
<path d="M127.859 316.602C127.682 317.07 127.684 317.07 127.686 317.071L127.74 317.091C127.778 317.106 127.834 317.127 127.909 317.154C128.059 317.21 128.283 317.292 128.58 317.4C129.173 317.615 130.057 317.931 131.222 318.336C133.552 319.146 137.006 320.31 141.506 321.73C150.506 324.57 163.691 328.432 180.437 332.524C213.929 340.708 261.667 349.814 318.662 353.501C432.651 360.876 583.688 346.579 731.831 259.875C879.753 173.3 1030.58 159.018 1144.43 166.384C1201.36 170.067 1249.04 179.161 1282.48 187.334C1299.2 191.421 1312.37 195.277 1321.35 198.111C1325.84 199.528 1329.29 200.689 1331.61 201.495C1332.77 201.899 1333.65 202.213 1334.24 202.427C1334.53 202.534 1334.75 202.616 1334.9 202.67L1335.07 202.732L1335.12 202.752C1335.12 202.752 1335.12 202.753 1335.3 202.285C1335.4 202.016 1335.44 201.901 1335.46 201.852C1335.47 201.816 1335.47 201.816 1335.47 201.816L1335.46 201.812L1335.42 201.796L1335.35 201.77L1335.25 201.733C1335.1 201.677 1334.87 201.595 1334.58 201.487C1333.98 201.272 1333.1 200.956 1331.93 200.551C1329.6 199.741 1326.15 198.577 1321.65 197.157C1312.65 194.317 1299.47 190.455 1282.72 186.363C1249.23 178.179 1201.49 169.073 1144.49 165.386C1030.51 158.011 879.469 172.308 731.326 259.012C583.404 345.587 432.581 359.869 318.727 352.503C261.8 348.82 214.12 339.726 180.675 331.553C163.952 327.466 150.788 323.61 141.807 320.776C137.317 319.359 133.872 318.198 131.55 317.391C130.39 316.988 129.51 316.673 128.921 316.46C128.626 316.353 128.405 316.271 128.257 316.217C128.183 316.189 128.127 316.168 128.09 316.155L128.049 316.139L128.039 316.135C128.036 316.135 128.035 316.134 127.859 316.602Z" fill="url(#paint19_radial_4173_93969)" fill-opacity="0.45"/>
<path d="M134.39 325.651C134.387 325.65 134.386 325.65 134.562 325.182C134.739 324.714 134.74 324.714 134.742 324.715L134.752 324.719L134.794 324.735C134.83 324.748 134.886 324.769 134.96 324.797C135.108 324.851 135.33 324.933 135.624 325.04C136.213 325.253 137.093 325.568 138.254 325.971C140.575 326.778 144.02 327.939 148.511 329.356C157.492 332.19 170.655 336.046 187.378 340.132C220.824 348.306 268.504 357.4 325.43 361.083C439.285 368.449 590.107 354.167 738.029 267.592C886.172 180.888 1037.21 166.591 1151.2 173.966C1208.19 177.653 1255.93 186.759 1289.42 194.943C1306.17 199.035 1319.35 202.897 1328.35 205.737C1332.85 207.157 1336.31 208.321 1338.64 209.131C1339.8 209.536 1340.69 209.852 1341.28 210.067C1341.58 210.175 1341.8 210.257 1341.95 210.313L1342.05 210.35L1342.12 210.375L1342.16 210.392L1342.17 210.396C1342.18 210.397 1342.18 210.397 1342 210.865C1341.93 211.048 1341.89 211.159 1341.86 211.227C1341.82 211.332 1341.82 211.332 1341.82 211.332L1341.77 211.312L1341.6 211.25C1341.46 211.196 1341.23 211.114 1340.94 211.007C1340.35 210.793 1339.47 210.479 1338.31 210.075C1335.99 209.269 1332.54 208.108 1328.05 206.691C1319.07 203.857 1305.91 200.001 1289.19 195.914C1255.74 187.741 1208.06 178.647 1151.13 174.964C1037.28 167.598 886.457 181.88 738.534 268.455C590.392 355.159 439.354 369.456 325.365 362.081C268.37 358.394 220.632 349.288 187.141 341.104C170.395 337.012 157.21 333.15 148.21 330.31C143.71 328.89 140.256 327.726 137.926 326.916C136.761 326.511 135.877 326.195 135.283 325.98C134.987 325.872 134.763 325.79 134.613 325.734C134.538 325.707 134.481 325.685 134.443 325.671L134.39 325.651Z" fill="url(#paint20_radial_4173_93969)" fill-opacity="0.45"/>
<path d="M141.266 333.762C141.089 334.23 141.091 334.23 141.093 334.231L141.147 334.251C141.185 334.265 141.241 334.287 141.316 334.314C141.466 334.37 141.69 334.452 141.987 334.56C142.58 334.775 143.464 335.091 144.629 335.496C146.959 336.306 150.413 337.47 154.913 338.89C163.913 341.729 177.098 345.592 193.844 349.684C227.335 357.868 275.074 366.974 332.069 370.661C446.058 378.036 597.095 363.739 745.238 277.035C893.16 190.46 1043.98 176.178 1157.84 183.544C1214.76 187.226 1262.44 196.321 1295.89 204.494C1312.61 208.581 1325.78 212.437 1334.76 215.271C1339.25 216.687 1342.69 217.849 1345.01 218.655C1346.17 219.059 1347.05 219.373 1347.64 219.587C1347.94 219.694 1348.16 219.776 1348.31 219.83L1348.47 219.892L1348.53 219.911C1348.53 219.912 1348.53 219.913 1348.7 219.445C1348.88 218.977 1348.88 218.977 1348.88 218.976L1348.87 218.972L1348.82 218.955L1348.76 218.93L1348.65 218.892C1348.5 218.837 1348.28 218.755 1347.98 218.647C1347.58 218.5 1347.04 218.307 1346.37 218.071C1346.06 217.96 1345.71 217.84 1345.34 217.711C1343.01 216.901 1339.56 215.737 1335.06 214.317C1326.06 211.477 1312.87 207.615 1296.13 203.523C1262.64 195.339 1214.9 186.233 1157.9 182.546C1043.91 175.171 892.876 189.468 744.733 276.172C596.811 362.747 445.988 377.029 332.133 369.663C275.207 365.98 227.527 356.886 194.081 348.712C177.359 344.626 164.195 340.77 155.214 337.936C150.723 336.519 147.279 335.358 144.957 334.551C143.797 334.148 142.917 333.833 142.328 333.62C142.033 333.513 141.811 333.431 141.663 333.376C141.589 333.349 141.534 333.328 141.497 333.315L141.456 333.299L141.445 333.295C141.443 333.294 141.442 333.294 141.266 333.762Z" fill="url(#paint21_radial_4173_93969)" fill-opacity="0.45"/>
<defs>
<radialGradient id="paint0_radial_4173_93969" cx="0" cy="0" r="1" gradientUnits="userSpaceOnUse" gradientTransform="translate(674.599 186.513) rotate(148.804) scale(568.685 659.067)">
<stop stopColor="#E4E4E4"/>
<stop offset="1" stopColor="#4B26DA" stop-opacity="0"/>
</radialGradient>
<radialGradient id="paint1_radial_4173_93969" cx="0" cy="0" r="1" gradientUnits="userSpaceOnUse" gradientTransform="translate(674.599 186.513) rotate(148.804) scale(568.685 659.067)">
<stop stopColor="#E4E4E4"/>
<stop offset="1" stopColor="#4B26DA" stop-opacity="0"/>
</radialGradient>
<radialGradient id="paint2_radial_4173_93969" cx="0" cy="0" r="1" gradientUnits="userSpaceOnUse" gradientTransform="translate(674.599 186.513) rotate(148.804) scale(568.685 659.067)">
<stop stopColor="#E4E4E4"/>
<stop offset="1" stopColor="#4B26DA" stop-opacity="0"/>
</radialGradient>
<radialGradient id="paint3_radial_4173_93969" cx="0" cy="0" r="1" gradientUnits="userSpaceOnUse" gradientTransform="translate(674.599 186.513) rotate(148.804) scale(568.685 659.067)">
<stop stopColor="#E4E4E4"/>
<stop offset="1" stopColor="#4B26DA" stop-opacity="0"/>
</radialGradient>
<radialGradient id="paint4_radial_4173_93969" cx="0" cy="0" r="1" gradientUnits="userSpaceOnUse" gradientTransform="translate(674.599 186.513) rotate(148.804) scale(568.685 659.067)">
<stop stopColor="#E4E4E4"/>
<stop offset="1" stopColor="#4B26DA" stop-opacity="0"/>
</radialGradient>
<radialGradient id="paint5_radial_4173_93969" cx="0" cy="0" r="1" gradientUnits="userSpaceOnUse" gradientTransform="translate(674.599 186.513) rotate(148.804) scale(568.685 659.067)">
<stop stopColor="#E4E4E4"/>
<stop offset="1" stopColor="#4B26DA" stop-opacity="0"/>
</radialGradient>
<radialGradient id="paint6_radial_4173_93969" cx="0" cy="0" r="1" gradientUnits="userSpaceOnUse" gradientTransform="translate(674.599 186.513) rotate(148.804) scale(568.685 659.067)">
<stop stopColor="#E4E4E4"/>
<stop offset="1" stopColor="#4B26DA" stop-opacity="0"/>
</radialGradient>
<radialGradient id="paint7_radial_4173_93969" cx="0" cy="0" r="1" gradientUnits="userSpaceOnUse" gradientTransform="translate(674.599 186.513) rotate(148.804) scale(568.685 659.067)">
<stop stopColor="#E4E4E4"/>
<stop offset="1" stopColor="#4B26DA" stop-opacity="0"/>
</radialGradient>
<radialGradient id="paint8_radial_4173_93969" cx="0" cy="0" r="1" gradientUnits="userSpaceOnUse" gradientTransform="translate(674.599 186.513) rotate(148.804) scale(568.685 659.067)">
<stop stopColor="#E4E4E4"/>
<stop offset="1" stopColor="#4B26DA" stop-opacity="0"/>
</radialGradient>
<radialGradient id="paint9_radial_4173_93969" cx="0" cy="0" r="1" gradientUnits="userSpaceOnUse" gradientTransform="translate(674.599 186.513) rotate(148.804) scale(568.685 659.067)">
<stop stopColor="#E4E4E4"/>
<stop offset="1" stopColor="#4B26DA" stop-opacity="0"/>
</radialGradient>
<radialGradient id="paint10_radial_4173_93969" cx="0" cy="0" r="1" gradientUnits="userSpaceOnUse" gradientTransform="translate(674.599 186.513) rotate(148.804) scale(568.685 659.067)">
<stop stopColor="#E4E4E4"/>
<stop offset="1" stopColor="#4B26DA" stop-opacity="0"/>
</radialGradient>
<radialGradient id="paint11_radial_4173_93969" cx="0" cy="0" r="1" gradientUnits="userSpaceOnUse" gradientTransform="translate(674.599 186.513) rotate(148.804) scale(568.685 659.067)">
<stop stopColor="#E4E4E4"/>
<stop offset="1" stopColor="#4B26DA" stop-opacity="0"/>
</radialGradient>
<radialGradient id="paint12_radial_4173_93969" cx="0" cy="0" r="1" gradientUnits="userSpaceOnUse" gradientTransform="translate(674.599 186.513) rotate(148.804) scale(568.685 659.067)">
<stop stopColor="#E4E4E4"/>
<stop offset="1" stopColor="#4B26DA" stop-opacity="0"/>
</radialGradient>
<radialGradient id="paint13_radial_4173_93969" cx="0" cy="0" r="1" gradientUnits="userSpaceOnUse" gradientTransform="translate(674.599 186.513) rotate(148.804) scale(568.685 659.067)">
<stop stopColor="#E4E4E4"/>
<stop offset="1" stopColor="#4B26DA" stop-opacity="0"/>
</radialGradient>
<radialGradient id="paint14_radial_4173_93969" cx="0" cy="0" r="1" gradientUnits="userSpaceOnUse" gradientTransform="translate(674.599 186.513) rotate(148.804) scale(568.685 659.067)">
<stop stopColor="#E4E4E4"/>
<stop offset="1" stopColor="#4B26DA" stop-opacity="0"/>
</radialGradient>
<radialGradient id="paint15_radial_4173_93969" cx="0" cy="0" r="1" gradientUnits="userSpaceOnUse" gradientTransform="translate(674.599 186.513) rotate(148.804) scale(568.685 659.067)">
<stop stopColor="#E4E4E4"/>
<stop offset="1" stopColor="#4B26DA" stop-opacity="0"/>
</radialGradient>
<radialGradient id="paint16_radial_4173_93969" cx="0" cy="0" r="1" gradientUnits="userSpaceOnUse" gradientTransform="translate(674.599 186.513) rotate(148.804) scale(568.685 659.067)">
<stop stopColor="#E4E4E4"/>
<stop offset="1" stopColor="#4B26DA" stop-opacity="0"/>
</radialGradient>
<radialGradient id="paint17_radial_4173_93969" cx="0" cy="0" r="1" gradientUnits="userSpaceOnUse" gradientTransform="translate(674.599 186.513) rotate(148.804) scale(568.685 659.067)">
<stop stopColor="#E4E4E4"/>
<stop offset="1" stopColor="#4B26DA" stop-opacity="0"/>
</radialGradient>
<radialGradient id="paint18_radial_4173_93969" cx="0" cy="0" r="1" gradientUnits="userSpaceOnUse" gradientTransform="translate(674.599 186.513) rotate(148.804) scale(568.685 659.067)">
<stop stopColor="#E4E4E4"/>
<stop offset="1" stopColor="#4B26DA" stop-opacity="0"/>
</radialGradient>
<radialGradient id="paint19_radial_4173_93969" cx="0" cy="0" r="1" gradientUnits="userSpaceOnUse" gradientTransform="translate(674.599 186.513) rotate(148.804) scale(568.685 659.067)">
<stop stopColor="#E4E4E4"/>
<stop offset="1" stopColor="#4B26DA" stop-opacity="0"/>
</radialGradient>
<radialGradient id="paint20_radial_4173_93969" cx="0" cy="0" r="1" gradientUnits="userSpaceOnUse" gradientTransform="translate(674.599 186.513) rotate(148.804) scale(568.685 659.067)">
<stop stopColor="#E4E4E4"/>
<stop offset="1" stopColor="#4B26DA" stop-opacity="0"/>
</radialGradient>
<radialGradient id="paint21_radial_4173_93969" cx="0" cy="0" r="1" gradientUnits="userSpaceOnUse" gradientTransform="translate(674.599 186.513) rotate(148.804) scale(568.685 659.067)">
<stop stopColor="#E4E4E4"/>
<stop offset="1" stopColor="#4B26DA" stop-opacity="0"/>
</radialGradient>
</defs>
</svg>
