<svg width="40" height="40" viewBox="0 0 40 40" fill="none" xmlns="http://www.w3.org/2000/svg"><path d="M7.461 5.122 C 6.311 5.422,5.307 6.477,5.066 7.636 C 5.020 7.859,5.001 9.008,5.014 10.912 L 5.033 13.844 5.235 14.172 C 5.907 15.263,7.421 15.259,8.100 14.166 L 8.300 13.844 8.319 11.089 L 8.339 8.333 10.986 8.330 C 12.965 8.328,13.694 8.306,13.873 8.242 C 14.231 8.114,14.585 7.816,14.787 7.473 C 14.939 7.214,14.967 7.090,14.967 6.667 C 14.967 6.243,14.939 6.120,14.787 5.860 C 14.688 5.692,14.497 5.471,14.363 5.369 C 13.898 5.014,13.755 5.000,10.706 5.004 C 8.277 5.007,7.841 5.023,7.461 5.122 M26.117 5.101 C 25.747 5.237,25.416 5.515,25.213 5.860 C 25.061 6.120,25.033 6.243,25.033 6.667 C 25.033 7.093,25.061 7.213,25.218 7.481 C 25.320 7.654,25.507 7.875,25.635 7.972 C 26.090 8.319,26.166 8.327,29.014 8.330 L 31.661 8.333 31.681 11.089 L 31.700 13.844 31.902 14.172 C 32.573 15.263,34.088 15.259,34.767 14.166 L 34.967 13.844 34.986 10.927 C 35.007 7.760,34.984 7.492,34.636 6.805 C 34.410 6.360,33.828 5.749,33.362 5.468 C 32.632 5.029,32.443 5.008,29.233 5.009 C 26.967 5.009,26.314 5.029,26.117 5.101 M18.267 11.759 C 17.654 11.895,17.149 12.193,16.528 12.783 L 15.949 13.333 15.258 13.337 C 14.047 13.344,13.270 13.656,12.558 14.422 C 12.149 14.863,11.911 15.290,11.766 15.846 C 11.619 16.412,11.619 23.588,11.766 24.154 C 11.922 24.754,12.183 25.197,12.660 25.674 C 13.152 26.166,13.594 26.420,14.215 26.566 C 14.837 26.713,25.163 26.713,25.785 26.566 C 26.406 26.420,26.848 26.166,27.340 25.674 C 27.824 25.190,28.068 24.772,28.228 24.152 C 28.380 23.569,28.383 16.521,28.233 15.882 C 28.097 15.304,27.866 14.879,27.442 14.422 C 26.730 13.656,25.953 13.344,24.742 13.337 L 24.051 13.333 23.472 12.783 C 22.830 12.172,22.276 11.858,21.635 11.739 C 21.107 11.642,18.733 11.656,18.267 11.759 M21.541 15.563 C 22.443 16.422,23.064 16.667,24.337 16.667 L 25.000 16.667 25.000 20.000 L 25.000 23.333 20.000 23.333 L 15.000 23.333 15.000 20.000 L 15.000 16.667 15.663 16.667 C 16.938 16.667,17.563 16.420,18.451 15.565 L 19.033 15.005 19.991 15.003 L 20.949 15.000 21.541 15.563 M19.286 17.359 C 18.093 17.749,17.373 18.875,17.538 20.094 C 17.724 21.464,19.087 22.464,20.414 22.202 C 21.790 21.932,22.664 20.707,22.453 19.346 C 22.332 18.565,21.822 17.884,21.089 17.523 C 20.727 17.345,20.563 17.305,20.110 17.288 C 19.775 17.276,19.459 17.303,19.286 17.359 M6.117 25.101 C 5.747 25.237,5.416 25.515,5.213 25.860 L 5.033 26.167 5.014 29.093 C 4.993 32.250,5.008 32.434,5.336 33.129 C 5.580 33.643,6.285 34.372,6.782 34.624 C 7.475 34.975,7.723 34.998,10.800 34.996 C 12.933 34.995,13.692 34.973,13.873 34.909 C 14.231 34.780,14.585 34.483,14.787 34.140 C 14.939 33.880,14.967 33.757,14.967 33.333 C 14.967 32.910,14.939 32.786,14.787 32.527 C 14.688 32.359,14.497 32.137,14.363 32.035 C 13.904 31.685,13.736 31.667,10.926 31.667 L 8.339 31.667 8.319 28.917 L 8.300 26.167 8.120 25.860 C 7.710 25.163,6.843 24.834,6.117 25.101 M32.784 25.101 C 32.414 25.237,32.083 25.515,31.880 25.860 L 31.700 26.167 31.681 28.917 L 31.661 31.667 29.039 31.667 C 26.195 31.667,26.107 31.676,25.629 32.041 C 25.499 32.140,25.312 32.359,25.213 32.527 C 25.061 32.786,25.033 32.910,25.033 33.333 C 25.033 33.760,25.061 33.880,25.218 34.148 C 25.320 34.321,25.507 34.542,25.635 34.639 C 26.093 34.988,26.151 34.994,29.200 34.996 C 32.277 34.998,32.525 34.975,33.218 34.624 C 33.665 34.398,34.398 33.665,34.625 33.217 C 34.985 32.505,35.007 32.257,34.986 29.078 L 34.967 26.167 34.787 25.860 C 34.377 25.163,33.510 24.834,32.784 25.101 " stroke="none" fill-rule="evenodd" fill="black"></path></svg>