<svg width="40" height="40" viewBox="0 0 40 40" fill="none" xmlns="http://www.w3.org/2000/svg"><path d="M18.467 3.408 C 15.343 3.684,12.269 4.912,9.667 6.924 C 8.342 7.948,6.692 9.807,5.783 11.300 C 3.498 15.055,2.777 19.564,3.779 23.833 C 4.146 25.400,5.030 27.530,5.839 28.800 C 6.798 30.304,8.294 31.984,9.600 33.023 C 11.932 34.876,14.609 36.034,17.667 36.511 C 18.744 36.679,21.256 36.679,22.333 36.511 C 25.393 36.034,28.052 34.883,30.401 33.021 C 31.701 31.990,33.202 30.305,34.161 28.800 C 34.898 27.642,35.780 25.583,36.137 24.186 C 36.798 21.598,36.832 18.775,36.234 16.233 C 35.670 13.838,34.630 11.673,33.078 9.667 C 32.516 8.941,31.064 7.490,30.333 6.924 C 26.889 4.258,22.744 3.029,18.467 3.408 M21.224 6.735 C 24.291 7.026,27.047 8.293,29.257 10.426 C 32.556 13.610,33.968 18.223,33.035 22.771 C 32.635 24.727,31.696 26.702,30.385 28.351 L 29.920 28.935 29.518 28.584 C 27.643 26.946,25.561 25.868,23.326 25.378 C 22.057 25.099,21.439 25.036,20.000 25.036 C 19.219 25.036,18.376 25.073,18.033 25.123 C 15.072 25.556,12.707 26.640,10.482 28.584 L 10.080 28.935 9.615 28.351 C 8.664 27.155,7.862 25.698,7.369 24.271 C 6.469 21.662,6.458 18.535,7.339 15.837 C 7.990 13.843,9.207 11.908,10.743 10.426 C 13.556 7.710,17.364 6.369,21.224 6.735 M18.931 10.102 C 17.050 10.395,15.239 11.623,14.282 13.254 C 12.200 16.804,13.721 21.308,17.521 22.840 C 20.930 24.214,24.795 22.564,26.173 19.146 C 26.816 17.550,26.817 15.782,26.175 14.194 C 25.287 11.996,23.335 10.448,21.008 10.097 C 20.239 9.982,19.694 9.983,18.931 10.102 M20.872 13.456 C 22.104 13.777,23.083 14.873,23.278 16.150 C 23.445 17.239,23.122 18.221,22.338 19.007 C 21.670 19.678,20.911 20.000,20.000 20.000 C 19.142 20.000,18.396 19.704,17.756 19.109 C 15.539 17.048,16.981 13.341,20.000 13.341 C 20.238 13.341,20.631 13.393,20.872 13.456 M21.210 28.404 C 23.352 28.622,25.297 29.418,26.885 30.725 L 27.341 31.099 27.194 31.218 C 26.670 31.643,24.925 32.437,23.789 32.768 C 22.334 33.191,21.623 33.289,20.000 33.289 C 18.377 33.289,17.666 33.191,16.211 32.768 C 15.072 32.436,13.330 31.643,12.802 31.215 L 12.652 31.094 13.117 30.718 C 15.358 28.907,18.194 28.096,21.210 28.404 " stroke="none" fill-rule="evenodd" fill="black"></path></svg>