<svg width="40" height="40" viewBox="0 0 40 40" fill="none" xmlns="http://www.w3.org/2000/svg"><path d="M11.467 20.000 L 11.467 32.733 15.195 32.733 L 18.924 32.733 18.951 30.183 C 18.982 27.298,18.997 27.192,19.498 26.167 C 20.030 25.080,20.805 24.304,21.900 23.764 C 22.938 23.251,22.973 23.246,25.900 23.204 L 28.500 23.167 28.518 21.309 C 28.534 19.555,28.529 19.454,28.418 19.502 C 27.750 19.785,27.106 19.955,26.600 19.982 C 23.451 20.152,21.206 16.860,22.518 13.995 C 23.058 12.813,24.223 11.866,25.453 11.608 C 26.290 11.432,27.461 11.559,28.132 11.900 C 28.314 11.991,28.478 12.067,28.498 12.067 C 28.517 12.067,28.533 10.987,28.533 9.667 L 28.533 7.267 20.000 7.267 L 11.467 7.267 11.467 20.000 " stroke="none" fill-rule="evenodd"></path></svg>