<svg width="40" height="40" viewBox="0 0 40 40" fill="none" xmlns="http://www.w3.org/2000/svg"><path d="M10.795 1.789 C 9.676 2.081,8.730 3.038,8.433 4.180 C 8.346 4.513,8.333 6.530,8.333 20.000 C 8.333 36.853,8.309 35.761,8.709 36.551 C 8.936 36.998,9.668 37.731,10.116 37.958 C 10.890 38.350,10.445 38.333,19.988 38.333 C 29.556 38.333,29.109 38.351,29.895 37.952 C 30.333 37.730,31.067 36.994,31.291 36.551 C 31.687 35.770,31.665 36.759,31.665 20.000 C 31.665 3.292,31.685 4.227,31.302 3.471 C 31.077 3.026,30.494 2.415,30.029 2.135 C 29.221 1.649,29.778 1.674,20.000 1.674 C 11.928 1.674,11.199 1.683,10.795 1.789 M28.333 20.000 L 28.333 35.000 20.000 35.000 L 11.667 35.000 11.667 20.000 L 11.667 5.000 20.000 5.000 L 28.333 5.000 28.333 20.000 M16.158 30.095 C 15.776 30.214,15.426 30.498,15.213 30.860 C 15.061 31.120,15.033 31.243,15.033 31.667 C 15.033 32.093,15.061 32.213,15.218 32.481 C 15.427 32.836,15.748 33.107,16.117 33.238 C 16.482 33.369,23.518 33.369,23.883 33.238 C 24.252 33.107,24.573 32.836,24.782 32.481 C 24.939 32.213,24.967 32.093,24.967 31.667 C 24.967 31.243,24.939 31.120,24.787 30.860 C 24.567 30.488,24.221 30.213,23.816 30.091 C 23.388 29.963,16.571 29.966,16.158 30.095 " stroke="none" fill-rule="evenodd" fill="black"></path></svg>