<svg width="56" height="56" viewBox="0 0 56 56" fill="none" xmlns="http://www.w3.org/2000/svg">
<rect width="56" height="56" rx="2" fill="white"/>
<path fill-rule="evenodd" clip-rule="evenodd" d="M13.8726 15.8641C14.7789 13.8701 16.767 12.59 18.9573 12.59H37.0303C39.2205 12.59 41.2087 13.8702 42.115 15.8641L43.1464 18.1331C43.2202 18.2956 43.2861 18.4612 43.3439 18.6293C43.5348 18.9097 43.6465 19.2484 43.6465 19.6132C43.6465 19.7605 43.6422 19.9086 43.6336 20.0571C43.6425 20.1858 43.647 20.315 43.647 20.4444V37.8321C43.647 40.9168 41.1464 43.4175 38.0617 43.4175H17.9259C14.8412 43.4175 12.3405 40.9168 12.3405 37.8321V20.4444C12.3405 20.3178 12.3448 20.1915 12.3534 20.0656C12.3444 19.9143 12.34 19.7633 12.34 19.6132C12.34 19.247 12.4525 18.9071 12.6448 18.6261C12.7023 18.4591 12.7678 18.2946 12.8412 18.1331L13.8726 15.8641ZM40.1182 20.099C40.0394 20.771 39.7995 21.3746 39.4502 21.8121C39.054 22.3083 38.4733 22.6575 37.5817 22.6575C35.8261 22.6575 34.5928 21.2146 34.5393 19.7148C34.5397 19.6809 34.54 19.6471 34.54 19.6133C34.54 18.6549 33.7695 17.8764 32.8142 17.8634L32.7875 17.8632C31.821 17.8632 31.0375 18.6467 31.0375 19.6132C31.0375 19.6497 31.0378 19.6862 31.0385 19.7227C31.0161 20.5225 30.7496 21.2606 30.3147 21.778C29.893 22.2797 29.2493 22.6575 28.2474 22.6575C26.2174 22.6575 24.95 21.0621 24.95 19.6133C24.95 18.6693 24.2026 17.8999 23.2672 17.8645C23.2446 17.8637 23.2219 17.8632 23.199 17.8632C22.2325 17.8632 21.449 18.6467 21.449 19.6132C21.449 21.1488 20.2 22.6575 18.4048 22.6575C17.5132 22.6575 16.9325 22.3083 16.5363 21.8121C16.1876 21.3754 15.948 20.7733 15.8687 20.1029C15.8985 19.9233 15.9518 19.748 16.0275 19.5815L17.0588 17.3124C17.3972 16.5679 18.1395 16.09 18.9573 16.09H37.0303C37.848 16.09 38.5903 16.5679 38.9287 17.3124L39.9601 19.5815C40.0353 19.7468 40.0883 19.9209 40.1182 20.099ZM32.883 24.1583C34.0215 25.3565 35.6358 26.1575 37.5817 26.1575C38.5358 26.1575 39.3956 25.9596 40.147 25.6091V37.8321C40.147 38.9838 39.2134 39.9175 38.0617 39.9175H34.0573V34.9534C34.0573 31.8687 31.5567 29.368 28.472 29.368H27.5131C24.4284 29.368 21.9277 31.8687 21.9277 34.9534V39.9175H17.9259C16.7742 39.9175 15.8405 38.9838 15.8405 37.8321V25.6096C16.5917 25.9598 17.4511 26.1575 18.4048 26.1575C20.4254 26.1575 22.0885 25.2938 23.2325 24.0185C24.433 25.3017 26.1736 26.1575 28.2474 26.1575C30.2064 26.1575 31.7926 25.3839 32.883 24.1583ZM25.4277 34.9534C25.4277 33.8017 26.3614 32.868 27.5131 32.868H28.472C29.6237 32.868 30.5573 33.8017 30.5573 34.9534V39.9153H25.4277V34.9534Z" fill="black"/>
</svg>
