<svg width="40" height="40" viewBox="0 0 40 40" fill="none" xmlns="http://www.w3.org/2000/svg"><path d="M7.898 3.398 C 5.868 3.701,4.109 5.270,3.520 7.304 L 3.367 7.833 3.367 20.000 L 3.367 32.167 3.520 32.696 C 4.047 34.518,5.482 35.953,7.304 36.480 L 7.833 36.633 20.000 36.633 L 32.167 36.633 32.696 36.480 C 34.510 35.955,35.955 34.510,36.480 32.696 L 36.633 32.167 36.633 20.000 L 36.633 7.833 36.480 7.304 C 35.959 5.504,34.548 4.084,32.721 3.519 L 32.233 3.368 20.233 3.358 C 13.633 3.353,8.083 3.371,7.898 3.398 M32.075 6.842 C 32.517 7.047,32.901 7.421,33.115 7.856 L 33.300 8.233 33.300 20.000 L 33.300 31.767 33.113 32.148 C 32.883 32.615,32.441 33.017,31.957 33.198 C 31.598 33.332,31.495 33.333,20.000 33.333 C 8.505 33.333,8.402 33.332,8.043 33.198 C 7.559 33.017,7.117 32.615,6.887 32.148 L 6.700 31.767 6.700 20.000 L 6.700 8.233 6.840 7.930 C 7.113 7.341,7.602 6.918,8.197 6.757 C 8.433 6.693,11.082 6.678,20.133 6.687 L 31.767 6.700 32.075 6.842 M11.943 10.071 C 11.444 10.272,11.133 10.718,11.133 11.233 C 11.133 11.855,11.519 12.329,12.131 12.460 C 12.611 12.563,27.389 12.563,27.869 12.460 C 28.261 12.376,28.639 12.082,28.777 11.753 C 29.000 11.218,28.799 10.534,28.327 10.221 L 28.043 10.033 20.072 10.020 C 15.163 10.013,12.040 10.032,11.943 10.071 M17.167 14.577 C 16.684 14.832,16.467 15.181,16.467 15.701 C 16.467 16.021,16.633 16.422,16.845 16.614 C 17.204 16.938,17.111 16.933,22.667 16.933 C 28.222 16.933,28.129 16.938,28.488 16.614 C 28.914 16.229,28.989 15.427,28.642 14.973 C 28.541 14.840,28.342 14.672,28.199 14.599 C 27.945 14.470,27.802 14.467,22.653 14.469 C 17.965 14.472,17.344 14.484,17.167 14.577 M12.462 24.757 C 12.002 24.882,11.552 25.175,11.349 25.482 L 11.167 25.756 11.146 27.250 C 11.127 28.671,11.133 28.758,11.272 29.044 C 11.361 29.227,11.537 29.432,11.725 29.568 C 12.345 30.018,11.999 30.000,20.000 30.000 C 28.001 30.000,27.655 30.018,28.275 29.568 C 28.463 29.432,28.639 29.227,28.728 29.044 C 28.867 28.758,28.873 28.671,28.854 27.244 L 28.833 25.744 28.631 25.456 C 28.486 25.250,28.297 25.100,27.971 24.933 L 27.514 24.700 20.140 24.687 C 14.437 24.677,12.698 24.693,12.462 24.757 " stroke="none" fill-rule="evenodd"></path></svg>