<svg width="40" height="40" viewBox="0 0 40 40" fill="none" xmlns="http://www.w3.org/2000/svg">
<path fill-rule="evenodd" clip-rule="evenodd" d="M32.3197 7.66993L33.5667 7.75594C33.5933 7.37091 33.4405 6.99521 33.1528 6.738C32.865 6.48079 32.4746 6.37092 32.095 6.4403L32.3197 7.66993ZM10.4572 30.497C10.4701 30.5075 10.4831 30.5181 10.4961 30.5286C12.9953 32.5518 16.3732 33.5695 19.9949 33.5695C23.2083 33.5695 25.6381 31.6851 27.4196 29.1954C29.1949 26.7142 30.4513 23.4743 31.3439 20.3367C32.2414 17.1819 32.7958 14.0402 33.1259 11.6957C33.2912 10.5212 33.4011 9.54136 33.4697 8.85317C33.5041 8.50897 33.5281 8.2374 33.5437 8.05057C33.5515 7.95714 33.5572 7.88487 33.5609 7.83527L33.5652 7.77805L33.5663 7.76253L33.5666 7.75811L33.5667 7.75674C33.5667 7.75629 33.5667 7.75594 32.3197 7.66993C32.095 6.4403 32.0947 6.44036 32.0942 6.44044L32.093 6.44067L32.0887 6.44146L32.0735 6.44427L32.0169 6.45489C31.9677 6.46418 31.8959 6.47792 31.8029 6.49611C31.617 6.53248 31.3464 6.58669 31.0032 6.65887C30.3171 6.80319 29.3399 7.01955 28.1683 7.30908C25.8289 7.88721 22.6973 8.76128 19.5551 9.94229C16.4277 11.1178 13.2161 12.6243 10.764 14.4929C8.33731 16.3422 6.42016 18.7322 6.42016 21.6947C6.42016 24.4603 7.25206 26.8182 8.69126 28.6858C8.27817 29.2308 7.92052 29.7246 7.62405 30.1459C7.30023 30.606 7.04867 30.9807 6.87685 31.2423C6.79092 31.3732 6.72488 31.4758 6.67966 31.5468C6.65705 31.5823 6.63964 31.6099 6.62754 31.6292L6.6134 31.6518L6.60935 31.6583L6.60808 31.6603L6.60764 31.661C6.60748 31.6613 6.60733 31.6615 7.60361 32.2783L6.60732 31.6616C6.24395 32.2485 6.42523 33.019 7.01221 33.3823C7.5991 33.7456 8.36935 33.5645 8.7328 32.9778L8.73298 32.9775L8.73299 32.9774L8.73497 32.9743L8.7449 32.9584C8.75416 32.9436 8.76865 32.9207 8.78827 32.8899C8.82751 32.8283 8.88722 32.7354 8.96648 32.6147C9.12502 32.3733 9.36154 32.0209 9.66857 31.5846C9.89462 31.2634 10.1585 30.8973 10.4572 30.497ZM12.0023 28.5309C12.0244 28.5492 12.0467 28.5674 12.0691 28.5855C14.0323 30.1747 16.8167 31.0695 19.9949 31.0695C22.094 31.0695 23.8609 29.8726 25.3864 27.7406C26.9181 25.6 28.0788 22.6775 28.9393 19.6527C29.7949 16.6452 30.3296 13.6245 30.6503 11.3471C30.7648 10.5337 30.8517 9.81787 30.9159 9.23468C30.3257 9.3641 29.5975 9.53111 28.7681 9.73607C26.4857 10.3001 23.455 11.1473 20.4347 12.2825C17.3998 13.4232 14.449 14.8279 12.2793 16.4813C10.0842 18.1542 8.92016 19.8973 8.92016 21.6947C8.92016 23.6532 9.42849 25.3067 10.3118 26.6544C10.3345 26.6274 10.3572 26.6003 10.3801 26.5732C12.7031 23.818 16.0134 20.4882 19.8351 18.465C20.4452 18.142 21.2016 18.3747 21.5247 18.9849C21.8477 19.595 21.6149 20.3515 21.0048 20.6745C17.6016 22.4762 14.537 25.5213 12.2914 28.1847C12.1933 28.301 12.0969 28.4165 12.0023 28.5309Z" fill="black"/>
</svg>
