<svg width="40" height="40" viewBox="0 0 40 40" fill="none" xmlns="http://www.w3.org/2000/svg">
<path fill-rule="evenodd" clip-rule="evenodd" d="M7.55746 11.4204C7.55746 11.1854 7.75313 10.9727 8.02199 10.9727H20.4951H32.9682C33.2371 10.9727 33.4328 11.1854 33.4328 11.4204V28.2402C33.4328 28.4751 33.2371 28.6878 32.9682 28.6878H21.7814C21.3105 27.2419 20.6236 25.7299 19.762 24.5003C19.3848 23.9621 18.923 23.4066 18.3788 22.9378C19.6767 22.0372 20.5295 20.5421 20.5295 18.8409C20.5295 16.0705 18.268 13.8468 15.5059 13.8468C12.7437 13.8468 10.4822 16.0705 10.4822 18.8409C10.4822 20.5421 11.335 22.0372 12.6328 22.9378C12.0887 23.4066 11.6267 23.962 11.2496 24.5003C10.388 25.7299 9.70104 27.2419 9.23021 28.6878H8.02199C7.75313 28.6878 7.55746 28.4751 7.55746 28.2402V11.4204ZM17.2541 26.2576C17.7358 26.9451 18.1712 27.7951 18.5268 28.6878H12.4848C12.8404 27.7951 13.2758 26.9451 13.7575 26.2576C14.5597 25.1128 15.1915 24.8243 15.5058 24.8243C15.8201 24.8243 16.4519 25.1128 17.2541 26.2576ZM8.02199 7.9104C6.08646 7.9104 4.49512 9.46962 4.49512 11.4204V28.2402C4.49512 30.1909 6.08645 31.7501 8.02199 31.7501H32.9682C34.9038 31.7501 36.4951 30.1909 36.4951 28.2402V11.4204C36.4951 9.46961 34.9038 7.9104 32.9682 7.9104H20.4951H8.02199ZM13.5446 18.8409C13.5446 17.7863 14.4104 16.9091 15.5059 16.9091C16.6014 16.9091 17.4672 17.7863 17.4672 18.8409C17.4672 19.8955 16.6014 20.7726 15.5059 20.7726C14.4104 20.7726 13.5446 19.8955 13.5446 18.8409ZM25.9833 15.8256C25.1376 15.8256 24.4521 16.5111 24.4521 17.3568C24.4521 18.2024 25.1376 18.8879 25.9833 18.8879H28.9768C29.8225 18.8879 30.508 18.2024 30.508 17.3568C30.508 16.5111 29.8225 15.8256 28.9768 15.8256H25.9833ZM25.9833 21.762C25.1376 21.762 24.4521 22.4475 24.4521 23.2932C24.4521 24.1388 25.1376 24.8243 25.9833 24.8243H28.9768C29.8225 24.8243 30.508 24.1388 30.508 23.2932C30.508 22.4475 29.8225 21.762 28.9768 21.762H25.9833Z" fill="black"/>
</svg>
