<svg width="40" height="40" viewBox="0 0 40 40" fill="none" xmlns="http://www.w3.org/2000/svg">
<path fill-rule="evenodd" clip-rule="evenodd" d="M6.10015 7.96755C6.96593 6.06285 8.86507 4.83997 10.9573 4.83997H29.0303C31.1225 4.83997 33.0216 6.06285 33.8874 7.96754L34.8895 10.172C35.3468 10.4877 35.6465 11.0155 35.6465 11.6132C35.6465 12.2535 35.5658 12.9086 35.397 13.5466V29.8321C35.397 32.7788 33.0083 35.1675 30.0617 35.1675H25.2056C24.943 35.3249 24.6357 35.4153 24.3073 35.4153H15.6777C15.3493 35.4153 15.0421 35.3249 14.7795 35.1675H9.92592C6.97927 35.1675 4.59054 32.7788 4.59054 29.8321V13.5507C4.42107 12.9114 4.34 12.2549 4.34 11.6132C4.34 11.0148 4.64038 10.4865 5.09861 10.1709L6.10015 7.96755ZM26.0573 32.1675V26.9534C26.0573 23.8687 23.5567 21.368 20.472 21.368H19.5131C16.4284 21.368 13.9277 23.8687 13.9277 26.9534V32.1675H9.92592C8.63613 32.1675 7.59054 31.1219 7.59054 29.8321V17.4854C8.39905 17.9127 9.34357 18.1575 10.4048 18.1575C12.4254 18.1575 14.0885 17.2938 15.2325 16.0185C16.433 17.3017 18.1736 18.1575 20.2474 18.1575C22.2064 18.1575 23.7926 17.3839 24.883 16.1583C26.0215 17.3565 27.6358 18.1575 29.5817 18.1575C30.6434 18.1575 31.5883 17.9124 32.397 17.4848V29.8321C32.397 31.1219 31.3514 32.1675 30.0617 32.1675H26.0573ZM32.1579 11.4124C32.1504 11.4783 32.1465 11.5453 32.1465 11.6132C32.1465 12.4769 31.8819 13.2714 31.4502 13.8121C31.054 14.3083 30.4733 14.6575 29.5817 14.6575C27.8261 14.6575 26.5928 13.2146 26.5393 11.7148C26.5397 11.6809 26.54 11.6471 26.54 11.6133C26.54 10.6549 25.7695 9.87638 24.8142 9.86344L24.7875 9.86324C23.821 9.86324 23.0375 10.6467 23.0375 11.6132C23.0375 11.6497 23.0378 11.6862 23.0385 11.7227C23.0161 12.5225 22.7496 13.2606 22.3147 13.778C21.893 14.2797 21.2493 14.6575 20.2474 14.6575C18.2174 14.6575 16.95 13.0621 16.95 11.6133C16.95 10.6693 16.2026 9.89988 15.2672 9.86455C15.2446 9.86368 15.2219 9.86324 15.199 9.86324C14.2325 9.86324 13.449 10.6467 13.449 11.6132C13.449 13.1488 12.2 14.6575 10.4048 14.6575C9.51321 14.6575 8.93246 14.3083 8.53626 13.8121C8.10453 13.2714 7.84 12.4769 7.84 11.6132C7.84 11.546 7.8362 11.4796 7.82881 11.4143L8.83125 9.20896C9.21021 8.37524 10.0415 7.83997 10.9573 7.83997H29.0303C29.9461 7.83997 30.7773 8.37524 31.1563 9.20896L32.1579 11.4124ZM17.4277 26.9534C17.4277 25.8017 18.3614 24.868 19.5131 24.868H20.472C21.6237 24.868 22.5573 25.8017 22.5573 26.9534V31.9153H17.4277V26.9534Z" fill="black"/>
</svg>
