<svg width="36" height="36" viewBox="0 0 36 36" fill="none" xmlns="http://www.w3.org/2000/svg">
<path d="M12.4759 12.1566C12.2693 12.3632 12.1054 12.6085 11.9936 12.8784C11.8817 13.1483 11.8242 13.4377 11.8242 13.7298C11.8242 14.022 11.8817 14.3114 11.9936 14.5813C12.1054 14.8512 12.2693 15.0965 12.4759 15.3031L15.6309 18.458L18.7773 15.3115L15.6224 12.1566C15.4158 11.95 15.1706 11.7861 14.9006 11.6742C14.6307 11.5624 14.3414 11.5049 14.0492 11.5049C13.757 11.5049 13.4677 11.5624 13.1977 11.6742C12.9278 11.7861 12.6825 11.95 12.4759 12.1566Z" fill="black"/>
<path d="M3.30859 13.1143H6.68359H3.30859ZM6.27437 5.95504L8.66078 8.34145L6.27437 5.95504ZM13.4336 2.98926V6.36426V2.98926ZM20.5928 5.95504L18.2064 8.34145L20.5928 5.95504ZM8.66078 17.8871L6.27437 20.2735L8.66078 17.8871Z" fill="black"/>
<path d="M3.30859 13.1143H6.68359M6.27437 5.95504L8.66078 8.34145M13.4336 2.98926V6.36426M20.5928 5.95504L18.2064 8.34145M8.66078 17.8871L6.27437 20.2735M12.4694 12.1502C13.3348 11.2849 14.7379 11.285 15.6034 12.1505L31.2727 27.8197C32.1382 28.6852 32.1383 30.0884 31.2729 30.9537C30.4076 31.8191 29.0044 31.819 28.1389 30.9535L12.4697 15.2842C11.6042 14.4187 11.6041 13.0156 12.4694 12.1502ZM12.4759 12.1566C12.2693 12.3632 12.1054 12.6085 11.9936 12.8784C11.8817 13.1483 11.8242 13.4377 11.8242 13.7298C11.8242 14.022 11.8817 14.3114 11.9936 14.5813C12.1054 14.8512 12.2693 15.0965 12.4759 15.3031L15.6309 18.458L18.7773 15.3115L15.6224 12.1566C15.4158 11.95 15.1706 11.7861 14.9006 11.6742C14.6307 11.5624 14.3414 11.5049 14.0492 11.5049C13.757 11.5049 13.4677 11.5624 13.1977 11.6742C12.9278 11.7861 12.6825 11.95 12.4759 12.1566Z" stroke="black" stroke-width="3" stroke-miterlimit="10" stroke-linecap="round"/>
</svg>
