<svg width="40" height="40" viewBox="0 0 40 40" fill="none" xmlns="http://www.w3.org/2000/svg"><path d="M18.467 3.408 C 15.845 3.639,13.138 4.584,10.900 6.049 C 9.841 6.742,9.165 7.296,8.198 8.264 C 4.921 11.544,3.199 15.907,3.355 20.533 C 3.474 24.064,4.586 27.214,6.722 30.067 C 7.384 30.950,8.841 32.441,9.667 33.078 C 12.070 34.935,14.645 36.039,17.667 36.511 C 18.744 36.679,21.256 36.679,22.333 36.511 C 26.064 35.929,29.173 34.367,31.770 31.770 C 34.367 29.172,35.933 26.056,36.510 22.333 C 36.677 21.257,36.677 18.743,36.510 17.667 C 36.042 14.651,34.932 12.064,33.078 9.667 C 32.516 8.941,31.064 7.490,30.333 6.924 C 26.889 4.258,22.744 3.029,18.467 3.408 M21.224 6.735 C 24.291 7.026,27.047 8.293,29.257 10.426 C 33.406 14.430,34.503 20.656,31.972 25.832 C 31.249 27.312,30.371 28.509,29.160 29.668 C 28.126 30.657,27.103 31.365,25.786 32.001 C 22.112 33.775,17.888 33.775,14.214 32.001 C 12.462 31.155,11.020 30.025,9.745 28.500 C 6.414 24.518,5.733 18.837,8.027 14.167 C 10.270 9.601,14.778 6.748,19.867 6.676 C 20.215 6.671,20.826 6.698,21.224 6.735 M19.491 11.762 C 19.110 11.881,18.760 12.165,18.547 12.527 C 18.394 12.787,18.367 12.910,18.367 13.339 C 18.367 13.784,18.390 13.882,18.569 14.172 C 19.077 14.998,20.129 15.240,20.913 14.713 C 21.090 14.594,21.318 14.356,21.431 14.172 C 21.610 13.882,21.633 13.784,21.633 13.339 C 21.633 12.910,21.606 12.787,21.453 12.527 C 21.046 11.835,20.250 11.524,19.491 11.762 M17.784 16.768 C 17.414 16.903,17.083 17.182,16.880 17.527 C 16.727 17.787,16.700 17.910,16.700 18.339 C 16.700 18.784,16.724 18.882,16.902 19.172 C 17.146 19.569,17.629 19.910,18.033 19.970 L 18.329 20.014 18.348 23.596 L 18.367 27.177 18.569 27.505 C 19.239 28.594,20.761 28.594,21.431 27.505 L 21.633 27.177 21.633 22.505 L 21.633 17.833 21.453 17.527 C 21.244 17.171,20.917 16.902,20.526 16.764 C 20.152 16.632,18.146 16.635,17.784 16.768 " stroke="none" fill-rule="evenodd" fill="black"></path></svg>