<svg width="40" height="40" viewBox="0 0 40 40" fill="none" xmlns="http://www.w3.org/2000/svg"><path d="M7.157 8.028 C 6.598 8.163,6.080 8.457,5.602 8.908 C 5.120 9.362,4.823 9.844,4.623 10.500 C 4.506 10.880,4.500 11.351,4.500 19.833 C 4.500 28.316,4.506 28.787,4.623 29.164 C 4.808 29.766,5.026 30.148,5.433 30.589 C 5.902 31.095,6.334 31.372,6.970 31.574 L 7.472 31.733 20.507 31.733 L 33.543 31.733 34.039 31.567 C 35.173 31.186,36.001 30.351,36.352 29.236 L 36.500 28.767 36.500 19.833 L 36.500 10.900 36.352 10.431 C 35.977 9.238,34.923 8.258,33.747 8.008 C 33.211 7.895,7.629 7.913,7.157 8.028 M33.278 11.110 C 33.395 11.216,33.400 11.574,33.400 19.822 C 33.400 27.732,33.391 28.433,33.290 28.545 C 33.184 28.661,32.916 28.667,27.467 28.667 L 21.754 28.667 21.671 28.383 C 21.516 27.861,20.995 26.640,20.632 25.952 C 20.112 24.966,19.525 24.124,18.913 23.486 L 18.377 22.929 18.539 22.822 C 18.839 22.623,19.565 21.824,19.790 21.446 C 20.871 19.630,20.742 17.392,19.464 15.787 C 18.832 14.994,17.988 14.406,17.011 14.077 C 16.551 13.923,16.400 13.906,15.500 13.907 C 14.561 13.909,14.465 13.921,13.922 14.111 C 10.789 15.205,9.508 18.851,11.302 21.567 C 11.571 21.975,12.080 22.527,12.426 22.788 L 12.618 22.933 12.117 23.457 C 11.531 24.070,11.063 24.718,10.565 25.604 C 10.180 26.288,9.642 27.485,9.389 28.217 L 9.234 28.667 8.527 28.667 C 7.894 28.667,7.808 28.652,7.694 28.526 C 7.570 28.390,7.567 28.150,7.567 19.833 C 7.567 11.516,7.570 11.277,7.694 11.140 L 7.821 11.000 20.488 11.000 C 32.182 11.000,33.166 11.008,33.278 11.110 M25.282 16.008 C 24.193 16.547,24.196 18.154,25.287 18.698 C 25.626 18.866,25.629 18.867,27.492 18.867 C 29.248 18.867,29.375 18.858,29.646 18.727 C 30.588 18.271,30.787 16.967,30.023 16.258 C 29.607 15.872,29.571 15.867,27.487 15.867 C 25.666 15.867,25.552 15.874,25.282 16.008 M16.408 17.150 C 18.044 17.997,17.678 20.374,15.856 20.740 C 15.396 20.833,14.764 20.690,14.367 20.405 C 13.516 19.794,13.308 18.621,13.899 17.767 C 14.294 17.197,14.800 16.941,15.544 16.936 C 15.919 16.934,16.054 16.967,16.408 17.150 M25.282 21.941 C 24.233 22.460,24.186 23.975,25.200 24.583 L 25.561 24.800 27.459 24.800 C 29.242 24.800,29.375 24.792,29.643 24.662 C 30.030 24.474,30.309 24.137,30.435 23.703 C 30.644 22.985,30.314 22.258,29.620 21.908 C 29.438 21.816,29.121 21.800,27.487 21.800 C 25.666 21.800,25.552 21.807,25.282 21.941 M16.054 25.027 C 16.694 25.358,17.597 26.617,18.295 28.150 L 18.530 28.667 15.527 28.667 L 12.524 28.667 12.569 28.517 C 12.593 28.434,12.762 28.060,12.944 27.686 C 13.830 25.860,14.979 24.670,15.665 24.866 C 15.762 24.894,15.937 24.966,16.054 25.027 " stroke="none" fill-rule="evenodd"></path></svg>