<svg width="40" height="40" viewBox="0 0 40 40" fill="none" xmlns="http://www.w3.org/2000/svg"><path d="M18.467 3.408 C 15.845 3.639,13.138 4.584,10.900 6.049 C 9.841 6.742,9.165 7.296,8.198 8.264 C 4.921 11.544,3.199 15.907,3.355 20.533 C 3.474 24.064,4.586 27.214,6.722 30.067 C 7.384 30.950,8.841 32.441,9.667 33.078 C 12.070 34.935,14.645 36.039,17.667 36.511 C 18.744 36.679,21.256 36.679,22.333 36.511 C 26.064 35.929,29.173 34.367,31.770 31.770 C 34.367 29.172,35.933 26.056,36.510 22.333 C 36.677 21.257,36.677 18.743,36.510 17.667 C 36.042 14.651,34.932 12.064,33.078 9.667 C 32.516 8.941,31.064 7.490,30.333 6.924 C 26.889 4.258,22.744 3.029,18.467 3.408 M21.224 6.735 C 24.291 7.026,27.047 8.293,29.257 10.426 C 33.406 14.430,34.503 20.656,31.972 25.832 C 31.249 27.312,30.371 28.509,29.160 29.668 C 28.126 30.657,27.103 31.365,25.786 32.001 C 22.112 33.775,17.888 33.775,14.214 32.001 C 12.462 31.155,11.020 30.025,9.745 28.500 C 6.414 24.518,5.733 18.837,8.027 14.167 C 10.270 9.601,14.778 6.748,19.867 6.676 C 20.215 6.671,20.826 6.698,21.224 6.735 M19.333 9.306 C 18.998 9.451,18.674 9.782,18.492 10.167 C 18.361 10.445,18.335 10.606,18.334 11.143 L 18.333 11.785 18.083 11.832 C 17.626 11.917,16.836 12.261,16.323 12.598 C 15.325 13.253,14.573 14.256,14.296 15.300 C 14.124 15.948,14.152 16.985,14.359 17.633 C 14.752 18.869,15.642 19.883,16.877 20.505 C 17.121 20.628,18.228 21.091,19.336 21.534 C 20.444 21.977,21.492 22.412,21.665 22.499 C 22.018 22.678,22.377 23.051,22.441 23.305 C 22.611 23.982,22.031 24.643,21.033 24.909 C 20.329 25.098,19.149 24.980,18.515 24.658 C 18.360 24.580,18.013 24.294,17.744 24.025 C 17.337 23.616,17.193 23.516,16.883 23.426 C 15.490 23.021,14.284 24.398,14.890 25.701 C 15.293 26.566,16.651 27.592,17.933 28.001 L 18.300 28.118 18.335 28.876 C 18.363 29.476,18.400 29.689,18.512 29.900 C 18.826 30.487,19.358 30.813,20.000 30.813 C 20.675 30.813,21.207 30.468,21.508 29.833 C 21.639 29.555,21.665 29.394,21.666 28.856 L 21.667 28.213 22.148 28.067 C 23.114 27.773,23.984 27.229,24.651 26.501 C 25.883 25.156,26.166 23.247,25.366 21.666 C 24.943 20.830,24.108 20.009,23.202 19.539 C 22.926 19.396,21.710 18.884,20.500 18.401 C 18.293 17.521,17.968 17.352,17.683 16.934 C 17.486 16.644,17.479 16.137,17.669 15.830 C 17.977 15.331,18.817 15.000,19.777 15.000 C 20.900 15.000,21.533 15.247,22.244 15.962 C 22.823 16.545,23.187 16.707,23.779 16.646 C 24.879 16.533,25.582 15.335,25.132 14.342 C 24.739 13.476,23.466 12.489,22.152 12.031 L 21.700 11.873 21.665 11.120 C 21.637 10.525,21.600 10.311,21.488 10.100 C 21.304 9.757,20.966 9.434,20.652 9.303 C 20.338 9.172,19.639 9.174,19.333 9.306 " stroke="none" fill-rule="evenodd" fill="black"></path></svg>