<svg width="40" height="40" viewBox="0 0 40 40" fill="none" xmlns="http://www.w3.org/2000/svg">
<path fill-rule="evenodd" clip-rule="evenodd" d="M20 6.66669C12.6362 6.66669 6.66666 12.6362 6.66666 20C6.66666 27.3638 12.6362 33.3334 20 33.3334C27.3638 33.3334 33.3333 27.3638 33.3333 20C33.3333 12.6362 27.3638 6.66669 20 6.66669ZM9.16666 20C9.16666 14.0169 14.0169 9.16669 20 9.16669C25.9831 9.16669 30.8333 14.0169 30.8333 20C30.8333 25.9831 25.9831 30.8334 20 30.8334C14.0169 30.8334 9.16666 25.9831 9.16666 20ZM24.8342 16.8721C25.1778 16.2733 24.9709 15.5094 24.3721 15.1658C23.7733 14.8222 23.0094 15.0291 22.6658 15.6279L18.8431 22.2901C18.6753 22.5825 18.2477 22.5649 18.1045 22.2597L17.3816 20.7191C17.0884 20.0941 16.344 19.8251 15.719 20.1184C15.094 20.4116 14.8251 21.156 15.1184 21.781L15.8412 23.3216C16.8438 25.4583 19.8368 25.5814 21.0115 23.5343L24.8342 16.8721Z" fill="#0E1438"/>
</svg>
