<svg width="40" height="40" viewBox="0 0 40 40" fill="none" xmlns="http://www.w3.org/2000/svg"><path d="M12.378 7.070 C 10.804 7.253,9.333 7.782,8.017 8.637 C 5.734 10.121,4.241 12.292,3.584 15.082 C 3.439 15.698,3.439 15.729,3.417 24.350 L 3.396 33.000 10.632 33.000 L 17.867 33.000 17.850 25.783 L 17.833 18.567 13.850 18.549 L 9.867 18.532 9.868 17.949 C 9.872 15.593,10.330 14.135,11.406 13.049 C 12.113 12.335,12.571 12.125,13.517 12.081 L 14.200 12.049 14.200 9.525 L 14.200 7.000 13.517 7.009 C 13.141 7.014,12.629 7.041,12.378 7.070 M31.133 7.073 C 26.833 7.553,23.250 10.833,22.370 15.095 C 22.162 16.103,22.135 17.212,22.134 25.083 L 22.133 33.000 29.367 33.000 L 36.600 33.000 36.600 25.767 L 36.600 18.533 32.633 18.533 L 28.667 18.533 28.667 17.617 C 28.668 14.897,29.553 13.061,31.233 12.291 C 31.558 12.143,31.752 12.105,32.315 12.080 L 33.000 12.049 33.000 9.525 L 33.000 7.000 32.317 7.009 C 31.941 7.013,31.408 7.042,31.133 7.073 " stroke="none" fill-rule="evenodd"></path></svg>