<svg width="40" height="40" viewBox="0 0 40 40" fill="none" xmlns="http://www.w3.org/2000/svg"><path d="M17.842 1.205 C 17.742 1.284,17.449 1.771,17.164 2.334 L 16.663 3.324 15.652 3.845 C 14.546 4.415,14.370 4.575,14.370 5.000 C 14.370 5.420,14.550 5.587,15.553 6.102 C 16.055 6.359,16.533 6.637,16.615 6.719 C 16.696 6.800,16.974 7.278,17.232 7.780 C 17.746 8.784,17.914 8.964,18.333 8.964 C 18.753 8.964,18.921 8.784,19.435 7.780 C 19.693 7.278,19.970 6.800,20.052 6.719 C 20.133 6.637,20.611 6.359,21.114 6.102 C 22.117 5.587,22.297 5.420,22.297 5.000 C 22.297 4.575,22.120 4.415,21.015 3.845 L 20.004 3.324 19.503 2.334 C 19.218 1.771,18.925 1.284,18.825 1.205 C 18.584 1.016,18.083 1.016,17.842 1.205 M30.370 4.079 C 30.025 4.113,29.769 4.193,29.370 4.393 C 28.837 4.658,28.740 4.754,16.692 16.813 C 3.331 30.187,4.319 29.135,4.090 30.223 C 3.927 30.994,4.100 31.917,4.535 32.600 C 4.640 32.765,5.305 33.473,6.013 34.173 C 7.423 35.567,7.644 35.718,8.556 35.910 C 9.329 36.073,10.254 35.900,10.933 35.464 C 11.098 35.358,16.682 29.818,23.342 23.152 C 36.626 9.856,35.681 10.860,35.904 9.811 C 36.021 9.256,36.021 9.078,35.904 8.522 C 35.717 7.642,35.560 7.416,34.140 5.979 C 32.952 4.777,32.785 4.634,32.300 4.393 C 31.693 4.092,31.138 4.002,30.370 4.079 M31.749 8.249 C 32.217 8.716,32.600 9.128,32.600 9.165 C 32.600 9.202,31.738 10.095,30.684 11.149 L 28.768 13.066 27.850 12.150 L 26.933 11.235 28.849 9.317 C 29.903 8.263,30.796 7.400,30.832 7.400 C 30.868 7.400,31.281 7.782,31.749 8.249 M9.509 9.539 C 9.408 9.617,9.116 10.105,8.831 10.667 L 8.329 11.658 7.318 12.179 C 6.213 12.749,6.036 12.908,6.036 13.333 C 6.036 13.753,6.216 13.921,7.220 14.435 C 7.722 14.693,8.200 14.970,8.281 15.052 C 8.363 15.133,8.641 15.611,8.898 16.114 C 9.413 17.117,9.580 17.297,10.000 17.297 C 10.425 17.297,10.585 17.120,11.154 16.017 L 11.674 15.007 12.683 14.487 C 13.787 13.918,13.964 13.759,13.964 13.333 C 13.964 12.908,13.787 12.749,12.682 12.179 L 11.671 11.658 11.169 10.667 C 10.884 10.105,10.592 9.617,10.491 9.539 C 10.370 9.443,10.218 9.400,10.000 9.400 C 9.782 9.400,9.630 9.443,9.509 9.539 M17.817 24.016 C 13.096 28.737,9.204 32.600,9.168 32.600 C 9.081 32.600,7.400 30.921,7.400 30.834 C 7.400 30.797,11.262 26.904,15.983 22.184 L 24.566 13.601 25.483 14.517 L 26.401 15.432 17.817 24.016 M32.842 19.539 C 32.742 19.617,32.449 20.105,32.164 20.667 L 31.663 21.658 30.652 22.179 C 29.546 22.749,29.370 22.908,29.370 23.333 C 29.370 23.753,29.550 23.921,30.553 24.435 C 31.055 24.693,31.533 24.970,31.615 25.052 C 31.696 25.133,31.974 25.611,32.232 26.114 C 32.746 27.117,32.914 27.297,33.333 27.297 C 33.753 27.297,33.921 27.117,34.435 26.114 C 34.693 25.611,34.970 25.133,35.052 25.052 C 35.133 24.970,35.611 24.693,36.114 24.435 C 37.117 23.921,37.297 23.753,37.297 23.333 C 37.297 22.908,37.120 22.749,36.015 22.179 L 35.004 21.658 34.503 20.667 C 34.218 20.105,33.925 19.617,33.825 19.539 C 33.703 19.443,33.552 19.400,33.333 19.400 C 33.115 19.400,32.964 19.443,32.842 19.539 " stroke="none" fill-rule="evenodd"></path></svg>