<svg width="40" height="40" viewBox="0 0 40 40" fill="none" xmlns="http://www.w3.org/2000/svg">
<path fill-rule="evenodd" clip-rule="evenodd" d="M14.31 6.06006C9.75365 6.06006 6.06 9.75371 6.06 14.3101V25.6851C6.06 30.2414 9.75365 33.9351 14.31 33.9351H25.685C30.2413 33.9351 33.935 30.2414 33.935 25.6851V14.3101C33.935 9.75371 30.2413 6.06006 25.685 6.06006H14.31ZM8.56 14.3101C8.56 11.1344 11.1344 8.56006 14.31 8.56006H25.685C28.8606 8.56006 31.435 11.1344 31.435 14.3101V25.6851C31.435 28.8607 28.8606 31.4351 25.685 31.4351H14.31C11.1344 31.4351 8.56 28.8607 8.56 25.6851V14.3101ZM13.6755 20.746L13.6755 20.746C13.3652 20.1322 12.6168 19.8841 12.001 20.192C11.3835 20.5008 11.1332 21.2516 11.442 21.8691L12.56 21.3101C11.442 21.8691 11.4422 21.8696 11.4425 21.8702L11.4431 21.8714L11.4445 21.8741L11.4478 21.8807L11.4571 21.8987C11.4644 21.9128 11.474 21.9311 11.486 21.9531C11.5098 21.9973 11.5429 22.0569 11.5856 22.1298C11.671 22.2755 11.795 22.475 11.9598 22.7105C12.2883 23.1798 12.7854 23.8009 13.4692 24.4225C14.845 25.6732 16.9918 26.9351 19.9975 26.9351C23.0032 26.9351 25.15 25.6732 26.5258 24.4225C27.2096 23.8009 27.7067 23.1798 28.0352 22.7105C28.2 22.475 28.324 22.2755 28.4094 22.1298C28.4521 22.0569 28.4852 21.9973 28.509 21.9531L28.524 21.9252L28.5379 21.8987L28.5471 21.8807L28.5505 21.8741L28.5519 21.8714L28.5525 21.8702C28.5528 21.8696 28.553 21.8691 27.435 21.3101L28.553 21.8691C28.8618 21.2516 28.6115 20.5008 27.994 20.192C27.3778 19.8839 26.6288 20.1325 26.3189 20.7472L26.3093 20.7653C26.2985 20.7852 26.2795 20.8196 26.2521 20.8663C26.1973 20.9599 26.1094 21.1021 25.9871 21.2768C25.7415 21.6278 25.3635 22.1005 24.8442 22.5726C23.8137 23.5094 22.2418 24.4351 19.9975 24.4351C17.7532 24.4351 16.1813 23.5094 15.1508 22.5726C14.6315 22.1005 14.2535 21.6278 14.0079 21.2768C13.8856 21.1021 13.7977 20.9599 13.7428 20.8663C13.7155 20.8196 13.6965 20.7852 13.6857 20.7653L13.6757 20.7465L13.6755 20.746ZM16.4975 14.3726C15.3239 14.3726 14.3725 15.324 14.3725 16.4976C14.3725 17.6712 15.3239 18.6226 16.4975 18.6226C17.6711 18.6226 18.6225 17.6712 18.6225 16.4976C18.6225 15.324 17.6711 14.3726 16.4975 14.3726ZM21.3725 16.4976C21.3725 15.324 22.3239 14.3726 23.4975 14.3726C24.6711 14.3726 25.6225 15.324 25.6225 16.4976C25.6225 17.6712 24.6711 18.6226 23.4975 18.6226C22.3239 18.6226 21.3725 17.6712 21.3725 16.4976Z" fill="black"/>
</svg>
