<svg width="40" height="40" viewBox="0 0 40 40" fill="none" xmlns="http://www.w3.org/2000/svg">
<path fill-rule="evenodd" clip-rule="evenodd" d="M8.06 20.0023C8.06 13.4068 13.4067 8.06006 20.0022 8.06006C26.5977 8.06006 31.9444 13.4068 31.9444 20.0023C31.9444 26.5978 26.5977 31.9445 20.0022 31.9445C13.4067 31.9445 8.06 26.5978 8.06 20.0023ZM20.0022 5.56006C12.026 5.56006 5.56 12.0261 5.56 20.0023C5.56 27.9785 12.026 34.4445 20.0022 34.4445C27.9784 34.4445 34.4444 27.9785 34.4444 20.0023C34.4444 12.0261 27.9784 5.56006 20.0022 5.56006ZM18.2589 14.4657C18.2589 13.5452 19.0051 12.799 19.9255 12.799C20.846 12.799 21.5922 13.5452 21.5922 14.4657C21.5922 15.3861 20.846 16.1323 19.9255 16.1323C19.0051 16.1323 18.2589 15.3861 18.2589 14.4657ZM20.0022 20.5718C20.6926 20.5718 21.2522 21.1315 21.2522 21.8218V25.461C21.2522 26.1514 20.6926 26.711 20.0022 26.711C19.3119 26.711 18.7522 26.1514 18.7522 25.461V21.8218C18.7522 21.1315 19.3119 20.5718 20.0022 20.5718Z" fill="black"/>
</svg>
