<svg width="40" height="40" viewBox="0 0 40 40" fill="none" xmlns="http://www.w3.org/2000/svg">
<path fill-rule="evenodd" clip-rule="evenodd" d="M5.87256 7.8641C6.7789 5.87015 8.76703 4.58997 10.9573 4.58997H29.0303C31.2205 4.58997 33.2087 5.87015 34.115 7.86409L35.1464 10.1331C35.2202 10.2956 35.2861 10.4612 35.3439 10.6293C35.5348 10.9097 35.6465 11.2484 35.6465 11.6132C35.6465 11.7605 35.6422 11.9086 35.6336 12.0571C35.6425 12.1858 35.647 12.315 35.647 12.4444V29.8321C35.647 32.9168 33.1464 35.4175 30.0617 35.4175H9.92592C6.8412 35.4175 4.34054 32.9168 4.34054 29.8321V12.4444C4.34054 12.3178 4.34484 12.1915 4.3534 12.0656C4.34443 11.9143 4.34 11.7633 4.34 11.6132C4.34 11.247 4.45249 10.9071 4.6448 10.6261C4.7023 10.4591 4.7678 10.2946 4.84118 10.1331L5.87256 7.8641ZM32.1182 12.099C32.0394 12.771 31.7995 13.3746 31.4502 13.8121C31.054 14.3083 30.4733 14.6575 29.5817 14.6575C27.8261 14.6575 26.5928 13.2146 26.5393 11.7148C26.5397 11.6809 26.54 11.6471 26.54 11.6133C26.54 10.6549 25.7695 9.87638 24.8142 9.86344L24.7875 9.86324C23.821 9.86324 23.0375 10.6467 23.0375 11.6132C23.0375 11.6497 23.0378 11.6862 23.0385 11.7227C23.0161 12.5225 22.7496 13.2606 22.3147 13.778C21.893 14.2797 21.2493 14.6575 20.2474 14.6575C18.2174 14.6575 16.95 13.0621 16.95 11.6133C16.95 10.6693 16.2026 9.89988 15.2672 9.86455C15.2446 9.86368 15.2219 9.86324 15.199 9.86324C14.2325 9.86324 13.449 10.6467 13.449 11.6132C13.449 13.1488 12.2 14.6575 10.4048 14.6575C9.51321 14.6575 8.93246 14.3083 8.53626 13.8121C8.18762 13.3754 7.94801 12.7733 7.8687 12.1029C7.8985 11.9233 7.95175 11.748 8.02746 11.5815L9.05884 9.31241C9.39724 8.56794 10.1395 8.08997 10.9573 8.08997H29.0303C29.848 8.08997 30.5903 8.56794 30.9287 9.31241L31.9601 11.5815C32.0353 11.7468 32.0883 11.9209 32.1182 12.099ZM24.883 16.1583C26.0215 17.3565 27.6358 18.1575 29.5817 18.1575C30.5358 18.1575 31.3956 17.9596 32.147 17.6091V29.8321C32.147 30.9838 31.2134 31.9175 30.0617 31.9175H26.0573V26.9534C26.0573 23.8687 23.5567 21.368 20.472 21.368H19.5131C16.4284 21.368 13.9277 23.8687 13.9277 26.9534V31.9175H9.92592C8.7742 31.9175 7.84054 30.9838 7.84054 29.8321V17.6096C8.59171 17.9598 9.45113 18.1575 10.4048 18.1575C12.4254 18.1575 14.0885 17.2938 15.2325 16.0185C16.433 17.3017 18.1736 18.1575 20.2474 18.1575C22.2064 18.1575 23.7926 17.3839 24.883 16.1583ZM17.4277 26.9534C17.4277 25.8017 18.3614 24.868 19.5131 24.868H20.472C21.6237 24.868 22.5573 25.8017 22.5573 26.9534V31.9153H17.4277V26.9534Z" fill="black"/>
</svg>
