<svg width="40" height="40" viewBox="0 0 40 40" fill="none" xmlns="http://www.w3.org/2000/svg">
<path fill-rule="evenodd" clip-rule="evenodd" d="M20.0047 4.84998C11.635 4.84998 4.85 11.635 4.85 20.0047C4.85 28.3744 11.635 35.1594 20.0047 35.1594C28.3744 35.1594 35.1594 28.3744 35.1594 20.0047C35.1594 11.635 28.3744 4.84998 20.0047 4.84998ZM7.85 20.0047C7.85 13.2918 13.2918 7.84998 20.0047 7.84998C26.7176 7.84998 32.1594 13.2918 32.1594 20.0047C32.1594 26.7175 26.7176 32.1594 20.0047 32.1594C13.2918 32.1594 7.85 26.7175 7.85 20.0047ZM25.5434 16.5135C25.9557 15.795 25.7075 14.8783 24.9889 14.466C24.2704 14.0537 23.3536 14.3019 22.9414 15.0205L18.6215 22.549C18.4671 22.8181 18.0737 22.8019 17.9419 22.5211L17.125 20.7801C16.7731 20.0301 15.8799 19.7074 15.1299 20.0593C14.3799 20.4112 14.0572 21.3044 14.4091 22.0544L15.226 23.7954C16.389 26.274 19.861 26.4168 21.2236 24.0421L25.5434 16.5135Z" fill="black"/>
</svg>
