<svg width="40" height="40" viewBox="0 0 40 40" fill="none" xmlns="http://www.w3.org/2000/svg">
<g clip-path="url(#clip0_1223_56)">
<path d="M13.3332 6.66663H8.33317C7.4127 6.66663 6.6665 7.41283 6.6665 8.33329V13.3333M6.6665 26.6666V31.6666C6.6665 32.5871 7.4127 33.3333 8.33317 33.3333H13.3332M26.6665 6.66663H31.6665C32.587 6.66663 33.3332 7.41283 33.3332 8.33329V13.3333M33.3332 26.6666V31.6666C33.3332 32.5871 32.587 33.3333 31.6665 33.3333H26.6665M20.8332 14.5833V18.3333C20.8332 19.8865 19.7708 21.1916 18.3332 21.5616M13.3332 15V16.6666M26.6665 15V16.6666M14.9998 26.1621C16.4707 27.013 18.1783 27.5 19.9998 27.5C21.8213 27.5 23.529 27.013 24.9998 26.1621" stroke="black" stroke-width="3.33333" stroke-linecap="round" stroke-linejoin="round"/>
</g>
<defs>
<clipPath id="clip0_1223_56">
<rect width="40" height="40" fill="white"/>
</clipPath>
</defs>
</svg>
