<svg width="40" height="40" viewBox="0 0 40 40" fill="none" xmlns="http://www.w3.org/2000/svg"><path d="M7.898 3.398 C 5.868 3.701,4.109 5.270,3.520 7.304 L 3.367 7.833 3.367 20.000 L 3.367 32.167 3.520 32.696 C 4.047 34.518,5.482 35.953,7.304 36.480 L 7.833 36.633 20.000 36.633 L 32.167 36.633 32.696 36.480 C 34.510 35.955,35.955 34.510,36.480 32.696 L 36.633 32.167 36.633 20.000 L 36.633 7.833 36.480 7.304 C 35.959 5.504,34.548 4.084,32.721 3.519 L 32.233 3.368 20.233 3.358 C 13.633 3.353,8.083 3.371,7.898 3.398 M32.075 6.842 C 32.517 7.047,32.901 7.421,33.115 7.856 L 33.300 8.233 33.300 20.000 L 33.300 31.767 33.113 32.148 C 32.883 32.615,32.441 33.017,31.957 33.198 C 31.598 33.332,31.495 33.333,20.000 33.333 C 8.505 33.333,8.402 33.332,8.043 33.198 C 7.559 33.017,7.117 32.615,6.887 32.148 L 6.700 31.767 6.700 20.000 L 6.700 8.233 6.840 7.930 C 7.113 7.341,7.602 6.918,8.197 6.757 C 8.433 6.693,11.082 6.678,20.133 6.687 L 31.767 6.700 32.075 6.842 M12.462 10.090 C 12.002 10.216,11.552 10.509,11.349 10.815 L 11.167 11.090 11.146 12.583 C 11.127 14.004,11.133 14.091,11.272 14.377 C 11.457 14.760,11.909 15.093,12.433 15.233 C 12.791 15.328,13.617 15.338,20.173 15.320 L 27.514 15.300 27.971 15.067 C 28.297 14.900,28.486 14.751,28.631 14.544 L 28.833 14.255 28.833 12.667 L 28.833 11.078 28.631 10.789 C 28.486 10.583,28.297 10.433,27.971 10.267 L 27.514 10.033 20.140 10.020 C 14.437 10.010,12.698 10.026,12.462 10.090 M11.826 23.194 C 11.403 23.386,11.177 23.730,11.149 24.225 C 11.122 24.715,11.244 24.993,11.623 25.295 L 11.879 25.500 19.923 25.517 C 27.664 25.534,27.975 25.530,28.198 25.410 C 28.326 25.342,28.519 25.176,28.627 25.042 C 28.992 24.592,28.923 23.779,28.488 23.386 C 28.122 23.055,28.441 23.067,19.985 23.068 C 12.428 23.070,12.089 23.075,11.826 23.194 M17.167 27.628 C 16.308 28.011,16.219 29.258,17.013 29.783 L 17.290 29.967 22.667 29.967 L 28.043 29.967 28.327 29.779 C 29.131 29.247,29.002 27.940,28.112 27.604 C 27.809 27.490,17.426 27.512,17.167 27.628 " stroke="none" fill-rule="evenodd"></path></svg>