<svg width="40" height="40" viewBox="0 0 40 40" fill="none" xmlns="http://www.w3.org/2000/svg"><path d="M10.800 3.392 C 10.394 3.525,10.100 3.790,7.787 6.112 C 4.934 8.976,4.967 8.930,4.967 10.000 C 4.967 11.070,4.934 11.024,7.787 13.889 C 9.176 15.282,10.345 16.402,10.492 16.478 C 11.584 17.043,12.895 16.237,12.895 15.000 C 12.895 14.358,12.743 14.130,11.445 12.817 L 10.308 11.667 20.985 11.667 L 31.662 11.667 31.681 15.255 L 31.700 18.844 31.902 19.172 C 32.572 20.260,34.095 20.260,34.765 19.172 L 34.967 18.844 34.985 15.091 C 35.006 11.018,34.994 10.844,34.636 10.138 C 34.410 9.693,33.828 9.082,33.362 8.802 C 32.546 8.310,33.357 8.341,21.204 8.337 L 10.308 8.333 11.445 7.183 C 12.743 5.870,12.895 5.642,12.895 5.000 C 12.895 4.344,12.572 3.825,11.972 3.519 C 11.685 3.373,11.064 3.305,10.800 3.392 M6.158 20.095 C 5.776 20.214,5.426 20.498,5.213 20.860 L 5.033 21.167 5.015 24.929 C 5.002 27.404,5.020 28.809,5.067 29.033 C 5.247 29.902,6.002 30.896,6.782 31.291 C 7.554 31.682,6.996 31.665,18.829 31.666 L 29.692 31.667 28.555 32.817 C 27.257 34.130,27.105 34.358,27.105 35.000 C 27.105 36.237,28.416 37.043,29.508 36.478 C 29.827 36.313,34.606 31.523,34.764 31.210 C 35.160 30.427,35.160 29.573,34.764 28.790 C 34.607 28.479,29.829 23.690,29.500 23.513 C 29.129 23.315,28.407 23.314,28.032 23.512 C 27.422 23.834,27.105 24.344,27.105 25.000 C 27.105 25.642,27.257 25.870,28.555 27.183 L 29.692 28.333 19.015 28.333 L 8.338 28.333 8.319 24.750 L 8.300 21.167 8.120 20.860 C 7.713 20.168,6.917 19.858,6.158 20.095 " stroke="none" fill-rule="evenodd" fill="black"></path></svg>