<svg width="40" height="40" viewBox="0 0 40 40" fill="none" xmlns="http://www.w3.org/2000/svg"><path d="M4.128 6.789 C 3.009 7.081,2.063 8.038,1.766 9.180 C 1.680 9.510,1.667 10.962,1.667 20.000 C 1.667 31.379,1.647 30.771,2.042 31.551 C 2.269 31.998,3.002 32.731,3.449 32.958 C 4.239 33.358,3.147 33.333,20.000 33.333 C 36.853 33.333,35.761 33.358,36.551 32.958 C 36.994 32.733,37.730 32.000,37.952 31.561 C 38.354 30.770,38.333 31.384,38.332 20.024 C 38.331 8.744,38.346 9.215,37.969 8.471 C 37.744 8.026,37.161 7.415,36.696 7.135 C 35.868 6.637,37.225 6.674,20.000 6.674 C 5.626 6.674,4.537 6.682,4.128 6.789 M35.000 20.000 L 35.000 30.000 20.000 30.000 L 5.000 30.000 5.000 20.000 L 5.000 10.000 20.000 10.000 L 35.000 10.000 35.000 20.000 M7.824 11.762 C 7.443 11.881,7.093 12.165,6.880 12.527 C 6.728 12.786,6.700 12.910,6.700 13.333 C 6.700 13.760,6.727 13.880,6.885 14.148 C 7.094 14.503,7.414 14.773,7.783 14.905 C 8.130 15.029,10.203 15.029,10.550 14.905 C 10.919 14.773,11.240 14.503,11.449 14.148 C 11.606 13.880,11.633 13.760,11.633 13.333 C 11.633 12.910,11.606 12.786,11.453 12.527 C 11.234 12.154,10.888 11.880,10.483 11.758 C 10.083 11.638,8.213 11.640,7.824 11.762 M19.164 15.067 C 17.272 15.410,15.766 16.749,15.190 18.600 C 14.965 19.323,14.965 20.677,15.190 21.400 C 15.701 23.043,16.957 24.299,18.600 24.810 C 19.323 25.035,20.677 25.035,21.400 24.810 C 23.043 24.299,24.299 23.043,24.810 21.400 C 25.035 20.677,25.035 19.323,24.810 18.600 C 24.301 16.965,23.017 15.678,21.434 15.215 C 20.833 15.039,19.720 14.967,19.164 15.067 M20.517 18.435 C 21.147 18.622,21.667 19.330,21.667 20.002 C 21.667 20.551,21.306 21.159,20.806 21.453 C 20.547 21.606,20.423 21.633,20.000 21.633 C 19.577 21.633,19.453 21.606,19.194 21.453 C 18.225 20.884,18.054 19.623,18.839 18.838 C 19.304 18.373,19.860 18.239,20.517 18.435 M29.491 25.095 C 29.110 25.214,28.760 25.498,28.547 25.860 C 28.394 26.120,28.367 26.243,28.367 26.667 C 28.367 27.093,28.394 27.213,28.551 27.481 C 28.760 27.836,29.081 28.107,29.450 28.238 C 29.797 28.362,31.870 28.362,32.217 28.238 C 32.586 28.107,32.906 27.836,33.115 27.481 C 33.273 27.213,33.300 27.093,33.300 26.667 C 33.300 26.243,33.272 26.120,33.120 25.860 C 32.901 25.488,32.555 25.213,32.149 25.091 C 31.749 24.971,29.879 24.974,29.491 25.095 " stroke="none" fill-rule="evenodd" fill="black"></path></svg>