<svg width="40" height="40" viewBox="0 0 40 40" fill="none" xmlns="http://www.w3.org/2000/svg"><path d="M19.267 3.374 C 17.510 3.591,16.009 4.289,14.776 5.462 C 12.723 7.415,11.982 10.518,12.913 13.267 C 13.791 15.861,16.089 17.789,18.833 18.235 C 23.092 18.928,27.107 15.776,27.457 11.467 C 27.705 8.414,26.133 5.572,23.432 4.190 C 22.729 3.830,22.232 3.653,21.504 3.503 C 20.974 3.393,19.703 3.320,19.267 3.374 M21.200 6.837 C 21.839 7.027,22.340 7.340,22.904 7.900 C 23.774 8.764,24.131 9.618,24.131 10.833 C 24.131 12.049,23.775 12.900,22.900 13.773 C 21.859 14.813,20.543 15.203,19.100 14.900 C 18.307 14.733,17.712 14.394,17.067 13.740 C 16.461 13.127,16.155 12.612,15.966 11.885 C 15.838 11.394,15.838 10.273,15.966 9.781 C 16.358 8.276,17.715 7.007,19.223 6.735 C 19.694 6.650,20.756 6.705,21.200 6.837 M29.172 18.399 C 27.748 18.658,26.361 19.624,25.660 20.846 C 25.036 21.934,24.844 23.413,25.168 24.633 C 25.493 25.855,26.404 27.026,27.530 27.671 L 27.929 27.900 27.931 30.996 L 27.933 34.092 28.284 34.430 C 28.477 34.615,28.871 34.947,29.160 35.167 C 29.631 35.525,29.719 35.567,30.000 35.567 C 30.281 35.567,30.369 35.525,30.840 35.167 C 31.129 34.947,31.523 34.615,31.716 34.430 L 32.067 34.092 32.067 33.219 L 32.067 32.345 31.850 32.164 C 31.731 32.064,31.456 31.819,31.240 31.619 L 30.847 31.256 31.457 30.643 L 32.067 30.031 32.067 28.949 C 32.067 28.354,32.093 27.867,32.125 27.867 C 32.257 27.867,33.192 27.194,33.525 26.860 C 35.962 24.409,35.271 20.348,32.161 18.853 C 31.864 18.710,31.459 18.549,31.261 18.495 C 30.818 18.373,29.617 18.319,29.172 18.399 M19.067 20.044 C 18.372 20.093,17.459 20.216,16.867 20.340 C 11.648 21.438,7.617 25.407,6.259 30.787 C 6.042 31.647,6.027 31.923,6.167 32.518 C 6.441 33.681,7.338 34.595,8.503 34.898 C 8.843 34.987,9.859 35.000,16.235 35.000 C 24.496 35.000,23.956 35.033,24.495 34.495 C 25.163 33.826,25.161 32.838,24.489 32.167 C 23.961 31.638,24.414 31.667,16.481 31.667 C 10.397 31.667,9.457 31.654,9.489 31.571 C 9.509 31.518,9.560 31.346,9.601 31.188 C 10.066 29.400,11.203 27.491,12.555 26.226 C 14.417 24.484,16.525 23.577,19.133 23.397 C 20.451 23.306,20.773 23.216,21.157 22.832 C 21.830 22.159,21.830 21.174,21.156 20.500 C 20.706 20.049,20.290 19.959,19.067 20.044 M30.567 21.777 C 31.182 21.987,31.667 22.673,31.667 23.333 C 31.667 24.212,30.879 25.000,30.000 25.000 C 29.597 25.000,29.131 24.801,28.832 24.502 C 28.179 23.849,28.179 22.817,28.833 22.164 C 29.296 21.701,29.929 21.560,30.567 21.777 " stroke="none" fill-rule="evenodd" fill="black"></path></svg>