<svg width="40" height="40" viewBox="0 0 40 40" fill="none" xmlns="http://www.w3.org/2000/svg"><path d="M7.461 5.122 C 6.343 5.414,5.397 6.372,5.099 7.513 C 5.014 7.842,5.000 9.081,5.000 16.447 L 5.000 25.000 4.042 25.000 C 2.996 25.000,2.705 25.063,2.296 25.375 C 2.166 25.473,1.979 25.692,1.880 25.860 L 1.700 26.167 1.681 29.093 C 1.660 32.250,1.675 32.434,2.003 33.129 C 2.246 33.643,2.951 34.372,3.449 34.624 C 4.230 35.020,3.241 34.998,20.000 34.998 C 36.759 34.998,35.770 35.020,36.551 34.624 C 36.994 34.400,37.730 33.666,37.952 33.228 C 38.325 32.492,38.340 32.325,38.319 29.114 L 38.300 26.167 38.120 25.860 C 38.021 25.692,37.834 25.473,37.704 25.375 C 37.295 25.063,37.004 25.000,35.958 25.000 L 35.000 25.000 34.999 16.483 C 34.998 7.247,35.009 7.541,34.636 6.804 C 34.410 6.360,33.828 5.748,33.362 5.468 C 32.542 4.975,33.500 5.008,20.000 5.008 C 8.777 5.008,7.868 5.016,7.461 5.122 M31.667 16.667 L 31.667 25.000 20.000 25.000 L 8.333 25.000 8.333 16.667 L 8.333 8.333 20.000 8.333 L 31.667 8.333 31.667 16.667 M35.000 30.000 L 35.000 31.667 20.000 31.667 L 5.000 31.667 5.000 30.000 L 5.000 28.333 20.000 28.333 L 35.000 28.333 35.000 30.000 " stroke="none" fill-rule="evenodd" fill="black"></path></svg>