<svg width="40" height="40" viewBox="0 0 40 40" fill="none" xmlns="http://www.w3.org/2000/svg">
<path fill-rule="evenodd" clip-rule="evenodd" d="M21.8734 10.3163C21.1053 8.78291 18.917 8.78251 18.1484 10.3156L9.37666 27.8106C8.68207 29.196 9.6893 30.8277 11.239 30.8277H28.7743C30.3237 30.8277 31.331 29.1966 30.637 27.8113L21.8734 10.3163ZM15.9135 9.19509C17.6046 5.8223 22.4188 5.82318 24.1087 9.1966L32.8723 26.6916C34.3989 29.7393 32.183 33.3277 28.7743 33.3277H11.239C7.82964 33.3277 5.61374 29.7379 7.14183 26.6901L15.9135 9.19509ZM20.0055 14.9945C20.9259 14.9945 21.6721 15.7407 21.6721 16.6611V19.9945C21.6721 20.9149 20.9259 21.6611 20.0055 21.6611C19.085 21.6611 18.3388 20.9149 18.3388 19.9945V16.6611C18.3388 15.7407 19.085 14.9945 20.0055 14.9945ZM20.0055 24.9948C19.085 24.9948 18.3388 25.741 18.3388 26.6615C18.3388 27.5819 19.085 28.3281 20.0055 28.3281C20.926 28.3281 21.6722 27.5819 21.6722 26.6615C21.6722 25.741 20.926 24.9948 20.0055 24.9948Z" fill="#2D2D2D"/>
</svg>
