<svg width="40" height="40" viewBox="0 0 40 40" fill="none" xmlns="http://www.w3.org/2000/svg">
<path fill-rule="evenodd" clip-rule="evenodd" d="M8.7088 5.05005C5.50619 5.05005 2.90997 7.64627 2.90997 10.8489V29.1189C2.90997 32.3215 5.5062 34.9177 8.7088 34.9177H31.2776C34.4802 34.9177 37.0764 32.3215 37.0764 29.1189V10.8489C37.0764 7.64627 34.4802 5.05005 31.2776 5.05005H8.7088ZM8.20946 8.09446C8.37149 8.06528 8.53836 8.05005 8.7088 8.05005H31.2776C31.4481 8.05005 31.6149 8.06528 31.777 8.09447L19.9932 18.5186L8.20946 8.09446ZM5.99931 10.1447C5.941 10.3697 5.90997 10.6056 5.90997 10.8489V29.1189C5.90997 30.6646 7.16305 31.9177 8.7088 31.9177H31.2776C32.8234 31.9177 34.0764 30.6646 34.0764 29.1189V10.8489C34.0764 10.6057 34.0454 10.3697 33.9871 10.1447L20.9871 21.6447C20.4196 22.1467 19.5669 22.1467 18.9994 21.6447L5.99931 10.1447Z" fill="black"/>
</svg>
