<svg width="40" height="40" viewBox="0 0 40 40" fill="none" xmlns="http://www.w3.org/2000/svg"><path d="M7.498 3.405 C 5.633 3.720,4.101 5.081,3.523 6.933 L 3.367 7.433 3.367 20.000 L 3.367 32.567 3.523 33.067 C 4.036 34.711,5.289 35.964,6.933 36.477 L 7.433 36.633 20.033 36.633 L 32.633 36.633 33.144 36.459 C 34.735 35.916,35.916 34.735,36.459 33.144 L 36.633 32.633 36.633 20.033 L 36.633 7.433 36.477 6.933 C 35.968 5.303,34.720 4.047,33.101 3.535 L 32.567 3.367 20.200 3.357 C 13.398 3.352,7.682 3.373,7.498 3.405 M32.223 6.773 C 32.660 6.922,33.102 7.379,33.232 7.816 C 33.321 8.116,33.333 9.592,33.333 20.002 C 33.333 29.844,33.318 31.897,33.242 32.149 C 33.120 32.555,32.846 32.901,32.473 33.120 L 32.167 33.300 20.000 33.300 L 7.833 33.300 7.527 33.120 C 7.359 33.021,7.140 32.834,7.041 32.704 C 6.643 32.182,6.667 32.994,6.667 20.003 C 6.667 6.622,6.623 7.721,7.173 7.171 C 7.708 6.636,6.623 6.678,19.971 6.672 C 30.754 6.667,31.940 6.677,32.223 6.773 M11.106 10.105 C 10.726 10.244,10.428 10.495,10.218 10.852 C 10.061 11.120,10.033 11.240,10.033 11.667 C 10.033 12.093,10.061 12.213,10.218 12.481 C 10.783 13.441,12.057 13.614,12.835 12.835 C 13.487 12.183,13.487 11.150,12.835 10.498 C 12.381 10.044,11.697 9.889,11.106 10.105 M16.106 10.105 C 15.726 10.244,15.428 10.495,15.218 10.852 C 15.061 11.120,15.033 11.240,15.033 11.667 C 15.033 12.093,15.061 12.213,15.218 12.481 C 15.783 13.441,17.057 13.614,17.835 12.835 C 18.134 12.536,18.333 12.069,18.333 11.667 C 18.333 10.544,17.158 9.720,16.106 10.105 M9.500 14.695 C 9.148 14.852,8.872 15.206,8.788 15.607 C 8.717 15.948,8.724 16.000,8.886 16.355 C 9.192 17.022,10.070 17.837,10.986 18.302 C 11.961 18.797,12.885 19.000,14.167 19.000 C 15.451 19.000,16.372 18.797,17.355 18.298 C 18.253 17.842,19.147 17.012,19.448 16.354 C 19.610 16.000,19.617 15.948,19.545 15.607 C 19.420 15.010,18.930 14.600,18.340 14.600 C 17.914 14.600,17.733 14.709,17.133 15.324 C 16.264 16.217,15.562 16.494,14.167 16.494 C 12.772 16.494,12.070 16.217,11.200 15.324 C 10.888 15.004,10.549 14.710,10.446 14.671 C 10.191 14.575,9.743 14.586,9.500 14.695 M25.230 24.339 C 24.017 24.623,23.984 26.397,25.185 26.730 C 25.327 26.770,26.186 26.799,27.185 26.800 C 29.059 26.800,29.235 26.774,29.591 26.447 C 29.801 26.254,29.997 25.822,29.999 25.548 C 30.000 25.278,29.842 24.887,29.647 24.678 C 29.305 24.312,29.239 24.301,27.300 24.288 C 26.310 24.282,25.379 24.305,25.230 24.339 M21.167 28.243 C 20.857 28.408,20.725 28.544,20.592 28.833 C 20.296 29.478,20.601 30.212,21.282 30.497 C 21.495 30.586,22.042 30.600,25.250 30.600 L 28.972 30.600 29.265 30.450 C 30.121 30.013,30.241 28.927,29.496 28.359 L 29.244 28.167 25.305 28.152 C 21.806 28.139,21.344 28.149,21.167 28.243 " stroke="none" fill-rule="evenodd" fill="black"></path></svg>