<svg width="40" height="40" viewBox="0 0 40 40" fill="none" xmlns="http://www.w3.org/2000/svg">
<path fill-rule="evenodd" clip-rule="evenodd" d="M6.25 19.9983C6.25 12.4053 12.4053 6.25 19.9983 6.25C27.5912 6.25 33.7465 12.4053 33.7465 19.9983C33.7465 27.5912 27.5912 33.7465 19.9983 33.7465C12.4053 33.7465 6.25 27.5912 6.25 19.9983ZM19.9983 3.25C10.7485 3.25 3.25 10.7485 3.25 19.9983C3.25 29.2481 10.7485 36.7465 19.9983 36.7465C29.2481 36.7465 36.7465 29.2481 36.7465 19.9983C36.7465 10.7485 29.2481 3.25 19.9983 3.25ZM21.4983 11.0596V11.6628H24.7305C25.5589 11.6628 26.2305 12.3344 26.2305 13.1628C26.2305 13.9913 25.5589 14.6628 24.7305 14.6628H18.6838C17.6246 14.6628 16.766 15.5214 16.766 16.5805C16.766 17.6397 17.6246 18.4983 18.6838 18.4983H21.3128C24.0287 18.4983 26.2305 20.7 26.2305 23.416C26.2305 26.0698 24.1283 28.2327 21.4983 28.3303V28.9368C21.4983 29.7653 20.8267 30.4368 19.9983 30.4368C19.1698 30.4368 18.4983 29.7653 18.4983 28.9368V28.3337H15.266C14.4376 28.3337 13.766 27.6621 13.766 26.8337C13.766 26.0053 14.4376 25.3337 15.266 25.3337H21.3128C22.3719 25.3337 23.2305 24.4751 23.2305 23.416C23.2305 22.3568 22.3719 21.4983 21.3128 21.4983H18.6838C15.9678 21.4983 13.766 19.2965 13.766 16.5805C13.766 13.9267 15.8682 11.7638 18.4983 11.6663V11.0596C18.4983 10.2312 19.1698 9.55959 19.9983 9.55959C20.8267 9.55959 21.4983 10.2312 21.4983 11.0596Z" fill="black"/>
</svg>
