<svg width="40" height="40" viewBox="0 0 40 40" fill="none" xmlns="http://www.w3.org/2000/svg">
<path d="M16.2734 15.31C16.2734 15.9575 15.7485 16.4824 15.101 16.4824C14.4535 16.4824 13.9286 15.9575 13.9286 15.31C13.9286 14.6625 14.4535 14.1376 15.101 14.1376C15.7485 14.1376 16.2734 14.6625 16.2734 15.31Z" stroke="black" stroke-width="2.36902" stroke-linecap="round" stroke-linejoin="round"/>
<path d="M25.6528 15.31C25.6528 15.9575 25.1279 16.4824 24.4804 16.4824C23.8329 16.4824 23.308 15.9575 23.308 15.31C23.308 14.6625 23.8329 14.1376 24.4804 14.1376C25.1279 14.1376 25.6528 14.6625 25.6528 15.31Z" stroke="black" stroke-width="2.36902" stroke-linecap="round" stroke-linejoin="round"/>
<path d="M13.5517 3H12.3793C7.19925 3 3 7.19925 3 12.3793V13.5517M13.5517 36.9999H12.3793C7.19925 36.9999 3 32.8006 3 27.6206V26.4482M26.4483 3H27.6207C32.8007 3 37 7.19925 37 12.3793V13.5517M26.4483 36.9999H27.6207C32.8007 36.9999 37 32.8006 37 27.6206V26.4482M12.3792 21.7584C12.3792 21.7584 12.9654 27.6205 19.9999 27.6205C27.0344 27.6205 27.6206 21.7584 27.6206 21.7584" stroke="black" stroke-width="3" stroke-linecap="round" stroke-linejoin="round"/>
</svg>
