<svg width="40" height="40" viewBox="0 0 40 40" fill="none" xmlns="http://www.w3.org/2000/svg">
<path fill-rule="evenodd" clip-rule="evenodd" d="M20.0006 7C12.8205 7 7 12.8205 7 20.0006C7 23.133 8.10785 26.0067 9.95312 28.2512C12.4959 25.6316 16.0583 24.0007 20.0005 24.0007C23.9428 24.0007 27.5052 25.6316 30.048 28.2512C31.8933 26.0067 33.0011 23.133 33.0011 20.0006C33.0011 12.8205 27.1806 7 20.0006 7ZM27.8896 30.3347C25.8892 28.2764 23.0944 27.0007 20.0005 27.0007C16.9067 27.0007 14.1119 28.2764 12.1115 30.3347C14.2993 32.0074 17.0339 33.0011 20.0006 33.0011C22.9672 33.0011 25.7018 32.0074 27.8896 30.3347ZM4 20.0006C4 11.1637 11.1637 4 20.0006 4C28.8374 4 36.0011 11.1637 36.0011 20.0006C36.0011 28.8374 28.8374 36.0011 20.0006 36.0011C11.1637 36.0011 4 28.8374 4 20.0006ZM20.0006 13.0002C18.3436 13.0002 17.0004 14.3434 17.0004 16.0004C17.0004 17.6573 18.3436 19.0005 20.0006 19.0005C21.6575 19.0005 23.0007 17.6573 23.0007 16.0004C23.0007 14.3434 21.6575 13.0002 20.0006 13.0002ZM14.0004 16.0004C14.0004 12.6866 16.6868 10.0002 20.0006 10.0002C23.3144 10.0002 26.0007 12.6866 26.0007 16.0004C26.0007 19.3142 23.3144 22.0005 20.0006 22.0005C16.6868 22.0005 14.0004 19.3142 14.0004 16.0004Z" fill="black"/>
</svg>
