<svg width="40" height="40" viewBox="0 0 40 40" fill="none" xmlns="http://www.w3.org/2000/svg">
<path fill-rule="evenodd" clip-rule="evenodd" d="M7.25 19.9993C7.25 12.958 12.958 7.25 19.9993 7.25C27.0405 7.25 32.7485 12.958 32.7485 19.9993C32.7485 27.0405 27.0405 32.7485 19.9993 32.7485C12.958 32.7485 7.25 27.0405 7.25 19.9993ZM19.9993 4.25C11.3012 4.25 4.25 11.3012 4.25 19.9993C4.25 28.6973 11.3012 35.7485 19.9993 35.7485C28.6973 35.7485 35.7485 28.6973 35.7485 19.9993C35.7485 11.3012 28.6973 4.25 19.9993 4.25ZM19.916 13.9522C19.8794 13.9522 19.8496 13.9819 19.8496 14.0186C19.8496 14.0553 19.8794 14.085 19.916 14.085C19.9527 14.085 19.9824 14.0553 19.9824 14.0186C19.9824 13.9819 19.9527 13.9522 19.916 13.9522ZM18.183 14.0186C18.183 13.0614 18.9589 12.2855 19.916 12.2855C20.8732 12.2855 21.6491 13.0614 21.6491 14.0186C21.6491 14.9757 20.8732 15.7516 19.916 15.7516C18.9589 15.7516 18.183 14.9757 18.183 14.0186ZM19.9992 20.7146C20.6896 20.7146 21.2492 21.2742 21.2492 21.9646V25.8954C21.2492 26.5857 20.6896 27.1454 19.9992 27.1454C19.3089 27.1454 18.7492 26.5857 18.7492 25.8954V21.9646C18.7492 21.2742 19.3089 20.7146 19.9992 20.7146Z" fill="black"/>
</svg>
