<svg width="40" height="40" viewBox="0 0 40 40" fill="none" xmlns="http://www.w3.org/2000/svg">
<path fill-rule="evenodd" clip-rule="evenodd" d="M20.5126 6.17937C20.1873 6.03355 19.8152 6.03355 19.4899 6.17937L6.81138 11.8629C6.38932 12.0521 6.10623 12.4589 6.07547 12.9204L7.3227 13.0035C6.07547 12.9204 6.07543 12.9209 6.0754 12.9214L6.07529 12.923L6.07501 12.9274L6.07412 12.9416L6.07126 12.991C6.06894 13.0332 6.06586 13.0935 6.06254 13.1708C6.0559 13.3253 6.04829 13.548 6.04382 13.829C6.03491 14.3907 6.03855 15.1877 6.08804 16.1422C6.18665 18.044 6.46894 20.6055 7.21479 23.1872C7.95813 25.7604 9.18645 28.4392 11.2343 30.487C13.3146 32.5673 16.1743 33.9271 20.0013 33.9271C23.8282 33.9271 26.6879 32.5673 28.7683 30.487C30.8161 28.4392 32.0444 25.7604 32.7877 23.1872C33.5336 20.6055 33.8159 18.044 33.9145 16.1422C33.964 15.1877 33.9676 14.3907 33.9587 13.829C33.9542 13.548 33.9466 13.3253 33.94 13.1708C33.9367 13.0935 33.9336 13.0332 33.9313 12.991L33.9284 12.9416L33.9275 12.9274L33.9272 12.923L33.9271 12.9214C33.9271 12.9209 33.927 12.9204 32.6798 13.0035L33.927 12.9204C33.8963 12.4589 33.6132 12.0521 33.1911 11.8629L20.5126 6.17937ZM8.54351 13.8687L8.54423 13.8258L20.0013 8.68986L31.4583 13.8258L31.459 13.8687C31.4672 14.3829 31.464 15.1229 31.4178 16.0128C31.3252 17.7998 31.061 20.1567 30.3859 22.4934C29.7084 24.8387 28.6415 27.0782 27.0005 28.7192C25.392 30.3277 23.1694 31.4271 20.0013 31.4271C16.8331 31.4271 14.6105 30.3277 13.002 28.7192C11.361 27.0782 10.2941 24.8387 9.61657 22.4934C8.94154 20.1567 8.67734 17.7998 8.58468 16.0128C8.53854 15.1229 8.53535 14.3829 8.54351 13.8687ZM24.9493 16.7958C25.3535 16.2361 25.2275 15.4547 24.6678 15.0505C24.1082 14.6463 23.3268 14.7724 22.9226 15.332L18.1819 21.8961L17.0268 20.51C16.5848 19.9796 15.7966 19.908 15.2663 20.3499C14.7359 20.7919 14.6643 21.5801 15.1062 22.1104L17.2922 24.7336C17.5394 25.0302 17.9098 25.196 18.2957 25.1826C18.6816 25.1692 19.0397 24.9782 19.2658 24.6652L24.9493 16.7958Z" fill="#0E1438"/>
</svg>
