<svg width="40" height="40" viewBox="0 0 40 40" fill="none" xmlns="http://www.w3.org/2000/svg">
<path d="M20 12.5V10.8333M20 27.5V29.1667M23.6092 15C22.8888 14.0037 21.5423 13.3333 20 13.3333H19.537C17.4915 13.3333 15.8333 14.6599 15.8333 16.2963V16.4235C15.8333 17.594 16.66 18.664 17.9687 19.1875L22.0313 20.8125C23.34 21.336 24.1667 22.406 24.1667 23.5765C24.1667 25.2832 22.4373 26.6667 20.304 26.6667H20C18.4577 26.6667 17.1112 25.9963 16.3908 25M35 20C35 28.2843 28.2843 35 20 35C11.7157 35 5 28.2843 5 20C5 11.7157 11.7157 5 20 5C28.2843 5 35 11.7157 35 20Z" stroke="black" stroke-width="3.33333" stroke-linecap="round" stroke-linejoin="round"/>
</svg>
