<svg width="40" height="40" viewBox="0 0 40 40" fill="none" xmlns="http://www.w3.org/2000/svg">
<path fill-rule="evenodd" clip-rule="evenodd" d="M7.26797 0.661133C4.96212 0.661133 3.09287 2.53039 3.09287 4.83624V25.4496C3.09287 25.5524 3.10173 25.6531 3.11873 25.751L1.32109 34.2898C0.774764 36.8849 2.75472 39.3251 5.40663 39.3251H34.593C37.2449 39.3251 39.2249 36.8849 38.6786 34.2898L36.8809 25.7507C36.8978 25.6529 36.9067 25.5523 36.9067 25.4496V4.83624C36.9067 2.53039 35.0374 0.661133 32.7316 0.661133H7.26797ZM33.6092 27.1996H6.39048L4.74601 35.0109C4.65767 35.4305 4.97782 35.8251 5.40663 35.8251H34.593C35.0218 35.8251 35.342 35.4305 35.2537 35.0109L33.6092 27.1996ZM6.59286 4.83624C6.59286 4.46339 6.89512 4.16113 7.26797 4.16113H32.7316C33.1044 4.16113 33.4067 4.46339 33.4067 4.83624V23.6996H6.59286V4.83624Z" fill="black"/>
</svg>
