<svg width="40" height="40" viewBox="0 0 40 40" fill="none" xmlns="http://www.w3.org/2000/svg">
<path d="M33.7469 27.4781C32.9969 29.1438 32.6355 29.8884 31.6708 31.3585C30.3203 33.4128 28.4154 35.978 26.0622 35.9943C23.9671 36.0133 23.4263 34.6275 20.5812 34.6519C17.7389 34.6655 17.1465 36.0215 15.0487 35.9997C12.6927 35.978 10.8911 33.6682 9.54055 31.6166C5.76341 25.864 5.36395 19.1194 7.69817 15.5325C9.35033 12.9891 11.9617 11.4945 14.4155 11.4945C16.9155 11.4945 18.4861 12.8668 20.5513 12.8668C22.5568 12.8668 23.7768 11.4918 26.6681 11.4918C28.8529 11.4918 31.1627 12.682 32.8148 14.7363C27.4127 17.6983 28.2904 25.4129 33.7469 27.4781ZM24.4725 9.19561C25.5241 7.84508 26.323 5.9402 26.0323 4C24.3176 4.11685 22.3122 5.21195 21.141 6.63041C20.0785 7.92388 19.1981 9.84234 19.5405 11.6983C21.4127 11.7581 23.3502 10.6413 24.4725 9.19561Z" fill="black"/>
</svg>
