<svg width="40" height="40" viewBox="0 0 40 40" fill="none" xmlns="http://www.w3.org/2000/svg">
<path fill-rule="evenodd" clip-rule="evenodd" d="M4.76923 10.2554C4.76923 9.75436 5.17538 9.34821 5.67639 9.34821H20H34.3236C34.8246 9.34821 35.2308 9.75436 35.2308 10.2554V29.7355C35.2308 30.2365 34.8246 30.6426 34.3236 30.6426H21.2065C20.6741 28.9171 19.8698 27.092 18.8552 25.6317C18.3314 24.8778 17.6808 24.1219 16.91 23.5561C18.5547 22.6318 19.6658 20.8704 19.6658 18.8495C19.6658 15.8698 17.2503 13.4543 14.2706 13.4543C11.2909 13.4543 8.87533 15.8698 8.87533 18.8495C8.87533 20.8704 9.9864 22.6318 11.631 23.5561C10.8602 24.1218 10.2095 24.8777 9.68571 25.6317C8.67116 27.092 7.86686 28.9171 7.33446 30.6426H5.67639C5.17538 30.6426 4.76923 30.2365 4.76923 29.7355V10.2554ZM16.581 27.2118C17.2502 28.175 17.8385 29.3938 18.2877 30.6426H10.2533C10.7025 29.3938 11.2907 28.175 11.9599 27.2118C12.8983 25.8612 13.7212 25.3906 14.2705 25.3906C14.8197 25.3906 15.6427 25.8612 16.581 27.2118ZM5.67639 6.57898C3.64598 6.57898 2 8.22496 2 10.2554V29.7355C2 31.7659 3.64598 33.4119 5.67639 33.4119H34.3236C36.354 33.4119 38 31.7659 38 29.7355V10.2554C38 8.22495 36.354 6.57898 34.3236 6.57898H20H5.67639ZM11.6446 18.8495C11.6446 17.3992 12.8203 16.2235 14.2706 16.2235C15.7209 16.2235 16.8966 17.3992 16.8966 18.8495C16.8966 20.2998 15.7209 21.4755 14.2706 21.4755C12.8203 21.4755 11.6446 20.2998 11.6446 18.8495ZM26.3024 15.7461C25.5377 15.7461 24.9178 16.366 24.9178 17.1307C24.9178 17.8954 25.5377 18.5153 26.3024 18.5153H29.7401C30.5048 18.5153 31.1247 17.8954 31.1247 17.1307C31.1247 16.366 30.5048 15.7461 29.7401 15.7461H26.3024ZM26.3024 22.6214C25.5377 22.6214 24.9178 23.2413 24.9178 24.006C24.9178 24.7707 25.5377 25.3906 26.3024 25.3906H29.7401C30.5048 25.3906 31.1247 24.7707 31.1247 24.006C31.1247 23.2413 30.5048 22.6214 29.7401 22.6214H26.3024Z" fill="black"/>
</svg>
