<svg width="40" height="40" viewBox="0 0 40 40" fill="none" xmlns="http://www.w3.org/2000/svg">
<path fill-rule="evenodd" clip-rule="evenodd" d="M20.6151 5.17128C20.2248 4.99629 19.7783 4.99629 19.388 5.17128L5.92115 11.2081C5.41468 11.4352 5.07497 11.9233 5.03805 12.4771L6.53473 12.5769C5.03805 12.4771 5.03801 12.4777 5.03797 12.4784L5.03785 12.4801L5.03753 12.4851L5.03656 12.5007L5.03347 12.5542C5.03096 12.5996 5.02766 12.6644 5.0241 12.7472C5.01698 12.9128 5.00885 13.1508 5.00408 13.451C4.99456 14.0509 4.99845 14.9014 5.05126 15.9197C5.15641 17.9476 5.4575 20.6824 6.25459 23.4416C7.04869 26.1904 8.3645 29.066 10.5677 31.2692C12.8098 33.5114 15.8913 34.9737 20.0016 34.9737C24.1118 34.9737 27.1933 33.5114 29.4354 31.2692C31.6386 29.066 32.9544 26.1904 33.7485 23.4416C34.5456 20.6824 34.8467 17.9476 34.9518 15.9197C35.0046 14.9014 35.0085 14.0509 34.999 13.451C34.9943 13.1508 34.9861 12.9128 34.979 12.7472C34.9754 12.6644 34.9721 12.5996 34.9696 12.5542L34.9665 12.5007L34.9656 12.4851L34.9653 12.4801L34.9651 12.4784C34.9651 12.4777 34.965 12.4771 33.4684 12.5769L34.965 12.4771C34.9281 11.9233 34.5884 11.4352 34.082 11.2081L20.6151 5.17128ZM8.04723 15.7643C8.00034 14.8599 7.99542 14.1022 8.00276 13.5626L20.0016 8.18386L32.0003 13.5626C32.0077 14.1022 32.0028 14.8599 31.9559 15.7643C31.8579 17.6545 31.5785 20.1439 30.8664 22.609C30.1513 25.0844 29.0291 27.4329 27.3141 29.1479C25.6381 30.8239 23.3212 31.9737 20.0016 31.9737C16.6819 31.9737 14.365 30.8239 12.689 29.1479C10.974 27.4329 9.85185 25.0844 9.13674 22.609C8.42462 20.1439 8.14524 17.6545 8.04723 15.7643ZM25.3969 16.7058C25.8819 16.0342 25.7307 15.0966 25.0591 14.6115C24.3875 14.1265 23.4499 14.2777 22.9649 14.9493L18.0593 21.7416L16.9745 20.4397C16.4441 19.8033 15.4983 19.7173 14.8619 20.2477C14.2255 20.778 14.1395 21.7239 14.6698 22.3603L16.9917 25.1465C17.2883 25.5025 17.7329 25.7014 18.196 25.6854C18.6591 25.6693 19.0887 25.4401 19.36 25.0645L25.3969 16.7058Z" fill="black"/>
</svg>
