<svg width="40" height="40" viewBox="0 0 40 40" fill="none" xmlns="http://www.w3.org/2000/svg">
<g clip-path="url(#clip0_146_33)">
<path d="M33.3393 11.9302C32.1953 12.6307 31.2477 13.6099 30.5852 14.7763C29.9225 15.9427 29.5668 17.2582 29.551 18.5995C29.5555 20.1092 30.0028 21.5843 30.8375 22.8423C31.6722 24.1003 32.8575 25.0858 34.2467 25.6768C33.699 27.444 32.8883 29.1187 31.842 30.6447C30.345 32.7997 28.7797 34.9545 26.398 34.9545C24.0162 34.9545 23.4037 33.5708 20.6588 33.5708C17.9822 33.5708 17.0293 35 14.8516 35C12.6739 35 11.1543 33.0037 9.4075 30.5538C7.10015 27.122 5.83205 23.0972 5.75537 18.9623C5.75537 12.1571 10.1789 8.55047 14.534 8.55047C16.8478 8.55047 18.7762 10.0701 20.2278 10.0701C21.6117 10.0701 23.7667 8.45953 26.398 8.45953C27.7508 8.42463 29.0915 8.72292 30.302 9.32815C31.5125 9.93338 32.5555 10.827 33.3393 11.9302ZM25.1503 5.57877C26.3103 4.2143 26.9668 2.49315 27.0105 0.702837C27.0125 0.46682 26.9897 0.23125 26.9425 0C24.95 0.194628 23.1075 1.14425 21.793 2.65408C20.622 3.96418 19.9407 5.63937 19.8648 7.39495C19.8657 7.60845 19.8885 7.8213 19.933 8.03013C20.09 8.05983 20.2495 8.07505 20.4093 8.0756C21.3275 8.00253 22.2213 7.74352 23.0363 7.3143C23.8515 6.88507 24.5707 6.2946 25.1503 5.57877Z" fill="black"/>
</g>
<defs>
<clipPath id="clip0_146_33">
<rect width="40" height="40" fill="white"/>
</clipPath>
</defs>
</svg>
