<svg width="40" height="40" viewBox="0 0 40 40" fill="none" xmlns="http://www.w3.org/2000/svg">
<path fill-rule="evenodd" clip-rule="evenodd" d="M33.2511 6.75002L34.997 6.87042C35.0342 6.33139 34.8203 5.80541 34.4174 5.44531C34.0146 5.08522 33.468 4.93139 32.9365 5.02853L33.2511 6.75002ZM9.62627 31.7164C12.3903 33.9118 16.0792 35.0012 20.0006 35.0012C23.6363 35.0012 26.3563 32.8636 28.3132 30.1287C30.2614 27.4058 31.6278 23.871 32.5927 20.4794C33.5644 17.0637 34.1635 13.6663 34.52 11.1348C34.6987 9.86585 34.8174 8.80694 34.8916 8.06245C34.9288 7.69005 34.9549 7.39588 34.9718 7.19297C34.9802 7.0915 34.9864 7.0128 34.9905 6.95852L34.9952 6.89557L34.9964 6.8782L34.9968 6.8731L34.9969 6.87146C34.997 6.87089 34.997 6.87042 33.2511 6.75002C32.9365 5.02853 32.9361 5.02861 32.9356 5.0287L32.934 5.02898L32.9292 5.02988L32.9122 5.03302L32.8501 5.04466C32.7964 5.05481 32.7184 5.06974 32.6175 5.08947C32.4159 5.12891 32.1231 5.18758 31.7522 5.26559C31.0106 5.42158 29.9553 5.65524 28.6905 5.96781C26.1661 6.59166 22.7828 7.53576 19.3849 8.81293C16.0075 10.0823 12.5122 11.7186 9.83008 13.7625C7.1835 15.7794 5 18.4539 5 21.8282C5 24.8722 5.91259 27.4804 7.49568 29.5528C7.14543 30.0212 6.83664 30.4495 6.57277 30.8244C6.22358 31.3207 5.95218 31.7249 5.76663 32.0074C5.67383 32.1487 5.60243 32.2597 5.55344 32.3366C5.52894 32.3751 5.51004 32.405 5.49686 32.426L5.4814 32.4507L5.47691 32.4579L5.47548 32.4602L5.47497 32.4611C5.47478 32.4614 5.47461 32.4616 6.67623 33.2055L5.4746 32.4617C5.03856 33.166 5.25609 34.0905 5.96047 34.5266C6.66472 34.9626 7.58902 34.7452 8.02516 34.0411L8.02526 34.0409L8.0254 34.0407L8.02727 34.0377L8.03769 34.0211C8.04747 34.0055 8.06287 33.9811 8.08377 33.9482C8.12558 33.8826 8.18939 33.7834 8.27418 33.6543C8.4438 33.396 8.69715 33.0185 9.02619 32.5509C9.20464 32.2973 9.40509 32.0176 9.62627 31.7164ZM11.7889 28.9644C13.8099 30.5758 16.6853 31.5012 20.0006 31.5012C22.0763 31.5012 23.8683 30.3261 25.4668 28.092C27.0739 25.8459 28.3063 22.7555 29.2262 19.5217C30.1393 16.3122 30.711 13.0843 31.0542 10.6468C31.1419 10.0239 31.2144 9.45461 31.2737 8.95269C30.7595 9.06909 30.1732 9.20668 29.5302 9.3656C27.0856 9.96972 23.8436 10.8761 20.6163 12.0891C17.3684 13.3099 14.2384 14.8036 11.9515 16.5463C9.62914 18.3161 8.5 20.0851 8.5 21.8282C8.5 23.7383 8.96497 25.359 9.77787 26.6973C12.2667 23.7849 15.7479 20.3398 19.7557 18.218C20.4878 17.8304 21.3956 18.1097 21.7832 18.8419C22.1708 19.574 21.8915 20.4818 21.1593 20.8694C17.5266 22.7926 14.2472 26.0487 11.8377 28.9064C11.8214 28.9258 11.8051 28.9451 11.7889 28.9644Z" fill="black"/>
</svg>
