<svg width="40" height="40" viewBox="0 0 40 40" fill="none" xmlns="http://www.w3.org/2000/svg">
<g clip-path="url(#clip0_1649_16)">
<path d="M33.3335 11V29H36.6668V11H33.3335ZM32.3335 30H7.66684V33.3333H32.3335V30ZM6.66684 29V11H3.3335V29H6.66684ZM7.66684 9.99997H32.3335V6.66663H7.66684V9.99997ZM7.66684 30C7.17262 30 6.9022 29.9986 6.70789 29.9828C6.53304 29.9685 6.57099 29.9511 6.66684 30L5.15354 32.97C5.6059 33.2005 6.05547 33.274 6.43645 33.3051C6.79799 33.3346 7.22762 33.3333 7.66684 33.3333V30ZM3.3335 29C3.3335 29.4391 3.3322 29.8688 3.36175 30.2303C3.39287 30.6113 3.46632 31.061 3.69682 31.5133L6.66684 30C6.71567 30.0958 6.69829 30.1338 6.684 29.959C6.66814 29.7646 6.66684 29.4941 6.66684 29H3.3335ZM6.66684 30L3.69682 31.5133C4.01639 32.1405 4.52632 32.6505 5.15354 32.97L6.66684 30ZM33.3335 29C33.3335 29.4941 33.3322 29.7646 33.3163 29.959C33.302 30.1338 33.2847 30.0958 33.3335 30L36.3035 31.5133C36.534 31.061 36.6075 30.6113 36.6387 30.2303C36.6682 29.8688 36.6668 29.4391 36.6668 29H33.3335ZM32.3335 33.3333C32.7727 33.3333 33.2023 33.3346 33.5638 33.3051C33.9448 33.274 34.3945 33.2005 34.8468 32.97L33.3335 30C33.4293 29.9511 33.4673 29.9685 33.2925 29.9828C33.0982 29.9986 32.8277 30 32.3335 30V33.3333ZM33.3335 30L34.8468 32.97C35.474 32.6505 35.984 32.1405 36.3035 31.5133L33.3335 30ZM36.6668 11C36.6668 10.5608 36.6682 10.1311 36.6387 9.76958C36.6075 9.3886 36.534 8.93903 36.3035 8.48667L33.3335 9.99997C33.2847 9.90412 33.302 9.86617 33.3163 10.041C33.3322 10.2353 33.3335 10.5058 33.3335 11H36.6668ZM32.3335 9.99997C32.8277 9.99997 33.0982 10.0013 33.2925 10.0171C33.4673 10.0314 33.4293 10.0488 33.3335 9.99997L34.8468 7.02995C34.3945 6.79945 33.9448 6.726 33.5638 6.69488C33.2023 6.66533 32.7727 6.66663 32.3335 6.66663V9.99997ZM36.3035 8.48667C35.984 7.85945 35.474 7.34952 34.8468 7.02995L33.3335 9.99997L36.3035 8.48667ZM6.66684 11C6.66684 10.5058 6.66814 10.2353 6.684 10.041C6.69829 9.86617 6.71567 9.90412 6.66684 9.99997L3.69682 8.48667C3.46632 8.93903 3.39287 9.3886 3.36175 9.76958C3.3322 10.1311 3.3335 10.5608 3.3335 11H6.66684ZM7.66684 6.66663C7.22762 6.66663 6.79799 6.66533 6.43645 6.69488C6.05547 6.726 5.6059 6.79945 5.15354 7.02995L6.66684 9.99997C6.57099 10.0488 6.53304 10.0314 6.70789 10.0171C6.9022 10.0013 7.17262 9.99997 7.66684 9.99997V6.66663ZM6.66684 9.99997L5.15354 7.02995C4.52632 7.34952 4.01639 7.85945 3.69682 8.48667L6.66684 9.99997ZM33.9448 8.10398L20.0002 19.5131L22.111 22.0931L36.0555 10.6839L33.9448 8.10398ZM20.0002 19.5131L6.05557 8.10398L3.94477 10.6839L17.8893 22.0931L20.0002 19.5131ZM20.0002 19.5131L17.8893 22.0931C19.1173 23.0976 20.883 23.0976 22.111 22.0931L20.0002 19.5131Z" fill="black"/>
</g>
<defs>
<clipPath id="clip0_1649_16">
<rect width="40" height="40" fill="white"/>
</clipPath>
</defs>
</svg>
