<svg width="40" height="40" viewBox="0 0 40 40" fill="none" xmlns="http://www.w3.org/2000/svg">
<path fill-rule="evenodd" clip-rule="evenodd" d="M22.007 9.16868C21.1799 7.51752 18.8235 7.51708 17.9958 9.16795L8.14505 28.8151C7.39711 30.3069 8.48171 32.064 10.1505 32.064H29.8429C31.5113 32.064 32.5959 30.3076 31.8487 28.8158L22.007 9.16868ZM15.314 7.82334C17.2486 3.96484 22.7561 3.96584 24.6893 7.82506L34.531 27.4722C36.2775 30.9588 33.7424 35.064 29.8429 35.064H10.1505C6.25011 35.064 3.71511 30.9571 5.46325 27.4705L15.314 7.82334ZM19.9953 14.5843C20.9158 14.5843 21.662 15.3305 21.662 16.2509V19.9943C21.662 20.9148 20.9158 21.661 19.9953 21.661C19.0748 21.661 18.3286 20.9148 18.3286 19.9943V16.2509C18.3286 15.3305 19.0748 14.5843 19.9953 14.5843ZM19.9255 25.799C19.0051 25.799 18.2589 26.5452 18.2589 27.4657C18.2589 28.3861 19.0051 29.1323 19.9255 29.1323C20.846 29.1323 21.5922 28.3861 21.5922 27.4657C21.5922 26.5452 20.846 25.799 19.9255 25.799Z" fill="black"/>
</svg>
