<svg width="40" height="40" viewBox="0 0 40 40" fill="none" xmlns="http://www.w3.org/2000/svg">
<path fill-rule="evenodd" clip-rule="evenodd" d="M15.536 12.3514C15.536 9.88742 17.5335 7.89001 19.9974 7.89001C22.4613 7.89001 24.4587 9.88742 24.4587 12.3514C24.4587 14.8153 22.4613 16.8127 19.9974 16.8127C17.5335 16.8127 15.536 14.8153 15.536 12.3514ZM19.9974 4.39001C15.6005 4.39001 12.036 7.95443 12.036 12.3514C12.036 16.7483 15.6005 20.3127 19.9974 20.3127C24.3943 20.3127 27.9587 16.7483 27.9587 12.3514C27.9587 7.95443 24.3943 4.39001 19.9974 4.39001ZM8.85311 30.863C9.47708 29.6815 10.4985 28.383 12.1952 27.3702C13.8932 26.3566 16.3697 25.5684 19.9974 25.5684C23.625 25.5684 26.1015 26.3566 27.7996 27.3702C29.4962 28.383 30.5176 29.6815 31.1416 30.863C31.2436 31.0561 31.2502 31.1869 31.2416 31.2664C31.2323 31.3531 31.195 31.4613 31.0985 31.5824C30.8941 31.8391 30.4518 32.1021 29.8447 32.1021H10.15C9.54294 32.1021 9.10057 31.8391 8.8962 31.5824C8.7997 31.4613 8.76244 31.3531 8.75307 31.2664C8.74447 31.1869 8.7511 31.0561 8.85311 30.863ZM19.9974 22.0684C15.8503 22.0684 12.7306 22.9745 10.4012 24.3649C8.07053 25.7561 6.63341 27.5713 5.7582 29.2285C4.90533 30.8434 5.18482 32.5403 6.15826 33.7627C7.08526 34.9268 8.57465 35.6021 10.15 35.6021H29.8447C31.4201 35.6021 32.9094 34.9268 33.8364 33.7627C34.8099 32.5403 35.0894 30.8434 34.2365 29.2285C33.3613 27.5713 31.9242 25.7561 29.5935 24.3649C27.2641 22.9745 24.1444 22.0684 19.9974 22.0684Z" fill="black"/>
</svg>
