<svg width="40" height="40" viewBox="0 0 40 40" fill="none" xmlns="http://www.w3.org/2000/svg"><path d="M13.967 5.736 C 10.850 7.235,7.195 8.993,5.844 9.643 C 3.166 10.931,3.080 10.989,3.019 11.550 C 2.958 12.112,3.647 15.934,4.242 18.333 C 6.286 26.580,9.605 32.413,13.800 35.127 C 17.610 37.592,22.426 37.583,26.237 35.104 C 27.659 34.179,28.932 32.945,30.179 31.285 C 32.805 27.790,34.994 22.303,36.292 15.967 C 36.574 14.590,36.916 12.536,36.970 11.900 C 37.014 11.384,36.906 11.084,36.593 10.852 C 36.505 10.787,32.806 8.994,28.373 6.867 C 20.858 3.262,20.290 3.000,19.973 3.006 C 19.668 3.011,19.061 3.286,13.967 5.736 M26.000 13.400 C 26.000 14.243,25.992 14.933,25.983 14.933 C 25.974 14.933,25.817 14.877,25.633 14.808 C 23.981 14.189,22.213 15.230,21.930 16.990 C 21.853 17.468,21.967 18.143,22.203 18.606 C 22.440 19.070,23.018 19.627,23.477 19.833 C 24.143 20.132,24.620 20.183,25.242 20.023 C 25.531 19.949,25.819 19.866,25.883 19.837 C 25.992 19.789,26.000 19.868,26.000 20.993 L 26.000 22.200 24.382 22.200 C 23.018 22.200,22.695 22.219,22.324 22.322 C 21.242 22.622,20.347 23.493,19.989 24.595 C 19.863 24.982,19.843 25.231,19.816 26.718 L 19.785 28.402 17.409 28.384 L 15.033 28.367 15.016 20.117 L 14.999 11.867 20.500 11.867 L 26.000 11.867 26.000 13.400 " stroke="none" fill-rule="evenodd"></path></svg>