<svg width="40" height="40" viewBox="0 0 40 40" fill="none" xmlns="http://www.w3.org/2000/svg">
<path fill-rule="evenodd" clip-rule="evenodd" d="M13.8737 4.83997C8.88452 4.83997 4.84003 8.88446 4.84003 13.8736V26.1157C4.84003 31.1049 8.88452 35.1494 13.8737 35.1494H26.1158C31.1049 35.1494 35.1494 31.1049 35.1494 26.1157V13.8736C35.1494 8.88446 31.1049 4.83997 26.1158 4.83997H13.8737ZM7.84003 13.8736C7.84003 10.5413 10.5414 7.83997 13.8737 7.83997H26.1158C29.4481 7.83997 32.1494 10.5413 32.1494 13.8736V26.1157C32.1494 29.448 29.4481 32.1494 26.1158 32.1494H13.8737C10.5414 32.1494 7.84003 29.448 7.84003 26.1157V13.8736ZM11.3194 20.0656C12.0581 19.6963 12.9558 19.9936 13.3284 20.7295L13.3379 20.7474C13.3487 20.7674 13.3683 20.8028 13.3968 20.8514C13.4539 20.949 13.5462 21.0985 13.6752 21.2827C13.9345 21.6531 14.3339 22.1527 14.8827 22.6516C15.9703 23.6403 17.6264 24.6158 19.9947 24.6158C22.363 24.6158 24.0192 23.6403 25.1068 22.6516C25.6556 22.1527 26.055 21.6531 26.3142 21.2827C26.4432 21.0985 26.5356 20.949 26.5927 20.8514C26.6212 20.8028 26.6408 20.7674 26.6515 20.7474L26.661 20.7297L13.3284 20.7295L26.6611 20.7295C27.0337 19.9936 27.9314 19.6963 28.67 20.0656C29.411 20.4361 29.7113 21.3371 29.3409 22.0781L27.9992 21.4072C29.3409 22.0781 29.3405 22.0787 29.3402 22.0794L29.3395 22.0808L29.3379 22.084L29.334 22.0916L29.3235 22.1121C29.3152 22.128 29.3045 22.1483 29.2913 22.1728C29.2648 22.2218 29.2283 22.2876 29.1814 22.3677C29.0876 22.5276 28.9519 22.746 28.7719 23.0031C28.4132 23.5156 27.8709 24.1931 27.1248 24.8714C25.6227 26.2369 23.2766 27.6158 19.9947 27.6158C16.7128 27.6158 14.3667 26.2369 12.8646 24.8714C12.1186 24.1931 11.5763 23.5156 11.2175 23.0031C11.0375 22.746 10.9018 22.5276 10.8081 22.3677C10.7612 22.2876 10.7247 22.2218 10.6982 22.1728C10.685 22.1483 10.6743 22.128 10.666 22.1121L10.6555 22.0916L10.6516 22.084L10.65 22.0808L10.6493 22.0794C10.6489 22.0787 10.6486 22.0781 11.9903 21.4072L10.6486 22.0781C10.2781 21.3371 10.5785 20.4361 11.3194 20.0656ZM16.2279 14.0362C15.0175 14.0362 14.0362 15.0174 14.0362 16.2279C14.0362 17.1819 14.6458 17.9935 15.4966 18.2946C15.7436 18.3933 16.013 18.4476 16.2952 18.4476C17.484 18.4476 18.4477 17.4839 18.4477 16.2951C18.4477 16.013 18.3934 15.7435 18.2947 15.4966C17.9936 14.6457 17.182 14.0362 16.2279 14.0362ZM21.5699 16.2279C21.5699 15.0174 22.5511 14.0362 23.7616 14.0362C24.7156 14.0362 25.5272 14.6457 25.8283 15.4966C25.927 15.7435 25.9813 16.013 25.9813 16.2951C25.9813 17.4839 25.0176 18.4476 23.8288 18.4476C23.5467 18.4476 23.2772 18.3933 23.0303 18.2946C22.1794 17.9935 21.5699 17.1819 21.5699 16.2279Z" fill="black"/>
</svg>
