<svg width="40" height="40" viewBox="0 0 40 40" fill="none" xmlns="http://www.w3.org/2000/svg"><path d="M19.267 3.374 C 18.255 3.499,17.435 3.746,16.577 4.185 C 13.259 5.883,11.711 9.718,12.913 13.267 C 13.791 15.861,16.089 17.789,18.833 18.235 C 23.092 18.928,27.107 15.776,27.457 11.467 C 27.766 7.665,25.230 4.271,21.504 3.503 C 20.974 3.393,19.703 3.320,19.267 3.374 M21.200 6.836 C 22.504 7.222,23.723 8.501,24.031 9.807 C 24.160 10.353,24.160 11.313,24.031 11.860 C 23.781 12.921,22.860 14.067,21.863 14.557 C 20.680 15.140,19.327 15.140,18.133 14.558 C 17.748 14.370,17.503 14.182,17.067 13.740 C 16.461 13.127,16.155 12.612,15.966 11.885 C 15.838 11.394,15.838 10.273,15.966 9.781 C 16.358 8.276,17.715 7.007,19.223 6.735 C 19.693 6.650,20.755 6.705,21.200 6.836 M19.067 20.039 C 18.238 20.111,17.437 20.220,16.867 20.340 C 11.645 21.440,7.618 25.405,6.259 30.787 C 6.042 31.647,6.027 31.923,6.167 32.518 C 6.441 33.681,7.338 34.595,8.503 34.898 C 8.847 34.988,10.243 35.000,20.000 35.000 C 29.629 35.000,31.156 34.987,31.487 34.901 C 32.707 34.583,33.656 33.560,33.870 32.333 C 33.956 31.843,33.921 31.456,33.726 30.733 C 32.989 27.996,31.787 25.862,29.946 24.023 C 27.801 21.880,25.001 20.521,21.944 20.138 C 21.328 20.060,19.535 19.999,19.067 20.039 M21.133 23.405 C 22.608 23.541,23.751 23.867,25.018 24.513 C 27.703 25.883,29.662 28.368,30.457 31.417 L 30.523 31.667 19.987 31.667 C 10.854 31.667,9.457 31.654,9.489 31.571 C 9.509 31.518,9.560 31.346,9.601 31.188 C 10.066 29.400,11.203 27.491,12.555 26.226 C 14.869 24.061,17.802 23.097,21.133 23.405 " stroke="none" fill-rule="evenodd" fill="black"></path></svg>