<svg width="40" height="40" viewBox="0 0 40 40" fill="none" xmlns="http://www.w3.org/2000/svg">
<path fill-rule="evenodd" clip-rule="evenodd" d="M12.8433 11.0755C14.8033 9.50165 17.2927 8.56 20.002 8.56C26.3213 8.56 31.444 13.6828 31.444 20.002C31.444 22.7113 30.5024 25.2007 28.9285 27.1607L12.8433 11.0755ZM11.0755 12.8433C9.50165 14.8033 8.56 17.2927 8.56 20.002C8.56 26.3213 13.6828 31.444 20.002 31.444C22.7113 31.444 25.2007 30.5024 27.1607 28.9285L11.0755 12.8433ZM20.002 6.06C12.3021 6.06 6.06 12.3021 6.06 20.002C6.06 27.702 12.3021 33.944 20.002 33.944C27.702 33.944 33.944 27.702 33.944 20.002C33.944 12.3021 27.702 6.06 20.002 6.06Z" fill="#2D2D2D"/>
</svg>
