<svg width="40" height="40" viewBox="0 0 40 40" fill="none" xmlns="http://www.w3.org/2000/svg"><path d="M26.279 0.100 C 23.071 0.682,20.495 3.305,19.961 6.533 C 19.861 7.139,19.842 7.667,19.911 7.926 C 19.953 8.082,19.965 8.084,20.527 8.047 C 21.946 7.951,23.453 7.262,24.557 6.205 C 25.759 5.053,26.541 3.602,26.872 1.914 C 26.996 1.283,27.042 0.321,26.960 0.105 C 26.913 -0.016,26.922 -0.016,26.279 0.100 M25.267 8.560 C 24.495 8.698,23.788 8.908,22.735 9.313 C 21.251 9.885,20.869 10.004,20.400 10.044 C 19.843 10.092,19.431 9.984,17.924 9.398 C 16.024 8.658,15.088 8.478,13.800 8.603 C 10.825 8.894,8.255 10.743,6.905 13.567 C 6.412 14.597,6.042 15.859,5.858 17.133 C 5.739 17.957,5.760 20.060,5.897 21.100 C 6.235 23.666,6.952 26.043,8.043 28.219 C 9.247 30.619,11.407 33.417,12.743 34.306 C 13.676 34.927,14.651 35.122,15.736 34.905 C 16.046 34.843,16.780 34.600,17.367 34.367 C 19.079 33.684,19.299 33.635,20.667 33.634 C 22.027 33.633,22.325 33.698,23.767 34.309 C 24.243 34.511,24.873 34.734,25.167 34.804 C 25.768 34.949,26.672 34.973,27.213 34.859 C 27.659 34.765,28.400 34.422,28.833 34.108 C 29.675 33.498,30.855 32.120,31.984 30.428 C 32.804 29.199,33.484 27.842,34.003 26.395 L 34.256 25.689 33.878 25.505 C 31.483 24.338,29.835 21.934,29.604 19.271 C 29.373 16.615,30.586 13.947,32.756 12.341 L 33.330 11.916 33.200 11.733 C 32.918 11.338,32.103 10.522,31.646 10.180 C 30.691 9.463,29.521 8.912,28.419 8.662 C 27.653 8.488,25.975 8.434,25.267 8.560 " stroke="none" fill-rule="evenodd"></path></svg>