<svg width="40" height="40" viewBox="0 0 40 40" fill="none" xmlns="http://www.w3.org/2000/svg"><path d="M7.824 6.762 C 7.443 6.881,7.093 7.165,6.880 7.527 C 6.727 7.787,6.700 7.909,6.701 8.333 C 6.702 8.686,6.739 8.902,6.825 9.067 C 6.892 9.195,9.351 11.707,12.289 14.650 L 17.632 20.000 12.289 25.350 C 9.351 28.293,6.892 30.805,6.825 30.933 C 6.739 31.098,6.702 31.314,6.701 31.667 C 6.700 32.096,6.726 32.212,6.888 32.486 C 7.106 32.857,7.504 33.169,7.894 33.274 C 8.231 33.365,8.777 33.315,9.076 33.166 C 9.199 33.104,11.707 30.649,14.650 27.711 L 20.000 22.368 25.350 27.711 C 28.293 30.649,30.801 33.104,30.924 33.166 C 31.684 33.546,32.669 33.240,33.112 32.486 C 33.274 32.212,33.300 32.096,33.299 31.667 C 33.298 31.314,33.261 31.098,33.175 30.933 C 33.108 30.805,30.649 28.293,27.711 25.350 L 22.368 20.000 27.711 14.650 C 30.649 11.707,33.108 9.195,33.175 9.067 C 33.261 8.902,33.298 8.686,33.299 8.333 C 33.300 7.909,33.273 7.787,33.120 7.527 C 32.901 7.154,32.555 6.880,32.149 6.758 C 31.758 6.640,31.572 6.643,31.129 6.772 C 30.777 6.875,30.611 7.034,25.383 12.254 L 20.000 17.631 14.617 12.254 C 9.389 7.034,9.223 6.875,8.871 6.772 C 8.443 6.647,8.198 6.645,7.824 6.762 " stroke="none" fill-rule="evenodd" fill="black"></path></svg>