<svg width="56" height="56" viewBox="0 0 56 56" fill="none" xmlns="http://www.w3.org/2000/svg">
<rect width="56" height="56" rx="2" fill="white"/>
<path fill-rule="evenodd" clip-rule="evenodd" d="M23.536 20.3514C23.536 17.8874 25.5335 15.89 27.9974 15.89C30.4613 15.89 32.4587 17.8874 32.4587 20.3514C32.4587 22.8153 30.4613 24.8127 27.9974 24.8127C25.5335 24.8127 23.536 22.8153 23.536 20.3514ZM27.9974 12.39C23.6005 12.39 20.036 15.9544 20.036 20.3514C20.036 24.7483 23.6005 28.3127 27.9974 28.3127C32.3943 28.3127 35.9587 24.7483 35.9587 20.3514C35.9587 15.9544 32.3943 12.39 27.9974 12.39ZM16.8531 38.863C17.4771 37.6815 18.4985 36.383 20.1952 35.3702C21.8932 34.3566 24.3697 33.5684 27.9974 33.5684C31.625 33.5684 34.1015 34.3566 35.7996 35.3702C37.4962 36.383 38.5176 37.6815 39.1416 38.863C39.2436 39.0561 39.2502 39.1869 39.2416 39.2664C39.2323 39.3531 39.195 39.4613 39.0985 39.5824C38.8941 39.8391 38.4518 40.1021 37.8447 40.1021H18.15C17.5429 40.1021 17.1006 39.8391 16.8962 39.5824C16.7997 39.4613 16.7624 39.3531 16.7531 39.2664C16.7445 39.1869 16.7511 39.0561 16.8531 38.863ZM27.9974 30.0684C23.8503 30.0684 20.7306 30.9745 18.4012 32.3649C16.0705 33.7561 14.6334 35.5713 13.7582 37.2285C12.9053 38.8434 13.1848 40.5403 14.1583 41.7627C15.0853 42.9268 16.5746 43.6021 18.15 43.6021H37.8447C39.4201 43.6021 40.9094 42.9268 41.8364 41.7627C42.8099 40.5403 43.0894 38.8434 42.2365 37.2285C41.3613 35.5713 39.9242 33.7561 37.5935 32.3649C35.2641 30.9745 32.1444 30.0684 27.9974 30.0684Z" fill="black"/>
</svg>
