<svg width="40" height="40" viewBox="0 0 40 40" fill="none" xmlns="http://www.w3.org/2000/svg">
<path d="M10.1932 31.3505C12.4094 28.4905 15.8342 26.6667 20 26.6667C24.1658 26.6667 27.5907 28.4905 29.8068 31.3505M10.1932 31.3505C12.8228 33.6245 16.2508 35 20 35C23.7492 35 27.1772 33.6245 29.8068 31.3505M10.1932 31.3505C7.01255 28.6 5 24.535 5 20C5 11.7157 11.7157 5 20 5C28.2843 5 35 11.7157 35 20C35 24.535 32.9875 28.6 29.8068 31.3505M25 16.6667C25 19.4282 22.7615 21.6667 20 21.6667C17.2385 21.6667 15 19.4282 15 16.6667C15 13.9052 17.2385 11.6667 20 11.6667C22.7615 11.6667 25 13.9052 25 16.6667Z" stroke="black" stroke-width="3.33333" stroke-linejoin="round"/>
</svg>
