<svg width="40" height="40" viewBox="0 0 40 40" fill="none" xmlns="http://www.w3.org/2000/svg"><path d="M18.133 4.592 L 18.133 6.467 19.393 6.467 C 22.079 6.467,23.882 6.844,25.900 7.829 C 28.692 9.192,30.808 11.308,32.171 14.100 C 33.156 16.118,33.533 17.921,33.533 20.607 L 33.533 21.867 35.433 21.867 L 37.333 21.867 37.332 21.150 C 37.329 19.895,37.209 18.091,37.072 17.249 C 36.613 14.434,35.551 11.944,33.808 9.600 C 33.182 8.758,31.591 7.115,30.800 6.493 C 29.028 5.101,26.896 3.995,24.848 3.407 C 23.153 2.920,22.213 2.793,19.983 2.752 L 18.133 2.717 18.133 4.592 " stroke="none" fill-rule="evenodd" fill="black"></path></svg>