<svg width="40" height="40" viewBox="0 0 40 40" fill="none" xmlns="http://www.w3.org/2000/svg">
<path fill-rule="evenodd" clip-rule="evenodd" d="M20.7174 4.94315C20.262 4.739 19.7411 4.739 19.2857 4.94315L5.81888 10.98C5.228 11.2449 4.83168 11.8144 4.78861 12.4605L6.53473 12.5769C4.78861 12.4605 4.78856 12.4612 4.78851 12.4619L4.78838 12.4639L4.78804 12.4692L4.78703 12.4854L4.78385 12.5404C4.78129 12.5868 4.77793 12.6526 4.77433 12.7365C4.76712 12.9042 4.75892 13.1445 4.75411 13.447C4.74452 14.0516 4.74846 14.9079 4.80159 15.9326C4.90734 17.9721 5.21024 20.7273 6.01441 23.511C6.8151 26.2826 8.14704 29.2021 10.3909 31.446C12.6802 33.7353 15.8254 35.2237 20.0016 35.2237C24.1777 35.2237 27.3229 33.7353 29.6122 31.446C31.8561 29.2021 33.188 26.2826 33.9887 23.511C34.7929 20.7273 35.0958 17.9721 35.2015 15.9326C35.2546 14.9079 35.2586 14.0516 35.249 13.447C35.2442 13.1445 35.236 12.9042 35.2288 12.7365C35.2252 12.6526 35.2218 12.5868 35.2193 12.5404L35.2161 12.4854L35.2151 12.4692L35.2147 12.4639L35.2146 12.4619C35.2145 12.4612 35.2145 12.4605 33.4684 12.5769L35.2145 12.4605C35.1714 11.8144 34.7751 11.2449 34.1842 10.98L20.7174 4.94315ZM8.2969 15.7514C8.25477 14.939 8.24677 14.2461 8.25101 13.7253L20.0016 8.45783L31.7521 13.7253C31.7563 14.2461 31.7483 14.939 31.7062 15.7514C31.6088 17.6301 31.3312 20.0991 30.6262 22.5396C29.9177 24.9922 28.8116 27.2968 27.1373 28.9711C25.5085 30.5999 23.2554 31.7237 20.0016 31.7237C16.7477 31.7237 14.4946 30.5999 12.8658 28.9711C11.1915 27.2968 10.0854 24.9922 9.37691 22.5396C8.67188 20.0991 8.39431 17.6301 8.2969 15.7514ZM25.3969 16.7058C25.8819 16.0342 25.7307 15.0966 25.0591 14.6115C24.3875 14.1265 23.4499 14.2777 22.9649 14.9493L18.0593 21.7416L16.9745 20.4397C16.4441 19.8033 15.4983 19.7173 14.8619 20.2477C14.2255 20.778 14.1395 21.7239 14.6698 22.3603L16.9917 25.1465C17.2883 25.5025 17.7329 25.7014 18.196 25.6854C18.6591 25.6693 19.0887 25.4401 19.36 25.0645L25.3969 16.7058Z" fill="black"/>
</svg>
