<svg width="40" height="41" viewBox="0 0 40 41" fill="none" xmlns="http://www.w3.org/2000/svg">
<circle cx="16.5" cy="17" r="2" fill="black"/>
<circle cx="23.5" cy="17" r="2" fill="black"/>
<path d="M14.5 24.333C14.5 24.333 15.875 26.9997 20 26.9997C24.125 26.9997 25.5 24.333 25.5 24.333" stroke="black" stroke-width="2.4" stroke-linecap="round"/>
<rect x="8" y="6" width="24" height="30" rx="5" stroke="black" stroke-width="3"/>
<path d="M33.8785 8.98966C33.7503 9.17603 33.7207 9.41309 33.7992 9.62523L36.081 15.7935C36.3281 16.4616 35.5306 17.0253 34.9832 16.5694L29.9085 12.342C29.7468 12.2074 29.5329 12.1531 29.3266 12.1944L24.5 13.1612C23.8717 13.287 23.4218 12.5684 23.8094 12.0582L26.5797 8.41194C26.7235 8.22255 26.7607 7.97279 26.6782 7.74972L24.4038 1.60127C24.1566 0.933146 24.9542 0.36944 25.5015 0.825387L30.5564 5.03621C30.7292 5.1802 30.9611 5.23171 31.1786 5.17449L35.8662 3.94157C36.49 3.77751 36.9819 4.47714 36.6164 5.00859L33.8785 8.98966Z" fill="white"/>
<path d="M31.9722 8.88165C31.9215 8.94253 31.9072 9.02587 31.9347 9.10018L33.1926 12.5007C33.2712 12.7134 33.0174 12.8928 32.8432 12.7476L30.0564 10.4262C29.9961 10.3759 29.9137 10.3614 29.8398 10.3879L26.5405 11.5743C26.3291 11.6503 26.152 11.3996 26.2942 11.2258L28.5138 8.51194C28.5635 8.45116 28.5773 8.3686 28.5501 8.29495L27.2917 4.89317C27.2131 4.68053 27.4669 4.50113 27.6411 4.64624L30.4269 6.96686C30.4877 7.01758 30.5711 7.03189 30.6454 7.00441L34.046 5.74656C34.2586 5.66791 34.438 5.92174 34.2929 6.09594L31.9722 8.88165Z" fill="black"/>
</svg>
