<svg width="40" height="40" viewBox="0 0 40 40" fill="none" xmlns="http://www.w3.org/2000/svg"><path d="M19.433 3.406 C 18.960 3.475,18.214 3.827,17.814 4.170 C 17.657 4.304,17.414 4.584,17.275 4.791 C 16.741 5.583,3.267 28.531,3.135 28.873 C 2.959 29.328,2.891 30.186,2.993 30.662 C 3.257 31.892,4.216 32.889,5.438 33.201 C 5.945 33.331,6.214 33.333,19.994 33.332 C 32.137 33.331,34.090 33.318,34.451 33.233 C 35.693 32.940,36.641 32.006,36.967 30.753 C 37.156 30.031,37.059 29.242,36.695 28.524 C 36.371 27.883,22.852 4.967,22.597 4.626 C 21.904 3.697,20.680 3.225,19.433 3.406 M26.927 18.400 L 33.736 29.967 20.024 29.983 C 12.482 29.993,6.301 29.989,6.287 29.976 C 6.274 29.963,9.346 24.715,13.115 18.314 C 18.268 9.562,19.985 6.696,20.042 6.755 C 20.083 6.798,23.181 12.038,26.927 18.400 M19.503 15.115 C 19.167 15.201,18.714 15.589,18.511 15.967 C 18.374 16.220,18.366 16.333,18.346 18.200 C 18.332 19.586,18.349 20.251,18.406 20.453 C 18.518 20.856,18.807 21.226,19.181 21.446 C 19.455 21.607,19.570 21.633,20.000 21.632 C 20.559 21.631,20.790 21.539,21.153 21.176 C 21.619 20.710,21.631 20.646,21.655 18.516 C 21.678 16.369,21.642 16.106,21.257 15.641 C 20.878 15.184,20.124 14.958,19.503 15.115 M19.433 23.023 C 18.996 23.167,18.775 23.307,18.489 23.617 C 18.166 23.967,17.933 24.547,17.933 25.000 C 17.933 26.082,18.918 27.067,20.000 27.067 C 21.082 27.067,22.067 26.082,22.067 25.000 C 22.067 24.246,21.532 23.426,20.848 23.131 C 20.427 22.951,19.797 22.902,19.433 23.023 " stroke="none" fill-rule="evenodd" fill="black"></path></svg>