<svg width="40" height="40" viewBox="0 0 40 40" fill="none" xmlns="http://www.w3.org/2000/svg"><path d="M12.490 5.064 C 9.039 5.461,6.117 7.515,4.566 10.633 C 3.090 13.603,2.935 16.755,4.095 20.233 C 5.720 25.106,9.872 29.762,16.233 33.849 C 17.334 34.556,19.026 35.553,19.382 35.704 C 19.704 35.841,20.296 35.841,20.618 35.704 C 20.974 35.553,22.666 34.556,23.767 33.849 C 30.133 29.759,34.273 25.113,35.911 20.218 C 37.045 16.830,36.896 13.605,35.472 10.700 C 34.197 8.099,31.794 6.085,29.116 5.373 C 28.109 5.106,27.560 5.039,26.400 5.041 C 25.527 5.042,25.160 5.073,24.623 5.188 C 23.025 5.531,21.502 6.240,20.088 7.300 C 20.030 7.344,19.970 7.344,19.912 7.300 C 18.496 6.236,16.828 5.471,15.267 5.168 C 14.602 5.040,13.169 4.986,12.490 5.064 M14.376 8.405 C 15.830 8.608,17.264 9.343,18.581 10.563 C 19.151 11.090,19.502 11.264,20.000 11.264 C 20.498 11.264,20.849 11.090,21.419 10.563 C 23.215 8.900,25.177 8.161,27.182 8.392 C 31.015 8.834,33.685 12.434,33.279 16.612 C 33.068 18.783,32.351 20.657,30.898 22.833 C 29.544 24.861,27.423 27.043,24.933 28.973 C 23.550 30.045,20.255 32.200,20.000 32.200 C 19.828 32.200,17.818 30.939,16.400 29.942 C 12.097 26.914,9.117 23.597,7.647 20.196 C 6.658 17.910,6.423 15.627,6.967 13.607 C 7.893 10.171,11.063 7.945,14.376 8.405 " stroke="none" fill-rule="evenodd" fill="black"></path></svg>