<svg width="40" height="40" viewBox="0 0 40 40" fill="none" xmlns="http://www.w3.org/2000/svg">
<path fill-rule="evenodd" clip-rule="evenodd" d="M19.9975 6.06C12.3 6.06 6.06 12.3 6.06 19.9975C6.06 27.695 12.3 33.935 19.9975 33.935C27.695 33.935 33.935 27.695 33.935 19.9975C33.935 12.3 27.695 6.06 19.9975 6.06ZM8.56 19.9975C8.56 13.6807 13.6807 8.56 19.9975 8.56C26.3143 8.56 31.435 13.6807 31.435 19.9975C31.435 26.3143 26.3143 31.435 19.9975 31.435C13.6807 31.435 8.56 26.3143 8.56 19.9975ZM25.0192 16.6821C25.3628 16.0833 25.1559 15.3194 24.5571 14.9758C23.9583 14.6322 23.1944 14.8391 22.8508 15.4379L18.837 22.4331C18.6356 22.7841 18.1225 22.763 17.9507 22.3967L17.1916 20.779C16.8984 20.154 16.154 19.8851 15.529 20.1784C14.9041 20.4716 14.6351 21.216 14.9284 21.8409L15.6874 23.4586C16.7186 25.6564 19.7972 25.783 21.0054 23.6773L25.0192 16.6821Z" fill="#0E1438"/>
</svg>
