<svg width="40" height="40" viewBox="0 0 40 40" fill="none" xmlns="http://www.w3.org/2000/svg">
<path fill-rule="evenodd" clip-rule="evenodd" d="M29.4531 9.22993C29.1802 9.22993 28.959 9.45114 28.959 9.72401V30.2755C28.959 30.5483 29.1802 30.7695 29.4531 30.7695H30.2751C30.548 30.7695 30.7692 30.5483 30.7692 30.2755V9.72401C30.7692 9.45114 30.548 9.22993 30.2751 9.22993H29.4531ZM26.659 9.72401C26.659 8.18089 27.9099 6.92993 29.4531 6.92993H30.2751C31.8182 6.92993 33.0692 8.18089 33.0692 9.72401V30.2755C33.0692 31.8186 31.8182 33.0695 30.2751 33.0695H29.4531C27.9099 33.0695 26.659 31.8186 26.659 30.2755V9.72401ZM15.9902 9.22993L7.26682 17.9533C6.81772 18.4024 6.81772 19.1305 7.26682 19.5796C7.71592 20.0287 8.44406 20.0287 8.89317 19.5796L17.6165 10.8563V13.8342C17.6165 14.4693 18.1314 14.9842 18.7665 14.9842C19.4017 14.9842 19.9165 14.4693 19.9165 13.8342V8.07993C19.9165 7.4448 19.4017 6.92993 18.7665 6.92993H13.0122C12.3771 6.92993 11.8622 7.4448 11.8622 8.07993C11.8622 8.71506 12.3771 9.22993 13.0122 9.22993H15.9902ZM9.72408 25.6708C9.4512 25.6708 9.22999 25.892 9.22999 26.1648V30.2755C9.22999 30.5483 9.4512 30.7695 9.72408 30.7695H10.5461C10.819 30.7695 11.0402 30.5483 11.0402 30.2755V26.1648C11.0402 25.892 10.819 25.6708 10.5461 25.6708H9.72408ZM6.92999 26.1648C6.92999 24.6217 8.18095 23.3708 9.72408 23.3708H10.5461C12.0893 23.3708 13.3402 24.6217 13.3402 26.1648V30.2755C13.3402 31.8186 12.0893 33.0695 10.5461 33.0695H9.72408C8.18095 33.0695 6.92999 31.8186 6.92999 30.2755V26.1648ZM19.0945 21.2326C19.0945 20.9597 19.3157 20.7385 19.5886 20.7385H20.4106C20.6835 20.7385 20.9047 20.9597 20.9047 21.2326V30.2755C20.9047 30.5483 20.6835 30.7695 20.4106 30.7695H19.5886C19.3157 30.7695 19.0945 30.5483 19.0945 30.2755V21.2326ZM19.5886 18.4385C18.0454 18.4385 16.7945 19.6895 16.7945 21.2326V30.2755C16.7945 31.8186 18.0454 33.0695 19.5886 33.0695H20.4106C21.9537 33.0695 23.2047 31.8186 23.2047 30.2755V21.2326C23.2047 19.6895 21.9537 18.4385 20.4106 18.4385H19.5886Z" fill="black"/>
</svg>
