<svg width="40" height="40" viewBox="0 0 40 40" fill="none" xmlns="http://www.w3.org/2000/svg">
<path fill-rule="evenodd" clip-rule="evenodd" d="M29.4531 9.22999C29.1802 9.22999 28.959 9.4512 28.959 9.72408V30.2755C28.959 30.5484 29.1802 30.7696 29.4531 30.7696H30.2751C30.548 30.7696 30.7692 30.5484 30.7692 30.2755V9.72408C30.7692 9.4512 30.548 9.22999 30.2751 9.22999H29.4531ZM26.659 9.72408C26.659 8.18095 27.9099 6.92999 29.4531 6.92999H30.2751C31.8182 6.92999 33.0692 8.18095 33.0692 9.72408V30.2755C33.0692 31.8186 31.8182 33.0696 30.2751 33.0696H29.4531C27.9099 33.0696 26.659 31.8186 26.659 30.2755V9.72408ZM15.9902 9.22999L7.26682 17.9534C6.81772 18.4025 6.81772 19.1306 7.26682 19.5797C7.71592 20.0288 8.44406 20.0288 8.89317 19.5797L17.6165 10.8563V13.8343C17.6165 14.4694 18.1314 14.9843 18.7665 14.9843C19.4017 14.9843 19.9165 14.4694 19.9165 13.8343V8.07999C19.9165 7.44487 19.4017 6.92999 18.7665 6.92999H13.0122C12.3771 6.92999 11.8622 7.44487 11.8622 8.07999C11.8622 8.71512 12.3771 9.22999 13.0122 9.22999H15.9902ZM9.72408 25.6708C9.4512 25.6708 9.22999 25.892 9.22999 26.1649V30.2755C9.22999 30.5484 9.4512 30.7696 9.72408 30.7696H10.5461C10.819 30.7696 11.0402 30.5484 11.0402 30.2755V26.1649C11.0402 25.892 10.819 25.6708 10.5461 25.6708H9.72408ZM6.92999 26.1649C6.92999 24.6218 8.18095 23.3708 9.72408 23.3708H10.5461C12.0893 23.3708 13.3402 24.6218 13.3402 26.1649V30.2755C13.3402 31.8186 12.0893 33.0696 10.5461 33.0696H9.72408C8.18095 33.0696 6.92999 31.8187 6.92999 30.2755V26.1649ZM19.0945 21.2327C19.0945 20.9598 19.3157 20.7386 19.5886 20.7386H20.4106C20.6835 20.7386 20.9047 20.9598 20.9047 21.2327V30.2755C20.9047 30.5484 20.6835 30.7696 20.4106 30.7696H19.5886C19.3157 30.7696 19.0945 30.5484 19.0945 30.2755V21.2327ZM19.5886 18.4386C18.0454 18.4386 16.7945 19.6895 16.7945 21.2327V30.2755C16.7945 31.8186 18.0454 33.0696 19.5886 33.0696H20.4106C21.9537 33.0696 23.2047 31.8186 23.2047 30.2755V21.2327C23.2047 19.6895 21.9537 18.4386 20.4106 18.4386H19.5886Z" fill="#0E1438"/>
</svg>
