<svg width="40" height="40" viewBox="0 0 40 40" fill="none" xmlns="http://www.w3.org/2000/svg"><path d="M6.117 5.101 C 5.747 5.237,5.416 5.515,5.213 5.860 C 5.036 6.162,5.033 6.187,5.011 7.533 C 4.977 9.606,5.149 10.891,5.675 12.500 C 6.345 14.547,7.491 16.367,9.076 17.902 C 10.191 18.981,11.177 19.672,12.548 20.334 C 14.208 21.136,16.364 21.667,17.963 21.667 L 18.331 21.667 18.349 27.755 L 18.367 33.844 18.569 34.172 C 19.240 35.263,20.754 35.259,21.433 34.166 L 21.633 33.844 21.652 30.255 L 21.671 26.667 22.038 26.667 C 23.636 26.667,25.792 26.136,27.452 25.334 C 28.823 24.672,29.809 23.981,30.924 22.902 C 32.509 21.367,33.655 19.547,34.325 17.500 C 34.851 15.891,35.023 14.606,34.989 12.533 C 34.967 11.187,34.964 11.162,34.787 10.860 C 34.567 10.488,34.221 10.213,33.816 10.091 C 33.446 9.980,31.515 9.967,30.443 10.069 C 28.789 10.226,27.305 10.642,25.834 11.362 C 24.311 12.107,23.224 12.905,22.004 14.174 C 21.595 14.600,21.252 14.938,21.243 14.924 C 21.234 14.911,21.113 14.552,20.975 14.126 C 20.390 12.316,19.347 10.579,18.001 9.173 C 15.731 6.800,12.794 5.372,9.567 5.069 C 8.491 4.968,6.427 4.987,6.117 5.101 M9.273 8.399 C 13.202 8.781,16.522 11.395,17.785 15.100 C 18.086 15.982,18.322 17.319,18.332 18.193 L 18.333 18.353 17.683 18.308 C 13.666 18.026,10.172 15.350,8.881 11.567 C 8.582 10.689,8.345 9.351,8.335 8.483 C 8.333 8.309,8.341 8.308,9.273 8.399 M31.665 13.483 C 31.655 14.351,31.418 15.689,31.119 16.567 C 29.829 20.347,26.330 23.027,22.317 23.308 L 21.667 23.353 21.668 23.193 C 21.678 22.319,21.914 20.982,22.215 20.100 C 23.463 16.438,26.802 13.783,30.633 13.404 C 31.602 13.309,31.667 13.314,31.665 13.483 " stroke="none" fill-rule="evenodd" fill="black"></path></svg>