<svg width="40" height="40" viewBox="0 0 40 40" fill="none" xmlns="http://www.w3.org/2000/svg">
<path fill-rule="evenodd" clip-rule="evenodd" d="M31.04 10.5314C31.6648 9.90658 31.6648 8.89352 31.04 8.26868C30.4151 7.64384 29.4021 7.64384 28.7772 8.26868L19.6543 17.3916L10.5314 8.26868C9.90654 7.64384 8.89347 7.64384 8.26863 8.26868C7.64379 8.89352 7.64379 9.90658 8.26863 10.5314L17.3916 19.6543L8.26863 28.7773C7.64379 29.4021 7.64379 30.4152 8.26863 31.04C8.89347 31.6648 9.90654 31.6648 10.5314 31.04L19.6543 21.9171L28.7772 31.04C29.4021 31.6648 30.4151 31.6648 31.04 31.04C31.6648 30.4152 31.6648 29.4021 31.04 28.7773L21.917 19.6543L31.04 10.5314Z" fill="black"/>
</svg>
