<svg width="40" height="40" viewBox="0 0 40 40" fill="none" xmlns="http://www.w3.org/2000/svg">
<path fill-rule="evenodd" clip-rule="evenodd" d="M12.8433 11.0756C14.8033 9.50172 17.2927 8.56006 20.002 8.56006C26.3213 8.56006 31.444 13.6828 31.444 20.0021C31.444 22.7114 30.5024 25.2008 28.9285 27.1608L12.8433 11.0756ZM11.0755 12.8434C9.50165 14.8034 8.56 17.2928 8.56 20.0021C8.56 26.3213 13.6828 31.4441 20.002 31.4441C22.7113 31.4441 25.2007 30.5024 27.1607 28.9286L11.0755 12.8434ZM20.002 6.06006C12.3021 6.06006 6.06 12.3021 6.06 20.0021C6.06 27.702 12.3021 33.9441 20.002 33.9441C27.702 33.9441 33.944 27.702 33.944 20.0021C33.944 12.3021 27.702 6.06006 20.002 6.06006Z" fill="black"/>
</svg>
