<svg width="40" height="40" viewBox="0 0 40 40" fill="none" xmlns="http://www.w3.org/2000/svg"><path d="M18.467 3.408 C 15.845 3.639,13.138 4.584,10.900 6.049 C 9.841 6.742,9.165 7.296,8.198 8.264 C 4.921 11.544,3.199 15.907,3.355 20.533 C 3.474 24.064,4.586 27.214,6.722 30.067 C 7.384 30.950,8.841 32.441,9.667 33.078 C 12.070 34.935,14.645 36.039,17.667 36.511 C 18.744 36.679,21.256 36.679,22.333 36.511 C 26.064 35.929,29.173 34.367,31.770 31.770 C 34.367 29.172,35.933 26.056,36.510 22.333 C 36.677 21.257,36.677 18.743,36.510 17.667 C 36.042 14.651,34.932 12.064,33.078 9.667 C 32.516 8.941,31.064 7.490,30.333 6.924 C 26.889 4.258,22.744 3.029,18.467 3.408 M21.224 6.735 C 24.291 7.026,27.047 8.293,29.257 10.426 C 33.406 14.430,34.503 20.656,31.972 25.832 C 31.249 27.312,30.371 28.509,29.160 29.668 C 28.126 30.657,27.103 31.365,25.786 32.001 C 22.112 33.775,17.888 33.775,14.214 32.001 C 12.462 31.155,11.020 30.025,9.745 28.500 C 6.414 24.518,5.733 18.837,8.027 14.167 C 10.270 9.601,14.778 6.748,19.867 6.676 C 20.215 6.671,20.826 6.698,21.224 6.735 M14.491 13.428 C 14.110 13.548,13.760 13.831,13.547 14.194 C 13.394 14.454,13.367 14.575,13.368 15.000 C 13.369 15.354,13.405 15.568,13.492 15.733 C 13.559 15.862,14.518 16.874,15.623 17.983 L 17.630 20.000 15.623 22.017 C 14.518 23.126,13.564 24.134,13.502 24.258 C 13.120 25.015,13.426 26.002,14.181 26.446 C 14.455 26.607,14.570 26.633,15.000 26.632 C 15.354 26.631,15.568 26.595,15.733 26.508 C 15.862 26.441,16.874 25.482,17.983 24.377 L 20.000 22.370 22.017 24.377 C 23.126 25.482,24.134 26.436,24.258 26.498 C 25.015 26.880,26.002 26.574,26.446 25.819 C 26.607 25.545,26.633 25.430,26.632 25.000 C 26.631 24.646,26.595 24.432,26.508 24.267 C 26.441 24.138,25.482 23.126,24.377 22.017 L 22.370 20.000 24.377 17.983 C 25.482 16.874,26.441 15.862,26.508 15.733 C 26.595 15.568,26.631 15.354,26.632 15.000 C 26.633 14.575,26.606 14.454,26.453 14.194 C 26.234 13.821,25.888 13.547,25.483 13.425 C 25.090 13.307,24.905 13.310,24.462 13.440 C 24.121 13.542,23.983 13.664,22.050 15.587 L 20.000 17.627 17.950 15.587 C 16.017 13.664,15.879 13.542,15.538 13.440 C 15.111 13.314,14.866 13.311,14.491 13.428 " stroke="none" fill-rule="evenodd" fill="black"></path></svg>