<svg width="40" height="40" viewBox="0 0 40 40" fill="none" xmlns="http://www.w3.org/2000/svg"><path d="M5.795 5.122 C 4.676 5.414,3.730 6.372,3.433 7.513 C 3.283 8.089,3.283 28.578,3.433 29.154 C 3.717 30.244,4.605 31.179,5.700 31.539 C 5.900 31.605,6.818 31.636,9.373 31.664 L 12.779 31.700 12.222 33.633 C 11.751 35.269,11.669 35.624,11.692 35.938 C 11.737 36.570,12.133 37.133,12.700 37.373 C 13.031 37.512,13.619 37.512,13.948 37.372 C 14.264 37.238,14.643 36.905,14.782 36.640 C 14.842 36.526,15.196 35.368,15.569 34.067 L 16.248 31.700 20.000 31.700 L 23.752 31.700 24.431 34.067 C 24.804 35.368,25.158 36.526,25.218 36.640 C 25.357 36.905,25.736 37.238,26.052 37.372 C 26.381 37.512,26.969 37.512,27.300 37.373 C 27.867 37.133,28.263 36.570,28.308 35.938 C 28.331 35.624,28.249 35.269,27.778 33.633 L 27.221 31.700 30.627 31.664 C 34.242 31.625,34.220 31.627,34.900 31.283 C 35.333 31.064,36.067 30.326,36.291 29.884 C 36.681 29.114,36.665 29.625,36.665 18.333 C 36.665 7.079,36.679 7.549,36.302 6.804 C 36.077 6.360,35.494 5.748,35.029 5.468 C 34.205 4.972,35.362 5.008,20.000 5.008 C 7.201 5.008,6.202 5.016,5.795 5.122 M33.333 18.333 L 33.333 28.333 20.000 28.333 L 6.667 28.333 6.667 18.333 L 6.667 8.333 20.000 8.333 L 33.333 8.333 33.333 18.333 M19.450 11.768 C 19.081 11.903,18.750 12.182,18.547 12.527 L 18.367 12.833 18.367 18.339 L 18.367 23.844 18.569 24.172 C 19.239 25.260,20.761 25.260,21.431 24.172 L 21.633 23.844 21.633 18.339 L 21.633 12.833 21.453 12.527 C 21.039 11.823,20.183 11.499,19.450 11.768 M26.117 16.768 C 25.747 16.903,25.416 17.182,25.213 17.527 L 25.033 17.833 25.033 20.839 L 25.033 23.844 25.235 24.172 C 25.905 25.260,27.428 25.260,28.098 24.172 L 28.300 23.844 28.300 20.839 L 28.300 17.833 28.120 17.527 C 27.706 16.823,26.850 16.499,26.117 16.768 M12.784 20.101 C 12.414 20.237,12.083 20.515,11.880 20.860 C 11.701 21.166,11.700 21.171,11.700 22.505 L 11.700 23.844 11.902 24.172 C 12.015 24.356,12.243 24.594,12.420 24.713 C 13.205 25.240,14.257 24.998,14.765 24.172 L 14.967 23.844 14.967 22.505 C 14.967 21.171,14.966 21.166,14.787 20.860 C 14.373 20.156,13.517 19.832,12.784 20.101 " stroke="none" fill-rule="evenodd" fill="black"></path></svg>