<svg width="40" height="40" viewBox="0 0 40 40" fill="none" xmlns="http://www.w3.org/2000/svg">
<path fill-rule="evenodd" clip-rule="evenodd" d="M20.5126 6.17943C20.1873 6.03361 19.8152 6.03361 19.4899 6.17943L6.81139 11.8629C6.38933 12.0521 6.10624 12.4589 6.07548 12.9204L7.32271 13.0036C6.07548 12.9204 6.07544 12.9209 6.0754 12.9215L6.0753 12.923L6.07502 12.9275L6.07413 12.9417L6.07127 12.9911C6.06895 13.0332 6.06587 13.0936 6.06255 13.1708C6.0559 13.3254 6.04829 13.548 6.04383 13.8291C6.03492 14.3907 6.03855 15.1878 6.08805 16.1423C6.18666 18.0441 6.46895 20.6055 7.21479 23.1873C7.95814 25.7604 9.18646 28.4393 11.2343 30.4871C13.3146 32.5674 16.1743 33.9272 20.0013 33.9272C23.8282 33.9272 26.688 32.5674 28.7683 30.4871C30.8161 28.4393 32.0444 25.7604 32.7877 23.1873C33.5336 20.6055 33.8159 18.0441 33.9145 16.1423C33.964 15.1878 33.9676 14.3907 33.9587 13.8291C33.9542 13.548 33.9466 13.3254 33.94 13.1708C33.9367 13.0936 33.9336 13.0332 33.9313 12.9911L33.9284 12.9417L33.9275 12.9275L33.9272 12.923L33.9271 12.9215C33.9271 12.9209 33.9271 12.9204 32.6798 13.0036L33.9271 12.9204C33.8963 12.4589 33.6132 12.0521 33.1911 11.8629L20.5126 6.17943ZM8.54352 13.8687L8.54423 13.8258L20.0013 8.68992L31.4583 13.8258L31.459 13.8688C31.4672 14.383 31.464 15.1229 31.4178 16.0128C31.3252 17.7998 31.061 20.1568 30.386 22.4934C29.7084 24.8387 28.6415 27.0783 27.0005 28.7193C25.392 30.3278 23.1694 31.4272 20.0013 31.4272C16.8331 31.4272 14.6105 30.3278 13.002 28.7193C11.361 27.0783 10.2941 24.8387 9.61658 22.4934C8.94155 20.1568 8.67735 17.7998 8.58469 16.0128C8.53855 15.1229 8.53536 14.383 8.54352 13.8687ZM24.9493 16.7958C25.3535 16.2362 25.2275 15.4548 24.6678 15.0506C24.1082 14.6464 23.3268 14.7724 22.9226 15.3321L18.1819 21.8962L17.0268 20.51C16.5848 19.9797 15.7966 19.908 15.2663 20.35C14.7359 20.7919 14.6643 21.5801 15.1062 22.1105L17.2922 24.7336C17.5394 25.0303 17.9098 25.196 18.2957 25.1827C18.6817 25.1693 19.0397 24.9783 19.2658 24.6653L24.9493 16.7958Z" fill="black"/>
</svg>
