<svg width="40" height="40" viewBox="0 0 40 40" fill="none" xmlns="http://www.w3.org/2000/svg">
<path fill-rule="evenodd" clip-rule="evenodd" d="M15.286 12.3514C15.286 9.74935 17.3954 7.64001 19.9974 7.64001C22.5994 7.64001 24.7087 9.74935 24.7087 12.3514C24.7087 14.9534 22.5994 17.0627 19.9974 17.0627C17.3954 17.0627 15.286 14.9534 15.286 12.3514ZM19.9974 4.64001C15.7385 4.64001 12.286 8.0925 12.286 12.3514C12.286 16.6102 15.7385 20.0627 19.9974 20.0627C24.2562 20.0627 27.7087 16.6102 27.7087 12.3514C27.7087 8.0925 24.2562 4.64001 19.9974 4.64001ZM8.63204 30.7462C9.27396 29.5307 10.3251 28.1953 12.067 27.1555C13.8102 26.115 16.3326 25.3184 19.9974 25.3184C23.6621 25.3184 26.1845 26.115 27.9277 27.1555C29.6696 28.1953 30.7207 29.5307 31.3627 30.7462C31.578 31.154 31.5102 31.4667 31.2941 31.7382C31.0381 32.0596 30.5209 32.3521 29.8447 32.3521H10.15C9.47377 32.3521 8.95661 32.0596 8.70063 31.7382C8.48446 31.4667 8.4167 31.154 8.63204 30.7462ZM19.9974 22.3184C15.8874 22.3184 12.8136 23.216 10.5294 24.5795C8.24395 25.9437 6.83653 27.722 5.97926 29.3452C5.17543 30.8673 5.43864 32.4577 6.35383 33.607C7.22921 34.7063 8.64381 35.3521 10.15 35.3521H29.8447C31.3509 35.3521 32.7655 34.7063 33.6409 33.607C34.5561 32.4577 34.8193 30.8673 34.0154 29.3452C33.1582 27.722 31.7507 25.9437 29.4653 24.5795C27.1811 23.216 24.1073 22.3184 19.9974 22.3184Z" fill="black"/>
</svg>
