<svg width="40" height="40" viewBox="0 0 40 40" fill="none" xmlns="http://www.w3.org/2000/svg">
<path fill-rule="evenodd" clip-rule="evenodd" d="M20.0047 4.59998C11.4969 4.59998 4.6 11.4969 4.6 20.0047C4.6 28.5125 11.4969 35.4094 20.0047 35.4094C28.5125 35.4094 35.4094 28.5125 35.4094 20.0047C35.4094 11.4969 28.5125 4.59998 20.0047 4.59998ZM8.1 20.0047C8.1 13.4299 13.4299 8.09998 20.0047 8.09998C26.5795 8.09998 31.9094 13.4299 31.9094 20.0047C31.9094 26.5795 26.5795 31.9094 20.0047 31.9094C13.4299 31.9094 8.1 26.5795 8.1 20.0047ZM25.5434 16.5135C25.9557 15.795 25.7075 14.8783 24.9889 14.466C24.2704 14.0537 23.3536 14.3019 22.9414 15.0205L18.6215 22.549C18.4671 22.8181 18.0737 22.8019 17.9419 22.5211L17.125 20.7801C16.7731 20.0301 15.8799 19.7074 15.1299 20.0593C14.3799 20.4112 14.0572 21.3044 14.4091 22.0544L15.226 23.7954C16.389 26.274 19.861 26.4168 21.2236 24.0421L25.5434 16.5135Z" fill="black"/>
</svg>
