<svg width="40" height="40" viewBox="0 0 40 40" fill="none" xmlns="http://www.w3.org/2000/svg">
<g clip-path="url(#clip0_808_25)">
<path d="M19.9953 16.6927V20.0202M20.0002 25H20.0168M18.5592 5.82021L4.81118 29.1593C4.15783 30.2685 4.95866 31.6667 6.24724 31.6667H33.7433C35.0318 31.6667 35.8327 30.2685 35.1793 29.1593L21.4313 5.82021C20.7872 4.7266 19.2033 4.7266 18.5592 5.82021ZM20.4168 25C20.4168 25.2302 20.2303 25.4167 20.0002 25.4167C19.77 25.4167 19.5835 25.2302 19.5835 25C19.5835 24.7698 19.77 24.5833 20.0002 24.5833C20.2303 24.5833 20.4168 24.7698 20.4168 25Z" stroke="black" stroke-width="3.33333" stroke-linecap="round"/>
</g>
<defs>
<clipPath id="clip0_808_25">
<rect width="40" height="40" fill="white"/>
</clipPath>
</defs>
</svg>
