<svg width="40" height="40" viewBox="0 0 40 40" fill="none" xmlns="http://www.w3.org/2000/svg"><path d="M6.143 6.735 C 4.785 6.935,3.722 7.941,3.434 9.301 C 3.286 10.001,3.286 29.999,3.434 30.699 C 3.578 31.378,3.830 31.839,4.328 32.338 C 4.827 32.837,5.288 33.088,5.968 33.232 C 6.669 33.381,33.331 33.381,34.032 33.232 C 34.712 33.088,35.173 32.837,35.672 32.338 C 36.170 31.839,36.422 31.378,36.566 30.699 C 36.714 29.999,36.714 10.001,36.566 9.301 C 36.319 8.135,35.554 7.273,34.392 6.854 L 33.967 6.700 20.233 6.691 C 12.680 6.686,6.339 6.706,6.143 6.735 M31.563 10.057 C 31.203 10.379,20.110 19.413,20.043 19.439 C 19.990 19.459,17.547 17.506,14.193 14.763 C 11.025 12.172,8.421 10.040,8.406 10.026 C 8.390 10.012,13.609 10.000,20.002 10.000 C 26.396 10.000,31.598 10.025,31.563 10.057 M12.633 17.796 C 16.801 21.209,18.211 22.327,18.567 22.503 C 19.494 22.961,20.536 22.958,21.455 22.495 C 21.774 22.334,23.441 21.010,27.367 17.795 C 30.373 15.334,32.946 13.230,33.083 13.121 L 33.333 12.922 33.333 21.461 L 33.333 30.000 20.000 30.000 L 6.667 30.000 6.667 21.461 L 6.667 12.922 6.917 13.121 C 7.054 13.230,9.627 15.334,12.633 17.796 " stroke="none" fill-rule="evenodd"></path></svg>