<svg width="56" height="56" viewBox="0 0 56 56" fill="none" xmlns="http://www.w3.org/2000/svg">
<rect width="56" height="56" rx="2" fill="white"/>
<path fill-rule="evenodd" clip-rule="evenodd" d="M14.5 27.9983C14.5 20.5434 20.5434 14.5 27.9983 14.5C35.4532 14.5 41.4965 20.5434 41.4965 27.9983C41.4965 35.4532 35.4532 41.4965 27.9983 41.4965C20.5434 41.4965 14.5 35.4532 14.5 27.9983ZM27.9983 11C18.6104 11 11 18.6104 11 27.9983C11 37.3862 18.6104 44.9965 27.9983 44.9965C37.3862 44.9965 44.9965 37.3862 44.9965 27.9983C44.9965 18.6104 37.3862 11 27.9983 11ZM29.4983 19.0596V19.6628H32.7305C33.5589 19.6628 34.2305 20.3344 34.2305 21.1628C34.2305 21.9913 33.5589 22.6628 32.7305 22.6628H26.6838C25.6246 22.6628 24.766 23.5214 24.766 24.5805C24.766 25.6397 25.6246 26.4983 26.6838 26.4983H29.3128C32.0287 26.4983 34.2305 28.7 34.2305 31.416C34.2305 34.0698 32.1283 36.2327 29.4983 36.3303V36.9368C29.4983 37.7653 28.8267 38.4368 27.9983 38.4368C27.1698 38.4368 26.4983 37.7653 26.4983 36.9368V36.3337H23.266C22.4376 36.3337 21.766 35.6621 21.766 34.8337C21.766 34.0053 22.4376 33.3337 23.266 33.3337H29.3128C30.3719 33.3337 31.2305 32.4751 31.2305 31.416C31.2305 30.3568 30.3719 29.4983 29.3128 29.4983H26.6838C23.9678 29.4983 21.766 27.2965 21.766 24.5805C21.766 21.9267 23.8682 19.7638 26.4983 19.6663V19.0596C26.4983 18.2312 27.1698 17.5596 27.9983 17.5596C28.8267 17.5596 29.4983 18.2312 29.4983 19.0596Z" fill="black"/>
</svg>
