<svg width="40" height="40" viewBox="0 0 40 40" fill="none" xmlns="http://www.w3.org/2000/svg">
<path fill-rule="evenodd" clip-rule="evenodd" d="M30.6138 7.92996C30.3128 7.92996 30.0689 8.17392 30.0689 8.47487V31.5367C30.0689 31.8377 30.3128 32.0817 30.6138 32.0817H31.5363C31.8372 32.0817 32.0812 31.8377 32.0812 31.5367V8.47487C32.0812 8.17392 31.8372 7.92996 31.5363 7.92996H30.6138ZM27.4689 8.47487C27.4689 6.73798 28.8769 5.32996 30.6138 5.32996H31.5363C33.2731 5.32996 34.6812 6.73798 34.6812 8.47487V31.5367C34.6812 33.2736 33.2731 34.6817 31.5363 34.6817H30.6138C28.8769 34.6817 27.4689 33.2736 27.4689 31.5367V8.47487ZM15.4834 7.92996L5.71078 17.7026C5.2031 18.2103 5.2031 19.0334 5.71078 19.5411C6.21846 20.0487 7.04157 20.0487 7.54926 19.5411L17.3219 9.76841V13.0872C17.3219 13.8051 17.9039 14.3872 18.6219 14.3872C19.3399 14.3872 19.9219 13.8051 19.9219 13.0872V6.62996C19.9219 5.91199 19.3399 5.32996 18.6219 5.32996H12.1647C11.4467 5.32996 10.8647 5.91199 10.8647 6.62996C10.8647 7.34793 11.4467 7.92996 12.1647 7.92996H15.4834ZM8.47493 26.3791C8.17398 26.3791 7.93002 26.623 7.93002 26.924V31.5367C7.93002 31.8377 8.17398 32.0816 8.47493 32.0816H9.39739C9.69834 32.0816 9.94231 31.8377 9.94231 31.5367V26.924C9.94231 26.623 9.69834 26.3791 9.39739 26.3791H8.47493ZM5.33002 26.924C5.33002 25.1871 6.73804 23.7791 8.47493 23.7791H9.39739C11.1343 23.7791 12.5423 25.1871 12.5423 26.924V31.5367C12.5423 33.2736 11.1343 34.6816 9.39739 34.6816H8.47493C6.73804 34.6816 5.33002 33.2736 5.33002 31.5367V26.924ZM18.9995 21.3892C18.9995 21.0883 19.2434 20.8443 19.5444 20.8443H20.4669C20.7678 20.8443 21.0118 21.0883 21.0118 21.3892V31.5367C21.0118 31.8377 20.7678 32.0816 20.4669 32.0816H19.5444C19.2434 32.0816 18.9995 31.8377 18.9995 31.5367V21.3892ZM19.5444 18.2443C17.8075 18.2443 16.3995 19.6523 16.3995 21.3892V31.5367C16.3995 33.2736 17.8075 34.6816 19.5444 34.6816H20.4669C22.2037 34.6816 23.6118 33.2736 23.6118 31.5367V21.3892C23.6118 19.6523 22.2037 18.2443 20.4669 18.2443H19.5444Z" fill="black"/>
</svg>
