<svg width="40" height="40" viewBox="0 0 40 40" fill="none" xmlns="http://www.w3.org/2000/svg">
<path fill-rule="evenodd" clip-rule="evenodd" d="M31.0399 10.5314C31.6648 9.90658 31.6648 8.89352 31.0399 8.26868C30.4151 7.64384 29.402 7.64384 28.7772 8.26868L19.6543 17.3916L10.5314 8.26868C9.90652 7.64384 8.89346 7.64384 8.26862 8.26868C7.64378 8.89352 7.64378 9.90658 8.26862 10.5314L17.3915 19.6543L8.26862 28.7773C7.64378 29.4021 7.64378 30.4152 8.26862 31.04C8.89346 31.6648 9.90652 31.6648 10.5314 31.04L19.6543 21.9171L28.7772 31.04C29.402 31.6648 30.4151 31.6648 31.0399 31.04C31.6648 30.4152 31.6648 29.4021 31.0399 28.7773L21.917 19.6543L31.0399 10.5314Z" fill="#0E1438"/>
</svg>
