<svg width="40" height="40" viewBox="0 0 40 40" fill="none" xmlns="http://www.w3.org/2000/svg"><path d="M18.467 3.408 C 15.845 3.639,13.138 4.584,10.900 6.049 C 9.841 6.742,9.165 7.296,8.198 8.264 C 4.921 11.544,3.199 15.907,3.355 20.533 C 3.474 24.064,4.586 27.214,6.722 30.067 C 7.384 30.950,8.841 32.441,9.667 33.078 C 12.070 34.935,14.645 36.039,17.667 36.511 C 18.744 36.679,21.256 36.679,22.333 36.511 C 26.064 35.929,29.173 34.367,31.770 31.770 C 34.367 29.172,35.933 26.056,36.510 22.333 C 36.677 21.257,36.677 18.743,36.510 17.667 C 36.042 14.651,34.932 12.064,33.078 9.667 C 32.516 8.941,31.064 7.490,30.333 6.924 C 26.889 4.258,22.744 3.029,18.467 3.408 M21.224 6.735 C 24.291 7.026,27.047 8.293,29.257 10.426 C 33.406 14.430,34.503 20.656,31.972 25.832 C 31.249 27.312,30.371 28.509,29.160 29.668 C 28.126 30.657,27.103 31.365,25.786 32.001 C 22.112 33.775,17.888 33.775,14.214 32.001 C 12.462 31.155,11.020 30.025,9.745 28.500 C 6.414 24.518,5.733 18.837,8.027 14.167 C 10.270 9.601,14.778 6.748,19.867 6.676 C 20.215 6.671,20.826 6.698,21.224 6.735 M24.361 14.295 C 24.249 14.344,24.053 14.474,23.927 14.585 C 23.801 14.696,22.273 16.529,20.532 18.658 L 17.367 22.530 16.233 21.405 C 15.610 20.786,14.995 20.225,14.867 20.158 C 14.526 19.981,13.785 19.992,13.433 20.179 C 12.845 20.493,12.520 21.024,12.520 21.672 C 12.520 22.340,12.615 22.464,14.709 24.541 C 16.311 26.130,16.686 26.469,16.951 26.567 C 17.536 26.785,18.254 26.604,18.712 26.123 C 19.184 25.627,26.354 16.814,26.487 16.567 C 26.687 16.193,26.686 15.474,26.485 15.094 C 26.318 14.777,25.938 14.423,25.624 14.292 C 25.346 14.176,24.631 14.177,24.361 14.295 " stroke="none" fill-rule="evenodd" fill="black"></path></svg>