<svg width="40" height="40" viewBox="0 0 40 40" fill="none" xmlns="http://www.w3.org/2000/svg"><path d="M19.567 3.473 C 19.228 3.515,7.728 7.413,6.929 7.756 C 6.340 8.009,5.684 8.644,5.365 9.271 C 4.986 10.016,4.991 9.923,5.017 15.956 C 5.039 21.292,5.046 21.530,5.185 22.304 C 6.019 26.949,8.563 30.299,13.800 33.648 C 15.580 34.786,19.168 36.764,19.657 36.877 C 20.176 36.997,20.522 36.884,21.854 36.157 C 26.339 33.708,28.493 32.258,30.458 30.367 C 33.086 27.838,34.579 24.825,34.930 21.343 C 34.972 20.928,35.000 18.602,35.000 15.519 C 35.000 9.962,35.002 9.992,34.635 9.271 C 34.316 8.644,33.660 8.009,33.071 7.756 C 32.477 7.501,20.830 3.530,20.581 3.497 C 20.026 3.424,19.961 3.423,19.567 3.473 M25.883 8.783 L 31.665 10.767 31.666 15.576 C 31.666 18.481,31.639 20.659,31.596 21.076 C 31.200 24.960,29.142 27.773,24.500 30.778 C 23.782 31.243,21.643 32.485,20.550 33.071 L 20.000 33.367 19.450 33.071 C 15.843 31.135,13.533 29.579,11.876 27.970 C 9.744 25.899,8.680 23.788,8.404 21.076 C 8.361 20.659,8.334 18.481,8.334 15.576 L 8.335 10.767 14.084 8.788 C 17.246 7.700,19.893 6.807,19.967 6.804 C 20.040 6.801,22.702 7.691,25.883 8.783 M23.577 14.693 C 23.239 14.819,23.315 14.749,20.654 17.393 L 18.341 19.692 17.575 18.950 C 16.619 18.024,16.521 17.969,15.833 17.969 C 15.242 17.969,15.049 18.042,14.673 18.411 C 14.213 18.862,14.051 19.647,14.297 20.236 C 14.463 20.633,17.193 23.364,17.633 23.573 C 18.081 23.786,18.586 23.786,19.033 23.573 C 19.522 23.341,25.612 17.220,25.734 16.839 C 25.991 16.034,25.632 15.133,24.901 14.751 C 24.624 14.606,23.896 14.574,23.577 14.693 " stroke="none" fill-rule="evenodd" fill="black"></path></svg>