<svg width="40" height="40" viewBox="0 0 40 40" fill="none" xmlns="http://www.w3.org/2000/svg">
<path d="M14.2959 14.2959C14.0663 14.5255 13.8842 14.798 13.76 15.0979C13.6357 15.3978 13.5718 15.7193 13.5718 16.044C13.5718 16.3686 13.6357 16.6901 13.76 16.99C13.8842 17.29 14.0663 17.5625 14.2959 17.792L17.8014 21.2975L21.2975 17.8014L17.792 14.2959C17.5625 14.0663 17.29 13.8842 16.99 13.76C16.6901 13.6357 16.3686 13.5718 16.044 13.5718C15.7193 13.5718 15.3978 13.6357 15.0979 13.76C14.798 13.8842 14.5255 14.0663 14.2959 14.2959Z" fill="black"/>
<path d="M4.10999 15.36H7.85999H4.10999ZM7.4053 7.4053L10.0569 10.0569L7.4053 7.4053ZM15.36 4.10999V7.85999V4.10999ZM23.3147 7.4053L20.6631 10.0569L23.3147 7.4053ZM10.0569 20.6631L7.4053 23.3147L10.0569 20.6631Z" fill="black"/>
<path d="M4.10999 15.36H7.85999M7.4053 7.4053L10.0569 10.0569M15.36 4.10999V7.85999M23.3147 7.4053L20.6631 10.0569M10.0569 20.6631L7.4053 23.3147M14.2887 14.2888C15.2502 13.3273 16.8092 13.3274 17.7709 14.2891L35.1812 31.6994C36.1429 32.6611 36.143 34.2201 35.1815 35.1816C34.22 36.1431 32.6609 36.143 31.6993 35.1814L14.289 17.7711C13.3273 16.8094 13.3272 15.2503 14.2887 14.2888ZM14.2959 14.2959C14.0663 14.5255 13.8842 14.798 13.76 15.0979C13.6357 15.3978 13.5718 15.7193 13.5718 16.044C13.5718 16.3686 13.6357 16.6901 13.76 16.99C13.8842 17.29 14.0663 17.5625 14.2959 17.792L17.8014 21.2975L21.2975 17.8014L17.792 14.2959C17.5625 14.0663 17.29 13.8842 16.99 13.76C16.6901 13.6357 16.3686 13.5718 16.044 13.5718C15.7193 13.5718 15.3978 13.6357 15.0979 13.76C14.798 13.8842 14.5255 14.0663 14.2959 14.2959Z" stroke="black" stroke-width="3" stroke-miterlimit="10" stroke-linecap="round"/>
</svg>
