<svg width="40" height="40" viewBox="0 0 40 40" fill="none" xmlns="http://www.w3.org/2000/svg"><path d="M10.400 1.725 C 9.899 1.889,9.480 2.258,9.298 2.695 C 9.225 2.868,9.169 3.297,9.132 3.962 C 8.925 7.607,7.642 8.910,4.033 9.139 C 2.795 9.217,2.610 9.264,2.247 9.591 C 1.506 10.259,1.489 11.364,2.209 12.047 C 2.574 12.394,2.856 12.472,3.962 12.537 C 5.087 12.602,5.538 12.674,6.267 12.904 C 8.154 13.500,8.971 14.869,9.132 17.705 C 9.169 18.370,9.225 18.798,9.298 18.972 C 9.539 19.550,10.210 19.999,10.833 19.999 C 11.456 19.999,12.128 19.550,12.369 18.972 C 12.441 18.798,12.497 18.370,12.535 17.705 C 12.696 14.869,13.512 13.500,15.400 12.904 C 16.128 12.674,16.580 12.602,17.705 12.537 C 18.811 12.472,19.092 12.394,19.458 12.047 C 20.178 11.364,20.160 10.259,19.419 9.591 C 19.056 9.264,18.871 9.217,17.633 9.139 C 14.025 8.910,12.741 7.607,12.535 3.962 C 12.497 3.297,12.441 2.868,12.369 2.695 C 12.232 2.367,11.912 2.029,11.571 1.853 C 11.286 1.706,10.665 1.638,10.400 1.725 M11.784 10.498 L 12.133 10.813 11.484 11.460 L 10.834 12.107 10.192 11.470 L 9.549 10.833 10.175 10.208 C 10.519 9.865,10.800 9.555,10.800 9.521 C 10.800 9.487,10.943 9.622,11.117 9.822 C 11.292 10.021,11.592 10.326,11.784 10.498 M24.491 11.762 C 23.838 11.966,23.401 12.528,23.359 13.219 C 23.165 16.344,23.043 17.166,22.579 18.447 C 21.520 21.372,19.346 22.811,15.342 23.235 C 14.842 23.288,14.146 23.332,13.794 23.333 C 12.770 23.334,12.247 23.569,11.880 24.194 C 11.727 24.454,11.700 24.576,11.700 25.005 C 11.700 25.451,11.724 25.549,11.902 25.839 C 12.148 26.238,12.633 26.580,13.018 26.625 C 13.173 26.644,13.855 26.691,14.533 26.730 C 16.229 26.828,17.284 27.012,18.381 27.401 C 20.795 28.258,22.195 29.852,22.858 32.500 C 23.090 33.426,23.197 34.196,23.270 35.467 C 23.309 36.145,23.356 36.827,23.375 36.982 C 23.420 37.367,23.762 37.852,24.161 38.098 C 24.452 38.277,24.548 38.300,25.000 38.300 C 25.452 38.300,25.548 38.277,25.839 38.098 C 26.238 37.852,26.580 37.367,26.625 36.982 C 26.644 36.827,26.691 36.145,26.730 35.467 C 26.828 33.771,27.012 32.716,27.401 31.619 C 28.161 29.479,29.477 28.163,31.619 27.401 C 32.743 27.001,33.704 26.834,35.467 26.731 C 36.145 26.691,36.827 26.644,36.982 26.625 C 37.367 26.580,37.852 26.238,38.098 25.839 C 38.276 25.549,38.300 25.451,38.300 25.005 C 38.300 24.576,38.273 24.454,38.120 24.194 C 37.753 23.569,37.230 23.334,36.206 23.333 C 35.854 23.332,35.158 23.288,34.658 23.235 C 30.654 22.811,28.480 21.372,27.421 18.447 C 26.957 17.166,26.835 16.344,26.641 13.219 C 26.575 12.139,25.536 11.435,24.491 11.762 M25.467 21.952 C 25.766 22.419,26.128 22.855,26.636 23.364 C 27.145 23.872,27.581 24.234,28.048 24.533 C 28.420 24.772,28.725 24.982,28.726 25.000 C 28.727 25.018,28.422 25.228,28.049 25.467 C 27.132 26.052,26.059 27.125,25.467 28.048 C 25.228 28.420,25.018 28.724,25.000 28.724 C 24.982 28.724,24.772 28.420,24.533 28.048 C 23.941 27.125,22.868 26.052,21.951 25.467 C 21.578 25.228,21.273 25.018,21.274 25.000 C 21.275 24.982,21.580 24.772,21.952 24.533 C 22.419 24.234,22.855 23.872,23.364 23.364 C 23.872 22.855,24.234 22.419,24.533 21.952 C 24.772 21.580,24.982 21.276,25.000 21.276 C 25.018 21.276,25.228 21.580,25.467 21.952 " stroke="none" fill-rule="evenodd" fill="black"></path></svg>