<svg width="40" height="40" viewBox="0 0 40 40" fill="none" xmlns="http://www.w3.org/2000/svg">
<g clip-path="url(#clip0_1226_165)">
<path d="M8.3335 13.3334H10.0002M30.0002 26.6667H31.6668M3.3335 30V10C3.3335 9.07957 4.0797 8.33337 5.00016 8.33337H35.0002C35.9207 8.33337 36.6668 9.07957 36.6668 10V30C36.6668 30.9205 35.9207 31.6667 35.0002 31.6667H5.00016C4.0797 31.6667 3.3335 30.9205 3.3335 30ZM23.3335 20C23.3335 21.841 21.8412 23.3334 20.0002 23.3334C18.1592 23.3334 16.6668 21.841 16.6668 20C16.6668 18.159 18.1592 16.6667 20.0002 16.6667C21.8412 16.6667 23.3335 18.159 23.3335 20Z" stroke="black" stroke-width="3.33333" stroke-linecap="round" stroke-linejoin="round"/>
</g>
<defs>
<clipPath id="clip0_1226_165">
<rect width="40" height="40" rx="6" fill="white"/>
</clipPath>
</defs>
</svg>
