<svg width="40" height="40" viewBox="0 0 40 40" fill="none" xmlns="http://www.w3.org/2000/svg"><path d="M7.461 5.122 C 6.311 5.422,5.307 6.477,5.066 7.636 C 5.020 7.859,5.001 9.008,5.014 10.912 L 5.033 13.844 5.235 14.172 C 5.907 15.263,7.421 15.259,8.100 14.166 L 8.300 13.844 8.319 11.089 L 8.339 8.333 10.986 8.330 C 12.965 8.328,13.694 8.306,13.873 8.242 C 14.231 8.114,14.585 7.816,14.787 7.473 C 14.939 7.214,14.967 7.090,14.967 6.667 C 14.967 6.243,14.939 6.120,14.787 5.860 C 14.688 5.692,14.497 5.471,14.363 5.369 C 13.898 5.014,13.755 5.000,10.706 5.004 C 8.277 5.007,7.841 5.023,7.461 5.122 M26.117 5.101 C 25.747 5.237,25.416 5.515,25.213 5.860 C 25.061 6.120,25.033 6.243,25.033 6.667 C 25.033 7.093,25.061 7.213,25.218 7.481 C 25.320 7.654,25.507 7.875,25.635 7.972 C 26.090 8.319,26.166 8.327,29.014 8.330 L 31.661 8.333 31.681 11.089 L 31.700 13.844 31.902 14.172 C 32.573 15.263,34.088 15.259,34.767 14.166 L 34.967 13.844 34.986 10.927 C 35.007 7.760,34.984 7.492,34.636 6.805 C 34.410 6.360,33.828 5.749,33.362 5.468 C 32.632 5.029,32.443 5.008,29.233 5.009 C 26.967 5.009,26.314 5.029,26.117 5.101 M20.244 13.026 C 19.841 13.177,19.537 13.472,19.313 13.933 C 19.174 14.220,19.166 14.339,19.134 16.567 C 19.101 18.853,19.097 18.905,18.947 19.145 C 18.714 19.521,18.395 19.765,17.879 19.962 C 16.592 20.454,16.259 21.935,17.241 22.798 C 17.908 23.383,18.631 23.360,19.900 22.711 C 20.901 22.199,21.845 21.074,22.234 19.931 C 22.484 19.199,22.547 18.380,22.522 16.191 C 22.502 14.370,22.490 14.212,22.360 13.933 C 22.205 13.601,21.872 13.244,21.567 13.084 C 21.290 12.939,20.562 12.908,20.244 13.026 M12.824 13.428 C 12.443 13.548,12.093 13.831,11.880 14.194 C 11.701 14.499,11.700 14.504,11.700 15.839 L 11.700 17.177 11.902 17.505 C 12.573 18.596,14.088 18.593,14.767 17.499 L 14.967 17.177 14.967 15.839 C 14.967 14.504,14.966 14.499,14.787 14.194 C 14.380 13.501,13.584 13.191,12.824 13.428 M26.158 13.428 C 25.776 13.548,25.426 13.831,25.213 14.194 C 25.034 14.499,25.033 14.504,25.033 15.839 L 25.033 17.177 25.235 17.505 C 25.907 18.596,27.421 18.593,28.100 17.499 L 28.300 17.177 28.300 15.839 C 28.300 14.504,28.299 14.499,28.120 14.194 C 27.713 13.501,26.917 13.191,26.158 13.428 M14.727 24.540 C 14.321 24.601,14.073 24.736,13.788 25.052 C 13.179 25.726,13.203 26.742,13.844 27.345 C 14.450 27.916,16.536 28.750,17.983 29.000 C 18.733 29.130,19.984 29.185,20.839 29.125 C 22.361 29.019,23.618 28.684,25.035 28.006 C 26.303 27.399,26.629 27.022,26.629 26.167 C 26.629 25.636,26.493 25.308,26.123 24.953 C 25.819 24.663,25.462 24.527,24.997 24.524 C 24.659 24.523,24.506 24.571,23.853 24.886 C 22.440 25.568,21.439 25.811,20.033 25.815 C 18.597 25.819,17.509 25.560,16.154 24.892 C 15.442 24.541,15.170 24.474,14.727 24.540 M6.117 25.101 C 5.747 25.237,5.416 25.515,5.213 25.860 L 5.033 26.167 5.014 29.093 C 4.993 32.250,5.008 32.434,5.336 33.129 C 5.580 33.643,6.285 34.372,6.782 34.624 C 7.475 34.975,7.723 34.998,10.800 34.996 C 12.933 34.995,13.692 34.973,13.873 34.909 C 14.231 34.780,14.585 34.483,14.787 34.140 C 14.939 33.880,14.967 33.757,14.967 33.333 C 14.967 32.910,14.939 32.786,14.787 32.527 C 14.688 32.359,14.497 32.137,14.363 32.035 C 13.904 31.685,13.736 31.667,10.926 31.667 L 8.339 31.667 8.319 28.917 L 8.300 26.167 8.120 25.860 C 7.710 25.163,6.843 24.834,6.117 25.101 M32.784 25.101 C 32.414 25.237,32.083 25.515,31.880 25.860 L 31.700 26.167 31.681 28.917 L 31.661 31.667 29.039 31.667 C 26.195 31.667,26.107 31.676,25.629 32.041 C 25.499 32.140,25.312 32.359,25.213 32.527 C 25.061 32.786,25.033 32.910,25.033 33.333 C 25.033 33.760,25.061 33.880,25.218 34.148 C 25.320 34.321,25.507 34.542,25.635 34.639 C 26.093 34.988,26.151 34.994,29.200 34.996 C 32.277 34.998,32.525 34.975,33.218 34.624 C 33.665 34.398,34.398 33.665,34.625 33.217 C 34.985 32.505,35.007 32.257,34.986 29.078 L 34.967 26.167 34.787 25.860 C 34.377 25.163,33.510 24.834,32.784 25.101 " stroke="none" fill-rule="evenodd" fill="black"></path></svg>