<svg width="40" height="40" viewBox="0 0 40 40" fill="none" xmlns="http://www.w3.org/2000/svg">
<path fill-rule="evenodd" clip-rule="evenodd" d="M14.31 6.06C9.75365 6.06 6.06 9.75365 6.06 14.31V25.685C6.06 30.2413 9.75365 33.935 14.31 33.935H25.685C30.2413 33.935 33.935 30.2413 33.935 25.685V14.31C33.935 9.75365 30.2413 6.06 25.685 6.06H14.31ZM8.56 14.31C8.56 11.1344 11.1344 8.56 14.31 8.56H25.685C28.8606 8.56 31.435 11.1344 31.435 14.31V25.685C31.435 28.8606 28.8606 31.435 25.685 31.435H14.31C11.1344 31.435 8.56 28.8606 8.56 25.685V14.31ZM13.6755 20.7459L13.6755 20.7459C13.3652 20.1321 12.6168 19.8841 12.001 20.192C11.3835 20.5007 11.1332 21.2515 11.442 21.869L12.56 21.31C11.442 21.869 11.4422 21.8696 11.4425 21.8701L11.4431 21.8713L11.4445 21.874L11.4478 21.8807L11.4571 21.8987C11.4644 21.9128 11.474 21.931 11.486 21.9531C11.5098 21.9972 11.5429 22.0568 11.5856 22.1297C11.671 22.2754 11.795 22.475 11.9598 22.7104C12.2883 23.1798 12.7854 23.8008 13.4692 24.4224C14.845 25.6732 16.9918 26.935 19.9975 26.935C23.0032 26.935 25.15 25.6732 26.5258 24.4224C27.2096 23.8008 27.7067 23.1798 28.0352 22.7104C28.2 22.475 28.324 22.2754 28.4094 22.1297C28.4521 22.0568 28.4852 21.9972 28.509 21.9531L28.524 21.9252L28.5379 21.8987L28.5471 21.8807L28.5505 21.874L28.5519 21.8713L28.5525 21.8701C28.5528 21.8696 28.553 21.869 27.435 21.31L28.553 21.869C28.8618 21.2515 28.6115 20.5007 27.994 20.192C27.3778 19.8839 26.6288 20.1325 26.3189 20.7472L26.3093 20.7652C26.2985 20.7851 26.2795 20.8195 26.2521 20.8662C26.1973 20.9598 26.1094 21.102 25.9871 21.2768C25.7415 21.6277 25.3635 22.1004 24.8442 22.5726C23.8137 23.5093 22.2418 24.435 19.9975 24.435C17.7532 24.435 16.1813 23.5093 15.1508 22.5726C14.6315 22.1004 14.2535 21.6277 14.0079 21.2768C13.8856 21.102 13.7977 20.9598 13.7428 20.8662C13.7155 20.8195 13.6965 20.7851 13.6857 20.7652L13.6757 20.7464L13.6755 20.7459ZM16.4975 14.3725C15.3239 14.3725 14.3725 15.3239 14.3725 16.4975C14.3725 17.6711 15.3239 18.6225 16.4975 18.6225C17.6711 18.6225 18.6225 17.6711 18.6225 16.4975C18.6225 15.3239 17.6711 14.3725 16.4975 14.3725ZM21.3725 16.4975C21.3725 15.3239 22.3239 14.3725 23.4975 14.3725C24.6711 14.3725 25.6225 15.3239 25.6225 16.4975C25.6225 17.6711 24.6711 18.6225 23.4975 18.6225C22.3239 18.6225 21.3725 17.6711 21.3725 16.4975Z" fill="#2D2D2D"/>
</svg>
