<svg width="40" height="40" viewBox="0 0 40 40" fill="none" xmlns="http://www.w3.org/2000/svg">
<path fill-rule="evenodd" clip-rule="evenodd" d="M19.5112 3.08075C19.8201 2.93256 20.1796 2.93256 20.4884 3.08075L36.3697 10.6999C36.7968 10.9048 37.0511 11.3418 36.9909 11.8117C36.4395 16.114 33.0917 36.9698 19.9999 36.9698C6.90804 36.9698 3.56019 16.114 3.00885 11.8117C2.94864 11.3418 3.20292 10.9048 3.63004 10.6999L19.5112 3.08075ZM26.029 22.1733H23.2764C21.3753 22.1733 19.8345 23.7124 19.8345 25.6111V28.3611H15.0166V11.8604H26.029V14.9814C25.6241 14.7469 25.1546 14.6103 24.6525 14.6103C23.1321 14.6103 21.8997 15.8418 21.8997 17.3608C21.8997 18.8795 23.1321 20.1107 24.6525 20.1107C25.1546 20.1107 25.6241 19.9742 26.029 19.7397V22.1733Z" fill="black"/>
</svg>
