<svg width="40" height="40" viewBox="0 0 40 40" fill="none" xmlns="http://www.w3.org/2000/svg"><path d="M10.145 5.071 C 9.755 5.148,9.190 5.414,8.786 5.710 C 8.532 5.897,7.860 6.745,5.965 9.271 C 4.336 11.442,3.452 12.676,3.405 12.844 C 3.366 12.985,3.334 13.665,3.334 14.356 C 3.333 15.772,3.452 16.558,3.799 17.430 C 4.023 17.994,4.468 18.764,4.783 19.134 L 5.000 19.388 5.000 25.747 C 5.000 32.663,4.990 32.456,5.375 33.217 C 5.602 33.665,6.335 34.398,6.782 34.624 C 7.557 35.017,6.886 34.998,20.000 34.998 C 33.114 34.998,32.443 35.017,33.218 34.624 C 33.665 34.398,34.398 33.665,34.624 33.218 C 35.004 32.469,34.998 32.586,34.999 25.691 C 35.000 19.952,35.010 19.341,35.107 19.261 C 35.261 19.133,35.680 18.500,35.920 18.033 C 36.497 16.911,36.667 16.074,36.666 14.356 C 36.666 13.665,36.634 12.985,36.595 12.844 C 36.486 12.453,31.650 6.042,31.220 5.718 C 30.801 5.403,30.257 5.153,29.803 5.067 C 29.365 4.984,10.568 4.988,10.145 5.071 M30.417 10.000 L 31.667 11.667 20.000 11.667 L 8.333 11.667 9.583 10.000 L 10.832 8.333 20.000 8.333 L 29.168 8.333 30.417 10.000 M13.302 15.374 C 13.195 16.234,12.840 16.912,12.198 17.489 C 11.350 18.251,10.276 18.504,9.149 18.209 C 8.014 17.910,7.080 16.986,6.789 15.872 C 6.726 15.631,6.673 15.336,6.671 15.217 L 6.667 15.000 10.008 15.000 L 13.349 15.000 13.302 15.374 M23.302 15.374 C 23.195 16.234,22.840 16.912,22.198 17.489 C 21.176 18.407,19.709 18.596,18.471 17.969 C 18.026 17.744,17.415 17.161,17.135 16.696 C 16.897 16.300,16.677 15.601,16.671 15.217 L 16.667 15.000 20.008 15.000 L 23.349 15.000 23.302 15.374 M33.329 15.217 C 33.323 15.600,33.103 16.300,32.865 16.696 C 32.607 17.125,32.075 17.645,31.623 17.910 C 30.969 18.293,29.934 18.430,29.180 18.234 C 28.038 17.937,27.081 16.991,26.789 15.872 C 26.726 15.631,26.673 15.336,26.671 15.217 L 26.667 15.000 30.000 15.000 L 33.333 15.000 33.329 15.217 M15.205 19.639 C 15.458 19.909,16.197 20.489,16.593 20.727 C 17.520 21.286,18.901 21.667,20.000 21.667 C 20.765 21.667,21.733 21.474,22.479 21.173 C 23.341 20.826,23.918 20.451,24.683 19.742 L 25.000 19.448 25.317 19.742 C 26.376 20.724,27.405 21.263,28.738 21.534 C 29.624 21.715,30.878 21.696,31.550 21.493 C 31.660 21.460,31.667 21.732,31.667 26.562 L 31.667 31.667 28.339 31.667 L 25.011 31.667 24.985 29.517 C 24.960 27.497,24.949 27.338,24.806 26.900 C 24.275 25.276,23.020 24.025,21.434 23.541 C 20.981 23.403,20.764 23.378,20.000 23.378 C 19.236 23.378,19.019 23.403,18.566 23.541 C 16.980 24.025,15.725 25.276,15.194 26.900 C 15.051 27.338,15.040 27.497,15.015 29.517 L 14.989 31.667 11.661 31.667 L 8.333 31.667 8.333 26.562 C 8.333 21.732,8.340 21.460,8.450 21.493 C 8.753 21.585,9.489 21.666,10.023 21.666 C 11.097 21.667,12.488 21.281,13.407 20.727 C 13.803 20.489,14.542 19.909,14.795 19.639 C 14.884 19.544,14.976 19.467,15.000 19.467 C 15.024 19.467,15.116 19.544,15.205 19.639 M20.556 26.773 C 20.744 26.837,20.989 26.999,21.167 27.177 C 21.630 27.640,21.667 27.843,21.667 29.912 L 21.667 31.667 20.000 31.667 L 18.333 31.667 18.333 29.912 C 18.333 27.842,18.370 27.640,18.834 27.176 C 19.312 26.699,19.920 26.557,20.556 26.773 " stroke="none" fill-rule="evenodd" fill="black"></path></svg>