<svg width="40" height="40" viewBox="0 0 40 40" fill="none" xmlns="http://www.w3.org/2000/svg"><path d="M15.933 5.106 C 14.786 5.411,14.441 5.748,12.861 8.111 L 11.597 10.000 8.915 10.004 C 5.912 10.008,5.693 10.034,4.971 10.468 C 4.506 10.748,3.923 11.360,3.698 11.805 C 3.317 12.557,3.333 12.066,3.333 22.500 C 3.333 32.968,3.315 32.440,3.709 33.217 C 3.936 33.665,4.668 34.398,5.116 34.624 C 5.894 35.019,5.064 34.998,20.000 34.998 C 34.936 34.998,34.106 35.019,34.884 34.624 C 35.332 34.398,36.064 33.665,36.291 33.218 C 36.680 32.451,36.665 32.881,36.665 22.500 C 36.665 12.154,36.678 12.546,36.302 11.804 C 36.077 11.360,35.494 10.748,35.029 10.468 C 34.307 10.034,34.088 10.008,31.085 10.004 L 28.403 10.000 27.139 8.111 C 25.548 5.732,25.209 5.403,24.036 5.102 C 23.462 4.955,16.490 4.958,15.933 5.106 M24.526 10.217 C 25.220 11.252,25.918 12.226,26.077 12.379 C 26.236 12.533,26.542 12.764,26.756 12.892 C 27.438 13.300,27.732 13.333,30.696 13.333 L 33.333 13.333 33.333 22.500 L 33.333 31.667 20.000 31.667 L 6.667 31.667 6.667 22.500 L 6.667 13.333 9.321 13.333 C 13.445 13.333,13.364 13.375,15.477 10.217 L 16.736 8.333 20.000 8.333 L 23.264 8.333 24.526 10.217 M18.931 15.102 C 15.263 15.674,12.727 19.305,13.466 22.929 C 13.928 25.195,15.408 26.988,17.521 27.840 C 20.930 29.214,24.795 27.564,26.173 24.146 C 26.816 22.550,26.817 20.782,26.175 19.194 C 25.287 16.996,23.335 15.448,21.008 15.097 C 20.239 14.982,19.694 14.983,18.931 15.102 M20.872 18.456 C 22.104 18.777,23.083 19.873,23.278 21.150 C 23.445 22.239,23.122 23.221,22.338 24.007 C 21.848 24.499,21.406 24.753,20.785 24.899 C 19.669 25.163,18.586 24.880,17.756 24.109 C 15.539 22.048,16.981 18.341,20.000 18.341 C 20.238 18.341,20.631 18.393,20.872 18.456 " stroke="none" fill-rule="evenodd" fill="black"></path></svg>