<svg width="40" height="40" viewBox="0 0 40 40" fill="none" xmlns="http://www.w3.org/2000/svg"><path d="M19.233 3.512 C 18.494 3.717,7.019 7.720,6.732 7.873 C 6.245 8.132,5.667 8.709,5.411 9.191 C 4.993 9.977,5.000 9.875,5.000 15.519 C 5.000 20.904,5.023 21.453,5.303 22.848 C 6.158 27.104,8.734 30.389,13.738 33.603 C 15.253 34.576,18.929 36.636,19.491 36.827 C 20.111 37.037,20.387 36.959,21.861 36.152 C 26.354 33.695,28.462 32.275,30.449 30.372 C 33.084 27.847,34.589 24.802,34.929 21.305 C 34.972 20.862,35.000 18.578,35.000 15.481 C 35.000 9.879,35.006 9.976,34.589 9.191 C 34.333 8.709,33.755 8.132,33.268 7.873 C 33.058 7.761,30.174 6.734,26.860 5.591 L 20.833 3.512 20.100 3.494 C 19.697 3.484,19.307 3.492,19.233 3.512 M25.883 8.782 L 31.666 10.767 31.666 15.576 C 31.666 18.479,31.639 20.660,31.596 21.076 C 31.212 24.844,29.220 27.651,24.898 30.517 C 23.642 31.351,20.192 33.333,19.999 33.333 C 19.897 33.333,17.614 32.070,16.472 31.382 C 13.405 29.534,11.368 27.774,10.087 25.866 C 9.398 24.840,8.813 23.447,8.575 22.267 C 8.364 21.225,8.333 20.363,8.334 15.576 L 8.334 10.767 14.084 8.787 C 17.246 7.699,19.893 6.806,19.967 6.803 C 20.040 6.800,22.702 7.691,25.883 8.782 M20.280 11.084 C 19.816 11.233,19.573 11.571,17.659 14.732 C 16.627 16.437,15.739 17.952,15.686 18.099 C 15.567 18.429,15.610 18.885,15.800 19.317 C 16.067 19.919,16.560 20.281,17.267 20.396 C 17.505 20.434,18.521 20.466,19.524 20.466 C 20.955 20.467,21.341 20.485,21.315 20.550 C 21.298 20.596,20.435 21.983,19.399 23.633 C 18.363 25.283,17.460 26.753,17.392 26.900 C 17.236 27.241,17.235 27.759,17.392 28.100 C 17.823 29.040,18.991 29.291,19.734 28.605 C 20.069 28.295,25.044 20.370,25.219 19.867 C 25.514 19.021,25.076 18.025,24.233 17.626 C 23.904 17.470,23.872 17.468,21.750 17.467 C 20.444 17.467,19.600 17.442,19.600 17.404 C 19.600 17.369,20.190 16.364,20.911 15.171 C 22.118 13.174,22.225 12.972,22.253 12.632 C 22.292 12.161,22.148 11.772,21.816 11.453 C 21.412 11.063,20.802 10.917,20.280 11.084 " stroke="none" fill-rule="evenodd" fill="black"></path></svg>