<svg width="40" height="40" viewBox="0 0 40 40" fill="none" xmlns="http://www.w3.org/2000/svg">
<path fill-rule="evenodd" clip-rule="evenodd" d="M33.2511 6.75002L34.7476 6.85322C34.7794 6.39119 34.5961 5.94035 34.2508 5.6317C33.9055 5.32305 33.437 5.1912 32.9815 5.27446L33.2511 6.75002ZM9.7748 31.5151C12.4864 33.672 16.1197 34.7512 20.0006 34.7512C23.5249 34.7512 26.1786 32.6823 28.1099 29.9832C30.0338 27.2944 31.3906 23.7913 32.3522 20.411C33.3197 17.01 33.9169 13.6247 34.2724 11.1C34.4506 9.83482 34.5689 8.77929 34.6429 8.03763C34.6799 7.66667 34.7058 7.37386 34.7226 7.17221C34.731 7.07137 34.7372 6.99329 34.7412 6.93959L34.7459 6.87752L34.7471 6.86058L34.7474 6.85569L34.7475 6.85415C34.7476 6.85364 34.7476 6.85322 33.2511 6.75002C32.9815 5.27446 32.9811 5.27453 32.9806 5.27461L32.9792 5.27488L32.9745 5.27574L32.9579 5.27881L32.8966 5.29031C32.8434 5.30037 32.7658 5.31519 32.6655 5.33481C32.465 5.37405 32.1733 5.43248 31.8037 5.51024C31.0645 5.66572 30.0121 5.89874 28.7505 6.21051C26.2318 6.83295 22.8586 7.77435 19.4728 9.04694C16.1047 10.3129 12.6355 11.9389 9.98161 13.9614C7.35819 15.9606 5.25 18.5705 5.25 21.8282C5.25 24.7897 6.12806 27.3251 7.65179 29.3449C7.2366 29.895 6.87518 30.3947 6.57277 30.8244C6.22358 31.3207 5.95218 31.7249 5.76663 32.0074C5.67383 32.1487 5.60243 32.2597 5.55344 32.3366C5.52894 32.3751 5.51004 32.405 5.49686 32.426L5.4814 32.4507L5.47691 32.4579L5.47548 32.4602L5.47497 32.4611C5.47478 32.4614 5.47461 32.4616 6.67623 33.2055L5.4746 32.4617C5.03856 33.166 5.25609 34.0905 5.96047 34.5266C6.66472 34.9626 7.58902 34.7452 8.02516 34.0411L8.02526 34.0409L8.0254 34.0407L8.02727 34.0377L8.03769 34.0211C8.04747 34.0055 8.06287 33.9811 8.08377 33.9482C8.12558 33.8826 8.18939 33.7834 8.27418 33.6543C8.4438 33.396 8.69715 33.0185 9.02619 32.5509C9.24378 32.2417 9.49409 31.8937 9.7748 31.5151ZM11.6284 29.1562C13.7029 30.8123 16.6389 31.7512 20.0006 31.7512C22.1877 31.7512 24.046 30.5073 25.6701 28.2375C27.3016 25.9573 28.5435 22.8351 29.4667 19.5901C30.3839 16.3659 30.9576 13.1259 31.3017 10.6817C31.4108 9.90707 31.4965 9.21497 31.5625 8.63174C30.97 8.7633 30.2632 8.92694 29.4702 9.1229C27.0199 9.72843 23.7678 10.6375 20.5283 11.8551C17.2711 13.0794 14.1151 14.5832 11.8 16.3475C9.45445 18.1349 8.25 19.9686 8.25 21.8282C8.25 23.818 8.74422 25.5069 9.60752 26.8976C12.1067 23.9443 15.6556 20.3886 19.7557 18.218C20.4878 17.8304 21.3956 18.1097 21.7832 18.8419C22.1708 19.574 21.8915 20.4818 21.1593 20.8694C17.5266 22.7926 14.2472 26.0487 11.8377 28.9064C11.7671 28.9901 11.6974 29.0734 11.6284 29.1562Z" fill="black"/>
</svg>
