<svg width="40" height="40" viewBox="0 0 40 40" fill="none" xmlns="http://www.w3.org/2000/svg">
<path fill-rule="evenodd" clip-rule="evenodd" d="M17.8318 5.38916C15.2298 5.38916 13.1205 7.4985 13.1205 10.1005C13.1205 12.7025 15.2298 14.8118 17.8318 14.8118C20.4338 14.8118 22.5431 12.7025 22.5431 10.1005C22.5431 7.4985 20.4338 5.38916 17.8318 5.38916ZM10.1205 10.1005C10.1205 5.84164 13.5729 2.38916 17.8318 2.38916C22.0906 2.38916 25.5431 5.84164 25.5431 10.1005C25.5431 14.3594 22.0906 17.8118 17.8318 17.8118C13.5729 17.8118 10.1205 14.3594 10.1205 10.1005ZM9.90142 24.9047C8.15946 25.9445 7.10837 27.2799 6.46645 28.4954C6.2511 28.9031 6.31886 29.2159 6.53504 29.4873C6.79102 29.8088 7.30818 30.1012 7.98441 30.1012H27.6712V33.1012H7.98441C6.47822 33.1012 5.06361 32.4554 4.18824 31.3561C3.27304 30.2069 3.00984 28.6164 3.81367 27.0944C4.67093 25.4711 6.07836 23.6929 8.36379 22.3287C10.648 20.9652 13.7218 20.0675 17.8318 20.0675C20.3378 20.0675 22.4587 20.4013 24.2502 20.9709C24.1945 21.3224 24.1655 21.6828 24.1655 22.05C24.1655 22.8275 24.2896 23.5742 24.5218 24.271C22.8778 23.5576 20.7061 23.0675 17.8318 23.0675C14.167 23.0675 11.6446 23.8642 9.90142 24.9047ZM29.1712 29.4304C29.3527 29.1721 29.3975 28.8749 29.1971 28.4954C29.1885 28.4792 29.1799 28.4629 29.1712 28.4467V27.1245C27.0471 26.3098 25.6655 24.3581 25.6655 22.05C25.6655 21.8674 25.6747 21.6868 25.6927 21.5087C26.2675 21.757 26.8023 22.0318 27.2997 22.3287C29.5852 23.6929 30.9926 25.4711 31.8498 27.0944C32.6537 28.6164 32.3905 30.2069 31.4753 31.3561C30.8986 32.0803 30.0879 32.6077 29.1712 32.8833V29.4304Z" fill="black"/>
<path d="M31.1743 16.653C28.1005 16.653 25.6655 19.0799 25.6655 22.05C25.6655 24.3581 27.0471 26.3098 29.1712 27.1245V35.5255C29.1712 35.7292 29.2748 35.882 29.4129 36.0516L30.8634 37.4772C31.036 37.647 31.2779 37.6639 31.4678 37.4772L34.2135 34.7958C34.3862 34.609 34.3862 34.3714 34.2135 34.2018L32.5039 32.5216L34.8697 30.2474C35.0424 30.0946 35.0424 29.84 34.8352 29.6363L32.5212 27.3791C35.1805 26.3098 36.6655 24.409 36.6655 22.05C36.6655 19.0799 34.2135 16.653 31.1743 16.653ZM31.157 19.1818C32.0896 19.1818 32.8492 19.9286 32.8492 20.845C32.8492 21.7954 32.0896 22.5422 31.157 22.5422C30.2245 22.5422 29.4474 21.7954 29.4474 20.845C29.4474 19.9286 30.2072 19.1818 31.157 19.1818Z" fill="black"/>
</svg>
