<svg width="40" height="40" viewBox="0 0 40 40" fill="none" xmlns="http://www.w3.org/2000/svg"><path d="M18.467 3.408 C 12.059 3.974,6.391 8.395,4.279 14.474 C 3.608 16.403,3.369 17.855,3.369 20.000 C 3.369 21.730,3.451 22.465,3.808 23.926 C 4.545 26.946,6.016 29.554,8.231 31.769 C 10.817 34.355,13.979 35.944,17.667 36.511 C 18.741 36.677,21.259 36.677,22.333 36.511 C 26.018 35.945,29.185 34.353,31.769 31.769 C 33.981 29.557,35.456 26.942,36.192 23.926 C 36.547 22.472,36.629 21.731,36.629 20.000 C 36.629 18.269,36.547 17.528,36.192 16.074 C 34.232 8.042,26.725 2.677,18.467 3.408 M21.224 6.735 C 24.287 7.026,27.050 8.295,29.257 10.426 C 32.923 13.965,34.250 19.321,32.660 24.162 C 32.156 25.696,31.283 27.272,30.255 28.500 C 28.980 30.025,27.538 31.155,25.786 32.001 C 22.112 33.775,17.888 33.775,14.214 32.001 C 12.462 31.155,11.020 30.025,9.745 28.500 C 6.837 25.024,5.916 20.174,7.340 15.838 C 8.001 13.826,9.205 11.910,10.743 10.426 C 13.554 7.712,17.366 6.370,21.224 6.735 M14.847 13.429 C 13.965 13.744,13.431 14.534,13.351 15.643 C 13.250 17.042,14.084 18.208,15.262 18.315 C 16.916 18.465,18.025 16.375,17.230 14.606 C 16.796 13.637,15.734 13.113,14.847 13.429 M23.994 13.433 C 23.648 13.544,23.129 13.971,22.904 14.328 C 22.583 14.838,22.438 15.589,22.531 16.249 C 22.760 17.873,24.206 18.780,25.469 18.092 C 27.067 17.222,27.065 14.443,25.466 13.573 C 25.042 13.342,24.452 13.286,23.994 13.433 M14.544 23.241 C 14.117 23.453,13.776 23.879,13.666 24.336 C 13.509 24.989,13.714 25.511,14.364 26.118 C 15.454 27.136,16.835 27.841,18.402 28.178 C 19.185 28.347,20.815 28.347,21.598 28.178 C 23.205 27.832,24.609 27.106,25.677 26.067 C 26.124 25.631,26.205 25.516,26.303 25.174 C 26.661 23.917,25.510 22.780,24.229 23.125 C 24.062 23.170,23.747 23.376,23.397 23.669 C 22.718 24.236,22.162 24.560,21.478 24.787 C 21.033 24.935,20.846 24.957,20.033 24.962 C 19.232 24.966,19.029 24.945,18.600 24.811 C 17.881 24.586,17.317 24.266,16.638 23.698 C 16.311 23.424,15.936 23.170,15.805 23.134 C 15.376 23.014,14.920 23.053,14.544 23.241 " stroke="none" fill-rule="evenodd" fill="black"></path></svg>