<svg width="40" height="40" viewBox="0 0 40 40" fill="none" xmlns="http://www.w3.org/2000/svg">
<path fill-rule="evenodd" clip-rule="evenodd" d="M21.6796 10C21.6796 9.17157 21.0081 8.5 20.1796 8.5C19.3512 8.5 18.6796 9.17157 18.6796 10V15.1762C19.1002 15.0613 19.5428 15 19.9998 15C20.5891 15 21.1546 15.102 21.6796 15.2892V10ZM23.4418 16.3734C24.1703 17.065 24.6906 17.9738 24.899 18.9961L29.5705 16.299C30.2879 15.8848 30.5337 14.9674 30.1195 14.25C29.7053 13.5326 28.7879 13.2867 28.0705 13.701L23.4418 16.3734ZM24.8626 21.1679C24.6205 22.1797 24.0709 23.0719 23.3181 23.7403L27.75 26.299C28.4674 26.7133 29.3848 26.4674 29.799 25.75C30.2132 25.0326 29.9674 24.1152 29.25 23.701L24.8626 21.1679ZM21.6796 24.7108C21.1546 24.8981 20.5891 25 19.9998 25C19.5428 25 19.1002 24.9387 18.6796 24.8239V30C18.6796 30.8284 19.3512 31.5 20.1796 31.5C21.0081 31.5 21.6796 30.8284 21.6796 30V24.7108ZM16.6816 23.7404C15.9288 23.0721 15.3791 22.1798 15.137 21.1681L10.75 23.701C10.0325 24.1152 9.78671 25.0326 10.2009 25.75C10.6151 26.4674 11.5325 26.7133 12.25 26.299L16.6816 23.7404ZM15.1006 18.9959C15.309 17.9737 15.8294 17.0648 16.5579 16.3732L11.9294 13.701C11.212 13.2867 10.2946 13.5326 9.88041 14.25C9.4662 14.9674 9.71201 15.8848 10.4294 16.299L15.1006 18.9959Z" fill="black"/>
<path fill-rule="evenodd" clip-rule="evenodd" d="M5.75 20C5.75 12.1299 12.1299 5.75 20 5.75C27.8701 5.75 34.25 12.1299 34.25 20C34.25 27.8701 27.8701 34.25 20 34.25C12.1299 34.25 5.75 27.8701 5.75 20ZM20 2.25C10.1969 2.25 2.25 10.1969 2.25 20C2.25 29.8031 10.1969 37.75 20 37.75C29.8031 37.75 37.75 29.8031 37.75 20C37.75 10.1969 29.8031 2.25 20 2.25ZM26 20C26 23.3137 23.3137 26 20 26C16.6863 26 14 23.3137 14 20C14 16.6863 16.6863 14 20 14C23.3137 14 26 16.6863 26 20ZM20.0002 23.5999C21.9884 23.5999 23.6002 21.9882 23.6002 19.9999C23.6002 18.0117 21.9884 16.3999 20.0002 16.3999C18.012 16.3999 16.4002 18.0117 16.4002 19.9999C16.4002 21.9882 18.012 23.5999 20.0002 23.5999ZM19.9996 22.4001C21.3251 22.4001 22.3996 21.3256 22.3996 20.0001C22.3996 18.6746 21.3251 17.6001 19.9996 17.6001C18.6741 17.6001 17.5996 18.6746 17.5996 20.0001C17.5996 21.3256 18.6741 22.4001 19.9996 22.4001Z" fill="black"/>
</svg>
