<svg width="40" height="40" viewBox="0 0 40 40" fill="none" xmlns="http://www.w3.org/2000/svg">
<path fill-rule="evenodd" clip-rule="evenodd" d="M21.7835 9.28065C21.0485 7.81349 18.9547 7.8131 18.2193 9.28L8.36854 28.9271C7.70394 30.2527 8.66768 31.814 10.1505 31.814H29.8429C31.3254 31.814 32.2891 30.2533 31.6251 28.9278L21.7835 9.28065ZM15.0905 7.71129C17.1173 3.66882 22.8875 3.66986 24.9128 7.7131L34.7545 27.3602C36.5842 31.013 33.9283 35.314 29.8429 35.314H10.1505C6.06415 35.314 3.40827 31.0113 5.23977 27.3584L15.0905 7.71129ZM19.9953 14.5843C20.9158 14.5843 21.662 15.3305 21.662 16.2509V19.9943C21.662 20.9148 20.9158 21.661 19.9953 21.661C19.0748 21.661 18.3286 20.9148 18.3286 19.9943V16.2509C18.3286 15.3305 19.0748 14.5843 19.9953 14.5843ZM19.9255 25.799C19.0051 25.799 18.2589 26.5452 18.2589 27.4657C18.2589 28.3861 19.0051 29.1323 19.9255 29.1323C20.846 29.1323 21.5922 28.3861 21.5922 27.4657C21.5922 26.5452 20.846 25.799 19.9255 25.799Z" fill="black"/>
</svg>
