<svg width="40" height="40" viewBox="0 0 40 40" fill="none" xmlns="http://www.w3.org/2000/svg">
<path fill-rule="evenodd" clip-rule="evenodd" d="M32.3197 7.67L33.5668 7.756C33.5933 7.37097 33.4405 6.99528 33.1528 6.73806C32.8651 6.48085 32.4746 6.37098 32.095 6.44036L32.3197 7.67ZM10.4572 30.497C10.4702 30.5076 10.4831 30.5181 10.4961 30.5287C12.9953 32.5518 16.3733 33.5695 19.9949 33.5695C23.2083 33.5695 25.6381 31.6852 27.4196 29.1954C29.1949 26.7143 30.4514 23.4744 31.3439 20.3368C32.2414 17.1819 32.7958 14.0402 33.1259 11.6958C33.2913 10.5212 33.4011 9.54143 33.4698 8.85323C33.5041 8.50903 33.5282 8.23746 33.5437 8.05063C33.5515 7.9572 33.5572 7.88493 33.5609 7.83533L33.5652 7.77811L33.5663 7.76259L33.5666 7.75817L33.5667 7.7568C33.5667 7.75635 33.5668 7.756 32.3197 7.67C32.095 6.44036 32.0947 6.44042 32.0943 6.4405L32.093 6.44073L32.0887 6.44152L32.0735 6.44434L32.0169 6.45495C31.9677 6.46425 31.8959 6.47798 31.8029 6.49617C31.617 6.53254 31.3464 6.58675 31.0033 6.65893C30.3172 6.80325 29.3399 7.01962 28.1683 7.30914C25.8289 7.88727 22.6973 8.76134 19.5552 9.94235C16.4277 11.1178 13.2161 12.6243 10.764 14.493C8.33733 16.3423 6.42017 18.7322 6.42017 21.6947C6.42017 24.4604 7.25207 26.8183 8.69127 28.6859C8.27819 29.2308 7.92054 29.7246 7.62407 30.1459C7.30025 30.6061 7.04869 30.9808 6.87687 31.2424C6.79094 31.3732 6.7249 31.4759 6.67968 31.5469C6.65707 31.5824 6.63966 31.61 6.62756 31.6292L6.61342 31.6518L6.60937 31.6584L6.6081 31.6604L6.60766 31.6611C6.60749 31.6614 6.60735 31.6616 7.60363 32.2784L6.60734 31.6616C6.24397 32.2486 6.42524 33.019 7.01223 33.3824C7.59911 33.7457 8.36936 33.5646 8.73281 32.9778L8.733 32.9775L8.733 32.9775L8.73499 32.9743L8.74492 32.9584C8.75418 32.9437 8.76867 32.9207 8.78829 32.8899C8.82753 32.8283 8.88724 32.7355 8.96649 32.6148C9.12504 32.3734 9.36156 32.021 9.66858 31.5847C9.89463 31.2634 10.1585 30.8973 10.4572 30.497ZM12.0023 28.5309C12.0245 28.5492 12.0467 28.5674 12.0691 28.5855C14.0323 30.1748 16.8168 31.0695 19.9949 31.0695C22.094 31.0695 23.861 29.8727 25.3865 27.7407C26.9181 25.6 28.0788 22.6776 28.9393 19.6527C29.7949 16.6452 30.3296 13.6246 30.6503 11.3472C30.7648 10.5338 30.8517 9.81793 30.9159 9.23474C30.3257 9.36416 29.5975 9.53117 28.7681 9.73613C26.4857 10.3002 23.455 11.1473 20.4347 12.2825C17.3998 13.4232 14.449 14.8279 12.2793 16.4814C10.0842 18.1542 8.92017 19.8973 8.92017 21.6947C8.92017 23.6533 9.4285 25.3068 10.3118 26.6544C10.3345 26.6274 10.3572 26.6004 10.3801 26.5733C12.7031 23.8181 16.0134 20.4883 19.8351 18.4651C20.4452 18.1421 21.2017 18.3748 21.5247 18.9849C21.8477 19.5951 21.6149 20.3515 21.0048 20.6745C17.6016 22.4762 14.537 25.5214 12.2914 28.1848C12.1933 28.3011 12.0969 28.4165 12.0023 28.5309Z" fill="#0E1438"/>
</svg>
