<svg width="40" height="40" viewBox="0 0 40 40" fill="none" xmlns="http://www.w3.org/2000/svg">
<rect width="40" height="40" rx="2.5" fill="white"/>
<path d="M20.695 14.5833L17.9167 20H22.0833L19.305 25.4166M7.91666 11.25V20C7.91666 21.5868 8.2292 23.158 8.83645 24.6241C9.44369 26.0901 10.3337 27.4221 11.4558 28.5442C12.5778 29.6662 13.9099 30.5563 15.3759 31.1635C16.8419 31.7707 18.4132 32.0833 20 32.0833C21.5868 32.0833 23.1581 31.7707 24.6241 31.1635C26.0901 30.5563 27.4222 29.6662 28.5442 28.5442C29.6662 27.4221 30.5563 26.0901 31.1635 24.6241C31.7708 23.158 32.0833 21.5868 32.0833 20V11.25L20 7.91663L7.91666 11.25Z" stroke="black" stroke-width="2.6" stroke-linecap="round" stroke-linejoin="round"/>
</svg>
