<svg width="40" height="40" viewBox="0 0 40 40" fill="none" xmlns="http://www.w3.org/2000/svg">
<path fill-rule="evenodd" clip-rule="evenodd" d="M8.65202 2.57996C6.49173 2.57996 4.74048 4.33121 4.74048 6.49149V24.8645C4.74048 24.9544 4.74725 25.0426 4.7603 25.1288L3.16537 32.7047C2.65354 35.1359 4.5085 37.4221 6.993 37.4221H33.0073C35.4918 37.4221 37.3468 35.1359 36.8349 32.7047L35.2399 25.1283C35.2529 25.0423 35.2597 24.9542 35.2597 24.8645V6.49149C35.2597 4.33121 33.5084 2.57996 31.3481 2.57996H8.65202ZM31.9761 26.6145H8.02424L6.59029 33.4258C6.53644 33.6815 6.73161 33.9221 6.993 33.9221H33.0073C33.2687 33.9221 33.4639 33.6815 33.41 33.4258L31.9761 26.6145ZM8.24048 6.49149C8.24048 6.26421 8.42473 6.07996 8.65202 6.07996H31.3481C31.5754 6.07996 31.7597 6.26421 31.7597 6.49149V23.1145H8.24048V6.49149Z" fill="black"/>
</svg>
