<svg width="102" height="21" viewBox="0 0 102 21" fill="none" xmlns="http://www.w3.org/2000/svg">
<path d="M24.7497 2.50278H32.6792V4.41487H26.9434L26.9429 8.21116H32.2115V10.1238L26.9429 10.1233V15.6265L24.7491 15.626" fill="#0E1438"/>
<path d="M41.2453 10.902C41.2453 9.08349 40.1017 7.80859 38.433 7.80859C36.7457 7.80859 35.6207 9.08349 35.6207 10.902C35.6207 12.7206 36.7457 13.9955 38.433 13.9955C40.1017 13.996 41.2453 12.7206 41.2453 10.902ZM33.5587 10.902C33.5587 8.07111 35.5835 6.02724 38.433 6.02724C41.264 6.02775 43.3078 8.07111 43.3078 10.902C43.3073 13.733 41.264 15.7763 38.433 15.7763C35.583 15.7763 33.5582 13.733 33.5587 10.902Z" fill="#0E1438"/>
<path d="M52.104 10.9026C52.104 9.08349 50.9604 7.80911 49.2917 7.80911C47.6044 7.80911 46.4793 9.08349 46.4793 10.9026C46.4793 12.7206 47.6044 13.996 49.2917 13.996C50.9604 13.996 52.104 12.7211 52.104 10.9026ZM44.4174 10.9026C44.4174 8.07112 46.4421 6.02776 49.2917 6.02776C52.1226 6.02776 54.166 8.07163 54.166 10.9026C54.166 13.7335 52.1226 15.7769 49.2917 15.7769C46.4416 15.7769 44.4168 13.733 44.4174 10.9026Z" fill="#0E1438"/>
<path d="M70.2416 10.9031C70.2416 9.02822 69.1537 7.80964 67.5042 7.80964C65.8546 7.80912 64.7668 9.02822 64.7668 10.9026C64.7668 12.7589 65.8546 13.9966 67.5042 13.9966C69.1537 13.9966 70.2416 12.7589 70.2416 10.9031ZM62.8536 6.17816H64.898V7.37813C65.4231 6.60967 66.529 6.02829 67.8416 6.02829C70.6354 6.02829 72.2854 8.05305 72.2854 10.9031C72.2839 13.7526 70.5599 15.7774 67.729 15.7774C66.5848 15.7774 65.4789 15.2896 64.898 14.5397V19.0393H62.8536" fill="#0E1438"/>
<path d="M81.3783 6.17866H83.4222L83.4206 15.6275H81.3783V6.17866ZM81.0775 3.29139C81.0775 2.54154 81.6398 1.96016 82.3901 1.96016C83.1586 1.96016 83.741 2.54154 83.741 3.29139C83.741 4.02264 83.1586 4.6035 82.3901 4.6035C81.6398 4.6035 81.0775 4.02264 81.0775 3.29139Z" fill="#0E1438"/>
<path d="M85.8799 6.17866H87.9238V7.75382C88.5604 6.74144 89.6478 6.02879 91.0358 6.02879C93.0415 6.02879 94.4476 7.36003 94.4476 9.40339V15.628H92.4038L92.4048 9.87263C92.4048 8.69074 91.6735 7.86596 90.4736 7.86596C88.8793 7.86596 87.9238 9.21579 87.9238 11.4845L87.9227 15.628H85.8799" fill="#0E1438"/>
<path d="M79.8238 6.15592C79.5524 6.07117 79.2005 6.02879 78.891 6.02879C77.7478 6.02828 76.5107 6.85358 76.0042 7.97862V6.17866L73.9603 6.17814V15.6275H76.0042V12.1031C76.0042 9.17859 77.2228 7.94089 78.6103 7.94089C79.0393 7.94089 79.4863 8.01531 79.8238 8.16414" fill="#0E1438"/>
<path d="M60.8722 13.7185C60.5162 13.887 60.032 13.9588 59.6759 13.9588C58.9074 13.9588 58.3824 13.471 58.3824 12.5335V7.92176H60.8655V6.17813L58.3824 6.17762V3.3658H56.3396V6.17762H54.689V7.92124L56.3396 7.92176V12.6462C56.3396 14.8022 57.6703 15.7769 59.4511 15.7769C59.926 15.7769 60.4526 15.6968 60.8722 15.5738" fill="#0E1438"/>
<path d="M101.691 13.7196C101.335 13.888 100.85 13.9599 100.494 13.9599C99.7251 13.9599 99.1995 13.472 99.1995 12.5346L99.201 7.92281H101.683V6.17919L99.201 6.17867V3.36685H97.1572V6.17867H95.5071V7.92229L97.1572 7.92281V12.6472C97.1572 14.8033 98.4879 15.7779 100.269 15.7779C100.744 15.7779 101.27 15.6978 101.691 15.5748" fill="#0E1438"/>
<path d="M10.75 13.1247H14.2502V10.0282C13.7349 10.3264 13.1386 10.5 12.5003 10.5C10.5671 10.5 9.00018 8.93311 9.00018 6.99983C9.00018 5.06706 10.5671 3.49966 12.5003 3.49966C13.1386 3.49966 13.7349 3.67381 14.2502 3.972V0H0.25V21H6.37543V17.4998C6.37543 15.0839 8.33404 13.1247 10.75 13.1247Z" fill="#0E1438"/>
</svg>
