<svg width="24" height="24" viewBox="0 0 24 24" fill="none">
<path fill-rule="evenodd" clip-rule="evenodd" d="M17.8864 7.38637C18.2379 7.0349 18.2379 6.46505 17.8864 6.11358C17.5349 5.76211 16.9651 5.76211 16.6136 6.11358L12 10.7272L7.3864 6.11358C7.03493 5.76211 6.46508 5.76211 6.11361 6.11358C5.76214 6.46505 5.76214 7.0349 6.11361 7.38637L10.7272 12L6.11361 16.6136C5.76214 16.9651 5.76214 17.5349 6.11361 17.8864C6.46508 18.2378 7.03493 18.2378 7.3864 17.8864L12 13.2728L16.6136 17.8864C16.9651 18.2378 17.5349 18.2378 17.8864 17.8864C18.2379 17.5349 18.2379 16.9651 17.8864 16.6136L13.2728 12L17.8864 7.38637Z" fill="black"/>
</svg>
